<?xml version="1.0" encoding="UTF-8"?>
<svg width="35px" height="38px" viewBox="0 0 35 38" version="1.1" xmlns="http://www.w3.org/2000/svg" xmlns:xlink="http://www.w3.org/1999/xlink">
    <title>icon_order</title>
    <g id="intro" stroke="none" stroke-width="1" fill="none" fill-rule="evenodd">
        <g id="manager_dashboard" transform="translate(-545.000000, -645.000000)" fill="#fff" fill-rule="nonzero">
            <g id="Group-3" transform="translate(160.000000, 620.000000)">
                <path d="M385,30.1818182 L385,25 L419.545455,25 L419.545455,30.1818182 L385,30.1818182 Z M406.708364,62.8704545 C410.510091,60.8426364 416.964909,54.4344545 419.545455,50.9850909 C417.324182,52.5396364 412.560364,53.8471818 409.024636,53.0215455 C409.408091,55.5571818 408.703364,60.853 406.708364,62.8704545 Z M419.545455,31.9090909 L419.545455,48.3181818 C419.545455,49.7544833 413.161799,51.9397195 407.146227,50.8905362 C407.146227,50.8905362 407.880038,60.8691628 404,63 L385,63 L385,31.9090909 L419.545455,31.9090909 Z M410.909091,44 L403.136364,44 L403.136364,45.7272727 L410.909091,45.7272727 L410.909091,44 Z M410.909091,37.9545455 L403.136364,37.9545455 L403.136364,39.6818182 L410.909091,39.6818182 L410.909091,37.9545455 Z M395.147808,42.2854654 L395.147808,47.4545455 L399.68171,45.035169 L399.68171,39.9248137 L395.147808,42.2854654 Z M389.318038,45.035169 L393.852372,47.4541137 L393.852372,42.286329 L389.318038,39.9528808 L389.318038,45.035169 Z M392.666521,40.6724428 L394.498594,41.6150731 L399.020837,39.2604667 L397.222663,38.2799656 L392.666521,40.6724428 Z M389.976782,39.2881019 L391.860978,40.2576711 L396.41916,37.8415301 L394.499457,36.7944558 L389.976782,39.2881019 Z" id="icon_order"></path>
            </g>
        </g>
    </g>
</svg>