<?xml version="1.0" encoding="UTF-8"?>
<svg width="41px" height="41px" viewBox="0 0 41 41" version="1.1" xmlns="http://www.w3.org/2000/svg" xmlns:xlink="http://www.w3.org/1999/xlink">
    <title>icont_display</title>
    <g id="intro" stroke="none" stroke-width="1" fill="none" fill-rule="evenodd">
        <g id="manager_dashboard" transform="translate(-662.000000, -644.000000)" fill="#fff">
            <g id="Group-3" transform="translate(160.000000, 620.000000)">
                <path d="M531.659574,49.2978723 L542.12766,57.4525106 L537.69966,58.1974894 L540.382979,63.5972766 L537.642085,65 L534.944809,59.4920426 L531.659574,62.5609362 L531.659574,49.2978723 Z M536.893617,24 L536.893,49.639 L529.042553,43.5404255 L529.042,57.148 L502,57.1489362 L502,24 L536.893617,24 Z M524.680851,47.5531915 L507.234043,47.5531915 L507.234043,49.2978723 L524.680851,49.2978723 L524.680851,47.5531915 Z M512.468085,37.0851064 L507.234043,37.0851064 L507.234043,42.3191489 L512.468085,42.3191489 L512.468085,37.0851064 Z M521.191489,37.0851064 L515.957447,37.0851064 L515.957447,42.3191489 L521.191489,42.3191489 L521.191489,37.0851064 Z M529.914894,30.106383 L507.234043,30.106383 L507.234043,31.8510638 L529.914894,31.8510638 L529.914894,30.106383 Z" id="icont_display"></path>
            </g>
        </g>
    </g>
</svg>