<?xml version="1.0" encoding="UTF-8"?>
<svg width="100px" height="100px" viewBox="0 0 100 100" version="1.1" xmlns="http://www.w3.org/2000/svg" xmlns:xlink="http://www.w3.org/1999/xlink">
    <title>icon_gender_male</title>
    <g id="style_guide" stroke="none" stroke-width="1" fill="none" fill-rule="evenodd">
        <g transform="translate(-340.000000, -1670.000000)" fill="#FFFFFF" fill-rule="nonzero" id="icon_gender_male">
            <path d="M408.181818,1670 L408.181818,1679.09091 L424.481818,1679.09091 L406.427273,1697.14545 C399.427273,1691.55 390.568182,1688.18182 380.909091,1688.18182 C358.318182,1688.18182 340,1706.5 340,1729.09091 C340,1751.68182 358.318182,1770 380.909091,1770 C403.5,1770 421.818182,1751.68182 421.818182,1729.09091 C421.818182,1719.43182 418.45,1710.57273 412.854545,1703.57273 L430.909091,1685.51818 L430.909091,1701.81818 L440,1701.81818 L440,1670 L408.181818,1670 Z M380.909091,1760.90909 C363.363636,1760.90909 349.090909,1746.63636 349.090909,1729.09091 C349.090909,1711.54545 363.363636,1697.27273 380.909091,1697.27273 C398.454545,1697.27273 412.727273,1711.54545 412.727273,1729.09091 C412.727273,1746.63636 398.454545,1760.90909 380.909091,1760.90909 Z"></path>
        </g>
    </g>
</svg>