<svg xmlns="http://www.w3.org/2000/svg" width="23" height="23" viewBox="0 0 23 23">
  <path id="Shape_Copy_6" data-name="Shape Copy 6" d="M22.041,23H.959V9.583H22.042v2.775a2.672,2.672,0,0,0-1.322-.394c-.049,0-.1,0-.148,0-1.477,0-3.082,1.465-3.146,4.181a5.559,5.559,0,0,1,1.9-.322,3.034,3.034,0,0,1,2.6,1,.866.866,0,0,1-.1.982.974.974,0,0,1-.77.37,1.111,1.111,0,0,1-.359-.061.932.932,0,0,0-.294-.06.365.365,0,0,0-.29.142.417.417,0,0,0-.088.333c.041.209.289.352.489.435a2.265,2.265,0,0,0,.853.16,2.665,2.665,0,0,0,.682-.09v.452a3.156,3.156,0,0,1-.685.076,2.678,2.678,0,0,1-1.021-.19c-.54-.226-.707-.535-.751-.755a.853.853,0,0,1,.206-.73.81.81,0,0,1,.6-.274,1.369,1.369,0,0,1,.439.084.665.665,0,0,0,.213.037.553.553,0,0,0,.481-.281.4.4,0,0,0,.018-.4,2.811,2.811,0,0,0-2.265-.795,4.757,4.757,0,0,0-1.831.355l-.038.017A4.573,4.573,0,0,0,15.18,18.77a1.535,1.535,0,0,1,.568-.11,3.542,3.542,0,0,1,1.98.979c.1.076.193.149.285.22a5.405,5.405,0,0,0,3.384,1.3l.172,0a4.171,4.171,0,0,0,.472-.043V23h0ZM11.315,14.252V19.7a.989.989,0,0,0,.205.68.675.675,0,0,0,.523.226.694.694,0,0,0,.542-.226,1,1,0,0,0,.2-.68V13.446a.791.791,0,0,0-.269-.7,1.3,1.3,0,0,0-.728-.18h-.5a1.892,1.892,0,0,0-.65.081.543.543,0,0,0-.3.291,4.509,4.509,0,0,0-.221.685L8.976,17.952,7.827,13.624a4.509,4.509,0,0,0-.221-.685.543.543,0,0,0-.3-.291,1.892,1.892,0,0,0-.65-.081h-.5a1.3,1.3,0,0,0-.727.18.787.787,0,0,0-.27.7V19.7a.987.987,0,0,0,.205.682.743.743,0,0,0,1.065,0,1,1,0,0,0,.2-.68V14.243L7.9,19.279c.034.132.068.261.1.385l.024.092a1.759,1.759,0,0,0,.17.418.855.855,0,0,0,.777.431.847.847,0,0,0,.582-.188A1.007,1.007,0,0,0,9.846,20c.051-.149.12-.392.2-.719l1.265-5.027Zm7.852-8.5V4.7L16.4,0H18.33L23,4.764V5.815a1.91,1.91,0,0,1-1.917,1.852A1.966,1.966,0,0,1,19.166,5.75Zm-4.792,0V4.7l-.9-4.7h1.862l2.869,4.793V5.845a1.881,1.881,0,0,1-1.914,1.822A1.966,1.966,0,0,1,14.375,5.75Zm-4.792,0V4.7l1-4.7h1.825l1,4.7V5.748a1.917,1.917,0,1,1-3.833,0Zm-4.792.065V4.764L7.663,0H9.525l-.9,4.764V5.816a1.918,1.918,0,0,1-3.833,0ZM0,5.815V4.764L4.671,0H6.6L3.833,4.764V5.816A1.918,1.918,0,0,1,0,5.815Z" fill="#1c1c1c"/>
</svg>
