<svg xmlns="http://www.w3.org/2000/svg" width="23" height="23" viewBox="0 0 23 23">
  <path id="Shape" d="M22.041,23H.959V9.583H22.042V23h0Zm-8.17-8.749V19.7a.992.992,0,0,0,.2.68.678.678,0,0,0,.523.226.694.694,0,0,0,.542-.226,1,1,0,0,0,.2-.68V13.446a.787.787,0,0,0-.27-.7,1.3,1.3,0,0,0-.727-.18h-.5a1.892,1.892,0,0,0-.65.081.537.537,0,0,0-.3.291,4.509,4.509,0,0,0-.221.685l-1.148,4.328-1.148-4.328a4.463,4.463,0,0,0-.22-.685.545.545,0,0,0-.3-.291,1.883,1.883,0,0,0-.649-.081h-.5a1.3,1.3,0,0,0-.728.18.789.789,0,0,0-.269.7V19.7a.986.986,0,0,0,.2.682.743.743,0,0,0,1.065,0,1,1,0,0,0,.2-.68V14.243l1.266,5.035q.065.247.127.477a1.759,1.759,0,0,0,.17.418.863.863,0,0,0,.3.31.879.879,0,0,0,.474.122.847.847,0,0,0,.582-.188A.99.99,0,0,0,12.4,20c.051-.149.12-.392.2-.719l1.265-5.027Zm5.3-8.5V4.7L16.4,0H18.33L23,4.764V5.815a1.91,1.91,0,0,1-1.917,1.852A1.966,1.966,0,0,1,19.166,5.75Zm-4.792,0V4.7l-.9-4.7h1.862l2.869,4.793V5.845a1.881,1.881,0,0,1-1.914,1.822A1.966,1.966,0,0,1,14.375,5.75Zm-4.792,0V4.7l1-4.7h1.825l1,4.7V5.748a1.917,1.917,0,1,1-3.833,0Zm-4.792.065V4.764L7.663,0H9.525l-.9,4.764V5.816a1.918,1.918,0,0,1-3.833,0ZM0,5.815V4.764L4.671,0H6.6L3.833,4.764V5.816A1.918,1.918,0,0,1,0,5.815Z" fill="#fff" />
</svg>
