<svg width="40" height="40" viewBox="0 0 40 40" fill="none" xmlns="http://www.w3.org/2000/svg">
<path fill-rule="evenodd" clip-rule="evenodd" d="M40 20C40 31.0457 31.0457 40 20 40C8.9543 40 0 31.0457 0 20C0 8.9543 8.9543 0 20 0C31.0457 0 40 8.9543 40 20ZM18.4772 26.6112H21.3732C22.3977 19.7478 23.6553 9.80883 23.6553 9.80883C23.9541 8.22185 22.5996 6.9231 20.6454 6.9231H19.2045C17.2509 6.9231 15.8963 8.22141 16.1951 9.80883C16.1951 9.80883 17.4527 19.7478 18.4772 26.6112ZM19.9249 33.2552C18.3177 33.2552 17.0145 32.1846 17.0145 30.8632C17.0145 29.5422 18.3177 28.4712 19.9249 28.4712C21.5321 28.4712 22.8352 29.5422 22.8352 30.8632C22.8352 32.1842 21.5321 33.2552 19.9249 33.2552Z" fill="black"/>
</svg>
