<svg xmlns="http://www.w3.org/2000/svg" width="18" height="18" viewBox="0 0 18 18">
  <path id="Combined_Shape" data-name="Combined Shape" d="M13.5,15.75A2.25,2.25,0,1,1,15.75,18,2.25,2.25,0,0,1,13.5,15.75Zm-6.75,0A2.25,2.25,0,1,1,9,18,2.25,2.25,0,0,1,6.75,15.75ZM0,15.75A2.25,2.25,0,1,1,2.25,18,2.25,2.25,0,0,1,0,15.75ZM13.5,9a2.25,2.25,0,1,1,2.25,2.25A2.25,2.25,0,0,1,13.5,9ZM6.75,9A2.25,2.25,0,1,1,9,11.25,2.25,2.25,0,0,1,6.75,9ZM0,9a2.25,2.25,0,1,1,2.25,2.25A2.25,2.25,0,0,1,0,9ZM13.5,2.25A2.25,2.25,0,1,1,15.75,4.5,2.25,2.25,0,0,1,13.5,2.25Zm-6.75,0A2.25,2.25,0,1,1,9,4.5,2.25,2.25,0,0,1,6.75,2.25ZM0,2.25A2.25,2.25,0,1,1,2.25,4.5,2.25,2.25,0,0,1,0,2.25Z" fill="#fff"/>
</svg>
