<?xml version="1.0" encoding="UTF-8"?>
<svg width="16px" height="16px" viewBox="0 0 16 16" version="1.1" xmlns="http://www.w3.org/2000/svg" xmlns:xlink="http://www.w3.org/1999/xlink">
    <title>icon_calendar</title>
    <g id="style_guide" stroke="none" stroke-width="1" fill="none" fill-rule="evenodd">
        <g transform="translate(-185.000000, -210.000000)" fill="#fff" fill-rule="nonzero" id="icon_calendar">
            <path d="M198.6,210.8 C198.6,210.3584 198.2424,210 197.8,210 C197.3576,210 197,210.3584 197,210.8 L197,212.4 C197,212.8416 197.3576,213.2 197.8,213.2 C198.2424,213.2 198.6,212.8416 198.6,212.4 L198.6,210.8 Z M189,212.4 C189,212.8416 188.6424,213.2 188.2,213.2 C187.7576,213.2 187.4,212.8416 187.4,212.4 L187.4,210.8 C187.4,210.3584 187.7576,210 188.2,210 C188.6424,210 189,210.3584 189,210.8 L189,212.4 Z M199.4,216.4 L199.4,224.4 L186.6,224.4 L186.6,216.4 L199.4,216.4 Z M201,211.6 L199.4,211.6 L199.4,212.4 C199.4,213.2824 198.6824,214 197.8,214 C196.9176,214 196.2,213.2824 196.2,212.4 L196.2,211.6 L189.8,211.6 L189.8,212.4 C189.8,213.2824 189.0824,214 188.2,214 C187.3176,214 186.6,213.2824 186.6,212.4 L186.6,211.6 L185,211.6 L185,226 L201,226 L201,211.6 Z M190.6,219.6 L189,219.6 L189,218 L190.6,218 L190.6,219.6 Z M193.8,219.6 L192.2,219.6 L192.2,218 L193.8,218 L193.8,219.6 Z M197,219.6 L195.4,219.6 L195.4,218 L197,218 L197,219.6 Z M190.6,222.8 L189,222.8 L189,221.2 L190.6,221.2 L190.6,222.8 Z M193.8,222.8 L192.2,222.8 L192.2,221.2 L193.8,221.2 L193.8,222.8 Z M197,222.8 L195.4,222.8 L195.4,221.2 L197,221.2 L197,222.8 Z"></path>
        </g>
    </g>
</svg>