<?xml version="1.0" encoding="UTF-8"?>
<svg width="35px" height="40px" viewBox="0 0 35 40" version="1.1" xmlns="http://www.w3.org/2000/svg" xmlns:xlink="http://www.w3.org/1999/xlink">
    <title>icont_board</title>
    <g id="intro" stroke="none" stroke-width="1" fill="none" fill-rule="evenodd">
        <g id="manager_dashboard" transform="translate(-785.000000, -644.000000)" fill="#1C1C1C" fill-rule="nonzero">
            <g id="Group-3" transform="translate(160.000000, 620.000000)">
                <path d="M649.653913,64 C653.611158,62.6595618 657.648183,58.9 659.782609,53.8 L659.782609,53.8 L659.782609,64 L625,64 L625,27.4782609 L630.217391,27.4782609 C632.354783,27.4782609 634.008696,25.5930435 635.434783,24 L649.347826,24 C650.773913,25.5930435 652.427826,27.4782609 654.565217,27.4782609 L659.782609,27.4782609 L659.782609,49.2921739 C659.782609,56.4347826 649.347826,53.5652174 649.347826,53.5652174 C649.347826,53.5652174 651.987826,64 644.76,64 L644.76,64 Z M640.652174,29.2173913 C640.652174,30.1773913 641.431304,30.9565217 642.391304,30.9565217 C643.351304,30.9565217 644.130435,30.1773913 644.130435,29.2173913 C644.130435,28.2573913 643.351304,27.4782609 642.391304,27.4782609 C641.431304,27.4782609 640.652174,28.2573913 640.652174,29.2173913 Z M631.086957,43.1304348 L650.217391,43.1304348 L650.217391,41.3913043 L631.086957,41.3913043 L631.086957,43.1304348 Z M631.086957,37.0434783 L650.217391,37.0434783 L650.217391,35.3043478 L631.086957,35.3043478 L631.086957,37.0434783 Z M631.086957,49.2173913 L645,49.2173913 L645,47.4782609 L631.086957,47.4782609 L631.086957,49.2173913 Z" id="icont_board"></path>
            </g>
        </g>
    </g>
</svg>