<svg width="17" height="16" viewBox="0 0 17 16" fill="none" xmlns="http://www.w3.org/2000/svg">
<g clip-path="url(#clip0_366_9519)">
<path d="M7.17363 10.7935L8.50463 11.6932L12.7525 5.99642L11.4215 5.09669C11.0588 4.85148 10.9404 4.39021 11.142 4.01321L13.0141 0.522003C13.2623 0.0588322 13.8852 -0.0868988 14.3311 0.214067C16.8447 1.91278 17.4357 5.23038 15.6508 7.62354L11.0728 13.7626C9.28793 16.1558 5.80403 16.7184 3.29043 15.0191C2.84454 14.7181 2.78398 14.1105 3.16132 13.7341L6.007 10.9C6.31447 10.5939 6.81093 10.5489 7.17363 10.7941V10.7935Z" fill="#0031C8"/>
<path d="M1.34113 9.14859C1.37574 9.14859 1.41101 9.14542 1.44561 9.13782C1.71514 9.08333 1.88684 8.83052 1.82961 8.5739C1.45293 6.89356 1.78568 5.17393 2.7673 3.73183C3.74891 2.28973 5.2616 1.29812 7.02651 0.939497C7.29604 0.885006 7.46774 0.632195 7.41051 0.375581C7.35327 0.118968 7.08774 -0.0445041 6.81821 0.00998664C2.6362 0.859662 -0.0397878 4.7906 0.853316 8.77222C0.903229 8.99526 1.1102 9.14859 1.34113 9.14859Z" fill="#0031C8"/>
<path d="M3.80082 8.38163C3.83543 8.38163 3.8707 8.37846 3.90531 8.37086C4.17484 8.31637 4.34653 8.06355 4.2893 7.80694C3.88002 5.98023 5.1072 4.17634 7.02651 3.78667C7.29604 3.73154 7.46774 3.47936 7.41051 3.22275C7.35327 2.96614 7.08774 2.80266 6.81821 2.85715C4.36118 3.35644 2.7886 5.66596 3.31368 8.00526C3.36359 8.22829 3.57056 8.38163 3.80149 8.38163H3.80082Z" fill="#0031C8"/>
</g>
<defs>
<clipPath id="clip0_366_9519">
<rect width="16" height="16" fill="white" transform="matrix(-1 0 0 1 16.6816 0)"/>
</clipPath>
</defs>
</svg>
