<?xml version="1.0" encoding="UTF-8"?>
<svg width="40px" height="40px" viewBox="0 0 40 40" version="1.1" xmlns="http://www.w3.org/2000/svg" xmlns:xlink="http://www.w3.org/1999/xlink">
    <title>icon_member</title>
    <g id="intro" stroke="none" stroke-width="1" fill="none" fill-rule="evenodd">
        <g id="manager_dashboard" transform="translate(-302.000000, -644.000000)" fill="#fff" fill-rule="nonzero">
            <g id="Group-3" transform="translate(160.000000, 620.000000)">
                <path d="M162,24 C168.962845,24 175.095097,27.5664697 178.676854,32.975817 C180.776756,36.1471925 182,39.9520031 182,44.0429182 C182,48.7914764 180.351854,53.1545497 177.597607,56.5889292 C176.449346,54.6042488 175.404327,53.5083511 174.068574,53.1990582 C170.246908,52.3154996 166.688574,51.5405068 168.413574,48.2801921 C173.375326,37.1241862 167.692546,33.1507975 162,34.0214591 C156.353333,34.0214591 152.593333,39.5315914 157.851667,49.2524067 C159.337606,51.9959786 156.998424,52.985869 154.005035,53.7425372 L153.611144,53.8400354 C153.280244,53.92039 152.943243,53.9987701 152.604214,54.0771284 L152.196667,54.1712729 C150.39,54.590504 149.074687,55.881827 147.645093,58.1977807 L147.721482,58.0768767 C144.182488,54.4611879 142,49.5072841 142,44.0429182 C142,32.9742166 150.955,24 162,24 Z M162,64 C156.988403,64 151.996097,62.2543186 148.85262,59.0736797 C149.233503,58.2071182 150.782247,55.5750279 153.46094,55.141193 C157.705919,54.4536862 160.95922,52.5210068 159.430623,49.6014925 C154.610067,40.3945623 157.128587,35.5200294 162.11094,35.5200294 C166.996234,35.5200294 169.185465,40.745452 164.726237,49.6014925 C163.260172,52.5131019 166.872589,54.8690178 171.477132,55.41411 C173.081413,55.7051286 174.770066,58.2100657 175.15389,59.0736797 C171.883219,62.2543186 167.011597,64 162,64 Z" id="icon_member"></path>
            </g>
        </g>
    </g>
</svg>