<svg width="13" height="13" viewBox="0 0 13 13" fill="none" xmlns="http://www.w3.org/2000/svg">
<path fill-rule="evenodd" clip-rule="evenodd" d="M1.5 5.3C1.5 3.47746 2.97746 2 4.8 2C6.62254 2 8.1 3.47746 8.1 5.3C8.1 7.12254 6.62254 8.6 4.8 8.6C2.97746 8.6 1.5 7.12254 1.5 5.3ZM4.8 0.5C2.14903 0.5 0 2.64903 0 5.3C0 7.95097 2.14903 10.1 4.8 10.1C7.45097 10.1 9.6 7.95097 9.6 5.3C9.6 2.64903 7.45097 0.5 4.8 0.5ZM9.33032 8.7696C9.03743 8.4767 8.56255 8.4767 8.26966 8.7696C7.97676 9.06249 7.97676 9.53736 8.26966 9.83026L10.9364 12.497C11.2292 12.7899 11.7041 12.7899 11.997 12.497C12.2899 12.2041 12.2899 11.7292 11.997 11.4363L9.33032 8.7696Z" fill="#333333"/>
</svg>
