<svg xmlns="http://www.w3.org/2000/svg" width="44.172" height="34" viewBox="0 0 44.172 34">
  <path id="Shape" d="M21.8,23.32H2.591A2.6,2.6,0,0,1,0,20.729V2.591A2.6,2.6,0,0,1,2.591,0h28.5a2.6,2.6,0,0,1,2.591,2.591v9.044l-.116-.006A11.193,11.193,0,1,1,21.8,23.32Zm2.786-.514a8.393,8.393,0,1,0,8.392-8.394A8.4,8.4,0,0,0,24.589,22.806Zm-2.789.462v0Zm0-.04c0-.091-.006-.182-.007-.273C21.793,23.046,21.8,23.138,21.8,23.229Zm-.007-.281c0-.019,0-.037,0-.056Q21.791,22.92,21.792,22.948Zm0-.073c0-.021,0-.042,0-.063Q21.791,22.843,21.791,22.874Zm0-.069h0c0-.023,0-.046,0-.069C21.791,22.759,21.791,22.782,21.791,22.805Zm0-.093c0-.015,0-.03,0-.044C21.791,22.683,21.791,22.7,21.791,22.713Zm0-.079c0-.011,0-.021,0-.031C21.792,22.612,21.792,22.623,21.792,22.633Zm0-.078v0Zm0-.074v0Zm-19.2-2.4a.649.649,0,0,0,.648.648H21.984a11.222,11.222,0,0,1,9.109-8.956V9.716H2.591Zm30.2-8.466h0Zm.06,0h0Zm.225,0h0Zm-.162,0h0ZM2.591,3.239V5.83h28.5V3.239a.649.649,0,0,0-.648-.648H3.239A.649.649,0,0,0,2.591,3.239ZM33.162,24.3l-2.638,2.639L29.2,25.625l2.638-2.639L29.2,20.348l1.319-1.319,2.638,2.638L35.8,19.029l1.319,1.319-2.639,2.638,2.639,2.639L35.8,26.943ZM12.553,18.428V17.6l.167,0a.905.905,0,0,0,.465-.1.621.621,0,0,0,.24-.315l.13-.337-1.439-4.118H13.3l.763,2.555.759-2.555H16L14.345,17.48l-.091.216a1.258,1.258,0,0,1-1.215.8A1.723,1.723,0,0,1,12.553,18.428ZM5.4,18.421h-1.1V12.735H5.325l.038.4a1.3,1.3,0,0,1,1.04-.478,1.4,1.4,0,0,1,1.18.562,2.539,2.539,0,0,1,.422,1.549v.057a2.471,2.471,0,0,1-.431,1.52,1.389,1.389,0,0,1-1.164.571,1.286,1.286,0,0,1-1.005-.433V18.42h0Zm0-4.475v1.681a.733.733,0,0,0,.717.406c.521,0,.786-.433.786-1.287a1.613,1.613,0,0,0-.2-.884.661.661,0,0,0-.59-.311A.72.72,0,0,0,5.405,13.946Zm3.379,2.623a1.131,1.131,0,0,1-.4-.881,1.165,1.165,0,0,1,.484-1,2.4,2.4,0,0,1,1.4-.353h.5V14.1a.679.679,0,0,0-.147-.455.577.577,0,0,0-.461-.171.66.66,0,0,0-.435.133.451.451,0,0,0-.158.365h-1.1a1.11,1.11,0,0,1,.22-.661,1.453,1.453,0,0,1,.622-.476,2.294,2.294,0,0,1,.9-.173,1.8,1.8,0,0,1,1.205.382,1.339,1.339,0,0,1,.446,1.072v1.78a1.964,1.964,0,0,0,.163.885v.064H10.931a1.23,1.23,0,0,1-.111-.368,1.333,1.333,0,0,1-1.036.445A1.473,1.473,0,0,1,8.784,16.569Zm.7-1.025,0,.065a.439.439,0,0,0,.144.337.563.563,0,0,0,.4.133.941.941,0,0,0,.447-.108.721.721,0,0,0,.3-.291v-.706h-.41C9.818,14.975,9.523,15.167,9.488,15.544Z" fill="#fff"/>
</svg>
