<svg width="28px" height="32px" viewBox="0 0 28 32" version="1.1" xmlns="http://www.w3.org/2000/svg" xmlns:xlink="http://www.w3.org/1999/xlink">
    <title>Shape</title>
    <g id="dashboard" stroke="none" stroke-width="1" fill="none" fill-rule="evenodd">
        <g id="--copy-2" transform="translate(-128.000000, -201.000000)" fill="#FFFFFF" fill-rule="nonzero">
            <g id="주문현황" transform="translate(50.469725, 131.000000)">
                <path d="M78.5511086,70.13646 C79.1709002,69.892694 79.9000669,69.9801997 80.4177752,70.3614747 L83.3636086,72.5241165 L86.3094419,70.3614747 C86.9656919,69.8801932 87.9354836,69.8801932 88.5844419,70.3614747 L91.5302752,72.5241165 L94.4761086,70.3614747 C95.1323586,69.8801932 96.0948586,69.8801932 96.7511086,70.3614747 L99.6969419,72.5241165 L102.642775,70.3614747 C103.160484,69.9801997 103.88965,69.892694 104.509442,70.13646 C105.129234,70.3802259 105.530275,70.9115108 105.530275,71.4990493 L105.530275,100.500951 C105.530275,101.088489 105.129234,101.619774 104.509442,101.86354 C103.88965,102.107306 103.160484,102.0198 102.642775,101.638525 L99.6969419,99.4758835 L96.7511086,101.638525 C96.0948586,102.119807 95.1323586,102.119807 94.4761086,101.638525 L91.5302752,99.4758835 L88.5844419,101.638525 C87.9281919,102.119807 86.9584002,102.119807 86.3094419,101.638525 L83.3636086,99.4758835 L80.4177752,101.638525 C79.9000669,102.0198 79.1709002,102.107306 78.5511086,101.86354 C77.9313169,101.619774 77.5302752,101.088489 77.5302752,100.500951 L77.5302752,71.4990493 C77.5302752,70.9115108 77.9313169,70.3802259 78.5511086,70.13646 Z M84.5302752,78.999541 C83.8886086,78.999541 83.3636086,79.4495705 83.3636086,79.9996066 C83.3636086,80.5496427 83.8886086,80.9996722 84.5302752,80.9996722 L98.5302752,80.9996722 C99.1719419,80.9996722 99.6969419,80.5496427 99.6969419,79.9996066 C99.6969419,79.4495705 99.1719419,78.999541 98.5302752,78.999541 L84.5302752,78.999541 Z M83.3636086,92.0003934 C83.3636086,92.5504295 83.8886086,93.000459 84.5302752,93.000459 L98.5302752,93.000459 C99.1719419,93.000459 99.6969419,92.5504295 99.6969419,92.0003934 C99.6969419,91.4503573 99.1719419,91.0003278 98.5302752,91.0003278 L84.5302752,91.0003278 C83.8886086,91.0003278 83.3636086,91.4503573 83.3636086,92.0003934 Z M84.5302752,84.9999344 C83.8886086,84.9999344 83.3636086,85.4499639 83.3636086,86 C83.3636086,86.5500361 83.8886086,87.0000656 84.5302752,87.0000656 L98.5302752,87.0000656 C99.1719419,87.0000656 99.6969419,86.5500361 99.6969419,86 C99.6969419,85.4499639 99.1719419,84.9999344 98.5302752,84.9999344 L84.5302752,84.9999344 Z" id="Shape"></path>
            </g>
        </g>
    </g>
</svg>