<svg width="48" height="48" viewBox="0 0 48 48" fill="none" xmlns="http://www.w3.org/2000/svg">
<path fill-rule="evenodd" clip-rule="evenodd" d="M22.1651 10.6842C20.998 10.6842 20.0048 11.5345 19.825 12.6877L19.7928 12.8947H21.4574C23.3305 12.8947 24.9951 14.0888 25.5954 15.863L27.4402 21.3158H33.8408L30.894 12.3156C30.5753 11.3424 29.6673 10.6842 28.6432 10.6842H22.1651ZM34.5599 23.512L38.6816 36.1004C38.8535 36.6253 39.4183 36.9115 39.9431 36.7396C40.468 36.5678 40.7542 36.003 40.5823 35.4781L32.7947 11.6933C32.207 9.89821 30.532 8.6842 28.6432 8.6842H22.1651C20.0124 8.6842 18.1805 10.2526 17.8489 12.3796L17.7686 12.8947H14.9394C12.7951 12.8947 10.9677 14.4511 10.6267 16.5682L7.01288 38.9986C6.92503 39.5438 7.29584 40.0571 7.84109 40.1449C8.38634 40.2327 8.89957 39.8619 8.98742 39.3167L10.7799 28.1909C10.8509 28.2068 10.9247 28.2153 11.0005 28.2153H15.3799L14.223 35.6352C14.1379 36.1809 14.5113 36.6923 15.057 36.7773C15.6027 36.8624 16.1141 36.489 16.1991 35.9433L17.4041 28.2153H27.6632L31.4738 39.4781C31.6508 40.0013 32.2184 40.2819 32.7415 40.1049C33.2647 39.9279 33.5453 39.3603 33.3683 38.8371L29.7745 28.2153H30.2083C30.5069 28.2153 30.7898 28.0819 30.9797 27.8516L34.5599 23.512ZM29.0979 26.2153H29.737L32.129 23.3158H28.1169L29.0979 26.2153ZM25.3289 21.3158L23.7009 16.504C23.3754 15.5421 22.4729 14.8947 21.4574 14.8947H19.4809L18.4798 21.3158H25.3289ZM18.168 23.3158H26.0055L26.9865 26.2153H17.7159L18.168 23.3158ZM15.6917 26.2153L17.4568 14.8947H14.9394C13.7768 14.8947 12.7861 15.7385 12.6012 16.8863L11.0982 26.2153H15.6917Z" fill="#BDBDBD"/>
<path d="M21.1058 9.42901C21.1058 8.63979 21.7456 8 22.5348 8H27.7609C28.5501 8 29.1899 8.63979 29.1899 9.42901C29.1899 10.2182 28.5501 10.858 27.7609 10.858H22.5348C21.7456 10.858 21.1058 10.2182 21.1058 9.42901Z" fill="url(#paint0_linear_1085_5852)"/>
<path d="M13.8955 13.6395C13.8955 12.8502 14.5353 12.2104 15.3245 12.2104H20.5507C21.3399 12.2104 21.9797 12.8502 21.9797 13.6395C21.9797 14.4287 21.3399 15.0685 20.5507 15.0685H15.3245C14.5353 15.0685 13.8955 14.4287 13.8955 13.6395Z" fill="url(#paint1_linear_1085_5852)"/>
<ellipse cx="32.4223" cy="38.9787" rx="1.01052" ry="1.02072" fill="#333333"/>
<ellipse cx="8.16982" cy="38.9789" rx="1.01052" ry="1.02072" fill="#333333"/>
<ellipse cx="39.8004" cy="35.9679" rx="1.01052" ry="1.02072" fill="#333333"/>
<ellipse cx="15.127" cy="35.9679" rx="1.01052" ry="1.02072" fill="#333333"/>
<defs>
<linearGradient id="paint0_linear_1085_5852" x1="23.3794" y1="8.50611" x2="24.0522" y2="11.2777" gradientUnits="userSpaceOnUse">
<stop stop-color="#FF8120"/>
<stop offset="1" stop-color="#E54304"/>
</linearGradient>
<linearGradient id="paint1_linear_1085_5852" x1="16.1692" y1="12.7166" x2="16.8419" y2="15.4882" gradientUnits="userSpaceOnUse">
<stop stop-color="#FF8120"/>
<stop offset="1" stop-color="#E54304"/>
</linearGradient>
</defs>
</svg>
