<svg width="48" height="48" viewBox="0 0 48 48" fill="none" xmlns="http://www.w3.org/2000/svg">
<path fill-rule="evenodd" clip-rule="evenodd" d="M10 24.5C8.89543 24.5 8 25.3954 8 26.5C8 27.6046 8.89543 28.5 10 28.5C11.1046 28.5 12 27.6046 12 26.5C12 25.3954 11.1046 24.5 10 24.5ZM6 26.5C6 24.2909 7.79086 22.5 10 22.5C12.2091 22.5 14 24.2909 14 26.5C14 28.7091 12.2091 30.5 10 30.5C7.79086 30.5 6 28.7091 6 26.5Z" fill="#BDBDBD"/>
<path fill-rule="evenodd" clip-rule="evenodd" d="M14 20.5C12.6193 20.5 11.5 21.6193 11.5 23C11.5 23.8284 10.8284 24.5 10 24.5C9.17157 24.5 8.5 23.8284 8.5 23C8.5 19.9624 10.9624 17.5 14 17.5H34C37.0376 17.5 39.5 19.9624 39.5 23C39.5 23.8284 38.8284 24.5 38 24.5C37.1716 24.5 36.5 23.8284 36.5 23C36.5 21.6193 35.3807 20.5 34 20.5H14Z" fill="#BDBDBD"/>
<path fill-rule="evenodd" clip-rule="evenodd" d="M14.5 19C14.5 18.1716 15.1716 17.5 16 17.5H32C32.8284 17.5 33.5 18.1716 33.5 19C33.5 19.8284 32.8284 20.5 32 20.5H16C15.1716 20.5 14.5 19.8284 14.5 19Z" fill="url(#paint0_linear_1422_9314)"/>
<path fill-rule="evenodd" clip-rule="evenodd" d="M38 24.5C36.8954 24.5 36 25.3954 36 26.5C36 27.6046 36.8954 28.5 38 28.5C39.1046 28.5 40 27.6046 40 26.5C40 25.3954 39.1046 24.5 38 24.5ZM34 26.5C34 24.2909 35.7909 22.5 38 22.5C40.2091 22.5 42 24.2909 42 26.5C42 28.7091 40.2091 30.5 38 30.5C35.7909 30.5 34 28.7091 34 26.5Z" fill="#BDBDBD"/>
<defs>
<linearGradient id="paint0_linear_1422_9314" x1="19.8437" y1="18.0313" x2="20.1738" y2="21.0762" gradientUnits="userSpaceOnUse">
<stop stop-color="#FF8120"/>
<stop offset="1" stop-color="#E54304"/>
</linearGradient>
</defs>
</svg>
