<svg width="48" height="48" viewBox="0 0 48 48" fill="none" xmlns="http://www.w3.org/2000/svg">
<path fill-rule="evenodd" clip-rule="evenodd" d="M25.25 12C25.25 11.5858 25.5858 11.25 26 11.25H35.8576C36.2718 11.25 36.6076 11.5858 36.6076 12V22.0318L41.096 26.363C43.3088 28.5108 43.2997 31.9969 41.0786 34.1465L41.0778 34.1472C39.9669 35.2192 38.5047 35.75 37.0684 35.75C35.6347 35.75 34.1892 35.2317 33.0827 34.1701L33.0811 34.1685L27.2594 28.5506C25.9772 27.3132 25.25 25.6259 25.25 23.8655V12ZM26.75 12.75V23.8655C26.75 25.2101 27.3055 26.5105 28.301 27.4712L34.1212 33.0877C34.121 33.0875 34.1214 33.0878 34.1212 33.0877C34.9275 33.861 35.9923 34.25 37.0684 34.25C38.142 34.25 39.2229 33.8525 40.0359 33.0681C41.6509 31.5046 41.653 28.9949 40.0521 27.4402C40.0518 27.4399 40.0515 27.4396 40.0512 27.4394L35.3368 22.89C35.1904 22.7486 35.1076 22.5538 35.1076 22.3503V12.75H26.75Z" fill="#BDBDBD"/>
<path fill-rule="evenodd" clip-rule="evenodd" d="M26.25 16C26.25 15.5858 26.5858 15.25 27 15.25H35.5C35.9142 15.25 36.25 15.5858 36.25 16C36.25 16.4142 35.9142 16.75 35.5 16.75H27C26.5858 16.75 26.25 16.4142 26.25 16Z" fill="#BDBDBD"/>
<path d="M29.591 24.5303C29.8839 24.8232 29.8839 25.2981 29.591 25.591C29.2981 25.8839 28.8232 25.8839 28.5303 25.591C28.2374 25.2981 28.2374 24.8232 28.5303 24.5303C28.8232 24.2374 29.2981 24.2374 29.591 24.5303Z" fill="url(#paint0_linear_1422_9315)"/>
<path d="M31.3588 26.2981C31.6516 26.591 31.6516 27.0659 31.3588 27.3588C31.0659 27.6517 30.591 27.6517 30.2981 27.3588C30.0052 27.0659 30.0052 26.591 30.2981 26.2981C30.591 26.0052 31.0659 26.0052 31.3588 26.2981Z" fill="url(#paint1_linear_1422_9315)"/>
<path d="M33.1265 28.0659C33.4194 28.3588 33.4194 28.8336 33.1265 29.1265C32.8336 29.4194 32.3587 29.4194 32.0659 29.1265C31.773 28.8336 31.773 28.3588 32.0659 28.0659C32.3587 27.773 32.8336 27.773 33.1265 28.0659Z" fill="url(#paint2_linear_1422_9315)"/>
<path d="M34.8943 29.8336C35.1872 30.1265 35.1872 30.6014 34.8943 30.8943C34.6014 31.1872 34.1265 31.1872 33.8336 30.8943C33.5407 30.6014 33.5407 30.1265 33.8336 29.8336C34.1265 29.5407 34.6014 29.5407 34.8943 29.8336Z" fill="url(#paint3_linear_1422_9315)"/>
<path d="M36.662 31.6014C36.9549 31.8943 36.9549 32.3692 36.662 32.6621C36.3691 32.955 35.8943 32.955 35.6014 32.6621C35.3085 32.3692 35.3085 31.8943 35.6014 31.6014C35.8943 31.3085 36.3691 31.3085 36.662 31.6014Z" fill="url(#paint4_linear_1422_9315)"/>
<path d="M32.591 23.5297C32.8839 23.8226 32.8839 24.2975 32.591 24.5904C32.2981 24.8833 31.8232 24.8833 31.5303 24.5904C31.2374 24.2975 31.2374 23.8226 31.5303 23.5297C31.8232 23.2368 32.2981 23.2368 32.591 23.5297Z" fill="url(#paint5_linear_1422_9315)"/>
<path d="M34.3588 25.2975C34.6516 25.5904 34.6516 26.0653 34.3588 26.3581C34.0659 26.651 33.591 26.651 33.2981 26.3581C33.0052 26.0653 33.0052 25.5904 33.2981 25.2975C33.591 25.0046 34.0659 25.0046 34.3588 25.2975Z" fill="url(#paint6_linear_1422_9315)"/>
<path d="M36.1265 27.0653C36.4194 27.3582 36.4194 27.833 36.1265 28.1259C35.8336 28.4188 35.3587 28.4188 35.0659 28.1259C34.773 27.833 34.773 27.3582 35.0659 27.0653C35.3587 26.7724 35.8336 26.7724 36.1265 27.0653Z" fill="url(#paint7_linear_1422_9315)"/>
<path d="M37.8943 28.833C38.1872 29.1259 38.1872 29.6008 37.8943 29.8937C37.6014 30.1866 37.1265 30.1866 36.8336 29.8937C36.5407 29.6008 36.5407 29.1259 36.8336 28.833C37.1265 28.5401 37.6014 28.5401 37.8943 28.833Z" fill="url(#paint8_linear_1422_9315)"/>
<path fill-rule="evenodd" clip-rule="evenodd" d="M22.75 12C22.75 11.5858 22.4142 11.25 22 11.25H12.1424C11.7282 11.25 11.3924 11.5858 11.3924 12V22.0318L6.90405 26.363C4.69123 28.5108 4.70032 31.9969 6.92142 34.1465L6.92219 34.1472C8.0331 35.2192 9.49532 35.75 10.9316 35.75C12.3653 35.75 13.8108 35.2317 14.9173 34.1701L14.9189 34.1685L20.7406 28.5506C22.0228 27.3132 22.75 25.6259 22.75 23.8655V12ZM21.25 12.75V23.8655C21.25 25.2101 20.6945 26.5105 19.699 27.4712L13.8788 33.0877C13.8785 33.088 13.8782 33.0882 13.8779 33.0885C13.0716 33.8617 12.0075 34.25 10.9316 34.25C9.85797 34.25 8.77714 33.8525 7.96409 33.0681C6.34905 31.5046 6.34697 28.9949 7.94794 27.4402C7.94821 27.4399 7.94849 27.4396 7.94877 27.4394L12.6632 22.89C12.8096 22.7486 12.8924 22.5538 12.8924 22.3503V12.75H21.25Z" fill="#BDBDBD"/>
<path fill-rule="evenodd" clip-rule="evenodd" d="M21.75 16C21.75 15.5858 21.4142 15.25 21 15.25H12.5C12.0858 15.25 11.75 15.5858 11.75 16C11.75 16.4142 12.0858 16.75 12.5 16.75H21C21.4142 16.75 21.75 16.4142 21.75 16Z" fill="#BDBDBD"/>
<path d="M18.409 24.5303C18.1161 24.8232 18.1161 25.2981 18.409 25.591C18.7019 25.8839 19.1768 25.8839 19.4697 25.591C19.7626 25.2981 19.7626 24.8232 19.4697 24.5303C19.1768 24.2374 18.7019 24.2374 18.409 24.5303Z" fill="url(#paint9_linear_1422_9315)"/>
<path d="M16.6412 26.2981C16.3484 26.591 16.3484 27.0659 16.6412 27.3588C16.9341 27.6517 17.409 27.6517 17.7019 27.3588C17.9948 27.0659 17.9948 26.591 17.7019 26.2981C17.409 26.0052 16.9341 26.0052 16.6412 26.2981Z" fill="url(#paint10_linear_1422_9315)"/>
<path d="M14.8735 28.0659C14.5806 28.3588 14.5806 28.8336 14.8735 29.1265C15.1664 29.4194 15.6413 29.4194 15.9341 29.1265C16.227 28.8336 16.227 28.3588 15.9341 28.0659C15.6413 27.773 15.1664 27.773 14.8735 28.0659Z" fill="url(#paint11_linear_1422_9315)"/>
<path d="M13.1057 29.8336C12.8128 30.1265 12.8128 30.6014 13.1057 30.8943C13.3986 31.1872 13.8735 31.1872 14.1664 30.8943C14.4593 30.6014 14.4593 30.1265 14.1664 29.8336C13.8735 29.5407 13.3986 29.5407 13.1057 29.8336Z" fill="url(#paint12_linear_1422_9315)"/>
<path d="M11.338 31.6014C11.0451 31.8943 11.0451 32.3692 11.338 32.6621C11.6309 32.955 12.1057 32.955 12.3986 32.6621C12.6915 32.3692 12.6915 31.8943 12.3986 31.6014C12.1057 31.3085 11.6309 31.3085 11.338 31.6014Z" fill="url(#paint13_linear_1422_9315)"/>
<path d="M15.409 23.5297C15.1161 23.8226 15.1161 24.2975 15.409 24.5904C15.7019 24.8833 16.1768 24.8833 16.4697 24.5904C16.7626 24.2975 16.7626 23.8226 16.4697 23.5297C16.1768 23.2368 15.7019 23.2368 15.409 23.5297Z" fill="url(#paint14_linear_1422_9315)"/>
<path d="M13.6412 25.2975C13.3484 25.5904 13.3484 26.0653 13.6412 26.3581C13.9341 26.651 14.409 26.651 14.7019 26.3581C14.9948 26.0653 14.9948 25.5904 14.7019 25.2975C14.409 25.0046 13.9341 25.0046 13.6412 25.2975Z" fill="url(#paint15_linear_1422_9315)"/>
<path d="M11.8735 27.0653C11.5806 27.3582 11.5806 27.833 11.8735 28.1259C12.1664 28.4188 12.6413 28.4188 12.9341 28.1259C13.227 27.833 13.227 27.3582 12.9341 27.0653C12.6413 26.7724 12.1664 26.7724 11.8735 27.0653Z" fill="url(#paint16_linear_1422_9315)"/>
<path d="M10.1057 28.833C9.81283 29.1259 9.81283 29.6008 10.1057 29.8937C10.3986 30.1866 10.8735 30.1866 11.1664 29.8937C11.4593 29.6008 11.4593 29.1259 11.1664 28.833C10.8735 28.5401 10.3986 28.5401 10.1057 28.833Z" fill="url(#paint17_linear_1422_9315)"/>
<defs>
<linearGradient id="paint0_linear_1422_9315" x1="28.4861" y1="24.9502" x2="29.7346" y2="25.1822" gradientUnits="userSpaceOnUse">
<stop stop-color="#FF8120"/>
<stop offset="1" stop-color="#E54304"/>
</linearGradient>
<linearGradient id="paint1_linear_1422_9315" x1="30.2539" y1="26.7179" x2="31.5024" y2="26.95" gradientUnits="userSpaceOnUse">
<stop stop-color="#FF8120"/>
<stop offset="1" stop-color="#E54304"/>
</linearGradient>
<linearGradient id="paint2_linear_1422_9315" x1="32.0217" y1="28.4857" x2="33.2701" y2="28.7177" gradientUnits="userSpaceOnUse">
<stop stop-color="#FF8120"/>
<stop offset="1" stop-color="#E54304"/>
</linearGradient>
<linearGradient id="paint3_linear_1422_9315" x1="33.7894" y1="30.2535" x2="35.0379" y2="30.4855" gradientUnits="userSpaceOnUse">
<stop stop-color="#FF8120"/>
<stop offset="1" stop-color="#E54304"/>
</linearGradient>
<linearGradient id="paint4_linear_1422_9315" x1="35.5572" y1="32.0212" x2="36.8057" y2="32.2533" gradientUnits="userSpaceOnUse">
<stop stop-color="#FF8120"/>
<stop offset="1" stop-color="#E54304"/>
</linearGradient>
<linearGradient id="paint5_linear_1422_9315" x1="31.4861" y1="23.9496" x2="32.7346" y2="24.1816" gradientUnits="userSpaceOnUse">
<stop stop-color="#FF8120"/>
<stop offset="1" stop-color="#E54304"/>
</linearGradient>
<linearGradient id="paint6_linear_1422_9315" x1="33.2539" y1="25.7173" x2="34.5024" y2="25.9494" gradientUnits="userSpaceOnUse">
<stop stop-color="#FF8120"/>
<stop offset="1" stop-color="#E54304"/>
</linearGradient>
<linearGradient id="paint7_linear_1422_9315" x1="35.0217" y1="27.4851" x2="36.2701" y2="27.7171" gradientUnits="userSpaceOnUse">
<stop stop-color="#FF8120"/>
<stop offset="1" stop-color="#E54304"/>
</linearGradient>
<linearGradient id="paint8_linear_1422_9315" x1="36.7894" y1="29.2529" x2="38.0379" y2="29.4849" gradientUnits="userSpaceOnUse">
<stop stop-color="#FF8120"/>
<stop offset="1" stop-color="#E54304"/>
</linearGradient>
<linearGradient id="paint9_linear_1422_9315" x1="19.5139" y1="24.9502" x2="18.2654" y2="25.1822" gradientUnits="userSpaceOnUse">
<stop stop-color="#FF8120"/>
<stop offset="1" stop-color="#E54304"/>
</linearGradient>
<linearGradient id="paint10_linear_1422_9315" x1="17.7461" y1="26.7179" x2="16.4976" y2="26.95" gradientUnits="userSpaceOnUse">
<stop stop-color="#FF8120"/>
<stop offset="1" stop-color="#E54304"/>
</linearGradient>
<linearGradient id="paint11_linear_1422_9315" x1="15.9783" y1="28.4857" x2="14.7299" y2="28.7177" gradientUnits="userSpaceOnUse">
<stop stop-color="#FF8120"/>
<stop offset="1" stop-color="#E54304"/>
</linearGradient>
<linearGradient id="paint12_linear_1422_9315" x1="14.2106" y1="30.2535" x2="12.9621" y2="30.4855" gradientUnits="userSpaceOnUse">
<stop stop-color="#FF8120"/>
<stop offset="1" stop-color="#E54304"/>
</linearGradient>
<linearGradient id="paint13_linear_1422_9315" x1="12.4428" y1="32.0212" x2="11.1943" y2="32.2533" gradientUnits="userSpaceOnUse">
<stop stop-color="#FF8120"/>
<stop offset="1" stop-color="#E54304"/>
</linearGradient>
<linearGradient id="paint14_linear_1422_9315" x1="16.5139" y1="23.9496" x2="15.2654" y2="24.1816" gradientUnits="userSpaceOnUse">
<stop stop-color="#FF8120"/>
<stop offset="1" stop-color="#E54304"/>
</linearGradient>
<linearGradient id="paint15_linear_1422_9315" x1="14.7461" y1="25.7173" x2="13.4976" y2="25.9494" gradientUnits="userSpaceOnUse">
<stop stop-color="#FF8120"/>
<stop offset="1" stop-color="#E54304"/>
</linearGradient>
<linearGradient id="paint16_linear_1422_9315" x1="12.9783" y1="27.4851" x2="11.7299" y2="27.7171" gradientUnits="userSpaceOnUse">
<stop stop-color="#FF8120"/>
<stop offset="1" stop-color="#E54304"/>
</linearGradient>
<linearGradient id="paint17_linear_1422_9315" x1="11.2106" y1="29.2529" x2="9.9621" y2="29.4849" gradientUnits="userSpaceOnUse">
<stop stop-color="#FF8120"/>
<stop offset="1" stop-color="#E54304"/>
</linearGradient>
</defs>
</svg>
