<svg width="48" height="48" viewBox="0 0 48 48" fill="none" xmlns="http://www.w3.org/2000/svg">
<path d="M13.1584 14.4598C12.5381 13.8417 11.5902 13.8417 10.9699 14.4598L4 21.4406L12.782 29.7482L19.2779 20.5661L13.1584 14.4598Z" fill="#EEEEEE"/>
<path d="M4 25.994C4 26.3332 4.20213 26.6348 4.49486 26.7403L12.775 29.7482L4 21.4406V25.994Z" fill="#BDBDBD"/>
<path d="M27.9414 15.6585L29.1681 16.6461C28.8405 16.2088 28.4223 15.8771 27.9414 15.6585Z" fill="white"/>
<path d="M24.345 16.5707L25.4044 15.7339C25.0141 15.9374 24.6516 16.2164 24.345 16.5707Z" fill="white"/>
<path d="M18.0791 27.0192L23.2508 19.654L26.199 15.455C25.9272 15.5077 25.6623 15.6057 25.4114 15.7339L24.352 16.5707L19.2849 20.5662L12.789 29.7482L16.6642 27.4338C17.1103 27.17 17.5982 27.0343 18.0861 27.0192H18.0791Z" fill="#E0E0E0"/>
<path d="M18.0791 27.0192C18.5391 27.0041 19.0061 27.1021 19.4382 27.3057L26.8472 30.8639L34.047 20.4757L29.1681 16.6385L27.9414 15.651C27.7881 15.5831 27.6278 15.5077 27.4605 15.47C27.0354 15.3645 26.6102 15.3645 26.199 15.4474L23.2507 19.6464L18.0791 27.0117V27.0192Z" fill="#EEEEEE"/>
<path d="M26.8472 30.8639L19.4383 27.3057C19.0061 27.0946 18.5391 27.0041 18.0791 27.0192C17.5843 27.0343 17.0964 27.17 16.6573 27.4338L12.782 29.7482L26.8472 30.8715V30.8639Z" fill="#BDBDBD"/>
<path d="M26.8472 30.8639L35.4271 29.4165C35.7547 29.3637 36.0683 29.4693 36.3053 29.6728L38.1593 26.5443L43.5121 17.5205C43.4703 17.4828 43.4354 17.4452 43.3936 17.4225C43.1566 17.2642 42.8709 17.2115 42.5642 17.2416L41.4351 17.6713L34.047 20.4832L34.0052 20.536L26.8402 30.8639H26.8472Z" fill="#E0E0E0"/>
<path d="M37.3717 33.6758L37.2323 33.8718L37.3717 33.6758Z" fill="#BDBDBD"/>
<path d="M36.7584 33.9849L36.6538 33.9548C36.6887 33.9699 36.7235 33.9774 36.7584 33.9849Z" fill="#BDBDBD"/>
<path d="M36.3053 29.6728L36.1589 29.9216L36.368 30.8715L37.0511 33.9698C37.0511 33.9698 37.058 33.9698 37.065 33.9698C37.072 33.9698 37.0859 33.9698 37.0999 33.9698C37.1487 33.9472 37.1974 33.9095 37.2393 33.8718L37.3787 33.6758L43.1915 25.8206C43.7143 25.1647 44.007 24.3204 44.007 23.4534V18.4704C43.9234 18.0633 43.763 17.7392 43.5191 17.5205" fill="#999999"/>
<path d="M36.3053 29.6728C36.0683 29.4617 35.7546 29.3637 35.4271 29.4165L26.8472 30.8639L36.6607 33.9548L36.7653 33.9849C36.8629 34.0075 36.9604 34 37.051 33.9698L36.3122 29.6653L36.3053 29.6728Z" fill="#BDBDBD"/>
<path d="M12.0979 17.4858L8.75826 21.4458C8.23684 22.0641 8.27755 23.0225 8.84917 23.5865L9.67823 24.4044C10.2499 24.9684 11.1359 24.9244 11.6574 24.3061L14.997 20.3461C15.5184 19.7278 15.4777 18.7694 14.9061 18.2054L14.077 17.3875C13.5054 16.8235 12.6193 16.8675 12.0979 17.4858Z" fill="url(#paint0_linear_1422_9320)"/>
<path d="M26.7596 19.4711L23.7946 23.7658C23.3316 24.4363 23.4589 25.3858 24.0789 25.8865L24.978 26.6127C25.5979 27.1135 26.4758 26.9758 26.9387 26.3052L29.9038 22.0105C30.3667 21.34 30.2394 20.3905 29.6195 19.8898L28.7203 19.1636C28.1004 18.6629 27.2226 18.8006 26.7596 19.4711Z" fill="url(#paint1_linear_1422_9320)"/>
<path d="M33.6603 27.9605L32.5744 28.0579C31.867 28.1179 31.8012 27.2561 32.4428 26.3794L36.0707 21.4263C36.482 20.8718 37.0578 20.4897 37.4856 20.4897H38.4975C39.1391 20.4971 39.172 21.3364 38.5633 22.1757L35.0095 27.0239C34.6228 27.5484 34.0881 27.9231 33.6686 27.9605H33.6603Z" fill="url(#paint2_linear_1422_9320)"/>
<path d="M17.645 25.8127L17.0575 25.8554C16.6728 25.8841 16.7523 25.2387 17.2079 24.6094L19.7873 21.0384C20.0811 20.6361 20.4326 20.372 20.6624 20.3819L21.1987 20.4049C21.5394 20.4347 21.4468 21.0569 21.0062 21.6566L18.4783 25.1544C18.2063 25.535 17.869 25.7921 17.645 25.8127Z" fill="url(#paint3_linear_1422_9320)"/>
<defs>
<linearGradient id="paint0_linear_1422_9320" x1="9.79787" y1="21.3284" x2="13.3769" y2="22.7478" gradientUnits="userSpaceOnUse">
<stop stop-color="#FF8120"/>
<stop offset="1" stop-color="#E54304"/>
</linearGradient>
<linearGradient id="paint1_linear_1422_9320" x1="24.8185" y1="23.5388" x2="28.4958" y2="24.6171" gradientUnits="userSpaceOnUse">
<stop stop-color="#FF8120"/>
<stop offset="1" stop-color="#E54304"/>
</linearGradient>
<linearGradient id="paint2_linear_1422_9320" x1="33.9687" y1="21.8304" x2="37.6902" y2="26.8418" gradientUnits="userSpaceOnUse">
<stop stop-color="#FF8120"/>
<stop offset="1" stop-color="#E54304"/>
</linearGradient>
<linearGradient id="paint3_linear_1422_9320" x1="18.2108" y1="21.2737" x2="20.9484" y2="24.6674" gradientUnits="userSpaceOnUse">
<stop stop-color="#FF8120"/>
<stop offset="1" stop-color="#E54304"/>
</linearGradient>
</defs>
</svg>
