<svg width="48" height="48" viewBox="0 0 48 48" fill="none" xmlns="http://www.w3.org/2000/svg">
<path d="M15.5484 22.3535C14.0375 21.7942 12.4308 21.6115 11.0558 21.6115C9.68084 21.6115 8.33038 21.9234 7.14037 22.4806L7.05569 22.8884C6.95318 23.3764 6.99106 23.889 7.18271 24.348C8.19444 26.7749 9.96832 28.9409 11.8336 30.726C14.1868 32.9767 16.6894 34.6258 18.0087 35.4258C18.3853 35.6531 18.7953 35.8136 19.2232 35.8983C20.2595 34.4498 20.8834 32.7227 20.8857 30.8686C20.8946 25.801 18.3898 23.4054 15.5462 22.3513L15.5484 22.3535Z" fill="#E0E0E0"/>
<path d="M38.9765 13.5065C38.7916 12.6284 38.0183 12 37.1224 12H10.8776C9.9817 12 9.20619 12.6284 9.02345 13.5065L7.14038 22.4783C8.33039 21.9234 9.65634 21.6092 11.0558 21.6092C12.4553 21.6092 14.0375 21.7897 15.5485 22.3513C18.392 23.4054 20.8968 25.801 20.8879 30.8686C20.8857 32.7227 20.2617 34.4498 19.2255 35.8983C19.4706 35.9473 19.7202 35.9718 19.972 35.9718H28.028C28.2798 35.9718 28.5294 35.9473 28.7745 35.8983C27.7383 34.4498 27.1143 32.7227 27.1121 30.8686C27.1032 25.801 29.608 23.4054 32.4515 22.3513C33.9624 21.792 35.5692 21.6092 36.9441 21.6092C38.3191 21.6092 39.6696 21.9212 40.8596 22.4783L38.9787 13.5042L38.9765 13.5065Z" fill="url(#paint0_linear_1422_9319)"/>
<path d="M32.4493 22.3535C33.9602 21.7942 35.567 21.6115 36.9419 21.6115C38.3169 21.6115 39.6674 21.9234 40.8574 22.4806L40.9421 22.8884C41.0446 23.3764 41.0067 23.889 40.815 24.348C39.8033 26.7749 38.0294 28.9409 36.1642 30.726C33.8109 32.9767 31.3083 34.6258 29.9891 35.4258C29.6124 35.6531 29.2024 35.8136 28.7745 35.8983C27.7383 34.4498 27.1143 32.7227 27.1121 30.8686C27.1032 25.801 29.608 23.4054 32.4515 22.3513L32.4493 22.3535Z" fill="#E0E0E0"/>
<defs>
<linearGradient id="paint0_linear_1422_9319" x1="16.6239" y1="16.245" x2="26.3274" y2="36.1253" gradientUnits="userSpaceOnUse">
<stop stop-color="#FF8120"/>
<stop offset="1" stop-color="#E54304"/>
</linearGradient>
</defs>
</svg>
