<svg width="48" height="48" viewBox="0 0 48 48" fill="none" xmlns="http://www.w3.org/2000/svg">
<path d="M38.9801 24.1774L38.2671 24.401C37.7423 24.5684 37.1824 24.2768 37.015 23.752L35.0912 17.6122C34.9238 17.0874 35.2155 16.5275 35.7403 16.3601L36.4533 16.1364C36.978 15.969 37.538 16.2607 37.7054 16.7854L39.6291 22.9253C39.7965 23.45 39.5048 24.01 38.9801 24.1774Z" fill="#999999"/>
<path d="M43.1064 23.8848L42.2883 24.1543C41.0365 24.5647 39.6926 23.8883 39.2826 22.6466L37.2443 16.4671C36.8339 15.2153 37.5102 13.8714 38.752 13.4614L39.5701 13.1919C39.9049 13.0758 40.2745 13.2683 40.3807 13.6036L43.508 23.0746C43.6242 23.4095 43.4317 23.7791 43.0964 23.8853" fill="url(#paint0_linear_1422_9323)"/>
<path fill-rule="evenodd" clip-rule="evenodd" d="M34.2607 28.7325C34.2691 28.7715 34.2769 28.8107 34.2842 28.85C34.4443 29.7201 34.3065 30.6369 33.865 31.52C32.955 33.35 30.965 34.6 28.995 34.6H10.615C8.495 34.66 6.825 33.71 5.825 32C4.725 30.12 4.725 27.59 5.825 25.7C6.825 23.99 8.545 23.07 10.625 23.1H19.425C19.905 23.0613 20.445 23.0645 21.017 23.068C21.1838 23.069 21.3534 23.07 21.525 23.07C25.105 23.1 27.885 22.93 28.325 20.41L28.405 19.97L33.405 18.26L34.025 19.17C34.035 19.37 34.325 20.22 34.545 20.84C35.4048 23.3047 35.9634 25.158 35.3054 26.1905C35.2746 26.2388 35.2412 26.2853 35.205 26.33C35.0858 26.4691 34.9172 26.6206 34.6808 26.7255C34.565 26.7769 34.433 26.8171 34.2825 26.8393C34.1306 26.8617 33.9599 26.8656 33.7682 26.844C33.7572 26.8427 33.7461 26.8414 33.735 26.84C33.595 26.82 33.535 26.87 33.505 26.91C33.475 26.95 33.455 27 33.475 27.07C33.5419 27.1568 33.6051 27.245 33.6644 27.3345C33.6666 27.3379 33.6689 27.3413 33.6711 27.3447C33.9595 27.7823 34.1564 28.2496 34.2607 28.7325ZM33.5859 24.8372C33.5785 24.7476 33.5654 24.6381 33.5433 24.5054C33.4222 23.7767 33.1152 22.8135 32.6583 21.5036C32.5742 21.2667 32.4775 20.9895 32.3881 20.7215L30.1084 21.5012C29.8782 22.1954 29.5027 22.8107 28.9782 23.3233C28.2963 23.9897 27.4704 24.3776 26.6691 24.6143C25.142 25.0654 23.2558 25.0845 21.5166 25.07C21.3094 25.07 21.1185 25.0689 20.9407 25.0679C20.394 25.0648 19.9719 25.0624 19.5858 25.0935L19.5055 25.1H10.6106L10.5962 25.0998C9.17956 25.0794 8.16028 25.6699 7.55253 26.7078C6.81452 27.9775 6.81756 29.7361 7.55122 30.99C8.17579 32.058 9.15592 32.6405 10.5584 32.6008L10.5867 32.6H28.9948C30.1796 32.6 31.4904 31.8035 32.0742 30.6295L32.0761 30.6256C32.5065 29.7648 32.4146 28.9702 31.8911 28.2912L31.6572 27.9878L31.552 27.6195C31.3204 26.8091 31.5956 26.1225 31.905 25.71C32.076 25.482 32.3656 25.19 32.814 25.0045C33.0811 24.894 33.3438 24.8463 33.5859 24.8372Z" fill="#BDBDBD"/>
<path fill-rule="evenodd" clip-rule="evenodd" d="M24.165 16.49H13.905C12.8557 16.49 12.005 17.3406 12.005 18.39C12.005 19.4393 12.8557 20.29 13.905 20.29H24.165C25.2143 20.29 26.065 19.4393 26.065 18.39C26.065 17.3406 25.2143 16.49 24.165 16.49ZM13.905 14.49H24.165C26.3189 14.49 28.065 16.2361 28.065 18.39C28.065 20.5439 26.3189 22.29 24.165 22.29H13.905C11.7511 22.29 10.005 20.5439 10.005 18.39C10.005 16.2361 11.7511 14.49 13.905 14.49Z" fill="#BDBDBD"/>
<path fill-rule="evenodd" clip-rule="evenodd" d="M33.6888 16.0513C34.2127 15.8766 34.779 16.1598 34.9537 16.6837L37.9537 25.6837C38.1283 26.2077 37.8452 26.774 37.3212 26.9486C36.7973 27.1233 36.231 26.8401 36.0563 26.3162L33.0563 17.3162C32.8817 16.7922 33.1648 16.2259 33.6888 16.0513Z" fill="url(#paint1_linear_1422_9323)"/>
<defs>
<linearGradient id="paint0_linear_1422_9323" x1="38.8001" y1="15.188" x2="44.5908" y2="19.3152" gradientUnits="userSpaceOnUse">
<stop stop-color="#FF8120"/>
<stop offset="1" stop-color="#E54304"/>
</linearGradient>
<linearGradient id="paint1_linear_1422_9323" x1="35.3231" y1="18.9119" x2="33.4787" y2="19.7819" gradientUnits="userSpaceOnUse">
<stop stop-color="#FF8120"/>
<stop offset="1" stop-color="#E54304"/>
</linearGradient>
</defs>
</svg>
