<svg width="48" height="48" viewBox="0 0 48 48" fill="none" xmlns="http://www.w3.org/2000/svg">
<path fill-rule="evenodd" clip-rule="evenodd" d="M14 14.0132C14.5814 14.0132 15.0527 14.4844 15.0527 15.0658V40.3289C15.0527 40.9103 14.5814 41.3816 14 41.3816C13.4187 41.3816 12.9474 40.9103 12.9474 40.3289V15.0658C12.9474 14.4844 13.4187 14.0132 14 14.0132Z" fill="#BDBDBD"/>
<path fill-rule="evenodd" clip-rule="evenodd" d="M33.4737 14.0132C34.0551 14.0132 34.5263 14.4844 34.5263 15.0658V40.3289C34.5263 40.9103 34.0551 41.3816 33.4737 41.3816C32.8924 41.3816 32.4211 40.9103 32.4211 40.3289V15.0658C32.4211 14.4844 32.8924 14.0132 33.4737 14.0132Z" fill="#BDBDBD"/>
<path fill-rule="evenodd" clip-rule="evenodd" d="M21.3684 6.11841C16.7176 6.11841 12.9474 9.88864 12.9474 14.5395V15.0658C12.9474 16.8098 14.3612 18.2237 16.1053 18.2237H31.3684C33.1125 18.2237 34.5263 16.8098 34.5263 15.0658V14.5395C34.5263 9.88864 30.7561 6.11841 26.1053 6.11841H21.3684ZM17.4738 10.8552C17.4738 9.98322 18.1807 9.2763 19.0527 9.2763H28.5264C29.3984 9.2763 30.1053 9.98322 30.1053 10.8552C30.1053 11.7273 29.3984 12.4342 28.5264 12.4342H19.0527C18.1807 12.4342 17.4738 11.7273 17.4738 10.8552Z" fill="url(#paint0_linear_1422_9313)"/>
<path fill-rule="evenodd" clip-rule="evenodd" d="M38.909 16.6447H37.6842C37.1029 16.6447 36.6316 16.1734 36.6316 15.5921C36.6316 15.0107 37.1029 14.5395 37.6842 14.5395H40.2914C40.3073 14.5391 40.3233 14.5391 40.3393 14.5395H42.9474C43.5287 14.5395 44 15.0107 44 15.5921C44 16.1734 43.5287 16.6447 42.9474 16.6447H41.1034L38.6941 24.8365C38.53 25.3942 37.9449 25.7134 37.3872 25.5493C36.8295 25.3853 36.5103 24.8002 36.6744 24.2424L38.909 16.6447Z" fill="#BDBDBD"/>
<path fill-rule="evenodd" clip-rule="evenodd" d="M9.09102 16.6447H10.3158C10.8971 16.6447 11.3684 16.1734 11.3684 15.5921C11.3684 15.0107 10.8971 14.5395 10.3158 14.5395H7.70862C7.6927 14.5391 7.67672 14.5391 7.66071 14.5395H5.05263C4.47128 14.5395 4 15.0107 4 15.5921C4 16.1734 4.47128 16.6447 5.05263 16.6447H6.89659L9.30593 24.8365C9.46997 25.3942 10.0551 25.7134 10.6128 25.5493C11.1705 25.3853 11.4897 24.8002 11.3256 24.2424L9.09102 16.6447Z" fill="#BDBDBD"/>
<path fill-rule="evenodd" clip-rule="evenodd" d="M7.1579 25.0658C7.1579 24.1938 7.86482 23.4868 8.73685 23.4868H18.2105C18.4026 23.4868 18.5931 23.5219 18.7726 23.5903L20.5516 24.268C22.6032 25.0496 24.8705 25.0495 26.9221 24.268L28.7011 23.5903C28.8806 23.5219 29.0711 23.4868 29.2632 23.4868H38.7368C39.6089 23.4868 40.3158 24.1938 40.3158 25.0658C40.3158 25.9378 39.6089 26.6447 38.7368 26.6447H29.5537L28.0463 27.219C25.2706 28.2764 22.2031 28.2764 19.4274 27.219L17.92 26.6447H8.73685C7.86482 26.6447 7.1579 25.9378 7.1579 25.0658Z" fill="url(#paint1_linear_1422_9313)"/>
<defs>
<linearGradient id="paint0_linear_1422_9313" x1="19.0165" y1="8.26205" x2="23.1857" y2="19.0871" gradientUnits="userSpaceOnUse">
<stop stop-color="#FF8120"/>
<stop offset="1" stop-color="#E54304"/>
</linearGradient>
<linearGradient id="paint1_linear_1422_9313" x1="16.4836" y1="24.2882" x2="16.9152" y2="28.8947" gradientUnits="userSpaceOnUse">
<stop stop-color="#FF8120"/>
<stop offset="1" stop-color="#E54304"/>
</linearGradient>
</defs>
</svg>
