<svg width="48" height="48" viewBox="0 0 48 48" fill="none" xmlns="http://www.w3.org/2000/svg">
<path fill-rule="evenodd" clip-rule="evenodd" d="M16.5 18.5C14.8431 18.5 13.5 19.8432 13.5 21.5V42.5C13.5 43.0523 13.0523 43.5 12.5 43.5C11.9477 43.5 11.5 43.0523 11.5 42.5V21.5C11.5 18.7386 13.7386 16.5 16.5 16.5H35C35.5523 16.5 36 16.9477 36 17.5C36 18.0523 35.5523 18.5 35 18.5H16.5Z" fill="#BDBDBD"/>
<path fill-rule="evenodd" clip-rule="evenodd" d="M31 25C31.5523 25 32 25.4477 32 26V43C32 43.5523 31.5523 44 31 44C30.4477 44 30 43.5523 30 43V26C30 25.4477 30.4477 25 31 25Z" fill="#BDBDBD"/>
<path fill-rule="evenodd" clip-rule="evenodd" d="M39.4735 5.2807C39.6285 4.4669 39.0945 3.68153 38.2807 3.52652C37.4669 3.37151 36.6815 3.90557 36.5265 4.71936L33.1458 22.4678C32.9212 23.6469 31.8903 24.5 30.69 24.5H9C8.17157 24.5 7.5 25.1716 7.5 26C7.5 26.8285 8.17157 27.5 9 27.5H15.5V29.5C15.5 30.8807 16.6193 32 18 32H25.5C26.8807 32 28 30.8807 28 29.5V27.5H30.69C33.3307 27.5 35.5987 25.6232 36.0928 23.0291L39.4735 5.2807Z" fill="url(#paint0_linear_1422_9312)"/>
<path d="M13.521 43.0207C13.521 43.5845 13.0686 44.0414 12.5105 44.0414C11.9524 44.0414 11.5 43.5845 11.5 43.0207C11.5 42.457 11.9524 42 12.5105 42C13.0686 42 13.521 42.457 13.521 43.0207Z" fill="#333333"/>
<path d="M32.021 43.0207C32.021 43.5845 31.5686 44.0414 31.0105 44.0414C30.4524 44.0414 30 43.5845 30 43.0207C30 42.457 30.4524 42 31.0105 42C31.5686 42 32.021 42.457 32.021 43.0207Z" fill="#333333"/>
<defs>
<linearGradient id="paint0_linear_1422_9312" x1="16.5001" y1="8.54668" x2="29.5257" y2="29.8487" gradientUnits="userSpaceOnUse">
<stop stop-color="#FF8120"/>
<stop offset="1" stop-color="#E54304"/>
</linearGradient>
</defs>
</svg>
