<svg width="48" height="48" viewBox="0 0 48 48" fill="none" xmlns="http://www.w3.org/2000/svg">
<path d="M28.6129 32.5989L5.62488 24.3387C4.41076 23.8985 4.14699 22.3057 5.15516 21.5019L12.8159 15.4132C13.1808 15.125 13.6629 14.9993 14.1201 15.0828L38.0204 19.2862C39.2701 19.5128 39.8139 21.0018 38.9891 21.978L30.4116 32.1129C29.9687 32.6323 29.2446 32.8336 28.6023 32.6033L28.6129 32.5989Z" fill="white"/>
<path fill-rule="evenodd" clip-rule="evenodd" d="M13.4366 16.1972C13.4363 16.1974 13.436 16.1977 13.4357 16.1979L5.77856 22.2837C5.77842 22.2838 5.7787 22.2836 5.77856 22.2837C5.38535 22.5977 5.4826 23.2225 5.96462 23.3981C5.96499 23.3983 5.96535 23.3984 5.96571 23.3985L29.0321 31.6869C29.2514 31.7279 29.4924 31.6489 29.6498 31.4651C29.6501 31.4648 29.6504 31.4644 29.6506 31.4641L38.2252 21.3326C38.5494 20.9488 38.3411 20.3621 37.8439 20.2705C37.8433 20.2704 37.8426 20.2703 37.842 20.2702L13.9403 16.0665C13.7749 16.0363 13.5828 16.0821 13.4366 16.1972ZM31.3591 32.5413L31.3826 32.5315L31.3709 32.5273L39.7524 22.624C41.0773 21.0559 40.1997 18.6651 38.1988 18.3022L14.2998 14.0991C14.2986 14.0989 14.2973 14.0986 14.2961 14.0984C13.5487 13.963 12.7786 14.1683 12.1961 14.6284L12.1936 14.6303L4.53294 20.719L4.53173 20.7199C2.90937 22.0135 3.33891 24.5735 5.28401 25.2788L5.2867 25.2797L25.8431 32.6662L25.8299 32.6717L28.2648 33.5446C29.308 33.9186 30.4665 33.5897 31.1725 32.7617L31.1749 32.7589L31.3591 32.5413Z" fill="#BDBDBD"/>
<path d="M12.2182 27.0805C11.9695 27.6186 11.9352 28.2542 12.1817 28.8477C12.6526 29.9817 13.9575 30.5209 15.0915 30.05C15.685 29.8035 16.1093 29.3291 16.313 28.7723L12.2182 27.0805Z" fill="white"/>
<path fill-rule="evenodd" clip-rule="evenodd" d="M11.9657 26.4351L16.9474 28.4935L16.7826 28.9441C16.5333 29.6253 16.0123 30.2089 15.2833 30.5117C13.8942 31.0885 12.2967 30.4284 11.7199 29.0394C11.4172 28.3103 11.4601 27.5291 11.7644 26.8707L11.9657 26.4351ZM12.5329 27.7514C12.4875 28.0474 12.5199 28.3584 12.6435 28.6559C13.0085 29.5349 14.0208 29.9531 14.8998 29.5882C15.1972 29.4646 15.4397 29.2672 15.6165 29.0255L12.5329 27.7514Z" fill="#BDBDBD"/>
<path d="M26.1753 16.7782C26.3147 16.2019 26.2248 15.5718 25.8678 15.0375C25.1855 14.0167 23.8007 13.7413 22.7798 14.4236C22.2455 14.7807 21.9215 15.3285 21.8298 15.9143L26.1753 16.7782Z" fill="white"/>
<path fill-rule="evenodd" clip-rule="evenodd" d="M26.5485 17.3621L21.2617 16.3111L21.3359 15.837C21.448 15.1203 21.8456 14.4466 22.502 14.0079C23.7524 13.1722 25.4478 13.5092 26.2835 14.7597C26.7221 15.4161 26.8318 16.1907 26.6613 16.8957L26.5485 17.3621ZM25.7363 16.1811C25.7233 15.8819 25.6311 15.5832 25.4521 15.3153C24.9232 14.5241 23.8489 14.3105 23.0576 14.8393C22.7898 15.0183 22.5903 15.2591 22.4639 15.5305L25.7363 16.1811Z" fill="#BDBDBD"/>
<path fill-rule="evenodd" clip-rule="evenodd" d="M33.8064 28.3029L7.34782 20.4525L7.63227 19.4938L34.0908 27.3442L33.8064 28.3029Z" fill="#BDBDBD"/>
<path fill-rule="evenodd" clip-rule="evenodd" d="M35.6136 26.4147L9.35567 19.0773L9.62479 18.1142L35.8827 25.4516L35.6136 26.4147Z" fill="#BDBDBD"/>
<path fill-rule="evenodd" clip-rule="evenodd" d="M41.5911 18.2627C42.1373 18.6849 42.2378 19.4699 41.8156 20.0161L30.4988 34.6559C30.0766 35.2021 29.2915 35.3026 28.7453 34.8804C28.1991 34.4581 28.0986 33.6731 28.5208 33.1269L39.8376 18.4871C40.2598 17.9409 41.0449 17.8404 41.5911 18.2627Z" fill="url(#paint0_linear_1422_9322)"/>
<defs>
<linearGradient id="paint0_linear_1422_9322" x1="29.9708" y1="24.6455" x2="37.8803" y2="32.3069" gradientUnits="userSpaceOnUse">
<stop stop-color="#FF8120"/>
<stop offset="1" stop-color="#E54304"/>
</linearGradient>
</defs>
</svg>
