<svg width="48" height="48" viewBox="0 0 48 48" fill="none" xmlns="http://www.w3.org/2000/svg">
<path fill-rule="evenodd" clip-rule="evenodd" d="M12.3679 8.48176L12.3086 8.49999L9 8.5V6.5L12.062 6.5C12.124 6.49043 12.1972 6.48269 12.2801 6.47994C12.4843 6.47317 12.7446 6.49685 13.0374 6.59429C13.6398 6.79471 14.263 7.26579 14.8112 8.15021C15.869 9.85678 16.7641 13.2867 16.7641 20.2438V20.2995L16.7581 20.3531L16.758 20.3542L16.7575 20.3593L16.7544 20.392C16.7516 20.4228 16.7477 20.471 16.7437 20.534C16.7356 20.6604 16.7272 20.8448 16.7271 21.0674C16.727 21.5187 16.7608 22.0985 16.8858 22.6612C17.013 23.2343 17.217 23.7079 17.4985 24.0244C17.7486 24.3056 18.0995 24.5122 18.6922 24.5122H29.6878C29.7239 24.5087 29.7737 24.5042 29.8356 24.4997C29.9607 24.4904 30.1363 24.4807 30.3489 24.4773C30.7711 24.4706 31.3548 24.4888 31.9864 24.5927C33.1951 24.7916 34.8783 25.3594 35.657 27.0134L35.681 27.0644L38.9469 36.6783L37.0531 37.3216L33.8255 27.8204C33.4671 27.113 32.6571 26.7299 31.6617 26.5662C31.1809 26.4871 30.7225 26.4716 30.3807 26.4771C30.2113 26.4797 30.0744 26.4875 29.9826 26.4943C29.9367 26.4976 29.9023 26.5008 29.881 26.5028L29.8591 26.5051L29.8576 26.5052L29.8563 26.5054L29.7992 26.5122H18.6922C17.5268 26.5122 16.6326 26.0602 16.0041 25.3536C15.4069 24.6823 15.0986 23.8388 14.9333 23.0948C14.7658 22.3404 14.7269 21.6032 14.7271 21.0666C14.7273 20.7953 14.7374 20.5681 14.7477 20.4064C14.7529 20.3253 14.7582 20.2603 14.7623 20.2139C14.7629 20.2071 14.7635 20.2007 14.7641 20.1946C14.7598 13.3339 13.8546 10.4031 13.1112 9.20389C12.758 8.63397 12.4797 8.51653 12.406 8.49201C12.3904 8.48682 12.3776 8.48367 12.3679 8.48176Z" fill="#BDBDBD"/>
<path d="M11.75 6H7.25C6.55964 6 6 6.55964 6 7.25C6 7.94036 6.55964 8.5 7.25 8.5H11.75C12.4404 8.5 13 7.94036 13 7.25C13 6.55964 12.4404 6 11.75 6Z" fill="url(#paint0_linear_1422_9321)"/>
<path d="M39.7742 35.7768L36.2635 37.1696C35.6218 37.4242 35.3079 38.1508 35.5625 38.7925C35.8171 39.4342 36.5437 39.748 37.1854 39.4934L40.6961 38.1006C41.3378 37.846 41.6516 37.1195 41.397 36.4778C41.1424 35.8361 40.4159 35.5222 39.7742 35.7768Z" fill="url(#paint1_linear_1422_9321)"/>
<path fill-rule="evenodd" clip-rule="evenodd" d="M27.1517 18.0408C27.1519 18.0408 27.1522 18.0408 27 17.0524C26.8478 16.0641 26.8481 16.064 26.8484 16.064L26.8507 16.0636L26.8546 16.063L26.8659 16.0614L26.9011 16.0565C26.93 16.0526 26.9698 16.0476 27.0189 16.0422C27.1168 16.0314 27.2533 16.0187 27.4159 16.0101C27.7352 15.9932 28.1827 15.9904 28.6476 16.0598C29.0971 16.1268 29.6616 16.2752 30.1341 16.6321C30.6556 17.0262 31 17.6291 31 18.4095V38H29V18.4095C29 18.2819 28.9701 18.2594 28.93 18.229L28.9284 18.2279C28.8384 18.1599 28.6529 18.0827 28.3525 18.0379C28.0673 17.9953 27.7648 17.9944 27.5216 18.0073C27.403 18.0135 27.3051 18.0227 27.2389 18.03C27.206 18.0337 27.1813 18.0368 27.1663 18.0388L27.1517 18.0408ZM27.1517 18.0408L27.1504 18.041C27.1503 18.0411 27.1505 18.041 27.1517 18.0408Z" fill="#BDBDBD"/>
<path d="M26.4584 15.8045H18.9584C18.268 15.8045 17.7084 16.3642 17.7084 17.0545C17.7084 17.7449 18.268 18.3045 18.9584 18.3045H26.4584C27.1487 18.3045 27.7084 17.7449 27.7084 17.0545C27.7084 16.3642 27.1487 15.8045 26.4584 15.8045Z" fill="url(#paint2_linear_1422_9321)"/>
<path d="M30 39C30.5523 39 31 38.5523 31 38C31 37.4477 30.5523 37 30 37C29.4477 37 29 37.4477 29 38C29 38.5523 29.4477 39 30 39Z" fill="#333333"/>
<path fill-rule="evenodd" clip-rule="evenodd" d="M30 40C31.1046 40 32 39.1046 32 38C32 36.8954 31.1046 36 30 36C28.8954 36 28 36.8954 28 38C28 39.1046 28.8954 40 30 40ZM33 38C33 39.6569 31.6569 41 30 41C28.3431 41 27 39.6569 27 38C27 36.3431 28.3431 35 30 35C31.6569 35 33 36.3431 33 38Z" fill="#BDBDBD"/>
<path d="M16.3651 39.7303C21.5374 39.7303 25.7303 35.5374 25.7303 30.3651C25.7303 25.1929 21.5374 21 16.3651 21C11.1929 21 7 25.1929 7 30.3651C7 35.5374 11.1929 39.7303 16.3651 39.7303Z" fill="white"/>
<path fill-rule="evenodd" clip-rule="evenodd" d="M16.3651 21.75C11.6071 21.75 7.75 25.6071 7.75 30.3651C7.75 35.1231 11.6071 38.9803 16.3651 38.9803C21.1231 38.9803 24.9803 35.1231 24.9803 30.3651C24.9803 25.6071 21.1231 21.75 16.3651 21.75ZM6.25 30.3651C6.25 24.7787 10.7787 20.25 16.3651 20.25C21.9516 20.25 26.4803 24.7787 26.4803 30.3651C26.4803 35.9516 21.9516 40.4803 16.3651 40.4803C10.7787 40.4803 6.25 35.9516 6.25 30.3651Z" fill="#BDBDBD"/>
<path fill-rule="evenodd" clip-rule="evenodd" d="M16.5 26.5C14.2909 26.5 12.5 28.2909 12.5 30.5C12.5 32.7091 14.2909 34.5 16.5 34.5C18.7091 34.5 20.5 32.7091 20.5 30.5C20.5 28.2909 18.7091 26.5 16.5 26.5ZM11.5 30.5C11.5 27.7386 13.7386 25.5 16.5 25.5C19.2614 25.5 21.5 27.7386 21.5 30.5C21.5 33.2614 19.2614 35.5 16.5 35.5C13.7386 35.5 11.5 33.2614 11.5 30.5Z" fill="#BDBDBD"/>
<defs>
<linearGradient id="paint0_linear_1422_9321" x1="7.96875" y1="6.44271" x2="8.56254" y2="8.86435" gradientUnits="userSpaceOnUse">
<stop stop-color="#FF8120"/>
<stop offset="1" stop-color="#E54304"/>
</linearGradient>
<linearGradient id="paint1_linear_1422_9321" x1="36.9058" y1="37.3911" x2="38.3938" y2="39.3705" gradientUnits="userSpaceOnUse">
<stop stop-color="#FF8120"/>
<stop offset="1" stop-color="#E54304"/>
</linearGradient>
<linearGradient id="paint2_linear_1422_9321" x1="20.5209" y1="16.2472" x2="20.9489" y2="18.741" gradientUnits="userSpaceOnUse">
<stop stop-color="#FF8120"/>
<stop offset="1" stop-color="#E54304"/>
</linearGradient>
</defs>
</svg>
