<svg width="48" height="48" viewBox="0 0 48 48" fill="none" xmlns="http://www.w3.org/2000/svg">
<path fill-rule="evenodd" clip-rule="evenodd" d="M35 10.5H13C11.6193 10.5 10.5 11.6193 10.5 13V35C10.5 36.3807 11.6193 37.5 13 37.5H35C36.3807 37.5 37.5 36.3807 37.5 35V13C37.5 11.6193 36.3807 10.5 35 10.5ZM13 9C10.7909 9 9 10.7909 9 13V35C9 37.2091 10.7909 39 13 39H35C37.2091 39 39 37.2091 39 35V13C39 10.7909 37.2091 9 35 9H13Z" fill="#BDBDBD"/>
<path d="M20 17.5C20 18.8807 18.8807 20 17.5 20C16.1193 20 15 18.8807 15 17.5C15 16.1193 16.1193 15 17.5 15C18.8807 15 20 16.1193 20 17.5Z" fill="url(#paint0_linear_1422_9318)"/>
<path d="M20 24.5C20 25.8807 18.8807 27 17.5 27C16.1193 27 15 25.8807 15 24.5C15 23.1193 16.1193 22 17.5 22C18.8807 22 20 23.1193 20 24.5Z" fill="url(#paint1_linear_1422_9318)"/>
<path d="M20 31.5C20 32.8807 18.8807 34 17.5 34C16.1193 34 15 32.8807 15 31.5C15 30.1193 16.1193 29 17.5 29C18.8807 29 20 30.1193 20 31.5Z" fill="url(#paint2_linear_1422_9318)"/>
<path d="M27 17.5C27 18.8807 25.8807 20 24.5 20C23.1193 20 22 18.8807 22 17.5C22 16.1193 23.1193 15 24.5 15C25.8807 15 27 16.1193 27 17.5Z" fill="url(#paint3_linear_1422_9318)"/>
<path d="M27 24.5C27 25.8807 25.8807 27 24.5 27C23.1193 27 22 25.8807 22 24.5C22 23.1193 23.1193 22 24.5 22C25.8807 22 27 23.1193 27 24.5Z" fill="url(#paint4_linear_1422_9318)"/>
<path d="M27 31.5C27 32.8807 25.8807 34 24.5 34C23.1193 34 22 32.8807 22 31.5C22 30.1193 23.1193 29 24.5 29C25.8807 29 27 30.1193 27 31.5Z" fill="url(#paint5_linear_1422_9318)"/>
<path d="M34 17.5C34 18.8807 32.8807 20 31.5 20C30.1193 20 29 18.8807 29 17.5C29 16.1193 30.1193 15 31.5 15C32.8807 15 34 16.1193 34 17.5Z" fill="url(#paint6_linear_1422_9318)"/>
<path d="M34 24.5C34 25.8807 32.8807 27 31.5 27C30.1193 27 29 25.8807 29 24.5C29 23.1193 30.1193 22 31.5 22C32.8807 22 34 23.1193 34 24.5Z" fill="url(#paint7_linear_1422_9318)"/>
<path d="M34 31.5C34 32.8807 32.8807 34 31.5 34C30.1193 34 29 32.8807 29 31.5C29 30.1193 30.1193 29 31.5 29C32.8807 29 34 30.1193 34 31.5Z" fill="url(#paint8_linear_1422_9318)"/>
<defs>
<linearGradient id="paint0_linear_1422_9318" x1="16.4062" y1="15.8854" x2="18.8021" y2="19.375" gradientUnits="userSpaceOnUse">
<stop stop-color="#FF8120"/>
<stop offset="1" stop-color="#E54304"/>
</linearGradient>
<linearGradient id="paint1_linear_1422_9318" x1="16.4062" y1="22.8854" x2="18.8021" y2="26.375" gradientUnits="userSpaceOnUse">
<stop stop-color="#FF8120"/>
<stop offset="1" stop-color="#E54304"/>
</linearGradient>
<linearGradient id="paint2_linear_1422_9318" x1="16.4062" y1="29.8854" x2="18.8021" y2="33.375" gradientUnits="userSpaceOnUse">
<stop stop-color="#FF8120"/>
<stop offset="1" stop-color="#E54304"/>
</linearGradient>
<linearGradient id="paint3_linear_1422_9318" x1="23.4062" y1="15.8854" x2="25.8021" y2="19.375" gradientUnits="userSpaceOnUse">
<stop stop-color="#FF8120"/>
<stop offset="1" stop-color="#E54304"/>
</linearGradient>
<linearGradient id="paint4_linear_1422_9318" x1="23.4062" y1="22.8854" x2="25.8021" y2="26.375" gradientUnits="userSpaceOnUse">
<stop stop-color="#FF8120"/>
<stop offset="1" stop-color="#E54304"/>
</linearGradient>
<linearGradient id="paint5_linear_1422_9318" x1="23.4062" y1="29.8854" x2="25.8021" y2="33.375" gradientUnits="userSpaceOnUse">
<stop stop-color="#FF8120"/>
<stop offset="1" stop-color="#E54304"/>
</linearGradient>
<linearGradient id="paint6_linear_1422_9318" x1="30.4062" y1="15.8854" x2="32.8021" y2="19.375" gradientUnits="userSpaceOnUse">
<stop stop-color="#FF8120"/>
<stop offset="1" stop-color="#E54304"/>
</linearGradient>
<linearGradient id="paint7_linear_1422_9318" x1="30.4062" y1="22.8854" x2="32.8021" y2="26.375" gradientUnits="userSpaceOnUse">
<stop stop-color="#FF8120"/>
<stop offset="1" stop-color="#E54304"/>
</linearGradient>
<linearGradient id="paint8_linear_1422_9318" x1="30.4062" y1="29.8854" x2="32.8021" y2="33.375" gradientUnits="userSpaceOnUse">
<stop stop-color="#FF8120"/>
<stop offset="1" stop-color="#E54304"/>
</linearGradient>
</defs>
</svg>
