<svg width="170" height="146" viewBox="0 0 170 146" fill="none" xmlns="http://www.w3.org/2000/svg">
<path d="M68.2971 145.94C31.179 145.94 0.980713 115.673 0.980713 78.47C0.980713 41.2672 31.179 11 68.2971 11C105.415 11 135.613 41.2672 135.613 78.47C135.613 115.673 105.415 145.94 68.2971 145.94ZM68.2971 17.0534C34.5095 17.0534 7.02037 44.6053 7.02037 78.47C7.02037 112.335 34.5095 139.887 68.2971 139.887C102.085 139.887 129.574 112.335 129.574 78.47C129.574 44.6053 102.085 17.0534 68.2971 17.0534Z" fill="#F96800"/>
<path d="M68.297 94.6759C59.3755 94.6759 52.1279 87.3945 52.1279 78.47C52.1279 69.5455 59.3928 62.264 68.297 62.264C77.2011 62.264 84.466 69.5455 84.466 78.47C84.466 87.3945 77.2011 94.6759 68.297 94.6759ZM68.297 64.2703C60.4799 64.2703 54.1296 70.6351 54.1296 78.47C54.1296 86.3049 60.4799 92.6697 68.297 92.6697C76.114 92.6697 82.4643 86.3049 82.4643 78.47C82.4643 70.6351 76.114 64.2703 68.297 64.2703Z" fill="#F96800"/>
<path d="M68.2973 117.506C46.8306 117.506 29.3501 100.003 29.3501 78.4699C29.3501 56.937 46.8133 39.4338 68.2973 39.4338C89.7812 39.4338 107.244 56.937 107.244 78.4699C107.244 100.003 89.7812 117.506 68.2973 117.506ZM68.2973 41.4574C47.935 41.4574 31.3691 58.0612 31.3691 78.4699C31.3691 98.8787 47.935 115.482 68.2973 115.482C88.6596 115.482 105.226 98.8787 105.226 78.4699C105.226 58.0612 88.6596 41.4574 68.2973 41.4574Z" fill="#F96800"/>
<path d="M1 78H131" stroke="#F96800" stroke-width="0.5"/>
<path d="M68.3837 86.2704H67.7625V145.871H68.3837V86.2704Z" fill="#F96800"/>
<path d="M68.3837 11H67.7625V70.6697H68.3837V11Z" fill="#F96800"/>
<path d="M68.4524 74.0077H68.1245V82.9149H68.4524V74.0077Z" fill="#F96800"/>
<path d="M72.7319 78.297H63.845V78.6256H72.7319V78.297Z" fill="#F96800"/>
<rect width="128" height="128" rx="64" transform="matrix(-0.999391 -0.0348995 -0.0348995 0.999391 134.194 16)" fill="url(#paint0_angular_152_2550)"/>
<g filter="url(#filter0_d_152_2550)">
<path d="M146.047 8H100.953C94.3353 8 89 13.3953 89 20.0877V66L100.748 54.1199C100.748 54.1199 100.851 54.1199 100.953 54.1199H146.047C152.613 54.1199 158 48.7245 158 42.0322V20.0877C158 13.4472 152.665 8 146.047 8Z" fill="white"/>
<path d="M141.43 29.3739L125.834 17.0787C124.346 15.8855 121.884 15.8855 120.396 17.0787L104.801 29.3739C103.313 30.5671 103.621 31.5009 105.519 31.5009H108.546V48.4651H137.685V31.5009H140.712C142.61 31.5009 142.917 30.5152 141.43 29.3739ZM121.576 43.6405C121.576 44.0555 121.268 44.3668 120.858 44.3668C120.448 44.3668 120.14 44.0555 120.14 43.6405V35.9625C120.14 35.1324 119.627 34.458 119.011 34.458C118.396 34.458 117.883 35.1324 117.883 35.9106V36.0143V36.7925C117.883 37.2075 117.575 37.5188 117.164 37.5188C116.754 37.5188 116.446 37.2075 116.446 36.7925V35.8587C116.446 34.2505 117.626 32.9016 119.062 32.9016C120.499 32.9016 121.679 34.2505 121.679 35.8587V43.6405H121.576ZM119.216 27.8694C119.216 26.1574 120.55 24.8086 122.243 24.8086C123.936 24.8086 125.27 26.1574 125.27 27.8694C125.27 29.5814 123.936 30.9303 122.243 30.9303C120.55 30.9303 119.216 29.5814 119.216 27.8694ZM128.912 44.9374C128.861 45.3524 128.451 45.6637 128.04 45.6637H125.783C125.321 45.6637 125.013 45.3006 125.013 44.8855V40.7353C125.013 40.7353 125.013 40.2684 124.962 40.0609C124.911 39.8533 124.346 38.5564 122.961 35.9625C122.089 34.3542 122.243 33.1091 122.551 32.4347C122.807 31.7084 123.269 31.3453 123.423 31.2415C123.731 30.9303 124.552 30.7227 124.808 30.6709C126.142 30.4634 127.219 30.8784 127.989 31.8641C130.759 35.2362 129.015 44.6261 128.912 45.0412V44.9374Z" fill="#FF8120"/>
</g>
<defs>
<filter id="filter0_d_152_2550" x="81" y="0" width="89" height="78" filterUnits="userSpaceOnUse" color-interpolation-filters="sRGB">
<feFlood flood-opacity="0" result="BackgroundImageFix"/>
<feColorMatrix in="SourceAlpha" type="matrix" values="0 0 0 0 0 0 0 0 0 0 0 0 0 0 0 0 0 0 127 0" result="hardAlpha"/>
<feOffset dx="2" dy="2"/>
<feGaussianBlur stdDeviation="5"/>
<feComposite in2="hardAlpha" operator="out"/>
<feColorMatrix type="matrix" values="0 0 0 0 0 0 0 0 0 0 0 0 0 0 0 0 0 0 0.1 0"/>
<feBlend mode="normal" in2="BackgroundImageFix" result="effect1_dropShadow_152_2550"/>
<feBlend mode="normal" in="SourceGraphic" in2="effect1_dropShadow_152_2550" result="shape"/>
</filter>
<radialGradient id="paint0_angular_152_2550" cx="0" cy="0" r="1" gradientUnits="userSpaceOnUse" gradientTransform="translate(64 64) rotate(-74.1034) scale(64.3504)">
<stop offset="0.458333" stop-color="#FF6B00" stop-opacity="0"/>
<stop offset="0.682292" stop-color="#FA6E14" stop-opacity="0.3829"/>
<stop offset="0.711458" stop-color="#F67025" stop-opacity="0.6"/>
<stop offset="0.711558" stop-color="#FFCEAB" stop-opacity="0"/>
</radialGradient>
</defs>
</svg>
