<svg width="24" height="25" viewBox="0 0 24 25" fill="none" xmlns="http://www.w3.org/2000/svg">
<g id="icon_default">
<path id="vector" fill-rule="evenodd" clip-rule="evenodd" d="M12.8832 5.84656C12.8832 5.43234 12.5474 5.09656 12.1332 5.09656C11.719 5.09656 11.3832 5.43234 11.3832 5.84656V11.3832H5.84653C5.43231 11.3832 5.09653 11.719 5.09653 12.1332C5.09653 12.5474 5.43231 12.8832 5.84653 12.8832H11.3832V18.4199C11.3832 18.8341 11.719 19.1699 12.1332 19.1699C12.5474 19.1699 12.8832 18.8341 12.8832 18.4199V12.8832H18.4199C18.8341 12.8832 19.1699 12.5474 19.1699 12.1332C19.1699 11.719 18.8341 11.3832 18.4199 11.3832H12.8832V5.84656Z" fill="#333333"/>
</g>
</svg>
