<svg width="20" height="20" viewBox="0 0 20 20" fill="none" xmlns="http://www.w3.org/2000/svg">
<path d="M0 4C0 1.79086 1.79086 0 4 0H16C18.2091 0 20 1.79086 20 4V16C20 18.2091 18.2091 20 16 20H4C1.79086 20 0 18.2091 0 16V4Z" fill="#FF8120"/>
<path fill-rule="evenodd" clip-rule="evenodd" d="M15.4571 6.04289C15.8476 6.43342 15.8476 7.06658 15.4571 7.45711L8.95711 13.9571C8.56658 14.3476 7.93342 14.3476 7.54289 13.9571L4.54289 10.9571C4.15237 10.5666 4.15237 9.93342 4.54289 9.54289C4.93342 9.15237 5.56658 9.15237 5.95711 9.54289L8.25 11.8358L14.0429 6.04289C14.4334 5.65237 15.0666 5.65237 15.4571 6.04289Z" fill="white"/>
</svg>
