<svg width="58" height="58" viewBox="0 0 58 58" fill="none" xmlns="http://www.w3.org/2000/svg">
<g clip-path="url(#clip0_1706_15284)">
<path fill-rule="evenodd" clip-rule="evenodd" d="M32.545 36.9044H22.4008V37.5209H21.4008V36.9044H10.5759C8.60083 36.9044 7 38.4935 7 40.454V54.4504C7 56.4109 8.60083 58 10.5759 58H46.9241C48.8992 58 50.5 56.4109 50.5 54.4504V40.454C50.5 38.4935 48.8992 36.9044 46.9241 36.9044H38.5757L38.8927 38.7115L37.9078 38.8843L37.5604 36.9044H33.5603L33.5771 36.9999L32.5922 37.1728L32.545 36.9044ZM26.3904 36.9195V38.7768H27.3904V36.9195H26.3904ZM34.1076 40.0213L33.7539 38.007L32.769 38.18L33.1227 40.1942L34.1076 40.0213ZM22.4008 40.4972V38.5637H21.4008V40.6493H22.197C21.902 40.9091 21.7062 41.2778 21.6735 41.6921H21.4008V43.7777H22.4008V43.1341C22.6429 43.2859 22.9296 43.3737 23.2368 43.3737C24.1041 43.3737 24.8065 42.6765 24.8065 41.8156C24.8065 40.9548 24.1041 40.2575 23.2368 40.2575C22.9296 40.2575 22.6429 40.3454 22.4008 40.4972ZM26.3904 39.7054V41.5626H27.2015C27.188 41.645 27.1809 41.7295 27.1809 41.8156C27.1809 42.0577 27.2365 42.2869 27.3356 42.4913H26.3904V44.3485H27.3904V42.5942C27.6615 43.0603 28.1686 43.3737 28.7491 43.3737C29.6163 43.3737 30.3187 42.6765 30.3187 41.8156C30.3187 40.9548 29.6163 40.2575 28.7491 40.2575C28.1686 40.2575 27.6615 40.571 27.3904 41.0371V39.7054H26.3904ZM39.184 40.3714C39.366 40.298 39.565 40.2575 39.7735 40.2575C40.6408 40.2575 41.3432 40.9548 41.3432 41.8156C41.3432 42.6765 40.6408 43.3737 39.7735 43.3737C39.7525 43.3737 39.7315 43.3733 39.7106 43.3725L40.0147 45.1053L39.0297 45.2782L38.6557 43.1469L38.8932 43.1052C38.4781 42.825 38.2054 42.3521 38.2054 41.8156C38.2054 41.6088 38.2459 41.4114 38.3195 41.2309L38.0948 39.95L39.0797 39.7771L39.184 40.3714ZM35.1686 46.064L34.8149 44.0498L33.83 44.2227L34.1245 45.9001C33.3228 45.9689 32.6932 46.6373 32.6932 47.4523C32.6932 48.3132 33.3956 49.0104 34.2613 49.0104C34.4302 49.0104 34.5928 48.984 34.7452 48.935C34.8598 49.1938 35.0099 49.4312 35.1884 49.6422L35.9518 48.9964C35.7839 48.7979 35.6542 48.5643 35.5759 48.3043C35.7372 48.0595 35.831 47.7668 35.831 47.4523C35.831 46.8659 35.505 46.3555 35.0231 46.0896L35.1686 46.064ZM22.4008 46.1339V44.8205H21.4008V46.906H21.7678C21.7037 47.076 21.6687 47.2601 21.6687 47.4523C21.6687 47.6259 21.6973 47.7929 21.75 47.9488H21.4008V48.9916C21.4008 49.5355 21.548 50.0465 21.805 50.486L22.6682 49.9811C22.4982 49.6904 22.4008 49.353 22.4008 48.9916V48.7708C22.6429 48.9226 22.9296 49.0104 23.2368 49.0104C24.1041 49.0104 24.8065 48.3132 24.8065 47.4523C24.8065 46.5915 24.1041 45.8942 23.2368 45.8942C22.9296 45.8942 22.6429 45.9821 22.4008 46.1339ZM26.3904 45.2771V47.1344H27.2136C27.1922 47.237 27.1809 47.3434 27.1809 47.4523C27.1809 47.6691 27.2255 47.8755 27.3059 48.063H26.3904V48.9916C26.3904 49.353 26.2931 49.6904 26.123 49.9811L26.9862 50.486C27.2433 50.0465 27.3904 49.5355 27.3904 48.9916V48.2309C27.6615 48.697 28.1686 49.0104 28.7491 49.0104C29.6163 49.0104 30.3187 48.3132 30.3187 47.4523C30.3187 46.5915 29.6163 45.8942 28.7491 45.8942C28.1686 45.8942 27.6615 46.2077 27.3904 46.6737V45.2771H26.3904ZM38.7251 49.2428C38.4693 49.4546 38.1556 49.6052 37.8016 49.6665C37.4475 49.7279 37.1006 49.6916 36.7873 49.5778L36.446 50.5178C36.9189 50.6895 37.4422 50.7437 37.9723 50.6518C38.5021 50.56 38.976 50.3334 39.3629 50.013L38.7251 49.2428ZM24.3956 50.9681C24.0317 50.9681 23.6922 50.872 23.3997 50.7047L22.9076 51.5648C22.1998 51.7151 21.6687 52.34 21.6687 53.0885C21.6687 53.9494 22.3711 54.6466 23.2368 54.6466C24.1041 54.6466 24.8065 53.9494 24.8065 53.0885C24.8065 52.6482 24.6227 52.2506 24.327 51.9673C24.3498 51.9678 24.3727 51.9681 24.3956 51.9681C24.938 51.9681 25.4482 51.8244 25.8881 51.5727L25.3915 50.7047C25.0991 50.872 24.7595 50.9681 24.3956 50.9681ZM13.782 41.8156C13.782 42.6765 13.0796 43.3737 12.2124 43.3737C11.3466 43.3737 10.6442 42.6765 10.6442 41.8156C10.6442 40.9548 11.3466 40.2575 12.2124 40.2575C13.0796 40.2575 13.782 40.9548 13.782 41.8156ZM17.7246 43.3737C18.5919 43.3737 19.2943 42.6765 19.2943 41.8156C19.2943 40.9548 18.5919 40.2575 17.7246 40.2575C16.8589 40.2575 16.1565 40.9548 16.1565 41.8156C16.1565 42.6765 16.8589 43.3737 17.7246 43.3737ZM35.831 41.8156C35.831 42.6765 35.1285 43.3737 34.2613 43.3737C33.3956 43.3737 32.6932 42.6765 32.6932 41.8156C32.6932 40.9548 33.3956 40.2575 34.2613 40.2575C35.1285 40.2575 35.831 40.9548 35.831 41.8156ZM46.8554 41.8156C46.8554 42.6765 46.153 43.3737 45.2858 43.3737C44.42 43.3737 43.7176 42.6765 43.7176 41.8156C43.7176 40.9548 44.42 40.2575 45.2858 40.2575C46.153 40.2575 46.8554 40.9548 46.8554 41.8156ZM12.2124 49.0104C13.0796 49.0104 13.782 48.3132 13.782 47.4523C13.782 46.5915 13.0796 45.8942 12.2124 45.8942C11.3466 45.8942 10.6442 46.5915 10.6442 47.4523C10.6442 48.3132 11.3466 49.0104 12.2124 49.0104ZM19.2943 47.4523C19.2943 48.3132 18.5919 49.0104 17.7246 49.0104C16.8589 49.0104 16.1565 48.3132 16.1565 47.4523C16.1565 46.5915 16.8589 45.8942 17.7246 45.8942C18.5919 45.8942 19.2943 46.5915 19.2943 47.4523ZM41.3432 47.4523C41.3432 48.3132 40.6408 49.0104 39.7735 49.0104C38.9078 49.0104 38.2054 48.3132 38.2054 47.4523C38.2054 46.5915 38.9078 45.8942 39.7735 45.8942C40.6408 45.8942 41.3432 46.5915 41.3432 47.4523ZM45.2858 49.0104C46.153 49.0104 46.8554 48.3132 46.8554 47.4523C46.8554 46.5915 46.153 45.8942 45.2858 45.8942C44.42 45.8942 43.7176 46.5915 43.7176 47.4523C43.7176 48.3132 44.42 49.0104 45.2858 49.0104ZM13.782 53.0885C13.782 53.9494 13.0796 54.6466 12.2124 54.6466C11.3466 54.6466 10.6442 53.9494 10.6442 53.0885C10.6442 52.2277 11.3466 51.5304 12.2124 51.5304C13.0796 51.5304 13.782 52.2277 13.782 53.0885ZM17.7246 54.6466C18.5919 54.6466 19.2943 53.9494 19.2943 53.0885C19.2943 52.2277 18.5919 51.5304 17.7246 51.5304C16.8589 51.5304 16.1565 52.2277 16.1565 53.0885C16.1565 53.9494 16.8589 54.6466 17.7246 54.6466ZM28.7491 54.6466C29.6163 54.6466 30.3187 53.9494 30.3187 53.0885C30.3187 52.2277 29.6163 51.5304 28.7491 51.5304C27.8833 51.5304 27.1809 52.2277 27.1809 53.0885C27.1809 53.9494 27.8833 54.6466 28.7491 54.6466ZM35.831 53.0885C35.831 53.9494 35.1285 54.6466 34.2613 54.6466C33.3956 54.6466 32.6932 53.9494 32.6932 53.0885C32.6932 52.2277 33.3956 51.5304 34.2613 51.5304C35.1285 51.5304 35.831 52.2277 35.831 53.0885ZM39.7735 54.6466C40.6408 54.6466 41.3432 53.9494 41.3432 53.0885C41.3432 52.2277 40.6408 51.5304 39.7735 51.5304C38.9078 51.5304 38.2054 52.2277 38.2054 53.0885C38.2054 53.9494 38.9078 54.6466 39.7735 54.6466ZM46.8554 53.0885C46.8554 53.9494 46.153 54.6466 45.2858 54.6466C44.42 54.6466 43.7176 53.9494 43.7176 53.0885C43.7176 52.2277 44.42 51.5304 45.2858 51.5304C46.153 51.5304 46.8554 52.2277 46.8554 53.0885Z" fill="url(#paint0_linear_1706_15284)"/>
<path d="M31.8379 17.1687L32.2701 16.9174L31.3379 15.3145V17.1687H31.8379ZM37.4023 26.7361L36.97 26.9874L36.9702 26.9878L37.4023 26.7361ZM31.8379 27.1722H31.3379V27.3549L31.4557 27.4946L31.8379 27.1722ZM36.8514 33.1162L36.4692 33.4386L36.4937 33.4677L36.5224 33.4928L36.8514 33.1162ZM37.6524 34.5352L38.1448 34.4487L38.1448 34.4485L37.6524 34.5352ZM39.8962 47.3228L39.4037 47.4092L39.4037 47.4094L39.8962 47.3228ZM37.887 50.159L37.9724 50.6516L37.887 50.159ZM35.0299 48.1645L34.5374 48.251L34.5374 48.2511L35.0299 48.1645ZM32.9078 36.079L33.4003 35.9926L33.377 35.8597L33.29 35.7566L32.9078 36.079ZM27.3493 29.4903L27.7315 29.1679L27.5817 28.9903H27.3493V29.4903ZM26.8904 29.4903V28.9903H26.3904V29.4903H26.8904ZM21.9018 23.8954L22.4018 23.9092V23.8954H21.9018ZM21.9018 17.2319H22.4018V15.3776L21.4696 16.9805L21.9018 17.2319ZM16.3743 26.7359L16.8063 26.9876L16.8065 26.9873L16.3743 26.7359ZM13.5884 27.4773L13.8369 27.0434L13.5884 27.4773ZM12.843 24.712L13.275 24.9637L13.2752 24.9633L12.843 24.712ZM19.5953 13.1021L20.0275 13.3535L20.0276 13.3533L19.5953 13.1021ZM21.6993 12.1171L21.6169 12.6103L21.6908 12.6226L21.765 12.6128L21.6993 12.1171ZM23.7567 12.0951V12.5953L23.7677 12.595L23.7567 12.0951ZM29.983 12.0951L29.972 12.5951H29.983V12.0951ZM32.061 12.1201L31.991 12.6152L32.0694 12.6262L32.1474 12.6126L32.061 12.1201ZM34.1813 13.1023L33.749 13.3535L33.7491 13.3536L34.1813 13.1023ZM40.9336 24.7121L40.5014 24.9635L40.5016 24.9639L40.9336 24.7121ZM40.1881 27.4775L39.9396 27.0436L40.1881 27.4775ZM32.3563 4.92933C32.3563 4.60678 32.3279 4.2904 32.2734 3.98263L31.2887 4.15702C31.3331 4.40748 31.3563 4.66551 31.3563 4.92933H32.3563ZM32.0253 3.06469C31.8036 2.46232 31.4778 1.91038 31.07 1.43018L30.3078 2.07751C30.641 2.46989 30.9065 2.92 31.0869 3.41011L32.0253 3.06469ZM30.3952 0.76269C29.9119 0.361244 29.3575 0.0410706 28.7532 -0.17646L28.4145 0.764428C28.9079 0.942043 29.361 1.20361 29.7562 1.5319L30.3952 0.76269ZM27.8355 -0.41908C27.5282 -0.472309 27.2124 -0.5 26.8905 -0.5V0.5C27.1549 0.5 27.4137 0.522742 27.6648 0.566248L27.8355 -0.41908ZM26.8905 -0.5C26.5685 -0.5 26.2527 -0.472309 25.9454 -0.41908L26.1161 0.566248C26.3673 0.522742 26.626 0.5 26.8905 0.5V-0.5ZM25.0277 -0.176461C24.4234 0.0410704 23.869 0.361244 23.3858 0.76269L24.0248 1.5319C24.42 1.20361 24.873 0.942043 25.3664 0.764428L25.0277 -0.176461ZM22.7109 1.43018C22.3031 1.91038 21.9773 2.46231 21.7556 3.06469L22.694 3.41011C22.8744 2.92 23.1399 2.46989 23.4731 2.07751L22.7109 1.43018ZM21.5075 3.98263C21.453 4.2904 21.4246 4.60678 21.4246 4.92933H22.4246C22.4246 4.66551 22.4478 4.40748 22.4922 4.15702L21.5075 3.98263ZM21.4246 4.92933C21.4246 5.25189 21.453 5.56827 21.5075 5.87603L22.4922 5.70164C22.4478 5.45119 22.4246 5.19316 22.4246 4.92933H21.4246ZM21.7556 6.79397C21.9773 7.39635 22.3031 7.94829 22.7109 8.42848L23.4731 7.78116C23.1399 7.38878 22.8744 6.93866 22.694 6.44856L21.7556 6.79397ZM23.3858 9.09597C23.869 9.49742 24.4234 9.81759 25.0277 10.0351L25.3664 9.09424C24.873 8.91662 24.42 8.65505 24.0248 8.32677L23.3858 9.09597ZM25.9454 10.2777C26.2527 10.331 26.5685 10.3587 26.8905 10.3587V9.35867C26.626 9.35867 26.3673 9.33592 26.1161 9.29242L25.9454 10.2777ZM26.8905 10.3587C27.2124 10.3587 27.5282 10.331 27.8355 10.2777L27.6648 9.29242C27.4137 9.33592 27.1549 9.35867 26.8905 9.35867V10.3587ZM28.7532 10.0351C29.3575 9.8176 29.9119 9.49742 30.3952 9.09598L29.7562 8.32677C29.361 8.65505 28.9079 8.91662 28.4145 9.09424L28.7532 10.0351ZM31.07 8.42848C31.4778 7.94829 31.8036 7.39635 32.0253 6.79397L31.0869 6.44856C30.9065 6.93866 30.641 7.38878 30.3078 7.78116L31.07 8.42848ZM32.2734 5.87603C32.3279 5.56827 32.3563 5.25189 32.3563 4.92933H31.3563C31.3563 5.19316 31.3331 5.45119 31.2887 5.70165L32.2734 5.87603ZM31.3379 17.1687V18.2802H32.3379V17.1687H31.3379ZM31.3379 19.3917V21.6147H32.3379V19.3917H31.3379ZM31.3379 22.7262V24.9492H32.3379V22.7262H31.3379ZM31.3379 26.0607V27.1722H32.3379V26.0607H31.3379ZM31.4557 27.4946L32.0128 28.155L32.7772 27.5103L32.2201 26.8499L31.4557 27.4946ZM32.5698 28.8155L33.6839 30.1364L34.4483 29.4916L33.3342 28.1707L32.5698 28.8155ZM34.241 30.7968L35.3551 32.1177L36.1195 31.4729L35.0054 30.1521L34.241 30.7968ZM35.9121 32.7781L36.4692 33.4386L37.2336 32.7938L36.6765 32.1334L35.9121 32.7781ZM36.5224 33.4928C36.8476 33.7768 37.0799 34.1668 37.1599 34.6218L38.1448 34.4485C38.0236 33.7595 37.6704 33.1677 37.1803 32.7396L36.5224 33.4928ZM37.1599 34.6216L37.3469 35.6872L38.3318 35.5144L38.1448 34.4487L37.1599 34.6216ZM37.5338 36.7528L37.9078 38.8841L38.8928 38.7113L38.5188 36.58L37.5338 36.7528ZM38.0948 39.9498L38.4688 42.081L39.4537 41.9082L39.0798 39.7769L38.0948 39.9498ZM38.6558 43.1467L39.0297 45.278L40.0147 45.1051L39.6407 42.9739L38.6558 43.1467ZM39.2167 46.3436L39.4037 47.4092L40.3887 47.2364L40.2017 46.1708L39.2167 46.3436ZM39.4037 47.4094C39.4655 47.7608 39.4285 48.1051 39.3129 48.416L40.2503 48.7644C40.426 48.2915 40.482 47.7674 40.3886 47.2362L39.4037 47.4094ZM38.7251 49.2426C38.4694 49.4544 38.1556 49.605 37.8016 49.6663L37.9724 50.6516C38.5021 50.5598 38.976 50.3332 39.3629 50.0128L38.7251 49.2426ZM37.8016 49.6663C37.4475 49.7277 37.1007 49.6914 36.7873 49.5776L36.446 50.5176C36.9189 50.6893 37.4422 50.7435 37.9724 50.6516L37.8016 49.6663ZM35.9519 48.9962C35.7366 48.7417 35.5841 48.4296 35.5223 48.0779L34.5374 48.2511C34.6308 48.7822 34.8622 49.2564 35.1884 49.642L35.9519 48.9962ZM35.5223 48.0781L35.3455 47.0709L34.3605 47.2439L34.5374 48.251L35.5223 48.0781ZM35.1686 46.0638L34.815 44.0496L33.83 44.2225L34.1837 46.2368L35.1686 46.0638ZM34.6381 43.0424L34.2845 41.0282L33.2995 41.2011L33.6532 43.2154L34.6381 43.0424ZM34.1076 40.0211L33.754 38.0068L32.769 38.1798L33.1227 40.194L34.1076 40.0211ZM33.5771 36.9997L33.4003 35.9926L32.4154 36.1655L32.5922 37.1726L33.5771 36.9997ZM33.29 35.7566L32.6724 35.0246L31.9081 35.6694L32.5257 36.4015L33.29 35.7566ZM32.0548 34.2925L30.8195 32.8283L30.0552 33.4731L31.2904 34.9373L32.0548 34.2925ZM30.2019 32.0962L28.9667 30.6321L28.2024 31.2769L29.4376 32.7411L30.2019 32.0962ZM28.3491 29.9L27.7315 29.1679L26.9671 29.8127L27.5848 30.5448L28.3491 29.9ZM27.3493 28.9903H27.1964V29.9903H27.3493V28.9903ZM27.0434 28.9903H26.8904V29.9903H27.0434V28.9903ZM26.3904 29.4903V30.4189H27.3904V29.4903H26.3904ZM26.3904 31.3476V33.2048H27.3904V31.3476H26.3904ZM26.3904 34.1334V35.9907H27.3904V34.1334H26.3904ZM26.3904 36.9193V38.7766H27.3904V36.9193H26.3904ZM26.3904 39.7052V41.5624H27.3904V39.7052H26.3904ZM26.3904 42.491V44.3483H27.3904V42.491H26.3904ZM26.3904 45.2769V47.1342H27.3904V45.2769H26.3904ZM26.3904 48.0628V48.9914H27.3904V48.0628H26.3904ZM26.3904 48.9914C26.3904 49.3528 26.2931 49.6902 26.1231 49.9809L26.9862 50.4858C27.2433 50.0463 27.3904 49.5353 27.3904 48.9914H26.3904ZM25.3916 50.7045C25.0991 50.8718 24.7596 50.9679 24.3957 50.9679V51.9679C24.938 51.9679 25.4482 51.8242 25.8882 51.5725L25.3916 50.7045ZM24.3957 50.9679C24.0317 50.9679 23.6922 50.8718 23.3997 50.7045L22.9031 51.5725C23.3431 51.8242 23.8533 51.9679 24.3957 51.9679V50.9679ZM22.6682 49.9809C22.4982 49.6902 22.4009 49.3528 22.4009 48.9914H21.4009C21.4009 49.5353 21.548 50.0463 21.8051 50.4858L22.6682 49.9809ZM22.4009 48.9914V47.9486H21.4009V48.9914H22.4009ZM22.4009 46.9058V44.8203H21.4009V46.9058H22.4009ZM22.4009 43.7775V41.6919H21.4009V43.7775H22.4009ZM22.4009 40.6491V38.5635H21.4009V40.6491H22.4009ZM22.4009 37.5207V35.4351H21.4009V37.5207H22.4009ZM22.4009 34.3923V32.3068H21.4009V34.3923H22.4009ZM22.4009 31.264V29.1784H21.4009V31.264H22.4009ZM22.4009 28.1356V26.05H21.4009V28.1356H22.4009ZM22.4009 25.0072V23.9644H21.4009V25.0072H22.4009ZM22.4009 23.9644C22.4009 23.946 22.4011 23.9275 22.4016 23.9092L21.402 23.8816C21.4012 23.9091 21.4009 23.9368 21.4009 23.9644H22.4009ZM22.4018 23.8954V22.7848H21.4018V23.8954H22.4018ZM22.4018 21.6742V19.4531H21.4018V21.6742H22.4018ZM22.4018 18.3425V17.2319H21.4018V18.3425H22.4018ZM21.4696 16.9805L21.009 17.7725L21.8734 18.2752L22.334 17.4832L21.4696 16.9805ZM20.5483 18.5645L19.6271 20.1485L20.4915 20.6513L21.4128 19.0672L20.5483 18.5645ZM19.1665 20.9405L18.2452 22.5245L19.1096 23.0273L20.0309 21.4433L19.1665 20.9405ZM17.7846 23.3165L16.8633 24.9005L17.7278 25.4033L18.649 23.8193L17.7846 23.3165ZM16.4027 25.6925L15.9421 26.4845L16.8065 26.9873L17.2671 26.1953L16.4027 25.6925ZM15.9423 26.4842C15.8014 26.726 15.605 26.9144 15.3781 27.0439L15.8739 27.9124C16.249 27.6983 16.5743 27.3858 16.8063 26.9876L15.9423 26.4842ZM14.6068 27.2487C14.3454 27.2488 14.0806 27.183 13.8369 27.0434L13.34 27.9112C13.7394 28.1399 14.1764 28.2489 14.6074 28.2487L14.6068 27.2487ZM13.8369 27.0434C13.5936 26.9041 13.4046 26.7102 13.2748 26.4871L12.4104 26.9899C12.6265 27.3614 12.9409 27.6827 13.34 27.9112L13.8369 27.0434ZM13.0686 25.7247C13.0684 25.4668 13.1344 25.205 13.275 24.9637L12.411 24.4602C12.179 24.8583 12.0682 25.2948 12.0686 25.7255L13.0686 25.7247ZM13.2752 24.9633L13.8379 23.9959L12.9735 23.4931L12.4108 24.4606L13.2752 24.9633ZM14.4006 23.0284L15.526 21.0934L14.6615 20.5906L13.5361 22.5256L14.4006 23.0284ZM16.0886 20.1259L17.214 18.1909L16.3496 17.6882L15.2242 19.6231L16.0886 20.1259ZM17.7767 17.2234L18.9021 15.2884L18.0377 14.7857L16.9123 16.7207L17.7767 17.2234ZM19.4648 14.321L20.0275 13.3535L19.163 12.8507L18.6004 13.8182L19.4648 14.321ZM20.0276 13.3533C20.1355 13.1676 20.2761 13.0137 20.438 12.8937L19.8424 12.0904C19.5737 12.2896 19.3406 12.5451 19.163 12.8509L20.0276 13.3533ZM20.9985 12.6326C21.1996 12.5842 21.4101 12.5758 21.6169 12.6103L21.7816 11.624C21.4401 11.567 21.0941 11.5811 20.7648 11.6603L20.9985 12.6326ZM21.765 12.6128C21.7945 12.6089 21.8242 12.6056 21.8541 12.603L21.7665 11.6068C21.7219 11.6107 21.6775 11.6156 21.6335 11.6215L21.765 12.6128ZM21.9436 12.5971C21.9734 12.5958 22.0033 12.5951 22.0335 12.5951V11.5951C21.9888 11.5951 21.9443 11.5961 21.9 11.598L21.9436 12.5971ZM22.0335 12.5951H22.6079V11.5951H22.0335V12.5951ZM23.1823 12.5951H23.7567V11.5951H23.1823V12.5951ZM23.7677 12.595C23.7712 12.5949 23.7748 12.5949 23.7783 12.5948L23.7637 11.5949C23.7577 11.595 23.7517 11.5951 23.7457 11.5953L23.7677 12.595ZM23.789 12.5947C23.7925 12.5947 23.7961 12.5947 23.7996 12.5947V11.5947C23.7936 11.5947 23.7876 11.5947 23.7817 11.5947L23.789 12.5947ZM23.7996 12.5947H24.823V11.5947H23.7996V12.5947ZM25.8465 12.5947H27.8933V11.5947H25.8465V12.5947ZM28.9167 12.5947H29.9401V11.5947H28.9167V12.5947ZM29.9401 12.5947C29.9436 12.5947 29.9472 12.5947 29.9507 12.5947L29.9581 11.5947C29.9521 11.5947 29.9461 11.5947 29.9401 11.5947V12.5947ZM29.9614 12.5948C29.9649 12.5949 29.9685 12.5949 29.972 12.595L29.994 11.5953C29.988 11.5951 29.982 11.595 29.976 11.5949L29.9614 12.5948ZM29.983 12.5951H30.5571V11.5951H29.983V12.5951ZM31.1312 12.5951H31.7053V11.5951H31.1312V12.5951ZM31.7053 12.5951C31.7374 12.5951 31.7693 12.5959 31.801 12.5974L31.8474 11.5984C31.8003 11.5962 31.7529 11.5951 31.7053 11.5951V12.5951ZM31.8963 12.604C31.9281 12.607 31.9597 12.6107 31.991 12.6152L32.1311 11.625C32.0842 11.6184 32.037 11.6128 31.9895 11.6084L31.8963 12.604ZM32.1474 12.6126C32.3553 12.5761 32.5673 12.5832 32.7699 12.6308L32.9985 11.6573C32.6666 11.5794 32.3182 11.5674 31.9747 11.6276L32.1474 12.6126ZM33.3353 12.8914C33.4985 13.0118 33.6404 13.1665 33.749 13.3535L34.6136 12.851C34.4347 12.5432 34.1996 12.2863 33.9286 12.0865L33.3353 12.8914ZM33.7491 13.3536L34.3118 14.3211L35.1762 13.8184L34.6135 12.8509L33.7491 13.3536ZM34.8745 15.2886L35.9998 17.2236L36.8643 16.7208L35.7389 14.7859L34.8745 15.2886ZM36.5625 18.1911L37.6879 20.1261L38.5523 19.6233L37.427 17.6883L36.5625 18.1911ZM38.2506 21.0936L39.376 23.0285L40.2404 22.5258L39.115 20.5908L38.2506 21.0936ZM39.9387 23.996L40.5014 24.9635L41.3658 24.4608L40.8031 23.4933L39.9387 23.996ZM40.5016 24.9639C40.6422 25.2052 40.7082 25.4669 40.708 25.7249L41.708 25.7257C41.7083 25.2949 41.5976 24.8585 41.3656 24.4604L40.5016 24.9639ZM40.5018 26.4872C40.3719 26.7104 40.1829 26.9043 39.9396 27.0436L40.4366 27.9114C40.8357 27.6829 41.15 27.3616 41.3662 26.99L40.5018 26.4872ZM39.9396 27.0436C39.6959 27.1832 39.4311 27.249 39.1698 27.2488L39.1692 28.2488C39.6002 28.2491 40.0372 28.1401 40.4366 27.9114L39.9396 27.0436ZM38.3984 27.0441C38.1715 26.9146 37.9752 26.7261 37.8343 26.4843L36.9702 26.9878C37.2023 27.386 37.5276 27.6985 37.9026 27.9125L38.3984 27.0441ZM37.8345 26.4847L37.3708 25.6874L36.5063 26.1902L36.97 26.9874L37.8345 26.4847ZM36.9071 24.8901L35.9797 23.2956L35.1153 23.7983L36.0427 25.3929L36.9071 24.8901ZM35.516 22.4983L34.5886 20.9037L33.7242 21.4065L34.6516 23.001L35.516 22.4983ZM34.1249 20.1065L33.1975 18.5119L32.3331 19.0147L33.2605 20.6092L34.1249 20.1065ZM32.7338 17.7146L32.2701 16.9174L31.4057 17.4201L31.8694 18.2174L32.7338 17.7146Z" fill="#616161"/>
</g>
<defs>
<linearGradient id="paint0_linear_1706_15284" x1="19.2344" y1="40.6401" x2="25.7274" y2="60.1412" gradientUnits="userSpaceOnUse">
<stop stop-color="#FF8120"/>
<stop offset="1" stop-color="#E54304"/>
</linearGradient>
<clipPath id="clip0_1706_15284">
<rect width="58" height="58" fill="white"/>
</clipPath>
</defs>
</svg>
