<svg width="58" height="58" viewBox="0 0 58 58" fill="none" xmlns="http://www.w3.org/2000/svg">
<g clip-path="url(#clip0_1706_15286)">
<path fill-rule="evenodd" clip-rule="evenodd" d="M19.5826 28.6593H12.3607C11.6092 28.6593 11 29.2741 11 30.0324C11 30.7907 11.6092 31.4054 12.3607 31.4054H14.103V56.627C14.103 57.3853 15.1345 58.0001 15.886 58.0001C16.6375 58.0001 17.7825 57.3853 17.7825 56.627V31.4054H19.5826C20.3341 31.4054 20.9433 30.7907 20.9433 30.0324C20.9433 29.2741 20.3341 28.6593 19.5826 28.6593Z" fill="url(#paint0_linear_1706_15286)"/>
<path d="M14.103 31.4054H14.603V30.9054H14.103V31.4054ZM17.7825 31.4054V30.9054H17.2825V31.4054H17.7825ZM12.3607 29.1593H19.5826V28.1593H12.3607V29.1593ZM11.5 30.0324C11.5 29.546 11.8896 29.1593 12.3607 29.1593V28.1593C11.3289 28.1593 10.5 29.0022 10.5 30.0324H11.5ZM12.3607 30.9054C11.8896 30.9054 11.5 30.5188 11.5 30.0324H10.5C10.5 31.0625 11.3289 31.9054 12.3607 31.9054V30.9054ZM14.103 30.9054H12.3607V31.9054H14.103V30.9054ZM14.603 56.627V31.4054H13.603V56.627H14.603ZM15.886 57.5001C15.6292 57.5001 15.2823 57.3881 15.0011 57.1895C14.7108 56.9845 14.603 56.7727 14.603 56.627H13.603C13.603 57.2396 14.011 57.7144 14.4242 58.0063C14.8466 58.3047 15.3912 58.5001 15.886 58.5001V57.5001ZM17.2825 56.627C17.2825 56.7502 17.1746 56.9624 16.8425 57.1794C16.5279 57.385 16.1474 57.5001 15.886 57.5001V58.5001C16.3761 58.5001 16.9438 58.3078 17.3896 58.0165C17.8179 57.7366 18.2825 57.2622 18.2825 56.627H17.2825ZM17.2825 31.4054V56.627H18.2825V31.4054H17.2825ZM19.5826 30.9054H17.7825V31.9054H19.5826V30.9054ZM20.4433 30.0324C20.4433 30.5188 20.0537 30.9054 19.5826 30.9054V31.9054C20.6144 31.9054 21.4433 31.0625 21.4433 30.0324H20.4433ZM19.5826 29.1593C20.0537 29.1593 20.4433 29.546 20.4433 30.0324H21.4433C21.4433 29.0022 20.6144 28.1593 19.5826 28.1593V29.1593Z" fill="#FF8120"/>
<path d="M42.4821 57.6034L42.3498 57.1213H42.3498L42.4821 57.6034ZM38.4602 55.2833L37.9774 55.4136L37.9775 55.4139L38.4602 55.2833ZM44.7815 53.5452L44.2987 53.6754L44.2988 53.6757L44.7815 53.5452ZM41.1004 39.9044L40.647 39.6937L40.5703 39.8588L40.6177 40.0346L41.1004 39.9044ZM46.2561 28.8102L46.7096 29.021L46.7096 29.0209L46.2561 28.8102ZM46.4828 28.1507L46.0085 27.9923L46.0009 28.0151L45.9955 28.0386L46.4828 28.1507ZM45.2289 22.5883L44.8693 22.9357V22.9357L45.2289 22.5883ZM34.7388 11.7288L35.0984 11.3814L35.0984 11.3814L34.7388 11.7288ZM27.0831 11.6289L26.7326 11.2723L26.7324 11.2724L27.0831 11.6289ZM25.7188 13.8308L26.1722 14.0416L26.1849 14.0143L26.1942 13.9857L25.7188 13.8308ZM21.6249 22.6402V23.1402H21.9439L22.0783 22.851L21.6249 22.6402ZM24.1268 26.4213L23.8634 25.9964L23.8408 26.0104L23.8198 26.0267L24.1268 26.4213ZM24.9265 25.5168L24.473 25.306L24.4729 25.3062L24.9265 25.5168ZM27.5291 19.9165L27.8887 19.5691L27.3826 19.0452L27.0756 19.7058L27.5291 19.9165ZM37.4758 30.2149L37.1161 30.5623L37.1163 30.5625L37.4758 30.2149ZM38.1073 30.775L38.5607 30.9857L38.7307 30.6199L38.4091 30.3764L38.1073 30.775ZM34.6666 38.1797L34.2131 37.969L34.2131 37.9692L34.6666 38.1797ZM34.3885 40.0388L34.8855 39.9847L34.8847 39.9773L34.8837 39.9698L34.3885 40.0388ZM34.4846 40.5496L34.0019 40.6797L34.0019 40.6799L34.4846 40.5496ZM27.223 5.91969C27.223 5.54181 27.1905 5.17116 27.1282 4.81052L26.1428 4.98089C26.1955 5.2855 26.223 5.59915 26.223 5.91969H27.223ZM26.844 3.73349C26.5892 3.02421 26.214 2.37327 25.7437 1.80571L24.9737 2.44383C25.3711 2.92334 25.6878 3.47304 25.9029 4.07161L26.844 3.73349ZM24.9613 1.01276C24.3981 0.533301 23.7508 0.150233 23.0444 -0.110515L22.6981 0.827613C23.2921 1.04687 23.8376 1.36941 24.313 1.77418L24.9613 1.01276ZM21.9675 -0.402436C21.6063 -0.466596 21.235 -0.5 20.8563 -0.5V0.5C21.176 0.5 21.4888 0.528197 21.7926 0.582149L21.9675 -0.402436ZM20.8563 -0.5C20.4776 -0.5 20.1063 -0.466622 19.7452 -0.402509L19.9199 0.582096C20.2237 0.52818 20.5365 0.5 20.8563 0.5V-0.5ZM18.6681 -0.110723C17.9616 0.149969 17.3142 0.533 16.7511 1.01244L17.3993 1.77387C17.8747 1.36916 18.4202 1.04666 19.0143 0.827453L18.6681 -0.110723ZM15.9686 1.80546C15.4983 2.37308 15.1232 3.02409 14.8685 3.73344L15.8096 4.07145C16.0246 3.4728 16.3412 2.92306 16.7386 2.44353L15.9686 1.80546ZM14.5844 4.81052C14.5221 5.17116 14.4896 5.54181 14.4896 5.91969H15.4896C15.4896 5.59912 15.5171 5.28544 15.5698 4.98081L14.5844 4.81052ZM14.4896 5.91969C14.4896 6.29756 14.5221 6.66822 14.5844 7.02886L15.5698 6.85857C15.5171 6.55394 15.4896 6.24025 15.4896 5.91969H14.4896ZM14.8685 8.10593C15.1232 8.81529 15.4983 9.4663 15.9686 10.0339L16.7386 9.39584C16.3412 8.91632 16.0246 8.36657 15.8096 7.76792L14.8685 8.10593ZM16.7511 10.8269C17.3142 11.3064 17.9616 11.6894 18.6681 11.9501L19.0143 11.0119C18.4202 10.7927 17.8747 10.4702 17.3993 10.0655L16.7511 10.8269ZM19.7452 12.2419C20.1063 12.306 20.4776 12.3394 20.8563 12.3394V11.3394C20.5365 11.3394 20.2237 11.3112 19.9199 11.2573L19.7452 12.2419ZM20.8563 12.3394C21.235 12.3394 21.6063 12.306 21.9675 12.2418L21.7926 11.2572C21.4888 11.3112 21.176 11.3394 20.8563 11.3394V12.3394ZM23.0444 11.9499C23.7508 11.6891 24.3981 11.3061 24.9613 10.8266L24.313 10.0652C23.8376 10.47 23.2921 10.7925 22.6981 11.0118L23.0444 11.9499ZM25.7437 10.0337C26.214 9.46611 26.5892 8.81517 26.844 8.10588L25.9029 7.76776C25.6878 8.36634 25.3711 8.91604 24.9737 9.39555L25.7437 10.0337ZM27.1282 7.02886C27.1905 6.66822 27.223 6.29757 27.223 5.91969H26.223C26.223 6.24022 26.1955 6.55388 26.1428 6.85849L27.1282 7.02886ZM42.3498 57.1213C42.1089 57.1874 41.8675 57.2192 41.6304 57.2201L41.6341 58.2201C41.9586 58.2189 42.2877 58.1752 42.6144 58.0856L42.3498 57.1213ZM40.9115 57.1264C40.4414 57.0001 40.0099 56.7504 39.6639 56.4037L38.9561 57.1102C39.4257 57.5806 40.0116 57.9201 40.6521 58.0922L40.9115 57.1264ZM39.2218 55.8264C39.1031 55.6203 39.0084 55.3949 38.9428 55.1527L37.9775 55.4139C38.0658 55.7399 38.1938 56.0452 38.3552 56.3255L39.2218 55.8264ZM38.9429 55.153L38.6779 54.1708L37.7124 54.4313L37.9775 55.4136L38.9429 55.153ZM38.4128 53.1886L37.8828 51.2241L36.9173 51.4846L37.4474 53.4491L38.4128 53.1886ZM37.6177 50.2418L37.0877 48.2773L36.1222 48.5378L36.6523 50.5023L37.6177 50.2418ZM36.8226 47.2951L36.2926 45.3306L35.3271 45.5911L35.8572 47.5556L36.8226 47.2951ZM36.0275 44.3483L35.4974 42.3838L34.532 42.6444L35.062 44.6088L36.0275 44.3483ZM35.2324 41.4016L34.9674 40.4194L34.0019 40.6799L34.2669 41.6621L35.2324 41.4016ZM34.9674 40.4195C34.9545 40.3716 34.9429 40.3237 34.9326 40.2759L33.955 40.4863C33.9689 40.5508 33.9845 40.6153 34.0019 40.6797L34.9674 40.4195ZM34.9053 40.1308C34.8974 40.0821 34.8908 40.0334 34.8855 39.9847L33.8914 40.0929C33.8986 40.1587 33.9075 40.2246 33.9181 40.2905L34.9053 40.1308ZM34.8837 39.9698C34.859 39.7925 34.851 39.6122 34.8605 39.4314L33.8619 39.3788C33.849 39.6239 33.8598 39.868 33.8933 40.1078L34.8837 39.9698ZM34.9402 38.8988C34.983 38.7273 35.0427 38.557 35.1201 38.3902L34.2131 37.9692C34.1088 38.1939 34.028 38.424 33.9699 38.6567L34.9402 38.8988ZM35.12 38.3904L35.5023 37.5677L34.5954 37.1463L34.2131 37.969L35.12 38.3904ZM35.8846 36.7449L36.6492 35.0994L35.7423 34.678L34.9777 36.3235L35.8846 36.7449ZM37.0315 34.2767L37.7961 32.6312L36.8892 32.2098L36.1246 33.8553L37.0315 34.2767ZM38.1784 31.8085L38.5607 30.9857L37.6538 30.5643L37.2715 31.3871L38.1784 31.8085ZM38.4091 30.3764C38.2084 30.2244 38.0164 30.0548 37.8353 29.8674L37.1163 30.5625C37.3333 30.7869 37.5638 30.9907 37.8054 31.1737L38.4091 30.3764ZM37.8354 29.8676L37.1723 29.181L36.453 29.8757L37.1161 30.5623L37.8354 29.8676ZM36.5092 28.4945L35.183 27.1213L34.4637 27.816L35.7899 29.1892L36.5092 28.4945ZM34.5198 26.4348L33.1936 25.0616L32.4743 25.7564L33.8006 27.1295L34.5198 26.4348ZM32.5305 24.3751L31.2043 23.0019L30.485 23.6967L31.8112 25.0698L32.5305 24.3751ZM30.5412 22.3154L29.2149 20.9423L28.4956 21.637L29.8219 23.0101L30.5412 22.3154ZM28.5518 20.2557L27.8887 19.5691L27.1694 20.2638L27.8325 20.9504L28.5518 20.2557ZM27.0756 19.7058L26.6419 20.6391L27.5487 21.0606L27.9825 20.1272L27.0756 19.7058ZM26.2081 21.5725L25.3406 23.4393L26.2474 23.8607L27.115 21.994L26.2081 21.5725ZM24.9068 24.3727L24.473 25.306L25.3799 25.7275L25.8137 24.7941L24.9068 24.3727ZM24.4729 25.3062C24.428 25.4031 24.375 25.493 24.3153 25.5755L25.1257 26.1614C25.2226 26.0273 25.308 25.8823 25.38 25.7273L24.4729 25.3062ZM24.11 25.808C24.0336 25.8791 23.951 25.9421 23.8634 25.9964L24.3903 26.8463C24.5326 26.7581 24.6671 26.6556 24.7915 26.5398L24.11 25.808ZM23.8198 26.0267C23.7283 26.0979 23.6291 26.1591 23.5239 26.2089L23.9513 27.1129C24.1236 27.0315 24.2852 26.9316 24.4339 26.816L23.8198 26.0267ZM23.1964 26.3214C23.0857 26.3461 22.9702 26.3592 22.8511 26.3592V27.3592C23.044 27.3592 23.2326 27.3379 23.4144 27.2973L23.1964 26.3214ZM22.8511 26.3592H21.8375V27.3592H22.8511V26.3592ZM20.824 26.3592H18.797V27.3592H20.824V26.3592ZM17.7835 26.3592H15.7564V27.3592H17.7835V26.3592ZM14.7429 26.3592H13.7294V27.3592H14.7429V26.3592ZM13.7294 26.3592C13.4384 26.3592 13.167 26.2807 12.9331 26.1437L12.4274 27.0064C12.8102 27.2308 13.2555 27.3592 13.7294 27.3592V26.3592ZM12.3507 25.5534C12.2161 25.3176 12.1388 25.0437 12.1388 24.7497H11.1388C11.1388 25.2216 11.2635 25.6658 11.4821 26.049L12.3507 25.5534ZM12.1388 24.7497C12.1388 24.4557 12.2161 24.1818 12.3507 23.946L11.4821 23.4504C11.2635 23.8336 11.1388 24.2778 11.1388 24.7497H12.1388ZM12.9331 23.3558C13.167 23.2187 13.4384 23.1402 13.7294 23.1402V22.1402C13.2555 22.1402 12.8102 22.2687 12.4274 22.4931L12.9331 23.3558ZM13.7294 23.1402H14.6067V22.1402H13.7294V23.1402ZM15.4839 23.1402H17.2385V22.1402H15.4839V23.1402ZM18.1158 23.1402H19.8703V22.1402H18.1158V23.1402ZM20.7476 23.1402H21.6249V22.1402H20.7476V23.1402ZM22.0783 22.851L22.5332 21.8721L21.6263 21.4507L21.1714 22.4295L22.0783 22.851ZM22.9881 20.8933L23.8978 18.9357L22.991 18.5142L22.0812 20.4719L22.9881 20.8933ZM24.3527 17.9568L25.2625 15.9992L24.3556 15.5778L23.4458 17.5354L24.3527 17.9568ZM25.7174 15.0204L26.1722 14.0416L25.2654 13.6201L24.8105 14.5989L25.7174 15.0204ZM26.1942 13.9857C26.2755 13.736 26.3769 13.4918 26.4983 13.2554L25.6089 12.7984C25.4629 13.0826 25.341 13.3762 25.2434 13.676L26.1942 13.9857ZM26.9149 12.5833C27.0692 12.3739 27.2421 12.1738 27.4337 11.9854L26.7324 11.2724C26.503 11.4982 26.2954 11.7383 26.1098 11.9902L26.9149 12.5833ZM27.4335 11.9855C27.6422 11.7804 27.864 11.5981 28.0958 11.4383L27.5283 10.6149C27.249 10.8074 26.9826 11.0266 26.7326 11.2723L27.4335 11.9855ZM28.8415 11.0159C29.3689 10.7758 29.9296 10.6347 30.4962 10.5924L30.4216 9.59514C29.7393 9.64615 29.0635 9.81614 28.4273 10.1057L28.8415 11.0159ZM31.3538 10.6036C31.9191 10.6607 32.4759 10.8164 32.9969 11.0701L33.4347 10.1711C32.8062 9.86497 32.1351 9.67742 31.4544 9.60862L31.3538 10.6036ZM33.7313 11.5118C33.9589 11.6776 34.1759 11.8657 34.3792 12.0762L35.0984 11.3814C34.8549 11.1293 34.5943 10.9032 34.3201 10.7035L33.7313 11.5118ZM34.3792 12.0762L35.0785 12.8001L35.7978 12.1054L35.0984 11.3814L34.3792 12.0762ZM35.7779 13.5241L37.1766 14.972L37.8958 14.2773L36.4971 12.8293L35.7779 13.5241ZM37.8759 15.696L39.2746 17.1439L39.9938 16.4492L38.5951 15.0012L37.8759 15.696ZM39.9739 17.8679L41.3726 19.3158L42.0919 18.6211L40.6932 17.1731L39.9739 17.8679ZM42.072 20.0398L43.4706 21.4878L44.1899 20.793L42.7912 19.345L42.072 20.0398ZM44.17 22.2117L44.8693 22.9357L45.5886 22.2409L44.8892 21.517L44.17 22.2117ZM44.8693 22.9357C45.0837 23.1576 45.2732 23.3943 45.4379 23.6423L46.2709 23.0892C46.0729 22.7909 45.8454 22.5068 45.5886 22.2409L44.8693 22.9357ZM45.8677 24.4399C46.1073 25.0025 46.239 25.6007 46.2627 26.2028L47.2619 26.1634C47.2335 25.4422 47.0757 24.7243 46.7878 24.0481L45.8677 24.4399ZM46.2167 27.1093C46.1743 27.4084 46.1048 27.704 46.0085 27.9923L46.957 28.3091C47.0727 27.9629 47.1559 27.6082 47.2068 27.2498L46.2167 27.1093ZM45.9955 28.0386C45.9808 28.1025 45.9638 28.1662 45.9444 28.2297L46.9009 28.5216C46.9271 28.4357 46.9501 28.3494 46.97 28.2628L45.9955 28.0386ZM45.88 28.4169C45.8566 28.4781 45.8308 28.539 45.8027 28.5995L46.7096 29.0209C46.7474 28.9396 46.7821 28.8575 46.8138 28.7748L45.88 28.4169ZM45.8027 28.5995L45.3731 29.524L46.2799 29.9455L46.7096 29.021L45.8027 28.5995ZM44.9434 30.4485L44.0841 32.2976L44.991 32.719L45.8503 30.87L44.9434 30.4485ZM43.6545 33.2221L42.7952 35.0711L43.7021 35.4925L44.5614 33.6435L43.6545 33.2221ZM42.3656 35.9956L41.5063 37.8446L42.4132 38.2661L43.2724 36.417L42.3656 35.9956ZM41.0767 38.7691L40.647 39.6937L41.5539 40.1151L41.9835 39.1906L41.0767 38.7691ZM40.6177 40.0346L40.8631 40.944L41.8286 40.6835L41.5832 39.7741L40.6177 40.0346ZM41.1085 41.8534L41.5993 43.6722L42.5648 43.4116L42.074 41.5929L41.1085 41.8534ZM41.8447 44.5816L42.3355 46.4003L43.301 46.1398L42.8102 44.321L41.8447 44.5816ZM42.5809 47.3097L43.0717 49.1285L44.0372 48.868L43.5464 47.0492L42.5809 47.3097ZM43.3171 50.0379L43.8079 51.8567L44.7734 51.5961L44.2826 49.7773L43.3171 50.0379ZM44.0533 52.766L44.2987 53.6754L45.2642 53.4149L45.0188 52.5055L44.0533 52.766ZM44.2988 53.6757C44.3644 53.9184 44.3964 54.1617 44.3977 54.4008L45.3977 54.395C45.3958 54.0705 45.3525 53.7414 45.2641 53.4147L44.2988 53.6757ZM44.3069 55.1258C44.1829 55.6021 43.9364 56.0387 43.5945 56.3885L44.3097 57.0874C44.7737 56.6126 45.107 56.0218 45.2747 55.3777L44.3069 55.1258ZM43.0212 56.8379C42.8159 56.9588 42.5912 57.055 42.3498 57.1213L42.6144 58.0856C42.9418 57.9958 43.248 57.8648 43.5286 57.6996L43.0212 56.8379Z" fill="#616161"/>
</g>
<defs>
<linearGradient id="paint0_linear_1706_15286" x1="13.7966" y1="33.8551" x2="25.7551" y2="39.7578" gradientUnits="userSpaceOnUse">
<stop stop-color="#FF8120"/>
<stop offset="1" stop-color="#E54304"/>
</linearGradient>
<clipPath id="clip0_1706_15286">
<rect width="58" height="58" fill="white"/>
</clipPath>
</defs>
</svg>
