<svg width="58" height="58" viewBox="0 0 58 58" fill="none" xmlns="http://www.w3.org/2000/svg">
<g clip-path="url(#clip0_1706_15280)">
<path d="M29.4323 26.8161H29.9323V26.3161H29.4323V26.8161ZM29.4425 31.0641L29.4613 31.5637L29.9724 31.5446L29.9416 31.034L29.4425 31.0641ZM17.7143 31.504L17.6956 31.0044L17.6953 31.0044L17.7143 31.504ZM17.1165 31.5951L17.1896 32.0897L17.2189 32.0854L17.2475 32.0776L17.1165 31.5951ZM15.2901 32.7466L14.8764 32.4658L14.8763 32.4659L15.2901 32.7466ZM7.47254 44.2726L7.05874 43.9919L7.05865 43.9921L7.47254 44.2726ZM8.16551 48.0546L7.88007 48.4651L7.88019 48.4652L8.16551 48.0546ZM11.8979 47.3527L12.3117 47.6335L12.3118 47.6333L11.8979 47.3527ZM18.9875 36.8985L18.9688 36.3989L18.7158 36.4083L18.5737 36.6179L18.9875 36.8985ZM34.7849 36.3059L34.7664 35.8062L34.7661 35.8063L34.7849 36.3059ZM35.3862 36.2144L35.3394 35.7166L35.2964 35.7206L35.2547 35.732L35.3862 36.2144ZM29.4323 22.9025V23.4025H29.9323V22.9025H29.4323ZM34.7329 9.11627C34.4795 9.11627 34.2317 9.09379 33.9912 9.0508L33.8152 10.0352C34.1135 10.0885 34.4203 10.1163 34.7329 10.1163V9.11627ZM33.2741 8.85525C32.8042 8.68073 32.3725 8.42399 31.9962 8.10165L31.3456 8.86111C31.8096 9.25854 32.3432 9.57628 32.9259 9.79269L33.2741 8.85525ZM31.4737 7.56892C31.1598 7.18785 30.9097 6.75108 30.7399 6.27547L29.7981 6.61172C30.0073 7.19766 30.3154 7.73553 30.7019 8.20472L31.4737 7.56892ZM30.5506 5.55356C30.5091 5.31176 30.4873 5.06272 30.4873 4.80814H29.4873C29.4873 5.1197 29.5139 5.42538 29.565 5.72288L30.5506 5.55356ZM30.4873 4.80814C30.4873 4.55355 30.5091 4.30451 30.5506 4.06272L29.565 3.89339C29.5139 4.19089 29.4873 4.49657 29.4873 4.80814H30.4873ZM30.7399 3.3408C30.9097 2.86519 31.1598 2.42842 31.4737 2.04735L30.7019 1.41155C30.3154 1.88074 30.0073 2.41861 29.7981 3.00455L30.7399 3.3408ZM31.9962 1.51462C32.3725 1.19228 32.8042 0.935544 33.2741 0.76102L32.9259 -0.17642C32.3432 0.039988 31.8096 0.35773 31.3456 0.75516L31.9962 1.51462ZM33.9912 0.565474C34.2317 0.522482 34.4795 0.5 34.7329 0.5V-0.5C34.4203 -0.5 34.1135 -0.472247 33.8152 -0.418927L33.9912 0.565474ZM34.7329 0.5C34.9864 0.5 35.2343 0.522469 35.4749 0.565435L35.6507 -0.418992C35.3524 -0.47227 35.0457 -0.5 34.7329 -0.5V0.5ZM36.1922 0.76089C36.6624 0.935364 37.0942 1.19204 37.4706 1.51431L38.121 0.754689C37.6569 0.357343 37.1231 0.0396908 36.5402 -0.176633L36.1922 0.76089ZM37.9933 2.04701C38.3073 2.4281 38.5576 2.8649 38.7274 3.34056L39.6692 3.00423C39.4599 2.41821 39.1517 1.88027 38.765 1.41106L37.9933 2.04701ZM38.9168 4.06259C38.9584 4.30442 38.9801 4.5535 38.9801 4.80814H39.9801C39.9801 4.49652 39.9535 4.19078 39.9024 3.89323L38.9168 4.06259ZM38.9801 4.80814C38.9801 5.06277 38.9584 5.31185 38.9168 5.55369L39.9024 5.72304C39.9535 5.42549 39.9801 5.11975 39.9801 4.80814H38.9801ZM38.7274 6.27571C38.5576 6.75137 38.3073 7.18818 37.9933 7.56926L38.765 8.20521C39.1517 7.736 39.4599 7.19806 39.6692 6.61204L38.7274 6.27571ZM37.4706 8.10196C37.0942 8.42423 36.6624 8.68091 36.1922 8.85538L36.5402 9.7929C37.1231 9.57658 37.6569 9.25893 38.121 8.86158L37.4706 8.10196ZM35.4749 9.05084C35.2343 9.0938 34.9864 9.11627 34.7329 9.11627V10.1163C35.0457 10.1163 35.3524 10.0885 35.6507 10.0353L35.4749 9.05084ZM23.1953 24.8593C23.1953 24.5931 23.2649 24.3453 23.3859 24.1321L22.5162 23.6385C22.3118 23.9988 22.1953 24.4162 22.1953 24.8593H23.1953ZM23.9104 23.5977C24.121 23.4735 24.3653 23.4025 24.6272 23.4025V22.4025C24.1813 22.4025 23.7623 22.5241 23.4025 22.7363L23.9104 23.5977ZM24.6272 23.4025H25.4281V22.4025H24.6272V23.4025ZM26.2289 23.4025H27.8306V22.4025H26.2289V23.4025ZM28.6315 23.4025H29.4323V22.4025H28.6315V23.4025ZM29.9323 22.9025V21.8554H28.9323V22.9025H29.9323ZM29.9323 20.8084V18.7143H28.9323V20.8084H29.9323ZM29.9323 17.6673V16.6202H28.9323V17.6673H29.9323ZM29.9323 16.6202C29.9323 16.324 29.9576 16.0341 30.006 15.7527L29.0204 15.5833C28.9625 15.9205 28.9323 16.267 28.9323 16.6202H29.9323ZM30.2264 14.9123C30.4241 14.3586 30.7154 13.8502 31.0809 13.4067L30.3092 12.7707C29.8711 13.3024 29.5218 13.9119 29.2847 14.5759L30.2264 14.9123ZM31.6893 12.7866C32.1275 12.4114 32.6303 12.1125 33.1778 11.9094L32.8298 10.9718C32.1696 11.2169 31.5648 11.5767 31.039 12.027L31.6893 12.7866ZM34.0131 11.6817C34.2933 11.6317 34.582 11.6055 34.8771 11.6055V10.6055C34.5228 10.6055 34.1753 10.6369 33.8373 10.6973L34.0131 11.6817ZM34.8771 11.6055C35.1722 11.6055 35.4608 11.6317 35.741 11.6817L35.9168 10.6973C35.5789 10.6369 35.2314 10.6055 34.8771 10.6055V11.6055ZM36.5764 11.9094C37.1239 12.1125 37.6267 12.4114 38.0648 12.7866L38.7152 12.027C38.1894 11.5767 37.5846 11.2169 36.9243 10.9718L36.5764 11.9094ZM38.6732 13.4067C39.0387 13.8502 39.33 14.3586 39.5278 14.9123L40.4695 14.5759C40.2323 13.9119 39.8831 13.3024 39.4449 12.7707L38.6732 13.4067ZM39.7482 15.7527C39.7966 16.0341 39.8218 16.324 39.8218 16.6202H40.8218C40.8218 16.267 40.7917 15.9205 40.7337 15.5833L39.7482 15.7527ZM39.8218 16.6202V17.5604H40.8218V16.6202H39.8218ZM39.8218 18.5006V20.3811H40.8218V18.5006H39.8218ZM39.8218 21.3213V23.2017H40.8218V21.3213H39.8218ZM39.8218 24.1419V26.0224H40.8218V24.1419H39.8218ZM39.8218 26.9626V28.843H40.8218V26.9626H39.8218ZM39.8218 29.7832V30.7235H40.8218V29.7832H39.8218ZM39.8218 30.7235C39.8218 31.0019 39.7995 31.2746 39.7567 31.5401L40.7439 31.6994C40.7952 31.3815 40.8218 31.0554 40.8218 30.7235H39.8218ZM39.5614 32.334C39.3861 32.8587 39.1273 33.3446 38.801 33.7753L39.5981 34.3791C39.9892 33.8628 40.2996 33.2803 40.5099 32.651L39.5614 32.334ZM38.256 34.3847C37.8615 34.7593 37.4067 35.0689 36.9086 35.2968L37.3248 36.2061C37.9249 35.9315 38.4714 35.5592 38.9446 35.1098L38.256 34.3847ZM36.1419 35.5727C35.8823 35.6422 35.6142 35.6908 35.3394 35.7166L35.433 36.7122C35.7639 36.6811 36.0871 36.6225 36.4003 36.5388L36.1419 35.5727ZM35.2547 35.732C35.202 35.7463 35.1485 35.7587 35.0943 35.7691L35.2823 36.7513C35.3619 36.7361 35.4404 36.7178 35.5177 36.6968L35.2547 35.732ZM34.9312 35.7939C34.877 35.8 34.822 35.8042 34.7664 35.8062L34.8033 36.8056C34.8842 36.8026 34.9644 36.7965 35.0437 36.7876L34.9312 35.7939ZM34.7661 35.8063L33.713 35.8458L33.7505 36.8451L34.8036 36.8056L34.7661 35.8063ZM32.6598 35.8853L30.5535 35.9643L30.591 36.9636L32.6973 36.8846L32.6598 35.8853ZM29.5003 36.0038L27.394 36.0828L27.4315 37.0821L29.5378 37.0031L29.5003 36.0038ZM26.3409 36.1223L24.2346 36.2013L24.2721 37.2006L26.3784 37.1216L26.3409 36.1223ZM23.1814 36.2408L21.0751 36.3198L21.1126 37.3191L23.2189 37.2401L23.1814 36.2408ZM20.022 36.3594L18.9688 36.3989L19.0063 37.3982L20.0594 37.3586L20.022 36.3594ZM18.5737 36.6179L17.9829 37.4891L18.8106 38.0503L19.4014 37.1791L18.5737 36.6179ZM17.3921 38.3602L16.2105 40.1026L17.0382 40.6639L18.2198 38.9215L17.3921 38.3602ZM15.6197 40.9738L14.4381 42.7161L15.2658 43.2774L16.4474 41.535L15.6197 40.9738ZM13.8473 43.5873L12.6657 45.3297L13.4934 45.891L14.675 44.1486L13.8473 43.5873ZM12.0749 46.2009L11.4841 47.0721L12.3118 47.6333L12.9026 46.7621L12.0749 46.2009ZM11.4842 47.0719C11.2583 47.4049 10.9604 47.6542 10.6275 47.8153L11.0632 48.7154C11.551 48.4793 11.9852 48.1145 12.3117 47.6335L11.4842 47.0719ZM9.51559 48.0256C9.14682 47.9969 8.77983 47.8726 8.45083 47.644L7.88019 48.4652C8.35825 48.7974 8.89614 48.9804 9.43797 49.0226L9.51559 48.0256ZM8.45094 47.644C8.1208 47.4145 7.87272 47.1105 7.71268 46.7689L6.80713 47.1931C7.03941 47.6889 7.40074 48.1318 7.88007 48.4651L8.45094 47.644ZM7.50672 45.6372C7.53585 45.2609 7.65989 44.8874 7.88643 44.5531L7.05865 43.9921C6.73175 44.4744 6.55185 45.0157 6.50971 45.56L7.50672 45.6372ZM7.88634 44.5533L8.40751 43.7849L7.57991 43.2235L7.05874 43.9919L7.88634 44.5533ZM8.92868 43.0165L9.97102 41.4797L9.14342 40.9183L8.10108 42.4551L8.92868 43.0165ZM10.4922 40.7112L11.5345 39.1744L10.7069 38.6131L9.66459 40.1499L10.4922 40.7112ZM12.0557 38.406L13.098 36.8692L12.2704 36.3079L11.2281 37.8447L12.0557 38.406ZM13.6192 36.1008L14.6616 34.564L13.834 34.0027L12.7916 35.5395L13.6192 36.1008ZM15.1827 33.7956L15.7039 33.0272L14.8763 32.4659L14.3551 33.2343L15.1827 33.7956ZM15.7038 33.0273C15.8207 32.8551 15.9566 32.7055 16.1063 32.5789L15.4607 31.8152C15.2419 32.0002 15.0447 32.2177 14.8764 32.4658L15.7038 33.0273ZM16.6137 32.2587C16.7975 32.1757 16.9915 32.119 17.1896 32.0897L17.0434 31.1005C16.754 31.1432 16.4707 31.2261 16.2022 31.3473L16.6137 32.2587ZM17.2475 32.0776C17.2999 32.0634 17.3532 32.0511 17.4072 32.0407L17.2193 31.0585C17.1403 31.0737 17.0622 31.0917 16.9854 31.1126L17.2475 32.0776ZM17.5693 32.0161C17.6233 32.0099 17.678 32.0058 17.7333 32.0037L17.6953 31.0044C17.6149 31.0075 17.5353 31.0135 17.4565 31.0225L17.5693 32.0161ZM17.7331 32.0037L18.7104 31.967L18.6729 30.9677L17.6956 31.0044L17.7331 32.0037ZM19.6878 31.9304L21.6425 31.857L21.605 30.8577L19.6503 30.9311L19.6878 31.9304ZM22.6198 31.8204L24.5745 31.747L24.537 30.7477L22.5823 30.8211L22.6198 31.8204ZM25.5519 31.7104L27.5066 31.6371L27.4691 30.6378L25.5144 30.7111L25.5519 31.7104ZM28.4839 31.6004L29.4613 31.5637L29.4238 30.5644L28.4465 30.6011L28.4839 31.6004ZM29.9416 31.034C29.9355 30.9314 29.9323 30.8278 29.9323 30.7235H28.9323C28.9323 30.8479 28.9361 30.9715 28.9434 31.0941L29.9416 31.034ZM29.9323 30.7235V29.421H28.9323V30.7235H29.9323ZM29.9323 28.1185V26.8161H28.9323V28.1185H29.9323ZM29.4323 26.3161H28.6315V27.3161H29.4323V26.3161ZM27.8306 26.3161H26.2289V27.3161H27.8306V26.3161ZM25.4281 26.3161H24.6272V27.3161H25.4281V26.3161ZM24.6272 26.3161C24.3653 26.3161 24.121 26.245 23.9104 26.1208L23.4025 26.9823C23.7623 27.1944 24.1813 27.3161 24.6272 27.3161V26.3161ZM23.3859 25.5865C23.2649 25.3732 23.1953 25.1254 23.1953 24.8593H22.1953C22.1953 25.3024 22.3118 25.7197 22.5162 26.08L23.3859 25.5865Z" fill="#616161"/>
<path fill-rule="evenodd" clip-rule="evenodd" d="M46.7273 41.2258C46.7279 41.2474 46.7282 41.2691 46.7282 41.2908C46.7282 41.6653 46.6432 42.0196 46.4918 42.3351C46.4945 42.343 46.4971 42.351 46.4997 42.359L50.8323 55.7243C51.1278 56.6345 50.639 57.6137 49.7403 57.913C48.8416 58.2122 47.8748 57.7171 47.5794 56.8069L43.3251 43.6816H23.4406L19.1864 56.8067C18.8909 57.7169 17.9242 58.212 17.0255 57.9128C16.1268 57.6135 15.638 56.6344 15.9335 55.7241L19.8373 43.6816H19.8199C18.516 43.6816 17.4595 42.6115 17.4595 41.2908C17.4595 39.9717 18.516 38.9016 19.8199 38.9016H22.1746L24.1252 32.4248H21.5879C20.6057 32.4248 19.8091 31.6179 19.8091 30.6215C19.8091 29.6267 20.6057 28.8199 21.5879 28.8199H44.2768L46.9637 13.3508C47.1818 12.1022 48.3574 11.2671 49.5902 11.4865C50.8246 11.7074 51.6474 12.898 51.4309 14.1467L46.7273 41.2258ZM25.0601 38.9016L27.0095 32.4248H43.6506L42.5256 38.9016H25.0601Z" fill="url(#paint0_linear_1706_15280)"/>
</g>
<defs>
<linearGradient id="paint0_linear_1706_15280" x1="25.8649" y1="19.6945" x2="49.6254" y2="46.1757" gradientUnits="userSpaceOnUse">
<stop stop-color="#FF8120"/>
<stop offset="1" stop-color="#E54304"/>
</linearGradient>
<clipPath id="clip0_1706_15280">
<rect width="58" height="58" fill="white"/>
</clipPath>
</defs>
</svg>
