<svg width="58" height="58" viewBox="0 0 58 58" fill="none" xmlns="http://www.w3.org/2000/svg">
<g clip-path="url(#clip0_1706_15279)">
<path d="M29.6153 31.3272V31.8272H30.1378L30.1148 31.3052L29.6153 31.3272ZM17.7619 32.5944L18.1307 32.932L18.1597 32.9003L18.1829 32.8642L17.7619 32.5944ZM17.5999 32.7884L17.9978 33.0912L17.9979 33.0911L17.5999 32.7884ZM8.5581 44.6737L8.16017 44.371L8.16011 44.371L8.5581 44.6737ZM9.08865 48.5107L9.39018 48.1118L9.38994 48.1116L9.08865 48.5107ZM12.9377 47.982L12.5398 47.6793L12.5397 47.6793L12.9377 47.982ZM21.4414 36.8041V36.3041H21.1935L21.0434 36.5013L21.4414 36.8041ZM35.7225 36.7208L35.6853 36.2222L35.6422 36.2254L35.6004 36.2359L35.7225 36.7208ZM29.6097 24.2554V24.7554H30.1097V24.2554H29.6097ZM29.6097 28.1104H30.1097V27.6104H29.6097V28.1104ZM40.5428 4.73703C40.5428 4.26792 40.4808 3.81248 40.3643 3.37875L39.3985 3.63825C39.4925 3.98812 39.5428 4.35634 39.5428 4.73703H40.5428ZM39.837 2.11356C39.3751 1.31929 38.71 0.657632 37.9125 0.198711L37.4138 1.06544C38.0599 1.43726 38.5988 1.97354 38.9726 2.61633L39.837 2.11356ZM36.6462 -0.323468C36.2127 -0.438717 35.7576 -0.5 35.2889 -0.5V0.5C35.6702 0.5 36.0389 0.549807 36.3893 0.642964L36.6462 -0.323468ZM35.2889 -0.5C34.8202 -0.5 34.3651 -0.438763 33.9315 -0.323593L34.1883 0.642888C34.5388 0.549782 34.9076 0.5 35.2889 0.5V-0.5ZM32.6649 0.198364C31.8671 0.657212 31.2018 1.31884 30.7397 2.11313L31.604 2.61603C31.978 1.97325 32.5171 1.437 33.1635 1.06522L32.6649 0.198364ZM30.2122 3.37851C30.0956 3.81231 30.0336 4.26783 30.0336 4.73703H31.0336C31.0336 4.35627 31.0839 3.98799 31.1779 3.63806L30.2122 3.37851ZM30.0336 4.73703C30.0336 5.20624 30.0956 5.66176 30.2122 6.09556L31.1779 5.836C31.0839 5.48608 31.0336 5.1178 31.0336 4.73703H30.0336ZM30.7397 7.36094C31.2018 8.15523 31.8671 8.81686 32.6649 9.27571L33.1635 8.40885C32.5171 8.03707 31.978 7.50082 31.604 6.85804L30.7397 7.36094ZM33.9315 9.79766C34.3651 9.91283 34.8202 9.97407 35.2889 9.97407V8.97407C34.9076 8.97407 34.5388 8.92429 34.1883 8.83118L33.9315 9.79766ZM35.2889 9.97407C35.7576 9.97407 36.2127 9.91279 36.6462 9.79754L36.3893 8.83111C36.0389 8.92426 35.6702 8.97407 35.2889 8.97407V9.97407ZM37.9125 9.27536C38.71 8.81644 39.3751 8.15478 39.837 7.36051L38.9726 6.85774C38.5988 7.50053 38.0599 8.03681 37.4138 8.40863L37.9125 9.27536ZM40.3643 6.09532C40.4808 5.66159 40.5428 5.20615 40.5428 4.73703H39.5428C39.5428 5.11773 39.4925 5.48595 39.3985 5.83582L40.3643 6.09532ZM29.6153 30.8272H28.5559V31.8272H29.6153V30.8272ZM27.4965 30.8272H25.3777V31.8272H27.4965V30.8272ZM24.3183 30.8272H22.1995V31.8272H24.3183V30.8272ZM21.1401 30.8272H20.0807V31.8272H21.1401V30.8272ZM20.0807 30.8272C19.7083 30.8272 19.3496 30.8899 19.0152 31.0056L19.3422 31.9506C19.5728 31.8708 19.8211 31.8272 20.0807 31.8272V30.8272ZM18.0669 31.5244C17.7826 31.7484 17.5368 32.0189 17.3409 32.3246L18.1829 32.8642C18.3184 32.6527 18.4887 32.4652 18.6859 32.3097L18.0669 31.5244ZM17.3931 32.2568C17.3707 32.2812 17.3487 32.306 17.327 32.3312L18.0849 32.9836C18.0999 32.9661 18.1152 32.9489 18.1307 32.932L17.3931 32.2568ZM17.2633 32.4076C17.2425 32.4333 17.222 32.4593 17.2019 32.4858L17.9979 33.0911C18.0119 33.0727 18.0261 33.0545 18.0406 33.0367L17.2633 32.4076ZM17.202 32.4857L16.5992 33.2781L17.395 33.8835L17.9978 33.0912L17.202 32.4857ZM15.9964 34.0704L14.7908 35.6551L15.5867 36.2606L16.7923 34.6759L15.9964 34.0704ZM14.188 36.4475L12.9825 38.0322L13.7783 38.6376L14.9839 37.0529L14.188 36.4475ZM12.3797 38.8245L11.1741 40.4092L11.97 41.0147L13.1755 39.43L12.3797 38.8245ZM10.5713 41.2016L9.36574 42.7863L10.1616 43.3917L11.3672 41.807L10.5713 41.2016ZM8.76295 43.5786L8.16017 44.371L8.95604 44.9764L9.55883 44.1841L8.76295 43.5786ZM8.16011 44.371C7.80296 44.8407 7.59334 45.3776 7.52495 45.9248L8.51723 46.0489C8.56431 45.6721 8.70835 45.3022 8.9561 44.9764L8.16011 44.371ZM7.75505 47.5867C7.96938 48.0944 8.31662 48.5542 8.78735 48.9097L9.38994 48.1116C9.06304 47.8648 8.82397 47.5476 8.67634 47.1978L7.75505 47.5867ZM8.78711 48.9095C9.25781 49.2654 9.79587 49.474 10.3439 49.542L10.4671 48.5496C10.0884 48.5026 9.71684 48.3588 9.39018 48.1118L8.78711 48.9095ZM12.007 49.3137C12.5166 49.1004 12.9785 48.7544 13.3357 48.2846L12.5397 47.6793C12.2919 48.0052 11.973 48.2439 11.6209 48.3912L12.007 49.3137ZM13.3357 48.2847L13.9026 47.5395L13.1067 46.9341L12.5398 47.6793L13.3357 48.2847ZM14.4695 46.7943L15.6033 45.3039L14.8074 44.6985L13.6736 46.1889L14.4695 46.7943ZM16.1702 44.5588L17.304 43.0684L16.5082 42.4629L15.3743 43.9533L16.1702 44.5588ZM17.8709 42.3232L19.0048 40.8328L18.2089 40.2273L17.0751 41.7177L17.8709 42.3232ZM19.5717 40.0876L20.7055 38.5972L19.9096 37.9917L18.7758 39.4821L19.5717 40.0876ZM21.2724 37.852L21.8393 37.1068L21.0434 36.5013L20.4765 37.2465L21.2724 37.852ZM21.4414 37.3041H22.3484V36.3041H21.4414V37.3041ZM23.2555 37.3041H25.0696V36.3041H23.2555V37.3041ZM25.9766 37.3041H27.7907V36.3041H25.9766V37.3041ZM28.6978 37.3041H30.5119V36.3041H28.6978V37.3041ZM31.4189 37.3041H33.233V36.3041H31.4189V37.3041ZM34.1401 37.3041H35.0471V36.3041H34.1401V37.3041ZM35.0471 37.3041C35.1372 37.3041 35.2265 37.3004 35.3149 37.2932L35.2337 36.2965C35.1722 36.3015 35.11 36.3041 35.0471 36.3041V37.3041ZM35.5814 37.2604C35.6703 37.2457 35.7581 37.2274 35.8445 37.2057L35.6004 36.2359C35.5407 36.2509 35.48 36.2636 35.4184 36.2738L35.5814 37.2604ZM35.7597 37.2194C36.1053 37.1936 36.4434 37.1395 36.7713 37.0592L36.5335 36.0879C36.2589 36.1551 35.9755 36.2005 35.6853 36.2222L35.7597 37.2194ZM37.7424 36.7337C38.3765 36.4606 38.9553 36.085 39.4579 35.628L38.7852 34.8881C38.3634 35.2716 37.878 35.5865 37.3469 35.8153L37.7424 36.7337ZM40.156 34.8791C40.5761 34.3463 40.9103 33.7424 41.1372 33.0882L40.1924 32.7605C40.0027 33.3075 39.723 33.8132 39.3707 34.2599L40.156 34.8791ZM41.3905 32.0951C41.4462 31.7627 41.4751 31.4216 41.4751 31.0742H40.4751C40.4751 31.3661 40.4508 31.6519 40.4043 31.93L41.3905 32.0951ZM41.4751 31.0742V30.1215H40.4751V31.0742H41.4751ZM41.4751 29.1688V27.2634H40.4751V29.1688H41.4751ZM41.4751 26.3107V24.4053H40.4751V26.3107H41.4751ZM41.4751 23.4526V21.5472H40.4751V23.4526H41.4751ZM41.4751 20.5945V18.6891H40.4751V20.5945H41.4751ZM41.4751 17.7364V16.7837H40.4751V17.7364H41.4751ZM41.4751 16.7837C41.4751 16.4184 41.4431 16.06 41.3817 15.7115L40.3969 15.885C40.4482 16.1765 40.4751 16.4768 40.4751 16.7837H41.4751ZM41.1022 14.6716C40.8522 13.9886 40.4847 13.3626 40.0244 12.8175L39.2604 13.4627C39.6465 13.9199 39.9541 14.4443 40.1631 15.0153L41.1022 14.6716ZM39.2619 12.059C38.7152 11.6022 38.0878 11.2378 37.4037 10.99L37.0632 11.9302C37.636 12.1377 38.162 12.4431 38.6207 12.8264L39.2619 12.059ZM36.3638 10.7134C36.0155 10.6527 35.6574 10.6211 35.2924 10.6211V11.6211C35.5996 11.6211 35.9002 11.6477 36.1921 11.6986L36.3638 10.7134ZM35.2924 10.6211C34.9274 10.6211 34.5693 10.6527 34.221 10.7134L34.3927 11.6986C34.6845 11.6477 34.9852 11.6211 35.2924 11.6211V10.6211ZM33.1811 10.99C32.497 11.2378 31.8696 11.6022 31.3229 12.059L31.9641 12.8264C32.4228 12.4431 32.9488 12.1377 33.5216 11.9302L33.1811 10.99ZM30.5604 12.8175C30.1001 13.3626 29.7326 13.9886 29.4826 14.6716L30.4217 15.0153C30.6307 14.4443 30.9383 13.9199 31.3244 13.4627L30.5604 12.8175ZM29.2031 15.7115C29.1417 16.06 29.1097 16.4184 29.1097 16.7837H30.1097C30.1097 16.4768 30.1366 16.1765 30.1879 15.885L29.2031 15.7115ZM29.1097 16.7837V18.029H30.1097V16.7837H29.1097ZM29.1097 19.2743V21.7649H30.1097V19.2743H29.1097ZM29.1097 23.0101V24.2554H30.1097V23.0101H29.1097ZM29.6097 23.7554H28.8346V24.7554H29.6097V23.7554ZM28.0595 23.7554H26.5094V24.7554H28.0595V23.7554ZM25.7343 23.7554H24.9592V24.7554H25.7343V23.7554ZM24.9592 23.7554C24.5175 23.7554 24.1019 23.8731 23.7437 24.0792L24.2424 24.9459C24.4527 24.8249 24.697 24.7554 24.9592 24.7554V23.7554ZM22.8522 24.9663C22.6439 25.3244 22.5249 25.7405 22.5249 26.1829H23.5249C23.5249 25.9218 23.5948 25.6786 23.7166 25.469L22.8522 24.9663ZM22.5249 26.1829C22.5249 26.6253 22.6439 27.0414 22.8522 27.3995L23.7166 26.8968C23.5948 26.6872 23.5249 26.444 23.5249 26.1829H22.5249ZM23.7437 28.2866C24.1019 28.4927 24.5175 28.6104 24.9592 28.6104V27.6104C24.697 27.6104 24.4527 27.5409 24.2424 27.4199L23.7437 28.2866ZM24.9592 28.6104H25.7343V27.6104H24.9592V28.6104ZM26.5094 28.6104H28.0595V27.6104H26.5094V28.6104ZM28.8346 28.6104H29.6097V27.6104H28.8346V28.6104ZM29.1097 28.1104V29.0983H30.1097V28.1104H29.1097ZM29.1097 30.0862V31.0742H30.1097V30.0862H29.1097ZM29.1097 31.0742C29.1097 31.1663 29.1118 31.258 29.1158 31.3493L30.1148 31.3052C30.1114 31.2286 30.1097 31.1516 30.1097 31.0742H29.1097Z" fill="#616161"/>
<path fill-rule="evenodd" clip-rule="evenodd" d="M42.4559 38.5104L43.1035 32.3731H27.364V38.5104H42.4559ZM24.4558 38.5104V31.1263C24.4558 31.0318 24.4649 30.9394 24.4822 30.8499C24.5207 30.0843 25.156 29.4752 25.9353 29.4752H43.4092L44.8057 16.239C44.9349 15.0079 46.0411 14.1153 47.275 14.2456C48.5105 14.3744 49.4062 15.4767 49.2755 16.7062L46.6806 41.3169C46.6769 41.4702 46.6607 41.6204 46.6328 41.7664C46.6276 41.8077 46.6214 41.8486 46.614 41.8891V56.55C46.614 57.3498 45.9633 57.9997 45.1592 57.9997C44.3566 57.9997 43.7058 57.3498 43.7058 56.55V43.9903H25.4333V56.5502C25.4333 57.35 24.7825 58 23.98 58C23.1759 58 22.5251 57.35 22.5251 56.5502V43.7381C21.5832 43.3036 20.9297 42.3533 20.9297 41.2511C20.9297 39.737 22.1606 38.5104 23.6786 38.5104H24.4558ZM38.1617 50.9589H30.8859C29.3799 50.9589 28.0543 49.969 27.632 48.5267L27.2562 46.5588C27.1059 46.0466 27.4922 45.5329 28.0288 45.5329H41.0188C41.5554 45.5329 41.9416 46.0466 41.7913 46.5588L41.4156 48.5267C40.9933 49.969 39.6677 50.9589 38.1617 50.9589Z" fill="url(#paint0_linear_1706_15279)"/>
</g>
<defs>
<linearGradient id="paint0_linear_1706_15279" x1="28.9055" y1="21.9834" x2="51.3399" y2="43.1557" gradientUnits="userSpaceOnUse">
<stop stop-color="#FF8120"/>
<stop offset="1" stop-color="#E54304"/>
</linearGradient>
<clipPath id="clip0_1706_15279">
<rect width="58" height="58" fill="white"/>
</clipPath>
</defs>
</svg>
