<svg width="58" height="58" viewBox="0 0 58 58" fill="none" xmlns="http://www.w3.org/2000/svg">
<path d="M45.01 24.9251L44.51 24.9136V24.9251H45.01ZM45.01 24.8147H44.5099L44.5101 24.8262L45.01 24.8147ZM45.01 22.6968L44.51 22.686V22.6968H45.01ZM24.3827 22.4991V22.9991H24.8532L24.8817 22.5294L24.3827 22.4991ZM45.0093 24.9508V24.4508H44.5258L44.5096 24.9341L45.0093 24.9508ZM45.01 24.9508V25.4508H45.51V24.9508H45.01ZM54.0465 23.6223C54.0465 23.254 53.998 22.8962 53.9069 22.5553L52.9408 22.8136C53.0096 23.071 53.0465 23.342 53.0465 23.6223H54.0465ZM53.4944 21.5605C53.1326 20.9352 52.6114 20.4139 51.986 20.052L51.4852 20.9176C51.9592 21.1918 52.3546 21.5873 52.6289 22.0613L53.4944 21.5605ZM50.9911 19.6395C50.6503 19.5484 50.2925 19.5 49.9242 19.5V20.5C50.2045 20.5 50.4755 20.5368 50.7329 20.6056L50.9911 19.6395ZM49.9242 19.5C49.5559 19.5 49.1981 19.5485 48.8573 19.6397L49.1158 20.6057C49.3731 20.5368 49.6439 20.5 49.9242 20.5V19.5ZM47.8627 20.0524C47.2377 20.4143 46.7167 20.9356 46.3551 21.5609L47.2207 22.0616C47.4949 21.5876 47.8901 21.1921 48.3638 20.9177L47.8627 20.0524ZM45.9428 22.5556C45.8517 22.8964 45.8033 23.2541 45.8033 23.6223H46.8033C46.8033 23.3421 46.8401 23.0711 46.9089 22.8138L45.9428 22.5556ZM45.8033 23.6223C45.8033 23.9905 45.8517 24.3482 45.9428 24.6889L46.9089 24.4307C46.8401 24.1734 46.8033 23.9025 46.8033 23.6223H45.8033ZM46.3551 25.6834C46.7168 26.3086 47.2379 26.8296 47.8631 27.1913L48.3639 26.3258C47.8901 26.0517 47.4948 25.6564 47.2207 25.1826L46.3551 25.6834ZM48.8576 27.6036C49.1983 27.6947 49.556 27.7431 49.9242 27.7431V26.7431C49.6439 26.7431 49.3731 26.7063 49.1158 26.6376L48.8576 27.6036ZM49.9242 27.7431C50.2924 27.7431 50.6501 27.6948 50.9909 27.6038L50.7329 26.6376C50.4755 26.7063 50.2045 26.7431 49.9242 26.7431V27.7431ZM51.9857 27.1917C52.6112 26.8301 53.1325 26.309 53.4943 25.6838L52.6289 25.1829C52.3547 25.6566 51.9592 26.0519 51.4851 26.326L51.9857 27.1917ZM53.9069 24.6892C53.998 24.3483 54.0465 23.9906 54.0465 23.6223H53.0465C53.0465 23.9026 53.0096 24.1735 52.9408 24.4308L53.9069 24.6892ZM44.51 24.9251V24.9337H45.51V24.9251H44.51ZM44.51 24.9422V24.9508H45.51V24.9422H44.51ZM45.01 24.4508H45.0098V25.4508H45.01V24.4508ZM45.0095 24.4508H45.0093V25.4508H45.0095V24.4508ZM44.5096 24.9341C44.4984 25.2663 44.4009 25.5757 44.2388 25.8417L45.0928 26.3621C45.342 25.9531 45.4919 25.4767 45.509 24.9676L44.5096 24.9341ZM43.5565 26.5012C43.2861 26.6536 42.9739 26.7407 42.6398 26.7407V27.7407C43.1503 27.7407 43.631 27.6071 44.0474 27.3724L43.5565 26.5012ZM42.6398 26.7407H41.6503V27.7407H42.6398V26.7407ZM40.6607 26.7407H38.6816V27.7407H40.6607V26.7407ZM37.6921 26.7407H35.713V27.7407H37.6921V26.7407ZM34.7235 26.7407H32.7444V27.7407H34.7235V26.7407ZM31.7549 26.7407H29.7758V27.7407H31.7549V26.7407ZM28.7863 26.7407H26.8072V27.7407H28.7863V26.7407ZM25.8177 26.7407H23.8386V27.7407H25.8177V26.7407ZM22.8491 26.7407H20.87V27.7407H22.8491V26.7407ZM19.8804 26.7407H17.9014V27.7407H19.8804V26.7407ZM16.9118 26.7407H14.9328V27.7407H16.9118V26.7407ZM13.9432 26.7407H11.9641V27.7407H13.9432V26.7407ZM10.9746 26.7407H8.99554V27.7407H10.9746V26.7407ZM8.006 26.7407H7.01646V27.7407H8.006V26.7407ZM7.01646 26.7407C6.67481 26.7407 6.35596 26.6496 6.08126 26.4907L5.58045 27.3562C6.00328 27.6009 6.49429 27.7407 7.01646 27.7407V26.7407ZM5.39569 25.8051C5.23676 25.5304 5.14563 25.2115 5.14563 24.8699H4.14563C4.14563 25.3921 4.28549 25.8831 4.53013 26.3059L5.39569 25.8051ZM5.14563 24.8699C5.14563 24.5282 5.23676 24.2094 5.39569 23.9347L4.53013 23.4339C4.28549 23.8567 4.14563 24.3477 4.14563 24.8699H5.14563ZM6.08126 23.2491C6.35596 23.0902 6.67481 22.9991 7.01646 22.9991V21.9991C6.49429 21.9991 6.00327 22.1389 5.58045 22.3836L6.08126 23.2491ZM7.01646 22.9991H7.98125V21.9991H7.01646V22.9991ZM8.94604 22.9991H10.8756V21.9991H8.94604V22.9991ZM11.8404 22.9991H13.77V21.9991H11.8404V22.9991ZM14.7348 22.9991H16.6643V21.9991H14.7348V22.9991ZM17.6291 22.9991H19.5587V21.9991H17.6291V22.9991ZM20.5235 22.9991H22.4531V21.9991H20.5235V22.9991ZM23.4179 22.9991H24.3827V21.9991H23.4179V22.9991ZM24.8817 22.5294C24.9015 22.2047 25.0038 21.9031 25.1681 21.6441L24.3239 21.1082C24.0713 21.506 23.9138 21.9706 23.8836 22.4688L24.8817 22.5294ZM25.8473 21.0054C26.1143 20.8582 26.4211 20.7742 26.7491 20.7742V19.7742C26.248 19.7742 25.7755 19.903 25.3644 20.1297L25.8473 21.0054ZM26.7491 20.7742H27.8084V19.7742H26.7491V20.7742ZM28.8678 20.7742H30.9866V19.7742H28.8678V20.7742ZM32.0459 20.7742H34.1647V19.7742H32.0459V20.7742ZM35.2241 20.7742H37.3428V19.7742H35.2241V20.7742ZM38.4022 20.7742H40.521V19.7742H38.4022V20.7742ZM41.5803 20.7742H42.6397V19.7742H41.5803V20.7742ZM42.6397 20.7742C42.9814 20.7742 43.3002 20.8653 43.5749 21.0243L44.0757 20.1587C43.6529 19.9141 43.1619 19.7742 42.6397 19.7742V20.7742ZM44.2605 21.7098C44.4194 21.9845 44.5106 22.3034 44.5106 22.645H45.5106C45.5106 22.1229 45.3707 21.6318 45.126 21.209L44.2605 21.7098ZM44.5106 22.645C44.5106 22.6496 44.5105 22.6542 44.5105 22.6587L45.5105 22.6658C45.5105 22.6589 45.5106 22.652 45.5106 22.645H44.5106ZM44.5104 22.6724C44.5103 22.6769 44.5102 22.6815 44.5101 22.686L45.5099 22.7075C45.51 22.7006 45.5102 22.6936 45.5103 22.6866L44.5104 22.6724ZM44.51 22.6968V23.4027H45.51V22.6968H44.51ZM44.51 24.1087V24.8147H45.51V24.1087H44.51ZM44.5101 24.8262C44.5102 24.831 44.5103 24.8359 44.5104 24.8407L45.5103 24.8255C45.5102 24.8181 45.51 24.8107 45.5099 24.8033L44.5101 24.8262ZM44.5106 24.8553C44.5106 24.8602 44.5106 24.865 44.5106 24.8699H45.5106C45.5106 24.8625 45.5106 24.8551 45.5105 24.8477L44.5106 24.8553ZM44.5106 24.8699C44.5106 24.8748 44.5106 24.8796 44.5106 24.8845L45.5105 24.8921C45.5106 24.8847 45.5106 24.8773 45.5106 24.8699H44.5106ZM44.5104 24.8991C44.5103 24.9039 44.5102 24.9088 44.5101 24.9136L45.5099 24.9365C45.51 24.9291 45.5102 24.9217 45.5103 24.9143L44.5104 24.8991Z" fill="#616161"/>
<path fill-rule="evenodd" clip-rule="evenodd" d="M3.73679 32.4785C3.73679 32.587 3.74471 32.6938 3.75999 32.7981H2.56976C1.15053 32.7981 0 33.9486 0 35.3693C0 36.7886 1.15053 37.9391 2.56976 37.9391H55.4302C56.8495 37.9391 58 36.7886 58 35.3693C58 33.9486 56.8495 32.7981 55.4302 32.7981H53.6238C53.6391 32.6938 53.647 32.587 53.647 32.4785V32.3746C53.647 31.1661 52.6687 30.1878 51.4603 30.1878C50.2518 30.1878 49.2735 31.1661 49.2735 32.3746V32.4785C49.2735 32.587 49.2814 32.6938 49.2967 32.7981H47.1185C47.1338 32.6938 47.1417 32.587 47.1417 32.4785V32.3746C47.1417 31.1661 46.1634 30.1878 44.955 30.1878C43.7465 30.1878 42.7682 31.1661 42.7682 32.3746V32.4785C42.7682 32.587 42.7761 32.6938 42.7914 32.7981H40.6134C40.6287 32.6938 40.6366 32.587 40.6366 32.4785V32.3746C40.6366 31.1661 39.6583 30.1878 38.4499 30.1878C37.2414 30.1878 36.2631 31.1661 36.2631 32.3746V32.4785C36.2631 32.587 36.271 32.6938 36.2863 32.7981H34.1081C34.1234 32.6938 34.1313 32.587 34.1313 32.4785V32.3746C34.1313 31.1661 33.153 30.1878 31.9446 30.1878C30.7361 30.1878 29.7578 31.1661 29.7578 32.3746V32.4785C29.7578 32.587 29.7657 32.6938 29.781 32.7981H27.6028C27.6181 32.6938 27.626 32.587 27.626 32.4785V32.3746C27.626 31.1661 26.6477 30.1878 25.4393 30.1878C24.2308 30.1878 23.2525 31.1661 23.2525 32.3746V32.4785C23.2525 32.587 23.2604 32.6938 23.2757 32.7981H21.0975C21.1128 32.6938 21.1207 32.587 21.1207 32.4785V32.3746C21.1207 31.1661 20.1424 30.1878 18.934 30.1878C17.7255 30.1878 16.7472 31.1661 16.7472 32.3746V32.4785C16.7472 32.587 16.7551 32.6938 16.7704 32.7981H14.5922C14.6075 32.6938 14.6154 32.587 14.6154 32.4785V32.3746C14.6154 31.1661 13.6371 30.1878 12.4287 30.1878C11.2202 30.1878 10.2419 31.1661 10.2419 32.3746V32.4785C10.2419 32.587 10.2498 32.6938 10.2651 32.7981H8.08709C8.10237 32.6938 8.11029 32.587 8.11029 32.4785V32.3746C8.11029 31.1661 7.13197 30.1878 5.92354 30.1878C4.71511 30.1878 3.73679 31.1661 3.73679 32.3746V32.4785Z" fill="url(#paint0_linear_1706_15289)"/>
<defs>
<linearGradient id="paint0_linear_1706_15289" x1="16.3125" y1="31.5604" x2="17.0368" y2="39.4538" gradientUnits="userSpaceOnUse">
<stop stop-color="#FF8120"/>
<stop offset="1" stop-color="#E54304"/>
</linearGradient>
</defs>
</svg>
