<svg width="58" height="58" viewBox="0 0 58 58" fill="none" xmlns="http://www.w3.org/2000/svg">
<g clip-path="url(#clip0_1706_15288)">
<path d="M15.7717 26.6025L15.2863 26.7222H15.2863L15.7717 26.6025ZM17.2858 24.0868L17.1654 23.6015L17.165 23.6016L17.2858 24.0868ZM18.2825 28.1195L18.4027 28.6048L18.4029 28.6048L18.2825 28.1195ZM26.1894 26.1572L26.0692 25.6719L26.0689 25.672L26.1894 26.1572ZM26.9932 25.7578L26.7197 25.3393L26.6983 25.3533L26.6785 25.3693L26.9932 25.7578ZM27.674 25.0228L27.2365 24.7808L27.2363 24.7812L27.674 25.0228ZM29.8914 21.0126L30.3562 20.8281L29.9658 19.8449L29.4539 20.7706L29.8914 21.0126ZM34.7597 33.2736L35.2245 33.0892L35.2244 33.0891L34.7597 33.2736ZM34.9897 33.7538L35.3706 34.0777L35.5972 33.8112L35.4246 33.507L34.9897 33.7538ZM29.3712 40.3623L29.7521 40.6863L29.7522 40.6862L29.3712 40.3623ZM28.9048 41.1317L29.3579 41.3431L29.3635 41.3311L29.3685 41.3189L28.9048 41.1317ZM34.26 43.2924L33.8791 42.9685L33.76 43.1086V43.2924H34.26ZM42.0103 34.1765L41.677 33.8037L41.6515 33.8265L41.6293 33.8526L42.0103 34.1765ZM43.2665 28.8434L43.7312 28.659L43.7312 28.6589L43.2665 28.8434ZM37.5927 14.5526L38.0574 14.3681L38.0573 14.3679L37.5927 14.5526ZM31.3982 11.8779L31.2132 11.4134L31.213 11.4135L31.3982 11.8779ZM28.7679 14.4584L29.2055 14.7003L29.2183 14.6771L29.2286 14.6527L28.7679 14.4584ZM24.4241 22.3153L24.5446 22.8006L24.7562 22.748L24.8617 22.5572L24.4241 22.3153ZM34.2773 5.06946C34.2773 4.74037 34.2487 4.41757 34.1939 4.1035L33.2088 4.27558C33.2538 4.53307 33.2773 4.79831 33.2773 5.06946H34.2773ZM33.9439 3.16601C33.7201 2.54952 33.3909 1.98418 32.9784 1.49173L32.2118 2.13384C32.5506 2.53834 32.8206 3.00218 33.004 3.50727L33.9439 3.16601ZM32.2938 0.805195C31.8022 0.391007 31.2375 0.0603231 30.6216 -0.164603L30.2785 0.774718C30.7827 0.95884 31.2458 1.22984 31.6496 1.57L32.2938 0.805195ZM29.6841 -0.416037C29.3699 -0.471261 29.0469 -0.5 28.7177 -0.5V0.5C28.9886 0.5 29.2536 0.523642 29.511 0.568867L29.6841 -0.416037ZM28.7177 -0.5C28.3884 -0.5 28.0654 -0.471284 27.7511 -0.416101L27.9241 0.568828C28.1815 0.523628 28.4466 0.5 28.7177 0.5V-0.5ZM26.8135 -0.164813C26.1974 0.0600283 25.6325 0.390621 25.1407 0.804723L25.7848 1.56968C26.1887 1.22959 26.6519 0.958656 27.1563 0.774585L26.8135 -0.164813ZM24.4558 1.49123C24.0432 1.98371 23.7138 2.54911 23.4899 3.16568L24.4299 3.50702C24.6133 3.00188 24.8834 2.53801 25.2223 2.1335L24.4558 1.49123ZM23.2399 4.10333C23.185 4.41745 23.1564 4.74031 23.1564 5.06946H24.1564C24.1564 4.79826 24.18 4.53298 24.225 4.27545L23.2399 4.10333ZM23.1564 5.06946C23.1564 5.39861 23.185 5.72147 23.2399 6.03559L24.225 5.86347C24.18 5.60594 24.1564 5.34066 24.1564 5.06946H23.1564ZM23.4899 6.97324C23.7138 7.58981 24.0432 8.15521 24.4558 8.64769L25.2223 8.00542C24.8834 7.60091 24.6133 7.13704 24.4299 6.6319L23.4899 6.97324ZM25.1407 9.3342C25.6325 9.7483 26.1974 10.0789 26.8135 10.3037L27.1563 9.36434C26.6519 9.18027 26.1887 8.90933 25.7848 8.56924L25.1407 9.3342ZM27.7511 10.555C28.0654 10.6102 28.3884 10.6389 28.7177 10.6389V9.63892C28.4466 9.63892 28.1815 9.61529 27.9241 9.57009L27.7511 10.555ZM28.7177 10.6389C29.0469 10.6389 29.3699 10.6102 29.6841 10.555L29.511 9.57005C29.2536 9.61528 28.9886 9.63892 28.7177 9.63892V10.6389ZM30.6216 10.3035C31.2375 10.0786 31.8022 9.74791 32.2938 9.33372L31.6496 8.56893C31.2458 8.90908 30.7827 9.18008 30.2785 9.3642L30.6216 10.3035ZM32.9784 8.64719C33.3909 8.15474 33.7201 7.5894 33.9439 6.97291L33.004 6.63165C32.8206 7.13674 32.5506 7.60058 32.2118 8.00508L32.9784 8.64719ZM34.1939 6.03542C34.2487 5.72135 34.2773 5.39855 34.2773 5.06946H33.2773C33.2773 5.34061 33.2538 5.60585 33.2088 5.86334L34.1939 6.03542ZM16.2572 26.4827C16.1882 26.2031 16.1982 25.9239 16.2724 25.667L15.3117 25.3894C15.1902 25.8103 15.1742 26.2678 15.2863 26.7222L16.2572 26.4827ZM16.6936 24.9667C16.8858 24.7808 17.1276 24.6415 17.4066 24.572L17.165 23.6016C16.7106 23.7148 16.3134 23.9432 15.9983 24.248L16.6936 24.9667ZM17.4062 24.5721L18.596 24.2768L18.3551 23.3063L17.1654 23.6015L17.4062 24.5721ZM19.7857 23.9816L22.1651 23.3911L21.9243 22.4205L19.5448 23.011L19.7857 23.9816ZM23.3549 23.0958L24.5446 22.8006L24.3037 21.83L23.114 22.1253L23.3549 23.0958ZM24.8617 22.5572L25.3444 21.6842L24.4692 21.2004L23.9866 22.0734L24.8617 22.5572ZM25.827 20.8112L26.7923 19.0652L25.9171 18.5814L24.9518 20.3274L25.827 20.8112ZM27.2749 18.1922L28.2402 16.4463L27.365 15.9624L26.3998 17.7084L27.2749 18.1922ZM28.7228 15.5733L29.2055 14.7003L28.3303 14.2164L27.8477 15.0894L28.7228 15.5733ZM29.2286 14.6527C29.3748 14.3063 29.5662 13.9791 29.7985 13.681L29.0097 13.0663C28.7231 13.4341 28.4873 13.8373 28.3072 14.264L29.2286 14.6527ZM30.6012 12.8928C30.8958 12.672 31.2243 12.4856 31.5835 12.3423L31.213 11.4135C30.7712 11.5898 30.3657 11.8195 30.0014 12.0927L30.6012 12.8928ZM31.5833 12.3424C31.9393 12.2006 32.3023 12.1103 32.6644 12.0676L32.5474 11.0745C32.0993 11.1273 31.6512 11.239 31.2132 11.4134L31.5833 12.3424ZM33.7784 12.0842C34.519 12.1937 35.2211 12.4971 35.809 12.962L36.4293 12.1776C35.7041 11.6042 34.8386 11.23 33.9246 11.095L33.7784 12.0842ZM36.5853 13.7619C36.8027 14.0547 36.9864 14.3808 37.128 14.7372L38.0573 14.3679C37.8833 13.93 37.657 13.5277 37.3881 13.1657L36.5853 13.7619ZM37.1279 14.7371L37.5062 15.6898L38.4356 15.3208L38.0574 14.3681L37.1279 14.7371ZM37.8845 16.6425L38.641 18.548L39.5704 18.179L38.8139 16.2735L37.8845 16.6425ZM39.0192 19.5007L39.7757 21.4061L40.7052 21.0371L39.9486 19.1317L39.0192 19.5007ZM40.154 22.3589L40.9105 24.2643L41.8399 23.8953L41.0834 21.9898L40.154 22.3589ZM41.2888 25.217L42.0453 27.1225L42.9747 26.7535L42.2182 24.848L41.2888 25.217ZM42.4235 28.0752L42.8018 29.0279L43.7312 28.6589L43.3529 27.7062L42.4235 28.0752ZM42.8017 29.0278C42.9112 29.3037 42.9899 29.5838 43.0397 29.8644L44.0243 29.6897C43.9628 29.3431 43.8657 28.998 43.7312 28.659L42.8017 29.0278ZM43.1033 30.7305C43.0864 31.3163 42.9488 31.8892 42.7055 32.4139L43.6126 32.8347C43.9123 32.1887 44.082 31.4826 44.1029 30.7594L43.1033 30.7305ZM42.2619 33.1617C42.0904 33.3936 41.8948 33.609 41.677 33.8037L42.3435 34.5492C42.6128 34.3085 42.8543 34.0424 43.0659 33.7563L42.2619 33.1617ZM41.6293 33.8526L40.9835 34.6123L41.7453 35.26L42.3912 34.5003L41.6293 33.8526ZM40.3376 35.3719L39.0459 36.8912L39.8078 37.539L41.0995 36.0196L40.3376 35.3719ZM38.4001 37.6509L37.1084 39.1702L37.8702 39.8179L39.1619 38.2986L38.4001 37.6509ZM36.4625 39.9299L35.1708 41.4492L35.9327 42.0969L37.2244 40.5776L36.4625 39.9299ZM34.525 42.2089L33.8791 42.9685L34.641 43.6162L35.2868 42.8566L34.525 42.2089ZM33.76 43.2924V44.2835H34.76V43.2924H33.76ZM33.76 45.2745V47.2567H34.76V45.2745H33.76ZM33.76 48.2477V50.2299H34.76V48.2477H33.76ZM33.76 51.221V53.2031H34.76V51.221H33.76ZM33.76 54.1942V55.1853H34.76V54.1942H33.76ZM33.76 55.1853C33.76 55.6079 33.6477 56.0024 33.4518 56.3422L34.3181 56.8417C34.5994 56.3539 34.76 55.7877 34.76 55.1853H33.76ZM32.606 57.1903C32.2668 57.3871 31.8728 57.4999 31.4509 57.4999V58.4999C32.0537 58.4999 32.6201 58.3382 33.1078 58.0553L32.606 57.1903ZM31.4509 57.4999C31.029 57.4999 30.635 57.3871 30.2958 57.1903L29.794 58.0553C30.2817 58.3382 30.8481 58.4999 31.4509 58.4999V57.4999ZM29.45 56.3422C29.2541 56.0024 29.1417 55.6079 29.1417 55.1853H28.1417C28.1417 55.7877 28.3024 56.3539 28.5837 56.8417L29.45 56.3422ZM29.1417 55.1853V54.1134H28.1417V55.1853H29.1417ZM29.1417 53.0414V50.8976H28.1417V53.0414H29.1417ZM29.1417 49.8257V47.6819H28.1417V49.8257H29.1417ZM29.1417 46.61V44.4662H28.1417V46.61H29.1417ZM29.1417 43.3943V42.3224H28.1417V43.3943H29.1417ZM29.1417 42.3224C29.1417 42.2078 29.15 42.0955 29.1659 41.9858L28.1763 41.8422C28.1535 41.9993 28.1417 42.1596 28.1417 42.3224H29.1417ZM29.2384 41.6574C29.2707 41.5491 29.3108 41.4441 29.3579 41.3431L28.4517 40.9202C28.3841 41.0651 28.3266 41.2157 28.2802 41.3712L29.2384 41.6574ZM29.3685 41.3189C29.3991 41.2429 29.434 41.1682 29.4732 41.095L28.5916 40.623C28.5354 40.7281 28.4852 40.8354 28.4412 40.9445L29.3685 41.3189ZM29.6015 40.8835C29.6476 40.816 29.6978 40.7501 29.7521 40.6863L28.9904 40.0384C28.9131 40.1292 28.8415 40.2232 28.7756 40.3198L29.6015 40.8835ZM29.7522 40.6862L30.3764 39.9519L29.6146 39.3042L28.9903 40.0385L29.7522 40.6862ZM31.0007 39.2176L32.2493 37.7491L31.4874 37.1013L30.2388 38.5699L31.0007 39.2176ZM32.8735 37.0148L34.1221 35.5462L33.3602 34.8985L32.1117 36.3671L32.8735 37.0148ZM34.7464 34.8119L35.3706 34.0777L34.6088 33.4299L33.9845 34.1642L34.7464 34.8119ZM35.4246 33.507C35.3494 33.3746 35.2824 33.2352 35.2245 33.0892L34.295 33.458C34.37 33.6471 34.457 33.8281 34.5548 34.0006L35.4246 33.507ZM35.2244 33.0891L34.8187 32.0674L33.8893 32.4364L34.295 33.4581L35.2244 33.0891ZM34.413 31.0456L33.6017 29.0021L32.6722 29.3711L33.4836 31.4146L34.413 31.0456ZM33.196 27.9803L32.3846 25.9368L31.4552 26.3059L32.2666 28.3494L33.196 27.9803ZM31.9789 24.9151L31.1675 22.8716L30.2381 23.2406L31.0495 25.2841L31.9789 24.9151ZM30.7618 21.8498L30.3562 20.8281L29.4267 21.1971L29.8324 22.2189L30.7618 21.8498ZM29.4539 20.7706L29.0843 21.439L29.9594 21.9229L30.329 21.2545L29.4539 20.7706ZM28.7147 22.1074L27.9756 23.4441L28.8507 23.928L29.5899 22.5913L28.7147 22.1074ZM27.606 24.1124L27.2365 24.7808L28.1116 25.2647L28.4811 24.5963L27.606 24.1124ZM27.2363 24.7812C27.194 24.8578 27.1465 24.9292 27.0947 24.9953L27.8816 25.6124C27.9664 25.5042 28.0435 25.388 28.1118 25.2643L27.2363 24.7812ZM26.9213 25.1827C26.8581 25.2407 26.7906 25.293 26.7197 25.3393L27.2667 26.1764C27.3829 26.1005 27.4935 26.0148 27.5973 25.9196L26.9213 25.1827ZM26.6785 25.3693C26.6197 25.417 26.5571 25.4606 26.4912 25.4996L27.0004 26.3602C27.1088 26.2961 27.2115 26.2245 27.308 26.1463L26.6785 25.3693ZM26.287 25.601C26.2174 25.6294 26.1447 25.6532 26.0692 25.6719L26.3095 26.6426C26.4322 26.6122 26.5508 26.5734 26.6649 26.5268L26.287 25.601ZM26.0689 25.672L25.1904 25.89L25.4313 26.8605L26.3098 26.6425L26.0689 25.672ZM24.3119 26.108L22.5548 26.5441L22.7956 27.5146L24.5527 27.0786L24.3119 26.108ZM21.6762 26.7621L19.9191 27.1982L20.16 28.1687L21.9171 27.7327L21.6762 26.7621ZM19.0406 27.4162L18.1621 27.6342L18.4029 28.6048L19.2815 28.3867L19.0406 27.4162ZM18.1623 27.6342C17.8835 27.7032 17.6048 27.6931 17.3483 27.6186L17.0694 28.5789C17.4903 28.7012 17.9481 28.7174 18.4027 28.6048L18.1623 27.6342ZM16.6499 27.1965C16.4648 27.0041 16.3261 26.7621 16.2572 26.4827L15.2863 26.7222C15.3984 27.1768 15.6257 27.5744 15.9294 27.89L16.6499 27.1965Z" fill="#616161"/>
<path fill-rule="evenodd" clip-rule="evenodd" d="M46.1096 33.2462H12.2231L11.7894 33.9991C11.9924 34.447 12.1054 34.9445 12.1054 35.4685C12.1054 37.4339 10.5151 39.0273 8.55349 39.0273C6.59185 39.0273 5 37.4339 5 35.4685C5 33.6152 6.41529 32.0928 8.22138 31.925L9.07051 30.4515C9.17051 30.2779 9.29182 30.1243 9.42921 29.9922C9.8026 29.4551 10.4232 29.1038 11.1256 29.1038H47.2065C47.9334 29.1038 48.5727 29.48 48.941 30.049C49.0738 30.1786 49.1911 30.3285 49.2884 30.4973L50.111 31.925C51.918 32.0917 53.3332 33.6146 53.3332 35.4687C53.3332 37.4342 51.7429 39.0275 49.7813 39.0275C47.8196 39.0275 46.2278 37.4342 46.2278 35.4687C46.2278 34.9449 46.3408 34.4475 46.5439 33.9996L46.1096 33.2462ZM51.1493 35.4685C51.1493 36.2254 50.5367 36.8392 49.7812 36.8392C49.0258 36.8392 48.4132 36.2254 48.4132 35.4685C48.4132 34.7115 49.0258 34.0977 49.7812 34.0977C50.5367 34.0977 51.1493 34.7115 51.1493 35.4685ZM8.55345 36.8392C9.30891 36.8392 9.92152 36.2254 9.92152 35.4685C9.92152 34.7115 9.30891 34.0977 8.55345 34.0977C7.798 34.0977 7.18538 34.7115 7.18538 35.4685C7.18538 36.2254 7.798 36.8392 8.55345 36.8392Z" fill="url(#paint0_linear_1706_15288)"/>
<path d="M12.2231 33.2462V32.9962H12.0786L12.0064 33.1215L12.2231 33.2462ZM46.1096 33.2462L46.3263 33.1214L46.2541 32.9962H46.1096V33.2462ZM11.7894 33.9991L11.5728 33.8743L11.5088 33.9854L11.5617 34.1023L11.7894 33.9991ZM8.22138 31.925L8.2445 32.174L8.37337 32.162L8.43798 32.0499L8.22138 31.925ZM9.07051 30.4515L9.28712 30.5763L9.28714 30.5763L9.07051 30.4515ZM9.42921 29.9922L9.6025 30.1724L9.62035 30.1553L9.63449 30.1349L9.42921 29.9922ZM48.941 30.049L48.7312 30.1849L48.7464 30.2083L48.7664 30.2279L48.941 30.049ZM49.2884 30.4973L49.0717 30.6221L49.0717 30.6221L49.2884 30.4973ZM50.111 31.925L49.8943 32.0498L49.959 32.1621L50.088 32.174L50.111 31.925ZM46.5439 33.9996L46.7716 34.1028L46.8245 33.986L46.7605 33.8748L46.5439 33.9996ZM12.2231 33.4962H46.1096V32.9962H12.2231V33.4962ZM12.0061 34.1239L12.4397 33.371L12.0064 33.1215L11.5728 33.8743L12.0061 34.1239ZM12.3554 35.4685C12.3554 34.9083 12.2345 34.3756 12.0172 33.8959L11.5617 34.1023C11.7503 34.5184 11.8554 34.9808 11.8554 35.4685H12.3554ZM8.55349 39.2773C10.6537 39.2773 12.3554 37.5715 12.3554 35.4685H11.8554C11.8554 37.2963 10.3766 38.7773 8.55349 38.7773V39.2773ZM4.75 35.4685C4.75 37.5717 6.45347 39.2773 8.55349 39.2773V38.7773C6.73023 38.7773 5.25 37.2962 5.25 35.4685H4.75ZM8.19825 31.6761C6.26455 31.8557 4.75 33.4852 4.75 35.4685H5.25C5.25 33.7453 6.56602 32.3299 8.2445 32.174L8.19825 31.6761ZM8.8539 30.3267L8.00477 31.8002L8.43798 32.0499L9.28712 30.5763L8.8539 30.3267ZM9.25593 29.812C9.10171 29.9603 8.96576 30.1325 8.85388 30.3267L9.28714 30.5763C9.37526 30.4233 9.48193 30.2884 9.6025 30.1724L9.25593 29.812ZM11.1256 28.8538C10.3378 28.8538 9.64197 29.2482 9.22394 29.8495L9.63449 30.1349C9.96322 29.662 10.5087 29.3538 11.1256 29.3538V28.8538ZM47.2065 28.8538H11.1256V29.3538H47.2065V28.8538ZM49.1509 29.9132C48.7385 29.2761 48.0218 28.8538 47.2065 28.8538V29.3538C47.8449 29.3538 48.4068 29.6839 48.7312 30.1849L49.1509 29.9132ZM49.505 30.3725C49.3962 30.1837 49.2647 30.0157 49.1157 29.8702L48.7664 30.2279C48.8828 30.3416 48.986 30.4733 49.0717 30.6221L49.505 30.3725ZM50.3276 31.8002L49.505 30.3725L49.0717 30.6221L49.8943 32.0498L50.3276 31.8002ZM53.5832 35.4687C53.5832 33.4847 52.0688 31.8545 50.1339 31.6761L50.088 32.174C51.7672 32.3289 53.0832 33.7446 53.0832 35.4687H53.5832ZM49.7813 39.2775C51.8814 39.2775 53.5832 37.5718 53.5832 35.4687H53.0832C53.0832 37.2965 51.6044 38.7775 49.7813 38.7775V39.2775ZM45.9778 35.4687C45.9778 37.5719 47.6812 39.2775 49.7813 39.2775V38.7775C47.958 38.7775 46.4778 37.2964 46.4778 35.4687H45.9778ZM46.3162 33.8964C46.0987 34.376 45.9778 34.9086 45.9778 35.4687H46.4778C46.4778 34.9812 46.5829 34.5189 46.7716 34.1028L46.3162 33.8964ZM45.893 33.3711L46.3273 34.1245L46.7605 33.8748L46.3263 33.1214L45.893 33.3711ZM49.7812 37.0892C50.6752 37.0892 51.3993 36.363 51.3993 35.4685H50.8993C50.8993 36.0878 50.3981 36.5892 49.7812 36.5892V37.0892ZM48.1632 35.4685C48.1632 36.363 48.8872 37.0892 49.7812 37.0892V36.5892C49.1643 36.5892 48.6632 36.0878 48.6632 35.4685H48.1632ZM49.7812 33.8477C48.8872 33.8477 48.1632 34.5739 48.1632 35.4685H48.6632C48.6632 34.8492 49.1643 34.3477 49.7812 34.3477V33.8477ZM51.3993 35.4685C51.3993 34.5739 50.6752 33.8477 49.7812 33.8477V34.3477C50.3981 34.3477 50.8993 34.8492 50.8993 35.4685H51.3993ZM9.67152 35.4685C9.67152 36.0878 9.17038 36.5892 8.55345 36.5892V37.0892C9.44744 37.0892 10.1715 36.363 10.1715 35.4685H9.67152ZM8.55345 34.3477C9.17038 34.3477 9.67152 34.8492 9.67152 35.4685H10.1715C10.1715 34.5739 9.44744 33.8477 8.55345 33.8477V34.3477ZM7.43538 35.4685C7.43538 34.8492 7.93653 34.3477 8.55345 34.3477V33.8477C7.65947 33.8477 6.93538 34.5739 6.93538 35.4685H7.43538ZM8.55345 36.5892C7.93653 36.5892 7.43538 36.0878 7.43538 35.4685H6.93538C6.93538 36.363 7.65947 37.0892 8.55345 37.0892V36.5892Z" fill="#FF8120"/>
</g>
<defs>
<linearGradient id="paint0_linear_1706_15288" x1="18.5937" y1="30.8611" x2="20.0022" y2="40.8529" gradientUnits="userSpaceOnUse">
<stop stop-color="#FF8120"/>
<stop offset="1" stop-color="#E54304"/>
</linearGradient>
<clipPath id="clip0_1706_15288">
<rect width="58" height="58" fill="white"/>
</clipPath>
</defs>
</svg>
