<svg width="58" height="58" viewBox="0 0 58 58" fill="none" xmlns="http://www.w3.org/2000/svg">
<g clip-path="url(#clip0_1706_15291)">
<path d="M22.3104 33.4897L22.808 33.4409L22.7986 33.345L22.7542 33.2594L22.3104 33.4897ZM40.3055 36.1807L40.6972 35.87L40.5471 35.6807H40.3055V36.1807ZM48.3903 46.3752L47.9985 46.6859L47.9985 46.6859L48.3903 46.3752ZM52.9065 42.5899L52.5148 42.9006L52.5148 42.9006L52.9065 42.5899ZM44.0053 31.366L44.3971 31.0553L44.3971 31.0553L44.0053 31.366ZM43.7801 31.1127L43.4146 31.4539L43.4202 31.4598L43.4259 31.4656L43.7801 31.1127ZM31.489 30.1907H30.989V30.6907H31.489V30.1907ZM21.7395 20.3065L22.0979 20.6552L22.2395 20.5096V20.3065H21.7395ZM18.0455 24.1043L17.687 23.7557H17.687L18.0455 24.1043ZM17.6849 24.7033L18.1506 24.8853L18.156 24.8714L18.1606 24.8572L17.6849 24.7033ZM20.5614 25.8542L20.2031 25.5056L20.0614 25.6511V25.8542H20.5614ZM21.7395 24.6434H22.2395V23.4125L21.3811 24.2947L21.7395 24.6434ZM31.8143 5.81617C31.8143 5.34847 31.7553 4.89415 31.6442 4.46092L30.6755 4.7093C30.766 5.06193 30.8143 5.43282 30.8143 5.81617H31.8143ZM31.1384 3.18981C30.6894 2.38098 30.0388 1.70385 29.255 1.23107L28.7385 2.08737C29.3707 2.46866 29.8987 3.01703 30.2641 3.67517L31.1384 3.18981ZM27.9927 0.685783C27.5578 0.564565 27.1007 0.5 26.6296 0.5V1.5C27.0089 1.5 27.3758 1.55194 27.7242 1.64906L27.9927 0.685783ZM26.6296 0.5C26.1585 0.5 25.7013 0.564514 25.2664 0.685645L25.5347 1.64898C25.8832 1.55191 26.2501 1.5 26.6296 1.5V0.5ZM24.0038 1.23069C23.2195 1.7034 22.5688 2.38051 22.1196 3.18937L22.9938 3.67486C23.3593 3.01673 23.8875 2.46838 24.52 2.08714L24.0038 1.23069ZM21.6135 4.46067C21.5024 4.89398 21.4434 5.34838 21.4434 5.81617H22.4434C22.4434 5.43275 22.4917 5.0618 22.5822 4.70911L21.6135 4.46067ZM21.4434 5.81617C21.4434 6.28396 21.5024 6.73836 21.6135 7.17167L22.5822 6.92323C22.4917 6.57054 22.4434 6.19959 22.4434 5.81617H21.4434ZM22.1196 8.44296C22.5688 9.25182 23.2195 9.92894 24.0038 10.4016L24.52 9.5452C23.8875 9.16396 23.3593 8.61561 22.9938 7.95748L22.1196 8.44296ZM25.2664 10.9467C25.7013 11.0678 26.1585 11.1323 26.6296 11.1323V10.1323C26.2501 10.1323 25.8832 10.0804 25.5347 9.98336L25.2664 10.9467ZM26.6296 11.1323C27.1007 11.1323 27.5578 11.0678 27.9927 10.9466L27.7242 9.98328C27.3758 10.0804 27.0089 10.1323 26.6296 10.1323V11.1323ZM29.255 10.4013C30.0388 9.92849 30.6894 9.25135 31.1384 8.44252L30.2641 7.95717C29.8987 8.6153 29.3707 9.16368 28.7385 9.54497L29.255 10.4013ZM31.6442 7.17142C31.7553 6.73819 31.8143 6.28387 31.8143 5.81617H30.8143C30.8143 6.19952 30.766 6.5704 30.6755 6.92304L31.6442 7.17142ZM22.7542 33.2594C22.6423 33.0437 22.5468 32.8175 22.4697 32.5826L21.5196 32.8946C21.6137 33.181 21.73 33.4568 21.8666 33.72L22.7542 33.2594ZM22.2971 31.8683C22.2592 31.6297 22.2395 31.3846 22.2395 31.1343H21.2395C21.2395 31.4372 21.2634 31.7347 21.3094 32.0249L22.2971 31.8683ZM22.2395 31.1343V30.0525H21.2395V31.1343H22.2395ZM22.2395 28.9707V26.807H21.2395V28.9707H22.2395ZM22.2395 25.7252V24.6434H21.2395V25.7252H22.2395ZM21.3811 24.2947L20.9885 24.6983L21.7052 25.3957L22.0979 24.9921L21.3811 24.2947ZM20.5958 25.102L20.2031 25.5056L20.9198 26.2029L21.3125 25.7993L20.5958 25.102ZM20.0614 25.8542V27.0805H21.0614V25.8542H20.0614ZM20.0614 28.3069V30.7595H21.0614V28.3069H20.0614ZM20.0614 31.9858V33.2121H21.0614V31.9858H20.0614ZM20.0614 33.2121C20.0614 33.4016 20.0129 33.5775 19.9291 33.7287L20.8036 34.2136C20.9681 33.917 21.0614 33.5746 21.0614 33.2121H20.0614ZM19.5654 34.1083C19.4195 34.1965 19.251 34.2465 19.0704 34.2465V35.2465C19.4398 35.2465 19.7863 35.1432 20.0827 34.9642L19.5654 34.1083ZM19.0704 34.2465C18.8893 34.2465 18.7205 34.1965 18.5745 34.1084L18.058 34.9647C18.3544 35.1435 18.701 35.2465 19.0704 35.2465V34.2465ZM18.2104 33.7289C18.1265 33.5777 18.0779 33.4017 18.0779 33.2121H17.0779C17.0779 33.5748 17.1713 33.9174 17.3361 34.2142L18.2104 33.7289ZM18.0779 33.2121V32.3302H17.0779V33.2121H18.0779ZM18.0779 31.4482V29.6843H17.0779V31.4482H18.0779ZM18.0779 28.8024V27.0385H17.0779V28.8024H18.0779ZM18.0779 26.1566V25.2746H17.0779V26.1566H18.0779ZM18.0779 25.2746C18.0779 25.2292 18.0807 25.1847 18.086 25.1413L17.0935 25.0191C17.0832 25.103 17.0779 25.1883 17.0779 25.2746H18.0779ZM18.1103 25.011C18.1212 24.9679 18.1347 24.926 18.1506 24.8853L17.2192 24.5213C17.1881 24.6007 17.1619 24.6826 17.1407 24.7665L18.1103 25.011ZM18.1606 24.8572C18.1769 24.8069 18.197 24.7577 18.2208 24.7101L17.327 24.2617C17.2801 24.3551 17.2409 24.4513 17.2092 24.5493L18.1606 24.8572ZM18.3024 24.5746C18.3326 24.5321 18.3664 24.4914 18.4039 24.4529L17.687 23.7557C17.6137 23.8311 17.5472 23.9111 17.4876 23.9948L18.3024 24.5746ZM18.4039 24.4529L19.0195 23.82L18.3027 23.1227L17.687 23.7557L18.4039 24.4529ZM19.6352 23.187L20.8666 21.9211L20.1497 21.2238L18.9184 22.4897L19.6352 23.187ZM21.4822 21.2881L22.0979 20.6552L21.3811 19.9579L20.7654 20.5909L21.4822 21.2881ZM22.2395 20.3065V19.4364H21.2395V20.3065H22.2395ZM22.2395 18.5662V17.696H21.2395V18.5662H22.2395ZM22.2395 17.696C22.2395 17.4309 22.2616 17.1715 22.3039 16.9196L21.3177 16.754C21.2663 17.0604 21.2395 17.3752 21.2395 17.696H22.2395ZM22.4969 16.1668C22.6705 15.6695 22.9265 15.2128 23.2477 14.8142L22.469 14.1868C22.0766 14.6737 21.7644 15.231 21.5528 15.8373L22.4969 16.1668ZM23.7844 14.2548C24.1725 13.9151 24.618 13.6446 25.1031 13.4605L24.7484 12.5256C24.1492 12.7529 23.6012 13.0862 23.1257 13.5024L23.7844 14.2548ZM25.8455 13.2538C26.0947 13.2083 26.3516 13.1845 26.6143 13.1845V12.1845C26.291 12.1845 25.9741 12.2138 25.666 12.27L25.8455 13.2538ZM26.6143 13.1845C26.8769 13.1845 27.1338 13.2083 27.383 13.2538L27.5626 12.27C27.2544 12.2138 26.9375 12.1845 26.6143 12.1845V13.1845ZM28.1254 13.4605C28.6105 13.6446 29.056 13.9151 29.4441 14.2548L30.1028 13.5024C29.6273 13.0862 29.0793 12.7529 28.4801 12.5256L28.1254 13.4605ZM29.9808 14.8142C30.302 15.2128 30.558 15.6695 30.7316 16.1668L31.6758 15.8373C31.4641 15.231 31.1519 14.6737 30.7595 14.1868L29.9808 14.8142ZM30.9246 16.9196C30.9669 17.1715 30.989 17.4309 30.989 17.696H31.989C31.989 17.3752 31.9622 17.0604 31.9108 16.754L30.9246 16.9196ZM30.989 17.696V18.7373H31.989V17.696H30.989ZM30.989 19.7785V21.8609H31.989V19.7785H30.989ZM30.989 22.9021V24.9846H31.989V22.9021H30.989ZM30.989 26.0258V28.1082H31.989V26.0258H30.989ZM30.989 29.1495V30.1907H31.989V29.1495H30.989ZM31.489 30.6907H32.621V29.6907H31.489V30.6907ZM33.753 30.6907H36.017V29.6907H33.753V30.6907ZM37.149 30.6907H39.413V29.6907H37.149V30.6907ZM40.545 30.6907H41.677V29.6907H40.545V30.6907ZM41.677 30.6907C41.8995 30.6907 42.1143 30.7217 42.318 30.7795L42.5911 29.8176C42.2997 29.7348 41.993 29.6907 41.677 29.6907V30.6907ZM42.9106 31.0407C43.0957 31.1547 43.2652 31.2939 43.4146 31.4539L44.1456 30.7715C43.936 30.547 43.6973 30.3508 43.4351 30.1893L42.9106 31.0407ZM43.4259 31.4656C43.4479 31.4877 43.4696 31.5103 43.491 31.5334L44.2257 30.855C44.1957 30.8226 44.1652 30.7908 44.1343 30.7597L43.4259 31.4656ZM43.5536 31.6038C43.5739 31.6276 43.5939 31.6519 43.6136 31.6767L44.3971 31.0553C44.3697 31.0207 44.3417 30.9868 44.3133 30.9536L43.5536 31.6038ZM43.6136 31.6767L44.207 32.4249L44.9905 31.8035L44.3971 31.0553L43.6136 31.6767ZM44.8004 33.1732L45.9872 34.6697L46.7707 34.0483L45.5839 32.5518L44.8004 33.1732ZM46.5806 35.418L47.7675 36.9145L48.551 36.2931L47.3641 34.7966L46.5806 35.418ZM48.3609 37.6628L49.5477 39.1593L50.3312 38.5379L49.1444 37.0414L48.3609 37.6628ZM50.1411 39.9076L51.328 41.4041L52.1115 40.7827L50.9246 39.2862L50.1411 39.9076ZM51.9214 42.1524L52.5148 42.9006L53.2983 42.2792L52.7049 41.531L51.9214 42.1524ZM52.5148 42.9006C52.6528 43.0746 52.7641 43.2617 52.8493 43.4569L53.7657 43.0567C53.6464 42.7836 53.4908 42.5219 53.2983 42.2792L52.5148 42.9006ZM53.0309 44.0812C53.0985 44.5139 53.0549 44.9591 52.905 45.3686L53.844 45.7123C54.0524 45.1432 54.1127 44.5265 54.0189 43.9266L53.0309 44.0812ZM52.6054 45.9439C52.4836 46.118 52.3378 46.2787 52.1682 46.4209L52.8106 47.1873C53.0485 46.9878 53.2536 46.7619 53.4248 46.5171L52.6054 45.9439ZM52.1682 46.4209C52.0003 46.5616 51.8207 46.6746 51.634 46.761L52.0544 47.6684C52.3207 47.545 52.5751 47.3846 52.8106 47.1873L52.1682 46.4209ZM51.0321 46.9465C50.6148 47.0154 50.185 46.97 49.7893 46.8147L49.424 47.7456C49.987 47.9666 50.5993 48.0315 51.195 47.9331L51.0321 46.9465ZM49.2374 46.5077C49.072 46.3844 48.9186 46.2367 48.782 46.0645L47.9985 46.6859C48.189 46.926 48.4049 47.1343 48.6395 47.3093L49.2374 46.5077ZM48.782 46.0645L48.1083 45.215L47.3248 45.8363L47.9985 46.6859L48.782 46.0645ZM47.4346 44.3654L46.0871 42.6663L45.3036 43.2877L46.651 44.9868L47.4346 44.3654ZM45.4134 41.8168L44.0659 40.1177L43.2824 40.7391L44.6298 42.4382L45.4134 41.8168ZM43.3922 39.2682L42.0447 37.5691L41.2612 38.1905L42.6086 39.8896L43.3922 39.2682ZM41.371 36.7196L40.6972 35.87L39.9137 36.4914L40.5874 37.3409L41.371 36.7196ZM40.3055 35.6807H39.2991V36.6807H40.3055V35.6807ZM38.2927 35.6807H36.2799V36.6807H38.2927V35.6807ZM35.2735 35.6807H33.2607V36.6807H35.2735V35.6807ZM32.2543 35.6807H30.2415V36.6807H32.2543V35.6807ZM29.2351 35.6807H27.2223V36.6807H29.2351V35.6807ZM26.2159 35.6807H25.2095V36.6807H26.2159V35.6807ZM25.2095 35.6807C24.7959 35.6807 24.4077 35.5737 24.0679 35.3849L23.5821 36.2589C24.0658 36.5278 24.6207 36.6807 25.2095 36.6807V35.6807ZM23.2012 34.5707C22.9882 34.2415 22.8488 33.8568 22.808 33.4409L21.8128 33.5386C21.8695 34.1162 22.0635 34.6532 22.3615 35.1138L23.2012 34.5707Z" fill="#616161"/>
<path fill-rule="evenodd" clip-rule="evenodd" d="M1.22371 6.10146H5.96248C5.99749 6.10146 6.03216 6.10297 6.06643 6.10593C6.58704 6.11616 7.06253 6.47111 7.2155 7.0112L8.45171 11.376C8.60511 11.2984 8.76717 11.2334 8.93702 11.1825C10.513 10.7107 12.1616 11.6416 12.6205 13.2618L16.4686 26.8532H36.9777L36.9887 26.8529L37.0103 26.8527C37.2427 26.8527 37.4586 26.9248 37.6378 27.0486C37.9392 27.2563 38.1373 27.6096 38.1373 28.0111C38.1373 28.0248 38.1371 28.0384 38.1367 28.0519V38.1607C38.43 38.2339 38.7015 38.3648 38.9389 38.541C39.1911 38.6856 39.4209 38.8816 39.6128 39.1275L47.6596 49.4254C47.7704 49.5671 47.8627 49.7179 47.9369 49.8747H56.3437C57.2584 49.8747 58 50.6356 58 51.576C58 52.5163 57.2584 53.2788 56.3437 53.2788H45.8977L45.879 53.279L45.8573 53.279L45.8289 53.2788H45.7769C45.6147 53.2788 45.458 53.2548 45.3099 53.2102C44.8359 53.0904 44.3951 52.8155 44.0657 52.3942L38.1367 44.8053V49.5542C39.6117 50.0327 40.6997 51.428 40.7486 53.1066C40.8104 55.2288 39.1865 57.0015 37.1223 57.065C35.058 57.127 33.3353 55.4591 33.2735 53.3369C33.2222 51.5778 34.3283 50.0588 35.8839 49.5544V42.8323H27.8649C27.8756 42.9971 27.8834 43.1628 27.8882 43.3292C28.1029 50.6917 22.4696 56.839 15.3081 57.0597C8.14508 57.2805 2.1656 51.4891 1.95238 44.1266C1.76992 37.8702 5.80864 32.4921 11.4193 30.8804L6.9145 14.9694C6.89653 14.9059 6.88065 14.8423 6.86682 14.7787L5.12207 8.61597H1.22371C0.54696 8.61597 0 8.05366 0 7.3595C0 6.66377 0.54696 6.10146 1.22371 6.10146ZM12.5015 34.7025C10.3992 35.2963 8.6088 36.6424 7.41158 38.4342C7.34116 38.5396 7.27278 38.6466 7.20652 38.755C6.2788 40.2727 5.76438 42.0805 5.82026 44.0072C5.93961 48.0799 8.57099 51.4668 12.1414 52.6426C12.2513 52.6788 12.3621 52.7129 12.4737 52.7449C13.3365 52.992 14.2497 53.1114 15.1921 53.0825C19.3716 52.9544 22.8085 49.9497 23.7608 45.9708C23.9539 45.1647 24.0451 44.3185 24.0198 43.448C23.9151 39.8378 21.835 36.7664 18.8772 35.2964L18.8562 35.286C17.5858 34.6588 16.1545 34.3266 14.6489 34.3732C13.9065 34.396 13.1875 34.5095 12.5017 34.7031L12.5015 34.7025ZM26.6842 38.094C24.9713 34.3174 21.593 31.5182 17.547 30.6619L17.1243 29.1691H35.8839V38.094H26.6842ZM38.5905 53.1726C38.6168 54.0701 37.9308 54.8183 37.0578 54.8453C36.1848 54.8723 35.4571 54.167 35.4308 53.2695C35.4046 52.3721 36.0906 51.6239 36.9635 51.5969C37.8365 51.5699 38.5643 52.2752 38.5905 53.1726ZM15.062 48.6045C17.6809 48.5235 19.7421 46.2742 19.6633 43.5818C19.5845 40.8894 17.3982 38.7704 14.7777 38.8514C12.1588 38.9324 10.0992 41.1801 10.1764 43.8741C10.2552 46.5665 12.4431 48.6839 15.062 48.6045Z" fill="url(#paint0_linear_1706_15291)"/>
</g>
<defs>
<linearGradient id="paint0_linear_1706_15291" x1="16.3125" y1="15.1265" x2="39.4612" y2="53.4971" gradientUnits="userSpaceOnUse">
<stop stop-color="#FF8120"/>
<stop offset="1" stop-color="#E54304"/>
</linearGradient>
<clipPath id="clip0_1706_15291">
<rect width="58" height="58" fill="white"/>
</clipPath>
</defs>
</svg>
