<svg width="58" height="58" viewBox="0 0 58 58" fill="none" xmlns="http://www.w3.org/2000/svg">
<g clip-path="url(#clip0_1706_15287)">
<path d="M4.20362 31.3678L4.58644 31.0462L4.57297 31.0302L4.55822 31.0153L4.20362 31.3678ZM8.51693 24.4476L8.22055 24.0449L8.51693 24.4476ZM8.78322 31.6501L9.08655 32.0476L8.78322 31.6501ZM17.0727 25.3241L17.4375 24.9822L17.1285 24.6525L16.7693 24.9266L17.0727 25.3241ZM24.6994 33.462L24.3346 33.8039L24.4827 33.962H24.6994V33.462ZM24.8301 26.1379L24.4682 26.4829L24.616 26.6379H24.8301V26.1379ZM17.0727 18L17.4346 17.655L17.1271 17.3324L16.7714 17.6009L17.0727 18ZM9.38099 23.8065L9.68224 24.2056L9.38099 23.8065ZM4.55822 31.0153C4.32975 30.7855 4.19718 30.5647 4.12787 30.3569L3.17923 30.6732C3.30458 31.0491 3.52926 31.3987 3.84902 31.7203L4.55822 31.0153ZM4.10191 29.6149C4.20551 29.1518 4.5126 28.6332 4.99655 28.0718L4.23915 27.4189C3.71005 28.0326 3.28184 28.7002 3.12604 29.3966L4.10191 29.6149ZM5.67109 27.3676C6.12983 26.9289 6.65055 26.4941 7.19014 26.0711L6.5731 25.2841C6.01964 25.7181 5.47117 26.1751 4.97997 26.6448L5.67109 27.3676ZM7.9943 25.4565C8.27167 25.2489 8.54628 25.0468 8.81332 24.8502L8.22055 24.0449C7.95397 24.2411 7.67619 24.4455 7.3951 24.6559L7.9943 25.4565ZM8.81332 24.8502C8.91089 24.7784 9.00748 24.7073 9.10255 24.6372L8.50884 23.8325C8.41432 23.9022 8.3182 23.973 8.22055 24.0449L8.81332 24.8502ZM9.3923 24.4227C9.49101 24.3493 9.58782 24.2768 9.68224 24.2056L9.07974 23.4074C8.98766 23.477 8.89283 23.5479 8.79554 23.6202L9.3923 24.4227ZM9.68224 24.2056L10.5369 23.5604L9.93437 22.7623L9.07974 23.4074L9.68224 24.2056ZM11.3915 22.9152L13.1008 21.6249L12.4983 20.8268L10.789 22.1171L11.3915 22.9152ZM13.9554 20.9797L15.6647 19.6894L15.0622 18.8913L13.3529 20.1816L13.9554 20.9797ZM16.5193 19.0442L17.3739 18.3991L16.7714 17.6009L15.9168 18.2461L16.5193 19.0442ZM16.7108 18.345L17.3572 19.0232L18.081 18.3332L17.4346 17.655L16.7108 18.345ZM18.0037 19.7013L19.2966 21.0576L20.0204 20.3676L18.7275 19.0113L18.0037 19.7013ZM19.943 21.7358L21.2359 23.0921L21.9598 22.4021L20.6669 21.0458L19.943 21.7358ZM21.8824 23.7703L23.1753 25.1266L23.8991 24.4366L22.6062 23.0803L21.8824 23.7703ZM23.8218 25.8047L24.4682 26.4829L25.192 25.7929L24.5456 25.1148L23.8218 25.8047ZM24.8301 26.6379H25.8405V25.6379H24.8301V26.6379ZM26.8509 26.6379H28.8716V25.6379H26.8509V26.6379ZM29.882 26.6379H31.9028V25.6379H29.882V26.6379ZM32.9131 26.6379H34.9339V25.6379H32.9131V26.6379ZM35.9443 26.6379H37.965V25.6379H35.9443V26.6379ZM38.9754 26.6379H40.9961V25.6379H38.9754V26.6379ZM42.0065 26.6379H43.0169V25.6379H42.0065V26.6379ZM43.0169 26.6379C43.2042 26.6379 43.3884 26.6835 43.5677 26.774L44.0183 25.8813C43.7101 25.7257 43.3723 25.6379 43.0169 25.6379V26.6379ZM44.064 27.1571C44.3385 27.4512 44.5759 27.8631 44.7367 28.3643L45.6889 28.0589C45.4912 27.4425 45.1868 26.8946 44.795 26.4748L44.064 27.1571ZM44.8998 29.0698C44.9347 29.3039 44.9532 29.5483 44.9532 29.8H45.9532C45.9532 29.4993 45.9311 29.2057 45.8889 28.9224L44.8998 29.0698ZM44.9532 29.8C44.9532 30.0516 44.9347 30.296 44.8998 30.5301L45.8889 30.6775C45.9311 30.3942 45.9532 30.1006 45.9532 29.8H44.9532ZM44.7367 31.2356C44.5759 31.7368 44.3385 32.1487 44.064 32.4428L44.795 33.1252C45.1868 32.7054 45.4912 32.1574 45.6889 31.541L44.7367 31.2356ZM43.5677 32.8259C43.3884 32.9164 43.2042 32.962 43.0169 32.962V33.962C43.3723 33.962 43.7101 33.8742 44.0183 33.7186L43.5677 32.8259ZM43.0169 32.962H41.9992V33.962H43.0169V32.962ZM40.9816 32.962H38.9463V33.962H40.9816V32.962ZM37.9287 32.962H35.8934V33.962H37.9287V32.962ZM34.8758 32.962H32.8405V33.962H34.8758V32.962ZM31.8229 32.962H29.7876V33.962H31.8229V32.962ZM28.77 32.962H26.7347V33.962H28.77V32.962ZM25.717 32.962H24.6994V33.962H25.717V32.962ZM25.0642 33.1201L24.4287 32.4419L23.699 33.1258L24.3346 33.8039L25.0642 33.1201ZM23.7931 31.7638L22.522 30.4075L21.7923 31.0913L23.0635 32.4476L23.7931 31.7638ZM21.8864 29.7293L20.6153 28.373L19.8857 29.0568L21.1568 30.4131L21.8864 29.7293ZM19.9797 27.6948L18.7086 26.3385L17.979 27.0223L19.2501 28.3787L19.9797 27.6948ZM18.0731 25.6604L17.4375 24.9822L16.7079 25.666L17.3434 26.3442L18.0731 25.6604ZM16.7693 24.9266L15.8483 25.6295L16.455 26.4245L17.376 25.7216L16.7693 24.9266ZM14.9272 26.3324L13.0851 27.7382L13.6918 28.5332L15.5339 27.1274L14.9272 26.3324ZM12.1641 28.4411L10.322 29.8469L10.9287 30.6418L12.7708 29.236L12.1641 28.4411ZM9.40094 30.5498L8.47989 31.2527L9.08655 32.0476L10.0076 31.3447L9.40094 30.5498ZM8.47989 31.2527C8.3526 31.3498 8.14279 31.4678 7.86846 31.5741L8.22979 32.5065C8.56584 32.3763 8.86495 32.2167 9.08655 32.0476L8.47989 31.2527ZM7.15498 31.7775C6.68427 31.867 6.18206 31.877 5.72017 31.7564L5.46747 32.7239C6.10776 32.8911 6.76533 32.8695 7.34175 32.7599L7.15498 31.7775ZM5.0947 31.4901C4.91349 31.3769 4.74214 31.2315 4.58644 31.0462L3.82081 31.6895C4.04461 31.9558 4.29577 32.1701 4.56489 32.3382L5.0947 31.4901ZM50.5026 32.9647C50.212 32.9647 49.931 32.9256 49.6642 32.8527L49.4004 33.8172C49.7523 33.9135 50.1219 33.9647 50.5026 33.9647V32.9647ZM48.8859 32.5225C48.3983 32.2339 47.991 31.8181 47.7088 31.3192L46.8384 31.8115C47.206 32.4614 47.7373 33.0047 48.3765 33.3831L48.8859 32.5225ZM47.3896 30.5316C47.3193 30.2627 47.2817 29.9796 47.2817 29.6868H46.2817C46.2817 30.0656 46.3304 30.4336 46.4221 30.7844L47.3896 30.5316ZM47.2817 29.6868C47.2817 29.394 47.3193 29.1108 47.3896 28.8418L46.4221 28.589C46.3304 28.9399 46.2817 29.308 46.2817 29.6868H47.2817ZM47.7089 28.054C47.991 27.5548 48.3983 27.1388 48.8859 26.8499L48.3762 25.9896C47.7371 26.3682 47.2059 26.9117 46.8383 27.5618L47.7089 28.054ZM49.6642 26.5195C49.931 26.4465 50.212 26.4074 50.5026 26.4074V25.4074C50.1218 25.4074 49.7521 25.4586 49.4002 25.555L49.6642 26.5195ZM50.5026 26.4074C50.7934 26.4074 51.0745 26.4464 51.3414 26.5194L51.6052 25.5549C51.2532 25.4586 50.8834 25.4074 50.5026 25.4074V26.4074ZM52.12 26.8497C52.6079 27.1385 53.0154 27.5545 53.2977 28.0537L54.1681 27.5614C53.8004 26.9112 53.269 26.3678 52.6294 25.9892L52.12 26.8497ZM53.6171 28.8416C53.6874 29.1107 53.725 29.3939 53.725 29.6868H54.725C54.725 29.3079 54.6763 28.9398 54.5846 28.5887L53.6171 28.8416ZM53.725 29.6868C53.725 29.9797 53.6874 30.2628 53.6171 30.5318L54.5846 30.7847C54.6763 30.4337 54.725 30.0656 54.725 29.6868H53.725ZM53.2977 31.3195C53.0154 31.8184 52.6079 32.2341 52.12 32.5228L52.6291 33.3835C53.2687 33.0051 53.8003 32.4619 54.1681 31.8119L53.2977 31.3195ZM51.3414 32.8527C51.0745 32.9256 50.7934 32.9647 50.5026 32.9647V33.9647C50.8833 33.9647 51.253 33.9135 51.6049 33.8174L51.3414 32.8527Z" fill="#616161"/>
<path fill-rule="evenodd" clip-rule="evenodd" d="M1.83927 40.5555C0.647709 40.5555 0 39.7974 0 38.6881C0 37.6149 0.710327 36.8191 1.83927 36.8191H56.1607C57.2371 36.8191 58 37.6012 58 38.6881C58 39.6319 57.3265 40.5555 56.1607 40.5555H1.83927Z" stroke="#616161" stroke-dasharray="2 1"/>
<path fill-rule="evenodd" clip-rule="evenodd" d="M22.5964 34.104C22.9108 34.4192 22.6876 34.9571 22.2424 34.9571H4.98894C4.65422 34.9571 4.38287 34.6858 4.38287 34.351C4.38287 34.0163 4.65422 33.745 4.98894 33.745H7.1477C7.33842 33.745 7.52862 33.7252 7.71527 33.6861L7.9267 33.6417C8.48396 33.5249 9.00984 33.2903 9.46919 32.9539L9.95806 32.5958L15.6854 28.3807C16.0838 28.0874 16.6367 28.1296 16.9861 28.4798L22.5964 34.104Z" fill="url(#paint0_linear_1706_15287)"/>
</g>
<defs>
<linearGradient id="paint0_linear_1706_15287" x1="9.74478" y1="29.1255" x2="11.4884" y2="35.9576" gradientUnits="userSpaceOnUse">
<stop stop-color="#FF8120"/>
<stop offset="1" stop-color="#E54304"/>
</linearGradient>
<clipPath id="clip0_1706_15287">
<rect width="58" height="58" fill="white"/>
</clipPath>
</defs>
</svg>
