<svg width="58" height="58" viewBox="0 0 58 58" fill="none" xmlns="http://www.w3.org/2000/svg">
<mask id="mask0_1706_15281" style="mask-type:luminance" maskUnits="userSpaceOnUse" x="0" y="12" width="58" height="39">
<rect y="12" width="58" height="38.1143" fill="white"/>
</mask>
<g mask="url(#mask0_1706_15281)">
<path d="M46.1988 32.0294L46.6984 32.0059L46.6978 31.9971L46.1988 32.0294ZM41.1178 8.763L40.6733 8.9919L40.6734 8.99221L41.1178 8.763ZM40.4315 32.129L40.9314 32.1412L40.9316 32.1328L40.9315 32.1244L40.4315 32.129ZM38.9351 17.9672L39.414 17.8237L38.4351 17.9672H38.9351ZM38.941 35.1821L39.4356 35.1088L39.4356 35.1088L38.941 35.1821ZM31.6334 39.3069H32.1334V38.8069H31.6334V39.3069ZM29.363 39.3069V38.8069H28.863V39.3069H29.363ZM22.0493 17.9672H22.5493L21.5704 17.8236L22.0493 17.9672ZM20.5528 32.129L20.0529 32.1245L20.0528 32.1327L20.053 32.1409L20.5528 32.129ZM14.7855 32.0294L14.2865 31.9971L14.2861 32.0059L14.7855 32.0294ZM19.8648 8.763L20.3092 8.99221L20.3092 8.99212L19.8648 8.763ZM25.8988 5.71124V5.21123L25.8953 5.21125L25.8988 5.71124ZM35.0856 5.71124L35.089 5.21124H35.0856V5.71124ZM37.078 -3.76246C37.078 -4.15438 37.0446 -4.53882 36.9806 -4.91292L35.9949 -4.74419C36.0495 -4.42561 36.078 -4.09761 36.078 -3.76246H37.078ZM36.6886 -6.03071C36.4263 -6.76789 36.04 -7.44481 35.5552 -8.03549L34.7823 -7.40108C35.1947 -6.89856 35.5233 -6.32265 35.7464 -5.69556L36.6886 -6.03071ZM34.7472 -8.86236C34.1645 -9.36332 33.4941 -9.76381 32.7621 -10.0366L32.4129 -9.09953C33.0319 -8.86887 33.6002 -8.52968 34.0953 -8.10406L34.7472 -8.86236ZM31.6445 -10.3424C31.2696 -10.4096 30.884 -10.4446 30.4907 -10.4446V-9.4446C30.8245 -9.4446 31.151 -9.4149 31.468 -9.35806L31.6445 -10.3424ZM30.4907 -10.4446C30.0975 -10.4446 29.7119 -10.4096 29.337 -10.3423L29.5136 -9.35801C29.8305 -9.41488 30.157 -9.4446 30.4907 -9.4446V-10.4446ZM28.2195 -10.0364C27.4877 -9.76349 26.8176 -9.3629 26.235 -8.86186L26.8871 -8.10369C27.382 -8.5294 27.9502 -8.86866 28.5689 -9.09937L28.2195 -10.0364ZM25.4273 -8.03495C24.9427 -7.44431 24.5565 -6.76745 24.2944 -6.03036L25.2366 -5.69528C25.4596 -6.32232 25.7881 -6.89818 26.2004 -7.40068L25.4273 -8.03495ZM24.0025 -4.91273C23.9384 -4.53869 23.9051 -4.15431 23.9051 -3.76246H24.9051C24.9051 -4.09756 24.9336 -4.4255 24.9881 -4.74404L24.0025 -4.91273ZM23.9051 -3.76246C23.9051 -3.37061 23.9384 -2.98623 24.0025 -2.61219L24.9881 -2.78089C24.9336 -3.09942 24.9051 -3.42737 24.9051 -3.76246H23.9051ZM24.2944 -1.49456C24.5565 -0.757474 24.9427 -0.080615 25.4273 0.510026L26.2004 -0.124249C25.7881 -0.626747 25.4596 -1.20261 25.2366 -1.82965L24.2944 -1.49456ZM26.235 1.33693C26.8176 1.83798 27.4877 2.23856 28.2195 2.51143L28.5689 1.57444C27.9502 1.34373 27.382 1.00447 26.8871 0.578765L26.235 1.33693ZM29.337 2.81736C29.7119 2.88464 30.0975 2.91967 30.4907 2.91967V1.91967C30.157 1.91967 29.8305 1.88995 29.5136 1.83308L29.337 2.81736ZM30.4907 2.91967C30.884 2.91967 31.2696 2.88466 31.6445 2.81743L31.468 1.83313C31.151 1.88997 30.8245 1.91967 30.4907 1.91967V2.91967ZM32.7621 2.51165C33.4941 2.23888 34.1645 1.83839 34.7472 1.33743L34.0953 0.579128C33.6002 1.00476 33.0319 1.34395 32.4129 1.5746L32.7621 2.51165ZM35.5552 0.51056C36.04 -0.0801144 36.4263 -0.757039 36.6886 -1.49421L35.7464 -1.82937C35.5233 -1.20228 35.1947 -0.626369 34.7823 -0.123853L35.5552 0.51056ZM36.9806 -2.61201C37.0446 -2.98611 37.078 -3.37055 37.078 -3.76246H36.078C36.078 -3.42732 36.0495 -3.09932 35.9949 -2.78074L36.9806 -2.61201ZM46.6978 31.9971C46.6757 31.6564 46.653 31.3211 46.6296 30.9909L45.6321 31.0615C45.6553 31.3897 45.6779 31.7231 45.6999 32.0618L46.6978 31.9971ZM46.5555 29.989C46.5023 29.3009 46.4464 28.6362 46.3877 27.9939L45.3919 28.0849C45.4501 28.7223 45.5057 29.3823 45.5584 30.066L46.5555 29.989ZM46.2925 26.9945C46.2236 26.3009 46.1515 25.6346 46.0764 24.994L45.0832 25.1106C45.1576 25.7449 45.2291 26.4053 45.2974 27.0933L46.2925 26.9945ZM45.9542 23.9961C45.8655 23.3009 45.7731 22.6376 45.6774 22.0042L44.6886 22.1536C44.7832 22.7791 44.8745 23.4347 44.9623 24.1227L45.9542 23.9961ZM45.5205 21.0106C45.4055 20.3132 45.2862 19.6541 45.1633 19.0298L44.1821 19.2231C44.303 19.8367 44.4204 20.4856 44.5338 21.1733L45.5205 21.0106ZM44.9589 18.0388C44.8078 17.3393 44.6518 16.6865 44.492 16.0745L43.5244 16.3273C43.6805 16.9248 43.8332 17.5637 43.9814 18.25L44.9589 18.0388ZM44.2235 15.0966C44.0227 14.4 43.8168 13.7601 43.6075 13.1662L42.6644 13.4984C42.867 14.0738 43.0671 14.6953 43.2627 15.3736L44.2235 15.0966ZM43.2548 12.2136C42.9906 11.5343 42.7234 10.9182 42.4568 10.3444L41.5499 10.7658C41.8086 11.3227 42.0673 11.9191 42.3228 12.5761L43.2548 12.2136ZM42.0176 9.43155C41.8644 9.1229 41.7123 8.8248 41.5622 8.53379L40.6734 8.99221C40.8223 9.28078 40.9719 9.57384 41.1218 9.87608L42.0176 9.43155ZM41.5623 8.5341C41.3535 8.12863 41.1045 7.77109 40.827 7.4565L40.0771 8.11799C40.3018 8.37275 40.5035 8.66221 40.6733 8.9919L41.5623 8.5341ZM39.8592 6.59211C39.1183 6.06921 38.3021 5.74576 37.5551 5.54491L37.2954 6.51062C37.9635 6.69023 38.6632 6.97201 39.2825 7.4091L39.8592 6.59211ZM36.3318 5.30131C35.8008 5.22995 35.3609 5.21313 35.089 5.21125L35.0821 6.21123C35.3214 6.21288 35.718 6.22781 36.1987 6.2924L36.3318 5.30131ZM35.0856 5.21124C35.0931 5.21124 35.0995 5.21144 35.1047 5.21169L35.0567 6.21054C35.0651 6.21094 35.0748 6.21124 35.0856 6.21124V5.21124ZM35.116 5.21241L35.1169 5.21248L35.025 6.20825C35.0261 6.20835 35.0306 6.20877 35.0356 6.20917L35.116 5.21241ZM35.1169 5.21248C35.1158 5.21238 35.1113 5.21196 35.1063 5.21155L35.0259 6.20831L35.025 6.20825L35.1169 5.21248ZM35.0852 5.21019C35.0768 5.20979 35.0671 5.20949 35.0563 5.20949V6.20949C35.0489 6.20949 35.0424 6.20929 35.0372 6.20904L35.0852 5.21019ZM35.0563 5.20949H34.0419V6.20949H35.0563V5.20949ZM33.0274 5.20949H30.9985V6.20949H33.0274V5.20949ZM29.9841 5.20949H27.9552V6.20949H29.9841V5.20949ZM26.9407 5.20949H25.9263V6.20949H26.9407V5.20949ZM25.9263 5.20949C25.9134 5.20949 25.9024 5.20994 25.8943 5.21038L25.9491 6.20888C25.9441 6.20915 25.9362 6.20949 25.9263 6.20949V5.20949ZM25.8755 5.21169C25.8714 5.21203 25.8677 5.21238 25.8666 5.21248L25.9585 6.20825L25.9587 6.20822L25.8755 5.21169ZM25.8666 5.21248L25.8664 5.21251L25.9495 6.20904C25.9536 6.2087 25.9574 6.20835 25.9585 6.20825L25.8666 5.21248ZM25.8759 5.21185C25.8809 5.21158 25.8888 5.21124 25.8988 5.21124V6.21124C25.9117 6.21124 25.9227 6.21079 25.9308 6.21035L25.8759 5.21185ZM25.8953 5.21125C25.6234 5.21313 25.1834 5.22995 24.6523 5.30133L24.7855 6.29243C25.2662 6.22782 25.6629 6.21288 25.9022 6.21123L25.8953 5.21125ZM23.4288 5.54499C22.6818 5.74586 21.8654 6.06933 21.1244 6.5922L21.7009 7.40928C22.3204 6.97214 23.0204 6.69033 23.6885 6.51069L23.4288 5.54499ZM20.1562 7.45647C19.8786 7.77101 19.6294 8.12848 19.4204 8.53389L20.3092 8.99212C20.4792 8.66243 20.6811 8.37296 20.906 8.1182L20.1562 7.45647ZM19.4205 8.53379C19.2703 8.82481 19.1182 9.12291 18.965 9.43157L19.8608 9.87605C20.0108 9.57382 20.1603 9.28077 20.3092 8.99221L19.4205 8.53379ZM18.5259 10.3445C18.2594 10.9183 17.9922 11.5344 17.7281 12.2137L18.6602 12.5761C18.9156 11.9191 19.1742 11.3227 19.4329 10.7657L18.5259 10.3445ZM17.3755 13.1663C17.1664 13.7602 16.9605 14.4001 16.7598 15.0968L17.7207 15.3737C17.9162 14.6953 18.1161 14.0739 18.3187 13.4984L17.3755 13.1663ZM16.4915 16.0747C16.3317 16.6867 16.1758 17.3395 16.0248 18.039L17.0023 18.2501C17.1504 17.5638 17.303 16.9249 17.459 16.3274L16.4915 16.0747ZM15.8205 19.03C15.6976 19.6543 15.5784 20.3134 15.4635 21.0108L16.4502 21.1734C16.5635 20.4857 16.6808 19.8368 16.8016 19.2232L15.8205 19.03ZM15.3067 22.0043C15.2109 22.6378 15.1185 23.301 15.0299 23.9963L16.0219 24.1228C16.1096 23.4348 16.2009 22.7792 16.2954 22.1538L15.3067 22.0043ZM14.9078 24.9942C14.8327 25.6347 14.7606 26.301 14.6918 26.9946L15.6869 27.0934C15.7551 26.4054 15.8266 25.745 15.901 25.1106L14.9078 24.9942ZM14.5966 27.994C14.5379 28.6363 14.482 29.3009 14.4289 29.989L15.4259 30.066C15.4787 29.3824 15.5342 28.7224 15.5924 28.0849L14.5966 27.994ZM14.3548 30.9909C14.3314 31.3211 14.3086 31.6564 14.2865 31.9971L15.2844 32.0618C15.3064 31.7231 15.329 31.3897 15.3523 31.0615L14.3548 30.9909ZM14.7855 32.0294C14.2861 32.0059 14.286 32.006 14.286 32.0061C14.286 32.0061 14.286 32.0062 14.286 32.0062C14.286 32.0063 14.286 32.0065 14.286 32.0066C14.286 32.0068 14.286 32.0071 14.286 32.0074C14.286 32.008 14.2859 32.0086 14.2859 32.0094C14.2858 32.0109 14.2858 32.0127 14.2857 32.0148C14.2855 32.0191 14.2853 32.0247 14.2852 32.0316C14.2848 32.0453 14.2844 32.064 14.2843 32.0874C14.2841 32.134 14.2849 32.1992 14.2887 32.2793C14.2961 32.4391 14.3154 32.6612 14.3628 32.9158L15.3459 32.7327C15.3085 32.5318 15.2933 32.3565 15.2876 32.2327C15.2847 32.1711 15.2842 32.123 15.2843 32.0918C15.2844 32.0762 15.2846 32.0649 15.2848 32.0582C15.2849 32.0549 15.285 32.0528 15.285 32.0519C15.285 32.0514 15.285 32.0513 15.285 32.0515C15.285 32.0516 15.285 32.0517 15.285 32.052C15.285 32.0521 15.285 32.0522 15.285 32.0524C15.285 32.0525 15.285 32.0526 15.285 32.0527C15.285 32.0527 15.285 32.0528 15.285 32.0528C15.2849 32.0529 15.2849 32.053 14.7855 32.0294ZM14.6219 33.7865C14.8424 34.3042 15.2153 34.8501 15.8407 35.2225L16.3523 34.3632C15.9558 34.1272 15.7034 33.7739 15.5419 33.3946L14.6219 33.7865ZM16.7249 35.5725C17.0017 35.6364 17.3035 35.6703 17.6322 35.6703V34.6703C17.3724 34.6703 17.1465 34.6435 16.95 34.5981L16.7249 35.5725ZM17.6322 35.6703C17.9554 35.6703 18.2529 35.6384 18.5265 35.5784L18.3122 34.6016C18.1148 34.6449 17.8895 34.6703 17.6322 34.6703V35.6703ZM19.4027 35.2511C20.0335 34.899 20.4227 34.3784 20.6604 33.8771L19.7568 33.4488C19.5852 33.8108 19.3225 34.1506 18.9153 34.3778L19.4027 35.2511ZM20.9498 33.0214C21.0056 32.7693 21.0313 32.5489 21.0431 32.3901C21.049 32.3104 21.0515 32.2455 21.0524 32.1989C21.0529 32.1756 21.053 32.1569 21.053 32.1431C21.053 32.1362 21.0529 32.1306 21.0529 32.1262C21.0528 32.1241 21.0528 32.1222 21.0528 32.1207C21.0528 32.1199 21.0527 32.1193 21.0527 32.1187C21.0527 32.1184 21.0527 32.1181 21.0527 32.1178C21.0527 32.1177 21.0527 32.1176 21.0527 32.1175C21.0527 32.1174 21.0527 32.1173 21.0527 32.1173C21.0527 32.1172 21.0527 32.1171 20.5528 32.129C20.053 32.1409 20.053 32.1408 20.053 32.1407C20.053 32.1407 20.053 32.1406 20.053 32.1406C20.053 32.1405 20.053 32.1404 20.053 32.1403C20.053 32.1401 20.053 32.14 20.053 32.1398C20.053 32.1396 20.0529 32.1394 20.0529 32.1393C20.0529 32.1391 20.0529 32.1391 20.0529 32.1395C20.053 32.1403 20.053 32.1424 20.053 32.1455C20.053 32.1519 20.053 32.1629 20.0526 32.1781C20.052 32.2085 20.0503 32.2556 20.0458 32.316C20.0368 32.4372 20.0169 32.609 19.9734 32.8055L20.9498 33.0214ZM20.5528 32.129C21.0528 32.1336 21.0528 32.1336 21.0528 32.1336V32.1336C21.0528 32.1336 21.0528 32.1336 21.0528 32.1335C21.0528 32.1335 21.0528 32.1335 21.0528 32.1334C21.0528 32.1333 21.0528 32.133 21.0528 32.1327C21.0528 32.1321 21.0528 32.1312 21.0529 32.1299C21.0529 32.1273 21.0529 32.1234 21.053 32.1182C21.0531 32.1078 21.0533 32.0921 21.0535 32.0713C21.0541 32.0298 21.0549 31.9679 21.0563 31.8874C21.0589 31.7264 21.0635 31.4906 21.071 31.1928L20.0714 31.1674C20.0637 31.4684 20.0591 31.7071 20.0564 31.8708C20.055 31.9527 20.0542 32.0158 20.0536 32.0586C20.0533 32.08 20.0532 32.0963 20.053 32.1074C20.053 32.1129 20.0529 32.1171 20.0529 32.1199C20.0529 32.1214 20.0529 32.1225 20.0529 32.1232C20.0529 32.1236 20.0529 32.1239 20.0529 32.1241C20.0529 32.1242 20.0529 32.1243 20.0529 32.1243C20.0529 32.1244 20.0529 32.1244 20.0529 32.1244C20.0529 32.1244 20.0529 32.1244 20.0529 32.1244C20.0529 32.1245 20.0529 32.1245 20.5528 32.129ZM21.0996 30.2447C21.1185 29.6978 21.1449 29.0562 21.1815 28.3522L20.1829 28.3002C20.1459 29.0108 20.1193 29.6582 20.1002 30.2101L21.0996 30.2447ZM21.2351 27.4056C21.2721 26.8018 21.3164 26.1671 21.3696 25.5181L20.3729 25.4364C20.3191 26.0931 20.2743 26.7347 20.237 27.3445L21.2351 27.4056ZM21.4525 24.5753C21.5113 23.9497 21.5787 23.319 21.6559 22.6975L20.6635 22.5743C20.585 23.2071 20.5165 23.8477 20.4569 24.4816L21.4525 24.5753ZM21.7806 21.7634C21.8727 21.1213 21.9762 20.4987 22.0922 19.9121L21.1113 19.7179C20.9911 20.3252 20.8848 20.9655 20.7907 21.6214L21.7806 21.7634ZM22.2899 19.0025C22.3651 18.6881 22.4445 18.3899 22.5282 18.1109L21.5704 17.8236C21.4804 18.1234 21.3963 18.44 21.3174 18.7698L22.2899 19.0025ZM21.5493 17.9672V18.9271H22.5493V17.9672H21.5493ZM21.5493 19.887V21.8068H22.5493V19.887H21.5493ZM21.5493 22.7667V24.6865H22.5493V22.7667H21.5493ZM21.5493 25.6464V27.5662H22.5493V25.6464H21.5493ZM21.5493 28.5261V30.4459H22.5493V28.5261H21.5493ZM21.5493 31.4058V33.3256H22.5493V31.4058H21.5493ZM21.5493 34.2855V35.2454H22.5493V34.2855H21.5493ZM21.5493 35.2454V35.2867H22.5493V35.2454H21.5493ZM21.5493 35.3281V35.3694H22.5493V35.3281H21.5493ZM21.5493 35.3694V36.3341H22.5493V35.3694H21.5493ZM21.5493 37.2987V39.2281H22.5493V37.2987H21.5493ZM21.5493 40.1927V42.122H22.5493V40.1927H21.5493ZM21.5493 43.0867V45.016H22.5493V43.0867H21.5493ZM21.5493 45.9806V47.9099H22.5493V45.9806H21.5493ZM21.5493 48.8746V50.8039H22.5493V48.8746H21.5493ZM21.5493 51.7686V53.6979H22.5493V51.7686H21.5493ZM21.5493 54.6625V56.5918H22.5493V54.6625H21.5493ZM21.5493 57.5565V59.4858H22.5493V57.5565H21.5493ZM21.5493 60.4505V61.4151H22.5493V60.4505H21.5493ZM21.5493 61.4151C21.5493 61.7881 21.5972 62.1506 21.6875 62.4961L22.655 62.2434C22.5862 61.9797 22.5493 61.7022 22.5493 61.4151H21.5493ZM22.0974 63.5076C22.4594 64.1478 22.9826 64.683 23.6121 65.0558L24.1216 64.1954C23.6438 63.9123 23.2445 63.5046 22.9679 63.0154L22.0974 63.5076ZM24.6205 65.4836C24.9671 65.5785 25.3312 65.6289 25.7061 65.6289V64.6289C25.4213 64.6289 25.1459 64.5906 24.8844 64.5191L24.6205 65.4836ZM25.7061 65.6289C26.0811 65.6289 26.4452 65.5785 26.7918 65.4836L26.5278 64.5191C26.2663 64.5906 25.991 64.6289 25.7061 64.6289V65.6289ZM27.8002 65.0558C28.4297 64.683 28.9528 64.1478 29.3148 63.5076L28.4443 63.0154C28.1677 63.5046 27.7685 63.9123 27.2906 64.1954L27.8002 65.0558ZM29.7247 62.4961C29.815 62.1506 29.863 61.7881 29.863 61.4151H28.863C28.863 61.7022 28.8261 61.9797 28.7572 62.2434L29.7247 62.4961ZM29.863 61.4151V60.3623H28.863V61.4151H29.863ZM29.863 59.3096V57.204H28.863V59.3096H29.863ZM29.863 56.1512V54.0457H28.863V56.1512H29.863ZM29.863 52.9929V50.8874H28.863V52.9929H29.863ZM29.863 49.8346V47.729H28.863V49.8346H29.863ZM29.863 46.6763V44.5707H28.863V46.6763H29.863ZM29.863 43.518V41.4124H28.863V43.518H29.863ZM29.863 40.3596V39.3069H28.863V40.3596H29.863ZM29.363 39.8069H30.1198V38.8069H29.363V39.8069ZM30.8766 39.8069H31.6334V38.8069H30.8766V39.8069ZM31.1334 39.3069V40.3596H32.1334V39.3069H31.1334ZM31.1334 41.4124V43.518H32.1334V41.4124H31.1334ZM31.1334 44.5707V46.6763H32.1334V44.5707H31.1334ZM31.1334 47.729V49.8346H32.1334V47.729H31.1334ZM31.1334 50.8874V52.9929H32.1334V50.8874H31.1334ZM31.1334 54.0457V56.1512H32.1334V54.0457H31.1334ZM31.1334 57.204V59.3096H32.1334V57.204H31.1334ZM31.1334 60.3623V61.4151H32.1334V60.3623H31.1334ZM31.1334 61.4151C31.1334 61.7881 31.1814 62.1506 31.2716 62.4961L32.2392 62.2434C32.1703 61.9797 32.1334 61.7022 32.1334 61.4151H31.1334ZM31.6816 63.5076C32.0436 64.1478 32.5667 64.683 33.1962 65.0558L33.7058 64.1954C33.2279 63.9123 32.8287 63.5046 32.5521 63.0154L31.6816 63.5076ZM34.2046 65.4836C34.5512 65.5785 34.9153 65.6289 35.2903 65.6289V64.6289C35.0054 64.6289 34.7301 64.5906 34.4686 64.5191L34.2046 65.4836ZM35.2903 65.6289C35.6652 65.6289 36.0293 65.5785 36.3759 65.4836L36.1119 64.5191C35.8505 64.5906 35.5751 64.6289 35.2903 64.6289V65.6289ZM37.3843 65.0558C38.0138 64.683 38.537 64.1478 38.8989 63.5076L38.0285 63.0154C37.7519 63.5046 37.3526 63.9123 36.8747 64.1954L37.3843 65.0558ZM39.3089 62.4961C39.3992 62.1506 39.4471 61.7881 39.4471 61.4151H38.4471C38.4471 61.7022 38.4102 61.9797 38.3413 62.2434L39.3089 62.4961ZM39.4471 61.4151V60.4459H38.4471V61.4151H39.4471ZM39.4471 59.4766V57.5381H38.4471V59.4766H39.4471ZM39.4471 56.5689V54.6304H38.4471V56.5689H39.4471ZM39.4471 53.6611V51.7226H38.4471V53.6611H39.4471ZM39.4471 50.7534V48.8149H38.4471V50.7534H39.4471ZM39.4471 47.8456V45.9071H38.4471V47.8456H39.4471ZM39.4471 44.9379V42.9994H38.4471V44.9379H39.4471ZM39.4471 42.0301V40.0916H38.4471V42.0301H39.4471ZM39.4471 39.1224V37.1839H38.4471V39.1224H39.4471ZM39.4471 36.2147V35.2454H38.4471V36.2147H39.4471ZM39.4471 35.2454C39.4471 35.2231 39.4461 35.2028 39.4447 35.1851L38.4478 35.2634C38.4475 35.2595 38.4471 35.2533 38.4471 35.2454H39.4471ZM39.4398 35.1386C39.4382 35.1264 39.4365 35.1151 39.4356 35.1088L38.4464 35.2554C38.4475 35.2631 38.4479 35.2657 38.4482 35.2676L39.4398 35.1386ZM39.4356 35.1088C39.4345 35.1014 39.4341 35.0988 39.4339 35.097L38.4424 35.2269C38.4439 35.2385 38.4455 35.2494 38.4464 35.2554L39.4356 35.1088ZM39.4343 35.1017C39.4346 35.1058 39.4351 35.1126 39.4351 35.1214H38.4351C38.4351 35.1439 38.4361 35.1642 38.4375 35.1818L39.4343 35.1017ZM39.4351 35.1214V34.1684H38.4351V35.1214H39.4351ZM39.4351 33.2154V31.3093H38.4351V33.2154H39.4351ZM39.4351 30.3563V28.4503H38.4351V30.3563H39.4351ZM39.4351 27.4973V25.5913H38.4351V27.4973H39.4351ZM39.4351 24.6383V22.7323H38.4351V24.6383H39.4351ZM39.4351 21.7792V19.8732H38.4351V21.7792H39.4351ZM39.4351 18.9202V17.9672H38.4351V18.9202H39.4351ZM38.4561 18.1107C38.5397 18.3898 38.619 18.688 38.6941 19.0024L39.6667 18.77C39.5879 18.4402 39.5038 18.1235 39.414 17.8237L38.4561 18.1107ZM38.8916 19.9121C39.0076 20.4987 39.111 21.1213 39.2031 21.7635L40.193 21.6216C40.0989 20.9657 39.9927 20.3253 39.8727 19.7181L38.8916 19.9121ZM39.3277 22.6976C39.4048 23.3191 39.4722 23.9498 39.5311 24.5754L40.5267 24.4817C40.4671 23.8478 40.3986 23.2072 40.3201 22.5745L39.3277 22.6976ZM39.614 25.5182C39.6672 26.1672 39.7116 26.8019 39.7487 27.4057L40.7468 27.3445C40.7094 26.7348 40.6645 26.0931 40.6107 25.4365L39.614 25.5182ZM39.8023 28.3523C39.839 29.0563 39.8655 29.6979 39.8845 30.2448L40.8839 30.2101C40.8647 29.6582 40.838 29.0107 40.801 28.3002L39.8023 28.3523ZM39.9132 31.1929C39.9207 31.4907 39.9253 31.7265 39.928 31.8875C39.9294 31.968 39.9303 32.0298 39.9308 32.0714C39.9311 32.0922 39.9313 32.1079 39.9314 32.1183C39.9314 32.1235 39.9315 32.1274 39.9315 32.13C39.9315 32.1313 39.9315 32.1322 39.9315 32.1328C39.9315 32.1331 39.9315 32.1334 39.9315 32.1335C39.9315 32.1336 39.9315 32.1336 39.9315 32.1336C39.9315 32.1336 39.9315 32.1337 39.9315 32.1337C39.9315 32.1337 39.9315 32.1337 39.9315 32.1337C39.9315 32.1336 39.9315 32.1336 40.4315 32.129C40.9315 32.1244 40.9315 32.1244 40.9315 32.1244C40.9315 32.1243 40.9315 32.1243 40.9315 32.1243C40.9315 32.1243 40.9315 32.1243 40.9315 32.1243C40.9315 32.1242 40.9315 32.1241 40.9315 32.124C40.9315 32.1238 40.9315 32.1235 40.9315 32.1231C40.9315 32.1224 40.9315 32.1213 40.9314 32.1199C40.9314 32.117 40.9314 32.1128 40.9313 32.1073C40.9312 32.0962 40.931 32.0799 40.9307 32.0585C40.9302 32.0157 40.9293 31.9526 40.9279 31.8708C40.9252 31.7071 40.9205 31.4684 40.9128 31.1674L39.9132 31.1929ZM40.4315 32.129C39.9317 32.1168 39.9317 32.1169 39.9316 32.117C39.9316 32.117 39.9316 32.1171 39.9316 32.1172C39.9316 32.1173 39.9316 32.1174 39.9316 32.1175C39.9316 32.1178 39.9316 32.1181 39.9316 32.1184C39.9316 32.119 39.9316 32.1196 39.9316 32.1204C39.9315 32.1219 39.9315 32.1238 39.9315 32.1259C39.9314 32.1303 39.9314 32.1359 39.9314 32.1428C39.9313 32.1566 39.9314 32.1754 39.9319 32.1987C39.9328 32.2452 39.9353 32.3102 39.9412 32.3899C39.9529 32.5488 39.9785 32.7692 40.0341 33.0214L41.0106 32.8058C40.9672 32.6093 40.9474 32.4375 40.9384 32.3163C40.934 32.2559 40.9323 32.2088 40.9317 32.1784C40.9314 32.1632 40.9313 32.1522 40.9313 32.1458C40.9314 32.1426 40.9314 32.1406 40.9314 32.1398C40.9314 32.1394 40.9314 32.1393 40.9314 32.1396C40.9314 32.1397 40.9314 32.1399 40.9314 32.1401C40.9314 32.1403 40.9314 32.1404 40.9314 32.1406C40.9314 32.1407 40.9314 32.1408 40.9314 32.1409C40.9314 32.1409 40.9314 32.141 40.9314 32.141C40.9314 32.1411 40.9314 32.1412 40.4315 32.129ZM40.3234 33.8773C40.561 34.3787 40.9504 34.8994 41.5816 35.2514L42.0686 34.378C41.6612 34.1508 41.3986 33.811 41.2271 33.4491L40.3234 33.8773ZM42.4579 35.5785C42.7314 35.6385 43.029 35.6703 43.3522 35.6703V34.6703C43.0948 34.6703 42.8694 34.645 42.672 34.6017L42.4579 35.5785ZM43.3522 35.6703C43.6808 35.6703 43.9827 35.6364 44.2595 35.5725L44.0344 34.5981C43.8378 34.6435 43.6119 34.6703 43.3522 34.6703V35.6703ZM45.1437 35.2225C45.7691 34.8501 46.142 34.3042 46.3625 33.7865L45.4424 33.3946C45.2809 33.7739 45.0285 34.1272 44.6321 34.3632L45.1437 35.2225ZM46.6215 32.9158C46.6689 32.6612 46.6882 32.4391 46.6957 32.2793C46.6994 32.1992 46.7002 32.134 46.7 32.0874C46.6999 32.064 46.6996 32.0453 46.6992 32.0316C46.699 32.0247 46.6988 32.0191 46.6987 32.0148C46.6986 32.0127 46.6985 32.0109 46.6984 32.0094C46.6984 32.0086 46.6984 32.008 46.6984 32.0074C46.6983 32.0071 46.6983 32.0068 46.6983 32.0066C46.6983 32.0065 46.6983 32.0063 46.6983 32.0062C46.6983 32.0062 46.6983 32.0061 46.6983 32.0061C46.6983 32.006 46.6983 32.0059 46.1988 32.0294C45.6994 32.053 45.6994 32.0529 45.6994 32.0528C45.6994 32.0528 45.6994 32.0527 45.6994 32.0527C45.6994 32.0526 45.6994 32.0525 45.6994 32.0524C45.6994 32.0522 45.6994 32.0521 45.6994 32.052C45.6993 32.0517 45.6993 32.0516 45.6993 32.0515C45.6993 32.0513 45.6993 32.0514 45.6993 32.0519C45.6994 32.0528 45.6995 32.0549 45.6995 32.0582C45.6997 32.0649 45.7 32.0762 45.7 32.0918C45.7002 32.123 45.6996 32.1711 45.6968 32.2327C45.691 32.3565 45.6758 32.5318 45.6384 32.7327L46.6215 32.9158Z" fill="#616161"/>
</g>
<path fill-rule="evenodd" clip-rule="evenodd" d="M31.9395 30.0105H29.0429V27.0818H22.0355V33.2499C22.0355 33.2499 25.7061 32.8394 27.3625 34.8588C29.0189 36.8764 29.3784 39.495 29.3784 39.495H30.4913H31.6248C31.6248 39.495 31.9637 36.8764 33.6201 34.8588C35.2765 32.8394 38.9471 33.2499 38.9471 33.2499V27.0818H31.9395V30.0105Z" fill="url(#paint0_linear_1706_15281)"/>
<defs>
<linearGradient id="paint0_linear_1706_15281" x1="26.7919" y1="29.2799" x2="31.9147" y2="39.4454" gradientUnits="userSpaceOnUse">
<stop stop-color="#FF8120"/>
<stop offset="1" stop-color="#E54304"/>
</linearGradient>
</defs>
</svg>
