<svg width="58" height="58" viewBox="0 0 58 58" fill="none" xmlns="http://www.w3.org/2000/svg">
<g clip-path="url(#clip0_1706_15277)">
<path fill-rule="evenodd" clip-rule="evenodd" d="M58.9952 43.1978C59.0027 43.776 58.9998 48.1877 58.9973 50.8364C58.9963 51.94 58.1012 52.8322 56.9976 52.8322H28.6183C27.4712 52.8322 27.2227 51.217 28.3187 50.8784C37.7189 47.9735 54.5087 42.7858 56.6419 42.1321C57.8544 41.7605 58.9844 42.3643 58.9952 43.1978Z" fill="url(#paint0_linear_1706_15277)"/>
<path fill-rule="evenodd" clip-rule="evenodd" d="M2.08311 20.1267L5.62082 18.88C5.64781 18.8705 5.67499 18.8622 5.70228 18.8551C6.09319 18.7268 6.54636 18.8496 6.81162 19.1854L8.96029 21.9055C9.05306 21.811 9.15583 21.7229 9.26842 21.6427C10.3125 20.8989 11.8046 21.1147 12.6022 22.1244L19.2923 30.5954L34.6037 25.1998L34.6193 25.194L34.6273 25.1911C34.7954 25.1319 34.9709 25.124 35.1349 25.1592C35.4248 25.2211 35.6792 25.4175 35.794 25.7029L35.8015 25.722L35.805 25.7315L38.6439 32.7846C38.8827 32.7586 39.1214 32.7783 39.3475 32.8384C39.5771 32.8727 39.8044 32.9492 40.0174 33.0706L48.9168 38.1388C49.0392 38.2085 49.1505 38.2894 49.25 38.3793L55.5258 36.1677C56.2087 35.9271 56.9761 36.2629 57.2401 36.919C57.5042 37.5751 57.1647 38.3022 56.4818 38.5428L48.686 41.29C48.6674 41.2969 48.6486 41.3035 48.6298 41.3098L48.5932 41.3227C48.4721 41.3653 48.3484 41.3898 48.2252 41.3976C47.8378 41.4387 47.4316 41.3628 47.0675 41.1556L40.5099 37.4204L41.8435 40.7336C43.0791 40.6794 44.2834 41.3667 44.7914 42.5251C45.4335 43.9895 44.7191 45.6536 43.1959 46.241C41.6722 46.8272 39.9177 46.1167 39.2756 44.6523C38.7433 43.4385 39.1423 42.0878 40.1618 41.3266L38.2741 36.6367L23.8727 41.7115C23.1066 41.9815 22.2639 41.7293 21.7732 41.1431C21.6571 41.0438 21.5494 40.9323 21.4519 40.809L8.82202 24.8169C8.79159 24.7784 8.76262 24.7393 8.73509 24.6996L5.69936 20.8556L2.78928 21.8811C2.28406 22.0591 1.71781 21.8107 1.52287 21.3264C1.32747 20.8409 1.57789 20.3047 2.08311 20.1267ZM20.4322 32.0388L24.825 37.601L36.9434 33.3306L34.437 27.1037L20.4322 32.0388Z" fill="white"/>
<path d="M5.70228 18.8551L5.84847 19.3314L5.86379 19.3274L5.87878 19.3225L5.70228 18.8551ZM6.81162 19.1854L7.21011 18.8936L7.21011 18.8936L6.81162 19.1854ZM8.96029 21.9055L8.5618 22.1973L8.92956 22.6629L9.3329 22.2516L8.96029 21.9055ZM9.26842 21.6427L8.95985 21.2419L8.95985 21.2419L9.26842 21.6427ZM12.6022 22.1244L13.0008 21.8327L13.0007 21.8326L12.6022 22.1244ZM19.2923 30.5954L18.8938 30.8871L19.1275 31.1831L19.479 31.0593L19.2923 30.5954ZM34.6037 25.1998L34.7905 25.6638L34.7989 25.6607L34.6037 25.1998ZM34.6193 25.194L34.4305 24.7308L34.4242 24.7332L34.6193 25.194ZM34.6273 25.1911L34.4406 24.7272L34.4385 24.728L34.6273 25.1911ZM35.1349 25.1592L35.0414 25.6402L35.0418 25.6403L35.1349 25.1592ZM35.794 25.7029L36.2678 25.5422L36.2655 25.5368L35.794 25.7029ZM35.8015 25.722L36.2783 25.5695L36.2752 25.5614L35.8015 25.722ZM35.805 25.7315L35.3282 25.884L35.3307 25.8908L35.3335 25.8977L35.805 25.7315ZM38.6439 32.7846L38.1724 32.9508L38.32 33.3176L38.7169 33.2743L38.6439 32.7846ZM39.3475 32.8384L39.2291 33.3134L39.2575 33.321L39.2866 33.3253L39.3475 32.8384ZM40.0174 33.0706L39.7717 33.4935L39.7719 33.4936L40.0174 33.0706ZM48.9168 38.1388L48.6713 38.5618L48.6714 38.5619L48.9168 38.1388ZM49.25 38.3793L48.9112 38.7349L49.1448 38.946L49.4367 38.8432L49.25 38.3793ZM56.4818 38.5428L56.2951 38.0789L56.4818 38.5428ZM48.686 41.29L48.4992 40.826L48.4918 40.8288L48.686 41.29ZM48.6298 41.3098L48.4506 40.8432L48.4431 40.8459L48.6298 41.3098ZM48.2252 41.3976L48.1756 40.9059L48.1647 40.9066L48.1538 40.9077L48.2252 41.3976ZM47.0675 41.1556L46.822 41.5786L46.8221 41.5787L47.0675 41.1556ZM40.5099 37.4204L40.7554 36.9974L39.5174 36.2922L40.0384 37.5866L40.5099 37.4204ZM41.8435 40.7336L41.372 40.8998L41.5098 41.2423L41.8831 41.2259L41.8435 40.7336ZM44.7914 42.5251L45.257 42.3448L44.7914 42.5251ZM43.1959 46.241L43.396 46.7L43.3963 46.6998L43.1959 46.241ZM39.2756 44.6523L38.81 44.8326L39.2756 44.6523ZM40.1618 41.3266L40.4791 41.721L40.7712 41.5029L40.6334 41.1604L40.1618 41.3266ZM38.2741 36.6367L38.7456 36.4705L38.5589 36.0066L38.0874 36.1727L38.2741 36.6367ZM23.8727 41.7115L24.0594 42.1754L23.8727 41.7115ZM21.7732 41.1431L22.1624 40.8399L22.1345 40.8065L22.1012 40.7781L21.7732 41.1431ZM21.4519 40.809L21.0534 41.1007L21.0534 41.1008L21.4519 40.809ZM8.82202 24.8169L9.22054 24.5252L9.22051 24.5251L8.82202 24.8169ZM8.73509 24.6996L9.15257 24.4334L9.1435 24.4204L9.13362 24.4079L8.73509 24.6996ZM5.69936 20.8556L6.09789 20.5639L5.8641 20.2679L5.51263 20.3917L5.69936 20.8556ZM2.78928 21.8811L2.60255 21.4172L2.78928 21.8811ZM24.825 37.601L24.4265 37.8927L24.6603 38.1887L25.0118 38.0649L24.825 37.601ZM20.4322 32.0388L20.2455 31.5748L19.6129 31.7977L20.0337 32.3305L20.4322 32.0388ZM36.9434 33.3306L37.1301 33.7945L37.6016 33.6284L37.4149 33.1645L36.9434 33.3306ZM34.437 27.1037L34.9085 26.9375L34.7217 26.4736L34.2502 26.6398L34.437 27.1037ZM4.54966 18.7278C4.28925 18.8195 4.16175 19.1016 4.26488 19.3578C4.36801 19.6141 4.66271 19.7474 4.92312 19.6556L4.54966 18.7278ZM3.15426 20.2789C3.41467 20.1872 3.54217 19.9051 3.43904 19.6489C3.33591 19.3926 3.04121 19.2593 2.78081 19.3511L3.15426 20.2789ZM1.4147 19.9446C1.21112 20.1248 1.20201 20.4362 1.39436 20.6401C1.58672 20.844 1.90769 20.8632 2.11127 20.683L1.4147 19.9446ZM1.96378 20.9921C1.97164 20.7204 1.75106 20.4867 1.47108 20.4701C1.19111 20.4534 0.957772 20.6601 0.949906 20.9318L1.96378 20.9921ZM1.37084 21.9766C1.56845 22.1757 1.88955 22.1867 2.08803 22.0012C2.28651 21.8157 2.28721 21.5039 2.08959 21.3048L1.37084 21.9766ZM2.41831 21.4456C2.13823 21.4359 1.91061 21.6486 1.90992 21.9205C1.90922 22.1925 2.1357 22.4208 2.41579 22.4305L2.41831 21.4456ZM3.70353 22.0886C3.96394 21.9969 4.09144 21.7148 3.98831 21.4586C3.88518 21.2024 3.59048 21.0691 3.33007 21.1608L3.70353 22.0886ZM4.78511 20.6481C4.5247 20.7398 4.3972 21.0219 4.50033 21.2781C4.60346 21.5344 4.89816 21.6677 5.15857 21.5759L4.78511 20.6481ZM5.6803 21.6279C5.85351 21.8472 6.17235 21.8944 6.39245 21.7333C6.61255 21.5721 6.65056 21.2637 6.47735 21.0444L5.6803 21.6279ZM7.23629 22.0054C7.06308 21.7861 6.74423 21.7389 6.52413 21.9C6.30403 22.0611 6.26602 22.3695 6.43923 22.5889L7.23629 22.0054ZM7.19816 23.5499C7.37137 23.7692 7.69021 23.8164 7.91032 23.6552C8.13042 23.4941 8.16843 23.1857 7.99522 22.9664L7.19816 23.5499ZM8.75415 23.9274C8.58094 23.7081 8.2621 23.6609 8.042 23.822C7.8219 23.9831 7.78388 24.2915 7.95709 24.5109L8.75415 23.9274ZM8.87456 25.6798C9.04778 25.8991 9.36662 25.9463 9.58672 25.7852C9.80682 25.624 9.84483 25.3156 9.67161 25.0963L8.87456 25.6798ZM10.5737 26.2386C10.4005 26.0193 10.0817 25.9721 9.86159 26.1332C9.64149 26.2943 9.60349 26.6028 9.7767 26.8221L10.5737 26.2386ZM10.6788 27.9644C10.852 28.1837 11.1709 28.2309 11.391 28.0698C11.6111 27.9086 11.6491 27.6002 11.4759 27.3809L10.6788 27.9644ZM12.378 28.5232C12.2048 28.3039 11.886 28.2567 11.6659 28.4178C11.4458 28.5789 11.4078 28.8873 11.581 29.1067L12.378 28.5232ZM12.4831 30.249C12.6563 30.4683 12.9752 30.5155 13.1953 30.3543C13.4154 30.1932 13.4534 29.8848 13.2802 29.6655L12.4831 30.249ZM14.1823 30.8078C14.0091 30.5884 13.6902 30.5413 13.4701 30.7024C13.25 30.8635 13.212 31.1719 13.3852 31.3913L14.1823 30.8078ZM14.2874 32.5335C14.4606 32.7529 14.7794 32.8001 14.9995 32.6389C15.2196 32.4778 15.2576 32.1694 15.0844 31.9501L14.2874 32.5335ZM15.9866 33.0924C15.8134 32.873 15.4945 32.8258 15.2744 32.987C15.0543 33.1481 15.0163 33.4565 15.1895 33.6758L15.9866 33.0924ZM16.0917 34.8181C16.2649 35.0375 16.5837 35.0846 16.8038 34.9235C17.0239 34.7624 17.0619 34.454 16.8887 34.2346L16.0917 34.8181ZM17.7908 35.3769C17.6176 35.1576 17.2988 35.1104 17.0787 35.2716C16.8586 35.4327 16.8206 35.7411 16.9938 35.9604L17.7908 35.3769ZM17.8959 37.1027C18.0691 37.322 18.388 37.3692 18.6081 37.2081C18.8282 37.047 18.8662 36.7386 18.693 36.5192L17.8959 37.1027ZM19.5951 37.6615C19.4219 37.4422 19.1031 37.395 18.883 37.5561C18.6629 37.7173 18.6249 38.0257 18.7981 38.245L19.5951 37.6615ZM19.7002 39.3873C19.8734 39.6066 20.1923 39.6538 20.4124 39.4927C20.6325 39.3316 20.6705 39.0231 20.4973 38.8038L19.7002 39.3873ZM21.3994 39.9461C21.2262 39.7268 20.9073 39.6796 20.6872 39.8407C20.4671 40.0019 20.4291 40.3103 20.6023 40.5296L21.3994 39.9461ZM21.1435 41.2093C21.3275 41.4203 21.6478 41.452 21.859 41.2802C22.0702 41.1083 22.0922 40.7979 21.9083 40.5869L21.1435 41.2093ZM22.0338 40.7175C21.8295 40.5247 21.5086 40.5243 21.3169 40.7165C21.1253 40.9086 21.1354 41.2206 21.3397 41.4133L22.0338 40.7175ZM21.9424 41.9329C22.1809 42.0832 22.4933 42.0211 22.6401 41.7942C22.7869 41.5673 22.7126 41.2615 22.4741 41.1112L21.9424 41.9329ZM23.2756 41.3259C22.9962 41.3365 22.7861 41.5656 22.8063 41.8375C22.8264 42.1094 23.0693 42.3213 23.3486 42.3107L23.2756 41.3259ZM24.7795 41.9217C25.0399 41.8299 25.1674 41.5478 25.0643 41.2916C24.9611 41.0354 24.6664 40.9021 24.406 40.9939L24.7795 41.9217ZM25.8462 40.4864C25.5858 40.5782 25.4583 40.8602 25.5614 41.1165C25.6645 41.3727 25.9592 41.506 26.2196 41.4142L25.8462 40.4864ZM27.6598 40.9067C27.9202 40.815 28.0477 40.5329 27.9445 40.2767C27.8414 40.0205 27.5467 39.8871 27.2863 39.9789L27.6598 40.9067ZM28.7265 39.4714C28.466 39.5632 28.3385 39.8453 28.4417 40.1015C28.5448 40.3577 28.8395 40.491 29.0999 40.3992L28.7265 39.4714ZM30.5401 39.8918C30.8005 39.8 30.928 39.5179 30.8248 39.2617C30.7217 39.0055 30.427 38.8722 30.1666 38.9639L30.5401 39.8918ZM31.6067 38.4564C31.3463 38.5482 31.2188 38.8303 31.322 39.0865C31.4251 39.3427 31.7198 39.476 31.9802 39.3843L31.6067 38.4564ZM33.4203 38.8768C33.6807 38.785 33.8082 38.5029 33.7051 38.2467C33.602 37.9905 33.3073 37.8572 33.0469 37.949L33.4203 38.8768ZM34.487 37.4415C34.2266 37.5332 34.0991 37.8153 34.2022 38.0715C34.3054 38.3277 34.6001 38.4611 34.8605 38.3693L34.487 37.4415ZM36.3006 37.8618C36.561 37.77 36.6885 37.4879 36.5854 37.2317C36.4823 36.9755 36.1876 36.8422 35.9272 36.934L36.3006 37.8618ZM37.3673 36.4265C37.1069 36.5183 36.9794 36.8003 37.0825 37.0566C37.1856 37.3128 37.4803 37.4461 37.7408 37.3543L37.3673 36.4265ZM38.0386 37.3891C38.1417 37.6453 38.4364 37.7786 38.6968 37.6868C38.9572 37.5951 39.0847 37.313 38.9816 37.0567L38.0386 37.3891ZM39.4535 38.2292C39.3504 37.973 39.0557 37.8397 38.7953 37.9315C38.5349 38.0232 38.4074 38.3053 38.5105 38.5615L39.4535 38.2292ZM38.9824 39.734C39.0856 39.9902 39.3803 40.1235 39.6407 40.0318C39.9011 39.94 40.0286 39.6579 39.9254 39.4017L38.9824 39.734ZM40.3974 40.5742C40.2943 40.318 39.9996 40.1847 39.7391 40.2764C39.4787 40.3682 39.3512 40.6503 39.4544 40.9065L40.3974 40.5742ZM39.0964 41.7099C38.9435 41.9329 39.0099 42.2402 39.2446 42.3962C39.4793 42.5521 39.7935 42.4978 39.9463 42.2748L39.0964 41.7099ZM39.5532 43.7257C39.5324 43.4538 39.2892 43.2424 39.0099 43.2536C38.7306 43.2647 38.521 43.4942 38.5417 43.7661L39.5532 43.7257ZM39.1432 45.4238C39.3036 45.652 39.6198 45.7166 39.8493 45.5682C40.0789 45.4198 40.135 45.1146 39.9746 44.8864L39.1432 45.4238ZM40.6679 45.5459C40.4302 45.3944 40.1174 45.4549 39.9693 45.681C39.8213 45.9071 39.8939 46.2132 40.1317 46.3647L40.6679 45.5459ZM41.3991 46.8707C41.6753 46.9248 41.937 46.7525 41.9836 46.4858C42.0302 46.2191 41.844 45.959 41.5679 45.9048L41.3991 46.8707ZM42.5325 45.9121C42.259 45.9619 42.0862 46.2192 42.1466 46.4867C42.2069 46.7543 42.4775 46.9308 42.751 46.881L42.5325 45.9121ZM43.9906 46.4034C44.2226 46.2584 44.2833 45.9542 44.1263 45.7239C43.9693 45.4936 43.654 45.4244 43.4221 45.5694L43.9906 46.4034ZM44.1022 44.9283C43.9462 45.1493 44.0085 45.4572 44.2412 45.6161C44.4738 45.775 44.7889 45.7247 44.9448 45.5038L44.1022 44.9283ZM45.4667 44.3065C45.5222 44.0416 45.3445 43.7762 45.07 43.7135C44.7954 43.6508 44.528 43.8147 44.4725 44.0795L45.4667 44.3065ZM44.4707 43.1537C44.5278 43.4218 44.7964 43.6013 45.0706 43.5547C45.3448 43.508 45.5208 43.2528 45.4636 42.9847L44.4707 43.1537ZM44.6823 41.4485C44.4965 41.239 44.1759 41.2101 43.9664 41.3839C43.7569 41.5576 43.7378 41.8683 43.9236 42.0777L44.6823 41.4485ZM42.6392 41.3038C42.9123 41.373 43.1841 41.2158 43.2464 40.9526C43.3086 40.6894 43.1377 40.4199 42.8646 40.3507L42.6392 41.3038ZM41.9816 39.7392C41.8785 39.483 41.5838 39.3497 41.3233 39.4414C41.0629 39.5332 40.9354 39.8153 41.0386 40.0715L41.9816 39.7392ZM40.3718 38.4149C40.4749 38.6711 40.7696 38.8044 41.03 38.7126C41.2904 38.6209 41.4179 38.3388 41.3148 38.0826L40.3718 38.4149ZM41.084 38.3103C41.3291 38.4499 41.6377 38.3737 41.7733 38.1401C41.9089 37.9064 41.8202 37.6039 41.5751 37.4643L41.084 38.3103ZM43.2145 38.3981C42.9695 38.2585 42.6609 38.3347 42.5253 38.5684C42.3897 38.802 42.4784 39.1045 42.7235 39.2441L43.2145 38.3981ZM44.3629 40.1779C44.6079 40.3175 44.9165 40.2413 45.0521 40.0077C45.1878 39.774 45.099 39.4715 44.854 39.3319L44.3629 40.1779ZM46.4934 40.2657C46.2483 40.1261 45.9397 40.2023 45.8041 40.436C45.6685 40.6696 45.7572 40.9721 46.0023 41.1117L46.4934 40.2657ZM47.1699 41.7423C47.4338 41.8421 47.7239 41.7177 47.8179 41.4645C47.9119 41.2113 47.7742 40.9252 47.5103 40.8254L47.1699 41.7423ZM47.9357 40.9139C47.6556 40.9001 47.4246 41.1092 47.4196 41.381C47.4147 41.6528 47.6377 41.8843 47.9177 41.8981L47.9357 40.9139ZM48.4044 41.8767C48.6805 41.8399 48.8663 41.5916 48.8193 41.3219C48.7723 41.0522 48.5104 40.8634 48.2343 40.9001L48.4044 41.8767ZM48.3499 40.8765C48.083 40.9505 47.9356 41.2227 48.0205 41.4847C48.1055 41.7466 48.3908 41.899 48.6577 41.825L48.3499 40.8765ZM48.7891 41.7833C49.0495 41.6916 49.177 41.4095 49.0739 41.1533C48.9707 40.8971 48.676 40.7638 48.4156 40.8555L48.7891 41.7833ZM48.4339 40.8491C48.1735 40.9408 48.046 41.2229 48.1491 41.4791C48.2523 41.7354 48.547 41.8687 48.8074 41.7769L48.4339 40.8491ZM48.8269 41.7702C49.0881 41.6805 49.2179 41.3995 49.1169 41.1425C49.0158 40.8856 48.7222 40.75 48.4609 40.8398L48.8269 41.7702ZM48.4815 40.8325C48.2219 40.9263 48.0968 41.2095 48.202 41.4649C48.3072 41.7204 48.6029 41.8515 48.8625 41.7577L48.4815 40.8325ZM49.5224 41.525C49.7828 41.4332 49.9103 41.1511 49.8071 40.8949C49.704 40.6387 49.4093 40.5054 49.1489 40.5971L49.5224 41.525ZM50.4482 40.1393C50.1878 40.231 50.0603 40.5131 50.1634 40.7693C50.2666 41.0255 50.5613 41.1589 50.8217 41.0671L50.4482 40.1393ZM52.121 40.6092C52.3814 40.5175 52.5089 40.2354 52.4058 39.9792C52.3026 39.723 52.0079 39.5896 51.7475 39.6814L52.121 40.6092ZM53.0468 39.2236C52.7864 39.3153 52.6589 39.5974 52.7621 39.8536C52.8652 40.1098 53.1599 40.2431 53.4203 40.1514L53.0468 39.2236ZM54.7196 39.6935C54.98 39.6018 55.1075 39.3197 55.0044 39.0635C54.9012 38.8072 54.6065 38.6739 54.3461 38.7657L54.7196 39.6935ZM55.6455 38.3078C55.385 38.3996 55.2575 38.6817 55.3607 38.9379C55.4638 39.1941 55.7585 39.3274 56.0189 39.2357L55.6455 38.3078ZM57.2634 38.6584C57.4669 38.478 57.4757 38.1665 57.2832 37.9628C57.0907 37.759 56.7698 37.74 56.5663 37.9204L57.2634 38.6584ZM56.8223 37.3816C56.8142 37.6533 57.0346 37.8871 57.3146 37.904C57.5945 37.9209 57.828 37.7144 57.8361 37.4427L56.8223 37.3816ZM57.3188 36.1576C57.1212 35.9585 56.8001 35.9475 56.6016 36.133C56.4031 36.3185 56.4025 36.6304 56.6001 36.8295L57.3188 36.1576ZM56.0283 36.5832C56.3083 36.593 56.5361 36.3805 56.5369 36.1085C56.5377 35.8365 56.3113 35.6081 56.0312 35.5983L56.0283 36.5832ZM54.5546 35.9803C54.2942 36.072 54.1667 36.3541 54.2699 36.6103C54.373 36.8666 54.6677 36.9999 54.9281 36.9081L54.5546 35.9803ZM53.3591 37.461C53.6195 37.3692 53.747 37.0871 53.6439 36.8309C53.5408 36.5747 53.2461 36.4414 52.9857 36.5332L53.3591 37.461ZM51.4167 37.086C51.1563 37.1778 51.0288 37.4599 51.1319 37.7161C51.235 37.9723 51.5297 38.1056 51.7902 38.0139L51.4167 37.086ZM50.2212 38.5668C50.4816 38.475 50.6091 38.1929 50.506 37.9367C50.4028 37.6805 50.1081 37.5472 49.8477 37.6389L50.2212 38.5668ZM48.4207 37.2934C48.1756 37.1538 47.867 37.2301 47.7314 37.4637C47.5958 37.6973 47.6846 37.9999 47.9296 38.1395L48.4207 37.2934ZM46.4464 37.2948C46.6915 37.4343 47.0001 37.3581 47.1357 37.1244C47.2713 36.8908 47.1825 36.5883 46.9374 36.4487L46.4464 37.2948ZM45.4542 35.604C45.2091 35.4644 44.9005 35.5407 44.765 35.7743C44.6294 36.008 44.7181 36.3105 44.9632 36.4501L45.4542 35.604ZM43.48 35.6054C43.725 35.7449 44.0336 35.6687 44.1692 35.4351C44.3048 35.2014 44.2161 34.8989 43.971 34.7593L43.48 35.6054ZM42.4878 33.9146C42.2427 33.775 41.9341 33.8513 41.7985 34.0849C41.6629 34.3186 41.7517 34.6211 41.9967 34.7607L42.4878 33.9146ZM40.5135 33.916C40.7586 34.0556 41.0672 33.9793 41.2028 33.7457C41.3384 33.512 41.2496 33.2095 41.0045 33.0699L40.5135 33.916ZM40.0607 32.5443C39.8038 32.4276 39.505 32.5324 39.3934 32.7783C39.2818 33.0241 39.3996 33.318 39.6565 33.4347L40.0607 32.5443ZM39.4131 33.3503C39.6866 33.4175 39.9572 33.2583 40.0174 32.9946C40.0775 32.7309 39.9046 32.4626 39.631 32.3953L39.4131 33.3503ZM39.2445 32.3152C38.9672 32.2682 38.7106 32.4474 38.6714 32.7155C38.6322 32.9835 38.8252 33.2389 39.1025 33.286L39.2445 32.3152ZM38.8453 33.2663C39.1251 33.2619 39.3406 33.0376 39.3267 32.7655C39.3128 32.4934 39.0747 32.2764 38.795 32.2809L38.8453 33.2663ZM38.8788 32.0307C38.7757 31.7745 38.481 31.6412 38.2206 31.7329C37.9602 31.8247 37.8327 32.1068 37.9358 32.363L38.8788 32.0307ZM37.4627 31.1875C37.5658 31.4437 37.8605 31.577 38.1209 31.4853C38.3813 31.3935 38.5088 31.1114 38.4057 30.8552L37.4627 31.1875ZM37.9325 29.6797C37.8294 29.4235 37.5347 29.2901 37.2743 29.3819C37.0139 29.4737 36.8864 29.7558 36.9895 30.012L37.9325 29.6797ZM36.5164 28.8365C36.6195 29.0927 36.9142 29.226 37.1746 29.1342C37.435 29.0425 37.5625 28.7604 37.4594 28.5042L36.5164 28.8365ZM36.9862 27.3286C36.8831 27.0724 36.5884 26.9391 36.328 27.0309C36.0676 27.1226 35.9401 27.4047 36.0432 27.6609L36.9862 27.3286ZM35.57 26.4854C35.6732 26.7416 35.9679 26.8749 36.2283 26.7832C36.4887 26.6914 36.6162 26.4093 36.5131 26.1531L35.57 26.4854ZM36.2809 25.5767C36.1855 25.3179 35.8946 25.1763 35.6313 25.2605C35.368 25.3447 35.2319 25.6228 35.3273 25.8816L36.2809 25.5767ZM35.3256 25.8768C35.421 26.1356 35.7118 26.2772 35.9751 26.193C36.2385 26.1088 36.3746 25.8307 36.2791 25.5719L35.3256 25.8768ZM36.2733 25.5566C36.1732 25.2993 35.8801 25.1627 35.6185 25.2514C35.3569 25.3401 35.2259 25.6206 35.3259 25.8779L36.2733 25.5566ZM35.3222 25.8683C35.4223 26.1256 35.7154 26.2623 35.977 26.1735C36.2387 26.0848 36.3696 25.8043 36.2696 25.547L35.3222 25.8683ZM36.0959 25.233C35.9303 25.0084 35.6129 24.9508 35.387 25.1044C35.1612 25.258 35.1124 25.5646 35.2781 25.7893L36.0959 25.233ZM35.1343 25.6718C35.3888 25.7935 35.6899 25.6949 35.8068 25.4515C35.9238 25.2082 35.8123 24.9121 35.5578 24.7904L35.1343 25.6718ZM35.0285 24.6494C34.7487 24.6287 34.5121 24.8318 34.5 25.1032C34.4879 25.3745 34.7049 25.6113 34.9848 25.6321L35.0285 24.6494ZM34.8704 25.6394C35.1425 25.5838 35.3094 25.3227 35.243 25.0563C35.1767 24.7899 34.9024 24.6191 34.6302 24.6747L34.8704 25.6394ZM34.4365 24.7287C34.1765 24.8216 34.0504 25.1043 34.1547 25.3601C34.259 25.6159 34.5542 25.7479 34.8142 25.655L34.4365 24.7287ZM34.8102 25.6564C35.0701 25.5635 35.1963 25.2808 35.092 25.025C34.9877 24.7692 34.6924 24.6372 34.4325 24.7301L34.8102 25.6564ZM34.4203 24.7346C34.1617 24.831 34.0396 25.1154 34.1474 25.3699C34.2552 25.6245 34.5521 25.7527 34.8106 25.6563L34.4203 24.7346ZM34.8028 25.6592C35.0613 25.5628 35.1835 25.2784 35.0757 25.0239C34.9679 24.7694 34.6709 24.6412 34.4124 24.7375L34.8028 25.6592ZM33.6514 25.0057C33.391 25.0974 33.2635 25.3795 33.3666 25.6357C33.4698 25.892 33.7645 26.0253 34.0249 25.9335L33.6514 25.0057ZM32.4937 26.4731C32.7541 26.3813 32.8816 26.0992 32.7785 25.843C32.6754 25.5868 32.3807 25.4535 32.1203 25.5452L32.4937 26.4731ZM30.5891 26.0848C30.3287 26.1766 30.2012 26.4586 30.3044 26.7149C30.4075 26.9711 30.7022 27.1044 30.9626 27.0126L30.5891 26.0848ZM29.4315 27.5522C29.6919 27.4604 29.8194 27.1783 29.7162 26.9221C29.6131 26.6659 29.3184 26.5326 29.058 26.6244L29.4315 27.5522ZM27.5268 27.1639C27.2664 27.2557 27.1389 27.5378 27.2421 27.794C27.3452 28.0502 27.6399 28.1835 27.9003 28.0917L27.5268 27.1639ZM26.3692 28.6313C26.6296 28.5395 26.7571 28.2574 26.6539 28.0012C26.5508 27.745 26.2561 27.6117 25.9957 27.7035L26.3692 28.6313ZM24.4646 28.243C24.2041 28.3348 24.0767 28.6169 24.1798 28.8731C24.2829 29.1293 24.5776 29.2626 24.838 29.1708L24.4646 28.243ZM23.3069 29.7104C23.5673 29.6186 23.6948 29.3365 23.5916 29.0803C23.4885 28.8241 23.1938 28.6908 22.9334 28.7826L23.3069 29.7104ZM21.4023 29.3221C21.1419 29.4139 21.0144 29.696 21.1175 29.9522C21.2206 30.2084 21.5153 30.3417 21.7757 30.25L21.4023 29.3221ZM20.2446 30.7895C20.505 30.6977 20.6325 30.4157 20.5294 30.1594C20.4262 29.9032 20.1315 29.7699 19.8711 29.8617L20.2446 30.7895ZM19.2727 29.7742C19.0995 29.5549 18.7806 29.5077 18.5605 29.6688C18.3404 29.8299 18.3024 30.1384 18.4756 30.3577L19.2727 29.7742ZM17.6394 29.2988C17.8126 29.5181 18.1314 29.5653 18.3515 29.4042C18.5716 29.2431 18.6096 28.9346 18.4364 28.7153L17.6394 29.2988ZM17.6002 27.6564C17.427 27.4371 17.1081 27.3899 16.888 27.5511C16.6679 27.7122 16.6299 28.0206 16.8031 28.2399L17.6002 27.6564ZM15.9669 27.1811C16.1401 27.4004 16.4589 27.4476 16.679 27.2864C16.8991 27.1253 16.9371 26.8169 16.7639 26.5976L15.9669 27.1811ZM15.9277 25.5387C15.7544 25.3194 15.4356 25.2722 15.2155 25.4333C14.9954 25.5945 14.9574 25.9029 15.1306 26.1222L15.9277 25.5387ZM14.2944 25.0633C14.4676 25.2826 14.7864 25.3298 15.0065 25.1687C15.2266 25.0076 15.2646 24.6992 15.0914 24.4798L14.2944 25.0633ZM14.2552 23.421C14.0819 23.2016 13.7631 23.1545 13.543 23.3156C13.3229 23.4767 13.2849 23.7851 13.4581 24.0044L14.2552 23.421ZM12.6218 22.9456C12.7951 23.1649 13.1139 23.2121 13.334 23.051C13.5541 22.8898 13.5921 22.5814 13.4189 22.3621L12.6218 22.9456ZM12.1414 21.0979C11.8958 20.9592 11.5876 21.0366 11.4529 21.2707C11.3182 21.5049 11.4081 21.8071 11.6537 21.9458L12.1414 21.0979ZM10.2315 21.7462C10.5013 21.6816 10.6588 21.4149 10.5834 21.1506C10.5079 20.8862 10.2281 20.7242 9.95837 20.7888L10.2315 21.7462ZM8.86167 21.3151C8.6468 21.4826 8.61824 21.7923 8.79788 22.0068C8.97753 22.2212 9.29736 22.2593 9.51224 22.0917L8.86167 21.3151ZM9.3901 22.1959C9.58882 22.0106 9.58992 21.6988 9.39255 21.4995C9.19518 21.3001 8.87408 21.2887 8.67536 21.474L9.3901 22.1959ZM8.82162 20.9337C8.64839 20.7144 8.32954 20.6673 8.10946 20.8284C7.88937 20.9895 7.85139 21.298 8.02463 21.5173L8.82162 20.9337ZM6.95029 20.1572C7.12352 20.3765 7.44237 20.4236 7.66245 20.2625C7.88254 20.1014 7.92052 19.7929 7.74728 19.5736L6.95029 20.1572ZM6.86408 18.5742C6.62982 18.4176 6.31546 18.471 6.16193 18.6936C6.00841 18.9161 6.07385 19.2235 6.30811 19.3802L6.86408 18.5742ZM6.02618 19.2981C6.30596 19.2943 6.52204 19.0706 6.50883 18.7984C6.49561 18.5263 6.2581 18.3088 5.97833 18.3126L6.02618 19.2981ZM5.52519 18.3872C5.25878 18.4626 5.11287 18.7357 5.19931 18.9972C5.28574 19.2587 5.57178 19.4096 5.83819 19.3342L5.52519 18.3872ZM5.81772 19.3405C6.08024 19.2541 6.21391 18.9749 6.11628 18.7168C6.01865 18.4587 5.7267 18.3195 5.46418 18.4059L5.81772 19.3405ZM24.6744 36.614C24.5012 36.3946 24.1824 36.3475 23.9623 36.5086C23.7422 36.6697 23.7042 36.9781 23.8774 37.1974L24.6744 36.614ZM22.7792 35.8069C22.9524 36.0262 23.2713 36.0734 23.4914 35.9123C23.7114 35.7511 23.7495 35.4427 23.5762 35.2234L22.7792 35.8069ZM22.478 33.8329C22.3048 33.6135 21.986 33.5663 21.7659 33.7275C21.5458 33.8886 21.5078 34.197 21.681 34.4163L22.478 33.8329ZM20.5828 33.0258C20.756 33.2451 21.0748 33.2923 21.2949 33.1312C21.515 32.97 21.553 32.6616 21.3798 32.4423L20.5828 33.0258ZM21.3192 32.2559C21.5796 32.1642 21.7071 31.8821 21.604 31.6259C21.5008 31.3696 21.2061 31.2363 20.9457 31.3281L21.3192 32.2559ZM22.3462 30.8346C22.0858 30.9263 21.9583 31.2084 22.0614 31.4646C22.1645 31.7209 22.4592 31.8542 22.7197 31.7624L22.3462 30.8346ZM24.1201 31.2689C24.3805 31.1771 24.508 30.895 24.4049 30.6388C24.3018 30.3826 24.0071 30.2493 23.7467 30.3411L24.1201 31.2689ZM25.1471 29.8476C24.8867 29.9393 24.7592 30.2214 24.8624 30.4776C24.9655 30.7338 25.2602 30.8672 25.5206 30.7754L25.1471 29.8476ZM26.9211 30.2819C27.1815 30.1901 27.309 29.908 27.2059 29.6518C27.1027 29.3956 26.808 29.2623 26.5476 29.3541L26.9211 30.2819ZM27.9481 28.8605C27.6877 28.9523 27.5602 29.2344 27.6633 29.4906C27.7664 29.7468 28.0611 29.8801 28.3216 29.7884L27.9481 28.8605ZM29.722 29.2949C29.9824 29.2031 30.1099 28.921 30.0068 28.6648C29.9037 28.4086 29.609 28.2753 29.3486 28.367L29.722 29.2949ZM30.749 27.8735C30.4886 27.9653 30.3611 28.2474 30.4643 28.5036C30.5674 28.7598 30.8621 28.8931 31.1225 28.8014L30.749 27.8735ZM32.523 28.3078C32.7834 28.2161 32.9109 27.934 32.8078 27.6778C32.7046 27.4216 32.4099 27.2883 32.1495 27.38L32.523 28.3078ZM33.55 26.8865C33.2896 26.9783 33.1621 27.2604 33.2652 27.5166C33.3684 27.7728 33.6631 27.9061 33.9235 27.8143L33.55 26.8865ZM34.2788 28.0482C34.3819 28.3044 34.6766 28.4377 34.937 28.3459C35.1974 28.2542 35.3249 27.9721 35.2218 27.7159L34.2788 28.0482ZM35.8484 29.2726C35.7453 29.0164 35.4506 28.8831 35.1901 28.9749C34.9297 29.0666 34.8022 29.3487 34.9054 29.6049L35.8484 29.2726ZM35.532 31.1617C35.6351 31.4179 35.9298 31.5512 36.1902 31.4594C36.4506 31.3677 36.5781 31.0856 36.475 30.8294L35.532 31.1617ZM37.1016 32.3861C36.9985 32.1299 36.7038 31.9966 36.4434 32.0883C36.1829 32.1801 36.0554 32.4622 36.1586 32.7184L37.1016 32.3861ZM35.9993 33.1336C35.7389 33.2254 35.6114 33.5075 35.7145 33.7637C35.8176 34.0199 36.1123 34.1532 36.3727 34.0614L35.9993 33.1336ZM34.8579 34.5952C35.1183 34.5035 35.2458 34.2214 35.1427 33.9652C35.0396 33.709 34.7449 33.5756 34.4845 33.6674L34.8579 34.5952ZM32.9697 34.2012C32.7093 34.293 32.5818 34.5751 32.6849 34.8313C32.788 35.0875 33.0827 35.2208 33.3431 35.129L32.9697 34.2012ZM31.8283 35.6628C32.0887 35.5711 32.2162 35.289 32.1131 35.0328C32.01 34.7765 31.7153 34.6432 31.4549 34.735L31.8283 35.6628ZM29.9401 35.2688C29.6797 35.3606 29.5522 35.6426 29.6553 35.8989C29.7584 36.1551 30.0531 36.2884 30.3135 36.1966L29.9401 35.2688ZM28.7987 36.7304C29.0591 36.6386 29.1866 36.3566 29.0835 36.1003C28.9804 35.8441 28.6857 35.7108 28.4253 35.8026L28.7987 36.7304ZM26.9105 36.3364C26.6501 36.4281 26.5226 36.7102 26.6257 36.9664C26.7288 37.2227 27.0235 37.356 27.2839 37.2642L26.9105 36.3364ZM25.7692 37.798C26.0296 37.7062 26.1571 37.4241 26.0539 37.1679C25.9508 36.9117 25.6561 36.7784 25.3957 36.8702L25.7692 37.798ZM5.43409 18.4161L4.54966 18.7278L4.92312 19.6556L5.80755 19.3439L5.43409 18.4161ZM2.78081 19.3511L1.89638 19.6628L2.26984 20.5906L3.15426 20.2789L2.78081 19.3511ZM1.89638 19.6628C1.71313 19.7273 1.55084 19.824 1.4147 19.9446L2.11127 20.683C2.15489 20.6444 2.20783 20.6124 2.26984 20.5906L1.89638 19.6628ZM0.949906 20.9318C0.944526 21.1175 0.977078 21.308 1.05136 21.4925L1.99437 21.1602C1.9717 21.1039 1.96218 21.0472 1.96378 20.9921L0.949906 20.9318ZM1.05136 21.4925C1.12567 21.6771 1.23564 21.8404 1.37084 21.9766L2.08959 21.3048C2.04958 21.2644 2.0169 21.2162 1.99437 21.1602L1.05136 21.4925ZM2.41579 22.4305C2.6029 22.437 2.79289 22.4095 2.97601 22.345L2.60255 21.4172C2.54058 21.439 2.47831 21.4477 2.41831 21.4456L2.41579 22.4305ZM2.97601 22.345L3.70353 22.0886L3.33007 21.1608L2.60255 21.4172L2.97601 22.345ZM5.15857 21.5759L5.88609 21.3195L5.51263 20.3917L4.78511 20.6481L5.15857 21.5759ZM5.30083 21.1474L5.6803 21.6279L6.47735 21.0444L6.09789 20.5639L5.30083 21.1474ZM6.43923 22.5889L7.19816 23.5499L7.99522 22.9664L7.23629 22.0054L6.43923 22.5889ZM7.95709 24.5109L8.33656 24.9914L9.13362 24.4079L8.75415 23.9274L7.95709 24.5109ZM8.31761 24.9658C8.3512 25.0142 8.3865 25.0618 8.42352 25.1087L9.22051 24.5251C9.19668 24.495 9.17404 24.4644 9.15257 24.4334L8.31761 24.9658ZM8.42349 25.1086L8.87456 25.6798L9.67161 25.0963L9.22054 24.5252L8.42349 25.1086ZM9.7767 26.8221L10.6788 27.9644L11.4759 27.3809L10.5737 26.2386L9.7767 26.8221ZM11.581 29.1067L12.4831 30.249L13.2802 29.6655L12.378 28.5232L11.581 29.1067ZM13.3852 31.3913L14.2874 32.5335L15.0844 31.9501L14.1823 30.8078L13.3852 31.3913ZM15.1895 33.6758L16.0917 34.8181L16.8887 34.2346L15.9866 33.0924L15.1895 33.6758ZM16.9938 35.9604L17.8959 37.1027L18.693 36.5192L17.7908 35.3769L16.9938 35.9604ZM18.7981 38.245L19.7002 39.3873L20.4973 38.8038L19.5951 37.6615L18.7981 38.245ZM20.6023 40.5296L21.0534 41.1007L21.8505 40.5173L21.3994 39.9461L20.6023 40.5296ZM21.0534 41.1008C21.0827 41.1378 21.1127 41.174 21.1435 41.2093L21.9083 40.5869C21.8885 40.5643 21.8692 40.541 21.8504 40.5172L21.0534 41.1008ZM21.3397 41.4133C21.3742 41.4459 21.4094 41.4775 21.4453 41.5082L22.1012 40.7781C22.0783 40.7585 22.0558 40.7383 22.0338 40.7175L21.3397 41.4133ZM21.384 41.4464C21.5446 41.6381 21.7338 41.8015 21.9424 41.9329L22.4741 41.1112C22.3566 41.0372 22.2512 40.9459 22.1624 40.8399L21.384 41.4464ZM23.3486 42.3107C23.5869 42.3017 23.8265 42.2575 24.0594 42.1754L23.686 41.2476C23.55 41.2955 23.4119 41.3208 23.2756 41.3259L23.3486 42.3107ZM24.0594 42.1754L24.7795 41.9217L24.406 40.9939L23.686 41.2476L24.0594 42.1754ZM26.2196 41.4142L27.6598 40.9067L27.2863 39.9789L25.8462 40.4864L26.2196 41.4142ZM29.0999 40.3992L30.5401 39.8918L30.1666 38.9639L28.7265 39.4714L29.0999 40.3992ZM31.9802 39.3843L33.4203 38.8768L33.0469 37.949L31.6067 38.4564L31.9802 39.3843ZM34.8605 38.3693L36.3006 37.8618L35.9272 36.934L34.487 37.4415L34.8605 38.3693ZM37.7408 37.3543L38.4608 37.1006L38.0874 36.1727L37.3673 36.4265L37.7408 37.3543ZM37.8026 36.8028L38.0386 37.3891L38.9816 37.0567L38.7456 36.4705L37.8026 36.8028ZM38.5105 38.5615L38.9824 39.734L39.9254 39.4017L39.4535 38.2292L38.5105 38.5615ZM39.4544 40.9065L39.6903 41.4927L40.6334 41.1604L40.3974 40.5742L39.4544 40.9065ZM39.8446 40.9322C39.5487 41.1531 39.2974 41.4167 39.0964 41.7099L39.9463 42.2748C40.0893 42.0662 40.2682 41.8785 40.4791 41.721L39.8446 40.9322ZM38.5417 43.7661C38.569 44.1234 38.6568 44.4833 38.81 44.8326L39.7411 44.472C39.6334 44.2264 39.5722 43.9749 39.5532 43.7257L38.5417 43.7661ZM38.81 44.8326C38.9022 45.043 39.0142 45.2405 39.1432 45.4238L39.9746 44.8864C39.8846 44.7585 39.8061 44.6201 39.7411 44.472L38.81 44.8326ZM40.1317 46.3647C40.5174 46.6104 40.9486 46.7823 41.3991 46.8707L41.5679 45.9048C41.2465 45.8418 40.9404 45.7194 40.6679 45.5459L40.1317 46.3647ZM42.751 46.881C42.9685 46.8414 43.1844 46.7814 43.396 46.7L42.9958 45.782C42.843 45.8407 42.688 45.8838 42.5325 45.9121L42.751 46.881ZM43.3963 46.6998C43.6078 46.6183 43.8063 46.5187 43.9906 46.4034L43.4221 45.5694C43.2904 45.6517 43.148 45.7233 42.9954 45.7821L43.3963 46.6998ZM44.9448 45.5038C45.1991 45.1434 45.3768 44.7361 45.4667 44.3065L44.4725 44.0795C44.4091 44.3826 44.2833 44.6716 44.1022 44.9283L44.9448 45.5038ZM45.4636 42.9847C45.4177 42.7694 45.3492 42.5551 45.257 42.3448L44.3258 42.7054C44.3907 42.8534 44.4387 43.0034 44.4707 43.1537L45.4636 42.9847ZM45.257 42.3448C45.111 42.0119 44.9156 41.7113 44.6823 41.4485L43.9236 42.0777C44.0864 42.2612 44.2232 42.4713 44.3258 42.7054L45.257 42.3448ZM42.8646 40.3507C42.5212 40.2636 42.1636 40.2256 41.8038 40.2414L41.8831 41.2259C42.1398 41.2146 42.3947 41.2418 42.6392 41.3038L42.8646 40.3507ZM42.315 40.5675L41.9816 39.7392L41.0386 40.0715L41.372 40.8998L42.315 40.5675ZM41.3148 38.0826L40.9814 37.2543L40.0384 37.5866L40.3718 38.4149L41.3148 38.0826ZM40.2643 37.8434L41.084 38.3103L41.5751 37.4643L40.7554 36.9974L40.2643 37.8434ZM42.7235 39.2441L44.3629 40.1779L44.854 39.3319L43.2145 38.3981L42.7235 39.2441ZM46.0023 41.1117L46.822 41.5786L47.3131 40.7326L46.4934 40.2657L46.0023 41.1117ZM46.8221 41.5787C46.9351 41.643 47.0514 41.6975 47.1699 41.7423L47.5103 40.8254C47.4433 40.8 47.3773 40.7692 47.3129 40.7325L46.8221 41.5787ZM47.9177 41.8981C48.0449 41.9044 48.1716 41.9008 48.2966 41.8875L48.1538 40.9077C48.0815 40.9154 48.0086 40.9175 47.9357 40.9139L47.9177 41.8981ZM48.2748 41.8894C48.318 41.8866 48.3612 41.8824 48.4044 41.8767L48.2343 40.9001C48.2147 40.9028 48.1951 40.9047 48.1756 40.9059L48.2748 41.8894ZM48.6577 41.825C48.6987 41.8136 48.7395 41.8008 48.7799 41.7866L48.4065 40.8587C48.3876 40.8654 48.3688 40.8713 48.3499 40.8765L48.6577 41.825ZM48.7799 41.7866L48.7891 41.7833L48.4156 40.8555L48.4065 40.8587L48.7799 41.7866ZM48.8074 41.7769L48.8165 41.7737L48.4431 40.8459L48.4339 40.8491L48.8074 41.7769ZM48.809 41.7763C48.815 41.7743 48.8209 41.7723 48.8269 41.7702L48.4609 40.8398C48.4575 40.8409 48.4541 40.8421 48.4506 40.8433L48.809 41.7763ZM48.8625 41.7577C48.8684 41.7555 48.8743 41.7534 48.8802 41.7512L48.4918 40.8288C48.4883 40.83 48.4849 40.8313 48.4815 40.8325L48.8625 41.7577ZM48.8727 41.7539L49.5224 41.525L49.1489 40.5971L48.4992 40.8261L48.8727 41.7539ZM50.8217 41.0671L52.121 40.6092L51.7475 39.6814L50.4482 40.1393L50.8217 41.0671ZM53.4203 40.1514L54.7196 39.6935L54.3461 38.7657L53.0468 39.2236L53.4203 40.1514ZM56.0189 39.2357L56.6686 39.0067L56.2951 38.0789L55.6455 38.3078L56.0189 39.2357ZM56.6686 39.0067C56.8953 38.9268 57.0956 38.8072 57.2634 38.6584L56.5663 37.9204C56.4909 37.9873 56.4001 38.0419 56.2951 38.0789L56.6686 39.0067ZM57.8361 37.4427C57.8429 37.2143 57.8031 36.9801 57.7117 36.7528L56.7686 37.0851C56.8083 37.1837 56.8252 37.2839 56.8223 37.3816L57.8361 37.4427ZM57.7117 36.7528C57.6202 36.5256 57.485 36.325 57.3188 36.1576L56.6001 36.8295C56.6711 36.901 56.729 36.9866 56.7686 37.0851L57.7117 36.7528ZM56.0312 35.5983C55.8003 35.5902 55.5656 35.624 55.3391 35.7038L55.7126 36.6317C55.8177 36.5946 55.9245 36.5796 56.0283 36.5832L56.0312 35.5983ZM55.3391 35.7038L54.5546 35.9803L54.9281 36.9081L55.7126 36.6317L55.3391 35.7038ZM52.9857 36.5332L51.4167 37.086L51.7902 38.0139L53.3591 37.461L52.9857 36.5332ZM49.8477 37.6389L49.0632 37.9154L49.4367 38.8432L50.2212 38.5668L49.8477 37.6389ZM49.5887 38.0237C49.4608 37.9081 49.3182 37.8045 49.1622 37.7157L48.6714 38.5619C48.7603 38.6125 48.8402 38.6707 48.9112 38.7349L49.5887 38.0237ZM49.1623 37.7157L48.4207 37.2934L47.9296 38.1395L48.6713 38.5618L49.1623 37.7157ZM46.9374 36.4487L45.4542 35.604L44.9632 36.4501L46.4464 37.2948L46.9374 36.4487ZM43.971 34.7593L42.4878 33.9146L41.9967 34.7607L43.48 35.6054L43.971 34.7593ZM41.0045 33.0699L40.2629 32.6476L39.7719 33.4936L40.5135 33.916L41.0045 33.0699ZM40.2631 32.6477C40.1967 32.6099 40.1292 32.5754 40.0607 32.5443L39.6565 33.4347C39.6954 33.4523 39.7338 33.4719 39.7717 33.4935L40.2631 32.6477ZM39.631 32.3953C39.5571 32.3772 39.4828 32.3625 39.4084 32.3514L39.2866 33.3253C39.3289 33.3317 39.3712 33.34 39.4131 33.3503L39.631 32.3953ZM39.4659 32.3633C39.3931 32.3439 39.3192 32.3279 39.2445 32.3152L39.1025 33.286C39.1452 33.2932 39.1874 33.3024 39.2291 33.3134L39.4659 32.3633ZM38.795 32.2809C38.7205 32.2821 38.6457 32.2867 38.571 32.2949L38.7169 33.2743C38.7598 33.2697 38.8026 33.267 38.8453 33.2663L38.795 32.2809ZM39.1154 32.6185L38.8788 32.0307L37.9358 32.363L38.1724 32.9508L39.1154 32.6185ZM38.4057 30.8552L37.9325 29.6797L36.9895 30.012L37.4627 31.1875L38.4057 30.8552ZM37.4594 28.5042L36.9862 27.3286L36.0432 27.6609L36.5164 28.8365L37.4594 28.5042ZM36.5131 26.1531L36.2765 25.5654L35.3335 25.8977L35.57 26.4854L36.5131 26.1531ZM36.2818 25.5791L36.2809 25.5767L35.3273 25.8816L35.3282 25.884L36.2818 25.5791ZM36.2791 25.5719L36.2783 25.5696L35.3247 25.8745L35.3256 25.8768L36.2791 25.5719ZM36.2752 25.5614L36.2733 25.5566L35.3259 25.8779L35.3278 25.8827L36.2752 25.5614ZM36.2696 25.547L36.2677 25.5422L35.3204 25.8636L35.3222 25.8683L36.2696 25.547ZM36.2655 25.5368C36.2215 25.4274 36.1642 25.3257 36.0959 25.233L35.2781 25.7893C35.2956 25.8131 35.3107 25.8396 35.3225 25.8691L36.2655 25.5368ZM35.5578 24.7904C35.4529 24.7402 35.3421 24.7024 35.228 24.6781L35.0418 25.6403C35.0741 25.6472 35.1052 25.6578 35.1343 25.6718L35.5578 24.7904ZM35.2284 24.6781C35.1627 24.6641 35.096 24.6544 35.0285 24.6494L34.9848 25.6321C35.0039 25.6335 35.0229 25.6362 35.0414 25.6402L35.2284 24.6781ZM34.6302 24.6747C34.5664 24.6878 34.503 24.7052 34.4406 24.7272L34.814 25.6551C34.833 25.6484 34.8518 25.6432 34.8704 25.6394L34.6302 24.6747ZM34.4385 24.728L34.4365 24.7287L34.8142 25.655L34.8162 25.6543L34.4385 24.728ZM34.4325 24.7301L34.4305 24.7308L34.8082 25.6572L34.8102 25.6564L34.4325 24.7301ZM34.4242 24.7332L34.4203 24.7346L34.8106 25.6563L34.8145 25.6548L34.4242 24.7332ZM34.4124 24.7375L34.4085 24.739L34.7989 25.6607L34.8028 25.6592L34.4124 24.7375ZM34.417 24.7359L33.6514 25.0057L34.0249 25.9335L34.7905 25.6637L34.417 24.7359ZM32.1203 25.5452L30.5891 26.0848L30.9626 27.0126L32.4937 26.4731L32.1203 25.5452ZM29.058 26.6244L27.5268 27.1639L27.9003 28.0917L29.4315 27.5522L29.058 26.6244ZM25.9957 27.7035L24.4646 28.243L24.838 29.1708L26.3692 28.6313L25.9957 27.7035ZM22.9334 28.7826L21.4023 29.3221L21.7757 30.25L23.3069 29.7104L22.9334 28.7826ZM19.8711 29.8617L19.1056 30.1315L19.479 31.0593L20.2446 30.7895L19.8711 29.8617ZM19.6908 30.3036L19.2727 29.7742L18.4756 30.3577L18.8938 30.8871L19.6908 30.3036ZM18.4364 28.7153L17.6002 27.6564L16.8031 28.2399L17.6394 29.2988L18.4364 28.7153ZM16.7639 26.5976L15.9277 25.5387L15.1306 26.1222L15.9669 27.1811L16.7639 26.5976ZM15.0914 24.4798L14.2552 23.421L13.4581 24.0044L14.2944 25.0633L15.0914 24.4798ZM13.4189 22.3621L13.0008 21.8327L12.2037 22.4161L12.6218 22.9456L13.4189 22.3621ZM13.0007 21.8326C12.7595 21.5272 12.4657 21.2811 12.1414 21.0979L11.6537 21.9458C11.8614 22.0632 12.0491 22.2204 12.2038 22.4162L13.0007 21.8326ZM9.95837 20.7888C9.60615 20.8731 9.26654 21.0234 8.95985 21.2419L9.57699 22.0434C9.77913 21.8994 10.0016 21.8012 10.2315 21.7462L9.95837 20.7888ZM8.95985 21.2419C8.92643 21.2657 8.89371 21.2901 8.86167 21.3151L9.51224 22.0917C9.53332 22.0753 9.5549 22.0592 9.57699 22.0434L8.95985 21.2419ZM8.67536 21.474C8.64537 21.5019 8.61615 21.5304 8.58768 21.5595L9.3329 22.2516C9.35145 22.2327 9.37051 22.2141 9.3901 22.1959L8.67536 21.474ZM9.35879 21.6138L8.82162 20.9337L8.02463 21.5173L8.5618 22.1973L9.35879 21.6138ZM7.74728 19.5736L7.21011 18.8936L6.41312 19.4771L6.95029 20.1572L7.74728 19.5736ZM7.21011 18.8936C7.11045 18.7674 6.99311 18.6605 6.86408 18.5742L6.30811 19.3802C6.34713 19.4062 6.3826 19.4385 6.41312 19.4771L7.21011 18.8936ZM5.97833 18.3126C5.82567 18.3147 5.67287 18.3394 5.52577 18.3877L5.87878 19.3225C5.92652 19.3068 5.97628 19.2988 6.02618 19.2981L5.97833 18.3126ZM5.55608 18.3788C5.54577 18.3815 5.53547 18.3843 5.52519 18.3872L5.83819 19.3342C5.84162 19.3332 5.84505 19.3323 5.84847 19.3314L5.55608 18.3788ZM5.46418 18.4059C5.45413 18.4092 5.44409 18.4126 5.43409 18.4161L5.80755 19.3439C5.81094 19.3427 5.81433 19.3416 5.81772 19.3405L5.46418 18.4059ZM25.2235 37.3092L24.6744 36.614L23.8774 37.1974L24.4265 37.8927L25.2235 37.3092ZM23.5762 35.2234L22.478 33.8329L21.681 34.4163L22.7792 35.8069L23.5762 35.2234ZM21.3798 32.4423L20.8307 31.747L20.0337 32.3305L20.5828 33.0258L21.3798 32.4423ZM20.6189 32.5027L21.3192 32.2559L20.9457 31.3281L20.2455 31.5748L20.6189 32.5027ZM22.7197 31.7624L24.1201 31.2689L23.7467 30.3411L22.3462 30.8346L22.7197 31.7624ZM25.5206 30.7754L26.9211 30.2819L26.5476 29.3541L25.1471 29.8476L25.5206 30.7754ZM28.3216 29.7884L29.722 29.2949L29.3486 28.367L27.9481 28.8605L28.3216 29.7884ZM31.1225 28.8014L32.523 28.3078L32.1495 27.38L30.749 27.8735L31.1225 28.8014ZM33.9235 27.8143L34.6237 27.5676L34.2502 26.6398L33.55 26.8865L33.9235 27.8143ZM33.9655 27.2698L34.2788 28.0482L35.2218 27.7159L34.9085 26.9375L33.9655 27.2698ZM34.9054 29.6049L35.532 31.1617L36.475 30.8294L35.8484 29.2726L34.9054 29.6049ZM36.1586 32.7184L36.4719 33.4968L37.4149 33.1645L37.1016 32.3861L36.1586 32.7184ZM36.7567 32.8667L35.9993 33.1336L36.3727 34.0614L37.1301 33.7945L36.7567 32.8667ZM34.4845 33.6674L32.9697 34.2012L33.3431 35.129L34.8579 34.5952L34.4845 33.6674ZM31.4549 34.735L29.9401 35.2688L30.3135 36.1966L31.8283 35.6628L31.4549 34.735ZM28.4253 35.8026L26.9105 36.3364L27.2839 37.2642L28.7987 36.7304L28.4253 35.8026ZM25.3957 36.8702L24.6383 37.1371L25.0118 38.0649L25.7692 37.798L25.3957 36.8702Z" fill="#616161"/>
<path fill-rule="evenodd" clip-rule="evenodd" d="M21.9179 15.9766C23.8488 15.2961 24.8098 13.2402 24.0626 11.3838C23.3154 9.52742 21.1436 8.57545 19.2127 9.25588C17.2806 9.93672 16.3196 11.9927 17.0668 13.849C17.814 15.7054 19.9858 16.6574 21.9179 15.9766ZM24.0252 31.5678C24.2643 32.1616 24.6435 32.6666 25.1125 33.0607C25.648 34.0764 26.9054 34.5727 28.0325 34.1755L39.3019 30.2043L48.201 35.1906C49.32 35.8175 50.7443 35.4687 51.3816 34.4114C52.0189 33.3542 51.6286 31.9883 50.5096 31.3614L40.7123 25.8719C40.6376 25.83 40.5615 25.7925 40.4844 25.7593C39.9264 25.4978 39.2651 25.4451 38.644 25.6639L31.0384 28.344L27.5297 19.6268C26.7521 17.6951 24.4935 16.7041 22.483 17.4126C20.4725 18.1211 19.4737 20.2599 20.2513 22.1917L20.9842 24.0126L19.2929 27.6344C19.2154 27.8003 19.1834 27.9751 19.1918 28.1462C19.1897 28.2879 19.2155 28.4329 19.2724 28.5742L21.5016 34.1123C21.7393 34.7031 22.4308 35.0074 23.0467 34.7903C23.6616 34.5737 23.9667 33.9182 23.7289 33.3275L21.6625 28.1937L22.2022 27.0385L24.0252 31.5678Z" fill="white"/>
<path d="M21.9179 15.9766L22.1046 16.4405L22.1046 16.4405L21.9179 15.9766ZM19.2127 9.25588L19.3994 9.71979L19.2127 9.25588ZM25.1125 33.0607L25.5623 32.8477L25.5152 32.7584L25.4368 32.6925L25.1125 33.0607ZM39.3019 30.2043L39.5441 29.7794L39.3357 29.6627L39.1151 29.7404L39.3019 30.2043ZM48.201 35.1906L47.9587 35.6154L47.9587 35.6154L48.201 35.1906ZM51.3816 34.4114L50.9418 34.152L51.3816 34.4114ZM50.5096 31.3614L50.2673 31.7863L50.2673 31.7863L50.5096 31.3614ZM40.7123 25.8719L40.9545 25.447L40.9545 25.447L40.7123 25.8719ZM40.4844 25.7593L40.2765 26.2018L40.2841 26.2054L40.2917 26.2087L40.4844 25.7593ZM31.0384 28.344L30.5669 28.5102L30.7537 28.9741L31.2252 28.808L31.0384 28.344ZM27.5297 19.6268L28.0012 19.4607L27.5297 19.6268ZM20.2513 22.1917L19.7797 22.3578L20.2513 22.1917ZM20.9842 24.0126L21.4472 24.2284L21.5344 24.0419L21.4557 23.8465L20.9842 24.0126ZM19.2929 27.6344L18.8298 27.4186L18.8298 27.4186L19.2929 27.6344ZM19.1918 28.1462L19.6989 28.1696L19.6992 28.1543L19.6984 28.139L19.1918 28.1462ZM19.2724 28.5742L19.7439 28.4081L19.2724 28.5742ZM21.5016 34.1123L21.0301 34.2785L21.5016 34.1123ZM23.7289 33.3275L24.2004 33.1613L23.7289 33.3275ZM21.6625 28.1937L21.1995 27.9778L21.1124 28.1644L21.191 28.3599L21.6625 28.1937ZM22.2022 27.0385L22.6737 26.8724L22.2304 25.7711L21.7392 26.8227L22.2022 27.0385ZM24.5341 11.2177C24.3946 10.8709 24.2111 10.5512 23.9919 10.2627L23.1829 10.8307C23.3474 11.0473 23.4856 11.2878 23.5911 11.55L24.5341 11.2177ZM23.2114 9.47543C22.6259 9.02108 21.9275 8.71906 21.1906 8.60018L21.0569 9.57227C21.6202 9.66314 22.1516 9.89374 22.5947 10.2376L23.2114 9.47543ZM20.09 8.56079C19.7329 8.59273 19.3756 8.66879 19.026 8.79197L19.3994 9.71979C19.669 9.62482 19.9431 9.56662 20.2161 9.54221L20.09 8.56079ZM19.026 8.79197C18.6764 8.91517 18.3542 9.07853 18.0632 9.27492L18.6602 10.0904C18.8826 9.9403 19.1298 9.81481 19.3994 9.71979L19.026 8.79197ZM17.2635 9.98375C16.7932 10.5279 16.481 11.1861 16.3612 11.889L17.362 12.0813C17.4527 11.5494 17.6896 11.048 18.0491 10.632L17.2635 9.98375ZM16.3295 12.9626C16.3682 13.3148 16.4557 13.6684 16.5953 14.0152L17.5383 13.6829C17.4328 13.4207 17.3671 13.1546 17.338 12.8902L16.3295 12.9626ZM16.5953 14.0152C16.7349 14.362 16.9184 14.6818 17.1376 14.9703L17.9466 14.4023C17.7821 14.1856 17.6438 13.9451 17.5383 13.6829L16.5953 14.0152ZM17.9184 15.7577C18.504 16.212 19.2026 16.5139 19.9397 16.6326L20.0731 15.6605C19.5097 15.5697 18.9781 15.3392 18.535 14.9954L17.9184 15.7577ZM21.0405 16.6718C21.3976 16.6398 21.755 16.5637 22.1046 16.4405L21.7311 15.5126C21.4615 15.6077 21.1872 15.6659 20.9142 15.6904L21.0405 16.6718ZM22.1046 16.4405C22.4541 16.3173 22.7763 16.1539 23.0673 15.9575L22.4701 15.1421C22.2477 15.2922 22.0006 15.4177 21.7311 15.5126L22.1046 16.4405ZM23.8667 15.2485C24.3366 14.7044 24.6486 14.0463 24.7683 13.3434L23.7675 13.1513C23.6769 13.6832 23.4401 14.1845 23.0808 14.6005L23.8667 15.2485ZM24.7999 12.27C24.7612 11.9179 24.6737 11.5644 24.5341 11.2177L23.5911 11.55C23.6966 11.8121 23.7623 12.0782 23.7914 12.3425L24.7999 12.27ZM25.4368 32.6925C25.0311 32.3517 24.7036 31.9154 24.4968 31.4016L23.5537 31.734C23.825 32.4078 24.2558 32.9816 24.7882 33.4288L25.4368 32.6925ZM24.4968 31.4016L24.1929 30.6468L23.2499 30.9791L23.5537 31.734L24.4968 31.4016ZM23.8891 29.8919L23.2814 28.3821L22.3384 28.7144L22.946 30.2242L23.8891 29.8919ZM22.9775 27.6273L22.6737 26.8724L21.7307 27.2047L22.0345 27.9596L22.9775 27.6273ZM21.7392 26.8227L21.5593 27.2077L22.4853 27.6395L22.6652 27.2544L21.7392 26.8227ZM21.3794 27.5928L21.1995 27.9778L22.1255 28.4096L22.3054 28.0245L21.3794 27.5928ZM21.191 28.3599L21.5354 29.2155L22.4784 28.8832L22.134 28.0276L21.191 28.3599ZM21.8798 30.0711L22.5686 31.7824L23.5116 31.4501L22.8228 29.7388L21.8798 30.0711ZM22.913 32.638L23.2574 33.4936L24.2004 33.1613L23.856 32.3057L22.913 32.638ZM23.2574 33.4936C23.3017 33.6036 23.3123 33.7169 23.294 33.825L24.2949 34.0167C24.3419 33.7396 24.3146 33.4449 24.2004 33.1613L23.2574 33.4936ZM23.1488 34.1314C23.0758 34.2161 22.9785 34.2846 22.86 34.3264L23.2335 35.2542C23.5166 35.1544 23.7549 34.9878 23.9352 34.7788L23.1488 34.1314ZM22.86 34.3264C22.7411 34.3683 22.6194 34.3768 22.5047 34.3583L22.371 35.3304C22.6538 35.3761 22.9503 35.354 23.2335 35.2542L22.86 34.3264ZM22.1794 34.2179C22.0893 34.148 22.0174 34.0563 21.9731 33.9462L21.0301 34.2785C21.1443 34.5623 21.3317 34.8008 21.5626 34.98L22.1794 34.2179ZM21.9731 33.9462L21.6015 33.0232L20.6585 33.3555L21.0301 34.2785L21.9731 33.9462ZM21.23 32.1001L20.487 30.2541L19.544 30.5864L20.287 32.4325L21.23 32.1001ZM20.1154 29.3311L19.7439 28.4081L18.8009 28.7404L19.1724 29.6634L20.1154 29.3311ZM19.7439 28.4081C19.7334 28.382 19.7249 28.3559 19.7182 28.3299L18.7348 28.5396C18.7522 28.607 18.7742 28.6741 18.8009 28.7404L19.7439 28.4081ZM19.7032 28.2502C19.6999 28.2233 19.6985 28.1964 19.6989 28.1696L18.6848 28.1227C18.6837 28.1921 18.6873 28.2621 18.6958 28.3322L19.7032 28.2502ZM19.6984 28.139C19.6968 28.1064 19.6978 28.0736 19.7016 28.0408L18.6935 27.8997C18.6838 27.9843 18.6812 28.0691 18.6853 28.1534L19.6984 28.139ZM19.7208 27.9441C19.7297 27.9129 19.7413 27.8815 19.7559 27.8502L18.8298 27.4186C18.7942 27.495 18.7651 27.5732 18.7425 27.6525L19.7208 27.9441ZM19.7559 27.8502L20.3197 26.643L19.3936 26.2113L18.8298 27.4186L19.7559 27.8502ZM20.8834 25.4357L21.4472 24.2284L20.5212 23.7968L19.9574 25.0041L20.8834 25.4357ZM21.4557 23.8465L21.2114 23.2395L20.2684 23.5718L20.5127 24.1788L21.4557 23.8465ZM20.9671 22.6325L20.7228 22.0255L19.7797 22.3578L20.0241 22.9648L20.9671 22.6325ZM20.7228 22.0255C20.6123 21.751 20.5434 21.4723 20.5129 21.1954L19.5044 21.2681C19.5446 21.6327 19.6352 21.9987 19.7797 22.3578L20.7228 22.0255ZM20.5378 20.3484C20.6325 19.7915 20.8805 19.2666 21.2566 18.8313L20.4709 18.1831C19.9839 18.7468 19.6608 19.4284 19.5369 20.1564L20.5378 20.3484ZM21.8961 18.2644C22.1289 18.1073 22.3876 17.9759 22.6698 17.8765L22.2963 16.9487C21.9341 17.0763 21.6004 17.2455 21.2991 17.4489L21.8961 18.2644ZM22.6698 17.8765C22.9519 17.7771 23.2389 17.7161 23.5247 17.6905L23.3984 16.7091C23.0285 16.7422 22.6584 16.8211 22.2963 16.9487L22.6698 17.8765ZM24.4049 17.7218C24.9946 17.8169 25.5509 18.0583 26.0148 18.4184L26.6316 17.6563C26.0253 17.1857 25.3019 16.8728 24.5385 16.7497L24.4049 17.7218ZM26.6307 19.0396C26.8029 19.2665 26.9477 19.5185 27.0582 19.793L28.0012 19.4607C27.8567 19.1016 27.6667 18.7705 27.4398 18.4717L26.6307 19.0396ZM27.0582 19.793L27.448 20.7616L28.391 20.4293L28.0012 19.4607L27.0582 19.793ZM27.8379 21.7301L28.6176 23.6673L29.5606 23.335L28.7809 21.3978L27.8379 21.7301ZM29.0075 24.6359L29.7872 26.573L30.7302 26.2407L29.9505 24.3036L29.0075 24.6359ZM30.1771 27.5416L30.5669 28.5102L31.51 28.1779L31.1201 27.2093L30.1771 27.5416ZM31.2252 28.808L32.0702 28.5102L31.6968 27.5823L30.8517 27.8801L31.2252 28.808ZM32.9153 28.2124L34.6054 27.6168L34.232 26.689L32.5418 27.2846L32.9153 28.2124ZM35.4505 27.319L37.1406 26.7234L36.7672 25.7956L35.077 26.3912L35.4505 27.319ZM37.9857 26.4256L38.8308 26.1279L38.4573 25.2L37.6122 25.4978L37.9857 26.4256ZM38.8308 26.1279C38.9896 26.0719 39.151 26.0386 39.3113 26.0259L39.1958 25.0436C38.9478 25.0632 38.6996 25.1146 38.4573 25.2L38.8308 26.1279ZM39.8044 26.0511C39.9685 26.081 40.1274 26.1319 40.2765 26.2018L40.6923 25.3168C40.46 25.2079 40.2133 25.1289 39.9592 25.0826L39.8044 26.0511ZM40.2917 26.2087C40.3119 26.2174 40.3321 26.2265 40.3521 26.2359L40.7712 25.3524C40.74 25.3377 40.7086 25.3235 40.6771 25.3099L40.2917 26.2087ZM40.4115 26.2653C40.4311 26.2754 40.4506 26.2859 40.47 26.2968L40.9545 25.447C40.9244 25.4302 40.8942 25.4139 40.8637 25.3982L40.4115 26.2653ZM40.47 26.2967L41.2864 26.7542L41.771 25.9045L40.9545 25.447L40.47 26.2967ZM42.1029 27.2117L43.7358 28.1266L44.2203 27.2769L42.5874 26.3619L42.1029 27.2117ZM44.5522 28.584L46.1851 29.499L46.6696 28.6492L45.0367 27.7343L44.5522 28.584ZM47.0015 29.9564L48.6344 30.8713L49.119 30.0216L47.4861 29.1067L47.0015 29.9564ZM49.4508 31.3288L50.2673 31.7863L50.7518 30.9365L49.9354 30.4791L49.4508 31.3288ZM50.2673 31.7863C50.5555 31.9477 50.7794 32.1703 50.9335 32.4248L51.8034 31.9463C51.5578 31.5407 51.202 31.1887 50.7518 30.9365L50.2673 31.7863ZM51.1805 33.2926C51.1819 33.5839 51.106 33.8796 50.9418 34.152L51.8214 34.6709C52.076 34.2485 52.197 33.7829 52.1947 33.3205L51.1805 33.2926ZM50.9418 34.152C50.7769 34.4256 50.5451 34.6387 50.2757 34.7843L50.7909 35.6493C51.2061 35.4249 51.5659 35.0947 51.8214 34.6709L50.9418 34.152ZM49.361 35.0094C49.0485 35.0067 48.7327 34.9279 48.4433 34.7657L47.9587 35.6154C48.4104 35.8685 48.9027 35.9908 49.3859 35.9949L49.361 35.0094ZM48.4433 34.7657L47.4545 34.2117L46.9699 35.0614L47.9587 35.6154L48.4433 34.7657ZM46.4657 33.6576L44.4881 32.5496L44.0036 33.3993L45.9811 34.5074L46.4657 33.6576ZM43.4993 31.9956L41.5217 30.8875L41.0372 31.7372L43.0148 32.8453L43.4993 31.9956ZM40.5329 30.3335L39.5441 29.7794L39.0596 30.6292L40.0484 31.1832L40.5329 30.3335ZM39.1151 29.7404L38.176 30.0713L38.5495 30.9991L39.4886 30.6682L39.1151 29.7404ZM37.2369 30.4022L35.3587 31.0641L35.7321 31.9919L37.6104 31.3301L37.2369 30.4022ZM34.4196 31.395L32.5414 32.0569L32.9148 32.9847L34.793 32.3229L34.4196 31.395ZM31.6022 32.3878L29.724 33.0497L30.0975 33.9775L31.9757 33.3156L31.6022 32.3878ZM28.7849 33.3806L27.8458 33.7115L28.2193 34.6394L29.1584 34.3084L28.7849 33.3806ZM27.8458 33.7115C27.5558 33.8137 27.2568 33.8407 26.971 33.8039L26.8708 34.7808C27.3145 34.8379 27.7762 34.7955 28.2193 34.6394L27.8458 33.7115ZM26.1436 33.4923C25.9025 33.3292 25.701 33.1108 25.5623 32.8477L24.6627 33.2737C24.8834 33.6924 25.2039 34.0387 25.5831 34.2951L26.1436 33.4923Z" fill="#616161"/>
<path d="M31.1373 36.3587C31.4607 36.7997 31.7497 37.2697 31.9997 37.7666L31.5454 37.971C31.6616 38.202 31.7689 38.4392 31.8668 38.6825C31.9648 38.9257 32.0513 39.1702 32.1269 39.4156L32.6124 39.2888C32.7749 39.8166 32.889 40.3482 32.9568 40.8792L32.4536 40.924C32.5191 41.4367 32.5393 41.949 32.5161 42.4565L33.0228 42.4946C32.9982 43.0334 32.9273 43.5667 32.8124 44.0897L32.3163 43.9717C32.2072 44.4686 32.0562 44.9562 31.8655 45.4296L32.3386 45.6223C32.1395 46.1167 31.8994 46.5961 31.6204 47.0558L31.1813 46.7952C30.9182 47.2288 30.6188 47.6441 30.2852 48.0368L30.6806 48.3579C30.3359 48.7635 29.9566 49.1459 29.5447 49.5007L29.2013 49.1272C28.8157 49.4593 28.4 49.7661 27.9561 50.0436L28.2404 50.4606C27.7871 50.744 27.3059 50.9981 26.7987 51.2191L26.5786 50.7683C26.3414 50.8716 26.0982 50.9674 25.8491 51.0551C25.6 51.1429 25.3497 51.2211 25.0985 51.2898L25.251 51.7645C24.714 51.9115 24.1732 52.0175 23.6327 52.0843L23.5523 51.5954C23.0231 51.6608 22.4944 51.6868 21.9704 51.6752L21.9757 52.1679C21.416 52.1555 20.8613 52.1023 20.3163 52.0101L20.387 51.5247C19.8595 51.4356 19.3416 51.3082 18.8382 51.1447L18.6919 51.6116C18.1582 51.4383 17.6397 51.2262 17.1415 50.9775L17.3613 50.5408C16.8841 50.3026 16.4269 50.0294 15.9946 49.7232L15.7049 50.1181C15.2498 49.796 14.8206 49.4389 14.4223 49.0492L14.7762 48.7079C14.401 48.3407 14.0549 47.9432 13.7427 47.5174L13.3329 47.7944C13.0096 47.3534 12.7205 46.8835 12.4706 46.3865L12.9248 46.1821C12.8086 45.9511 12.7013 45.7139 12.6034 45.4707C12.5055 45.2274 12.4189 44.9829 12.3433 44.7376L11.8579 44.8643C11.6954 44.3366 11.5813 43.805 11.5134 43.2739L12.0166 43.2292C11.9511 42.7165 11.9309 42.2041 11.9541 41.6966L11.4475 41.6585C11.472 41.1198 11.5429 40.5865 11.6578 40.0635L12.1539 40.1815C12.263 39.6845 12.414 39.197 12.6047 38.7235L12.1316 38.5309C12.3307 38.0365 12.5709 37.5571 12.8498 37.0974L13.2889 37.358C13.552 36.9244 13.8514 36.5091 14.185 36.1164L13.7896 35.7953C14.1343 35.3896 14.5136 35.0072 14.9256 34.6525L15.2689 35.026C15.6546 34.6939 16.0703 34.387 16.5141 34.1096L16.2298 33.6926C16.6831 33.4091 17.1643 33.155 17.6715 32.9341L17.8916 33.3849C18.1288 33.2816 18.3721 33.1858 18.6211 33.098C18.8702 33.0102 19.1206 32.9321 19.3717 32.8633L19.2193 32.3887C19.7562 32.2417 20.2971 32.1356 20.8376 32.0688L20.9179 32.5577C21.4471 32.4923 21.9758 32.4663 22.4998 32.4779L22.4945 31.9853C23.0542 31.9976 23.6089 32.0509 24.154 32.143L24.0832 32.6284C24.6108 32.7176 25.1286 32.845 25.632 33.0084L25.7783 32.5416C26.312 32.7149 26.8305 32.9269 27.3287 33.1756L27.109 33.6124C27.5861 33.8505 28.0433 34.1238 28.4757 34.4299L28.7653 34.035C29.2204 34.3572 29.6496 34.7142 30.048 35.104L29.694 35.4453C30.0692 35.8124 30.4153 36.2099 30.7275 36.6357L31.1373 36.3587Z" fill="white" stroke="#616161" stroke-dasharray="1.5 1.5"/>
</g>
<defs>
<linearGradient id="paint0_linear_1706_15277" x1="32.4036" y1="43.9347" x2="34.5448" y2="54.6082" gradientUnits="userSpaceOnUse">
<stop stop-color="#FF8120"/>
<stop offset="1" stop-color="#E54304"/>
</linearGradient>
<clipPath id="clip0_1706_15277">
<rect width="58" height="58" fill="white"/>
</clipPath>
</defs>
</svg>
