<svg width="58" height="58" viewBox="0 0 58 58" fill="none" xmlns="http://www.w3.org/2000/svg">
<g clip-path="url(#clip0_1706_15283)">
<path fill-rule="evenodd" clip-rule="evenodd" d="M23.1244 53.9466V53.0415C23.1244 52.0871 23.8975 51.3141 24.8518 51.3141H24.8871C25.8415 51.3141 26.6145 52.0871 26.6145 53.0415V53.9466H28.6438V53.0415C28.6438 52.0871 29.4168 51.3141 30.3712 51.3141H30.4064C31.3608 51.3141 32.1338 52.0871 32.1338 53.0415V53.9466H34.1627V53.0415C34.1627 52.0871 34.9357 51.3141 35.8901 51.3141H35.9253C36.8797 51.3141 37.6527 52.0871 37.6527 53.0415V53.9466H39.6815V53.0415C39.6815 52.0871 40.4545 51.3141 41.4089 51.3141H41.4442C42.3985 51.3141 43.1716 52.0871 43.1716 53.0415V53.9466H45.2004V53.0415C45.2004 52.0871 45.9734 51.3141 46.9278 51.3141H46.963C47.9174 51.3141 48.6904 52.0871 48.6904 53.0415V53.9466H52.1393C53.2468 53.9466 54.1449 54.8446 54.1449 55.954V55.9945C54.1449 57.102 53.2468 58.0001 52.1393 58.0001H19.6761C18.5685 58.0001 17.6705 57.102 17.6705 55.9945V55.954C17.6705 54.8446 18.5685 53.9466 19.6761 53.9466H23.1244Z" fill="url(#paint0_linear_1706_15283)"/>
<path d="M29.1695 38.7506L28.7438 39.0128H28.7438L29.1695 38.7506ZM29.8439 35.9068L29.5817 35.4811L29.5813 35.4813L29.8439 35.9068ZM32.0133 39.425L32.2755 39.8507L32.2756 39.8507L32.0133 39.425ZM35.9747 36.984H36.4747C36.4747 36.8028 36.3766 36.6358 36.2184 36.5475C36.0602 36.4592 35.8666 36.4633 35.7124 36.5584L35.9747 36.984ZM35.9747 40.9741V41.4741C36.2508 41.4741 36.4747 41.2502 36.4747 40.9741H35.9747ZM22.7165 41.0231L22.7734 41.5198C22.7817 41.5188 22.7901 41.5177 22.7984 41.5163L22.7165 41.0231ZM22.3325 41.088L22.4418 41.5759L22.4419 41.5759L22.3325 41.088ZM6.82468 44.5604L6.71542 44.0725L6.71528 44.0725L6.82468 44.5604ZM4.0883 48.8762L4.57619 48.7668H4.57619L4.0883 48.8762ZM8.4024 51.6126L8.51148 52.1006L8.51169 52.1005L8.4024 51.6126ZM23.6343 48.2006V47.7006C23.5976 47.7006 23.5609 47.7047 23.525 47.7127L23.6343 48.2006ZM43.7765 48.0869L43.7008 47.5927C43.6843 47.5952 43.668 47.5985 43.6519 47.6027L43.7765 48.0869ZM35.9747 32.1298L36.2369 32.5555C36.3847 32.4645 36.4747 32.3034 36.4747 32.1298H35.9747ZM42.6926 11.5689C42.364 11.5689 42.0425 11.5403 41.7303 11.4857L41.5578 12.4707C41.9267 12.5353 42.306 12.5689 42.6926 12.5689V11.5689ZM40.7988 11.2368C40.1866 11.014 39.6245 10.6861 39.1344 10.2746L38.4914 11.0405C39.0694 11.5258 39.7331 11.9131 40.4568 12.1765L40.7988 11.2368ZM38.4515 9.59207C38.0398 9.10212 37.7117 8.54015 37.4888 7.92811L36.5492 8.27032C36.8127 8.99398 37.2003 9.65753 37.6859 10.2354L38.4515 9.59207ZM37.2397 6.99673C37.185 6.68456 37.1564 6.36306 37.1564 6.03446H36.1564C36.1564 6.42117 36.1901 6.80042 36.2547 7.16933L37.2397 6.99673ZM37.1564 6.03446C37.1564 5.70586 37.185 5.38436 37.2397 5.07219L36.2547 4.89958C36.1901 5.2685 36.1564 5.64775 36.1564 6.03446H37.1564ZM37.4888 4.14081C37.7117 3.52876 38.0398 2.9668 38.4515 2.47685L37.6859 1.8335C37.2003 2.41138 36.8127 3.07494 36.5492 3.7986L37.4888 4.14081ZM39.1344 1.79429C39.6245 1.3828 40.1866 1.05491 40.7988 0.832143L40.4568 -0.107573C39.7331 0.155778 39.0694 0.543099 38.4914 1.02842L39.1344 1.79429ZM41.7303 0.583235C42.0425 0.528566 42.364 0.5 42.6926 0.5V-0.5C42.306 -0.5 41.9267 -0.466376 41.5578 -0.401778L41.7303 0.583235ZM42.6926 0.5C43.0212 0.5 43.3427 0.528561 43.6548 0.583222L43.8273 -0.401791C43.4585 -0.466381 43.0793 -0.5 42.6926 -0.5V0.5ZM44.5862 0.832116C45.1982 1.05488 45.7602 1.38279 46.2502 1.79431L46.8933 1.02857C46.3154 0.543174 45.6518 0.155797 44.9282 -0.107581L44.5862 0.832116ZM46.9328 2.47691C47.3443 2.96686 47.6722 3.52884 47.895 4.1409L48.8347 3.7989C48.5713 3.07524 48.1839 2.41167 47.6985 1.83376L46.9328 2.47691ZM48.1439 5.07225C48.1985 5.3844 48.2271 5.70588 48.2271 6.03446H49.2271C49.2271 5.64781 49.1935 5.26862 49.1289 4.89977L48.1439 5.07225ZM48.2271 6.03446C48.2271 6.36304 48.1985 6.68452 48.1439 6.99667L49.1289 7.16915C49.1935 6.80029 49.2271 6.4211 49.2271 6.03446H48.2271ZM47.895 7.92801C47.6722 8.54008 47.3443 9.10205 46.9328 9.592L47.6985 10.2352C48.1839 9.65725 48.5713 8.99367 48.8347 8.27002L47.895 7.92801ZM46.2502 10.2746C45.7602 10.6861 45.1982 11.014 44.5862 11.2368L44.9282 12.1765C45.6518 11.9131 46.3154 11.5257 46.8933 11.0403L46.2502 10.2746ZM43.6548 11.4857C43.3427 11.5404 43.0212 11.5689 42.6926 11.5689V12.5689C43.0793 12.5689 43.4585 12.5353 43.8273 12.4707L43.6548 11.4857ZM29.5952 38.4884C29.4451 38.2447 29.3701 37.9774 29.3627 37.7119L28.3631 37.7396C28.3753 38.1761 28.499 38.6154 28.7438 39.0128L29.5952 38.4884ZM29.5502 36.9216C29.6761 36.6875 29.8631 36.4825 30.1065 36.3323L29.5813 35.4813C29.1843 35.7263 28.8764 36.0633 28.6695 36.448L29.5502 36.9216ZM30.1062 36.3325L31.128 35.703L30.6034 34.8516L29.5817 35.4811L30.1062 36.3325ZM32.1498 35.0735L34.1933 33.8145L33.6688 32.9631L31.6252 34.2221L32.1498 35.0735ZM35.2151 33.185L36.2369 32.5555L35.7124 31.7041L34.6906 32.3336L35.2151 33.185ZM36.4747 32.1298V31.2145H35.4747V32.1298H36.4747ZM36.4747 30.2991V28.4683H35.4747V30.2991H36.4747ZM36.4747 27.553V25.7222H35.4747V27.553H36.4747ZM36.4747 24.8069V22.9761H35.4747V24.8069H36.4747ZM36.4747 22.0607V21.1454H35.4747V22.0607H36.4747ZM36.4747 21.1454C36.4747 20.7803 36.5064 20.423 36.5672 20.0761L35.5822 19.9036C35.5115 20.3072 35.4747 20.7222 35.4747 21.1454H36.4747ZM36.8439 19.0411C37.0915 18.3609 37.456 17.7363 37.9133 17.1918L37.1476 16.5487C36.6164 17.1811 36.1925 17.9072 35.9042 18.699L36.8439 19.0411ZM38.6719 16.4333C39.2164 15.9759 39.8409 15.6114 40.5211 15.3638L40.179 14.4241C39.3873 14.7124 38.6612 15.1363 38.0287 15.6675L38.6719 16.4333ZM41.5562 15.0871C41.9031 15.0263 42.2604 14.9946 42.6254 14.9946V13.9946C42.2023 13.9946 41.7873 14.0314 41.3836 14.1021L41.5562 15.0871ZM42.6254 14.9946H42.6706V13.9946H42.6254V14.9946ZM42.7158 14.9946H42.761V13.9946H42.7158V14.9946ZM42.761 14.9946C43.1261 14.9946 43.4834 15.0263 43.8304 15.0871L44.0029 14.1021C43.5992 14.0314 43.1842 13.9946 42.761 13.9946V14.9946ZM44.8656 15.3638C45.5459 15.6115 46.1706 15.9759 46.7152 16.4332L47.3582 15.6674C46.7257 15.1363 45.9994 14.7124 45.2076 14.4242L44.8656 15.3638ZM47.4741 17.1918C47.9316 17.7363 48.2963 18.3608 48.5441 19.041L49.4837 18.6987C49.1952 17.9069 48.7711 17.1808 48.2396 16.5484L47.4741 17.1918ZM48.8209 20.0761C48.8818 20.423 48.9135 20.7803 48.9135 21.1454H49.9135C49.9135 20.7221 49.8767 20.3071 49.8059 19.9034L48.8209 20.0761ZM48.9135 21.1454V22.1152H49.9135V21.1454H48.9135ZM48.9135 23.085V25.0246H49.9135V23.085H48.9135ZM48.9135 25.9944V27.934H49.9135V25.9944H48.9135ZM48.9135 28.9039V30.8435H49.9135V28.9039H48.9135ZM48.9135 31.8133V33.7529H49.9135V31.8133H48.9135ZM48.9135 34.7227V36.6624H49.9135V34.7227H48.9135ZM48.9135 37.6322V39.5718H49.9135V37.6322H48.9135ZM48.9135 40.5416V41.5114H49.9135V40.5416H48.9135ZM48.9135 41.5114C48.9135 41.8405 48.8877 42.1631 48.8382 42.4776L49.826 42.6333C49.8836 42.2675 49.9135 41.8928 49.9135 41.5114H48.9135ZM48.6124 43.4184C48.41 44.0401 48.111 44.6186 47.733 45.1362L48.5405 45.726C48.9797 45.1247 49.3276 44.4519 49.5633 43.728L48.6124 43.4184ZM47.1021 45.8712C46.6454 46.3259 46.1179 46.7093 45.5379 47.0032L45.9899 47.8952C46.6645 47.5533 47.2774 47.1079 47.8077 46.5798L47.1021 45.8712ZM44.6429 47.3709C44.3386 47.4686 44.0239 47.5432 43.7008 47.5927L43.8522 48.5812C44.228 48.5236 44.5942 48.4368 44.9485 48.3231L44.6429 47.3709ZM43.6519 47.6027C43.5679 47.6243 43.4826 47.6425 43.396 47.6571L43.5624 48.6432C43.677 48.6238 43.7899 48.5998 43.9011 48.5711L43.6519 47.6027ZM43.1361 47.6898C43.0497 47.697 42.9623 47.7006 42.8739 47.7006V48.7006C42.99 48.7006 43.1052 48.6958 43.2191 48.6863L43.1361 47.6898ZM42.8739 47.7006H41.805V48.7006H42.8739V47.7006ZM40.7361 47.7006H38.5984V48.7006H40.7361V47.7006ZM37.5296 47.7006H35.3918V48.7006H37.5296V47.7006ZM34.323 47.7006H32.1852V48.7006H34.323V47.7006ZM31.1164 47.7006H28.9786V48.7006H31.1164V47.7006ZM27.9098 47.7006H25.7721V48.7006H27.9098V47.7006ZM24.7032 47.7006H23.6343V48.7006H24.7032V47.7006ZM23.525 47.7127L22.5096 47.9402L22.7282 48.916L23.7436 48.6886L23.525 47.7127ZM21.4941 48.1677L19.4632 48.6226L19.6818 49.5984L21.7127 49.1435L21.4941 48.1677ZM18.4477 48.8501L16.4168 49.305L16.6354 50.2808L18.6663 49.8259L18.4477 48.8501ZM15.4013 49.5325L13.3704 49.9874L13.589 50.9632L15.6199 50.5083L15.4013 49.5325ZM12.355 50.2148L10.324 50.6698L10.5426 51.6456L12.5735 51.1907L12.355 50.2148ZM9.30857 50.8972L8.29311 51.1247L8.51169 52.1005L9.52716 51.8731L9.30857 50.8972ZM8.29333 51.1247C8.02066 51.1856 7.74905 51.2087 7.48367 51.1977L7.44241 52.1969C7.79411 52.2114 8.15295 52.1807 8.51148 52.1006L8.29333 51.1247ZM6.68402 51.0579C6.16334 50.8943 5.69255 50.5957 5.32252 50.1943L4.58727 50.8721C5.07583 51.4021 5.69675 51.7959 6.3842 52.0119L6.68402 51.0579ZM4.85524 49.5305C4.73224 49.2951 4.63734 49.0396 4.57619 48.7668L3.60042 48.9856C3.6808 49.3441 3.80598 49.6818 3.96897 49.9937L4.85524 49.5305ZM4.57619 48.7668C4.51501 48.494 4.49174 48.2223 4.50256 47.9569L3.50339 47.9162C3.48905 48.268 3.51999 48.627 3.60042 48.9856L4.57619 48.7668ZM4.64207 47.157C4.80563 46.6361 5.10432 46.1651 5.5059 45.7949L4.82812 45.0597C4.29797 45.5484 3.90398 46.1695 3.688 46.8574L4.64207 47.157ZM6.17005 45.3274C6.40555 45.2044 6.66124 45.1094 6.93407 45.0483L6.71528 44.0725C6.35669 44.1529 6.01891 44.2781 5.70689 44.4412L6.17005 45.3274ZM6.93393 45.0483L7.96778 44.8168L7.74928 43.841L6.71542 44.0725L6.93393 45.0483ZM9.00164 44.5853L11.0694 44.1223L10.8509 43.1465L8.78314 43.6095L9.00164 44.5853ZM12.1032 43.8908L14.1709 43.4278L13.9524 42.452L11.8847 42.915L12.1032 43.8908ZM15.2048 43.1963L17.2725 42.7334L17.054 41.7575L14.9863 42.2205L15.2048 43.1963ZM18.3064 42.5019L20.3741 42.0389L20.1556 41.063L18.0879 41.526L18.3064 42.5019ZM21.4079 41.8074L22.4418 41.5759L22.2233 40.6L21.1894 40.8315L21.4079 41.8074ZM22.4419 41.5759C22.4786 41.5676 22.5153 41.5601 22.5519 41.5532L22.3676 40.5704C22.3194 40.5794 22.2713 40.5893 22.2231 40.6001L22.4419 41.5759ZM22.6624 41.5345C22.6994 41.5289 22.7364 41.524 22.7734 41.5198L22.6595 40.5263C22.6108 40.5319 22.562 40.5384 22.5131 40.5457L22.6624 41.5345ZM22.7984 41.5163C22.8546 41.507 22.9114 41.4991 22.9687 41.4928L22.8596 40.4988C22.784 40.5071 22.7089 40.5175 22.6345 40.5298L22.7984 41.5163ZM23.1402 41.4788C23.1972 41.4757 23.2547 41.4741 23.3125 41.4741V40.4741C23.2365 40.4741 23.1609 40.4762 23.0858 40.4802L23.1402 41.4788ZM23.3125 41.4741H24.3677V40.4741H23.3125V41.4741ZM25.4229 41.4741H27.5332V40.4741H25.4229V41.4741ZM28.5884 41.4741H30.6988V40.4741H28.5884V41.4741ZM31.7539 41.4741H33.8643V40.4741H31.7539V41.4741ZM34.9195 41.4741H35.9747V40.4741H34.9195V41.4741ZM36.4747 40.9741V39.6441H35.4747V40.9741H36.4747ZM36.4747 38.3141V36.984H35.4747V38.3141H36.4747ZM35.7124 36.5584L35.0521 36.9652L35.5767 37.8165L36.237 37.4097L35.7124 36.5584ZM34.3919 37.372L33.0714 38.1857L33.596 39.037L34.9165 38.2234L34.3919 37.372ZM32.4112 38.5925L31.751 38.9993L32.2756 39.8507L32.9358 39.4438L32.4112 38.5925ZM31.7511 38.9993C31.5072 39.1495 31.2398 39.2246 30.9742 39.2321L31.0025 40.2317C31.439 40.2194 31.8782 40.0954 32.2755 39.8507L31.7511 38.9993ZM30.1841 39.045C29.9503 38.9192 29.7453 38.7321 29.5952 38.4884L28.7438 39.0128C28.9887 39.4104 29.3255 39.7186 29.7103 39.9256L30.1841 39.045Z" fill="#616161"/>
</g>
<defs>
<linearGradient id="paint0_linear_1706_15283" x1="27.9289" y1="52.4981" x2="28.7795" y2="59.2568" gradientUnits="userSpaceOnUse">
<stop stop-color="#FF8120"/>
<stop offset="1" stop-color="#E54304"/>
</linearGradient>
<clipPath id="clip0_1706_15283">
<rect width="58" height="58" fill="white"/>
</clipPath>
</defs>
</svg>
