<svg width="58" height="58" viewBox="0 0 58 58" fill="none" xmlns="http://www.w3.org/2000/svg">
<g clip-path="url(#clip0_1706_15290)">
<mask id="path-1-outside-1_1706_15290" maskUnits="userSpaceOnUse" x="7" y="23.5064" width="29" height="35" fill="black">
<rect fill="white" x="7" y="23.5064" width="29" height="35"/>
<path fill-rule="evenodd" clip-rule="evenodd" d="M27.133 27.8095H18.4541L17.7885 31.4997H27.7987L27.133 27.8095ZM30.1111 25.6588C29.8968 24.9901 29.2633 24.5064 28.5158 24.5064H17.0717C16.3236 24.5064 15.6913 24.9892 15.4768 25.657C15.4361 25.7583 15.405 25.8651 15.3847 25.9765L11.0316 50.1158C9.28777 50.5652 8 52.1313 8 53.9932C8 56.2053 9.81805 58.0001 12.0589 58.0001C14.3013 58.0001 16.1179 56.2053 16.1179 53.9932C16.1179 52.6111 15.4089 51.392 14.33 50.6717L17.1926 34.8029H28.3945L32.1518 55.6329C32.3136 56.5311 33.1822 57.1308 34.092 56.9696C35.0017 56.8098 35.6093 55.9524 35.446 55.0543L30.2025 25.9765C30.1823 25.8658 30.1515 25.7596 30.1111 25.6588ZM12.0587 56.4239C13.4188 56.4239 14.5209 55.3359 14.5209 53.9932C14.5209 52.6505 13.4188 51.5625 12.0587 51.5625C10.6986 51.5625 9.59644 52.6505 9.59644 53.9932C9.59644 55.3359 10.6986 56.4239 12.0587 56.4239Z"/>
</mask>
<path fill-rule="evenodd" clip-rule="evenodd" d="M27.133 27.8095H18.4541L17.7885 31.4997H27.7987L27.133 27.8095ZM30.1111 25.6588C29.8968 24.9901 29.2633 24.5064 28.5158 24.5064H17.0717C16.3236 24.5064 15.6913 24.9892 15.4768 25.657C15.4361 25.7583 15.405 25.8651 15.3847 25.9765L11.0316 50.1158C9.28777 50.5652 8 52.1313 8 53.9932C8 56.2053 9.81805 58.0001 12.0589 58.0001C14.3013 58.0001 16.1179 56.2053 16.1179 53.9932C16.1179 52.6111 15.4089 51.392 14.33 50.6717L17.1926 34.8029H28.3945L32.1518 55.6329C32.3136 56.5311 33.1822 57.1308 34.092 56.9696C35.0017 56.8098 35.6093 55.9524 35.446 55.0543L30.2025 25.9765C30.1823 25.8658 30.1515 25.7596 30.1111 25.6588ZM12.0587 56.4239C13.4188 56.4239 14.5209 55.3359 14.5209 53.9932C14.5209 52.6505 13.4188 51.5625 12.0587 51.5625C10.6986 51.5625 9.59644 52.6505 9.59644 53.9932C9.59644 55.3359 10.6986 56.4239 12.0587 56.4239Z" fill="url(#paint0_linear_1706_15290)"/>
<path d="M18.4541 27.8095V27.3095H18.0363L17.9621 27.7208L18.4541 27.8095ZM27.133 27.8095L27.6251 27.7208L27.5509 27.3095H27.133V27.8095ZM17.7885 31.4997L17.2964 31.4109L17.1902 31.9997H17.7885V31.4997ZM27.7987 31.4997V31.9997H28.3969L28.2907 31.4109L27.7987 31.4997ZM30.1111 25.6588L29.635 25.8114L29.6404 25.8282L29.6469 25.8446L30.1111 25.6588ZM15.4768 25.657L15.9408 25.8433L15.9474 25.8268L15.9528 25.8099L15.4768 25.657ZM15.3847 25.9765L14.8928 25.8871L14.8927 25.8878L15.3847 25.9765ZM11.0316 50.1158L11.1563 50.6L11.4667 50.52L11.5236 50.2046L11.0316 50.1158ZM14.33 50.6717L13.838 50.5829L13.7798 50.9055L14.0524 51.0875L14.33 50.6717ZM17.1926 34.8029V34.3029H16.7747L16.7006 34.7141L17.1926 34.8029ZM28.3945 34.8029L28.8865 34.7141L28.8124 34.3029H28.3945V34.8029ZM32.1518 55.6329L32.6439 55.5443L32.6439 55.5442L32.1518 55.6329ZM34.092 56.9696L34.0055 56.4771L34.0047 56.4772L34.092 56.9696ZM35.446 55.0543L34.9539 55.143L34.954 55.1437L35.446 55.0543ZM30.2025 25.9765L30.6945 25.8878L30.6944 25.8871L30.2025 25.9765ZM18.4541 28.3095H27.133V27.3095H18.4541V28.3095ZM18.2805 31.5884L18.9462 27.8983L17.9621 27.7208L17.2964 31.4109L18.2805 31.5884ZM27.7987 30.9997H17.7885V31.9997H27.7987V30.9997ZM26.641 27.8983L27.3066 31.5884L28.2907 31.4109L27.6251 27.7208L26.641 27.8983ZM28.5158 25.0064C29.0435 25.0064 29.4863 25.3474 29.635 25.8114L30.5873 25.5062C30.3074 24.6329 29.4831 24.0064 28.5158 24.0064V25.0064ZM17.0717 25.0064H28.5158V24.0064H17.0717V25.0064ZM15.9528 25.8099C16.1017 25.3467 16.5432 25.0064 17.0717 25.0064V24.0064C16.104 24.0064 15.281 24.6317 15.0008 25.504L15.9528 25.8099ZM15.8767 26.066C15.8908 25.988 15.9125 25.9136 15.9408 25.8433L15.0128 25.4706C14.9596 25.603 14.9191 25.7423 14.8928 25.8871L15.8767 26.066ZM11.5236 50.2046L15.8768 26.0653L14.8927 25.8878L10.5395 50.0271L11.5236 50.2046ZM8.5 53.9932C8.5 52.369 9.62398 50.9949 11.1563 50.6L10.9068 49.6316C8.95156 50.1355 7.5 51.8937 7.5 53.9932H8.5ZM12.0589 57.5001C10.0881 57.5001 8.5 55.9231 8.5 53.9932H7.5C7.5 56.4875 9.548 58.5001 12.0589 58.5001V57.5001ZM15.6179 53.9932C15.6179 55.9233 14.0312 57.5001 12.0589 57.5001V58.5001C14.5715 58.5001 16.6179 56.4874 16.6179 53.9932H15.6179ZM14.0524 51.0875C14.9998 51.7201 15.6179 52.787 15.6179 53.9932H16.6179C16.6179 52.4353 15.818 51.064 14.6077 50.2559L14.0524 51.0875ZM16.7006 34.7141L13.838 50.5829L14.8221 50.7604L17.6847 34.8916L16.7006 34.7141ZM28.3945 34.3029H17.1926V35.3029H28.3945V34.3029ZM32.6439 55.5442L28.8865 34.7141L27.9024 34.8916L31.6597 55.7217L32.6439 55.5442ZM34.0047 56.4772C33.3617 56.5912 32.756 56.1666 32.6439 55.5443L31.6597 55.7216C31.8712 56.8955 33.0027 57.6704 34.1792 57.4619L34.0047 56.4772ZM34.954 55.1437C35.0665 55.7624 34.6488 56.3641 34.0055 56.4771L34.1784 57.462C35.3547 57.2555 36.1521 56.1424 35.9379 54.9648L34.954 55.1437ZM29.7104 26.0653L34.9539 55.143L35.938 54.9655L30.6945 25.8878L29.7104 26.0653ZM29.6469 25.8446C29.6749 25.9145 29.6964 25.9884 29.7105 26.066L30.6944 25.8871C30.6682 25.7432 30.628 25.6047 30.5753 25.473L29.6469 25.8446ZM14.0209 53.9932C14.0209 55.0537 13.1487 55.9239 12.0587 55.9239V56.9239C13.6888 56.9239 15.0209 55.6181 15.0209 53.9932H14.0209ZM12.0587 52.0625C13.1487 52.0625 14.0209 52.9327 14.0209 53.9932H15.0209C15.0209 52.3683 13.6888 51.0625 12.0587 51.0625V52.0625ZM10.0964 53.9932C10.0964 52.9327 10.9686 52.0625 12.0587 52.0625V51.0625C10.4285 51.0625 9.09644 52.3683 9.09644 53.9932H10.0964ZM12.0587 55.9239C10.9686 55.9239 10.0964 55.0537 10.0964 53.9932H9.09644C9.09644 55.6181 10.4285 56.9239 12.0587 56.9239V55.9239Z" fill="#FF8120" mask="url(#path-1-outside-1_1706_15290)"/>
<path d="M32.7214 40.6976L32.2984 40.4311L32.2214 40.5532V40.6976H32.7214ZM32.7708 40.6163L33.2024 40.8687L33.2024 40.8687L32.7708 40.6163ZM38.1975 31.3381L38.6291 31.5905L38.6292 31.5903L38.1975 31.3381ZM38.3795 30.968L38.0078 30.6335L37.949 30.6989L37.916 30.7804L38.3795 30.968ZM39.1279 26.0746L39.5821 25.8655L39.582 25.8655L39.1279 26.0746ZM32.7151 12.1476L32.2609 12.3566L32.2609 12.3567L32.7151 12.1476ZM26.629 9.8947L26.4243 9.43851L26.629 9.8947ZM24.2953 12.2636L24.7168 12.5325L24.739 12.4977L24.7552 12.4597L24.2953 12.2636ZM19.7015 19.4659V19.9659H19.9756L20.123 19.7347L19.7015 19.4659ZM21.6103 22.2674L21.3205 21.8599L21.3001 21.8744L21.2813 21.8909L21.6103 22.2674ZM22.0344 21.821L22.456 22.0899L22.456 22.0899L22.0344 21.821ZM24.9599 17.2343L25.4141 17.0252L25.031 16.1931L24.5384 16.9654L24.9599 17.2343ZM31.1993 30.7853L31.6535 30.5762L31.6535 30.5762L31.1993 30.7853ZM31.5233 31.3462L31.955 31.5986L32.1178 31.3201L31.9312 31.057L31.5233 31.3462ZM27.77 37.7652L28.2015 38.0178L28.2017 38.0175L27.77 37.7652ZM27.4014 38.8594L27.8861 38.9823L27.8941 38.9506L27.898 38.9181L27.4014 38.8594ZM28.3303 4.64888C28.3303 4.18511 28.2682 3.73495 28.1514 3.30644L27.1866 3.56934C27.2802 3.91301 27.3303 4.27479 27.3303 4.64888H28.3303ZM27.6242 2.05871C27.1641 1.27865 26.5031 0.629854 25.7116 0.180734L25.2181 1.05046C25.8584 1.41382 26.3922 1.93832 26.7629 2.56675L27.6242 2.05871ZM24.4599 -0.328292C24.0321 -0.440411 23.5833 -0.5 23.1211 -0.5V0.5C23.497 0.5 23.8607 0.548436 24.2063 0.639032L24.4599 -0.328292ZM23.1211 -0.5C22.6589 -0.5 22.21 -0.440405 21.7822 -0.328279L22.0357 0.639052C22.3814 0.548441 22.7451 0.5 23.1211 0.5V-0.5ZM20.5303 0.180688C19.7387 0.629741 19.0774 1.27844 18.617 2.0584L19.4782 2.56669C19.8491 1.93832 20.3832 1.41384 21.0237 1.05049L20.5303 0.180688ZM18.0894 3.3062C17.9726 3.73478 17.9104 4.18502 17.9104 4.64888H18.9104C18.9104 4.27478 18.9605 3.91298 19.0542 3.56929L18.0894 3.3062ZM17.9104 4.64888C17.9104 5.11273 17.9726 5.56298 18.0894 5.99156L19.0542 5.72847C18.9605 5.38477 18.9104 5.02298 18.9104 4.64888H17.9104ZM18.617 7.23935C19.0774 8.01932 19.7387 8.66801 20.5303 9.11707L21.0237 8.24727C20.3832 7.88391 19.8491 7.35943 19.4782 6.73106L18.617 7.23935ZM21.7822 9.62603C22.21 9.73816 22.6589 9.79776 23.1211 9.79776V8.79776C22.7451 8.79776 22.3814 8.74931 22.0357 8.6587L21.7822 9.62603ZM23.1211 9.79776C23.5833 9.79776 24.0321 9.73817 24.4599 9.62605L24.2063 8.65872C23.8607 8.74932 23.497 8.79776 23.1211 8.79776V9.79776ZM25.7116 9.11702C26.5031 8.6679 27.1641 8.0191 27.6242 7.23905L26.7629 6.73101C26.3922 7.35943 25.8584 7.88393 25.2181 8.24729L25.7116 9.11702ZM28.1514 5.99132C28.2682 5.56281 28.3303 5.11264 28.3303 4.64888H27.3303C27.3303 5.02296 27.2802 5.38474 27.1866 5.72842L28.1514 5.99132ZM30.0211 55.4767C29.6203 55.4767 29.2462 55.3717 28.9239 55.1888L28.4304 56.0585C28.8996 56.3248 29.4433 56.4767 30.0211 56.4767V55.4767ZM28.1165 54.3965C27.9284 54.0775 27.8207 53.7072 27.8207 53.3109H26.8207C26.8207 53.8913 26.979 54.4363 27.2552 54.9045L28.1165 54.3965ZM27.8207 53.3109V52.3908H26.8207V53.3109H27.8207ZM27.8207 51.4707V49.6304H26.8207V51.4707H27.8207ZM27.8207 48.7103V46.87H26.8207V48.7103H27.8207ZM27.8207 45.9499V44.1096H26.8207V45.9499H27.8207ZM27.8207 43.1895V41.3492H26.8207V43.1895H27.8207ZM27.8207 40.4291V39.509H26.8207V40.4291H27.8207ZM27.8207 39.509C27.8207 39.4491 27.8232 39.3899 27.828 39.3314L26.8313 39.2495C26.8243 39.3352 26.8207 39.4217 26.8207 39.509H27.8207ZM27.8498 39.1555C27.8595 39.0969 27.8717 39.0392 27.8861 38.9823L26.9168 38.7364C26.8956 38.8201 26.8777 38.9051 26.8634 38.9913L27.8498 39.1555ZM27.898 38.9181C27.9104 38.8135 27.93 38.7091 27.9571 38.6056L26.9898 38.352C26.9509 38.5005 26.9227 38.6504 26.9049 38.8006L27.898 38.9181ZM28.059 38.3039C28.0993 38.207 28.1467 38.1115 28.2015 38.0178L27.3385 37.5126C27.2609 37.6453 27.1933 37.7813 27.1357 37.9198L28.059 38.3039ZM28.2017 38.0175L28.8272 36.9477L27.964 36.443L27.3384 37.5128L28.2017 38.0175ZM29.4528 35.8779L30.7039 33.7382L29.8406 33.2335L28.5895 35.3731L29.4528 35.8779ZM31.3294 32.6684L31.955 31.5986L31.0917 31.0938L30.4662 32.1637L31.3294 32.6684ZM31.9312 31.057C31.8258 30.9084 31.7325 30.7479 31.6535 30.5762L30.7451 30.9944C30.8502 31.2227 30.9746 31.4367 31.1155 31.6355L31.9312 31.057ZM31.6535 30.5762L31.2375 29.6728L30.3292 30.091L30.7451 30.9944L31.6535 30.5762ZM30.8215 28.7694L29.9896 26.9626L29.0813 27.3808L29.9132 29.1876L30.8215 28.7694ZM29.5737 26.0592L28.7418 24.2524L27.8334 24.6706L28.6653 26.4774L29.5737 26.0592ZM28.3258 23.349L27.4939 21.5422L26.5856 21.9604L27.4175 23.7672L28.3258 23.349ZM27.0779 20.6388L26.246 18.832L25.3377 19.2502L26.1696 21.057L27.0779 20.6388ZM25.8301 17.9286L25.4141 17.0252L24.5058 17.4434L24.9217 18.3468L25.8301 17.9286ZM24.5384 16.9654L24.0508 17.7299L24.8939 18.2676L25.3815 17.5032L24.5384 16.9654ZM23.5632 18.4943L22.5881 20.0232L23.4312 20.561L24.4063 19.0321L23.5632 18.4943ZM22.1005 20.7877L21.6129 21.5521L22.456 22.0899L22.9436 21.3254L22.1005 20.7877ZM21.6129 21.5521C21.5869 21.5929 21.5587 21.6313 21.5287 21.6673L22.2965 22.3079C22.3537 22.2394 22.407 22.1667 22.456 22.0899L21.6129 21.5521ZM21.4309 21.7703C21.3959 21.8027 21.359 21.8326 21.3205 21.8599L21.9001 22.6748C21.9732 22.6228 22.0434 22.5659 22.1101 22.5041L21.4309 21.7703ZM21.2813 21.8909C21.2136 21.9501 21.1387 22.0013 21.058 22.0431L21.518 22.931C21.6703 22.8521 21.8117 22.7554 21.9394 22.6438L21.2813 21.8909ZM20.805 22.1376C20.7191 22.1584 20.6288 22.1696 20.5351 22.1696V23.1696C20.7085 23.1696 20.8777 23.1489 21.0401 23.1096L20.805 22.1376ZM20.5351 22.1696H19.4862V23.1696H20.5351V22.1696ZM18.4374 22.1696H16.3396V23.1696H18.4374V22.1696ZM15.2908 22.1696H13.193V23.1696H15.2908V22.1696ZM12.1442 22.1696H11.0953V23.1696H12.1442V22.1696ZM11.0953 22.1696C10.8899 22.1696 10.6989 22.1158 10.5346 22.0226L10.041 22.8922C10.3523 23.0689 10.7128 23.1696 11.0953 23.1696V22.1696ZM10.1228 21.6186C10.0272 21.4566 9.97266 21.269 9.97266 21.0677H8.97266C8.97266 21.4532 9.07794 21.8156 9.2615 22.1267L10.1228 21.6186ZM9.97266 21.0677C9.97266 20.8664 10.0272 20.6788 10.1228 20.5169L9.2615 20.0087C9.07794 20.3199 8.97266 20.6822 8.97266 21.0677H9.97266ZM10.5346 20.1129C10.6989 20.0196 10.8899 19.9659 11.0953 19.9659V18.9659C10.7128 18.9659 10.3523 19.0665 10.041 19.2432L10.5346 20.1129ZM11.0953 19.9659H12.0516V18.9659H11.0953V19.9659ZM13.0078 19.9659H14.9203V18.9659H13.0078V19.9659ZM15.8765 19.9659H17.789V18.9659H15.8765V19.9659ZM18.7452 19.9659H19.7015V18.9659H18.7452V19.9659ZM20.123 19.7347L20.6334 18.9345L19.7903 18.3967L19.2799 19.197L20.123 19.7347ZM21.1439 18.1342L22.1647 16.5337L21.3216 15.996L20.3008 17.5965L21.1439 18.1342ZM22.6751 15.7335L23.696 14.133L22.8529 13.5952L21.832 15.1957L22.6751 15.7335ZM24.2064 13.3327L24.7168 12.5325L23.8737 11.9947L23.3633 12.795L24.2064 13.3327ZM24.7552 12.4597C24.8867 12.1514 25.0568 11.8589 25.2627 11.5899L24.4686 10.9821C24.2117 11.3178 23.9994 11.6828 23.8353 12.0675L24.7552 12.4597ZM25.9697 10.873C26.2285 10.6692 26.5171 10.4929 26.8336 10.3509L26.4243 9.43851C26.0326 9.61422 25.6736 9.83324 25.3509 10.0875L25.9697 10.873ZM26.8336 10.3509C27.1678 10.201 27.5111 10.0992 27.8557 10.0421L27.6925 9.05555C27.2639 9.12645 26.8378 9.25301 26.4243 9.43851L26.8336 10.3509ZM28.922 10.0057C29.6372 10.0739 30.324 10.3269 30.9088 10.7367L31.4827 9.91784C30.7556 9.40826 29.9036 9.09481 29.017 9.01018L28.922 10.0057ZM31.6928 11.4566C31.9162 11.7242 32.1083 12.0251 32.2609 12.3566L33.1693 11.9385C32.9793 11.5258 32.7397 11.1502 32.4604 10.8157L31.6928 11.4566ZM32.2609 12.3567L32.6884 13.2852L33.5968 12.8669L33.1693 11.9384L32.2609 12.3567ZM33.116 14.2136L33.971 16.0706L34.8793 15.6523L34.0243 13.7954L33.116 14.2136ZM34.3985 16.999L35.2536 18.856L36.1619 18.4377L35.3068 16.5808L34.3985 16.999ZM35.6811 19.7844L36.5361 21.6414L37.4444 21.2231L36.5894 19.3662L35.6811 19.7844ZM36.9636 22.5699L37.8187 24.4268L38.727 24.0085L37.872 22.1516L36.9636 22.5699ZM38.2462 25.3553L38.6737 26.2837L39.582 25.8655L39.1545 24.937L38.2462 25.3553ZM38.6737 26.2837C38.7845 26.5244 38.8692 26.7696 38.9292 27.0165L39.9009 26.7804C39.8257 26.4712 39.7199 26.1649 39.5821 25.8655L38.6737 26.2837ZM39.0375 27.7833C39.0595 28.3053 38.9776 28.8231 38.802 29.3082L39.7424 29.6484C39.9614 29.0429 40.0641 28.3954 40.0366 27.7412L39.0375 27.7833ZM38.469 30.0092C38.3365 30.2303 38.1823 30.4395 38.0078 30.6335L38.7512 31.3024C38.9691 31.0602 39.1615 30.7991 39.3267 30.5233L38.469 30.0092ZM37.916 30.7804C37.9019 30.8153 37.8869 30.8499 37.8709 30.8844L38.7786 31.304C38.8014 31.2549 38.8228 31.2053 38.843 31.1555L37.916 30.7804ZM37.8208 30.9863C37.8034 31.0197 37.785 31.0529 37.7658 31.0859L38.6292 31.5903C38.6565 31.5437 38.6825 31.4966 38.7073 31.4491L37.8208 30.9863ZM37.7659 31.0857L37.3137 31.8588L38.1769 32.3637L38.6291 31.5905L37.7659 31.0857ZM36.8614 32.632L35.957 34.1784L36.8202 34.6833L37.7246 33.1369L36.8614 32.632ZM35.5048 34.9516L34.6003 36.4979L35.4635 37.0028L36.368 35.4564L35.5048 34.9516ZM34.1481 37.2711L33.2437 38.8175L34.1069 39.3223L35.0113 37.776L34.1481 37.2711ZM32.7914 39.5907L32.3392 40.3638L33.2024 40.8687L33.6546 40.0955L32.7914 39.5907ZM32.3392 40.3638C32.3259 40.3866 32.3123 40.409 32.2984 40.4311L33.1445 40.9642C33.1642 40.9327 33.1836 40.9009 33.2024 40.8687L32.3392 40.3638ZM32.2214 40.6976V41.7487H33.2214V40.6976H32.2214ZM32.2214 42.7998V44.9021H33.2214V42.7998H32.2214ZM32.2214 45.9532V48.0554H33.2214V45.9532H32.2214ZM32.2214 49.1065V51.2087H33.2214V49.1065H32.2214ZM32.2214 52.2598V53.3109H33.2214V52.2598H32.2214ZM32.2214 53.3109C32.2214 53.7072 32.1138 54.0775 31.9256 54.3965L32.7869 54.9045C33.0631 54.4363 33.2214 53.8913 33.2214 53.3109H32.2214ZM31.1182 55.1888C30.7959 55.3717 30.4218 55.4767 30.0211 55.4767V56.4767C30.5988 56.4767 31.1425 56.3248 31.6117 56.0585L31.1182 55.1888Z" fill="#616161"/>
</g>
<defs>
<linearGradient id="paint0_linear_1706_15290" x1="15.7266" y1="30.4375" x2="32.6553" y2="50.6619" gradientUnits="userSpaceOnUse">
<stop stop-color="#FF8120"/>
<stop offset="1" stop-color="#E54304"/>
</linearGradient>
<clipPath id="clip0_1706_15290">
<rect width="58" height="58" fill="white"/>
</clipPath>
</defs>
</svg>
