<svg width="60" height="60" viewBox="0 0 60 60" fill="none" xmlns="http://www.w3.org/2000/svg">
<g clip-path="url(#clip0_1384_9636)">
<path d="M0 30C0 13.4315 13.4315 0 30 0C46.5685 0 60 13.4315 60 30C60 46.5685 46.5685 60 30 60C13.4315 60 0 46.5685 0 30Z" fill="#EEEEEE"/>
<g clip-path="url(#clip1_1384_9636)">
<path d="M44.9934 31.6994C44.9307 31.4246 44.8149 31.3033 44.536 31.2322C43.6615 31.0076 42.8205 30.6799 42.0089 30.281C39.2963 28.9491 37.0578 27.0189 35.0774 24.7707C34.7706 24.4221 34.5963 24.3021 34.1556 24.6578C31.9004 26.4806 29.404 27.9031 26.7234 29.0105C26.3092 29.182 25.9145 29.302 25.4724 29.1834C24.8295 29.5698 24.1168 29.7622 23.393 29.924C23.188 30.1402 22.9648 30.3173 22.6622 30.3954C20.1323 31.0467 17.5759 31.5279 14.9553 31.5739C14.5941 31.5795 14.4881 31.7133 14.424 32.0244C14.099 33.5808 13.9512 35.1428 14.0669 36.7369C14.6094 44.2206 20.6023 50.4464 28.0721 51.1786C32.74 51.636 36.9226 50.3599 40.3436 47.1229C44.8051 42.9027 46.356 37.7201 44.9934 31.6994Z" fill="white"/>
<path d="M17.1659 47.5678C17.1659 47.5678 13.65 42.9836 13.6751 41.8637C12.894 42.3588 11.4478 42.197 11.0057 41.7981C10.5636 41.3992 10.1535 40.8693 10.1856 40.1956C10.1968 39.9725 9.88577 39.8093 9.73236 39.6713C6.69201 36.9098 7.21222 32.4414 10.8076 30.4484C11.0029 30.3396 11.0852 30.2448 11.0545 30.0133C10.6417 26.8641 11.0405 23.814 12.1925 20.8587C12.2665 20.6677 12.2511 20.5115 12.166 20.3204C10.8899 17.4335 12.3013 14.4852 15.3584 13.6749C15.6178 13.6065 15.6834 13.4852 15.7391 13.2774C16.548 10.2621 19.527 8.82564 22.3568 10.0962C22.5883 10.2008 22.7682 10.1882 22.9941 10.1031C27.5059 8.41422 32.0218 8.40864 36.5321 10.1045C36.765 10.1924 36.9449 10.1854 37.1694 10.0836C39.9546 8.82704 42.974 10.2831 43.7494 13.2551C43.8122 13.495 43.9056 13.6079 44.1706 13.6777C47.1775 14.4656 48.5958 17.4362 47.3421 20.3009C47.2486 20.5129 47.2528 20.6802 47.3323 20.8866C48.4578 23.8294 48.8636 26.8641 48.4424 29.9937C48.395 30.3452 48.6126 30.3968 48.8176 30.507C51.8133 32.122 52.6752 36.0326 50.6376 38.7536C50.6279 38.7675 50.6209 38.7856 50.6083 38.7968C49.9863 39.4104 49.0045 39.7256 49.0449 40.7172C49.0547 40.9599 48.8859 41.2347 48.6851 41.3937C48.6851 41.3937 47.7604 42.1998 46.8232 42.0436L45.886 41.8874C45.886 41.8874 42.7606 46.9667 42.1358 47.4743C42.1358 47.4743 47.2612 52.378 47.6112 55.5675C47.9961 59.0793 46.0032 61.7961 43.2027 62.1629C43.1678 62.167 43.1413 62.2284 43.1107 62.2633H37.3717C37.0369 61.9983 36.7273 61.7082 36.8961 61.2271C37.0634 60.7501 37.4623 60.6845 37.9128 60.6887C39.4079 60.6999 40.9043 60.7166 42.398 60.6845C45.0172 60.6287 46.8553 58.011 45.9809 55.5438C45.0478 52.9093 43.504 50.6653 41.4594 48.7602C41.2488 48.5636 41.1191 48.5622 40.9071 48.7533C40.2335 49.3585 39.5027 49.8927 38.7147 50.3362C38.3702 50.5314 38.1931 50.7713 38.0941 51.1535C37.1513 54.7893 33.7776 57.4587 30.0218 57.5619C25.9773 57.6735 22.4098 54.9985 21.3861 51.0781C21.308 50.7769 21.1839 50.5607 20.8966 50.4031C20.0737 49.9471 19.3136 49.3962 18.6121 48.77C18.3723 48.5566 18.2412 48.5817 18.0208 48.7895C16.0097 50.6751 14.5035 52.894 13.5481 55.4839C13.3599 55.9957 13.272 56.5243 13.3292 57.0696C13.5537 59.2369 15.1632 60.6859 17.3639 60.6873C22.9286 60.6915 28.4919 60.6887 34.0566 60.6887C34.2128 60.6887 34.3704 60.6817 34.5252 60.6957C34.8278 60.7222 35.0523 60.8826 35.1695 61.1559C35.2964 61.4516 35.2211 61.7277 35.0384 61.9885C34.9603 62.0987 34.7818 62.1015 34.7623 62.2647H16.1826C16.1213 62.0694 15.9302 62.1071 15.7963 62.068C12.9289 61.2494 11.6291 58.5828 11.8773 55.6289C12.0349 52.4393 17.1659 47.5678 17.1659 47.5678ZM23.393 29.924C23.188 30.1402 22.9649 30.3173 22.6622 30.3954C20.1323 31.0467 17.5759 31.5279 14.9553 31.5739C14.5941 31.5795 14.4881 31.7133 14.424 32.0244C14.099 33.5808 13.9512 35.1428 14.067 36.7369C14.6095 44.2206 20.6023 50.4464 28.0721 51.1786C32.74 51.636 36.9226 50.3599 40.3437 47.1229C44.8052 42.9027 46.356 37.7201 44.9935 31.6994C44.9307 31.4247 44.8149 31.3033 44.536 31.2322C43.6616 31.0076 42.8206 30.6799 42.0089 30.281C39.2963 28.9491 37.0579 27.0189 35.0774 24.7707C34.7706 24.4221 34.5963 24.3021 34.1556 24.6578C31.9004 26.4806 29.404 27.9031 26.7235 29.0105C26.3092 29.182 25.9146 29.302 25.4725 29.1834C24.9662 28.295 25.0778 27.9729 26.0512 27.5796C28.9437 26.4123 31.5769 24.8168 33.9659 22.814C34.6772 22.2185 34.9603 22.2422 35.5656 22.9535C36.8082 24.4137 38.1527 25.7721 39.6742 26.9422C41.6226 28.4415 43.7006 29.6744 46.2082 29.9784C46.8665 30.0579 46.9013 30.0356 46.9641 29.3703C47.2305 26.4959 46.8246 23.722 45.7103 21.0582C45.5332 20.6328 45.5597 20.2841 45.78 19.8797C46.9613 17.7208 45.7298 15.3763 43.2934 15.1141C42.5277 15.0319 42.3701 14.8743 42.3004 14.1212C42.0814 11.753 39.7175 10.4797 37.6241 11.6233C37.1708 11.8702 36.7803 11.8925 36.2964 11.6986C31.9897 9.97763 27.6648 9.95253 23.3484 11.661C22.7849 11.8841 22.3359 11.8897 21.7836 11.5829C19.8101 10.4867 17.3821 11.8367 17.2091 14.0821C17.1491 14.8673 16.9902 15.0319 16.2064 15.1225C13.7713 15.4042 12.5398 17.711 13.7127 19.8434C13.9665 20.3051 13.9679 20.6928 13.7699 21.1642C12.6514 23.828 12.2888 26.6075 12.544 29.4791C12.5802 29.885 12.7239 30.016 13.1507 30.0244C16.1771 30.0816 19.1435 29.6897 22.0653 28.9129C23.0444 28.6521 23.4042 28.931 23.393 29.924ZM23.2466 51.597C24.333 54.5215 27.2967 56.2147 30.6648 55.8981C33.0942 55.6693 35.8585 53.5355 36.1834 51.6235C31.8948 53.2426 27.6077 53.2524 23.2466 51.597ZM12.8954 31.5864C12.5314 31.6115 12.1995 31.5516 11.855 31.6771C9.20379 32.6533 8.43952 36.299 10.4813 38.2487C10.6445 38.4049 10.756 38.5081 10.9945 38.3184C11.353 38.0311 11.7951 37.9028 12.2595 37.9251C12.5384 37.9391 12.6012 37.8694 12.5677 37.5779C12.438 36.4566 12.4017 35.3325 12.5035 34.2028C12.5816 33.3381 12.7406 32.4874 12.894 31.5864H12.8954ZM46.6043 31.6241C46.8065 32.6115 46.9571 33.6017 47.0283 34.6045C47.1022 35.6323 47.0394 36.6546 46.9237 37.6727C46.8944 37.9237 47.0171 37.921 47.1914 37.9168C47.6363 37.9056 48.0729 37.9907 48.4215 38.264C48.7214 38.4983 48.879 38.3965 49.0979 38.165C50.9026 36.2669 50.3629 33.0536 48.0366 31.8556C47.5889 31.6255 47.1342 31.5153 46.6043 31.6227V31.6241ZM12.3097 39.4858C11.869 39.483 11.505 39.8358 11.505 40.264C11.505 40.6838 11.8913 41.0645 12.3083 41.0575C12.7197 41.0506 13.0712 40.7005 13.0754 40.2933C13.0795 39.8386 12.7462 39.4872 12.3097 39.4858ZM47.1817 39.4844C46.7214 39.4941 46.4286 39.8191 46.4453 40.3016C46.4606 40.7465 46.7758 41.0617 47.1998 41.0589C47.6196 41.0561 47.9975 40.6726 47.9934 40.2556C47.9892 39.8288 47.6168 39.476 47.1817 39.4844Z" fill="#333333"/>
<path d="M34.758 62.2647C34.7775 62.1029 34.9561 62.1001 35.0342 61.9885C35.2169 61.7291 35.2936 61.4516 35.1653 61.1559C35.0481 60.8826 34.8236 60.7222 34.5209 60.6957C34.3661 60.6817 34.2085 60.6887 34.0523 60.6887C28.4877 60.6887 22.9244 60.6915 17.3597 60.6873C15.1589 60.6859 13.5495 59.2369 13.325 57.0696C13.2692 56.5257 13.3556 55.9957 13.5439 55.4839C14.4993 52.894 16.0055 50.6751 18.0166 48.7895C18.2383 48.5817 18.3694 48.5552 18.6079 48.77C19.308 49.3962 20.0695 49.9471 20.8924 50.4031C21.1783 50.5621 21.3024 50.7769 21.3819 51.0781C22.4056 54.9985 25.9745 57.6735 30.0176 57.5619C33.7734 57.4587 37.1457 54.7893 38.0899 51.1535C38.1889 50.7713 38.366 50.53 38.7105 50.3362C39.4985 49.8913 40.2293 49.3585 40.9029 48.7533C41.1149 48.5622 41.2446 48.565 41.4552 48.7602C43.4997 50.6653 45.0422 52.9093 45.9766 55.5438C46.8511 58.011 45.0129 60.6287 42.3938 60.6845C40.8987 60.7166 39.4036 60.6999 37.9086 60.6887C37.4581 60.6859 37.0592 60.7515 36.8918 61.2271C36.7231 61.7082 37.0327 61.9983 37.3674 62.2633H34.758V62.2647Z" fill="#BDBDBD"/>
<path d="M25.4724 29.1834C24.8295 29.5698 24.1168 29.7622 23.393 29.924C23.4042 28.931 23.0429 28.6521 22.0653 28.9129C19.1449 29.6911 16.1784 30.0816 13.1507 30.0244C12.7239 30.016 12.5802 29.8849 12.544 29.4791C12.2888 26.6075 12.65 23.828 13.7699 21.1642C13.9679 20.6928 13.9679 20.3051 13.7127 19.8434C12.5398 17.711 13.7699 15.4056 16.2063 15.1225C16.9901 15.0319 17.1491 14.8659 17.2091 14.0821C17.3806 11.8353 19.8101 10.4867 21.7836 11.5829C22.3359 11.8897 22.7849 11.8841 23.3484 11.661C27.6648 9.95113 31.9897 9.97624 36.2964 11.6986C36.7803 11.8925 37.1708 11.8702 37.6241 11.6233C39.7175 10.4811 42.0828 11.753 42.3004 14.1212C42.3701 14.8743 42.5277 15.0319 43.2934 15.1141C45.7298 15.3763 46.9613 17.7208 45.78 19.8797C45.5583 20.2841 45.5318 20.6328 45.7103 21.0582C46.8246 23.722 47.2305 26.4959 46.9641 29.3703C46.9027 30.0356 46.8679 30.0593 46.2082 29.9784C43.7006 29.6744 41.6226 28.4415 39.6742 26.9422C38.1526 25.7721 36.8082 24.4151 35.5656 22.9535C34.9603 22.2422 34.6772 22.2185 33.9659 22.814C31.5754 24.8154 28.9437 26.4123 26.0512 27.5796C25.0777 27.9729 24.9662 28.295 25.4724 29.1834Z" fill="white"/>
<path d="M23.2466 51.597C27.6063 53.2524 31.8934 53.2426 36.1834 51.6235C35.8585 53.5355 33.0942 55.6694 30.6648 55.8981C27.2967 56.2147 24.333 54.5215 23.2466 51.597Z" fill="#BDBDBD"/>
<path d="M12.8955 31.5864C12.7421 32.4888 12.5831 33.3381 12.505 34.2028C12.4032 35.3325 12.4394 36.4566 12.5691 37.5779C12.6026 37.8694 12.5398 37.9391 12.2609 37.9251C11.7965 37.9014 11.3544 38.0311 10.9959 38.3184C10.7575 38.5081 10.6459 38.4049 10.4827 38.2487C8.44094 36.299 9.20521 32.6519 11.8565 31.6771C12.1995 31.5502 12.5329 31.6101 12.8969 31.5864H12.8955Z" fill="white"/>
<path d="M46.6042 31.6241C47.1328 31.5167 47.5889 31.6269 48.0366 31.857C50.3642 33.055 50.904 36.2683 49.0979 38.1664C48.8775 38.3979 48.7199 38.4997 48.4215 38.2654C48.0728 37.9921 47.6363 37.907 47.1914 37.9182C47.0185 37.9224 46.8957 37.9265 46.9236 37.6741C47.0394 36.6546 47.1021 35.6337 47.0282 34.6059C46.9557 33.6031 46.8065 32.6129 46.6042 31.6255V31.6241Z" fill="white"/>
<path d="M12.3097 39.4858C12.7462 39.4886 13.0796 39.84 13.0754 40.2933C13.0712 40.7005 12.7198 41.0506 12.3083 41.0575C11.8913 41.0645 11.505 40.6824 11.505 40.264C11.505 39.8358 11.869 39.483 12.3097 39.4858Z" fill="#BDBDBD"/>
<path d="M47.1816 39.4844C47.6168 39.476 47.9878 39.8288 47.9933 40.2556C47.9975 40.6726 47.6196 41.0548 47.1998 41.0589C46.7758 41.0617 46.4606 40.7465 46.4453 40.3016C46.4285 39.8191 46.7214 39.4941 47.1816 39.4844Z" fill="#BDBDBD"/>
<path d="M23.3372 37.5416C24.4795 37.5444 25.4181 38.4007 25.5408 39.5541C25.5938 40.0534 25.3302 40.4439 24.8867 40.5234C24.446 40.6015 24.0876 40.3239 23.9969 39.8023C23.9258 39.3979 23.7542 39.1022 23.3024 39.1162C22.8812 39.1287 22.7208 39.4146 22.6594 39.7996C22.5744 40.3239 22.2187 40.6126 21.7822 40.5415C21.3331 40.469 21.0667 40.091 21.1072 39.5848C21.2006 38.4286 22.1727 37.5388 23.3372 37.543V37.5416Z" fill="#333333"/>
<path d="M36.182 37.5416C37.3438 37.5458 38.3144 38.4537 38.3912 39.6057C38.4246 40.1064 38.1415 40.4871 37.6924 40.5443C37.2726 40.5987 36.917 40.3142 36.8417 39.8261C36.7803 39.4202 36.6213 39.1148 36.1709 39.1134C35.719 39.112 35.5628 39.4188 35.4972 39.8219C35.4177 40.3086 35.0593 40.5875 34.6381 40.529C34.196 40.4676 33.9087 40.0729 33.9506 39.5806C34.0496 38.4188 35.0161 37.5346 36.182 37.5388V37.5416Z" fill="#333333"/>
<path d="M29.7387 44.5735C28.9507 44.5735 28.2813 44.2862 27.7346 43.7227C27.3678 43.3462 27.3496 42.8943 27.6704 42.5666C27.9758 42.2555 28.404 42.2569 28.7903 42.5721C29.5197 43.1676 29.9702 43.1649 30.7233 42.5582C31.1068 42.25 31.542 42.2583 31.8418 42.5805C32.1417 42.9027 32.1305 43.3406 31.7874 43.7004C31.2324 44.282 30.5476 44.5776 29.7401 44.5721L29.7387 44.5735Z" fill="#333333"/>
<path d="M29.5616 32.8207C29.5784 32.8207 29.5937 32.8207 29.6091 32.8207C31.2938 32.8402 32.7833 33.0383 34.2589 33.2935C34.648 33.3604 34.8167 33.5696 34.74 33.8318C34.6647 34.087 34.3858 34.2181 33.9841 34.1638C32.8963 34.0159 31.8182 33.8402 30.7122 33.7663C29.0721 33.6561 27.485 33.8723 25.8965 34.1108C25.7612 34.1317 25.6259 34.1568 25.4893 34.1693C25.1239 34.2042 24.8324 34.0703 24.7585 33.8388C24.679 33.5864 24.8575 33.3618 25.2368 33.2963C26.287 33.115 27.3441 32.9574 28.4194 32.8835C28.8476 32.8542 29.2785 32.8374 29.5589 32.8235L29.5616 32.8207Z" fill="#333333"/>
</g>
</g>
<defs>
<clipPath id="clip0_1384_9636">
<path d="M0 30C0 13.4315 13.4315 0 30 0C46.5685 0 60 13.4315 60 30C60 46.5685 46.5685 60 30 60C13.4315 60 0 46.5685 0 30Z" fill="white"/>
</clipPath>
<clipPath id="clip1_1384_9636">
<rect width="44" height="53.4293" fill="white" transform="translate(7.745 8.83539)"/>
</clipPath>
</defs>
</svg>
