<svg width="60" height="60" viewBox="0 0 60 60" fill="none" xmlns="http://www.w3.org/2000/svg">
<g clip-path="url(#clip0_1384_9600)">
<path d="M0 30C0 13.4315 13.4315 0 30 0C46.5685 0 60 13.4315 60 30C60 46.5685 46.5685 60 30 60C13.4315 60 0 46.5685 0 30Z" fill="#EEEEEE"/>
<g clip-path="url(#clip1_1384_9600)">
<path d="M44.973 15.6104C45.6377 15.3263 45.8588 15.378 46.3179 15.9532C49.7424 20.2469 51.1881 25.1241 50.6311 30.5891C50.5989 30.904 50.6633 31.1321 50.89 31.3784C52.3455 32.9627 52.6114 35.3264 51.5744 37.2101C50.5261 39.1134 48.4129 40.1658 46.2969 39.8118C46.0296 39.767 45.9078 39.7922 45.7861 40.0553C44.6679 42.468 43.0725 44.5155 40.9984 46.1767C40.6275 46.4733 40.8599 46.5517 41.0768 46.7127C44.2676 49.0778 46.4928 52.1413 47.7342 55.9185C48.8202 59.2213 46.567 62.366 43.0934 62.3688C34.4908 62.3744 25.8895 62.3758 17.2868 62.3688C13.8483 62.366 11.5741 59.2045 12.6503 55.9507C12.989 54.9249 13.4004 53.9298 13.9071 52.9754C14.2583 52.3134 14.4836 52.2183 15.2114 52.4338C15.5808 52.8368 15.5767 53.2511 15.3107 53.7185C14.8195 54.5834 14.4557 55.5057 14.1534 56.4531C13.4312 58.7105 14.9259 60.7887 17.305 60.7915C25.9091 60.7999 34.5132 60.8027 43.1158 60.7957C45.4852 60.7943 46.9658 58.7105 46.2493 56.4405C45.849 55.1726 45.3032 53.9704 44.6119 52.8368C43.3621 50.7894 41.7541 49.0792 39.7487 47.7007C39.6955 47.8322 39.6563 47.9274 39.6185 48.0226C39.0489 49.5004 38.4513 50.9671 37.7068 52.368C37.2982 53.1377 36.8657 53.8976 36.2317 54.5148C35.5516 55.1782 34.8952 55.2831 34.0387 54.8689C33.4328 54.575 32.9499 54.123 32.4867 53.6443C31.9703 53.1111 31.5364 52.5079 31.0718 51.9006C30.9333 52.1007 30.9892 52.277 30.9892 52.4408C30.9836 53.5408 30.9878 54.6394 30.985 55.7394C30.985 56.1816 30.8381 56.5343 30.3553 56.6322C29.8109 56.7428 29.4246 56.3859 29.4176 55.7408C29.405 54.6072 29.4176 53.4722 29.4092 52.3372C29.4092 52.2043 29.5044 52.0251 29.3015 51.93C29.1503 52.1329 29.009 52.3302 28.8592 52.5233C28.1931 53.3798 27.5017 54.2125 26.5487 54.7709C25.6054 55.3237 24.8567 55.216 24.0954 54.4434C23.7259 54.0684 23.4334 53.6345 23.1591 53.1881C22.3096 51.8012 21.6868 50.3079 21.0836 48.8063C20.9395 48.4466 20.7954 48.0884 20.633 47.6811C20.09 48.1163 19.5918 48.4984 19.1132 48.9029C18.433 49.4795 17.8214 50.126 17.2476 50.809C16.8082 51.3296 16.5885 51.38 15.9825 51.1155C15.606 50.5725 15.613 50.3093 16.0231 49.8125C17.0839 48.5306 18.3071 47.4194 19.7149 46.4258C18.8333 45.7148 18.0342 44.9759 17.3134 44.1572C16.2358 42.934 15.3345 41.5933 14.653 40.1127C14.5228 39.83 14.4011 39.7558 14.0722 39.8132C12.0247 40.1644 9.90171 39.1162 8.85629 37.2787C7.81927 35.4551 8.0222 33.104 9.3881 31.5142C9.63581 31.2259 9.72118 30.9712 9.70159 30.5891C9.34472 23.5973 12.1269 18.2288 18.0691 14.5132C18.2861 14.3774 18.44 14.2235 18.5506 13.994C18.9578 13.1375 19.5862 12.4769 20.3783 11.9591C23.0331 10.2209 25.9427 9.1965 29.0957 8.85922C29.1923 8.84942 29.3113 8.88861 29.3616 8.75566H32.817C33.5727 8.89281 34.3326 9.01736 35.0856 9.16991C38.2862 9.81787 41.1286 11.2146 43.6616 13.2676C44.1585 13.6707 44.1179 14.1073 43.9177 14.6083C43.3314 14.9582 42.8891 14.6881 42.4203 14.32C38.6571 11.3573 34.3928 10.032 29.6038 10.4155C26.5892 10.6576 23.8211 11.605 21.2922 13.2536C19.8437 14.1969 19.2741 15.6761 19.7471 17.3359C20.1502 18.7466 20.6792 20.1167 21.4041 21.3931C21.9611 22.3727 22.4048 23.4055 23.5146 24.0255C25.2359 24.9884 27.0287 25.6545 28.9796 25.8043C31.8289 26.024 34.5272 25.509 36.9749 23.9331C38.3296 23.0613 39.841 22.7282 41.4225 23.0249C42.8779 23.2978 43.7806 24.255 44.1249 25.6881C44.4677 27.1156 45.1059 28.3583 46.1667 29.3856C46.4018 29.6137 46.6258 29.7144 46.9476 29.6906C47.5606 29.6473 48.1708 29.7032 48.7474 29.9342C49.0595 30.0587 49.1434 29.9691 49.1546 29.6557C49.2218 27.7859 49.1225 25.933 48.6704 24.1067C48.0057 21.4225 46.7923 19.0167 45.0401 16.8839C44.6847 16.4501 44.6539 16.0526 44.9716 15.609L44.973 15.6104ZM32.712 48.2143C32.7288 48.2157 32.747 48.2213 32.7638 48.2185C40.4022 47.0317 46.1639 39.9433 45.7973 32.1803C45.7693 31.587 45.6013 31.0202 45.1717 30.6129C43.7988 29.3086 42.9675 27.7244 42.5406 25.8938C42.3559 25.1031 41.7247 24.6371 40.9228 24.5545C39.8102 24.4398 38.7718 24.6665 37.8216 25.2585C36.9917 25.7749 36.1352 26.2381 35.2129 26.5642C31.7926 27.7733 28.3792 27.7188 24.9742 26.5026C24.1415 26.1471 23.3368 25.7371 22.5685 25.2529C21.6378 24.6665 20.6148 24.451 19.519 24.5503C18.4708 24.6455 17.8872 25.1073 17.6423 26.1303C17.2518 27.7621 16.5045 29.1896 15.3093 30.375C14.8685 30.813 14.646 31.356 14.611 31.9662C14.5536 32.9781 14.5858 33.9899 14.7356 34.9919C15.3317 38.9679 17.1637 42.2749 20.2607 44.8261C23.8868 47.8113 28.0531 48.9476 32.7092 48.2157L32.712 48.2143ZM11.2466 28.7558C11.2466 29.0693 11.2508 29.3842 11.2466 29.6976C11.2424 29.951 11.3194 30.0587 11.5895 29.9496C12.1997 29.7046 12.8406 29.6543 13.49 29.6836C13.6663 29.692 13.8091 29.6641 13.956 29.5213C15.1022 28.4073 15.8286 27.0792 16.1784 25.5146C16.3576 24.7169 16.8292 24.0675 17.5177 23.5819C18.2693 23.0529 19.1328 22.9647 20.0004 22.9101C20.3825 22.8863 20.3601 22.759 20.202 22.5085C19.8017 21.8717 19.4938 21.1873 19.2097 20.4932C18.7283 19.319 18.1993 18.1532 18.0565 16.8741C18.0104 16.4557 17.8802 16.492 17.6241 16.6852C16.6487 17.4199 15.725 18.2064 14.9315 19.1469C12.5887 21.9277 11.3656 25.1269 11.2452 28.7544L11.2466 28.7558ZM13.0436 32.6492C13.0436 32.3357 12.9876 32.0096 13.0562 31.7129C13.1639 31.2469 12.9666 31.2287 12.6111 31.3015C10.8142 31.6681 9.58263 33.3685 9.79535 35.1948C10.0067 37.0086 11.6077 38.3521 13.4592 38.2975C13.8399 38.2863 13.8749 38.1842 13.7685 37.8427C13.2381 36.1535 12.989 34.4209 13.0436 32.6492ZM47.3381 32.9934C47.3955 33.8681 47.2891 34.7316 47.159 35.5923C47.0414 36.3662 46.8721 37.1331 46.623 37.8749C46.5138 38.1982 46.56 38.2877 46.9141 38.3003C48.4269 38.3563 49.8138 37.483 50.3792 36.0821C51.2021 34.0473 49.9272 31.7101 47.7747 31.2903C47.3703 31.2119 47.2177 31.2651 47.3199 31.7437C47.4053 32.1426 47.3367 32.575 47.3367 32.992L47.3381 32.9934ZM22.6553 48.3277C23.2683 49.9805 23.9162 51.6011 24.9434 53.0342C25.3759 53.6373 25.527 53.6541 26.1022 53.1853C27.0861 52.3848 27.7942 51.3492 28.5121 50.3219C28.7571 49.9721 28.6437 49.9091 28.2798 49.8951C27.9342 49.8811 27.5899 49.8111 27.247 49.7523C25.6642 49.4809 24.1527 48.9798 22.6539 48.3291L22.6553 48.3277ZM37.7922 48.3711C37.7054 48.3487 37.6704 48.3263 37.6452 48.3347C37.5627 48.3613 37.4829 48.3948 37.4045 48.4312C35.7979 49.1772 34.1101 49.6376 32.3593 49.8797C31.6666 49.9749 31.6596 49.9819 32.0529 50.5529C32.7456 51.5577 33.4607 52.5443 34.4432 53.3001C34.7721 53.5534 35.0436 53.587 35.3207 53.2175C36.4263 51.7452 37.0868 50.0546 37.7908 48.3711H37.7922Z" fill="#333333"/>
<path d="M44.973 15.6104C44.6539 16.054 44.6847 16.4515 45.0416 16.8853C46.7923 19.0181 48.0057 21.4239 48.6719 24.1081C49.1239 25.9344 49.2233 27.7873 49.1561 29.6571C49.1449 29.9705 49.0609 30.0601 48.7488 29.9356C48.1736 29.7046 47.5635 29.6487 46.9491 29.692C46.6272 29.7144 46.4033 29.6151 46.1682 29.387C45.1074 28.3583 44.4692 27.117 44.1263 25.6895C43.782 24.2564 42.878 23.2992 41.4239 23.0263C39.8425 22.7296 38.331 23.0627 36.9763 23.9345C34.5272 25.509 31.8304 26.0254 28.981 25.8057C27.0301 25.6545 25.236 24.9898 23.516 24.0269C22.4076 23.4069 21.9626 22.3741 21.4056 21.3945C20.6806 20.1181 20.1516 18.748 19.7486 17.3373C19.2741 15.6775 19.8451 14.1983 21.2936 13.255C23.8239 11.6064 26.5907 10.659 29.6052 10.4169C34.3943 10.0334 38.6585 11.3587 42.4217 14.3214C42.8906 14.6909 43.3328 14.961 43.9192 14.6097C44.3362 14.8742 44.6315 15.2689 44.9744 15.6118L44.973 15.6104Z" fill="white"/>
<path d="M15.9811 51.1169C16.5871 51.3814 16.8068 51.331 17.2463 50.8104C17.8215 50.1288 18.4317 49.4809 19.1118 48.9043C19.5904 48.4998 20.0887 48.1177 20.6317 47.6825C20.794 48.0898 20.9381 48.448 21.0823 48.8077C21.6869 50.3107 22.3082 51.804 23.1577 53.1895C23.432 53.6359 23.7231 54.0698 24.094 54.4448C24.8553 55.2174 25.604 55.3251 26.5473 54.7723C27.5004 54.2139 28.1917 53.3798 28.8579 52.5247C29.0076 52.333 29.1504 52.1343 29.3001 51.9314C29.5016 52.0251 29.4065 52.2057 29.4079 52.3386C29.4163 53.4736 29.4037 54.6072 29.4163 55.7422C29.4233 56.3873 29.8109 56.7428 30.3539 56.6336C30.8367 56.5357 30.9837 56.183 30.9837 55.7408C30.9865 54.6408 30.9823 53.5422 30.9879 52.4422C30.9879 52.2784 30.9333 52.1021 31.0705 51.902C31.5351 52.5093 31.9689 53.1125 32.4853 53.6457C32.9486 54.1244 33.4314 54.5764 34.0374 54.8703C34.8939 55.2845 35.5502 55.1796 36.2304 54.5162C36.863 53.899 37.2968 53.1405 37.7054 52.3694C38.4486 50.9685 39.0462 49.5018 39.6172 48.024C39.6535 47.9288 39.6941 47.8336 39.7473 47.7021C41.7528 49.0806 43.3608 50.7908 44.6105 52.8382C45.3019 53.9718 45.8477 55.1726 46.2479 56.4419C46.9645 58.7119 45.4838 60.7943 43.1145 60.7971C34.5104 60.8041 25.9063 60.8013 17.3037 60.7929C14.9245 60.7901 13.4313 58.7119 14.152 56.4545C14.4543 55.5071 14.8196 54.5848 15.3094 53.7199C15.5753 53.2525 15.5781 52.8368 15.21 52.4352C15.2828 51.8894 15.7278 51.5591 15.9797 51.1183L15.9811 51.1169Z" fill="#BDBDBD"/>
<path d="M11.2466 28.7558C11.3669 25.1283 12.5901 21.9277 14.9328 19.1483C15.7264 18.2064 16.65 17.4213 17.6255 16.6866C17.8816 16.4934 18.0103 16.4571 18.0579 16.8755C18.1993 18.1546 18.7297 19.319 19.2111 20.4946C19.4952 21.1873 19.8031 21.8717 20.2033 22.5099C20.3615 22.7618 20.3825 22.8877 20.0018 22.9115C19.1341 22.9661 18.2706 23.0543 17.5191 23.5833C16.8292 24.0689 16.3575 24.7169 16.1798 25.516C15.8299 27.0806 15.1036 28.4087 13.9574 29.5227C13.8104 29.6655 13.6663 29.6934 13.4914 29.685C12.8406 29.6557 12.201 29.706 11.5909 29.9509C11.3208 30.0601 11.2438 29.9509 11.248 29.699C11.2536 29.3856 11.248 29.0707 11.248 28.7572L11.2466 28.7558Z" fill="white"/>
<path d="M13.0436 32.6492C12.9876 34.4209 13.2367 36.1535 13.7685 37.8427C13.8763 38.1842 13.8399 38.2863 13.4592 38.2975C11.6091 38.3521 10.0081 37.0086 9.79535 35.1948C9.58262 33.3685 10.8142 31.6695 12.6111 31.3015C12.9666 31.2287 13.1639 31.2455 13.0562 31.7129C12.9876 32.0096 13.0436 32.3371 13.0436 32.6492Z" fill="white"/>
<path d="M47.3381 32.9934C47.3381 32.5764 47.4053 32.144 47.3213 31.7451C47.2191 31.2665 47.3717 31.2133 47.7761 31.2917C49.9285 31.7115 51.2021 34.0487 50.3806 36.0835C49.8152 37.4844 48.4283 38.3577 46.9154 38.3017C46.5614 38.2891 46.5152 38.1982 46.6243 37.8763C46.8735 37.1345 47.0428 36.3676 47.1604 35.5937C47.2905 34.733 47.3969 33.8681 47.3395 32.9948L47.3381 32.9934Z" fill="white"/>
<path d="M22.6553 48.3277C24.1527 48.9784 25.6642 49.4794 27.2484 49.7509C27.5913 49.8097 27.9356 49.8797 28.2812 49.8937C28.6451 49.9077 28.7585 49.9707 28.5135 50.3205C27.7956 51.3492 27.0875 52.3834 26.1036 53.1839C25.527 53.6527 25.3773 53.6359 24.9448 53.0328C23.9176 51.5997 23.2697 49.9791 22.6567 48.3263L22.6553 48.3277Z" fill="#BDBDBD"/>
<path d="M37.7922 48.371C37.0882 50.0546 36.4277 51.7452 35.3221 53.2175C35.045 53.587 34.7735 53.5534 34.4446 53.3001C33.4622 52.5443 32.747 51.5577 32.0543 50.5529C31.6596 49.9805 31.6666 49.9749 32.3608 49.8797C34.1115 49.6376 35.7993 49.1772 37.4059 48.4312C37.4843 48.3948 37.5641 48.3613 37.6466 48.3347C37.6718 48.3263 37.7082 48.3487 37.7936 48.371H37.7922Z" fill="#BDBDBD"/>
<path d="M45.7413 32.1789C45.7133 31.5856 45.5454 31.0188 45.1157 30.6115C43.7428 29.3072 42.9115 27.723 42.4847 25.8924C42.2999 25.1017 41.6688 24.6357 40.8669 24.5531C39.7543 24.4384 38.7158 24.6651 37.7656 25.2571C36.9357 25.7735 36.0792 26.2367 35.1569 26.5628C31.7366 27.7719 28.3232 27.7174 24.9183 26.5012C24.0856 26.1457 23.2809 25.7357 22.5125 25.2515C21.5819 24.6651 20.5588 24.4496 19.463 24.5489C18.4148 24.6441 17.8312 25.1059 17.5863 26.1289C17.1959 27.7607 16.4485 29.1882 15.2534 30.3736C14.8125 30.8116 14.59 31.3546 14.555 31.9648C14.4977 32.9766 14.5298 33.9885 14.6796 34.9905C15.2758 38.9665 17.1077 42.2735 20.2048 44.8247C23.8309 47.8099 27.9971 48.9462 32.6533 48.2143C32.67 48.2157 32.6882 48.2213 32.705 48.2185C40.3435 47.0317 46.1052 39.9433 45.7385 32.1803L45.7413 32.1789Z" fill="white"/>
<path d="M30.1537 41.34C29.2762 41.3092 28.5051 41.0041 27.895 40.3394C27.5563 39.9699 27.5479 39.5417 27.8558 39.2198C28.1679 38.8937 28.5919 38.8895 28.9768 39.2086C29.8752 39.9517 30.4056 39.9517 31.3097 39.2072C31.696 38.8895 32.12 38.8951 32.4307 39.2212C32.7372 39.5431 32.7274 39.9727 32.3887 40.3422C31.7925 40.9929 31.0368 41.2952 30.1523 41.3386L30.1537 41.34Z" fill="#333333"/>
<path d="M24.0324 40.4793C23.2991 40.6822 23.0136 40.5241 22.7953 39.7964C22.8023 39.3989 22.8023 39.0015 22.8177 38.604C22.8387 38.0848 23.1494 37.7657 23.6126 37.7699C24.0758 37.7741 24.3725 38.0932 24.3851 38.6208C24.3949 39.0015 24.3795 39.3821 24.3879 39.7628C24.3949 40.0679 24.2368 40.2834 24.0324 40.4779V40.4793Z" fill="#333333"/>
<path d="M37.4913 39.795C37.2702 40.5241 36.9861 40.6809 36.2528 40.4779C35.9869 40.247 35.8763 39.9615 35.8945 39.606C35.9141 39.2436 35.8847 38.8783 35.9057 38.5172C35.9309 38.0638 36.2444 37.7741 36.6726 37.7699C37.0981 37.7657 37.4283 38.0526 37.4605 38.5004C37.4913 38.9301 37.4815 39.3639 37.4899 39.7964L37.4913 39.795Z" fill="#333333"/>
<path d="M36.6488 31.7409C36.6418 32.1496 36.2947 32.3721 35.8356 32.2895C34.2668 32.0082 32.684 31.8417 31.0802 31.7983C29.0117 31.7423 26.9713 31.934 24.9462 32.2783C24.4956 32.3553 24.1765 32.2055 24.1037 31.8948C24.0267 31.5688 24.2325 31.3309 24.6803 31.2483C28.4589 30.5443 32.2376 30.5443 36.019 31.2343C36.3898 31.3015 36.6306 31.4442 36.6474 31.7395L36.6488 31.7409Z" fill="#333333"/>
</g>
</g>
<defs>
<clipPath id="clip0_1384_9600">
<path d="M0 30C0 13.4315 13.4315 0 30 0C46.5685 0 60 13.4315 60 30C60 46.5685 46.5685 60 30 60C13.4315 60 0 46.5685 0 30Z" fill="white"/>
</clipPath>
<clipPath id="clip1_1384_9600">
<rect width="44" height="53.6187" fill="white" transform="translate(8.19995 8.75568)"/>
</clipPath>
</defs>
</svg>
