<svg width="64" height="64" viewBox="0 0 64 64" fill="none" xmlns="http://www.w3.org/2000/svg">
<g clip-path="url(#clip0_1130_5280)">
<mask id="path-1-outside-1_1130_5280" maskUnits="userSpaceOnUse" x="0" y="0" width="64" height="64" fill="black">
<rect fill="white" width="64" height="64"/>
<path d="M2 32C2 15.4315 15.4315 2 32 2C48.5685 2 62 15.4315 62 32C62 48.5685 48.5685 62 32 62C15.4315 62 2 48.5685 2 32Z"/>
</mask>
<path d="M2 32C2 15.4315 15.4315 2 32 2C48.5685 2 62 15.4315 62 32C62 48.5685 48.5685 62 32 62C15.4315 62 2 48.5685 2 32Z" fill="#FFF5E6"/>
<g clip-path="url(#clip1_1130_5280)">
<path d="M46.9962 35.5162C46.9376 35.2202 46.83 35.04 46.5075 34.9478C45.9908 34.8012 45.5118 34.5457 45.0467 34.2706C42.7077 32.8853 41.0445 30.8492 39.5949 28.6093C39.1397 27.9068 38.9525 27.837 38.1831 28.1275C36.545 28.7461 34.8525 29.1092 33.1055 29.2223C30.2525 29.4066 27.4889 28.9737 24.7951 28.0367C24.203 27.83 23.9391 27.9236 23.6095 28.4459C23.097 29.2558 22.558 30.0448 21.9491 30.785C20.4381 32.6199 18.7498 34.2273 16.4345 35.0093C16.1747 35.0973 16.1552 35.2942 16.1189 35.4855C15.7669 37.3135 15.7139 39.1526 16.0141 40.9904C17.2681 48.6612 23.7827 54.208 31.5876 54.2666C34.347 54.2876 37.2167 53.4762 39.7136 51.9708C45.3149 48.5928 48.2628 41.9288 46.9962 35.519V35.5162Z" fill="white"/>
<path d="M22.6878 14.9001C22.5901 14.0943 22.6473 13.9924 23.4168 13.6209C34.5313 8.25012 48.0212 15.1375 50.1299 27.2645C50.4622 29.179 50.6214 31.1006 50.0293 32.9984C49.926 33.3307 50.0824 33.4006 50.324 33.5067C52.5904 34.5135 53.7537 36.5691 53.5079 39.1135C53.2803 41.4666 51.6353 43.3546 49.3478 43.8908C49.2976 43.9034 49.2445 43.9327 49.197 43.9272C48.1776 43.8154 47.7712 44.3698 47.443 45.272C46.7839 47.0832 45.7016 48.6668 44.3987 50.0884C44.1683 50.3397 44.1767 50.4654 44.4295 50.6986C46.5395 52.6579 48.0868 54.9956 49.1649 57.667C50.6354 61.3118 48.0491 64.7695 45.0244 65.1661C44.9881 65.1703 44.9587 65.2289 44.9266 65.2624H41.5835C41.1855 65.0362 40.9243 64.7206 41.0682 64.243C41.2134 63.7612 41.6128 63.6733 42.0666 63.6844C42.7439 63.7012 43.424 63.6956 44.1013 63.6872C46.8607 63.6523 48.6985 60.985 47.7461 58.3946C47.2224 56.9702 46.4934 55.6519 45.6262 54.4077C45.4293 54.1256 45.2967 54.0725 44.9908 54.2848C42.6657 55.8991 40.3113 57.4715 37.9973 59.104C36.9192 59.8651 35.8691 60.1849 34.6947 59.3596C34.6332 59.3163 34.5145 59.2939 34.4531 59.3232C34.3372 59.3791 34.4531 59.4657 34.4684 59.5369C34.717 60.8147 34.9768 62.091 35.2169 63.3702C35.2658 63.6342 35.3831 63.697 35.6359 63.6928C36.5408 63.6774 37.4443 63.6984 38.3492 63.6816C38.8045 63.6733 39.2025 63.7584 39.3603 64.2304C39.5195 64.7066 39.2374 65.0153 38.8659 65.261H17.9649C17.8951 65.0739 17.7066 65.1088 17.5711 65.0697C14.376 64.1592 12.7128 60.8622 13.8998 57.769C14.9388 55.064 16.5 52.7054 18.6297 50.7363C18.9118 50.4752 18.9369 50.3411 18.6688 50.0479C17.1857 48.4266 16.0699 46.5763 15.3298 44.5053C15.2111 44.1715 15.0701 44.0291 14.6818 44.0026C12.2883 43.8434 10.498 42.4162 9.81095 40.1748C9.1197 37.9195 9.77883 35.6335 11.5272 34.2426C11.9378 33.9159 12.3846 33.6533 12.8748 33.462C13.0424 33.3964 13.1485 33.3433 13.0927 33.0919C11.9503 28.0074 13.5228 23.5624 16.3758 19.4428C17.3519 18.0338 18.578 16.8426 19.9242 15.7799C20.3166 15.4699 20.6923 15.3959 21.0944 15.7422C21.4813 16.2952 21.4254 16.6122 20.8123 17.0982C18.571 18.8717 16.838 21.0502 15.7236 23.6783C14.4291 26.7324 13.7769 29.8745 14.7293 33.1813C14.855 33.617 14.9737 33.7762 15.4625 33.6407C16.454 33.367 17.3421 32.9146 18.1535 32.3001C19.8153 31.0419 21.0958 29.4458 22.1879 27.6904C22.6669 26.9195 23.2925 26.407 24.2295 26.3372C24.7322 26.2995 25.1847 26.481 25.6469 26.6291C29.7456 27.9459 33.8316 28.1065 37.9107 26.5327C39.0363 26.0984 40.1325 26.5062 40.8014 27.5577C41.8153 29.1525 42.952 30.6411 44.3987 31.8728C45.3916 32.7177 46.4823 33.3852 47.7712 33.6715C47.9709 33.7162 48.2097 33.8335 48.2949 33.4662C48.5421 32.3825 48.873 31.3212 48.8367 30.1845C48.6761 25.2466 46.7783 21.1116 43.114 17.8062C37.873 13.0875 30.3893 12.0178 24.0396 15.0775C23.5117 15.3316 23.09 15.3372 22.6878 14.9001ZM31.5875 54.2652C34.3469 54.2862 37.2167 53.4748 39.7136 51.9694C45.3148 48.5914 48.2628 41.9274 46.9962 35.5176C46.9375 35.2216 46.83 35.0414 46.5074 34.9492C45.9907 34.8026 45.5117 34.5471 45.0467 34.272C42.7076 32.8867 41.0444 30.8506 39.5949 28.6107C39.1396 27.9082 38.9525 27.8384 38.183 28.1289C36.545 28.7475 34.8525 29.1106 33.1055 29.2237C30.2525 29.408 27.4889 28.9751 24.7951 28.0381C24.203 27.8314 23.939 27.925 23.6095 28.4473C23.097 29.2572 22.5579 30.0462 21.9491 30.7864C20.4381 32.6213 18.7498 34.2287 16.4344 35.0107C16.1747 35.0987 16.1551 35.2956 16.1188 35.4869C15.7669 37.3149 15.7138 39.154 16.0141 40.9918C17.2681 48.6626 23.7826 54.2094 31.5875 54.268V54.2652ZM28.5334 59.2059C27.2277 60.1835 26.1287 59.9153 24.9906 59.1068C22.7102 57.4869 20.378 55.9368 18.0795 54.342C17.7848 54.1381 17.6493 54.1507 17.4441 54.4496C16.6453 55.6142 15.961 56.8375 15.4485 58.1544C14.3369 61.013 16.1509 63.6858 19.2134 63.69C21.8765 63.6928 24.5395 63.6844 27.2026 63.6984C27.5685 63.6998 27.7724 63.6467 27.8073 63.2208C27.8422 62.7921 27.9902 62.3731 28.0586 61.9444C28.1997 61.0758 28.465 60.2268 28.5334 59.2059ZM18.7442 52.8883C21.3081 54.6451 23.8567 56.3934 26.4094 58.1362C26.7878 58.3946 27.1523 58.3178 27.4288 57.9812C27.6928 57.66 27.8771 57.2732 28.1536 56.966C28.4427 56.6448 28.3351 56.3055 28.3575 55.948C28.3966 55.2888 27.852 55.5332 27.5727 55.3754C27.4721 55.3182 27.3381 55.3196 27.2208 55.2888C24.6778 54.6213 22.4001 53.4441 20.3892 51.7502C20.2552 51.6371 20.1462 51.4444 19.9242 51.6692C19.5346 52.063 19.11 52.4233 18.7456 52.8869L18.7442 52.8883ZM34.5857 56.3557C34.5913 56.4409 34.5662 56.5499 34.6095 56.6085C34.967 57.0973 35.2058 57.6726 35.6652 58.0874C35.9669 58.3597 36.2964 58.3443 36.619 58.1237C39.1131 56.4172 41.603 54.7079 44.0985 53.0042C44.2842 52.8771 44.3317 52.7892 44.1432 52.6188C43.8471 52.3507 43.5539 52.0756 43.2927 51.7739C43.0623 51.5086 42.9143 51.5686 42.6699 51.7739C40.5347 53.5698 38.1076 54.8043 35.3789 55.3908C34.7659 55.522 34.5047 55.7455 34.5843 56.3557H34.5857ZM11.1097 38.4376C11.1292 40.3955 12.4042 41.9986 14.161 42.3617C14.5324 42.4385 14.6958 42.4064 14.5939 41.9498C14.1484 39.9598 14.1205 37.9489 14.4361 35.9393C14.4975 35.5455 14.5199 35.3277 14.0353 35.3403C13.9194 35.343 13.7602 35.2355 13.6917 35.1322C13.527 34.8864 13.3664 34.9534 13.1653 35.0638C11.8037 35.8081 11.1585 36.9783 11.1097 38.4362V38.4376ZM48.8828 38.513C48.8465 39.6637 48.7669 40.7893 48.5309 41.8995C48.4178 42.4329 48.4429 42.472 48.947 42.3477C50.5586 41.9497 51.5319 40.9066 51.8894 39.309C52.2427 37.731 51.5989 36.1572 50.3016 35.2928C49.9665 35.0693 49.6327 34.7635 49.2557 35.2607C49.1886 35.3486 48.9987 35.3835 48.8688 35.3766C48.5588 35.3584 48.5882 35.5148 48.6287 35.7299C48.8074 36.6557 48.8437 37.5942 48.8828 38.5144V38.513ZM31.4786 63.69C31.4786 63.69 31.4786 63.6942 31.4786 63.697C32.0861 63.697 32.6949 63.6942 33.3024 63.6984C33.5146 63.6998 33.6864 63.6942 33.6264 63.3968C33.3303 61.9528 33.0398 60.5089 32.7508 59.0635C32.7089 58.8526 32.6405 58.7842 32.4031 58.8638C31.8487 59.0509 31.2649 59.0858 30.7133 58.8959C30.3433 58.7688 30.2706 58.9253 30.2134 59.2143C29.9467 60.5745 29.6855 61.936 29.3965 63.292C29.3183 63.6565 29.4551 63.7026 29.7595 63.6942C30.3321 63.6788 30.906 63.69 31.48 63.69H31.4786ZM30.353 55.793C30.2329 55.8628 29.9215 55.6072 29.9467 56.022C29.9886 56.7342 30.7008 57.4003 31.4521 57.4199C32.2131 57.4394 32.9198 56.8696 33.0147 56.1658C33.0468 55.9284 33.0426 55.7413 32.7145 55.7902C31.9366 55.9047 31.1588 55.8684 30.353 55.793Z" fill="#333333"/>
<path d="M38.8632 65.2652C39.2332 65.0195 39.5167 64.7108 39.3575 64.2346C39.1997 63.7626 38.8017 63.6774 38.3465 63.6858C37.443 63.7026 36.538 63.6816 35.6331 63.697C35.3804 63.7012 35.2645 63.6369 35.2142 63.3744C34.974 62.0952 34.7143 60.8189 34.4657 59.5411C34.4517 59.4699 34.3344 59.3819 34.4503 59.3274C34.5118 59.2981 34.6305 59.3205 34.6919 59.3637C35.8663 60.1891 36.9151 59.8679 37.9946 59.1082C40.3085 57.4771 42.663 55.9047 44.9881 54.289C45.2939 54.0767 45.4266 54.1284 45.6235 54.4119C46.4921 55.6561 47.2197 56.9744 47.7433 58.3988C48.6957 60.9892 46.858 63.6551 44.0985 63.6914C43.4199 63.6998 42.7412 63.7054 42.0639 63.6886C41.6086 63.6774 41.2092 63.7654 41.0654 64.2472C40.9216 64.7234 41.1827 65.0404 41.5807 65.2666H38.8646L38.8632 65.2652Z" fill="#FF8120"/>
<path d="M22.6878 14.9001C23.09 15.3372 23.5103 15.3316 24.0396 15.0775C30.3893 12.0178 37.873 13.0875 43.1126 17.8132C46.7783 21.1186 48.6747 25.2549 48.8353 30.1915C48.8716 31.3282 48.5406 32.3895 48.2935 33.4732C48.2097 33.8418 47.9695 33.7231 47.7698 33.6785C46.4809 33.3908 45.3888 32.7247 44.3973 31.8798C42.9506 30.6481 41.8138 29.1581 40.8 27.5647C40.1325 26.5146 39.0349 26.1054 37.9093 26.5397C33.8302 28.1135 29.7442 27.9529 25.6455 26.6361C25.1847 26.488 24.7322 26.3065 24.2281 26.3442C23.2911 26.414 22.6654 26.9265 22.1865 27.6974C21.0944 29.4527 19.8138 31.0503 18.152 32.3071C17.3407 32.9216 16.4525 33.374 15.461 33.6477C14.9723 33.7818 14.8536 33.6226 14.7279 33.1883C13.7755 29.8815 14.4277 26.7394 15.7222 23.6853C16.8352 21.0558 18.5696 18.8787 20.8109 17.1051C21.424 16.6192 21.4798 16.3008 21.093 15.7492C21.5427 15.7045 21.8136 15.3288 22.192 15.1529C22.3596 15.0747 22.523 14.9867 22.6878 14.9029V14.9001Z" fill="white"/>
<path d="M28.5334 59.2059C28.465 60.2254 28.1996 61.0744 28.0586 61.9444C27.9888 62.3717 27.8407 62.7907 27.8072 63.2208C27.7723 63.6467 27.5684 63.7012 27.2026 63.6984C24.5395 63.6844 21.8764 63.6942 19.2133 63.69C16.1509 63.6858 14.3369 61.0144 15.4485 58.1544C15.961 56.8361 16.6452 55.6142 17.444 54.4496C17.6493 54.1507 17.7848 54.1368 18.0794 54.342C20.378 55.9368 22.7087 57.4869 24.9905 59.1068C26.1301 59.9153 27.2277 60.1835 28.5334 59.2059Z" fill="#FF8120"/>
<path d="M18.7442 52.8883C19.1087 52.4247 19.5332 52.0644 19.9228 51.6706C20.1449 51.4458 20.2538 51.6385 20.3878 51.7516C22.3988 53.4455 24.6764 54.6227 27.2194 55.2902C27.3367 55.321 27.4707 55.3196 27.5713 55.3768C27.8492 55.5346 28.3952 55.2902 28.3561 55.9494C28.3352 56.3069 28.4413 56.6462 28.1522 56.9674C27.8757 57.2746 27.6914 57.6614 27.4274 57.9826C27.1509 58.3192 26.7865 58.3974 26.408 58.1376C23.8567 56.3934 21.3081 54.6465 18.7428 52.8897L18.7442 52.8883Z" fill="#FF8120"/>
<path d="M34.5857 56.3557C34.5061 55.7455 34.7672 55.5234 35.3803 55.3908C38.109 54.8043 40.5361 53.5684 42.6713 51.7739C42.9143 51.5686 43.0637 51.5086 43.2941 51.7739C43.5552 52.0756 43.8485 52.3507 44.1445 52.6188C44.3331 52.7892 44.2856 52.8771 44.0999 53.0042C41.6044 54.7079 39.1131 56.4172 36.6204 58.1237C36.2978 58.3443 35.9696 58.3597 35.6666 58.0874C35.2071 57.6726 34.9683 57.0973 34.6108 56.6085C34.5676 56.5499 34.5927 56.4409 34.5871 56.3557H34.5857Z" fill="#FF8120"/>
<path d="M11.1096 38.4376C11.1585 36.9783 11.8037 35.8095 13.1652 35.0651C13.3663 34.9548 13.5269 34.8878 13.6917 35.1336C13.7601 35.2369 13.9207 35.3444 14.0352 35.3416C14.5198 35.3291 14.4975 35.5469 14.436 35.9407C14.1204 37.9503 14.1483 39.9612 14.5938 41.9511C14.6958 42.4078 14.5324 42.4399 14.1609 42.3631C12.4028 42 11.1292 40.3969 11.1096 38.439V38.4376Z" fill="white"/>
<path d="M48.8828 38.513C48.8451 37.5928 48.8074 36.6543 48.6286 35.7285C48.5867 35.5134 48.5574 35.357 48.8688 35.3752C48.9987 35.3835 49.1886 35.3472 49.2556 35.2593C49.6327 34.7635 49.9664 35.0693 50.3016 35.2914C51.6003 36.1572 52.2427 37.7296 51.8894 39.3076C51.5319 40.9052 50.5585 41.9484 48.947 42.3463C48.4429 42.4706 48.4177 42.4315 48.5309 41.8981C48.7669 40.7879 48.8465 39.6609 48.8828 38.5116V38.513Z" fill="white"/>
<path d="M31.4785 63.69C30.9046 63.69 30.332 63.6788 29.7581 63.6942C29.4537 63.7026 29.3182 63.6565 29.395 63.292C29.6841 61.936 29.9452 60.5745 30.2119 59.2143C30.2692 58.9252 30.3418 58.7688 30.7119 58.8959C31.2649 59.0858 31.8472 59.0509 32.4016 58.8638C32.639 58.7842 32.706 58.8512 32.7493 59.0635C33.0384 60.5088 33.3289 61.9528 33.6249 63.3968C33.6864 63.6942 33.5146 63.7012 33.3009 63.6984C32.6935 63.6928 32.0846 63.697 31.4771 63.697C31.4771 63.6942 31.4771 63.6928 31.4771 63.69H31.4785Z" fill="#EE6002"/>
<path d="M30.353 55.793C31.1588 55.8684 31.9366 55.9047 32.7144 55.7902C33.0412 55.7413 33.0468 55.9284 33.0147 56.1658C32.9197 56.8696 32.2131 57.4394 31.452 57.4199C30.6993 57.4003 29.9885 56.7342 29.9466 56.022C29.9215 55.6058 30.2329 55.8628 30.353 55.793Z" fill="#EE6002"/>
<path d="M31.5596 47.4449C30.6854 47.4127 29.9132 47.1125 29.3043 46.4492C28.9524 46.0652 28.9496 45.6113 29.2834 45.2929C29.6087 44.9815 30.0179 44.9913 30.4047 45.3194C31.2552 46.0386 31.8431 46.0386 32.6921 45.3194C33.079 44.9927 33.4895 44.9829 33.8135 45.2957C34.1459 45.6155 34.1445 46.0693 33.7912 46.4534C33.1963 47.1027 32.4408 47.4016 31.5582 47.4463L31.5596 47.4449Z" fill="#333333"/>
<path d="M25.8061 41.7947C25.8061 42.0196 25.8256 42.2472 25.8019 42.4706C25.7572 42.8924 25.383 43.215 24.9906 43.1954C24.5814 43.1745 24.2462 42.8477 24.2309 42.4176C24.2155 41.9847 24.2141 41.549 24.2365 41.1175C24.2616 40.644 24.6037 40.341 25.0492 40.355C25.4737 40.3675 25.7768 40.6664 25.8061 41.1188C25.8201 41.3437 25.8089 41.5699 25.8089 41.7947C25.8089 41.7947 25.8061 41.7947 25.8047 41.7947H25.8061Z" fill="#333333"/>
<path d="M38.8688 41.7682C38.8688 41.9763 38.8771 42.1844 38.8674 42.3924C38.845 42.8505 38.5043 43.194 38.0784 43.1982C37.686 43.2024 37.3187 42.8714 37.2949 42.4441C37.2698 41.9944 37.2712 41.542 37.2949 41.0923C37.3173 40.6454 37.6455 40.3536 38.0742 40.3536C38.4973 40.3536 38.8213 40.6482 38.8604 41.0923C38.8799 41.3158 38.8632 41.5434 38.8632 41.7682C38.8646 41.7682 38.8674 41.7682 38.8688 41.7682Z" fill="#333333"/>
<path d="M37.8228 34.3013C37.8158 34.709 37.4695 34.9311 37.0115 34.8487C35.446 34.568 33.8666 34.4018 32.2663 34.3585C30.2023 34.3027 28.1662 34.494 26.1455 34.8375C25.6959 34.9143 25.3775 34.7649 25.3049 34.4549C25.228 34.1295 25.4333 33.8921 25.8802 33.8097C29.6507 33.1073 33.4211 33.1073 37.1944 33.7958C37.5645 33.8628 37.8047 34.0052 37.8214 34.2999L37.8228 34.3013Z" fill="#333333"/>
</g>
</g>
<path d="M32 60C16.536 60 4 47.464 4 32H0C0 49.6731 14.3269 64 32 64V60ZM60 32C60 47.464 47.464 60 32 60V64C49.6731 64 64 49.6731 64 32H60ZM32 4C47.464 4 60 16.536 60 32H64C64 14.3269 49.6731 0 32 0V4ZM32 0C14.3269 0 0 14.3269 0 32H4C4 16.536 16.536 4 32 4V0Z" fill="#EE6002" mask="url(#path-1-outside-1_1130_5280)"/>
<defs>
<clipPath id="clip0_1130_5280">
<path d="M2 32C2 15.4315 15.4315 2 32 2C48.5685 2 62 15.4315 62 32C62 48.5685 48.5685 62 32 62C15.4315 62 2 48.5685 2 32Z" fill="white"/>
</clipPath>
<clipPath id="clip1_1130_5280">
<rect width="44" height="53.4904" fill="white" transform="translate(9.54004 11.7749)"/>
</clipPath>
</defs>
</svg>
