<svg width="100" height="60" viewBox="0 0 100 60" fill="none" xmlns="http://www.w3.org/2000/svg">
<g clip-path="url(#clip0_1130_5273)">
<path d="M0 30C0 13.4315 13.4315 0 30 0H70C86.5685 0 100 13.4315 100 30C100 46.5685 86.5685 60 70 60H30C13.4315 60 0 46.5685 0 30Z" fill="#EEEEEE"/>
<g clip-path="url(#clip1_1130_5273)">
<path d="M52.4157 28.5164C55.4515 25.6722 54.6629 21.136 50.8359 19.4871C50.4983 19.3411 50.3445 19.1235 50.2858 18.7728C49.9508 16.7563 48.7725 15.5936 46.7795 15.3303C46.3662 15.2756 46.1055 15.0931 45.9035 14.7385C44.2233 11.7757 41.0637 10.699 37.934 12.0286C37.5013 12.2124 37.1715 12.1524 36.8247 11.8461C33.8971 9.26912 30.2278 9.26781 27.3132 11.8422C26.9678 12.1472 26.6393 12.2137 26.204 12.0312C23.0287 10.6899 19.8169 11.8344 18.1419 14.865C18.0168 15.0918 17.7639 15.3381 17.5254 15.3994C15.7761 15.8465 14.7007 17.0014 14.0672 18.6216C13.8873 19.083 13.6162 19.3581 13.1522 19.5497C10.7499 20.5416 9.43726 23.1108 9.99906 25.6513C10.2689 26.8687 10.918 27.8568 11.8539 28.6584C8.96409 32.2065 11.4824 37.5208 16.1059 37.5234C17.2595 40.8656 19.2864 43.5951 22.1371 45.7445C21.965 45.8644 21.8542 45.9426 21.7434 46.0182C18.5473 48.2055 16.2362 51.0992 14.8415 54.7138C13.7179 57.6271 15.2312 60.7893 18.1888 61.7395C18.4743 61.8308 18.7637 61.9103 19.0518 61.9963H45.0862C45.1605 61.9637 45.2322 61.9181 45.3104 61.9025C48.6865 61.1973 50.5126 57.8747 49.2782 54.6655C48.1872 51.8292 46.4966 49.406 44.1999 47.4182C43.5155 46.8264 42.7804 46.2933 42.04 45.7106C44.8764 43.5781 46.8798 40.8447 48.0386 37.5169C52.6803 37.513 55.1674 32.1857 52.2906 28.6636C52.3323 28.6154 52.3714 28.5607 52.4196 28.5164H52.4157ZM19.4806 60.3826C17.2503 60.3878 15.4789 57.9764 16.1333 55.7383C16.7694 53.5654 17.9777 51.6858 19.4962 50.0082C19.5145 49.9886 19.5562 49.9899 19.6422 49.9678C19.8834 53.4702 19.8638 56.9297 19.4806 60.3826ZM44.5023 49.8348C46.1251 51.6388 47.3478 53.5237 48.0008 55.707C48.6682 57.9347 47.0649 60.1675 44.6613 60.4243C44.2611 56.9453 44.2429 53.465 44.501 49.8348H44.5023ZM12.4848 33.6273C11.9178 32.2938 12.0807 31.0151 12.9358 29.8303C13.1274 29.5644 13.3073 29.4848 13.6527 29.5878C14.1963 29.7494 14.7698 29.812 15.3616 29.9228C15.0918 31.9119 15.2026 33.8945 15.6431 35.9397C14.0881 35.7259 13.0531 34.9595 12.4861 33.6273H12.4848ZM29.0052 60.4517H25.9967V51.6675C26.8322 52.5747 27.7564 53.2382 28.824 53.6997C28.9074 53.7362 28.9973 53.873 28.9973 53.9643C29.0065 56.1124 29.0052 58.2592 29.0052 60.4517ZM26.0189 47.8822C30.0727 49.3786 34.09 49.3538 38.1113 47.8861C38.0683 50.4853 35.3127 52.7338 32.1335 52.8003C29.0156 52.8654 26.1961 50.6221 26.0189 47.8822ZM38.1582 60.4426H35.1654C35.1524 60.3187 35.1289 60.1897 35.1289 60.062C35.1263 58.0976 35.1224 56.1333 35.1367 54.1702C35.1367 54.0034 35.2319 53.7414 35.3544 53.6866C36.4024 53.2161 37.3109 52.5604 38.1582 51.6402V60.4426ZM34.0105 47.3282C25.8885 48.3932 18.2345 42.6618 16.9479 34.545C16.7029 32.9964 16.6964 31.4401 16.9414 29.8902C16.9662 29.7286 17.1213 29.5252 17.2699 29.4562C19.4037 28.4486 20.526 26.7879 20.5912 24.4182C20.6107 23.6987 21.1751 23.2737 21.879 23.4614C23.8121 23.9776 25.6031 23.7026 27.2428 22.5438C27.6521 22.2544 27.9897 22.3952 28.3612 22.6259C30.2278 23.786 32.2195 24.0245 34.3012 23.3337C34.8408 23.1551 35.3505 22.8644 35.8445 22.5751C36.2421 22.3431 36.5732 22.3157 36.9655 22.5881C38.5649 23.6961 40.3116 23.975 42.1899 23.4732C42.9798 23.262 43.5273 23.6856 43.5559 24.4951C43.6354 26.7997 44.7382 28.4329 46.8146 29.4066C47.0832 29.5318 47.2044 29.6725 47.2239 29.9645C47.2735 30.7075 47.3504 31.4479 47.3869 31.865C47.3334 39.8671 41.6229 46.3311 34.0118 47.3282H34.0105ZM45.1045 24.529C45.0706 23.0808 44.2494 22.0667 42.8899 21.8712C42.5353 21.8204 42.1456 21.8842 41.7923 21.9729C40.3637 22.3313 39.0381 22.1501 37.8245 21.2951C36.9186 20.6577 36.0062 20.6485 35.0742 21.2286C33.0838 22.4682 31.0894 22.4799 29.099 21.2312C28.154 20.6381 27.2298 20.6329 26.3043 21.282C25.0921 22.1332 23.756 22.36 22.3443 21.9351C20.513 21.385 18.9631 22.9648 18.9996 24.4586C19.0465 26.4243 17.5345 28.0562 15.707 28.2192C13.6084 28.4056 11.9321 27.1868 11.4981 25.1573C11.1487 23.5201 12.0677 21.6939 13.6697 21.0396C14.6199 20.6524 15.2182 20.0489 15.5754 19.087C15.9899 17.9686 16.772 17.1813 17.992 16.9036C18.6946 16.7433 19.1899 16.3014 19.5145 15.6614C20.2953 14.1246 21.5323 13.19 23.2555 13.0792C23.9711 13.0336 24.7532 13.1639 25.4232 13.4259C26.6028 13.8874 27.5622 13.744 28.502 12.8915C30.6084 10.9793 33.583 10.9936 35.692 12.911C36.5797 13.7179 37.5117 13.9004 38.6275 13.422C40.9177 12.4418 43.2991 13.2565 44.5127 15.4268C44.9898 16.2793 45.6454 16.7654 46.6282 16.8736C47.8418 17.0079 48.5691 17.717 48.7399 18.9227C48.8859 19.9499 49.419 20.5755 50.3797 20.9783C51.9008 21.6144 52.6438 22.8384 52.7116 24.1366C52.7142 26.5546 51.0314 28.253 48.9406 28.2843C46.8889 28.3156 45.1566 26.6185 45.1071 24.529H45.1045ZM51.6819 33.553C51.1422 34.8995 49.8843 35.8419 48.5248 35.8732C48.9172 33.9037 49.0671 31.9276 48.7751 29.9463C49.4594 29.8016 50.0812 29.6608 50.7081 29.5461C50.8111 29.5266 50.9662 29.5865 51.0458 29.6634C51.9426 30.5328 52.2137 32.2274 51.6819 33.553Z" fill="#333333"/>
<path d="M52.709 24.1367C52.6412 22.8384 51.8982 21.6157 50.3771 20.9783C49.4164 20.5768 48.8833 19.9499 48.7373 18.9227C48.5665 17.717 47.8392 17.0079 46.6256 16.8736C45.6415 16.7655 44.9858 16.2779 44.5101 15.4268C43.2965 13.2565 40.9151 12.4418 38.6248 13.422C37.5078 13.9004 36.5771 13.7179 35.6894 12.9111C33.5804 10.9936 30.6058 10.9793 28.4994 12.8915C27.5609 13.744 26.6002 13.8874 25.4206 13.4259C24.7506 13.1639 23.9698 13.0336 23.2529 13.0792C21.5297 13.19 20.2927 14.1246 19.5119 15.6614C19.1873 16.3001 18.6933 16.7433 17.9894 16.9036C16.7693 17.1813 15.9872 17.9686 15.5727 19.087C15.2169 20.0489 14.6186 20.6524 13.667 21.0396C12.0651 21.6926 11.1448 23.5201 11.4954 25.1573C11.9295 27.1855 13.6058 28.4056 15.7044 28.2192C17.5319 28.0562 19.0452 26.4243 18.997 24.4586C18.9605 22.9635 20.5116 21.385 22.3417 21.9351C23.7547 22.36 25.0895 22.1332 26.3017 21.282C27.2272 20.6329 28.1501 20.6381 29.0964 21.2312C31.0868 22.4799 33.0811 22.4695 35.0716 21.2286C36.0035 20.6472 36.916 20.6577 37.8219 21.2951C39.0354 22.1488 40.3611 22.3313 41.7897 21.9729C42.143 21.8842 42.5327 21.8204 42.8872 21.8712C44.2468 22.0667 45.068 23.0808 45.1019 24.529C45.1514 26.6185 46.8837 28.3156 48.9354 28.2843C51.0249 28.2531 52.709 26.5546 52.7064 24.1367H52.709Z" fill="white"/>
<path d="M38.1112 47.8861C34.0913 49.3539 30.0726 49.3773 26.0188 47.8822C26.1961 50.6234 29.0168 52.8667 32.1334 52.8003C35.3126 52.7338 38.0682 50.4853 38.1112 47.8861Z" fill="white"/>
<path d="M48.0009 55.707C47.3465 53.5237 46.1251 51.6388 44.5023 49.8348C44.2442 53.465 44.2625 56.9453 44.6626 60.4243C47.0663 60.1675 48.6695 57.9347 48.0022 55.707H48.0009Z" fill="white"/>
<path d="M35.3557 53.6853C35.2319 53.7401 35.1393 54.0021 35.138 54.1689C35.1237 56.1333 35.1276 58.0963 35.1302 60.0607C35.1302 60.1897 35.155 60.3175 35.1667 60.4413H38.1595V51.6389C37.3136 52.5591 36.405 53.2148 35.3557 53.6853Z" fill="white"/>
<path d="M15.3616 29.9228C14.7698 29.812 14.1963 29.7495 13.6527 29.5878C13.3073 29.4848 13.1274 29.5644 12.9358 29.8303C12.0807 31.0151 11.9178 32.2952 12.4848 33.6273C13.0518 34.9595 14.0868 35.7259 15.6418 35.9397C15.2013 33.8932 15.0918 31.9119 15.3603 29.9228H15.3616Z" fill="white"/>
<path d="M50.7081 29.5461C50.0811 29.6608 49.4594 29.8016 48.7751 29.9463C49.067 31.9289 48.9171 33.9037 48.5248 35.8732C49.8843 35.8419 51.1409 34.8995 51.6818 33.553C52.2136 32.2274 51.9425 30.5328 51.0457 29.6634C50.9662 29.5865 50.8124 29.5266 50.7081 29.5461Z" fill="white"/>
<path d="M22.8618 36.3972L23.3845 36.117C23.1825 36.1939 23.0078 36.2864 22.8618 36.3972Z" fill="#333333"/>
<path d="M28.107 34.2374C28.2464 34.0705 28.412 33.9076 28.5997 33.8007C29.563 33.2558 29.6881 32.3277 29.7624 31.3684C29.7363 31.1103 29.735 30.8535 29.6829 30.6071C29.301 28.7875 27.6651 27.4879 25.8428 27.5453C23.9697 27.6039 22.4759 28.9465 22.1605 30.8509C21.8737 32.5845 22.9387 34.382 24.6801 34.953C25.9262 35.361 27.1502 35.3844 28.1057 34.2374H28.107ZM24.8339 31.8468C24.7766 31.3149 24.7766 30.7675 24.8313 30.2344C24.8691 29.8563 25.1807 29.6556 25.56 29.6621C25.9627 29.6686 26.2313 29.8915 26.2964 30.2956C26.3368 30.5446 26.3251 30.8014 26.3368 31.0542C26.3277 31.2315 26.3316 31.4088 26.3186 31.5848C26.3147 31.6447 26.3082 31.7047 26.299 31.7633C26.2352 32.1674 25.9771 32.3929 25.5704 32.4047C25.1872 32.4164 24.8743 32.2222 24.8339 31.8455V31.8468Z" fill="white"/>
<path d="M35.0598 33.2623C35.5056 33.7355 36.113 34.0535 36.5771 34.5137C37.045 34.9777 37.5443 35.2384 38.2051 35.2058C38.5219 35.1563 38.8451 35.1354 39.1541 35.0546C41.1797 34.528 42.3919 32.5011 41.9083 30.4651C41.4326 28.459 39.4148 27.2077 37.3514 27.6378C35.4092 28.0432 34.0548 30.061 34.4485 32.0501C34.5332 32.4815 34.7613 32.943 35.0611 33.2623H35.0598ZM37.5247 30.2526C37.569 29.855 37.8884 29.6386 38.2925 29.6634C38.7161 29.6895 38.9729 29.9437 39.0107 30.3764C39.0159 30.4312 39.0172 30.4859 39.0185 30.5407C39.0224 30.7049 39.0133 30.8704 39.0133 31.036C39.0133 31.2015 39.0224 31.3671 39.0185 31.5313C39.0185 31.5861 39.0146 31.6408 39.0094 31.6955C38.9703 32.1257 38.72 32.3799 38.2899 32.4046C37.8819 32.4281 37.5677 32.2117 37.5234 31.8155C37.4661 31.2993 37.4661 30.7675 37.5234 30.2526H37.5247Z" fill="white"/>
<path d="M31.1962 32.6497C31.2901 32.1831 32.9898 32.6497 32.9898 32.6497C32.9338 32.449 32.8934 32.3069 32.8543 32.1713C31.0346 32.0905 31.2132 32.0579 31.1949 32.6497H31.1962Z" fill="white"/>
<path d="M47.2226 29.9645C47.2031 29.6725 47.0818 29.5331 46.8133 29.4066C44.7369 28.4342 43.6328 26.7997 43.5546 24.4951C43.5272 23.6856 42.9798 23.262 42.1886 23.4732C40.3102 23.975 38.5636 23.6961 36.9642 22.5881C36.5718 22.3157 36.2408 22.3431 35.8432 22.5751C35.3492 22.8631 34.8395 23.1551 34.2999 23.3337C32.2182 24.0245 30.2265 23.786 28.3599 22.6259C27.9897 22.3952 27.6521 22.2544 27.2415 22.5438C25.6017 23.7026 23.8107 23.9776 21.8777 23.4614C21.1738 23.2737 20.6094 23.6987 20.5898 24.4182C20.526 26.7879 19.4037 28.4486 17.2686 29.4562C17.12 29.5266 16.9661 29.7299 16.9401 29.8902C16.6963 31.4401 16.7015 32.9964 16.9466 34.545C18.2318 42.6618 25.8872 48.3919 34.0092 47.3282C41.6202 46.3311 47.3308 39.8671 47.3842 31.865C47.3477 31.4479 47.2708 30.7075 47.2213 29.9645H47.2226Z" fill="white"/>
<path d="M25.753 32.7266C25.7621 32.668 25.7686 32.608 25.7725 32.548C25.7856 32.3721 25.7816 32.1948 25.7908 32.0175C25.779 31.7633 25.7908 31.5066 25.7504 31.2589C25.6852 30.8548 25.4154 30.6319 25.0139 30.6254C24.6346 30.6189 24.323 30.8196 24.2852 31.1976C24.2318 31.7308 24.2305 32.2782 24.2878 32.81C24.3283 33.1867 24.6411 33.3797 25.0243 33.3692C25.431 33.3575 25.6891 33.1307 25.753 32.7279V32.7266Z" fill="#333333"/>
<path d="M38.9155 33.3679C39.3456 33.3432 39.5959 33.0903 39.635 32.6588C39.6402 32.6041 39.6428 32.5493 39.6441 32.4946C39.648 32.3304 39.6389 32.1648 39.6389 31.9993C39.6389 31.8337 39.648 31.6682 39.6441 31.5039C39.6441 31.4492 39.6402 31.3945 39.6363 31.3397C39.5998 30.9056 39.3417 30.6528 38.9181 30.6267C38.514 30.6019 38.1946 30.8183 38.1503 31.2159C38.093 31.7321 38.0917 32.2639 38.1503 32.7788C38.1946 33.175 38.5088 33.3914 38.9168 33.3679H38.9155Z" fill="#333333"/>
<path d="M38.8764 26.174C36.0257 26.174 33.6377 28.1918 33.0642 30.8744H30.8313C30.2578 28.1918 27.8698 26.174 25.0191 26.174C21.7421 26.174 19.0752 28.8409 19.0752 32.1179C19.0752 35.3948 21.7421 38.0618 25.0191 38.0618C28.296 38.0618 30.7492 35.6021 30.9499 32.5037H32.9469C33.1476 35.6021 35.7298 38.0618 38.8777 38.0618C42.0256 38.0618 44.8216 35.3948 44.8216 32.1179C44.8216 28.8409 42.1547 26.174 38.8777 26.174H38.8764ZM25.0178 36.4311C22.6389 36.4311 20.7032 34.4954 20.7032 32.1166C20.7032 29.7377 22.6389 27.802 25.0178 27.802C27.3966 27.802 29.3323 29.7377 29.3323 32.1166C29.3323 34.4954 27.3966 36.4311 25.0178 36.4311ZM38.8764 36.4311C36.4976 36.4311 34.5619 34.4954 34.5619 32.1166C34.5619 29.7377 36.4976 27.802 38.8764 27.802C41.2553 27.802 43.1896 29.7377 43.1896 32.1166C43.1896 34.4954 41.254 36.4311 38.8764 36.4311Z" fill="#333333"/>
<path d="M31.8063 39.4787C30.9473 39.4761 30.2239 39.1567 29.6386 38.5336C29.3062 38.1791 29.2984 37.7568 29.5982 37.4452C29.9006 37.1298 30.3164 37.1259 30.6853 37.4361C31.5378 38.1504 32.0774 38.1478 32.9612 37.4244C33.3131 37.1363 33.7146 37.135 34.0131 37.4244C34.3259 37.7268 34.3285 38.1504 34.0183 38.518C33.523 39.1046 32.6523 39.4839 31.8063 39.4813V39.4787Z" fill="#333333"/>
<path d="M58.426 15.4216C58.323 14.7959 58.4234 14.5939 58.9657 14.3436C67.0733 10.5987 76.9889 12.4275 83.1244 18.8237C85.369 21.1634 86.8732 23.8994 87.3451 27.1477C87.4924 28.1644 87.5315 29.1863 87.3998 30.2083C87.3633 30.4937 87.4233 30.7271 87.5862 30.9786C88.7972 32.8491 88.6473 35.2762 87.2187 37.0112C87.057 37.208 87.0218 37.3696 87.0688 37.6212C87.4442 39.6025 88.2158 41.4261 89.1817 43.1845C90.1789 45.0002 90.0824 46.7951 88.9354 48.5144C88.3892 49.333 87.6254 49.9013 86.7051 50.2533C85.4485 50.7342 84.1815 51.1826 82.8846 51.5385C82.5144 51.6402 82.4766 51.7418 82.6995 52.0729C83.3982 53.1105 83.9534 54.2276 84.3914 55.402C85.5528 58.5095 83.6549 61.7461 80.3728 62.2596C80.3389 62.2649 80.3115 62.317 80.2802 62.3457H77.9392C77.5729 62.1319 77.3239 61.8373 77.4556 61.3928C77.5898 60.9405 77.9678 60.8597 78.3902 60.874C78.7799 60.8884 79.1697 60.8793 79.5594 60.8766C82.2211 60.8623 83.9521 58.3401 83.0006 55.8569C82.4987 54.5482 81.834 53.3269 81.0154 52.1889C80.3102 51.2087 79.4942 50.3289 78.5974 49.522C78.3537 49.303 78.1282 49.1023 78.0891 49.655C78.0852 49.7019 78.063 49.7488 78.0513 49.7957C77.1558 53.6736 75.645 57.2842 73.3952 60.5781C73.3405 60.6577 73.2049 60.7307 73.3079 60.8766C73.854 60.8766 74.4067 60.8871 74.9594 60.874C75.3817 60.8636 75.7571 60.9418 75.8901 61.3967C76.0204 61.8451 75.7689 62.1332 75.4013 62.3457H55.2116C55.1295 62.1619 54.9392 62.1984 54.7971 62.1593C51.8786 61.355 50.2962 58.2684 51.3572 55.432C51.8643 54.0764 52.5421 52.8094 53.388 51.5685C51.9881 51.1566 50.6403 50.7238 49.3095 50.2402C47.4794 49.5754 46.3584 48.2941 46.0064 46.3754C45.7979 45.2348 46.009 44.149 46.5787 43.1362C47.5771 41.3596 48.3305 39.493 48.6968 37.4765C49.0474 35.55 49.0305 33.6404 48.5964 31.7268C47.8039 28.2387 48.5182 25.0009 50.2949 21.9598C51.6257 19.684 53.405 17.8135 55.5518 16.2897C56.0732 15.9195 56.2518 15.9299 56.7563 16.3275C56.9583 16.9219 56.9009 17.1083 56.3808 17.4811C54.3735 18.9227 52.705 20.6772 51.4771 22.828C50.0029 25.4102 49.3238 28.1631 49.9677 31.1155C50.4526 33.3392 50.5465 35.55 50.1293 37.7828C49.7253 39.944 48.8949 41.9422 47.8535 43.8701C46.7703 45.8749 47.6553 48.0934 49.793 48.8624C51.1226 49.3408 52.4678 49.7684 53.8195 50.1763C54.2053 50.2924 54.4413 50.2324 54.6994 49.9248C55.6248 48.822 56.7211 47.907 57.9046 47.0936C58.3687 46.7756 58.3648 46.786 57.9255 46.434C54.3657 43.5794 52.3335 39.8775 51.8174 35.3479C51.7444 34.7066 51.7431 34.0953 52.1849 33.5022C53.2108 32.1244 54.4608 31.0138 55.8803 30.074C57.3168 29.1225 58.8809 28.3795 60.3174 27.4306C63.1277 25.5744 65.3579 23.1486 67.1607 20.3174C67.3484 20.0229 67.5569 19.8013 67.9323 19.8273C68.2882 19.8508 68.4615 20.0828 68.6062 20.38C68.777 20.7293 68.9634 21.0748 69.1837 21.3941C70.8326 23.7951 73.2049 25.0647 75.9787 25.6696C77.685 26.0423 79.416 26.1571 81.1614 25.998C81.9135 25.9302 82.0621 26.0163 82.3814 26.685C82.5704 27.0799 82.7712 27.4762 82.9015 27.892C83.0566 28.3873 83.2717 28.661 83.8674 28.6623C84.6143 28.665 85.3038 28.9947 86.0299 29.3845C86.0299 29.1446 86.0325 28.9869 86.0299 28.8292C85.9764 26.2861 85.2165 23.9529 83.7449 21.8986C79.9856 16.6481 74.7183 14.1924 68.3833 13.8808C65.3345 13.7309 62.4108 14.3931 59.6278 15.6432C59.1508 15.8569 58.7558 15.8647 58.4234 15.4177L58.426 15.4216ZM67.8176 22.0198C67.6873 22.1971 67.5817 22.3392 67.4774 22.4812C66.535 23.7691 65.4922 24.9683 64.3517 26.0854C62.6402 27.7616 60.6445 29.0221 58.5616 30.1705C56.9231 31.0738 55.3628 32.0905 54.0802 33.4878C53.4754 34.1461 53.0544 34.8148 53.3568 35.7468C53.4154 35.9293 53.4206 36.13 53.4532 36.3216C54.801 44.2911 62.7484 49.7827 70.6397 48.1586C75.8119 47.0936 79.4303 44.063 81.4612 39.218C83.0449 35.4418 82.9354 31.6278 81.336 27.8555C81.2187 27.5792 81.0793 27.4697 80.7599 27.4918C79.8357 27.5557 78.909 27.5218 77.9848 27.4384C73.8527 27.0682 70.3099 25.594 67.8189 22.0198H67.8176ZM67.6078 54.1063C70.4181 54.1011 72.879 53.7388 75.2853 52.9932C75.5473 52.9124 75.6841 52.7872 75.7663 52.5252C76.1664 51.2569 76.5431 49.9847 76.7973 48.6773C76.8377 48.4662 76.998 48.2316 76.6943 48.0856C76.3867 47.937 76.1795 47.5876 75.7102 47.8353C70.4884 50.5948 65.2524 50.5961 60.0306 47.8314C59.5835 47.5941 59.388 47.9487 59.0882 48.0777C58.8027 48.2003 58.9122 48.4284 58.9526 48.6213C59.2316 49.9378 59.5848 51.2348 60.0019 52.5148C60.0919 52.7885 60.2392 52.9241 60.5168 53.0127C62.9204 53.774 65.3905 54.079 67.6078 54.1063ZM88.3931 45.6076C88.4218 45.0654 88.2654 44.5023 87.9734 43.9874C87.0166 42.2968 86.2489 40.5319 85.8096 38.6327C85.7496 38.3759 85.6649 38.2821 85.3821 38.4163C84.7903 38.6979 84.1607 38.8595 83.4998 38.8491C83.2717 38.8452 83.1557 38.9312 83.0749 39.1528C81.993 42.1299 80.2059 44.5961 77.6941 46.5305C77.4464 46.7208 77.4204 46.8186 77.7058 47.0063C79.0315 47.877 80.2085 48.9198 81.2396 50.1242C81.4364 50.3549 81.6254 50.4175 81.9135 50.3315C83.3617 49.9013 84.7994 49.4438 86.2046 48.8911C87.5497 48.3619 88.3892 47.1079 88.3944 45.6089L88.3931 45.6076ZM57.5631 49.2287C57.4262 49.3304 57.3324 49.3917 57.249 49.4646C55.2481 51.2191 53.7465 53.3282 52.7897 55.8139C51.8082 58.3661 53.5262 60.8688 56.257 60.8753C58.2227 60.8806 60.1883 60.8779 62.154 60.8727C62.2674 60.8727 62.4095 60.9444 62.5111 60.7971C61.3041 59.0609 60.2952 57.2178 59.4714 55.2704C58.6502 53.3295 58.0376 51.3208 57.5631 49.2287ZM60.8192 54.6642C61.7629 56.901 62.8944 58.8758 64.2721 60.7124C64.4064 60.891 64.5615 60.8845 64.7388 60.8845C66.8348 60.8845 68.9308 60.8806 71.0268 60.8936C71.2888 60.8949 71.4335 60.8036 71.5821 60.6029C72.4802 59.3868 73.2831 58.1133 73.9714 56.7668C74.3194 56.085 74.6687 55.4033 74.9542 54.6212C70.2356 55.8713 65.5704 55.8908 60.8205 54.6655L60.8192 54.6642ZM83.6184 37.3435C83.694 37.3605 83.7253 37.3761 83.7553 37.3735C85.4355 37.2171 86.8498 35.709 86.9358 33.9832C87.0284 32.14 85.7927 30.5055 84.0786 30.1561C83.6432 30.0675 83.6158 30.1887 83.694 30.5693C84.1607 32.8244 84.1086 35.0768 83.6171 37.3435H83.6184Z" fill="#333333"/>
<path d="M75.4052 62.347C75.7728 62.1358 76.0244 61.8464 75.8941 61.398C75.7611 60.9431 75.3857 60.8649 74.9634 60.8753C74.412 60.8884 73.8593 60.878 73.3119 60.878C73.2089 60.732 73.3444 60.6603 73.3992 60.5795C75.649 57.2869 77.161 53.6749 78.0552 49.797C78.0657 49.7501 78.0891 49.7032 78.093 49.6563C78.1308 49.1049 78.3563 49.3043 78.6014 49.5233C79.4982 50.3302 80.3129 51.21 81.0194 52.1902C81.8392 53.3282 82.504 54.5482 83.0046 55.8582C83.9548 58.3414 82.2251 60.8636 79.5634 60.878C79.1736 60.8806 78.7826 60.8897 78.3941 60.8753C77.9718 60.8597 77.5938 60.9418 77.4595 61.3941C77.3279 61.8386 77.5768 62.1332 77.9431 62.347H75.4079H75.4052Z" fill="#BDBDBD"/>
<path d="M58.426 15.4216C58.7584 15.87 59.1534 15.8621 59.6304 15.6471C62.4134 14.397 65.3371 13.7349 68.3859 13.8848C74.7222 14.1963 79.9882 16.6508 83.7475 21.9025C85.2178 23.9568 85.9777 26.29 86.0325 28.8331C86.0364 28.9908 86.0325 29.1473 86.0325 29.3884C85.3078 29 84.6169 28.6689 83.87 28.6663C83.2743 28.665 83.0605 28.3912 82.9041 27.8959C82.7738 27.4801 82.573 27.0851 82.384 26.6889C82.0647 26.0202 81.9161 25.9329 81.164 26.0019C79.4186 26.161 77.6876 26.045 75.9813 25.6735C73.2075 25.0687 70.8339 23.7991 69.1863 21.398C68.9673 21.0787 68.7796 20.7333 68.6088 20.3839C68.4641 20.0867 68.2908 19.8547 67.9349 19.8313C67.5595 19.8065 67.351 20.0281 67.1633 20.3214C65.3618 23.1525 63.1303 25.577 60.32 27.4345C58.8835 28.3834 57.3207 29.1251 55.8829 30.0779C54.4634 31.0191 53.2121 32.1296 52.1875 33.5061C51.7457 34.0992 51.747 34.7105 51.82 35.3518C52.3374 39.8814 54.3683 43.5833 57.9281 46.438C58.3661 46.7899 58.3713 46.7795 57.9072 47.0975C56.7237 47.9096 55.6274 48.8259 54.702 49.9287C54.4439 50.2363 54.2079 50.2963 53.8221 50.1803C52.4691 49.7736 51.1239 49.3447 49.7956 48.8663C47.6579 48.0973 46.7729 45.8775 47.8561 43.874C48.8975 41.9462 49.7279 39.9479 50.1319 37.7867C50.5491 35.5526 50.4552 33.3432 49.9703 31.1194C49.3264 28.167 50.0068 25.4141 51.4797 22.8319C52.7076 20.6811 54.3761 18.9253 56.3835 17.485C56.9035 17.1122 56.9596 16.9258 56.7589 16.3314C57.3154 16.0329 57.8329 15.6601 58.4234 15.4242L58.426 15.4216Z" fill="white"/>
<path d="M67.8177 22.0198C70.3086 25.594 73.8515 27.0682 77.9835 27.4384C78.9077 27.5218 79.8345 27.5557 80.7587 27.4918C81.078 27.4697 81.2188 27.5805 81.3348 27.8555C82.9342 31.6278 83.0437 35.4418 81.4599 39.218C79.4291 44.0617 75.8093 47.0936 70.6384 48.1586C62.7484 49.7827 54.8011 44.2924 53.452 36.3216C53.4194 36.13 53.4142 35.9293 53.3555 35.7468C53.0531 34.8148 53.4754 34.1461 54.0789 33.4879C55.3629 32.0905 56.9218 31.0738 58.5603 30.1705C60.6433 29.0221 62.6389 27.7603 64.3504 26.0854C65.4909 24.9683 66.5337 23.7691 67.4762 22.4812C67.5804 22.3392 67.6847 22.1971 67.8164 22.0198H67.8177ZM67.875 33.5113C68.6871 33.5139 69.5226 33.1503 69.9971 32.5871C70.2943 32.2352 70.2917 31.8285 69.9919 31.5378C69.7064 31.2615 69.3206 31.2615 68.983 31.5378C68.1357 32.2326 67.6182 32.2352 66.7996 31.5496C66.4451 31.2524 66.0462 31.2563 65.7556 31.5587C65.4688 31.8585 65.4753 32.2626 65.7947 32.6028C66.3565 33.1998 67.0499 33.5061 67.8737 33.51L67.875 33.5113ZM62.5255 31.5026C62.5255 31.5026 62.5294 31.5026 62.532 31.5026C62.532 31.3254 62.5386 31.1468 62.5307 30.9695C62.5099 30.5172 62.2283 30.2109 61.8269 30.194C61.411 30.177 61.0904 30.4964 61.0734 30.9669C61.0591 31.3541 61.0552 31.7425 61.0734 32.1296C61.0917 32.5376 61.4032 32.8257 61.7982 32.8205C62.2205 32.8153 62.4564 32.5728 62.5203 32.1792C62.5568 31.9589 62.5268 31.7282 62.5268 31.5026H62.5255ZM74.7053 31.5352C74.7053 31.5352 74.6948 31.5352 74.6896 31.5352C74.6896 31.2941 74.7248 31.0451 74.6818 30.8118C74.6088 30.4129 74.3351 30.1796 73.9297 30.2044C73.5321 30.2291 73.2688 30.4651 73.2532 30.8874C73.2376 31.3058 73.2297 31.7282 73.2571 32.1453C73.2832 32.552 73.523 32.7931 73.9401 32.8179C74.3364 32.8413 74.657 32.5689 74.7014 32.1635C74.7248 31.9563 74.7053 31.7438 74.7053 31.5339V31.5352Z" fill="white"/>
<path d="M67.6077 54.1064C65.3905 54.079 62.9217 53.7753 60.5167 53.0127C60.2391 52.9254 60.0918 52.7898 60.0019 52.5148C59.5848 51.2348 59.2302 49.9391 58.9526 48.6213C58.9122 48.4284 58.8027 48.2003 59.0881 48.0777C59.3879 47.9487 59.5835 47.5942 60.0306 47.8314C65.2523 50.5948 70.4884 50.5948 75.7102 47.8353C76.1794 47.5876 76.3867 47.937 76.6943 48.0856C76.9967 48.2316 76.8377 48.4662 76.7973 48.6774C76.5431 49.9834 76.1664 51.2569 75.7662 52.5252C75.6841 52.7859 75.5472 52.9111 75.2852 52.9932C72.879 53.7388 70.418 54.0998 67.6077 54.1064Z" fill="#BDBDBD"/>
<path d="M88.393 45.6076C88.3891 47.1066 87.5484 48.3606 86.2032 48.8898C84.798 49.4425 83.359 49.9 81.9121 50.3302C81.6241 50.4162 81.4351 50.3536 81.2382 50.1229C80.2085 48.9185 79.0301 47.8744 77.7045 47.005C77.419 46.8173 77.4451 46.7195 77.6928 46.5292C80.2046 44.5948 81.9916 42.1286 83.0735 39.1515C83.1543 38.9299 83.2691 38.8439 83.4985 38.8478C84.1606 38.8582 84.7902 38.6966 85.3807 38.415C85.6636 38.2808 85.7496 38.3746 85.8082 38.6314C86.2475 40.5306 87.0166 42.2942 87.972 43.9861C88.2627 44.501 88.4204 45.0654 88.3917 45.6063L88.393 45.6076Z" fill="white"/>
<path d="M57.5631 49.2287C58.0376 51.3208 58.6489 53.3282 59.4714 55.2704C60.2952 57.2178 61.3054 59.0596 62.5111 60.7971C62.4095 60.9444 62.2674 60.8714 62.154 60.8727C60.1883 60.8779 58.2227 60.8806 56.257 60.8753C53.5262 60.8688 51.8069 58.3661 52.7898 55.8139C53.7465 53.3282 55.2481 51.2204 57.249 49.4646C57.3324 49.3916 57.4263 49.3304 57.5631 49.2287Z" fill="#BDBDBD"/>
<path d="M60.8192 54.6643C65.5691 55.8895 70.2342 55.87 74.9528 54.6199C74.6674 55.402 74.3194 56.0837 73.97 56.7655C73.2818 58.112 72.4801 59.3868 71.5807 60.6016C71.4321 60.8024 71.2875 60.8936 71.0255 60.8923C68.9295 60.8793 66.8334 60.8832 64.7374 60.8832C64.5602 60.8832 64.4051 60.8897 64.2708 60.7111C62.893 58.8745 61.7616 56.8997 60.8179 54.6629L60.8192 54.6643Z" fill="#BDBDBD"/>
<path d="M83.6184 37.3435C84.1098 35.0781 84.162 32.8244 83.6953 30.5693C83.6171 30.1887 83.6432 30.0675 84.0798 30.1561C85.7939 30.5055 87.0296 32.14 86.9371 33.9832C86.851 35.709 85.4368 37.2171 83.7566 37.3735C83.7266 37.3761 83.6953 37.3605 83.6197 37.3435H83.6184Z" fill="white"/>
<path d="M67.8749 33.5113C67.0511 33.5087 66.3577 33.2024 65.7959 32.6054C65.4765 32.2652 65.47 31.8611 65.7568 31.5613C66.0461 31.2589 66.4463 31.255 66.8009 31.5522C67.6195 32.2378 68.1369 32.2352 68.9842 31.5404C69.3218 31.2628 69.7076 31.2628 69.9931 31.5404C70.2929 31.8311 70.2955 32.2365 69.9983 32.5898C69.5225 33.1529 68.687 33.5165 67.8762 33.5139L67.8749 33.5113Z" fill="#333333"/>
<path d="M62.5255 31.5026C62.5255 31.7281 62.5554 31.9602 62.5189 32.1791C62.4538 32.5728 62.2178 32.8166 61.7968 32.8205C61.4019 32.8244 61.0903 32.5376 61.0721 32.1296C61.0551 31.7425 61.059 31.354 61.0721 30.9669C61.089 30.4964 61.4097 30.177 61.8255 30.1939C62.227 30.2096 62.5085 30.5172 62.5294 30.9695C62.5372 31.1468 62.5307 31.3254 62.5307 31.5026C62.5281 31.5026 62.5268 31.5026 62.5242 31.5026H62.5255Z" fill="#333333"/>
<path d="M74.7052 31.5352C74.7052 31.7451 74.7247 31.9576 74.7013 32.1648C74.6556 32.5702 74.335 32.8426 73.94 32.8192C73.5229 32.7944 73.2831 32.5532 73.257 32.1466C73.2296 31.7281 73.2375 31.3071 73.2531 30.8887C73.2687 30.4664 73.532 30.2304 73.9296 30.2057C74.335 30.1809 74.6087 30.4129 74.6817 30.8131C74.7247 31.0477 74.6895 31.2954 74.6895 31.5365C74.6948 31.5365 74.7 31.5365 74.7052 31.5365V31.5352Z" fill="#333333"/>
<path d="M28.9973 53.9643C28.9973 53.873 28.906 53.7362 28.8239 53.6997C27.8059 53.2604 26.9195 52.6334 26.1153 51.7901C26.0749 51.7171 26.0358 51.6519 25.9967 51.5984C23.9059 48.723 23.2698 47.4547 22.8618 47.2018C22.4538 46.9489 19.2159 50.2572 19.2159 50.2572C19.1925 50.2767 19.1716 50.3262 19.1534 50.3992C17.7964 51.9765 16.7198 53.7322 16.1332 55.7396C15.4997 57.906 17.1408 60.2366 19.2707 60.3761C19.2707 60.38 19.2707 60.3826 19.2707 60.3826L25.9954 60.4439V60.4517H29.0038C29.0038 58.2592 29.0064 56.1124 28.996 53.9643H28.9973Z" fill="#BDBDBD"/>
<path d="M35.1341 53.9643C35.1341 53.873 35.2254 53.7362 35.3075 53.6997C36.3255 53.2604 37.2119 52.6334 38.0161 51.7901C38.0565 51.7171 38.0956 51.6519 38.1347 51.5984C40.2255 48.723 40.8616 47.4547 41.2696 47.2018C41.6776 46.9489 44.9155 50.2572 44.9155 50.2572C44.9389 50.2767 44.9598 50.3262 44.978 50.3992C46.335 51.9765 47.4116 53.7322 47.9982 55.7396C48.6317 57.906 46.9906 60.2366 44.8607 60.3761C44.8607 60.38 44.8607 60.3826 44.8607 60.3826L38.136 60.4439V60.4517H35.1276C35.1276 58.2592 35.125 56.1124 35.1354 53.9643H35.1341Z" fill="#BDBDBD"/>
</g>
</g>
<defs>
<clipPath id="clip0_1130_5273">
<path d="M0 30C0 13.4315 13.4315 0 30 0H70C86.5685 0 100 13.4315 100 30C100 46.5685 86.5685 60 70 60H30C13.4315 60 0 46.5685 0 30Z" fill="white"/>
</clipPath>
<clipPath id="clip1_1130_5273">
<rect width="80" height="52.4339" fill="white" transform="translate(9.87 9.91302)"/>
</clipPath>
</defs>
</svg>
