<svg width="104" height="64" viewBox="0 0 104 64" fill="none" xmlns="http://www.w3.org/2000/svg">
<g clip-path="url(#clip0_1130_5272)">
<mask id="path-1-outside-1_1130_5272" maskUnits="userSpaceOnUse" x="0" y="0" width="104" height="64" fill="black">
<rect fill="white" width="104" height="64"/>
<path d="M2 32C2 15.4315 15.4315 2 32 2H72C88.5685 2 102 15.4315 102 32C102 48.5685 88.5685 62 72 62H32C15.4315 62 2 48.5685 2 32Z"/>
</mask>
<path d="M2 32C2 15.4315 15.4315 2 32 2H72C88.5685 2 102 15.4315 102 32C102 48.5685 88.5685 62 72 62H32C15.4315 62 2 48.5685 2 32Z" fill="#FFF5E6"/>
<g clip-path="url(#clip1_1130_5272)">
<path d="M54.4157 30.5164C57.4515 27.6722 56.6629 23.136 52.8359 21.4871C52.4983 21.3411 52.3445 21.1235 52.2858 20.7728C51.9508 18.7563 50.7725 17.5936 48.7795 17.3303C48.3662 17.2756 48.1055 17.0931 47.9035 16.7385C46.2233 13.7757 43.0637 12.699 39.934 14.0286C39.5013 14.2124 39.1715 14.1524 38.8247 13.8461C35.8971 11.2691 32.2278 11.2678 29.3132 13.8422C28.9678 14.1472 28.6393 14.2137 28.204 14.0312C25.0287 12.6899 21.8169 13.8344 20.1419 16.865C20.0168 17.0918 19.7639 17.3381 19.5254 17.3994C17.7761 17.8465 16.7007 19.0014 16.0672 20.6216C15.8873 21.083 15.6162 21.3581 15.1522 21.5497C12.7499 22.5416 11.4373 25.1108 11.9991 27.6513C12.2689 28.8687 12.918 29.8568 13.8539 30.6584C10.9641 34.2065 13.4824 39.5208 18.1059 39.5234C19.2595 42.8656 21.2864 45.5951 24.1371 47.7445C23.965 47.8644 23.8542 47.9426 23.7434 48.0182C20.5473 50.2055 18.2362 53.0992 16.8415 56.7138C15.7179 59.6271 17.2312 62.7893 20.1888 63.7395C20.4743 63.8308 20.7637 63.9103 21.0518 63.9963H47.0862C47.1605 63.9637 47.2322 63.9181 47.3104 63.9025C50.6865 63.1973 52.5126 59.8747 51.2782 56.6655C50.1872 53.8292 48.4966 51.406 46.1999 49.4182C45.5155 48.8264 44.7804 48.2933 44.04 47.7106C46.8764 45.5781 48.8798 42.8447 50.0386 39.5169C54.6803 39.513 57.1674 34.1857 54.2906 30.6636C54.3323 30.6154 54.3714 30.5607 54.4196 30.5164H54.4157ZM21.4806 62.3826C19.2503 62.3878 17.4789 59.9764 18.1333 57.7383C18.7694 55.5654 19.9777 53.6858 21.4962 52.0082C21.5145 51.9886 21.5562 51.9899 21.6422 51.9678C21.8834 55.4702 21.8638 58.9297 21.4806 62.3826ZM46.5023 51.8348C48.1251 53.6388 49.3478 55.5237 50.0008 57.707C50.6682 59.9347 49.0649 62.1675 46.6613 62.4243C46.2611 58.9453 46.2429 55.465 46.501 51.8348H46.5023ZM14.4848 35.6273C13.9178 34.2938 14.0807 33.0151 14.9358 31.8303C15.1274 31.5644 15.3073 31.4848 15.6527 31.5878C16.1963 31.7494 16.7698 31.812 17.3616 31.9228C17.0918 33.9119 17.2026 35.8945 17.6431 37.9397C16.0881 37.7259 15.0531 36.9595 14.4861 35.6273H14.4848ZM31.0052 62.4517H27.9967V53.6675C28.8322 54.5747 29.7564 55.2382 30.824 55.6997C30.9074 55.7362 30.9973 55.873 30.9973 55.9643C31.0065 58.1124 31.0052 60.2592 31.0052 62.4517ZM28.0189 49.8822C32.0727 51.3786 36.09 51.3538 40.1113 49.8861C40.0683 52.4853 37.3127 54.7338 34.1335 54.8003C31.0156 54.8654 28.1961 52.6221 28.0189 49.8822ZM40.1582 62.4426H37.1654C37.1524 62.3187 37.1289 62.1897 37.1289 62.062C37.1263 60.0976 37.1224 58.1333 37.1367 56.1702C37.1367 56.0034 37.2319 55.7414 37.3544 55.6866C38.4024 55.2161 39.3109 54.5604 40.1582 53.6402V62.4426ZM36.0105 49.3282C27.8885 50.3932 20.2345 44.6618 18.9479 36.545C18.7029 34.9964 18.6964 33.4401 18.9414 31.8902C18.9662 31.7286 19.1213 31.5252 19.2699 31.4562C21.4037 30.4486 22.526 28.7879 22.5912 26.4182C22.6107 25.6987 23.1751 25.2737 23.879 25.4614C25.8121 25.9776 27.6031 25.7026 29.2428 24.5438C29.6521 24.2544 29.9897 24.3952 30.3612 24.6259C32.2278 25.786 34.2195 26.0245 36.3012 25.3337C36.8408 25.1551 37.3505 24.8644 37.8445 24.5751C38.2421 24.3431 38.5732 24.3157 38.9655 24.5881C40.5649 25.6961 42.3116 25.975 44.1899 25.4732C44.9798 25.262 45.5273 25.6856 45.5559 26.4951C45.6354 28.7997 46.7382 30.4329 48.8146 31.4066C49.0832 31.5318 49.2044 31.6725 49.2239 31.9645C49.2735 32.7075 49.3504 33.4479 49.3869 33.865C49.3334 41.8671 43.6229 48.3311 36.0118 49.3282H36.0105ZM47.1045 26.529C47.0706 25.0808 46.2494 24.0667 44.8899 23.8712C44.5353 23.8204 44.1456 23.8842 43.7923 23.9729C42.3637 24.3313 41.0381 24.1501 39.8245 23.2951C38.9186 22.6577 38.0062 22.6485 37.0742 23.2286C35.0838 24.4682 33.0894 24.4799 31.099 23.2312C30.154 22.6381 29.2298 22.6329 28.3043 23.282C27.0921 24.1332 25.756 24.36 24.3443 23.9351C22.513 23.385 20.9631 24.9648 20.9996 26.4586C21.0465 28.4243 19.5345 30.0562 17.707 30.2192C15.6084 30.4056 13.9321 29.1868 13.4981 27.1573C13.1487 25.5201 14.0677 23.6939 15.6697 23.0396C16.6199 22.6524 17.2182 22.0489 17.5754 21.087C17.9899 19.9686 18.772 19.1813 19.992 18.9036C20.6946 18.7433 21.1899 18.3014 21.5145 17.6614C22.2953 16.1246 23.5323 15.19 25.2555 15.0792C25.9711 15.0336 26.7532 15.1639 27.4232 15.4259C28.6028 15.8874 29.5622 15.744 30.502 14.8915C32.6084 12.9793 35.583 12.9936 37.692 14.911C38.5797 15.7179 39.5117 15.9004 40.6275 15.422C42.9177 14.4418 45.2991 15.2565 46.5127 17.4268C46.9898 18.2793 47.6454 18.7654 48.6282 18.8736C49.8418 19.0079 50.5691 19.717 50.7399 20.9227C50.8859 21.9499 51.419 22.5755 52.3797 22.9783C53.9008 23.6144 54.6438 24.8384 54.7116 26.1366C54.7142 28.5546 53.0314 30.253 50.9406 30.2843C48.8889 30.3156 47.1566 28.6185 47.1071 26.529H47.1045ZM53.6819 35.553C53.1422 36.8995 51.8843 37.8419 50.5248 37.8732C50.9172 35.9037 51.0671 33.9276 50.7751 31.9463C51.4594 31.8016 52.0812 31.6608 52.7081 31.5461C52.8111 31.5266 52.9662 31.5865 53.0458 31.6634C53.9426 32.5328 54.2137 34.2274 53.6819 35.553Z" fill="#333333"/>
<path d="M54.709 26.1367C54.6412 24.8384 53.8982 23.6157 52.3771 22.9783C51.4164 22.5768 50.8833 21.9499 50.7373 20.9227C50.5665 19.717 49.8392 19.0079 48.6256 18.8736C47.6415 18.7655 46.9858 18.2779 46.5101 17.4268C45.2965 15.2565 42.9151 14.4418 40.6248 15.422C39.5078 15.9004 38.5771 15.7179 37.6894 14.9111C35.5804 12.9936 32.6058 12.9793 30.4994 14.8915C29.5609 15.744 28.6002 15.8874 27.4206 15.4259C26.7506 15.1639 25.9698 15.0336 25.2529 15.0792C23.5297 15.19 22.2927 16.1246 21.5119 17.6614C21.1873 18.3001 20.6933 18.7433 19.9894 18.9036C18.7693 19.1813 17.9872 19.9686 17.5727 21.087C17.2169 22.0489 16.6186 22.6524 15.667 23.0396C14.0651 23.6926 13.1448 25.5201 13.4954 27.1573C13.9295 29.1855 15.6058 30.4056 17.7044 30.2192C19.5319 30.0562 21.0452 28.4243 20.997 26.4586C20.9605 24.9635 22.5116 23.385 24.3417 23.9351C25.7547 24.36 27.0895 24.1332 28.3017 23.282C29.2272 22.6329 30.1501 22.6381 31.0964 23.2312C33.0868 24.4799 35.0811 24.4695 37.0716 23.2286C38.0035 22.6472 38.916 22.6577 39.8219 23.2951C41.0354 24.1488 42.3611 24.3313 43.7897 23.9729C44.143 23.8842 44.5327 23.8204 44.8872 23.8712C46.2468 24.0667 47.068 25.0808 47.1019 26.529C47.1514 28.6185 48.8837 30.3156 50.9354 30.2843C53.0249 30.2531 54.709 28.5546 54.7064 26.1367H54.709Z" fill="white"/>
<path d="M40.1112 49.8861C36.0913 51.3539 32.0726 51.3773 28.0188 49.8822C28.1961 52.6234 31.0168 54.8667 34.1334 54.8003C37.3126 54.7338 40.0682 52.4853 40.1112 49.8861Z" fill="white"/>
<path d="M50.0009 57.707C49.3465 55.5237 48.1251 53.6388 46.5023 51.8348C46.2442 55.465 46.2625 58.9453 46.6626 62.4243C49.0663 62.1675 50.6695 59.9347 50.0022 57.707H50.0009Z" fill="white"/>
<path d="M37.3557 55.6853C37.2319 55.7401 37.1393 56.0021 37.138 56.1689C37.1237 58.1333 37.1276 60.0963 37.1302 62.0607C37.1302 62.1897 37.155 62.3175 37.1667 62.4413H40.1595V53.6389C39.3136 54.5591 38.405 55.2148 37.3557 55.6853Z" fill="white"/>
<path d="M17.3616 31.9228C16.7698 31.812 16.1963 31.7495 15.6527 31.5878C15.3073 31.4848 15.1274 31.5644 14.9358 31.8303C14.0807 33.0151 13.9178 34.2952 14.4848 35.6273C15.0518 36.9595 16.0868 37.7259 17.6418 37.9397C17.2013 35.8932 17.0918 33.9119 17.3603 31.9228H17.3616Z" fill="white"/>
<path d="M52.7081 31.5461C52.0811 31.6608 51.4594 31.8016 50.7751 31.9463C51.067 33.9289 50.9171 35.9037 50.5248 37.8732C51.8843 37.8419 53.1409 36.8995 53.6818 35.553C54.2136 34.2274 53.9425 32.5328 53.0457 31.6634C52.9662 31.5865 52.8124 31.5266 52.7081 31.5461Z" fill="white"/>
<path d="M24.8618 38.3972L25.3845 38.117C25.1825 38.1939 25.0078 38.2864 24.8618 38.3972Z" fill="#333333"/>
<path d="M30.107 36.2374C30.2464 36.0705 30.412 35.9076 30.5997 35.8007C31.563 35.2558 31.6881 34.3277 31.7624 33.3684C31.7363 33.1103 31.735 32.8535 31.6829 32.6071C31.301 30.7875 29.6651 29.4879 27.8428 29.5453C25.9697 29.6039 24.4759 30.9465 24.1605 32.8509C23.8737 34.5845 24.9387 36.382 26.6801 36.953C27.9262 37.361 29.1502 37.3844 30.1057 36.2374H30.107ZM26.8339 33.8468C26.7766 33.3149 26.7766 32.7675 26.8313 32.2344C26.8691 31.8563 27.1807 31.6556 27.56 31.6621C27.9627 31.6686 28.2313 31.8915 28.2964 32.2956C28.3368 32.5446 28.3251 32.8014 28.3368 33.0542C28.3277 33.2315 28.3316 33.4088 28.3186 33.5848C28.3147 33.6447 28.3082 33.7047 28.299 33.7633C28.2352 34.1674 27.9771 34.3929 27.5704 34.4047C27.1872 34.4164 26.8743 34.2222 26.8339 33.8455V33.8468Z" fill="white"/>
<path d="M37.0598 35.2623C37.5056 35.7355 38.113 36.0535 38.5771 36.5137C39.045 36.9777 39.5443 37.2384 40.2051 37.2058C40.5219 37.1563 40.8451 37.1354 41.1541 37.0546C43.1797 36.528 44.3919 34.5011 43.9083 32.4651C43.4326 30.459 41.4148 29.2077 39.3514 29.6378C37.4092 30.0432 36.0548 32.061 36.4485 34.0501C36.5332 34.4815 36.7613 34.943 37.0611 35.2623H37.0598ZM39.5247 32.2526C39.569 31.855 39.8884 31.6386 40.2925 31.6634C40.7161 31.6895 40.9729 31.9437 41.0107 32.3764C41.0159 32.4312 41.0172 32.4859 41.0185 32.5407C41.0224 32.7049 41.0133 32.8704 41.0133 33.036C41.0133 33.2015 41.0224 33.3671 41.0185 33.5313C41.0185 33.5861 41.0146 33.6408 41.0094 33.6955C40.9703 34.1257 40.72 34.3799 40.2899 34.4046C39.8819 34.4281 39.5677 34.2117 39.5234 33.8155C39.4661 33.2993 39.4661 32.7675 39.5234 32.2526H39.5247Z" fill="white"/>
<path d="M33.1962 34.6497C33.2901 34.1831 34.9898 34.6497 34.9898 34.6497C34.9338 34.449 34.8934 34.3069 34.8543 34.1713C33.0346 34.0905 33.2132 34.0579 33.1949 34.6497H33.1962Z" fill="white"/>
<path d="M49.2226 31.9645C49.2031 31.6725 49.0818 31.5331 48.8133 31.4066C46.7369 30.4342 45.6328 28.7997 45.5546 26.4951C45.5272 25.6856 44.9798 25.262 44.1886 25.4732C42.3102 25.975 40.5636 25.6961 38.9642 24.5881C38.5718 24.3157 38.2408 24.3431 37.8432 24.5751C37.3492 24.8631 36.8395 25.1551 36.2999 25.3337C34.2182 26.0245 32.2265 25.786 30.3599 24.6259C29.9897 24.3952 29.6521 24.2544 29.2415 24.5438C27.6017 25.7026 25.8107 25.9776 23.8777 25.4614C23.1738 25.2737 22.6094 25.6987 22.5898 26.4182C22.526 28.7879 21.4037 30.4486 19.2686 31.4562C19.12 31.5266 18.9661 31.7299 18.9401 31.8902C18.6963 33.4401 18.7015 34.9964 18.9466 36.545C20.2318 44.6618 27.8872 50.3919 36.0092 49.3282C43.6202 48.3311 49.3308 41.8671 49.3842 33.865C49.3477 33.4479 49.2708 32.7075 49.2213 31.9645H49.2226Z" fill="white"/>
<path d="M27.753 34.7266C27.7621 34.668 27.7686 34.608 27.7725 34.548C27.7856 34.3721 27.7816 34.1948 27.7908 34.0175C27.779 33.7633 27.7908 33.5066 27.7504 33.2589C27.6852 32.8548 27.4154 32.6319 27.0139 32.6254C26.6346 32.6189 26.323 32.8196 26.2852 33.1976C26.2318 33.7308 26.2305 34.2782 26.2878 34.81C26.3283 35.1867 26.6411 35.3797 27.0243 35.3692C27.431 35.3575 27.6891 35.1307 27.753 34.7279V34.7266Z" fill="#333333"/>
<path d="M40.9155 35.3679C41.3456 35.3432 41.5959 35.0903 41.635 34.6588C41.6402 34.6041 41.6428 34.5493 41.6441 34.4946C41.648 34.3304 41.6389 34.1648 41.6389 33.9993C41.6389 33.8337 41.648 33.6682 41.6441 33.5039C41.6441 33.4492 41.6402 33.3945 41.6363 33.3397C41.5998 32.9056 41.3417 32.6528 40.9181 32.6267C40.514 32.6019 40.1946 32.8183 40.1503 33.2159C40.093 33.7321 40.0917 34.2639 40.1503 34.7788C40.1946 35.175 40.5088 35.3914 40.9168 35.3679H40.9155Z" fill="#333333"/>
<path d="M40.8764 28.174C38.0257 28.174 35.6377 30.1918 35.0642 32.8744H32.8313C32.2578 30.1918 29.8698 28.174 27.0191 28.174C23.7421 28.174 21.0752 30.8409 21.0752 34.1179C21.0752 37.3948 23.7421 40.0618 27.0191 40.0618C30.296 40.0618 32.7492 37.6021 32.9499 34.5037H34.9469C35.1476 37.6021 37.7298 40.0618 40.8777 40.0618C44.0256 40.0618 46.8216 37.3948 46.8216 34.1179C46.8216 30.8409 44.1547 28.174 40.8777 28.174H40.8764ZM27.0178 38.4311C24.6389 38.4311 22.7032 36.4954 22.7032 34.1166C22.7032 31.7377 24.6389 29.802 27.0178 29.802C29.3966 29.802 31.3323 31.7377 31.3323 34.1166C31.3323 36.4954 29.3966 38.4311 27.0178 38.4311ZM40.8764 38.4311C38.4976 38.4311 36.5619 36.4954 36.5619 34.1166C36.5619 31.7377 38.4976 29.802 40.8764 29.802C43.2553 29.802 45.1896 31.7377 45.1896 34.1166C45.1896 36.4954 43.254 38.4311 40.8764 38.4311Z" fill="#333333"/>
<path d="M33.8063 41.4787C32.9473 41.4761 32.2239 41.1567 31.6386 40.5336C31.3062 40.1791 31.2984 39.7568 31.5982 39.4452C31.9006 39.1298 32.3164 39.1259 32.6853 39.4361C33.5378 40.1504 34.0774 40.1478 34.9612 39.4244C35.3131 39.1363 35.7146 39.135 36.0131 39.4244C36.3259 39.7268 36.3285 40.1504 36.0183 40.518C35.523 41.1046 34.6523 41.4839 33.8063 41.4813V41.4787Z" fill="#333333"/>
<path d="M60.426 17.4216C60.323 16.7959 60.4234 16.5939 60.9657 16.3436C69.0733 12.5987 78.9889 14.4275 85.1244 20.8237C87.369 23.1634 88.8732 25.8994 89.3451 29.1477C89.4924 30.1644 89.5315 31.1863 89.3998 32.2083C89.3633 32.4937 89.4233 32.7271 89.5862 32.9786C90.7972 34.8491 90.6473 37.2762 89.2187 39.0112C89.057 39.208 89.0218 39.3696 89.0688 39.6212C89.4442 41.6025 90.2158 43.4261 91.1817 45.1845C92.1789 47.0002 92.0824 48.7951 90.9354 50.5144C90.3892 51.333 89.6254 51.9013 88.7051 52.2533C87.4485 52.7342 86.1815 53.1826 84.8846 53.5385C84.5144 53.6402 84.4766 53.7418 84.6995 54.0729C85.3982 55.1105 85.9534 56.2276 86.3914 57.402C87.5528 60.5095 85.6549 63.7461 82.3728 64.2596C82.3389 64.2649 82.3115 64.317 82.2802 64.3457H79.9392C79.5729 64.1319 79.3239 63.8373 79.4556 63.3928C79.5898 62.9405 79.9678 62.8597 80.3902 62.874C80.7799 62.8884 81.1697 62.8793 81.5594 62.8766C84.2211 62.8623 85.9521 60.3401 85.0006 57.8569C84.4987 56.5482 83.834 55.3269 83.0154 54.1889C82.3102 53.2087 81.4942 52.3289 80.5974 51.522C80.3537 51.303 80.1282 51.1023 80.0891 51.655C80.0852 51.7019 80.063 51.7488 80.0513 51.7957C79.1558 55.6736 77.645 59.2842 75.3952 62.5781C75.3405 62.6577 75.2049 62.7307 75.3079 62.8766C75.854 62.8766 76.4067 62.8871 76.9594 62.874C77.3817 62.8636 77.7571 62.9418 77.8901 63.3967C78.0204 63.8451 77.7689 64.1332 77.4013 64.3457H57.2116C57.1295 64.1619 56.9392 64.1984 56.7971 64.1593C53.8786 63.355 52.2962 60.2684 53.3572 57.432C53.8643 56.0764 54.5421 54.8094 55.388 53.5685C53.9881 53.1566 52.6403 52.7238 51.3095 52.2402C49.4794 51.5754 48.3584 50.2941 48.0064 48.3754C47.7979 47.2348 48.009 46.149 48.5787 45.1362C49.5771 43.3596 50.3305 41.493 50.6968 39.4765C51.0474 37.55 51.0305 35.6404 50.5964 33.7268C49.8039 30.2387 50.5182 27.0009 52.2949 23.9598C53.6257 21.684 55.405 19.8135 57.5518 18.2897C58.0732 17.9195 58.2518 17.9299 58.7563 18.3275C58.9583 18.9219 58.9009 19.1083 58.3808 19.4811C56.3735 20.9227 54.705 22.6772 53.4771 24.828C52.0029 27.4102 51.3238 30.1631 51.9677 33.1155C52.4526 35.3392 52.5465 37.55 52.1293 39.7828C51.7253 41.944 50.8949 43.9422 49.8535 45.8701C48.7703 47.8749 49.6553 50.0934 51.793 50.8624C53.1226 51.3408 54.4678 51.7684 55.8195 52.1763C56.2053 52.2924 56.4413 52.2324 56.6994 51.9248C57.6248 50.822 58.7211 49.907 59.9046 49.0936C60.3687 48.7756 60.3648 48.786 59.9255 48.434C56.3657 45.5794 54.3335 41.8775 53.8174 37.3479C53.7444 36.7066 53.7431 36.0953 54.1849 35.5022C55.2108 34.1244 56.4608 33.0138 57.8803 32.074C59.3168 31.1225 60.8809 30.3795 62.3174 29.4306C65.1277 27.5744 67.3579 25.1486 69.1607 22.3174C69.3484 22.0229 69.5569 21.8013 69.9323 21.8273C70.2882 21.8508 70.4615 22.0828 70.6062 22.38C70.777 22.7293 70.9634 23.0748 71.1837 23.3941C72.8326 25.7951 75.2049 27.0647 77.9787 27.6696C79.685 28.0423 81.416 28.1571 83.1614 27.998C83.9135 27.9302 84.0621 28.0163 84.3814 28.685C84.5704 29.0799 84.7712 29.4762 84.9015 29.892C85.0566 30.3873 85.2717 30.661 85.8674 30.6623C86.6143 30.665 87.3038 30.9947 88.0299 31.3845C88.0299 31.1446 88.0325 30.9869 88.0299 30.8292C87.9764 28.2861 87.2165 25.9529 85.7449 23.8986C81.9856 18.6481 76.7183 16.1924 70.3833 15.8808C67.3345 15.7309 64.4108 16.3931 61.6278 17.6432C61.1508 17.8569 60.7558 17.8647 60.4234 17.4177L60.426 17.4216ZM69.8176 24.0198C69.6873 24.1971 69.5817 24.3392 69.4774 24.4812C68.535 25.7691 67.4922 26.9683 66.3517 28.0854C64.6402 29.7616 62.6445 31.0221 60.5616 32.1705C58.9231 33.0738 57.3628 34.0905 56.0802 35.4878C55.4754 36.1461 55.0544 36.8148 55.3568 37.7468C55.4154 37.9293 55.4206 38.13 55.4532 38.3216C56.801 46.2911 64.7484 51.7827 72.6397 50.1586C77.8119 49.0936 81.4303 46.063 83.4612 41.218C85.0449 37.4418 84.9354 33.6278 83.336 29.8555C83.2187 29.5792 83.0793 29.4697 82.7599 29.4918C81.8357 29.5557 80.909 29.5218 79.9848 29.4384C75.8527 29.0682 72.3099 27.594 69.8189 24.0198H69.8176ZM69.6078 56.1063C72.4181 56.1011 74.879 55.7388 77.2853 54.9932C77.5473 54.9124 77.6841 54.7872 77.7663 54.5252C78.1664 53.2569 78.5431 51.9847 78.7973 50.6773C78.8377 50.4662 78.998 50.2316 78.6943 50.0856C78.3867 49.937 78.1795 49.5876 77.7102 49.8353C72.4884 52.5948 67.2524 52.5961 62.0306 49.8314C61.5835 49.5941 61.388 49.9487 61.0882 50.0777C60.8027 50.2003 60.9122 50.4284 60.9526 50.6213C61.2316 51.9378 61.5848 53.2348 62.0019 54.5148C62.0919 54.7885 62.2392 54.9241 62.5168 55.0127C64.9204 55.774 67.3905 56.079 69.6078 56.1063ZM90.3931 47.6076C90.4218 47.0654 90.2654 46.5023 89.9734 45.9874C89.0166 44.2968 88.2489 42.5319 87.8096 40.6327C87.7496 40.3759 87.6649 40.2821 87.3821 40.4163C86.7903 40.6979 86.1607 40.8595 85.4998 40.8491C85.2717 40.8452 85.1557 40.9312 85.0749 41.1528C83.993 44.1299 82.2059 46.5961 79.6941 48.5305C79.4464 48.7208 79.4204 48.8186 79.7058 49.0063C81.0315 49.877 82.2085 50.9198 83.2396 52.1242C83.4364 52.3549 83.6254 52.4175 83.9135 52.3315C85.3617 51.9013 86.7994 51.4438 88.2046 50.8911C89.5497 50.3619 90.3892 49.1079 90.3944 47.6089L90.3931 47.6076ZM59.5631 51.2287C59.4262 51.3304 59.3324 51.3917 59.249 51.4646C57.2481 53.2191 55.7465 55.3282 54.7897 57.8139C53.8082 60.3661 55.5262 62.8688 58.257 62.8753C60.2227 62.8806 62.1883 62.8779 64.154 62.8727C64.2674 62.8727 64.4095 62.9444 64.5111 62.7971C63.3041 61.0609 62.2952 59.2178 61.4714 57.2704C60.6502 55.3295 60.0376 53.3208 59.5631 51.2287ZM62.8192 56.6642C63.7629 58.901 64.8944 60.8758 66.2721 62.7124C66.4064 62.891 66.5615 62.8845 66.7388 62.8845C68.8348 62.8845 70.9308 62.8806 73.0268 62.8936C73.2888 62.8949 73.4335 62.8036 73.5821 62.6029C74.4802 61.3868 75.2831 60.1133 75.9714 58.7668C76.3194 58.085 76.6687 57.4033 76.9542 56.6212C72.2356 57.8713 67.5704 57.8908 62.8205 56.6655L62.8192 56.6642ZM85.6184 39.3435C85.694 39.3605 85.7253 39.3761 85.7553 39.3735C87.4355 39.2171 88.8498 37.709 88.9358 35.9832C89.0284 34.14 87.7927 32.5055 86.0786 32.1561C85.6432 32.0675 85.6158 32.1887 85.694 32.5693C86.1607 34.8244 86.1086 37.0768 85.6171 39.3435H85.6184Z" fill="#333333"/>
<path d="M77.4052 64.347C77.7728 64.1358 78.0244 63.8464 77.8941 63.398C77.7611 62.9431 77.3857 62.8649 76.9634 62.8753C76.412 62.8884 75.8593 62.878 75.3119 62.878C75.2089 62.732 75.3444 62.6603 75.3992 62.5795C77.649 59.2869 79.161 55.6749 80.0552 51.797C80.0657 51.7501 80.0891 51.7032 80.093 51.6563C80.1308 51.1049 80.3563 51.3043 80.6014 51.5233C81.4982 52.3302 82.3129 53.21 83.0194 54.1902C83.8392 55.3282 84.504 56.5482 85.0046 57.8582C85.9548 60.3414 84.2251 62.8636 81.5634 62.878C81.1736 62.8806 80.7826 62.8897 80.3941 62.8753C79.9718 62.8597 79.5938 62.9418 79.4595 63.3941C79.3279 63.8386 79.5768 64.1332 79.9431 64.347H77.4079H77.4052Z" fill="#FF8120"/>
<path d="M60.426 17.4216C60.7584 17.87 61.1534 17.8621 61.6304 17.6471C64.4134 16.397 67.3371 15.7349 70.3859 15.8848C76.7222 16.1963 81.9882 18.6508 85.7475 23.9025C87.2178 25.9568 87.9777 28.29 88.0325 30.8331C88.0364 30.9908 88.0325 31.1473 88.0325 31.3884C87.3078 31 86.6169 30.6689 85.87 30.6663C85.2743 30.665 85.0605 30.3912 84.9041 29.8959C84.7738 29.4801 84.573 29.0851 84.384 28.6889C84.0647 28.0202 83.9161 27.9329 83.164 28.0019C81.4186 28.161 79.6876 28.045 77.9813 27.6735C75.2075 27.0687 72.8339 25.7991 71.1863 23.398C70.9673 23.0787 70.7796 22.7333 70.6088 22.3839C70.4641 22.0867 70.2908 21.8547 69.9349 21.8313C69.5595 21.8065 69.351 22.0281 69.1633 22.3214C67.3618 25.1525 65.1303 27.577 62.32 29.4345C60.8835 30.3834 59.3207 31.1251 57.8829 32.0779C56.4634 33.0191 55.2121 34.1296 54.1875 35.5061C53.7457 36.0992 53.747 36.7105 53.82 37.3518C54.3374 41.8814 56.3683 45.5833 59.9281 48.438C60.3661 48.7899 60.3713 48.7795 59.9072 49.0975C58.7237 49.9096 57.6274 50.8259 56.702 51.9287C56.4439 52.2363 56.2079 52.2963 55.8221 52.1803C54.4691 51.7736 53.1239 51.3447 51.7956 50.8663C49.6579 50.0973 48.7729 47.8775 49.8561 45.874C50.8975 43.9462 51.7279 41.9479 52.1319 39.7867C52.5491 37.5526 52.4552 35.3432 51.9703 33.1194C51.3264 30.167 52.0068 27.4141 53.4797 24.8319C54.7076 22.6811 56.3761 20.9253 58.3835 19.485C58.9035 19.1122 58.9596 18.9258 58.7589 18.3314C59.3154 18.0329 59.8329 17.6601 60.4234 17.4242L60.426 17.4216Z" fill="white"/>
<path d="M69.8177 24.0198C72.3086 27.594 75.8515 29.0682 79.9835 29.4384C80.9077 29.5218 81.8345 29.5557 82.7587 29.4918C83.078 29.4697 83.2188 29.5805 83.3348 29.8555C84.9342 33.6278 85.0437 37.4418 83.4599 41.218C81.4291 46.0617 77.8093 49.0936 72.6384 50.1586C64.7484 51.7827 56.8011 46.2924 55.452 38.3216C55.4194 38.13 55.4142 37.9293 55.3555 37.7468C55.0531 36.8148 55.4754 36.1461 56.0789 35.4879C57.3629 34.0905 58.9218 33.0738 60.5603 32.1705C62.6433 31.0221 64.6389 29.7603 66.3504 28.0854C67.4909 26.9683 68.5337 25.7691 69.4762 24.4812C69.5804 24.3392 69.6847 24.1971 69.8164 24.0198H69.8177ZM69.875 35.5113C70.6871 35.5139 71.5226 35.1503 71.9971 34.5871C72.2943 34.2352 72.2917 33.8285 71.9919 33.5378C71.7064 33.2615 71.3206 33.2615 70.983 33.5378C70.1357 34.2326 69.6182 34.2352 68.7996 33.5496C68.4451 33.2524 68.0462 33.2563 67.7556 33.5587C67.4688 33.8585 67.4753 34.2626 67.7947 34.6028C68.3565 35.1998 69.0499 35.5061 69.8737 35.51L69.875 35.5113ZM64.5255 33.5026C64.5255 33.5026 64.5294 33.5026 64.532 33.5026C64.532 33.3254 64.5386 33.1468 64.5307 32.9695C64.5099 32.5172 64.2283 32.2109 63.8269 32.194C63.411 32.177 63.0904 32.4964 63.0734 32.9669C63.0591 33.3541 63.0552 33.7425 63.0734 34.1296C63.0917 34.5376 63.4032 34.8257 63.7982 34.8205C64.2205 34.8153 64.4564 34.5728 64.5203 34.1792C64.5568 33.9589 64.5268 33.7282 64.5268 33.5026H64.5255ZM76.7053 33.5352C76.7053 33.5352 76.6948 33.5352 76.6896 33.5352C76.6896 33.2941 76.7248 33.0451 76.6818 32.8118C76.6088 32.4129 76.3351 32.1796 75.9297 32.2044C75.5321 32.2291 75.2688 32.4651 75.2532 32.8874C75.2376 33.3058 75.2297 33.7282 75.2571 34.1453C75.2832 34.552 75.523 34.7931 75.9401 34.8179C76.3364 34.8413 76.657 34.5689 76.7014 34.1635C76.7248 33.9563 76.7053 33.7438 76.7053 33.5339V33.5352Z" fill="white"/>
<path d="M69.6077 56.1064C67.3905 56.079 64.9217 55.7753 62.5167 55.0127C62.2391 54.9254 62.0918 54.7898 62.0019 54.5148C61.5848 53.2348 61.2302 51.9391 60.9526 50.6213C60.9122 50.4284 60.8027 50.2003 61.0881 50.0777C61.3879 49.9487 61.5835 49.5942 62.0306 49.8314C67.2523 52.5948 72.4884 52.5948 77.7102 49.8353C78.1794 49.5876 78.3867 49.937 78.6943 50.0856C78.9967 50.2316 78.8377 50.4662 78.7973 50.6774C78.5431 51.9834 78.1664 53.2569 77.7662 54.5252C77.6841 54.7859 77.5472 54.9111 77.2852 54.9932C74.879 55.7388 72.418 56.0998 69.6077 56.1064Z" fill="#FF8120"/>
<path d="M90.393 47.6076C90.3891 49.1066 89.5484 50.3606 88.2032 50.8898C86.798 51.4425 85.359 51.9 83.9121 52.3302C83.6241 52.4162 83.4351 52.3536 83.2382 52.1229C82.2085 50.9185 81.0301 49.8744 79.7045 49.005C79.419 48.8173 79.4451 48.7195 79.6928 48.5292C82.2046 46.5948 83.9916 44.1286 85.0735 41.1515C85.1543 40.9299 85.2691 40.8439 85.4985 40.8478C86.1606 40.8582 86.7902 40.6966 87.3807 40.415C87.6636 40.2808 87.7496 40.3746 87.8082 40.6314C88.2475 42.5306 89.0166 44.2942 89.972 45.9861C90.2627 46.501 90.4204 47.0654 90.3917 47.6063L90.393 47.6076Z" fill="white"/>
<path d="M59.5631 51.2287C60.0376 53.3208 60.6489 55.3282 61.4714 57.2704C62.2952 59.2178 63.3054 61.0596 64.5111 62.7971C64.4095 62.9444 64.2674 62.8714 64.154 62.8727C62.1883 62.8779 60.2227 62.8806 58.257 62.8753C55.5262 62.8688 53.8069 60.3661 54.7898 57.8139C55.7465 55.3282 57.2481 53.2204 59.249 51.4646C59.3324 51.3916 59.4263 51.3304 59.5631 51.2287Z" fill="#FF8120"/>
<path d="M62.8192 56.6643C67.5691 57.8895 72.2342 57.87 76.9528 56.6199C76.6674 57.402 76.3194 58.0837 75.97 58.7655C75.2818 60.112 74.4801 61.3868 73.5807 62.6016C73.4321 62.8024 73.2875 62.8936 73.0255 62.8923C70.9295 62.8793 68.8334 62.8832 66.7374 62.8832C66.5602 62.8832 66.4051 62.8897 66.2708 62.7111C64.893 60.8745 63.7616 58.8997 62.8179 56.6629L62.8192 56.6643Z" fill="#FF8120"/>
<path d="M85.6184 39.3435C86.1098 37.0781 86.162 34.8244 85.6953 32.5693C85.6171 32.1887 85.6432 32.0675 86.0798 32.1561C87.7939 32.5055 89.0296 34.14 88.9371 35.9832C88.851 37.709 87.4368 39.2171 85.7566 39.3735C85.7266 39.3761 85.6953 39.3605 85.6197 39.3435H85.6184Z" fill="white"/>
<path d="M69.8749 35.5113C69.0511 35.5087 68.3577 35.2024 67.7959 34.6054C67.4765 34.2652 67.47 33.8611 67.7568 33.5613C68.0461 33.2589 68.4463 33.255 68.8009 33.5522C69.6195 34.2378 70.1369 34.2352 70.9842 33.5404C71.3218 33.2628 71.7076 33.2628 71.9931 33.5404C72.2929 33.8311 72.2955 34.2365 71.9983 34.5898C71.5225 35.1529 70.687 35.5165 69.8762 35.5139L69.8749 35.5113Z" fill="#333333"/>
<path d="M64.5255 33.5026C64.5255 33.7281 64.5554 33.9602 64.5189 34.1791C64.4538 34.5728 64.2178 34.8166 63.7968 34.8205C63.4019 34.8244 63.0903 34.5376 63.0721 34.1296C63.0551 33.7425 63.059 33.354 63.0721 32.9669C63.089 32.4964 63.4097 32.177 63.8255 32.1939C64.227 32.2096 64.5085 32.5172 64.5294 32.9695C64.5372 33.1468 64.5307 33.3254 64.5307 33.5026C64.5281 33.5026 64.5268 33.5026 64.5242 33.5026H64.5255Z" fill="#333333"/>
<path d="M76.7052 33.5352C76.7052 33.7451 76.7247 33.9576 76.7013 34.1648C76.6556 34.5702 76.335 34.8426 75.94 34.8192C75.5229 34.7944 75.2831 34.5532 75.257 34.1466C75.2296 33.7281 75.2375 33.3071 75.2531 32.8887C75.2687 32.4664 75.532 32.2304 75.9296 32.2057C76.335 32.1809 76.6087 32.4129 76.6817 32.8131C76.7247 33.0477 76.6895 33.2954 76.6895 33.5365C76.6948 33.5365 76.7 33.5365 76.7052 33.5365V33.5352Z" fill="#333333"/>
<path d="M30.9973 55.9643C30.9973 55.873 30.906 55.7362 30.8239 55.6997C29.8059 55.2604 28.9195 54.6334 28.1153 53.7901C28.0749 53.7171 28.0358 53.6519 27.9967 53.5984C25.9059 50.723 25.2698 49.4547 24.8618 49.2018C24.4538 48.9489 21.2159 52.2572 21.2159 52.2572C21.1925 52.2767 21.1716 52.3262 21.1534 52.3992C19.7964 53.9765 18.7198 55.7322 18.1332 57.7396C17.4997 59.906 19.1408 62.2366 21.2707 62.3761C21.2707 62.38 21.2707 62.3826 21.2707 62.3826L27.9954 62.4439V62.4517H31.0038C31.0038 60.2592 31.0064 58.1124 30.996 55.9643H30.9973Z" fill="#FF8120"/>
<path d="M37.1341 55.9643C37.1341 55.873 37.2254 55.7362 37.3075 55.6997C38.3255 55.2604 39.2119 54.6334 40.0161 53.7901C40.0565 53.7171 40.0956 53.6519 40.1347 53.5984C42.2255 50.723 42.8616 49.4547 43.2696 49.2018C43.6776 48.9489 46.9155 52.2572 46.9155 52.2572C46.9389 52.2767 46.9598 52.3262 46.978 52.3992C48.335 53.9765 49.4116 55.7322 49.9982 57.7396C50.6317 59.906 48.9906 62.2366 46.8607 62.3761C46.8607 62.38 46.8607 62.3826 46.8607 62.3826L40.136 62.4439V62.4517H37.1276C37.1276 60.2592 37.125 58.1124 37.1354 55.9643H37.1341Z" fill="#FF8120"/>
</g>
</g>
<path d="M32 4H72V0H32V4ZM72 60H32V64H72V60ZM32 60C16.536 60 4 47.464 4 32H0C0 49.6731 14.3269 64 32 64V60ZM100 32C100 47.464 87.464 60 72 60V64C89.6731 64 104 49.6731 104 32H100ZM72 4C87.464 4 100 16.536 100 32H104C104 14.3269 89.6731 0 72 0V4ZM32 0C14.3269 0 0 14.3269 0 32H4C4 16.536 16.536 4 32 4V0Z" fill="#EE6002" mask="url(#path-1-outside-1_1130_5272)"/>
<defs>
<clipPath id="clip0_1130_5272">
<path d="M2 32C2 15.4315 15.4315 2 32 2H72C88.5685 2 102 15.4315 102 32C102 48.5685 88.5685 62 72 62H32C15.4315 62 2 48.5685 2 32Z" fill="white"/>
</clipPath>
<clipPath id="clip1_1130_5272">
<rect width="80" height="52.4339" fill="white" transform="translate(11.87 11.913)"/>
</clipPath>
</defs>
</svg>
