<svg width="64" height="64" viewBox="0 0 64 64" fill="none" xmlns="http://www.w3.org/2000/svg">
<g clip-path="url(#clip0_1130_5269)">
<mask id="path-1-outside-1_1130_5269" maskUnits="userSpaceOnUse" x="0" y="0" width="64" height="64" fill="black">
<rect fill="white" width="64" height="64"/>
<path d="M2 32C2 15.4315 15.4315 2 32 2C48.5685 2 62 15.4315 62 32C62 48.5685 48.5685 62 32 62C15.4315 62 2 48.5685 2 32Z"/>
</mask>
<path d="M2 32C2 15.4315 15.4315 2 32 2C48.5685 2 62 15.4315 62 32C62 48.5685 48.5685 62 32 62C15.4315 62 2 48.5685 2 32Z" fill="#FFF5E6"/>
<g clip-path="url(#clip1_1130_5269)">
<path d="M47.6097 33.4641C47.6097 33.4641 47.8392 32.3613 50.2505 32.3613C52.6619 32.3613 55.3867 36.9642 53.6513 39.5812C52.4505 41.3922 50.4898 42.537 48.3738 42.1829C48.1065 42.1381 47.9848 42.1633 47.863 42.4264C46.7448 44.8391 45.1494 46.8866 43.0753 48.5478C42.7045 48.8445 42.9368 48.9228 43.1537 49.0838C46.3446 51.4489 48.5697 54.5124 49.8111 58.2896C50.8971 61.5924 48.6439 64.7371 45.1704 64.7399C36.5677 64.7455 27.9664 64.7469 19.3638 64.7399C15.9252 64.7371 13.651 61.5756 14.7273 58.3218C15.0659 57.296 15.4774 56.301 15.984 55.3465C16.3353 54.6846 16.5606 54.5894 17.2883 54.8049C17.6578 55.208 17.6536 55.6222 17.3877 56.0896C16.8965 56.9545 16.5326 57.8768 16.2303 58.8242C15.5082 61.0816 17.0028 63.1599 19.382 63.1627C27.986 63.1711 36.5901 63.1739 45.1928 63.1669C47.5621 63.1655 49.0428 61.0816 48.3262 58.8117C47.926 57.5437 47.3802 56.3415 46.6888 55.208C45.4391 53.1605 43.8311 51.4503 41.8256 50.0718C41.7724 50.2034 41.7332 50.2985 41.6954 50.3937C41.1259 51.8716 40.5283 53.3382 39.7837 54.7391C39.3751 55.5089 38.9426 56.2688 38.3087 56.886C37.6285 57.5493 36.9722 57.6543 36.1157 57.24C35.5097 56.9461 35.0269 56.4941 34.5636 56.0155C34.0472 55.4823 33.6134 54.8791 33.1488 54.2717C33.0102 54.4718 33.0662 54.6482 33.0662 54.8119C33.0606 55.9119 33.0648 57.0105 33.062 58.1105C33.062 58.5527 32.915 58.9054 32.4322 59.0034C31.8878 59.1139 31.5016 58.7571 31.4946 58.1119C31.482 56.9783 31.4946 55.8433 31.4862 54.7083C31.4862 54.5754 31.5813 54.3963 31.3784 54.3011C31.2273 54.504 31.0859 54.7013 30.9362 54.8945C30.27 55.751 29.5787 56.5837 28.6256 57.1421C27.6823 57.6949 26.9336 57.5871 26.1723 56.8146C25.8028 56.4395 25.5103 56.0057 25.236 55.5592C24.3865 54.1723 23.7638 52.6791 23.1606 51.1774C23.0164 50.8178 22.8723 50.4595 22.7099 50.0522C22.1669 50.4875 21.6687 50.8695 21.1901 51.274C20.5099 51.8506 19.8984 52.4971 19.3246 53.1801C18.8851 53.7007 18.6654 53.7511 18.0594 53.4866C17.683 52.9436 17.69 52.6805 18.1 52.1837C19.1608 50.9017 20.384 49.7905 21.7919 48.7969C20.9102 48.086 20.1111 47.347 19.3904 46.5283C18.3127 45.3052 17.4115 43.9644 16.7299 42.4838C16.5998 42.2011 16.478 42.1269 16.1491 42.1843C14.1017 42.5356 11.9787 41.4873 10.9332 39.6498C9.89621 37.8263 9.913 35.4961 11.2789 33.9063C11.5266 33.618 12.9653 31.9064 14.0233 31.7497C16.1379 31.4362 16.9664 33.3101 16.9664 33.3101M34.789 50.584C34.8057 50.5854 34.8239 50.591 34.8407 50.5882C42.4792 49.4015 48.2409 42.313 47.8742 34.5501C47.8462 33.9567 47.6783 33.3899 47.2486 32.9826C45.8757 31.6783 45.0444 30.0941 44.6176 28.2636C44.4328 27.4728 43.8017 27.0068 42.9998 26.9242C41.8872 26.8095 40.8488 27.0362 39.8985 27.6282C39.0686 28.1446 38.2121 28.6078 37.2898 28.9339C33.8695 30.1431 30.4561 30.0885 27.0512 28.8723C26.2185 28.5169 25.4138 28.1068 24.6454 27.6226C23.7148 27.0362 22.6918 26.8207 21.596 26.92C20.5477 27.0152 19.9641 27.477 19.7192 28.5001C19.3288 30.1319 18.5815 31.5594 17.3863 32.7447C16.9454 33.1828 16.7229 33.7258 16.6879 34.3359C16.6306 35.3478 16.6627 36.3596 16.8125 37.3616C17.4087 41.3376 19.2406 44.6446 22.3377 47.1959C25.9638 50.181 30.13 51.3174 34.7862 50.5854L34.789 50.584ZM15.1205 35.0203C15.1205 34.7068 15.0645 34.3807 15.1331 34.084C15.2409 33.618 15.0435 33.5998 14.6881 33.6726C12.8911 34.0393 11.6596 35.7396 11.8723 37.566C12.0836 39.3797 13.6846 40.7232 15.5362 40.6686C15.9168 40.6575 15.9518 40.5553 15.8454 40.2138C15.315 38.5246 15.0659 36.7921 15.1205 35.0203ZM49.415 35.3646C49.4724 36.2393 49.3661 37.1027 49.2359 37.9634C49.1183 38.7373 48.949 39.5043 48.6999 40.246C48.5907 40.5693 48.6369 40.6588 48.991 40.6714C50.5038 40.7274 51.8907 39.8541 52.4561 38.4533C53.279 36.4184 52.0041 34.0812 49.8517 33.6614C49.4472 33.583 49.2947 33.6362 49.3968 34.1148C49.4822 34.5137 49.4136 34.9461 49.4136 35.3632L49.415 35.3646ZM24.7322 50.6988C25.3452 52.3516 25.9932 53.9722 27.0204 55.4053C27.4528 56.0085 27.604 56.0253 28.1792 55.5564C29.163 54.7559 29.8711 53.7203 30.5891 52.6931C30.834 52.3432 30.7206 52.2802 30.3568 52.2662C30.0111 52.2522 29.6668 52.1823 29.3239 52.1235C27.7411 51.852 26.2297 51.351 24.7308 50.7002L24.7322 50.6988ZM39.8691 50.7422C39.7823 50.7198 39.7474 50.6974 39.7222 50.7058C39.6396 50.7324 39.5598 50.766 39.4814 50.8024C37.8748 51.5483 36.187 52.0087 34.4363 52.2508C33.7435 52.346 33.7365 52.353 34.1298 52.924C34.8225 53.9288 35.5377 54.9155 36.5201 55.6712C36.849 55.9245 37.1205 55.9581 37.3976 55.5886C38.5032 54.1164 39.1638 52.4258 39.8677 50.7422H39.8691Z" fill="#333333"/>
<path d="M15.1205 35.0203C15.0645 36.7921 15.3136 38.5246 15.8454 40.2138C15.9532 40.5553 15.9168 40.6574 15.5361 40.6686C13.686 40.7232 12.085 39.3797 11.8723 37.566C11.6595 35.7396 12.8911 34.0407 14.688 33.6726C15.0435 33.5998 15.2408 33.6166 15.1331 34.084C15.0645 34.3807 15.1205 34.7082 15.1205 35.0203Z" fill="white"/>
<path d="M49.415 35.3646C49.415 34.9475 49.4822 34.5151 49.3982 34.1162C49.296 33.6376 49.4486 33.5844 49.853 33.6628C52.0054 34.0826 53.279 36.4198 52.4575 38.4546C51.8921 39.8555 50.5052 40.7288 48.9923 40.6728C48.6383 40.6602 48.5921 40.5693 48.7012 40.2474C48.9504 39.5057 49.1197 38.7387 49.2373 37.9648C49.3674 37.1041 49.4738 36.2393 49.4164 35.366L49.415 35.3646Z" fill="white"/>
<path d="M24.7322 50.6988C26.2296 51.3496 27.7411 51.8506 29.3253 52.1221C29.6682 52.1809 30.0125 52.2508 30.3581 52.2648C30.722 52.2788 30.8354 52.3418 30.5904 52.6917C29.8725 53.7203 29.1644 54.7545 28.1805 55.555C27.6039 56.0239 27.4542 56.0071 27.0217 55.4039C25.9945 53.9708 25.3466 52.3502 24.7336 50.6974L24.7322 50.6988Z" fill="#BDBDBD"/>
<path d="M39.8691 50.7422C39.1652 52.4258 38.5046 54.1163 37.399 55.5886C37.1219 55.9581 36.8504 55.9245 36.5215 55.6712C35.5391 54.9155 34.8239 53.9288 34.1312 52.924C33.7365 52.3516 33.7435 52.346 34.4377 52.2508C36.1884 52.0087 37.8762 51.5483 39.4828 50.8023C39.5612 50.766 39.641 50.7324 39.7235 50.7058C39.7487 50.6974 39.7851 50.7198 39.8705 50.7422H39.8691Z" fill="#BDBDBD"/>
<path d="M47.8756 34.746C47.8476 34.1526 47.6796 33.5858 47.25 33.1786C45.8771 31.8742 45.0458 30.29 44.619 28.4595C44.4342 27.6688 43.8031 27.2027 43.0011 27.1202C41.8885 27.0054 40.8501 27.2321 39.8999 27.8241C39.07 28.3405 38.2135 28.8038 37.2912 29.1298C33.8709 30.339 30.4575 30.2844 27.0525 29.0683C26.2198 28.7128 25.4151 28.3027 24.6468 27.8185C23.7162 27.2321 22.6931 27.0166 21.5973 27.116C20.5491 27.2111 19.9655 27.673 19.7206 28.696C19.3301 30.3278 18.5828 31.7553 17.3877 32.9407C16.9468 33.3787 16.7243 33.9217 16.6893 34.5319C16.6319 35.5437 16.6641 36.5555 16.8139 37.5576C17.41 41.5335 19.242 44.8405 22.3391 47.3918C25.9651 50.3769 30.1314 51.5133 34.7875 50.7814C34.8043 50.7828 34.8225 50.7884 34.8393 50.7856C42.4777 49.5988 48.2394 42.5104 47.8728 34.7474L47.8756 34.746ZM29.9901 36.7277C30.3022 36.4016 30.7262 36.3974 31.1111 36.7165C32.0095 37.4596 32.5399 37.4596 33.444 36.7151C33.8303 36.3974 34.2543 36.403 34.565 36.7291C34.8715 37.051 34.8617 37.4806 34.523 37.8501C33.9268 38.5008 33.1711 38.8031 32.2866 38.8465C31.4092 38.8157 30.638 38.5106 30.0279 37.8459C29.6892 37.4764 29.6808 37.0482 29.9887 36.7263L29.9901 36.7277ZM24.9295 37.3029C24.9365 36.9054 24.9365 36.508 24.9519 36.1105C24.9729 35.5913 25.2836 35.2722 25.7468 35.2764C26.21 35.2806 26.5067 35.5997 26.5193 36.1273C26.5291 36.508 26.5137 36.8886 26.5221 37.2693C26.5291 37.5744 26.371 37.7899 26.1667 37.9844C25.4333 38.1873 25.1478 38.0292 24.9295 37.3015V37.3029Z" fill="white"/>
<path d="M35.6678 32.9798H24.213V38.8465H35.6678V32.9798Z" fill="white"/>
<path d="M26.1429 42.3312C25.4096 42.5342 25.1241 42.376 24.9058 41.6483C24.9128 41.2508 24.9128 40.8534 24.9282 40.4559C24.9491 39.9367 25.2598 39.6176 25.7231 39.6218C26.1863 39.626 26.483 40.365 26.4956 40.8926C26.5054 41.2732 26.49 41.234 26.4984 41.6147C26.5054 41.9198 26.3472 42.1353 26.1429 42.3298V42.3312Z" fill="#333333"/>
<path d="M39.6018 41.6483C39.3807 42.3774 39.0966 42.5342 38.3632 42.3312C38.0973 42.1003 37.9868 42.2347 38.005 41.8792C38.0246 41.5167 37.9952 40.7316 38.0162 40.3706C38.0414 39.9171 38.3548 39.6274 38.7831 39.6232C39.2085 39.619 39.5388 39.9059 39.571 40.3538C39.6018 40.7834 39.592 41.2172 39.6004 41.6497L39.6018 41.6483Z" fill="#333333"/>
<path d="M32.2881 43.5964C31.4106 43.5656 30.6395 43.2605 30.0294 42.5957C29.6907 42.2263 29.6823 41.798 29.9902 41.4761C30.3023 41.1501 30.7263 41.1459 31.1112 41.465C32.0096 42.2081 32.54 42.2081 33.4441 41.4636C33.8304 41.1459 34.2544 41.1515 34.5651 41.4775C34.8716 41.7994 34.8618 42.2291 34.5231 42.5985C33.9269 43.2493 33.1712 43.5516 32.2867 43.595L32.2881 43.5964Z" fill="#333333"/>
<path d="M16.0484 33.632C16.0484 33.632 19.1874 27.9851 22.4805 27.7499C25.7735 27.5148 32.4602 30.479 32.4602 30.479C34.5623 31.9722 36.8252 33.1072 39.4367 33.3367C41.6619 33.5326 43.8605 33.2485 46.0227 32.7251C46.798 32.5376 47.5257 32.4172 48.2199 32.9295C48.2703 32.9673 48.3528 32.9854 48.4172 32.9784C49.5858 32.8511 50.7012 33.0274 51.7788 33.6376C51.825 32.2395 51.727 30.9408 51.4891 29.6505C50.8663 26.2721 49.4598 23.2604 47.2682 20.6139L44.696 18.0599C42.1559 15.9802 39.2785 14.6269 36.0597 13.9734C33.4203 13.4373 30.7528 13.6235 28.0924 13.6165C25.9302 13.6095 23.768 13.5969 21.6058 13.5997C19.9306 13.6025 18.9271 15.016 19.4729 16.603C19.778 17.4917 19.6087 18.239 18.9257 18.8856C15.7741 21.8707 13.826 25.5108 13.0437 29.775C12.8142 31.0248 12.7204 32.2857 12.7862 33.6152C13.6035 33.2094 14.4026 32.9001 15.2731 32.9561" fill="white"/>
<path d="M51.7789 34.4801C51.6361 34.4801 51.4934 34.4437 51.3646 34.3709C50.5011 33.8825 49.5663 33.7006 48.5068 33.8153C48.2311 33.8447 47.9372 33.7678 47.7203 33.6068C47.3467 33.3311 46.9562 33.3647 46.2201 33.5424C43.7038 34.1526 41.4604 34.3583 39.3626 34.175C36.9317 33.9609 34.6043 33.0204 32.0446 31.2151C31.3127 30.8974 25.4096 28.3839 22.5393 28.5882C20.2147 28.7548 17.5949 32.581 16.7804 34.0407C16.5551 34.4451 16.0442 34.5907 15.6384 34.3653C15.4159 34.2408 15.2703 34.0309 15.2241 33.7985C15.2227 33.7985 15.2199 33.7985 15.2185 33.7985C14.5552 33.7552 13.9142 33.9973 13.1585 34.3723C12.9052 34.4983 12.6043 34.4871 12.3608 34.3443C12.1159 34.2016 11.9605 33.9441 11.9465 33.6614C11.8794 32.3025 11.9675 30.9828 12.2166 29.6281C13.0325 25.1791 15.0954 21.3613 18.3478 18.2796C18.783 17.8681 18.8782 17.4623 18.6781 16.8801C18.3282 15.8627 18.4542 14.82 19.0238 14.0209C19.5934 13.2232 20.5338 12.7656 21.6058 12.7628C23.1187 12.76 24.6553 12.767 26.1416 12.7726C26.7937 12.7754 27.4445 12.7782 28.0953 12.7796C28.6509 12.781 29.2191 12.774 29.7677 12.767C31.8767 12.7404 34.0571 12.7124 36.2277 13.1533C39.5795 13.8334 42.6066 15.2665 45.2292 17.4133C45.2502 17.4301 45.2698 17.4483 45.2894 17.4679L47.8617 20.022C47.8813 20.0415 47.8995 20.0611 47.9163 20.0821C50.189 22.8293 51.6697 25.9978 52.3163 29.5021C52.5668 30.8638 52.6661 32.2269 52.6199 33.6684C52.6101 33.9623 52.4478 34.2296 52.1917 34.3737C52.0643 34.4451 51.923 34.4815 51.7802 34.4815L51.7789 34.4801ZM22.857 26.8977C26.4103 26.8977 32.5303 29.5931 32.8004 29.712C32.8521 29.7344 32.9011 29.7624 32.9459 29.7946C35.2803 31.453 37.3655 32.3123 39.5095 32.5012C41.4226 32.6692 43.4883 32.476 45.824 31.9106C46.4664 31.7553 47.516 31.5006 48.5264 32.1262C49.3815 32.0562 50.1806 32.1345 50.9378 32.3669C50.9084 31.4964 50.8174 30.6497 50.6607 29.8058C50.0701 26.5996 48.7182 23.6998 46.6441 21.1835L44.1306 18.6868C41.7305 16.729 38.9581 15.4218 35.8904 14.7991C33.8962 14.3946 31.8991 14.4198 29.7858 14.4464C29.2303 14.4534 28.6537 14.4604 28.0869 14.459C27.4347 14.4576 26.7825 14.4548 26.1304 14.452C24.6469 14.4464 23.1117 14.4394 21.603 14.4422C21.0726 14.4422 20.6416 14.6395 20.3883 14.995C20.1336 15.3519 20.0888 15.8277 20.2637 16.3329C20.678 17.5379 20.4149 18.6323 19.501 19.4971C16.5131 22.3283 14.6168 25.8382 13.8666 29.929C13.7169 30.7477 13.6315 31.551 13.6091 32.3585C14.1423 32.1849 14.7105 32.0814 15.3249 32.1206C15.525 32.1332 15.7042 32.2157 15.8399 32.3417C16.9357 30.6217 19.5108 27.1188 22.4175 26.9102C22.5575 26.9005 22.7044 26.8949 22.8542 26.8949L22.857 26.8977Z" fill="#333333"/>
<path d="M21.526 50.9955L22.9507 49.7066C22.9507 49.7066 23.8505 50.3643 24.9687 50.7996C26.0869 51.2348 29.629 52.346 30.5513 52.283C31.475 52.22 31.6149 53.7833 31.6149 53.7833L31.4708 59.0104L28.5165 60.0166L23.4979 59.0761L21.5232 57.3898V50.9941L21.526 50.9955Z" fill="#BDBDBD"/>
<path d="M43.0488 50.9955L41.6241 49.7066C41.6241 49.7066 40.7242 50.3643 39.606 50.7996C38.4878 51.2348 34.9457 52.346 34.0235 52.283C33.1012 52.22 32.9598 53.7833 32.9598 53.7833L33.104 59.0104L36.0583 60.0166L41.0769 59.0761L43.0516 57.3898V50.9941L43.0488 50.9955Z" fill="#BDBDBD"/>
<path d="M48.3263 58.813C47.926 57.5451 47.3802 56.3429 46.6888 55.2094C45.8296 53.8015 44.8009 52.5531 43.5904 51.4629L41.6241 49.7066C41.6241 49.7066 36.2556 52.2816 32.1999 52.3334C28.1442 52.3852 22.9507 49.7066 22.9507 49.7066L21.3063 51.1774C21.2671 51.2096 21.2265 51.2418 21.1887 51.2754C20.9858 51.4475 20.7913 51.6267 20.5995 51.81L20.5701 51.8366C20.1307 52.262 19.7165 52.7127 19.3218 53.1815C18.8824 53.7021 18.6626 53.7525 18.0567 53.488C17.8047 53.9302 17.3611 54.2591 17.2869 54.8049C17.6564 55.208 17.6522 55.6222 17.3863 56.0896C16.8951 56.9545 16.5312 57.8768 16.2289 58.8242C15.5068 61.0816 17.0014 63.1599 19.3806 63.1627C27.9846 63.1711 36.5887 63.1739 45.1914 63.1669C47.5607 63.1655 49.0414 61.0816 48.3249 58.8116L48.3263 58.813Z" fill="#FF8120"/>
<path d="M31.6163 55.9833C27.7005 55.9833 26.2423 53.0094 26.0184 51.4377C25.9526 50.9787 26.2717 50.5532 26.7307 50.4875C27.1883 50.4231 27.6124 50.7394 27.6796 51.1956C27.6838 51.2208 27.8181 52.0269 28.3737 52.8008C29.0902 53.7987 30.1804 54.3039 31.6163 54.3039C35.1192 54.3039 36.0219 51.2264 36.0583 51.0963C36.1829 50.6512 36.6447 50.3895 37.0897 50.5113C37.5348 50.6344 37.7993 51.0907 37.6789 51.5371C37.2647 53.0751 35.4635 55.9833 31.6163 55.9833Z" fill="#333333"/>
</g>
</g>
<path d="M32 60C16.536 60 4 47.464 4 32H0C0 49.6731 14.3269 64 32 64V60ZM60 32C60 47.464 47.464 60 32 60V64C49.6731 64 64 49.6731 64 32H60ZM32 4C47.464 4 60 16.536 60 32H64C64 14.3269 49.6731 0 32 0V4ZM32 0C14.3269 0 0 14.3269 0 32H4C4 16.536 16.536 4 32 4V0Z" fill="#EE6002" mask="url(#path-1-outside-1_1130_5269)"/>
<defs>
<clipPath id="clip0_1130_5269">
<path d="M2 32C2 15.4315 15.4315 2 32 2C48.5685 2 62 15.4315 62 32C62 48.5685 48.5685 62 32 62C15.4315 62 2 48.5685 2 32Z" fill="white"/>
</clipPath>
<clipPath id="clip1_1130_5269">
<rect width="44" height="51.9911" fill="white" transform="translate(10.2 12.7544)"/>
</clipPath>
</defs>
</svg>
