<svg width="60" height="60" viewBox="0 0 60 60" fill="none" xmlns="http://www.w3.org/2000/svg">
<g clip-path="url(#clip0_1130_5274)">
<path d="M0 30C0 13.4315 13.4315 0 30 0C46.5685 0 60 13.4315 60 30C60 46.5685 46.5685 60 30 60C13.4315 60 0 46.5685 0 30Z" fill="#EEEEEE"/>
<path d="M45.0123 34.2409C44.9708 33.9321 44.8524 33.8552 44.5655 33.8259C41.7656 33.5428 39.5087 32.3015 37.8708 29.9873C37.5729 29.5662 37.1872 29.3562 36.6697 29.3843C34.5606 29.4991 32.5174 29.1915 30.5547 28.3969C30.1837 28.2468 29.8187 28.2431 29.4477 28.3932C27.485 29.189 25.4418 29.4966 23.3326 29.3831C22.8347 29.3562 22.4404 29.5344 22.1548 29.9409C20.5058 32.2905 18.2307 33.5538 15.3941 33.8333C15.1195 33.8601 15.0194 33.9541 14.9828 34.2336C14.5129 37.833 15.4295 41.0614 17.6692 43.8846C20.8024 47.8343 25.0182 49.5663 29.9676 49.7054C30.5523 49.7067 31.1296 49.6725 31.7045 49.6066C36.1815 49.0952 39.892 47.1801 42.5992 43.5257C44.6412 40.7697 45.4663 37.6646 45.011 34.2385L45.0123 34.2409Z" fill="white"/>
<path d="M18.6202 17.2605C18.0758 17.595 17.529 17.9221 17.0469 18.3468C16.3524 18.9596 15.7751 19.6602 15.4711 20.5463C15.1526 21.4727 14.5362 22.0696 13.6281 22.4296C12.1427 23.0179 10.9538 23.9907 10.1373 25.3736C8.38944 28.3323 9.80773 31.629 13.185 32.282C16.3341 32.891 18.9485 31.8646 20.8965 29.3038C21.6045 28.3725 22.4393 27.9099 23.6159 27.9759C25.4297 28.0772 27.1922 27.7928 28.8802 27.1056C29.6199 26.8041 30.3522 26.7858 31.0968 27.0897C32.8422 27.8025 34.6632 28.0796 36.5405 27.9783C37.6902 27.916 38.4982 28.425 39.1476 29.3429C41.0224 31.9939 44.7634 33.1669 47.6634 32.0476C50.3059 31.0285 51.3593 28.4262 50.1448 25.8704C49.3344 24.1653 47.9722 23.0484 46.2476 22.3503C45.536 22.0622 44.9684 21.6131 44.7121 20.8856C44.0542 19.0182 42.6945 17.8367 40.9589 17.0616C37.8306 15.6641 34.6315 15.5554 31.4226 16.7552C30.4523 17.1177 29.5698 17.1287 28.6031 16.7516C26.2731 15.8423 23.8649 15.7495 21.4262 16.2524" fill="white"/>
<path d="M20.4107 15.8607C20.5107 16.2537 20.861 16.4038 21.4079 16.2915C23.8465 15.7887 26.2547 15.8814 28.5848 16.7907C29.5527 17.1691 30.4339 17.1569 31.4042 16.7944C34.6143 15.5946 37.8134 15.7032 40.9405 17.1008C42.6774 17.877 44.0358 19.0573 44.6937 20.9248C44.95 21.6522 45.5176 22.1014 46.2292 22.3894C47.9538 23.0876 49.316 24.2032 50.1264 25.9095C51.3409 28.4654 50.2875 31.0676 47.645 32.0868C44.745 33.2061 41.004 32.0319 39.1292 29.382C38.4798 28.4642 37.6718 27.9552 36.5221 28.0175C34.6448 28.12 32.8238 27.8429 31.0784 27.1289C30.3338 26.825 29.6015 26.8433 28.8618 27.1448C27.1738 27.8319 25.4113 28.1163 23.5975 28.015C22.4209 27.9491 21.5861 28.4117 20.8781 29.343C18.9313 31.9025 16.3157 32.9302 13.1666 32.3211C9.78934 31.6681 8.37104 28.3714 10.1189 25.4128C10.9354 24.0299 12.1243 23.0571 13.6097 22.4688C14.5178 22.1087 15.1342 21.5119 15.4527 20.5855C15.7579 19.6993 16.334 18.9987 17.0285 18.386C17.5094 17.9613 18.0574 17.6341 18.6018 17.2997C18.9631 17.0776 19.0534 16.7285 18.8825 16.3989C18.7007 16.0523 18.3174 15.9095 17.95 16.1084C16.262 17.0239 14.8742 18.2395 14.1785 20.0875C13.9685 20.6453 13.6231 20.9858 13.0739 21.2055C11.5579 21.8121 10.2971 22.7678 9.33895 24.097C7.2701 26.9665 7.57524 30.6172 10.3935 32.575C10.5961 32.7154 10.5449 32.8021 10.4252 32.9632C8.90687 35.0039 9.02282 37.3706 10.7402 39.2845C10.8939 39.4553 10.883 39.5725 10.7987 39.7568C9.95655 41.5852 9.80642 43.4856 10.3752 45.4043C11.0941 47.8259 12.5258 49.6043 15.0927 50.2451C15.4833 50.3427 15.216 50.5026 15.1391 50.6149C14.364 51.7476 13.7256 52.9523 13.224 54.229C11.8338 57.7686 14.2725 61.3766 18.0769 61.3827C24.0284 61.3925 29.9799 61.3851 35.9313 61.3851C36.5428 61.3851 36.6868 61.2729 36.8663 60.676C36.6905 60.1182 36.5416 60.0071 35.9472 60.0059C30.0116 60.0035 24.076 60.0035 18.1416 59.9986C16.1363 59.9974 14.6435 58.7841 14.2554 56.8398C14.1272 56.2002 14.2078 55.5667 14.4372 54.9577C15.4796 52.1943 17.1481 49.8777 19.4232 47.9968C19.5611 47.8821 19.7052 47.71 19.8699 47.9321C20.0506 48.175 20.5669 48.1042 20.4277 48.662C19.7906 51.2167 20.8464 53.6517 22.9982 54.6867C25.0683 55.6827 27.7011 55.0443 29.3488 53.1415C29.5746 52.8803 29.7736 52.5959 30.0116 52.2871C30.5755 53.1525 31.2663 53.8616 32.1451 54.3791C35.2405 56.2039 38.8546 54.6818 39.6382 51.2179C39.8334 50.3537 39.7944 49.4908 39.5552 48.6462C39.4014 48.1042 39.9384 48.1591 40.1264 47.9163C40.2948 47.699 40.4388 47.8784 40.5756 47.9907C42.8385 49.8618 44.5131 52.1577 45.5432 54.9101C46.4574 57.3536 44.7059 59.9376 42.0951 59.9974C41.1065 60.0206 40.1166 60.0169 39.128 59.9974C38.6251 59.9876 38.3126 60.1744 38.204 60.6736C38.3468 61.0995 38.4481 61.2753 38.7117 61.3424C38.7593 61.3546 38.8131 61.3632 38.8729 61.3693C38.962 61.379 39.0669 61.3815 39.1902 61.3815C40.1496 61.3815 41.1077 61.3913 42.0671 61.379C45.6787 61.329 48.1027 57.7613 46.8273 54.3852C46.3256 53.0573 45.6726 51.8098 44.8683 50.643C44.7157 50.4208 44.6058 50.311 45.005 50.2195C46.2426 49.9363 47.2911 49.2894 48.082 48.2995C50.1496 45.7107 50.4548 42.8644 49.2305 39.8215C49.1512 39.6238 49.0621 39.4858 49.2611 39.2674C50.9759 37.3828 51.0821 35.0369 49.5577 32.9473C49.4222 32.7606 49.4429 32.6885 49.6187 32.564C52.2466 30.6966 52.7433 27.3095 50.9003 24.4559C49.9324 22.957 48.5971 21.878 46.942 21.2128C46.3659 20.9809 45.9924 20.6221 45.7898 20.0216C45.4956 19.144 44.9635 18.4007 44.3105 17.7477C42.8336 16.2708 41.0088 15.464 39.0096 14.9806C38.3846 14.8293 37.7341 14.8317 37.1226 14.6206H34.3824C34.0577 14.789 33.6928 14.7609 33.3474 14.8281C32.4222 15.0075 31.5117 15.237 30.6402 15.608C30.2484 15.7752 29.8517 15.8045 29.4452 15.6385C28.2137 15.1381 26.9407 14.8085 25.6127 14.7024C25.581 14.6999 25.5541 14.6486 25.5248 14.6206H22.6943C22.1951 14.8439 21.6398 14.8073 21.1222 14.9526C20.5425 15.1149 20.2959 15.4017 20.4131 15.8582L20.4107 15.8607ZM11.6666 33.6015C11.7837 33.466 11.9033 33.3733 12.0974 33.4502C12.5234 33.6186 12.9713 33.7138 13.4205 33.7785C13.6304 33.809 13.6597 33.8908 13.6304 34.0751C13.3509 35.8412 13.4901 37.5879 13.9209 39.3833C12.4563 39.1685 11.4505 38.4484 10.9599 37.1204C10.4802 35.8229 10.7633 34.6414 11.6653 33.6015H11.6666ZM16.5757 48.8048C16.4255 48.9818 16.2583 49.0087 16.0533 48.9977C14.6301 48.922 13.5267 48.2421 12.7199 47.1156C11.2748 45.0955 11.0734 42.8998 11.9217 40.5831C12.0181 40.3207 12.123 40.278 12.3781 40.3939C12.9079 40.6344 13.473 40.754 14.0576 40.7479C14.2358 40.7467 14.3591 40.7674 14.436 40.9688C15.2928 43.2098 16.6501 45.1065 18.4126 46.7225C18.4663 46.7714 18.5066 46.8361 18.5554 46.8983C17.8475 47.5 17.1664 48.1079 16.5757 48.8048ZM24.0809 53.5943C22.2366 53.0316 21.4018 51.2008 21.7045 49.3529C21.7582 49.0209 21.9303 49.1661 22.0889 49.2454C23.3669 49.8899 24.7107 50.3501 26.1058 50.6637C27.0529 50.8773 28.0172 50.975 28.9888 51.0677C28.3028 52.9596 25.9569 54.1668 24.0809 53.5943ZM35.6933 53.6553C33.8857 54.0947 31.6362 52.8632 31.0015 51.0629C32.0035 50.9603 32.9983 50.8627 33.9772 50.6369C35.3296 50.3244 36.6331 49.8838 37.8671 49.2503C38.1723 49.0941 38.2711 49.1344 38.3126 49.4871C38.5567 51.5523 37.5229 53.211 35.6933 53.6566V53.6553ZM31.7057 49.6092C31.1308 49.6751 30.5535 49.7105 29.9689 49.708C25.0195 49.5689 20.8037 47.8369 17.6705 43.8872C15.4308 41.064 14.5141 37.8356 14.984 34.2362C15.0207 33.9579 15.1195 33.8627 15.3954 33.8359C18.232 33.5564 20.5071 32.2919 22.1561 29.9435C22.4417 29.537 22.8371 29.3588 23.3339 29.3857C25.443 29.498 27.4862 29.1916 29.4489 28.3958C29.8212 28.2445 30.1849 28.2481 30.556 28.3995C32.5186 29.1941 34.5618 29.5004 36.671 29.3869C37.1885 29.3588 37.5742 29.57 37.872 29.9899C39.5088 32.3028 41.7668 33.5454 44.5668 33.8285C44.8536 33.8578 44.972 33.9347 45.0135 34.2435C45.4688 37.6696 44.6437 40.7735 42.6017 43.5308C39.8945 47.1851 36.1852 49.1002 31.7069 49.6116L31.7057 49.6092ZM46.4428 48.0005C45.7336 48.6156 44.8988 48.9525 43.9528 49.0026C43.7258 49.0148 43.5537 48.9684 43.395 48.7816C42.8604 48.1555 42.2648 47.5879 41.6252 47.0716C41.4165 46.9032 41.4629 46.8153 41.6277 46.664C43.3706 45.0699 44.7035 43.189 45.5554 40.9786C45.614 40.8248 45.6848 40.7345 45.8777 40.7418C46.5111 40.7638 47.1178 40.6197 47.6902 40.3622C47.9172 40.2597 47.977 40.3476 48.049 40.5245C48.3896 41.3655 48.5775 42.2345 48.5666 43.1463C48.5202 45.0528 47.916 46.7201 46.4416 47.998L46.4428 48.0005ZM46.2023 39.3552C46.1755 39.3577 46.1474 39.3382 46.0974 39.3211C46.4574 37.7783 46.6076 36.2196 46.4489 34.6341C46.422 34.3693 46.2316 34.0421 46.4123 33.853C46.5575 33.7004 46.8932 33.7309 47.1434 33.676C47.2618 33.6503 47.379 33.6174 47.4949 33.5844C47.9717 33.4485 48.3517 33.5804 48.6349 33.9799C50.1252 36.0854 48.7618 39.0977 46.2011 39.354L46.2023 39.3552Z" fill="#333333"/>
<path d="M39.1268 59.9985C40.1155 60.018 41.1054 60.0217 42.094 59.9985C44.7048 59.9375 46.4563 57.3548 45.5421 54.9112C44.5119 52.1588 42.8373 49.863 40.5744 47.9919C40.4377 47.8783 40.2937 47.6989 40.1252 47.9174C39.9373 48.1603 39.4015 48.1054 39.554 48.6473C39.7933 49.4919 39.8323 50.3549 39.637 51.219C38.8546 54.6842 35.2406 56.2062 32.144 54.3803C31.2652 53.8615 30.5744 53.1536 30.0105 52.2882C29.7724 52.597 29.5735 52.8814 29.3477 53.1426C27.6999 55.0455 25.0684 55.6826 22.9971 54.6878C20.8453 53.6528 19.7895 51.219 20.4266 48.6632C20.5658 48.1054 20.0495 48.1762 19.8688 47.9333C19.704 47.7123 19.56 47.8844 19.4221 47.998C17.1457 49.8788 15.4785 52.1942 14.4361 54.9588C14.2066 55.5679 14.1261 56.2001 14.2542 56.8409C14.6424 58.7865 16.1351 59.9985 18.1405 59.9997C24.0761 60.0046 30.0117 60.0046 35.946 60.007C36.5392 60.007 36.6894 60.1193 36.8651 60.6771C37.3106 60.6771 37.7561 60.6771 38.2004 60.6771C38.3078 60.1779 38.6203 59.9912 39.1244 60.0009L39.1268 59.9985ZM29.9738 54.5023C30.3754 54.4913 30.7001 54.805 30.6989 55.2041C30.6989 55.5764 30.3839 55.9011 30.0141 55.9108C29.6357 55.9218 29.2818 55.5776 29.2818 55.198C29.2818 54.827 29.5942 54.5121 29.9726 54.5023H29.9738ZM29.9824 58.6571C29.6126 58.6486 29.2879 58.3251 29.2818 57.9577C29.2757 57.5684 29.6113 57.2449 30.0129 57.2535C30.3962 57.2608 30.7074 57.5696 30.7111 57.9443C30.7147 58.33 30.3705 58.6669 29.9812 58.6583L29.9824 58.6571Z" fill="#BDBDBD"/>
<path d="M47.6915 40.3633C47.119 40.6208 46.5112 40.7648 45.8789 40.7429C45.6861 40.7356 45.6153 40.8271 45.5567 40.9797C44.7047 43.1901 43.3731 45.071 41.6289 46.665C41.4642 46.8164 41.4166 46.903 41.6265 47.0727C42.2661 47.589 42.8617 48.1566 43.3963 48.7827C43.555 48.9682 43.7259 49.0158 43.9541 49.0036C44.9 48.9524 45.7337 48.6167 46.444 48.0016C47.9185 46.7236 48.5239 45.0563 48.569 43.1498C48.58 42.2368 48.3921 41.3678 48.0515 40.5281C47.9795 40.3499 47.9197 40.2632 47.6927 40.3657L47.6915 40.3633Z" fill="white"/>
<path d="M14.4348 40.9687C14.3579 40.7673 14.2359 40.7465 14.0565 40.7478C13.4718 40.7539 12.9067 40.6342 12.377 40.3938C12.1219 40.2778 12.0169 40.3218 11.9205 40.583C11.0722 42.8984 11.2736 45.0954 12.7187 47.1154C13.5255 48.242 14.6289 48.9219 16.0521 48.9975C16.2571 49.0085 16.4256 48.9804 16.5745 48.8047C17.1652 48.1077 17.8463 47.4999 18.5542 46.8982C18.5042 46.8359 18.4651 46.7724 18.4114 46.7224C16.6489 45.1064 15.2917 43.2096 14.4348 40.9687Z" fill="white"/>
<path d="M22.089 49.2453C21.9315 49.1659 21.7594 49.0219 21.7045 49.3527C21.4018 51.2006 22.2367 53.0314 24.0809 53.5941C25.9557 54.1666 28.3016 52.9594 28.9888 51.0675C28.0173 50.9748 27.053 50.8771 26.1059 50.6635C24.7108 50.3499 23.3681 49.8897 22.089 49.2453Z" fill="white"/>
<path d="M37.8683 49.249C36.6344 49.8825 35.3296 50.3231 33.9784 50.6356C32.9995 50.8614 32.0048 50.959 31.0027 51.0615C31.6374 52.8631 33.8869 54.0946 35.6945 53.654C37.5241 53.2085 38.558 51.5498 38.3138 49.4846C38.2723 49.1318 38.1735 49.0915 37.8683 49.2478V49.249Z" fill="white"/>
<path d="M47.4962 33.5843C47.379 33.6172 47.263 33.6502 47.1447 33.6758C46.8944 33.7307 46.5588 33.7002 46.4135 33.8528C46.2329 34.042 46.4245 34.3691 46.4502 34.634C46.6088 36.2195 46.4587 37.7781 46.0986 39.3209C46.1487 39.338 46.1767 39.3575 46.2036 39.3551C48.7643 39.0975 50.1277 36.0852 48.6374 33.981C48.3542 33.5806 47.9742 33.4488 47.4974 33.5855L47.4962 33.5843Z" fill="white"/>
<path d="M13.9222 39.3832C13.4926 37.5865 13.3534 35.8411 13.6317 34.0749C13.661 33.8918 13.6317 33.8089 13.4218 33.7783C12.9714 33.7136 12.5234 33.6184 12.0987 33.45C11.9034 33.3731 11.785 33.4671 11.6678 33.6014C10.7658 34.6413 10.4827 35.8228 10.9624 37.1202C11.453 38.4482 12.4588 39.1696 13.9234 39.3832H13.9222Z" fill="white"/>
<path d="M30.0129 57.2522C29.6114 57.2448 29.2757 57.5671 29.2818 57.9564C29.2867 58.3238 29.6114 58.6473 29.9824 58.6558C30.3706 58.6644 30.716 58.3275 30.7123 57.9418C30.7087 57.5671 30.3962 57.2583 30.0142 57.2509L30.0129 57.2522Z" fill="#333333"/>
<path d="M30.0153 55.9108C30.3851 55.8999 30.6988 55.5764 30.7 55.2041C30.7 54.805 30.3766 54.4913 29.975 54.5023C29.5966 54.5121 29.2842 54.827 29.2842 55.198C29.2842 55.5776 29.6369 55.9218 30.0165 55.9108H30.0153Z" fill="#333333"/>
<path d="M35.6287 36.8493C34.6156 36.8395 33.716 37.6854 33.6709 38.6899C33.6526 39.1049 33.8979 39.4271 34.2702 39.4735C34.6534 39.5211 34.961 39.2916 35.0257 38.8632C35.0794 38.5032 35.2344 38.2371 35.614 38.2359C35.9924 38.2359 36.1523 38.4971 36.2048 38.8596C36.2695 39.3002 36.5538 39.5211 36.9469 39.4833C37.3387 39.4454 37.5877 39.1134 37.5596 38.6716C37.4949 37.6732 36.632 36.8603 35.6287 36.8505V36.8493Z" fill="#333333"/>
<path d="M24.3763 36.8493C23.3608 36.8518 22.4649 37.7074 22.4331 38.7058C22.4197 39.1293 22.6614 39.4394 23.0373 39.4821C23.4279 39.526 23.7294 39.3002 23.7892 38.8694C23.8392 38.5069 23.993 38.2432 24.3702 38.2359C24.751 38.2298 24.9097 38.4934 24.967 38.8535C25.0354 39.2892 25.3295 39.5175 25.7128 39.4748C26.1022 39.432 26.3548 39.0903 26.3194 38.6558C26.2389 37.6488 25.3771 36.8481 24.3751 36.8493H24.3763Z" fill="#333333"/>
<path d="M30.8746 39.7616C30.113 40.3438 29.8762 40.345 29.1268 39.7677C28.796 39.5126 28.4518 39.5199 28.1833 39.7872C27.9111 40.0594 27.9099 40.4475 28.1979 40.7636C28.6837 41.2982 29.3025 41.5424 29.936 41.5655C30.6891 41.5594 31.4336 41.2189 31.8242 40.738C32.0769 40.4268 32.0744 40.0557 31.8181 39.7933C31.5532 39.5235 31.2029 39.5113 30.8746 39.7616Z" fill="#333333"/>
<path fill-rule="evenodd" clip-rule="evenodd" d="M27.2898 33.0045C27.2898 32.7348 27.5084 32.5163 27.778 32.5163H31.9621C32.2317 32.5163 32.4503 32.7348 32.4503 33.0045C32.4503 33.2741 32.2317 33.4927 31.9621 33.4927H27.778C27.5084 33.4927 27.2898 33.2741 27.2898 33.0045Z" fill="#333333"/>
<path fill-rule="evenodd" clip-rule="evenodd" d="M28.0281 30.8758C28.0281 30.6062 28.2467 30.3876 28.5163 30.3876H31.2247C31.4944 30.3876 31.713 30.6062 31.713 30.8758C31.713 31.1455 31.4944 31.364 31.2247 31.364H28.5163C28.2467 31.364 28.0281 31.1455 28.0281 30.8758Z" fill="#333333"/>
</g>
<defs>
<clipPath id="clip0_1130_5274">
<path d="M0 30C0 13.4315 13.4315 0 30 0C46.5685 0 60 13.4315 60 30C60 46.5685 46.5685 60 30 60C13.4315 60 0 46.5685 0 30Z" fill="white"/>
</clipPath>
</defs>
</svg>
