<svg width="104" height="64" viewBox="0 0 104 64" fill="none" xmlns="http://www.w3.org/2000/svg">
<g clip-path="url(#clip0_1130_5275)">
<mask id="path-1-outside-1_1130_5275" maskUnits="userSpaceOnUse" x="0" y="0" width="104" height="64" fill="black">
<rect fill="white" width="104" height="64"/>
<path d="M2 32C2 15.4315 15.4315 2 32 2H72C88.5685 2 102 15.4315 102 32C102 48.5685 88.5685 62 72 62H32C15.4315 62 2 48.5685 2 32Z"/>
</mask>
<path d="M2 32C2 15.4315 15.4315 2 32 2H72C88.5685 2 102 15.4315 102 32C102 48.5685 88.5685 62 72 62H32C15.4315 62 2 48.5685 2 32Z" fill="#FFF5E6"/>
<g clip-path="url(#clip1_1130_5275)">
<path d="M47.911 49.1948C48.3028 49.8091 48.2741 50.0425 47.7513 50.5654C46.9691 51.3476 46.1377 52.0752 45.2095 52.6758C44.8819 52.8874 44.9146 52.9994 45.1767 53.2423C47.3595 55.2695 48.8393 57.7117 49.4959 60.633C49.6829 61.4643 49.7539 62.3066 49.8099 63.1543C49.8413 63.6267 49.7375 64.013 49.343 64.2969H21.1496C20.7332 63.9993 20.6622 63.5884 20.6827 63.1011C20.852 59.1955 22.4546 55.9644 25.2531 53.2874C25.3746 53.17 25.4988 53.0553 25.6462 52.9147C24.0723 51.8718 22.7003 50.6418 21.5291 49.1935C20.2473 47.6072 19.2521 45.8585 18.5941 43.9255C18.4931 43.6307 18.3716 43.5215 18.0303 43.5105C15.8394 43.4396 14.1685 42.4499 13.2061 40.4746C12.256 38.5238 12.4676 36.6154 13.7521 34.8517C13.8982 34.6497 13.9214 34.464 13.8832 34.2374C13.5419 32.2075 14.0361 30.396 15.3425 28.8098C15.4762 28.6473 15.4994 28.5231 15.453 28.3129C14.7309 25.008 16.126 22.1031 19.1511 20.6137C19.3627 20.51 19.4528 20.383 19.5019 20.1687C20.2391 16.9402 22.7959 14.8926 26.1349 14.8639C26.3834 14.8626 26.5281 14.7861 26.6823 14.595C28.7395 12.0327 31.9817 11.2915 34.9275 12.7153C35.1746 12.8354 35.3548 12.8163 35.5869 12.7057C38.5273 11.3037 41.7503 12.0341 43.7911 14.58C43.9795 14.8161 44.1638 14.8639 44.4327 14.8639C47.6421 14.8639 50.2904 17.0003 50.9825 20.1469C51.0344 20.3844 51.1354 20.5182 51.3633 20.6274C54.3201 22.0594 55.7658 25.0448 55.0505 28.2405C54.9918 28.5013 55.0273 28.6651 55.1952 28.8726C56.4634 30.4384 56.9384 32.2239 56.6081 34.2156C56.5671 34.4627 56.5971 34.6592 56.7541 34.8763C58.0155 36.6277 58.2284 38.5184 57.292 40.4555C56.3446 42.4144 54.7037 43.4205 52.5319 43.5051C52.1278 43.5201 51.9981 43.6607 51.878 44.0129C51.4466 45.2865 50.8473 46.4865 50.1197 47.6195C49.7457 48.2024 49.515 48.2788 48.8434 48.0495C48.4843 47.6168 48.5553 47.2141 48.8434 46.7527C51.3633 42.6929 52.0008 38.3423 50.7559 33.7351C50.0842 31.2465 48.8325 29.0582 47.0783 27.1703C44.9119 24.8387 41.7558 24.193 38.6584 25.4243C36.4428 26.3048 34.2081 26.3663 31.9967 25.4789C29.3347 24.4101 26.8257 24.552 24.4518 26.2325C24.09 26.4891 23.7296 26.5096 23.3897 26.1874C23.0539 25.6496 23.1071 25.2933 23.6204 24.9356C24.0067 24.6653 24.4217 24.4374 24.8244 24.1903C27.3676 23.0081 29.9135 22.9658 32.5222 24.0333C34.3351 24.7746 36.2107 24.7746 38.0345 24.0046C41.8827 22.3815 45.9767 23.4927 48.5376 26.485C50.0133 28.2091 51.1627 30.1216 51.8971 32.2717C52.0159 32.6198 52.181 32.759 52.5537 32.7331C53.2991 32.6798 54.0157 32.8641 54.6737 33.1904C55.172 33.4375 55.1965 33.2341 55.1692 32.8259C55.0846 31.555 54.6287 30.4384 53.7277 29.5401C53.3305 29.1442 53.2445 28.7647 53.4356 28.261C53.6431 27.7163 53.7523 27.1348 53.7099 26.5615C53.5434 24.3295 52.48 22.7119 50.3477 21.8915C49.8454 21.6976 49.5969 21.3987 49.5355 20.8513C49.2311 18.1729 46.722 16.1389 44.0491 16.4201C43.4799 16.4802 43.1304 16.3369 42.8165 15.8645C41.2561 13.5138 38.2666 12.8518 35.8599 14.3193C35.4272 14.5827 35.0709 14.6005 34.6368 14.3247C33.987 13.9125 33.2867 13.6026 32.4867 13.6312C32.3666 13.4947 32.2028 13.537 32.0554 13.5384C30.1879 13.5603 28.7232 14.3438 27.6584 15.8741C27.4277 16.2045 27.2038 16.5471 26.7383 16.4611C26.2278 16.3669 25.7336 16.4065 25.2244 16.4802C23.0102 16.8051 21.196 18.6275 20.9544 20.8444C20.8943 21.3891 20.6568 21.699 20.1531 21.8915C17.4898 22.9126 16.2025 25.5786 17.0652 28.2856C17.2222 28.777 17.1635 29.1374 16.7813 29.5183C15.868 30.4261 15.4052 31.555 15.3233 32.8423C15.2988 33.2232 15.3192 33.4252 15.8011 33.1918C16.4591 32.8737 17.1703 32.6703 17.917 32.7372C18.3238 32.7727 18.4726 32.587 18.5928 32.2335C19.1524 30.5803 19.9906 29.0692 21.0049 27.6522C21.4158 27.0775 21.6519 27.0106 22.3058 27.2249C22.7167 27.8119 22.7044 27.9566 22.2294 28.6269C19.4282 32.572 18.5109 36.9239 19.5347 41.6458C20.9994 48.4072 26.9431 53.6259 33.7972 54.1624C38.7689 54.5515 43.0731 52.9994 46.6428 49.4938C47.0292 49.1143 47.4073 48.9505 47.911 49.1976V49.1948ZM42.7209 54.1638C41.9305 54.4559 41.2275 54.7549 40.4999 54.9665C40.1463 55.0688 40.0235 55.2381 39.9511 55.5698C39.4842 57.709 37.7629 59.1983 35.5063 59.4413C33.5119 59.6569 31.4943 58.4502 30.5797 56.5691C30.3231 56.0422 30.4773 55.3146 29.9586 54.976C29.474 54.6607 28.861 54.5406 28.3054 54.3344C28.2577 54.3167 28.2085 54.3017 28.1648 54.2757C27.8836 54.1064 27.7621 54.1324 27.7635 54.5119C27.7758 57.1493 27.7731 59.7853 27.7635 62.4226C27.7635 62.6806 27.8222 62.7707 28.0979 62.7707C32.8608 62.7626 37.625 62.7598 42.3878 62.7735C42.7864 62.7735 42.7182 62.551 42.7182 62.3216C42.7182 59.8549 42.7182 57.3882 42.7182 54.9214V54.1638H42.7209ZM26.2373 54.4723C25.0661 55.5958 24.1856 56.7711 23.5085 58.098C22.8218 59.444 22.4082 60.8705 22.269 62.3776C22.2444 62.6383 22.2717 62.7776 22.598 62.7721C23.7037 62.753 24.8094 62.7598 25.9152 62.7694C26.15 62.7707 26.2441 62.7093 26.2428 62.4568C26.2346 59.8412 26.2387 57.2243 26.2387 54.4737L26.2373 54.4723ZM44.2539 54.4682C44.2539 57.2243 44.2566 59.8426 44.2484 62.4595C44.2484 62.7175 44.3508 62.7707 44.5802 62.768C45.6859 62.7598 46.7916 62.7557 47.8974 62.7694C48.169 62.7721 48.2495 62.6929 48.225 62.4226C48.1676 61.7947 48.0639 61.1749 47.9083 60.5661C47.3063 58.2181 46.0736 56.2456 44.2525 54.4682H44.2539ZM14.1958 38.0829C14.1862 40.0323 15.6619 41.7386 17.5075 41.9352C17.8802 41.9748 18.0181 41.9489 17.9239 41.4998C17.4584 39.261 17.4734 37.0127 17.8938 34.7657C17.9935 34.2292 17.9648 34.2006 17.4106 34.2934C15.5636 34.6033 14.204 36.2059 14.1958 38.0829ZM52.9114 37.7184C52.925 39.2842 52.7953 40.4309 52.5523 41.5639C52.4786 41.9038 52.5674 41.983 52.8964 41.9434C53.8492 41.8287 54.656 41.4247 55.2866 40.7135C56.2968 39.5763 56.5739 38.2549 56.0702 36.8229C55.5651 35.3882 54.5017 34.5623 53.0124 34.2879C52.7284 34.2361 52.4363 34.1555 52.5592 34.6838C52.8213 35.8114 52.8991 36.9663 52.9114 37.7184ZM38.3335 55.5303C37.7246 55.5971 37.154 55.6818 36.582 55.7173C35.1555 55.806 33.7317 55.7746 32.3175 55.533C32.1741 55.5084 31.7551 55.2668 31.9448 55.8019C32.3789 57.0209 33.8409 57.9806 35.1978 57.9246C36.6721 57.8632 37.9826 56.8817 38.3335 55.5316V55.5303Z" fill="#333333"/>
<path d="M55.1708 32.8232C55.0861 31.5522 54.6302 30.4356 53.7292 29.5374C53.332 29.1415 53.246 28.762 53.4371 28.2583C53.6446 27.7136 53.7538 27.1321 53.7115 26.5587C53.5449 24.3268 52.4815 22.7091 50.3492 21.8887C49.8469 21.6949 49.5984 21.3959 49.537 20.8485C49.2326 18.1702 46.7235 16.1362 44.0507 16.4174C43.4814 16.4774 43.132 16.3341 42.818 15.8618C41.2577 13.5111 38.2681 12.849 35.8614 14.3165C35.4287 14.58 35.0724 14.5977 34.6383 14.322C33.9885 13.9097 33.2882 13.5998 32.4883 13.6285C32.3681 13.492 32.2043 13.5343 32.0569 13.5357C30.1894 13.5575 28.7233 14.3411 27.6599 15.8713C27.4292 16.2017 27.2053 16.5443 26.7398 16.4583C26.2293 16.3641 25.7351 16.4024 25.2259 16.4774C23.0117 16.8023 21.1975 18.6248 20.9559 20.8417C20.8958 21.3863 20.6583 21.6962 20.1546 21.8887C17.4913 22.9098 16.204 25.5758 17.0667 28.2828C17.2237 28.7743 17.165 29.1347 16.7828 29.5155C15.8695 30.4233 15.4068 31.5522 15.3249 32.8395C15.3003 33.2204 15.3208 33.4224 15.8027 33.189C16.4606 32.8709 17.1718 32.6675 17.9186 32.7344C18.3254 32.7699 18.4742 32.5843 18.5943 32.2307C19.154 30.5776 19.9921 29.0664 21.0064 27.6494C21.4173 27.0747 21.6535 27.0078 22.3074 27.2221C22.6923 26.9 22.8998 26.3922 23.3912 26.1833C23.0554 25.6455 23.1087 25.2892 23.6219 24.9315C24.0083 24.6612 24.4246 24.4333 24.826 24.1848C27.3691 23.0026 29.9151 22.9617 32.5238 24.0292C34.3366 24.7704 36.2123 24.7704 38.036 24.0005C41.8843 22.3774 45.9782 23.4886 48.5391 26.4809C50.0148 28.205 51.1642 30.1175 51.8986 32.2676C52.0174 32.6157 52.1826 32.7549 52.5552 32.729C53.3006 32.6757 54.0173 32.86 54.6752 33.1863C55.1735 33.4334 55.1981 33.23 55.1708 32.8218V32.8232Z" fill="white"/>
<path d="M42.7207 54.1638V54.9215C42.7207 57.3882 42.7207 59.855 42.7207 62.3217C42.7207 62.551 42.7889 62.7749 42.3903 62.7735C37.6275 62.7599 32.8633 62.7626 28.1005 62.7708C27.8233 62.7708 27.7646 62.6807 27.766 62.4227C27.7742 59.7853 27.7769 57.1493 27.766 54.512C27.7646 54.1325 27.8848 54.1052 28.1674 54.2758C28.211 54.3017 28.2602 54.3181 28.308 54.3345C28.8636 54.5406 29.4765 54.6607 29.9611 54.9761C30.4798 55.3146 30.3256 56.0422 30.5822 56.5692C31.4968 58.4503 33.5144 59.6556 35.5089 59.4413C37.7654 59.1983 39.4868 57.7077 39.9536 55.5699C40.026 55.2382 40.1488 55.0689 40.5024 54.9665C41.23 54.7549 41.933 54.456 42.7234 54.1638H42.7207Z" fill="#FF8120"/>
<path d="M26.2372 54.4724C26.2372 57.2231 26.2344 59.8386 26.2412 62.4555C26.2412 62.708 26.1484 62.7708 25.9136 62.7681C24.8079 62.7585 23.7022 62.7517 22.5964 62.7708C22.2702 62.7763 22.2429 62.637 22.2674 62.3763C22.408 60.8706 22.8217 59.4427 23.507 58.0967C24.184 56.7698 25.0645 55.5959 26.2358 54.471L26.2372 54.4724Z" fill="white"/>
<path d="M44.254 54.4682C46.075 56.247 47.3063 58.2195 47.9097 60.5661C48.0667 61.175 48.1705 61.7947 48.2264 62.4227C48.251 62.693 48.1705 62.7721 47.8988 62.7694C46.7931 62.7558 45.6873 62.7585 44.5816 62.768C44.3509 62.7694 44.2485 62.7175 44.2499 62.4595C44.2581 59.8426 44.2554 57.2257 44.2554 54.4682H44.254Z" fill="white"/>
<path d="M14.1955 38.083C14.2037 36.2073 15.5647 34.6033 17.4103 34.2935C17.9659 34.2006 17.9946 34.2307 17.8935 34.7658C17.4731 37.0127 17.4581 39.2597 17.9236 41.4998C18.0164 41.9489 17.8785 41.9749 17.5072 41.9353C15.6616 41.7387 14.1859 40.0323 14.1955 38.083Z" fill="white"/>
<path d="M52.9111 37.7185C52.8989 36.9663 52.821 35.8115 52.5589 34.6839C52.4361 34.1556 52.7282 34.2361 53.0122 34.288C54.5015 34.561 55.5649 35.3883 56.07 36.823C56.5737 38.2536 56.2966 39.575 55.2864 40.7135C54.6544 41.4247 53.8476 41.8288 52.8961 41.9435C52.5685 41.9831 52.4798 41.9025 52.5521 41.564C52.7951 40.4323 52.9248 39.2856 52.9111 37.7185Z" fill="white"/>
<path d="M38.3332 55.5303C37.9824 56.8804 36.6719 57.8619 35.1976 57.9233C33.8407 57.9807 32.3787 57.021 31.9446 55.8006C31.7548 55.2669 32.1739 55.5071 32.3172 55.5317C33.7315 55.7733 35.1553 55.8047 36.5818 55.716C37.1538 55.6805 37.7244 55.5958 38.3332 55.529V55.5303Z" fill="white"/>
<path d="M48.8435 46.7513C51.3635 42.6915 51.9996 38.3409 50.756 33.7337C50.0844 31.2451 48.8326 29.0568 47.0785 27.1689C44.912 24.8373 41.7559 24.1916 38.6585 25.423C36.443 26.3034 34.2083 26.3649 31.9968 25.4776C29.3349 24.4087 26.8258 24.5507 24.4519 26.2311C24.0902 26.4877 23.7298 26.5082 23.3899 26.186C22.8971 26.3949 22.6896 26.9027 22.306 27.2249C22.7182 27.8119 22.7046 27.9566 22.2295 28.6268C19.4284 32.572 18.511 36.9239 19.5348 41.6458C20.9996 48.4071 26.9432 53.6259 33.7974 54.1624C38.7691 54.5515 43.0733 52.9993 46.643 49.4938C47.0293 49.1143 47.4074 48.9504 47.9112 49.1975C48.3152 48.8904 48.5964 48.4836 48.8449 48.0508C48.4859 47.6181 48.5569 47.2154 48.8449 46.754L48.8435 46.7513ZM26.8122 36.2919C26.8395 35.7213 27.1043 35.4005 27.5657 35.3895C28.0462 35.3786 28.3384 35.709 28.3547 36.3042C28.3657 36.6768 28.3493 37.0495 28.3588 37.4222C28.3684 37.7839 28.2606 38.0856 27.9643 38.3081C27.2572 38.4556 27.0279 38.33 26.7644 37.6556C26.8654 37.2038 26.789 36.7451 26.8122 36.2905V36.2919ZM37.7671 38.1552C37.0818 38.891 36.2232 39.2432 35.2198 39.2705C34.2452 39.2296 33.4029 38.8801 32.7299 38.1593C32.3982 37.8044 32.3804 37.373 32.6685 37.0618C32.9756 36.7301 33.4165 36.7328 33.8015 37.0673C34.8199 37.9573 35.6785 37.9587 36.6846 37.0741C37.0709 36.7342 37.5064 36.7273 37.8163 37.0563C38.1084 37.3662 38.0988 37.7989 37.7685 38.1539L37.7671 38.1552Z" fill="white"/>
<path d="M35.2197 39.2705C34.245 39.2296 33.4028 38.8801 32.7298 38.1594C32.3981 37.8044 32.3803 37.3731 32.6683 37.0618C32.9755 36.7301 33.4164 36.7328 33.8014 37.0673C34.8197 37.9573 35.6784 37.9587 36.6845 37.0741C37.0708 36.7342 37.5063 36.7274 37.8161 37.0563C38.1083 37.3662 38.0987 37.799 37.7684 38.1539C37.0831 38.8897 36.2244 39.2419 35.2211 39.2692L35.2197 39.2705Z" fill="#333333"/>
<path d="M27.9653 38.3096C27.2582 38.457 27.0288 38.3314 26.7654 37.657C26.8664 37.2052 26.79 36.7479 26.8132 36.2919C26.8405 35.7213 27.1053 35.4005 27.5667 35.3896C28.0472 35.3787 28.3393 35.709 28.3557 36.3042C28.3666 36.6769 28.3503 37.0496 28.3598 37.4222C28.3694 37.784 28.2615 38.0857 27.9653 38.3082V38.3096Z" fill="#333333"/>
<path d="M43.6899 37.6284C43.4947 38.3191 43.2571 38.4584 42.5268 38.3109C42.2347 38.0857 42.1214 37.7867 42.1323 37.4222C42.1446 36.9977 42.12 36.5718 42.146 36.1486C42.1733 35.7009 42.4176 35.421 42.8831 35.3923C43.3158 35.3664 43.638 35.6654 43.668 36.15C43.6981 36.6414 43.6844 37.1342 43.6913 37.627L43.6899 37.6284Z" fill="#333333"/>
<path d="M54.7313 65C53.6488 64.5072 53.2584 63.5503 52.9976 62.4828C52.741 61.4289 52.3984 60.3956 52.2345 59.3185C52.1526 58.7766 52.1226 58.236 52.2659 57.6995C52.3205 57.4961 52.2864 57.3022 52.2386 57.0988C52.0503 56.2989 52.2154 55.5672 52.7915 54.9788C53.0263 54.7399 53.0208 54.5406 52.9417 54.2608C52.0994 51.274 51.2735 48.283 50.4272 45.2976C50.2483 44.6641 50.1705 44.0294 50.2511 43.3837C50.2838 43.1175 50.2197 42.9564 50.0258 42.7708C47.2915 40.1361 47.9085 35.8265 51.2776 34.0601C51.5493 33.9181 51.5861 33.7666 51.552 33.5072C51.0483 29.6685 51.7144 26.036 53.4986 22.6055C54.3191 21.0274 55.3593 19.6064 56.5947 18.3273C57.112 17.7922 57.4001 17.7744 57.9843 18.2508C58.1877 18.704 58.0362 19.0535 57.7045 19.3921C56.3844 20.7408 55.3251 22.2765 54.5265 23.987C53.2488 26.724 52.7355 29.6016 52.9894 32.6158C53.04 33.2205 53.0318 33.2328 53.6119 33.0431C55.6964 32.3591 57.7359 31.5551 59.7412 30.6678C62.1042 29.6221 64.4399 28.5164 66.695 27.2496C68.2349 26.4878 69.7037 25.5964 71.1944 24.7432C73.354 23.5065 75.6801 23.9965 77.1353 26.0278C77.8001 26.9561 78.4895 27.8625 79.2772 28.6884C81.2074 30.7128 83.4189 32.3086 86.1177 33.1659C86.519 33.2929 86.6719 33.2219 86.6992 32.7932C86.7798 31.5346 86.7989 30.2815 86.6228 29.0283C85.9307 24.0798 83.5499 20.151 79.4819 17.2625C76.8487 15.3937 73.8796 14.4422 70.6702 14.2593C69.2259 14.1774 67.783 14.2593 66.3715 14.636C66.2541 14.6483 66.1326 14.647 66.018 14.6743C64.1027 15.1329 62.2994 15.8619 60.664 16.9649C60.2149 17.268 59.7972 17.3881 59.2948 17.197C58.9754 16.3206 59.0191 16.1936 59.8177 15.6708C69.9413 9.03914 83.8571 14.0395 87.4336 25.5855C88.2295 28.1574 88.5025 30.7688 88.1449 33.4403C88.1012 33.7652 88.1708 33.9331 88.4916 34.101C91.7405 35.7965 92.3739 40.1361 89.7529 42.6957C89.5154 42.9277 89.3953 43.1257 89.4458 43.4779C89.5318 44.0703 89.4472 44.6573 89.282 45.2402C88.4329 48.2434 87.6029 51.2521 86.7525 54.2553C86.6651 54.5666 86.6978 54.7673 86.9285 55.013C87.476 55.5972 87.6329 56.3112 87.4596 57.0961C87.4336 57.2121 87.3681 57.3391 87.3941 57.4415C87.7776 58.9417 87.222 60.3287 86.8903 61.7429C86.8016 62.1224 86.6651 62.491 86.5791 62.8705C86.3429 63.9025 85.8378 64.697 84.758 65.0028H80.3652C80.0826 64.8076 79.8423 64.5823 79.8287 64.2069C80.0444 63.5407 80.1713 63.4807 81.1747 63.4657C81.6074 63.4602 82.1903 63.6568 82.4224 63.3674C82.578 63.1735 82.2435 62.5947 82.1439 62.1838C81.7657 60.6249 81.1201 59.1014 81.52 57.4387C81.5419 57.3487 81.4982 57.2381 81.4709 57.1398C81.2798 56.4559 81.404 55.8238 81.7971 55.2464C81.9145 55.0744 81.9569 54.9256 81.8845 54.729C81.5555 53.8363 81.2279 52.9435 80.9139 52.0466C80.8361 51.8241 80.7665 51.7804 80.5672 51.9347C80.0962 52.2991 79.6171 52.6527 79.1284 52.9913C78.9536 53.1127 78.9509 53.2301 78.985 53.4199C79.2212 54.7495 78.9018 55.9494 78.0909 57.0197C77.2118 58.18 76.0323 58.939 74.7041 59.4741C72.5773 60.3314 70.359 60.5717 68.0956 60.2809C66.1845 60.0365 64.3771 59.4632 62.8318 58.2523C61.2374 57.0033 60.3296 55.4443 60.7186 53.3407C60.7555 53.1414 60.6558 53.0677 60.5262 52.9749C60.0702 52.6473 59.6088 52.3278 59.1706 51.9783C58.9467 51.8009 58.8566 51.7995 58.757 52.0889C58.4608 52.9571 58.1454 53.8185 57.8246 54.6772C57.7373 54.9119 57.7878 55.0853 57.9229 55.2887C58.2888 55.8375 58.4089 56.4436 58.2314 57.0893C58.1659 57.3268 58.1659 57.5575 58.226 57.7923C58.342 58.2455 58.3202 58.7028 58.256 59.1601C58.0731 60.4611 57.7004 61.7156 57.3086 62.9619C57.1694 63.4042 57.2622 63.4766 57.7059 63.4752C64.2065 63.4616 70.7057 63.4739 77.2063 63.4588C77.7824 63.4588 78.1537 63.639 78.3257 64.1905C78.237 64.5482 78.0745 64.8512 77.7114 65.0014H54.7286L54.7313 65ZM85.2467 38.8939C85.2304 37.4414 85.0392 36.0135 84.6488 34.6129C84.5765 34.3522 84.4564 34.1761 84.1833 34.0737C83.5636 33.8403 82.9807 33.5195 82.4114 33.1837C79.77 31.6233 77.6732 29.4924 75.9409 26.9847C75.5313 26.3923 75.0235 25.9418 74.3219 25.7302C73.4072 25.4545 72.5964 25.6865 71.7964 26.1602C66.5995 29.2344 61.2278 31.9482 55.5435 34.0123C55.2569 34.116 55.1477 34.2826 55.0753 34.5406C54.487 36.6292 54.2986 38.7451 54.6071 40.9019C55.8316 49.4393 63.5717 55.2901 72.0517 54.082C79.5679 53.0117 85.2426 46.4797 85.2467 38.8925V38.8939ZM77.5107 53.9414C75.0658 55.1781 72.5227 55.7802 69.8539 55.7815C67.1756 55.7829 64.6228 55.1781 62.2039 53.9523C62.111 54.7167 62.3117 55.3324 62.6885 55.9016C63.24 56.7371 64.0235 57.3009 64.904 57.7268C67.0295 58.7547 69.2792 59.0523 71.6039 58.7329C73.3117 58.4981 74.9034 57.9343 76.2234 56.7726C77.0452 56.0504 77.6036 55.1877 77.5094 53.94L77.5107 53.9414ZM55.4343 54.2526C55.5367 54.2526 55.6418 54.2349 55.7401 54.2553C56.2165 54.3523 56.4268 54.1407 56.566 53.6902C56.8472 52.7824 57.1844 51.891 57.5202 51.0009C57.6226 50.7293 57.6089 50.5382 57.4028 50.3143C55.8534 48.627 54.689 46.705 53.9232 44.5454C53.8508 44.3393 53.7457 44.2519 53.5218 44.2382C53.0481 44.2082 52.5745 44.144 52.1226 43.9884C51.7854 43.8724 51.7295 44.0458 51.7772 44.316C51.8127 44.5167 51.8646 44.7147 51.9192 44.9099C52.7082 47.7397 53.4986 50.5682 54.2931 53.3967C54.5334 54.254 54.5402 54.2526 55.433 54.2526H55.4343ZM84.2379 54.2485C84.3226 54.2485 84.4099 54.2349 84.4918 54.2512C85.0038 54.3468 85.2249 54.1379 85.3601 53.6247C85.9525 51.3777 86.5955 49.1444 87.2193 46.9056C87.4418 46.1043 87.6712 45.3057 87.8787 44.5003C88.0206 43.9502 87.9688 43.9161 87.4323 44.0348C87.0364 44.1236 86.6323 44.1973 86.2283 44.2273C85.9662 44.2464 85.8488 44.3393 85.76 44.5863C84.9928 46.7227 83.8407 48.6311 82.3022 50.302C82.1043 50.5177 82.0606 50.7034 82.1684 50.9832C82.4797 51.79 82.7582 52.6104 83.0489 53.4254C83.2446 53.9741 83.6405 54.2485 84.2366 54.2485H84.2379ZM49.8443 38.8761C49.8579 40.6412 51.1165 42.2111 52.8325 42.6015C53.328 42.7148 53.373 42.6725 53.272 42.1892C52.8065 39.9627 52.8052 37.7376 53.2693 35.5112C53.3703 35.0252 53.328 34.9856 52.8297 35.0989C51.0961 35.4934 49.8306 37.0947 49.8443 38.8761ZM89.8512 38.8475C89.8485 37.0797 88.5994 35.5071 86.878 35.1057C86.3743 34.9883 86.3334 35.0265 86.4344 35.5112C86.8972 37.7404 86.9053 39.9709 86.4235 42.196C86.3334 42.6097 86.4371 42.697 86.8357 42.611C88.5612 42.2343 89.8553 40.6316 89.8526 38.8488L89.8512 38.8475ZM83.2223 58.8011C82.952 58.7643 82.9384 58.7656 82.9875 59.0564C83.2155 60.3956 83.6032 61.6951 84.0004 62.9906C84.0659 63.2063 84.1874 63.4206 84.4386 63.4343C84.7185 63.4479 84.8618 63.2281 84.9328 62.9933C85.3232 61.6951 85.6986 60.3928 85.9539 59.0591C85.9962 58.838 85.958 58.7411 85.7054 58.7834C84.8795 58.9212 84.0509 58.8625 83.2237 58.8011H83.2223ZM53.9887 58.7998C53.7143 58.7643 53.7048 58.7752 53.7648 59.1165C53.9914 60.4201 54.3955 61.6788 54.7491 62.9497C54.8146 63.1858 54.9443 63.4138 55.2146 63.4302C55.4999 63.4479 55.6282 63.2118 55.6964 62.9811C56.0841 61.6842 56.48 60.3901 56.7148 59.0523C56.7571 58.8093 56.7052 58.7452 56.4664 58.7847C55.6405 58.9212 54.8146 58.8639 53.9887 58.7984V58.7998ZM55.2159 57.2913C55.2159 57.2913 55.2159 57.2831 55.2159 57.279C55.5203 57.279 55.8329 57.3186 56.1292 57.2695C56.5537 57.1999 56.7899 56.9023 56.7476 56.4723C56.7093 56.0764 56.4636 55.817 56.0432 55.8047C55.5176 55.7897 54.9907 55.7911 54.4638 55.8006C54.0256 55.8088 53.7703 56.0532 53.7211 56.4832C53.6747 56.8954 53.9532 57.2299 54.401 57.2845C54.6685 57.3173 54.9429 57.29 55.2146 57.29L55.2159 57.2913ZM84.425 57.2968V57.2913C84.713 57.2913 85.0051 57.3173 85.2904 57.2859C85.7368 57.2353 86.0194 56.9009 85.9771 56.49C85.932 56.0586 85.6795 55.8129 85.2399 55.8006C84.7307 55.787 84.2202 55.7842 83.711 55.8006C83.2605 55.8143 82.9534 56.1146 82.9397 56.5159C82.9261 56.9132 83.2209 57.2463 83.6619 57.2927C83.9144 57.3186 84.1711 57.2981 84.425 57.2981V57.2968Z" fill="#333333"/>
<path d="M85.2468 38.8939C85.2427 46.4811 79.568 53.0117 72.0518 54.0833C63.5718 55.2914 55.8316 49.4406 54.6072 40.9033C54.2986 38.7464 54.487 36.6305 55.0754 34.5419C55.1477 34.2839 55.2569 34.1174 55.5436 34.0136C61.2279 31.9496 66.6009 29.2358 71.7965 26.1616C72.5964 25.6879 73.4073 25.4558 74.3219 25.7316C75.0236 25.9432 75.5314 26.3937 75.9409 26.9861C77.6732 29.4938 79.77 31.6247 82.4115 33.185C82.9821 33.5222 83.5637 33.8416 84.1834 34.0751C84.4564 34.1775 84.5765 34.3535 84.6489 34.6143C85.0407 36.0149 85.2304 37.4428 85.2468 38.8952V38.8939ZM63.5677 34.9351C62.4264 34.9351 61.4695 35.8183 61.3917 36.9472C61.3589 37.4305 61.6074 37.784 62.0265 37.8496C62.4933 37.9219 62.8278 37.6762 62.9083 37.1602C62.9711 36.7589 63.1308 36.4708 63.5759 36.4763C64.025 36.4817 64.1615 36.7903 64.2256 37.182C64.3035 37.6612 64.6406 37.9014 65.087 37.8414C65.5034 37.7854 65.7696 37.4209 65.7382 36.9513C65.6631 35.8224 64.7075 34.9351 63.5677 34.9337V34.9351ZM78.3121 37.0537C78.3353 35.9302 77.3156 34.9364 76.1375 34.9337C74.9594 34.9324 73.9342 35.9261 73.9574 37.0483C73.967 37.4878 74.2523 37.8127 74.6591 37.8455C75.0864 37.8796 75.4004 37.6448 75.4741 37.1861C75.5369 36.7943 75.6693 36.4817 76.1198 36.4749C76.5975 36.4681 76.7368 36.7875 76.7982 37.2039C76.8651 37.6612 77.1845 37.8919 77.6186 37.8537C78.0295 37.8168 78.3039 37.5001 78.3135 37.0524L78.3121 37.0537ZM69.8567 40.1866C70.6443 40.1716 71.331 39.8849 71.8716 39.2884C72.1896 38.9376 72.1774 38.4939 71.8716 38.1949C71.5794 37.9096 71.174 37.9083 70.8136 38.1908C70.0055 38.8243 69.686 38.8256 68.897 38.2004C68.5148 37.8973 68.0971 37.9055 67.8022 38.2209C67.5101 38.5348 67.5196 38.9608 67.8527 39.3143C68.3892 39.8863 69.0581 40.1702 69.858 40.1866H69.8567Z" fill="white"/>
<path d="M86.6239 29.0241C85.9318 24.0756 83.551 20.1469 79.483 17.2583C76.8498 15.3895 73.8807 14.438 70.6713 14.2551C69.227 14.1732 67.7841 14.2551 66.3726 14.6319C66.2552 14.6442 66.1337 14.6428 66.0191 14.6701C64.1038 15.1288 62.3005 15.8577 60.6651 16.9607C60.216 17.2638 59.7983 17.3839 59.2959 17.1928C58.7717 17.4372 58.4059 17.8767 57.9841 18.2494C58.1875 18.7026 58.036 19.0521 57.7042 19.3906C56.3842 20.7393 55.3249 22.2751 54.5263 23.9856C53.2486 26.7226 52.7353 29.6002 52.9892 32.6143C53.0397 33.2191 53.0315 33.2314 53.6117 33.0416C55.6962 32.3577 57.7356 31.5537 59.741 30.6664C62.104 29.6207 64.4396 28.515 66.6948 27.2481C68.2346 26.4864 69.7035 25.595 71.1942 24.7418C73.3537 23.505 75.6799 23.9951 77.1351 26.0264C77.7999 26.9546 78.4893 27.8611 79.2769 28.687C81.2072 30.7114 83.4186 32.3072 86.1174 33.1645C86.5188 33.2914 86.6717 33.2205 86.699 32.7918C86.7795 31.5332 86.7986 30.28 86.6225 29.0269L86.6239 29.0241Z" fill="white"/>
<path d="M79.8325 64.2028C79.3315 64.1987 78.8292 64.1932 78.3282 64.1891C78.1562 63.6376 77.7849 63.4561 77.2088 63.4574C70.7082 63.4711 64.209 63.4601 57.7084 63.4738C57.2647 63.4738 57.1719 63.4028 57.3111 62.9605C57.7029 61.7142 58.0756 60.4597 58.2585 59.1587C58.3227 58.7014 58.3445 58.2441 58.2285 57.7909C58.1684 57.5561 58.1684 57.3254 58.2339 57.0879C58.4114 56.4422 58.2913 55.8361 57.9254 55.2873C57.7903 55.0853 57.7398 54.9105 57.8271 54.6757C58.1479 53.8171 58.4633 52.9557 58.7595 52.0875C58.8578 51.7981 58.9492 51.7981 59.1731 51.9769C59.6113 52.3264 60.0727 52.6458 60.5287 52.9734C60.6583 53.0663 60.7566 53.14 60.7211 53.3393C60.3321 55.4443 61.2399 57.0019 62.8343 58.2509C64.3796 59.4604 66.187 60.0337 68.0981 60.2795C70.3615 60.5689 72.5798 60.33 74.7066 59.4727C76.0348 58.9376 77.2143 58.1786 78.0934 57.0182C78.9056 55.948 79.2237 54.7481 78.9875 53.4185C78.9534 53.2287 78.9561 53.1113 79.1309 52.9898C79.6196 52.6513 80.0987 52.2977 80.5697 51.9332C80.769 51.779 80.8386 51.8227 80.9164 52.0452C81.2304 52.9434 81.558 53.8362 81.887 54.7276C81.9594 54.9242 81.9157 55.073 81.7996 55.245C81.4065 55.8224 81.2809 56.4545 81.4734 57.1384C81.5007 57.2353 81.5444 57.3459 81.5225 57.4373C81.1226 59.1 81.7669 60.6248 82.1464 62.1824C82.246 62.5933 82.5818 63.1721 82.4249 63.366C82.1928 63.6554 81.6099 63.4574 81.1772 63.4642C80.1738 63.4779 80.0469 63.538 79.8312 64.2055L79.8325 64.2028Z" fill="#FF8120"/>
<path d="M77.5104 53.9413C77.6046 55.189 77.0449 56.0504 76.2245 56.7739C74.9044 57.9356 73.3127 58.4994 71.605 58.7342C69.2802 59.0536 67.0305 58.7547 64.9051 57.7281C64.0246 57.3022 63.241 56.7384 62.6895 55.903C62.3141 55.3337 62.1121 54.7167 62.2049 53.9536C64.6239 55.1795 67.1766 55.7842 69.8549 55.7828C72.5237 55.7815 75.0669 55.1795 77.5118 53.9427L77.5104 53.9413Z" fill="white"/>
<path d="M55.4341 54.2526C54.5413 54.2526 54.5345 54.2539 54.2942 53.3966C53.4997 50.5682 52.7107 47.7397 51.9203 44.9098C51.8657 44.7132 51.8138 44.5153 51.7784 44.316C51.7306 44.0457 51.7865 43.8723 52.1237 43.9884C52.5769 44.144 53.0493 44.2082 53.5229 44.2382C53.7455 44.2518 53.8506 44.3392 53.9243 44.5453C54.6901 46.7049 55.8545 48.6284 57.4039 50.3142C57.6087 50.5381 57.6223 50.7292 57.5213 51.0009C57.1855 51.8909 56.8497 52.7823 56.5671 53.6901C56.4265 54.1406 56.2177 54.3536 55.7412 54.2553C55.6429 54.2348 55.5378 54.2526 55.4355 54.2526H55.4341Z" fill="white"/>
<path d="M84.2377 54.2484C83.6416 54.2484 83.2457 53.9741 83.0501 53.4253C82.7593 52.6103 82.4808 51.7899 82.1696 50.9831C82.0617 50.7033 82.1041 50.5176 82.3034 50.3019C83.8418 48.6311 84.994 46.7226 85.7612 44.5863C85.8499 44.3392 85.9673 44.2477 86.2294 44.2272C86.6335 44.1972 87.0362 44.1235 87.4334 44.0348C87.9699 43.9146 88.0231 43.9488 87.8798 44.5003C87.6723 45.3043 87.443 46.1043 87.2205 46.9056C86.5966 49.1443 85.9536 51.379 85.3612 53.6246C85.2261 54.1379 85.0049 54.3454 84.493 54.2512C84.4111 54.2362 84.3237 54.2484 84.2391 54.2484H84.2377Z" fill="white"/>
<path d="M49.8443 38.8761C49.8307 37.0933 51.0961 35.492 52.8298 35.0989C53.3281 34.9856 53.3704 35.0251 53.2694 35.5111C52.8052 37.7376 52.8066 39.9627 53.2721 42.1892C53.3731 42.6724 53.3281 42.7148 52.8325 42.6014C51.1166 42.211 49.858 40.6412 49.8443 38.8761Z" fill="white"/>
<path d="M89.851 38.8474C89.8537 40.6302 88.561 42.2328 86.8341 42.6096C86.4355 42.697 86.3318 42.6096 86.4219 42.1946C86.9038 39.9695 86.8956 37.7389 86.4328 35.5097C86.3318 35.0251 86.3741 34.9869 86.8765 35.1043C88.5978 35.5056 89.8469 37.0782 89.8496 38.846L89.851 38.8474Z" fill="white"/>
<path d="M83.2221 58.8011C84.0493 58.8625 84.8779 58.9212 85.7038 58.7833C85.9563 58.741 85.9959 58.8379 85.9523 59.0591C85.6956 60.3928 85.3216 61.6951 84.9312 62.9933C84.8602 63.2281 84.7182 63.4479 84.437 63.4342C84.1858 63.4219 84.0657 63.2076 83.9988 62.9906C83.6016 61.6951 83.2139 60.3955 82.9859 59.0563C82.9367 58.7669 82.9504 58.7642 83.2207 58.8011H83.2221Z" fill="white"/>
<path d="M53.9888 58.7997C54.8147 58.8652 55.642 58.9226 56.4665 58.7861C56.7054 58.7465 56.7573 58.8106 56.7149 59.0536C56.4815 60.3914 56.0843 61.6855 55.6966 62.9824C55.627 63.2131 55.4986 63.4492 55.2147 63.4315C54.9444 63.4138 54.8147 63.1871 54.7492 62.951C54.3956 61.6801 53.9916 60.4215 53.765 59.1178C53.7063 58.7765 53.7158 58.7656 53.9888 58.8011V58.7997Z" fill="white"/>
<path d="M55.2157 57.2913C54.9441 57.2913 54.6697 57.3172 54.4021 57.2858C53.9557 57.2312 53.6759 56.8968 53.7223 56.4845C53.7701 56.0531 54.0267 55.8101 54.4649 55.8019C54.9918 55.791 55.5188 55.7897 56.0443 55.806C56.4648 55.8183 56.7105 56.0777 56.7487 56.4736C56.7897 56.9036 56.5535 57.2012 56.1303 57.2708C55.8327 57.3199 55.5215 57.2804 55.2171 57.2804C55.2171 57.2844 55.2171 57.2885 55.2171 57.2926L55.2157 57.2913Z" fill="#FF8120"/>
<path d="M84.4251 57.2968C84.1699 57.2968 83.9132 57.3186 83.662 57.2913C83.2211 57.2449 82.9263 56.9118 82.9399 56.5146C82.9536 56.1146 83.2607 55.8129 83.7112 55.7993C84.2204 55.7842 84.7309 55.787 85.2401 55.7993C85.6783 55.8102 85.9322 56.0573 85.9773 56.4886C86.0196 56.8995 85.737 57.234 85.2906 57.2845C85.0053 57.3173 84.7145 57.29 84.4251 57.29V57.2954V57.2968Z" fill="#FF8120"/>
<path d="M63.5673 34.935C64.7071 34.935 65.6627 35.8237 65.7378 36.9526C65.7692 37.4222 65.503 37.7854 65.0866 37.8427C64.6402 37.9028 64.3044 37.6625 64.2253 37.1833C64.1611 36.7902 64.0246 36.4831 63.5755 36.4776C63.1304 36.4721 62.9694 36.7615 62.9079 37.1615C62.8274 37.6762 62.4929 37.9232 62.0261 37.8509C61.607 37.7854 61.3586 37.4318 61.3913 36.9486C61.4691 35.8196 62.4261 34.935 63.5673 34.9364V34.935Z" fill="#333333"/>
<path d="M78.3117 37.0537C78.3022 37.5014 78.0292 37.8181 77.6169 37.855C77.1828 37.8932 76.8634 37.6611 76.7965 37.2052C76.7351 36.7888 76.5944 36.468 76.118 36.4762C75.6689 36.4831 75.5351 36.7957 75.4723 37.1874C75.3986 37.6461 75.086 37.8809 74.6574 37.8468C74.2506 37.814 73.9653 37.4891 73.9557 37.0496C73.9325 35.9288 74.9591 34.9337 76.1358 34.935C77.3139 34.9364 78.3336 35.9302 78.3104 37.055L78.3117 37.0537Z" fill="#333333"/>
<path d="M69.8564 40.1865C69.0578 40.1702 68.3889 39.8862 67.8511 39.3143C67.5194 38.9607 67.5084 38.5361 67.8006 38.2208C68.0954 37.9055 68.5118 37.8973 68.8954 38.2003C69.6844 38.8255 70.0038 38.8228 70.812 38.1908C71.1737 37.9082 71.5778 37.9096 71.8699 38.1949C72.1757 38.4925 72.1866 38.9375 71.8699 39.2883C71.3293 39.8849 70.6441 40.1715 69.855 40.1865H69.8564Z" fill="#333333"/>
</g>
</g>
<path d="M32 4H72V0H32V4ZM72 60H32V64H72V60ZM32 60C16.536 60 4 47.464 4 32H0C0 49.6731 14.3269 64 32 64V60ZM100 32C100 47.464 87.464 60 72 60V64C89.6731 64 104 49.6731 104 32H100ZM72 4C87.464 4 100 16.536 100 32H104C104 14.3269 89.6731 0 72 0V4ZM32 0C14.3269 0 0 14.3269 0 32H4C4 16.536 16.536 4 32 4V0Z" fill="#EE6002" mask="url(#path-1-outside-1_1130_5275)"/>
<defs>
<clipPath id="clip0_1130_5275">
<path d="M2 32C2 15.4315 15.4315 2 32 2H72C88.5685 2 102 15.4315 102 32C102 48.5685 88.5685 62 72 62H32C15.4315 62 2 48.5685 2 32Z" fill="white"/>
</clipPath>
<clipPath id="clip1_1130_5275">
<rect width="78.7649" height="53" fill="white" transform="translate(12.6177 12)"/>
</clipPath>
</defs>
</svg>
