<svg width="64" height="64" viewBox="0 0 64 64" fill="none" xmlns="http://www.w3.org/2000/svg">
<g clip-path="url(#clip0_1130_5271)">
<mask id="path-1-outside-1_1130_5271" maskUnits="userSpaceOnUse" x="0" y="0" width="64" height="64" fill="black">
<rect fill="white" width="64" height="64"/>
<path d="M2 32C2 15.4315 15.4315 2 32 2C48.5685 2 62 15.4315 62 32C62 48.5685 48.5685 62 32 62C15.4315 62 2 48.5685 2 32Z"/>
</mask>
<path d="M2 32C2 15.4315 15.4315 2 32 2C48.5685 2 62 15.4315 62 32C62 48.5685 48.5685 62 32 62C15.4315 62 2 48.5685 2 32Z" fill="#FFF5E6"/>
<g clip-path="url(#clip1_1130_5271)">
<path d="M47.7294 32.2573C47.7294 32.2573 47.9636 31.1382 50.4248 31.1382C52.8861 31.1382 55.6672 35.809 53.896 38.4647C52.6704 40.3023 50.6691 41.464 48.5093 41.1047C48.2364 41.0593 48.1122 41.0848 47.9879 41.3518C46.8466 43.8001 45.2181 45.8778 43.1012 47.5635C42.7226 47.8645 42.9598 47.9441 43.1812 48.1074C46.438 50.5074 48.7093 53.6161 49.9763 57.449C51.0848 60.8005 48.785 63.9915 45.2396 63.9944C36.4589 64.0001 27.6796 64.0015 18.899 63.9944C15.3893 63.9915 13.068 60.7835 14.1665 57.4817C14.5122 56.4407 14.9322 55.431 15.4493 54.4625C15.8078 53.7907 16.0378 53.6942 16.7806 53.9129C17.1577 54.3219 17.1534 54.7422 16.882 55.2166C16.3806 56.0942 16.0092 57.0301 15.7007 57.9915C14.9636 60.2822 16.4892 62.3911 18.9175 62.3939C27.6996 62.4024 36.4817 62.4053 45.2624 62.3982C47.6808 62.3967 49.1921 60.2822 48.4607 57.9787C48.0522 56.6921 47.4951 55.4722 46.7894 54.3219C45.5138 52.2442 43.8725 50.5088 41.8256 49.11C41.7713 49.2435 41.7313 49.34 41.6927 49.4366C41.1113 50.9363 40.5014 52.4246 39.7415 53.8461C39.3244 54.6272 38.883 55.3983 38.2359 56.0246C37.5417 56.6978 36.8717 56.8043 35.9975 56.3839C35.379 56.0857 34.8862 55.627 34.4134 55.1413C33.8863 54.6002 33.4434 53.9881 32.9692 53.3718C32.8278 53.5749 32.8849 53.7538 32.8849 53.92C32.8792 55.0362 32.8835 56.151 32.8806 57.2672C32.8806 57.716 32.7306 58.0739 32.2378 58.1733C31.6822 58.2855 31.2879 57.9233 31.2808 57.2686C31.2679 56.1183 31.2808 54.9666 31.2722 53.8149C31.2722 53.68 31.3693 53.4982 31.1622 53.4016C31.0079 53.6075 30.8637 53.8078 30.7108 54.0038C30.0309 54.8729 29.3252 55.7179 28.3524 56.2845C27.3897 56.8454 26.6254 56.7361 25.8484 55.9522C25.4713 55.5716 25.1727 55.1313 24.8927 54.6783C24.0257 53.271 23.39 51.7557 22.7743 50.2319C22.6272 49.8669 22.4801 49.5034 22.3144 49.0901C21.7601 49.5318 21.2516 49.9195 20.7631 50.3299C20.0689 50.915 19.4446 51.5711 18.859 52.2641C18.4104 52.7924 18.1862 52.8435 17.5677 52.5751C17.1834 52.0241 17.1905 51.7571 17.6091 51.253C18.6918 49.9521 19.9403 48.8245 21.3773 47.8162C20.4774 47.0948 19.6618 46.345 18.9261 45.5142C17.8262 44.273 16.9063 42.9125 16.2106 41.41C16.0778 41.1232 15.9535 41.0479 15.6178 41.1061C13.528 41.4626 11.361 40.3989 10.294 38.5343C9.23551 36.6838 9.25265 34.3193 10.6468 32.706C10.8997 32.4135 12.3681 30.6767 13.448 30.5176C15.6064 30.1995 16.452 32.1011 16.452 32.1011M34.6433 49.6312C34.6605 49.6326 34.679 49.6383 34.6962 49.6354C42.4927 48.4312 48.3736 41.2382 47.9993 33.3607C47.9708 32.7586 47.7993 32.1834 47.3608 31.7702C45.9595 30.4466 45.111 28.839 44.6753 26.9815C44.4868 26.1791 43.8425 25.7062 43.024 25.6224C41.8884 25.506 40.8285 25.736 39.8586 26.3368C39.0115 26.8608 38.1373 27.3308 37.196 27.6617C33.7048 28.8887 30.2208 28.8333 26.7454 27.5992C25.8955 27.2385 25.0741 26.8224 24.2899 26.3311C23.34 25.736 22.2958 25.5173 21.1773 25.6182C20.1074 25.7147 19.5118 26.1834 19.2618 27.2215C18.8633 28.8774 18.1005 30.3259 16.8806 31.5288C16.4306 31.9733 16.2035 32.5243 16.1678 33.1434C16.1092 34.1702 16.1421 35.197 16.2949 36.2138C16.9034 40.2484 18.7733 43.6041 21.9344 46.193C25.6355 49.2222 29.888 50.3753 34.6405 49.6326L34.6433 49.6312ZM14.5679 33.8365C14.5679 33.5184 14.5108 33.1875 14.5808 32.8864C14.6908 32.4135 14.4893 32.395 14.1265 32.4689C12.2924 32.841 11.0354 34.5664 11.2525 36.4197C11.4682 38.2602 13.1023 39.6235 14.9922 39.5681C15.3807 39.5568 15.4164 39.4531 15.3078 39.1066C14.7665 37.3925 14.5122 35.6344 14.5679 33.8365ZM49.572 34.1872C49.6306 35.0748 49.5221 35.951 49.3892 36.8244C49.2692 37.6098 49.0964 38.388 48.8421 39.1407C48.7307 39.4687 48.7778 39.5596 49.1392 39.5724C50.6834 39.6292 52.099 38.743 52.6761 37.3215C53.516 35.2566 52.2147 32.885 50.0177 32.4589C49.6049 32.3794 49.4492 32.4334 49.5535 32.9191C49.6406 33.3238 49.5706 33.7626 49.5706 34.1858L49.572 34.1872ZM24.3785 49.7476C25.0042 51.4248 25.6655 53.0693 26.714 54.5235C27.1554 55.1356 27.3097 55.1526 27.8968 54.6769C28.901 53.8646 29.6238 52.8137 30.3566 51.7713C30.6065 51.4163 30.4908 51.3524 30.1194 51.3382C29.7666 51.324 29.4152 51.253 29.0652 51.1933C27.4497 50.9178 25.9069 50.4094 24.3771 49.749L24.3785 49.7476ZM39.8286 49.7916C39.74 49.7689 39.7043 49.7462 39.6786 49.7547C39.5943 49.7817 39.5129 49.8158 39.4329 49.8527C37.7931 50.6096 36.0704 51.0769 34.2834 51.3226C33.5763 51.4191 33.5691 51.4262 33.9705 52.0056C34.6776 53.0253 35.4076 54.0265 36.4103 54.7934C36.746 55.0504 37.0231 55.0845 37.306 54.7096C38.4344 53.2156 39.1087 51.5001 39.8272 49.7916H39.8286Z" fill="#333333"/>
<path d="M17.5662 52.5765C18.1847 52.8449 18.409 52.7938 18.8575 52.2655C19.4446 51.5739 20.0674 50.9164 20.7617 50.3313C21.2502 49.9209 21.7587 49.5332 22.313 49.0915C22.4787 49.5048 22.6258 49.8683 22.7729 50.2333C23.39 51.7585 24.0242 53.2738 24.8913 54.6797C25.1713 55.1328 25.4684 55.573 25.8469 55.9536C26.624 56.7375 27.3882 56.8469 28.351 56.2859C29.3238 55.7193 30.0294 54.8729 30.7094 54.0052C30.8622 53.8106 31.0079 53.609 31.1608 53.403C31.3665 53.4982 31.2693 53.6814 31.2708 53.8163C31.2793 54.968 31.2665 56.1183 31.2793 57.2701C31.2865 57.9247 31.6822 58.2855 32.2364 58.1747C32.7292 58.0753 32.8792 57.7174 32.8792 57.2686C32.8821 56.1524 32.8778 55.0376 32.8835 53.9214C32.8835 53.7552 32.8278 53.5763 32.9678 53.3732C33.442 53.9896 33.8848 54.6016 34.4119 55.1427C34.8847 55.6284 35.3776 56.0871 35.9961 56.3853C36.8703 56.8057 37.5402 56.6992 38.2345 56.026C38.8801 55.3997 39.3229 54.63 39.74 53.8475C40.4985 52.426 41.1085 50.9377 41.6913 49.438C41.7284 49.3415 41.7699 49.2449 41.8241 49.1114C43.8711 50.5102 45.5124 52.2456 46.788 54.3233C47.4937 55.4736 48.0508 56.6921 48.4593 57.9801C49.1907 60.2836 47.6794 62.3967 45.261 62.3996C36.4789 62.4067 27.6968 62.4038 18.9161 62.3953C16.4877 62.3925 14.9636 60.2836 15.6992 57.9929C16.0078 57.0315 16.3806 56.0956 16.8806 55.218C17.152 54.7436 17.1548 54.3219 16.7791 53.9143C16.8534 53.3604 17.3077 53.0253 17.5648 52.5779L17.5662 52.5765Z" fill="#FF8120"/>
<path d="M14.5679 33.8365C14.5108 35.6344 14.7651 37.3925 15.3079 39.1066C15.4179 39.4531 15.3807 39.5568 14.9922 39.5681C13.1038 39.6235 11.4696 38.2602 11.2525 36.4197C11.0354 34.5664 12.2924 32.8424 14.1265 32.4689C14.4894 32.395 14.6908 32.4121 14.5808 32.8864C14.5108 33.1875 14.5679 33.5198 14.5679 33.8365Z" fill="white"/>
<path d="M49.5721 34.1872C49.5721 33.764 49.6406 33.3252 49.5549 32.9205C49.4507 32.4348 49.6064 32.3808 50.0192 32.4604C52.2161 32.8864 53.516 35.258 52.6775 37.3229C52.1004 38.7444 50.6848 39.6306 49.1407 39.5738C48.7793 39.561 48.7321 39.4687 48.8436 39.1421C49.0978 38.3894 49.2707 37.6112 49.3907 36.8258C49.5235 35.9525 49.6321 35.0748 49.5735 34.1887L49.5721 34.1872Z" fill="white"/>
<path d="M24.3785 49.7476C25.907 50.408 27.4497 50.9164 29.0667 51.1919C29.4167 51.2515 29.7681 51.3225 30.1209 51.3367C30.4923 51.3509 30.608 51.4149 30.358 51.7699C29.6252 52.8137 28.9024 53.8632 27.8982 54.6755C27.3097 55.1512 27.1569 55.1342 26.7155 54.5221C25.667 53.0679 25.0056 51.4234 24.38 49.7462L24.3785 49.7476Z" fill="#FF8120"/>
<path d="M39.8286 49.7917C39.1101 51.5001 38.4359 53.2156 37.3074 54.7096C37.0246 55.0845 36.7474 55.0504 36.4118 54.7934C35.409 54.0265 34.679 53.0253 33.972 52.0056C33.5691 51.4248 33.5763 51.4191 34.2848 51.3226C36.0718 51.0769 37.7945 50.6097 39.4344 49.8527C39.5143 49.8158 39.5958 49.7817 39.68 49.7547C39.7058 49.7462 39.7429 49.7689 39.83 49.7917H39.8286Z" fill="#FF8120"/>
<path d="M48.0008 33.5581C47.9722 32.956 47.8008 32.3808 47.3623 31.9676C45.961 30.644 45.1125 29.0364 44.6768 27.1789C44.4882 26.3765 43.844 25.9036 43.0255 25.8198C41.8899 25.7034 40.83 25.9334 39.8601 26.5342C39.013 27.0582 38.1388 27.5282 37.1974 27.8591C33.7063 29.0861 30.2223 29.0307 26.7469 27.7966C25.897 27.4359 25.0756 27.0198 24.2914 26.5285C23.3415 25.9334 22.2973 25.7147 21.1788 25.8156C20.1089 25.9121 19.5132 26.3808 19.2633 27.4189C18.8647 29.0748 18.1019 30.5233 16.882 31.7262C16.4321 32.1707 16.2049 32.7217 16.1692 33.3408C16.1107 34.3676 16.1435 35.3944 16.2964 36.4112C16.9049 40.4458 18.7747 43.8015 21.9359 46.3904C25.637 49.4196 29.8895 50.5727 34.6419 49.83C34.6591 49.8314 34.6776 49.8371 34.6948 49.8343C42.4913 48.63 48.3722 41.437 47.9979 33.5595L48.0008 33.5581ZM29.7452 35.5704C30.0638 35.2396 30.4966 35.2353 30.8894 35.5591C31.8065 36.3132 32.3478 36.3132 33.2706 35.5577C33.6649 35.2353 34.0977 35.241 34.4148 35.5719C34.7276 35.8985 34.7176 36.3345 34.372 36.7094C33.7634 37.3698 32.9921 37.6765 32.0893 37.7205C31.1937 37.6893 30.4066 37.3797 29.7838 36.7051C29.4381 36.3302 29.4295 35.8957 29.7438 35.569L29.7452 35.5704ZM24.5799 36.1541C24.5871 35.7508 24.5871 35.3475 24.6028 34.9442C24.6242 34.4173 24.9413 34.0935 25.4142 34.0978C25.887 34.102 26.1898 34.4258 26.2027 34.9612C26.2127 35.3475 26.1969 35.7338 26.2055 36.12C26.2127 36.4296 26.0512 36.6483 25.8427 36.8457C25.0942 37.0516 24.8028 36.8912 24.5799 36.1527V36.1541Z" fill="white"/>
<path d="M18.6648 16.4001C18.0277 16.7892 17.3877 17.1698 16.8235 17.664C16.0107 18.3769 15.335 19.1921 14.9794 20.2231C14.6065 21.301 13.8852 21.9954 12.8224 22.4143C11.084 23.0988 9.69268 24.2307 8.73704 25.8397C6.6915 29.2821 8.35136 33.1179 12.3039 33.8776C15.9893 34.5863 19.049 33.392 21.3288 30.4125C22.1573 29.329 23.1344 28.7907 24.5114 28.8674C26.6341 28.9853 28.6968 28.6544 30.6723 27.8549C31.5379 27.5041 32.395 27.4828 33.2664 27.8364C35.3091 28.6658 37.4403 28.9881 39.6373 28.8703C40.9828 28.7978 41.9285 29.39 42.6884 30.458C44.8825 33.5425 49.2607 34.9072 52.6547 33.605C55.7473 32.4192 56.98 29.3914 55.5587 26.4177C54.6103 24.4338 53.0161 23.1343 50.9977 22.322C50.1649 21.9869 49.5007 21.4643 49.2007 20.6179C48.4308 18.4451 46.8395 17.0704 44.8082 16.1686C41.1471 14.5425 37.4032 14.4162 33.6478 15.8121C32.5121 16.2339 31.4794 16.2467 30.348 15.8079C27.6211 14.7499 24.8028 14.642 21.9488 15.2271" fill="#616161"/>
<path d="M49.9321 34.9456C46.9023 34.9456 43.774 33.4644 41.987 30.9522C41.3371 30.039 40.65 29.6712 39.6829 29.7238C37.3146 29.8516 35.0462 29.4838 32.9421 28.6288C32.295 28.3661 31.6765 28.3718 30.9951 28.6473C28.9239 29.4852 26.7255 29.8459 24.4642 29.7209C23.4386 29.6641 22.703 30.0262 22.0116 30.9309C19.5318 34.1716 16.1192 35.481 12.1424 34.7169C10.0069 34.3065 8.31991 33.0483 7.5114 31.2632C6.69005 29.4483 6.8686 27.3138 7.99993 25.408C9.03413 23.6683 10.5511 22.3945 12.5081 21.6233C13.3752 21.2811 13.888 20.7641 14.1708 19.9462C14.5351 18.8938 15.2179 17.9381 16.2592 17.0249C16.8449 16.5109 17.4863 16.1203 18.1048 15.7426L18.2176 15.6744C18.6205 15.4287 19.149 15.5537 19.3961 15.9542C19.6432 16.3546 19.5175 16.8801 19.1147 17.1258L19.0004 17.1954C18.4176 17.5518 17.8662 17.887 17.392 18.3031C16.5692 19.0245 16.0592 19.7232 15.7907 20.5C15.3493 21.7767 14.4565 22.687 13.1395 23.2068C11.5439 23.8359 10.3126 24.8669 9.47552 26.2743C8.62988 27.6972 8.48418 29.2594 9.07413 30.5631C9.65836 31.854 10.864 32.7344 12.4681 33.0426C15.8093 33.6845 18.5605 32.6265 20.6474 29.8984C21.683 28.5451 22.9629 27.9301 24.5599 28.0182C26.5669 28.129 28.5153 27.8094 30.3494 27.0681C31.4422 26.6265 32.5321 26.6208 33.5906 27.0511C35.459 27.8094 37.4774 28.1375 39.5901 28.0224C41.1557 27.9387 42.3956 28.5749 43.3869 29.9694C45.3553 32.7359 49.2907 33.9856 52.3447 32.814C53.6232 32.324 54.5688 31.4506 55.0073 30.3557C55.443 29.2693 55.363 28.0026 54.7831 26.7883C53.9789 25.1069 52.6347 23.9055 50.6749 23.1173C49.5135 22.6501 48.745 21.9059 48.3908 20.9062C47.7665 19.1438 46.4795 17.85 44.4568 16.9511C41.0071 15.4188 37.4703 15.3052 33.9449 16.6145C32.5893 17.1187 31.3451 17.1158 30.0323 16.606C27.5797 15.6545 24.9899 15.477 22.1173 16.0664C21.6531 16.1615 21.2002 15.8647 21.1045 15.4032C21.0088 14.9416 21.3074 14.4914 21.7716 14.3963C24.9356 13.7487 27.9239 13.9575 30.6566 15.0183C31.5779 15.3762 32.3821 15.3762 33.3449 15.0183C37.306 13.547 41.2799 13.6734 45.1553 15.3946C47.6308 16.4938 49.2178 18.1113 50.0063 20.3395C50.1949 20.8721 50.612 21.2527 51.3162 21.5367C53.6603 22.4797 55.3473 23.9992 56.3301 26.0556C57.1172 27.7029 57.2129 29.4539 56.5986 30.9863C55.9801 32.5271 54.6888 33.7413 52.9604 34.4031C52.0005 34.7709 50.9705 34.9456 49.9306 34.9456H49.9321Z" fill="#333333"/>
<path d="M35.5404 31.7673H23.8485V37.7205H35.5404V31.7673Z" fill="white"/>
<path d="M25.8184 41.2552C25.0699 41.4611 24.7785 41.3007 24.5557 40.5622C24.5628 40.1589 24.5628 39.7556 24.5785 39.3523C24.5999 38.8254 24.9171 38.5016 25.3899 38.5059C25.8627 38.5101 26.1655 39.2599 26.1784 39.7953C26.1884 40.1816 26.1727 40.1418 26.1812 40.5281C26.1884 40.8377 26.027 41.0564 25.8184 41.2538V41.2552Z" fill="#333333"/>
<path d="M39.5558 40.5622C39.3301 41.3021 39.0401 41.4612 38.2916 41.2552C38.0202 41.0209 37.9073 41.1572 37.9259 40.7965C37.9459 40.4287 37.9159 39.632 37.9373 39.2656C37.963 38.8055 38.283 38.5115 38.7201 38.5073C39.1544 38.503 39.4915 38.7941 39.5243 39.2486C39.5558 39.6846 39.5458 40.1248 39.5543 40.5636L39.5558 40.5622Z" fill="#333333"/>
<path d="M32.0907 42.539C31.195 42.5078 30.4079 42.1982 29.7851 41.5236C29.4395 41.1487 29.4309 40.7142 29.7451 40.3875C30.0637 40.0566 30.4965 40.0524 30.8893 40.3762C31.8064 41.1303 32.3478 41.1303 33.2706 40.3747C33.6648 40.0524 34.0976 40.0581 34.4148 40.3889C34.7276 40.7156 34.7176 41.1516 34.3719 41.5265C33.7634 42.1868 32.992 42.4936 32.0892 42.5376L32.0907 42.539Z" fill="#333333"/>
</g>
</g>
<path d="M32 60C16.536 60 4 47.464 4 32H0C0 49.6731 14.3269 64 32 64V60ZM60 32C60 47.464 47.464 60 32 60V64C49.6731 64 64 49.6731 64 32H60ZM32 4C47.464 4 60 16.536 60 32H64C64 14.3269 49.6731 0 32 0V4ZM32 0C14.3269 0 0 14.3269 0 32H4C4 16.536 16.536 4 32 4V0Z" fill="#EE6002" mask="url(#path-1-outside-1_1130_5271)"/>
<defs>
<clipPath id="clip0_1130_5271">
<path d="M2 32C2 15.4315 15.4315 2 32 2C48.5685 2 62 15.4315 62 32C62 48.5685 48.5685 62 32 62C15.4315 62 2 48.5685 2 32Z" fill="white"/>
</clipPath>
<clipPath id="clip1_1130_5271">
<rect width="50" height="50" fill="white" transform="translate(7 14)"/>
</clipPath>
</defs>
</svg>
