<svg width="64" height="64" viewBox="0 0 64 64" fill="none" xmlns="http://www.w3.org/2000/svg">
<g clip-path="url(#clip0_1384_9653)">
<mask id="path-1-outside-1_1384_9653" maskUnits="userSpaceOnUse" x="0" y="0" width="64" height="64" fill="black">
<rect fill="white" width="64" height="64"/>
<path d="M2 32C2 15.4315 15.4315 2 32 2C48.5685 2 62 15.4315 62 32C62 48.5685 48.5685 62 32 62C15.4315 62 2 48.5685 2 32Z"/>
</mask>
<path d="M2 32C2 15.4315 15.4315 2 32 2C48.5685 2 62 15.4315 62 32C62 48.5685 48.5685 62 32 62C15.4315 62 2 48.5685 2 32Z" fill="#FFF5E6"/>
<g clip-path="url(#clip1_1384_9653)">
<path d="M46.9934 33.6993C46.9307 33.4246 46.8149 33.3033 46.536 33.2321C45.6615 33.0076 44.8205 32.6799 44.0089 32.281C41.2963 30.9491 39.0578 29.0189 37.0774 26.7707C36.7706 26.422 36.5963 26.3021 36.1556 26.6577C33.9004 28.4805 31.404 29.9031 28.7234 31.0105C28.3092 31.182 27.9145 31.3019 27.4724 31.1834C26.8295 31.5697 26.1168 31.7622 25.393 31.924C25.188 32.1401 24.9648 32.3172 24.6622 32.3953C22.1323 33.0466 19.5759 33.5278 16.9553 33.5738C16.5941 33.5794 16.4881 33.7133 16.424 34.0243C16.099 35.5807 15.9512 37.1428 16.0669 38.7368C16.6094 46.2206 22.6023 52.4463 30.0721 53.1785C34.74 53.636 38.9226 52.3598 42.3436 49.1228C46.8051 44.9026 48.356 39.7201 46.9934 33.6993Z" fill="white"/>
<path d="M19.1659 49.5677C19.1659 49.5677 15.65 44.9835 15.6751 43.8636C14.894 44.3587 13.4478 44.1969 13.0057 43.7981C12.5636 43.3992 12.1535 42.8692 12.1856 42.1956C12.1968 41.9724 11.8858 41.8093 11.7324 41.6712C8.69201 38.9098 9.21222 34.4413 12.8076 32.4483C13.0029 32.3396 13.0852 32.2447 13.0545 32.0132C12.6417 28.8641 13.0405 25.814 14.1925 22.8587C14.2665 22.6676 14.2511 22.5114 14.166 22.3203C12.8899 19.4334 14.3013 16.4851 17.3584 15.6748C17.6178 15.6065 17.6834 15.4851 17.7391 15.2773C18.548 12.2621 21.527 10.8256 24.3568 12.0961C24.5883 12.2007 24.7682 12.1882 24.9941 12.1031C29.5059 10.4142 34.0218 10.4086 38.5321 12.1045C38.765 12.1924 38.9449 12.1854 39.1694 12.0836C41.9546 10.827 44.974 12.283 45.7494 15.255C45.8122 15.4949 45.9056 15.6079 46.1706 15.6776C49.1775 16.4656 50.5958 19.4362 49.3421 22.3008C49.2486 22.5128 49.2528 22.6802 49.3323 22.8866C50.4578 25.8293 50.8636 28.8641 50.4424 31.9937C50.395 32.3451 50.6126 32.3967 50.8176 32.5069C53.8133 34.1219 54.6752 38.0325 52.6376 40.7535C52.6279 40.7675 52.6209 40.7856 52.6083 40.7968C51.9863 41.4104 51.0045 41.7256 51.0449 42.7172C51.0547 42.9599 50.8859 43.2346 50.6851 43.3936C50.6851 43.3936 49.7604 44.1997 48.8232 44.0435L47.886 43.8873C47.886 43.8873 44.7606 48.9666 44.1358 49.4743C44.1358 49.4743 49.2612 54.3779 49.6112 57.5675C49.9961 61.0792 48.0032 63.796 45.2027 64.1628C45.1678 64.167 45.1413 64.2284 45.1107 64.2632H39.3717C39.0369 63.9982 38.7273 63.7082 38.8961 63.227C39.0634 62.75 39.4623 62.6845 39.9128 62.6887C41.4079 62.6998 42.9043 62.7166 44.398 62.6845C47.0172 62.6287 48.8553 60.0109 47.9809 57.5438C47.0478 54.9093 45.504 52.6653 43.4594 50.7602C43.2488 50.5635 43.1191 50.5621 42.9071 50.7532C42.2335 51.3585 41.5027 51.8926 40.7147 52.3361C40.3702 52.5314 40.1931 52.7713 40.0941 53.1534C39.1513 56.7893 35.7776 59.4586 32.0218 59.5618C27.9773 59.6734 24.4098 56.9985 23.3861 53.0781C23.308 52.7768 23.1839 52.5607 22.8966 52.4031C22.0737 51.947 21.3136 51.3961 20.6121 50.7699C20.3723 50.5566 20.2412 50.5817 20.0208 50.7895C18.0097 52.675 16.5035 54.8939 15.5481 57.4838C15.3599 57.9957 15.272 58.5242 15.3292 59.0695C15.5537 61.2368 17.1632 62.6859 19.3639 62.6873C24.9286 62.6915 30.4919 62.6887 36.0566 62.6887C36.2128 62.6887 36.3704 62.6817 36.5252 62.6956C36.8278 62.7221 37.0523 62.8825 37.1695 63.1559C37.2964 63.4515 37.2211 63.7277 37.0384 63.9885C36.9603 64.0987 36.7818 64.1015 36.7623 64.2646H18.1826C18.1213 64.0694 17.9302 64.107 17.7963 64.068C14.9289 63.2493 13.6291 60.5827 13.8773 57.6289C14.0349 54.4393 19.1659 49.5677 19.1659 49.5677ZM25.393 31.924C25.188 32.1401 24.9649 32.3172 24.6622 32.3953C22.1323 33.0466 19.5759 33.5278 16.9553 33.5738C16.5941 33.5794 16.4881 33.7133 16.424 34.0243C16.099 35.5807 15.9512 37.1428 16.067 38.7368C16.6095 46.2206 22.6023 52.4463 30.0721 53.1785C34.74 53.636 38.9226 52.3598 42.3437 49.1228C46.8052 44.9026 48.356 39.7201 46.9935 33.6993C46.9307 33.4246 46.8149 33.3033 46.536 33.2321C45.6616 33.0076 44.8206 32.6799 44.0089 32.281C41.2963 30.9491 39.0579 29.0189 37.0774 26.7707C36.7706 26.422 36.5963 26.3021 36.1556 26.6577C33.9004 28.4805 31.404 29.9031 28.7235 31.0105C28.3092 31.182 27.9146 31.3019 27.4725 31.1834C26.9662 30.295 27.0778 29.9728 28.0512 29.5795C30.9437 28.4122 33.5769 26.8167 35.9659 24.814C36.6772 24.2185 36.9603 24.2422 37.5656 24.9535C38.8082 26.4137 40.1527 27.7721 41.6742 28.9422C43.6226 30.4414 45.7006 31.6743 48.2082 31.9783C48.8665 32.0578 48.9013 32.0355 48.9641 31.3703C49.2305 28.4959 48.8246 25.7219 47.7103 23.0581C47.5332 22.6328 47.5597 22.2841 47.78 21.8796C48.9613 19.7207 47.7298 17.3763 45.2934 17.1141C44.5277 17.0318 44.3701 16.8742 44.3004 16.1211C44.0814 13.753 41.7175 12.4797 39.6241 13.6233C39.1708 13.8701 38.7803 13.8924 38.2964 13.6986C33.9897 11.9776 29.6648 11.9525 25.3484 13.6609C24.7849 13.8841 24.3359 13.8897 23.7836 13.5828C21.8101 12.4866 19.3821 13.8367 19.2091 16.0821C19.1491 16.8672 18.9902 17.0318 18.2064 17.1225C15.7713 17.4042 14.5398 19.7109 15.7127 21.8434C15.9665 22.305 15.9679 22.6927 15.7699 23.1641C14.6514 25.8279 14.2888 28.6075 14.544 31.4791C14.5802 31.8849 14.7239 32.016 15.1507 32.0244C18.1771 32.0815 21.1435 31.6896 24.0653 30.9128C25.0444 30.652 25.4042 30.931 25.393 31.924ZM25.2466 53.5969C26.333 56.5215 29.2967 58.2146 32.6648 57.898C35.0942 57.6693 37.8585 55.5355 38.1834 53.6234C33.8948 55.2426 29.6077 55.2524 25.2466 53.5969ZM14.8954 33.5864C14.5314 33.6115 14.1995 33.5515 13.855 33.677C11.2038 34.6533 10.4395 38.2989 12.4813 40.2487C12.6445 40.4049 12.756 40.5081 12.9945 40.3184C13.353 40.0311 13.7951 39.9028 14.2595 39.9251C14.5384 39.939 14.6012 39.8693 14.5677 39.5778C14.438 38.4565 14.4017 37.3324 14.5035 36.2028C14.5816 35.3381 14.7406 34.4873 14.894 33.5864H14.8954ZM48.6043 33.624C48.8065 34.6115 48.9571 35.6017 49.0283 36.6044C49.1022 37.6323 49.0394 38.6546 48.9237 39.6727C48.8944 39.9237 49.0171 39.9209 49.1914 39.9167C49.6363 39.9056 50.0729 39.9906 50.4215 40.264C50.7214 40.4983 50.879 40.3965 51.0979 40.165C52.9026 38.2668 52.3629 35.0536 50.0366 33.8555C49.5889 33.6254 49.1342 33.5153 48.6043 33.6226V33.624ZM14.3097 41.4857C13.869 41.4829 13.505 41.8358 13.505 42.2639C13.505 42.6837 13.8913 43.0645 14.3083 43.0575C14.7197 43.0505 15.0712 42.7005 15.0754 42.2932C15.0795 41.8386 14.7462 41.4871 14.3097 41.4857ZM49.1817 41.4843C48.7214 41.4941 48.4286 41.819 48.4453 42.3016C48.4606 42.7465 48.7758 43.0617 49.1998 43.0589C49.6196 43.0561 49.9975 42.6726 49.9934 42.2556C49.9892 41.8288 49.6168 41.4759 49.1817 41.4843Z" fill="#333333"/>
<path d="M36.758 64.2646C36.7775 64.1028 36.9561 64.1001 37.0342 63.9885C37.2169 63.7291 37.2936 63.4515 37.1653 63.1559C37.0481 62.8825 36.8236 62.7221 36.5209 62.6956C36.3661 62.6817 36.2085 62.6887 36.0523 62.6887C30.4877 62.6887 24.9244 62.6915 19.3597 62.6873C17.1589 62.6859 15.5495 61.2368 15.325 59.0695C15.2692 58.5256 15.3556 57.9957 15.5439 57.4838C16.4993 54.8939 18.0055 52.675 20.0166 50.7895C20.2383 50.5817 20.3694 50.5552 20.6079 50.7699C21.308 51.3961 22.0695 51.947 22.8924 52.4031C23.1783 52.5621 23.3024 52.7768 23.3819 53.0781C24.4056 56.9985 27.9745 59.6734 32.0176 59.5618C35.7734 59.4586 39.1457 56.7893 40.0899 53.1534C40.1889 52.7713 40.366 52.53 40.7105 52.3361C41.4985 51.8912 42.2293 51.3585 42.9029 50.7532C43.1149 50.5621 43.2446 50.5649 43.4552 50.7602C45.4997 52.6653 47.0422 54.9093 47.9766 57.5438C48.8511 60.0109 47.0129 62.6287 44.3938 62.6845C42.8987 62.7166 41.4036 62.6998 39.9086 62.6887C39.4581 62.6859 39.0592 62.7514 38.8918 63.227C38.7231 63.7082 39.0327 63.9982 39.3674 64.2632H36.758V64.2646Z" fill="#FF8120"/>
<path d="M27.4724 31.1834C26.8295 31.5697 26.1168 31.7622 25.393 31.924C25.4042 30.931 25.0429 30.652 24.0653 30.9128C21.1449 31.691 18.1784 32.0815 15.1507 32.0244C14.7239 32.016 14.5802 31.8849 14.544 31.4791C14.2888 28.6075 14.65 25.8279 15.7699 23.1641C15.9679 22.6927 15.9679 22.305 15.7127 21.8434C14.5398 19.7109 15.7699 17.4056 18.2063 17.1225C18.9901 17.0318 19.1491 16.8659 19.2091 16.0821C19.3806 13.8353 21.8101 12.4866 23.7836 13.5828C24.3359 13.8897 24.7849 13.8841 25.3484 13.6609C29.6648 11.9511 33.9897 11.9762 38.2964 13.6986C38.7803 13.8924 39.1708 13.8701 39.6241 13.6233C41.7175 12.4811 44.0828 13.753 44.3004 16.1211C44.3701 16.8742 44.5277 17.0318 45.2934 17.1141C47.7298 17.3763 48.9613 19.7207 47.78 21.8796C47.5583 22.2841 47.5318 22.6328 47.7103 23.0581C48.8246 25.7219 49.2305 28.4959 48.9641 31.3703C48.9027 32.0355 48.8679 32.0592 48.2082 31.9783C45.7006 31.6743 43.6226 30.4414 41.6742 28.9422C40.1526 27.7721 38.8082 26.4151 37.5656 24.9535C36.9603 24.2422 36.6772 24.2185 35.9659 24.814C33.5754 26.8153 30.9437 28.4122 28.0512 29.5795C27.0777 29.9728 26.9662 30.295 27.4724 31.1834Z" fill="white"/>
<path d="M25.2466 53.5969C29.6063 55.2524 33.8934 55.2426 38.1834 53.6234C37.8585 55.5355 35.0942 57.6693 32.6648 57.898C29.2967 58.2146 26.333 56.5215 25.2466 53.5969Z" fill="#FF8120"/>
<path d="M14.8955 33.5864C14.7421 34.4887 14.5831 35.3381 14.505 36.2028C14.4032 37.3324 14.4394 38.4565 14.5691 39.5778C14.6026 39.8693 14.5398 39.939 14.2609 39.9251C13.7965 39.9014 13.3544 40.0311 12.9959 40.3184C12.7575 40.5081 12.6459 40.4049 12.4827 40.2487C10.4409 38.2989 11.2052 34.6519 13.8565 33.677C14.1995 33.5501 14.5329 33.6101 14.8969 33.5864H14.8955Z" fill="white"/>
<path d="M48.6042 33.624C49.1328 33.5166 49.5889 33.6268 50.0366 33.8569C52.3642 35.055 52.904 38.2682 51.0979 40.1664C50.8775 40.3979 50.7199 40.4997 50.4215 40.2654C50.0728 39.992 49.6363 39.907 49.1914 39.9181C49.0185 39.9223 48.8957 39.9265 48.9236 39.6741C49.0394 38.6546 49.1021 37.6337 49.0282 36.6058C48.9557 35.6031 48.8065 34.6128 48.6042 33.6254V33.624Z" fill="white"/>
<path d="M14.3097 41.4857C14.7462 41.4885 15.0796 41.84 15.0754 42.2932C15.0712 42.7005 14.7198 43.0505 14.3083 43.0575C13.8913 43.0645 13.505 42.6823 13.505 42.2639C13.505 41.8358 13.869 41.4829 14.3097 41.4857Z" fill="#FF8120"/>
<path d="M49.1816 41.4843C49.6168 41.4759 49.9878 41.8288 49.9933 42.2556C49.9975 42.6726 49.6196 43.0547 49.1998 43.0589C48.7758 43.0617 48.4606 42.7465 48.4453 42.3016C48.4285 41.819 48.7214 41.4941 49.1816 41.4843Z" fill="#FF8120"/>
<path d="M25.3372 39.5416C26.4795 39.5444 27.4181 40.4007 27.5408 41.5541C27.5938 42.0533 27.3302 42.4438 26.8867 42.5233C26.446 42.6014 26.0876 42.3239 25.9969 41.8023C25.9258 41.3979 25.7542 41.1022 25.3024 41.1161C24.8812 41.1287 24.7208 41.4146 24.6594 41.7995C24.5744 42.3239 24.2187 42.6126 23.7822 42.5415C23.3331 42.4689 23.0667 42.091 23.1072 41.5847C23.2006 40.4286 24.1727 39.5388 25.3372 39.543V39.5416Z" fill="#333333"/>
<path d="M38.182 39.5416C39.3438 39.5457 40.3144 40.4537 40.3912 41.6057C40.4246 42.1063 40.1415 42.4871 39.6924 42.5443C39.2726 42.5986 38.917 42.3141 38.8417 41.826C38.7803 41.4202 38.6213 41.1147 38.1709 41.1133C37.719 41.1119 37.5628 41.4188 37.4972 41.8218C37.4177 42.3086 37.0593 42.5875 36.6381 42.5289C36.196 42.4676 35.9087 42.0729 35.9506 41.5805C36.0496 40.4188 37.0161 39.5346 38.182 39.5388V39.5416Z" fill="#333333"/>
<path d="M31.7387 46.5734C30.9507 46.5734 30.2813 46.2861 29.7346 45.7227C29.3678 45.3461 29.3496 44.8943 29.6704 44.5665C29.9758 44.2555 30.404 44.2569 30.7903 44.5721C31.5197 45.1676 31.9702 45.1648 32.7233 44.5581C33.1068 44.2499 33.542 44.2583 33.8418 44.5805C34.1417 44.9026 34.1305 45.3405 33.7874 45.7004C33.2324 46.2819 32.5476 46.5776 31.7401 46.572L31.7387 46.5734Z" fill="#333333"/>
<path d="M31.5616 34.8207C31.5784 34.8207 31.5937 34.8207 31.6091 34.8207C33.2938 34.8402 34.7833 35.0382 36.2589 35.2934C36.648 35.3604 36.8167 35.5696 36.74 35.8318C36.6647 36.087 36.3858 36.2181 35.9841 36.1637C34.8963 36.0159 33.8182 35.8401 32.7122 35.7662C31.0721 35.6561 29.485 35.8722 27.8965 36.1107C27.7612 36.1316 27.6259 36.1567 27.4893 36.1693C27.1239 36.2042 26.8324 36.0703 26.7585 35.8388C26.679 35.5863 26.8575 35.3618 27.2368 35.2962C28.287 35.1149 29.3441 34.9573 30.4194 34.8834C30.8476 34.8541 31.2785 34.8374 31.5589 34.8234L31.5616 34.8207Z" fill="#333333"/>
</g>
</g>
<path d="M32 60C16.536 60 4 47.464 4 32H0C0 49.6731 14.3269 64 32 64V60ZM60 32C60 47.464 47.464 60 32 60V64C49.6731 64 64 49.6731 64 32H60ZM32 4C47.464 4 60 16.536 60 32H64C64 14.3269 49.6731 0 32 0V4ZM32 0C14.3269 0 0 14.3269 0 32H4C4 16.536 16.536 4 32 4V0Z" fill="#EE6002" mask="url(#path-1-outside-1_1384_9653)"/>
<defs>
<clipPath id="clip0_1384_9653">
<path d="M2 32C2 15.4315 15.4315 2 32 2C48.5685 2 62 15.4315 62 32C62 48.5685 48.5685 62 32 62C15.4315 62 2 48.5685 2 32Z" fill="white"/>
</clipPath>
<clipPath id="clip1_1384_9653">
<rect width="44" height="53.4293" fill="white" transform="translate(9.745 10.8353)"/>
</clipPath>
</defs>
</svg>
