<svg width="62" height="62" viewBox="0 0 62 62" fill="none" xmlns="http://www.w3.org/2000/svg">
<g clip-path="url(#clip0_1130_5278)">
<rect x="1" y="1" width="60" height="60" rx="30" fill="#EEEEEE"/>
<g clip-path="url(#clip1_1130_5278)">
<path d="M46.7294 31.2573C46.7294 31.2573 46.9636 30.1382 49.4248 30.1382C51.8861 30.1382 54.6672 34.809 52.896 37.4647C51.6704 39.3023 49.6691 40.464 47.5093 40.1047C47.2364 40.0593 47.1122 40.0848 46.9879 40.3518C45.8466 42.8001 44.2181 44.8778 42.1012 46.5635C41.7226 46.8645 41.9598 46.9441 42.1812 47.1074C45.438 49.5074 47.7093 52.6161 48.9763 56.449C50.0848 59.8005 47.785 62.9915 44.2396 62.9944C35.4589 63.0001 26.6796 63.0015 17.899 62.9944C14.3893 62.9915 12.068 59.7835 13.1665 56.4817C13.5122 55.4407 13.9322 54.431 14.4493 53.4625C14.8078 52.7907 15.0378 52.6942 15.7806 52.9129C16.1577 53.3219 16.1534 53.7422 15.882 54.2166C15.3806 55.0942 15.0092 56.0301 14.7007 56.9915C13.9636 59.2822 15.4892 61.3911 17.9175 61.3939C26.6996 61.4024 35.4817 61.4053 44.2624 61.3982C46.6808 61.3967 48.1921 59.2822 47.4607 56.9787C47.0522 55.6921 46.4951 54.4722 45.7894 53.3219C44.5138 51.2442 42.8725 49.5088 40.8256 48.11C40.7713 48.2435 40.7313 48.34 40.6927 48.4366C40.1113 49.9363 39.5014 51.4246 38.7415 52.8461C38.3244 53.6272 37.883 54.3983 37.2359 55.0246C36.5417 55.6978 35.8717 55.8043 34.9975 55.3839C34.379 55.0857 33.8862 54.627 33.4134 54.1413C32.8863 53.6002 32.4434 52.9881 31.9692 52.3718C31.8278 52.5749 31.8849 52.7538 31.8849 52.92C31.8792 54.0362 31.8835 55.151 31.8806 56.2672C31.8806 56.716 31.7306 57.0739 31.2378 57.1733C30.6822 57.2855 30.2879 56.9233 30.2808 56.2686C30.2679 55.1183 30.2808 53.9666 30.2722 52.8149C30.2722 52.68 30.3693 52.4982 30.1622 52.4016C30.0079 52.6075 29.8637 52.8078 29.7108 53.0038C29.0309 53.8729 28.3252 54.7179 27.3524 55.2845C26.3897 55.8454 25.6254 55.7361 24.8484 54.9522C24.4713 54.5716 24.1727 54.1313 23.8927 53.6783C23.0257 52.271 22.39 50.7557 21.7743 49.2319C21.6272 48.8669 21.4801 48.5034 21.3144 48.0901C20.7601 48.5318 20.2516 48.9195 19.7631 49.3299C19.0689 49.915 18.4446 50.5711 17.859 51.2641C17.4104 51.7924 17.1862 51.8435 16.5677 51.5751C16.1834 51.0241 16.1905 50.7571 16.6091 50.253C17.6918 48.9521 18.9403 47.8245 20.3773 46.8162C19.4774 46.0948 18.6618 45.345 17.9261 44.5142C16.8262 43.273 15.9063 41.9125 15.2106 40.41C15.0778 40.1232 14.9535 40.0479 14.6178 40.1061C12.528 40.4626 10.361 39.3989 9.29399 37.5343C8.23551 35.6838 8.25265 33.3193 9.64681 31.706C9.89965 31.4135 11.3681 29.6767 12.448 29.5176C14.6064 29.1995 15.452 31.1011 15.452 31.1011M33.6433 48.6312C33.6605 48.6326 33.679 48.6383 33.6962 48.6354C41.4927 47.4312 47.3736 40.2382 46.9993 32.3607C46.9708 31.7586 46.7993 31.1834 46.3608 30.7702C44.9595 29.4466 44.111 27.839 43.6753 25.9815C43.4868 25.1791 42.8425 24.7062 42.024 24.6224C40.8884 24.506 39.8285 24.736 38.8586 25.3368C38.0115 25.8608 37.1373 26.3308 36.196 26.6617C32.7048 27.8887 29.2208 27.8333 25.7454 26.5992C24.8955 26.2385 24.0741 25.8224 23.2899 25.3311C22.34 24.736 21.2958 24.5173 20.1773 24.6182C19.1074 24.7147 18.5118 25.1834 18.2618 26.2215C17.8633 27.8774 17.1005 29.3259 15.8806 30.5288C15.4306 30.9733 15.2035 31.5243 15.1678 32.1434C15.1092 33.1702 15.1421 34.197 15.2949 35.2138C15.9034 39.2484 17.7733 42.6041 20.9344 45.193C24.6355 48.2222 28.888 49.3753 33.6405 48.6326L33.6433 48.6312ZM13.5679 32.8365C13.5679 32.5184 13.5108 32.1875 13.5808 31.8864C13.6908 31.4135 13.4893 31.395 13.1265 31.4689C11.2924 31.841 10.0354 33.5664 10.2525 35.4197C10.4682 37.2602 12.1023 38.6235 13.9922 38.5681C14.3807 38.5568 14.4164 38.4531 14.3078 38.1066C13.7665 36.3925 13.5122 34.6344 13.5679 32.8365ZM48.572 33.1872C48.6306 34.0748 48.5221 34.951 48.3892 35.8244C48.2692 36.6098 48.0964 37.388 47.8421 38.1407C47.7307 38.4687 47.7778 38.5596 48.1392 38.5724C49.6834 38.6292 51.099 37.743 51.6761 36.3215C52.516 34.2566 51.2147 31.885 49.0177 31.4589C48.6049 31.3794 48.4492 31.4334 48.5535 31.9191C48.6406 32.3238 48.5706 32.7626 48.5706 33.1858L48.572 33.1872ZM23.3785 48.7476C24.0042 50.4248 24.6655 52.0693 25.714 53.5235C26.1554 54.1356 26.3097 54.1526 26.8968 53.6769C27.901 52.8646 28.6238 51.8137 29.3566 50.7713C29.6065 50.4163 29.4908 50.3524 29.1194 50.3382C28.7666 50.324 28.4152 50.253 28.0652 50.1933C26.4497 49.9178 24.9069 49.4094 23.3771 48.749L23.3785 48.7476ZM38.8286 48.7916C38.74 48.7689 38.7043 48.7462 38.6786 48.7547C38.5943 48.7817 38.5129 48.8158 38.4329 48.8527C36.7931 49.6096 35.0704 50.0769 33.2834 50.3226C32.5763 50.4191 32.5691 50.4262 32.9705 51.0056C33.6776 52.0253 34.4076 53.0265 35.4103 53.7934C35.746 54.0504 36.0231 54.0845 36.306 53.7096C37.4344 52.2156 38.1087 50.5001 38.8272 48.7916H38.8286Z" fill="#333333"/>
<path d="M16.5662 51.5765C17.1847 51.8449 17.409 51.7938 17.8575 51.2655C18.4446 50.5739 19.0674 49.9164 19.7617 49.3313C20.2502 48.9209 20.7587 48.5332 21.313 48.0915C21.4787 48.5048 21.6258 48.8683 21.7729 49.2333C22.39 50.7585 23.0242 52.2738 23.8913 53.6797C24.1713 54.1328 24.4684 54.573 24.8469 54.9536C25.624 55.7375 26.3882 55.8469 27.351 55.2859C28.3238 54.7193 29.0294 53.8729 29.7094 53.0052C29.8622 52.8106 30.0079 52.609 30.1608 52.403C30.3665 52.4982 30.2693 52.6814 30.2708 52.8163C30.2793 53.968 30.2665 55.1183 30.2793 56.2701C30.2865 56.9247 30.6822 57.2855 31.2364 57.1747C31.7292 57.0753 31.8792 56.7174 31.8792 56.2686C31.8821 55.1524 31.8778 54.0376 31.8835 52.9214C31.8835 52.7552 31.8278 52.5763 31.9678 52.3732C32.442 52.9896 32.8848 53.6016 33.4119 54.1427C33.8847 54.6284 34.3776 55.0871 34.9961 55.3853C35.8703 55.8057 36.5402 55.6992 37.2345 55.026C37.8801 54.3997 38.3229 53.63 38.74 52.8475C39.4985 51.426 40.1085 49.9377 40.6913 48.438C40.7284 48.3415 40.7699 48.2449 40.8241 48.1114C42.8711 49.5102 44.5124 51.2456 45.788 53.3233C46.4937 54.4736 47.0508 55.6921 47.4593 56.9801C48.1907 59.2836 46.6794 61.3967 44.261 61.3996C35.4789 61.4067 26.6968 61.4038 17.9161 61.3953C15.4877 61.3925 13.9636 59.2836 14.6992 56.9929C15.0078 56.0315 15.3806 55.0956 15.8806 54.218C16.152 53.7436 16.1548 53.3219 15.7791 52.9143C15.8534 52.3604 16.3077 52.0253 16.5648 51.5779L16.5662 51.5765Z" fill="#767FD1"/>
<path d="M13.5679 32.8365C13.5108 34.6344 13.7651 36.3925 14.3079 38.1066C14.4179 38.4531 14.3807 38.5568 13.9922 38.5681C12.1038 38.6235 10.4696 37.2602 10.2525 35.4197C10.0354 33.5664 11.2924 31.8424 13.1265 31.4689C13.4894 31.395 13.6908 31.4121 13.5808 31.8864C13.5108 32.1875 13.5679 32.5198 13.5679 32.8365Z" fill="#FFF5E6"/>
<path d="M48.5721 33.1872C48.5721 32.764 48.6406 32.3252 48.5549 31.9205C48.4507 31.4348 48.6064 31.3808 49.0192 31.4604C51.2161 31.8864 52.516 34.258 51.6775 36.3229C51.1004 37.7444 49.6848 38.6306 48.1407 38.5738C47.7793 38.561 47.7321 38.4687 47.8436 38.1421C48.0978 37.3894 48.2707 36.6112 48.3907 35.8258C48.5235 34.9525 48.6321 34.0748 48.5735 33.1887L48.5721 33.1872Z" fill="#FFF5E6"/>
<path d="M23.3785 48.7476C24.907 49.408 26.4497 49.9164 28.0667 50.1919C28.4167 50.2515 28.7681 50.3225 29.1209 50.3367C29.4923 50.3509 29.608 50.4149 29.358 50.7699C28.6252 51.8137 27.9024 52.8632 26.8982 53.6755C26.3097 54.1512 26.1569 54.1342 25.7155 53.5221C24.667 52.0679 24.0056 50.4234 23.38 48.7462L23.3785 48.7476Z" fill="#767FD1"/>
<path d="M38.8286 48.7917C38.1101 50.5001 37.4359 52.2156 36.3074 53.7096C36.0246 54.0845 35.7474 54.0504 35.4118 53.7934C34.409 53.0265 33.679 52.0253 32.972 51.0056C32.5691 50.4248 32.5763 50.4191 33.2848 50.3226C35.0718 50.0769 36.7945 49.6097 38.4344 48.8527C38.5143 48.8158 38.5958 48.7817 38.68 48.7547C38.7058 48.7462 38.7429 48.7689 38.83 48.7917H38.8286Z" fill="#767FD1"/>
<path d="M47.0008 32.5581C46.9722 31.956 46.8008 31.3808 46.3623 30.9676C44.961 29.644 44.1125 28.0364 43.6768 26.1789C43.4882 25.3765 42.844 24.9036 42.0255 24.8198C40.8899 24.7034 39.83 24.9334 38.8601 25.5342C38.013 26.0582 37.1388 26.5282 36.1974 26.8591C32.7063 28.0861 29.2223 28.0307 25.7469 26.7966C24.897 26.4359 24.0756 26.0198 23.2914 25.5285C22.3415 24.9334 21.2973 24.7147 20.1788 24.8156C19.1089 24.9121 18.5132 25.3808 18.2633 26.4189C17.8647 28.0748 17.1019 29.5233 15.882 30.7262C15.4321 31.1707 15.2049 31.7217 15.1692 32.3408C15.1107 33.3676 15.1435 34.3944 15.2964 35.4112C15.9049 39.4458 17.7747 42.8015 20.9359 45.3904C24.637 48.4196 28.8895 49.5727 33.6419 48.83C33.6591 48.8314 33.6776 48.8371 33.6948 48.8343C41.4913 47.63 47.3722 40.437 46.9979 32.5595L47.0008 32.5581ZM28.7452 34.5704C29.0638 34.2396 29.4966 34.2353 29.8894 34.5591C30.8065 35.3132 31.3478 35.3132 32.2706 34.5577C32.6649 34.2353 33.0977 34.241 33.4148 34.5719C33.7276 34.8985 33.7176 35.3345 33.372 35.7094C32.7634 36.3698 31.9921 36.6765 31.0893 36.7205C30.1937 36.6893 29.4066 36.3797 28.7838 35.7051C28.4381 35.3302 28.4295 34.8957 28.7438 34.569L28.7452 34.5704ZM23.5799 35.1541C23.5871 34.7508 23.5871 34.3475 23.6028 33.9442C23.6242 33.4173 23.9413 33.0935 24.4142 33.0978C24.887 33.102 25.1898 33.4258 25.2027 33.9612C25.2127 34.3475 25.1969 34.7338 25.2055 35.12C25.2127 35.4296 25.0512 35.6483 24.8427 35.8457C24.0942 36.0516 23.8028 35.8912 23.5799 35.1527V35.1541Z" fill="#FFF5E6"/>
<path d="M17.6648 15.4001C17.0277 15.7892 16.3877 16.1698 15.8235 16.664C15.0107 17.3769 14.335 18.1921 13.9794 19.2231C13.6065 20.301 12.8852 20.9954 11.8224 21.4143C10.084 22.0988 8.69268 23.2307 7.73704 24.8397C5.6915 28.2821 7.35136 32.1179 11.3039 32.8776C14.9893 33.5863 18.049 32.392 20.3288 29.4125C21.1573 28.329 22.1344 27.7907 23.5114 27.8674C25.6341 27.9853 27.6968 27.6544 29.6723 26.8549C30.5379 26.5041 31.395 26.4828 32.2664 26.8364C34.3091 27.6658 36.4403 27.9881 38.6373 27.8703C39.9828 27.7978 40.9285 28.39 41.6884 29.458C43.8825 32.5425 48.2607 33.9072 51.6547 32.605C54.7473 31.4192 55.98 28.3914 54.5587 25.4177C53.6103 23.4338 52.0161 22.1343 49.9977 21.322C49.1649 20.9869 48.5007 20.4643 48.2007 19.6179C47.4308 17.4451 45.8395 16.0704 43.8082 15.1686C40.1471 13.5425 36.4032 13.4162 32.6478 14.8121C31.5121 15.2339 30.4794 15.2467 29.348 14.8079C26.6211 13.7499 23.8028 13.642 20.9488 14.2271" fill="#616161"/>
<path d="M48.9321 33.9456C45.9023 33.9456 42.774 32.4644 40.987 29.9522C40.3371 29.039 39.65 28.6712 38.6829 28.7238C36.3146 28.8516 34.0462 28.4838 31.9421 27.6288C31.295 27.3661 30.6765 27.3718 29.9951 27.6473C27.9239 28.4852 25.7255 28.8459 23.4642 28.7209C22.4386 28.6641 21.703 29.0262 21.0116 29.9309C18.5318 33.1716 15.1192 34.481 11.1424 33.7169C9.00691 33.3065 7.31991 32.0483 6.5114 30.2632C5.69005 28.4483 5.8686 26.3138 6.99993 24.408C8.03413 22.6683 9.55114 21.3945 11.5081 20.6233C12.3752 20.2811 12.888 19.7641 13.1708 18.9462C13.5351 17.8938 14.2179 16.9381 15.2592 16.0249C15.8449 15.5109 16.4863 15.1203 17.1048 14.7426L17.2176 14.6744C17.6205 14.4287 18.149 14.5537 18.3961 14.9542C18.6432 15.3546 18.5175 15.8801 18.1147 16.1258L18.0004 16.1954C17.4176 16.5518 16.8662 16.887 16.392 17.3031C15.5692 18.0245 15.0592 18.7232 14.7907 19.5C14.3493 20.7767 13.4565 21.687 12.1395 22.2068C10.5439 22.8359 9.31259 23.8669 8.47552 25.2743C7.62988 26.6972 7.48418 28.2594 8.07413 29.5631C8.65836 30.854 9.86397 31.7344 11.4681 32.0426C14.8093 32.6845 17.5605 31.6265 19.6474 28.8984C20.683 27.5451 21.9629 26.9301 23.5599 27.0182C25.5669 27.129 27.5153 26.8094 29.3494 26.0681C30.4422 25.6265 31.5321 25.6208 32.5906 26.0511C34.459 26.8094 36.4774 27.1375 38.5901 27.0224C40.1557 26.9387 41.3956 27.5749 42.3869 28.9694C44.3553 31.7359 48.2907 32.9856 51.3447 31.814C52.6232 31.324 53.5688 30.4506 54.0073 29.3557C54.443 28.2693 54.363 27.0026 53.7831 25.7883C52.9789 24.1069 51.6347 22.9055 49.6749 22.1173C48.5135 21.6501 47.745 20.9059 47.3908 19.9062C46.7665 18.1438 45.4795 16.85 43.4568 15.9511C40.0071 14.4188 36.4703 14.3052 32.9449 15.6145C31.5893 16.1187 30.3451 16.1158 29.0323 15.606C26.5797 14.6545 23.9899 14.477 21.1173 15.0664C20.6531 15.1615 20.2002 14.8647 20.1045 14.4032C20.0088 13.9416 20.3074 13.4914 20.7716 13.3963C23.9356 12.7487 26.9239 12.9575 29.6566 14.0183C30.5779 14.3762 31.3821 14.3762 32.3449 14.0183C36.306 12.547 40.2799 12.6734 44.1553 14.3946C46.6308 15.4938 48.2178 17.1113 49.0063 19.3395C49.1949 19.8721 49.612 20.2527 50.3162 20.5367C52.6603 21.4797 54.3473 22.9992 55.3301 25.0556C56.1172 26.7029 56.2129 28.4539 55.5986 29.9863C54.9801 31.5271 53.6888 32.7413 51.9604 33.4031C51.0005 33.7709 49.9705 33.9456 48.9306 33.9456H48.9321Z" fill="#333333"/>
<path d="M34.5404 30.7673H22.8485V36.7205H34.5404V30.7673Z" fill="#FFF5E6"/>
<path d="M24.8184 40.2552C24.0699 40.4611 23.7785 40.3007 23.5557 39.5622C23.5628 39.1589 23.5628 38.7556 23.5785 38.3523C23.5999 37.8254 23.9171 37.5016 24.3899 37.5059C24.8627 37.5101 25.1655 38.2599 25.1784 38.7953C25.1884 39.1816 25.1727 39.1418 25.1812 39.5281C25.1884 39.8377 25.027 40.0564 24.8184 40.2538V40.2552Z" fill="#333333"/>
<path d="M38.5558 39.5622C38.3301 40.3021 38.0401 40.4612 37.2916 40.2552C37.0202 40.0209 36.9073 40.1572 36.9259 39.7965C36.9459 39.4287 36.9159 38.632 36.9373 38.2656C36.963 37.8055 37.283 37.5115 37.7201 37.5073C38.1544 37.503 38.4915 37.7941 38.5243 38.2486C38.5558 38.6846 38.5458 39.1248 38.5543 39.5636L38.5558 39.5622Z" fill="#333333"/>
<path d="M31.0907 41.539C30.195 41.5078 29.4079 41.1982 28.7851 40.5236C28.4395 40.1487 28.4309 39.7142 28.7451 39.3875C29.0637 39.0566 29.4965 39.0524 29.8893 39.3762C30.8064 40.1303 31.3478 40.1303 32.2706 39.3747C32.6648 39.0524 33.0976 39.0581 33.4148 39.3889C33.7276 39.7156 33.7176 40.1516 33.3719 40.5265C32.7634 41.1868 31.992 41.4936 31.0892 41.5376L31.0907 41.539Z" fill="#333333"/>
</g>
</g>
<rect x="0.5" y="0.5" width="61" height="61" rx="30.5" stroke="#616161"/>
<defs>
<clipPath id="clip0_1130_5278">
<rect x="1" y="1" width="60" height="60" rx="30" fill="white"/>
</clipPath>
<clipPath id="clip1_1130_5278">
<rect width="50" height="50" fill="white" transform="translate(6 13)"/>
</clipPath>
</defs>
</svg>
