<svg width="64" height="64" viewBox="0 0 64 64" fill="none" xmlns="http://www.w3.org/2000/svg">
<g clip-path="url(#clip0_1384_9618)">
<mask id="path-1-outside-1_1384_9618" maskUnits="userSpaceOnUse" x="0" y="0" width="64" height="64" fill="black">
<rect fill="white" width="64" height="64"/>
<path d="M2 32C2 15.4315 15.4315 2 32 2C48.5685 2 62 15.4315 62 32C62 48.5685 48.5685 62 32 62C15.4315 62 2 48.5685 2 32Z"/>
</mask>
<path d="M2 32C2 15.4315 15.4315 2 32 2C48.5685 2 62 15.4315 62 32C62 48.5685 48.5685 62 32 62C15.4315 62 2 48.5685 2 32Z" fill="#FFF5E6"/>
<g clip-path="url(#clip1_1384_9618)">
<path d="M46.973 17.6104C47.6377 17.3263 47.8588 17.378 48.3179 17.9532C51.7424 22.2469 53.1881 27.1241 52.6311 32.5891C52.5989 32.904 52.6633 33.1321 52.89 33.3784C54.3455 34.9627 54.6114 37.3264 53.5744 39.2101C52.5261 41.1134 50.4129 42.1658 48.2969 41.8118C48.0296 41.767 47.9078 41.7922 47.7861 42.0553C46.6679 44.468 45.0725 46.5155 42.9984 48.1767C42.6275 48.4733 42.8599 48.5517 43.0768 48.7127C46.2676 51.0778 48.4928 54.1413 49.7342 57.9185C50.8202 61.2213 48.567 64.366 45.0934 64.3688C36.4908 64.3744 27.8895 64.3758 19.2868 64.3688C15.8483 64.366 13.5741 61.2045 14.6503 57.9507C14.989 56.9249 15.4004 55.9298 15.9071 54.9754C16.2583 54.3134 16.4836 54.2183 17.2114 54.4338C17.5808 54.8368 17.5767 55.2511 17.3107 55.7185C16.8195 56.5834 16.4557 57.5057 16.1534 58.4531C15.4312 60.7105 16.9259 62.7887 19.305 62.7915C27.9091 62.7999 36.5132 62.8027 45.1158 62.7957C47.4852 62.7943 48.9658 60.7105 48.2493 58.4405C47.849 57.1726 47.3032 55.9704 46.6119 54.8368C45.3621 52.7894 43.7541 51.0792 41.7487 49.7007C41.6955 49.8322 41.6563 49.9274 41.6185 50.0226C41.0489 51.5004 40.4513 52.9671 39.7068 54.368C39.2982 55.1377 38.8657 55.8976 38.2317 56.5148C37.5516 57.1782 36.8952 57.2831 36.0387 56.8689C35.4328 56.575 34.9499 56.123 34.4867 55.6443C33.9703 55.1111 33.5364 54.5079 33.0718 53.9006C32.9333 54.1007 32.9892 54.277 32.9892 54.4408C32.9836 55.5408 32.9878 56.6394 32.985 57.7394C32.985 58.1816 32.8381 58.5343 32.3553 58.6322C31.8109 58.7428 31.4246 58.3859 31.4176 57.7408C31.405 56.6072 31.4176 55.4722 31.4092 54.3372C31.4092 54.2043 31.5044 54.0251 31.3015 53.93C31.1503 54.1329 31.009 54.3302 30.8592 54.5233C30.1931 55.3798 29.5017 56.2125 28.5487 56.7709C27.6054 57.3237 26.8567 57.216 26.0954 56.4434C25.7259 56.0684 25.4334 55.6345 25.1591 55.1881C24.3096 53.8012 23.6868 52.3079 23.0836 50.8063C22.9395 50.4466 22.7954 50.0884 22.633 49.6811C22.09 50.1163 21.5918 50.4984 21.1132 50.9029C20.433 51.4795 19.8214 52.126 19.2476 52.809C18.8082 53.3296 18.5885 53.38 17.9825 53.1155C17.606 52.5725 17.613 52.3093 18.0231 51.8125C19.0839 50.5306 20.3071 49.4194 21.7149 48.4258C20.8333 47.7148 20.0342 46.9759 19.3134 46.1572C18.2358 44.934 17.3345 43.5933 16.653 42.1127C16.5228 41.83 16.4011 41.7558 16.0722 41.8132C14.0247 42.1644 11.9017 41.1162 10.8563 39.2787C9.81927 37.4551 10.0222 35.104 11.3881 33.5142C11.6358 33.2259 11.7212 32.9712 11.7016 32.5891C11.3447 25.5973 14.1269 20.2288 20.0691 16.5132C20.2861 16.3774 20.44 16.2235 20.5506 15.994C20.9578 15.1375 21.5862 14.4769 22.3783 13.9591C25.0331 12.2209 27.9427 11.1965 31.0957 10.8592C31.1923 10.8494 31.3113 10.8886 31.3616 10.7557H34.817C35.5727 10.8928 36.3326 11.0174 37.0856 11.1699C40.2862 11.8179 43.1286 13.2146 45.6616 15.2676C46.1585 15.6707 46.1179 16.1073 45.9177 16.6083C45.3314 16.9582 44.8891 16.6881 44.4203 16.32C40.6571 13.3573 36.3928 12.032 31.6038 12.4155C28.5892 12.6576 25.8211 13.605 23.2922 15.2536C21.8437 16.1969 21.2741 17.6761 21.7471 19.3359C22.1502 20.7466 22.6792 22.1167 23.4041 23.3931C23.9611 24.3727 24.4048 25.4055 25.5146 26.0255C27.2359 26.9884 29.0287 27.6545 30.9796 27.8043C33.8289 28.024 36.5272 27.509 38.9749 25.9331C40.3296 25.0613 41.841 24.7282 43.4225 25.0249C44.8779 25.2978 45.7806 26.255 46.1249 27.6881C46.4677 29.1156 47.1059 30.3583 48.1667 31.3856C48.4018 31.6137 48.6258 31.7144 48.9476 31.6906C49.5606 31.6473 50.1708 31.7032 50.7474 31.9342C51.0595 32.0587 51.1434 31.9691 51.1546 31.6557C51.2218 29.7859 51.1225 27.933 50.6704 26.1067C50.0057 23.4225 48.7923 21.0167 47.0401 18.8839C46.6847 18.4501 46.6539 18.0526 46.9716 17.609L46.973 17.6104ZM34.712 50.2143C34.7288 50.2157 34.747 50.2213 34.7638 50.2185C42.4022 49.0317 48.1639 41.9433 47.7973 34.1803C47.7693 33.587 47.6013 33.0202 47.1717 32.6129C45.7988 31.3086 44.9675 29.7244 44.5406 27.8938C44.3559 27.1031 43.7247 26.6371 42.9228 26.5545C41.8102 26.4398 40.7718 26.6665 39.8216 27.2585C38.9917 27.7749 38.1352 28.2381 37.2129 28.5642C33.7926 29.7733 30.3792 29.7188 26.9742 28.5026C26.1415 28.1471 25.3368 27.7371 24.5685 27.2529C23.6378 26.6665 22.6148 26.451 21.519 26.5503C20.4708 26.6455 19.8872 27.1073 19.6423 28.1303C19.2518 29.7621 18.5045 31.1896 17.3093 32.375C16.8685 32.813 16.646 33.356 16.611 33.9662C16.5536 34.9781 16.5858 35.9899 16.7356 36.9919C17.3317 40.9679 19.1637 44.2749 22.2607 46.8261C25.8868 49.8113 30.0531 50.9476 34.7092 50.2157L34.712 50.2143ZM13.2466 30.7558C13.2466 31.0693 13.2508 31.3842 13.2466 31.6976C13.2424 31.951 13.3194 32.0587 13.5895 31.9496C14.1997 31.7046 14.8406 31.6543 15.49 31.6836C15.6663 31.692 15.8091 31.6641 15.956 31.5213C17.1022 30.4073 17.8286 29.0792 18.1784 27.5146C18.3576 26.7169 18.8292 26.0675 19.5177 25.5819C20.2693 25.0529 21.1328 24.9647 22.0004 24.9101C22.3825 24.8863 22.3601 24.759 22.202 24.5085C21.8017 23.8717 21.4938 23.1873 21.2097 22.4932C20.7283 21.319 20.1993 20.1532 20.0565 18.8741C20.0104 18.4557 19.8802 18.492 19.6241 18.6852C18.6487 19.4199 17.725 20.2064 16.9315 21.1469C14.5887 23.9277 13.3656 27.1269 13.2452 30.7544L13.2466 30.7558ZM15.0436 34.6492C15.0436 34.3357 14.9876 34.0096 15.0562 33.7129C15.1639 33.2469 14.9666 33.2287 14.6111 33.3015C12.8142 33.6681 11.5826 35.3685 11.7954 37.1948C12.0067 39.0086 13.6077 40.3521 15.4592 40.2975C15.8399 40.2863 15.8749 40.1842 15.7685 39.8427C15.2381 38.1535 14.989 36.4209 15.0436 34.6492ZM49.3381 34.9934C49.3955 35.8681 49.2891 36.7316 49.159 37.5923C49.0414 38.3662 48.8721 39.1331 48.623 39.8749C48.5138 40.1982 48.56 40.2877 48.9141 40.3003C50.4269 40.3563 51.8138 39.483 52.3792 38.0821C53.2021 36.0473 51.9272 33.7101 49.7747 33.2903C49.3703 33.2119 49.2177 33.2651 49.3199 33.7437C49.4053 34.1426 49.3367 34.575 49.3367 34.992L49.3381 34.9934ZM24.6553 50.3277C25.2683 51.9805 25.9162 53.6011 26.9434 55.0342C27.3759 55.6373 27.527 55.6541 28.1022 55.1853C29.0861 54.3848 29.7942 53.3492 30.5121 52.3219C30.7571 51.9721 30.6437 51.9091 30.2798 51.8951C29.9342 51.8811 29.5899 51.8111 29.247 51.7523C27.6642 51.4809 26.1527 50.9798 24.6539 50.3291L24.6553 50.3277ZM39.7922 50.3711C39.7054 50.3487 39.6704 50.3263 39.6452 50.3347C39.5627 50.3613 39.4829 50.3948 39.4045 50.4312C37.7979 51.1772 36.1101 51.6376 34.3593 51.8797C33.6666 51.9749 33.6596 51.9819 34.0529 52.5529C34.7456 53.5577 35.4607 54.5443 36.4432 55.3001C36.7721 55.5534 37.0436 55.587 37.3207 55.2175C38.4263 53.7452 39.0868 52.0546 39.7908 50.3711H39.7922Z" fill="#333333"/>
<path d="M46.973 17.6104C46.6539 18.054 46.6847 18.4515 47.0416 18.8853C48.7923 21.0181 50.0057 23.4239 50.6719 26.1081C51.1239 27.9344 51.2233 29.7873 51.1561 31.6571C51.1449 31.9705 51.0609 32.0601 50.7488 31.9356C50.1736 31.7046 49.5635 31.6487 48.9491 31.692C48.6272 31.7144 48.4033 31.6151 48.1682 31.387C47.1074 30.3583 46.4692 29.117 46.1263 27.6895C45.782 26.2564 44.878 25.2992 43.4239 25.0263C41.8425 24.7296 40.331 25.0627 38.9763 25.9345C36.5272 27.509 33.8304 28.0254 30.981 27.8057C29.0301 27.6545 27.236 26.9898 25.516 26.0269C24.4076 25.4069 23.9626 24.3741 23.4056 23.3945C22.6806 22.1181 22.1516 20.748 21.7486 19.3373C21.2741 17.6775 21.8451 16.1983 23.2936 15.255C25.8239 13.6064 28.5907 12.659 31.6052 12.4169C36.3943 12.0334 40.6585 13.3587 44.4217 16.3214C44.8906 16.6909 45.3328 16.961 45.9192 16.6097C46.3362 16.8742 46.6315 17.2689 46.9744 17.6118L46.973 17.6104Z" fill="white"/>
<path d="M17.9811 53.1169C18.5871 53.3814 18.8068 53.331 19.2463 52.8104C19.8215 52.1288 20.4317 51.4809 21.1118 50.9043C21.5904 50.4998 22.0887 50.1177 22.6317 49.6825C22.794 50.0898 22.9381 50.448 23.0823 50.8077C23.6869 52.3107 24.3082 53.804 25.1577 55.1895C25.432 55.6359 25.7231 56.0698 26.094 56.4448C26.8553 57.2174 27.604 57.3251 28.5473 56.7723C29.5004 56.2139 30.1917 55.3798 30.8579 54.5247C31.0076 54.333 31.1504 54.1343 31.3001 53.9314C31.5016 54.0251 31.4065 54.2057 31.4079 54.3386C31.4163 55.4736 31.4037 56.6072 31.4163 57.7422C31.4233 58.3873 31.8109 58.7428 32.3539 58.6336C32.8367 58.5357 32.9837 58.183 32.9837 57.7408C32.9865 56.6408 32.9823 55.5422 32.9879 54.4422C32.9879 54.2784 32.9333 54.1021 33.0705 53.902C33.5351 54.5093 33.9689 55.1125 34.4853 55.6457C34.9486 56.1244 35.4314 56.5764 36.0374 56.8703C36.8939 57.2845 37.5502 57.1796 38.2304 56.5162C38.863 55.899 39.2968 55.1405 39.7054 54.3694C40.4486 52.9685 41.0462 51.5018 41.6172 50.024C41.6535 49.9288 41.6941 49.8336 41.7473 49.7021C43.7528 51.0806 45.3608 52.7908 46.6105 54.8382C47.3019 55.9718 47.8477 57.1726 48.2479 58.4419C48.9645 60.7119 47.4838 62.7943 45.1145 62.7971C36.5104 62.8041 27.9063 62.8013 19.3037 62.7929C16.9245 62.7901 15.4313 60.7119 16.152 58.4545C16.4543 57.5071 16.8196 56.5848 17.3094 55.7199C17.5753 55.2525 17.5781 54.8368 17.21 54.4352C17.2828 53.8894 17.7278 53.5591 17.9797 53.1183L17.9811 53.1169Z" fill="#FF8120"/>
<path d="M13.2466 30.7558C13.3669 27.1283 14.5901 23.9277 16.9328 21.1483C17.7264 20.2064 18.65 19.4213 19.6255 18.6866C19.8816 18.4934 20.0103 18.4571 20.0579 18.8755C20.1993 20.1546 20.7297 21.319 21.2111 22.4946C21.4952 23.1873 21.8031 23.8717 22.2033 24.5099C22.3615 24.7618 22.3825 24.8877 22.0018 24.9115C21.1341 24.9661 20.2706 25.0543 19.5191 25.5833C18.8292 26.0689 18.3575 26.7169 18.1798 27.516C17.8299 29.0806 17.1036 30.4087 15.9574 31.5227C15.8104 31.6655 15.6663 31.6934 15.4914 31.685C14.8406 31.6557 14.201 31.706 13.5909 31.9509C13.3208 32.0601 13.2438 31.9509 13.248 31.699C13.2536 31.3856 13.248 31.0707 13.248 30.7572L13.2466 30.7558Z" fill="white"/>
<path d="M15.0436 34.6492C14.9876 36.4209 15.2367 38.1535 15.7685 39.8427C15.8763 40.1842 15.8399 40.2863 15.4592 40.2975C13.6091 40.3521 12.0081 39.0086 11.7953 37.1948C11.5826 35.3685 12.8142 33.6695 14.6111 33.3015C14.9666 33.2287 15.1639 33.2455 15.0562 33.7129C14.9876 34.0096 15.0436 34.3371 15.0436 34.6492Z" fill="white"/>
<path d="M49.3381 34.9934C49.3381 34.5764 49.4053 34.144 49.3213 33.7451C49.2191 33.2665 49.3717 33.2133 49.7761 33.2917C51.9285 33.7115 53.2021 36.0487 52.3806 38.0835C51.8152 39.4844 50.4283 40.3577 48.9154 40.3017C48.5614 40.2891 48.5152 40.1982 48.6243 39.8763C48.8735 39.1345 49.0428 38.3676 49.1604 37.5937C49.2905 36.733 49.3969 35.8681 49.3395 34.9948L49.3381 34.9934Z" fill="white"/>
<path d="M24.6553 50.3277C26.1527 50.9784 27.6642 51.4794 29.2484 51.7509C29.5913 51.8097 29.9356 51.8797 30.2812 51.8937C30.6451 51.9077 30.7585 51.9707 30.5135 52.3205C29.7956 53.3492 29.0875 54.3834 28.1036 55.1839C27.527 55.6527 27.3773 55.6359 26.9448 55.0328C25.9176 53.5997 25.2697 51.9791 24.6567 50.3263L24.6553 50.3277Z" fill="#FF8120"/>
<path d="M39.7922 50.371C39.0882 52.0546 38.4277 53.7452 37.3221 55.2175C37.045 55.587 36.7735 55.5534 36.4446 55.3001C35.4622 54.5443 34.747 53.5577 34.0543 52.5529C33.6596 51.9805 33.6666 51.9749 34.3608 51.8797C36.1115 51.6376 37.7993 51.1772 39.4059 50.4312C39.4843 50.3948 39.5641 50.3613 39.6466 50.3347C39.6718 50.3263 39.7082 50.3487 39.7936 50.371H39.7922Z" fill="#FF8120"/>
<path d="M47.7413 34.1789C47.7133 33.5856 47.5454 33.0188 47.1157 32.6115C45.7428 31.3072 44.9115 29.723 44.4847 27.8924C44.2999 27.1017 43.6688 26.6357 42.8669 26.5531C41.7543 26.4384 40.7158 26.6651 39.7656 27.2571C38.9357 27.7735 38.0792 28.2367 37.1569 28.5628C33.7366 29.7719 30.3232 29.7174 26.9183 28.5012C26.0856 28.1457 25.2809 27.7357 24.5125 27.2515C23.5819 26.6651 22.5588 26.4496 21.463 26.5489C20.4148 26.6441 19.8312 27.1059 19.5863 28.1289C19.1959 29.7607 18.4485 31.1882 17.2534 32.3736C16.8125 32.8116 16.59 33.3546 16.555 33.9648C16.4977 34.9766 16.5298 35.9885 16.6796 36.9905C17.2758 40.9665 19.1077 44.2735 22.2048 46.8247C25.8309 49.8099 29.9971 50.9462 34.6533 50.2143C34.67 50.2157 34.6882 50.2213 34.705 50.2185C42.3435 49.0317 48.1052 41.9433 47.7385 34.1803L47.7413 34.1789Z" fill="white"/>
<path d="M32.1537 43.34C31.2762 43.3092 30.5051 43.0041 29.895 42.3394C29.5563 41.9699 29.5479 41.5417 29.8558 41.2198C30.1679 40.8937 30.5919 40.8895 30.9768 41.2086C31.8752 41.9517 32.4056 41.9517 33.3097 41.2072C33.696 40.8895 34.12 40.8951 34.4307 41.2212C34.7372 41.5431 34.7274 41.9727 34.3887 42.3422C33.7925 42.9929 33.0368 43.2952 32.1523 43.3386L32.1537 43.34Z" fill="#333333"/>
<path d="M26.0324 42.4793C25.2991 42.6822 25.0136 42.5241 24.7953 41.7964C24.8023 41.3989 24.8023 41.0015 24.8177 40.604C24.8387 40.0848 25.1494 39.7657 25.6126 39.7699C26.0758 39.7741 26.3725 40.0932 26.3851 40.6208C26.3949 41.0015 26.3795 41.3821 26.3879 41.7628C26.3949 42.0679 26.2368 42.2834 26.0324 42.4779V42.4793Z" fill="#333333"/>
<path d="M39.4913 41.795C39.2702 42.5241 38.9861 42.6809 38.2528 42.4779C37.9869 42.247 37.8763 41.9615 37.8945 41.606C37.9141 41.2436 37.8847 40.8783 37.9057 40.5172C37.9309 40.0638 38.2444 39.7741 38.6726 39.7699C39.0981 39.7657 39.4283 40.0526 39.4605 40.5004C39.4913 40.9301 39.4815 41.3639 39.4899 41.7964L39.4913 41.795Z" fill="#333333"/>
<path d="M38.6488 33.7409C38.6418 34.1496 38.2947 34.3721 37.8356 34.2895C36.2668 34.0082 34.684 33.8417 33.0802 33.7983C31.0117 33.7423 28.9713 33.934 26.9462 34.2783C26.4956 34.3553 26.1765 34.2055 26.1037 33.8948C26.0267 33.5688 26.2325 33.3309 26.6803 33.2483C30.4589 32.5443 34.2376 32.5443 38.019 33.2343C38.3898 33.3015 38.6306 33.4442 38.6474 33.7395L38.6488 33.7409Z" fill="#333333"/>
</g>
</g>
<path d="M32 60C16.536 60 4 47.464 4 32H0C0 49.6731 14.3269 64 32 64V60ZM60 32C60 47.464 47.464 60 32 60V64C49.6731 64 64 49.6731 64 32H60ZM32 4C47.464 4 60 16.536 60 32H64C64 14.3269 49.6731 0 32 0V4ZM32 0C14.3269 0 0 14.3269 0 32H4C4 16.536 16.536 4 32 4V0Z" fill="#EE6002" mask="url(#path-1-outside-1_1384_9618)"/>
<defs>
<clipPath id="clip0_1384_9618">
<path d="M2 32C2 15.4315 15.4315 2 32 2C48.5685 2 62 15.4315 62 32C62 48.5685 48.5685 62 32 62C15.4315 62 2 48.5685 2 32Z" fill="white"/>
</clipPath>
<clipPath id="clip1_1384_9618">
<rect width="44" height="53.6187" fill="white" transform="translate(10.2 10.7557)"/>
</clipPath>
</defs>
</svg>
