<svg width="64" height="64" viewBox="0 0 64 64" fill="none" xmlns="http://www.w3.org/2000/svg">
<g clip-path="url(#clip0_1130_5281)">
<mask id="path-1-outside-1_1130_5281" maskUnits="userSpaceOnUse" x="0" y="0" width="64" height="64" fill="black">
<rect fill="white" width="64" height="64"/>
<path d="M2 32C2 15.4315 15.4315 2 32 2C48.5685 2 62 15.4315 62 32C62 48.5685 48.5685 62 32 62C15.4315 62 2 48.5685 2 32Z"/>
</mask>
<path d="M2 32C2 15.4315 15.4315 2 32 2C48.5685 2 62 15.4315 62 32C62 48.5685 48.5685 62 32 62C15.4315 62 2 48.5685 2 32Z" fill="#FFF5E6"/>
<g clip-path="url(#clip1_1130_5281)">
<path d="M47.1619 33.8849C47.0742 33.5367 46.9362 33.3625 46.5908 33.2622C41.779 31.8733 36.8752 31.1294 31.6148 31.1419C26.8991 31.1182 22.0469 31.8482 17.2922 33.2594C16.9509 33.3611 16.7601 33.5004 16.6667 33.8905C16.1778 35.9453 16.0747 38.0141 16.4216 40.0912C17.8899 48.8581 26.0187 54.6033 34.7423 53.0597C43.5761 51.4966 49.3421 42.5835 47.1605 33.8835L47.1619 33.8849Z" fill="white"/>
<path d="M38.168 36.4747C38.1611 37.0738 37.8156 37.3984 37.3586 37.2772C35.7969 36.8662 34.2213 36.6224 32.6248 36.5597C30.5658 36.4789 28.5347 36.7589 26.5188 37.2632C26.0703 37.3747 25.7526 37.156 25.6802 36.7032C25.6036 36.2254 25.8083 35.8785 26.2541 35.7559C30.0155 34.725 33.7769 34.725 37.5411 35.735C37.9103 35.8339 38.1499 36.0429 38.1666 36.4747H38.168Z" fill="#333333"/>
<path d="M31.7542 31.8148C33.4482 31.8454 34.9416 32.1881 36.4225 32.6311C36.8112 32.7468 36.9797 33.1076 36.9031 33.5603C36.8279 34.0006 36.5493 34.2263 36.1481 34.1329C35.0614 33.8794 33.9846 33.5743 32.8798 33.4461C31.2415 33.2553 29.6562 33.63 28.0694 34.0396C27.9343 34.0744 27.7991 34.1176 27.6626 34.1413C27.2976 34.2012 27.0065 33.9699 26.9326 33.5701C26.8532 33.1354 27.0315 32.7468 27.4105 32.6325C28.4595 32.3205 29.5155 32.0488 30.5895 31.9179C31.0298 31.8649 31.4728 31.8385 31.7514 31.8134L31.7542 31.8148Z" fill="#333333"/>
<path d="M18.4722 64.3091C18.3691 64.1266 18.1657 64.1739 18.0125 64.1322C14.8264 63.2656 13.1324 59.9821 14.2915 56.8838C15.3042 54.1742 16.8757 51.8296 18.9821 49.8528C19.2844 49.57 19.3429 49.4265 19.0378 49.0921C17.5722 47.4873 16.4703 45.6525 15.7431 43.6033C15.6135 43.2383 15.4352 43.1213 15.0479 43.0892C12.8691 42.9123 11.2991 41.8089 10.4256 39.8112C9.56881 37.8553 9.81121 35.9857 11.0915 34.2694C11.2545 34.0507 11.2949 33.9616 11.0511 33.754C9.26093 32.2271 9.69001 29.5579 11.9162 28.7889C12.8747 28.4574 13.1811 27.9893 13.3149 27.0058C13.8401 23.1566 15.484 19.802 18.1281 16.9489C18.709 16.322 18.8497 16.2983 19.6076 16.6647C19.8541 17.2205 19.6549 17.6259 19.2565 18.0522C16.859 20.6253 15.4171 23.6748 14.8473 27.1395C14.7944 27.4655 14.7442 27.7148 15.2625 27.5421C19.4432 26.1434 23.7326 25.2894 28.1348 24.9774C32.7516 24.65 37.3279 24.9231 41.8709 25.7854C44.157 26.2186 46.404 26.8052 48.6066 27.5546C48.9827 27.6828 49.0788 27.595 49.0078 27.2287C48.9242 26.8038 48.8657 26.3719 48.7654 25.9512C45.9583 14.1181 32.5844 8.74626 22.4049 15.3747C21.9368 15.6798 21.5259 15.7397 21.0717 15.4109C20.8307 14.6614 20.8948 14.4859 21.5705 14.0359C32.6401 6.67052 47.839 13.0356 50.3814 26.1072C50.504 26.7369 50.5945 27.3735 50.6628 28.0102C50.6879 28.2401 50.7714 28.339 50.9762 28.4086C51.3524 28.5354 51.7285 28.6705 52.0907 28.8335C54.1428 29.7558 54.5147 32.2843 52.8068 33.7428C52.6006 33.9184 52.5296 34.0006 52.7232 34.2555C54.048 35.9969 54.2807 37.9041 53.3766 39.8851C52.4822 41.8424 50.908 42.9234 48.7514 43.0976C48.4101 43.1254 48.2443 43.2118 48.1245 43.5489C47.3792 45.6275 46.2647 47.4942 44.7741 49.1256C44.5178 49.4056 44.5094 49.5407 44.802 49.8124C46.8666 51.7307 48.3669 54.0265 49.455 56.6275C51.0361 60.4056 48.2708 63.958 45.2143 64.2325C45.1934 64.2338 45.1767 64.2826 45.1586 64.3091H36.2984C36.0296 64.0973 35.8289 63.8396 35.7621 63.4941C35.9223 62.9201 36.2984 62.6986 36.8905 62.7335C37.4617 62.7669 38.0356 62.7265 38.6082 62.746C38.898 62.7558 39.0038 62.6722 38.9969 62.3685C38.9774 61.5883 38.9718 60.8068 38.9997 60.0267C39.0122 59.6589 38.8631 59.6045 38.5455 59.6059C34.1377 59.6157 29.7299 59.6213 25.3221 59.6059C24.9097 59.6059 24.8317 59.7425 24.8471 60.1116C24.8749 60.7873 24.8819 61.4657 24.8457 62.1414C24.8206 62.5997 24.932 62.7544 25.4294 62.7488C28.015 62.7223 30.6006 62.746 33.1862 62.7335C33.7546 62.7307 34.1238 62.9215 34.2436 63.4997C34.2129 63.8716 33.9831 64.1099 33.6961 64.3077H18.4722V64.3091ZM30.3888 58.0234C33.1138 58.0248 35.8373 58.0234 38.5622 58.0345C38.859 58.0345 38.9913 57.9913 38.9857 57.6444C38.9648 56.36 38.9676 55.0755 38.9829 53.7925C38.9871 53.4331 38.8785 53.4442 38.5984 53.5612C35.7899 54.737 32.8686 55.1341 29.8455 54.8011C28.2351 54.4877 26.6261 54.1631 25.1201 53.4735C24.8916 53.369 24.8192 53.4735 24.8206 53.7061C24.8275 55.0602 24.8275 56.4143 24.8206 57.7684C24.8206 58.0025 24.9195 58.0638 25.134 58.061C26.8852 58.0443 28.6377 58.0345 30.3888 58.022V58.0234ZM31.6148 31.1419C26.8991 31.1182 22.0469 31.8468 17.2922 33.2594C16.9509 33.3611 16.76 33.5004 16.6667 33.8905C16.1777 35.9453 16.0746 38.0141 16.4215 40.0912C17.8899 48.8581 26.0187 54.6033 34.7423 53.0597C43.576 51.4966 49.3421 42.5835 47.1605 33.8835C47.0727 33.5353 46.9348 33.3611 46.5893 33.2608C41.7775 31.8719 36.8738 31.128 31.6134 31.1405L31.6148 31.1419ZM50.6586 32.9223C51.4986 32.9293 52.1409 32.4096 52.2941 31.6838C52.4279 31.0527 52.0768 30.508 51.3343 30.2183C50.8341 30.0232 50.327 29.8435 49.8241 29.6541C45.0151 27.8458 40.0417 26.7968 34.9178 26.5042C31.3933 26.3036 27.8785 26.4666 24.3776 26.9821C20.2554 27.5895 16.2892 28.743 12.4177 30.2517C11.8967 30.4551 11.5498 30.8298 11.5136 31.4163C11.4802 31.9583 11.8702 32.5239 12.401 32.7802C12.9596 33.0491 13.4848 32.8777 14.0114 32.6869C20.9101 30.1848 28.022 29.2111 35.3414 29.6777C40.3245 29.9954 45.1628 30.9956 49.8548 32.7022C50.1473 32.8081 50.4413 32.9195 50.6572 32.9237L50.6586 32.9223ZM20.1565 50.8614C18.0055 52.9051 16.494 55.1912 15.5968 57.8715C15.4547 58.295 15.4171 58.7506 15.4784 59.2089C15.7668 61.3877 17.3716 62.7516 19.6271 62.7711C20.0589 62.7753 20.169 62.6694 20.1676 62.2333C20.1481 58.6419 20.1565 55.0505 20.1565 51.459V50.8614ZM43.7042 50.9338V53.2255C43.7042 56.2458 43.7014 59.266 43.7112 62.2863C43.7112 62.4479 43.5523 62.714 43.9341 62.7404C47.01 62.9536 48.9938 60.2412 48.1371 57.6821C47.272 55.0964 45.766 52.887 43.7028 50.9352L43.7042 50.9338ZM15.0187 34.0173C14.3667 34.2081 13.7983 34.4798 13.1602 34.5021C13.0558 34.5063 12.9387 34.5954 12.8524 34.6734C11.6724 35.7545 11.2419 37.0779 11.6668 38.6257C12.0889 40.1623 13.1059 41.111 14.6676 41.4704C15.0145 41.5498 15.0855 41.4342 15.0145 41.1054C14.5018 38.7692 14.5283 36.4288 15.0187 34.0173ZM48.8197 34.027C49.3101 36.4385 49.3435 38.7775 48.8281 41.1124C48.7459 41.483 48.888 41.5331 49.1931 41.4607C50.7492 41.0887 51.762 40.133 52.1673 38.5923C52.5686 37.0654 52.1478 35.7545 50.9846 34.686C50.8982 34.6066 50.784 34.5104 50.6809 34.5063C50.0456 34.4826 49.4731 34.2235 48.8197 34.0256V34.027ZM21.707 51.5774V52.1681C21.707 55.311 21.707 58.4538 21.707 61.5953C21.707 62.7962 21.707 62.7878 22.9218 62.7502C23.1851 62.7418 23.2826 62.6819 23.2812 62.4005C23.2728 59.2228 23.2742 56.0465 23.2784 52.8689C23.2784 52.6808 23.2394 52.5457 23.0639 52.4398C22.6348 52.182 22.2169 51.902 21.707 51.576V51.5774ZM42.1272 51.5733C41.6884 51.8575 41.3401 52.1124 40.9626 52.3158C40.6491 52.4858 40.546 52.6989 40.5474 53.0569C40.5627 55.9044 40.5558 58.7506 40.5558 61.5981C40.5558 62.8017 40.5558 62.7934 41.7747 62.7516C42.0408 62.7418 42.1314 62.675 42.1314 62.3977C42.123 58.8216 42.1258 55.2469 42.1258 51.5733H42.1272Z" fill="#333333"/>
<path d="M21.0717 15.4109C21.5259 15.7397 21.9369 15.6798 22.4049 15.3747C32.5844 8.74626 45.9583 14.1181 48.7612 25.954C48.8615 26.3761 48.92 26.8065 49.0036 27.2314C49.0747 27.5978 48.9785 27.6856 48.6024 27.5574C46.3999 26.8065 44.1528 26.2214 41.8667 25.7882C37.3238 24.9258 32.7474 24.6528 28.1306 24.9802C23.7298 25.2922 19.439 26.1462 15.2583 27.5449C14.7401 27.719 14.7902 27.4683 14.8431 27.1423C15.4129 23.6776 16.8548 20.6281 19.2523 18.055C19.6508 17.6273 19.85 17.2233 19.6034 16.6675C19.999 16.1395 20.4936 15.7285 21.0703 15.4109H21.0717Z" fill="white"/>
<path d="M50.6587 32.9223C50.4427 32.9167 50.1488 32.8067 49.8562 32.7008C45.1642 30.9942 40.3274 29.994 35.3428 29.6764C28.0234 29.2097 20.9116 30.1834 14.0129 32.6855C13.4863 32.8763 12.9611 33.0477 12.4025 32.7788C11.8717 32.5239 11.4816 31.9569 11.5151 31.415C11.5513 30.8285 11.8968 30.4537 12.4192 30.2503C16.2906 28.7416 20.2568 27.5881 24.379 26.9807C27.8799 26.4652 31.3947 26.3022 34.9193 26.5028C40.0432 26.7954 45.0166 27.8444 49.8256 29.6527C50.3285 29.8421 50.8356 30.0218 51.3357 30.2169C52.0783 30.5066 52.4293 31.0514 52.2956 31.6824C52.1409 32.4096 51.5001 32.9279 50.6601 32.9209L50.6587 32.9223Z" fill="white"/>
<path d="M35.7607 63.4941C35.2536 63.4955 34.7466 63.4983 34.2395 63.4997C34.1197 62.9215 33.7505 62.7307 33.1821 62.7335C30.5965 62.746 28.0109 62.7223 25.4253 62.7488C24.9279 62.7544 24.8165 62.5983 24.8415 62.1414C24.8778 61.4671 24.8708 60.7873 24.8429 60.1116C24.8276 59.7425 24.907 59.6045 25.318 59.6059C29.7258 59.6199 34.1336 59.6157 38.5414 59.6059C38.859 59.6059 39.0095 59.6603 38.9955 60.0267C38.9677 60.8068 38.9746 61.5883 38.9928 62.3685C38.9997 62.6722 38.8938 62.7558 38.6041 62.746C38.0315 62.7265 37.4575 62.7669 36.8864 62.7335C36.2957 62.6986 35.9196 62.9215 35.758 63.4941H35.7607Z" fill="#FF8120"/>
<path d="M20.1565 50.8614V51.459C20.1565 55.0505 20.1481 58.6419 20.1676 62.2333C20.1704 62.6694 20.0589 62.7739 19.6271 62.7711C17.3716 62.7516 15.7668 61.3863 15.4784 59.2089C15.4171 58.7506 15.4547 58.295 15.5968 57.8715C16.494 55.1926 18.0055 52.9051 20.1565 50.8614Z" fill="#FF8120"/>
<path d="M43.7042 50.9338C45.7674 52.887 47.272 55.095 48.1385 57.6807C48.9952 60.2398 47.0115 62.9522 43.9355 62.739C43.5538 62.7126 43.7126 62.4465 43.7126 62.2849C43.7028 59.2646 43.7056 56.2444 43.7056 53.2241V50.9324L43.7042 50.9338Z" fill="#FF8120"/>
<path d="M38.9844 53.7911C38.9886 53.4317 38.8799 53.4428 38.5999 53.5598C35.7914 54.7356 32.87 55.1327 29.847 54.7997C28.2366 54.4863 26.6275 54.1617 25.1216 53.4721C24.8931 53.3676 24.8206 53.4721 24.822 53.7047C24.829 55.0588 24.829 56.4129 24.822 57.767C24.822 58.0011 24.921 58.0624 25.1355 58.0596C26.8866 58.0429 28.6392 58.0331 30.3903 58.0206C33.1152 58.022 35.8402 58.0206 38.5637 58.0317C38.8604 58.0317 38.9928 57.9885 38.9872 57.6417C38.9663 56.3572 38.9691 55.0728 38.9844 53.7897V53.7911Z" fill="#FF8120"/>
<path d="M15.0187 34.0173C14.5284 36.4274 14.5019 38.7678 15.0146 41.1054C15.087 41.4342 15.0146 41.5498 14.6677 41.4704C13.106 41.111 12.089 40.1637 11.6669 38.6257C11.242 37.0779 11.6725 35.7545 12.8525 34.6734C12.9374 34.5954 13.0545 34.5049 13.1603 34.5021C13.797 34.4812 14.3668 34.2095 15.0187 34.0173Z" fill="white"/>
<path d="M48.8198 34.027C49.4732 34.2249 50.0457 34.484 50.681 34.5077C50.7855 34.5118 50.8997 34.608 50.9847 34.6874C52.1479 35.7559 52.5701 37.0668 52.1674 38.5937C51.762 40.1344 50.7479 41.0901 49.1932 41.4621C48.8867 41.5345 48.746 41.4844 48.8282 41.1138C49.3436 38.7789 49.3102 36.4385 48.8198 34.0284V34.027Z" fill="white"/>
<path d="M21.707 51.5774C22.2169 51.9048 22.6348 52.1834 23.0639 52.4412C23.2395 52.547 23.2785 52.6822 23.2785 52.8702C23.2743 56.0479 23.2729 59.2256 23.2812 62.4019C23.2812 62.6833 23.1851 62.7432 22.9218 62.7516C21.707 62.7892 21.707 62.7976 21.707 61.5967C21.707 58.4538 21.707 55.311 21.707 52.1695V51.5788V51.5774Z" fill="#FF8120"/>
<path d="M42.1272 51.5733C42.1272 55.2455 42.1244 58.8216 42.1328 62.3977C42.1328 62.675 42.0423 62.7418 41.7762 62.7516C40.5572 62.7934 40.5572 62.8017 40.5572 61.5981C40.5572 58.7506 40.5642 55.9044 40.5488 53.0569C40.5474 52.6989 40.6491 52.4857 40.964 52.3158C41.3401 52.1124 41.6884 51.8575 42.1286 51.5733H42.1272Z" fill="#FF8120"/>
<path d="M35.4779 49.6257C34.5209 49.5686 33.7073 49.4975 32.9216 49.2621C32.3337 49.0852 31.7723 49.1562 31.1844 49.2941C29.0571 49.7957 26.9577 49.7887 24.9363 48.8233C24.51 48.6199 24.1812 48.3287 24.0934 47.8383C23.9778 47.2003 24.23 46.6361 24.8457 46.3979C26.0215 45.9451 26.973 45.2276 27.8214 44.297C28.9498 43.0586 30.4697 42.7437 32.0815 42.7242C34.0653 42.7005 35.7621 43.3107 37.0229 44.9072C37.5983 45.6358 38.4202 45.966 39.2338 46.3087C39.7158 46.5107 40.0557 46.8228 40.1504 47.348C40.2577 47.9414 39.993 48.4388 39.4065 48.7564C38.1346 49.4446 36.754 49.6299 35.4765 49.6243L35.4779 49.6257ZM26.0786 47.536C26.2973 47.7297 26.4631 47.7561 26.6247 47.7993C28.0875 48.181 29.5475 48.1058 30.9935 47.7366C31.7556 47.543 32.4897 47.5305 33.2448 47.7408C34.0319 47.9595 34.8441 48.0501 35.6618 48.0473C36.4879 48.0431 37.3071 47.9693 38.09 47.6322C38.0009 47.4176 37.81 47.4037 37.6637 47.3271C37.0299 46.9983 36.403 46.6514 35.9669 46.0677C34.6727 44.3374 32.8812 44.1132 30.9294 44.3876C30.1186 44.5018 29.39 44.8362 28.8426 45.4561C28.0791 46.3212 27.2669 47.1125 26.0772 47.536H26.0786Z" fill="#333333"/>
<path d="M38.3366 38.804C39.4984 38.8068 40.4736 39.7095 40.5572 40.863C40.592 41.352 40.3008 41.7477 39.8592 41.8089C39.4455 41.8675 39.0721 41.5791 38.9955 41.1012C38.93 40.6972 38.7768 40.3852 38.324 40.3894C37.8713 40.3935 37.7278 40.714 37.6637 41.1138C37.5885 41.5874 37.2054 41.8716 36.7888 41.8048C36.3458 41.7351 36.0644 41.3423 36.1048 40.8491C36.1995 39.6928 37.1719 38.8012 38.338 38.804H38.3366Z" fill="#333333"/>
<path d="M27.7322 40.8867C27.7378 41.3994 27.4299 41.7685 27.005 41.8131C26.5899 41.8563 26.2514 41.5735 26.1636 41.0762C26.0967 40.6959 25.9449 40.3977 25.52 40.3908C25.0686 40.3824 24.9028 40.6833 24.8388 41.0901C24.7621 41.5749 24.4013 41.8619 23.9848 41.8117C23.539 41.7574 23.2464 41.3729 23.2743 40.877C23.3328 39.8433 24.1993 38.9252 25.2205 38.8152C26.335 38.6953 27.3673 39.3808 27.6431 40.4298C27.6877 40.5969 27.7086 40.7697 27.7322 40.8881V40.8867Z" fill="#333333"/>
<path d="M26.1134 47.5416C27.3031 47.1167 28.1139 46.3268 28.8787 45.4617C29.4262 44.8417 30.1534 44.5074 30.9656 44.3932C32.9187 44.1187 34.7103 44.343 36.0031 46.0733C36.4391 46.657 37.066 47.0039 37.6999 47.3326C37.8462 47.4079 38.0356 47.4232 38.1262 47.6377C37.3433 47.9749 36.5241 48.0501 35.698 48.0529C34.8802 48.057 34.0695 47.9665 33.281 47.7464C32.5245 47.536 31.7903 47.5472 31.0297 47.7422C29.5836 48.1114 28.1223 48.1866 26.6609 47.8049C26.4993 47.7631 26.3321 47.7352 26.1148 47.5416H26.1134Z" fill="#BDBDBD"/>
</g>
</g>
<path d="M32 60C16.536 60 4 47.464 4 32H0C0 49.6731 14.3269 64 32 64V60ZM60 32C60 47.464 47.464 60 32 60V64C49.6731 64 64 49.6731 64 32H60ZM32 4C47.464 4 60 16.536 60 32H64C64 14.3269 49.6731 0 32 0V4ZM32 0C14.3269 0 0 14.3269 0 32H4C4 16.536 16.536 4 32 4V0Z" fill="#EE6002" mask="url(#path-1-outside-1_1130_5281)"/>
<defs>
<clipPath id="clip0_1130_5281">
<path d="M2 32C2 15.4315 15.4315 2 32 2C48.5685 2 62 15.4315 62 32C62 48.5685 48.5685 62 32 62C15.4315 62 2 48.5685 2 32Z" fill="white"/>
</clipPath>
<clipPath id="clip1_1130_5281">
<rect width="44" height="53.3882" fill="white" transform="translate(9.91992 10.9209)"/>
</clipPath>
</defs>
</svg>
