<svg width="60" height="60" viewBox="0 0 60 60" fill="none" xmlns="http://www.w3.org/2000/svg">
<g clip-path="url(#clip0_1130_5279)">
<path d="M0 30C0 13.4315 13.4315 0 30 0C46.5685 0 60 13.4315 60 30C60 46.5685 46.5685 60 30 60C13.4315 60 0 46.5685 0 30Z" fill="#EEEEEE"/>
<g clip-path="url(#clip1_1130_5279)">
<path d="M45.1619 31.8849C45.0742 31.5367 44.9362 31.3625 44.5908 31.2622C39.779 29.8733 34.8752 29.1294 29.6148 29.1419C24.8991 29.1182 20.0469 29.8482 15.2922 31.2594C14.9509 31.3611 14.7601 31.5004 14.6667 31.8905C14.1778 33.9453 14.0747 36.0141 14.4216 38.0912C15.8899 46.8581 24.0187 52.6033 32.7423 51.0597C41.5761 49.4966 47.3421 40.5835 45.1605 31.8835L45.1619 31.8849Z" fill="white"/>
<path d="M36.168 34.4747C36.1611 35.0738 35.8156 35.3984 35.3586 35.2772C33.7969 34.8662 32.2213 34.6224 30.6248 34.5597C28.5658 34.4789 26.5347 34.7589 24.5188 35.2632C24.0703 35.3747 23.7526 35.156 23.6802 34.7032C23.6036 34.2254 23.8083 33.8785 24.2541 33.7559C28.0155 32.725 31.7769 32.725 35.5411 33.735C35.9103 33.8339 36.1499 34.0429 36.1666 34.4747H36.168Z" fill="#333333"/>
<path d="M29.7542 29.8148C31.4482 29.8454 32.9416 30.1881 34.4225 30.6311C34.8112 30.7468 34.9797 31.1076 34.9031 31.5603C34.8279 32.0006 34.5493 32.2263 34.1481 32.1329C33.0614 31.8794 31.9846 31.5743 30.8798 31.4461C29.2415 31.2553 27.6562 31.63 26.0694 32.0396C25.9343 32.0744 25.7991 32.1176 25.6626 32.1413C25.2976 32.2012 25.0065 31.9699 24.9326 31.5701C24.8532 31.1354 25.0315 30.7468 25.4105 30.6325C26.4595 30.3205 27.5155 30.0488 28.5895 29.9179C29.0298 29.8649 29.4728 29.8385 29.7514 29.8134L29.7542 29.8148Z" fill="#333333"/>
<path d="M16.4722 62.3091C16.3691 62.1266 16.1657 62.1739 16.0125 62.1322C12.8264 61.2656 11.1324 57.9821 12.2915 54.8838C13.3042 52.1742 14.8757 49.8296 16.9821 47.8528C17.2844 47.57 17.3429 47.4265 17.0378 47.0921C15.5722 45.4873 14.4703 43.6525 13.7431 41.6033C13.6135 41.2383 13.4352 41.1213 13.0479 41.0892C10.8691 40.9123 9.29905 39.8089 8.42557 37.8112C7.56881 35.8553 7.81121 33.9857 9.09148 32.2694C9.25447 32.0507 9.29487 31.9616 9.05108 31.754C7.26093 30.2271 7.69001 27.5579 9.9162 26.7889C10.8747 26.4574 11.1811 25.9893 11.3149 25.0058C11.8401 21.1566 13.484 17.802 16.1281 14.9489C16.709 14.322 16.8497 14.2983 17.6076 14.6647C17.8541 15.2205 17.6549 15.6259 17.2565 16.0522C14.859 18.6253 13.4171 21.6748 12.8473 25.1395C12.7944 25.4655 12.7442 25.7148 13.2625 25.5421C17.4432 24.1434 21.7326 23.2894 26.1348 22.9774C30.7516 22.65 35.3279 22.9231 39.8709 23.7854C42.157 24.2186 44.404 24.8052 46.6066 25.5546C46.9827 25.6828 47.0788 25.595 47.0078 25.2287C46.9242 24.8038 46.8657 24.3719 46.7654 23.9512C43.9583 12.1181 30.5844 6.74626 20.4049 13.3747C19.9368 13.6798 19.5259 13.7397 19.0717 13.4109C18.8307 12.6614 18.8948 12.4859 19.5705 12.0359C30.6401 4.67052 45.839 11.0356 48.3814 24.1072C48.504 24.7369 48.5945 25.3735 48.6628 26.0102C48.6879 26.2401 48.7714 26.339 48.9762 26.4086C49.3524 26.5354 49.7285 26.6705 50.0907 26.8335C52.1428 27.7558 52.5147 30.2843 50.8068 31.7428C50.6006 31.9184 50.5296 32.0006 50.7232 32.2555C52.048 33.9969 52.2807 35.9041 51.3766 37.8851C50.4822 39.8424 48.908 40.9234 46.7514 41.0976C46.4101 41.1254 46.2443 41.2118 46.1245 41.5489C45.3792 43.6275 44.2647 45.4942 42.7741 47.1256C42.5178 47.4056 42.5094 47.5407 42.802 47.8124C44.8666 49.7307 46.3669 52.0265 47.455 54.6275C49.0361 58.4056 46.2708 61.958 43.2143 62.2325C43.1934 62.2338 43.1767 62.2826 43.1586 62.3091H34.2984C34.0296 62.0973 33.8289 61.8396 33.7621 61.4941C33.9223 60.9201 34.2984 60.6986 34.8905 60.7335C35.4617 60.7669 36.0356 60.7265 36.6082 60.746C36.898 60.7558 37.0038 60.6722 36.9969 60.3685C36.9774 59.5883 36.9718 58.8068 36.9997 58.0267C37.0122 57.6589 36.8631 57.6045 36.5455 57.6059C32.1377 57.6157 27.7299 57.6213 23.3221 57.6059C22.9097 57.6059 22.8317 57.7425 22.8471 58.1116C22.8749 58.7873 22.8819 59.4657 22.8457 60.1414C22.8206 60.5997 22.932 60.7544 23.4294 60.7488C26.015 60.7223 28.6006 60.746 31.1862 60.7335C31.7546 60.7307 32.1238 60.9215 32.2436 61.4997C32.2129 61.8716 31.9831 62.1099 31.6961 62.3077H16.4722V62.3091ZM28.3888 56.0234C31.1138 56.0248 33.8373 56.0234 36.5622 56.0345C36.859 56.0345 36.9913 55.9913 36.9857 55.6444C36.9648 54.36 36.9676 53.0755 36.9829 51.7925C36.9871 51.4331 36.8785 51.4442 36.5984 51.5612C33.7899 52.737 30.8686 53.1341 27.8455 52.8011C26.2351 52.4877 24.6261 52.1631 23.1201 51.4735C22.8916 51.369 22.8192 51.4735 22.8206 51.7061C22.8275 53.0602 22.8275 54.4143 22.8206 55.7684C22.8206 56.0025 22.9195 56.0638 23.134 56.061C24.8852 56.0443 26.6377 56.0345 28.3888 56.022V56.0234ZM29.6148 29.1419C24.8991 29.1182 20.0469 29.8468 15.2922 31.2594C14.9509 31.3611 14.76 31.5004 14.6667 31.8905C14.1777 33.9453 14.0746 36.0141 14.4215 38.0912C15.8899 46.8581 24.0187 52.6033 32.7423 51.0597C41.576 49.4966 47.3421 40.5835 45.1605 31.8835C45.0727 31.5353 44.9348 31.3611 44.5893 31.2608C39.7775 29.8719 34.8738 29.128 29.6134 29.1405L29.6148 29.1419ZM48.6586 30.9223C49.4986 30.9293 50.1409 30.4096 50.2941 29.6838C50.4279 29.0527 50.0768 28.508 49.3343 28.2183C48.8341 28.0232 48.327 27.8435 47.8241 27.6541C43.0151 25.8458 38.0417 24.7968 32.9178 24.5042C29.3933 24.3036 25.8785 24.4666 22.3776 24.9821C18.2554 25.5895 14.2892 26.743 10.4177 28.2517C9.8967 28.4551 9.54981 28.8298 9.51359 29.4163C9.48016 29.9583 9.87023 30.5239 10.401 30.7802C10.9596 31.0491 11.4848 30.8777 12.0114 30.6869C18.9101 28.1848 26.022 27.2111 33.3414 27.6777C38.3245 27.9954 43.1628 28.9956 47.8548 30.7022C48.1473 30.8081 48.4413 30.9195 48.6572 30.9237L48.6586 30.9223ZM18.1565 48.8614C16.0055 50.9051 14.494 53.1912 13.5968 55.8715C13.4547 56.295 13.4171 56.7506 13.4784 57.2089C13.7668 59.3877 15.3716 60.7516 17.6271 60.7711C18.0589 60.7753 18.169 60.6694 18.1676 60.2333C18.1481 56.6419 18.1565 53.0505 18.1565 49.459V48.8614ZM41.7042 48.9338V51.2255C41.7042 54.2458 41.7014 57.266 41.7112 60.2863C41.7112 60.4479 41.5523 60.714 41.9341 60.7404C45.01 60.9536 46.9938 58.2412 46.1371 55.6821C45.272 53.0964 43.766 50.887 41.7028 48.9352L41.7042 48.9338ZM13.0187 32.0173C12.3667 32.2081 11.7983 32.4798 11.1602 32.5021C11.0558 32.5063 10.9387 32.5954 10.8524 32.6734C9.67241 33.7545 9.24194 35.0779 9.66684 36.6257C10.0889 38.1623 11.1059 39.111 12.6676 39.4704C13.0145 39.5498 13.0855 39.4342 13.0145 39.1054C12.5018 36.7692 12.5283 34.4288 13.0187 32.0173ZM46.8197 32.027C47.3101 34.4385 47.3435 36.7775 46.8281 39.1124C46.7459 39.483 46.888 39.5331 47.1931 39.4607C48.7492 39.0887 49.762 38.133 50.1673 36.5923C50.5686 35.0654 50.1478 33.7545 48.9846 32.686C48.8982 32.6066 48.784 32.5104 48.6809 32.5063C48.0456 32.4826 47.4731 32.2235 46.8197 32.0256V32.027ZM19.707 49.5774V50.1681C19.707 53.311 19.707 56.4538 19.707 59.5953C19.707 60.7962 19.707 60.7878 20.9218 60.7502C21.1851 60.7418 21.2826 60.6819 21.2812 60.4005C21.2728 57.2228 21.2742 54.0465 21.2784 50.8689C21.2784 50.6808 21.2394 50.5457 21.0639 50.4398C20.6348 50.182 20.2169 49.902 19.707 49.576V49.5774ZM40.1272 49.5733C39.6884 49.8575 39.3401 50.1124 38.9626 50.3158C38.6491 50.4858 38.546 50.6989 38.5474 51.0569C38.5627 53.9044 38.5558 56.7506 38.5558 59.5981C38.5558 60.8017 38.5558 60.7934 39.7747 60.7516C40.0408 60.7418 40.1314 60.675 40.1314 60.3977C40.123 56.8216 40.1258 53.2469 40.1258 49.5733H40.1272Z" fill="#333333"/>
<path d="M19.0717 13.4109C19.5259 13.7397 19.9369 13.6798 20.4049 13.3747C30.5844 6.74626 43.9583 12.1181 46.7612 23.954C46.8615 24.3761 46.92 24.8065 47.0036 25.2314C47.0747 25.5978 46.9785 25.6856 46.6024 25.5574C44.3999 24.8065 42.1528 24.2214 39.8667 23.7882C35.3238 22.9258 30.7474 22.6528 26.1306 22.9802C21.7298 23.2922 17.439 24.1462 13.2583 25.5449C12.7401 25.719 12.7902 25.4683 12.8431 25.1423C13.4129 21.6776 14.8548 18.6281 17.2523 16.055C17.6508 15.6273 17.85 15.2233 17.6034 14.6675C17.999 14.1395 18.4936 13.7285 19.0703 13.4109H19.0717Z" fill="white"/>
<path d="M48.6587 30.9223C48.4427 30.9167 48.1488 30.8067 47.8562 30.7008C43.1642 28.9942 38.3274 27.994 33.3428 27.6764C26.0234 27.2097 18.9116 28.1834 12.0129 30.6855C11.4863 30.8763 10.9611 31.0477 10.4025 30.7788C9.8717 30.5239 9.48162 29.9569 9.51506 29.415C9.55128 28.8285 9.89677 28.4537 10.4192 28.2503C14.2906 26.7416 18.2568 25.5881 22.379 24.9807C25.8799 24.4652 29.3947 24.3022 32.9193 24.5028C38.0432 24.7954 43.0166 25.8444 47.8256 27.6527C48.3285 27.8421 48.8356 28.0218 49.3357 28.2169C50.0783 28.5066 50.4293 29.0514 50.2956 29.6824C50.1409 30.4096 49.5001 30.9279 48.6601 30.9209L48.6587 30.9223Z" fill="white"/>
<path d="M33.7607 61.4941C33.2536 61.4955 32.7466 61.4983 32.2395 61.4997C32.1197 60.9215 31.7505 60.7307 31.1821 60.7335C28.5965 60.746 26.0109 60.7223 23.4253 60.7488C22.9279 60.7544 22.8165 60.5983 22.8415 60.1414C22.8778 59.4671 22.8708 58.7873 22.8429 58.1116C22.8276 57.7425 22.907 57.6045 23.318 57.6059C27.7258 57.6199 32.1336 57.6157 36.5414 57.6059C36.859 57.6059 37.0095 57.6603 36.9955 58.0267C36.9677 58.8068 36.9746 59.5883 36.9928 60.3685C36.9997 60.6722 36.8938 60.7558 36.6041 60.746C36.0315 60.7265 35.4575 60.7669 34.8864 60.7335C34.2957 60.6986 33.9196 60.9215 33.758 61.4941H33.7607Z" fill="#BDBDBD"/>
<path d="M18.1565 48.8614V49.459C18.1565 53.0505 18.1481 56.6419 18.1676 60.2333C18.1704 60.6694 18.0589 60.7739 17.6271 60.7711C15.3716 60.7516 13.7668 59.3863 13.4784 57.2089C13.4171 56.7506 13.4547 56.295 13.5968 55.8715C14.494 53.1926 16.0055 50.9051 18.1565 48.8614Z" fill="#BDBDBD"/>
<path d="M41.7042 48.9338C43.7674 50.887 45.272 53.095 46.1385 55.6807C46.9952 58.2398 45.0115 60.9522 41.9355 60.739C41.5538 60.7126 41.7126 60.4465 41.7126 60.2849C41.7028 57.2646 41.7056 54.2444 41.7056 51.2241V48.9324L41.7042 48.9338Z" fill="#BDBDBD"/>
<path d="M36.9844 51.7911C36.9886 51.4317 36.8799 51.4428 36.5999 51.5598C33.7914 52.7356 30.87 53.1327 27.847 52.7997C26.2366 52.4863 24.6275 52.1617 23.1216 51.4721C22.8931 51.3676 22.8206 51.4721 22.822 51.7047C22.829 53.0588 22.829 54.4129 22.822 55.767C22.822 56.0011 22.921 56.0624 23.1355 56.0596C24.8866 56.0429 26.6392 56.0331 28.3903 56.0206C31.1152 56.022 33.8402 56.0206 36.5637 56.0317C36.8604 56.0317 36.9928 55.9885 36.9872 55.6417C36.9663 54.3572 36.9691 53.0728 36.9844 51.7897V51.7911Z" fill="#BDBDBD"/>
<path d="M13.0187 32.0173C12.5284 34.4274 12.5019 36.7678 13.0146 39.1054C13.087 39.4342 13.0146 39.5498 12.6677 39.4704C11.106 39.111 10.089 38.1637 9.66692 36.6257C9.24202 35.0779 9.67249 33.7545 10.8525 32.6734C10.9374 32.5954 11.0545 32.5049 11.1603 32.5021C11.797 32.4812 12.3668 32.2095 13.0187 32.0173Z" fill="white"/>
<path d="M46.8198 32.027C47.4732 32.2249 48.0457 32.484 48.681 32.5077C48.7855 32.5118 48.8997 32.608 48.9847 32.6874C50.1479 33.7559 50.5701 35.0668 50.1674 36.5937C49.762 38.1344 48.7479 39.0901 47.1932 39.4621C46.8867 39.5345 46.746 39.4844 46.8282 39.1138C47.3436 36.7789 47.3102 34.4385 46.8198 32.0284V32.027Z" fill="white"/>
<path d="M19.707 49.5774C20.2169 49.9048 20.6348 50.1834 21.0639 50.4412C21.2395 50.547 21.2785 50.6822 21.2785 50.8702C21.2743 54.0479 21.2729 57.2256 21.2812 60.4019C21.2812 60.6833 21.1851 60.7432 20.9218 60.7516C19.707 60.7892 19.707 60.7976 19.707 59.5967C19.707 56.4538 19.707 53.311 19.707 50.1695V49.5788V49.5774Z" fill="#BDBDBD"/>
<path d="M40.1272 49.5733C40.1272 53.2455 40.1244 56.8216 40.1328 60.3977C40.1328 60.675 40.0423 60.7418 39.7762 60.7516C38.5572 60.7934 38.5572 60.8017 38.5572 59.5981C38.5572 56.7506 38.5642 53.9044 38.5488 51.0569C38.5474 50.6989 38.6491 50.4857 38.964 50.3158C39.3401 50.1124 39.6884 49.8575 40.1286 49.5733H40.1272Z" fill="#BDBDBD"/>
<path d="M33.4779 47.6257C32.5209 47.5686 31.7073 47.4975 30.9216 47.2621C30.3337 47.0852 29.7723 47.1562 29.1844 47.2941C27.0571 47.7957 24.9577 47.7887 22.9363 46.8233C22.51 46.6199 22.1812 46.3287 22.0934 45.8383C21.9778 45.2003 22.23 44.6361 22.8457 44.3979C24.0215 43.9451 24.973 43.2276 25.8214 42.297C26.9498 41.0586 28.4697 40.7437 30.0815 40.7242C32.0653 40.7005 33.7621 41.3107 35.0229 42.9072C35.5983 43.6358 36.4202 43.966 37.2338 44.3087C37.7158 44.5107 38.0557 44.8228 38.1504 45.348C38.2577 45.9414 37.993 46.4388 37.4065 46.7564C36.1346 47.4446 34.754 47.6299 33.4765 47.6243L33.4779 47.6257ZM24.0786 45.536C24.2973 45.7297 24.4631 45.7561 24.6247 45.7993C26.0875 46.181 27.5475 46.1058 28.9935 45.7366C29.7556 45.543 30.4897 45.5305 31.2448 45.7408C32.0319 45.9595 32.8441 46.0501 33.6618 46.0473C34.4879 46.0431 35.3071 45.9693 36.09 45.6322C36.0009 45.4176 35.81 45.4037 35.6637 45.3271C35.0299 44.9983 34.403 44.6514 33.9669 44.0677C32.6727 42.3374 30.8812 42.1132 28.9294 42.3876C28.1186 42.5018 27.39 42.8362 26.8426 43.4561C26.0791 44.3212 25.2669 45.1125 24.0772 45.536H24.0786Z" fill="#333333"/>
<path d="M36.3366 36.804C37.4984 36.8068 38.4736 37.7095 38.5572 38.863C38.592 39.352 38.3008 39.7477 37.8592 39.8089C37.4455 39.8675 37.0721 39.5791 36.9955 39.1012C36.93 38.6972 36.7768 38.3852 36.324 38.3894C35.8713 38.3935 35.7278 38.714 35.6637 39.1138C35.5885 39.5874 35.2054 39.8716 34.7888 39.8048C34.3458 39.7351 34.0644 39.3423 34.1048 38.8491C34.1995 37.6928 35.1719 36.8012 36.338 36.804H36.3366Z" fill="#333333"/>
<path d="M25.7322 38.8867C25.7378 39.3994 25.4299 39.7685 25.005 39.8131C24.5899 39.8563 24.2514 39.5735 24.1636 39.0762C24.0967 38.6959 23.9449 38.3977 23.52 38.3908C23.0686 38.3824 22.9028 38.6833 22.8388 39.0901C22.7621 39.5749 22.4013 39.8619 21.9848 39.8117C21.539 39.7574 21.2464 39.3729 21.2743 38.877C21.3328 37.8433 22.1993 36.9252 23.2205 36.8152C24.335 36.6953 25.3673 37.3808 25.6431 38.4298C25.6877 38.5969 25.7086 38.7697 25.7322 38.8881V38.8867Z" fill="#333333"/>
<path d="M24.1134 45.5416C25.3031 45.1167 26.1139 44.3268 26.8787 43.4617C27.4262 42.8417 28.1534 42.5074 28.9656 42.3932C30.9187 42.1187 32.7103 42.343 34.0031 44.0733C34.4391 44.657 35.066 45.0039 35.6999 45.3326C35.8462 45.4079 36.0356 45.4232 36.1262 45.6377C35.3433 45.9749 34.5241 46.0501 33.698 46.0529C32.8802 46.057 32.0695 45.9665 31.281 45.7464C30.5245 45.536 29.7903 45.5472 29.0297 45.7422C27.5836 46.1114 26.1223 46.1866 24.6609 45.8049C24.4993 45.7631 24.3321 45.7352 24.1148 45.5416H24.1134Z" fill="#BDBDBD"/>
</g>
</g>
<defs>
<clipPath id="clip0_1130_5279">
<path d="M0 30C0 13.4315 13.4315 0 30 0C46.5685 0 60 13.4315 60 30C60 46.5685 46.5685 60 30 60C13.4315 60 0 46.5685 0 30Z" fill="white"/>
</clipPath>
<clipPath id="clip1_1130_5279">
<rect width="44" height="53.3882" fill="white" transform="translate(7.91992 8.9209)"/>
</clipPath>
</defs>
</svg>
