<svg width="60" height="60" viewBox="0 0 60 60" fill="none" xmlns="http://www.w3.org/2000/svg">
<g clip-path="url(#clip0_1130_5277)">
<path d="M0 30C0 13.4315 13.4315 0 30 0C46.5685 0 60 13.4315 60 30C60 46.5685 46.5685 60 30 60C13.4315 60 0 46.5685 0 30Z" fill="#EEEEEE"/>
<g clip-path="url(#clip1_1130_5277)">
<path d="M44.9962 33.5162C44.9376 33.2202 44.83 33.04 44.5075 32.9478C43.9908 32.8012 43.5118 32.5457 43.0467 32.2706C40.7077 30.8853 39.0445 28.8492 37.5949 26.6093C37.1397 25.9068 36.9525 25.837 36.1831 26.1275C34.545 26.7461 32.8525 27.1092 31.1055 27.2223C28.2525 27.4066 25.4889 26.9737 22.7951 26.0367C22.203 25.83 21.9391 25.9236 21.6095 26.4459C21.097 27.2558 20.558 28.0448 19.9491 28.785C18.4381 30.6199 16.7498 32.2273 14.4345 33.0093C14.1747 33.0973 14.1552 33.2942 14.1189 33.4855C13.7669 35.3135 13.7139 37.1526 14.0141 38.9904C15.2681 46.6612 21.7827 52.208 29.5876 52.2666C32.347 52.2876 35.2167 51.4762 37.7136 49.9708C43.3149 46.5928 46.2628 39.9288 44.9962 33.519V33.5162Z" fill="white"/>
<path d="M20.6878 12.9001C20.5901 12.0943 20.6473 11.9924 21.4168 11.6209C32.5313 6.25012 46.0212 13.1375 48.1299 25.2645C48.4622 27.179 48.6214 29.1006 48.0293 30.9984C47.926 31.3307 48.0824 31.4006 48.324 31.5067C50.5904 32.5135 51.7537 34.5691 51.5079 37.1135C51.2803 39.4666 49.6353 41.3546 47.3478 41.8908C47.2976 41.9034 47.2445 41.9327 47.197 41.9272C46.1776 41.8154 45.7712 42.3698 45.443 43.272C44.7839 45.0832 43.7016 46.6668 42.3987 48.0884C42.1683 48.3397 42.1767 48.4654 42.4295 48.6986C44.5395 50.6579 46.0868 52.9956 47.1649 55.667C48.6354 59.3118 46.0491 62.7695 43.0244 63.1661C42.9881 63.1703 42.9587 63.2289 42.9266 63.2624H39.5835C39.1855 63.0362 38.9243 62.7206 39.0682 62.243C39.2134 61.7612 39.6128 61.6733 40.0666 61.6844C40.7439 61.7012 41.424 61.6956 42.1013 61.6872C44.8607 61.6523 46.6985 58.985 45.7461 56.3946C45.2224 54.9702 44.4934 53.6519 43.6262 52.4077C43.4293 52.1256 43.2967 52.0725 42.9908 52.2848C40.6657 53.8991 38.3113 55.4715 35.9973 57.104C34.9192 57.8651 33.8691 58.1849 32.6947 57.3596C32.6332 57.3163 32.5145 57.2939 32.4531 57.3232C32.3372 57.3791 32.4531 57.4657 32.4684 57.5369C32.717 58.8147 32.9768 60.091 33.2169 61.3702C33.2658 61.6342 33.3831 61.697 33.6359 61.6928C34.5408 61.6774 35.4443 61.6984 36.3492 61.6816C36.8045 61.6733 37.2025 61.7584 37.3603 62.2304C37.5195 62.7066 37.2374 63.0153 36.8659 63.261H15.9649C15.8951 63.0739 15.7066 63.1088 15.5711 63.0697C12.376 62.1592 10.7128 58.8622 11.8998 55.769C12.9388 53.064 14.5 50.7054 16.6297 48.7363C16.9118 48.4752 16.9369 48.3411 16.6688 48.0479C15.1857 46.4266 14.0699 44.5763 13.3298 42.5053C13.2111 42.1715 13.0701 42.0291 12.6818 42.0026C10.2883 41.8434 8.49801 40.4162 7.81095 38.1748C7.1197 35.9195 7.77883 33.6335 9.52721 32.2426C9.93778 31.9159 10.3846 31.6533 10.8748 31.462C11.0424 31.3964 11.1485 31.3433 11.0927 31.0919C9.95034 26.0074 11.5228 21.5624 14.3758 17.4428C15.3519 16.0338 16.578 14.8426 17.9242 13.7799C18.3166 13.4699 18.6923 13.3959 19.0944 13.7422C19.4813 14.2952 19.4254 14.6122 18.8123 15.0982C16.571 16.8717 14.838 19.0502 13.7236 21.6783C12.4291 24.7324 11.7769 27.8745 12.7293 31.1813C12.855 31.617 12.9737 31.7762 13.4625 31.6407C14.454 31.367 15.3421 30.9146 16.1535 30.3001C17.8153 29.0419 19.0958 27.4458 20.1879 25.6904C20.6669 24.9195 21.2925 24.407 22.2295 24.3372C22.7322 24.2995 23.1847 24.481 23.6469 24.6291C27.7456 25.9459 31.8316 26.1065 35.9107 24.5327C37.0363 24.0984 38.1325 24.5062 38.8014 25.5577C39.8153 27.1525 40.952 28.6411 42.3987 29.8728C43.3916 30.7177 44.4823 31.3852 45.7712 31.6715C45.9709 31.7162 46.2097 31.8335 46.2949 31.4662C46.5421 30.3825 46.873 29.3212 46.8367 28.1845C46.6761 23.2466 44.7783 19.1116 41.114 15.8062C35.873 11.0875 28.3893 10.0178 22.0396 13.0775C21.5117 13.3316 21.09 13.3372 20.6878 12.9001ZM29.5875 52.2652C32.3469 52.2862 35.2167 51.4748 37.7136 49.9694C43.3148 46.5914 46.2628 39.9274 44.9962 33.5176C44.9375 33.2216 44.83 33.0414 44.5074 32.9492C43.9907 32.8026 43.5117 32.5471 43.0467 32.272C40.7076 30.8867 39.0444 28.8506 37.5949 26.6107C37.1396 25.9082 36.9525 25.8384 36.183 26.1289C34.545 26.7475 32.8525 27.1106 31.1055 27.2237C28.2525 27.408 25.4889 26.9751 22.7951 26.0381C22.203 25.8314 21.939 25.925 21.6095 26.4473C21.097 27.2572 20.5579 28.0462 19.9491 28.7864C18.4381 30.6213 16.7498 32.2287 14.4344 33.0107C14.1747 33.0987 14.1551 33.2956 14.1188 33.4869C13.7669 35.3149 13.7138 37.154 14.0141 38.9918C15.2681 46.6626 21.7826 52.2094 29.5875 52.268V52.2652ZM26.5334 57.2059C25.2277 58.1835 24.1287 57.9153 22.9906 57.1068C20.7102 55.4869 18.378 53.9368 16.0795 52.342C15.7848 52.1381 15.6493 52.1507 15.4441 52.4496C14.6453 53.6142 13.961 54.8375 13.4485 56.1544C12.3369 59.013 14.1509 61.6858 17.2134 61.69C19.8765 61.6928 22.5395 61.6844 25.2026 61.6984C25.5685 61.6998 25.7724 61.6467 25.8073 61.2208C25.8422 60.7921 25.9902 60.3731 26.0586 59.9444C26.1997 59.0758 26.465 58.2268 26.5334 57.2059ZM16.7442 50.8883C19.3081 52.6451 21.8567 54.3934 24.4094 56.1362C24.7878 56.3946 25.1523 56.3178 25.4288 55.9812C25.6928 55.66 25.8771 55.2732 26.1536 54.966C26.4427 54.6448 26.3351 54.3055 26.3575 53.948C26.3966 53.2888 25.852 53.5332 25.5727 53.3754C25.4721 53.3182 25.3381 53.3196 25.2208 53.2888C22.6778 52.6213 20.4001 51.4441 18.3892 49.7502C18.2552 49.6371 18.1462 49.4444 17.9242 49.6692C17.5346 50.063 17.11 50.4233 16.7456 50.8869L16.7442 50.8883ZM32.5857 54.3557C32.5913 54.4409 32.5662 54.5499 32.6095 54.6085C32.967 55.0973 33.2058 55.6726 33.6652 56.0874C33.9669 56.3597 34.2964 56.3443 34.619 56.1237C37.1131 54.4172 39.603 52.7079 42.0985 51.0042C42.2842 50.8771 42.3317 50.7892 42.1432 50.6188C41.8471 50.3507 41.5539 50.0756 41.2927 49.7739C41.0623 49.5086 40.9143 49.5686 40.6699 49.7739C38.5347 51.5698 36.1076 52.8043 33.3789 53.3908C32.7659 53.522 32.5047 53.7455 32.5843 54.3557H32.5857ZM9.10967 36.4376C9.12922 38.3955 10.4042 39.9986 12.161 40.3617C12.5324 40.4385 12.6958 40.4064 12.5939 39.9498C12.1484 37.9598 12.1205 35.9489 12.4361 33.9393C12.4975 33.5455 12.5199 33.3277 12.0353 33.3403C11.9194 33.343 11.7602 33.2355 11.6917 33.1322C11.527 32.8864 11.3664 32.9534 11.1653 33.0638C9.80371 33.8081 9.15854 34.9783 9.10967 36.4362V36.4376ZM46.8828 36.513C46.8465 37.6637 46.7669 38.7893 46.5309 39.8995C46.4178 40.4329 46.4429 40.472 46.947 40.3477C48.5586 39.9497 49.5319 38.9066 49.8894 37.309C50.2427 35.731 49.5989 34.1572 48.3016 33.2928C47.9665 33.0693 47.6327 32.7635 47.2557 33.2607C47.1886 33.3486 46.9987 33.3835 46.8688 33.3766C46.5588 33.3584 46.5882 33.5148 46.6287 33.7299C46.8074 34.6557 46.8437 35.5942 46.8828 36.5144V36.513ZM29.4786 61.69C29.4786 61.69 29.4786 61.6942 29.4786 61.697C30.0861 61.697 30.6949 61.6942 31.3024 61.6984C31.5146 61.6998 31.6864 61.6942 31.6264 61.3968C31.3303 59.9528 31.0398 58.5089 30.7508 57.0635C30.7089 56.8526 30.6405 56.7842 30.4031 56.8638C29.8487 57.0509 29.2649 57.0858 28.7133 56.8959C28.3433 56.7688 28.2706 56.9253 28.2134 57.2143C27.9467 58.5745 27.6855 59.936 27.3965 61.292C27.3183 61.6565 27.4551 61.7026 27.7595 61.6942C28.3321 61.6788 28.906 61.69 29.48 61.69H29.4786ZM28.353 53.793C28.2329 53.8628 27.9215 53.6072 27.9467 54.022C27.9886 54.7342 28.7008 55.4003 29.4521 55.4199C30.2131 55.4394 30.9198 54.8696 31.0147 54.1658C31.0468 53.9284 31.0426 53.7413 30.7145 53.7902C29.9366 53.9047 29.1588 53.8684 28.353 53.793Z" fill="#333333"/>
<path d="M36.8632 63.2652C37.2332 63.0195 37.5167 62.7108 37.3575 62.2346C37.1997 61.7626 36.8017 61.6774 36.3465 61.6858C35.443 61.7026 34.538 61.6816 33.6331 61.697C33.3804 61.7012 33.2645 61.6369 33.2142 61.3744C32.974 60.0952 32.7143 58.8189 32.4657 57.5411C32.4517 57.4699 32.3344 57.3819 32.4503 57.3274C32.5118 57.2981 32.6305 57.3205 32.6919 57.3637C33.8663 58.1891 34.9151 57.8679 35.9946 57.1082C38.3085 55.4771 40.663 53.9047 42.9881 52.289C43.2939 52.0767 43.4266 52.1284 43.6235 52.4119C44.4921 53.6561 45.2197 54.9744 45.7433 56.3988C46.6957 58.9892 44.858 61.6551 42.0985 61.6914C41.4199 61.6998 40.7412 61.7054 40.0639 61.6886C39.6086 61.6774 39.2092 61.7654 39.0654 62.2472C38.9216 62.7234 39.1827 63.0404 39.5807 63.2666H36.8646L36.8632 63.2652Z" fill="#BDBDBD"/>
<path d="M20.6878 12.9001C21.09 13.3372 21.5103 13.3316 22.0396 13.0775C28.3893 10.0178 35.873 11.0875 41.1126 15.8132C44.7783 19.1186 46.6747 23.2549 46.8353 28.1915C46.8716 29.3282 46.5406 30.3895 46.2935 31.4732C46.2097 31.8418 45.9695 31.7231 45.7698 31.6785C44.4809 31.3908 43.3888 30.7247 42.3973 29.8798C40.9506 28.6481 39.8138 27.1581 38.8 25.5647C38.1325 24.5146 37.0349 24.1054 35.9093 24.5397C31.8302 26.1135 27.7442 25.9529 23.6455 24.6361C23.1847 24.488 22.7322 24.3065 22.2281 24.3442C21.2911 24.414 20.6654 24.9265 20.1865 25.6974C19.0944 27.4527 17.8138 29.0503 16.152 30.3071C15.3407 30.9216 14.4525 31.374 13.461 31.6477C12.9723 31.7818 12.8536 31.6226 12.7279 31.1883C11.7755 27.8815 12.4277 24.7394 13.7222 21.6853C14.8352 19.0558 16.5696 16.8787 18.8109 15.1051C19.424 14.6192 19.4798 14.3008 19.093 13.7492C19.5427 13.7045 19.8136 13.3288 20.192 13.1529C20.3596 13.0747 20.523 12.9867 20.6878 12.9029V12.9001Z" fill="white"/>
<path d="M26.5334 57.2059C26.465 58.2254 26.1996 59.0744 26.0586 59.9444C25.9888 60.3717 25.8407 60.7907 25.8072 61.2208C25.7723 61.6467 25.5684 61.7012 25.2026 61.6984C22.5395 61.6844 19.8764 61.6942 17.2133 61.69C14.1509 61.6858 12.3369 59.0144 13.4485 56.1544C13.961 54.8361 14.6452 53.6142 15.444 52.4496C15.6493 52.1507 15.7848 52.1368 16.0794 52.342C18.378 53.9368 20.7087 55.4869 22.9905 57.1068C24.1301 57.9153 25.2277 58.1835 26.5334 57.2059Z" fill="#BDBDBD"/>
<path d="M16.7442 50.8883C17.1087 50.4247 17.5332 50.0644 17.9228 49.6706C18.1449 49.4458 18.2538 49.6385 18.3878 49.7516C20.3988 51.4455 22.6764 52.6227 25.2194 53.2902C25.3367 53.321 25.4707 53.3196 25.5713 53.3768C25.8492 53.5346 26.3952 53.2902 26.3561 53.9494C26.3352 54.3069 26.4413 54.6462 26.1522 54.9674C25.8757 55.2746 25.6914 55.6614 25.4274 55.9826C25.1509 56.3192 24.7865 56.3974 24.408 56.1376C21.8567 54.3934 19.3081 52.6465 16.7428 50.8897L16.7442 50.8883Z" fill="#BDBDBD"/>
<path d="M32.5857 54.3557C32.5061 53.7455 32.7672 53.5234 33.3803 53.3908C36.109 52.8043 38.5361 51.5684 40.6713 49.7739C40.9143 49.5686 41.0637 49.5086 41.2941 49.7739C41.5552 50.0756 41.8485 50.3507 42.1445 50.6188C42.3331 50.7892 42.2856 50.8771 42.0999 51.0042C39.6044 52.7079 37.1131 54.4172 34.6204 56.1237C34.2978 56.3443 33.9696 56.3597 33.6666 56.0874C33.2071 55.6726 32.9683 55.0973 32.6108 54.6085C32.5676 54.5499 32.5927 54.4409 32.5871 54.3557H32.5857Z" fill="#BDBDBD"/>
<path d="M9.10962 36.4376C9.1585 34.9783 9.80367 33.8095 11.1652 33.0651C11.3663 32.9548 11.5269 32.8878 11.6917 33.1336C11.7601 33.2369 11.9207 33.3444 12.0352 33.3416C12.5198 33.3291 12.4975 33.5469 12.436 33.9407C12.1204 35.9503 12.1483 37.9612 12.5938 39.9511C12.6958 40.4078 12.5324 40.4399 12.1609 40.3631C10.4028 40 9.12917 38.3969 9.10962 36.439V36.4376Z" fill="white"/>
<path d="M46.8828 36.513C46.8451 35.5928 46.8074 34.6543 46.6286 33.7285C46.5867 33.5134 46.5574 33.357 46.8688 33.3752C46.9987 33.3835 47.1886 33.3472 47.2556 33.2593C47.6327 32.7635 47.9664 33.0693 48.3016 33.2914C49.6003 34.1572 50.2427 35.7296 49.8894 37.3076C49.5319 38.9052 48.5585 39.9484 46.947 40.3463C46.4429 40.4706 46.4177 40.4315 46.5309 39.8981C46.7669 38.7879 46.8465 37.6609 46.8828 36.5116V36.513Z" fill="white"/>
<path d="M29.4785 61.69C28.9046 61.69 28.332 61.6788 27.7581 61.6942C27.4537 61.7026 27.3182 61.6565 27.395 61.292C27.6841 59.936 27.9452 58.5745 28.2119 57.2143C28.2692 56.9252 28.3418 56.7688 28.7119 56.8959C29.2649 57.0858 29.8472 57.0509 30.4016 56.8638C30.639 56.7842 30.706 56.8512 30.7493 57.0635C31.0384 58.5088 31.3289 59.9528 31.6249 61.3968C31.6864 61.6942 31.5146 61.7012 31.3009 61.6984C30.6935 61.6928 30.0846 61.697 29.4771 61.697C29.4771 61.6942 29.4771 61.6928 29.4771 61.69H29.4785Z" fill="#999999"/>
<path d="M28.353 53.793C29.1588 53.8684 29.9366 53.9047 30.7144 53.7902C31.0412 53.7413 31.0468 53.9284 31.0147 54.1658C30.9197 54.8696 30.2131 55.4394 29.452 55.4199C28.6993 55.4003 27.9885 54.7342 27.9466 54.022C27.9215 53.6058 28.2329 53.8628 28.353 53.793Z" fill="#999999"/>
<path d="M29.5596 45.4449C28.6854 45.4127 27.9132 45.1125 27.3043 44.4492C26.9524 44.0652 26.9496 43.6113 27.2834 43.2929C27.6087 42.9815 28.0179 42.9913 28.4047 43.3194C29.2552 44.0386 29.8431 44.0386 30.6921 43.3194C31.079 42.9927 31.4895 42.9829 31.8135 43.2957C32.1459 43.6155 32.1445 44.0693 31.7912 44.4534C31.1963 45.1027 30.4408 45.4016 29.5582 45.4463L29.5596 45.4449Z" fill="#333333"/>
<path d="M23.8061 39.7947C23.8061 40.0196 23.8256 40.2472 23.8019 40.4706C23.7572 40.8924 23.383 41.215 22.9906 41.1954C22.5814 41.1745 22.2462 40.8477 22.2309 40.4176C22.2155 39.9847 22.2141 39.549 22.2365 39.1175C22.2616 38.644 22.6037 38.341 23.0492 38.355C23.4737 38.3675 23.7768 38.6664 23.8061 39.1188C23.8201 39.3437 23.8089 39.5699 23.8089 39.7947C23.8089 39.7947 23.8061 39.7947 23.8047 39.7947H23.8061Z" fill="#333333"/>
<path d="M36.8688 39.7682C36.8688 39.9763 36.8771 40.1844 36.8674 40.3924C36.845 40.8505 36.5043 41.194 36.0784 41.1982C35.686 41.2024 35.3187 40.8714 35.2949 40.4441C35.2698 39.9944 35.2712 39.542 35.2949 39.0923C35.3173 38.6454 35.6455 38.3536 36.0742 38.3536C36.4973 38.3536 36.8213 38.6482 36.8604 39.0923C36.8799 39.3158 36.8632 39.5434 36.8632 39.7682C36.8646 39.7682 36.8674 39.7682 36.8688 39.7682Z" fill="#333333"/>
<path d="M35.8228 32.3013C35.8158 32.709 35.4695 32.9311 35.0115 32.8487C33.446 32.568 31.8666 32.4018 30.2663 32.3585C28.2023 32.3027 26.1662 32.494 24.1455 32.8375C23.6959 32.9143 23.3775 32.7649 23.3049 32.4549C23.228 32.1295 23.4333 31.8921 23.8802 31.8097C27.6507 31.1073 31.4211 31.1073 35.1944 31.7958C35.5645 31.8628 35.8047 32.0052 35.8214 32.2999L35.8228 32.3013Z" fill="#333333"/>
</g>
</g>
<defs>
<clipPath id="clip0_1130_5277">
<path d="M0 30C0 13.4315 13.4315 0 30 0C46.5685 0 60 13.4315 60 30C60 46.5685 46.5685 60 30 60C13.4315 60 0 46.5685 0 30Z" fill="white"/>
</clipPath>
<clipPath id="clip1_1130_5277">
<rect width="44" height="53.4904" fill="white" transform="translate(7.54004 9.7749)"/>
</clipPath>
</defs>
</svg>
