<svg width="60" height="60" viewBox="0 0 60 60" fill="none" xmlns="http://www.w3.org/2000/svg">
<g clip-path="url(#clip0_1130_5276)">
<path d="M0 30C0 13.4315 13.4315 0 30 0C46.5685 0 60 13.4315 60 30C60 46.5685 46.5685 60 30 60C13.4315 60 0 46.5685 0 30Z" fill="#EEEEEE"/>
<g clip-path="url(#clip1_1130_5276)">
<path d="M44.9937 32.6994C44.9309 32.4247 44.8151 32.3033 44.5362 32.2322C43.6618 32.0076 42.8208 31.6799 42.0091 31.281C39.2965 29.9491 37.0581 28.0189 35.0777 25.7707C34.7708 25.4221 34.5965 25.3021 34.1558 25.6578C31.9006 27.4806 29.4042 28.9031 26.7237 30.0105C26.3095 30.182 25.9148 30.302 25.4727 30.1834C24.8297 30.5698 24.1171 30.7622 23.3932 30.924C23.1882 31.1402 22.9651 31.3173 22.6624 31.3954C20.1325 32.0467 17.5761 32.5279 14.9556 32.5739C14.5944 32.5795 14.4884 32.7133 14.4242 33.0244C14.0992 34.5808 13.9514 36.1428 14.0672 37.7369C14.6097 45.2206 20.6025 51.4464 28.0723 52.1786C32.7402 52.636 36.9228 51.3599 40.3439 48.1229C44.8054 43.9027 46.3562 38.7201 44.9937 32.6994Z" fill="white"/>
<path d="M16.1828 63.2647C16.1214 63.0694 15.9304 63.1071 15.7965 63.068C12.9291 62.2494 11.2638 59.5284 11.8775 56.6289C11.9333 56.3625 11.8775 56.2342 11.646 56.0892C8.60283 54.1715 7.68794 50.6709 9.40476 47.5176C10.1091 46.2248 10.6028 44.8664 10.791 43.402C10.8189 43.19 10.7813 43.0505 10.6293 42.8971C10.1523 42.4174 9.92915 41.8232 9.96123 41.1496C9.97238 40.9265 9.88731 40.8093 9.73529 40.6713C6.69494 37.9098 7.21515 33.4414 10.8106 31.4484C11.0058 31.3396 11.0881 31.2448 11.0574 31.0133C10.6446 27.8641 11.0435 24.814 12.1955 21.8587C12.2694 21.6677 12.254 21.5115 12.169 21.3204C10.8929 18.4335 12.3042 15.4852 15.3613 14.6749C15.6207 14.6065 15.6863 14.4852 15.7421 14.2774C16.5482 11.2621 19.5272 9.82564 22.3569 11.0962C22.5884 11.2008 22.7684 11.1882 22.9943 11.1031C27.506 9.41422 32.0219 9.40864 36.5322 11.1045C36.7651 11.1924 36.945 11.1854 37.1696 11.0836C39.9547 9.82704 42.9741 11.2831 43.7496 14.2551C43.8123 14.495 43.9058 14.6079 44.1707 14.6777C47.1776 15.4656 48.596 18.4362 47.3422 21.3009C47.2487 21.5129 47.2529 21.6802 47.3324 21.8866C48.4579 24.8294 48.8638 27.8641 48.4426 30.9937C48.3952 31.3452 48.6127 31.3968 48.8177 31.507C51.8135 33.122 52.6754 37.0326 50.6378 39.7536C50.628 39.7675 50.621 39.7856 50.6085 39.7968C49.9865 40.4104 49.3658 41.0143 49.4077 42.0045C49.4174 42.2472 49.2501 42.522 49.0479 42.681C48.6281 43.0101 48.688 43.4187 48.7703 43.8511C49.006 45.0867 49.3742 46.2833 50.0241 47.3614C51.9473 50.5538 50.7187 54.4756 47.8261 56.1129C47.6309 56.2231 47.5528 56.336 47.61 56.5661C48.4147 59.7836 46.0019 62.7947 43.2015 63.1615C43.1666 63.1657 43.1401 63.227 43.1094 63.2619H37.3704C37.0357 62.9969 36.7261 62.7068 36.8948 62.2257C37.0622 61.7487 37.4611 61.6831 37.9115 61.6873C39.4066 61.6985 40.9031 61.7152 42.3967 61.6831C45.0159 61.6274 46.8541 59.0096 45.9796 56.5424C45.0466 53.9079 43.5027 51.6639 41.4581 49.7588C41.2475 49.5622 41.1178 49.5608 40.9059 49.7519C40.2322 50.3571 39.5014 50.8913 38.7135 51.3348C38.369 51.53 38.1919 51.7699 38.0928 52.1521C37.15 55.7879 33.7764 58.4573 30.0206 58.5605C25.9761 58.6721 22.4085 55.9971 21.3849 52.0767C21.3068 51.7755 21.1826 51.5593 20.8953 51.4017C20.0725 50.9457 19.3124 50.3948 18.6109 49.7686C18.371 49.5552 18.2399 49.5803 18.0195 49.7881C16.0085 51.6737 14.5022 53.8926 13.5469 56.4825C13.3586 56.9943 13.2707 57.5229 13.3279 58.0682C13.5525 60.2355 15.1619 61.6845 17.3627 61.6859C22.9273 61.6901 28.4906 61.6873 34.0553 61.6873C34.2115 61.6873 34.3691 61.6803 34.5239 61.6943C34.8265 61.7208 35.0511 61.8812 35.1682 62.1545C35.2952 62.4502 35.2198 62.7263 35.0371 62.9871C34.959 63.0973 34.7805 63.1001 34.761 63.2633H16.1828V63.2647ZM23.3932 30.924C23.1881 31.1402 22.965 31.3173 22.6624 31.3954C20.1325 32.0467 17.576 32.5279 14.9555 32.5739C14.5943 32.5795 14.4883 32.7133 14.4241 33.0244C14.0992 34.5808 13.9513 36.1428 14.0671 37.7369C14.6096 45.2206 20.6025 51.4464 28.0722 52.1786C32.7401 52.636 36.9227 51.3599 40.3438 48.1229C44.8053 43.9027 46.3562 38.7201 44.9936 32.6994C44.9308 32.4247 44.8151 32.3033 44.5361 32.2322C43.6617 32.0076 42.8207 31.6799 42.009 31.281C39.2964 29.9491 37.058 28.0189 35.0776 25.7707C34.7708 25.4221 34.5964 25.3021 34.1557 25.6578C31.9006 27.4806 29.4041 28.9031 26.7236 30.0105C26.3094 30.182 25.9147 30.302 25.4726 30.1834C24.9663 29.295 25.0779 28.9729 26.0514 28.5796C28.9439 27.4123 31.577 25.8168 33.966 23.814C34.6773 23.2185 34.9604 23.2422 35.5657 23.9535C36.8084 25.4137 38.1528 26.7721 39.6744 27.9422C41.6227 29.4415 43.7007 30.6744 46.2083 30.9784C46.8666 31.0579 46.9015 31.0356 46.9642 30.3703C47.2306 27.4959 46.8248 24.722 45.7104 22.0582C45.5333 21.6328 45.5598 21.2841 45.7802 20.8797C46.9614 18.7208 45.73 16.3763 43.2935 16.1141C42.5278 16.0319 42.3702 15.8743 42.3005 15.1212C42.0816 12.753 39.7176 11.4797 37.6242 12.6233C37.171 12.8702 36.7805 12.8925 36.2965 12.6986C31.9898 10.9776 27.665 10.9525 23.3485 12.661C22.7851 12.8841 22.336 12.8897 21.7837 12.5829C19.8103 11.4867 17.3822 12.8367 17.2093 15.0821C17.1493 15.8673 16.9903 16.0319 16.2065 16.1225C13.7714 16.4042 12.5399 18.711 13.7129 20.8434C13.9667 21.3051 13.9681 21.6928 13.77 22.1642C12.6515 24.828 12.2889 27.6075 12.5441 30.4791C12.5804 30.885 12.724 31.016 13.1508 31.0244C16.1772 31.0816 19.1436 30.6897 22.0654 29.9129C23.0445 29.6521 23.4043 29.931 23.3932 30.924ZM45.7648 43.1691C45.7286 43.2221 45.6812 43.2737 45.6547 43.3336C44.8876 45.1035 43.8653 46.7115 42.5613 48.1313C42.2838 48.4325 42.4567 48.5664 42.6575 48.7533C44.373 50.3432 45.7369 52.1981 46.7313 54.3124C46.9517 54.781 47.1149 54.7531 47.4747 54.4895C49.4035 53.0753 49.9404 50.5273 48.7327 48.2861C48.0772 47.0685 47.5472 45.8064 47.3073 44.4452C47.2153 43.9236 47.1176 43.5373 46.4859 43.4926C46.2446 43.4759 46.0145 43.2876 45.7662 43.1705L45.7648 43.1691ZM10.1202 50.7072C10.1621 52.2581 10.7924 53.5077 12.0183 54.4714C12.3879 54.7615 12.5525 54.7364 12.7659 54.2859C13.7645 52.1772 15.1228 50.3223 16.8466 48.7449C17.1186 48.4967 17.1172 48.3405 16.8787 48.0797C15.7463 46.8412 14.8383 45.4493 14.1047 43.9417C13.9918 43.7074 13.9444 43.388 13.7589 43.2569C13.5385 43.1007 13.3335 43.4564 13.0825 43.4898C12.9458 43.508 12.8161 43.5777 12.6808 43.5931C12.4423 43.6209 12.3377 43.7186 12.2959 43.9766C12.0379 45.5679 11.4744 47.0532 10.6823 48.4562C10.2918 49.1494 10.1007 49.9011 10.1188 50.7058L10.1202 50.7072ZM23.2467 52.597C24.3332 55.5215 27.2968 57.2147 30.6649 56.8981C33.0944 56.6693 35.8586 54.5355 36.1835 52.6235C31.895 54.2426 27.6078 54.2524 23.2467 52.597ZM12.8956 32.5864C12.5316 32.6115 12.1996 32.5516 11.8552 32.6771C9.20393 33.6533 8.43966 37.299 10.4814 39.2487C10.6446 39.4049 10.7562 39.5081 10.9947 39.3184C11.3531 39.0311 11.7952 38.9028 12.2596 38.9251C12.5385 38.9391 12.6013 38.8694 12.5678 38.5779C12.4381 37.4566 12.4019 36.3325 12.5037 35.2028C12.5818 34.3381 12.7408 33.4874 12.8942 32.5864H12.8956ZM46.6044 32.6241C46.8066 33.6115 46.9573 34.6017 47.0284 35.6045C47.1023 36.6323 47.0396 37.6546 46.9238 38.6727C46.8945 38.9237 47.0172 38.921 47.1916 38.9168C47.6365 38.9056 48.073 38.9907 48.4217 39.264C48.7215 39.4983 48.8791 39.3965 49.0981 39.165C50.9027 37.2669 50.363 34.0536 48.0367 32.8556C47.589 32.6255 47.1344 32.5153 46.6044 32.6227V32.6241ZM12.3098 40.4858C11.8691 40.483 11.5051 40.8358 11.5051 41.264C11.5051 41.6838 11.8914 42.0645 12.3084 42.0575C12.7199 42.0506 13.0713 41.7005 13.0755 41.2933C13.0797 40.8386 12.7464 40.4872 12.3098 40.4858ZM47.1818 40.4844C46.7216 40.4941 46.4287 40.8191 46.4454 41.3016C46.4608 41.7465 46.776 42.0617 47.1999 42.0589C47.6197 42.0561 47.9977 41.6726 47.9935 41.2556C47.9893 40.8288 47.6169 40.476 47.1818 40.4844Z" fill="#333333"/>
<path d="M34.7581 63.2647C34.7777 63.1029 34.9562 63.1001 35.0343 62.9885C35.217 62.7291 35.2937 62.4516 35.1654 62.1559C35.0482 61.8826 34.8237 61.7222 34.5211 61.6957C34.3662 61.6817 34.2087 61.6887 34.0525 61.6887C28.4878 61.6887 22.9245 61.6915 17.3598 61.6873C15.159 61.6859 13.5496 60.2369 13.3251 58.0696C13.2693 57.5257 13.3558 56.9957 13.544 56.4839C14.4994 53.894 16.0056 51.6751 18.0167 49.7895C18.2384 49.5817 18.3695 49.5552 18.608 49.77C19.3081 50.3962 20.0696 50.9471 20.8925 51.4031C21.1784 51.5621 21.3025 51.7769 21.382 52.0781C22.4057 55.9985 25.9746 58.6735 30.0177 58.5619C33.7735 58.4587 37.1458 55.7893 38.09 52.1535C38.189 51.7713 38.3661 51.53 38.7106 51.3362C39.4986 50.8913 40.2294 50.3585 40.903 49.7533C41.115 49.5622 41.2447 49.565 41.4553 49.7602C43.4998 51.6653 45.0423 53.9093 45.9768 56.5438C46.8512 59.011 45.0131 61.6287 42.3939 61.6845C40.8988 61.7166 39.4037 61.6999 37.9087 61.6887C37.4582 61.6859 37.0593 61.7515 36.892 62.2271C36.7232 62.7082 37.0328 62.9983 37.3675 63.2633H34.7581V63.2647Z" fill="#BDBDBD"/>
<path d="M25.4726 30.1834C24.8296 30.5698 24.117 30.7622 23.3931 30.924C23.4043 29.931 23.0431 29.6521 22.0654 29.9129C19.145 30.6911 16.1786 31.0816 13.1508 31.0244C12.724 31.016 12.5804 30.8849 12.5441 30.4791C12.2889 27.6075 12.6501 24.828 13.77 22.1642C13.968 21.6928 13.968 21.3051 13.7128 20.8434C12.5399 18.711 13.77 16.4056 16.2065 16.1225C16.9903 16.0319 17.1493 15.8659 17.2092 15.0821C17.3808 12.8353 19.8103 11.4867 21.7837 12.5829C22.336 12.8897 22.7851 12.8841 23.3485 12.661C27.665 10.9511 31.9898 10.9762 36.2965 12.6986C36.7804 12.8925 37.1709 12.8702 37.6242 12.6233C39.7176 11.4811 42.0829 12.753 42.3005 15.1212C42.3702 15.8743 42.5278 16.0319 43.2935 16.1141C45.7299 16.3763 46.9614 18.7208 45.7801 20.8797C45.5584 21.2841 45.5319 21.6328 45.7104 22.0582C46.8247 24.722 47.2306 27.4959 46.9642 30.3703C46.9028 31.0356 46.868 31.0593 46.2083 30.9784C43.7007 30.6744 41.6227 29.4415 39.6743 27.9422C38.1528 26.7721 36.8083 25.4151 35.5657 23.9535C34.9604 23.2422 34.6773 23.2185 33.966 23.814C31.5756 25.8154 28.9439 27.4123 26.0513 28.5796C25.0779 28.9729 24.9663 29.295 25.4726 30.1834Z" fill="white"/>
<path d="M45.7648 43.1691C46.013 43.2848 46.2432 43.4745 46.4844 43.4913C47.1148 43.5359 47.2138 43.9222 47.3059 44.4438C47.5458 45.805 48.0757 47.0685 48.7312 48.2847C49.939 50.5259 49.4021 53.0739 47.4732 54.4881C47.112 54.7531 46.9503 54.7796 46.7299 54.311C45.7355 52.1967 44.3715 50.3432 42.6561 48.7519C42.4553 48.5664 42.2823 48.4325 42.5599 48.1299C43.8653 46.7101 44.8862 45.1021 45.6532 43.3323C45.6797 43.2709 45.7271 43.2207 45.7634 43.1677L45.7648 43.1691Z" fill="white"/>
<path d="M10.1202 50.7072C10.1021 49.9039 10.2931 49.1508 10.6836 48.4576C11.4744 47.0532 12.0392 45.5693 12.2973 43.978C12.3391 43.72 12.4437 43.6223 12.6822 43.5944C12.8189 43.5791 12.9472 43.5094 13.0838 43.4912C13.3349 43.4564 13.5399 43.1007 13.7603 43.2583C13.9443 43.3894 13.9918 43.7102 14.1061 43.9431C14.8397 45.4507 15.7476 46.8426 16.8801 48.0811C17.1186 48.3419 17.12 48.4981 16.848 48.7463C15.1242 50.3223 13.7658 52.1786 12.7673 54.2873C12.5539 54.7378 12.3907 54.7629 12.0197 54.4728C10.7938 53.5091 10.1648 52.2594 10.1216 50.7086L10.1202 50.7072Z" fill="white"/>
<path d="M23.2467 52.597C27.6064 54.2524 31.8936 54.2426 36.1835 52.6234C35.8586 54.5355 33.0944 56.6693 30.6649 56.8981C27.2968 57.2147 24.3331 55.5215 23.2467 52.597Z" fill="#BDBDBD"/>
<path d="M12.8956 32.5864C12.7422 33.4888 12.5832 34.3381 12.5051 35.2028C12.4033 36.3325 12.4395 37.4566 12.5692 38.5779C12.6027 38.8694 12.54 38.9391 12.261 38.9251C11.7966 38.9014 11.3545 39.0311 10.9961 39.3184C10.7576 39.5081 10.646 39.4049 10.4828 39.2487C8.44106 37.299 9.20533 33.6519 11.8566 32.6771C12.1997 32.5502 12.533 32.6101 12.897 32.5864H12.8956Z" fill="white"/>
<path d="M46.6044 32.6241C47.1329 32.5167 47.589 32.6269 48.0367 32.857C50.3644 34.055 50.9041 37.2683 49.098 39.1664C48.8777 39.3979 48.7201 39.4997 48.4216 39.2654C48.0729 38.9921 47.6364 38.907 47.1915 38.9182C47.0186 38.9224 46.8959 38.9265 46.9237 38.6741C47.0395 37.6546 47.1023 36.6337 47.0283 35.6059C46.9558 34.6031 46.8066 33.6129 46.6044 32.6255V32.6241Z" fill="white"/>
<path d="M12.3098 40.4858C12.7464 40.4886 13.0797 40.84 13.0755 41.2933C13.0713 41.7005 12.7199 42.0506 12.3084 42.0575C11.8914 42.0645 11.5051 41.6824 11.5051 41.264C11.5051 40.8358 11.8691 40.483 12.3098 40.4858Z" fill="#BDBDBD"/>
<path d="M47.1818 40.4844C47.6169 40.476 47.9879 40.8288 47.9935 41.2556C47.9976 41.6726 47.6197 42.0547 47.1999 42.0589C46.7759 42.0617 46.4607 41.7465 46.4454 41.3016C46.4286 40.8191 46.7215 40.4941 47.1818 40.4844Z" fill="#BDBDBD"/>
<path d="M23.3374 38.5416C24.4796 38.5444 25.4182 39.4007 25.5409 40.5541C25.5939 41.0534 25.3303 41.4439 24.8868 41.5234C24.4461 41.6015 24.0877 41.3239 23.997 40.8023C23.9259 40.3979 23.7544 40.1022 23.3025 40.1162C22.8813 40.1287 22.7209 40.4146 22.6596 40.7996C22.5745 41.3239 22.2188 41.6126 21.7823 41.5415C21.3332 41.469 21.0669 41.091 21.1073 40.5848C21.2007 39.4286 22.1728 38.5388 23.3374 38.543V38.5416Z" fill="#333333"/>
<path d="M36.1821 38.5416C37.3439 38.5458 38.3146 39.4537 38.3913 40.6057C38.4247 41.1064 38.1416 41.4871 37.6926 41.5443C37.2728 41.5987 36.9171 41.3142 36.8418 40.8261C36.7804 40.4202 36.6215 40.1148 36.171 40.1134C35.7191 40.112 35.5629 40.4188 35.4974 40.8219C35.4179 41.3086 35.0594 41.5875 34.6383 41.529C34.1962 41.4676 33.9089 41.0729 33.9507 40.5806C34.0497 39.4188 35.0162 38.5346 36.1821 38.5388V38.5416Z" fill="#333333"/>
<path d="M29.7388 45.5735C28.9508 45.5735 28.2814 45.2862 27.7347 44.7227C27.3679 44.3462 27.3498 43.8943 27.6705 43.5666C27.976 43.2555 28.4041 43.2569 28.7904 43.5721C29.5198 44.1677 29.9703 44.1649 30.7234 43.5582C31.107 43.25 31.5421 43.2583 31.8419 43.5805C32.1418 43.9027 32.1306 44.3406 31.7876 44.7004C31.2325 45.282 30.5477 45.5776 29.7402 45.5721L29.7388 45.5735Z" fill="#333333"/>
<path d="M29.5616 33.8207C29.5784 33.8207 29.5937 33.8207 29.6091 33.8207C31.2938 33.8402 32.7833 34.0383 34.2589 34.2935C34.648 34.3604 34.8167 34.5696 34.74 34.8318C34.6647 35.087 34.3858 35.2181 33.9841 35.1638C32.8963 35.0159 31.8182 34.8402 30.7122 34.7663C29.0721 34.6561 27.485 34.8723 25.8965 35.1108C25.7612 35.1317 25.6259 35.1568 25.4893 35.1693C25.1239 35.2042 24.8324 35.0703 24.7585 34.8388C24.679 34.5864 24.8575 34.3618 25.2368 34.2963C26.287 34.115 27.3441 33.9574 28.4194 33.8835C28.8476 33.8542 29.2785 33.8374 29.5589 33.8235L29.5616 33.8207Z" fill="#333333"/>
</g>
</g>
<defs>
<clipPath id="clip0_1130_5276">
<path d="M0 30C0 13.4315 13.4315 0 30 0C46.5685 0 60 13.4315 60 30C60 46.5685 46.5685 60 30 60C13.4315 60 0 46.5685 0 30Z" fill="white"/>
</clipPath>
<clipPath id="clip1_1130_5276">
<rect width="44" height="53.4293" fill="white" transform="translate(7.74512 9.83545)"/>
</clipPath>
</defs>
</svg>
