<svg width="64" height="64" viewBox="0 0 64 64" fill="none" xmlns="http://www.w3.org/2000/svg">
<g clip-path="url(#clip0_1130_5585)">
<mask id="path-1-outside-1_1130_5585" maskUnits="userSpaceOnUse" x="0" y="0" width="64" height="64" fill="black">
<rect fill="white" width="64" height="64"/>
<path d="M2 32C2 15.4315 15.4315 2 32 2C48.5685 2 62 15.4315 62 32C62 48.5685 48.5685 62 32 62C15.4315 62 2 48.5685 2 32Z"/>
</mask>
<path d="M2 32C2 15.4315 15.4315 2 32 2C48.5685 2 62 15.4315 62 32C62 48.5685 48.5685 62 32 62C15.4315 62 2 48.5685 2 32Z" fill="#FFF5E6"/>
<g clip-path="url(#clip1_1130_5585)">
<path d="M46.9937 34.6994C46.9309 34.4247 46.8151 34.3033 46.5362 34.2322C45.6618 34.0076 44.8208 33.6799 44.0091 33.281C41.2965 31.9491 39.0581 30.0189 37.0777 27.7707C36.7708 27.4221 36.5965 27.3021 36.1558 27.6578C33.9006 29.4806 31.4042 30.9031 28.7237 32.0105C28.3095 32.182 27.9148 32.302 27.4727 32.1834C26.8297 32.5698 26.1171 32.7622 25.3932 32.924C25.1882 33.1402 24.9651 33.3173 24.6624 33.3954C22.1325 34.0467 19.5761 34.5279 16.9556 34.5739C16.5944 34.5795 16.4884 34.7133 16.4242 35.0244C16.0992 36.5808 15.9514 38.1428 16.0672 39.7369C16.6097 47.2206 22.6025 53.4464 30.0723 54.1786C34.7402 54.636 38.9228 53.3599 42.3439 50.1229C46.8054 45.9027 48.3562 40.7201 46.9937 34.6994Z" fill="white"/>
<path d="M18.1828 65.2647C18.1214 65.0694 17.9304 65.1071 17.7965 65.068C14.9291 64.2494 13.2638 61.5284 13.8775 58.6289C13.9333 58.3625 13.8775 58.2342 13.646 58.0892C10.6028 56.1715 9.68794 52.6709 11.4048 49.5176C12.1091 48.2248 12.6028 46.8664 12.791 45.402C12.8189 45.19 12.7813 45.0505 12.6293 44.8971C12.1523 44.4174 11.9291 43.8232 11.9612 43.1496C11.9724 42.9265 11.8873 42.8093 11.7353 42.6713C8.69494 39.9098 9.21515 35.4414 12.8106 33.4484C13.0058 33.3396 13.0881 33.2448 13.0574 33.0133C12.6446 29.8641 13.0435 26.814 14.1955 23.8587C14.2694 23.6677 14.254 23.5115 14.169 23.3204C12.8929 20.4335 14.3042 17.4852 17.3613 16.6749C17.6207 16.6065 17.6863 16.4852 17.7421 16.2774C18.5482 13.2621 21.5272 11.8256 24.3569 13.0962C24.5884 13.2008 24.7684 13.1882 24.9943 13.1031C29.506 11.4142 34.0219 11.4086 38.5322 13.1045C38.7651 13.1924 38.945 13.1854 39.1696 13.0836C41.9547 11.827 44.9741 13.2831 45.7496 16.2551C45.8123 16.495 45.9058 16.6079 46.1707 16.6777C49.1776 17.4656 50.596 20.4362 49.3422 23.3009C49.2487 23.5129 49.2529 23.6802 49.3324 23.8866C50.4579 26.8294 50.8638 29.8641 50.4426 32.9937C50.3952 33.3452 50.6127 33.3968 50.8177 33.507C53.8135 35.122 54.6754 39.0326 52.6378 41.7536C52.628 41.7675 52.621 41.7856 52.6085 41.7968C51.9865 42.4104 51.3658 43.0143 51.4077 44.0045C51.4174 44.2472 51.2501 44.522 51.0479 44.681C50.6281 45.0101 50.688 45.4187 50.7703 45.8511C51.006 47.0867 51.3742 48.2833 52.0241 49.3614C53.9473 52.5538 52.7187 56.4756 49.8261 58.1129C49.6309 58.2231 49.5528 58.336 49.61 58.5661C50.4147 61.7836 48.0019 64.7947 45.2015 65.1615C45.1666 65.1657 45.1401 65.227 45.1094 65.2619H39.3704C39.0357 64.9969 38.7261 64.7068 38.8948 64.2257C39.0622 63.7487 39.4611 63.6831 39.9115 63.6873C41.4066 63.6985 42.9031 63.7152 44.3967 63.6831C47.0159 63.6274 48.8541 61.0096 47.9796 58.5424C47.0466 55.9079 45.5027 53.6639 43.4581 51.7588C43.2475 51.5622 43.1178 51.5608 42.9059 51.7519C42.2322 52.3571 41.5014 52.8913 40.7135 53.3348C40.369 53.53 40.1919 53.7699 40.0928 54.1521C39.15 57.7879 35.7764 60.4573 32.0206 60.5605C27.9761 60.6721 24.4085 57.9971 23.3849 54.0767C23.3068 53.7755 23.1826 53.5593 22.8953 53.4017C22.0725 52.9457 21.3124 52.3948 20.6109 51.7686C20.371 51.5552 20.2399 51.5803 20.0195 51.7881C18.0085 53.6737 16.5022 55.8926 15.5469 58.4825C15.3586 58.9943 15.2707 59.5229 15.3279 60.0682C15.5525 62.2355 17.1619 63.6845 19.3627 63.6859C24.9273 63.6901 30.4906 63.6873 36.0553 63.6873C36.2115 63.6873 36.3691 63.6803 36.5239 63.6943C36.8265 63.7208 37.0511 63.8812 37.1682 64.1545C37.2952 64.4502 37.2198 64.7263 37.0371 64.9871C36.959 65.0973 36.7805 65.1001 36.761 65.2633H18.1828V65.2647ZM25.3932 32.924C25.1881 33.1402 24.965 33.3173 24.6624 33.3954C22.1325 34.0467 19.576 34.5279 16.9555 34.5739C16.5943 34.5795 16.4883 34.7133 16.4241 35.0244C16.0992 36.5808 15.9513 38.1428 16.0671 39.7369C16.6096 47.2206 22.6025 53.4464 30.0722 54.1786C34.7401 54.636 38.9227 53.3599 42.3438 50.1229C46.8053 45.9027 48.3562 40.7201 46.9936 34.6994C46.9308 34.4247 46.8151 34.3033 46.5361 34.2322C45.6617 34.0076 44.8207 33.6799 44.009 33.281C41.2964 31.9491 39.058 30.0189 37.0776 27.7707C36.7708 27.4221 36.5964 27.3021 36.1557 27.6578C33.9006 29.4806 31.4041 30.9031 28.7236 32.0105C28.3094 32.182 27.9147 32.302 27.4726 32.1834C26.9663 31.295 27.0779 30.9729 28.0514 30.5796C30.9439 29.4123 33.577 27.8168 35.966 25.814C36.6773 25.2185 36.9604 25.2422 37.5657 25.9535C38.8084 27.4137 40.1528 28.7721 41.6744 29.9422C43.6227 31.4415 45.7007 32.6744 48.2083 32.9784C48.8666 33.0579 48.9015 33.0356 48.9642 32.3703C49.2306 29.4959 48.8248 26.722 47.7104 24.0582C47.5333 23.6328 47.5598 23.2841 47.7802 22.8797C48.9614 20.7208 47.73 18.3763 45.2935 18.1141C44.5278 18.0319 44.3702 17.8743 44.3005 17.1212C44.0816 14.753 41.7176 13.4797 39.6242 14.6233C39.171 14.8702 38.7805 14.8925 38.2965 14.6986C33.9898 12.9776 29.665 12.9525 25.3485 14.661C24.7851 14.8841 24.336 14.8897 23.7837 14.5829C21.8103 13.4867 19.3822 14.8367 19.2093 17.0821C19.1493 17.8673 18.9903 18.0319 18.2065 18.1225C15.7714 18.4042 14.5399 20.711 15.7129 22.8434C15.9667 23.3051 15.9681 23.6928 15.77 24.1642C14.6515 26.828 14.2889 29.6075 14.5441 32.4791C14.5804 32.885 14.724 33.016 15.1508 33.0244C18.1772 33.0816 21.1436 32.6897 24.0654 31.9129C25.0445 31.6521 25.4043 31.931 25.3932 32.924ZM47.7648 45.1691C47.7286 45.2221 47.6812 45.2737 47.6547 45.3336C46.8876 47.1035 45.8653 48.7115 44.5613 50.1313C44.2838 50.4325 44.4567 50.5664 44.6575 50.7533C46.373 52.3432 47.7369 54.1981 48.7313 56.3124C48.9517 56.781 49.1149 56.7531 49.4747 56.4895C51.4035 55.0753 51.9404 52.5273 50.7327 50.2861C50.0772 49.0685 49.5472 47.8064 49.3073 46.4452C49.2153 45.9236 49.1176 45.5373 48.4859 45.4926C48.2446 45.4759 48.0145 45.2876 47.7662 45.1705L47.7648 45.1691ZM12.1202 52.7072C12.1621 54.2581 12.7924 55.5077 14.0183 56.4714C14.3879 56.7615 14.5525 56.7364 14.7659 56.2859C15.7645 54.1772 17.1228 52.3223 18.8466 50.7449C19.1186 50.4967 19.1172 50.3405 18.8787 50.0797C17.7463 48.8412 16.8383 47.4493 16.1047 45.9417C15.9918 45.7074 15.9444 45.388 15.7589 45.2569C15.5385 45.1007 15.3335 45.4564 15.0825 45.4898C14.9458 45.508 14.8161 45.5777 14.6808 45.5931C14.4423 45.6209 14.3377 45.7186 14.2959 45.9766C14.0379 47.5679 13.4744 49.0532 12.6823 50.4562C12.2918 51.1494 12.1007 51.9011 12.1188 52.7058L12.1202 52.7072ZM25.2467 54.597C26.3332 57.5215 29.2968 59.2147 32.6649 58.8981C35.0944 58.6693 37.8586 56.5355 38.1835 54.6235C33.895 56.2426 29.6078 56.2524 25.2467 54.597ZM14.8956 34.5864C14.5316 34.6115 14.1996 34.5516 13.8552 34.6771C11.2039 35.6533 10.4397 39.299 12.4814 41.2487C12.6446 41.4049 12.7562 41.5081 12.9947 41.3184C13.3531 41.0311 13.7952 40.9028 14.2596 40.9251C14.5385 40.9391 14.6013 40.8694 14.5678 40.5779C14.4381 39.4566 14.4019 38.3325 14.5037 37.2028C14.5818 36.3381 14.7408 35.4874 14.8942 34.5864H14.8956ZM48.6044 34.6241C48.8066 35.6115 48.9573 36.6017 49.0284 37.6045C49.1023 38.6323 49.0396 39.6546 48.9238 40.6727C48.8945 40.9237 49.0172 40.921 49.1916 40.9168C49.6365 40.9056 50.073 40.9907 50.4217 41.264C50.7215 41.4983 50.8791 41.3965 51.0981 41.165C52.9027 39.2669 52.363 36.0536 50.0367 34.8556C49.589 34.6255 49.1344 34.5153 48.6044 34.6227V34.6241ZM14.3098 42.4858C13.8691 42.483 13.5051 42.8358 13.5051 43.264C13.5051 43.6838 13.8914 44.0645 14.3084 44.0575C14.7199 44.0506 15.0713 43.7005 15.0755 43.2933C15.0797 42.8386 14.7464 42.4872 14.3098 42.4858ZM49.1818 42.4844C48.7216 42.4941 48.4287 42.8191 48.4454 43.3016C48.4608 43.7465 48.776 44.0617 49.1999 44.0589C49.6197 44.0561 49.9977 43.6726 49.9935 43.2556C49.9893 42.8288 49.6169 42.476 49.1818 42.4844Z" fill="#333333"/>
<path d="M36.7581 65.2647C36.7777 65.1029 36.9562 65.1001 37.0343 64.9885C37.217 64.7291 37.2937 64.4516 37.1654 64.1559C37.0482 63.8826 36.8237 63.7222 36.5211 63.6957C36.3662 63.6817 36.2087 63.6887 36.0525 63.6887C30.4878 63.6887 24.9245 63.6915 19.3598 63.6873C17.159 63.6859 15.5496 62.2369 15.3251 60.0696C15.2693 59.5257 15.3558 58.9957 15.544 58.4839C16.4994 55.894 18.0056 53.6751 20.0167 51.7895C20.2384 51.5817 20.3695 51.5552 20.608 51.77C21.3081 52.3962 22.0696 52.9471 22.8925 53.4031C23.1784 53.5621 23.3025 53.7769 23.382 54.0781C24.4057 57.9985 27.9746 60.6735 32.0177 60.5619C35.7735 60.4587 39.1458 57.7893 40.09 54.1535C40.189 53.7713 40.3661 53.53 40.7106 53.3362C41.4986 52.8913 42.2294 52.3585 42.903 51.7533C43.115 51.5622 43.2447 51.565 43.4553 51.7602C45.4998 53.6653 47.0423 55.9093 47.9768 58.5438C48.8512 61.011 47.0131 63.6287 44.3939 63.6845C42.8988 63.7166 41.4037 63.6999 39.9087 63.6887C39.4582 63.6859 39.0593 63.7515 38.892 64.2271C38.7232 64.7082 39.0328 64.9983 39.3675 65.2633H36.7581V65.2647Z" fill="#FF8120"/>
<path d="M27.4726 32.1834C26.8296 32.5698 26.117 32.7622 25.3931 32.924C25.4043 31.931 25.0431 31.6521 24.0654 31.9129C21.145 32.6911 18.1786 33.0816 15.1508 33.0244C14.724 33.016 14.5804 32.8849 14.5441 32.4791C14.2889 29.6075 14.6501 26.828 15.77 24.1642C15.968 23.6928 15.968 23.3051 15.7128 22.8434C14.5399 20.711 15.77 18.4056 18.2065 18.1225C18.9903 18.0319 19.1493 17.8659 19.2092 17.0821C19.3808 14.8353 21.8103 13.4867 23.7837 14.5829C24.336 14.8897 24.7851 14.8841 25.3485 14.661C29.665 12.9511 33.9898 12.9762 38.2965 14.6986C38.7804 14.8925 39.1709 14.8702 39.6242 14.6233C41.7176 13.4811 44.0829 14.753 44.3005 17.1212C44.3702 17.8743 44.5278 18.0319 45.2935 18.1141C47.7299 18.3763 48.9614 20.7208 47.7801 22.8797C47.5584 23.2841 47.5319 23.6328 47.7104 24.0582C48.8247 26.722 49.2306 29.4959 48.9642 32.3703C48.9028 33.0356 48.868 33.0593 48.2083 32.9784C45.7007 32.6744 43.6227 31.4415 41.6743 29.9422C40.1528 28.7721 38.8083 27.4151 37.5657 25.9535C36.9604 25.2422 36.6773 25.2185 35.966 25.814C33.5756 27.8154 30.9439 29.4123 28.0513 30.5796C27.0779 30.9729 26.9663 31.295 27.4726 32.1834Z" fill="white"/>
<path d="M47.7648 45.1691C48.013 45.2848 48.2432 45.4745 48.4844 45.4913C49.1148 45.5359 49.2138 45.9222 49.3059 46.4438C49.5458 47.805 50.0757 49.0685 50.7312 50.2847C51.939 52.5259 51.4021 55.0739 49.4732 56.4881C49.112 56.7531 48.9503 56.7796 48.7299 56.311C47.7355 54.1967 46.3715 52.3432 44.6561 50.7519C44.4553 50.5664 44.2823 50.4325 44.5599 50.1299C45.8653 48.7101 46.8862 47.1021 47.6532 45.3323C47.6797 45.2709 47.7271 45.2207 47.7634 45.1677L47.7648 45.1691Z" fill="white"/>
<path d="M12.1202 52.7072C12.1021 51.9039 12.2931 51.1508 12.6836 50.4576C13.4744 49.0532 14.0392 47.5693 14.2973 45.978C14.3391 45.72 14.4437 45.6223 14.6822 45.5944C14.8189 45.5791 14.9472 45.5094 15.0838 45.4912C15.3349 45.4564 15.5399 45.1007 15.7603 45.2583C15.9443 45.3894 15.9918 45.7102 16.1061 45.9431C16.8397 47.4507 17.7476 48.8426 18.8801 50.0811C19.1186 50.3419 19.12 50.4981 18.848 50.7463C17.1242 52.3223 15.7658 54.1786 14.7673 56.2873C14.5539 56.7378 14.3907 56.7629 14.0197 56.4728C12.7938 55.5091 12.1648 54.2594 12.1216 52.7086L12.1202 52.7072Z" fill="white"/>
<path d="M25.2467 54.597C29.6064 56.2524 33.8936 56.2426 38.1835 54.6234C37.8586 56.5355 35.0944 58.6693 32.6649 58.8981C29.2968 59.2147 26.3331 57.5215 25.2467 54.597Z" fill="#FF8120"/>
<path d="M14.8956 34.5864C14.7422 35.4888 14.5832 36.3381 14.5051 37.2028C14.4033 38.3325 14.4395 39.4566 14.5692 40.5779C14.6027 40.8694 14.54 40.9391 14.261 40.9251C13.7966 40.9014 13.3545 41.0311 12.9961 41.3184C12.7576 41.5081 12.646 41.4049 12.4828 41.2487C10.4411 39.299 11.2053 35.6519 13.8566 34.6771C14.1997 34.5502 14.533 34.6101 14.897 34.5864H14.8956Z" fill="white"/>
<path d="M48.6044 34.6241C49.1329 34.5167 49.589 34.6269 50.0367 34.857C52.3644 36.055 52.9041 39.2683 51.098 41.1664C50.8777 41.3979 50.7201 41.4997 50.4216 41.2654C50.0729 40.9921 49.6364 40.907 49.1915 40.9182C49.0186 40.9224 48.8959 40.9265 48.9237 40.6741C49.0395 39.6546 49.1023 38.6337 49.0283 37.6059C48.9558 36.6031 48.8066 35.6129 48.6044 34.6255V34.6241Z" fill="white"/>
<path d="M14.3098 42.4858C14.7464 42.4886 15.0797 42.84 15.0755 43.2933C15.0713 43.7005 14.7199 44.0506 14.3084 44.0575C13.8914 44.0645 13.5051 43.6824 13.5051 43.264C13.5051 42.8358 13.8691 42.483 14.3098 42.4858Z" fill="#FF8120"/>
<path d="M49.1818 42.4844C49.6169 42.476 49.9879 42.8288 49.9935 43.2556C49.9976 43.6726 49.6197 44.0547 49.1999 44.0589C48.7759 44.0617 48.4607 43.7465 48.4454 43.3016C48.4286 42.8191 48.7215 42.4941 49.1818 42.4844Z" fill="#FF8120"/>
<path d="M25.3374 40.5416C26.4796 40.5444 27.4182 41.4007 27.5409 42.5541C27.5939 43.0534 27.3303 43.4439 26.8868 43.5234C26.4461 43.6015 26.0877 43.3239 25.997 42.8023C25.9259 42.3979 25.7544 42.1022 25.3025 42.1162C24.8813 42.1287 24.7209 42.4146 24.6596 42.7996C24.5745 43.3239 24.2188 43.6126 23.7823 43.5415C23.3332 43.469 23.0669 43.091 23.1073 42.5848C23.2007 41.4286 24.1728 40.5388 25.3374 40.543V40.5416Z" fill="#333333"/>
<path d="M38.1821 40.5416C39.3439 40.5458 40.3146 41.4537 40.3913 42.6057C40.4247 43.1064 40.1416 43.4871 39.6926 43.5443C39.2728 43.5987 38.9171 43.3142 38.8418 42.8261C38.7804 42.4202 38.6215 42.1148 38.171 42.1134C37.7191 42.112 37.5629 42.4188 37.4974 42.8219C37.4179 43.3086 37.0594 43.5875 36.6383 43.529C36.1962 43.4676 35.9089 43.0729 35.9507 42.5806C36.0497 41.4188 37.0162 40.5346 38.1821 40.5388V40.5416Z" fill="#333333"/>
<path d="M31.7388 47.5735C30.9508 47.5735 30.2814 47.2862 29.7347 46.7227C29.3679 46.3462 29.3498 45.8943 29.6705 45.5666C29.976 45.2555 30.4041 45.2569 30.7904 45.5721C31.5198 46.1677 31.9703 46.1649 32.7234 45.5582C33.107 45.25 33.5421 45.2583 33.8419 45.5805C34.1418 45.9027 34.1306 46.3406 33.7876 46.7004C33.2325 47.282 32.5477 47.5776 31.7402 47.5721L31.7388 47.5735Z" fill="#333333"/>
<path d="M31.5616 35.8207C31.5784 35.8207 31.5937 35.8207 31.6091 35.8207C33.2938 35.8402 34.7833 36.0383 36.2589 36.2935C36.648 36.3604 36.8167 36.5696 36.74 36.8318C36.6647 37.087 36.3858 37.2181 35.9841 37.1638C34.8963 37.0159 33.8182 36.8402 32.7122 36.7663C31.0721 36.6561 29.485 36.8723 27.8965 37.1108C27.7612 37.1317 27.6259 37.1568 27.4893 37.1693C27.1239 37.2042 26.8324 37.0703 26.7585 36.8388C26.679 36.5864 26.8575 36.3618 27.2368 36.2963C28.287 36.115 29.3441 35.9574 30.4194 35.8835C30.8476 35.8542 31.2785 35.8374 31.5589 35.8235L31.5616 35.8207Z" fill="#333333"/>
</g>
</g>
<path d="M32 60C16.536 60 4 47.464 4 32H0C0 49.6731 14.3269 64 32 64V60ZM60 32C60 47.464 47.464 60 32 60V64C49.6731 64 64 49.6731 64 32H60ZM32 4C47.464 4 60 16.536 60 32H64C64 14.3269 49.6731 0 32 0V4ZM32 0C14.3269 0 0 14.3269 0 32H4C4 16.536 16.536 4 32 4V0Z" fill="#EE6002" mask="url(#path-1-outside-1_1130_5585)"/>
<defs>
<clipPath id="clip0_1130_5585">
<path d="M2 32C2 15.4315 15.4315 2 32 2C48.5685 2 62 15.4315 62 32C62 48.5685 48.5685 62 32 62C15.4315 62 2 48.5685 2 32Z" fill="white"/>
</clipPath>
<clipPath id="clip1_1130_5585">
<rect width="44" height="53.4293" fill="white" transform="translate(9.74512 11.8354)"/>
</clipPath>
</defs>
</svg>
