<svg width="64" height="64" viewBox="0 0 64 64" fill="none" xmlns="http://www.w3.org/2000/svg">
<g clip-path="url(#clip0_1130_5282)">
<mask id="path-1-outside-1_1130_5282" maskUnits="userSpaceOnUse" x="0" y="0" width="64" height="64" fill="black">
<rect fill="white" width="64" height="64"/>
<path d="M2 32C2 15.4315 15.4315 2 32 2C48.5685 2 62 15.4315 62 32C62 48.5685 48.5685 62 32 62C15.4315 62 2 48.5685 2 32Z"/>
</mask>
<path d="M2 32C2 15.4315 15.4315 2 32 2C48.5685 2 62 15.4315 62 32C62 48.5685 48.5685 62 32 62C15.4315 62 2 48.5685 2 32Z" fill="#FFF5E6"/>
<path d="M47.0123 36.2409C46.9708 35.9321 46.8524 35.8552 46.5655 35.8259C43.7656 35.5428 41.5087 34.3015 39.8708 31.9873C39.5729 31.5662 39.1872 31.3562 38.6697 31.3843C36.5606 31.4991 34.5174 31.1915 32.5547 30.3969C32.1837 30.2468 31.8187 30.2431 31.4477 30.3932C29.485 31.189 27.4418 31.4966 25.3326 31.3831C24.8347 31.3562 24.4404 31.5344 24.1548 31.9409C22.5058 34.2905 20.2307 35.5538 17.3941 35.8333C17.1195 35.8601 17.0194 35.9541 16.9828 36.2336C16.5129 39.833 17.4295 43.0614 19.6692 45.8846C22.8024 49.8343 27.0182 51.5663 31.9676 51.7054C32.5523 51.7067 33.1296 51.6725 33.7045 51.6066C38.1815 51.0952 41.892 49.1801 44.5992 45.5257C46.6412 42.7697 47.4663 39.6646 47.011 36.2385L47.0123 36.2409Z" fill="white"/>
<path d="M20.6202 19.2605C20.0758 19.595 19.529 19.9221 19.0469 20.3468C18.3524 20.9596 17.7751 21.6602 17.4711 22.5463C17.1526 23.4727 16.5362 24.0696 15.6281 24.4296C14.1427 25.0179 12.9538 25.9907 12.1373 27.3736C10.3894 30.3323 11.8077 33.629 15.185 34.282C18.3341 34.891 20.9485 33.8646 22.8965 31.3038C23.6045 30.3725 24.4393 29.9099 25.6159 29.9759C27.4297 30.0772 29.1922 29.7928 30.8802 29.1056C31.6199 28.8041 32.3522 28.7858 33.0968 29.0897C34.8422 29.8025 36.6632 30.0796 38.5405 29.9783C39.6902 29.916 40.4982 30.425 41.1476 31.3429C43.0224 33.9939 46.7634 35.1669 49.6634 34.0476C52.3059 33.0285 53.3593 30.4262 52.1448 27.8704C51.3344 26.1653 49.9722 25.0484 48.2476 24.3503C47.536 24.0622 46.9684 23.6131 46.7121 22.8856C46.0542 21.0182 44.6945 19.8367 42.9589 19.0616C39.8306 17.6641 36.6315 17.5554 33.4226 18.7552C32.4523 19.1177 31.5698 19.1287 30.6031 18.7516C28.2731 17.8423 25.8649 17.7495 23.4262 18.2524" fill="white"/>
<path d="M22.4107 17.8607C22.5107 18.2537 22.861 18.4038 23.4079 18.2915C25.8465 17.7887 28.2547 17.8814 30.5848 18.7907C31.5527 19.1691 32.4339 19.1569 33.4042 18.7944C36.6143 17.5946 39.8134 17.7032 42.9405 19.1008C44.6774 19.877 46.0358 21.0573 46.6937 22.9248C46.95 23.6522 47.5176 24.1014 48.2292 24.3894C49.9538 25.0876 51.316 26.2032 52.1264 27.9095C53.3409 30.4654 52.2875 33.0676 49.645 34.0868C46.745 35.2061 43.004 34.0319 41.1292 31.382C40.4798 30.4642 39.6718 29.9552 38.5221 30.0175C36.6448 30.12 34.8238 29.8429 33.0784 29.1289C32.3338 28.825 31.6015 28.8433 30.8618 29.1448C29.1738 29.8319 27.4113 30.1163 25.5975 30.015C24.4209 29.9491 23.5861 30.4117 22.8781 31.343C20.9313 33.9025 18.3157 34.9302 15.1666 34.3211C11.7893 33.6681 10.371 30.3714 12.1189 27.4128C12.9354 26.0299 14.1243 25.0571 15.6097 24.4688C16.5178 24.1087 17.1342 23.5119 17.4527 22.5855C17.7579 21.6993 18.334 20.9987 19.0285 20.386C19.5094 19.9613 20.0574 19.6341 20.6018 19.2997C20.9631 19.0776 21.0534 18.7285 20.8825 18.3989C20.7007 18.0523 20.3174 17.9095 19.95 18.1084C18.262 19.0239 16.8742 20.2395 16.1785 22.0875C15.9685 22.6453 15.6231 22.9858 15.0739 23.2055C13.5579 23.8121 12.2971 24.7678 11.3389 26.097C9.2701 28.9665 9.57524 32.6172 12.3935 34.575C12.5961 34.7154 12.5449 34.8021 12.4252 34.9632C10.9069 37.0039 11.0228 39.3706 12.7402 41.2845C12.8939 41.4553 12.883 41.5725 12.7987 41.7568C11.9566 43.5852 11.8064 45.4856 12.3752 47.4043C13.0941 49.8259 14.5258 51.6043 17.0927 52.2451C17.4833 52.3427 17.216 52.5026 17.1391 52.6149C16.364 53.7476 15.7256 54.9523 15.224 56.229C13.8338 59.7686 16.2725 63.3766 20.0769 63.3827C26.0284 63.3925 31.9799 63.3851 37.9313 63.3851C38.5428 63.3851 38.6868 63.2729 38.8663 62.676C38.6905 62.1182 38.5416 62.0071 37.9472 62.0059C32.0116 62.0035 26.076 62.0035 20.1416 61.9986C18.1363 61.9974 16.6435 60.7841 16.2554 58.8398C16.1272 58.2002 16.2078 57.5667 16.4372 56.9577C17.4796 54.1943 19.1481 51.8777 21.4232 49.9968C21.5611 49.8821 21.7052 49.71 21.8699 49.9321C22.0506 50.175 22.5669 50.1042 22.4277 50.662C21.7906 53.2167 22.8464 55.6517 24.9982 56.6867C27.0683 57.6827 29.7011 57.0443 31.3488 55.1415C31.5746 54.8803 31.7736 54.5959 32.0116 54.2871C32.5755 55.1525 33.2663 55.8616 34.1451 56.3791C37.2405 58.2039 40.8546 56.6818 41.6382 53.2179C41.8334 52.3537 41.7944 51.4908 41.5552 50.6462C41.4014 50.1042 41.9384 50.1591 42.1264 49.9163C42.2948 49.699 42.4388 49.8784 42.5756 49.9907C44.8385 51.8618 46.5131 54.1577 47.5432 56.9101C48.4574 59.3536 46.7059 61.9376 44.0951 61.9974C43.1065 62.0206 42.1166 62.0169 41.128 61.9974C40.6251 61.9876 40.3126 62.1744 40.204 62.6736C40.3468 63.0995 40.4481 63.2753 40.7117 63.3424C40.7593 63.3546 40.8131 63.3632 40.8729 63.3693C40.962 63.379 41.0669 63.3815 41.1902 63.3815C42.1496 63.3815 43.1077 63.3913 44.0671 63.379C47.6787 63.329 50.1027 59.7613 48.8273 56.3852C48.3256 55.0573 47.6726 53.8098 46.8683 52.643C46.7157 52.4208 46.6058 52.311 47.005 52.2195C48.2426 51.9363 49.2911 51.2894 50.082 50.2995C52.1496 47.7107 52.4548 44.8644 51.2305 41.8215C51.1512 41.6238 51.0621 41.4858 51.2611 41.2674C52.9759 39.3828 53.0821 37.0369 51.5577 34.9473C51.4222 34.7606 51.4429 34.6885 51.6187 34.564C54.2466 32.6966 54.7433 29.3095 52.9003 26.4559C51.9324 24.957 50.5971 23.878 48.942 23.2128C48.3659 22.9809 47.9924 22.6221 47.7898 22.0216C47.4956 21.144 46.9635 20.4007 46.3105 19.7477C44.8336 18.2708 43.0088 17.464 41.0096 16.9806C40.3846 16.8293 39.7341 16.8317 39.1226 16.6206H36.3824C36.0577 16.789 35.6928 16.7609 35.3474 16.8281C34.4222 17.0075 33.5117 17.237 32.6402 17.608C32.2484 17.7752 31.8517 17.8045 31.4452 17.6385C30.2137 17.1381 28.9407 16.8085 27.6127 16.7024C27.581 16.6999 27.5541 16.6486 27.5248 16.6206H24.6943C24.1951 16.8439 23.6398 16.8073 23.1222 16.9526C22.5425 17.1149 22.2959 17.4017 22.4131 17.8582L22.4107 17.8607ZM13.6666 35.6015C13.7837 35.466 13.9033 35.3733 14.0974 35.4502C14.5234 35.6186 14.9713 35.7138 15.4205 35.7785C15.6304 35.809 15.6597 35.8908 15.6304 36.0751C15.3509 37.8412 15.4901 39.5879 15.9209 41.3833C14.4563 41.1685 13.4505 40.4484 12.9599 39.1204C12.4802 37.8229 12.7633 36.6414 13.6653 35.6015H13.6666ZM18.5757 50.8048C18.4255 50.9818 18.2583 51.0087 18.0533 50.9977C16.6301 50.922 15.5267 50.2421 14.7199 49.1156C13.2748 47.0955 13.0734 44.8998 13.9217 42.5831C14.0181 42.3207 14.123 42.278 14.3781 42.3939C14.9079 42.6344 15.473 42.754 16.0576 42.7479C16.2358 42.7467 16.3591 42.7674 16.436 42.9688C17.2928 45.2098 18.6501 47.1065 20.4126 48.7225C20.4663 48.7714 20.5066 48.8361 20.5554 48.8983C19.8475 49.5 19.1664 50.1079 18.5757 50.8048ZM26.0809 55.5943C24.2366 55.0316 23.4018 53.2008 23.7045 51.3529C23.7582 51.0209 23.9303 51.1661 24.0889 51.2454C25.3669 51.8899 26.7107 52.3501 28.1058 52.6637C29.0529 52.8773 30.0172 52.975 30.9888 53.0677C30.3028 54.9596 27.9569 56.1668 26.0809 55.5943ZM37.6933 55.6553C35.8857 56.0947 33.6362 54.8632 33.0015 53.0629C34.0035 52.9603 34.9983 52.8627 35.9772 52.6369C37.3296 52.3244 38.6331 51.8838 39.8671 51.2503C40.1723 51.0941 40.2711 51.1344 40.3126 51.4871C40.5567 53.5523 39.5229 55.211 37.6933 55.6566V55.6553ZM33.7057 51.6092C33.1308 51.6751 32.5535 51.7105 31.9689 51.708C27.0195 51.5689 22.8037 49.8369 19.6705 45.8872C17.4308 43.064 16.5141 39.8356 16.984 36.2362C17.0207 35.9579 17.1195 35.8627 17.3954 35.8359C20.232 35.5564 22.5071 34.2919 24.1561 31.9435C24.4417 31.537 24.8371 31.3588 25.3339 31.3857C27.443 31.498 29.4862 31.1916 31.4489 30.3958C31.8212 30.2445 32.1849 30.2481 32.556 30.3995C34.5186 31.1941 36.5618 31.5004 38.671 31.3869C39.1885 31.3588 39.5742 31.57 39.872 31.9899C41.5088 34.3028 43.7668 35.5454 46.5668 35.8285C46.8536 35.8578 46.972 35.9347 47.0135 36.2435C47.4688 39.6696 46.6437 42.7735 44.6017 45.5308C41.8945 49.1851 38.1852 51.1002 33.7069 51.6116L33.7057 51.6092ZM48.4428 50.0005C47.7336 50.6156 46.8988 50.9525 45.9528 51.0026C45.7258 51.0148 45.5537 50.9684 45.395 50.7816C44.8604 50.1555 44.2648 49.5879 43.6252 49.0716C43.4165 48.9032 43.4629 48.8153 43.6277 48.664C45.3706 47.0699 46.7035 45.189 47.5554 42.9786C47.614 42.8248 47.6848 42.7345 47.8777 42.7418C48.5111 42.7638 49.1178 42.6197 49.6902 42.3622C49.9172 42.2597 49.977 42.3476 50.049 42.5245C50.3896 43.3655 50.5775 44.2345 50.5666 45.1463C50.5202 47.0528 49.916 48.7201 48.4416 49.998L48.4428 50.0005ZM48.2023 41.3552C48.1755 41.3577 48.1474 41.3382 48.0974 41.3211C48.4574 39.7783 48.6076 38.2196 48.4489 36.6341C48.422 36.3693 48.2316 36.0421 48.4123 35.853C48.5575 35.7004 48.8932 35.7309 49.1434 35.676C49.2618 35.6503 49.379 35.6174 49.4949 35.5844C49.9717 35.4485 50.3517 35.5804 50.6349 35.9799C52.1252 38.0854 50.7618 41.0977 48.2011 41.354L48.2023 41.3552Z" fill="#333333"/>
<path d="M41.1268 61.9985C42.1155 62.018 43.1054 62.0217 44.094 61.9985C46.7048 61.9375 48.4563 59.3548 47.5421 56.9112C46.5119 54.1588 44.8373 51.863 42.5744 49.9919C42.4377 49.8783 42.2937 49.6989 42.1252 49.9174C41.9373 50.1603 41.4015 50.1054 41.554 50.6473C41.7933 51.4919 41.8323 52.3549 41.637 53.219C40.8546 56.6842 37.2406 58.2062 34.144 56.3803C33.2652 55.8615 32.5744 55.1536 32.0105 54.2882C31.7724 54.597 31.5735 54.8814 31.3477 55.1426C29.6999 57.0455 27.0684 57.6826 24.9971 56.6878C22.8453 55.6528 21.7895 53.219 22.4266 50.6632C22.5658 50.1054 22.0495 50.1762 21.8688 49.9333C21.704 49.7123 21.56 49.8844 21.4221 49.998C19.1457 51.8788 17.4785 54.1942 16.4361 56.9588C16.2066 57.5679 16.1261 58.2001 16.2542 58.8409C16.6424 60.7865 18.1351 61.9985 20.1405 61.9997C26.0761 62.0046 32.0117 62.0046 37.946 62.007C38.5392 62.007 38.6894 62.1193 38.8651 62.6771C39.3106 62.6771 39.7561 62.6771 40.2004 62.6771C40.3078 62.1779 40.6203 61.9912 41.1244 62.0009L41.1268 61.9985ZM31.9738 56.5023C32.3754 56.4913 32.7001 56.805 32.6989 57.2041C32.6989 57.5764 32.3839 57.9011 32.0141 57.9108C31.6357 57.9218 31.2818 57.5776 31.2818 57.198C31.2818 56.827 31.5942 56.5121 31.9726 56.5023H31.9738ZM31.9824 60.6571C31.6126 60.6486 31.2879 60.3251 31.2818 59.9577C31.2757 59.5684 31.6113 59.2449 32.0129 59.2535C32.3962 59.2608 32.7074 59.5696 32.7111 59.9443C32.7147 60.33 32.3705 60.6669 31.9812 60.6583L31.9824 60.6571Z" fill="#FF8120"/>
<path d="M49.6915 42.3633C49.119 42.6208 48.5112 42.7648 47.8789 42.7429C47.6861 42.7356 47.6153 42.8271 47.5567 42.9797C46.7047 45.1901 45.3731 47.071 43.6289 48.665C43.4642 48.8164 43.4166 48.903 43.6265 49.0727C44.2661 49.589 44.8617 50.1566 45.3963 50.7827C45.555 50.9682 45.7259 51.0158 45.9541 51.0036C46.9 50.9524 47.7337 50.6167 48.444 50.0016C49.9185 48.7236 50.5239 47.0563 50.569 45.1498C50.58 44.2368 50.3921 43.3678 50.0515 42.5281C49.9795 42.3499 49.9197 42.2632 49.6927 42.3657L49.6915 42.3633Z" fill="white"/>
<path d="M16.4348 42.9687C16.3579 42.7673 16.2359 42.7465 16.0565 42.7478C15.4718 42.7539 14.9067 42.6342 14.377 42.3938C14.1219 42.2778 14.0169 42.3218 13.9205 42.583C13.0722 44.8984 13.2736 47.0954 14.7187 49.1154C15.5255 50.242 16.6289 50.9219 18.0521 50.9975C18.2571 51.0085 18.4256 50.9804 18.5745 50.8047C19.1652 50.1077 19.8463 49.4999 20.5542 48.8982C20.5042 48.8359 20.4651 48.7724 20.4114 48.7224C18.6489 47.1064 17.2917 45.2096 16.4348 42.9687Z" fill="white"/>
<path d="M24.089 51.2453C23.9315 51.1659 23.7594 51.0219 23.7045 51.3527C23.4018 53.2006 24.2367 55.0314 26.0809 55.5941C27.9557 56.1666 30.3016 54.9594 30.9888 53.0675C30.0173 52.9748 29.053 52.8771 28.1059 52.6635C26.7108 52.3499 25.3681 51.8897 24.089 51.2453Z" fill="white"/>
<path d="M39.8683 51.249C38.6344 51.8825 37.3296 52.3231 35.9784 52.6356C34.9995 52.8614 34.0048 52.959 33.0027 53.0615C33.6374 54.8631 35.8869 56.0946 37.6945 55.654C39.5241 55.2085 40.558 53.5498 40.3138 51.4846C40.2723 51.1318 40.1735 51.0915 39.8683 51.2478V51.249Z" fill="white"/>
<path d="M49.4962 35.5843C49.379 35.6172 49.263 35.6502 49.1447 35.6758C48.8944 35.7307 48.5588 35.7002 48.4135 35.8528C48.2329 36.042 48.4245 36.3691 48.4502 36.634C48.6088 38.2195 48.4587 39.7781 48.0986 41.3209C48.1487 41.338 48.1767 41.3575 48.2036 41.3551C50.7643 41.0975 52.1277 38.0852 50.6374 35.981C50.3542 35.5806 49.9742 35.4488 49.4974 35.5855L49.4962 35.5843Z" fill="white"/>
<path d="M15.9222 41.3832C15.4926 39.5865 15.3534 37.8411 15.6317 36.0749C15.661 35.8918 15.6317 35.8089 15.4218 35.7783C14.9714 35.7136 14.5234 35.6184 14.0987 35.45C13.9034 35.3731 13.785 35.4671 13.6678 35.6014C12.7658 36.6413 12.4827 37.8228 12.9624 39.1202C13.453 40.4482 14.4588 41.1696 15.9234 41.3832H15.9222Z" fill="white"/>
<path d="M32.0129 59.2522C31.6114 59.2448 31.2757 59.5671 31.2818 59.9564C31.2867 60.3238 31.6114 60.6473 31.9824 60.6558C32.3706 60.6644 32.716 60.3275 32.7123 59.9418C32.7087 59.5671 32.3962 59.2583 32.0142 59.2509L32.0129 59.2522Z" fill="#333333"/>
<path d="M32.0153 57.9108C32.3851 57.8999 32.6988 57.5764 32.7 57.2041C32.7 56.805 32.3766 56.4913 31.975 56.5023C31.5966 56.5121 31.2842 56.827 31.2842 57.198C31.2842 57.5776 31.6369 57.9218 32.0165 57.9108H32.0153Z" fill="#333333"/>
<path d="M37.6287 38.8493C36.6156 38.8395 35.716 39.6854 35.6709 40.6899C35.6526 41.1049 35.8979 41.4271 36.2702 41.4735C36.6534 41.5211 36.961 41.2916 37.0257 40.8632C37.0794 40.5032 37.2344 40.2371 37.614 40.2359C37.9924 40.2359 38.1523 40.4971 38.2048 40.8596C38.2695 41.3002 38.5538 41.5211 38.9469 41.4833C39.3387 41.4454 39.5877 41.1134 39.5596 40.6716C39.4949 39.6732 38.632 38.8603 37.6287 38.8505V38.8493Z" fill="#333333"/>
<path d="M26.3763 38.8493C25.3608 38.8518 24.4649 39.7074 24.4331 40.7058C24.4197 41.1293 24.6614 41.4394 25.0373 41.4821C25.4279 41.526 25.7294 41.3002 25.7892 40.8694C25.8392 40.5069 25.993 40.2432 26.3702 40.2359C26.751 40.2298 26.9097 40.4934 26.967 40.8535C27.0354 41.2892 27.3295 41.5175 27.7128 41.4748C28.1022 41.432 28.3548 41.0903 28.3194 40.6558C28.2389 39.6488 27.3771 38.8481 26.3751 38.8493H26.3763Z" fill="#333333"/>
<path d="M32.8746 41.7616C32.113 42.3438 31.8762 42.345 31.1268 41.7677C30.796 41.5126 30.4518 41.5199 30.1833 41.7872C29.9111 42.0594 29.9099 42.4475 30.1979 42.7636C30.6837 43.2982 31.3025 43.5424 31.936 43.5655C32.6891 43.5594 33.4336 43.2189 33.8242 42.738C34.0769 42.4268 34.0744 42.0557 33.8181 41.7933C33.5532 41.5235 33.2029 41.5113 32.8746 41.7616Z" fill="#333333"/>
<path fill-rule="evenodd" clip-rule="evenodd" d="M29.2898 35.0045C29.2898 34.7349 29.5084 34.5163 29.778 34.5163H33.9621C34.2317 34.5163 34.4503 34.7349 34.4503 35.0045C34.4503 35.2741 34.2317 35.4927 33.9621 35.4927H29.778C29.5084 35.4927 29.2898 35.2741 29.2898 35.0045Z" fill="#333333"/>
<path fill-rule="evenodd" clip-rule="evenodd" d="M30.0281 32.8758C30.0281 32.6062 30.2467 32.3876 30.5163 32.3876H33.2247C33.4944 32.3876 33.713 32.6062 33.713 32.8758C33.713 33.1455 33.4944 33.3641 33.2247 33.3641H30.5163C30.2467 33.3641 30.0281 33.1455 30.0281 32.8758Z" fill="#333333"/>
</g>
<path d="M32 60C16.536 60 4 47.464 4 32H0C0 49.6731 14.3269 64 32 64V60ZM60 32C60 47.464 47.464 60 32 60V64C49.6731 64 64 49.6731 64 32H60ZM32 4C47.464 4 60 16.536 60 32H64C64 14.3269 49.6731 0 32 0V4ZM32 0C14.3269 0 0 14.3269 0 32H4C4 16.536 16.536 4 32 4V0Z" fill="#EE6002" mask="url(#path-1-outside-1_1130_5282)"/>
<defs>
<clipPath id="clip0_1130_5282">
<path d="M2 32C2 15.4315 15.4315 2 32 2C48.5685 2 62 15.4315 62 32C62 48.5685 48.5685 62 32 62C15.4315 62 2 48.5685 2 32Z" fill="white"/>
</clipPath>
</defs>
</svg>
