<svg width="100" height="60" viewBox="0 0 100 60" fill="none" xmlns="http://www.w3.org/2000/svg">
<g clip-path="url(#clip0_1130_5624)">
<rect width="100" height="60" rx="30" fill="#EEEEEE"/>
<g clip-path="url(#clip1_1130_5624)">
<path d="M45.911 47.1948C46.3028 47.8091 46.2741 48.0425 45.7513 48.5654C44.9691 49.3476 44.1377 50.0752 43.2095 50.6758C42.8819 50.8874 42.9146 50.9994 43.1767 51.2423C45.3595 53.2695 46.8393 55.7117 47.4959 58.633C47.6829 59.4643 47.7539 60.3066 47.8099 61.1543C47.8413 61.6267 47.7375 62.013 47.343 62.2969H19.1496C18.7332 61.9993 18.6622 61.5884 18.6827 61.1011C18.852 57.1955 20.4546 53.9644 23.2531 51.2874C23.3746 51.17 23.4988 51.0553 23.6462 50.9147C22.0723 49.8718 20.7003 48.6418 19.5291 47.1935C18.2473 45.6072 17.2521 43.8585 16.5941 41.9255C16.4931 41.6307 16.3716 41.5215 16.0303 41.5105C13.8394 41.4396 12.1685 40.4499 11.2061 38.4746C10.256 36.5238 10.4676 34.6154 11.7521 32.8517C11.8982 32.6497 11.9214 32.464 11.8832 32.2374C11.5419 30.2075 12.0361 28.396 13.3425 26.8098C13.4762 26.6473 13.4994 26.5231 13.453 26.3129C12.7309 23.008 14.126 20.1031 17.1511 18.6137C17.3627 18.51 17.4528 18.383 17.5019 18.1687C18.2391 14.9402 20.7959 12.8926 24.1349 12.8639C24.3834 12.8626 24.5281 12.7861 24.6823 12.595C26.7395 10.0327 29.9817 9.29146 32.9275 10.7153C33.1746 10.8354 33.3548 10.8163 33.5869 10.7057C36.5273 9.30375 39.7503 10.0341 41.7911 12.58C41.9795 12.8161 42.1638 12.8639 42.4327 12.8639C45.6421 12.8639 48.2904 15.0003 48.9825 18.1469C49.0344 18.3844 49.1354 18.5182 49.3633 18.6274C52.3201 20.0594 53.7658 23.0448 53.0505 26.2405C52.9918 26.5013 53.0273 26.6651 53.1952 26.8726C54.4634 28.4384 54.9384 30.2239 54.6081 32.2156C54.5671 32.4627 54.5971 32.6592 54.7541 32.8763C56.0155 34.6277 56.2284 36.5184 55.292 38.4555C54.3446 40.4144 52.7037 41.4205 50.5319 41.5051C50.1278 41.5201 49.9981 41.6607 49.878 42.0129C49.4466 43.2865 48.8473 44.4865 48.1197 45.6195C47.7457 46.2024 47.515 46.2788 46.8434 46.0495C46.4843 45.6168 46.5553 45.2141 46.8434 44.7527C49.3633 40.6929 50.0008 36.3423 48.7559 31.7351C48.0842 29.2465 46.8325 27.0582 45.0783 25.1703C42.9119 22.8387 39.7558 22.193 36.6584 23.4243C34.4428 24.3048 32.2081 24.3663 29.9967 23.4789C27.3347 22.4101 24.8257 22.552 22.4518 24.2325C22.09 24.4891 21.7296 24.5096 21.3897 24.1874C21.0539 23.6496 21.1071 23.2933 21.6204 22.9356C22.0067 22.6653 22.4217 22.4374 22.8244 22.1903C25.3676 21.0081 27.9135 20.9658 30.5222 22.0333C32.3351 22.7746 34.2107 22.7746 36.0345 22.0046C39.8827 20.3815 43.9767 21.4927 46.5376 24.485C48.0133 26.2091 49.1627 28.1216 49.8971 30.2717C50.0159 30.6198 50.181 30.759 50.5537 30.7331C51.2991 30.6798 52.0157 30.8641 52.6737 31.1904C53.172 31.4375 53.1965 31.2341 53.1692 30.8259C53.0846 29.555 52.6287 28.4384 51.7277 27.5401C51.3305 27.1442 51.2445 26.7647 51.4356 26.261C51.6431 25.7163 51.7523 25.1348 51.7099 24.5615C51.5434 22.3295 50.48 20.7119 48.3477 19.8915C47.8454 19.6976 47.5969 19.3987 47.5355 18.8513C47.2311 16.1729 44.722 14.1389 42.0491 14.4201C41.4799 14.4802 41.1304 14.3369 40.8165 13.8645C39.2561 11.5138 36.2666 10.8518 33.8599 12.3193C33.4272 12.5827 33.0709 12.6005 32.6368 12.3247C31.987 11.9125 31.2867 11.6026 30.4867 11.6312C30.3666 11.4947 30.2028 11.537 30.0554 11.5384C28.1879 11.5603 26.7232 12.3438 25.6584 13.8741C25.4277 14.2045 25.2038 14.5471 24.7383 14.4611C24.2278 14.3669 23.7336 14.4065 23.2244 14.4802C21.0102 14.8051 19.196 16.6275 18.9544 18.8444C18.8943 19.3891 18.6568 19.699 18.1531 19.8915C15.4898 20.9126 14.2025 23.5786 15.0652 26.2856C15.2222 26.777 15.1635 27.1374 14.7813 27.5183C13.868 28.4261 13.4052 29.555 13.3233 30.8423C13.2988 31.2232 13.3192 31.4252 13.8011 31.1918C14.4591 30.8737 15.1703 30.6703 15.917 30.7372C16.3238 30.7727 16.4726 30.587 16.5928 30.2335C17.1524 28.5803 17.9906 27.0692 19.0049 25.6522C19.4158 25.0775 19.6519 25.0106 20.3058 25.2249C20.7167 25.8119 20.7044 25.9566 20.2294 26.6269C17.4282 30.572 16.5109 34.9239 17.5347 39.6458C18.9994 46.4072 24.9431 51.6259 31.7972 52.1624C36.7689 52.5515 41.0731 50.9994 44.6428 47.4938C45.0292 47.1143 45.4073 46.9505 45.911 47.1976V47.1948ZM40.7209 52.1638C39.9305 52.4559 39.2275 52.7549 38.4999 52.9665C38.1463 53.0688 38.0235 53.2381 37.9511 53.5698C37.4842 55.709 35.7629 57.1983 33.5063 57.4413C31.5119 57.6569 29.4943 56.4502 28.5797 54.5691C28.3231 54.0422 28.4773 53.3146 27.9586 52.976C27.474 52.6607 26.861 52.5406 26.3054 52.3344C26.2577 52.3167 26.2085 52.3017 26.1648 52.2757C25.8836 52.1064 25.7621 52.1324 25.7635 52.5119C25.7758 55.1493 25.7731 57.7853 25.7635 60.4226C25.7635 60.6806 25.8222 60.7707 26.0979 60.7707C30.8608 60.7626 35.625 60.7598 40.3878 60.7735C40.7864 60.7735 40.7182 60.551 40.7182 60.3216C40.7182 57.8549 40.7182 55.3882 40.7182 52.9214V52.1638H40.7209ZM24.2373 52.4723C23.0661 53.5958 22.1856 54.7711 21.5085 56.098C20.8218 57.444 20.4082 58.8705 20.269 60.3776C20.2444 60.6383 20.2717 60.7776 20.598 60.7721C21.7037 60.753 22.8094 60.7598 23.9152 60.7694C24.15 60.7707 24.2441 60.7093 24.2428 60.4568C24.2346 57.8412 24.2387 55.2243 24.2387 52.4737L24.2373 52.4723ZM42.2539 52.4682C42.2539 55.2243 42.2566 57.8426 42.2484 60.4595C42.2484 60.7175 42.3508 60.7707 42.5802 60.768C43.6859 60.7598 44.7916 60.7557 45.8974 60.7694C46.169 60.7721 46.2495 60.6929 46.225 60.4226C46.1676 59.7947 46.0639 59.1749 45.9083 58.5661C45.3063 56.2181 44.0736 54.2456 42.2525 52.4682H42.2539ZM12.1958 36.0829C12.1862 38.0323 13.6619 39.7386 15.5075 39.9352C15.8802 39.9748 16.0181 39.9489 15.9239 39.4998C15.4584 37.261 15.4734 35.0127 15.8938 32.7657C15.9935 32.2292 15.9648 32.2006 15.4106 32.2934C13.5636 32.6033 12.204 34.2059 12.1958 36.0829ZM50.9114 35.7184C50.925 37.2842 50.7953 38.4309 50.5523 39.5639C50.4786 39.9038 50.5674 39.983 50.8964 39.9434C51.8492 39.8287 52.656 39.4247 53.2866 38.7135C54.2968 37.5763 54.5739 36.2549 54.0702 34.8229C53.5651 33.3882 52.5017 32.5623 51.0124 32.2879C50.7284 32.2361 50.4363 32.1555 50.5592 32.6838C50.8213 33.8114 50.8991 34.9663 50.9114 35.7184ZM36.3335 53.5303C35.7246 53.5971 35.154 53.6818 34.582 53.7173C33.1555 53.806 31.7317 53.7746 30.3175 53.533C30.1741 53.5084 29.7551 53.2668 29.9448 53.8019C30.3789 55.0209 31.8409 55.9806 33.1978 55.9246C34.6721 55.8632 35.9826 54.8817 36.3335 53.5316V53.5303Z" fill="#333333"/>
<path d="M53.1708 30.8232C53.0861 29.5522 52.6302 28.4356 51.7292 27.5374C51.332 27.1415 51.246 26.762 51.4371 26.2583C51.6446 25.7136 51.7538 25.1321 51.7115 24.5587C51.5449 22.3268 50.4815 20.7091 48.3492 19.8887C47.8469 19.6949 47.5984 19.3959 47.537 18.8485C47.2326 16.1702 44.7235 14.1362 42.0507 14.4174C41.4814 14.4774 41.132 14.3341 40.818 13.8618C39.2577 11.5111 36.2681 10.849 33.8614 12.3165C33.4287 12.58 33.0724 12.5977 32.6383 12.322C31.9885 11.9097 31.2882 11.5998 30.4883 11.6285C30.3681 11.492 30.2043 11.5343 30.0569 11.5357C28.1894 11.5575 26.7233 12.3411 25.6599 13.8713C25.4292 14.2017 25.2053 14.5443 24.7398 14.4583C24.2293 14.3641 23.7351 14.4024 23.2259 14.4774C21.0117 14.8023 19.1975 16.6248 18.9559 18.8417C18.8958 19.3863 18.6583 19.6962 18.1546 19.8887C15.4913 20.9098 14.204 23.5758 15.0667 26.2828C15.2237 26.7743 15.165 27.1347 14.7828 27.5155C13.8695 28.4233 13.4068 29.5522 13.3249 30.8395C13.3003 31.2204 13.3208 31.4224 13.8027 31.189C14.4606 30.8709 15.1718 30.6675 15.9186 30.7344C16.3254 30.7699 16.4742 30.5843 16.5943 30.2307C17.154 28.5776 17.9921 27.0664 19.0064 25.6494C19.4173 25.0747 19.6535 25.0078 20.3074 25.2221C20.6923 24.9 20.8998 24.3922 21.3912 24.1833C21.0554 23.6455 21.1087 23.2892 21.6219 22.9315C22.0083 22.6612 22.4246 22.4333 22.826 22.1848C25.3691 21.0026 27.9151 20.9617 30.5238 22.0292C32.3366 22.7704 34.2123 22.7704 36.036 22.0005C39.8843 20.3774 43.9782 21.4886 46.5391 24.4809C48.0148 26.205 49.1642 28.1175 49.8986 30.2676C50.0174 30.6157 50.1826 30.7549 50.5552 30.729C51.3006 30.6757 52.0173 30.86 52.6752 31.1863C53.1735 31.4334 53.1981 31.23 53.1708 30.8218V30.8232Z" fill="white"/>
<path d="M40.7207 52.1638V52.9215C40.7207 55.3882 40.7207 57.855 40.7207 60.3217C40.7207 60.551 40.7889 60.7749 40.3903 60.7735C35.6275 60.7599 30.8633 60.7626 26.1005 60.7708C25.8233 60.7708 25.7646 60.6807 25.766 60.4227C25.7742 57.7853 25.7769 55.1493 25.766 52.512C25.7646 52.1325 25.8848 52.1052 26.1674 52.2758C26.211 52.3017 26.2602 52.3181 26.308 52.3345C26.8636 52.5406 27.4765 52.6607 27.9611 52.9761C28.4798 53.3146 28.3256 54.0422 28.5822 54.5692C29.4968 56.4503 31.5144 57.6556 33.5089 57.4413C35.7654 57.1983 37.4868 55.7077 37.9536 53.5699C38.026 53.2382 38.1488 53.0689 38.5024 52.9665C39.23 52.7549 39.933 52.456 40.7234 52.1638H40.7207Z" fill="#BDBDBD"/>
<path d="M24.2372 52.4724C24.2372 55.2231 24.2344 57.8386 24.2412 60.4555C24.2412 60.708 24.1484 60.7708 23.9136 60.7681C22.8079 60.7585 21.7022 60.7517 20.5964 60.7708C20.2702 60.7763 20.2429 60.637 20.2674 60.3763C20.408 58.8706 20.8217 57.4427 21.507 56.0967C22.184 54.7698 23.0645 53.5959 24.2358 52.471L24.2372 52.4724Z" fill="white"/>
<path d="M42.254 52.4682C44.075 54.247 45.3063 56.2195 45.9097 58.5661C46.0667 59.175 46.1705 59.7947 46.2264 60.4227C46.251 60.693 46.1705 60.7721 45.8988 60.7694C44.7931 60.7558 43.6873 60.7585 42.5816 60.768C42.3509 60.7694 42.2485 60.7175 42.2499 60.4595C42.2581 57.8426 42.2554 55.2257 42.2554 52.4682H42.254Z" fill="white"/>
<path d="M12.1955 36.083C12.2037 34.2073 13.5647 32.6033 15.4103 32.2935C15.9659 32.2006 15.9946 32.2307 15.8935 32.7658C15.4731 35.0127 15.4581 37.2597 15.9236 39.4998C16.0164 39.9489 15.8785 39.9749 15.5072 39.9353C13.6616 39.7387 12.1859 38.0323 12.1955 36.083Z" fill="white"/>
<path d="M50.9111 35.7185C50.8989 34.9663 50.821 33.8115 50.5589 32.6839C50.4361 32.1556 50.7282 32.2361 51.0122 32.288C52.5015 32.561 53.5649 33.3883 54.07 34.823C54.5737 36.2536 54.2966 37.575 53.2864 38.7135C52.6544 39.4247 51.8476 39.8288 50.8961 39.9435C50.5685 39.9831 50.4798 39.9025 50.5521 39.564C50.7951 38.4323 50.9248 37.2856 50.9111 35.7185Z" fill="white"/>
<path d="M36.3332 53.5303C35.9824 54.8804 34.6719 55.8619 33.1976 55.9233C31.8407 55.9807 30.3787 55.021 29.9446 53.8006C29.7548 53.2669 30.1739 53.5071 30.3172 53.5317C31.7315 53.7733 33.1553 53.8047 34.5818 53.716C35.1538 53.6805 35.7244 53.5958 36.3332 53.529V53.5303Z" fill="white"/>
<path d="M46.8435 44.7513C49.3635 40.6915 49.9996 36.3409 48.756 31.7337C48.0844 29.2451 46.8326 27.0568 45.0785 25.1689C42.912 22.8373 39.7559 22.1916 36.6585 23.423C34.443 24.3034 32.2083 24.3649 29.9968 23.4776C27.3349 22.4087 24.8258 22.5507 22.4519 24.2311C22.0902 24.4877 21.7298 24.5082 21.3899 24.186C20.8971 24.3949 20.6896 24.9027 20.306 25.2249C20.7182 25.8119 20.7046 25.9566 20.2295 26.6268C17.4284 30.572 16.511 34.9239 17.5348 39.6458C18.9996 46.4071 24.9432 51.6259 31.7974 52.1624C36.7691 52.5515 41.0733 50.9993 44.643 47.4938C45.0293 47.1143 45.4074 46.9504 45.9112 47.1975C46.3152 46.8904 46.5964 46.4836 46.8449 46.0508C46.4859 45.6181 46.5569 45.2154 46.8449 44.754L46.8435 44.7513ZM24.8122 34.2919C24.8395 33.7213 25.1043 33.4005 25.5657 33.3895C26.0462 33.3786 26.3384 33.709 26.3547 34.3042C26.3657 34.6768 26.3493 35.0495 26.3588 35.4222C26.3684 35.7839 26.2606 36.0856 25.9643 36.3081C25.2572 36.4556 25.0279 36.33 24.7644 35.6556C24.8654 35.2038 24.789 34.7451 24.8122 34.2905V34.2919ZM35.7671 36.1552C35.0818 36.891 34.2232 37.2432 33.2198 37.2705C32.2452 37.2296 31.4029 36.8801 30.7299 36.1593C30.3982 35.8044 30.3804 35.373 30.6685 35.0618C30.9756 34.7301 31.4165 34.7328 31.8015 35.0673C32.8199 35.9573 33.6785 35.9587 34.6846 35.0741C35.0709 34.7342 35.5064 34.7273 35.8163 35.0563C36.1084 35.3662 36.0988 35.7989 35.7685 36.1539L35.7671 36.1552Z" fill="white"/>
<path d="M33.2197 37.2705C32.245 37.2296 31.4028 36.8801 30.7298 36.1594C30.3981 35.8044 30.3803 35.3731 30.6683 35.0618C30.9755 34.7301 31.4164 34.7328 31.8014 35.0673C32.8197 35.9573 33.6784 35.9587 34.6845 35.0741C35.0708 34.7342 35.5063 34.7274 35.8161 35.0563C36.1083 35.3662 36.0987 35.799 35.7684 36.1539C35.0831 36.8897 34.2244 37.2419 33.2211 37.2692L33.2197 37.2705Z" fill="#333333"/>
<path d="M25.9653 36.3096C25.2582 36.457 25.0288 36.3314 24.7654 35.657C24.8664 35.2052 24.79 34.7479 24.8132 34.2919C24.8405 33.7213 25.1053 33.4005 25.5667 33.3896C26.0472 33.3787 26.3393 33.709 26.3557 34.3042C26.3666 34.6769 26.3503 35.0496 26.3598 35.4222C26.3694 35.784 26.2615 36.0857 25.9653 36.3082V36.3096Z" fill="#333333"/>
<path d="M41.6899 35.6284C41.4947 36.3191 41.2571 36.4584 40.5268 36.3109C40.2347 36.0857 40.1214 35.7867 40.1323 35.4222C40.1446 34.9977 40.12 34.5718 40.146 34.1486C40.1733 33.7009 40.4176 33.421 40.8831 33.3923C41.3158 33.3664 41.638 33.6654 41.668 34.15C41.6981 34.6414 41.6844 35.1342 41.6913 35.627L41.6899 35.6284Z" fill="#333333"/>
<path d="M52.7313 63C51.6488 62.5072 51.2584 61.5503 50.9976 60.4828C50.741 59.4289 50.3984 58.3956 50.2345 57.3185C50.1526 56.7766 50.1226 56.236 50.2659 55.6995C50.3205 55.4961 50.2864 55.3022 50.2386 55.0988C50.0503 54.2989 50.2154 53.5672 50.7915 52.9788C51.0263 52.7399 51.0208 52.5406 50.9417 52.2608C50.0994 49.274 49.2735 46.283 48.4272 43.2976C48.2483 42.6641 48.1705 42.0294 48.2511 41.3837C48.2838 41.1175 48.2197 40.9564 48.0258 40.7708C45.2915 38.1361 45.9085 33.8265 49.2776 32.0601C49.5493 31.9181 49.5861 31.7666 49.552 31.5072C49.0483 27.6685 49.7144 24.036 51.4986 20.6055C52.3191 19.0274 53.3593 17.6064 54.5947 16.3273C55.112 15.7922 55.4001 15.7744 55.9843 16.2508C56.1877 16.704 56.0362 17.0535 55.7045 17.3921C54.3844 18.7408 53.3251 20.2765 52.5265 21.987C51.2488 24.724 50.7355 27.6016 50.9894 30.6158C51.04 31.2205 51.0318 31.2328 51.6119 31.0431C53.6964 30.3591 55.7359 29.5551 57.7412 28.6678C60.1042 27.6221 62.4399 26.5164 64.695 25.2496C66.2349 24.4878 67.7037 23.5964 69.1944 22.7432C71.354 21.5065 73.6801 21.9965 75.1353 24.0278C75.8001 24.9561 76.4895 25.8625 77.2772 26.6884C79.2074 28.7128 81.4189 30.3086 84.1177 31.1659C84.519 31.2929 84.6719 31.2219 84.6992 30.7932C84.7798 29.5346 84.7989 28.2815 84.6228 27.0283C83.9307 22.0798 81.5499 18.151 77.4819 15.2625C74.8487 13.3937 71.8796 12.4422 68.6702 12.2593C67.2259 12.1774 65.783 12.2593 64.3715 12.636C64.2541 12.6483 64.1326 12.647 64.018 12.6743C62.1027 13.1329 60.2994 13.8619 58.664 14.9649C58.2149 15.268 57.7972 15.3881 57.2948 15.197C56.9754 14.3206 57.0191 14.1936 57.8177 13.6708C67.9413 7.03914 81.8571 12.0395 85.4336 23.5855C86.2295 26.1574 86.5025 28.7688 86.1449 31.4403C86.1012 31.7652 86.1708 31.9331 86.4916 32.101C89.7405 33.7965 90.3739 38.1361 87.7529 40.6957C87.5154 40.9277 87.3953 41.1257 87.4458 41.4779C87.5318 42.0703 87.4472 42.6573 87.282 43.2402C86.4329 46.2434 85.6029 49.2521 84.7525 52.2553C84.6651 52.5666 84.6978 52.7673 84.9285 53.013C85.476 53.5972 85.6329 54.3112 85.4596 55.0961C85.4336 55.2121 85.3681 55.3391 85.3941 55.4415C85.7776 56.9417 85.222 58.3287 84.8903 59.7429C84.8016 60.1224 84.6651 60.491 84.5791 60.8705C84.3429 61.9025 83.8378 62.697 82.758 63.0028H78.3652C78.0826 62.8076 77.8423 62.5823 77.8287 62.2069C78.0444 61.5407 78.1713 61.4807 79.1747 61.4657C79.6074 61.4602 80.1903 61.6568 80.4224 61.3674C80.578 61.1735 80.2435 60.5947 80.1439 60.1838C79.7657 58.6249 79.1201 57.1014 79.52 55.4387C79.5419 55.3487 79.4982 55.2381 79.4709 55.1398C79.2798 54.4559 79.404 53.8238 79.7971 53.2464C79.9145 53.0744 79.9569 52.9256 79.8845 52.729C79.5555 51.8363 79.2279 50.9435 78.9139 50.0466C78.8361 49.8241 78.7665 49.7804 78.5672 49.9347C78.0962 50.2991 77.6171 50.6527 77.1284 50.9913C76.9536 51.1127 76.9509 51.2301 76.985 51.4199C77.2212 52.7495 76.9018 53.9494 76.0909 55.0197C75.2118 56.18 74.0323 56.939 72.7041 57.4741C70.5773 58.3314 68.359 58.5717 66.0956 58.2809C64.1845 58.0365 62.3771 57.4632 60.8318 56.2523C59.2374 55.0033 58.3296 53.4443 58.7186 51.3407C58.7555 51.1414 58.6558 51.0677 58.5262 50.9749C58.0702 50.6473 57.6088 50.3278 57.1706 49.9783C56.9467 49.8009 56.8566 49.7995 56.757 50.0889C56.4608 50.9571 56.1454 51.8185 55.8246 52.6772C55.7373 52.9119 55.7878 53.0853 55.9229 53.2887C56.2888 53.8375 56.4089 54.4436 56.2314 55.0893C56.1659 55.3268 56.1659 55.5575 56.226 55.7923C56.342 56.2455 56.3202 56.7028 56.256 57.1601C56.0731 58.4611 55.7004 59.7156 55.3086 60.9619C55.1694 61.4042 55.2622 61.4766 55.7059 61.4752C62.2065 61.4616 68.7057 61.4739 75.2063 61.4588C75.7824 61.4588 76.1537 61.639 76.3257 62.1905C76.237 62.5482 76.0745 62.8512 75.7114 63.0014H52.7286L52.7313 63ZM83.2467 36.8939C83.2304 35.4414 83.0392 34.0135 82.6488 32.6129C82.5765 32.3522 82.4564 32.1761 82.1833 32.0737C81.5636 31.8403 80.9807 31.5195 80.4114 31.1837C77.77 29.6233 75.6732 27.4924 73.9409 24.9847C73.5313 24.3923 73.0235 23.9418 72.3219 23.7302C71.4072 23.4545 70.5964 23.6865 69.7964 24.1602C64.5995 27.2344 59.2278 29.9482 53.5435 32.0123C53.2569 32.116 53.1477 32.2826 53.0753 32.5406C52.487 34.6292 52.2986 36.7451 52.6071 38.9019C53.8316 47.4393 61.5717 53.2901 70.0517 52.082C77.5679 51.0117 83.2426 44.4797 83.2467 36.8925V36.8939ZM75.5107 51.9414C73.0658 53.1781 70.5227 53.7802 67.8539 53.7815C65.1756 53.7829 62.6228 53.1781 60.2039 51.9523C60.111 52.7167 60.3117 53.3324 60.6885 53.9016C61.24 54.7371 62.0235 55.3009 62.904 55.7268C65.0295 56.7547 67.2792 57.0523 69.6039 56.7329C71.3117 56.4981 72.9034 55.9343 74.2234 54.7726C75.0452 54.0504 75.6036 53.1877 75.5094 51.94L75.5107 51.9414ZM53.4343 52.2526C53.5367 52.2526 53.6418 52.2349 53.7401 52.2553C54.2165 52.3523 54.4268 52.1407 54.566 51.6902C54.8472 50.7824 55.1844 49.891 55.5202 49.0009C55.6226 48.7293 55.6089 48.5382 55.4028 48.3143C53.8534 46.627 52.689 44.705 51.9232 42.5454C51.8508 42.3393 51.7457 42.2519 51.5218 42.2382C51.0481 42.2082 50.5745 42.144 50.1226 41.9884C49.7854 41.8724 49.7295 42.0458 49.7772 42.316C49.8127 42.5167 49.8646 42.7147 49.9192 42.9099C50.7082 45.7397 51.4986 48.5682 52.2931 51.3967C52.5334 52.254 52.5402 52.2526 53.433 52.2526H53.4343ZM82.2379 52.2485C82.3226 52.2485 82.4099 52.2349 82.4918 52.2512C83.0038 52.3468 83.2249 52.1379 83.3601 51.6247C83.9525 49.3777 84.5955 47.1444 85.2193 44.9056C85.4418 44.1043 85.6712 43.3057 85.8787 42.5003C86.0206 41.9502 85.9688 41.9161 85.4323 42.0348C85.0364 42.1236 84.6323 42.1973 84.2283 42.2273C83.9662 42.2464 83.8488 42.3393 83.76 42.5863C82.9928 44.7227 81.8407 46.6311 80.3022 48.302C80.1043 48.5177 80.0606 48.7034 80.1684 48.9832C80.4797 49.79 80.7582 50.6104 81.0489 51.4254C81.2446 51.9741 81.6405 52.2485 82.2366 52.2485H82.2379ZM47.8443 36.8761C47.8579 38.6412 49.1165 40.2111 50.8325 40.6015C51.328 40.7148 51.373 40.6725 51.272 40.1892C50.8065 37.9627 50.8052 35.7376 51.2693 33.5112C51.3703 33.0252 51.328 32.9856 50.8297 33.0989C49.0961 33.4934 47.8306 35.0947 47.8443 36.8761ZM87.8512 36.8475C87.8485 35.0797 86.5994 33.5071 84.878 33.1057C84.3743 32.9883 84.3334 33.0265 84.4344 33.5112C84.8972 35.7404 84.9053 37.9709 84.4235 40.196C84.3334 40.6097 84.4371 40.697 84.8357 40.611C86.5612 40.2343 87.8553 38.6316 87.8526 36.8488L87.8512 36.8475ZM81.2223 56.8011C80.952 56.7643 80.9384 56.7656 80.9875 57.0564C81.2155 58.3956 81.6032 59.6951 82.0004 60.9906C82.0659 61.2063 82.1874 61.4206 82.4386 61.4343C82.7185 61.4479 82.8618 61.2281 82.9328 60.9933C83.3232 59.6951 83.6986 58.3928 83.9539 57.0591C83.9962 56.838 83.958 56.7411 83.7054 56.7834C82.8795 56.9212 82.0509 56.8625 81.2237 56.8011H81.2223ZM51.9887 56.7998C51.7143 56.7643 51.7048 56.7752 51.7648 57.1165C51.9914 58.4201 52.3955 59.6788 52.7491 60.9497C52.8146 61.1858 52.9443 61.4138 53.2146 61.4302C53.4999 61.4479 53.6282 61.2118 53.6964 60.9811C54.0841 59.6842 54.48 58.3901 54.7148 57.0523C54.7571 56.8093 54.7052 56.7452 54.4664 56.7847C53.6405 56.9212 52.8146 56.8639 51.9887 56.7984V56.7998ZM53.2159 55.2913C53.2159 55.2913 53.2159 55.2831 53.2159 55.279C53.5203 55.279 53.8329 55.3186 54.1292 55.2695C54.5537 55.1999 54.7899 54.9023 54.7476 54.4723C54.7093 54.0764 54.4636 53.817 54.0432 53.8047C53.5176 53.7897 52.9907 53.7911 52.4638 53.8006C52.0256 53.8088 51.7703 54.0532 51.7211 54.4832C51.6747 54.8954 51.9532 55.2299 52.401 55.2845C52.6685 55.3173 52.9429 55.29 53.2146 55.29L53.2159 55.2913ZM82.425 55.2968V55.2913C82.713 55.2913 83.0051 55.3173 83.2904 55.2859C83.7368 55.2353 84.0194 54.9009 83.9771 54.49C83.932 54.0586 83.6795 53.8129 83.2399 53.8006C82.7307 53.787 82.2202 53.7842 81.711 53.8006C81.2605 53.8143 80.9534 54.1146 80.9397 54.5159C80.9261 54.9132 81.2209 55.2463 81.6619 55.2927C81.9144 55.3186 82.1711 55.2981 82.425 55.2981V55.2968Z" fill="#333333"/>
<path d="M83.2468 36.8939C83.2427 44.4811 77.568 51.0117 70.0518 52.0833C61.5718 53.2914 53.8316 47.4406 52.6072 38.9033C52.2986 36.7464 52.487 34.6305 53.0754 32.5419C53.1477 32.2839 53.2569 32.1174 53.5436 32.0136C59.2279 29.9496 64.6009 27.2358 69.7965 24.1616C70.5964 23.6879 71.4073 23.4558 72.3219 23.7316C73.0236 23.9432 73.5314 24.3937 73.9409 24.9861C75.6732 27.4938 77.77 29.6247 80.4115 31.185C80.9821 31.5222 81.5637 31.8416 82.1834 32.0751C82.4564 32.1775 82.5765 32.3535 82.6489 32.6143C83.0407 34.0149 83.2304 35.4428 83.2468 36.8952V36.8939ZM61.5677 32.9351C60.4264 32.9351 59.4695 33.8183 59.3917 34.9472C59.3589 35.4305 59.6074 35.784 60.0265 35.8496C60.4933 35.9219 60.8278 35.6762 60.9083 35.1602C60.9711 34.7589 61.1308 34.4708 61.5759 34.4763C62.025 34.4817 62.1615 34.7903 62.2256 35.182C62.3035 35.6612 62.6406 35.9014 63.087 35.8414C63.5034 35.7854 63.7696 35.4209 63.7382 34.9513C63.6631 33.8224 62.7075 32.9351 61.5677 32.9337V32.9351ZM76.3121 35.0537C76.3353 33.9302 75.3156 32.9364 74.1375 32.9337C72.9594 32.9324 71.9342 33.9261 71.9574 35.0483C71.967 35.4878 72.2523 35.8127 72.6591 35.8455C73.0864 35.8796 73.4004 35.6448 73.4741 35.1861C73.5369 34.7943 73.6693 34.4817 74.1198 34.4749C74.5975 34.4681 74.7368 34.7875 74.7982 35.2039C74.8651 35.6612 75.1845 35.8919 75.6186 35.8537C76.0295 35.8168 76.3039 35.5001 76.3135 35.0524L76.3121 35.0537ZM67.8567 38.1866C68.6443 38.1716 69.331 37.8849 69.8716 37.2884C70.1896 36.9376 70.1774 36.4939 69.8716 36.1949C69.5794 35.9096 69.174 35.9083 68.8136 36.1908C68.0055 36.8243 67.686 36.8256 66.897 36.2004C66.5148 35.8973 66.0971 35.9055 65.8022 36.2209C65.5101 36.5348 65.5196 36.9608 65.8527 37.3143C66.3892 37.8863 67.0581 38.1702 67.858 38.1866H67.8567Z" fill="white"/>
<path d="M84.6239 27.0241C83.9318 22.0756 81.551 18.1469 77.483 15.2583C74.8498 13.3895 71.8807 12.438 68.6713 12.2551C67.227 12.1732 65.7841 12.2551 64.3726 12.6319C64.2552 12.6442 64.1337 12.6428 64.0191 12.6701C62.1038 13.1288 60.3005 13.8577 58.6651 14.9607C58.216 15.2638 57.7983 15.3839 57.2959 15.1928C56.7717 15.4372 56.4059 15.8767 55.9841 16.2494C56.1875 16.7026 56.036 17.0521 55.7042 17.3906C54.3842 18.7393 53.3249 20.2751 52.5263 21.9856C51.2486 24.7226 50.7353 27.6002 50.9892 30.6143C51.0397 31.2191 51.0315 31.2314 51.6117 31.0416C53.6962 30.3577 55.7356 29.5537 57.741 28.6664C60.104 27.6207 62.4396 26.515 64.6948 25.2481C66.2346 24.4864 67.7035 23.595 69.1942 22.7418C71.3537 21.505 73.6799 21.9951 75.1351 24.0264C75.7999 24.9546 76.4893 25.8611 77.2769 26.687C79.2072 28.7114 81.4186 30.3072 84.1174 31.1645C84.5188 31.2914 84.6717 31.2205 84.699 30.7918C84.7795 29.5332 84.7986 28.28 84.6225 27.0269L84.6239 27.0241Z" fill="white"/>
<path d="M77.8325 62.2028C77.3315 62.1987 76.8292 62.1932 76.3282 62.1891C76.1562 61.6376 75.7849 61.4561 75.2088 61.4574C68.7082 61.4711 62.209 61.4601 55.7084 61.4738C55.2647 61.4738 55.1719 61.4028 55.3111 60.9605C55.7029 59.7142 56.0756 58.4597 56.2585 57.1587C56.3227 56.7014 56.3445 56.2441 56.2285 55.7909C56.1684 55.5561 56.1684 55.3254 56.2339 55.0879C56.4114 54.4422 56.2913 53.8361 55.9254 53.2873C55.7903 53.0853 55.7398 52.9105 55.8271 52.6757C56.1479 51.8171 56.4633 50.9557 56.7595 50.0875C56.8578 49.7981 56.9492 49.7981 57.1731 49.9769C57.6113 50.3264 58.0727 50.6458 58.5287 50.9734C58.6583 51.0663 58.7566 51.14 58.7211 51.3393C58.3321 53.4443 59.2399 55.0019 60.8343 56.2509C62.3796 57.4604 64.187 58.0337 66.0981 58.2795C68.3615 58.5689 70.5798 58.33 72.7066 57.4727C74.0348 56.9376 75.2143 56.1786 76.0934 55.0182C76.9056 53.948 77.2237 52.7481 76.9875 51.4185C76.9534 51.2287 76.9561 51.1113 77.1309 50.9898C77.6196 50.6513 78.0987 50.2977 78.5697 49.9332C78.769 49.779 78.8386 49.8227 78.9164 50.0452C79.2304 50.9434 79.558 51.8362 79.887 52.7276C79.9594 52.9242 79.9157 53.073 79.7996 53.245C79.4065 53.8224 79.2809 54.4545 79.4734 55.1384C79.5007 55.2353 79.5444 55.3459 79.5225 55.4373C79.1226 57.1 79.7669 58.6248 80.1464 60.1824C80.246 60.5933 80.5818 61.1721 80.4249 61.366C80.1928 61.6554 79.6099 61.4574 79.1772 61.4642C78.1738 61.4779 78.0469 61.538 77.8312 62.2055L77.8325 62.2028Z" fill="#BDBDBD"/>
<path d="M75.5104 51.9413C75.6046 53.189 75.0449 54.0504 74.2245 54.7739C72.9044 55.9356 71.3127 56.4994 69.605 56.7342C67.2802 57.0536 65.0305 56.7547 62.9051 55.7281C62.0246 55.3022 61.241 54.7384 60.6895 53.903C60.3141 53.3337 60.1121 52.7167 60.2049 51.9536C62.6239 53.1795 65.1766 53.7842 67.8549 53.7828C70.5237 53.7815 73.0669 53.1795 75.5118 51.9427L75.5104 51.9413Z" fill="white"/>
<path d="M53.4341 52.2526C52.5413 52.2526 52.5345 52.2539 52.2942 51.3966C51.4997 48.5682 50.7107 45.7397 49.9203 42.9098C49.8657 42.7132 49.8138 42.5153 49.7784 42.316C49.7306 42.0457 49.7865 41.8723 50.1237 41.9884C50.5769 42.144 51.0493 42.2082 51.5229 42.2382C51.7455 42.2518 51.8506 42.3392 51.9243 42.5453C52.6901 44.7049 53.8545 46.6284 55.4039 48.3142C55.6087 48.5381 55.6223 48.7292 55.5213 49.0009C55.1855 49.8909 54.8497 50.7823 54.5671 51.6901C54.4265 52.1406 54.2177 52.3536 53.7412 52.2553C53.6429 52.2348 53.5378 52.2526 53.4355 52.2526H53.4341Z" fill="white"/>
<path d="M82.2377 52.2484C81.6416 52.2484 81.2457 51.9741 81.0501 51.4253C80.7593 50.6103 80.4808 49.7899 80.1696 48.9831C80.0617 48.7033 80.1041 48.5176 80.3034 48.3019C81.8418 46.6311 82.994 44.7226 83.7612 42.5863C83.8499 42.3392 83.9673 42.2477 84.2294 42.2272C84.6335 42.1972 85.0362 42.1235 85.4334 42.0348C85.9699 41.9146 86.0231 41.9488 85.8798 42.5003C85.6723 43.3043 85.443 44.1043 85.2205 44.9056C84.5966 47.1443 83.9536 49.379 83.3612 51.6246C83.2261 52.1379 83.0049 52.3454 82.493 52.2512C82.4111 52.2362 82.3237 52.2484 82.2391 52.2484H82.2377Z" fill="white"/>
<path d="M47.8443 36.8761C47.8307 35.0933 49.0961 33.492 50.8298 33.0989C51.3281 32.9856 51.3704 33.0251 51.2694 33.5111C50.8052 35.7376 50.8066 37.9627 51.2721 40.1892C51.3731 40.6724 51.3281 40.7148 50.8325 40.6014C49.1166 40.211 47.858 38.6412 47.8443 36.8761Z" fill="white"/>
<path d="M87.851 36.8474C87.8537 38.6302 86.561 40.2328 84.8341 40.6096C84.4355 40.697 84.3318 40.6096 84.4219 40.1946C84.9038 37.9695 84.8956 35.7389 84.4328 33.5097C84.3318 33.0251 84.3741 32.9869 84.8765 33.1043C86.5978 33.5056 87.8469 35.0782 87.8496 36.846L87.851 36.8474Z" fill="white"/>
<path d="M81.2221 56.8011C82.0493 56.8625 82.8779 56.9212 83.7038 56.7833C83.9563 56.741 83.9959 56.8379 83.9523 57.0591C83.6956 58.3928 83.3216 59.6951 82.9312 60.9933C82.8602 61.2281 82.7182 61.4479 82.437 61.4342C82.1858 61.4219 82.0657 61.2076 81.9988 60.9906C81.6016 59.6951 81.2139 58.3955 80.9859 57.0563C80.9367 56.7669 80.9504 56.7642 81.2207 56.8011H81.2221Z" fill="white"/>
<path d="M51.9888 56.7997C52.8147 56.8652 53.642 56.9226 54.4665 56.7861C54.7054 56.7465 54.7573 56.8106 54.7149 57.0536C54.4815 58.3914 54.0843 59.6855 53.6966 60.9824C53.627 61.2131 53.4986 61.4492 53.2147 61.4315C52.9444 61.4138 52.8147 61.1871 52.7492 60.951C52.3956 59.6801 51.9916 58.4215 51.765 57.1178C51.7063 56.7765 51.7158 56.7656 51.9888 56.8011V56.7997Z" fill="white"/>
<path d="M53.2157 55.2913C52.9441 55.2913 52.6697 55.3172 52.4021 55.2858C51.9557 55.2312 51.6759 54.8968 51.7223 54.4845C51.7701 54.0531 52.0267 53.8101 52.4649 53.8019C52.9918 53.791 53.5188 53.7897 54.0443 53.806C54.4648 53.8183 54.7105 54.0777 54.7487 54.4736C54.7897 54.9036 54.5535 55.2012 54.1303 55.2708C53.8327 55.3199 53.5215 55.2804 53.2171 55.2804C53.2171 55.2844 53.2171 55.2885 53.2171 55.2926L53.2157 55.2913Z" fill="#BDBDBD"/>
<path d="M82.4251 55.2968C82.1699 55.2968 81.9132 55.3186 81.662 55.2913C81.2211 55.2449 80.9263 54.9118 80.9399 54.5146C80.9536 54.1146 81.2607 53.8129 81.7112 53.7993C82.2204 53.7842 82.7309 53.787 83.2401 53.7993C83.6783 53.8102 83.9322 54.0573 83.9773 54.4886C84.0196 54.8995 83.737 55.234 83.2906 55.2845C83.0053 55.3173 82.7145 55.29 82.4251 55.29V55.2954V55.2968Z" fill="#BDBDBD"/>
<path d="M61.5673 32.935C62.7071 32.935 63.6627 33.8237 63.7378 34.9526C63.7692 35.4222 63.503 35.7854 63.0866 35.8427C62.6402 35.9028 62.3044 35.6625 62.2253 35.1833C62.1611 34.7902 62.0246 34.4831 61.5755 34.4776C61.1304 34.4721 60.9694 34.7615 60.9079 35.1615C60.8274 35.6762 60.4929 35.9232 60.0261 35.8509C59.607 35.7854 59.3586 35.4318 59.3913 34.9486C59.4691 33.8196 60.4261 32.935 61.5673 32.9364V32.935Z" fill="#333333"/>
<path d="M76.3117 35.0537C76.3022 35.5014 76.0292 35.8181 75.6169 35.855C75.1828 35.8932 74.8634 35.6611 74.7965 35.2052C74.7351 34.7888 74.5944 34.468 74.118 34.4762C73.6689 34.4831 73.5351 34.7957 73.4723 35.1874C73.3986 35.6461 73.086 35.8809 72.6574 35.8468C72.2506 35.814 71.9653 35.4891 71.9557 35.0496C71.9325 33.9288 72.9591 32.9337 74.1358 32.935C75.3139 32.9364 76.3336 33.9302 76.3104 35.055L76.3117 35.0537Z" fill="#333333"/>
<path d="M67.8564 38.1865C67.0578 38.1702 66.3889 37.8862 65.8511 37.3143C65.5194 36.9607 65.5084 36.5361 65.8006 36.2208C66.0954 35.9055 66.5118 35.8973 66.8954 36.2003C67.6844 36.8255 68.0038 36.8228 68.812 36.1908C69.1737 35.9082 69.5778 35.9096 69.8699 36.1949C70.1757 36.4925 70.1866 36.9375 69.8699 37.2883C69.3293 37.8849 68.6441 38.1715 67.855 38.1865H67.8564Z" fill="#333333"/>
</g>
</g>
<defs>
<clipPath id="clip0_1130_5624">
<rect width="100" height="60" rx="30" fill="white"/>
</clipPath>
<clipPath id="clip1_1130_5624">
<rect width="78.7649" height="53" fill="white" transform="translate(10.6177 10)"/>
</clipPath>
</defs>
</svg>
