<svg width="60" height="60" viewBox="0 0 60 60" fill="none" xmlns="http://www.w3.org/2000/svg">
<g clip-path="url(#clip0_1130_5270)">
<rect width="60" height="60" rx="30" fill="#EEEEEE"/>
<g clip-path="url(#clip1_1130_5270)">
<path d="M45.6097 31.4641C45.6097 31.4641 45.8392 30.3613 48.2505 30.3613C50.6619 30.3613 53.3867 34.9642 51.6513 37.5812C50.4505 39.3922 48.4898 40.537 46.3738 40.1829C46.1065 40.1381 45.9848 40.1633 45.863 40.4264C44.7448 42.8391 43.1494 44.8866 41.0753 46.5478C40.7045 46.8445 40.9368 46.9228 41.1537 47.0838C44.3446 49.4489 46.5697 52.5124 47.8111 56.2896C48.8971 59.5924 46.6439 62.7371 43.1704 62.7399C34.5677 62.7455 25.9664 62.7469 17.3638 62.7399C13.9252 62.7371 11.651 59.5756 12.7273 56.3218C13.0659 55.296 13.4774 54.301 13.984 53.3465C14.3353 52.6846 14.5606 52.5894 15.2883 52.8049C15.6578 53.208 15.6536 53.6222 15.3877 54.0896C14.8965 54.9545 14.5326 55.8768 14.2303 56.8242C13.5082 59.0816 15.0028 61.1599 17.382 61.1627C25.986 61.1711 34.5901 61.1739 43.1928 61.1669C45.5621 61.1655 47.0428 59.0816 46.3262 56.8117C45.926 55.5437 45.3802 54.3415 44.6888 53.208C43.4391 51.1605 41.8311 49.4503 39.8256 48.0718C39.7724 48.2034 39.7332 48.2985 39.6954 48.3937C39.1259 49.8716 38.5283 51.3382 37.7837 52.7391C37.3751 53.5089 36.9426 54.2688 36.3087 54.886C35.6285 55.5493 34.9722 55.6543 34.1157 55.24C33.5097 54.9461 33.0269 54.4941 32.5636 54.0155C32.0472 53.4823 31.6134 52.8791 31.1488 52.2717C31.0102 52.4718 31.0662 52.6482 31.0662 52.8119C31.0606 53.9119 31.0648 55.0105 31.062 56.1105C31.062 56.5527 30.915 56.9054 30.4322 57.0034C29.8878 57.1139 29.5016 56.7571 29.4946 56.1119C29.482 54.9783 29.4946 53.8433 29.4862 52.7083C29.4862 52.5754 29.5813 52.3963 29.3784 52.3011C29.2273 52.504 29.0859 52.7013 28.9362 52.8945C28.27 53.751 27.5787 54.5837 26.6256 55.1421C25.6823 55.6949 24.9336 55.5871 24.1723 54.8146C23.8028 54.4395 23.5103 54.0057 23.236 53.5592C22.3865 52.1723 21.7638 50.6791 21.1606 49.1774C21.0164 48.8178 20.8723 48.4595 20.7099 48.0522C20.1669 48.4875 19.6687 48.8695 19.1901 49.274C18.5099 49.8506 17.8984 50.4971 17.3246 51.1801C16.8851 51.7007 16.6654 51.7511 16.0594 51.4866C15.683 50.9436 15.69 50.6805 16.1 50.1837C17.1608 48.9017 18.384 47.7905 19.7919 46.7969C18.9102 46.086 18.1111 45.347 17.3904 44.5283C16.3127 43.3052 15.4115 41.9644 14.7299 40.4838C14.5998 40.2011 14.478 40.1269 14.1491 40.1843C12.1017 40.5356 9.97865 39.4873 8.93323 37.6498C7.89621 35.8263 7.913 33.4961 9.27891 31.9063C9.52662 31.618 10.9653 29.9064 12.0233 29.7497C14.1379 29.4362 14.9664 31.3101 14.9664 31.3101M32.789 48.584C32.8057 48.5854 32.8239 48.591 32.8407 48.5882C40.4792 47.4015 46.2409 40.313 45.8742 32.5501C45.8462 31.9567 45.6783 31.3899 45.2486 30.9826C43.8757 29.6783 43.0444 28.0941 42.6176 26.2636C42.4328 25.4728 41.8017 25.0068 40.9998 24.9242C39.8872 24.8095 38.8488 25.0362 37.8985 25.6282C37.0686 26.1446 36.2121 26.6078 35.2898 26.9339C31.8695 28.1431 28.4561 28.0885 25.0512 26.8723C24.2185 26.5169 23.4138 26.1068 22.6454 25.6226C21.7148 25.0362 20.6918 24.8207 19.596 24.92C18.5477 25.0152 17.9641 25.477 17.7192 26.5001C17.3288 28.1319 16.5815 29.5594 15.3863 30.7447C14.9454 31.1828 14.7229 31.7258 14.6879 32.3359C14.6306 33.3478 14.6627 34.3596 14.8125 35.3616C15.4087 39.3376 17.2406 42.6446 20.3377 45.1959C23.9638 48.181 28.13 49.3174 32.7862 48.5854L32.789 48.584ZM13.1205 33.0203C13.1205 32.7068 13.0645 32.3807 13.1331 32.084C13.2409 31.618 13.0435 31.5998 12.6881 31.6726C10.8911 32.0393 9.65957 33.7396 9.87229 35.566C10.0836 37.3797 11.6846 38.7232 13.5362 38.6686C13.9168 38.6575 13.9518 38.5553 13.8454 38.2138C13.315 36.5246 13.0659 34.7921 13.1205 33.0203ZM47.415 33.3646C47.4724 34.2393 47.3661 35.1027 47.2359 35.9634C47.1183 36.7373 46.949 37.5043 46.6999 38.246C46.5907 38.5693 46.6369 38.6588 46.991 38.6714C48.5038 38.7274 49.8907 37.8541 50.4561 36.4533C51.279 34.4184 50.0041 32.0812 47.8517 31.6614C47.4472 31.583 47.2947 31.6362 47.3968 32.1148C47.4822 32.5137 47.4136 32.9461 47.4136 33.3632L47.415 33.3646ZM22.7322 48.6988C23.3452 50.3516 23.9932 51.9722 25.0204 53.4053C25.4528 54.0085 25.604 54.0253 26.1792 53.5564C27.163 52.7559 27.8711 51.7203 28.5891 50.6931C28.834 50.3432 28.7206 50.2802 28.3568 50.2662C28.0111 50.2522 27.6668 50.1823 27.3239 50.1235C25.7411 49.852 24.2297 49.351 22.7308 48.7002L22.7322 48.6988ZM37.8691 48.7422C37.7823 48.7198 37.7474 48.6974 37.7222 48.7058C37.6396 48.7324 37.5598 48.766 37.4814 48.8024C35.8748 49.5483 34.187 50.0087 32.4363 50.2508C31.7435 50.346 31.7365 50.353 32.1298 50.924C32.8225 51.9288 33.5377 52.9155 34.5201 53.6712C34.849 53.9245 35.1205 53.9581 35.3976 53.5886C36.5032 52.1164 37.1638 50.4258 37.8677 48.7422H37.8691Z" fill="#333333"/>
<path d="M13.1205 33.0203C13.0645 34.7921 13.3136 36.5246 13.8454 38.2138C13.9532 38.5553 13.9168 38.6574 13.5361 38.6686C11.686 38.7232 10.085 37.3797 9.87225 35.566C9.65953 33.7396 10.8911 32.0407 12.688 31.6726C13.0435 31.5998 13.2408 31.6166 13.1331 32.084C13.0645 32.3807 13.1205 32.7082 13.1205 33.0203Z" fill="white"/>
<path d="M47.415 33.3646C47.415 32.9475 47.4822 32.5151 47.3982 32.1162C47.296 31.6376 47.4486 31.5844 47.853 31.6628C50.0054 32.0826 51.279 34.4198 50.4575 36.4546C49.8921 37.8555 48.5052 38.7288 46.9923 38.6728C46.6383 38.6602 46.5921 38.5693 46.7012 38.2474C46.9504 37.5057 47.1197 36.7387 47.2373 35.9648C47.3674 35.1041 47.4738 34.2393 47.4164 33.366L47.415 33.3646Z" fill="white"/>
<path d="M22.7322 48.6988C24.2296 49.3496 25.7411 49.8506 27.3253 50.1221C27.6682 50.1809 28.0125 50.2508 28.3581 50.2648C28.722 50.2788 28.8354 50.3418 28.5904 50.6917C27.8725 51.7203 27.1644 52.7545 26.1805 53.555C25.6039 54.0239 25.4542 54.0071 25.0217 53.4039C23.9945 51.9708 23.3466 50.3502 22.7336 48.6974L22.7322 48.6988Z" fill="#BDBDBD"/>
<path d="M37.8691 48.7422C37.1652 50.4258 36.5046 52.1163 35.399 53.5886C35.1219 53.9581 34.8504 53.9245 34.5215 53.6712C33.5391 52.9155 32.8239 51.9288 32.1312 50.924C31.7365 50.3516 31.7435 50.346 32.4377 50.2508C34.1884 50.0087 35.8762 49.5483 37.4828 48.8023C37.5612 48.766 37.641 48.7324 37.7235 48.7058C37.7487 48.6974 37.7851 48.7198 37.8705 48.7422H37.8691Z" fill="#BDBDBD"/>
<path d="M45.8756 32.746C45.8476 32.1526 45.6796 31.5858 45.25 31.1786C43.8771 29.8742 43.0458 28.29 42.619 26.4595C42.4342 25.6688 41.8031 25.2027 41.0011 25.1202C39.8885 25.0054 38.8501 25.2321 37.8999 25.8241C37.07 26.3405 36.2135 26.8038 35.2912 27.1298C31.8709 28.339 28.4575 28.2844 25.0525 27.0683C24.2198 26.7128 23.4151 26.3027 22.6468 25.8185C21.7162 25.2321 20.6931 25.0166 19.5973 25.116C18.5491 25.2111 17.9655 25.673 17.7206 26.696C17.3301 28.3278 16.5828 29.7553 15.3877 30.9407C14.9468 31.3787 14.7243 31.9217 14.6893 32.5319C14.6319 33.5437 14.6641 34.5555 14.8139 35.5576C15.41 39.5335 17.242 42.8405 20.3391 45.3918C23.9651 48.3769 28.1314 49.5133 32.7875 48.7814C32.8043 48.7828 32.8225 48.7884 32.8393 48.7856C40.4777 47.5988 46.2394 40.5104 45.8728 32.7474L45.8756 32.746ZM27.9901 34.7277C28.3022 34.4016 28.7262 34.3974 29.1111 34.7165C30.0095 35.4596 30.5399 35.4596 31.444 34.7151C31.8303 34.3974 32.2543 34.403 32.565 34.7291C32.8715 35.051 32.8617 35.4806 32.523 35.8501C31.9268 36.5008 31.1711 36.8031 30.2866 36.8465C29.4092 36.8157 28.638 36.5106 28.0279 35.8459C27.6892 35.4764 27.6808 35.0482 27.9887 34.7263L27.9901 34.7277ZM22.9295 35.3029C22.9365 34.9054 22.9365 34.508 22.9519 34.1105C22.9729 33.5913 23.2836 33.2722 23.7468 33.2764C24.21 33.2806 24.5067 33.5997 24.5193 34.1273C24.5291 34.508 24.5137 34.8886 24.5221 35.2693C24.5291 35.5744 24.371 35.7899 24.1667 35.9844C23.4333 36.1873 23.1478 36.0292 22.9295 35.3015V35.3029Z" fill="white"/>
<path d="M33.6678 30.9798H22.213V36.8465H33.6678V30.9798Z" fill="white"/>
<path d="M24.1429 40.3312C23.4096 40.5342 23.1241 40.376 22.9058 39.6483C22.9128 39.2508 22.9128 38.8534 22.9282 38.4559C22.9491 37.9367 23.2598 37.6176 23.7231 37.6218C24.1863 37.626 24.483 38.365 24.4956 38.8926C24.5054 39.2732 24.49 39.234 24.4984 39.6147C24.5054 39.9198 24.3472 40.1353 24.1429 40.3298V40.3312Z" fill="#333333"/>
<path d="M37.6018 39.6483C37.3807 40.3774 37.0966 40.5342 36.3632 40.3312C36.0973 40.1003 35.9868 40.2347 36.005 39.8792C36.0246 39.5167 35.9952 38.7316 36.0162 38.3706C36.0414 37.9171 36.3548 37.6274 36.7831 37.6232C37.2085 37.619 37.5388 37.9059 37.571 38.3538C37.6018 38.7834 37.592 39.2172 37.6004 39.6497L37.6018 39.6483Z" fill="#333333"/>
<path d="M30.2881 41.5964C29.4106 41.5656 28.6395 41.2605 28.0294 40.5957C27.6907 40.2263 27.6823 39.798 27.9902 39.4761C28.3023 39.1501 28.7263 39.1459 29.1112 39.465C30.0096 40.2081 30.54 40.2081 31.4441 39.4636C31.8304 39.1459 32.2544 39.1515 32.5651 39.4775C32.8716 39.7994 32.8618 40.2291 32.5231 40.5985C31.9269 41.2493 31.1712 41.5516 30.2867 41.595L30.2881 41.5964Z" fill="#333333"/>
<path d="M14.0484 31.632C14.0484 31.632 17.1874 25.9851 20.4805 25.7499C23.7735 25.5148 30.4602 28.479 30.4602 28.479C32.5623 29.9722 34.8252 31.1072 37.4367 31.3367C39.6619 31.5326 41.8605 31.2485 44.0227 30.7251C44.798 30.5376 45.5257 30.4172 46.2199 30.9295C46.2703 30.9673 46.3528 30.9854 46.4172 30.9784C47.5858 30.8511 48.7012 31.0274 49.7788 31.6376C49.825 30.2395 49.727 28.9408 49.4891 27.6505C48.8663 24.2721 47.4598 21.2604 45.2682 18.6139L42.696 16.0599C40.1559 13.9802 37.2785 12.6269 34.0597 11.9734C31.4203 11.4373 28.7528 11.6235 26.0924 11.6165C23.9302 11.6095 21.768 11.5969 19.6058 11.5997C17.9306 11.6025 16.9271 13.016 17.4729 14.603C17.778 15.4917 17.6087 16.239 16.9257 16.8856C13.7741 19.8707 11.826 23.5108 11.0437 27.775C10.8142 29.0248 10.7204 30.2857 10.7862 31.6152C11.6035 31.2094 12.4026 30.9001 13.2731 30.9561" fill="white"/>
<path d="M49.7789 32.4801C49.6361 32.4801 49.4934 32.4437 49.3646 32.3709C48.5011 31.8825 47.5663 31.7006 46.5068 31.8153C46.2311 31.8447 45.9372 31.7678 45.7203 31.6068C45.3467 31.3311 44.9562 31.3647 44.2201 31.5424C41.7038 32.1526 39.4604 32.3583 37.3626 32.175C34.9317 31.9609 32.6043 31.0204 30.0446 29.2151C29.3127 28.8974 23.4096 26.3839 20.5393 26.5882C18.2147 26.7548 15.5949 30.581 14.7804 32.0407C14.5551 32.4451 14.0442 32.5907 13.6384 32.3653C13.4159 32.2408 13.2703 32.0309 13.2241 31.7985C13.2227 31.7985 13.2199 31.7985 13.2185 31.7985C12.5552 31.7552 11.9142 31.9973 11.1585 32.3723C10.9052 32.4983 10.6043 32.4871 10.3608 32.3443C10.1159 32.2016 9.96053 31.9441 9.94654 31.6614C9.87936 30.3025 9.96753 28.9828 10.2166 27.6281C11.0325 23.1791 13.0954 19.3613 16.3478 16.2796C16.783 15.8681 16.8782 15.4623 16.6781 14.8801C16.3282 13.8627 16.4542 12.82 17.0238 12.0209C17.5934 11.2232 18.5338 10.7656 19.6058 10.7628C21.1187 10.76 22.6553 10.767 24.1416 10.7726C24.7937 10.7754 25.4445 10.7782 26.0953 10.7796C26.6509 10.781 27.2191 10.774 27.7677 10.767C29.8767 10.7404 32.0571 10.7124 34.2277 11.1533C37.5795 11.8334 40.6066 13.2665 43.2292 15.4133C43.2502 15.4301 43.2698 15.4483 43.2894 15.4679L45.8617 18.022C45.8813 18.0415 45.8995 18.0611 45.9163 18.0821C48.189 20.8293 49.6697 23.9978 50.3163 27.5021C50.5668 28.8638 50.6661 30.2269 50.6199 31.6684C50.6101 31.9623 50.4478 32.2296 50.1917 32.3737C50.0643 32.4451 49.923 32.4815 49.7802 32.4815L49.7789 32.4801ZM20.857 24.8977C24.4103 24.8977 30.5303 27.5931 30.8004 27.712C30.8521 27.7344 30.9011 27.7624 30.9459 27.7946C33.2803 29.453 35.3655 30.3123 37.5095 30.5012C39.4226 30.6692 41.4883 30.476 43.824 29.9106C44.4664 29.7553 45.516 29.5006 46.5264 30.1262C47.3815 30.0562 48.1806 30.1345 48.9378 30.3669C48.9084 29.4964 48.8174 28.6497 48.6607 27.8058C48.0701 24.5996 46.7182 21.6998 44.6441 19.1835L42.1306 16.6868C39.7305 14.729 36.9581 13.4218 33.8904 12.7991C31.8962 12.3946 29.8991 12.4198 27.7858 12.4464C27.2303 12.4534 26.6537 12.4604 26.0869 12.459C25.4347 12.4576 24.7825 12.4548 24.1304 12.452C22.6469 12.4464 21.1117 12.4394 19.603 12.4422C19.0726 12.4422 18.6416 12.6395 18.3883 12.995C18.1336 13.3519 18.0888 13.8277 18.2637 14.3329C18.678 15.5379 18.4149 16.6323 17.501 17.4971C14.5131 20.3283 12.6168 23.8382 11.8666 27.929C11.7169 28.7477 11.6315 29.551 11.6091 30.3585C12.1423 30.1849 12.7105 30.0814 13.3249 30.1206C13.525 30.1332 13.7042 30.2157 13.8399 30.3417C14.9357 28.6217 17.5108 25.1188 20.4175 24.9102C20.5575 24.9005 20.7044 24.8949 20.8542 24.8949L20.857 24.8977Z" fill="#333333"/>
<path d="M19.526 48.9955L20.9507 47.7066C20.9507 47.7066 21.8505 48.3643 22.9687 48.7996C24.0869 49.2348 27.629 50.346 28.5513 50.283C29.475 50.22 29.6149 51.7833 29.6149 51.7833L29.4708 57.0104L26.5165 58.0166L21.4979 57.0761L19.5232 55.3898V48.9941L19.526 48.9955Z" fill="#BDBDBD"/>
<path d="M41.0488 48.9955L39.6241 47.7066C39.6241 47.7066 38.7242 48.3643 37.606 48.7996C36.4878 49.2348 32.9457 50.346 32.0235 50.283C31.1012 50.22 30.9598 51.7833 30.9598 51.7833L31.104 57.0104L34.0583 58.0166L39.0769 57.0761L41.0516 55.3898V48.9941L41.0488 48.9955Z" fill="#BDBDBD"/>
<path d="M46.3263 56.813C45.926 55.5451 45.3802 54.3429 44.6888 53.2094C43.8296 51.8015 42.8009 50.5531 41.5904 49.4629L39.6241 47.7066C39.6241 47.7066 34.2556 50.2816 30.1999 50.3334C26.1442 50.3852 20.9507 47.7066 20.9507 47.7066L19.3063 49.1774C19.2671 49.2096 19.2265 49.2418 19.1887 49.2754C18.9858 49.4475 18.7913 49.6267 18.5995 49.81L18.5701 49.8366C18.1307 50.262 17.7165 50.7127 17.3218 51.1815C16.8824 51.7021 16.6626 51.7525 16.0567 51.488C15.8047 51.9302 15.3611 52.2591 15.2869 52.8049C15.6564 53.208 15.6522 53.6222 15.3863 54.0896C14.8951 54.9545 14.5312 55.8768 14.2289 56.8242C13.5068 59.0816 15.0014 61.1599 17.3806 61.1627C25.9846 61.1711 34.5887 61.1739 43.1914 61.1669C45.5607 61.1655 47.0414 59.0816 46.3249 56.8116L46.3263 56.813Z" fill="#BDBDBD"/>
<path d="M29.6163 53.9833C25.7005 53.9833 24.2423 51.0094 24.0184 49.4377C23.9526 48.9787 24.2717 48.5532 24.7307 48.4875C25.1883 48.4231 25.6124 48.7394 25.6796 49.1956C25.6838 49.2208 25.8181 50.0269 26.3737 50.8008C27.0902 51.7987 28.1804 52.3039 29.6163 52.3039C33.1192 52.3039 34.0219 49.2264 34.0583 49.0963C34.1829 48.6512 34.6447 48.3895 35.0897 48.5113C35.5348 48.6344 35.7993 49.0907 35.6789 49.5371C35.2647 51.0751 33.4635 53.9833 29.6163 53.9833Z" fill="#333333"/>
</g>
</g>
<defs>
<clipPath id="clip0_1130_5270">
<rect width="60" height="60" rx="30" fill="white"/>
</clipPath>
<clipPath id="clip1_1130_5270">
<rect width="44" height="51.9911" fill="white" transform="translate(8.19995 10.7544)"/>
</clipPath>
</defs>
</svg>
