<svg xmlns="http://www.w3.org/2000/svg" xmlns:xlink="http://www.w3.org/1999/xlink" width="107" height="107" viewBox="0 0 107 107">
  <defs>
    <linearGradient id="linear-gradient" x1="0.177" y1="0.165" x2="0.808" y2="0.811" gradientUnits="objectBoundingBox">
      <stop offset="0" stop-color="#8cd0b9"/>
      <stop offset="1" stop-color="#32acc9"/>
    </linearGradient>
  </defs>
  <path id="Shape" d="M5,107V45h98V58.425a12.109,12.109,0,0,0-7-2.407c-.233-.013-.468-.019-.7-.019-5.463,0-8.89,3.391-10.8,6.235a25.513,25.513,0,0,0-3.959,13.307,26.168,26.168,0,0,1,8.9-1.5A22.23,22.23,0,0,1,96.8,75.184a9.037,9.037,0,0,1,4.85,3.515,4.031,4.031,0,0,1-.49,4.588,4.58,4.58,0,0,1-3.616,1.726,5.216,5.216,0,0,1-1.685-.285,4.386,4.386,0,0,0-1.382-.283,1.705,1.705,0,0,0-1.36.665,1.949,1.949,0,0,0-.416,1.557c.2.978,1.355,1.647,2.292,2.035a10.516,10.516,0,0,0,4,.746,12.551,12.551,0,0,0,4-.66v2.151a14.747,14.747,0,0,1-4,.556,12.6,12.6,0,0,1-4.8-.891c-2.537-1.054-3.317-2.5-3.525-3.532a3.98,3.98,0,0,1,.97-3.409,3.81,3.81,0,0,1,2.83-1.277,6.393,6.393,0,0,1,2.061.39,3.1,3.1,0,0,0,1,.174A2.6,2.6,0,0,0,99.8,81.632a1.87,1.87,0,0,0,.081-1.867c-1.325-2.186-5.7-3.713-10.63-3.713a22.388,22.388,0,0,0-8.6,1.661l-.178.081A21.156,21.156,0,0,0,72.4,84.033,18.866,18.866,0,0,0,70,87.826a7.247,7.247,0,0,1,2.664-.515c3.394,0,6.53,2.433,9.3,4.579.464.36.9.7,1.338,1.027C87.5,96.077,92.339,99,99.179,99c.264,0,.535,0,.807-.013A20.044,20.044,0,0,0,103,98.653V107H5ZM52.242,66.726v25.1a4.563,4.563,0,0,0,.94,3.127A3.105,3.105,0,0,0,55.584,96a3.179,3.179,0,0,0,2.488-1.042A4.6,4.6,0,0,0,59,91.831V63.045c0-1.58-.417-2.662-1.238-3.214A5.941,5.941,0,0,0,54.421,59H52.143a8.709,8.709,0,0,0-2.983.372,2.52,2.52,0,0,0-1.373,1.34,20.928,20.928,0,0,0-1.015,3.152L41.5,83.791,36.228,63.864a20.928,20.928,0,0,0-1.015-3.152,2.514,2.514,0,0,0-1.373-1.34A8.709,8.709,0,0,0,30.857,59H28.58a5.946,5.946,0,0,0-3.342.831C24.417,60.383,24,61.464,24,63.045V91.831a4.549,4.549,0,0,0,.94,3.139,3.4,3.4,0,0,0,4.889-.012,4.6,4.6,0,0,0,.928-3.127V66.718L36.574,89.9c.186.717.377,1.436.581,2.2a8.221,8.221,0,0,0,.78,1.923A3.912,3.912,0,0,0,41.5,96a3.872,3.872,0,0,0,2.673-.868A4.607,4.607,0,0,0,45.5,93.209c.239-.7.543-1.787.928-3.313l5.815-23.17ZM88.995,27V22.059L76,0h9.066L107,22.37v4.936A8.965,8.965,0,0,1,98,36,9.231,9.231,0,0,1,88.995,27ZM67.184,27V22.059L63,0h8.658L85,22.509V27.45A8.786,8.786,0,0,1,76.1,36,9.185,9.185,0,0,1,67.184,27ZM45,27V22.059L49.712,0h8.572L63,22.05v4.941A9,9,0,1,1,45,27Zm-23,.306V22.37L35.345,0H44L39.818,22.37v4.941a8.912,8.912,0,0,1-17.818,0Zm-22,0V22.37L21.939,0H31L18,22.37v4.941A8.961,8.961,0,0,1,9,36,8.962,8.962,0,0,1,0,27.306Z" fill="url(#linear-gradient)"/>
</svg>
