<?xml version="1.0" encoding="UTF-8"?>
<svg width="190px" height="57px" viewBox="0 0 190 57" version="1.1" xmlns="http://www.w3.org/2000/svg" xmlns:xlink="http://www.w3.org/1999/xlink">
    <title>Oval</title>
    <defs>
        <path d="M164.666826,45.6652774 L154.521236,45.6652774 L154.521236,52.0399107 L166.504795,52.0399107 L166.504795,57 L148.069965,57 L148.069965,30.2522591 L166.541554,30.2522591 L166.541554,35.2307191 L154.521236,35.2307191 L154.521236,40.8705244 L164.666826,40.8705244 L164.666826,45.6652774 Z M190,35.2307191 L181.968075,35.2307191 L181.968075,57 L175.516804,57 L175.516804,35.2307191 L167.631917,35.2307191 L167.631917,30.2522591 L190,30.2522591 L190,35.2307191 Z M16.5968605,15.7804323 L6.45127136,15.7804323 L6.45127136,22.1550656 L18.4348296,22.1550656 L18.4348296,27.1151549 L0,27.1151549 L0,0.367414023 L18.4715889,0.367414023 L18.4715889,5.34587403 L6.45127136,5.34587403 L6.45127136,10.9856793 L16.5968605,10.9856793 L16.5968605,15.7804323 Z M22.5255526,16.4656098 L22.5255526,10.5869854 L28.4254332,10.5869854 L28.4254332,16.4656098 L22.5255526,16.4656098 Z M43.8564252,17.6726145 L40.364284,17.6726145 L40.364284,27.1151549 L33.9130127,27.1151549 L33.9130127,0.367414023 L44.4445753,0.367414023 C47.6181352,0.367414023 50.0993934,1.07162423 51.88835,2.48004465 C53.6773065,3.88846508 54.5717848,5.87862437 54.5717848,8.45052253 C54.5717848,10.3120869 54.1950011,11.8552258 53.4414338,13.0799392 C52.6878665,14.3046526 51.508503,15.2966705 49.9033434,16.0559928 L55.4907693,26.8395944 L55.4907693,27.1151549 L48.5800057,27.1151549 L43.8564252,17.6726145 Z M40.364284,12.6941545 L44.4445753,12.6941545 C45.669888,12.6941545 46.5919358,12.3726672 47.2107187,11.7296927 C47.8295016,11.0867181 48.1388931,10.1896156 48.1388931,9.03838496 C48.1388931,7.88715436 47.8264384,6.98392822 47.2015289,6.32870654 C46.5766194,5.67348487 45.6576349,5.34587403 44.4445753,5.34587403 L40.364284,5.34587403 L40.364284,12.6941545 Z M80.6217672,14.2924055 C80.6217672,16.9010451 80.1377686,19.2096298 79.1697716,21.2181598 C78.2017746,23.2266898 76.8263611,24.7728905 75.0435311,25.8567619 C73.2607011,26.9406332 71.2297453,27.4825689 68.9506637,27.4825689 C66.6715821,27.4825689 64.6498161,26.9590039 62.8853659,25.911874 C61.1209156,24.864744 59.7455021,23.3675319 58.7591253,21.4202375 C57.7727486,19.4729432 57.255054,17.2378412 57.2060415,14.7149316 L57.2060415,13.2085341 C57.2060415,10.5876474 57.6869767,8.27600087 58.6488472,6.27359444 C59.6107177,4.27118802 60.9891944,2.72498734 62.7842776,1.6349924 C64.5793607,0.544997467 66.6225696,0 68.9139043,0 C71.1807328,0 73.2024988,0.5388739 74.9792022,1.6166217 C76.7559056,2.6943695 78.1374457,4.22832305 79.1238224,6.21848234 C80.1101991,8.20864163 80.609514,10.4896704 80.6217672,13.0615685 L80.6217672,14.2924055 Z M74.0602177,13.1717927 C74.0602177,10.5141646 73.6160418,8.49644928 72.7276901,7.11864669 C71.8393384,5.74084411 70.5680765,5.05194281 68.9139043,5.05194281 C65.6790788,5.05194281 63.9697676,7.47687537 63.7859707,12.3267405 L63.767591,14.2924055 C63.767591,16.9132922 64.202577,18.9279457 65.072549,20.3363662 C65.942521,21.7447866 67.2352259,22.4489968 68.9506637,22.4489968 C70.5803296,22.4489968 71.8362751,21.7570337 72.7185003,20.3731076 C73.6007254,18.9891814 74.0479645,16.9990221 74.0602177,14.4026297 L74.0602177,13.1717927 Z M104.429427,0.367414023 L104.429427,17.8746922 C104.429427,19.8587279 104.006694,21.5763885 103.161229,23.0276739 C102.315763,24.4789593 101.102703,25.5842631 99.52205,26.3435854 C97.9413966,27.1029078 96.0727947,27.4825689 93.9162444,27.4825689 C90.6569126,27.4825689 88.0898825,26.6375167 86.215154,24.9474122 C84.3404256,23.2573076 83.3846817,20.9425993 83.3479223,18.0032871 L83.3479223,0.367414023 L89.8359531,0.367414023 L89.8359531,18.131882 C89.9094718,21.0589471 91.2695689,22.5224796 93.9162444,22.5224796 C95.2518352,22.5224796 96.2627182,22.1550656 96.9488933,21.4202375 C97.6350684,20.6854095 97.978156,19.4913139 97.978156,17.8379508 L97.978156,0.367414023 L104.429427,0.367414023 Z M116.418946,0.367414023 L122.392346,18.9769343 L128.347366,0.367414023 L136.838783,0.367414023 L136.838783,27.1151549 L130.369132,27.1151549 L130.369132,20.8691165 L130.994041,8.0831085 L124.52439,27.1151549 L120.260302,27.1151549 L113.772271,8.0647378 L114.397181,20.8691165 L114.397181,27.1151549 L107.945909,27.1151549 L107.945909,0.367414023 L116.418946,0.367414023 Z M50.9829757,30.2522591 L56.9563751,48.8617794 L62.9113948,30.2522591 L71.4028118,30.2522591 L71.4028118,57 L64.9331608,57 L64.9331608,50.7539616 L65.5580702,37.9679536 L59.0884192,57 L54.824331,57 L48.3363003,37.9495829 L48.9612097,50.7539616 L48.9612097,57 L42.5099384,57 L42.5099384,30.2522591 L50.9829757,30.2522591 Z M90.5236509,52.0031693 L81.6830198,52.0031693 L80.1391258,57 L73.2467418,57 L83.0614966,30.2522591 L89.1267944,30.2522591 L99.0150679,57 L92.0859246,57 L90.5236509,52.0031693 Z M83.2269138,47.0247093 L88.9797569,47.0247093 L86.0941455,37.7475052 L83.2269138,47.0247093 Z M110.398057,47.5574596 L106.905916,47.5574596 L106.905916,57 L100.454645,57 L100.454645,30.2522591 L110.986207,30.2522591 C114.159767,30.2522591 116.641025,30.9564693 118.429982,32.3648898 C120.218939,33.7733102 121.113417,35.7634695 121.113417,38.3353676 C121.113417,40.196932 120.736633,41.7400709 119.983066,42.9647843 C119.229499,44.1894977 118.050135,45.1815156 116.444975,45.9408379 L122.032401,56.7244395 L122.032401,57 L115.121638,57 L110.398057,47.5574596 Z M106.905916,42.5789996 L110.986207,42.5789996 C112.21152,42.5789996 113.133568,42.2575123 113.752351,41.6145378 C114.371134,40.9715633 114.680525,40.0744607 114.680525,38.9232301 C114.680525,37.7719995 114.36807,36.8687733 113.743161,36.2135517 C113.118251,35.55833 112.199267,35.2307191 110.986207,35.2307191 L106.905916,35.2307191 L106.905916,42.5789996 Z M133.599188,47.04308 L130.952512,49.9456508 L130.952512,57 L124.501241,57 L124.501241,30.2522591 L130.952512,30.2522591 L130.952512,42.0462493 L133.194834,38.6476696 L138.966057,30.2522591 L146.942843,30.2522591 L137.900035,42.0829907 L146.942843,57 L139.296892,57 L133.599188,47.04308 Z" id="path-1"></path>
        <filter x="-17.3%" y="-17.3%" width="134.7%" height="134.7%" filterUnits="objectBoundingBox" id="filter-3">
            <feGaussianBlur stdDeviation="19" in="SourceGraphic"></feGaussianBlur>
        </filter>
    </defs>
    <g id="1:1문의" stroke="none" stroke-width="1" fill="none" fill-rule="evenodd">
        <g id="고객센터-1:1문의---작성" transform="translate(-1316.000000, -1014.000000)">
            <g id="Oval" transform="translate(1316.000000, 1014.000000)">
                <mask id="mask-2" fill="white">
                    <use xlink:href="#path-1"></use>
                </mask>
                <use id="Mask" fill="#1D1D1D" fill-rule="nonzero" xlink:href="#path-1"></use>
                <circle fill="#FFFFFF" opacity="0.300000012" filter="url(#filter-3)" mask="url(#mask-2)" cx="209.5" cy="181.5" r="164.5"></circle>
            </g>
        </g>
    </g>
</svg>