<?xml version="1.0" encoding="UTF-8"?>
<svg width="14px" height="18px" viewBox="0 0 14 18" version="1.1" xmlns="http://www.w3.org/2000/svg" xmlns:xlink="http://www.w3.org/1999/xlink">
    <title>Shape</title>
    <g id="회원-아버지-링크" stroke="none" stroke-width="1" fill="none" fill-rule="evenodd">
        <g id="link-2" transform="translate(-809.000000, -438.000000)" fill="#F61FAC" fill-rule="nonzero">
            <path d="M815.061753,437.915619 L817.666157,440.520022 L814.568541,443.637715 C812.606336,445.59992 812.606336,448.79495 814.568541,450.755927 C816.533202,452.720588 819.727004,452.720588 821.68921,450.755927 L824.786825,447.640691 L827.392457,450.245095 L824.293613,453.362787 C820.891066,456.766562 815.36914,456.766562 811.964137,453.362787 C808.560362,449.957784 808.56159,444.437086 811.964137,441.033311 L815.061753,437.915619 Z M820.834141,443.763158 L821.735303,444.66432 C822.125827,445.054844 822.125827,445.688009 821.735303,446.078533 L818.923957,448.88988 C818.533433,449.280404 817.900268,449.280404 817.509743,448.88988 L816.608582,447.988718 C816.218057,447.598194 816.218057,446.965029 816.608582,446.574504 L819.419928,443.763158 C819.810452,443.372634 820.443617,443.372634 820.834141,443.763158 Z" id="Shape" transform="translate(818.402112, 446.915619) rotate(45.000000) translate(-818.402112, -446.915619) "></path>
        </g>
    </g>
</svg>