<svg xmlns="http://www.w3.org/2000/svg" width="82.732" height="82.731" viewBox="0 0 82.732 82.731">
  <path id="Shape" d="M5.833,47A5.86,5.86,0,0,1,0,41.125V5.875A5.86,5.86,0,0,1,5.833,0H64.166A5.861,5.861,0,0,1,70,5.875V41.125A5.861,5.861,0,0,1,64.166,47Zm-.186-7.5A1.441,1.441,0,0,0,7.1,40.925H62.2a1.441,1.441,0,0,0,1.45-1.429V20.925h-58ZM6.354,7.5V12h58V7.5A1.478,1.478,0,0,0,62.9,6H7.8A1.478,1.478,0,0,0,6.354,7.5Zm4.8,28.1v-3h18v3ZM49.238,29.6v-3h9v3ZM12.1,29.243v-3h26v3Z" transform="translate(0 49.498) rotate(-45)" fill="#fff"/>
</svg>
