<svg id="Group_8" data-name="Group 8" xmlns="http://www.w3.org/2000/svg" width="40" height="40" viewBox="0 0 40 40">
  <g id="Group_14" data-name="Group 14">
    <rect id="Rectangle" width="40" height="40" rx="6" fill="#333"/>
    <path id="Oval_2_Copy_5" data-name="Oval 2 Copy 5" d="M6.3,18.149a6.3,6.3,0,0,1-6.3-6.3.741.741,0,0,1,1.481,0A4.834,4.834,0,0,0,6.32,16.667h6.273a.741.741,0,1,1,0,1.481Zm0-5.556A6.3,6.3,0,0,1,6.3,0h6.3a.741.741,0,0,1,0,1.481H6.32a4.815,4.815,0,1,0,0,9.63h6.273a.741.741,0,1,1,0,1.481Zm6.3-5.556H5.926a.741.741,0,0,1,0-1.481h6.686a.741.741,0,0,1-.019,1.481Z" transform="translate(13 10.667)" fill="#fff"/>
  </g>
</svg>
