<svg xmlns="http://www.w3.org/2000/svg" width="24" height="24" viewBox="0 0 24 24">
  <path id="Rectangle_6" data-name="Rectangle 6" d="M20,24h0V20h4v2a3.041,3.041,0,0,1-.621,1.5A2.179,2.179,0,0,1,22,24H20Zm-9.838,0a2.447,2.447,0,0,1-1.5-.583A2.27,2.27,0,0,1,8,22V20H9.334v1.333H10V20h1.333v1.333H12V20h1.333v1.333H14V20h1.334v1.333H16V20h1.333v1.333H18V20h1.333v4ZM20,19.333h0V18h1.334v-.667H20V16h1.334v-.667H20V14h1.334v-.667H20V12h1.334v-.667H20V10h1.334V9.333H20V8h2a2.676,2.676,0,0,1,1.514.518A2.468,2.468,0,0,1,24,10v9.333Zm-6.624-4.666a1.509,1.509,0,0,0,.5-.091,1.43,1.43,0,0,0,.412-.278l.937.95a2.755,2.755,0,0,1-.778.536,3.6,3.6,0,0,1-1.07.233ZM10,16.016V14.683h2v1.333Zm-7.593,0-.779-.3a2.335,2.335,0,0,1-1.312-1.29L0,13.653V2.377L.315,1.61A2.33,2.33,0,0,1,1.628.321l.783-.3H6.959L7.712.31A2.333,2.333,0,0,1,9.039,1.64l.295.758V13.65l-.292.746A2.335,2.335,0,0,1,7.713,15.72l-.762.3Zm12.206-2.392a1.3,1.3,0,0,0,.053-.265c0-.1,0-1.454,0-1.454H16V13.36a2.531,2.531,0,0,1-.121.656Zm.053-2.941v-2H16v2Zm0-3.334v-2H16v2Zm0-3.334s0-1.351,0-1.454a1.293,1.293,0,0,0-.053-.265l1.266-.392A2.532,2.532,0,0,1,16,2.563V4.016Zm-.833-2.575a1.527,1.527,0,0,0-.5-.091V0a3.587,3.587,0,0,1,1.07.234,2.744,2.744,0,0,1,.778.535l-.937.95A1.427,1.427,0,0,0,13.834,1.441ZM10,1.35V.017h2V1.35Z" fill="#333"/>
</svg>
