<svg xmlns="http://www.w3.org/2000/svg" width="19.636" height="18" viewBox="0 0 19.636 18">
  <path id="Shape" d="M29.545,28.909a1.636,1.636,0,1,1-1.636-1.636A1.637,1.637,0,0,1,29.545,28.909ZM18.091,26.455a2.455,2.455,0,0,0,0,4.909H29.545a2.455,2.455,0,0,0,0-4.909Zm15.545,2.455A4.091,4.091,0,0,1,29.545,33H18.091a4.091,4.091,0,0,1,0-8.182H29.545A4.091,4.091,0,0,1,33.636,28.909Zm0-9.818a4.091,4.091,0,0,1-4.091,4.091H18.091a4.091,4.091,0,0,1,0-8.182H29.545A4.091,4.091,0,0,1,33.636,19.091Zm-12.273,0a1.636,1.636,0,1,0-1.636,1.636A1.637,1.637,0,0,0,21.364,19.091Z" transform="translate(-14 -15)" fill="#333"/>
</svg>