<svg xmlns="http://www.w3.org/2000/svg" xmlns:xlink="http://www.w3.org/1999/xlink" width="23.998" height="23.997" viewBox="0 0 23.998 23.997">
  <defs>
    <radialGradient id="radial-gradient" cx="0.5" cy="0.5" r="0.5" gradientUnits="objectBoundingBox">
      <stop offset="0" stop-color="#1fa0b2"/>
      <stop offset="0.144" stop-color="#f82c2c"/>
      <stop offset="0.33" stop-color="#45ba1d"/>
      <stop offset="0.558" stop-color="#07d5bf"/>
      <stop offset="0.718" stop-color="#ff1360"/>
      <stop offset="1" stop-color="#1fa0b2"/>
    </radialGradient>
  </defs>
  <path id="Shape" d="M1.608,24h0a24.354,24.354,0,0,1,5.3-5.306,22.413,22.413,0,0,1,8.617-4.184l.525,3.276C12.3,18.045,7.032,20.309,1.608,24ZM0,23H0C1.187,19.71,3.394,13.6,2.955,8.469l3.271-.561c-.194,7.454-3.47,11.6-5.637,14.34C.381,22.512.185,22.76,0,23Zm21.854-4.1h0L19.8,17.421l-2.437.679.763-2.413-1.4-2.109,2.531-.02,1.572-1.983.8,2.4L24,14.86l-2.035,1.5-.107,2.526ZM8.916,15.254H8.9a.5.5,0,0,1-.5-.483c-.1-2.878.51-4.87,3.8-5.24,1.953-.219,2.029-1.116,2.135-2.357.1-1.171.235-2.775,2.738-2.959,1.23-.09,1.908-.307,2.266-.724.408-.475.528-1.357.4-2.948A.5.5,0,0,1,20.2,0h.033a.518.518,0,0,1,.5.462c.151,1.905-.034,2.971-.64,3.677-.557.648-1.412.958-2.953,1.07-1.651.122-1.713.846-1.814,2.045-.106,1.248-.252,2.957-3.02,3.267C9.977,10.788,9.3,11.772,9.4,14.737A.5.5,0,0,1,8.916,15.254ZM21,10a2,2,0,1,1,2-2A2,2,0,0,1,21,10ZM2.23,7.33v0L2.086,4.8.028,3.33l2.359-.918L3.153,0l1.6,1.959,2.531-.017L5.916,4.071l.8,2.4L4.267,5.829l-2.035,1.5ZM11,6a2,2,0,1,1,2-2A2,2,0,0,1,11,6Z" transform="translate(-0.002)" fill="url(#radial-gradient)"/>
</svg>
