<svg xmlns="http://www.w3.org/2000/svg" width="36" height="24" viewBox="0 0 36 24">
  <path id="Shape" d="M34,24c0-3.134.124-3.551-1.839-4-2.852-.657-5.543-1.278-6.527-3.456a4.141,4.141,0,0,1,.339-3.814c2.057-3.8,2.578-7.089,1.423-9.025-1.353-2.276-5.425-2.264-6.768-.033-1.152,1.91-.639,5.218,1.4,9.075a4.171,4.171,0,0,1,.31,3.815c-.99,2.167-3.708,2.795-6.585,3.457C13.881,20.45,14,20.9,14,24H12c0-3.294-.264-5.109,3.174-5.9s6.64-1.491,5.091-4.419C15.549,4.766,19.017,0,24,0c5.082,0,8.465,4.948,3.732,13.678-1.6,2.947,1.723,3.641,5.09,4.419C35.8,18.785,36,20.239,36,22.758L36,24ZM0,24l0-.927c0-1.894.149-2.984,2.383-3.5,2.578-.6,4.979-1.118,3.818-3.314C2.66,9.574,5.26,6,9,6a4.292,4.292,0,0,1,4.5,4.649c0,2.538-1.149,4.351-1.809,5.85H9.594c.34-1.5,2.932-5.122,1.53-7.473A2.684,2.684,0,0,0,6.9,9c-.76,1.262-.36,3.625,1.067,6.323a3.6,3.6,0,0,1,.243,3.3C7.6,19.956,6.253,20.6,4.732,21.04,1.717,21.922,2,21.123,2,24Z" fill="#333"/>
</svg>
