<svg xmlns="http://www.w3.org/2000/svg" width="36.018" height="28" viewBox="0 0 36.018 28">
  <g id="Group_36" data-name="Group 36" transform="translate(-4.991)">
    <g id="Oval_Copy_3" data-name="Oval Copy 3" transform="translate(12)" fill="none" stroke="#333" stroke-miterlimit="10" stroke-width="2">
      <circle cx="5.5" cy="5.5" r="5.5" stroke="none"/>
      <circle cx="5.5" cy="5.5" r="4.5" fill="none"/>
    </g>
    <g id="Oval_Copy_4" data-name="Oval Copy 4" transform="translate(24)" fill="none" stroke="#333" stroke-miterlimit="10" stroke-width="2">
      <circle cx="5.5" cy="5.5" r="5.5" stroke="none"/>
      <circle cx="5.5" cy="5.5" r="4.5" fill="none"/>
    </g>
    <g id="Rectangle_Copy_65" data-name="Rectangle Copy 65" transform="translate(0 12)" fill="none" stroke-miterlimit="10">
      <path d="M9.6,3.2A8,8,0,0,1,16,0h2a8,8,0,0,1,6.4,3.2L28,8a5,5,0,0,1-4,8H10A5,5,0,0,1,6,8Z" stroke="none"/>
      <path d="M 16 2 C 14.12150001525879 2 12.32710075378418 2.897199630737305 11.20000076293945 4.399999618530273 L 7.600000381469727 9.199999809265137 C 6.903409957885742 10.12878036499023 6.797510147094727 11.30323028564453 7.316709518432617 12.34164047241211 C 7.835920333862305 13.38004970550537 8.839019775390625 14 10 14 L 24 14 C 25.16098022460938 14 26.16407012939453 13.38004970550537 26.68328094482422 12.34164047241211 C 27.20248985290527 11.30323028564453 27.09659004211426 10.12878036499023 26.39999961853027 9.199999809265137 L 22.79999923706055 4.399999618530273 C 21.67290115356445 2.897190093994141 19.87850952148438 2 18 2 L 16 2 M 16 0 L 18 0 C 20.51805877685547 0 22.88916969299316 1.185549736022949 24.39999961853027 3.199999809265137 L 28 8 C 30.47212982177734 11.29617977142334 28.12022972106934 16 24 16 L 10 16 C 5.879770278930664 16 3.527860641479492 11.29617977142334 6 8 L 9.600000381469727 3.199999809265137 C 11.11083984375 1.185549736022949 13.4819393157959 0 16 0 Z" stroke="none" fill="#333"/>
    </g>
    <g id="Rectangle_Copy_66" data-name="Rectangle Copy 66" transform="translate(12 12)" fill="none" stroke-miterlimit="10">
      <path d="M9.6,3.2A8,8,0,0,1,16,0h2a8,8,0,0,1,6.4,3.2L28,8a5,5,0,0,1-4,8H10A5,5,0,0,1,6,8Z" stroke="none"/>
      <path d="M 16 2 C 14.12150001525879 2 12.32710075378418 2.897199630737305 11.20000076293945 4.399999618530273 L 7.600000381469727 9.199999809265137 C 6.903409957885742 10.12878036499023 6.797510147094727 11.30323028564453 7.316709518432617 12.34164047241211 C 7.835920333862305 13.38004970550537 8.839019775390625 14 10 14 L 24 14 C 25.16098022460938 14 26.16407012939453 13.38004970550537 26.68328094482422 12.34164047241211 C 27.20248985290527 11.30323028564453 27.09659004211426 10.12878036499023 26.39999961853027 9.199999809265137 L 22.79999923706055 4.399999618530273 C 21.67290115356445 2.897190093994141 19.87850952148438 2 18 2 L 16 2 M 16 0 L 18 0 C 20.51805877685547 0 22.88916969299316 1.185549736022949 24.39999961853027 3.199999809265137 L 28 8 C 30.47212982177734 11.29617977142334 28.12022972106934 16 24 16 L 10 16 C 5.879770278930664 16 3.527860641479492 11.29617977142334 6 8 L 9.600000381469727 3.199999809265137 C 11.11083984375 1.185549736022949 13.4819393157959 0 16 0 Z" stroke="none" fill="#333"/>
    </g>
  </g>
</svg>
