<svg id="icon_list_util_1scale" xmlns="http://www.w3.org/2000/svg" width="24" height="24.026" viewBox="0 0 24 24.026">
  <path id="Rectangle_6" data-name="Rectangle 6" d="M20.065,22a2.263,2.263,0,0,0,.748-.137,2.145,2.145,0,0,0,.618-.417l1.4,1.425a4.132,4.132,0,0,1-1.166.8,5.4,5.4,0,0,1-1.6.35ZM15,24.025v-2h3v2Zm-11.39,0L2.442,23.57A3.517,3.517,0,0,1,.473,21.635L0,20.479V3.565l.473-1.15A3.506,3.506,0,0,1,2.443.481L3.617.025h6.822l1.129.44A3.507,3.507,0,0,1,13.559,2.46L14,3.6V20.476l-.438,1.119a3.512,3.512,0,0,1-1.993,1.986l-1.143.444ZM2.01,3.635,2,3.658v16.6l.031.093a2.742,2.742,0,0,0,1.612,1.679H10.42a2.578,2.578,0,0,0,1.565-1.719L12,20.253V3.658a2.493,2.493,0,0,0-1.5-1.6l-.075-.028H3.643A2.993,2.993,0,0,0,2.01,3.635Zm19.911,16.8a1.954,1.954,0,0,0,.08-.4c0-.154,0-2.182,0-2.182h2V20.04a3.8,3.8,0,0,1-.181.985ZM22,16.025v-3h2v3Zm0-5v-3h2v3Zm0-5s0-2.027,0-2.181a1.939,1.939,0,0,0-.08-.4l1.9-.589A3.8,3.8,0,0,1,24,3.844V6.025ZM20.751,2.162A2.29,2.29,0,0,0,20,2.025V0a5.381,5.381,0,0,1,1.6.351,4.116,4.116,0,0,1,1.167.8l-1.4,1.425A2.141,2.141,0,0,0,20.751,2.162ZM15,2.025v-2h3v2Z" fill="#fff"/>
</svg>
