<svg xmlns="http://www.w3.org/2000/svg" width="35.999" height="35.999" viewBox="0 0 35.999 35.999">
  <path id="Oval_Copy_9" data-name="Oval Copy 9" d="M18,36A18,18,0,0,1,5.272,5.272,18,18,0,0,1,30.727,30.727,17.881,17.881,0,0,1,18,36ZM9.572,20.333l.011,3.333a6.61,6.61,0,0,0,13.221,0l-.011-3.334H20l.009,3.331a3.817,3.817,0,1,1-7.634,0l-.011-3.333Zm5.323.153v3.341a1,1,0,0,0,1,1h.483a1,1,0,0,0,1-1V20.486ZM20.7,9a3.817,3.817,0,0,1,2.7,6.513l-2.351,2.379,1.974,1.975,2.352-2.378a6.611,6.611,0,0,0-9.349-9.348l-2.351,2.379L15.649,12.5,18,10.117A3.79,3.79,0,0,1,20.7,9Zm-.125,2.631a1,1,0,0,0-.707.293L17.5,14.287l1.754,1.756,2.363-2.363a1,1,0,0,0,0-1.415l-.341-.341A1,1,0,0,0,20.574,11.632Z" fill="#333"/>
</svg>
