<svg id="icon_list_util_3cart" xmlns="http://www.w3.org/2000/svg" width="26" height="19.503" viewBox="0 0 26 19.503">
  <path id="Shape" d="M15.606,19.5a1.625,1.625,0,1,1,1.625-1.625A1.626,1.626,0,0,1,15.606,19.5Zm-7.379,0a1.625,1.625,0,1,1,1.625-1.625A1.626,1.626,0,0,1,8.227,19.5Zm8.9-4.334H6.982a5.133,5.133,0,0,1-2.706-1.764l-.032-.041L0,3.253H2.35l3.579,8.531A2.875,2.875,0,0,0,7.79,13h8.466a2.95,2.95,0,0,0,1.881-1.425l.017-.031,2.691-9.409.047-.07A5.089,5.089,0,0,1,23.7,0H26L25.2,2.17h-.59A2.739,2.739,0,0,0,22.691,3.6l-2.726,9.418-.006.009a5.21,5.21,0,0,1-2.835,2.139h0ZM10.558,9.753h0L6.5,5.891,8.011,4.336,10.53,6.7l5.593-5.615,1.54,1.526-7.1,7.141Z" fill="#fff"/>
</svg>
