<svg id="Group" xmlns="http://www.w3.org/2000/svg" width="16" height="16" viewBox="0 0 16 16">
  <g id="Oval" fill="none" stroke="#fc2020" stroke-miterlimit="10" stroke-width="1">
    <circle cx="8" cy="8" r="8" stroke="none"/>
    <circle cx="8" cy="8" r="7.5" fill="none"/>
  </g>
  <path id="Rectangle_5" data-name="Rectangle 5" d="M2.075,11.042v-2h2v2ZM3.922,8.308H2.065l0-.255A4.593,4.593,0,0,1,2.282,6.6a3.754,3.754,0,0,1,.8-1.21l.951-.98a1.962,1.962,0,0,0,.553-1.328,1.475,1.475,0,0,0-.337-1.035,1.269,1.269,0,0,0-.988-.355,1.507,1.507,0,0,0-1.037.334,1.092,1.092,0,0,0-.368.874v.249H0l0-.253A2.717,2.717,0,0,1,.934.791,3.418,3.418,0,0,1,3.263,0a3.233,3.233,0,0,1,2.33.814,2.95,2.95,0,0,1,.85,2.219,3.951,3.951,0,0,1-1.261,2.7l-.788.781a2.241,2.241,0,0,0-.471,1.539v.249h0Z" transform="translate(4.961 2.581)" fill="#fc2020"/>
</svg>
