<svg xmlns="http://www.w3.org/2000/svg" width="24" height="22" viewBox="0 0 24 22">
  <path id="Shape" d="M0,6.192A6.044,6.044,0,0,1,6.281,0,6.526,6.526,0,0,1,12,3.248,6.533,6.533,0,0,1,17.726.01,6.03,6.03,0,0,1,24,6.192a6.742,6.742,0,0,1-.438,2.314c-2.189.051-2.2.063-2.2.063A5.563,5.563,0,0,0,22,6.192,4.057,4.057,0,0,0,17.726,2.01C14.469,2.01,12.75,5.485,12,7.031,11.253,5.491,9.516,2,6.28,2A4.048,4.048,0,0,0,2,6.192c0,3.442,4.742,7.85,10,13L14.239,17H16.99c-1.162,1.141-3.726,3.745-4.99,5C5.57,15.619,0,10.853,0,6.192ZM14.5,15.5v-2h4.98v2Zm0-3.5V10h8.346v2Z" fill="#FC2020"/>
</svg>
