<svg xmlns="http://www.w3.org/2000/svg" width="48" height="44" viewBox="0 0 48 44">
  <path id="Shape" d="M0,12.384C0,4.374,6.2,0,12.562,0A13.053,13.053,0,0,1,24,6.5,13.066,13.066,0,0,1,35.452.02C41.806.02,48,4.362,48,12.384a13.484,13.484,0,0,1-.876,4.629c-4.378.1-4.4.125-4.4.125A11.127,11.127,0,0,0,44,12.384c0-5.746-4.432-8.364-8.548-8.364C28.938,4.02,25.5,10.97,24,14.062,22.506,10.982,19.032,4,12.56,4,7.93,4,4,7.032,4,12.384c0,6.884,9.484,15.7,20,26L28.478,34h5.5c-2.324,2.282-7.451,7.49-9.979,10C11.14,31.238,0,21.706,0,12.384ZM29,31V27h9.959v4Zm0-7V20H45.692v4Z" fill="#323232"/>
</svg>
