<svg xmlns="http://www.w3.org/2000/svg" width="22" height="20" viewBox="0 0 22 20">
  <g id="Oval" transform="translate(3 1)" fill="none" stroke="#fff" stroke-miterlimit="10" stroke-width="1">
    <circle cx="9" cy="9" r="9" stroke="none"/>
    <circle cx="9" cy="9" r="9.5" fill="none"/>
  </g>
  <g id="Oval-2" data-name="Oval" transform="translate(1 1)" fill="none" stroke="#fff" stroke-miterlimit="10" stroke-width="1">
    <circle cx="9" cy="9" r="9" stroke="none"/>
    <circle cx="9" cy="9" r="9.5" fill="none"/>
  </g>
  <path id="Path_2" data-name="Path 2" d="M1.123,10H0V0H2.944A7.335,7.335,0,0,1,4.735.21a4.236,4.236,0,0,1,1.454.66,3.159,3.159,0,0,1,.982,1.177,3.955,3.955,0,0,1,.36,1.761,3.962,3.962,0,0,1-.36,1.762,3.157,3.157,0,0,1-.982,1.176,4.229,4.229,0,0,1-1.454.66,7.293,7.293,0,0,1-1.791.21V10H1.785V6.561H2.912a5.037,5.037,0,0,0,1.323-.167,3.068,3.068,0,0,0,1.053-.5,2.246,2.246,0,0,0,.689-.855A2.893,2.893,0,0,0,6.223,3.8a2.891,2.891,0,0,0-.246-1.235,2.253,2.253,0,0,0-.689-.856,3.1,3.1,0,0,0-1.053-.5,5.038,5.038,0,0,0-1.323-.166H1.123V10ZM3.012,5.915H1.78V1.667H3.012a4.3,4.3,0,0,1,.969.106,2.408,2.408,0,0,1,.815.347,1.746,1.746,0,0,1,.566.652,2.206,2.206,0,0,1,.212,1.02,2.206,2.206,0,0,1-.212,1.02,1.735,1.735,0,0,1-.566.651,2.392,2.392,0,0,1-.815.347A4.3,4.3,0,0,1,3.012,5.915ZM2.944,2.7V4.918h.135a1.207,1.207,0,0,0,.906-.293,1.142,1.142,0,0,0,.278-.817,1.144,1.144,0,0,0-.278-.817A1.211,1.211,0,0,0,3.079,2.7Z" transform="translate(7 5)" fill="#fff"/>
</svg>
