<?xml version="1.0" encoding="UTF-8"?>
<svg width="42px" height="42px" viewBox="0 0 42 42" version="1.1" xmlns="http://www.w3.org/2000/svg" xmlns:xlink="http://www.w3.org/1999/xlink">
    <title>Oval 4</title>
    <g id="회원-아버지-링크" stroke="none" stroke-width="1" fill="none" fill-rule="evenodd">
        <g id="link-2" transform="translate(-939.000000, -25.000000)" fill="#333333">
            <g id="Group-25" transform="translate(624.000000, -35.000000)">
                <g id="Group-35" transform="translate(315.000000, 60.000000)">
                    <path d="M21,0 C32.5979797,0 42,9.40202025 42,21 C42,32.5979797 32.5979797,42 21,42 C9.40202025,42 0,32.5979797 0,21 C0,9.40202025 9.40202025,0 21,0 Z M26.3842823,28.5625345 L24.8212306,28.7852069 L25.2969892,32.1339828 L26.8622134,31.9123966 L26.3842823,28.5625345 Z M15.1358858,15.9393437 L12.3957479,18.6972414 C9.38586855,21.7082069 9.38478235,26.5917931 12.3957479,29.6038448 C15.4077996,32.6148103 20.292472,32.6148103 23.3023513,29.6038448 L26.0435754,26.8459471 L23.7386444,24.5421023 L20.9985065,27.2978276 C19.2627479,29.0357586 16.4375237,29.0357586 14.6995927,27.2978276 C12.9638341,25.5631552 12.9638341,22.7368448 14.6995927,21.0010862 L17.4397306,18.2431885 L15.1358858,15.9393437 Z M28.0461789,26.916931 L26.9306444,28.0346379 L29.3235582,30.4286379 L30.4412651,29.310931 L28.0461789,26.916931 Z M28.786972,24.8205517 L28.5621272,26.3857759 L31.9119892,26.8626207 L32.1368341,25.2973966 L28.786972,24.8205517 Z M29.6045237,12.3961552 C26.5913858,9.38518966 21.7077996,9.38518966 18.6968341,12.3961552 L15.9545237,15.1716691 L18.2583686,17.4755139 L21.0017651,14.7 C22.7375237,12.9642414 25.5627479,12.9642414 27.2963341,14.7010862 C29.0364375,16.4368448 29.0364375,19.262069 27.3006789,20.9978276 L24.5583686,23.7733415 L26.8622134,26.0771863 L29.6045237,23.3027586 C32.614403,20.2907069 32.614403,15.4071207 29.6045237,12.3961552 Z M24.7784926,16.7388831 C24.3879683,16.3483588 23.7548033,16.3483588 23.364279,16.7388831 L16.5858071,23.517355 C16.1952828,23.9078793 16.1952828,24.5410443 16.5858071,24.9315686 L17.2197649,25.5655264 C17.6102892,25.9560507 18.2434542,25.9560507 18.6339785,25.5655264 L25.4124504,18.7870545 C25.8029747,18.3965302 25.8029747,17.7633652 25.4124504,17.3728409 Z M10.0861099,15.1341207 L9.86235131,16.6993448 L13.2122134,17.1761897 L13.435972,15.6120517 L10.0861099,15.1341207 Z M12.674541,11.5691897 L11.5568341,12.6868966 L13.9519203,15.0798103 L15.068541,13.9610172 L12.674541,11.5691897 Z M16.7000237,9.86275862 L15.1358858,10.0843448 L15.6138168,13.4342069 L17.1757823,13.2115345 L16.7000237,9.86275862 Z" id="Oval-4"></path>
                </g>
            </g>
        </g>
    </g>
</svg>