<svg xmlns="http://www.w3.org/2000/svg" width="32" height="8.585" viewBox="0 0 32 8.585">
  <g id="Group_9_Copy" data-name="Group 9 Copy" transform="translate(1 1)">
    <g id="Rectangle_3" data-name="Rectangle 3" transform="translate(2.195)" fill="#333" stroke-miterlimit="10">
      <path d="M 24.51219940185547 7.085362911224365 L 3.292679071426392 7.085362911224365 C 1.201389074325562 7.085362911224365 -0.5000008940696716 5.383973121643066 -0.5000008940696716 3.292682886123657 C -0.5000008940696716 1.201392889022827 1.201389074325562 -0.4999971091747284 3.292679071426392 -0.4999971091747284 L 24.51219940185547 -0.4999971091747284 C 26.60348892211914 -0.4999971091747284 28.30487823486328 1.201392889022827 28.30487823486328 3.292682886123657 C 28.30487823486328 5.383973121643066 26.60348892211914 7.085362911224365 24.51219940185547 7.085362911224365 Z" stroke="none"/>
      <path d="M 3.292678833007812 2.86102294921875e-06 C 1.474178314208984 2.86102294921875e-06 0 1.474183082580566 0 3.292682886123657 C 0 5.111183166503906 1.474178314208984 6.585362911224365 3.292678833007812 6.585362911224365 L 24.51219940185547 6.585362911224365 C 26.3306884765625 6.585362911224365 27.80487823486328 5.111183166503906 27.80487823486328 3.292682886123657 C 27.80487823486328 1.474183082580566 26.3306884765625 2.86102294921875e-06 24.51219940185547 2.86102294921875e-06 L 3.292678833007812 2.86102294921875e-06 M 3.292678833007812 -0.9999971389770508 L 24.51219940185547 -0.9999971389770508 C 26.87918853759766 -0.9999971389770508 28.80487823486328 0.9256930351257324 28.80487823486328 3.292682886123657 C 28.80487823486328 5.659672737121582 26.87918853759766 7.585362911224365 24.51219940185547 7.585362911224365 L 3.292678833007812 7.585362911224365 C 0.925689697265625 7.585362911224365 -1 5.659672737121582 -1 3.292682886123657 C -1 0.9256930351257324 0.925689697265625 -0.9999971389770508 3.292678833007812 -0.9999971389770508 Z" stroke="none" fill="#000"/>
    </g>
    <g id="Rectangle_3-2" data-name="Rectangle 3" fill="#fffefe" stroke-miterlimit="10">
      <path d="M 24.51219940185547 7.085362911224365 L 3.292679071426392 7.085362911224365 C 1.201389074325562 7.085362911224365 -0.5000008940696716 5.383973121643066 -0.5000008940696716 3.292682886123657 C -0.5000008940696716 1.201392889022827 1.201389074325562 -0.4999971091747284 3.292679071426392 -0.4999971091747284 L 24.51219940185547 -0.4999971091747284 C 26.60348892211914 -0.4999971091747284 28.30487823486328 1.201392889022827 28.30487823486328 3.292682886123657 C 28.30487823486328 5.383973121643066 26.60348892211914 7.085362911224365 24.51219940185547 7.085362911224365 Z" stroke="none"/>
      <path d="M 3.292678833007812 2.86102294921875e-06 C 1.474178314208984 2.86102294921875e-06 0 1.474183082580566 0 3.292682886123657 C 0 5.111183166503906 1.474178314208984 6.585362911224365 3.292678833007812 6.585362911224365 L 24.51219940185547 6.585362911224365 C 26.3306884765625 6.585362911224365 27.80487823486328 5.111183166503906 27.80487823486328 3.292682886123657 C 27.80487823486328 1.474183082580566 26.3306884765625 2.86102294921875e-06 24.51219940185547 2.86102294921875e-06 L 3.292678833007812 2.86102294921875e-06 M 3.292678833007812 -0.9999971389770508 L 24.51219940185547 -0.9999971389770508 C 26.87918853759766 -0.9999971389770508 28.80487823486328 0.9256930351257324 28.80487823486328 3.292682886123657 C 28.80487823486328 5.659672737121582 26.87918853759766 7.585362911224365 24.51219940185547 7.585362911224365 L 3.292678833007812 7.585362911224365 C 0.925689697265625 7.585362911224365 -1 5.659672737121582 -1 3.292682886123657 C -1 0.9256930351257324 0.925689697265625 -0.9999971389770508 3.292678833007812 -0.9999971389770508 Z" stroke="none" fill="#000"/>
    </g>
  </g>
</svg>
