<svg id="Group_37_Copy" data-name="Group 37 Copy" xmlns="http://www.w3.org/2000/svg" width="24" height="29" viewBox="0 0 24 29">
  <rect id="Rectangle" width="9" height="2" rx="1" transform="translate(4 8)" fill="#333"/>
  <rect id="Rectangle_Copy_48" data-name="Rectangle Copy 48" width="13" height="2" rx="1" transform="translate(4 13)" fill="#333"/>
  <g id="Rectangle-2" data-name="Rectangle" fill="none" stroke-miterlimit="10">
    <path d="M0,3A3,3,0,0,1,3,0H15.657a5,5,0,0,1,3.562,1.491l3.343,3.393A5,5,0,0,1,24,8.393V26a3,3,0,0,1-3,3H3a3,3,0,0,1-3-3Z" stroke="none"/>
    <path d="M 3 2 C 2.448600769042969 2 2 2.448600769042969 2 3 L 2 26 C 2 26.55139923095703 2.448600769042969 27 3 27 L 21 27 C 21.55139923095703 27 22 26.55139923095703 22 26 L 22 8.393049240112305 C 22 7.600139617919922 21.69353103637695 6.852409362792969 21.13705062866211 6.287580490112305 L 17.79414939880371 2.894529342651367 C 17.23406028747559 2.326040267944336 16.45512962341309 2 15.65709018707275 2 L 3 2 M 3 0 L 15.65709018707275 0 C 16.99608039855957 0 18.27911949157715 0.5370597839355469 19.21884918212891 1.490879058837891 L 22.5617504119873 4.883930206298828 C 23.48337936401367 5.819379806518555 24 7.079860687255859 24 8.393049240112305 L 24 26 C 24 27.65685081481934 22.65685081481934 29 21 29 L 3 29 C 1.3431396484375 29 0 27.65685081481934 0 26 L 0 3 C 0 1.3431396484375 1.3431396484375 0 3 0 Z" stroke="none" fill="#333"/>
  </g>
  <path id="Rectangle-3" data-name="Rectangle" d="M0,0H2.75L7.579,6.208A2,2,0,0,1,8,7.436V9H2A2,2,0,0,1,0,7Z" transform="translate(15 1)" fill="#333"/>
</svg>
