<svg xmlns="http://www.w3.org/2000/svg" width="20" height="16" viewBox="0 0 20 16">
  <path id="Shape" d="M19,16H1a1,1,0,0,1-1-1V1A1,1,0,0,1,1,0H19a1,1,0,0,1,1,1V15A1,1,0,0,1,19,16ZM8.328,5.873a.742.742,0,0,0-.574.254l-5.112,6.1a.75.75,0,0,0,.093,1.057.749.749,0,0,0,1.056-.094l4.525-5.4,2.592,3.236a.75.75,0,0,0,1.171-.938L11.8,9.746l1.085-.815,3.307,4.207a.75.75,0,1,0,1.179-.928L13.612,7.426a.749.749,0,0,0-1.04-.135l-1.7,1.283L8.914,6.14A.741.741,0,0,0,8.328,5.873Zm-4.151-2.3a1.9,1.9,0,1,0,1.9,1.9A1.906,1.906,0,0,0,4.177,3.575Zm0,2.509a.6.6,0,1,1,.6-.6A.605.605,0,0,1,4.177,6.084Z" fill="#333"/>
</svg>
