<svg xmlns="http://www.w3.org/2000/svg" width="47.355" height="36.45" viewBox="0 0 47.355 36.45">
  <path id="Shape" d="M23.374,25H2.777A2.781,2.781,0,0,1,0,22.222V2.777A2.78,2.78,0,0,1,2.777,0H33.333a2.78,2.78,0,0,1,2.777,2.777v9.7l-.037,0A12,12,0,1,1,23.374,25Zm2.987-.552a9,9,0,1,0,9-9A9.008,9.008,0,0,0,26.361,24.448Zm-3,.07c0-.023,0-.046,0-.07Q23.361,24.483,23.362,24.518Zm0-.07c0-.024,0-.049,0-.073Q23.361,24.412,23.361,24.448Zm0-.108c0-.012,0-.025,0-.037C23.362,24.315,23.362,24.328,23.362,24.34Zm0-.085v0Zm0-.082v0Zm.166-1.742v0Zm.01-.058.005-.031Zm.011-.06.01-.055ZM2.777,21.528a.7.7,0,0,0,.695.694h20.1l-.005.028a12.03,12.03,0,0,1,9.77-9.63v-2.2H2.777ZM36.04,12.469l-.051,0Zm-.085,0-.047,0Zm-.093,0-.037,0Zm-.122,0h0Zm-.088,0h0Zm-.557,0h0Zm.467,0h0Zm-.41,0h0Zm.065,0h0Zm.254,0h0Zm-.184,0h0ZM2.777,3.472V6.25H33.333V3.472a.7.7,0,0,0-.695-.695H3.472A.7.7,0,0,0,2.777,3.472ZM35.552,26.055l-2.829,2.829L31.309,27.47l2.829-2.829-2.829-2.829L32.723,20.4l2.829,2.829L38.381,20.4l1.414,1.414-2.829,2.829,2.829,2.829-1.414,1.414Zm-22.094-6.3v-.891l.179,0a.958.958,0,0,0,.5-.1.668.668,0,0,0,.258-.337l.139-.362L12.99,13.652h1.265l.817,2.739.815-2.739h1.261l-1.769,5.087-.1.232a1.345,1.345,0,0,1-1.3.862A1.869,1.869,0,0,1,13.458,19.756Zm-7.664-.008H4.618v-6.1H5.709l.041.432a1.39,1.39,0,0,1,1.115-.513,1.5,1.5,0,0,1,1.265.6,2.729,2.729,0,0,1,.452,1.66v.061a2.643,2.643,0,0,1-.463,1.629,1.484,1.484,0,0,1-1.247.613,1.378,1.378,0,0,1-1.078-.464v2.075h0Zm0-4.8v1.8a.786.786,0,0,0,.769.435c.559,0,.842-.463.842-1.379a1.734,1.734,0,0,0-.218-.949.712.712,0,0,0-.633-.334A.77.77,0,0,0,5.794,14.951Zm3.622,2.812a1.21,1.21,0,0,1-.425-.944,1.253,1.253,0,0,1,.518-1.075,2.573,2.573,0,0,1,1.5-.378h.542v-.252a.734.734,0,0,0-.157-.489.618.618,0,0,0-.495-.183.7.7,0,0,0-.465.142.485.485,0,0,0-.169.391H9.089a1.185,1.185,0,0,1,.236-.708,1.56,1.56,0,0,1,.667-.51,2.435,2.435,0,0,1,.968-.185,1.931,1.931,0,0,1,1.292.409,1.44,1.44,0,0,1,.478,1.15v1.908a2.116,2.116,0,0,0,.175.948v.069H11.717a1.29,1.29,0,0,1-.118-.394,1.43,1.43,0,0,1-1.111.476A1.572,1.572,0,0,1,9.416,17.762Zm.755-1.1,0,.069a.475.475,0,0,0,.154.362.6.6,0,0,0,.424.143,1.008,1.008,0,0,0,.48-.116.779.779,0,0,0,.326-.311v-.757h-.439C10.526,16.053,10.209,16.259,10.171,16.663Z" fill="#333"/>
</svg>
