<svg xmlns="http://www.w3.org/2000/svg" width="76" height="42" viewBox="0 0 76 42">
  <path id="Shape" d="M-40.25,32.9V13.665l-17.062,8.883V42Zm23.639,5.27H-11.5A3.838,3.838,0,0,0-7.666,42a3.839,3.839,0,0,0,3.833-3.834h1.278A2.444,2.444,0,0,0,0,35.611V29.886a2.558,2.558,0,0,0-.368-1.322c-.754-1.246-2.016-3.244-2.695-4.316a2.65,2.65,0,0,0-2.474-1.415H-11.5V20.278A1.279,1.279,0,0,0-12.777,19H-25.556a1.279,1.279,0,0,0-1.278,1.278v1.278h12.778V30.5H-24.278V29.222h3.833V26.667h-8.944v2.555h2.555v7.667a1.279,1.279,0,0,0,1.278,1.277h1.278A3.838,3.838,0,0,0-20.444,42,3.839,3.839,0,0,0-16.611,38.166Zm-2.3,0A1.535,1.535,0,0,1-20.444,39.7a1.535,1.535,0,0,1-1.534-1.534,1.535,1.535,0,0,1,1.534-1.533A1.535,1.535,0,0,1-18.911,38.166Zm12.777,0A1.535,1.535,0,0,1-7.666,39.7,1.535,1.535,0,0,1-9.2,38.166a1.535,1.535,0,0,1,1.534-1.533A1.534,1.534,0,0,1-6.134,38.166ZM-23.3,35.611h-.977V33.055H-11.5V25.389h5.656a1.28,1.28,0,0,1,1.1.634l2.187,3.742v5.846H-4.811a3.838,3.838,0,0,0-2.856-1.278,3.838,3.838,0,0,0-2.857,1.278h-7.066a3.835,3.835,0,0,0-2.856-1.278A3.835,3.835,0,0,0-23.3,35.611Zm-35.636-13.06L-76,13.77V32.9L-58.937,42Zm55.1,7.949-1.823-3.19a1.276,1.276,0,0,0-1.11-.644h-3.456V30.5Zm-16.611-5.111V22.833H-30.667v2.556ZM-41.109,12.28l-7.447-4.06L-65.8,17.2l7.668,3.946Zm12.408,4.6-6.425-2.338-.85,2.336,6.426,2.339Zm-21.573-9.6L-58.124,3l-17.02,9.384,7.579,3.9Zm22.108,2.764-.755-2.337-6.422,2.337.755,2.337Zm-4.382-7.709L-34.72.915l-3.417,5.918,2.172,1.422Zm-7.722,4.5V0h-2.665V6.834Z" transform="translate(76)" fill="#fff"/>
</svg>
