<svg xmlns="http://www.w3.org/2000/svg" width="36" height="36.001" viewBox="0 0 36 36.001">
  <path id="Rectangle_6" data-name="Rectangle 6" d="M30,36h0V30h6v3a4.561,4.561,0,0,1-.931,2.256A3.268,3.268,0,0,1,33,36H30ZM15.242,36A3.671,3.671,0,0,1,13,35.125,3.406,3.406,0,0,1,12,33V30h2v2h1V30h2v2h1V30h2v2h1V30h2v2h1V30h2v2h1V30h2v6ZM30,29h0V27h2V26H30V24h2V23H30V21h2V20H30V18h2V17H30V15h2V14H30V12h3a4.013,4.013,0,0,1,2.271.778A3.7,3.7,0,0,1,36,15V29Zm-9.936-7a2.263,2.263,0,0,0,.748-.137,2.145,2.145,0,0,0,.618-.417l1.4,1.425a4.132,4.132,0,0,1-1.166.8,5.4,5.4,0,0,1-1.6.35ZM15,24.025v-2h3v2Zm-11.39,0L2.442,23.57A3.5,3.5,0,0,1,.473,21.635L0,20.479V3.565l.473-1.15A3.5,3.5,0,0,1,2.443.481L3.617.025h6.822l1.129.44A3.5,3.5,0,0,1,13.559,2.46L14,3.6V20.476l-.438,1.119a3.5,3.5,0,0,1-1.993,1.986l-1.143.444Zm18.31-3.587a1.954,1.954,0,0,0,.08-.4c0-.154,0-2.182,0-2.182h2V20.04a3.8,3.8,0,0,1-.181.985ZM22,16.025v-3h2v3Zm0-5v-3h2v3Zm0-5s0-2.027,0-2.181a1.939,1.939,0,0,0-.08-.4l1.9-.589A3.8,3.8,0,0,1,24,3.844V6.025ZM20.751,2.162A2.29,2.29,0,0,0,20,2.025V0a5.381,5.381,0,0,1,1.6.351,4.116,4.116,0,0,1,1.167.8l-1.4,1.425A2.141,2.141,0,0,0,20.751,2.162ZM15,2.025v-2h3v2Z" fill="#333"/>
</svg>
