<svg xmlns="http://www.w3.org/2000/svg" width="40" height="48" viewBox="0 0 40 48">
  <path id="Shape_Copy_2" data-name="Shape Copy 2" d="M14,42H26a6.132,6.132,0,0,1-5.942,6A6.235,6.235,0,0,1,14,42ZM0,38V34.5c4.994-1.629,6.014-7.088,7.094-12.868,1.02-5.458,2.075-11.1,6.63-13.744a4.213,4.213,0,0,0,2.082-3.646A4.224,4.224,0,0,1,20,0a4.14,4.14,0,0,1,2.966,1.244A4.246,4.246,0,0,1,24.192,4.25,4.211,4.211,0,0,0,26.274,7.89c4.559,2.643,5.613,8.287,6.634,13.746,1.08,5.779,2.1,11.237,7.092,12.866V38H0ZM15.734,11.352c-2.97,1.723-3.814,6.238-4.708,11.019C10.3,26.257,9.478,30.663,7.1,34H32.9c-2.382-3.341-3.2-7.745-3.928-11.63-.895-4.781-1.74-9.3-4.709-11.019A8.544,8.544,0,0,0,20,10.181,8.4,8.4,0,0,0,15.734,11.352ZM18,4a2,2,0,1,0,2-2A2,2,0,0,0,18,4Z" stoke="#fff" fill="#fff"/>
</svg>
