<svg id="Oval_2" data-name="Oval 2" xmlns="http://www.w3.org/2000/svg" xmlns:xlink="http://www.w3.org/1999/xlink" width="28" height="25" viewBox="0 0 28 25">
  <defs>
    <clipPath id="clip-path">
      <rect id="Mask" width="28" height="25" fill="#fff"/>
    </clipPath>
  </defs>
  <rect id="Mask-2" data-name="Mask" width="28" height="25" fill="#fff"/>
  <g id="Oval_2-2" data-name="Oval 2" clip-path="url(#clip-path)">
    <g id="Oval_2-3" data-name="Oval 2" transform="translate(2 2)" fill="#fff" stroke-miterlimit="10">
      <path d="M 11.50020027160645 33.82009887695312 C 5.809620380401611 33.82009887695312 1.180000305175781 29.19047927856445 1.180000305175781 23.49989891052246 C 1.180000305175781 20.08868980407715 2.863850355148315 16.90116882324219 5.684290409088135 14.97325992584229 L 6.765920162200928 14.23391914367676 L 5.917820453643799 13.23526954650879 C 4.796980381011963 11.91545963287354 4.179700374603271 10.23362922668457 4.179700374603271 8.499599456787109 C 4.179700374603271 4.463559627532959 7.46366024017334 1.179999589920044 11.50020027160645 1.179999589920044 C 15.53624057769775 1.179999589920044 18.81979942321777 4.463559627532959 18.81979942321777 8.499599456787109 C 18.81979942321777 10.23370933532715 18.20269966125488 11.91547966003418 17.08218002319336 13.23511981964111 L 16.23422050476074 14.23374938964844 L 17.31577110290527 14.9730396270752 C 20.13643074035645 16.90108871459961 21.82040023803711 20.08869934082031 21.82040023803711 23.49989891052246 C 21.82040023803711 29.19047927856445 17.19078063964844 33.82009887695312 11.50020027160645 33.82009887695312 Z" stroke="none"/>
      <path d="M 11.50020027160645 32.64009857177734 C 16.54012107849121 32.64009857177734 20.64039993286133 28.53981971740723 20.64039993286133 23.49989891052246 C 20.64039993286133 20.47863960266113 19.14862060546875 17.65521049499512 16.6498908996582 15.94720935821533 L 14.48679065704346 14.46862983703613 L 16.18270111083984 12.47135925292969 C 17.1223201751709 11.36475944519043 17.63980102539062 9.954229354858398 17.63980102539062 8.499599456787109 C 17.63980102539062 5.114209651947021 14.88559055328369 2.359999656677246 11.50020027160645 2.359999656677246 C 8.114319801330566 2.359999656677246 5.359700202941895 5.114209651947021 5.359700202941895 8.499599456787109 C 5.359700202941895 9.954119682312012 5.877330303192139 11.36467933654785 6.817240238189697 12.47143936157227 L 8.513440132141113 14.46872997283936 L 6.350170135498047 15.94742965698242 C 3.851650238037109 17.6552791595459 2.360000371932983 20.47863960266113 2.360000371932983 23.49989891052246 C 2.360000371932983 28.53981971740723 6.460280418395996 32.64009857177734 11.50020027160645 32.64009857177734 M 11.50020027160645 35.00009918212891 C 5.148900508880615 35.00009918212891 2.716064386731887e-07 29.85120010375977 2.716064386731887e-07 23.49989891052246 C 2.716064386731887e-07 19.55282020568848 1.98848032951355 16.0701904296875 5.018400192260742 13.99909973144531 C 3.759450197219849 12.51666927337646 2.999700307846069 10.59666919708252 2.999700307846069 8.499599456787109 C 2.999700307846069 3.80519962310791 6.805800437927246 -4.089355343239731e-07 11.50020027160645 -4.089355343239731e-07 C 16.19460105895996 -4.089355343239731e-07 19.99979972839355 3.80519962310791 19.99979972839355 8.499599456787109 C 19.99979972839355 10.59666919708252 19.24040985107422 12.51644992828369 17.98166084289551 13.99887943267822 C 21.0115795135498 16.06996917724609 23.00040054321289 19.55282020568848 23.00040054321289 23.49989891052246 C 23.00040054321289 29.85120010375977 17.85149955749512 35.00009918212891 11.50020027160645 35.00009918212891 Z" stroke="none" fill="#333"/>
    </g>
  </g>
</svg>