<svg xmlns="http://www.w3.org/2000/svg" width="43.702" height="43.702" viewBox="0 0 43.702 43.702">
  <g id="Group_9_Copy_12" data-name="Group 9 Copy 12" transform="translate(21.075 1.414) rotate(45)">
    <g id="Rectangle_3" data-name="Rectangle 3" transform="translate(2.195)" fill="#333" stroke-miterlimit="10">
      <path d="M 13.90229988098145 28.30459976196289 C 11.81126976013184 28.30459976196289 10.11009979248047 26.60342979431152 10.11009979248047 24.51239967346191 L 10.11009979248047 17.69540023803711 L 3.293099880218506 17.69540023803711 C 1.201579928398132 17.69540023803711 -0.5000001192092896 15.99382019042969 -0.5000001192092896 13.90229988098145 C -0.5000001192092896 11.81126976013184 1.201579928398132 10.11009979248047 3.293099880218506 10.11009979248047 L 10.11009979248047 10.11009979248047 L 10.11009979248047 3.293099880218506 C 10.11009979248047 1.201579928398132 11.81126976013184 -0.5000001192092896 13.90229988098145 -0.5000001192092896 C 15.99382019042969 -0.5000001192092896 17.69540023803711 1.201579928398132 17.69540023803711 3.293099880218506 L 17.69540023803711 10.11009979248047 L 24.51239967346191 10.11009979248047 C 26.60342979431152 10.11009979248047 28.30459976196289 11.81126976013184 28.30459976196289 13.90229988098145 C 28.30459976196289 15.99382019042969 26.60342979431152 17.69540023803711 24.51239967346191 17.69540023803711 L 17.69540023803711 17.69540023803711 L 17.69540023803711 24.51239967346191 C 17.69540023803711 26.60342979431152 15.99382019042969 28.30459976196289 13.90229988098145 28.30459976196289 Z" stroke="none"/>
      <path d="M 13.90229988098145 27.80459976196289 C 15.72119998931885 27.80459976196289 17.19540023803711 26.33040046691895 17.19540023803711 24.51239967346191 L 17.19540023803711 17.19540023803711 L 24.51239967346191 17.19540023803711 C 26.33040046691895 17.19540023803711 27.80459976196289 15.72119998931885 27.80459976196289 13.90229988098145 C 27.80459976196289 12.08430004119873 26.33040046691895 10.61009979248047 24.51239967346191 10.61009979248047 L 17.19540023803711 10.61009979248047 L 17.19540023803711 3.293099880218506 C 17.19540023803711 1.474199891090393 15.72119998931885 -1.190185514587938e-07 13.90229988098145 -1.190185514587938e-07 C 12.08430004119873 -1.190185514587938e-07 10.61009979248047 1.474199891090393 10.61009979248047 3.293099880218506 L 10.61009979248047 10.61009979248047 L 3.293099880218506 10.61009979248047 C 1.474199891090393 10.61009979248047 -1.190185514587938e-07 12.08430004119873 -1.190185514587938e-07 13.90229988098145 C -1.190185514587938e-07 15.72119998931885 1.474199891090393 17.19540023803711 3.293099880218506 17.19540023803711 L 10.61009979248047 17.19540023803711 L 10.61009979248047 24.51239967346191 C 10.61009979248047 26.33040046691895 12.08430004119873 27.80459976196289 13.90229988098145 27.80459976196289 M 13.90229988098145 28.80459976196289 C 11.53557014465332 28.80459976196289 9.610099792480469 26.87912940979004 9.610099792480469 24.51239967346191 L 9.610099792480469 18.19540023803711 L 3.293099880218506 18.19540023803711 C 0.9258798956871033 18.19540023803711 -1.00000011920929 16.2695198059082 -1.00000011920929 13.90229988098145 C -1.00000011920929 11.53557014465332 0.9258798956871033 9.610099792480469 3.293099880218506 9.610099792480469 L 9.610099792480469 9.610099792480469 L 9.610099792480469 3.293099880218506 C 9.610099792480469 0.9258798956871033 11.53557014465332 -1.00000011920929 13.90229988098145 -1.00000011920929 C 16.2695198059082 -1.00000011920929 18.19540023803711 0.9258798956871033 18.19540023803711 3.293099880218506 L 18.19540023803711 9.610099792480469 L 24.51239967346191 9.610099792480469 C 26.87912940979004 9.610099792480469 28.80459976196289 11.53557014465332 28.80459976196289 13.90229988098145 C 28.80459976196289 16.2695198059082 26.87912940979004 18.19540023803711 24.51239967346191 18.19540023803711 L 18.19540023803711 18.19540023803711 L 18.19540023803711 24.51239967346191 C 18.19540023803711 26.87912940979004 16.2695198059082 28.80459976196289 13.90229988098145 28.80459976196289 Z" stroke="none" fill="#000"/>
    </g>
    <g id="Rectangle_3-2" data-name="Rectangle 3" fill="#fffefe" stroke-miterlimit="10">
      <path d="M 13.90229988098145 28.30459976196289 C 11.81126976013184 28.30459976196289 10.11009979248047 26.60342979431152 10.11009979248047 24.51239967346191 L 10.11009979248047 17.69540023803711 L 3.293099880218506 17.69540023803711 C 1.201579928398132 17.69540023803711 -0.5000001192092896 15.99382019042969 -0.5000001192092896 13.90229988098145 C -0.5000001192092896 11.81126976013184 1.201579928398132 10.11009979248047 3.293099880218506 10.11009979248047 L 10.11009979248047 10.11009979248047 L 10.11009979248047 3.293099880218506 C 10.11009979248047 1.201579928398132 11.81126976013184 -0.5000001192092896 13.90229988098145 -0.5000001192092896 C 15.99382019042969 -0.5000001192092896 17.69540023803711 1.201579928398132 17.69540023803711 3.293099880218506 L 17.69540023803711 10.11009979248047 L 24.51239967346191 10.11009979248047 C 26.60342979431152 10.11009979248047 28.30459976196289 11.81126976013184 28.30459976196289 13.90229988098145 C 28.30459976196289 15.99382019042969 26.60342979431152 17.69540023803711 24.51239967346191 17.69540023803711 L 17.69540023803711 17.69540023803711 L 17.69540023803711 24.51239967346191 C 17.69540023803711 26.60342979431152 15.99382019042969 28.30459976196289 13.90229988098145 28.30459976196289 Z" stroke="none"/>
      <path d="M 13.90229988098145 27.80459976196289 C 15.72119998931885 27.80459976196289 17.19540023803711 26.33040046691895 17.19540023803711 24.51239967346191 L 17.19540023803711 17.19540023803711 L 24.51239967346191 17.19540023803711 C 26.33040046691895 17.19540023803711 27.80459976196289 15.72119998931885 27.80459976196289 13.90229988098145 C 27.80459976196289 12.08430004119873 26.33040046691895 10.61009979248047 24.51239967346191 10.61009979248047 L 17.19540023803711 10.61009979248047 L 17.19540023803711 3.293099880218506 C 17.19540023803711 1.474199891090393 15.72119998931885 -1.190185514587938e-07 13.90229988098145 -1.190185514587938e-07 C 12.08430004119873 -1.190185514587938e-07 10.61009979248047 1.474199891090393 10.61009979248047 3.293099880218506 L 10.61009979248047 10.61009979248047 L 3.293099880218506 10.61009979248047 C 1.474199891090393 10.61009979248047 -1.190185514587938e-07 12.08430004119873 -1.190185514587938e-07 13.90229988098145 C -1.190185514587938e-07 15.72119998931885 1.474199891090393 17.19540023803711 3.293099880218506 17.19540023803711 L 10.61009979248047 17.19540023803711 L 10.61009979248047 24.51239967346191 C 10.61009979248047 26.33040046691895 12.08430004119873 27.80459976196289 13.90229988098145 27.80459976196289 M 13.90229988098145 28.80459976196289 C 11.53557014465332 28.80459976196289 9.610099792480469 26.87912940979004 9.610099792480469 24.51239967346191 L 9.610099792480469 18.19540023803711 L 3.293099880218506 18.19540023803711 C 0.9258798956871033 18.19540023803711 -1.00000011920929 16.2695198059082 -1.00000011920929 13.90229988098145 C -1.00000011920929 11.53557014465332 0.9258798956871033 9.610099792480469 3.293099880218506 9.610099792480469 L 9.610099792480469 9.610099792480469 L 9.610099792480469 3.293099880218506 C 9.610099792480469 0.9258798956871033 11.53557014465332 -1.00000011920929 13.90229988098145 -1.00000011920929 C 16.2695198059082 -1.00000011920929 18.19540023803711 0.9258798956871033 18.19540023803711 3.293099880218506 L 18.19540023803711 9.610099792480469 L 24.51239967346191 9.610099792480469 C 26.87912940979004 9.610099792480469 28.80459976196289 11.53557014465332 28.80459976196289 13.90229988098145 C 28.80459976196289 16.2695198059082 26.87912940979004 18.19540023803711 24.51239967346191 18.19540023803711 L 18.19540023803711 18.19540023803711 L 18.19540023803711 24.51239967346191 C 18.19540023803711 26.87912940979004 16.2695198059082 28.80459976196289 13.90229988098145 28.80459976196289 Z" stroke="none" fill="#000"/>
    </g>
  </g>
</svg>
