<svg id="iconmonstr-phone-4" xmlns="http://www.w3.org/2000/svg" width="14.666" height="16" viewBox="0 0 14.666 16">
  <path id="Shape" d="M5.526.693,6.931,0,9.258,4.545,7.87,5.229c-1.459.782,1.58,6.719,3.073,6,.06-.028,1.371-.671,1.375-.674l2.348,4.53c-.005,0-1.326.653-1.407.688A2.538,2.538,0,0,1,12.193,16C7.342,16,1.061,3.021,5.526.693ZM3.21,14.916a3.7,3.7,0,0,1-.224-2.645c.08-.469.415-1.894-.687-2.153a2.291,2.291,0,0,0-1.662.406L0,9.549c1.339-.876,3.125-.938,3.938.446a3.471,3.471,0,0,1,.2,2.473,2.689,2.689,0,0,0,.085,1.862c.412.709,1.766.644,2.75-.071.259.305.526.6.8.867A4.076,4.076,0,0,1,5.317,16,2.329,2.329,0,0,1,3.21,14.916Z"/>
</svg>
