<svg xmlns="http://www.w3.org/2000/svg" width="46.243" height="46.182" viewBox="0 0 46.243 46.182">
  <path id="Path_3_Copy" data-name="Path 3 Copy" d="M32.742,45.709c-.189-.133-.358-.253-.51-.362-1.272-.9-1.4-1-2.667-1l-.525,0h-.006l-.626,0H28.4a2.528,2.528,0,0,1-2.422-1.7c-.069-.207-.13-.394-.185-.563a3.43,3.43,0,0,0-1.968-2.617c-.157-.108-.331-.227-.526-.362a2.423,2.423,0,0,1-1.057-1.984,2.371,2.371,0,0,1,.127-.761c.074-.216.141-.409.2-.583.5-1.42.553-1.583.168-2.725a2.533,2.533,0,0,1,.19,1.6l-5.656,3.019h0L0,28.469V9.421L9.338,4.328l0-.013.01.005L17.273,0,34.547,9.525V22.2h0a2.573,2.573,0,0,1,1.2.454c.19.133.359.254.511.363,1.272.9,1.4,1,2.67,1l.524,0,.629,0h.006a2.533,2.533,0,0,1,2.425,1.7c.072.216.136.41.193.584.53,1.618.53,1.618,1.974,2.606l.512.353a2.419,2.419,0,0,1,1.056,1.981,2.335,2.335,0,0,1-.127.764c-.075.218-.142.411-.2.587-.559,1.6-.559,1.6.007,3.226l0,.006c.059.168.123.355.194.562a2.328,2.328,0,0,1,.127.762,2.429,2.429,0,0,1-1.054,1.984l-.51.35c-1.445.989-1.445.989-1.975,2.605-.058.175-.121.37-.194.587a2.533,2.533,0,0,1-2.424,1.7h-.007l-.63,0-.525,0c-1.265,0-1.4.094-2.664.994-.156.111-.325.231-.516.365a2.623,2.623,0,0,1-3,0Zm-.01-3.154c.115.082.242.173.385.273a1.971,1.971,0,0,0,2.252,0l.386-.274c.95-.676,1.05-.747,2-.747l.39,0h0l.469,0a1.9,1.9,0,0,0,1.823-1.273c.054-.161.1-.306.144-.437a2.57,2.57,0,0,1,1.482-1.957l.383-.263a1.818,1.818,0,0,0,.79-1.488,1.751,1.751,0,0,0-.095-.572c-.054-.158-.1-.3-.148-.426a2.469,2.469,0,0,1,0-2.42c.046-.131.1-.276.152-.439a1.743,1.743,0,0,0,.095-.572,1.812,1.812,0,0,0-.791-1.486l-.384-.265a2.569,2.569,0,0,1-1.48-1.955c-.044-.133-.091-.277-.145-.438a1.9,1.9,0,0,0-1.818-1.273h-.005l-.471,0-.4,0c-.946,0-1.046-.07-2-.748l-.385-.273a1.969,1.969,0,0,0-2.252,0l-.382.271c-.956.679-1.056.75-1.974.75l-.4,0-.5,0H29.86a1.894,1.894,0,0,0-1.816,1.273c-.052.157-.1.3-.14.425a2.575,2.575,0,0,1-1.478,1.965l-.391.269a1.816,1.816,0,0,0-.793,1.487,1.783,1.783,0,0,0,.1.572c.055.159.1.3.149.431a2.463,2.463,0,0,1,0,2.415c-.046.131-.1.276-.152.439a1.791,1.791,0,0,0-.1.571,1.816,1.816,0,0,0,.793,1.488l.393.271a2.573,2.573,0,0,1,1.477,1.963c.041.127.087.267.139.423a1.894,1.894,0,0,0,1.816,1.273h.005l.468,0h.005l.389,0C31.68,41.807,31.78,41.878,32.732,42.555ZM18.507,19.166V34.231l3.914-2.089.13.375c-.055-.159-.116-.333-.181-.525a2.376,2.376,0,0,1-.127-.762A2.422,2.422,0,0,1,23.3,29.246l.521-.358a3.437,3.437,0,0,0,1.971-2.621c.056-.172.117-.358.186-.565a2.529,2.529,0,0,1,2.422-1.7h.007l.662,0c.2,0,.37,0,.526,0a3.137,3.137,0,0,0,2.483-.893V12.182ZM2.468,26.988l13.571,7.242V19.163L2.468,12.1Zm31.815-4.807h0Zm-.041,0Zm-30.3-12.1,13.335,6.941,5.6-2.879L9.377,7.116Zm8.044-4.39L25.562,12.76,30.6,10.166,17.266,2.815ZM28.607,34.544,30.352,32.8l2.482,2.353,5.3-5.433,1.745,1.745-7.045,7.178Z" fill="#333"/>
</svg>
