<svg xmlns="http://www.w3.org/2000/svg" width="42.278" height="38.279" viewBox="0 0 42.278 38.279">
  <path id="Path_3_Copy" data-name="Path 3 Copy" d="M28.842,38.279h0l-2.12-2.121L32.378,30.5l-5.656-5.657,2.121-2.121L34.5,28.379l5.657-5.657,2.121,2.121L36.621,30.5l5.657,5.657-2.121,2.121L34.5,32.621l-5.656,5.657Zm-11.569-.594h0L0,28.469V9.421L9.337,4.328l0-.013.01.005L17.273,0,34.547,9.525v7.6a14.311,14.311,0,0,0-12.54,13.458,13.623,13.623,0,0,1,2.822-7.913,14.407,14.407,0,0,1,7.251-5.008v-5.48L18.507,19.165V34.229l3.558-1.9a13.553,13.553,0,0,0,.5,2.532l-5.285,2.82ZM2.468,12.1V26.988L16.037,34.23l0-15.067Zm6.909-4.98h0L3.943,10.083l13.334,6.941,5.6-2.879L9.377,7.116Zm7.889-4.3L11.987,5.692,25.561,12.76,30.6,10.166Z" fill="#fff"/>
</svg>
