<svg xmlns="http://www.w3.org/2000/svg" width="94" height="58" viewBox="0 0 94 58">
  <g id="그룹_2" data-name="그룹 2" transform="translate(-60 -35.5)">
    <path id="Shape_Copy" data-name="Shape Copy" d="M14.752,50C13.979,40.815,10.4,38.413,2.129,30.137A6.758,6.758,0,0,1,0,25.406c0-3.245,2.792-5.75,6.587-5.2a10.46,10.46,0,0,1,3.83,1.49V6.156a6.251,6.251,0,0,1,12.5,0v7.317c1.938.383,9.059,1.741,11.533,2.266,5.006,1.065,7.216,4.625,7.216,9.725,0,8.33-6.25,10.156-6.25,20.893V50Z" transform="translate(89 43.5)" fill="#fff"/>
    <path id="Rectangle" d="M0,5H21.506V0L30,10,21.506,20V15H0Z" transform="translate(124 35.5)" fill="#fff"/>
    <path id="Rectangle_Copy_4" data-name="Rectangle Copy 4" d="M0,5H-21.506V0L-30,10l8.494,10V15H0Z" transform="translate(90 35.5)" fill="#fff"/>
  </g>
</svg>
