<svg xmlns="http://www.w3.org/2000/svg" width="21" height="21" viewBox="0 0 21 21">
  <path id="Rectangle_2" data-name="Rectangle 2" d="M2,21V19H19v2Zm.566-3.5-.838-.331a2.512,2.512,0,0,1-1.4-1.4L0,14.962V6.052L.331,5.22A2.508,2.508,0,0,1,1.749,3.8l.778-.3H18.458l.852.351A2.512,2.512,0,0,1,20.7,5.277L21,6.089v8.884l-.354.86a2.508,2.508,0,0,1-1.423,1.386l-.741.282ZM2.689,5.644a.994.994,0,0,0-.532.529L2,6.532v7.951l.116.306a1,1,0,0,0,.559.572l.344.14H17.953l.369-.148a1,1,0,0,0,.551-.543L19,14.5V6.535l-.138-.345a1.009,1.009,0,0,0-.54-.552L18,5.5H3.032ZM2,2V0H19V2Z" transform="translate(-0.005)" fill="#333"/>
</svg>
