<svg xmlns="http://www.w3.org/2000/svg" width="28px" height="28px" viewBox="0 0 28 28" id="linkicon-bottom">
  <title>Group 37</title>
  <g id="linkicon-2" stroke="none" stroke-width="1" fill="none" fill-rule="evenodd">
      <g id="link-2" transform="translate(-902.000000, -33.000000)">
          <g id="Group-37" transform="translate(902.000000, 33.000000)">
              <rect id="Rectangle2" opacity="0.200000003" x="0" y="0" width="28" height="28"></rect>
              <path d="M5.96086368,14.3798841 L5.96953472,17.0642472 C5.96953472,18.7591822 7.3494536,20.1391011 9.04385823,20.1385707 C10.7409145,20.1385707 12.1203031,18.7591822 12.1192424,17.0631866 L12.111632,14.3798841 L14.3618226,14.3793538 L14.3699633,17.0642472 C14.3704936,20.0038669 11.9855992,22.3887613 9.04491889,22.3892916 C6.10423856,22.3887613 3.72040482,20.0038669 3.71987449,17.0642472 L3.71120346,14.3798841 L5.96086368,14.3798841 Z M10,14.5028687 L10,17 C10,17.5522847 9.55228475,18 9,18 C8.44771525,18 8,17.5522847 8,17 L8,14.5028687 L10,14.5028687 Z" id="Rectangle-5" fill="#FFFFFF" fill-rule="nonzero"></path>
          </g>
      </g>
  </g>
</svg>