<svg xmlns="http://www.w3.org/2000/svg" width="24" height="18" viewBox="0 0 24 18">
  <path id="Shape" d="M12.006,18c-3.079,0-5.928-.069-7.622-.184-1.948-.134-3.038-.788-3.644-2.189C.141,14.241.015,12.148,0,9,.015,5.85.141,3.755.742,2.368S2.438.317,4.385.185C6.078.069,8.927,0,12.006,0s5.919.069,7.609.185c1.948.133,3.038.787,3.645,2.188.6,1.385.726,3.479.741,6.627-.015,3.151-.141,5.246-.743,6.632s-1.7,2.051-3.643,2.184C17.925,17.932,15.081,18,12.006,18ZM9,5v8l8-4.008Z" transform="translate(0 0)" fill="#fff"/>
</svg>
