<svg xmlns="http://www.w3.org/2000/svg" width="55" height="55" viewBox="0 0 55 55">
  <path id="Shape" d="M21.771,55a8.021,8.021,0,0,1-3.623-15.178L6.989,9.167h-4.7A2.267,2.267,0,0,1,.671,8.5a2.291,2.291,0,0,1,1.62-3.911H10.2L22.731,39.016a8.026,8.026,0,0,1,4.9,2.493l25.8-9.389L55,36.426,29.679,45.641A8.02,8.02,0,0,1,21.771,55Zm0-11.028a3.008,3.008,0,1,0,3.007,3.007A3.011,3.011,0,0,0,21.771,43.972Zm4.346-5.4h0l-6.27-17.229,26.167-9.524,6.269,17.229L26.117,38.573Zm6.2-16.891-6.6,2.4L28.857,32.7l17.552-6.387L43.274,17.7l-6.646,2.417L38.2,24.42l-4.306,1.57Zm-13.26-2.491h0L14.646,7.053,34.026,0l4.419,12.137L19.063,19.19ZM31.288,5.873,20.52,9.795,21.8,13.317,32.569,9.4Z" fill="#fff"/>
</svg>
