<svg xmlns="http://www.w3.org/2000/svg" width="15.605" height="14.647" viewBox="0 0 15.605 14.647">
  <g id="Group_7" data-name="Group 7" transform="translate(0 0.002)">
    <path id="Rectangle_7" data-name="Rectangle 7" d="M.147,14.5a.5.5,0,0,1,0-.707L1.9,12.04A1.988,1.988,0,0,1,1.6,11V2a2,2,0,0,1,2-2h8l.023,0,.009,0H13.6a2,2,0,0,1,2,2v9a2,2,0,0,1-2,2H11.693l-.009,0-.052,0h-.005v0L11.6,13h-8a1.987,1.987,0,0,1-.99-.263L.853,14.5a.5.5,0,0,1-.707,0ZM4.1,12h7a1.5,1.5,0,0,0,1.5-1.5v-8a1.5,1.5,0,0,0-1.5-1.5h-7A1.5,1.5,0,0,0,2.6,2.5v8a1.49,1.49,0,0,0,.16.673L6.937,7H4.855a.75.75,0,0,1,0-1.5h3.5a.75.75,0,0,1,.75.75v3.5a.75.75,0,1,1-1.5,0v-2l-4.12,4.12A1.492,1.492,0,0,0,4.1,12Z" fill="#333"/>
  </g>
</svg>
