<svg xmlns="http://www.w3.org/2000/svg" width="53" height="39.75" viewBox="0 0 53 39.75">
  <g id="Group_4" data-name="Group 4" transform="translate(0 -0.006)">
    <path id="Shape" d="M31.812,39.757a3.312,3.312,0,1,1,3.313-3.313A3.316,3.316,0,0,1,31.812,39.757Zm-15.042,0a3.312,3.312,0,1,1,3.313-3.313A3.316,3.316,0,0,1,16.771,39.757ZM34.9,30.923H14.233l-1.422-.372A6.036,6.036,0,0,1,9.63,28.478l-.981-1.235L0,6.631H4.79l7.3,17.391.43.64a4.022,4.022,0,0,0,2.6,1.7l.771.14H33.136l.85-.2a4.011,4.011,0,0,0,2.559-1.938l.461-.824L42.491,4.36l.978-1.471A6.006,6.006,0,0,1,46.788.452l1.53-.445H53L51.359,4.423h-1.2l-.743.14A4.028,4.028,0,0,0,46.6,6.673l-.347.68L40.7,26.544l-.923,1.422a6.01,6.01,0,0,1-3.27,2.466l-1.6.491h0ZM21.523,19.882h0L13.25,12.009,16.331,8.84l5.135,4.82,11.4-11.445,3.141,3.109L21.523,19.881Z" fill="#333"/>
  </g>
</svg>
