<svg xmlns="http://www.w3.org/2000/svg" width="53.829" height="42" viewBox="0 0 53.829 42">
  <path id="Shape" d="M-15.72,42h0L0,33.611V15.893l-15.72,8.185V42Zm-1.5,0V24.08l-15.721-8.09V33.611L-17.218,42Zm-22.948-7.216v0l2.838-4.917-5.5-1.419.958,2.306a6,6,0,0,1-1.505.192A5.964,5.964,0,0,1-48.9,27.271a6.035,6.035,0,0,1,.3-5.26l-1.7-.445a7.7,7.7,0,0,0-.186,6.362,7.573,7.573,0,0,0,3.252,3.7,7.774,7.774,0,0,0,3.863,1.032,7.668,7.668,0,0,0,2.164-.312l1.04,2.436Zm23.693-12,15.68-8.164-6.862-3.741-15.883,8.27,7.065,3.635Zm-27.334-1.089h0l9.582-5.534V5.406L-44.025,0l-4.5,2.452-.006,0,0,.006-5.3,2.891V16.158l10.023,5.534ZM-51.8,7.928l6.682,3.717V18.5L-51.8,14.971Zm15.55.362v6.682l-6.224,3.413.024-6.629,6.2-3.466ZM-48.473,4.7h0l7.11,3.671L-43.67,9.557l-6.951-3.685L-48.473,4.7Zm4.213-2.3,6.935,3.889-2.021,1.039-7.1-3.736L-44.26,2.4Zm19.094,15.9,15.931-8.293-7.232-3.946L-32.15,14.713l6.983,3.593Z" transform="translate(53.829)" fill="#fff"/>
</svg>
