<svg id="A_nswer_Copy" data-name="A nswer Copy" xmlns="http://www.w3.org/2000/svg" width="34.132" height="45.537" viewBox="0 0 34.132 45.537">
  <path id="Shape" d="M10.5,33.351H0L12.65,0h8L33.3,33.349l-10.5,0-1.1-3H11.6l-1.1,3h0Zm-2.1-6.5H24.9l.949,2.5h1.4L17.6,4H15.7L6.05,29.35h1.4l.95-2.5h0Zm16.048-1.2H8.85L16.65,5.2l7.8,20.448v0ZM14.4,23h4.5l-2.25-5.85Z" fill="#fff"/>
  <path id="Path" d="M0,0H1.925L3.949,2.827V0h2.3V7.337H4.312L2.3,4.521V7.337H0Z" transform="translate(1.385 38.013)" fill="#fff"/>
  <path id="Path-2" data-name="Path" d="M.022,5.236a3.641,3.641,0,0,0,.506.121,4.009,4.009,0,0,0,.5.088,4.844,4.844,0,0,0,.567.033q.506,0,.506-.374a.418.418,0,0,0-.154-.292,4.632,4.632,0,0,0-.391-.33q-.237-.182-.506-.4a3.665,3.665,0,0,1-.506-.506,2.645,2.645,0,0,1-.39-.644A2.055,2.055,0,0,1,0,2.112,2.115,2.115,0,0,1,.187,1.2,1.836,1.836,0,0,1,.7.539a2.324,2.324,0,0,1,.776-.4A3.21,3.21,0,0,1,2.431,0a5.093,5.093,0,0,1,.528.027l.473.049L3.9.143V2.2l-.2-.022-.2-.022q-.11-.011-.231-.011-.066,0-.165.006a1,1,0,0,0-.187.027.381.381,0,0,0-.154.077.189.189,0,0,0-.066.154q0,.088.148.22t.363.308q.215.176.473.407a3.28,3.28,0,0,1,.473.528,3.083,3.083,0,0,1,.363.671,2.248,2.248,0,0,1,.148.836,2.635,2.635,0,0,1-.154.907,1.928,1.928,0,0,1-.478.737,2.287,2.287,0,0,1-.831.495,3.556,3.556,0,0,1-1.2.181,7.267,7.267,0,0,1-.776-.038Q.88,7.623.605,7.568a5.312,5.312,0,0,1-.583-.132Z" transform="translate(8.183 37.837)" fill="#fff"/>
  <path id="Path-3" data-name="Path" d="M0,0H2.486l.847,2.563L4.18,0H5.786l.847,2.563L7.48,0H9.966L7.546,7.337H5.72L4.983,5.115,4.246,7.337H2.42Z" transform="translate(12.748 38.013)" fill="#fff"/>
  <path id="Path-4" data-name="Path" d="M0,0H4.323V1.925H2.343v.814H4.29V4.565H2.343v.847H4.4V7.337H0Z" transform="translate(22.879 38.013)" fill="#fff"/>
  <path id="Shape-2" data-name="Shape" d="M3.443,7.337l-1.1-1.859V7.337H0V0H2.53a4.339,4.339,0,0,1,1.3.187,3.007,3.007,0,0,1,1.039.55,2.518,2.518,0,0,1,.688.9A2.874,2.874,0,0,1,5.808,2.86a2.527,2.527,0,0,1-.154.935,2.859,2.859,0,0,1-.341.638,2.371,2.371,0,0,1-.5.483l1.375,2.42Z" transform="translate(27.939 38.013)" fill="#fff"/>
</svg>
