<svg xmlns="http://www.w3.org/2000/svg" width="26.667" height="20" viewBox="0 0 26.667 20">
  <path id="Shape" d="M20,20a3.336,3.336,0,0,1-3.333-3.333H12.222a3.333,3.333,0,0,1-6.666,0H4.444a1.112,1.112,0,0,1-1.111-1.111V8.889H1.112V6.666H8.889V8.889H5.556V10h8.888V2.222H3.334V1.111A1.112,1.112,0,0,1,4.444,0H15.556a1.113,1.113,0,0,1,1.112,1.112V3.334h5.185A2.3,2.3,0,0,1,24,4.563c.544.86,1.676,2.651,2.344,3.754a2.229,2.229,0,0,1,.32,1.15v4.977a2.127,2.127,0,0,1-2.223,2.223H23.333A3.338,3.338,0,0,1,20,20Zm0-4.667a1.333,1.333,0,1,0,1.334,1.334A1.335,1.335,0,0,0,20,15.333Zm-11.11,0a1.333,1.333,0,1,0,1.333,1.334A1.335,1.335,0,0,0,8.889,15.333Zm11.11-2a3.332,3.332,0,0,1,2.483,1.111h1.961V9.361l-1.9-3.254a1.113,1.113,0,0,0-.958-.551H16.667v6.666H5.556v2.222h.85a3.332,3.332,0,0,1,4.967,0h6.144A3.336,3.336,0,0,1,20,13.333ZM23.333,10H17.778V6.666h3.006a1.112,1.112,0,0,1,.964.561L23.333,10ZM8.889,5.556H0V3.334H8.889V5.555Z" fill="#333"/>
</svg>
