<?xml version="1.0" encoding="UTF-8"?>
<svg width="40px" height="47px" viewBox="0 0 40 47" version="1.1" xmlns="http://www.w3.org/2000/svg" xmlns:xlink="http://www.w3.org/1999/xlink">
    <title>Q uestion Copy</title>
    <g id="자주묻는-질문" stroke="none" stroke-width="1" fill="none" fill-rule="evenodd">
        <g id="공지사항" transform="translate(-621.000000, -945.000000)" fill="#FFFFFF" fill-rule="nonzero">
            <g id="Q-uestion-Copy" transform="translate(621.000000, 945.000000)">
                <path d="M18.148,0 C20.548,0 22.8146667,0.458333333 24.948,1.375 C27.0813333,2.29166667 28.9396667,3.54166667 30.523,5.125 C32.1063333,6.70833333 33.3563333,8.56666667 34.273,10.7 C35.1896667,12.8333333 35.648,15.1 35.648,17.5 C35.648,18.9333333 35.4813333,20.3166667 35.148,21.65 C34.8146667,22.9833333 34.348,24.2333333 33.748,25.4 L36.848,25.4 L32.348,34.15 L23.498,34.15 C21.7313333,34.7166667 19.948,35 18.148,35 C15.748,35 13.4813333,34.5416667 11.348,33.625 C9.21466667,32.7083333 7.35633333,31.4583333 5.773,29.875 C4.18966667,28.2916667 2.93966667,26.4333333 2.023,24.3 C1.10633333,22.1666667 0.648,19.9 0.648,17.5 C0.648,15.1 1.10633333,12.8333333 2.023,10.7 C2.93966667,8.56666667 4.18966667,6.70833333 5.773,5.125 C7.35633333,3.54166667 9.21466667,2.29166667 11.348,1.375 C13.4813333,0.458333333 15.748,0 18.148,0 Z M18.148,4.7 C16.3813333,4.7 14.723,5.03333333 13.173,5.7 C11.623,6.36666667 10.2646667,7.28333333 9.098,8.45 C7.93133333,9.61666667 7.01466667,10.975 6.348,12.525 C5.68133333,14.075 5.348,15.7333333 5.348,17.5 C5.348,19.2666667 5.68133333,20.925 6.348,22.475 C7.01466667,24.025 7.93133333,25.3833333 9.098,26.55 C10.2646667,27.7166667 11.6396667,28.6333333 13.223,29.3 C14.8063333,29.9666667 16.5146667,30.3 18.348,30.3 L31.098,30.3 L31.698,29.1 L23.548,29.1 C24.648,28.6 25.648,27.95 26.548,27.15 C27.448,26.35 28.223,25.45 28.873,24.45 C29.523,23.45 30.0313333,22.3583333 30.398,21.175 C30.7646667,19.9916667 30.948,18.7666667 30.948,17.5 C30.948,15.7333333 30.6146667,14.075 29.948,12.525 C29.2813333,10.975 28.3646667,9.61666667 27.198,8.45 C26.0313333,7.28333333 24.673,6.36666667 23.123,5.7 C21.573,5.03333333 19.9146667,4.7 18.148,4.7 Z M18.148,6 C19.748,6 21.2396667,6.3 22.623,6.9 C24.0063333,7.5 25.223,8.325 26.273,9.375 C27.323,10.425 28.148,11.6416667 28.748,13.025 C29.348,14.4083333 29.648,15.9 29.648,17.5 C29.648,19.1 29.348,20.5916667 28.748,21.975 C28.148,23.3583333 27.323,24.575 26.273,25.625 C25.223,26.675 24.0063333,27.5 22.623,28.1 C21.2396667,28.7 19.748,29 18.148,29 C16.548,29 15.0563333,28.7 13.673,28.1 C12.2896667,27.5 11.073,26.675 10.023,25.625 C8.973,24.575 8.148,23.3583333 7.548,21.975 C6.948,20.5916667 6.648,19.1 6.648,17.5 C6.648,15.9 6.948,14.4083333 7.548,13.025 C8.148,11.6416667 8.973,10.425 10.023,9.375 C11.073,8.325 12.2896667,7.5 13.673,6.9 C15.0563333,6.3 16.548,6 18.148,6 Z M18.148,10.5 C17.1813333,10.5 16.273,10.6833333 15.423,11.05 C14.573,11.4166667 13.8313333,11.9166667 13.198,12.55 C12.5646667,13.1833333 12.0646667,13.925 11.698,14.775 C11.3313333,15.625 11.148,16.5333333 11.148,17.5 C11.148,18.4666667 11.3313333,19.375 11.698,20.225 C12.0646667,21.075 12.5646667,21.8166667 13.198,22.45 C13.8313333,23.0833333 14.573,23.5833333 15.423,23.95 C16.273,24.3166667 17.1813333,24.5 18.148,24.5 C19.1146667,24.5 20.023,24.3166667 20.873,23.95 C21.723,23.5833333 22.4646667,23.0833333 23.098,22.45 C23.7313333,21.8166667 24.2313333,21.075 24.598,20.225 C24.9646667,19.375 25.148,18.4666667 25.148,17.5 C25.148,16.5333333 24.9646667,15.625 24.598,14.775 C24.2313333,13.925 23.7313333,13.1833333 23.098,12.55 C22.4646667,11.9166667 21.723,11.4166667 20.873,11.05 C20.023,10.6833333 19.1146667,10.5 18.148,10.5 Z" id="Shape"></path>
                <path d="M3.036,46.337 C2.574,46.337 2.156,46.2783333 1.782,46.161 C1.408,46.0436667 1.089,45.8676667 0.825,45.633 C0.561,45.3983333 0.3575,45.1013333 0.2145,44.742 C0.0715,44.3826667 0,43.961 0,43.477 L0,38.813 L2.343,38.813 L2.343,43.378 C2.343,43.6346667 2.39616667,43.8308333 2.5025,43.9665 C2.60883333,44.1021667 2.78666667,44.17 3.036,44.17 C3.28533333,44.17 3.46316667,44.1021667 3.5695,43.9665 C3.67583333,43.8308333 3.729,43.6346667 3.729,43.378 L3.729,38.813 L6.083,38.813 L6.083,43.477 C6.083,43.961 6.0115,44.3826667 5.8685,44.742 C5.7255,45.1013333 5.52016667,45.3983333 5.2525,45.633 C4.98483333,45.8676667 4.664,46.0436667 4.29,46.161 C3.916,46.2783333 3.498,46.337 3.036,46.337 Z" id="Path"></path>
                <polygon id="Path" points="6.82 38.813 11.143 38.813 11.143 40.738 9.163 40.738 9.163 41.552 11.11 41.552 11.11 43.378 9.163 43.378 9.163 44.225 11.22 44.225 11.22 46.15 6.82 46.15"></polygon>
                <path d="M11.682,43.873 C11.8433333,43.9243333 12.012,43.9646667 12.188,43.994 C12.3346667,44.0306667 12.5015,44.06 12.6885,44.082 C12.8755,44.104 13.0643333,44.115 13.255,44.115 C13.5923333,44.115 13.761,43.9903333 13.761,43.741 C13.761,43.6456667 13.7096667,43.5485 13.607,43.4495 C13.5043333,43.3505 13.3741667,43.2405 13.2165,43.1195 C13.0588333,42.9985 12.8901667,42.8646667 12.7105,42.718 C12.5308333,42.5713333 12.3621667,42.4026667 12.2045,42.212 C12.0468333,42.0213333 11.9166667,41.8068333 11.814,41.5685 C11.7113333,41.3301667 11.66,41.057 11.66,40.749 C11.66,40.4043333 11.7223333,40.1 11.847,39.836 C11.9716667,39.572 12.144,39.352 12.364,39.176 C12.584,39 12.8425,38.8661667 13.1395,38.7745 C13.4365,38.6828333 13.7536667,38.637 14.091,38.637 C14.267,38.637 14.443,38.6461667 14.619,38.6645 C14.795,38.6828333 14.9526667,38.6993333 15.092,38.714 C15.2533333,38.736 15.411,38.758 15.565,38.78 L15.565,40.837 C15.5063333,40.8296667 15.4403333,40.8223333 15.367,40.815 C15.3083333,40.8076667 15.2423333,40.8003333 15.169,40.793 C15.0956667,40.7856667 15.0186667,40.782 14.938,40.782 C14.894,40.782 14.839,40.7838333 14.773,40.7875 C14.707,40.7911667 14.6446667,40.8003333 14.586,40.815 C14.5273333,40.8296667 14.476,40.8553333 14.432,40.892 C14.388,40.9286667 14.366,40.98 14.366,41.046 C14.366,41.1046667 14.4155,41.178 14.5145,41.266 C14.6135,41.354 14.7345,41.4566667 14.8775,41.574 C15.0205,41.6913333 15.1781667,41.827 15.3505,41.981 C15.5228333,42.135 15.6805,42.311 15.8235,42.509 C15.9665,42.707 16.0875,42.9306667 16.1865,43.18 C16.2855,43.4293333 16.335,43.708 16.335,44.016 C16.335,44.3386667 16.2836667,44.6411667 16.181,44.9235 C16.0783333,45.2058333 15.9188333,45.4515 15.7025,45.6605 C15.4861667,45.8695 15.2093333,46.0345 14.872,46.1555 C14.5346667,46.2765 14.135,46.337 13.673,46.337 C13.3943333,46.337 13.1358333,46.3241667 12.8975,46.2985 C12.6591667,46.2728333 12.4483333,46.2416667 12.265,46.205 C12.0523333,46.1683333 11.858,46.1243333 11.682,46.073 L11.682,43.873 Z" id="Path"></path>
                <polygon id="Path" points="17.798 40.738 16.445 40.738 16.445 38.813 21.571 38.813 21.571 40.738 20.218 40.738 20.218 46.15 17.798 46.15"></polygon>
                <polygon id="Path" points="21.956 38.813 24.442 38.813 24.442 46.15 21.956 46.15"></polygon>
                <path d="M25.047,42.487 C25.047,41.959 25.1478333,41.4603333 25.3495,40.991 C25.5511667,40.5216667 25.8261667,40.1128333 26.1745,39.7645 C26.5228333,39.4161667 26.9316667,39.1411667 27.401,38.9395 C27.8703333,38.7378333 28.369,38.637 28.897,38.637 C29.425,38.637 29.9236667,38.7378333 30.393,38.9395 C30.8623333,39.1411667 31.2711667,39.4161667 31.6195,39.7645 C31.9678333,40.1128333 32.2428333,40.5216667 32.4445,40.991 C32.6461667,41.4603333 32.747,41.959 32.747,42.487 C32.747,43.015 32.6461667,43.5136667 32.4445,43.983 C32.2428333,44.4523333 31.9678333,44.8611667 31.6195,45.2095 C31.2711667,45.5578333 30.8623333,45.8328333 30.393,46.0345 C29.9236667,46.2361667 29.425,46.337 28.897,46.337 C28.369,46.337 27.8703333,46.2361667 27.401,46.0345 C26.9316667,45.8328333 26.5228333,45.5578333 26.1745,45.2095 C25.8261667,44.8611667 25.5511667,44.4523333 25.3495,43.983 C25.1478333,43.5136667 25.047,43.015 25.047,42.487 Z M27.357,42.487 C27.357,42.6996667 27.3973333,42.8995 27.478,43.0865 C27.5586667,43.2735 27.6686667,43.4366667 27.808,43.576 C27.9473333,43.7153333 28.1105,43.8253333 28.2975,43.906 C28.4845,43.9866667 28.6843333,44.027 28.897,44.027 C29.1096667,44.027 29.3095,43.9866667 29.4965,43.906 C29.6835,43.8253333 29.8466667,43.7153333 29.986,43.576 C30.1253333,43.4366667 30.2353333,43.2735 30.316,43.0865 C30.3966667,42.8995 30.437,42.6996667 30.437,42.487 C30.437,42.2743333 30.3966667,42.0745 30.316,41.8875 C30.2353333,41.7005 30.1253333,41.5373333 29.986,41.398 C29.8466667,41.2586667 29.6835,41.1486667 29.4965,41.068 C29.3095,40.9873333 29.1096667,40.947 28.897,40.947 C28.6843333,40.947 28.4845,40.9873333 28.2975,41.068 C28.1105,41.1486667 27.9473333,41.2586667 27.808,41.398 C27.6686667,41.5373333 27.5586667,41.7005 27.478,41.8875 C27.3973333,42.0745 27.357,42.2743333 27.357,42.487 Z" id="Shape"></path>
                <polygon id="Path" points="33.352 38.813 35.277 38.813 37.301 41.64 37.301 38.813 39.6 38.813 39.6 46.15 37.664 46.15 35.651 43.334 35.651 46.15 33.352 46.15"></polygon>
            </g>
        </g>
    </g>
</svg>