<svg xmlns="http://www.w3.org/2000/svg" xmlns:xlink="http://www.w3.org/1999/xlink" width="48.002" height="48" viewBox="0 0 48.002 48">
  <defs>
    <linearGradient id="linear-gradient" y1="0.159" x2="1" y2="1" gradientUnits="objectBoundingBox">
      <stop offset="0" stop-color="#2c39b4"/>
      <stop offset="0.462" stop-color="#dc23aa"/>
      <stop offset="1" stop-color="red"/>
    </linearGradient>
  </defs>
  <path id="Shape" d="M19.845,46.2A5.973,5.973,0,0,1,18,42H30a6.127,6.127,0,0,1-5.942,6A6.1,6.1,0,0,1,19.845,46.2ZM4,38V34.5c4.994-1.629,6.014-7.088,7.094-12.868,1.02-5.458,2.075-11.1,6.63-13.744a4.213,4.213,0,0,0,2.083-3.646A4.224,4.224,0,0,1,24,0a4.144,4.144,0,0,1,2.948,1.226A4.242,4.242,0,0,1,28.192,4.25,4.212,4.212,0,0,0,30.274,7.89c4.559,2.643,5.613,8.287,6.633,13.745,1.08,5.78,2.1,11.238,7.093,12.867V38H4ZM19.734,11.352c-2.97,1.723-3.814,6.238-4.708,11.019C14.3,26.257,13.478,30.661,11.1,34H36.9c-2.38-3.337-3.2-7.743-3.928-11.63-.894-4.781-1.738-9.3-4.708-11.019A8.544,8.544,0,0,0,24,10.181,8.4,8.4,0,0,0,19.734,11.352ZM22,4a2,2,0,1,0,2-2A2,2,0,0,0,22,4ZM42.94,25.018A9.337,9.337,0,0,0,39.75,12.2l2.6-2.252a11.653,11.653,0,0,1,3.984,16ZM0,19.95a11.649,11.649,0,0,1,5.652-10l2.6,2.255A9.337,9.337,0,0,0,5.06,25.019L1.67,25.95A11.642,11.642,0,0,1,0,19.95Z" fill="url(#linear-gradient)"/>
</svg>
