<svg xmlns="http://www.w3.org/2000/svg" width="62.476" height="41" viewBox="0 0 62.476 41">
  <path id="Shape_Copy_3" data-name="Shape Copy 3" d="M37.48,36.711A14.64,14.64,0,1,1,47.833,41,14.542,14.542,0,0,1,37.48,36.711Zm.1-10.354a10.25,10.25,0,1,0,10.25-10.25A10.262,10.262,0,0,0,37.583,26.357Zm-9.357,4.881H3.471A3.475,3.475,0,0,1,0,27.767V3.471A3.475,3.475,0,0,1,3.471,0h38.18a3.475,3.475,0,0,1,3.47,3.471V5.934a19.518,19.518,0,0,0-4.16.829V5.188a.868.868,0,0,0-.868-.868H5.014a.868.868,0,0,0-.868.868V7.809H38.337a19.709,19.709,0,0,0-6.59,5.207H4.146V26.04a.868.868,0,0,0,.868.868H27.392a19.536,19.536,0,0,0,.835,4.33h0Zm17.168-4.1c0-.625.678-4.927,1.11-7.365.2-1.124,1.15-1.124,1.329,0l.553,5.908,6.019.674a.68.68,0,0,1,0,1.349c-2.325.451-6.812,1.021-7.425,1.021A1.587,1.587,0,0,1,45.394,27.14Z" fill="#333"/>
</svg>
