<svg xmlns="http://www.w3.org/2000/svg" width="39.353" height="51" viewBox="0 0 39.353 51">
  <path id="Path_3" data-name="Path 3" d="M9.019,51H0V34.764H9.02v3.13A31.989,31.989,0,0,0,12.2,36.652a8.392,8.392,0,0,1,3.4-.752A15.563,15.563,0,0,1,20.891,37.2c.724.26,1.543.554,2.479.868a3.078,3.078,0,0,1,2.12,2.356c.7-.535,2.155-1.659,5.132-3.966l.018-.014.148-.115a3.464,3.464,0,0,1,2.165-.783,3.124,3.124,0,0,1,3.158,3.081,3.34,3.34,0,0,1-1.131,2.446c-2.5,2.327-4.42,4.037-6.109,5.546l-.3.272c-.878.785-1.707,1.526-2.489,2.241a6.185,6.185,0,0,1-4.368,1.814,8.583,8.583,0,0,1-2.359-.361A48.822,48.822,0,0,0,9.02,48.6V51h0ZM2.331,48.512H6.638V37.187H2.331Zm10.592-9.647c-.3.132-.623.281-.961.437A19.634,19.634,0,0,1,9.02,40.477v5.459a54.933,54.933,0,0,1,10.822,1.912,6.751,6.751,0,0,0,1.834.3A4.6,4.6,0,0,0,24.86,46.8c.948-.868,1.823-1.614,2.836-2.478,1.445-1.232,3.083-2.629,5.431-4.81a.77.77,0,0,0,.281-.858.89.89,0,0,0-.836-.511,1.066,1.066,0,0,0-.664.238c-.221.172-5.379,4.176-6.655,5.129a2.975,2.975,0,0,1-2.071.581,2.821,2.821,0,0,1-.63-.076l-.4-.092c-1.263-.29-3.163-.725-4.568-1.173a1.323,1.323,0,0,1-1.018-1.45,1.106,1.106,0,0,1,1.145-.939,1.791,1.791,0,0,1,.357.039c.858.182,2.9.644,3.97.939a1,1,0,0,0,.27.038.729.729,0,0,0,.751-.526c.042-.262-.156-.493-.529-.618-.514-.171-.692-.234-1.046-.359s-.884-.312-2.092-.73a11.7,11.7,0,0,0-3.809-.881A6.5,6.5,0,0,0,12.923,38.865Zm-7.1-11.234V9.144L14.886,4.2l.005-.013.009.005L22.588,0,39.353,9.245V27.631L22.588,36.577ZM23.786,18.6V33.223l13.172-7.029V11.824ZM8.219,26.194l13.172,7.029V18.6L8.219,11.741ZM9.651,9.786l12.943,6.737,5.431-2.794-13.1-6.821Zm7.807-4.261,13.175,6.86,4.891-2.517L22.581,2.732Z" fill="#333"/>
</svg>
