<svg xmlns="http://www.w3.org/2000/svg" width="57.334" height="43" viewBox="0 0 57.334 43">
  <path id="Shape" d="M35.833,35.833H26.278a7.167,7.167,0,1,1-14.333,0H9.555a2.392,2.392,0,0,1-2.389-2.389V19.111H2.389V14.333H19.111v4.778H11.945V21.5H31.055V4.778H7.167V2.389A2.392,2.392,0,0,1,9.555,0H33.444a2.392,2.392,0,0,1,2.389,2.389V7.167H46.983a4.951,4.951,0,0,1,4.624,2.644c1.777,2.813,3.766,5.971,5.038,8.07a4.793,4.793,0,0,1,.689,2.472v10.7a4.862,4.862,0,0,1-1.263,3.365,4.686,4.686,0,0,1-3.515,1.413H50.167a7.167,7.167,0,1,1-14.333,0Zm4.3,0A2.866,2.866,0,1,0,43,32.967,2.87,2.87,0,0,0,40.134,35.833Zm-23.89,0a2.867,2.867,0,1,0,2.867-2.867A2.87,2.87,0,0,0,16.244,35.833Zm32.095-4.778h4.216V20.127l-4.087-7a2.4,2.4,0,0,0-2.062-1.184H35.833V26.278H11.945v4.777h1.827a7.162,7.162,0,0,1,10.679,0H37.66a7.162,7.162,0,0,1,10.679,0ZM38.222,21.5V14.333h6.462a2.386,2.386,0,0,1,2.074,1.2L50.167,21.5ZM0,11.945V7.167H19.111v4.778Z" fill="#333"/>
</svg>
