<svg xmlns="http://www.w3.org/2000/svg" width="60.101" height="52" viewBox="0 0 60.101 52">
  <path id="Shape" d="M0,40.7V17.333L22.148,5.778,44.3,17.458V40.7L22.148,52ZM24.481,30.181V45.892L39.92,37.9V22.191ZM4.319,38.063,19.742,45.89V30.054L4.319,22.044Zm2.718-19.85,14.971,7.735,5.531-2.814-14.265-8Zm20.792,4.773-.29.148.014.008L31,21.414ZM17.054,13.017l15.059,7.842-1.108.555.764-.379,5.56-2.822L22.148,10.5ZM48.1,25.945,49.4,22.354l9.877,3.595L57.973,29.54Zm.974-10.5,9.872-3.594,1.16,3.594-9.872,3.593ZM44.774,10.5l5.252-9.1,3.338,2.185-5.252,9.1Zm-7.376,0V0h4.1V10.5Z" fill="#fff"/>
</svg>
