<svg id="icon_list_util_2wish_delete" xmlns="http://www.w3.org/2000/svg" width="24" height="22" viewBox="0 0 24 22">
  <path id="Shape" d="M0,6.192A6.044,6.044,0,0,1,6.281,0,6.525,6.525,0,0,1,12,3.248,6.535,6.535,0,0,1,17.726.01,6.03,6.03,0,0,1,24,6.192a7.992,7.992,0,0,1-1.155,3.861L21.363,8.569A5.574,5.574,0,0,0,22,6.192,4.057,4.057,0,0,0,17.726,2.01C14.469,2.01,12.75,5.485,12,7.031,11.253,5.491,9.516,2,6.28,2A4.048,4.048,0,0,0,2,6.192c0,3.442,4.742,7.85,10,13L14.239,17l1.414,1.414C14.491,19.556,13.264,20.746,12,22,5.57,15.619,0,10.853,0,6.192ZM20,15H15V13h8v2Z" fill="#fff"/>
</svg>
