<svg id="Group_37" data-name="Group 37" xmlns="http://www.w3.org/2000/svg" width="110.55" height="30.6" viewBox="0 0 110.55 30.6">
  <path id="Shape_Copy_4" data-name="Shape Copy 4" d="M23.4,25.1H2.789A2.792,2.792,0,0,1,0,22.314V2.789A2.792,2.792,0,0,1,2.789,0H33.47a2.793,2.793,0,0,1,2.79,2.789V6.82h0A12.049,12.049,0,1,1,23.4,25.1Zm1.071-6.553A9.035,9.035,0,1,0,33.5,9.514,9.046,9.046,0,0,0,24.468,18.55ZM2.789,21.616a.7.7,0,0,0,.7.7H22.058A12.043,12.043,0,0,1,24.584,10.46H2.789ZM25.384,9.656a12.11,12.11,0,0,1,2.373-1.694A11.991,11.991,0,0,0,25.384,9.656Zm2.387-1.7.029-.016Zm1.35-.629.029-.011Zm.048-.019a11.972,11.972,0,0,1,4.177-.8A11.9,11.9,0,0,0,29.169,7.308Zm7.015-.5-.015,0Zm-.078-.017-.022,0Zm-.078-.017L36,6.763Zm-.1-.02-.048-.01Zm-.084-.017-.043-.008Zm-.08-.016-.04-.008ZM35.687,6.7l-.037-.007ZM35.6,6.685l-.029-.005Zm-.091-.016-.019,0Zm-.272-.043h0Zm-.086-.012h0Zm-1.127-.1h0Zm-.082,0h0Zm-.083,0h0Zm-.082,0h0Zm-.084,0h0Zm-.34,0h0Zm.254,0h0Zm-.108,0ZM2.789,3.487V6.276H33.47V3.487a.7.7,0,0,0-.7-.7H3.487A.7.7,0,0,0,2.789,3.487ZM33.7,20.164,30.857,23l-1.42-1.42,2.84-2.84-2.84-2.84,1.42-1.42,2.84,2.839,2.84-2.839,1.42,1.42-2.84,2.84,2.84,2.84L36.537,23Zm-20.184-.326v-.895l.18,0a.969.969,0,0,0,.5-.1.666.666,0,0,0,.259-.339l.139-.364L13.044,13.71h1.271l.821,2.749.817-2.749H17.22l-1.777,5.107-.1.233a1.353,1.353,0,0,1-1.308.867A1.847,1.847,0,0,1,13.514,19.838Zm-7.7-.008H4.638V13.71h1.1l.04.433a1.4,1.4,0,0,1,1.12-.515,1.5,1.5,0,0,1,1.271.6A2.741,2.741,0,0,1,8.618,15.9v.061A2.664,2.664,0,0,1,8.153,17.6a1.49,1.49,0,0,1-1.252.616,1.384,1.384,0,0,1-1.083-.466v2.083h0Zm0-4.817v1.81a.789.789,0,0,0,.772.437c.562,0,.846-.466.846-1.385a1.75,1.75,0,0,0-.219-.952.714.714,0,0,0-.635-.335A.776.776,0,0,0,5.819,15.013Zm3.637,2.823a1.215,1.215,0,0,1-.427-.948,1.258,1.258,0,0,1,.521-1.079,2.583,2.583,0,0,1,1.506-.38H11.6v-.253a.737.737,0,0,0-.157-.491.627.627,0,0,0-.5-.184.706.706,0,0,0-.468.142.488.488,0,0,0-.169.392H9.127a1.2,1.2,0,0,1,.237-.711,1.559,1.559,0,0,1,.671-.512,2.456,2.456,0,0,1,.972-.186,1.941,1.941,0,0,1,1.3.41,1.445,1.445,0,0,1,.48,1.155v1.916a2.126,2.126,0,0,0,.176.952v.069H11.767a1.3,1.3,0,0,1-.119-.4,1.437,1.437,0,0,1-1.115.479A1.583,1.583,0,0,1,9.455,17.836Zm.759-1.1,0,.069a.469.469,0,0,0,.155.364.6.6,0,0,0,.426.143,1.01,1.01,0,0,0,.482-.116.758.758,0,0,0,.327-.312v-.76h-.441C10.57,16.12,10.252,16.326,10.214,16.733Z" transform="translate(65)" fill="#333"/>
  <path id="Rectangle_Copy_63" data-name="Rectangle Copy 63" d="M12,0h2L2,23H0Z" transform="translate(43 2)" fill="#333"/>
  <path id="Shape_Copy_6" data-name="Shape Copy 6" d="M2.777,25A2.781,2.781,0,0,1,0,22.222V2.777A2.78,2.78,0,0,1,2.777,0H33.333a2.78,2.78,0,0,1,2.777,2.777V22.222A2.781,2.781,0,0,1,33.333,25Zm0-21.528V21.528a.7.7,0,0,0,.695.694H32.639a.7.7,0,0,0,.695-.694V10.417H2.777V6.25H33.333V3.472a.7.7,0,0,0-.695-.695H3.472A.7.7,0,0,0,2.777,3.472Zm10.68,16.284v-.891l.179,0a.958.958,0,0,0,.5-.1.664.664,0,0,0,.258-.337l.139-.362L12.99,13.652h1.265l.817,2.739.815-2.739h1.261l-1.769,5.087-.1.232a1.342,1.342,0,0,1-1.3.862A1.855,1.855,0,0,1,13.458,19.756Zm-7.664-.008H4.618v-6.1H5.709l.041.432a1.389,1.389,0,0,1,1.115-.513,1.5,1.5,0,0,1,1.265.6,2.729,2.729,0,0,1,.452,1.66v.061a2.643,2.643,0,0,1-.463,1.629,1.484,1.484,0,0,1-1.247.613,1.378,1.378,0,0,1-1.078-.464v2.075h0Zm0-4.8v1.8a.786.786,0,0,0,.769.435c.559,0,.842-.463.842-1.379a1.739,1.739,0,0,0-.218-.949.712.712,0,0,0-.633-.334A.771.771,0,0,0,5.794,14.951Zm3.622,2.812a1.21,1.21,0,0,1-.425-.944,1.252,1.252,0,0,1,.518-1.075,2.575,2.575,0,0,1,1.5-.378h.542v-.252a.732.732,0,0,0-.157-.489.618.618,0,0,0-.495-.183.7.7,0,0,0-.465.142.485.485,0,0,0-.169.391H9.089a1.181,1.181,0,0,1,.236-.708,1.562,1.562,0,0,1,.667-.51,2.441,2.441,0,0,1,.968-.185,1.931,1.931,0,0,1,1.292.409,1.44,1.44,0,0,1,.478,1.15v1.908a2.119,2.119,0,0,0,.175.948v.069H11.717a1.274,1.274,0,0,1-.118-.394,1.43,1.43,0,0,1-1.111.476A1.572,1.572,0,0,1,9.416,17.762Zm.755-1.1,0,.069a.471.471,0,0,0,.154.362.6.6,0,0,0,.424.143,1.013,1.013,0,0,0,.48-.116.774.774,0,0,0,.326-.311v-.757h-.439C10.525,16.053,10.209,16.259,10.171,16.663Z" fill="#333"/>
</svg>
