<svg xmlns="http://www.w3.org/2000/svg" width="37.238" height="47.305" viewBox="0 0 37.238 47.305">
  <path id="Path_3" data-name="Path 3" d="M28.711,41.768A11,11,0,0,1,10.2,31.875a10.92,10.92,0,0,0-.153,1.117v0h0L0,27.631V9.144L9.063,4.2l0-.013.01.005L16.765,0,33.53,9.245V27.631l-2.663,1.421a10.989,10.989,0,0,1-.319,10.341l6.691,5.614L35.31,47.3ZM12.486,33.924A8.523,8.523,0,1,0,21.008,25.4,8.534,8.534,0,0,0,12.486,33.924ZM10.21,31.835l0-.022Zm.016-.081v0Zm-7.832-5.56,8.148,4.348a11.054,11.054,0,0,1,5.024-6.174V18.6L2.395,11.741Zm27.176.834,1.564-.834v-10.1l-.016,0a3.526,3.526,0,0,1-.508.043.665.665,0,0,1-.417-.091.617.617,0,0,0-.4-.105.467.467,0,0,1-.365-.109,1.013,1.013,0,0,1-.121-.5c-.008-.106-.014-.183-.037-.183-.005,0-.011,0-.018.011a.159.159,0,0,1-.105.061c-.114,0-.163-.266-.2-.536l-.012-.077c-.036-.247-.067-.459-.137-.459a.044.044,0,0,0-.02.005.509.509,0,0,1-.236.063c-.44,0-.624-.728-.625-.735L17.962,18.6v4.752a10.994,10.994,0,0,1,11.608,3.675ZM3.827,9.786,16.77,16.523,22.2,13.729,9.1,6.908Zm7.808-4.261,13.174,6.86L27.882,10.8l-.009,0c-.212-.057-.914-.268-1.064-.628-.081-.2.122-.352.3-.49.134-.1.261-.2.255-.3,0-.058-.05-.113-.144-.168a.979.979,0,0,1-.365-1.018l-10.1-5.461Zm4.438,29.028,1.4-1.59,2.766,2.429,4.88-5.132,1.535,1.459-6.281,6.608Z" fill="#333"/>
</svg>
