<svg xmlns="http://www.w3.org/2000/svg" width="50" height="50" viewBox="0 0 50 50">
  <path id="Shape" d="M21.873,49.017c-.393-.276-.749-.529-1.062-.752-2.651-1.886-2.928-2.082-5.557-2.082-.324,0-.679,0-1.088.006h-.005c-.391,0-.831.007-1.317.009H12.83a5.266,5.266,0,0,1-5.046-3.535c-.144-.431-.271-.82-.387-1.173-1.118-3.41-1.118-3.41-4.1-5.456-.322-.221-.688-.472-1.093-.753A5.046,5.046,0,0,1,0,31.15a4.937,4.937,0,0,1,.265-1.588c.155-.451.3-.858.422-1.217,1.168-3.34,1.168-3.34-.007-6.71-.123-.354-.264-.755-.415-1.2A4.937,4.937,0,0,1,0,18.85a5.049,5.049,0,0,1,2.2-4.131c.4-.28.767-.528,1.087-.749,2.984-2.045,2.984-2.045,4.1-5.457.116-.354.244-.744.389-1.178A5.265,5.265,0,0,1,12.827,3.8h.015c.514,0,.974.006,1.38.01s.771.007,1.1.007c2.555,0,2.833-.2,5.489-2.085.313-.222.669-.474,1.061-.751a5.477,5.477,0,0,1,6.256,0c.4.278.752.531,1.066.755,2.65,1.885,2.927,2.082,5.569,2.082.323,0,.676,0,1.084-.006.389,0,.827-.007,1.311-.009h.014a5.276,5.276,0,0,1,5.05,3.535c.15.449.283.854.4,1.212,1.105,3.374,1.105,3.374,4.11,5.432.318.218.677.464,1.07.736A5.036,5.036,0,0,1,50,18.846a4.858,4.858,0,0,1-.265,1.591q-.234.682-.424,1.223C48.147,25,48.147,25,49.325,28.377c.122.35.26.747.41,1.185A4.852,4.852,0,0,1,50,31.152a5.057,5.057,0,0,1-2.2,4.132c-.391.271-.748.515-1.063.731-3.011,2.06-3.011,2.06-4.116,5.43-.119.361-.253.77-.4,1.22a5.277,5.277,0,0,1-5.05,3.535h-.014c-.484,0-.924-.005-1.311-.009-.409,0-.762-.006-1.086-.006-2.641,0-2.916.2-5.554,2.072l0,0c-.316.225-.675.48-1.073.76a5.47,5.47,0,0,1-6.257,0ZM7.292,25A17.708,17.708,0,1,0,25,7.292,17.729,17.729,0,0,0,7.292,25Zm7.292.669,3.227-3.226L22.4,26.794l9.794-10.04,3.227,3.225L22.4,33.246Z" fill="#f95813"/>
</svg>
