<?xml version="1.0" encoding="UTF-8"?>
<svg width="35px" height="46px" viewBox="0 0 35 46" version="1.1" xmlns="http://www.w3.org/2000/svg" xmlns:xlink="http://www.w3.org/1999/xlink">
    <title>A nswer</title>
    <g id="쇼핑활동" stroke="none" stroke-width="1" fill="none" fill-rule="evenodd">
        <g id="상품Q&amp;A---목록" transform="translate(-811.000000, -1056.000000)" fill="#333333" fill-rule="nonzero">
            <g id="A-nswer" transform="translate(811.000000, 1056.000000)">
                <path d="M20.65,0 L33.3,33.35 L22.8,33.35 L21.7,30.35 L11.6,30.35 L10.5,33.35 L0,33.35 L12.65,0 L20.65,0 Z M17.6,4 L15.7,4 L6.05,29.35 L7.45,29.35 L8.4,26.85 L24.9,26.85 L25.85,29.35 L27.25,29.35 L17.6,4 Z M16.65,5.2 L24.45,25.65 L8.85,25.65 L16.65,5.2 Z M16.65,17.15 L14.4,23 L18.9,23 L16.65,17.15 Z" id="Shape"></path>
                <polygon id="Path" points="1.385 38.013 3.31 38.013 5.334 40.84 5.334 38.013 7.633 38.013 7.633 45.35 5.697 45.35 3.684 42.534 3.684 45.35 1.385 45.35"></polygon>
                <path d="M8.205,43.073 C8.36633333,43.1243333 8.535,43.1646667 8.711,43.194 C8.85766667,43.2306667 9.0245,43.26 9.2115,43.282 C9.3985,43.304 9.58733333,43.315 9.778,43.315 C10.1153333,43.315 10.284,43.1903333 10.284,42.941 C10.284,42.8456667 10.2326667,42.7485 10.13,42.6495 C10.0273333,42.5505 9.89716667,42.4405 9.7395,42.3195 C9.58183333,42.1985 9.41316667,42.0646667 9.2335,41.918 C9.05383333,41.7713333 8.88516667,41.6026667 8.7275,41.412 C8.56983333,41.2213333 8.43966667,41.0068333 8.337,40.7685 C8.23433333,40.5301667 8.183,40.257 8.183,39.949 C8.183,39.6043333 8.24533333,39.3 8.37,39.036 C8.49466667,38.772 8.667,38.552 8.887,38.376 C9.107,38.2 9.3655,38.0661667 9.6625,37.9745 C9.9595,37.8828333 10.2766667,37.837 10.614,37.837 C10.79,37.837 10.966,37.8461667 11.142,37.8645 C11.318,37.8828333 11.4756667,37.8993333 11.615,37.914 C11.7763333,37.936 11.934,37.958 12.088,37.98 L12.088,40.037 C12.0293333,40.0296667 11.9633333,40.0223333 11.89,40.015 C11.8313333,40.0076667 11.7653333,40.0003333 11.692,39.993 C11.6186667,39.9856667 11.5416667,39.982 11.461,39.982 C11.417,39.982 11.362,39.9838333 11.296,39.9875 C11.23,39.9911667 11.1676667,40.0003333 11.109,40.015 C11.0503333,40.0296667 10.999,40.0553333 10.955,40.092 C10.911,40.1286667 10.889,40.18 10.889,40.246 C10.889,40.3046667 10.9385,40.378 11.0375,40.466 C11.1365,40.554 11.2575,40.6566667 11.4005,40.774 C11.5435,40.8913333 11.7011667,41.027 11.8735,41.181 C12.0458333,41.335 12.2035,41.511 12.3465,41.709 C12.4895,41.907 12.6105,42.1306667 12.7095,42.38 C12.8085,42.6293333 12.858,42.908 12.858,43.216 C12.858,43.5386667 12.8066667,43.8411667 12.704,44.1235 C12.6013333,44.4058333 12.4418333,44.6515 12.2255,44.8605 C12.0091667,45.0695 11.7323333,45.2345 11.395,45.3555 C11.0576667,45.4765 10.658,45.537 10.196,45.537 C9.91733333,45.537 9.65883333,45.5241667 9.4205,45.4985 C9.18216667,45.4728333 8.97133333,45.4416667 8.788,45.405 C8.57533333,45.3683333 8.381,45.3243333 8.205,45.273 L8.205,43.073 Z" id="Path"></path>
                <polygon id="Path" points="12.748 38.013 15.234 38.013 16.081 40.576 16.928 38.013 18.534 38.013 19.381 40.576 20.228 38.013 22.714 38.013 20.294 45.35 18.468 45.35 17.731 43.128 16.994 45.35 15.168 45.35"></polygon>
                <polygon id="Path" points="22.879 38.013 27.202 38.013 27.202 39.938 25.222 39.938 25.222 40.752 27.169 40.752 27.169 42.578 25.222 42.578 25.222 43.425 27.279 43.425 27.279 45.35 22.879 45.35"></polygon>
                <path d="M27.939,38.013 L30.469,38.013 C30.9383333,38.013 31.3728333,38.0753333 31.7725,38.2 C32.1721667,38.3246667 32.5186667,38.508 32.812,38.75 C33.1053333,38.992 33.3345,39.2908333 33.4995,39.6465 C33.6645,40.0021667 33.747,40.411 33.747,40.873 C33.747,41.2396667 33.6956667,41.5513333 33.593,41.808 C33.4903333,42.0646667 33.3766667,42.2773333 33.252,42.446 C33.1053333,42.6366667 32.9403333,42.798 32.757,42.93 L34.132,45.35 L31.382,45.35 L30.282,43.491 L30.282,45.35 L27.939,45.35 L27.939,38.013 Z M30.282,41.621 L30.403,41.621 C30.6816667,41.621 30.9181667,41.5586667 31.1125,41.434 C31.3068333,41.3093333 31.404,41.1003333 31.404,40.807 C31.404,40.5136667 31.3068333,40.3046667 31.1125,40.18 C30.9181667,40.0553333 30.6816667,39.993 30.403,39.993 L30.282,39.993 L30.282,41.621 Z" id="Shape"></path>
            </g>
        </g>
    </g>
</svg>