<svg xmlns="http://www.w3.org/2000/svg" width="36" height="36" viewBox="0 0 36 36">
  <path id="Oval_Copy_9" data-name="Oval Copy 9" d="M18,36A18,18,0,0,1,5.272,5.272,18,18,0,0,1,30.728,30.728,17.882,17.882,0,0,1,18,36ZM9.572,20.334l.011,3.333a6.61,6.61,0,0,0,13.221,0l-.01-3.334H20l.009,3.331a3.817,3.817,0,1,1-7.634,0l-.011-3.333Zm5.323.153v3.341a1,1,0,0,0,1,1h.483a1,1,0,0,0,1-1V20.487ZM20.7,9a3.818,3.818,0,0,1,2.7,6.514l-2.351,2.379,1.975,1.974,2.351-2.377a6.611,6.611,0,0,0-9.349-9.349l-2.351,2.38L15.649,12.5,18,10.118A3.79,3.79,0,0,1,20.7,9Zm-.125,2.631a.994.994,0,0,0-.707.293L17.5,14.288l1.755,1.755,2.363-2.362a1,1,0,0,0,0-1.415l-.342-.341A.993.993,0,0,0,20.574,11.632Z" fill="#fff"/>
</svg>
