<svg xmlns="http://www.w3.org/2000/svg" width="57.778" height="40" viewBox="0 0 57.778 40">
  <path id="Shape" d="M4.444,40A4.449,4.449,0,0,1,0,35.555V4.444A4.449,4.449,0,0,1,4.444,0H53.333a4.45,4.45,0,0,1,4.445,4.444V35.555A4.45,4.45,0,0,1,53.333,40Zm0-34.444V34.445a1.113,1.113,0,0,0,1.112,1.111H52.222a1.112,1.112,0,0,0,1.111-1.111V16.667H4.444V10H53.333V5.556a1.113,1.113,0,0,0-1.111-1.112H5.556A1.113,1.113,0,0,0,4.444,5.556ZM21.533,31.61V30.184l.286.006a1.554,1.554,0,0,0,.8-.162,1.073,1.073,0,0,0,.413-.541l.221-.58-2.467-7.063h2.024l1.309,4.381,1.3-4.381h2.019l-2.832,8.138-.157.371a2.146,2.146,0,0,1-2.083,1.381A2.945,2.945,0,0,1,21.533,31.61ZM9.27,31.6H7.389V21.845H9.134l.065.689a2.221,2.221,0,0,1,1.784-.82,2.4,2.4,0,0,1,2.025.964,4.356,4.356,0,0,1,.723,2.656v.1a4.246,4.246,0,0,1-.739,2.608,2.382,2.382,0,0,1-2,.979,2.2,2.2,0,0,1-1.725-.742V31.6h0Zm0-7.676v2.885a1.258,1.258,0,0,0,1.23.7c.894,0,1.347-.743,1.347-2.207a2.786,2.786,0,0,0-.348-1.517,1.141,1.141,0,0,0-1.012-.534A1.237,1.237,0,0,0,9.271,23.921Zm5.8,4.5a1.933,1.933,0,0,1-.68-1.51,2,2,0,0,1,.83-1.719,4.114,4.114,0,0,1,2.4-.606h.866v-.4a1.165,1.165,0,0,0-.25-.781.991.991,0,0,0-.791-.293,1.13,1.13,0,0,0-.746.228.779.779,0,0,0-.27.625H14.542a1.9,1.9,0,0,1,.377-1.133,2.51,2.51,0,0,1,1.068-.817,3.918,3.918,0,0,1,1.549-.3,3.091,3.091,0,0,1,2.067.654,2.3,2.3,0,0,1,.765,1.84v3.053a3.388,3.388,0,0,0,.28,1.517v.111h-1.9a2.08,2.08,0,0,1-.189-.632,2.288,2.288,0,0,1-1.778.761A2.515,2.515,0,0,1,15.066,28.42Zm1.208-1.758-.006.111a.753.753,0,0,0,.247.579.967.967,0,0,0,.678.229,1.624,1.624,0,0,0,.768-.186,1.214,1.214,0,0,0,.521-.5V25.686h-.7C16.84,25.686,16.334,26.015,16.274,26.663Z" fill="#333"/>
</svg>
