<svg xmlns="http://www.w3.org/2000/svg" width="41.999" height="42" viewBox="0 0 41.999 42">
  <path id="Rectangle_2" data-name="Rectangle 2" d="M4,42V38H38v4Zm1.132-7-1.676-.661A5.024,5.024,0,0,1,.654,31.546L0,29.923V12.1l.653-1.664A5.017,5.017,0,0,1,3.493,7.607L5.048,7H36.911l1.7.7a5.023,5.023,0,0,1,2.773,2.852L42,12.178V29.947L41.3,31.666a5.015,5.015,0,0,1-2.846,2.771L36.969,35Zm.238-23.711A1.988,1.988,0,0,0,4.31,12.347L4,13.064v15.9l.232.611a2.006,2.006,0,0,0,1.118,1.143L6.043,31H35.9l.739-.3a2.008,2.008,0,0,0,1.1-1.086L38,28.992V13.07l-.275-.689a2.017,2.017,0,0,0-1.081-1.1L35.99,11H6.059ZM4,4V0H38V4Z" transform="translate(-0.005)" fill="#333"/>
</svg>
