<svg id="Group_38" data-name="Group 38" xmlns="http://www.w3.org/2000/svg" width="67.55" height="36.6" viewBox="0 0 67.55 36.6">
  <path id="Rectangle_Copy_61" data-name="Rectangle Copy 61" d="M12,0h2L2,23H0Z" transform="translate(27 6)" fill="#333"/>
  <path id="Path_3_Copy_2" data-name="Path 3 Copy 2" d="M10.5,23.528c-.189-.133-.358-.253-.51-.362-1.272-.9-1.4-1-2.667-1l-.525,0H6.791l-.626,0H6.158a2.528,2.528,0,0,1-2.422-1.7c-.069-.207-.131-.394-.185-.563A3.43,3.43,0,0,0,1.582,17.3c-.158-.108-.331-.227-.526-.362A2.423,2.423,0,0,1,0,14.952a2.371,2.371,0,0,1,.127-.761c.074-.216.141-.409.2-.583.561-1.6.561-1.6,0-3.221-.059-.173-.126-.363-.2-.576A2.376,2.376,0,0,1,0,9.048,2.422,2.422,0,0,1,1.057,7.065l.521-.358A3.437,3.437,0,0,0,3.549,4.086c.056-.172.117-.358.186-.565a2.534,2.534,0,0,1,2.429-1.7l.662,0c.2,0,.37,0,.527,0,1.228,0,1.361-.095,2.636-1L10.5.471a2.631,2.631,0,0,1,3,0c.19.133.358.254.511.362,1.272.905,1.4,1,2.674,1l.526,0,.63,0a2.533,2.533,0,0,1,2.425,1.7c.072.216.136.409.193.584.53,1.618.53,1.618,1.974,2.606l.512.353A2.419,2.419,0,0,1,24,9.046a2.335,2.335,0,0,1-.127.764c-.075.218-.142.411-.2.587-.559,1.6-.559,1.6.007,3.226l0,.006c.059.168.123.355.194.562a2.328,2.328,0,0,1,.127.762,2.429,2.429,0,0,1-1.054,1.984l-.51.35c-1.445.989-1.445.989-1.976,2.605-.058.176-.121.37-.193.587a2.538,2.538,0,0,1-2.431,1.7l-.63,0-.525,0c-1.264,0-1.4.094-2.664.995-.156.111-.325.231-.516.365a2.623,2.623,0,0,1-3,0Zm-.009-3.154.384.272a1.971,1.971,0,0,0,2.252,0l.386-.274c.95-.676,1.05-.747,2-.747l.39,0h0l.469,0A1.9,1.9,0,0,0,18.2,18.359c.054-.161.1-.306.144-.437a2.57,2.57,0,0,1,1.482-1.957l.383-.263A1.818,1.818,0,0,0,21,14.215a1.751,1.751,0,0,0-.094-.572c-.054-.158-.1-.3-.148-.426a2.469,2.469,0,0,1,0-2.42c.046-.13.1-.276.152-.439A1.743,1.743,0,0,0,21,9.785,1.812,1.812,0,0,0,20.209,8.3l-.384-.265a2.569,2.569,0,0,1-1.48-1.955c-.044-.133-.091-.277-.145-.438a1.9,1.9,0,0,0-1.818-1.273l-.472,0-.4,0c-.95,0-1.049-.07-2-.748-.115-.083-.242-.173-.384-.273a1.969,1.969,0,0,0-2.252,0l-.382.271c-.956.679-1.056.75-1.974.75l-.4,0-.5,0A1.9,1.9,0,0,0,5.8,5.64c-.052.157-.1.3-.14.425A2.575,2.575,0,0,1,4.183,8.03L3.793,8.3A1.816,1.816,0,0,0,3,9.786a1.783,1.783,0,0,0,.1.572c.055.159.1.3.149.431a2.463,2.463,0,0,1,0,2.415c-.046.131-.1.276-.152.439a1.791,1.791,0,0,0-.1.571A1.816,1.816,0,0,0,3.793,15.7l.393.271a2.573,2.573,0,0,1,1.477,1.963c.041.127.087.267.139.423a1.894,1.894,0,0,0,1.816,1.273l.469,0h.005l.391,0C9.437,19.625,9.537,19.7,10.49,20.374ZM6.364,12.362l1.745-1.744,2.482,2.354,5.3-5.433,1.745,1.745-7.045,7.178Z" fill="#333"/>
  <path id="Path_5_Copy" data-name="Path 5 Copy" d="M0,12.048A12.047,12.047,0,1,1,12.045,24.1,12.06,12.06,0,0,1,0,12.048Zm3.011,0a9.035,9.035,0,1,0,9.034-9.036A9.046,9.046,0,0,0,3.011,12.048Zm9.23,1.614L9.4,16.5l-1.42-1.42,2.84-2.84L7.98,9.4,9.4,7.982l2.84,2.839,2.84-2.839L16.5,9.4l-2.84,2.84,2.84,2.84L15.08,16.5Z" transform="translate(43.457 12.501)" fill="#333"/>
</svg>
