<?xml version="1.0" encoding="UTF-8"?>
<svg width="94px" height="87px" viewBox="0 0 94 87" version="1.1" xmlns="http://www.w3.org/2000/svg" xmlns:xlink="http://www.w3.org/1999/xlink">
    <title>✔︎</title>
    <g id="Page-1" stroke="none" stroke-width="1" fill="none" fill-rule="evenodd">
        <g id="web-assets" transform="translate(-944.000000, -469.000000)" fill="#FF3C3C" fill-rule="nonzero">
            <g id="✔︎" transform="translate(944.218750, 469.507812)">
                <path d="M93.2226562,8.3203125 C93.2226562,12.890625 91.1523438,17.34375 87.0117188,21.6796875 L86.3671875,22.3242188 L50.15625,60.46875 C42.4609375,68.5546875 35.9082031,74.8046875 30.4980469,79.21875 C25.0878906,83.6328125 21.2695312,85.8398438 19.0429688,85.8398438 C16.6992188,85.8398438 13.7890625,84.7363281 10.3125,82.5292969 C6.8359375,80.3222656 4.58984375,78.046875 3.57421875,75.703125 C2.71484375,73.75 1.90429687,69.609375 1.14257812,63.28125 C0.380859375,56.953125 0,50.0976562 0,42.7148438 C0,38.6914062 1.6796875,34.9707031 5.0390625,31.5527344 C8.3984375,28.1347656 12.109375,26.4257812 16.171875,26.4257812 C20.0390625,26.4257812 22.34375,29.9609375 23.0859375,37.03125 C23.1640625,37.8515625 23.2226562,38.4570312 23.2617188,38.8476562 C23.8867187,44.2773438 24.609375,48.0664062 25.4296875,50.2148437 C26.25,52.3632812 27.3632812,53.4375 28.7695312,53.4375 C29.3554687,53.4375 30.4492188,52.8027344 32.0507812,51.5332031 C33.6523438,50.2636719 35.5664062,48.5351563 37.7929688,46.3476562 L75,9.4921875 C78.125,6.3671875 80.9179688,4.00390625 83.3789062,2.40234375 C85.8398438,0.80078125 87.9296875,0 89.6484375,0 C90.9375,0 91.8554688,0.48828125 92.4023438,1.46484375 C92.9492188,2.44140625 93.2226562,4.08203125 93.2226562,6.38671875 L93.2226562,8.3203125 Z" id="Path"></path>
            </g>
        </g>
    </g>
</svg>