<svg xmlns="http://www.w3.org/2000/svg" width="25.553" height="24" viewBox="0 0 25.553 24">
  <path id="Oval_4" data-name="Oval 4" d="M24.3,24a3.374,3.374,0,0,1-1.792-.712C21,21.067,17.02,15.9,12.776,15.9c-3.116,0-6.647,2.626-9.689,7.2a3.82,3.82,0,0,1-1.98.843A1.9,1.9,0,0,1,0,23.558l0-.006c2.8-3.776,7.493-10.1,12.773-10.1s9.972,6.324,12.776,10.1A2.194,2.194,0,0,1,24.3,24ZM13.08,12.232A6.116,6.116,0,1,1,19.2,6.116,6.123,6.123,0,0,1,13.08,12.232Zm0-9.786a3.669,3.669,0,1,0,3.669,3.669A3.674,3.674,0,0,0,13.08,2.446Z" transform="translate(0 0)" fill="#fff"/>
</svg>
