<?xml version="1.0" encoding="UTF-8"?>
<svg width="179px" height="219px" viewBox="0 0 179 219" version="1.1" xmlns="http://www.w3.org/2000/svg" xmlns:xlink="http://www.w3.org/1999/xlink">
    <title>Group 5</title>
    <defs>
        <linearGradient x1="50%" y1="14.9929982%" x2="50%" y2="86.0056751%" id="linearGradient-1">
            <stop stop-color="#FFFFFF" stop-opacity="0.01171875" offset="0%"></stop>
            <stop stop-color="#FFFFFF" offset="100%"></stop>
        </linearGradient>
    </defs>
    <g id="Page-1" stroke="none" stroke-width="1" fill="none" fill-rule="evenodd">
        <g id="Artboard" transform="translate(-951.000000, -342.000000)">
            <g id="Group-5" transform="translate(951.000000, 342.751918)">
                <g id="Group-4" transform="translate(0.000000, -0.000000)">
                    <g id="4" transform="translate(11.008789, 2.607457)" fill="#000000" fill-rule="nonzero" opacity="0.100000001">
                        <path d="M124.882812,120.40332 L144.972656,120.40332 L144.972656,155.696289 L124.882812,155.696289 L124.882812,197.640625 L79.1376953,197.640625 L79.1376953,155.696289 L2.71484375,155.696289 L0,127.733398 L79.1376953,0.407226562 L79.1376953,0 L124.882812,0 L124.882812,120.40332 Z M43.5732422,120.40332 L79.1376953,120.40332 L79.1376953,59.5908203 L76.2871094,64.2060547 L43.5732422,120.40332 Z" id="Shape"></path>
                    </g>
                    <!-- <rect id="Rectangle" fill="url(#linearGradient-1)" x="0" y="44.2480824" width="179" height="174"></rect> -->
                    <path d="M110.980661,57.5593625 L107.207134,57.5593625 L107.207134,67.8228454 L104.176224,67.8228454 L104.176224,57.5593625 L100.471778,57.5593625 L100.471778,55.2121863 L110.980661,55.2121863 L110.980661,57.5593625 Z M-18.3581762,62.8011141 L-22.9758106,62.8011141 L-22.9758106,65.8065391 L-17.5216483,65.8065391 L-17.5216483,68.1450541 L-25.9120238,68.1450541 L-25.9120238,55.534395 L-17.5049177,55.534395 L-17.5049177,57.8815713 L-22.9758106,57.8815713 L-22.9758106,60.5405495 L-18.3581762,60.5405495 L-18.3581762,62.8011141 Z M-15.5428777,62.9155117 L-15.5428777,59.7628469 L-12.390213,59.7628469 L-12.390213,62.9155117 L-15.5428777,62.9155117 Z M-4.86867306,63.4720434 L-6.39935358,63.4720434 L-6.39935358,67.9238833 L-9.22708443,67.9238833 L-9.22708443,55.3132241 L-4.61087423,55.3132241 C-3.21983474,55.3132241 -2.13224595,55.6452355 -1.34810786,56.3092583 C-0.563969771,56.9732811 -0.171900726,57.9115742 -0.171900726,59.1241376 C-0.171900726,60.0018025 -0.337053098,60.7293406 -0.667357841,61.3067517 C-0.997662585,61.8841628 -1.51460294,62.3518658 -2.21817889,62.7098607 L0.230909937,67.7939658 L0.230909937,67.9238833 L-2.79822625,67.9238833 L-4.86867306,63.4720434 Z M-6.39935358,61.1248672 L-4.61087423,61.1248672 C-4.07379335,61.1248672 -3.66963998,60.9732968 -3.39841414,60.6701559 C-3.12718829,60.3670151 -2.99157537,59.9440614 -2.99157537,59.4012949 C-2.99157537,58.8585285 -3.12853099,58.4326878 -3.40244224,58.1237728 C-3.67635349,57.8148579 -4.07916416,57.6604004 -4.61087423,57.6604004 L-6.39935358,57.6604004 L-6.39935358,61.1248672 Z M10.948857,62.3179746 C10.948857,63.5149757 10.7316405,64.5742935 10.2972073,65.4959282 C9.86277419,66.4175628 9.24549419,67.1270529 8.44536734,67.6243984 C7.64524048,68.1217439 6.73375576,68.3704166 5.71091318,68.3704166 C4.6880706,68.3704166 3.78071025,68.1301735 2.98883212,67.6496871 C2.196954,67.1692008 1.579674,66.4821896 1.13699213,65.5886536 C0.694310264,64.6951176 0.461971022,63.6695181 0.439974407,62.5118551 L0.439974407,61.8206291 C0.439974407,60.6180083 0.655816188,59.5572855 1.08749975,58.6384608 C1.51918331,57.719636 2.1378381,57.0101459 2.94346411,56.5099906 C3.74909012,56.0098352 4.66607399,55.7597575 5.69441572,55.7597575 C6.71175915,55.7597575 7.6191195,56.0070253 8.41649678,56.501561 C9.21387406,56.9960966 9.83390363,57.699967 10.2765855,58.613172 C10.7192674,59.5263771 10.9433579,60.5730505 10.948857,61.7531924 L10.948857,62.3179746 Z M8.00406026,61.8037699 C8.00406026,60.58429 7.80471594,59.6584406 7.4060273,59.0262217 C7.00733866,58.3940028 6.43680146,58.0778934 5.69441572,58.0778934 C4.24263916,58.0778934 3.47550722,59.1905986 3.39301992,61.416009 L3.38477119,62.3179746 C3.38477119,63.5205954 3.57999114,64.4450399 3.97043105,65.0913081 C4.36087096,65.7375763 4.94103167,66.0607104 5.71091318,66.0607104 C6.44230062,66.0607104 7.00596387,65.743196 7.40190293,65.1081673 C7.79784199,64.4731385 7.9985611,63.5599335 8.00406026,62.3685521 L8.00406026,61.8037699 Z M22.3983235,55.092519 L22.3983235,63.2347671 C22.3983235,64.1574982 22.2086688,64.9563442 21.8293595,65.6313049 C21.4500503,66.3062657 20.9058239,66.8203181 20.1966805,67.1734621 C19.487537,67.5266061 18.6492086,67.7031781 17.6816951,67.7031781 C16.2194303,67.7031781 15.0677594,67.310163 14.2266823,66.5241328 C13.3856052,65.7381025 12.9568208,64.6615828 12.9403291,63.2945737 L12.9403291,55.092519 L15.8511155,55.092519 L15.8511155,63.3543804 C15.8840989,64.7156936 16.4942921,65.3963503 17.6816951,65.3963503 C18.2808938,65.3963503 18.7344157,65.2254741 19.0422609,64.8837218 C19.3501061,64.5419695 19.5040288,63.9866221 19.5040288,63.2176795 L19.5040288,55.092519 L22.3983235,55.092519 Z M27.6551364,55.7620862 L30.4795657,64.5358483 L33.2953045,55.7620862 L37.3103394,55.7620862 L37.3103394,68.3727453 L34.2512652,68.3727453 L34.2512652,65.4279485 L34.546744,59.3997763 L31.4876697,68.3727453 L29.4714617,68.3727453 L26.4036969,59.3911151 L26.6991757,65.4279485 L26.6991757,68.3727453 L23.648792,68.3727453 L23.648792,55.7620862 L27.6551364,55.7620862 Z M46.9263705,54.8727453 L49.7507998,63.6465075 L52.5665386,54.8727453 L56.5815735,54.8727453 L56.5815735,67.4834045 L53.5224993,67.4834045 L53.5224993,64.5386077 L53.817978,58.5104355 L50.7589038,67.4834045 L48.7426958,67.4834045 L45.674931,58.5017743 L45.9704098,64.5386077 L45.9704098,67.4834045 L42.9200261,67.4834045 L42.9200261,54.8727453 L46.9263705,54.8727453 Z M65.4228459,65.2402483 L61.4569045,65.2402483 L60.7643077,67.5960857 L57.6723576,67.5960857 L62.0752946,54.9854266 L64.7962107,54.9854266 L69.2321285,67.5960857 L66.1236879,67.5960857 L65.4228459,65.2402483 Z M62.1495014,62.893072 L64.7302491,62.893072 L63.4357526,58.5191827 L62.1495014,62.893072 Z M74.4438069,63.4794952 L72.9131264,63.4794952 L72.9131264,67.9313351 L70.0853956,67.9313351 L70.0853956,55.3206759 L74.7016058,55.3206759 C76.0926453,55.3206759 77.180234,55.6526873 77.9643721,56.3167101 C78.7485102,56.9807329 79.1405793,57.919026 79.1405793,59.1315894 C79.1405793,60.0092543 78.9754269,60.7367923 78.6451222,61.3142035 C78.3148174,61.8916146 77.7978771,62.3593176 77.0943011,62.7173125 L79.5433899,67.8014176 L79.5433899,67.9313351 L76.5142538,67.9313351 L74.4438069,63.4794952 Z M72.9131264,61.132319 L74.7016058,61.132319 C75.2386867,61.132319 75.64284,60.9807485 75.9140659,60.6776077 C76.1852917,60.3744669 76.3209046,59.9515132 76.3209046,59.4087467 C76.3209046,58.8659803 76.183949,58.4401396 75.9100378,58.1312246 C75.6361265,57.8223096 75.2333158,57.6678522 74.7016058,57.6678522 L72.9131264,57.6678522 L72.9131264,61.132319 Z M84.904016,63.12663 L83.6646392,64.4950944 L83.6646392,67.8209825 L80.6436582,67.8209825 L80.6436582,55.2103233 L83.6646392,55.2103233 L83.6646392,60.7707926 L84.7146668,59.1684767 L87.4171968,55.2103233 L91.1525408,55.2103233 L86.9180034,60.7881149 L91.1525408,67.8209825 L87.5721189,67.8209825 L84.904016,63.12663 Z M99.162454,62.4779739 L94.5448196,62.4779739 L94.5448196,65.4833989 L99.998982,65.4833989 L99.998982,67.821914 L91.6086065,67.821914 L91.6086065,55.2112548 L100.015713,55.2112548 L100.015713,57.5584311 L94.5448196,57.5584311 L94.5448196,60.2174093 L99.162454,60.2174093 L99.162454,62.4779739 Z" id="Path-7" fill="#333333" fill-rule="nonzero" opacity="0.100000001" transform="translate(42.534319, 61.622745) rotate(-58.000000) translate(-42.534319, -61.622745) "></path>
                </g>
            </g>
        </g>
    </g>
</svg>