<svg xmlns="http://www.w3.org/2000/svg" width="70.525" height="49.999" viewBox="0 0 70.525 49.999">
  <g id="Group" transform="translate(-0.041 0)">
    <path id="Path_2" data-name="Path 2" d="M0,1.721s26.781-3.442,50.237,0L48,2.325S24.757,5.113,2.41,2.027L.549,1.8Z" transform="translate(11.036 5.182)" fill="#607a92"/>
    <path id="Path_44" data-name="Path 44" d="M34.606,49.933v0A13.677,13.677,0,0,0,41.455,46.8a19.292,19.292,0,0,0,2.932-2.983,19.1,19.1,0,0,1-3.231,3.225A13.1,13.1,0,0,1,34.606,49.933ZM67.378,18.194c-.491-3.038-1.025-6.126-1.465-8.471-8.025,2.917-19.691,4.59-32.006,4.59-13.3,0-25.965-1.991-33.888-5.326C.568,6.482.991,4.693,1,4.675,1,3.386,4.745,2.187,11.554,1.3A188.236,188.236,0,0,1,34.493,0,148.026,148.026,0,0,1,53.663,1.075C59.6,1.882,63.3,3.069,64.67,4.6a.182.182,0,0,1,.063.02c.337.268,1.334,5.8,1.9,9.078.249,1.445.508,3,.749,4.493ZM35.344,5.373A236.413,236.413,0,0,0,8.556,6.9l.549.079,1.862.227A170.567,170.567,0,0,0,34.1,8.662a211.474,211.474,0,0,0,22.46-1.157l2.237-.6A163.308,163.308,0,0,0,35.344,5.373Z" transform="translate(2.479)" fill="#445a6e"/>
    <path id="Path_44-2" data-name="Path 44" d="M35.914,41.021c-5.01,0-6.272-1.467-10.968-6.926-1.439-1.673-3.23-3.754-5.548-6.274A38.259,38.259,0,0,0,2.833,16.83c-1.4-.5-2.322-.834-2.628-1.291C-.52,14.452,1.331,5.342,2.5.008c7.922,3.335,20.591,5.326,33.888,5.326,12.3,0,23.947-1.668,31.969-4.576.982,5.128,2.209,12.756,2.209,13.217,0,.027,0,.054,0,.079.013.636.018.85-8.387,4.3-4.518,1.858-8.4,6.182-10.855,9.483a52.413,52.413,0,0,0-4.3,6.786,18.654,18.654,0,0,1-3.093,3.2A13.025,13.025,0,0,1,35.914,41.021Z" transform="translate(0 8.979)" fill="#607a92"/>
  </g>
</svg>
