<?xml version="1.0" encoding="UTF-8"?>
<svg width="179px" height="219px" viewBox="0 0 179 219" version="1.1" xmlns="http://www.w3.org/2000/svg" xmlns:xlink="http://www.w3.org/1999/xlink">
    <title>Group</title>
    <defs>
        <linearGradient x1="50%" y1="14.9929982%" x2="50%" y2="86.0056751%" id="linearGradient-1">
            <stop stop-color="#FFFFFF" stop-opacity="0.01171875" offset="0%"></stop>
            <stop stop-color="#FFFFFF" offset="100%"></stop>
        </linearGradient>
    </defs>
    <g id="Page-1" stroke="none" stroke-width="1" fill="none" fill-rule="evenodd">
        <g id="Artboard" transform="translate(-417.000000, -342.000000)">
            <g id="Group" transform="translate(417.000000, 342.672363)">
                <g id="2" transform="translate(17.922363, 0.000000)" fill="#E5E5E5" fill-rule="nonzero">
                    <path d="M140.454102,198.327637 L4.02832031,198.327637 L4.02832031,168.786621 L66.8701172,102.722168 C82.3567708,85.0870768 90.1000977,71.077474 90.1000977,60.6933594 C90.1000977,52.2786458 88.264974,45.8780924 84.5947266,41.4916992 C80.9244792,37.105306 75.5981445,34.9121094 68.6157227,34.9121094 C61.722819,34.9121094 56.1279297,37.8438314 51.8310547,43.7072754 C47.5341797,49.5707194 45.3857422,56.8888346 45.3857422,65.6616211 L0,65.6616211 C0,53.6661784 2.99886068,42.5882975 8.99658203,32.4279785 C14.9943034,22.2676595 23.3194987,14.3229167 33.972168,8.59375 C44.6248372,2.86458333 56.5307617,0 69.6899414,0 C90.8162435,0 107.086182,4.87874349 118.499756,14.6362305 C129.91333,24.3937174 135.620117,38.4033203 135.620117,56.6650391 C135.620117,64.3636068 134.187826,71.8607585 131.323242,79.1564941 C128.458659,86.4522298 124.005127,94.1060384 117.962646,102.11792 C111.920166,110.129801 102.185059,120.849609 88.7573242,134.277344 L63.5131836,163.415527 L140.454102,163.415527 L140.454102,198.327637 Z" id="Path"></path>
                </g>
                <!-- <rect id="Rectangle-Copy" fill="url(#linearGradient-1)" x="0" y="44.3276367" width="179" height="174"></rect> -->
                <path d="M10.376,151.680937 L11.826,153.399937 L7.677,156.900937 L9.321,158.847937 L12.823,155.893937 L14.214,157.542937 L10.712,160.497937 L12.576,162.705937 L16.712,159.215937 L18.157,160.927937 L11.794,166.297937 L4,157.060937 L10.376,151.680937 Z M23.4935,144.906837 C24.0545,145.532837 24.3925,146.164837 24.5085,146.803837 C24.6235,147.441837 24.5265,148.130837 24.2155,148.870837 L29.3525,150.818837 L29.4355,150.911837 L27.1115,152.995837 L22.6685,151.236837 L21.4955,152.289837 L24.3495,155.472837 L22.1795,157.417837 L14.1105,148.419837 L17.6525,145.243837 C18.7195,144.287837 19.7655,143.775837 20.7915,143.709837 C21.8175,143.642837 22.7185,144.042837 23.4935,144.906837 Z M19.1485,146.912837 L17.7765,148.142837 L19.9985,150.620837 L21.3705,149.390837 C21.7825,149.020837 21.9955,148.634837 22.0095,148.231837 C22.0225,147.828837 21.8555,147.432837 21.5075,147.043837 C21.1595,146.655837 20.7805,146.445837 20.3725,146.412837 C19.9645,146.379837 19.5565,146.546837 19.1485,146.912837 Z M30.9141,136.611537 C31.8541,136.963537 32.7241,137.561537 33.5211,138.406537 L33.9021,138.812537 C34.7071,139.673537 35.2601,140.584537 35.5611,141.545537 C35.8621,142.506537 35.8861,143.441537 35.6331,144.348537 C35.3801,145.256537 34.8771,146.062537 34.1261,146.765537 C33.3741,147.468537 32.5461,147.920537 31.6411,148.119537 C30.7361,148.318537 29.8201,148.249537 28.8931,147.910537 C27.9671,147.572537 27.1061,146.995537 26.3111,146.178537 L25.8461,145.681537 C25.0371,144.816537 24.4811,143.905537 24.1811,142.947537 C23.8791,141.990537 23.8561,141.055537 24.1121,140.141537 C24.3671,139.228537 24.8721,138.417537 25.6281,137.710537 C26.3751,137.010537 27.2081,136.565537 28.1271,136.372537 C29.0461,136.179537 29.9751,136.259537 30.9141,136.611537 Z M27.1881,139.377537 C26.1211,140.375537 26.3071,141.702537 27.7431,143.359537 L28.3441,144.013537 C29.1531,144.878537 29.9191,145.408537 30.6411,145.605537 C31.3621,145.800537 32.0061,145.634537 32.5721,145.105537 C33.1091,144.602537 33.3091,143.986537 33.1731,143.257537 C33.0371,142.528537 32.5701,141.734537 31.7721,140.873537 L31.3921,140.467537 C30.5711,139.591537 29.8021,139.062537 29.0831,138.882537 C28.3651,138.701537 27.7331,138.866537 27.1881,139.377537 Z M37.2148,126.779037 L42.7478,132.433037 C43.3748,133.073037 43.7818,133.761037 43.9668,134.497037 C44.1528,135.233037 44.1108,135.973037 43.8408,136.717037 C43.5708,137.462037 43.0878,138.175037 42.3908,138.856037 C41.3398,139.886037 40.2438,140.424037 39.1048,140.470037 C37.9648,140.517037 36.9248,140.071037 35.9848,139.133037 L30.4108,133.439037 L32.5048,131.389037 L38.1188,137.126037 C39.0678,138.048037 39.9688,138.091037 40.8238,137.255037 C41.2548,136.833037 41.4648,136.395037 41.4538,135.941037 C41.4438,135.487037 41.1768,134.992037 40.6538,134.459037 L35.1328,128.817037 L37.2148,126.779037 Z M47.2908,116.421937 L55.9828,124.819937 L53.9518,126.920937 L51.9228,124.959937 L47.9638,120.742937 L52.1178,128.819937 L50.7798,130.203937 L42.5528,126.329937 L46.9098,130.147937 L48.9398,132.108937 L46.9148,134.203937 L38.2238,125.805937 L40.8828,123.053937 L48.8038,126.956937 L44.6258,119.179937 L47.2908,116.421937 Z M53.8396,109.204437 L55.5026,110.719437 L51.8486,114.733437 L53.7336,116.449437 L56.8176,113.060437 L58.4136,114.513437 L55.3296,117.901437 L57.4656,119.846437 L61.1086,115.844437 L62.7666,117.352437 L57.1616,123.509437 L48.2246,115.374437 L53.8396,109.204437 Z M65.2669,95.6269367 L74.5929,103.313937 L72.7349,105.568937 L70.5569,103.773937 L66.2789,99.8819367 L71.0559,107.605937 L69.8319,109.091937 L61.3259,105.877937 L65.9689,109.339937 L68.1469,111.134937 L66.2949,113.383937 L56.9669,105.696937 L59.4019,102.743937 L67.6059,106.009937 L62.8279,98.5869367 L65.2669,95.6269367 Z M71.4327725,89.420533 L83.3687526,94.2747747 L81.2587228,96.5848715 L79.1156678,95.5833749 L76.422801,98.5310413 L77.6204011,100.568385 L75.5205763,102.867489 L69.5851946,91.4434905 L71.4327725,89.420533 Z M73.0108903,92.7165471 L75.2326344,96.4995061 L76.9847561,94.5811437 L73.0108903,92.7165471 Z M82.1373,80.2612367 C82.8423,80.7182367 83.3343,81.2392367 83.6133,81.8262367 C83.8923,82.4122367 83.9783,83.1022367 83.8713,83.8972367 L89.3393,84.4332367 L89.4443,84.5002367 L87.7463,87.1202367 L82.9993,86.5862367 L82.1423,87.9092367 L85.7303,90.2342367 L84.1453,92.6792367 L74.0023,86.1082367 L76.5883,82.1162367 C77.3673,80.9132367 78.2433,80.1462367 79.2163,79.8132367 C80.1893,79.4812367 81.1623,79.6302367 82.1373,80.2612367 Z M79.5203,82.5322367 C79.1173,82.6072367 78.7673,82.8752367 78.4693,83.3352367 L77.4673,84.8812367 L80.2603,86.6912367 L81.2623,85.1442367 C81.5643,84.6802367 81.6673,84.2512367 81.5753,83.8582367 C81.4833,83.4652367 81.2173,83.1272367 80.7803,82.8442367 C80.3423,82.5602367 79.9223,82.4562367 79.5203,82.5322367 Z M86.0904444,68.3438475 L88.2045106,74.7298105 L96.0742038,75.1547453 L94.1283004,78.0079733 L88.9608902,77.5975837 L89.3706884,79.3238761 L92.0042644,81.1210046 L90.3617196,83.5274949 L80.3780647,76.7156026 L82.0206095,74.3091122 L86.4218728,77.3116176 L85.7248758,75.6104423 L84.0602367,71.3199363 L86.0904444,68.3438475 Z M89.8041,60.1609367 L91.8891,61.0059367 L89.8501,66.0369367 L92.2121,66.9949367 L93.9331,62.7469367 L95.9331,63.5579367 L94.2121,67.8049367 L96.8891,68.8899367 L98.9221,63.8729367 L100.9991,64.7149367 L97.8721,72.4319367 L86.6711,67.8929367 L89.8041,60.1609367 Z M94.0158452,50.050328 L96.1294411,50.818964 L94.8908342,54.2287672 L104.13528,57.5880376 L103.140515,60.3262411 L93.8960689,56.9669706 L92.6785306,60.3130862 L90.5647955,59.5454405 L94.0158452,50.050328 Z" id="Combined-Shape" fill="#EAEAEA"></path>
                <rect id="Rectangle" fill="#EAEAEA" transform="translate(15.976339, 154.734166) rotate(-40.000000) translate(-15.976339, -154.734166) " x="14.4763386" y="153.234166" width="3" height="3"></rect>
            </g>
        </g>
    </g>
</svg>