<?xml version="1.0" encoding="UTF-8"?>
<svg width="105px" height="76px" viewBox="0 0 105 76" version="1.1" xmlns="http://www.w3.org/2000/svg" xmlns:xlink="http://www.w3.org/1999/xlink">
    <title>Group 5 Copy</title>
    <defs>
        <path d="M13.2958984,0 L17.7764168,16.4324883 C14.9883118,16.4204762 12.0970192,16.4141847 9.10253906,16.4136138 C12.0296684,16.4274948 14.858455,16.4351325 17.5888988,16.4365268 L17.776,16.436 L23.1738281,36.2304688 L28.5683126,16.5131191 C32.9862605,16.5616641 37.0839468,16.6279641 40.8613716,16.712019 L29.7363281,49.765625 L16.6113281,49.765625 L0,0 L13.2958984,0 Z M59.9743053,17.4476896 L59.9739583,49.765625 L48.0110677,49.765625 L48.0129259,16.9045652 C52.6012349,17.0522778 56.5883614,17.2333193 59.9743053,17.4476896 Z M104.567057,16.8847656 C104.567057,21.7382812 102.82959,25.6176758 99.3546549,28.5229492 C95.8797201,31.4282227 91.1116536,32.8808594 85.0504557,32.8808594 L77.3942057,32.8808594 L77.3942057,49.765625 L65.3971354,49.765625 L65.3983241,17.86751 C70.5621724,18.3595294 73.4735167,18.9764249 74.132357,19.7181965 C76.4096702,22.2821661 77.4257465,27.1463513 77.1805859,34.3107521 C77.332159,29.7885852 77.872644,26.2243293 78.8020407,23.6179843 L85.2555339,23.6181641 C87.5797526,23.6181641 89.3513997,23.0371094 90.5704753,21.875 C91.5624681,20.929362 92.150856,19.6668752 92.335639,18.0875398 C95.6724047,17.7792993 99.738602,17.4640063 104.533082,17.140579 L104.566484,16.7331227 C104.566866,16.7835876 104.567057,16.8341353 104.567057,16.8847656 Z M46.484375,0 L41.0157735,16.2537582 C37.2027606,16.3248406 33.0635675,16.3752155 28.5981943,16.4048828 L33.0859375,0 L46.484375,0 Z M85.2555339,0 C89.0608724,0 92.4275716,0.700683594 95.3556315,2.10205078 C98.2836914,3.50341797 100.550944,5.49723307 102.157389,8.08349609 C103.661507,10.5050188 104.461471,13.2311755 104.55728,16.2619662 L104.602539,16.265625 C99.804604,15.9341439 95.6969328,15.6118943 92.2795253,15.2988763 C92.0466105,13.7295532 91.4591471,12.4243164 90.5192057,11.3818359 C89.2659505,9.99186198 87.5569661,9.28548177 85.3922526,9.26269531 L78.046717,9.2630133 C77.4671052,6.95232556 77.0105868,3.8649842 76.6771618,0.000989214008 L85.2555339,0 Z M59.9739583,0 L59.974469,15.5790922 C56.5830833,15.7871168 52.5956256,15.9572996 48.0120958,16.0896407 L48.0110677,0 L59.9739583,0 Z M74.3410822,13.1860773 C73.7613085,13.9988917 70.7805091,14.6592765 65.398684,15.1672316 L65.3971354,0 L76.5015177,0.00110841609 C76.4263064,6.87731339 75.7061612,11.272303 74.3410822,13.1860773 Z" id="path-1"></path>
    </defs>
    <g id="Page-1" stroke="none" stroke-width="1" fill="none" fill-rule="evenodd">
        <g id="Group-5-Copy">
            <rect id="Rectangle" x="0" y="0" width="105" height="76"></rect>
            <g id="Group-3" transform="translate(0.000000, 10.234375)" fill-rule="nonzero">
                <g id="Combined-Shape">
                    <use fill="#333333" xlink:href="#path-1"></use>
                    <use fill="#FFFFFF" xlink:href="#path-1"></use>
                </g>
            </g>
        </g>
    </g>
</svg>