<svg xmlns="http://www.w3.org/2000/svg" xmlns:xlink="http://www.w3.org/1999/xlink" width="44.67" height="60.5" viewBox="0 0 44.67 60.5">
  <defs>
    <linearGradient id="linear-gradient" x1="0.203" y1="0.102" x2="0.822" y2="1" gradientUnits="objectBoundingBox">
      <stop offset="0" stop-color="#2fd8de"/>
      <stop offset="0.474" stop-color="#4958e0"/>
      <stop offset="1" stop-color="#ff4063"/>
    </linearGradient>
  </defs>
  <g id="Group_66_Copy" data-name="Group 66 Copy" transform="translate(0 0.5)">
    <path id="Fill_49" data-name="Fill 49" d="M41,21.824H3.672A3.676,3.676,0,0,1,0,18.152V3.673A3.676,3.676,0,0,1,3.672,0H15.3V4.237a1.615,1.615,0,0,0,0,1.689v4.141a1.615,1.615,0,0,0,0,1.689V12.5a2.562,2.562,0,1,0,5.124,0V0h6.327l.626,3.591a1.612,1.612,0,0,0,.541,3.1l.463,2.656a1.612,1.612,0,1,0-.388,3.177,1.6,1.6,0,0,0,.956-.314,2.527,2.527,0,0,0,2.329,1.54,2.563,2.563,0,0,0,.439-.038,2.537,2.537,0,0,0,1.742-1.2,1.553,1.553,0,0,0,.194.012,1.612,1.612,0,0,0,0-3.224c-.044,0-.087,0-.131.005l-.475-2.731a1.612,1.612,0,1,0-.47-2.694L31.9,0H41A3.676,3.676,0,0,1,44.67,3.673V18.152A3.676,3.676,0,0,1,41,21.824Zm-1.683-6.692a1.612,1.612,0,1,0,1.612,1.612A1.613,1.613,0,0,0,39.315,15.132Zm-5.66,0a1.612,1.612,0,1,0,1.612,1.612A1.613,1.613,0,0,0,33.655,15.132Zm-5.66,0a1.612,1.612,0,1,0,1.611,1.612A1.613,1.613,0,0,0,27.995,15.132Zm-5.661,0a1.612,1.612,0,1,0,1.612,1.612A1.613,1.613,0,0,0,22.333,15.132Zm-5.66,0a1.612,1.612,0,1,0,1.612,1.612A1.613,1.613,0,0,0,16.673,15.132Zm-5.66,0a1.612,1.612,0,1,0,1.612,1.612A1.613,1.613,0,0,0,11.013,15.132Zm-5.661,0a1.612,1.612,0,1,0,1.612,1.612A1.613,1.613,0,0,0,5.352,15.132ZM39.315,9.3a1.612,1.612,0,1,0,1.612,1.612A1.613,1.613,0,0,0,39.315,9.3Zm-16.981,0a1.612,1.612,0,1,0,1.612,1.612A1.613,1.613,0,0,0,22.333,9.3Zm-11.32,0a1.612,1.612,0,1,0,1.612,1.612A1.613,1.613,0,0,0,11.013,9.3Zm-5.661,0a1.612,1.612,0,1,0,1.612,1.612A1.613,1.613,0,0,0,5.352,9.3ZM39.315,3.469a1.612,1.612,0,1,0,1.612,1.612A1.613,1.613,0,0,0,39.315,3.469Zm-16.981,0a1.612,1.612,0,1,0,1.612,1.612A1.613,1.613,0,0,0,22.333,3.469Zm-11.32,0a1.612,1.612,0,1,0,1.612,1.612A1.613,1.613,0,0,0,11.013,3.469Zm-5.661,0A1.612,1.612,0,1,0,6.964,5.081,1.613,1.613,0,0,0,5.352,3.469Z" transform="translate(0 38.176)" fill="url(#linear-gradient)"/>
    <path id="Fill_61" data-name="Fill 61" d="M9.583,50.681V24.791c0-.023,0-.046,0-.068v-6.9L3.908,27.658A2.093,2.093,0,1,1,.282,25.565L7.215,13.554a2.094,2.094,0,0,1,2.162-1.019,2.589,2.589,0,0,1,.342-.023h9.932a2.591,2.591,0,0,1,.364.026,2.094,2.094,0,0,1,2.179,1.016l6.935,12.011A2.093,2.093,0,1,1,25.5,27.658l-5.714-9.9V28.109l5.148,6.148a2.528,2.528,0,0,1,.822,1.468l2.3,13.229a2.536,2.536,0,1,1-5,.87l-2.179-12.5-5.708-6.817h-.471V50.681a2.562,2.562,0,1,1-5.124,0ZM9.608,5.1a5.1,5.1,0,1,1,5.1,5.1A5.1,5.1,0,0,1,9.608,5.1Z" transform="translate(5.718)" fill="none" stroke="#999" stroke-width="1" stroke-dasharray="2 1"/>
  </g>
</svg>
