<svg xmlns="http://www.w3.org/2000/svg" xmlns:xlink="http://www.w3.org/1999/xlink" width="72.233" height="100.5" viewBox="0 0 72.233 100.5">
  <defs>
    <linearGradient id="linear-gradient" x1="0.203" y1="0.102" x2="0.822" y2="1" gradientUnits="objectBoundingBox">
      <stop offset="0" stop-color="#2fd8de"/>
      <stop offset="0.474" stop-color="#4958e0"/>
      <stop offset="1" stop-color="#ff4063"/>
    </linearGradient>
  </defs>
  <g id="Group_28_Copy" data-name="Group 28 Copy" transform="translate(0 0.5)">
    <g id="Fill_27" data-name="Fill 27">
      <path id="Fill_27-2" data-name="Fill 27" d="M7.024,58.71A7.024,7.024,0,0,1,5.246,44.89L12.778,2.577a2.921,2.921,0,0,1,.161-.564A2.884,2.884,0,0,1,15.7,0H35.5a2.884,2.884,0,0,1,2.761,2.021,2.974,2.974,0,0,1,.158.555l9.074,50.97A2.893,2.893,0,0,1,45.149,56.9a2.888,2.888,0,0,1-3.357-2.343l-6.5-36.512H15.907L10.954,45.864A7.024,7.024,0,0,1,7.024,58.71Zm0-11.284a4.261,4.261,0,1,0,4.261,4.261A4.265,4.265,0,0,0,7.023,47.425ZM18.09,5.79l-1.152,6.468H34.259L33.107,5.79H18.09Z" transform="translate(0 41.29)" fill="none"/>
      <path id="Fill_27-3" data-name="Fill 27" d="M7.024,58.71A7.024,7.024,0,0,1,5.246,44.89L12.778,2.577a2.921,2.921,0,0,1,.161-.564A2.884,2.884,0,0,1,15.7,0H35.5a2.884,2.884,0,0,1,2.761,2.021,2.974,2.974,0,0,1,.158.555l9.074,50.97A2.893,2.893,0,0,1,45.149,56.9a2.888,2.888,0,0,1-3.357-2.343l-6.5-36.512H15.907L10.954,45.864A7.024,7.024,0,0,1,7.024,58.71Zm0-11.284a4.261,4.261,0,1,0,4.261,4.261A4.265,4.265,0,0,0,7.023,47.425ZM18.09,5.79l-1.152,6.468H34.259L33.107,5.79H18.09Z" transform="translate(0 41.29)" fill="url(#linear-gradient)"/>
    </g>
    <path id="Fill_43" data-name="Fill 43" d="M30.884,93.447V69.254a4.682,4.682,0,0,1,.14-1.139,4.979,4.979,0,0,1,.638-1.918l6.495-11.251a6.151,6.151,0,0,1-.561-.983L26.8,30.209l-5.063,8.04a2.8,2.8,0,0,1-.727.778,2.8,2.8,0,0,1-1.865.71H2.808a2.808,2.808,0,0,1,0-5.616H17.7l7.952-12.629a7.954,7.954,0,0,1,14.568-.2l11.1,24.413a7.955,7.955,0,0,1-1.3,8.579,5.04,5.04,0,0,1-.314.647l-9.39,16.263c-.028.048-.056.1-.086.143v22.11a4.673,4.673,0,1,1-9.346,0ZM15.467,8.149A8.15,8.15,0,1,1,23.618,16.3,8.15,8.15,0,0,1,15.467,8.149Z" transform="translate(19.589)" fill="none" stroke="#979797" stroke-width="1" stroke-dasharray="2 1"/>
  </g>
</svg>
