<svg xmlns="http://www.w3.org/2000/svg" xmlns:xlink="http://www.w3.org/1999/xlink" width="155.192" height="48.5" viewBox="0 0 155.192 48.5">
  <defs>
    <linearGradient id="linear-gradient" x1="0.203" y1="0.102" x2="0.822" y2="1" gradientUnits="objectBoundingBox">
      <stop offset="0" stop-color="#2fd8de"/>
      <stop offset="0.474" stop-color="#4958e0"/>
      <stop offset="1" stop-color="#ff4063"/>
    </linearGradient>
  </defs>
  <g id="Group_19" data-name="Group 19" transform="translate(0 0.5)">
    <path id="Fill_65" data-name="Fill 65" d="M111.465,9.692a9.69,9.69,0,1,1,9.688,9.688A9.691,9.691,0,0,1,111.465,9.692ZM6.344,19.374a6.344,6.344,0,0,1,0-12.688H52.811A6.344,6.344,0,0,1,59.143.734h42.52a6.343,6.343,0,0,1,6.343,6.343q0,.053,0,.106v5.741q0,.053,0,.106t0,.106v.111h0a6.343,6.343,0,0,1-6.34,6.127Z" transform="translate(12.431)" fill="none" stroke="#333" stroke-miterlimit="10" stroke-width="1" stroke-dasharray="2 2"/>
    <g id="Fill_66" data-name="Fill 66">
      <path id="Fill_66-2" data-name="Fill 66" d="M6.876,20.741a6.878,6.878,0,0,1,0-13.757h3.185A5.9,5.9,0,0,1,10,6.129V5.851a5.851,5.851,0,1,1,11.7,0v.278a5.9,5.9,0,0,1-.062.855h5.828a5.9,5.9,0,0,1-.062-.855V5.851a5.851,5.851,0,1,1,11.7,0v.278a5.9,5.9,0,0,1-.062.855h5.828a5.9,5.9,0,0,1-.062-.855V5.851a5.851,5.851,0,0,1,11.7,0v.278a5.9,5.9,0,0,1-.062.855H62.28a5.9,5.9,0,0,1-.062-.855V5.851a5.851,5.851,0,1,1,11.7,0v.278a5.9,5.9,0,0,1-.062.855h5.828a5.9,5.9,0,0,1-.062-.855V5.851a5.851,5.851,0,1,1,11.7,0v.278a5.9,5.9,0,0,1-.062.855h5.828a5.9,5.9,0,0,1-.062-.855V5.851a5.851,5.851,0,0,1,11.7,0v.278a5.9,5.9,0,0,1-.062.855H114.5a5.9,5.9,0,0,1-.062-.855V5.851a5.851,5.851,0,0,1,11.7,0v.278a5.9,5.9,0,0,1-.062.855H131.9a5.9,5.9,0,0,1-.062-.855V5.851a5.851,5.851,0,1,1,11.7,0v.278a5.9,5.9,0,0,1-.062.855h4.834a6.878,6.878,0,0,1,0,13.757Z" transform="translate(0 27.26)" fill="none"/>
      <path id="Fill_66-3" data-name="Fill 66" d="M6.876,20.741a6.878,6.878,0,0,1,0-13.757h3.185A5.9,5.9,0,0,1,10,6.129V5.851a5.851,5.851,0,1,1,11.7,0v.278a5.9,5.9,0,0,1-.062.855h5.828a5.9,5.9,0,0,1-.062-.855V5.851a5.851,5.851,0,1,1,11.7,0v.278a5.9,5.9,0,0,1-.062.855h5.828a5.9,5.9,0,0,1-.062-.855V5.851a5.851,5.851,0,0,1,11.7,0v.278a5.9,5.9,0,0,1-.062.855H62.28a5.9,5.9,0,0,1-.062-.855V5.851a5.851,5.851,0,1,1,11.7,0v.278a5.9,5.9,0,0,1-.062.855h5.828a5.9,5.9,0,0,1-.062-.855V5.851a5.851,5.851,0,1,1,11.7,0v.278a5.9,5.9,0,0,1-.062.855h5.828a5.9,5.9,0,0,1-.062-.855V5.851a5.851,5.851,0,0,1,11.7,0v.278a5.9,5.9,0,0,1-.062.855H114.5a5.9,5.9,0,0,1-.062-.855V5.851a5.851,5.851,0,0,1,11.7,0v.278a5.9,5.9,0,0,1-.062.855H131.9a5.9,5.9,0,0,1-.062-.855V5.851a5.851,5.851,0,1,1,11.7,0v.278a5.9,5.9,0,0,1-.062.855h4.834a6.878,6.878,0,0,1,0,13.757Z" transform="translate(0 27.26)" fill="url(#linear-gradient)"/>
    </g>
  </g>
</svg>
