<svg xmlns="http://www.w3.org/2000/svg" xmlns:xlink="http://www.w3.org/1999/xlink" width="74.363" height="23.5" viewBox="0 0 74.363 23.5">
  <defs>
    <linearGradient id="linear-gradient" x1="0.203" y1="0.102" x2="0.822" y2="1" gradientUnits="objectBoundingBox">
      <stop offset="0" stop-color="#2fd8de"/>
      <stop offset="0.474" stop-color="#4958e0"/>
      <stop offset="1" stop-color="#ff4063"/>
    </linearGradient>
  </defs>
  <g id="Group_19_Copy" data-name="Group 19 Copy" transform="translate(0 0.5)">
    <path id="Fill_65" data-name="Fill 65" d="M53.41,4.644a4.643,4.643,0,1,1,4.642,4.642A4.644,4.644,0,0,1,53.41,4.644ZM3.039,9.284a3.04,3.04,0,0,1,0-6.08H25.306A3.04,3.04,0,0,1,28.339.352H48.713a3.039,3.039,0,0,1,3.039,3.039c0,.025,0,.049,0,.073V6.17c0,.024,0,.049,0,.073s0,.049,0,.073v.031h0a3.04,3.04,0,0,1-3.037,2.936Z" transform="translate(5.956)" fill="none" stroke="#979797" stroke-width="1" stroke-dasharray="2 1"/>
    <path id="Fill_66" data-name="Fill 66" d="M3.295,9.938a3.3,3.3,0,0,1,0-6.591H4.821a2.825,2.825,0,0,1-.03-.41V2.8a2.8,2.8,0,0,1,5.608,0v.133a2.825,2.825,0,0,1-.03.41h2.792a2.825,2.825,0,0,1-.03-.41V2.8a2.8,2.8,0,0,1,5.608,0v.133a2.825,2.825,0,0,1-.03.41H21.5a2.827,2.827,0,0,1-.03-.41V2.8a2.8,2.8,0,1,1,5.607,0v.133a2.825,2.825,0,0,1-.03.41h2.793a2.825,2.825,0,0,1-.03-.41V2.8a2.8,2.8,0,0,1,5.607,0v.133a2.827,2.827,0,0,1-.03.41h2.793a2.825,2.825,0,0,1-.03-.41V2.8a2.8,2.8,0,0,1,5.608,0v.133a2.824,2.824,0,0,1-.03.41h2.792a2.824,2.824,0,0,1-.03-.41V2.8a2.8,2.8,0,0,1,5.608,0v.133a2.825,2.825,0,0,1-.03.41h2.793a2.827,2.827,0,0,1-.03-.41V2.8a2.8,2.8,0,0,1,5.607,0v.133a2.825,2.825,0,0,1-.03.41H63.2a2.825,2.825,0,0,1-.03-.41V2.8a2.8,2.8,0,1,1,5.607,0v.133a2.827,2.827,0,0,1-.03.41h2.317a3.3,3.3,0,0,1,0,6.591Z" transform="translate(0 13.062)" fill="url(#linear-gradient)"/>
  </g>
</svg>
