<svg xmlns="http://www.w3.org/2000/svg" width="47.096" height="60.501" viewBox="0 0 47.096 60.501">
  <g id="Group_28" data-name="Group 28" transform="translate(0.505 0.5)">
    <path id="Fill_25" data-name="Fill 25" d="M1.221,49.713A2.813,2.813,0,0,1,.5,45.8L8.687,33.877A2.805,2.805,0,0,1,10.6,32.686a2.824,2.824,0,0,1,.629-.1l12.289-.455q-.011-.175-.011-.352V27.742H18.47a2.025,2.025,0,0,1,0-4.049H23.5v-6.5a5.705,5.705,0,0,1,11.41,0v14.59a5.706,5.706,0,0,1-5.17,5.68,2.818,2.818,0,0,1-.631.095l-16.553.613L5.132,48.987a2.813,2.813,0,0,1-3.911.726ZM24.086,4.974a4.973,4.973,0,1,1,4.972,4.973A4.974,4.974,0,0,1,24.086,4.974Z" fill="none" stroke="#979797" stroke-width="1" stroke-dasharray="2 1"/>
    <path id="Fill_41" data-name="Fill 41" d="M33.249,46.921,28.791,33.342H7.957L3.5,46.921A1.794,1.794,0,0,1,.09,45.8L4.18,33.342H4.162a2.472,2.472,0,1,1,0-4.945H6.629l2.044-6.7H6.015a1.865,1.865,0,0,1,0-3.73H29.789l2.816-16a2.376,2.376,0,1,1,4.68.824L32.356,30.8c0,.022,0,.044,0,.066a2.463,2.463,0,0,1-.248,1.08l.008.025L36.657,45.8a1.794,1.794,0,1,1-3.408,1.12ZM27.953,28.4l1.179-6.7H11.7L9.653,28.4Z" transform="translate(9.27 11.847)" fill="#333"/>
  </g>
</svg>
