<svg xmlns="http://www.w3.org/2000/svg" xmlns:xlink="http://www.w3.org/1999/xlink" width="234.977" height="53.488" viewBox="0 0 234.977 53.488">
  <defs>
    <clipPath id="clip-path">
      <path id="Mask" d="M168.3,32.666a12.016,12.016,0,0,1-3.809-9.229V0h8.618V23.609q.146,5.835,5.42,5.835a5.247,5.247,0,0,0,4.028-1.465q1.366-1.465,1.367-4.76V0H192.5V23.267a13.38,13.38,0,0,1-1.684,6.848,10.913,10.913,0,0,1-4.835,4.406,17.027,17.027,0,0,1-7.446,1.514Q172.037,36.035,168.3,32.666ZM63.725,35.548H31.155V0h8.569V28.955H54.642v6.4L67.608,0h8.056L88.8,35.546H79.6L77.52,28.906H65.777l-2.05,6.641h0Zm4.1-13.258h7.641L71.636,9.961ZM226.239,35.547v-8.3l.831-16.992-8.594,25.294h-5.664l-8.618-25.318.83,17.016v8.3h-8.569V0h11.254l7.934,24.731L223.554,0h11.28V35.547Zm-74.175,0-12.6-22.119V35.547H130.9V0h8.569L152.04,22.119V0h8.546V35.547Zm-34.28,0V0h8.546V35.547Zm-22.048,0V6.616H85.262V0h29.712V6.616H104.3V35.547Zm-87.168,0H0V0H14.185A16.6,16.6,0,0,1,21.4,1.5a11.366,11.366,0,0,1,4.858,4.272,11.721,11.721,0,0,1,1.721,6.287,11.38,11.38,0,0,1-.931,4.678,10.12,10.12,0,0,1-2.793,3.634c-2.47,2.066-5.907,3.113-10.217,3.113H8.569v12.06h0Zm0-18.677h5.616a5.322,5.322,0,0,0,3.8-1.246,4.645,4.645,0,0,0,1.306-3.515,5.741,5.741,0,0,0-1.343-3.98,4.775,4.775,0,0,0-3.662-1.514H8.569Z" fill="#333"/>
    </clipPath>
  </defs>
  <path id="Path_2" data-name="Path 2" d="M21.6,7.261a2.641,2.641,0,0,1-.833-2.024V.1h1.884V5.274q.032,1.28,1.184,1.28a1.143,1.143,0,0,0,.88-.321,1.5,1.5,0,0,0,.3-1.044V.1h1.874V5.2a2.938,2.938,0,0,1-.369,1.5,2.385,2.385,0,0,1-1.057.967A3.705,3.705,0,0,1,23.839,8,3.21,3.21,0,0,1,21.6,7.261Zm-6.944.282a3.125,3.125,0,0,1-1.2-1.308,4.489,4.489,0,0,1-.451-1.952V3.845a4.642,4.642,0,0,1,.418-2.019,3.116,3.116,0,0,1,1.2-1.35A3.543,3.543,0,0,1,18.17.471a3.184,3.184,0,0,1,1.2,1.339A4.521,4.521,0,0,1,19.807,3.8v.358a4.634,4.634,0,0,1-.421,2.016,3.143,3.143,0,0,1-1.2,1.35A3.342,3.342,0,0,1,16.42,8,3.39,3.39,0,0,1,14.66,7.543Zm.262-3.955-.005.572a3.4,3.4,0,0,0,.378,1.76,1.245,1.245,0,0,0,1.126.615,1.229,1.229,0,0,0,1.094-.6A3.285,3.285,0,0,0,17.9,4.192V3.834a3.309,3.309,0,0,0-.386-1.762,1.247,1.247,0,0,0-1.107-.6C15.476,1.471,14.975,2.183,14.922,3.588ZM59.173,7.9H57.3V.145h3.058A3.426,3.426,0,0,1,62.52.758,2.083,2.083,0,0,1,63.3,2.489a2.533,2.533,0,0,1-.328,1.343,2.35,2.35,0,0,1-1.027.864l1.622,3.128V7.9H61.56L60.188,5.165H59.174V7.9h0Zm0-4.184h1.185a1.072,1.072,0,0,0,.8-.28,1.084,1.084,0,0,0,.269-.78,1.1,1.1,0,0,0-.272-.787,1.061,1.061,0,0,0-.8-.284H59.174ZM7.992,7.9H6.121V.145H9.179A3.43,3.43,0,0,1,11.34.758a2.086,2.086,0,0,1,.779,1.732,2.533,2.533,0,0,1-.328,1.343,2.355,2.355,0,0,1-1.027.864l1.622,3.128V7.9H10.38L9.008,5.165H7.994V7.9h0Zm0-4.184H9.179a1.075,1.075,0,0,0,.8-.28,1.084,1.084,0,0,0,.269-.78,1.1,1.1,0,0,0-.272-.787,1.061,1.061,0,0,0-.8-.284H7.994ZM79.45,7.9V1.589H77.157V.145h6.505V1.589H81.327V7.9Zm-7.98,0V.145h5.35V1.589H73.338V3.225h2.938V4.615H73.338v1.85h3.47V7.9Zm-2.747,0L67.072,5.016l-.768.841V7.9h-1.87V.145H66.3V3.566l.65-.986L68.627.145H70.94L68.318,3.577,70.94,7.9ZM54.31,6.455H51.746L51.3,7.9h-2L52.146.145H53.9L56.771,7.9l-2.009,0ZM52.195,5.01h1.668l-.837-2.691ZM46.845,7.9V6.092l.182-3.709L45.149,7.9H43.911L42.028,2.378l.182,3.714V7.9H40.337V.145H42.8l1.733,5.4,1.728-5.4h2.465V7.9Zm-12.337,0V6.092l.182-3.709L32.811,7.9H31.574L29.691,2.378l.181,3.714V7.9H28V.145h2.459l1.734,5.4,1.728-5.4h2.464V7.9ZM0,7.9V.145H5.35V1.589H1.868V3.225H4.807V4.615H1.868v1.85h3.47V7.9Z" transform="translate(151.314)" fill="#fff" opacity="0.45"/>
  <g id="PLATINUM" transform="translate(0 16.453)">
    <path id="Mask-2" data-name="Mask" d="M168.3,32.666a12.016,12.016,0,0,1-3.809-9.229V0h8.618V23.609q.146,5.835,5.42,5.835a5.247,5.247,0,0,0,4.028-1.465q1.366-1.465,1.367-4.76V0H192.5V23.267a13.38,13.38,0,0,1-1.684,6.848,10.913,10.913,0,0,1-4.835,4.406,17.027,17.027,0,0,1-7.446,1.514Q172.037,36.035,168.3,32.666ZM63.725,35.548H31.155V0h8.569V28.955H54.642v6.4L67.608,0h8.056L88.8,35.546H79.6L77.52,28.906H65.777l-2.05,6.641h0Zm4.1-13.258h7.641L71.636,9.961ZM226.239,35.547v-8.3l.831-16.992-8.594,25.294h-5.664l-8.618-25.318.83,17.016v8.3h-8.569V0h11.254l7.934,24.731L223.554,0h11.28V35.547Zm-74.175,0-12.6-22.119V35.547H130.9V0h8.569L152.04,22.119V0h8.546V35.547Zm-34.28,0V0h8.546V35.547Zm-22.048,0V6.616H85.262V0h29.712V6.616H104.3V35.547Zm-87.168,0H0V0H14.185A16.6,16.6,0,0,1,21.4,1.5a11.366,11.366,0,0,1,4.858,4.272,11.721,11.721,0,0,1,1.721,6.287,11.38,11.38,0,0,1-.931,4.678,10.12,10.12,0,0,1-2.793,3.634c-2.47,2.066-5.907,3.113-10.217,3.113H8.569v12.06h0Zm0-18.677h5.616a5.322,5.322,0,0,0,3.8-1.246,4.645,4.645,0,0,0,1.306-3.515,5.741,5.741,0,0,0-1.343-3.98,4.775,4.775,0,0,0-3.662-1.514H8.569Z" opacity="0.3"/>
    <g id="Oval" transform="translate(0 1)">
      <path id="Mask-3" data-name="Mask" d="M168.3,32.666a12.016,12.016,0,0,1-3.809-9.229V0h8.618V23.609q.146,5.835,5.42,5.835a5.247,5.247,0,0,0,4.028-1.465q1.366-1.465,1.367-4.76V0H192.5V23.267a13.38,13.38,0,0,1-1.684,6.848,10.913,10.913,0,0,1-4.835,4.406,17.027,17.027,0,0,1-7.446,1.514Q172.037,36.035,168.3,32.666ZM63.725,35.548H31.155V0h8.569V28.955H54.642v6.4L67.608,0h8.056L88.8,35.546H79.6L77.52,28.906H65.777l-2.05,6.641h0Zm4.1-13.258h7.641L71.636,9.961ZM226.239,35.547v-8.3l.831-16.992-8.594,25.294h-5.664l-8.618-25.318.83,17.016v8.3h-8.569V0h11.254l7.934,24.731L223.554,0h11.28V35.547Zm-74.175,0-12.6-22.119V35.547H130.9V0h8.569L152.04,22.119V0h8.546V35.547Zm-34.28,0V0h8.546V35.547Zm-22.048,0V6.616H85.262V0h29.712V6.616H104.3V35.547Zm-87.168,0H0V0H14.185A16.6,16.6,0,0,1,21.4,1.5a11.366,11.366,0,0,1,4.858,4.272,11.721,11.721,0,0,1,1.721,6.287,11.38,11.38,0,0,1-.931,4.678,10.12,10.12,0,0,1-2.793,3.634c-2.47,2.066-5.907,3.113-10.217,3.113H8.569v12.06h0Zm0-18.677h5.616a5.322,5.322,0,0,0,3.8-1.246,4.645,4.645,0,0,0,1.306-3.515,5.741,5.741,0,0,0-1.343-3.98,4.775,4.775,0,0,0-3.662-1.514H8.569Z" fill="#333"/>
      <g id="Oval-2" data-name="Oval" clip-path="url(#clip-path)">
        <circle id="Oval-3" data-name="Oval" cx="77" cy="77" r="77" transform="translate(-96.686 -89.453)" fill="#fff" opacity="0.3"/>
        <circle id="Oval-4" data-name="Oval" cx="77" cy="77" r="77" transform="translate(213.314 -39.453)" fill="#fff" opacity="0.3"/>
        <circle id="Oval-5" data-name="Oval" cx="77" cy="77" r="77" transform="translate(53.314 -99.453)" opacity="0.6"/>
      </g>
    </g>
  </g>
</svg>
