<?xml version="1.0" encoding="UTF-8"?>
<svg width="179px" height="239px" viewBox="0 0 179 239" version="1.1" xmlns="http://www.w3.org/2000/svg" xmlns:xlink="http://www.w3.org/1999/xlink">
    <title>Group 3</title>
    <defs>
        <linearGradient x1="50%" y1="14.9929982%" x2="50%" y2="86.0056751%" id="linearGradient-1">
            <stop stop-color="#FFFFFF" stop-opacity="0.01171875" offset="0%"></stop>
            <stop stop-color="#FFFFFF" offset="100%"></stop>
        </linearGradient>
    </defs>
    <g id="Page-1" stroke="none" stroke-width="1" fill="none" fill-rule="evenodd">
        <g id="Artboard" transform="translate(-656.000000, -322.000000)">
            <g id="Group-2" transform="translate(656.000000, 322.000000)">
                <g id="3" transform="translate(30.311035, 20.672363)" fill="#E5E5E5" fill-rule="nonzero">
                    <path d="M46.9970703,81.640625 L68.347168,81.640625 C85.2661133,81.640625 93.7255859,73.3601888 93.7255859,56.7993164 C93.7255859,50.3540039 91.7114258,45.0948079 87.6831055,41.0217285 C83.6547852,36.9486491 77.9703776,34.9121094 70.6298828,34.9121094 C64.6321615,34.9121094 59.4177246,36.6577148 54.9865723,40.1489258 C50.5554199,43.6401367 48.3398437,47.9817708 48.3398437,53.1738281 L3.08837891,53.1738281 C3.08837891,42.8792318 5.95296224,33.7036133 11.6821289,25.6469727 C17.4112956,17.590332 25.3560384,11.3016764 35.5163574,6.78100586 C45.6766764,2.26033529 56.8440755,0 69.0185547,0 C90.7714844,0 107.869466,4.96826172 120.3125,14.9047852 C132.755534,24.8413086 138.977051,38.4928385 138.977051,55.859375 C138.977051,64.2740885 136.403402,72.2188314 131.256104,79.6936035 C126.108805,87.1683757 118.611654,93.2332357 108.764648,97.8881836 C119.148763,101.647949 127.294922,107.354736 133.203125,115.008545 C139.111328,122.662354 142.06543,132.128906 142.06543,143.408203 C142.06543,160.864258 135.351562,174.829102 121.923828,185.302734 C108.496094,195.776367 90.8610026,201.013184 69.0185547,201.013184 C56.2174479,201.013184 44.333903,198.573812 33.3679199,193.695068 C22.4019368,188.816325 14.0991211,182.057699 8.45947266,173.419189 C2.81982422,164.78068 0,154.956055 0,143.945312 L45.5200195,143.945312 C45.5200195,149.943034 47.9370117,155.135091 52.7709961,159.521484 C57.6049805,163.907878 63.5579427,166.101074 70.6298828,166.101074 C78.5970052,166.101074 84.9527995,163.885498 89.6972656,159.454346 C94.4417318,155.023193 96.8139648,149.361165 96.8139648,142.468262 C96.8139648,132.621257 94.3522135,125.638835 89.4287109,121.520996 C84.5052083,117.403158 77.7018229,115.344238 69.0185547,115.344238 L46.9970703,115.344238 L46.9970703,81.640625 Z" id="Path"></path>
                </g>
                <!-- <rect id="Rectangle" fill="url(#linearGradient-1)" x="0" y="65" width="179" height="174"></rect> -->
                <g id="Group-23" transform="translate(22.000000, -0.000000)">
                    <path d="M4.697,31.4831 L6.556,32.7491 L3.499,37.2361 L5.605,38.6711 L8.186,34.8841 L9.968,36.1001 L7.389,39.8861 L9.777,41.5131 L12.823,37.0401 L14.675,38.3021 L9.987,45.1831 L0,38.3771 L4.697,31.4831 Z M20.2126,18.0721 C21.2416,18.0851 22.1086,18.5511 22.8146,19.4731 C23.3266,20.1391 23.6156,20.7961 23.6816,21.4411 C23.7476,22.0871 23.5976,22.7671 23.2316,23.4801 L28.2036,25.8161 L28.2796,25.9151 L25.8026,27.8151 L21.5076,25.7211 L20.2566,26.6811 L22.8586,30.0721 L20.5466,31.8461 L13.1916,22.2561 L16.9646,19.3611 C18.1026,18.4891 19.1846,18.0591 20.2126,18.0721 Z M18.3296,21.1391 L16.8676,22.2611 L18.8926,24.9021 L20.3546,23.7811 C20.7936,23.4441 21.0366,23.0751 21.0806,22.6741 C21.1246,22.2731 20.9886,21.8651 20.6706,21.4511 C20.3536,21.0381 19.9926,20.7991 19.5876,20.7351 C19.1836,20.6721 18.7636,20.8061 18.3296,21.1391 Z M30.2379,11.6573 C31.1759,11.7003 32.0559,12.0083 32.8779,12.5833 C33.7009,13.1593 34.3939,13.9553 34.9559,14.9713 L35.2229,15.4593 C35.7879,16.4933 36.0979,17.5133 36.1499,18.5203 C36.2009,19.5253 35.9919,20.4373 35.5209,21.2523 C35.0489,22.0683 34.3619,22.7243 33.4589,23.2183 C32.5559,23.7113 31.6419,23.9423 30.7149,23.9103 C29.7889,23.8773 28.9189,23.5823 28.1069,23.0233 C27.2929,22.4653 26.6039,21.6923 26.0369,20.7023 L25.7099,20.1053 C25.1419,19.0663 24.8309,18.0453 24.7769,17.0433 C24.7249,16.0413 24.9359,15.1293 25.4099,14.3083 C25.8849,13.4873 26.5759,12.8283 27.4839,12.3323 C28.3829,11.8403 29.3009,11.6153 30.2379,11.6573 Z M28.5799,14.3343 C27.2989,15.0353 27.1479,16.3673 28.1259,18.3293 L28.5449,19.1123 C29.1129,20.1513 29.7229,20.8563 30.3729,21.2263 C31.0229,21.5953 31.6879,21.5943 32.3669,21.2223 C33.0129,20.8693 33.3599,20.3233 33.4099,19.5833 C33.4599,18.8433 33.2049,17.9573 32.6469,16.9253 L32.3799,16.4373 C31.8039,15.3843 31.1909,14.6803 30.5389,14.3273 C29.8889,13.9733 29.2349,13.9763 28.5799,14.3343 Z M43.6748,5.4866 L46.4488,12.8946 C46.7638,13.7346 46.8578,14.5286 46.7298,15.2766 C46.6018,16.0246 46.2638,16.6846 45.7158,17.2556 C45.1678,17.8276 44.4378,18.2836 43.5258,18.6256 C42.1468,19.1416 40.9268,19.1906 39.8658,18.7726 C38.8058,18.3546 38.0338,17.5266 37.5538,16.2886 L34.7588,8.8256 L37.5028,7.7976 L40.3178,15.3156 C40.8128,16.5426 41.6198,16.9456 42.7388,16.5266 C43.3038,16.3156 43.6738,15.9996 43.8478,15.5796 C44.0218,15.1606 43.9768,14.6006 43.7148,13.9016 L40.9458,6.5086 L43.6748,5.4866 Z M59.3545,1.6844 L61.9735,13.4834 L59.1205,14.1164 L58.5085,11.3614 L57.5345,5.6604 L56.5435,14.6884 L54.6645,15.1054 L49.9385,7.3364 L51.4675,12.9234 L52.0795,15.6794 L49.2345,16.3104 L46.6165,4.5114 L50.3525,3.6824 L54.8075,11.3074 L55.6105,2.5154 L59.3545,1.6844 Z M70.6924,0.51 L73.8504,8.757 L76.0714,0.212 L79.9004,0 L80.5684,12.068 L77.6514,12.229 L77.4954,9.411 L77.4574,3.627 L75.0154,12.375 L73.0924,12.482 L69.6914,4.049 L70.2934,9.81 L70.4494,12.628 L67.5404,12.789 L66.8714,0.721 L70.6924,0.51 Z M86.041,7.7347 L88.638,7.8197 L87.473,3.5877 L86.041,7.7347 Z M89.261,10.0907 L85.27,9.9607 L84.499,12.1937 L81.389,12.0917 L86.215,0.1577 L88.953,0.2477 L93.02,12.4737 L89.892,12.3707 L89.261,10.0907 Z M97.4238,6.5877 L99.2448,6.8667 C99.7918,6.9507 100.2258,6.8697 100.5458,6.6237 C100.8658,6.3787 101.0668,5.9977 101.1458,5.4827 C101.2238,4.9667 101.1468,4.5417 100.9118,4.2047 C100.6788,3.8687 100.2908,3.6597 99.7488,3.5767 L97.9278,3.2967 L97.4238,6.5877 Z M98.6438,9.0417 L97.0838,8.8027 L96.4368,13.0287 L93.5568,12.5877 L95.3868,0.6407 L100.0888,1.3607 C101.5048,1.5777 102.5648,2.0617 103.2678,2.8127 C103.9698,3.5637 104.2328,4.5127 104.0568,5.6597 C103.9298,6.4907 103.6558,7.1527 103.2358,7.6487 C102.8158,8.1427 102.2218,8.5047 101.4528,8.7337 L103.2078,13.9397 L103.1898,14.0627 L100.1048,13.5907 L98.6438,9.0417 Z M128.4269,10.29 L137.0809,15.502 L135.9199,17.429 L132.8129,15.557 L127.7379,23.984 L125.2419,22.48 L130.3169,14.054 L127.2669,12.217 L128.4269,10.29 Z M118.9383,6.1585 L126.6163,9.4225 L125.7353,11.4925 L120.7393,9.3685 L119.7423,11.7135 L123.9593,13.5065 L123.1143,15.4925 L118.8983,13.6995 L117.7673,16.3585 L122.7483,18.4755 L121.8713,20.5385 L114.2093,17.2805 L118.9383,6.1585 Z M107.4421,2.6706 L110.2461,3.4656 L108.7931,8.5926 L110.1851,7.3906 L113.7271,4.4516 L117.1941,5.4346 L111.8061,9.4646 L113.8981,17.0626 L110.5761,16.1206 L109.3271,11.0906 L107.8191,12.0266 L106.9501,15.0926 L104.1471,14.2986 L107.4421,2.6706 Z" id="Combined-Shape" fill="#EAEAEA"></path>
                    <g id="Group-22" transform="translate(13.191600, 0.000000)"></g>
                </g>
                <g id="Group-24" transform="translate(122.924200, 79.999600)"></g>
            </g>
        </g>
    </g>
</svg>