<svg xmlns="http://www.w3.org/2000/svg" width="87.674" height="49" viewBox="0 0 87.674 49">
  <g id="그룹_2" data-name="그룹 2" transform="translate(-397 -82)">
    <path id="Path_2" data-name="Path 2" d="M21.6,7.261a2.641,2.641,0,0,1-.833-2.024V.1h1.884V5.274q.032,1.28,1.184,1.28a1.143,1.143,0,0,0,.88-.321,1.5,1.5,0,0,0,.3-1.044V.1h1.874V5.2a2.938,2.938,0,0,1-.369,1.5,2.385,2.385,0,0,1-1.057.967A3.705,3.705,0,0,1,23.839,8,3.21,3.21,0,0,1,21.6,7.261Zm-6.944.282a3.125,3.125,0,0,1-1.2-1.308,4.489,4.489,0,0,1-.451-1.952V3.845a4.642,4.642,0,0,1,.418-2.019,3.116,3.116,0,0,1,1.2-1.35A3.543,3.543,0,0,1,18.17.471a3.184,3.184,0,0,1,1.2,1.339A4.521,4.521,0,0,1,19.807,3.8v.358a4.634,4.634,0,0,1-.421,2.016,3.143,3.143,0,0,1-1.2,1.35A3.342,3.342,0,0,1,16.42,8,3.39,3.39,0,0,1,14.66,7.543Zm.262-3.955-.005.572a3.4,3.4,0,0,0,.378,1.76,1.245,1.245,0,0,0,1.126.615,1.229,1.229,0,0,0,1.094-.6A3.285,3.285,0,0,0,17.9,4.192V3.834a3.309,3.309,0,0,0-.386-1.762,1.247,1.247,0,0,0-1.107-.6C15.476,1.471,14.975,2.183,14.922,3.588ZM59.173,7.9H57.3V.145h3.058A3.426,3.426,0,0,1,62.52.758,2.083,2.083,0,0,1,63.3,2.489a2.533,2.533,0,0,1-.328,1.343,2.35,2.35,0,0,1-1.027.864l1.622,3.128V7.9H61.56L60.188,5.165H59.174V7.9h0Zm0-4.184h1.185a1.072,1.072,0,0,0,.8-.28,1.084,1.084,0,0,0,.269-.78,1.1,1.1,0,0,0-.272-.787,1.061,1.061,0,0,0-.8-.284H59.174ZM7.992,7.9H6.121V.145H9.179A3.43,3.43,0,0,1,11.34.758a2.086,2.086,0,0,1,.779,1.732,2.533,2.533,0,0,1-.328,1.343,2.355,2.355,0,0,1-1.027.864l1.622,3.128V7.9H10.38L9.008,5.165H7.994V7.9h0Zm0-4.184H9.179a1.075,1.075,0,0,0,.8-.28,1.084,1.084,0,0,0,.269-.78,1.1,1.1,0,0,0-.272-.787,1.061,1.061,0,0,0-.8-.284H7.994ZM79.45,7.9V1.589H77.157V.145h6.505V1.589H81.327V7.9Zm-7.98,0V.145h5.35V1.589H73.338V3.225h2.938V4.615H73.338v1.85h3.47V7.9Zm-2.747,0L67.072,5.016l-.768.841V7.9h-1.87V.145H66.3V3.566l.65-.986L68.627.145H70.94L68.318,3.577,70.94,7.9ZM54.31,6.455H51.746L51.3,7.9h-2L52.146.145H53.9L56.771,7.9l-2.009,0ZM52.195,5.01h1.668l-.837-2.691ZM46.845,7.9V6.092l.182-3.709L45.149,7.9H43.911L42.028,2.378l.182,3.714V7.9H40.337V.145H42.8l1.733,5.4,1.728-5.4h2.465V7.9Zm-12.337,0V6.092l.182-3.709L32.811,7.9H31.574L29.691,2.378l.181,3.714V7.9H28V.145h2.459l1.734,5.4,1.728-5.4h2.464V7.9ZM0,7.9V.145H5.35V1.589H1.868V3.225H4.807V4.615H1.868v1.85h3.47V7.9Z" transform="translate(397 82)" fill="#bf1209" opacity="0.45"/>
    <g id="red_copy" data-name="red copy" transform="translate(-1439.5 468.273)">
      <path id="red_copy-2" data-name="red copy" d="M8.74,36.258H0V0H14.269c4.279,0,7.673.964,10.086,2.864a9.747,9.747,0,0,1,3.635,8.093,11.846,11.846,0,0,1-1.531,6.276,10.928,10.928,0,0,1-4.794,4.035l7.571,14.617v.373H19.872l-6.4-12.8H8.741v12.8h0Zm0-19.549h5.528A4.993,4.993,0,0,0,18.017,15.4a5.068,5.068,0,0,0,1.257-3.648A5.129,5.129,0,0,0,18,8.081a4.945,4.945,0,0,0-3.736-1.333H8.741ZM58.974,36.257V0H70.654a17.265,17.265,0,0,1,8.641,2.179,15.387,15.387,0,0,1,5.99,6.151,18.666,18.666,0,0,1,2.179,8.9V18.9a18.771,18.771,0,0,1-2.1,8.927A15.451,15.451,0,0,1,79.431,34,16.868,16.868,0,0,1,70.9,36.257Zm8.741-6.723h3.038a6.827,6.827,0,0,0,5.777-2.677c1.338-1.777,2.017-4.453,2.017-7.956V17.332c0-3.487-.679-6.151-2.017-7.919a6.946,6.946,0,0,0-5.877-2.665H67.715ZM31.853,36.257V0H56.88V6.748H40.594v7.646H54.339v6.5H40.594v8.641H56.83v6.723Z" transform="translate(1836.711 -373.53)" fill="#333"/>
      <path id="red_copy-3" data-name="red copy" d="M8.74,36.258H0V0H14.269c4.279,0,7.673.964,10.086,2.864a9.747,9.747,0,0,1,3.635,8.093,11.846,11.846,0,0,1-1.531,6.276,10.928,10.928,0,0,1-4.794,4.035l7.571,14.617v.373H19.872l-6.4-12.8H8.741v12.8h0Zm0-19.549h5.528A4.993,4.993,0,0,0,18.017,15.4a5.068,5.068,0,0,0,1.257-3.648A5.129,5.129,0,0,0,18,8.081a4.945,4.945,0,0,0-3.736-1.333H8.741ZM58.974,36.257V0H70.654a17.265,17.265,0,0,1,8.641,2.179,15.387,15.387,0,0,1,5.99,6.151,18.666,18.666,0,0,1,2.179,8.9V18.9a18.771,18.771,0,0,1-2.1,8.927A15.451,15.451,0,0,1,79.431,34,16.868,16.868,0,0,1,70.9,36.257Zm8.741-6.723h3.038a6.827,6.827,0,0,0,5.777-2.677c1.338-1.777,2.017-4.453,2.017-7.956V17.332c0-3.487-.679-6.151-2.017-7.919a6.946,6.946,0,0,0-5.877-2.665H67.715ZM31.853,36.257V0H56.88V6.748H40.594v7.646H54.339v6.5H40.594v8.641H56.83v6.723Z" transform="translate(1836.711 -373.53)" fill="#bf1209"/>
    </g>
  </g>
</svg>
