<svg xmlns="http://www.w3.org/2000/svg" xmlns:xlink="http://www.w3.org/1999/xlink" width="133.757" height="52.012" viewBox="0 0 133.757 52.012">
  <defs>
    <linearGradient id="linear-gradient" x1="0.377" y1="0.279" x2="0.714" y2="1" gradientUnits="objectBoundingBox">
      <stop offset="0" stop-color="#2fd8de"/>
      <stop offset="0.474" stop-color="#4958e0"/>
      <stop offset="1" stop-color="#ff4063"/>
    </linearGradient>
  </defs>
  <g id="icon-12-active" transform="translate(0.5 0.663)">
    <path id="Fill_65_Copy" data-name="Fill 65 Copy" d="M98.611,26.347a8.518,8.518,0,1,1,8.517,8.517A8.52,8.52,0,0,1,98.611,26.347Zm-50.544,8.51L30.61,16.511,11.636,30.773l-5.267-.32a4.332,4.332,0,0,1-3.938-5.383A14.659,14.659,0,0,1,7.9,16.886L30.61,0,48.366,18.346H85.012a9.376,9.376,0,0,1,7.77,4.128,7.374,7.374,0,0,1,0,8.256,9.375,9.375,0,0,1-7.77,4.127Z" transform="translate(8.468)" fill="none" stroke="#979797" stroke-miterlimit="10" stroke-width="1" stroke-dasharray="2 1"/>
    <path id="Fill_66" data-name="Fill 66" d="M4.21,8.423A3.888,3.888,0,0,1,0,4.213,4.005,4.005,0,0,1,4.21,0H128.547a4.055,4.055,0,0,1,4.21,4.213,4.114,4.114,0,0,1-4.21,4.21Z" transform="translate(0 42.426)" fill="none" stroke="#979797" stroke-miterlimit="10" stroke-width="1" stroke-dasharray="2 1"/>
    <g id="Path_2" data-name="Path 2">
      <path id="Path_2-2" data-name="Path 2" d="M42.77,15.12a.5.5,0,0,1-.351.856H1.366A1.366,1.366,0,0,1,0,14.609H0a1.366,1.366,0,0,1,1.366-1.366h5.21a4,4,0,0,0,.809-.083l1.824-.377a4,4,0,0,0,1.531-.673l2.021-1.458L27.457,0,26.77.5A1,1,0,0,1,28.06.6Z" transform="translate(10.032 22.253)" fill="none"/>
      <path id="Path_2-3" data-name="Path 2" d="M42.77,15.12a.5.5,0,0,1-.351.856H1.366A1.366,1.366,0,0,1,0,14.609H0a1.366,1.366,0,0,1,1.366-1.366h5.21a4,4,0,0,0,.809-.083l1.824-.377a4,4,0,0,0,1.531-.673l2.021-1.458L27.457,0,26.77.5A1,1,0,0,1,28.06.6Z" transform="translate(10.032 22.253)" fill="url(#linear-gradient)"/>
    </g>
  </g>
</svg>
