<svg xmlns="http://www.w3.org/2000/svg" xmlns:xlink="http://www.w3.org/1999/xlink" width="58.5" height="80" viewBox="0 0 58.5 80">
  <defs>
    <linearGradient id="linear-gradient" x1="0.203" y1="0.102" x2="0.822" y2="1" gradientUnits="objectBoundingBox">
      <stop offset="0" stop-color="#2fd8de"/>
      <stop offset="0.474" stop-color="#4958e0"/>
      <stop offset="1" stop-color="#ff4063"/>
    </linearGradient>
  </defs>
  <g id="Path_41" data-name="Path 41" transform="translate(-265.999 -134)">
    <path id="Path_41-2" data-name="Path 41" d="M14.73,80a17.949,17.949,0,0,1-5.859-1.3C4.03,77.013,1.108,75.994.086,70.935c-.436-2.158.754-4.2,3.535-6.08a24.964,24.964,0,0,1,6.06-2.831c1.483-.454,5.071-1.683,6.349-3.294,1.039-1.309,9.634-15.063,9.634-15.657a1.332,1.332,0,0,1,.089-.368c.256-.787.855-2.63-1.067-8.446a29.019,29.019,0,0,0-2.763-6.312,39.593,39.593,0,0,1-3.232-7.116c-2.813-5.3-4.487-8.028-5.387-9.5a13.673,13.673,0,0,1-.832-1.448,1.427,1.427,0,0,1,0-1.13,1.546,1.546,0,0,1,.858-.827C14.167,7.6,35.45,0,37.68,0A.48.48,0,0,1,37.8.013c.132.036.255.068.368.1,1.026.267,1.3.339,1.562,1.765.042.23.109.87.211,1.84.572,5.455,2.312,22.054,6.406,26.562,3.213,4.882,3.774,5.407,5.635,7.148.467.437,1,.933,1.673,1.594a12.283,12.283,0,0,1,3.155,3.652A12.594,12.594,0,0,1,58.5,47.685a1.429,1.429,0,0,0-.582,1.234,1.474,1.474,0,0,0,.514,1.188,7.921,7.921,0,0,1-2.146,4.252,16.779,16.779,0,0,1-1.227,1.152h-.041a2.042,2.042,0,0,0-1.047.3,1.914,1.914,0,0,0-.915,1.212c-.435.3-.9.6-1.395.9a1.688,1.688,0,0,0-.514-.077,2.108,2.108,0,0,0-.883.2,1.846,1.846,0,0,0-1.077,1.275c-1.167.621-2.347,1.2-3.487,1.77A34.625,34.625,0,0,0,38.957,65c-1.8,1.563-5.681,4.526-9.656,7.372A88.257,88.257,0,0,1,19.612,78.7,10.881,10.881,0,0,1,14.73,80Zm11.014-8.293a.766.766,0,1,0,.766.766A.767.767,0,0,0,25.744,71.708Zm2.3-1.915a.766.766,0,1,0,.766.766A.767.767,0,0,0,28.042,69.792Zm1.914-1.915a.766.766,0,1,0,.767.766A.767.767,0,0,0,29.957,67.877Zm2.68.089a.932.932,0,0,0-.867.868.464.464,0,0,0,.488.486.865.865,0,0,0,.6-.27.693.693,0,0,0,.135-.949A.483.483,0,0,0,32.637,67.966Zm-.765-2.386a.766.766,0,1,0,.766.766A.767.767,0,0,0,31.872,65.579Zm4.6-1.533a.766.766,0,1,0,.766.766A.767.767,0,0,0,36.468,64.047ZM33.4,63.664a.766.766,0,1,0,.766.766A.767.767,0,0,0,33.4,63.664Zm7.841-4.733a2.023,2.023,0,0,0-1.141.379,1.988,1.988,0,0,0-.774,1.021,1.2,1.2,0,0,0,.13,1.066,1.235,1.235,0,0,0,1.04.489,2.022,2.022,0,0,0,1.141-.379,1.988,1.988,0,0,0,.774-1.021,1.2,1.2,0,0,0-.13-1.066A1.235,1.235,0,0,0,41.245,58.931Zm4.77-1.794a2.2,2.2,0,0,0-.419.041,1.57,1.57,0,0,0-1.436,1.644,1.452,1.452,0,0,0,1.529,1.028,2.183,2.183,0,0,0,.419-.041,1.571,1.571,0,0,0,1.436-1.645A1.451,1.451,0,0,0,46.015,57.137Zm1.369-3.814a1.341,1.341,0,1,0,1.34,1.34A1.342,1.342,0,0,0,47.384,53.323Zm4.979-1.915a1.341,1.341,0,1,0,1.34,1.34A1.342,1.342,0,0,0,52.363,51.408Zm3.83-2.3c-.528,0-.958.6-.958,1.341s.43,1.34.958,1.34.957-.6.957-1.34S56.721,49.109,56.193,49.109Z" transform="translate(266 134)" fill="none"/>
    <path id="Path_41-3" data-name="Path 41" d="M14.73,80a17.949,17.949,0,0,1-5.859-1.3C4.03,77.013,1.108,75.994.086,70.935c-.436-2.158.754-4.2,3.535-6.08a24.964,24.964,0,0,1,6.06-2.831c1.483-.454,5.071-1.683,6.349-3.294,1.039-1.309,9.634-15.063,9.634-15.657a1.332,1.332,0,0,1,.089-.368c.256-.787.855-2.63-1.067-8.446a29.019,29.019,0,0,0-2.763-6.312,39.593,39.593,0,0,1-3.232-7.116c-2.813-5.3-4.487-8.028-5.387-9.5a13.673,13.673,0,0,1-.832-1.448,1.427,1.427,0,0,1,0-1.13,1.546,1.546,0,0,1,.858-.827C14.167,7.6,35.45,0,37.68,0A.48.48,0,0,1,37.8.013c.132.036.255.068.368.1,1.026.267,1.3.339,1.562,1.765.042.23.109.87.211,1.84.572,5.455,2.312,22.054,6.406,26.562,3.213,4.882,3.774,5.407,5.635,7.148.467.437,1,.933,1.673,1.594a12.283,12.283,0,0,1,3.155,3.652A12.594,12.594,0,0,1,58.5,47.685a1.429,1.429,0,0,0-.582,1.234,1.474,1.474,0,0,0,.514,1.188,7.921,7.921,0,0,1-2.146,4.252,16.779,16.779,0,0,1-1.227,1.152h-.041a2.042,2.042,0,0,0-1.047.3,1.914,1.914,0,0,0-.915,1.212c-.435.3-.9.6-1.395.9a1.688,1.688,0,0,0-.514-.077,2.108,2.108,0,0,0-.883.2,1.846,1.846,0,0,0-1.077,1.275c-1.167.621-2.347,1.2-3.487,1.77A34.625,34.625,0,0,0,38.957,65c-1.8,1.563-5.681,4.526-9.656,7.372A88.257,88.257,0,0,1,19.612,78.7,10.881,10.881,0,0,1,14.73,80Zm11.014-8.293a.766.766,0,1,0,.766.766A.767.767,0,0,0,25.744,71.708Zm2.3-1.915a.766.766,0,1,0,.766.766A.767.767,0,0,0,28.042,69.792Zm1.914-1.915a.766.766,0,1,0,.767.766A.767.767,0,0,0,29.957,67.877Zm2.68.089a.932.932,0,0,0-.867.868.464.464,0,0,0,.488.486.865.865,0,0,0,.6-.27.693.693,0,0,0,.135-.949A.483.483,0,0,0,32.637,67.966Zm-.765-2.386a.766.766,0,1,0,.766.766A.767.767,0,0,0,31.872,65.579Zm4.6-1.533a.766.766,0,1,0,.766.766A.767.767,0,0,0,36.468,64.047ZM33.4,63.664a.766.766,0,1,0,.766.766A.767.767,0,0,0,33.4,63.664Zm7.841-4.733a2.023,2.023,0,0,0-1.141.379,1.988,1.988,0,0,0-.774,1.021,1.2,1.2,0,0,0,.13,1.066,1.235,1.235,0,0,0,1.04.489,2.022,2.022,0,0,0,1.141-.379,1.988,1.988,0,0,0,.774-1.021,1.2,1.2,0,0,0-.13-1.066A1.235,1.235,0,0,0,41.245,58.931Zm4.77-1.794a2.2,2.2,0,0,0-.419.041,1.57,1.57,0,0,0-1.436,1.644,1.452,1.452,0,0,0,1.529,1.028,2.183,2.183,0,0,0,.419-.041,1.571,1.571,0,0,0,1.436-1.645A1.451,1.451,0,0,0,46.015,57.137Zm1.369-3.814a1.341,1.341,0,1,0,1.34,1.34A1.342,1.342,0,0,0,47.384,53.323Zm4.979-1.915a1.341,1.341,0,1,0,1.34,1.34A1.342,1.342,0,0,0,52.363,51.408Zm3.83-2.3c-.528,0-.958.6-.958,1.341s.43,1.34.958,1.34.957-.6.957-1.34S56.721,49.109,56.193,49.109Z" transform="translate(266 134)" fill="url(#linear-gradient)"/>
  </g>
</svg>
