<svg xmlns="http://www.w3.org/2000/svg" xmlns:xlink="http://www.w3.org/1999/xlink" width="62.813" height="100.517" viewBox="0 0 62.813 100.517">
  <defs>
    <linearGradient id="linear-gradient" x1="0.203" y1="0.102" x2="0.822" y2="1" gradientUnits="objectBoundingBox">
      <stop offset="0" stop-color="#2fd8de"/>
      <stop offset="0.474" stop-color="#4958e0"/>
      <stop offset="1" stop-color="#ff4063"/>
    </linearGradient>
  </defs>
  <path id="Fill_53" data-name="Fill 53" d="M5.4,48.22V4.735H2.367A2.367,2.367,0,0,1,2.367,0H14.931a2.367,2.367,0,1,1,0,4.735H11.8V48.22c0,1.308-1.993,2.367-3.3,2.367S5.4,49.528,5.4,48.22Z" transform="translate(0 49.913)" fill="url(#linear-gradient)"/>
  <path id="Fill_51" data-name="Fill 51" d="M46.662,95.316l-6.917-25.4a5.74,5.74,0,0,1-.167-.875,5.672,5.672,0,0,1,.483-3.211L46.048,53.06a9.5,9.5,0,0,1-1.1-.966l-17.3-17.756-4.528,9.656a3.633,3.633,0,0,1-1.4,1.562,3.623,3.623,0,0,1-2.216.752H3.637a3.637,3.637,0,1,1,0-7.274H17.373l7.12-15.183a9.421,9.421,0,0,1,15.695-3.63l18.25,18.723a9.418,9.418,0,0,1,2.181,9.59,5.728,5.728,0,0,1-.395,1.138L51.255,68.8l6.4,23.52a5.7,5.7,0,1,1-11,3ZM5.83,10.206A10.206,10.206,0,1,1,16.036,20.413,10.205,10.205,0,0,1,5.83,10.206Z" transform="translate(1.111 0.5)" fill="none" stroke="#979797" stroke-miterlimit="10" stroke-width="1" stroke-dasharray="2 1"/>
</svg>
