<svg xmlns="http://www.w3.org/2000/svg" width="91.269" height="59.001" viewBox="0 0 91.269 59.001">
  <g id="그룹_1" data-name="그룹 1" transform="translate(-1478.5 -19.5)">
    <path id="Rectangle" d="M34.7,1.4v9.415a2,2,0,0,1-2,2H5.314a1,1,0,0,1-.363-1.932L32.5.133A1.531,1.531,0,0,1,34.7,1.4Z" transform="translate(1535.066 63.9)" fill="#333"/>
    <g id="Group_41" data-name="Group 41" transform="translate(1479 20)">
      <path id="Fill_63" data-name="Fill 63" d="M35.387,54.142a3.978,3.978,0,0,1,2.776-3.913V43.275H29.634c.012.171.02.342.025.515A13.8,13.8,0,1,1,12.145,30.911L7.354,14.451c-.019-.065-.035-.13-.05-.194L5.448,7.879H1.3a1.3,1.3,0,1,1,0-2.6h5.04a1.054,1.054,0,0,1,.107,0,1.3,1.3,0,0,1,1.225.936l1.315,4.516a3.165,3.165,0,0,1,4.433,1.951l4.092,14.06h1.18V25.112a1.84,1.84,0,0,1,.5-1.211l3.928-3.928v-2.7a5.184,5.184,0,1,1,10.369,0v9.473h5.872a1.2,1.2,0,0,1,1.2,1.2c0,.014,0,.03,0,.044V30.2h3.766a3.091,3.091,0,0,1,2.227.944,3.126,3.126,0,0,1,.249.271l9.467,11.611a3.1,3.1,0,0,1-4.8,3.916l-8.6-10.545H40.559v2.048a3.481,3.481,0,0,1,1.57,1l8.558,10.652a2.455,2.455,0,0,1,.3.465h8.94a1.761,1.761,0,1,1,0,3.522H48.685a1.772,1.772,0,0,1-.506-.074,2.442,2.442,0,0,1-1.314-.841l-6.306-7.852v4.914A3.978,3.978,0,0,1,39.48,58l-.118,0A3.977,3.977,0,0,1,35.387,54.142ZM28.379,38.373h9.784V36.394H27.247A13.757,13.757,0,0,1,28.379,38.373Zm-5.065-5.791a5.186,5.186,0,0,1-.194-1.409V29.141H21.867v2.631A13.8,13.8,0,0,1,23.314,32.582Zm-4.653-1.9.032.007v-1.55h-.482Zm19.5-.487V29.141H33.489V30.2ZM23.12,26.745V24.459l-1.253,1.252v1.034Zm.217-21.763a4.983,4.983,0,1,1,4.984,4.982A4.983,4.983,0,0,1,23.337,4.982Z" fill="none" stroke="#979797" stroke-miterlimit="10" stroke-width="1" stroke-dasharray="2 1"/>
    </g>
  </g>
</svg>
