<?xml version="1.0" encoding="UTF-8"?>
<svg width="119px" height="76px" viewBox="0 0 119 76" version="1.1" xmlns="http://www.w3.org/2000/svg" xmlns:xlink="http://www.w3.org/1999/xlink">
    <title>Group 6</title>
    <g id="Page-1" stroke="none" stroke-width="1" fill="none" fill-rule="evenodd">
        <g id="Artboard" transform="translate(-73.000000, -1307.000000)">
            <g id="Group-6" transform="translate(73.000000, 1307.000000)">
                <rect id="Rectangle" x="0" y="0" width="118" height="76"></rect>
                <path d="M18.4928365,43.2000962 L11.998125,43.2000962 L11.998125,60.77 L0,60.77 L0,11 L19.5866827,11 C25.4888942,11 30.1035577,12.3103365 33.4306731,14.9310096 C36.7577885,17.5516827 38.4213462,21.2548077 38.4213462,26.0403846 C38.4213462,29.5042308 37.720601,32.3755769 36.3191106,34.6544231 C34.9176202,36.9332692 32.7242308,38.7791346 29.7389423,40.1920192 L40.1304808,60.2572596 L40.1304808,60.77 L27.2777885,60.77 L18.4928365,43.2000962 Z M11.998125,33.9365865 L19.5866827,33.9365865 C21.8655288,33.9365865 23.5803606,33.3383894 24.7311779,32.1419952 C25.8819952,30.945601 26.4574038,29.2763462 26.4574038,27.1342308 C26.4574038,24.9921154 25.8762981,23.3114663 24.7140865,22.0922837 C23.551875,20.873101 21.8427404,20.2635096 19.5866827,20.2635096 L11.998125,20.2635096 L11.998125,33.9365865 Z M73.618125,39.6792788 L54.7492788,39.6792788 L54.7492788,51.5406731 L77.0363942,51.5406731 L77.0363942,60.77 L42.7511538,60.77 L42.7511538,11 L77.1047596,11 L77.1047596,20.2635096 L54.7492788,20.2635096 L54.7492788,30.7575962 L73.618125,30.7575962 L73.618125,39.6792788 Z M79.0075962,60.77 L79.0075962,11 L95.0392788,11 C99.4374519,11 103.39125,11.9969952 106.900673,13.9909856 C110.410096,15.984976 113.150409,18.799351 115.121611,22.4341106 C117.092812,26.0688702 118.089808,30.1423077 118.112596,34.6544231 L118.112596,36.9446635 C118.112596,41.5023558 117.149784,45.5871875 115.224159,49.1991587 C113.298534,52.8111298 110.586707,55.636899 107.088678,57.6764663 C103.590649,59.7160337 99.688125,60.7472115 95.3811058,60.77 L79.0075962,60.77 Z M91.0057212,20.2635096 L91.0057212,51.5406731 L95.1760096,51.5406731 C98.6170673,51.5406731 101.260529,50.3157933 103.106394,47.8660337 C104.95226,45.416274 105.875192,41.7758173 105.875192,36.9446635 L105.875192,34.7911538 C105.875192,29.9827885 104.95226,26.3594231 103.106394,23.9210577 C101.260529,21.4826923 98.5714904,20.2635096 95.0392788,20.2635096 L91.0057212,20.2635096 Z" id="Combined-Shape-Copy-2" fill="#BF1209" fill-rule="nonzero"></path>
            </g>
        </g>
    </g>
</svg>