<svg xmlns="http://www.w3.org/2000/svg" width="70" height="76.291" viewBox="0 0 70 76.291">
  <path id="Combined_Shape" data-name="Combined Shape" d="M43.845,76.291a2.2,2.2,0,0,1-2.1-1.551h-.113V61.782H36.4c-.059-.518-.113-1.007-.169-1.5l-.084-.742-1.074-.193-.83-.149V22.763l1.688-.334.231-.046c.049-.562.095-1.109.144-1.691l.07-.828h5.247V1.673H41.7A2.213,2.213,0,0,1,43.845,0H67.781A2.221,2.221,0,0,1,70,2.219V74.074a2.221,2.221,0,0,1-2.219,2.218ZM40.059,27.076V54.455l.815.166.006,0,.747.151V26.835C41.153,26.907,40.658,26.984,40.059,27.076ZM.9,76.291a.9.9,0,0,1-.9-.9V66.206a.9.9,0,0,1,.9-.9H3.54a.9.9,0,0,0,.9-.9V56.247a.9.9,0,0,1,.9-.9h2.81a.9.9,0,0,0,.9-.9V46.288a.9.9,0,0,1,.9-.9h2.7a.9.9,0,0,0,.9-.9V36.33a.9.9,0,0,1,.9-.9h2.7a.9.9,0,0,0,.9-.9V26.371a.9.9,0,0,1,.9-.9h8.511a.9.9,0,0,1,.9.9V75.393a.9.9,0,0,1-.9.9Z" fill="#527373"/>
</svg>
