<svg xmlns="http://www.w3.org/2000/svg" width="74.449" height="100.5" viewBox="0 0 74.449 100.5">
  <g id="Group_66" data-name="Group 66" transform="translate(0 0.5)">
    <path id="Fill_49" data-name="Fill 49" d="M68.329,36.374H6.12A6.127,6.127,0,0,1,0,30.254V6.122A6.127,6.127,0,0,1,6.12,0H25.5v7.06a2.691,2.691,0,0,0,0,2.813v6.9a2.691,2.691,0,0,0,0,2.813v1.248a4.27,4.27,0,0,0,8.54,0V0H44.588l1.043,5.984a2.688,2.688,0,0,0,.9,5.167l.771,4.426a2.687,2.687,0,1,0,.946,4.773,4.215,4.215,0,0,0,3.882,2.566,4.236,4.236,0,0,0,3.637-2.064,2.549,2.549,0,0,0,.323.02,2.687,2.687,0,1,0,0-5.373c-.076,0-.15,0-.218.009l-.793-4.551A2.687,2.687,0,1,0,54.3,6.47L53.171,0H68.329a6.127,6.127,0,0,1,6.12,6.12V30.254A6.127,6.127,0,0,1,68.329,36.374Zm-2.8-11.155a2.687,2.687,0,1,0,2.687,2.687A2.688,2.688,0,0,0,65.524,25.219Zm-9.434,0a2.687,2.687,0,1,0,2.687,2.687A2.688,2.688,0,0,0,56.091,25.219Zm-9.434,0a2.687,2.687,0,1,0,2.687,2.687A2.688,2.688,0,0,0,46.657,25.219Zm-9.435,0a2.687,2.687,0,1,0,2.687,2.687A2.688,2.688,0,0,0,37.222,25.219Zm-9.434,0a2.687,2.687,0,1,0,2.687,2.687A2.688,2.688,0,0,0,27.788,25.219Zm-9.434,0a2.687,2.687,0,1,0,2.687,2.687A2.688,2.688,0,0,0,18.355,25.219Zm-9.434,0a2.687,2.687,0,1,0,2.686,2.687A2.688,2.688,0,0,0,8.921,25.219Zm56.6-9.718a2.687,2.687,0,1,0,2.687,2.686A2.688,2.688,0,0,0,65.524,15.5Zm-28.3,0a2.687,2.687,0,1,0,2.687,2.686A2.688,2.688,0,0,0,37.222,15.5Zm-18.868,0a2.687,2.687,0,1,0,2.687,2.686A2.688,2.688,0,0,0,18.355,15.5Zm-9.434,0a2.687,2.687,0,1,0,2.686,2.686A2.688,2.688,0,0,0,8.921,15.5Zm56.6-9.718a2.687,2.687,0,1,0,2.687,2.687A2.688,2.688,0,0,0,65.524,5.783Zm-28.3,0a2.687,2.687,0,1,0,2.687,2.687A2.688,2.688,0,0,0,37.222,5.783Zm-18.868,0a2.687,2.687,0,1,0,2.687,2.687A2.688,2.688,0,0,0,18.355,5.783Zm-9.434,0a2.687,2.687,0,1,0,2.686,2.687A2.688,2.688,0,0,0,8.921,5.783Z" transform="translate(0 63.627)" fill="#fff"/>
    <path id="Fill_61" data-name="Fill 61" d="M15.971,84.469V41.318q0-.062,0-.123V29.71L6.513,46.1A3.489,3.489,0,1,1,.47,42.607L12.026,22.59a3.49,3.49,0,0,1,3.6-1.7,4.316,4.316,0,0,1,.57-.038H32.752a4.314,4.314,0,0,1,.606.043,3.49,3.49,0,0,1,3.631,1.693L48.545,42.607A3.489,3.489,0,1,1,42.5,46.1L32.979,29.6V46.849l8.577,10.244a4.212,4.212,0,0,1,1.374,2.45L46.77,81.59a4.227,4.227,0,1,1-8.329,1.452L34.81,62.206,25.3,50.846h-.785V84.469a4.27,4.27,0,0,1-8.54,0Zm.04-75.97a8.5,8.5,0,1,1,8.5,8.5A8.5,8.5,0,0,1,16.012,8.5Z" transform="translate(9.53)" fill="none" stroke="#fff" stroke-width="1" stroke-dasharray="2 1"/>
  </g>
</svg>
