<svg xmlns="http://www.w3.org/2000/svg" xmlns:xlink="http://www.w3.org/1999/xlink" width="86.087" height="48.818" viewBox="0 0 86.087 48.818">
  <defs>
    <linearGradient id="linear-gradient" x1="1" y1="0.763" x2="0" y2="0.254" gradientUnits="objectBoundingBox">
      <stop offset="0" stop-color="#0a780a"/>
      <stop offset="0.22" stop-color="#09800b"/>
      <stop offset="0.473" stop-color="#0ea611"/>
      <stop offset="0.71" stop-color="#08850c"/>
      <stop offset="1" stop-color="#068f0d"/>
    </linearGradient>
  </defs>
  <g id="그룹_3" data-name="그룹 3" transform="translate(-889 -82)">
    <path id="Path_2" data-name="Path 2" d="M21.6,7.261a2.641,2.641,0,0,1-.833-2.024V.1h1.884V5.274q.032,1.28,1.184,1.28a1.143,1.143,0,0,0,.88-.321,1.5,1.5,0,0,0,.3-1.044V.1h1.874V5.2a2.938,2.938,0,0,1-.369,1.5,2.385,2.385,0,0,1-1.057.967A3.705,3.705,0,0,1,23.839,8,3.21,3.21,0,0,1,21.6,7.261Zm-6.944.282a3.125,3.125,0,0,1-1.2-1.308,4.489,4.489,0,0,1-.451-1.952V3.845a4.642,4.642,0,0,1,.418-2.019,3.116,3.116,0,0,1,1.2-1.35A3.543,3.543,0,0,1,18.17.471a3.184,3.184,0,0,1,1.2,1.339A4.521,4.521,0,0,1,19.807,3.8v.358a4.634,4.634,0,0,1-.421,2.016,3.143,3.143,0,0,1-1.2,1.35A3.342,3.342,0,0,1,16.42,8,3.39,3.39,0,0,1,14.66,7.543Zm.262-3.955-.005.572a3.4,3.4,0,0,0,.378,1.76,1.245,1.245,0,0,0,1.126.615,1.229,1.229,0,0,0,1.094-.6A3.285,3.285,0,0,0,17.9,4.192V3.834a3.309,3.309,0,0,0-.386-1.762,1.247,1.247,0,0,0-1.107-.6C15.476,1.471,14.975,2.183,14.922,3.588ZM59.173,7.9H57.3V.145h3.058A3.426,3.426,0,0,1,62.52.758,2.083,2.083,0,0,1,63.3,2.489a2.533,2.533,0,0,1-.328,1.343,2.35,2.35,0,0,1-1.027.864l1.622,3.128V7.9H61.56L60.188,5.165H59.174V7.9h0Zm0-4.184h1.185a1.072,1.072,0,0,0,.8-.28,1.084,1.084,0,0,0,.269-.78,1.1,1.1,0,0,0-.272-.787,1.061,1.061,0,0,0-.8-.284H59.174ZM7.992,7.9H6.121V.145H9.179A3.43,3.43,0,0,1,11.34.758a2.086,2.086,0,0,1,.779,1.732,2.533,2.533,0,0,1-.328,1.343,2.355,2.355,0,0,1-1.027.864l1.622,3.128V7.9H10.38L9.008,5.165H7.994V7.9h0Zm0-4.184H9.179a1.075,1.075,0,0,0,.8-.28,1.084,1.084,0,0,0,.269-.78,1.1,1.1,0,0,0-.272-.787,1.061,1.061,0,0,0-.8-.284H7.994ZM79.45,7.9V1.589H77.157V.145h6.505V1.589H81.327V7.9Zm-7.98,0V.145h5.35V1.589H73.338V3.225h2.938V4.615H73.338v1.85h3.47V7.9Zm-2.747,0L67.072,5.016l-.768.841V7.9h-1.87V.145H66.3V3.566l.65-.986L68.627.145H70.94L68.318,3.577,70.94,7.9ZM54.31,6.455H51.746L51.3,7.9h-2L52.146.145H53.9L56.771,7.9l-2.009,0ZM52.195,5.01h1.668l-.837-2.691ZM46.845,7.9V6.092l.182-3.709L45.149,7.9H43.911L42.028,2.378l.182,3.714V7.9H40.337V.145H42.8l1.733,5.4,1.728-5.4h2.465V7.9Zm-12.337,0V6.092l.182-3.709L32.811,7.9H31.574L29.691,2.378l.181,3.714V7.9H28V.145h2.459l1.734,5.4,1.728-5.4h2.464V7.9ZM0,7.9V.145H5.35V1.589H1.868V3.225H4.807V4.615H1.868v1.85h3.47V7.9Z" transform="translate(889 82)" fill="#08860c" opacity="0.45"/>
    <g id="Group_2_Copy_2" data-name="Group 2 Copy 2" transform="translate(898.897 94.558)">
      <g id="VIP_Copy" data-name="VIP Copy">
        <path id="VIP_Copy-2" data-name="VIP Copy" d="M56.389,36.26H47.65V0H62.119a16.933,16.933,0,0,1,7.359,1.532A11.586,11.586,0,0,1,74.434,5.89,11.959,11.959,0,0,1,76.189,12.3a11.607,11.607,0,0,1-.949,4.773,10.335,10.335,0,0,1-2.849,3.707c-2.52,2.107-6.026,3.175-10.422,3.175H56.39v12.3h0Zm0-19.051h5.729a5.426,5.426,0,0,0,3.873-1.271,4.736,4.736,0,0,0,1.332-3.586,5.859,5.859,0,0,0-1.37-4.06,4.869,4.869,0,0,0-3.735-1.544H56.39ZM34.981,36.26V0H43.7V36.26Zm-22.878,0L0,0H9.688l7.2,26.4L24.107,0h9.762l-12.2,36.26Z" fill="#333"/>
        <path id="VIP_Copy-3" data-name="VIP Copy" d="M56.389,36.26H47.65V0H62.119a16.933,16.933,0,0,1,7.359,1.532A11.586,11.586,0,0,1,74.434,5.89,11.959,11.959,0,0,1,76.189,12.3a11.607,11.607,0,0,1-.949,4.773,10.335,10.335,0,0,1-2.849,3.707c-2.52,2.107-6.026,3.175-10.422,3.175H56.39v12.3h0Zm0-19.051h5.729a5.426,5.426,0,0,0,3.873-1.271,4.736,4.736,0,0,0,1.332-3.586,5.859,5.859,0,0,0-1.37-4.06,4.869,4.869,0,0,0-3.735-1.544H56.39ZM34.981,36.26V0H43.7V36.26Zm-22.878,0L0,0H9.688l7.2,26.4L24.107,0h9.762l-12.2,36.26Z" fill="url(#linear-gradient)"/>
      </g>
    </g>
  </g>
</svg>
