<svg xmlns="http://www.w3.org/2000/svg" xmlns:xlink="http://www.w3.org/1999/xlink" width="147.763" height="48.811" viewBox="0 0 147.763 48.811">
  <defs>
    <linearGradient id="linear-gradient" x1="1.06" x2="-0.078" gradientUnits="objectBoundingBox">
      <stop offset="0" stop-color="#57616b"/>
      <stop offset="0.227" stop-color="#9d9ea1"/>
      <stop offset="0.32" stop-color="#e9e9e9"/>
      <stop offset="0.551" stop-color="#a0a3a6"/>
      <stop offset="0.775" stop-color="#c1c3c5"/>
      <stop offset="1" stop-color="#abaeb1"/>
    </linearGradient>
  </defs>
  <g id="그룹_4" data-name="그룹 4" transform="translate(-337 -398)">
    <path id="Path_2" data-name="Path 2" d="M21.6,7.261a2.641,2.641,0,0,1-.833-2.024V.1h1.884V5.274q.032,1.28,1.184,1.28a1.143,1.143,0,0,0,.88-.321,1.5,1.5,0,0,0,.3-1.044V.1h1.874V5.2a2.938,2.938,0,0,1-.369,1.5,2.385,2.385,0,0,1-1.057.967A3.705,3.705,0,0,1,23.839,8,3.21,3.21,0,0,1,21.6,7.261Zm-6.944.282a3.125,3.125,0,0,1-1.2-1.308,4.489,4.489,0,0,1-.451-1.952V3.845a4.642,4.642,0,0,1,.418-2.019,3.116,3.116,0,0,1,1.2-1.35A3.543,3.543,0,0,1,18.17.471a3.184,3.184,0,0,1,1.2,1.339A4.521,4.521,0,0,1,19.807,3.8v.358a4.634,4.634,0,0,1-.421,2.016,3.143,3.143,0,0,1-1.2,1.35A3.342,3.342,0,0,1,16.42,8,3.39,3.39,0,0,1,14.66,7.543Zm.262-3.955-.005.572a3.4,3.4,0,0,0,.378,1.76,1.245,1.245,0,0,0,1.126.615,1.229,1.229,0,0,0,1.094-.6A3.285,3.285,0,0,0,17.9,4.192V3.834a3.309,3.309,0,0,0-.386-1.762,1.247,1.247,0,0,0-1.107-.6C15.476,1.471,14.975,2.183,14.922,3.588ZM59.173,7.9H57.3V.145h3.058A3.426,3.426,0,0,1,62.52.758,2.083,2.083,0,0,1,63.3,2.489a2.533,2.533,0,0,1-.328,1.343,2.35,2.35,0,0,1-1.027.864l1.622,3.128V7.9H61.56L60.188,5.165H59.174V7.9h0Zm0-4.184h1.185a1.072,1.072,0,0,0,.8-.28,1.084,1.084,0,0,0,.269-.78,1.1,1.1,0,0,0-.272-.787,1.061,1.061,0,0,0-.8-.284H59.174ZM7.992,7.9H6.121V.145H9.179A3.43,3.43,0,0,1,11.34.758a2.086,2.086,0,0,1,.779,1.732,2.533,2.533,0,0,1-.328,1.343,2.355,2.355,0,0,1-1.027.864l1.622,3.128V7.9H10.38L9.008,5.165H7.994V7.9h0Zm0-4.184H9.179a1.075,1.075,0,0,0,.8-.28,1.084,1.084,0,0,0,.269-.78,1.1,1.1,0,0,0-.272-.787,1.061,1.061,0,0,0-.8-.284H7.994ZM79.45,7.9V1.589H77.157V.145h6.505V1.589H81.327V7.9Zm-7.98,0V.145h5.35V1.589H73.338V3.225h2.938V4.615H73.338v1.85h3.47V7.9Zm-2.747,0L67.072,5.016l-.768.841V7.9h-1.87V.145H66.3V3.566l.65-.986L68.627.145H70.94L68.318,3.577,70.94,7.9ZM54.31,6.455H51.746L51.3,7.9h-2L52.146.145H53.9L56.771,7.9l-2.009,0ZM52.195,5.01h1.668l-.837-2.691ZM46.845,7.9V6.092l.182-3.709L45.149,7.9H43.911L42.028,2.378l.182,3.714V7.9H40.337V.145H42.8l1.733,5.4,1.728-5.4h2.465V7.9Zm-12.337,0V6.092l.182-3.709L32.811,7.9H31.574L29.691,2.378l.181,3.714V7.9H28V.145h2.459l1.734,5.4,1.728-5.4h2.464V7.9ZM0,7.9V.145H5.35V1.589H1.868V3.225H4.807V4.615H1.868v1.85h3.47V7.9Z" transform="translate(397 398)" fill="#333" opacity="0.45"/>
    <g id="Group_7_Copy_4" data-name="Group 7 Copy 4" transform="translate(337 410.551)">
      <g id="SILVER">
        <g id="Combined_Shape" data-name="Combined Shape">
          <path id="Combined_Shape-2" data-name="Combined Shape" d="M6.993,34.721A11.7,11.7,0,0,1,1.758,30.5,10.988,10.988,0,0,1,0,24.335H8.532A5.412,5.412,0,0,0,10,28.516q1.466,1.346,4.763,1.346a5.477,5.477,0,0,0,3.333-.909A3,3,0,0,0,19.318,26.4,3.494,3.494,0,0,0,18,23.486a16.409,16.409,0,0,0-4.641-2.157,44.394,44.394,0,0,1-5.43-2.157Q1.066,15.8,1.067,9.913A8.3,8.3,0,0,1,2.776,4.739,11.047,11.047,0,0,1,7.61,1.248,18.812,18.812,0,0,1,14.639,0a16.464,16.464,0,0,1,6.823,1.357,10.8,10.8,0,0,1,4.691,3.866,10.1,10.1,0,0,1,1.672,5.732H19.342A4.266,4.266,0,0,0,18.021,7.61a5.15,5.15,0,0,0-3.575-1.187,5.8,5.8,0,0,0-3.6,1.005A3.086,3.086,0,0,0,9.526,9.986a3.108,3.108,0,0,0,1.454,2.46,18.335,18.335,0,0,0,5.114,2.279A31.242,31.242,0,0,1,22.1,17.257q5.72,3.3,5.72,9.089a8.618,8.618,0,0,1-3.49,7.271q-3.491,2.642-9.574,2.642A18.992,18.992,0,0,1,6.993,34.721Zm120.821,1.056h-8.507V.485H133.2c4.165,0,7.467.938,9.816,2.787a9.489,9.489,0,0,1,3.539,7.878,11.535,11.535,0,0,1-1.491,6.107,10.63,10.63,0,0,1-4.666,3.927l7.368,14.228v.363H138.65l-6.229-12.459h-4.605V35.776h0Zm0-19.028H133.2a4.862,4.862,0,0,0,3.648-1.273,4.94,4.94,0,0,0,1.224-3.551,4.992,4.992,0,0,0-1.237-3.575,4.81,4.81,0,0,0-3.635-1.3h-5.381ZM93.6,35.775V.485h24.359V7.053H102.107v7.441h13.379v6.326H102.107v8.41h15.8v6.544Zm-21.685,0L60.134.485h9.428l7,25.692L83.6.485h9.5L81.221,35.775Zm-28.884,0V.485h8.507V29.231H66.347v6.544Zm-12.329,0V.485h8.483v35.29Z" fill="#333"/>
          <path id="Combined_Shape-3" data-name="Combined Shape" d="M6.993,34.721A11.7,11.7,0,0,1,1.758,30.5,10.988,10.988,0,0,1,0,24.335H8.532A5.412,5.412,0,0,0,10,28.516q1.466,1.346,4.763,1.346a5.477,5.477,0,0,0,3.333-.909A3,3,0,0,0,19.318,26.4,3.494,3.494,0,0,0,18,23.486a16.409,16.409,0,0,0-4.641-2.157,44.394,44.394,0,0,1-5.43-2.157Q1.066,15.8,1.067,9.913A8.3,8.3,0,0,1,2.776,4.739,11.047,11.047,0,0,1,7.61,1.248,18.812,18.812,0,0,1,14.639,0a16.464,16.464,0,0,1,6.823,1.357,10.8,10.8,0,0,1,4.691,3.866,10.1,10.1,0,0,1,1.672,5.732H19.342A4.266,4.266,0,0,0,18.021,7.61a5.15,5.15,0,0,0-3.575-1.187,5.8,5.8,0,0,0-3.6,1.005A3.086,3.086,0,0,0,9.526,9.986a3.108,3.108,0,0,0,1.454,2.46,18.335,18.335,0,0,0,5.114,2.279A31.242,31.242,0,0,1,22.1,17.257q5.72,3.3,5.72,9.089a8.618,8.618,0,0,1-3.49,7.271q-3.491,2.642-9.574,2.642A18.992,18.992,0,0,1,6.993,34.721Zm120.821,1.056h-8.507V.485H133.2c4.165,0,7.467.938,9.816,2.787a9.489,9.489,0,0,1,3.539,7.878,11.535,11.535,0,0,1-1.491,6.107,10.63,10.63,0,0,1-4.666,3.927l7.368,14.228v.363H138.65l-6.229-12.459h-4.605V35.776h0Zm0-19.028H133.2a4.862,4.862,0,0,0,3.648-1.273,4.94,4.94,0,0,0,1.224-3.551,4.992,4.992,0,0,0-1.237-3.575,4.81,4.81,0,0,0-3.635-1.3h-5.381ZM93.6,35.775V.485h24.359V7.053H102.107v7.441h13.379v6.326H102.107v8.41h15.8v6.544Zm-21.685,0L60.134.485h9.428l7,25.692L83.6.485h9.5L81.221,35.775Zm-28.884,0V.485h8.507V29.231H66.347v6.544Zm-12.329,0V.485h8.483v35.29Z" fill="url(#linear-gradient)"/>
        </g>
      </g>
    </g>
  </g>
</svg>
