<?xml version="1.0" encoding="UTF-8"?>
<svg width="179px" height="163px" viewBox="0 0 179 163" version="1.1" xmlns="http://www.w3.org/2000/svg" xmlns:xlink="http://www.w3.org/1999/xlink">
    <title>Group 12</title>
    <defs>
        <linearGradient x1="50%" y1="0%" x2="50%" y2="100%" id="linearGradient-1">
            <stop stop-color="#FE98B1" offset="0%"></stop>
            <stop stop-color="#E672DC" offset="37.7622378%"></stop>
            <stop stop-color="#8E66F9" offset="100%"></stop>
        </linearGradient>
        <filter x="-25.2%" y="-29.1%" width="150.4%" height="158.3%" filterUnits="objectBoundingBox" id="filter-2">
            <feGaussianBlur stdDeviation="10" in="SourceGraphic"></feGaussianBlur>
        </filter>
        <polygon id="path-3" points="7.38613435e-14 1.84689072e-13 7.42848401 1.84689072e-13 7.42848401 7.42848401 7.38613435e-14 7.42848401"></polygon>
        <polygon id="path-5" points="5.53960076e-14 1.38516804e-13 5.57136301 1.38516804e-13 5.57136301 5.57136301 5.53960076e-14 5.57136301"></polygon>
        <path d="M14.49,19.2020261 C14.43,20.1020261 15.18,20.6120261 15.84,20.6120261 C16.38,20.6120261 17.16,20.2220261 17.16,19.1420261 C17.16,16.4120261 17.13,13.7420261 17.22,11.0120261 C18.51,11.0120261 19.53,11.0120261 20.61,10.9820261 C21.54,11.0120261 21.99,10.2620261 21.96,9.63202615 C21.93,9.06202615 21.39,8.55202615 20.58,8.52202615 C19.86,8.55202615 19.23,8.55202615 17.22,8.55202615 C17.22,5.82202615 17.22,2.79202615 17.16,1.11202615 C17.07,0.272026148 16.35,-0.0279738516 15.69,0.00202614841 C15,0.0620261484 14.34,0.482026148 14.43,1.20202615 L14.55,10.5020261 L14.49,19.2020261 Z M2.7,1.98202615 C2.73,1.17202615 1.95,0.842026148 1.32,0.842026148 C0.66,0.842026148 -0.03,1.26202615 0.03,2.01202615 C0,2.52202615 0,3.75202615 0,5.25202615 C0,7.50202615 0.03,11.1920261 0.06,13.9220261 C0.09,15.0920261 0.84,15.4520261 1.53,15.4520261 L7.95,15.4520261 C9.69,15.4520261 10.05,15.1220261 10.2,13.7120261 C10.38,11.7620261 10.38,3.03202615 10.38,2.22202615 C10.38,1.56202615 10.05,0.932026148 9.3,0.902026148 C8.01,0.842026148 7.83,1.68202615 7.83,2.28202615 C7.83,3.27202615 7.89,5.04202615 7.77,6.21202615 C5.94,6.21202615 4.41,6.27202615 2.61,6.27202615 C2.61,4.83202615 2.64,3.24202615 2.7,1.98202615 Z M2.55,13.1720261 C2.55,12.6320261 2.58,11.6120261 2.58,11.0120261 C2.61,10.1420261 2.61,9.36202615 2.61,8.58202615 C4.44,8.58202615 5.91,8.55202615 7.68,8.55202615 C7.65,9.06202615 7.65,10.4420261 7.65,10.8920261 C7.62,11.7920261 7.65,12.5420261 7.62,13.2020261 L2.55,13.1720261 Z M5.7,24.7520261 C5.4,24.7520261 5.34,24.7520261 5.31,24.2120261 C5.28,23.3120261 5.37,22.2620261 5.37,21.8420261 C5.37,21.3020261 5.4,21.0920261 5.4,19.8320261 C5.4,18.9320261 4.68,18.4820261 4.17,18.4820261 C3.33,18.4820261 2.58,18.8420261 2.58,19.8320261 C2.58,21.3320261 2.58,23.2820261 2.55,24.9020261 C2.58,26.6120261 3.18,27.2420261 4.89,27.2420261 C7.2,27.2120261 8.16,27.2120261 9.57,27.2120261 L12.6,27.2120261 C13.62,27.2120261 14.61,27.1520261 16.14,27.1220261 C17.34,27.0920261 17.46,26.5820261 17.4,25.7420261 C17.37,25.2020261 17.07,24.7220261 15.99,24.7220261 C13.77,24.7220261 11.22,24.8420261 9.57,24.8420261 C8.07,24.8420261 7.53,24.7820261 5.7,24.7520261 Z" id="path-7"></path>
        <filter x="-29.6%" y="-20.2%" width="159.2%" height="147.7%" filterUnits="objectBoundingBox" id="filter-8">
            <feOffset dx="0" dy="1" in="SourceAlpha" result="shadowOffsetOuter1"></feOffset>
            <feGaussianBlur stdDeviation="2" in="shadowOffsetOuter1" result="shadowBlurOuter1"></feGaussianBlur>
            <feColorMatrix values="0 0 0 0 0   0 0 0 0 0   0 0 0 0 0  0 0 0 0.0967548077 0" type="matrix" in="shadowBlurOuter1"></feColorMatrix>
        </filter>
        <path d="M38.55,25.6220261 C38.55,26.2820261 38.82,27.0320261 39.93,27.0320261 C40.56,27.0320261 40.98,26.9120261 41.19,26.1320261 C41.31,25.7420261 41.25,25.1420261 41.25,24.3920261 C41.22,21.8420261 41.16,18.7220261 41.16,16.1720261 C41.16,14.9720261 41.13,14.0420261 41.13,12.8720261 C42.12,12.8420261 43.92,12.8720261 44.85,12.8420261 C45.69,12.8120261 46.17,12.2120261 46.17,11.6120261 C46.17,11.0120261 45.78,10.4420261 44.82,10.4420261 C44.07,10.4420261 42.78,10.5920261 41.19,10.4420261 C41.19,7.65202615 41.19,5.16202615 41.13,3.00202615 C41.1,2.28202615 41.1,1.71202615 41.1,1.23202615 C41.1,0.512026148 40.65,-0.0579738516 39.63,0.0320261484 C38.97,0.0920261484 38.34,0.572026148 38.4,1.41202615 C38.58,4.20202615 38.55,15.6320261 38.55,25.6220261 Z M24.96,4.38202615 C25.44,4.38202615 26.85,4.35202615 27.96,4.32202615 C29.34,4.29202615 31.5,4.29202615 31.95,4.29202615 C32.37,4.29202615 32.37,4.44202615 32.28,4.71202615 C31.14,9.78202615 27.6,14.8820261 23.76,18.3620261 C23.34,18.7220261 22.89,19.5920261 23.28,20.1020261 C23.79,20.7620261 24.78,20.4320261 25.23,20.0720261 C30.21,16.0520261 34.05,9.99202615 35.16,4.38202615 C35.22,4.05202615 35.28,3.78202615 35.28,3.48202615 C35.28,2.22202615 34.53,1.80202615 33.24,1.92202615 C31.74,2.04202615 30.24,2.04202615 28.74,2.10202615 C26.82,2.16202615 25.71,2.10202615 25.02,2.07202615 C24.09,1.98202615 23.58,2.58202615 23.58,3.21202615 C23.58,3.81202615 24.03,4.38202615 24.96,4.38202615 Z" id="path-9"></path>
        <filter x="-28.2%" y="-20.4%" width="156.4%" height="148.1%" filterUnits="objectBoundingBox" id="filter-10">
            <feOffset dx="0" dy="1" in="SourceAlpha" result="shadowOffsetOuter1"></feOffset>
            <feGaussianBlur stdDeviation="2" in="shadowOffsetOuter1" result="shadowBlurOuter1"></feGaussianBlur>
            <feColorMatrix values="0 0 0 0 0   0 0 0 0 0   0 0 0 0 0  0 0 0 0.0967548077 0" type="matrix" in="shadowBlurOuter1"></feColorMatrix>
        </filter>
        <path d="M64.92,12.5120261 C61.08,12.5720261 57.12,12.6320261 53.4,12.5720261 C52.38,12.5420261 50.49,12.4520261 49.35,12.4220261 C49.02,12.4220261 48.33,12.3620261 48.06,12.3920261 C47.34,12.4820261 46.86,12.7820261 46.77,13.5020261 C46.68,14.3120261 47.04,14.7320261 47.67,14.8820261 C48.09,14.9420261 49.14,14.9420261 49.5,14.9420261 C51.78,15.0020261 54.36,15.0020261 56.64,15.0020261 L56.64,17.9420261 L51.99,17.9420261 C51.18,17.9420261 50.4,18.0920261 50.4,19.2620261 C50.4,23.2520261 50.37,24.5420261 50.37,25.5320261 C50.37,26.8220261 50.88,27.4220261 52.59,27.4220261 C57.75,27.4220261 58.77,27.4220261 63.69,27.2120261 C64.56,27.1820261 65.19,26.8220261 65.22,25.8320261 C65.28,23.8820261 65.28,19.2320261 65.28,19.2320261 C65.31,18.2120261 64.74,17.8820261 63.96,17.8820261 C62.55,17.8820261 60.9,17.9420261 59.34,17.9420261 L59.34,15.7220261 L59.34,15.0020261 C61.26,15.0020261 63.12,14.9720261 65.37,14.9720261 C65.37,14.9720261 67.5,14.9120261 67.8,14.8820261 C68.37,14.7920261 68.82,14.6120261 68.82,13.7120261 C68.82,12.9020261 68.46,12.3620261 67.56,12.4520261 C67.47,12.4520261 65.58,12.5120261 64.92,12.5120261 Z M57.24,0.302026148 C54.18,0.392026148 50.52,1.83202615 50.52,5.40202615 C50.52,9.03202615 53.46,10.3820261 57.24,10.3820261 C60.57,10.3820261 64.8,9.72202615 64.74,5.43202615 C64.68,1.32202615 61.02,0.242026148 57.24,0.302026148 Z M53.55,24.9620261 C53.16,24.9620261 53.16,24.7520261 53.16,24.5120261 C53.16,22.9520261 53.16,21.7820261 53.19,20.3720261 C54.3,20.3720261 55.77,20.3420261 57.69,20.3420261 C59.4,20.3420261 61.05,20.3120261 62.16,20.3120261 C62.49,20.3120261 62.58,20.4320261 62.58,20.6720261 L62.58,24.8420261 C60.15,24.9620261 59.22,24.9920261 57.57,24.9920261 C56.31,24.9920261 54.72,24.9620261 53.55,24.9620261 Z M62.04,5.43202615 C61.98,7.77202615 59.55,8.07202615 57.24,8.07202615 C55.38,8.07202615 53.28,7.59202615 53.34,5.40202615 C53.4,3.36202615 55.26,2.64202615 57.39,2.55202615 C59.85,2.49202615 62.1,3.18202615 62.04,5.43202615 Z" id="path-11"></path>
        <filter x="-29.5%" y="-20.3%" width="158.9%" height="147.9%" filterUnits="objectBoundingBox" id="filter-12">
            <feOffset dx="0" dy="1" in="SourceAlpha" result="shadowOffsetOuter1"></feOffset>
            <feGaussianBlur stdDeviation="2" in="shadowOffsetOuter1" result="shadowBlurOuter1"></feGaussianBlur>
            <feColorMatrix values="0 0 0 0 0   0 0 0 0 0   0 0 0 0 0  0 0 0 0.0967548077 0" type="matrix" in="shadowBlurOuter1"></feColorMatrix>
        </filter>
    </defs>
    <g id="멤버등급" stroke="none" stroke-width="1" fill="none" fill-rule="evenodd">
        <g id="mem-grade1" transform="translate(-731.000000, -94.000000)">
            <g id="Group-6-Copy" transform="translate(579.000000, 48.195968)">
                <g id="Group-12" transform="translate(182.000000, 75.804032)">
                    <path d="M25,51.7312037 C25.5555392,28.6815817 38.2420197,-1.19385176 61.6086773,0.0368162789 C88.1691183,1.44192304 89.0469268,27.0373908 89.0683066,29.5934248 L89.0681847,29.7986599 L88.9661469,29.9454368 C95.3094972,30.0075347 115.534027,33.5579619 118.963631,55.484176 C119.032661,55.9417573 119.001656,56.3715659 118.885647,56.777015 C120.009819,67.0326706 112.519218,80.5091588 108.314234,85.2090171 C102.8858,91.2768485 89.5126247,102.332643 71.3612965,102.966851 C53.1986591,103.589633 40.8376611,95.3163559 31.6489047,88.3114959 C29.8715301,86.9579282 28.0450115,85.4885667 26.16816,84.0336148 L25.540677,83.5493431 C17.8835801,77.66821 9.39645735,72.2620246 0,76.0158525 C0,76.0158525 6.93821798,59.663561 24.9255622,51.7902355 C24.9325033,51.7869985 24.9549075,51.7789884 24.991314,51.7666565 Z" id="Fill-2471" fill="url(#linearGradient-1)" filter="url(#filter-2)"></path>
                    <path d="M71,63.1959677 C74.6338976,59.9932796 75.9672309,57.9932796 75,57.1959677 C74.0327691,56.3986559 72.6994358,56.8333333 71,58.5 C69.1411133,56.4368635 67.8077799,56.0021861 67,57.1959677 C66.1922201,58.3897494 67.5255534,60.3897494 71,63.1959677 Z" id="Oval" fill="#FFFFFF" opacity="0.400000006"></path>
                    <g id="Group-14" style="mix-blend-mode: screen;" transform="translate(104.587827, 63.839746) rotate(-51.000000) translate(-104.587827, -63.839746) translate(95.866025, 53.839746)">
                        <g id="Group-3" transform="translate(0.000000, 12.571516)">
                            <mask id="mask-4" fill="white">
                                <use xlink:href="#path-3"></use>
                            </mask>
                            <g id="Clip-2"></g>
                            <path d="M3.45937919,2.35898033e-13 C2.21246426,0.622390097 1.17832545,1.65048111 0.558636632,2.88368711 C0.0587298768,3.8785652 -0.170852402,5.04494276 0.144084779,6.10856154 C0.209883427,6.33078621 0.301451514,6.55109861 0.458003406,6.72380583 C0.574220522,6.8519272 0.721707275,6.94874791 0.874286802,7.03208216 C1.76705019,7.51960765 2.89815543,7.56026833 3.82728123,7.13836352 C4.13386626,6.99907053 4.41682082,6.8140846 4.69060838,6.61943672 C5.84289956,5.80078843 6.88274228,4.76404192 7.42848401,3.47316621" id="Fill-1" fill="#60BDA6" mask="url(#mask-4)"></path>
                        </g>
                        <path d="M4.8530911,12.4285077 C4.25029599,12.3395392 3.63256576,12.3408117 3.03021982,12.4322191 C2.94824508,12.4446259 2.86009416,12.4620167 2.80507001,12.5207634 C2.75891711,12.5700725 2.7455541,12.6393173 2.74005169,12.7050628 C2.68154642,13.3966627 3.25469587,13.9788282 3.80538649,14.4380921 C4.48600146,15.0055179 5.21052345,15.5448428 6.04610438,15.8801447 C6.33020863,15.9941388 6.63250454,16.0846979 6.94097663,16.0764267 C7.24956101,16.0681555 7.56701663,15.9476929 7.74522748,15.7097367 C7.86717895,15.5470697 7.91501627,15.3444252 7.93051286,15.1455982 C8.00653601,14.1650363 7.26303631,13.1833081 6.25586989,12.9343236" id="Fill-4" fill="#468A79"></path>
                        <path d="M5.589247,11.3115319 C5.31897852,11.7566232 4.98088404,12.1829012 4.54472663,12.535533 C4.49491853,12.5758068 4.44293585,12.6160805 4.40907463,12.6658082 C4.36485829,12.7308513 4.35584934,12.8060101 4.35781681,12.8775764 C4.36734352,13.2122458 4.59795191,13.5078703 4.90353134,13.7112245 C5.20911076,13.9145787 5.58541561,14.0375744 5.96172046,14.1469564 C6.3867979,14.2705194 6.89202393,14.3724328 7.29815151,14.1596247 C7.65705977,13.9715859 7.7998568,13.6095002 7.95269828,13.2878772 C8.16746335,12.8360736 8.45864917,12.4038397 8.814658,12.0083815" id="Fill-6" fill="#F5D0BC"></path>
                        <path d="M6.29396039,2.90742407 C6.3919224,2.63030614 6.54005754,2.35602882 6.7982833,2.21084175 C6.9195696,2.14266695 7.06169225,2.1144712 7.19894272,2.13361906 C7.50184746,2.1761231 7.60613293,2.41484011 7.6846062,2.64398318 C8.00119452,3.56813046 7.44939373,5.07544581 7.42586211,5.87849866 C7.42130092,6.0337857 7.50734162,6.18349672 7.65050091,6.23852051 C7.85419968,6.31669007 8.01435978,6.14551662 8.13450577,5.99128166 C8.88990167,5.0214741 9.6347239,4.04251344 10.3462701,3.03882889 C10.9908498,2.12951595 11.5710543,1.1624438 12.1711623,0.218727825 C12.3432437,-0.0518672119 12.7808073,-0.0643869667 13.0621501,0.142452007 C13.4648828,0.438507386 12.92293,1.49090324 12.7800817,1.78643258 C12.1953159,2.99716652 11.1810723,3.92299712 10.6421258,5.15740286 C10.6204601,5.20727147 10.5983798,5.25924423 10.6002457,5.31374199 C10.6050142,5.45998114 10.940884,5.64746184 11.080104,5.60937653 C11.2192204,5.57129123 11.3217436,5.45482595 11.4166994,5.34477835 C11.7329767,4.97833881 13.7853066,2.24808539 15.0467877,1.46133979 C15.4050488,1.23787795 15.6092659,1.36012967 15.7489006,1.53004063 C15.897554,1.71089322 15.9064691,2.03135686 15.7832132,2.23093648 C14.7789212,3.85671607 13.5580762,5.17086949 12.5596931,6.8022251 C12.532015,6.84725414 12.5035075,6.89543941 12.5030928,6.94846426 C12.5022635,7.05987955 12.7861979,7.23715507 12.8948372,7.2217947 C13.0034765,7.20632912 13.0931455,7.13089497 13.1773202,7.05935351 C14.2358282,6.15919366 15.5894661,5.11637173 16.8450384,4.5324672 C16.9932772,4.46355595 17.173237,4.47986319 17.294938,4.58991078 C17.4685743,4.74677595 17.4753125,5.09701346 17.3909304,5.25482549 C16.6630053,6.61548086 14.5618499,7.23736549 13.6998879,8.48166078 C13.6201707,8.59675836 13.9948106,9.05578097 14.123457,9.00349258 C14.6954721,8.77098285 16.07316,7.52174278 16.6721277,7.37497758 C16.793103,7.34541413 17.0302851,7.37581925 17.1370585,7.5941259 C17.1999822,7.72279531 17.2019518,7.87198029 17.1169477,7.98686745 C16.3073358,9.0798736 14.1854477,10.5951848 13.0863037,11.3788793 C12.2918266,11.9454245 11.4973496,12.5118645 10.7028726,13.0783045 C9.83531276,13.6969277 8.79898879,14.3466925 7.78495246,14.0322257 C6.81175956,13.7303839 6.2817281,12.6571568 5.40172868,12.1385865 C5.06575529,11.940585 4.67059004,11.8172812 4.42045002,11.5156498 C4.24681367,11.3062858 4.1649195,11.0339022 4.12065519,10.7640436 C3.90389482,9.44273608 4.44812818,7.62684559 5.11955664,6.49322914 C5.38597183,6.04346484 6.02702689,3.66260727 6.29396039,2.90742407" id="Fill-8" fill="#FBD5C1"></path>
                        <path d="M12.4130482,9.9289306 C12.3764371,9.9289306 12.3410566,9.90754469 12.3224946,9.86981144 C12.0650887,9.34468102 11.7989659,8.80174768 11.4354185,8.35185983 C11.2911276,8.17338267 11.1290952,8.00655019 10.9723955,7.84520415 L9.57635299,6.40809351 C9.53512703,6.3656576 9.53328109,6.29489376 9.57214835,6.24988258 C9.61101562,6.2048714 9.67582858,6.20274401 9.7171571,6.24517992 L11.1130971,7.68229056 C11.273181,7.84710761 11.4388027,8.01752307 11.5892467,8.20361406 C11.9684846,8.67309632 12.2403504,9.22778632 12.5033966,9.76411355 C12.5301627,9.81864201 12.5112931,9.88649469 12.4613502,9.91571836 C12.4458649,9.92467581 12.429354,9.9289306 12.4130482,9.9289306" id="Fill-10" fill="#BF9280"></path>
                        <path d="M5.82117219,10.137737 C5.78875526,10.137737 5.75694051,10.1230959 5.73757064,10.0959724 C5.70675951,10.0528937 5.7192044,9.99461084 5.76527056,9.96589174 C6.61905011,9.43261757 7.28866539,8.64415641 7.65087186,7.74560539 C7.71269485,7.59187376 7.76658925,7.4283814 7.74260273,7.27371124 C7.73447341,7.22246737 7.7725106,7.17478992 7.82730826,7.16728166 C7.882407,7.16005496 7.93308981,7.19534378 7.94111877,7.24668151 C7.97182954,7.44339792 7.91000655,7.63457699 7.83864916,7.81177193 C7.46189021,8.74673802 6.76517719,9.56710928 5.8768731,10.1219697 C5.8597112,10.1325751 5.84024097,10.137737 5.82117219,10.137737" id="Fill-12" fill="#BF9280"></path>
                    </g>
                    <g id="Group-14-Copy" style="mix-blend-mode: screen;" transform="translate(52.407377, 64.339746) scale(-1, 1) rotate(-51.000000) translate(-52.407377, -64.339746) translate(45.866025, 56.839746)">
                        <g id="Group-3" transform="translate(0.000000, 9.428637)">
                            <mask id="mask-6" fill="white">
                                <use xlink:href="#path-5"></use>
                            </mask>
                            <g id="Clip-2"></g>
                            <path d="M2.59453439,1.76923524e-13 C1.65934819,0.466792573 0.883744085,1.23786083 0.418977474,2.16276533 C0.0440474076,2.9089239 -0.128139302,3.78370707 0.108063584,4.58142115 C0.15741257,4.74808965 0.226088636,4.91332396 0.343502554,5.04285437 C0.430665392,5.1389454 0.541280456,5.21156093 0.655715102,5.27406162 C1.32528764,5.63970574 2.17361657,5.67020124 2.87046092,5.35377264 C3.1003997,5.2493029 3.31261561,5.11056345 3.51795629,4.96457754 C4.38217467,4.35059132 5.16205671,3.57303144 5.57136301,2.60487466" id="Fill-1" fill="#60BDA6" mask="url(#mask-6)"></path>
                        </g>
                        <path d="M3.63981833,9.32138076 C3.18772199,9.25465442 2.72442432,9.25560879 2.27266487,9.32416434 C2.21118381,9.33346945 2.14507062,9.3465125 2.10380251,9.39057256 C2.06918783,9.42755439 2.05916558,9.47948801 2.05503876,9.52879711 C2.01115982,10.047497 2.4410219,10.4841212 2.85403987,10.8285691 C3.36450109,11.2541384 3.90789259,11.6586321 4.53457828,11.9101085 C4.74765647,11.9956041 4.9743784,12.0635234 5.20573247,12.05732 C5.43717076,12.0511166 5.67526247,11.9607696 5.80892061,11.7823025 C5.90038421,11.6603023 5.9362622,11.5083189 5.94788465,11.3591986 C6.00490201,10.6237772 5.44727723,9.88748104 4.69190242,9.70074271" id="Fill-4" fill="#468A79"></path>
                        <path d="M4.19193525,8.48364891 C3.98923389,8.8174674 3.73566303,9.13717588 3.40854497,9.40164975 C3.37118889,9.43185508 3.33220189,9.4620604 3.30680597,9.49935618 C3.27364372,9.54813849 3.26688701,9.60450759 3.26836261,9.65818231 C3.27550764,9.90918432 3.44846394,10.1309028 3.6776485,10.2834184 C3.90683307,10.435934 4.18906171,10.5281808 4.47129035,10.6102173 C4.79009843,10.7028895 5.16901795,10.7793246 5.47361363,10.6197185 C5.74279483,10.4786894 5.8498926,10.2071251 5.96452371,9.96590794 C6.12559752,9.62705523 6.34398688,9.30287975 6.6109935,9.00628614" id="Fill-6" fill="#F5D0BC"></path>
                        <path d="M4.7204703,2.18056805 C4.7939418,1.9727296 4.90504315,1.76702162 5.09871248,1.65813131 C5.1896772,1.60700021 5.29626919,1.5858534 5.39920704,1.6002143 C5.62638559,1.63209233 5.7045997,1.81113008 5.76345465,1.98298739 C6.00089589,2.67609785 5.58704529,3.80658436 5.56939658,4.40887399 C5.56597569,4.52533927 5.63050622,4.63762254 5.73787568,4.67889038 C5.89064976,4.73751756 6.01076984,4.60913747 6.10087933,4.49346124 C6.66742625,3.76610557 7.22604292,3.03188508 7.7597026,2.27912167 C8.24313732,1.59713696 8.67829076,0.871832846 9.12837174,0.164045868 C9.2574328,-0.0389004089 9.58560551,-0.048290225 9.79661256,0.106839006 C10.0986621,0.328880539 9.6921975,1.11817743 9.58506128,1.33982444 C9.14648694,2.24787489 8.3858042,2.94224784 7.98159432,3.86805215 C7.96534506,3.9054536 7.94878482,3.94443317 7.95018428,3.98530649 C7.95376067,4.09498585 8.20566296,4.23559638 8.31007802,4.2070324 C8.41441533,4.17846842 8.49130773,4.09111946 8.56252455,4.00858377 C8.79973255,3.73375411 10.33898,1.68606404 11.2850908,1.09600484 C11.5537866,0.928408461 11.7069494,1.02009725 11.8116754,1.14753047 C11.9231655,1.28316992 11.9298518,1.52351765 11.8374099,1.67320236 C11.0841909,2.89253705 10.1685572,3.87815212 9.41976983,5.10166883 C9.39901122,5.1354406 9.37763062,5.17157956 9.37731963,5.21134819 C9.37669765,5.29490966 9.58964839,5.4278663 9.6711279,5.41634603 C9.7526074,5.40474684 9.8198591,5.34817123 9.88299017,5.29451513 C10.6768711,4.61939525 11.6920996,3.8372788 12.6337788,3.3993504 C12.7449579,3.34766696 12.8799278,3.35989739 12.9712035,3.44243309 C13.1014307,3.56008196 13.1064843,3.82276009 13.0431978,3.94111912 C12.497254,4.96161065 10.9213874,5.42802412 10.2749159,6.36124559 C10.215128,6.44756877 10.4961079,6.79183572 10.5925927,6.75261943 C11.0216041,6.57823714 12.05487,5.64130708 12.5040958,5.53123319 C12.5948272,5.5090606 12.7727138,5.53186444 12.8527938,5.69559442 C12.8999867,5.79209648 12.9014639,5.90398521 12.8377108,5.99015059 C12.2305019,6.8099052 10.6390858,7.94638857 9.81472776,8.5341595 C9.21886998,8.9590684 8.6230122,9.3838984 8.02715442,9.8087284 C7.37648457,10.2726958 6.59924159,10.7600194 5.83871435,10.5241693 C5.10881967,10.2977879 4.71129608,9.49286761 4.05129651,9.10393985 C3.79931647,8.95543873 3.50294253,8.86296088 3.31533752,8.63673732 C3.18511025,8.47971435 3.12368963,8.27542667 3.09049139,8.07303273 C2.92792112,7.08205206 3.33609613,5.72013419 3.83966748,4.86992185 C4.03947887,4.53259863 4.52027017,2.74695545 4.7204703,2.18056805" id="Fill-8" fill="#FBD5C1"></path>
                        <path d="M9.30978614,7.44669795 C9.2823278,7.44669795 9.25579243,7.43065852 9.24187097,7.40235858 C9.04881654,7.00851077 8.8492244,6.60131076 8.57656386,6.26389487 C8.4683457,6.130037 8.34682139,6.00491264 8.22929662,5.88390311 L7.18226474,4.80607014 C7.15134527,4.7742432 7.14996082,4.72117032 7.17911127,4.68741194 C7.20826172,4.65365355 7.25687144,4.65205801 7.28786783,4.68388494 L8.33482279,5.76171792 C8.45488573,5.88533071 8.57910202,6.0131423 8.69193503,6.15271054 C8.97636344,6.50482224 9.18026276,6.92083974 9.37754747,7.32308516 C9.39762206,7.36398151 9.38346986,7.41487101 9.34601269,7.43678877 C9.33439865,7.44350686 9.32201548,7.44669795 9.30978614,7.44669795" id="Fill-10" fill="#BF9280"></path>
                        <path d="M4.36587914,7.60330279 C4.34156645,7.60330279 4.31770538,7.59232195 4.30317798,7.57197926 C4.28006963,7.53967028 4.2894033,7.49595813 4.32395292,7.47441881 C4.96428758,7.07446318 5.46649904,6.48311731 5.73815389,5.80920404 C5.78452114,5.69390532 5.82494194,5.57128605 5.80695205,5.45528343 C5.80085505,5.41685053 5.82938295,5.38109244 5.87048119,5.37546124 C5.91180525,5.37004122 5.94981736,5.39650783 5.95583908,5.43501113 C5.97887216,5.58254844 5.93250491,5.72593274 5.87898687,5.85882895 C5.59641766,6.56005351 5.07388289,7.17533196 4.40765483,7.59147728 C4.3947834,7.59943134 4.38018073,7.60330279 4.36587914,7.60330279" id="Fill-12" fill="#BF9280"></path>
                    </g>
                    <line x1="59.5" y1="58.5" x2="64.5" y2="55.5" id="Line-5" stroke="#FFFFFF" stroke-width="0.5" stroke-linecap="round"></line>
                    <line x1="59.5" y1="63.5" x2="66.5" y2="65.5" id="Line-5-Copy" stroke="#FFFFFF" stroke-width="0.5" stroke-linecap="round"></line>
                    <g id="반가움" transform="translate(34.800000, 24.957974)" fill-rule="nonzero">
                        <g id="Shape">
                            <use fill="black" fill-opacity="1" filter="url(#filter-8)" xlink:href="#path-7"></use>
                            <use fill="#FFFFFF" xlink:href="#path-7"></use>
                        </g>
                        <g id="Shape">
                            <use fill="black" fill-opacity="1" filter="url(#filter-10)" xlink:href="#path-9"></use>
                            <use fill="#FFFFFF" xlink:href="#path-9"></use>
                        </g>
                        <g id="Shape">
                            <use fill="black" fill-opacity="1" filter="url(#filter-12)" xlink:href="#path-11"></use>
                            <use fill="#FFFFFF" xlink:href="#path-11"></use>
                        </g>
                    </g>
                    <g id="greeting" transform="translate(34.311438, 16.015800)" fill="#FFFFFF" fill-rule="nonzero">
                        <path d="M2.94456244,3.59314634 C3.05656244,3.59314634 3.10456244,3.60114634 3.10456244,3.77714634 C3.10456244,4.40914634 3.10456244,4.91314634 3.09656244,5.56114634 C2.96056244,5.70514634 2.53656244,5.76914634 2.32056244,5.76914634 C1.43256244,5.76914634 0.776562439,4.94514634 0.744562439,3.33714634 C0.720562439,2.03314634 1.23256244,0.681146336 2.32056244,0.657146336 C2.64856244,0.649146336 3.03256244,0.841146336 3.16856244,0.929146336 C3.32056244,1.03314634 3.51256244,0.953146336 3.60856244,0.817146336 C3.68856244,0.697146336 3.70456244,0.545146336 3.57656244,0.425146336 C3.26456244,0.137146336 2.88056244,-0.0148536638 2.24856244,0.00114633621 C0.720562439,0.0411463362 -0.023437561,1.56114634 0.00056243898,3.31314634 C0.024562439,5.12914634 0.784562439,6.42514634 2.31256244,6.42514634 C2.68056244,6.42514634 3.29656244,6.31314634 3.63256244,6.04114634 C3.77656244,5.92914634 3.78456244,5.79314634 3.78456244,5.67314634 C3.78456244,5.15314634 3.79256244,4.55314634 3.79256244,4.04914634 C3.79256244,3.79314634 3.80056244,3.44114634 3.78456244,3.26514634 C3.75256244,2.97714634 3.64056244,2.92914634 3.38456244,2.93714634 C3.04056244,2.95314634 2.62456244,2.93714634 2.28856244,2.94514634 C2.07256244,2.95314634 1.97656244,3.13714634 1.97656244,3.28114634 C1.97656244,3.45714634 2.12056244,3.60114634 2.32856244,3.60114634 L2.94456244,3.59314634 Z" id="Path"></path>
                        <path d="M4.76856244,6.16914634 C4.76856244,6.40914634 4.94456244,6.50514634 5.12856244,6.50514634 C5.28856244,6.50514634 5.46456244,6.40914634 5.48056244,6.19314634 C5.49656244,5.96114634 5.48856244,5.40914634 5.48856244,4.81714634 C5.48856244,4.50514634 5.49656244,4.16114634 5.49656244,3.79314634 L5.62456244,3.79314634 C6.15256244,4.67314634 6.62456244,5.55314634 7.19256244,6.36114634 C7.27256244,6.47314634 7.37656244,6.52914634 7.48056244,6.52914634 C7.56856244,6.52914634 7.65656244,6.48914634 7.71256244,6.43314634 C7.80856244,6.33714634 7.84856244,6.16914634 7.73656244,6.00114634 C7.20056244,5.16114634 6.79256244,4.45714634 6.32856244,3.62514634 C7.27256244,3.27314634 7.76856244,2.58514634 7.76856244,1.80914634 C7.76856244,1.01714634 7.15256244,0.409146336 6.44056244,0.201146336 C5.95256244,0.0571463362 5.48856244,0.0331463362 5.16856244,0.0171463362 C4.84856244,0.00114633621 4.76056244,0.153146336 4.76056244,0.361146336 C4.76056244,1.15314634 4.76856244,1.92914634 4.76856244,2.59314634 L4.76856244,6.16914634 Z M6.04856244,0.777146336 C6.76056244,0.921146336 7.04056244,1.47314634 7.04056244,1.84114634 C7.04056244,2.44114634 6.66456244,2.95314634 5.49656244,3.12114634 C5.48856244,2.24914634 5.48056244,1.43314634 5.48056244,0.697146336 C5.64856244,0.721146336 5.89656244,0.737146336 6.04856244,0.777146336 Z" id="Shape"></path>
                        <path d="M8.86456244,5.74514634 C8.86456244,6.04114634 8.94456244,6.30514634 9.38456244,6.30514634 L10.7605624,6.30514634 C10.9765624,6.30514634 11.3125624,6.30514634 11.5605624,6.29714634 C11.7845624,6.28914634 11.8885624,6.16914634 11.8885624,5.97714634 C11.8885624,5.76914634 11.7765624,5.64914634 11.5605624,5.64914634 L10.9045624,5.65714634 C10.7525624,5.66514634 10.4405624,5.65714634 10.1045624,5.65714634 L9.72856244,5.65714634 C9.64056244,5.65714634 9.60056244,5.62514634 9.60056244,5.51314634 L9.60056244,4.77714634 C9.60056244,4.34514634 9.59256244,3.88914634 9.59256244,3.45714634 C9.59256244,3.45714634 10.9845624,3.45714634 11.2965624,3.44114634 C11.5045624,3.43314634 11.6405624,3.30514634 11.6405624,3.08114634 C11.6405624,2.89714634 11.4965624,2.78514634 11.3285624,2.79314634 C10.9765624,2.80914634 10.6805624,2.80114634 10.3365624,2.80114634 C10.0005624,2.80114634 9.73656244,2.79314634 9.60056244,2.79314634 C9.59256244,2.05714634 9.56856244,1.43314634 9.56056244,0.705146336 L11.3125624,0.713146336 C11.4965624,0.713146336 11.7205624,0.681146336 11.7205624,0.377146336 C11.7205624,0.177146336 11.5525624,0.0971463362 11.4325624,0.0731463362 C11.3445624,0.0571463362 11.1845624,0.0491463362 10.9205624,0.0491463362 C10.7125624,0.0491463362 10.4725624,0.0571463362 10.2165624,0.0571463362 L9.13656244,0.0571463362 C8.88056244,0.0571463362 8.84056244,0.249146336 8.84056244,0.401146336 L8.84056244,0.721146336 C8.84056244,0.833146336 8.86456244,0.857146336 8.86456244,3.66514634 L8.86456244,5.74514634 Z" id="Path"></path>
                        <path d="M12.7205624,5.74514634 C12.7205624,6.04114634 12.8005624,6.30514634 13.2405624,6.30514634 L14.6165624,6.30514634 C14.8325624,6.30514634 15.1685624,6.30514634 15.4165624,6.29714634 C15.6405624,6.28914634 15.7445624,6.16914634 15.7445624,5.97714634 C15.7445624,5.76914634 15.6325624,5.64914634 15.4165624,5.64914634 L14.7605624,5.65714634 C14.6085624,5.66514634 14.2965624,5.65714634 13.9605624,5.65714634 L13.5845624,5.65714634 C13.4965624,5.65714634 13.4565624,5.62514634 13.4565624,5.51314634 L13.4565624,4.77714634 C13.4565624,4.34514634 13.4485624,3.88914634 13.4485624,3.45714634 C13.4485624,3.45714634 14.8405624,3.45714634 15.1525624,3.44114634 C15.3605624,3.43314634 15.4965624,3.30514634 15.4965624,3.08114634 C15.4965624,2.89714634 15.3525624,2.78514634 15.1845624,2.79314634 C14.8325624,2.80914634 14.5365624,2.80114634 14.1925624,2.80114634 C13.8565624,2.80114634 13.5925624,2.79314634 13.4565624,2.79314634 C13.4485624,2.05714634 13.4245624,1.43314634 13.4165624,0.705146336 L15.1685624,0.713146336 C15.3525624,0.713146336 15.5765624,0.681146336 15.5765624,0.377146336 C15.5765624,0.177146336 15.4085624,0.0971463362 15.2885624,0.0731463362 C15.2005624,0.0571463362 15.0405624,0.0491463362 14.7765624,0.0491463362 C14.5685624,0.0491463362 14.3285624,0.0571463362 14.0725624,0.0571463362 L12.9925624,0.0571463362 C12.7365624,0.0571463362 12.6965624,0.249146336 12.6965624,0.401146336 L12.6965624,0.721146336 C12.6965624,0.833146336 12.7205624,0.857146336 12.7205624,3.66514634 L12.7205624,5.74514634 Z" id="Path"></path>
                        <path d="M16.5365624,0.793146336 C16.7765624,0.785146336 17.0645624,0.785146336 17.3925624,0.777146336 C17.3925624,1.57714634 17.4245624,2.45714634 17.4485624,3.25714634 C17.4565624,3.58514634 17.4565624,3.77714634 17.4565624,3.96914634 C17.4565624,4.40114634 17.4405624,4.98514634 17.4325624,5.40914634 C17.4245624,5.66514634 17.4085624,5.94514634 17.4165624,6.20914634 C17.4245624,6.42514634 17.6085624,6.53714634 17.7845624,6.53714634 C17.9685624,6.53714634 18.1445624,6.41714634 18.1525624,6.19314634 C18.1605624,5.92114634 18.1605624,5.64114634 18.1685624,5.38514634 C18.1765624,4.92914634 18.1925624,4.40914634 18.1925624,3.94514634 C18.1925624,3.77714634 18.1925624,3.45714634 18.1845624,3.28114634 C18.1605624,2.50514634 18.1445624,1.59314634 18.1365624,0.761146336 L19.2885624,0.761146336 C19.5205624,0.761146336 19.6405624,0.601146336 19.6405624,0.441146336 C19.6405624,0.289146336 19.5125624,0.129146336 19.3125624,0.121146336 C18.8965624,0.113146336 18.4485624,0.105146336 17.9925624,0.105146336 C17.4885624,0.105146336 16.9125624,0.0971463362 16.4405624,0.121146336 C16.2325624,0.129146336 16.0965624,0.281146336 16.0965624,0.441146336 C16.0965624,0.617146336 16.2325624,0.801146336 16.5365624,0.793146336 Z" id="Path"></path>
                        <path d="M22.0085624,6.30514634 C22.2245624,6.30514634 22.3285624,6.15314634 22.3285624,6.01714634 C22.3285624,5.85714634 22.2085624,5.70514634 22.0085624,5.70514634 L21.4885624,5.70514634 L21.4885624,0.713146336 L22.0485624,0.713146336 C22.2565624,0.713146336 22.3525624,0.561146336 22.3525624,0.401146336 C22.3525624,0.241146336 22.2565624,0.0811463362 22.0565624,0.0811463362 L21.1845624,0.0811463362 C20.8965624,0.0811463362 20.6085624,0.0731463362 20.3125624,0.0731463362 C20.0725624,0.0811463362 19.9445624,0.241146336 19.9445624,0.393146336 C19.9445624,0.537146336 20.0725624,0.705146336 20.2965624,0.697146336 C20.4485624,0.689146336 20.5925624,0.697146336 20.7445624,0.697146336 C20.7685624,1.35314634 20.7685624,1.92914634 20.7685624,2.59314634 C20.7685624,3.02514634 20.7605624,3.84914634 20.7605624,4.28114634 C20.7525624,4.75314634 20.7525624,5.25714634 20.7525624,5.71314634 L20.2565624,5.71314634 C20.0165624,5.71314634 19.9525624,5.86514634 19.9525624,6.01714634 C19.9525624,6.15314634 20.0165624,6.30514634 20.2485624,6.30514634 L22.0085624,6.30514634 Z" id="Path"></path>
                        <path d="M23.1205624,0.393146336 C23.1685624,1.33714634 23.1765624,2.21714634 23.2085624,3.12914634 C23.2565624,3.95314634 23.2485624,4.69714634 23.2565624,5.35314634 L23.2565624,6.16114634 C23.2565624,6.39314634 23.4165624,6.52114634 23.6005624,6.52114634 C23.7845624,6.52114634 23.9845624,6.40114634 23.9845624,6.16114634 C23.9765624,5.14514634 23.9525624,4.58514634 23.9125624,3.42514634 C23.9045624,3.04914634 23.8725624,2.35314634 23.8565624,1.89714634 C24.1125624,2.50514634 24.4085624,2.96914634 24.7125624,3.57714634 C24.9605624,4.03314634 25.1845624,4.47314634 25.3925624,4.89714634 C25.6165624,5.33714634 25.8405624,5.80114634 26.0165624,6.17714634 C26.1125624,6.38514634 26.2325624,6.51314634 26.4165624,6.51314634 C26.6965624,6.51314634 26.7365624,6.22514634 26.7365624,5.97714634 C26.7365624,4.91314634 26.7285624,4.02514634 26.7285624,3.29714634 L26.7285624,1.40914634 C26.7285624,1.23314634 26.7445624,0.593146336 26.7445624,0.393146336 C26.7445624,0.129146336 26.5285624,0.00914633621 26.3605624,0.00914633621 C26.1765624,0.00914633621 26.0245624,0.145146336 26.0085624,0.369146336 C26.0165624,0.633146336 26.0165624,1.04114634 26.0165624,1.53714634 L26.0165624,4.69714634 C25.4245624,3.43314634 24.7765624,2.20114634 24.1125624,0.945146336 C23.9925624,0.697146336 23.8645624,0.473146336 23.7285624,0.217146336 C23.6645624,0.0971463362 23.5365624,0.0331463362 23.4165624,0.0331463362 C23.2325624,0.0331463362 23.1125624,0.161146336 23.1205624,0.393146336 Z" id="Path"></path>
                        <path d="M30.5685624,3.59314634 C30.6805624,3.59314634 30.7285624,3.60114634 30.7285624,3.77714634 C30.7285624,4.40914634 30.7285624,4.91314634 30.7205624,5.56114634 C30.5845624,5.70514634 30.1605624,5.76914634 29.9445624,5.76914634 C29.0565624,5.76914634 28.4005624,4.94514634 28.3685624,3.33714634 C28.3445624,2.03314634 28.8565624,0.681146336 29.9445624,0.657146336 C30.2725624,0.649146336 30.6565624,0.841146336 30.7925624,0.929146336 C30.9445624,1.03314634 31.1365624,0.953146336 31.2325624,0.817146336 C31.3125624,0.697146336 31.3285624,0.545146336 31.2005624,0.425146336 C30.8885624,0.137146336 30.5045624,-0.0148536638 29.8725624,0.00114633621 C28.3445624,0.0411463362 27.6005624,1.56114634 27.6245624,3.31314634 C27.6485624,5.12914634 28.4085624,6.42514634 29.9365624,6.42514634 C30.3045624,6.42514634 30.9205624,6.31314634 31.2565624,6.04114634 C31.4005624,5.92914634 31.4085624,5.79314634 31.4085624,5.67314634 C31.4085624,5.15314634 31.4165624,4.55314634 31.4165624,4.04914634 C31.4165624,3.79314634 31.4245624,3.44114634 31.4085624,3.26514634 C31.3765624,2.97714634 31.2645624,2.92914634 31.0085624,2.93714634 C30.6645624,2.95314634 30.2485624,2.93714634 29.9125624,2.94514634 C29.6965624,2.95314634 29.6005624,3.13714634 29.6005624,3.28114634 C29.6005624,3.45714634 29.7445624,3.60114634 29.9525624,3.60114634 L30.5685624,3.59314634 Z" id="Path"></path>
                    </g>
                </g>
            </g>
        </g>
    </g>
</svg>