<svg id="discount" xmlns="http://www.w3.org/2000/svg" width="46" height="46" viewBox="0 0 46 46">
  <g id="Group_2" data-name="Group 2" transform="translate(2)">
    <path id="Combined_Shape" data-name="Combined Shape" d="M20.839,45.985a2,2,0,0,1-1.485-.66L.553,24.5a2,2,0,0,1,1.485-3.341H7.925L4.183,0H37.5L33.754,21.155h5.888A2,2,0,0,1,41.125,24.5l-18.8,20.829A2,2,0,0,1,20.839,45.985ZM14.9,24.364a3.053,3.053,0,0,0-2.353.986,4.069,4.069,0,0,0-.906,2.767c0,2.315,1.28,3.811,3.26,3.811s3.261-1.5,3.261-3.811a4.069,4.069,0,0,0-.906-2.763A3.054,3.054,0,0,0,14.9,24.364Zm10.451.138v7.289h1.458V28.836H29.4V27.614h-2.59v-1.9h3.033V24.5Zm-5.762,0v7.289h1.457V28.836h2.591V27.614H21.051v-1.9h3.034V24.5H19.594ZM23.761,6.043l-8.6,13.208h2.181L25.852,6.044H23.761Zm.993,6.472a2.935,2.935,0,0,0-3.156,3.19v.16a2.884,2.884,0,0,0,3.156,3.12,3,3,0,0,0,3.226-3.173v-.23A2.922,2.922,0,0,0,24.754,12.515Zm-8.209-6.56a2.961,2.961,0,0,0-3.173,3.209v.159a3.108,3.108,0,0,0,.889,2.34,3.254,3.254,0,0,0,2.284.8,3.323,3.323,0,0,0,2.314-.818,3.132,3.132,0,0,0,.931-2.373v-.23A2.939,2.939,0,0,0,16.545,5.955ZM14.9,30.668c-1.077,0-1.772-1-1.772-2.551,0-1.567.662-2.5,1.772-2.5a1.536,1.536,0,0,1,1.3.656,3.2,3.2,0,0,1,.469,1.846C16.678,29.666,15.982,30.668,14.9,30.668Zm9.849-13.082c-.931,0-1.294-.487-1.294-1.737l.017-.3c0-1.153.41-1.667,1.33-1.667.846,0,1.223.536,1.223,1.738l-.018.23C26.012,17.114,25.671,17.585,24.754,17.585Zm-8.209-6.524c-.919,0-1.294-.508-1.294-1.755l.018-.3c0-1.149.422-1.684,1.329-1.684.846,0,1.223.541,1.223,1.755l-.017.23C17.8,10.569,17.451,11.061,16.545,11.061Z" fill="#fff"/>
  </g>
  <rect id="Rectangle_Copy_4" data-name="Rectangle Copy 4" width="46" height="46" fill="none"/>
</svg>
