<?xml version="1.0" encoding="UTF-8"?>
<svg width="105px" height="76px" viewBox="0 0 105 76" version="1.1" xmlns="http://www.w3.org/2000/svg" xmlns:xlink="http://www.w3.org/1999/xlink">
    <title>Group 5</title>
    <defs>
        <linearGradient x1="100%" y1="55.9456935%" x2="0%" y2="44.4224862%" id="linearGradient-1">
            <stop stop-color="#0A780A" offset="0%"></stop>
            <stop stop-color="#09800B" offset="22.0139724%"></stop>
            <stop stop-color="#0EA611" offset="47.2992584%"></stop>
            <stop stop-color="#08850C" offset="71.0220444%"></stop>
            <stop stop-color="#068F0D" offset="100%"></stop>
        </linearGradient>
        <path d="M23.1738281,38.4648438 L33.0859375,2.234375 L46.484375,2.234375 L29.7363281,52 L16.6113281,52 L0,2.234375 L13.2958984,2.234375 L23.1738281,38.4648438 Z M59.9739583,52 L48.0110677,52 L48.0110677,2.234375 L59.9739583,2.234375 L59.9739583,52 Z M77.3942057,35.1152344 L77.3942057,52 L65.3971354,52 L65.3971354,2.234375 L85.2555339,2.234375 C89.0608724,2.234375 92.4275716,2.93505859 95.3556315,4.33642578 C98.2836914,5.73779297 100.550944,7.73160807 102.157389,10.3178711 C103.763835,12.9041341 104.567057,15.8378906 104.567057,19.1191406 C104.567057,23.9726562 102.82959,27.8520508 99.3546549,30.7573242 C95.8797201,33.6625977 91.1116536,35.1152344 85.0504557,35.1152344 L77.3942057,35.1152344 Z M77.3942057,25.8525391 L85.2555339,25.8525391 C87.5797526,25.8525391 89.3513997,25.2714844 90.5704753,24.109375 C91.7895508,22.9472656 92.3990885,21.3066406 92.3990885,19.1875 C92.3990885,16.8632812 91.7724609,15.0061849 90.5192057,13.6162109 C89.2659505,12.226237 87.5569661,11.5198568 85.3922526,11.4970703 L77.3942057,11.4970703 L77.3942057,25.8525391 Z" id="path-2"></path>
    </defs>
    <g id="Page-1" stroke="none" stroke-width="1" fill="none" fill-rule="evenodd">
        <g id="Artboard" transform="translate(-73.000000, -1203.000000)">
            <g id="Group-5" transform="translate(73.000000, 1203.000000)">
                <rect id="Rectangle" x="0" y="0" width="105" height="76"></rect>
                <g id="Group-2" transform="translate(0.000000, 8.000000)">
                    <g id="VIP-Copy" fill-rule="nonzero">
                        <use fill="#333333" xlink:href="#path-2"></use>
                        <use fill="url(#linearGradient-1)" xlink:href="#path-2"></use>
                    </g>
                    <path d="M77.1805859,36.5451271 C77.4244912,29.2682418 78.6754417,24.4717639 80.9334376,22.1556934 C81.7604552,21.3074053 89.6270032,20.3804921 104.533082,19.374954 L104.602539,18.5 C88.5868243,17.3935016 80.2623963,16.3898661 79.6292551,15.4890935 C78.1114444,13.3296978 77.069686,8.16666667 76.5039799,0 C76.569686,8.16666667 75.8487201,13.3068174 74.3410822,15.4204523 C72.6648535,17.7704431 50.9186725,18.8462886 9.10253906,18.6479888 C50.5060124,18.6558824 72.1826183,19.7574099 74.132357,21.9525715 C76.4096702,24.5165411 77.4257465,29.3807263 77.1805859,36.5451271 Z" id="Oval-Copy-4" fill="#FFFFFF"></path>
                </g>
            </g>
        </g>
    </g>
</svg>