<svg xmlns="http://www.w3.org/2000/svg" width="60" height="75.224" viewBox="0 0 60 75.224">
  <path id="Fill_1" data-name="Fill 1" d="M57.708,69.208v-.214H35.237c-.1-1.23-.178-2.234-.257-3.223l-2.121-.263V8.547l2.167-.315c.044-.709.086-1.387.131-2.105h21.78a3.064,3.064,0,1,0,0-6.127H3.065a3.064,3.064,0,1,0,0,6.127H24.83c.046.744.087,1.433.129,2.126l2.117.292V65.47l-2.131.374c-.076,1.135-.142,2.125-.217,3.253H3.065a3.023,3.023,0,0,0-.351.035H2.237v.092a3.056,3.056,0,0,0,.828,6H56.936a3.057,3.057,0,0,0,.772-6.017" fill="#7262a4"/>
</svg>
