<svg xmlns="http://www.w3.org/2000/svg" xmlns:xlink="http://www.w3.org/1999/xlink" width="117.137" height="48.777" viewBox="0 0 117.137 48.777">
  <defs>
    <linearGradient id="linear-gradient" x1="0.051" y1="0.244" x2="1" y2="1" gradientUnits="objectBoundingBox">
      <stop offset="0" stop-color="#f2d565"/>
      <stop offset="0.76" stop-color="#dab33c"/>
      <stop offset="1" stop-color="#d2a82f"/>
    </linearGradient>
  </defs>
  <g id="그룹_5" data-name="그룹 5" transform="translate(-368 -714)">
    <path id="Path_2" data-name="Path 2" d="M21.6,7.261a2.641,2.641,0,0,1-.833-2.024V.1h1.884V5.274q.032,1.28,1.184,1.28a1.143,1.143,0,0,0,.88-.321,1.5,1.5,0,0,0,.3-1.044V.1h1.874V5.2a2.938,2.938,0,0,1-.369,1.5,2.385,2.385,0,0,1-1.057.967A3.705,3.705,0,0,1,23.839,8,3.21,3.21,0,0,1,21.6,7.261Zm-6.944.282a3.125,3.125,0,0,1-1.2-1.308,4.489,4.489,0,0,1-.451-1.952V3.845a4.642,4.642,0,0,1,.418-2.019,3.116,3.116,0,0,1,1.2-1.35A3.543,3.543,0,0,1,18.17.471a3.184,3.184,0,0,1,1.2,1.339A4.521,4.521,0,0,1,19.807,3.8v.358a4.634,4.634,0,0,1-.421,2.016,3.143,3.143,0,0,1-1.2,1.35A3.342,3.342,0,0,1,16.42,8,3.39,3.39,0,0,1,14.66,7.543Zm.262-3.955-.005.572a3.4,3.4,0,0,0,.378,1.76,1.245,1.245,0,0,0,1.126.615,1.229,1.229,0,0,0,1.094-.6A3.285,3.285,0,0,0,17.9,4.192V3.834a3.309,3.309,0,0,0-.386-1.762,1.247,1.247,0,0,0-1.107-.6C15.476,1.471,14.975,2.183,14.922,3.588ZM59.173,7.9H57.3V.145h3.058A3.426,3.426,0,0,1,62.52.758,2.083,2.083,0,0,1,63.3,2.489a2.533,2.533,0,0,1-.328,1.343,2.35,2.35,0,0,1-1.027.864l1.622,3.128V7.9H61.56L60.188,5.165H59.174V7.9h0Zm0-4.184h1.185a1.072,1.072,0,0,0,.8-.28,1.084,1.084,0,0,0,.269-.78,1.1,1.1,0,0,0-.272-.787,1.061,1.061,0,0,0-.8-.284H59.174ZM7.992,7.9H6.121V.145H9.179A3.43,3.43,0,0,1,11.34.758a2.086,2.086,0,0,1,.779,1.732,2.533,2.533,0,0,1-.328,1.343,2.355,2.355,0,0,1-1.027.864l1.622,3.128V7.9H10.38L9.008,5.165H7.994V7.9h0Zm0-4.184H9.179a1.075,1.075,0,0,0,.8-.28,1.084,1.084,0,0,0,.269-.78,1.1,1.1,0,0,0-.272-.787,1.061,1.061,0,0,0-.8-.284H7.994ZM79.45,7.9V1.589H77.157V.145h6.505V1.589H81.327V7.9Zm-7.98,0V.145h5.35V1.589H73.338V3.225h2.938V4.615H73.338v1.85h3.47V7.9Zm-2.747,0L67.072,5.016l-.768.841V7.9h-1.87V.145H66.3V3.566l.65-.986L68.627.145H70.94L68.318,3.577,70.94,7.9ZM54.31,6.455H51.746L51.3,7.9h-2L52.146.145H53.9L56.771,7.9l-2.009,0ZM52.195,5.01h1.668l-.837-2.691ZM46.845,7.9V6.092l.182-3.709L45.149,7.9H43.911L42.028,2.378l.182,3.714V7.9H40.337V.145H42.8l1.733,5.4,1.728-5.4h2.465V7.9Zm-12.337,0V6.092l.182-3.709L32.811,7.9H31.574L29.691,2.378l.181,3.714V7.9H28V.145h2.459l1.734,5.4,1.728-5.4h2.464V7.9ZM0,7.9V.145H5.35V1.589H1.868V3.225H4.807V4.615H1.868v1.85h3.47V7.9Z" transform="translate(397 714)" fill="#d9b23b" opacity="0.45"/>
    <g id="GOLD_Copy_4" data-name="GOLD Copy 4" transform="translate(368 726.517)">
      <path id="Combined_Shape" data-name="Combined Shape" d="M38.916,34.189a14.185,14.185,0,0,1-5.438-5.922,20.31,20.31,0,0,1-2.047-8.842V17.44a20.978,20.978,0,0,1,1.9-9.144,14.169,14.169,0,0,1,5.45-6.116A15.319,15.319,0,0,1,46.861.024a15.169,15.169,0,0,1,7.993,2.131,14.423,14.423,0,0,1,5.462,6.068,20.391,20.391,0,0,1,1.974,9.023v1.623A20.887,20.887,0,0,1,60.377,28a14.2,14.2,0,0,1-5.438,6.116,15.211,15.211,0,0,1-8.03,2.144A15.425,15.425,0,0,1,38.916,34.189ZM41.974,9.084c-1.12,1.591-1.75,4.011-1.871,7.194l-.024,2.591c0,3.439.579,6.121,1.72,7.97a5.647,5.647,0,0,0,5.11,2.785,5.579,5.579,0,0,0,4.966-2.737c1.157-1.817,1.751-4.466,1.768-7.872V17.392c0-3.488-.59-6.174-1.756-7.981a6.083,6.083,0,0,0-9.913-.327ZM4.457,32.021Q.315,27.782.024,20.225L0,17.173A21.05,21.05,0,0,1,1.84,8.078,13.671,13.671,0,0,1,7.109,2.1,14.9,14.9,0,0,1,15.042,0Q21.63,0,25.276,3.016t4.251,9H21.339A6.685,6.685,0,0,0,19.45,7.8,6.094,6.094,0,0,0,15.332,6.54a5.546,5.546,0,0,0-4.941,2.713Q8.647,11.965,8.623,17v2.131q0,5.281,1.8,7.933a6.382,6.382,0,0,0,5.68,2.652,7.145,7.145,0,0,0,4.941-1.477V22.768H15.139V16.931H29.551V31.415a13.667,13.667,0,0,1-5.74,3.513,24.779,24.779,0,0,1-8.284,1.332Q8.6,36.26,4.457,32.021Zm60.151,3.755V.509h8.5V29.236h14.8v6.54Zm24.819,0V.509h11.36a16.792,16.792,0,0,1,8.405,2.119,14.971,14.971,0,0,1,5.826,5.982,18.148,18.148,0,0,1,2.119,8.66v1.623a18.232,18.232,0,0,1-2.048,8.683,15.027,15.027,0,0,1-5.764,6.007,16.406,16.406,0,0,1-8.3,2.192Zm8.5-6.539h2.956a6.642,6.642,0,0,0,5.62-2.6c1.3-1.728,1.962-4.332,1.962-7.739V17.367c0-3.391-.66-5.982-1.962-7.7a6.758,6.758,0,0,0-5.717-2.592H97.928Z" fill="url(#linear-gradient)"/>
    </g>
  </g>
</svg>
