<svg xmlns="http://www.w3.org/2000/svg" width="164.75" height="91" viewBox="0 0 164.75 91">
  <g id="Group_12" data-name="Group 12" transform="translate(0.5 0.5)">
    <path id="Rectangle" d="M70.938,1.716A5,5,0,0,1,77.25,6.541V16a5,5,0,0,1-5,5H7.491a1,1,0,0,1-.262-1.965Z" transform="translate(87 67)" fill="#fff"/>
    <g id="Group_41" data-name="Group 41">
      <path id="Fill_63" data-name="Fill 63" d="M56.785,88.261a6.174,6.174,0,0,1,2.434-10.319V67.151H45.985c.018.265.031.534.039.8a21.412,21.412,0,0,1-20.76,22.041c-.226.006-.445.01-.652.01a21.418,21.418,0,0,1-5.767-42.037L11.411,22.424c-.027-.093-.053-.194-.078-.3l-2.88-9.9H2.02a2.018,2.018,0,1,1,0-4.036H9.84c.05,0,.105,0,.168.007a2.006,2.006,0,0,1,1.9,1.453l2.04,7.007a4.9,4.9,0,0,1,5.09.456,4.863,4.863,0,0,1,1.789,2.571L27.177,41.5h1.831V38.966a2.853,2.853,0,0,1,.772-1.878l6.1-6.1V26.8a8.045,8.045,0,1,1,16.089,0V41.5h9.112a1.859,1.859,0,0,1,1.859,1.859c0,.019,0,.038,0,.058v3.441h5.843a4.8,4.8,0,0,1,3.465,1.475,4.854,4.854,0,0,1,.377.411l14.69,18.017a4.808,4.808,0,1,1-7.453,6.077L66.515,56.473H62.936v3.179A5.4,5.4,0,0,1,65.372,61.2l13.28,16.53a3.848,3.848,0,0,1,.458.722H92.983a2.732,2.732,0,1,1,0,5.464H75.545a2.741,2.741,0,0,1-.776-.112A3.764,3.764,0,0,1,72.721,82.5L62.936,70.317v7.624A6.173,6.173,0,0,1,61.262,90l-.184,0A6.142,6.142,0,0,1,56.785,88.261ZM61,81.221a2.608,2.608,0,0,0,.075,5.215h.081a2.608,2.608,0,0,0-.075-5.215ZM20.63,54.1A15.05,15.05,0,0,0,9.712,66.726a15.33,15.33,0,0,0-.107,2.31c.014.474.051.953.11,1.422A14.884,14.884,0,0,0,24.26,83.606c.119,0,.238,0,.353,0s.239,0,.365,0l.094,0,.092,0,.029,0h.023l.049,0h.009A15.025,15.025,0,0,0,39.6,69.787l0-.033v-.019l0-.021a15.577,15.577,0,0,0,.034-1.575,14.923,14.923,0,0,0-3.018-8.594h.032a14.969,14.969,0,0,0-5.544-4.534l.007.026a14.85,14.85,0,0,0-6.482-1.472c-.153,0-.308,0-.461.007a15.091,15.091,0,0,0-3.544.53v0Zm23.411,5.447H59.218V56.473H42.285A21.265,21.265,0,0,1,44.041,59.545Zm-7.864-8.989a8.052,8.052,0,0,1-.3-2.183V45.219H33.932V49.3A21.312,21.312,0,0,1,36.177,50.556Zm-7.22-2.943.051.011v-2.4H28.26Zm30.262-.755V45.219H51.966v1.639ZM35.877,41.5V37.953L33.932,39.9v1.6ZM16.794,68.823a7.832,7.832,0,1,1,8.063,7.593c-.078,0-.157,0-.234,0A7.836,7.836,0,0,1,16.794,68.823ZM36.213,7.731a7.732,7.732,0,1,1,7.733,7.731A7.732,7.732,0,0,1,36.213,7.731Z" fill="none" stroke="#fff" stroke-width="1" stroke-dasharray="2 1"/>
    </g>
  </g>
</svg>
