<?xml version="1.0" encoding="UTF-8"?>
<svg width="179px" height="218px" viewBox="0 0 179 218" version="1.1" xmlns="http://www.w3.org/2000/svg" xmlns:xlink="http://www.w3.org/1999/xlink">
    <title>Group 6</title>
    <defs>
        <linearGradient x1="50%" y1="14.9929982%" x2="50%" y2="86.0056751%" id="linearGradient-1">
            <stop stop-color="#FFFFFF" stop-opacity="0.01171875" offset="0%"></stop>
            <stop stop-color="#FFFFFF" offset="100%"></stop>
        </linearGradient>
    </defs>
    <g id="Page-1" stroke="none" stroke-width="1" fill="none" fill-rule="evenodd">
        <g id="Artboard" transform="translate(-117.000000, -343.000000)">
            <g id="Group-6" transform="translate(117.000000, 343.937500)">
                <g id="1" transform="translate(32.621094, 0.000000)" fill="#E5E5E5" fill-rule="nonzero">
                    <polygon id="Path" points="91.6015625 199.0625 45.390625 199.0625 45.390625 51.953125 0 65.2148438 0 30.2148437 87.3632812 0 91.6015625 0"></polygon>
                </g>
                <!-- <rect id="Rectangle-Copy" fill="url(#linearGradient-1)" x="0" y="80.0625" width="179" height="137"></rect> -->
                <path d="M135.21514,126.182959 L131.441613,126.182959 L131.441613,136.446442 L128.410703,136.446442 L128.410703,126.182959 L124.706257,126.182959 L124.706257,123.835782 L135.21514,123.835782 L135.21514,126.182959 Z M5.87630276,131.42471 L1.25866837,131.42471 L1.25866837,134.430135 L6.71283073,134.430135 L6.71283073,136.76865 L-1.67754481,136.76865 L-1.67754481,124.157991 L6.72956129,124.157991 L6.72956129,126.505167 L1.25866837,126.505167 L1.25866837,129.164146 L5.87630276,129.164146 L5.87630276,131.42471 Z M8.69160126,131.539108 L8.69160126,128.386443 L11.844266,128.386443 L11.844266,131.539108 L8.69160126,131.539108 Z M19.3658059,132.09564 L17.8351254,132.09564 L17.8351254,136.547479 L15.0073946,136.547479 L15.0073946,123.93682 L19.6236048,123.93682 C21.0146443,123.93682 22.1022331,124.268832 22.8863711,124.932855 C23.6705092,125.596877 24.0625783,126.53517 24.0625783,127.747734 C24.0625783,128.625399 23.8974259,129.352937 23.5671212,129.930348 C23.2368164,130.507759 22.7198761,130.975462 22.0163001,131.333457 L24.4653889,136.417562 L24.4653889,136.547479 L21.4362528,136.547479 L19.3658059,132.09564 Z M17.8351254,129.748463 L19.6236048,129.748463 C20.1606857,129.748463 20.564839,129.596893 20.8360649,129.293752 C21.1072907,128.990611 21.2429036,128.567658 21.2429036,128.024891 C21.2429036,127.482125 21.105948,127.056284 20.8320368,126.747369 C20.5581255,126.438454 20.1553148,126.283997 19.6236048,126.283997 L17.8351254,126.283997 L17.8351254,129.748463 Z M35.183336,130.941571 C35.183336,132.138572 34.9661195,133.19789 34.5316863,134.119524 C34.0972532,135.041159 33.4799732,135.750649 32.6798463,136.247995 C31.8797195,136.74534 30.9682348,136.994013 29.9453922,136.994013 C28.9225496,136.994013 28.0151893,136.75377 27.2233111,136.273283 C26.431433,135.792797 25.814153,135.105786 25.3714711,134.21225 C24.9287893,133.318714 24.69645,132.293114 24.6744534,131.135451 L24.6744534,130.444225 C24.6744534,129.241605 24.8902952,128.180882 25.3219788,127.262057 C25.7536623,126.343232 26.3723171,125.633742 27.1779431,125.133587 C27.9835691,124.633431 28.900553,124.383354 29.9288947,124.383354 C30.9462382,124.383354 31.8535985,124.630622 32.6509758,125.125157 C33.4483531,125.619693 34.0683826,126.323563 34.5110645,127.236768 C34.9537464,128.149973 35.1778369,129.196647 35.183336,130.376789 L35.183336,130.941571 Z M32.2385393,130.427366 C32.2385393,129.207886 32.0391949,128.282037 31.6405063,127.649818 C31.2418177,127.017599 30.6712805,126.70149 29.9288947,126.70149 C28.4771182,126.70149 27.7099862,127.814195 27.6274989,130.039605 L27.6192502,130.941571 C27.6192502,132.144192 27.8144701,133.068636 28.2049101,133.714904 C28.59535,134.361172 29.1755107,134.684307 29.9453922,134.684307 C30.6767796,134.684307 31.2404429,134.366792 31.6363819,133.731763 C32.032321,133.096735 32.2330401,132.18353 32.2385393,130.992148 L32.2385393,130.427366 Z M46.6328025,123.716115 L46.6328025,131.858363 C46.6328025,132.781094 46.4431478,133.57994 46.0638385,134.254901 C45.6845293,134.929862 45.1403029,135.443914 44.4311595,135.797058 C43.722016,136.150202 42.8836876,136.326774 41.9161741,136.326774 C40.4539093,136.326774 39.3022384,135.933759 38.4611613,135.147729 C37.6200842,134.361699 37.1912998,133.285179 37.1748081,131.91817 L37.1748081,123.716115 L40.0855945,123.716115 L40.0855945,131.977977 C40.1185779,133.33929 40.7287711,134.019946 41.9161741,134.019946 C42.5153728,134.019946 42.9688947,133.84907 43.2767399,133.507318 C43.5845852,133.165566 43.7385078,132.610218 43.7385078,131.841276 L43.7385078,123.716115 L46.6328025,123.716115 Z M51.8896154,124.385682 L54.7140447,133.159445 L57.5297835,124.385682 L61.5448184,124.385682 L61.5448184,136.996342 L58.4857442,136.996342 L58.4857442,134.051545 L58.781223,128.023373 L55.7221487,136.996342 L53.7059407,136.996342 L50.6381759,128.014711 L50.9336547,134.051545 L50.9336547,136.996342 L47.883271,136.996342 L47.883271,124.385682 L51.8896154,124.385682 Z M71.1608495,123.496342 L73.9852788,132.270104 L76.8010176,123.496342 L80.8160525,123.496342 L80.8160525,136.107001 L77.7569783,136.107001 L77.7569783,133.162204 L78.052457,127.134032 L74.9933828,136.107001 L72.9771748,136.107001 L69.90941,127.12537 L70.2048888,133.162204 L70.2048888,136.107001 L67.1545051,136.107001 L67.1545051,123.496342 L71.1608495,123.496342 Z M89.6573249,133.863844 L85.6913835,133.863844 L84.9987867,136.219682 L81.9068366,136.219682 L86.3097736,123.609023 L89.0306897,123.609023 L93.4666075,136.219682 L90.3581669,136.219682 L89.6573249,133.863844 Z M86.3839804,131.516668 L88.9647281,131.516668 L87.6702316,127.142779 L86.3839804,131.516668 Z M98.6782859,132.103091 L97.1476054,132.103091 L97.1476054,136.554931 L94.3198746,136.554931 L94.3198746,123.944272 L98.9360848,123.944272 C100.327124,123.944272 101.414713,124.276283 102.198851,124.940306 C102.982989,125.604329 103.375058,126.542622 103.375058,127.755186 C103.375058,128.63285 103.209906,129.360389 102.879601,129.9378 C102.549296,130.515211 102.032356,130.982914 101.32878,131.340909 L103.777869,136.425014 L103.777869,136.554931 L100.748733,136.554931 L98.6782859,132.103091 Z M97.1476054,129.755915 L98.9360848,129.755915 C99.4731657,129.755915 99.877319,129.604345 100.148545,129.301204 C100.419771,128.998063 100.555384,128.575109 100.555384,128.032343 C100.555384,127.489576 100.418428,127.063736 100.144517,126.754821 C99.8706055,126.445906 99.4677948,126.291448 98.9360848,126.291448 L97.1476054,126.291448 L97.1476054,129.755915 Z M109.138495,131.750226 L107.899118,133.118691 L107.899118,136.444579 L104.878137,136.444579 L104.878137,123.83392 L107.899118,123.83392 L107.899118,129.394389 L108.949146,127.792073 L111.651676,123.83392 L115.38702,123.83392 L111.152482,129.411711 L115.38702,136.444579 L111.806598,136.444579 L109.138495,131.750226 Z M123.396933,131.10157 L118.779299,131.10157 L118.779299,134.106995 L124.233461,134.106995 L124.233461,136.44551 L115.843085,136.44551 L115.843085,123.834851 L124.250192,123.834851 L124.250192,126.182027 L118.779299,126.182027 L118.779299,128.841006 L123.396933,128.841006 L123.396933,131.10157 Z" id="Path-7" fill="#333333" fill-rule="nonzero" opacity="0.100000001" transform="translate(66.768798, 130.246342) rotate(-90.000000) translate(-66.768798, -130.246342) "></path>
            </g>
        </g>
    </g>
</svg>