<svg id="cake" xmlns="http://www.w3.org/2000/svg" width="46" height="46" viewBox="0 0 46 46">
  <path id="Combined_Shape" data-name="Combined Shape" d="M2,46V37H44v9ZM36.5,32.182a5,5,0,0,1-9,0,5,5,0,0,1-9,0,5,5,0,0,1-9,0A5,5,0,1,1,4,25.1V25H42v.1a5,5,0,1,1-5.5,7.082Zm-4-11a5,5,0,0,1-9,0,5,5,0,0,1-9,0A5,5,0,1,1,10,14H37a5,5,0,1,1-4.5,7.182ZM24.561,9.353c1.077-1.795,2-2.75,2-3.749s-.25-2-1.5-2-1.75,1.75-1.75,1.75v-3.5a4.086,4.086,0,0,1,6.75,0c1.75,2.5-1,6-2.75,7.5a20.725,20.725,0,0,0-3,3.25A5.089,5.089,0,0,1,24.561,9.353Zm-5.251-.07c-1.75-1.5-4.5-5-2.75-7.5a4.087,4.087,0,0,1,6.75,0v3.5s-.5-1.75-1.75-1.75-1.5,1-1.5,2,.923,1.955,2,3.75a5.092,5.092,0,0,1,.25,3.25A20.705,20.705,0,0,0,19.31,9.283Z" fill="#fff"/>
  <rect id="Rectangle_Copy_3" data-name="Rectangle Copy 3" width="46" height="46" transform="translate(0)" fill="none"/>
</svg>
