<svg xmlns="http://www.w3.org/2000/svg" width="50.022" height="41.581" viewBox="0 0 50.022 41.581">
  <path id="Rectangle_3" data-name="Rectangle 3" d="M4,22a4,4,0,0,1-4-4V8.968a4,4,0,0,1,4-4h.115L6.451,2.161A5.986,5.986,0,0,1,11.063,0H23.955A1.99,1.99,0,0,1,25.9,1.553l.785,3.415h9.452a1,1,0,0,1,.957-.71h6.96a1,1,0,0,1,1,1v6.25a1,1,0,0,1-.973,1l-7.6.208c-.124.06-.392.041-.392-.3v-.184l-1.924,6.849A4,4,0,0,1,30.324,22ZM24.3,4.968l-.45-2.053a1,1,0,0,0-.977-.786H11.076a2.993,2.993,0,0,0-2.306,1.08L7.307,4.968Z" transform="translate(0 22.529) rotate(-30)" fill="#333"/>
</svg>
