<svg id="bag" xmlns="http://www.w3.org/2000/svg" width="46" height="46" viewBox="0 0 46 46">
  <g id="Group_4" data-name="Group 4" transform="translate(3)">
    <g id="Group_3" data-name="Group 3">
      <path id="Combined_Shape" data-name="Combined Shape" d="M7.582,42.568h0l0,0A3.439,3.439,0,0,0,9.2,39.321L9.233,16.4l.117-.02c3.073-.494,18.5-2.957,20.451-2.957a2.181,2.181,0,0,1,2.03,1.489,5.229,5.229,0,0,1,.406,1.489c.024.167,2.4,16.74,2.4,20.219a3.521,3.521,0,0,1-1.759,3.214,4.65,4.65,0,0,1-1.76.575C30.931,40.425,11.876,42.567,7.582,42.568ZM20.991,23.887h0L21,35.54h3.159l-.007-15.205h-.29L17.887,22.4v2.393l3.1-.907ZM5.142,42.568c-1.069,0-5.1-3.483-5.142-3.518L2.738,14.773,7.61,15.855,6.766,39.862C6.761,39.889,6.211,42.568,5.142,42.568Zm3.82-29.419A1.083,1.083,0,0,1,7.889,12.2c-.508-3.96-.314-6.676.611-8.548C9.477,1.68,11.3.524,14.247.016A1.092,1.092,0,0,1,14.432,0a1.082,1.082,0,0,1,.882,1.707,1.073,1.073,0,0,1-.7.442c-2.33.4-3.663,1.248-4.323,2.743-.629,1.425-.7,3.53-.255,7.036A1.085,1.085,0,0,1,9.1,13.14,1.029,1.029,0,0,1,8.962,13.149Zm5.683,0a1.079,1.079,0,0,1-1.075-.971c-.465-4.54.182-7.819,1.923-9.748a6.556,6.556,0,0,1,5.108-2,7.154,7.154,0,0,1,5.446,2.043C27.682,4.206,28.4,7,28.176,10.777A1.083,1.083,0,0,1,27.1,11.8l-.065,0a1.082,1.082,0,0,1-1.018-1.144C26.2,7.456,25.708,5.282,24.5,4a5.066,5.066,0,0,0-3.9-1.409,4.482,4.482,0,0,0-3.537,1.359c-1.305,1.446-1.744,4.064-1.34,8a1.082,1.082,0,0,1-.967,1.187C14.718,13.146,14.682,13.148,14.645,13.148Z" transform="translate(3.595 3.431)" fill="#fff"/>
      <path id="Path_3" data-name="Path 3" d="M0,1.14,2.735,0l1.14,7.521Z" transform="translate(3.595 6.609)" fill="#fff"/>
      <path id="Path_4" data-name="Path 4" d="M0,0,.912,6.609,2.507,0Z" transform="translate(0 15.298) rotate(-77)" fill="#fff"/>
      <path id="Path_5" data-name="Path 5" d="M0,6.609,3.191,0,5.242,1.14Z" transform="translate(33.678)" fill="#fff"/>
      <path id="Path_12" data-name="Path 12" d="M0,1.14,4.786,0V2.735Z" transform="translate(34.818 8.432)" fill="#fff"/>
    </g>
  </g>
  <rect id="Rectangle" width="46" height="46" fill="none"/>
</svg>
