<svg xmlns="http://www.w3.org/2000/svg" xmlns:xlink="http://www.w3.org/1999/xlink" width="66.531" height="28.072" viewBox="0 0 66.531 28.072">
  <defs>
    <linearGradient id="linear-gradient" x1="0.035" y1="0.145" x2="0.966" y2="0.906" gradientUnits="objectBoundingBox">
      <stop offset="0.001" stop-color="#1584b9"/>
      <stop offset="0.292" stop-color="#770dac"/>
      <stop offset="0.545" stop-color="#b80d0d"/>
      <stop offset="0.766" stop-color="#e5a20a"/>
      <stop offset="1" stop-color="#43a800"/>
    </linearGradient>
  </defs>
  <g id="Path_7" data-name="Path 7" transform="translate(-35.131 -16.882)" opacity="0.15">
    <path id="Path_7-2" data-name="Path 7" d="M29.2,28.072l-2.9,0V15.952h4.73a5.273,5.273,0,0,1,3.344.958,3.268,3.268,0,0,1,1.205,2.7,3.986,3.986,0,0,1-.508,2.1A3.634,3.634,0,0,1,33.49,23.06L36,27.946v.123H32.9l-2.123-4.277H29.2v4.279Zm0-6.534h1.832A1.649,1.649,0,0,0,32.28,21.1a1.707,1.707,0,0,0,.417-1.219,1.724,1.724,0,0,0-.421-1.229,1.634,1.634,0,0,0-1.238-.445H29.2Zm30.82,6.533V18.208H56.483V15.952H66.531v2.256H62.923v9.863Zm-12.329,0V15.952h8.3v2.256h-5.4v2.555h4.558v2.173H50.594v2.888h5.383v2.247Zm-3.941,0L41.2,23.559l-1.189,1.316v3.2h-2.9V15.952h2.9V21.3l1.007-1.54,2.592-3.8h3.583l-4.062,5.36,4.062,6.759Zm-26.574,0h-3.1l4.408-12.119h2.724L25.66,28.069H22.548l-.7-2.263h-3.97l-.694,2.263h0Zm1.388-4.52h2.585l-1.3-4.2Zm-8.217,4.52v-2.83l.28-5.792L7.725,28.071H5.81L2.9,19.439l.281,5.8v2.83H.278V15.952H4.084l2.683,8.432,2.675-8.432h3.815V28.071ZM38.728,11.3A4.111,4.111,0,0,1,37.44,8.157V.167h2.914V8.215q.05,1.99,1.833,1.989a1.765,1.765,0,0,0,1.362-.5,2.343,2.343,0,0,0,.463-1.623V.167h2.9V8.1a4.59,4.59,0,0,1-.57,2.335,3.707,3.707,0,0,1-1.634,1.5,5.724,5.724,0,0,1-2.518.516A4.95,4.95,0,0,1,38.728,11.3Zm-10.481.437a4.867,4.867,0,0,1-1.853-2.035,7.024,7.024,0,0,1-.7-3.038V5.984a7.263,7.263,0,0,1,.648-3.142A4.861,4.861,0,0,1,28.2.741,5.192,5.192,0,0,1,30.956,0,5.132,5.132,0,0,1,33.68.733a4.937,4.937,0,0,1,1.863,2.084,7.061,7.061,0,0,1,.672,3.1v.558a7.231,7.231,0,0,1-.652,3.138,4.865,4.865,0,0,1-1.854,2.1,5.157,5.157,0,0,1-2.738.736A5.236,5.236,0,0,1,28.247,11.741Zm.406-6.155-.009.89a5.3,5.3,0,0,0,.586,2.738,1.922,1.922,0,0,0,1.742.958,1.9,1.9,0,0,0,1.693-.941,5.146,5.146,0,0,0,.6-2.705V5.968a5.157,5.157,0,0,0-.6-2.743,1.925,1.925,0,0,0-1.714-.936C29.509,2.289,28.734,3.4,28.653,5.585Zm-10.523,6.7h-2.9V.167h4.731a5.273,5.273,0,0,1,3.344.958,3.271,3.271,0,0,1,1.205,2.7,3.976,3.976,0,0,1-.508,2.1,3.628,3.628,0,0,1-1.589,1.349l2.509,4.886v.123h-3.1L19.7,8.007H18.132v4.278h0Zm0-6.534h1.832a1.647,1.647,0,0,0,1.243-.437,1.7,1.7,0,0,0,.416-1.22,1.727,1.727,0,0,0-.42-1.229,1.634,1.634,0,0,0-1.238-.445H18.132Zm40.43,6.533V9.455l.281-5.793-2.907,8.623H54.021L51.107,3.654l.281,5.8v2.83h-2.9V.167H52.3L54.978,8.6,57.654.167h3.814V12.285ZM0,12.285V.167H8.3V2.422H2.9V4.977H7.456V7.15H2.9v2.888H8.281v2.247ZM10.119,7.46V4.8h2.65V7.46Z" transform="translate(35.131 16.882)" fill="none"/>
    <path id="Path_7-3" data-name="Path 7" d="M29.2,28.072l-2.9,0V15.952h4.73a5.273,5.273,0,0,1,3.344.958,3.268,3.268,0,0,1,1.205,2.7,3.986,3.986,0,0,1-.508,2.1A3.634,3.634,0,0,1,33.49,23.06L36,27.946v.123H32.9l-2.123-4.277H29.2v4.279Zm0-6.534h1.832A1.649,1.649,0,0,0,32.28,21.1a1.707,1.707,0,0,0,.417-1.219,1.724,1.724,0,0,0-.421-1.229,1.634,1.634,0,0,0-1.238-.445H29.2Zm30.82,6.533V18.208H56.483V15.952H66.531v2.256H62.923v9.863Zm-12.329,0V15.952h8.3v2.256h-5.4v2.555h4.558v2.173H50.594v2.888h5.383v2.247Zm-3.941,0L41.2,23.559l-1.189,1.316v3.2h-2.9V15.952h2.9V21.3l1.007-1.54,2.592-3.8h3.583l-4.062,5.36,4.062,6.759Zm-26.574,0h-3.1l4.408-12.119h2.724L25.66,28.069H22.548l-.7-2.263h-3.97l-.694,2.263h0Zm1.388-4.52h2.585l-1.3-4.2Zm-8.217,4.52v-2.83l.28-5.792L7.725,28.071H5.81L2.9,19.439l.281,5.8v2.83H.278V15.952H4.084l2.683,8.432,2.675-8.432h3.815V28.071ZM38.728,11.3A4.111,4.111,0,0,1,37.44,8.157V.167h2.914V8.215q.05,1.99,1.833,1.989a1.765,1.765,0,0,0,1.362-.5,2.343,2.343,0,0,0,.463-1.623V.167h2.9V8.1a4.59,4.59,0,0,1-.57,2.335,3.707,3.707,0,0,1-1.634,1.5,5.724,5.724,0,0,1-2.518.516A4.95,4.95,0,0,1,38.728,11.3Zm-10.481.437a4.867,4.867,0,0,1-1.853-2.035,7.024,7.024,0,0,1-.7-3.038V5.984a7.263,7.263,0,0,1,.648-3.142A4.861,4.861,0,0,1,28.2.741,5.192,5.192,0,0,1,30.956,0,5.132,5.132,0,0,1,33.68.733a4.937,4.937,0,0,1,1.863,2.084,7.061,7.061,0,0,1,.672,3.1v.558a7.231,7.231,0,0,1-.652,3.138,4.865,4.865,0,0,1-1.854,2.1,5.157,5.157,0,0,1-2.738.736A5.236,5.236,0,0,1,28.247,11.741Zm.406-6.155-.009.89a5.3,5.3,0,0,0,.586,2.738,1.922,1.922,0,0,0,1.742.958,1.9,1.9,0,0,0,1.693-.941,5.146,5.146,0,0,0,.6-2.705V5.968a5.157,5.157,0,0,0-.6-2.743,1.925,1.925,0,0,0-1.714-.936C29.509,2.289,28.734,3.4,28.653,5.585Zm-10.523,6.7h-2.9V.167h4.731a5.273,5.273,0,0,1,3.344.958,3.271,3.271,0,0,1,1.205,2.7,3.976,3.976,0,0,1-.508,2.1,3.628,3.628,0,0,1-1.589,1.349l2.509,4.886v.123h-3.1L19.7,8.007H18.132v4.278h0Zm0-6.534h1.832a1.647,1.647,0,0,0,1.243-.437,1.7,1.7,0,0,0,.416-1.22,1.727,1.727,0,0,0-.42-1.229,1.634,1.634,0,0,0-1.238-.445H18.132Zm40.43,6.533V9.455l.281-5.793-2.907,8.623H54.021L51.107,3.654l.281,5.8v2.83h-2.9V.167H52.3L54.978,8.6,57.654.167h3.814V12.285ZM0,12.285V.167H8.3V2.422H2.9V4.977H7.456V7.15H2.9v2.888H8.281v2.247ZM10.119,7.46V4.8h2.65V7.46Z" transform="translate(35.131 16.882)" fill="url(#linear-gradient)"/>
  </g>
</svg>
