<svg xmlns="http://www.w3.org/2000/svg" width="74.098" height="76.669" viewBox="0 0 74.098 76.669">
  <path id="Combined_Shape" data-name="Combined Shape" d="M24.7,76.661c-2.712,0-3.45-1.012-2.632-3.6s1.659-5.139,2.5-7.732a45.554,45.554,0,0,1-4.385-2.758c-5.35-4.254-7.756-10.02-8.425-16.684a4.95,4.95,0,0,0-1.244-2.629c-1.507-1.662-2.2-3.436-1.469-5.619a5,5,0,0,1,4.785-3.514c1.905-.061,3.814-.013,6-.013-.316-2.892-.585-5.558-.9-8.218C18.2,19.724,17.439,13.552,16.7,7.38c-.086-.722-.147-1.449-.169-2.176-.1-3.12,1.795-5.169,4.934-5.178q15.588-.049,31.175,0c3.219.012,5.211,2.135,4.885,5.392-.652,6.514-1.481,13.01-2.236,19.513-.343,2.947-.685,5.892-1.067,9.168,2.047,0,3.757-.022,5.466.005,2.682.042,4.518,1.225,5.306,3.371.817,2.226.175,4.113-1.757,6.055a4.167,4.167,0,0,0-.924,2.389c-.731,7.1-3.373,13.155-9.4,17.37-1.02.713-2.163,1.252-3.436,1.978.816,2.517,1.655,5.07,2.472,7.63.872,2.739.165,3.762-2.625,3.765q-5.717.006-11.433.006Q31.3,76.669,24.7,76.661Zm39.949-.122V72.031l1.914-.336V33.457L64.6,33.184V28.559h9.5v4.59l-1.951.346V71.719l1.926.242v4.577ZM0,76.511V72.052l1.931-.381V33.527c-.55-.1-1.168-.217-1.91-.356V28.523H9.489v4.619l-1.972.345V71.654l1.966.365v4.491Z" transform="translate(0 0)" fill="#54bfce"/>
</svg>
