<svg id="Group_5" data-name="Group 5" xmlns="http://www.w3.org/2000/svg" width="85.385" height="58" viewBox="0 0 85.385 58">
  <path id="Path_48" data-name="Path 48" d="M39.869,4.658S14.115,12.567,0,13.78L6.786,3.652,25.536,0Z" transform="translate(45.516 43.006)" fill="#56438e"/>
  <path id="Path_49" data-name="Path 49" d="M0,3.022s20.1,9.2,36.261,11.724L34.016,5.771,11.811,0Z" transform="translate(0 43.254)" fill="#56438e"/>
  <path id="Path_51" data-name="Path 51" d="M36.261,53.984h0c-.073-.065-1.838-1.627-7.113-3.832C24.227,48.093,15.176,45.055,0,42.26c.064-.156,6.928-16.915,9.059-23.5C11.317,11.792,12.712,6.23,13.73,2.168c.2-.781.38-1.516.548-2.169A181.1,181.1,0,0,0,47.022,3.032a123.411,123.411,0,0,0,18.96-1.239l5.6,13.249,13.8,28.607c-.063.006-7.611.67-16.382,2.143C60.99,47.137,50.41,49.44,45.516,52.771l-3.974-8.426-5.28,9.638Z" transform="translate(0 4.016)" fill="#8375ac"/>
  <path id="Path_50" data-name="Path 50" d="M1.121,0s29.11,5.32,48.754,1.47L51.747,5.8S30.252,9.753,0,4.12Z" transform="translate(14.273 0)" fill="#56438e"/>
</svg>
