<?xml version="1.0" encoding="UTF-8"?>
<svg width="192px" height="36px" viewBox="0 0 192 36" version="1.1" xmlns="http://www.w3.org/2000/svg" xmlns:xlink="http://www.w3.org/1999/xlink">
    <title>eroummarket</title>
    <g id="list" stroke="none" stroke-width="1" fill="none" fill-rule="evenodd">
        <g id="768---login" transform="translate(-97.000000, -34.000000)" fill-rule="nonzero">
            <g id="Group-8" transform="translate(20.000000, 20.000000)">
                <g id="eroummarket" transform="translate(77.664000, 14.192000)">
                    <path d="M26.352,33.84 L24.336,33.84 L24.336,0 L26.352,0 L26.352,33.84 Z M18.288,12.744 C18.288,14.112 18.036,15.372 17.604,16.524 C17.1,17.712 16.452,18.72 15.66,19.548 C14.832,20.412 13.86,21.096 12.78,21.564 C11.628,22.068 10.44,22.284 9.144,22.284 C7.812,22.284 6.588,22.068 5.508,21.564 C4.356,21.096 3.384,20.412 2.592,19.548 C1.764,18.72 1.116,17.712 0.684,16.524 C0.216,15.372 0,14.112 0,12.744 C0,11.376 0.216,10.116 0.684,8.928 C1.116,7.776 1.764,6.768 2.592,5.904 C3.384,5.076 4.356,4.428 5.508,3.924 C6.588,3.456 7.812,3.204 9.144,3.204 C10.44,3.204 11.628,3.456 12.78,3.924 C13.86,4.428 14.832,5.076 15.66,5.904 C16.452,6.768 17.1,7.776 17.604,8.928 C18.036,10.116 18.288,11.376 18.288,12.744 Z M16.236,12.744 C16.236,11.664 16.056,10.62 15.696,9.648 C15.336,8.712 14.832,7.92 14.22,7.2 C13.572,6.516 12.816,5.976 11.988,5.544 C11.124,5.184 10.188,4.968 9.18,4.968 C8.172,4.968 7.236,5.184 6.372,5.544 C5.508,5.94 4.752,6.48 4.104,7.164 C3.456,7.884 2.952,8.676 2.592,9.612 C2.232,10.584 2.052,11.628 2.052,12.744 C2.052,13.86 2.232,14.868 2.592,15.804 C2.952,16.776 3.456,17.604 4.104,18.252 C4.716,18.972 5.472,19.512 6.336,19.872 C7.2,20.304 8.136,20.484 9.18,20.484 C10.188,20.484 11.124,20.304 11.988,19.872 C12.852,19.512 13.608,18.972 14.256,18.252 C14.868,17.568 15.372,16.74 15.732,15.804 C16.056,14.868 16.236,13.86 16.236,12.744 Z" id="Shape" fill="#333333"></path>
                    <polygon id="Path" fill="#333333" points="58.076 12.42 39.212 12.42 39.212 18.864 58.724 18.864 58.724 20.592 48.644 20.592 48.644 27.36 63.368 27.36 63.368 29.124 31.904 29.124 31.904 27.36 46.628 27.36 46.628 20.592 37.196 20.592 37.196 10.728 56.06 10.728 56.06 4.824 37.196 4.824 37.196 3.132 58.076 3.132"></polygon>
                    <path d="M70.216,33.12 L70.216,21.852 L79.828,21.852 L79.828,17.928 L64.816,17.928 L64.816,16.164 L96.856,16.164 L96.856,17.928 L81.844,17.928 L81.844,21.852 L91.456,21.852 L91.456,33.12 L70.216,33.12 Z M89.8,7.092 C89.8,8.1 89.548,9.036 89.116,9.828 C88.648,10.656 88.036,11.34 87.244,11.916 C86.416,12.492 85.444,12.96 84.364,13.248 C83.248,13.572 82.06,13.716 80.8,13.716 C79.504,13.716 78.352,13.572 77.272,13.248 C76.192,12.96 75.256,12.492 74.464,11.916 C73.672,11.34 73.024,10.656 72.592,9.828 C72.124,9.036 71.908,8.1 71.908,7.092 C71.908,6.084 72.124,5.184 72.592,4.32 C73.024,3.528 73.672,2.808 74.5,2.232 C75.292,1.656 76.228,1.224 77.308,0.9 C78.388,0.612 79.54,0.432 80.8,0.432 C82.06,0.432 83.248,0.612 84.364,0.9 C85.444,1.224 86.38,1.656 87.208,2.232 C88,2.808 88.648,3.528 89.116,4.32 C89.548,5.184 89.8,6.084 89.8,7.092 Z M89.404,23.652 L72.232,23.652 L72.232,31.32 L89.404,31.32 L89.404,23.652 Z M87.748,7.092 C87.748,6.372 87.568,5.688 87.208,5.076 C86.848,4.5 86.344,3.96 85.732,3.528 C85.084,3.096 84.364,2.772 83.536,2.52 C82.672,2.304 81.772,2.196 80.8,2.196 C79.864,2.196 78.964,2.304 78.172,2.52 C77.308,2.772 76.588,3.096 75.976,3.492 C75.328,3.924 74.824,4.464 74.464,5.04 C74.104,5.688 73.924,6.372 73.924,7.092 C73.924,7.884 74.104,8.568 74.5,9.144 C74.86,9.756 75.328,10.26 75.976,10.656 C76.588,11.088 77.308,11.412 78.172,11.628 C79,11.844 79.864,11.952 80.8,11.952 C81.736,11.952 82.636,11.844 83.5,11.628 C84.328,11.412 85.048,11.088 85.696,10.656 C86.308,10.26 86.812,9.756 87.208,9.144 C87.568,8.568 87.748,7.884 87.748,7.092 Z" id="Shape" fill="#333333"></path>
                    <path d="M114.044,23.292 L114.044,3.168 L129.308,3.168 L129.308,23.292 L114.044,23.292 Z M127.292,4.968 L116.06,4.968 L116.06,21.492 L127.292,21.492 L127.292,4.968 Z M137.948,15.012 L137.948,33.84 L135.932,33.84 L135.932,0 L137.948,0 L137.948,13.248 L144.068,13.248 L144.068,15.012 L137.948,15.012 Z" id="Shape" fill="#333333"></path>
                    <path d="M147.532,18.792 C147.244,18.576 147.028,18.324 146.812,18.036 C146.56,17.82 146.308,17.568 146.056,17.316 C147.028,17.028 148,16.632 149.008,16.128 C149.98,15.66 150.916,15.084 151.852,14.436 C152.716,13.824 153.544,13.14 154.336,12.348 C155.092,11.628 155.776,10.8 156.352,9.936 L146.956,10.692 C146.884,10.404 146.848,10.08 146.776,9.792 C146.704,9.504 146.632,9.216 146.596,8.892 C148.396,8.784 150.16,8.676 151.924,8.532 C153.652,8.46 155.452,8.352 157.252,8.208 C157.612,7.488 157.9,6.696 158.152,5.868 C158.368,5.076 158.476,4.248 158.548,3.312 L147.316,3.312 L147.316,1.584 L160.708,1.584 C160.708,3.78 160.348,5.796 159.664,7.596 C158.944,9.468 158.008,11.088 156.82,12.528 C155.596,14.004 154.228,15.264 152.644,16.308 C151.024,17.388 149.332,18.216 147.532,18.792 Z M174.928,31.716 C174.676,31.932 174.46,32.184 174.244,32.436 C174.028,32.652 173.776,32.868 173.56,33.12 C172.264,32.796 171.04,32.364 169.852,31.86 C168.628,31.32 167.548,30.708 166.54,30.024 C165.532,29.34 164.632,28.548 163.876,27.648 C163.084,26.784 162.508,25.884 162.076,24.876 C161.644,25.884 161.032,26.784 160.276,27.648 C159.484,28.512 158.62,29.304 157.612,30.024 C156.604,30.708 155.488,31.32 154.336,31.86 C153.112,32.364 151.888,32.796 150.592,33.12 C150.34,32.868 150.124,32.652 149.908,32.436 C149.692,32.184 149.44,31.932 149.224,31.716 C150.808,31.32 152.32,30.78 153.76,30.132 C155.164,29.448 156.388,28.62 157.468,27.684 C158.512,26.748 159.376,25.704 160.024,24.516 C160.636,23.364 160.96,22.104 161.032,20.736 L161.032,20.052 L163.12,20.052 L163.12,20.52 C163.12,21.96 163.444,23.256 164.092,24.444 C164.704,25.668 165.568,26.748 166.648,27.684 C167.728,28.656 168.988,29.484 170.428,30.168 C171.832,30.816 173.344,31.356 174.928,31.716 Z M159.952,9.864 L159.952,8.064 L165.64,8.064 L165.64,0.72 L167.584,0.72 L167.584,17.28 L165.64,17.28 L165.64,9.864 L159.952,9.864 Z M173.812,18.72 L171.904,18.72 L171.904,0 L173.812,0 L173.812,18.72 Z" id="Shape" fill="#333333"></path>
                    <path d="M182.535219,20.6732344 L190.535219,20.6732344 L190.535219,26.3830732 L189.708314,27.6732344 L182.535219,27.6732344 L182.535219,20.6732344 Z M182.535219,3.67323437 L190.535219,3.67323437 L190.535219,11.6732344 L182.535219,11.6732344 L182.535219,3.67323437 Z M190.535219,20.6732344 L190.535219,26.6732344 C190.535219,31.6437971 186.505781,35.6732344 181.535219,35.6732344 C184.848927,35.6732344 187.535311,32.9869429 187.535311,29.6732344 L187.535311,25.6732344 C187.509855,24.184011 187.464497,22.8857093 187.399237,21.7783293 C188.3213,21.4817354 189.366363,21.1127667 190.535219,20.6732344 Z" id="Shape" fill="#1D1D1D"></path>
                </g>
            </g>
        </g>
    </g>
</svg>