<?xml version="1.0" encoding="UTF-8"?>
<svg width="400px" height="76px" viewBox="0 0 400 76" version="1.1" xmlns="http://www.w3.org/2000/svg" xmlns:xlink="http://www.w3.org/1999/xlink">
    <title>Group 12 Copy 3@1x</title>
    <defs>
        <path d="M61.037234,0 L81.3829787,24.4685455 L40.6914894,76 L0,24.1818182 L20.6305851,0 L61.037234,0 Z M24.1993564,27.4893617 L11.1702128,27.4893617 L33.5106383,56.5957447 L24.1993564,27.4893617 Z M70.212766,27.4893617 L57.128459,27.4893617 L47.8723404,56.5957447 L70.212766,27.4893617 Z M49.4680851,27.4893617 L31.9148936,27.4893617 L40.6914894,54.9787234 L49.4680851,27.4893617 Z M39.9409709,12.9361702 L33.5106383,21.0212766 L46.2765957,21.0212766 L39.9409709,12.9361702 Z M19.2428035,12.9361702 L11.1702128,21.0212766 L22.3404255,21.0212766 L19.2428035,12.9361702 Z M62.1966666,11.3191489 L59.0425532,21.0212766 L70.212766,21.0212766 L62.1966666,11.3191489 Z M55.8510638,6.46808511 L44.6808511,6.46808511 L52.5771516,16.1702128 L55.8510638,6.46808511 Z M36.7021277,6.46808511 L25.5319149,6.46808511 L28.7733613,16.1702128 L36.7021277,6.46808511 Z" id="path-1"></path>
    </defs>
    <g id="Page-1" stroke="none" stroke-width="1" fill="none" fill-rule="evenodd">
        <g id="Group-15" transform="translate(0.862305, 0.000000)">
            <path d="M377.990234,38.5066667 L398.240234,50.5778158 L357.740234,76 L317.240234,50.4363636 L337.773734,38.5066667 L377.990234,38.5066667 Z M341.070839,51.68 L328.240234,51.68 L350.240234,66.88 L341.070839,51.68 Z M387.240234,51.68 L374.355307,51.68 L365.240234,66.88 L387.240234,51.68 Z M367.240234,51.68 L349.240234,51.68 L358.240234,64.8533333 L367.240234,51.68 Z M356.788456,45.6 L350.240234,49.6533333 L363.240234,49.6533333 L356.788456,45.6 Z M336.189814,45.6 L328.240234,49.6533333 L339.240234,49.6533333 L336.189814,45.6 Z M379.346285,43.5733333 L376.240234,48.64 L387.240234,48.64 L379.346285,43.5733333 Z M373.240234,41.5466667 L362.240234,41.5466667 L370.01621,46.6133333 L373.240234,41.5466667 Z M354.240234,41.5466667 L343.240234,41.5466667 L346.432287,46.6133333 L354.240234,41.5466667 Z" id="Mask" fill="#FFFFFF" fill-rule="nonzero"></path>
            <g id="Bitmap" transform="translate(317.240234, 0.000000)">
                <mask id="mask-2" fill="white">
                    <use xlink:href="#path-1"></use>
                </mask>
                <use id="Mask" fill="#FFFFFF" fill-rule="nonzero" xlink:href="#path-1"></use>
            </g>
            <path d="M236.523438,11.234375 L236.523438,44.2861328 C236.660156,49.7320964 239.189453,52.4550781 244.111328,52.4550781 C246.595052,52.4550781 248.474935,51.7714844 249.750977,50.4042969 C251.027018,49.0371094 251.665039,46.8154297 251.665039,43.7392578 L251.665039,11.234375 L263.662109,11.234375 L263.662983,21.1320654 C262.138575,21.136896 260.581734,21.139643 258.992459,21.1403064 L258.141,21.140375 L259.102856,21.1434228 C260.653943,21.1490247 262.173884,21.1563764 263.662679,21.1654777 L263.662109,43.8076172 C263.662109,47.4990234 262.875977,50.6948242 261.303711,53.3950195 C259.731445,56.0952148 257.475586,58.1516927 254.536133,59.5644531 C251.59668,60.9772135 248.121745,61.6835937 244.111328,61.6835937 C238.05013,61.6835937 233.276367,60.1113281 229.790039,56.9667969 C226.303711,53.8222656 224.526367,49.515625 224.458008,44.046875 L224.458008,11.234375 L236.523438,11.234375 Z M19.8583984,11.234375 C23.663737,11.234375 27.0304362,11.9350586 29.9584961,13.3364258 C32.886556,14.737793 35.1538086,16.7316081 36.7602539,19.3178711 C38.3666992,21.9041341 39.1699219,24.8378906 39.1699219,28.1191406 C39.1699219,32.9726562 37.4324544,36.8520508 33.9575195,39.7573242 C30.4825846,42.6625977 25.7145182,44.1152344 19.6533203,44.1152344 L11.9970703,44.1152344 L11.9970703,61 L0,61 L0,11.234375 L19.8583984,11.234375 Z M54.6419271,11.234375 L54.6419271,51.7714844 L75.5257161,51.7714844 L75.525,58.079375 L92.7067057,11.234375 L103.986003,11.234375 L122.374674,61 L109.488932,61 L106.583659,51.703125 L90.1432292,51.703125 L87.2721354,61 L42.6448568,61 L42.6448568,11.234375 L54.6419271,11.234375 Z M158.046875,11.234375 L158.046875,20.4970703 L143.110352,20.4970703 L143.110352,61 L131.113281,61 L131.113281,20.4970703 L116.450195,20.4970703 L116.450195,11.234375 L158.046875,11.234375 Z M172.972005,11.234375 L172.972005,61 L161.009115,61 L161.009115,11.234375 L172.972005,11.234375 Z M190.392253,11.234375 L207.994792,42.2011719 L207.994792,11.234375 L219.957682,11.234375 L219.957682,61 L208.028971,61 L190.392253,30.0332031 L190.392253,61 L178.395182,61 L178.395182,11.234375 L190.392253,11.234375 Z M287.288774,21.5234617 L295.096029,45.8583984 L302.672641,22.1738821 C311.288706,22.7243998 316.028859,23.4926584 316.893099,24.4786581 C319.170412,27.076814 320.186489,32.0058549 319.941328,39.2657811 C320.113378,34.064246 320.786519,30.1133809 321.96075,27.4131856 L321.961263,61 L309.930013,61 L309.930013,49.3789062 L311.092122,25.5898437 L299.060872,61 L291.131185,61 L279.065755,25.5556641 L280.227865,49.3789062 L280.227865,61 L268.230794,61 L268.231398,21.1997728 C275.36609,21.2637248 281.718549,21.3716211 287.288774,21.5234617 Z M98.3463542,25.1796875 L93.0143229,42.4404297 L103.712565,42.4404297 L98.3463542,25.1796875 Z M19.9951172,20.4970703 L11.9970703,20.4970703 L11.9970703,34.8525391 L19.8583984,34.8525391 C22.1826172,34.8525391 23.9542643,34.2714844 25.1733398,33.109375 C26.3924154,31.9472656 27.0019531,30.3066406 27.0019531,28.1875 C27.0019531,25.8632812 26.3753255,24.0061849 25.1220703,22.6162109 C23.8688151,21.226237 22.1598307,20.5198568 19.9951172,20.4970703 Z M283.98763,11.234375 L287.06862,20.8338294 C281.544348,20.9746125 275.265457,21.0669182 268.231948,21.1107463 L268.230794,11.234375 L283.98763,11.234375 Z M317.101824,17.8594439 C315.935709,18.8408187 311.342632,19.6020417 303.322593,20.1431131 L306.170247,11.234375 L319.406723,11.2351671 C319.124435,14.5957537 318.356135,16.803846 317.101824,17.8594439 Z M321.961263,11.234375 L321.96116,17.4837101 C320.919289,16.2485057 320.178423,14.1654034 319.738561,11.2344031 L321.961263,11.234375 Z" id="Combined-Shape" fill="#FFFFFF" fill-rule="nonzero"></path>
        </g>
    </g>
</svg>