<svg xmlns="http://www.w3.org/2000/svg" xmlns:xlink="http://www.w3.org/1999/xlink" width="67.893" height="95.5" viewBox="0 0 67.893 95.5">
  <defs>
    <linearGradient id="linear-gradient" x1="0.203" y1="0.102" x2="0.822" y2="1" gradientUnits="objectBoundingBox">
      <stop offset="0" stop-color="#2fd8de"/>
      <stop offset="0.474" stop-color="#4958e0"/>
      <stop offset="1" stop-color="#ff4063"/>
    </linearGradient>
  </defs>
  <g id="Group_29" data-name="Group 29" transform="translate(0.505 0.5)">
    <path id="Fill_2" data-name="Fill 2" d="M1.777,79.457a4.486,4.486,0,0,1-.866-6.285L15.668,53.7q.126-.167.265-.318a4.484,4.484,0,0,1,3.784-2.075H35.279q-.009-.206-.009-.415V27.491a9.275,9.275,0,1,1,18.55,0V50.9a9.277,9.277,0,0,1-8.571,9.249,4.492,4.492,0,0,1-1.1.137H21.938L8.059,78.592a4.483,4.483,0,0,1-6.282.866Zm35-71.7a7.76,7.76,0,1,1,7.762,7.759A7.759,7.759,0,0,1,36.778,7.759Z" fill="none" stroke="#333" stroke-miterlimit="10" stroke-width="1" stroke-dasharray="2 2"/>
    <path id="Fill_67" data-name="Fill 67" d="M3.157,21.461a3.157,3.157,0,0,1,0-6.314H15.115L16.779,2.739a3.157,3.157,0,1,1,6.258.839L21.023,18.61q-.018.133-.046.262a3.157,3.157,0,0,1-3.106,2.589Z" transform="translate(24.523 24.581)" fill="#fff" stroke="#333" stroke-miterlimit="10" stroke-width="1" stroke-dasharray="2 2"/>
    <g id="Fill_29" data-name="Fill 29">
      <path id="Fill_29-2" data-name="Fill 29" d="M37.174,69.313V48.74H7.35V69.313a2.373,2.373,0,1,1-4.747,0V48.327a4.488,4.488,0,0,1,1.883-8.562H5.756V27.67a2.385,2.385,0,0,1,.042-.449A2.373,2.373,0,0,1,8.17,24.966H36.69l2.279-21.68a3.668,3.668,0,1,1,7.3.765L42.029,44.362a4.5,4.5,0,0,1-.078.737q-.013.1-.03.2V69.313a2.373,2.373,0,1,1-4.747,0Zm-2.04-29.547,1.057-10.053H10.5V39.766ZM16.25,60.154a5.531,5.531,0,0,1-5.311-3.983l-.613-3.223a1.313,1.313,0,0,1,1.261-1.68h21.2a1.313,1.313,0,0,1,1.261,1.68l-.613,3.223a5.531,5.531,0,0,1-5.311,3.983Z" transform="translate(21.103 23.313)" fill="none"/>
      <path id="Fill_29-3" data-name="Fill 29" d="M37.174,69.313V48.74H7.35V69.313a2.373,2.373,0,1,1-4.747,0V48.327a4.488,4.488,0,0,1,1.883-8.562H5.756V27.67a2.385,2.385,0,0,1,.042-.449A2.373,2.373,0,0,1,8.17,24.966H36.69l2.279-21.68a3.668,3.668,0,1,1,7.3.765L42.029,44.362a4.5,4.5,0,0,1-.078.737q-.013.1-.03.2V69.313a2.373,2.373,0,1,1-4.747,0Zm-2.04-29.547,1.057-10.053H10.5V39.766ZM16.25,60.154a5.531,5.531,0,0,1-5.311-3.983l-.613-3.223a1.313,1.313,0,0,1,1.261-1.68h21.2a1.313,1.313,0,0,1,1.261,1.68l-.613,3.223a5.531,5.531,0,0,1-5.311,3.983Z" transform="translate(21.103 23.313)" fill="url(#linear-gradient)"/>
    </g>
  </g>
</svg>
