<?xml version="1.0" encoding="UTF-8"?>
<svg width="179px" height="163px" viewBox="0 0 179 163" version="1.1" xmlns="http://www.w3.org/2000/svg" xmlns:xlink="http://www.w3.org/1999/xlink">
    <title>Group 15</title>
    <defs>
        <linearGradient x1="-1.82652547e-14%" y1="12.5414872%" x2="79.6354444%" y2="72.4938738%" id="linearGradient-1">
            <stop stop-color="#FDFB4B" offset="0%"></stop>
            <stop stop-color="#FF968E" offset="100%"></stop>
        </linearGradient>
        <filter x="-25.2%" y="-29.1%" width="150.4%" height="158.3%" filterUnits="objectBoundingBox" id="filter-2">
            <feGaussianBlur stdDeviation="10" in="SourceGraphic"></feGaussianBlur>
        </filter>
        <path d="M5.73,2.82433218 C1.23,2.91433218 0,7.05433218 0,10.8343322 C0,14.5243322 0.66,19.5343322 5.82,19.5343322 C10.74,19.5343322 11.76,15.1543322 11.76,10.8343322 C11.76,6.51433218 10.68,2.73433218 5.73,2.82433218 Z M15.9,26.1043322 C15.9,26.9743322 16.5,27.4243322 17.25,27.4243322 C17.79,27.4243322 18.57,27.0343322 18.54,26.3143322 C18.45,24.3643322 18.51,20.7043322 18.51,18.0043322 C18.51,15.8743322 18.48,13.8043322 18.51,11.7643322 C18.51,9.63433218 18.54,7.62433218 18.54,5.82433218 L18.54,1.29433218 C18.54,0.514332181 17.7,-0.0556678188 17.01,0.00433218116 C16.35,0.0943321812 15.84,0.544332181 15.84,1.47433218 C15.93,2.79433218 15.96,5.07433218 15.96,7.89433218 C15.96,9.72433218 15.99,14.4343322 15.99,16.5943322 C15.96,19.3843322 15.9,21.9943322 15.9,26.1043322 Z M5.73,5.16433218 C8.1,4.98433218 9.06,6.90433218 9.06,10.8343322 C9.06,12.9043322 8.91,17.1943322 5.82,17.1943322 C2.88,17.1943322 2.7,13.4143322 2.7,10.8343322 C2.7,8.64433218 3.09,5.40433218 5.73,5.16433218 Z" id="path-3"></path>
        <filter x="-35.1%" y="-20.1%" width="170.1%" height="147.4%" filterUnits="objectBoundingBox" id="filter-4">
            <feOffset dx="0" dy="1" in="SourceAlpha" result="shadowOffsetOuter1"></feOffset>
            <feGaussianBlur stdDeviation="2" in="shadowOffsetOuter1" result="shadowBlurOuter1"></feGaussianBlur>
            <feColorMatrix values="0 0 0 0 0   0 0 0 0 0   0 0 0 0 0  0 0 0 0.0969187063 0" type="matrix" in="shadowBlurOuter1"></feColorMatrix>
        </filter>
        <path d="M42.39,20.6143322 C40.71,20.6743322 36.99,20.8543322 34.08,20.6743322 L34.08,17.2543322 C34.08,16.5043322 33.36,16.0843322 32.73,16.0843322 C32.01,16.0843322 31.29,16.5343322 31.41,17.4643322 C31.44,18.5143322 31.47,19.6243322 31.44,20.6443322 C29.43,20.7343322 26.46,20.7343322 24.51,20.6743322 C23.88,20.6743322 23.31,20.6443322 22.74,20.7043322 C22.17,20.7643322 21.69,21.2443322 21.69,21.8743322 C21.69,22.6843322 22.26,23.1343322 22.92,23.1343322 C26.46,23.1043322 28.62,23.0743322 30.81,23.0743322 C33.03,23.0743322 35.22,23.1043322 37.47,23.1043322 C38.76,23.1043322 40.08,23.1343322 41.4,23.1343322 C41.4,23.1343322 42.39,23.1343322 42.81,23.0443322 C43.41,22.8643322 43.74,22.5043322 43.74,21.7543322 C43.74,20.9743322 43.17,20.6143322 42.39,20.6143322 Z M26.76,4.23433218 L28.02,4.23433218 C28.8,4.23433218 34.32,4.14433218 36.45,4.14433218 C36.78,4.14433218 36.87,4.17433218 36.87,4.56433218 C36.9,5.46433218 36.9,6.30433218 36.87,7.20433218 C35.52,7.32433218 28.56,7.29433218 26.94,7.29433218 C25.77,7.29433218 25.35,7.74433218 25.41,9.06433218 C25.47,10.2343322 25.47,11.8843322 25.44,13.2343322 C25.41,14.3443322 25.71,15.3043322 27.48,15.3943322 C28.11,15.4243322 29.13,15.4243322 30.27,15.4243322 C32.28,15.4243322 34.89,15.3943322 37.44,15.2743322 C38.49,15.2143322 39.27,15.1543322 39.54,15.1243322 C40.14,15.0343322 40.56,14.5243322 40.56,13.9543322 C40.56,13.3543322 40.14,12.7243322 39.15,12.7543322 C38.97,12.7543322 38.67,12.7843322 38.43,12.8143322 C38.1,12.8443322 37.23,12.9043322 36.75,12.9343322 C35.43,12.9943322 33.24,13.0543322 30.87,13.0843322 C30.24,13.0843322 29.13,13.0843322 28.59,13.0543322 C28.23,13.0243322 28.2,12.9343322 28.17,12.6343322 C28.11,12.0343322 28.11,10.5343322 28.14,9.69433218 C29.82,9.66433218 31.2,9.66433218 32.58,9.66433218 C35.13,9.63433218 37.62,9.63433218 38.13,9.60433218 C39.6,9.51433218 39.57,8.94433218 39.54,8.01433218 C39.54,4.71433218 39.48,6.51433218 39.54,3.42433218 C39.57,2.07433218 39.18,1.59433218 37.62,1.71433218 C36.84,1.77433218 34.2,1.80433218 31.44,1.80433218 C30.36,1.80433218 29.25,1.83433218 28.23,1.83433218 L26.94,1.83433218 C25.8,1.83433218 25.53,2.40433218 25.53,3.03433218 C25.53,3.60433218 25.89,4.20433218 26.76,4.23433218 Z" id="path-5"></path>
        <filter x="-29.5%" y="-25.7%" width="159.0%" height="160.6%" filterUnits="objectBoundingBox" id="filter-6">
            <feOffset dx="0" dy="1" in="SourceAlpha" result="shadowOffsetOuter1"></feOffset>
            <feGaussianBlur stdDeviation="2" in="shadowOffsetOuter1" result="shadowBlurOuter1"></feGaussianBlur>
            <feColorMatrix values="0 0 0 0 0   0 0 0 0 0   0 0 0 0 0  0 0 0 0.0969187063 0" type="matrix" in="shadowBlurOuter1"></feColorMatrix>
        </filter>
        <path d="M63.03,12.7543322 C59.19,12.8143322 55.23,12.8743322 51.51,12.8143322 C50.49,12.7843322 48.6,12.6943322 47.46,12.6643322 C47.13,12.6643322 46.44,12.6043322 46.17,12.6343322 C45.45,12.7243322 44.97,13.0243322 44.88,13.7443322 C44.79,14.5543322 45.15,14.9743322 45.78,15.1243322 C46.2,15.1843322 47.25,15.1843322 47.61,15.1843322 C49.89,15.2443322 52.47,15.2443322 54.75,15.2443322 L54.75,18.1843322 L50.1,18.1843322 C49.29,18.1843322 48.51,18.3343322 48.51,19.5043322 C48.51,23.4943322 48.48,24.7843322 48.48,25.7743322 C48.48,27.0643322 48.99,27.6643322 50.7,27.6643322 C55.86,27.6643322 56.88,27.6643322 61.8,27.4543322 C62.67,27.4243322 63.3,27.0643322 63.33,26.0743322 C63.39,24.1243322 63.39,19.4743322 63.39,19.4743322 C63.42,18.4543322 62.85,18.1243322 62.07,18.1243322 C60.66,18.1243322 59.01,18.1843322 57.45,18.1843322 L57.45,15.9643322 L57.45,15.2443322 C59.37,15.2443322 61.23,15.2143322 63.48,15.2143322 C63.48,15.2143322 65.61,15.1543322 65.91,15.1243322 C66.48,15.0343322 66.93,14.8543322 66.93,13.9543322 C66.93,13.1443322 66.57,12.6043322 65.67,12.6943322 C65.58,12.6943322 63.69,12.7543322 63.03,12.7543322 Z M55.35,0.544332181 C52.29,0.634332181 48.63,2.07433218 48.63,5.64433218 C48.63,9.27433218 51.57,10.6243322 55.35,10.6243322 C58.68,10.6243322 62.91,9.96433218 62.85,5.67433218 C62.79,1.56433218 59.13,0.484332181 55.35,0.544332181 Z M51.66,25.2043322 C51.27,25.2043322 51.27,24.9943322 51.27,24.7543322 C51.27,23.1943322 51.27,22.0243322 51.3,20.6143322 C52.41,20.6143322 53.88,20.5843322 55.8,20.5843322 C57.51,20.5843322 59.16,20.5543322 60.27,20.5543322 C60.6,20.5543322 60.69,20.6743322 60.69,20.9143322 L60.69,25.0843322 C58.26,25.2043322 57.33,25.2343322 55.68,25.2343322 C54.42,25.2343322 52.83,25.2043322 51.66,25.2043322 Z M60.15,5.67433218 C60.09,8.01433218 57.66,8.31433218 55.35,8.31433218 C53.49,8.31433218 51.39,7.83433218 51.45,5.64433218 C51.51,3.60433218 53.37,2.88433218 55.5,2.79433218 C57.96,2.73433218 60.21,3.42433218 60.15,5.67433218 Z" id="path-7"></path>
        <filter x="-29.5%" y="-20.3%" width="158.9%" height="147.9%" filterUnits="objectBoundingBox" id="filter-8">
            <feOffset dx="0" dy="1" in="SourceAlpha" result="shadowOffsetOuter1"></feOffset>
            <feGaussianBlur stdDeviation="2" in="shadowOffsetOuter1" result="shadowBlurOuter1"></feGaussianBlur>
            <feColorMatrix values="0 0 0 0 0   0 0 0 0 0   0 0 0 0 0  0 0 0 0.0969187063 0" type="matrix" in="shadowBlurOuter1"></feColorMatrix>
        </filter>
        <path d="M0.0483740291,6.112 C0.0483740291,6.392 0.192374029,6.392 0.456374029,6.4 C1.84037403,6.456 2.96037403,5.792 2.98437403,4.64 C3.00037403,3.912 2.68037403,3.344 2.10437403,3.064 C2.56837403,2.84 2.88837403,2.32 2.87237403,1.728 C2.84837403,0.608 1.82437403,0.104 0.392374029,0.072 C0.112374029,0.064 -0.00762597088,0.136 0.000374029115,0.4 C0.0323740291,1.92 0.0243740291,3.24 0.0403740291,4.664 C0.0403740291,4.944 0.0483740291,5.856 0.0483740291,6.112 Z M1.13637403,3.384 C1.99237403,3.384 2.28037403,4.056 2.26437403,4.624 C2.24037403,5.36 1.64037403,5.784 0.976374029,5.784 L0.752374029,5.784 L0.752374029,4.96 C0.752374029,4.432 0.744374029,3.92 0.736374029,3.384 L1.13637403,3.384 Z M2.13637403,1.736 C2.14437403,2.288 1.70437403,2.76 1.10437403,2.76 L0.728374029,2.76 C0.720374029,2.096 0.712374029,1.4 0.712374029,0.728 C1.54437403,0.808 2.12837403,1.088 2.13637403,1.736 Z" id="path-9"></path>
        <filter x="-217.8%" y="-86.9%" width="535.5%" height="305.3%" filterUnits="objectBoundingBox" id="filter-10">
            <feOffset dx="0" dy="1" in="SourceAlpha" result="shadowOffsetOuter1"></feOffset>
            <feGaussianBlur stdDeviation="2" in="shadowOffsetOuter1" result="shadowBlurOuter1"></feGaussianBlur>
            <feColorMatrix values="0 0 0 0 0   0 0 0 0 0   0 0 0 0 0  0 0 0 0.0650131119 0" type="matrix" in="shadowBlurOuter1"></feColorMatrix>
        </filter>
        <path d="M3.93637403,5.736 C3.93637403,6.032 4.01637403,6.296 4.45637403,6.296 L5.83237403,6.296 C6.04837403,6.296 6.38437403,6.296 6.63237403,6.288 C6.85637403,6.28 6.96037403,6.16 6.96037403,5.968 C6.96037403,5.76 6.84837403,5.64 6.63237403,5.64 L5.97637403,5.648 C5.82437403,5.656 5.51237403,5.648 5.17637403,5.648 L4.80037403,5.648 C4.71237403,5.648 4.67237403,5.616 4.67237403,5.504 L4.67237403,4.768 C4.67237403,4.336 4.66437403,3.88 4.66437403,3.448 C4.66437403,3.448 6.05637403,3.448 6.36837403,3.432 C6.57637403,3.424 6.71237403,3.296 6.71237403,3.072 C6.71237403,2.888 6.56837403,2.776 6.40037403,2.784 C6.04837403,2.8 5.75237403,2.792 5.40837403,2.792 C5.07237403,2.792 4.80837403,2.784 4.67237403,2.784 C4.66437403,2.048 4.64037403,1.424 4.63237403,0.696 L6.38437403,0.704 C6.56837403,0.704 6.79237403,0.672 6.79237403,0.368 C6.79237403,0.168 6.62437403,0.088 6.50437403,0.064 C6.41637403,0.048 6.25637403,0.04 5.99237403,0.04 C5.78437403,0.04 5.54437403,0.048 5.28837403,0.048 L4.20837403,0.048 C3.95237403,0.048 3.91237403,0.24 3.91237403,0.392 L3.91237403,0.712 C3.91237403,0.824 3.93637403,0.848 3.93637403,3.656 L3.93637403,5.736 Z" id="path-11"></path>
        <filter x="-213.3%" y="-87.9%" width="526.5%" height="307.8%" filterUnits="objectBoundingBox" id="filter-12">
            <feOffset dx="0" dy="1" in="SourceAlpha" result="shadowOffsetOuter1"></feOffset>
            <feGaussianBlur stdDeviation="2" in="shadowOffsetOuter1" result="shadowBlurOuter1"></feGaussianBlur>
            <feColorMatrix values="0 0 0 0 0   0 0 0 0 0   0 0 0 0 0  0 0 0 0.0650131119 0" type="matrix" in="shadowBlurOuter1"></feColorMatrix>
        </filter>
        <path d="M7.80837403,0.384 C7.85637403,1.328 7.86437403,2.208 7.89637403,3.12 C7.94437403,3.944 7.93637403,4.688 7.94437403,5.344 L7.94437403,6.152 C7.94437403,6.384 8.10437403,6.512 8.28837403,6.512 C8.47237403,6.512 8.67237403,6.392 8.67237403,6.152 C8.66437403,5.136 8.64037403,4.576 8.60037403,3.416 C8.59237403,3.04 8.56037403,2.344 8.54437403,1.888 C8.80037403,2.496 9.09637403,2.96 9.40037403,3.568 C9.64837403,4.024 9.87237403,4.464 10.080374,4.888 C10.304374,5.328 10.528374,5.792 10.704374,6.168 C10.800374,6.376 10.920374,6.504 11.104374,6.504 C11.384374,6.504 11.424374,6.216 11.424374,5.968 C11.424374,4.904 11.416374,4.016 11.416374,3.288 L11.416374,1.4 C11.416374,1.224 11.432374,0.584 11.432374,0.384 C11.432374,0.12 11.216374,0 11.048374,0 C10.864374,0 10.712374,0.136 10.696374,0.36 C10.704374,0.624 10.704374,1.032 10.704374,1.528 L10.704374,4.688 C10.112374,3.424 9.46437403,2.192 8.80037403,0.936 C8.68037403,0.688 8.55237403,0.464 8.41637403,0.208 C8.35237403,0.088 8.22437403,0.024 8.10437403,0.024 C7.92037403,0.024 7.80037403,0.152 7.80837403,0.384 Z" id="path-13"></path>
        <filter x="-179.3%" y="-84.5%" width="458.7%" height="299.6%" filterUnits="objectBoundingBox" id="filter-14">
            <feOffset dx="0" dy="1" in="SourceAlpha" result="shadowOffsetOuter1"></feOffset>
            <feGaussianBlur stdDeviation="2" in="shadowOffsetOuter1" result="shadowBlurOuter1"></feGaussianBlur>
            <feColorMatrix values="0 0 0 0 0   0 0 0 0 0   0 0 0 0 0  0 0 0 0.0650131119 0" type="matrix" in="shadowBlurOuter1"></feColorMatrix>
        </filter>
        <path d="M12.560374,5.736 C12.560374,6.032 12.640374,6.296 13.080374,6.296 L14.456374,6.296 C14.672374,6.296 15.008374,6.296 15.256374,6.288 C15.480374,6.28 15.584374,6.16 15.584374,5.968 C15.584374,5.76 15.472374,5.64 15.256374,5.64 L14.600374,5.648 C14.448374,5.656 14.136374,5.648 13.800374,5.648 L13.424374,5.648 C13.336374,5.648 13.296374,5.616 13.296374,5.504 L13.296374,4.768 C13.296374,4.336 13.288374,3.88 13.288374,3.448 C13.288374,3.448 14.680374,3.448 14.992374,3.432 C15.200374,3.424 15.336374,3.296 15.336374,3.072 C15.336374,2.888 15.192374,2.776 15.024374,2.784 C14.672374,2.8 14.376374,2.792 14.032374,2.792 C13.696374,2.792 13.432374,2.784 13.296374,2.784 C13.288374,2.048 13.264374,1.424 13.256374,0.696 L15.008374,0.704 C15.192374,0.704 15.416374,0.672 15.416374,0.368 C15.416374,0.168 15.248374,0.088 15.128374,0.064 C15.040374,0.048 14.880374,0.04 14.616374,0.04 C14.408374,0.04 14.168374,0.048 13.912374,0.048 L12.832374,0.048 C12.576374,0.048 12.536374,0.24 12.536374,0.392 L12.536374,0.712 C12.536374,0.824 12.560374,0.848 12.560374,3.656 L12.560374,5.736 Z" id="path-15"></path>
        <filter x="-213.3%" y="-87.9%" width="526.5%" height="307.8%" filterUnits="objectBoundingBox" id="filter-16">
            <feOffset dx="0" dy="1" in="SourceAlpha" result="shadowOffsetOuter1"></feOffset>
            <feGaussianBlur stdDeviation="2" in="shadowOffsetOuter1" result="shadowBlurOuter1"></feGaussianBlur>
            <feColorMatrix values="0 0 0 0 0   0 0 0 0 0   0 0 0 0 0  0 0 0 0.0650131119 0" type="matrix" in="shadowBlurOuter1"></feColorMatrix>
        </filter>
        <path d="M16.792374,6.4 C16.920374,6.4 17.032374,6.344 17.104374,6.264 C17.184374,6.16 17.184374,6.056 17.184374,5.864 C17.184374,5.008 17.168374,4.072 17.168374,3.216 C17.336374,3.2 17.592374,3.208 17.848374,3.208 C18.288374,3.208 18.752374,3.216 18.872374,3.232 C19.088374,3.256 19.248374,3.184 19.248374,2.936 C19.248374,2.664 19.064374,2.592 18.840374,2.584 C18.592374,2.568 17.984374,2.568 17.160374,2.568 C17.152374,1.944 17.128374,1.496 17.128374,0.88 C17.128374,0.792 17.136374,0.704 17.272374,0.704 C17.600374,0.704 17.904374,0.696 18.264374,0.696 L18.824374,0.696 C19.016374,0.696 19.224374,0.688 19.224374,0.384 C19.224374,0.144 19.072374,0.072 18.880374,0.064 C18.720374,0.056 18.440374,0.056 18.208374,0.056 L16.808374,0.056 C16.520374,0.056 16.376374,0.232 16.368374,0.448 C16.376374,0.68 16.384374,0.96 16.384374,1.04 C16.400374,1.952 16.432374,2.88 16.448374,3.792 L16.448374,6.048 C16.424374,6.288 16.608374,6.4 16.792374,6.4 Z" id="path-17"></path>
        <filter x="-225.7%" y="-86.7%" width="551.4%" height="304.9%" filterUnits="objectBoundingBox" id="filter-18">
            <feOffset dx="0" dy="1" in="SourceAlpha" result="shadowOffsetOuter1"></feOffset>
            <feGaussianBlur stdDeviation="2" in="shadowOffsetOuter1" result="shadowBlurOuter1"></feGaussianBlur>
            <feColorMatrix values="0 0 0 0 0   0 0 0 0 0   0 0 0 0 0  0 0 0 0.0650131119 0" type="matrix" in="shadowBlurOuter1"></feColorMatrix>
        </filter>
        <path d="M21.936374,6.296 C22.152374,6.296 22.256374,6.144 22.256374,6.008 C22.256374,5.848 22.136374,5.696 21.936374,5.696 L21.416374,5.696 L21.416374,0.704 L21.976374,0.704 C22.184374,0.704 22.280374,0.552 22.280374,0.392 C22.280374,0.232 22.184374,0.072 21.984374,0.072 L21.112374,0.072 C20.824374,0.072 20.536374,0.064 20.240374,0.064 C20.000374,0.072 19.872374,0.232 19.872374,0.384 C19.872374,0.528 20.000374,0.696 20.224374,0.688 C20.376374,0.68 20.520374,0.688 20.672374,0.688 C20.696374,1.344 20.696374,1.92 20.696374,2.584 C20.696374,3.016 20.688374,3.84 20.688374,4.272 C20.680374,4.744 20.680374,5.248 20.680374,5.704 L20.184374,5.704 C19.944374,5.704 19.880374,5.856 19.880374,6.008 C19.880374,6.144 19.944374,6.296 20.176374,6.296 L21.936374,6.296 Z" id="path-19"></path>
        <filter x="-269.9%" y="-88.3%" width="639.9%" height="308.6%" filterUnits="objectBoundingBox" id="filter-20">
            <feOffset dx="0" dy="1" in="SourceAlpha" result="shadowOffsetOuter1"></feOffset>
            <feGaussianBlur stdDeviation="2" in="shadowOffsetOuter1" result="shadowBlurOuter1"></feGaussianBlur>
            <feColorMatrix values="0 0 0 0 0   0 0 0 0 0   0 0 0 0 0  0 0 0 0.0650131119 0" type="matrix" in="shadowBlurOuter1"></feColorMatrix>
        </filter>
        <path d="M22.992374,0.784 C23.232374,0.776 23.520374,0.776 23.848374,0.768 C23.848374,1.568 23.880374,2.448 23.904374,3.248 C23.912374,3.576 23.912374,3.768 23.912374,3.96 C23.912374,4.392 23.896374,4.976 23.888374,5.4 C23.880374,5.656 23.864374,5.936 23.872374,6.2 C23.880374,6.416 24.064374,6.528 24.240374,6.528 C24.424374,6.528 24.600374,6.408 24.608374,6.184 C24.616374,5.912 24.616374,5.632 24.624374,5.376 C24.632374,4.92 24.648374,4.4 24.648374,3.936 C24.648374,3.768 24.648374,3.448 24.640374,3.272 C24.616374,2.496 24.600374,1.584 24.592374,0.752 L25.744374,0.752 C25.976374,0.752 26.096374,0.592 26.096374,0.432 C26.096374,0.28 25.968374,0.12 25.768374,0.112 C25.352374,0.104 24.904374,0.096 24.448374,0.096 C23.944374,0.096 23.368374,0.088 22.896374,0.112 C22.688374,0.12 22.552374,0.272 22.552374,0.432 C22.552374,0.608 22.688374,0.792 22.992374,0.784 Z" id="path-21"></path>
        <filter x="-183.4%" y="-85.5%" width="466.8%" height="302.1%" filterUnits="objectBoundingBox" id="filter-22">
            <feOffset dx="0" dy="1" in="SourceAlpha" result="shadowOffsetOuter1"></feOffset>
            <feGaussianBlur stdDeviation="2" in="shadowOffsetOuter1" result="shadowBlurOuter1"></feGaussianBlur>
            <feColorMatrix values="0 0 0 0 0   0 0 0 0 0   0 0 0 0 0  0 0 0 0.0650131119 0" type="matrix" in="shadowBlurOuter1"></feColorMatrix>
        </filter>
    </defs>
    <g id="멤버등급" stroke="none" stroke-width="1" fill="none" fill-rule="evenodd">
        <g id="mem-grade1" transform="translate(-729.000000, -213.000000)">
            <g id="Group-6-Copy-2" transform="translate(579.000000, 173.195968)">
                <g id="Group-15" transform="translate(180.000000, 42.804032)">
                    <path d="M25,78.7312037 C25.5555392,55.6815817 38.2420197,25.8061482 61.6086773,27.0368163 C88.1691183,28.441923 89.0469268,54.0373908 89.0683066,56.5934248 L89.0681847,56.7986599 L88.9661469,56.9454368 C95.3094972,57.0075347 115.534027,60.5579619 118.963631,82.484176 C119.032661,82.9417573 119.001656,83.3715659 118.885647,83.777015 C120.009819,94.0326706 112.519218,107.509159 108.314234,112.209017 C102.8858,118.276849 89.5126247,129.332643 71.3612965,129.966851 C53.1986591,130.589633 40.8376611,122.316356 31.6489047,115.311496 C29.8715301,113.957928 28.0450115,112.488567 26.16816,111.033615 L25.540677,110.549343 C17.8835801,104.66821 9.39645735,99.2620246 0,103.015852 C0,103.015852 6.93821798,86.663561 24.9255622,78.7902355 C24.9325033,78.7869985 24.9549075,78.7789884 24.991314,78.7666565 Z" id="Fill-2471" fill="url(#linearGradient-1)" filter="url(#filter-2)"></path>
                    <path d="M25.3997216,101.149715 C30.7444235,98.8966211 37.3353421,100.22867 38.7548738,102.580801 C39.3309396,103.534858 38.1689043,105.277911 36.4324539,104.682038 C34.6927023,104.086165 33.7782598,104.548338 33.0354816,105.30102 C32.2217268,106.12963 31.3799115,108.712848 34.8098962,110.143934 C37.4409817,111.243246 41.9735794,111.134305 45.4019135,107.743935 C47.2258466,105.94311 47.3397393,104.140635 48.2211694,103.270759 C49.5152541,101.993181 51.2005353,102.186303 52.1925569,103.349989 C52.4252941,103.62069 52.5721991,103.924404 52.65473,104.251227 C53.1796266,106.327704 50.985955,109.346685 49.6175925,110.860302 C48.0329989,112.613259 44.1292868,115.807205 38.8308022,115.990424 C33.5290164,116.170341 29.920765,113.780246 27.2385103,111.756588 C26.9832147,111.564173 26.7244457,111.363658 26.4621619,111.159526 L26.0660949,110.851173 C23.6738149,108.991499 20.9951647,107.020257 18,108.204457 C18,108.204457 20.0253086,103.480388 25.2759252,101.205836 C25.3188413,101.186029 25.3584561,101.167872 25.3997216,101.149715 Z M25.3203268,99.6337872 C25.4820874,92.8943129 29.2570514,85.6530507 36.0608998,86.0128854 C43.7365576,86.4206353 44.0460384,93.7954386 44.0563442,94.6369419 L44.0564945,94.7149448 L44.0267834,94.7578609 C45.8738252,94.7760177 51.6047718,95.3619872 52.6033958,101.772988 C51.949751,101.277803 51.1805629,100.990595 50.3668081,100.955932 C49.221279,100.909715 48.1021598,101.366936 47.210826,102.246716 C46.6595195,102.79142 46.359107,103.454968 46.0421883,104.156481 C45.6658473,104.986742 45.2763014,105.846714 44.39157,106.721542 C41.5260968,109.554003 37.7032649,109.793342 35.3643389,108.816176 C34.7139953,108.545475 33.9084936,108.07835 33.7714923,107.396645 C33.677407,106.93117 33.9134454,106.459094 34.0603504,106.310538 C34.4086309,105.955655 34.7404052,105.62223 35.9651639,106.043138 C37.3516832,106.516865 38.7629618,106.132271 39.6476932,105.037911 C40.4251344,104.075601 40.5621357,102.79142 39.9877206,101.837363 C37.8815317,98.3479556 30.34811,97.753733 25.3203268,99.6337872 Z" id="Fill-2471" fill="#FFFFFF"></path>
                    <path d="M70.4665739,46.049905 C72.2481412,45.2988737 74.445114,45.74289 74.9182913,46.5269337 C75.1103132,46.8449528 74.7229681,47.4259704 74.1441513,47.227346 C73.5642341,47.0287216 73.2594199,47.1827793 73.0118272,47.4336733 C72.7405756,47.7098767 72.4599705,48.5709493 73.6032987,49.0479779 C74.4803272,49.4144152 75.9911931,49.3781016 77.1339712,48.2479783 C77.7419489,47.6477035 77.7799131,47.0468784 78.0737231,46.7569198 C78.5050847,46.3310603 79.0668451,46.3954344 79.397519,46.7833297 C79.475098,46.8735635 79.5240664,46.9748014 79.5515767,47.0837422 C79.7265422,47.7759015 78.9953183,48.7822284 78.5391975,49.2867674 C78.0109996,49.8710862 76.7097623,50.935735 74.9436007,50.9968079 C73.1763388,51.0567803 71.9735883,50.2600819 71.0795034,49.5855293 C70.1859688,48.912077 69.1647863,47.9409633 68,48.4014858 C68,48.4014858 68.6751029,46.826796 70.4253084,46.068612 C70.4396138,46.0620095 70.4528187,46.0559573 70.4665739,46.049905 Z M73.8169095,41.0002958 L74.0202999,41.0042951 C76.5742918,41.1399695 76.6816372,43.589723 76.6854287,43.8774599 L76.6854982,43.9049816 L76.6755945,43.919287 C77.2912751,43.9253392 79.2015906,44.1206624 79.5344653,46.2576628 C79.3165837,46.092601 79.0601876,45.9968651 78.788936,45.9853108 C78.407093,45.969905 78.0340533,46.1223121 77.736942,46.415572 C77.5531732,46.59714 77.4530357,46.8183228 77.3473961,47.0521604 C77.2219491,47.328914 77.0921005,47.6155714 76.79719,47.9071806 C75.8420323,48.8513343 74.567755,48.9311142 73.788113,48.6053922 C73.5713318,48.5151584 73.3028312,48.35945 73.2571641,48.1322149 C73.2258023,47.9770568 73.3044818,47.8196979 73.3534501,47.7701793 C73.4695436,47.651885 73.5801351,47.5407434 73.988388,47.6810459 C74.4505611,47.8389551 74.9209873,47.7107571 75.2158977,47.3459704 C75.4750448,47.0252003 75.5207119,46.59714 75.3292402,46.2791208 C74.6271772,45.1159852 72.1160367,44.917911 70.4401089,45.5445957 C70.4940291,43.2981043 71.7523505,40.8843502 74.0202999,41.0042951 Z" id="Fill-2471-Copy-2" fill="#FFFFFF" opacity="0.5"></path>
                    <path d="M44.9331477,100.09981 C48.4962823,98.5977474 52.8902281,99.48578 53.8365825,101.053867 C54.2206264,101.689906 53.4459362,102.851941 52.2883026,102.454692 C51.1284682,102.057443 50.5188399,102.365559 50.0236544,102.867347 C49.4811512,103.419753 48.919941,105.141899 51.2065975,106.095956 C52.9606544,106.82883 55.9823862,106.756203 58.2679423,104.495957 C59.4838977,103.295407 59.5598262,102.093757 60.1474463,101.51384 C61.0101694,100.662121 62.1336902,100.790869 62.7950379,101.566659 C62.9501961,101.747127 63.0481327,101.949603 63.1031533,102.167484 C63.4530844,103.551803 61.9906366,105.564457 61.078395,106.573535 C60.0219993,107.742172 57.4195245,109.87147 53.8872015,109.993616 C50.3526776,110.113561 47.9471766,108.520164 46.1590069,107.171059 C44.3719375,105.824154 42.3295725,103.881927 40,104.802972 C40,104.802972 41.3502057,101.653592 44.8506168,100.137224 C44.8792275,100.124019 44.9056374,100.111915 44.9331477,100.09981 Z M51.7951921,90.0004984 L52.0405998,90.0085903 C57.4678326,90.2968983 57.3709964,95.8099632 57.3709964,95.8099632 L57.3511889,95.8385739 C58.5825501,95.8506785 62.4031812,96.2413248 63.0689305,100.515326 C62.6331673,100.185202 62.1203752,99.9937303 61.577872,99.9706216 C60.814186,99.9398101 60.0681066,100.244624 59.473884,100.831144 C59.1063463,101.19428 58.9060713,101.636646 58.6947922,102.104321 C58.4438982,102.657828 58.1842009,103.231143 57.59438,103.814361 C55.6840645,105.702669 53.1355099,105.862228 51.5762259,105.210784 C51.1426635,105.030317 50.6056624,104.7189 50.5143282,104.26443 C50.4516047,103.954114 50.6089636,103.639396 50.7069003,103.540359 C50.9390873,103.30377 51.1602701,103.081487 51.9767759,103.362092 C52.9011221,103.67791 53.8419745,103.421514 54.4317955,102.691941 C54.9500896,102.050401 55.0414238,101.19428 54.6584804,100.558242 C53.2543545,98.2319704 48.2320733,97.835822 44.8802179,99.0891915 C44.9880583,94.5962086 47.5047009,89.7687004 52.0405998,90.0085903 Z" id="Fill-2471-Copy-2" fill="#FFFFFF" opacity="0.200000003"></path>
                    <path d="M78.3328693,25.249525 C87.2407058,21.4943685 98.2255702,23.71445 100.591456,27.6346683 C101.551566,29.2247639 99.6148405,32.129852 96.7207565,31.13673 C93.8211705,30.143608 92.2970996,30.9138966 91.059136,32.1683664 C89.702878,33.5493837 88.2998525,37.8547463 94.0164937,40.2398896 C98.4016361,42.0720759 105.955966,41.8905079 111.669856,36.2398914 C114.709744,33.2385173 114.899565,30.2343921 116.368616,28.784599 C118.525424,26.6553015 121.334226,26.9771721 122.987595,28.9166485 C123.37549,29.3678175 123.620332,29.8740071 123.757883,30.4187111 C124.632711,33.8795073 120.976592,38.911142 118.695987,41.4338368 C116.054998,44.3554311 109.548811,49.678675 100.718004,49.9840393 C91.8816941,50.2839016 85.8679416,46.3004096 81.3975172,42.9276463 C76.9298438,39.5603851 71.8239314,34.7048165 66,37.0074289 L66.0085566,36.9878752 C66.2001983,36.5544271 69.6291673,29.0240982 78.126542,25.34306 C78.1980688,25.3100476 78.2640935,25.2797863 78.3328693,25.249525 Z M78.2005447,22.7229786 C78.4701457,11.4905215 84.7617523,-0.578248903 96.1014996,0.0214757251 C108.855497,0.698999493 109.406825,12.9180114 109.42707,14.3818537 L109.427491,14.524908 L109.377972,14.5964348 C112.456375,14.6266961 122.007953,15.6033119 123.672326,26.288314 C122.582918,25.4630049 121.300938,24.9843256 119.94468,24.926554 C118.035465,24.8495251 116.170266,25.6115606 114.68471,27.0778598 C113.765866,27.9856998 113.265178,29.091614 112.73698,30.2608019 C112.109746,31.6445702 111.460502,33.0778571 109.98595,34.5359032 C105.210161,39.2566714 98.8387748,39.6555708 94.9405648,38.0269608 C93.8566588,37.5757918 92.5141559,36.7972502 92.2858204,35.6610746 C92.1290117,34.8852841 92.522409,34.0984894 92.7672507,33.8508966 C93.3477182,33.2594251 93.9006753,32.7037169 95.9419398,33.4052297 C98.2528054,34.1947754 100.604936,33.5537853 102.079489,31.7298522 C103.375224,30.1260015 103.60356,27.9856998 102.646201,26.3956042 C99.1358861,20.5799259 86.5801834,19.589555 78.2005447,22.7229786 Z" id="Fill-2471-Copy" fill="#FFFFFF" opacity="0.400000006"></path>
                    <g id="이로움" transform="translate(36.290000, 57.715668)" fill-rule="nonzero">
                        <g id="Shape">
                            <use fill="black" fill-opacity="1" filter="url(#filter-4)" xlink:href="#path-3"></use>
                            <use fill="#FFFFFF" xlink:href="#path-3"></use>
                        </g>
                        <g id="Shape">
                            <use fill="black" fill-opacity="1" filter="url(#filter-6)" xlink:href="#path-5"></use>
                            <use fill="#FFFFFF" xlink:href="#path-5"></use>
                        </g>
                        <g id="Shape">
                            <use fill="black" fill-opacity="1" filter="url(#filter-8)" xlink:href="#path-7"></use>
                            <use fill="#FFFFFF" xlink:href="#path-7"></use>
                        </g>
                    </g>
                    <g id="benefit" transform="translate(36.543626, 49.315968)" fill-rule="nonzero">
                        <g id="Shape">
                            <use fill="black" fill-opacity="1" filter="url(#filter-10)" xlink:href="#path-9"></use>
                            <use fill="#FFFFFF" xlink:href="#path-9"></use>
                        </g>
                        <g id="Path">
                            <use fill="black" fill-opacity="1" filter="url(#filter-12)" xlink:href="#path-11"></use>
                            <use fill="#FFFFFF" xlink:href="#path-11"></use>
                        </g>
                        <g id="Path">
                            <use fill="black" fill-opacity="1" filter="url(#filter-14)" xlink:href="#path-13"></use>
                            <use fill="#FFFFFF" xlink:href="#path-13"></use>
                        </g>
                        <g id="Path">
                            <use fill="black" fill-opacity="1" filter="url(#filter-16)" xlink:href="#path-15"></use>
                            <use fill="#FFFFFF" xlink:href="#path-15"></use>
                        </g>
                        <g id="Path">
                            <use fill="black" fill-opacity="1" filter="url(#filter-18)" xlink:href="#path-17"></use>
                            <use fill="#FFFFFF" xlink:href="#path-17"></use>
                        </g>
                        <g id="Path">
                            <use fill="black" fill-opacity="1" filter="url(#filter-20)" xlink:href="#path-19"></use>
                            <use fill="#FFFFFF" xlink:href="#path-19"></use>
                        </g>
                        <g id="Path">
                            <use fill="black" fill-opacity="1" filter="url(#filter-22)" xlink:href="#path-21"></use>
                            <use fill="#FFFFFF" xlink:href="#path-21"></use>
                        </g>
                    </g>
                </g>
            </g>
        </g>
    </g>
</svg>