<svg xmlns="http://www.w3.org/2000/svg" width="46" height="46" viewBox="0 0 46 46">
  <g id="member" transform="translate(0.004)">
    <rect id="Rectangle_Copy_2" data-name="Rectangle Copy 2" width="46" height="46" fill="none"/>
    <path id="Combined_Shape" data-name="Combined Shape" d="M16.948,35.316H5.754A5.751,5.751,0,0,1,.3,27.748l.7-2.1a8,8,0,0,1,7.59-5.469h9.658A7.989,7.989,0,0,1,23,21.749a7.989,7.989,0,0,1,4.756-1.568H37.778a7.5,7.5,0,0,1,7.115,5.128l.814,2.439a5.75,5.75,0,0,1-5.455,7.568ZM24.011,8.577a8.577,8.577,0,1,1,8.577,8.576A8.577,8.577,0,0,1,24.011,8.577Zm-19.171,0a8.577,8.577,0,1,1,8.576,8.576A8.577,8.577,0,0,1,4.84,8.577Z" transform="translate(-0.004 5)" fill="#fff"/>
  </g>
</svg>
