<svg xmlns="http://www.w3.org/2000/svg" xmlns:xlink="http://www.w3.org/1999/xlink" width="194" height="115" viewBox="0 0 194 115">
  <defs>
    <linearGradient id="linear-gradient" x1="0.5" x2="0.5" y2="1" gradientUnits="objectBoundingBox">
      <stop offset="0" stop-color="#f86868"/>
      <stop offset="1" stop-color="#ffbf2b"/>
    </linearGradient>
  </defs>
  <path id="Shape_Copy" data-name="Shape Copy" d="M0,110.5A4.5,4.5,0,0,0-4.5,106,4.5,4.5,0,0,0-9,110.5,4.5,4.5,0,0,0-4.5,115,4.5,4.5,0,0,0,0,110.5ZM-45,101a7,7,0,0,0-7-7,7,7,0,0,0-7,7,7,7,0,0,0,7,7A7,7,0,0,0-45,101Zm26-1.5A6.5,6.5,0,0,0-25.5,93,6.5,6.5,0,0,0-32,99.5a6.5,6.5,0,0,0,6.5,6.5A6.5,6.5,0,0,0-19,99.5Zm-50-9A7.5,7.5,0,0,0-76.5,83,7.5,7.5,0,0,0-84,90.5,7.5,7.5,0,0,0-76.5,98,7.5,7.5,0,0,0-69,90.5ZM-125,67l-15,11.87L-125,97Zm32,19.5a7.5,7.5,0,0,0-7.5-7.5,7.5,7.5,0,0,0-7.5,7.5,7.5,7.5,0,0,0,7.5,7.5A7.5,7.5,0,0,0-93,86.5Zm-35.653-26.785-36.085-33.31,48.369,29.237L-83,48.545-194,0l27.751,89Z" transform="translate(194)" fill="url(#linear-gradient)"/>
</svg>
