<svg xmlns="http://www.w3.org/2000/svg" width="65.474" height="100" viewBox="0 0 65.474 100">
  <path id="Path_15" data-name="Path 15" d="M26.114,92.271a9.688,9.688,0,0,1,2.045-5.605l-.194-.215a5.932,5.932,0,0,1-.59-2.351c0-1.194.232-3.753,1.227-4.855a9.94,9.94,0,0,1,2.564-1.88,17.854,17.854,0,0,0,2.94-1.3,5.518,5.518,0,0,0,1.2-1.835L37.542,59.6,39.68,48.682l-2.026.828-2.548,1.95c-.233,5.666-.217,11.781-.177,15.382a9.413,9.413,0,0,1,.372,2.99c0,3.3-3.137,6.229-5.705,6.229a4.02,4.02,0,0,1-4.209-2.988h-8.3l-8.9-3.056c-.057-.124-.113-.25-.168-.376a5.86,5.86,0,0,0-1.846.432c-.575.353.21,1.456.867,2.222a4.506,4.506,0,0,1,1.313-.257c4.06.067,5.682,2.236,5.638,6.917,0,3.971-3.774,7.492-6.862,7.492-4.044.135-5.592-3.219-5.592-7.19A6.8,6.8,0,0,1,3.145,75.2a7.01,7.01,0,0,1-.535-3.16,5.27,5.27,0,0,1,1.611-3.456,14.217,14.217,0,0,1,2.886-1.233C3.91,58.333,3.764,47.21,3.764,47.21h.51V44.424l-.51-.905,3.271-2.555L8.26,42.341l1.318-1.378h3.313c-.752-10.42-2.271-14.2-5.681-25.422H5.848S4.4,15.463,4.274,14.177A13.24,13.24,0,0,0,.454,4.6C-.172,3.72-.056,3.522.238,3.128S1.713,1.936,2.116,2.113,3.073,3.128,3.569,4.7,3.695,7,4.274,8.933a17.012,17.012,0,0,0,1.667,3.651l.546-.964.547-1.329S3.9,2.74,3.764,2.113,5.59.836,5.941,1.411s3.637,10.21,3.637,10.21l.785.964h3.621v-.964l-.614-.653H11.717l-1.354-.677L9.578,8.933V7.094l.785-.922,1.354-.84h8.074l2.451,1.761,4.847-.009c1.917.8,1.442,3.35.927,3.883a2.377,2.377,0,0,1-.927.653H24.947l1.166,1.595h.976v.961H21.52V16.39H19.791l-2.38,22.337v.815l3.629-.815,14.439,2.795c.616-3.945.32-14.716-1.829-24.652l-1.393-.435s-1.831-.467-1.623-1.421C31.77,8.019,26.313,3.424,26.114,2.458s1.851-1.216,1.851-1.216.978-.418,1.306,0a9.755,9.755,0,0,1,1.507,3.283c.184,1.165.083,1.915.388,3.528S32.3,12.56,32.3,12.56l1.105,0c1.2-1.859-2.237-10.1-2.237-10.1V.515L33.4,0l2.64,12.557,2.411.739h3.991V11.981H40.981a23.815,23.815,0,0,1-2.527,0,7.464,7.464,0,0,1-2.411-1.7,3.656,3.656,0,0,1,0-2.224,4.126,4.126,0,0,1,1.5-1.629c.426-.116,6.869,0,6.869,0s1.582-1.67,2.115-1.713,8.426,0,9.265.118a2.267,2.267,0,0,1,2.2,1.595,2.372,2.372,0,0,1,0,2.4,6.629,6.629,0,0,1-2.168,2.461,21.673,21.673,0,0,1-3.083.7s.1,2.2-.256,2.48a19.394,19.394,0,0,1-3.577.552v2l-1.591,1.1L43.394,43.054l3.624.7v1.8l-2.607.254V49.7l-1.966.815L39.283,76.064a20.671,20.671,0,0,0,3.038.612c1.389.14,9.593.563,10.753.773a11,11,0,0,1,2.541.962c1.085-3.156,3.71-5.033,6.2-4.635,2.647,0,3.662,2.218,3.662,6.41s-2.43,9.115-5.828,8.63S55.028,86.351,55.1,81.44c0-.06,0-.119,0-.178l-.007.025s-2.779-.114-5.463-.317-10.351-.881-10.351-.881H34.105a12.772,12.772,0,0,0-2.94,1.2c-.464.468,0,1.667,0,1.667l.424.626a4.729,4.729,0,0,1,1.957-.615c4.26-.2,5.737,2.311,5.737,7.585,0,4.632-3.712,9.451-6.8,9.451C28.014,100,26.114,96.9,26.114,92.271Zm8.311-26.495c.029-3.709.094-9.207.236-13.975l-3.942,3.017-.594,9.262-.014.057a3.287,3.287,0,0,1,.5-.057C32.449,64.112,33.685,64.659,34.425,65.776ZM31.059,49.517l-.144,2.249,3.853-3.025c.029-.705.061-1.376.095-2l-3.8.37Zm4.206-1.167,2.39-1.876.011-.007-2.286.222Q35.317,47.5,35.265,48.35ZM6.487,47.126l3.242-.652,1.988-1.139V43.519H6.487Zm13.671-.652,3.395-1.286,1.394-.764,2.111.764h3.333l-.266-.764L17.411,41.67v.671l2.38,3.618-.16.357Zm20.419-3.966,4.861-25.5H43.125v-2H39.283l-2.556.72-2.418,1.18c.58,3.824,2.427,17,1.625,24.7ZM13.4,40.927l.952-1.047,3.056-23.49-.665-.849V14.177H10.363L7.755,15.541H7.737C8.625,18.387,12.875,32.369,13.4,40.927Z" fill="#6db8b5"/>
</svg>
