<?xml version="1.0" encoding="UTF-8"?>
<svg width="203px" height="76px" viewBox="0 0 203 76" version="1.1" xmlns="http://www.w3.org/2000/svg" xmlns:xlink="http://www.w3.org/1999/xlink">
    <title>Group 7 Copy</title>
    <defs>
        <path d="M12.0070843,6.92902663 C11.6881798,7.37611515 8.60949039,7.88166524 2.77101607,8.44567689 L2.48919587,9.57766352 C8.37496367,10.1303207 11.5038602,10.6160763 11.8758855,11.0349302 C12.3809011,11.6035144 12.7872418,12.3520594 13.0949079,13.2805652 C13.0808748,13.4201619 13.0746056,13.5621425 13.0746056,13.7067112 C13.0746056,14.3429636 13.2492116,14.9486598 13.5984236,15.5238 C13.7891798,16.8561378 13.8531616,18.4175716 13.7919151,20.2073937 C13.8417488,18.720613 13.9584626,17.3985617 14.1420565,16.2412398 C14.4017122,16.5310339 14.7120519,16.8114894 15.0707286,17.083486 C16.4014773,18.092637 18.741377,19.1350568 22.0904278,20.2107453 C25.4394786,21.2864338 28.1896925,22.4452941 30.3410695,23.6873262 C35.5753476,26.7036898 38.1924866,30.8622794 38.1924866,36.1630949 C38.1924866,40.3993115 36.5955882,43.7261832 33.4017914,46.1437099 C30.2079947,48.5612366 25.8276136,49.77 20.2606484,49.77 C16.3349398,49.77 12.780732,49.0658122 9.59802473,47.6574365 C6.41531751,46.2490608 4.01996992,44.3194753 2.41198195,41.8686798 C0.803993984,39.4178844 0,36.5955882 0,33.4017914 L11.7105882,33.4017914 C11.7105882,35.9967513 12.3815074,37.9097025 13.7233456,39.1406451 C15.0651838,40.3715876 17.2442848,40.9870588 20.2606484,40.9870588 C22.190234,40.9870588 23.7150501,40.5711999 24.8350969,39.739482 C25.9551437,38.907764 26.5151671,37.7378142 26.5151671,36.2296324 C26.5151671,34.5218382 25.9107854,33.1910896 24.7020221,32.2373864 C23.4932587,31.2836832 21.3696056,30.2967112 18.3310628,29.2764706 C15.2925201,28.2562299 12.8084559,27.269258 10.8788703,26.3155548 C4.60217246,23.2326537 1.46382353,18.9964372 1.46382353,13.6069051 C1.46382353,10.9232286 2.24563837,8.55560495 3.80926805,6.50403409 C5.37289773,4.45246324 7.58526738,2.85556484 10.446377,1.7133389 C11.3615499,1.3479792 12.3130307,1.04105264 13.3008195,0.792559228 C13.1444093,3.8947107 12.7128957,5.93951341 12.0070843,6.92902663 Z M53.7834477,8.9787909 L53.7844251,49.1046257 L42.1403743,49.1046257 L42.1398778,9.1097589 C45.6641389,9.04749057 49.5453289,9.00383457 53.7834477,8.9787909 Z M70.740381,0.665374332 L70.740381,40.1220722 L91.0675668,40.1220722 L91.0675668,49.1046257 L59.0630615,49.1046257 L59.0630615,0.665374332 L70.740381,0.665374332 Z M95.4812166,0.665374332 L105.095876,35.9302139 L114.743803,0.665374332 L127.78514,0.665374332 L111.483469,49.1046257 L98.7082821,49.1046257 L82.5396858,0.665374332 L95.4812166,0.665374332 Z M161.907754,0.665374332 L161.907754,9.68119652 L140.150013,9.68119652 L140.150013,19.8946925 L158.514345,19.8946925 L158.514345,28.5778275 L140.150013,28.5778275 L140.150013,40.1220722 L161.841217,40.1220722 L161.841217,49.1046257 L128.472694,49.1046257 L128.472694,0.665374332 L161.907754,0.665374332 Z M182.822687,0.665374332 C188.567086,0.665374332 193.058362,1.94067513 196.296517,4.49127674 C199.534672,7.04187834 201.15375,10.6459893 201.15375,15.3036096 C201.15375,18.6748396 200.471741,21.4694118 199.107724,23.6873262 C197.743707,25.9052406 195.608964,27.7017513 192.703496,29.0768583 L202.817186,48.6055949 L202.817186,49.1046257 L190.308148,49.1046257 L181.758088,32.0045053 L175.437032,32.0045053 L175.437032,49.1046257 L163.759713,49.1046257 L163.759713,0.665374332 L182.822687,0.665374332 Z M182.822687,9.68119652 L175.437032,9.68119652 L175.437032,22.9886832 L182.822687,22.9886832 C185.040602,22.9886832 186.709582,22.4064806 187.829629,21.2420755 C188.949676,20.0776705 189.509699,18.4530481 189.509699,16.3682086 C189.509699,14.283369 188.944131,12.6476571 187.812995,11.4610729 C186.681858,10.2744886 185.018422,9.68119652 182.822687,9.68119652 Z M38.1924866,15.0374599 L26.5484358,15.0374599 C26.5484358,13.063516 25.9440541,11.5331551 24.7352908,10.446377 C24.4677776,10.2058605 24.179353,9.99195861 23.8700169,9.80467121 C27.1928604,9.55498049 31.5766744,9.35973604 37.0196566,9.21972272 C37.802383,10.9917961 38.1924866,12.9312363 38.1924866,15.0374599 Z M53.7844251,0.665374332 L53.7835803,8.97539429 C53.6224586,8.97564216 53.4618424,8.97585992 53.3017319,8.97604758 L50.9813425,8.97663576 C47.824678,8.97444347 44.8772982,8.95979009 42.1392032,8.93267562 L42.1403743,0.665374332 L53.7844251,0.665374332 Z M20.0943048,0 C23.5764305,0 26.6981451,0.621016043 29.4594485,1.86304813 C32.220752,3.10508021 34.3665842,4.87386698 35.8969452,7.16940842 C36.2601453,7.71420859 36.5802463,8.27743517 36.8572483,8.85908817 C23.2189337,8.6156907 16.0439064,7.98631563 15.3310786,6.97217252 C14.6132066,5.95085292 14.0647523,3.86059786 13.6857157,0.701407319 C15.6765493,0.233101234 17.8130072,0 20.0943048,0 Z" id="path-1"></path>
    </defs>
    <g id="Page-1" stroke="none" stroke-width="1" fill="none" fill-rule="evenodd">
        <g id="Group-7-Copy">
            <g id="Group-4" transform="translate(0.000000, 10.763829)" fill-rule="nonzero">
                <g id="Combined-Shape">
                    <use fill="#333333" xlink:href="#path-1"></use>
                    <use fill="#FFFFFF" xlink:href="#path-1"></use>
                </g>
            </g>
            <rect id="Rectangle" x="0" y="0" width="203" height="76"></rect>
        </g>
    </g>
</svg>