<svg xmlns="http://www.w3.org/2000/svg" xmlns:xlink="http://www.w3.org/1999/xlink" width="80" height="96.814" viewBox="0 0 80 96.814">
  <defs>
    <linearGradient id="linear-gradient" x1="0.192" x2="0.822" y2="1" gradientUnits="objectBoundingBox">
      <stop offset="0" stop-color="#2fd8de"/>
      <stop offset="0.474" stop-color="#4958e0"/>
      <stop offset="1" stop-color="#ff4063"/>
    </linearGradient>
  </defs>
  <g id="Group" transform="translate(0 0.5)">
    <path id="Fill_45" data-name="Fill 45" d="M21.4,91.165V69.916a5.363,5.363,0,0,1,1.208-3.238l9.3-10.918a6.345,6.345,0,0,1-.381-.793L23.472,34.712,19.8,41.336a3.422,3.422,0,0,1-1.126,1.214,3.412,3.412,0,0,1-1.332.661L4.257,46.453a3.432,3.432,0,1,1-1.65-6.662l11.815-2.927,7.188-12.976a7.894,7.894,0,0,1,14.608.153L45.61,47.649a7.9,7.9,0,0,1-2.08,8.81L30.7,71.517V91.165a4.65,4.65,0,0,1-9.3,0ZM13.152,8.375a8.376,8.376,0,1,1,8.377,8.375A8.376,8.376,0,0,1,13.152,8.375Z" transform="translate(17.728)" fill="none" stroke="#333" stroke-miterlimit="10" stroke-width="1" stroke-dasharray="2 2"/>
    <g id="Fill_47" data-name="Fill 47">
      <path id="Fill_47-2" data-name="Fill 47" d="M74.121,16.394a5.888,5.888,0,0,1-5.882-5.88,5.819,5.819,0,0,1,.524-2.426l-.719-1.245H11.957l-.719,1.245A5.88,5.88,0,1,1,0,10.514,5.883,5.883,0,0,1,5.332,4.66l1.4-2.434a3.427,3.427,0,0,1,.595-.76A3.424,3.424,0,0,1,10.139,0H69.86a3.409,3.409,0,0,1,2.87,1.562,3.429,3.429,0,0,1,.575.74L74.667,4.66a5.879,5.879,0,0,1-.545,11.733Zm0-8.144a2.264,2.264,0,1,0,2.264,2.264A2.267,2.267,0,0,0,74.12,8.249Zm-68.239,0a2.264,2.264,0,1,0,2.264,2.264A2.267,2.267,0,0,0,5.881,8.249Z" transform="translate(0 48.079)" fill="none"/>
      <path id="Fill_47-3" data-name="Fill 47" d="M74.121,16.394a5.888,5.888,0,0,1-5.882-5.88,5.819,5.819,0,0,1,.524-2.426l-.719-1.245H11.957l-.719,1.245A5.88,5.88,0,1,1,0,10.514,5.883,5.883,0,0,1,5.332,4.66l1.4-2.434a3.427,3.427,0,0,1,.595-.76A3.424,3.424,0,0,1,10.139,0H69.86a3.409,3.409,0,0,1,2.87,1.562,3.429,3.429,0,0,1,.575.74L74.667,4.66a5.879,5.879,0,0,1-.545,11.733Zm0-8.144a2.264,2.264,0,1,0,2.264,2.264A2.267,2.267,0,0,0,74.12,8.249Zm-68.239,0a2.264,2.264,0,1,0,2.264,2.264A2.267,2.267,0,0,0,5.881,8.249Z" transform="translate(0 48.079)" fill="none"/>
      <path id="Fill_47-4" data-name="Fill 47" d="M74.121,16.394a5.888,5.888,0,0,1-5.882-5.88,5.819,5.819,0,0,1,.524-2.426l-.719-1.245H11.957l-.719,1.245A5.88,5.88,0,1,1,0,10.514,5.883,5.883,0,0,1,5.332,4.66l1.4-2.434a3.427,3.427,0,0,1,.595-.76A3.424,3.424,0,0,1,10.139,0H69.86a3.409,3.409,0,0,1,2.87,1.562,3.429,3.429,0,0,1,.575.74L74.667,4.66a5.879,5.879,0,0,1-.545,11.733Zm0-8.144a2.264,2.264,0,1,0,2.264,2.264A2.267,2.267,0,0,0,74.12,8.249Zm-68.239,0a2.264,2.264,0,1,0,2.264,2.264A2.267,2.267,0,0,0,5.881,8.249Z" transform="translate(0 48.079)" fill="url(#linear-gradient)"/>
    </g>
  </g>
</svg>
