<svg xmlns="http://www.w3.org/2000/svg" xmlns:xlink="http://www.w3.org/1999/xlink" width="66.613" height="100" viewBox="0 0 66.613 100">
  <defs>
    <linearGradient id="linear-gradient" x1="0.5" x2="0.5" y2="1" gradientUnits="objectBoundingBox">
      <stop offset="0" stop-color="#635151"/>
      <stop offset="1" stop-color="#7d6868"/>
    </linearGradient>
  </defs>
  <path id="Path_31_Copy" data-name="Path 31 Copy" d="M34.126,97.354a13.838,13.838,0,0,1,0-6.087l-.943-.294s-2.067,4.32-4.949,5.628-4.617-3.18-4.337-5.333,1.12-8.227,4.337-11.127,4.9.6,5.26,1.079l1.089.049V78.1l.633-1.1s.143-3.392-.251-3.883-15.658-4.744-19.554-4.887-4.562.125-4.825.324a4.219,4.219,0,0,0-.374,1.6h.273V71.84s.94.095.675,1.513.385-.464,1.715-.477,3.488,1.05,3.179,6.757-2.784,8.53-3.788,8.906a2.223,2.223,0,0,1-2.576-.573c-.707-.742-1.18-2.4-.985-5.893L7.01,81.882S5.623,86.244,3.8,87.2A2.314,2.314,0,0,1,.371,85.629a15.905,15.905,0,0,1,1.41-10.7C4.3,69.979,6.841,73.7,7.01,74.436L8.119,73.9V70.16h.365V67.527s2.911-6.547,4.495-8.28c.284-.311.544-.586.78-.827l.484-13.244.088-1.427.364-.314a31.774,31.774,0,0,1,4.169-.7c-.562-.785-4.135-3.119-5.322-4.2a5.1,5.1,0,0,1-1.6-2.6,13.016,13.016,0,0,1,0-2.751l-1.65.013s.948-5.016,3.668-5.1c2.484-.074,13.174.434,15.021.523q-.18-.261-.355-.533a8.668,8.668,0,0,1-.232-2.005c0-1.1-.258-3.025.859-4.531a6.868,6.868,0,0,1,1.27-1.22,19.915,19.915,0,0,1,.341-2.921c.18-.353-.828-.411-.922-1.047s.873-.941.922-1.271.62-7.2.739-9.057,1.782-3.986,3.424-4.155S55.808.095,57.859,0s3.5,1.5,3.524,2.419,0,3.222,0,3.222l-.715,16.012-1.389.958s-.836,3.255-.954,3.506c-.04.085-.107,1.93-.177,4.33a29.7,29.7,0,0,1,5.185.162,10.193,10.193,0,0,1,.78,3.576,11.735,11.735,0,0,1-.78,2.633,8.948,8.948,0,0,0-1.921-1.427c-.514-.122-1.877,1.427-1.877,1.427s.023-3.123-.981-3.19c-.128-.008-.3-.015-.494-.019-.107,4.071-.2,8.283-.2,8.283h-.02L57.21,60.281l.675,1.958s1.6,2.329,1.7,2.436c.056.056.443.337.8.594a11.283,11.283,0,0,1,1.02-3.017,2.453,2.453,0,0,1,2.217-1.6c1.127.093,3.234.972,2.963,6.785s-1.876,8.732-2.881,8.943-2.817.92-3.519-4.454q-.062-.478-.1-.952a17.78,17.78,0,0,1-2.233-.661,4.739,4.739,0,0,1-1.922-1.076l-1.8-1.569-7.342-1.705c-.5.133-4.019,1.093-5.173,2.272A24.282,24.282,0,0,0,37.588,75.9a41.765,41.765,0,0,0-.036,5.572l.2.014s-.309-.233,1.185,0,4.545.866,4.154,6.771-3.515,11.2-5.071,11.667A1.81,1.81,0,0,1,37.5,100,4.3,4.3,0,0,1,34.126,97.354ZM35.8,69.866l.907,1.438L37.8,68.742ZM11.795,64.391l-.837,1.777a15.451,15.451,0,0,1,2.123-1.548,2.633,2.633,0,0,1,.74-.2l-.279-.073.121-3.316ZM55.01,65.724l1.228-1.049L55.01,62.493s-1.844,1.42-3.075,2.327Zm-3.973-1.2a33.757,33.757,0,0,1,1.236-4.964,14.588,14.588,0,0,0,.986-5.329c-.1-.6.845-1.388.924-1.7a6.116,6.116,0,0,0-.331-2.867c-.237-.6-.481-1.665-.956-2.846l-2.762,4.544.59,3.417-.59,7.017-1.382.778-.5.888ZM55.01,49.265l.34,5.571.313-3.651.269-6.9-.96-.334-1.049,1.426A14.779,14.779,0,0,1,55.01,49.265Zm-.279-5.4-.087-.03L55.932,40l.021.006V38.55l-4.773-.389v2.185s-.1,1.342,1.651,3.294ZM32,41.366c1.267.019,12.384,1.291,18.691,2.024-1.47-1.567-1.41-3.786-1.312-5.376l-18.766-1.53v4.958c.621-.049,1.088-.076,1.344-.076ZM13.541,35.933c.216,1.72,4.721,4.387,5.356,4.805a6.568,6.568,0,0,1,1.369,1.815c2.9-.365,6.322-.743,8.753-.972l.232-6.926-.627-.466-.94-1.034-.765,1.034h-.635l-1.6-3.038s-7.6-.059-8.082,0-1.177,2-1.177,2l-1.891.015A9.54,9.54,0,0,0,13.541,35.933Zm42.44,1.388.126-3.716c-1.068.008-2.044.026-2.044.026a5.656,5.656,0,0,0-.969,2.3c-.053.472-1.033.56-2.177.5.158.1.263.175.263.175v.262ZM49.432,36.7c0-.033,0-.066,0-.1a.95.95,0,0,1,.023-.314c-1.2-.152-2.231-.361-2.231-.361s.039-.224.135-.581a17.661,17.661,0,0,1-2.1.957ZM31.19,33.631l-.58,1.3,6.805.642a18.634,18.634,0,0,1-4.985-3.083Zm23.571-3.119c.475-.012.963-.024,1.453-.033l.054-1.588A10.643,10.643,0,0,1,54.761,30.512ZM49.664,17c1.223.293,6.55,1.41,7.762,4.858a7.615,7.615,0,0,1,.395,1.742l.505-1.941-.731-1.8V16.881s.919-4.8.731-5.574q-.011-.044-.025-.092a3.1,3.1,0,0,0-.487.939,6.386,6.386,0,0,1-1.761,2.484c-.283.228-2.189-.063-.706-.592a1.989,1.989,0,0,0,1.246-2.141l-.924-.6V10.282l1.287-.306L57.312,9a1.33,1.33,0,0,1-.148-.483c.038-.32,0-2.162,0-2.162l.087-.083L55.665,5.126s-.336-.688-3.167-.479C50.043,4.828,37.546,5.757,34.272,6c0,.023,0,.035,0,.035s-.516.469,0,.661.956,1.28,1.04,1.818-1.04,1.741-1.04,1.741l-1.281,1.052v3.785a14.153,14.153,0,0,1,.87,1.271c-.035.047-.87,1.047-.87,1.047l.192,1.261a12.518,12.518,0,0,1,4.236-1.356c2.207-.2,6.97-.432,9.908-.432A14.107,14.107,0,0,1,49.664,17ZM55.01,3.745a8.665,8.665,0,0,1,2.849,1.381,2.9,2.9,0,0,1,.273.313L58.6,5a1.75,1.75,0,0,0,.683-1.129c.086-.718-.614-1.459-1.685-1.446s-21.64,1.4-22.569,1.722a1.183,1.183,0,0,0-.7.946L52.5,3.745Z" transform="translate(0 0)" fill="url(#linear-gradient)"/>
</svg>
