<svg xmlns="http://www.w3.org/2000/svg" width="78.158" height="100.5" viewBox="0 0 78.158 100.5">
  <g id="Group_28" data-name="Group 28" transform="translate(0.508 0.5)">
    <path id="Fill_25" data-name="Fill 25" d="M2.035,82.853a4.688,4.688,0,0,1-1.21-6.521L14.477,56.46a4.68,4.68,0,0,1,3.191-1.985,4.707,4.707,0,0,1,1.042-.157l20.481-.759q-.018-.292-.018-.588V46.234H30.782a3.374,3.374,0,0,1,0-6.747h8.392V28.655a9.508,9.508,0,0,1,19.016,0V52.971a9.509,9.509,0,0,1-8.62,9.467,4.7,4.7,0,0,1-1.05.158L20.933,63.618,8.554,81.643a4.69,4.69,0,0,1-6.519,1.211ZM40.143,8.29a8.289,8.289,0,1,1,8.287,8.29A8.289,8.289,0,0,1,40.143,8.29Z" fill="none" stroke="#fff" stroke-width="1" stroke-dasharray="2 1"/>
    <path id="Fill_41" data-name="Fill 41" d="M55.413,78.2,47.985,55.57H13.26L5.831,78.2A2.99,2.99,0,0,1,.15,76.332L6.967,55.57h-.03a4.121,4.121,0,1,1,0-8.241h4.112l3.406-11.167H10.024a3.108,3.108,0,0,1,0-6.215H49.646L54.338,3.275a3.96,3.96,0,0,1,7.8,1.372L53.926,51.336c0,.037,0,.074,0,.111a4.106,4.106,0,0,1-.413,1.8l.013.04,7.566,23.044A2.99,2.99,0,1,1,55.413,78.2Zm-8.825-30.87,1.965-11.167H19.492l-3.4,11.167Z" transform="translate(15.45 19.744)" fill="#fff"/>
  </g>
</svg>
