<svg xmlns="http://www.w3.org/2000/svg" xmlns:xlink="http://www.w3.org/1999/xlink" width="154.349" height="42" viewBox="0 0 154.349 42">
  <defs>
    <linearGradient id="linear-gradient" x1="0.035" y1="0.145" x2="0.966" y2="0.906" gradientUnits="objectBoundingBox">
      <stop offset="0.001" stop-color="#1584b9"/>
      <stop offset="0.292" stop-color="#770dac"/>
      <stop offset="0.545" stop-color="#b80d0d"/>
      <stop offset="0.766" stop-color="#e5a20a"/>
      <stop offset="1" stop-color="#43a800"/>
    </linearGradient>
    <clipPath id="clip-path"/>
    <filter id="Oval" x="98.002" y="0" width="47" height="42" filterUnits="userSpaceOnUse">
      <feOffset dx="-5" input="SourceAlpha"/>
      <feGaussianBlur result="blur"/>
      <feFlood flood-opacity="0.114"/>
      <feComposite operator="in" in2="blur"/>
      <feComposite in="SourceGraphic"/>
    </filter>
    <linearGradient id="linear-gradient-2" x1="0.5" x2="0.5" y2="1" gradientUnits="objectBoundingBox">
      <stop offset="0" stop-color="#ffa152"/>
      <stop offset="0.611" stop-color="#fd3a3a"/>
      <stop offset="1" stop-color="#ff00ae"/>
    </linearGradient>
  </defs>
  <g id="Group_18" data-name="Group 18" transform="translate(0 2)">
    <g id="Path_4" data-name="Path 4" opacity="0.15">
      <path id="Path_4-2" data-name="Path 4" d="M50.056,26.7h-3.02V14.172h4.931a5.525,5.525,0,0,1,3.486.99,3.367,3.367,0,0,1,1.256,2.8,4.1,4.1,0,0,1-.529,2.169,3.776,3.776,0,0,1-1.657,1.394l2.616,5.052V26.7H53.9L51.692,22.28H50.057V26.7h0Zm0-6.757h1.911a1.725,1.725,0,0,0,1.3-.452,1.753,1.753,0,0,0,.435-1.261,1.772,1.772,0,0,0-.438-1.269,1.712,1.712,0,0,0-1.292-.461H50.057ZM37.523,26.7H34.3l4.6-12.531h2.84L46.362,26.7l-3.244,0-.731-2.341h-4.14L37.524,26.7h0Zm1.446-4.675h2.694l-1.351-4.346ZM82.184,26.7V16.5H78.492V14.172H88.965V16.5H85.2V26.7Zm-12.852,0V14.172H77.98V16.5H72.353v2.642H77.1v2.246h-4.75v2.986h5.611V26.7Zm-4.108,0-2.668-4.664L61.317,23.4v3.3H58.3V14.172h3.021V19.7l1.049-1.592,2.7-3.933H68.8L64.57,19.715,68.8,26.7Zm-34.82,0V23.776l.292-5.99L27.667,26.7h-2l-3.038-8.924.293,6V26.7H19.9V14.172h3.968l2.8,8.717,2.788-8.717h3.976V26.7Zm9.965-15.015a4.237,4.237,0,0,1-1.342-3.253V.172h3.038V8.494q.051,2.057,1.911,2.057a1.851,1.851,0,0,0,1.42-.516,2.415,2.415,0,0,0,.482-1.678V.172H48.9v8.2a4.71,4.71,0,0,1-.594,2.414,3.844,3.844,0,0,1-1.7,1.553,6,6,0,0,1-2.625.534A5.19,5.19,0,0,1,40.369,11.687Zm-10.923.452a5.036,5.036,0,0,1-1.932-2.1,7.215,7.215,0,0,1-.727-3.142V6.188a7.45,7.45,0,0,1,.676-3.248A5.026,5.026,0,0,1,29.4.766,5.734,5.734,0,0,1,35.108.757a5.132,5.132,0,0,1,1.94,2.156,7.239,7.239,0,0,1,.7,3.206V6.7A7.418,7.418,0,0,1,37.07,9.94a5.045,5.045,0,0,1-1.932,2.174,5.406,5.406,0,0,1-2.853.761A5.482,5.482,0,0,1,29.445,12.139Zm.421-6.365-.008.921a5.445,5.445,0,0,0,.611,2.831,2,2,0,0,0,1.815.99,1.982,1.982,0,0,0,1.765-.972,5.308,5.308,0,0,0,.628-2.8V6.17a5.3,5.3,0,0,0-.625-2.836,2.01,2.01,0,0,0-1.786-.967C30.76,2.367,29.953,3.514,29.867,5.774ZM18.9,12.7H15.88V.172h4.931a5.525,5.525,0,0,1,3.486.99,3.369,3.369,0,0,1,1.256,2.8,4.1,4.1,0,0,1-.529,2.169,3.765,3.765,0,0,1-1.657,1.394l2.616,5.052V12.7H22.748L20.535,8.279H18.9V12.7h0Zm0-6.757h1.911a1.727,1.727,0,0,0,1.3-.452,1.751,1.751,0,0,0,.435-1.261A1.773,1.773,0,0,0,22.1,2.965,1.715,1.715,0,0,0,20.811,2.5H18.9ZM61.043,12.7V9.777l.293-5.99L58.307,12.7h-2L53.272,3.778l.292,6V12.7h-3.02V.172h3.967l2.8,8.718L60.1.172h3.976V12.7ZM0,12.7V.172H8.649V2.5H3.02V5.146H7.772V7.393H3.02v2.986H8.632V12.7ZM10.547,7.714V4.96H13.31V7.714Z" transform="translate(0 8.749)" fill="none"/>
      <path id="Path_4-3" data-name="Path 4" d="M50.056,26.7h-3.02V14.172h4.931a5.525,5.525,0,0,1,3.486.99,3.367,3.367,0,0,1,1.256,2.8,4.1,4.1,0,0,1-.529,2.169,3.776,3.776,0,0,1-1.657,1.394l2.616,5.052V26.7H53.9L51.692,22.28H50.057V26.7h0Zm0-6.757h1.911a1.725,1.725,0,0,0,1.3-.452,1.753,1.753,0,0,0,.435-1.261,1.772,1.772,0,0,0-.438-1.269,1.712,1.712,0,0,0-1.292-.461H50.057ZM37.523,26.7H34.3l4.6-12.531h2.84L46.362,26.7l-3.244,0-.731-2.341h-4.14L37.524,26.7h0Zm1.446-4.675h2.694l-1.351-4.346ZM82.184,26.7V16.5H78.492V14.172H88.965V16.5H85.2V26.7Zm-12.852,0V14.172H77.98V16.5H72.353v2.642H77.1v2.246h-4.75v2.986h5.611V26.7Zm-4.108,0-2.668-4.664L61.317,23.4v3.3H58.3V14.172h3.021V19.7l1.049-1.592,2.7-3.933H68.8L64.57,19.715,68.8,26.7Zm-34.82,0V23.776l.292-5.99L27.667,26.7h-2l-3.038-8.924.293,6V26.7H19.9V14.172h3.968l2.8,8.717,2.788-8.717h3.976V26.7Zm9.965-15.015a4.237,4.237,0,0,1-1.342-3.253V.172h3.038V8.494q.051,2.057,1.911,2.057a1.851,1.851,0,0,0,1.42-.516,2.415,2.415,0,0,0,.482-1.678V.172H48.9v8.2a4.71,4.71,0,0,1-.594,2.414,3.844,3.844,0,0,1-1.7,1.553,6,6,0,0,1-2.625.534A5.19,5.19,0,0,1,40.369,11.687Zm-10.923.452a5.036,5.036,0,0,1-1.932-2.1,7.215,7.215,0,0,1-.727-3.142V6.188a7.45,7.45,0,0,1,.676-3.248A5.026,5.026,0,0,1,29.4.766,5.734,5.734,0,0,1,35.108.757a5.132,5.132,0,0,1,1.94,2.156,7.239,7.239,0,0,1,.7,3.206V6.7A7.418,7.418,0,0,1,37.07,9.94a5.045,5.045,0,0,1-1.932,2.174,5.406,5.406,0,0,1-2.853.761A5.482,5.482,0,0,1,29.445,12.139Zm.421-6.365-.008.921a5.445,5.445,0,0,0,.611,2.831,2,2,0,0,0,1.815.99,1.982,1.982,0,0,0,1.765-.972,5.308,5.308,0,0,0,.628-2.8V6.17a5.3,5.3,0,0,0-.625-2.836,2.01,2.01,0,0,0-1.786-.967C30.76,2.367,29.953,3.514,29.867,5.774ZM18.9,12.7H15.88V.172h4.931a5.525,5.525,0,0,1,3.486.99,3.369,3.369,0,0,1,1.256,2.8,4.1,4.1,0,0,1-.529,2.169,3.765,3.765,0,0,1-1.657,1.394l2.616,5.052V12.7H22.748L20.535,8.279H18.9V12.7h0Zm0-6.757h1.911a1.727,1.727,0,0,0,1.3-.452,1.751,1.751,0,0,0,.435-1.261A1.773,1.773,0,0,0,22.1,2.965,1.715,1.715,0,0,0,20.811,2.5H18.9ZM61.043,12.7V9.777l.293-5.99L58.307,12.7h-2L53.272,3.778l.292,6V12.7h-3.02V.172h3.967l2.8,8.718L60.1.172h3.976V12.7ZM0,12.7V.172H8.649V2.5H3.02V5.146H7.772V7.393H3.02v2.986H8.632V12.7ZM10.547,7.714V4.96H13.31V7.714Z" transform="translate(0 8.749)" fill="url(#linear-gradient)"/>
    </g>
    <g id="Rectangle" transform="translate(95.002 7)">
      <g id="Rectangle-2" data-name="Rectangle" clip-path="url(#clip-path)">
        <rect id="Rectangle-3" data-name="Rectangle" width="57" height="41" rx="19" transform="translate(0 -9)" opacity="0.5"/>
      </g>
    </g>
    <g id="Oval-2" data-name="Oval" transform="translate(100.349)" fill="#fff" stroke="#2f2f2f" stroke-miterlimit="10" stroke-width="2">
      <circle cx="19" cy="19" r="19" stroke="none"/>
      <circle cx="19" cy="19" r="20" fill="none"/>
    </g>
    <g id="Oval-3" data-name="Oval" transform="translate(96.349)" fill="#fff" stroke="#2f2f2f" stroke-miterlimit="10" stroke-width="2">
      <circle cx="19" cy="19" r="19" stroke="none"/>
      <circle cx="19" cy="19" r="20" fill="none"/>
    </g>
    <g id="Oval-4" data-name="Oval" transform="translate(114.349)" fill="#fff" stroke="#2f2f2f" stroke-miterlimit="10" stroke-width="2">
      <circle cx="19" cy="19" r="19" stroke="none"/>
      <circle cx="19" cy="19" r="20" fill="none"/>
    </g>
    <g id="Oval-5" data-name="Oval" transform="translate(109.349)" fill="#fff" stroke="#2f2f2f" stroke-miterlimit="10" stroke-width="2">
      <circle cx="19" cy="19" r="19" stroke="none"/>
      <circle cx="19" cy="19" r="20" fill="none"/>
    </g>
    <g transform="matrix(1, 0, 0, 1, 0, -2)" filter="url(#Oval)">
      <g id="Oval-6" data-name="Oval" transform="translate(105 2)" fill="#fff" stroke="#2f2f2f" stroke-miterlimit="10" stroke-width="2">
        <circle cx="19" cy="19" r="19" stroke="none"/>
        <circle cx="19" cy="19" r="20" fill="none"/>
      </g>
    </g>
    <path id="Path_2" data-name="Path 2" d="M2.808,25H0V0H7.359a18.333,18.333,0,0,1,4.479.525,10.575,10.575,0,0,1,3.636,1.65,7.91,7.91,0,0,1,2.456,2.942,9.9,9.9,0,0,1,.9,4.4,9.9,9.9,0,0,1-.9,4.4,7.907,7.907,0,0,1-2.456,2.942,10.575,10.575,0,0,1-3.636,1.65,18.333,18.333,0,0,1-4.479.525V25h-2.9V16.4H7.283a12.575,12.575,0,0,0,3.307-.416,7.762,7.762,0,0,0,2.633-1.247A5.615,5.615,0,0,0,14.945,12.6a7.229,7.229,0,0,0,.614-3.089,7.231,7.231,0,0,0-.614-3.09,5.615,5.615,0,0,0-1.723-2.138,7.762,7.762,0,0,0-2.633-1.247,12.575,12.575,0,0,0-3.307-.416H2.808V25ZM7.53,14.788H4.451V4.167H7.53a10.852,10.852,0,0,1,2.425.266,6.005,6.005,0,0,1,2.036.868,4.352,4.352,0,0,1,1.416,1.629,5.535,5.535,0,0,1,.531,2.549,5.535,5.535,0,0,1-.531,2.549,4.352,4.352,0,0,1-1.416,1.629,6,6,0,0,1-2.036.867A10.8,10.8,0,0,1,7.53,14.788ZM7.359,6.747v5.548H7.7a3.03,3.03,0,0,0,2.268-.731,2.86,2.86,0,0,0,.693-2.043,2.863,2.863,0,0,0-.693-2.043A3.03,3.03,0,0,0,7.7,6.747Z" transform="translate(116.002 6)" fill="url(#linear-gradient-2)"/>
  </g>
</svg>
