<?xml version="1.0" encoding="UTF-8"?>
<svg width="161px" height="76px" viewBox="0 0 161 76" version="1.1" xmlns="http://www.w3.org/2000/svg" xmlns:xlink="http://www.w3.org/1999/xlink">
    <title>Group 8</title>
    <defs>
        <linearGradient x1="5.06765018%" y1="47.5483366%" x2="100%" y2="54.7911638%" id="linearGradient-1">
            <stop stop-color="#F2D565" offset="0%"></stop>
            <stop stop-color="#DAB33C" offset="75.9927283%"></stop>
            <stop stop-color="#D2A82F" offset="100%"></stop>
        </linearGradient>
    </defs>
    <g id="Page-1" stroke="none" stroke-width="1" fill="none" fill-rule="evenodd">
        <g id="Artboard" transform="translate(-73.000000, -1000.000000)">
            <g id="Group-8" transform="translate(73.000000, 1000.000000)">
                <g id="Group" transform="translate(0.000000, 9.000000)">
                    <g id="GOLD-Copy-3" transform="translate(0.000000, 1.729649)" fill="url(#linearGradient-1)" fill-rule="nonzero">
                        <path d="M40.5607214,43.1207014 C38.7654108,45.115491 36.1389379,46.7224048 32.6813026,47.9414429 C29.2236673,49.160481 25.4335671,49.77 21.311002,49.77 C14.972004,49.77 9.90745491,47.8306212 6.11735471,43.9518637 C2.32725451,40.0731062 0.299218437,34.6760922 0.033246493,27.7608216 L0,23.5717635 C0,18.8064329 0.842244489,14.6450802 2.52673347,11.0877054 C4.21122244,7.53033066 6.62159319,4.79303607 9.75784569,2.87582164 C12.8940982,0.958607214 16.523507,0 20.6460721,0 C26.6747695,0 31.356984,1.37972946 34.6927154,4.13918838 C38.0284469,6.89864729 39.9733667,11.0156713 40.5274749,16.4902605 L29.2901603,16.4902605 C28.8912024,13.7862124 28.0267936,11.8579158 26.6969339,10.7053707 C25.3670741,9.55282565 23.4831062,8.97655311 21.0450301,8.97655311 C18.1193387,8.97655311 15.8585772,10.2177555 14.2627455,12.7001603 C12.6669138,15.1825651 11.8579158,18.7288577 11.8357515,23.3390381 L11.8357515,26.2647295 C11.8357515,31.0965531 12.6613727,34.7259619 14.3126152,37.1529559 C15.9638577,39.5799499 18.5626253,40.7934469 22.1089178,40.7934469 C25.1454309,40.7934469 27.4061924,40.1174349 28.8912024,38.7654108 L28.8912024,31.2517034 L20.7790581,31.2517034 L20.7790581,23.2392986 L40.5607214,23.2392986 L40.5607214,43.1207014 Z M85.4988978,25.899018 C85.4988978,30.62002 84.6234068,34.797996 82.8724248,38.4329459 C81.1214429,42.0678958 78.633497,44.8661423 75.4085872,46.8276854 C72.1836774,48.7892285 68.5099399,49.77 64.3873747,49.77 C60.2648096,49.77 56.6076954,48.8224749 53.4160321,46.9274248 C50.2243687,45.0323747 47.7364228,42.3227856 45.9521944,38.7986573 C44.1679659,35.2745291 43.231523,31.2295391 43.1428657,26.6636874 L43.1428657,23.9374749 C43.1428657,19.1943086 44.0128156,15.0107916 45.7527154,11.3869238 C47.4926152,7.76305611 49.9861022,4.96480962 53.2331764,2.99218437 C56.4802505,1.01955912 60.1761523,0.033246493 64.3208818,0.033246493 C68.4212826,0.033246493 72.0783968,1.00847695 75.2922244,2.95893788 C78.5060521,4.9093988 81.0050802,7.68548096 82.7893086,11.2871844 C84.5735371,14.8888878 85.4767335,19.016994 85.4988978,23.671503 L85.4988978,25.899018 Z M73.6298998,23.870982 C73.6298998,19.0613226 72.8264429,15.4097495 71.2195291,12.9162625 C69.6126152,10.4227756 67.3130661,9.17603206 64.3208818,9.17603206 C58.469499,9.17603206 55.3775752,13.5645691 55.0451102,22.3416433 L55.0118637,25.899018 C55.0118637,30.6421844 55.7986974,34.2882164 57.3723647,36.8371142 C58.9460321,39.386012 61.2843687,40.6604609 64.3873747,40.6604609 C67.3352305,40.6604609 69.6070741,39.4081764 71.2029058,36.9036072 C72.7987375,34.3990381 73.6077355,30.7973347 73.6298998,26.098497 L73.6298998,23.870982 Z M100.348998,40.128517 L120.662605,40.128517 L120.662605,49.1050701 L88.679479,49.1050701 L88.679479,0.698176353 L100.348998,0.698176353 L100.348998,40.128517 Z M122.746052,49.1050701 L122.746052,0.698176353 L138.338657,0.698176353 C142.616373,0.698176353 146.461884,1.66786573 149.87519,3.60724449 C153.288497,5.54662325 155.953758,8.28391784 157.870972,11.8191283 C159.788186,15.3543387 160.757876,19.3162124 160.78004,23.7047495 L160.78004,25.9322645 C160.78004,30.3651303 159.843597,34.3380862 157.970711,37.8511323 C156.097826,41.3641784 153.460271,44.1125551 150.058046,46.0962625 C146.655822,48.0799699 142.86018,49.0829058 138.671122,49.1050701 L122.746052,49.1050701 Z M134.415571,9.70797595 L134.415571,40.128517 L138.471643,40.128517 C141.818457,40.128517 144.389519,38.9371844 146.18483,36.554519 C147.98014,34.1718537 148.877796,30.6311022 148.877796,25.9322645 L148.877796,23.8377355 C148.877796,19.1610621 147.98014,15.6369339 146.18483,13.2653507 C144.389519,10.8937675 141.774128,9.70797595 138.338657,9.70797595 L134.415571,9.70797595 Z" id="Combined-Shape"></path>
                    </g>
                    <path d="M152.791915,22.9712227 C152.945227,18.3971806 153.731539,15.3822516 155.150851,13.9264359 C155.340592,13.731814 156.180079,13.4688156 157.669312,13.1374406 L155.997887,10.4076658 C155.002258,10.124321 154.446655,9.90043293 154.331079,9.7360016 C153.377026,8.3786672 152.722207,5.13333333 152.36662,0 C152.407921,5.13333333 151.954742,8.36428524 151.007084,9.69285571 C149.953455,11.1699928 136.284427,11.8462386 110,11.721593 C136.02504,11.7265546 149.650336,12.4189434 150.875886,13.7987593 C152.30734,15.4103973 152.946016,18.4678851 152.791915,22.9712227 Z" id="Oval-Copy-5" fill="#FFFFFF"></path>
                </g>
                <rect id="Rectangle" x="0" y="0" width="161" height="76"></rect>
            </g>
        </g>
    </g>
</svg>