<svg xmlns="http://www.w3.org/2000/svg" width="50.097" height="61" viewBox="0 0 50.097 61">
  <g id="Group_28" data-name="Group 28" transform="translate(0 0.5)">
    <path id="Fill_45" data-name="Fill 45" d="M13.4,57.088V43.782a3.365,3.365,0,0,1,.756-2.029l5.824-6.836a3.973,3.973,0,0,1-.238-.5L14.7,21.738l-2.3,4.148a2.142,2.142,0,0,1-.7.759,2.136,2.136,0,0,1-.834.414l-8.2,2.03a2.149,2.149,0,1,1-1.033-4.172l7.4-1.833,4.5-8.125a4.944,4.944,0,0,1,9.148.095l5.881,14.783a4.948,4.948,0,0,1-1.3,5.519l-8.032,9.429v12.3a2.911,2.911,0,1,1-5.823,0ZM8.236,5.244a5.245,5.245,0,1,1,5.246,5.244A5.245,5.245,0,0,1,8.236,5.244Z" transform="translate(11.102)" fill="none" stroke="#979797" stroke-width="1" stroke-dasharray="2 1"/>
    <path id="Fill_47" data-name="Fill 47" d="M46.416,10.265a3.687,3.687,0,0,1-3.684-3.681,3.649,3.649,0,0,1,.328-1.52l-.45-.779H7.487l-.45.779A3.682,3.682,0,1,1,0,6.584,3.683,3.683,0,0,1,3.339,2.919l.88-1.525A2.119,2.119,0,0,1,4.592.918,2.144,2.144,0,0,1,6.35,0h37.4a2.133,2.133,0,0,1,1.8.978,2.141,2.141,0,0,1,.36.464l.852,1.476a3.682,3.682,0,0,1-.341,7.348Zm0-5.1a1.418,1.418,0,1,0,1.418,1.418A1.42,1.42,0,0,0,46.415,5.166Zm-42.732,0A1.418,1.418,0,1,0,5.1,6.584,1.42,1.42,0,0,0,3.683,5.166Z" transform="translate(0 30.108)" fill="#333"/>
  </g>
</svg>
