<svg xmlns="http://www.w3.org/2000/svg" width="83.495" height="101" viewBox="0 0 83.495 101">
  <g id="Group_28" data-name="Group 28" transform="translate(0 0.5)">
    <path id="Fill_45" data-name="Fill 45" d="M22.338,95.147V72.97A5.6,5.6,0,0,1,23.6,69.59L33.3,58.2a6.63,6.63,0,0,1-.4-.828L24.5,36.229l-3.83,6.914a3.57,3.57,0,0,1-1.174,1.266,3.56,3.56,0,0,1-1.391.69L4.442,48.482a3.582,3.582,0,0,1-1.722-6.953l12.332-3.054,7.5-13.546a8.238,8.238,0,0,1,15.245.163L47.6,49.73a8.246,8.246,0,0,1-2.171,9.195L32.044,74.642v20.5a4.853,4.853,0,0,1-9.706,0ZM13.727,8.741a8.742,8.742,0,1,1,8.743,8.74A8.742,8.742,0,0,1,13.727,8.741Z" transform="translate(18.503)" fill="none" stroke="#fff" stroke-width="1" stroke-dasharray="2 1"/>
    <path id="Fill_47" data-name="Fill 47" d="M77.36,17.109a6.144,6.144,0,0,1-6.139-6.135,6.078,6.078,0,0,1,.546-2.533l-.75-1.3H12.479l-.75,1.3A6.137,6.137,0,1,1,0,10.974a6.14,6.14,0,0,1,5.565-6.11l1.467-2.54a3.584,3.584,0,0,1,.62-.793A3.576,3.576,0,0,1,10.582,0h62.33a3.559,3.559,0,0,1,3,1.628,3.59,3.59,0,0,1,.6.774l1.421,2.462a6.136,6.136,0,0,1-.57,12.245Zm0-8.5a2.363,2.363,0,1,0,2.363,2.363A2.366,2.366,0,0,0,77.359,8.61Zm-71.221,0A2.363,2.363,0,1,0,8.5,10.974,2.366,2.366,0,0,0,6.138,8.61Z" transform="translate(0 50.179)" fill="#fff"/>
  </g>
</svg>
