<svg xmlns="http://www.w3.org/2000/svg" width="37.889" height="60.71" viewBox="0 0 37.889 60.71">
  <g id="Group_18" data-name="Group 18" transform="translate(0 0.5)">
    <path id="Fill_53" data-name="Fill 53" d="M3.239,28.932V2.84H1.42A1.42,1.42,0,0,1,1.42,0H8.959a1.42,1.42,0,1,1,0,2.84H7.079V28.932c0,.784-1.2,1.42-1.979,1.42S3.239,29.716,3.239,28.932Z" transform="translate(0 29.648)" fill="#333"/>
    <path id="Fill_51" data-name="Fill 51" d="M28,57.19l-4.15-15.242a3.444,3.444,0,0,1-.1-.522,3.4,3.4,0,0,1,.29-1.929l3.591-7.66a5.7,5.7,0,0,1-.659-.579L16.587,20.6,13.87,26.4a2.178,2.178,0,0,1-.832.933,2.174,2.174,0,0,1-1.335.455H2.183a2.182,2.182,0,1,1,0-4.365h8.241L14.7,14.308a5.653,5.653,0,0,1,9.415-2.175L35.062,23.367a5.651,5.651,0,0,1,1.31,5.75,3.437,3.437,0,0,1-.237.687L30.753,41.28,34.6,55.391a3.419,3.419,0,1,1-6.6,1.8ZM3.5,6.124a6.124,6.124,0,1,1,6.124,6.124A6.123,6.123,0,0,1,3.5,6.124Z" transform="translate(0.667)" fill="none" stroke="#979797" stroke-width="1" stroke-dasharray="2 1"/>
  </g>
</svg>
