<svg xmlns="http://www.w3.org/2000/svg" xmlns:xlink="http://www.w3.org/1999/xlink" width="182.984" height="40" viewBox="0 0 182.984 40">
  <defs>
    <linearGradient id="linear-gradient" x1="0.035" y1="0.145" x2="0.966" y2="0.906" gradientUnits="objectBoundingBox">
      <stop offset="0.001" stop-color="#1584b9"/>
      <stop offset="0.292" stop-color="#770dac"/>
      <stop offset="0.545" stop-color="#b80d0d"/>
      <stop offset="0.766" stop-color="#e5a20a"/>
      <stop offset="1" stop-color="#43a800"/>
    </linearGradient>
  </defs>
  <g id="Path_7" data-name="Path 7" transform="translate(-87.131 -10)" opacity="0.1">
    <path id="Path_7-2" data-name="Path 7" d="M53.157,15.514A5.645,5.645,0,0,1,51.389,11.2V.229h4V11.276q.069,2.73,2.516,2.731a2.422,2.422,0,0,0,1.869-.686,3.223,3.223,0,0,0,.634-2.227V.229h3.978V11.116a6.3,6.3,0,0,1-.782,3.2,5.079,5.079,0,0,1-2.244,2.062,7.846,7.846,0,0,1-3.456.708A6.793,6.793,0,0,1,53.157,15.514Zm-14.384.6a6.668,6.668,0,0,1-2.544-2.794,9.642,9.642,0,0,1-.958-4.17V8.214A9.963,9.963,0,0,1,36.16,3.9a6.662,6.662,0,0,1,2.55-2.884A7.124,7.124,0,0,1,42.49,0a7.052,7.052,0,0,1,3.739,1.005,6.788,6.788,0,0,1,2.555,2.862,9.668,9.668,0,0,1,.923,4.255v.766a9.927,9.927,0,0,1-.895,4.307,6.694,6.694,0,0,1-2.544,2.885,7.076,7.076,0,0,1-3.757,1.011A7.172,7.172,0,0,1,38.773,16.115Zm.555-8.448-.012,1.222a7.274,7.274,0,0,0,.8,3.758,2.636,2.636,0,0,0,2.391,1.314,2.6,2.6,0,0,0,2.323-1.292,7.072,7.072,0,0,0,.827-3.712V8.191a7.068,7.068,0,0,0-.822-3.764A2.638,2.638,0,0,0,42.49,3.142C40.5,3.142,39.441,4.664,39.328,7.666Zm92.424,9.2h-3.977V.229h6.494a7.231,7.231,0,0,1,4.589,1.314,4.486,4.486,0,0,1,1.655,3.713,5.474,5.474,0,0,1-.7,2.879,4.992,4.992,0,0,1-2.182,1.851l3.445,6.706v.17h-4.261l-2.912-5.872h-2.153v5.872h0Zm0-8.969h2.516a2.265,2.265,0,0,0,1.705-.6,2.337,2.337,0,0,0,.572-1.674,2.363,2.363,0,0,0-.579-1.685,2.237,2.237,0,0,0-1.7-.611h-2.516Zm-16.505,8.969H111L117.051.229h3.74l6.1,16.632-4.271,0-.963-3.107H116.2l-.951,3.107h0Zm1.905-6.2H120.7L118.921,4.89Zm-92.267,6.2H20.91V.229H27.4a7.231,7.231,0,0,1,4.589,1.314,4.486,4.486,0,0,1,1.655,3.713,5.474,5.474,0,0,1-.7,2.879,4.992,4.992,0,0,1-2.182,1.851l3.445,6.706v.17H29.953l-2.912-5.872H24.888v5.872h0Zm0-8.969H27.4a2.265,2.265,0,0,0,1.705-.6,2.337,2.337,0,0,0,.572-1.674A2.363,2.363,0,0,0,29.1,3.936a2.237,2.237,0,0,0-1.7-.611H24.888Zm149.167,8.968V3.325h-4.862V.229h13.792v3.1h-4.952V16.862Zm-16.923,0V.229h11.389v3.1H161.11V6.832h6.255V9.814H161.11v3.964H168.5v3.084Zm-5.409,0L148.21,10.67l-1.632,1.805v4.387H142.6V.229h3.978V7.563l1.382-2.113L151.519.229h4.919l-5.576,7.358,5.576,9.276Zm-45.85,0V12.978l.385-7.952L102.27,16.862H99.641l-4-11.847.385,7.962v3.884H92.048V.229h5.224L100.956,11.8,104.627.229h5.235V16.862Zm-25.493,0V12.978l.385-7.952L76.776,16.862H74.147l-4-11.847.385,7.962v3.884H66.555V.229h5.224L75.462,11.8,79.133.229h5.235V16.862ZM0,16.862V.229H11.389v3.1H3.978V6.832h6.255V9.814H3.978v3.964h7.388v3.084Zm13.888-6.623V6.584h3.638v3.656Z" transform="translate(87.131 32.909)" fill="none"/>
    <path id="Path_7-3" data-name="Path 7" d="M53.157,15.514A5.645,5.645,0,0,1,51.389,11.2V.229h4V11.276q.069,2.73,2.516,2.731a2.422,2.422,0,0,0,1.869-.686,3.223,3.223,0,0,0,.634-2.227V.229h3.978V11.116a6.3,6.3,0,0,1-.782,3.2,5.079,5.079,0,0,1-2.244,2.062,7.846,7.846,0,0,1-3.456.708A6.793,6.793,0,0,1,53.157,15.514Zm-14.384.6a6.668,6.668,0,0,1-2.544-2.794,9.642,9.642,0,0,1-.958-4.17V8.214A9.963,9.963,0,0,1,36.16,3.9a6.662,6.662,0,0,1,2.55-2.884A7.124,7.124,0,0,1,42.49,0a7.052,7.052,0,0,1,3.739,1.005,6.788,6.788,0,0,1,2.555,2.862,9.668,9.668,0,0,1,.923,4.255v.766a9.927,9.927,0,0,1-.895,4.307,6.694,6.694,0,0,1-2.544,2.885,7.076,7.076,0,0,1-3.757,1.011A7.172,7.172,0,0,1,38.773,16.115Zm.555-8.448-.012,1.222a7.274,7.274,0,0,0,.8,3.758,2.636,2.636,0,0,0,2.391,1.314,2.6,2.6,0,0,0,2.323-1.292,7.072,7.072,0,0,0,.827-3.712V8.191a7.068,7.068,0,0,0-.822-3.764A2.638,2.638,0,0,0,42.49,3.142C40.5,3.142,39.441,4.664,39.328,7.666Zm92.424,9.2h-3.977V.229h6.494a7.231,7.231,0,0,1,4.589,1.314,4.486,4.486,0,0,1,1.655,3.713,5.474,5.474,0,0,1-.7,2.879,4.992,4.992,0,0,1-2.182,1.851l3.445,6.706v.17h-4.261l-2.912-5.872h-2.153v5.872h0Zm0-8.969h2.516a2.265,2.265,0,0,0,1.705-.6,2.337,2.337,0,0,0,.572-1.674,2.363,2.363,0,0,0-.579-1.685,2.237,2.237,0,0,0-1.7-.611h-2.516Zm-16.505,8.969H111L117.051.229h3.74l6.1,16.632-4.271,0-.963-3.107H116.2l-.951,3.107h0Zm1.905-6.2H120.7L118.921,4.89Zm-92.267,6.2H20.91V.229H27.4a7.231,7.231,0,0,1,4.589,1.314,4.486,4.486,0,0,1,1.655,3.713,5.474,5.474,0,0,1-.7,2.879,4.992,4.992,0,0,1-2.182,1.851l3.445,6.706v.17H29.953l-2.912-5.872H24.888v5.872h0Zm0-8.969H27.4a2.265,2.265,0,0,0,1.705-.6,2.337,2.337,0,0,0,.572-1.674A2.363,2.363,0,0,0,29.1,3.936a2.237,2.237,0,0,0-1.7-.611H24.888Zm149.167,8.968V3.325h-4.862V.229h13.792v3.1h-4.952V16.862Zm-16.923,0V.229h11.389v3.1H161.11V6.832h6.255V9.814H161.11v3.964H168.5v3.084Zm-5.409,0L148.21,10.67l-1.632,1.805v4.387H142.6V.229h3.978V7.563l1.382-2.113L151.519.229h4.919l-5.576,7.358,5.576,9.276Zm-45.85,0V12.978l.385-7.952L102.27,16.862H99.641l-4-11.847.385,7.962v3.884H92.048V.229h5.224L100.956,11.8,104.627.229h5.235V16.862Zm-25.493,0V12.978l.385-7.952L76.776,16.862H74.147l-4-11.847.385,7.962v3.884H66.555V.229h5.224L75.462,11.8,79.133.229h5.235V16.862ZM0,16.862V.229H11.389v3.1H3.978V6.832h6.255V9.814H3.978v3.964h7.388v3.084Zm13.888-6.623V6.584h3.638v3.656Z" transform="translate(87.131 32.909)" fill="url(#linear-gradient)"/>
  </g>
  <g id="Path_3" data-name="Path 3" transform="translate(-87.131 -10)" opacity="0.1">
    <path id="Path_3-2" data-name="Path 3" d="M105.414,22.186V19.433h.5a2.59,2.59,0,0,0,1.229-.234,1.416,1.416,0,0,0,.629-.84l.306-.823L103.817,5.061h4.08l1.938,6.97,2.039-6.97h4.091l-5,14.43-.215.526a3.8,3.8,0,0,1-3.763,2.4A5.892,5.892,0,0,1,105.414,22.186Zm-68.857,0V19.433h.5a2.59,2.59,0,0,0,1.229-.234,1.416,1.416,0,0,0,.629-.84l.306-.823L34.96,5.061h4.08l1.938,6.97,2.039-6.97h4.091l-5,14.43-.215.526a3.8,3.8,0,0,1-3.763,2.4A5.892,5.892,0,0,1,36.557,22.186Zm40.036-.012h-3.83v-5.78a3.558,3.558,0,0,1-2.787,1.256,4.136,4.136,0,0,1-3.462-1.7,7.906,7.906,0,0,1-1.286-4.838A7.5,7.5,0,0,1,66.5,6.5,4.176,4.176,0,0,1,70,4.832a3.566,3.566,0,0,1,3.014,1.553l.272-1.325h3.309V22.173h0Zm-7.535-11.5-.012.684c0,2.207.641,3.325,1.9,3.325a1.846,1.846,0,0,0,1.813-1.005V8.785a1.808,1.808,0,0,0-1.79-.982C69.792,7.8,69.148,8.768,69.058,10.671ZM98.85,16.714a3.857,3.857,0,0,1-.94-2.845V7.735H96.345V5.061h1.564V1.988h3.819V5.061h2.017V7.735h-2.017v5.655a1.451,1.451,0,0,0,.249.971,1.329,1.329,0,0,0,.985.274,5.63,5.63,0,0,0,.952-.068V17.32a7.005,7.005,0,0,1-2.153.331A3.978,3.978,0,0,1,98.85,16.714Zm-19.436-.246a5,5,0,0,1-1.037-3.4V5.061H82.2v8.032q0,1.588,1.53,1.589a1.992,1.992,0,0,0,1.869-.949V5.061h3.842V17.422H85.855l-.113-1.337a3.926,3.926,0,0,1-3.275,1.565A3.844,3.844,0,0,1,79.413,16.468Zm-52.968.611a4.7,4.7,0,0,1-1.927-1.553,3.539,3.539,0,0,1-.691-2.068H27.4a1.493,1.493,0,0,0,.567,1.251,2.317,2.317,0,0,0,1.394.394,1.823,1.823,0,0,0,1.173-.319,1.028,1.028,0,0,0,.391-.834.891.891,0,0,0-.509-.788,7.728,7.728,0,0,0-1.939-.617,8.808,8.808,0,0,1-2.357-.84A3.952,3.952,0,0,1,24.7,10.442a3.031,3.031,0,0,1-.488-1.7,3.426,3.426,0,0,1,1.394-2.805,5.712,5.712,0,0,1,3.649-1.1,6.326,6.326,0,0,1,3.9,1.109,3.475,3.475,0,0,1,1.472,2.913H30.8q0-1.485-1.552-1.485a1.529,1.529,0,0,0-1.009.337,1.048,1.048,0,0,0-.408.84.958.958,0,0,0,.5.834,4.7,4.7,0,0,0,1.592.526,13.709,13.709,0,0,1,1.921.491q2.765.96,2.765,3.439a3.244,3.244,0,0,1-1.489,2.753,6.5,6.5,0,0,1-3.859,1.063A6.621,6.621,0,0,1,26.446,17.079Zm-13.3-.486a3.386,3.386,0,0,1-1.212-2.656A3.481,3.481,0,0,1,13.41,10.9a7.5,7.5,0,0,1,4.283-1.027h1.179V9.22c0-1.13-.492-1.7-1.462-1.7a1.2,1.2,0,0,0-1.36,1.348h-3.82a3.481,3.481,0,0,1,1.513-2.913A6.35,6.35,0,0,1,17.6,4.832a5.569,5.569,0,0,1,3.705,1.154A4.045,4.045,0,0,1,22.7,9.15v5.473a5.654,5.654,0,0,0,.521,2.6v.194H19.4a4.362,4.362,0,0,1-.363-1.108A3.556,3.556,0,0,1,16.1,17.651,4.344,4.344,0,0,1,13.149,16.593Zm2.618-2.861a1.108,1.108,0,0,0,.351.851,1.268,1.268,0,0,0,.9.326A2.124,2.124,0,0,0,18.2,14.6a1.922,1.922,0,0,0,.674-.7V11.927H17.762C16.438,11.927,15.767,12.534,15.767,13.732Zm79.474,3.69H91.412V5.061h3.83V17.421h0Zm-41.815,0V.788H64.815v3.1H57.4V7.392H63.66v2.982H57.4v3.964h7.388v3.084ZM0,17.422V.788H11.389v3.1H3.978V7.392h6.255v2.982H3.978v3.964h7.388v3.084Zm91.775-14.2a1.732,1.732,0,0,1-.59-1.348,1.73,1.73,0,0,1,.59-1.348,2.488,2.488,0,0,1,3.059,0,1.732,1.732,0,0,1,.59,1.348,1.735,1.735,0,0,1-.59,1.348,2.488,2.488,0,0,1-3.059,0Z" transform="translate(87.595 10)" fill="none"/>
    <path id="Path_3-3" data-name="Path 3" d="M105.414,22.186V19.433h.5a2.59,2.59,0,0,0,1.229-.234,1.416,1.416,0,0,0,.629-.84l.306-.823L103.817,5.061h4.08l1.938,6.97,2.039-6.97h4.091l-5,14.43-.215.526a3.8,3.8,0,0,1-3.763,2.4A5.892,5.892,0,0,1,105.414,22.186Zm-68.857,0V19.433h.5a2.59,2.59,0,0,0,1.229-.234,1.416,1.416,0,0,0,.629-.84l.306-.823L34.96,5.061h4.08l1.938,6.97,2.039-6.97h4.091l-5,14.43-.215.526a3.8,3.8,0,0,1-3.763,2.4A5.892,5.892,0,0,1,36.557,22.186Zm40.036-.012h-3.83v-5.78a3.558,3.558,0,0,1-2.787,1.256,4.136,4.136,0,0,1-3.462-1.7,7.906,7.906,0,0,1-1.286-4.838A7.5,7.5,0,0,1,66.5,6.5,4.176,4.176,0,0,1,70,4.832a3.566,3.566,0,0,1,3.014,1.553l.272-1.325h3.309V22.173h0Zm-7.535-11.5-.012.684c0,2.207.641,3.325,1.9,3.325a1.846,1.846,0,0,0,1.813-1.005V8.785a1.808,1.808,0,0,0-1.79-.982C69.792,7.8,69.148,8.768,69.058,10.671ZM98.85,16.714a3.857,3.857,0,0,1-.94-2.845V7.735H96.345V5.061h1.564V1.988h3.819V5.061h2.017V7.735h-2.017v5.655a1.451,1.451,0,0,0,.249.971,1.329,1.329,0,0,0,.985.274,5.63,5.63,0,0,0,.952-.068V17.32a7.005,7.005,0,0,1-2.153.331A3.978,3.978,0,0,1,98.85,16.714Zm-19.436-.246a5,5,0,0,1-1.037-3.4V5.061H82.2v8.032q0,1.588,1.53,1.589a1.992,1.992,0,0,0,1.869-.949V5.061h3.842V17.422H85.855l-.113-1.337a3.926,3.926,0,0,1-3.275,1.565A3.844,3.844,0,0,1,79.413,16.468Zm-52.968.611a4.7,4.7,0,0,1-1.927-1.553,3.539,3.539,0,0,1-.691-2.068H27.4a1.493,1.493,0,0,0,.567,1.251,2.317,2.317,0,0,0,1.394.394,1.823,1.823,0,0,0,1.173-.319,1.028,1.028,0,0,0,.391-.834.891.891,0,0,0-.509-.788,7.728,7.728,0,0,0-1.939-.617,8.808,8.808,0,0,1-2.357-.84A3.952,3.952,0,0,1,24.7,10.442a3.031,3.031,0,0,1-.488-1.7,3.426,3.426,0,0,1,1.394-2.805,5.712,5.712,0,0,1,3.649-1.1,6.326,6.326,0,0,1,3.9,1.109,3.475,3.475,0,0,1,1.472,2.913H30.8q0-1.485-1.552-1.485a1.529,1.529,0,0,0-1.009.337,1.048,1.048,0,0,0-.408.84.958.958,0,0,0,.5.834,4.7,4.7,0,0,0,1.592.526,13.709,13.709,0,0,1,1.921.491q2.765.96,2.765,3.439a3.244,3.244,0,0,1-1.489,2.753,6.5,6.5,0,0,1-3.859,1.063A6.621,6.621,0,0,1,26.446,17.079Zm-13.3-.486a3.386,3.386,0,0,1-1.212-2.656A3.481,3.481,0,0,1,13.41,10.9a7.5,7.5,0,0,1,4.283-1.027h1.179V9.22c0-1.13-.492-1.7-1.462-1.7a1.2,1.2,0,0,0-1.36,1.348h-3.82a3.481,3.481,0,0,1,1.513-2.913A6.35,6.35,0,0,1,17.6,4.832a5.569,5.569,0,0,1,3.705,1.154A4.045,4.045,0,0,1,22.7,9.15v5.473a5.654,5.654,0,0,0,.521,2.6v.194H19.4a4.362,4.362,0,0,1-.363-1.108A3.556,3.556,0,0,1,16.1,17.651,4.344,4.344,0,0,1,13.149,16.593Zm2.618-2.861a1.108,1.108,0,0,0,.351.851,1.268,1.268,0,0,0,.9.326A2.124,2.124,0,0,0,18.2,14.6a1.922,1.922,0,0,0,.674-.7V11.927H17.762C16.438,11.927,15.767,12.534,15.767,13.732Zm79.474,3.69H91.412V5.061h3.83V17.421h0Zm-41.815,0V.788H64.815v3.1H57.4V7.392H63.66v2.982H57.4v3.964h7.388v3.084ZM0,17.422V.788H11.389v3.1H3.978V7.392h6.255v2.982H3.978v3.964h7.388v3.084Zm91.775-14.2a1.732,1.732,0,0,1-.59-1.348,1.73,1.73,0,0,1,.59-1.348,2.488,2.488,0,0,1,3.059,0,1.732,1.732,0,0,1,.59,1.348,1.735,1.735,0,0,1-.59,1.348,2.488,2.488,0,0,1-3.059,0Z" transform="translate(87.595 10)" fill="url(#linear-gradient)"/>
  </g>
</svg>
