<svg xmlns="http://www.w3.org/2000/svg" width="48.113" height="55.5" viewBox="0 0 48.113 55.5">
  <g id="Group_26" data-name="Group 26" transform="translate(0.561 0.5)">
    <path id="Fill_57" data-name="Fill 57" d="M1.9,6.341A1.9,1.9,0,0,1,0,4.438V4.4A1.9,1.9,0,0,1,1.9,2.5H5.172V1.638A1.637,1.637,0,0,1,6.81,0h.033A1.638,1.638,0,0,1,8.482,1.638V2.5h1.924V1.638A1.637,1.637,0,0,1,12.044,0h.033a1.638,1.638,0,0,1,1.638,1.638V2.5h1.924V1.638A1.637,1.637,0,0,1,17.277,0h.033a1.638,1.638,0,0,1,1.638,1.638V2.5h1.924V1.638A1.637,1.637,0,0,1,22.511,0h.033a1.638,1.638,0,0,1,1.638,1.638V2.5h1.924V1.638A1.637,1.637,0,0,1,27.744,0h.033a1.637,1.637,0,0,1,1.638,1.638V2.5h3.271a1.9,1.9,0,0,1,1.9,1.9v.038a1.9,1.9,0,0,1-1.9,1.9Z" transform="translate(12.963 48.66)" fill="#333"/>
    <path id="Fill_55" data-name="Fill 55" d="M.084,46.348a3.426,3.426,0,0,1,2.595-4.092l14.706-3.293a5.487,5.487,0,0,1,.929-.108H30.321V35.071l-3.757,2.315a1.96,1.96,0,0,1-2.057-3.336l5.814-3.582V20.051a6.306,6.306,0,0,1,6.306-6.306h.129a6.308,6.308,0,0,1,6.309,6.306V39.364A6.31,6.31,0,0,1,37.722,45.6a3.432,3.432,0,0,1-.859.109H18.621L4.175,48.943A3.424,3.424,0,0,1,.084,46.348ZM30.967,5.722a5.723,5.723,0,1,1,5.724,5.722A5.723,5.723,0,0,1,30.967,5.722Z" fill="none" stroke="#979797" stroke-width="1" stroke-dasharray="2 1"/>
  </g>
</svg>
