<svg xmlns="http://www.w3.org/2000/svg" width="76.817" height="100" viewBox="0 0 76.817 100">
  <path id="Path_8" data-name="Path 8" d="M62.466,99.1s-1.133-2.175-.5-8.163l-1.642.08s-2.16,6.426-4.292,6.207-2.662-2.04-2.868-3.638-.675-10.167,4.91-14.106a1.262,1.262,0,0,1,1.742.476L59.758,41.5l-.735-.245V31.8L22.711,30.509a1.168,1.168,0,0,0,.233.477c.575.529,5.163.17,5.163.17s1.662.567,2.093,1.284a6.674,6.674,0,0,1,.3,2.68l-.769,31.247.328.465V69.2H26.768V66.367l.6-.784L28.107,42.5l-1.339-1.13H25.023L14.315,44.1a21.366,21.366,0,0,0-3.326,3.162L9.69,70.489s1.96-1.409,3.726-.368,2.6,6.557.679,10.268-4.464,3.94-5.206,3.833a4.155,4.155,0,0,1-2.924-2.461,3.427,3.427,0,0,1-2.527.887C1.994,82.484-.373,81.042.049,75.76s5.062-7.994,6.476-6.529L8.614,37.156,9.69,16.032V8.813s2.057-5.387,6.5-5.212,5.677,1.515,5.677,1.515l2.6,1.724.012.028,4.437.2A1.252,1.252,0,0,1,30.1,5.638,86.161,86.161,0,0,1,41.774,5l18.346-.28A7.58,7.58,0,0,1,62.466.421L64.2,0,68,1.257S71.7,4.394,71.774,7.808a109.266,109.266,0,0,1-1.024,11.37l-1.174,4.18s-.769,5.475-.014,7.311h.006l.031.092q.024.064.041.121l.527,1.581a8.012,8.012,0,0,1,3.151.562,4.942,4.942,0,0,1,1.475,2.3l1.315,39.3.71.9v2.6H72.586v-2.6l.46-.9s-.452-28.452-.46-29.086-.807-.409-.807-.409-6.389,3.356-7.165,3.906a6.272,6.272,0,0,0-1.442,2.2l-.01-.016V85.887s2.5-4.366,4.191-4.126,2.4,2.706,2.174,6.228a32.1,32.1,0,0,1-2.945,10.447A3.273,3.273,0,0,1,64.049,100,1.847,1.847,0,0,1,62.466,99.1Zm.7-81.348V47.33l.01-.008,7.163-3.636a13.7,13.7,0,0,1,1.444-.767,1.369,1.369,0,0,1,.807,0s.2-6.193,0-6.736c-.122-.332-1.148-.218-2.06-.1a6.607,6.607,0,0,1-1.339.1,2.437,2.437,0,0,1-1.136-.859s-.512-1.382-.644-1.876-.634-2.548-.665-2.673l-.051-.024s-.967-5.223,0-8.9,2.38-9.309,1.714-11.842a36.794,36.794,0,0,0-1.714-4.894H66.54a1,1,0,0,1,.14.591l-.173,2.273a1,1,0,0,1-1,.924H63.162Zm-51.63,19.8-.314,5.619.84-.668,7.34-1.952,6.25-1.367s1.931.134,2.459.79c0,0,.5-5.681-.112-6-.3-.4-1.659-.337-2.952-.274a9.8,9.8,0,0,1-2.235-.03,4.2,4.2,0,0,1-1.947-1.581L20.1,30.416l-8.265-.293ZM59.023,26.5V17.751h.8L59.77,8.9H25.323l.979,2.369v5.619l-3.829,7.153-.4,1.561s0,.026,0,.074ZM13.129,8.813l-.722,3.311V25.465l7.394.164V24.022l.092-.152,3.336-7.838V11.273L22.3,8.9H15.387a1,1,0,0,1-1-1.069l.017-.25Z" transform="translate(0)" fill="#4191e3"/>
</svg>
