<?xml version="1.0" encoding="UTF-8"?>
<svg width="109px" height="10px" viewBox="0 0 109 10" version="1.1" xmlns="http://www.w3.org/2000/svg" xmlns:xlink="http://www.w3.org/1999/xlink">
    <title>Group</title>
    <g id="혜택" stroke="none" stroke-width="1" fill="none" fill-rule="evenodd">
        <g id="이로움-혜택-수정_12.01" transform="translate(-605.000000, -537.000000)" fill="#FFFFFF" fill-rule="nonzero">
            <g id="Group" transform="translate(605.000000, 537.285714)">
                <path d="M5.86664105,5.57792208 L2.28038871,5.57792208 L2.28038871,7.83116883 L6.51632444,7.83116883 L6.51632444,9.58441558 L0,9.58441558 L0,0.12987013 L6.52931811,0.12987013 L6.52931811,1.88961039 L2.28038871,1.88961039 L2.28038871,3.88311688 L5.86664105,3.88311688 L5.86664105,5.57792208 Z M14.9601589,6.24675325 L13.7257604,6.24675325 L13.7257604,9.58441558 L11.4453717,9.58441558 L11.4453717,0.12987013 L15.1680575,0.12987013 C16.2898442,0.12987013 17.1669168,0.378787879 17.7992753,0.876623377 C18.4316338,1.37445887 18.747813,2.07792208 18.747813,2.98701299 C18.747813,3.64502165 18.6146279,4.19047619 18.3482578,4.62337662 C18.0818876,5.05627706 17.6650074,5.40692641 17.0976172,5.67532468 L19.0726547,9.48701299 L19.0726547,9.58441558 L16.6298452,9.58441558 L14.9601589,6.24675325 Z M13.7257604,4.48701299 L15.1680575,4.48701299 C15.6011798,4.48701299 15.9271043,4.37337662 16.145831,4.1461039 C16.3645578,3.91883117 16.4739212,3.6017316 16.4739212,3.19480519 C16.4739212,2.78787879 16.363475,2.46861472 16.1425826,2.23701299 C15.9216903,2.00541126 15.5968486,1.88961039 15.1680575,1.88961039 L13.7257604,1.88961039 L13.7257604,4.48701299 Z M28.1357381,5.05194805 C28.1357381,5.97402597 27.9646548,6.79004329 27.6224882,7.5 C27.2803216,8.20995671 26.7941419,8.75649351 26.163949,9.13961039 C25.5337561,9.52272727 24.8158559,9.71428571 24.0102485,9.71428571 C23.2046411,9.71428571 22.4899894,9.52922078 21.8662933,9.15909091 C21.2425973,8.78896104 20.7564175,8.25974026 20.4077541,7.57142857 C20.0590907,6.88311688 19.8760965,6.09307359 19.8587716,5.2012987 L19.8587716,4.66883117 C19.8587716,3.74242424 20.0287721,2.92532468 20.3687731,2.21753247 C20.7087741,1.50974026 21.1960366,0.963203463 21.8305607,0.577922078 C22.4650849,0.192640693 23.1873162,5.68434189e-14 23.9972549,5.68434189e-14 C24.798531,5.68434189e-14 25.5131828,0.19047619 26.1412101,0.571428571 C26.7692373,0.952380952 27.2575827,1.49458874 27.6062461,2.19805195 C27.9549095,2.90151515 28.1314069,3.70779221 28.1357381,4.61688312 L28.1357381,5.05194805 Z M25.8163684,4.65584416 C25.8163684,3.71645022 25.6593615,3.00324675 25.3453479,2.51623377 C25.0313343,2.02922078 24.5819699,1.78571429 23.9972549,1.78571429 C22.8538121,1.78571429 22.2496065,2.64285714 22.1846382,4.35714286 L22.1781414,5.05194805 C22.1781414,5.97835498 22.3318998,6.69047619 22.6394166,7.18831169 C22.9469334,7.68614719 23.4038774,7.93506494 24.0102485,7.93506494 C24.5863011,7.93506494 25.0302515,7.69047619 25.3420995,7.2012987 C25.6539475,6.71212121 25.8120371,6.00865801 25.8163684,5.09090909 L25.8163684,4.65584416 Z M36.7310494,0.12987013 L36.7310494,6.31818182 C36.7310494,7.01948052 36.5816222,7.62662338 36.2827678,8.13961039 C35.9839135,8.6525974 35.5551224,9.04329004 34.9963947,9.31168831 C34.437667,9.58008658 33.7771555,9.71428571 33.0148604,9.71428571 C31.8627551,9.71428571 30.955364,9.41558442 30.2926869,8.81818182 C29.6300099,8.22077922 29.2921745,7.4025974 29.2791808,6.36363636 L29.2791808,0.12987013 L31.5725632,0.12987013 L31.5725632,6.40909091 C31.5985506,7.44372294 32.0793163,7.96103896 33.0148604,7.96103896 C33.4869636,7.96103896 33.8442895,7.83116883 34.086838,7.57142857 C34.3293864,7.31168831 34.4506607,6.88961039 34.4506607,6.30519481 L34.4506607,0.12987013 L36.7310494,0.12987013 Z M41.1488965,0.12987013 L43.2603675,6.70779221 L45.3653417,0.12987013 L48.366879,0.12987013 L48.366879,9.58441558 L46.0799934,9.58441558 L46.0799934,7.37662338 L46.3008858,2.85714286 L44.0140002,9.58441558 L42.5067347,9.58441558 L40.2133524,2.85064935 L40.4342447,7.37662338 L40.4342447,9.58441558 L38.153856,9.58441558 L38.153856,0.12987013 L41.1488965,0.12987013 Z M56.8956846,9.58441558 L56.8956846,0.12987013 L60.2935288,0.12987013 C61.5106023,0.12987013 62.4364012,0.352813853 63.0709253,0.798701299 C63.7054494,1.24458874 64.0227115,1.89177489 64.0227115,2.74025974 C64.0227115,3.22943723 63.9100997,3.64718615 63.6848761,3.99350649 C63.4596525,4.33982684 63.128314,4.5952381 62.6908605,4.75974026 C63.1846199,4.88961039 63.5636019,5.13203463 63.8278064,5.48701299 C64.092011,5.84199134 64.2241133,6.27489177 64.2241133,6.78571429 C64.2241133,7.71212121 63.930673,8.40800866 63.3437923,8.87337662 C62.7569117,9.33874459 61.8874187,9.57575758 60.7353135,9.58441558 L56.8956846,9.58441558 Z M59.1760734,5.56493506 L59.1760734,7.83116883 L60.6703452,7.83116883 C61.0818113,7.83116883 61.3979906,7.73701299 61.6188829,7.5487013 C61.8397753,7.36038961 61.9502214,7.0952381 61.9502214,6.75324675 C61.9502214,5.96536797 61.5582458,5.56926407 60.7742945,5.56493506 L59.1760734,5.56493506 Z M59.1760734,4.07142857 L60.364994,4.07142857 C60.8630846,4.06709957 61.2182448,3.97619048 61.4304747,3.7987013 C61.6427046,3.62121212 61.7488196,3.35930736 61.7488196,3.01298701 C61.7488196,2.61471861 61.6340422,2.32792208 61.4044874,2.1525974 C61.1749326,1.97727273 60.8046131,1.88961039 60.2935288,1.88961039 L59.1760734,1.88961039 L59.1760734,4.07142857 Z M71.3446433,5.57792208 L67.758391,5.57792208 L67.758391,7.83116883 L71.9943267,7.83116883 L71.9943267,9.58441558 L65.4780023,9.58441558 L65.4780023,0.12987013 L72.0073204,0.12987013 L72.0073204,1.88961039 L67.758391,1.88961039 L67.758391,3.88311688 L71.3446433,3.88311688 L71.3446433,5.57792208 Z M80.823524,9.58441558 L78.556129,9.58441558 L75.2037627,3.7012987 L75.2037627,9.58441558 L72.923374,9.58441558 L72.923374,0.12987013 L75.2037627,0.12987013 L78.5496322,6.01298701 L78.5496322,0.12987013 L80.823524,0.12987013 L80.823524,9.58441558 Z M88.1324622,5.57792208 L84.5462099,5.57792208 L84.5462099,7.83116883 L88.7821456,7.83116883 L88.7821456,9.58441558 L82.2658212,9.58441558 L82.2658212,0.12987013 L88.7951393,0.12987013 L88.7951393,1.88961039 L84.5462099,1.88961039 L84.5462099,3.88311688 L88.1324622,3.88311688 L88.1324622,5.57792208 Z M95.6687896,5.81818182 L91.9915816,5.81818182 L91.9915816,9.58441558 L89.7111929,9.58441558 L89.7111929,0.12987013 L96.0391091,0.12987013 L96.0391091,1.88961039 L91.9915816,1.88961039 L91.9915816,4.06493506 L95.6687896,4.06493506 L95.6687896,5.81818182 Z M99.4174628,9.58441558 L97.1435709,9.58441558 L97.1435709,0.12987013 L99.4174628,0.12987013 L99.4174628,9.58441558 Z M108.428571,1.88961039 L105.589455,1.88961039 L105.589455,9.58441558 L103.309066,9.58441558 L103.309066,1.88961039 L100.521925,1.88961039 L100.521925,0.12987013 L108.428571,0.12987013 L108.428571,1.88961039 Z M8,4 L10,4 L10,6 L8,6 Z" id="Combined-Shape"></path>
            </g>
        </g>
    </g>
</svg>