<svg xmlns="http://www.w3.org/2000/svg" xmlns:xlink="http://www.w3.org/1999/xlink" width="447" height="41" viewBox="0 0 447 41">
  <defs>
    <linearGradient id="linear-gradient" x1="0.035" y1="0.145" x2="0.966" y2="0.906" gradientUnits="objectBoundingBox">
      <stop offset="0.001" stop-color="#1584b9"/>
      <stop offset="0.292" stop-color="#770dac"/>
      <stop offset="0.545" stop-color="#b80d0d"/>
      <stop offset="0.766" stop-color="#e5a20a"/>
      <stop offset="1" stop-color="#43a800"/>
    </linearGradient>
  </defs>
  <g id="Path_2" data-name="Path 2" transform="translate(-1068 -96)" opacity="0.1">
    <path id="Path_2-2" data-name="Path 2" d="M129.353,37.166q-4.269-3.833-4.352-10.5V0h9.848V26.861q.167,6.638,6.194,6.638a6.008,6.008,0,0,0,4.6-1.667q1.562-1.666,1.562-5.416V0H157V26.473a15.169,15.169,0,0,1-1.924,7.791,12.454,12.454,0,0,1-5.524,5.014A19.531,19.531,0,0,1,141.042,41Q133.621,41,129.353,37.166Zm-34.863,1.49a16.063,16.063,0,0,1-6.168-6.7,22.9,22.9,0,0,1-2.321-10V19.705A23.7,23.7,0,0,1,88.157,9.359a16.045,16.045,0,0,1,6.181-6.92,18.337,18.337,0,0,1,18.229-.027,16.346,16.346,0,0,1,6.195,6.865A23.014,23.014,0,0,1,121,19.486v1.836a23.6,23.6,0,0,1-2.171,10.333,16.093,16.093,0,0,1-6.167,6.92A17.3,17.3,0,0,1,103.555,41,17.526,17.526,0,0,1,94.489,38.657ZM97.957,10.25c-1.271,1.8-1.985,4.539-2.121,8.14l-.028,2.932c0,3.891.656,6.925,1.951,9.017a6.406,6.406,0,0,0,5.8,3.152,6.333,6.333,0,0,0,5.632-3.1c1.312-2.056,1.987-5.053,2.005-8.907V19.651c0-3.947-.671-6.986-1.992-9.031a6.91,6.91,0,0,0-11.244-.37ZM321.566,40H312V0h15.619c4.685,0,8.4,1.063,11.039,3.159a10.081,10.081,0,0,1,2.984,3.812,12.505,12.505,0,0,1,1,5.116,13.162,13.162,0,0,1-1.676,6.923,11.98,11.98,0,0,1-5.247,4.451L344,39.588V40H333.751l-7-14.12h-5.179V40h0Zm0-21.567h6.052a5.442,5.442,0,0,0,4.1-1.442,5.624,5.624,0,0,0,1.376-4.025,5.69,5.69,0,0,0-1.39-4.053,5.39,5.39,0,0,0-4.089-1.47h-6.052ZM281.431,40H271L285.854,0h9.18L310,40H299.513l-2.364-7.472h-13.38L281.432,40h0ZM286.1,25.082h8.707l-4.367-13.873ZM60.566,40H51V0H66.619c4.684,0,8.4,1.063,11.039,3.159a10.081,10.081,0,0,1,2.983,3.812,12.5,12.5,0,0,1,1,5.116,13.162,13.162,0,0,1-1.676,6.923,11.98,11.98,0,0,1-5.247,4.451L83,39.588V40H72.752l-7-14.12h-5.18V40h0Zm0-21.567h6.052a5.442,5.442,0,0,0,4.1-1.442A5.624,5.624,0,0,0,72.1,12.967a5.69,5.69,0,0,0-1.39-4.053,5.39,5.39,0,0,0-4.089-1.47H60.567ZM424.985,40V7.445H413V0h34V7.445H434.791V40ZM384,40V0h28V7.445H393.779v8.434h15.379v7.17H393.779v9.534h18.166V40Zm-13.585,0-8.632-14.89-4.009,4.341V40H348V0h9.774V17.637l3.4-5.082L369.914,0H382L368.3,17.692,382,40ZM258.148,40v-9.34l.951-19.121L249.247,40h-6.493l-9.88-28.489.951,19.148V40H224V0h12.9L246,27.83,255.069,0H268V40Zm-62,0v-9.34l.951-19.121L187.247,40h-6.493l-9.88-28.489.951,19.148V40H162V0h12.9L184,27.83,193.069,0H206V40ZM0,40V0H28V7.445H9.779v8.434H25.159v7.17H9.779v9.534H27.944V40ZM34,24V15h9v9Z" transform="translate(1068 96)" fill="none"/>
    <path id="Path_2-3" data-name="Path 2" d="M129.353,37.166q-4.269-3.833-4.352-10.5V0h9.848V26.861q.167,6.638,6.194,6.638a6.008,6.008,0,0,0,4.6-1.667q1.562-1.666,1.562-5.416V0H157V26.473a15.169,15.169,0,0,1-1.924,7.791,12.454,12.454,0,0,1-5.524,5.014A19.531,19.531,0,0,1,141.042,41Q133.621,41,129.353,37.166Zm-34.863,1.49a16.063,16.063,0,0,1-6.168-6.7,22.9,22.9,0,0,1-2.321-10V19.705A23.7,23.7,0,0,1,88.157,9.359a16.045,16.045,0,0,1,6.181-6.92,18.337,18.337,0,0,1,18.229-.027,16.346,16.346,0,0,1,6.195,6.865A23.014,23.014,0,0,1,121,19.486v1.836a23.6,23.6,0,0,1-2.171,10.333,16.093,16.093,0,0,1-6.167,6.92A17.3,17.3,0,0,1,103.555,41,17.526,17.526,0,0,1,94.489,38.657ZM97.957,10.25c-1.271,1.8-1.985,4.539-2.121,8.14l-.028,2.932c0,3.891.656,6.925,1.951,9.017a6.406,6.406,0,0,0,5.8,3.152,6.333,6.333,0,0,0,5.632-3.1c1.312-2.056,1.987-5.053,2.005-8.907V19.651c0-3.947-.671-6.986-1.992-9.031a6.91,6.91,0,0,0-11.244-.37ZM321.566,40H312V0h15.619c4.685,0,8.4,1.063,11.039,3.159a10.081,10.081,0,0,1,2.984,3.812,12.505,12.505,0,0,1,1,5.116,13.162,13.162,0,0,1-1.676,6.923,11.98,11.98,0,0,1-5.247,4.451L344,39.588V40H333.751l-7-14.12h-5.179V40h0Zm0-21.567h6.052a5.442,5.442,0,0,0,4.1-1.442,5.624,5.624,0,0,0,1.376-4.025,5.69,5.69,0,0,0-1.39-4.053,5.39,5.39,0,0,0-4.089-1.47h-6.052ZM281.431,40H271L285.854,0h9.18L310,40H299.513l-2.364-7.472h-13.38L281.432,40h0ZM286.1,25.082h8.707l-4.367-13.873ZM60.566,40H51V0H66.619c4.684,0,8.4,1.063,11.039,3.159a10.081,10.081,0,0,1,2.983,3.812,12.5,12.5,0,0,1,1,5.116,13.162,13.162,0,0,1-1.676,6.923,11.98,11.98,0,0,1-5.247,4.451L83,39.588V40H72.752l-7-14.12h-5.18V40h0Zm0-21.567h6.052a5.442,5.442,0,0,0,4.1-1.442A5.624,5.624,0,0,0,72.1,12.967a5.69,5.69,0,0,0-1.39-4.053,5.39,5.39,0,0,0-4.089-1.47H60.567ZM424.985,40V7.445H413V0h34V7.445H434.791V40ZM384,40V0h28V7.445H393.779v8.434h15.379v7.17H393.779v9.534h18.166V40Zm-13.585,0-8.632-14.89-4.009,4.341V40H348V0h9.774V17.637l3.4-5.082L369.914,0H382L368.3,17.692,382,40ZM258.148,40v-9.34l.951-19.121L249.247,40h-6.493l-9.88-28.489.951,19.148V40H224V0h12.9L246,27.83,255.069,0H268V40Zm-62,0v-9.34l.951-19.121L187.247,40h-6.493l-9.88-28.489.951,19.148V40H162V0h12.9L184,27.83,193.069,0H206V40ZM0,40V0H28V7.445H9.779v8.434H25.159v7.17H9.779v9.534H27.944V40ZM34,24V15h9v9Z" transform="translate(1068 96)" fill="url(#linear-gradient)"/>
  </g>
</svg>
