<?xml version="1.0" encoding="UTF-8"?>
<svg width="198px" height="16px" viewBox="0 0 198 16" version="1.1" xmlns="http://www.w3.org/2000/svg" xmlns:xlink="http://www.w3.org/1999/xlink">
    <title>Shape 2</title>
    <defs>
        <linearGradient x1="4.76462094%" y1="49.7126166%" x2="94.7266776%" y2="50.2671643%" id="linearGradient-1">
            <stop stop-color="#198D5F" offset="0%"></stop>
            <stop stop-color="#1280CF" offset="20.5598341%"></stop>
            <stop stop-color="#6623EE" offset="54.8176355%"></stop>
            <stop stop-color="#FF0000" offset="100%"></stop>
        </linearGradient>
    </defs>
    <g id="이로움-혜택" stroke="none" stroke-width="1" fill="none" fill-rule="evenodd" opacity="0.2">
        <g id="Artboard" transform="translate(-584.000000, -590.000000)" fill="url(#linearGradient-1)" fill-rule="nonzero">
            <g id="Shape-2" transform="translate(584.056641, 590.894531)">
                <path d="M189.883021,9.84625668 L189.883021,14.7994652 L186.363636,14.7994652 L186.363636,0.200534759 L192.189171,0.200534759 C193.305481,0.200534759 194.293115,0.406082888 195.152072,0.817179144 C196.011029,1.2282754 196.676136,1.81316845 197.147393,2.57185829 C197.61865,3.33054813 197.854278,4.19117647 197.854278,5.15374332 C197.854278,6.57754011 197.344586,7.71557487 196.325201,8.56784759 C195.305816,9.42012032 193.907086,9.84625668 192.129011,9.84625668 L189.883021,9.84625668 Z M189.883021,7.1290107 L192.189171,7.1290107 C192.870989,7.1290107 193.390709,6.95855615 193.748329,6.61764706 C194.105949,6.27673797 194.284759,5.79545455 194.284759,5.17379679 C194.284759,4.49197861 194.100936,3.94719251 193.733289,3.5394385 C193.365642,3.13168449 192.864305,2.92446524 192.229278,2.91778075 L189.883021,2.91778075 L189.883021,7.1290107 Z M9.05414439,8.61296791 L3.51938503,8.61296791 L3.51938503,12.092246 L10.0568182,12.092246 L10.0568182,14.7994652 L0,14.7994652 L0,0.200534759 L10.0768717,0.200534759 L10.0768717,2.91778075 L3.51938503,2.91778075 L3.51938503,5.9959893 L9.05414439,5.9959893 L9.05414439,8.61296791 Z M16.344697,9.64572193 L14.4396168,9.64572193 L14.4396168,14.7994652 L10.9202317,14.7994652 L10.9202317,0.200534759 L16.6655526,0.200534759 C18.396836,0.200534759 19.7504456,0.584893048 20.7263815,1.35360963 C21.7023173,2.1223262 22.1902852,3.20855615 22.1902852,4.61229947 C22.1902852,5.62834225 21.9847371,6.47058824 21.5736408,7.13903743 C21.1625446,7.80748663 20.5191622,8.34893048 19.6434938,8.76336898 L22.6916221,14.6490642 L22.6916221,14.7994652 L18.9215686,14.7994652 L16.344697,9.64572193 Z M14.4396168,6.92847594 L16.6655526,6.92847594 C17.3340018,6.92847594 17.8370098,6.75300802 18.1745766,6.40207219 C18.5121435,6.05113636 18.6809269,5.56149733 18.6809269,4.93315508 C18.6809269,4.30481283 18.5104724,3.81183155 18.1695633,3.45421123 C17.8286542,3.09659091 17.3273173,2.91778075 16.6655526,2.91778075 L14.4396168,2.91778075 L14.4396168,6.92847594 Z M36.1085116,7.80080214 C36.1085116,9.22459893 35.8444742,10.4846257 35.3163993,11.5808824 C34.7883244,12.677139 34.0379902,13.5210561 33.0653966,14.1126337 C32.092803,14.7042112 30.9848485,15 29.741533,15 C28.4982175,15 27.3952763,14.714238 26.4327094,14.1427139 C25.4701426,13.5711898 24.7198084,12.7540107 24.1817068,11.6911765 C23.6436052,10.6283422 23.3611854,9.40842246 23.3344474,8.03141711 L23.3344474,7.2092246 C23.3344474,5.77874332 23.5968137,4.51704545 24.1215463,3.42413102 C24.646279,2.33121658 25.3982843,1.48729947 26.3775624,0.892379679 C27.3568405,0.297459893 28.4714795,0 29.7214795,0 C30.9581105,0 32.0610517,0.294117647 33.030303,0.882352941 C33.9995544,1.47058824 34.7532308,2.30782086 35.2913324,3.3940508 C35.829434,4.48028075 36.1018271,5.72526738 36.1085116,7.1290107 L36.1085116,7.80080214 Z M32.5289661,7.18917112 C32.5289661,5.73863636 32.2866533,4.63736631 31.8020276,3.88536096 C31.317402,3.13335561 30.6238859,2.75735294 29.7214795,2.75735294 C27.9567736,2.75735294 27.024287,4.08088235 26.9240196,6.72794118 L26.9139929,7.80080214 C26.9139929,9.23128342 27.1512923,10.3308824 27.6258913,11.0995989 C28.1004902,11.8683155 28.8057041,12.2526738 29.741533,12.2526738 C30.6305704,12.2526738 31.3157308,11.875 31.7970143,11.1196524 C32.2782977,10.3643048 32.5222816,9.27807487 32.5289661,7.86096257 L32.5289661,7.18917112 Z M48.8034759,0.200534759 L48.8034759,9.75601604 C48.8034759,10.8389037 48.572861,11.7764037 48.111631,12.568516 C47.6504011,13.3606283 46.9886364,13.9639037 46.1263369,14.3783422 C45.2640374,14.7927807 44.2446524,15 43.0681818,15 C41.290107,15 39.8897059,14.5387701 38.8669786,13.6163102 C37.8442513,12.6938503 37.322861,11.4304813 37.3028075,9.82620321 L37.3028075,0.200534759 L40.842246,0.200534759 L40.842246,9.89639037 C40.8823529,11.493984 41.6243316,12.2927807 43.0681818,12.2927807 C43.7967914,12.2927807 44.348262,12.092246 44.7225936,11.6911765 C45.0969251,11.290107 45.2840909,10.638369 45.2840909,9.73596257 L45.2840909,0.200534759 L48.8034759,0.200534759 Z M55.0512478,0.200534759 L58.3099376,10.3576203 L61.5586007,0.200534759 L66.1909537,0.200534759 L66.1909537,14.7994652 L62.6615419,14.7994652 L62.6615419,11.3903743 L63.002451,4.41176471 L59.4730392,14.7994652 L57.146836,14.7994652 L53.6073975,4.40173797 L53.9483066,11.3903743 L53.9483066,14.7994652 L50.4289216,14.7994652 L50.4289216,0.200534759 L55.0512478,0.200534759 Z M77.0220588,0.200534759 L80.2807487,10.3576203 L83.5294118,0.200534759 L88.1617647,0.200534759 L88.1617647,14.7994652 L84.6323529,14.7994652 L84.6323529,11.3903743 L84.973262,4.41176471 L81.4438503,14.7994652 L79.1176471,14.7994652 L75.5782086,4.40173797 L75.9191176,11.3903743 L75.9191176,14.7994652 L72.3997326,14.7994652 L72.3997326,0.200534759 L77.0220588,0.200534759 Z M98.8814617,8.61296791 L93.3467023,8.61296791 L93.3467023,12.092246 L99.8841355,12.092246 L99.8841355,14.7994652 L89.8273173,14.7994652 L89.8273173,0.200534759 L99.9041889,0.200534759 L99.9041889,2.91778075 L93.3467023,2.91778075 L93.3467023,5.9959893 L98.8814617,5.9959893 L98.8814617,8.61296791 Z M105.369875,0.200534759 L108.628565,10.3576203 L111.877228,0.200534759 L116.509581,0.200534759 L116.509581,14.7994652 L112.980169,14.7994652 L112.980169,11.3903743 L113.321078,4.41176471 L109.791667,14.7994652 L107.465463,14.7994652 L103.926025,4.40173797 L104.266934,11.3903743 L104.266934,14.7994652 L100.747549,14.7994652 L100.747549,0.200534759 L105.369875,0.200534759 Z M118.175134,14.7994652 L118.175134,0.200534759 L123.419118,0.200534759 C125.29746,0.200534759 126.72627,0.544786096 127.705548,1.23328877 C128.684826,1.92179144 129.174465,2.92112299 129.174465,4.23128342 C129.174465,4.98663102 129.000668,5.63168449 128.653075,6.16644385 C128.305481,6.70120321 127.794118,7.09558824 127.118984,7.34959893 C127.881016,7.55013369 128.465909,7.92446524 128.873663,8.47259358 C129.281417,9.02072193 129.485294,9.68917112 129.485294,10.4779412 C129.485294,11.9084225 129.03242,12.9829545 128.126671,13.7015374 C127.220922,14.4201203 125.879011,14.7860963 124.100936,14.7994652 L118.175134,14.7994652 Z M121.694519,8.59291444 L121.694519,12.092246 L124.000668,12.092246 C124.635695,12.092246 125.123663,11.9468583 125.464572,11.6560829 C125.805481,11.3653075 125.975936,10.9558824 125.975936,10.4278075 C125.975936,9.21122995 125.370989,8.59959893 124.161096,8.59291444 L121.694519,8.59291444 Z M121.694519,6.28676471 L123.529412,6.28676471 C124.298128,6.28008021 124.846257,6.13970588 125.173797,5.86564171 C125.501337,5.59157754 125.665107,5.18716578 125.665107,4.65240642 C125.665107,4.03743316 125.487968,3.59458556 125.13369,3.32386364 C124.779412,3.05314171 124.207888,2.91778075 123.419118,2.91778075 L121.694519,2.91778075 L121.694519,6.28676471 Z M139.904189,8.61296791 L134.36943,8.61296791 L134.36943,12.092246 L140.906863,12.092246 L140.906863,14.7994652 L130.850045,14.7994652 L130.850045,0.200534759 L140.926916,0.200534759 L140.926916,2.91778075 L134.36943,2.91778075 L134.36943,5.9959893 L139.904189,5.9959893 L139.904189,8.61296791 Z M147.194742,9.64572193 L145.289661,9.64572193 L145.289661,14.7994652 L141.770276,14.7994652 L141.770276,0.200534759 L147.515597,0.200534759 C149.246881,0.200534759 150.60049,0.584893048 151.576426,1.35360963 C152.552362,2.1223262 153.04033,3.20855615 153.04033,4.61229947 C153.04033,5.62834225 152.834782,6.47058824 152.423685,7.13903743 C152.012589,7.80748663 151.369207,8.34893048 150.493538,8.76336898 L153.541667,14.6490642 L153.541667,14.7994652 L149.771613,14.7994652 L147.194742,9.64572193 Z M145.289661,6.92847594 L147.515597,6.92847594 C148.184046,6.92847594 148.687054,6.75300802 149.024621,6.40207219 C149.362188,6.05113636 149.530971,5.56149733 149.530971,4.93315508 C149.530971,4.30481283 149.360517,3.81183155 149.019608,3.45421123 C148.678699,3.09659091 148.177362,2.91778075 147.515597,2.91778075 L145.289661,2.91778075 L145.289661,6.92847594 Z M162.125668,10.9191176 C162.125668,10.4044118 161.943516,10.0033422 161.579211,9.71590909 C161.214906,9.42847594 160.574866,9.13101604 159.659091,8.82352941 C158.743316,8.51604278 157.994652,8.21858289 157.413102,7.93114973 C155.52139,7.00200535 154.575535,5.72526738 154.575535,4.10093583 C154.575535,3.2921123 154.811163,2.57854278 155.28242,1.96022727 C155.753676,1.34191176 156.420455,0.860628342 157.282754,0.516377005 C158.145053,0.172125668 159.114305,0 160.190508,0 C161.239973,0 162.180816,0.187165775 163.013035,0.561497326 C163.845254,0.935828877 164.491979,1.46891711 164.953209,2.16076203 C165.414439,2.85260695 165.645053,3.64304813 165.645053,4.53208556 L162.135695,4.53208556 C162.135695,3.93716578 161.953543,3.47593583 161.589238,3.14839572 C161.224933,2.82085561 160.731952,2.65708556 160.110294,2.65708556 C159.481952,2.65708556 158.985628,2.79578877 158.621324,3.07319519 C158.257019,3.3506016 158.074866,3.70320856 158.074866,4.13101604 C158.074866,4.50534759 158.275401,4.84458556 158.676471,5.14872995 C159.07754,5.45287433 159.782754,5.76704545 160.792112,6.09124332 C161.801471,6.41544118 162.630348,6.76470588 163.278743,7.13903743 C164.856283,8.04812834 165.645053,9.30147059 165.645053,10.8990642 C165.645053,12.1758021 165.16377,13.1784759 164.201203,13.9070856 C163.238636,14.6356952 161.918449,15 160.240642,15 C159.057487,15 157.986297,14.7877674 157.027072,14.3633021 C156.067848,13.9388369 155.345922,13.3572861 154.861297,12.6186497 C154.376671,11.8800134 154.134358,11.0294118 154.134358,10.0668449 L157.66377,10.0668449 C157.66377,10.8489305 157.865976,11.4254679 158.270388,11.7964572 C158.674799,12.1674465 159.331551,12.3529412 160.240642,12.3529412 C160.822193,12.3529412 161.281751,12.227607 161.619318,11.9769385 C161.956885,11.7262701 162.125668,11.3736631 162.125668,10.9191176 Z M179.081996,14.7994652 L175.582665,14.7994652 L175.582665,8.70320856 L170.398841,8.70320856 L170.398841,14.7994652 L166.879456,14.7994652 L166.879456,0.200534759 L170.398841,0.200534759 L170.398841,5.9959893 L175.582665,5.9959893 L175.582665,0.200534759 L179.081996,0.200534759 L179.081996,14.7994652 Z M184.487522,14.7994652 L180.978164,14.7994652 L180.978164,0.200534759 L184.487522,0.200534759 L184.487522,14.7994652 Z" id="Shape"></path>
            </g>
        </g>
    </g>
</svg>