<svg xmlns="http://www.w3.org/2000/svg" width="343.25" height="25" viewBox="0 0 343.25 25">
  <g id="Path_7" data-name="Path 7" transform="translate(-1872.5 1085.931)">
    <path id="Path_7-2" data-name="Path 7" d="M118.53,24.746V21.675h.561a2.932,2.932,0,0,0,1.382-.262,1.584,1.584,0,0,0,.707-.936l.344-.918L116.734,5.645h4.587l2.179,7.772,2.293-7.772h4.6l-5.62,16.093-.242.587A4.268,4.268,0,0,1,120.3,25,6.734,6.734,0,0,1,118.53,24.746Zm-77.424,0V21.675h.561a2.932,2.932,0,0,0,1.382-.262,1.584,1.584,0,0,0,.707-.936l.344-.918L39.309,5.645H43.9l2.179,7.772,2.293-7.772h4.6l-5.62,16.093-.242.587A4.268,4.268,0,0,1,42.877,25,6.734,6.734,0,0,1,41.106,24.746Zm45.016-.013H81.816V18.285a4.017,4.017,0,0,1-3.135,1.4,4.664,4.664,0,0,1-3.893-1.892,8.782,8.782,0,0,1-1.446-5.4A8.316,8.316,0,0,1,74.77,7.25a4.705,4.705,0,0,1,3.937-1.86A4.017,4.017,0,0,1,82.1,7.123L82.4,5.645h3.721V24.732h0ZM77.649,11.9l-.013.764c0,2.461.72,3.708,2.141,3.708a2.08,2.08,0,0,0,2.038-1.121V9.8A2.036,2.036,0,0,0,79.8,8.7C78.476,8.7,77.752,9.779,77.649,11.9Zm119.62,6.026a6.273,6.273,0,0,1-1.988-4.817V.879h4.5V13.2q.077,3.044,2.829,3.045a2.739,2.739,0,0,0,2.1-.764A3.572,3.572,0,0,0,205.424,13V.879H209.9V13.022a6.976,6.976,0,0,1-.879,3.575,5.692,5.692,0,0,1-2.523,2.3,8.889,8.889,0,0,1-3.886.79A7.675,7.675,0,0,1,197.269,17.928ZM181.1,18.6a7.468,7.468,0,0,1-2.861-3.116,10.692,10.692,0,0,1-1.076-4.651V9.787a11.04,11.04,0,0,1,1-4.811,7.455,7.455,0,0,1,2.867-3.217,8.06,8.06,0,0,1,4.25-1.134,7.976,7.976,0,0,1,4.2,1.121,7.582,7.582,0,0,1,2.873,3.191,10.712,10.712,0,0,1,1.039,4.747v.854a11,11,0,0,1-1.006,4.8,7.47,7.47,0,0,1-2.861,3.218,8,8,0,0,1-4.224,1.128A8.113,8.113,0,0,1,181.1,18.6Zm.625-9.423-.014,1.363a8.063,8.063,0,0,0,.905,4.192A2.971,2.971,0,0,0,185.3,16.2a2.935,2.935,0,0,0,2.612-1.44,7.842,7.842,0,0,0,.931-4.141V9.76a7.827,7.827,0,0,0-.924-4.2,2.974,2.974,0,0,0-2.643-1.434C183.042,4.128,181.846,5.826,181.72,9.175Zm-70.572,9.467a4.284,4.284,0,0,1-1.057-3.173V8.627h-1.759V5.645h1.759V2.217h4.294V5.645h2.268V8.627h-2.268v6.307a1.606,1.606,0,0,0,.281,1.083,1.5,1.5,0,0,0,1.108.306,6.273,6.273,0,0,0,1.071-.076v3.071a7.919,7.919,0,0,1-2.421.37A4.5,4.5,0,0,1,111.148,18.642Zm-21.855-.274a5.55,5.55,0,0,1-1.166-3.791V5.645h4.294V14.6a1.543,1.543,0,0,0,1.72,1.771,2.244,2.244,0,0,0,2.1-1.058V5.645h4.32V19.432H96.538l-.128-1.491a4.427,4.427,0,0,1-3.682,1.746A4.346,4.346,0,0,1,89.294,18.368Zm-59.558.681a5.284,5.284,0,0,1-2.166-1.733,3.924,3.924,0,0,1-.778-2.307h4.014a1.659,1.659,0,0,0,.637,1.4,2.617,2.617,0,0,0,1.567.44,2.056,2.056,0,0,0,1.319-.357,1.139,1.139,0,0,0,.44-.93.991.991,0,0,0-.573-.879,8.729,8.729,0,0,0-2.179-.688,9.947,9.947,0,0,1-2.651-.936,4.443,4.443,0,0,1-1.593-1.409,3.358,3.358,0,0,1-.548-1.9A3.811,3.811,0,0,1,28.793,6.62,6.454,6.454,0,0,1,32.9,5.39a7.155,7.155,0,0,1,4.383,1.236,3.866,3.866,0,0,1,1.657,3.249H34.628q0-1.656-1.745-1.656a1.734,1.734,0,0,0-1.135.375,1.167,1.167,0,0,0-.458.937,1.068,1.068,0,0,0,.561.931,5.3,5.3,0,0,0,1.79.586,15.475,15.475,0,0,1,2.16.548q3.109,1.071,3.109,3.835A3.609,3.609,0,0,1,37.234,18.5,7.345,7.345,0,0,1,32.9,19.687,7.494,7.494,0,0,1,29.736,19.049Zm-14.951-.541a3.772,3.772,0,0,1-1.363-2.963,3.869,3.869,0,0,1,1.657-3.389,8.467,8.467,0,0,1,4.816-1.147H21.22v-.726c0-1.26-.553-1.9-1.644-1.9a1.344,1.344,0,0,0-1.529,1.5H13.753a3.871,3.871,0,0,1,1.7-3.25A7.172,7.172,0,0,1,19.793,5.39,6.3,6.3,0,0,1,23.96,6.677a4.494,4.494,0,0,1,1.567,3.53v6.1a6.286,6.286,0,0,0,.586,2.905v.217H21.819a4.822,4.822,0,0,1-.408-1.236,4.011,4.011,0,0,1-3.313,1.49A4.916,4.916,0,0,1,14.785,18.509Zm2.943-3.192a1.239,1.239,0,0,0,.4.95,1.439,1.439,0,0,0,1.007.363,2.4,2.4,0,0,0,1.331-.344,2.172,2.172,0,0,0,.759-.778V13.3H19.971C18.482,13.3,17.728,13.98,17.728,15.316Zm267.914,4.117h-4.471V.879h7.3a8.183,8.183,0,0,1,5.161,1.465,4.988,4.988,0,0,1,1.86,4.141A6.071,6.071,0,0,1,294.71,9.7a5.6,5.6,0,0,1-2.453,2.065l3.874,7.48v.19h-4.791l-3.275-6.549h-2.421v6.549h0Zm0-10h2.829a2.554,2.554,0,0,0,1.918-.669,2.591,2.591,0,0,0,.644-1.867,2.624,2.624,0,0,0-.65-1.88,2.53,2.53,0,0,0-1.912-.681h-2.829Zm-18.557,10h-4.777l6.8-18.553h4.2l6.854,18.551-4.8,0-1.084-3.466h-6.129l-1.07,3.466h0Zm2.142-6.92h3.988l-2-6.435ZM165.48,19.433h-4.471V.879h7.3a8.183,8.183,0,0,1,5.161,1.465,4.988,4.988,0,0,1,1.86,4.141,6.062,6.062,0,0,1-.783,3.211,5.59,5.59,0,0,1-2.453,2.065l3.874,7.48v.19h-4.791L167.9,12.883h-2.421v6.549h0Zm0-10h2.829a2.554,2.554,0,0,0,1.918-.669,2.591,2.591,0,0,0,.644-1.867,2.62,2.62,0,0,0-.65-1.88,2.53,2.53,0,0,0-1.912-.681h-2.829Zm167.729,10V4.333h-5.467V.879H343.25V4.333h-5.568v15.1Zm-19.029,0V.879h12.806V4.333h-8.333V8.244h7.033v3.325h-7.033v4.422h8.308v3.441Zm-6.082,0-3.95-6.907-1.834,2.013v4.893h-4.473V.879h4.473v8.18L303.869,6.7l4-5.823h5.53L307.13,9.085,313.4,19.432Zm-51.554,0V15.1l.433-8.869-4.485,13.2h-2.956l-4.5-13.214.434,8.881v4.333H241V.879h5.874l4.141,12.908L255.144.879h5.887V19.432Zm-28.665,0V15.1l.433-8.869-4.486,13.2h-2.956l-4.5-13.214.433,8.881v4.333h-4.472V.879h5.874l4.141,12.908L226.478.879h5.887V19.432Zm-90.382,0V.879H150.3V4.333h-8.333V8.244H149v3.325h-7.033v4.422h8.308v3.441Zm-30.406,0h-4.307V5.645h4.307V19.431h0Zm-47.018,0V.879H72.88V4.333H64.547V8.244h7.034v3.325H64.547v4.422h8.307v3.441ZM0,19.432V.879H12.806V4.333H4.472V8.244h7.034v3.325H4.472v4.422H12.78v3.441Zm153.115-7.387V7.968h4.09v4.077ZM103.193,3.594a1.926,1.926,0,0,1-.662-1.5,1.923,1.923,0,0,1,.662-1.5,2.819,2.819,0,0,1,3.441,0,1.926,1.926,0,0,1,.662,1.5,1.928,1.928,0,0,1-.662,1.5,2.819,2.819,0,0,1-3.441,0Z" transform="translate(1872.5 -1085.931)" fill="none"/>
    <path id="Path_7-3" data-name="Path 7" d="M118.53,24.746V21.675h.561a2.932,2.932,0,0,0,1.382-.262,1.584,1.584,0,0,0,.707-.936l.344-.918L116.734,5.645h4.587l2.179,7.772,2.293-7.772h4.6l-5.62,16.093-.242.587A4.268,4.268,0,0,1,120.3,25,6.734,6.734,0,0,1,118.53,24.746Zm-77.424,0V21.675h.561a2.932,2.932,0,0,0,1.382-.262,1.584,1.584,0,0,0,.707-.936l.344-.918L39.309,5.645H43.9l2.179,7.772,2.293-7.772h4.6l-5.62,16.093-.242.587A4.268,4.268,0,0,1,42.877,25,6.734,6.734,0,0,1,41.106,24.746Zm45.016-.013H81.816V18.285a4.017,4.017,0,0,1-3.135,1.4,4.664,4.664,0,0,1-3.893-1.892,8.782,8.782,0,0,1-1.446-5.4A8.316,8.316,0,0,1,74.77,7.25a4.705,4.705,0,0,1,3.937-1.86A4.017,4.017,0,0,1,82.1,7.123L82.4,5.645h3.721V24.732h0ZM77.649,11.9l-.013.764c0,2.461.72,3.708,2.141,3.708a2.08,2.08,0,0,0,2.038-1.121V9.8A2.036,2.036,0,0,0,79.8,8.7C78.476,8.7,77.752,9.779,77.649,11.9Zm119.62,6.026a6.273,6.273,0,0,1-1.988-4.817V.879h4.5V13.2q.077,3.044,2.829,3.045a2.739,2.739,0,0,0,2.1-.764A3.572,3.572,0,0,0,205.424,13V.879H209.9V13.022a6.976,6.976,0,0,1-.879,3.575,5.692,5.692,0,0,1-2.523,2.3,8.889,8.889,0,0,1-3.886.79A7.675,7.675,0,0,1,197.269,17.928ZM181.1,18.6a7.468,7.468,0,0,1-2.861-3.116,10.692,10.692,0,0,1-1.076-4.651V9.787a11.04,11.04,0,0,1,1-4.811,7.455,7.455,0,0,1,2.867-3.217,8.06,8.06,0,0,1,4.25-1.134,7.976,7.976,0,0,1,4.2,1.121,7.582,7.582,0,0,1,2.873,3.191,10.712,10.712,0,0,1,1.039,4.747v.854a11,11,0,0,1-1.006,4.8,7.47,7.47,0,0,1-2.861,3.218,8,8,0,0,1-4.224,1.128A8.113,8.113,0,0,1,181.1,18.6Zm.625-9.423-.014,1.363a8.063,8.063,0,0,0,.905,4.192A2.971,2.971,0,0,0,185.3,16.2a2.935,2.935,0,0,0,2.612-1.44,7.842,7.842,0,0,0,.931-4.141V9.76a7.827,7.827,0,0,0-.924-4.2,2.974,2.974,0,0,0-2.643-1.434C183.042,4.128,181.846,5.826,181.72,9.175Zm-70.572,9.467a4.284,4.284,0,0,1-1.057-3.173V8.627h-1.759V5.645h1.759V2.217h4.294V5.645h2.268V8.627h-2.268v6.307a1.606,1.606,0,0,0,.281,1.083,1.5,1.5,0,0,0,1.108.306,6.273,6.273,0,0,0,1.071-.076v3.071a7.919,7.919,0,0,1-2.421.37A4.5,4.5,0,0,1,111.148,18.642Zm-21.855-.274a5.55,5.55,0,0,1-1.166-3.791V5.645h4.294V14.6a1.543,1.543,0,0,0,1.72,1.771,2.244,2.244,0,0,0,2.1-1.058V5.645h4.32V19.432H96.538l-.128-1.491a4.427,4.427,0,0,1-3.682,1.746A4.346,4.346,0,0,1,89.294,18.368Zm-59.558.681a5.284,5.284,0,0,1-2.166-1.733,3.924,3.924,0,0,1-.778-2.307h4.014a1.659,1.659,0,0,0,.637,1.4,2.617,2.617,0,0,0,1.567.44,2.056,2.056,0,0,0,1.319-.357,1.139,1.139,0,0,0,.44-.93.991.991,0,0,0-.573-.879,8.729,8.729,0,0,0-2.179-.688,9.947,9.947,0,0,1-2.651-.936,4.443,4.443,0,0,1-1.593-1.409,3.358,3.358,0,0,1-.548-1.9A3.811,3.811,0,0,1,28.793,6.62,6.454,6.454,0,0,1,32.9,5.39a7.155,7.155,0,0,1,4.383,1.236,3.866,3.866,0,0,1,1.657,3.249H34.628q0-1.656-1.745-1.656a1.734,1.734,0,0,0-1.135.375,1.167,1.167,0,0,0-.458.937,1.068,1.068,0,0,0,.561.931,5.3,5.3,0,0,0,1.79.586,15.475,15.475,0,0,1,2.16.548q3.109,1.071,3.109,3.835A3.609,3.609,0,0,1,37.234,18.5,7.345,7.345,0,0,1,32.9,19.687,7.494,7.494,0,0,1,29.736,19.049Zm-14.951-.541a3.772,3.772,0,0,1-1.363-2.963,3.869,3.869,0,0,1,1.657-3.389,8.467,8.467,0,0,1,4.816-1.147H21.22v-.726c0-1.26-.553-1.9-1.644-1.9a1.344,1.344,0,0,0-1.529,1.5H13.753a3.871,3.871,0,0,1,1.7-3.25A7.172,7.172,0,0,1,19.793,5.39,6.3,6.3,0,0,1,23.96,6.677a4.494,4.494,0,0,1,1.567,3.53v6.1a6.286,6.286,0,0,0,.586,2.905v.217H21.819a4.822,4.822,0,0,1-.408-1.236,4.011,4.011,0,0,1-3.313,1.49A4.916,4.916,0,0,1,14.785,18.509Zm2.943-3.192a1.239,1.239,0,0,0,.4.95,1.439,1.439,0,0,0,1.007.363,2.4,2.4,0,0,0,1.331-.344,2.172,2.172,0,0,0,.759-.778V13.3H19.971C18.482,13.3,17.728,13.98,17.728,15.316Zm267.914,4.117h-4.471V.879h7.3a8.183,8.183,0,0,1,5.161,1.465,4.988,4.988,0,0,1,1.86,4.141A6.071,6.071,0,0,1,294.71,9.7a5.6,5.6,0,0,1-2.453,2.065l3.874,7.48v.19h-4.791l-3.275-6.549h-2.421v6.549h0Zm0-10h2.829a2.554,2.554,0,0,0,1.918-.669,2.591,2.591,0,0,0,.644-1.867,2.624,2.624,0,0,0-.65-1.88,2.53,2.53,0,0,0-1.912-.681h-2.829Zm-18.557,10h-4.777l6.8-18.553h4.2l6.854,18.551-4.8,0-1.084-3.466h-6.129l-1.07,3.466h0Zm2.142-6.92h3.988l-2-6.435ZM165.48,19.433h-4.471V.879h7.3a8.183,8.183,0,0,1,5.161,1.465,4.988,4.988,0,0,1,1.86,4.141,6.062,6.062,0,0,1-.783,3.211,5.59,5.59,0,0,1-2.453,2.065l3.874,7.48v.19h-4.791L167.9,12.883h-2.421v6.549h0Zm0-10h2.829a2.554,2.554,0,0,0,1.918-.669,2.591,2.591,0,0,0,.644-1.867,2.62,2.62,0,0,0-.65-1.88,2.53,2.53,0,0,0-1.912-.681h-2.829Zm167.729,10V4.333h-5.467V.879H343.25V4.333h-5.568v15.1Zm-19.029,0V.879h12.806V4.333h-8.333V8.244h7.033v3.325h-7.033v4.422h8.308v3.441Zm-6.082,0-3.95-6.907-1.834,2.013v4.893h-4.473V.879h4.473v8.18L303.869,6.7l4-5.823h5.53L307.13,9.085,313.4,19.432Zm-51.554,0V15.1l.433-8.869-4.485,13.2h-2.956l-4.5-13.214.434,8.881v4.333H241V.879h5.874l4.141,12.908L255.144.879h5.887V19.432Zm-28.665,0V15.1l.433-8.869-4.486,13.2h-2.956l-4.5-13.214.433,8.881v4.333h-4.472V.879h5.874l4.141,12.908L226.478.879h5.887V19.432Zm-90.382,0V.879H150.3V4.333h-8.333V8.244H149v3.325h-7.033v4.422h8.308v3.441Zm-30.406,0h-4.307V5.645h4.307V19.431h0Zm-47.018,0V.879H72.88V4.333H64.547V8.244h7.034v3.325H64.547v4.422h8.307v3.441ZM0,19.432V.879H12.806V4.333H4.472V8.244h7.034v3.325H4.472v4.422H12.78v3.441Zm153.115-7.387V7.968h4.09v4.077ZM103.193,3.594a1.926,1.926,0,0,1-.662-1.5,1.923,1.923,0,0,1,.662-1.5,2.819,2.819,0,0,1,3.441,0,1.926,1.926,0,0,1,.662,1.5,1.928,1.928,0,0,1-.662,1.5,2.819,2.819,0,0,1-3.441,0Z" transform="translate(1872.5 -1085.931)" fill="#fff"/>
  </g>
</svg>
