<?xml version="1.0" encoding="UTF-8"?>
<svg width="531px" height="67px" viewBox="0 0 531 67" version="1.1" xmlns="http://www.w3.org/2000/svg" xmlns:xlink="http://www.w3.org/1999/xlink">
    <title>이로움ON에 가입하시고 평생 다양한</title>
    <defs>
        <linearGradient x1="-9.91916435%" y1="49.03179%" x2="100%" y2="50.7886413%" id="linearGradient-1">
            <stop stop-color="#FFC617" offset="0.0300480769%"></stop>
            <stop stop-color="#FF131A" offset="41.6615712%"></stop>
            <stop stop-color="#8433D5" offset="100%"></stop>
        </linearGradient>
    </defs>
    <g id="혜택" stroke="none" stroke-width="1" fill="none" fill-rule="evenodd">
        <g id="이로움-혜택-수정_12.01" transform="translate(-628.000000, -601.000000)" fill="url(#linearGradient-1)" fill-rule="nonzero">
            <g id="이로움ON에-가입하시고-평생-다양한" transform="translate(628.620000, 601.130000)">
                <path d="M523.17,55.04 L523.17,60.83 L529.74,60.83 L529.74,62.3 L503.52,62.3 L503.52,60.83 L510.09,60.83 L510.09,55.04 L511.77,55.04 L511.77,60.83 L521.49,60.83 L521.49,55.04 L523.17,55.04 Z M524.91,47.36 C524.91,48.44 524.7,49.43 524.28,50.33 C523.86,51.26 523.26,52.04 522.54,52.7 C521.79,53.39 520.92,53.93 519.93,54.29 C518.91,54.68 517.8,54.86 516.63,54.86 C515.43,54.86 514.35,54.68 513.36,54.29 C512.34,53.93 511.47,53.39 510.75,52.73 C510,52.07 509.43,51.29 509.01,50.36 C508.59,49.46 508.38,48.44 508.38,47.36 C508.38,46.28 508.59,45.29 509.01,44.36 C509.43,43.46 510,42.65 510.75,41.96 C511.47,41.3 512.34,40.76 513.36,40.37 C514.35,40.01 515.43,39.8 516.63,39.8 C517.83,39.8 518.94,40.01 519.96,40.37 C520.95,40.76 521.82,41.3 522.57,41.96 C523.29,42.65 523.86,43.46 524.28,44.36 C524.7,45.29 524.91,46.28 524.91,47.36 Z M523.23,47.36 C523.23,46.49 523.05,45.68 522.72,44.93 C522.36,44.21 521.91,43.55 521.34,43.01 C520.74,42.47 520.02,42.05 519.24,41.72 C518.43,41.42 517.56,41.27 516.63,41.27 C515.73,41.27 514.86,41.42 514.08,41.72 C513.27,42.02 512.58,42.44 512.01,42.98 C511.41,43.52 510.93,44.18 510.6,44.9 C510.24,45.65 510.06,46.46 510.06,47.36 C510.06,48.26 510.21,49.07 510.57,49.79 C510.9,50.54 511.38,51.17 511.98,51.68 C512.58,52.22 513.27,52.64 514.08,52.94 C514.86,53.24 515.73,53.39 516.63,53.39 C517.56,53.39 518.43,53.24 519.27,52.94 C520.05,52.64 520.77,52.22 521.37,51.68 C521.94,51.14 522.39,50.51 522.75,49.76 C523.05,49.04 523.23,48.23 523.23,47.36 Z M22.77,28.23 L19.17,28.23 L19.17,0.03 L22.77,0.03 L22.77,28.23 Z M15.84,10.77 C15.84,11.91 15.63,12.96 15.24,13.92 C14.82,14.94 14.28,15.81 13.59,16.53 C12.87,17.31 12.03,17.91 11.07,18.33 C10.11,18.78 9.06,18.99 7.92,18.99 C6.78,18.99 5.73,18.78 4.77,18.33 C3.78,17.91 2.94,17.31 2.25,16.53 C1.53,15.81 0.99,14.94 0.6,13.92 C0.18,12.96 1.13686838e-13,11.91 1.13686838e-13,10.77 C1.13686838e-13,9.63 0.18,8.58 0.6,7.56 C0.99,6.57 1.56,5.7 2.28,4.92 C2.97,4.2 3.81,3.6 4.8,3.15 C5.76,2.73 6.78,2.49 7.92,2.49 C9.03,2.49 10.08,2.73 11.04,3.15 C12,3.6 12.84,4.2 13.56,4.92 C14.25,5.7 14.82,6.57 15.24,7.56 C15.63,8.58 15.84,9.63 15.84,10.77 Z M12.24,10.77 C12.24,10.05 12.12,9.36 11.91,8.7 C11.67,8.1 11.37,7.56 11.01,7.08 C10.59,6.66 10.14,6.3 9.63,6.03 C9.09,5.79 8.55,5.67 7.95,5.67 C7.35,5.67 6.78,5.79 6.27,6.03 C5.73,6.3 5.25,6.66 4.89,7.08 C4.47,7.56 4.17,8.1 3.96,8.7 C3.72,9.36 3.6,10.05 3.6,10.77 C3.6,11.49 3.69,12.15 3.93,12.75 C4.11,13.38 4.41,13.92 4.83,14.34 C5.19,14.82 5.67,15.18 6.21,15.42 C6.72,15.69 7.29,15.81 7.95,15.81 C8.55,15.81 9.12,15.69 9.66,15.42 C10.17,15.18 10.62,14.82 11.01,14.34 C11.37,13.92 11.67,13.38 11.91,12.75 C12.12,12.15 12.24,11.49 12.24,10.77 Z M50.43,11.25 L35.43,11.25 L35.43,14.49 L50.79,14.49 L50.79,17.43 L42.93,17.43 L42.93,21.63 L54.24,21.63 L54.24,24.81 L28.02,24.81 L28.02,21.63 L39.36,21.63 L39.36,17.43 L31.83,17.43 L31.83,8.31 L46.83,8.31 L46.83,5.16 L31.83,5.16 L31.83,2.22 L50.43,2.22 L50.43,11.25 Z M60.78,27.63 L60.78,17.85 L67.83,17.85 L67.83,15.75 L56.28,15.75 L56.28,12.57 L82.98,12.57 L82.98,15.75 L71.43,15.75 L71.43,17.85 L78.48,17.85 L78.48,27.63 L60.78,27.63 Z M77.46,5.79 C77.46,6.63 77.25,7.38 76.89,8.07 C76.5,8.79 75.96,9.42 75.27,9.9 C74.55,10.44 73.74,10.83 72.78,11.1 C71.79,11.4 70.71,11.55 69.57,11.55 C68.43,11.55 67.41,11.43 66.48,11.13 C65.52,10.86 64.68,10.47 63.99,9.96 C63.27,9.48 62.73,8.85 62.34,8.13 C61.92,7.44 61.74,6.66 61.74,5.79 C61.74,4.92 61.92,4.11 62.34,3.39 C62.73,2.7 63.27,2.1 63.99,1.56 C64.68,1.08 65.52,0.69 66.48,0.39 C67.41,0.15 68.43,0 69.57,0 C70.71,0 71.79,0.15 72.78,0.42 C73.74,0.72 74.55,1.14 75.27,1.62 C75.93,2.16 76.47,2.76 76.89,3.45 C77.25,4.17 77.46,4.95 77.46,5.79 Z M74.88,21.03 L64.35,21.03 L64.35,24.42 L74.88,24.42 L74.88,21.03 Z M73.86,5.79 C73.86,5.4 73.74,5.04 73.53,4.68 C73.29,4.38 72.99,4.08 72.63,3.84 C72.24,3.63 71.79,3.45 71.28,3.3 C70.74,3.18 70.17,3.12 69.57,3.12 C68.97,3.12 68.43,3.18 67.95,3.3 C67.41,3.42 66.96,3.6 66.6,3.81 C66.21,4.05 65.91,4.35 65.7,4.65 C65.46,5.01 65.34,5.37 65.34,5.79 C65.34,6.21 65.46,6.6 65.7,6.9 C65.91,7.23 66.21,7.5 66.63,7.71 C66.99,7.95 67.44,8.13 67.98,8.25 C68.46,8.37 69,8.43 69.57,8.43 C70.17,8.43 70.74,8.37 71.28,8.22 C71.79,8.1 72.24,7.92 72.63,7.68 C72.99,7.47 73.29,7.2 73.53,6.87 C73.74,6.57 73.86,6.21 73.86,5.79 Z M96.54,25.11 C94.92,25.11 93.42,24.78 92.07,24.12 C90.69,23.46 89.49,22.59 88.53,21.45 C87.51,20.34 86.73,19.05 86.19,17.55 C85.62,16.08 85.35,14.52 85.35,12.87 C85.35,11.28 85.62,9.75 86.16,8.25 C86.7,6.81 87.45,5.52 88.44,4.38 C89.4,3.27 90.6,2.37 91.98,1.68 C93.33,1.02 94.86,0.69 96.54,0.69 C98.1,0.69 99.57,1.02 100.95,1.65 C102.3,2.31 103.47,3.18 104.49,4.26 C105.48,5.4 106.26,6.69 106.86,8.16 C107.43,9.66 107.73,11.22 107.73,12.87 C107.73,14.43 107.46,15.96 106.92,17.4 C106.38,18.9 105.6,20.19 104.64,21.33 C103.62,22.47 102.45,23.4 101.1,24.06 C99.72,24.78 98.19,25.11 96.54,25.11 Z M96.54,3.54 C95.43,3.54 94.41,3.78 93.48,4.23 C92.52,4.71 91.68,5.37 90.99,6.21 C90.27,7.05 89.7,8.04 89.31,9.18 C88.89,10.32 88.68,11.55 88.68,12.87 C88.68,14.19 88.89,15.42 89.31,16.56 C89.7,17.7 90.27,18.69 90.99,19.53 C91.68,20.37 92.52,21.03 93.48,21.51 C94.41,21.99 95.43,22.23 96.54,22.23 C97.62,22.23 98.61,21.99 99.57,21.51 C100.5,21.03 101.34,20.37 102.06,19.53 C102.75,18.69 103.32,17.7 103.74,16.56 C104.13,15.42 104.34,14.19 104.34,12.87 C104.34,11.55 104.13,10.32 103.74,9.18 C103.32,8.04 102.75,7.05 102.06,6.21 C101.34,5.37 100.5,4.71 99.57,4.23 C98.61,3.78 97.62,3.54 96.54,3.54 Z M126.33,24.81 C124.29,21.96 122.28,19.11 120.3,16.29 C118.29,13.47 116.28,10.65 114.27,7.77 L114.27,24.81 L110.76,24.81 L110.76,0.84 L113.19,0.84 L125.07,17.58 L125.07,0.84 L128.58,0.84 L128.58,24.81 L126.33,24.81 Z M150.36,27.33 L148.71,27.33 L148.71,11.19 L145.8,11.19 C145.74,12.15 145.53,13.05 145.17,13.86 C144.78,14.7 144.3,15.42 143.7,16.02 C143.07,16.62 142.35,17.1 141.54,17.43 C140.7,17.79 139.83,17.94 138.93,17.94 C137.94,17.94 137.04,17.76 136.2,17.37 C135.33,17.01 134.58,16.5 133.98,15.84 C133.35,15.18 132.87,14.4 132.54,13.5 C132.18,12.63 132,11.67 132,10.62 C132,9.57 132.18,8.58 132.54,7.68 C132.87,6.78 133.35,6 133.98,5.34 C134.58,4.68 135.33,4.17 136.2,3.78 C137.04,3.42 137.94,3.24 138.93,3.24 C139.83,3.24 140.67,3.42 141.48,3.72 C142.26,4.05 142.95,4.5 143.58,5.04 C144.18,5.64 144.69,6.3 145.11,7.08 C145.47,7.89 145.71,8.76 145.8,9.69 L148.71,9.69 L148.71,0.33 L150.36,0.33 L150.36,27.33 Z M144.18,10.62 C144.18,9.78 144.03,9 143.79,8.28 C143.49,7.56 143.13,6.93 142.68,6.39 C142.2,5.88 141.63,5.46 141,5.16 C140.34,4.89 139.68,4.74 138.96,4.74 C138.21,4.74 137.52,4.89 136.89,5.19 C136.23,5.49 135.66,5.91 135.18,6.42 C134.7,6.96 134.31,7.56 134.07,8.28 C133.77,9 133.65,9.78 133.65,10.62 C133.65,11.43 133.77,12.18 134.07,12.87 C134.31,13.59 134.7,14.22 135.18,14.73 C135.66,15.27 136.2,15.69 136.86,15.99 C137.49,16.32 138.18,16.47 138.96,16.47 C139.68,16.47 140.37,16.32 141.03,15.99 C141.63,15.69 142.2,15.3 142.68,14.76 C143.13,14.25 143.49,13.62 143.79,12.9 C144.03,12.21 144.18,11.46 144.18,10.62 Z M155.82,28.23 L154.17,28.23 L154.17,0.03 L155.82,0.03 L155.82,28.23 Z M193.8,12.57 L193.8,28.23 L192.12,28.23 L192.12,0.03 L193.8,0.03 L193.8,11.1 L198.9,11.1 L198.9,12.57 L193.8,12.57 Z M172.98,18.78 C174.48,18.24 175.95,17.46 177.33,16.5 C178.68,15.57 179.91,14.46 180.99,13.2 C182.04,11.94 182.91,10.56 183.6,9.03 C184.26,7.53 184.65,5.91 184.77,4.17 L173.97,4.17 L173.97,2.7 L186.63,2.7 C186.63,4.83 186.3,6.81 185.64,8.61 C184.95,10.47 184.05,12.12 182.94,13.56 C181.8,15.06 180.48,16.32 178.98,17.4 C177.48,18.48 175.89,19.35 174.24,19.95 L172.98,18.78 Z M223.8,14.43 L222.12,14.43 L222.12,0.03 L223.8,0.03 L223.8,14.43 Z M206.76,27.63 L206.76,16.68 L208.44,16.68 L208.44,20.34 L222.12,20.34 L222.12,16.68 L223.8,16.68 L223.8,27.63 L206.76,27.63 Z M222.12,21.78 L208.44,21.78 L208.44,26.19 L222.12,26.19 L222.12,21.78 Z M216.12,7.38 C216.12,8.34 215.94,9.21 215.61,9.99 C215.25,10.8 214.8,11.49 214.2,12.03 C213.6,12.6 212.88,13.02 212.07,13.32 C211.23,13.65 210.36,13.8 209.4,13.8 C208.44,13.8 207.54,13.65 206.73,13.35 C205.89,13.05 205.2,12.63 204.6,12.06 C203.97,11.52 203.49,10.83 203.16,10.02 C202.8,9.24 202.65,8.37 202.65,7.38 C202.65,6.42 202.8,5.55 203.16,4.74 C203.49,3.96 203.97,3.3 204.6,2.73 C205.2,2.19 205.89,1.74 206.73,1.44 C207.54,1.14 208.44,0.99 209.4,0.99 C210.36,0.99 211.23,1.14 212.07,1.44 C212.88,1.77 213.6,2.22 214.2,2.76 C214.8,3.33 215.25,3.99 215.61,4.77 C215.94,5.55 216.12,6.42 216.12,7.38 Z M214.44,7.38 C214.44,6.66 214.29,5.97 214.05,5.37 C213.78,4.77 213.42,4.26 213,3.81 C212.52,3.39 212.01,3.06 211.41,2.82 C210.78,2.61 210.12,2.49 209.43,2.49 C208.71,2.49 208.05,2.61 207.45,2.82 C206.82,3.06 206.28,3.39 205.83,3.81 C205.35,4.23 204.99,4.74 204.75,5.34 C204.45,5.97 204.33,6.66 204.33,7.38 C204.33,8.16 204.45,8.82 204.72,9.42 C204.96,10.02 205.32,10.53 205.8,10.95 C206.22,11.4 206.76,11.73 207.42,11.94 C208.02,12.18 208.71,12.3 209.43,12.3 C210.15,12.3 210.81,12.18 211.44,11.94 C212.04,11.73 212.55,11.4 213.03,10.95 C213.45,10.53 213.81,10.02 214.08,9.39 C214.32,8.79 214.44,8.13 214.44,7.38 Z M229.47,5.79 L229.47,4.32 L236.49,4.32 L236.49,0.3 L238.17,0.3 L238.17,4.32 L245.22,4.32 L245.22,5.79 L229.47,5.79 Z M244.02,14.64 C244.02,15.6 243.84,16.47 243.51,17.25 C243.15,18.03 242.7,18.72 242.13,19.26 C241.53,19.83 240.81,20.25 240,20.55 C239.16,20.88 238.29,21.03 237.33,21.03 C236.37,21.03 235.47,20.88 234.66,20.55 C233.82,20.25 233.13,19.83 232.53,19.26 C231.93,18.72 231.45,18.06 231.12,17.25 C230.76,16.47 230.61,15.6 230.61,14.64 C230.61,13.68 230.79,12.81 231.15,12 C231.48,11.22 231.96,10.56 232.56,9.99 C233.16,9.45 233.85,9.03 234.69,8.73 C235.5,8.43 236.37,8.28 237.33,8.28 C238.26,8.28 239.13,8.43 239.97,8.73 C240.78,9.03 241.5,9.48 242.1,10.02 C242.7,10.59 243.15,11.25 243.51,12.03 C243.84,12.81 244.02,13.68 244.02,14.64 Z M242.34,14.64 C242.34,13.92 242.19,13.23 241.95,12.63 C241.68,12.03 241.32,11.52 240.9,11.07 C240.42,10.65 239.91,10.32 239.31,10.08 C238.68,9.87 238.02,9.75 237.33,9.75 C236.61,9.75 235.92,9.87 235.32,10.08 C234.69,10.32 234.15,10.65 233.73,11.07 C233.25,11.52 232.92,12.03 232.68,12.63 C232.41,13.23 232.29,13.92 232.29,14.64 C232.29,15.42 232.41,16.08 232.68,16.68 C232.92,17.28 233.25,17.79 233.73,18.21 C234.15,18.63 234.69,18.96 235.32,19.17 C235.92,19.41 236.61,19.53 237.33,19.53 C238.05,19.53 238.71,19.41 239.34,19.17 C239.94,18.96 240.45,18.63 240.93,18.21 C241.35,17.79 241.71,17.28 241.98,16.68 C242.22,16.08 242.34,15.42 242.34,14.64 Z M250.8,12.57 L250.8,28.23 L249.12,28.23 L249.12,0.03 L250.8,0.03 L250.8,11.1 L255.66,11.1 L255.66,12.57 L250.8,12.57 Z M274.92,18.96 C274.71,19.17 274.5,19.35 274.32,19.53 C274.11,19.71 273.9,19.92 273.72,20.1 C272.94,19.62 272.22,19.02 271.53,18.33 C270.81,17.67 270.12,16.95 269.52,16.14 C268.86,15.36 268.32,14.52 267.84,13.62 C267.33,12.75 266.94,11.82 266.64,10.86 C266.34,11.85 265.98,12.81 265.5,13.71 C265.02,14.64 264.45,15.51 263.85,16.32 C263.22,17.16 262.56,17.91 261.84,18.57 C261.12,19.29 260.37,19.89 259.62,20.4 C259.41,20.22 259.2,20.01 259.02,19.8 C258.81,19.62 258.6,19.44 258.42,19.26 C259.5,18.54 260.49,17.64 261.39,16.62 C262.29,15.63 263.07,14.55 263.73,13.41 C264.36,12.27 264.87,11.1 265.23,9.84 C265.59,8.61 265.77,7.38 265.77,6.18 L265.77,2.1 L267.54,2.1 L267.54,6.18 C267.54,7.5 267.72,8.79 268.14,10.05 C268.53,11.31 269.07,12.51 269.76,13.59 C270.42,14.73 271.23,15.75 272.13,16.65 C273,17.58 273.93,18.36 274.92,18.96 Z M280.5,28.23 L278.82,28.23 L278.82,0.03 L280.5,0.03 L280.5,28.23 Z M308.01,2.67 C308.01,7.8 307.68,12.66 307.02,17.22 L305.4,17.04 C305.7,14.76 305.94,12.54 306.12,10.38 C306.24,8.25 306.33,6.18 306.33,4.17 L290.37,4.17 L290.37,2.67 L308.01,2.67 Z M298.32,13.35 L298.32,22.83 L312.12,22.83 L312.12,24.3 L286.02,24.3 L286.02,22.83 L296.64,22.83 L296.64,13.35 L298.32,13.35 Z M22.77,60.02 C22.77,61.01 22.56,61.91 22.17,62.69 C21.75,63.47 21.21,64.16 20.55,64.76 C19.83,65.3 19.02,65.75 18.09,66.08 C17.13,66.38 16.14,66.53 15.09,66.53 C14.04,66.53 13.05,66.38 12.15,66.08 C11.22,65.78 10.41,65.33 9.75,64.79 C9.03,64.22 8.49,63.53 8.1,62.72 C7.68,61.94 7.5,61.04 7.5,60.02 C7.5,59 7.68,58.1 8.1,57.26 C8.49,56.45 9.03,55.76 9.75,55.19 C10.41,54.65 11.22,54.2 12.15,53.9 C13.05,53.6 14.04,53.45 15.09,53.45 C16.14,53.45 17.13,53.6 18.09,53.9 C18.99,54.23 19.8,54.68 20.52,55.22 C21.21,55.82 21.75,56.51 22.17,57.29 C22.56,58.13 22.77,59.03 22.77,60.02 Z M19.17,60.02 C19.17,59.51 19.05,59.03 18.87,58.61 C18.63,58.22 18.36,57.86 18,57.56 C17.64,57.29 17.19,57.08 16.71,56.9 C16.2,56.75 15.66,56.66 15.12,56.66 C14.55,56.66 14.04,56.75 13.56,56.9 C13.05,57.08 12.63,57.29 12.27,57.56 C11.88,57.86 11.58,58.22 11.4,58.64 C11.16,59.06 11.07,59.54 11.07,60.02 C11.07,60.56 11.16,61.01 11.4,61.4 C11.61,61.82 11.91,62.15 12.3,62.45 C12.66,62.75 13.08,62.93 13.59,63.11 C14.07,63.23 14.58,63.32 15.12,63.32 C15.66,63.32 16.2,63.23 16.71,63.11 C17.19,62.93 17.61,62.75 18,62.45 C18.36,62.15 18.63,61.82 18.87,61.4 C19.05,61.01 19.17,60.56 19.17,60.02 Z M0.33,52.76 L0.33,49.67 L3.21,49.67 C3.15,48.59 3.12,47.54 3.09,46.46 C3.03,45.41 2.97,44.33 2.94,43.25 L6.27,43.25 L6.54,49.64 C7.11,49.64 7.68,49.61 8.25,49.58 C8.79,49.58 9.3,49.55 9.84,49.49 C9.87,48.44 9.93,47.39 9.99,46.34 C10.02,45.32 10.05,44.27 10.11,43.19 L13.44,43.19 C13.38,44.21 13.35,45.23 13.32,46.22 C13.26,47.24 13.2,48.23 13.17,49.22 C13.8,49.16 14.43,49.07 15.06,48.98 C15.66,48.92 16.29,48.83 16.89,48.71 C16.95,49.25 17.01,49.76 17.07,50.24 C17.1,50.75 17.13,51.26 17.19,51.77 C13.23,52.43 8.58,52.76 3.24,52.76 L0.33,52.76 Z M0.69,42.2 L0.69,39.14 L15.75,39.14 L15.75,42.2 L0.69,42.2 Z M19.62,44.51 L15.87,44.51 L15.87,41.57 L19.62,41.57 L19.62,38.03 L23.22,38.03 L23.22,53.03 L19.62,53.03 L19.62,49.31 L15.87,49.31 L15.87,46.37 L19.62,46.37 L19.62,44.51 Z M51.27,60.02 C51.27,61.01 51.06,61.91 50.67,62.69 C50.25,63.47 49.71,64.16 49.05,64.76 C48.33,65.3 47.52,65.75 46.59,66.08 C45.63,66.38 44.64,66.53 43.59,66.53 C42.54,66.53 41.55,66.38 40.65,66.08 C39.72,65.78 38.91,65.33 38.25,64.79 C37.53,64.22 36.99,63.53 36.6,62.72 C36.18,61.94 36,61.04 36,60.02 C36,59 36.18,58.1 36.6,57.26 C36.99,56.45 37.53,55.76 38.25,55.19 C38.91,54.65 39.72,54.2 40.65,53.9 C41.55,53.6 42.54,53.45 43.59,53.45 C44.64,53.45 45.63,53.6 46.59,53.9 C47.49,54.23 48.3,54.68 49.02,55.22 C49.71,55.82 50.25,56.51 50.67,57.29 C51.06,58.13 51.27,59.03 51.27,60.02 Z M47.67,60.02 C47.67,59.51 47.55,59.03 47.37,58.61 C47.13,58.22 46.86,57.86 46.5,57.56 C46.14,57.29 45.69,57.08 45.21,56.9 C44.7,56.75 44.16,56.66 43.62,56.66 C43.05,56.66 42.54,56.75 42.06,56.9 C41.55,57.08 41.13,57.29 40.77,57.56 C40.38,57.86 40.08,58.22 39.9,58.64 C39.66,59.06 39.57,59.54 39.57,60.02 C39.57,60.56 39.66,61.01 39.9,61.4 C40.11,61.82 40.41,62.15 40.8,62.45 C41.16,62.75 41.58,62.93 42.09,63.11 C42.57,63.23 43.08,63.32 43.62,63.32 C44.16,63.32 44.7,63.23 45.21,63.11 C45.69,62.93 46.11,62.75 46.5,62.45 C46.86,62.15 47.13,61.82 47.37,61.4 C47.55,61.01 47.67,60.56 47.67,60.02 Z M46.74,51.83 L43.38,51.83 L43.38,38.33 L46.74,38.33 L46.74,43.64 L48.99,43.64 L48.99,38.03 L52.32,38.03 L52.32,53.03 L48.99,53.03 L48.99,46.82 L46.74,46.82 L46.74,51.83 Z M37.08,41.36 C37.08,43.04 37.53,44.6 38.43,46.01 C39.3,47.45 40.68,48.74 42.54,49.94 C42.12,50.36 41.73,50.75 41.34,51.11 C40.92,51.53 40.5,51.92 40.11,52.31 C38.97,51.59 38.01,50.81 37.23,49.97 C36.39,49.16 35.79,48.26 35.4,47.27 C34.98,48.35 34.38,49.37 33.54,50.3 C32.67,51.26 31.65,52.13 30.45,52.91 C30.03,52.52 29.64,52.13 29.25,51.71 C28.83,51.35 28.41,50.96 28.02,50.54 C30,49.19 31.41,47.75 32.31,46.25 C33.15,44.75 33.6,43.13 33.6,41.36 L33.6,38.69 L37.08,38.69 L37.08,41.36 Z M90.57,51.44 L90.57,66.23 L87,66.23 L87,38.03 L90.57,38.03 L90.57,48.26 L95.07,48.26 L95.07,51.44 L90.57,51.44 Z M73.92,54.68 C75.63,54.68 77.43,54.62 79.29,54.44 C81.15,54.29 83.1,54.05 85.14,53.72 L85.44,56.9 C81.3,57.56 76.26,57.89 70.32,57.89 L70.32,40.49 L83.49,40.49 L83.49,43.67 L73.92,43.67 L73.92,54.68 Z M119.13,60.02 C119.13,61.01 118.92,61.91 118.53,62.69 C118.11,63.47 117.57,64.16 116.91,64.76 C116.19,65.3 115.38,65.75 114.45,66.08 C113.49,66.38 112.5,66.53 111.45,66.53 C110.4,66.53 109.41,66.38 108.51,66.08 C107.55,65.78 106.74,65.33 106.08,64.79 C105.36,64.19 104.82,63.5 104.43,62.72 C104.01,61.94 103.83,61.04 103.83,60.02 C103.83,59 104.01,58.1 104.43,57.26 C104.82,56.48 105.36,55.79 106.08,55.19 C106.74,54.65 107.55,54.2 108.51,53.9 C109.41,53.6 110.4,53.45 111.45,53.45 C112.5,53.45 113.49,53.6 114.45,53.9 C115.35,54.23 116.16,54.68 116.88,55.22 C117.57,55.82 118.11,56.51 118.53,57.29 C118.92,58.13 119.13,59.03 119.13,60.02 Z M112.47,45.38 C112.47,46.37 112.29,47.27 111.93,48.08 C111.54,48.92 111.03,49.64 110.4,50.24 C109.74,50.87 108.99,51.35 108.15,51.68 C107.25,52.04 106.32,52.19 105.36,52.19 C104.34,52.19 103.41,52.04 102.57,51.68 C101.7,51.35 100.95,50.87 100.32,50.27 C99.66,49.67 99.15,48.95 98.79,48.11 C98.4,47.3 98.22,46.4 98.22,45.38 C98.22,44.42 98.4,43.49 98.79,42.65 C99.15,41.84 99.66,41.12 100.32,40.52 C100.95,39.92 101.7,39.47 102.57,39.11 C103.41,38.78 104.34,38.6 105.36,38.6 C106.32,38.6 107.25,38.78 108.15,39.11 C108.99,39.47 109.74,39.95 110.4,40.55 C111.03,41.15 111.54,41.87 111.93,42.68 C112.29,43.52 112.47,44.42 112.47,45.38 Z M115.53,60.02 C115.53,59.54 115.41,59.06 115.23,58.64 C114.99,58.25 114.72,57.89 114.36,57.59 C113.97,57.29 113.55,57.08 113.07,56.9 C112.56,56.75 112.02,56.66 111.48,56.66 C110.91,56.66 110.4,56.75 109.92,56.9 C109.41,57.08 108.99,57.29 108.63,57.56 C108.24,57.86 107.94,58.22 107.76,58.61 C107.52,59.03 107.43,59.51 107.43,60.02 C107.43,60.56 107.52,61.01 107.76,61.4 C107.94,61.82 108.24,62.18 108.63,62.45 C108.99,62.75 109.41,62.93 109.92,63.11 C110.4,63.23 110.91,63.32 111.48,63.32 C112.02,63.32 112.56,63.23 113.07,63.08 C113.55,62.9 113.97,62.72 114.36,62.42 C114.72,62.15 114.99,61.79 115.23,61.37 C115.41,60.98 115.53,60.53 115.53,60.02 Z M108.9,45.38 C108.9,44.87 108.81,44.39 108.63,43.94 C108.42,43.52 108.15,43.13 107.85,42.8 C107.52,42.5 107.16,42.23 106.74,42.05 C106.32,41.87 105.87,41.78 105.39,41.78 C104.88,41.78 104.4,41.87 103.98,42.05 C103.53,42.23 103.14,42.5 102.84,42.8 C102.51,43.13 102.27,43.52 102.09,43.94 C101.91,44.39 101.82,44.87 101.82,45.38 C101.82,45.92 101.91,46.43 102.09,46.85 C102.27,47.3 102.51,47.69 102.84,47.99 C103.14,48.32 103.53,48.56 103.98,48.74 C104.4,48.92 104.85,49.01 105.39,49.01 C105.87,49.01 106.32,48.92 106.74,48.74 C107.16,48.56 107.52,48.32 107.85,47.99 C108.15,47.69 108.42,47.3 108.63,46.85 C108.81,46.43 108.9,45.92 108.9,45.38 Z M119.37,49.43 L119.37,52.91 L115.77,52.91 L115.77,38.03 L119.37,38.03 L119.37,40.88 L123.57,40.88 L123.57,43.82 L119.37,43.82 L119.37,46.49 L123.57,46.49 L123.57,49.43 L119.37,49.43 Z M147.87,48.59 L147.87,56.99 L144.3,56.99 L144.3,38.03 L147.87,38.03 L147.87,45.41 L152.04,45.41 L152.04,48.59 L147.87,48.59 Z M148.08,65.48 L130.59,65.48 L130.59,57.08 L134.16,57.08 L134.16,62.3 L148.08,62.3 L148.08,65.48 Z M126.03,42.92 L126.03,40.22 L132.12,40.22 L132.12,38.03 L135.72,38.03 L135.72,40.22 L141.84,40.22 L141.84,42.92 L126.03,42.92 Z M140.28,49.22 C140.28,50.12 140.1,50.9 139.77,51.56 C139.41,52.25 138.96,52.82 138.39,53.27 C137.79,53.75 137.1,54.11 136.35,54.35 C135.57,54.62 134.76,54.77 133.92,54.77 C133.08,54.77 132.3,54.65 131.58,54.41 C130.8,54.17 130.14,53.81 129.57,53.33 C128.97,52.88 128.52,52.31 128.16,51.59 C127.8,50.93 127.59,50.12 127.59,49.22 C127.59,48.38 127.74,47.6 128.1,46.88 C128.43,46.22 128.88,45.62 129.48,45.14 C130.05,44.66 130.71,44.3 131.49,44.03 C132.24,43.79 133.05,43.64 133.92,43.61 C134.73,43.61 135.51,43.73 136.29,43.97 C137.01,44.24 137.7,44.6 138.3,45.05 C138.87,45.53 139.35,46.13 139.71,46.82 C140.07,47.54 140.25,48.32 140.28,49.22 Z M136.68,49.22 C136.68,48.38 136.41,47.72 135.93,47.24 C135.42,46.79 134.76,46.55 133.92,46.55 C133.08,46.55 132.39,46.79 131.91,47.24 C131.4,47.72 131.16,48.38 131.16,49.22 C131.16,50.03 131.4,50.66 131.91,51.11 C132.39,51.59 133.08,51.83 133.92,51.83 C134.76,51.83 135.42,51.59 135.93,51.11 C136.41,50.66 136.68,50.03 136.68,49.22 Z M179.49,52.34 C179.49,53.24 179.34,54.05 179.07,54.8 C178.77,55.58 178.35,56.24 177.81,56.81 C177.27,57.41 176.61,57.86 175.86,58.16 C175.08,58.52 174.24,58.67 173.34,58.67 C172.38,58.67 171.54,58.52 170.82,58.16 C170.04,57.86 169.41,57.41 168.87,56.81 C168.33,56.27 167.91,55.58 167.64,54.8 C167.34,54.05 167.19,53.24 167.19,52.34 C167.19,51.44 167.34,50.6 167.64,49.82 C167.91,49.04 168.33,48.38 168.87,47.78 C169.38,47.21 170.01,46.76 170.79,46.4 C171.54,46.1 172.38,45.92 173.34,45.92 C174.27,45.92 175.11,46.1 175.89,46.43 C176.64,46.79 177.3,47.24 177.84,47.81 C178.35,48.41 178.77,49.07 179.07,49.85 C179.34,50.63 179.49,51.47 179.49,52.34 Z M176.01,52.34 C176.01,51.98 175.95,51.59 175.83,51.17 C175.71,50.81 175.53,50.45 175.32,50.15 C175.08,49.85 174.81,49.61 174.48,49.4 C174.12,49.22 173.7,49.13 173.28,49.13 C172.86,49.13 172.47,49.22 172.17,49.4 C171.81,49.61 171.54,49.85 171.33,50.15 C171.09,50.45 170.94,50.81 170.85,51.17 C170.73,51.56 170.67,51.95 170.67,52.34 C170.67,52.73 170.73,53.12 170.85,53.48 C170.94,53.87 171.09,54.2 171.33,54.5 C171.54,54.8 171.81,55.04 172.17,55.22 C172.47,55.4 172.86,55.49 173.28,55.49 C173.7,55.49 174.09,55.4 174.45,55.19 C174.78,55.01 175.08,54.77 175.32,54.47 C175.53,54.17 175.71,53.84 175.83,53.45 C175.95,53.09 176.01,52.7 176.01,52.34 Z M178.95,53.45 L181.68,53.45 L181.68,49.67 L178.95,49.67 L178.95,46.46 L181.68,46.46 L181.68,38.63 L185.04,38.63 L185.04,65.33 L181.68,65.33 L181.68,56.63 L178.95,56.63 L178.95,53.45 Z M190.32,66.23 L186.99,66.23 L186.99,38.03 L190.32,38.03 L190.32,66.23 Z M166.53,44.6 L166.53,41.42 L171.3,41.42 L171.3,38.09 L174.9,38.09 L174.9,41.42 L179.67,41.42 L179.67,44.6 L166.53,44.6 Z M199.92,49.55 C201.42,49.55 202.92,49.49 204.36,49.37 C205.77,49.28 207.15,49.1 208.5,48.86 C208.56,49.37 208.62,49.88 208.68,50.36 C208.71,50.87 208.77,51.38 208.83,51.89 C207.39,52.13 205.68,52.31 203.67,52.43 C201.63,52.58 199.26,52.64 196.56,52.64 L196.56,39.14 L207.42,39.14 L207.42,42.2 L199.92,42.2 L199.92,44.18 L206.82,44.18 L206.82,47 L199.92,47 L199.92,49.55 Z M213.24,53.6 L209.88,53.6 L209.88,38.63 L213.24,38.63 L213.24,43.94 L215.49,43.94 L215.49,38.03 L218.82,38.03 L218.82,53.9 L215.49,53.9 L215.49,47.12 L213.24,47.12 L213.24,53.6 Z M215.22,65.63 L215.22,58.49 L200.46,58.49 L200.46,55.28 L218.82,55.28 L218.82,65.63 L215.22,65.63 Z M238.59,40.67 C238.59,45.62 238.26,50.18 237.6,54.38 L236.01,54.17 C236.31,52.07 236.52,50 236.7,47.99 C236.85,46.01 236.94,44.06 236.94,42.14 L224.97,42.14 L224.97,40.67 L238.59,40.67 Z M223.29,59.54 L223.29,58.04 L229.38,58.04 L229.38,48.86 L231,48.86 L231,58.04 C234.66,58.04 237.99,57.74 241.05,57.14 L241.26,58.61 C239.73,58.91 238.05,59.15 236.22,59.3 C234.36,59.48 232.32,59.54 230.1,59.54 L223.29,59.54 Z M244.89,50.54 L244.89,66.23 L243.21,66.23 L243.21,38.03 L244.89,38.03 L244.89,49.07 L249.99,49.07 L249.99,50.54 L244.89,50.54 Z M278.01,45.74 L283.32,45.74 L283.32,38.03 L286.92,38.03 L286.92,66.23 L283.32,66.23 L283.32,48.92 L278.01,48.92 L278.01,45.74 Z M281.16,55.79 C280.74,56.21 280.35,56.6 279.96,56.96 C279.54,57.35 279.15,57.74 278.76,58.13 C277.29,57.05 276.06,55.94 275.07,54.8 C274.05,53.69 273.21,52.49 272.58,51.2 C272.01,52.46 271.2,53.69 270.18,54.89 C269.13,56.12 267.87,57.29 266.43,58.43 C266.01,58.04 265.62,57.65 265.23,57.26 C264.81,56.9 264.42,56.51 264.03,56.09 C265.29,55.13 266.37,54.14 267.24,53.12 C268.08,52.16 268.74,51.17 269.28,50.15 C269.79,49.16 270.15,48.14 270.39,47.12 C270.6,46.1 270.72,45.08 270.72,44.06 L270.72,39.89 L274.47,39.89 L274.47,44.06 C274.47,45.08 274.56,46.1 274.8,47.09 C275.01,48.11 275.37,49.13 275.91,50.09 C276.42,51.08 277.11,52.04 277.98,53 C278.82,53.96 279.87,54.89 281.16,55.79 Z M294.12,58.49 L294.12,40.19 L297.72,40.19 L297.72,46.67 L304.14,46.67 L304.14,40.19 L307.74,40.19 L307.74,58.49 L294.12,58.49 Z M304.14,49.85 L297.72,49.85 L297.72,55.28 L304.14,55.28 L304.14,49.85 Z M315.27,66.23 L311.7,66.23 L311.7,38.03 L315.27,38.03 L315.27,66.23 Z M320.52,59.63 L346.74,59.63 L346.74,62.81 L320.52,62.81 L320.52,59.63 Z M333.6,46.25 C332.88,47.93 331.74,49.34 330.18,50.48 C328.59,51.68 326.61,52.61 324.27,53.27 C323.91,52.85 323.55,52.4 323.22,51.95 C322.86,51.53 322.47,51.11 322.11,50.66 C323.67,50.24 325.08,49.64 326.28,48.89 C327.48,48.17 328.47,47.33 329.31,46.4 C330.09,45.5 330.72,44.54 331.14,43.49 C331.53,42.47 331.74,41.45 331.74,40.43 L331.74,39.65 L335.49,39.65 L335.49,40.43 C335.49,41.45 335.7,42.47 336.12,43.49 C336.51,44.54 337.11,45.5 337.95,46.4 C338.73,47.33 339.75,48.17 340.95,48.89 C342.15,49.64 343.53,50.24 345.12,50.66 C344.73,51.11 344.37,51.53 344.04,51.95 C343.68,52.4 343.32,52.85 342.96,53.27 C340.59,52.61 338.61,51.68 337.05,50.48 C335.46,49.34 334.32,47.93 333.63,46.25 L333.6,46.22 L333.6,46.25 Z M371.04,44.54 L354.9,44.54 L354.9,47.54 L371.58,47.54 L371.58,48.92 L353.22,48.92 L353.22,43.16 L369.36,43.16 L369.36,40.4 L353.22,40.4 L353.22,39.02 L371.04,39.02 L371.04,44.54 Z M370.98,61.34 L354.96,61.34 L354.96,64.55 L371.58,64.55 L371.58,65.93 L353.28,65.93 L353.28,59.96 L369.3,59.96 L369.3,57.02 L353.28,57.02 L353.28,55.64 L370.98,55.64 L370.98,61.34 Z M375.48,51.59 L375.48,53.06 L348.78,53.06 L348.78,51.59 L375.48,51.59 Z M391.47,51.98 L391.47,39.32 L404.49,39.32 L404.49,51.98 L391.47,51.98 Z M402.81,40.82 L393.15,40.82 L393.15,50.51 L402.81,50.51 L402.81,40.82 Z M411.69,47.39 L411.69,56.33 L410.01,56.33 L410.01,38.03 L411.69,38.03 L411.69,45.89 L416.49,45.89 L416.49,47.39 L411.69,47.39 Z M412.35,65.48 L394.74,65.48 L394.74,56.18 L396.45,56.18 L396.45,64.01 L412.35,64.01 L412.35,65.48 Z M439.89,50.54 L439.89,66.23 L438.21,66.23 L438.21,38.03 L439.89,38.03 L439.89,49.07 L444.99,49.07 L444.99,50.54 L439.89,50.54 Z M422.07,55.7 C424.41,55.7 426.69,55.64 428.85,55.46 C430.98,55.31 433.05,55.07 435.03,54.74 L435.24,56.18 C431.28,56.84 426.33,57.17 420.39,57.17 L420.39,40.37 L422.07,40.37 L422.07,55.7 Z M450.93,54.47 L450.93,40.07 L452.61,40.07 L452.61,46.04 L466.65,46.04 L466.65,40.07 L468.33,40.07 L468.33,54.47 L460.47,54.47 L460.47,60.89 L472.74,60.89 L472.74,62.36 L446.52,62.36 L446.52,60.89 L458.79,60.89 L458.79,54.47 L450.93,54.47 Z M466.65,47.51 L452.61,47.51 L452.61,53 L466.65,53 L466.65,47.51 Z M489.75,57.2 C489.54,57.38 489.33,57.59 489.15,57.77 C488.94,57.98 488.73,58.16 488.55,58.34 C487.92,57.86 487.29,57.26 486.69,56.54 C486.06,55.88 485.49,55.13 484.95,54.32 C484.41,53.54 483.93,52.7 483.51,51.8 C483.06,50.93 482.73,50.03 482.49,49.13 C482.19,50.09 481.86,50.99 481.44,51.86 C480.99,52.76 480.51,53.6 480,54.38 C479.46,55.19 478.89,55.94 478.29,56.6 C477.66,57.32 477.03,57.92 476.43,58.4 C476.22,58.22 476.01,58.01 475.83,57.8 C475.62,57.62 475.41,57.44 475.23,57.26 C476.1,56.54 476.94,55.67 477.72,54.65 C478.47,53.66 479.13,52.58 479.73,51.44 C480.3,50.3 480.75,49.13 481.11,47.87 C481.44,46.67 481.62,45.44 481.62,44.18 L481.62,40.1 L483.33,40.1 L483.33,44.18 C483.33,45.5 483.51,46.79 483.87,48.05 C484.2,49.31 484.68,50.51 485.28,51.62 C485.85,52.76 486.54,53.78 487.32,54.71 C488.07,55.67 488.88,56.51 489.75,57.2 Z M487.11,47 L492,47 L492,38.6 L493.65,38.6 L493.65,65.33 L492,65.33 L492,48.47 L487.11,48.47 L487.11,47 Z M499.11,66.23 L497.49,66.23 L497.49,38.03 L499.11,38.03 L499.11,66.23 Z" id="Shape"></path>
            </g>
        </g>
    </g>
</svg>