<svg xmlns="http://www.w3.org/2000/svg" xmlns:xlink="http://www.w3.org/1999/xlink" width="74.047" height="635.937" viewBox="0 0 74.047 635.937">
  <defs>
    <clipPath id="clip-path">
      <path id="Mask" d="M428.784,69.946a23.6,23.6,0,0,1-10.547-8.5,22.14,22.14,0,0,1-3.54-12.427h17.187q0,5.713,2.954,8.423t9.595,2.71a11.033,11.033,0,0,0,6.714-1.831,6.045,6.045,0,0,0,2.466-5.152,7.042,7.042,0,0,0-2.661-5.859q-2.661-2.1-9.351-4.346a89.582,89.582,0,0,1-10.937-4.346q-13.819-6.786-13.819-18.652a16.723,16.723,0,0,1,3.442-10.425,22.268,22.268,0,0,1,9.741-7.032A37.906,37.906,0,0,1,444.19,0a33.166,33.166,0,0,1,13.745,2.734,21.76,21.76,0,0,1,9.448,7.789,20.334,20.334,0,0,1,3.37,11.548h-17.09A8.6,8.6,0,0,0,451,15.332a10.368,10.368,0,0,0-7.2-2.393,11.7,11.7,0,0,0-7.251,2.027,6.216,6.216,0,0,0-2.661,5.151q0,2.735,2.93,4.956t10.3,4.59a63.134,63.134,0,0,1,12.109,5.1q11.524,6.641,11.524,18.311,0,9.326-7.032,14.648t-19.287,5.322A38.259,38.259,0,0,1,428.784,69.946Zm-59.937,2.125H351.709V.977h27.978a41.5,41.5,0,0,1,11.267,1.4,24.428,24.428,0,0,1,8.509,4.211,17.934,17.934,0,0,1,5.347,6.775,22.085,22.085,0,0,1,1.782,9.094,23.222,23.222,0,0,1-3,12.3,21.406,21.406,0,0,1-9.4,7.91l14.844,28.662v.732h-18.36l-12.549-25.1h-9.277v25.1h0Zm0-38.331h10.84c3.24,0,5.713-.862,7.349-2.563a9.938,9.938,0,0,0,2.466-7.153,10.055,10.055,0,0,0-2.49-7.2c-1.652-1.733-4.116-2.612-7.324-2.612h-10.84ZM597.119,72.07H579.981V.977H608.35a33.2,33.2,0,0,1,14.429,3,22.73,22.73,0,0,1,9.716,8.545A23.441,23.441,0,0,1,635.937,25.1a22.759,22.759,0,0,1-1.861,9.356,20.248,20.248,0,0,1-5.584,7.27,25.021,25.021,0,0,1-8.833,4.669,40,40,0,0,1-11.6,1.556H597.119v24.12h0Zm0-37.354h11.23c3.3,0,5.859-.838,7.592-2.49a9.291,9.291,0,0,0,2.613-7.031,11.492,11.492,0,0,0-2.686-7.96,9.55,9.55,0,0,0-7.324-3.027H597.119ZM550.976,72.07V.977h17.09V72.07Zm-29.053,0V42.383H496.679V72.07H479.541V.977h17.139V29.2h25.244V.977h17.042V72.07Zm-226.172,0V.977h49.073V14.209H312.89V29.2h26.953V41.944H312.89V58.887h31.837V72.07Zm-64.5,0V.977h25.538a52.136,52.136,0,0,1,12.079,1.257,25.677,25.677,0,0,1,8.795,3.772,16.274,16.274,0,0,1,5.366,6.165,19.035,19.035,0,0,1,1.787,8.435,16.992,16.992,0,0,1-2.539,9.424,14.867,14.867,0,0,1-7.471,5.762,15.044,15.044,0,0,1,8.545,5.468,15.967,15.967,0,0,1,2.979,9.766,23.522,23.522,0,0,1-1.654,9.149,16.381,16.381,0,0,1-4.962,6.548,22.724,22.724,0,0,1-8.209,3.962,45.05,45.05,0,0,1-11.4,1.385Zm17.139-13.183h11.23c3.079,0,5.477-.715,7.129-2.124a7.465,7.465,0,0,0,2.49-5.981c0-2.948-.743-5.195-2.209-6.678s-3.7-2.242-6.629-2.258H248.388Zm0-28.272h8.935c3.727-.032,6.421-.723,8.008-2.051a7.3,7.3,0,0,0,2.392-5.908c0-2.981-.87-5.158-2.587-6.47s-4.525-1.977-8.349-1.977h-8.4ZM203.174,72.07v-16.6l1.66-33.984L187.646,72.07H176.318L159.082,21.435l1.66,34.033v16.6H143.6V.977h22.51l15.87,49.463L197.8.977h22.559V72.07Zm-115.528,0V.977h49.073V14.209H104.785V29.2h26.953V41.944H104.785V58.887h31.836V72.07Zm-28.076,0v-16.6l1.66-33.984L44.043,72.07H32.715L15.478,21.435l1.661,34.033v16.6H0V.977H22.51L38.379,50.44,54.2.977H76.757V72.07Z" transform="translate(1 635.938) rotate(-90)" fill="rgba(255,255,255,0.03)"/>
    </clipPath>
  </defs>
  <g id="Oval" transform="translate(0 0)">
    <path id="Mask-2" data-name="Mask" d="M428.784,69.946a23.6,23.6,0,0,1-10.547-8.5,22.14,22.14,0,0,1-3.54-12.427h17.187q0,5.713,2.954,8.423t9.595,2.71a11.033,11.033,0,0,0,6.714-1.831,6.045,6.045,0,0,0,2.466-5.152,7.042,7.042,0,0,0-2.661-5.859q-2.661-2.1-9.351-4.346a89.582,89.582,0,0,1-10.937-4.346q-13.819-6.786-13.819-18.652a16.723,16.723,0,0,1,3.442-10.425,22.268,22.268,0,0,1,9.741-7.032A37.906,37.906,0,0,1,444.19,0a33.166,33.166,0,0,1,13.745,2.734,21.76,21.76,0,0,1,9.448,7.789,20.334,20.334,0,0,1,3.37,11.548h-17.09A8.6,8.6,0,0,0,451,15.332a10.368,10.368,0,0,0-7.2-2.393,11.7,11.7,0,0,0-7.251,2.027,6.216,6.216,0,0,0-2.661,5.151q0,2.735,2.93,4.956t10.3,4.59a63.134,63.134,0,0,1,12.109,5.1q11.524,6.641,11.524,18.311,0,9.326-7.032,14.648t-19.287,5.322A38.259,38.259,0,0,1,428.784,69.946Zm-59.937,2.125H351.709V.977h27.978a41.5,41.5,0,0,1,11.267,1.4,24.428,24.428,0,0,1,8.509,4.211,17.934,17.934,0,0,1,5.347,6.775,22.085,22.085,0,0,1,1.782,9.094,23.222,23.222,0,0,1-3,12.3,21.406,21.406,0,0,1-9.4,7.91l14.844,28.662v.732h-18.36l-12.549-25.1h-9.277v25.1h0Zm0-38.331h10.84c3.24,0,5.713-.862,7.349-2.563a9.938,9.938,0,0,0,2.466-7.153,10.055,10.055,0,0,0-2.49-7.2c-1.652-1.733-4.116-2.612-7.324-2.612h-10.84ZM597.119,72.07H579.981V.977H608.35a33.2,33.2,0,0,1,14.429,3,22.73,22.73,0,0,1,9.716,8.545A23.441,23.441,0,0,1,635.937,25.1a22.759,22.759,0,0,1-1.861,9.356,20.248,20.248,0,0,1-5.584,7.27,25.021,25.021,0,0,1-8.833,4.669,40,40,0,0,1-11.6,1.556H597.119v24.12h0Zm0-37.354h11.23c3.3,0,5.859-.838,7.592-2.49a9.291,9.291,0,0,0,2.613-7.031,11.492,11.492,0,0,0-2.686-7.96,9.55,9.55,0,0,0-7.324-3.027H597.119ZM550.976,72.07V.977h17.09V72.07Zm-29.053,0V42.383H496.679V72.07H479.541V.977h17.139V29.2h25.244V.977h17.042V72.07Zm-226.172,0V.977h49.073V14.209H312.89V29.2h26.953V41.944H312.89V58.887h31.837V72.07Zm-64.5,0V.977h25.538a52.136,52.136,0,0,1,12.079,1.257,25.677,25.677,0,0,1,8.795,3.772,16.274,16.274,0,0,1,5.366,6.165,19.035,19.035,0,0,1,1.787,8.435,16.992,16.992,0,0,1-2.539,9.424,14.867,14.867,0,0,1-7.471,5.762,15.044,15.044,0,0,1,8.545,5.468,15.967,15.967,0,0,1,2.979,9.766,23.522,23.522,0,0,1-1.654,9.149,16.381,16.381,0,0,1-4.962,6.548,22.724,22.724,0,0,1-8.209,3.962,45.05,45.05,0,0,1-11.4,1.385Zm17.139-13.183h11.23c3.079,0,5.477-.715,7.129-2.124a7.465,7.465,0,0,0,2.49-5.981c0-2.948-.743-5.195-2.209-6.678s-3.7-2.242-6.629-2.258H248.388Zm0-28.272h8.935c3.727-.032,6.421-.723,8.008-2.051a7.3,7.3,0,0,0,2.392-5.908c0-2.981-.87-5.158-2.587-6.47s-4.525-1.977-8.349-1.977h-8.4ZM203.174,72.07v-16.6l1.66-33.984L187.646,72.07H176.318L159.082,21.435l1.66,34.033v16.6H143.6V.977h22.51l15.87,49.463L197.8.977h22.559V72.07Zm-115.528,0V.977h49.073V14.209H104.785V29.2h26.953V41.944H104.785V58.887h31.836V72.07Zm-28.076,0v-16.6l1.66-33.984L44.043,72.07H32.715L15.478,21.435l1.661,34.033v16.6H0V.977H22.51L38.379,50.44,54.2.977H76.757V72.07Z" transform="translate(0 635.938) rotate(-90)" opacity="0.6"/>
    <path id="Mask-3" data-name="Mask" d="M428.784,69.946a23.6,23.6,0,0,1-10.547-8.5,22.14,22.14,0,0,1-3.54-12.427h17.187q0,5.713,2.954,8.423t9.595,2.71a11.033,11.033,0,0,0,6.714-1.831,6.045,6.045,0,0,0,2.466-5.152,7.042,7.042,0,0,0-2.661-5.859q-2.661-2.1-9.351-4.346a89.582,89.582,0,0,1-10.937-4.346q-13.819-6.786-13.819-18.652a16.723,16.723,0,0,1,3.442-10.425,22.268,22.268,0,0,1,9.741-7.032A37.906,37.906,0,0,1,444.19,0a33.166,33.166,0,0,1,13.745,2.734,21.76,21.76,0,0,1,9.448,7.789,20.334,20.334,0,0,1,3.37,11.548h-17.09A8.6,8.6,0,0,0,451,15.332a10.368,10.368,0,0,0-7.2-2.393,11.7,11.7,0,0,0-7.251,2.027,6.216,6.216,0,0,0-2.661,5.151q0,2.735,2.93,4.956t10.3,4.59a63.134,63.134,0,0,1,12.109,5.1q11.524,6.641,11.524,18.311,0,9.326-7.032,14.648t-19.287,5.322A38.259,38.259,0,0,1,428.784,69.946Zm-59.937,2.125H351.709V.977h27.978a41.5,41.5,0,0,1,11.267,1.4,24.428,24.428,0,0,1,8.509,4.211,17.934,17.934,0,0,1,5.347,6.775,22.085,22.085,0,0,1,1.782,9.094,23.222,23.222,0,0,1-3,12.3,21.406,21.406,0,0,1-9.4,7.91l14.844,28.662v.732h-18.36l-12.549-25.1h-9.277v25.1h0Zm0-38.331h10.84c3.24,0,5.713-.862,7.349-2.563a9.938,9.938,0,0,0,2.466-7.153,10.055,10.055,0,0,0-2.49-7.2c-1.652-1.733-4.116-2.612-7.324-2.612h-10.84ZM597.119,72.07H579.981V.977H608.35a33.2,33.2,0,0,1,14.429,3,22.73,22.73,0,0,1,9.716,8.545A23.441,23.441,0,0,1,635.937,25.1a22.759,22.759,0,0,1-1.861,9.356,20.248,20.248,0,0,1-5.584,7.27,25.021,25.021,0,0,1-8.833,4.669,40,40,0,0,1-11.6,1.556H597.119v24.12h0Zm0-37.354h11.23c3.3,0,5.859-.838,7.592-2.49a9.291,9.291,0,0,0,2.613-7.031,11.492,11.492,0,0,0-2.686-7.96,9.55,9.55,0,0,0-7.324-3.027H597.119ZM550.976,72.07V.977h17.09V72.07Zm-29.053,0V42.383H496.679V72.07H479.541V.977h17.139V29.2h25.244V.977h17.042V72.07Zm-226.172,0V.977h49.073V14.209H312.89V29.2h26.953V41.944H312.89V58.887h31.837V72.07Zm-64.5,0V.977h25.538a52.136,52.136,0,0,1,12.079,1.257,25.677,25.677,0,0,1,8.795,3.772,16.274,16.274,0,0,1,5.366,6.165,19.035,19.035,0,0,1,1.787,8.435,16.992,16.992,0,0,1-2.539,9.424,14.867,14.867,0,0,1-7.471,5.762,15.044,15.044,0,0,1,8.545,5.468,15.967,15.967,0,0,1,2.979,9.766,23.522,23.522,0,0,1-1.654,9.149,16.381,16.381,0,0,1-4.962,6.548,22.724,22.724,0,0,1-8.209,3.962,45.05,45.05,0,0,1-11.4,1.385Zm17.139-13.183h11.23c3.079,0,5.477-.715,7.129-2.124a7.465,7.465,0,0,0,2.49-5.981c0-2.948-.743-5.195-2.209-6.678s-3.7-2.242-6.629-2.258H248.388Zm0-28.272h8.935c3.727-.032,6.421-.723,8.008-2.051a7.3,7.3,0,0,0,2.392-5.908c0-2.981-.87-5.158-2.587-6.47s-4.525-1.977-8.349-1.977h-8.4ZM203.174,72.07v-16.6l1.66-33.984L187.646,72.07H176.318L159.082,21.435l1.66,34.033v16.6H143.6V.977h22.51l15.87,49.463L197.8.977h22.559V72.07Zm-115.528,0V.977h49.073V14.209H104.785V29.2h26.953V41.944H104.785V58.887h31.836V72.07Zm-28.076,0v-16.6l1.66-33.984L44.043,72.07H32.715L15.478,21.435l1.661,34.033v16.6H0V.977H22.51L38.379,50.44,54.2.977H76.757V72.07Z" transform="translate(1 635.938) rotate(-90)" fill="rgba(255,255,255,0.03)"/>
    <g id="Oval-2" data-name="Oval" clip-path="url(#clip-path)">
      <circle id="Oval-3" data-name="Oval" cx="77" cy="77" r="77" transform="translate(37.625 104.754)" fill="#fff" opacity="0.3"/>
      <circle id="Oval_Copy_2" data-name="Oval Copy 2" cx="84" cy="84" r="84" transform="translate(-127.375 412.754)" fill="#fff" opacity="0.4"/>
      <circle id="Oval_Copy_3" data-name="Oval Copy 3" cx="84" cy="84" r="84" transform="translate(-25.375 258.754)" opacity="0.4"/>
    </g>
  </g>
</svg>
