<svg xmlns="http://www.w3.org/2000/svg" xmlns:xlink="http://www.w3.org/1999/xlink" width="238.601" height="84" viewBox="0 0 238.601 84">
  <defs>
    <linearGradient id="linear-gradient" x1="0.026" x2="1.027" y2="1" gradientUnits="objectBoundingBox">
      <stop offset="0" stop-color="#da0de6"/>
      <stop offset="0.459" stop-color="#e32727"/>
      <stop offset="1" stop-color="#ffb826"/>
    </linearGradient>
  </defs>
  <path id="Combined_Shape_Copy" data-name="Combined Shape Copy" d="M96.88,83.44a11.457,11.457,0,0,1-3.119-1.56,7.312,7.312,0,0,1-2.04-2.4,6.389,6.389,0,0,1-.76-3.12A6.732,6.732,0,0,1,93.4,71.12a10.3,10.3,0,0,1,2.759-1.64,11.884,11.884,0,0,1,3.52-.72V65.479H83v-2h35.6v2H101.92V68.76a12.169,12.169,0,0,1,3.52.72,11.455,11.455,0,0,1,2.721,1.64,7.705,7.705,0,0,1,1.8,2.32,7.213,7.213,0,0,1,.64,2.92,6.408,6.408,0,0,1-.72,3.04,7.791,7.791,0,0,1-2.04,2.44,11.463,11.463,0,0,1-3.12,1.6,13.763,13.763,0,0,1-3.96.56A12.9,12.9,0,0,1,96.88,83.44Zm.92-12.36a7.488,7.488,0,0,0-2.4,1.159,5.2,5.2,0,0,0-1.6,1.8,4.663,4.663,0,0,0-.6,2.32,4.245,4.245,0,0,0,.6,2.281,5.828,5.828,0,0,0,1.64,1.8,7.447,7.447,0,0,0,2.4,1.159,11.722,11.722,0,0,0,2.96.4,11.424,11.424,0,0,0,2.92-.4,9.523,9.523,0,0,0,2.4-1.159,6.329,6.329,0,0,0,1.64-1.8,4.229,4.229,0,0,0,.6-2.281,4.653,4.653,0,0,0-.6-2.32,6.806,6.806,0,0,0-1.6-1.8,9.593,9.593,0,0,0-2.4-1.159,12,12,0,0,0-2.96-.4A11.768,11.768,0,0,0,97.8,71.08ZM226.479,83.6H224.24V46h2.24V60.72h6.8V62.68h-6.8V83.6h0Zm-36.4,0H187.84V46h2.24V83.6Zm-114.04,0H73.8V46h2.24V83.6Zm-36.6,0h-2.2V62.72h-5.8V82.4h-2.2v-36h2.2V60.76h5.8V46h2.2V83.6Zm113-.8H129.72V68.2h2.24v4.88H150.2V68.2h2.24V82.8h0ZM131.96,80.88H150.2V75H131.96ZM49.36,72.56,47.68,71a25.094,25.094,0,0,0,5.8-3.04,25.472,25.472,0,0,0,4.881-4.4A23.947,23.947,0,0,0,61.84,58,19.345,19.345,0,0,0,63.4,51.52H49V49.56H65.88a22.858,22.858,0,0,1-1.319,7.879,25.077,25.077,0,0,1-3.6,6.6,24.479,24.479,0,0,1-5.28,5.12,26.206,26.206,0,0,1-6.32,3.4ZM10.32,72.08h0V49.56H24.8V51.52H12.52v18.6h.018a79.6,79.6,0,0,0,14.382-1.2,7.332,7.332,0,0,0,.16.92,3.993,3.993,0,0,0,.121,1,52.587,52.587,0,0,1-7.44.92c-2.547.219-5.547.32-9.439.32Zm189.959-.16h0V49.52h17v2H202.52V69.96h.049c3.42,0,6.214-.1,8.79-.319,2.818-.2,5.59-.525,8.24-.96l.28,1.92a123.984,123.984,0,0,1-19.6,1.32Zm-36.8-.4h0V49.12h2.24V69.56h.049c3.475,0,6.415-.1,8.991-.32,2.845-.2,5.617-.523,8.24-.959l.28,1.92a124.119,124.119,0,0,1-19.8,1.32ZM152.438,65.2H150.2V46h2.24V65.2h0Zm-22.759-1.44a7.862,7.862,0,0,1-2.839-1.72,7.011,7.011,0,0,1-1.92-2.72,8.27,8.27,0,0,1-.68-3.52,8.515,8.515,0,0,1,.68-3.52,7.48,7.48,0,0,1,1.92-2.68,8.434,8.434,0,0,1,2.839-1.72,10.231,10.231,0,0,1,3.56-.6,10.394,10.394,0,0,1,3.56.6,9.685,9.685,0,0,1,2.839,1.759,8.564,8.564,0,0,1,1.88,2.68,9.241,9.241,0,0,1,0,6.961,7.835,7.835,0,0,1-1.88,2.72,8.23,8.23,0,0,1-2.839,1.72,9.557,9.557,0,0,1-3.56.64A10.21,10.21,0,0,1,129.679,63.76Zm.96-14.04a6.583,6.583,0,0,0-2.16,1.32,5.305,5.305,0,0,0-1.44,2.04,6.212,6.212,0,0,0-.56,2.72,6.437,6.437,0,0,0,.52,2.72,5.3,5.3,0,0,0,1.44,2.04,4.959,4.959,0,0,0,2.16,1.319,7.293,7.293,0,0,0,2.679.481,7.387,7.387,0,0,0,2.68-.481,5.93,5.93,0,0,0,2.12-1.319,6.584,6.584,0,0,0,1.4-2.08,7.073,7.073,0,0,0,.481-2.68,7.285,7.285,0,0,0-.52-2.68,7.533,7.533,0,0,0-1.4-2.08,7.213,7.213,0,0,0-2.12-1.32,8.362,8.362,0,0,0-2.641-.44A7.988,7.988,0,0,0,130.639,49.72ZM109,58.96a20.7,20.7,0,0,1-3.52-1.8,13.95,13.95,0,0,1-2.8-2.16,8.376,8.376,0,0,1-1.921-2.28A9.8,9.8,0,0,1,98.879,55a17.1,17.1,0,0,1-2.84,2.16,23.835,23.835,0,0,1-3.48,1.8,22.754,22.754,0,0,1-3.96,1.28h0a6.949,6.949,0,0,1-.759-.76c-.247-.247-.5-.54-.72-.8a24.519,24.519,0,0,0,4.4-1.44,18.364,18.364,0,0,0,3.92-2.12,11.848,11.848,0,0,0,2.8-2.68,5.115,5.115,0,0,0,1.08-3.119H88.76V47.36H112.8v1.96H102.2a5.117,5.117,0,0,0,1.08,3.119,10.777,10.777,0,0,0,2.84,2.68,15.847,15.847,0,0,0,3.92,2.12,22.145,22.145,0,0,0,4.36,1.44l-.018.022c-.23.267-.468.544-.7.778a6.831,6.831,0,0,1-.512.52c-.087.083-.169.16-.247.239A21.3,21.3,0,0,1,109,58.96Zm31.72-21.52A9.61,9.61,0,0,1,137.6,35.8a7.351,7.351,0,0,1-2-2.479,6.986,6.986,0,0,1-.72-3.2,6.817,6.817,0,0,1,.72-3.08,6.928,6.928,0,0,1,1.959-2.52,9.68,9.68,0,0,1,3.12-1.72,12.93,12.93,0,0,1,4.08-.6,14.512,14.512,0,0,1,4.04.56,10.412,10.412,0,0,1,3.12,1.6,7.565,7.565,0,0,1,2.04,2.48,7.421,7.421,0,0,1,.72,3.28,7.171,7.171,0,0,1-.72,3.24,7.547,7.547,0,0,1-2.04,2.48,10.391,10.391,0,0,1-3.12,1.6,14.478,14.478,0,0,1-4.04.56A13.865,13.865,0,0,1,140.719,37.44Zm1.52-11.8a6.7,6.7,0,0,0-2,.96,4.893,4.893,0,0,0-1.36,1.52,4.2,4.2,0,0,0-.48,2,3.975,3.975,0,0,0,.48,2,4.443,4.443,0,0,0,1.36,1.52,6.713,6.713,0,0,0,2.04.921,9.9,9.9,0,0,0,2.52.319,10.719,10.719,0,0,0,2.6-.319,7.2,7.2,0,0,0,2-1,4.739,4.739,0,0,0,1.32-1.519,3.821,3.821,0,0,0,.48-1.921,4.069,4.069,0,0,0-.48-1.96,5.246,5.246,0,0,0-1.32-1.519,7.246,7.246,0,0,0-2-1,10.763,10.763,0,0,0-2.6-.319A9.98,9.98,0,0,0,142.24,25.639ZM66.4,37.6H62.88V16.08h-7V27H38.4V3h3.48v9.32h10.44L52.36,3h3.52V13h7V0H66.4V37.6ZM41.881,23.92H52.36V15.44H41.881ZM232.839,37.2H209.12V29H230.2V24.84H209.12V22.96h23.32v7.88h-21.08v4.48h21.48V37.2h0ZM29.6,36.8H5.4V22.4H29.6V36.8h0ZM8.88,33.68h17.2V25.52H8.88ZM197,36.6H173.8V24h3.479v9.48H197V36.6h0ZM73.32,32.68V29.6h34.96v3.079H73.32ZM196.6,24.4h-3.518V0h3.52V24.4h0ZM78.079,20.52h0A10.706,10.706,0,0,1,77,19.24,16.14,16.14,0,0,1,75.88,18a21.667,21.667,0,0,0,5.6-2.44,18.158,18.158,0,0,0,4.119-3.4A13.928,13.928,0,0,0,88.12,8.2,10.981,10.981,0,0,0,88.961,4V2.4H92.6V4a10.429,10.429,0,0,0,.88,4.24A12.383,12.383,0,0,0,96,12.2a16.549,16.549,0,0,0,4.12,3.36,20.755,20.755,0,0,0,5.56,2.44c-.363.4-.744.82-1.08,1.24-.216.236-.419.473-.617.7-.173.2-.337.392-.5.576a23.067,23.067,0,0,1-8.04-4A14.126,14.126,0,0,1,90.8,10.4a15.348,15.348,0,0,1-4.68,6.08,22.873,22.873,0,0,1-8.04,4.04ZM127,19.64V16.52h35.6v3.119H127ZM29.6,19.6H26.4V0h3.2V19.6h0ZM203,19.52V17.56h35.6v1.959H203Zm-29.32-.68A7.681,7.681,0,0,1,170.72,17a7.708,7.708,0,0,1-1.92-2.921,9.462,9.462,0,0,1-.72-3.8,9.89,9.89,0,0,1,.72-3.8,8.587,8.587,0,0,1,1.92-2.96,8.788,8.788,0,0,1,2.921-1.88,10.778,10.778,0,0,1,3.68-.64,10.12,10.12,0,0,1,3.72.68,9.672,9.672,0,0,1,2.92,1.88,9.972,9.972,0,0,1,1.921,2.959,10.417,10.417,0,0,1,.68,3.76,10.1,10.1,0,0,1-.68,3.76,8.788,8.788,0,0,1-1.921,2.92,7.744,7.744,0,0,1-2.92,1.88,9.55,9.55,0,0,1-3.72.68A9.074,9.074,0,0,1,173.68,18.84ZM173.2,5.76a6.263,6.263,0,0,0-1.6,4.52,6.081,6.081,0,0,0,.44,2.52,4.671,4.671,0,0,0,1.16,1.921,4.531,4.531,0,0,0,1.84,1.239,5.3,5.3,0,0,0,2.32.44,5.552,5.552,0,0,0,4.16-1.679,6.3,6.3,0,0,0,1.561-4.441,6.409,6.409,0,0,0-1.6-4.52,5.613,5.613,0,0,0-4.12-1.64A5.531,5.531,0,0,0,173.2,5.76ZM22.559,19.2h-3.2V10.76H14.88V17.8H0V1.6H14.88V7.68h4.48V.4h3.2V19.2h0ZM3.28,14.72h8.28v-10H3.28Zm213.6-.8a9.216,9.216,0,0,1-3.119-1.319,5.77,5.77,0,0,1-2.12-2.16,5.54,5.54,0,0,1-.76-2.96,5.569,5.569,0,0,1,.8-3.04,6.134,6.134,0,0,1,2.12-2.2,11.12,11.12,0,0,1,3.12-1.32A16.941,16.941,0,0,1,220.76.48a17.87,17.87,0,0,1,3.92.44,11.909,11.909,0,0,1,3.16,1.36A7.994,7.994,0,0,1,230,4.44a6.372,6.372,0,0,1,.76,3.04,5.892,5.892,0,0,1-.76,2.96,6.308,6.308,0,0,1-2.08,2.16,9.987,9.987,0,0,1-3.2,1.319,15.819,15.819,0,0,1-3.96.481A14.835,14.835,0,0,1,216.88,13.919Zm.88-11.16a8.211,8.211,0,0,0-2.4.921,4.806,4.806,0,0,0-1.64,1.6,4.139,4.139,0,0,0-.6,2.2,3.822,3.822,0,0,0,.6,2.16,4.4,4.4,0,0,0,1.64,1.56,7.035,7.035,0,0,0,2.44.96,11.78,11.78,0,0,0,2.96.319,12.18,12.18,0,0,0,3-.319,6.867,6.867,0,0,0,2.44-.92A5.262,5.262,0,0,0,227.88,9.68a3.84,3.84,0,0,0,.6-2.2,4.14,4.14,0,0,0-.6-2.2,5.591,5.591,0,0,0-1.64-1.56,10.368,10.368,0,0,0-2.44-.96,15.2,15.2,0,0,0-3.04-.319A14.181,14.181,0,0,0,217.76,2.759ZM132.079,13.6q-.238-.3-.479-.6l-.02-.024-.46-.576c-.362-.4-.686-.806-1-1.2a25.5,25.5,0,0,0,5.44-1.4,17.927,17.927,0,0,0,4-2.119,9.664,9.664,0,0,0,2.52-2.6,5.331,5.331,0,0,0,.879-2.8V.4h3.64V2.28a5.134,5.134,0,0,0,.88,2.84,8.738,8.738,0,0,0,2.56,2.6,15.169,15.169,0,0,0,4.04,2.08,25.27,25.27,0,0,0,5.4,1.4l-.48.6-.012.014-.469.585-.021.023c-.347.386-.7.785-1.018,1.177a25.669,25.669,0,0,1-8.122-2.6A10.089,10.089,0,0,1,144.8,6.88,11.423,11.423,0,0,1,140.2,11a26.961,26.961,0,0,1-8.121,2.6h0Z" fill="url(#linear-gradient)"/>
</svg>
