<?xml version="1.0" encoding="UTF-8"?>
<svg width="575px" height="39px" viewBox="0 0 575 39" version="1.1" xmlns="http://www.w3.org/2000/svg" xmlns:xlink="http://www.w3.org/1999/xlink">
    <title>Shape</title>
    <defs>
        <linearGradient x1="0%" y1="49.8499062%" x2="100%" y2="50.2197863%" id="linearGradient-1">
            <stop stop-color="#2C39B4" offset="0%"></stop>
            <stop stop-color="#DC23AA" offset="46.2442067%"></stop>
            <stop stop-color="#FF0000" offset="100%"></stop>
        </linearGradient>
    </defs>
    <g id="회원" stroke="none" stroke-width="1" fill="none" fill-rule="evenodd">
        <g id="mem-5" transform="translate(-673.000000, -645.000000)" fill="url(#linearGradient-1)" fill-rule="nonzero">
            <g id="Group-18" transform="translate(672.000000, 608.000000)">
                <g id="결제가-정상적으로-완료되었습니다" transform="translate(1.920000, 37.640000)">
                    <path d="M566.35,16.68 L566.35,37.6 L564.11,37.6 L564.11,0 L566.35,0 L566.35,14.72 L573.15,14.72 L573.15,16.68 L566.35,16.68 Z M542.39,23.96 C545.43,23.96 548.39,23.88 551.23,23.64 C554.03,23.44 556.79,23.12 559.47,22.68 L559.75,24.6 C554.39,25.48 547.87,25.92 540.15,25.92 L540.15,3.52 L557.15,3.52 L557.15,5.52 L542.39,5.52 L542.39,23.96 Z M28.96,29.68 L8.48,29.68 L8.48,34.88 L29.72,34.88 L29.72,36.8 L6.24,36.8 L6.24,27.76 L26.72,27.76 L26.72,23.24 L6.24,23.24 L6.24,21.32 L28.96,21.32 L28.96,29.68 Z M1.52,18.44 C1.28,18.16 1.04,17.88 0.8,17.6 C0.52,17.36 0.24,17.08 0,16.76 C1.92,16.28 3.8,15.64 5.64,14.8 C7.44,14 9.08,13 10.56,11.88 C12,10.76 13.2,9.52 14.16,8.12 C15.12,6.76 15.68,5.32 15.92,3.72 L1.24,3.72 L1.24,1.76 L18.52,1.76 C18.52,3.84 18.04,5.72 17.16,7.48 C16.2,9.28 14.96,10.88 13.44,12.28 C11.84,13.72 10.04,14.96 8,16 C5.92,17.08 3.76,17.88 1.52,18.44 Z M17.68,11.6 L26.72,11.6 L26.72,7.04 L18.88,7.04 L18.88,5.12 L26.72,5.12 L26.72,0 L28.96,0 L28.96,18 L26.72,18 L26.72,13.52 L17.68,13.52 L17.68,11.6 Z M54.03,26.24 C53.75,26.48 53.47,26.72 53.23,26.96 C52.95,27.24 52.67,27.52 52.43,27.76 C51.63,27.12 50.79,26.36 49.99,25.4 C49.15,24.52 48.39,23.52 47.67,22.4 C46.95,21.36 46.31,20.24 45.75,19.04 C45.15,17.88 44.71,16.68 44.43,15.48 C44.03,16.76 43.55,17.96 42.99,19.12 C42.39,20.32 41.75,21.48 41.07,22.52 C40.35,23.6 39.59,24.56 38.83,25.44 C38.03,26.36 37.19,27.16 36.39,27.8 C36.11,27.56 35.87,27.32 35.63,27.04 C35.35,26.8 35.07,26.56 34.83,26.28 C36.99,24.48 38.95,22.08 40.63,19.04 C41.27,17.84 41.75,16.68 42.15,15.56 C42.47,14.48 42.75,13.36 42.95,12.24 C43.11,11.16 43.19,10.04 43.27,8.92 C43.27,7.84 43.31,6.72 43.31,5.52 L36.15,5.52 L36.15,3.56 L52.75,3.56 L52.75,5.52 L45.55,5.52 L45.55,9.16 C45.55,10.92 45.79,12.6 46.27,14.2 C46.71,15.88 47.31,17.44 48.11,18.88 C48.87,20.36 49.79,21.72 50.83,22.96 C51.83,24.24 52.91,25.32 54.03,26.24 Z M50.91,12.44 L57.03,12.44 L57.03,0.8 L59.23,0.8 L59.23,36.4 L57.03,36.4 L57.03,14.4 L50.91,14.4 L50.91,12.44 Z M66.51,37.6 L64.35,37.6 L64.35,0 L66.51,0 L66.51,37.6 Z M100.26,16.72 L100.26,37.6 L98.02,37.6 L98.02,0 L100.26,0 L100.26,14.76 L107.06,14.76 L107.06,16.72 L100.26,16.72 Z M72.5,25 C74.5,24.28 76.46,23.24 78.3,21.96 C80.1,20.72 81.74,19.24 83.18,17.56 C84.58,15.88 85.74,14.04 86.66,12 C87.54,10 88.06,7.84 88.22,5.52 L73.82,5.52 L73.82,3.56 L90.7,3.56 C90.7,6.4 90.26,9.04 89.38,11.44 C88.46,13.92 87.26,16.12 85.78,18.04 C84.26,20.04 82.5,21.72 80.5,23.16 C78.5,24.6 76.38,25.76 74.18,26.56 L72.5,25 Z M153.52,29.48 C153.52,30.76 153.24,31.92 152.72,32.96 C152.16,34 151.44,34.92 150.56,35.68 C149.6,36.4 148.52,37 147.32,37.4 C146.04,37.8 144.72,38 143.32,38 C141.88,38 140.56,37.8 139.36,37.4 C138.12,37 137.04,36.44 136.16,35.72 C135.24,34.96 134.52,34.04 134,33 C133.44,31.96 133.2,30.8 133.2,29.48 C133.2,28.16 133.44,26.96 134,25.88 C134.52,24.84 135.24,23.96 136.2,23.2 C137.08,22.48 138.16,21.88 139.4,21.48 C140.6,21.12 141.92,20.92 143.32,20.92 C144.68,20.92 146,21.12 147.28,21.52 C148.48,21.92 149.56,22.48 150.52,23.2 C151.44,23.96 152.16,24.88 152.72,25.92 C153.24,27 153.52,28.2 153.52,29.48 Z M150,29.48 C150,28.68 149.8,27.92 149.48,27.24 C149.12,26.6 148.64,26 148.08,25.52 C147.44,25.04 146.76,24.68 145.96,24.4 C145.12,24.16 144.24,24 143.32,24 C142.4,24 141.56,24.12 140.76,24.36 C139.92,24.64 139.2,25 138.64,25.48 C138,25.96 137.52,26.56 137.2,27.2 C136.84,27.92 136.68,28.68 136.68,29.48 C136.68,30.32 136.84,31.08 137.24,31.72 C137.56,32.4 138.04,32.96 138.68,33.44 C139.24,33.88 139.96,34.24 140.8,34.52 C141.6,34.76 142.44,34.88 143.32,34.88 C144.2,34.88 145.08,34.76 145.92,34.52 C146.72,34.24 147.4,33.88 148.04,33.44 C148.64,32.96 149.12,32.4 149.48,31.72 C149.8,31.08 150,30.32 150,29.48 Z M143.24,7.84 L150.6,7.84 L150.6,0 L154.12,0 L154.12,20.12 L150.6,20.12 L150.6,10.96 L143.24,10.96 L143.24,7.84 Z M123.84,17.28 C126.8,15.8 129,14 130.44,11.84 C131.88,9.72 132.72,7.36 133,4.72 L125.56,4.72 L125.56,1.6 L144.36,1.6 L144.36,4.72 L136.84,4.72 C136.92,6.16 137.2,7.44 137.68,8.56 C138.16,9.76 138.8,10.8 139.6,11.76 C140.4,12.72 141.32,13.6 142.44,14.36 C143.48,15.16 144.68,15.84 146.04,16.48 C145.64,16.88 145.24,17.24 144.84,17.64 C144.44,18.04 144.04,18.44 143.64,18.8 C141.72,17.92 139.96,16.8 138.44,15.44 C136.84,14.08 135.72,12.6 135,10.92 C134.2,12.76 133.04,14.4 131.56,15.84 C130.04,17.36 128.24,18.6 126.24,19.6 C125.84,19.24 125.44,18.84 125.04,18.44 C124.64,18.04 124.24,17.68 123.84,17.28 Z M188.87,29.48 C188.87,30.76 188.59,31.92 188.07,32.96 C187.51,34 186.79,34.92 185.91,35.68 C184.95,36.4 183.87,37 182.67,37.4 C181.39,37.8 180.07,38 178.67,38 C177.23,38 175.91,37.8 174.71,37.4 C173.47,37 172.39,36.44 171.51,35.72 C170.59,34.96 169.87,34.04 169.35,33 C168.79,31.96 168.55,30.8 168.55,29.48 C168.55,28.16 168.79,26.96 169.35,25.88 C169.87,24.84 170.59,23.96 171.55,23.2 C172.43,22.48 173.51,21.88 174.75,21.48 C175.95,21.12 177.27,20.92 178.67,20.92 C180.03,20.92 181.35,21.12 182.63,21.52 C183.83,21.92 184.91,22.48 185.87,23.2 C186.79,23.96 187.51,24.88 188.07,25.92 C188.59,27 188.87,28.2 188.87,29.48 Z M185.35,29.48 C185.35,28.68 185.15,27.92 184.83,27.24 C184.47,26.6 183.99,26 183.43,25.52 C182.79,25.04 182.11,24.68 181.31,24.4 C180.47,24.16 179.59,24 178.67,24 C177.75,24 176.91,24.12 176.11,24.36 C175.27,24.64 174.55,25 173.99,25.48 C173.35,25.96 172.87,26.56 172.55,27.2 C172.19,27.92 172.03,28.68 172.03,29.48 C172.03,30.32 172.19,31.08 172.59,31.72 C172.91,32.4 173.39,32.96 174.03,33.44 C174.59,33.88 175.31,34.24 176.15,34.52 C176.95,34.76 177.79,34.88 178.67,34.88 C179.55,34.88 180.43,34.76 181.27,34.52 C182.07,34.24 182.75,33.88 183.39,33.44 C183.99,32.96 184.47,32.4 184.83,31.72 C185.15,31.08 185.35,30.32 185.35,29.48 Z M181.99,16.28 C181.59,16.68 181.19,17.04 180.79,17.44 C180.39,17.84 179.99,18.24 179.59,18.6 C178.59,18.16 177.63,17.64 176.75,17.04 C175.83,16.48 174.99,15.88 174.23,15.16 C173.43,14.52 172.75,13.8 172.19,13 C171.55,12.28 171.07,11.48 170.75,10.68 C169.95,12.44 168.79,14.08 167.23,15.6 C165.63,17.12 163.83,18.4 161.79,19.4 C161.39,19.04 160.99,18.64 160.59,18.24 C160.19,17.84 159.79,17.48 159.39,17.08 C160.83,16.36 162.15,15.48 163.35,14.52 C164.47,13.56 165.47,12.56 166.31,11.44 C167.11,10.36 167.75,9.24 168.23,8.04 C168.63,6.88 168.87,5.72 168.87,4.52 L168.87,1 L172.51,1 L172.51,4.52 C172.51,5.64 172.71,6.76 173.15,7.88 C173.55,9 174.19,10.08 175.03,11.08 C175.83,12.12 176.79,13.04 177.99,13.92 C179.15,14.84 180.47,15.64 181.99,16.28 Z M189.07,11.52 L189.07,20.12 L185.55,20.12 L185.55,0 L189.07,0 L189.07,8.4 L195.07,8.4 L195.07,11.52 L189.07,11.52 Z M224.1,36.8 L224.1,26.12 L204.62,26.12 L204.62,23 L227.62,23 L227.62,36.8 L224.1,36.8 Z M216.74,7.84 L224.1,7.84 L224.1,0 L227.62,0 L227.62,19.8 L224.1,19.8 L224.1,10.96 L216.74,10.96 L216.74,7.84 Z M197.34,17.28 C200.3,15.8 202.5,14 203.94,11.84 C205.38,9.72 206.22,7.36 206.5,4.72 L199.06,4.72 L199.06,1.6 L217.86,1.6 L217.86,4.72 L210.34,4.72 C210.42,6.16 210.7,7.44 211.18,8.56 C211.66,9.76 212.3,10.8 213.1,11.76 C213.9,12.72 214.82,13.6 215.94,14.36 C216.98,15.16 218.18,15.84 219.54,16.48 C219.14,16.88 218.74,17.24 218.34,17.64 C217.94,18.04 217.54,18.44 217.14,18.8 C215.22,17.92 213.46,16.8 211.94,15.44 C210.34,14.08 209.22,12.6 208.5,10.92 C207.7,12.76 206.54,14.4 205.06,15.84 C203.54,17.36 201.74,18.6 199.74,19.6 C199.34,19.24 198.94,18.84 198.54,18.44 C198.14,18.04 197.74,17.68 197.34,17.28 Z M267.85,29.6 L267.85,32.72 L232.89,32.72 L232.89,29.6 L267.85,29.6 Z M261.89,12.6 C261.85,14.2 261.53,15.64 260.93,16.88 C260.29,18.16 259.49,19.2 258.45,20.08 C257.41,20.96 256.17,21.64 254.81,22.12 C253.41,22.6 251.93,22.88 250.37,22.92 C248.93,22.92 247.53,22.68 246.21,22.2 C244.85,21.76 243.65,21.08 242.61,20.2 C241.53,19.32 240.65,18.24 240.01,16.96 C239.33,15.68 238.97,14.24 238.89,12.6 C238.89,11 239.21,9.6 239.85,8.32 C240.45,7.08 241.29,6 242.33,5.08 C243.37,4.2 244.57,3.52 245.97,3 C247.33,2.52 248.77,2.28 250.37,2.2 C251.81,2.2 253.25,2.44 254.65,2.92 C256.01,3.4 257.21,4.12 258.29,5 C259.33,5.92 260.21,7 260.89,8.28 C261.53,9.56 261.85,11 261.89,12.6 Z M258.41,12.6 C258.41,11.52 258.17,10.52 257.77,9.64 C257.33,8.76 256.77,8 256.05,7.36 C255.29,6.72 254.45,6.24 253.49,5.88 C252.49,5.56 251.45,5.36 250.37,5.32 C249.33,5.32 248.33,5.48 247.41,5.8 C246.45,6.16 245.61,6.64 244.89,7.28 C244.13,7.92 243.53,8.68 243.13,9.56 C242.65,10.48 242.41,11.48 242.41,12.6 C242.41,13.72 242.61,14.68 243.05,15.56 C243.45,16.44 244.05,17.2 244.81,17.8 C245.53,18.44 246.37,18.92 247.33,19.24 C248.29,19.6 249.29,19.8 250.37,19.8 C251.41,19.8 252.41,19.64 253.37,19.32 C254.29,19 255.13,18.52 255.89,17.88 C256.61,17.28 257.21,16.52 257.69,15.6 C258.13,14.72 258.37,13.72 258.41,12.6 Z M299.12,14.4 L278.6,14.4 L278.6,20.16 L299.72,20.16 L299.72,23.04 L288.88,23.04 L288.88,29.6 L304.6,29.6 L304.6,32.72 L269.64,32.72 L269.64,29.6 L285.36,29.6 L285.36,23.04 L275.12,23.04 L275.12,11.48 L295.6,11.48 L295.6,6.12 L275.12,6.12 L275.12,3.2 L299.12,3.2 L299.12,14.4 Z M336.93,8.76 C336.93,9.8 336.73,10.72 336.41,11.56 C336.05,12.44 335.57,13.2 335.01,13.84 C334.37,14.52 333.65,15.04 332.85,15.44 C332.01,15.88 331.13,16.16 330.17,16.24 L330.17,19.44 C333.37,19.44 336.89,19.04 340.69,18.16 C340.73,18.68 340.77,19.16 340.85,19.64 C340.89,20.16 340.93,20.64 341.01,21.12 C337.17,22 332.77,22.44 327.77,22.44 L317.97,22.44 L317.97,19.44 L326.85,19.44 L326.85,16.24 C325.81,16.12 324.89,15.84 324.09,15.4 C323.25,15 322.53,14.44 321.97,13.8 C321.33,13.16 320.89,12.44 320.57,11.56 C320.21,10.72 320.05,9.8 320.05,8.76 C320.05,7.56 320.25,6.48 320.69,5.52 C321.09,4.56 321.69,3.76 322.49,3.08 C323.21,2.44 324.13,1.92 325.17,1.52 C326.17,1.2 327.29,1 328.49,1 C329.69,1 330.81,1.2 331.85,1.52 C332.85,1.92 333.73,2.44 334.53,3.08 C335.25,3.76 335.85,4.56 336.29,5.52 C336.69,6.48 336.93,7.56 336.93,8.76 Z M333.65,8.72 C333.65,7.96 333.49,7.28 333.25,6.64 C332.97,6.04 332.61,5.52 332.17,5.08 C331.69,4.68 331.13,4.36 330.53,4.12 C329.89,3.92 329.21,3.8 328.53,3.8 C327.81,3.8 327.17,3.92 326.57,4.12 C325.93,4.36 325.37,4.64 324.93,5.04 C324.45,5.48 324.05,6 323.81,6.6 C323.49,7.24 323.37,7.92 323.37,8.72 C323.37,9.56 323.49,10.28 323.81,10.84 C324.05,11.48 324.45,11.96 324.93,12.36 C325.37,12.76 325.93,13.08 326.57,13.24 C327.17,13.48 327.81,13.56 328.53,13.56 C329.21,13.56 329.89,13.48 330.53,13.24 C331.13,13.04 331.69,12.72 332.17,12.32 C332.61,11.92 332.97,11.44 333.25,10.8 C333.49,10.24 333.65,9.52 333.65,8.72 Z M346.37,13.4 L346.37,26 L342.85,26 L342.85,0 L346.37,0 L346.37,10.32 L352.37,10.32 L352.37,13.4 L346.37,13.4 Z M346.77,36.6 L323.57,36.6 L323.57,25.52 L327.05,25.52 L327.05,33.48 L346.77,33.48 L346.77,36.6 Z M382.92,14.4 L362.4,14.4 L362.4,20.16 L383.52,20.16 L383.52,23.04 L378.32,23.04 L378.32,29.6 L388.4,29.6 L388.4,32.72 L353.44,32.72 L353.44,29.6 L363.52,29.6 L363.52,23.04 L358.92,23.04 L358.92,11.48 L379.4,11.48 L379.4,6.12 L358.92,6.12 L358.92,3.2 L382.92,3.2 L382.92,14.4 Z M374.92,29.6 L374.92,23.04 L366.92,23.04 L366.92,29.6 L374.92,29.6 Z M391.87,29 L391.87,27.04 L401.35,27.04 L401.35,18.88 L394.07,18.88 L394.07,3.52 L410.83,3.52 L410.83,5.52 L396.31,5.52 L396.31,16.92 L411.55,16.92 L411.55,18.88 L403.55,18.88 L403.55,27.04 C405.47,27.04 407.39,26.96 409.35,26.72 C411.27,26.52 413.23,26.2 415.23,25.8 L415.51,27.72 C413.51,28.16 411.35,28.48 409.11,28.68 C406.79,28.92 404.31,29 401.67,29 L391.87,29 Z M420.95,37.6 L418.71,37.6 L418.71,0 L420.95,0 L420.95,37.6 Z M458.26,20 L456.02,20 L456.02,10.6 L447.78,10.6 C447.7,11.8 447.38,12.88 446.9,13.8 C446.38,14.76 445.74,15.6 444.94,16.24 C444.14,16.96 443.22,17.48 442.18,17.8 C441.14,18.2 440.02,18.36 438.86,18.36 C437.58,18.36 436.38,18.16 435.3,17.76 C434.18,17.36 433.26,16.8 432.46,16.04 C431.62,15.32 430.98,14.4 430.54,13.32 C430.06,12.28 429.86,11.12 429.86,9.8 C429.86,8.52 430.06,7.36 430.54,6.28 C430.98,5.24 431.62,4.36 432.46,3.6 C433.26,2.88 434.18,2.28 435.3,1.88 C436.38,1.48 437.58,1.28 438.86,1.28 C439.98,1.28 441.1,1.48 442.14,1.8 C443.14,2.16 444.06,2.64 444.86,3.28 C445.62,3.92 446.26,4.72 446.78,5.6 C447.26,6.52 447.58,7.52 447.74,8.64 L456.02,8.64 L456.02,0 L458.26,0 L458.26,20 Z M445.58,9.8 C445.58,8.84 445.38,7.92 445.06,7.12 C444.7,6.32 444.22,5.64 443.66,5.04 C443.02,4.48 442.34,4.04 441.54,3.72 C440.7,3.44 439.82,3.28 438.9,3.28 C437.94,3.28 437.06,3.44 436.26,3.72 C435.42,4.04 434.7,4.48 434.1,5.04 C433.46,5.6 432.98,6.28 432.66,7.08 C432.26,7.92 432.1,8.84 432.1,9.8 C432.1,10.84 432.26,11.72 432.62,12.52 C432.94,13.32 433.42,14 434.06,14.56 C434.62,15.16 435.34,15.6 436.22,15.88 C437.02,16.2 437.94,16.36 438.9,16.36 C439.86,16.36 440.74,16.2 441.58,15.88 C442.38,15.6 443.06,15.16 443.7,14.56 C444.26,14 444.74,13.32 445.1,12.48 C445.42,11.68 445.58,10.8 445.58,9.8 Z M460.86,35.44 C460.58,35.64 460.3,35.88 460.06,36.12 C459.78,36.36 459.5,36.56 459.26,36.8 C457.9,35.92 456.7,34.84 455.66,33.52 C454.58,32.2 453.7,30.68 453.02,29 C452.78,29.64 452.42,30.36 451.94,31.12 C451.46,31.92 450.9,32.64 450.34,33.36 C449.7,34.08 449.06,34.72 448.38,35.36 C447.66,35.96 446.98,36.44 446.34,36.76 L446.34,36.8 C445.66,36.32 445.02,35.76 444.38,35.2 C443.7,34.6 443.06,33.96 442.5,33.32 C441.9,32.64 441.38,31.92 440.94,31.2 C440.46,30.48 440.06,29.76 439.82,29 C439.1,30.68 438.22,32.2 437.18,33.52 C436.1,34.84 434.9,35.92 433.58,36.8 C433.3,36.56 433.02,36.36 432.78,36.12 C432.5,35.88 432.22,35.64 431.98,35.44 C432.86,34.88 433.7,34.2 434.5,33.48 C435.26,32.76 435.94,31.92 436.58,30.96 C437.14,30 437.62,28.96 438.02,27.84 C438.38,26.76 438.58,25.6 438.66,24.32 L438.66,22.36 L440.86,22.36 L440.86,24.32 C440.86,25.4 440.98,26.4 441.3,27.32 C441.58,28.28 441.98,29.2 442.5,30 C442.98,30.88 443.54,31.64 444.22,32.32 C444.86,33.04 445.58,33.68 446.38,34.28 C447.02,33.76 447.7,33.16 448.42,32.52 C449.06,31.88 449.66,31.08 450.22,30.2 C450.7,29.36 451.14,28.4 451.5,27.36 C451.82,26.32 451.98,25.2 451.98,23.96 L451.98,22.36 L454.18,22.36 L454.18,24.32 C454.18,25.6 454.34,26.76 454.74,27.84 C455.1,28.96 455.62,30 456.26,30.96 C456.86,31.92 457.58,32.76 458.38,33.48 C459.18,34.2 459.98,34.88 460.86,35.44 Z M469.37,36.8 L469.37,23.36 L471.61,23.36 L471.61,27.6 L490.69,27.6 L490.69,23.36 L492.97,23.36 L492.97,36.8 L469.37,36.8 Z M490.69,29.52 L471.61,29.52 L471.61,34.88 L490.69,34.88 L490.69,29.52 Z M495.57,12.04 C495.33,12.32 495.09,12.6 494.85,12.84 C494.57,13.12 494.33,13.36 494.09,13.6 C490.77,13.04 488.01,12.12 485.85,10.88 C483.61,9.68 482.05,8.2 481.17,6.44 C480.21,8.2 478.65,9.64 476.49,10.84 C474.29,12.08 471.53,13 468.21,13.6 C467.97,13.36 467.73,13.12 467.49,12.84 C467.21,12.6 466.97,12.32 466.73,12.04 C468.81,11.72 470.65,11.28 472.29,10.64 C473.89,10.04 475.29,9.32 476.45,8.48 C477.57,7.68 478.45,6.76 479.09,5.76 C479.65,4.8 479.97,3.8 479.97,2.76 L479.97,0.56 L482.33,0.56 L482.33,2.76 C482.33,3.8 482.61,4.84 483.25,5.8 C483.85,6.8 484.73,7.72 485.89,8.52 C487.01,9.36 488.37,10.08 490.05,10.64 C491.65,11.28 493.49,11.72 495.57,12.04 Z M498.97,17.8 L498.97,19.76 L463.37,19.76 L463.37,17.8 L498.97,17.8 Z M506.84,23.56 C509.96,23.56 513,23.48 515.88,23.24 C518.72,23.04 521.48,22.72 524.12,22.28 L524.4,24.2 C519.12,25.08 512.52,25.52 504.6,25.52 L504.6,3.12 L506.84,3.12 L506.84,23.56 Z M531.2,37.6 L528.96,37.6 L528.96,0 L531.2,0 L531.2,37.6 Z" id="Shape"></path>
                </g>
            </g>
        </g>
    </g>
</svg>