<?xml version="1.0" encoding="UTF-8"?>
<svg width="864px" height="64px" viewBox="0 0 864 64" version="1.1" xmlns="http://www.w3.org/2000/svg" xmlns:xlink="http://www.w3.org/1999/xlink">
    <title>Path 7</title>
    <defs>
        <linearGradient x1="3.49877232%" y1="49.8118834%" x2="96.574442%" y2="50.2151121%" id="linearGradient-1">
            <stop stop-color="#1584B9" offset="0.0600961538%"></stop>
            <stop stop-color="#770DAC" offset="29.207123%"></stop>
            <stop stop-color="#B80D0D" offset="54.4901616%"></stop>
            <stop stop-color="#E5A20A" offset="76.5687764%"></stop>
            <stop stop-color="#43A800" offset="100%"></stop>
        </linearGradient>
    </defs>
    <g id="비회원" stroke="none" stroke-width="1" fill="none" fill-rule="evenodd" opacity="0.100000001">
        <g id="non-mem-2" transform="translate(-100.000000, -188.000000)" fill="url(#linearGradient-1)" fill-rule="nonzero">
            <g id="Group-21" transform="translate(100.000000, 104.000000)">
                <g id="Group-18" transform="translate(0.000000, 10.000000)">
                    <g id="Easy-Equity-E∙ROUM-M" transform="translate(0.000000, 74.582359)">
                        <path d="M863.355469,10.8967969 L849.34988,10.8967969 L849.34988,48.875339 L838.10054,48.875339 L838.10054,10.8967969 L824.351346,10.8967969 L824.351346,2.21140878 L863.355469,2.21140878 L863.355469,10.8967969 Z M28.9406105,29.1008576 L11.2493403,29.1008576 L11.2493403,40.2220003 L32.1455508,40.2220003 L32.1455508,48.875339 L0,48.875339 L0,2.21140878 L32.2096496,2.21140878 L32.2096496,10.8967969 L11.2493403,10.8967969 L11.2493403,20.7359635 L28.9406105,20.7359635 L28.9406105,29.1008576 Z M54.8789716,48.875339 C54.4943788,48.1702521 54.1525185,47.1339881 53.8533908,45.7665469 C51.8663278,48.2664003 49.0887129,49.516327 45.5205461,49.516327 C42.251507,49.516327 39.4738921,48.5281371 37.1877014,46.5517573 C34.9015107,44.5753774 33.7584153,42.0915487 33.7584153,39.1002712 C33.7584153,35.3398079 35.1472228,32.4980942 37.9248377,30.5751301 C40.7024526,28.6521659 44.7406773,27.6906838 50.0395118,27.6906838 L53.3726497,27.6906838 L53.3726497,25.8638679 C53.3726497,22.6802939 51.9945254,21.0885069 49.2382768,21.0885069 C46.6743246,21.0885069 45.3923485,22.3491167 45.3923485,24.8703364 L34.5916998,24.8703364 C34.5916998,21.5158323 36.0178982,18.7916331 38.870295,16.6977387 C41.7226919,14.6038444 45.3602991,13.5568973 49.7831166,13.5568973 C54.2059342,13.5568973 57.6993191,14.6358938 60.2632713,16.793887 C62.8272235,18.9518801 64.141249,21.9111082 64.2053478,25.6715715 L64.2053478,41.0232353 C64.2480803,44.2068093 64.7395045,46.6425639 65.6796203,48.3304991 L65.6796203,48.875339 L54.8789716,48.875339 Z M48.1165477,41.8244704 C49.4626226,41.8244704 50.5790101,41.5360258 51.4657103,40.9591365 C52.3524104,40.3822473 52.9880569,39.7305761 53.3726497,39.004123 L53.3726497,33.4595763 L50.2318083,33.4595763 C46.471345,33.4595763 44.5911134,35.1475115 44.5911134,38.5233819 C44.5911134,39.5062303 44.9222906,40.3021238 45.5846449,40.9110624 C46.2469992,41.5200011 47.0909668,41.8244704 48.1165477,41.8244704 Z M87.4515591,39.1323206 C87.4515591,38.213571 86.970818,37.4764348 86.009336,36.9209118 C85.0478539,36.3653888 83.2210379,35.7884996 80.5288881,35.190244 C77.8367383,34.5919885 75.6146464,33.8067782 73.8626124,32.834613 C72.1105784,31.8624477 70.7751866,30.6819614 69.856437,29.293154 C68.9376875,27.9043465 68.4783127,26.3125595 68.4783127,24.517793 C68.4783127,21.334219 69.7923382,18.7115095 72.4203893,16.6496646 C75.0484403,14.5878197 78.4884095,13.5568973 82.7402969,13.5568973 C87.3126783,13.5568973 90.9876765,14.5931613 93.7652914,16.6656893 C96.5429063,18.7382174 97.9317137,21.4624166 97.9317137,24.838287 L87.0990156,24.838287 C87.0990156,22.0606721 85.6354263,20.6718647 82.7082475,20.6718647 C81.5758353,20.6718647 80.6250363,20.9870171 79.8558507,21.617322 C79.086665,22.247627 78.7020722,23.0328373 78.7020722,23.9729531 C78.7020722,24.9344352 79.1721301,25.714304 80.1122459,26.3125595 C81.0523617,26.910815 82.553342,27.4022392 84.6151869,27.786832 C86.6770318,28.1714249 88.4878231,28.6307996 90.0475607,29.1649564 C95.2609302,30.9597229 97.8676149,34.1753463 97.8676149,38.8118265 C97.8676149,41.9740343 96.4627828,44.5486696 93.6531185,46.5357326 C90.8434542,48.5227955 87.205847,49.516327 82.7402969,49.516327 C79.7703856,49.516327 77.1209683,48.9821703 74.792045,47.9138569 C72.4631218,46.8455435 70.646989,45.3926372 69.3436466,43.5551381 C68.0403042,41.717639 67.388633,39.7839917 67.388633,37.7541963 L77.4841949,37.7541963 C77.5269274,39.3566664 78.0610841,40.5264696 79.086665,41.2636058 C80.1122459,42.0007421 81.4262714,42.3693102 83.0287415,42.3693102 C84.503014,42.3693102 85.6087184,42.0701825 86.3458547,41.471927 C87.0829909,40.8736714 87.4515591,40.0938026 87.4515591,39.1323206 Z M115.889774,33.7480209 L121.658666,14.1978853 L133.2285,14.1978853 L119.094714,54.6762808 L118.485775,56.1505533 C116.477346,60.6374697 112.930545,62.8809279 107.845374,62.8809279 C106.4352,62.8809279 104.950244,62.6672652 103.390507,62.2399398 L103.390507,54.5160338 L104.80068,54.5160338 C106.317685,54.5160338 107.476805,54.2970296 108.27804,53.8590211 C109.079276,53.4210126 109.672189,52.6358022 110.056782,51.50339 L110.922116,49.195833 L98.8715408,14.1978853 L110.409326,14.1978853 L115.889774,33.7480209 Z M180.041417,29.1008576 L162.350147,29.1008576 L162.350147,40.2220003 L183.246357,40.2220003 L183.246357,48.875339 L151.100806,48.875339 L151.100806,2.21140878 L183.310456,2.21140878 L183.310456,10.8967969 L162.350147,10.8967969 L162.350147,20.7359635 L180.041417,20.7359635 L180.041417,29.1008576 Z M184.474629,31.1840687 C184.474629,25.6715715 185.67114,21.3555853 188.064162,18.2361101 C190.457184,15.1166349 193.758273,13.5568973 197.967427,13.5568973 C201.514228,13.5568973 204.355942,15.0098035 206.492568,17.915616 L207.261754,14.1978853 L216.62018,14.1978853 L216.62018,62.2078904 L205.787482,62.2078904 L205.787482,45.9908927 C203.714954,48.3411822 201.086903,49.516327 197.903329,49.516327 C193.801005,49.516327 190.537308,47.9298816 188.112236,44.7569907 C185.687165,41.5840999 184.474629,37.0597925 184.474629,31.1840687 Z M195.275278,31.8571062 C195.275278,38.0746903 197.070044,41.1834823 200.659577,41.1834823 C203.138064,41.1834823 204.847366,40.2433665 205.787482,38.3631349 L205.787482,24.6459906 C204.890098,22.8084915 203.202163,21.889742 200.723676,21.889742 C197.369172,21.889742 195.563722,24.5712087 195.307327,29.934142 L195.275278,31.8571062 Z M242.494442,45.1255588 C240.208251,48.0527376 237.120826,49.516327 233.232165,49.516327 C229.428969,49.516327 226.549864,48.4106226 224.594851,46.1992138 C222.639837,43.9878051 221.66233,40.8095726 221.66233,36.6645166 L221.66233,14.1978853 L232.462979,14.1978853 L232.462979,36.7286154 C232.462979,39.6985267 233.905202,41.1834823 236.789648,41.1834823 C239.268135,41.1834823 241.030853,40.2967822 242.0778,38.5233819 L242.0778,14.1978853 L252.942547,14.1978853 L252.942547,48.875339 L242.814936,48.875339 L242.494442,45.1255588 Z M269.362236,48.875339 L258.529538,48.875339 L258.529538,14.1978853 L269.362236,14.1978853 L269.362236,48.875339 Z M257.88855,5.25610202 C257.88855,3.7177307 258.444073,2.45712087 259.555119,1.47427252 C260.666165,0.491424173 262.108388,0 263.881788,0 C265.655188,0 267.097411,0.491424173 268.208457,1.47427252 C269.319503,2.45712087 269.875026,3.7177307 269.875026,5.25610202 C269.875026,6.79447335 269.319503,8.05508318 268.208457,9.03793153 C267.097411,10.0207799 265.655188,10.512204 263.881788,10.512204 C262.108388,10.512204 260.666165,10.0207799 259.555119,9.03793153 C258.444073,8.05508318 257.88855,6.79447335 257.88855,5.25610202 Z M305.150158,14.1978853 L310.630606,33.7480209 L316.399498,14.1978853 L327.969333,14.1978853 L313.835546,54.6762808 L313.226607,56.1505533 C311.218178,60.6374697 307.671378,62.8809279 302.586206,62.8809279 C301.176032,62.8809279 299.691076,62.6672652 298.131339,62.2399398 L298.131339,54.5160338 L299.541512,54.5160338 C301.058517,54.5160338 302.217638,54.2970296 303.018873,53.8590211 C303.820108,53.4210126 304.413022,52.6358022 304.797614,51.50339 L305.662948,49.195833 L293.612373,14.1978853 L305.150158,14.1978853 Z M287.704888,5.57659605 L287.704888,14.1978853 L293.409682,14.1978853 L293.409682,21.6974456 L287.704888,21.6974456 L287.704888,37.5618998 C287.704888,38.8652422 287.939917,39.7733086 288.409975,40.2860991 C288.880033,40.7988895 289.809466,41.0552847 291.198273,41.0552847 C292.266587,41.0552847 293.16397,40.9911859 293.890423,40.8629883 L293.890423,48.5868943 C291.946093,49.2065161 289.916297,49.516327 287.801037,49.516327 C284.083306,49.516327 281.33774,48.64031 279.56434,46.888276 C277.79094,45.136242 276.90424,42.4761416 276.90424,38.9079747 L276.90424,21.6974456 L272.481422,21.6974456 L272.481422,14.1978853 L276.90424,14.1978853 L276.90424,5.57659605 L287.704888,5.57659605 Z M374.782249,29.1008576 L357.090979,29.1008576 L357.090979,40.2220003 L377.987189,40.2220003 L377.987189,48.875339 L345.841639,48.875339 L345.841639,2.21140878 L378.051288,2.21140878 L378.051288,10.8967969 L357.090979,10.8967969 L357.090979,20.7359635 L374.782249,20.7359635 L374.782249,29.1008576 Z M385.120347,30.2962136 L385.120347,20.0404048 L395.408205,20.0404048 L395.408205,30.2962136 L385.120347,30.2962136 Z M422.315844,32.401946 L416.226458,32.401946 L416.226458,48.875339 L404.977117,48.875339 L404.977117,2.21140878 L423.341425,2.21140878 C428.875289,2.21140878 433.201958,3.43996921 436.321433,5.89709008 C439.440908,8.35421094 441.000646,11.8262296 441.000646,16.3131459 C441.000646,19.5608187 440.343633,22.2529685 439.029608,24.3895954 C437.715582,26.5262222 435.659079,28.25689 432.860098,29.5815986 L442.603116,48.3945979 L442.603116,48.875339 L430.552541,48.875339 L422.315844,32.401946 Z M416.226458,23.7165579 L423.341425,23.7165579 C425.478052,23.7165579 427.085864,23.1556934 428.16486,22.0339643 C429.243857,20.9122352 429.783355,19.347156 429.783355,17.3387268 C429.783355,15.3302976 429.238515,13.7545353 428.148835,12.6114399 C427.059156,11.4683446 425.456686,10.8967969 423.341425,10.8967969 L416.226458,10.8967969 L416.226458,23.7165579 Z M486.425044,26.5048559 C486.425044,31.0558711 485.581076,35.0834127 483.893141,38.5874807 C482.205206,42.0915487 479.806842,44.7890401 476.69805,46.6799549 C473.589258,48.5708696 470.047799,49.516327 466.073673,49.516327 C462.099547,49.516327 458.574113,48.602919 455.49737,46.7761031 C452.420628,44.9492871 450.022264,42.3372608 448.302279,38.9400241 C446.582295,35.5427875 445.67957,31.6434435 445.594105,27.2419922 L445.594105,24.6139412 C445.594105,20.0415598 446.432731,16.0086766 448.109983,12.5152917 C449.787235,9.02190683 452.19094,6.32441544 455.321099,4.42281756 C458.451257,2.52121967 462.014082,1.57042073 466.009574,1.57042073 C469.962334,1.57042073 473.487768,2.51053654 476.585877,4.39076815 C479.683986,6.27099977 482.093033,8.94712489 483.813017,12.4191435 C485.533002,15.8911621 486.403677,19.8706296 486.425044,24.357546 L486.425044,26.5048559 Z M474.983407,24.5498424 C474.983407,19.9133621 474.20888,16.3932694 472.659825,13.9895642 C471.110771,11.585859 468.894021,10.3840064 466.009574,10.3840064 C460.368879,10.3840064 457.388285,14.6145276 457.067791,23.0755699 L457.035742,26.5048559 C457.035742,31.0772374 457.794244,34.5919885 459.311249,37.0491094 C460.828254,39.5062303 463.082396,40.7347907 466.073673,40.7347907 C468.915387,40.7347907 471.105429,39.5275965 472.643801,37.1132082 C474.182172,34.6988199 474.962041,31.2268013 474.983407,26.6971524 L474.983407,24.5498424 Z M527.939414,2.21140878 L527.939414,32.7544894 C527.939414,36.2158249 527.202278,39.2124441 525.728006,41.7443469 C524.253733,44.2762497 522.138473,46.2045554 519.382224,47.529264 C516.625975,48.8539727 513.367619,49.516327 509.607156,49.516327 C503.923729,49.516327 499.447496,48.0420545 496.178457,45.0935094 C492.909417,42.1449644 491.242849,38.1067397 491.17875,32.9788353 L491.17875,2.21140878 L502.492189,2.21140878 L502.492189,33.2031811 C502.620386,38.3097192 504.992042,40.8629883 509.607156,40.8629883 C511.936079,40.8629883 513.698797,40.2220003 514.895308,38.9400241 C516.091819,37.658048 516.690074,35.5748369 516.690074,32.6903906 L516.690074,2.21140878 L527.939414,2.21140878 Z M548.846019,2.21140878 L559.262075,34.6774536 L569.646082,2.21140878 L584.452906,2.21140878 L584.452906,48.875339 L573.171516,48.875339 L573.171516,37.9785421 L574.261196,15.6721579 L562.979806,48.875339 L555.544345,48.875339 L544.230905,15.6401085 L545.320585,37.9785421 L545.320585,48.875339 L534.071245,48.875339 L534.071245,2.21140878 L548.846019,2.21140878 Z M620.945915,2.21140878 L631.36197,34.6774536 L641.745977,2.21140878 L656.552801,2.21140878 L656.552801,48.875339 L645.271411,48.875339 L645.271411,37.9785421 L646.361091,15.6721579 L635.079701,48.875339 L627.64424,48.875339 L616.330801,15.6401085 L617.42048,37.9785421 L617.42048,48.875339 L606.17114,48.875339 L606.17114,2.21140878 L620.945915,2.21140878 Z M689.894574,40.1579014 L674.478811,40.1579014 L671.786662,48.875339 L659.768136,48.875339 L676.882517,2.21140878 L687.458819,2.21140878 L704.701398,48.875339 L692.618773,48.875339 L689.894574,40.1579014 Z M677.170961,31.4725133 L687.202424,31.4725133 L682.170668,15.287565 L677.170961,31.4725133 Z M724.550373,32.401946 L718.460986,32.401946 L718.460986,48.875339 L707.211646,48.875339 L707.211646,2.21140878 L725.575953,2.21140878 C731.109817,2.21140878 735.436486,3.43996921 738.555962,5.89709008 C741.675437,8.35421094 743.235174,11.8262296 743.235174,16.3131459 C743.235174,19.5608187 742.578162,22.2529685 741.264136,24.3895954 C739.950111,26.5262222 737.893607,28.25689 735.094626,29.5815986 L744.837644,48.3945979 L744.837644,48.875339 L732.787069,48.875339 L724.550373,32.401946 Z M718.460986,23.7165579 L725.575953,23.7165579 C727.71258,23.7165579 729.320392,23.1556934 730.399389,22.0339643 C731.478385,20.9122352 732.017883,19.347156 732.017883,17.3387268 C732.017883,15.3302976 731.473044,13.7545353 730.383364,12.6114399 C729.293684,11.4683446 727.691214,10.8967969 725.575953,10.8967969 L718.460986,10.8967969 L718.460986,23.7165579 Z M765.007113,31.5045627 L760.391999,36.5683684 L760.391999,48.875339 L749.142659,48.875339 L749.142659,2.21140878 L760.391999,2.21140878 L760.391999,22.7871252 L764.302026,16.8579858 L774.365539,2.21140878 L788.274979,2.21140878 L772.506673,22.851224 L788.274979,48.875339 L774.942428,48.875339 L765.007113,31.5045627 Z M819.180998,29.1008576 L801.489728,29.1008576 L801.489728,40.2220003 L822.385938,40.2220003 L822.385938,48.875339 L790.240387,48.875339 L790.240387,2.21140878 L822.450037,2.21140878 L822.450037,10.8967969 L801.489728,10.8967969 L801.489728,20.7359635 L819.180998,20.7359635 L819.180998,29.1008576 Z" id="Path-7"></path>
                    </g>
                </g>
            </g>
        </g>
    </g>
</svg>