<?xml version="1.0" encoding="UTF-8"?>
<svg width="255px" height="112px" viewBox="0 0 255 112" version="1.1" xmlns="http://www.w3.org/2000/svg" xmlns:xlink="http://www.w3.org/1999/xlink">
    <title>Group 6</title>
    <defs>
        <path d="M16.5700729,8.16743282 C3.55692664,8.42769574 0,20.3997903 0,31.3308331 C0,42.001613 1.90859478,56.4895825 16.8303358,56.4895825 C31.0580423,56.4895825 34.0076888,43.8234535 34.0076888,31.3308331 C34.0076888,18.8382127 30.8845337,7.90716989 16.5700729,8.16743282 Z M16.5700729,14.9342689 C23.4236632,14.413743 26.1998011,19.9660187 26.1998011,31.3308331 C26.1998011,37.3168804 25.7660295,49.7227464 16.8303358,49.7227464 C8.32841359,49.7227464 7.80788774,38.7917036 7.80788774,31.3308331 C7.80788774,24.9977686 8.93569374,15.6283033 16.5700729,14.9342689 Z M45.9797833,75.488776 C45.9797833,78.0046509 47.7148695,79.3059655 49.8837272,79.3059655 C51.4453048,79.3059655 53.7009168,78.1781595 53.6141625,76.0960561 C53.3538995,70.4570261 53.5274082,59.8730005 53.5274082,52.0651128 C53.5274082,45.9055569 53.4406538,39.9195096 53.5274082,34.0202167 C53.5274082,27.8606608 53.6141625,22.0481221 53.6141625,16.8428636 L53.6141625,3.7429631 C53.6141625,1.48735109 51.1850418,-0.16098077 49.1896927,0.012527846 C47.281098,0.272790771 45.8062747,1.57410539 45.8062747,4.26348895 C46.0665377,8.08067851 46.153292,14.6740059 46.153292,22.8289109 C46.153292,28.1209237 46.2400463,41.7413501 46.2400463,47.9876603 C46.153292,56.0558109 45.9797833,63.6034358 45.9797833,75.488776 Z M122.583837,59.6127376 C117.725596,59.7862462 106.968062,60.306772 98.5528941,59.7862462 L98.5528941,49.8962551 C98.5528941,47.7273974 96.4707907,46.512837 94.6489502,46.512837 C92.5668468,46.512837 90.4847434,47.8141517 90.8317607,50.5035352 C90.918515,53.539936 91.0052693,56.7498454 90.918515,59.6994919 C85.1059763,59.9597548 76.5172998,59.9597548 70.8782698,59.7862462 C69.0564293,59.7862462 67.4080975,59.6994919 65.7597656,59.8730005 C64.1114338,60.0465091 62.7233648,61.434578 62.7233648,63.2564185 C62.7233648,65.5987848 64.3716967,66.9000995 66.2802915,66.9000995 C76.5172998,66.8133452 82.76361,66.7265908 89.0966745,66.7265908 C95.5164933,66.7265908 101.849558,66.8133452 108.356131,66.8133452 C112.086566,66.8133452 115.903756,66.9000995 119.720945,66.9000995 C119.720945,66.9000995 122.583837,66.9000995 123.798398,66.6398365 C125.533484,66.1193107 126.487781,65.078259 126.487781,62.9094013 C126.487781,60.6537893 124.839449,59.6127376 122.583837,59.6127376 Z M77.3848429,12.2448853 L81.0285239,12.2448853 C83.2841359,12.2448853 99.2469286,11.9846224 105.406484,11.9846224 C106.360782,11.9846224 106.621045,12.0713767 106.621045,13.1991827 C106.707799,15.8018119 106.707799,18.2309326 106.621045,20.8335618 C102.717101,21.180579 82.5901014,21.0938247 77.9053688,21.0938247 C74.5219507,21.0938247 73.3073904,22.3951394 73.480899,26.2123289 C73.6544077,29.5957469 73.6544077,34.3672339 73.5676533,38.2711778 C73.480899,41.4810872 74.3484421,44.257225 79.4669463,44.5174879 C81.2887868,44.6042423 84.2384333,44.6042423 87.535097,44.6042423 C93.3476356,44.6042423 100.89526,44.5174879 108.269377,44.1704707 C111.305777,43.9969621 113.561389,43.8234535 114.342178,43.7366992 C116.077264,43.4764363 117.291825,42.001613 117.291825,40.3532812 C117.291825,38.618195 116.077264,36.7963545 113.214372,36.8831088 C112.693846,36.8831088 111.826303,36.9698631 111.132269,37.0566174 C110.177971,37.1433718 107.662096,37.3168804 106.274028,37.4036347 C102.456838,37.5771433 96.1237735,37.7506519 89.2701831,37.8374062 C87.4483427,37.8374062 84.2384333,37.8374062 82.6768557,37.7506519 C81.635804,37.6638976 81.5490497,37.4036347 81.4622954,36.5360916 C81.2887868,34.8010054 81.2887868,30.46329 81.3755411,28.0341694 C86.2337823,27.9474151 90.2244805,27.9474151 94.2151787,27.9474151 C101.589295,27.8606608 108.789902,27.8606608 110.264726,27.7739065 C114.515687,27.5136435 114.428933,25.8653117 114.342178,23.1759281 C114.342178,13.6329542 114.16867,18.8382127 114.342178,9.90251898 C114.428933,5.99857511 113.301127,4.61050618 108.789902,4.95752341 C106.53429,5.13103203 98.8999113,5.21778634 90.918515,5.21778634 C87.7953599,5.21778634 84.5854505,5.30454065 81.635804,5.30454065 L77.9053688,5.30454065 C74.608705,5.30454065 73.8279163,6.9528725 73.8279163,8.77471297 C73.8279163,10.4230448 74.868968,12.158131 77.3848429,12.2448853 Z M182.270802,36.8831088 C171.16625,37.0566174 159.714681,37.2301261 148.957147,37.0566174 C146.007501,36.9698631 140.541979,36.7096002 137.245316,36.6228459 C136.291018,36.6228459 134.295669,36.4493373 133.51488,36.5360916 C131.432777,36.7963545 130.044708,37.6638976 129.784445,39.746001 C129.524182,42.0883673 130.565234,43.3029276 132.387074,43.7366992 C133.601635,43.9102078 136.638035,43.9102078 137.679087,43.9102078 C144.272415,44.0837164 151.733285,44.0837164 158.326612,44.0837164 L158.326612,52.5856386 L144.879695,52.5856386 C142.537328,52.5856386 140.281716,53.0194102 140.281716,56.4028282 C140.281716,67.9411512 140.194962,71.6715864 140.194962,74.5344786 C140.194962,78.2649138 141.669785,80 146.614781,80 C161.536522,80 164.486168,80 178.713875,79.3927198 C181.22975,79.3059655 183.05159,78.2649138 183.138345,75.4020217 C183.311853,69.7629916 183.311853,56.3160739 183.311853,56.3160739 C183.398608,53.3664274 181.750276,52.41213 179.494664,52.41213 C175.417211,52.41213 170.645724,52.5856386 166.1345,52.5856386 L166.1345,46.1658198 L166.1345,44.0837164 C171.686776,44.0837164 177.065543,43.9969621 183.572116,43.9969621 C183.572116,43.9969621 189.731672,43.8234535 190.599215,43.7366992 C192.247547,43.4764363 193.548862,42.9559104 193.548862,40.3532812 C193.548862,38.0109148 192.50781,36.4493373 189.905181,36.7096002 C189.644918,36.7096002 184.179396,36.8831088 182.270802,36.8831088 Z M160.061699,1.57410539 C151.212759,1.83436832 140.628734,5.99857511 140.628734,16.3223378 C140.628734,26.8196091 149.130656,30.7235529 160.061699,30.7235529 C169.691427,30.7235529 181.923784,28.8149582 181.750276,16.4090921 C181.576767,4.52375187 170.992741,1.40059678 160.061699,1.57410539 Z M149.390919,72.8861467 C148.263113,72.8861467 148.263113,72.2788666 148.263113,71.5848321 C148.263113,67.0736081 148.263113,63.6901901 148.349867,59.6127376 C151.559776,59.6127376 155.810738,59.5259833 161.363013,59.5259833 C166.308009,59.5259833 171.079496,59.439229 174.289405,59.439229 C175.243703,59.439229 175.503965,59.7862462 175.503965,60.4802807 L175.503965,72.5391295 C168.476867,72.8861467 165.787483,72.972901 161.015996,72.972901 C157.372315,72.972901 152.774337,72.8861467 149.390919,72.8861467 Z M173.942388,16.4090921 C173.768879,23.1759281 166.74178,24.0434712 160.061699,24.0434712 C154.682932,24.0434712 148.61013,22.6554023 148.783639,16.3223378 C148.957147,10.4230448 154.335914,8.34094143 160.49547,8.08067851 C167.609323,7.90716989 174.115897,9.90251898 173.942388,16.4090921 Z" id="path-1"></path>
    </defs>
    <g id="멤버등급" stroke="none" stroke-width="1" fill="none" fill-rule="evenodd">
        <g id="mem-grade9" transform="translate(-605.000000, -532.000000)">
            <g id="Group-6" transform="translate(605.000000, 532.654000)">
                <g id="Rectangle" transform="translate(10.580000, 20.581368)">
                    <mask id="mask-2" fill="white">
                        <use xlink:href="#path-1"></use>
                    </mask>
                    <use id="Mask" fill="#FFFFFF" fill-rule="nonzero" xlink:href="#path-1"></use>
                </g>
                <path d="M5.32595101,100.214828 C9.17280119,98.5260003 13.9166161,99.5244502 14.9383243,101.287512 C15.3529478,102.002635 14.5165727,103.309157 13.2667622,102.862514 C12.0145756,102.415872 11.3564055,102.762298 10.8217907,103.326478 C10.2360905,103.947571 9.63019381,105.883846 12.098926,106.95653 C13.9926502,107.78053 17.2549883,107.698872 19.7225324,105.157588 C21.0353086,103.807763 21.1172829,102.456701 21.7516924,101.804677 C22.6831101,100.847056 23.8960916,100.991813 24.6100993,101.864064 C24.7776119,102.066971 24.8833468,102.294623 24.9427485,102.539596 C25.3205429,104.096039 23.7416473,106.358945 22.7567681,107.493491 C21.6162567,108.807436 18.8065591,111.201489 14.9929738,111.338822 C11.1770125,111.473681 8.57997282,109.682162 6.64941954,108.16531 C4.72005428,106.650933 2.51506542,104.46721 0,105.502777 C0,105.502777 1.45771624,101.961806 5.23684855,100.256894 C5.2677374,100.242047 5.29625019,100.228438 5.32595101,100.214828 Z M12.6129819,89.3466713 L12.8734346,89.3553865 C18.4295627,89.6486911 18.7204448,94.8907287 18.7341402,95.6123734 L18.7346482,95.6944805 L18.7128683,95.7257431 C20.0668522,95.7389695 24.2679533,96.1658243 25,100.835976 C24.5208422,100.475254 23.9569847,100.266035 23.3604574,100.240784 C22.5207212,100.207117 21.7003448,100.540184 21.0469478,101.181067 C20.6428096,101.577862 20.4225906,102.06123 20.1902716,102.572253 C19.9143929,103.177064 19.6288342,103.803519 18.9802771,104.440795 C16.8797265,106.504127 14.0773792,106.678476 12.3628169,105.96665 C11.886079,105.769455 11.2956017,105.429174 11.1951721,104.93258 C11.1262024,104.593501 11.2992317,104.249612 11.4069212,104.141395 C11.66223,103.882878 11.9054389,103.639991 12.8032549,103.946605 C13.8196503,104.291696 14.8541957,104.011535 15.5027527,103.214339 C16.0726602,102.513335 16.1730897,101.577862 15.7520116,100.88287 C14.2080586,98.34098 8.68564341,97.9081132 5,99.2776557 C5.11857947,94.3682247 7.88583701,89.0932616 12.8734346,89.3553865 Z" id="Fill-2471" fill="#FFFFFF"></path>
                <path d="M185.466574,10.395905 C187.248141,9.64487369 189.445114,10.08889 189.918291,10.8729337 C190.110313,11.1909528 189.722968,11.7719704 189.144151,11.573346 C188.564234,11.3747216 188.25942,11.5287793 188.011827,11.7796733 C187.740576,12.0558767 187.45997,12.9169493 188.603299,13.3939779 C189.480327,13.7604152 190.991193,13.7241016 192.133971,12.5939783 C192.741949,11.9937035 192.779913,11.3928784 193.073723,11.1029198 C193.505085,10.6770603 194.066845,10.7414344 194.397519,11.1293297 C194.475098,11.2195635 194.524066,11.3208014 194.551577,11.4297422 C194.726542,12.1219015 193.995318,13.1282284 193.539197,13.6327674 C193.011,14.2170862 191.709762,15.281735 189.943601,15.3428079 C188.176339,15.4027803 186.973588,14.6060819 186.079503,13.9315293 C185.185969,13.258077 184.164786,12.2869633 183,12.7474858 C183,12.7474858 183.675103,11.172796 185.425308,10.414612 C185.439614,10.4080095 185.452819,10.4019573 185.466574,10.395905 Z M188.816909,5.34629579 L189.0203,5.35029515 C191.574292,5.48596949 191.681637,7.93572304 191.685429,8.22345988 L191.685498,8.2509816 L191.675594,8.26528696 C192.291275,8.27133923 194.201591,8.46666239 194.534465,10.6036628 C194.316584,10.438601 194.060188,10.3428651 193.788936,10.3313108 C193.407093,10.315905 193.034053,10.4683121 192.736942,10.761572 C192.553173,10.94314 192.453036,11.1643228 192.347396,11.3981604 C192.221949,11.674914 192.0921,11.9615714 191.79719,12.2531806 C190.842032,13.1973343 189.567755,13.2771142 188.788113,12.9513922 C188.571332,12.8611584 188.302831,12.70545 188.257164,12.4782149 C188.225802,12.3230568 188.304482,12.1656979 188.35345,12.1161793 C188.469544,11.997885 188.580135,11.8867434 188.988388,12.0270459 C189.450561,12.1849551 189.920987,12.0567571 190.215898,11.6919704 C190.475045,11.3712003 190.520712,10.94314 190.32924,10.6251208 C189.627177,9.46198519 187.116037,9.263911 185.440109,9.89059573 C185.494029,7.6441043 186.75235,5.23035022 189.0203,5.35029515 Z" id="Fill-2471-Copy-2" fill="#FFFFFF" opacity="0.5"></path>
                <path d="M22.4086086,99.8528164 C24.8705928,98.8676668 27.9066343,99.4500959 28.5605276,100.478549 C28.8258866,100.895704 28.2906065,101.657841 27.4907278,101.3973 C26.6893284,101.136759 26.2680995,101.338841 25.9259461,101.667946 C25.5510979,102.03025 25.163324,103.159744 26.7433126,103.785476 C27.9552961,104.266142 30.0431925,104.218509 31.6224207,102.736093 C32.4625975,101.948695 32.515061,101.160575 32.9210831,100.780228 C33.5171905,100.221616 34.2934986,100.306057 34.7504635,100.814871 C34.8576716,100.933233 34.925342,101.06603 34.963359,101.208931 C35.2051475,102.116856 34.1946543,103.436884 33.5643316,104.098703 C32.8344043,104.865171 31.0361978,106.261702 28.5955033,106.341813 C26.153288,106.42048 24.4911826,105.375428 23.2556285,104.490598 C22.0208347,103.607211 20.6096419,102.333373 19,102.937453 C19,102.937453 19.9329384,100.871887 22.3515831,99.877355 C22.3713519,99.8686943 22.3896001,99.8607554 22.4086086,99.8528164 Z M26.8989309,92.3460163 L27.1177325,92.3520736 C30.738133,92.5423275 30.9192019,95.9505353 30.9272538,96.4041175 L30.9275213,96.4538403 L30.9133644,96.474069 C31.7934539,96.4826274 34.5241696,96.7588275 35,99.7806905 C34.6885474,99.5472819 34.3220401,99.411905 33.9342973,99.3955664 C33.3884688,99.3737816 32.8552242,99.5892955 32.4305161,100.003985 C32.1678262,100.260734 32.0246839,100.573502 31.8736766,100.904164 C31.6943554,101.295512 31.5087422,101.700865 31.0871801,102.11322 C29.7218223,103.448317 27.9002964,103.561131 26.785831,103.100538 C26.4759514,102.972942 26.0921411,102.75276 26.0268619,102.431434 C25.9820316,102.21203 26.0945006,101.989514 26.1644988,101.919491 C26.3304495,101.752215 26.4885353,101.595053 27.0721157,101.79345 C27.7327727,102.016745 28.4052272,101.835464 28.8267893,101.319631 C29.1972291,100.86604 29.2625083,100.260734 28.9888076,99.8110336 C27.9852381,98.1662812 24.3956682,97.8861909 22,98.7723655 C22.0770767,95.5956748 23.8757941,92.1824634 27.1177325,92.3520736 Z" id="Fill-2471-Copy-2" fill="#FFFFFF" opacity="0.200000003"></path>
                <path d="M198.933148,13.44581 C202.496282,11.9437474 206.890228,12.83178 207.836583,14.3998673 C208.220626,15.0359056 207.445936,16.1979408 206.288303,15.800692 C205.128468,15.4034432 204.51884,15.7115586 204.023654,16.2133466 C203.481151,16.7657535 202.919941,18.4878985 205.206597,19.4419559 C206.960654,20.1748304 209.982386,20.1022032 212.267942,17.8419566 C213.483898,16.6414069 213.559826,15.4397568 214.147446,14.8598396 C215.010169,14.0081206 216.13369,14.1368688 216.795038,14.9126594 C216.950196,15.093127 217.048133,15.2956028 217.103153,15.5134844 C217.453084,16.8978029 215.990637,18.9104568 215.078395,19.9195347 C214.021999,21.0881724 211.419525,23.21747 207.887201,23.3396157 C204.352678,23.4595607 201.947177,21.8661638 200.159007,20.5170585 C198.371938,19.1701541 196.329573,17.2279266 194,18.1489716 C194,18.1489716 195.350206,14.999592 198.850617,13.483224 C198.879228,13.4700191 198.905637,13.4579145 198.933148,13.44581 Z M205.795192,3.34649844 L206.0406,3.35459029 C211.467833,3.64289828 211.370996,9.15596321 211.370996,9.15596321 L211.351189,9.18457393 C212.58255,9.19667846 216.403181,9.58732478 217.068931,13.8613256 C216.633167,13.531202 216.120375,13.3397303 215.577872,13.3166216 C214.814186,13.2858101 214.068107,13.5906242 213.473884,14.1771439 C213.106346,14.5402799 212.906071,14.9826456 212.694792,15.4503208 C212.443898,16.0038281 212.184201,16.5771428 211.59438,17.1603613 C209.684065,19.0486685 207.13551,19.2082283 205.576226,18.5567843 C205.142664,18.3763167 204.605662,18.0649001 204.514328,17.6104299 C204.451605,17.3001136 204.608964,16.9853957 204.7069,16.8863586 C204.939087,16.64977 205.16027,16.4274868 205.976776,16.7080919 C206.901122,17.0239102 207.841975,16.7675141 208.431795,16.0379409 C208.95009,15.3964006 209.041424,14.5402799 208.65848,13.9042417 C207.254354,11.5779704 202.232073,11.181822 198.880218,12.4351915 C198.988058,7.94220859 201.504701,3.11470044 206.0406,3.35459029 Z" id="Fill-2471-Copy" fill="#FFFFFF" opacity="0.400000006"></path>
                <g id="membership-grade" transform="translate(10.924000, 0.000000)" fill="#FFFFFF" fill-rule="nonzero">
                    <path d="M0,10.892 C0,11.27 0.336,11.48 0.63,11.48 C0.938,11.48 1.302,11.256 1.302,10.864 C1.302,8.4 1.302,6.538 1.246,3.766 C1.82,5.376 2.464,6.678 3.164,8.19 C3.332,8.554 3.528,8.708 3.822,8.708 C4.102,8.708 4.298,8.512 4.452,8.176 C5.068,6.888 5.53,5.684 6.244,4.018 C6.258,5.754 6.258,6.552 6.258,8.134 C6.258,8.904 6.23,9.884 6.23,10.892 C6.23,11.27 6.538,11.466 6.846,11.466 C7.182,11.466 7.504,11.256 7.504,10.864 L7.504,9.044 C7.504,6.244 7.518,3.402 7.462,0.616 C7.448,0.238 7.126,0.14 6.846,0.14 C6.678,0.14 6.44,0.252 6.356,0.49 C5.586,2.66 4.606,5.068 3.808,6.958 C2.954,4.802 2.366,3.724 1.232,0.77 C1.162,0.588 0.994,0.28 0.826,0.196 C0.518,0.042 0,0.154 0,0.63 L0,10.892 Z" id="Path"></path>
                    <path d="M9.534,10.094 C9.534,10.612 9.674,11.074 10.444,11.074 L12.852,11.074 C13.23,11.074 13.818,11.074 14.252,11.06 C14.644,11.046 14.826,10.836 14.826,10.5 C14.826,10.136 14.63,9.926 14.252,9.926 L13.104,9.94 C12.838,9.954 12.292,9.94 11.704,9.94 L11.046,9.94 C10.892,9.94 10.822,9.884 10.822,9.688 L10.822,8.4 C10.822,7.644 10.808,6.846 10.808,6.09 C10.808,6.09 13.244,6.09 13.79,6.062 C14.154,6.048 14.392,5.824 14.392,5.432 C14.392,5.11 14.14,4.914 13.846,4.928 C13.23,4.956 12.712,4.942 12.11,4.942 C11.522,4.942 11.06,4.928 10.822,4.928 C10.808,3.64 10.766,2.548 10.752,1.274 L13.818,1.288 C14.14,1.288 14.532,1.232 14.532,0.7 C14.532,0.35 14.238,0.21 14.028,0.168 C13.874,0.14 13.594,0.126 13.132,0.126 C12.768,0.126 12.348,0.14 11.9,0.14 L10.01,0.14 C9.562,0.14 9.492,0.476 9.492,0.742 L9.492,1.302 C9.492,1.498 9.534,1.54 9.534,6.454 L9.534,10.094 Z" id="Path"></path>
                    <path d="M16.226,10.892 C16.226,11.27 16.562,11.48 16.856,11.48 C17.164,11.48 17.528,11.256 17.528,10.864 C17.528,8.4 17.528,6.538 17.472,3.766 C18.046,5.376 18.69,6.678 19.39,8.19 C19.558,8.554 19.754,8.708 20.048,8.708 C20.328,8.708 20.524,8.512 20.678,8.176 C21.294,6.888 21.756,5.684 22.47,4.018 C22.484,5.754 22.484,6.552 22.484,8.134 C22.484,8.904 22.456,9.884 22.456,10.892 C22.456,11.27 22.764,11.466 23.072,11.466 C23.408,11.466 23.73,11.256 23.73,10.864 L23.73,9.044 C23.73,6.244 23.744,3.402 23.688,0.616 C23.674,0.238 23.352,0.14 23.072,0.14 C22.904,0.14 22.666,0.252 22.582,0.49 C21.812,2.66 20.832,5.068 20.034,6.958 C19.18,4.802 18.592,3.724 17.458,0.77 C17.388,0.588 17.22,0.28 17.052,0.196 C16.744,0.042 16.226,0.154 16.226,0.63 L16.226,10.892 Z" id="Path"></path>
                    <path d="M25.816,10.752 C25.816,11.242 26.068,11.242 26.53,11.256 C28.952,11.354 30.912,10.192 30.954,8.176 C30.982,6.902 30.422,5.908 29.414,5.418 C30.226,5.026 30.786,4.116 30.758,3.08 C30.716,1.12 28.924,0.238 26.418,0.182 C25.928,0.168 25.718,0.294 25.732,0.756 C25.788,3.416 25.774,5.726 25.802,8.218 C25.802,8.708 25.816,10.304 25.816,10.752 Z M27.72,5.978 C29.218,5.978 29.722,7.154 29.694,8.148 C29.652,9.436 28.602,10.178 27.44,10.178 L27.048,10.178 L27.048,8.736 C27.048,7.812 27.034,6.916 27.02,5.978 L27.72,5.978 Z M29.47,3.094 C29.484,4.06 28.714,4.886 27.664,4.886 L27.006,4.886 C26.992,3.724 26.978,2.506 26.978,1.33 C28.434,1.47 29.456,1.96 29.47,3.094 Z" id="Shape"></path>
                    <path d="M32.62,10.094 C32.62,10.612 32.76,11.074 33.53,11.074 L35.938,11.074 C36.316,11.074 36.904,11.074 37.338,11.06 C37.73,11.046 37.912,10.836 37.912,10.5 C37.912,10.136 37.716,9.926 37.338,9.926 L36.19,9.94 C35.924,9.954 35.378,9.94 34.79,9.94 L34.132,9.94 C33.978,9.94 33.908,9.884 33.908,9.688 L33.908,8.4 C33.908,7.644 33.894,6.846 33.894,6.09 C33.894,6.09 36.33,6.09 36.876,6.062 C37.24,6.048 37.478,5.824 37.478,5.432 C37.478,5.11 37.226,4.914 36.932,4.928 C36.316,4.956 35.798,4.942 35.196,4.942 C34.608,4.942 34.146,4.928 33.908,4.928 C33.894,3.64 33.852,2.548 33.838,1.274 L36.904,1.288 C37.226,1.288 37.618,1.232 37.618,0.7 C37.618,0.35 37.324,0.21 37.114,0.168 C36.96,0.14 36.68,0.126 36.218,0.126 C35.854,0.126 35.434,0.14 34.986,0.14 L33.096,0.14 C32.648,0.14 32.578,0.476 32.578,0.742 L32.578,1.302 C32.578,1.498 32.62,1.54 32.62,6.454 L32.62,10.094 Z" id="Path"></path>
                    <path d="M39.382,10.836 C39.382,11.256 39.69,11.424 40.012,11.424 C40.292,11.424 40.6,11.256 40.628,10.878 C40.656,10.472 40.642,9.506 40.642,8.47 C40.642,7.924 40.656,7.322 40.656,6.678 L40.88,6.678 C41.804,8.218 42.63,9.758 43.624,11.172 C43.764,11.368 43.946,11.466 44.128,11.466 C44.282,11.466 44.436,11.396 44.534,11.298 C44.702,11.13 44.772,10.836 44.576,10.542 C43.638,9.072 42.924,7.84 42.112,6.384 C43.764,5.768 44.632,4.564 44.632,3.206 C44.632,1.82 43.554,0.756 42.308,0.392 C41.454,0.14 40.642,0.098 40.082,0.07 C39.522,0.042 39.368,0.308 39.368,0.672 C39.368,2.058 39.382,3.416 39.382,4.578 L39.382,10.836 Z M41.622,1.4 C42.868,1.652 43.358,2.618 43.358,3.262 C43.358,4.312 42.7,5.208 40.656,5.502 C40.642,3.976 40.628,2.548 40.628,1.26 C40.922,1.302 41.356,1.33 41.622,1.4 Z" id="Shape"></path>
                    <path d="M51.464,1.834 C51.212,0.532 50.274,0 49.042,0 C47.082,0 46.326,1.176 46.326,2.338 C46.326,3.43 47.124,4.368 48.482,5.712 C49.784,7 50.47,7.672 50.47,8.806 C50.47,9.716 49.896,10.276 48.874,10.276 C48.006,10.276 47.432,9.8 47.39,8.974 C47.348,8.596 47.054,8.428 46.746,8.428 C46.438,8.428 46.102,8.666 46.116,9.058 C46.102,10.416 47.334,11.452 48.874,11.452 C50.428,11.452 51.758,10.57 51.772,8.834 C51.786,7.49 51.212,6.594 49.378,4.83 C48.258,3.766 47.74,3.052 47.74,2.352 C47.74,1.736 48.132,1.176 49.126,1.19 C49.714,1.204 50.12,1.54 50.232,2.128 C50.288,2.45 50.54,2.576 50.792,2.576 C51.142,2.576 51.548,2.268 51.464,1.834 Z" id="Path"></path>
                    <path d="M57.596,0.714 C57.596,1.932 57.61,2.59 57.638,3.738 C57.638,3.864 57.652,4.606 57.652,4.718 C56.924,4.704 56.476,4.704 55.776,4.704 C55.356,4.704 54.852,4.69 54.404,4.704 L54.404,0.686 C54.404,0.336 54.082,0.14 53.76,0.14 C53.452,0.14 53.144,0.308 53.13,0.602 C53.102,1.26 53.102,2.114 53.102,2.898 C53.102,3.738 53.102,4.648 53.116,5.068 C53.144,6.356 53.144,7.35 53.158,8.414 C53.172,9.128 53.186,10.038 53.2,10.92 C53.242,11.298 53.522,11.494 53.83,11.494 C54.152,11.494 54.46,11.284 54.474,10.892 C54.474,10.78 54.474,9.982 54.46,9.408 C54.418,8.008 54.432,7.112 54.432,5.908 C55.174,5.908 55.664,5.894 56.35,5.894 C56.756,5.894 57.246,5.908 57.666,5.908 C57.694,7.518 57.722,9.128 57.736,10.752 C57.778,11.116 58.044,11.312 58.352,11.312 C58.646,11.312 58.982,11.116 58.996,10.724 C58.982,9.016 58.954,7.238 58.926,5.614 C58.898,3.99 58.856,2.366 58.856,0.672 C58.856,0.266 58.478,0.168 58.212,0.168 C57.932,0.168 57.596,0.336 57.596,0.714 Z" id="Path"></path>
                    <path d="M63.826,11.074 C64.204,11.074 64.386,10.808 64.386,10.57 C64.386,10.29 64.176,10.024 63.826,10.024 L62.916,10.024 L62.916,1.288 L63.896,1.288 C64.26,1.288 64.428,1.022 64.428,0.742 C64.428,0.462 64.26,0.182 63.91,0.182 L62.384,0.182 C61.88,0.182 61.376,0.168 60.858,0.168 C60.438,0.182 60.214,0.462 60.214,0.728 C60.214,0.98 60.438,1.274 60.83,1.26 C61.096,1.246 61.348,1.26 61.614,1.26 C61.656,2.408 61.656,3.416 61.656,4.578 C61.656,5.334 61.642,6.776 61.642,7.532 C61.628,8.358 61.628,9.24 61.628,10.038 L60.76,10.038 C60.34,10.038 60.228,10.304 60.228,10.57 C60.228,10.808 60.34,11.074 60.746,11.074 L63.826,11.074 Z" id="Path"></path>
                    <path d="M65.618,10.696 C65.618,10.864 65.646,11.004 65.744,11.13 C65.884,11.312 66.108,11.368 66.29,11.368 C66.668,11.368 67.004,11.046 66.934,10.626 L66.934,7.574 C69.258,7.476 71.078,6.006 70.966,3.584 C70.91,2.114 70.168,0.966 68.978,0.504 C68.054,0.154 66.99,0.154 66.248,0.154 C65.506,0.196 65.632,0.812 65.632,0.812 L65.632,0.784 C65.646,1.764 65.66,2.982 65.66,4.368 C65.66,6.272 65.646,8.596 65.618,10.696 Z M66.934,1.33 C67.368,1.358 68.082,1.442 68.418,1.582 C69.16,1.89 69.65,2.604 69.678,3.682 C69.72,5.208 68.502,6.3 66.934,6.398 L66.934,1.33 Z" id="Shape"></path>
                    <path d="M80.836,6.328 C81.032,6.328 81.116,6.342 81.116,6.65 C81.116,7.756 81.116,8.638 81.102,9.772 C80.864,10.024 80.122,10.136 79.744,10.136 C78.19,10.136 77.042,8.694 76.986,5.88 C76.944,3.598 77.84,1.232 79.744,1.19 C80.318,1.176 80.99,1.512 81.228,1.666 C81.494,1.848 81.83,1.708 81.998,1.47 C82.138,1.26 82.166,0.994 81.942,0.784 C81.396,0.28 80.724,0.014 79.618,0.042 C76.944,0.112 75.642,2.772 75.684,5.838 C75.726,9.016 77.056,11.284 79.73,11.284 C80.374,11.284 81.452,11.088 82.04,10.612 C82.292,10.416 82.306,10.178 82.306,9.968 C82.306,9.058 82.32,8.008 82.32,7.126 C82.32,6.678 82.334,6.062 82.306,5.754 C82.25,5.25 82.054,5.166 81.606,5.18 C81.004,5.208 80.276,5.18 79.688,5.194 C79.31,5.208 79.142,5.53 79.142,5.782 C79.142,6.09 79.394,6.342 79.758,6.342 L80.836,6.328 Z" id="Path"></path>
                    <path d="M84.028,10.836 C84.028,11.256 84.336,11.424 84.658,11.424 C84.938,11.424 85.246,11.256 85.274,10.878 C85.302,10.472 85.288,9.506 85.288,8.47 C85.288,7.924 85.302,7.322 85.302,6.678 L85.526,6.678 C86.45,8.218 87.276,9.758 88.27,11.172 C88.41,11.368 88.592,11.466 88.774,11.466 C88.928,11.466 89.082,11.396 89.18,11.298 C89.348,11.13 89.418,10.836 89.222,10.542 C88.284,9.072 87.57,7.84 86.758,6.384 C88.41,5.768 89.278,4.564 89.278,3.206 C89.278,1.82 88.2,0.756 86.954,0.392 C86.1,0.14 85.288,0.098 84.728,0.07 C84.168,0.042 84.014,0.308 84.014,0.672 C84.014,2.058 84.028,3.416 84.028,4.578 L84.028,10.836 Z M86.268,1.4 C87.514,1.652 88.004,2.618 88.004,3.262 C88.004,4.312 87.346,5.208 85.302,5.502 C85.288,3.976 85.274,2.548 85.274,1.26 C85.568,1.302 86.002,1.33 86.268,1.4 Z" id="Shape"></path>
                    <path d="M93.38,0.574 C92.932,2.772 92.428,4.55 91.98,6.132 C91.574,7.518 91.154,9.044 90.804,10.696 C90.706,11.172 91.028,11.452 91.378,11.452 C91.644,11.452 91.938,11.256 92.022,10.976 C92.246,9.856 92.456,8.918 92.68,8.078 L95.2,8.078 C95.438,9.002 95.634,9.982 95.942,10.976 C96.04,11.312 96.222,11.466 96.558,11.466 C96.908,11.466 97.286,11.144 97.16,10.682 C96.81,9.422 96.474,7.896 96.124,6.44 C95.634,4.396 95.074,2.184 94.528,0.406 C94.458,0.154 94.234,0.028 93.982,0.028 C93.618,0.028 93.45,0.252 93.38,0.574 Z M93.212,6.216 C93.436,5.474 93.59,4.676 93.786,3.836 C93.87,3.514 93.968,2.996 94.038,2.66 C94.122,2.968 94.206,3.486 94.276,3.822 C94.388,4.34 94.514,5.068 94.626,5.572 C94.71,5.95 94.808,6.454 94.906,6.86 L93.03,6.86 C93.058,6.734 93.17,6.342 93.212,6.216 Z" id="Shape"></path>
                    <path d="M98.77,0.7 L98.77,1.148 C98.77,2.03 98.812,2.884 98.826,3.752 L98.868,5.768 C98.882,6.3 98.882,6.832 98.882,7.364 C98.896,8.456 98.91,9.73 98.952,10.486 C99.008,11.158 99.344,11.242 99.974,11.228 C102.802,11.186 104.37,9.212 104.412,5.614 C104.454,1.988 102.746,0.322 99.638,0.182 C99.19,0.168 98.798,0.154 98.77,0.7 Z M100.1,5.726 C100.086,5.222 100.086,4.718 100.072,4.228 C100.044,3.262 100.016,2.31 100.016,1.344 C101.976,1.26 103.166,3.122 103.166,5.558 C103.166,7.994 102.032,10.122 100.394,10.122 C100.324,10.122 100.254,10.122 100.17,10.108 C100.142,8.68 100.114,7.154 100.1,5.726 Z" id="Shape"></path>
                    <path d="M106.19,10.094 C106.19,10.612 106.33,11.074 107.1,11.074 L109.508,11.074 C109.886,11.074 110.474,11.074 110.908,11.06 C111.3,11.046 111.482,10.836 111.482,10.5 C111.482,10.136 111.286,9.926 110.908,9.926 L109.76,9.94 C109.494,9.954 108.948,9.94 108.36,9.94 L107.702,9.94 C107.548,9.94 107.478,9.884 107.478,9.688 L107.478,8.4 C107.478,7.644 107.464,6.846 107.464,6.09 C107.464,6.09 109.9,6.09 110.446,6.062 C110.81,6.048 111.048,5.824 111.048,5.432 C111.048,5.11 110.796,4.914 110.502,4.928 C109.886,4.956 109.368,4.942 108.766,4.942 C108.178,4.942 107.716,4.928 107.478,4.928 C107.464,3.64 107.422,2.548 107.408,1.274 L110.474,1.288 C110.796,1.288 111.188,1.232 111.188,0.7 C111.188,0.35 110.894,0.21 110.684,0.168 C110.53,0.14 110.25,0.126 109.788,0.126 C109.424,0.126 109.004,0.14 108.556,0.14 L106.666,0.14 C106.218,0.14 106.148,0.476 106.148,0.742 L106.148,1.302 C106.148,1.498 106.19,1.54 106.19,6.454 L106.19,10.094 Z" id="Path"></path>
                </g>
            </g>
        </g>
    </g>
</svg>