<?xml version="1.0" encoding="UTF-8"?>
<svg width="45px" height="55px" viewBox="0 0 45 55" version="1.1" xmlns="http://www.w3.org/2000/svg" xmlns:xlink="http://www.w3.org/1999/xlink">
    <title>Group 35</title>
    <defs>
        <linearGradient x1="33.6314596%" y1="8.19682253%" x2="65.5015634%" y2="75.2755441%" id="linearGradient-1">
            <stop stop-color="#C61FFF" offset="0%"></stop>
            <stop stop-color="#FF621E" offset="100%"></stop>
        </linearGradient>
    </defs>
    <g id="Page-1" stroke="none" stroke-width="1" fill="none" fill-rule="evenodd">
        <g id="non-mem-10-copy-2" transform="translate(-1790.000000, -736.000000)" fill-rule="nonzero">
            <g id="Group-35" transform="translate(1790.837792, 736.750000)">
                <path d="M37.7482361,32.6904297 L42.9152283,32.6904297 L41.2892517,42.0849609 L36.1222595,42.0849609 L34.1710876,53.25 L22.2833923,53.25 L24.2345642,42.0849609 L4.54218138,42.0849609 L5.19257201,34.0634766 L31.0275329,0.749023438 L31.0275329,0.49609375 L43.3126892,0.676757812 L37.7482361,32.6904297 Z M16.8996033,32.6181641 L25.8605408,32.6904297 L29.0402283,16.3583984 L16.8996033,32.6181641 Z" id="Shape" stroke="#1C1C1C" fill="#333333"></path>
                <path d="M33.7482361,32.6904297 L38.9152283,32.6904297 L37.2892517,42.0849609 L32.1222595,42.0849609 L30.1710876,53.25 L18.2833923,53.25 L20.2345642,42.0849609 L0.542181384,42.0849609 L1.19257201,34.0634766 L27.0275329,0.749023438 L27.0275329,0.49609375 L39.3126892,0.676757812 L33.7482361,32.6904297 Z M12.8996033,32.6181641 L21.8605408,32.6904297 L25.0402283,16.3583984 L12.8996033,32.6181641 Z" id="Shape" fill="url(#linearGradient-1)"></path>
                <path d="M26.5271814,0.57809375 L27.0665954,0 L39.9055872,0.185422839 L34.3421814,32.1900937 L39.5092004,32.1904297 L37.7101469,42.5849609 L32.5421814,42.5840937 L30.5912866,53.75 L17.6884361,53.75 L19.6391814,42.5840937 L0,42.5849609 L0.706237368,33.8747001 L26.5271814,0.57809375 Z M38.7191814,1.16709375 L27.4641814,1.00209375 L1.67818138,34.2520937 L1.08418138,41.5840937 L20.8295204,41.5849609 L18.8771814,52.7490937 L29.7501814,52.7490937 L31.7020605,41.5849609 L36.8681814,41.5840937 L38.3211814,33.1900937 L33.1538319,33.1904297 L38.7191814,1.16709375 Z M11.9082259,33.1101853 L25.9493794,14.305069 L22.2719345,33.1937636 L11.9082259,33.1101853 Z M24.1311814,18.4110937 L13.8911814,32.1260937 L21.4481814,32.1870937 L24.1311814,18.4110937 Z" id="Shape" fill="#1C1C1C"></path>
            </g>
        </g>
    </g>
</svg>