<svg id="Group_34" data-name="Group 34" xmlns="http://www.w3.org/2000/svg" width="71.368" height="35.811" viewBox="0 0 71.368 35.811">
  <path id="Path" d="M6.475,21.877H17.745v4.98H0V0H6.475Z" transform="translate(0 8.954)" fill="#fff"/>
  <path id="Shape" d="M3.354,17.3a6.314,6.314,0,0,1,0-8.925L5.6,6.115,7.483,8,5.24,10.256A3.645,3.645,0,0,0,10.4,15.41l2.242-2.255,1.886,1.886L12.28,17.3a6.312,6.312,0,0,1-8.925,0Zm3.737-2.458L5.972,13.664a1,1,0,0,1,.016-1.4L12.37,5.886A1,1,0,0,1,13.8,5.9l1.119,1.174a1,1,0,0,1-.016,1.4L8.522,14.855a1,1,0,0,1-1.431-.017Zm6.216-2.313,2.245-2.272A3.644,3.644,0,0,0,10.4,5.1L8.152,7.371,6.267,5.486,8.511,3.215a6.311,6.311,0,0,1,8.926,8.925l-2.245,2.271ZM3.053,6.666,0,6.232.2,4.805l3.054.436-.2,1.425h0Zm.674-1.912L1.544,2.574,2.563,1.555,4.746,3.736,3.729,4.755h0Zm1.516-1.5h0L4.807.2,6.233,0l.433,3.053-1.423.2Z" transform="translate(13.841)" fill="#fff"/>
  <path id="Shape-2" data-name="Shape" d="M6.235,15.942H0V1.487a11.065,11.065,0,0,0,3.356,0A8.624,8.624,0,0,0,6.235,0Z" transform="translate(20.512 19.869)" fill="#fff"/>
  <path id="Path-2" data-name="Path" d="M5.829.369l.2,2.343A6.768,6.768,0,0,1,11.732,0a5.694,5.694,0,0,1,4.658,1.863,8.87,8.87,0,0,1,1.6,5.608V20.328H11.75V7.729a3.368,3.368,0,0,0-.609-2.223A2.816,2.816,0,0,0,8.928,4.8,2.965,2.965,0,0,0,6.216,6.235V20.328H0V.369H5.829Z" transform="translate(30.455 15.484)" fill="#fff"/>
  <path id="Path-3" data-name="Path" d="M7.969,19.424,6.216,21.176v5.681H0V0H6.216V13.558l.627-.83L11.529,6.9h7.452L11.99,15.107l7.452,11.75h-7.12Z" transform="translate(51.926 8.954)" fill="#fff"/>
</svg>
