<svg id="이로움에_가입하면_다양한_혜택을_누릴" data-name="이로움에 가입하면 다양한 혜택을 누릴" xmlns="http://www.w3.org/2000/svg" xmlns:xlink="http://www.w3.org/1999/xlink" width="416.16" height="68.5" viewBox="0 0 416.16 68.5">
  <defs>
    <linearGradient id="linear-gradient" x1="0.085" y1="0.091" x2="1" y2="0.76" gradientUnits="objectBoundingBox">
      <stop offset="0" stop-color="#de455f"/>
      <stop offset="0.001" stop-color="#de455f"/>
      <stop offset="0.5" stop-color="#b03f8c"/>
      <stop offset="1" stop-color="#7739c8"/>
    </linearGradient>
  </defs>
  <path id="Combined_Shape" data-name="Combined Shape" d="M39.18,68.05a7.307,7.307,0,0,1-2.4-1.26,6.279,6.279,0,0,1-1.62-2.04,5.448,5.448,0,0,1-.6-2.64,5.745,5.745,0,0,1,.6-2.7A5.9,5.9,0,0,1,36.81,57.4a7.313,7.313,0,0,1,2.4-1.29,10.253,10.253,0,0,1,2.94-.42,9.978,9.978,0,0,1,2.97.45,8.542,8.542,0,0,1,2.43,1.26,6.8,6.8,0,0,1,1.65,2.04,6.094,6.094,0,0,1,.6,2.67,5.767,5.767,0,0,1-.6,2.61,7.131,7.131,0,0,1-1.62,2.039,8.567,8.567,0,0,1-2.43,1.291,9.893,9.893,0,0,1-3,.45A9.4,9.4,0,0,1,39.18,68.05Zm1.05-9.78a4.687,4.687,0,0,0-1.59.84,3.669,3.669,0,0,0-1.47,3,3.089,3.089,0,0,0,.419,1.679,3.411,3.411,0,0,0,1.08,1.291,5.3,5.3,0,0,0,1.59.81,6.55,6.55,0,0,0,1.89.27,7.058,7.058,0,0,0,1.95-.27,6.639,6.639,0,0,0,1.589-.81,4.035,4.035,0,0,0,1.08-1.291,3.763,3.763,0,0,0,.391-1.679,3.929,3.929,0,0,0-.391-1.68,4.854,4.854,0,0,0-1.049-1.29,5.761,5.761,0,0,0-1.59-.841,7.154,7.154,0,0,0-1.98-.3A6.612,6.612,0,0,0,40.23,58.27ZM277.139,68.2h-1.769V58.36H263.19V56.89h26.22v1.47H277.14V68.2h0Zm133.92,0H409.38V40h1.679V51.04h5.1v1.47h-5.1V68.2h0Zm-27.3,0H382.08V40h1.68V68.2h0Zm-175.62,0H206.4v-9.81H194.19V56.92h26.22v1.47H208.14V68.2h0Zm-87.241,0H118.41V40H120.9V68.2h0Zm-99.75,0h-2.64V40H21.15v10.65h4.8v2.31h-4.8V68.2h0Zm154.68-.3H158.04V61.75h15.81V58.63H158.04v-1.41h17.49v5.91H159.72v3.36h16.11V67.9h0Zm142.409-.3a18.209,18.209,0,0,1-1.468-1.171c-.572-.538-1.034-1.01-1.41-1.44a8.688,8.688,0,0,1-1.17-1.59,6.505,6.505,0,0,1-.84-1.65,15.064,15.064,0,0,1-1.98,3.389,12.151,12.151,0,0,1-2.7,2.461c-.076-.065-.152-.126-.225-.184a4.453,4.453,0,0,1-.375-.326c-.206-.176-.419-.359-.6-.51a16.2,16.2,0,0,0,1.859-1.44,13.712,13.712,0,0,0,1.561-1.89A10.714,10.714,0,0,0,312,60.97a10.281,10.281,0,0,0,.48-2.61v-1.59h1.651V58.24a6.8,6.8,0,0,0,.329,2.25,7.571,7.571,0,0,0,.9,2.01,7.429,7.429,0,0,0,1.291,1.74,10.743,10.743,0,0,0,1.62,1.471c.474-.386.979-.83,1.5-1.32a9.959,9.959,0,0,0,1.35-1.71,9.477,9.477,0,0,0,.99-2.07,7.492,7.492,0,0,0,.36-2.37V56.769h1.651v1.59A7.473,7.473,0,0,0,324.6,61a10.14,10.14,0,0,0,2.67,4.14,12.218,12.218,0,0,0,1.859,1.44,4.993,4.993,0,0,0-.6.51c-.074.063-.148.123-.22.181a4.748,4.748,0,0,0-.381.329,10.971,10.971,0,0,1-2.7-2.461,13.065,13.065,0,0,1-1.98-3.389,10.234,10.234,0,0,1-.84,1.53,17.654,17.654,0,0,1-1.291,1.769c-.466.525-.975,1.065-1.47,1.561a6.046,6.046,0,0,1-1.41.959V67.6Zm35.911,0h-17.7V57.52h1.68V60.7h14.31V57.52h1.71V67.6h0ZM338.13,66.16h14.31V62.14H338.13ZM246.6,67.6H228.991V61.15h15.39v-3.12h-15.39v-1.44H246.06V62.56H230.67v3.6H246.6V67.6h0Zm-97.2,0H146.76V59.89H131.25V57.55H149.4V67.6h0Zm-70.65-.15H61.35v-8.1h2.61v5.79H78.75v2.309h0Zm36.78-.15h-2.46V58.45H109.86V56.11h3.209v-4.5H109.86V49.3h3.209V40.6h2.461V67.3h0ZM101.55,60.04a5.014,5.014,0,0,1-1.89-1.32,5.145,5.145,0,0,1-1.229-1.98,6.437,6.437,0,0,1-.42-2.43,6.751,6.751,0,0,1,.45-2.43,5.965,5.965,0,0,1,1.2-2.01,5.8,5.8,0,0,1,1.89-1.32,6.057,6.057,0,0,1,6.81,1.32,7.215,7.215,0,0,1,1.23,2.01,7.43,7.43,0,0,1,.419,2.43,7.152,7.152,0,0,1-.419,2.43,5.99,5.99,0,0,1-1.23,1.98,5.526,5.526,0,0,1-1.89,1.32,5.992,5.992,0,0,1-2.46.48A5.889,5.889,0,0,1,101.55,60.04Zm.99-9.33a3.87,3.87,0,0,0-1.08.87,3.6,3.6,0,0,0-.66,1.26,4.194,4.194,0,0,0-.24,1.47,3.786,3.786,0,0,0,.24,1.44,3.037,3.037,0,0,0,.66,1.23,3.193,3.193,0,0,0,2.52,1.2,3.006,3.006,0,0,0,1.471-.33,3.376,3.376,0,0,0,1.08-.869,4.053,4.053,0,0,0,.689-1.23,4.542,4.542,0,0,0,.24-1.44,5,5,0,0,0-.24-1.47,5.089,5.089,0,0,0-.689-1.26,3.87,3.87,0,0,0-1.08-.87,3.411,3.411,0,0,0-1.471-.33A3.2,3.2,0,0,0,102.54,50.71ZM1.2,59.649h0v-17.1H14.16v2.34H3.81V57.34h.041c2.232,0,4.191-.078,5.989-.239,2-.151,4.014-.393,6-.72l.27,2.28a95.582,95.582,0,0,1-14.909.99Zm390.21-.21h0v-16.8h12.75v1.5H393.09V57.97h.047c2.525,0,4.677-.078,6.583-.239,2.115-.151,4.194-.393,6.18-.72l.21,1.44a92.956,92.956,0,0,1-14.7.99Zm-27.6-.3h0V42.34h1.68v15.33h.049c2.6,0,4.806-.077,6.731-.238,2.135-.15,4.214-.392,6.18-.72l.21,1.44a93.073,93.073,0,0,1-14.849.99Zm-285.36-.09H75.81V40H78.45v7.77H82.8v2.31H78.45v8.969h0ZM62.31,56.409a4.759,4.759,0,0,1-1.98-1.02A5.285,5.285,0,0,1,58.86,49a5.157,5.157,0,0,1,1.38-1.74,6.3,6.3,0,0,1,1.98-1.08,8.988,8.988,0,0,1,2.4-.391,7.992,7.992,0,0,1,2.34.36,7.02,7.02,0,0,1,1.98,1.05,6.13,6.13,0,0,1,1.41,1.74,5.42,5.42,0,0,1,.57,2.371,4.968,4.968,0,0,1-.51,2.28,5.157,5.157,0,0,1-1.38,1.71,6.171,6.171,0,0,1-2.01,1.08,7.96,7.96,0,0,1-2.4.39A7.27,7.27,0,0,1,62.31,56.409Zm-.329-7.56A3.105,3.105,0,0,0,60.96,51.31a2.949,2.949,0,0,0,1.021,2.4,3.786,3.786,0,0,0,2.64.9,3.937,3.937,0,0,0,2.67-.9,3.017,3.017,0,0,0,1.02-2.4,3.223,3.223,0,0,0-1.02-2.461,4.074,4.074,0,0,0-2.67-.869A3.966,3.966,0,0,0,61.98,48.849Zm87.419,6.9H146.91V48.64h-3.18v6.81h-2.46V40.6h2.46v5.7h3.18V40h2.49V55.749h0Zm-99.45-.51h-2.64V40H49.95v3.3h4.5v2.16h-4.5v3.27h4.5v2.19h-4.5v4.319h0Zm277.08-.27H325.35V40h1.68V54.968h0Zm31.62-.149h-26.7V53.35h26.7v1.469h0Zm-178.5-.18h-26.7V53.169h26.7v1.47h0Zm65.91-.3h-1.679V40h1.679V54.338h0ZM127.35,54.22h0V41.2h10.98v2.25h-8.52v2.88h7.89v2.1h-7.89v3.54h.018a55.217,55.217,0,0,0,9.733-.809c.029.35.087.706.144,1.049l.005.031,0,.034c.029.372.059.757.118,1.106a42.173,42.173,0,0,1-5.4.63c-1.984.141-4.3.21-7.079.21ZM33.3,53.47a5.764,5.764,0,0,1-2.22-1.35,5.466,5.466,0,0,1-1.44-2.1,6.324,6.324,0,0,1-.54-2.669,6.659,6.659,0,0,1,.54-2.67,6.185,6.185,0,0,1,1.44-2.07,7.124,7.124,0,0,1,2.22-1.38,7.98,7.98,0,0,1,2.73-.481,8.25,8.25,0,0,1,2.73.481,7.755,7.755,0,0,1,2.191,1.38,7.412,7.412,0,0,1,1.47,2.1,6.37,6.37,0,0,1,.54,2.641,6.474,6.474,0,0,1-2.01,4.739,6.118,6.118,0,0,1-2.191,1.381,7.445,7.445,0,0,1-2.73.48A7.35,7.35,0,0,1,33.3,53.47Zm1.08-10.08A4.336,4.336,0,0,0,33,44.259a3.775,3.775,0,0,0-.93,1.35,4.2,4.2,0,0,0-.36,1.741,4,4,0,0,0,.36,1.74,4.064,4.064,0,0,0,2.31,2.22,3.877,3.877,0,0,0,1.679.329,4.007,4.007,0,0,0,1.68-.329,4.156,4.156,0,0,0,1.35-.87,4.436,4.436,0,0,0,.9-1.35,4.49,4.49,0,0,0,.33-1.74,4.71,4.71,0,0,0-.33-1.71,4.137,4.137,0,0,0-2.25-2.25,5.14,5.14,0,0,0-1.68-.3A5.059,5.059,0,0,0,34.38,43.39Zm275.58,9.93a5.883,5.883,0,0,1-2.129-1.29,5.246,5.246,0,0,1-1.44-2.04,6.2,6.2,0,0,1-.51-2.64,6.383,6.383,0,0,1,.51-2.641,5.608,5.608,0,0,1,1.44-2.01,6.325,6.325,0,0,1,2.129-1.29,7.672,7.672,0,0,1,2.67-.45,7.811,7.811,0,0,1,2.67.45,7.27,7.27,0,0,1,2.129,1.319,6.443,6.443,0,0,1,1.41,2.011,6.93,6.93,0,0,1,0,5.22A5.881,5.881,0,0,1,317.43,52,6.148,6.148,0,0,1,315.3,53.29a7.187,7.187,0,0,1-2.67.48A7.669,7.669,0,0,1,309.96,53.32Zm.72-10.53a4.941,4.941,0,0,0-1.62.99,3.988,3.988,0,0,0-1.08,1.53,4.654,4.654,0,0,0-.419,2.04,4.807,4.807,0,0,0,.39,2.039,3.957,3.957,0,0,0,1.08,1.53,3.7,3.7,0,0,0,1.62.99,5.458,5.458,0,0,0,2.01.36,5.529,5.529,0,0,0,2.011-.36,4.438,4.438,0,0,0,1.589-.99,4.925,4.925,0,0,0,1.05-1.56,5.315,5.315,0,0,0,.36-2.01,5.49,5.49,0,0,0-.39-2.011,5.684,5.684,0,0,0-1.05-1.56,5.507,5.507,0,0,0-1.59-.99,6.283,6.283,0,0,0-1.98-.33A6,6,0,0,0,310.68,42.79ZM225.51,53.2h0V46.3h10.5v-3.57h-10.5v-1.44h12.18v6.45h-10.5v4.05h.052c2.753,0,4.986-.076,7.027-.239,2.07-.139,4.15-.364,6.36-.689l.21,1.38a54.817,54.817,0,0,1-6.87.72c-2.322.165-5.01.24-8.459.24Zm-8.7-.571H198.391V41.26h1.679v9.9h16.74v1.469h0Zm65.911-1.65a14.6,14.6,0,0,1-2.82-1.5,10.8,10.8,0,0,1-2.16-1.831,6.533,6.533,0,0,1-1.44-2.1,9.96,9.96,0,0,1-3.631,3.9,21.184,21.184,0,0,1-6.089,2.67h0a5.5,5.5,0,0,1-.57-.6c-.18-.18-.363-.393-.54-.6a19.64,19.64,0,0,0,4.081-1.471,14.865,14.865,0,0,0,3.15-1.98,8.8,8.8,0,0,0,2.01-2.4,5.67,5.67,0,0,0,.69-2.7V40.42h1.769v1.95a5.443,5.443,0,0,0,.72,2.73,7.732,7.732,0,0,0,2.04,2.43,12.658,12.658,0,0,0,3.12,1.98,18.785,18.785,0,0,0,4.05,1.41l-.038.046c-.165.19-.335.386-.5.553-.109.11-.21.219-.308.324s-.176.19-.262.276A20.763,20.763,0,0,1,282.72,50.98ZM163.86,50.44a6.9,6.9,0,0,1-2.34-.99,4.328,4.328,0,0,1-1.59-1.62,4.623,4.623,0,0,1,.03-4.5,4.6,4.6,0,0,1,1.59-1.65,8.351,8.351,0,0,1,2.34-.99,12.683,12.683,0,0,1,2.88-.33,13.37,13.37,0,0,1,2.94.33,8.907,8.907,0,0,1,2.37,1.02,5.992,5.992,0,0,1,1.62,1.62,4.77,4.77,0,0,1,.57,2.28,4.415,4.415,0,0,1-.57,2.22,4.718,4.718,0,0,1-1.56,1.62,7.453,7.453,0,0,1-2.4.99,11.862,11.862,0,0,1-2.97.36A11.114,11.114,0,0,1,163.86,50.44Zm.66-8.37a6.153,6.153,0,0,0-1.8.69,3.62,3.62,0,0,0-1.23,1.2,3.107,3.107,0,0,0-.45,1.65,2.864,2.864,0,0,0,.45,1.62,3.307,3.307,0,0,0,1.23,1.17,5.261,5.261,0,0,0,1.83.72,8.807,8.807,0,0,0,2.22.24,9.1,9.1,0,0,0,2.25-.24,5.118,5.118,0,0,0,1.83-.689,3.942,3.942,0,0,0,1.26-1.17,2.88,2.88,0,0,0,.45-1.651,3.1,3.1,0,0,0-.45-1.65,4.2,4.2,0,0,0-1.229-1.17,7.8,7.8,0,0,0-1.831-.72,11.392,11.392,0,0,0-2.28-.24A10.607,10.607,0,0,0,164.52,42.07Zm184.289,6.09a7.947,7.947,0,0,1-3.51-3.33,8.5,8.5,0,0,1-3.51,3.3,19.9,19.9,0,0,1-6.21,2.07h0l-.011-.011c-.173-.174-.352-.354-.528-.56a5.507,5.507,0,0,1-.57-.6,19.709,19.709,0,0,0,4.17-1.05,13.262,13.262,0,0,0,3.12-1.62,7.48,7.48,0,0,0,1.98-2.04,4.447,4.447,0,0,0,.66-2.25V40.42h1.77v1.65a4.038,4.038,0,0,0,.69,2.281,6.693,6.693,0,0,0,1.98,2.039,10.81,10.81,0,0,0,3.119,1.59,18.948,18.948,0,0,0,4.14,1.05l-.04.048c-.164.19-.334.385-.5.552-.209.211-.389.391-.569.571A18.711,18.711,0,0,1,348.809,48.16ZM110.549,46.149H97.2V43.84h5.37V40.15h2.61v3.69h5.369v2.308h0ZM72.6,44.59H56.7v-2.04h6.63V40h2.64v2.55H72.6v2.039h0ZM204.029,28.2H202.35V0h1.68V11.07h4.86v1.47h-4.86V28.2h0Zm-56.88,0H144.51V0h2.64V10.65h4.8v2.31h-4.8V28.2h0Zm-38.1,0H107.4V0h1.651V28.2h0Zm-86.7,0H19.71V0h2.64V28.2h0Zm154.8-.6H159.9V16.35h2.61v3.27h12V16.35h2.64V27.6h0ZM162.51,25.41h12v-3.6h-12ZM78.15,27.6H60.45V18h7.53V15.331H55.95v-2.34h26.7v2.34H70.62V18h7.53v9.6h0ZM63.06,25.26H75.51V20.34H63.06ZM234.6,27.45H217.29V18.21h1.68v7.74H234.6v1.5h0Zm-131.01-.15H101.94V11.16H99.03a7.711,7.711,0,0,1-.63,2.67,7.388,7.388,0,0,1-1.47,2.16A6.9,6.9,0,0,1,94.77,17.4a6.49,6.49,0,0,1-2.61.51,6.349,6.349,0,0,1-2.73-.57,6.137,6.137,0,0,1-2.22-1.53,6.7,6.7,0,0,1-1.44-2.34,7.5,7.5,0,0,1-.54-2.88,7.885,7.885,0,0,1,.54-2.94,6.712,6.712,0,0,1,1.44-2.34,6.612,6.612,0,0,1,2.22-1.56,6.789,6.789,0,0,1,2.73-.54,7.241,7.241,0,0,1,2.55.48,7.955,7.955,0,0,1,2.1,1.32A8.675,8.675,0,0,1,98.34,7.05a8.412,8.412,0,0,1,.689,2.61h2.911V.3h1.65v27h0ZM90.12,5.16a5.433,5.433,0,0,0-1.71,1.23A5.312,5.312,0,0,0,87.3,8.25a6,6,0,0,0-.42,2.34,5.564,5.564,0,0,0,.42,2.25A5.069,5.069,0,0,0,88.41,14.7a4.992,4.992,0,0,0,1.68,1.26,4.416,4.416,0,0,0,2.1.481,4.586,4.586,0,0,0,2.07-.481A5.364,5.364,0,0,0,95.91,14.73a6.615,6.615,0,0,0,1.11-1.86,6.836,6.836,0,0,0,.39-2.28,7.4,7.4,0,0,0-.39-2.34,7.247,7.247,0,0,0-1.11-1.89,5.6,5.6,0,0,0-1.68-1.23,5.309,5.309,0,0,0-2.04-.42A4.773,4.773,0,0,0,90.12,5.16ZM27.69,24.54V22.2H39.48V17.28H31.8V8.61H47.16V4.59H31.8V2.4h18v8.4H34.41v4.32H50.25v2.16H42.12V22.2H53.91v2.34Zm160.2-4.02a5.9,5.9,0,0,1-2.13-1.29,5.446,5.446,0,0,1-1.41-2.011,6.12,6.12,0,0,1-.509-2.61,6.363,6.363,0,0,1,.54-2.64,5.888,5.888,0,0,1,1.409-2.01,6.281,6.281,0,0,1,2.13-1.26,7.472,7.472,0,0,1,2.64-.45,7.723,7.723,0,0,1,2.641.45,6.579,6.579,0,0,1,2.129,1.29A6.412,6.412,0,0,1,196.74,12a6.93,6.93,0,0,1,0,5.22,6.489,6.489,0,0,1-1.38,2.011,6.182,6.182,0,0,1-2.13,1.29,7.161,7.161,0,0,1-2.67.48A7.043,7.043,0,0,1,187.89,20.52Zm.66-10.47a4.457,4.457,0,0,0-1.59.99,4.183,4.183,0,0,0-1.049,1.56,4.879,4.879,0,0,0-.391,2.01,4.828,4.828,0,0,0,.391,2.04,3.885,3.885,0,0,0,1.049,1.53,4.017,4.017,0,0,0,1.59.96,5.475,5.475,0,0,0,2.01.36,5.563,5.563,0,0,0,2.011-.36,4.751,4.751,0,0,0,1.589-.96,5.124,5.124,0,0,0,1.05-1.53,5.4,5.4,0,0,0,.36-2.04,5.482,5.482,0,0,0-.39-2.01,5.657,5.657,0,0,0-1.05-1.56,5.454,5.454,0,0,0-1.59-.99,6.228,6.228,0,0,0-1.98-.33A6.143,6.143,0,0,0,188.55,10.05ZM128.01,19.8c-.328-.268-.659-.569-.959-.87l-.99-.9a19.69,19.69,0,0,0,4.14-2.219,18.165,18.165,0,0,0,3.33-3.06,14.882,14.882,0,0,0,2.34-3.69,13.145,13.145,0,0,0,1.11-4.171H127.2V2.55H139.86a18.777,18.777,0,0,1-.9,5.94,18.5,18.5,0,0,1-2.52,4.891,17.664,17.664,0,0,1-3.749,3.749,21.326,21.326,0,0,1-4.68,2.67ZM4.65,18.12A6.93,6.93,0,0,1,2.19,16.38,6.83,6.83,0,0,1,.57,13.83,8.233,8.233,0,0,1,0,10.68,8.268,8.268,0,0,1,.6,7.47,7.511,7.511,0,0,1,2.22,4.89,7.14,7.14,0,0,1,4.65,3.18a7.36,7.36,0,0,1,3.09-.63,7.754,7.754,0,0,1,3.12.63A8.284,8.284,0,0,1,13.32,4.92,9.926,9.926,0,0,1,14.94,7.5a9.156,9.156,0,0,1,.57,3.181,8.942,8.942,0,0,1-.57,3.15,8.771,8.771,0,0,1-1.62,2.55,7.8,7.8,0,0,1-2.46,1.74,7.739,7.739,0,0,1-3.12.63A7.349,7.349,0,0,1,4.65,18.12ZM5.76,5.31a5.223,5.223,0,0,0-1.65,1.2A5.341,5.341,0,0,0,3.03,8.34a5.987,5.987,0,0,0-.42,2.34A6.173,6.173,0,0,0,3,12.96a4.544,4.544,0,0,0,1.08,1.8A4.469,4.469,0,0,0,5.73,15.99a4.518,4.518,0,0,0,2.039.45,4.846,4.846,0,0,0,2.04-.45,4.719,4.719,0,0,0,1.62-1.2,6.4,6.4,0,0,0,1.05-1.83,6.859,6.859,0,0,0,.39-2.28,7.421,7.421,0,0,0-.39-2.34A6.532,6.532,0,0,0,11.4,6.51a6.327,6.327,0,0,0-1.62-1.2A5.015,5.015,0,0,0,7.77,4.89,4.923,4.923,0,0,0,5.76,5.31ZM234.179,18.3H232.5V10.83h-6.39v3.39H213.39V1.32h12.72v2.7h6.39V0h1.68V18.3h0ZM215.07,12.72H224.4V2.79H215.07ZM226.11,9.39h6.39V5.46h-6.39ZM177.149,14.4H174.51V0h2.64V14.4h0ZM159.9,13.47a5.762,5.762,0,0,1-2.22-1.35,5.463,5.463,0,0,1-1.44-2.1,6.33,6.33,0,0,1-.54-2.669,6.641,6.641,0,0,1,.54-2.67,6.172,6.172,0,0,1,1.44-2.07,7.1,7.1,0,0,1,2.22-1.38A7.98,7.98,0,0,1,162.63.75a8.25,8.25,0,0,1,2.73.481,7.761,7.761,0,0,1,2.191,1.38,7.4,7.4,0,0,1,1.47,2.1,6.364,6.364,0,0,1,.54,2.641,6.473,6.473,0,0,1-2.01,4.739,6.118,6.118,0,0,1-2.191,1.381,7.449,7.449,0,0,1-2.73.48A7.343,7.343,0,0,1,159.9,13.47Zm1.08-10.08a4.3,4.3,0,0,0-1.381.869,3.767,3.767,0,0,0-.93,1.35,4.2,4.2,0,0,0-.36,1.741,4,4,0,0,0,.36,1.74,3.291,3.291,0,0,0,.93,1.35,3.288,3.288,0,0,0,1.381.87,3.888,3.888,0,0,0,1.679.329,4.009,4.009,0,0,0,1.68-.329,4.18,4.18,0,0,0,1.35-.87,4.266,4.266,0,0,0,1.23-3.09,4.7,4.7,0,0,0-.33-1.71,5.332,5.332,0,0,0-.9-1.35,5.3,5.3,0,0,0-1.35-.9,5.144,5.144,0,0,0-1.68-.3A5.032,5.032,0,0,0,160.98,3.39Zm-94.71,7.68a6.517,6.517,0,0,1-2.43-1.139,4.722,4.722,0,0,1-1.59-1.77,4.372,4.372,0,0,1-.6-2.34,4.512,4.512,0,0,1,.6-2.34,5.312,5.312,0,0,1,1.59-1.8A8.2,8.2,0,0,1,66.271.54a11.643,11.643,0,0,1,3-.39,11.224,11.224,0,0,1,3.09.42,9.124,9.124,0,0,1,2.43,1.17A6.274,6.274,0,0,1,76.38,3.51a5.069,5.069,0,0,1,.57,2.31,4.771,4.771,0,0,1-.57,2.28,5.29,5.29,0,0,1-1.59,1.77,7.66,7.66,0,0,1-2.43,1.17,10.28,10.28,0,0,1-3.09.42A10.5,10.5,0,0,1,66.271,11.07Zm1.08-8.4a5.057,5.057,0,0,0-1.59.69,3.1,3.1,0,0,0-1.08,1.08,2.318,2.318,0,0,0-.42,1.38,2.344,2.344,0,0,0,.391,1.38,2.783,2.783,0,0,0,1.08,1.05,5.158,5.158,0,0,0,1.589.69,6.616,6.616,0,0,0,1.95.239,7.229,7.229,0,0,0,2.01-.239,5.435,5.435,0,0,0,1.59-.69,3.52,3.52,0,0,0,1.05-1.05,2.569,2.569,0,0,0,.39-1.38,2.691,2.691,0,0,0-.36-1.35A3.979,3.979,0,0,0,72.9,3.39a6.652,6.652,0,0,0-1.62-.72,8.541,8.541,0,0,0-2.01-.24A7.775,7.775,0,0,0,67.351,2.67Zm131.1,3.09H182.7V4.29h7.02V.27h1.68V4.29h7.05V5.759h0Z" fill="url(#linear-gradient)"/>
</svg>
