<?xml version="1.0" encoding="UTF-8"?>
<svg width="486px" height="82px" viewBox="0 0 486 82" version="1.1" xmlns="http://www.w3.org/2000/svg" xmlns:xlink="http://www.w3.org/1999/xlink">
    <title>파트너스 승인을 대기중입니다@3x</title>
    <defs>
        <linearGradient x1="2.5893002%" y1="48.5763715%" x2="102.658837%" y2="51.4236285%" id="linearGradient-1">
            <stop stop-color="#DA0DE6" offset="0.00273164336%"></stop>
            <stop stop-color="#E32727" offset="45.9189248%"></stop>
            <stop stop-color="#FFB826" offset="100%"></stop>
        </linearGradient>
    </defs>
    <g id="회원-아버지-링크" stroke="none" stroke-width="1" fill="none" fill-rule="evenodd">
        <g id="link-9" transform="translate(-717.000000, -721.000000)" fill="url(#linearGradient-1)" fill-rule="nonzero">
            <g id="주문이-완료되어-멤버스-승인을-대기중" transform="translate(717.000000, 721.000000)">
                <path d="M479.16,60.68 L479.16,81.6 L476.92,81.6 L476.92,44 L479.16,44 L479.16,58.72 L485.96,58.72 L485.96,60.68 L479.16,60.68 Z M455.2,67.96 C458.24,67.96 461.2,67.88 464.04,67.64 C466.84,67.44 469.6,67.12 472.28,66.68 L472.56,68.6 C467.2,69.48 460.68,69.92 452.96,69.92 L452.96,47.52 L469.96,47.52 L469.96,49.52 L455.2,49.52 L455.2,67.96 Z M31.68,14.48 C31.36,14.92 31.04,15.32 30.72,15.72 C30.36,16.16 30,16.6 29.68,17 C28.24,16.64 26.92,16.16 25.68,15.56 C24.4,15 23.24,14.36 22.2,13.64 C21.12,12.92 20.2,12.16 19.4,11.28 C18.6,10.44 17.96,9.56 17.48,8.6 C16.44,10.52 14.84,12.2 12.76,13.64 C10.6,15.16 8.12,16.28 5.24,17 C4.88,16.6 4.56,16.16 4.24,15.72 C3.92,15.32 3.56,14.92 3.24,14.48 C4.44,14.16 5.68,13.76 6.96,13.24 C8.2,12.76 9.36,12.12 10.48,11.32 C11.52,10.56 12.48,9.64 13.32,8.52 C14.12,7.44 14.76,6.16 15.16,4.72 L5.08,4.72 L5.08,1.6 L29.88,1.6 L29.88,4.72 L19.76,4.72 C20.08,6.12 20.64,7.32 21.44,8.36 C22.16,9.4 23.08,10.32 24.16,11.08 C25.2,11.88 26.36,12.56 27.64,13.08 C28.92,13.64 30.24,14.12 31.68,14.48 Z M15.56,37.6 L15.56,24.84 L0,24.84 L0,21.76 L34.96,21.76 L34.96,24.84 L19.2,24.84 L19.2,37.6 L15.56,37.6 Z M43.48,14.4 L43.48,1.2 L67.48,1.2 L67.48,14.4 L43.48,14.4 Z M63.96,4.32 L46.96,4.32 L46.96,11.32 L63.96,11.32 L63.96,4.32 Z M54.48,28.52 L54.48,21.4 L37.6,21.4 L37.6,18.32 L73.36,18.32 L73.36,21.4 L57.96,21.4 L57.96,28.52 L54.48,28.52 Z M67.68,36.6 L43.48,36.6 L43.48,25.2 L46.96,25.2 L46.96,33.52 L67.68,33.52 L67.68,36.6 Z M106.88,37.6 L103.36,37.6 L103.36,0 L106.88,0 L106.88,37.6 Z M97.76,14.24 C97.76,15.76 97.48,17.16 97,18.44 C96.44,19.76 95.72,20.88 94.84,21.84 C93.88,22.84 92.8,23.6 91.56,24.16 C90.28,24.72 88.88,25 87.4,25 C85.88,25 84.52,24.72 83.28,24.16 C82,23.6 80.88,22.84 80,21.84 C79.04,20.88 78.32,19.76 77.84,18.44 C77.32,17.16 77.08,15.76 77.08,14.24 C77.08,12.72 77.32,11.32 77.88,9.96 C78.36,8.68 79.08,7.52 80.04,6.52 C80.92,5.56 82,4.8 83.28,4.24 C84.52,3.68 85.88,3.4 87.4,3.4 C88.88,3.4 90.28,3.68 91.56,4.24 C92.8,4.8 93.88,5.6 94.84,6.56 C95.72,7.56 96.44,8.72 97,10 C97.48,11.32 97.76,12.72 97.76,14.24 Z M94.24,14.24 C94.24,13.12 94.04,12.08 93.72,11.12 C93.36,10.2 92.88,9.4 92.28,8.68 C91.64,8.04 90.92,7.48 90.12,7.08 C89.28,6.72 88.4,6.52 87.44,6.52 C86.48,6.52 85.56,6.72 84.76,7.08 C83.88,7.48 83.16,8.04 82.56,8.68 C81.92,9.4 81.44,10.2 81.12,11.12 C80.72,12.08 80.56,13.12 80.56,14.24 C80.56,15.36 80.72,16.36 81.08,17.28 C81.4,18.24 81.88,19.04 82.52,19.68 C83.12,20.4 83.84,20.92 84.72,21.32 C85.52,21.72 86.44,21.92 87.44,21.92 C88.4,21.92 89.28,21.72 90.16,21.32 C90.96,20.96 91.68,20.44 92.32,19.72 C92.88,19.04 93.36,18.24 93.72,17.28 C94.04,16.36 94.24,15.36 94.24,14.24 Z M150.24,8.76 C150.24,9.8 150.04,10.72 149.72,11.56 C149.36,12.44 148.88,13.2 148.32,13.84 C147.68,14.52 146.96,15.04 146.16,15.44 C145.32,15.88 144.44,16.16 143.48,16.24 L143.48,19.44 C146.68,19.44 150.2,19.04 154,18.16 C154.04,18.68 154.08,19.16 154.16,19.64 C154.2,20.16 154.24,20.64 154.32,21.12 C150.48,22 146.08,22.44 141.08,22.44 L131.28,22.44 L131.28,19.44 L140.16,19.44 L140.16,16.24 C139.12,16.12 138.2,15.84 137.4,15.4 C136.56,15 135.84,14.44 135.28,13.8 C134.64,13.16 134.2,12.44 133.88,11.56 C133.52,10.72 133.36,9.8 133.36,8.76 C133.36,7.56 133.56,6.48 134,5.52 C134.4,4.56 135,3.76 135.8,3.08 C136.52,2.44 137.44,1.92 138.48,1.52 C139.48,1.2 140.6,1 141.8,1 C143,1 144.12,1.2 145.16,1.52 C146.16,1.92 147.04,2.44 147.84,3.08 C148.56,3.76 149.16,4.56 149.6,5.52 C150,6.48 150.24,7.56 150.24,8.76 Z M146.96,8.72 C146.96,7.96 146.8,7.28 146.56,6.64 C146.28,6.04 145.92,5.52 145.48,5.08 C145,4.68 144.44,4.36 143.84,4.12 C143.2,3.92 142.52,3.8 141.84,3.8 C141.12,3.8 140.48,3.92 139.88,4.12 C139.24,4.36 138.68,4.64 138.24,5.04 C137.76,5.48 137.36,6 137.12,6.6 C136.8,7.24 136.68,7.92 136.68,8.72 C136.68,9.56 136.8,10.28 137.12,10.84 C137.36,11.48 137.76,11.96 138.24,12.36 C138.68,12.76 139.24,13.08 139.88,13.24 C140.48,13.48 141.12,13.56 141.84,13.56 C142.52,13.56 143.2,13.48 143.84,13.24 C144.44,13.04 145,12.72 145.48,12.32 C145.92,11.92 146.28,11.44 146.56,10.8 C146.8,10.24 146.96,9.52 146.96,8.72 Z M159.68,13.4 L159.68,26 L156.16,26 L156.16,0 L159.68,0 L159.68,10.32 L165.68,10.32 L165.68,13.4 L159.68,13.4 Z M160.08,36.6 L136.88,36.6 L136.88,25.52 L140.36,25.52 L140.36,33.48 L160.08,33.48 L160.08,36.6 Z M197.48,14.4 L176.96,14.4 L176.96,20.16 L198.08,20.16 L198.08,23.04 L192.88,23.04 L192.88,29.6 L202.96,29.6 L202.96,32.72 L168,32.72 L168,29.6 L178.08,29.6 L178.08,23.04 L173.48,23.04 L173.48,11.48 L193.96,11.48 L193.96,6.12 L173.48,6.12 L173.48,3.2 L197.48,3.2 L197.48,14.4 Z M189.48,29.6 L189.48,23.04 L181.48,23.04 L181.48,29.6 L189.48,29.6 Z M207.68,29 L207.68,27.04 L217.16,27.04 L217.16,18.88 L209.88,18.88 L209.88,3.52 L226.64,3.52 L226.64,5.52 L212.12,5.52 L212.12,16.92 L227.36,16.92 L227.36,18.88 L219.36,18.88 L219.36,27.04 C221.28,27.04 223.2,26.96 225.16,26.72 C227.08,26.52 229.04,26.2 231.04,25.8 L231.32,27.72 C229.32,28.16 227.16,28.48 224.92,28.68 C222.6,28.92 220.12,29 217.48,29 L207.68,29 Z M236.76,37.6 L234.52,37.6 L234.52,0 L236.76,0 L236.76,37.6 Z M274.92,37.6 L272.68,37.6 L272.68,14.92 L265.68,14.92 C265.6,16.36 265.32,17.64 264.8,18.84 C264.24,20.04 263.52,21.08 262.64,21.96 C261.72,22.84 260.68,23.52 259.48,24 C258.28,24.52 256.96,24.76 255.6,24.76 C254.12,24.76 252.76,24.52 251.56,23.96 C250.28,23.44 249.2,22.68 248.32,21.72 C247.4,20.8 246.68,19.68 246.2,18.36 C245.68,17.08 245.44,15.68 245.44,14.16 C245.44,12.64 245.68,11.24 246.2,9.92 C246.68,8.64 247.4,7.52 248.32,6.56 C249.2,5.64 250.28,4.92 251.56,4.36 C252.76,3.84 254.12,3.56 255.6,3.56 C256.96,3.56 258.2,3.8 259.4,4.24 C260.52,4.72 261.56,5.4 262.48,6.2 C263.36,7.04 264.08,8.04 264.64,9.16 C265.2,10.32 265.52,11.56 265.68,12.92 L272.68,12.92 L272.68,0 L274.92,0 L274.92,37.6 Z M263.48,14.16 C263.48,12.96 263.28,11.8 262.88,10.72 C262.48,9.68 261.92,8.8 261.24,8 C260.52,7.24 259.68,6.64 258.76,6.16 C257.8,5.76 256.76,5.52 255.64,5.52 C254.52,5.52 253.48,5.76 252.52,6.16 C251.56,6.6 250.72,7.2 250,7.96 C249.28,8.76 248.72,9.64 248.32,10.68 C247.92,11.76 247.72,12.92 247.72,14.16 C247.72,15.4 247.92,16.52 248.32,17.56 C248.72,18.64 249.28,19.56 250,20.28 C250.68,21.08 251.52,21.68 252.48,22.08 C253.44,22.56 254.48,22.76 255.64,22.76 C256.76,22.76 257.8,22.56 258.76,22.08 C259.72,21.68 260.56,21.08 261.28,20.28 C261.96,19.52 262.52,18.6 262.92,17.56 C263.28,16.52 263.48,15.4 263.48,14.16 Z M8.08,80.8 L8.08,66.4 L32.28,66.4 L32.28,80.8 L8.08,80.8 Z M25.24,63.2 L22.04,63.2 L22.04,54.76 L17.56,54.76 L17.56,61.8 L2.68,61.8 L2.68,45.6 L17.56,45.6 L17.56,51.68 L22.04,51.68 L22.04,44.4 L25.24,44.4 L25.24,63.2 Z M28.76,69.52 L11.56,69.52 L11.56,77.68 L28.76,77.68 L28.76,69.52 Z M14.24,48.72 L5.96,48.72 L5.96,58.72 L14.24,58.72 L14.24,48.72 Z M32.28,63.6 L29.08,63.6 L29.08,44 L32.28,44 L32.28,63.6 Z M55,56.32 L55.04,47 L58.56,47 L58.56,57 L65.56,57 L65.56,44 L69.08,44 L69.08,81.6 L65.56,81.6 L65.56,60.08 L58.56,60.08 L58.56,71 L41.08,71 L41.08,47 L44.56,47 L44.56,56.32 L55,56.32 Z M55.04,59.44 L44.56,59.44 L44.56,67.92 L55.04,67.92 L55.04,59.44 Z M108.36,62 C107.96,62.44 107.6,62.84 107.28,63.24 C106.88,63.68 106.52,64.12 106.16,64.52 C102.92,63.56 100.24,62.24 98.12,60.52 C95.96,58.84 94.4,56.8 93.48,54.4 C92.48,56.76 90.92,58.8 88.8,60.48 C86.64,62.24 83.96,63.56 80.76,64.52 C80.36,64.12 80,63.68 79.68,63.24 C79.28,62.84 78.92,62.44 78.56,62 C80.64,61.4 82.52,60.6 84.16,59.56 C85.76,58.56 87.16,57.44 88.28,56.16 C89.36,54.96 90.2,53.64 90.8,52.2 C91.36,50.84 91.64,49.44 91.64,48 L91.64,46.4 L95.28,46.4 L95.28,48 C95.28,49.44 95.56,50.88 96.16,52.24 C96.72,53.68 97.56,55 98.68,56.2 C99.8,57.48 101.16,58.6 102.8,59.56 C104.4,60.6 106.28,61.4 108.36,62 Z M110.96,73.6 L110.96,76.68 L76,76.68 L76,73.6 L110.96,73.6 Z M157.36,74.12 C157.36,75.32 157.12,76.4 156.64,77.36 C156.16,78.32 155.48,79.12 154.6,79.84 C153.72,80.52 152.68,81.04 151.48,81.44 C150.24,81.8 148.88,82 147.44,82 C145.92,82 144.6,81.8 143.4,81.44 C142.16,81.04 141.12,80.48 140.28,79.8 C139.4,79.08 138.76,78.28 138.28,77.32 C137.8,76.36 137.56,75.32 137.56,74.12 C137.56,73.04 137.8,72 138.28,71.04 C138.72,70.08 139.36,69.24 140.24,68.52 C141.08,67.8 142.12,67.24 143.36,66.8 C144.56,66.4 145.92,66.2 147.44,66.2 C148.88,66.2 150.24,66.4 151.48,66.76 C152.68,67.16 153.72,67.68 154.6,68.36 C155.48,69.08 156.16,69.88 156.64,70.84 C157.12,71.84 157.36,72.92 157.36,74.12 Z M153.88,74.12 C153.88,73.4 153.72,72.76 153.4,72.16 C153.08,71.6 152.64,71.08 152.08,70.64 C151.52,70.24 150.84,69.88 150.08,69.64 C149.28,69.44 148.4,69.32 147.48,69.32 C146.52,69.32 145.68,69.44 144.92,69.64 C144.12,69.88 143.48,70.2 142.92,70.6 C142.32,71.04 141.88,71.56 141.56,72.12 C141.24,72.72 141.08,73.4 141.08,74.12 C141.08,74.88 141.24,75.56 141.56,76.12 C141.88,76.72 142.32,77.2 142.92,77.64 C143.48,78.04 144.16,78.32 144.96,78.56 C145.72,78.76 146.56,78.88 147.48,78.88 C148.4,78.88 149.28,78.76 150.08,78.56 C150.84,78.32 151.52,77.96 152.08,77.56 C152.64,77.12 153.08,76.64 153.4,76.04 C153.72,75.48 153.88,74.84 153.88,74.12 Z M162.16,55.2 C161.84,55.6 161.52,56 161.2,56.4 C160.84,56.8 160.48,57.2 160.16,57.6 C156.92,57.04 154.2,56.2 152.04,55 C149.84,53.88 148.32,52.48 147.48,50.88 C146.52,52.48 145,53.88 142.88,55 C140.72,56.16 138,57.04 134.76,57.6 C134.44,57.2 134.12,56.8 133.8,56.4 C133.44,56 133.12,55.6 132.8,55.2 C134.8,54.88 136.64,54.44 138.24,53.8 C139.8,53.2 141.12,52.48 142.24,51.68 C143.32,50.88 144.16,50.04 144.76,49.08 C145.32,48.16 145.64,47.24 145.64,46.28 L145.64,44.4 L149.28,44.4 L149.28,46.28 C149.28,47.24 149.56,48.2 150.16,49.12 C150.72,50.08 151.6,50.92 152.72,51.72 C153.8,52.52 155.16,53.24 156.76,53.8 C158.36,54.44 160.16,54.88 162.16,55.2 Z M165.28,60.52 L165.28,63.64 L129.68,63.64 L129.68,60.52 L165.28,60.52 Z M199.28,68.4 L195.76,68.4 L195.76,44 L199.28,44 L199.28,68.4 Z M199.68,80.6 L176.48,80.6 L176.48,68 L179.96,68 L179.96,77.48 L199.68,77.48 L199.68,80.6 Z M189.24,54.28 C189.24,55.68 189,56.92 188.56,58.04 C188.08,59.2 187.44,60.16 186.64,60.96 C185.8,61.8 184.84,62.44 183.72,62.84 C182.56,63.32 181.32,63.52 180,63.52 C178.68,63.52 177.48,63.32 176.36,62.84 C175.2,62.44 174.2,61.8 173.4,61 C172.56,60.2 171.92,59.24 171.48,58.08 C171,56.96 170.76,55.72 170.76,54.28 C170.76,52.92 171,51.64 171.48,50.48 C171.92,49.36 172.56,48.36 173.4,47.52 C174.2,46.72 175.16,46.12 176.32,45.64 C177.44,45.24 178.64,45 180,45 C181.36,45 182.6,45.24 183.72,45.68 C184.84,46.16 185.8,46.76 186.64,47.56 C187.44,48.4 188.08,49.4 188.56,50.52 C189,51.68 189.24,52.92 189.24,54.28 Z M185.76,54.28 C185.76,52.4 185.2,50.88 184.16,49.76 C183.08,48.68 181.72,48.12 180.04,48.12 C178.32,48.12 176.92,48.68 175.88,49.76 C174.8,50.88 174.28,52.4 174.28,54.28 C174.28,55.24 174.4,56.08 174.72,56.8 C174.96,57.56 175.36,58.2 175.88,58.72 C176.36,59.28 177,59.68 177.72,59.96 C178.4,60.28 179.16,60.4 180.04,60.4 C181.72,60.4 183.12,59.84 184.2,58.72 C185.24,57.6 185.76,56.12 185.76,54.28 Z M233.44,51.48 C233.44,52.6 233.16,53.6 232.68,54.44 C232.16,55.32 231.48,56.04 230.6,56.6 C229.68,57.2 228.6,57.64 227.4,57.92 C226.16,58.24 224.84,58.4 223.44,58.4 C222.04,58.4 220.76,58.24 219.56,57.92 C218.36,57.64 217.32,57.2 216.44,56.6 C215.52,56.04 214.8,55.32 214.32,54.44 C213.8,53.6 213.56,52.6 213.56,51.48 C213.56,50.36 213.8,49.32 214.36,48.44 C214.84,47.56 215.56,46.84 216.48,46.24 C217.36,45.68 218.4,45.24 219.6,44.92 C220.8,44.64 222.08,44.48 223.44,44.48 C224.8,44.48 226.12,44.64 227.36,44.92 C228.56,45.24 229.6,45.72 230.52,46.28 C231.4,46.88 232.12,47.6 232.68,48.44 C233.16,49.32 233.44,50.36 233.44,51.48 Z M231.16,51.48 C231.16,50.68 230.96,49.92 230.56,49.28 C230.16,48.68 229.6,48.16 228.92,47.72 C228.2,47.32 227.4,47 226.48,46.76 C225.52,46.56 224.48,46.44 223.44,46.44 C222.36,46.44 221.36,46.56 220.44,46.76 C219.48,47 218.68,47.28 218.04,47.68 C217.32,48.12 216.8,48.64 216.4,49.28 C216,49.92 215.8,50.68 215.8,51.48 C215.8,52.32 216,53.04 216.4,53.64 C216.8,54.28 217.32,54.8 218.04,55.2 C218.72,55.64 219.52,55.96 220.48,56.16 C221.4,56.4 222.4,56.48 223.44,56.48 C224.48,56.48 225.48,56.4 226.44,56.16 C227.36,56 228.16,55.68 228.88,55.24 C229.56,54.84 230.12,54.32 230.56,53.68 C230.96,53.08 231.16,52.36 231.16,51.48 Z M235.12,74.84 L214.04,74.84 L214.04,79.32 L235.52,79.32 L235.52,81.2 L211.8,81.2 L211.8,73 L232.88,73 L232.88,68.84 L211.8,68.84 L211.8,66.96 L235.12,66.96 L235.12,74.84 Z M241.28,61.56 L241.28,63.52 L205.68,63.52 L205.68,61.56 L241.28,61.56 Z M284.12,80.4 L281.92,80.4 L281.92,44.4 L284.12,44.4 L284.12,58.76 L289.92,58.76 L289.92,44 L292.12,44 L292.12,81.6 L289.92,81.6 L289.92,60.72 L284.12,60.72 L284.12,80.4 Z M265.2,68.12 C270.48,68.12 275.28,67.72 279.6,66.92 C279.64,67.24 279.68,67.52 279.76,67.84 C279.76,68.2 279.8,68.52 279.88,68.84 C277.72,69.28 275.24,69.6 272.44,69.76 C269.64,70 266.48,70.08 263,70.08 L263,47.56 L277.48,47.56 L277.48,49.52 L265.2,49.52 L265.2,68.12 Z M300.36,69 C302.36,68.28 304.32,67.24 306.16,65.96 C307.96,64.72 309.6,63.24 311.04,61.56 C312.44,59.88 313.6,58.04 314.52,56 C315.4,54 315.92,51.84 316.08,49.52 L301.68,49.52 L301.68,47.56 L318.56,47.56 C318.56,50.4 318.12,53.04 317.24,55.44 C316.32,57.92 315.12,60.12 313.64,62.04 C312.12,64.04 310.36,65.72 308.36,67.16 C306.36,68.6 304.24,69.76 302.04,70.56 L300.36,69 Z M328.72,81.6 L326.48,81.6 L326.48,44 L328.72,44 L328.72,81.6 Z M363.28,74.36 C363.28,75.48 363.04,76.48 362.56,77.4 C362.08,78.32 361.4,79.12 360.52,79.84 C359.64,80.48 358.6,81.04 357.4,81.44 C356.2,81.8 354.88,82 353.44,82 C352,82 350.72,81.8 349.56,81.44 C348.36,81.04 347.32,80.52 346.44,79.88 C345.56,79.2 344.88,78.4 344.4,77.48 C343.88,76.52 343.64,75.48 343.64,74.36 C343.64,73.32 343.84,72.36 344.28,71.44 C344.68,70.56 345.28,69.8 346.08,69.12 C346.84,68.48 347.76,67.92 348.84,67.48 C349.88,67.08 351.08,66.84 352.36,66.76 L352.36,63.48 L335.68,63.48 L335.68,61.48 L371.28,61.48 L371.28,63.48 L354.6,63.48 L354.6,66.76 C355.88,66.84 357.04,67.08 358.12,67.48 C359.16,67.92 360.04,68.48 360.84,69.12 C361.6,69.8 362.2,70.56 362.64,71.44 C363.04,72.36 363.28,73.32 363.28,74.36 Z M361.04,74.36 C361.04,73.52 360.84,72.76 360.44,72.04 C360.04,71.36 359.48,70.76 358.84,70.24 C358.12,69.76 357.32,69.36 356.44,69.08 C355.48,68.84 354.52,68.68 353.48,68.68 C352.4,68.68 351.4,68.84 350.48,69.08 C349.52,69.36 348.72,69.76 348.08,70.24 C347.36,70.76 346.84,71.36 346.48,72.04 C346.08,72.76 345.88,73.52 345.88,74.36 C345.88,75.24 346.08,76 346.48,76.64 C346.88,77.32 347.4,77.92 348.12,78.44 C348.76,78.92 349.56,79.32 350.52,79.6 C351.44,79.84 352.44,80 353.48,80 C354.52,80 355.48,79.84 356.4,79.6 C357.28,79.32 358.08,78.92 358.8,78.44 C359.48,77.92 360.04,77.32 360.44,76.64 C360.84,76 361.04,75.24 361.04,74.36 Z M353.44,50.72 C352.96,51.52 352.36,52.28 351.56,53 C350.72,53.8 349.76,54.52 348.72,55.16 C347.64,55.84 346.48,56.44 345.24,56.96 C343.96,57.52 342.64,57.92 341.28,58.24 C341,58 340.76,57.76 340.52,57.48 C340.28,57.24 340.04,56.96 339.8,56.68 C341.24,56.36 342.72,55.88 344.2,55.24 C345.64,54.68 346.92,53.96 348.12,53.12 C349.24,52.32 350.2,51.44 350.92,50.44 C351.64,49.48 352,48.44 352,47.32 L341.44,47.32 L341.44,45.36 L365.48,45.36 L365.48,47.32 L354.88,47.32 C354.88,48.44 355.24,49.48 355.96,50.44 C356.68,51.44 357.6,52.32 358.8,53.12 C359.92,53.96 361.24,54.68 362.72,55.24 C364.16,55.88 365.6,56.36 367.08,56.68 C366.84,56.96 366.6,57.24 366.36,57.48 C366.12,57.76 365.84,58 365.6,58.24 C364.24,57.92 362.92,57.52 361.68,56.96 C360.4,56.44 359.2,55.84 358.16,55.16 C357.08,54.52 356.16,53.8 355.36,53 C354.52,52.28 353.88,51.52 353.44,50.72 Z M405.12,63.2 L402.88,63.2 L402.88,44 L405.12,44 L405.12,63.2 Z M382.4,80.8 L382.4,66.2 L384.64,66.2 L384.64,71.08 L402.88,71.08 L402.88,66.2 L405.12,66.2 L405.12,80.8 L382.4,80.8 Z M402.88,73 L384.64,73 L384.64,78.88 L402.88,78.88 L402.88,73 Z M394.88,53.8 C394.88,55.08 394.64,56.24 394.2,57.28 C393.72,58.36 393.12,59.28 392.32,60 C391.52,60.76 390.56,61.32 389.48,61.72 C388.36,62.16 387.2,62.36 385.92,62.36 C384.64,62.36 383.44,62.16 382.36,61.76 C381.24,61.36 380.32,60.8 379.52,60.04 C378.68,59.32 378.04,58.4 377.6,57.32 C377.12,56.28 376.92,55.12 376.92,53.8 C376.92,52.52 377.12,51.36 377.6,50.28 C378.04,49.24 378.68,48.36 379.52,47.6 C380.32,46.88 381.24,46.28 382.36,45.88 C383.44,45.48 384.64,45.28 385.92,45.28 C387.2,45.28 388.36,45.48 389.48,45.88 C390.56,46.32 391.52,46.92 392.32,47.64 C393.12,48.4 393.72,49.28 394.2,50.32 C394.64,51.36 394.88,52.52 394.88,53.8 Z M392.64,53.8 C392.64,52.84 392.44,51.92 392.12,51.12 C391.76,50.32 391.28,49.64 390.72,49.04 C390.08,48.48 389.4,48.04 388.6,47.72 C387.76,47.44 386.88,47.28 385.96,47.28 C385,47.28 384.12,47.44 383.32,47.72 C382.48,48.04 381.76,48.48 381.16,49.04 C380.52,49.6 380.04,50.28 379.72,51.08 C379.32,51.92 379.16,52.84 379.16,53.8 C379.16,54.84 379.32,55.72 379.68,56.52 C380,57.32 380.48,58 381.12,58.56 C381.68,59.16 382.4,59.6 383.28,59.88 C384.08,60.2 385,60.36 385.96,60.36 C386.92,60.36 387.8,60.2 388.64,59.88 C389.44,59.6 390.12,59.16 390.76,58.56 C391.32,58 391.8,57.32 392.16,56.48 C392.48,55.68 392.64,54.8 392.64,53.8 Z M418.4,67.56 C421.52,67.56 424.56,67.48 427.44,67.24 C430.28,67.04 433.04,66.72 435.68,66.28 L435.96,68.2 C430.68,69.08 424.08,69.52 416.16,69.52 L416.16,47.12 L418.4,47.12 L418.4,67.56 Z M442.76,81.6 L440.52,81.6 L440.52,44 L442.76,44 L442.76,81.6 Z" id="Shape"></path>
            </g>
        </g>
    </g>
</svg>