<svg xmlns="http://www.w3.org/2000/svg" width="227.947" height="50" viewBox="0 0 227.947 50">
  <g id="Path_7" data-name="Path 7" transform="translate(2313.658 1102.931)">
    <path id="Path_7-2" data-name="Path 7" d="M66.218,48.052a6.946,6.946,0,0,1-2.2-5.336V29.164H69V42.815q.084,3.374,3.134,3.374a3.032,3.032,0,0,0,2.329-.848,3.959,3.959,0,0,0,.79-2.752V29.164h4.955V42.617a7.729,7.729,0,0,1-.975,3.96,6.3,6.3,0,0,1-2.794,2.548A9.852,9.852,0,0,1,72.133,50,8.506,8.506,0,0,1,66.218,48.052ZM48.3,48.794a8.271,8.271,0,0,1-3.17-3.451,11.85,11.85,0,0,1-1.193-5.153V39.032a12.24,12.24,0,0,1,1.108-5.33,8.269,8.269,0,0,1,3.176-3.564,9.4,9.4,0,0,1,9.367-.014,8.4,8.4,0,0,1,3.183,3.536,11.886,11.886,0,0,1,1.15,5.259v.946a12.168,12.168,0,0,1-1.115,5.322,8.275,8.275,0,0,1-3.17,3.565A8.862,8.862,0,0,1,52.958,50,9,9,0,0,1,48.3,48.794Zm.691-10.439-.014,1.51a8.939,8.939,0,0,0,1,4.644,3.293,3.293,0,0,0,2.979,1.624,3.252,3.252,0,0,0,2.894-1.595,8.684,8.684,0,0,0,1.03-4.588V39a8.676,8.676,0,0,0-1.023-4.651,3.294,3.294,0,0,0-2.93-1.589C50.457,32.764,49.132,34.645,48.991,38.354ZM164.124,49.719h-4.953V29.164h8.089a9.062,9.062,0,0,1,5.717,1.624,5.525,5.525,0,0,1,2.061,4.587,6.714,6.714,0,0,1-.868,3.558,6.188,6.188,0,0,1-2.717,2.287l4.291,8.286v.211h-5.307l-3.628-7.257h-2.683v7.257h0Zm0-11.083h3.135a2.828,2.828,0,0,0,2.124-.742,2.874,2.874,0,0,0,.713-2.068,2.907,2.907,0,0,0-.72-2.082,2.8,2.8,0,0,0-2.117-.755h-3.135Zm-20.56,11.083h-5.293l7.538-20.554h4.658l7.6,20.553h-5.323l-1.2-3.84h-6.79l-1.185,3.84h0Zm2.372-7.666h4.419l-2.217-7.129ZM31,49.719H26.047V29.164h8.089a9.059,9.059,0,0,1,5.717,1.624,5.522,5.522,0,0,1,2.061,4.587,6.706,6.706,0,0,1-.868,3.558,6.183,6.183,0,0,1-2.717,2.287l4.291,8.286v.211H37.312l-3.628-7.257H31v7.257h0Zm0-11.083h3.135a2.828,2.828,0,0,0,2.124-.742,2.87,2.87,0,0,0,.713-2.068,2.9,2.9,0,0,0-.72-2.082,2.8,2.8,0,0,0-2.117-.755H31ZM216.823,49.718V32.99h-6.056V29.164h17.18V32.99h-6.169V49.718Zm-21.081,0V29.164H209.93V32.99H200.7v4.333h7.792v3.685H200.7v4.9h9.2v3.812Zm-6.738,0-4.376-7.652L182.595,44.3v5.421H177.64V29.164h4.955v9.063l1.723-2.612,4.432-6.451h6.126l-6.945,9.091,6.945,11.463Zm-57.115,0v-4.8l.48-9.825L127.4,49.718h-3.275l-4.983-14.639.48,9.84v4.8h-4.954V29.164h6.508l4.587,14.3,4.574-14.3h6.522V49.718Zm-31.757,0v-4.8l.48-9.825L95.642,49.718H92.367L87.384,35.078l.48,9.84v4.8H82.909V29.164h6.508L94,43.464l4.574-14.3H105.1V49.718ZM0,49.718V29.164H14.188V32.99H4.955v4.333h7.793v3.685H4.955v4.9h9.2v3.812Zm17.3-8.184V37.017h4.531v4.517ZM131.387,27.415v-3.4h.621a3.262,3.262,0,0,0,1.532-.289,1.755,1.755,0,0,0,.783-1.038l.382-1.016L129.4,6.254h5.082l2.414,8.61,2.541-8.61h5.1L138.3,24.083l-.268.649a4.728,4.728,0,0,1-4.686,2.965A7.429,7.429,0,0,1,131.387,27.415Zm-85.777,0v-3.4h.622a3.258,3.258,0,0,0,1.531-.289,1.753,1.753,0,0,0,.784-1.038l.381-1.016L43.619,6.254H48.7l2.415,8.61,2.541-8.61h5.1L52.527,24.083l-.268.649A4.729,4.729,0,0,1,47.572,27.7,7.441,7.441,0,0,1,45.609,27.415ZM95.482,27.4h-4.77V20.257a4.449,4.449,0,0,1-3.473,1.553,5.172,5.172,0,0,1-4.313-2.1,9.726,9.726,0,0,1-1.6-5.979,9.216,9.216,0,0,1,1.581-5.7,5.213,5.213,0,0,1,4.361-2.061,4.453,4.453,0,0,1,3.756,1.92l.338-1.637h4.122V27.4h0ZM86.1,13.185l-.014.847c0,2.726.8,4.108,2.371,4.108A2.305,2.305,0,0,0,90.712,16.9V10.856a2.258,2.258,0,0,0-2.231-1.214C87.01,9.642,86.208,10.833,86.1,13.185Zm37.112,7.467a4.743,4.743,0,0,1-1.172-3.514V9.557h-1.948v-3.3h1.948v-3.8h4.757v3.8h2.513v3.3h-2.513v6.988a1.784,1.784,0,0,0,.311,1.2,1.666,1.666,0,0,0,1.229.339A7.045,7.045,0,0,0,129.518,18v3.4a8.784,8.784,0,0,1-2.682.41A4.982,4.982,0,0,1,123.208,20.652ZM99,20.349a6.144,6.144,0,0,1-1.292-4.2v-9.9h4.757v9.923a1.71,1.71,0,0,0,1.906,1.962,2.488,2.488,0,0,0,2.329-1.171V6.254h4.785V21.528h-4.46l-.141-1.651a4.907,4.907,0,0,1-4.08,1.934A4.809,4.809,0,0,1,99,20.349ZM33.013,21.1a5.855,5.855,0,0,1-2.4-1.92,4.345,4.345,0,0,1-.861-2.555H34.2a1.84,1.84,0,0,0,.706,1.546,2.908,2.908,0,0,0,1.736.487,2.29,2.29,0,0,0,1.462-.4,1.267,1.267,0,0,0,.487-1.03,1.1,1.1,0,0,0-.635-.975A9.678,9.678,0,0,0,35.54,15.5,10.981,10.981,0,0,1,32.6,14.462a4.905,4.905,0,0,1-1.764-1.56,3.72,3.72,0,0,1-.608-2.1,4.223,4.223,0,0,1,1.736-3.466,7.155,7.155,0,0,1,4.546-1.362A7.928,7.928,0,0,1,41.37,7.34a4.284,4.284,0,0,1,1.835,3.6H38.434q0-1.835-1.934-1.835a1.916,1.916,0,0,0-1.256.417,1.288,1.288,0,0,0-.508,1.038,1.184,1.184,0,0,0,.621,1.031,5.883,5.883,0,0,0,1.984.649,17.018,17.018,0,0,1,2.392.608q3.445,1.185,3.444,4.249a4,4,0,0,1-1.856,3.4,8.143,8.143,0,0,1-4.807,1.313A8.308,8.308,0,0,1,33.013,21.1Zm-16.564-.6a4.174,4.174,0,0,1-1.51-3.282,4.289,4.289,0,0,1,1.835-3.755A9.391,9.391,0,0,1,22.11,12.2h1.468v-.8c0-1.4-.613-2.1-1.821-2.1a1.489,1.489,0,0,0-1.694,1.666H15.306a4.289,4.289,0,0,1,1.885-3.6A7.947,7.947,0,0,1,22,5.971,6.976,6.976,0,0,1,26.614,7.4a4.98,4.98,0,0,1,1.736,3.911v6.762A6.969,6.969,0,0,0,29,21.288v.24H24.242a5.34,5.34,0,0,1-.452-1.369,4.446,4.446,0,0,1-3.671,1.652A5.443,5.443,0,0,1,16.449,20.5Zm3.262-3.536a1.37,1.37,0,0,0,.437,1.051,1.593,1.593,0,0,0,1.115.4,2.665,2.665,0,0,0,1.475-.381,2.394,2.394,0,0,0,.84-.861V14.738H22.195C20.547,14.738,19.711,15.488,19.711,16.969Zm99,4.559h-4.77V6.254h4.771V21.527h0Zm-52.089,0V.974H80.812V4.8H71.58V9.133h7.792v3.685H71.58v4.9h9.2v3.811Zm-66.554,0V.974H14.257V4.8H5.025V9.133h7.792v3.685H5.025v4.9h9.2v3.811ZM114.4,3.981a2.131,2.131,0,0,1-.734-1.666A2.13,2.13,0,0,1,114.4.65a3.12,3.12,0,0,1,3.812,0,2.135,2.135,0,0,1,.733,1.665,2.137,2.137,0,0,1-.733,1.666,3.12,3.12,0,0,1-3.812,0Z" transform="translate(-2313.658 -1102.931)" fill="none"/>
    <path id="Path_7-3" data-name="Path 7" d="M66.218,48.052a6.946,6.946,0,0,1-2.2-5.336V29.164H69V42.815q.084,3.374,3.134,3.374a3.032,3.032,0,0,0,2.329-.848,3.959,3.959,0,0,0,.79-2.752V29.164h4.955V42.617a7.729,7.729,0,0,1-.975,3.96,6.3,6.3,0,0,1-2.794,2.548A9.852,9.852,0,0,1,72.133,50,8.506,8.506,0,0,1,66.218,48.052ZM48.3,48.794a8.271,8.271,0,0,1-3.17-3.451,11.85,11.85,0,0,1-1.193-5.153V39.032a12.24,12.24,0,0,1,1.108-5.33,8.269,8.269,0,0,1,3.176-3.564,9.4,9.4,0,0,1,9.367-.014,8.4,8.4,0,0,1,3.183,3.536,11.886,11.886,0,0,1,1.15,5.259v.946a12.168,12.168,0,0,1-1.115,5.322,8.275,8.275,0,0,1-3.17,3.565A8.862,8.862,0,0,1,52.958,50,9,9,0,0,1,48.3,48.794Zm.691-10.439-.014,1.51a8.939,8.939,0,0,0,1,4.644,3.293,3.293,0,0,0,2.979,1.624,3.252,3.252,0,0,0,2.894-1.595,8.684,8.684,0,0,0,1.03-4.588V39a8.676,8.676,0,0,0-1.023-4.651,3.294,3.294,0,0,0-2.93-1.589C50.457,32.764,49.132,34.645,48.991,38.354ZM164.124,49.719h-4.953V29.164h8.089a9.062,9.062,0,0,1,5.717,1.624,5.525,5.525,0,0,1,2.061,4.587,6.714,6.714,0,0,1-.868,3.558,6.188,6.188,0,0,1-2.717,2.287l4.291,8.286v.211h-5.307l-3.628-7.257h-2.683v7.257h0Zm0-11.083h3.135a2.828,2.828,0,0,0,2.124-.742,2.874,2.874,0,0,0,.713-2.068,2.907,2.907,0,0,0-.72-2.082,2.8,2.8,0,0,0-2.117-.755h-3.135Zm-20.56,11.083h-5.293l7.538-20.554h4.658l7.6,20.553h-5.323l-1.2-3.84h-6.79l-1.185,3.84h0Zm2.372-7.666h4.419l-2.217-7.129ZM31,49.719H26.047V29.164h8.089a9.059,9.059,0,0,1,5.717,1.624,5.522,5.522,0,0,1,2.061,4.587,6.706,6.706,0,0,1-.868,3.558,6.183,6.183,0,0,1-2.717,2.287l4.291,8.286v.211H37.312l-3.628-7.257H31v7.257h0Zm0-11.083h3.135a2.828,2.828,0,0,0,2.124-.742,2.87,2.87,0,0,0,.713-2.068,2.9,2.9,0,0,0-.72-2.082,2.8,2.8,0,0,0-2.117-.755H31ZM216.823,49.718V32.99h-6.056V29.164h17.18V32.99h-6.169V49.718Zm-21.081,0V29.164H209.93V32.99H200.7v4.333h7.792v3.685H200.7v4.9h9.2v3.812Zm-6.738,0-4.376-7.652L182.595,44.3v5.421H177.64V29.164h4.955v9.063l1.723-2.612,4.432-6.451h6.126l-6.945,9.091,6.945,11.463Zm-57.115,0v-4.8l.48-9.825L127.4,49.718h-3.275l-4.983-14.639.48,9.84v4.8h-4.954V29.164h6.508l4.587,14.3,4.574-14.3h6.522V49.718Zm-31.757,0v-4.8l.48-9.825L95.642,49.718H92.367L87.384,35.078l.48,9.84v4.8H82.909V29.164h6.508L94,43.464l4.574-14.3H105.1V49.718ZM0,49.718V29.164H14.188V32.99H4.955v4.333h7.793v3.685H4.955v4.9h9.2v3.812Zm17.3-8.184V37.017h4.531v4.517ZM131.387,27.415v-3.4h.621a3.262,3.262,0,0,0,1.532-.289,1.755,1.755,0,0,0,.783-1.038l.382-1.016L129.4,6.254h5.082l2.414,8.61,2.541-8.61h5.1L138.3,24.083l-.268.649a4.728,4.728,0,0,1-4.686,2.965A7.429,7.429,0,0,1,131.387,27.415Zm-85.777,0v-3.4h.622a3.258,3.258,0,0,0,1.531-.289,1.753,1.753,0,0,0,.784-1.038l.381-1.016L43.619,6.254H48.7l2.415,8.61,2.541-8.61h5.1L52.527,24.083l-.268.649A4.729,4.729,0,0,1,47.572,27.7,7.441,7.441,0,0,1,45.609,27.415ZM95.482,27.4h-4.77V20.257a4.449,4.449,0,0,1-3.473,1.553,5.172,5.172,0,0,1-4.313-2.1,9.726,9.726,0,0,1-1.6-5.979,9.216,9.216,0,0,1,1.581-5.7,5.213,5.213,0,0,1,4.361-2.061,4.453,4.453,0,0,1,3.756,1.92l.338-1.637h4.122V27.4h0ZM86.1,13.185l-.014.847c0,2.726.8,4.108,2.371,4.108A2.305,2.305,0,0,0,90.712,16.9V10.856a2.258,2.258,0,0,0-2.231-1.214C87.01,9.642,86.208,10.833,86.1,13.185Zm37.112,7.467a4.743,4.743,0,0,1-1.172-3.514V9.557h-1.948v-3.3h1.948v-3.8h4.757v3.8h2.513v3.3h-2.513v6.988a1.784,1.784,0,0,0,.311,1.2,1.666,1.666,0,0,0,1.229.339A7.045,7.045,0,0,0,129.518,18v3.4a8.784,8.784,0,0,1-2.682.41A4.982,4.982,0,0,1,123.208,20.652ZM99,20.349a6.144,6.144,0,0,1-1.292-4.2v-9.9h4.757v9.923a1.71,1.71,0,0,0,1.906,1.962,2.488,2.488,0,0,0,2.329-1.171V6.254h4.785V21.528h-4.46l-.141-1.651a4.907,4.907,0,0,1-4.08,1.934A4.809,4.809,0,0,1,99,20.349ZM33.013,21.1a5.855,5.855,0,0,1-2.4-1.92,4.345,4.345,0,0,1-.861-2.555H34.2a1.84,1.84,0,0,0,.706,1.546,2.908,2.908,0,0,0,1.736.487,2.29,2.29,0,0,0,1.462-.4,1.267,1.267,0,0,0,.487-1.03,1.1,1.1,0,0,0-.635-.975A9.678,9.678,0,0,0,35.54,15.5,10.981,10.981,0,0,1,32.6,14.462a4.905,4.905,0,0,1-1.764-1.56,3.72,3.72,0,0,1-.608-2.1,4.223,4.223,0,0,1,1.736-3.466,7.155,7.155,0,0,1,4.546-1.362A7.928,7.928,0,0,1,41.37,7.34a4.284,4.284,0,0,1,1.835,3.6H38.434q0-1.835-1.934-1.835a1.916,1.916,0,0,0-1.256.417,1.288,1.288,0,0,0-.508,1.038,1.184,1.184,0,0,0,.621,1.031,5.883,5.883,0,0,0,1.984.649,17.018,17.018,0,0,1,2.392.608q3.445,1.185,3.444,4.249a4,4,0,0,1-1.856,3.4,8.143,8.143,0,0,1-4.807,1.313A8.308,8.308,0,0,1,33.013,21.1Zm-16.564-.6a4.174,4.174,0,0,1-1.51-3.282,4.289,4.289,0,0,1,1.835-3.755A9.391,9.391,0,0,1,22.11,12.2h1.468v-.8c0-1.4-.613-2.1-1.821-2.1a1.489,1.489,0,0,0-1.694,1.666H15.306a4.289,4.289,0,0,1,1.885-3.6A7.947,7.947,0,0,1,22,5.971,6.976,6.976,0,0,1,26.614,7.4a4.98,4.98,0,0,1,1.736,3.911v6.762A6.969,6.969,0,0,0,29,21.288v.24H24.242a5.34,5.34,0,0,1-.452-1.369,4.446,4.446,0,0,1-3.671,1.652A5.443,5.443,0,0,1,16.449,20.5Zm3.262-3.536a1.37,1.37,0,0,0,.437,1.051,1.593,1.593,0,0,0,1.115.4,2.665,2.665,0,0,0,1.475-.381,2.394,2.394,0,0,0,.84-.861V14.738H22.195C20.547,14.738,19.711,15.488,19.711,16.969Zm99,4.559h-4.77V6.254h4.771V21.527h0Zm-52.089,0V.974H80.812V4.8H71.58V9.133h7.792v3.685H71.58v4.9h9.2v3.811Zm-66.554,0V.974H14.257V4.8H5.025V9.133h7.792v3.685H5.025v4.9h9.2v3.811ZM114.4,3.981a2.131,2.131,0,0,1-.734-1.666A2.13,2.13,0,0,1,114.4.65a3.12,3.12,0,0,1,3.812,0,2.135,2.135,0,0,1,.733,1.665,2.137,2.137,0,0,1-.733,1.666,3.12,3.12,0,0,1-3.812,0Z" transform="translate(-2313.658 -1102.931)" fill="#fff"/>
  </g>
</svg>
