<?xml version="1.0" encoding="UTF-8"?>
<svg width="255px" height="115px" viewBox="0 0 255 115" version="1.1" xmlns="http://www.w3.org/2000/svg" xmlns:xlink="http://www.w3.org/1999/xlink">
    <title>Group 6</title>
    <defs>
        <path d="M189.395195,36.5021201 C178.192522,36.6771619 166.639765,36.8522036 155.787175,36.6771619 C152.811465,36.589641 147.29765,36.3270783 143.971856,36.2395574 C143.009126,36.2395574 140.996146,36.0645157 140.208458,36.1520366 C138.107957,36.4145992 136.707623,37.2898081 136.44506,39.3903093 C136.182497,41.7533732 137.232748,42.9786656 139.070686,43.41627 C140.295979,43.5913118 143.35921,43.5913118 144.40946,43.5913118 C151.061048,43.7663536 158.587844,43.7663536 165.239431,43.7663536 L165.239431,52.3434003 L151.673694,52.3434003 C149.31063,52.3434003 147.035087,52.7810047 147.035087,56.1943193 C147.035087,67.834597 146.947566,71.597995 146.947566,74.4861842 C146.947566,78.2495823 148.435421,80 153.424112,80 C168.477704,80 171.453414,80 185.806839,79.3873538 C188.344945,79.2998329 190.182883,78.2495823 190.270404,75.3613931 C190.445446,69.6725356 190.445446,56.1067984 190.445446,56.1067984 C190.532967,53.1310883 188.87007,52.1683585 186.594527,52.1683585 C182.481045,52.1683585 177.667397,52.3434003 173.116311,52.3434003 L173.116311,45.8668548 L173.116311,43.7663536 C178.717647,43.7663536 184.143942,43.6788327 190.708009,43.6788327 C190.708009,43.6788327 196.921991,43.5037909 197.7972,43.41627 C199.460097,43.1537074 200.77291,42.6285821 200.77291,40.0029555 C200.77291,37.6398916 199.72266,36.0645157 197.097033,36.3270783 C196.834471,36.3270783 191.320655,36.5021201 189.395195,36.5021201 Z M156.22478,72.8232874 C155.087008,72.8232874 155.087008,72.2106412 155.087008,71.5104741 C155.087008,66.9593881 155.087008,63.5460736 155.174529,59.432592 C158.412802,59.432592 162.701325,59.3450711 168.302662,59.3450711 C173.291353,59.3450711 178.105001,59.2575502 181.343274,59.2575502 C182.306004,59.2575502 182.568566,59.6076338 182.568566,60.3078009 L182.568566,72.4732039 C175.479375,72.8232874 172.766227,72.9108083 167.952579,72.9108083 C164.276701,72.9108083 159.638094,72.8232874 156.22478,72.8232874 Z M166.989849,0.881119861 C158.062719,1.14368252 147.385171,5.344685 147.385171,15.7596703 C147.385171,26.3496974 155.962217,30.2881373 166.989849,30.2881373 C176.704667,30.2881373 189.045112,28.3626778 188.87007,15.8471912 C188.695028,3.85682995 178.01748,0.706078091 166.989849,0.881119861 Z M180.99319,15.8471912 C180.818149,22.6738203 173.728957,23.5490291 166.989849,23.5490291 C161.563554,23.5490291 155.437092,22.1486949 155.612134,15.7596703 C155.787175,9.80825014 161.21347,7.7077489 167.427453,7.44518624 C174.604166,7.27014447 181.168232,9.28312483 180.99319,15.8471912 Z M42.2725875,56.0192775 C42.0975457,58.644904 44.2855679,60.1327591 46.2110273,60.1327591 C47.7864033,60.1327591 50.0619463,58.9949876 50.0619463,55.8442357 C50.0619463,47.8798352 49.9744254,40.0904764 50.2369881,32.1260758 C54.0003861,32.1260758 56.9760962,32.1260758 60.1268481,32.038555 C62.8399955,32.1260758 64.1528088,29.9380537 64.0652879,28.1001151 C63.977767,26.4372183 62.4023911,24.9493633 60.0393272,24.8618424 C57.9388259,24.9493633 56.1008874,24.9493633 50.2369881,24.9493633 C50.2369881,16.9849627 50.2369881,8.14535333 50.0619463,3.24418376 C49.7993836,0.793598976 47.6988824,-0.081609875 45.7734229,0.00591101008 C43.7604426,0.18095278 41.8349831,1.40624517 42.0975457,3.50674641 L42.4476293,30.6382208 L42.2725875,56.0192775 Z M7.87687966,5.78228943 C7.96440054,3.41922553 5.68885753,2.45649579 3.85091894,2.45649579 C1.92545947,2.45649579 -0.0875208851,3.68178818 0.0875208851,5.86981031 C0,7.35766536 0,10.9460216 0,15.3220659 C0,21.8861323 0.0875208851,32.6512012 0.17504177,40.6156017 C0.262562655,44.0289162 2.45058478,45.0791668 4.46356514,45.0791668 L23.1930346,45.0791668 C28.2692459,45.0791668 29.3194965,44.1164371 29.7571009,40.0029555 C30.2822262,34.314098 30.2822262,8.84552041 30.2822262,6.48245651 C30.2822262,4.55699704 29.3194965,2.71905845 27.1314744,2.63153756 C23.3680763,2.45649579 22.842951,4.90708058 22.842951,6.65749828 C22.842951,9.54568749 23.0179928,14.7094197 22.6679092,18.1227342 C17.3291353,18.1227342 12.8655701,18.297776 7.614317,18.297776 C7.614317,14.0967735 7.70183789,9.4581666 7.87687966,5.78228943 Z M7.43927523,38.4275796 C7.43927523,36.8522036 7.52679612,33.8764935 7.52679612,32.1260758 C7.614317,29.5879702 7.614317,27.3124272 7.614317,25.0368842 C12.953091,25.0368842 17.2416144,24.9493633 22.4053466,24.9493633 C22.3178257,26.4372183 22.3178257,30.463179 22.3178257,31.7759923 C22.2303048,34.4016189 22.3178257,36.589641 22.2303048,38.5151005 L7.43927523,38.4275796 Z M16.6289682,72.2106412 C15.7537593,72.2106412 15.5787175,72.2106412 15.4911967,70.6352653 C15.4036758,68.0096387 15.6662384,64.9464078 15.6662384,63.7211154 C15.6662384,62.1457394 15.7537593,61.5330932 15.7537593,57.8572161 C15.7537593,55.2315895 13.6532581,53.9187762 12.165403,53.9187762 C9.71481825,53.9187762 7.52679612,54.9690269 7.52679612,57.8572161 C7.52679612,62.2332603 7.52679612,67.9221179 7.43927523,72.6482457 C7.52679612,77.6369361 9.27721382,79.4748747 14.2659043,79.4748747 C21.0050124,79.3873538 23.8056807,79.3873538 27.9191623,79.3873538 L36.7587717,79.3873538 C39.7344818,79.3873538 42.622671,79.212312 47.0862362,79.1247911 C50.5870716,79.0372703 50.9371551,77.5494152 50.7621134,75.0988304 C50.6745925,73.5234545 49.7993836,72.1231203 46.6486318,72.1231203 C40.1720863,72.1231203 32.732811,72.4732039 27.9191623,72.4732039 C23.5431181,72.4732039 21.9677422,72.2981621 16.6289682,72.2106412 Z M112.464337,74.7487469 C112.464337,76.6742064 113.252025,78.8622285 116.490298,78.8622285 C118.328237,78.8622285 119.553529,78.512145 120.166175,76.2366019 C120.516259,75.0988304 120.341217,73.3484127 120.341217,71.1603906 C120.253696,63.7211154 120.078654,54.6189433 120.078654,47.1796681 C120.078654,43.6788327 119.991133,40.9656852 119.991133,37.5523707 C122.879323,37.4648498 128.130576,37.5523707 130.843723,37.4648498 C133.294308,37.377329 134.694642,35.6269112 134.694642,33.8764935 C134.694642,32.1260758 133.556871,30.463179 130.756202,30.463179 C128.56818,30.463179 124.804782,30.9007835 120.166175,30.463179 C120.166175,22.3237367 120.166175,15.0595032 119.991133,8.75799952 C119.903613,6.65749828 119.903613,4.99460146 119.903613,3.5942673 C119.903613,1.49376606 118.590799,-0.16913076 115.615089,0.0934318952 C113.68963,0.268473665 111.851691,1.66880783 112.026733,4.11939261 C112.551858,12.2588349 112.464337,45.6042922 112.464337,74.7487469 Z M72.8173764,12.7839602 C74.2177106,12.7839602 78.3311922,12.6964394 81.5694649,12.6089185 C85.5954256,12.5213976 91.8969294,12.5213976 93.2097426,12.5213976 C94.435035,12.5213976 94.435035,12.959002 94.1724724,13.74669 C90.8466787,28.5377196 80.5192143,43.41627 69.316541,53.5686927 C68.0912486,54.6189433 66.7784353,57.157049 67.9162068,58.644904 C69.4040619,60.5703635 72.2922511,59.6076338 73.6050644,58.5573831 C88.1335313,46.8295845 99.3362046,29.1503658 102.574477,12.7839602 C102.749519,11.8212305 102.924561,11.0335425 102.924561,10.1583337 C102.924561,6.48245651 100.736539,5.25716412 96.9731407,5.60724766 C92.5970964,5.9573312 88.2210522,5.9573312 83.8450079,6.13237297 C78.2436713,6.30741474 75.0053985,6.13237297 72.9924182,6.04485208 C70.2792707,5.78228943 68.7914157,7.53270713 68.7914157,9.37064572 C68.7914157,11.1210634 70.104229,12.7839602 72.8173764,12.7839602 Z" id="path-1"></path>
        <polygon id="path-3" points="4.89424422e-13 -8.1147996e-13 11.142726 -8.1147996e-13 11.142726 11.142726 4.89424422e-13 11.142726"></polygon>
        <polygon id="path-5" points="-7.75241023e-13 -8.63907969e-13 7.42848401 -8.63907969e-13 7.42848401 7.42848401 -7.75241023e-13 7.42848401"></polygon>
    </defs>
    <g id="멤버등급" stroke="none" stroke-width="1" fill="none" fill-rule="evenodd">
        <g id="mem-grade8" transform="translate(-614.000000, -532.000000)">
            <g id="Group-6" transform="translate(614.924000, 532.654000)">
                <g id="반가움" transform="translate(0.876000, 18.303974)">
                    <mask id="mask-2" fill="white">
                        <use xlink:href="#path-1"></use>
                    </mask>
                    <use id="Shape" fill="#FFFFFF" fill-rule="nonzero" xlink:href="#path-1"></use>
                </g>
                <g id="membership-grade" fill="#FFFFFF" fill-rule="nonzero">
                    <path d="M0,10.892 C0,11.27 0.336,11.48 0.63,11.48 C0.938,11.48 1.302,11.256 1.302,10.864 C1.302,8.4 1.302,6.538 1.246,3.766 C1.82,5.376 2.464,6.678 3.164,8.19 C3.332,8.554 3.528,8.708 3.822,8.708 C4.102,8.708 4.298,8.512 4.452,8.176 C5.068,6.888 5.53,5.684 6.244,4.018 C6.258,5.754 6.258,6.552 6.258,8.134 C6.258,8.904 6.23,9.884 6.23,10.892 C6.23,11.27 6.538,11.466 6.846,11.466 C7.182,11.466 7.504,11.256 7.504,10.864 L7.504,9.044 C7.504,6.244 7.518,3.402 7.462,0.616 C7.448,0.238 7.126,0.14 6.846,0.14 C6.678,0.14 6.44,0.252 6.356,0.49 C5.586,2.66 4.606,5.068 3.808,6.958 C2.954,4.802 2.366,3.724 1.232,0.77 C1.162,0.588 0.994,0.28 0.826,0.196 C0.518,0.042 0,0.154 0,0.63 L0,10.892 Z" id="Path"></path>
                    <path d="M9.534,10.094 C9.534,10.612 9.674,11.074 10.444,11.074 L12.852,11.074 C13.23,11.074 13.818,11.074 14.252,11.06 C14.644,11.046 14.826,10.836 14.826,10.5 C14.826,10.136 14.63,9.926 14.252,9.926 L13.104,9.94 C12.838,9.954 12.292,9.94 11.704,9.94 L11.046,9.94 C10.892,9.94 10.822,9.884 10.822,9.688 L10.822,8.4 C10.822,7.644 10.808,6.846 10.808,6.09 C10.808,6.09 13.244,6.09 13.79,6.062 C14.154,6.048 14.392,5.824 14.392,5.432 C14.392,5.11 14.14,4.914 13.846,4.928 C13.23,4.956 12.712,4.942 12.11,4.942 C11.522,4.942 11.06,4.928 10.822,4.928 C10.808,3.64 10.766,2.548 10.752,1.274 L13.818,1.288 C14.14,1.288 14.532,1.232 14.532,0.7 C14.532,0.35 14.238,0.21 14.028,0.168 C13.874,0.14 13.594,0.126 13.132,0.126 C12.768,0.126 12.348,0.14 11.9,0.14 L10.01,0.14 C9.562,0.14 9.492,0.476 9.492,0.742 L9.492,1.302 C9.492,1.498 9.534,1.54 9.534,6.454 L9.534,10.094 Z" id="Path"></path>
                    <path d="M16.226,10.892 C16.226,11.27 16.562,11.48 16.856,11.48 C17.164,11.48 17.528,11.256 17.528,10.864 C17.528,8.4 17.528,6.538 17.472,3.766 C18.046,5.376 18.69,6.678 19.39,8.19 C19.558,8.554 19.754,8.708 20.048,8.708 C20.328,8.708 20.524,8.512 20.678,8.176 C21.294,6.888 21.756,5.684 22.47,4.018 C22.484,5.754 22.484,6.552 22.484,8.134 C22.484,8.904 22.456,9.884 22.456,10.892 C22.456,11.27 22.764,11.466 23.072,11.466 C23.408,11.466 23.73,11.256 23.73,10.864 L23.73,9.044 C23.73,6.244 23.744,3.402 23.688,0.616 C23.674,0.238 23.352,0.14 23.072,0.14 C22.904,0.14 22.666,0.252 22.582,0.49 C21.812,2.66 20.832,5.068 20.034,6.958 C19.18,4.802 18.592,3.724 17.458,0.77 C17.388,0.588 17.22,0.28 17.052,0.196 C16.744,0.042 16.226,0.154 16.226,0.63 L16.226,10.892 Z" id="Path"></path>
                    <path d="M25.816,10.752 C25.816,11.242 26.068,11.242 26.53,11.256 C28.952,11.354 30.912,10.192 30.954,8.176 C30.982,6.902 30.422,5.908 29.414,5.418 C30.226,5.026 30.786,4.116 30.758,3.08 C30.716,1.12 28.924,0.238 26.418,0.182 C25.928,0.168 25.718,0.294 25.732,0.756 C25.788,3.416 25.774,5.726 25.802,8.218 C25.802,8.708 25.816,10.304 25.816,10.752 Z M27.72,5.978 C29.218,5.978 29.722,7.154 29.694,8.148 C29.652,9.436 28.602,10.178 27.44,10.178 L27.048,10.178 L27.048,8.736 C27.048,7.812 27.034,6.916 27.02,5.978 L27.72,5.978 Z M29.47,3.094 C29.484,4.06 28.714,4.886 27.664,4.886 L27.006,4.886 C26.992,3.724 26.978,2.506 26.978,1.33 C28.434,1.47 29.456,1.96 29.47,3.094 Z" id="Shape"></path>
                    <path d="M32.62,10.094 C32.62,10.612 32.76,11.074 33.53,11.074 L35.938,11.074 C36.316,11.074 36.904,11.074 37.338,11.06 C37.73,11.046 37.912,10.836 37.912,10.5 C37.912,10.136 37.716,9.926 37.338,9.926 L36.19,9.94 C35.924,9.954 35.378,9.94 34.79,9.94 L34.132,9.94 C33.978,9.94 33.908,9.884 33.908,9.688 L33.908,8.4 C33.908,7.644 33.894,6.846 33.894,6.09 C33.894,6.09 36.33,6.09 36.876,6.062 C37.24,6.048 37.478,5.824 37.478,5.432 C37.478,5.11 37.226,4.914 36.932,4.928 C36.316,4.956 35.798,4.942 35.196,4.942 C34.608,4.942 34.146,4.928 33.908,4.928 C33.894,3.64 33.852,2.548 33.838,1.274 L36.904,1.288 C37.226,1.288 37.618,1.232 37.618,0.7 C37.618,0.35 37.324,0.21 37.114,0.168 C36.96,0.14 36.68,0.126 36.218,0.126 C35.854,0.126 35.434,0.14 34.986,0.14 L33.096,0.14 C32.648,0.14 32.578,0.476 32.578,0.742 L32.578,1.302 C32.578,1.498 32.62,1.54 32.62,6.454 L32.62,10.094 Z" id="Path"></path>
                    <path d="M39.382,10.836 C39.382,11.256 39.69,11.424 40.012,11.424 C40.292,11.424 40.6,11.256 40.628,10.878 C40.656,10.472 40.642,9.506 40.642,8.47 C40.642,7.924 40.656,7.322 40.656,6.678 L40.88,6.678 C41.804,8.218 42.63,9.758 43.624,11.172 C43.764,11.368 43.946,11.466 44.128,11.466 C44.282,11.466 44.436,11.396 44.534,11.298 C44.702,11.13 44.772,10.836 44.576,10.542 C43.638,9.072 42.924,7.84 42.112,6.384 C43.764,5.768 44.632,4.564 44.632,3.206 C44.632,1.82 43.554,0.756 42.308,0.392 C41.454,0.14 40.642,0.098 40.082,0.07 C39.522,0.042 39.368,0.308 39.368,0.672 C39.368,2.058 39.382,3.416 39.382,4.578 L39.382,10.836 Z M41.622,1.4 C42.868,1.652 43.358,2.618 43.358,3.262 C43.358,4.312 42.7,5.208 40.656,5.502 C40.642,3.976 40.628,2.548 40.628,1.26 C40.922,1.302 41.356,1.33 41.622,1.4 Z" id="Shape"></path>
                    <path d="M51.464,1.834 C51.212,0.532 50.274,0 49.042,0 C47.082,0 46.326,1.176 46.326,2.338 C46.326,3.43 47.124,4.368 48.482,5.712 C49.784,7 50.47,7.672 50.47,8.806 C50.47,9.716 49.896,10.276 48.874,10.276 C48.006,10.276 47.432,9.8 47.39,8.974 C47.348,8.596 47.054,8.428 46.746,8.428 C46.438,8.428 46.102,8.666 46.116,9.058 C46.102,10.416 47.334,11.452 48.874,11.452 C50.428,11.452 51.758,10.57 51.772,8.834 C51.786,7.49 51.212,6.594 49.378,4.83 C48.258,3.766 47.74,3.052 47.74,2.352 C47.74,1.736 48.132,1.176 49.126,1.19 C49.714,1.204 50.12,1.54 50.232,2.128 C50.288,2.45 50.54,2.576 50.792,2.576 C51.142,2.576 51.548,2.268 51.464,1.834 Z" id="Path"></path>
                    <path d="M57.596,0.714 C57.596,1.932 57.61,2.59 57.638,3.738 C57.638,3.864 57.652,4.606 57.652,4.718 C56.924,4.704 56.476,4.704 55.776,4.704 C55.356,4.704 54.852,4.69 54.404,4.704 L54.404,0.686 C54.404,0.336 54.082,0.14 53.76,0.14 C53.452,0.14 53.144,0.308 53.13,0.602 C53.102,1.26 53.102,2.114 53.102,2.898 C53.102,3.738 53.102,4.648 53.116,5.068 C53.144,6.356 53.144,7.35 53.158,8.414 C53.172,9.128 53.186,10.038 53.2,10.92 C53.242,11.298 53.522,11.494 53.83,11.494 C54.152,11.494 54.46,11.284 54.474,10.892 C54.474,10.78 54.474,9.982 54.46,9.408 C54.418,8.008 54.432,7.112 54.432,5.908 C55.174,5.908 55.664,5.894 56.35,5.894 C56.756,5.894 57.246,5.908 57.666,5.908 C57.694,7.518 57.722,9.128 57.736,10.752 C57.778,11.116 58.044,11.312 58.352,11.312 C58.646,11.312 58.982,11.116 58.996,10.724 C58.982,9.016 58.954,7.238 58.926,5.614 C58.898,3.99 58.856,2.366 58.856,0.672 C58.856,0.266 58.478,0.168 58.212,0.168 C57.932,0.168 57.596,0.336 57.596,0.714 Z" id="Path"></path>
                    <path d="M63.826,11.074 C64.204,11.074 64.386,10.808 64.386,10.57 C64.386,10.29 64.176,10.024 63.826,10.024 L62.916,10.024 L62.916,1.288 L63.896,1.288 C64.26,1.288 64.428,1.022 64.428,0.742 C64.428,0.462 64.26,0.182 63.91,0.182 L62.384,0.182 C61.88,0.182 61.376,0.168 60.858,0.168 C60.438,0.182 60.214,0.462 60.214,0.728 C60.214,0.98 60.438,1.274 60.83,1.26 C61.096,1.246 61.348,1.26 61.614,1.26 C61.656,2.408 61.656,3.416 61.656,4.578 C61.656,5.334 61.642,6.776 61.642,7.532 C61.628,8.358 61.628,9.24 61.628,10.038 L60.76,10.038 C60.34,10.038 60.228,10.304 60.228,10.57 C60.228,10.808 60.34,11.074 60.746,11.074 L63.826,11.074 Z" id="Path"></path>
                    <path d="M65.618,10.696 C65.618,10.864 65.646,11.004 65.744,11.13 C65.884,11.312 66.108,11.368 66.29,11.368 C66.668,11.368 67.004,11.046 66.934,10.626 L66.934,7.574 C69.258,7.476 71.078,6.006 70.966,3.584 C70.91,2.114 70.168,0.966 68.978,0.504 C68.054,0.154 66.99,0.154 66.248,0.154 C65.506,0.196 65.632,0.812 65.632,0.812 L65.632,0.784 C65.646,1.764 65.66,2.982 65.66,4.368 C65.66,6.272 65.646,8.596 65.618,10.696 Z M66.934,1.33 C67.368,1.358 68.082,1.442 68.418,1.582 C69.16,1.89 69.65,2.604 69.678,3.682 C69.72,5.208 68.502,6.3 66.934,6.398 L66.934,1.33 Z" id="Shape"></path>
                    <path d="M80.836,6.328 C81.032,6.328 81.116,6.342 81.116,6.65 C81.116,7.756 81.116,8.638 81.102,9.772 C80.864,10.024 80.122,10.136 79.744,10.136 C78.19,10.136 77.042,8.694 76.986,5.88 C76.944,3.598 77.84,1.232 79.744,1.19 C80.318,1.176 80.99,1.512 81.228,1.666 C81.494,1.848 81.83,1.708 81.998,1.47 C82.138,1.26 82.166,0.994 81.942,0.784 C81.396,0.28 80.724,0.014 79.618,0.042 C76.944,0.112 75.642,2.772 75.684,5.838 C75.726,9.016 77.056,11.284 79.73,11.284 C80.374,11.284 81.452,11.088 82.04,10.612 C82.292,10.416 82.306,10.178 82.306,9.968 C82.306,9.058 82.32,8.008 82.32,7.126 C82.32,6.678 82.334,6.062 82.306,5.754 C82.25,5.25 82.054,5.166 81.606,5.18 C81.004,5.208 80.276,5.18 79.688,5.194 C79.31,5.208 79.142,5.53 79.142,5.782 C79.142,6.09 79.394,6.342 79.758,6.342 L80.836,6.328 Z" id="Path"></path>
                    <path d="M84.028,10.836 C84.028,11.256 84.336,11.424 84.658,11.424 C84.938,11.424 85.246,11.256 85.274,10.878 C85.302,10.472 85.288,9.506 85.288,8.47 C85.288,7.924 85.302,7.322 85.302,6.678 L85.526,6.678 C86.45,8.218 87.276,9.758 88.27,11.172 C88.41,11.368 88.592,11.466 88.774,11.466 C88.928,11.466 89.082,11.396 89.18,11.298 C89.348,11.13 89.418,10.836 89.222,10.542 C88.284,9.072 87.57,7.84 86.758,6.384 C88.41,5.768 89.278,4.564 89.278,3.206 C89.278,1.82 88.2,0.756 86.954,0.392 C86.1,0.14 85.288,0.098 84.728,0.07 C84.168,0.042 84.014,0.308 84.014,0.672 C84.014,2.058 84.028,3.416 84.028,4.578 L84.028,10.836 Z M86.268,1.4 C87.514,1.652 88.004,2.618 88.004,3.262 C88.004,4.312 87.346,5.208 85.302,5.502 C85.288,3.976 85.274,2.548 85.274,1.26 C85.568,1.302 86.002,1.33 86.268,1.4 Z" id="Shape"></path>
                    <path d="M93.38,0.574 C92.932,2.772 92.428,4.55 91.98,6.132 C91.574,7.518 91.154,9.044 90.804,10.696 C90.706,11.172 91.028,11.452 91.378,11.452 C91.644,11.452 91.938,11.256 92.022,10.976 C92.246,9.856 92.456,8.918 92.68,8.078 L95.2,8.078 C95.438,9.002 95.634,9.982 95.942,10.976 C96.04,11.312 96.222,11.466 96.558,11.466 C96.908,11.466 97.286,11.144 97.16,10.682 C96.81,9.422 96.474,7.896 96.124,6.44 C95.634,4.396 95.074,2.184 94.528,0.406 C94.458,0.154 94.234,0.028 93.982,0.028 C93.618,0.028 93.45,0.252 93.38,0.574 Z M93.212,6.216 C93.436,5.474 93.59,4.676 93.786,3.836 C93.87,3.514 93.968,2.996 94.038,2.66 C94.122,2.968 94.206,3.486 94.276,3.822 C94.388,4.34 94.514,5.068 94.626,5.572 C94.71,5.95 94.808,6.454 94.906,6.86 L93.03,6.86 C93.058,6.734 93.17,6.342 93.212,6.216 Z" id="Shape"></path>
                    <path d="M98.77,0.7 L98.77,1.148 C98.77,2.03 98.812,2.884 98.826,3.752 L98.868,5.768 C98.882,6.3 98.882,6.832 98.882,7.364 C98.896,8.456 98.91,9.73 98.952,10.486 C99.008,11.158 99.344,11.242 99.974,11.228 C102.802,11.186 104.37,9.212 104.412,5.614 C104.454,1.988 102.746,0.322 99.638,0.182 C99.19,0.168 98.798,0.154 98.77,0.7 Z M100.1,5.726 C100.086,5.222 100.086,4.718 100.072,4.228 C100.044,3.262 100.016,2.31 100.016,1.344 C101.976,1.26 103.166,3.122 103.166,5.558 C103.166,7.994 102.032,10.122 100.394,10.122 C100.324,10.122 100.254,10.122 100.17,10.108 C100.142,8.68 100.114,7.154 100.1,5.726 Z" id="Shape"></path>
                    <path d="M106.19,10.094 C106.19,10.612 106.33,11.074 107.1,11.074 L109.508,11.074 C109.886,11.074 110.474,11.074 110.908,11.06 C111.3,11.046 111.482,10.836 111.482,10.5 C111.482,10.136 111.286,9.926 110.908,9.926 L109.76,9.94 C109.494,9.954 108.948,9.94 108.36,9.94 L107.702,9.94 C107.548,9.94 107.478,9.884 107.478,9.688 L107.478,8.4 C107.478,7.644 107.464,6.846 107.464,6.09 C107.464,6.09 109.9,6.09 110.446,6.062 C110.81,6.048 111.048,5.824 111.048,5.432 C111.048,5.11 110.796,4.914 110.502,4.928 C109.886,4.956 109.368,4.942 108.766,4.942 C108.178,4.942 107.716,4.928 107.478,4.928 C107.464,3.64 107.422,2.548 107.408,1.274 L110.474,1.288 C110.796,1.288 111.188,1.232 111.188,0.7 C111.188,0.35 110.894,0.21 110.684,0.168 C110.53,0.14 110.25,0.126 109.788,0.126 C109.424,0.126 109.004,0.14 108.556,0.14 L106.666,0.14 C106.218,0.14 106.148,0.476 106.148,0.742 L106.148,1.302 C106.148,1.498 106.19,1.54 106.19,6.454 L106.19,10.094 Z" id="Path"></path>
                </g>
                <path d="M96.5946281,100.445365 C102.053924,95.6338854 104.057025,92.6292348 102.603929,91.4314131 C101.150834,90.2335914 99.1477334,90.8866183 96.5946281,93.3904938 C93.8019755,90.2909916 91.7988752,89.6379648 90.5853269,91.4314131 C89.3717787,93.2248615 91.3748791,96.2295121 96.5946281,100.445365 Z" id="Oval" fill="#FFFFFF" opacity="0.400000006"></path>
                <g id="Group-14" transform="translate(213.562552, 90.417317) rotate(-51.000000) translate(-213.562552, -90.417317) translate(200.479849, 75.417317)">
                    <g id="Group-3" transform="translate(0.000000, 18.857274)">
                        <mask id="mask-4" fill="white">
                            <use xlink:href="#path-3"></use>
                        </mask>
                        <g id="Clip-2"></g>
                        <path d="M5.18906879,-4.31967821e-13 C3.31869639,0.933585146 1.76748817,2.47572167 0.837954948,4.32553066 C0.0880948151,5.8178478 -0.256278604,7.56741414 0.216127169,9.16284231 C0.314825141,9.49617931 0.452177272,9.82664792 0.687005109,10.0857087 C0.861330784,10.2778908 1.08256091,10.4231219 1.3114302,10.5481232 C2.65057529,11.2794115 4.34723315,11.3404025 5.74092184,10.7075453 C6.20079939,10.4986058 6.62523123,10.2211269 7.03591257,9.92915508 C8.76434934,8.70118264 10.3241134,7.14606288 11.142726,5.20974932" id="Fill-1" fill="#BB95FF" mask="url(#mask-4)"></path>
                    </g>
                    <path d="M7.27963665,18.6427615 C6.37544399,18.5093088 5.44884864,18.5112176 4.54532974,18.6483287 C4.42236762,18.6669389 4.29014123,18.693025 4.20760502,18.7811451 C4.13837566,18.8551088 4.11833115,18.958976 4.11007753,19.0575942 C4.02231964,20.0949941 4.88204381,20.9682423 5.70807973,21.6571382 C6.72900219,22.5082768 7.81578517,23.3172642 9.06915656,23.820217 C9.49531294,23.9912083 9.94875681,24.1270469 10.4114649,24.1146401 C10.8743415,24.1022333 11.3505249,23.9215393 11.6178412,23.564605 C11.8007684,23.3206045 11.8725244,23.0166378 11.8957693,22.7183972 C12.009804,21.2475545 10.8945545,19.7749621 9.38380483,19.4014854" id="Fill-4" fill="#E9CBFF"></path>
                    <path d="M8.3838705,16.9672978 C7.97846778,17.6349348 7.47132606,18.2743518 6.81708994,18.8032995 C6.74237779,18.8637102 6.66440378,18.9241208 6.61361194,18.9987124 C6.54728744,19.096277 6.53377401,19.2090152 6.53672522,19.3163646 C6.55101528,19.8183686 6.89692787,20.2618055 7.355297,20.5668368 C7.81366614,20.871868 8.37812342,21.0563616 8.94258069,21.2204347 C9.58019686,21.4057791 10.3380359,21.5586492 10.9472273,21.2394371 C11.4855897,20.9573789 11.6997852,20.4142502 11.9290474,19.9318159 C12.251195,19.2541105 12.6879738,18.6057595 13.221987,18.0125723" id="Fill-6" fill="#FFE4D5"></path>
                    <path d="M9.44094059,4.36113611 C9.5878836,3.94545921 9.8100863,3.53404323 10.197425,3.31626262 C10.3793544,3.21400043 10.5925384,3.1717068 10.7984141,3.20042859 C11.2527712,3.26418465 11.4091994,3.62226016 11.5269093,3.96597477 C12.0017918,5.35219569 11.1740906,7.61316872 11.1387932,8.81774798 C11.1319514,9.05067855 11.2610124,9.27524508 11.4757514,9.35778077 C11.7812995,9.47503511 12.0215397,9.21827493 12.2017587,8.98692249 C13.3348525,7.53221115 14.4520858,6.06377016 15.5194052,4.55824334 C16.4862746,3.19427392 17.3565815,1.74366569 18.2567435,0.328091737 C18.5148656,-0.0778008179 19.171211,-0.0965804501 19.5932251,0.213678011 C20.1973241,0.657761078 19.384395,2.23635487 19.1701226,2.67964887 C18.2929739,4.49574978 16.7716084,5.88449569 15.9631886,7.7361043 C15.9306901,7.8109072 15.8975696,7.88886635 15.9003686,7.97061298 C15.9075213,8.18997171 16.4113259,8.47119276 16.620156,8.4140648 C16.8288307,8.35693684 16.9826155,8.18223892 17.1250491,8.01716753 C17.5994651,7.46750821 20.6779599,3.37212808 22.5701816,2.19200969 C23.1075731,1.85681692 23.4138988,2.04019451 23.6233509,2.29506094 C23.8463311,2.56633983 23.8597036,3.04703529 23.6748198,3.34640472 C22.1683819,5.7850741 20.3371144,7.75630424 18.8395397,10.2033377 C18.7980224,10.2708812 18.7552612,10.3431591 18.7546393,10.4226964 C18.7533953,10.5898193 19.1792968,10.8557326 19.3422558,10.8326921 C19.5052148,10.8094937 19.6397182,10.6963425 19.7659803,10.5890303 C21.3537423,9.2387905 23.3841992,7.6745576 25.2675576,6.79870081 C25.4899158,6.69533392 25.7598555,6.71979479 25.9424069,6.88486618 C26.2028615,7.12016392 26.2129687,7.64552019 26.0863955,7.88223824 C24.9945079,9.92322129 21.8427748,10.8560482 20.5498319,12.7224912 C20.430256,12.8951375 20.9922158,13.5836714 21.1851854,13.5052389 C22.0432082,13.1564743 24.10974,11.2826142 25.0081915,11.0624664 C25.1896545,11.0181212 25.5454276,11.0637289 25.7055877,11.3911888 C25.7999733,11.584193 25.8029277,11.8079704 25.6754216,11.9803012 C24.4610038,13.6198104 21.2781716,15.8927771 19.6294555,17.068319 C18.43774,17.9181368 17.2460244,18.7677968 16.0543088,19.6174568 C14.7529691,20.5453916 13.1984832,21.5200387 11.6774287,21.0483385 C10.2176393,20.5955758 9.42259215,18.9857352 8.10259302,18.2078797 C7.59863293,17.9108775 7.00588506,17.7259218 6.63067503,17.2734746 C6.3702205,16.9594287 6.24737926,16.5508533 6.18098279,16.1460655 C5.85584223,14.1641041 6.67219226,11.4402684 7.67933496,9.73984371 C8.07895774,9.06519726 9.04054034,5.4939109 9.44094059,4.36113611" id="Fill-8" fill="#FFE5D8"></path>
                    <path d="M18.6195723,14.8933959 C18.5646556,14.8933959 18.5115849,14.861317 18.4837419,14.8047172 C18.0976331,14.0170215 17.6984488,13.2026215 17.1531277,12.5277897 C16.9366914,12.260074 16.6936428,12.0098253 16.4585932,11.7678062 L14.3645295,9.61214027 C14.3026905,9.5484864 14.2999216,9.44234064 14.3582225,9.37482387 C14.4165234,9.3073071 14.5137429,9.30411601 14.5757357,9.36776988 L16.6696456,11.5234358 C16.9097715,11.7706614 17.158204,12.0262846 17.3838701,12.3054211 C17.9527269,13.0096445 18.3605255,13.8416795 18.7550949,14.6461703 C18.7952441,14.727963 18.7669397,14.829742 18.6920254,14.8735775 C18.6687973,14.8870137 18.644031,14.8933959 18.6195723,14.8933959" id="Fill-10" fill="#BF9280"></path>
                    <path d="M8.73175829,15.2066056 C8.6831329,15.2066056 8.63541077,15.1846439 8.60635597,15.1439585 C8.56013926,15.0793406 8.5788066,14.9919163 8.64790583,14.9488376 C9.92857517,14.1489264 10.9329981,12.9662346 11.4763078,11.6184081 C11.5690423,11.3878106 11.6498839,11.1425721 11.6139041,10.9105669 C11.6017101,10.8337011 11.6587659,10.7621849 11.7409624,10.7509225 C11.8236105,10.7400824 11.8996347,10.7930157 11.9116782,10.8700223 C11.9577443,11.1650969 11.8650098,11.4518655 11.7579737,11.7176579 C11.1928353,13.120107 10.1477658,14.3506639 8.81530965,15.1829546 C8.7895668,15.1988627 8.76036146,15.2066056 8.73175829,15.2066056" id="Fill-12" fill="#BF9280"></path>
                </g>
                <g id="Group-14-Copy" transform="translate(72.201651, 100.417317) scale(-1, 1) rotate(-51.000000) translate(-72.201651, -100.417317) translate(63.479849, 90.417317)">
                    <g id="Group-3" transform="translate(0.000000, 12.571516)">
                        <mask id="mask-6" fill="white">
                            <use xlink:href="#path-5"></use>
                        </mask>
                        <g id="Clip-2"></g>
                        <path d="M3.45937919,-1.05453609e-12 C2.21246426,0.622390097 1.17832545,1.65048111 0.558636632,2.88368711 C0.0587298768,3.8785652 -0.170852402,5.04494276 0.144084779,6.10856154 C0.209883427,6.33078621 0.301451514,6.55109861 0.458003406,6.72380583 C0.574220522,6.8519272 0.721707275,6.94874791 0.874286802,7.03208216 C1.76705019,7.51960765 2.89815543,7.56026833 3.82728123,7.13836352 C4.13386626,6.99907053 4.41682082,6.8140846 4.69060838,6.61943672 C5.84289956,5.80078843 6.88274228,4.76404192 7.42848401,3.47316621" id="Fill-1" fill="#FFD3EB" mask="url(#mask-6)"></path>
                    </g>
                    <path d="M4.8530911,12.4285077 C4.25029599,12.3395392 3.63256576,12.3408117 3.03021982,12.4322191 C2.94824508,12.4446259 2.86009416,12.4620167 2.80507001,12.5207634 C2.75891711,12.5700725 2.7455541,12.6393173 2.74005169,12.7050628 C2.68154642,13.3966627 3.25469587,13.9788282 3.80538649,14.4380921 C4.48600146,15.0055179 5.21052345,15.5448428 6.04610438,15.8801447 C6.33020863,15.9941388 6.63250454,16.0846979 6.94097663,16.0764267 C7.24956101,16.0681555 7.56701663,15.9476929 7.74522748,15.7097367 C7.86717895,15.5470697 7.91501627,15.3444252 7.93051286,15.1455982 C8.00653601,14.1650363 7.26303631,13.1833081 6.25586989,12.9343236" id="Fill-4" fill="#FCEFF5"></path>
                    <path d="M5.589247,11.3115319 C5.31897852,11.7566232 4.98088404,12.1829012 4.54472663,12.535533 C4.49491853,12.5758068 4.44293585,12.6160805 4.40907463,12.6658082 C4.36485829,12.7308513 4.35584934,12.8060101 4.35781681,12.8775764 C4.36734352,13.2122458 4.59795191,13.5078703 4.90353134,13.7112245 C5.20911076,13.9145787 5.58541561,14.0375744 5.96172046,14.1469564 C6.3867979,14.2705194 6.89202393,14.3724328 7.29815151,14.1596247 C7.65705977,13.9715859 7.7998568,13.6095002 7.95269828,13.2878772 C8.16746335,12.8360736 8.45864917,12.4038397 8.814658,12.0083815" id="Fill-6" fill="#F5D0BC"></path>
                    <path d="M6.29396039,2.90742407 C6.3919224,2.63030614 6.54005754,2.35602882 6.7982833,2.21084175 C6.9195696,2.14266695 7.06169225,2.1144712 7.19894272,2.13361906 C7.50184746,2.1761231 7.60613293,2.41484011 7.6846062,2.64398318 C8.00119452,3.56813046 7.44939373,5.07544581 7.42586211,5.87849866 C7.42130092,6.0337857 7.50734162,6.18349672 7.65050091,6.23852051 C7.85419968,6.31669007 8.01435978,6.14551662 8.13450577,5.99128166 C8.88990167,5.0214741 9.6347239,4.04251344 10.3462701,3.03882889 C10.9908498,2.12951595 11.5710543,1.1624438 12.1711623,0.218727825 C12.3432437,-0.0518672119 12.7808073,-0.0643869667 13.0621501,0.142452007 C13.4648828,0.438507386 12.92293,1.49090324 12.7800817,1.78643258 C12.1953159,2.99716652 11.1810723,3.92299712 10.6421258,5.15740286 C10.6204601,5.20727147 10.5983798,5.25924423 10.6002457,5.31374199 C10.6050142,5.45998114 10.940884,5.64746184 11.080104,5.60937653 C11.2192204,5.57129123 11.3217436,5.45482595 11.4166994,5.34477835 C11.7329767,4.97833881 13.7853066,2.24808539 15.0467877,1.46133979 C15.4050488,1.23787795 15.6092659,1.36012967 15.7489006,1.53004063 C15.897554,1.71089322 15.9064691,2.03135686 15.7832132,2.23093648 C14.7789212,3.85671607 13.5580762,5.17086949 12.5596931,6.8022251 C12.532015,6.84725414 12.5035075,6.89543941 12.5030928,6.94846426 C12.5022635,7.05987955 12.7861979,7.23715507 12.8948372,7.2217947 C13.0034765,7.20632912 13.0931455,7.13089497 13.1773202,7.05935351 C14.2358282,6.15919366 15.5894661,5.11637173 16.8450384,4.5324672 C16.9932772,4.46355595 17.173237,4.47986319 17.294938,4.58991078 C17.4685743,4.74677595 17.4753125,5.09701346 17.3909304,5.25482549 C16.6630053,6.61548086 14.5618499,7.23736549 13.6998879,8.48166078 C13.6201707,8.59675836 13.9948106,9.05578097 14.123457,9.00349258 C14.6954721,8.77098285 16.07316,7.52174278 16.6721277,7.37497758 C16.793103,7.34541413 17.0302851,7.37581925 17.1370585,7.5941259 C17.1999822,7.72279531 17.2019518,7.87198029 17.1169477,7.98686745 C16.3073358,9.0798736 14.1854477,10.5951848 13.0863037,11.3788793 C12.2918266,11.9454245 11.4973496,12.5118645 10.7028726,13.0783045 C9.83531276,13.6969277 8.79898879,14.3466925 7.78495246,14.0322257 C6.81175956,13.7303839 6.2817281,12.6571568 5.40172868,12.1385865 C5.06575529,11.940585 4.67059004,11.8172812 4.42045002,11.5156498 C4.24681367,11.3062858 4.1649195,11.0339022 4.12065519,10.7640436 C3.90389482,9.44273608 4.44812818,7.62684559 5.11955664,6.49322914 C5.38597183,6.04346484 6.02702689,3.66260727 6.29396039,2.90742407" id="Fill-8" fill="#FBD5C1"></path>
                    <path d="M12.4130482,9.9289306 C12.3764371,9.9289306 12.3410566,9.90754469 12.3224946,9.86981144 C12.0650887,9.34468102 11.7989659,8.80174768 11.4354185,8.35185983 C11.2911276,8.17338267 11.1290952,8.00655019 10.9723955,7.84520415 L9.57635299,6.40809351 C9.53512703,6.3656576 9.53328109,6.29489376 9.57214835,6.24988258 C9.61101562,6.2048714 9.67582858,6.20274401 9.7171571,6.24517992 L11.1130971,7.68229056 C11.273181,7.84710761 11.4388027,8.01752307 11.5892467,8.20361406 C11.9684846,8.67309632 12.2403504,9.22778632 12.5033966,9.76411355 C12.5301627,9.81864201 12.5112931,9.88649469 12.4613502,9.91571836 C12.4458649,9.92467581 12.429354,9.9289306 12.4130482,9.9289306" id="Fill-10" fill="#BF9280"></path>
                    <path d="M5.82117219,10.137737 C5.78875526,10.137737 5.75694051,10.1230959 5.73757064,10.0959724 C5.70675951,10.0528937 5.7192044,9.99461084 5.76527056,9.96589174 C6.61905011,9.43261757 7.28866539,8.64415641 7.65087186,7.74560539 C7.71269485,7.59187376 7.76658925,7.4283814 7.74260273,7.27371124 C7.73447341,7.22246737 7.7725106,7.17478992 7.82730826,7.16728166 C7.882407,7.16005496 7.93308981,7.19534378 7.94111877,7.24668151 C7.97182954,7.44339792 7.91000655,7.63457699 7.83864916,7.81177193 C7.46189021,8.74673802 6.76517719,9.56710928 5.8768731,10.1219697 C5.8597112,10.1325751 5.84024097,10.137737 5.82117219,10.137737" id="Fill-12" fill="#BF9280"></path>
                </g>
                <line x1="81.1138237" y1="94.0775711" x2="86.1138237" y2="91.0775711" id="Line-5" stroke="#FFFFFF" stroke-width="0.5" opacity="0.300000012" stroke-linecap="round"></line>
                <line x1="81.1138237" y1="99.0775711" x2="88.1138237" y2="101.077571" id="Line-5-Copy" stroke="#FFFFFF" stroke-width="0.5" opacity="0.300000012" stroke-linecap="round"></line>
            </g>
        </g>
    </g>
</svg>