<svg xmlns="http://www.w3.org/2000/svg" xmlns:xlink="http://www.w3.org/1999/xlink" width="209.156" height="20" viewBox="0 0 209.156 20">
  <defs>
    <linearGradient id="linear-gradient" x1="0.09" x2="0.845" y2="1" gradientUnits="objectBoundingBox">
      <stop offset="0" stop-color="#ffcd7d"/>
      <stop offset="1" stop-color="#ff9272"/>
    </linearGradient>
  </defs>
  <g id="Path_2" data-name="Path 2" transform="translate(-35 -80)" opacity="0.3">
    <path id="Path_2-2" data-name="Path 2" d="M54.009,18.153a6.6,6.6,0,0,1-2.082-5.061V.241h4.71V13.186q.08,3.2,2.961,3.2a2.861,2.861,0,0,0,2.2-.8,3.766,3.766,0,0,0,.747-2.611V.241h4.683V13a7.351,7.351,0,0,1-.921,3.755,5.972,5.972,0,0,1-2.642,2.417A9.274,9.274,0,0,1,59.6,20,8.022,8.022,0,0,1,54.009,18.153Zm-17.358.7a7.817,7.817,0,0,1-2.993-3.269,11.217,11.217,0,0,1-1.127-4.88v-1.1a11.607,11.607,0,0,1,1.047-5.046,7.8,7.8,0,0,1,3-3.376,8.861,8.861,0,0,1,8.847-.013,7.957,7.957,0,0,1,3.007,3.349A11.284,11.284,0,0,1,49.519,9.5v.9a11.56,11.56,0,0,1-1.054,5.04,7.833,7.833,0,0,1-2.993,3.376A8.361,8.361,0,0,1,41.051,20,8.464,8.464,0,0,1,36.651,18.857ZM37.3,8.97,37.291,10.4a8.477,8.477,0,0,0,.947,4.4,3.108,3.108,0,0,0,2.813,1.537,3.073,3.073,0,0,0,2.734-1.51,8.252,8.252,0,0,0,.973-4.345v-.9a8.249,8.249,0,0,0-.967-4.406,3.111,3.111,0,0,0-2.767-1.5C38.688,3.677,37.436,5.458,37.3,8.97ZM147.935,19.76h-4.682V.362H150.9a8.571,8.571,0,0,1,5.4,1.532,5.213,5.213,0,0,1,1.948,4.33,6.335,6.335,0,0,1-.821,3.358,5.862,5.862,0,0,1-2.568,2.158l4.055,7.82v.2l-5.017,0-3.428-6.848h-2.535V19.76h0Zm0-10.459H150.9a2.679,2.679,0,0,0,2.008-.7,2.715,2.715,0,0,0,.673-1.952,2.736,2.736,0,0,0-.68-1.965,2.65,2.65,0,0,0-2-.713h-2.962ZM19.983,19.76H15.3V.362h7.645a8.569,8.569,0,0,1,5.4,1.532A5.213,5.213,0,0,1,30.3,6.224a6.335,6.335,0,0,1-.821,3.358,5.852,5.852,0,0,1-2.568,2.158l4.055,7.82v.2l-5.017,0-3.428-6.848H19.984V19.76h0Zm0-10.459h2.962a2.677,2.677,0,0,0,2.008-.7,2.711,2.711,0,0,0,.673-1.952,2.736,2.736,0,0,0-.68-1.965,2.647,2.647,0,0,0-2-.713H19.984Zm115.79,6.835h-6.407l-1.119,3.623h-4.995l7.113-19.4h4.4l7.166,19.4-5.021,0Zm-5.288-3.611h4.17L132.564,5.8Zm68.14,7.233V3.972h-5.734V.362h16.265v3.61h-5.84V19.759Zm-19.951,0V.362h13.374v3.61h-8.7V8.062h7.346v3.477h-7.346v4.623h8.676v3.6Zm-6.866,0-4.13-7.221-1.918,2.105v5.116h-4.676V.362h4.676V8.915l1.625-2.465L171.568.362h5.782L170.8,8.942l6.554,10.817Zm-54.695,0V15.23l.453-9.273-4.693,13.8h-3.094L105.071,5.944l.454,9.286v4.529h-4.681V.362h6.148l4.334,13.5,4.321-13.5h6.16v19.4Zm-30.844,0V15.23l.454-9.273-4.694,13.8H78.935L74.228,5.944l.454,9.286v4.529H70V.362h6.148l4.334,13.5L84.8.362h6.161v19.4ZM0,19.759V.362H13.373v3.61h-8.7V8.062h7.345v3.477H4.671v4.623h8.676v3.6Z" transform="translate(35 80)" fill="url(#linear-gradient)"/>
    <path id="Path_2-3" data-name="Path 2" d="M54.009,18.153a6.6,6.6,0,0,1-2.082-5.061V.241h4.71V13.186q.08,3.2,2.961,3.2a2.861,2.861,0,0,0,2.2-.8,3.766,3.766,0,0,0,.747-2.611V.241h4.683V13a7.351,7.351,0,0,1-.921,3.755,5.972,5.972,0,0,1-2.642,2.417A9.274,9.274,0,0,1,59.6,20,8.022,8.022,0,0,1,54.009,18.153Zm-17.358.7a7.817,7.817,0,0,1-2.993-3.269,11.217,11.217,0,0,1-1.127-4.88v-1.1a11.607,11.607,0,0,1,1.047-5.046,7.8,7.8,0,0,1,3-3.376,8.861,8.861,0,0,1,8.847-.013,7.957,7.957,0,0,1,3.007,3.349A11.284,11.284,0,0,1,49.519,9.5v.9a11.56,11.56,0,0,1-1.054,5.04,7.833,7.833,0,0,1-2.993,3.376A8.361,8.361,0,0,1,41.051,20,8.464,8.464,0,0,1,36.651,18.857ZM37.3,8.97,37.291,10.4a8.477,8.477,0,0,0,.947,4.4,3.108,3.108,0,0,0,2.813,1.537,3.073,3.073,0,0,0,2.734-1.51,8.252,8.252,0,0,0,.973-4.345v-.9a8.249,8.249,0,0,0-.967-4.406,3.111,3.111,0,0,0-2.767-1.5C38.688,3.677,37.436,5.458,37.3,8.97ZM147.935,19.76h-4.682V.362H150.9a8.571,8.571,0,0,1,5.4,1.532,5.213,5.213,0,0,1,1.948,4.33,6.335,6.335,0,0,1-.821,3.358,5.862,5.862,0,0,1-2.568,2.158l4.055,7.82v.2l-5.017,0-3.428-6.848h-2.535V19.76h0Zm0-10.459H150.9a2.679,2.679,0,0,0,2.008-.7,2.715,2.715,0,0,0,.673-1.952,2.736,2.736,0,0,0-.68-1.965,2.65,2.65,0,0,0-2-.713h-2.962ZM19.983,19.76H15.3V.362h7.645a8.569,8.569,0,0,1,5.4,1.532A5.213,5.213,0,0,1,30.3,6.224a6.335,6.335,0,0,1-.821,3.358,5.852,5.852,0,0,1-2.568,2.158l4.055,7.82v.2l-5.017,0-3.428-6.848H19.984V19.76h0Zm0-10.459h2.962a2.677,2.677,0,0,0,2.008-.7,2.711,2.711,0,0,0,.673-1.952,2.736,2.736,0,0,0-.68-1.965,2.647,2.647,0,0,0-2-.713H19.984Zm115.79,6.835h-6.407l-1.119,3.623h-4.995l7.113-19.4h4.4l7.166,19.4-5.021,0Zm-5.288-3.611h4.17L132.564,5.8Zm68.14,7.233V3.972h-5.734V.362h16.265v3.61h-5.84V19.759Zm-19.951,0V.362h13.374v3.61h-8.7V8.062h7.346v3.477h-7.346v4.623h8.676v3.6Zm-6.866,0-4.13-7.221-1.918,2.105v5.116h-4.676V.362h4.676V8.915l1.625-2.465L171.568.362h5.782L170.8,8.942l6.554,10.817Zm-54.695,0V15.23l.453-9.273-4.693,13.8h-3.094L105.071,5.944l.454,9.286v4.529h-4.681V.362h6.148l4.334,13.5,4.321-13.5h6.16v19.4Zm-30.844,0V15.23l.454-9.273-4.694,13.8H78.935L74.228,5.944l.454,9.286v4.529H70V.362h6.148l4.334,13.5L84.8.362h6.161v19.4ZM0,19.759V.362H13.373v3.61h-8.7V8.062h7.345v3.477H4.671v4.623h8.676v3.6Z" transform="translate(35 80)" fill="none"/>
    <path id="Path_2-4" data-name="Path 2" d="M54.009,18.153a6.6,6.6,0,0,1-2.082-5.061V.241h4.71V13.186q.08,3.2,2.961,3.2a2.861,2.861,0,0,0,2.2-.8,3.766,3.766,0,0,0,.747-2.611V.241h4.683V13a7.351,7.351,0,0,1-.921,3.755,5.972,5.972,0,0,1-2.642,2.417A9.274,9.274,0,0,1,59.6,20,8.022,8.022,0,0,1,54.009,18.153Zm-17.358.7a7.817,7.817,0,0,1-2.993-3.269,11.217,11.217,0,0,1-1.127-4.88v-1.1a11.607,11.607,0,0,1,1.047-5.046,7.8,7.8,0,0,1,3-3.376,8.861,8.861,0,0,1,8.847-.013,7.957,7.957,0,0,1,3.007,3.349A11.284,11.284,0,0,1,49.519,9.5v.9a11.56,11.56,0,0,1-1.054,5.04,7.833,7.833,0,0,1-2.993,3.376A8.361,8.361,0,0,1,41.051,20,8.464,8.464,0,0,1,36.651,18.857ZM37.3,8.97,37.291,10.4a8.477,8.477,0,0,0,.947,4.4,3.108,3.108,0,0,0,2.813,1.537,3.073,3.073,0,0,0,2.734-1.51,8.252,8.252,0,0,0,.973-4.345v-.9a8.249,8.249,0,0,0-.967-4.406,3.111,3.111,0,0,0-2.767-1.5C38.688,3.677,37.436,5.458,37.3,8.97ZM147.935,19.76h-4.682V.362H150.9a8.571,8.571,0,0,1,5.4,1.532,5.213,5.213,0,0,1,1.948,4.33,6.335,6.335,0,0,1-.821,3.358,5.862,5.862,0,0,1-2.568,2.158l4.055,7.82v.2l-5.017,0-3.428-6.848h-2.535V19.76h0Zm0-10.459H150.9a2.679,2.679,0,0,0,2.008-.7,2.715,2.715,0,0,0,.673-1.952,2.736,2.736,0,0,0-.68-1.965,2.65,2.65,0,0,0-2-.713h-2.962ZM19.983,19.76H15.3V.362h7.645a8.569,8.569,0,0,1,5.4,1.532A5.213,5.213,0,0,1,30.3,6.224a6.335,6.335,0,0,1-.821,3.358,5.852,5.852,0,0,1-2.568,2.158l4.055,7.82v.2l-5.017,0-3.428-6.848H19.984V19.76h0Zm0-10.459h2.962a2.677,2.677,0,0,0,2.008-.7,2.711,2.711,0,0,0,.673-1.952,2.736,2.736,0,0,0-.68-1.965,2.647,2.647,0,0,0-2-.713H19.984Zm115.79,6.835h-6.407l-1.119,3.623h-4.995l7.113-19.4h4.4l7.166,19.4-5.021,0Zm-5.288-3.611h4.17L132.564,5.8Zm68.14,7.233V3.972h-5.734V.362h16.265v3.61h-5.84V19.759Zm-19.951,0V.362h13.374v3.61h-8.7V8.062h7.346v3.477h-7.346v4.623h8.676v3.6Zm-6.866,0-4.13-7.221-1.918,2.105v5.116h-4.676V.362h4.676V8.915l1.625-2.465L171.568.362h5.782L170.8,8.942l6.554,10.817Zm-54.695,0V15.23l.453-9.273-4.693,13.8h-3.094L105.071,5.944l.454,9.286v4.529h-4.681V.362h6.148l4.334,13.5,4.321-13.5h6.16v19.4Zm-30.844,0V15.23l.454-9.273-4.694,13.8H78.935L74.228,5.944l.454,9.286v4.529H70V.362h6.148l4.334,13.5L84.8.362h6.161v19.4ZM0,19.759V.362H13.373v3.61h-8.7V8.062h7.345v3.477H4.671v4.623h8.676v3.6Z" transform="translate(35 80)" fill="none"/>
  </g>
</svg>
