<?xml version="1.0" encoding="UTF-8"?>
<svg width="275px" height="134px" viewBox="0 0 275 134" version="1.1" xmlns="http://www.w3.org/2000/svg" xmlns:xlink="http://www.w3.org/1999/xlink">
    <title>파트너스 승인을 대기중입니다@3x</title>
    <defs>
        <linearGradient x1="2.5893002%" y1="38.1213543%" x2="102.658837%" y2="61.8786457%" id="linearGradient-1">
            <stop stop-color="#DA0DE6" offset="0.00273164336%"></stop>
            <stop stop-color="#E32727" offset="45.9189248%"></stop>
            <stop stop-color="#FFB826" offset="100%"></stop>
        </linearGradient>
    </defs>
    <g id="회원-아버지-링크" stroke="none" stroke-width="1" fill="none" fill-rule="evenodd">
        <g id="link-9" transform="translate(-1375.000000, -696.000000)" fill="url(#linearGradient-1)" fill-rule="nonzero">
            <g id="주문이-완료되어-멤버스-승인을-대기중" transform="translate(1375.000000, 696.000000)">
                <path d="M247.16,112.68 L247.16,133.6 L244.92,133.6 L244.92,96 L247.16,96 L247.16,110.72 L253.96,110.72 L253.96,112.68 L247.16,112.68 Z M223.2,119.96 C226.24,119.96 229.2,119.88 232.04,119.64 C234.84,119.44 237.6,119.12 240.28,118.68 L240.56,120.6 C235.2,121.48 228.68,121.92 220.96,121.92 L220.96,99.52 L237.96,99.52 L237.96,101.52 L223.2,101.52 L223.2,119.96 Z M31.68,14.48 C31.36,14.92 31.04,15.32 30.72,15.72 C30.36,16.16 30,16.6 29.68,17 C28.24,16.64 26.92,16.16 25.68,15.56 C24.4,15 23.24,14.36 22.2,13.64 C21.12,12.92 20.2,12.16 19.4,11.28 C18.6,10.44 17.96,9.56 17.48,8.6 C16.44,10.52 14.84,12.2 12.76,13.64 C10.6,15.16 8.12,16.28 5.24,17 C4.88,16.6 4.56,16.16 4.24,15.72 C3.92,15.32 3.56,14.92 3.24,14.48 C4.44,14.16 5.68,13.76 6.96,13.24 C8.2,12.76 9.36,12.12 10.48,11.32 C11.52,10.56 12.48,9.64 13.32,8.52 C14.12,7.44 14.76,6.16 15.16,4.72 L5.08,4.72 L5.08,1.6 L29.88,1.6 L29.88,4.72 L19.76,4.72 C20.08,6.12 20.64,7.32 21.44,8.36 C22.16,9.4 23.08,10.32 24.16,11.08 C25.2,11.88 26.36,12.56 27.64,13.08 C28.92,13.64 30.24,14.12 31.68,14.48 Z M15.56,37.6 L15.56,24.84 L0,24.84 L0,21.76 L34.96,21.76 L34.96,24.84 L19.2,24.84 L19.2,37.6 L15.56,37.6 Z M43.48,14.4 L43.48,1.2 L67.48,1.2 L67.48,14.4 L43.48,14.4 Z M63.96,4.32 L46.96,4.32 L46.96,11.32 L63.96,11.32 L63.96,4.32 Z M54.48,28.52 L54.48,21.4 L37.6,21.4 L37.6,18.32 L73.36,18.32 L73.36,21.4 L57.96,21.4 L57.96,28.52 L54.48,28.52 Z M67.68,36.6 L43.48,36.6 L43.48,25.2 L46.96,25.2 L46.96,33.52 L67.68,33.52 L67.68,36.6 Z M106.88,37.6 L103.36,37.6 L103.36,0 L106.88,0 L106.88,37.6 Z M97.76,14.24 C97.76,15.76 97.48,17.16 97,18.44 C96.44,19.76 95.72,20.88 94.84,21.84 C93.88,22.84 92.8,23.6 91.56,24.16 C90.28,24.72 88.88,25 87.4,25 C85.88,25 84.52,24.72 83.28,24.16 C82,23.6 80.88,22.84 80,21.84 C79.04,20.88 78.32,19.76 77.84,18.44 C77.32,17.16 77.08,15.76 77.08,14.24 C77.08,12.72 77.32,11.32 77.88,9.96 C78.36,8.68 79.08,7.52 80.04,6.52 C80.92,5.56 82,4.8 83.28,4.24 C84.52,3.68 85.88,3.4 87.4,3.4 C88.88,3.4 90.28,3.68 91.56,4.24 C92.8,4.8 93.88,5.6 94.84,6.56 C95.72,7.56 96.44,8.72 97,10 C97.48,11.32 97.76,12.72 97.76,14.24 Z M94.24,14.24 C94.24,13.12 94.04,12.08 93.72,11.12 C93.36,10.2 92.88,9.4 92.28,8.68 C91.64,8.04 90.92,7.48 90.12,7.08 C89.28,6.72 88.4,6.52 87.44,6.52 C86.48,6.52 85.56,6.72 84.76,7.08 C83.88,7.48 83.16,8.04 82.56,8.68 C81.92,9.4 81.44,10.2 81.12,11.12 C80.72,12.08 80.56,13.12 80.56,14.24 C80.56,15.36 80.72,16.36 81.08,17.28 C81.4,18.24 81.88,19.04 82.52,19.68 C83.12,20.4 83.84,20.92 84.72,21.32 C85.52,21.72 86.44,21.92 87.44,21.92 C88.4,21.92 89.28,21.72 90.16,21.32 C90.96,20.96 91.68,20.44 92.32,19.72 C92.88,19.04 93.36,18.24 93.72,17.28 C94.04,16.36 94.24,15.36 94.24,14.24 Z M150.24,8.76 C150.24,9.8 150.04,10.72 149.72,11.56 C149.36,12.44 148.88,13.2 148.32,13.84 C147.68,14.52 146.96,15.04 146.16,15.44 C145.32,15.88 144.44,16.16 143.48,16.24 L143.48,19.44 C146.68,19.44 150.2,19.04 154,18.16 C154.04,18.68 154.08,19.16 154.16,19.64 C154.2,20.16 154.24,20.64 154.32,21.12 C150.48,22 146.08,22.44 141.08,22.44 L131.28,22.44 L131.28,19.44 L140.16,19.44 L140.16,16.24 C139.12,16.12 138.2,15.84 137.4,15.4 C136.56,15 135.84,14.44 135.28,13.8 C134.64,13.16 134.2,12.44 133.88,11.56 C133.52,10.72 133.36,9.8 133.36,8.76 C133.36,7.56 133.56,6.48 134,5.52 C134.4,4.56 135,3.76 135.8,3.08 C136.52,2.44 137.44,1.92 138.48,1.52 C139.48,1.2 140.6,1 141.8,1 C143,1 144.12,1.2 145.16,1.52 C146.16,1.92 147.04,2.44 147.84,3.08 C148.56,3.76 149.16,4.56 149.6,5.52 C150,6.48 150.24,7.56 150.24,8.76 Z M146.96,8.72 C146.96,7.96 146.8,7.28 146.56,6.64 C146.28,6.04 145.92,5.52 145.48,5.08 C145,4.68 144.44,4.36 143.84,4.12 C143.2,3.92 142.52,3.8 141.84,3.8 C141.12,3.8 140.48,3.92 139.88,4.12 C139.24,4.36 138.68,4.64 138.24,5.04 C137.76,5.48 137.36,6 137.12,6.6 C136.8,7.24 136.68,7.92 136.68,8.72 C136.68,9.56 136.8,10.28 137.12,10.84 C137.36,11.48 137.76,11.96 138.24,12.36 C138.68,12.76 139.24,13.08 139.88,13.24 C140.48,13.48 141.12,13.56 141.84,13.56 C142.52,13.56 143.2,13.48 143.84,13.24 C144.44,13.04 145,12.72 145.48,12.32 C145.92,11.92 146.28,11.44 146.56,10.8 C146.8,10.24 146.96,9.52 146.96,8.72 Z M159.68,13.4 L159.68,26 L156.16,26 L156.16,0 L159.68,0 L159.68,10.32 L165.68,10.32 L165.68,13.4 L159.68,13.4 Z M160.08,36.6 L136.88,36.6 L136.88,25.52 L140.36,25.52 L140.36,33.48 L160.08,33.48 L160.08,36.6 Z M197.48,14.4 L176.96,14.4 L176.96,20.16 L198.08,20.16 L198.08,23.04 L192.88,23.04 L192.88,29.6 L202.96,29.6 L202.96,32.72 L168,32.72 L168,29.6 L178.08,29.6 L178.08,23.04 L173.48,23.04 L173.48,11.48 L193.96,11.48 L193.96,6.12 L173.48,6.12 L173.48,3.2 L197.48,3.2 L197.48,14.4 Z M189.48,29.6 L189.48,23.04 L181.48,23.04 L181.48,29.6 L189.48,29.6 Z M207.68,29 L207.68,27.04 L217.16,27.04 L217.16,18.88 L209.88,18.88 L209.88,3.52 L226.64,3.52 L226.64,5.52 L212.12,5.52 L212.12,16.92 L227.36,16.92 L227.36,18.88 L219.36,18.88 L219.36,27.04 C221.28,27.04 223.2,26.96 225.16,26.72 C227.08,26.52 229.04,26.2 231.04,25.8 L231.32,27.72 C229.32,28.16 227.16,28.48 224.92,28.68 C222.6,28.92 220.12,29 217.48,29 L207.68,29 Z M236.76,37.6 L234.52,37.6 L234.52,0 L236.76,0 L236.76,37.6 Z M274.92,37.6 L272.68,37.6 L272.68,14.92 L265.68,14.92 C265.6,16.36 265.32,17.64 264.8,18.84 C264.24,20.04 263.52,21.08 262.64,21.96 C261.72,22.84 260.68,23.52 259.48,24 C258.28,24.52 256.96,24.76 255.6,24.76 C254.12,24.76 252.76,24.52 251.56,23.96 C250.28,23.44 249.2,22.68 248.32,21.72 C247.4,20.8 246.68,19.68 246.2,18.36 C245.68,17.08 245.44,15.68 245.44,14.16 C245.44,12.64 245.68,11.24 246.2,9.92 C246.68,8.64 247.4,7.52 248.32,6.56 C249.2,5.64 250.28,4.92 251.56,4.36 C252.76,3.84 254.12,3.56 255.6,3.56 C256.96,3.56 258.2,3.8 259.4,4.24 C260.52,4.72 261.56,5.4 262.48,6.2 C263.36,7.04 264.08,8.04 264.64,9.16 C265.2,10.32 265.52,11.56 265.68,12.92 L272.68,12.92 L272.68,0 L274.92,0 L274.92,37.6 Z M263.48,14.16 C263.48,12.96 263.28,11.8 262.88,10.72 C262.48,9.68 261.92,8.8 261.24,8 C260.52,7.24 259.68,6.64 258.76,6.16 C257.8,5.76 256.76,5.52 255.64,5.52 C254.52,5.52 253.48,5.76 252.52,6.16 C251.56,6.6 250.72,7.2 250,7.96 C249.28,8.76 248.72,9.64 248.32,10.68 C247.92,11.76 247.72,12.92 247.72,14.16 C247.72,15.4 247.92,16.52 248.32,17.56 C248.72,18.64 249.28,19.56 250,20.28 C250.68,21.08 251.52,21.68 252.48,22.08 C253.44,22.56 254.48,22.76 255.64,22.76 C256.76,22.76 257.8,22.56 258.76,22.08 C259.72,21.68 260.56,21.08 261.28,20.28 C261.96,19.52 262.52,18.6 262.92,17.56 C263.28,16.52 263.48,15.4 263.48,14.16 Z M27.08,84.8 L27.08,70.4 L51.28,70.4 L51.28,84.8 L27.08,84.8 Z M44.24,67.2 L41.04,67.2 L41.04,58.76 L36.56,58.76 L36.56,65.8 L21.68,65.8 L21.68,49.6 L36.56,49.6 L36.56,55.68 L41.04,55.68 L41.04,48.4 L44.24,48.4 L44.24,67.2 Z M47.76,73.52 L30.56,73.52 L30.56,81.68 L47.76,81.68 L47.76,73.52 Z M33.24,52.72 L24.96,52.72 L24.96,62.72 L33.24,62.72 L33.24,52.72 Z M51.28,67.6 L48.08,67.6 L48.08,48 L51.28,48 L51.28,67.6 Z M74,60.32 L74.04,51 L77.56,51 L77.56,61 L84.56,61 L84.56,48 L88.08,48 L88.08,85.6 L84.56,85.6 L84.56,64.08 L77.56,64.08 L77.56,75 L60.08,75 L60.08,51 L63.56,51 L63.56,60.32 L74,60.32 Z M74.04,63.44 L63.56,63.44 L63.56,71.92 L74.04,71.92 L74.04,63.44 Z M127.36,66 C126.96,66.44 126.6,66.84 126.28,67.24 C125.88,67.68 125.52,68.12 125.16,68.52 C121.92,67.56 119.24,66.24 117.12,64.52 C114.96,62.84 113.4,60.8 112.48,58.4 C111.48,60.76 109.92,62.8 107.8,64.48 C105.64,66.24 102.96,67.56 99.76,68.52 C99.36,68.12 99,67.68 98.68,67.24 C98.28,66.84 97.92,66.44 97.56,66 C99.64,65.4 101.52,64.6 103.16,63.56 C104.76,62.56 106.16,61.44 107.28,60.16 C108.36,58.96 109.2,57.64 109.8,56.2 C110.36,54.84 110.64,53.44 110.64,52 L110.64,50.4 L114.28,50.4 L114.28,52 C114.28,53.44 114.56,54.88 115.16,56.24 C115.72,57.68 116.56,59 117.68,60.2 C118.8,61.48 120.16,62.6 121.8,63.56 C123.4,64.6 125.28,65.4 127.36,66 Z M129.96,77.6 L129.96,80.68 L95,80.68 L95,77.6 L129.96,77.6 Z M176.36,78.12 C176.36,79.32 176.12,80.4 175.64,81.36 C175.16,82.32 174.48,83.12 173.6,83.84 C172.72,84.52 171.68,85.04 170.48,85.44 C169.24,85.8 167.88,86 166.44,86 C164.92,86 163.6,85.8 162.4,85.44 C161.16,85.04 160.12,84.48 159.28,83.8 C158.4,83.08 157.76,82.28 157.28,81.32 C156.8,80.36 156.56,79.32 156.56,78.12 C156.56,77.04 156.8,76 157.28,75.04 C157.72,74.08 158.36,73.24 159.24,72.52 C160.08,71.8 161.12,71.24 162.36,70.8 C163.56,70.4 164.92,70.2 166.44,70.2 C167.88,70.2 169.24,70.4 170.48,70.76 C171.68,71.16 172.72,71.68 173.6,72.36 C174.48,73.08 175.16,73.88 175.64,74.84 C176.12,75.84 176.36,76.92 176.36,78.12 Z M172.88,78.12 C172.88,77.4 172.72,76.76 172.4,76.16 C172.08,75.6 171.64,75.08 171.08,74.64 C170.52,74.24 169.84,73.88 169.08,73.64 C168.28,73.44 167.4,73.32 166.48,73.32 C165.52,73.32 164.68,73.44 163.92,73.64 C163.12,73.88 162.48,74.2 161.92,74.6 C161.32,75.04 160.88,75.56 160.56,76.12 C160.24,76.72 160.08,77.4 160.08,78.12 C160.08,78.88 160.24,79.56 160.56,80.12 C160.88,80.72 161.32,81.2 161.92,81.64 C162.48,82.04 163.16,82.32 163.96,82.56 C164.72,82.76 165.56,82.88 166.48,82.88 C167.4,82.88 168.28,82.76 169.08,82.56 C169.84,82.32 170.52,81.96 171.08,81.56 C171.64,81.12 172.08,80.64 172.4,80.04 C172.72,79.48 172.88,78.84 172.88,78.12 Z M181.16,59.2 C180.84,59.6 180.52,60 180.2,60.4 C179.84,60.8 179.48,61.2 179.16,61.6 C175.92,61.04 173.2,60.2 171.04,59 C168.84,57.88 167.32,56.48 166.48,54.88 C165.52,56.48 164,57.88 161.88,59 C159.72,60.16 157,61.04 153.76,61.6 C153.44,61.2 153.12,60.8 152.8,60.4 C152.44,60 152.12,59.6 151.8,59.2 C153.8,58.88 155.64,58.44 157.24,57.8 C158.8,57.2 160.12,56.48 161.24,55.68 C162.32,54.88 163.16,54.04 163.76,53.08 C164.32,52.16 164.64,51.24 164.64,50.28 L164.64,48.4 L168.28,48.4 L168.28,50.28 C168.28,51.24 168.56,52.2 169.16,53.12 C169.72,54.08 170.6,54.92 171.72,55.72 C172.8,56.52 174.16,57.24 175.76,57.8 C177.36,58.44 179.16,58.88 181.16,59.2 Z M184.28,64.52 L184.28,67.64 L148.68,67.64 L148.68,64.52 L184.28,64.52 Z M218.28,72.4 L214.76,72.4 L214.76,48 L218.28,48 L218.28,72.4 Z M218.68,84.6 L195.48,84.6 L195.48,72 L198.96,72 L198.96,81.48 L218.68,81.48 L218.68,84.6 Z M208.24,58.28 C208.24,59.68 208,60.92 207.56,62.04 C207.08,63.2 206.44,64.16 205.64,64.96 C204.8,65.8 203.84,66.44 202.72,66.84 C201.56,67.32 200.32,67.52 199,67.52 C197.68,67.52 196.48,67.32 195.36,66.84 C194.2,66.44 193.2,65.8 192.4,65 C191.56,64.2 190.92,63.24 190.48,62.08 C190,60.96 189.76,59.72 189.76,58.28 C189.76,56.92 190,55.64 190.48,54.48 C190.92,53.36 191.56,52.36 192.4,51.52 C193.2,50.72 194.16,50.12 195.32,49.64 C196.44,49.24 197.64,49 199,49 C200.36,49 201.6,49.24 202.72,49.68 C203.84,50.16 204.8,50.76 205.64,51.56 C206.44,52.4 207.08,53.4 207.56,54.52 C208,55.68 208.24,56.92 208.24,58.28 Z M204.76,58.28 C204.76,56.4 204.2,54.88 203.16,53.76 C202.08,52.68 200.72,52.12 199.04,52.12 C197.32,52.12 195.92,52.68 194.88,53.76 C193.8,54.88 193.28,56.4 193.28,58.28 C193.28,59.24 193.4,60.08 193.72,60.8 C193.96,61.56 194.36,62.2 194.88,62.72 C195.36,63.28 196,63.68 196.72,63.96 C197.4,64.28 198.16,64.4 199.04,64.4 C200.72,64.4 202.12,63.84 203.2,62.72 C204.24,61.6 204.76,60.12 204.76,58.28 Z M252.44,55.48 C252.44,56.6 252.16,57.6 251.68,58.44 C251.16,59.32 250.48,60.04 249.6,60.6 C248.68,61.2 247.6,61.64 246.4,61.92 C245.16,62.24 243.84,62.4 242.44,62.4 C241.04,62.4 239.76,62.24 238.56,61.92 C237.36,61.64 236.32,61.2 235.44,60.6 C234.52,60.04 233.8,59.32 233.32,58.44 C232.8,57.6 232.56,56.6 232.56,55.48 C232.56,54.36 232.8,53.32 233.36,52.44 C233.84,51.56 234.56,50.84 235.48,50.24 C236.36,49.68 237.4,49.24 238.6,48.92 C239.8,48.64 241.08,48.48 242.44,48.48 C243.8,48.48 245.12,48.64 246.36,48.92 C247.56,49.24 248.6,49.72 249.52,50.28 C250.4,50.88 251.12,51.6 251.68,52.44 C252.16,53.32 252.44,54.36 252.44,55.48 Z M250.16,55.48 C250.16,54.68 249.96,53.92 249.56,53.28 C249.16,52.68 248.6,52.16 247.92,51.72 C247.2,51.32 246.4,51 245.48,50.76 C244.52,50.56 243.48,50.44 242.44,50.44 C241.36,50.44 240.36,50.56 239.44,50.76 C238.48,51 237.68,51.28 237.04,51.68 C236.32,52.12 235.8,52.64 235.4,53.28 C235,53.92 234.8,54.68 234.8,55.48 C234.8,56.32 235,57.04 235.4,57.64 C235.8,58.28 236.32,58.8 237.04,59.2 C237.72,59.64 238.52,59.96 239.48,60.16 C240.4,60.4 241.4,60.48 242.44,60.48 C243.48,60.48 244.48,60.4 245.44,60.16 C246.36,60 247.16,59.68 247.88,59.24 C248.56,58.84 249.12,58.32 249.56,57.68 C249.96,57.08 250.16,56.36 250.16,55.48 Z M254.12,78.84 L233.04,78.84 L233.04,83.32 L254.52,83.32 L254.52,85.2 L230.8,85.2 L230.8,77 L251.88,77 L251.88,72.84 L230.8,72.84 L230.8,70.96 L254.12,70.96 L254.12,78.84 Z M260.28,65.56 L260.28,67.52 L224.68,67.52 L224.68,65.56 L260.28,65.56 Z M52.12,132.4 L49.92,132.4 L49.92,96.4 L52.12,96.4 L52.12,110.76 L57.92,110.76 L57.92,96 L60.12,96 L60.12,133.6 L57.92,133.6 L57.92,112.72 L52.12,112.72 L52.12,132.4 Z M33.2,120.12 C38.48,120.12 43.28,119.72 47.6,118.92 C47.64,119.24 47.68,119.52 47.76,119.84 C47.76,120.2 47.8,120.52 47.88,120.84 C45.72,121.28 43.24,121.6 40.44,121.76 C37.64,122 34.48,122.08 31,122.08 L31,99.56 L45.48,99.56 L45.48,101.52 L33.2,101.52 L33.2,120.12 Z M68.36,121 C70.36,120.28 72.32,119.24 74.16,117.96 C75.96,116.72 77.6,115.24 79.04,113.56 C80.44,111.88 81.6,110.04 82.52,108 C83.4,106 83.92,103.84 84.08,101.52 L69.68,101.52 L69.68,99.56 L86.56,99.56 C86.56,102.4 86.12,105.04 85.24,107.44 C84.32,109.92 83.12,112.12 81.64,114.04 C80.12,116.04 78.36,117.72 76.36,119.16 C74.36,120.6 72.24,121.76 70.04,122.56 L68.36,121 Z M96.72,133.6 L94.48,133.6 L94.48,96 L96.72,96 L96.72,133.6 Z M131.28,126.36 C131.28,127.48 131.04,128.48 130.56,129.4 C130.08,130.32 129.4,131.12 128.52,131.84 C127.64,132.48 126.6,133.04 125.4,133.44 C124.2,133.8 122.88,134 121.44,134 C120,134 118.72,133.8 117.56,133.44 C116.36,133.04 115.32,132.52 114.44,131.88 C113.56,131.2 112.88,130.4 112.4,129.48 C111.88,128.52 111.64,127.48 111.64,126.36 C111.64,125.32 111.84,124.36 112.28,123.44 C112.68,122.56 113.28,121.8 114.08,121.12 C114.84,120.48 115.76,119.92 116.84,119.48 C117.88,119.08 119.08,118.84 120.36,118.76 L120.36,115.48 L103.68,115.48 L103.68,113.48 L139.28,113.48 L139.28,115.48 L122.6,115.48 L122.6,118.76 C123.88,118.84 125.04,119.08 126.12,119.48 C127.16,119.92 128.04,120.48 128.84,121.12 C129.6,121.8 130.2,122.56 130.64,123.44 C131.04,124.36 131.28,125.32 131.28,126.36 Z M129.04,126.36 C129.04,125.52 128.84,124.76 128.44,124.04 C128.04,123.36 127.48,122.76 126.84,122.24 C126.12,121.76 125.32,121.36 124.44,121.08 C123.48,120.84 122.52,120.68 121.48,120.68 C120.4,120.68 119.4,120.84 118.48,121.08 C117.52,121.36 116.72,121.76 116.08,122.24 C115.36,122.76 114.84,123.36 114.48,124.04 C114.08,124.76 113.88,125.52 113.88,126.36 C113.88,127.24 114.08,128 114.48,128.64 C114.88,129.32 115.4,129.92 116.12,130.44 C116.76,130.92 117.56,131.32 118.52,131.6 C119.44,131.84 120.44,132 121.48,132 C122.52,132 123.48,131.84 124.4,131.6 C125.28,131.32 126.08,130.92 126.8,130.44 C127.48,129.92 128.04,129.32 128.44,128.64 C128.84,128 129.04,127.24 129.04,126.36 Z M121.44,102.72 C120.96,103.52 120.36,104.28 119.56,105 C118.72,105.8 117.76,106.52 116.72,107.16 C115.64,107.84 114.48,108.44 113.24,108.96 C111.96,109.52 110.64,109.92 109.28,110.24 C109,110 108.76,109.76 108.52,109.48 C108.28,109.24 108.04,108.96 107.8,108.68 C109.24,108.36 110.72,107.88 112.2,107.24 C113.64,106.68 114.92,105.96 116.12,105.12 C117.24,104.32 118.2,103.44 118.92,102.44 C119.64,101.48 120,100.44 120,99.32 L109.44,99.32 L109.44,97.36 L133.48,97.36 L133.48,99.32 L122.88,99.32 C122.88,100.44 123.24,101.48 123.96,102.44 C124.68,103.44 125.6,104.32 126.8,105.12 C127.92,105.96 129.24,106.68 130.72,107.24 C132.16,107.88 133.6,108.36 135.08,108.68 C134.84,108.96 134.6,109.24 134.36,109.48 C134.12,109.76 133.84,110 133.6,110.24 C132.24,109.92 130.92,109.52 129.68,108.96 C128.4,108.44 127.2,107.84 126.16,107.16 C125.08,106.52 124.16,105.8 123.36,105 C122.52,104.28 121.88,103.52 121.44,102.72 Z M173.12,115.2 L170.88,115.2 L170.88,96 L173.12,96 L173.12,115.2 Z M150.4,132.8 L150.4,118.2 L152.64,118.2 L152.64,123.08 L170.88,123.08 L170.88,118.2 L173.12,118.2 L173.12,132.8 L150.4,132.8 Z M170.88,125 L152.64,125 L152.64,130.88 L170.88,130.88 L170.88,125 Z M162.88,105.8 C162.88,107.08 162.64,108.24 162.2,109.28 C161.72,110.36 161.12,111.28 160.32,112 C159.52,112.76 158.56,113.32 157.48,113.72 C156.36,114.16 155.2,114.36 153.92,114.36 C152.64,114.36 151.44,114.16 150.36,113.76 C149.24,113.36 148.32,112.8 147.52,112.04 C146.68,111.32 146.04,110.4 145.6,109.32 C145.12,108.28 144.92,107.12 144.92,105.8 C144.92,104.52 145.12,103.36 145.6,102.28 C146.04,101.24 146.68,100.36 147.52,99.6 C148.32,98.88 149.24,98.28 150.36,97.88 C151.44,97.48 152.64,97.28 153.92,97.28 C155.2,97.28 156.36,97.48 157.48,97.88 C158.56,98.32 159.52,98.92 160.32,99.64 C161.12,100.4 161.72,101.28 162.2,102.32 C162.64,103.36 162.88,104.52 162.88,105.8 Z M160.64,105.8 C160.64,104.84 160.44,103.92 160.12,103.12 C159.76,102.32 159.28,101.64 158.72,101.04 C158.08,100.48 157.4,100.04 156.6,99.72 C155.76,99.44 154.88,99.28 153.96,99.28 C153,99.28 152.12,99.44 151.32,99.72 C150.48,100.04 149.76,100.48 149.16,101.04 C148.52,101.6 148.04,102.28 147.72,103.08 C147.32,103.92 147.16,104.84 147.16,105.8 C147.16,106.84 147.32,107.72 147.68,108.52 C148,109.32 148.48,110 149.12,110.56 C149.68,111.16 150.4,111.6 151.28,111.88 C152.08,112.2 153,112.36 153.96,112.36 C154.92,112.36 155.8,112.2 156.64,111.88 C157.44,111.6 158.12,111.16 158.76,110.56 C159.32,110 159.8,109.32 160.16,108.48 C160.48,107.68 160.64,106.8 160.64,105.8 Z M186.4,119.56 C189.52,119.56 192.56,119.48 195.44,119.24 C198.28,119.04 201.04,118.72 203.68,118.28 L203.96,120.2 C198.68,121.08 192.08,121.52 184.16,121.52 L184.16,99.12 L186.4,99.12 L186.4,119.56 Z M210.76,133.6 L208.52,133.6 L208.52,96 L210.76,96 L210.76,133.6 Z" id="Shape"></path>
            </g>
        </g>
    </g>
</svg>