<svg xmlns="http://www.w3.org/2000/svg" xmlns:xlink="http://www.w3.org/1999/xlink" width="412.128" height="107.296" viewBox="0 0 412.128 107.296">
  <defs>
    <linearGradient id="linear-gradient" y1="0.342" x2="1" y2="0.342" gradientUnits="objectBoundingBox">
      <stop offset="0" stop-color="#de455f"/>
      <stop offset="0.5" stop-color="#b03f8c"/>
      <stop offset="1" stop-color="#7739c8"/>
    </linearGradient>
  </defs>
  <path id="Combined_Shape" data-name="Combined Shape" d="M307.583,107.3H302.64V63.856h4.944v16.7h6.768v4.08h-6.768V107.3h0Zm-41.9-.049h-4.942V63.9h4.944v43.344Zm-113.35-2.226a6.871,6.871,0,0,1,0-12.4c2.542-1.453,6.235-2.22,10.68-2.22s8.15.768,10.7,2.22a6.853,6.853,0,0,1,0,12.4c-2.551,1.456-6.251,2.226-10.7,2.226S154.866,106.478,152.328,105.022Zm.936-6.222c0,1.469.864,2.611,2.568,3.4a17.732,17.732,0,0,0,7.177,1.164c6.284,0,9.744-1.619,9.744-4.559,0-2.867-3.551-4.513-9.744-4.513S153.264,95.933,153.264,98.8Zm66.288,7.92h-27.7V90.977h4.9V94.96h17.9V90.977h4.9v15.743h0Zm-22.8-3.936h17.9V98.8h-17.9Zm-63.936,3.648H103.3v-10.8h4.944V102.4h24.576v4.031h0Zm-1.489-8.64h-4.943V63.856h4.944V78.592h5.953v4.081h-5.953V97.791h0ZM275.76,96.64V67.984h20.16v4.032H280.7v20.5A104.683,104.683,0,0,0,299.04,91.12l.527,4.081a106.684,106.684,0,0,1-20.255,1.44ZM232.416,96.3V68.127h4.9V92.08a100,100,0,0,0,19.44-1.968l.528,4.128A103.571,103.571,0,0,1,236.112,96.3ZM97.584,93.184h0l-.576-3.936h.113c3.281,0,7.061-.049,10.928-.143V86.128A11.253,11.253,0,0,1,102.294,84a5.461,5.461,0,0,1-2.118-4.356A5.637,5.637,0,0,1,103,74.764a14.029,14.029,0,0,1,7.5-1.788,14.03,14.03,0,0,1,7.5,1.788,5.639,5.639,0,0,1,2.82,4.884,5.485,5.485,0,0,1-2.088,4.338,10.973,10.973,0,0,1-5.688,2.142v2.736c3.641-.234,7.5-.523,11.04-1.057l.384,3.408A108.834,108.834,0,0,1,110.43,92.83c-4.631.269-9.092.33-12.845.355Zm7.248-13.536c0,1.984,2.17,3.216,5.665,3.216s5.664-1.232,5.664-3.216c0-2.043-2.171-3.312-5.664-3.312S104.832,77.605,104.832,79.648Zm72.623,9.792h-4.943V83.728H162.048a10.32,10.32,0,0,1-3.738,2.579,12.674,12.674,0,0,1-4.854.924c-6.564,0-11.328-4.38-11.328-10.416,0-6.063,4.765-10.464,11.328-10.464a11.551,11.551,0,0,1,8.591,3.5h10.464v-6h4.944V89.439h0ZM148.7,72.25a6.06,6.06,0,0,0-1.872,4.566c0,3.674,2.724,6.24,6.624,6.24a6.76,6.76,0,0,0,4.668-1.715,6.029,6.029,0,0,0,1.859-4.524c0-3.7-2.685-6.288-6.528-6.288A6.9,6.9,0,0,0,148.7,72.25Zm15.984,4.566a9.574,9.574,0,0,1-.432,2.928h8.256V73.888H164.3A11.35,11.35,0,0,1,164.688,76.816ZM219.551,89.2h-4.944V63.9h4.945V74.7H225.7v4.08h-6.143V89.2h0Zm-28.619-2.4a6.733,6.733,0,0,1,0-11.093,12.884,12.884,0,0,1,7.6-2.106c6.287,0,10.512,3.067,10.512,7.632,0,4.594-4.225,7.68-10.512,7.68A12.846,12.846,0,0,1,190.932,86.8Zm3.42-8.454a3.368,3.368,0,0,0-1.584,2.886,3.418,3.418,0,0,0,1.584,2.928,7.46,7.46,0,0,0,4.176,1.057,7.562,7.562,0,0,0,4.2-1.057,3.411,3.411,0,0,0,1.608-2.928c0-2.391-2.28-3.936-5.808-3.936A7.512,7.512,0,0,0,194.352,78.346Zm16.991-6.33H185.76V68.032h10.32V63.52h4.944v4.512h10.32v3.983h0ZM122.88,71.44H98.113V67.792h9.936v-4.08h4.991v4.08h9.841v3.648h0ZM33.646,43.2H29.712V.048h3.937V43.2Zm141.121-.1h-3.935V.1h3.936V17.232h7.1v3.312h-7.1V43.1h0ZM290.4,35.087c0-5.018,5.311-8.015,14.208-8.015,8.866,0,14.16,3,14.16,8.015s-5.294,8.016-14.16,8.016C295.711,43.1,290.4,40.108,290.4,35.087Zm6.66-3.576c-1.783.837-2.724,2.074-2.724,3.576,0,3.066,3.84,4.9,10.273,4.9a18.082,18.082,0,0,0,7.488-1.3c1.789-.852,2.736-2.1,2.736-3.6,0-3.035-3.822-4.847-10.224-4.847A18.505,18.505,0,0,0,297.06,31.512ZM277.438,43.1h-3.789V20.688h-5.665v20.3h-3.7V1.008h3.7V17.424h5.665V0h3.792V43.1Zm-84.67-.143h0l-1.535-3.119A22.993,22.993,0,0,0,201.4,35.694a12.874,12.874,0,0,0,3.254-3.474,7.777,7.777,0,0,0,1.221-4.091V26.784h3.936v1.345a7.747,7.747,0,0,0,1.229,4.091,12.918,12.918,0,0,0,3.276,3.474,23.572,23.572,0,0,0,10.23,4.146L222.96,42.96a26.733,26.733,0,0,1-8.982-3.294A16.591,16.591,0,0,1,207.84,33.6a16.609,16.609,0,0,1-6.1,6.065,26.42,26.42,0,0,1-8.976,3.295Zm215.663-.337H378V32.3h25.248v-3.84H377.856V25.488h29.28v9.7h-25.3v4.368h26.592v3.072h0Zm-287.52-.1H91.535V28.368h12.721v-4.9H86.736V20.3h38.928v3.168H108.192v4.9h12.72V42.527h0ZM95.376,39.36h21.7V31.488h-21.7Zm268.319,2.784H333.936V29.856h3.936v9.072H363.7v3.215h0ZM42.528,37.776V34.56h17.52V26.448H47.424v-13.3H72.96V6.432H47.328V3.216H76.8v13.1H51.312V23.28h26.5v3.168H64.032V34.56H81.648v3.216Zm200.16-3.552-2.4-2.975a16.837,16.837,0,0,0,6.984-7.788,27.959,27.959,0,0,0,2.376-11.749V8.352H241.3V5.136h19.968V8.352H253.44v3.36a24.43,24.43,0,0,0,2.322,10.764,17.243,17.243,0,0,0,2.882,4.194,15.019,15.019,0,0,0,4.012,3.042l-2.3,3.024a16.959,16.959,0,0,1-5.376-4.782,22.142,22.142,0,0,1-3.36-6.834c-1.487,6.044-4.575,10.576-8.928,13.1Zm108.1-.288h-3.936V25.248h-17.9V22.08h39.12v3.168h-17.28v8.687h0ZM6.541,32.35a10.2,10.2,0,0,1-3.463-3.016C1.065,26.622,0,22.836,0,18.383S1.065,10.146,3.078,7.434A10.21,10.21,0,0,1,6.541,4.418a9.408,9.408,0,0,1,4.4-1.058,9.408,9.408,0,0,1,4.4,1.058A10.21,10.21,0,0,1,18.81,7.434c2.013,2.712,3.078,6.5,3.078,10.949s-1.065,8.239-3.078,10.95a10.2,10.2,0,0,1-3.463,3.016,9.4,9.4,0,0,1-4.4,1.058A9.4,9.4,0,0,1,6.541,32.35ZM5.76,10.038a15.64,15.64,0,0,0-2.016,8.346c0,6.89,2.894,11.52,7.2,11.52a5.416,5.416,0,0,0,2.879-.814,7.119,7.119,0,0,0,2.263-2.318A15.8,15.8,0,0,0,18.1,18.383a15.683,15.683,0,0,0-2.011-8.346,7.135,7.135,0,0,0-2.263-2.312,5.434,5.434,0,0,0-2.879-.814A6.056,6.056,0,0,0,5.76,10.038ZM163.1,32.161H143.376V4.369H163.1V32.16h0Zm-15.887-3.168h12.047V7.537H147.217Zm75.071.288h-3.743V.1h3.744V29.28h0Zm-34.128-1.3L186.24,25.1A31.424,31.424,0,0,0,194,20.479a19.8,19.8,0,0,0,4.77-5.742l-11.952,1.247-.624-3.216,13.872-.912a23.6,23.6,0,0,0,.96-4.945H188.208V3.7h16.7a28.838,28.838,0,0,1-1.344,8.976h6.48V.816h3.7V25.44h-3.7v-9.6h-7.825a23.257,23.257,0,0,1-5.394,6.792,34.006,34.006,0,0,1-8.669,5.351h0Zm130.128-2.016h-3.936V.048h3.937V10.9h6.384V14.16h-6.384V25.967h0Zm-11.713-3.36H286.656V2.784h3.888v6.48h12.192V2.784h3.839V22.607h0ZM290.544,19.44h12.192v-7.1H290.544Zm82.607,2.352V18.624h38.976v3.167H373.152Zm-10.177-4.608H334.031V2.064h28.944V17.183h0Zm-25.1-3.168h21.216V5.232H337.872ZM91.056,8.976c0-2.5,1.409-4.573,4.074-5.981C97.766,1.6,101.6.864,106.223.864c4.579,0,8.386.736,11.011,2.13,2.658,1.411,4.062,3.479,4.062,5.981,0,2.478-1.4,4.523-4.062,5.917-2.621,1.373-6.429,2.1-11.011,2.1C96.727,16.992,91.056,13.995,91.056,8.976Zm7.026-3.708c-1.958.878-2.994,2.161-2.994,3.708,0,1.526,1.036,2.794,2.994,3.667a20.808,20.808,0,0,0,8.141,1.326,20.457,20.457,0,0,0,8.059-1.326c1.951-.875,2.982-2.143,2.982-3.667,0-1.545-1.031-2.828-2.982-3.708a20.349,20.349,0,0,0-8.059-1.332A20.7,20.7,0,0,0,98.082,5.268Zm283.452,8.527a7.84,7.84,0,0,1-2.982-2.33,5.305,5.305,0,0,1-1.033-3.208,5.332,5.332,0,0,1,1.033-3.215,7.876,7.876,0,0,1,2.982-2.347c2.623-1.278,6.359-1.926,11.105-1.926s8.484.648,11.106,1.926a7.883,7.883,0,0,1,2.982,2.347,5.337,5.337,0,0,1,1.032,3.215,5.31,5.31,0,0,1-1.032,3.208,7.847,7.847,0,0,1-2.982,2.33c-2.615,1.262-6.351,1.9-11.106,1.9S384.149,15.056,381.534,13.794Zm2.915-8.874c-1.922.781-2.9,1.9-2.9,3.335s.976,2.555,2.9,3.336a22.64,22.64,0,0,0,8.19,1.175,22.633,22.633,0,0,0,8.19-1.175c1.923-.781,2.9-1.9,2.9-3.336s-.975-2.554-2.9-3.335a29.1,29.1,0,0,0-16.38,0Z" fill="url(#linear-gradient)"/>
</svg>
