<?xml version="1.0" encoding="UTF-8"?>
<svg width="86px" height="31px" viewBox="0 0 86 31" version="1.1" xmlns="http://www.w3.org/2000/svg" xmlns:xlink="http://www.w3.org/1999/xlink">
    <title>Path 7</title>
    <defs>
        <linearGradient x1="3.49877232%" y1="45.5799744%" x2="96.574442%" y2="55.0543177%" id="linearGradient-1">
            <stop stop-color="#1584B9" offset="0.0600961538%"></stop>
            <stop stop-color="#770DAC" offset="29.207123%"></stop>
            <stop stop-color="#B80D0D" offset="54.4901616%"></stop>
            <stop stop-color="#E5A20A" offset="76.5687764%"></stop>
            <stop stop-color="#43A800" offset="100%"></stop>
        </linearGradient>
    </defs>
    <g id="쿠폰존" stroke="none" stroke-width="1" fill="none" fill-rule="evenodd" opacity="0.200000003">
        <g id="이로움기획전_모바일" transform="translate(-112.000000, -227.000000)" fill="url(#linearGradient-1)" fill-rule="nonzero">
            <g id="Group" transform="translate(-10.000000, 210.000000)">
                <path d="M207.973725,36.9912804 L204.160462,36.9912804 L204.160462,47.3315946 L201.097635,47.3315946 L201.097635,36.9912804 L197.354179,36.9912804 L197.354179,34.6265335 L207.973725,34.6265335 L207.973725,36.9912804 Z M130.877928,24.8272316 L126.061174,24.8272316 L126.061174,27.8551548 L131.750528,27.8551548 L131.750528,30.2111757 L122.998347,30.2111757 L122.998347,17.5061146 L131.76798,17.5061146 L131.76798,19.8708616 L126.061174,19.8708616 L126.061174,22.5497447 L130.877928,22.5497447 L130.877928,24.8272316 Z M133.692654,25.1526879 L133.692654,22.3603668 L136.493701,22.3603668 L136.493701,25.1526879 L133.692654,25.1526879 Z M143.81977,25.7260099 L142.16183,25.7260099 L142.16183,30.2111757 L139.099003,30.2111757 L139.099003,17.5061146 L144.099003,17.5061146 C145.605693,17.5061146 146.783703,17.8406114 147.633034,18.509605 C148.482365,19.1785986 148.907031,20.1239157 148.907031,21.3455562 C148.907031,22.2297912 148.728147,22.9627755 148.370381,23.5445091 C148.012615,24.1262426 147.452697,24.5974468 146.690626,24.9581216 L149.343331,30.0802857 L149.343331,30.2111757 L146.062353,30.2111757 L143.81977,25.7260099 Z M142.16183,23.361263 L144.099003,23.361263 C144.680736,23.361263 145.118491,23.2085579 145.412266,22.9031478 C145.706042,22.5977377 145.852929,22.1716178 145.852929,21.6247883 C145.852929,21.0779587 145.704587,20.6489302 145.407903,20.3377028 C145.111219,20.0264753 144.674919,19.8708616 144.099003,19.8708616 L142.16183,19.8708616 L142.16183,23.361263 Z M161.274608,24.1204253 C161.274608,25.3595178 161.044823,26.4560856 160.585253,27.4101286 C160.125684,28.3641717 159.472688,29.0986103 158.626265,29.6134445 C157.779843,30.1282787 156.81562,30.3856958 155.733595,30.3856958 C154.651571,30.3856958 153.69171,30.1370047 152.854014,29.6396225 C152.016318,29.1422403 151.363322,28.431071 150.895026,27.5061146 C150.426731,26.5811583 150.180948,25.5194945 150.157679,24.3211234 L150.157679,23.6055911 C150.157679,22.3606813 150.38601,21.2626591 150.84267,20.3115248 C151.299331,19.3603904 151.953781,18.6259518 152.806021,18.1082089 C153.658261,17.590466 154.628302,17.3315946 155.716143,17.3315946 C156.79235,17.3315946 157.752211,17.5875573 158.595724,18.0994829 C159.439238,18.6114084 160.095143,19.3400297 160.563438,20.2853468 C161.031734,21.2306638 161.26879,22.3141426 161.274608,23.5357831 L161.274608,24.1204253 Z M158.159424,23.5881391 C158.159424,22.3257772 157.948546,21.3673712 157.526789,20.7129209 C157.105032,20.0584707 156.501484,19.7312455 155.716143,19.7312455 C154.180367,19.7312455 153.368848,20.883078 153.281588,23.1867429 L153.272862,24.1204253 C153.272862,25.3653351 153.479378,26.3222868 153.892409,26.9912804 C154.305439,27.660274 154.919168,27.9947708 155.733595,27.9947708 C156.507301,27.9947708 157.103578,27.6660914 157.522426,27.0087324 C157.941274,26.3513735 158.153607,25.4060565 158.159424,24.1727813 L158.159424,23.5881391 Z M172.577612,17.5061146 L172.577612,25.821996 C172.577612,26.7644043 172.376914,27.5802857 171.975518,28.26964 C171.574122,28.9589942 170.998205,29.4840088 170.247769,29.8446836 C169.497333,30.2053584 168.610189,30.3856958 167.586338,30.3856958 C166.038927,30.3856958 164.820195,29.9842996 163.930143,29.1815073 C163.04009,28.378715 162.586338,27.2792386 162.568886,25.883078 L162.568886,17.5061146 L165.649165,17.5061146 L165.649165,25.94416 C165.684069,27.3345032 166.329794,28.0296749 167.586338,28.0296749 C168.220428,28.0296749 168.700358,27.8551548 169.026129,27.5061146 C169.351899,27.1570745 169.514785,26.5898843 169.514785,25.804544 L169.514785,17.5061146 L172.577612,17.5061146 Z M178.269796,17.5061146 L181.105748,26.3455562 L183.932973,17.5061146 L187.964386,17.5061146 L187.964386,30.2111757 L184.892833,30.2111757 L184.892833,27.2443345 L185.189517,21.1710361 L182.117964,30.2111757 L180.093531,30.2111757 L177.013252,21.1623101 L177.309936,27.2443345 L177.309936,30.2111757 L174.247109,30.2111757 L174.247109,17.5061146 L178.269796,17.5061146 Z M141.973537,34.6265335 L144.809488,43.465975 L147.636713,34.6265335 L151.668127,34.6265335 L151.668127,47.3315946 L148.596573,47.3315946 L148.596573,44.3647534 L148.893258,38.291455 L145.821704,47.3315946 L143.797272,47.3315946 L140.716992,38.282729 L141.013676,44.3647534 L141.013676,47.3315946 L137.950849,47.3315946 L137.950849,34.6265335 L141.973537,34.6265335 Z M160.746,44.9581216 L156.548793,44.9581216 L155.815808,47.3315946 L152.543557,47.3315946 L157.203243,34.6265335 L160.082824,34.6265335 L164.777414,47.3315946 L161.487711,47.3315946 L160.746,44.9581216 Z M157.281777,42.5933747 L160.013016,42.5933747 L158.643034,38.1867429 L157.281777,42.5933747 Z M170.18164,42.8464288 L168.5237,42.8464288 L168.5237,47.3315946 L165.460872,47.3315946 L165.460872,34.6265335 L170.460872,34.6265335 C171.967562,34.6265335 173.145573,34.9610303 173.994904,35.6300239 C174.844235,36.2990175 175.2689,37.2443345 175.2689,38.465975 C175.2689,39.3502101 175.090017,40.0831943 174.732251,40.6649279 C174.374485,41.2466615 173.814566,41.7178657 173.052495,42.0785405 L175.7052,47.2007045 L175.7052,47.3315946 L172.424223,47.3315946 L170.18164,42.8464288 Z M168.5237,40.4816818 L170.460872,40.4816818 C171.042606,40.4816818 171.48036,40.3289768 171.774136,40.0235667 C172.067911,39.7181565 172.214799,39.2920367 172.214799,38.7452071 C172.214799,38.1983776 172.066457,37.7693491 171.769773,37.4581216 C171.473089,37.1468942 171.036789,36.9912804 170.460872,36.9912804 L168.5237,36.9912804 L168.5237,40.4816818 Z M181.196687,42.6021007 L179.940142,43.9808092 L179.940142,47.3315946 L176.877315,47.3315946 L176.877315,34.6265335 L179.940142,34.6265335 L179.940142,40.2286277 L181.004715,38.6143171 L183.74468,34.6265335 L187.531765,34.6265335 L183.238571,40.2460797 L187.531765,47.3315946 L183.901748,47.3315946 L181.196687,42.6021007 Z M195.946463,41.9476504 L191.129709,41.9476504 L191.129709,44.9755736 L196.819063,44.9755736 L196.819063,47.3315946 L188.066881,47.3315946 L188.066881,34.6265335 L196.836515,34.6265335 L196.836515,36.9912804 L191.129709,36.9912804 L191.129709,39.6701635 L195.946463,39.6701635 L195.946463,41.9476504 Z" id="Path-7"></path>
            </g>
        </g>
    </g>
</svg>