<svg id="PLATINUM_Copy" data-name="PLATINUM Copy" xmlns="http://www.w3.org/2000/svg" xmlns:xlink="http://www.w3.org/1999/xlink" width="221.929" height="35" viewBox="0 0 221.929 35">
  <defs>
    <clipPath id="clip-path">
      <path id="Mask" d="M159.053,30.871a11.36,11.36,0,0,1-3.6-8.721V0H163.6V22.311q.138,5.515,5.122,5.514a4.959,4.959,0,0,0,3.807-1.384q1.292-1.385,1.292-4.5V0h8.1V21.988a12.638,12.638,0,0,1-1.592,6.472,10.308,10.308,0,0,1-4.568,4.164,16.089,16.089,0,0,1-7.037,1.431Q162.584,34.055,159.053,30.871Zm-98.83,2.723H29.443V0h8.1V27.364h14.1v6.048L63.893,0h7.614L83.92,33.592l-8.7,0L73.26,27.318h-11.1l-1.938,6.276h0ZM64.1,21.065h7.222L67.7,9.414ZM213.808,33.593V25.749l.784-16.059-8.122,23.9h-5.352L192.973,9.668l.785,16.081v7.844h-8.1V0H196.3l7.5,23.372L211.27,0h10.66V33.593Zm-70.1,0L131.8,12.69v20.9h-8.1V0h8.1l11.883,20.9V0h8.076V33.593Zm-32.4,0V0h8.075V33.593Zm-20.837,0V6.252h-9.9V0h28.079V6.252H98.573V33.593Zm-82.378,0H0V0H13.406a15.688,15.688,0,0,1,6.817,1.419,10.744,10.744,0,0,1,4.592,4.037A11.084,11.084,0,0,1,26.441,11.4a9.761,9.761,0,0,1-3.519,7.856c-2.335,1.952-5.584,2.942-9.655,2.942H8.1v11.4h0Zm0-17.65h5.307a5.024,5.024,0,0,0,3.587-1.177,4.392,4.392,0,0,0,1.234-3.323,5.427,5.427,0,0,0-1.268-3.76A4.514,4.514,0,0,0,13.5,6.252H8.1Z" fill="#333"/>
    </clipPath>
  </defs>
  <path id="Mask-2" data-name="Mask" d="M159.053,30.871a11.36,11.36,0,0,1-3.6-8.721V0H163.6V22.311q.138,5.515,5.122,5.514a4.959,4.959,0,0,0,3.807-1.384q1.292-1.385,1.292-4.5V0h8.1V21.988a12.638,12.638,0,0,1-1.592,6.472,10.308,10.308,0,0,1-4.568,4.164,16.089,16.089,0,0,1-7.037,1.431Q162.584,34.055,159.053,30.871Zm-98.83,2.723H29.443V0h8.1V27.364h14.1v6.048L63.893,0h7.614L83.92,33.592l-8.7,0L73.26,27.318h-11.1l-1.938,6.276h0ZM64.1,21.065h7.222L67.7,9.414ZM213.808,33.593V25.749l.784-16.059-8.122,23.9h-5.352L192.973,9.668l.785,16.081v7.844h-8.1V0H196.3l7.5,23.372L211.27,0h10.66V33.593Zm-70.1,0L131.8,12.69v20.9h-8.1V0h8.1l11.883,20.9V0h8.076V33.593Zm-32.4,0V0h8.075V33.593Zm-20.837,0V6.252h-9.9V0h28.079V6.252H98.573V33.593Zm-82.378,0H0V0H13.406a15.688,15.688,0,0,1,6.817,1.419,10.744,10.744,0,0,1,4.592,4.037A11.084,11.084,0,0,1,26.441,11.4a9.761,9.761,0,0,1-3.519,7.856c-2.335,1.952-5.584,2.942-9.655,2.942H8.1v11.4h0Zm0-17.65h5.307a5.024,5.024,0,0,0,3.587-1.177,4.392,4.392,0,0,0,1.234-3.323,5.427,5.427,0,0,0-1.268-3.76A4.514,4.514,0,0,0,13.5,6.252H8.1Z" opacity="0.3"/>
  <g id="Oval" transform="translate(0 0.945)">
    <path id="Mask-3" data-name="Mask" d="M159.053,30.871a11.36,11.36,0,0,1-3.6-8.721V0H163.6V22.311q.138,5.515,5.122,5.514a4.959,4.959,0,0,0,3.807-1.384q1.292-1.385,1.292-4.5V0h8.1V21.988a12.638,12.638,0,0,1-1.592,6.472,10.308,10.308,0,0,1-4.568,4.164,16.089,16.089,0,0,1-7.037,1.431Q162.584,34.055,159.053,30.871Zm-98.83,2.723H29.443V0h8.1V27.364h14.1v6.048L63.893,0h7.614L83.92,33.592l-8.7,0L73.26,27.318h-11.1l-1.938,6.276h0ZM64.1,21.065h7.222L67.7,9.414ZM213.808,33.593V25.749l.784-16.059-8.122,23.9h-5.352L192.973,9.668l.785,16.081v7.844h-8.1V0H196.3l7.5,23.372L211.27,0h10.66V33.593Zm-70.1,0L131.8,12.69v20.9h-8.1V0h8.1l11.883,20.9V0h8.076V33.593Zm-32.4,0V0h8.075V33.593Zm-20.837,0V6.252h-9.9V0h28.079V6.252H98.573V33.593Zm-82.378,0H0V0H13.406a15.688,15.688,0,0,1,6.817,1.419,10.744,10.744,0,0,1,4.592,4.037A11.084,11.084,0,0,1,26.441,11.4a9.761,9.761,0,0,1-3.519,7.856c-2.335,1.952-5.584,2.942-9.655,2.942H8.1v11.4h0Zm0-17.65h5.307a5.024,5.024,0,0,0,3.587-1.177,4.392,4.392,0,0,0,1.234-3.323,5.427,5.427,0,0,0-1.268-3.76A4.514,4.514,0,0,0,13.5,6.252H8.1Z" fill="#333"/>
    <g id="Oval-2" data-name="Oval" clip-path="url(#clip-path)">
      <circle id="Oval-3" data-name="Oval" cx="72.769" cy="72.769" r="72.769" transform="translate(-91.372 -84.537)" fill="#fff" opacity="0.3"/>
      <circle id="Oval-4" data-name="Oval" cx="72.769" cy="72.769" r="72.769" transform="translate(201.592 -37.285)" fill="#fff" opacity="0.3"/>
      <circle id="Oval-5" data-name="Oval" cx="72.769" cy="72.769" r="72.769" transform="translate(50.385 -93.988)" opacity="0.6"/>
    </g>
  </g>
</svg>
