<svg id="Easy_Equity_E_ROUM_M" data-name="Easy Equity E∙ROUM M" xmlns="http://www.w3.org/2000/svg" xmlns:xlink="http://www.w3.org/1999/xlink" width="263.497" height="60" viewBox="0 0 263.497 60">
  <defs>
    <linearGradient id="linear-gradient" x1="0.035" y1="0.145" x2="0.966" y2="0.906" gradientUnits="objectBoundingBox">
      <stop offset="0.001" stop-color="#1584b9"/>
      <stop offset="0.292" stop-color="#770dac"/>
      <stop offset="0.545" stop-color="#b80d0d"/>
      <stop offset="0.766" stop-color="#e5a20a"/>
      <stop offset="1" stop-color="#43a800"/>
    </linearGradient>
  </defs>
  <g id="Path_7" data-name="Path 7" opacity="0.1">
    <path id="Path_7-2" data-name="Path 7" d="M76.546,57.73A8.127,8.127,0,0,1,74,51.512V35.718h5.76V51.627q.1,3.931,3.623,3.931a3.49,3.49,0,0,0,2.692-.986,4.642,4.642,0,0,0,.914-3.208V35.718h5.728V51.4a9.068,9.068,0,0,1-1.126,4.614A7.314,7.314,0,0,1,88.36,58.98,11.3,11.3,0,0,1,83.383,60,9.78,9.78,0,0,1,76.546,57.73Zm-20.713.864a9.6,9.6,0,0,1-3.664-4.023,13.878,13.878,0,0,1-1.379-6V47.218a14.358,14.358,0,0,1,1.281-6.211,9.6,9.6,0,0,1,3.672-4.154,10.252,10.252,0,0,1,5.442-1.464,10.147,10.147,0,0,1,5.385,1.448,9.761,9.761,0,0,1,3.68,4.12,13.944,13.944,0,0,1,1.329,6.128v1.1a14.272,14.272,0,0,1-1.289,6.2,9.627,9.627,0,0,1-3.663,4.154A10.186,10.186,0,0,1,61.217,60,10.324,10.324,0,0,1,55.832,58.594Zm2.06-17.051a9.219,9.219,0,0,0-1.261,4.885l-.016,1.76A10.477,10.477,0,0,0,57.774,53.6a3.8,3.8,0,0,0,3.443,1.892,3.75,3.75,0,0,0,3.345-1.859,10.2,10.2,0,0,0,1.192-5.347v-1.1a10.185,10.185,0,0,0-1.183-5.421,4.079,4.079,0,0,0-6.678-.221Zm131.829,18.13H184V35.718h9.35a10.417,10.417,0,0,1,6.61,1.892,6.463,6.463,0,0,1,2.382,5.347,7.877,7.877,0,0,1-1,4.145,7.174,7.174,0,0,1-3.142,2.665l4.961,9.657v.246h-6.135l-4.194-8.456h-3.1v8.456h0Zm0-12.915h3.622a3.256,3.256,0,0,0,2.456-.863,3.364,3.364,0,0,0,.824-2.41,3.4,3.4,0,0,0-.833-2.426,3.223,3.223,0,0,0-2.448-.88h-3.622ZM35.836,59.672H30.11V35.718h9.35a10.417,10.417,0,0,1,6.61,1.892,6.465,6.465,0,0,1,2.382,5.347,7.877,7.877,0,0,1-1,4.145,7.174,7.174,0,0,1-3.142,2.665l4.961,9.657v.246H43.132l-4.194-8.456h-3.1v8.456h0Zm0-12.915H39.46a3.259,3.259,0,0,0,2.456-.863,3.364,3.364,0,0,0,.824-2.41,3.4,3.4,0,0,0-.833-2.426,3.223,3.223,0,0,0-2.448-.88H35.837Zm214.8,12.914V40.176h-7V35.718H263.5v4.458h-7.131V59.671Zm-24.368,0V35.718h16.4v4.458H232v5.051h9.008v4.294H232v5.709h10.64v4.442Zm-7.789,0-5.059-8.916-2.35,2.6v6.317h-5.728V35.718h5.728V46.28l1.991-3.044,5.124-7.518h7.082l-8.028,10.594,8.028,13.359Zm-43.3-4.474h-7.85l-1.371,4.474h-6.119l8.714-23.953h5.386l8.778,23.951-6.151,0ZM168.7,50.738h5.108l-2.562-8.308Zm-16.241,8.933V54.077l.554-11.45-5.744,17.043h-3.786l-5.76-17.06.554,11.466v5.594h-5.728V35.718h7.523l5.3,16.664,5.288-16.664H158.2V59.671Zm-36.711,0V54.077l.555-11.45-5.745,17.043h-3.785l-5.761-17.06.555,11.466v5.594H95.839V35.718h7.522l5.3,16.664,5.288-16.664h7.538V59.671ZM0,59.671V35.718H16.4v4.458H5.728v5.051h9.008v4.294H5.728v5.709h10.64v4.442Zm20-9.536V44.869h5.238v5.265ZM152.465,31.948V27.984h.718a3.734,3.734,0,0,0,1.77-.337,2.045,2.045,0,0,0,.905-1.209l.441-1.185L150.164,7.288h5.874l2.79,10.035,2.938-10.035h5.891l-7.2,20.777-.31.757a5.465,5.465,0,0,1-5.418,3.455A8.514,8.514,0,0,1,152.465,31.948Zm-99.154,0V27.984h.717a3.738,3.738,0,0,0,1.771-.337,2.048,2.048,0,0,0,.905-1.209l.44-1.185L51.009,7.288h5.874l2.791,10.035L62.612,7.288H68.5l-7.2,20.777-.31.757a5.466,5.466,0,0,1-5.418,3.455A8.509,8.509,0,0,1,53.311,31.948Zm57.651-.016h-5.515V23.607a5.121,5.121,0,0,1-4.014,1.81,5.957,5.957,0,0,1-4.985-2.443c-1.229-1.621-1.852-3.965-1.852-6.967a10.794,10.794,0,0,1,1.828-6.647,6.009,6.009,0,0,1,5.042-2.4A5.134,5.134,0,0,1,105.806,9.2l.392-1.908h4.765V31.931h0ZM100.111,15.366l-.016.986c0,3.177.922,4.788,2.741,4.788a2.66,2.66,0,0,0,2.611-1.448V12.651a2.6,2.6,0,0,0-2.578-1.415C101.168,11.237,100.24,12.626,100.111,15.366Zm42.9,8.7a5.557,5.557,0,0,1-1.355-4.1V11.137H139.4V7.288h2.252V2.863h5.5V7.288h2.905v3.849h-2.905v8.143a2.092,2.092,0,0,0,.359,1.4,1.918,1.918,0,0,0,1.42.4,8.013,8.013,0,0,0,1.371-.1V24.94a10.056,10.056,0,0,1-3.1.477A5.729,5.729,0,0,1,143.011,24.068Zm-27.988-.354a7.2,7.2,0,0,1-1.493-4.894V7.288h5.5V18.853q0,2.287,2.2,2.287a2.869,2.869,0,0,0,2.693-1.365V7.288h5.531v17.8H124.3l-.164-1.925a5.651,5.651,0,0,1-4.716,2.254A5.535,5.535,0,0,1,115.023,23.714Zm-76.274.88a6.782,6.782,0,0,1-2.774-2.237,5.094,5.094,0,0,1-1-2.977H40.12a2.147,2.147,0,0,0,.815,1.8,3.333,3.333,0,0,0,2.007.568,2.627,2.627,0,0,0,1.689-.461,1.477,1.477,0,0,0,.563-1.2,1.28,1.28,0,0,0-.734-1.135,11.076,11.076,0,0,0-2.79-.888,12.692,12.692,0,0,1-3.394-1.21,5.7,5.7,0,0,1-2.04-1.818,4.364,4.364,0,0,1-.7-2.451,4.933,4.933,0,0,1,2.007-4.039A8.222,8.222,0,0,1,42.8,6.959a9.106,9.106,0,0,1,5.613,1.6,5,5,0,0,1,2.121,4.195H45.015q0-2.138-2.236-2.138a2.207,2.207,0,0,0-1.453.485,1.508,1.508,0,0,0-.587,1.21,1.38,1.38,0,0,0,.717,1.2,6.744,6.744,0,0,0,2.293.757,19.594,19.594,0,0,1,2.766.707Q50.5,16.353,50.5,19.922a4.671,4.671,0,0,1-2.146,3.964,9.352,9.352,0,0,1-5.557,1.53A9.531,9.531,0,0,1,38.749,24.594ZM19.6,23.9a4.882,4.882,0,0,1-1.746-3.825,5.013,5.013,0,0,1,2.121-4.376,10.793,10.793,0,0,1,6.169-1.481h1.7v-.938c0-1.626-.708-2.451-2.105-2.451a1.728,1.728,0,0,0-1.958,1.941h-5.5a5.012,5.012,0,0,1,2.179-4.2,9.142,9.142,0,0,1,5.557-1.612A8.017,8.017,0,0,1,31.352,8.62a5.821,5.821,0,0,1,2.007,4.558v7.88a8.169,8.169,0,0,0,.751,3.751v.28h-5.5a6.386,6.386,0,0,1-.523-1.6,5.118,5.118,0,0,1-4.243,1.924A6.26,6.26,0,0,1,19.6,23.9Zm3.769-4.121A1.6,1.6,0,0,0,23.877,21a1.829,1.829,0,0,0,1.29.469,3.064,3.064,0,0,0,1.705-.444,2.781,2.781,0,0,0,.97-1V17.175h-1.6C24.338,17.175,23.371,18.049,23.371,19.774Zm114.444,5.314H132.3V7.288h5.515v17.8h0Zm-60.213,0V1.135H94V5.594H83.33v5.051h9.008v4.293H83.33v5.709H93.97v4.442Zm-76.935,0V1.135h16.4V5.594H6.4v5.051H15.4v4.293H6.4v5.709h10.64v4.442ZM132.823,4.64a2.5,2.5,0,0,1-.849-1.941,2.494,2.494,0,0,1,.849-1.941,3.584,3.584,0,0,1,4.406,0,2.491,2.491,0,0,1,.849,1.941,2.494,2.494,0,0,1-.849,1.941,3.584,3.584,0,0,1-4.406,0Z" fill="none"/>
    <path id="Path_7-3" data-name="Path 7" d="M76.546,57.73A8.127,8.127,0,0,1,74,51.512V35.718h5.76V51.627q.1,3.931,3.623,3.931a3.49,3.49,0,0,0,2.692-.986,4.642,4.642,0,0,0,.914-3.208V35.718h5.728V51.4a9.068,9.068,0,0,1-1.126,4.614A7.314,7.314,0,0,1,88.36,58.98,11.3,11.3,0,0,1,83.383,60,9.78,9.78,0,0,1,76.546,57.73Zm-20.713.864a9.6,9.6,0,0,1-3.664-4.023,13.878,13.878,0,0,1-1.379-6V47.218a14.358,14.358,0,0,1,1.281-6.211,9.6,9.6,0,0,1,3.672-4.154,10.252,10.252,0,0,1,5.442-1.464,10.147,10.147,0,0,1,5.385,1.448,9.761,9.761,0,0,1,3.68,4.12,13.944,13.944,0,0,1,1.329,6.128v1.1a14.272,14.272,0,0,1-1.289,6.2,9.627,9.627,0,0,1-3.663,4.154A10.186,10.186,0,0,1,61.217,60,10.324,10.324,0,0,1,55.832,58.594Zm2.06-17.051a9.219,9.219,0,0,0-1.261,4.885l-.016,1.76A10.477,10.477,0,0,0,57.774,53.6a3.8,3.8,0,0,0,3.443,1.892,3.75,3.75,0,0,0,3.345-1.859,10.2,10.2,0,0,0,1.192-5.347v-1.1a10.185,10.185,0,0,0-1.183-5.421,4.079,4.079,0,0,0-6.678-.221Zm131.829,18.13H184V35.718h9.35a10.417,10.417,0,0,1,6.61,1.892,6.463,6.463,0,0,1,2.382,5.347,7.877,7.877,0,0,1-1,4.145,7.174,7.174,0,0,1-3.142,2.665l4.961,9.657v.246h-6.135l-4.194-8.456h-3.1v8.456h0Zm0-12.915h3.622a3.256,3.256,0,0,0,2.456-.863,3.364,3.364,0,0,0,.824-2.41,3.4,3.4,0,0,0-.833-2.426,3.223,3.223,0,0,0-2.448-.88h-3.622ZM35.836,59.672H30.11V35.718h9.35a10.417,10.417,0,0,1,6.61,1.892,6.465,6.465,0,0,1,2.382,5.347,7.877,7.877,0,0,1-1,4.145,7.174,7.174,0,0,1-3.142,2.665l4.961,9.657v.246H43.132l-4.194-8.456h-3.1v8.456h0Zm0-12.915H39.46a3.259,3.259,0,0,0,2.456-.863,3.364,3.364,0,0,0,.824-2.41,3.4,3.4,0,0,0-.833-2.426,3.223,3.223,0,0,0-2.448-.88H35.837Zm214.8,12.914V40.176h-7V35.718H263.5v4.458h-7.131V59.671Zm-24.368,0V35.718h16.4v4.458H232v5.051h9.008v4.294H232v5.709h10.64v4.442Zm-7.789,0-5.059-8.916-2.35,2.6v6.317h-5.728V35.718h5.728V46.28l1.991-3.044,5.124-7.518h7.082l-8.028,10.594,8.028,13.359Zm-43.3-4.474h-7.85l-1.371,4.474h-6.119l8.714-23.953h5.386l8.778,23.951-6.151,0ZM168.7,50.738h5.108l-2.562-8.308Zm-16.241,8.933V54.077l.554-11.45-5.744,17.043h-3.786l-5.76-17.06.554,11.466v5.594h-5.728V35.718h7.523l5.3,16.664,5.288-16.664H158.2V59.671Zm-36.711,0V54.077l.555-11.45-5.745,17.043h-3.785l-5.761-17.06.555,11.466v5.594H95.839V35.718h7.522l5.3,16.664,5.288-16.664h7.538V59.671ZM0,59.671V35.718H16.4v4.458H5.728v5.051h9.008v4.294H5.728v5.709h10.64v4.442Zm20-9.536V44.869h5.238v5.265ZM152.465,31.948V27.984h.718a3.734,3.734,0,0,0,1.77-.337,2.045,2.045,0,0,0,.905-1.209l.441-1.185L150.164,7.288h5.874l2.79,10.035,2.938-10.035h5.891l-7.2,20.777-.31.757a5.465,5.465,0,0,1-5.418,3.455A8.514,8.514,0,0,1,152.465,31.948Zm-99.154,0V27.984h.717a3.738,3.738,0,0,0,1.771-.337,2.048,2.048,0,0,0,.905-1.209l.44-1.185L51.009,7.288h5.874l2.791,10.035L62.612,7.288H68.5l-7.2,20.777-.31.757a5.466,5.466,0,0,1-5.418,3.455A8.509,8.509,0,0,1,53.311,31.948Zm57.651-.016h-5.515V23.607a5.121,5.121,0,0,1-4.014,1.81,5.957,5.957,0,0,1-4.985-2.443c-1.229-1.621-1.852-3.965-1.852-6.967a10.794,10.794,0,0,1,1.828-6.647,6.009,6.009,0,0,1,5.042-2.4A5.134,5.134,0,0,1,105.806,9.2l.392-1.908h4.765V31.931h0ZM100.111,15.366l-.016.986c0,3.177.922,4.788,2.741,4.788a2.66,2.66,0,0,0,2.611-1.448V12.651a2.6,2.6,0,0,0-2.578-1.415C101.168,11.237,100.24,12.626,100.111,15.366Zm42.9,8.7a5.557,5.557,0,0,1-1.355-4.1V11.137H139.4V7.288h2.252V2.863h5.5V7.288h2.905v3.849h-2.905v8.143a2.092,2.092,0,0,0,.359,1.4,1.918,1.918,0,0,0,1.42.4,8.013,8.013,0,0,0,1.371-.1V24.94a10.056,10.056,0,0,1-3.1.477A5.729,5.729,0,0,1,143.011,24.068Zm-27.988-.354a7.2,7.2,0,0,1-1.493-4.894V7.288h5.5V18.853q0,2.287,2.2,2.287a2.869,2.869,0,0,0,2.693-1.365V7.288h5.531v17.8H124.3l-.164-1.925a5.651,5.651,0,0,1-4.716,2.254A5.535,5.535,0,0,1,115.023,23.714Zm-76.274.88a6.782,6.782,0,0,1-2.774-2.237,5.094,5.094,0,0,1-1-2.977H40.12a2.147,2.147,0,0,0,.815,1.8,3.333,3.333,0,0,0,2.007.568,2.627,2.627,0,0,0,1.689-.461,1.477,1.477,0,0,0,.563-1.2,1.28,1.28,0,0,0-.734-1.135,11.076,11.076,0,0,0-2.79-.888,12.692,12.692,0,0,1-3.394-1.21,5.7,5.7,0,0,1-2.04-1.818,4.364,4.364,0,0,1-.7-2.451,4.933,4.933,0,0,1,2.007-4.039A8.222,8.222,0,0,1,42.8,6.959a9.106,9.106,0,0,1,5.613,1.6,5,5,0,0,1,2.121,4.195H45.015q0-2.138-2.236-2.138a2.207,2.207,0,0,0-1.453.485,1.508,1.508,0,0,0-.587,1.21,1.38,1.38,0,0,0,.717,1.2,6.744,6.744,0,0,0,2.293.757,19.594,19.594,0,0,1,2.766.707Q50.5,16.353,50.5,19.922a4.671,4.671,0,0,1-2.146,3.964,9.352,9.352,0,0,1-5.557,1.53A9.531,9.531,0,0,1,38.749,24.594ZM19.6,23.9a4.882,4.882,0,0,1-1.746-3.825,5.013,5.013,0,0,1,2.121-4.376,10.793,10.793,0,0,1,6.169-1.481h1.7v-.938c0-1.626-.708-2.451-2.105-2.451a1.728,1.728,0,0,0-1.958,1.941h-5.5a5.012,5.012,0,0,1,2.179-4.2,9.142,9.142,0,0,1,5.557-1.612A8.017,8.017,0,0,1,31.352,8.62a5.821,5.821,0,0,1,2.007,4.558v7.88a8.169,8.169,0,0,0,.751,3.751v.28h-5.5a6.386,6.386,0,0,1-.523-1.6,5.118,5.118,0,0,1-4.243,1.924A6.26,6.26,0,0,1,19.6,23.9Zm3.769-4.121A1.6,1.6,0,0,0,23.877,21a1.829,1.829,0,0,0,1.29.469,3.064,3.064,0,0,0,1.705-.444,2.781,2.781,0,0,0,.97-1V17.175h-1.6C24.338,17.175,23.371,18.049,23.371,19.774Zm114.444,5.314H132.3V7.288h5.515v17.8h0Zm-60.213,0V1.135H94V5.594H83.33v5.051h9.008v4.293H83.33v5.709H93.97v4.442Zm-76.935,0V1.135h16.4V5.594H6.4v5.051H15.4v4.293H6.4v5.709h10.64v4.442ZM132.823,4.64a2.5,2.5,0,0,1-.849-1.941,2.494,2.494,0,0,1,.849-1.941,3.584,3.584,0,0,1,4.406,0,2.491,2.491,0,0,1,.849,1.941,2.494,2.494,0,0,1-.849,1.941,3.584,3.584,0,0,1-4.406,0Z" fill="url(#linear-gradient)"/>
  </g>
</svg>
