<?xml version="1.0" encoding="UTF-8"?>
<svg width="247px" height="24px" viewBox="0 0 247 24" version="1.1" xmlns="http://www.w3.org/2000/svg" xmlns:xlink="http://www.w3.org/1999/xlink">
    <title>Combined Shape</title>
    <defs>
        <linearGradient x1="-59.5452769%" y1="49.1481714%" x2="96.574442%" y2="50.348069%" id="linearGradient-1">
            <stop stop-color="#1584B9" offset="0.0600961538%"></stop>
            <stop stop-color="#770DAC" offset="29.207123%"></stop>
            <stop stop-color="#B80D0D" offset="54.4901616%"></stop>
            <stop stop-color="#E5A20A" offset="76.5687764%"></stop>
            <stop stop-color="#43A800" offset="100%"></stop>
        </linearGradient>
    </defs>
    <g id="쿠폰존" stroke="none" stroke-width="1" fill="none" fill-rule="evenodd" opacity="0.200000003">
        <g id="이로움기획전" transform="translate(-771.000000, -73.000000)" fill="url(#linearGradient-1)" fill-rule="nonzero">
            <path d="M1017.90016,77.7811359 L1011.2182,77.7811359 L1011.2182,95.9004019 L1005.85123,95.9004019 L1005.85123,77.7811359 L999.291594,77.7811359 L999.291594,73.637405 L1017.90016,73.637405 L1017.90016,77.7811359 Z M784.805686,86.4661512 L776.365319,86.4661512 L776.365319,91.7719615 L786.334738,91.7719615 L786.334738,95.9004019 L770.998347,95.9004019 L770.998347,73.637405 L786.365319,73.637405 L786.365319,77.7811359 L776.365319,77.7811359 L776.365319,82.4753255 L784.805686,82.4753255 L784.805686,86.4661512 Z M789.737912,87.0364462 L789.737912,82.1434799 L794.646169,82.1434799 L794.646169,87.0364462 L789.737912,87.0364462 Z M807.97289,73.637405 C810.613053,73.637405 812.677274,74.2235416 814.165551,75.3958148 C815.653828,76.568088 816.397967,78.2245609 816.397967,80.3652337 C816.397967,81.9146731 816.084511,83.1990767 815.4576,84.2184447 C814.830688,85.2378127 813.849547,86.0635008 812.514175,86.6955089 L817.162493,95.6710441 L817.162493,95.9004019 L811.413257,95.9004019 L807.483594,88.0410747 L804.578395,88.0410747 L804.578395,95.9004019 L799.211422,95.9004019 L799.211422,73.637405 L807.97289,73.637405 Z M807.97289,77.7811359 L804.578395,77.7811359 L804.578395,83.8973438 L807.97289,83.8973438 C808.992258,83.8973438 809.759333,83.6297597 810.274114,83.0945915 C810.788894,82.5594233 811.046285,81.8127363 811.046285,80.8545304 C811.046285,79.8963244 810.786346,79.1445405 810.266468,78.5991787 C809.746591,78.0538168 808.982065,77.7811359 807.97289,77.7811359 Z M828.329531,73.3315946 C830.215362,73.3315946 831.897319,73.7801165 833.375403,74.6771603 C834.853487,75.5742042 836.002824,76.8509626 836.823415,78.5074356 C837.644006,80.1639085 838.059399,82.0624814 838.069593,84.2031542 L838.069593,85.227619 C838.069593,87.3988729 837.666942,89.3203815 836.861641,90.992145 C836.056341,92.6639085 834.9121,93.9508606 833.42892,94.8530013 C831.945739,95.755142 830.256137,96.2062123 828.360112,96.2062123 C826.464088,96.2062123 824.782131,95.7704325 823.314241,94.8988729 C821.846351,94.0273132 820.70211,92.7811359 819.881519,91.1603408 C819.060928,89.5395456 818.630245,87.6791991 818.58947,85.579301 L818.58947,84.3254784 C818.58947,82.1440309 818.989572,80.2199738 819.789776,78.5533071 C820.58998,76.8866404 821.736769,75.5996884 823.230143,74.6924508 C824.723517,73.7852133 826.423313,73.3315946 828.329531,73.3315946 Z M828.329531,77.5364875 C825.6384,77.5364875 824.216382,79.5548362 824.063476,83.5915334 L824.048186,85.227619 C824.048186,87.4090665 824.410061,89.0859269 825.133813,90.2582001 C825.857564,91.4304733 826.932997,92.0166099 828.360112,92.0166099 C829.715872,92.0166099 830.760724,91.440667 831.494669,90.2887811 C832.228614,89.1368953 832.600683,87.4804223 832.610877,85.3193622 L832.610877,84.2948973 C832.610877,82.0828688 832.241356,80.40346 831.502314,79.256671 C830.763272,78.109882 829.705678,77.5364875 828.329531,77.5364875 Z M857.875775,73.637405 L857.875775,88.2092704 C857.875775,89.8606466 857.524093,91.2903102 856.820729,92.4982612 C856.117365,93.7062123 855.108191,94.6261919 853.793206,95.2582001 C852.478221,95.8902082 850.923685,96.2062123 849.129597,96.2062123 C846.418079,96.2062123 844.282503,95.5028484 842.72287,94.0961206 C841.163237,92.6893927 840.36813,90.7627872 840.337549,88.3163041 L840.337549,73.637405 L845.735102,73.637405 L845.735102,88.4233377 C845.796264,90.8596272 846.927763,92.0777719 849.129597,92.0777719 C850.240709,92.0777719 851.081687,91.7719615 851.652533,91.1603408 C852.223379,90.54872 852.508802,89.5548362 852.508802,88.1786894 L852.508802,73.637405 L857.875775,73.637405 Z M867.850153,73.637405 L872.819572,89.1267016 L877.7737,73.637405 L884.83792,73.637405 L884.83792,95.9004019 L879.455657,95.9004019 L879.455657,90.7016252 L879.975535,80.0594233 L874.593272,95.9004019 L871.045872,95.9004019 L865.648318,80.0441328 L866.168196,90.7016252 L866.168196,95.9004019 L860.801223,95.9004019 L860.801223,73.637405 L867.850153,73.637405 Z M902.24845,73.637405 L907.217869,89.1267016 L912.171998,73.637405 L919.236218,73.637405 L919.236218,95.9004019 L913.853955,95.9004019 L913.853955,90.7016252 L914.373833,80.0594233 L908.99157,95.9004019 L905.444169,95.9004019 L900.046615,80.0441328 L900.566493,90.7016252 L900.566493,95.9004019 L895.199521,95.9004019 L895.199521,73.637405 L902.24845,73.637405 Z M933.981238,73.637405 L942.207538,95.9004019 L936.443012,95.9004019 L935.143318,91.7413805 L927.788578,91.7413805 L926.504174,95.9004019 L920.770229,95.9004019 L928.935367,73.637405 L933.981238,73.637405 Z M931.458302,79.8759371 L929.072981,87.5976496 L933.858914,87.5976496 L931.458302,79.8759371 Z M952.166625,73.637405 C954.806788,73.637405 956.871009,74.2235416 958.359286,75.3958148 C959.847563,76.568088 960.591702,78.2245609 960.591702,80.3652337 C960.591702,81.9146731 960.278246,83.1990767 959.651335,84.2184447 C959.024424,85.2378127 958.043282,86.0635008 956.70791,86.6955089 L961.356228,95.6710441 L961.356228,95.9004019 L955.606992,95.9004019 L951.677329,88.0410747 L948.77213,88.0410747 L948.77213,95.9004019 L943.405157,95.9004019 L943.405157,73.637405 L952.166625,73.637405 Z M952.166625,77.7811359 L948.77213,77.7811359 L948.77213,83.8973438 L952.166625,83.8973438 C953.185993,83.8973438 953.953068,83.6297597 954.467849,83.0945915 C954.982629,82.5594233 955.24002,81.8127363 955.24002,80.8545304 C955.24002,79.8963244 954.980081,79.1445405 954.460203,78.5991787 C953.940326,78.0538168 953.1758,77.7811359 952.166625,77.7811359 Z M970.978924,87.6129401 L968.777089,90.0288423 L968.777089,95.9004019 L963.410117,95.9004019 L963.410117,73.637405 L968.777089,73.637405 L968.777089,83.4539187 L970.642532,80.6251726 L975.443756,73.637405 L982.079841,73.637405 L974.556906,83.4844998 L982.079841,95.9004019 L975.718985,95.9004019 L970.978924,87.6129401 Z M996.824862,86.4661512 L988.384495,86.4661512 L988.384495,91.7719615 L998.353914,91.7719615 L998.353914,95.9004019 L983.017522,95.9004019 L983.017522,73.637405 L998.384495,73.637405 L998.384495,77.7811359 L988.384495,77.7811359 L988.384495,82.4753255 L996.824862,82.4753255 L996.824862,86.4661512 Z" id="Combined-Shape"></path>
        </g>
    </g>
</svg>