<svg id="fashion_copy" data-name="fashion copy" xmlns="http://www.w3.org/2000/svg" xmlns:xlink="http://www.w3.org/1999/xlink" width="94.275" height="17.546" viewBox="0 0 94.275 17.546">
  <defs>
    <clipPath id="clip-path">
      <path id="Path_8" data-name="Path 8" d="M32.011,17.545a8.2,8.2,0,0,1-2.567-.434,5.627,5.627,0,0,1-2.027-1.2,5.19,5.19,0,0,1-1.641-4.16l4.019.012a2.75,2.75,0,0,0,.5,1.986,2.42,2.42,0,0,0,1.933.674,2.9,2.9,0,0,0,1.682-.464,1.921,1.921,0,0,0,.826-1.283q.258-1.324-1.43-2.051l-1.921-.8q-4.043-1.817-3.844-4.945a4.363,4.363,0,0,1,.985-2.549A5.841,5.841,0,0,1,31.027.6a9.2,9.2,0,0,1,3.48-.6,5.922,5.922,0,0,1,4.072,1.477A4.907,4.907,0,0,1,40.1,5.31H36.112A2.389,2.389,0,0,0,35.7,3.734a1.8,1.8,0,0,0-1.482-.615,3.107,3.107,0,0,0-1.782.468,1.9,1.9,0,0,0-.913,1.325q-.223,1.172,1.74,1.922a19.232,19.232,0,0,1,2.854,1.289,4.713,4.713,0,0,1,2.625,4.524,4.635,4.635,0,0,1-.95,2.589,5.485,5.485,0,0,1-2.373,1.723,8.669,8.669,0,0,1-3.26.587Zm36.906-.012a5.8,5.8,0,0,1-4.265-1.758,7.2,7.2,0,0,1-1.817-4.547,13.126,13.126,0,0,1,.223-3.31,11.7,11.7,0,0,1,1.207-3.51,8.878,8.878,0,0,1,2.168-2.672A7.434,7.434,0,0,1,71.272,0l.177,0A6.194,6.194,0,0,1,74.5.8a5.625,5.625,0,0,1,2.092,2.209,7.966,7.966,0,0,1,.913,3.281,13.46,13.46,0,0,1-.158,2.959,12.269,12.269,0,0,1-.926,3.164,9.718,9.718,0,0,1-1.741,2.654,8.021,8.021,0,0,1-2.514,1.823,7.223,7.223,0,0,1-3.074.64Zm-.457-13a8.508,8.508,0,0,0-1.441,4.13,14.534,14.534,0,0,0-.164,2.614c.077,1.976.851,3,2.3,3.059.058,0,.114,0,.171,0a3.053,3.053,0,0,0,2.29-1.031A6.657,6.657,0,0,0,73.1,10.121a15.379,15.379,0,0,0,.386-3.862c-.076-1.944-.841-2.968-2.273-3.046-.061,0-.122,0-.183,0A3.154,3.154,0,0,0,68.46,4.532ZM87.431,17.3,83.354,6.53,81.478,17.3H77.47L80.423.236h3.914L88.4,11.006,90.267.236h4.008L91.31,17.3Zm-31.824,0L58.573.236h4L59.616,17.3Zm-6.278,0,1.23-7.125H44.712L43.469,17.3H39.461L42.415.236h4.019L45.251,7.01H51.11L52.282.236h4L53.313,17.3Zm-40.694,0L17.67.236h3.774L24.6,17.3H20.424l-.41-3.187H14.565L13.053,17.3H8.635Zm7.429-6.363H19.6l-.75-5.882ZM0,17.3,2.953.236h11.1L13.5,3.412H6.422l-.68,3.926h6.434L11.625,10.5H5.191L4.008,17.3Z" transform="translate(0 0)" fill="#111"/>
    </clipPath>
  </defs>
  <path id="Path_8-2" data-name="Path 8" d="M32.011,17.545a8.2,8.2,0,0,1-2.567-.434,5.627,5.627,0,0,1-2.027-1.2,5.19,5.19,0,0,1-1.641-4.16l4.019.012a2.75,2.75,0,0,0,.5,1.986,2.42,2.42,0,0,0,1.933.674,2.9,2.9,0,0,0,1.682-.464,1.921,1.921,0,0,0,.826-1.283q.258-1.324-1.43-2.051l-1.921-.8q-4.043-1.817-3.844-4.945a4.363,4.363,0,0,1,.985-2.549A5.841,5.841,0,0,1,31.027.6a9.2,9.2,0,0,1,3.48-.6,5.922,5.922,0,0,1,4.072,1.477A4.907,4.907,0,0,1,40.1,5.31H36.112A2.389,2.389,0,0,0,35.7,3.734a1.8,1.8,0,0,0-1.482-.615,3.107,3.107,0,0,0-1.782.468,1.9,1.9,0,0,0-.913,1.325q-.223,1.172,1.74,1.922a19.232,19.232,0,0,1,2.854,1.289,4.713,4.713,0,0,1,2.625,4.524,4.635,4.635,0,0,1-.95,2.589,5.485,5.485,0,0,1-2.373,1.723,8.669,8.669,0,0,1-3.26.587Zm36.906-.012a5.8,5.8,0,0,1-4.265-1.758,7.2,7.2,0,0,1-1.817-4.547,13.126,13.126,0,0,1,.223-3.31,11.7,11.7,0,0,1,1.207-3.51,8.878,8.878,0,0,1,2.168-2.672A7.434,7.434,0,0,1,71.272,0l.177,0A6.194,6.194,0,0,1,74.5.8a5.625,5.625,0,0,1,2.092,2.209,7.966,7.966,0,0,1,.913,3.281,13.46,13.46,0,0,1-.158,2.959,12.269,12.269,0,0,1-.926,3.164,9.718,9.718,0,0,1-1.741,2.654,8.021,8.021,0,0,1-2.514,1.823,7.223,7.223,0,0,1-3.074.64Zm-.457-13a8.508,8.508,0,0,0-1.441,4.13,14.534,14.534,0,0,0-.164,2.614c.077,1.976.851,3,2.3,3.059.058,0,.114,0,.171,0a3.053,3.053,0,0,0,2.29-1.031A6.657,6.657,0,0,0,73.1,10.121a15.379,15.379,0,0,0,.386-3.862c-.076-1.944-.841-2.968-2.273-3.046-.061,0-.122,0-.183,0A3.154,3.154,0,0,0,68.46,4.532ZM87.431,17.3,83.354,6.53,81.478,17.3H77.47L80.423.236h3.914L88.4,11.006,90.267.236h4.008L91.31,17.3Zm-31.824,0L58.573.236h4L59.616,17.3Zm-6.278,0,1.23-7.125H44.712L43.469,17.3H39.461L42.415.236h4.019L45.251,7.01H51.11L52.282.236h4L53.313,17.3Zm-40.694,0L17.67.236h3.774L24.6,17.3H20.424l-.41-3.187H14.565L13.053,17.3H8.635Zm7.429-6.363H19.6l-.75-5.882ZM0,17.3,2.953.236h11.1L13.5,3.412H6.422l-.68,3.926h6.434L11.625,10.5H5.191L4.008,17.3Z" transform="translate(0 0)" fill="#111"/>
  <g id="fashion_copy-2" data-name="fashion copy" clip-path="url(#clip-path)">
    <circle id="Oval" cx="62" cy="62" r="62" transform="translate(19.316 -125.5)" fill="#fff" opacity="0.5"/>
  </g>
</svg>
