<svg xmlns="http://www.w3.org/2000/svg" xmlns:xlink="http://www.w3.org/1999/xlink" width="468.76" height="91" viewBox="0 0 468.76 91">
  <defs>
    <linearGradient id="linear-gradient" x2="0.948" y2="0.848" gradientUnits="objectBoundingBox">
      <stop offset="0" stop-color="#7971e6"/>
      <stop offset="0.47" stop-color="#e32c2c"/>
      <stop offset="1" stop-color="#ffbd00"/>
    </linearGradient>
  </defs>
  <g id="Shape" transform="translate(1217.78 -5261.88)">
    <path id="Shape-2" data-name="Shape" d="M256.24,90.44a10.414,10.414,0,0,1-3.12-1.561A7.539,7.539,0,0,1,251.08,86.4a7.261,7.261,0,0,1-.72-3.281,7.423,7.423,0,0,1,2.679-5.639,9.014,9.014,0,0,1,3.12-1.68,12.93,12.93,0,0,1,4.08-.6,16.188,16.188,0,0,1,4.04.52,11.465,11.465,0,0,1,3.12,1.56,7.711,7.711,0,0,1,2.04,2.52,7.611,7.611,0,0,1,.72,3.32,7.365,7.365,0,0,1-.72,3.32,7.536,7.536,0,0,1-2.04,2.48,11.414,11.414,0,0,1-3.12,1.56,16.146,16.146,0,0,1-4.04.52A13.713,13.713,0,0,1,256.24,90.44Zm-.52-10.921a4.052,4.052,0,0,0-1.84,3.6,3.924,3.924,0,0,0,1.84,3.56,8.087,8.087,0,0,0,4.56,1.2,8.215,8.215,0,0,0,4.639-1.24,4.026,4.026,0,0,0,1.76-3.52,4.161,4.161,0,0,0-1.76-3.559,8.223,8.223,0,0,0-4.639-1.24A8.094,8.094,0,0,0,255.72,79.52ZM52.12,90.4a9.73,9.73,0,0,1-3.2-1.68A8.343,8.343,0,0,1,46.76,86a7.252,7.252,0,0,1-.8-3.52,7.641,7.641,0,0,1,.8-3.6,7.8,7.8,0,0,1,2.2-2.68,9.725,9.725,0,0,1,3.2-1.72,13.611,13.611,0,0,1,3.92-.561,13.262,13.262,0,0,1,3.96.6,11.368,11.368,0,0,1,3.24,1.68,9.081,9.081,0,0,1,2.2,2.72,8.147,8.147,0,0,1,.8,3.56,7.712,7.712,0,0,1-.8,3.479,9.559,9.559,0,0,1-2.16,2.72A11.466,11.466,0,0,1,60.08,90.4a13.232,13.232,0,0,1-4,.6A12.535,12.535,0,0,1,52.12,90.4Zm1.4-13.04a6.214,6.214,0,0,0-2.12,1.12,4.907,4.907,0,0,0-1.44,1.72,4.982,4.982,0,0,0-.52,2.281A4.113,4.113,0,0,0,50,84.72a4.552,4.552,0,0,0,1.44,1.721,7.044,7.044,0,0,0,2.119,1.08,8.8,8.8,0,0,0,2.52.36,9.5,9.5,0,0,0,2.6-.36,8.927,8.927,0,0,0,2.12-1.08,5.437,5.437,0,0,0,1.44-1.721,5.04,5.04,0,0,0,.519-2.239,5.239,5.239,0,0,0-.519-2.24,6.449,6.449,0,0,0-1.4-1.72,7.617,7.617,0,0,0-2.119-1.12A9.525,9.525,0,0,0,56.08,77,8.776,8.776,0,0,0,53.52,77.36Zm-38,13.04a9.748,9.748,0,0,1-3.2-1.68A8.367,8.367,0,0,1,10.16,86a7.261,7.261,0,0,1-.8-3.52,7.649,7.649,0,0,1,.8-3.6,7.821,7.821,0,0,1,2.2-2.68,9.734,9.734,0,0,1,3.2-1.72,13.611,13.611,0,0,1,3.92-.561,13.258,13.258,0,0,1,3.96.6,11.356,11.356,0,0,1,3.24,1.68,9.054,9.054,0,0,1,2.2,2.72,8.136,8.136,0,0,1,.8,3.56,7.7,7.7,0,0,1-.8,3.479,9.54,9.54,0,0,1-2.16,2.72A11.465,11.465,0,0,1,23.48,90.4a13.224,13.224,0,0,1-4,.6A12.535,12.535,0,0,1,15.52,90.4Zm1.4-13.04a6.231,6.231,0,0,0-2.12,1.12,4.907,4.907,0,0,0-1.44,1.72,4.983,4.983,0,0,0-.519,2.281,4.109,4.109,0,0,0,.56,2.239,4.552,4.552,0,0,0,1.44,1.721,7.044,7.044,0,0,0,2.12,1.08,8.8,8.8,0,0,0,2.52.36,9.5,9.5,0,0,0,2.6-.36,8.927,8.927,0,0,0,2.12-1.08,5.419,5.419,0,0,0,1.44-1.721,5.037,5.037,0,0,0,.52-2.239,5.236,5.236,0,0,0-.52-2.24,6.421,6.421,0,0,0-1.4-1.72A7.583,7.583,0,0,0,22.12,77.4,9.525,9.525,0,0,0,19.48,77,8.776,8.776,0,0,0,16.92,77.36ZM461.959,90.6H459.72V53h2.24v14.72h6.8V69.68h-6.8V90.6h0Zm-36.4,0H423.32V53h2.24V90.6Zm-114,0H309.32V53h2.24V90.6Zm26.641-.8a25.236,25.236,0,0,1-1.957-1.6,20.86,20.86,0,0,1-1.882-1.882A15.052,15.052,0,0,1,332.8,84.2a8.7,8.7,0,0,1-1.12-2.2,20.05,20.05,0,0,1-2.641,4.52,16.232,16.232,0,0,1-3.6,3.281c-.1-.086-.2-.167-.3-.247a6.108,6.108,0,0,1-.5-.434l-.113-.1c-.247-.211-.479-.41-.687-.583a19.416,19.416,0,0,0,2.52-1.96,14.531,14.531,0,0,0,2.08-2.52,18.8,18.8,0,0,0,1.44-3.12,13.79,13.79,0,0,0,.64-3.52V75.36h2.2v1.96a9.087,9.087,0,0,0,.44,3A10.1,10.1,0,0,0,334.36,83a9.987,9.987,0,0,0,1.721,2.32,14.449,14.449,0,0,0,2.16,1.96c.634-.517,1.3-1.1,2.039-1.76a13.714,13.714,0,0,0,1.8-2.319,16.853,16.853,0,0,0,1.28-2.84,11.41,11.41,0,0,0,.481-3.4v-1.6h2.2v1.96a10.021,10.021,0,0,0,.56,3.52,12.548,12.548,0,0,0,1.52,3.12,11.812,11.812,0,0,0,2.12,2.52,19.094,19.094,0,0,0,2.479,1.96,6.49,6.49,0,0,0-.8.68c-.1.085-.2.165-.294.242a6.074,6.074,0,0,0-.506.437,14.569,14.569,0,0,1-3.6-3.28A17.431,17.431,0,0,1,344.88,82a11.78,11.78,0,0,1-1.08,2.12,22.879,22.879,0,0,1-1.6,2.24c-.578.648-1.2,1.283-1.96,2a10.889,10.889,0,0,1-2.04,1.4V89.8Zm47.881,0h-23.6V76.36h2.24V80.6H383.8V76.36h2.28V89.8h0ZM364.721,87.88H383.8V82.52h-19.08ZM235.079,89.8h-23.6V80.12h19.48V76.68H211.48V73.8h23V83H214.961v3.92H235.08V89.8h0Zm-128.8,0h-3.519V79.12H83.28V76h23V89.8h0ZM150.8,85.72V82.6H166.52V76.04H156.28V64.48h20.48V59.12H156.28V56.2h24V67.4H159.76v5.76h21.12v2.88H170.04V82.6h15.72V85.72Zm-38,0V82.6h34.96v3.119H112.8ZM282.48,82V80.04h9.48V71.88h-7.28V56.52h16.761v2H286.92v11.4h15.241v1.96h-8V80.04h.031a46.675,46.675,0,0,0,5.769-.319c1.791-.186,3.714-.487,5.881-.92l.28,1.92a51.333,51.333,0,0,1-6.4.96,72.3,72.3,0,0,1-7.44.319Zm153.28-3.08h0V56.52h17v2H438V76.96h.049c3.419,0,6.213-.1,8.79-.319,2.817-.2,5.59-.525,8.24-.96l.28,1.92a123.992,123.992,0,0,1-19.6,1.32Zm-36.8-.4h0V56.12h2.24V76.56h.049c3.474,0,6.415-.1,8.991-.32,2.844-.2,5.617-.523,8.24-.959l.28,1.92a124.13,124.13,0,0,1-19.8,1.32ZM126.12,75.2a10.582,10.582,0,0,1-3.6-2,9.835,9.835,0,0,1-2.6-3.24,10.17,10.17,0,0,1-1.12-4.36,9.358,9.358,0,0,1,.959-4.28,10.352,10.352,0,0,1,2.48-3.24,11.983,11.983,0,0,1,3.64-2.08,15.434,15.434,0,0,1,4.4-.8,13.175,13.175,0,0,1,4.28.72A12.041,12.041,0,0,1,138.2,58a11.686,11.686,0,0,1,2.6,3.28,10.007,10.007,0,0,1,1,4.32,10.352,10.352,0,0,1-.959,4.279,9.877,9.877,0,0,1-2.48,3.2,11.546,11.546,0,0,1-3.64,2.039,14.779,14.779,0,0,1-4.441.8A12.123,12.123,0,0,1,126.12,75.2Zm1.2-16.4a7.9,7.9,0,0,0-2.52,1.48,6.509,6.509,0,0,0-1.759,2.281,6.962,6.962,0,0,0-.08,6,5.98,5.98,0,0,0,1.759,2.24,7.163,7.163,0,0,0,2.52,1.44,8.51,8.51,0,0,0,3.04.561,9.442,9.442,0,0,0,3-.481,7.94,7.94,0,0,0,2.52-1.44,7.353,7.353,0,0,0,1.8-2.28,7.247,7.247,0,0,0,.72-3,7.088,7.088,0,0,0-.641-2.96,7.408,7.408,0,0,0-1.72-2.281,8.578,8.578,0,0,0-2.56-1.48,11.663,11.663,0,0,0-3.12-.56A9.005,9.005,0,0,0,127.319,58.8ZM242.48,73.4V70.32h16.04v-4.64h3.52v4.64H278.08V73.4h-35.6Zm-176-.279H62.96V53h3.52v8.4h6v3.12h-6v8.6h0Zm-36.2,0H26.76V63.96H19.4V60.84H26.76V53h3.52V73.12h0ZM350.12,73h-2.239V63.6h-8.24a8.024,8.024,0,0,1-.88,3.2,7.89,7.89,0,0,1-1.959,2.44,7.327,7.327,0,0,1-2.76,1.561,9.14,9.14,0,0,1-3.32.56,10.224,10.224,0,0,1-3.56-.6,7.847,7.847,0,0,1-2.84-1.72,7.009,7.009,0,0,1-1.92-2.72,8.259,8.259,0,0,1-.68-3.52,8.5,8.5,0,0,1,.68-3.52,7.451,7.451,0,0,1,1.92-2.68,8.4,8.4,0,0,1,2.84-1.72,10.2,10.2,0,0,1,3.56-.6,11.152,11.152,0,0,1,3.28.52,9.493,9.493,0,0,1,2.721,1.48,9.014,9.014,0,0,1,1.92,2.32,9.33,9.33,0,0,1,.96,3.04h8.28V53h2.24V73h0Zm-22-16.28a6.573,6.573,0,0,0-2.16,1.32,5.289,5.289,0,0,0-1.44,2.04,6.2,6.2,0,0,0-.56,2.72,6.426,6.426,0,0,0,.52,2.72,5.288,5.288,0,0,0,1.44,2.04,4.962,4.962,0,0,0,2.16,1.319,7.286,7.286,0,0,0,2.679.481,7.393,7.393,0,0,0,2.68-.481,5.946,5.946,0,0,0,2.12-1.319,6.614,6.614,0,0,0,1.4-2.08,7.094,7.094,0,0,0,.481-2.68,7.3,7.3,0,0,0-.52-2.68,7.547,7.547,0,0,0-1.4-2.08,7.236,7.236,0,0,0-2.12-1.32,8.345,8.345,0,0,0-2.641-.44A7.957,7.957,0,0,0,328.12,56.72ZM106.278,72.8h-3.519V63.96H95.4V60.84h7.359V53h3.52V72.8h0Zm250.2-.04V70.8h35.6v1.958h-35.6ZM78.4,72.6h0c-.384-.345-.773-.734-1.15-1.11l-.05-.049c-.2-.2-.407-.4-.606-.586s-.4-.377-.594-.574a16.43,16.43,0,0,0,6.6-5.44A15.2,15.2,0,0,0,85.16,57.72H77.72V54.6h18.8V57.72H89a11.339,11.339,0,0,0,.841,3.84,11.768,11.768,0,0,0,1.92,3.2,13.679,13.679,0,0,0,2.84,2.6,19.252,19.252,0,0,0,3.6,2.119c-.2.2-.408.4-.607.587s-.4.376-.594.573c-.393.393-.8.8-1.2,1.16a20.72,20.72,0,0,1-5.2-3.36,12.2,12.2,0,0,1-3.44-4.521,15.46,15.46,0,0,1-3.44,4.92A20.345,20.345,0,0,1,78.4,72.6Zm-76,0h0c-.383-.345-.773-.734-1.149-1.11L1.2,71.44c-.2-.2-.407-.4-.606-.586S.2,70.477,0,70.28a16.436,16.436,0,0,0,6.6-5.44A15.211,15.211,0,0,0,9.16,57.72H1.72V54.6h18.8V57.72H13a11.318,11.318,0,0,0,.841,3.84,11.745,11.745,0,0,0,1.92,3.2,13.656,13.656,0,0,0,2.84,2.6,19.193,19.193,0,0,0,3.6,2.119c-.2.2-.409.4-.608.587s-.4.376-.593.573c-.393.393-.8.8-1.2,1.16a20.7,20.7,0,0,1-5.2-3.36,12.182,12.182,0,0,1-3.44-4.521,15.474,15.474,0,0,1-3.44,4.92A20.36,20.36,0,0,1,2.4,72.6Zm36.8-.2h0c-.383-.345-.773-.734-1.15-1.11L38,71.24c-.2-.2-.408-.4-.606-.586s-.4-.377-.594-.574a22.426,22.426,0,0,0,3.96-2.561,19.265,19.265,0,0,0,2.96-3.08,15.019,15.019,0,0,0,1.92-3.4,10.7,10.7,0,0,0,.64-3.52V54h3.64v3.52a9.154,9.154,0,0,0,.64,3.361,10.452,10.452,0,0,0,1.88,3.2,14.386,14.386,0,0,0,2.96,2.84,17.1,17.1,0,0,0,4,2.36c-.2.2-.4.389-.593.573s-.4.384-.607.587l-.05.049c-.377.376-.767.766-1.15,1.111a17.7,17.7,0,0,1-2.84-1.561,14.632,14.632,0,0,1-2.52-1.88A10.433,10.433,0,0,1,49.6,66a8.025,8.025,0,0,1-1.44-2.319A16.339,16.339,0,0,1,44.64,68.6,21.95,21.95,0,0,1,39.2,72.4ZM234.479,71H230.96V53h3.52v7.6h6v3.12h-6V71h0Zm-9.32-.8H207.08v-16h3.48v5.36h11.08V54.2h3.52v16h0Zm-14.6-3h11.08V62.56H210.56Zm168.4-3.32a10.593,10.593,0,0,1-4.68-4.441,11.339,11.339,0,0,1-4.68,4.4,26.59,26.59,0,0,1-8.28,2.76h0l-.014-.015c-.231-.231-.471-.47-.7-.745a7.157,7.157,0,0,1-.76-.8,26.289,26.289,0,0,0,5.56-1.4,17.706,17.706,0,0,0,4.16-2.16,9.969,9.969,0,0,0,2.641-2.72,5.949,5.949,0,0,0,.879-3v-2.2h2.361v2.2a5.389,5.389,0,0,0,.92,3.04A8.922,8.922,0,0,0,379,61.52a14.4,14.4,0,0,0,4.16,2.12,25.228,25.228,0,0,0,5.521,1.4l-.04.049c-.223.257-.454.524-.68.75l-.521.522-.239.238A24.946,24.946,0,0,1,378.96,63.88ZM264.839,64a10.094,10.094,0,0,1-4.559-4.12,11.423,11.423,0,0,1-4.6,4.12,26.952,26.952,0,0,1-8.121,2.6h0c-.158-.2-.319-.4-.479-.6l-.02-.024-.46-.576c-.361-.4-.686-.806-1-1.2a25.55,25.55,0,0,0,5.44-1.4,17.927,17.927,0,0,0,4-2.119,9.664,9.664,0,0,0,2.52-2.6,5.331,5.331,0,0,0,.879-2.8V53.4h3.641v1.88a5.136,5.136,0,0,0,.88,2.84,8.738,8.738,0,0,0,2.56,2.6,15.2,15.2,0,0,0,4.04,2.08,25.284,25.284,0,0,0,5.4,1.4l-.48.6-.012.014L274,65.4l-.021.023c-.346.386-.7.785-1.018,1.177A25.677,25.677,0,0,1,264.839,64ZM258.12,37.4a9.76,9.76,0,0,1-3.2-1.721,7.871,7.871,0,0,1-2.12-2.64,6.8,6.8,0,0,1-.8-3.4,7.172,7.172,0,0,1,.8-3.479,7.56,7.56,0,0,1,2.16-2.641,9.752,9.752,0,0,1,3.2-1.679,12.2,12.2,0,0,1,3.92-.6,13.182,13.182,0,0,1,4,.6,11.379,11.379,0,0,1,3.24,1.679,9.317,9.317,0,0,1,2.16,2.68,7.8,7.8,0,0,1,.04,6.8,9.306,9.306,0,0,1-2.16,2.679,12.424,12.424,0,0,1-3.24,1.721,13.352,13.352,0,0,1-4.039.6A12.531,12.531,0,0,1,258.12,37.4Zm.92-13.721a7.725,7.725,0,0,0-2.48,1.32,6.157,6.157,0,0,0-1.679,2,5.337,5.337,0,0,0-.641,2.64,5.121,5.121,0,0,0,.641,2.6,5.931,5.931,0,0,0,1.679,2.04,9.321,9.321,0,0,0,2.52,1.28,10.315,10.315,0,0,0,3,.44,11.014,11.014,0,0,0,3.08-.44,8.382,8.382,0,0,0,2.52-1.32,6.289,6.289,0,0,0,1.72-2,5.52,5.52,0,0,0,.6-2.6,5.846,5.846,0,0,0-.6-2.64,6.151,6.151,0,0,0-1.68-2,8.424,8.424,0,0,0-2.52-1.32,11.145,11.145,0,0,0-3.119-.44A10.3,10.3,0,0,0,259.04,23.68ZM311.518,37.6H309.28V0h2.24V37.6Zm-74.6,0h-2.2V16.72h-5.8V36.4h-2.2V.4h2.2V14.76h5.8V0h2.2V37.6Zm-131.4,0H103.28V0h2.24V37.6Zm-79.838,0V0h2.24V14.76h6.8v1.96h-6.8V37.6Zm119-.6h-24.4V26.4h2.24V35H144.68v2h0Zm-78.961-.2H63.48V26.32H42.08V24.36H65.72V36.8h0ZM166.8,32.36V30.4h16.36V21.2h2.24v9.2h16.359v1.958H166.8Zm-90.36-2.6v-2H86V23.2a7.717,7.717,0,0,1-2.8-.68A6.1,6.1,0,0,1,81,21.04a5.731,5.731,0,0,1-1.44-2.16,6.416,6.416,0,0,1-.52-2.68,6.383,6.383,0,0,1,2.4-5.16,8.138,8.138,0,0,1,2.6-1.44,10.127,10.127,0,0,1,3.2-.481,10.489,10.489,0,0,1,3.2.481,9.628,9.628,0,0,1,2.6,1.44,7.718,7.718,0,0,1,1.76,2.2,7.11,7.11,0,0,1,.64,2.96,6.874,6.874,0,0,1-.56,2.8,6.416,6.416,0,0,1-1.52,2.12,6.643,6.643,0,0,1-2.32,1.44,8.924,8.924,0,0,1-2.88.68v4.52h.014a58.476,58.476,0,0,0,11.667-1.2,8.078,8.078,0,0,0,.16.96,4.046,4.046,0,0,0,.12,1,59.833,59.833,0,0,1-6.4.92,71.942,71.942,0,0,1-7.44.32Zm8.52-18.32a6.5,6.5,0,0,0-1.88,1,5.2,5.2,0,0,0-1.32,1.64,4.714,4.714,0,0,0-.48,2.12,4.823,4.823,0,0,0,.48,2.2A4.279,4.279,0,0,0,83.08,20a4.921,4.921,0,0,0,1.88.96,8.293,8.293,0,0,0,4.559,0A5.461,5.461,0,0,0,91.44,20a4.612,4.612,0,0,0,1.28-1.6,4.811,4.811,0,0,0,.48-2.2,4.7,4.7,0,0,0-.48-2.12,5.685,5.685,0,0,0-1.28-1.64,7.327,7.327,0,0,0-1.921-1,7.4,7.4,0,0,0-4.559,0Zm59.159,15.64H141.88V23.52H131.72V21.68H141.88V0h2.24V27.079h0ZM.16,25a25.169,25.169,0,0,0,5.8-3.04,25.446,25.446,0,0,0,4.88-4.4A24.081,24.081,0,0,0,14.32,12a19.226,19.226,0,0,0,1.56-6.48H1.48V3.56H18.36a22.778,22.778,0,0,1-1.32,7.88,24.894,24.894,0,0,1-3.6,6.6A24.618,24.618,0,0,1,8.16,23.16a26.207,26.207,0,0,1-6.321,3.4ZM207.8,26.08h0V3.56h14.48V5.52H210v18.6h.018a79.6,79.6,0,0,0,14.382-1.2,7.332,7.332,0,0,0,.16.92,3.993,3.993,0,0,0,.121,1,52.571,52.571,0,0,1-7.44.92c-2.547.219-5.547.32-9.439.32Zm-81.321-.88h-2.2V18.84h-9.8V17h10.6a63.383,63.383,0,0,0,13.12-1.28,5.706,5.706,0,0,0,.159.879,3.386,3.386,0,0,0,.121.921,60.8,60.8,0,0,1-12,1.319V25.2h0ZM288.36,23.96a8.9,8.9,0,0,1-3.24-2.24A9.115,9.115,0,0,1,283,18.36a10.98,10.98,0,0,1-.76-4.2A11.381,11.381,0,0,1,283,9.92a9.661,9.661,0,0,1,5.36-5.56,10.112,10.112,0,0,1,4.04-.8,10.55,10.55,0,0,1,4.04.8,11.191,11.191,0,0,1,3.2,2.2,12.15,12.15,0,0,1,2.16,3.36,12.19,12.19,0,0,1,.76,4.24,11.9,11.9,0,0,1-.76,4.2,11.06,11.06,0,0,1-2.16,3.36,9.731,9.731,0,0,1-7.24,3.04A9.389,9.389,0,0,1,288.36,23.96Zm.96-17.8a8.105,8.105,0,0,0-2.52,1.8,8.641,8.641,0,0,0-1.68,2.721,9.985,9.985,0,0,0-.6,3.479,9.31,9.31,0,0,0,.6,3.4,7.45,7.45,0,0,0,1.68,2.72,6.492,6.492,0,0,0,2.48,1.8,6.906,6.906,0,0,0,3.16.68,6.815,6.815,0,0,0,3.12-.68,6.987,6.987,0,0,0,2.52-1.8,8.763,8.763,0,0,0,1.64-2.72,10.212,10.212,0,0,0,.56-3.4,9.874,9.874,0,0,0-.6-3.44A9.346,9.346,0,0,0,298.04,8a9.222,9.222,0,0,0-2.48-1.84,7.925,7.925,0,0,0-6.24,0Zm-96.72,14a17.948,17.948,0,0,1-3.52-2.32,15.836,15.836,0,0,1-2.88-2.76,12.648,12.648,0,0,1-1.96-3.039,13.276,13.276,0,0,1-1.96,3.08,20.566,20.566,0,0,1-2.84,2.759,21.838,21.838,0,0,1-3.52,2.281,19.04,19.04,0,0,1-3.96,1.679h0a7.213,7.213,0,0,1-.75-.789l-.009-.01a7.546,7.546,0,0,1-.8-.8,25.058,25.058,0,0,0,4.36-1.8,16.494,16.494,0,0,0,3.92-2.76,14.963,14.963,0,0,0,2.88-3.72,11.809,11.809,0,0,0,1.36-4.72H172.04V5.279h11.08V.2h2.24v5.08h11.12V7.24H185.559a8.832,8.832,0,0,0,1,4.081A12.508,12.508,0,0,0,189.28,15a18.09,18.09,0,0,0,3.96,3.081,20.55,20.55,0,0,0,4.88,2.16c-.147.148-.283.294-.414.436s-.231.251-.346.365c-.145.145-.279.29-.409.429s-.236.255-.351.37A18.318,18.318,0,0,1,192.6,20.16Zm79.718.28h-2.239V0h2.24V8.96h6.4V10.92h-6.4v9.519h0ZM36.48,20.28v-1.96h16.68V13.36H55.4v4.96H72.08v1.959H36.48ZM245,19.36a7.631,7.631,0,0,1-.8-.8c-.259-.222-.553-.473-.8-.72a17.784,17.784,0,0,0,3.52-2.24A19.461,19.461,0,0,0,250,12.64a15.041,15.041,0,0,0,2.16-3.36A9.208,9.208,0,0,0,253,5.84V3.72h-8.08V1.76h18.64V3.72h-8.12V5.76a7.925,7.925,0,0,0,.959,3.56,12.173,12.173,0,0,0,2.2,3.16,15.96,15.96,0,0,0,3.04,2.6,18.564,18.564,0,0,0,3.44,1.959c-.287.247-.565.486-.8.72l-.283.283-.518.517a16.088,16.088,0,0,1-2.92-1.64,16.34,16.34,0,0,1-2.6-2.04,13.1,13.1,0,0,1-2.12-2.36,12.762,12.762,0,0,1-1.56-2.64,17.118,17.118,0,0,1-3.72,5.48,20.567,20.567,0,0,1-5.559,4ZM122.2,13.92a6.875,6.875,0,0,1-2.561-1.4,5.358,5.358,0,0,1-1.72-2.16,6.074,6.074,0,0,1-.64-2.88,6.3,6.3,0,0,1,.64-2.88,6.852,6.852,0,0,1,1.68-2.2,7.981,7.981,0,0,1,2.6-1.36A10.252,10.252,0,0,1,125.44.56a11.009,11.009,0,0,1,3.24.481,8.656,8.656,0,0,1,2.56,1.36,6.919,6.919,0,0,1,1.72,2.16,7.1,7.1,0,0,1,.6,2.92,6.639,6.639,0,0,1-.6,2.88,6.127,6.127,0,0,1-1.72,2.16,7.753,7.753,0,0,1-2.6,1.4,10.492,10.492,0,0,1-3.2.48A10.261,10.261,0,0,1,122.2,13.92Zm.88-11.12a6.228,6.228,0,0,0-1.921,1,4.725,4.725,0,0,0-1.24,1.6,4.625,4.625,0,0,0-.439,2.08,4.445,4.445,0,0,0,1.679,3.641,6.221,6.221,0,0,0,4.32,1.4,6.379,6.379,0,0,0,4.28-1.4A4.464,4.464,0,0,0,131.4,7.48a5.23,5.23,0,0,0-.44-2.08,6.719,6.719,0,0,0-1.2-1.6,6.968,6.968,0,0,0-1.88-1,7.967,7.967,0,0,0-2.4-.36A7.592,7.592,0,0,0,123.08,2.8ZM62.48,12.96a20.736,20.736,0,0,1-3.52-1.8A14.016,14.016,0,0,1,56.16,9a8.376,8.376,0,0,1-1.921-2.28A9.8,9.8,0,0,1,52.359,9a17.107,17.107,0,0,1-2.84,2.16,23.924,23.924,0,0,1-3.48,1.8,22.755,22.755,0,0,1-3.96,1.28h0a6.949,6.949,0,0,1-.759-.76c-.247-.247-.5-.541-.72-.8A24.591,24.591,0,0,0,45,11.24a18.342,18.342,0,0,0,3.92-2.12,11.831,11.831,0,0,0,2.8-2.68A5.109,5.109,0,0,0,52.8,3.32H42.24V1.36H66.28V3.32h-10.6a5.117,5.117,0,0,0,1.08,3.119A10.777,10.777,0,0,0,59.6,9.12a15.847,15.847,0,0,0,3.92,2.12,22.145,22.145,0,0,0,4.36,1.44l-.018.022c-.229.267-.467.545-.7.779a7,7,0,0,1-.512.52c-.086.083-.168.16-.248.239A21.3,21.3,0,0,1,62.48,12.96ZM97.159,6.84H77.04v-2h9.08V.36h2.239V4.84h8.8v2h0Z" transform="translate(-1217.78 5261.88)" fill="none"/>
    <path id="Shape-3" data-name="Shape" d="M256.24,90.44a10.414,10.414,0,0,1-3.12-1.561A7.539,7.539,0,0,1,251.08,86.4a7.261,7.261,0,0,1-.72-3.281,7.423,7.423,0,0,1,2.679-5.639,9.014,9.014,0,0,1,3.12-1.68,12.93,12.93,0,0,1,4.08-.6,16.188,16.188,0,0,1,4.04.52,11.465,11.465,0,0,1,3.12,1.56,7.711,7.711,0,0,1,2.04,2.52,7.611,7.611,0,0,1,.72,3.32,7.365,7.365,0,0,1-.72,3.32,7.536,7.536,0,0,1-2.04,2.48,11.414,11.414,0,0,1-3.12,1.56,16.146,16.146,0,0,1-4.04.52A13.713,13.713,0,0,1,256.24,90.44Zm-.52-10.921a4.052,4.052,0,0,0-1.84,3.6,3.924,3.924,0,0,0,1.84,3.56,8.087,8.087,0,0,0,4.56,1.2,8.215,8.215,0,0,0,4.639-1.24,4.026,4.026,0,0,0,1.76-3.52,4.161,4.161,0,0,0-1.76-3.559,8.223,8.223,0,0,0-4.639-1.24A8.094,8.094,0,0,0,255.72,79.52ZM52.12,90.4a9.73,9.73,0,0,1-3.2-1.68A8.343,8.343,0,0,1,46.76,86a7.252,7.252,0,0,1-.8-3.52,7.641,7.641,0,0,1,.8-3.6,7.8,7.8,0,0,1,2.2-2.68,9.725,9.725,0,0,1,3.2-1.72,13.611,13.611,0,0,1,3.92-.561,13.262,13.262,0,0,1,3.96.6,11.368,11.368,0,0,1,3.24,1.68,9.081,9.081,0,0,1,2.2,2.72,8.147,8.147,0,0,1,.8,3.56,7.712,7.712,0,0,1-.8,3.479,9.559,9.559,0,0,1-2.16,2.72A11.466,11.466,0,0,1,60.08,90.4a13.232,13.232,0,0,1-4,.6A12.535,12.535,0,0,1,52.12,90.4Zm1.4-13.04a6.214,6.214,0,0,0-2.12,1.12,4.907,4.907,0,0,0-1.44,1.72,4.982,4.982,0,0,0-.52,2.281A4.113,4.113,0,0,0,50,84.72a4.552,4.552,0,0,0,1.44,1.721,7.044,7.044,0,0,0,2.119,1.08,8.8,8.8,0,0,0,2.52.36,9.5,9.5,0,0,0,2.6-.36,8.927,8.927,0,0,0,2.12-1.08,5.437,5.437,0,0,0,1.44-1.721,5.04,5.04,0,0,0,.519-2.239,5.239,5.239,0,0,0-.519-2.24,6.449,6.449,0,0,0-1.4-1.72,7.617,7.617,0,0,0-2.119-1.12A9.525,9.525,0,0,0,56.08,77,8.776,8.776,0,0,0,53.52,77.36Zm-38,13.04a9.748,9.748,0,0,1-3.2-1.68A8.367,8.367,0,0,1,10.16,86a7.261,7.261,0,0,1-.8-3.52,7.649,7.649,0,0,1,.8-3.6,7.821,7.821,0,0,1,2.2-2.68,9.734,9.734,0,0,1,3.2-1.72,13.611,13.611,0,0,1,3.92-.561,13.258,13.258,0,0,1,3.96.6,11.356,11.356,0,0,1,3.24,1.68,9.054,9.054,0,0,1,2.2,2.72,8.136,8.136,0,0,1,.8,3.56,7.7,7.7,0,0,1-.8,3.479,9.54,9.54,0,0,1-2.16,2.72A11.465,11.465,0,0,1,23.48,90.4a13.224,13.224,0,0,1-4,.6A12.535,12.535,0,0,1,15.52,90.4Zm1.4-13.04a6.231,6.231,0,0,0-2.12,1.12,4.907,4.907,0,0,0-1.44,1.72,4.983,4.983,0,0,0-.519,2.281,4.109,4.109,0,0,0,.56,2.239,4.552,4.552,0,0,0,1.44,1.721,7.044,7.044,0,0,0,2.12,1.08,8.8,8.8,0,0,0,2.52.36,9.5,9.5,0,0,0,2.6-.36,8.927,8.927,0,0,0,2.12-1.08,5.419,5.419,0,0,0,1.44-1.721,5.037,5.037,0,0,0,.52-2.239,5.236,5.236,0,0,0-.52-2.24,6.421,6.421,0,0,0-1.4-1.72A7.583,7.583,0,0,0,22.12,77.4,9.525,9.525,0,0,0,19.48,77,8.776,8.776,0,0,0,16.92,77.36ZM461.959,90.6H459.72V53h2.24v14.72h6.8V69.68h-6.8V90.6h0Zm-36.4,0H423.32V53h2.24V90.6Zm-114,0H309.32V53h2.24V90.6Zm26.641-.8a25.236,25.236,0,0,1-1.957-1.6,20.86,20.86,0,0,1-1.882-1.882A15.052,15.052,0,0,1,332.8,84.2a8.7,8.7,0,0,1-1.12-2.2,20.05,20.05,0,0,1-2.641,4.52,16.232,16.232,0,0,1-3.6,3.281c-.1-.086-.2-.167-.3-.247a6.108,6.108,0,0,1-.5-.434l-.113-.1c-.247-.211-.479-.41-.687-.583a19.416,19.416,0,0,0,2.52-1.96,14.531,14.531,0,0,0,2.08-2.52,18.8,18.8,0,0,0,1.44-3.12,13.79,13.79,0,0,0,.64-3.52V75.36h2.2v1.96a9.087,9.087,0,0,0,.44,3A10.1,10.1,0,0,0,334.36,83a9.987,9.987,0,0,0,1.721,2.32,14.449,14.449,0,0,0,2.16,1.96c.634-.517,1.3-1.1,2.039-1.76a13.714,13.714,0,0,0,1.8-2.319,16.853,16.853,0,0,0,1.28-2.84,11.41,11.41,0,0,0,.481-3.4v-1.6h2.2v1.96a10.021,10.021,0,0,0,.56,3.52,12.548,12.548,0,0,0,1.52,3.12,11.812,11.812,0,0,0,2.12,2.52,19.094,19.094,0,0,0,2.479,1.96,6.49,6.49,0,0,0-.8.68c-.1.085-.2.165-.294.242a6.074,6.074,0,0,0-.506.437,14.569,14.569,0,0,1-3.6-3.28A17.431,17.431,0,0,1,344.88,82a11.78,11.78,0,0,1-1.08,2.12,22.879,22.879,0,0,1-1.6,2.24c-.578.648-1.2,1.283-1.96,2a10.889,10.889,0,0,1-2.04,1.4V89.8Zm47.881,0h-23.6V76.36h2.24V80.6H383.8V76.36h2.28V89.8h0ZM364.721,87.88H383.8V82.52h-19.08ZM235.079,89.8h-23.6V80.12h19.48V76.68H211.48V73.8h23V83H214.961v3.92H235.08V89.8h0Zm-128.8,0h-3.519V79.12H83.28V76h23V89.8h0ZM150.8,85.72V82.6H166.52V76.04H156.28V64.48h20.48V59.12H156.28V56.2h24V67.4H159.76v5.76h21.12v2.88H170.04V82.6h15.72V85.72Zm-38,0V82.6h34.96v3.119H112.8ZM282.48,82V80.04h9.48V71.88h-7.28V56.52h16.761v2H286.92v11.4h15.241v1.96h-8V80.04h.031a46.675,46.675,0,0,0,5.769-.319c1.791-.186,3.714-.487,5.881-.92l.28,1.92a51.333,51.333,0,0,1-6.4.96,72.3,72.3,0,0,1-7.44.319Zm153.28-3.08h0V56.52h17v2H438V76.96h.049c3.419,0,6.213-.1,8.79-.319,2.817-.2,5.59-.525,8.24-.96l.28,1.92a123.992,123.992,0,0,1-19.6,1.32Zm-36.8-.4h0V56.12h2.24V76.56h.049c3.474,0,6.415-.1,8.991-.32,2.844-.2,5.617-.523,8.24-.959l.28,1.92a124.13,124.13,0,0,1-19.8,1.32ZM126.12,75.2a10.582,10.582,0,0,1-3.6-2,9.835,9.835,0,0,1-2.6-3.24,10.17,10.17,0,0,1-1.12-4.36,9.358,9.358,0,0,1,.959-4.28,10.352,10.352,0,0,1,2.48-3.24,11.983,11.983,0,0,1,3.64-2.08,15.434,15.434,0,0,1,4.4-.8,13.175,13.175,0,0,1,4.28.72A12.041,12.041,0,0,1,138.2,58a11.686,11.686,0,0,1,2.6,3.28,10.007,10.007,0,0,1,1,4.32,10.352,10.352,0,0,1-.959,4.279,9.877,9.877,0,0,1-2.48,3.2,11.546,11.546,0,0,1-3.64,2.039,14.779,14.779,0,0,1-4.441.8A12.123,12.123,0,0,1,126.12,75.2Zm1.2-16.4a7.9,7.9,0,0,0-2.52,1.48,6.509,6.509,0,0,0-1.759,2.281,6.962,6.962,0,0,0-.08,6,5.98,5.98,0,0,0,1.759,2.24,7.163,7.163,0,0,0,2.52,1.44,8.51,8.51,0,0,0,3.04.561,9.442,9.442,0,0,0,3-.481,7.94,7.94,0,0,0,2.52-1.44,7.353,7.353,0,0,0,1.8-2.28,7.247,7.247,0,0,0,.72-3,7.088,7.088,0,0,0-.641-2.96,7.408,7.408,0,0,0-1.72-2.281,8.578,8.578,0,0,0-2.56-1.48,11.663,11.663,0,0,0-3.12-.56A9.005,9.005,0,0,0,127.319,58.8ZM242.48,73.4V70.32h16.04v-4.64h3.52v4.64H278.08V73.4h-35.6Zm-176-.279H62.96V53h3.52v8.4h6v3.12h-6v8.6h0Zm-36.2,0H26.76V63.96H19.4V60.84H26.76V53h3.52V73.12h0ZM350.12,73h-2.239V63.6h-8.24a8.024,8.024,0,0,1-.88,3.2,7.89,7.89,0,0,1-1.959,2.44,7.327,7.327,0,0,1-2.76,1.561,9.14,9.14,0,0,1-3.32.56,10.224,10.224,0,0,1-3.56-.6,7.847,7.847,0,0,1-2.84-1.72,7.009,7.009,0,0,1-1.92-2.72,8.259,8.259,0,0,1-.68-3.52,8.5,8.5,0,0,1,.68-3.52,7.451,7.451,0,0,1,1.92-2.68,8.4,8.4,0,0,1,2.84-1.72,10.2,10.2,0,0,1,3.56-.6,11.152,11.152,0,0,1,3.28.52,9.493,9.493,0,0,1,2.721,1.48,9.014,9.014,0,0,1,1.92,2.32,9.33,9.33,0,0,1,.96,3.04h8.28V53h2.24V73h0Zm-22-16.28a6.573,6.573,0,0,0-2.16,1.32,5.289,5.289,0,0,0-1.44,2.04,6.2,6.2,0,0,0-.56,2.72,6.426,6.426,0,0,0,.52,2.72,5.288,5.288,0,0,0,1.44,2.04,4.962,4.962,0,0,0,2.16,1.319,7.286,7.286,0,0,0,2.679.481,7.393,7.393,0,0,0,2.68-.481,5.946,5.946,0,0,0,2.12-1.319,6.614,6.614,0,0,0,1.4-2.08,7.094,7.094,0,0,0,.481-2.68,7.3,7.3,0,0,0-.52-2.68,7.547,7.547,0,0,0-1.4-2.08,7.236,7.236,0,0,0-2.12-1.32,8.345,8.345,0,0,0-2.641-.44A7.957,7.957,0,0,0,328.12,56.72ZM106.278,72.8h-3.519V63.96H95.4V60.84h7.359V53h3.52V72.8h0Zm250.2-.04V70.8h35.6v1.958h-35.6ZM78.4,72.6h0c-.384-.345-.773-.734-1.15-1.11l-.05-.049c-.2-.2-.407-.4-.606-.586s-.4-.377-.594-.574a16.43,16.43,0,0,0,6.6-5.44A15.2,15.2,0,0,0,85.16,57.72H77.72V54.6h18.8V57.72H89a11.339,11.339,0,0,0,.841,3.84,11.768,11.768,0,0,0,1.92,3.2,13.679,13.679,0,0,0,2.84,2.6,19.252,19.252,0,0,0,3.6,2.119c-.2.2-.408.4-.607.587s-.4.376-.594.573c-.393.393-.8.8-1.2,1.16a20.72,20.72,0,0,1-5.2-3.36,12.2,12.2,0,0,1-3.44-4.521,15.46,15.46,0,0,1-3.44,4.92A20.345,20.345,0,0,1,78.4,72.6Zm-76,0h0c-.383-.345-.773-.734-1.149-1.11L1.2,71.44c-.2-.2-.407-.4-.606-.586S.2,70.477,0,70.28a16.436,16.436,0,0,0,6.6-5.44A15.211,15.211,0,0,0,9.16,57.72H1.72V54.6h18.8V57.72H13a11.318,11.318,0,0,0,.841,3.84,11.745,11.745,0,0,0,1.92,3.2,13.656,13.656,0,0,0,2.84,2.6,19.193,19.193,0,0,0,3.6,2.119c-.2.2-.409.4-.608.587s-.4.376-.593.573c-.393.393-.8.8-1.2,1.16a20.7,20.7,0,0,1-5.2-3.36,12.182,12.182,0,0,1-3.44-4.521,15.474,15.474,0,0,1-3.44,4.92A20.36,20.36,0,0,1,2.4,72.6Zm36.8-.2h0c-.383-.345-.773-.734-1.15-1.11L38,71.24c-.2-.2-.408-.4-.606-.586s-.4-.377-.594-.574a22.426,22.426,0,0,0,3.96-2.561,19.265,19.265,0,0,0,2.96-3.08,15.019,15.019,0,0,0,1.92-3.4,10.7,10.7,0,0,0,.64-3.52V54h3.64v3.52a9.154,9.154,0,0,0,.64,3.361,10.452,10.452,0,0,0,1.88,3.2,14.386,14.386,0,0,0,2.96,2.84,17.1,17.1,0,0,0,4,2.36c-.2.2-.4.389-.593.573s-.4.384-.607.587l-.05.049c-.377.376-.767.766-1.15,1.111a17.7,17.7,0,0,1-2.84-1.561,14.632,14.632,0,0,1-2.52-1.88A10.433,10.433,0,0,1,49.6,66a8.025,8.025,0,0,1-1.44-2.319A16.339,16.339,0,0,1,44.64,68.6,21.95,21.95,0,0,1,39.2,72.4ZM234.479,71H230.96V53h3.52v7.6h6v3.12h-6V71h0Zm-9.32-.8H207.08v-16h3.48v5.36h11.08V54.2h3.52v16h0Zm-14.6-3h11.08V62.56H210.56Zm168.4-3.32a10.593,10.593,0,0,1-4.68-4.441,11.339,11.339,0,0,1-4.68,4.4,26.59,26.59,0,0,1-8.28,2.76h0l-.014-.015c-.231-.231-.471-.47-.7-.745a7.157,7.157,0,0,1-.76-.8,26.289,26.289,0,0,0,5.56-1.4,17.706,17.706,0,0,0,4.16-2.16,9.969,9.969,0,0,0,2.641-2.72,5.949,5.949,0,0,0,.879-3v-2.2h2.361v2.2a5.389,5.389,0,0,0,.92,3.04A8.922,8.922,0,0,0,379,61.52a14.4,14.4,0,0,0,4.16,2.12,25.228,25.228,0,0,0,5.521,1.4l-.04.049c-.223.257-.454.524-.68.75l-.521.522-.239.238A24.946,24.946,0,0,1,378.96,63.88ZM264.839,64a10.094,10.094,0,0,1-4.559-4.12,11.423,11.423,0,0,1-4.6,4.12,26.952,26.952,0,0,1-8.121,2.6h0c-.158-.2-.319-.4-.479-.6l-.02-.024-.46-.576c-.361-.4-.686-.806-1-1.2a25.55,25.55,0,0,0,5.44-1.4,17.927,17.927,0,0,0,4-2.119,9.664,9.664,0,0,0,2.52-2.6,5.331,5.331,0,0,0,.879-2.8V53.4h3.641v1.88a5.136,5.136,0,0,0,.88,2.84,8.738,8.738,0,0,0,2.56,2.6,15.2,15.2,0,0,0,4.04,2.08,25.284,25.284,0,0,0,5.4,1.4l-.48.6-.012.014L274,65.4l-.021.023c-.346.386-.7.785-1.018,1.177A25.677,25.677,0,0,1,264.839,64ZM258.12,37.4a9.76,9.76,0,0,1-3.2-1.721,7.871,7.871,0,0,1-2.12-2.64,6.8,6.8,0,0,1-.8-3.4,7.172,7.172,0,0,1,.8-3.479,7.56,7.56,0,0,1,2.16-2.641,9.752,9.752,0,0,1,3.2-1.679,12.2,12.2,0,0,1,3.92-.6,13.182,13.182,0,0,1,4,.6,11.379,11.379,0,0,1,3.24,1.679,9.317,9.317,0,0,1,2.16,2.68,7.8,7.8,0,0,1,.04,6.8,9.306,9.306,0,0,1-2.16,2.679,12.424,12.424,0,0,1-3.24,1.721,13.352,13.352,0,0,1-4.039.6A12.531,12.531,0,0,1,258.12,37.4Zm.92-13.721a7.725,7.725,0,0,0-2.48,1.32,6.157,6.157,0,0,0-1.679,2,5.337,5.337,0,0,0-.641,2.64,5.121,5.121,0,0,0,.641,2.6,5.931,5.931,0,0,0,1.679,2.04,9.321,9.321,0,0,0,2.52,1.28,10.315,10.315,0,0,0,3,.44,11.014,11.014,0,0,0,3.08-.44,8.382,8.382,0,0,0,2.52-1.32,6.289,6.289,0,0,0,1.72-2,5.52,5.52,0,0,0,.6-2.6,5.846,5.846,0,0,0-.6-2.64,6.151,6.151,0,0,0-1.68-2,8.424,8.424,0,0,0-2.52-1.32,11.145,11.145,0,0,0-3.119-.44A10.3,10.3,0,0,0,259.04,23.68ZM311.518,37.6H309.28V0h2.24V37.6Zm-74.6,0h-2.2V16.72h-5.8V36.4h-2.2V.4h2.2V14.76h5.8V0h2.2V37.6Zm-131.4,0H103.28V0h2.24V37.6Zm-79.838,0V0h2.24V14.76h6.8v1.96h-6.8V37.6Zm119-.6h-24.4V26.4h2.24V35H144.68v2h0Zm-78.961-.2H63.48V26.32H42.08V24.36H65.72V36.8h0ZM166.8,32.36V30.4h16.36V21.2h2.24v9.2h16.359v1.958H166.8Zm-90.36-2.6v-2H86V23.2a7.717,7.717,0,0,1-2.8-.68A6.1,6.1,0,0,1,81,21.04a5.731,5.731,0,0,1-1.44-2.16,6.416,6.416,0,0,1-.52-2.68,6.383,6.383,0,0,1,2.4-5.16,8.138,8.138,0,0,1,2.6-1.44,10.127,10.127,0,0,1,3.2-.481,10.489,10.489,0,0,1,3.2.481,9.628,9.628,0,0,1,2.6,1.44,7.718,7.718,0,0,1,1.76,2.2,7.11,7.11,0,0,1,.64,2.96,6.874,6.874,0,0,1-.56,2.8,6.416,6.416,0,0,1-1.52,2.12,6.643,6.643,0,0,1-2.32,1.44,8.924,8.924,0,0,1-2.88.68v4.52h.014a58.476,58.476,0,0,0,11.667-1.2,8.078,8.078,0,0,0,.16.96,4.046,4.046,0,0,0,.12,1,59.833,59.833,0,0,1-6.4.92,71.942,71.942,0,0,1-7.44.32Zm8.52-18.32a6.5,6.5,0,0,0-1.88,1,5.2,5.2,0,0,0-1.32,1.64,4.714,4.714,0,0,0-.48,2.12,4.823,4.823,0,0,0,.48,2.2A4.279,4.279,0,0,0,83.08,20a4.921,4.921,0,0,0,1.88.96,8.293,8.293,0,0,0,4.559,0A5.461,5.461,0,0,0,91.44,20a4.612,4.612,0,0,0,1.28-1.6,4.811,4.811,0,0,0,.48-2.2,4.7,4.7,0,0,0-.48-2.12,5.685,5.685,0,0,0-1.28-1.64,7.327,7.327,0,0,0-1.921-1,7.4,7.4,0,0,0-4.559,0Zm59.159,15.64H141.88V23.52H131.72V21.68H141.88V0h2.24V27.079h0ZM.16,25a25.169,25.169,0,0,0,5.8-3.04,25.446,25.446,0,0,0,4.88-4.4A24.081,24.081,0,0,0,14.32,12a19.226,19.226,0,0,0,1.56-6.48H1.48V3.56H18.36a22.778,22.778,0,0,1-1.32,7.88,24.894,24.894,0,0,1-3.6,6.6A24.618,24.618,0,0,1,8.16,23.16a26.207,26.207,0,0,1-6.321,3.4ZM207.8,26.08h0V3.56h14.48V5.52H210v18.6h.018a79.6,79.6,0,0,0,14.382-1.2,7.332,7.332,0,0,0,.16.92,3.993,3.993,0,0,0,.121,1,52.571,52.571,0,0,1-7.44.92c-2.547.219-5.547.32-9.439.32Zm-81.321-.88h-2.2V18.84h-9.8V17h10.6a63.383,63.383,0,0,0,13.12-1.28,5.706,5.706,0,0,0,.159.879,3.386,3.386,0,0,0,.121.921,60.8,60.8,0,0,1-12,1.319V25.2h0ZM288.36,23.96a8.9,8.9,0,0,1-3.24-2.24A9.115,9.115,0,0,1,283,18.36a10.98,10.98,0,0,1-.76-4.2A11.381,11.381,0,0,1,283,9.92a9.661,9.661,0,0,1,5.36-5.56,10.112,10.112,0,0,1,4.04-.8,10.55,10.55,0,0,1,4.04.8,11.191,11.191,0,0,1,3.2,2.2,12.15,12.15,0,0,1,2.16,3.36,12.19,12.19,0,0,1,.76,4.24,11.9,11.9,0,0,1-.76,4.2,11.06,11.06,0,0,1-2.16,3.36,9.731,9.731,0,0,1-7.24,3.04A9.389,9.389,0,0,1,288.36,23.96Zm.96-17.8a8.105,8.105,0,0,0-2.52,1.8,8.641,8.641,0,0,0-1.68,2.721,9.985,9.985,0,0,0-.6,3.479,9.31,9.31,0,0,0,.6,3.4,7.45,7.45,0,0,0,1.68,2.72,6.492,6.492,0,0,0,2.48,1.8,6.906,6.906,0,0,0,3.16.68,6.815,6.815,0,0,0,3.12-.68,6.987,6.987,0,0,0,2.52-1.8,8.763,8.763,0,0,0,1.64-2.72,10.212,10.212,0,0,0,.56-3.4,9.874,9.874,0,0,0-.6-3.44A9.346,9.346,0,0,0,298.04,8a9.222,9.222,0,0,0-2.48-1.84,7.925,7.925,0,0,0-6.24,0Zm-96.72,14a17.948,17.948,0,0,1-3.52-2.32,15.836,15.836,0,0,1-2.88-2.76,12.648,12.648,0,0,1-1.96-3.039,13.276,13.276,0,0,1-1.96,3.08,20.566,20.566,0,0,1-2.84,2.759,21.838,21.838,0,0,1-3.52,2.281,19.04,19.04,0,0,1-3.96,1.679h0a7.213,7.213,0,0,1-.75-.789l-.009-.01a7.546,7.546,0,0,1-.8-.8,25.058,25.058,0,0,0,4.36-1.8,16.494,16.494,0,0,0,3.92-2.76,14.963,14.963,0,0,0,2.88-3.72,11.809,11.809,0,0,0,1.36-4.72H172.04V5.279h11.08V.2h2.24v5.08h11.12V7.24H185.559a8.832,8.832,0,0,0,1,4.081A12.508,12.508,0,0,0,189.28,15a18.09,18.09,0,0,0,3.96,3.081,20.55,20.55,0,0,0,4.88,2.16c-.147.148-.283.294-.414.436s-.231.251-.346.365c-.145.145-.279.29-.409.429s-.236.255-.351.37A18.318,18.318,0,0,1,192.6,20.16Zm79.718.28h-2.239V0h2.24V8.96h6.4V10.92h-6.4v9.519h0ZM36.48,20.28v-1.96h16.68V13.36H55.4v4.96H72.08v1.959H36.48ZM245,19.36a7.631,7.631,0,0,1-.8-.8c-.259-.222-.553-.473-.8-.72a17.784,17.784,0,0,0,3.52-2.24A19.461,19.461,0,0,0,250,12.64a15.041,15.041,0,0,0,2.16-3.36A9.208,9.208,0,0,0,253,5.84V3.72h-8.08V1.76h18.64V3.72h-8.12V5.76a7.925,7.925,0,0,0,.959,3.56,12.173,12.173,0,0,0,2.2,3.16,15.96,15.96,0,0,0,3.04,2.6,18.564,18.564,0,0,0,3.44,1.959c-.287.247-.565.486-.8.72l-.283.283-.518.517a16.088,16.088,0,0,1-2.92-1.64,16.34,16.34,0,0,1-2.6-2.04,13.1,13.1,0,0,1-2.12-2.36,12.762,12.762,0,0,1-1.56-2.64,17.118,17.118,0,0,1-3.72,5.48,20.567,20.567,0,0,1-5.559,4ZM122.2,13.92a6.875,6.875,0,0,1-2.561-1.4,5.358,5.358,0,0,1-1.72-2.16,6.074,6.074,0,0,1-.64-2.88,6.3,6.3,0,0,1,.64-2.88,6.852,6.852,0,0,1,1.68-2.2,7.981,7.981,0,0,1,2.6-1.36A10.252,10.252,0,0,1,125.44.56a11.009,11.009,0,0,1,3.24.481,8.656,8.656,0,0,1,2.56,1.36,6.919,6.919,0,0,1,1.72,2.16,7.1,7.1,0,0,1,.6,2.92,6.639,6.639,0,0,1-.6,2.88,6.127,6.127,0,0,1-1.72,2.16,7.753,7.753,0,0,1-2.6,1.4,10.492,10.492,0,0,1-3.2.48A10.261,10.261,0,0,1,122.2,13.92Zm.88-11.12a6.228,6.228,0,0,0-1.921,1,4.725,4.725,0,0,0-1.24,1.6,4.625,4.625,0,0,0-.439,2.08,4.445,4.445,0,0,0,1.679,3.641,6.221,6.221,0,0,0,4.32,1.4,6.379,6.379,0,0,0,4.28-1.4A4.464,4.464,0,0,0,131.4,7.48a5.23,5.23,0,0,0-.44-2.08,6.719,6.719,0,0,0-1.2-1.6,6.968,6.968,0,0,0-1.88-1,7.967,7.967,0,0,0-2.4-.36A7.592,7.592,0,0,0,123.08,2.8ZM62.48,12.96a20.736,20.736,0,0,1-3.52-1.8A14.016,14.016,0,0,1,56.16,9a8.376,8.376,0,0,1-1.921-2.28A9.8,9.8,0,0,1,52.359,9a17.107,17.107,0,0,1-2.84,2.16,23.924,23.924,0,0,1-3.48,1.8,22.755,22.755,0,0,1-3.96,1.28h0a6.949,6.949,0,0,1-.759-.76c-.247-.247-.5-.541-.72-.8A24.591,24.591,0,0,0,45,11.24a18.342,18.342,0,0,0,3.92-2.12,11.831,11.831,0,0,0,2.8-2.68A5.109,5.109,0,0,0,52.8,3.32H42.24V1.36H66.28V3.32h-10.6a5.117,5.117,0,0,0,1.08,3.119A10.777,10.777,0,0,0,59.6,9.12a15.847,15.847,0,0,0,3.92,2.12,22.145,22.145,0,0,0,4.36,1.44l-.018.022c-.229.267-.467.545-.7.779a7,7,0,0,1-.512.52c-.086.083-.168.16-.248.239A21.3,21.3,0,0,1,62.48,12.96ZM97.159,6.84H77.04v-2h9.08V.36h2.239V4.84h8.8v2h0Z" transform="translate(-1217.78 5261.88)" fill="url(#linear-gradient)"/>
  </g>
</svg>
