<svg id="Easy_Equity_E_ROUM_M" data-name="Easy Equity E∙ROUM M" xmlns="http://www.w3.org/2000/svg" xmlns:xlink="http://www.w3.org/1999/xlink" width="793.355" height="57.783" viewBox="0 0 793.355 57.783">
  <defs>
    <linearGradient id="linear-gradient" x1="0.035" y1="0.145" x2="0.966" y2="0.906" gradientUnits="objectBoundingBox">
      <stop offset="0.001" stop-color="#1584b9"/>
      <stop offset="0.292" stop-color="#770dac"/>
      <stop offset="0.545" stop-color="#b80d0d"/>
      <stop offset="0.766" stop-color="#e5a20a"/>
      <stop offset="1" stop-color="#43a800"/>
    </linearGradient>
  </defs>
  <g id="Path_7" data-name="Path 7" opacity="0.1">
    <path id="Path_7-2" data-name="Path 7" d="M273.959,57.193V50.1h1.3a6.781,6.781,0,0,0,3.2-.6,3.661,3.661,0,0,0,1.634-2.165l.8-2.12L269.807,13.046h10.6l5.036,17.966,5.3-17.966h10.632l-12.988,37.2-.559,1.354q-2.769,6.184-9.778,6.185A15.478,15.478,0,0,1,273.959,57.193Zm-178.952,0V50.1h1.3a6.781,6.781,0,0,0,3.195-.6,3.666,3.666,0,0,0,1.635-2.165l.795-2.12L90.855,13.046h10.6l5.036,17.966,5.3-17.966h10.632l-12.988,37.2-.559,1.354q-2.769,6.184-9.778,6.185A15.479,15.479,0,0,1,95.008,57.193Zm104.047-.029H189.1v-14.9a9.278,9.278,0,0,1-7.245,3.239,11.516,11.516,0,0,1-5.077-1.093,11,11,0,0,1-3.92-3.28c-2.219-2.9-3.343-7.1-3.343-12.472,0-5.042,1.11-9.045,3.3-11.9a10.7,10.7,0,0,1,3.924-3.225,12.025,12.025,0,0,1,5.176-1.076,9.575,9.575,0,0,1,4.4,1,9.854,9.854,0,0,1,3.432,3l.706-3.416h8.6V57.164Zm-18.162-35.2a11.026,11.026,0,0,0-1.421,5.545l-.029,1.767A13.227,13.227,0,0,0,180.68,35.7a4.036,4.036,0,0,0,3.711,2.143,4.811,4.811,0,0,0,4.712-2.591V22.648c-.821-1.68-2.386-2.533-4.653-2.533A4.051,4.051,0,0,0,180.893,21.963ZM455.949,41.438q-4.506-4.065-4.594-11.133V2.032h10.4V30.511q.177,7.039,6.539,7.039a6.327,6.327,0,0,0,4.859-1.767q1.65-1.767,1.65-5.743V2.032h10.337V30.1A16.133,16.133,0,0,1,483.1,38.36a13.162,13.162,0,0,1-5.832,5.315,20.536,20.536,0,0,1-8.982,1.826Q460.455,45.5,455.949,41.438Zm-37.383,1.545a17.236,17.236,0,0,1-6.611-7.2,24.671,24.671,0,0,1-2.488-10.75V22.618A25.507,25.507,0,0,1,411.778,11.5,17.229,17.229,0,0,1,418.4,4.063a18.632,18.632,0,0,1,9.823-2.621,18.437,18.437,0,0,1,9.718,2.592,17.537,17.537,0,0,1,6.641,7.377,24.763,24.763,0,0,1,2.4,10.97v1.974a25.391,25.391,0,0,1-2.326,11.1,17.269,17.269,0,0,1-6.611,7.437,18.488,18.488,0,0,1-9.763,2.606A18.757,18.757,0,0,1,418.566,42.983Zm3.719-30.525c-1.363,1.934-2.129,4.877-2.275,8.746l-.03,3.152c0,4.181.7,7.442,2.092,9.689a6.864,6.864,0,0,0,6.214,3.387,6.782,6.782,0,0,0,6.037-3.328c1.407-2.208,2.13-5.428,2.15-9.572V22.559c0-4.241-.718-7.506-2.135-9.7a7.4,7.4,0,0,0-12.053-.4ZM256.9,43.087q-2.445-2.415-2.444-7.333V19.939h-4.064V13.046h4.064V5.125h9.924v7.922h5.242v6.892h-5.242V34.517a3.722,3.722,0,0,0,.648,2.5,3.474,3.474,0,0,0,2.562.707,14.556,14.556,0,0,0,2.474-.176v7.1a18.307,18.307,0,0,1-5.6.854Q259.342,45.5,256.9,43.087Zm-50.512-.634q-2.7-3.047-2.7-8.762V13.046h9.925v20.7q0,4.093,3.976,4.093A5.186,5.186,0,0,0,222.45,35.4V13.046h9.984V44.913h-9.306l-.3-3.446a10.231,10.231,0,0,1-8.511,4.035Q209.079,45.5,206.385,42.453ZM68.728,44.029a12.222,12.222,0,0,1-5.007-4.005,9.075,9.075,0,0,1-1.8-5.331H71.2a3.837,3.837,0,0,0,1.472,3.225A6.055,6.055,0,0,0,76.3,38.934a4.764,4.764,0,0,0,3.048-.824,2.637,2.637,0,0,0,1.016-2.15,2.293,2.293,0,0,0-1.325-2.032A20.178,20.178,0,0,0,74,32.337a22.96,22.96,0,0,1-6.126-2.165,10.269,10.269,0,0,1-3.681-3.254,7.771,7.771,0,0,1-1.266-4.388,8.808,8.808,0,0,1,3.622-7.23,14.922,14.922,0,0,1,9.483-2.842q6.3,0,10.131,2.857a8.934,8.934,0,0,1,3.829,7.51H80.037Q80.037,19,76,19a4,4,0,0,0-2.621.869,2.687,2.687,0,0,0-1.06,2.164,2.47,2.47,0,0,0,1.3,2.15,12.252,12.252,0,0,0,4.138,1.354A35.875,35.875,0,0,1,82.747,26.8q7.186,2.475,7.186,8.865a8.345,8.345,0,0,1-3.873,7.1A16.983,16.983,0,0,1,76.032,45.5,17.329,17.329,0,0,1,68.728,44.029ZM34.172,42.778a8.71,8.71,0,0,1-3.151-6.848,10.288,10.288,0,0,1,.958-4.55A8.537,8.537,0,0,1,34.85,28.1c2.541-1.759,6.286-2.651,11.132-2.651h3.064V23.767c0-2.912-1.278-4.388-3.8-4.388-2.345,0-3.533,1.169-3.533,3.475H31.787a8.938,8.938,0,0,1,.983-4.19,9.8,9.8,0,0,1,2.948-3.32,16.588,16.588,0,0,1,10.029-2.886c4.045,0,7.285,1,9.63,2.975A10.383,10.383,0,0,1,59,23.59V37.7a14.524,14.524,0,0,0,1.354,6.715v.5H50.43a11.288,11.288,0,0,1-.943-2.857A9.268,9.268,0,0,1,41.829,45.5,11.362,11.362,0,0,1,34.172,42.778Zm8.1-10.868a4.471,4.471,0,0,0-1.3,3.489,2.854,2.854,0,0,0,.914,2.194,3.318,3.318,0,0,0,2.326.84,5.569,5.569,0,0,0,3.078-.8,5.015,5.015,0,0,0,1.752-1.8V30.747H46.159A5.687,5.687,0,0,0,42.271,31.91Zm617.937,13H649.872V2.032h16.875c5.062,0,9.075,1.139,11.928,3.387A10.824,10.824,0,0,1,681.9,9.5a13.317,13.317,0,0,1,1.076,5.486,14.013,14.013,0,0,1-1.812,7.421,12.919,12.919,0,0,1-5.669,4.772l8.953,17.287v.441H673.374L665.8,29.775h-5.6V44.913h0Zm0-23.12h6.538a5.9,5.9,0,0,0,4.432-1.546,6,6,0,0,0,1.488-4.315,6.067,6.067,0,0,0-1.5-4.343,5.851,5.851,0,0,0-4.418-1.576h-6.538ZM606.275,44.913,622,2.032h9.719l15.844,42.879-11.1,0-2.5-8.011H619.793l-2.474,8.011H606.275Zm15.992-15.992h9.218l-4.623-14.873ZM382.478,44.914H372.142V2.032h16.875c5.062,0,9.075,1.139,11.928,3.387A10.815,10.815,0,0,1,404.169,9.5a13.317,13.317,0,0,1,1.076,5.486,14,14,0,0,1-1.812,7.421,12.914,12.914,0,0,1-5.669,4.772l8.953,17.287v.441H395.644l-7.569-15.138h-5.6V44.913h0Zm0-23.12h6.538a5.9,5.9,0,0,0,4.432-1.546,5.993,5.993,0,0,0,1.488-4.315,6.063,6.063,0,0,0-1.5-4.343,5.849,5.849,0,0,0-4.418-1.576h-6.538ZM770.148,44.913v-34.9H757.514V2.032h35.842v7.981h-12.87v34.9Zm-43.979,0V2.032h29.6v7.981H736.506v9.041h16.257v7.687H736.506V36.961h19.2v7.951Zm-14.058,0-9.13-15.962L698.74,33.6V44.913H688.4V2.032H698.74V20.939l3.593-5.449,9.247-13.459h12.782L709.872,21l14.49,23.914Zm-119.157,0V34.9l1-20.5L583.588,44.913h-6.833l-10.4-30.541,1,20.527V44.913H557.023V2.032H570.6l9.571,29.833,9.543-29.833H603.32V44.913Zm-66.254,0V34.9l1-20.5L517.334,44.913H510.5L500.1,14.372l1,20.527V44.913H490.769V2.032h13.577l9.572,29.833L523.46,2.032h13.606V44.913Zm-208.9,0V2.032h29.6v7.981H328.138v9.041h16.257v7.687H328.138V36.961h19.2v7.951Zm-70.279,0h-9.954V13.046h9.955V44.912h0Zm-108.672,0V2.032h29.6v7.981H149.187v9.041h16.257v7.687H149.187V36.961h19.2v7.951ZM0,44.913V2.032H29.6v7.981H10.337v9.041H26.594v7.687H10.337V36.961h19.2v7.951ZM353.9,27.84V18.416h9.454V27.84ZM238.511,8.305a4.449,4.449,0,0,1-1.532-3.475,4.45,4.45,0,0,1,1.532-3.476,6.512,6.512,0,0,1,7.952,0,4.451,4.451,0,0,1,1.531,3.476,4.449,4.449,0,0,1-1.531,3.475,6.512,6.512,0,0,1-7.952,0Z" fill="none"/>
    <path id="Path_7-3" data-name="Path 7" d="M273.959,57.193V50.1h1.3a6.781,6.781,0,0,0,3.2-.6,3.661,3.661,0,0,0,1.634-2.165l.8-2.12L269.807,13.046h10.6l5.036,17.966,5.3-17.966h10.632l-12.988,37.2-.559,1.354q-2.769,6.184-9.778,6.185A15.478,15.478,0,0,1,273.959,57.193Zm-178.952,0V50.1h1.3a6.781,6.781,0,0,0,3.195-.6,3.666,3.666,0,0,0,1.635-2.165l.795-2.12L90.855,13.046h10.6l5.036,17.966,5.3-17.966h10.632l-12.988,37.2-.559,1.354q-2.769,6.184-9.778,6.185A15.479,15.479,0,0,1,95.008,57.193Zm104.047-.029H189.1v-14.9a9.278,9.278,0,0,1-7.245,3.239,11.516,11.516,0,0,1-5.077-1.093,11,11,0,0,1-3.92-3.28c-2.219-2.9-3.343-7.1-3.343-12.472,0-5.042,1.11-9.045,3.3-11.9a10.7,10.7,0,0,1,3.924-3.225,12.025,12.025,0,0,1,5.176-1.076,9.575,9.575,0,0,1,4.4,1,9.854,9.854,0,0,1,3.432,3l.706-3.416h8.6V57.164Zm-18.162-35.2a11.026,11.026,0,0,0-1.421,5.545l-.029,1.767A13.227,13.227,0,0,0,180.68,35.7a4.036,4.036,0,0,0,3.711,2.143,4.811,4.811,0,0,0,4.712-2.591V22.648c-.821-1.68-2.386-2.533-4.653-2.533A4.051,4.051,0,0,0,180.893,21.963ZM455.949,41.438q-4.506-4.065-4.594-11.133V2.032h10.4V30.511q.177,7.039,6.539,7.039a6.327,6.327,0,0,0,4.859-1.767q1.65-1.767,1.65-5.743V2.032h10.337V30.1A16.133,16.133,0,0,1,483.1,38.36a13.162,13.162,0,0,1-5.832,5.315,20.536,20.536,0,0,1-8.982,1.826Q460.455,45.5,455.949,41.438Zm-37.383,1.545a17.236,17.236,0,0,1-6.611-7.2,24.671,24.671,0,0,1-2.488-10.75V22.618A25.507,25.507,0,0,1,411.778,11.5,17.229,17.229,0,0,1,418.4,4.063a18.632,18.632,0,0,1,9.823-2.621,18.437,18.437,0,0,1,9.718,2.592,17.537,17.537,0,0,1,6.641,7.377,24.763,24.763,0,0,1,2.4,10.97v1.974a25.391,25.391,0,0,1-2.326,11.1,17.269,17.269,0,0,1-6.611,7.437,18.488,18.488,0,0,1-9.763,2.606A18.757,18.757,0,0,1,418.566,42.983Zm3.719-30.525c-1.363,1.934-2.129,4.877-2.275,8.746l-.03,3.152c0,4.181.7,7.442,2.092,9.689a6.864,6.864,0,0,0,6.214,3.387,6.782,6.782,0,0,0,6.037-3.328c1.407-2.208,2.13-5.428,2.15-9.572V22.559c0-4.241-.718-7.506-2.135-9.7a7.4,7.4,0,0,0-12.053-.4ZM256.9,43.087q-2.445-2.415-2.444-7.333V19.939h-4.064V13.046h4.064V5.125h9.924v7.922h5.242v6.892h-5.242V34.517a3.722,3.722,0,0,0,.648,2.5,3.474,3.474,0,0,0,2.562.707,14.556,14.556,0,0,0,2.474-.176v7.1a18.307,18.307,0,0,1-5.6.854Q259.342,45.5,256.9,43.087Zm-50.512-.634q-2.7-3.047-2.7-8.762V13.046h9.925v20.7q0,4.093,3.976,4.093A5.186,5.186,0,0,0,222.45,35.4V13.046h9.984V44.913h-9.306l-.3-3.446a10.231,10.231,0,0,1-8.511,4.035Q209.079,45.5,206.385,42.453ZM68.728,44.029a12.222,12.222,0,0,1-5.007-4.005,9.075,9.075,0,0,1-1.8-5.331H71.2a3.837,3.837,0,0,0,1.472,3.225A6.055,6.055,0,0,0,76.3,38.934a4.764,4.764,0,0,0,3.048-.824,2.637,2.637,0,0,0,1.016-2.15,2.293,2.293,0,0,0-1.325-2.032A20.178,20.178,0,0,0,74,32.337a22.96,22.96,0,0,1-6.126-2.165,10.269,10.269,0,0,1-3.681-3.254,7.771,7.771,0,0,1-1.266-4.388,8.808,8.808,0,0,1,3.622-7.23,14.922,14.922,0,0,1,9.483-2.842q6.3,0,10.131,2.857a8.934,8.934,0,0,1,3.829,7.51H80.037Q80.037,19,76,19a4,4,0,0,0-2.621.869,2.687,2.687,0,0,0-1.06,2.164,2.47,2.47,0,0,0,1.3,2.15,12.252,12.252,0,0,0,4.138,1.354A35.875,35.875,0,0,1,82.747,26.8q7.186,2.475,7.186,8.865a8.345,8.345,0,0,1-3.873,7.1A16.983,16.983,0,0,1,76.032,45.5,17.329,17.329,0,0,1,68.728,44.029ZM34.172,42.778a8.71,8.71,0,0,1-3.151-6.848,10.288,10.288,0,0,1,.958-4.55A8.537,8.537,0,0,1,34.85,28.1c2.541-1.759,6.286-2.651,11.132-2.651h3.064V23.767c0-2.912-1.278-4.388-3.8-4.388-2.345,0-3.533,1.169-3.533,3.475H31.787a8.938,8.938,0,0,1,.983-4.19,9.8,9.8,0,0,1,2.948-3.32,16.588,16.588,0,0,1,10.029-2.886c4.045,0,7.285,1,9.63,2.975A10.383,10.383,0,0,1,59,23.59V37.7a14.524,14.524,0,0,0,1.354,6.715v.5H50.43a11.288,11.288,0,0,1-.943-2.857A9.268,9.268,0,0,1,41.829,45.5,11.362,11.362,0,0,1,34.172,42.778Zm8.1-10.868a4.471,4.471,0,0,0-1.3,3.489,2.854,2.854,0,0,0,.914,2.194,3.318,3.318,0,0,0,2.326.84,5.569,5.569,0,0,0,3.078-.8,5.015,5.015,0,0,0,1.752-1.8V30.747H46.159A5.687,5.687,0,0,0,42.271,31.91Zm617.937,13H649.872V2.032h16.875c5.062,0,9.075,1.139,11.928,3.387A10.824,10.824,0,0,1,681.9,9.5a13.317,13.317,0,0,1,1.076,5.486,14.013,14.013,0,0,1-1.812,7.421,12.919,12.919,0,0,1-5.669,4.772l8.953,17.287v.441H673.374L665.8,29.775h-5.6V44.913h0Zm0-23.12h6.538a5.9,5.9,0,0,0,4.432-1.546,6,6,0,0,0,1.488-4.315,6.067,6.067,0,0,0-1.5-4.343,5.851,5.851,0,0,0-4.418-1.576h-6.538ZM606.275,44.913,622,2.032h9.719l15.844,42.879-11.1,0-2.5-8.011H619.793l-2.474,8.011H606.275Zm15.992-15.992h9.218l-4.623-14.873ZM382.478,44.914H372.142V2.032h16.875c5.062,0,9.075,1.139,11.928,3.387A10.815,10.815,0,0,1,404.169,9.5a13.317,13.317,0,0,1,1.076,5.486,14,14,0,0,1-1.812,7.421,12.914,12.914,0,0,1-5.669,4.772l8.953,17.287v.441H395.644l-7.569-15.138h-5.6V44.913h0Zm0-23.12h6.538a5.9,5.9,0,0,0,4.432-1.546,5.993,5.993,0,0,0,1.488-4.315,6.063,6.063,0,0,0-1.5-4.343,5.849,5.849,0,0,0-4.418-1.576h-6.538ZM770.148,44.913v-34.9H757.514V2.032h35.842v7.981h-12.87v34.9Zm-43.979,0V2.032h29.6v7.981H736.506v9.041h16.257v7.687H736.506V36.961h19.2v7.951Zm-14.058,0-9.13-15.962L698.74,33.6V44.913H688.4V2.032H698.74V20.939l3.593-5.449,9.247-13.459h12.782L709.872,21l14.49,23.914Zm-119.157,0V34.9l1-20.5L583.588,44.913h-6.833l-10.4-30.541,1,20.527V44.913H557.023V2.032H570.6l9.571,29.833,9.543-29.833H603.32V44.913Zm-66.254,0V34.9l1-20.5L517.334,44.913H510.5L500.1,14.372l1,20.527V44.913H490.769V2.032h13.577l9.572,29.833L523.46,2.032h13.606V44.913Zm-208.9,0V2.032h29.6v7.981H328.138v9.041h16.257v7.687H328.138V36.961h19.2v7.951Zm-70.279,0h-9.954V13.046h9.955V44.912h0Zm-108.672,0V2.032h29.6v7.981H149.187v9.041h16.257v7.687H149.187V36.961h19.2v7.951ZM0,44.913V2.032H29.6v7.981H10.337v9.041H26.594v7.687H10.337V36.961h19.2v7.951ZM353.9,27.84V18.416h9.454V27.84ZM238.511,8.305a4.449,4.449,0,0,1-1.532-3.475,4.45,4.45,0,0,1,1.532-3.476,6.512,6.512,0,0,1,7.952,0,4.451,4.451,0,0,1,1.531,3.476,4.449,4.449,0,0,1-1.531,3.475,6.512,6.512,0,0,1-7.952,0Z" fill="url(#linear-gradient)"/>
  </g>
</svg>
