<svg id="결제가_정상적으로_완료되었습니다" data-name="결제가 정상적으로 완료되었습니다" xmlns="http://www.w3.org/2000/svg" xmlns:xlink="http://www.w3.org/1999/xlink" width="304.6" height="82.6" viewBox="0 0 304.6 82.6">
  <defs>
    <linearGradient id="linear-gradient" y1="0.159" x2="1" y2="1" gradientUnits="objectBoundingBox">
      <stop offset="0" stop-color="#2c39b4"/>
      <stop offset="0.462" stop-color="#dc23aa"/>
      <stop offset="1" stop-color="red"/>
    </linearGradient>
  </defs>
  <g id="Shape">
    <path id="Shape-2" data-name="Shape" d="M280.349,82.6H278.11V45h2.24V59.72h6.8V61.68h-6.8V82.6h0Zm-35.151,0H242.96V45h2.24V82.6Zm-110.25,0H132.71V45h2.24V82.6Zm25.39-.8c-.677-.481-1.327-1.049-1.957-1.6A21.1,21.1,0,0,1,156.5,78.32a15.3,15.3,0,0,1-1.56-2.119,8.755,8.755,0,0,1-1.12-2.2,20.016,20.016,0,0,1-2.641,4.52,16.2,16.2,0,0,1-3.6,3.281c-.1-.086-.2-.168-.3-.246l-.016-.014a6.363,6.363,0,0,1-.485-.421l-.112-.1c-.213-.183-.462-.4-.688-.584a19.343,19.343,0,0,0,2.52-1.96,14.53,14.53,0,0,0,2.08-2.52,18.7,18.7,0,0,0,1.44-3.12,13.74,13.74,0,0,0,.64-3.52V67.36h2.2v1.96a9.088,9.088,0,0,0,.44,3A10.141,10.141,0,0,0,156.5,75a9.993,9.993,0,0,0,1.721,2.32,14.475,14.475,0,0,0,2.16,1.96c.633-.513,1.3-1.1,2.039-1.76a13.668,13.668,0,0,0,1.8-2.319,16.8,16.8,0,0,0,1.28-2.84,11.365,11.365,0,0,0,.481-3.4v-1.6h2.2v1.96a10.049,10.049,0,0,0,.56,3.52,12.611,12.611,0,0,0,1.52,3.12,11.882,11.882,0,0,0,2.12,2.52,19.217,19.217,0,0,0,2.48,1.96,6.557,6.557,0,0,0-.8.68c-.085.074-.172.144-.257.212l-.037.03a6.014,6.014,0,0,0-.506.437,14.621,14.621,0,0,1-3.6-3.28A17.5,17.5,0,0,1,167.019,74a11.634,11.634,0,0,1-1.08,2.12,22.7,22.7,0,0,1-1.6,2.24c-.577.648-1.2,1.283-1.96,2a10.859,10.859,0,0,1-2.04,1.4V81.8Zm46.632,0h-23.6V68.36h2.24V72.6h19.08V68.36h2.28V81.8h0ZM185.611,79.88h19.08V74.52h-19.08ZM60.769,81.6H37.57V70.52h3.48v7.96H60.77V81.6h0Zm41.63-3.88H67.44V74.6H77.52V68.04h-4.6V56.48H93.4V51.12H72.92V48.2h24V59.4H76.4v5.76H97.52v2.88h-5.2V74.6H102.4v3.118l0,0ZM80.92,74.6h8V68.04h-8Zm24.95-.6V72.04h9.48V63.88h-7.28V48.52H124.83v2H110.309v11.4H125.55v1.96h-8V72.04h.031a46.561,46.561,0,0,0,5.769-.319c1.8-.187,3.719-.488,5.881-.92l.28,1.92a51.247,51.247,0,0,1-6.4.96,72.322,72.322,0,0,1-7.44.319Zm-45.5-3h-3.52V45H60.37V55.32h6V58.4h-6V71h0Zm193.781-.08h0V48.52h17v2H256.39V68.96h.049c3.42,0,6.213-.1,8.79-.319,2.817-.2,5.59-.525,8.24-.96l.28,1.92a123.985,123.985,0,0,1-19.6,1.32Zm-35.55-.4h0V48.12h2.24V68.56h.049c3.475,0,6.415-.1,8.991-.32,2.843-.2,5.615-.523,8.24-.959l.28,1.92a124.131,124.131,0,0,1-19.8,1.32ZM31.97,67.44v-3h8.88v-3.2a7.47,7.47,0,0,1-2.76-.84,6.624,6.624,0,0,1-2.12-1.6,5.891,5.891,0,0,1-1.4-2.24,6.985,6.985,0,0,1-.52-2.8,7.648,7.648,0,0,1,.64-3.24,6.357,6.357,0,0,1,1.8-2.44,8.7,8.7,0,0,1,2.68-1.56A10.845,10.845,0,0,1,42.49,46a11.375,11.375,0,0,1,3.36.52,10.422,10.422,0,0,1,2.68,1.56,7.755,7.755,0,0,1,1.76,2.44,8.382,8.382,0,0,1,.64,3.24,7.736,7.736,0,0,1-.52,2.8,8.076,8.076,0,0,1-1.4,2.281,7.56,7.56,0,0,1-2.16,1.6,6.91,6.91,0,0,1-2.679.8v3.2h.011A46.8,46.8,0,0,0,54.689,63.16c.041.529.082,1.005.16,1.48.045.575.083,1.018.16,1.48A59.96,59.96,0,0,1,41.77,67.44Zm8.6-18.32a4.968,4.968,0,0,0-1.641.92,4.327,4.327,0,0,0-1.12,1.56,4.59,4.59,0,0,0-.44,2.12,4.245,4.245,0,0,0,.44,2.119,3.6,3.6,0,0,0,1.12,1.52,3.83,3.83,0,0,0,1.641.88,5.159,5.159,0,0,0,1.959.32,5.621,5.621,0,0,0,2-.32,5.143,5.143,0,0,0,1.64-.92,4.319,4.319,0,0,0,1.08-1.52,5.281,5.281,0,0,0,.4-2.08,5.854,5.854,0,0,0-.4-2.08,5.45,5.45,0,0,0-1.08-1.561,6.091,6.091,0,0,0-1.64-.959,6.746,6.746,0,0,0-2-.32A6.085,6.085,0,0,0,40.57,49.12ZM170.02,55.6h-8.24a8.006,8.006,0,0,1-.88,3.2,7.872,7.872,0,0,1-1.959,2.44,7.312,7.312,0,0,1-2.76,1.561,9.1,9.1,0,0,1-3.32.56,10.2,10.2,0,0,1-3.56-.6,7.862,7.862,0,0,1-2.84-1.72,7.023,7.023,0,0,1-1.92-2.72,8.278,8.278,0,0,1-.68-3.52,8.523,8.523,0,0,1,.68-3.52,7.475,7.475,0,0,1,1.92-2.68,8.434,8.434,0,0,1,2.84-1.72,10.2,10.2,0,0,1,3.56-.6,11.125,11.125,0,0,1,3.28.52,9.469,9.469,0,0,1,2.721,1.48,8.989,8.989,0,0,1,1.92,2.32,9.329,9.329,0,0,1,.96,3.04h8.28V45h2.24V65h-2.24ZM150.26,48.72a6.592,6.592,0,0,0-2.16,1.32,5.3,5.3,0,0,0-1.44,2.04,6.221,6.221,0,0,0-.56,2.72,6.44,6.44,0,0,0,.52,2.72,5.294,5.294,0,0,0,1.44,2.04,4.957,4.957,0,0,0,2.16,1.319,7.3,7.3,0,0,0,2.679.481,7.4,7.4,0,0,0,2.68-.481,5.936,5.936,0,0,0,2.12-1.319,6.563,6.563,0,0,0,1.4-2.08,7.06,7.06,0,0,0,.481-2.68,7.3,7.3,0,0,0-.52-2.68,7.56,7.56,0,0,0-1.4-2.08,7.227,7.227,0,0,0-2.119-1.32,8.37,8.37,0,0,0-2.641-.44A8,8,0,0,0,150.26,48.72Zm27.111,16.04V62.8h35.6v1.958h-35.6Zm22.48-8.879a10.593,10.593,0,0,1-4.68-4.441,11.327,11.327,0,0,1-4.68,4.4,26.59,26.59,0,0,1-8.28,2.76h0l-.014-.014-.029-.029c-.221-.222-.451-.454-.676-.717a7.318,7.318,0,0,1-.76-.8,26.273,26.273,0,0,0,5.56-1.4,17.686,17.686,0,0,0,4.16-2.16,9.956,9.956,0,0,0,2.641-2.72,5.949,5.949,0,0,0,.879-3v-2.2h2.361v2.2a5.384,5.384,0,0,0,.92,3.04,8.922,8.922,0,0,0,2.64,2.72,14.389,14.389,0,0,0,4.16,2.12,25.228,25.228,0,0,0,5.521,1.4l-.04.049-.011.014c-.221.253-.447.515-.669.736l-.187.187-.335.335-.238.239A24.958,24.958,0,0,1,199.85,55.88ZM174.71,37.4a9.73,9.73,0,0,1-3.2-1.68A8.343,8.343,0,0,1,169.35,33a7.251,7.251,0,0,1-.8-3.52,7.641,7.641,0,0,1,.8-3.6,7.8,7.8,0,0,1,2.2-2.68,9.734,9.734,0,0,1,3.2-1.72,13.642,13.642,0,0,1,3.919-.561,13.258,13.258,0,0,1,3.96.6,11.356,11.356,0,0,1,3.24,1.68,9.081,9.081,0,0,1,2.2,2.72,8.147,8.147,0,0,1,.8,3.56,7.712,7.712,0,0,1-.8,3.479,9.558,9.558,0,0,1-2.16,2.72,11.443,11.443,0,0,1-3.24,1.721,13.232,13.232,0,0,1-4,.6A12.534,12.534,0,0,1,174.71,37.4Zm1.4-13.04a6.214,6.214,0,0,0-2.12,1.12,4.907,4.907,0,0,0-1.44,1.72,4.982,4.982,0,0,0-.52,2.281,4.113,4.113,0,0,0,.561,2.239,4.552,4.552,0,0,0,1.44,1.721,7.044,7.044,0,0,0,2.12,1.08,8.8,8.8,0,0,0,2.52.36,9.5,9.5,0,0,0,2.6-.36,8.927,8.927,0,0,0,2.12-1.08,5.425,5.425,0,0,0,1.44-1.721,5.04,5.04,0,0,0,.519-2.239,5.239,5.239,0,0,0-.519-2.24,6.446,6.446,0,0,0-1.4-1.72A7.617,7.617,0,0,0,181.31,24.4a9.525,9.525,0,0,0-2.641-.4A8.776,8.776,0,0,0,176.11,24.36ZM139.36,37.4a9.748,9.748,0,0,1-3.2-1.68A8.357,8.357,0,0,1,134,33a7.261,7.261,0,0,1-.8-3.52,7.651,7.651,0,0,1,.8-3.6,7.821,7.821,0,0,1,2.2-2.68,9.734,9.734,0,0,1,3.2-1.72,13.642,13.642,0,0,1,3.92-.561,13.258,13.258,0,0,1,3.96.6,11.356,11.356,0,0,1,3.24,1.68,9.054,9.054,0,0,1,2.2,2.72,8.136,8.136,0,0,1,.8,3.56,7.7,7.7,0,0,1-.8,3.479,9.528,9.528,0,0,1-2.16,2.72,11.443,11.443,0,0,1-3.24,1.721,13.224,13.224,0,0,1-4,.6A12.534,12.534,0,0,1,139.36,37.4Zm1.4-13.04a6.231,6.231,0,0,0-2.12,1.12,4.907,4.907,0,0,0-1.44,1.72,4.985,4.985,0,0,0-.519,2.281,4.109,4.109,0,0,0,.56,2.239,4.552,4.552,0,0,0,1.44,1.721,7.044,7.044,0,0,0,2.12,1.08,8.8,8.8,0,0,0,2.52.36,9.5,9.5,0,0,0,2.6-.36,8.927,8.927,0,0,0,2.12-1.08,5.419,5.419,0,0,0,1.44-1.721A5.037,5.037,0,0,0,150,29.48a5.236,5.236,0,0,0-.52-2.24,6.421,6.421,0,0,0-1.4-1.72A7.606,7.606,0,0,0,145.96,24.4a9.525,9.525,0,0,0-2.641-.4A8.776,8.776,0,0,0,140.76,24.36Zm-40.5,13.24H98.021V0h2.239V14.76h6.8v1.96h-6.8V37.6h0Zm-33.75,0H64.35V0h2.16V37.6Zm161.111-.8H224.1V26.12H204.62V23h23V36.8h0Zm-197.9,0H6.24V27.76H26.72V23.24H6.24V21.32H28.96v8.36H8.48v5.2H29.72V36.8h0Zm29.509-.4h-2.2v-22H50.91V12.44h6.12V.8h2.2V36.4ZM269.64,32.72V29.6h15.72V23.04H275.12V11.48H295.6V6.12H275.12V3.2h24V14.4H278.6v5.76H299.72v2.88H288.88V29.6H304.6v3.12Zm-36.75,0V29.6h34.96v3.119H232.89ZM36.389,27.8a6.871,6.871,0,0,1-.759-.76,7.132,7.132,0,0,1-.8-.76,24.908,24.908,0,0,0,7.32-10.72,30.889,30.889,0,0,0,.8-3.32c.16-1.081.242-2.219.32-3.32,0-.525.009-1.051.019-1.608.01-.58.021-1.176.021-1.792H36.15V3.56h16.6V5.52h-7.2V9.16a17.536,17.536,0,0,0,.72,5.04,19.88,19.88,0,0,0,1.84,4.68,22.011,22.011,0,0,0,2.72,4.08,20.931,20.931,0,0,0,3.2,3.281c-.285.244-.562.482-.8.72l-.8.8A16.529,16.529,0,0,1,49.99,25.4a19.861,19.861,0,0,1-2.319-3,23.088,23.088,0,0,1-1.921-3.36,15.406,15.406,0,0,1-1.319-3.56,26.561,26.561,0,0,1-1.44,3.64,33.844,33.844,0,0,1-1.921,3.4,29.325,29.325,0,0,1-2.24,2.92A19.088,19.088,0,0,1,36.391,27.8h0ZM74.18,26.56,72.5,25a25.113,25.113,0,0,0,5.8-3.04,25.5,25.5,0,0,0,4.881-4.4A23.966,23.966,0,0,0,86.66,12a19.366,19.366,0,0,0,1.561-6.48h-14.4V3.56H90.7a22.858,22.858,0,0,1-1.319,7.88,25.117,25.117,0,0,1-3.6,6.6,24.5,24.5,0,0,1-5.28,5.12,26.223,26.223,0,0,1-6.32,3.4ZM246.21,22.2a10.582,10.582,0,0,1-3.6-2,9.8,9.8,0,0,1-2.6-3.24,10.144,10.144,0,0,1-1.12-4.36,9.347,9.347,0,0,1,.959-4.28,10.325,10.325,0,0,1,2.48-3.24A12.01,12.01,0,0,1,245.97,3a15.423,15.423,0,0,1,4.4-.8,13.207,13.207,0,0,1,4.28.72A12.063,12.063,0,0,1,258.29,5a11.718,11.718,0,0,1,2.6,3.28,10.033,10.033,0,0,1,1,4.32,10.367,10.367,0,0,1-.959,4.28,9.9,9.9,0,0,1-2.48,3.2,11.538,11.538,0,0,1-3.64,2.039,14.789,14.789,0,0,1-4.441.8A12.116,12.116,0,0,1,246.21,22.2Zm1.2-16.4a7.884,7.884,0,0,0-2.52,1.48,6.5,6.5,0,0,0-1.759,2.281,6.4,6.4,0,0,0-.72,3.04,6.46,6.46,0,0,0,.64,2.959,5.971,5.971,0,0,0,1.76,2.24,7.163,7.163,0,0,0,2.52,1.44,8.5,8.5,0,0,0,3.04.561,9.446,9.446,0,0,0,3-.481,7.959,7.959,0,0,0,2.52-1.44,7.379,7.379,0,0,0,1.8-2.28,7.261,7.261,0,0,0,.72-3,7.1,7.1,0,0,0-.641-2.96,7.422,7.422,0,0,0-1.72-2.281,8.589,8.589,0,0,0-2.56-1.48,11.676,11.676,0,0,0-3.12-.56A9,9,0,0,0,247.41,5.8ZM189.069,20.12H185.55V0h3.52V8.4h6v3.12h-6v8.6h0Zm-34.951,0H150.6V10.96H143.24V7.84H150.6V0h3.52V20.12h0Zm73.5-.32H224.1V10.96h-7.359V7.84H224.1V0h3.52V19.8h0Zm-27.879-.2c-.383-.345-.773-.733-1.15-1.11l-.049-.05c-.2-.2-.408-.4-.606-.586s-.4-.376-.594-.574a16.442,16.442,0,0,0,6.6-5.44A15.221,15.221,0,0,0,206.5,4.72h-7.44V1.6h18.8V4.72h-7.52a11.3,11.3,0,0,0,.841,3.84,11.732,11.732,0,0,0,1.92,3.2,13.656,13.656,0,0,0,2.84,2.6,19.192,19.192,0,0,0,3.6,2.12c-.2.2-.409.4-.607.587s-.4.376-.593.573c-.393.393-.8.8-1.2,1.16a20.7,20.7,0,0,1-5.2-3.36,12.182,12.182,0,0,1-3.44-4.521,15.474,15.474,0,0,1-3.44,4.92,20.365,20.365,0,0,1-5.32,3.76Zm-73.5,0h0c-.383-.345-.773-.733-1.149-1.11l-.05-.05c-.2-.2-.407-.4-.606-.586s-.4-.376-.594-.574a16.436,16.436,0,0,0,6.6-5.44A15.211,15.211,0,0,0,133,4.72h-7.44V1.6h18.8V4.72h-7.52a11.318,11.318,0,0,0,.841,3.84,11.732,11.732,0,0,0,1.92,3.2,13.656,13.656,0,0,0,2.84,2.6,19.193,19.193,0,0,0,3.6,2.12c-.2.2-.409.4-.607.587s-.4.376-.593.573c-.393.393-.8.8-1.2,1.16a20.7,20.7,0,0,1-5.2-3.36A12.182,12.182,0,0,1,135,10.92a15.474,15.474,0,0,1-3.44,4.92,20.36,20.36,0,0,1-5.319,3.76Zm35.55-.2h0c-.383-.345-.773-.733-1.149-1.11l-.05-.049c-.2-.2-.407-.4-.606-.586s-.4-.376-.594-.574a22.427,22.427,0,0,0,3.96-2.561,19.226,19.226,0,0,0,2.96-3.08,15.019,15.019,0,0,0,1.92-3.4,10.7,10.7,0,0,0,.64-3.52V1h3.641V4.52a9.151,9.151,0,0,0,.64,3.361,10.452,10.452,0,0,0,1.88,3.2,14.386,14.386,0,0,0,2.96,2.84,17.122,17.122,0,0,0,4,2.36c-.2.2-.4.389-.593.573s-.4.384-.607.587l-.05.049c-.377.377-.767.766-1.15,1.111a17.7,17.7,0,0,1-2.839-1.561,14.632,14.632,0,0,1-2.52-1.88A10.433,10.433,0,0,1,172.19,13a8.025,8.025,0,0,1-1.44-2.319,16.339,16.339,0,0,1-3.52,4.919,21.933,21.933,0,0,1-5.439,3.8ZM1.52,18.44h0l-.36-.419L1.145,18,.8,17.6A5.38,5.38,0,0,1,0,16.76,32.661,32.661,0,0,0,5.64,14.8a25.007,25.007,0,0,0,4.919-2.92,16.676,16.676,0,0,0,3.6-3.76,10.044,10.044,0,0,0,1.76-4.4H1.24V1.76H18.52a12.521,12.521,0,0,1-1.36,5.72,18.072,18.072,0,0,1-3.721,4.8A25.268,25.268,0,0,1,8,16a29.724,29.724,0,0,1-6.479,2.44ZM28.959,18H26.72V13.52H17.68V11.6H26.72V7.04H18.88V5.12h7.84V0h2.24V18h0Z" fill="none"/>
    <path id="Shape-3" data-name="Shape" d="M280.349,82.6H278.11V45h2.24V59.72h6.8V61.68h-6.8V82.6h0Zm-35.151,0H242.96V45h2.24V82.6Zm-110.25,0H132.71V45h2.24V82.6Zm25.39-.8c-.677-.481-1.327-1.049-1.957-1.6A21.1,21.1,0,0,1,156.5,78.32a15.3,15.3,0,0,1-1.56-2.119,8.755,8.755,0,0,1-1.12-2.2,20.016,20.016,0,0,1-2.641,4.52,16.2,16.2,0,0,1-3.6,3.281c-.1-.086-.2-.168-.3-.246l-.016-.014a6.363,6.363,0,0,1-.485-.421l-.112-.1c-.213-.183-.462-.4-.688-.584a19.343,19.343,0,0,0,2.52-1.96,14.53,14.53,0,0,0,2.08-2.52,18.7,18.7,0,0,0,1.44-3.12,13.74,13.74,0,0,0,.64-3.52V67.36h2.2v1.96a9.088,9.088,0,0,0,.44,3A10.141,10.141,0,0,0,156.5,75a9.993,9.993,0,0,0,1.721,2.32,14.475,14.475,0,0,0,2.16,1.96c.633-.513,1.3-1.1,2.039-1.76a13.668,13.668,0,0,0,1.8-2.319,16.8,16.8,0,0,0,1.28-2.84,11.365,11.365,0,0,0,.481-3.4v-1.6h2.2v1.96a10.049,10.049,0,0,0,.56,3.52,12.611,12.611,0,0,0,1.52,3.12,11.882,11.882,0,0,0,2.12,2.52,19.217,19.217,0,0,0,2.48,1.96,6.557,6.557,0,0,0-.8.68c-.085.074-.172.144-.257.212l-.037.03a6.014,6.014,0,0,0-.506.437,14.621,14.621,0,0,1-3.6-3.28A17.5,17.5,0,0,1,167.019,74a11.634,11.634,0,0,1-1.08,2.12,22.7,22.7,0,0,1-1.6,2.24c-.577.648-1.2,1.283-1.96,2a10.859,10.859,0,0,1-2.04,1.4V81.8Zm46.632,0h-23.6V68.36h2.24V72.6h19.08V68.36h2.28V81.8h0ZM185.611,79.88h19.08V74.52h-19.08ZM60.769,81.6H37.57V70.52h3.48v7.96H60.77V81.6h0Zm41.63-3.88H67.44V74.6H77.52V68.04h-4.6V56.48H93.4V51.12H72.92V48.2h24V59.4H76.4v5.76H97.52v2.88h-5.2V74.6H102.4v3.118l0,0ZM80.92,74.6h8V68.04h-8Zm24.95-.6V72.04h9.48V63.88h-7.28V48.52H124.83v2H110.309v11.4H125.55v1.96h-8V72.04h.031a46.561,46.561,0,0,0,5.769-.319c1.8-.187,3.719-.488,5.881-.92l.28,1.92a51.247,51.247,0,0,1-6.4.96,72.322,72.322,0,0,1-7.44.319Zm-45.5-3h-3.52V45H60.37V55.32h6V58.4h-6V71h0Zm193.781-.08h0V48.52h17v2H256.39V68.96h.049c3.42,0,6.213-.1,8.79-.319,2.817-.2,5.59-.525,8.24-.96l.28,1.92a123.985,123.985,0,0,1-19.6,1.32Zm-35.55-.4h0V48.12h2.24V68.56h.049c3.475,0,6.415-.1,8.991-.32,2.843-.2,5.615-.523,8.24-.959l.28,1.92a124.131,124.131,0,0,1-19.8,1.32ZM31.97,67.44v-3h8.88v-3.2a7.47,7.47,0,0,1-2.76-.84,6.624,6.624,0,0,1-2.12-1.6,5.891,5.891,0,0,1-1.4-2.24,6.985,6.985,0,0,1-.52-2.8,7.648,7.648,0,0,1,.64-3.24,6.357,6.357,0,0,1,1.8-2.44,8.7,8.7,0,0,1,2.68-1.56A10.845,10.845,0,0,1,42.49,46a11.375,11.375,0,0,1,3.36.52,10.422,10.422,0,0,1,2.68,1.56,7.755,7.755,0,0,1,1.76,2.44,8.382,8.382,0,0,1,.64,3.24,7.736,7.736,0,0,1-.52,2.8,8.076,8.076,0,0,1-1.4,2.281,7.56,7.56,0,0,1-2.16,1.6,6.91,6.91,0,0,1-2.679.8v3.2h.011A46.8,46.8,0,0,0,54.689,63.16c.041.529.082,1.005.16,1.48.045.575.083,1.018.16,1.48A59.96,59.96,0,0,1,41.77,67.44Zm8.6-18.32a4.968,4.968,0,0,0-1.641.92,4.327,4.327,0,0,0-1.12,1.56,4.59,4.59,0,0,0-.44,2.12,4.245,4.245,0,0,0,.44,2.119,3.6,3.6,0,0,0,1.12,1.52,3.83,3.83,0,0,0,1.641.88,5.159,5.159,0,0,0,1.959.32,5.621,5.621,0,0,0,2-.32,5.143,5.143,0,0,0,1.64-.92,4.319,4.319,0,0,0,1.08-1.52,5.281,5.281,0,0,0,.4-2.08,5.854,5.854,0,0,0-.4-2.08,5.45,5.45,0,0,0-1.08-1.561,6.091,6.091,0,0,0-1.64-.959,6.746,6.746,0,0,0-2-.32A6.085,6.085,0,0,0,40.57,49.12ZM170.02,55.6h-8.24a8.006,8.006,0,0,1-.88,3.2,7.872,7.872,0,0,1-1.959,2.44,7.312,7.312,0,0,1-2.76,1.561,9.1,9.1,0,0,1-3.32.56,10.2,10.2,0,0,1-3.56-.6,7.862,7.862,0,0,1-2.84-1.72,7.023,7.023,0,0,1-1.92-2.72,8.278,8.278,0,0,1-.68-3.52,8.523,8.523,0,0,1,.68-3.52,7.475,7.475,0,0,1,1.92-2.68,8.434,8.434,0,0,1,2.84-1.72,10.2,10.2,0,0,1,3.56-.6,11.125,11.125,0,0,1,3.28.52,9.469,9.469,0,0,1,2.721,1.48,8.989,8.989,0,0,1,1.92,2.32,9.329,9.329,0,0,1,.96,3.04h8.28V45h2.24V65h-2.24ZM150.26,48.72a6.592,6.592,0,0,0-2.16,1.32,5.3,5.3,0,0,0-1.44,2.04,6.221,6.221,0,0,0-.56,2.72,6.44,6.44,0,0,0,.52,2.72,5.294,5.294,0,0,0,1.44,2.04,4.957,4.957,0,0,0,2.16,1.319,7.3,7.3,0,0,0,2.679.481,7.4,7.4,0,0,0,2.68-.481,5.936,5.936,0,0,0,2.12-1.319,6.563,6.563,0,0,0,1.4-2.08,7.06,7.06,0,0,0,.481-2.68,7.3,7.3,0,0,0-.52-2.68,7.56,7.56,0,0,0-1.4-2.08,7.227,7.227,0,0,0-2.119-1.32,8.37,8.37,0,0,0-2.641-.44A8,8,0,0,0,150.26,48.72Zm27.111,16.04V62.8h35.6v1.958h-35.6Zm22.48-8.879a10.593,10.593,0,0,1-4.68-4.441,11.327,11.327,0,0,1-4.68,4.4,26.59,26.59,0,0,1-8.28,2.76h0l-.014-.014-.029-.029c-.221-.222-.451-.454-.676-.717a7.318,7.318,0,0,1-.76-.8,26.273,26.273,0,0,0,5.56-1.4,17.686,17.686,0,0,0,4.16-2.16,9.956,9.956,0,0,0,2.641-2.72,5.949,5.949,0,0,0,.879-3v-2.2h2.361v2.2a5.384,5.384,0,0,0,.92,3.04,8.922,8.922,0,0,0,2.64,2.72,14.389,14.389,0,0,0,4.16,2.12,25.228,25.228,0,0,0,5.521,1.4l-.04.049-.011.014c-.221.253-.447.515-.669.736l-.187.187-.335.335-.238.239A24.958,24.958,0,0,1,199.85,55.88ZM174.71,37.4a9.73,9.73,0,0,1-3.2-1.68A8.343,8.343,0,0,1,169.35,33a7.251,7.251,0,0,1-.8-3.52,7.641,7.641,0,0,1,.8-3.6,7.8,7.8,0,0,1,2.2-2.68,9.734,9.734,0,0,1,3.2-1.72,13.642,13.642,0,0,1,3.919-.561,13.258,13.258,0,0,1,3.96.6,11.356,11.356,0,0,1,3.24,1.68,9.081,9.081,0,0,1,2.2,2.72,8.147,8.147,0,0,1,.8,3.56,7.712,7.712,0,0,1-.8,3.479,9.558,9.558,0,0,1-2.16,2.72,11.443,11.443,0,0,1-3.24,1.721,13.232,13.232,0,0,1-4,.6A12.534,12.534,0,0,1,174.71,37.4Zm1.4-13.04a6.214,6.214,0,0,0-2.12,1.12,4.907,4.907,0,0,0-1.44,1.72,4.982,4.982,0,0,0-.52,2.281,4.113,4.113,0,0,0,.561,2.239,4.552,4.552,0,0,0,1.44,1.721,7.044,7.044,0,0,0,2.12,1.08,8.8,8.8,0,0,0,2.52.36,9.5,9.5,0,0,0,2.6-.36,8.927,8.927,0,0,0,2.12-1.08,5.425,5.425,0,0,0,1.44-1.721,5.04,5.04,0,0,0,.519-2.239,5.239,5.239,0,0,0-.519-2.24,6.446,6.446,0,0,0-1.4-1.72A7.617,7.617,0,0,0,181.31,24.4a9.525,9.525,0,0,0-2.641-.4A8.776,8.776,0,0,0,176.11,24.36ZM139.36,37.4a9.748,9.748,0,0,1-3.2-1.68A8.357,8.357,0,0,1,134,33a7.261,7.261,0,0,1-.8-3.52,7.651,7.651,0,0,1,.8-3.6,7.821,7.821,0,0,1,2.2-2.68,9.734,9.734,0,0,1,3.2-1.72,13.642,13.642,0,0,1,3.92-.561,13.258,13.258,0,0,1,3.96.6,11.356,11.356,0,0,1,3.24,1.68,9.054,9.054,0,0,1,2.2,2.72,8.136,8.136,0,0,1,.8,3.56,7.7,7.7,0,0,1-.8,3.479,9.528,9.528,0,0,1-2.16,2.72,11.443,11.443,0,0,1-3.24,1.721,13.224,13.224,0,0,1-4,.6A12.534,12.534,0,0,1,139.36,37.4Zm1.4-13.04a6.231,6.231,0,0,0-2.12,1.12,4.907,4.907,0,0,0-1.44,1.72,4.985,4.985,0,0,0-.519,2.281,4.109,4.109,0,0,0,.56,2.239,4.552,4.552,0,0,0,1.44,1.721,7.044,7.044,0,0,0,2.12,1.08,8.8,8.8,0,0,0,2.52.36,9.5,9.5,0,0,0,2.6-.36,8.927,8.927,0,0,0,2.12-1.08,5.419,5.419,0,0,0,1.44-1.721A5.037,5.037,0,0,0,150,29.48a5.236,5.236,0,0,0-.52-2.24,6.421,6.421,0,0,0-1.4-1.72A7.606,7.606,0,0,0,145.96,24.4a9.525,9.525,0,0,0-2.641-.4A8.776,8.776,0,0,0,140.76,24.36Zm-40.5,13.24H98.021V0h2.239V14.76h6.8v1.96h-6.8V37.6h0Zm-33.75,0H64.35V0h2.16V37.6Zm161.111-.8H224.1V26.12H204.62V23h23V36.8h0Zm-197.9,0H6.24V27.76H26.72V23.24H6.24V21.32H28.96v8.36H8.48v5.2H29.72V36.8h0Zm29.509-.4h-2.2v-22H50.91V12.44h6.12V.8h2.2V36.4ZM269.64,32.72V29.6h15.72V23.04H275.12V11.48H295.6V6.12H275.12V3.2h24V14.4H278.6v5.76H299.72v2.88H288.88V29.6H304.6v3.12Zm-36.75,0V29.6h34.96v3.119H232.89ZM36.389,27.8a6.871,6.871,0,0,1-.759-.76,7.132,7.132,0,0,1-.8-.76,24.908,24.908,0,0,0,7.32-10.72,30.889,30.889,0,0,0,.8-3.32c.16-1.081.242-2.219.32-3.32,0-.525.009-1.051.019-1.608.01-.58.021-1.176.021-1.792H36.15V3.56h16.6V5.52h-7.2V9.16a17.536,17.536,0,0,0,.72,5.04,19.88,19.88,0,0,0,1.84,4.68,22.011,22.011,0,0,0,2.72,4.08,20.931,20.931,0,0,0,3.2,3.281c-.285.244-.562.482-.8.72l-.8.8A16.529,16.529,0,0,1,49.99,25.4a19.861,19.861,0,0,1-2.319-3,23.088,23.088,0,0,1-1.921-3.36,15.406,15.406,0,0,1-1.319-3.56,26.561,26.561,0,0,1-1.44,3.64,33.844,33.844,0,0,1-1.921,3.4,29.325,29.325,0,0,1-2.24,2.92A19.088,19.088,0,0,1,36.391,27.8h0ZM74.18,26.56,72.5,25a25.113,25.113,0,0,0,5.8-3.04,25.5,25.5,0,0,0,4.881-4.4A23.966,23.966,0,0,0,86.66,12a19.366,19.366,0,0,0,1.561-6.48h-14.4V3.56H90.7a22.858,22.858,0,0,1-1.319,7.88,25.117,25.117,0,0,1-3.6,6.6,24.5,24.5,0,0,1-5.28,5.12,26.223,26.223,0,0,1-6.32,3.4ZM246.21,22.2a10.582,10.582,0,0,1-3.6-2,9.8,9.8,0,0,1-2.6-3.24,10.144,10.144,0,0,1-1.12-4.36,9.347,9.347,0,0,1,.959-4.28,10.325,10.325,0,0,1,2.48-3.24A12.01,12.01,0,0,1,245.97,3a15.423,15.423,0,0,1,4.4-.8,13.207,13.207,0,0,1,4.28.72A12.063,12.063,0,0,1,258.29,5a11.718,11.718,0,0,1,2.6,3.28,10.033,10.033,0,0,1,1,4.32,10.367,10.367,0,0,1-.959,4.28,9.9,9.9,0,0,1-2.48,3.2,11.538,11.538,0,0,1-3.64,2.039,14.789,14.789,0,0,1-4.441.8A12.116,12.116,0,0,1,246.21,22.2Zm1.2-16.4a7.884,7.884,0,0,0-2.52,1.48,6.5,6.5,0,0,0-1.759,2.281,6.4,6.4,0,0,0-.72,3.04,6.46,6.46,0,0,0,.64,2.959,5.971,5.971,0,0,0,1.76,2.24,7.163,7.163,0,0,0,2.52,1.44,8.5,8.5,0,0,0,3.04.561,9.446,9.446,0,0,0,3-.481,7.959,7.959,0,0,0,2.52-1.44,7.379,7.379,0,0,0,1.8-2.28,7.261,7.261,0,0,0,.72-3,7.1,7.1,0,0,0-.641-2.96,7.422,7.422,0,0,0-1.72-2.281,8.589,8.589,0,0,0-2.56-1.48,11.676,11.676,0,0,0-3.12-.56A9,9,0,0,0,247.41,5.8ZM189.069,20.12H185.55V0h3.52V8.4h6v3.12h-6v8.6h0Zm-34.951,0H150.6V10.96H143.24V7.84H150.6V0h3.52V20.12h0Zm73.5-.32H224.1V10.96h-7.359V7.84H224.1V0h3.52V19.8h0Zm-27.879-.2c-.383-.345-.773-.733-1.15-1.11l-.049-.05c-.2-.2-.408-.4-.606-.586s-.4-.376-.594-.574a16.442,16.442,0,0,0,6.6-5.44A15.221,15.221,0,0,0,206.5,4.72h-7.44V1.6h18.8V4.72h-7.52a11.3,11.3,0,0,0,.841,3.84,11.732,11.732,0,0,0,1.92,3.2,13.656,13.656,0,0,0,2.84,2.6,19.192,19.192,0,0,0,3.6,2.12c-.2.2-.409.4-.607.587s-.4.376-.593.573c-.393.393-.8.8-1.2,1.16a20.7,20.7,0,0,1-5.2-3.36,12.182,12.182,0,0,1-3.44-4.521,15.474,15.474,0,0,1-3.44,4.92,20.365,20.365,0,0,1-5.32,3.76Zm-73.5,0h0c-.383-.345-.773-.733-1.149-1.11l-.05-.05c-.2-.2-.407-.4-.606-.586s-.4-.376-.594-.574a16.436,16.436,0,0,0,6.6-5.44A15.211,15.211,0,0,0,133,4.72h-7.44V1.6h18.8V4.72h-7.52a11.318,11.318,0,0,0,.841,3.84,11.732,11.732,0,0,0,1.92,3.2,13.656,13.656,0,0,0,2.84,2.6,19.193,19.193,0,0,0,3.6,2.12c-.2.2-.409.4-.607.587s-.4.376-.593.573c-.393.393-.8.8-1.2,1.16a20.7,20.7,0,0,1-5.2-3.36A12.182,12.182,0,0,1,135,10.92a15.474,15.474,0,0,1-3.44,4.92,20.36,20.36,0,0,1-5.319,3.76Zm35.55-.2h0c-.383-.345-.773-.733-1.149-1.11l-.05-.049c-.2-.2-.407-.4-.606-.586s-.4-.376-.594-.574a22.427,22.427,0,0,0,3.96-2.561,19.226,19.226,0,0,0,2.96-3.08,15.019,15.019,0,0,0,1.92-3.4,10.7,10.7,0,0,0,.64-3.52V1h3.641V4.52a9.151,9.151,0,0,0,.64,3.361,10.452,10.452,0,0,0,1.88,3.2,14.386,14.386,0,0,0,2.96,2.84,17.122,17.122,0,0,0,4,2.36c-.2.2-.4.389-.593.573s-.4.384-.607.587l-.05.049c-.377.377-.767.766-1.15,1.111a17.7,17.7,0,0,1-2.839-1.561,14.632,14.632,0,0,1-2.52-1.88A10.433,10.433,0,0,1,172.19,13a8.025,8.025,0,0,1-1.44-2.319,16.339,16.339,0,0,1-3.52,4.919,21.933,21.933,0,0,1-5.439,3.8ZM1.52,18.44h0l-.36-.419L1.145,18,.8,17.6A5.38,5.38,0,0,1,0,16.76,32.661,32.661,0,0,0,5.64,14.8a25.007,25.007,0,0,0,4.919-2.92,16.676,16.676,0,0,0,3.6-3.76,10.044,10.044,0,0,0,1.76-4.4H1.24V1.76H18.52a12.521,12.521,0,0,1-1.36,5.72,18.072,18.072,0,0,1-3.721,4.8A25.268,25.268,0,0,1,8,16a29.724,29.724,0,0,1-6.479,2.44ZM28.959,18H26.72V13.52H17.68V11.6H26.72V7.04H18.88V5.12h7.84V0h2.24V18h0Z" fill="url(#linear-gradient)"/>
  </g>
</svg>
