<svg xmlns="http://www.w3.org/2000/svg" xmlns:xlink="http://www.w3.org/1999/xlink" width="44.95" height="54.635" viewBox="0 0 44.95 54.635">
  <defs>
    <linearGradient id="linear-gradient" x1="0.197" y1="0.082" x2="0.787" y2="0.753" gradientUnits="objectBoundingBox">
      <stop offset="0" stop-color="#c61fff"/>
      <stop offset="1" stop-color="#ff621e"/>
    </linearGradient>
  </defs>
  <g id="Group_24" data-name="Group 24" transform="translate(0.5 0.5)">
    <path id="Path_4" data-name="Path 4" d="M11.949,53.635c-.187,0-.377,0-.565-.006-.518,0-1.036-.026-1.538-.065a24.553,24.553,0,0,0,7.525-1.743,17.934,17.934,0,0,0,7.483-5.477A14.5,14.5,0,0,0,27.9,37.985a12.565,12.565,0,0,0-1.54-6.873,11.786,11.786,0,0,0-5.191-4.762,19.833,19.833,0,0,0,6.99-5.066,11.313,11.313,0,0,0,2.641-6.6,13.939,13.939,0,0,0-.833-5.93,11.842,11.842,0,0,0-3.285-4.614A17.918,17.918,0,0,0,16.054.092C16.755.03,17.468,0,18.173,0h.193A24.006,24.006,0,0,1,25.4,1.124a15.482,15.482,0,0,1,5.352,3.012,11.841,11.841,0,0,1,3.284,4.614,13.934,13.934,0,0,1,.832,5.93,11.309,11.309,0,0,1-2.64,6.6,19.833,19.833,0,0,1-6.99,5.066,11.787,11.787,0,0,1,5.191,4.762,12.556,12.556,0,0,1,1.539,6.873,14.483,14.483,0,0,1-3.043,8.359,17.924,17.924,0,0,1-7.482,5.477A24.981,24.981,0,0,1,11.949,53.635ZM8.537,44.288h0l-.223,0A5.46,5.46,0,0,1,4.2,42.566a6.226,6.226,0,0,1-1.5-4.189H6.766a6.216,6.216,0,0,0,1.5,4.189,4.927,4.927,0,0,0,2.356,1.461A8.28,8.28,0,0,1,8.537,44.288Zm2.569-22.45L9.912,21.83l0-.028,1.721.012C11.441,21.828,11.267,21.835,11.106,21.839ZM0,14.249H0v-.023l7.74-.047a6.067,6.067,0,0,1,2.291-3.616,6.273,6.273,0,0,1,3.885-1.292c.076,0,.154,0,.231,0a6.091,6.091,0,0,1,1.859.293,6.277,6.277,0,0,0-1.9,1,6.066,6.066,0,0,0-2.29,3.616L0,14.249Z" transform="translate(9.05 0)" fill="#333" stroke="#2c2c2c" stroke-miterlimit="10" stroke-width="1"/>
    <path id="Path" d="M14.893,21.8l5.263.036a8.063,8.063,0,0,0,5.3-1.879,7.645,7.645,0,0,0,2.47-5.066,5.207,5.207,0,0,0-.967-4.01A4.6,4.6,0,0,0,23.2,9.273a6.284,6.284,0,0,0-4.117,1.289,6.04,6.04,0,0,0-2.291,3.616l-11.814.072A13.071,13.071,0,0,1,7.7,6.767a16.229,16.229,0,0,1,6.677-5.03A22.259,22.259,0,0,1,23.342,0Q31.218.18,35.729,4.136a12.274,12.274,0,0,1,4.117,10.543q-.465,7.375-9.63,11.671a11.737,11.737,0,0,1,5.191,4.761,12.5,12.5,0,0,1,1.539,6.874A14.424,14.424,0,0,1,33.9,46.344a17.842,17.842,0,0,1-7.482,5.477,25,25,0,0,1-10.06,1.808,18.711,18.711,0,0,1-8.5-1.987,14.081,14.081,0,0,1-5.853-5.388,14.887,14.887,0,0,1-2-7.876H11.743a6.2,6.2,0,0,0,1.5,4.189,5.438,5.438,0,0,0,4.117,1.718,7.887,7.887,0,0,0,5.263-1.754,7.235,7.235,0,0,0,2.721-4.8A6.55,6.55,0,0,0,24.4,32.74q-1.378-1.808-4.6-1.915l-6.3-.036Z" stroke="#2c2c2c" stroke-miterlimit="10" stroke-width="1" fill="url(#linear-gradient)"/>
  </g>
</svg>
