<svg id="welfare_equipment" data-name="welfare equipment" xmlns="http://www.w3.org/2000/svg" xmlns:xlink="http://www.w3.org/1999/xlink" width="228.865" height="20.416" viewBox="0 0 228.865 20.416">
  <defs>
    <clipPath id="clip-path">
      <path id="Path_3" data-name="Path 3" d="M124.15,20.415l-3.022-2.94c-.373.033-.655.049-.865.049-.043,0-.083,0-.12,0a6.072,6.072,0,0,1-3.053-.785,5.524,5.524,0,0,1-2.1-2.227,8.255,8.255,0,0,1-.9-3.328,13.6,13.6,0,0,1,.2-3.123,11.865,11.865,0,0,1,1.042-3.276,8.865,8.865,0,0,1,3.047-3.556A7.394,7.394,0,0,1,122.527,0l.171,0a6.2,6.2,0,0,1,3.046.8,5.592,5.592,0,0,1,2.1,2.238,8.113,8.113,0,0,1,.92,3.31,10.919,10.919,0,0,1-.059,2.074l-.082.68a11.057,11.057,0,0,1-1.4,4.2,8.642,8.642,0,0,1-2.7,2.83l2.285,2.262-2.66,2.014h0ZM119.7,4.549a8.73,8.73,0,0,0-1.429,4.136,14.172,14.172,0,0,0-.165,2.6c.078,1.967.851,2.992,2.3,3.047.062,0,.124,0,.185,0a3.09,3.09,0,0,0,2.471-1.24,8.152,8.152,0,0,0,1.471-3.909,16.285,16.285,0,0,0,.222-2.93A4.1,4.1,0,0,0,124.087,4a2.105,2.105,0,0,0-1.624-.785l-.138,0A3.181,3.181,0,0,0,119.7,4.549Zm15.76,13a6.783,6.783,0,0,1-3.235-.8,4.7,4.7,0,0,1-2.021-2.168,5.824,5.824,0,0,1-.439-3.193L131.66.236h4.031L133.8,11.392a5.346,5.346,0,0,0-.023,1.113,1.816,1.816,0,0,0,1.921,1.863q2.579.082,3.106-2.988l1.9-11.145h4.008l-1.9,11.133a7,7,0,0,1-2.385,4.559,7.207,7.207,0,0,1-4.809,1.619Zm81.466-.246,2.414-13.887h-4.886l.563-3.176h13.851l-.551,3.176h-4.969l-2.4,13.887Zm-9.595,0L203.25,6.529,201.375,17.3h-4.008L200.32.236h3.914L208.3,11.005,210.164.236h4.008L211.207,17.3Zm-22.51,0L187.771.236h11.45l-.551,3.176h-7.43l-.634,3.6h6.282l-.527,3.059h-6.269l-.715,4.066h7.418l-.551,3.164Zm-6.056,0,.726-4.184L181.223,5.4l-5.976,11.9h-2.66l-1.933-12.34-1.078,8.555-.669,3.785H164.9L167.853.236h5.2l1.629,11.836L180.4.236h5.343L182.794,17.3Zm-34.8,0L146.928.236h4L147.97,17.3Zm-43.4,0L103.516.236h11.45l-.551,3.176h-7.43l-.633,3.6h6.281l-.527,3.059h-6.269l-.715,4.066h7.418l-.551,3.164ZM82.7,17.3,85.65.236H97.1l-.551,3.176H89.119l-.633,3.6h6.281l-.527,3.059H87.971l-.715,4.066h7.418L94.123,17.3ZM72,17.3H67.992L70.945.236l6.024.012A6.638,6.638,0,0,1,81.428,1.6a4.231,4.231,0,0,1,1.4,3.7,5.531,5.531,0,0,1-1.067,3.065,6.3,6.3,0,0,1-2.624,1.916l2.3,6.82v.2H77.156l-1.875-6.023H73.055L72,17.3h0Zm1.595-9.2,2.344.023a2.976,2.976,0,0,0,1.67-.469A2.594,2.594,0,0,0,78.621,6.37,3.017,3.017,0,0,0,78.8,4.794a1.576,1.576,0,0,0-1.664-1.371l-2.719-.012ZM51.26,17.3,60.3.236h3.774L67.22,17.3H63.05l-.41-3.187H57.191L55.679,17.3H51.26Zm7.43-6.363h3.539l-.75-5.882ZM42.626,17.3,45.579.236h11.1l-.551,3.176H49.047l-.68,3.926H54.8L54.251,10.5H47.817l-1.183,6.8Zm-12.138,0L33.44.236H37.46l-2.414,13.9h6.949L41.444,17.3Zm-12.549,0L20.893.236H32.341l-.551,3.176h-7.43l-.633,3.6H30.01l-.527,3.059H23.213L22.5,14.135h7.419L29.365,17.3Zm-8.564,0L8.683,7.63,5,17.3H.856L0,.236H3.9l.234,10.606L8.05.236h3.41l.633,10.652L15.656.236h4.055L13.523,17.3Zm144.861,0H150.23L153.183.236l6.129.012a6.2,6.2,0,0,1,4.483,1.582,4.9,4.9,0,0,1,1.436,4.1,5.613,5.613,0,0,1-1.1,2.988,6.133,6.133,0,0,1-2.537,1.934,9,9,0,0,1-3.533.668l-2.812-.012L154.238,17.3h0Zm1.56-8.965,2.414.023a3,3,0,0,0,2.332-.99,2.957,2.957,0,0,0,.644-2.35,1.8,1.8,0,0,0-.544-1.13,1.875,1.875,0,0,0-1.19-.463l-2.8-.012Z" fill="#111"/>
    </clipPath>
  </defs>
  <path id="Path_3-2" data-name="Path 3" d="M124.15,20.415l-3.022-2.94c-.373.033-.655.049-.865.049-.043,0-.083,0-.12,0a6.072,6.072,0,0,1-3.053-.785,5.524,5.524,0,0,1-2.1-2.227,8.255,8.255,0,0,1-.9-3.328,13.6,13.6,0,0,1,.2-3.123,11.865,11.865,0,0,1,1.042-3.276,8.865,8.865,0,0,1,3.047-3.556A7.394,7.394,0,0,1,122.527,0l.171,0a6.2,6.2,0,0,1,3.046.8,5.592,5.592,0,0,1,2.1,2.238,8.113,8.113,0,0,1,.92,3.31,10.919,10.919,0,0,1-.059,2.074l-.082.68a11.057,11.057,0,0,1-1.4,4.2,8.642,8.642,0,0,1-2.7,2.83l2.285,2.262-2.66,2.014h0ZM119.7,4.549a8.73,8.73,0,0,0-1.429,4.136,14.172,14.172,0,0,0-.165,2.6c.078,1.967.851,2.992,2.3,3.047.062,0,.124,0,.185,0a3.09,3.09,0,0,0,2.471-1.24,8.152,8.152,0,0,0,1.471-3.909,16.285,16.285,0,0,0,.222-2.93A4.1,4.1,0,0,0,124.087,4a2.105,2.105,0,0,0-1.624-.785l-.138,0A3.181,3.181,0,0,0,119.7,4.549Zm15.76,13a6.783,6.783,0,0,1-3.235-.8,4.7,4.7,0,0,1-2.021-2.168,5.824,5.824,0,0,1-.439-3.193L131.66.236h4.031L133.8,11.392a5.346,5.346,0,0,0-.023,1.113,1.816,1.816,0,0,0,1.921,1.863q2.579.082,3.106-2.988l1.9-11.145h4.008l-1.9,11.133a7,7,0,0,1-2.385,4.559,7.207,7.207,0,0,1-4.809,1.619Zm81.466-.246,2.414-13.887h-4.886l.563-3.176h13.851l-.551,3.176h-4.969l-2.4,13.887Zm-9.595,0L203.25,6.529,201.375,17.3h-4.008L200.32.236h3.914L208.3,11.005,210.164.236h4.008L211.207,17.3Zm-22.51,0L187.771.236h11.45l-.551,3.176h-7.43l-.634,3.6h6.282l-.527,3.059h-6.269l-.715,4.066h7.418l-.551,3.164Zm-6.056,0,.726-4.184L181.223,5.4l-5.976,11.9h-2.66l-1.933-12.34-1.078,8.555-.669,3.785H164.9L167.853.236h5.2l1.629,11.836L180.4.236h5.343L182.794,17.3Zm-34.8,0L146.928.236h4L147.97,17.3Zm-43.4,0L103.516.236h11.45l-.551,3.176h-7.43l-.633,3.6h6.281l-.527,3.059h-6.269l-.715,4.066h7.418l-.551,3.164ZM82.7,17.3,85.65.236H97.1l-.551,3.176H89.119l-.633,3.6h6.281l-.527,3.059H87.971l-.715,4.066h7.418L94.123,17.3ZM72,17.3H67.992L70.945.236l6.024.012A6.638,6.638,0,0,1,81.428,1.6a4.231,4.231,0,0,1,1.4,3.7,5.531,5.531,0,0,1-1.067,3.065,6.3,6.3,0,0,1-2.624,1.916l2.3,6.82v.2H77.156l-1.875-6.023H73.055L72,17.3h0Zm1.595-9.2,2.344.023a2.976,2.976,0,0,0,1.67-.469A2.594,2.594,0,0,0,78.621,6.37,3.017,3.017,0,0,0,78.8,4.794a1.576,1.576,0,0,0-1.664-1.371l-2.719-.012ZM51.26,17.3,60.3.236h3.774L67.22,17.3H63.05l-.41-3.187H57.191L55.679,17.3H51.26Zm7.43-6.363h3.539l-.75-5.882ZM42.626,17.3,45.579.236h11.1l-.551,3.176H49.047l-.68,3.926H54.8L54.251,10.5H47.817l-1.183,6.8Zm-12.138,0L33.44.236H37.46l-2.414,13.9h6.949L41.444,17.3Zm-12.549,0L20.893.236H32.341l-.551,3.176h-7.43l-.633,3.6H30.01l-.527,3.059H23.213L22.5,14.135h7.419L29.365,17.3Zm-8.564,0L8.683,7.63,5,17.3H.856L0,.236H3.9l.234,10.606L8.05.236h3.41l.633,10.652L15.656.236h4.055L13.523,17.3Zm144.861,0H150.23L153.183.236l6.129.012a6.2,6.2,0,0,1,4.483,1.582,4.9,4.9,0,0,1,1.436,4.1,5.613,5.613,0,0,1-1.1,2.988,6.133,6.133,0,0,1-2.537,1.934,9,9,0,0,1-3.533.668l-2.812-.012L154.238,17.3h0Zm1.56-8.965,2.414.023a3,3,0,0,0,2.332-.99,2.957,2.957,0,0,0,.644-2.35,1.8,1.8,0,0,0-.544-1.13,1.875,1.875,0,0,0-1.19-.463l-2.8-.012Z" fill="#111"/>
  <g id="welfare_equipment-2" data-name="welfare equipment" clip-path="url(#clip-path)">
    <circle id="Oval" cx="71.5" cy="71.5" r="71.5" transform="translate(142 -128)" fill="#fff" opacity="0.4"/>
    <circle id="Oval_Copy" data-name="Oval Copy" cx="71.5" cy="71.5" r="71.5" transform="translate(-93 -5)" fill="#fff" opacity="0.4"/>
  </g>
</svg>
