<svg xmlns="http://www.w3.org/2000/svg" width="40.554" height="47" viewBox="0 0 40.554 47">
  <path id="Shape" d="M24.171,47A26.737,26.737,0,0,1,14.5,45.288a22.891,22.891,0,0,1-7.654-4.8,21.892,21.892,0,0,1-5.036-7.42A24.653,24.653,0,0,1,0,23.5a24.229,24.229,0,0,1,1.88-9.7,22.706,22.706,0,0,1,5.1-7.42A22.316,22.316,0,0,1,14.5,1.645,25.429,25.429,0,0,1,23.634,0,28.654,28.654,0,0,1,30.45.739a32.3,32.3,0,0,1,5.136,1.678,24.113,24.113,0,0,1,4.3,2.35L37.133,9.611A23.6,23.6,0,0,0,23.5,5.6,17.9,17.9,0,0,0,10.84,36.16,17.784,17.784,0,0,0,23.5,41.4c5.951,0,10.34-1.4,14.233-4.546l2.822,4.972a20.036,20.036,0,0,1-4.3,2.618,36.638,36.638,0,0,1-5.17,1.746A27.042,27.042,0,0,1,24.171,47ZM23.5,38.048a14.548,14.548,0,0,1,0-29.1c4.838,0,8.709,1.2,11.834,3.662a.694.694,0,0,1,.042.094l-2.543,4.48a23.965,23.965,0,0,0-2.35-1.543,22.651,22.651,0,0,0-2.72-1.041,11.853,11.853,0,0,0-3.592-.5,9.694,9.694,0,0,0-6.882,2.752,9.274,9.274,0,0,0-2.047,2.988A9.181,9.181,0,0,0,14.5,23.5a8.836,8.836,0,0,0,.772,3.659,9.477,9.477,0,0,0,2.115,2.988,10.066,10.066,0,0,0,3.156,2.014,10.444,10.444,0,0,0,3.961.739,12.609,12.609,0,0,0,3.828-.537,14.125,14.125,0,0,0,2.82-1.209,10.4,10.4,0,0,0,2.35-1.746L36.11,34C32.969,36.8,29.08,38.048,23.5,38.048Z" fill="#333"/>
</svg>
