<?xml version="1.0" encoding="UTF-8"?>
<svg width="312px" height="86px" viewBox="0 0 312 86" version="1.1" xmlns="http://www.w3.org/2000/svg" xmlns:xlink="http://www.w3.org/1999/xlink">
    <title>Group 18</title>
    <defs>
        <linearGradient x1="2.5893002%" y1="46.3106126%" x2="102.658837%" y2="53.6893874%" id="linearGradient-1">
            <stop stop-color="#2BB5E7" offset="0.00273164336%"></stop>
            <stop stop-color="#7927E3" offset="45.9189248%"></stop>
            <stop stop-color="#B73980" offset="100%"></stop>
        </linearGradient>
    </defs>
    <g id="Page-1" stroke="none" stroke-width="1" fill="none" fill-rule="evenodd">
        <g id="Group-18" transform="translate(0.000000, 0.760000)" fill="url(#linearGradient-1)" fill-rule="nonzero">
            <path d="M283.125517,63.68 L283.125517,84.6 L280.885517,84.6 L280.885517,47 L283.125517,47 L283.125517,61.72 L289.925517,61.72 L289.925517,63.68 L283.125517,63.68 Z M259.165517,70.96 C262.205517,70.96 265.165517,70.88 268.005517,70.64 C270.805517,70.44 273.565517,70.12 276.245517,69.68 L276.525517,71.6 C271.165517,72.48 264.645517,72.92 256.925517,72.92 L256.925517,50.52 L273.925517,50.52 L273.925517,52.52 L259.165517,52.52 L259.165517,70.96 Z M31.08,15.04 C30.84,15.32 30.6,15.6 30.36,15.84 C30.12,16.12 29.84,16.4 29.6,16.64 C28.24,16.24 26.96,15.76 25.72,15.12 C24.44,14.52 23.28,13.84 22.24,13.04 C21.16,12.28 20.2,11.44 19.4,10.56 C18.56,9.68 17.92,8.8 17.48,7.84 C17,8.8 16.32,9.68 15.52,10.56 C14.68,11.44 13.72,12.28 12.68,13 C11.6,13.8 10.44,14.48 9.2,15.08 C7.92,15.72 6.64,16.24 5.32,16.64 C5.04,16.4 4.8,16.12 4.56,15.84 C4.32,15.6 4.08,15.32 3.84,15.04 C4.68,14.88 5.6,14.56 6.56,14.16 C7.52,13.8 8.44,13.32 9.4,12.76 C10.28,12.2 11.16,11.6 12.04,10.88 C12.84,10.2 13.6,9.48 14.24,8.68 C14.84,7.92 15.32,7.12 15.68,6.24 C16,5.44 16.16,4.6 16.12,3.72 L5.44,3.72 L5.44,1.76 L29.48,1.76 L29.48,3.72 L18.8,3.72 C18.8,5 19.12,6.24 19.84,7.36 C20.52,8.56 21.44,9.6 22.6,10.56 C23.72,11.56 25.04,12.44 26.52,13.16 C27.96,13.96 29.48,14.56 31.08,15.04 Z M16.24,37.6 L16.24,24.48 L0,24.48 L0,22.52 L34.96,22.52 L34.96,24.48 L18.6,24.48 L18.6,37.6 L16.24,37.6 Z M42.9103448,14.28 L42.9103448,1.32 L66.6703448,1.32 L66.6703448,14.28 L42.9103448,14.28 Z M64.4303448,3.32 L45.1503448,3.32 L45.1503448,12.28 L64.4303448,12.28 L64.4303448,3.32 Z M54.3103448,28.92 L54.3103448,20.88 L36.9103448,20.88 L36.9103448,18.88 L72.6703448,18.88 L72.6703448,20.88 L56.5503448,20.88 L56.5503448,28.92 L54.3103448,28.92 Z M66.9903448,36.6 L42.9103448,36.6 L42.9103448,25.32 L45.1503448,25.32 L45.1503448,34.64 L66.9903448,34.64 L66.9903448,36.6 Z M105.34069,37.6 L103.10069,37.6 L103.10069,0 L105.34069,0 L105.34069,37.6 Z M96.3806897,14.16 C96.3806897,15.68 96.1006897,17.08 95.6206897,18.36 C95.0606897,19.68 94.3406897,20.8 93.4606897,21.72 C92.5406897,22.68 91.4606897,23.44 90.2606897,23.96 C88.9806897,24.52 87.6606897,24.76 86.2206897,24.76 C84.7406897,24.76 83.3806897,24.52 82.1806897,23.96 C80.9006897,23.44 79.8206897,22.68 78.9406897,21.72 C78.0206897,20.8 77.3006897,19.68 76.8206897,18.36 C76.3006897,17.08 76.0606897,15.68 76.0606897,14.16 C76.0606897,12.64 76.3006897,11.24 76.8206897,9.92 C77.3006897,8.64 78.0206897,7.52 78.9406897,6.56 C79.8206897,5.64 80.9006897,4.92 82.1806897,4.36 C83.3806897,3.84 84.7406897,3.56 86.2206897,3.56 C87.6606897,3.56 88.9806897,3.84 90.2606897,4.36 C91.4606897,4.92 92.5406897,5.64 93.4606897,6.56 C94.3406897,7.52 95.0606897,8.64 95.6206897,9.92 C96.1006897,11.24 96.3806897,12.64 96.3806897,14.16 Z M94.1006897,14.16 C94.1006897,12.96 93.9006897,11.8 93.5006897,10.72 C93.1006897,9.68 92.5406897,8.8 91.8606897,8 C91.1406897,7.24 90.3006897,6.64 89.3806897,6.16 C88.4206897,5.76 87.3806897,5.52 86.2606897,5.52 C85.1406897,5.52 84.1006897,5.76 83.1406897,6.16 C82.1806897,6.6 81.3406897,7.2 80.6206897,7.96 C79.9006897,8.76 79.3406897,9.64 78.9406897,10.68 C78.5406897,11.76 78.3406897,12.92 78.3406897,14.16 C78.3406897,15.4 78.5406897,16.52 78.9406897,17.56 C79.3406897,18.64 79.9006897,19.56 80.6206897,20.28 C81.3006897,21.08 82.1406897,21.68 83.1006897,22.08 C84.0606897,22.56 85.1006897,22.76 86.2606897,22.76 C87.3806897,22.76 88.4206897,22.56 89.3806897,22.08 C90.3406897,21.68 91.1806897,21.08 91.9006897,20.28 C92.5806897,19.52 93.1406897,18.6 93.5406897,17.56 C93.9006897,16.52 94.1006897,15.4 94.1006897,14.16 Z M158.121379,29.48 C158.121379,30.76 157.841379,31.92 157.321379,32.96 C156.761379,34 156.041379,34.92 155.161379,35.68 C154.201379,36.4 153.121379,37 151.921379,37.4 C150.641379,37.8 149.321379,38 147.921379,38 C146.481379,38 145.161379,37.8 143.961379,37.4 C142.721379,37 141.641379,36.44 140.761379,35.72 C139.841379,34.96 139.121379,34.04 138.601379,33 C138.041379,31.96 137.801379,30.8 137.801379,29.48 C137.801379,28.16 138.041379,26.96 138.601379,25.88 C139.121379,24.84 139.841379,23.96 140.801379,23.2 C141.681379,22.48 142.761379,21.88 144.001379,21.48 C145.201379,21.12 146.521379,20.92 147.921379,20.92 C149.281379,20.92 150.601379,21.12 151.881379,21.52 C153.081379,21.92 154.161379,22.48 155.121379,23.2 C156.041379,23.96 156.761379,24.88 157.321379,25.92 C157.841379,27 158.121379,28.2 158.121379,29.48 Z M154.601379,29.48 C154.601379,28.68 154.401379,27.92 154.081379,27.24 C153.721379,26.6 153.241379,26 152.681379,25.52 C152.041379,25.04 151.361379,24.68 150.561379,24.4 C149.721379,24.16 148.841379,24 147.921379,24 C147.001379,24 146.161379,24.12 145.361379,24.36 C144.521379,24.64 143.801379,25 143.241379,25.48 C142.601379,25.96 142.121379,26.56 141.801379,27.2 C141.441379,27.92 141.281379,28.68 141.281379,29.48 C141.281379,30.32 141.441379,31.08 141.841379,31.72 C142.161379,32.4 142.641379,32.96 143.281379,33.44 C143.841379,33.88 144.561379,34.24 145.401379,34.52 C146.201379,34.76 147.041379,34.88 147.921379,34.88 C148.801379,34.88 149.681379,34.76 150.521379,34.52 C151.321379,34.24 152.001379,33.88 152.641379,33.44 C153.241379,32.96 153.721379,32.4 154.081379,31.72 C154.401379,31.08 154.601379,30.32 154.601379,29.48 Z M147.841379,7.84 L155.201379,7.84 L155.201379,0 L158.721379,0 L158.721379,20.12 L155.201379,20.12 L155.201379,10.96 L147.841379,10.96 L147.841379,7.84 Z M128.441379,17.28 C131.401379,15.8 133.601379,14 135.041379,11.84 C136.481379,9.72 137.321379,7.36 137.601379,4.72 L130.161379,4.72 L130.161379,1.6 L148.961379,1.6 L148.961379,4.72 L141.441379,4.72 C141.521379,6.16 141.801379,7.44 142.281379,8.56 C142.761379,9.76 143.401379,10.8 144.201379,11.76 C145.001379,12.72 145.921379,13.6 147.041379,14.36 C148.081379,15.16 149.281379,15.84 150.641379,16.48 C150.241379,16.88 149.841379,17.24 149.441379,17.64 C149.041379,18.04 148.641379,18.44 148.241379,18.8 C146.321379,17.92 144.561379,16.8 143.041379,15.44 C141.441379,14.08 140.321379,12.6 139.601379,10.92 C138.801379,12.76 137.641379,14.4 136.161379,15.84 C134.641379,17.36 132.841379,18.6 130.841379,19.6 C130.441379,19.24 130.041379,18.84 129.641379,18.44 C129.241379,18.04 128.841379,17.68 128.441379,17.28 Z M194.031724,29.48 C194.031724,30.76 193.751724,31.92 193.231724,32.96 C192.671724,34 191.951724,34.92 191.071724,35.68 C190.111724,36.4 189.031724,37 187.831724,37.4 C186.551724,37.8 185.231724,38 183.831724,38 C182.391724,38 181.071724,37.8 179.871724,37.4 C178.631724,37 177.551724,36.44 176.671724,35.72 C175.751724,34.96 175.031724,34.04 174.511724,33 C173.951724,31.96 173.711724,30.8 173.711724,29.48 C173.711724,28.16 173.951724,26.96 174.511724,25.88 C175.031724,24.84 175.751724,23.96 176.711724,23.2 C177.591724,22.48 178.671724,21.88 179.911724,21.48 C181.111724,21.12 182.431724,20.92 183.831724,20.92 C185.191724,20.92 186.511724,21.12 187.791724,21.52 C188.991724,21.92 190.071724,22.48 191.031724,23.2 C191.951724,23.96 192.671724,24.88 193.231724,25.92 C193.751724,27 194.031724,28.2 194.031724,29.48 Z M190.511724,29.48 C190.511724,28.68 190.311724,27.92 189.991724,27.24 C189.631724,26.6 189.151724,26 188.591724,25.52 C187.951724,25.04 187.271724,24.68 186.471724,24.4 C185.631724,24.16 184.751724,24 183.831724,24 C182.911724,24 182.071724,24.12 181.271724,24.36 C180.431724,24.64 179.711724,25 179.151724,25.48 C178.511724,25.96 178.031724,26.56 177.711724,27.2 C177.351724,27.92 177.191724,28.68 177.191724,29.48 C177.191724,30.32 177.351724,31.08 177.751724,31.72 C178.071724,32.4 178.551724,32.96 179.191724,33.44 C179.751724,33.88 180.471724,34.24 181.311724,34.52 C182.111724,34.76 182.951724,34.88 183.831724,34.88 C184.711724,34.88 185.591724,34.76 186.431724,34.52 C187.231724,34.24 187.911724,33.88 188.551724,33.44 C189.151724,32.96 189.631724,32.4 189.991724,31.72 C190.311724,31.08 190.511724,30.32 190.511724,29.48 Z M187.151724,16.28 C186.751724,16.68 186.351724,17.04 185.951724,17.44 C185.551724,17.84 185.151724,18.24 184.751724,18.6 C183.751724,18.16 182.791724,17.64 181.911724,17.04 C180.991724,16.48 180.151724,15.88 179.391724,15.16 C178.591724,14.52 177.911724,13.8 177.351724,13 C176.711724,12.28 176.231724,11.48 175.911724,10.68 C175.111724,12.44 173.951724,14.08 172.391724,15.6 C170.791724,17.12 168.991724,18.4 166.951724,19.4 C166.551724,19.04 166.151724,18.64 165.751724,18.24 C165.351724,17.84 164.951724,17.48 164.551724,17.08 C165.991724,16.36 167.311724,15.48 168.511724,14.52 C169.631724,13.56 170.631724,12.56 171.471724,11.44 C172.271724,10.36 172.911724,9.24 173.391724,8.04 C173.791724,6.88 174.031724,5.72 174.031724,4.52 L174.031724,1 L177.671724,1 L177.671724,4.52 C177.671724,5.64 177.871724,6.76 178.311724,7.88 C178.711724,9 179.351724,10.08 180.191724,11.08 C180.991724,12.12 181.951724,13.04 183.151724,13.92 C184.311724,14.84 185.631724,15.64 187.151724,16.28 Z M194.231724,11.52 L194.231724,20.12 L190.711724,20.12 L190.711724,0 L194.231724,0 L194.231724,8.4 L200.231724,8.4 L200.231724,11.52 L194.231724,11.52 Z M229.822069,36.8 L229.822069,26.12 L210.342069,26.12 L210.342069,23 L233.342069,23 L233.342069,36.8 L229.822069,36.8 Z M222.462069,7.84 L229.822069,7.84 L229.822069,0 L233.342069,0 L233.342069,19.8 L229.822069,19.8 L229.822069,10.96 L222.462069,10.96 L222.462069,7.84 Z M203.062069,17.28 C206.022069,15.8 208.222069,14 209.662069,11.84 C211.102069,9.72 211.942069,7.36 212.222069,4.72 L204.782069,4.72 L204.782069,1.6 L223.582069,1.6 L223.582069,4.72 L216.062069,4.72 C216.142069,6.16 216.422069,7.44 216.902069,8.56 C217.382069,9.76 218.022069,10.8 218.822069,11.76 C219.622069,12.72 220.542069,13.6 221.662069,14.36 C222.702069,15.16 223.902069,15.84 225.262069,16.48 C224.862069,16.88 224.462069,17.24 224.062069,17.64 C223.662069,18.04 223.262069,18.44 222.862069,18.8 C220.942069,17.92 219.182069,16.8 217.662069,15.44 C216.062069,14.08 214.942069,12.6 214.222069,10.92 C213.422069,12.76 212.262069,14.4 210.782069,15.84 C209.262069,17.36 207.462069,18.6 205.462069,19.6 C205.062069,19.24 204.662069,18.84 204.262069,18.44 C203.862069,18.04 203.462069,17.68 203.062069,17.28 Z M274.132414,29.6 L274.132414,32.72 L239.172414,32.72 L239.172414,29.6 L274.132414,29.6 Z M268.172414,12.6 C268.132414,14.2 267.812414,15.64 267.212414,16.88 C266.572414,18.16 265.772414,19.2 264.732414,20.08 C263.692414,20.96 262.452414,21.64 261.092414,22.12 C259.692414,22.6 258.212414,22.88 256.652414,22.92 C255.212414,22.92 253.812414,22.68 252.492414,22.2 C251.132414,21.76 249.932414,21.08 248.892414,20.2 C247.812414,19.32 246.932414,18.24 246.292414,16.96 C245.612414,15.68 245.252414,14.24 245.172414,12.6 C245.172414,11 245.492414,9.6 246.132414,8.32 C246.732414,7.08 247.572414,6 248.612414,5.08 C249.652414,4.2 250.852414,3.52 252.252414,3 C253.612414,2.52 255.052414,2.28 256.652414,2.2 C258.092414,2.2 259.532414,2.44 260.932414,2.92 C262.292414,3.4 263.492414,4.12 264.572414,5 C265.612414,5.92 266.492414,7 267.172414,8.28 C267.812414,9.56 268.132414,11 268.172414,12.6 Z M264.692414,12.6 C264.692414,11.52 264.452414,10.52 264.052414,9.64 C263.612414,8.76 263.052414,8 262.332414,7.36 C261.572414,6.72 260.732414,6.24 259.772414,5.88 C258.772414,5.56 257.732414,5.36 256.652414,5.32 C255.612414,5.32 254.612414,5.48 253.692414,5.8 C252.732414,6.16 251.892414,6.64 251.172414,7.28 C250.412414,7.92 249.812414,8.68 249.412414,9.56 C248.932414,10.48 248.692414,11.48 248.692414,12.6 C248.692414,13.72 248.892414,14.68 249.332414,15.56 C249.732414,16.44 250.332414,17.2 251.092414,17.8 C251.812414,18.44 252.652414,18.92 253.612414,19.24 C254.572414,19.6 255.572414,19.8 256.652414,19.8 C257.692414,19.8 258.692414,19.64 259.652414,19.32 C260.572414,19 261.412414,18.52 262.172414,17.88 C262.892414,17.28 263.492414,16.52 263.972414,15.6 C264.412414,14.72 264.652414,13.72 264.692414,12.6 Z M305.962759,14.4 L285.442759,14.4 L285.442759,20.16 L306.562759,20.16 L306.562759,23.04 L295.722759,23.04 L295.722759,29.6 L311.442759,29.6 L311.442759,32.72 L276.482759,32.72 L276.482759,29.6 L292.202759,29.6 L292.202759,23.04 L281.962759,23.04 L281.962759,11.48 L302.442759,11.48 L302.442759,6.12 L281.962759,6.12 L281.962759,3.2 L305.962759,3.2 L305.962759,14.4 Z M50.3434483,55.76 C50.3434483,56.8 50.1434483,57.72 49.8234483,58.56 C49.4634483,59.44 48.9834483,60.2 48.4234483,60.84 C47.7834483,61.52 47.0634483,62.04 46.2634483,62.44 C45.4234483,62.88 44.5434483,63.16 43.5834483,63.24 L43.5834483,66.44 C46.7834483,66.44 50.3034483,66.04 54.1034483,65.16 C54.1434483,65.68 54.1834483,66.16 54.2634483,66.64 C54.3034483,67.16 54.3434483,67.64 54.4234483,68.12 C50.5834483,69 46.1834483,69.44 41.1834483,69.44 L31.3834483,69.44 L31.3834483,66.44 L40.2634483,66.44 L40.2634483,63.24 C39.2234483,63.12 38.3034483,62.84 37.5034483,62.4 C36.6634483,62 35.9434483,61.44 35.3834483,60.8 C34.7434483,60.16 34.3034483,59.44 33.9834483,58.56 C33.6234483,57.72 33.4634483,56.8 33.4634483,55.76 C33.4634483,54.56 33.6634483,53.48 34.1034483,52.52 C34.5034483,51.56 35.1034483,50.76 35.9034483,50.08 C36.6234483,49.44 37.5434483,48.92 38.5834483,48.52 C39.5834483,48.2 40.7034483,48 41.9034483,48 C43.1034483,48 44.2234483,48.2 45.2634483,48.52 C46.2634483,48.92 47.1434483,49.44 47.9434483,50.08 C48.6634483,50.76 49.2634483,51.56 49.7034483,52.52 C50.1034483,53.48 50.3434483,54.56 50.3434483,55.76 Z M47.0634483,55.72 C47.0634483,54.96 46.9034483,54.28 46.6634483,53.64 C46.3834483,53.04 46.0234483,52.52 45.5834483,52.08 C45.1034483,51.68 44.5434483,51.36 43.9434483,51.12 C43.3034483,50.92 42.6234483,50.8 41.9434483,50.8 C41.2234483,50.8 40.5834483,50.92 39.9834483,51.12 C39.3434483,51.36 38.7834483,51.64 38.3434483,52.04 C37.8634483,52.48 37.4634483,53 37.2234483,53.6 C36.9034483,54.24 36.7834483,54.92 36.7834483,55.72 C36.7834483,56.56 36.9034483,57.28 37.2234483,57.84 C37.4634483,58.48 37.8634483,58.96 38.3434483,59.36 C38.7834483,59.76 39.3434483,60.08 39.9834483,60.24 C40.5834483,60.48 41.2234483,60.56 41.9434483,60.56 C42.6234483,60.56 43.3034483,60.48 43.9434483,60.24 C44.5434483,60.04 45.1034483,59.72 45.5834483,59.32 C46.0234483,58.92 46.3834483,58.44 46.6634483,57.8 C46.9034483,57.24 47.0634483,56.52 47.0634483,55.72 Z M59.7834483,60.4 L59.7834483,73 L56.2634483,73 L56.2634483,47 L59.7834483,47 L59.7834483,57.32 L65.7834483,57.32 L65.7834483,60.4 L59.7834483,60.4 Z M60.1834483,83.6 L36.9834483,83.6 L36.9834483,72.52 L40.4634483,72.52 L40.4634483,80.48 L60.1834483,80.48 L60.1834483,83.6 Z M96.8937931,61.4 L76.3737931,61.4 L76.3737931,67.16 L97.4937931,67.16 L97.4937931,70.04 L92.2937931,70.04 L92.2937931,76.6 L102.373793,76.6 L102.373793,79.72 L67.4137931,79.72 L67.4137931,76.6 L77.4937931,76.6 L77.4937931,70.04 L72.8937931,70.04 L72.8937931,58.48 L93.3737931,58.48 L93.3737931,53.12 L72.8937931,53.12 L72.8937931,50.2 L96.8937931,50.2 L96.8937931,61.4 Z M88.8937931,76.6 L88.8937931,70.04 L80.8937931,70.04 L80.8937931,76.6 L88.8937931,76.6 Z M106.404138,76 L106.404138,74.04 L115.884138,74.04 L115.884138,65.88 L108.604138,65.88 L108.604138,50.52 L125.364138,50.52 L125.364138,52.52 L110.844138,52.52 L110.844138,63.92 L126.084138,63.92 L126.084138,65.88 L118.084138,65.88 L118.084138,74.04 C120.004138,74.04 121.924138,73.96 123.884138,73.72 C125.804138,73.52 127.764138,73.2 129.764138,72.8 L130.044138,74.72 C128.044138,75.16 125.884138,75.48 123.644138,75.68 C121.324138,75.92 118.844138,76 116.204138,76 L106.404138,76 Z M135.484138,84.6 L133.244138,84.6 L133.244138,47 L135.484138,47 L135.484138,84.6 Z M173.354483,67 L171.114483,67 L171.114483,57.6 L162.874483,57.6 C162.794483,58.8 162.474483,59.88 161.994483,60.8 C161.474483,61.76 160.834483,62.6 160.034483,63.24 C159.234483,63.96 158.314483,64.48 157.274483,64.8 C156.234483,65.2 155.114483,65.36 153.954483,65.36 C152.674483,65.36 151.474483,65.16 150.394483,64.76 C149.274483,64.36 148.354483,63.8 147.554483,63.04 C146.714483,62.32 146.074483,61.4 145.634483,60.32 C145.154483,59.28 144.954483,58.12 144.954483,56.8 C144.954483,55.52 145.154483,54.36 145.634483,53.28 C146.074483,52.24 146.714483,51.36 147.554483,50.6 C148.354483,49.88 149.274483,49.28 150.394483,48.88 C151.474483,48.48 152.674483,48.28 153.954483,48.28 C155.074483,48.28 156.194483,48.48 157.234483,48.8 C158.234483,49.16 159.154483,49.64 159.954483,50.28 C160.714483,50.92 161.354483,51.72 161.874483,52.6 C162.354483,53.52 162.674483,54.52 162.834483,55.64 L171.114483,55.64 L171.114483,47 L173.354483,47 L173.354483,67 Z M160.674483,56.8 C160.674483,55.84 160.474483,54.92 160.154483,54.12 C159.794483,53.32 159.314483,52.64 158.754483,52.04 C158.114483,51.48 157.434483,51.04 156.634483,50.72 C155.794483,50.44 154.914483,50.28 153.994483,50.28 C153.034483,50.28 152.154483,50.44 151.354483,50.72 C150.514483,51.04 149.794483,51.48 149.194483,52.04 C148.554483,52.6 148.074483,53.28 147.754483,54.08 C147.354483,54.92 147.194483,55.84 147.194483,56.8 C147.194483,57.84 147.354483,58.72 147.714483,59.52 C148.034483,60.32 148.514483,61 149.154483,61.56 C149.714483,62.16 150.434483,62.6 151.314483,62.88 C152.114483,63.2 153.034483,63.36 153.994483,63.36 C154.954483,63.36 155.834483,63.2 156.674483,62.88 C157.474483,62.6 158.154483,62.16 158.794483,61.56 C159.354483,61 159.834483,60.32 160.194483,59.48 C160.514483,58.68 160.674483,57.8 160.674483,56.8 Z M175.954483,82.44 C175.674483,82.64 175.394483,82.88 175.154483,83.12 C174.874483,83.36 174.594483,83.56 174.354483,83.8 C172.994483,82.92 171.794483,81.84 170.754483,80.52 C169.674483,79.2 168.794483,77.68 168.114483,76 C167.874483,76.64 167.514483,77.36 167.034483,78.12 C166.554483,78.92 165.994483,79.64 165.434483,80.36 C164.794483,81.08 164.154483,81.72 163.474483,82.36 C162.754483,82.96 162.074483,83.44 161.434483,83.76 L161.434483,83.8 C160.754483,83.32 160.114483,82.76 159.474483,82.2 C158.794483,81.6 158.154483,80.96 157.594483,80.32 C156.994483,79.64 156.474483,78.92 156.034483,78.2 C155.554483,77.48 155.154483,76.76 154.914483,76 C154.194483,77.68 153.314483,79.2 152.274483,80.52 C151.194483,81.84 149.994483,82.92 148.674483,83.8 C148.394483,83.56 148.114483,83.36 147.874483,83.12 C147.594483,82.88 147.314483,82.64 147.074483,82.44 C147.954483,81.88 148.794483,81.2 149.594483,80.48 C150.354483,79.76 151.034483,78.92 151.674483,77.96 C152.234483,77 152.714483,75.96 153.114483,74.84 C153.474483,73.76 153.674483,72.6 153.754483,71.32 L153.754483,69.36 L155.954483,69.36 L155.954483,71.32 C155.954483,72.4 156.074483,73.4 156.394483,74.32 C156.674483,75.28 157.074483,76.2 157.594483,77 C158.074483,77.88 158.634483,78.64 159.314483,79.32 C159.954483,80.04 160.674483,80.68 161.474483,81.28 C162.114483,80.76 162.794483,80.16 163.514483,79.52 C164.154483,78.88 164.754483,78.08 165.314483,77.2 C165.794483,76.36 166.234483,75.4 166.594483,74.36 C166.914483,73.32 167.074483,72.2 167.074483,70.96 L167.074483,69.36 L169.274483,69.36 L169.274483,71.32 C169.274483,72.6 169.434483,73.76 169.834483,74.84 C170.194483,75.96 170.714483,77 171.354483,77.96 C171.954483,78.92 172.674483,79.76 173.474483,80.48 C174.274483,81.2 175.074483,81.88 175.954483,82.44 Z M185.024828,83.8 L185.024828,70.36 L187.264828,70.36 L187.264828,74.6 L206.344828,74.6 L206.344828,70.36 L208.624828,70.36 L208.624828,83.8 L185.024828,83.8 Z M206.344828,76.52 L187.264828,76.52 L187.264828,81.88 L206.344828,81.88 L206.344828,76.52 Z M211.224828,59.04 C210.984828,59.32 210.744828,59.6 210.504828,59.84 C210.224828,60.12 209.984828,60.36 209.744828,60.6 C206.424828,60.04 203.664828,59.12 201.504828,57.88 C199.264828,56.68 197.704828,55.2 196.824828,53.44 C195.864828,55.2 194.304828,56.64 192.144828,57.84 C189.944828,59.08 187.184828,60 183.864828,60.6 C183.624828,60.36 183.384828,60.12 183.144828,59.84 C182.864828,59.6 182.624828,59.32 182.384828,59.04 C184.464828,58.72 186.304828,58.28 187.944828,57.64 C189.544828,57.04 190.944828,56.32 192.104828,55.48 C193.224828,54.68 194.104828,53.76 194.744828,52.76 C195.304828,51.8 195.624828,50.8 195.624828,49.76 L195.624828,47.56 L197.984828,47.56 L197.984828,49.76 C197.984828,50.8 198.264828,51.84 198.904828,52.8 C199.504828,53.8 200.384828,54.72 201.544828,55.52 C202.664828,56.36 204.024828,57.08 205.704828,57.64 C207.304828,58.28 209.144828,58.72 211.224828,59.04 Z M214.624828,64.8 L214.624828,66.76 L179.024828,66.76 L179.024828,64.8 L214.624828,64.8 Z M223.055172,70.56 C226.175172,70.56 229.215172,70.48 232.095172,70.24 C234.935172,70.04 237.695172,69.72 240.335172,69.28 L240.615172,71.2 C235.335172,72.08 228.735172,72.52 220.815172,72.52 L220.815172,50.12 L223.055172,50.12 L223.055172,70.56 Z M247.415172,84.6 L245.175172,84.6 L245.175172,47 L247.415172,47 L247.415172,84.6 Z" id="Shape"></path>
        </g>
    </g>
</svg>