<svg xmlns="http://www.w3.org/2000/svg" width="20.001" height="201.818" viewBox="0 0 20.001 201.818">
  <path id="Path_2_Copy" data-name="Path 2 Copy" d="M142.8,20h-4.62V.909h7.543a8.478,8.478,0,0,1,5.332,1.508,5.123,5.123,0,0,1,1.922,4.261,6.218,6.218,0,0,1-.809,3.3,5.767,5.767,0,0,1-2.534,2.124l4,7.7V20h-4.95L145.3,13.261h-2.5V20h0Zm0-10.293h2.922a2.64,2.64,0,0,0,1.981-.689A2.658,2.658,0,0,0,148.37,7.1a2.692,2.692,0,0,0-.671-1.933,2.618,2.618,0,0,0-1.975-.7H142.8ZM123.953,20h-4.863L126.016.909H130.3L137.273,20h-4.889l-1.1-3.567h-6.238L123.954,20h0Zm2.179-7.121h4.059l-2.036-6.621ZM19.166,20h-4.62V.909h7.543A8.479,8.479,0,0,1,27.42,2.417a5.125,5.125,0,0,1,1.921,4.261,6.226,6.226,0,0,1-.809,3.3A5.777,5.777,0,0,1,26,12.107l4,7.7V20h-4.95l-3.383-6.739h-2.5V20h0Zm0-10.293h2.922a2.643,2.643,0,0,0,1.981-.689A2.662,2.662,0,0,0,24.735,7.1a2.692,2.692,0,0,0-.671-1.933,2.62,2.62,0,0,0-1.975-.7H19.166ZM191.812,20V4.462h-5.448V.909h15.454V4.462h-5.549V20Zm-19.084,0V.909h12.728V4.462h-8.283V8.488h6.99V11.91h-6.99v4.55h8.257V20Zm-7.083,0-3.924-7.106L159.9,14.965V20h-4.443V.909H159.9V9.327L161.441,6.9,165.415.909h5.494l-6.227,8.444L170.909,20Zm-52.85,0V15.542l.433-9.126L108.749,20H105.8L101.306,6.4l.433,9.139V20H97.273V.909h5.865l4.135,13.282L111.395.909h5.878V20Zm-30,0V15.542l.432-9.126L78.748,20H75.8L71.306,6.4l.432,9.139V20H67.272V.909h5.865l4.135,13.282L81.4.909h5.878V20ZM51.979,18.215A6.425,6.425,0,0,1,50,13.326V.909h4.476V13.416q.077,3.091,2.815,3.092a2.7,2.7,0,0,0,2.092-.776,3.678,3.678,0,0,0,.71-2.523V.909h4.451V13.235a7.2,7.2,0,0,1-.875,3.628A5.706,5.706,0,0,1,61.16,19.2a8.7,8.7,0,0,1-3.868.8A7.547,7.547,0,0,1,51.979,18.215ZM0,20V.909H12.727V4.462H4.445V8.488h6.99V11.91H4.445v4.55H12.7V20Zm35.788-2A7.485,7.485,0,0,1,32.9,14.88a10.613,10.613,0,0,1-1.085-4.658V9.175a10.986,10.986,0,0,1,1.008-4.818,7.481,7.481,0,0,1,2.89-3.222A8.168,8.168,0,0,1,40,0a8.08,8.08,0,0,1,4.238,1.123,7.624,7.624,0,0,1,2.9,3.2,10.691,10.691,0,0,1,1.047,4.753v.855a10.948,10.948,0,0,1-1.015,4.811,7.491,7.491,0,0,1-2.884,3.222,8.1,8.1,0,0,1-4.258,1.13A8.22,8.22,0,0,1,35.788,18Zm.629-9.437L36.4,9.928a8.026,8.026,0,0,0,.912,4.2,3,3,0,0,0,2.71,1.468,2.964,2.964,0,0,0,2.633-1.442,7.819,7.819,0,0,0,.938-4.147V9.15a7.817,7.817,0,0,0-.931-4.206A3.006,3.006,0,0,0,40,3.509C37.75,3.509,36.545,5.209,36.417,8.563Z" transform="translate(20.001) rotate(90)" fill="#fff" opacity="0.1"/>
</svg>
