<svg xmlns="http://www.w3.org/2000/svg" xmlns:xlink="http://www.w3.org/1999/xlink" width="45.506" height="54.405" viewBox="0 0 45.506 54.405">
  <defs>
    <linearGradient id="linear-gradient" x1="0.197" y1="0.082" x2="0.787" y2="0.753" gradientUnits="objectBoundingBox">
      <stop offset="0" stop-color="#c61fff"/>
      <stop offset="1" stop-color="#ff621e"/>
    </linearGradient>
  </defs>
  <g id="Group_34" data-name="Group 34" transform="translate(0.584 0.5)">
    <path id="Path" d="M35.663,53.4H0l1.3-8.383,18.717-17.38,2.565-2.565q6.034-6.07,5.528-11.454-.4-4.191-4.336-4.3a5.707,5.707,0,0,0-4.715,2.258,11.559,11.559,0,0,0-2.4,6.088l-11.815.072a18.043,18.043,0,0,1,3-9.051,18.683,18.683,0,0,1,7.245-6.414A20.652,20.652,0,0,1,24.751,0q7.7.145,11.924,4.173T40.36,15.068A17.777,17.777,0,0,1,37.7,22.945,40.6,40.6,0,0,1,30.93,31l-5.492,5.059-8.166,7.877,19.873.072Z" transform="translate(4 0)" fill="#333" stroke="#2c2c2c" stroke-miterlimit="10" stroke-width="1"/>
    <path id="Path-2" data-name="Path" d="M35.663,53.4H0l1.3-8.383,18.717-17.38,2.565-2.565q6.034-6.07,5.528-11.454-.4-4.191-4.336-4.3a5.707,5.707,0,0,0-4.715,2.258,11.559,11.559,0,0,0-2.4,6.088l-11.815.072a18.043,18.043,0,0,1,3-9.051,18.683,18.683,0,0,1,7.245-6.414A20.652,20.652,0,0,1,24.751,0q7.7.145,11.924,4.173T40.36,15.068A17.777,17.777,0,0,1,37.7,22.945,40.6,40.6,0,0,1,30.93,31l-5.492,5.059-8.166,7.877,19.873.072Z" transform="translate(0 0)" stroke="#2c2c2c" stroke-miterlimit="10" stroke-width="1" fill="url(#linear-gradient)"/>
  </g>
</svg>
