<?xml version="1.0" encoding="utf-8"?>
<!-- Generator: Adobe Illustrator 27.4.0, SVG Export Plug-In . SVG Version: 6.00 Build 0)  -->
<svg version="1.1" id="레이어_1" xmlns="http://www.w3.org/2000/svg" xmlns:xlink="http://www.w3.org/1999/xlink" x="0px"
	 y="0px" viewBox="0 0 255 124" style="enable-background:new 0 0 255 124;" xml:space="preserve">
<style type="text/css">
	.st0{fill:#FFFFFF;}
</style>
<g id="mem-grade7" transform="translate(-609.000000, -532.000000)">
	<g id="Group-6" transform="translate(609.113012, 532.654000)">
		<g id="membership-grade" transform="translate(2.810988, 0.000000)">
			<path id="Path" class="st0" d="M0,10.9c0,0.4,0.3,0.6,0.6,0.6c0.3,0,0.7-0.2,0.7-0.6c0-2.5,0-4.3-0.1-7.1
				c0.6,1.6,1.2,2.9,1.9,4.4c0.2,0.4,0.4,0.5,0.7,0.5c0.3,0,0.5-0.2,0.6-0.5C5.1,6.9,5.5,5.7,6.2,4c0,1.7,0,2.5,0,4.1
				c0,0.8,0,1.8,0,2.8c0,0.4,0.3,0.6,0.6,0.6c0.3,0,0.7-0.2,0.7-0.6V9c0-2.8,0-5.6,0-8.4c0-0.4-0.3-0.5-0.6-0.5
				c-0.2,0-0.4,0.1-0.5,0.4C5.6,2.7,4.6,5.1,3.8,7C3,4.8,2.4,3.7,1.2,0.8C1.2,0.6,1,0.3,0.8,0.2C0.5,0,0,0.2,0,0.6V10.9z"/>
			<path id="Path_00000180326994927556914980000016872577237229162373_" class="st0" d="M9.5,10.1c0,0.5,0.1,1,0.9,1h2.4
				c0.4,0,1,0,1.4,0c0.4,0,0.6-0.2,0.6-0.6c0-0.4-0.2-0.6-0.6-0.6l-1.1,0c-0.3,0-0.8,0-1.4,0H11c-0.2,0-0.2-0.1-0.2-0.3V8.4
				c0-0.8,0-1.6,0-2.3c0,0,2.4,0,3,0c0.4,0,0.6-0.2,0.6-0.6c0-0.3-0.3-0.5-0.5-0.5c-0.6,0-1.1,0-1.7,0c-0.6,0-1,0-1.3,0
				c0-1.3-0.1-2.4-0.1-3.7l3.1,0c0.3,0,0.7-0.1,0.7-0.6c0-0.3-0.3-0.5-0.5-0.5c-0.2,0-0.4,0-0.9,0c-0.4,0-0.8,0-1.2,0H10
				c-0.4,0-0.5,0.3-0.5,0.6v0.6c0,0.2,0,0.2,0,5.2V10.1z"/>
			<path id="Path_00000003086544885748730770000017278052034221542290_" class="st0" d="M16.2,10.9c0,0.4,0.3,0.6,0.6,0.6
				c0.3,0,0.7-0.2,0.7-0.6c0-2.5,0-4.3-0.1-7.1c0.6,1.6,1.2,2.9,1.9,4.4c0.2,0.4,0.4,0.5,0.7,0.5c0.3,0,0.5-0.2,0.6-0.5
				c0.6-1.3,1.1-2.5,1.8-4.2c0,1.7,0,2.5,0,4.1c0,0.8,0,1.8,0,2.8c0,0.4,0.3,0.6,0.6,0.6c0.3,0,0.7-0.2,0.7-0.6V9c0-2.8,0-5.6,0-8.4
				c0-0.4-0.3-0.5-0.6-0.5c-0.2,0-0.4,0.1-0.5,0.4C21.8,2.7,20.8,5.1,20,7c-0.9-2.2-1.4-3.2-2.6-6.2c-0.1-0.2-0.2-0.5-0.4-0.6
				c-0.3-0.2-0.8,0-0.8,0.4V10.9z"/>
			<path id="Shape" class="st0" d="M25.8,10.8c0,0.5,0.3,0.5,0.7,0.5c2.4,0.1,4.4-1.1,4.4-3.1c0-1.3-0.5-2.3-1.5-2.8
				c0.8-0.4,1.4-1.3,1.3-2.3c0-2-1.8-2.8-4.3-2.9c-0.5,0-0.7,0.1-0.7,0.6c0.1,2.7,0,5,0.1,7.5C25.8,8.7,25.8,10.3,25.8,10.8z
				 M27.7,6c1.5,0,2,1.2,2,2.2c0,1.3-1.1,2-2.3,2H27V8.7c0-0.9,0-1.8,0-2.8H27.7z M29.5,3.1c0,1-0.8,1.8-1.8,1.8H27
				c0-1.2,0-2.4,0-3.6C28.4,1.5,29.5,2,29.5,3.1z"/>
			<path id="Path_00000051346008533265697620000007267007744921337752_" class="st0" d="M32.6,10.1c0,0.5,0.1,1,0.9,1h2.4
				c0.4,0,1,0,1.4,0c0.4,0,0.6-0.2,0.6-0.6c0-0.4-0.2-0.6-0.6-0.6l-1.1,0c-0.3,0-0.8,0-1.4,0h-0.7c-0.2,0-0.2-0.1-0.2-0.3V8.4
				c0-0.8,0-1.6,0-2.3c0,0,2.4,0,3,0c0.4,0,0.6-0.2,0.6-0.6c0-0.3-0.3-0.5-0.5-0.5c-0.6,0-1.1,0-1.7,0c-0.6,0-1,0-1.3,0
				c0-1.3-0.1-2.4-0.1-3.7l3.1,0c0.3,0,0.7-0.1,0.7-0.6c0-0.3-0.3-0.5-0.5-0.5c-0.2,0-0.4,0-0.9,0c-0.4,0-0.8,0-1.2,0h-1.9
				c-0.4,0-0.5,0.3-0.5,0.6v0.6c0,0.2,0,0.2,0,5.2V10.1z"/>
			<path id="Shape_00000000921522786219559400000008847050627066999452_" class="st0" d="M39.4,10.8c0,0.4,0.3,0.6,0.6,0.6
				c0.3,0,0.6-0.2,0.6-0.5c0-0.4,0-1.4,0-2.4c0-0.5,0-1.1,0-1.8h0.2c0.9,1.5,1.8,3.1,2.7,4.5c0.1,0.2,0.3,0.3,0.5,0.3
				c0.2,0,0.3-0.1,0.4-0.2c0.2-0.2,0.2-0.5,0-0.8c-0.9-1.5-1.7-2.7-2.5-4.2c1.7-0.6,2.5-1.8,2.5-3.2c0-1.4-1.1-2.5-2.3-2.8
				c-0.9-0.3-1.7-0.3-2.2-0.3c-0.6,0-0.7,0.2-0.7,0.6c0,1.4,0,2.7,0,3.9V10.8z M41.6,1.4c1.2,0.3,1.7,1.2,1.7,1.9
				c0,1-0.7,1.9-2.7,2.2c0-1.5,0-3,0-4.2C40.9,1.3,41.4,1.3,41.6,1.4z"/>
			<path id="Path_00000180356789488749626080000002078463918018558115_" class="st0" d="M51.5,1.8C51.2,0.5,50.3,0,49,0
				c-2,0-2.7,1.2-2.7,2.3c0,1.1,0.8,2,2.2,3.4c1.3,1.3,2,2,2,3.1c0,0.9-0.6,1.5-1.6,1.5c-0.9,0-1.4-0.5-1.5-1.3
				c0-0.4-0.3-0.5-0.6-0.5c-0.3,0-0.6,0.2-0.6,0.6c0,1.4,1.2,2.4,2.8,2.4c1.6,0,2.9-0.9,2.9-2.6c0-1.3-0.6-2.2-2.4-4
				c-1.1-1.1-1.6-1.8-1.6-2.5c0-0.6,0.4-1.2,1.4-1.2c0.6,0,1,0.3,1.1,0.9c0.1,0.3,0.3,0.4,0.6,0.4C51.1,2.6,51.5,2.3,51.5,1.8z"/>
			<path id="Path_00000093881409477272346570000006696347534517396405_" class="st0" d="M57.6,0.7c0,1.2,0,1.9,0,3c0,0.1,0,0.9,0,1
				c-0.7,0-1.2,0-1.9,0c-0.4,0-0.9,0-1.4,0v-4c0-0.3-0.3-0.5-0.6-0.5c-0.3,0-0.6,0.2-0.6,0.5c0,0.7,0,1.5,0,2.3c0,0.8,0,1.7,0,2.2
				c0,1.3,0,2.3,0,3.3c0,0.7,0,1.6,0,2.5c0,0.4,0.3,0.6,0.6,0.6c0.3,0,0.6-0.2,0.6-0.6c0-0.1,0-0.9,0-1.5c0-1.4,0-2.3,0-3.5
				c0.7,0,1.2,0,1.9,0c0.4,0,0.9,0,1.3,0c0,1.6,0.1,3.2,0.1,4.8c0,0.4,0.3,0.6,0.6,0.6c0.3,0,0.6-0.2,0.6-0.6c0-1.7,0-3.5-0.1-5.1
				s-0.1-3.2-0.1-4.9c0-0.4-0.4-0.5-0.6-0.5C57.9,0.2,57.6,0.3,57.6,0.7z"/>
			<path id="Path_00000009571877261051482490000002751551469599753910_" class="st0" d="M63.8,11.1c0.4,0,0.6-0.3,0.6-0.5
				c0-0.3-0.2-0.5-0.6-0.5h-0.9V1.3h1c0.4,0,0.5-0.3,0.5-0.5s-0.2-0.6-0.5-0.6h-1.5c-0.5,0-1,0-1.5,0c-0.4,0-0.6,0.3-0.6,0.6
				c0,0.3,0.2,0.5,0.6,0.5c0.3,0,0.5,0,0.8,0c0,1.1,0,2.2,0,3.3c0,0.8,0,2.2,0,3c0,0.8,0,1.7,0,2.5h-0.9c-0.4,0-0.5,0.3-0.5,0.5
				c0,0.2,0.1,0.5,0.5,0.5H63.8z"/>
			<path id="Shape_00000022546040071218680210000007318051941314445461_" class="st0" d="M65.6,10.7c0,0.2,0,0.3,0.1,0.4
				c0.1,0.2,0.4,0.2,0.5,0.2c0.4,0,0.7-0.3,0.6-0.7V7.6c2.3-0.1,4.1-1.6,4-4c-0.1-1.5-0.8-2.6-2-3.1c-0.9-0.4-2-0.4-2.7-0.4
				c-0.7,0-0.6,0.7-0.6,0.7v0c0,1,0,2.2,0,3.6C65.7,6.3,65.6,8.6,65.6,10.7z M66.9,1.3c0.4,0,1.1,0.1,1.5,0.3c0.7,0.3,1.2,1,1.3,2.1
				c0,1.5-1.2,2.6-2.7,2.7V1.3z"/>
			<path id="Path_00000042002868440442123170000016188115798360802944_" class="st0" d="M80.8,6.3c0.2,0,0.3,0,0.3,0.3
				c0,1.1,0,2,0,3.1c-0.2,0.3-1,0.4-1.4,0.4c-1.6,0-2.7-1.4-2.8-4.3c0-2.3,0.9-4.6,2.8-4.7c0.6,0,1.2,0.3,1.5,0.5
				c0.3,0.2,0.6,0,0.8-0.2c0.1-0.2,0.2-0.5-0.1-0.7C81.4,0.3,80.7,0,79.6,0c-2.7,0.1-4,2.7-3.9,5.8c0,3.2,1.4,5.4,4,5.4
				c0.6,0,1.7-0.2,2.3-0.7c0.3-0.2,0.3-0.4,0.3-0.6c0-0.9,0-2,0-2.8c0-0.4,0-1.1,0-1.4c-0.1-0.5-0.3-0.6-0.7-0.6c-0.6,0-1.3,0-1.9,0
				c-0.4,0-0.5,0.3-0.5,0.6c0,0.3,0.3,0.6,0.6,0.6L80.8,6.3z"/>
			<path id="Shape_00000023265384624670983190000002441746046298959028_" class="st0" d="M84,10.8c0,0.4,0.3,0.6,0.6,0.6
				c0.3,0,0.6-0.2,0.6-0.5c0-0.4,0-1.4,0-2.4c0-0.5,0-1.1,0-1.8h0.2c0.9,1.5,1.8,3.1,2.7,4.5c0.1,0.2,0.3,0.3,0.5,0.3
				c0.2,0,0.3-0.1,0.4-0.2c0.2-0.2,0.2-0.5,0-0.8c-0.9-1.5-1.7-2.7-2.5-4.2c1.7-0.6,2.5-1.8,2.5-3.2c0-1.4-1.1-2.5-2.3-2.8
				c-0.9-0.3-1.7-0.3-2.2-0.3C84.2,0,84,0.3,84,0.7c0,1.4,0,2.7,0,3.9V10.8z M86.3,1.4C87.5,1.7,88,2.6,88,3.3c0,1-0.7,1.9-2.7,2.2
				c0-1.5,0-3,0-4.2C85.6,1.3,86,1.3,86.3,1.4z"/>
			<path id="Shape_00000000902183525393177880000005842066113722524032_" class="st0" d="M93.4,0.6c-0.4,2.2-1,4-1.4,5.6
				c-0.4,1.4-0.8,2.9-1.2,4.6c-0.1,0.5,0.2,0.8,0.6,0.8c0.3,0,0.6-0.2,0.6-0.5c0.2-1.1,0.4-2.1,0.7-2.9h2.5C95.4,9,95.6,10,95.9,11
				c0.1,0.3,0.3,0.5,0.6,0.5c0.3,0,0.7-0.3,0.6-0.8c-0.4-1.3-0.7-2.8-1-4.2c-0.5-2-1.1-4.3-1.6-6C94.5,0.2,94.2,0,94,0
				C93.6,0,93.4,0.3,93.4,0.6z M93.2,6.2c0.2-0.7,0.4-1.5,0.6-2.4C93.9,3.5,94,3,94,2.7c0.1,0.3,0.2,0.8,0.2,1.2
				c0.1,0.5,0.2,1.2,0.3,1.7c0.1,0.4,0.2,0.9,0.3,1.3H93C93.1,6.7,93.2,6.3,93.2,6.2z"/>
			<path id="Shape_00000061454665158714091500000014923239175039855504_" class="st0" d="M98.8,0.7v0.4c0,0.9,0,1.7,0.1,2.6l0,2
				c0,0.5,0,1.1,0,1.6c0,1.1,0,2.4,0.1,3.1c0.1,0.7,0.4,0.8,1,0.7c2.8,0,4.4-2,4.4-5.6c0-3.6-1.7-5.3-4.8-5.4
				C99.2,0.2,98.8,0.2,98.8,0.7z M100.1,5.7c0-0.5,0-1,0-1.5c0-1-0.1-1.9-0.1-2.9c2-0.1,3.2,1.8,3.2,4.2s-1.1,4.6-2.8,4.6
				c-0.1,0-0.1,0-0.2,0C100.1,8.7,100.1,7.2,100.1,5.7z"/>
			<path id="Path_00000018237777538232336020000009460325693579629699_" class="st0" d="M106.2,10.1c0,0.5,0.1,1,0.9,1h2.4
				c0.4,0,1,0,1.4,0c0.4,0,0.6-0.2,0.6-0.6c0-0.4-0.2-0.6-0.6-0.6l-1.1,0c-0.3,0-0.8,0-1.4,0h-0.7c-0.2,0-0.2-0.1-0.2-0.3V8.4
				c0-0.8,0-1.6,0-2.3c0,0,2.4,0,3,0c0.4,0,0.6-0.2,0.6-0.6c0-0.3-0.3-0.5-0.5-0.5c-0.6,0-1.1,0-1.7,0c-0.6,0-1,0-1.3,0
				c0-1.3-0.1-2.4-0.1-3.7l3.1,0c0.3,0,0.7-0.1,0.7-0.6c0-0.3-0.3-0.5-0.5-0.5c-0.2,0-0.4,0-0.9,0c-0.4,0-0.8,0-1.2,0h-1.9
				c-0.4,0-0.5,0.3-0.5,0.6v0.6c0,0.2,0,0.2,0,5.2V10.1z"/>
		</g>
		<g id="새로움" transform="translate(0.000000, 20.244743)">
		</g>
	</g>
</g>
<g id="회사소개">
	<g id="assets" transform="translate(-3164.000000, -12404.000000)">
		<g id="새로움-반가움-이로움" transform="translate(3164.000000, 12404.000000)">
			<g id="신규회원" transform="translate(5.559765, 4.510000)">
				<path id="Shape_00000002373348744668961030000006398529561731134391_" class="st0" d="M16,33.1c0-2.2-1.8-3.2-3.9-3.2
					s-4.1,1-4.1,3.2v5.7c0,3.9-1.2,6.5-3.9,8.9c-2.6,2.2-4.9,4.3-7.5,6.1c-1.8,1.4-1.6,3.4-0.4,4.9c1,1.4,3,2.2,4.9,1
					c2.2-1.6,4.3-3.2,6.7-5.5c3-2.6,3.9-3.9,4.3-5.3l0,0c0.4,1.4,1.2,2.2,4.1,4.7c2.2,2,4.5,3.9,6.1,5.1s3.9,0.4,4.7-1
					c1-1.4,1.4-3.4-0.4-4.7c-1.8-1.2-4.1-3.2-6.7-5.5C17,45,16,42.4,16,38.5V33.1z M40.7,30.6c0-2.2-1.8-3.2-3.9-3.2s-3.9,1-3.9,3.2
					v34.9c0,2.2,1.8,3.2,3.9,3.2s3.9-1,3.9-3.2V30.6z M39.3,83.4c1.8,0,2.8-1.6,2.8-3.2c0-1.8-0.8-3.2-2.8-3.2h-26
					c-1,0-1.4-0.4-1.4-1.4v-8.5c0-2.2-1.8-3.2-3.9-3.2s-3.9,1-3.9,3.2v11.6c0,3.9,1.2,5.1,5.3,5.1h29.8V83.4z"/>
				<path id="Path_00000096042542953025275160000006550666216930585021_" class="st0" d="M80.1,61.3v19.9c0,2.2,1.8,3.2,3.9,3.2
					c1.8,0,3.7-1,3.7-3.2V61.3h10.8c1.8,0,2.6-1.6,2.6-3.2c0-1.8-0.8-3.2-2.6-3.2h-6.1c1-4.5,1.6-9.9,1.6-15.4v-4.1
					c0-3.9-1.2-5.1-5.1-5.1H58.2c-1.8,0-2.8,1.6-2.8,3.4s0.8,3.4,2.8,3.4h26.6c1,0,1.4,0.4,1.4,1.4V40c0,5.3-0.4,10.1-1.6,15H52.3
					c-1.8,0-2.8,1.6-2.8,3.2c0,1.6,0.8,3.2,2.8,3.2H63v19.9c0,2.2,1.8,3.2,3.9,3.2c1.8,0,3.7-1,3.7-3.2V61.5h9.5V61.3z"/>
				<path id="Shape_00000096777074580083396810000008464687948523121068_" class="st0" d="M140.1,71.2c1.8-0.2,2.6-1.8,2.4-3.4
					c-0.2-1.8-1-3-2.8-2.8c-3.9,0.4-7.9,0.6-11.8,0.8v-4.5c6.1-1,9.9-4.3,9.9-9.3c0-5.9-5.3-9.5-13.8-9.5s-13.8,3.7-13.8,9.5
					c0,5.1,3.7,8.3,9.9,9.3v4.7c-4.1,0-7.9,0-12,0c-1.8,0-2.8,1.6-2.8,3.2c0,1.8,0.8,3.2,2.8,3.2C120,72.4,132,72,140.1,71.2z
					 M144.8,77.3c0,2.2,1.8,3.2,3.9,3.2c2,0,3.9-1,3.9-3.2V30.6c0-2.2-1.8-3.2-3.9-3.2c-2,0-3.9,1-3.9,3.2V77.3z M109.7,33.5
					c-1.8,0-2.6,1.6-2.6,3.2c0,1.6,0.8,3.2,2.6,3.2h28.2c1.8,0,2.8-1.6,2.8-3.2c0-1.8-0.8-3.2-2.8-3.2h-9.9v-2.6
					c0-2.2-1.8-3.2-3.9-3.2c-2,0-3.9,1-3.9,3.2v2.6H109.7z M124.1,55.6c-4.5,0-6.7-1.6-6.7-3.7s2.2-3.7,6.7-3.7
					c4.5,0,6.7,1.6,6.7,3.7S128.5,55.6,124.1,55.6z"/>
				<path id="Shape_00000148645635963293484960000004781130315726032016_" class="st0" d="M179.5,49.3c9.9,0,14.8-4.1,14.8-10.5
					s-5.1-10.5-14.8-10.5s-14.8,4.1-14.8,10.5S169.5,49.3,179.5,49.3z M179.5,43.2c-5.3,0-7.5-1.6-7.5-4.5c0-2.6,2.4-4.5,7.5-4.5
					s7.5,1.6,7.5,4.5C187,41.6,184.5,43.2,179.5,43.2z M200.2,67.4c0,2.2,1.8,3.2,3.9,3.2c2,0,3.9-1,3.9-3.2V30.6
					c0-2.2-1.8-3.2-3.9-3.2c-2,0-3.9,1-3.9,3.2v29.2H192c-1.8,0-2.6,1.4-2.6,3s0.8,3,2.6,3h8.3v1.4H200.2z M163.6,58.8
					c3.7,0,7.7,0,11.4-0.2v5.7c0,2,1.6,3,3.9,3c2.2,0,3.9-1,3.9-3v-5.9c4.7-0.2,9.1-0.6,12.8-1c1.8-0.2,2.4-1.8,2.4-3.4
					c-0.2-1.8-1-3-3-2.8c-10.1,1.2-21.5,1.4-31.2,1.4c-1.8,0-2.6,1.4-2.6,3.2C160.8,57.2,161.8,58.8,163.6,58.8z M178.9,76.9
					c-1,0-1.4-0.4-1.4-1.4v-4.3c0-2.2-1.8-3.2-3.9-3.2c-2,0-3.9,1-3.9,3.2v7.1c0,3.9,1.2,5.1,5.3,5.1h31.8c1.8,0,2.6-1.6,2.6-3.2
					c0-1.6-0.8-3.2-2.6-3.2C206.8,76.9,178.9,76.9,178.9,76.9z"/>
			</g>
		</g>
	</g>
</g>
</svg>
