<?xml version="1.0" encoding="utf-8"?>
<!-- Generator: Adobe Illustrator 27.4.0, SVG Export Plug-In . SVG Version: 6.00 Build 0)  -->
<svg version="1.1" id="레이어_1" xmlns="http://www.w3.org/2000/svg" xmlns:xlink="http://www.w3.org/1999/xlink" x="0px"
	 y="0px" viewBox="0 0 174 81" style="enable-background:new 0 0 174 81;" xml:space="preserve">
<style type="text/css">
	.st0{fill:#FFFFFF;}
	.st1{filter:url(#Adobe_OpacityMaskFilter);}
	.st2{fill-rule:evenodd;clip-rule:evenodd;fill:#FFFFFF;}
	
		.st3{mask:url(#mask-2_00000140737132778272938750000011939921496215055521_);fill-rule:evenodd;clip-rule:evenodd;fill:url(#SVGID_1_);}
	.st4{fill-rule:evenodd;clip-rule:evenodd;fill:url(#Fill-2471_00000001633044871924343010000006784771703702856859_);}
	.st5{opacity:0.5;fill-rule:evenodd;clip-rule:evenodd;fill:#FFAD7F;enable-background:new    ;}
	.st6{opacity:0.2;fill-rule:evenodd;clip-rule:evenodd;fill:#FFAD7F;enable-background:new    ;}
	
		.st7{opacity:0.4;fill-rule:evenodd;clip-rule:evenodd;fill:url(#Fill-2471-Copy_00000068671644098001085480000005053917464116623786_);enable-background:new    ;}
</style>
<g id="혜택">
	<g id="이로움-혜택-수정_12.01" transform="translate(-696.000000, -730.000000)">
		<g id="Group-6" transform="translate(696.000000, 730.000000)">
			<g id="Rectangle" transform="translate(7.641111, 12.447766)">
				<g id="Mask">
					<g>
						<path id="path-1_00000168832688788598102850000006850957417062754740_" d="M12,7.4C2.6,7.6,0,16.2,0,24.1
							c0,7.7,1.4,18.2,12.2,18.2c10.3,0,12.4-9.1,12.4-18.2S22.3,7.2,12,7.4z M12,12.3c4.9-0.4,7,3.6,7,11.8
							c0,4.3-0.3,13.3-6.8,13.3c-6.1,0-6.5-7.9-6.5-13.3C5.6,19.6,6.5,12.8,12,12.3z M33.2,56c0,1.8,1.3,2.8,2.8,2.8
							c1.1,0,2.8-0.8,2.7-2.3c-0.2-4.1-0.1-11.7-0.1-17.4c0-4.4-0.1-8.8,0-13c0-4.4,0.1-8.6,0.1-12.4V4.2c0-1.6-1.8-2.8-3.2-2.7
							c-1.4,0.2-2.4,1.1-2.4,3.1c0.2,2.8,0.3,7.5,0.3,13.4c0,3.8,0.1,13.7,0.1,18.2C33.3,42,33.2,47.4,33.2,56z M88.5,44.6
							c-3.5,0.1-11.3,0.5-17.4,0.1v-7.1c0-1.6-1.5-2.4-2.8-2.4c-1.5,0-3,0.9-2.8,2.9c0.1,2.2,0.1,4.5,0.1,6.6
							c-4.2,0.2-10.4,0.2-14.5,0.1c-1.3,0-2.5-0.1-3.7,0.1s-2.2,1.1-2.2,2.4c0,1.7,1.2,2.6,2.6,2.6c7.4-0.1,11.9-0.1,16.5-0.1
							c4.6,0,9.2,0.1,13.9,0.1c2.7,0,5.5,0.1,8.2,0.1c0,0,2.1,0,2.9-0.2c1.3-0.4,1.9-1.1,1.9-2.7C91.4,45.3,90.2,44.6,88.5,44.6z
							 M55.9,10.3h2.6c1.6,0,13.2-0.2,17.6-0.2c0.7,0,0.9,0.1,0.9,0.9c0.1,1.9,0.1,3.6,0,5.5c-2.8,0.3-17.4,0.2-20.7,0.2
							c-2.4,0-3.3,0.9-3.2,3.7c0.1,2.4,0.1,5.9,0.1,8.7c-0.1,2.3,0.6,4.3,4.3,4.5c1.3,0.1,3.4,0.1,5.8,0.1c4.2,0,9.6-0.1,15-0.3
							c2.2-0.1,3.8-0.3,4.4-0.3c1.3-0.2,2.1-1.3,2.1-2.4c0-1.3-0.9-2.6-2.9-2.5c-0.4,0-1,0.1-1.5,0.1c-0.7,0.1-2.5,0.2-3.5,0.3
							c-2.8,0.1-7.3,0.3-12.3,0.3c-1.3,0-3.6,0-4.8-0.1c-0.8-0.1-0.8-0.3-0.9-0.9c-0.1-1.3-0.1-4.4-0.1-6.1c3.5-0.1,6.4-0.1,9.3-0.1
							c5.3-0.1,10.5-0.1,11.6-0.1c3.1-0.2,3-1.4,2.9-3.3c0-6.9-0.1-3.1,0-9.6c0.1-2.8-0.8-3.8-4-3.6c-1.6,0.1-7.1,0.2-12.9,0.2
							c-2.3,0-4.6,0.1-6.7,0.1h-2.7c-2.4,0-2.9,1.2-2.9,2.5C53.3,9,54.1,10.3,55.9,10.3z M131.6,28.1c-8,0.1-16.3,0.3-24.1,0.1
							c-2.1-0.1-6.1-0.3-8.5-0.3c-0.7,0-2.1-0.1-2.7-0.1c-1.5,0.2-2.5,0.8-2.7,2.3c-0.2,1.7,0.6,2.6,1.9,2.9
							c0.9,0.1,3.1,0.1,3.8,0.1c4.8,0.1,10.2,0.1,14.9,0.1v6.1h-9.7c-1.7,0-3.3,0.3-3.3,2.8c0,8.3-0.1,11-0.1,13.1
							c0,2.7,1.1,3.9,4.6,3.9c10.8,0,12.9,0,23.2-0.4c1.8-0.1,3.1-0.8,3.2-2.9c0.1-4.1,0.1-13.8,0.1-13.8c0.1-2.1-1.1-2.8-2.8-2.8
							c-2.9,0-6.4,0.1-9.6,0.1v-4.6v-1.5c4,0,7.9-0.1,12.6-0.1c0,0,4.4-0.1,5.1-0.2c1.2-0.2,2.1-0.6,2.1-2.4c0-1.7-0.8-2.8-2.6-2.6
							C137,28,133,28.1,131.6,28.1z M115.6,2.6c-6.4,0.2-14,3.2-14,10.7c0,7.6,6.1,10.4,14,10.4c7,0,15.8-1.4,15.7-10.3
							C131.1,4.8,123.5,2.5,115.6,2.6z M107.9,54.1c-0.8,0-0.8-0.4-0.8-0.9c0-3.3,0-5.7,0.1-8.6c2.3,0,5.4-0.1,9.4-0.1
							c3.6,0,7-0.1,9.3-0.1c0.7,0,0.9,0.3,0.9,0.8v8.7c-5.1,0.3-7,0.3-10.5,0.3C113.7,54.2,110.3,54.1,107.9,54.1z M125.6,13.4
							c-0.1,4.9-5.2,5.5-10,5.5c-3.9,0-8.3-1-8.1-5.6c0.1-4.3,4-5.8,8.5-6C121.1,7.2,125.8,8.7,125.6,13.4z"/>
					</g>
					<g>
						<path id="path-1_00000018940862067013194280000008544942802727896740_" class="st0" d="M12,7.4C2.6,7.6,0,16.2,0,24.1
							c0,7.7,1.4,18.2,12.2,18.2c10.3,0,12.4-9.1,12.4-18.2S22.3,7.2,12,7.4z M12,12.3c4.9-0.4,7,3.6,7,11.8
							c0,4.3-0.3,13.3-6.8,13.3c-6.1,0-6.5-7.9-6.5-13.3C5.6,19.6,6.5,12.8,12,12.3z M33.2,56c0,1.8,1.3,2.8,2.8,2.8
							c1.1,0,2.8-0.8,2.7-2.3c-0.2-4.1-0.1-11.7-0.1-17.4c0-4.4-0.1-8.8,0-13c0-4.4,0.1-8.6,0.1-12.4V4.2c0-1.6-1.8-2.8-3.2-2.7
							c-1.4,0.2-2.4,1.1-2.4,3.1c0.2,2.8,0.3,7.5,0.3,13.4c0,3.8,0.1,13.7,0.1,18.2C33.3,42,33.2,47.4,33.2,56z M88.5,44.6
							c-3.5,0.1-11.3,0.5-17.4,0.1v-7.1c0-1.6-1.5-2.4-2.8-2.4c-1.5,0-3,0.9-2.8,2.9c0.1,2.2,0.1,4.5,0.1,6.6
							c-4.2,0.2-10.4,0.2-14.5,0.1c-1.3,0-2.5-0.1-3.7,0.1s-2.2,1.1-2.2,2.4c0,1.7,1.2,2.6,2.6,2.6c7.4-0.1,11.9-0.1,16.5-0.1
							c4.6,0,9.2,0.1,13.9,0.1c2.7,0,5.5,0.1,8.2,0.1c0,0,2.1,0,2.9-0.2c1.3-0.4,1.9-1.1,1.9-2.7C91.4,45.3,90.2,44.6,88.5,44.6z
							 M55.9,10.3h2.6c1.6,0,13.2-0.2,17.6-0.2c0.7,0,0.9,0.1,0.9,0.9c0.1,1.9,0.1,3.6,0,5.5c-2.8,0.3-17.4,0.2-20.7,0.2
							c-2.4,0-3.3,0.9-3.2,3.7c0.1,2.4,0.1,5.9,0.1,8.7c-0.1,2.3,0.6,4.3,4.3,4.5c1.3,0.1,3.4,0.1,5.8,0.1c4.2,0,9.6-0.1,15-0.3
							c2.2-0.1,3.8-0.3,4.4-0.3c1.3-0.2,2.1-1.3,2.1-2.4c0-1.3-0.9-2.6-2.9-2.5c-0.4,0-1,0.1-1.5,0.1c-0.7,0.1-2.5,0.2-3.5,0.3
							c-2.8,0.1-7.3,0.3-12.3,0.3c-1.3,0-3.6,0-4.8-0.1c-0.8-0.1-0.8-0.3-0.9-0.9c-0.1-1.3-0.1-4.4-0.1-6.1c3.5-0.1,6.4-0.1,9.3-0.1
							c5.3-0.1,10.5-0.1,11.6-0.1c3.1-0.2,3-1.4,2.9-3.3c0-6.9-0.1-3.1,0-9.6c0.1-2.8-0.8-3.8-4-3.6c-1.6,0.1-7.1,0.2-12.9,0.2
							c-2.3,0-4.6,0.1-6.7,0.1h-2.7c-2.4,0-2.9,1.2-2.9,2.5C53.3,9,54.1,10.3,55.9,10.3z M131.6,28.1c-8,0.1-16.3,0.3-24.1,0.1
							c-2.1-0.1-6.1-0.3-8.5-0.3c-0.7,0-2.1-0.1-2.7-0.1c-1.5,0.2-2.5,0.8-2.7,2.3c-0.2,1.7,0.6,2.6,1.9,2.9
							c0.9,0.1,3.1,0.1,3.8,0.1c4.8,0.1,10.2,0.1,14.9,0.1v6.1h-9.7c-1.7,0-3.3,0.3-3.3,2.8c0,8.3-0.1,11-0.1,13.1
							c0,2.7,1.1,3.9,4.6,3.9c10.8,0,12.9,0,23.2-0.4c1.8-0.1,3.1-0.8,3.2-2.9c0.1-4.1,0.1-13.8,0.1-13.8c0.1-2.1-1.1-2.8-2.8-2.8
							c-2.9,0-6.4,0.1-9.6,0.1v-4.6v-1.5c4,0,7.9-0.1,12.6-0.1c0,0,4.4-0.1,5.1-0.2c1.2-0.2,2.1-0.6,2.1-2.4c0-1.7-0.8-2.8-2.6-2.6
							C137,28,133,28.1,131.6,28.1z M115.6,2.6c-6.4,0.2-14,3.2-14,10.7c0,7.6,6.1,10.4,14,10.4c7,0,15.8-1.4,15.7-10.3
							C131.1,4.8,123.5,2.5,115.6,2.6z M107.9,54.1c-0.8,0-0.8-0.4-0.8-0.9c0-3.3,0-5.7,0.1-8.6c2.3,0,5.4-0.1,9.4-0.1
							c3.6,0,7-0.1,9.3-0.1c0.7,0,0.9,0.3,0.9,0.8v8.7c-5.1,0.3-7,0.3-10.5,0.3C113.7,54.2,110.3,54.1,107.9,54.1z M125.6,13.4
							c-0.1,4.9-5.2,5.5-10,5.5c-3.9,0-8.3-1-8.1-5.6c0.1-4.3,4-5.8,8.5-6C121.1,7.2,125.8,8.7,125.6,13.4z"/>
					</g>
				</g>
				<defs>
					<filter id="Adobe_OpacityMaskFilter" filterUnits="userSpaceOnUse" x="-34.9" y="-24.9" width="204.7" height="114.8">
						<feColorMatrix  type="matrix" values="1 0 0 0 0  0 1 0 0 0  0 0 1 0 0  0 0 0 1 0"/>
					</filter>
				</defs>
				
					<mask maskUnits="userSpaceOnUse" x="-34.9" y="-24.9" width="204.7" height="114.8" id="mask-2_00000140737132778272938750000011939921496215055521_">
					<g class="st1">
						<path id="path-1_00000111900646720653707410000006236585438631954079_" class="st2" d="M12,7.4C2.6,7.6,0,16.2,0,24.1
							c0,7.7,1.4,18.2,12.2,18.2c10.3,0,12.4-9.1,12.4-18.2S22.3,7.2,12,7.4z M12,12.3c4.9-0.4,7,3.6,7,11.8
							c0,4.3-0.3,13.3-6.8,13.3c-6.1,0-6.5-7.9-6.5-13.3C5.6,19.6,6.5,12.8,12,12.3z M33.2,56c0,1.8,1.3,2.8,2.8,2.8
							c1.1,0,2.8-0.8,2.7-2.3c-0.2-4.1-0.1-11.7-0.1-17.4c0-4.4-0.1-8.8,0-13c0-4.4,0.1-8.6,0.1-12.4V4.2c0-1.6-1.8-2.8-3.2-2.7
							c-1.4,0.2-2.4,1.1-2.4,3.1c0.2,2.8,0.3,7.5,0.3,13.4c0,3.8,0.1,13.7,0.1,18.2C33.3,42,33.2,47.4,33.2,56z M88.5,44.6
							c-3.5,0.1-11.3,0.5-17.4,0.1v-7.1c0-1.6-1.5-2.4-2.8-2.4c-1.5,0-3,0.9-2.8,2.9c0.1,2.2,0.1,4.5,0.1,6.6
							c-4.2,0.2-10.4,0.2-14.5,0.1c-1.3,0-2.5-0.1-3.7,0.1s-2.2,1.1-2.2,2.4c0,1.7,1.2,2.6,2.6,2.6c7.4-0.1,11.9-0.1,16.5-0.1
							c4.6,0,9.2,0.1,13.9,0.1c2.7,0,5.5,0.1,8.2,0.1c0,0,2.1,0,2.9-0.2c1.3-0.4,1.9-1.1,1.9-2.7C91.4,45.3,90.2,44.6,88.5,44.6z
							 M55.9,10.3h2.6c1.6,0,13.2-0.2,17.6-0.2c0.7,0,0.9,0.1,0.9,0.9c0.1,1.9,0.1,3.6,0,5.5c-2.8,0.3-17.4,0.2-20.7,0.2
							c-2.4,0-3.3,0.9-3.2,3.7c0.1,2.4,0.1,5.9,0.1,8.7c-0.1,2.3,0.6,4.3,4.3,4.5c1.3,0.1,3.4,0.1,5.8,0.1c4.2,0,9.6-0.1,15-0.3
							c2.2-0.1,3.8-0.3,4.4-0.3c1.3-0.2,2.1-1.3,2.1-2.4c0-1.3-0.9-2.6-2.9-2.5c-0.4,0-1,0.1-1.5,0.1c-0.7,0.1-2.5,0.2-3.5,0.3
							c-2.8,0.1-7.3,0.3-12.3,0.3c-1.3,0-3.6,0-4.8-0.1c-0.8-0.1-0.8-0.3-0.9-0.9c-0.1-1.3-0.1-4.4-0.1-6.1c3.5-0.1,6.4-0.1,9.3-0.1
							c5.3-0.1,10.5-0.1,11.6-0.1c3.1-0.2,3-1.4,2.9-3.3c0-6.9-0.1-3.1,0-9.6c0.1-2.8-0.8-3.8-4-3.6c-1.6,0.1-7.1,0.2-12.9,0.2
							c-2.3,0-4.6,0.1-6.7,0.1h-2.7c-2.4,0-2.9,1.2-2.9,2.5C53.3,9,54.1,10.3,55.9,10.3z M131.6,28.1c-8,0.1-16.3,0.3-24.1,0.1
							c-2.1-0.1-6.1-0.3-8.5-0.3c-0.7,0-2.1-0.1-2.7-0.1c-1.5,0.2-2.5,0.8-2.7,2.3c-0.2,1.7,0.6,2.6,1.9,2.9
							c0.9,0.1,3.1,0.1,3.8,0.1c4.8,0.1,10.2,0.1,14.9,0.1v6.1h-9.7c-1.7,0-3.3,0.3-3.3,2.8c0,8.3-0.1,11-0.1,13.1
							c0,2.7,1.1,3.9,4.6,3.9c10.8,0,12.9,0,23.2-0.4c1.8-0.1,3.1-0.8,3.2-2.9c0.1-4.1,0.1-13.8,0.1-13.8c0.1-2.1-1.1-2.8-2.8-2.8
							c-2.9,0-6.4,0.1-9.6,0.1v-4.6v-1.5c4,0,7.9-0.1,12.6-0.1c0,0,4.4-0.1,5.1-0.2c1.2-0.2,2.1-0.6,2.1-2.4c0-1.7-0.8-2.8-2.6-2.6
							C137,28,133,28.1,131.6,28.1z M115.6,2.6c-6.4,0.2-14,3.2-14,10.7c0,7.6,6.1,10.4,14,10.4c7,0,15.8-1.4,15.7-10.3
							C131.1,4.8,123.5,2.5,115.6,2.6z M107.9,54.1c-0.8,0-0.8-0.4-0.8-0.9c0-3.3,0-5.7,0.1-8.6c2.3,0,5.4-0.1,9.4-0.1
							c3.6,0,7-0.1,9.3-0.1c0.7,0,0.9,0.3,0.9,0.8v8.7c-5.1,0.3-7,0.3-10.5,0.3C113.7,54.2,110.3,54.1,107.9,54.1z M125.6,13.4
							c-0.1,4.9-5.2,5.5-10,5.5c-3.9,0-8.3-1-8.1-5.6c0.1-4.3,4-5.8,8.5-6C121.1,7.2,125.8,8.7,125.6,13.4z"/>
					</g>
				</mask>
				
					<linearGradient id="SVGID_1_" gradientUnits="userSpaceOnUse" x1="-884.3306" y1="564.3801" x2="-883.5342" y2="564.1188" gradientTransform="matrix(204.6762 0 0 -114.8293 180967.8438 64818.9844)">
					<stop  offset="0" style="stop-color:#FDFB4B"/>
					<stop  offset="1" style="stop-color:#FF968E"/>
				</linearGradient>
				<path class="st3" d="M-5.6-23.9L18-18.4l0,0l105.9-6.5c3.5-0.2,6.7,1.9,8,5.2c4.2,11,6.2,16.6,6.2,16.8
					c-0.4,16.3,22.6,16.5,23.3,21.2c3.5,24.4,8.4,40.4,8.4,52.7c0,18.3-15.8,23.4-47.5,15.1l0,0c0,0,0,0,0,0
					c-21.9-5.6-41.7-8.5-59.3-8.5c-14.4,0-35.1,1.9-62.1,5.6l0,0c-4.4,0.6-8.4-2.4-9-6.8c-0.2-1.3,0-2.6,0.4-3.8c0,0,0,0,0,0
					C-10,60.4,16.7,54.3,12.7,46.7C8.1,37.9-35,22.4-34.9,18.3C-34.4,5.9-15.1,4.7-15.1-2.9c0-5.1-0.1-9.3-0.3-12.8
					c-0.2-4.4,3.1-8.2,7.6-8.4C-7.1-24.2-6.3-24.1-5.6-23.9z"/>
			</g>
			
				<linearGradient id="Fill-2471_00000116957195321531990370000001461819782602195104_" gradientUnits="userSpaceOnUse" x1="-832.0759" y1="549.8323" x2="-831.2913" y2="549.058" gradientTransform="matrix(18.0556 0 0 -15.8889 15025.9443 8802.998)">
				<stop  offset="0" style="stop-color:#FECE69"/>
				<stop  offset="1" style="stop-color:#FFAD7F"/>
			</linearGradient>
			
				<path id="Fill-2471" style="fill-rule:evenodd;clip-rule:evenodd;fill:url(#Fill-2471_00000116957195321531990370000001461819782602195104_);" d="
				M3.8,71.5c2.8-1.2,6.2-0.5,6.9,0.8c0.3,0.5-0.3,1.5-1.2,1.1c-0.9-0.3-1.4-0.1-1.8,0.3c-0.4,0.4-0.9,1.8,0.9,2.6
				c1.4,0.6,3.7,0.5,5.5-1.3c0.9-1,1-2,1.5-2.4c0.7-0.7,1.5-0.6,2.1,0c0.1,0.1,0.2,0.3,0.2,0.5c0.3,1.1-0.9,2.8-1.6,3.6
				c-0.8,0.9-2.9,2.7-5.6,2.8c-2.8,0.1-4.6-1.2-6-2.3c-1.4-1.1-3-2.7-4.8-1.9C0,75.3,1.1,72.7,3.8,71.5C3.8,71.5,3.8,71.5,3.8,71.5z
				 M9.1,63.6l0.2,0c4,0.2,4.2,4.1,4.2,4.5l0,0l0,0c1,0,4,0.3,4.5,3.7c-0.3-0.3-0.8-0.4-1.2-0.4c-0.6,0-1.2,0.2-1.7,0.7
				c-0.3,0.3-0.5,0.6-0.6,1c-0.2,0.4-0.4,0.9-0.9,1.3c-1.5,1.5-3.5,1.6-4.8,1.1c-0.3-0.1-0.8-0.4-0.8-0.7c0-0.2,0.1-0.5,0.2-0.6
				c0.2-0.2,0.4-0.4,1-0.1c0.7,0.2,1.5,0,1.9-0.5c0.4-0.5,0.5-1.2,0.2-1.7c-1.1-1.8-5.1-2.1-7.8-1.2c0.1-3.5,2.1-7.4,5.7-7.2
				L9.1,63.6z"/>
			<path id="Fill-2471-Copy-2" class="st5" d="M133.9,6.6c1.3-0.5,2.9-0.2,3.2,0.3c0.1,0.2-0.1,0.6-0.6,0.5c-0.4-0.1-0.6,0-0.8,0.1
				c-0.2,0.2-0.4,0.8,0.4,1.2c0.6,0.3,1.7,0.2,2.5-0.6c0.4-0.4,0.5-0.9,0.7-1.1c0.3-0.3,0.7-0.3,1,0c0.1,0.1,0.1,0.1,0.1,0.2
				c0.1,0.5-0.4,1.2-0.7,1.6c-0.4,0.4-1.3,1.2-2.6,1.2c-1.3,0-2.1-0.5-2.8-1c-0.6-0.5-1.4-1.2-2.2-0.9
				C132.2,8.3,132.7,7.2,133.9,6.6C133.9,6.6,133.9,6.6,133.9,6.6z M136.3,2.9l0.2,0c1.8,0.1,1.9,1.8,1.9,2.1l0,0l0,0
				c0.4,0,1.8,0.1,2.1,1.7c-0.2-0.1-0.3-0.2-0.5-0.2c-0.3,0-0.5,0.1-0.8,0.3c-0.1,0.1-0.2,0.3-0.3,0.5c-0.1,0.2-0.2,0.4-0.4,0.6
				c-0.7,0.7-1.6,0.7-2.2,0.5c-0.2-0.1-0.4-0.2-0.4-0.3c0-0.1,0-0.2,0.1-0.3c0.1-0.1,0.2-0.2,0.5-0.1c0.3,0.1,0.7,0,0.9-0.2
				c0.2-0.2,0.2-0.5,0.1-0.8c-0.5-0.8-2.3-1-3.5-0.5c0-1.6,0.9-3.4,2.6-3.3L136.3,2.9z"/>
			<path id="Fill-2471-Copy-2_00000065764282907144398580000002465105825334222479_" class="st6" d="M16.2,71.2
				c1.8-0.7,4-0.3,4.4,0.5c0.2,0.3-0.2,0.9-0.8,0.7c-0.6-0.2-0.9,0-1.1,0.2c-0.3,0.3-0.6,1.1,0.6,1.5c0.9,0.3,2.4,0.3,3.5-0.8
				c0.6-0.6,0.6-1.1,0.9-1.4c0.4-0.4,1-0.3,1.3,0c0.1,0.1,0.1,0.2,0.2,0.3c0.2,0.7-0.6,1.6-1,2.1c-0.5,0.6-1.8,1.6-3.6,1.6
				c-1.8,0.1-3-0.7-3.9-1.3c-0.9-0.6-1.9-1.6-3.1-1.1C13.7,73.4,14.4,71.9,16.2,71.2C16.2,71.2,16.2,71.2,16.2,71.2z M19.4,65.8
				l0.2,0c2.6,0.1,2.7,2.6,2.8,2.9l0,0l0,0c0.6,0,2.6,0.2,3,2.4c-0.2-0.2-0.5-0.3-0.8-0.3c-0.4,0-0.8,0.1-1.1,0.4
				c-0.2,0.2-0.3,0.4-0.4,0.7c-0.1,0.3-0.3,0.6-0.6,0.9c-1,1-2.3,1-3.1,0.7c-0.2-0.1-0.5-0.3-0.5-0.5c0-0.2,0-0.3,0.1-0.4
				c0.1-0.1,0.2-0.2,0.7-0.1c0.5,0.2,1,0,1.3-0.3c0.3-0.3,0.3-0.8,0.1-1.1c-0.7-1.2-3.3-1.4-5-0.8c0.1-2.3,1.4-4.8,3.7-4.6
				L19.4,65.8z"/>
			
				<linearGradient id="Fill-2471-Copy_00000032650107173248314100000013863666764106219150_" gradientUnits="userSpaceOnUse" x1="-828.0418" y1="546.6096" x2="-827.5418" y2="545.8636" gradientTransform="matrix(16.7239 0 0 -14.4444 13992.874 7900.9443)">
				<stop  offset="0" style="stop-color:#FECF68"/>
				<stop  offset="1" style="stop-color:#FFAD7F"/>
			</linearGradient>
			
				<path id="Fill-2471-Copy" style="opacity:0.4;fill-rule:evenodd;clip-rule:evenodd;fill:url(#Fill-2471-Copy_00000032650107173248314100000013863666764106219150_);enable-background:new    ;" d="
				M143.7,8.8c2.6-1.1,5.7-0.4,6.4,0.7c0.3,0.5-0.3,1.3-1.1,1c-0.8-0.3-1.3-0.1-1.6,0.3c-0.4,0.4-0.8,1.6,0.9,2.3
				c1.3,0.5,3.4,0.5,5.1-1.2c0.9-0.9,0.9-1.7,1.4-2.2c0.6-0.6,1.4-0.5,1.9,0c0.1,0.1,0.2,0.3,0.2,0.4c0.3,1-0.8,2.5-1.5,3.2
				c-0.8,0.8-2.6,2.4-5.2,2.5c-2.6,0.1-4.3-1.1-5.6-2c-1.3-1-2.8-2.4-4.4-1.7l0,0C140.2,11.9,141.2,9.8,143.7,8.8
				C143.6,8.8,143.7,8.8,143.7,8.8z M148.6,1.5l0.2,0c3.7,0.2,3.8,3.7,3.8,4.1l0,0.1l0,0c0.9,0,3.6,0.3,4.1,3.4
				c-0.3-0.2-0.7-0.4-1.1-0.4c-0.6,0-1.1,0.2-1.5,0.6c-0.3,0.3-0.4,0.6-0.6,0.9c-0.2,0.4-0.4,0.8-0.8,1.2c-1.4,1.4-3.2,1.5-4.3,1
				c-0.3-0.1-0.7-0.4-0.8-0.7c0-0.2,0.1-0.5,0.1-0.5c0.2-0.2,0.3-0.3,0.9-0.1c0.7,0.2,1.3,0,1.8-0.5c0.4-0.5,0.4-1.1,0.2-1.5
				c-1-1.7-4.6-2-7.1-1.1c0.1-3.2,1.9-6.7,5.2-6.6L148.6,1.5z"/>
		</g>
	</g>
</g>
</svg>
