<svg id="beauty_copy" data-name="beauty copy" xmlns="http://www.w3.org/2000/svg" xmlns:xlink="http://www.w3.org/1999/xlink" width="88.102" height="17.534" viewBox="0 0 88.102 17.534">
  <defs>
    <clipPath id="clip-path">
      <path id="Path_5" data-name="Path 5" d="M49,17.309a6.787,6.787,0,0,1-3.234-.8,4.707,4.707,0,0,1-2.022-2.168,5.84,5.84,0,0,1-.439-3.193L45.2,0h4.031L47.348,11.156a5.408,5.408,0,0,0-.023,1.113,2.014,2.014,0,0,0,.545,1.347,1.993,1.993,0,0,0,1.377.516q2.577.082,3.1-2.988L54.251,0h4.008l-1.9,11.133a7,7,0,0,1-2.384,4.559,7.212,7.212,0,0,1-4.815,1.619Zm-23.282-.247H14.529L17.482,0h11.45l-.551,3.176H20.951l-.633,3.6H26.6l-.527,3.058H19.8L19.087,13.9h7.419l-.435,2.5L34.754,0h3.774l3.151,17.061H37.507l-.41-3.187H31.649l-1.512,3.187H25.718ZM33.148,10.7h3.539l-.75-5.882Zm42.5,6.363,1.1-6.328L73.336.012,77.508,0l1.769,7.383L83.59,0H88.1L80.743,11.121l-1.02,5.941Zm-14.376,0L63.682,3.176H58.8L59.358,0H73.21l-.551,3.176H67.69l-2.4,13.886ZM0,17.062,2.953,0,8.379.012A7.948,7.948,0,0,1,13.172,1.23a3.7,3.7,0,0,1,1.442,3.387,4.249,4.249,0,0,1-2.953,3.82,2.9,2.9,0,0,1,1.552,1.272,3.73,3.73,0,0,1,.474,2.209,4.926,4.926,0,0,1-1.951,3.809,8.034,8.034,0,0,1-4.892,1.336ZM4.559,13.9l2.4.012a3.071,3.071,0,0,0,1.876-.557,2.192,2.192,0,0,0,.89-1.482,1.9,1.9,0,0,0-.242-1.532A1.642,1.642,0,0,0,8.227,9.82L5.273,9.808ZM5.73,7.114l1.887.012c1.733-.04,2.719-.714,2.93-2a1.658,1.658,0,0,0-.283-1.366,2.191,2.191,0,0,0-1.709-.567L6.422,3.176Z" fill="#111"/>
    </clipPath>
  </defs>
  <path id="Path_5-2" data-name="Path 5" d="M49,17.309a6.787,6.787,0,0,1-3.234-.8,4.707,4.707,0,0,1-2.022-2.168,5.84,5.84,0,0,1-.439-3.193L45.2,0h4.031L47.348,11.156a5.408,5.408,0,0,0-.023,1.113,2.014,2.014,0,0,0,.545,1.347,1.993,1.993,0,0,0,1.377.516q2.577.082,3.1-2.988L54.251,0h4.008l-1.9,11.133a7,7,0,0,1-2.384,4.559,7.212,7.212,0,0,1-4.815,1.619Zm-23.282-.247H14.529L17.482,0h11.45l-.551,3.176H20.951l-.633,3.6H26.6l-.527,3.058H19.8L19.087,13.9h7.419l-.435,2.5L34.754,0h3.774l3.151,17.061H37.507l-.41-3.187H31.649l-1.512,3.187H25.718ZM33.148,10.7h3.539l-.75-5.882Zm42.5,6.363,1.1-6.328L73.336.012,77.508,0l1.769,7.383L83.59,0H88.1L80.743,11.121l-1.02,5.941Zm-14.376,0L63.682,3.176H58.8L59.358,0H73.21l-.551,3.176H67.69l-2.4,13.886ZM0,17.062,2.953,0,8.379.012A7.948,7.948,0,0,1,13.172,1.23a3.7,3.7,0,0,1,1.442,3.387,4.249,4.249,0,0,1-2.953,3.82,2.9,2.9,0,0,1,1.552,1.272,3.73,3.73,0,0,1,.474,2.209,4.926,4.926,0,0,1-1.951,3.809,8.034,8.034,0,0,1-4.892,1.336ZM4.559,13.9l2.4.012a3.071,3.071,0,0,0,1.876-.557,2.192,2.192,0,0,0,.89-1.482,1.9,1.9,0,0,0-.242-1.532A1.642,1.642,0,0,0,8.227,9.82L5.273,9.808ZM5.73,7.114l1.887.012c1.733-.04,2.719-.714,2.93-2a1.658,1.658,0,0,0-.283-1.366,2.191,2.191,0,0,0-1.709-.567L6.422,3.176Z" fill="#111"/>
  <g id="beauty_copy-2" data-name="beauty copy" clip-path="url(#clip-path)">
    <circle id="Oval" cx="69.5" cy="69.5" r="69.5" transform="translate(16.816 -140.736)" fill="#fff" opacity="0.5"/>
  </g>
</svg>
