<svg xmlns="http://www.w3.org/2000/svg" xmlns:xlink="http://www.w3.org/1999/xlink" width="54.951" height="66.838" viewBox="0 0 54.951 66.838">
  <defs>
    <linearGradient id="linear-gradient" x1="1" x2="0.291" y2="1" gradientUnits="objectBoundingBox">
      <stop offset="0" stop-color="#fec422"/>
      <stop offset="1" stop-color="#ff6e6e"/>
    </linearGradient>
  </defs>
  <path id="Path_4" data-name="Path 4" d="M14.674,65.838c-.231,0-.467,0-.7-.007-.635,0-1.269-.031-1.884-.079a30.156,30.156,0,0,0,9.233-2.139,22,22,0,0,0,9.185-6.724,17.786,17.786,0,0,0,3.735-10.261,15.414,15.414,0,0,0-1.89-8.437,14.471,14.471,0,0,0-6.372-5.846c7.465-3.5,11.443-8.318,11.822-14.326.321-5.365-1.38-9.719-5.054-12.941C29.5,2.224,25.108.554,19.706.112,20.565.037,21.44,0,22.308,0h.236A29.479,29.479,0,0,1,31.179,1.38a19,19,0,0,1,6.57,3.7,14.537,14.537,0,0,1,4.032,5.663A17.1,17.1,0,0,1,42.8,18.018a13.89,13.89,0,0,1-3.241,8.108,24.346,24.346,0,0,1-8.58,6.218,14.482,14.482,0,0,1,6.372,5.846,15.429,15.429,0,0,1,1.89,8.438,17.787,17.787,0,0,1-3.736,10.261,22.006,22.006,0,0,1-9.184,6.724A30.658,30.658,0,0,1,14.674,65.838ZM10.479,54.364h0q-.137,0-.274,0a6.7,6.7,0,0,1-5.053-2.109,7.645,7.645,0,0,1-1.846-5.142h5a7.643,7.643,0,0,0,1.845,5.142,6.05,6.05,0,0,0,2.892,1.793A10.166,10.166,0,0,1,10.479,54.364Zm3.154-27.557-1.466-.01.005-.034,2.113.014C14.051,26.794,13.837,26.8,13.633,26.807ZM0,17.492H0v-.029L9.5,17.4a7.443,7.443,0,0,1,2.813-4.439,7.705,7.705,0,0,1,4.77-1.587c.094,0,.189,0,.284,0a7.473,7.473,0,0,1,2.282.36,7.711,7.711,0,0,0-2.336,1.222A7.45,7.45,0,0,0,14.5,17.4L0,17.492Z" transform="translate(11.609 0.5)" fill="#333" stroke="#2c2c2c" stroke-miterlimit="10" stroke-width="1"/>
  <g id="그룹_5" data-name="그룹 5" transform="translate(-304.939 -186.548)">
    <path id="Path" d="M18.282,26.764l6.46.044a9.9,9.9,0,0,0,6.5-2.307,9.385,9.385,0,0,0,3.032-6.218,6.391,6.391,0,0,0-1.187-4.922,5.65,5.65,0,0,0-4.614-1.978,7.714,7.714,0,0,0-5.054,1.582A7.414,7.414,0,0,0,20.611,17.4l-14.5.088a16.045,16.045,0,0,1,3.34-9.185,19.922,19.922,0,0,1,8.2-6.174A27.323,27.323,0,0,1,28.653,0q9.668.22,15.205,5.076t5.054,12.942q-.571,9.053-11.821,14.326a14.407,14.407,0,0,1,6.372,5.845,15.35,15.35,0,0,1,1.89,8.438,17.706,17.706,0,0,1-3.735,10.261,21.9,21.9,0,0,1-9.185,6.724,30.689,30.689,0,0,1-12.349,2.219A22.968,22.968,0,0,1,9.647,63.392a17.285,17.285,0,0,1-7.185-6.614A18.275,18.275,0,0,1,0,47.11H14.415a7.608,7.608,0,0,0,1.846,5.142,6.676,6.676,0,0,0,5.054,2.109,9.682,9.682,0,0,0,6.46-2.153,8.881,8.881,0,0,0,3.34-5.889q.527-3.911-1.165-6.13T24.3,37.838l-7.734-.044Z" transform="translate(305.439 187.048)" stroke="#2c2c2c" stroke-miterlimit="10" stroke-width="1" fill="url(#linear-gradient)"/>
  </g>
</svg>
