<svg id="SILVER_Copy" data-name="SILVER Copy" xmlns="http://www.w3.org/2000/svg" xmlns:xlink="http://www.w3.org/1999/xlink" width="144.901" height="36.793" viewBox="0 0 144.901 36.793">
  <defs>
    <linearGradient id="linear-gradient" x1="-0.054" y1="0.254" x2="1" y2="0.692" gradientUnits="objectBoundingBox">
      <stop offset="0" stop-color="#6f6f6f"/>
      <stop offset="0.387" stop-color="#232323"/>
      <stop offset="0.629" stop-color="#252525"/>
      <stop offset="1" stop-color="#575757"/>
    </linearGradient>
  </defs>
  <path id="Combined_Shape" data-name="Combined Shape" d="M6.9,34.274A11.561,11.561,0,0,1,1.734,30.11,10.844,10.844,0,0,1,0,24.022H8.422a5.341,5.341,0,0,0,1.447,4.127q1.447,1.328,4.7,1.328a5.407,5.407,0,0,0,3.29-.9,2.963,2.963,0,0,0,1.209-2.524,3.451,3.451,0,0,0-1.3-2.871,16.2,16.2,0,0,0-4.582-2.129,43.943,43.943,0,0,1-5.359-2.129Q1.052,15.6,1.053,9.786A8.194,8.194,0,0,1,2.74,4.677,10.911,10.911,0,0,1,7.512,1.232,18.573,18.573,0,0,1,14.451,0a16.238,16.238,0,0,1,6.735,1.34,10.66,10.66,0,0,1,4.63,3.816,9.964,9.964,0,0,1,1.651,5.658H19.093a4.213,4.213,0,0,0-1.3-3.3A5.084,5.084,0,0,0,14.26,6.341a5.735,5.735,0,0,0-3.553.993A3.048,3.048,0,0,0,9.4,9.858a3.065,3.065,0,0,0,1.436,2.428,18.12,18.12,0,0,0,5.048,2.249,30.866,30.866,0,0,1,5.934,2.5q5.646,3.254,5.647,8.972a8.5,8.5,0,0,1-3.445,7.177q-3.447,2.608-9.451,2.608A18.754,18.754,0,0,1,6.9,34.274Zm117.306,1.042h-8.4V.479h13.71c4.112,0,7.372.925,9.689,2.751a9.364,9.364,0,0,1,3.494,7.776,11.382,11.382,0,0,1-1.472,6.029,10.493,10.493,0,0,1-4.606,3.876L143.9,34.956v.358h-9l-6.149-12.3H124.21v12.3h0Zm0-18.783h5.312a4.794,4.794,0,0,0,3.6-1.256,4.868,4.868,0,0,0,1.208-3.5,4.923,4.923,0,0,0-1.22-3.529,4.742,4.742,0,0,0-3.588-1.281H124.21ZM90.827,35.314V.479h24.045V6.962H99.225v7.345h13.207v6.245H99.225v8.3h15.6v6.459Zm-21.014,0L58.185.479h9.307L74.407,25.84,81.345.479h9.379L79,35.314Zm-28.121,0V.479h8.4V28.855H64.709v6.459Zm-11.778,0V.479h8.375V35.314Z" transform="translate(1)" fill="#1e1e1e"/>
  <path id="Combined_Shape-2" data-name="Combined Shape" d="M6.9,34.274A11.561,11.561,0,0,1,1.734,30.11,10.844,10.844,0,0,1,0,24.022H8.422a5.341,5.341,0,0,0,1.447,4.127q1.447,1.328,4.7,1.328a5.407,5.407,0,0,0,3.29-.9,2.963,2.963,0,0,0,1.209-2.524,3.451,3.451,0,0,0-1.3-2.871,16.2,16.2,0,0,0-4.582-2.129,43.943,43.943,0,0,1-5.359-2.129Q1.052,15.6,1.053,9.786A8.194,8.194,0,0,1,2.74,4.677,10.911,10.911,0,0,1,7.512,1.232,18.573,18.573,0,0,1,14.451,0a16.238,16.238,0,0,1,6.735,1.34,10.66,10.66,0,0,1,4.63,3.816,9.964,9.964,0,0,1,1.651,5.658H19.093a4.213,4.213,0,0,0-1.3-3.3A5.084,5.084,0,0,0,14.26,6.341a5.735,5.735,0,0,0-3.553.993A3.048,3.048,0,0,0,9.4,9.858a3.065,3.065,0,0,0,1.436,2.428,18.12,18.12,0,0,0,5.048,2.249,30.866,30.866,0,0,1,5.934,2.5q5.646,3.254,5.647,8.972a8.5,8.5,0,0,1-3.445,7.177q-3.447,2.608-9.451,2.608A18.754,18.754,0,0,1,6.9,34.274Zm117.306,1.042h-8.4V.479h13.71c4.112,0,7.372.925,9.689,2.751a9.364,9.364,0,0,1,3.494,7.776,11.382,11.382,0,0,1-1.472,6.029,10.493,10.493,0,0,1-4.606,3.876L143.9,34.956v.358h-9l-6.149-12.3H124.21v12.3h0Zm0-18.783h5.312a4.794,4.794,0,0,0,3.6-1.256,4.868,4.868,0,0,0,1.208-3.5,4.923,4.923,0,0,0-1.22-3.529,4.742,4.742,0,0,0-3.588-1.281H124.21ZM90.827,35.314V.479h24.045V6.962H99.225v7.345h13.207v6.245H99.225v8.3h15.6v6.459Zm-21.014,0L58.185.479h9.307L74.407,25.84,81.345.479h9.379L79,35.314Zm-28.121,0V.479h8.4V28.855H64.709v6.459Zm-11.778,0V.479h8.375V35.314Z" transform="translate(0 1)" fill="url(#linear-gradient)"/>
</svg>
