<svg xmlns="http://www.w3.org/2000/svg" xmlns:xlink="http://www.w3.org/1999/xlink" width="71.683" height="17.534" viewBox="0 0 71.683 17.534">
  <defs>
    <clipPath id="clip-path">
      <path id="Path_4" data-name="Path 4" d="M63.234,17.533a6.2,6.2,0,0,1-3.621-1.078,5.74,5.74,0,0,1-2.11-2.941,9.572,9.572,0,0,1-.339-4.254l.094-.7a10.824,10.824,0,0,1,2.794-6.293A7.215,7.215,0,0,1,65.578,0a6.21,6.21,0,0,1,4.394,1.535,6.294,6.294,0,0,1,1.711,4.3L67.84,5.826a3.157,3.157,0,0,0-.674-2,2.3,2.3,0,0,0-1.682-.668,3.114,3.114,0,0,0-2.671,1.272,8.077,8.077,0,0,0-1.442,3.8,14.971,14.971,0,0,0-.234,3.281q.176,2.824,2.542,2.859a4.3,4.3,0,0,0,2.508-.691l.527-2.66H63.938l.492-2.824h6.785l-1.1,7.02a6.14,6.14,0,0,1-2.8,1.74,12.042,12.042,0,0,1-3.838.582ZM50.065,17.31,45.986,6.54,44.112,17.31H40.1L43.057.248h3.914l4.066,10.769L52.9.248h4.008L53.943,17.31Zm-16.229,0L36.8.248h4L37.844,17.31Zm-10.743,0L20.234.248h4.335l1.337,12.375L31.132.248h4.594L27.476,17.31Zm-10.686,0L15.373.248h4L16.416,17.31ZM0,17.31,2.953.248H6.972l-2.414,13.9h6.949l-.551,3.163Z" transform="translate(0 0)" fill="#111"/>
    </clipPath>
  </defs>
  <g id="living_copy" data-name="living copy" transform="translate(0 0)">
    <path id="Path_4-2" data-name="Path 4" d="M63.234,17.533a6.2,6.2,0,0,1-3.621-1.078,5.74,5.74,0,0,1-2.11-2.941,9.572,9.572,0,0,1-.339-4.254l.094-.7a10.824,10.824,0,0,1,2.794-6.293A7.215,7.215,0,0,1,65.578,0a6.21,6.21,0,0,1,4.394,1.535,6.294,6.294,0,0,1,1.711,4.3L67.84,5.826a3.157,3.157,0,0,0-.674-2,2.3,2.3,0,0,0-1.682-.668,3.114,3.114,0,0,0-2.671,1.272,8.077,8.077,0,0,0-1.442,3.8,14.971,14.971,0,0,0-.234,3.281q.176,2.824,2.542,2.859a4.3,4.3,0,0,0,2.508-.691l.527-2.66H63.938l.492-2.824h6.785l-1.1,7.02a6.14,6.14,0,0,1-2.8,1.74,12.042,12.042,0,0,1-3.838.582ZM50.065,17.31,45.986,6.54,44.112,17.31H40.1L43.057.248h3.914l4.066,10.769L52.9.248h4.008L53.943,17.31Zm-16.229,0L36.8.248h4L37.844,17.31Zm-10.743,0L20.234.248h4.335l1.337,12.375L31.132.248h4.594L27.476,17.31Zm-10.686,0L15.373.248h4L16.416,17.31ZM0,17.31,2.953.248H6.972l-2.414,13.9h6.949l-.551,3.163Z" transform="translate(0 0)" fill="#111"/>
    <g id="living_copy-2" data-name="living copy" clip-path="url(#clip-path)">
      <circle id="Oval" cx="62" cy="62" r="62" transform="translate(16.316 -125.489)" fill="#fff" opacity="0.5"/>
    </g>
  </g>
</svg>
