<?xml version="1.0" encoding="UTF-8"?>
<svg width="102px" height="10px" viewBox="0 0 102 10" version="1.1" xmlns="http://www.w3.org/2000/svg" xmlns:xlink="http://www.w3.org/1999/xlink">
    <title>Group</title>
    <defs>
        <linearGradient x1="0%" y1="49.5817362%" x2="100%" y2="50.4934784%" id="linearGradient-1">
            <stop stop-color="#6E6E6E" offset="0%"></stop>
            <stop stop-color="#767676" offset="24.1361453%"></stop>
            <stop stop-color="#4E4E4E" offset="47.1360427%"></stop>
            <stop stop-color="#B1B1B1" offset="73.2745389%"></stop>
            <stop stop-color="#4C4C4C" offset="100%"></stop>
        </linearGradient>
    </defs>
    <g id="혜택" stroke="none" stroke-width="1" fill="none" fill-rule="evenodd">
        <g id="이로움-혜택-수정_12.01" transform="translate(-609.000000, -537.000000)" fill-rule="nonzero">
            <g id="Group" transform="translate(609.000000, 537.000000)">
                <path d="M6.15235533,5.57792208 L2.566103,5.57792208 L2.566103,7.83116883 L6.80203872,7.83116883 L6.80203872,9.58441558 L0.285714286,9.58441558 L0.285714286,0.12987013 L6.81503239,0.12987013 L6.81503239,1.88961039 L2.566103,1.88961039 L2.566103,3.88311688 L6.15235533,3.88311688 L6.15235533,5.57792208 Z M11.2458731,6.24675325 L10.0114747,6.24675325 L10.0114747,9.58441558 L7.73108598,9.58441558 L7.73108598,0.12987013 L11.4537718,0.12987013 C12.5755585,0.12987013 13.4526311,0.378787879 14.0849896,0.876623377 C14.7173481,1.37445887 15.0335273,2.07792208 15.0335273,2.98701299 C15.0335273,3.64502165 14.9003422,4.19047619 14.633972,4.62337662 C14.3676018,5.05627706 13.9507217,5.40692641 13.3833315,5.67532468 L15.358369,9.48701299 L15.358369,9.58441558 L12.9155595,9.58441558 L11.2458731,6.24675325 Z M10.0114747,4.48701299 L11.4537718,4.48701299 C11.8868941,4.48701299 12.2128186,4.37337662 12.4315453,4.1461039 C12.6502721,3.91883117 12.7596354,3.6017316 12.7596354,3.19480519 C12.7596354,2.78787879 12.6491893,2.46861472 12.4282969,2.23701299 C12.2074046,2.00541126 11.8825629,1.88961039 11.4537718,1.88961039 L10.0114747,1.88961039 L10.0114747,4.48701299 Z M24.4214524,5.05194805 C24.4214524,5.97402597 24.2503691,6.79004329 23.9082025,7.5 C23.5660359,8.20995671 23.0798562,8.75649351 22.4496633,9.13961039 C21.8194704,9.52272727 21.1015702,9.71428571 20.2959628,9.71428571 C19.4903554,9.71428571 18.7757037,9.52922078 18.1520076,9.15909091 C17.5283116,8.78896104 17.0421318,8.25974026 16.6934684,7.57142857 C16.344805,6.88311688 16.1618108,6.09307359 16.1444859,5.2012987 L16.1444859,4.66883117 C16.1444859,3.74242424 16.3144864,2.92532468 16.6544874,2.21753247 C16.9944884,1.50974026 17.4817509,0.963203463 18.116275,0.577922078 C18.7507991,0.192640693 19.4730305,0 20.2829691,0 C21.0842453,0 21.7988971,0.19047619 22.4269243,0.571428571 C23.0549516,0.952380952 23.543297,1.49458874 23.8919604,2.19805195 C24.2406238,2.90151515 24.4171211,3.70779221 24.4214524,4.61688312 L24.4214524,5.05194805 Z M22.1020826,4.65584416 C22.1020826,3.71645022 21.9450758,3.00324675 21.6310622,2.51623377 C21.3170485,2.02922078 20.8676842,1.78571429 20.2829691,1.78571429 C19.1395264,1.78571429 18.5353208,2.64285714 18.4703525,4.35714286 L18.4638556,5.05194805 C18.4638556,5.97835498 18.617614,6.69047619 18.9251309,7.18831169 C19.2326477,7.68614719 19.6895916,7.93506494 20.2959628,7.93506494 C20.8720154,7.93506494 21.3159657,7.69047619 21.6278138,7.2012987 C21.9396618,6.71212121 22.0977514,6.00865801 22.1020826,5.09090909 L22.1020826,4.65584416 Z M33.0167637,0.12987013 L33.0167637,6.31818182 C33.0167637,7.01948052 32.8673365,7.62662338 32.5684821,8.13961039 C32.2696278,8.6525974 31.8408367,9.04329004 31.282109,9.31168831 C30.7233813,9.58008658 30.0628698,9.71428571 29.3005746,9.71428571 C28.1484694,9.71428571 27.2410783,9.41558442 26.5784012,8.81818182 C25.9157242,8.22077922 25.5778888,7.4025974 25.5648951,6.36363636 L25.5648951,0.12987013 L27.8582775,0.12987013 L27.8582775,6.40909091 C27.8842649,7.44372294 28.3650306,7.96103896 29.3005746,7.96103896 C29.7726779,7.96103896 30.1300038,7.83116883 30.3725522,7.57142857 C30.6151007,7.31168831 30.7363749,6.88961039 30.7363749,6.30519481 L30.7363749,0.12987013 L33.0167637,0.12987013 Z M37.4346107,0.12987013 L39.5460818,6.70779221 L41.651056,0.12987013 L44.6525932,0.12987013 L44.6525932,9.58441558 L42.3657077,9.58441558 L42.3657077,7.37662338 L42.5866001,2.85714286 L40.2997145,9.58441558 L38.792449,9.58441558 L36.4990667,2.85064935 L36.719959,7.37662338 L36.719959,9.58441558 L34.4395703,9.58441558 L34.4395703,0.12987013 L37.4346107,0.12987013 Z M50.1813989,9.58441558 L50.1813989,0.12987013 L53.5792431,0.12987013 C54.7963166,0.12987013 55.7221155,0.352813853 56.3566396,0.798701299 C56.9911637,1.24458874 57.3084258,1.89177489 57.3084258,2.74025974 C57.3084258,3.22943723 57.195814,3.64718615 56.9705904,3.99350649 C56.7453668,4.33982684 56.4140283,4.5952381 55.9765748,4.75974026 C56.4703342,4.88961039 56.8493162,5.13203463 57.1135207,5.48701299 C57.3777253,5.84199134 57.5098276,6.27489177 57.5098276,6.78571429 C57.5098276,7.71212121 57.2163873,8.40800866 56.6295066,8.87337662 C56.0426259,9.33874459 55.173133,9.57575758 54.0210278,9.58441558 L50.1813989,9.58441558 Z M52.4617876,5.56493506 L52.4617876,7.83116883 L53.9560594,7.83116883 C54.3675256,7.83116883 54.6837048,7.73701299 54.9045972,7.5487013 C55.1254896,7.36038961 55.2359357,7.0952381 55.2359357,6.75324675 C55.2359357,5.96536797 54.8439601,5.56926407 54.0600088,5.56493506 L52.4617876,5.56493506 Z M52.4617876,4.07142857 L53.6507082,4.07142857 C54.1487988,4.06709957 54.5039591,3.97619048 54.716189,3.7987013 C54.9284189,3.62121212 55.0345339,3.35930736 55.0345339,3.01298701 C55.0345339,2.61471861 54.9197565,2.32792208 54.6902017,2.1525974 C54.4606469,1.97727273 54.0903273,1.88961039 53.5792431,1.88961039 L52.4617876,1.88961039 L52.4617876,4.07142857 Z M64.6303576,5.57792208 L61.0441053,5.57792208 L61.0441053,7.83116883 L65.280041,7.83116883 L65.280041,9.58441558 L58.7637166,9.58441558 L58.7637166,0.12987013 L65.2930347,0.12987013 L65.2930347,1.88961039 L61.0441053,1.88961039 L61.0441053,3.88311688 L64.6303576,3.88311688 L64.6303576,5.57792208 Z M74.1092383,9.58441558 L71.8418433,9.58441558 L68.489477,3.7012987 L68.489477,9.58441558 L66.2090882,9.58441558 L66.2090882,0.12987013 L68.489477,0.12987013 L71.8353464,6.01298701 L71.8353464,0.12987013 L74.1092383,0.12987013 L74.1092383,9.58441558 Z M81.4181765,5.57792208 L77.8319242,5.57792208 L77.8319242,7.83116883 L82.0678599,7.83116883 L82.0678599,9.58441558 L75.5515354,9.58441558 L75.5515354,0.12987013 L82.0808536,0.12987013 L82.0808536,1.88961039 L77.8319242,1.88961039 L77.8319242,3.88311688 L81.4181765,3.88311688 L81.4181765,5.57792208 Z M88.9545039,5.81818182 L85.2772959,5.81818182 L85.2772959,9.58441558 L82.9969071,9.58441558 L82.9969071,0.12987013 L89.3248234,0.12987013 L89.3248234,1.88961039 L85.2772959,1.88961039 L85.2772959,4.06493506 L88.9545039,4.06493506 L88.9545039,5.81818182 Z M92.703177,9.58441558 L90.4292852,9.58441558 L90.4292852,0.12987013 L92.703177,0.12987013 L92.703177,9.58441558 Z M101.714286,1.88961039 L98.8751693,1.88961039 L98.8751693,9.58441558 L96.5947806,9.58441558 L96.5947806,1.88961039 L93.8076388,1.88961039 L93.8076388,0.12987013 L101.714286,0.12987013 L101.714286,1.88961039 Z" id="Combined-Shape" fill="#1E1E1E"></path>
                <path d="M5.86664105,5.86363636 L2.28038871,5.86363636 L2.28038871,8.11688312 L6.51632444,8.11688312 L6.51632444,9.87012987 L0,9.87012987 L0,0.415584416 L6.52931811,0.415584416 L6.52931811,2.17532468 L2.28038871,2.17532468 L2.28038871,4.16883117 L5.86664105,4.16883117 L5.86664105,5.86363636 Z M10.9601589,6.53246753 L9.7257604,6.53246753 L9.7257604,9.87012987 L7.44537169,9.87012987 L7.44537169,0.415584416 L11.1680575,0.415584416 C12.2898442,0.415584416 13.1669168,0.664502165 13.7992753,1.16233766 C14.4316338,1.66017316 14.747813,2.36363636 14.747813,3.27272727 C14.747813,3.93073593 14.6146279,4.47619048 14.3482578,4.90909091 C14.0818876,5.34199134 13.6650074,5.69264069 13.0976172,5.96103896 L15.0726547,9.77272727 L15.0726547,9.87012987 L12.6298452,9.87012987 L10.9601589,6.53246753 Z M9.7257604,4.77272727 L11.1680575,4.77272727 C11.6011798,4.77272727 11.9271043,4.65909091 12.145831,4.43181818 C12.3645578,4.20454545 12.4739212,3.88744589 12.4739212,3.48051948 C12.4739212,3.07359307 12.363475,2.754329 12.1425826,2.52272727 C11.9216903,2.29112554 11.5968486,2.17532468 11.1680575,2.17532468 L9.7257604,2.17532468 L9.7257604,4.77272727 Z M24.1357381,5.33766234 C24.1357381,6.25974026 23.9646548,7.07575758 23.6224882,7.78571429 C23.2803216,8.495671 22.7941419,9.04220779 22.163949,9.42532468 C21.5337561,9.80844156 20.8158559,10 20.0102485,10 C19.2046411,10 18.4899894,9.81493506 17.8662933,9.44480519 C17.2425973,9.07467532 16.7564175,8.54545455 16.4077541,7.85714286 C16.0590907,7.16883117 15.8760965,6.37878788 15.8587716,5.48701299 L15.8587716,4.95454545 C15.8587716,4.02813853 16.0287721,3.21103896 16.3687731,2.50324675 C16.7087741,1.79545455 17.1960366,1.24891775 17.8305607,0.863636364 C18.4650849,0.478354978 19.1873162,0.285714286 19.9972549,0.285714286 C20.798531,0.285714286 21.5131828,0.476190476 22.1412101,0.857142857 C22.7692373,1.23809524 23.2575827,1.78030303 23.6062461,2.48376623 C23.9549095,3.18722944 24.1314069,3.99350649 24.1357381,4.9025974 L24.1357381,5.33766234 Z M21.8163684,4.94155844 C21.8163684,4.0021645 21.6593615,3.28896104 21.3453479,2.80194805 C21.0313343,2.31493506 20.5819699,2.07142857 19.9972549,2.07142857 C18.8538121,2.07142857 18.2496065,2.92857143 18.1846382,4.64285714 L18.1781414,5.33766234 C18.1781414,6.26406926 18.3318998,6.97619048 18.6394166,7.47402597 C18.9469334,7.97186147 19.4038774,8.22077922 20.0102485,8.22077922 C20.5863011,8.22077922 21.0302515,7.97619048 21.3420995,7.48701299 C21.6539475,6.9978355 21.8120371,6.29437229 21.8163684,5.37662338 L21.8163684,4.94155844 Z M32.7310494,0.415584416 L32.7310494,6.6038961 C32.7310494,7.30519481 32.5816222,7.91233766 32.2827678,8.42532468 C31.9839135,8.93831169 31.5551224,9.32900433 30.9963947,9.5974026 C30.437667,9.86580087 29.7771555,10 29.0148604,10 C27.8627551,10 26.955364,9.7012987 26.2926869,9.1038961 C25.6300099,8.50649351 25.2921745,7.68831169 25.2791808,6.64935065 L25.2791808,0.415584416 L27.5725632,0.415584416 L27.5725632,6.69480519 C27.5985506,7.72943723 28.0793163,8.24675325 29.0148604,8.24675325 C29.4869636,8.24675325 29.8442895,8.11688312 30.086838,7.85714286 C30.3293864,7.5974026 30.4506607,7.17532468 30.4506607,6.59090909 L30.4506607,0.415584416 L32.7310494,0.415584416 Z M37.1488965,0.415584416 L39.2603675,6.99350649 L41.3653417,0.415584416 L44.366879,0.415584416 L44.366879,9.87012987 L42.0799934,9.87012987 L42.0799934,7.66233766 L42.3008858,3.14285714 L40.0140002,9.87012987 L38.5067347,9.87012987 L36.2133524,3.13636364 L36.4342447,7.66233766 L36.4342447,9.87012987 L34.153856,9.87012987 L34.153856,0.415584416 L37.1488965,0.415584416 Z M49.8956846,9.87012987 L49.8956846,0.415584416 L53.2935288,0.415584416 C54.5106023,0.415584416 55.4364012,0.638528139 56.0709253,1.08441558 C56.7054494,1.53030303 57.0227115,2.17748918 57.0227115,3.02597403 C57.0227115,3.51515152 56.9100997,3.93290043 56.6848761,4.27922078 C56.4596525,4.62554113 56.128314,4.88095238 55.6908605,5.04545455 C56.1846199,5.17532468 56.5636019,5.41774892 56.8278064,5.77272727 C57.092011,6.12770563 57.2241133,6.56060606 57.2241133,7.07142857 C57.2241133,7.9978355 56.930673,8.69372294 56.3437923,9.15909091 C55.7569117,9.62445887 54.8874187,9.86147186 53.7353135,9.87012987 L49.8956846,9.87012987 Z M52.1760734,5.85064935 L52.1760734,8.11688312 L53.6703452,8.11688312 C54.0818113,8.11688312 54.3979906,8.02272727 54.6188829,7.83441558 C54.8397753,7.6461039 54.9502214,7.38095238 54.9502214,7.03896104 C54.9502214,6.25108225 54.5582458,5.85497835 53.7742945,5.85064935 L52.1760734,5.85064935 Z M52.1760734,4.35714286 L53.364994,4.35714286 C53.8630846,4.35281385 54.2182448,4.26190476 54.4304747,4.08441558 C54.6427046,3.90692641 54.7488196,3.64502165 54.7488196,3.2987013 C54.7488196,2.9004329 54.6340422,2.61363636 54.4044874,2.43831169 C54.1749326,2.26298701 53.8046131,2.17532468 53.2935288,2.17532468 L52.1760734,2.17532468 L52.1760734,4.35714286 Z M64.3446433,5.86363636 L60.758391,5.86363636 L60.758391,8.11688312 L64.9943267,8.11688312 L64.9943267,9.87012987 L58.4780023,9.87012987 L58.4780023,0.415584416 L65.0073204,0.415584416 L65.0073204,2.17532468 L60.758391,2.17532468 L60.758391,4.16883117 L64.3446433,4.16883117 L64.3446433,5.86363636 Z M73.823524,9.87012987 L71.556129,9.87012987 L68.2037627,3.98701299 L68.2037627,9.87012987 L65.923374,9.87012987 L65.923374,0.415584416 L68.2037627,0.415584416 L71.5496322,6.2987013 L71.5496322,0.415584416 L73.823524,0.415584416 L73.823524,9.87012987 Z M81.1324622,5.86363636 L77.5462099,5.86363636 L77.5462099,8.11688312 L81.7821456,8.11688312 L81.7821456,9.87012987 L75.2658212,9.87012987 L75.2658212,0.415584416 L81.7951393,0.415584416 L81.7951393,2.17532468 L77.5462099,2.17532468 L77.5462099,4.16883117 L81.1324622,4.16883117 L81.1324622,5.86363636 Z M88.6687896,6.1038961 L84.9915816,6.1038961 L84.9915816,9.87012987 L82.7111929,9.87012987 L82.7111929,0.415584416 L89.0391091,0.415584416 L89.0391091,2.17532468 L84.9915816,2.17532468 L84.9915816,4.35064935 L88.6687896,4.35064935 L88.6687896,6.1038961 Z M92.4174628,9.87012987 L90.1435709,9.87012987 L90.1435709,0.415584416 L92.4174628,0.415584416 L92.4174628,9.87012987 Z M101.428571,2.17532468 L98.589455,2.17532468 L98.589455,9.87012987 L96.3090663,9.87012987 L96.3090663,2.17532468 L93.5219245,2.17532468 L93.5219245,0.415584416 L101.428571,0.415584416 L101.428571,2.17532468 Z" id="Combined-Shape" fill="url(#linearGradient-1)"></path>
            </g>
        </g>
    </g>
</svg>