<svg id="food_copy" data-name="food copy" xmlns="http://www.w3.org/2000/svg" xmlns:xlink="http://www.w3.org/1999/xlink" width="58.043" height="17.535" viewBox="0 0 58.043 17.535">
  <defs>
    <clipPath id="clip-path">
      <path id="Shape" d="M34.882,17.533a5.8,5.8,0,0,1-4.265-1.758A7.189,7.189,0,0,1,28.8,11.228a13.043,13.043,0,0,1,.223-3.31,11.676,11.676,0,0,1,1.207-3.51A8.851,8.851,0,0,1,32.4,1.736,7.429,7.429,0,0,1,37.236,0l.178,0a6.2,6.2,0,0,1,3.053.8,5.637,5.637,0,0,1,2.092,2.209,7.979,7.979,0,0,1,.914,3.281,13.571,13.571,0,0,1-.158,2.959,12.34,12.34,0,0,1-.926,3.164,9.739,9.739,0,0,1-1.741,2.654,8.041,8.041,0,0,1-2.514,1.823,7.229,7.229,0,0,1-3.073.64Zm-.457-13a8.49,8.49,0,0,0-1.441,4.13,14.367,14.367,0,0,0-.164,2.614c.076,1.976.85,3,2.3,3.059.057,0,.114,0,.17,0a3.057,3.057,0,0,0,2.291-1.031,6.674,6.674,0,0,0,1.489-3.187,15.463,15.463,0,0,0,.386-3.862c-.077-1.944-.842-2.968-2.273-3.046-.061,0-.123,0-.184,0A3.151,3.151,0,0,0,34.425,4.532Zm-15.139,13a5.8,5.8,0,0,1-4.265-1.758A7.2,7.2,0,0,1,13.2,11.228a13.126,13.126,0,0,1,.223-3.31,11.725,11.725,0,0,1,1.207-3.51A8.878,8.878,0,0,1,16.8,1.736,7.434,7.434,0,0,1,21.641,0l.177,0a6.192,6.192,0,0,1,3.053.8,5.625,5.625,0,0,1,2.092,2.209,7.952,7.952,0,0,1,.913,3.281,13.459,13.459,0,0,1-.157,2.959,12.269,12.269,0,0,1-.926,3.164,9.718,9.718,0,0,1-1.741,2.654,8.021,8.021,0,0,1-2.514,1.823,7.222,7.222,0,0,1-3.073.64Zm-.457-13a8.508,8.508,0,0,0-1.441,4.13,14.533,14.533,0,0,0-.164,2.614c.077,1.976.851,3,2.3,3.059.058,0,.115,0,.171,0a3.053,3.053,0,0,0,2.29-1.031,6.657,6.657,0,0,0,1.489-3.187,15.379,15.379,0,0,0,.386-3.862c-.076-1.944-.841-2.968-2.273-3.046-.061,0-.122,0-.183,0A3.154,3.154,0,0,0,18.829,4.532ZM43.434,17.3,46.388.236,51.4.248A6.562,6.562,0,0,1,55.27,1.414,6.308,6.308,0,0,1,57.614,4.6a8.765,8.765,0,0,1,.363,3.82L57.9,9.13a10.116,10.116,0,0,1-1.524,4.161,8.759,8.759,0,0,1-3.1,2.923,8.5,8.5,0,0,1-4.1,1.084Zm4.559-3.164,1.172.012a4.01,4.01,0,0,0,3.31-1.594,8.959,8.959,0,0,0,1.482-4.874l.023-.387A4.67,4.67,0,0,0,53.4,4.443a2.388,2.388,0,0,0-2-1.02l-1.535-.012ZM0,17.3,2.953.236h11.1L13.5,3.412H6.422l-.68,3.926h6.434L11.625,10.5H5.191L4.008,17.3Z" fill="#111"/>
    </clipPath>
  </defs>
  <path id="Shape-2" data-name="Shape" d="M34.882,17.533a5.8,5.8,0,0,1-4.265-1.758A7.189,7.189,0,0,1,28.8,11.228a13.043,13.043,0,0,1,.223-3.31,11.676,11.676,0,0,1,1.207-3.51A8.851,8.851,0,0,1,32.4,1.736,7.429,7.429,0,0,1,37.236,0l.178,0a6.2,6.2,0,0,1,3.053.8,5.637,5.637,0,0,1,2.092,2.209,7.979,7.979,0,0,1,.914,3.281,13.571,13.571,0,0,1-.158,2.959,12.34,12.34,0,0,1-.926,3.164,9.739,9.739,0,0,1-1.741,2.654,8.041,8.041,0,0,1-2.514,1.823,7.229,7.229,0,0,1-3.073.64Zm-.457-13a8.49,8.49,0,0,0-1.441,4.13,14.367,14.367,0,0,0-.164,2.614c.076,1.976.85,3,2.3,3.059.057,0,.114,0,.17,0a3.057,3.057,0,0,0,2.291-1.031,6.674,6.674,0,0,0,1.489-3.187,15.463,15.463,0,0,0,.386-3.862c-.077-1.944-.842-2.968-2.273-3.046-.061,0-.123,0-.184,0A3.151,3.151,0,0,0,34.425,4.532Zm-15.139,13a5.8,5.8,0,0,1-4.265-1.758A7.2,7.2,0,0,1,13.2,11.228a13.126,13.126,0,0,1,.223-3.31,11.725,11.725,0,0,1,1.207-3.51A8.878,8.878,0,0,1,16.8,1.736,7.434,7.434,0,0,1,21.641,0l.177,0a6.192,6.192,0,0,1,3.053.8,5.625,5.625,0,0,1,2.092,2.209,7.952,7.952,0,0,1,.913,3.281,13.459,13.459,0,0,1-.157,2.959,12.269,12.269,0,0,1-.926,3.164,9.718,9.718,0,0,1-1.741,2.654,8.021,8.021,0,0,1-2.514,1.823,7.222,7.222,0,0,1-3.073.64Zm-.457-13a8.508,8.508,0,0,0-1.441,4.13,14.533,14.533,0,0,0-.164,2.614c.077,1.976.851,3,2.3,3.059.058,0,.115,0,.171,0a3.053,3.053,0,0,0,2.29-1.031,6.657,6.657,0,0,0,1.489-3.187,15.379,15.379,0,0,0,.386-3.862c-.076-1.944-.841-2.968-2.273-3.046-.061,0-.122,0-.183,0A3.154,3.154,0,0,0,18.829,4.532ZM43.434,17.3,46.388.236,51.4.248A6.562,6.562,0,0,1,55.27,1.414,6.308,6.308,0,0,1,57.614,4.6a8.765,8.765,0,0,1,.363,3.82L57.9,9.13a10.116,10.116,0,0,1-1.524,4.161,8.759,8.759,0,0,1-3.1,2.923,8.5,8.5,0,0,1-4.1,1.084Zm4.559-3.164,1.172.012a4.01,4.01,0,0,0,3.31-1.594,8.959,8.959,0,0,0,1.482-4.874l.023-.387A4.67,4.67,0,0,0,53.4,4.443a2.388,2.388,0,0,0-2-1.02l-1.535-.012ZM0,17.3,2.953.236h11.1L13.5,3.412H6.422l-.68,3.926h6.434L11.625,10.5H5.191L4.008,17.3Z" fill="#111"/>
  <g id="food_copy-2" data-name="food copy" clip-path="url(#clip-path)">
    <circle id="Oval" cx="53" cy="53" r="53" transform="translate(16.316 -100.5)" fill="#fff" opacity="0.4"/>
  </g>
</svg>
