<svg id="회원님이_가입하신_아이디는_다음과_같" data-name="회원님이 가입하신 아이디는 다음과 같" xmlns="http://www.w3.org/2000/svg" xmlns:xlink="http://www.w3.org/1999/xlink" width="353.696" height="76.183" viewBox="0 0 353.696 76.183">
  <defs>
    <linearGradient id="linear-gradient" x1="0.016" y1="0.413" x2="1" y2="0.569" gradientUnits="objectBoundingBox">
      <stop offset="0" stop-color="#7b6fe1"/>
      <stop offset="0.28" stop-color="#ca328e"/>
      <stop offset="0.551" stop-color="#f31b2e"/>
      <stop offset="0.792" stop-color="#ff8001"/>
      <stop offset="1" stop-color="#ffbd00"/>
    </linearGradient>
  </defs>
  <path id="Combined_Shape" data-name="Combined Shape" d="M270.127,76.183H267.5V47.416h2.624V58.744h4.736v2.175h-4.736V76.182h0Zm-178.208,0H89.3V47.416H91.92V58.744h4.736v2.175H91.92V76.182h0Zm57.216-.064h-2.623v-28.7h2.624v12h4.576v2.209h-4.576V76.118h0Zm93.793-.032H240.3V47.416h2.624V76.087h0Zm-121.664-.351H101.68V66.3h19.584v9.44ZM104.24,73.625H118.7V68.377H104.24Zm109.087,2.111h-19.3V64.6h2.592v3.36h14.112V64.6h2.592V75.735h0Zm-16.7-2.112h14.112V69.976H196.624ZM185.2,75.736H166.32V64.056h18.24v1.952H168.944v2.848h15.264v1.952H168.944v2.944H185.2v1.984h0Zm-58.08-5.889h0l-.288-2.174h.094c1.827,0,3.9-.032,5.987-.1V58.744H135.5v8.768c2.9-.118,6.25-.276,9.248-.672l.16,1.921a116.229,116.229,0,0,1-17.791,1.087Zm122.144-.832V50.168h13.344v2.176h-10.72V66.776h.029a69.532,69.532,0,0,0,12.9-.959l.288,2.176a68.334,68.334,0,0,1-13.568,1.024Zm-178.208,0V50.168H84.4v2.176H73.68V66.776h.029a69.532,69.532,0,0,0,12.9-.959l.288,2.176a68.334,68.334,0,0,1-13.568,1.024ZM221.2,68.7V50.2h2.624V66.456h.014a67.657,67.657,0,0,0,13.522-1.344l.288,2.24A67.509,67.509,0,0,1,223.568,68.7Zm-79.106-5.184-2.623-.256a60.606,60.606,0,0,0,.864-10.56H128.4V50.551h14.5V52.12a71.678,71.678,0,0,1-.8,11.39h0Zm-17.663-.031H98.48V61.368h25.952v2.112Zm38.848-.193-1.056-2.112c6.984-1.514,11.219-5.024,11.616-9.632H163.409V49.432h13.343a12.149,12.149,0,0,1-3.568,8.9c-2.294,2.3-5.627,3.972-9.9,4.96Zm21.119-.545h-2.623V47.416H184.4v6.656h4.256v2.175H184.4v6.5h0Zm32.32-.128H190.736V60.5H216.72v2.111h0ZM104.072,57.471a4.291,4.291,0,0,1,0-7.979,16.066,16.066,0,0,1,7.368-1.436,16.061,16.061,0,0,1,7.368,1.436,4.291,4.291,0,0,1,0,7.979A16.115,16.115,0,0,1,111.44,58.9,16.12,16.12,0,0,1,104.072,57.471Zm1.968-6.448a2.53,2.53,0,0,0,0,4.945,16.857,16.857,0,0,0,10.8,0,2.53,2.53,0,0,0,0-4.945,16.874,16.874,0,0,0-10.8,0Zm87.16,7.465h0l-.959-2.111a16.332,16.332,0,0,0,7.02-2.552c2.036-1.4,3.156-3.1,3.156-4.809v-1.28H205.1v1.28c0,1.664,1.123,3.359,3.164,4.772a16.167,16.167,0,0,0,6.98,2.588l-.96,2.111a18.7,18.7,0,0,1-6.248-2.136,11.169,11.169,0,0,1-4.28-4.008,10.974,10.974,0,0,1-4.271,4.008,18.885,18.885,0,0,1-6.288,2.137ZM323.167,29.6h-4.223V.032h4.224V29.6Zm-28.64-.032H290.3V0h4.224V29.567h0ZM264.543,29.5H260.32V.032h4.225v11.1h4.288v3.488h-4.288V29.5Zm-63.68,0H196.64V.032h4.224v11.52h4.225v3.488h-4.225V29.5Zm-57.343-.065H139.3V0h4.225V11.264h4.127v3.488H143.52V29.439h0Zm-34.273-.257h-2.623V.416h2.624V29.183h0Zm64.32-.031H153.985v-12h4.192V19.9h11.2V17.152h4.192v12Zm-15.39-3.328h11.2V23.136h-11.2ZM23.231,29.12H20.608V.448h2.624V29.12h0Zm208.352-.129H211.232v-9.5h4.224v6.144h16.128v3.359h0ZM80.639,28.7H62.08V18.049H80.64V28.7h0Zm-16-2.112h13.44V20.128H64.64ZM52.7,28.48H32.416V20.128h2.624v6.208H52.7v2.143h0Zm298.176-.063H331.008V20.032h2.624v6.241H350.88v2.144Zm-228.352-4h0l-2.368-3.231c6.922-3.558,10.5-8.235,11.264-14.72h-9.633V3.04H135.68a23.907,23.907,0,0,1-2.9,12.14,20.818,20.818,0,0,1-4.063,5.045,27.694,27.694,0,0,1-6.185,4.19ZM.384,23.68h0L0,21.472l.113,0c2.746,0,5.411-.042,7.919-.126V18.272c-3.453-.424-5.6-2.447-5.6-5.279a4.7,4.7,0,0,1,1.92-3.868A8.188,8.188,0,0,1,9.344,7.681,8.123,8.123,0,0,1,14.32,9.124a4.708,4.708,0,0,1,1.9,3.868c0,2.816-2.134,4.827-5.568,5.248v3.008c3.277-.154,5.86-.367,8.128-.672l.192,1.952A117.187,117.187,0,0,1,.385,23.68ZM6.152,10.589a2.887,2.887,0,0,0-1.224,2.4,2.85,2.85,0,0,0,1.224,2.375,5.372,5.372,0,0,0,3.191.888c2.623,0,4.384-1.311,4.384-3.263a2.894,2.894,0,0,0-1.219-2.4A5.28,5.28,0,0,0,9.344,9.7,5.344,5.344,0,0,0,6.152,10.589Zm172.6,5.828c0-4.061,3.149-7.007,7.488-7.007,4.3,0,7.423,2.947,7.423,7.007a6.9,6.9,0,0,1-2.116,5.1,7.662,7.662,0,0,1-5.307,1.976C181.9,23.488,178.753,20.514,178.753,16.416Zm4.032.032a3.505,3.505,0,0,0,5.911,2.627,3.7,3.7,0,0,0,.968-2.66,3.443,3.443,0,1,0-6.88.032Zm90.364,3.844a12.716,12.716,0,0,1-2.2-7.717,12.581,12.581,0,0,1,2.2-7.672,6.852,6.852,0,0,1,5.54-2.824,6.7,6.7,0,0,1,3.087.731A7.225,7.225,0,0,1,284.228,4.9a12.581,12.581,0,0,1,2.2,7.672,12.714,12.714,0,0,1-2.2,7.717,6.818,6.818,0,0,1-11.08,0ZM276.033,7.6a10.24,10.24,0,0,0-1.024,4.976,10.331,10.331,0,0,0,1.024,5,2.912,2.912,0,0,0,5.311,0,10.341,10.341,0,0,0,1.024-5A10.25,10.25,0,0,0,281.344,7.6a2.916,2.916,0,0,0-5.311,0ZM246.276,22.4a7.2,7.2,0,0,1-2.452-2.107,12.738,12.738,0,0,1-2.192-7.716A12.609,12.609,0,0,1,243.824,4.9a7.183,7.183,0,0,1,2.452-2.092,6.912,6.912,0,0,1,6.187,0A7.221,7.221,0,0,1,254.916,4.9a12.582,12.582,0,0,1,2.2,7.673,12.713,12.713,0,0,1-2.2,7.716,6.844,6.844,0,0,1-5.54,2.844A6.7,6.7,0,0,1,246.276,22.4Zm-.58-9.823c0,4.207,1.375,6.719,3.679,6.719a3.021,3.021,0,0,0,2.656-1.716,10.327,10.327,0,0,0,1.024-5A10.235,10.235,0,0,0,252.032,7.6a3.021,3.021,0,0,0-2.656-1.712C247.072,5.889,245.7,8.388,245.7,12.577ZM88.868,19.94a12.174,12.174,0,0,1-2.052-7.3,12.176,12.176,0,0,1,2.052-7.3,6.421,6.421,0,0,1,10.489,0,12.176,12.176,0,0,1,2.051,7.3,12.172,12.172,0,0,1-2.051,7.3,6.421,6.421,0,0,1-10.489,0ZM90.656,7.076a10.425,10.425,0,0,0-1.345,5.564c0,4.594,1.93,7.681,4.8,7.681a4,4,0,0,0,3.428-2.088,10.552,10.552,0,0,0,1.339-5.593A10.468,10.468,0,0,0,97.54,7.076a3.884,3.884,0,0,0-6.884,0ZM300.512,22.56V2.657h14.24V6.08H304.736V19.04a64.024,64.024,0,0,0,12-.864l.383,3.488c-3.968.761-7.681.9-14.016.9ZM51.968,22.271H49.344V19.328H43.52V17.375h5.824V.416h2.624V22.271h0Zm178.88-.735h-4.255V.064h4.256V21.535h0ZM39.263,21.248H36.64V15.712c-2.4.108-5,.159-7.968.159L28.32,13.7h.1a154.19,154.19,0,0,0,18.394-.832l.224,1.888c-2.56.389-5.248.677-7.776.832v5.664h0ZM208.416,17.6h0l-2.144-3.359a10.228,10.228,0,0,0,5.341-4.008,10.287,10.287,0,0,0,1.668-5.688V1.664h4.288v2.88a9.6,9.6,0,0,0,1.624,5.468,9.713,9.713,0,0,0,5.224,3.715l-2.144,3.361a11.356,11.356,0,0,1-6.784-6.048,12.585,12.585,0,0,1-2.756,3.952,11.759,11.759,0,0,1-4.315,2.607Zm145.28-.447H327.68V15.041H353.7v2.111Zm-273.056-.48H78.016V.384H80.64V16.672h0Zm92.928-.8h-4.254V.032h4.256v15.84ZM151.8,13.2a6.581,6.581,0,0,1,0-10,9.337,9.337,0,0,1,11.448,0,6.493,6.493,0,0,1,2.284,4.984,6.534,6.534,0,0,1-2.284,5.011,9.321,9.321,0,0,1-11.448,0Zm1.829-5.011a3.266,3.266,0,0,0,1.111,2.571,4.216,4.216,0,0,0,2.792.916c2.353,0,3.873-1.369,3.873-3.488,0-2.067-1.557-3.456-3.873-3.456C155.2,4.737,153.633,6.125,153.633,8.193ZM58.88,14.5V2.08H61.5V12.289h.018a64.018,64.018,0,0,0,13.389-1.28l.352,2.176A68.611,68.611,0,0,1,61.216,14.5ZM32.556,10.224A4.337,4.337,0,0,1,30.592,6.56c0-2.986,2.842-4.992,7.072-4.992s7.072,2.006,7.072,4.992a4.338,4.338,0,0,1-1.965,3.664,8.88,8.88,0,0,1-5.108,1.36A8.881,8.881,0,0,1,32.556,10.224Zm.533-3.664c0,1.838,1.839,3.072,4.576,3.072S42.241,8.4,42.241,6.56c0-1.818-1.84-3.04-4.576-3.04S33.089,4.742,33.089,6.56ZM350.719,11.2H331.2V1.472h2.624V9.057h16.9V11.2Zm-156-3.456H177.568V4.385H184.1V.544h4.225v3.84h6.4v3.36ZM18.047,6.048H.608V3.937H8.032V.448h2.624V3.937h7.392v2.11h0Z" fill="url(#linear-gradient)"/>
</svg>
