<svg xmlns="http://www.w3.org/2000/svg" xmlns:xlink="http://www.w3.org/1999/xlink" width="1736" height="166" viewBox="0 0 1736 166">
  <defs>
    <linearGradient id="linear-gradient" x1="0.09" x2="0.845" y2="1" gradientUnits="objectBoundingBox">
      <stop offset="0" stop-color="#626262"/>
      <stop offset="1" stop-color="#333"/>
    </linearGradient>
  </defs>
  <path id="Path_2" data-name="Path 2" d="M448.273,150.666q-16.941-15.333-17.273-42V2h39.085V109.445Q470.75,136,494.666,136q12.069,0,18.269-6.666t6.2-21.667V2H558v105.89q0,18-7.64,31.166a49.558,49.558,0,0,1-21.923,20.056Q514.154,166,494.666,166,465.213,166,448.273,150.666ZM321.3,163.628a65.713,65.713,0,0,1-17.1-7.115,62.7,62.7,0,0,1-14.18-11.526,69.317,69.317,0,0,1-10.667-15.6,83.982,83.982,0,0,1-6.792-18.947A105.12,105.12,0,0,1,270,88.881v-9.1a110.447,110.447,0,0,1,2.172-22.345,85.462,85.462,0,0,1,6.516-19.544,68.992,68.992,0,0,1,10.57-16.076A62.96,62.96,0,0,1,303.59,9.876a66.23,66.23,0,0,1,17.334-7.407A75.826,75.826,0,0,1,340.5,0a75.06,75.06,0,0,1,19.369,2.442,65.558,65.558,0,0,1,17.154,7.323A63.544,63.544,0,0,1,391.286,21.6,70.735,70.735,0,0,1,401.98,37.561a84.239,84.239,0,0,1,6.71,19.349A105.839,105.839,0,0,1,411,78.894v7.435a109.235,109.235,0,0,1-2.186,22.276,85.676,85.676,0,0,1-6.557,19.557,69.709,69.709,0,0,1-10.583,16.1,62.617,62.617,0,0,1-14.263,11.914,65.692,65.692,0,0,1-17.224,7.365A75.357,75.357,0,0,1,340.721,166,77.378,77.378,0,0,1,321.3,163.628ZM318.172,41.5c-5.123,7.289-8,18.377-8.55,32.956l-.111,11.873c0,15.757,2.644,28.04,7.858,36.507s13.072,12.76,23.352,12.76c9.768,0,17.4-4.218,22.689-12.538s8.006-20.454,8.079-36.063V79.56c0-15.978-2.7-28.279-8.024-36.562S350.413,30.515,340.5,30.515C330.806,30.515,323.294,34.211,318.172,41.5ZM1178,164l-41.679,0-9.4-30.077h-53.177L1064.459,164H1023L1082.038,3h36.483L1178,164v0Zm-94.967-60.045h34.6l-17.357-55.841ZM1227.866,164H1189V3h63.45A94.233,94.233,0,0,1,1278,6.179a55.406,55.406,0,0,1,19.3,9.536,42.473,42.473,0,0,1,7.073,7.016,39.727,39.727,0,0,1,5.053,8.328,44.329,44.329,0,0,1,3.031,9.641,57.091,57.091,0,0,1,1.011,10.954,65.057,65.057,0,0,1-1.7,15.37,43.417,43.417,0,0,1-5.108,12.495,41.669,41.669,0,0,1-8.734,10.008,58.138,58.138,0,0,1-12.582,7.906L1319,162.341V164h-41.635l-28.458-56.837h-21.039V164h0Zm0-86.8h24.583c7.347,0,12.954-1.953,16.665-5.805s5.592-9.3,5.592-16.2-1.9-12.384-5.647-16.31-9.336-5.916-16.609-5.916h-24.583Zm-1062,86.8H127V3h63.45A94.232,94.232,0,0,1,216,6.179a55.423,55.423,0,0,1,19.3,9.536,42.474,42.474,0,0,1,7.073,7.016,39.723,39.723,0,0,1,5.053,8.328,44.331,44.331,0,0,1,3.031,9.641,57.094,57.094,0,0,1,1.011,10.954,65.011,65.011,0,0,1-1.7,15.37,43.418,43.418,0,0,1-5.107,12.495,41.67,41.67,0,0,1-8.734,10.008,58.116,58.116,0,0,1-12.582,7.906L257,162.341V164H215.365l-28.458-56.837H165.867V164h0Zm0-86.8H190.45c7.347,0,12.954-1.953,16.665-5.805s5.592-9.3,5.592-16.2-1.9-12.384-5.648-16.31-9.336-5.916-16.609-5.916H165.867ZM1648.589,164V32.966H1601V3h135V32.966h-48.476V164ZM1483,164V3h111V32.966h-72.233V66.913h60.968V95.774h-60.968v38.37h72.013V164Zm-57,0-34.276-59.933-15.921,17.472V164H1337V3h38.808V73.991L1389.3,53.534,1424.015,3H1472l-54.4,71.212L1472,164Zm-453.967,0V126.4L975.8,49.442,936.84,164H911.16L872.087,49.332l3.764,77.072V164H837V3h51.026L924,115.015,959.863,3H1011V164Zm-256,0V126.4L719.8,49.442,680.84,164H655.16L616.088,49.332l3.763,77.072V164H581V3h51.026L668,115.015,703.863,3H755V164ZM0,164V3H111V32.966H38.768V66.913H99.734V95.774H38.768v38.37h72.012V164Z" opacity="0.05" fill="url(#linear-gradient)"/>
</svg>
