<?xml version="1.0" encoding="utf-8"?>
<!-- Generator: Adobe Illustrator 27.4.0, SVG Export Plug-In . SVG Version: 6.00 Build 0)  -->
<svg version="1.1" id="레이어_1" xmlns="http://www.w3.org/2000/svg" xmlns:xlink="http://www.w3.org/1999/xlink" x="0px"
	 y="0px" viewBox="0 0 129 62" style="enable-background:new 0 0 129 62;" xml:space="preserve">
<style type="text/css">
	.st0{fill:#515151;}
</style>
<g id="회사소개">
	<g id="assets" transform="translate(-3164.000000, -12404.000000)">
		<g id="새로움-반가움-이로움" transform="translate(3164.000000, 12404.000000)">
			<g id="신규회원" transform="translate(5.559765, 4.510000)">
				<path id="Shape" class="st0" d="M10.2,15.3c0-1.1-0.9-1.6-1.9-1.6s-2,0.5-2,1.6v2.8c0,1.9-0.6,3.2-1.9,4.4
					c-1.3,1.1-2.4,2.1-3.7,3c-0.9,0.7-0.8,1.7-0.2,2.4c0.5,0.7,1.5,1.1,2.4,0.5C4,27.6,5,26.8,6.2,25.7c1.5-1.3,1.9-1.9,2.1-2.6h0
					c0.2,0.7,0.6,1.1,2,2.3c1.1,1,2.2,1.9,3,2.5c0.8,0.6,1.9,0.2,2.3-0.5c0.5-0.7,0.7-1.7-0.2-2.3s-2-1.6-3.3-2.7
					c-1.4-1.2-1.9-2.5-1.9-4.4V15.3z M22.4,14.1c0-1.1-0.9-1.6-1.9-1.6s-1.9,0.5-1.9,1.6v17.2c0,1.1,0.9,1.6,1.9,1.6
					s1.9-0.5,1.9-1.6V14.1z M21.7,40.1c0.9,0,1.4-0.8,1.4-1.6c0-0.9-0.4-1.6-1.4-1.6H8.9c-0.5,0-0.7-0.2-0.7-0.7v-4.2
					c0-1.1-0.9-1.6-1.9-1.6c-1,0-1.9,0.5-1.9,1.6v5.7c0,1.9,0.6,2.5,2.6,2.5H21.7z"/>
				<path id="Path" class="st0" d="M41.8,29.2v9.8c0,1.1,0.9,1.6,1.9,1.6c0.9,0,1.8-0.5,1.8-1.6v-9.8h5.3c0.9,0,1.3-0.8,1.3-1.6
					c0-0.9-0.4-1.6-1.3-1.6h-3c0.5-2.2,0.8-4.9,0.8-7.6v-2c0-1.9-0.6-2.5-2.5-2.5H31c-0.9,0-1.4,0.8-1.4,1.7s0.4,1.7,1.4,1.7h13.1
					c0.5,0,0.7,0.2,0.7,0.7v0.7c0,2.6-0.2,5-0.8,7.4H28.1c-0.9,0-1.4,0.8-1.4,1.6c0,0.8,0.4,1.6,1.4,1.6h5.3v9.8
					c0,1.1,0.9,1.6,1.9,1.6c0.9,0,1.8-0.5,1.8-1.6v-9.8H41.8z"/>
				<path id="Shape_00000096777074580083396810000008464687948523121068_" class="st0" d="M71.4,34.1c0.9-0.1,1.3-0.9,1.2-1.7
					c-0.1-0.9-0.5-1.5-1.4-1.4c-1.9,0.2-3.9,0.3-5.8,0.4v-2.2c3-0.5,4.9-2.1,4.9-4.6c0-2.9-2.6-4.7-6.8-4.7s-6.8,1.8-6.8,4.7
					c0,2.5,1.8,4.1,4.9,4.6v2.3c-2,0-3.9,0-5.9,0c-0.9,0-1.4,0.8-1.4,1.6c0,0.9,0.4,1.6,1.4,1.6C61.5,34.7,67.4,34.5,71.4,34.1z
					 M73.7,37.1c0,1.1,0.9,1.6,1.9,1.6c1,0,1.9-0.5,1.9-1.6v-23c0-1.1-0.9-1.6-1.9-1.6c-1,0-1.9,0.5-1.9,1.6V37.1z M56.4,15.5
					c-0.9,0-1.3,0.8-1.3,1.6c0,0.8,0.4,1.6,1.3,1.6h13.9c0.9,0,1.4-0.8,1.4-1.6c0-0.9-0.4-1.6-1.4-1.6h-4.9v-1.3
					c0-1.1-0.9-1.6-1.9-1.6c-1,0-1.9,0.5-1.9,1.6v1.3H56.4z M63.5,26.4c-2.2,0-3.3-0.8-3.3-1.8s1.1-1.8,3.3-1.8
					c2.2,0,3.3,0.8,3.3,1.8S65.7,26.4,63.5,26.4z"/>
				<path id="Shape_00000148645635963293484960000004781130315726032016_" class="st0" d="M90.8,23.3c4.9,0,7.3-2,7.3-5.2
					s-2.5-5.2-7.3-5.2s-7.3,2-7.3,5.2S85.9,23.3,90.8,23.3z M90.8,20.3c-2.6,0-3.7-0.8-3.7-2.2c0-1.3,1.2-2.2,3.7-2.2
					c2.5,0,3.7,0.8,3.7,2.2C94.5,19.5,93.3,20.3,90.8,20.3z M101,32.2c0,1.1,0.9,1.6,1.9,1.6c1,0,1.9-0.5,1.9-1.6V14.1
					c0-1.1-0.9-1.6-1.9-1.6c-1,0-1.9,0.5-1.9,1.6v14.4H97c-0.9,0-1.3,0.7-1.3,1.5s0.4,1.5,1.3,1.5h4.1V32.2z M83,28
					c1.8,0,3.8,0,5.6-0.1v2.8c0,1,0.8,1.5,1.9,1.5c1.1,0,1.9-0.5,1.9-1.5v-2.9c2.3-0.1,4.5-0.3,6.3-0.5c0.9-0.1,1.2-0.9,1.2-1.7
					c-0.1-0.9-0.5-1.5-1.5-1.4c-5,0.6-10.6,0.7-15.4,0.7c-0.9,0-1.3,0.7-1.3,1.6C81.6,27.2,82.1,28,83,28z M90.5,36.9
					c-0.5,0-0.7-0.2-0.7-0.7v-2.1c0-1.1-0.9-1.6-1.9-1.6c-1,0-1.9,0.5-1.9,1.6v3.5c0,1.9,0.6,2.5,2.6,2.5h15.7
					c0.9,0,1.3-0.8,1.3-1.6s-0.4-1.6-1.3-1.6H90.5z"/>
			</g>
		</g>
	</g>
</g>
</svg>
