<svg xmlns="http://www.w3.org/2000/svg" xmlns:xlink="http://www.w3.org/1999/xlink" width="45.158" height="54.372" viewBox="0 0 45.158 54.372">
  <defs>
    <linearGradient id="linear-gradient" x1="0.197" y1="0.082" x2="0.787" y2="0.753" gradientUnits="objectBoundingBox">
      <stop offset="0" stop-color="#c61fff"/>
      <stop offset="1" stop-color="#ff621e"/>
    </linearGradient>
  </defs>
  <g id="Group_36" data-name="Group 36" transform="translate(0.5 0.5)">
    <path id="Path" d="M2.783,26.738,10.082,0h29.99L38.554,9.467H18.428L15.213,19.981a13.617,13.617,0,0,1,7.263-1.951q6.938,0,10.677,4.806T36.242,35.41a19.049,19.049,0,0,1-19.8,17.958A18.462,18.462,0,0,1,7.968,51.2,14.926,14.926,0,0,1,2.06,45.582,15.154,15.154,0,0,1,0,37.614H11.852a7.42,7.42,0,0,0,1.409,4.517A4.7,4.7,0,0,0,17.019,43.9a5.84,5.84,0,0,0,4.914-2.222q1.951-2.331,2.493-7.1.361-4.011-1.084-6.088a5.119,5.119,0,0,0-4.517-2.078,8.283,8.283,0,0,0-6.4,2.674Z" transform="translate(4 0)" fill="#333" stroke="#1c1c1c" stroke-miterlimit="10" stroke-width="1"/>
    <path id="Path-2" data-name="Path" d="M2.783,26.738,10.082,0h29.99L38.554,9.467H18.428L15.213,19.981a13.617,13.617,0,0,1,7.263-1.951q6.938,0,10.677,4.806T36.242,35.41a19.049,19.049,0,0,1-19.8,17.958A18.462,18.462,0,0,1,7.968,51.2,14.926,14.926,0,0,1,2.06,45.582,15.154,15.154,0,0,1,0,37.614H11.852a7.42,7.42,0,0,0,1.409,4.517A4.7,4.7,0,0,0,17.019,43.9a5.84,5.84,0,0,0,4.914-2.222q1.951-2.331,2.493-7.1.361-4.011-1.084-6.088a5.119,5.119,0,0,0-4.517-2.078,8.283,8.283,0,0,0-6.4,2.674Z" transform="translate(0 0)" stroke="#1c1c1c" stroke-miterlimit="10" stroke-width="1" fill="url(#linear-gradient)"/>
  </g>
</svg>
