<svg id="본인_인증이_완료되었습니다_사용하실" data-name="본인 인증이 완료되었습니다 사용하실" xmlns="http://www.w3.org/2000/svg" xmlns:xlink="http://www.w3.org/1999/xlink" width="490.272" height="76.184" viewBox="0 0 490.272 76.184">
  <defs>
    <linearGradient id="linear-gradient" x1="0.016" y1="0.413" x2="1" y2="0.569" gradientUnits="objectBoundingBox">
      <stop offset="0" stop-color="#7b6fe1"/>
      <stop offset="0.28" stop-color="#ca328e"/>
      <stop offset="0.551" stop-color="#f31b2e"/>
      <stop offset="0.792" stop-color="#ff8001"/>
      <stop offset="1" stop-color="#ffbd00"/>
    </linearGradient>
  </defs>
  <path id="Combined_Shape" data-name="Combined Shape" d="M186.751,76.184h-4.223V46.616h4.224V76.184ZM35.8,74.748a4.251,4.251,0,0,1,0-7.928A16.874,16.874,0,0,1,43.3,65.432,16.965,16.965,0,0,1,50.8,66.82a4.242,4.242,0,0,1,0,7.928,16.82,16.82,0,0,1-7.508,1.4A16.729,16.729,0,0,1,35.8,74.748Zm1.541-3.972c0,.751.491,1.292,1.5,1.652a14,14,0,0,0,4.452.524,13.992,13.992,0,0,0,4.451-.524c1.01-.361,1.5-.9,1.5-1.652,0-1.463-1.892-2.144-5.952-2.144S37.345,69.313,37.345,70.776ZM82.623,76.12H78.4V46.648h4.224v11.52h4.225v3.488H82.624V76.119h0Zm-58.944,0H19.456V46.648H23.68V57.976h4.288V61.5H23.68V76.119h0Zm123.233-.032V61.5h-2.369v13.28h-3.936v-8.7l-2.432,3.264a11.456,11.456,0,0,1-5.088-6.656,13.064,13.064,0,0,1-5.377,7.52l-2.623-3.1c4.415-2.623,5.984-7.936,5.984-12.928v-4.96h4.1v4.639c0,5.088,1.376,9.888,5.44,12.16V47.128h3.936V58.1h2.369V46.616h4V76.088Zm70.079-.192H196.64V67.768h15.424V66.04H196.608V62.808h19.616v7.968H200.8v1.856h16.192V75.9h0Zm-102.848,0H93.793V67.8h15.423V66.073H93.76V62.841h19.648v7.968H97.984v1.824h16.16V75.9h0Zm255.936-.129h-2.624V68.376H350.879V66.232h19.2v9.535h0Zm89.088-.032h-2.495v-28.7h2.5v28.7h0Zm-39.584,0H416.96V65.528H405.376V63.384H431.3l.032,2.144H419.585V75.735h0ZM400.223,75.7H397.7V61.272h-3.68V74.327h-2.464V47.672h2.464V59.128h3.68V47h2.528V75.7h0Zm-153.728-.1H226.4V66.3h4.225v5.952H246.5v3.359h0Zm94.08-.257H322.08V63.864h2.592v3.52h13.312v-3.52h2.592V75.351h0Zm-15.9-2.112h13.312V69.431H324.672Zm-20.578,2.112H283.584V68.984h17.024v-2.4H283.52V64.7H303.2v6.112H286.176v2.656H304.1v1.887h0Zm149.216-1.023h-2.463V59.513h-4.736V57.336h4.736V47.672h2.464V74.327h0ZM277.376,73.176H250.656V69.752h11.168V66.36a12.046,12.046,0,0,1-5.788-1.812,4.612,4.612,0,0,1-2.116-3.852,4.784,4.784,0,0,1,2.7-4.236,18.266,18.266,0,0,1,14.607,0A4.78,4.78,0,0,1,273.92,60.7c0,3.109-2.869,5.173-7.872,5.664v3.392h11.328v3.424h0ZM259.72,58.824a2.033,2.033,0,0,0-1.448,1.872,2.01,2.01,0,0,0,1.448,1.868,11.3,11.3,0,0,0,4.184.6c3.832,0,5.7-.806,5.7-2.464a2.033,2.033,0,0,0-1.456-1.872,11.185,11.185,0,0,0-4.24-.624A10.936,10.936,0,0,0,259.72,58.824ZM490.271,72.056H464.192V69.88h6.4V62.136a6.538,6.538,0,0,1-3.84-5.92,6.343,6.343,0,0,1,2.936-5.36,13.136,13.136,0,0,1,7.5-2c6.24,0,10.432,2.958,10.432,7.36A6.513,6.513,0,0,1,483.84,62.1V69.88h6.432v2.175h0ZM473.216,69.88h8V63.128a17.757,17.757,0,0,1-4.032.448,17.057,17.057,0,0,1-3.968-.448ZM471.5,52.36a4.455,4.455,0,0,0,0,7.712,11.843,11.843,0,0,0,11.376,0,4.439,4.439,0,0,0,0-7.712,11.837,11.837,0,0,0-11.376,0ZM60.512,63.032c0-4.06,3.149-7.007,7.488-7.007,4.3,0,7.423,2.947,7.423,7.007a6.9,6.9,0,0,1-2.116,5.1A7.666,7.666,0,0,1,68,70.1C63.662,70.1,60.512,67.129,60.512,63.032Zm4.032.032a3.506,3.506,0,0,0,5.911,2.628,3.7,3.7,0,0,0,.968-2.66,3.443,3.443,0,1,0-6.88.032ZM2.528,70.072h0L0,66.648A11.721,11.721,0,0,0,5.46,61.1a17.892,17.892,0,0,0,1.74-7.9V48.92h4.256v4.288a17.542,17.542,0,0,0,1.632,7.612A11.28,11.28,0,0,0,18.272,66.2l-2.56,3.328a11.643,11.643,0,0,1-3.881-3.236,16.113,16.113,0,0,1-2.488-4.7A17.207,17.207,0,0,1,6.7,66.623a11.968,11.968,0,0,1-4.175,3.449ZM436.1,69.592l-1.631-1.984a12.175,12.175,0,0,0,4.628-5.208,16.514,16.514,0,0,0,1.676-7.176V49.752H443.3v5.377a15.781,15.781,0,0,0,1.544,6.752,11.836,11.836,0,0,0,4.376,5.024l-1.5,2.048a13.99,13.99,0,0,1-5.664-8.193,17.624,17.624,0,0,1-2.292,5.184,12.041,12.041,0,0,1-3.659,3.648h0ZM178.3,69.3H163.776V48.984h4.192V56.12h6.143V48.984H178.3V69.3Zm-10.335-3.36h6.143V59.416h-6.143ZM378.6,67.263a7.283,7.283,0,0,1,0-9.447,6.228,6.228,0,0,1,8.808,0,7.28,7.28,0,0,1,0,9.447,6.248,6.248,0,0,1-8.808,0Zm1.66-7.84a4.672,4.672,0,0,0-1.064,3.1,4.786,4.786,0,0,0,1.064,3.153,3.658,3.658,0,0,0,5.476,0,4.772,4.772,0,0,0,1.076-3.153c0-2.5-1.6-4.32-3.808-4.32A3.587,3.587,0,0,0,380.264,59.423Zm-134.41,8.985h-4.223V57.88h-5.248v5.953h-13.92V48.6h4.192v4.48h5.6V48.632h4.128v5.856h5.248V46.68h4.224V68.407h0Zm-19.2-7.936h5.6v-4.16h-5.6ZM370.079,64.7h-2.624V59.384h-5.6V57.271h5.6V53.432h-5.6V51.287h5.6V47.064h2.624V64.695h0ZM56.671,63.96H30.048V60.632h5.984V57.08C33.855,56.091,32.7,54.6,32.7,52.76c0-3.494,4.082-5.664,10.656-5.664,6.592,0,10.688,2.17,10.688,5.664,0,1.859-1.184,3.363-3.425,4.352v3.52h6.048v3.327h0ZM40.256,60.632H46.4V58.2a30.014,30.014,0,0,1-3.04.16,23.348,23.348,0,0,1-3.1-.193Zm-3.2-7.872c0,1.569,2.238,2.433,6.3,2.433,4.085,0,6.336-.864,6.336-2.433,0-2.036-3.446-2.463-6.336-2.463C39.236,50.3,37.057,51.148,37.057,52.76ZM347.68,63.383V54.872h9.728V50.9h-9.824V48.759h12.384v8.129H350.24V61.24h.052a64.119,64.119,0,0,0,11.34-.671l.256,2.112a66.46,66.46,0,0,1-12.16.7Zm-7.105-.928h-2.622V47.064h2.624V62.455h0Zm-34.143-.1H280.416V60.376h26.016v1.984h0Zm-215.583-.7L88.8,58.361a10.252,10.252,0,0,0,5.356-3.621A8.689,8.689,0,0,0,95.84,49.56V47.353h4.288V49.56a8.049,8.049,0,0,0,1.652,4.94,9.9,9.9,0,0,0,5.228,3.38l-2.016,3.3a11.079,11.079,0,0,1-6.943-5.6,11.488,11.488,0,0,1-7.2,6.08h0ZM317.7,55a6.221,6.221,0,0,1,2.108-4.76,8.064,8.064,0,0,1,5.348-1.832,8.179,8.179,0,0,1,5.392,1.832A6.2,6.2,0,0,1,332.672,55c0,3.9-3.093,6.624-7.52,6.624C320.762,61.624,317.7,58.9,317.7,55Zm3.939-3.18a4.205,4.205,0,0,0-1.38,3.18,4.25,4.25,0,0,0,1.38,3.208,5.2,5.2,0,0,0,3.516,1.24c2.921,0,4.961-1.829,4.961-4.448,0-2.6-2.04-4.416-4.961-4.416A5.221,5.221,0,0,0,321.636,51.82Zm-208.26,9.708h-4.224V46.68h4.225V61.528h0ZM216.223,61.5H212V46.648h4.224V61.5h0Zm191.68-.512h0l-.991-2.079a15.611,15.611,0,0,0,6.847-2.764c2-1.491,3.1-3.282,3.1-5.044v-.159h-9.056V48.824h20.96v2.112h-8.992V51.1c0,1.765,1.105,3.556,3.112,5.044a15.731,15.731,0,0,0,6.9,2.764l-1.024,2.079a17.913,17.913,0,0,1-6.236-2.295,11.071,11.071,0,0,1-4.2-4.264,11.26,11.26,0,0,1-4.208,4.264,17.865,17.865,0,0,1-6.224,2.3ZM207.551,60.6h-14.3V48.12h14.3V60.6h0Zm-10.143-3.328h6.016V51.416h-6.016Zm106.207.928H283.744V52.056h16.768V49.72H283.68V47.864H303.1v5.984H286.336v2.464h17.28V58.2h0ZM76.479,54.36H59.328V51h6.528V47.16H70.08V51h6.4v3.359h0Zm313.631-.288H375.872V51.928H381.7V47.864h2.592v4.064h5.824v2.143h0Zm-113.983-.384H251.808v-3.36h10.016V46.936h4.224v3.392h10.08v3.359h0ZM423.743,28.8H421.12V.032h2.624V11.361h4.736v2.175h-4.736V28.8ZM307.3,28.8h-2.624V0H307.3V28.8h0Zm-95.393,0H209.28V.032H211.9V28.8Zm183.84-.1H393.12V.032h2.624V28.7ZM162.112,23.488a4.22,4.22,0,0,1,2.608-3.84,20.017,20.017,0,0,1,14.421,0,4.144,4.144,0,0,1,0,7.708,16.083,16.083,0,0,1-7.2,1.348C165.693,28.7,162.112,26.8,162.112,23.488Zm4.549-2.312a2.622,2.622,0,0,0-1.892,2.312c0,1.993,2.613,3.136,7.168,3.136s7.168-1.143,7.168-3.136c0-.971-.658-1.77-1.9-2.312a17.256,17.256,0,0,0-10.54,0Zm160.6,7.464a9.194,9.194,0,0,1-5.343-5.6,10.209,10.209,0,0,1-5.665,5.344l-1.312-1.952a9.432,9.432,0,0,0,4.236-3.076A6.97,6.97,0,0,0,320.7,19.2V17.5h2.528v1.7a8.02,8.02,0,0,0,4,6.88A8.6,8.6,0,0,0,331.3,19.2V17.5h2.56v1.7a7.054,7.054,0,0,0,1.516,4.264,8.992,8.992,0,0,0,4.276,2.968l-1.311,1.952a9.745,9.745,0,0,1-5.792-5.441,9.967,9.967,0,0,1-5.279,5.7Zm38.079-.288H346.048V17.216h2.592v3.36h14.112v-3.36h2.592V28.351h0Zm-16.7-2.112h14.112V22.592H348.64ZM153.95,28.1H134.625V18.88h2.623v7.071h16.7V28.1h0Zm-36.608,0H98.016V18.88h2.623v7.071h16.7V28.1h0Zm-30.784,0H66.816V20.16H69.44v5.792H86.56V28.1Zm161.727-.032H229.12v-7.9h2.623v5.76h16.544v2.143h0Zm32.225-2.88H254.432V23.04h7.3V17.6H257.7V8.735H274.72V4.288H257.632V2.144H277.28v8.7H260.288v4.608h17.663V17.6h-4.479V23.04h7.04v2.143h0ZM264.32,23.04h6.56V17.6h-6.56Zm20.1-.48h0l-.32-2.208h.728c2.169,0,4.7-.007,7.24-.094v-5.7h-5.855V2.72h14.528V4.9H288.8v7.52h12.064V14.56h-6.176v5.6c2.665-.123,5.49-.283,8.1-.608l.224,1.921a127.414,127.414,0,0,1-18.59,1.088Zm-92.892-3a12.17,12.17,0,0,1-2.053-7.3,12.171,12.171,0,0,1,2.053-7.3,6.421,6.421,0,0,1,10.488,0,12.177,12.177,0,0,1,2.051,7.3,12.176,12.176,0,0,1-2.051,7.3,6.42,6.42,0,0,1-10.488,0Zm1.787-12.865a10.426,10.426,0,0,0-1.345,5.565c0,4.594,1.93,7.681,4.8,7.681a4,4,0,0,0,3.428-2.089,10.54,10.54,0,0,0,1.339-5.592A10.465,10.465,0,0,0,200.2,6.692a3.885,3.885,0,0,0-6.884,0Zm53.951,15.324H244.64V.064h2.624v9.7h4.224v2.176h-4.224V22.015h0Zm155.616-.383V2.785h13.344V4.961H405.5V19.392l.03,0a69.536,69.536,0,0,0,12.9-.958l.288,2.176a68.328,68.328,0,0,1-13.568,1.024Zm-28.864-.32V2.816h2.624V19.073l.015,0a67.72,67.72,0,0,0,13.521-1.343l.288,2.24a67.564,67.564,0,0,1-14.081,1.344Zm-220.929-.288h-2.622V.064h2.624V21.023h0Zm-36.608,0h-2.623V.064h2.624V21.023h0Zm-27.04-3.168H63.456V15.712H75.168V12.641H66.912V1.184H69.5V4.8H83.456V1.184h2.592V12.641H77.792v3.072H89.44v2.144ZM69.5,10.528H83.456V6.848H69.5Zm155.84,7.232h0l-.352-2.143h.1c2.54,0,5.013-.043,7.353-.127v-2.88a7.256,7.256,0,0,1-4.2-1.8,5.112,5.112,0,0,1-1.588-3.8,5.045,5.045,0,0,1,1.964-4.076,9.142,9.142,0,0,1,10.2,0A5.04,5.04,0,0,1,240.8,7.008a5.086,5.086,0,0,1-1.579,3.767,7.168,7.168,0,0,1-4.148,1.8v2.816c2.4-.145,5.188-.332,7.776-.736l.192,1.921a102.246,102.246,0,0,1-17.695,1.184Zm5.032-13.392a3.253,3.253,0,0,0-1.288,2.641c0,2.182,1.865,3.648,4.64,3.648a5.328,5.328,0,0,0,3.312-1,3.255,3.255,0,0,0,1.3-2.651c0-2.148-1.895-3.649-4.608-3.649A5.372,5.372,0,0,0,230.376,4.368ZM336.991,16.384h-2.655V9.376h-5.888c-.48,3.425-3.412,5.728-7.3,5.728a7.731,7.731,0,0,1-5.248-1.876,6.493,6.493,0,0,1-2.08-4.876,6.4,6.4,0,0,1,2.08-4.82,7.76,7.76,0,0,1,5.248-1.868c3.832,0,6.752,2.237,7.264,5.567h5.92V.064h2.656V16.383h0ZM316.352,8.352a4.468,4.468,0,0,0,1.368,3.284,4.941,4.941,0,0,0,3.432,1.292,4.554,4.554,0,1,0,0-9.087A4.509,4.509,0,0,0,316.352,8.352Zm-186.143.736c0-4.08,3.135-7.041,7.456-7.041,4.357,0,7.52,2.961,7.52,7.041a6.9,6.9,0,0,1-2.153,5.112,7.791,7.791,0,0,1-5.368,1.992C133.343,16.192,130.208,13.2,130.208,9.088Zm3.964-3.428a4.7,4.7,0,0,0-1.4,3.428,4.7,4.7,0,0,0,4.9,4.832,5.057,5.057,0,0,0,3.548-1.348,4.771,4.771,0,0,0,1.413-3.484,4.708,4.708,0,0,0-4.961-4.768A4.982,4.982,0,0,0,134.172,5.66ZM93.6,9.088c0-4.08,3.136-7.041,7.456-7.041,4.358,0,7.52,2.961,7.52,7.041a6.9,6.9,0,0,1-2.152,5.112,7.793,7.793,0,0,1-5.368,1.992C96.736,16.192,93.6,13.2,93.6,9.088ZM97.564,5.66a4.7,4.7,0,0,0-1.4,3.428,4.7,4.7,0,0,0,4.9,4.832,5.059,5.059,0,0,0,3.549-1.348,4.77,4.77,0,0,0,1.412-3.484,4.707,4.707,0,0,0-4.961-4.768A4.985,4.985,0,0,0,97.564,5.66Zm87.364,10.148H158.976V13.7h25.952v2.111h0Zm183.807-.576H342.752V13.12h25.984v2.111h0Zm-207.359-3.3h0l-.927-2.079a16.792,16.792,0,0,0,6.772-2.124c1.908-1.155,2.992-2.616,3.052-4.116h-8.9V1.5h21.216V3.616h-8.928c.059,1.5,1.143,2.961,3.052,4.116a16.787,16.787,0,0,0,6.772,2.124l-.929,2.079A18.915,18.915,0,0,1,176.088,10a9.316,9.316,0,0,1-4.119-3.856c-1.509,2.957-5.568,5.177-10.592,5.792Zm183.84-.832h0l-.958-2.111a16.332,16.332,0,0,0,7.02-2.552c2.035-1.4,3.156-3.105,3.156-4.809V.352h2.687v1.28c0,1.664,1.123,3.359,3.164,4.773a16.185,16.185,0,0,0,6.981,2.588L366.3,11.1a18.7,18.7,0,0,1-6.249-2.136,11.166,11.166,0,0,1-4.28-4.008A10.983,10.983,0,0,1,351.5,8.968a18.873,18.873,0,0,1-6.287,2.137Z" transform="translate(0 0)" fill="url(#linear-gradient)"/>
</svg>
