<svg id="VIP" xmlns="http://www.w3.org/2000/svg" xmlns:xlink="http://www.w3.org/1999/xlink" width="73.413" height="35.836" viewBox="0 0 73.413 35.836">
  <defs>
    <linearGradient id="linear-gradient" x1="-0.054" y1="0.254" x2="1" y2="0.692" gradientUnits="objectBoundingBox">
      <stop offset="0" stop-color="#6f6f6f"/>
      <stop offset="0.387" stop-color="#232323"/>
      <stop offset="0.629" stop-color="#252525"/>
      <stop offset="1" stop-color="#575757"/>
    </linearGradient>
  </defs>
  <path id="Combined_Shape" data-name="Combined Shape" d="M53.392,34.836h-8.4V0H58.9a16.26,16.26,0,0,1,7.07,1.472,11.135,11.135,0,0,1,4.761,4.187,11.483,11.483,0,0,1,1.687,6.161,10.123,10.123,0,0,1-3.649,8.147c-2.421,2.024-5.79,3.05-10.013,3.05h-5.36V34.835h0Zm0-18.3h5.5a5.21,5.21,0,0,0,3.721-1.22A4.554,4.554,0,0,0,63.9,11.867a5.625,5.625,0,0,0-1.317-3.9,4.677,4.677,0,0,0-3.588-1.484h-5.6Zm-20.176,18.3V0H41.59V34.836Zm-21.588,0L0,0H9.307l6.915,25.361L23.161,0H32.54L20.815,34.836Z" transform="translate(0 1)" fill="#1e1e1e"/>
  <path id="Combined_Shape-2" data-name="Combined Shape" d="M53.392,34.836h-8.4V0H58.9a16.26,16.26,0,0,1,7.07,1.472,11.135,11.135,0,0,1,4.761,4.187,11.483,11.483,0,0,1,1.687,6.161,10.123,10.123,0,0,1-3.649,8.147c-2.421,2.024-5.79,3.05-10.013,3.05h-5.36V34.835h0Zm0-18.3h5.5a5.21,5.21,0,0,0,3.721-1.22A4.554,4.554,0,0,0,63.9,11.867a5.625,5.625,0,0,0-1.317-3.9,4.677,4.677,0,0,0-3.588-1.484h-5.6Zm-20.176,18.3V0H41.59V34.836Zm-21.588,0L0,0H9.307l6.915,25.361L23.161,0H32.54L20.815,34.836Z" transform="translate(1)" fill="url(#linear-gradient)"/>
</svg>
