<?xml version="1.0" encoding="utf-8"?>
<!-- Generator: Adobe Illustrator 27.4.0, SVG Export Plug-In . SVG Version: 6.00 Build 0)  -->
<svg version="1.1" id="레이어_1" xmlns="http://www.w3.org/2000/svg" xmlns:xlink="http://www.w3.org/1999/xlink" x="0px"
	 y="0px" viewBox="0 0 174 81" style="enable-background:new 0 0 174 81;" xml:space="preserve">
<style type="text/css">
	.st0{filter:url(#filter-3);}
	.st1{fill:#FFFFFF;}
	.st2{filter:url(#Adobe_OpacityMaskFilter);}
	.st3{fill-rule:evenodd;clip-rule:evenodd;fill:#FFFFFF;}
	.st4{mask:url(#mask-2_00000002367942811218442240000003849831601484377218_);filter:url(#filter-5);}
	.st5{fill-rule:evenodd;clip-rule:evenodd;fill:url(#SVGID_1_);}
	.st6{opacity:0.4;fill-rule:evenodd;clip-rule:evenodd;fill:#F283DC;enable-background:new    ;}
	.st7{filter:url(#Adobe_OpacityMaskFilter_00000034769061805003772110000012125838234908610986_);}
	.st8{mask:url(#mask-7_00000088815101654251727970000012336552191589158819_);fill-rule:evenodd;clip-rule:evenodd;fill:#9E6DF5;}
	.st9{fill-rule:evenodd;clip-rule:evenodd;fill:#B66CEC;}
	.st10{fill-rule:evenodd;clip-rule:evenodd;fill:#F5D0BC;}
	.st11{fill-rule:evenodd;clip-rule:evenodd;fill:#FBD5C1;}
	.st12{fill-rule:evenodd;clip-rule:evenodd;fill:#BF9280;}
	.st13{filter:url(#Adobe_OpacityMaskFilter_00000025433330468125741250000010368266880089425286_);}
	.st14{mask:url(#mask-9_00000036223258312858325780000010640812470331551395_);fill-rule:evenodd;clip-rule:evenodd;fill:#FA9BCF;}
	.st15{fill-rule:evenodd;clip-rule:evenodd;fill:#FCEFF5;}
	.st16{opacity:0.3;fill:none;stroke:#333333;stroke-width:0.5;stroke-linecap:round;enable-background:new    ;}
</style>
<filter  filterUnits="objectBoundingBox" height="183.4%" id="filter-5" width="137.8%" x="-18.9%" y="-41.7%">
	<feGaussianBlur  in="SourceGraphic" stdDeviation="10"></feGaussianBlur>
</filter>
<filter  filterUnits="objectBoundingBox" height="123.7%" id="filter-3" width="109.5%" x="-4.7%" y="-10.0%">
	<feOffset  dx="0" dy="1" in="SourceAlpha" result="shadowOffsetOuter1"></feOffset>
	<feGaussianBlur  in="shadowOffsetOuter1" result="shadowBlurOuter1" stdDeviation="2"></feGaussianBlur>
	<feColorMatrix  in="shadowBlurOuter1" type="matrix" values="0 0 0 0 0   0 0 0 0 0   0 0 0 0 0  0 0 0 0.0967548077 0">
		</feColorMatrix>
</filter>
<g id="혜택">
	<g id="이로움-혜택-수정_12.01" transform="translate(-698.000000, -865.000000)">
		<g id="Group-6" transform="translate(702.000000, 868.000000)">
			<g id="반가움">
				<g id="Shape">
					<g class="st0">
						<path id="path-1_00000158019749599501505140000004222058575670475146_" d="M129.7,31c-7.7,0.1-15.6,0.2-23,0.1
							c-2-0.1-5.8-0.2-8.1-0.3c-0.7,0-2-0.1-2.6-0.1c-1.4,0.2-2.4,0.8-2.6,2.2c-0.2,1.6,0.5,2.5,1.8,2.8c0.8,0.1,2.9,0.1,3.7,0.1
							c4.6,0.1,9.7,0.1,14.3,0.1v5.9h-9.3c-1.6,0-3.2,0.3-3.2,2.6c0,8-0.1,10.5-0.1,12.5c0,2.6,1,3.8,4.4,3.8
							c10.3,0,12.3,0,22.2-0.4c1.7-0.1,3-0.8,3.1-2.8c0.1-3.9,0.1-13.2,0.1-13.2c0.1-2-1.1-2.7-2.6-2.7c-2.8,0-6.1,0.1-9.2,0.1v-4.4
							V36c3.8,0,7.6-0.1,12-0.1c0,0,4.3-0.1,4.9-0.2c1.1-0.2,2-0.5,2-2.3c0-1.6-0.7-2.7-2.5-2.5C134.8,30.9,131,31,129.7,31z
							 M107,55.9c-0.8,0-0.8-0.4-0.8-0.9c0-3.1,0-5.5,0.1-8.3c2.2,0,5.2-0.1,9-0.1c3.4,0,6.7-0.1,8.9-0.1c0.7,0,0.8,0.2,0.8,0.7v8.3
							c-4.9,0.2-6.7,0.3-10,0.3C112.5,55.9,109.3,55.9,107,55.9z M114.4,6.6c-6.1,0.2-13.4,3.1-13.4,10.2c0,7.3,5.9,9.9,13.4,9.9
							c6.7,0,15.1-1.3,15-9.9C129.2,8.6,121.9,6.5,114.4,6.6z M123.9,16.9c-0.1,4.7-5,5.3-9.6,5.3c-3.7,0-7.9-1-7.8-5.3
							c0.1-4.1,3.8-5.5,8.1-5.7C119.6,11,124.1,12.4,123.9,16.9z M28.9,44.4c-0.1,1.8,1.4,2.8,2.7,2.8c1.1,0,2.6-0.8,2.6-2.9
							c0-5.5-0.1-10.8,0.1-16.2c2.6,0,4.6,0,6.8-0.1c1.9,0.1,2.8-1.4,2.7-2.7c-0.1-1.1-1.1-2.2-2.8-2.2c-1.4,0.1-2.7,0.1-6.7,0.1
							c0-5.5,0-11.5-0.1-14.9c-0.2-1.7-1.6-2.3-2.9-2.2c-1.4,0.1-2.7,1-2.5,2.4L29.1,27L28.9,44.4z M5.4,10c0.1-1.6-1.5-2.3-2.8-2.3
							c-1.3,0-2.7,0.8-2.6,2.3C0,11,0,13.5,0,16.5C0,21,0.1,28.4,0.1,33.8c0.1,2.3,1.6,3.1,2.9,3.1h12.8c3.5,0,4.2-0.7,4.5-3.5
							c0.4-3.9,0.4-21.3,0.4-23c0-1.3-0.7-2.6-2.2-2.6c-2.6-0.1-2.9,1.6-2.9,2.8c0,2,0.1,5.5-0.1,7.9c-3.7,0-6.7,0.1-10.3,0.1
							C5.2,15.7,5.3,12.5,5.4,10z M5.1,32.3c0-1.1,0.1-3.1,0.1-4.3c0.1-1.7,0.1-3.3,0.1-4.9c3.7,0,6.6-0.1,10.1-0.1
							c-0.1,1-0.1,3.8-0.1,4.7c-0.1,1.8,0,3.3-0.1,4.6L5.1,32.3z M11.4,55.5c-0.6,0-0.7,0-0.8-1.1c-0.1-1.8,0.1-3.9,0.1-4.7
							c0-1.1,0.1-1.5,0.1-4c0-1.8-1.4-2.7-2.5-2.7c-1.7,0-3.2,0.7-3.2,2.7c0,3,0,6.9-0.1,10.1c0.1,3.4,1.3,4.7,4.7,4.7
							c4.6-0.1,6.5-0.1,9.4-0.1h6.1c2,0,4-0.1,7.1-0.2c2.4-0.1,2.6-1.1,2.5-2.8c-0.1-1.1-0.7-2-2.8-2c-4.4,0-9.5,0.2-12.8,0.2
							C16.1,55.6,15,55.5,11.4,55.5z M77,57.2c0,1.3,0.5,2.8,2.8,2.8c1.3,0,2.1-0.2,2.5-1.8c0.2-0.8,0.1-2,0.1-3.5
							c-0.1-5.1-0.2-11.3-0.2-16.4c0-2.4-0.1-4.3-0.1-6.6c2-0.1,5.6,0,7.4-0.1c1.7-0.1,2.6-1.3,2.6-2.5s-0.8-2.3-2.7-2.3
							c-1.5,0-4.1,0.3-7.3,0c0-5.6,0-10.5-0.1-14.9c-0.1-1.4-0.1-2.6-0.1-3.5c0-1.4-0.9-2.6-2.9-2.4c-1.3,0.1-2.6,1.1-2.5,2.8
							C77.1,14.4,77,37.2,77,57.2z M49.9,14.8c1,0,3.8-0.1,6-0.1c2.8-0.1,7.1-0.1,8-0.1c0.8,0,0.8,0.3,0.7,0.8
							c-2.3,10.1-9.4,20.3-17,27.3c-0.8,0.7-1.7,2.5-1,3.5c1,1.3,3,0.7,3.9-0.1c9.9-8,17.6-20.1,19.8-31.3c0.1-0.7,0.2-1.2,0.2-1.8
							c0-2.5-1.5-3.4-4.1-3.1c-3,0.2-6,0.2-9,0.4c-3.8,0.1-6.1,0-7.4-0.1c-1.9-0.2-2.9,1-2.9,2.3C47.1,13.6,48,14.8,49.9,14.8z"/>
					</g>
					<g>
						<path id="path-1_00000118369768556029037340000016955534836125460372_" class="st1" d="M129.7,31c-7.7,0.1-15.6,0.2-23,0.1
							c-2-0.1-5.8-0.2-8.1-0.3c-0.7,0-2-0.1-2.6-0.1c-1.4,0.2-2.4,0.8-2.6,2.2c-0.2,1.6,0.5,2.5,1.8,2.8c0.8,0.1,2.9,0.1,3.7,0.1
							c4.6,0.1,9.7,0.1,14.3,0.1v5.9h-9.3c-1.6,0-3.2,0.3-3.2,2.6c0,8-0.1,10.5-0.1,12.5c0,2.6,1,3.8,4.4,3.8
							c10.3,0,12.3,0,22.2-0.4c1.7-0.1,3-0.8,3.1-2.8c0.1-3.9,0.1-13.2,0.1-13.2c0.1-2-1.1-2.7-2.6-2.7c-2.8,0-6.1,0.1-9.2,0.1v-4.4
							V36c3.8,0,7.6-0.1,12-0.1c0,0,4.3-0.1,4.9-0.2c1.1-0.2,2-0.5,2-2.3c0-1.6-0.7-2.7-2.5-2.5C134.8,30.9,131,31,129.7,31z
							 M107,55.9c-0.8,0-0.8-0.4-0.8-0.9c0-3.1,0-5.5,0.1-8.3c2.2,0,5.2-0.1,9-0.1c3.4,0,6.7-0.1,8.9-0.1c0.7,0,0.8,0.2,0.8,0.7v8.3
							c-4.9,0.2-6.7,0.3-10,0.3C112.5,55.9,109.3,55.9,107,55.9z M114.4,6.6c-6.1,0.2-13.4,3.1-13.4,10.2c0,7.3,5.9,9.9,13.4,9.9
							c6.7,0,15.1-1.3,15-9.9C129.2,8.6,121.9,6.5,114.4,6.6z M123.9,16.9c-0.1,4.7-5,5.3-9.6,5.3c-3.7,0-7.9-1-7.8-5.3
							c0.1-4.1,3.8-5.5,8.1-5.7C119.6,11,124.1,12.4,123.9,16.9z M28.9,44.4c-0.1,1.8,1.4,2.8,2.7,2.8c1.1,0,2.6-0.8,2.6-2.9
							c0-5.5-0.1-10.8,0.1-16.2c2.6,0,4.6,0,6.8-0.1c1.9,0.1,2.8-1.4,2.7-2.7c-0.1-1.1-1.1-2.2-2.8-2.2c-1.4,0.1-2.7,0.1-6.7,0.1
							c0-5.5,0-11.5-0.1-14.9c-0.2-1.7-1.6-2.3-2.9-2.2c-1.4,0.1-2.7,1-2.5,2.4L29.1,27L28.9,44.4z M5.4,10c0.1-1.6-1.5-2.3-2.8-2.3
							c-1.3,0-2.7,0.8-2.6,2.3C0,11,0,13.5,0,16.5C0,21,0.1,28.4,0.1,33.8c0.1,2.3,1.6,3.1,2.9,3.1h12.8c3.5,0,4.2-0.7,4.5-3.5
							c0.4-3.9,0.4-21.3,0.4-23c0-1.3-0.7-2.6-2.2-2.6c-2.6-0.1-2.9,1.6-2.9,2.8c0,2,0.1,5.5-0.1,7.9c-3.7,0-6.7,0.1-10.3,0.1
							C5.2,15.7,5.3,12.5,5.4,10z M5.1,32.3c0-1.1,0.1-3.1,0.1-4.3c0.1-1.7,0.1-3.3,0.1-4.9c3.7,0,6.6-0.1,10.1-0.1
							c-0.1,1-0.1,3.8-0.1,4.7c-0.1,1.8,0,3.3-0.1,4.6L5.1,32.3z M11.4,55.5c-0.6,0-0.7,0-0.8-1.1c-0.1-1.8,0.1-3.9,0.1-4.7
							c0-1.1,0.1-1.5,0.1-4c0-1.8-1.4-2.7-2.5-2.7c-1.7,0-3.2,0.7-3.2,2.7c0,3,0,6.9-0.1,10.1c0.1,3.4,1.3,4.7,4.7,4.7
							c4.6-0.1,6.5-0.1,9.4-0.1h6.1c2,0,4-0.1,7.1-0.2c2.4-0.1,2.6-1.1,2.5-2.8c-0.1-1.1-0.7-2-2.8-2c-4.4,0-9.5,0.2-12.8,0.2
							C16.1,55.6,15,55.5,11.4,55.5z M77,57.2c0,1.3,0.5,2.8,2.8,2.8c1.3,0,2.1-0.2,2.5-1.8c0.2-0.8,0.1-2,0.1-3.5
							c-0.1-5.1-0.2-11.3-0.2-16.4c0-2.4-0.1-4.3-0.1-6.6c2-0.1,5.6,0,7.4-0.1c1.7-0.1,2.6-1.3,2.6-2.5s-0.8-2.3-2.7-2.3
							c-1.5,0-4.1,0.3-7.3,0c0-5.6,0-10.5-0.1-14.9c-0.1-1.4-0.1-2.6-0.1-3.5c0-1.4-0.9-2.6-2.9-2.4c-1.3,0.1-2.6,1.1-2.5,2.8
							C77.1,14.4,77,37.2,77,57.2z M49.9,14.8c1,0,3.8-0.1,6-0.1c2.8-0.1,7.1-0.1,8-0.1c0.8,0,0.8,0.3,0.7,0.8
							c-2.3,10.1-9.4,20.3-17,27.3c-0.8,0.7-1.7,2.5-1,3.5c1,1.3,3,0.7,3.9-0.1c9.9-8,17.6-20.1,19.8-31.3c0.1-0.7,0.2-1.2,0.2-1.8
							c0-2.5-1.5-3.4-4.1-3.1c-3,0.2-6,0.2-9,0.4c-3.8,0.1-6.1,0-7.4-0.1c-1.9-0.2-2.9,1-2.9,2.3C47.1,13.6,48,14.8,49.9,14.8z"/>
					</g>
				</g>
				<defs>
					<filter id="Adobe_OpacityMaskFilter" filterUnits="userSpaceOnUse" x="-10.4" y="-1.2" width="157" height="71.5">
						<feColorMatrix  type="matrix" values="1 0 0 0 0  0 1 0 0 0  0 0 1 0 0  0 0 0 1 0"/>
					</filter>
				</defs>
				
					<mask maskUnits="userSpaceOnUse" x="-10.4" y="-1.2" width="157" height="71.5" id="mask-2_00000002367942811218442240000003849831601484377218_">
					<g class="st2">
						<path id="path-1_00000142160308785972488360000008457257636762008980_" class="st3" d="M129.7,31c-7.7,0.1-15.6,0.2-23,0.1
							c-2-0.1-5.8-0.2-8.1-0.3c-0.7,0-2-0.1-2.6-0.1c-1.4,0.2-2.4,0.8-2.6,2.2c-0.2,1.6,0.5,2.5,1.8,2.8c0.8,0.1,2.9,0.1,3.7,0.1
							c4.6,0.1,9.7,0.1,14.3,0.1v5.9h-9.3c-1.6,0-3.2,0.3-3.2,2.6c0,8-0.1,10.5-0.1,12.5c0,2.6,1,3.8,4.4,3.8
							c10.3,0,12.3,0,22.2-0.4c1.7-0.1,3-0.8,3.1-2.8c0.1-3.9,0.1-13.2,0.1-13.2c0.1-2-1.1-2.7-2.6-2.7c-2.8,0-6.1,0.1-9.2,0.1v-4.4
							V36c3.8,0,7.6-0.1,12-0.1c0,0,4.3-0.1,4.9-0.2c1.1-0.2,2-0.5,2-2.3c0-1.6-0.7-2.7-2.5-2.5C134.8,30.9,131,31,129.7,31z
							 M107,55.9c-0.8,0-0.8-0.4-0.8-0.9c0-3.1,0-5.5,0.1-8.3c2.2,0,5.2-0.1,9-0.1c3.4,0,6.7-0.1,8.9-0.1c0.7,0,0.8,0.2,0.8,0.7v8.3
							c-4.9,0.2-6.7,0.3-10,0.3C112.5,55.9,109.3,55.9,107,55.9z M114.4,6.6c-6.1,0.2-13.4,3.1-13.4,10.2c0,7.3,5.9,9.9,13.4,9.9
							c6.7,0,15.1-1.3,15-9.9C129.2,8.6,121.9,6.5,114.4,6.6z M123.9,16.9c-0.1,4.7-5,5.3-9.6,5.3c-3.7,0-7.9-1-7.8-5.3
							c0.1-4.1,3.8-5.5,8.1-5.7C119.6,11,124.1,12.4,123.9,16.9z M28.9,44.4c-0.1,1.8,1.4,2.8,2.7,2.8c1.1,0,2.6-0.8,2.6-2.9
							c0-5.5-0.1-10.8,0.1-16.2c2.6,0,4.6,0,6.8-0.1c1.9,0.1,2.8-1.4,2.7-2.7c-0.1-1.1-1.1-2.2-2.8-2.2c-1.4,0.1-2.7,0.1-6.7,0.1
							c0-5.5,0-11.5-0.1-14.9c-0.2-1.7-1.6-2.3-2.9-2.2c-1.4,0.1-2.7,1-2.5,2.4L29.1,27L28.9,44.4z M5.4,10c0.1-1.6-1.5-2.3-2.8-2.3
							c-1.3,0-2.7,0.8-2.6,2.3C0,11,0,13.5,0,16.5C0,21,0.1,28.4,0.1,33.8c0.1,2.3,1.6,3.1,2.9,3.1h12.8c3.5,0,4.2-0.7,4.5-3.5
							c0.4-3.9,0.4-21.3,0.4-23c0-1.3-0.7-2.6-2.2-2.6c-2.6-0.1-2.9,1.6-2.9,2.8c0,2,0.1,5.5-0.1,7.9c-3.7,0-6.7,0.1-10.3,0.1
							C5.2,15.7,5.3,12.5,5.4,10z M5.1,32.3c0-1.1,0.1-3.1,0.1-4.3c0.1-1.7,0.1-3.3,0.1-4.9c3.7,0,6.6-0.1,10.1-0.1
							c-0.1,1-0.1,3.8-0.1,4.7c-0.1,1.8,0,3.3-0.1,4.6L5.1,32.3z M11.4,55.5c-0.6,0-0.7,0-0.8-1.1c-0.1-1.8,0.1-3.9,0.1-4.7
							c0-1.1,0.1-1.5,0.1-4c0-1.8-1.4-2.7-2.5-2.7c-1.7,0-3.2,0.7-3.2,2.7c0,3,0,6.9-0.1,10.1c0.1,3.4,1.3,4.7,4.7,4.7
							c4.6-0.1,6.5-0.1,9.4-0.1h6.1c2,0,4-0.1,7.1-0.2c2.4-0.1,2.6-1.1,2.5-2.8c-0.1-1.1-0.7-2-2.8-2c-4.4,0-9.5,0.2-12.8,0.2
							C16.1,55.6,15,55.5,11.4,55.5z M77,57.2c0,1.3,0.5,2.8,2.8,2.8c1.3,0,2.1-0.2,2.5-1.8c0.2-0.8,0.1-2,0.1-3.5
							c-0.1-5.1-0.2-11.3-0.2-16.4c0-2.4-0.1-4.3-0.1-6.6c2-0.1,5.6,0,7.4-0.1c1.7-0.1,2.6-1.3,2.6-2.5s-0.8-2.3-2.7-2.3
							c-1.5,0-4.1,0.3-7.3,0c0-5.6,0-10.5-0.1-14.9c-0.1-1.4-0.1-2.6-0.1-3.5c0-1.4-0.9-2.6-2.9-2.4c-1.3,0.1-2.6,1.1-2.5,2.8
							C77.1,14.4,77,37.2,77,57.2z M49.9,14.8c1,0,3.8-0.1,6-0.1c2.8-0.1,7.1-0.1,8-0.1c0.8,0,0.8,0.3,0.7,0.8
							c-2.3,10.1-9.4,20.3-17,27.3c-0.8,0.7-1.7,2.5-1,3.5c1,1.3,3,0.7,3.9-0.1c9.9-8,17.6-20.1,19.8-31.3c0.1-0.7,0.2-1.2,0.2-1.8
							c0-2.5-1.5-3.4-4.1-3.1c-3,0.2-6,0.2-9,0.4c-3.8,0.1-6.1,0-7.4-0.1c-1.9-0.2-2.9,1-2.9,2.3C47.1,13.6,48,14.8,49.9,14.8z"/>
					</g>
				</mask>
				<g id="Rectangle" class="st4">
					
						<linearGradient id="SVGID_1_" gradientUnits="userSpaceOnUse" x1="-875.4086" y1="570.554" x2="-874.4086" y2="570.3776" gradientTransform="matrix(157.0412 0 0 -71.5372 137465.9531 40842.3008)">
						<stop  offset="0" style="stop-color:#FF9BAF"/>
						<stop  offset="0.4493" style="stop-color:#F074DA"/>
						<stop  offset="1" style="stop-color:#8264FD"/>
					</linearGradient>
					<path class="st5" d="M-0.2,0.6l18.7,3.2l0,0l47.7-2.2L126-1.2c3.8-0.2,7.1,2.3,8.1,6c3.3,12.7,5.2,19.9,5.5,21.5
						c3,15,7.1,24.8,7.1,32.4c0,11.3-13.4,14.4-40.1,9.3l0,0c0,0,0,0,0,0c-18.5-3.5-35.2-5.2-50.1-5.2c-11.9,0-29,1.1-51.1,3.3l0,0
						c-4.1,0.4-7.8-2.4-8.6-6.4c0,0,0,0,0,0c-1.8-7.5-2.8-7.4-6.2-12.1c-3.9-5.4,6.1-14.9,6.2-17.4c0.4-7.6-6.2-12.2-6.2-16.9
						c0-1.7,0-3.2-0.1-4.6c-0.1-4.4,3.3-8.1,7.7-8.3C-1.2,0.4-0.7,0.5-0.2,0.6z"/>
				</g>
			</g>
			<path id="Oval" class="st6" d="M65.6,62.3c3.7-3.3,5.1-5.4,4.1-6.2c-1-0.8-2.4-0.4-4.1,1.3c-1.9-2.1-3.3-2.6-4.1-1.3
				S62,59.4,65.6,62.3z"/>
			
				<g id="Group-14" transform="translate(145.652677, 49.384888) rotate(-51.000000) translate(-145.652677, -49.384888) translate(136.693339, 39.112540)">
				<g id="Group-3" transform="translate(0.000000, 12.913898)">
					<g id="Clip-2">
					</g>
					<defs>
						
							<filter id="Adobe_OpacityMaskFilter_00000137104915359675784170000018360503434720981150_" filterUnits="userSpaceOnUse" x="-6.4" y="-7.9" width="9.9" height="0">
							<feColorMatrix  type="matrix" values="1 0 0 0 0  0 1 0 0 0  0 0 1 0 0  0 0 0 1 0"/>
						</filter>
					</defs>
					
						<mask maskUnits="userSpaceOnUse" x="-6.4" y="-7.9" width="9.9" height="0" id="mask-7_00000088815101654251727970000012336552191589158819_">
						<g style="filter:url(#Adobe_OpacityMaskFilter_00000137104915359675784170000018360503434720981150_);">
							<polygon id="path-6_00000166663249924690042920000004366868755051245732_" class="st3" points="-4.7,3.8 3,3.8 3,11.4 
								-4.7,11.4 							"/>
						</g>
					</mask>
					<path id="Fill-1" class="st8" d="M-1.1,3.8c-1.3,0.6-2.3,1.7-3,3c-0.5,1-0.7,2.2-0.4,3.3c0.1,0.2,0.2,0.5,0.3,0.6
						c0.1,0.1,0.3,0.2,0.4,0.3c0.9,0.5,2.1,0.5,3,0.1c0.3-0.1,0.6-0.3,0.9-0.5C1.3,9.7,2.4,8.7,3,7.3"/>
				</g>
				<path id="Fill-4" class="st9" d="M0.3,16.5c-0.6-0.1-1.3-0.1-1.9,0c-0.1,0-0.2,0-0.2,0.1c0,0.1-0.1,0.1-0.1,0.2
					c-0.1,0.7,0.5,1.3,1.1,1.8c0.7,0.6,1.4,1.1,2.3,1.5c0.3,0.1,0.6,0.2,0.9,0.2c0.3,0,0.6-0.1,0.8-0.4c0.1-0.2,0.2-0.4,0.2-0.6
					c0.1-1-0.7-2-1.7-2.3"/>
				<path id="Fill-6" class="st10" d="M1.1,15.4c-0.3,0.5-0.6,0.9-1.1,1.3c-0.1,0-0.1,0.1-0.1,0.1c0,0.1-0.1,0.1-0.1,0.2
					c0,0.3,0.2,0.6,0.6,0.9c0.3,0.2,0.7,0.3,1.1,0.4c0.4,0.1,1,0.2,1.4,0c0.4-0.2,0.5-0.6,0.7-0.9C3.7,17,4,16.5,4.4,16.1"/>
				<path id="Fill-8" class="st11" d="M1.8,6.8C1.9,6.5,2.1,6.2,2.3,6C2.4,6,2.6,5.9,2.7,6C3,6,3.2,6.3,3.2,6.5C3.6,7.4,3,9,3,9.8
					C3,10,3,10.1,3.2,10.2c0.2,0.1,0.4-0.1,0.5-0.3c0.8-1,1.5-2,2.3-3C6.6,6,7.2,5,7.8,4C8,3.7,8.5,3.7,8.8,3.9
					c0.4,0.3-0.1,1.4-0.3,1.7C7.9,6.9,6.8,7.8,6.3,9.1c0,0.1,0,0.1,0,0.2c0,0.2,0.3,0.3,0.5,0.3c0.1,0,0.2-0.2,0.3-0.3
					c0.3-0.4,2.4-3.2,3.7-4c0.4-0.2,0.6-0.1,0.7,0.1c0.2,0.2,0.2,0.5,0,0.7c-1,1.7-2.3,3-3.3,4.7c0,0-0.1,0.1-0.1,0.2
					c0,0.1,0.3,0.3,0.4,0.3c0.1,0,0.2-0.1,0.3-0.2c1.1-0.9,2.5-2,3.8-2.6c0.2-0.1,0.3-0.1,0.5,0.1c0.2,0.2,0.2,0.5,0.1,0.7
					c-0.7,1.4-2.9,2-3.8,3.3c-0.1,0.1,0.3,0.6,0.4,0.5c0.6-0.2,2-1.5,2.6-1.7c0.1,0,0.4,0,0.5,0.2c0.1,0.1,0.1,0.3,0,0.4
					c-0.8,1.1-3,2.7-4.1,3.5C8,16,7.1,16.6,6.3,17.2c-0.9,0.6-2,1.3-3,1c-1-0.3-1.5-1.4-2.4-1.9c-0.3-0.2-0.8-0.3-1-0.6
					c-0.2-0.2-0.3-0.5-0.3-0.8c-0.2-1.4,0.3-3.2,1-4.4C0.9,10,1.5,7.5,1.8,6.8"/>
				<path id="Fill-10" class="st12" d="M8.1,14C8.1,14,8,14,8.1,14c-0.4-0.6-0.6-1.2-1-1.6c-0.1-0.2-0.3-0.4-0.5-0.5l-1.4-1.5
					c0,0,0-0.1,0-0.2c0,0,0.1,0,0.1,0l1.4,1.5c0.2,0.2,0.3,0.3,0.5,0.5c0.4,0.5,0.7,1.1,0.9,1.6C8.2,13.9,8.2,13.9,8.1,14
					C8.1,14,8.1,14,8.1,14"/>
				<path id="Fill-12" class="st12" d="M1.3,14.2C1.3,14.2,1.3,14.2,1.3,14.2C1.2,14.1,1.2,14,1.3,14c0.9-0.5,1.6-1.4,1.9-2.3
					c0.1-0.2,0.1-0.3,0.1-0.5c0-0.1,0-0.1,0.1-0.1c0.1,0,0.1,0,0.1,0.1c0,0.2,0,0.4-0.1,0.6C3,12.8,2.3,13.6,1.3,14.2
					C1.4,14.2,1.3,14.2,1.3,14.2"/>
			</g>
			
				<g id="Group-14-Copy" transform="translate(48.845458, 56.233119) scale(-1, 1) rotate(-51.000000) translate(-48.845458, -56.233119) translate(42.872566, 49.384888)">
				<g id="Group-3_00000088836042685643077210000003937597673679151030_" transform="translate(-0.000000, 8.609265)">
					<g id="Clip-2_00000111165840401277941390000007801524955783967909_">
					</g>
					<defs>
						
							<filter id="Adobe_OpacityMaskFilter_00000047750777492965102400000001709470586469378728_" filterUnits="userSpaceOnUse" x="-3.2" y="3.3" width="1.3" height="6.5">
							<feColorMatrix  type="matrix" values="1 0 0 0 0  0 1 0 0 0  0 0 1 0 0  0 0 0 1 0"/>
						</filter>
					</defs>
					
						<mask maskUnits="userSpaceOnUse" x="-3.2" y="3.3" width="1.3" height="6.5" id="mask-9_00000036223258312858325780000010640812470331551395_">
						<g style="filter:url(#Adobe_OpacityMaskFilter_00000047750777492965102400000001709470586469378728_);">
							<polygon id="path-8_00000115488111468113536590000018292910275670332570_" class="st3" points="-4.7,3.8 0.4,3.8 0.4,8.9 
								-4.7,8.9 							"/>
						</g>
					</mask>
					<path id="Fill-1_00000089546885663563890740000016932674500320191641_" class="st14" d="M-2.3,3.8c-0.9,0.4-1.6,1.1-2,2
						C-4.6,6.4-4.8,7.2-4.6,8c0,0.2,0.1,0.3,0.2,0.4c0.1,0.1,0.2,0.2,0.3,0.2C-3.5,8.9-2.7,9-2,8.7c0.2-0.1,0.4-0.2,0.6-0.4
						C-0.7,7.7,0.1,7,0.4,6.2"/>
				</g>
				<path id="Fill-4_00000155835291942637805020000013567182144273945021_" class="st15" d="M-1.3,12.3c-0.4-0.1-0.8-0.1-1.2,0
					c-0.1,0-0.1,0-0.2,0.1c0,0,0,0.1,0,0.1c0,0.5,0.4,0.9,0.7,1.2c0.5,0.4,1,0.8,1.5,1c0.2,0.1,0.4,0.1,0.6,0.1
					c0.2,0,0.4-0.1,0.6-0.3c0.1-0.1,0.1-0.3,0.1-0.4c0.1-0.7-0.5-1.3-1.1-1.5"/>
				<path id="Fill-6_00000089551221389724452600000008366716048339558788_" class="st10" d="M-0.8,11.5c-0.2,0.3-0.4,0.6-0.7,0.8
					c0,0-0.1,0.1-0.1,0.1c0,0,0,0.1,0,0.1c0,0.2,0.2,0.4,0.4,0.6c0.2,0.1,0.5,0.2,0.7,0.3c0.3,0.1,0.6,0.2,0.9,0
					c0.2-0.1,0.3-0.4,0.4-0.6c0.1-0.3,0.3-0.6,0.6-0.9"/>
				<path id="Fill-8_00000114042837553433895570000009176439759526903952_" class="st11" d="M-0.4,5.8C-0.3,5.6-0.2,5.4,0,5.3
					c0.1,0,0.2-0.1,0.3-0.1c0.2,0,0.3,0.2,0.3,0.3c0.2,0.6-0.2,1.7-0.2,2.2C0.4,7.9,0.5,8,0.6,8C0.7,8.1,0.8,8,0.9,7.9
					c0.5-0.7,1-1.3,1.5-2c0.4-0.6,0.8-1.3,1.2-1.9c0.1-0.2,0.4-0.2,0.6-0.1C4.6,4.1,4.2,4.8,4.1,5C3.7,5.8,3,6.5,2.6,7.3
					c0,0,0,0.1,0,0.1c0,0.1,0.2,0.2,0.3,0.2c0.1,0,0.2-0.1,0.2-0.2c0.2-0.3,1.6-2.1,2.5-2.7c0.2-0.2,0.4-0.1,0.5,0
					c0.1,0.1,0.1,0.3,0,0.5c-0.7,1.1-1.5,2-2.2,3.1c0,0,0,0.1,0,0.1c0,0.1,0.2,0.2,0.3,0.2c0.1,0,0.1-0.1,0.2-0.1
					C5.1,8,6,7.3,6.9,6.9c0.1,0,0.2,0,0.3,0C7.3,7,7.3,7.3,7.2,7.4C6.7,8.3,5.3,8.7,4.7,9.6C4.7,9.7,4.9,10,5,9.9
					c0.4-0.2,1.3-1,1.7-1.1c0.1,0,0.2,0,0.3,0.2c0,0.1,0,0.2,0,0.3c-0.6,0.7-2,1.8-2.8,2.3c-0.5,0.4-1.1,0.8-1.6,1.2
					c-0.6,0.4-1.3,0.9-2,0.7c-0.7-0.2-1-0.9-1.6-1.3c-0.2-0.1-0.5-0.2-0.7-0.4c-0.1-0.1-0.2-0.3-0.2-0.5C-2,10.2-1.6,9-1.2,8.2
					C-1,7.9-0.5,6.3-0.4,5.8"/>
				<path id="Fill-10_00000020361964904835692510000001946406876619759506_" class="st12" d="M3.8,10.6C3.8,10.6,3.8,10.6,3.8,10.6
					c-0.2-0.4-0.4-0.8-0.7-1.1C3.1,9.4,3,9.3,2.9,9.1l-1-1c0,0,0-0.1,0-0.1c0,0,0.1,0,0.1,0l1,1c0.1,0.1,0.2,0.2,0.3,0.4
					c0.3,0.3,0.4,0.7,0.6,1.1C3.9,10.5,3.9,10.5,3.8,10.6C3.9,10.6,3.8,10.6,3.8,10.6"/>
				<path id="Fill-12_00000045619125044352614160000010174878508961918901_" class="st12" d="M-0.7,10.7
					C-0.7,10.7-0.7,10.7-0.7,10.7c-0.1-0.1-0.1-0.1,0-0.1c0.6-0.4,1-0.9,1.3-1.5c0-0.1,0.1-0.2,0.1-0.3c0,0,0-0.1,0.1-0.1
					c0,0,0.1,0,0.1,0.1c0,0.1,0,0.3-0.1,0.4C0.4,9.8,0,10.3-0.7,10.7C-0.7,10.7-0.7,10.7-0.7,10.7"/>
			</g>
			<line id="Line-5" class="st16" x1="54.9" y1="57.9" x2="58.4" y2="55.8"/>
			<line id="Line-5-Copy" class="st16" x1="54.9" y1="61.3" x2="59.7" y2="62.7"/>
		</g>
	</g>
</g>
</svg>
