<svg id="본인_인증이_완료되었습니다_사용하실" data-name="본인 인증이 완료되었습니다 사용하실" xmlns="http://www.w3.org/2000/svg" xmlns:xlink="http://www.w3.org/1999/xlink" width="365.024" height="122.768" viewBox="0 0 365.024 122.768">
  <defs>
    <linearGradient id="linear-gradient" x1="0.016" y1="0.413" x2="1" y2="0.569" gradientUnits="objectBoundingBox">
      <stop offset="0" stop-color="#7b6fe1"/>
      <stop offset="0.28" stop-color="#ca328e"/>
      <stop offset="0.551" stop-color="#f31b2e"/>
      <stop offset="0.792" stop-color="#ff8001"/>
      <stop offset="1" stop-color="#ffbd00"/>
    </linearGradient>
  </defs>
  <g id="Combined_Shape" data-name="Combined Shape">
    <path id="Combined_Shape-2" data-name="Combined Shape" d="M148.576,122.768h-2.624v-7.392H129.376v-2.144h19.2v9.535Zm89.087-.032h-2.495v-28.7h2.5v28.7h0Zm-39.584,0h-2.624V112.528H183.872v-2.144h25.92l.032,2.144H198.08v10.207h0Zm-19.36-.032h-2.527V108.272h-3.68v13.055h-2.464V94.672h2.464v11.456h3.68V94h2.528v28.7h0Zm-59.648-.351H100.576V110.865h2.592v3.52H116.48v-3.52h2.592v11.488Zm-15.9-2.112H116.48v-3.808H103.168Zm128.639,1.088h-2.463V106.512h-4.736v-2.176h4.736V94.672h2.464v26.655h0Zm36.96-2.272H242.688V116.88h6.4v-7.744a6.541,6.541,0,0,1-3.84-5.92,6.343,6.343,0,0,1,2.937-5.36,13.133,13.133,0,0,1,7.5-2c6.24,0,10.432,2.957,10.432,7.36a6.515,6.515,0,0,1-3.776,5.888v7.776h6.432v2.175h0Zm-17.055-2.176h8v-6.752a17.8,17.8,0,0,1-4.032.448,17.111,17.111,0,0,1-3.968-.448ZM250,99.36a4.454,4.454,0,0,0,0,7.712,11.837,11.837,0,0,0,11.376,0,4.44,4.44,0,0,0,0-7.712,11.843,11.843,0,0,0-11.376,0Zm-35.409,17.231-1.632-1.984a12.159,12.159,0,0,0,4.628-5.208,16.5,16.5,0,0,0,1.676-7.176V96.752h2.528v5.377a15.794,15.794,0,0,0,1.544,6.752,11.848,11.848,0,0,0,4.376,5.024l-1.5,2.048a13.985,13.985,0,0,1-5.664-8.193,17.6,17.6,0,0,1-2.292,5.184,12.03,12.03,0,0,1-3.659,3.648h0ZM157.1,114.264a7.284,7.284,0,0,1,0-9.448,6.229,6.229,0,0,1,8.809,0,7.284,7.284,0,0,1,0,9.448,6.251,6.251,0,0,1-8.809,0Zm1.661-7.84a4.674,4.674,0,0,0-1.064,3.1,4.791,4.791,0,0,0,1.064,3.153,3.658,3.658,0,0,0,5.476,0,4.772,4.772,0,0,0,1.076-3.153c0-2.5-1.6-4.32-3.808-4.32A3.585,3.585,0,0,0,158.76,106.424ZM148.576,111.7h-2.624v-5.312h-5.6v-2.112h5.6v-3.839h-5.6V98.288h5.6V94.064h2.624V111.7Zm-22.4-1.312v-8.511H135.9V97.9H126.08V95.76h12.384v8.129h-9.728v4.352l.025,0h.026a64.229,64.229,0,0,0,11.341-.671l.256,2.112a66.547,66.547,0,0,1-12.16.7Zm-7.106-.928h-2.623V94.064h2.623v15.392ZM96.192,102A6.226,6.226,0,0,1,98.3,97.24a8.068,8.068,0,0,1,5.348-1.831,8.18,8.18,0,0,1,5.392,1.831A6.2,6.2,0,0,1,111.168,102c0,3.9-3.092,6.624-7.52,6.624C99.257,108.625,96.192,105.9,96.192,102Zm3.939-3.181A4.212,4.212,0,0,0,98.752,102a4.255,4.255,0,0,0,1.38,3.208,5.209,5.209,0,0,0,3.516,1.24c2.92,0,4.961-1.83,4.961-4.448,0-2.6-2.04-4.416-4.961-4.416A5.22,5.22,0,0,0,100.131,98.82Zm86.268,9.164h0l-.991-2.079a15.607,15.607,0,0,0,6.847-2.764c2-1.49,3.1-3.282,3.1-5.044v-.159H186.3V95.824h20.96v2.112h-8.992V98.1c0,1.765,1.105,3.557,3.112,5.044a15.731,15.731,0,0,0,6.9,2.764l-1.023,2.079a17.918,17.918,0,0,1-6.237-2.295,11.072,11.072,0,0,1-4.2-4.264,11.247,11.247,0,0,1-4.208,4.264,17.84,17.84,0,0,1-6.223,2.3Zm-17.792-6.912H154.368V98.928h5.824V94.864h2.592v4.064h5.824v2.143h0ZM215.2,76.184h-4.223V46.616H215.2V76.184ZM64.252,74.748a4.251,4.251,0,0,1,0-7.928,16.874,16.874,0,0,1,7.493-1.388,16.965,16.965,0,0,1,7.508,1.388,4.242,4.242,0,0,1,0,7.928,16.82,16.82,0,0,1-7.508,1.4A16.729,16.729,0,0,1,64.252,74.748Zm1.541-3.972c0,.751.491,1.292,1.5,1.652a14,14,0,0,0,4.452.524,13.992,13.992,0,0,0,4.451-.524c1.009-.361,1.5-.9,1.5-1.652,0-1.463-1.892-2.144-5.952-2.144S65.793,69.313,65.793,70.776Zm45.278,5.344h-4.223V46.648h4.224v11.52H115.3v3.488h-4.225V76.119h0Zm-58.944,0H47.9V46.648h4.224V57.976h4.288V61.5H52.128V76.119h0Zm123.233-.032V61.5h-2.368v13.28h-3.936v-8.7l-2.432,3.264a11.457,11.457,0,0,1-5.089-6.656,13.059,13.059,0,0,1-5.376,7.52l-2.623-3.1c4.415-2.623,5.983-7.936,5.983-12.928v-4.96h4.1v4.639c0,5.088,1.375,9.888,5.44,12.16V47.128h3.936V58.1h2.368V46.616h4V76.088Zm70.079-.192H225.088V67.768h15.424V66.04H225.056V62.808h19.616v7.968H229.248v1.856H245.44V75.9h0Zm-102.848,0h-20.35V67.8h15.423V66.073H122.208V62.841h19.648v7.968H126.432v1.824h16.16V75.9h0Zm132.352-.288h-20.1V66.3h4.225v5.952h15.871v3.359h0Zm57.6-.257H312.032V68.984h17.024v-2.4H311.968V64.7h19.68v6.112H314.624v2.656h17.92v1.887h0Zm-26.72-2.175H279.1V69.752h11.168V66.36a12.046,12.046,0,0,1-5.788-1.812,4.612,4.612,0,0,1-2.116-3.852,4.784,4.784,0,0,1,2.7-4.236,18.268,18.268,0,0,1,14.608,0,4.78,4.78,0,0,1,2.693,4.236c0,3.109-2.87,5.173-7.872,5.664v3.392h11.328v3.424h0ZM288.168,58.824A2.033,2.033,0,0,0,286.72,60.7a2.01,2.01,0,0,0,1.448,1.868,11.3,11.3,0,0,0,4.184.6c3.832,0,5.7-.806,5.7-2.464a2.033,2.033,0,0,0-1.456-1.872,11.185,11.185,0,0,0-4.24-.624A10.936,10.936,0,0,0,288.168,58.824ZM88.961,63.032c0-4.06,3.149-7.007,7.488-7.007,4.3,0,7.423,2.947,7.423,7.007a6.9,6.9,0,0,1-2.116,5.1A7.666,7.666,0,0,1,96.449,70.1C92.11,70.1,88.961,67.129,88.961,63.032Zm4.032.032A3.506,3.506,0,0,0,98.9,65.692a3.7,3.7,0,0,0,.968-2.66,3.443,3.443,0,1,0-6.88.032ZM30.976,70.072h0l-2.527-3.424a11.721,11.721,0,0,0,5.46-5.544,17.892,17.892,0,0,0,1.74-7.9V48.92H39.9v4.288a17.542,17.542,0,0,0,1.632,7.612A11.276,11.276,0,0,0,46.72,66.2l-2.56,3.328a11.643,11.643,0,0,1-3.881-3.236,16.113,16.113,0,0,1-2.488-4.7,17.207,17.207,0,0,1-2.64,5.032,11.968,11.968,0,0,1-4.175,3.449ZM206.751,69.3H192.224V48.984h4.192V56.12h6.143V48.984h4.192V69.3Zm-10.335-3.36h6.143V59.416h-6.143ZM274.3,68.408H270.08V57.88h-5.248v5.953h-13.92V48.6H255.1v4.48h5.6V48.632h4.128v5.856h5.248V46.68H274.3V68.407h0Zm-19.2-7.936h5.6v-4.16h-5.6ZM85.118,63.96H58.5V60.632H64.48V57.08c-2.177-.989-3.328-2.483-3.328-4.32,0-3.494,4.082-5.664,10.656-5.664C78.4,47.1,82.5,49.266,82.5,52.76c0,1.859-1.184,3.363-3.424,4.352v3.52H85.12v3.327h0ZM68.7,60.632h6.144V58.2a30.014,30.014,0,0,1-3.04.16,23.348,23.348,0,0,1-3.1-.193ZM65.5,52.76c0,1.569,2.238,2.433,6.3,2.433,4.085,0,6.336-.864,6.336-2.433,0-2.036-3.446-2.463-6.336-2.463C67.684,50.3,65.5,51.148,65.5,52.76Zm269.375,9.6H308.864V60.376H334.88v1.984h0Zm-215.583-.7-2.048-3.295A10.252,10.252,0,0,0,122.6,54.74a8.689,8.689,0,0,0,1.684-5.179V47.353h4.289V49.56a8.049,8.049,0,0,0,1.652,4.94,9.9,9.9,0,0,0,5.228,3.38l-2.016,3.3a11.077,11.077,0,0,1-6.944-5.6,11.488,11.488,0,0,1-7.2,6.08h0Zm22.527-.127H137.6V46.68h4.225V61.528h0ZM244.671,61.5h-4.223V46.648h4.224V61.5h0ZM236,60.6H221.7V48.12H236V60.6h0Zm-10.143-3.328h6.016V51.416h-6.016Zm106.207.928H312.192V52.056H328.96V49.72H312.128V47.864h19.424v5.984H314.784v2.464h17.28V58.2h0ZM104.927,54.36H87.776V51H94.3V47.16h4.225V51h6.4v3.359h0Zm199.647-.672H280.256v-3.36h10.016V46.936H294.5v3.392h10.08v3.359h0ZM360.287,28.8h-2.623V.032h2.623V11.361h4.736v2.175h-4.736V28.8Zm-116.448,0h-2.623V0h2.624V28.8h0Zm-95.392,0h-2.623V.032h2.623V28.8Zm183.84-.1h-2.623V.032h2.624V28.7ZM98.655,23.488a4.22,4.22,0,0,1,2.608-3.84A16.15,16.15,0,0,1,108.48,18.3a16.14,16.14,0,0,1,7.2,1.344,4.144,4.144,0,0,1,0,7.708,16.084,16.084,0,0,1-7.2,1.348C102.236,28.7,98.655,26.8,98.655,23.488Zm4.549-2.312a2.622,2.622,0,0,0-1.892,2.312c0,1.993,2.613,3.136,7.168,3.136s7.168-1.143,7.168-3.136c0-.971-.658-1.77-1.9-2.312a17.256,17.256,0,0,0-10.54,0Zm160.6,7.464a9.189,9.189,0,0,1-5.342-5.6,10.214,10.214,0,0,1-5.665,5.344l-1.312-1.952a9.429,9.429,0,0,0,4.235-3.076,6.971,6.971,0,0,0,1.525-4.156V17.5h2.528v1.7a8.018,8.018,0,0,0,4,6.88,8.6,8.6,0,0,0,4.063-6.88V17.5H270.4v1.7a7.054,7.054,0,0,0,1.516,4.264,8.984,8.984,0,0,0,4.276,2.968l-1.311,1.952a9.742,9.742,0,0,1-5.792-5.441,9.971,9.971,0,0,1-5.28,5.7Zm38.08-.288h-19.3V17.216h2.592v3.36H299.3v-3.36h2.592V28.351h0Zm-16.7-2.112H299.3V22.592H285.184ZM90.5,28.1H71.168V18.88h2.623v7.071H90.5V28.1h0Zm-36.608,0H34.56V18.88h2.624v7.071h16.7V28.1h0ZM23.1,28.1H3.36V20.16H5.984v5.792H23.1V28.1Zm161.727-.032H165.664v-7.9h2.623v5.76h16.544v2.143h0Zm32.225-2.88H190.976V23.04h7.3V17.6h-4.032V8.735h17.023V4.288H194.177V2.144h19.648v8.7H196.833v4.608H214.5V17.6h-4.479V23.04h7.04v2.143h0Zm-16.19-2.144h6.56V17.6h-6.56Zm20.1-.48h0l-.319-2.208h.728c2.169,0,4.7-.007,7.24-.094v-5.7h-5.855V2.72h14.528V4.9H225.345v7.52h12.064V14.56h-6.176v5.6c2.664-.123,5.49-.283,8.1-.608l.224,1.921a127.428,127.428,0,0,1-18.59,1.088Zm-92.893-3a12.17,12.17,0,0,1-2.052-7.3,12.171,12.171,0,0,1,2.052-7.3,6.421,6.421,0,0,1,10.488,0,12.171,12.171,0,0,1,2.052,7.3,12.17,12.17,0,0,1-2.052,7.3,6.42,6.42,0,0,1-10.488,0Zm1.787-12.865a10.426,10.426,0,0,0-1.344,5.565c0,4.594,1.929,7.681,4.8,7.681a4,4,0,0,0,3.427-2.089,10.54,10.54,0,0,0,1.34-5.592,10.465,10.465,0,0,0-1.34-5.565,3.885,3.885,0,0,0-6.884,0Zm53.951,15.324h-2.624V.064h2.624v9.7h4.224v2.176h-4.224V22.015h0Zm155.617-.383V2.785h13.344V4.961h-10.72V19.392l.029,0a69.546,69.546,0,0,0,12.9-.958l.288,2.176A68.334,68.334,0,0,1,341.7,21.632Zm-28.864-.32V2.816h2.624V19.073l.014,0a67.728,67.728,0,0,0,13.522-1.343l.288,2.24a67.57,67.57,0,0,1-14.08,1.344ZM89.631,21.024H87.008V.064h2.624V21.023h0Zm-36.608,0H50.4V.064h2.624V21.023h0Zm-27.04-3.168H0V15.712H11.712V12.641H3.456V1.184H6.048V4.8H20V1.184h2.592V12.641H14.336v3.072H25.984v2.144ZM6.048,10.528H20V6.848H6.048ZM161.887,17.76h0l-.352-2.143h.1c2.539,0,5.013-.043,7.352-.127v-2.88a7.253,7.253,0,0,1-4.2-1.8,5.113,5.113,0,0,1-1.589-3.8,5.043,5.043,0,0,1,1.965-4.076,9.141,9.141,0,0,1,10.2,0,5.04,5.04,0,0,1,1.975,4.076,5.086,5.086,0,0,1-1.579,3.767,7.166,7.166,0,0,1-4.148,1.8v2.816c2.4-.145,5.188-.332,7.776-.736l.192,1.921a102.245,102.245,0,0,1-17.695,1.184ZM166.92,4.368a3.252,3.252,0,0,0-1.289,2.641c0,2.182,1.865,3.648,4.64,3.648a5.326,5.326,0,0,0,3.312-1,3.255,3.255,0,0,0,1.3-2.651c0-2.148-1.895-3.649-4.608-3.649A5.367,5.367,0,0,0,166.92,4.368ZM273.535,16.384H270.88V9.376h-5.888c-.481,3.425-3.413,5.728-7.3,5.728a7.728,7.728,0,0,1-5.248-1.876,6.489,6.489,0,0,1-2.08-4.876,6.4,6.4,0,0,1,2.08-4.82A7.758,7.758,0,0,1,257.7,1.664c3.832,0,6.751,2.237,7.264,5.567h5.92V.064h2.656V16.383h0ZM252.9,8.352a4.467,4.467,0,0,0,1.367,3.284,4.942,4.942,0,0,0,3.433,1.292,4.554,4.554,0,1,0,0-9.087A4.509,4.509,0,0,0,252.9,8.352ZM66.752,9.088c0-4.08,3.136-7.041,7.456-7.041,4.358,0,7.52,2.961,7.52,7.041A6.9,6.9,0,0,1,79.576,14.2a7.8,7.8,0,0,1-5.368,1.992C69.888,16.192,66.752,13.2,66.752,9.088ZM70.716,5.66a4.7,4.7,0,0,0-1.4,3.428,4.7,4.7,0,0,0,4.9,4.832,5.061,5.061,0,0,0,3.549-1.348,4.77,4.77,0,0,0,1.412-3.484A4.707,4.707,0,0,0,74.208,4.32,4.983,4.983,0,0,0,70.716,5.66ZM30.144,9.088c0-4.08,3.136-7.041,7.456-7.041,4.358,0,7.52,2.961,7.52,7.041A6.9,6.9,0,0,1,42.968,14.2,7.792,7.792,0,0,1,37.6,16.192C33.279,16.192,30.144,13.2,30.144,9.088ZM34.107,5.66a4.7,4.7,0,0,0-1.4,3.428,4.7,4.7,0,0,0,4.9,4.832,5.058,5.058,0,0,0,3.549-1.348A4.77,4.77,0,0,0,42.56,9.088,4.707,4.707,0,0,0,37.6,4.32,4.985,4.985,0,0,0,34.107,5.66Zm87.364,10.148H95.52V13.7h25.952v2.111h0Zm183.808-.576H279.3V13.12H305.28v2.111h0Zm-207.36-3.3-.927-2.079a16.788,16.788,0,0,0,6.772-2.124c1.909-1.155,2.993-2.616,3.052-4.116h-8.9V1.5h21.216V3.616h-8.928c.06,1.5,1.144,2.961,3.052,4.116a16.792,16.792,0,0,0,6.772,2.124l-.928,2.079A18.915,18.915,0,0,1,112.632,10a9.314,9.314,0,0,1-4.12-3.856C107,9.1,102.944,11.321,97.92,11.936Zm183.84-.831h0L280.8,8.992a16.332,16.332,0,0,0,7.02-2.552c2.036-1.4,3.156-3.105,3.156-4.809V.352h2.687v1.28c0,1.664,1.123,3.359,3.164,4.773a16.177,16.177,0,0,0,6.98,2.588l-.96,2.111A18.7,18.7,0,0,1,296.6,8.968a11.169,11.169,0,0,1-4.28-4.008,10.971,10.971,0,0,1-4.272,4.008A18.873,18.873,0,0,1,281.76,11.1Z" fill="none"/>
    <path id="Combined_Shape-3" data-name="Combined Shape" d="M148.576,122.768h-2.624v-7.392H129.376v-2.144h19.2v9.535Zm89.087-.032h-2.495v-28.7h2.5v28.7h0Zm-39.584,0h-2.624V112.528H183.872v-2.144h25.92l.032,2.144H198.08v10.207h0Zm-19.36-.032h-2.527V108.272h-3.68v13.055h-2.464V94.672h2.464v11.456h3.68V94h2.528v28.7h0Zm-59.648-.351H100.576V110.865h2.592v3.52H116.48v-3.52h2.592v11.488Zm-15.9-2.112H116.48v-3.808H103.168Zm128.639,1.088h-2.463V106.512h-4.736v-2.176h4.736V94.672h2.464v26.655h0Zm36.96-2.272H242.688V116.88h6.4v-7.744a6.541,6.541,0,0,1-3.84-5.92,6.343,6.343,0,0,1,2.937-5.36,13.133,13.133,0,0,1,7.5-2c6.24,0,10.432,2.957,10.432,7.36a6.515,6.515,0,0,1-3.776,5.888v7.776h6.432v2.175h0Zm-17.055-2.176h8v-6.752a17.8,17.8,0,0,1-4.032.448,17.111,17.111,0,0,1-3.968-.448ZM250,99.36a4.454,4.454,0,0,0,0,7.712,11.837,11.837,0,0,0,11.376,0,4.44,4.44,0,0,0,0-7.712,11.843,11.843,0,0,0-11.376,0Zm-35.409,17.231-1.632-1.984a12.159,12.159,0,0,0,4.628-5.208,16.5,16.5,0,0,0,1.676-7.176V96.752h2.528v5.377a15.794,15.794,0,0,0,1.544,6.752,11.848,11.848,0,0,0,4.376,5.024l-1.5,2.048a13.985,13.985,0,0,1-5.664-8.193,17.6,17.6,0,0,1-2.292,5.184,12.03,12.03,0,0,1-3.659,3.648h0ZM157.1,114.264a7.284,7.284,0,0,1,0-9.448,6.229,6.229,0,0,1,8.809,0,7.284,7.284,0,0,1,0,9.448,6.251,6.251,0,0,1-8.809,0Zm1.661-7.84a4.674,4.674,0,0,0-1.064,3.1,4.791,4.791,0,0,0,1.064,3.153,3.658,3.658,0,0,0,5.476,0,4.772,4.772,0,0,0,1.076-3.153c0-2.5-1.6-4.32-3.808-4.32A3.585,3.585,0,0,0,158.76,106.424ZM148.576,111.7h-2.624v-5.312h-5.6v-2.112h5.6v-3.839h-5.6V98.288h5.6V94.064h2.624V111.7Zm-22.4-1.312v-8.511H135.9V97.9H126.08V95.76h12.384v8.129h-9.728v4.352l.025,0h.026a64.229,64.229,0,0,0,11.341-.671l.256,2.112a66.547,66.547,0,0,1-12.16.7Zm-7.106-.928h-2.623V94.064h2.623v15.392ZM96.192,102A6.226,6.226,0,0,1,98.3,97.24a8.068,8.068,0,0,1,5.348-1.831,8.18,8.18,0,0,1,5.392,1.831A6.2,6.2,0,0,1,111.168,102c0,3.9-3.092,6.624-7.52,6.624C99.257,108.625,96.192,105.9,96.192,102Zm3.939-3.181A4.212,4.212,0,0,0,98.752,102a4.255,4.255,0,0,0,1.38,3.208,5.209,5.209,0,0,0,3.516,1.24c2.92,0,4.961-1.83,4.961-4.448,0-2.6-2.04-4.416-4.961-4.416A5.22,5.22,0,0,0,100.131,98.82Zm86.268,9.164h0l-.991-2.079a15.607,15.607,0,0,0,6.847-2.764c2-1.49,3.1-3.282,3.1-5.044v-.159H186.3V95.824h20.96v2.112h-8.992V98.1c0,1.765,1.105,3.557,3.112,5.044a15.731,15.731,0,0,0,6.9,2.764l-1.023,2.079a17.918,17.918,0,0,1-6.237-2.295,11.072,11.072,0,0,1-4.2-4.264,11.247,11.247,0,0,1-4.208,4.264,17.84,17.84,0,0,1-6.223,2.3Zm-17.792-6.912H154.368V98.928h5.824V94.864h2.592v4.064h5.824v2.143h0ZM215.2,76.184h-4.223V46.616H215.2V76.184ZM64.252,74.748a4.251,4.251,0,0,1,0-7.928,16.874,16.874,0,0,1,7.493-1.388,16.965,16.965,0,0,1,7.508,1.388,4.242,4.242,0,0,1,0,7.928,16.82,16.82,0,0,1-7.508,1.4A16.729,16.729,0,0,1,64.252,74.748Zm1.541-3.972c0,.751.491,1.292,1.5,1.652a14,14,0,0,0,4.452.524,13.992,13.992,0,0,0,4.451-.524c1.009-.361,1.5-.9,1.5-1.652,0-1.463-1.892-2.144-5.952-2.144S65.793,69.313,65.793,70.776Zm45.278,5.344h-4.223V46.648h4.224v11.52H115.3v3.488h-4.225V76.119h0Zm-58.944,0H47.9V46.648h4.224V57.976h4.288V61.5H52.128V76.119h0Zm123.233-.032V61.5h-2.368v13.28h-3.936v-8.7l-2.432,3.264a11.457,11.457,0,0,1-5.089-6.656,13.059,13.059,0,0,1-5.376,7.52l-2.623-3.1c4.415-2.623,5.983-7.936,5.983-12.928v-4.96h4.1v4.639c0,5.088,1.375,9.888,5.44,12.16V47.128h3.936V58.1h2.368V46.616h4V76.088Zm70.079-.192H225.088V67.768h15.424V66.04H225.056V62.808h19.616v7.968H229.248v1.856H245.44V75.9h0Zm-102.848,0h-20.35V67.8h15.423V66.073H122.208V62.841h19.648v7.968H126.432v1.824h16.16V75.9h0Zm132.352-.288h-20.1V66.3h4.225v5.952h15.871v3.359h0Zm57.6-.257H312.032V68.984h17.024v-2.4H311.968V64.7h19.68v6.112H314.624v2.656h17.92v1.887h0Zm-26.72-2.175H279.1V69.752h11.168V66.36a12.046,12.046,0,0,1-5.788-1.812,4.612,4.612,0,0,1-2.116-3.852,4.784,4.784,0,0,1,2.7-4.236,18.268,18.268,0,0,1,14.608,0,4.78,4.78,0,0,1,2.693,4.236c0,3.109-2.87,5.173-7.872,5.664v3.392h11.328v3.424h0ZM288.168,58.824A2.033,2.033,0,0,0,286.72,60.7a2.01,2.01,0,0,0,1.448,1.868,11.3,11.3,0,0,0,4.184.6c3.832,0,5.7-.806,5.7-2.464a2.033,2.033,0,0,0-1.456-1.872,11.185,11.185,0,0,0-4.24-.624A10.936,10.936,0,0,0,288.168,58.824ZM88.961,63.032c0-4.06,3.149-7.007,7.488-7.007,4.3,0,7.423,2.947,7.423,7.007a6.9,6.9,0,0,1-2.116,5.1A7.666,7.666,0,0,1,96.449,70.1C92.11,70.1,88.961,67.129,88.961,63.032Zm4.032.032A3.506,3.506,0,0,0,98.9,65.692a3.7,3.7,0,0,0,.968-2.66,3.443,3.443,0,1,0-6.88.032ZM30.976,70.072h0l-2.527-3.424a11.721,11.721,0,0,0,5.46-5.544,17.892,17.892,0,0,0,1.74-7.9V48.92H39.9v4.288a17.542,17.542,0,0,0,1.632,7.612A11.276,11.276,0,0,0,46.72,66.2l-2.56,3.328a11.643,11.643,0,0,1-3.881-3.236,16.113,16.113,0,0,1-2.488-4.7,17.207,17.207,0,0,1-2.64,5.032,11.968,11.968,0,0,1-4.175,3.449ZM206.751,69.3H192.224V48.984h4.192V56.12h6.143V48.984h4.192V69.3Zm-10.335-3.36h6.143V59.416h-6.143ZM274.3,68.408H270.08V57.88h-5.248v5.953h-13.92V48.6H255.1v4.48h5.6V48.632h4.128v5.856h5.248V46.68H274.3V68.407h0Zm-19.2-7.936h5.6v-4.16h-5.6ZM85.118,63.96H58.5V60.632H64.48V57.08c-2.177-.989-3.328-2.483-3.328-4.32,0-3.494,4.082-5.664,10.656-5.664C78.4,47.1,82.5,49.266,82.5,52.76c0,1.859-1.184,3.363-3.424,4.352v3.52H85.12v3.327h0ZM68.7,60.632h6.144V58.2a30.014,30.014,0,0,1-3.04.16,23.348,23.348,0,0,1-3.1-.193ZM65.5,52.76c0,1.569,2.238,2.433,6.3,2.433,4.085,0,6.336-.864,6.336-2.433,0-2.036-3.446-2.463-6.336-2.463C67.684,50.3,65.5,51.148,65.5,52.76Zm269.375,9.6H308.864V60.376H334.88v1.984h0Zm-215.583-.7-2.048-3.295A10.252,10.252,0,0,0,122.6,54.74a8.689,8.689,0,0,0,1.684-5.179V47.353h4.289V49.56a8.049,8.049,0,0,0,1.652,4.94,9.9,9.9,0,0,0,5.228,3.38l-2.016,3.3a11.077,11.077,0,0,1-6.944-5.6,11.488,11.488,0,0,1-7.2,6.08h0Zm22.527-.127H137.6V46.68h4.225V61.528h0ZM244.671,61.5h-4.223V46.648h4.224V61.5h0ZM236,60.6H221.7V48.12H236V60.6h0Zm-10.143-3.328h6.016V51.416h-6.016Zm106.207.928H312.192V52.056H328.96V49.72H312.128V47.864h19.424v5.984H314.784v2.464h17.28V58.2h0ZM104.927,54.36H87.776V51H94.3V47.16h4.225V51h6.4v3.359h0Zm199.647-.672H280.256v-3.36h10.016V46.936H294.5v3.392h10.08v3.359h0ZM360.287,28.8h-2.623V.032h2.623V11.361h4.736v2.175h-4.736V28.8Zm-116.448,0h-2.623V0h2.624V28.8h0Zm-95.392,0h-2.623V.032h2.623V28.8Zm183.84-.1h-2.623V.032h2.624V28.7ZM98.655,23.488a4.22,4.22,0,0,1,2.608-3.84A16.15,16.15,0,0,1,108.48,18.3a16.14,16.14,0,0,1,7.2,1.344,4.144,4.144,0,0,1,0,7.708,16.084,16.084,0,0,1-7.2,1.348C102.236,28.7,98.655,26.8,98.655,23.488Zm4.549-2.312a2.622,2.622,0,0,0-1.892,2.312c0,1.993,2.613,3.136,7.168,3.136s7.168-1.143,7.168-3.136c0-.971-.658-1.77-1.9-2.312a17.256,17.256,0,0,0-10.54,0Zm160.6,7.464a9.189,9.189,0,0,1-5.342-5.6,10.214,10.214,0,0,1-5.665,5.344l-1.312-1.952a9.429,9.429,0,0,0,4.235-3.076,6.971,6.971,0,0,0,1.525-4.156V17.5h2.528v1.7a8.018,8.018,0,0,0,4,6.88,8.6,8.6,0,0,0,4.063-6.88V17.5H270.4v1.7a7.054,7.054,0,0,0,1.516,4.264,8.984,8.984,0,0,0,4.276,2.968l-1.311,1.952a9.742,9.742,0,0,1-5.792-5.441,9.971,9.971,0,0,1-5.28,5.7Zm38.08-.288h-19.3V17.216h2.592v3.36H299.3v-3.36h2.592V28.351h0Zm-16.7-2.112H299.3V22.592H285.184ZM90.5,28.1H71.168V18.88h2.623v7.071H90.5V28.1h0Zm-36.608,0H34.56V18.88h2.624v7.071h16.7V28.1h0ZM23.1,28.1H3.36V20.16H5.984v5.792H23.1V28.1Zm161.727-.032H165.664v-7.9h2.623v5.76h16.544v2.143h0Zm32.225-2.88H190.976V23.04h7.3V17.6h-4.032V8.735h17.023V4.288H194.177V2.144h19.648v8.7H196.833v4.608H214.5V17.6h-4.479V23.04h7.04v2.143h0Zm-16.19-2.144h6.56V17.6h-6.56Zm20.1-.48h0l-.319-2.208h.728c2.169,0,4.7-.007,7.24-.094v-5.7h-5.855V2.72h14.528V4.9H225.345v7.52h12.064V14.56h-6.176v5.6c2.664-.123,5.49-.283,8.1-.608l.224,1.921a127.428,127.428,0,0,1-18.59,1.088Zm-92.893-3a12.17,12.17,0,0,1-2.052-7.3,12.171,12.171,0,0,1,2.052-7.3,6.421,6.421,0,0,1,10.488,0,12.171,12.171,0,0,1,2.052,7.3,12.17,12.17,0,0,1-2.052,7.3,6.42,6.42,0,0,1-10.488,0Zm1.787-12.865a10.426,10.426,0,0,0-1.344,5.565c0,4.594,1.929,7.681,4.8,7.681a4,4,0,0,0,3.427-2.089,10.54,10.54,0,0,0,1.34-5.592,10.465,10.465,0,0,0-1.34-5.565,3.885,3.885,0,0,0-6.884,0Zm53.951,15.324h-2.624V.064h2.624v9.7h4.224v2.176h-4.224V22.015h0Zm155.617-.383V2.785h13.344V4.961h-10.72V19.392l.029,0a69.546,69.546,0,0,0,12.9-.958l.288,2.176A68.334,68.334,0,0,1,341.7,21.632Zm-28.864-.32V2.816h2.624V19.073l.014,0a67.728,67.728,0,0,0,13.522-1.343l.288,2.24a67.57,67.57,0,0,1-14.08,1.344ZM89.631,21.024H87.008V.064h2.624V21.023h0Zm-36.608,0H50.4V.064h2.624V21.023h0Zm-27.04-3.168H0V15.712H11.712V12.641H3.456V1.184H6.048V4.8H20V1.184h2.592V12.641H14.336v3.072H25.984v2.144ZM6.048,10.528H20V6.848H6.048ZM161.887,17.76h0l-.352-2.143h.1c2.539,0,5.013-.043,7.352-.127v-2.88a7.253,7.253,0,0,1-4.2-1.8,5.113,5.113,0,0,1-1.589-3.8,5.043,5.043,0,0,1,1.965-4.076,9.141,9.141,0,0,1,10.2,0,5.04,5.04,0,0,1,1.975,4.076,5.086,5.086,0,0,1-1.579,3.767,7.166,7.166,0,0,1-4.148,1.8v2.816c2.4-.145,5.188-.332,7.776-.736l.192,1.921a102.245,102.245,0,0,1-17.695,1.184ZM166.92,4.368a3.252,3.252,0,0,0-1.289,2.641c0,2.182,1.865,3.648,4.64,3.648a5.326,5.326,0,0,0,3.312-1,3.255,3.255,0,0,0,1.3-2.651c0-2.148-1.895-3.649-4.608-3.649A5.367,5.367,0,0,0,166.92,4.368ZM273.535,16.384H270.88V9.376h-5.888c-.481,3.425-3.413,5.728-7.3,5.728a7.728,7.728,0,0,1-5.248-1.876,6.489,6.489,0,0,1-2.08-4.876,6.4,6.4,0,0,1,2.08-4.82A7.758,7.758,0,0,1,257.7,1.664c3.832,0,6.751,2.237,7.264,5.567h5.92V.064h2.656V16.383h0ZM252.9,8.352a4.467,4.467,0,0,0,1.367,3.284,4.942,4.942,0,0,0,3.433,1.292,4.554,4.554,0,1,0,0-9.087A4.509,4.509,0,0,0,252.9,8.352ZM66.752,9.088c0-4.08,3.136-7.041,7.456-7.041,4.358,0,7.52,2.961,7.52,7.041A6.9,6.9,0,0,1,79.576,14.2a7.8,7.8,0,0,1-5.368,1.992C69.888,16.192,66.752,13.2,66.752,9.088ZM70.716,5.66a4.7,4.7,0,0,0-1.4,3.428,4.7,4.7,0,0,0,4.9,4.832,5.061,5.061,0,0,0,3.549-1.348,4.77,4.77,0,0,0,1.412-3.484A4.707,4.707,0,0,0,74.208,4.32,4.983,4.983,0,0,0,70.716,5.66ZM30.144,9.088c0-4.08,3.136-7.041,7.456-7.041,4.358,0,7.52,2.961,7.52,7.041A6.9,6.9,0,0,1,42.968,14.2,7.792,7.792,0,0,1,37.6,16.192C33.279,16.192,30.144,13.2,30.144,9.088ZM34.107,5.66a4.7,4.7,0,0,0-1.4,3.428,4.7,4.7,0,0,0,4.9,4.832,5.058,5.058,0,0,0,3.549-1.348A4.77,4.77,0,0,0,42.56,9.088,4.707,4.707,0,0,0,37.6,4.32,4.985,4.985,0,0,0,34.107,5.66Zm87.364,10.148H95.52V13.7h25.952v2.111h0Zm183.808-.576H279.3V13.12H305.28v2.111h0Zm-207.36-3.3-.927-2.079a16.788,16.788,0,0,0,6.772-2.124c1.909-1.155,2.993-2.616,3.052-4.116h-8.9V1.5h21.216V3.616h-8.928c.06,1.5,1.144,2.961,3.052,4.116a16.792,16.792,0,0,0,6.772,2.124l-.928,2.079A18.915,18.915,0,0,1,112.632,10a9.314,9.314,0,0,1-4.12-3.856C107,9.1,102.944,11.321,97.92,11.936Zm183.84-.831h0L280.8,8.992a16.332,16.332,0,0,0,7.02-2.552c2.036-1.4,3.156-3.105,3.156-4.809V.352h2.687v1.28c0,1.664,1.123,3.359,3.164,4.773a16.177,16.177,0,0,0,6.98,2.588l-.96,2.111A18.7,18.7,0,0,1,296.6,8.968a11.169,11.169,0,0,1-4.28-4.008,10.971,10.971,0,0,1-4.272,4.008A18.873,18.873,0,0,1,281.76,11.1Z" fill="#333"/>
    <path id="Combined_Shape-4" data-name="Combined Shape" d="M148.576,122.768h-2.624v-7.392H129.376v-2.144h19.2v9.535Zm89.087-.032h-2.495v-28.7h2.5v28.7h0Zm-39.584,0h-2.624V112.528H183.872v-2.144h25.92l.032,2.144H198.08v10.207h0Zm-19.36-.032h-2.527V108.272h-3.68v13.055h-2.464V94.672h2.464v11.456h3.68V94h2.528v28.7h0Zm-59.648-.351H100.576V110.865h2.592v3.52H116.48v-3.52h2.592v11.488Zm-15.9-2.112H116.48v-3.808H103.168Zm128.639,1.088h-2.463V106.512h-4.736v-2.176h4.736V94.672h2.464v26.655h0Zm36.96-2.272H242.688V116.88h6.4v-7.744a6.541,6.541,0,0,1-3.84-5.92,6.343,6.343,0,0,1,2.937-5.36,13.133,13.133,0,0,1,7.5-2c6.24,0,10.432,2.957,10.432,7.36a6.515,6.515,0,0,1-3.776,5.888v7.776h6.432v2.175h0Zm-17.055-2.176h8v-6.752a17.8,17.8,0,0,1-4.032.448,17.111,17.111,0,0,1-3.968-.448ZM250,99.36a4.454,4.454,0,0,0,0,7.712,11.837,11.837,0,0,0,11.376,0,4.44,4.44,0,0,0,0-7.712,11.843,11.843,0,0,0-11.376,0Zm-35.409,17.231-1.632-1.984a12.159,12.159,0,0,0,4.628-5.208,16.5,16.5,0,0,0,1.676-7.176V96.752h2.528v5.377a15.794,15.794,0,0,0,1.544,6.752,11.848,11.848,0,0,0,4.376,5.024l-1.5,2.048a13.985,13.985,0,0,1-5.664-8.193,17.6,17.6,0,0,1-2.292,5.184,12.03,12.03,0,0,1-3.659,3.648h0ZM157.1,114.264a7.284,7.284,0,0,1,0-9.448,6.229,6.229,0,0,1,8.809,0,7.284,7.284,0,0,1,0,9.448,6.251,6.251,0,0,1-8.809,0Zm1.661-7.84a4.674,4.674,0,0,0-1.064,3.1,4.791,4.791,0,0,0,1.064,3.153,3.658,3.658,0,0,0,5.476,0,4.772,4.772,0,0,0,1.076-3.153c0-2.5-1.6-4.32-3.808-4.32A3.585,3.585,0,0,0,158.76,106.424ZM148.576,111.7h-2.624v-5.312h-5.6v-2.112h5.6v-3.839h-5.6V98.288h5.6V94.064h2.624V111.7Zm-22.4-1.312v-8.511H135.9V97.9H126.08V95.76h12.384v8.129h-9.728v4.352l.025,0h.026a64.229,64.229,0,0,0,11.341-.671l.256,2.112a66.547,66.547,0,0,1-12.16.7Zm-7.106-.928h-2.623V94.064h2.623v15.392ZM96.192,102A6.226,6.226,0,0,1,98.3,97.24a8.068,8.068,0,0,1,5.348-1.831,8.18,8.18,0,0,1,5.392,1.831A6.2,6.2,0,0,1,111.168,102c0,3.9-3.092,6.624-7.52,6.624C99.257,108.625,96.192,105.9,96.192,102Zm3.939-3.181A4.212,4.212,0,0,0,98.752,102a4.255,4.255,0,0,0,1.38,3.208,5.209,5.209,0,0,0,3.516,1.24c2.92,0,4.961-1.83,4.961-4.448,0-2.6-2.04-4.416-4.961-4.416A5.22,5.22,0,0,0,100.131,98.82Zm86.268,9.164h0l-.991-2.079a15.607,15.607,0,0,0,6.847-2.764c2-1.49,3.1-3.282,3.1-5.044v-.159H186.3V95.824h20.96v2.112h-8.992V98.1c0,1.765,1.105,3.557,3.112,5.044a15.731,15.731,0,0,0,6.9,2.764l-1.023,2.079a17.918,17.918,0,0,1-6.237-2.295,11.072,11.072,0,0,1-4.2-4.264,11.247,11.247,0,0,1-4.208,4.264,17.84,17.84,0,0,1-6.223,2.3Zm-17.792-6.912H154.368V98.928h5.824V94.864h2.592v4.064h5.824v2.143h0ZM215.2,76.184h-4.223V46.616H215.2V76.184ZM64.252,74.748a4.251,4.251,0,0,1,0-7.928,16.874,16.874,0,0,1,7.493-1.388,16.965,16.965,0,0,1,7.508,1.388,4.242,4.242,0,0,1,0,7.928,16.82,16.82,0,0,1-7.508,1.4A16.729,16.729,0,0,1,64.252,74.748Zm1.541-3.972c0,.751.491,1.292,1.5,1.652a14,14,0,0,0,4.452.524,13.992,13.992,0,0,0,4.451-.524c1.009-.361,1.5-.9,1.5-1.652,0-1.463-1.892-2.144-5.952-2.144S65.793,69.313,65.793,70.776Zm45.278,5.344h-4.223V46.648h4.224v11.52H115.3v3.488h-4.225V76.119h0Zm-58.944,0H47.9V46.648h4.224V57.976h4.288V61.5H52.128V76.119h0Zm123.233-.032V61.5h-2.368v13.28h-3.936v-8.7l-2.432,3.264a11.457,11.457,0,0,1-5.089-6.656,13.059,13.059,0,0,1-5.376,7.52l-2.623-3.1c4.415-2.623,5.983-7.936,5.983-12.928v-4.96h4.1v4.639c0,5.088,1.375,9.888,5.44,12.16V47.128h3.936V58.1h2.368V46.616h4V76.088Zm70.079-.192H225.088V67.768h15.424V66.04H225.056V62.808h19.616v7.968H229.248v1.856H245.44V75.9h0Zm-102.848,0h-20.35V67.8h15.423V66.073H122.208V62.841h19.648v7.968H126.432v1.824h16.16V75.9h0Zm132.352-.288h-20.1V66.3h4.225v5.952h15.871v3.359h0Zm57.6-.257H312.032V68.984h17.024v-2.4H311.968V64.7h19.68v6.112H314.624v2.656h17.92v1.887h0Zm-26.72-2.175H279.1V69.752h11.168V66.36a12.046,12.046,0,0,1-5.788-1.812,4.612,4.612,0,0,1-2.116-3.852,4.784,4.784,0,0,1,2.7-4.236,18.268,18.268,0,0,1,14.608,0,4.78,4.78,0,0,1,2.693,4.236c0,3.109-2.87,5.173-7.872,5.664v3.392h11.328v3.424h0ZM288.168,58.824A2.033,2.033,0,0,0,286.72,60.7a2.01,2.01,0,0,0,1.448,1.868,11.3,11.3,0,0,0,4.184.6c3.832,0,5.7-.806,5.7-2.464a2.033,2.033,0,0,0-1.456-1.872,11.185,11.185,0,0,0-4.24-.624A10.936,10.936,0,0,0,288.168,58.824ZM88.961,63.032c0-4.06,3.149-7.007,7.488-7.007,4.3,0,7.423,2.947,7.423,7.007a6.9,6.9,0,0,1-2.116,5.1A7.666,7.666,0,0,1,96.449,70.1C92.11,70.1,88.961,67.129,88.961,63.032Zm4.032.032A3.506,3.506,0,0,0,98.9,65.692a3.7,3.7,0,0,0,.968-2.66,3.443,3.443,0,1,0-6.88.032ZM30.976,70.072h0l-2.527-3.424a11.721,11.721,0,0,0,5.46-5.544,17.892,17.892,0,0,0,1.74-7.9V48.92H39.9v4.288a17.542,17.542,0,0,0,1.632,7.612A11.276,11.276,0,0,0,46.72,66.2l-2.56,3.328a11.643,11.643,0,0,1-3.881-3.236,16.113,16.113,0,0,1-2.488-4.7,17.207,17.207,0,0,1-2.64,5.032,11.968,11.968,0,0,1-4.175,3.449ZM206.751,69.3H192.224V48.984h4.192V56.12h6.143V48.984h4.192V69.3Zm-10.335-3.36h6.143V59.416h-6.143ZM274.3,68.408H270.08V57.88h-5.248v5.953h-13.92V48.6H255.1v4.48h5.6V48.632h4.128v5.856h5.248V46.68H274.3V68.407h0Zm-19.2-7.936h5.6v-4.16h-5.6ZM85.118,63.96H58.5V60.632H64.48V57.08c-2.177-.989-3.328-2.483-3.328-4.32,0-3.494,4.082-5.664,10.656-5.664C78.4,47.1,82.5,49.266,82.5,52.76c0,1.859-1.184,3.363-3.424,4.352v3.52H85.12v3.327h0ZM68.7,60.632h6.144V58.2a30.014,30.014,0,0,1-3.04.16,23.348,23.348,0,0,1-3.1-.193ZM65.5,52.76c0,1.569,2.238,2.433,6.3,2.433,4.085,0,6.336-.864,6.336-2.433,0-2.036-3.446-2.463-6.336-2.463C67.684,50.3,65.5,51.148,65.5,52.76Zm269.375,9.6H308.864V60.376H334.88v1.984h0Zm-215.583-.7-2.048-3.295A10.252,10.252,0,0,0,122.6,54.74a8.689,8.689,0,0,0,1.684-5.179V47.353h4.289V49.56a8.049,8.049,0,0,0,1.652,4.94,9.9,9.9,0,0,0,5.228,3.38l-2.016,3.3a11.077,11.077,0,0,1-6.944-5.6,11.488,11.488,0,0,1-7.2,6.08h0Zm22.527-.127H137.6V46.68h4.225V61.528h0ZM244.671,61.5h-4.223V46.648h4.224V61.5h0ZM236,60.6H221.7V48.12H236V60.6h0Zm-10.143-3.328h6.016V51.416h-6.016Zm106.207.928H312.192V52.056H328.96V49.72H312.128V47.864h19.424v5.984H314.784v2.464h17.28V58.2h0ZM104.927,54.36H87.776V51H94.3V47.16h4.225V51h6.4v3.359h0Zm199.647-.672H280.256v-3.36h10.016V46.936H294.5v3.392h10.08v3.359h0ZM360.287,28.8h-2.623V.032h2.623V11.361h4.736v2.175h-4.736V28.8Zm-116.448,0h-2.623V0h2.624V28.8h0Zm-95.392,0h-2.623V.032h2.623V28.8Zm183.84-.1h-2.623V.032h2.624V28.7ZM98.655,23.488a4.22,4.22,0,0,1,2.608-3.84A16.15,16.15,0,0,1,108.48,18.3a16.14,16.14,0,0,1,7.2,1.344,4.144,4.144,0,0,1,0,7.708,16.084,16.084,0,0,1-7.2,1.348C102.236,28.7,98.655,26.8,98.655,23.488Zm4.549-2.312a2.622,2.622,0,0,0-1.892,2.312c0,1.993,2.613,3.136,7.168,3.136s7.168-1.143,7.168-3.136c0-.971-.658-1.77-1.9-2.312a17.256,17.256,0,0,0-10.54,0Zm160.6,7.464a9.189,9.189,0,0,1-5.342-5.6,10.214,10.214,0,0,1-5.665,5.344l-1.312-1.952a9.429,9.429,0,0,0,4.235-3.076,6.971,6.971,0,0,0,1.525-4.156V17.5h2.528v1.7a8.018,8.018,0,0,0,4,6.88,8.6,8.6,0,0,0,4.063-6.88V17.5H270.4v1.7a7.054,7.054,0,0,0,1.516,4.264,8.984,8.984,0,0,0,4.276,2.968l-1.311,1.952a9.742,9.742,0,0,1-5.792-5.441,9.971,9.971,0,0,1-5.28,5.7Zm38.08-.288h-19.3V17.216h2.592v3.36H299.3v-3.36h2.592V28.351h0Zm-16.7-2.112H299.3V22.592H285.184ZM90.5,28.1H71.168V18.88h2.623v7.071H90.5V28.1h0Zm-36.608,0H34.56V18.88h2.624v7.071h16.7V28.1h0ZM23.1,28.1H3.36V20.16H5.984v5.792H23.1V28.1Zm161.727-.032H165.664v-7.9h2.623v5.76h16.544v2.143h0Zm32.225-2.88H190.976V23.04h7.3V17.6h-4.032V8.735h17.023V4.288H194.177V2.144h19.648v8.7H196.833v4.608H214.5V17.6h-4.479V23.04h7.04v2.143h0Zm-16.19-2.144h6.56V17.6h-6.56Zm20.1-.48h0l-.319-2.208h.728c2.169,0,4.7-.007,7.24-.094v-5.7h-5.855V2.72h14.528V4.9H225.345v7.52h12.064V14.56h-6.176v5.6c2.664-.123,5.49-.283,8.1-.608l.224,1.921a127.428,127.428,0,0,1-18.59,1.088Zm-92.893-3a12.17,12.17,0,0,1-2.052-7.3,12.171,12.171,0,0,1,2.052-7.3,6.421,6.421,0,0,1,10.488,0,12.171,12.171,0,0,1,2.052,7.3,12.17,12.17,0,0,1-2.052,7.3,6.42,6.42,0,0,1-10.488,0Zm1.787-12.865a10.426,10.426,0,0,0-1.344,5.565c0,4.594,1.929,7.681,4.8,7.681a4,4,0,0,0,3.427-2.089,10.54,10.54,0,0,0,1.34-5.592,10.465,10.465,0,0,0-1.34-5.565,3.885,3.885,0,0,0-6.884,0Zm53.951,15.324h-2.624V.064h2.624v9.7h4.224v2.176h-4.224V22.015h0Zm155.617-.383V2.785h13.344V4.961h-10.72V19.392l.029,0a69.546,69.546,0,0,0,12.9-.958l.288,2.176A68.334,68.334,0,0,1,341.7,21.632Zm-28.864-.32V2.816h2.624V19.073l.014,0a67.728,67.728,0,0,0,13.522-1.343l.288,2.24a67.57,67.57,0,0,1-14.08,1.344ZM89.631,21.024H87.008V.064h2.624V21.023h0Zm-36.608,0H50.4V.064h2.624V21.023h0Zm-27.04-3.168H0V15.712H11.712V12.641H3.456V1.184H6.048V4.8H20V1.184h2.592V12.641H14.336v3.072H25.984v2.144ZM6.048,10.528H20V6.848H6.048ZM161.887,17.76h0l-.352-2.143h.1c2.539,0,5.013-.043,7.352-.127v-2.88a7.253,7.253,0,0,1-4.2-1.8,5.113,5.113,0,0,1-1.589-3.8,5.043,5.043,0,0,1,1.965-4.076,9.141,9.141,0,0,1,10.2,0,5.04,5.04,0,0,1,1.975,4.076,5.086,5.086,0,0,1-1.579,3.767,7.166,7.166,0,0,1-4.148,1.8v2.816c2.4-.145,5.188-.332,7.776-.736l.192,1.921a102.245,102.245,0,0,1-17.695,1.184ZM166.92,4.368a3.252,3.252,0,0,0-1.289,2.641c0,2.182,1.865,3.648,4.64,3.648a5.326,5.326,0,0,0,3.312-1,3.255,3.255,0,0,0,1.3-2.651c0-2.148-1.895-3.649-4.608-3.649A5.367,5.367,0,0,0,166.92,4.368ZM273.535,16.384H270.88V9.376h-5.888c-.481,3.425-3.413,5.728-7.3,5.728a7.728,7.728,0,0,1-5.248-1.876,6.489,6.489,0,0,1-2.08-4.876,6.4,6.4,0,0,1,2.08-4.82A7.758,7.758,0,0,1,257.7,1.664c3.832,0,6.751,2.237,7.264,5.567h5.92V.064h2.656V16.383h0ZM252.9,8.352a4.467,4.467,0,0,0,1.367,3.284,4.942,4.942,0,0,0,3.433,1.292,4.554,4.554,0,1,0,0-9.087A4.509,4.509,0,0,0,252.9,8.352ZM66.752,9.088c0-4.08,3.136-7.041,7.456-7.041,4.358,0,7.52,2.961,7.52,7.041A6.9,6.9,0,0,1,79.576,14.2a7.8,7.8,0,0,1-5.368,1.992C69.888,16.192,66.752,13.2,66.752,9.088ZM70.716,5.66a4.7,4.7,0,0,0-1.4,3.428,4.7,4.7,0,0,0,4.9,4.832,5.061,5.061,0,0,0,3.549-1.348,4.77,4.77,0,0,0,1.412-3.484A4.707,4.707,0,0,0,74.208,4.32,4.983,4.983,0,0,0,70.716,5.66ZM30.144,9.088c0-4.08,3.136-7.041,7.456-7.041,4.358,0,7.52,2.961,7.52,7.041A6.9,6.9,0,0,1,42.968,14.2,7.792,7.792,0,0,1,37.6,16.192C33.279,16.192,30.144,13.2,30.144,9.088ZM34.107,5.66a4.7,4.7,0,0,0-1.4,3.428,4.7,4.7,0,0,0,4.9,4.832,5.058,5.058,0,0,0,3.549-1.348A4.77,4.77,0,0,0,42.56,9.088,4.707,4.707,0,0,0,37.6,4.32,4.985,4.985,0,0,0,34.107,5.66Zm87.364,10.148H95.52V13.7h25.952v2.111h0Zm183.808-.576H279.3V13.12H305.28v2.111h0Zm-207.36-3.3-.927-2.079a16.788,16.788,0,0,0,6.772-2.124c1.909-1.155,2.993-2.616,3.052-4.116h-8.9V1.5h21.216V3.616h-8.928c.06,1.5,1.144,2.961,3.052,4.116a16.792,16.792,0,0,0,6.772,2.124l-.928,2.079A18.915,18.915,0,0,1,112.632,10a9.314,9.314,0,0,1-4.12-3.856C107,9.1,102.944,11.321,97.92,11.936Zm183.84-.831h0L280.8,8.992a16.332,16.332,0,0,0,7.02-2.552c2.036-1.4,3.156-3.105,3.156-4.809V.352h2.687v1.28c0,1.664,1.123,3.359,3.164,4.773a16.177,16.177,0,0,0,6.98,2.588l-.96,2.111A18.7,18.7,0,0,1,296.6,8.968a11.169,11.169,0,0,1-4.28-4.008,10.971,10.971,0,0,1-4.272,4.008A18.873,18.873,0,0,1,281.76,11.1Z" fill="url(#linear-gradient)"/>
  </g>
</svg>
