<svg xmlns="http://www.w3.org/2000/svg" xmlns:xlink="http://www.w3.org/1999/xlink" width="257.649" height="30" viewBox="0 0 257.649 30">
  <defs>
    <clipPath id="clip-path">
      <path id="Mask" d="M173.722,28.338a9.554,9.554,0,0,1-4.273-3.442,8.974,8.974,0,0,1-1.435-5.035h6.964a4.418,4.418,0,0,0,1.2,3.412,5.656,5.656,0,0,0,3.888,1.1,4.472,4.472,0,0,0,2.72-.742,2.45,2.45,0,0,0,1-2.087,2.853,2.853,0,0,0-1.078-2.374,13.412,13.412,0,0,0-3.788-1.76,36.343,36.343,0,0,1-4.432-1.76q-5.6-2.75-5.6-7.557a6.779,6.779,0,0,1,1.395-4.224,9.027,9.027,0,0,1,3.947-2.849A15.355,15.355,0,0,1,179.963,0a13.427,13.427,0,0,1,5.568,1.108,8.821,8.821,0,0,1,3.829,3.155,8.239,8.239,0,0,1,1.364,4.678H183.8a3.48,3.48,0,0,0-1.078-2.73,4.2,4.2,0,0,0-2.918-.969,4.737,4.737,0,0,0-2.938.821,2.517,2.517,0,0,0-1.078,2.087,2.534,2.534,0,0,0,1.187,2.008,14.938,14.938,0,0,0,4.174,1.859,25.652,25.652,0,0,1,4.906,2.067q4.668,2.691,4.668,7.419a7.033,7.033,0,0,1-2.849,5.935q-2.849,2.157-7.814,2.156A15.5,15.5,0,0,1,173.722,28.338Zm-24.285.862h-6.943V.4H153.83c3.4,0,6.1.765,8.012,2.275A7.74,7.74,0,0,1,164.73,9.1a9.415,9.415,0,0,1-1.216,4.985,8.694,8.694,0,0,1-3.809,3.2L165.719,28.9v.3h-7.438L153.2,19.031h-3.759V29.2h0Zm0-15.53h4.392a3.969,3.969,0,0,0,2.977-1.039,4.025,4.025,0,0,0,1-2.9A4.073,4.073,0,0,0,156.8,6.816a3.924,3.924,0,0,0-2.967-1.058h-4.392ZM241.921,29.2h-6.943V.4h11.494a13.459,13.459,0,0,1,5.846,1.216,9.214,9.214,0,0,1,3.937,3.462,9.5,9.5,0,0,1,1.395,5.094,8.371,8.371,0,0,1-3.017,6.737c-2,1.673-4.788,2.522-8.279,2.522h-4.432V29.2h0Zm0-15.134h4.55a4.309,4.309,0,0,0,3.076-1.009,3.763,3.763,0,0,0,1.058-2.849,4.655,4.655,0,0,0-1.088-3.225,3.872,3.872,0,0,0-2.967-1.227h-4.63ZM223.228,29.2V.4h6.924V29.2Zm-11.771,0V17.171H201.229V29.2h-6.943V.4h6.943V11.83h10.228V.4h6.9V29.2Zm-91.633,0V.4h19.882v5.36H126.767V11.83h10.921v5.163H126.767v6.865h12.9V29.2Zm-26.132,0V.4h10.346c3.688,0,6.533.685,8.457,2.038a6.808,6.808,0,0,1,2.9,5.915,6.892,6.892,0,0,1-1.029,3.819,6.026,6.026,0,0,1-3.027,2.334,6.094,6.094,0,0,1,3.461,2.216,6.469,6.469,0,0,1,1.207,3.956,7.66,7.66,0,0,1-2.68,6.36c-1.78,1.411-4.452,2.14-7.942,2.166Zm6.943-5.341h4.55a4.35,4.35,0,0,0,2.888-.86,3.026,3.026,0,0,0,1.009-2.424,3.713,3.713,0,0,0-.9-2.705,3.669,3.669,0,0,0-2.686-.914h-4.866Zm0-11.454h3.621a5.177,5.177,0,0,0,3.244-.831,2.961,2.961,0,0,0,.969-2.394,3.1,3.1,0,0,0-1.049-2.621,5.654,5.654,0,0,0-3.383-.8h-3.4ZM82.316,29.2V22.473L82.988,8.7,76.025,29.2h-4.59L64.452,8.685l.673,13.788V29.2H58.181V.4H67.3l6.43,20.039L80.14.4h9.139V29.2Zm-46.806,0V.4H55.391v5.36H42.454V11.83h10.92v5.163H42.454v6.865h12.9V29.2Zm-11.375,0V22.473L24.808,8.7,17.844,29.2h-4.59L6.271,8.685l.672,13.788V29.2H0V.4H9.12l6.43,20.039L21.959.4H31.1V29.2Z" transform="translate(0.405 257.649) rotate(-90)" fill="rgba(255,255,255,0.03)"/>
    </clipPath>
  </defs>
  <g id="Oval" transform="translate(257.649) rotate(90)">
    <path id="Mask-2" data-name="Mask" d="M173.722,28.338a9.554,9.554,0,0,1-4.273-3.442,8.974,8.974,0,0,1-1.435-5.035h6.964a4.418,4.418,0,0,0,1.2,3.412,5.656,5.656,0,0,0,3.888,1.1,4.472,4.472,0,0,0,2.72-.742,2.45,2.45,0,0,0,1-2.087,2.853,2.853,0,0,0-1.078-2.374,13.412,13.412,0,0,0-3.788-1.76,36.343,36.343,0,0,1-4.432-1.76q-5.6-2.75-5.6-7.557a6.779,6.779,0,0,1,1.395-4.224,9.027,9.027,0,0,1,3.947-2.849A15.355,15.355,0,0,1,179.963,0a13.427,13.427,0,0,1,5.568,1.108,8.821,8.821,0,0,1,3.829,3.155,8.239,8.239,0,0,1,1.364,4.678H183.8a3.48,3.48,0,0,0-1.078-2.73,4.2,4.2,0,0,0-2.918-.969,4.737,4.737,0,0,0-2.938.821,2.517,2.517,0,0,0-1.078,2.087,2.534,2.534,0,0,0,1.187,2.008,14.938,14.938,0,0,0,4.174,1.859,25.652,25.652,0,0,1,4.906,2.067q4.668,2.691,4.668,7.419a7.033,7.033,0,0,1-2.849,5.935q-2.849,2.157-7.814,2.156A15.5,15.5,0,0,1,173.722,28.338Zm-24.285.862h-6.943V.4H153.83c3.4,0,6.1.765,8.012,2.275A7.74,7.74,0,0,1,164.73,9.1a9.415,9.415,0,0,1-1.216,4.985,8.694,8.694,0,0,1-3.809,3.2L165.719,28.9v.3h-7.438L153.2,19.031h-3.759V29.2h0Zm0-15.53h4.392a3.969,3.969,0,0,0,2.977-1.039,4.025,4.025,0,0,0,1-2.9A4.073,4.073,0,0,0,156.8,6.816a3.924,3.924,0,0,0-2.967-1.058h-4.392ZM241.921,29.2h-6.943V.4h11.494a13.459,13.459,0,0,1,5.846,1.216,9.214,9.214,0,0,1,3.937,3.462,9.5,9.5,0,0,1,1.395,5.094,8.371,8.371,0,0,1-3.017,6.737c-2,1.673-4.788,2.522-8.279,2.522h-4.432V29.2h0Zm0-15.134h4.55a4.309,4.309,0,0,0,3.076-1.009,3.763,3.763,0,0,0,1.058-2.849,4.655,4.655,0,0,0-1.088-3.225,3.872,3.872,0,0,0-2.967-1.227h-4.63ZM223.228,29.2V.4h6.924V29.2Zm-11.771,0V17.171H201.229V29.2h-6.943V.4h6.943V11.83h10.228V.4h6.9V29.2Zm-91.633,0V.4h19.882v5.36H126.767V11.83h10.921v5.163H126.767v6.865h12.9V29.2Zm-26.132,0V.4h10.346c3.688,0,6.533.685,8.457,2.038a6.808,6.808,0,0,1,2.9,5.915,6.892,6.892,0,0,1-1.029,3.819,6.026,6.026,0,0,1-3.027,2.334,6.094,6.094,0,0,1,3.461,2.216,6.469,6.469,0,0,1,1.207,3.956,7.66,7.66,0,0,1-2.68,6.36c-1.78,1.411-4.452,2.14-7.942,2.166Zm6.943-5.341h4.55a4.35,4.35,0,0,0,2.888-.86,3.026,3.026,0,0,0,1.009-2.424,3.713,3.713,0,0,0-.9-2.705,3.669,3.669,0,0,0-2.686-.914h-4.866Zm0-11.454h3.621a5.177,5.177,0,0,0,3.244-.831,2.961,2.961,0,0,0,.969-2.394,3.1,3.1,0,0,0-1.049-2.621,5.654,5.654,0,0,0-3.383-.8h-3.4ZM82.316,29.2V22.473L82.988,8.7,76.025,29.2h-4.59L64.452,8.685l.673,13.788V29.2H58.181V.4H67.3l6.43,20.039L80.14.4h9.139V29.2Zm-46.806,0V.4H55.391v5.36H42.454V11.83h10.92v5.163H42.454v6.865h12.9V29.2Zm-11.375,0V22.473L24.808,8.7,17.844,29.2h-4.59L6.271,8.685l.672,13.788V29.2H0V.4H9.12l6.43,20.039L21.959.4H31.1V29.2Z" transform="translate(0 257.649) rotate(-90)" opacity="0.6"/>
    <path id="Mask-3" data-name="Mask" d="M173.722,28.338a9.554,9.554,0,0,1-4.273-3.442,8.974,8.974,0,0,1-1.435-5.035h6.964a4.418,4.418,0,0,0,1.2,3.412,5.656,5.656,0,0,0,3.888,1.1,4.472,4.472,0,0,0,2.72-.742,2.45,2.45,0,0,0,1-2.087,2.853,2.853,0,0,0-1.078-2.374,13.412,13.412,0,0,0-3.788-1.76,36.343,36.343,0,0,1-4.432-1.76q-5.6-2.75-5.6-7.557a6.779,6.779,0,0,1,1.395-4.224,9.027,9.027,0,0,1,3.947-2.849A15.355,15.355,0,0,1,179.963,0a13.427,13.427,0,0,1,5.568,1.108,8.821,8.821,0,0,1,3.829,3.155,8.239,8.239,0,0,1,1.364,4.678H183.8a3.48,3.48,0,0,0-1.078-2.73,4.2,4.2,0,0,0-2.918-.969,4.737,4.737,0,0,0-2.938.821,2.517,2.517,0,0,0-1.078,2.087,2.534,2.534,0,0,0,1.187,2.008,14.938,14.938,0,0,0,4.174,1.859,25.652,25.652,0,0,1,4.906,2.067q4.668,2.691,4.668,7.419a7.033,7.033,0,0,1-2.849,5.935q-2.849,2.157-7.814,2.156A15.5,15.5,0,0,1,173.722,28.338Zm-24.285.862h-6.943V.4H153.83c3.4,0,6.1.765,8.012,2.275A7.74,7.74,0,0,1,164.73,9.1a9.415,9.415,0,0,1-1.216,4.985,8.694,8.694,0,0,1-3.809,3.2L165.719,28.9v.3h-7.438L153.2,19.031h-3.759V29.2h0Zm0-15.53h4.392a3.969,3.969,0,0,0,2.977-1.039,4.025,4.025,0,0,0,1-2.9A4.073,4.073,0,0,0,156.8,6.816a3.924,3.924,0,0,0-2.967-1.058h-4.392ZM241.921,29.2h-6.943V.4h11.494a13.459,13.459,0,0,1,5.846,1.216,9.214,9.214,0,0,1,3.937,3.462,9.5,9.5,0,0,1,1.395,5.094,8.371,8.371,0,0,1-3.017,6.737c-2,1.673-4.788,2.522-8.279,2.522h-4.432V29.2h0Zm0-15.134h4.55a4.309,4.309,0,0,0,3.076-1.009,3.763,3.763,0,0,0,1.058-2.849,4.655,4.655,0,0,0-1.088-3.225,3.872,3.872,0,0,0-2.967-1.227h-4.63ZM223.228,29.2V.4h6.924V29.2Zm-11.771,0V17.171H201.229V29.2h-6.943V.4h6.943V11.83h10.228V.4h6.9V29.2Zm-91.633,0V.4h19.882v5.36H126.767V11.83h10.921v5.163H126.767v6.865h12.9V29.2Zm-26.132,0V.4h10.346c3.688,0,6.533.685,8.457,2.038a6.808,6.808,0,0,1,2.9,5.915,6.892,6.892,0,0,1-1.029,3.819,6.026,6.026,0,0,1-3.027,2.334,6.094,6.094,0,0,1,3.461,2.216,6.469,6.469,0,0,1,1.207,3.956,7.66,7.66,0,0,1-2.68,6.36c-1.78,1.411-4.452,2.14-7.942,2.166Zm6.943-5.341h4.55a4.35,4.35,0,0,0,2.888-.86,3.026,3.026,0,0,0,1.009-2.424,3.713,3.713,0,0,0-.9-2.705,3.669,3.669,0,0,0-2.686-.914h-4.866Zm0-11.454h3.621a5.177,5.177,0,0,0,3.244-.831,2.961,2.961,0,0,0,.969-2.394,3.1,3.1,0,0,0-1.049-2.621,5.654,5.654,0,0,0-3.383-.8h-3.4ZM82.316,29.2V22.473L82.988,8.7,76.025,29.2h-4.59L64.452,8.685l.673,13.788V29.2H58.181V.4H67.3l6.43,20.039L80.14.4h9.139V29.2Zm-46.806,0V.4H55.391v5.36H42.454V11.83h10.92v5.163H42.454v6.865h12.9V29.2Zm-11.375,0V22.473L24.808,8.7,17.844,29.2h-4.59L6.271,8.685l.672,13.788V29.2H0V.4H9.12l6.43,20.039L21.959.4H31.1V29.2Z" transform="translate(0.405 257.649) rotate(-90)" fill="rgba(255,255,255,0.03)"/>
    <g id="Oval-2" data-name="Oval" clip-path="url(#clip-path)">
      <circle id="Oval-3" data-name="Oval" cx="31.196" cy="31.196" r="31.196" transform="translate(15.244 42.441)" fill="#fff" opacity="0.3"/>
      <circle id="Oval_Copy_2" data-name="Oval Copy 2" cx="34.032" cy="34.032" r="34.032" transform="translate(-51.606 167.227)" fill="#fff" opacity="0.4"/>
      <circle id="Oval_Copy_3" data-name="Oval Copy 3" cx="34.032" cy="34.032" r="34.032" transform="translate(-10.281 104.834)" opacity="0.4"/>
    </g>
  </g>
</svg>
