<?xml version="1.0" encoding="UTF-8"?>
<svg width="356px" height="35px" viewBox="0 0 356 35" version="1.1" xmlns="http://www.w3.org/2000/svg" xmlns:xlink="http://www.w3.org/1999/xlink">
    <title>Group</title>
    <defs>
        <linearGradient x1="0%" y1="49.5817362%" x2="100%" y2="50.4934784%" id="linearGradient-1">
            <stop stop-color="#6E6E6E" offset="0%"></stop>
            <stop stop-color="#1B1B1B" offset="24.1361453%"></stop>
            <stop stop-color="#3C3C3C" offset="47.1360427%"></stop>
            <stop stop-color="#222222" offset="73.2745389%"></stop>
            <stop stop-color="#4C4C4C" offset="100%"></stop>
        </linearGradient>
    </defs>
    <g id="이로움-혜택" stroke="none" stroke-width="1" fill="none" fill-rule="evenodd">
        <g id="이로움-혜택-수정_12.01" transform="translate(-608.000000, -640.000000)" fill-rule="nonzero">
            <g id="Group" transform="translate(608.000000, 640.000000)">
                <path d="M21.5332437,19.5227273 L8.98136049,19.5227273 L8.98136049,27.4090909 L23.8071355,27.4090909 L23.8071355,33.5454545 L1,33.5454545 L1,0.454545455 L23.8526134,0.454545455 L23.8526134,6.61363636 L8.98136049,6.61363636 L8.98136049,13.5909091 L21.5332437,13.5909091 L21.5332437,19.5227273 Z M39.360556,21.8636364 L35.0401614,21.8636364 L35.0401614,33.5454545 L27.0588009,33.5454545 L27.0588009,0.454545455 L40.0882014,0.454545455 C44.0144547,0.454545455 47.0842087,1.32575758 49.2974635,3.06818182 C51.5107183,4.81060606 52.6173456,7.27272727 52.6173456,10.4545455 C52.6173456,12.7575758 52.1511978,14.6666667 51.2189021,16.1818182 C50.2866065,17.6969697 48.8275258,18.9242424 46.8416603,19.8636364 L53.7542916,33.2045455 L53.7542916,33.5454545 L45.2044581,33.5454545 L39.360556,21.8636364 Z M35.0401614,15.7045455 L40.0882014,15.7045455 C41.6041293,15.7045455 42.7448651,15.3068182 43.5104087,14.5113636 C44.2759523,13.7159091 44.6587241,12.6060606 44.6587241,11.1818182 C44.6587241,9.75757576 44.2721624,8.64015152 43.4990392,7.82954545 C42.725916,7.01893939 41.58897,6.61363636 40.0882014,6.61363636 L35.0401614,6.61363636 L35.0401614,15.7045455 Z M85.4750833,17.6818182 C85.4750833,20.9090909 84.8762917,23.7651515 83.6787087,26.25 C82.4811256,28.7348485 80.7794965,30.6477273 78.5738214,31.9886364 C76.3681463,33.3295455 73.8554958,34 71.0358698,34 C68.2162439,34 65.7149628,33.3522727 63.5320266,32.0568182 C61.3490904,30.7613636 59.6474614,28.9090909 58.4271394,26.5 C57.2068174,24.0909091 56.5663379,21.3257576 56.5057007,18.2045455 L56.5057007,16.3409091 C56.5057007,13.0984848 57.1007025,10.2386364 58.2907059,7.76136364 C59.4807093,5.28409091 61.1861282,3.37121212 63.4069626,2.02272727 C65.627797,0.674242424 68.1556068,0 70.990392,0 C73.7948587,0 76.2961397,0.666666667 78.4942352,2 C80.6923307,3.33333333 82.4015394,5.23106061 83.6218614,7.69318182 C84.8421834,10.155303 85.459924,12.9772727 85.4750833,16.1590909 L85.4750833,17.6818182 Z M77.3572893,16.2954545 C77.3572893,13.0075758 76.8077654,10.5113636 75.7087177,8.80681818 C74.6096699,7.10227273 73.0368947,6.25 70.990392,6.25 C66.9883423,6.25 64.8736229,9.25 64.6462337,15.25 L64.6234947,17.6818182 C64.6234947,20.9242424 65.1616492,23.4166667 66.237958,25.1590909 C67.3142668,26.9015152 68.9135708,27.7727273 71.0358698,27.7727273 C73.052054,27.7727273 74.6058801,26.9166667 75.6973482,25.2045455 C76.7888163,23.4924242 77.34213,21.030303 77.3572893,17.8181818 L77.3572893,16.2954545 Z M115.558673,0.454545455 L115.558673,22.1136364 C115.558673,24.5681818 115.035678,26.6931818 113.989687,28.4886364 C112.943697,30.2840909 111.442929,31.6515152 109.487382,32.5909091 C107.531834,33.530303 105.220044,34 102.552011,34 C98.519643,34 95.343774,32.9545455 93.0244043,30.8636364 C90.7050346,28.7727273 89.5226108,25.9090909 89.477133,22.2727273 L89.477133,0.454545455 L97.5039713,0.454545455 L97.5039713,22.4318182 C97.594927,26.0530303 99.277607,27.8636364 102.552011,27.8636364 C104.204373,27.8636364 105.455013,27.4090909 106.303933,26.5 C107.152853,25.5909091 107.577312,24.1136364 107.577312,22.0681818 L107.577312,0.454545455 L115.558673,0.454545455 Z M131.021138,0.454545455 L138.411286,23.4772727 L145.778696,0.454545455 L156.284076,0.454545455 L156.284076,33.5454545 L148.279977,33.5454545 L148.279977,25.8181818 L149.0531,10 L141.049001,33.5454545 L135.773572,33.5454545 L127.746733,9.97727273 L128.519857,25.8181818 L128.519857,33.5454545 L120.538496,33.5454545 L120.538496,0.454545455 L131.021138,0.454545455 Z M175.634896,33.5454545 L175.634896,0.454545455 L187.527351,0.454545455 C191.787108,0.454545455 195.027404,1.23484848 197.248239,2.79545455 C199.469073,4.35606061 200.57949,6.62121212 200.57949,9.59090909 C200.57949,11.3030303 200.185349,12.7651515 199.397066,13.9772727 C198.608784,15.1893939 197.449099,16.0833333 195.918012,16.6590909 C197.64617,17.1136364 198.972607,17.9621212 199.897323,19.2045455 C200.822039,20.4469697 201.284397,21.9621212 201.284397,23.75 C201.284397,26.9924242 200.257355,29.4280303 198.203273,31.0568182 C196.149191,32.6856061 193.105965,33.5151515 189.073597,33.5454545 L175.634896,33.5454545 Z M183.616257,19.4772727 L183.616257,27.4090909 L188.846208,27.4090909 C190.28634,27.4090909 191.392967,27.0795455 192.16609,26.4204545 C192.939213,25.7613636 193.325775,24.8333333 193.325775,23.6363636 C193.325775,20.8787879 191.95386,19.4924242 189.210031,19.4772727 L183.616257,19.4772727 Z M183.616257,14.25 L187.777479,14.25 C189.520796,14.2348485 190.763857,13.9166667 191.506662,13.2954545 C192.249466,12.6742424 192.620869,11.7575758 192.620869,10.5454545 C192.620869,9.15151515 192.219148,8.14772727 191.415706,7.53409091 C190.612264,6.92045455 189.316146,6.61363636 187.527351,6.61363636 L183.616257,6.61363636 L183.616257,14.25 Z M226.206252,19.5227273 L213.654368,19.5227273 L213.654368,27.4090909 L228.480143,27.4090909 L228.480143,33.5454545 L205.673008,33.5454545 L205.673008,0.454545455 L228.525621,0.454545455 L228.525621,6.61363636 L213.654368,6.61363636 L213.654368,13.5909091 L226.206252,13.5909091 L226.206252,19.5227273 Z M259.382334,33.5454545 L251.446451,33.5454545 L239.713169,12.9545455 L239.713169,33.5454545 L231.731809,33.5454545 L231.731809,0.454545455 L239.713169,0.454545455 L251.423713,21.0454545 L251.423713,0.454545455 L259.382334,0.454545455 L259.382334,33.5454545 Z M284.963618,19.5227273 L272.411735,19.5227273 L272.411735,27.4090909 L287.23751,27.4090909 L287.23751,33.5454545 L264.430374,33.5454545 L264.430374,0.454545455 L287.282987,0.454545455 L287.282987,6.61363636 L272.411735,6.61363636 L272.411735,13.5909091 L284.963618,13.5909091 L284.963618,19.5227273 Z M311.340764,20.3636364 L298.470535,20.3636364 L298.470535,33.5454545 L290.489175,33.5454545 L290.489175,0.454545455 L312.636882,0.454545455 L312.636882,6.61363636 L298.470535,6.61363636 L298.470535,14.2272727 L311.340764,14.2272727 L311.340764,20.3636364 Z M324.46112,33.5454545 L316.502498,33.5454545 L316.502498,0.454545455 L324.46112,0.454545455 L324.46112,33.5454545 Z M356,6.61363636 L346.063092,6.61363636 L346.063092,33.5454545 L338.081732,33.5454545 L338.081732,6.61363636 L328.326736,6.61363636 L328.326736,0.454545455 L356,0.454545455 L356,6.61363636 Z" id="Combined-Shape" fill="#1E1E1E"></path>
                <path d="M20.5332437,20.5227273 L7.98136049,20.5227273 L7.98136049,28.4090909 L22.8071355,28.4090909 L22.8071355,34.5454545 L0,34.5454545 L0,1.45454545 L22.8526134,1.45454545 L22.8526134,7.61363636 L7.98136049,7.61363636 L7.98136049,14.5909091 L20.5332437,14.5909091 L20.5332437,20.5227273 Z M38.360556,22.8636364 L34.0401614,22.8636364 L34.0401614,34.5454545 L26.0588009,34.5454545 L26.0588009,1.45454545 L39.0882014,1.45454545 C43.0144547,1.45454545 46.0842087,2.32575758 48.2974635,4.06818182 C50.5107183,5.81060606 51.6173456,8.27272727 51.6173456,11.4545455 C51.6173456,13.7575758 51.1511978,15.6666667 50.2189021,17.1818182 C49.2866065,18.6969697 47.8275258,19.9242424 45.8416603,20.8636364 L52.7542916,34.2045455 L52.7542916,34.5454545 L44.2044581,34.5454545 L38.360556,22.8636364 Z M34.0401614,16.7045455 L39.0882014,16.7045455 C40.6041293,16.7045455 41.7448651,16.3068182 42.5104087,15.5113636 C43.2759523,14.7159091 43.6587241,13.6060606 43.6587241,12.1818182 C43.6587241,10.7575758 43.2721624,9.64015152 42.4990392,8.82954545 C41.725916,8.01893939 40.58897,7.61363636 39.0882014,7.61363636 L34.0401614,7.61363636 L34.0401614,16.7045455 Z M84.4750833,18.6818182 C84.4750833,21.9090909 83.8762917,24.7651515 82.6787087,27.25 C81.4811256,29.7348485 79.7794965,31.6477273 77.5738214,32.9886364 C75.3681463,34.3295455 72.8554958,35 70.0358698,35 C67.2162439,35 64.7149628,34.3522727 62.5320266,33.0568182 C60.3490904,31.7613636 58.6474614,29.9090909 57.4271394,27.5 C56.2068174,25.0909091 55.5663379,22.3257576 55.5057007,19.2045455 L55.5057007,17.3409091 C55.5057007,14.0984848 56.1007025,11.2386364 57.2907059,8.76136364 C58.4807093,6.28409091 60.1861282,4.37121212 62.4069626,3.02272727 C64.627797,1.67424242 67.1556068,1 69.990392,1 C72.7948587,1 75.2961397,1.66666667 77.4942352,3 C79.6923307,4.33333333 81.4015394,6.23106061 82.6218614,8.69318182 C83.8421834,11.155303 84.459924,13.9772727 84.4750833,17.1590909 L84.4750833,18.6818182 Z M76.3572893,17.2954545 C76.3572893,14.0075758 75.8077654,11.5113636 74.7087177,9.80681818 C73.6096699,8.10227273 72.0368947,7.25 69.990392,7.25 C65.9883423,7.25 63.8736229,10.25 63.6462337,16.25 L63.6234947,18.6818182 C63.6234947,21.9242424 64.1616492,24.4166667 65.237958,26.1590909 C66.3142668,27.9015152 67.9135708,28.7727273 70.0358698,28.7727273 C72.052054,28.7727273 73.6058801,27.9166667 74.6973482,26.2045455 C75.7888163,24.4924242 76.34213,22.030303 76.3572893,18.8181818 L76.3572893,17.2954545 Z M114.558673,1.45454545 L114.558673,23.1136364 C114.558673,25.5681818 114.035678,27.6931818 112.989687,29.4886364 C111.943697,31.2840909 110.442929,32.6515152 108.487382,33.5909091 C106.531834,34.530303 104.220044,35 101.552011,35 C97.519643,35 94.343774,33.9545455 92.0244043,31.8636364 C89.7050346,29.7727273 88.5226108,26.9090909 88.477133,23.2727273 L88.477133,1.45454545 L96.5039713,1.45454545 L96.5039713,23.4318182 C96.594927,27.0530303 98.277607,28.8636364 101.552011,28.8636364 C103.204373,28.8636364 104.455013,28.4090909 105.303933,27.5 C106.152853,26.5909091 106.577312,25.1136364 106.577312,23.0681818 L106.577312,1.45454545 L114.558673,1.45454545 Z M130.021138,1.45454545 L137.411286,24.4772727 L144.778696,1.45454545 L155.284076,1.45454545 L155.284076,34.5454545 L147.279977,34.5454545 L147.279977,26.8181818 L148.0531,11 L140.049001,34.5454545 L134.773572,34.5454545 L126.746733,10.9772727 L127.519857,26.8181818 L127.519857,34.5454545 L119.538496,34.5454545 L119.538496,1.45454545 L130.021138,1.45454545 Z M174.634896,34.5454545 L174.634896,1.45454545 L186.527351,1.45454545 C190.787108,1.45454545 194.027404,2.23484848 196.248239,3.79545455 C198.469073,5.35606061 199.57949,7.62121212 199.57949,10.5909091 C199.57949,12.3030303 199.185349,13.7651515 198.397066,14.9772727 C197.608784,16.1893939 196.449099,17.0833333 194.918012,17.6590909 C196.64617,18.1136364 197.972607,18.9621212 198.897323,20.2045455 C199.822039,21.4469697 200.284397,22.9621212 200.284397,24.75 C200.284397,27.9924242 199.257355,30.4280303 197.203273,32.0568182 C195.149191,33.6856061 192.105965,34.5151515 188.073597,34.5454545 L174.634896,34.5454545 Z M182.616257,20.4772727 L182.616257,28.4090909 L187.846208,28.4090909 C189.28634,28.4090909 190.392967,28.0795455 191.16609,27.4204545 C191.939213,26.7613636 192.325775,25.8333333 192.325775,24.6363636 C192.325775,21.8787879 190.95386,20.4924242 188.210031,20.4772727 L182.616257,20.4772727 Z M182.616257,15.25 L186.777479,15.25 C188.520796,15.2348485 189.763857,14.9166667 190.506662,14.2954545 C191.249466,13.6742424 191.620869,12.7575758 191.620869,11.5454545 C191.620869,10.1515152 191.219148,9.14772727 190.415706,8.53409091 C189.612264,7.92045455 188.316146,7.61363636 186.527351,7.61363636 L182.616257,7.61363636 L182.616257,15.25 Z M225.206252,20.5227273 L212.654368,20.5227273 L212.654368,28.4090909 L227.480143,28.4090909 L227.480143,34.5454545 L204.673008,34.5454545 L204.673008,1.45454545 L227.525621,1.45454545 L227.525621,7.61363636 L212.654368,7.61363636 L212.654368,14.5909091 L225.206252,14.5909091 L225.206252,20.5227273 Z M258.382334,34.5454545 L250.446451,34.5454545 L238.713169,13.9545455 L238.713169,34.5454545 L230.731809,34.5454545 L230.731809,1.45454545 L238.713169,1.45454545 L250.423713,22.0454545 L250.423713,1.45454545 L258.382334,1.45454545 L258.382334,34.5454545 Z M283.963618,20.5227273 L271.411735,20.5227273 L271.411735,28.4090909 L286.23751,28.4090909 L286.23751,34.5454545 L263.430374,34.5454545 L263.430374,1.45454545 L286.282987,1.45454545 L286.282987,7.61363636 L271.411735,7.61363636 L271.411735,14.5909091 L283.963618,14.5909091 L283.963618,20.5227273 Z M310.340764,21.3636364 L297.470535,21.3636364 L297.470535,34.5454545 L289.489175,34.5454545 L289.489175,1.45454545 L311.636882,1.45454545 L311.636882,7.61363636 L297.470535,7.61363636 L297.470535,15.2272727 L310.340764,15.2272727 L310.340764,21.3636364 Z M323.46112,34.5454545 L315.502498,34.5454545 L315.502498,1.45454545 L323.46112,1.45454545 L323.46112,34.5454545 Z M355,7.61363636 L345.063092,7.61363636 L345.063092,34.5454545 L337.081732,34.5454545 L337.081732,7.61363636 L327.326736,7.61363636 L327.326736,1.45454545 L355,1.45454545 L355,7.61363636 Z" id="Combined-Shape" fill="url(#linearGradient-1)"></path>
            </g>
        </g>
    </g>
</svg>