<svg id="RED_Copy" data-name="RED Copy" xmlns="http://www.w3.org/2000/svg" xmlns:xlink="http://www.w3.org/1999/xlink" width="82.888" height="35.837" viewBox="0 0 82.888 35.837">
  <defs>
    <linearGradient id="linear-gradient" x1="-0.238" y1="0.155" x2="1" y2="0.601" gradientUnits="objectBoundingBox">
      <stop offset="0" stop-color="#6f6f6f"/>
      <stop offset="0.363" stop-color="#232323"/>
      <stop offset="0.711" stop-color="#252525"/>
      <stop offset="1" stop-color="#575757"/>
    </linearGradient>
  </defs>
  <path id="Combined_Shape" data-name="Combined Shape" d="M8.4,34.837H0V0H13.71c4.112,0,7.372.926,9.689,2.751a9.364,9.364,0,0,1,3.494,7.776,11.382,11.382,0,0,1-1.472,6.029,10.487,10.487,0,0,1-4.606,3.876l7.274,14.044v.358h-9l-6.149-12.3H8.4v12.3h0Zm0-18.783H13.71a4.8,4.8,0,0,0,3.6-1.256,4.868,4.868,0,0,0,1.208-3.5A4.926,4.926,0,0,0,17.3,7.764,4.745,4.745,0,0,0,13.71,6.484H8.4Zm46.12,18.782V0H65.739a16.589,16.589,0,0,1,8.3,2.093A14.8,14.8,0,0,1,79.795,8a17.924,17.924,0,0,1,2.093,8.554v1.6a18.028,18.028,0,0,1-2.021,8.578,14.854,14.854,0,0,1-5.694,5.934,16.223,16.223,0,0,1-8.194,2.165Zm8.4-6.46h2.919A6.564,6.564,0,0,0,71.385,25.8c1.285-1.707,1.938-4.279,1.938-7.645V16.653c0-3.35-.652-5.909-1.938-7.609a6.674,6.674,0,0,0-5.647-2.56H62.915Zm-33.384,6.46V0H53.577V6.484H37.93v7.346H51.136v6.244H37.93v8.3h15.6v6.46Z" transform="translate(1)" fill="#1e1e1e"/>
  <path id="Combined_Shape-2" data-name="Combined Shape" d="M8.4,34.837H0V0H13.71c4.112,0,7.372.926,9.689,2.751a9.364,9.364,0,0,1,3.494,7.776,11.382,11.382,0,0,1-1.472,6.029,10.487,10.487,0,0,1-4.606,3.876l7.274,14.044v.358h-9l-6.149-12.3H8.4v12.3h0Zm0-18.783H13.71a4.8,4.8,0,0,0,3.6-1.256,4.868,4.868,0,0,0,1.208-3.5A4.926,4.926,0,0,0,17.3,7.764,4.745,4.745,0,0,0,13.71,6.484H8.4Zm46.12,18.782V0H65.739a16.589,16.589,0,0,1,8.3,2.093A14.8,14.8,0,0,1,79.795,8a17.924,17.924,0,0,1,2.093,8.554v1.6a18.028,18.028,0,0,1-2.021,8.578,14.854,14.854,0,0,1-5.694,5.934,16.223,16.223,0,0,1-8.194,2.165Zm8.4-6.46h2.919A6.564,6.564,0,0,0,71.385,25.8c1.285-1.707,1.938-4.279,1.938-7.645V16.653c0-3.35-.652-5.909-1.938-7.609a6.674,6.674,0,0,0-5.647-2.56H62.915Zm-33.384,6.46V0H53.577V6.484H37.93v7.346H51.136v6.244H37.93v8.3h15.6v6.46Z" transform="translate(0 1)" fill="url(#linear-gradient)"/>
</svg>
