<svg xmlns="http://www.w3.org/2000/svg" xmlns:xlink="http://www.w3.org/1999/xlink" width="294.78" height="79.533" viewBox="0 0 294.78 79.533">
  <defs>
    <linearGradient id="linear-gradient" x1="0.035" y1="0.145" x2="0.966" y2="0.906" gradientUnits="objectBoundingBox">
      <stop offset="0.001" stop-color="#1584b9"/>
      <stop offset="0.292" stop-color="#770dac"/>
      <stop offset="0.545" stop-color="#b80d0d"/>
      <stop offset="0.766" stop-color="#e5a20a"/>
      <stop offset="1" stop-color="#43a800"/>
    </linearGradient>
  </defs>
  <g id="Path_5" data-name="Path 5" transform="translate(-1244 -1010)" opacity="0.1">
    <path id="Path_5-2" data-name="Path 5" d="M189.007,79.533H180.8V45.468H194.2c4.021,0,7.209.905,9.475,2.69a9.157,9.157,0,0,1,3.416,7.6,11.131,11.131,0,0,1-1.439,5.9,10.268,10.268,0,0,1-4.5,3.79l7.112,13.733v.35h-8.8l-6.013-12.025h-4.445V79.532h0Zm0-18.366H194.2a4.692,4.692,0,0,0,3.522-1.229,4.765,4.765,0,0,0,1.181-3.427,4.824,4.824,0,0,0-1.193-3.451,4.649,4.649,0,0,0-3.51-1.251h-5.194ZM154.935,79.533h-8.772l12.493-34.064h7.721L178.963,79.53l-8.82,0-1.988-6.364H156.9l-1.966,6.364h0Zm3.931-12.7h7.323l-3.673-11.815Zm117.478,12.7V51.809H266.307v-6.34H294.78v6.34H284.556V79.532Zm-34.938,0V45.468h23.512v6.34h-15.3v7.182h12.914V65.1H249.619v8.118h15.253v6.317Zm-11.167,0-7.252-12.68-3.37,3.7v8.984h-8.212V45.468h8.212v15.02l2.855-4.328,7.346-10.692h10.154L228.461,60.535l11.511,19Zm-94.658,0V71.578l.8-16.284-8.235,24.238h-5.428l-8.259-24.261.8,16.307v7.954h-8.212V45.468h10.786l7.6,23.7,7.581-23.7h10.808V79.532Zm-25.836-47.76a11.517,11.517,0,0,1-3.649-8.844V.468h8.258V23.091q.14,5.592,5.194,5.592a5.026,5.026,0,0,0,3.86-1.4q1.311-1.4,1.31-4.562V.468h8.212v22.3a12.822,12.822,0,0,1-1.614,6.563,10.457,10.457,0,0,1-4.632,4.223A16.316,16.316,0,0,1,119.547,35Q113.324,35,109.744,31.772ZM80.048,33a13.7,13.7,0,0,1-5.252-5.72,19.6,19.6,0,0,1-1.977-8.539V16.822a20.271,20.271,0,0,1,1.837-8.833,13.686,13.686,0,0,1,5.264-5.907,15.579,15.579,0,0,1,15.522-.023,13.93,13.93,0,0,1,5.276,5.86,19.691,19.691,0,0,1,1.907,8.716V18.2a20.185,20.185,0,0,1-1.849,8.821,13.711,13.711,0,0,1-5.252,5.907A14.683,14.683,0,0,1,87.768,35,14.9,14.9,0,0,1,80.048,33ZM83,8.75c-1.084,1.537-1.691,3.875-1.808,6.949l-.023,2.5c0,3.322.559,5.911,1.661,7.7a5.454,5.454,0,0,0,4.937,2.69,5.389,5.389,0,0,0,4.8-2.643c1.118-1.754,1.692-4.312,1.708-7.6V16.775c0-3.368-.571-5.962-1.7-7.709A5.876,5.876,0,0,0,83,8.75ZM51.379,34.533H43.169V.468H56.574c4.021,0,7.209.905,9.475,2.69a9.157,9.157,0,0,1,3.416,7.6,11.131,11.131,0,0,1-1.439,5.9,10.268,10.268,0,0,1-4.5,3.79l7.112,13.733v.35h-8.8L55.825,22.507H51.38V34.532h0Zm0-18.366h5.194A4.692,4.692,0,0,0,60.1,14.938a4.765,4.765,0,0,0,1.181-3.427,4.824,4.824,0,0,0-1.193-3.452,4.649,4.649,0,0,0-3.51-1.251H51.38ZM165.948,34.532V26.578l.8-16.284-8.235,24.238h-5.428l-8.259-24.261.8,16.307v7.954h-8.212V.468h10.786l7.6,23.7,7.581-23.7h10.808V34.532ZM0,34.532V.468H23.513V6.809H8.212v7.182H21.127V20.1H8.212v8.118H23.466v6.317ZM28.673,20.969V13.483h7.51v7.486Z" transform="translate(1244 1010)" fill="none"/>
    <path id="Path_5-3" data-name="Path 5" d="M189.007,79.533H180.8V45.468H194.2c4.021,0,7.209.905,9.475,2.69a9.157,9.157,0,0,1,3.416,7.6,11.131,11.131,0,0,1-1.439,5.9,10.268,10.268,0,0,1-4.5,3.79l7.112,13.733v.35h-8.8l-6.013-12.025h-4.445V79.532h0Zm0-18.366H194.2a4.692,4.692,0,0,0,3.522-1.229,4.765,4.765,0,0,0,1.181-3.427,4.824,4.824,0,0,0-1.193-3.451,4.649,4.649,0,0,0-3.51-1.251h-5.194ZM154.935,79.533h-8.772l12.493-34.064h7.721L178.963,79.53l-8.82,0-1.988-6.364H156.9l-1.966,6.364h0Zm3.931-12.7h7.323l-3.673-11.815Zm117.478,12.7V51.809H266.307v-6.34H294.78v6.34H284.556V79.532Zm-34.938,0V45.468h23.512v6.34h-15.3v7.182h12.914V65.1H249.619v8.118h15.253v6.317Zm-11.167,0-7.252-12.68-3.37,3.7v8.984h-8.212V45.468h8.212v15.02l2.855-4.328,7.346-10.692h10.154L228.461,60.535l11.511,19Zm-94.658,0V71.578l.8-16.284-8.235,24.238h-5.428l-8.259-24.261.8,16.307v7.954h-8.212V45.468h10.786l7.6,23.7,7.581-23.7h10.808V79.532Zm-25.836-47.76a11.517,11.517,0,0,1-3.649-8.844V.468h8.258V23.091q.14,5.592,5.194,5.592a5.026,5.026,0,0,0,3.86-1.4q1.311-1.4,1.31-4.562V.468h8.212v22.3a12.822,12.822,0,0,1-1.614,6.563,10.457,10.457,0,0,1-4.632,4.223A16.316,16.316,0,0,1,119.547,35Q113.324,35,109.744,31.772ZM80.048,33a13.7,13.7,0,0,1-5.252-5.72,19.6,19.6,0,0,1-1.977-8.539V16.822a20.271,20.271,0,0,1,1.837-8.833,13.686,13.686,0,0,1,5.264-5.907,15.579,15.579,0,0,1,15.522-.023,13.93,13.93,0,0,1,5.276,5.86,19.691,19.691,0,0,1,1.907,8.716V18.2a20.185,20.185,0,0,1-1.849,8.821,13.711,13.711,0,0,1-5.252,5.907A14.683,14.683,0,0,1,87.768,35,14.9,14.9,0,0,1,80.048,33ZM83,8.75c-1.084,1.537-1.691,3.875-1.808,6.949l-.023,2.5c0,3.322.559,5.911,1.661,7.7a5.454,5.454,0,0,0,4.937,2.69,5.389,5.389,0,0,0,4.8-2.643c1.118-1.754,1.692-4.312,1.708-7.6V16.775c0-3.368-.571-5.962-1.7-7.709A5.876,5.876,0,0,0,83,8.75ZM51.379,34.533H43.169V.468H56.574c4.021,0,7.209.905,9.475,2.69a9.157,9.157,0,0,1,3.416,7.6,11.131,11.131,0,0,1-1.439,5.9,10.268,10.268,0,0,1-4.5,3.79l7.112,13.733v.35h-8.8L55.825,22.507H51.38V34.532h0Zm0-18.366h5.194A4.692,4.692,0,0,0,60.1,14.938a4.765,4.765,0,0,0,1.181-3.427,4.824,4.824,0,0,0-1.193-3.452,4.649,4.649,0,0,0-3.51-1.251H51.38ZM165.948,34.532V26.578l.8-16.284-8.235,24.238h-5.428l-8.259-24.261.8,16.307v7.954h-8.212V.468h10.786l7.6,23.7,7.581-23.7h10.808V34.532ZM0,34.532V.468H23.513V6.809H8.212v7.182H21.127V20.1H8.212v8.118H23.466v6.317ZM28.673,20.969V13.483h7.51v7.486Z" transform="translate(1244 1010)" fill="url(#linear-gradient)"/>
  </g>
</svg>
