<svg id="GOLD_Copy" data-name="GOLD Copy" xmlns="http://www.w3.org/2000/svg" xmlns:xlink="http://www.w3.org/1999/xlink" width="115.53" height="36.817" viewBox="0 0 115.53 36.817">
  <defs>
    <clipPath id="clip-path">
      <path id="Mask" d="M38.049,33.772a14.015,14.015,0,0,1-5.372-5.85,20.07,20.07,0,0,1-2.021-8.733V17.227A20.722,20.722,0,0,1,32.534,8.2a13.992,13.992,0,0,1,5.383-6.042A15.137,15.137,0,0,1,45.9.024a14.986,14.986,0,0,1,7.9,2.105,14.247,14.247,0,0,1,5.4,5.994,20.122,20.122,0,0,1,1.949,8.912v1.6a20.637,20.637,0,0,1-1.89,9.02A14.036,14.036,0,0,1,53.876,33.7a15.023,15.023,0,0,1-7.932,2.118A15.24,15.24,0,0,1,38.049,33.772Zm3.02-24.8c-1.107,1.572-1.729,3.963-1.849,7.106l-.023,2.56c0,3.4.571,6.045,1.7,7.871a5.579,5.579,0,0,0,5.048,2.751,5.511,5.511,0,0,0,4.905-2.7c1.143-1.795,1.731-4.411,1.747-7.776v-1.6c0-3.445-.583-6.1-1.735-7.884a6.01,6.01,0,0,0-9.791-.323ZM4.4,31.63Q.311,27.443.024,19.978L0,16.963A20.787,20.787,0,0,1,1.818,7.979a13.5,13.5,0,0,1,5.2-5.909A14.722,14.722,0,0,1,14.858,0q6.507,0,10.109,2.979t4.2,8.888H21.079A6.609,6.609,0,0,0,19.212,7.7,6.024,6.024,0,0,0,15.145,6.46,5.478,5.478,0,0,0,10.265,9.14Q8.542,11.819,8.518,16.8V18.9q0,5.215,1.782,7.835a6.307,6.307,0,0,0,5.611,2.62,7.059,7.059,0,0,0,4.882-1.46V22.49H14.954V16.724H29.19V31.032A13.5,13.5,0,0,1,23.519,34.5a24.447,24.447,0,0,1-8.183,1.317Q8.494,35.817,4.4,31.63Zm82.757,3.709V.5H98.38a16.585,16.585,0,0,1,8.3,2.093,14.79,14.79,0,0,1,5.754,5.909,17.914,17.914,0,0,1,2.093,8.554v1.6a18.015,18.015,0,0,1-2.021,8.578,14.842,14.842,0,0,1-5.694,5.934,16.218,16.218,0,0,1-8.195,2.165Zm8.4-6.46h2.919a6.559,6.559,0,0,0,5.551-2.572c1.286-1.706,1.938-4.279,1.938-7.645V17.155c0-3.35-.652-5.909-1.938-7.609a6.674,6.674,0,0,0-5.647-2.56H95.557Zm-32.521,6.46V.5h8.4V28.878H86.052v6.46Z" fill="#333"/>
    </clipPath>
  </defs>
  <path id="Combined_Shape" data-name="Combined Shape" d="M38.049,33.772a14.015,14.015,0,0,1-5.372-5.85,20.07,20.07,0,0,1-2.021-8.733V17.227A20.722,20.722,0,0,1,32.534,8.2a13.992,13.992,0,0,1,5.383-6.042A15.137,15.137,0,0,1,45.9.024a14.986,14.986,0,0,1,7.9,2.105,14.247,14.247,0,0,1,5.4,5.994,20.122,20.122,0,0,1,1.949,8.912v1.6a20.637,20.637,0,0,1-1.89,9.02A14.036,14.036,0,0,1,53.876,33.7a15.023,15.023,0,0,1-7.932,2.118A15.24,15.24,0,0,1,38.049,33.772Zm3.02-24.8c-1.107,1.572-1.729,3.963-1.849,7.106l-.023,2.56c0,3.4.571,6.045,1.7,7.871a5.579,5.579,0,0,0,5.048,2.751,5.511,5.511,0,0,0,4.905-2.7c1.143-1.795,1.731-4.411,1.747-7.776v-1.6c0-3.445-.583-6.1-1.735-7.884a6.01,6.01,0,0,0-9.791-.323ZM4.4,31.63Q.311,27.443.024,19.978L0,16.963A20.787,20.787,0,0,1,1.818,7.979a13.5,13.5,0,0,1,5.2-5.909A14.722,14.722,0,0,1,14.858,0q6.507,0,10.109,2.979t4.2,8.888H21.079A6.609,6.609,0,0,0,19.212,7.7,6.024,6.024,0,0,0,15.145,6.46,5.478,5.478,0,0,0,10.265,9.14Q8.542,11.819,8.518,16.8V18.9q0,5.215,1.782,7.835a6.307,6.307,0,0,0,5.611,2.62,7.059,7.059,0,0,0,4.882-1.46V22.49H14.954V16.724H29.19V31.032A13.5,13.5,0,0,1,23.519,34.5a24.447,24.447,0,0,1-8.183,1.317Q8.494,35.817,4.4,31.63Zm82.757,3.709V.5H98.38a16.585,16.585,0,0,1,8.3,2.093,14.79,14.79,0,0,1,5.754,5.909,17.914,17.914,0,0,1,2.093,8.554v1.6a18.015,18.015,0,0,1-2.021,8.578,14.842,14.842,0,0,1-5.694,5.934,16.218,16.218,0,0,1-8.195,2.165Zm8.4-6.46h2.919a6.559,6.559,0,0,0,5.551-2.572c1.286-1.706,1.938-4.279,1.938-7.645V17.155c0-3.35-.652-5.909-1.938-7.609a6.674,6.674,0,0,0-5.647-2.56H95.557Zm-32.521,6.46V.5h8.4V28.878H86.052v6.46Z" transform="translate(1)" fill="#1e1e1e"/>
  <g id="Oval_Oval_Mask" data-name="Oval + Oval Mask" transform="translate(0 1)">
    <path id="Mask-2" data-name="Mask" d="M38.049,33.772a14.015,14.015,0,0,1-5.372-5.85,20.07,20.07,0,0,1-2.021-8.733V17.227A20.722,20.722,0,0,1,32.534,8.2a13.992,13.992,0,0,1,5.383-6.042A15.137,15.137,0,0,1,45.9.024a14.986,14.986,0,0,1,7.9,2.105,14.247,14.247,0,0,1,5.4,5.994,20.122,20.122,0,0,1,1.949,8.912v1.6a20.637,20.637,0,0,1-1.89,9.02A14.036,14.036,0,0,1,53.876,33.7a15.023,15.023,0,0,1-7.932,2.118A15.24,15.24,0,0,1,38.049,33.772Zm3.02-24.8c-1.107,1.572-1.729,3.963-1.849,7.106l-.023,2.56c0,3.4.571,6.045,1.7,7.871a5.579,5.579,0,0,0,5.048,2.751,5.511,5.511,0,0,0,4.905-2.7c1.143-1.795,1.731-4.411,1.747-7.776v-1.6c0-3.445-.583-6.1-1.735-7.884a6.01,6.01,0,0,0-9.791-.323ZM4.4,31.63Q.311,27.443.024,19.978L0,16.963A20.787,20.787,0,0,1,1.818,7.979a13.5,13.5,0,0,1,5.2-5.909A14.722,14.722,0,0,1,14.858,0q6.507,0,10.109,2.979t4.2,8.888H21.079A6.609,6.609,0,0,0,19.212,7.7,6.024,6.024,0,0,0,15.145,6.46,5.478,5.478,0,0,0,10.265,9.14Q8.542,11.819,8.518,16.8V18.9q0,5.215,1.782,7.835a6.307,6.307,0,0,0,5.611,2.62,7.059,7.059,0,0,0,4.882-1.46V22.49H14.954V16.724H29.19V31.032A13.5,13.5,0,0,1,23.519,34.5a24.447,24.447,0,0,1-8.183,1.317Q8.494,35.817,4.4,31.63Zm82.757,3.709V.5H98.38a16.585,16.585,0,0,1,8.3,2.093,14.79,14.79,0,0,1,5.754,5.909,17.914,17.914,0,0,1,2.093,8.554v1.6a18.015,18.015,0,0,1-2.021,8.578,14.842,14.842,0,0,1-5.694,5.934,16.218,16.218,0,0,1-8.195,2.165Zm8.4-6.46h2.919a6.559,6.559,0,0,0,5.551-2.572c1.286-1.706,1.938-4.279,1.938-7.645V17.155c0-3.35-.652-5.909-1.938-7.609a6.674,6.674,0,0,0-5.647-2.56H95.557Zm-32.521,6.46V.5h8.4V28.878H86.052v6.46Z" fill="#333"/>
    <g id="Oval_Oval_Mask-2" data-name="Oval + Oval Mask" clip-path="url(#clip-path)">
      <circle id="Oval" cx="72.769" cy="72.769" r="72.769" transform="translate(-89.577 -108.965)" fill="#fff" opacity="0.3"/>
      <circle id="Oval-2" data-name="Oval" cx="72.769" cy="72.769" r="72.769" transform="translate(90.423 -108.965)" fill="#fff" opacity="0.3"/>
      <circle id="Oval-3" data-name="Oval" cx="21" cy="21" r="21" transform="translate(35.68 -20.378)" opacity="0.6"/>
    </g>
  </g>
</svg>
