<svg id="Shape" xmlns="http://www.w3.org/2000/svg" xmlns:xlink="http://www.w3.org/1999/xlink" width="579.926" height="39" viewBox="0 0 579.926 39">
  <defs>
    <linearGradient id="linear-gradient" x1="0.026" x2="1.027" y2="1" gradientUnits="objectBoundingBox">
      <stop offset="0" stop-color="#2bb5e7"/>
      <stop offset="0.459" stop-color="#7927e3"/>
      <stop offset="1" stop-color="#b73980"/>
    </linearGradient>
  </defs>
  <path id="Shape-2" data-name="Shape" d="M179.871,38.4a9.73,9.73,0,0,1-3.2-1.68,8.334,8.334,0,0,1-2.16-2.72,7.251,7.251,0,0,1-.8-3.52,7.641,7.641,0,0,1,.8-3.6,7.811,7.811,0,0,1,2.2-2.68,9.734,9.734,0,0,1,3.2-1.72,13.642,13.642,0,0,1,3.919-.561,13.286,13.286,0,0,1,3.96.6,11.356,11.356,0,0,1,3.24,1.68,9.081,9.081,0,0,1,2.2,2.72,8.147,8.147,0,0,1,.8,3.56,7.709,7.709,0,0,1-.8,3.479,9.559,9.559,0,0,1-2.16,2.72,11.442,11.442,0,0,1-3.24,1.721,13.232,13.232,0,0,1-4,.6A12.534,12.534,0,0,1,179.871,38.4Zm1.4-13.04a6.214,6.214,0,0,0-2.12,1.12,4.917,4.917,0,0,0-1.44,1.72,4.982,4.982,0,0,0-.52,2.281,4.113,4.113,0,0,0,.561,2.239,4.546,4.546,0,0,0,1.44,1.721,7.055,7.055,0,0,0,2.12,1.08,8.766,8.766,0,0,0,2.52.36,9.461,9.461,0,0,0,2.6-.36,8.91,8.91,0,0,0,2.12-1.08,5.425,5.425,0,0,0,1.44-1.721,5.028,5.028,0,0,0,.519-2.239,5.239,5.239,0,0,0-.519-2.24,6.429,6.429,0,0,0-1.4-1.72,7.6,7.6,0,0,0-2.119-1.12,9.525,9.525,0,0,0-2.641-.4A8.781,8.781,0,0,0,181.272,25.36ZM143.961,38.4a9.748,9.748,0,0,1-3.2-1.68A8.345,8.345,0,0,1,138.6,34a7.251,7.251,0,0,1-.8-3.52,7.641,7.641,0,0,1,.8-3.6,7.811,7.811,0,0,1,2.2-2.68,9.725,9.725,0,0,1,3.2-1.72,13.633,13.633,0,0,1,3.92-.561,13.291,13.291,0,0,1,3.96.6,11.38,11.38,0,0,1,3.24,1.68,9.054,9.054,0,0,1,2.2,2.72,8.136,8.136,0,0,1,.8,3.56,7.7,7.7,0,0,1-.8,3.479,9.543,9.543,0,0,1-2.16,2.72,11.454,11.454,0,0,1-3.24,1.721,13.232,13.232,0,0,1-4,.6A12.53,12.53,0,0,1,143.961,38.4Zm1.4-13.04a6.238,6.238,0,0,0-2.12,1.12,4.907,4.907,0,0,0-1.44,1.72,4.977,4.977,0,0,0-.519,2.281,4.107,4.107,0,0,0,.56,2.239,4.538,4.538,0,0,0,1.44,1.721,7.044,7.044,0,0,0,2.12,1.08,8.766,8.766,0,0,0,2.52.36,9.461,9.461,0,0,0,2.6-.36,8.944,8.944,0,0,0,2.12-1.08,5.431,5.431,0,0,0,1.44-1.721,5.037,5.037,0,0,0,.52-2.239,5.249,5.249,0,0,0-.52-2.24,6.455,6.455,0,0,0-1.4-1.72,7.619,7.619,0,0,0-2.119-1.12,9.525,9.525,0,0,0-2.641-.4A8.776,8.776,0,0,0,145.362,25.36ZM105.339,38.6H103.1V1h2.24V38.6ZM18.6,38.6H16.24V25.48H0V23.521H34.96V25.48H18.6V38.6h0Zm214.741-.8h-3.518V27.12h-19.48V24h23V37.8h0Zm337.545-.2V0h2.24V14.72h6.8V16.68h-6.8V37.6Zm-33.472,0h-2.238V0h2.24V37.6Zm-111.931,0h-2.238V0h2.24V37.6Zm-358.493,0H42.91V26.321h2.24V35.64H66.99V37.6h0Zm384.444-.8a25.237,25.237,0,0,1-1.957-1.6,20.863,20.863,0,0,1-1.882-1.882,15.05,15.05,0,0,1-1.56-2.12,8.7,8.7,0,0,1-1.12-2.2,20.016,20.016,0,0,1-2.641,4.52,16.232,16.232,0,0,1-3.6,3.281c-.1-.086-.2-.167-.3-.246a6.3,6.3,0,0,1-.5-.435l-.112-.1c-.246-.211-.479-.41-.687-.584a19.416,19.416,0,0,0,2.52-1.96,14.531,14.531,0,0,0,2.08-2.52,18.73,18.73,0,0,0,1.44-3.12,13.751,13.751,0,0,0,.64-3.52V22.36h2.2v1.96a9.087,9.087,0,0,0,.44,3,10.1,10.1,0,0,0,1.2,2.679,9.968,9.968,0,0,0,1.721,2.32,14.45,14.45,0,0,0,2.16,1.96c.635-.516,1.3-1.1,2.039-1.76a13.713,13.713,0,0,0,1.8-2.319,16.854,16.854,0,0,0,1.28-2.84,11.41,11.41,0,0,0,.481-3.4v-1.6h2.2v1.96a10.018,10.018,0,0,0,.56,3.52,12.579,12.579,0,0,0,1.52,3.12,11.812,11.812,0,0,0,2.12,2.52,19.094,19.094,0,0,0,2.479,1.96,6.488,6.488,0,0,0-.8.68c-.1.085-.2.165-.294.242a6.22,6.22,0,0,0-.506.437,14.569,14.569,0,0,1-3.6-3.28A17.431,17.431,0,0,1,458.114,29a11.722,11.722,0,0,1-1.08,2.12,22.879,22.879,0,0,1-1.6,2.24c-.578.648-1.2,1.283-1.96,2a10.889,10.889,0,0,1-2.04,1.4V36.8Zm47.191,0h-23.6V23.36h2.24V27.6h19.08V23.36h2.28V36.8h0ZM477.266,34.88h19.08V29.52h-19.08ZM350.183,36.6h-23.2V25.52h3.48v7.96h19.72V36.6h0Zm-73.7-2.88V30.6H292.2V24.04h-10.24V12.48h20.48V7.12h-20.48V4.2h24V15.4h-20.52v5.76h21.119v2.88h-10.84V30.6h15.719v3.12Zm-37.31,0V30.6h34.96v3.12Zm118.241-1V29.6h10.08V23.04h-4.6V11.48h20.48V6.12h-20.48V3.2h24V14.4h-20.52v5.76h21.119v2.88h-5.2V29.6h10.08v3.12Zm13.48-3.12h8V23.04h-8Zm-314.345.32H54.31V21.88H36.91v-2H72.67v2H56.55v8.04h0ZM396.4,29V27.04h9.48V18.88H398.6V3.52h16.761v2H400.844v11.4h15.241v1.96h-8V27.04h.031a46.666,46.666,0,0,0,5.769-.319c1.791-.186,3.714-.487,5.881-.92l.28,1.92a51.281,51.281,0,0,1-6.4.96,72.272,72.272,0,0,1-7.44.32Zm-46.621-3h-3.52V0h3.521V10.32h6V13.4h-6V26h0ZM546.926,3.52h17v2h-14.76V23.96c3.04,0,6-.08,8.84-.319,2.8-.2,5.56-.52,8.24-.96l.28,1.92a123.315,123.315,0,0,1-19.6,1.32ZM82.181,24.96a8.9,8.9,0,0,1-3.24-2.24,9.115,9.115,0,0,1-2.12-3.36,10.98,10.98,0,0,1-.76-4.2,11.381,11.381,0,0,1,.76-4.24,9.661,9.661,0,0,1,5.36-5.56,10.109,10.109,0,0,1,4.04-.8,10.567,10.567,0,0,1,4.04.8,11.191,11.191,0,0,1,3.2,2.2,12.149,12.149,0,0,1,2.16,3.36,12.211,12.211,0,0,1,.761,4.24,11.9,11.9,0,0,1-.761,4.2,11.059,11.059,0,0,1-2.16,3.36,9.731,9.731,0,0,1-7.24,3.04A9.389,9.389,0,0,1,82.181,24.96Zm.96-17.8a8.1,8.1,0,0,0-2.52,1.8,8.625,8.625,0,0,0-1.68,2.721,9.984,9.984,0,0,0-.6,3.479,9.306,9.306,0,0,0,.6,3.4,7.45,7.45,0,0,0,1.68,2.72,6.492,6.492,0,0,0,2.479,1.8,6.906,6.906,0,0,0,3.16.68,6.818,6.818,0,0,0,3.12-.68,6.976,6.976,0,0,0,2.52-1.8,8.762,8.762,0,0,0,1.64-2.72,10.231,10.231,0,0,0,.56-3.4,9.878,9.878,0,0,0-.6-3.44A9.346,9.346,0,0,0,91.861,9a9.26,9.26,0,0,0-2.48-1.84,7.925,7.925,0,0,0-6.24,0ZM510.815,25.52h0V3.12h2.24V23.56h.049c3.475,0,6.415-.1,8.991-.319,2.845-.2,5.617-.523,8.24-.959l.28,1.92a124.118,124.118,0,0,1-19.8,1.32ZM252.492,23.2a10.613,10.613,0,0,1-3.6-2,9.844,9.844,0,0,1-2.6-3.24,10.177,10.177,0,0,1-1.12-4.36,9.353,9.353,0,0,1,.959-4.28,10.318,10.318,0,0,1,2.48-3.24A11.972,11.972,0,0,1,252.252,4a15.4,15.4,0,0,1,4.4-.8,13.183,13.183,0,0,1,4.28.72A12,12,0,0,1,264.572,6a11.661,11.661,0,0,1,2.6,3.28,10,10,0,0,1,1,4.32,10.37,10.37,0,0,1-.959,4.28,9.908,9.908,0,0,1-2.48,3.2,11.563,11.563,0,0,1-3.64,2.039,14.845,14.845,0,0,1-4.441.8A12.137,12.137,0,0,1,252.492,23.2Zm1.2-16.4a7.887,7.887,0,0,0-2.52,1.48,6.5,6.5,0,0,0-1.76,2.281,6.408,6.408,0,0,0-.72,3.04,6.476,6.476,0,0,0,.64,2.959,5.985,5.985,0,0,0,1.759,2.24,7.191,7.191,0,0,0,2.52,1.44,8.523,8.523,0,0,0,3.04.561,9.471,9.471,0,0,0,3-.481,7.966,7.966,0,0,0,2.52-1.44,7.387,7.387,0,0,0,1.8-2.28,7.269,7.269,0,0,0,.72-3,7.082,7.082,0,0,0-.641-2.96,7.387,7.387,0,0,0-1.72-2.281,8.55,8.55,0,0,0-2.56-1.48,11.6,11.6,0,0,0-3.12-.56A8.978,8.978,0,0,0,253.692,6.8ZM321.384,22.44v-3h8.88v-3.2a7.465,7.465,0,0,1-2.76-.84,6.62,6.62,0,0,1-2.12-1.6,5.891,5.891,0,0,1-1.4-2.24,6.988,6.988,0,0,1-.52-2.8,7.626,7.626,0,0,1,.64-3.24,6.355,6.355,0,0,1,1.8-2.44,8.681,8.681,0,0,1,2.68-1.56A10.853,10.853,0,0,1,331.9,1a11.4,11.4,0,0,1,3.36.52,10.422,10.422,0,0,1,2.68,1.56,7.753,7.753,0,0,1,1.76,2.44,8.385,8.385,0,0,1,.64,3.24,7.74,7.74,0,0,1-.52,2.8,8.109,8.109,0,0,1-1.4,2.281,7.576,7.576,0,0,1-2.16,1.6,6.916,6.916,0,0,1-2.679.8v3.2h.01A46.81,46.81,0,0,0,344.1,18.16c.04.528.08,1,.16,1.48.042.552.082,1.012.16,1.48a59.961,59.961,0,0,1-13.24,1.319Zm8.6-18.32a4.958,4.958,0,0,0-1.641.92,4.312,4.312,0,0,0-1.12,1.56,4.583,4.583,0,0,0-.44,2.12,4.245,4.245,0,0,0,.44,2.12,3.6,3.6,0,0,0,1.12,1.52,3.825,3.825,0,0,0,1.641.88,5.156,5.156,0,0,0,1.959.32,5.628,5.628,0,0,0,2-.32,5.145,5.145,0,0,0,1.64-.92,4.334,4.334,0,0,0,1.08-1.52,5.305,5.305,0,0,0,.4-2.08,5.881,5.881,0,0,0-.4-2.08,5.475,5.475,0,0,0-1.08-1.561,6.087,6.087,0,0,0-1.64-.959,6.746,6.746,0,0,0-2-.32A6.085,6.085,0,0,0,329.984,4.12Zm-135.753,17h-3.519V1h3.52V9.4h6v3.12h-6v8.6h0Zm-35.51,0H155.2V11.96h-7.359V8.84H155.2V1h3.52V21.119h0Zm74.62-.32h-3.518V11.96h-7.359V8.84h7.359V1h3.52V20.8h0Zm-27.878-.2c-.383-.346-.773-.734-1.15-1.11l-.049-.05c-.2-.2-.408-.4-.607-.586s-.4-.376-.593-.574a16.442,16.442,0,0,0,6.6-5.44,15.221,15.221,0,0,0,2.561-7.121h-7.44V2.6h18.8V5.72h-7.52a11.3,11.3,0,0,0,.841,3.84,11.709,11.709,0,0,0,1.92,3.2,13.633,13.633,0,0,0,2.84,2.6,19.144,19.144,0,0,0,3.6,2.12c-.2.2-.409.4-.607.587s-.4.376-.593.573c-.393.393-.8.8-1.2,1.16a20.688,20.688,0,0,1-5.2-3.36,12.182,12.182,0,0,1-3.44-4.521,15.488,15.488,0,0,1-3.44,4.92,20.365,20.365,0,0,1-5.32,3.76Zm-74.621,0c-.383-.346-.773-.734-1.15-1.11l-.049-.05c-.2-.2-.408-.4-.607-.586s-.4-.376-.593-.574a16.442,16.442,0,0,0,6.6-5.44A15.221,15.221,0,0,0,137.6,5.72h-7.44V2.6h18.8V5.72h-7.52a11.3,11.3,0,0,0,.841,3.84,11.732,11.732,0,0,0,1.92,3.2,13.656,13.656,0,0,0,2.84,2.6,19.144,19.144,0,0,0,3.6,2.12c-.2.2-.409.4-.607.587s-.4.376-.593.573c-.393.393-.8.8-1.2,1.16a20.7,20.7,0,0,1-5.2-3.36,12.182,12.182,0,0,1-3.44-4.521,15.488,15.488,0,0,1-3.44,4.92,20.365,20.365,0,0,1-5.32,3.76Zm36.111-.2c-.384-.346-.774-.734-1.15-1.11l-.05-.05c-.2-.2-.407-.4-.606-.586s-.4-.376-.594-.574a22.394,22.394,0,0,0,3.96-2.561,19.186,19.186,0,0,0,2.96-3.08,14.985,14.985,0,0,0,1.92-3.4,10.68,10.68,0,0,0,.64-3.52V2h3.641V5.52a9.151,9.151,0,0,0,.64,3.361,10.489,10.489,0,0,0,1.88,3.2,14.431,14.431,0,0,0,2.96,2.84,17.141,17.141,0,0,0,4,2.36c-.2.2-.4.389-.593.573s-.4.384-.607.587l-.049.05c-.377.376-.767.765-1.151,1.11a17.711,17.711,0,0,1-2.839-1.561,14.586,14.586,0,0,1-2.52-1.88,10.457,10.457,0,0,1-2.04-2.16,8.045,8.045,0,0,1-1.44-2.319,16.323,16.323,0,0,1-3.52,4.919,21.933,21.933,0,0,1-5.439,3.8Zm296.4-.4h-2.239V10.6h-8.24a8.024,8.024,0,0,1-.88,3.2,7.89,7.89,0,0,1-1.959,2.44,7.327,7.327,0,0,1-2.76,1.561,9.12,9.12,0,0,1-3.32.56,10.2,10.2,0,0,1-3.56-.6,7.862,7.862,0,0,1-2.84-1.72,7.009,7.009,0,0,1-1.92-2.72,8.259,8.259,0,0,1-.68-3.52,8.5,8.5,0,0,1,.68-3.52,7.462,7.462,0,0,1,1.92-2.68,8.417,8.417,0,0,1,2.84-1.72,10.2,10.2,0,0,1,3.56-.6,11.152,11.152,0,0,1,3.28.52,9.481,9.481,0,0,1,2.721,1.48,9.014,9.014,0,0,1,1.92,2.32,9.33,9.33,0,0,1,.96,3.04h8.28V0h2.24V20h0Zm-22-16.28a6.573,6.573,0,0,0-2.16,1.32,5.289,5.289,0,0,0-1.44,2.04,6.2,6.2,0,0,0-.56,2.72,6.423,6.423,0,0,0,.52,2.72,5.288,5.288,0,0,0,1.44,2.04,4.953,4.953,0,0,0,2.16,1.319,7.29,7.29,0,0,0,2.679.481,7.394,7.394,0,0,0,2.68-.481,5.946,5.946,0,0,0,2.12-1.319,6.614,6.614,0,0,0,1.4-2.08,7.09,7.09,0,0,0,.481-2.68,7.3,7.3,0,0,0-.52-2.68,7.56,7.56,0,0,0-1.4-2.08,7.236,7.236,0,0,0-2.12-1.32,8.37,8.37,0,0,0-2.641-.44A7.98,7.98,0,0,0,441.355,3.72Zm27.671,16.04V17.8h35.6v1.958h-35.6ZM5.319,17.64h0a7.128,7.128,0,0,1-.759-.8c-.247-.246-.5-.54-.72-.8a14.072,14.072,0,0,0,2.72-.88A18.364,18.364,0,0,0,9.4,13.76a26.528,26.528,0,0,0,2.641-1.88,16.13,16.13,0,0,0,2.2-2.2,10.031,10.031,0,0,0,1.44-2.44,6,6,0,0,0,.44-2.52H5.44V2.76H29.48V4.72H18.8A6.616,6.616,0,0,0,19.84,8.36a11.55,11.55,0,0,0,2.76,3.2,17.158,17.158,0,0,0,3.92,2.6,22.863,22.863,0,0,0,4.559,1.88l-.036.043c-.212.246-.451.524-.684.756-.245.287-.543.583-.76.8a21.7,21.7,0,0,1-3.88-1.519,18.57,18.57,0,0,1-3.48-2.08,17.2,17.2,0,0,1-2.84-2.479,10.019,10.019,0,0,1-1.921-2.72,12.208,12.208,0,0,1-1.96,2.72A18.564,18.564,0,0,1,12.68,14,21.633,21.633,0,0,1,9.2,16.08a24.41,24.41,0,0,1-3.88,1.56Zm61.35-2.36H42.91V2.32H66.67V15.279h0Zm-21.519-2H64.43V4.32H45.15Zm446.355-2.4a10.589,10.589,0,0,1-4.68-4.441,11.333,11.333,0,0,1-4.68,4.4,26.6,26.6,0,0,1-8.28,2.76h0l-.014-.014c-.231-.232-.471-.471-.7-.746a7.155,7.155,0,0,1-.76-.8,26.289,26.289,0,0,0,5.56-1.4,17.7,17.7,0,0,0,4.16-2.16,9.968,9.968,0,0,0,2.641-2.72,5.949,5.949,0,0,0,.879-3V.56h2.361v2.2a5.389,5.389,0,0,0,.92,3.04,8.922,8.922,0,0,0,2.64,2.72,14.379,14.379,0,0,0,4.16,2.12,25.228,25.228,0,0,0,5.521,1.4l-.04.05c-.223.257-.454.525-.68.75l-.522.522-.238.238A24.946,24.946,0,0,1,491.505,10.88Z" fill="none"/>
  <path id="Shape-3" data-name="Shape" d="M179.871,38.4a9.73,9.73,0,0,1-3.2-1.68,8.334,8.334,0,0,1-2.16-2.72,7.251,7.251,0,0,1-.8-3.52,7.641,7.641,0,0,1,.8-3.6,7.811,7.811,0,0,1,2.2-2.68,9.734,9.734,0,0,1,3.2-1.72,13.642,13.642,0,0,1,3.919-.561,13.286,13.286,0,0,1,3.96.6,11.356,11.356,0,0,1,3.24,1.68,9.081,9.081,0,0,1,2.2,2.72,8.147,8.147,0,0,1,.8,3.56,7.709,7.709,0,0,1-.8,3.479,9.559,9.559,0,0,1-2.16,2.72,11.442,11.442,0,0,1-3.24,1.721,13.232,13.232,0,0,1-4,.6A12.534,12.534,0,0,1,179.871,38.4Zm1.4-13.04a6.214,6.214,0,0,0-2.12,1.12,4.917,4.917,0,0,0-1.44,1.72,4.982,4.982,0,0,0-.52,2.281,4.113,4.113,0,0,0,.561,2.239,4.546,4.546,0,0,0,1.44,1.721,7.055,7.055,0,0,0,2.12,1.08,8.766,8.766,0,0,0,2.52.36,9.461,9.461,0,0,0,2.6-.36,8.91,8.91,0,0,0,2.12-1.08,5.425,5.425,0,0,0,1.44-1.721,5.028,5.028,0,0,0,.519-2.239,5.239,5.239,0,0,0-.519-2.24,6.429,6.429,0,0,0-1.4-1.72,7.6,7.6,0,0,0-2.119-1.12,9.525,9.525,0,0,0-2.641-.4A8.781,8.781,0,0,0,181.272,25.36ZM143.961,38.4a9.748,9.748,0,0,1-3.2-1.68A8.345,8.345,0,0,1,138.6,34a7.251,7.251,0,0,1-.8-3.52,7.641,7.641,0,0,1,.8-3.6,7.811,7.811,0,0,1,2.2-2.68,9.725,9.725,0,0,1,3.2-1.72,13.633,13.633,0,0,1,3.92-.561,13.291,13.291,0,0,1,3.96.6,11.38,11.38,0,0,1,3.24,1.68,9.054,9.054,0,0,1,2.2,2.72,8.136,8.136,0,0,1,.8,3.56,7.7,7.7,0,0,1-.8,3.479,9.543,9.543,0,0,1-2.16,2.72,11.454,11.454,0,0,1-3.24,1.721,13.232,13.232,0,0,1-4,.6A12.53,12.53,0,0,1,143.961,38.4Zm1.4-13.04a6.238,6.238,0,0,0-2.12,1.12,4.907,4.907,0,0,0-1.44,1.72,4.977,4.977,0,0,0-.519,2.281,4.107,4.107,0,0,0,.56,2.239,4.538,4.538,0,0,0,1.44,1.721,7.044,7.044,0,0,0,2.12,1.08,8.766,8.766,0,0,0,2.52.36,9.461,9.461,0,0,0,2.6-.36,8.944,8.944,0,0,0,2.12-1.08,5.431,5.431,0,0,0,1.44-1.721,5.037,5.037,0,0,0,.52-2.239,5.249,5.249,0,0,0-.52-2.24,6.455,6.455,0,0,0-1.4-1.72,7.619,7.619,0,0,0-2.119-1.12,9.525,9.525,0,0,0-2.641-.4A8.776,8.776,0,0,0,145.362,25.36ZM105.339,38.6H103.1V1h2.24V38.6ZM18.6,38.6H16.24V25.48H0V23.521H34.96V25.48H18.6V38.6h0Zm214.741-.8h-3.518V27.12h-19.48V24h23V37.8h0Zm337.545-.2V0h2.24V14.72h6.8V16.68h-6.8V37.6Zm-33.472,0h-2.238V0h2.24V37.6Zm-111.931,0h-2.238V0h2.24V37.6Zm-358.493,0H42.91V26.321h2.24V35.64H66.99V37.6h0Zm384.444-.8a25.237,25.237,0,0,1-1.957-1.6,20.863,20.863,0,0,1-1.882-1.882,15.05,15.05,0,0,1-1.56-2.12,8.7,8.7,0,0,1-1.12-2.2,20.016,20.016,0,0,1-2.641,4.52,16.232,16.232,0,0,1-3.6,3.281c-.1-.086-.2-.167-.3-.246a6.3,6.3,0,0,1-.5-.435l-.112-.1c-.246-.211-.479-.41-.687-.584a19.416,19.416,0,0,0,2.52-1.96,14.531,14.531,0,0,0,2.08-2.52,18.73,18.73,0,0,0,1.44-3.12,13.751,13.751,0,0,0,.64-3.52V22.36h2.2v1.96a9.087,9.087,0,0,0,.44,3,10.1,10.1,0,0,0,1.2,2.679,9.968,9.968,0,0,0,1.721,2.32,14.45,14.45,0,0,0,2.16,1.96c.635-.516,1.3-1.1,2.039-1.76a13.713,13.713,0,0,0,1.8-2.319,16.854,16.854,0,0,0,1.28-2.84,11.41,11.41,0,0,0,.481-3.4v-1.6h2.2v1.96a10.018,10.018,0,0,0,.56,3.52,12.579,12.579,0,0,0,1.52,3.12,11.812,11.812,0,0,0,2.12,2.52,19.094,19.094,0,0,0,2.479,1.96,6.488,6.488,0,0,0-.8.68c-.1.085-.2.165-.294.242a6.22,6.22,0,0,0-.506.437,14.569,14.569,0,0,1-3.6-3.28A17.431,17.431,0,0,1,458.114,29a11.722,11.722,0,0,1-1.08,2.12,22.879,22.879,0,0,1-1.6,2.24c-.578.648-1.2,1.283-1.96,2a10.889,10.889,0,0,1-2.04,1.4V36.8Zm47.191,0h-23.6V23.36h2.24V27.6h19.08V23.36h2.28V36.8h0ZM477.266,34.88h19.08V29.52h-19.08ZM350.183,36.6h-23.2V25.52h3.48v7.96h19.72V36.6h0Zm-73.7-2.88V30.6H292.2V24.04h-10.24V12.48h20.48V7.12h-20.48V4.2h24V15.4h-20.52v5.76h21.119v2.88h-10.84V30.6h15.719v3.12Zm-37.31,0V30.6h34.96v3.12Zm118.241-1V29.6h10.08V23.04h-4.6V11.48h20.48V6.12h-20.48V3.2h24V14.4h-20.52v5.76h21.119v2.88h-5.2V29.6h10.08v3.12Zm13.48-3.12h8V23.04h-8Zm-314.345.32H54.31V21.88H36.91v-2H72.67v2H56.55v8.04h0ZM396.4,29V27.04h9.48V18.88H398.6V3.52h16.761v2H400.844v11.4h15.241v1.96h-8V27.04h.031a46.666,46.666,0,0,0,5.769-.319c1.791-.186,3.714-.487,5.881-.92l.28,1.92a51.281,51.281,0,0,1-6.4.96,72.272,72.272,0,0,1-7.44.32Zm-46.621-3h-3.52V0h3.521V10.32h6V13.4h-6V26h0ZM546.926,3.52h17v2h-14.76V23.96c3.04,0,6-.08,8.84-.319,2.8-.2,5.56-.52,8.24-.96l.28,1.92a123.315,123.315,0,0,1-19.6,1.32ZM82.181,24.96a8.9,8.9,0,0,1-3.24-2.24,9.115,9.115,0,0,1-2.12-3.36,10.98,10.98,0,0,1-.76-4.2,11.381,11.381,0,0,1,.76-4.24,9.661,9.661,0,0,1,5.36-5.56,10.109,10.109,0,0,1,4.04-.8,10.567,10.567,0,0,1,4.04.8,11.191,11.191,0,0,1,3.2,2.2,12.149,12.149,0,0,1,2.16,3.36,12.211,12.211,0,0,1,.761,4.24,11.9,11.9,0,0,1-.761,4.2,11.059,11.059,0,0,1-2.16,3.36,9.731,9.731,0,0,1-7.24,3.04A9.389,9.389,0,0,1,82.181,24.96Zm.96-17.8a8.1,8.1,0,0,0-2.52,1.8,8.625,8.625,0,0,0-1.68,2.721,9.984,9.984,0,0,0-.6,3.479,9.306,9.306,0,0,0,.6,3.4,7.45,7.45,0,0,0,1.68,2.72,6.492,6.492,0,0,0,2.479,1.8,6.906,6.906,0,0,0,3.16.68,6.818,6.818,0,0,0,3.12-.68,6.976,6.976,0,0,0,2.52-1.8,8.762,8.762,0,0,0,1.64-2.72,10.231,10.231,0,0,0,.56-3.4,9.878,9.878,0,0,0-.6-3.44A9.346,9.346,0,0,0,91.861,9a9.26,9.26,0,0,0-2.48-1.84,7.925,7.925,0,0,0-6.24,0ZM510.815,25.52h0V3.12h2.24V23.56h.049c3.475,0,6.415-.1,8.991-.319,2.845-.2,5.617-.523,8.24-.959l.28,1.92a124.118,124.118,0,0,1-19.8,1.32ZM252.492,23.2a10.613,10.613,0,0,1-3.6-2,9.844,9.844,0,0,1-2.6-3.24,10.177,10.177,0,0,1-1.12-4.36,9.353,9.353,0,0,1,.959-4.28,10.318,10.318,0,0,1,2.48-3.24A11.972,11.972,0,0,1,252.252,4a15.4,15.4,0,0,1,4.4-.8,13.183,13.183,0,0,1,4.28.72A12,12,0,0,1,264.572,6a11.661,11.661,0,0,1,2.6,3.28,10,10,0,0,1,1,4.32,10.37,10.37,0,0,1-.959,4.28,9.908,9.908,0,0,1-2.48,3.2,11.563,11.563,0,0,1-3.64,2.039,14.845,14.845,0,0,1-4.441.8A12.137,12.137,0,0,1,252.492,23.2Zm1.2-16.4a7.887,7.887,0,0,0-2.52,1.48,6.5,6.5,0,0,0-1.76,2.281,6.408,6.408,0,0,0-.72,3.04,6.476,6.476,0,0,0,.64,2.959,5.985,5.985,0,0,0,1.759,2.24,7.191,7.191,0,0,0,2.52,1.44,8.523,8.523,0,0,0,3.04.561,9.471,9.471,0,0,0,3-.481,7.966,7.966,0,0,0,2.52-1.44,7.387,7.387,0,0,0,1.8-2.28,7.269,7.269,0,0,0,.72-3,7.082,7.082,0,0,0-.641-2.96,7.387,7.387,0,0,0-1.72-2.281,8.55,8.55,0,0,0-2.56-1.48,11.6,11.6,0,0,0-3.12-.56A8.978,8.978,0,0,0,253.692,6.8ZM321.384,22.44v-3h8.88v-3.2a7.465,7.465,0,0,1-2.76-.84,6.62,6.62,0,0,1-2.12-1.6,5.891,5.891,0,0,1-1.4-2.24,6.988,6.988,0,0,1-.52-2.8,7.626,7.626,0,0,1,.64-3.24,6.355,6.355,0,0,1,1.8-2.44,8.681,8.681,0,0,1,2.68-1.56A10.853,10.853,0,0,1,331.9,1a11.4,11.4,0,0,1,3.36.52,10.422,10.422,0,0,1,2.68,1.56,7.753,7.753,0,0,1,1.76,2.44,8.385,8.385,0,0,1,.64,3.24,7.74,7.74,0,0,1-.52,2.8,8.109,8.109,0,0,1-1.4,2.281,7.576,7.576,0,0,1-2.16,1.6,6.916,6.916,0,0,1-2.679.8v3.2h.01A46.81,46.81,0,0,0,344.1,18.16c.04.528.08,1,.16,1.48.042.552.082,1.012.16,1.48a59.961,59.961,0,0,1-13.24,1.319Zm8.6-18.32a4.958,4.958,0,0,0-1.641.92,4.312,4.312,0,0,0-1.12,1.56,4.583,4.583,0,0,0-.44,2.12,4.245,4.245,0,0,0,.44,2.12,3.6,3.6,0,0,0,1.12,1.52,3.825,3.825,0,0,0,1.641.88,5.156,5.156,0,0,0,1.959.32,5.628,5.628,0,0,0,2-.32,5.145,5.145,0,0,0,1.64-.92,4.334,4.334,0,0,0,1.08-1.52,5.305,5.305,0,0,0,.4-2.08,5.881,5.881,0,0,0-.4-2.08,5.475,5.475,0,0,0-1.08-1.561,6.087,6.087,0,0,0-1.64-.959,6.746,6.746,0,0,0-2-.32A6.085,6.085,0,0,0,329.984,4.12Zm-135.753,17h-3.519V1h3.52V9.4h6v3.12h-6v8.6h0Zm-35.51,0H155.2V11.96h-7.359V8.84H155.2V1h3.52V21.119h0Zm74.62-.32h-3.518V11.96h-7.359V8.84h7.359V1h3.52V20.8h0Zm-27.878-.2c-.383-.346-.773-.734-1.15-1.11l-.049-.05c-.2-.2-.408-.4-.607-.586s-.4-.376-.593-.574a16.442,16.442,0,0,0,6.6-5.44,15.221,15.221,0,0,0,2.561-7.121h-7.44V2.6h18.8V5.72h-7.52a11.3,11.3,0,0,0,.841,3.84,11.709,11.709,0,0,0,1.92,3.2,13.633,13.633,0,0,0,2.84,2.6,19.144,19.144,0,0,0,3.6,2.12c-.2.2-.409.4-.607.587s-.4.376-.593.573c-.393.393-.8.8-1.2,1.16a20.688,20.688,0,0,1-5.2-3.36,12.182,12.182,0,0,1-3.44-4.521,15.488,15.488,0,0,1-3.44,4.92,20.365,20.365,0,0,1-5.32,3.76Zm-74.621,0c-.383-.346-.773-.734-1.15-1.11l-.049-.05c-.2-.2-.408-.4-.607-.586s-.4-.376-.593-.574a16.442,16.442,0,0,0,6.6-5.44A15.221,15.221,0,0,0,137.6,5.72h-7.44V2.6h18.8V5.72h-7.52a11.3,11.3,0,0,0,.841,3.84,11.732,11.732,0,0,0,1.92,3.2,13.656,13.656,0,0,0,2.84,2.6,19.144,19.144,0,0,0,3.6,2.12c-.2.2-.409.4-.607.587s-.4.376-.593.573c-.393.393-.8.8-1.2,1.16a20.7,20.7,0,0,1-5.2-3.36,12.182,12.182,0,0,1-3.44-4.521,15.488,15.488,0,0,1-3.44,4.92,20.365,20.365,0,0,1-5.32,3.76Zm36.111-.2c-.384-.346-.774-.734-1.15-1.11l-.05-.05c-.2-.2-.407-.4-.606-.586s-.4-.376-.594-.574a22.394,22.394,0,0,0,3.96-2.561,19.186,19.186,0,0,0,2.96-3.08,14.985,14.985,0,0,0,1.92-3.4,10.68,10.68,0,0,0,.64-3.52V2h3.641V5.52a9.151,9.151,0,0,0,.64,3.361,10.489,10.489,0,0,0,1.88,3.2,14.431,14.431,0,0,0,2.96,2.84,17.141,17.141,0,0,0,4,2.36c-.2.2-.4.389-.593.573s-.4.384-.607.587l-.049.05c-.377.376-.767.765-1.151,1.11a17.711,17.711,0,0,1-2.839-1.561,14.586,14.586,0,0,1-2.52-1.88,10.457,10.457,0,0,1-2.04-2.16,8.045,8.045,0,0,1-1.44-2.319,16.323,16.323,0,0,1-3.52,4.919,21.933,21.933,0,0,1-5.439,3.8Zm296.4-.4h-2.239V10.6h-8.24a8.024,8.024,0,0,1-.88,3.2,7.89,7.89,0,0,1-1.959,2.44,7.327,7.327,0,0,1-2.76,1.561,9.12,9.12,0,0,1-3.32.56,10.2,10.2,0,0,1-3.56-.6,7.862,7.862,0,0,1-2.84-1.72,7.009,7.009,0,0,1-1.92-2.72,8.259,8.259,0,0,1-.68-3.52,8.5,8.5,0,0,1,.68-3.52,7.462,7.462,0,0,1,1.92-2.68,8.417,8.417,0,0,1,2.84-1.72,10.2,10.2,0,0,1,3.56-.6,11.152,11.152,0,0,1,3.28.52,9.481,9.481,0,0,1,2.721,1.48,9.014,9.014,0,0,1,1.92,2.32,9.33,9.33,0,0,1,.96,3.04h8.28V0h2.24V20h0Zm-22-16.28a6.573,6.573,0,0,0-2.16,1.32,5.289,5.289,0,0,0-1.44,2.04,6.2,6.2,0,0,0-.56,2.72,6.423,6.423,0,0,0,.52,2.72,5.288,5.288,0,0,0,1.44,2.04,4.953,4.953,0,0,0,2.16,1.319,7.29,7.29,0,0,0,2.679.481,7.394,7.394,0,0,0,2.68-.481,5.946,5.946,0,0,0,2.12-1.319,6.614,6.614,0,0,0,1.4-2.08,7.09,7.09,0,0,0,.481-2.68,7.3,7.3,0,0,0-.52-2.68,7.56,7.56,0,0,0-1.4-2.08,7.236,7.236,0,0,0-2.12-1.32,8.37,8.37,0,0,0-2.641-.44A7.98,7.98,0,0,0,441.355,3.72Zm27.671,16.04V17.8h35.6v1.958h-35.6ZM5.319,17.64h0a7.128,7.128,0,0,1-.759-.8c-.247-.246-.5-.54-.72-.8a14.072,14.072,0,0,0,2.72-.88A18.364,18.364,0,0,0,9.4,13.76a26.528,26.528,0,0,0,2.641-1.88,16.13,16.13,0,0,0,2.2-2.2,10.031,10.031,0,0,0,1.44-2.44,6,6,0,0,0,.44-2.52H5.44V2.76H29.48V4.72H18.8A6.616,6.616,0,0,0,19.84,8.36a11.55,11.55,0,0,0,2.76,3.2,17.158,17.158,0,0,0,3.92,2.6,22.863,22.863,0,0,0,4.559,1.88l-.036.043c-.212.246-.451.524-.684.756-.245.287-.543.583-.76.8a21.7,21.7,0,0,1-3.88-1.519,18.57,18.57,0,0,1-3.48-2.08,17.2,17.2,0,0,1-2.84-2.479,10.019,10.019,0,0,1-1.921-2.72,12.208,12.208,0,0,1-1.96,2.72A18.564,18.564,0,0,1,12.68,14,21.633,21.633,0,0,1,9.2,16.08a24.41,24.41,0,0,1-3.88,1.56Zm61.35-2.36H42.91V2.32H66.67V15.279h0Zm-21.519-2H64.43V4.32H45.15Zm446.355-2.4a10.589,10.589,0,0,1-4.68-4.441,11.333,11.333,0,0,1-4.68,4.4,26.6,26.6,0,0,1-8.28,2.76h0l-.014-.014c-.231-.232-.471-.471-.7-.746a7.155,7.155,0,0,1-.76-.8,26.289,26.289,0,0,0,5.56-1.4,17.7,17.7,0,0,0,4.16-2.16,9.968,9.968,0,0,0,2.641-2.72,5.949,5.949,0,0,0,.879-3V.56h2.361v2.2a5.389,5.389,0,0,0,.92,3.04,8.922,8.922,0,0,0,2.64,2.72,14.379,14.379,0,0,0,4.16,2.12,25.228,25.228,0,0,0,5.521,1.4l-.04.05c-.223.257-.454.525-.68.75l-.522.522-.238.238A24.946,24.946,0,0,1,491.505,10.88Z" fill="url(#linear-gradient)"/>
</svg>
