<svg id="Group" xmlns="http://www.w3.org/2000/svg" xmlns:xlink="http://www.w3.org/1999/xlink" width="186.906" height="81.594" viewBox="0 0 186.906 81.594">
  <defs>
    <linearGradient id="linear-gradient" y1="0.044" x2="1" y2="1.038" gradientUnits="objectBoundingBox">
      <stop offset="0" stop-color="#6e6e6e"/>
      <stop offset="0.241" stop-color="#1b1b1b"/>
      <stop offset="0.471" stop-color="#3c3c3c"/>
      <stop offset="0.733" stop-color="#222"/>
      <stop offset="1" stop-color="#4c4c4c"/>
    </linearGradient>
  </defs>
  <path id="Combined_Shape" data-name="Combined Shape" d="M167.438,80.594V52.82H157.383V46.469h28.523V52.82H175.664V80.594Zm-22.243,0V46.469h8.2V80.594Zm-26.813,0V46.469h22.829V52.82h-14.6v7.852h13.266V67H126.609V80.594Zm-26.859,0V46.469h23.555V52.82H99.75v7.2h12.938v6.117H99.75v8.132h15.281v6.329Zm-13.383,0L66.047,59.36V80.594H57.821V46.469h8.226L78.117,67.7V46.469h8.2V80.594Zm-47.18,0V46.469H54.516V52.82H39.188v7.2H52.125v6.117H39.188v8.132H54.469v6.329ZM0,80.594V46.469H12.258c4.37,0,7.741.812,10.02,2.414a8.067,8.067,0,0,1,3.434,7.008,8.167,8.167,0,0,1-1.219,4.523,7.138,7.138,0,0,1-3.587,2.766,7.226,7.226,0,0,1,4.1,2.624,7.671,7.671,0,0,1,1.43,4.688c0,3.328-1.068,5.864-3.176,7.535s-5.273,2.535-9.41,2.567Zm8.227-6.329h5.39a5.15,5.15,0,0,0,3.422-1.019,3.586,3.586,0,0,0,1.2-2.872,4.4,4.4,0,0,0-1.06-3.2,4.346,4.346,0,0,0-3.181-1.084H8.227Zm0-13.57h4.288a6.143,6.143,0,0,0,3.844-.984,3.5,3.5,0,0,0,1.148-2.837,3.676,3.676,0,0,0-1.242-3.105,6.694,6.694,0,0,0-4.008-.949H8.227ZM94.852,31.829a11.535,11.535,0,0,1-3.657-8.86V.469h8.274V23.133q.14,5.6,5.2,5.6a5.039,5.039,0,0,0,3.867-1.406q1.312-1.407,1.312-4.571V.469h8.227V22.805a12.834,12.834,0,0,1-1.617,6.574,10.479,10.479,0,0,1-4.64,4.231,16.354,16.354,0,0,1-7.149,1.453Q98.438,35.062,94.852,31.829Zm-30.4,1.23a13.723,13.723,0,0,1-5.261-5.73,19.618,19.618,0,0,1-1.981-8.555V16.852A20.3,20.3,0,0,1,59.051,8a13.709,13.709,0,0,1,5.274-5.918,15.608,15.608,0,0,1,15.55-.023,13.96,13.96,0,0,1,5.286,5.871,19.726,19.726,0,0,1,1.91,8.731v1.57a20.221,20.221,0,0,1-1.851,8.836,13.758,13.758,0,0,1-5.262,5.918,14.719,14.719,0,0,1-7.769,2.074A14.927,14.927,0,0,1,64.453,33.059ZM67.412,8.765c-1.085,1.54-1.694,3.883-1.81,6.962l-.023,2.507c0,3.329.56,5.924,1.664,7.711a5.463,5.463,0,0,0,4.946,2.7,5.4,5.4,0,0,0,4.8-2.649c1.12-1.758,1.7-4.321,1.711-7.617V16.8c0-3.376-.572-5.974-1.7-7.723a5.887,5.887,0,0,0-9.592-.317ZM35.086,34.6H26.86V.469h13.43c4.028,0,7.222.907,9.492,2.7A9.173,9.173,0,0,1,53.2,10.781a11.15,11.15,0,0,1-1.442,5.907,10.284,10.284,0,0,1-4.512,3.8l7.125,13.757v.351H45.563L39.54,22.547H35.087V34.594h0Zm0-18.4h5.2a4.7,4.7,0,0,0,3.527-1.23A4.774,4.774,0,0,0,45,11.532a4.823,4.823,0,0,0-1.2-3.457A4.652,4.652,0,0,0,40.289,6.82h-5.2ZM151.8,34.593V26.625l.8-16.312-8.249,24.281h-5.438l-8.274-24.3.8,16.336v7.969h-8.227V.469h10.8l7.618,23.742L149.226.469h10.829V34.593ZM0,34.593V.469H23.555V6.82H8.227v7.2H21.164v6.117H8.227v8.132H23.508v6.328Z" transform="translate(1)" fill="#1e1e1e"/>
  <path id="Combined_Shape-2" data-name="Combined Shape" d="M167.438,80.594V52.82H157.383V46.469h28.523V52.82H175.664V80.594Zm-22.243,0V46.469h8.2V80.594Zm-26.813,0V46.469h22.829V52.82h-14.6v7.852h13.266V67H126.609V80.594Zm-26.859,0V46.469h23.555V52.82H99.75v7.2h12.938v6.117H99.75v8.132h15.281v6.329Zm-13.383,0L66.047,59.36V80.594H57.821V46.469h8.226L78.117,67.7V46.469h8.2V80.594Zm-47.18,0V46.469H54.516V52.82H39.188v7.2H52.125v6.117H39.188v8.132H54.469v6.329ZM0,80.594V46.469H12.258c4.37,0,7.741.812,10.02,2.414a8.067,8.067,0,0,1,3.434,7.008,8.167,8.167,0,0,1-1.219,4.523,7.138,7.138,0,0,1-3.587,2.766,7.226,7.226,0,0,1,4.1,2.624,7.671,7.671,0,0,1,1.43,4.688c0,3.328-1.068,5.864-3.176,7.535s-5.273,2.535-9.41,2.567Zm8.227-6.329h5.39a5.15,5.15,0,0,0,3.422-1.019,3.586,3.586,0,0,0,1.2-2.872,4.4,4.4,0,0,0-1.06-3.2,4.346,4.346,0,0,0-3.181-1.084H8.227Zm0-13.57h4.288a6.143,6.143,0,0,0,3.844-.984,3.5,3.5,0,0,0,1.148-2.837,3.676,3.676,0,0,0-1.242-3.105,6.694,6.694,0,0,0-4.008-.949H8.227ZM94.852,31.829a11.535,11.535,0,0,1-3.657-8.86V.469h8.274V23.133q.14,5.6,5.2,5.6a5.039,5.039,0,0,0,3.867-1.406q1.312-1.407,1.312-4.571V.469h8.227V22.805a12.834,12.834,0,0,1-1.617,6.574,10.479,10.479,0,0,1-4.64,4.231,16.354,16.354,0,0,1-7.149,1.453Q98.438,35.062,94.852,31.829Zm-30.4,1.23a13.723,13.723,0,0,1-5.261-5.73,19.618,19.618,0,0,1-1.981-8.555V16.852A20.3,20.3,0,0,1,59.051,8a13.709,13.709,0,0,1,5.274-5.918,15.608,15.608,0,0,1,15.55-.023,13.96,13.96,0,0,1,5.286,5.871,19.726,19.726,0,0,1,1.91,8.731v1.57a20.221,20.221,0,0,1-1.851,8.836,13.758,13.758,0,0,1-5.262,5.918,14.719,14.719,0,0,1-7.769,2.074A14.927,14.927,0,0,1,64.453,33.059ZM67.412,8.765c-1.085,1.54-1.694,3.883-1.81,6.962l-.023,2.507c0,3.329.56,5.924,1.664,7.711a5.463,5.463,0,0,0,4.946,2.7,5.4,5.4,0,0,0,4.8-2.649c1.12-1.758,1.7-4.321,1.711-7.617V16.8c0-3.376-.572-5.974-1.7-7.723a5.887,5.887,0,0,0-9.592-.317ZM35.086,34.6H26.86V.469h13.43c4.028,0,7.222.907,9.492,2.7A9.173,9.173,0,0,1,53.2,10.781a11.15,11.15,0,0,1-1.442,5.907,10.284,10.284,0,0,1-4.512,3.8l7.125,13.757v.351H45.563L39.54,22.547H35.087V34.594h0Zm0-18.4h5.2a4.7,4.7,0,0,0,3.527-1.23A4.774,4.774,0,0,0,45,11.532a4.823,4.823,0,0,0-1.2-3.457A4.652,4.652,0,0,0,40.289,6.82h-5.2ZM151.8,34.593V26.625l.8-16.312-8.249,24.281h-5.438l-8.274-24.3.8,16.336v7.969h-8.227V.469h10.8l7.618,23.742L149.226.469h10.829V34.593ZM0,34.593V.469H23.555V6.82H8.227v7.2H21.164v6.117H8.227v8.132H23.508v6.328Z" transform="translate(0 1)" fill="url(#linear-gradient)"/>
</svg>
