<svg width="199" height="171" viewBox="0 0 199 171" fill="none" xmlns="http://www.w3.org/2000/svg">
<g clip-path="url(#clip0_1188_6816)">
<path d="M0 91C0 46.8172 35.8172 11 80 11H83.7209C127.904 11 163.721 46.8172 163.721 91C163.721 135.183 127.904 171 83.7209 171H80C35.8173 171 0 135.183 0 91Z" fill="#FAFAFA"/>
<g clip-path="url(#clip1_1188_6816)">
<path d="M163.715 11H0V171H163.715V11Z" fill="white"/>
<path d="M127.489 100.058H101.479V168.439H127.489V100.058Z" fill="#DACDC9"/>
<path d="M163.715 139.072L133.48 123.775V100.058H163.715V139.072Z" fill="#7FBD8E"/>
<path d="M94.8658 100.058H68.855V168.439H94.8658V100.058Z" fill="#DACDC9"/>
<path d="M62.9778 168.445H0V106.76L62.9778 130.199V168.445Z" fill="#E9E1DF"/>
<path d="M62.9775 122.151L36.9604 112.48V77.9713H62.9775V122.151Z" fill="#DACDC9"/>
<path d="M120.971 68.0291L68.855 77.9712V93.2747H120.971V68.0291Z" fill="#DACDC9"/>
<path d="M120.971 68.0291L68.855 77.9712V93.2747H120.971V68.0291Z" fill="#E9E1DF"/>
<path d="M68.8485 57.5773H36.9604V71.553H68.8485V57.5773Z" fill="#DACDC9"/>
<path d="M56.786 31.7213H36.9604V51.5679H56.786V31.7213Z" fill="#E9E1DF"/>
<path d="M29.6629 11H0V51.5742H29.6629V11Z" fill="#DACDC9"/>
<path d="M74.6566 11H36.9604V25.951H56.7923L74.6566 11Z" fill="#E9E1DF"/>
<path d="M95.3438 11V51.5742H62.1357V30.0915L84.7459 11H95.3438Z" fill="#7FBD8E"/>
<path d="M95.3435 66.6448L75.4614 70.4958V57.5773H95.3435V66.6448Z" fill="#DACDC9"/>
<path d="M126.76 61.0633L101.089 65.896V34.8361H126.76V61.0633Z" fill="#DACDC9"/>
<path d="M126.754 11H101.089V28.5058H126.754V11Z" fill="#DACDC9"/>
<path d="M123.133 138.851H105.841V151.701H123.133V138.851Z" fill="#E6E6E6"/>
<path d="M123.133 121.742H105.841V134.591H123.133V121.742Z" fill="#E6E6E6"/>
<path d="M123.133 105.193H105.841V118.042H123.133V105.193Z" fill="#E6E6E6"/>
<path d="M163.715 68.0291H139.363C132.399 68.0291 126.754 73.6797 126.754 80.6519C126.754 87.624 132.399 93.2747 139.363 93.2747H163.715V68.0291Z" fill="#DACDC9"/>
<path d="M163.721 168.445H133.48V129.841L163.721 145.257V168.445Z" fill="#DACDC9"/>
<path d="M163.715 11H142.443V60.7235H163.715V11Z" fill="#E9E1DF"/>
<path d="M61.4442 126.808C61.4442 129.381 56.7926 136.643 56.7926 136.643C56.7926 136.643 52.1411 129.381 52.1411 126.808C52.1411 124.234 54.2217 122.151 56.7926 122.151C59.3635 122.151 61.4442 124.234 61.4442 126.808Z" fill="#E44E68"/>
<path d="M56.7927 128.45C57.7926 128.45 58.6031 127.639 58.6031 126.638C58.6031 125.637 57.7926 124.825 56.7927 124.825C55.7929 124.825 54.9824 125.637 54.9824 126.638C54.9824 127.639 55.7929 128.45 56.7927 128.45Z" fill="white"/>
<path d="M56.793 136.643H57.4216" stroke="#E44E68" stroke-width="2.7907" stroke-linecap="round" stroke-linejoin="round"/>
<path fill-rule="evenodd" clip-rule="evenodd" d="M135.875 13.9324C135.875 13.1618 135.25 12.537 134.48 12.537C133.709 12.537 133.084 13.1618 133.084 13.9324V14.5616C133.084 15.0438 133.329 15.4688 133.701 15.7195C133.329 15.9701 133.084 16.3951 133.084 16.8773V26.4671C133.084 27.2377 133.709 27.8624 134.48 27.8624C135.25 27.8624 135.875 27.2377 135.875 26.4671V16.8773C135.875 16.3951 135.631 15.9701 135.259 15.7195C135.631 15.4688 135.875 15.0438 135.875 14.5616V13.9324ZM114.866 65.8441C114.858 65.0735 114.227 64.455 113.456 64.4627C112.849 64.4688 112.336 64.862 112.15 65.4055C112.066 65.4552 111.988 65.5133 111.917 65.5783C111.671 65.4708 111.391 65.4334 111.106 65.4861L67.2452 73.6281C67.1237 73.6506 67.0089 73.6882 66.9022 73.7387C66.6691 73.6545 66.4107 73.6313 66.15 73.6845L65.534 73.8104C64.8845 73.9431 64.418 74.5145 64.418 75.1775V75.8068C64.418 76.2452 64.6202 76.6365 64.9365 76.8923C64.6202 77.1481 64.418 77.5393 64.418 77.9777V135.477C64.3898 135.495 64.3624 135.515 64.3358 135.535C64.1007 135.355 63.8065 135.248 63.4872 135.248H60.8158C60.0451 135.248 59.4204 135.872 59.4204 136.643C59.4204 137.414 60.0451 138.038 60.8158 138.038H63.4872C63.8065 138.038 64.1007 137.931 64.3359 137.751C64.571 137.931 64.8652 138.038 65.1844 138.038H65.813C66.5836 138.038 67.2083 137.413 67.2083 136.643V136.014C67.2083 135.926 67.2003 135.841 67.1849 135.758C67.2005 135.674 67.2087 135.588 67.2087 135.5V77.9777C67.2087 77.5393 67.0064 77.1481 66.6901 76.8923C66.8707 76.7462 67.0141 76.5561 67.1039 76.3383C67.3085 76.399 67.5302 76.4135 67.7545 76.3719L111.616 68.23C111.883 68.1804 112.118 68.0577 112.304 67.8865C112.554 67.9955 112.839 68.0325 113.127 67.9766L113.743 67.857C114.404 67.7287 114.879 67.1467 114.872 66.4733L114.866 65.8441Z" fill="#E44E68"/>
<path d="M0 57.5773H29.6629V108.018L0 97.3208V57.5773Z" fill="#E9E1DF"/>
</g>
</g>
<g filter="url(#filter0_dd_1188_6816)">
<path d="M170.907 8.85791H125.814C119.196 8.85791 113.86 14.2533 113.86 20.9456V66.8579L125.608 54.9778C125.608 54.9778 125.711 54.9778 125.814 54.9778H170.907C177.474 54.9778 182.86 49.5824 182.86 42.8901V20.9456C182.86 14.3051 177.525 8.85791 170.907 8.85791Z" fill="white"/>
<path d="M166.29 30.2318L150.695 17.9366C149.207 16.7434 146.745 16.7434 145.257 17.9366L129.661 30.2318C128.174 31.425 128.481 32.3588 130.38 32.3588H133.406V49.3231H162.545V32.3588H165.572C167.47 32.3588 167.778 31.3731 166.29 30.2318ZM146.437 44.4984C146.437 44.9134 146.129 45.2247 145.719 45.2247C145.308 45.2247 145 44.9134 145 44.4984V36.8204C145 35.9903 144.487 35.3159 143.872 35.3159C143.256 35.3159 142.743 35.9903 142.743 36.7685V36.8722V37.6504C142.743 38.0655 142.435 38.3767 142.025 38.3767C141.614 38.3767 141.307 38.0655 141.307 37.6504V36.7166C141.307 35.1084 142.487 33.7595 143.923 33.7595C145.359 33.7595 146.539 35.1084 146.539 36.7166V44.4984H146.437ZM144.077 28.7273C144.077 27.0154 145.411 25.6665 147.104 25.6665C148.797 25.6665 150.13 27.0154 150.13 28.7273C150.13 30.4393 148.797 31.7882 147.104 31.7882C145.411 31.7882 144.077 30.4393 144.077 28.7273ZM153.773 45.7953C153.722 46.2104 153.311 46.5216 152.901 46.5216H150.643C150.182 46.5216 149.874 46.1585 149.874 45.7434V41.5932C149.874 41.5932 149.874 41.1263 149.823 40.9188C149.771 40.7112 149.207 39.4143 147.822 36.8204C146.95 35.2121 147.104 33.9671 147.412 33.2926C147.668 32.5663 148.13 32.2032 148.284 32.0994C148.591 31.7882 149.412 31.5807 149.669 31.5288C151.003 31.3213 152.08 31.7363 152.849 32.722C155.62 36.0941 153.875 45.4841 153.773 45.8991V45.7953Z" fill="#1E40AF"/>
</g>
<defs>
<filter id="filter0_dd_1188_6816" x="97.8604" y="0.85791" width="101" height="90" filterUnits="userSpaceOnUse" color-interpolation-filters="sRGB">
<feFlood flood-opacity="0" result="BackgroundImageFix"/>
<feColorMatrix in="SourceAlpha" type="matrix" values="0 0 0 0 0 0 0 0 0 0 0 0 0 0 0 0 0 0 127 0" result="hardAlpha"/>
<feOffset/>
<feGaussianBlur stdDeviation="4"/>
<feComposite in2="hardAlpha" operator="out"/>
<feColorMatrix type="matrix" values="0 0 0 0 0 0 0 0 0 0 0 0 0 0 0 0 0 0 0.12 0"/>
<feBlend mode="normal" in2="BackgroundImageFix" result="effect1_dropShadow_1188_6816"/>
<feColorMatrix in="SourceAlpha" type="matrix" values="0 0 0 0 0 0 0 0 0 0 0 0 0 0 0 0 0 0 127 0" result="hardAlpha"/>
<feOffset dy="8"/>
<feGaussianBlur stdDeviation="8"/>
<feComposite in2="hardAlpha" operator="out"/>
<feColorMatrix type="matrix" values="0 0 0 0 0 0 0 0 0 0 0 0 0 0 0 0 0 0 0.12 0"/>
<feBlend mode="normal" in2="effect1_dropShadow_1188_6816" result="effect2_dropShadow_1188_6816"/>
<feBlend mode="normal" in="SourceGraphic" in2="effect2_dropShadow_1188_6816" result="shape"/>
</filter>
<clipPath id="clip0_1188_6816">
<path d="M0 91C0 46.8172 35.8172 11 80 11H83.7209C127.904 11 163.721 46.8172 163.721 91C163.721 135.183 127.904 171 83.7209 171H80C35.8173 171 0 135.183 0 91Z" fill="white"/>
</clipPath>
<clipPath id="clip1_1188_6816">
<rect width="163.721" height="160" fill="white" transform="translate(0 11)"/>
</clipPath>
</defs>
</svg>
