<svg width="182" height="160" viewBox="0 0 182 160" fill="none" xmlns="http://www.w3.org/2000/svg">
<g clip-path="url(#clip0_1188_6671)">
<path d="M0 80C0 35.8172 35.8172 0 80 0H83.7209C127.904 0 163.721 35.8172 163.721 80C163.721 124.183 127.904 160 83.7209 160H80C35.8173 160 0 124.183 0 80Z" fill="#FAFAFA"/>
<g clip-path="url(#clip1_1188_6671)">
<path d="M163.715 0H0V160H163.715V0Z" fill="white"/>
<path d="M127.489 89.058H101.479V157.439H127.489V89.058Z" fill="#DACDC9"/>
<path d="M163.715 128.072L133.48 112.775V89.058H163.715V128.072Z" fill="#7FBD8E"/>
<path d="M94.8658 89.058H68.855V157.439H94.8658V89.058Z" fill="#DACDC9"/>
<path d="M62.9778 157.445H0V95.7596L62.9778 119.199V157.445Z" fill="#E9E1DF"/>
<path d="M62.9775 111.151L36.9604 101.48V66.9713H62.9775V111.151Z" fill="#DACDC9"/>
<path d="M120.971 57.0291L68.855 66.9712V82.2747H120.971V57.0291Z" fill="#DACDC9"/>
<path d="M120.971 57.0291L68.855 66.9712V82.2747H120.971V57.0291Z" fill="#E9E1DF"/>
<path d="M68.8485 46.5773H36.9604V60.553H68.8485V46.5773Z" fill="#DACDC9"/>
<path d="M56.786 20.7213H36.9604V40.5679H56.786V20.7213Z" fill="#E9E1DF"/>
<path d="M29.6629 0H0V40.5742H29.6629V0Z" fill="#DACDC9"/>
<path d="M74.6566 0H36.9604V14.951H56.7923L74.6566 0Z" fill="#E9E1DF"/>
<path d="M95.3438 0V40.5742H62.1357V19.0915L84.7459 0H95.3438Z" fill="#7FBD8E"/>
<path d="M95.3435 55.6448L75.4614 59.4958V46.5773H95.3435V55.6448Z" fill="#DACDC9"/>
<path d="M126.76 50.0633L101.089 54.896V23.8361H126.76V50.0633Z" fill="#DACDC9"/>
<path d="M126.754 0H101.089V17.5058H126.754V0Z" fill="#DACDC9"/>
<path d="M123.133 127.851H105.841V140.701H123.133V127.851Z" fill="#E6E6E6"/>
<path d="M123.133 110.742H105.841V123.591H123.133V110.742Z" fill="#E6E6E6"/>
<path d="M123.133 94.1927H105.841V107.042H123.133V94.1927Z" fill="#E6E6E6"/>
<path d="M163.715 57.0291H139.363C132.399 57.0291 126.754 62.6797 126.754 69.6519C126.754 76.624 132.399 82.2747 139.363 82.2747H163.715V57.0291Z" fill="#DACDC9"/>
<path d="M163.721 157.445H133.48V118.841L163.721 134.257V157.445Z" fill="#DACDC9"/>
<path d="M163.715 0H142.443V49.7235H163.715V0Z" fill="#E9E1DF"/>
<path d="M61.4442 115.808C61.4442 118.381 56.7926 125.643 56.7926 125.643C56.7926 125.643 52.1411 118.381 52.1411 115.808C52.1411 113.234 54.2217 111.151 56.7926 111.151C59.3635 111.151 61.4442 113.234 61.4442 115.808Z" fill="#E44E68"/>
<path d="M56.7927 117.45C57.7926 117.45 58.6031 116.639 58.6031 115.638C58.6031 114.637 57.7926 113.825 56.7927 113.825C55.7929 113.825 54.9824 114.637 54.9824 115.638C54.9824 116.639 55.7929 117.45 56.7927 117.45Z" fill="white"/>
<path d="M56.793 125.643H57.4216" stroke="#E44E68" stroke-width="2.7907" stroke-linecap="round" stroke-linejoin="round"/>
<path fill-rule="evenodd" clip-rule="evenodd" d="M135.875 2.9324C135.875 2.16177 135.25 1.53705 134.48 1.53705C133.709 1.53705 133.084 2.16177 133.084 2.9324V3.56165C133.084 4.04379 133.329 4.46881 133.701 4.71947C133.329 4.97012 133.084 5.39514 133.084 5.87728V15.4671C133.084 16.2377 133.709 16.8624 134.48 16.8624C135.25 16.8624 135.875 16.2377 135.875 15.4671V5.87728C135.875 5.39514 135.631 4.97012 135.259 4.71947C135.631 4.46881 135.875 4.04379 135.875 3.56165V2.9324ZM114.866 54.8441C114.858 54.0735 114.227 53.455 113.456 53.4627C112.849 53.4688 112.336 53.862 112.15 54.4055C112.066 54.4552 111.988 54.5133 111.917 54.5783C111.671 54.4708 111.391 54.4334 111.106 54.4861L67.2452 62.6281C67.1237 62.6506 67.0089 62.6882 66.9022 62.7387C66.6691 62.6545 66.4107 62.6313 66.15 62.6845L65.534 62.8104C64.8845 62.9431 64.418 63.5145 64.418 64.1775V64.8068C64.418 65.2452 64.6202 65.6365 64.9365 65.8923C64.6202 66.1481 64.418 66.5393 64.418 66.9777V124.477C64.3898 124.495 64.3624 124.515 64.3358 124.535C64.1007 124.355 63.8065 124.248 63.4872 124.248H60.8158C60.0451 124.248 59.4204 124.872 59.4204 125.643C59.4204 126.414 60.0451 127.038 60.8158 127.038H63.4872C63.8065 127.038 64.1007 126.931 64.3359 126.751C64.571 126.931 64.8652 127.038 65.1844 127.038H65.813C66.5836 127.038 67.2083 126.413 67.2083 125.643V125.014C67.2083 124.926 67.2003 124.841 67.1849 124.758C67.2005 124.674 67.2087 124.588 67.2087 124.5V66.9777C67.2087 66.5393 67.0064 66.1481 66.6901 65.8923C66.8707 65.7462 67.0141 65.5561 67.1039 65.3383C67.3085 65.399 67.5302 65.4135 67.7545 65.3719L111.616 57.23C111.883 57.1804 112.118 57.0577 112.304 56.8865C112.554 56.9955 112.839 57.0325 113.127 56.9766L113.743 56.857C114.404 56.7287 114.879 56.1467 114.872 55.4733L114.866 54.8441Z" fill="#E44E68"/>
<path d="M0 46.5773H29.6629V97.0181L0 86.3208V46.5773Z" fill="#E9E1DF"/>
</g>
</g>
<defs>
<clipPath id="clip0_1188_6671">
<path d="M0 80C0 35.8172 35.8172 0 80 0H83.7209C127.904 0 163.721 35.8172 163.721 80C163.721 124.183 127.904 160 83.7209 160H80C35.8173 160 0 124.183 0 80Z" fill="white"/>
</clipPath>
<clipPath id="clip1_1188_6671">
<rect width="163.721" height="160" fill="white"/>
</clipPath>
</defs>
</svg>
