<svg width="182" height="160" viewBox="0 0 182 160" fill="none" xmlns="http://www.w3.org/2000/svg">
<g clip-path="url(#clip0_1188_6674)">
<path d="M0 80C0 35.8172 35.8172 0 80 0H83.7209C127.904 0 163.721 35.8172 163.721 80C163.721 124.183 127.904 160 83.7209 160H80C35.8173 160 0 124.183 0 80Z" fill="#FAFAFA"/>
<g clip-path="url(#clip1_1188_6674)">
<path d="M163.715 0H0V160H163.715V0Z" fill="white"/>
<path d="M127.489 89.058H101.479V157.439H127.489V89.058Z" fill="#DACDC9"/>
<path d="M163.715 128.072L133.48 112.775V89.058H163.715V128.072Z" fill="#7FBD8E"/>
<path d="M94.866 89.058H68.8552V157.439H94.866V89.058Z" fill="#DACDC9"/>
<path d="M62.9778 157.445H0V95.7596L62.9778 119.199V157.445Z" fill="#E9E1DF"/>
<path d="M62.9778 111.151L36.9607 101.48V66.9713H62.9778V111.151Z" fill="#DACDC9"/>
<path d="M120.971 57.0291L68.8552 66.9712V82.2747H120.971V57.0291Z" fill="#DACDC9"/>
<path d="M120.971 57.0291L68.8552 66.9712V82.2747H120.971V57.0291Z" fill="#E9E1DF"/>
<path d="M68.8487 46.5773H36.9607V60.553H68.8487V46.5773Z" fill="#DACDC9"/>
<path d="M56.7862 20.7213H36.9607V40.5679H56.7862V20.7213Z" fill="#E9E1DF"/>
<path d="M29.6629 0H0V40.5742H29.6629V0Z" fill="#DACDC9"/>
<path d="M74.6569 0H36.9607V14.951H56.7925L74.6569 0Z" fill="#E9E1DF"/>
<path d="M95.3436 0V40.5742H62.1355V19.0915L84.7457 0H95.3436Z" fill="#7FBD8E"/>
<path d="M95.3435 55.6448L75.4614 59.4958V46.5773H95.3435V55.6448Z" fill="#DACDC9"/>
<path d="M126.76 50.0633L101.089 54.896V23.8361H126.76V50.0633Z" fill="#DACDC9"/>
<path d="M126.754 0H101.089V17.5058H126.754V0Z" fill="#DACDC9"/>
<path d="M123.133 127.851H105.841V140.701H123.133V127.851Z" fill="#E6E6E6"/>
<path d="M123.133 110.742H105.841V123.591H123.133V110.742Z" fill="#E6E6E6"/>
<path d="M123.133 94.1927H105.841V107.042H123.133V94.1927Z" fill="#E6E6E6"/>
<path d="M163.715 57.0291H139.363C132.399 57.0291 126.754 62.6797 126.754 69.6519C126.754 76.624 132.399 82.2747 139.363 82.2747H163.715V57.0291Z" fill="#DACDC9"/>
<path d="M163.721 157.445H133.48V118.841L163.721 134.257V157.445Z" fill="#DACDC9"/>
<path d="M163.715 0H142.443V49.7235H163.715V0Z" fill="#E9E1DF"/>
<path d="M61.4439 115.808C61.4439 118.381 56.7924 125.643 56.7924 125.643C56.7924 125.643 52.1409 118.381 52.1409 115.808C52.1409 113.234 54.2215 111.151 56.7924 111.151C59.3633 111.151 61.4439 113.234 61.4439 115.808Z" fill="#E44E68"/>
<path d="M56.7925 117.45C57.7923 117.45 58.6028 116.639 58.6028 115.638C58.6028 114.637 57.7923 113.825 56.7925 113.825C55.7927 113.825 54.9822 114.637 54.9822 115.638C54.9822 116.639 55.7927 117.45 56.7925 117.45Z" fill="white"/>
<path d="M56.7925 125.643H57.4211" stroke="#E44E68" stroke-width="2.7907" stroke-linecap="round" stroke-linejoin="round"/>
<path d="M134.479 15.4671V5.87732" stroke="#E44E68" stroke-width="2.7907" stroke-linecap="round" stroke-linejoin="round"/>
<path d="M134.479 3.56169V2.93243" stroke="#E44E68" stroke-width="2.7907" stroke-linecap="round" stroke-linejoin="round"/>
<path d="M0 46.5773H29.6629V97.0181L0 86.3208V46.5773Z" fill="#E9E1DF"/>
</g>
</g>
<defs>
<clipPath id="clip0_1188_6674">
<path d="M0 80C0 35.8172 35.8172 0 80 0H83.7209C127.904 0 163.721 35.8172 163.721 80C163.721 124.183 127.904 160 83.7209 160H80C35.8173 160 0 124.183 0 80Z" fill="white"/>
</clipPath>
<clipPath id="clip1_1188_6674">
<rect width="163.721" height="160" fill="white"/>
</clipPath>
</defs>
</svg>
