<?xml version="1.0" encoding="UTF-8"?>
<svg width="40px" height="33px" viewBox="0 0 40 33" version="1.1" xmlns="http://www.w3.org/2000/svg" xmlns:xlink="http://www.w3.org/1999/xlink">
    <title>Shape</title>
    <g id="intro" stroke="none" stroke-width="1" fill="none" fill-rule="evenodd">
        <g id="manager_dashboard-copy" transform="translate(-614.000000, -872.000000)" fill="#1C1C1C" fill-rule="nonzero">
            <g id="Group-3" transform="translate(118.000000, 854.000000)">
                <path d="M500.425,40.085 C499.033333,41.5716667 497.855,42.015 496,41.5183333 L500.411667,49.16 C500.84,47.3366667 501.77,46.3133333 503.753333,45.8516667 L529.333333,39.6316667 L518.775,21.345 L500.425,40.085 L500.425,40.085 Z M519.291667,44.5966667 L518.513333,48.1266667 C518.356667,48.7566667 517.861667,49.25 517.231667,49.4116667 L512.311667,50.7016667 C511.703333,50.86 511.056667,50.6816667 510.615,50.235 L507.991667,47.3816667 L510.666667,46.7233333 L511.743333,48.0066667 C512.036667,48.3016667 512.463333,48.42 512.866667,48.3166667 L515.53,47.6083333 C515.95,47.5016667 516.278333,47.1733333 516.381667,46.755 L516.651667,45.245 L519.291667,44.5966667 Z M533.823333,25.8183333 L529.35,28.5066667 L528.09,26.4033333 L532.566667,23.7166667 L533.823333,25.8183333 Z M526.496667,23.8833333 L524.271667,22.8566667 L526.508333,18 L528.733333,19.0283333 L526.496667,23.8833333 Z M535.861667,34.145 L530.525,33.855 L530.66,31.4066667 L536,31.6983333 L535.861667,34.145 L535.861667,34.145 Z" id="Shape"></path>
            </g>
        </g>
    </g>
</svg>