<?xml version="1.0" encoding="UTF-8"?>
<svg width="17px" height="32px" viewBox="0 0 17 32" version="1.1" xmlns="http://www.w3.org/2000/svg" xmlns:xlink="http://www.w3.org/1999/xlink">
    <title>icon_mobile</title>
    <g id="style_guide" stroke="none" stroke-width="1" fill="none" fill-rule="evenodd">
        <g transform="translate(-163.000000, -1657.000000)" fill="#1C1C1C" id="Group-10">
            <g transform="translate(163.000000, 1657.000000)">
                <path d="M13.3947942,0 C14.7755061,-3.59581795e-16 15.8947942,1.11928813 15.8947942,2.5 L15.8947942,3.36058918 C15.7258472,3.3276919 15.6413737,3.3276919 15.6413737,3.36058918 C15.6413737,3.38144586 15.5734657,3.51325843 15.6413737,3.57533981 C15.6675093,3.59923292 15.7519828,3.61182769 15.8947942,3.61312412 L15.8947942,7.50409571 L16.040249,7.50409571 L16.040249,11.1030507 L15.8947942,11.2370669 L15.8947942,28.500878 L15.6413737,28.500878 L15.6413737,28.7362919 L15.8947942,28.7362919 L15.8947942,29.389953 C15.8947942,30.7706649 14.7755061,31.889953 13.3947942,31.889953 L2.67652355,31.889953 C1.29581167,31.889953 0.176523548,30.7706649 0.176523548,29.389953 L0.176523548,28.7847769 L0.504922288,28.7362919 L0.504922288,28.4808789 L0.176523548,28.4808789 L0.176523548,11.829144 L0,11.829144 L0,9.73905208 L0.176523548,9.73905208 L0.176523548,9.05753245 L0,8.92285207 L0,6.89939924 L0.176523548,6.75527278 L0.176523548,5.61510188 L0,5.49311466 L0,4.77122781 L0.176523548,4.6519711 L0.176523548,3.57533981 L0.504922288,3.57533981 L0.504922288,3.33136538 L0.176523548,3.33136538 L0.176523548,2.5 C0.176523548,1.11928813 1.29581167,6.97721867e-16 2.67652355,0 L13.3947942,0 Z M3.75592937,1.45714841 L2.83735347,1.45714841 C2.11938332,1.45714841 1.53735352,2.03917822 1.53735352,2.75714837 L1.53735352,2.75714837 L1.53735352,29.1519043 C1.53735352,29.8698745 2.11938332,30.4519043 2.83735347,30.4519043 L2.83735347,30.4519043 L13.2650635,30.4519043 C13.9830337,30.4519043 14.5650635,29.8698745 14.5650635,29.1519043 L14.5650635,29.1519043 L14.5650635,2.75706688 C14.5650635,2.03914173 13.9830702,1.45714841 13.265145,1.45714841 L13.265145,1.45714841 L12.4167861,1.45714841 C12.1673967,1.45714841 11.9652266,1.65931852 11.9652266,1.90870799 L11.9652266,1.90870799 L11.9587389,2.00514262 C11.9116803,2.35202448 11.6143377,2.61938477 11.2545498,2.61938477 L11.2545498,2.61938477 L4.91816572,2.61938477 C4.52566977,2.61938477 4.20748894,2.30120393 4.20748894,1.90870799 L4.20748894,1.90870799 L4.20021371,1.82753958 C4.16197929,1.61688776 3.97760889,1.45714841 3.75592937,1.45714841 L3.75592937,1.45714841 Z M6.00841346,11.46875 L8.19981971,17.65625 L10.3795072,11.46875 L12.688101,11.46875 L12.688101,20 L10.9244291,20 L10.9244291,17.6679688 L11.1002103,13.6425781 L8.79747596,20 L7.59044471,20 L5.29356971,13.6484375 L5.46935096,17.6679688 L5.46935096,20 L3.71153846,20 L3.71153846,11.46875 L6.00841346,11.46875 Z M8.69039004,1.05796053 L6.7256062,1.05796053 C6.60040003,1.05796053 6.49890037,1.15946018 6.49890037,1.28466635 C6.49890037,1.40987252 6.60040003,1.51137218 6.7256062,1.51137218 L6.7256062,1.51137218 L8.69039004,1.51137218 C8.81559621,1.51137218 8.91709586,1.40987252 8.91709586,1.28466635 C8.91709586,1.15946018 8.81559621,1.05796053 8.69039004,1.05796053 L8.69039004,1.05796053 Z M9.44607613,1.05796053 C9.32086995,1.05796053 9.2193703,1.15946018 9.2193703,1.28466635 C9.2193703,1.40987252 9.32086995,1.51137218 9.44607613,1.51137218 C9.5712823,1.51137218 9.67278195,1.40987252 9.67278195,1.28466635 C9.67278195,1.15946018 9.5712823,1.05796053 9.44607613,1.05796053 Z" id="icon_mobile"></path>
            </g>
        </g>
    </g>
</svg>