<svg xmlns="http://www.w3.org/2000/svg" width="44" height="44.209" viewBox="0 0 44 44.209">
  <path id="Combined_Shape" data-name="Combined Shape" d="M34.066,42.515a4.43,4.43,0,0,0-3.169-.388,21.988,21.988,0,1,1,10.844-10.4h0a16.431,16.431,0,0,1-1.063,1.961c-.8,1.329-.311,3.558-.129,4.367.675,2.977.7,4.939,0,5.709a1.662,1.662,0,0,1-1.292.452A13.642,13.642,0,0,1,34.066,42.515Z" fill="#fff"/>
  <path id="Combined_Shape-2" data-name="Combined Shape" d="M3.2,23.585a6.775,6.775,0,0,1-1.832-5.111,6.884,6.884,0,0,1,13.748.46h0a6.77,6.77,0,0,1-1.848,4.649.764.764,0,0,1-.734.219l-.022-.005a.749.749,0,0,1-.507-.423,4.1,4.1,0,0,0-2.342-2.187.33.33,0,0,1-.05-.6,2.737,2.737,0,0,0-2.142-5,2.676,2.676,0,0,0-1.878,1.841,2.738,2.738,0,0,0,1.278,3.165.325.325,0,0,1-.053.59,4.125,4.125,0,0,0-2.353,2.19.744.744,0,0,1-.51.423L3.93,23.8a.755.755,0,0,1-.18.022A.747.747,0,0,1,3.2,23.585Zm23.107.186a1.466,1.466,0,0,1-1.166-.579L20.2,16.646v5.67a1.461,1.461,0,0,1-2.922,0V13.576a1.459,1.459,0,0,1,1.461-1.457h.733a1.463,1.463,0,0,1,1.166.58l4.945,6.547V13.576a1.462,1.462,0,0,1,2.923,0v8.739a1.46,1.46,0,0,1-1.462,1.456ZM22.622,10.5a.784.784,0,0,1-.533-.171l-.013-.01a.315.315,0,0,1-.045-.04.89.89,0,0,1-.194-.608V7.947a.269.269,0,0,1,0-.037.269.269,0,0,0,0-.037.85.85,0,0,1,.187-.531.335.335,0,0,1,.041-.039l.016-.013a.792.792,0,0,1,.533-.169h1.83V6.44H21.114a.6.6,0,1,1,0-1.2h8.265l.013,0a.6.6,0,1,1,0,1.2H25.977v.681H27.8a.749.749,0,0,1,.593.22.891.891,0,0,1,.194.608v1.77a.876.876,0,0,1-.191.564.242.242,0,0,1-.041.033l-.02.016a.77.77,0,0,1-.534.171Zm.891-1.2H27.1V8.321H23.339v.792c0,.082.014.13.044.154h0A.218.218,0,0,0,23.513,9.3ZM6.85,9.563a.168.168,0,0,1,0-.031V.825l0,0a.764.764,0,0,1,1.528,0V9.519a.773.773,0,0,1-.764.761A.757.757,0,0,1,6.85,9.563Zm4.038-.886a.645.645,0,1,1,0-1.29h3.275V6.4H12.329a1.042,1.042,0,0,1-.284-.041.6.6,0,0,1-.309-.18.876.876,0,0,1-.194-.6v-1.7a.879.879,0,0,1,.194-.6.635.635,0,0,1,.309-.181,1.125,1.125,0,0,1,.274-.037h4.451V2.135H12.142a.612.612,0,1,1,0-1.223h5.587c.026,0,.047.01.073.01a.534.534,0,0,1,.309.117.464.464,0,0,1,.138.365v2.04a.9.9,0,0,1-.194.6.755.755,0,0,1-.593.22H13.017v.7a.211.211,0,0,0,.043.16.194.194,0,0,0,.134.04H17.94a.129.129,0,0,1,.037,0,.61.61,0,0,1,.1,1.212.583.583,0,0,1-.113.014H15.694v.992h3.395a.643.643,0,0,1,.1,1.28.525.525,0,0,1-.1.01ZM0,4.118a2.936,2.936,0,1,1,2.936,2.93A2.934,2.934,0,0,1,0,4.118Zm1.344,0A1.592,1.592,0,1,0,2.936,2.532,1.592,1.592,0,0,0,1.344,4.118ZM22.753,2.445A2.453,2.453,0,1,1,25.206,4.89,2.452,2.452,0,0,1,22.753,2.445Zm1.327,0a1.126,1.126,0,1,0,1.126-1.122A1.125,1.125,0,0,0,24.08,2.445Z" transform="translate(7 11)" fill="#fd8106"/>
</svg>
