<svg width="42" height="42" viewBox="0 0 42 42" fill="none" xmlns="http://www.w3.org/2000/svg">
<g clip-path="url(#clip0_274_472)">
<path d="M32.2616 40.0498C31.355 39.5657 30.3005 39.4365 29.3039 39.6876C24.8896 41.6368 19.9296 41.9681 15.2953 40.6234C10.661 39.2787 6.64875 36.3439 3.96342 32.3346C1.27808 28.3254 0.0914161 23.4981 0.611886 18.7008C1.13235 13.9034 3.32667 9.44294 6.80935 6.10285C10.292 2.76277 14.8403 0.75674 19.6552 0.437166C24.4701 0.117592 29.2436 1.50491 33.1371 4.35542C37.0307 7.20593 39.7953 11.3373 40.9452 16.0237C42.0951 20.7102 41.5569 25.652 39.425 29.981C39.1361 30.6128 38.8046 31.2243 38.4328 31.8113C37.6862 33.0517 38.1426 35.132 38.3124 35.8871C38.9424 38.6656 38.9658 40.4968 38.3124 41.2155C38.1529 41.3674 37.9629 41.4836 37.7549 41.5564C37.547 41.6291 37.326 41.6567 37.1066 41.6374C35.4011 41.4402 33.7531 40.9002 32.2616 40.0498Z" fill="white"/>
<path d="M14.0965 10.7602V18.8025C14.0965 18.8025 14.0965 18.8203 14.0991 18.8304C14.117 19.2005 14.4269 19.4945 14.806 19.4945C15.1851 19.4945 15.5181 19.1802 15.5181 18.7924V10.7653C15.5181 10.3775 15.1979 10.0632 14.806 10.0632C14.4141 10.0632 14.0939 10.3775 14.0939 10.7653" fill="#EF7F1A"/>
<path d="M19.0428 10.8413H19.0402C18.72 10.8413 18.4639 11.0947 18.4639 11.4065C18.4639 11.7182 18.7226 11.9717 19.0402 11.9717H23.359V12.8157H19.2042C19.1068 12.8157 19.0223 12.8309 18.948 12.8487C18.8302 12.8816 18.7329 12.9348 18.6611 13.0159C18.5382 13.1528 18.4793 13.3404 18.4793 13.5736V15.1425C18.4793 15.3807 18.5382 15.5657 18.6611 15.7001C18.7329 15.7812 18.8302 15.8369 18.948 15.8674C19.0274 15.8902 19.1145 15.9054 19.2144 15.9054H20.9255V16.8204H17.8696C17.5341 16.8204 17.2625 17.089 17.2625 17.416C17.2625 17.743 17.5341 18.0116 17.8696 18.0116H25.5209C25.5593 18.0116 25.5875 18.0091 25.6182 18.0015C25.9102 17.9584 26.1305 17.7125 26.1305 17.416C26.1305 17.0865 25.859 16.8204 25.5235 16.8204H22.3549V15.9054H24.4681C24.5065 15.9054 24.5398 15.9003 24.5757 15.8927C24.8472 15.8496 25.0598 15.619 25.0598 15.3376C25.0598 15.0259 24.8037 14.7724 24.4835 14.7724C24.4707 14.7724 24.4604 14.7724 24.4502 14.775H20.0213C19.9649 14.775 19.924 14.7623 19.8958 14.7369C19.8676 14.7116 19.8548 14.666 19.8548 14.5899V13.9385H24.0019C24.2478 13.9385 24.4348 13.8701 24.5552 13.7358C24.673 13.5989 24.7371 13.4113 24.7371 13.1781V11.2924C24.7371 11.1454 24.6935 11.0314 24.609 10.9553C24.5373 10.8894 24.4374 10.859 24.3221 10.8463C24.2965 10.8463 24.2786 10.8362 24.2529 10.8362H19.0428V10.8413Z" fill="#EF7F1A"/>
<path d="M35.1266 14.836H27.4138C27.1013 14.836 26.8477 15.087 26.8477 15.3911C26.8477 15.6953 27.1013 15.9462 27.4138 15.9462H30.5286V16.5748H28.8201C28.6049 16.5748 28.441 16.6305 28.3231 16.7319C28.3052 16.7471 28.2847 16.7598 28.2694 16.7775C28.1618 16.9017 28.1029 17.0639 28.0952 17.2692C28.0952 17.292 28.09 17.3149 28.09 17.3377V18.9319C28.09 19.1702 28.149 19.3577 28.2719 19.4921C28.2873 19.5098 28.3052 19.5225 28.3257 19.5377C28.4435 19.6391 28.6075 19.6948 28.8226 19.6948H33.6588C33.874 19.6948 34.0379 19.6416 34.1557 19.5377C34.1737 19.5225 34.1967 19.5098 34.2121 19.4921C34.3248 19.3628 34.3837 19.1905 34.3914 18.97V17.3351C34.3914 17.0969 34.3325 16.9093 34.2095 16.775C34.0917 16.6381 33.9073 16.5722 33.6562 16.5722H31.9554V15.9436H35.1419C35.4544 15.9436 35.708 15.6978 35.708 15.3886C35.708 15.0794 35.4544 14.8335 35.1419 14.8335H35.1291M29.5322 18.5568C29.504 18.534 29.4912 18.4884 29.4912 18.4149V17.6849H33.0005V18.5898H29.6526C29.5962 18.5898 29.5552 18.5796 29.5271 18.5594" fill="#EF7F1A"/>
<path d="M7.70804 13.8017C7.70804 15.2946 8.935 16.5061 10.4489 16.5061C11.9627 16.5061 13.1897 15.2971 13.1897 13.8017C13.1897 12.3063 11.9627 11.0999 10.4489 11.0999C8.935 11.0999 7.70804 12.3088 7.70804 13.8017ZM8.96318 13.8017C8.96318 12.9932 9.62918 12.3367 10.4489 12.3367C11.2686 12.3367 11.9346 12.9932 11.9346 13.8017C11.9346 14.6103 11.2686 15.2667 10.4489 15.2667C9.62918 15.2667 8.96318 14.6103 8.96318 13.8017Z" fill="#EF7F1A"/>
<path d="M28.9431 12.2583C28.9431 13.5079 29.9703 14.5167 31.2331 14.5167C32.4959 14.5167 33.5231 13.5054 33.5231 12.2583C33.5231 11.0113 32.4959 10 31.2331 10C29.9703 10 28.9431 11.0113 28.9431 12.2583ZM30.1829 12.2583C30.1829 11.6855 30.6516 11.2217 31.2331 11.2217C31.8146 11.2217 32.2833 11.6855 32.2833 12.2583C32.2833 12.8312 31.8146 13.295 31.2331 13.295C30.6516 13.295 30.1829 12.8312 30.1829 12.2583Z" fill="#EF7F1A"/>
<path d="M21.8169 27.4861C21.8169 23.8667 18.7175 20.9596 14.9853 21.1851C11.7962 21.3803 9.19629 23.925 8.98624 27.0603C8.86329 28.8878 9.53697 30.5606 10.6948 31.7798C10.8664 31.9622 11.1277 32.0383 11.3736 31.98L11.3966 31.9749C11.6092 31.9268 11.786 31.7798 11.8731 31.5846C12.2932 30.6519 13.0898 29.9168 14.0709 29.562C14.3168 29.4733 14.3501 29.1463 14.1195 29.0171C13.1513 28.4721 12.5749 27.3265 12.9259 26.0947C13.1615 25.2709 13.8378 24.617 14.6779 24.3939C16.4019 23.9377 17.9593 25.205 17.9593 26.8246C17.9593 27.7574 17.4418 28.5735 16.6759 29.0094C16.4403 29.1438 16.471 29.4733 16.722 29.5645C17.7005 29.9194 18.4895 30.6519 18.907 31.5846C18.9941 31.7823 19.1709 31.9242 19.3809 31.9749L19.4014 31.98C19.6499 32.0408 19.9111 31.9597 20.0853 31.7772C21.1535 30.6519 21.8092 29.1438 21.8092 27.4861" fill="#0031C8"/>
<path d="M23.8303 30.6063V22.5362C23.8303 21.796 24.4399 21.1903 25.193 21.1903H25.8769C26.3021 21.1903 26.7068 21.388 26.9656 21.7251L31.5814 27.7701V22.5336C31.5814 21.7935 32.1911 21.1877 32.9442 21.1877C33.6972 21.1877 34.3069 21.7884 34.3069 22.5336V30.6038C34.3069 31.3439 33.6972 31.9496 32.9442 31.9496H32.2602C31.8325 31.9496 31.4303 31.7519 31.1716 31.4148L26.5557 25.3698V30.6063C26.5557 31.3464 25.9461 31.9522 25.193 31.9522C24.4399 31.9522 23.8303 31.3515 23.8303 30.6063Z" fill="#0031C8"/>
</g>
<defs>
<clipPath id="clip0_274_472">
<rect width="41.0667" height="41.2617" fill="white" transform="translate(0.466675 0.369141)"/>
</clipPath>
</defs>
</svg>
