<?xml version="1.0" encoding="UTF-8"?>
<svg width="38px" height="38px" viewBox="0 0 38 38" version="1.1" xmlns="http://www.w3.org/2000/svg" xmlns:xlink="http://www.w3.org/1999/xlink">
    <title>icon_calculate</title>
    <g id="intro" stroke="none" stroke-width="1" fill="none" fill-rule="evenodd">
        <g id="manager_dashboard" transform="translate(-1143.000000, -645.000000)" fill="#fff" fill-rule="nonzero">
            <g id="Group-3" transform="translate(160.000000, 620.000000)">
                <path d="M1003.58333,63 L1013.08333,63 C1014.685,63 1017.32389,63 1021,63 C1021,59.0355272 1021,56.3966383 1021,55.0833333 L1021,45.5833333 L1003.58333,45.5833333 L1003.58333,63 Z M1008.33333,51.9166667 L1016.25,51.9166667 L1016.25,53.5 L1008.33333,53.5 L1008.33333,51.9166667 Z M1008.33333,55.0833333 L1016.25,55.0833333 L1016.25,56.6666667 L1008.33333,56.6666667 L1008.33333,55.0833333 Z M983,55.0833333 C983,56.5405278 983,59.1794167 983,63 C986.820583,63 989.459472,63 990.916667,63 L1000.41667,63 L1000.41667,45.5833333 L983,45.5833333 L983,55.0833333 Z M987.75,53.5 L990.916667,53.5 L990.916667,50.3333333 L992.5,50.3333333 L992.5,53.5 L995.666667,53.5 L995.666667,55.0833333 L992.5,55.0833333 L992.5,58.25 L990.916667,58.25 L990.916667,55.0833333 L987.75,55.0833333 L987.75,53.5 Z M1013.08333,25 L1003.58333,25 L1003.58333,42.4166667 L1021,42.4166667 L1021,32.9166667 C1021,31.5624871 1021,28.9235982 1021,25 C1017.283,25 1014.64411,25 1013.08333,25 Z M1012.29167,29.75 C1012.72867,29.75 1013.08333,30.1046667 1013.08333,30.5416667 C1013.08333,30.9786667 1012.72867,31.3333333 1012.29167,31.3333333 C1011.85467,31.3333333 1011.5,30.9786667 1011.5,30.5416667 C1011.5,30.1046667 1011.85467,29.75 1012.29167,29.75 Z M1012.29167,37.6666667 C1011.85467,37.6666667 1011.5,37.312 1011.5,36.875 C1011.5,36.438 1011.85467,36.0833333 1012.29167,36.0833333 C1012.72867,36.0833333 1013.08333,36.438 1013.08333,36.875 C1013.08333,37.312 1012.72867,37.6666667 1012.29167,37.6666667 Z M1016.25,34.5 L1008.33333,34.5 L1008.33333,32.9166667 L1016.25,32.9166667 L1016.25,34.5 Z M983,25 L983,42.4166667 L1000.41667,42.4166667 L1000.41667,25 L983,25 Z M993.947167,30.3485 L995.068167,31.4695 L992.82775,33.7083333 L995.066583,35.9471667 L993.947167,37.0665833 L991.708333,34.82775 L989.4695,37.0665833 L988.3485,35.9471667 L990.587333,33.7083333 L988.3485,31.4695 L989.467917,30.3500833 L991.708333,32.5889167 L993.947167,30.3485 Z" id="icon_calculate"></path>
            </g>
        </g>
    </g>
</svg>