<?xml version="1.0" encoding="UTF-8"?>
<svg width="44px" height="35px" viewBox="0 0 44 35" version="1.1" xmlns="http://www.w3.org/2000/svg" xmlns:xlink="http://www.w3.org/1999/xlink">
    <title>icon_dashboard</title>
    <g id="intro" stroke="none" stroke-width="1" fill="none" fill-rule="evenodd">
        <g id="manager_dashboard" transform="translate(-182.000000, -647.000000)" fill="#fff" fill-rule="nonzero">
            <g id="Group-3" transform="translate(160.000000, 620.000000)">
                <path d="M44,27 C31.8505,27 22,36.8505 22,49 C22,53.7355 23.496,58.2436667 26.0425,61.8333333 L61.9575,61.8333333 C64.504,58.2436667 66,53.7355 66,49 C66,36.8505 56.1495,27 44,27 Z M42.6103333,30.9233333 C43.0796667,30.8866667 43.5453333,30.8701667 44,30.8701667 C44.4546667,30.8701667 44.9203333,30.8885 45.3896667,30.9233333 L45.3896667,36.6341667 C44.9276667,36.5846667 44.462,36.5571667 44,36.5571667 C43.538,36.5571667 43.0723333,36.5828333 42.6103333,36.6341667 L42.6103333,30.9233333 Z M32.0448333,45.5496667 L26.7648333,43.3625 C27.0526667,42.4843333 27.4083333,41.6245 27.83,40.7976667 L33.1081667,42.983 C32.6553333,43.797 32.2996667,44.6568333 32.0448333,45.5496667 Z M30.2353333,37.2006667 C30.8385,36.4985 31.4966667,35.8385 32.1988333,35.2371667 L36.2376667,39.276 C35.5135,39.8553333 34.8553333,40.5135 34.2741667,41.2395 L30.2353333,37.2006667 Z M38.2873333,31.7886667 L40.4965,37.0595 C39.6073333,37.318 38.7493333,37.6791667 37.9371667,38.132 L35.728,32.863 C36.5511667,32.4395 37.4128333,32.0783333 38.2873333,31.7886667 Z M38.3093333,58.1666667 C38.3441667,56.0565 39.5156667,54.225 41.2481667,53.268 L44,40.3595 L46.7536667,53.268 C48.4825,54.225 49.6576667,56.0565 49.6925,58.1666667 L38.3093333,58.1666667 Z M47.454,37.0448333 L49.6411667,31.7666667 C50.5193333,32.0526667 51.3791667,32.412 52.206,32.8318333 L50.0188333,38.1081667 C49.2066667,37.6571667 48.345,37.3015 47.454,37.0448333 Z M51.7605,39.276 L55.7993333,35.2371667 C56.5015,35.8403333 57.1596667,36.4985 57.7628333,37.2006667 L53.724,41.2395 C53.1446667,40.5135 52.4865,39.8553333 51.7605,39.276 Z M54.7965,42.8143333 L60.0398333,40.5446667 C60.4706667,41.3605 60.8428333,42.2166667 61.1435,43.093 L55.902,45.3626667 C55.6325,44.4771667 55.2603333,43.621 54.7965,42.8143333 Z" id="icon_dashboard"></path>
            </g>
        </g>
    </g>
</svg>