<?xml version="1.0" encoding="UTF-8"?>
<svg width="36px" height="29px" viewBox="0 0 36 29" version="1.1" xmlns="http://www.w3.org/2000/svg" xmlns:xlink="http://www.w3.org/1999/xlink">
    <title>icon_pc</title>
    <g id="style_guide" stroke="none" stroke-width="1" fill="none" fill-rule="evenodd">
        <g transform="translate(-186.000000, -1659.000000)" fill="#1C1C1C" fill-rule="nonzero" id="Group-3">
            <g transform="translate(186.000000, 1659.000000)">
                <path d="M0,1 L0,20.6745459 C6.76353751e-17,21.2268307 0.44771525,21.6745459 1,21.6745459 L35,21.6745459 C35.5522847,21.6745459 36,21.2268307 36,20.6745459 L36,1 C36,0.44771525 35.5522847,3.42636147e-16 35,0 L1,0 C0.44771525,1.01453063e-16 3.76453835e-16,0.44771525 0,1 Z M34.4265137,20 L1.58886719,20 L1.58886719,1.7 L34.4265137,1.7 L34.4265137,20 Z M22.5762727,21.6745459 L23.2262039,27.8958903 C23.2548958,28.170538 23.0555091,28.4164434 22.7808614,28.4451353 L22.754921,28.4471645 L22.754921,28.4471645 L13.1287842,28.4478415 C12.8526418,28.4478415 12.6287842,28.2239839 12.6287842,27.9478415 C12.6287842,27.9283573 12.6299231,27.9088897 12.6321951,27.8895383 L13.3618813,21.6745459 L22.5762727,21.6745459 Z M21.9234525,6.3515625 C22.9078275,6.3515625 23.7007963,6.61523438 24.3023588,7.14257812 C24.9039213,7.66992188 25.2515775,8.41015625 25.3453275,9.36328125 L23.587515,9.36328125 C23.5445463,8.8125 23.391226,8.41308594 23.1275541,8.16503906 C22.8638822,7.91699219 22.462515,7.79296875 21.9234525,7.79296875 C21.337515,7.79296875 20.8990385,8.00292969 20.6080228,8.42285156 C20.3170072,8.84277344 20.1675931,9.49414062 20.1597806,10.3769531 L20.1597806,11.0214844 C20.1597806,11.9433594 20.2994291,12.6171875 20.578726,13.0429688 C20.8580228,13.46875 21.2984525,13.6816406 21.900015,13.6816406 C22.4429838,13.6816406 22.8482572,13.5576172 23.1158353,13.3095703 C23.3834135,13.0615234 23.5367338,12.6777344 23.5757963,12.1582031 L25.3336088,12.1582031 C25.2672025,13.0761719 24.9283353,13.7988281 24.3170072,14.3261719 C23.7056791,14.8535156 22.900015,15.1171875 21.900015,15.1171875 C20.806265,15.1171875 19.9459135,14.7490234 19.3189603,14.0126953 C18.6920072,13.2763672 18.3785306,12.265625 18.3785306,10.9804688 L18.3785306,10.4589844 C18.3785306,9.63867188 18.5230619,8.91601562 18.8121244,8.29101562 C19.1011869,7.66601562 19.5142728,7.18652344 20.0513822,6.85253906 C20.5884916,6.51855469 21.212515,6.3515625 21.9234525,6.3515625 Z M14.6857722,6.46875 C15.3263972,6.46875 15.8898738,6.5859375 16.3762019,6.8203125 C16.86253,7.0546875 17.2365535,7.38769531 17.4982722,7.81933594 C17.759991,8.25097656 17.8908504,8.7421875 17.8908504,9.29296875 C17.8908504,10.1289062 17.6047175,10.7880859 17.0324519,11.2705078 C16.4601863,11.7529297 15.6681941,11.9941406 14.6564754,11.9941406 L13.1154597,11.9941406 L13.1154597,15 L11.3576472,15 L11.3576472,6.46875 L14.6857722,6.46875 Z M14.7267879,7.89257812 L13.1154597,7.89257812 L13.1154597,10.5703125 L14.6857722,10.5703125 C15.150616,10.5703125 15.5051082,10.4609375 15.7492488,10.2421875 C15.9933894,10.0234375 16.1154597,9.7109375 16.1154597,9.3046875 C16.1154597,8.88671875 15.9924129,8.54882812 15.7463191,8.29101562 C15.5002254,8.03320312 15.1603816,7.90039062 14.7267879,7.89257812 Z" id="icon_pc"></path>
            </g>
        </g>
    </g>
</svg>