<?xml version="1.0" encoding="UTF-8"?>
<svg width="38px" height="38px" viewBox="0 0 38 38" version="1.1" xmlns="http://www.w3.org/2000/svg" xmlns:xlink="http://www.w3.org/1999/xlink">
    <title>icon_system</title>
    <g id="intro" stroke="none" stroke-width="1" fill="none" fill-rule="evenodd">
        <g id="manager_dashboard" transform="translate(-1023.000000, -645.000000)" fill="#1C1C1C" fill-rule="nonzero">
            <g id="Group-3" transform="translate(160.000000, 620.000000)">
                <path d="M878.833333,28.1666667 L875.666667,28.1666667 L875.666667,25 L878.833333,25 L878.833333,28.1666667 Z M866.166667,37.6666667 L863,37.6666667 L863,40.8333333 L866.166667,40.8333333 L866.166667,37.6666667 Z M866.166667,29.75 C866.166667,28.8775833 866.876,28.1666667 867.75,28.1666667 L874.083333,28.1666667 L874.083333,25 L867.75,25 C866.817506,25 865.234173,25 863,25 C863,27.3501049 863,28.9334382 863,29.75 L863,36.0833333 L866.166667,36.0833333 L866.166667,29.75 Z M866.166667,42.4166667 L863,42.4166667 L863,45.5833333 L866.166667,45.5833333 L866.166667,42.4166667 Z M888.333333,25 L885.166667,25 L885.166667,28.1666667 L888.333333,28.1666667 L888.333333,25 Z M883.583333,25 L880.416667,25 L880.416667,28.1666667 L883.583333,28.1666667 L883.583333,25 Z M866.166667,47.1666667 L863,47.1666667 L863,50.3333333 L866.166667,50.3333333 L866.166667,47.1666667 Z M894.666667,43.9335 L887.606871,43.9335 L883.870205,52.4613333 L879.305455,39.9055 L875.438955,49.0571667 L872.159871,42.5021667 L870.372288,45.615 L869.333333,45.615 L869.333333,56.6666667 L894.666667,56.6666667 L894.666667,43.9335 Z M869.333333,44.03325 L869.455538,44.03325 L872.254871,39.155 L875.318621,45.2761667 L879.417871,35.5766667 L884.007955,48.2053333 L886.572955,42.35175 L894.666667,42.35175 L894.666667,31.3333333 L869.333333,31.3333333 L869.333333,44.03325 Z M885.166667,63 L888.333333,63 L888.333333,59.8333333 L885.166667,59.8333333 L885.166667,63 Z M897.833333,45.5833333 L901,45.5833333 L901,42.4166667 L897.833333,42.4166667 L897.833333,45.5833333 Z M866.166667,58.25 L866.166667,51.9166667 L863,51.9166667 L863,58.25 C863,59.0451202 863,60.6284536 863,63 C865.212731,63 866.796065,63 867.75,63 L874.083333,63 L874.083333,59.8333333 L867.75,59.8333333 C866.876,59.8333333 866.166667,59.1224167 866.166667,58.25 Z M897.833333,58.25 C897.833333,59.1224167 897.124,59.8333333 896.25,59.8333333 L889.916667,59.8333333 L889.916667,63 L896.25,63 C897.055098,63 898.638431,63 901,63 C901,60.7772912 901,59.1939578 901,58.25 L901,51.9166667 L897.833333,51.9166667 L897.833333,58.25 Z M897.833333,40.8333333 L901,40.8333333 L901,37.6666667 L897.833333,37.6666667 L897.833333,40.8333333 Z M897.833333,50.3333333 L901,50.3333333 L901,47.1666667 L897.833333,47.1666667 L897.833333,50.3333333 Z M901,29.75 C901,28.8929078 901,27.3095745 901,25 C898.725297,25 897.141963,25 896.25,25 L889.916667,25 L889.916667,28.1666667 L896.25,28.1666667 C897.124,28.1666667 897.833333,28.8775833 897.833333,29.75 L897.833333,36.0833333 L901,36.0833333 L901,29.75 Z M875.666667,63 L878.833333,63 L878.833333,59.8333333 L875.666667,59.8333333 L875.666667,63 Z M880.416667,63 L883.583333,63 L883.583333,59.8333333 L880.416667,59.8333333 L880.416667,63 Z" id="icon_system"></path>
            </g>
        </g>
    </g>
</svg>