<?xml version="1.0" encoding="UTF-8"?>
<svg width="40px" height="40px" viewBox="0 0 40 40" version="1.1" xmlns="http://www.w3.org/2000/svg" xmlns:xlink="http://www.w3.org/1999/xlink">
    <title>icon_claim</title>
    <g id="intro" stroke="none" stroke-width="1" fill="none" fill-rule="evenodd">
        <g id="manager_dashboard" transform="translate(-902.000000, -644.000000)" fill="#1C1C1C">
            <g id="Group-3" transform="translate(160.000000, 620.000000)">
                <path d="M775.331945,40.6659723 L775.331945,37.3327778 L781.998333,37.3327778 L781.998333,57.3336111 L776.998542,57.3336111 L776.998542,64 L768.110579,57.3336111 L755.332778,57.3336111 L755.332778,50.6672222 L775.331945,50.6672222 L775.331945,40.6659723 Z M771.99875,47.3340277 L755.887755,47.3340277 L746.999792,54.0004166 L746.999792,47.3340277 L742,47.3340277 L742,24 L771.99875,24 L771.99875,47.3340277 Z M746.999792,30.6663889 L761.999167,30.6663889 L761.999167,32.3329861 L746.999792,32.3329861 L746.999792,30.6663889 Z M746.999792,35.6661806 L756.999375,35.6661806 L756.999375,37.3327778 L746.999792,37.3327778 L746.999792,35.6661806 Z" id="icon_claim"></path>
            </g>
        </g>
    </g>
</svg>