<?xml version="1.0" encoding="UTF-8"?>
<svg width="75px" height="100px" viewBox="0 0 75 100" version="1.1" xmlns="http://www.w3.org/2000/svg" xmlns:xlink="http://www.w3.org/1999/xlink">
    <title>icon_gender_female</title>
    <g id="style_guide" stroke="none" stroke-width="1" fill="none" fill-rule="evenodd">
        <g transform="translate(-459.000000, -1669.000000)" fill="#FFFFFF" fill-rule="nonzero" id="icon_gender_female">
            <path d="M534,1706.5 C534,1685.79167 517.208333,1669 496.5,1669 C475.791667,1669 459,1685.79167 459,1706.5 C459,1725.8 473.5875,1741.67917 492.333333,1743.75417 L492.333333,1752.33333 L479.833333,1752.33333 L479.833333,1760.66667 L492.333333,1760.66667 L492.333333,1769 L500.666667,1769 L500.666667,1760.66667 L513.166667,1760.66667 L513.166667,1752.33333 L500.666667,1752.33333 L500.666667,1743.75417 C519.4125,1741.67917 534,1725.8 534,1706.5 Z M467.333333,1706.5 C467.333333,1690.41667 480.416667,1677.33333 496.5,1677.33333 C512.583333,1677.33333 525.666667,1690.41667 525.666667,1706.5 C525.666667,1722.58333 512.583333,1735.66667 496.5,1735.66667 C480.416667,1735.66667 467.333333,1722.58333 467.333333,1706.5 Z"></path>
        </g>
    </g>
</svg>