<svg xmlns="http://www.w3.org/2000/svg" width="108.223" height="30" viewBox="0 0 108.223 30">
  <g id="Group_18_Copy" data-name="Group 18 Copy" transform="translate(0 0)">
    <path id="Combined_Shape" data-name="Combined Shape" d="M64.624,30a2.249,2.249,0,0,1-1.522-.488l-.047-.037a.753.753,0,0,1-.116-.105,2.537,2.537,0,0,1-.555-1.737V22.7a.7.7,0,0,1,.01-.1.861.861,0,0,0,.009-.105,2.448,2.448,0,0,1,.536-1.517.659.659,0,0,1,.118-.106l.045-.037a2.254,2.254,0,0,1,1.522-.487h5.227V18.4H60.315a1.717,1.717,0,1,1,0-3.434h23.61v-.01h.038a1.718,1.718,0,1,1,0,3.435H74.208v1.946h5.207a2.136,2.136,0,0,1,1.695.63,2.538,2.538,0,0,1,.555,1.737v5.057a2.514,2.514,0,0,1-.545,1.613.6.6,0,0,1-.112.1c-.022.015-.041.03-.061.046A2.183,2.183,0,0,1,79.425,30Zm2.546-3.435H77.414v-2.8H66.672V26.03c0,.234.04.374.125.439h-.01A.608.608,0,0,0,67.17,26.564Zm-47.6.753a.351.351,0,0,1-.01-.086V2.357l-.01.01a2.183,2.183,0,0,1,4.366,0V27.194a2.209,2.209,0,0,1-2.183,2.175A2.163,2.163,0,0,1,19.57,27.318ZM31.106,24.79a1.842,1.842,0,1,1,0-3.684h9.354V18.273H35.222a2.968,2.968,0,0,1-.814-.115,1.743,1.743,0,0,1-.88-.515,2.5,2.5,0,0,1-.555-1.727V11.058a2.517,2.517,0,0,1,.555-1.727,1.816,1.816,0,0,1,.88-.515,3.18,3.18,0,0,1,.786-.105H47.908V6.1H34.686a1.746,1.746,0,1,1,0-3.492h15.96c.076,0,.134.029.211.029a1.514,1.514,0,0,1,.881.334,1.331,1.331,0,0,1,.392,1.04v5.83a2.567,2.567,0,0,1-.555,1.727,2.152,2.152,0,0,1-1.695.629H37.185v2.013a.6.6,0,0,0,.124.458.555.555,0,0,0,.382.114H51.249a.424.424,0,0,1,.106-.009,1.741,1.741,0,0,1,.277,3.463,1.726,1.726,0,0,1-.326.039H44.834v2.833h9.7a1.837,1.837,0,0,1,.287,3.655,1.431,1.431,0,0,1-.3.029ZM0,11.765A8.4,8.4,0,0,1,14.317,5.85,8.366,8.366,0,0,1,8.386,20.133,8.387,8.387,0,0,1,0,11.765Zm3.839,0A4.548,4.548,0,1,0,8.386,7.232,4.544,4.544,0,0,0,3.839,11.765ZM65,6.984a7.008,7.008,0,1,1,7.008,6.985A7,7,0,0,1,65,6.984Zm3.792,0a3.217,3.217,0,1,0,3.217-3.206A3.215,3.215,0,0,0,68.789,6.984Z" transform="translate(0 0)" fill="#fff"/>
    <path id="Combined_Shape-2" data-name="Combined Shape" d="M12.29,29.944a1.746,1.746,0,0,1-1.391-.69L5,21.443v6.764a1.743,1.743,0,0,1-3.487,0V17.782a1.741,1.741,0,0,1,1.743-1.738h.874a1.745,1.745,0,0,1,1.391.69l5.9,7.81V17.782a1.743,1.743,0,0,1,3.487,0V28.207a1.74,1.74,0,0,1-1.743,1.737ZM2.2,13.7a8.084,8.084,0,0,1-2.185-6.1,8.212,8.212,0,0,1,16.4.55h0a8.072,8.072,0,0,1-2.2,5.544.909.909,0,0,1-.876.262l-.026-.007a.894.894,0,0,1-.6-.5A4.9,4.9,0,0,0,9.912,10.84a.394.394,0,0,1-.059-.718A3.265,3.265,0,0,0,7.3,4.161a3.2,3.2,0,0,0-2.241,2.2,3.266,3.266,0,0,0,1.525,3.776.387.387,0,0,1-.063.7A4.931,4.931,0,0,0,3.71,13.449a.887.887,0,0,1-.608.5l-.03.007A.9.9,0,0,1,2.2,13.7Z" transform="translate(91.803)" fill="#fff"/>
  </g>
</svg>
