<?xml version="1.0" encoding="UTF-8"?>
<svg id="_레이어_2" data-name="레이어 2" xmlns="http://www.w3.org/2000/svg" viewBox="0 0 285.27 58">
  <defs>
    <style>
      .cls-1 {
        fill: #fff;
      }

      .cls-1, .cls-2 {
        stroke-width: 0px;
      }

      .cls-2 {
        fill: #fff;
      }
    </style>
  </defs>
  <g id="_레이어_1-2" data-name="레이어 1">
    <g>
      <g>
        <path class="cls-1" d="m37.82,4.56v48.1s0,.11.02.17c.11,2.21,1.94,3.97,4.18,3.97s4.22-1.88,4.22-4.21V4.58c0-2.32-1.89-4.21-4.22-4.21s-4.22,1.88-4.22,4.21"/>
        <path class="cls-1" d="m67.08,5.04h-.02c-1.89,0-3.41,1.51-3.41,3.38s1.54,3.38,3.41,3.38h25.56v5.06h-24.58c-.57,0-1.07.09-1.52.2-.7.2-1.28.52-1.7,1-.72.81-1.07,1.94-1.07,3.34v9.39c0,1.42.35,2.53,1.07,3.34.43.48,1,.81,1.7,1,.46.13.98.22,1.57.22h10.13v5.48h-18.09c-1.98,0-3.59,1.61-3.59,3.56s1.61,3.56,3.59,3.56h45.28c.22,0,.39-.02.57-.06,1.72-.26,3.04-1.73,3.04-3.51,0-1.97-1.61-3.56-3.59-3.56h-18.75v-5.48h12.51c.22,0,.43-.04.63-.07,1.61-.26,2.87-1.64,2.87-3.32,0-1.86-1.52-3.38-3.41-3.38-.07,0-.13,0-.2.02h-26.21c-.33,0-.57-.07-.74-.22s-.24-.42-.24-.89v-3.89h24.55c1.46,0,2.55-.41,3.28-1.22.7-.81,1.07-1.94,1.07-3.34V7.75c0-.89-.26-1.57-.76-2.01-.43-.39-1.02-.57-1.7-.65-.15,0-.26-.06-.41-.06h-30.84Z"/>
        <path class="cls-1" d="m162.27,28.93h-45.65c-1.85,0-3.35,1.49-3.35,3.32s1.5,3.32,3.35,3.32h18.44v3.76h-10.11c-1.28,0-2.24.33-2.94.94-.11.09-.22.17-.31.28-.63.74-.98,1.72-1.04,2.93,0,.13-.04.28-.04.41v9.54c0,1.42.35,2.55,1.07,3.36.09.11.2.18.31.28.7.61,1.67.94,2.94.94h28.62c1.28,0,2.24-.31,2.94-.94.11-.09.24-.17.33-.28.67-.77,1.02-1.81,1.06-3.12v-9.78c0-1.42-.35-2.55-1.07-3.36-.7-.81-1.8-1.22-3.28-1.22h-10.07v-3.76h18.86c1.85,0,3.35-1.48,3.35-3.32s-1.5-3.32-3.35-3.32h-.07m-33.12,22.27c-.17-.13-.24-.41-.24-.85v-4.37h20.77v5.41h-19.81c-.33,0-.57-.06-.74-.18"/>
        <path class="cls-1" d="m0,22.75c0,8.93,7.26,16.18,16.22,16.18s16.22-7.23,16.22-16.18S25.17,6.59,16.22,6.59,0,13.82,0,22.75Zm7.42,0c0-4.83,3.94-8.76,8.79-8.76s8.79,3.93,8.79,8.76-3.94,8.76-8.79,8.76-8.79-3.93-8.79-8.76Z"/>
        <path class="cls-1" d="m125.67,13.5c0,7.47,6.07,13.5,13.55,13.5s13.55-6.05,13.55-13.5-6.07-13.5-13.55-13.5-13.55,6.05-13.55,13.5Zm7.33,0c0-3.43,2.78-6.2,6.22-6.2s6.22,2.77,6.22,6.2-2.78,6.2-6.22,6.2-6.22-2.77-6.22-6.2Z"/>
      </g>
      <path class="cls-2" d="m232.11,32.67c0-15.56-13.19-28.06-29.07-27.09-13.57.83-24.64,11.79-25.53,25.27-.52,7.86,2.35,15.05,7.27,20.3.73.78,1.84,1.12,2.89.86l.1-.02c.9-.21,1.65-.83,2.03-1.68,1.79-4.01,5.17-7.18,9.35-8.7,1.05-.38,1.19-1.79.21-2.34-4.12-2.34-6.57-7.27-5.08-12.57,1-3.54,3.88-6.35,7.46-7.31,7.34-1.96,13.97,3.48,13.97,10.45,0,4.01-2.2,7.52-5.46,9.4-1,.58-.88,2,.2,2.39,4.16,1.52,7.52,4.67,9.3,8.68.37.85,1.12,1.46,2.01,1.68l.09.02c1.06.26,2.17-.09,2.91-.87,4.55-4.84,7.34-11.32,7.34-18.46"/>
      <path class="cls-2" d="m240.67,46.1V11.39c0-3.18,2.59-5.78,5.8-5.78h2.91c1.81,0,3.54.85,4.63,2.3l19.64,26V11.39c0-3.18,2.59-5.78,5.8-5.78s5.8,2.58,5.8,5.78v34.71c0,3.18-2.59,5.78-5.8,5.78h-2.91c-1.81,0-3.54-.85-4.63-2.3l-19.64-26v22.52c0,3.18-2.59,5.78-5.8,5.78s-5.8-2.58-5.8-5.78Z"/>
    </g>
  </g>
</svg>