<?xml version="1.0" encoding="UTF-8"?>
<svg id="_레이어_2" data-name="레이어 2" xmlns="http://www.w3.org/2000/svg" viewBox="0 0 122.23 97.07">
  <defs>
    <style>
      .cls-1 {
        fill: #fff;
      }

      .cls-1, .cls-2 {
        stroke-width: 0px;
      }

      .cls-2 {
        fill: #fff;
      }
    </style>
  </defs>
  <g id="_레이어_1-2" data-name="레이어 1">
    <g>
      <g>
        <path class="cls-1" d="m27.9,3.36v35.48s0,.08.01.12c.08,1.63,1.43,2.93,3.09,2.93s3.11-1.39,3.11-3.1V3.38c0-1.71-1.39-3.1-3.11-3.1s-3.11,1.39-3.11,3.1"/>
        <path class="cls-1" d="m49.49,3.72h-.01c-1.39,0-2.51,1.12-2.51,2.49s1.13,2.49,2.51,2.49h18.86v3.73h-18.14c-.42,0-.79.07-1.12.15-.52.15-.94.38-1.26.73-.53.6-.79,1.43-.79,2.46v6.93c0,1.05.26,1.86.79,2.46.31.35.74.6,1.26.74.34.1.72.16,1.16.16h7.47v4.04h-13.34c-1.46,0-2.65,1.18-2.65,2.63s1.19,2.63,2.65,2.63h33.4c.16,0,.29-.01.42-.04,1.27-.19,2.24-1.28,2.24-2.59,0-1.46-1.19-2.63-2.65-2.63h-13.83v-4.04h9.23c.16,0,.31-.03.46-.05,1.19-.19,2.12-1.21,2.12-2.45,0-1.37-1.12-2.49-2.51-2.49-.05,0-.1,0-.15.01h-19.34c-.25,0-.42-.05-.55-.16s-.18-.31-.18-.65v-2.87h18.11c1.08,0,1.88-.3,2.42-.9.52-.6.79-1.43.79-2.46V5.72c0-.65-.19-1.16-.56-1.48-.31-.29-.75-.42-1.26-.48-.11,0-.19-.04-.3-.04h-22.75Z"/>
        <path class="cls-1" d="m119.71,21.34h-33.68c-1.37,0-2.47,1.1-2.47,2.45s1.11,2.45,2.47,2.45h13.6v2.78h-7.46c-.94,0-1.65.25-2.17.69-.08.07-.16.12-.23.2-.46.54-.72,1.27-.76,2.16,0,.1-.03.2-.03.3v7.04c0,1.05.26,1.88.79,2.48.07.08.15.14.23.2.52.45,1.23.69,2.17.69h21.11c.94,0,1.65-.23,2.17-.69.08-.07.18-.12.25-.2.49-.57.75-1.33.78-2.3v-7.21c0-1.05-.26-1.88-.79-2.48-.52-.6-1.32-.9-2.42-.9h-7.43v-2.78h13.92c1.37,0,2.47-1.09,2.47-2.45s-1.11-2.45-2.47-2.45h-.05m-24.43,16.43c-.12-.1-.18-.3-.18-.63v-3.23h15.32v3.99h-14.61c-.25,0-.42-.04-.55-.14"/>
        <path class="cls-1" d="m0,16.78c0,6.59,5.35,11.94,11.96,11.94s11.96-5.34,11.96-11.94-5.35-11.92-11.96-11.92S0,10.19,0,16.78Zm5.48,0c0-3.57,2.91-6.46,6.49-6.46s6.49,2.9,6.49,6.46-2.91,6.46-6.49,6.46-6.49-2.9-6.49-6.46Z"/>
        <path class="cls-1" d="m92.71,9.96c0,5.51,4.48,9.96,10,9.96s10-4.46,10-9.96S108.22,0,102.71,0s-10,4.46-10,9.96Zm5.41,0c0-2.53,2.05-4.57,4.59-4.57s4.59,2.04,4.59,4.57-2.05,4.57-4.59,4.57-4.59-2.04-4.59-4.57Z"/>
      </g>
      <path class="cls-2" d="m61.61,77.15c0-15.97-13.53-28.79-29.83-27.8-13.93.86-25.28,12.09-26.19,25.92-.53,8.07,2.41,15.44,7.46,20.83.75.81,1.89,1.15,2.97.88l.1-.03c.92-.21,1.7-.86,2.08-1.72,1.84-4.11,5.31-7.36,9.59-8.92,1.08-.39,1.22-1.84.22-2.4-4.23-2.4-6.74-7.46-5.21-12.9,1.03-3.64,3.98-6.52,7.65-7.5,7.53-2.01,14.33,3.57,14.33,10.72,0,4.11-2.26,7.71-5.6,9.64-1.03.59-.9,2.05.2,2.45,4.27,1.56,7.72,4.79,9.54,8.91.38.87,1.15,1.5,2.07,1.72l.09.03c1.09.26,2.23-.09,2.99-.89,4.66-4.97,7.53-11.62,7.53-18.94"/>
      <path class="cls-2" d="m70.39,90.93v-35.61c0-3.27,2.66-5.93,5.95-5.93h2.99c1.86,0,3.63.87,4.75,2.36l20.15,26.68v-23.1c0-3.27,2.66-5.93,5.95-5.93s5.95,2.65,5.95,5.93v35.61c0,3.27-2.66,5.93-5.95,5.93h-2.99c-1.86,0-3.63-.87-4.75-2.36l-20.15-26.68v23.1c0,3.27-2.66,5.93-5.95,5.93s-5.95-2.65-5.95-5.93Z"/>
    </g>
  </g>
</svg>