<?xml version="1.0" encoding="UTF-8"?>
<svg width="65px" height="42px" viewBox="0 0 65 42" version="1.1" xmlns="http://www.w3.org/2000/svg" xmlns:xlink="http://www.w3.org/1999/xlink">
    <title>icon_eroummarket</title>
    <g id="intro" stroke="none" stroke-width="1" fill="none" fill-rule="evenodd">
        <g id="manager_dashboard" transform="translate(-332.000000, -352.000000)" fill="#FFFFFF" fill-rule="nonzero">
            <g id="Group" transform="translate(304.000000, 312.000000)">
                <g id="Group-2" transform="translate(28.233643, 40.000000)">
                    <path d="M20.2062337,38.5 C20.2062337,40.4343333 18.6382337,42 16.7062337,42 C14.7742337,42 13.2062337,40.4343333 13.2062337,38.5 C13.2062337,36.568 14.7742337,35 16.7062337,35 C18.6382337,35 20.2062337,36.568 20.2062337,38.5 Z M43.7729004,35 C41.8409004,35 40.2729004,36.5656667 40.2729004,38.5 C40.2729004,40.4343333 41.8409004,42 43.7729004,42 C45.7049004,42 47.2729004,40.4343333 47.2729004,38.5 C47.2729004,36.568 45.7049004,35 43.7729004,35 Z M64.0729004,0 L62.3392337,4.66666667 L59.2382337,4.66666667 L51.1322337,32.2 L9.47290039,32.2 L0.254125977,12.8459229 L47.2633301,12.8459229 L42.7719004,28 L47.6765671,28 L55.6822337,0 L64.0729004,0 Z M16.6831055,0.780664062 C17.0932617,0.780664062 17.4439453,0.798095703 17.7351562,0.832958984 C18.0263672,0.867822266 18.2888672,0.938574219 18.5226562,1.04521484 C18.8056641,1.16416016 19.0558594,1.334375 19.2732422,1.55585937 C19.490625,1.77734375 19.6557129,2.0347168 19.7685059,2.32797852 C19.8812988,2.62124023 19.9376953,2.93193359 19.9376953,3.26005859 C19.9376953,3.93271484 19.747998,4.47001953 19.3686035,4.87197266 C18.989209,5.27392578 18.4139648,5.55898437 17.6428711,5.72714844 C17.9668945,5.89941406 18.2765625,6.15371094 18.571875,6.49003906 C18.8671875,6.82636719 19.1307129,7.18422852 19.3624512,7.56362305 C19.5941895,7.94301758 19.7746582,8.28549805 19.9038574,8.59106445 C20.0330566,8.89663086 20.0976562,9.10683594 20.0976562,9.22167969 C20.0976562,9.340625 20.0597168,9.45854492 19.9838379,9.57543945 C19.907959,9.69233398 19.8043945,9.78461914 19.6731445,9.85229492 C19.5418945,9.9199707 19.3901367,9.95380859 19.2178711,9.95380859 C19.012793,9.95380859 18.8405273,9.90561523 18.7010742,9.80922852 C18.5616211,9.7128418 18.4416504,9.59082031 18.3411621,9.44316406 C18.2406738,9.29550781 18.1042969,9.078125 17.9320313,8.79101562 L17.1999023,7.57285156 C16.9374023,7.12578125 16.7025879,6.78535156 16.495459,6.5515625 C16.2883301,6.31777344 16.078125,6.1578125 15.8648438,6.07167969 C15.6515625,5.98554687 15.3829102,5.94248047 15.0588867,5.94248047 L14.419043,5.94248047 L14.419043,8.84023437 C14.419043,9.22167969 14.3349609,9.50263672 14.1667969,9.68310547 C13.9986328,9.86357422 13.7791992,9.95380859 13.5084961,9.95380859 C13.2172852,9.95380859 12.9916992,9.85947266 12.8317383,9.67080078 C12.6717773,9.48212891 12.5917969,9.20527344 12.5917969,8.84023437 L12.5917969,1.90039062 C12.5917969,1.50664062 12.6799805,1.22158203 12.8563477,1.04521484 C13.0327148,0.868847656 13.3177734,0.780664062 13.7115234,0.780664062 L16.6831055,0.780664062 Z M24.9347656,0.626855469 C25.8699219,0.626855469 26.6728027,0.816552734 27.3434082,1.19594727 C28.0140137,1.5753418 28.521582,2.11469727 28.8661133,2.81401367 C29.2106445,3.51333008 29.3829102,4.33466797 29.3829102,5.27802734 C29.3829102,5.97529297 29.2885742,6.60898437 29.0999023,7.17910156 C28.9112305,7.74921875 28.6282227,8.24345703 28.2508789,8.66181641 C27.8735352,9.08017578 27.4100586,9.40009766 26.8604492,9.62158203 C26.3108398,9.84306641 25.68125,9.95380859 24.9716797,9.95380859 C24.2662109,9.95380859 23.6345703,9.83999023 23.0767578,9.61235352 C22.5189453,9.3847168 22.053418,9.06376953 21.6801758,8.64951172 C21.3069336,8.23525391 21.0249512,7.73691406 20.8342285,7.15449219 C20.6435059,6.57207031 20.5481445,5.94248047 20.5481445,5.26572266 C20.5481445,4.57255859 20.6476074,3.93681641 20.8465332,3.35849609 C21.045459,2.78017578 21.3335937,2.28798828 21.7109375,1.88193359 C22.0882812,1.47587891 22.5476562,1.16518555 23.0890625,0.949853516 C23.6304687,0.734521484 24.2457031,0.626855469 24.9347656,0.626855469 Z M36.9208984,0.626855469 C37.1957031,0.626855469 37.4182129,0.718115234 37.5884277,0.900634766 C37.7586426,1.0831543 37.84375,1.36103516 37.84375,1.73427734 L37.84375,6.07167969 C37.84375,6.77714844 37.7750488,7.36572266 37.6376465,7.83740234 C37.5002441,8.30908203 37.2408203,8.72333984 36.859375,9.08017578 C36.53125,9.38369141 36.1498047,9.60517578 35.7150391,9.74462891 C35.2802734,9.88408203 34.7716797,9.95380859 34.1892578,9.95380859 C33.4960938,9.95380859 32.8993164,9.87895508 32.3989258,9.72924805 C31.8985352,9.57954102 31.4904297,9.34780273 31.1746094,9.0340332 C30.8587891,8.72026367 30.6270508,8.31831055 30.4793945,7.82817383 C30.3317383,7.33803711 30.2579102,6.75253906 30.2579102,6.07167969 L30.2579102,1.73427734 C30.2579102,1.36513672 30.3409668,1.08828125 30.5070801,0.903710937 C30.6731934,0.719140625 30.8916016,0.626855469 31.1623047,0.626855469 C31.4453125,0.626855469 31.669873,0.719140625 31.8359863,0.903710937 C32.0020996,1.08828125 32.0851563,1.36513672 32.0851563,1.73427734 L32.0851563,6.17011719 C32.0851563,6.67460937 32.1415527,7.09604492 32.2543457,7.43442383 C32.3671387,7.77280273 32.5670898,8.03530273 32.8541992,8.22192383 C33.1413086,8.40854492 33.5432617,8.50185547 34.0600586,8.50185547 C34.7737305,8.50185547 35.2782227,8.3121582 35.5735352,7.93276367 C35.8688477,7.55336914 36.0165039,6.978125 36.0165039,6.20703125 L36.0165039,1.73427734 C36.0165039,1.36103516 36.0985352,1.0831543 36.2625977,0.900634766 C36.4266602,0.718115234 36.6460938,0.626855469 36.9208984,0.626855469 Z M40.7428711,0.780664062 C41.0833008,0.780664062 41.3304199,0.811425781 41.4842285,0.872949219 C41.6380371,0.934472656 41.7518555,1.04521484 41.8256836,1.20517578 C41.8995117,1.36513672 41.9835938,1.62558594 42.0779297,1.98652344 L43.3883789,6.92685547 L44.6988281,1.98652344 C44.7931641,1.62558594 44.8772461,1.36513672 44.9510742,1.20517578 C45.0249023,1.04521484 45.1387207,0.934472656 45.2925293,0.872949219 C45.4463379,0.811425781 45.693457,0.780664062 46.0338867,0.780664062 L46.5999023,0.780664062 C46.9485352,0.780664062 47.2253906,0.849365234 47.4304688,0.986767578 C47.6355469,1.12416992 47.7380859,1.38974609 47.7380859,1.78349609 L47.7380859,8.92021484 C47.7380859,9.26474609 47.6611816,9.52314453 47.507373,9.69541016 C47.3535645,9.86767578 47.1474609,9.95380859 46.8890625,9.95380859 C46.6470703,9.95380859 46.4481445,9.86767578 46.2922852,9.69541016 C46.1364258,9.52314453 46.0584961,9.26474609 46.0584961,8.92021484 L46.0584961,2.69404297 L44.6126953,8.44033203 C44.5183594,8.81357422 44.4414551,9.08735352 44.3819824,9.26166992 C44.3225098,9.43598633 44.212793,9.59492187 44.052832,9.73847656 C43.8928711,9.88203125 43.6713867,9.95380859 43.3883789,9.95380859 C43.1750977,9.95380859 42.9946289,9.90766602 42.8469727,9.81538086 C42.6993164,9.7230957 42.5844727,9.60517578 42.5024414,9.46162109 C42.4204102,9.31806641 42.3558105,9.15913086 42.3086426,8.98481445 C42.2614746,8.81049805 42.2132813,8.62900391 42.1640625,8.44033203 L40.7182617,2.69404297 L40.7182617,8.92021484 C40.7182617,9.26474609 40.6413574,9.52314453 40.4875488,9.69541016 C40.3337402,9.86767578 40.1296875,9.95380859 39.8753906,9.95380859 C39.6292969,9.95380859 39.4283203,9.86870117 39.2724609,9.69848633 C39.1166016,9.52827148 39.0386719,9.26884766 39.0386719,8.92021484 L39.0386719,1.78349609 C39.0386719,1.38974609 39.1412109,1.12416992 39.3462891,0.986767578 C39.5513672,0.849365234 39.8282227,0.780664062 40.1768555,0.780664062 L40.7428711,0.780664062 Z M5.94316406,0.780664062 C6.234375,0.780664062 6.45073242,0.845263672 6.59223633,0.974462891 C6.73374023,1.10366211 6.80449219,1.27285156 6.80449219,1.48203125 C6.80449219,1.6953125 6.73374023,1.86655273 6.59223633,1.99575195 C6.45073242,2.12495117 6.234375,2.18955078 5.94316406,2.18955078 L1.82724609,2.18955078 L1.82724609,4.40439453 L5.61708984,4.40439453 C5.89599609,4.40439453 6.10415039,4.46694336 6.24155273,4.59204102 C6.37895508,4.71713867 6.44765625,4.88222656 6.44765625,5.08730469 C6.44765625,5.29238281 6.37998047,5.45952148 6.24462891,5.5887207 C6.10927734,5.71791992 5.90009766,5.78251953 5.61708984,5.78251953 L1.82724609,5.78251953 L1.82724609,8.34804687 L6.08466797,8.34804687 C6.37177734,8.34804687 6.58813477,8.41469727 6.73374023,8.54799805 C6.8793457,8.68129883 6.95214844,8.85869141 6.95214844,9.08017578 C6.95214844,9.29345703 6.8793457,9.46674805 6.73374023,9.60004883 C6.58813477,9.73334961 6.37177734,9.8 6.08466797,9.8 L1.11972656,9.8 C0.721875,9.8 0.435791016,9.71181641 0.261474609,9.53544922 C0.0871582031,9.35908203 0,9.07402344 0,8.68027344 L0,1.90039062 C0,1.63789062 0.0389648437,1.42358398 0.116894531,1.2574707 C0.194824219,1.09135742 0.316845703,0.970361328 0.482958984,0.894482422 C0.649072266,0.818603516 0.861328125,0.780664062 1.11972656,0.780664062 L5.94316406,0.780664062 Z M24.9347656,2.07880859 C24.5697266,2.07880859 24.232373,2.14750977 23.9227051,2.28491211 C23.6130371,2.42231445 23.3464355,2.62226562 23.1229004,2.88476562 C22.8993652,3.14726562 22.722998,3.48256836 22.5937988,3.89067383 C22.4645996,4.2987793 22.4,4.75712891 22.4,5.26572266 C22.4,5.77841797 22.4645996,6.24189453 22.5937988,6.65615234 C22.722998,7.07041016 22.9055176,7.41391602 23.1413574,7.68666992 C23.3771973,7.95942383 23.6479004,8.16347656 23.9534668,8.29882812 C24.2590332,8.43417969 24.5943359,8.50185547 24.959375,8.50185547 C25.4269531,8.50185547 25.8565918,8.38496094 26.248291,8.15117187 C26.6399902,7.91738281 26.951709,7.55644531 27.1834473,7.06835937 C27.4151855,6.58027344 27.5310547,5.97939453 27.5310547,5.26572266 C27.5310547,4.60537109 27.4244141,4.03320312 27.2111328,3.54921875 C26.9978516,3.06523437 26.6933105,2.69916992 26.2975098,2.45102539 C25.901709,2.20288086 25.4474609,2.07880859 24.9347656,2.07880859 Z M9.47290039,4.2 C10.246099,4.2 10.8729004,4.82680135 10.8729004,5.6 C10.8729004,6.37319865 10.246099,7 9.47290039,7 C8.69970174,7 8.07290039,6.37319865 8.07290039,5.6 C8.07290039,4.82680135 8.69970174,4.2 9.47290039,4.2 Z M16.1047852,2.15263672 L14.419043,2.15263672 L14.419043,4.63203125 L16.0555664,4.63203125 C16.4944336,4.63203125 16.8635742,4.5940918 17.1629883,4.51821289 C17.4624023,4.44233398 17.6910645,4.31313477 17.8489746,4.13061523 C18.0068848,3.9480957 18.0858398,3.696875 18.0858398,3.37695312 C18.0858398,3.12675781 18.0222656,2.90629883 17.8951172,2.71557617 C17.7679687,2.52485352 17.5916016,2.38232422 17.3660156,2.28798828 C17.1527344,2.19775391 16.7323242,2.15263672 16.1047852,2.15263672 Z" id="icon_eroummarket"></path>
                </g>
            </g>
        </g>
    </g>
</svg>