<svg id="Group_17_Copy_2" data-name="Group 17 Copy 2" xmlns="http://www.w3.org/2000/svg" width="147.562" height="30.004" viewBox="0 0 147.562 30.004">
  <path id="Combined_Shape" data-name="Combined Shape" d="M64.633,30a2.254,2.254,0,0,1-1.522-.487l-.045-.036a.783.783,0,0,1-.118-.107,2.53,2.53,0,0,1-.555-1.737V22.7A.861.861,0,0,1,62.4,22.6a.851.851,0,0,0,.01-.1,2.441,2.441,0,0,1,.536-1.517.732.732,0,0,1,.117-.107l.046-.036a2.254,2.254,0,0,1,1.522-.487h5.228V18.4H60.323a1.718,1.718,0,1,1,0-3.435H83.936v-.01h.039a1.718,1.718,0,1,1,0,3.435H74.218v1.947h5.208a2.138,2.138,0,0,1,1.7.63,2.539,2.539,0,0,1,.554,1.737v5.058a2.514,2.514,0,0,1-.545,1.613.676.676,0,0,1-.112.1c-.021.015-.041.031-.06.047A2.191,2.191,0,0,1,79.436,30Zm2.547-3.436H77.425v-2.8H66.682v2.262c0,.233.039.373.124.438H66.8A.608.608,0,0,0,67.18,26.568Zm-47.607.754a.355.355,0,0,1-.01-.086V2.358l-.01.009a2.183,2.183,0,0,1,4.366,0V27.2a2.21,2.21,0,0,1-2.182,2.176A2.163,2.163,0,0,1,19.572,27.322Zm11.537-2.529a1.842,1.842,0,1,1,0-3.684h9.355V18.275H35.227a2.992,2.992,0,0,1-.814-.114,1.736,1.736,0,0,1-.881-.516,2.5,2.5,0,0,1-.555-1.727V11.061a2.518,2.518,0,0,1,.555-1.728,1.8,1.8,0,0,1,.881-.515,3.166,3.166,0,0,1,.785-.105H47.914V6.1H34.691a1.747,1.747,0,1,1,0-3.493H50.653c.076,0,.133.029.21.029a1.512,1.512,0,0,1,.881.334,1.325,1.325,0,0,1,.392,1.04v5.83a2.564,2.564,0,0,1-.554,1.727,2.152,2.152,0,0,1-1.7.63H37.19V14.21a.6.6,0,0,0,.124.457.553.553,0,0,0,.383.115H51.256a.377.377,0,0,1,.105-.01,1.742,1.742,0,0,1,.278,3.464,1.823,1.823,0,0,1-.327.039H44.841V21.11h9.7a1.837,1.837,0,0,1,.287,3.655,1.433,1.433,0,0,1-.3.029ZM0,11.767A8.4,8.4,0,0,1,14.32,5.852,8.367,8.367,0,0,1,8.388,20.137,8.389,8.389,0,0,1,0,11.767Zm3.839,0A4.548,4.548,0,1,0,8.388,7.234,4.546,4.546,0,0,0,3.839,11.767ZM65.006,6.986a7.009,7.009,0,1,1,7.009,6.986A7.005,7.005,0,0,1,65.006,6.986Zm3.792,0a3.217,3.217,0,1,0,3.218-3.207A3.215,3.215,0,0,0,68.8,6.986Z" fill="#fff"/>
  <path id="Fill_13" data-name="Fill 13" d="M28.275,14.042A14.141,14.141,0,0,0,.031,13.1,13.922,13.922,0,0,0,3.794,23.6a1.542,1.542,0,0,0,1.495.444l.051-.012a1.52,1.52,0,0,0,1.048-.87,8.489,8.489,0,0,1,4.836-4.5.666.666,0,0,0,.109-1.211,5.625,5.625,0,0,1-2.626-6.5,5.5,5.5,0,0,1,3.858-3.781,5.623,5.623,0,0,1,4.4,10.266.678.678,0,0,0,.1,1.237,8.435,8.435,0,0,1,4.811,4.492,1.538,1.538,0,0,0,1.041.87l.045.012a1.569,1.569,0,0,0,1.508-.451,13.906,13.906,0,0,0,3.795-9.548" transform="translate(91.79 2.858)" fill="#fff"/>
  <path id="Fill_15" data-name="Fill 15" d="M0,20.944V2.992A3,3,0,0,1,3,0H4.508A3.006,3.006,0,0,1,6.9,1.189l10.16,13.45V2.992a3,3,0,0,1,6,0V20.944a3,3,0,0,1-3,2.992H18.56a3,3,0,0,1-2.4-1.189L6,9.3V20.944a3,3,0,0,1-6,0" transform="translate(124.494 2.901)" fill="#fff"/>
</svg>
