<?xml version="1.0" encoding="UTF-8"?>
<svg id="_레이어_2" data-name="레이어 2" xmlns="http://www.w3.org/2000/svg" viewBox="0 0 139.2 83.6">
  <defs>
    <style>
      .cls-1 {
        fill: #ff8120;
      }

      .cls-1, .cls-2, .cls-3 {
        stroke-width: 0px;
      }

      .cls-2 {
        fill: #0031cb;
      }

      .cls-3 {
        fill: #fb7943;
      }
    </style>
  </defs>
  <g id="_레이어_1-2" data-name="레이어 1">
    <g>
      <g>
        <path class="cls-1" d="m31.77,3.83v40.41s0,.09.02.14c.09,1.86,1.63,3.33,3.51,3.33s3.55-1.58,3.55-3.53V3.84c0-1.95-1.59-3.53-3.55-3.53s-3.55,1.58-3.55,3.53"/>
        <path class="cls-1" d="m56.36,4.23h-.02c-1.59,0-2.86,1.27-2.86,2.84s1.29,2.84,2.86,2.84h21.48v4.25h-20.65c-.48,0-.9.08-1.28.17-.59.17-1.07.43-1.43.84-.61.68-.9,1.63-.9,2.81v7.89c0,1.19.3,2.12.9,2.81.36.4.84.68,1.43.84.39.11.82.19,1.32.19h8.51v4.6h-15.19c-1.66,0-3.02,1.35-3.02,2.99s1.35,2.99,3.02,2.99h38.04c.19,0,.33-.02.48-.05,1.45-.22,2.55-1.46,2.55-2.95,0-1.66-1.35-2.99-3.02-2.99h-15.75v-4.6h10.51c.19,0,.36-.03.53-.06,1.35-.22,2.41-1.38,2.41-2.79,0-1.57-1.28-2.84-2.86-2.84-.06,0-.11,0-.17.02h-22.02c-.28,0-.48-.06-.62-.19-.14-.12-.2-.36-.2-.74v-3.27h20.62c1.23,0,2.15-.34,2.75-1.02.59-.68.9-1.63.9-2.81V6.51c0-.74-.22-1.32-.64-1.69-.36-.33-.86-.48-1.43-.54-.12,0-.22-.05-.34-.05h-25.91Z"/>
        <path class="cls-1" d="m136.33,24.3h-38.35c-1.56,0-2.81,1.26-2.81,2.79s1.26,2.79,2.81,2.79h15.49v3.16h-8.49c-1.07,0-1.88.28-2.47.79-.09.08-.19.14-.26.23-.53.62-.82,1.44-.87,2.46,0,.11-.03.23-.03.34v8.01c0,1.19.3,2.14.9,2.82.08.09.17.15.26.23.59.51,1.4.79,2.47.79h24.04c1.07,0,1.88-.26,2.47-.79.09-.08.2-.14.28-.23.56-.65.86-1.52.89-2.62v-8.21c0-1.19-.3-2.14-.9-2.82-.59-.68-1.51-1.02-2.75-1.02h-8.46v-3.16h15.85c1.56,0,2.81-1.24,2.81-2.79s-1.26-2.79-2.81-2.79h-.06m-27.82,18.71c-.14-.11-.2-.34-.2-.71v-3.67h17.45v4.54h-16.64c-.28,0-.48-.05-.62-.15"/>
        <path class="cls-1" d="m0,19.11c0,7.5,6.1,13.59,13.62,13.59s13.62-6.08,13.62-13.59-6.1-13.58-13.62-13.58S0,11.61,0,19.11Zm6.24,0c0-4.06,3.31-7.36,7.39-7.36s7.39,3.3,7.39,7.36-3.31,7.36-7.39,7.36-7.39-3.3-7.39-7.36Z"/>
        <path class="cls-1" d="m105.58,11.35c0,6.28,5.1,11.35,11.38,11.35s11.38-5.08,11.38-11.35S123.25,0,116.97,0s-11.38,5.08-11.38,11.35Zm6.16,0c0-2.88,2.33-5.21,5.23-5.21s5.23,2.32,5.23,5.21-2.33,5.21-5.23,5.21-5.23-2.33-5.23-5.21Z"/>
      </g>
      <g>
        <path class="cls-3" d="m6.25,64.77c-.9-.55-2.04-1.88-2.41-3-.36,1.24-1.47,2.62-2.6,3.23l-.88-1.05c1.76-1.14,2.71-2.87,2.71-5.03v-1.67h1.49v1.59c0,2.16.87,3.79,2.52,4.86l-.83,1.07Zm1.65,2.48v-10.91h1.44v10.91h-1.44Z"/>
        <path class="cls-3" d="m18.14,64.02c-1.32.34-3.78.49-5.07.49h-1v-7.09h1.42v5.87c1.49,0,3.27-.14,4.47-.43l.18,1.15Zm2.34,3.22h-1.42v-10.91h1.42v10.91Z"/>
        <path class="cls-3" d="m25.53,57.08c1.78,0,2.82,1.61,2.82,3.91s-1.04,3.88-2.82,3.88-2.82-1.6-2.82-3.89,1.05-3.9,2.82-3.9Zm0,1.15c-.82,0-1.42,1.04-1.42,2.75s.6,2.74,1.42,2.74,1.45-1.02,1.45-2.74-.61-2.75-1.45-2.75Zm4.7,9.01v-5.7h-1.6v-1.21h1.6v-4.01h1.44v10.91h-1.44Z"/>
        <path class="cls-3" d="m42.31,64.59c-.71-.44-1.69-1.53-1.98-2.6-.3,1.14-1.13,2.27-2.14,2.88l-.84-.98c1.38-.9,2.28-2.54,2.28-4.87v-1.62h1.38v1.61c0,2.12.79,3.78,2.12,4.57l-.82,1.01Zm1.07,2.15v-5.48h-1.47v-1.16h1.47v-3.56h1.33v10.2h-1.33Zm2.15.51v-10.91h1.36v10.91h-1.36Z"/>
        <path class="cls-3" d="m50.53,63.49c1.12.03,2.43-.07,3.15-.25l.14,1.13c-.82.22-2.42.3-3.68.3h-1.04v-7.03h4.12v1.14c-.9,0-1.78-.01-2.69-.01v4.73Zm6.16,3.75v-5.47h-.97v4.96h-1.35v-10.21h1.35v4.11h.97v-4.3h1.37v10.91h-1.37Z"/>
        <path class="cls-3" d="m64.31,59.32h1.5v1.44h-1.5v-1.44Zm0,4.43h1.5v1.45h-1.5v-1.45Z"/>
      </g>
      <g>
        <path class="cls-2" d="m106.4,71.78c0-9.48-8.03-17.08-17.7-16.49-8.26.51-15,7.18-15.54,15.38-.32,4.79,1.43,9.16,4.43,12.36.44.48,1.12.68,1.76.52h.06c.55-.14,1.01-.52,1.23-1.04,1.09-2.44,3.15-4.37,5.69-5.29.64-.23.72-1.09.13-1.43-2.51-1.43-4-4.43-3.09-7.65.61-2.16,2.36-3.87,4.54-4.45,4.47-1.19,8.5,2.12,8.5,6.36,0,2.44-1.34,4.58-3.32,5.72-.61.35-.53,1.22.12,1.46,2.53.93,4.58,2.84,5.66,5.29.23.52.68.89,1.23,1.02h.05c.65.17,1.32-.04,1.77-.52,2.77-2.95,4.47-6.89,4.47-11.24"/>
        <path class="cls-2" d="m111.62,79.95v-21.13c0-1.94,1.58-3.52,3.53-3.52h1.77c1.1,0,2.15.52,2.82,1.4l11.96,15.83v-13.71c0-1.94,1.58-3.52,3.53-3.52s3.53,1.57,3.53,3.52v21.13c0,1.94-1.58,3.52-3.53,3.52h-1.77c-1.1,0-2.15-.52-2.82-1.4l-11.96-15.83v13.71c0,1.94-1.58,3.52-3.53,3.52s-3.53-1.57-3.53-3.52Z"/>
      </g>
      <g>
        <path class="cls-2" d="m2.93,72.2c1.8,0,2.83,1.61,2.83,3.91s-1.04,3.88-2.83,3.88-2.81-1.6-2.81-3.89,1.04-3.9,2.81-3.9Zm0,1.15c-.82,0-1.42,1.04-1.42,2.75s.6,2.74,1.42,2.74,1.46-1.02,1.46-2.74-.61-2.75-1.46-2.75Zm4.47,9.01v-10.91h1.43v10.91h-1.43Z"/>
        <path class="cls-2" d="m16.02,78.17v1.7h4.24v1.14h-9.85v-1.14h4.19v-1.7h-2.94v-3.61h5.93v-1.25h-5.99v-1.14h7.41v3.53h-5.93v1.32h6.24v1.15h-3.3Z"/>
        <path class="cls-2" d="m22.25,82.23v-3.68h2.94v-.92h-4.19v-1.15h9.85v1.15h-4.24v.92h2.98v3.68h-7.34Zm3.67-10.54c2.45,0,3.82.89,3.82,2.09s-1.37,2.12-3.81,2.12-3.82-.9-3.82-2.12,1.37-2.09,3.81-2.09Zm0,3.11c1.44,0,2.35-.4,2.35-1s-.86-1-2.35-1-2.34.39-2.34,1,.86,1,2.34,1Zm2.26,4.85h-4.5v1.49h4.5v-1.49Z"/>
        <path class="cls-2" d="m31.59,77.2v-1.14h9.85v1.14h-9.85Zm4.95-5.58c2.46,0,3.86.77,3.86,1.96s-1.39,1.96-3.86,1.96-3.86-.78-3.86-1.96,1.38-1.96,3.86-1.96Zm-3.78,10.7v-2.78h5.96v-.62h-5.95v-1.12h7.38v2.75h-5.95v.6h6.34v1.17h-7.78Zm3.78-7.86c1.52,0,2.38-.39,2.38-.89s-.86-.86-2.38-.86-2.38.37-2.38.86.86.89,2.38.89Z"/>
        <path class="cls-2" d="m50.89,72.57c-.01,3.66-1.6,6.28-4.85,7.98-.3-.33-.55-.72-.85-1.07,1.52-.69,2.76-1.8,3.49-3.21-1.01.12-2.03.23-3.04.33l-.2-1.23,3.69-.28c.13-.43.2-.88.23-1.33h-3.4v-1.19h4.92Zm2.11,4.68v-1.63h-1.97v-1.21h1.97v-2.96h1.43v10.91h-1.43v-3.9h-2.13v-1.21h2.13Z"/>
        <path class="cls-2" d="m57.83,78.66c1.55,0,3.07-.05,4.3-.33l.16,1.14c-1.06.26-2.7.37-4.83.37h-1.06v-7.38h4.98v1.15h-3.56v5.05Zm6.68-3.08h1.57v1.19h-1.57v5.61h-1.43v-10.91h1.43v4.12Z"/>
      </g>
    </g>
  </g>
</svg>