<?xml version="1.0" encoding="UTF-8"?>
<svg width="32px" height="655px" viewBox="0 0 32 655" version="1.1" xmlns="http://www.w3.org/2000/svg" xmlns:xlink="http://www.w3.org/1999/xlink">
    <title>Group@3x</title>
    <g id="intro" stroke="none" stroke-width="1" fill="none" fill-rule="evenodd">
        <g id="Artboard" fill-rule="nonzero">
            <g id="Group" transform="translate(0.643750, 0.312500)">
                <g id="8-8-8-8-8-8-8-8-8-8" fill="#FFFFFF" opacity="0.0700000003">
                    <path d="M0,29.296875 L1.953125,27.34375 L7.8125,33.203125 L7.8125,44.921875 L1.953125,50.78125 L0,48.828125 L0,29.296875 Z M0,5.859375 L1.953125,3.90625 L7.8125,9.765625 L7.8125,21.484375 L1.953125,27.34375 L0,25.390625 L0,5.859375 Z M25.390625,0 L27.34375,1.953125 L21.484375,7.8125 L9.765625,7.8125 L3.90625,1.953125 L5.859375,0 L25.390625,0 Z M31.25,25.390625 L29.296875,27.34375 L23.4375,21.484375 L23.4375,9.765625 L29.296875,3.90625 L31.25,5.859375 L31.25,25.390625 Z M31.25,48.828125 L29.296875,50.78125 L23.4375,44.921875 L23.4375,33.203125 L29.296875,27.34375 L31.25,29.296875 L31.25,48.828125 Z M5.859375,54.6875 L3.90625,52.734375 L9.765625,46.875 L21.484375,46.875 L27.34375,52.734375 L25.390625,54.6875 L5.859375,54.6875 Z M5.859375,27.34375 L9.765625,23.4375 L21.484375,23.4375 L25.390625,27.34375 L21.484375,31.25 L9.765625,31.25 L5.859375,27.34375 Z" id="Shape"></path>
                    <path d="M0,89.296875 L1.953125,87.34375 L7.8125,93.203125 L7.8125,104.921875 L1.953125,110.78125 L0,108.828125 L0,89.296875 Z M0,65.859375 L1.953125,63.90625 L7.8125,69.765625 L7.8125,81.484375 L1.953125,87.34375 L0,85.390625 L0,65.859375 Z M25.390625,60 L27.34375,61.953125 L21.484375,67.8125 L9.765625,67.8125 L3.90625,61.953125 L5.859375,60 L25.390625,60 Z M31.25,85.390625 L29.296875,87.34375 L23.4375,81.484375 L23.4375,69.765625 L29.296875,63.90625 L31.25,65.859375 L31.25,85.390625 Z M31.25,108.828125 L29.296875,110.78125 L23.4375,104.921875 L23.4375,93.203125 L29.296875,87.34375 L31.25,89.296875 L31.25,108.828125 Z M5.859375,114.6875 L3.90625,112.734375 L9.765625,106.875 L21.484375,106.875 L27.34375,112.734375 L25.390625,114.6875 L5.859375,114.6875 Z M5.859375,87.34375 L9.765625,83.4375 L21.484375,83.4375 L25.390625,87.34375 L21.484375,91.25 L9.765625,91.25 L5.859375,87.34375 Z" id="Shape"></path>
                    <path d="M0,149.296875 L1.953125,147.34375 L7.8125,153.203125 L7.8125,164.921875 L1.953125,170.78125 L0,168.828125 L0,149.296875 Z M0,125.859375 L1.953125,123.90625 L7.8125,129.765625 L7.8125,141.484375 L1.953125,147.34375 L0,145.390625 L0,125.859375 Z M25.390625,120 L27.34375,121.953125 L21.484375,127.8125 L9.765625,127.8125 L3.90625,121.953125 L5.859375,120 L25.390625,120 Z M31.25,145.390625 L29.296875,147.34375 L23.4375,141.484375 L23.4375,129.765625 L29.296875,123.90625 L31.25,125.859375 L31.25,145.390625 Z M31.25,168.828125 L29.296875,170.78125 L23.4375,164.921875 L23.4375,153.203125 L29.296875,147.34375 L31.25,149.296875 L31.25,168.828125 Z M5.859375,174.6875 L3.90625,172.734375 L9.765625,166.875 L21.484375,166.875 L27.34375,172.734375 L25.390625,174.6875 L5.859375,174.6875 Z M5.859375,147.34375 L9.765625,143.4375 L21.484375,143.4375 L25.390625,147.34375 L21.484375,151.25 L9.765625,151.25 L5.859375,147.34375 Z" id="Shape"></path>
                    <path d="M0,209.296875 L1.953125,207.34375 L7.8125,213.203125 L7.8125,224.921875 L1.953125,230.78125 L0,228.828125 L0,209.296875 Z M0,185.859375 L1.953125,183.90625 L7.8125,189.765625 L7.8125,201.484375 L1.953125,207.34375 L0,205.390625 L0,185.859375 Z M25.390625,180 L27.34375,181.953125 L21.484375,187.8125 L9.765625,187.8125 L3.90625,181.953125 L5.859375,180 L25.390625,180 Z M31.25,205.390625 L29.296875,207.34375 L23.4375,201.484375 L23.4375,189.765625 L29.296875,183.90625 L31.25,185.859375 L31.25,205.390625 Z M31.25,228.828125 L29.296875,230.78125 L23.4375,224.921875 L23.4375,213.203125 L29.296875,207.34375 L31.25,209.296875 L31.25,228.828125 Z M5.859375,234.6875 L3.90625,232.734375 L9.765625,226.875 L21.484375,226.875 L27.34375,232.734375 L25.390625,234.6875 L5.859375,234.6875 Z M5.859375,207.34375 L9.765625,203.4375 L21.484375,203.4375 L25.390625,207.34375 L21.484375,211.25 L9.765625,211.25 L5.859375,207.34375 Z" id="Shape"></path>
                    <path d="M0,269.296875 L1.953125,267.34375 L7.8125,273.203125 L7.8125,284.921875 L1.953125,290.78125 L0,288.828125 L0,269.296875 Z M0,245.859375 L1.953125,243.90625 L7.8125,249.765625 L7.8125,261.484375 L1.953125,267.34375 L0,265.390625 L0,245.859375 Z M25.390625,240 L27.34375,241.953125 L21.484375,247.8125 L9.765625,247.8125 L3.90625,241.953125 L5.859375,240 L25.390625,240 Z M31.25,265.390625 L29.296875,267.34375 L23.4375,261.484375 L23.4375,249.765625 L29.296875,243.90625 L31.25,245.859375 L31.25,265.390625 Z M31.25,288.828125 L29.296875,290.78125 L23.4375,284.921875 L23.4375,273.203125 L29.296875,267.34375 L31.25,269.296875 L31.25,288.828125 Z M5.859375,294.6875 L3.90625,292.734375 L9.765625,286.875 L21.484375,286.875 L27.34375,292.734375 L25.390625,294.6875 L5.859375,294.6875 Z M5.859375,267.34375 L9.765625,263.4375 L21.484375,263.4375 L25.390625,267.34375 L21.484375,271.25 L9.765625,271.25 L5.859375,267.34375 Z" id="Shape"></path>
                    <path d="M0,329.296875 L1.953125,327.34375 L7.8125,333.203125 L7.8125,344.921875 L1.953125,350.78125 L0,348.828125 L0,329.296875 Z M0,305.859375 L1.953125,303.90625 L7.8125,309.765625 L7.8125,321.484375 L1.953125,327.34375 L0,325.390625 L0,305.859375 Z M25.390625,300 L27.34375,301.953125 L21.484375,307.8125 L9.765625,307.8125 L3.90625,301.953125 L5.859375,300 L25.390625,300 Z M31.25,325.390625 L29.296875,327.34375 L23.4375,321.484375 L23.4375,309.765625 L29.296875,303.90625 L31.25,305.859375 L31.25,325.390625 Z M31.25,348.828125 L29.296875,350.78125 L23.4375,344.921875 L23.4375,333.203125 L29.296875,327.34375 L31.25,329.296875 L31.25,348.828125 Z M5.859375,354.6875 L3.90625,352.734375 L9.765625,346.875 L21.484375,346.875 L27.34375,352.734375 L25.390625,354.6875 L5.859375,354.6875 Z M5.859375,327.34375 L9.765625,323.4375 L21.484375,323.4375 L25.390625,327.34375 L21.484375,331.25 L9.765625,331.25 L5.859375,327.34375 Z" id="Shape"></path>
                    <path d="M0,389.296875 L1.953125,387.34375 L7.8125,393.203125 L7.8125,404.921875 L1.953125,410.78125 L0,408.828125 L0,389.296875 Z M0,365.859375 L1.953125,363.90625 L7.8125,369.765625 L7.8125,381.484375 L1.953125,387.34375 L0,385.390625 L0,365.859375 Z M25.390625,360 L27.34375,361.953125 L21.484375,367.8125 L9.765625,367.8125 L3.90625,361.953125 L5.859375,360 L25.390625,360 Z M31.25,385.390625 L29.296875,387.34375 L23.4375,381.484375 L23.4375,369.765625 L29.296875,363.90625 L31.25,365.859375 L31.25,385.390625 Z M31.25,408.828125 L29.296875,410.78125 L23.4375,404.921875 L23.4375,393.203125 L29.296875,387.34375 L31.25,389.296875 L31.25,408.828125 Z M5.859375,414.6875 L3.90625,412.734375 L9.765625,406.875 L21.484375,406.875 L27.34375,412.734375 L25.390625,414.6875 L5.859375,414.6875 Z M5.859375,387.34375 L9.765625,383.4375 L21.484375,383.4375 L25.390625,387.34375 L21.484375,391.25 L9.765625,391.25 L5.859375,387.34375 Z" id="Shape"></path>
                    <path d="M0,449.296875 L1.953125,447.34375 L7.8125,453.203125 L7.8125,464.921875 L1.953125,470.78125 L0,468.828125 L0,449.296875 Z M0,425.859375 L1.953125,423.90625 L7.8125,429.765625 L7.8125,441.484375 L1.953125,447.34375 L0,445.390625 L0,425.859375 Z M25.390625,420 L27.34375,421.953125 L21.484375,427.8125 L9.765625,427.8125 L3.90625,421.953125 L5.859375,420 L25.390625,420 Z M31.25,445.390625 L29.296875,447.34375 L23.4375,441.484375 L23.4375,429.765625 L29.296875,423.90625 L31.25,425.859375 L31.25,445.390625 Z M31.25,468.828125 L29.296875,470.78125 L23.4375,464.921875 L23.4375,453.203125 L29.296875,447.34375 L31.25,449.296875 L31.25,468.828125 Z M5.859375,474.6875 L3.90625,472.734375 L9.765625,466.875 L21.484375,466.875 L27.34375,472.734375 L25.390625,474.6875 L5.859375,474.6875 Z M5.859375,447.34375 L9.765625,443.4375 L21.484375,443.4375 L25.390625,447.34375 L21.484375,451.25 L9.765625,451.25 L5.859375,447.34375 Z" id="Shape"></path>
                    <path d="M0,509.296875 L1.953125,507.34375 L7.8125,513.203125 L7.8125,524.921875 L1.953125,530.78125 L0,528.828125 L0,509.296875 Z M0,485.859375 L1.953125,483.90625 L7.8125,489.765625 L7.8125,501.484375 L1.953125,507.34375 L0,505.390625 L0,485.859375 Z M25.390625,480 L27.34375,481.953125 L21.484375,487.8125 L9.765625,487.8125 L3.90625,481.953125 L5.859375,480 L25.390625,480 Z M31.25,505.390625 L29.296875,507.34375 L23.4375,501.484375 L23.4375,489.765625 L29.296875,483.90625 L31.25,485.859375 L31.25,505.390625 Z M31.25,528.828125 L29.296875,530.78125 L23.4375,524.921875 L23.4375,513.203125 L29.296875,507.34375 L31.25,509.296875 L31.25,528.828125 Z M5.859375,534.6875 L3.90625,532.734375 L9.765625,526.875 L21.484375,526.875 L27.34375,532.734375 L25.390625,534.6875 L5.859375,534.6875 Z M5.859375,507.34375 L9.765625,503.4375 L21.484375,503.4375 L25.390625,507.34375 L21.484375,511.25 L9.765625,511.25 L5.859375,507.34375 Z" id="Shape"></path>
                    <path d="M0,569.296875 L1.953125,567.34375 L7.8125,573.203125 L7.8125,584.921875 L1.953125,590.78125 L0,588.828125 L0,569.296875 Z M0,545.859375 L1.953125,543.90625 L7.8125,549.765625 L7.8125,561.484375 L1.953125,567.34375 L0,565.390625 L0,545.859375 Z M25.390625,540 L27.34375,541.953125 L21.484375,547.8125 L9.765625,547.8125 L3.90625,541.953125 L5.859375,540 L25.390625,540 Z M31.25,565.390625 L29.296875,567.34375 L23.4375,561.484375 L23.4375,549.765625 L29.296875,543.90625 L31.25,545.859375 L31.25,565.390625 Z M31.25,588.828125 L29.296875,590.78125 L23.4375,584.921875 L23.4375,573.203125 L29.296875,567.34375 L31.25,569.296875 L31.25,588.828125 Z M5.859375,594.6875 L3.90625,592.734375 L9.765625,586.875 L21.484375,586.875 L27.34375,592.734375 L25.390625,594.6875 L5.859375,594.6875 Z M5.859375,567.34375 L9.765625,563.4375 L21.484375,563.4375 L25.390625,567.34375 L21.484375,571.25 L9.765625,571.25 L5.859375,567.34375 Z" id="Shape"></path>
                    <path d="M0,629.296875 L1.953125,627.34375 L7.8125,633.203125 L7.8125,644.921875 L1.953125,650.78125 L0,648.828125 L0,629.296875 Z M0,605.859375 L1.953125,603.90625 L7.8125,609.765625 L7.8125,621.484375 L1.953125,627.34375 L0,625.390625 L0,605.859375 Z M25.390625,600 L27.34375,601.953125 L21.484375,607.8125 L9.765625,607.8125 L3.90625,601.953125 L5.859375,600 L25.390625,600 Z M31.25,625.390625 L29.296875,627.34375 L23.4375,621.484375 L23.4375,609.765625 L29.296875,603.90625 L31.25,605.859375 L31.25,625.390625 Z M31.25,648.828125 L29.296875,650.78125 L23.4375,644.921875 L23.4375,633.203125 L29.296875,627.34375 L31.25,629.296875 L31.25,648.828125 Z M5.859375,654.6875 L3.90625,652.734375 L9.765625,646.875 L21.484375,646.875 L27.34375,652.734375 L25.390625,654.6875 L5.859375,654.6875 Z M5.859375,627.34375 L9.765625,623.4375 L21.484375,623.4375 L25.390625,627.34375 L21.484375,631.25 L9.765625,631.25 L5.859375,627.34375 Z" id="Shape"></path>
                </g>
                <g id="0-1-2-3-4-5-6-7-8-9" transform="translate(0.000000, 60.000000)" fill="rgba(255,255,255,0.05)">
                    <path d="M0,29.296875 L1.953125,27.34375 L7.8125,33.203125 L7.8125,44.921875 L1.953125,50.78125 L0,48.828125 L0,29.296875 Z M0,5.859375 L1.953125,3.90625 L7.8125,9.765625 L7.8125,21.484375 L1.953125,27.34375 L0,25.390625 L0,5.859375 Z M25.390625,0 L27.34375,1.953125 L21.484375,7.8125 L9.765625,7.8125 L3.90625,1.953125 L5.859375,0 L25.390625,0 Z M31.25,25.390625 L29.296875,27.34375 L23.4375,21.484375 L23.4375,9.765625 L29.296875,3.90625 L31.25,5.859375 L31.25,25.390625 Z M31.25,48.828125 L29.296875,50.78125 L23.4375,44.921875 L23.4375,33.203125 L29.296875,27.34375 L31.25,29.296875 L31.25,48.828125 Z M5.859375,54.6875 L3.90625,52.734375 L9.765625,46.875 L21.484375,46.875 L27.34375,52.734375 L25.390625,54.6875 L5.859375,54.6875 Z" id="Shape"></path>
                    <path d="M31.25,85.390625 L29.296875,87.34375 L23.4375,81.484375 L23.4375,69.765625 L29.296875,63.90625 L31.25,65.859375 L31.25,85.390625 Z M31.25,108.828125 L29.296875,110.78125 L23.4375,104.921875 L23.4375,93.203125 L29.296875,87.34375 L31.25,89.296875 L31.25,108.828125 Z" id="Shape"></path>
                    <path d="M0,149.296875 L1.953125,147.34375 L7.8125,153.203125 L7.8125,164.921875 L1.953125,170.78125 L0,168.828125 L0,149.296875 Z M25.390625,120 L27.34375,121.953125 L21.484375,127.8125 L9.765625,127.8125 L3.90625,121.953125 L5.859375,120 L25.390625,120 Z M31.25,145.390625 L29.296875,147.34375 L23.4375,141.484375 L23.4375,129.765625 L29.296875,123.90625 L31.25,125.859375 L31.25,145.390625 Z M5.859375,174.6875 L3.90625,172.734375 L9.765625,166.875 L21.484375,166.875 L27.34375,172.734375 L25.390625,174.6875 L5.859375,174.6875 Z M5.859375,147.34375 L9.765625,143.4375 L21.484375,143.4375 L25.390625,147.34375 L21.484375,151.25 L9.765625,151.25 L5.859375,147.34375 Z" id="Shape"></path>
                    <path d="M25.390625,180 L27.34375,181.953125 L21.484375,187.8125 L9.765625,187.8125 L3.90625,181.953125 L5.859375,180 L25.390625,180 Z M31.25,205.390625 L29.296875,207.34375 L23.4375,201.484375 L23.4375,189.765625 L29.296875,183.90625 L31.25,185.859375 L31.25,205.390625 Z M31.25,228.828125 L29.296875,230.78125 L23.4375,224.921875 L23.4375,213.203125 L29.296875,207.34375 L31.25,209.296875 L31.25,228.828125 Z M5.859375,234.6875 L3.90625,232.734375 L9.765625,226.875 L21.484375,226.875 L27.34375,232.734375 L25.390625,234.6875 L5.859375,234.6875 Z M5.859375,207.34375 L9.765625,203.4375 L21.484375,203.4375 L25.390625,207.34375 L21.484375,211.25 L9.765625,211.25 L5.859375,207.34375 Z" id="Shape"></path>
                    <path d="M0,245.859375 L1.953125,243.90625 L7.8125,249.765625 L7.8125,261.484375 L1.953125,267.34375 L0,265.390625 L0,245.859375 Z M31.25,265.390625 L29.296875,267.34375 L23.4375,261.484375 L23.4375,249.765625 L29.296875,243.90625 L31.25,245.859375 L31.25,265.390625 Z M31.25,288.828125 L29.296875,290.78125 L23.4375,284.921875 L23.4375,273.203125 L29.296875,267.34375 L31.25,269.296875 L31.25,288.828125 Z M5.859375,267.34375 L9.765625,263.4375 L21.484375,263.4375 L25.390625,267.34375 L21.484375,271.25 L9.765625,271.25 L5.859375,267.34375 Z" id="Shape"></path>
                    <path d="M0,305.859375 L1.953125,303.90625 L7.8125,309.765625 L7.8125,321.484375 L1.953125,327.34375 L0,325.390625 L0,305.859375 Z M25.390625,300 L27.34375,301.953125 L21.484375,307.8125 L9.765625,307.8125 L3.90625,301.953125 L5.859375,300 L25.390625,300 Z M31.25,348.828125 L29.296875,350.78125 L23.4375,344.921875 L23.4375,333.203125 L29.296875,327.34375 L31.25,329.296875 L31.25,348.828125 Z M5.859375,354.6875 L3.90625,352.734375 L9.765625,346.875 L21.484375,346.875 L27.34375,352.734375 L25.390625,354.6875 L5.859375,354.6875 Z M5.859375,327.34375 L9.765625,323.4375 L21.484375,323.4375 L25.390625,327.34375 L21.484375,331.25 L9.765625,331.25 L5.859375,327.34375 Z" id="Shape"></path>
                    <path d="M0,389.296875 L1.953125,387.34375 L7.8125,393.203125 L7.8125,404.921875 L1.953125,410.78125 L0,408.828125 L0,389.296875 Z M0,365.859375 L1.953125,363.90625 L7.8125,369.765625 L7.8125,381.484375 L1.953125,387.34375 L0,385.390625 L0,365.859375 Z M25.390625,360 L27.34375,361.953125 L21.484375,367.8125 L9.765625,367.8125 L3.90625,361.953125 L5.859375,360 L25.390625,360 Z M31.25,408.828125 L29.296875,410.78125 L23.4375,404.921875 L23.4375,393.203125 L29.296875,387.34375 L31.25,389.296875 L31.25,408.828125 Z M5.859375,414.6875 L3.90625,412.734375 L9.765625,406.875 L21.484375,406.875 L27.34375,412.734375 L25.390625,414.6875 L5.859375,414.6875 Z M5.859375,387.34375 L9.765625,383.4375 L21.484375,383.4375 L25.390625,387.34375 L21.484375,391.25 L9.765625,391.25 L5.859375,387.34375 Z" id="Shape"></path>
                    <path d="M0,425.859375 L1.953125,423.90625 L7.8125,429.765625 L7.8125,441.484375 L1.953125,447.34375 L0,445.390625 L0,425.859375 Z M25.390625,420 L27.34375,421.953125 L21.484375,427.8125 L9.765625,427.8125 L3.90625,421.953125 L5.859375,420 L25.390625,420 Z M31.25,445.390625 L29.296875,447.34375 L23.4375,441.484375 L23.4375,429.765625 L29.296875,423.90625 L31.25,425.859375 L31.25,445.390625 Z M31.25,468.828125 L29.296875,470.78125 L23.4375,464.921875 L23.4375,453.203125 L29.296875,447.34375 L31.25,449.296875 L31.25,468.828125 Z" id="Shape"></path>
                    <path d="M0,509.296875 L1.953125,507.34375 L7.8125,513.203125 L7.8125,524.921875 L1.953125,530.78125 L0,528.828125 L0,509.296875 Z M0,485.859375 L1.953125,483.90625 L7.8125,489.765625 L7.8125,501.484375 L1.953125,507.34375 L0,505.390625 L0,485.859375 Z M25.390625,480 L27.34375,481.953125 L21.484375,487.8125 L9.765625,487.8125 L3.90625,481.953125 L5.859375,480 L25.390625,480 Z M31.25,505.390625 L29.296875,507.34375 L23.4375,501.484375 L23.4375,489.765625 L29.296875,483.90625 L31.25,485.859375 L31.25,505.390625 Z M31.25,528.828125 L29.296875,530.78125 L23.4375,524.921875 L23.4375,513.203125 L29.296875,507.34375 L31.25,509.296875 L31.25,528.828125 Z M5.859375,534.6875 L3.90625,532.734375 L9.765625,526.875 L21.484375,526.875 L27.34375,532.734375 L25.390625,534.6875 L5.859375,534.6875 Z M5.859375,507.34375 L9.765625,503.4375 L21.484375,503.4375 L25.390625,507.34375 L21.484375,511.25 L9.765625,511.25 L5.859375,507.34375 Z" id="Shape"></path>
                    <path d="M0,545.859375 L1.953125,543.90625 L7.8125,549.765625 L7.8125,561.484375 L1.953125,567.34375 L0,565.390625 L0,545.859375 Z M25.390625,540 L27.34375,541.953125 L21.484375,547.8125 L9.765625,547.8125 L3.90625,541.953125 L5.859375,540 L25.390625,540 Z M31.25,565.390625 L29.296875,567.34375 L23.4375,561.484375 L23.4375,549.765625 L29.296875,543.90625 L31.25,545.859375 L31.25,565.390625 Z M31.25,588.828125 L29.296875,590.78125 L23.4375,584.921875 L23.4375,573.203125 L29.296875,567.34375 L31.25,569.296875 L31.25,588.828125 Z M5.859375,594.6875 L3.90625,592.734375 L9.765625,586.875 L21.484375,586.875 L27.34375,592.734375 L25.390625,594.6875 L5.859375,594.6875 Z M5.859375,567.34375 L9.765625,563.4375 L21.484375,563.4375 L25.390625,567.34375 L21.484375,571.25 L9.765625,571.25 L5.859375,567.34375 Z" id="Shape"></path>
                </g>
            </g>
        </g>
    </g>
</svg>