<svg xmlns="http://www.w3.org/2000/svg" width="34.328" height="45.581" viewBox="0 0 34.328 45.581">
  <path id="p" d="M5.117,45.581H0V0H13.416a33.471,33.471,0,0,1,8.167.957,19.3,19.3,0,0,1,6.628,3.007,14.4,14.4,0,0,1,4.477,5.364,18.054,18.054,0,0,1,1.64,8.03,18.054,18.054,0,0,1-1.64,8.03,14.4,14.4,0,0,1-4.477,5.364,19.3,19.3,0,0,1-6.628,3.007,33.471,33.471,0,0,1-8.167.957V45.58H8.134V29.9h5.143a22.926,22.926,0,0,0,6.028-.758,14.13,14.13,0,0,0,4.8-2.274,10.258,10.258,0,0,0,3.141-3.9,13.192,13.192,0,0,0,1.119-5.631,13.186,13.186,0,0,0-1.119-5.631,10.252,10.252,0,0,0-3.141-3.9,14.165,14.165,0,0,0-4.8-2.274,22.965,22.965,0,0,0-6.028-.758H5.118v40.8h0Zm3-18.622V7.6h5.615a19.75,19.75,0,0,1,4.421.483A10.937,10.937,0,0,1,21.86,9.662a7.948,7.948,0,0,1,2.582,2.969,10.092,10.092,0,0,1,.968,4.647,10.092,10.092,0,0,1-.968,4.647,7.933,7.933,0,0,1-2.582,2.969,10.942,10.942,0,0,1-3.711,1.581,19.679,19.679,0,0,1-4.421.484Zm5.3-4.545h.616a5.522,5.522,0,0,0,4.135-1.333,5.218,5.218,0,0,0,1.264-3.724,5.218,5.218,0,0,0-1.264-3.724A5.522,5.522,0,0,0,14.032,12.3h-.616Z" fill="#333"/>
</svg>
