<svg width="68" height="68" viewBox="0 0 68 68" fill="none" xmlns="http://www.w3.org/2000/svg">
<g opacity="0.3">
<path d="M31.4653 42.4539C36.3169 42.4539 40.2498 38.5209 40.2498 33.6694C40.2498 28.8178 36.3169 24.8848 31.4653 24.8848C26.6138 24.8848 22.6808 28.8178 22.6808 33.6694C22.6808 38.5209 26.6138 42.4539 31.4653 42.4539Z" fill="#FFC77D"/>
<path d="M18.9018 60.8848C17.1449 60.8848 15.7195 59.592 15.7195 58.0009C15.7195 49.4152 22.8134 42.3545 31.4653 42.3545C40.1173 42.3545 47.2112 49.3821 47.2112 58.0009C47.2112 59.592 45.7858 60.8848 44.0289 60.8848H18.935H18.9018Z" fill="#EEEEEE"/>
<path d="M49.0852 6.86473C49.0852 6.86473 49.012 6.76725 48.9633 6.71851C48.9146 6.79162 48.8414 6.86473 48.7927 6.93784C46.5994 10.8127 41.3597 13.6153 35.1453 13.9078V21.7063C35.1453 36.2555 48.9633 39.7404 48.9633 39.7404C48.9633 39.7404 62.7813 36.2555 62.7813 21.7063V13.9078C56.5181 13.6153 51.2541 10.7884 49.0852 6.86473Z" fill="url(#paint0_linear_1994_23727)"/>
<path d="M42.7976 23.3391L47.2818 28.2132L55.6408 20.0004" stroke="white" stroke-width="2.25" stroke-linecap="round" stroke-linejoin="round"/>
</g>
<defs>
<linearGradient id="paint0_linear_1994_23727" x1="42.9179" y1="12.5661" x2="59.546" y2="32.8351" gradientUnits="userSpaceOnUse">
<stop stop-color="#FF8120"/>
<stop offset="1" stop-color="#E54304"/>
</linearGradient>
</defs>
</svg>
