<svg width="68" height="68" viewBox="0 0 68 68" fill="none" xmlns="http://www.w3.org/2000/svg">
<g opacity="0.3">
<path fill-rule="evenodd" clip-rule="evenodd" d="M30.9419 11.807C28.9966 11.807 27.3413 13.2242 27.0417 15.1463L26.9879 15.4911H29.7623C32.8841 15.4911 35.6584 17.4813 36.6589 20.4384L39.7337 29.5263H50.4013L45.49 14.5261C44.9589 12.904 43.4454 11.807 41.7386 11.807H30.9419ZM51.5998 33.1867L58.4693 54.1674C58.7557 55.0422 59.6971 55.5192 60.5718 55.2328C61.4466 54.9463 61.9236 54.005 61.6372 53.1302L48.6578 13.4889C47.6782 10.497 44.8867 8.47369 41.7386 8.47369H30.9419C27.3539 8.47369 24.3008 11.0876 23.7481 14.6327L23.6143 15.4911H18.899C15.3251 15.4911 12.2795 18.0852 11.7111 21.6137L5.68809 58.9976C5.54168 59.9064 6.15969 60.7618 7.06844 60.9082C7.9772 61.0546 8.83258 60.4366 8.97899 59.5278L11.9665 40.9848C12.0848 41.0114 12.2078 41.0255 12.3341 41.0255H19.6331L17.705 53.3921C17.5632 54.3016 18.1855 55.1538 19.095 55.2956C20.0045 55.4374 20.8567 54.8151 20.9985 53.9056L23.0067 41.0255H40.1053L46.4563 59.7969C46.7513 60.6688 47.6972 61.1365 48.5692 60.8415C49.4411 60.5465 49.9088 59.6005 49.6138 58.7286L43.6242 41.0255H44.3472C44.8447 41.0255 45.3162 40.8032 45.6328 40.4194L51.5998 33.1867ZM42.4964 37.6921H43.5616L47.5483 32.8597H40.8615L42.4964 37.6921ZM36.2147 29.5263L33.5014 21.5067C32.959 19.9035 31.4548 18.8244 29.7623 18.8244H26.4682L24.7996 29.5263H36.2147ZM24.2799 32.8597H37.3425L38.9775 37.6921H23.5264L24.2799 32.8597ZM20.1528 37.6921L23.0946 18.8244H18.899C16.9613 18.8244 15.3102 20.2309 15.002 22.1439L12.497 37.6921H20.1528Z" fill="#BDBDBD"/>
<path d="M29.1761 9.715C29.1761 8.39963 30.2425 7.33331 31.5578 7.33331H40.2681C41.5834 7.33331 42.6497 8.39963 42.6497 9.715V9.715C42.6497 11.0304 41.5834 12.0967 40.2681 12.0967H31.5578C30.2425 12.0967 29.1761 11.0304 29.1761 9.715V9.715Z" fill="url(#paint0_linear_1994_23731)"/>
<path d="M17.1592 16.7325C17.1592 15.4171 18.2255 14.3508 19.5409 14.3508H28.2511C29.5665 14.3508 30.6328 15.4171 30.6328 16.7325V16.7325C30.6328 18.0478 29.5665 19.1141 28.2511 19.1141H19.5409C18.2255 19.1141 17.1592 18.0478 17.1592 16.7325V16.7325Z" fill="url(#paint1_linear_1994_23731)"/>
<ellipse cx="48.0371" cy="58.9646" rx="1.6842" ry="1.7012" fill="#333333"/>
<ellipse cx="7.61633" cy="58.9648" rx="1.6842" ry="1.7012" fill="#333333"/>
<ellipse cx="60.3339" cy="53.9466" rx="1.6842" ry="1.7012" fill="#333333"/>
<ellipse cx="19.2117" cy="53.9466" rx="1.6842" ry="1.7012" fill="#333333"/>
</g>
<defs>
<linearGradient id="paint0_linear_1994_23731" x1="32.9656" y1="8.17683" x2="34.0868" y2="12.7962" gradientUnits="userSpaceOnUse">
<stop stop-color="#FF8120"/>
<stop offset="1" stop-color="#E54304"/>
</linearGradient>
<linearGradient id="paint1_linear_1994_23731" x1="20.9486" y1="15.1943" x2="22.0699" y2="19.8136" gradientUnits="userSpaceOnUse">
<stop stop-color="#FF8120"/>
<stop offset="1" stop-color="#E54304"/>
</linearGradient>
</defs>
</svg>
