<svg width="300.000000" height="520.000000" viewBox="0 0 300 520" fill="none" xmlns="http://www.w3.org/2000/svg" xmlns:xlink="http://www.w3.org/1999/xlink">
	<defs>
		<clipPath id="clip2149_11825">
			<rect id="_寃⑸━_紐⑤뱶" width="300.000000" height="10.000000" transform="translate(0.000000 21.000000)" fill="white"/>
		</clipPath>
	</defs>
	<rect id="Rectangle 31649" width="300.000000" height="520.000000" fill="#FFFFFF"/>
	<g clip-path="url(#clip2149_11825)">
		<path id="Vector" d="M132.39 25.5286L132.39 27.6927C132.39 27.9857 132.332 28.2571 132.223 28.5071C132.106 28.7571 131.961 28.9785 131.771 29.1642C131.582 29.35 131.356 29.5 131.102 29.6071C130.847 29.7214 130.569 29.7714 130.271 29.7714C129.973 29.7714 129.696 29.7142 129.441 29.6071C129.187 29.4928 128.961 29.35 128.771 29.1642C128.582 28.9785 128.429 28.7571 128.319 28.5071C128.203 28.2571 128.152 27.9857 128.152 27.6927L128.152 25.5286C128.152 25.2357 128.211 24.9642 128.319 24.7142C128.437 24.4642 128.582 24.2428 128.771 24.0571C128.961 23.8713 129.187 23.7214 129.441 23.6143C129.696 23.5 129.973 23.45 130.271 23.45C130.569 23.45 130.847 23.5071 131.102 23.6143C131.356 23.7285 131.582 23.8713 131.771 24.0571C131.961 24.2428 132.113 24.4642 132.223 24.7142C132.339 24.9642 132.39 25.2357 132.39 25.5286ZM128.932 25.5286L128.932 27.6927C128.932 27.8785 128.968 28.0499 129.033 28.2072C129.099 28.3643 129.193 28.5 129.317 28.6213C129.441 28.7428 129.579 28.8357 129.739 28.8999C129.899 28.9642 130.067 29 130.249 29C130.432 29 130.599 28.9642 130.759 28.8999C130.919 28.8357 131.058 28.7428 131.182 28.6213C131.305 28.5 131.399 28.3643 131.466 28.2072C131.531 28.0499 131.574 27.8785 131.589 27.6927L131.589 25.5286C131.589 25.3428 131.553 25.1714 131.487 25.0143C131.422 24.8571 131.327 24.7214 131.203 24.6C131.079 24.4785 130.941 24.3856 130.781 24.3214C130.621 24.2571 130.453 24.2214 130.271 24.2214C130.089 24.2214 129.922 24.2571 129.762 24.3214C129.602 24.3856 129.463 24.4785 129.339 24.6C129.216 24.7214 129.121 24.8571 129.056 25.0143C128.989 25.1714 128.946 25.3428 128.932 25.5286Z" fill-rule="nonzero" fill="#626262"/>
		<path id="Vector" d="M137.932 27.6071L137.932 27.1714C137.779 27.2928 137.611 27.3928 137.43 27.4713C137.175 27.5857 136.897 27.6356 136.6 27.6356C136.301 27.6356 136.024 27.5785 135.77 27.4713C135.515 27.3571 135.289 27.2142 135.1 27.0286C134.91 26.8428 134.757 26.6213 134.647 26.3713C134.531 26.1213 134.48 25.85 134.48 25.5571C134.48 25.2643 134.539 24.9928 134.647 24.7428C134.765 24.4928 134.91 24.2714 135.1 24.0857C135.289 23.8999 135.515 23.75 135.77 23.6428C136.024 23.5286 136.301 23.4785 136.6 23.4785C136.897 23.4785 137.175 23.5356 137.43 23.6428C137.685 23.7571 137.91 23.8999 138.1 24.0857C138.289 24.2714 138.441 24.4928 138.551 24.7428C138.667 24.9928 138.718 25.2643 138.718 25.5571L138.718 27.6143C138.718 27.9071 138.66 28.1785 138.551 28.4285C138.435 28.6785 138.289 28.8999 138.1 29.0857C137.91 29.2714 137.685 29.4214 137.43 29.5286C137.175 29.6428 136.897 29.6927 136.6 29.6927L134.939 29.6927L134.939 28.9142L136.6 28.9142C136.774 28.9142 136.941 28.8785 137.102 28.8142C137.262 28.75 137.4 28.6571 137.524 28.5356C137.647 28.4142 137.742 28.2786 137.808 28.1213C137.874 27.9642 137.917 27.7928 137.932 27.6071ZM135.267 25.5499C135.267 25.7357 135.304 25.9071 135.369 26.0642C135.435 26.2213 135.529 26.3571 135.652 26.4785C135.776 26.6 135.915 26.6927 136.075 26.7571C136.235 26.8214 136.402 26.8571 136.585 26.8571C136.767 26.8571 136.935 26.8214 137.095 26.7571C137.255 26.6927 137.393 26.6 137.517 26.4785C137.641 26.3571 137.735 26.2213 137.801 26.0642C137.866 25.9142 137.91 25.75 137.925 25.5714C137.925 25.3713 137.888 25.1927 137.822 25.0356C137.757 24.8785 137.662 24.7428 137.539 24.6213C137.415 24.5 137.276 24.4071 137.116 24.3428C136.956 24.2786 136.789 24.2428 136.606 24.2428C136.425 24.2428 136.257 24.2786 136.097 24.3428C135.937 24.4071 135.799 24.5 135.675 24.6213C135.551 24.7428 135.456 24.8785 135.391 25.0356C135.325 25.1927 135.281 25.3643 135.267 25.5499Z" fill-rule="nonzero" fill="#626262"/>
		<path id="Vector" d="M141.062 25.5143L141.062 24.7357L141.856 24.7357L141.856 25.5143L141.062 25.5143ZM141.062 28.4857L141.062 27.7072L141.856 27.7072L141.856 28.4857L141.062 28.4857Z" fill-rule="nonzero" fill="#626262"/>
		<path id="Vector" d="M143.596 23.5071L145.576 23.5071C145.81 23.5071 146.035 23.5499 146.246 23.6356C146.457 23.7213 146.646 23.8357 146.807 23.9856C146.96 24.1428 147.076 24.3285 147.163 24.5356C147.251 24.7499 147.295 24.9785 147.295 25.2356C147.295 25.4928 147.251 25.7285 147.163 25.9427C147.076 26.1642 146.952 26.35 146.792 26.5071C146.756 26.5428 146.72 26.5785 146.676 26.6071L146.792 26.7213C146.952 26.8713 147.076 27.0571 147.163 27.2714C147.251 27.4928 147.295 27.7285 147.295 27.9785C147.295 28.2285 147.251 28.4642 147.163 28.6785C147.076 28.8928 146.96 29.0714 146.807 29.2213C146.646 29.3785 146.465 29.4999 146.246 29.5857C146.035 29.6714 145.81 29.7142 145.576 29.7142L143.596 29.7142L143.596 28.9357L145.576 28.9357C145.824 28.9357 146.042 28.8428 146.225 28.6642C146.406 28.4856 146.494 28.2571 146.494 27.9856C146.494 27.7142 146.406 27.4856 146.225 27.2999C146.042 27.1071 145.824 27.0071 145.576 26.9928L143.938 26.9928L143.938 26.2142L145.576 26.2142C145.824 26.2142 146.042 26.1213 146.225 25.9285C146.406 25.7356 146.494 25.5071 146.494 25.2428C146.494 24.9785 146.406 24.7499 146.225 24.5642C146.042 24.3856 145.824 24.2928 145.576 24.2928L143.596 24.2928L143.596 23.5143L143.596 23.5071Z" fill-rule="nonzero" fill="#626262"/>
		<path id="Vector" d="M153.746 25.5286L153.746 27.6927C153.746 27.9857 153.688 28.2571 153.579 28.5071C153.463 28.7571 153.317 28.9785 153.128 29.1642C152.938 29.35 152.713 29.5 152.458 29.6071C152.203 29.7214 151.926 29.7714 151.628 29.7714C151.329 29.7714 151.053 29.7142 150.798 29.6071C150.543 29.4928 150.317 29.35 150.128 29.1642C149.938 28.9785 149.785 28.7571 149.676 28.5071C149.56 28.2571 149.509 27.9857 149.509 27.6927L149.509 25.5286C149.509 25.2357 149.567 24.9642 149.676 24.7142C149.793 24.4642 149.945 24.2428 150.128 24.0571C150.317 23.8713 150.543 23.7214 150.798 23.6143C151.053 23.5 151.329 23.45 151.628 23.45C151.926 23.45 152.203 23.5071 152.458 23.6143C152.713 23.7285 152.938 23.8713 153.128 24.0571C153.317 24.2428 153.47 24.4642 153.579 24.7142C153.695 24.9642 153.746 25.2357 153.746 25.5286ZM150.288 25.5286L150.288 27.6927C150.288 27.8785 150.324 28.0499 150.39 28.2072C150.455 28.3643 150.55 28.5 150.674 28.6213C150.798 28.7428 150.936 28.8357 151.096 28.8999C151.256 28.9642 151.424 29 151.605 29C151.788 29 151.955 28.9642 152.115 28.8999C152.275 28.8357 152.414 28.7428 152.538 28.6213C152.661 28.5 152.756 28.3643 152.822 28.2072C152.888 28.0499 152.931 27.8785 152.945 27.6927L152.945 25.5286C152.945 25.3428 152.909 25.1714 152.844 25.0143C152.778 24.8571 152.684 24.7214 152.56 24.6C152.436 24.4785 152.298 24.3856 152.138 24.3214C151.978 24.2571 151.81 24.2214 151.628 24.2214C151.445 24.2214 151.278 24.2571 151.118 24.3214C150.958 24.3856 150.819 24.4785 150.695 24.6C150.572 24.7214 150.478 24.8571 150.412 25.0143C150.346 25.1714 150.303 25.3428 150.288 25.5286Z" fill-rule="nonzero" fill="#626262"/>
		<path id="Vector" d="M35.2305 25.3501C35.2305 25.3501 35.2666 25.3145 35.2881 25.293L35.3467 25.243C35.3467 25.243 35.3691 25.2288 35.376 25.2145C36.9922 23.7358 39.4971 23.7573 41.0771 25.2644L41.2666 25.443L41.5215 25.6859C41.834 25.9858 41.8418 26.4788 41.5361 26.7859C41.2305 27.093 40.7275 27.1001 40.415 26.8002L39.9707 26.3787C38.9658 25.4216 37.3496 25.443 36.373 26.4287L36.0605 26.7358C35.7617 27.043 35.2598 27.0502 34.9463 26.7501C34.793 26.6073 34.7129 26.4144 34.7061 26.2073C34.7061 26.0001 34.7793 25.8073 34.9248 25.6573L35.2227 25.343L35.2305 25.3501Z" fill-rule="nonzero" fill="#626262"/>
		<path id="Vector" d="M32.5938 23.5072L32.8779 23.2216L33.0967 22.9929C33.1328 22.9573 33.1768 22.9215 33.2275 22.8929C36.0967 20.3501 40.5156 20.3644 43.3633 22.9786C43.3779 22.9929 43.3926 23.0001 43.4072 23.0144L43.9307 23.5144C44.2441 23.8073 44.2441 24.3 43.9453 24.6073C43.6396 24.9144 43.1445 24.9215 42.832 24.6287L42.3076 24.1287C42.3076 24.1287 42.3076 24.1216 42.2998 24.1144C39.9922 21.9929 36.3877 22.0287 34.123 24.1858L33.7227 24.593C33.4238 24.9001 32.9219 24.9072 32.6084 24.6073C32.2959 24.3073 32.2881 23.8215 32.5938 23.5144L32.5938 23.5072Z" fill-rule="nonzero" fill="#626262"/>
		<path id="Vector" d="M37.0361 28.6001C37.0361 27.9 37.6182 27.3286 38.332 27.3286C39.0459 27.3286 39.6279 27.9 39.6279 28.6001C39.6279 29.3 39.0459 29.8715 38.332 29.8715C37.6182 29.8715 37.0361 29.3 37.0361 28.6001Z" fill-rule="nonzero" fill="#626262"/>
		<path id="Vector" d="M274.983 30.7002L260.421 30.7002C259.277 30.7002 258.346 29.7859 258.346 28.6644L258.346 23.6431C258.346 22.5216 259.277 21.6073 260.421 21.6073L274.983 21.6073C276.127 21.6073 277.059 22.5216 277.059 23.6431L277.059 28.6644C277.059 29.7859 276.127 30.7002 274.983 30.7002ZM260.421 22.3215C259.678 22.3215 259.074 22.9144 259.074 23.6431L259.074 28.6644C259.074 29.3931 259.678 29.9858 260.421 29.9858L274.983 29.9858C275.727 29.9858 276.331 29.3931 276.331 28.6644L276.331 23.6431C276.331 22.9144 275.727 22.3215 274.983 22.3215L260.421 22.3215Z" fill-rule="nonzero" fill="#626262"/>
		<path id="Vector" d="M278.057 24.0859L276.666 24.0859L276.666 28.2073L278.057 28.2073C278.522 28.2073 278.901 27.8359 278.901 27.3788L278.901 24.9073C278.901 24.4502 278.522 24.0787 278.057 24.0787L278.057 24.0859Z" fill-rule="nonzero" fill="#626262"/>
		<path id="Vector" d="M271.547 23.2145L260.734 23.2145C260.334 23.2145 260.014 23.5288 260.014 23.9216L260.014 28.3716C260.014 28.7645 260.334 29.0787 260.734 29.0787L271.547 29.0787L271.547 23.2145Z" fill-rule="nonzero" fill="#626262"/>
		<path id="Vector" d="M239.095 29.0001C238.861 29.0001 238.636 28.9573 238.425 28.8716C238.213 28.7858 238.031 28.6644 237.878 28.5072C237.718 28.3573 237.595 28.1787 237.507 27.9644C237.42 27.7501 237.376 27.5215 237.376 27.2644C237.376 27.0072 237.42 26.7787 237.507 26.5573C237.595 26.3358 237.718 26.1501 237.878 25.9929C237.915 25.9573 237.951 25.9215 237.995 25.8929L237.878 25.7787C237.718 25.6287 237.595 25.443 237.507 25.2286C237.42 25.0072 237.376 24.7715 237.376 24.5215C237.376 24.2715 237.42 24.0358 237.507 23.8215C237.595 23.6073 237.718 23.4287 237.878 23.2715C238.038 23.1144 238.213 23.0072 238.425 22.9215C238.636 22.8358 238.861 22.793 239.095 22.793L240.274 22.793C240.507 22.793 240.732 22.8358 240.943 22.9215C241.155 23.0072 241.345 23.1216 241.505 23.2715C241.657 23.4287 241.773 23.6144 241.861 23.8215C241.948 24.0358 241.992 24.2715 241.992 24.543C241.992 24.793 241.948 25.0358 241.861 25.2501C241.773 25.4716 241.65 25.6572 241.49 25.8145C241.453 25.8501 241.417 25.8859 241.373 25.9144L241.49 26.0287C241.65 26.1787 241.773 26.3644 241.861 26.5787C241.948 26.8002 241.992 27.0358 241.992 27.2858C241.992 27.5215 241.948 27.7501 241.861 27.9644C241.773 28.1787 241.657 28.3573 241.505 28.5072C241.345 28.6644 241.162 28.7858 240.943 28.8716C240.732 28.9573 240.507 29.0001 240.274 29.0001L239.095 29.0001ZM239.095 23.5787C238.847 23.5787 238.628 23.6715 238.446 23.8501C238.265 24.0358 238.177 24.2572 238.177 24.5287C238.177 24.8002 238.265 25.0287 238.446 25.2144C238.628 25.4072 238.847 25.5072 239.095 25.5215L240.274 25.5215C240.521 25.5215 240.74 25.4287 240.922 25.2358C241.104 25.043 241.191 24.8145 241.191 24.5502C241.191 24.2644 241.104 24.0358 240.922 23.8501C240.74 23.6715 240.521 23.5787 240.274 23.5787L239.095 23.5787ZM239.095 26.3002C238.847 26.3002 238.628 26.3929 238.446 26.5858C238.265 26.7787 238.177 27.0072 238.177 27.2715C238.177 27.5358 238.265 27.7644 238.446 27.9501C238.628 28.1359 238.847 28.2216 239.095 28.2216L240.274 28.2216C240.521 28.2216 240.74 28.1287 240.922 27.9501C241.104 27.7715 241.191 27.5502 241.191 27.3002C241.191 27.0287 241.104 26.8002 240.922 26.6144C240.74 26.4287 240.521 26.3215 240.274 26.3073L239.095 26.3073L239.095 26.3002Z" fill-rule="nonzero" fill="#626262"/>
		<path id="Vector" d="M247.897 24.8146L247.897 26.9788C247.897 27.2717 247.84 27.5431 247.73 27.7931C247.614 28.0431 247.469 28.2645 247.279 28.4502C247.09 28.636 246.864 28.786 246.609 28.8931C246.354 29.0074 246.077 29.0574 245.779 29.0574C245.48 29.0574 245.204 29.0002 244.949 28.8931C244.694 28.7788 244.469 28.636 244.279 28.4502C244.09 28.2645 243.937 28.0431 243.827 27.7931C243.711 27.5431 243.66 27.2717 243.66 26.9788L243.66 24.8146C243.66 24.5217 243.719 24.2502 243.827 24.0002C243.944 23.7502 244.09 23.5288 244.279 23.3431C244.469 23.1573 244.694 23.0074 244.949 22.9003C245.204 22.786 245.48 22.736 245.779 22.736C246.077 22.736 246.354 22.7931 246.609 22.9003C246.864 23.0145 247.09 23.1573 247.279 23.3431C247.469 23.5288 247.621 23.7502 247.73 24.0002C247.847 24.2502 247.897 24.5217 247.897 24.8146ZM244.439 24.8146L244.439 26.9788C244.439 27.1646 244.476 27.3359 244.541 27.4932C244.606 27.6503 244.701 27.786 244.825 27.9073C244.949 28.0288 245.087 28.1217 245.247 28.1859C245.407 28.2502 245.575 28.286 245.757 28.286C245.939 28.286 246.106 28.2502 246.267 28.1859C246.427 28.1217 246.565 28.0288 246.689 27.9073C246.812 27.786 246.907 27.6503 246.974 27.4932C247.039 27.3359 247.082 27.1646 247.097 26.9788L247.097 24.8146C247.097 24.6288 247.061 24.4574 246.995 24.3003C246.93 24.1431 246.835 24.0074 246.711 23.886C246.587 23.7645 246.449 23.6716 246.289 23.6074C246.129 23.5431 245.961 23.5074 245.779 23.5074C245.597 23.5074 245.43 23.5431 245.27 23.6074C245.109 23.6716 244.971 23.7645 244.847 23.886C244.724 24.0074 244.629 24.1431 244.563 24.3003C244.497 24.4574 244.454 24.6288 244.439 24.8146Z" fill-rule="nonzero" fill="#626262"/>
		<path id="Vector" d="M249.303 24.0431C249.303 23.8788 249.332 23.7216 249.397 23.5717C249.463 23.4216 249.551 23.2931 249.667 23.1787C249.776 23.0717 249.899 22.993 250.053 22.9287C250.206 22.8645 250.366 22.8359 250.533 22.8359C250.701 22.8359 250.861 22.8645 251.014 22.9287C251.167 22.993 251.298 23.0787 251.414 23.1787C251.523 23.2931 251.604 23.4216 251.669 23.5717C251.734 23.7216 251.764 23.8788 251.764 24.0431C251.764 24.2073 251.734 24.3645 251.669 24.5145C251.604 24.6644 251.523 24.7931 251.414 24.8931C251.298 25.0073 251.167 25.093 251.014 25.1573C250.861 25.2216 250.701 25.2502 250.533 25.2502C250.366 25.2502 250.206 25.2216 250.053 25.1573C249.899 25.093 249.776 25.0073 249.667 24.8931C249.551 24.7859 249.463 24.6644 249.397 24.5145C249.332 24.3645 249.303 24.2073 249.303 24.0431ZM249.994 24.0288C249.994 24.1002 250.009 24.1716 250.038 24.2358C250.067 24.3002 250.111 24.3502 250.162 24.4001C250.206 24.4502 250.264 24.493 250.329 24.5216C250.395 24.5502 250.468 24.5645 250.541 24.5645C250.613 24.5645 250.687 24.5502 250.752 24.5216C250.817 24.493 250.876 24.4502 250.927 24.4001C250.97 24.3573 251.014 24.3002 251.043 24.2358C251.072 24.1716 251.087 24.1073 251.087 24.0288C251.087 23.9502 251.072 23.8859 251.043 23.8217C251.014 23.7573 250.978 23.7002 250.927 23.6501C250.876 23.6073 250.817 23.5717 250.752 23.5359C250.687 23.5073 250.621 23.493 250.541 23.493C250.461 23.493 250.395 23.5073 250.329 23.5359C250.264 23.5645 250.213 23.6002 250.162 23.6501C250.111 23.7002 250.067 23.7573 250.038 23.8217C250.009 23.8859 249.994 23.9502 249.994 24.0288ZM253.635 22.7645L251.225 29.2788L250.482 29.0073L252.893 22.493L253.635 22.7645ZM252.324 27.743C252.324 27.5787 252.354 27.4216 252.419 27.2716C252.484 27.1216 252.572 26.993 252.688 26.8788C252.798 26.7716 252.922 26.693 253.074 26.6288C253.228 26.5645 253.388 26.5359 253.555 26.5359C253.723 26.5359 253.883 26.5645 254.035 26.6288C254.188 26.693 254.319 26.7788 254.437 26.8788C254.545 26.993 254.625 27.1216 254.691 27.2716C254.757 27.4216 254.785 27.5787 254.785 27.743C254.785 27.9073 254.757 28.0645 254.691 28.2145C254.625 28.3645 254.538 28.493 254.437 28.593C254.319 28.7073 254.188 28.7931 254.035 28.8573C253.883 28.9216 253.723 28.9502 253.555 28.9502C253.388 28.9502 253.228 28.9216 253.074 28.8573C252.922 28.7931 252.798 28.7073 252.688 28.593C252.572 28.4858 252.484 28.3645 252.419 28.2145C252.354 28.0645 252.324 27.9073 252.324 27.743ZM253.017 27.7288C253.017 27.8002 253.031 27.8716 253.06 27.9359C253.089 28.0002 253.133 28.0502 253.184 28.1002C253.228 28.1501 253.285 28.193 253.352 28.2216C253.417 28.2502 253.489 28.2645 253.562 28.2645C253.635 28.2645 253.708 28.2502 253.773 28.2216C253.839 28.193 253.897 28.1501 253.948 28.1002C253.992 28.0574 254.035 28.0002 254.064 27.9359C254.094 27.8716 254.108 27.8074 254.108 27.7288C254.108 27.6501 254.094 27.5859 254.064 27.5216C254.035 27.4573 253.999 27.4001 253.948 27.3502C253.897 27.3074 253.839 27.2716 253.773 27.2358C253.708 27.2073 253.643 27.193 253.562 27.193C253.482 27.193 253.417 27.2073 253.352 27.2358C253.285 27.2645 253.234 27.3002 253.184 27.3502C253.133 27.4001 253.089 27.4573 253.06 27.5216C253.031 27.5859 253.017 27.6501 253.017 27.7288Z" fill-rule="nonzero" fill="#626262"/>
	</g>
</svg>
