<svg width="200" height="200" viewBox="0 0 200 200" fill="none" xmlns="http://www.w3.org/2000/svg">
<g id="Group 4">
<circle id="Ellipse 25" cx="99.792" cy="98.9999" r="87.912" fill="url(#paint0_linear_2242_3858)"/>
<g id="Oval 2 + Oval 2 Mask">
<path id="Mask" fill-rule="evenodd" clip-rule="evenodd" d="M100 200C155.228 200 200 155.228 200 100C200 44.7715 155.228 0 100 0C44.7715 0 0 44.7715 0 100C0 155.228 44.7715 200 100 200ZM100 184C146.392 184 184 146.392 184 100C184 53.6081 146.392 16 100 16C53.6081 16 16 53.6081 16 100C16 146.392 53.6081 184 100 184Z" fill="url(#paint1_linear_2242_3858)"/>
<g id="Object">
<mask id="mask0_2242_3858" style="mask-type:luminance" maskUnits="userSpaceOnUse" x="0" y="0" width="200" height="200">
<path id="Mask_2" fill-rule="evenodd" clip-rule="evenodd" d="M100 200C155.228 200 200 155.228 200 100C200 44.7715 155.228 0 100 0C44.7715 0 0 44.7715 0 100C0 155.228 44.7715 200 100 200ZM100 184C146.392 184 184 146.392 184 100C184 53.6081 146.392 16 100 16C53.6081 16 16 53.6081 16 100C16 146.392 53.6081 184 100 184Z" fill="white"/>
</mask>
<g mask="url(#mask0_2242_3858)">
<path id="Oval 2" opacity="0.1" fill-rule="evenodd" clip-rule="evenodd" d="M197.41 77.29C181.972 46.1822 149.883 24.8 112.8 24.8C60.6643 24.8 18.4 67.0643 18.4 119.2C18.4 142.922 27.1498 164.6 41.5982 181.183C16.4025 163.026 0 133.428 0 100C0 44.7715 44.7715 0 100 0C147.417 0 187.126 33.0022 197.41 77.29Z" fill="#212121"/>
<path id="Oval 2_2" opacity="0.2" fill-rule="evenodd" clip-rule="evenodd" d="M196.61 123.892C181.172 155 149.083 176.382 112 176.382C59.8643 176.382 17.5999 134.118 17.5999 81.9821C17.5999 58.2603 26.3498 36.5822 40.7981 19.9989C15.6024 38.1562 -0.800049 67.7537 -0.800049 101.182C-0.800049 156.411 43.9715 201.182 99.2 201.182C146.617 201.182 186.326 168.18 196.61 123.892Z" fill="#212121"/>
<path id="Oval 2_3" opacity="0.2" fill-rule="evenodd" clip-rule="evenodd" d="M59.5097 172.89C33.1099 151.224 20.0392 117.391 28.8022 84.6882C41.1223 38.7112 91.9335 12.3786 142.292 25.8727C165.205 32.0126 184.077 45.3396 196.681 62.3733C185.096 35.4545 160.384 13.3291 128.095 4.67694C74.7486 -9.61772 20.9231 18.277 7.87219 66.9815C-3.33284 108.797 19.1612 152.358 59.5097 172.89Z" fill="white"/>
<path id="Oval 2_4" opacity="0.2" fill-rule="evenodd" clip-rule="evenodd" d="M196.526 120.849C195.306 148.99 178.838 175.501 151.545 188.228C112.503 206.434 66.0941 189.543 47.8883 150.501C39.7142 132.972 38.6151 113.958 43.4192 96.6783C31.1872 118.922 29.3653 146.499 40.9157 171.268C60.1485 212.512 109.175 230.356 150.419 211.123C185.39 194.816 203.537 157.09 196.526 120.849Z" fill="white"/>
<path id="Oval 2_5" opacity="0.1" fill-rule="evenodd" clip-rule="evenodd" d="M100 0.382324C155.228 0.382324 200 45.1539 200 100.382C200 155.611 155.228 200.382 100 200.382C44.7715 200.382 0 155.611 0 100.382C0 45.1539 44.7715 0.382324 100 0.382324ZM103.2 4.38231C155.336 4.38231 197.6 46.6466 197.6 98.7823C197.6 150.918 155.336 193.182 103.2 193.182C51.0643 193.182 8.8 150.918 8.8 98.7823C8.8 46.6466 51.0643 4.38231 103.2 4.38231Z" fill="#212121"/>
</g>
</g>
<circle id="Mask_3" cx="100" cy="100" r="83.604" stroke="url(#paint2_linear_2242_3858)" stroke-width="0.792"/>
<mask id="mask1_2242_3858" style="mask-type:luminance" maskUnits="userSpaceOnUse" x="16" y="16" width="168" height="168">
<circle id="Mask_4" cx="100" cy="100" r="83.604" fill="white" stroke="white" stroke-width="0.792"/>
</mask>
<g mask="url(#mask1_2242_3858)">
</g>
</g>
</g>
<defs>
<linearGradient id="paint0_linear_2242_3858" x1="43.0001" y1="36.9999" x2="159" y2="160" gradientUnits="userSpaceOnUse">
<stop stop-color="#070707"/>
<stop offset="1" stop-color="#484848"/>
</linearGradient>
<linearGradient id="paint1_linear_2242_3858" x1="0" y1="0" x2="0" y2="200" gradientUnits="userSpaceOnUse">
<stop stop-color="#641EFF"/>
<stop offset="0.641718" stop-color="#FF4343"/>
<stop offset="1" stop-color="#FFDD15"/>
</linearGradient>
<linearGradient id="paint2_linear_2242_3858" x1="-69.6703" y1="58.6391" x2="72.8641" y2="255.267" gradientUnits="userSpaceOnUse">
<stop stop-color="white"/>
<stop offset="0.397072" stop-color="white" stop-opacity="0.150377"/>
<stop offset="0.703507" stop-color="white" stop-opacity="0.87866"/>
<stop offset="0.881474" stop-color="white" stop-opacity="0.217767"/>
<stop offset="1" stop-color="white"/>
</linearGradient>
</defs>
</svg>
