<svg width="400.000000" height="520.000000" viewBox="0 0 400 520" fill="none" xmlns="http://www.w3.org/2000/svg" xmlns:xlink="http://www.w3.org/1999/xlink">
    <defs>
		<clipPath id="clip2149_11400">
			<rect id="_寃⑸━_紐⑤뱶" width="314.000000" height="10.392435" transform="translate(43.000000 21.000000)" fill="white"/>
		</clipPath>
	</defs>
	<rect id="Rectangle 31649" width="400.000000" height="520.000000" fill="#FFFFFF"/>
	<g clip-path="url(#clip2149_11400)">
		<path id="Vector" d="M177.969 25.7064L177.969 27.9556C177.969 28.26 177.909 28.5421 177.798 28.8019C177.68 29.0616 177.53 29.2917 177.338 29.4847C177.145 29.6779 176.915 29.8337 176.655 29.9451C176.395 30.0638 176.113 30.1157 175.809 30.1157C175.504 30.1157 175.222 30.0564 174.962 29.9451C174.702 29.8263 174.473 29.6779 174.279 29.4847C174.086 29.2917 173.931 29.0616 173.819 28.8019C173.7 28.5421 173.648 28.26 173.648 27.9556L173.648 25.7064C173.648 25.4021 173.708 25.12 173.819 24.8601C173.938 24.6003 174.086 24.3702 174.279 24.1772C174.473 23.9843 174.702 23.8284 174.962 23.717C175.222 23.5983 175.504 23.5463 175.809 23.5463C176.113 23.5463 176.395 23.6056 176.655 23.717C176.915 23.8358 177.145 23.9843 177.338 24.1772C177.53 24.3702 177.687 24.6003 177.798 24.8601C177.917 25.12 177.969 25.4021 177.969 25.7064ZM174.442 25.7064L174.442 27.9556C174.442 28.1487 174.479 28.3268 174.547 28.4901C174.613 28.6534 174.71 28.7944 174.836 28.9207C174.962 29.0469 175.104 29.1433 175.267 29.2101C175.43 29.277 175.601 29.3141 175.786 29.3141C175.972 29.3141 176.143 29.277 176.306 29.2101C176.47 29.1433 176.61 29.0469 176.736 28.9207C176.862 28.7944 176.959 28.6534 177.026 28.4901C177.093 28.3268 177.138 28.1487 177.152 27.9556L177.152 25.7064C177.152 25.5134 177.115 25.3352 177.048 25.172C176.981 25.0087 176.885 24.8676 176.759 24.7415C176.633 24.6152 176.491 24.5187 176.328 24.4519C176.165 24.3851 175.994 24.348 175.809 24.348C175.623 24.348 175.452 24.3851 175.289 24.4519C175.126 24.5187 174.984 24.6152 174.858 24.7415C174.732 24.8676 174.636 25.0087 174.569 25.172C174.502 25.3352 174.458 25.5134 174.442 25.7064Z" fill-rule="nonzero" fill="#626262"/>
		<path id="Vector" d="M183.618 27.8666L183.618 27.4137C183.462 27.5399 183.292 27.6438 183.106 27.7255C182.846 27.8442 182.564 27.8962 182.26 27.8962C181.955 27.8962 181.673 27.8368 181.413 27.7255C181.153 27.6067 180.924 27.4583 180.73 27.2653C180.537 27.0723 180.382 26.8422 180.271 26.5823C180.151 26.3225 180.1 26.0404 180.1 25.7361C180.1 25.4318 180.159 25.1497 180.271 24.8898C180.389 24.63 180.537 24.3999 180.73 24.2069C180.924 24.0139 181.153 23.858 181.413 23.7467C181.673 23.6279 181.955 23.5759 182.26 23.5759C182.564 23.5759 182.846 23.6353 183.106 23.7467C183.366 23.8655 183.596 24.0139 183.789 24.2069C183.981 24.3999 184.138 24.63 184.249 24.8898C184.368 25.1497 184.42 25.4318 184.42 25.7361L184.42 27.8739C184.42 28.1783 184.36 28.4603 184.249 28.7202C184.131 28.98 183.981 29.2101 183.789 29.4031C183.596 29.5961 183.366 29.752 183.106 29.8634C182.846 29.9822 182.564 30.0341 182.26 30.0341L180.567 30.0341L180.567 29.225L182.26 29.225C182.438 29.225 182.608 29.1879 182.771 29.1211C182.936 29.0542 183.076 28.9578 183.202 28.8315C183.329 28.7053 183.425 28.5643 183.492 28.401C183.559 28.2377 183.604 28.0596 183.618 27.8666ZM180.901 25.7286C180.901 25.9216 180.938 26.0999 181.005 26.2631C181.072 26.4264 181.169 26.5675 181.295 26.6936C181.421 26.8198 181.562 26.9164 181.726 26.9832C181.889 27.0499 182.06 27.087 182.245 27.087C182.431 27.087 182.602 27.0499 182.765 26.9832C182.928 26.9164 183.069 26.8198 183.195 26.6936C183.321 26.5675 183.418 26.4264 183.484 26.2631C183.552 26.1072 183.596 25.9365 183.61 25.751C183.61 25.5431 183.573 25.3575 183.507 25.1942C183.44 25.0309 183.344 24.8898 183.218 24.7637C183.091 24.6375 182.95 24.5409 182.787 24.4741C182.623 24.4073 182.453 24.3702 182.268 24.3702C182.082 24.3702 181.911 24.4073 181.747 24.4741C181.584 24.5409 181.443 24.6375 181.317 24.7637C181.19 24.8898 181.095 25.0309 181.027 25.1942C180.961 25.3575 180.916 25.5356 180.901 25.7286Z" fill-rule="nonzero" fill="#626262"/>
		<path id="Vector" d="M186.81 25.6915L186.81 24.8824L187.619 24.8824L187.619 25.6915L186.81 25.6915ZM186.81 28.7797L186.81 27.9705L187.619 27.9705L187.619 28.7797L186.81 28.7797Z" fill-rule="nonzero" fill="#626262"/>
		<path id="Vector" d="M189.393 23.6057L191.412 23.6057C191.649 23.6057 191.879 23.6503 192.095 23.7394C192.31 23.8284 192.503 23.9471 192.666 24.103C192.822 24.2664 192.94 24.4594 193.03 24.6747C193.119 24.8973 193.163 25.1349 193.163 25.4021C193.163 25.6693 193.119 25.9143 193.03 26.137C192.94 26.3672 192.814 26.5602 192.651 26.7234C192.614 26.7606 192.577 26.7977 192.532 26.8274L192.651 26.9462C192.814 27.1021 192.94 27.295 193.03 27.5177C193.119 27.7478 193.163 27.9928 193.163 28.2526C193.163 28.5125 193.119 28.7574 193.03 28.9801C192.94 29.2028 192.822 29.3883 192.666 29.5442C192.503 29.7075 192.317 29.8337 192.095 29.9229C191.879 30.012 191.649 30.0564 191.412 30.0564L189.393 30.0564L189.393 29.2473L191.412 29.2473C191.664 29.2473 191.887 29.1509 192.072 28.9652C192.258 28.7797 192.347 28.5421 192.347 28.26C192.347 27.9779 192.258 27.7405 192.072 27.5474C191.887 27.347 191.664 27.243 191.412 27.2283L189.741 27.2283L189.741 26.4191L191.412 26.4191C191.664 26.4191 191.887 26.3226 192.072 26.1222C192.258 25.9218 192.347 25.6842 192.347 25.4095C192.347 25.1349 192.258 24.8973 192.072 24.7043C191.887 24.5188 191.664 24.4222 191.412 24.4222L189.393 24.4222L189.393 23.6132L189.393 23.6057Z" fill-rule="nonzero" fill="#626262"/>
		<path id="Vector" d="M199.741 25.7064L199.741 27.9556C199.741 28.26 199.682 28.5421 199.57 28.8019C199.452 29.0616 199.303 29.2917 199.11 29.4847C198.917 29.6779 198.688 29.8337 198.428 29.9451C198.167 30.0638 197.886 30.1157 197.581 30.1157C197.276 30.1157 196.994 30.0564 196.734 29.9451C196.475 29.8263 196.245 29.6779 196.052 29.4847C195.858 29.2917 195.703 29.0616 195.592 28.8019C195.473 28.5421 195.421 28.26 195.421 27.9556L195.421 25.7064C195.421 25.4021 195.48 25.12 195.592 24.8601C195.71 24.6003 195.866 24.3702 196.052 24.1772C196.245 23.9843 196.475 23.8284 196.734 23.717C196.994 23.5983 197.276 23.5463 197.581 23.5463C197.886 23.5463 198.167 23.6056 198.428 23.717C198.688 23.8358 198.917 23.9843 199.11 24.1772C199.303 24.3702 199.459 24.6003 199.57 24.8601C199.689 25.12 199.741 25.4021 199.741 25.7064ZM196.215 25.7064L196.215 27.9556C196.215 28.1487 196.252 28.3268 196.319 28.4901C196.386 28.6534 196.482 28.7944 196.608 28.9207C196.734 29.0469 196.876 29.1433 197.039 29.2101C197.202 29.277 197.373 29.3141 197.559 29.3141C197.744 29.3141 197.915 29.277 198.078 29.2101C198.242 29.1433 198.383 29.0469 198.509 28.9207C198.635 28.7944 198.731 28.6534 198.799 28.4901C198.865 28.3268 198.91 28.1487 198.925 27.9556L198.925 25.7064C198.925 25.5134 198.888 25.3352 198.82 25.172C198.754 25.0087 198.657 24.8676 198.531 24.7415C198.405 24.6152 198.264 24.5187 198.101 24.4519C197.938 24.3851 197.767 24.348 197.581 24.348C197.396 24.348 197.225 24.3851 197.062 24.4519C196.898 24.5187 196.757 24.6152 196.631 24.7415C196.505 24.8676 196.408 25.0087 196.342 25.172C196.274 25.3352 196.23 25.5134 196.215 25.7064Z" fill-rule="nonzero" fill="#626262"/>
		<path id="Vector" d="M49.627 25.5208C49.627 25.5208 49.6641 25.4836 49.6865 25.4614L49.7461 25.4094C49.7461 25.4094 49.7686 25.3945 49.7754 25.3798C51.4238 23.8431 53.9775 23.8654 55.5879 25.4316L55.7812 25.6173L56.041 25.8696C56.3604 26.1814 56.3672 26.6936 56.0557 27.0128C55.7441 27.332 55.2314 27.3395 54.9121 27.0277L54.46 26.5897C53.4355 25.595 51.7871 25.6173 50.793 26.6416L50.4736 26.9608C50.1689 27.28 49.6572 27.2875 49.3379 26.9757C49.1816 26.8273 49.1006 26.6268 49.0928 26.4115C49.0928 26.1963 49.167 25.9958 49.3154 25.84L49.6201 25.5133L49.627 25.5208Z" fill-rule="nonzero" fill="#626262"/>
		<path id="Vector" d="M46.9404 23.6056L47.2295 23.3086L47.4521 23.071C47.4893 23.0339 47.5342 22.9968 47.5859 22.9672C50.5107 20.3246 55.0166 20.3394 57.9189 23.0563C57.9336 23.071 57.9492 23.0785 57.9639 23.0934L58.498 23.613C58.8174 23.9174 58.8174 24.4296 58.5127 24.7488C58.2012 25.068 57.6963 25.0753 57.377 24.771L56.8428 24.2513C56.8428 24.2513 56.8428 24.244 56.835 24.2366C54.4824 22.0319 50.8076 22.069 48.499 24.3108L48.0908 24.7339C47.7861 25.0531 47.2744 25.0605 46.9551 24.7488C46.6357 24.437 46.6289 23.9323 46.9404 23.613L46.9404 23.6056Z" fill-rule="nonzero" fill="#626262"/>
		<path id="Vector" d="M51.4688 28.8982C51.4688 28.1708 52.0625 27.5769 52.79 27.5769C53.5176 27.5769 54.1113 28.1708 54.1113 28.8982C54.1113 29.6257 53.5176 30.2196 52.79 30.2196C52.0625 30.2196 51.4688 29.6257 51.4688 28.8982Z" fill-rule="nonzero" fill="#626262"/>
		<path id="Vector" d="M353.029 31.0808L338.183 31.0808C337.018 31.0808 336.067 30.1306 336.067 28.9652L336.067 23.7467C336.067 22.5813 337.018 21.6311 338.183 21.6311L353.029 21.6311C354.194 21.6311 355.145 22.5813 355.145 23.7467L355.145 28.9652C355.145 30.1306 354.194 31.0808 353.029 31.0808ZM338.183 22.3734C337.426 22.3734 336.81 22.9895 336.81 23.7467L336.81 28.9652C336.81 29.7224 337.426 30.3385 338.183 30.3385L353.029 30.3385C353.786 30.3385 354.402 29.7224 354.402 28.9652L354.402 23.7467C354.402 22.9895 353.786 22.3734 353.029 22.3734L338.183 22.3734Z" fill-rule="nonzero" fill="#626262"/>
		<path id="Vector" d="M356.162 24.2069L354.744 24.2069L354.744 28.4901L356.162 28.4901C356.637 28.4901 357.023 28.104 357.023 27.6289L357.023 25.0605C357.023 24.5854 356.637 24.1995 356.162 24.1995L356.162 24.2069Z" fill-rule="nonzero" fill="#626262"/>
		<path id="Vector" d="M349.524 23.3014L338.502 23.3014C338.093 23.3014 337.767 23.6281 337.767 24.0363L337.767 28.6609C337.767 29.0692 338.093 29.3958 338.502 29.3958L349.524 29.3958L349.524 23.3014Z" fill-rule="nonzero" fill="#626262"/>
		<path id="Vector" d="M316.44 29.3141C316.203 29.3141 315.973 29.2697 315.758 29.1805C315.542 29.0914 315.356 28.9652 315.2 28.8019C315.037 28.646 314.911 28.4604 314.822 28.2378C314.733 28.0151 314.688 27.7776 314.688 27.5103C314.688 27.243 314.733 27.0055 314.822 26.7754C314.911 26.5453 315.037 26.3523 315.2 26.189C315.237 26.1519 315.274 26.1147 315.319 26.0851L315.2 25.9663C315.037 25.8104 314.911 25.6174 314.822 25.3947C314.733 25.1646 314.688 24.9197 314.688 24.6598C314.688 24.4 314.733 24.155 314.822 23.9324C314.911 23.7096 315.037 23.524 315.2 23.3607C315.364 23.1974 315.542 23.0861 315.758 22.9971C315.973 22.908 316.203 22.8634 316.44 22.8634L317.643 22.8634C317.881 22.8634 318.11 22.908 318.326 22.9971C318.541 23.0861 318.734 23.2048 318.897 23.3607C319.054 23.524 319.172 23.717 319.261 23.9324C319.351 24.155 319.395 24.4 319.395 24.6821C319.395 24.9419 319.351 25.1943 319.261 25.417C319.172 25.6471 319.046 25.8401 318.883 26.0034C318.846 26.0405 318.809 26.0776 318.764 26.1073L318.883 26.2261C319.046 26.382 319.172 26.575 319.261 26.7977C319.351 27.0278 319.395 27.2727 319.395 27.5326C319.395 27.7776 319.351 28.0151 319.261 28.2378C319.172 28.4604 319.054 28.646 318.897 28.8019C318.734 28.9652 318.549 29.0914 318.326 29.1805C318.11 29.2697 317.881 29.3141 317.643 29.3141L316.44 29.3141ZM316.44 23.6799C316.188 23.6799 315.965 23.7765 315.779 23.962C315.594 24.155 315.505 24.3851 315.505 24.6672C315.505 24.9493 315.594 25.1869 315.779 25.3799C315.965 25.5803 316.188 25.6842 316.44 25.6991L317.643 25.6991C317.896 25.6991 318.118 25.6025 318.304 25.4021C318.489 25.2017 318.578 24.9641 318.578 24.6895C318.578 24.3926 318.489 24.155 318.304 23.962C318.118 23.7765 317.896 23.6799 317.643 23.6799L316.44 23.6799ZM316.44 26.5082C316.188 26.5082 315.965 26.6047 315.779 26.8051C315.594 27.0055 315.505 27.243 315.505 27.5177C315.505 27.7924 315.594 28.0299 315.779 28.2229C315.965 28.4159 316.188 28.505 316.44 28.505L317.643 28.505C317.896 28.505 318.118 28.4086 318.304 28.2229C318.489 28.0374 318.578 27.8073 318.578 27.5474C318.578 27.2654 318.489 27.0278 318.304 26.8348C318.118 26.6418 317.896 26.5304 317.643 26.5156L316.44 26.5156L316.44 26.5082Z" fill-rule="nonzero" fill="#626262"/>
		<path id="Vector" d="M325.415 24.9642L325.415 27.2134C325.415 27.5178 325.355 27.7999 325.244 28.0597C325.126 28.3195 324.977 28.5496 324.784 28.7426C324.591 28.9357 324.361 29.0916 324.102 29.2029C323.841 29.3217 323.56 29.3735 323.255 29.3735C322.95 29.3735 322.668 29.3142 322.408 29.2029C322.148 29.0841 321.919 28.9357 321.726 28.7426C321.532 28.5496 321.377 28.3195 321.266 28.0597C321.146 27.7999 321.095 27.5178 321.095 27.2134L321.095 24.9642C321.095 24.6599 321.154 24.3778 321.266 24.1179C321.384 23.8582 321.532 23.6281 321.726 23.4351C321.919 23.2421 322.148 23.0862 322.408 22.9749C322.668 22.8561 322.95 22.8041 323.255 22.8041C323.56 22.8041 323.841 22.8634 324.102 22.9749C324.361 23.0936 324.591 23.2421 324.784 23.4351C324.977 23.6281 325.133 23.8582 325.244 24.1179C325.363 24.3778 325.415 24.6599 325.415 24.9642ZM321.889 24.9642L321.889 27.2134C321.889 27.4065 321.926 27.5846 321.993 27.7479C322.06 27.9113 322.156 28.0522 322.282 28.1785C322.408 28.3047 322.55 28.4011 322.713 28.4679C322.876 28.5348 323.047 28.5719 323.232 28.5719C323.418 28.5719 323.589 28.5348 323.752 28.4679C323.916 28.4011 324.057 28.3047 324.183 28.1785C324.309 28.0522 324.405 27.9113 324.473 27.7479C324.539 27.5846 324.584 27.4065 324.599 27.2134L324.599 24.9642C324.599 24.7712 324.562 24.593 324.494 24.4298C324.428 24.2665 324.331 24.1254 324.205 23.9993C324.079 23.873 323.938 23.7765 323.774 23.7097C323.611 23.6429 323.44 23.6058 323.255 23.6058C323.069 23.6058 322.898 23.6429 322.735 23.7097C322.572 23.7765 322.431 23.873 322.305 23.9993C322.179 24.1254 322.082 24.2665 322.016 24.4298C321.948 24.593 321.904 24.7712 321.889 24.9642Z" fill-rule="nonzero" fill="#626262"/>
		<path id="Vector" d="M326.848 24.1625C326.848 23.9917 326.877 23.8284 326.944 23.6725C327.011 23.5166 327.1 23.3831 327.219 23.2643C327.33 23.153 327.456 23.0713 327.612 23.0044C327.769 22.9376 327.932 22.908 328.103 22.908C328.272 22.908 328.437 22.9376 328.592 23.0044C328.748 23.0713 328.882 23.1603 329 23.2643C329.111 23.3831 329.193 23.5166 329.26 23.6725C329.327 23.8284 329.356 23.9917 329.356 24.1625C329.356 24.3333 329.327 24.4965 329.26 24.6523C329.193 24.8082 329.111 24.9419 329 25.0458C328.882 25.1646 328.748 25.2537 328.592 25.3204C328.437 25.3873 328.272 25.417 328.103 25.417C327.932 25.417 327.769 25.3873 327.612 25.3204C327.456 25.2537 327.33 25.1646 327.219 25.0458C327.1 24.9344 327.011 24.8082 326.944 24.6523C326.877 24.4965 326.848 24.3333 326.848 24.1625ZM327.553 24.1476C327.553 24.2218 327.567 24.296 327.598 24.3629C327.627 24.4297 327.672 24.4817 327.724 24.5336C327.769 24.5856 327.827 24.6301 327.895 24.6598C327.961 24.6895 328.035 24.7043 328.109 24.7043C328.184 24.7043 328.258 24.6895 328.325 24.6598C328.392 24.6301 328.451 24.5856 328.503 24.5336C328.548 24.4891 328.592 24.4297 328.622 24.3629C328.651 24.296 328.666 24.2292 328.666 24.1476C328.666 24.0659 328.651 23.9991 328.622 23.9324C328.592 23.8655 328.555 23.8062 328.503 23.7542C328.451 23.7096 328.392 23.6725 328.325 23.6354C328.258 23.6057 328.191 23.5908 328.109 23.5908C328.028 23.5908 327.961 23.6057 327.895 23.6354C327.827 23.6652 327.775 23.7023 327.724 23.7542C327.672 23.8062 327.627 23.8655 327.598 23.9324C327.567 23.9991 327.553 24.0659 327.553 24.1476ZM331.265 22.8337L328.808 29.6036L328.05 29.3215L330.507 22.5516L331.265 22.8337ZM329.929 28.0077C329.929 27.8369 329.958 27.6736 330.024 27.5177C330.092 27.3618 330.181 27.2283 330.3 27.1095C330.411 26.9982 330.537 26.9165 330.692 26.8496C330.849 26.7828 331.012 26.7532 331.183 26.7532C331.354 26.7532 331.517 26.7828 331.673 26.8496C331.828 26.9165 331.962 27.0055 332.081 27.1095C332.192 27.2283 332.274 27.3618 332.341 27.5177C332.407 27.6736 332.438 27.8369 332.438 28.0077C332.438 28.1783 332.407 28.3417 332.341 28.4976C332.274 28.6534 332.185 28.7871 332.081 28.891C331.962 29.0098 331.828 29.0989 331.673 29.1656C331.517 29.2325 331.354 29.2622 331.183 29.2622C331.012 29.2622 330.849 29.2325 330.692 29.1656C330.537 29.0989 330.411 29.0098 330.3 28.891C330.181 28.7797 330.092 28.6534 330.024 28.4976C329.958 28.3417 329.929 28.1783 329.929 28.0077ZM330.634 27.9928C330.634 28.067 330.648 28.1412 330.678 28.2081C330.708 28.2749 330.752 28.3269 330.805 28.3788C330.849 28.4308 330.908 28.4753 330.975 28.505C331.042 28.5347 331.116 28.5496 331.19 28.5496C331.265 28.5496 331.339 28.5347 331.405 28.505C331.473 28.4753 331.531 28.4308 331.584 28.3788C331.628 28.3342 331.673 28.2749 331.702 28.2081C331.732 28.1412 331.747 28.0745 331.747 27.9928C331.747 27.9111 331.732 27.8444 331.702 27.7776C331.673 27.7107 331.636 27.6514 331.584 27.5994C331.531 27.5548 331.473 27.5177 331.405 27.4806C331.339 27.4509 331.271 27.436 331.19 27.436C331.108 27.436 331.042 27.4509 330.975 27.4806C330.908 27.5103 330.856 27.5475 330.805 27.5994C330.752 27.6514 330.708 27.7107 330.678 27.7776C330.648 27.8444 330.634 27.9111 330.634 27.9928Z" fill-rule="nonzero" fill="#626262"/>
	</g>
</svg>
