<svg width="79" height="38" viewBox="0 0 79 38" fill="none" xmlns="http://www.w3.org/2000/svg">
<g clip-path="url(#clip0_2133_7057)">
<path d="M39.4965 25.8539C24.8882 25.8539 12.9574 14.4157 12.1458 0H0C0.818509 21.1273 18.1875 38 39.4965 38C60.8055 38 78.1746 21.1273 79 0H66.8542C66.0426 14.4157 54.1118 25.8539 39.5035 25.8539H39.4965Z" fill="white" fill-opacity="0.1"/>
<path d="M29.5563 28.6786L27.4893 28.2482L27.7667 26.9087L33.746 28.158L33.4685 29.4975L31.3945 29.0672L30.2777 34.4323L28.4396 34.0506L29.5563 28.6855V28.6786Z" fill="white" fill-opacity="0.2"/>
<path d="M34.5646 28.2274L39.5104 28.5467L39.4202 29.914L36.3473 29.7196L36.2641 30.9898L38.8722 31.1563L38.782 32.5306L36.1739 32.364L36.0837 33.8146L39.2676 34.0159L39.1774 35.3901L34.1138 35.0639L34.5508 28.2205L34.5646 28.2274Z" fill="white" fill-opacity="0.2"/>
<path d="M40.8073 34.5435L41.7576 33.308C42.3402 33.662 43.0894 33.8772 43.7067 33.8147C44.3934 33.7453 44.6986 33.4815 44.664 33.1206C44.6223 32.725 44.1853 32.6417 43.4917 32.4613L42.4651 32.1975C41.6188 31.9962 40.8003 31.4757 40.6963 30.4901C40.5783 29.3449 41.6604 28.3108 43.3113 28.1442C44.2131 28.054 45.1911 28.2622 45.9333 28.7827L45.1079 29.9002C44.5599 29.6156 44.0605 29.4768 43.457 29.5393C42.8813 29.5948 42.5553 29.8308 42.5969 30.1917C42.6385 30.5734 43.131 30.6775 43.8454 30.8441L44.8512 31.087C45.8501 31.3299 46.4813 31.8366 46.5784 32.8014C46.6964 33.9396 45.7044 35.0432 43.8246 35.2306C42.8119 35.3347 41.6882 35.1126 40.8211 34.5435H40.8073Z" fill="white" fill-opacity="0.2"/>
<path d="M48.4651 28.7341L46.4396 29.3241L46.0581 28.0054L51.9264 26.291L52.3079 27.6097L50.2686 28.2066L51.8015 33.4746L49.998 34.0021L48.4651 28.7341Z" fill="white" fill-opacity="0.2"/>
<path d="M56.1511 25.8815L54.521 27.221L53.647 26.1661L58.3638 22.2793L59.2309 23.3343L57.5939 24.6808L61.076 28.9145L59.6263 30.1083L56.1441 25.8745L56.1511 25.8815Z" fill="white" fill-opacity="0.2"/>
<path d="M58.9395 21.6963L62.2829 18.0386L63.2956 18.9617L61.2216 21.2313L62.158 22.085L63.9199 20.1555L64.9395 21.0855L63.1777 23.015L64.2528 23.9936L66.4101 21.6338L67.4297 22.5639L64.01 26.3118L58.9533 21.6824L58.9395 21.6963Z" fill="white" fill-opacity="0.2"/>
<path d="M67.7698 20.7802L67.4022 19.2671C68.0473 19.0311 68.6785 18.58 69.0184 18.0594C69.3929 17.4764 69.3791 17.0808 69.0739 16.8795C68.7409 16.6644 68.401 16.9559 67.8253 17.3862L66.9721 18.0247C66.2854 18.5592 65.3698 18.8715 64.5374 18.3301C63.5732 17.7055 63.4414 16.2132 64.3501 14.8251C64.8426 14.0686 65.6195 13.43 66.4935 13.1802L66.8472 14.5267C66.2784 14.7765 65.8623 15.075 65.5293 15.5886C65.2172 16.0744 65.1963 16.477 65.4946 16.6713C65.8206 16.8795 66.2021 16.5533 66.7848 16.1022L67.6033 15.4706C68.4149 14.8459 69.2057 14.6724 70.0172 15.1999C70.9745 15.8246 71.2172 17.2821 70.1906 18.8715C69.6357 19.7252 68.7617 20.4609 67.7767 20.7871L67.7698 20.7802Z" fill="white" fill-opacity="0.2"/>
<path d="M68.0403 11.1674L67.2288 13.1177L65.9663 12.5902L68.3039 6.93359L69.5664 7.46108L68.7548 9.42528L73.8184 11.5283L73.097 13.2704L68.0334 11.1674H68.0403Z" fill="white" fill-opacity="0.2"/>
<path d="M10.932 10.4317L9.98858 8.54388L11.2163 7.93311L13.9424 13.4093L12.7146 14.02L11.7713 12.1183L6.86715 14.5684L6.02783 12.8818L10.932 10.4387V10.4317Z" fill="white" fill-opacity="0.2"/>
<path d="M14.3792 14.0825L17.1955 18.1636L16.0648 18.941L14.3168 16.4076L13.2694 17.1295L14.7538 19.2811L13.6162 20.0654L12.1318 17.9138L10.9387 18.7397L12.7492 21.3702L11.6116 22.1545L8.73291 17.9762L14.3723 14.0825H14.3792Z" fill="white" fill-opacity="0.2"/>
<path d="M13.2905 22.9042L14.8512 22.8903C14.9345 23.5705 15.2328 24.2923 15.6628 24.7365C16.1414 25.2362 16.5368 25.3126 16.8004 25.0558C17.0848 24.7781 16.8767 24.3825 16.5923 23.7232L16.1622 22.7515C15.7946 21.9672 15.6975 20.9955 16.412 20.3084C17.2374 19.5102 18.7149 19.7184 19.8733 20.9122C20.5045 21.5646 20.9484 22.46 20.9901 23.3692L19.6028 23.4108C19.4918 22.807 19.2837 22.3281 18.8606 21.8908C18.4582 21.4744 18.0698 21.3703 17.8131 21.6132C17.5357 21.8839 17.7646 22.335 18.0767 22.9944L18.5137 23.9314C18.9438 24.8614 18.9299 25.6735 18.2363 26.3467C17.4178 27.1379 15.9333 27.0477 14.6223 25.6874C13.9148 24.9516 13.3946 23.9383 13.2975 22.9042H13.2905Z" fill="white" fill-opacity="0.2"/>
<path d="M22.5994 25.3193L20.8791 24.0908L21.6768 22.9734L26.6573 26.527L25.8596 27.6444L24.1324 26.409L20.9485 30.8718L19.4155 29.7822L22.5994 25.3193Z" fill="white" fill-opacity="0.2"/>
</g>
<defs>
<clipPath id="clip0_2133_7057">
<rect width="79" height="38" fill="white"/>
</clipPath>
</defs>
</svg>
