<svg width="36" height="43" viewBox="0 0 36 43" fill="none" xmlns="http://www.w3.org/2000/svg">
<path id="Oval 2" d="M12.9596 42.7999C12.2305 42.4215 12.1372 41.3155 12.0469 40.2479C12.0876 39.4815 11.8858 38.7236 11.4772 38.1081C10.6269 37.4613 9.62256 37.1178 8.59555 37.1227C7.57149 37.0868 6.56748 36.7948 5.65673 36.2679C4.13717 35.2385 4.2124 33.2823 4.28361 31.3914C4.34379 29.8011 4.40096 28.2999 3.44811 27.5791C3.03323 27.2844 2.5792 27.0658 2.10307 26.9316C1.35884 26.6827 0.771075 26.4811 0.527344 25.3019C0.82472 24.2506 1.2915 23.2696 1.90447 22.4076C2.61563 21.2179 3.2595 19.9793 3.83226 18.6989C4.1228 18.0622 4.17829 17.3226 3.98672 16.6402C3.87998 16.1615 3.82675 15.6697 3.82825 15.1762C3.84374 13.0865 4.26842 11.0263 5.07217 9.14154C5.87593 7.25677 7.03909 5.5936 8.4792 4.26992C11.6431 1.42332 15.5962 -0.0864241 19.6497 0.00382377C23.7806 -0.0425377 27.7803 1.6314 30.8764 4.70238C32.3241 6.11476 33.4875 7.85688 34.2894 9.81302C35.0913 11.7691 35.5133 13.8945 35.5273 16.0478C35.5273 19.9141 33.8724 22.9076 31.7771 26.6996C30.9255 28.2402 30.0449 29.8338 29.1693 31.6662C28.492 33.0876 28.2639 34.7249 28.5223 36.3106C28.7526 37.6379 29.1279 38.9282 29.6397 40.1522C30.1301 41.4405 30.4842 42.3708 30.07 42.7999H12.9596ZM21.7661 21.0753C22.3221 21.5259 22.9534 21.8461 23.6222 22.0167C24.291 22.1873 24.9835 22.2048 25.6584 22.0681C26.3334 21.9315 26.9768 21.6435 27.5504 21.2213C28.124 20.7992 28.6159 20.2516 28.9967 19.6112C29.7014 19.5995 30.3825 19.3247 30.9326 18.8302C31.4827 18.3357 31.8705 17.6496 32.0349 16.8801C32.3893 16.61 32.6683 16.2328 32.8398 15.7921C33.0112 15.3514 33.0681 14.8652 33.0038 14.3897C32.9395 13.9143 32.7566 13.469 32.4763 13.1053C32.1961 12.7416 31.8298 12.4745 31.42 12.3347C31.435 12.2146 31.4423 12.0934 31.4421 11.9721C31.4416 11.2966 31.2023 10.649 30.777 10.1714C30.3516 9.69377 29.7748 9.42518 29.1733 9.42459C29.0875 9.42401 29.0017 9.42927 28.9165 9.44035C28.7831 8.03512 28.1907 6.73521 27.2538 5.79157C26.3169 4.84794 25.1019 4.3275 23.8433 4.33073C23.5372 4.33059 23.2318 4.36112 22.9305 4.42195C22.5375 3.92527 21.9872 3.62067 21.3969 3.57312C20.8067 3.52557 20.2233 3.73884 19.7711 4.16743C18.6456 3.53762 17.3527 3.3962 16.14 3.77026C14.9274 4.14431 13.8803 5.00755 13.1994 6.19461C13.0093 6.13749 12.8134 6.10871 12.6166 6.10902C12.174 6.11037 11.7414 6.25691 11.372 6.53063C11.0026 6.80434 10.7125 7.1933 10.5374 7.64968C10.4782 7.64968 10.417 7.64405 10.3518 7.64405C9.85002 7.64468 9.3555 7.77883 8.9088 8.03549C8.46209 8.29216 8.07592 8.66404 7.78193 9.12065C7.48794 9.57725 7.29451 10.1056 7.21748 10.6623C7.14046 11.2191 7.18205 11.7884 7.33883 12.3237C7.4956 12.8589 7.76312 13.3448 8.11943 13.7415C8.47575 14.1382 8.91072 14.4345 9.3887 14.606C9.86668 14.7775 10.3741 14.8194 10.8692 14.7282C11.3644 14.6371 11.8333 14.4154 12.2375 14.0815C12.7745 15.014 13.541 15.7515 14.4441 16.2044C14.4856 17.15 14.7351 18.0694 15.1704 18.8803C15.6056 19.6913 16.213 20.3685 16.9382 20.8515C17.6634 21.3345 18.484 21.6083 19.3264 21.6483C20.1689 21.6883 21.0071 21.4934 21.7661 21.0809V21.0753ZM21.9787 18.485L22.1001 18.0773C22.3132 17.3586 22.3132 16.5818 22.1001 15.8631L21.9787 15.4566C21.9551 15.3766 21.9486 15.2915 21.96 15.2082C21.9714 15.1249 22.0001 15.0458 22.044 14.9774C22.0879 14.9091 22.1455 14.8534 22.2123 14.8149C22.2791 14.7764 22.353 14.7562 22.428 14.7561C22.6193 14.7565 22.8057 14.8244 22.9608 14.9501C23.1159 15.0757 23.232 15.2529 23.2926 15.4566L23.3618 15.6897L23.6547 15.5771C24.2946 15.3369 24.9867 15.3369 25.6266 15.5771L25.9887 15.7122C26.1703 15.7804 26.3282 15.9109 26.4401 16.0853C26.5521 16.2597 26.6124 16.4692 26.6126 16.6842C26.6125 16.7684 26.5946 16.8514 26.5603 16.9264C26.526 17.0013 26.4764 17.0661 26.4155 17.1152C26.3545 17.1644 26.2841 17.1966 26.2099 17.2092C26.1357 17.2217 26.0599 17.2143 25.9887 17.1876L25.6266 17.0524C24.9867 16.8122 24.2946 16.8122 23.6547 17.0524L23.5705 17.084C23.5605 17.4203 23.5075 17.7534 23.413 18.0728L23.2916 18.4805C23.2309 18.684 23.1148 18.861 22.9597 18.9865C22.8045 19.112 22.6182 19.1796 22.427 19.1798C22.3529 19.1795 22.2798 19.1595 22.2137 19.1216C22.1477 19.0837 22.0905 19.0289 22.0467 18.9616C22.003 18.8943 21.974 18.8164 21.962 18.7342C21.95 18.652 21.9554 18.5678 21.9777 18.4883L21.9787 18.485ZM16.2014 16.1954C16.0943 16.0174 16.0399 15.806 16.0458 15.5914C16.0518 15.3767 16.1178 15.1695 16.2345 14.9993L16.4672 14.6615C16.8777 14.0605 17.4512 13.6256 18.1011 13.4226L18.4692 13.31C18.6538 13.2515 18.8502 13.26 19.0303 13.3342C19.2104 13.4084 19.3651 13.5446 19.4722 13.7233C19.5142 13.7932 19.5408 13.8733 19.5498 13.957C19.5589 14.0407 19.55 14.1256 19.5241 14.2047C19.4981 14.2838 19.4557 14.3548 19.4005 14.4119C19.3453 14.469 19.2787 14.5106 19.2064 14.5331L18.8383 14.6457C18.1886 14.8492 17.6153 15.2839 17.2044 15.8845L16.9717 16.2224C16.9259 16.2893 16.8667 16.343 16.7988 16.3791C16.731 16.4152 16.6564 16.4326 16.5814 16.43C16.5063 16.4273 16.4329 16.4047 16.3671 16.3639C16.3014 16.3231 16.2453 16.2653 16.2034 16.1954H16.2014ZM27.2816 13.9857L27.071 13.6276C26.6984 12.9955 26.5192 12.2444 26.5604 11.4878L26.5835 11.0598C26.5964 10.8469 26.6682 10.6437 26.7888 10.4788C26.9095 10.3138 27.073 10.1953 27.2565 10.1397C27.329 10.118 27.4051 10.1159 27.4785 10.1336C27.5518 10.1514 27.6204 10.1884 27.6785 10.2418C27.7366 10.2951 27.7826 10.3632 27.8126 10.4405C27.8427 10.5177 27.8559 10.6018 27.8513 10.6859L27.8282 11.1139C27.7879 11.8704 27.967 12.6212 28.3388 13.2537L28.5494 13.6118C28.5908 13.6821 28.6166 13.7623 28.6249 13.846C28.6331 13.9297 28.6235 14.0143 28.5969 14.093C28.5702 14.1717 28.5273 14.2421 28.4716 14.2985C28.4159 14.3548 28.349 14.3955 28.2766 14.4171C28.0918 14.4731 27.8959 14.4622 27.7169 14.386C27.5379 14.3098 27.3849 14.1721 27.2796 13.9925L27.2816 13.9857ZM18.1753 11.7164C18.0886 11.525 18.0578 11.3078 18.0871 11.0956C18.1165 10.8833 18.2045 10.6868 18.3388 10.5339L18.6066 10.2276C18.7321 10.0844 18.8683 9.95365 19.0138 9.83678C18.9019 9.53286 18.8736 9.19827 18.9326 8.87612L18.9476 8.79053C18.9869 8.57312 19.0794 8.37232 19.2148 8.21076C19.3502 8.04919 19.523 7.93327 19.7139 7.87605C19.7808 7.85464 19.8515 7.85312 19.919 7.87164C19.9866 7.89017 20.0487 7.92809 20.0993 7.98169C20.1499 8.0353 20.1872 8.10275 20.2075 8.17741C20.2279 8.25208 20.2306 8.33141 20.2154 8.40762L20.2004 8.49321C20.1546 8.74381 20.1615 9.00293 20.2204 9.25002C20.2672 9.23951 20.3144 9.23013 20.3618 9.22187L20.739 9.15768C20.9281 9.12556 21.1215 9.16115 21.2917 9.2594C21.4618 9.35764 21.6001 9.51356 21.6868 9.70502C21.7209 9.78004 21.7386 9.86308 21.7384 9.94728C21.7383 10.0315 21.7204 10.1145 21.6861 10.1894C21.6518 10.2642 21.6022 10.3289 21.5413 10.3781C21.4803 10.4272 21.4099 10.4594 21.3358 10.472L20.9586 10.5362C20.8197 10.5595 20.6823 10.5933 20.5474 10.6375C20.5023 10.6795 20.4496 10.7098 20.3929 10.7265C20.3419 10.7417 20.2899 10.7526 20.2375 10.7591C19.8486 10.9384 19.4961 11.2043 19.2014 11.5407L18.9336 11.8459C18.8809 11.9056 18.8165 11.9505 18.7455 11.9769C18.6745 12.0032 18.599 12.0104 18.5251 11.9978C18.4512 11.9852 18.3809 11.9531 18.3201 11.9042C18.2593 11.8553 18.2097 11.791 18.1753 11.7164ZM13.6377 10.5564L13.4842 10.1634C13.2152 9.46879 12.7522 8.89128 12.1653 8.51799L11.8333 8.30626C11.7681 8.26469 11.7126 8.20634 11.6714 8.13599C11.6302 8.06565 11.6045 7.98533 11.5964 7.90165C11.5883 7.81796 11.598 7.73331 11.6247 7.65465C11.6514 7.57599 11.6943 7.50558 11.75 7.44921C11.8926 7.30596 12.0718 7.21678 12.2621 7.19434C12.4524 7.1719 12.6442 7.21734 12.8102 7.3242L13.1422 7.53593C13.3515 7.66897 13.5464 7.82883 13.7229 8.01232C13.7544 7.97791 13.7879 7.94592 13.8232 7.91659L14.0028 7.76005C14.4513 7.36829 15.0172 7.18595 15.5825 7.251L15.8092 7.2769C16.0026 7.29937 16.1855 7.38653 16.3343 7.52709C16.4831 7.66765 16.5909 7.85513 16.6437 8.06525C16.6635 8.14375 16.666 8.22652 16.6508 8.30632C16.6356 8.38613 16.6033 8.46055 16.5566 8.52308C16.5099 8.58562 16.4503 8.63438 16.3829 8.66509C16.3156 8.69581 16.2426 8.70756 16.1703 8.69931L15.9436 8.6734C15.41 8.6133 14.8752 8.77344 14.4391 9.12389L14.4642 9.18808L14.6176 9.58001C14.6941 9.77716 14.7134 9.99631 14.6729 10.2065C14.6324 10.4166 14.5341 10.6072 14.3919 10.7513C14.3362 10.8078 14.2693 10.8485 14.1967 10.8703C14.1242 10.892 14.0481 10.894 13.9747 10.8762C13.9013 10.8584 13.8327 10.8212 13.7746 10.7678C13.7166 10.7143 13.6707 10.6461 13.6407 10.5688L13.6377 10.5564Z" fill="#F7F6F5"/>
</svg>
