<svg width="37" height="36" viewBox="0 0 37 36" fill="none" xmlns="http://www.w3.org/2000/svg">
<g id="Group 26 Copy">
<rect id="Rectangle" x="0.0625" width="36" height="36" fill="#DCDCDC" fill-opacity="0.01"/>
<path id="Line" d="M18.3547 8.5H22.3547" stroke="#42A075" stroke-width="1.5" stroke-linecap="round"/>
<path id="Line Copy" d="M18.3547 11H20.3547" stroke="#42A075" stroke-width="1.5" stroke-linecap="round"/>
<path id="Union" fill-rule="evenodd" clip-rule="evenodd" d="M18.6626 13.6206H18.0348L17.5941 14.0678L15.3547 16.3405V9C15.3547 7.067 16.9217 5.5 18.8547 5.5H22.6365C24.5695 5.5 26.1365 7.06701 26.1365 9V10.1206C26.1365 12.0536 24.5695 13.6206 22.6365 13.6206H18.6626ZM13.8547 20L15.3547 18.4777L18.6626 15.1206H22.6365C25.3979 15.1206 27.6365 12.882 27.6365 10.1206V9C27.6365 6.23858 25.3979 4 22.6365 4H18.8547C16.0933 4 13.8547 6.23858 13.8547 9V17.8628V20ZM13.8547 20C13.8547 17.7909 12.0639 16 9.85474 16C7.6456 16 5.85474 17.7909 5.85474 20C5.85474 21.4495 6.62573 22.7189 7.77999 23.4205C5.93109 24.2159 4.63647 26.0542 4.63647 28.1949C4.63647 31.064 6.96196 33.3899 9.83059 33.3899C12.6992 33.3899 15.0247 31.064 15.0247 28.1949C15.0247 26.0651 13.7432 24.2346 11.9093 23.4327C13.0747 22.7337 13.8547 21.4579 13.8547 20ZM9.85474 22.5C11.2354 22.5 12.3547 21.3807 12.3547 20C12.3547 18.6193 11.2354 17.5 9.85474 17.5C8.47402 17.5 7.35474 18.6193 7.35474 20C7.35474 21.3807 8.47402 22.5 9.85474 22.5ZM24.8547 22.5C26.2354 22.5 27.3547 21.3807 27.3547 20C27.3547 18.6193 26.2354 17.5 24.8547 17.5C23.474 17.5 22.3547 18.6193 22.3547 20C22.3547 21.3807 23.474 22.5 24.8547 22.5ZM26.9093 23.4327C28.0747 22.7337 28.8547 21.4579 28.8547 20C28.8547 17.7909 27.0639 16 24.8547 16C22.6456 16 20.8547 17.7909 20.8547 20C20.8547 21.4495 21.6257 22.7189 22.78 23.4205C20.9311 24.2159 19.6365 26.0542 19.6365 28.1949C19.6365 31.064 21.962 33.3899 24.8306 33.3899C27.6992 33.3899 30.0247 31.064 30.0247 28.1949C30.0247 26.0651 28.7432 24.2346 26.9093 23.4327ZM9.83059 31.8899C11.8706 31.8899 13.5247 30.2358 13.5247 28.1949C13.5247 26.1541 11.8706 24.5 9.83059 24.5C7.79061 24.5 6.13647 26.1541 6.13647 28.1949C6.13647 30.2358 7.79061 31.8899 9.83059 31.8899ZM28.5247 28.1949C28.5247 30.2358 26.8706 31.8899 24.8306 31.8899C22.7906 31.8899 21.1365 30.2358 21.1365 28.1949C21.1365 26.1541 22.7906 24.5 24.8306 24.5C26.8706 24.5 28.5247 26.1541 28.5247 28.1949Z" fill="#42A075"/>
</g>
</svg>
