<svg id="Group_15" data-name="Group 15" xmlns="http://www.w3.org/2000/svg" xmlns:xlink="http://www.w3.org/1999/xlink" width="19.026" height="16" viewBox="0 0 19.026 16">
  <defs>
    <clipPath id="clip-path">
      <path id="Clip_2" data-name="Clip 2" d="M0,1.611A2.524,2.524,0,0,0,1.49,3.691h0a7.863,7.863,0,0,0,7.134,0h0a2.5,2.5,0,0,0,1.464-2.052h0l0-1.611A2.5,2.5,0,0,1,8.627,2.075h0a7.863,7.863,0,0,1-7.134,0h0A2.524,2.524,0,0,1,0,0H0Z" fill="none"/>
    </clipPath>
    <linearGradient id="linear-gradient" y1="0.5" x2="1" y2="0.5" gradientUnits="objectBoundingBox">
      <stop offset="0" stop-color="#efba36"/>
      <stop offset="1" stop-color="#d39102"/>
    </linearGradient>
    <clipPath id="clip-path-4">
      <path id="Clip_39" data-name="Clip 39" d="M0,0H10.089V3.135H0Z" fill="none"/>
    </clipPath>
    <clipPath id="clip-path-8">
      <path id="Clip_32-2" data-name="Clip 32" d="M0,1.641A2.57,2.57,0,0,0,1.517,3.758h0a8.007,8.007,0,0,0,7.265,0h0a2.55,2.55,0,0,0,1.491-2.09h0l0-1.641a2.55,2.55,0,0,1-1.491,2.09h0a8.007,8.007,0,0,1-7.265,0h0A2.57,2.57,0,0,1,0,0H0Z" fill="none"/>
    </clipPath>
    <clipPath id="clip-path-9">
      <path id="Clip_39-2" data-name="Clip 39" d="M0,0H10.274V3.192H0Z" fill="none"/>
    </clipPath>
    <clipPath id="clip-path-12">
      <path id="Clip_75-2" data-name="Clip 75" d="M0,1.641A2.57,2.57,0,0,0,1.517,3.758h0a8.007,8.007,0,0,0,7.265,0h0a2.551,2.551,0,0,0,1.491-2.09h0l0-1.641a2.55,2.55,0,0,1-1.491,2.09h0a8.007,8.007,0,0,1-7.265,0h0A2.57,2.57,0,0,1,0,0H0Z" fill="none"/>
    </clipPath>
  </defs>
  <g id="Group_92" data-name="Group 92">
    <g id="Group_3" data-name="Group 3" transform="translate(0.253 8.921)">
      <path id="Clip_2-2" data-name="Clip 2" d="M0,1.611A2.524,2.524,0,0,0,1.49,3.691h0a7.863,7.863,0,0,0,7.134,0h0a2.5,2.5,0,0,0,1.464-2.052h0l0-1.611A2.5,2.5,0,0,1,8.627,2.075h0a7.863,7.863,0,0,1-7.134,0h0A2.524,2.524,0,0,1,0,0H0Z" fill="none"/>
      <g id="Group_3-2" data-name="Group 3" clip-path="url(#clip-path)">
        <path id="Fill_1" data-name="Fill 1" d="M0,1.611A2.524,2.524,0,0,0,1.49,3.691h0a7.863,7.863,0,0,0,7.134,0h0a2.5,2.5,0,0,0,1.464-2.052h0l0-1.611A2.5,2.5,0,0,1,8.627,2.075h0a7.863,7.863,0,0,1-7.134,0h0A2.524,2.524,0,0,1,0,0H0Z" fill="url(#linear-gradient)"/>
      </g>
    </g>
    <g id="Group_12" data-name="Group 12" transform="translate(0.256 6.01)">
      <path id="Fill_4" data-name="Fill 4" d="M8.6.856C10.575,2,10.587,3.847,8.623,4.988a7.863,7.863,0,0,1-7.134,0C-.487,3.847-.5,2,1.465.856A7.861,7.861,0,0,1,8.6.856" transform="translate(0)" fill="#f2c95f"/>
      <path id="Fill_6" data-name="Fill 6" d="M7.039.7c1.618.934,1.627,2.449.02,3.383a6.437,6.437,0,0,1-5.841,0C-.4,3.149-.407,1.634,1.2.7a6.436,6.436,0,0,1,5.84,0" transform="translate(0.915 0.53)" fill="#efbb37"/>
      <path id="Fill_8" data-name="Fill 8" d="M10.079,0a1.766,1.766,0,0,1-.1.807,2.264,2.264,0,0,1-.418.7,4.073,4.073,0,0,1-1.321.962,6.551,6.551,0,0,1-1.561.5,8.75,8.75,0,0,1-1.632.16A8.683,8.683,0,0,1,3.419,2.97a6.668,6.668,0,0,1-1.56-.5A4.124,4.124,0,0,1,.536,1.506a2.3,2.3,0,0,1-.423-.7A1.775,1.775,0,0,1,.008,0,1.765,1.765,0,0,0,.131.8a2.274,2.274,0,0,0,.433.683,4.088,4.088,0,0,0,1.319.932A6.9,6.9,0,0,0,3.432,2.9a8.626,8.626,0,0,0,1.618.156,8.667,8.667,0,0,0,1.619-.152A6.768,6.768,0,0,0,8.219,2.42a4.038,4.038,0,0,0,1.317-.934A2.236,2.236,0,0,0,9.965.8a1.757,1.757,0,0,0,.114-.8" transform="translate(0 2.747)" fill="#fff"/>
      <path id="Fill_10" data-name="Fill 10" d="M1.857,3.229h0l-.03-.017L1.34,2.931,1.31,2.914l1.46-1.291-2.223.85-.03-.018-.486-.28L0,2.157,1.769.593,1.376.365,1.835.1l.3.173L2.44,0l.517.3L2.65.57l.63.364L3.747.754l.517.3-.3.273.629.364.468-.178.516.3-.467.178.3.173-.459.266L4.552,2.2l-2.7,1.03ZM3.6,1.647h0l-.841.743,1.28-.49L3.6,1.647ZM2.286.891h0l-.84.743,1.279-.489L2.286.891Z" transform="translate(2.481 1.132)" fill="#fff"/>
    </g>
    <g id="Group_30" data-name="Group 30" transform="translate(0.254 8.921)">
      <path id="Clip_14-2" data-name="Clip 14" d="M0,1.611A2.524,2.524,0,0,0,1.49,3.691h0a7.863,7.863,0,0,0,7.134,0h0a2.5,2.5,0,0,0,1.464-2.052h0l0-1.611A2.5,2.5,0,0,1,8.627,2.075h0a7.863,7.863,0,0,1-7.134,0h0A2.524,2.524,0,0,1,0,0H0Z" fill="none"/>
      <g id="Group_30-2" data-name="Group 30" clip-path="url(#clip-path)">
        <path id="Fill_13" data-name="Fill 13" d="M0,6.6H.111V0H0Z" transform="translate(0.257 -1.26)" fill="#fcf1d7"/>
        <path id="Fill_15" data-name="Fill 15" d="M0,6.6H.111V0H0Z" transform="translate(0.885 -1.26)" fill="#fcf1d7"/>
        <path id="Fill_16" data-name="Fill 16" d="M0,6.6H.111V0H0Z" transform="translate(1.514 -1.26)" fill="#fcf1d7"/>
        <path id="Fill_17" data-name="Fill 17" d="M0,6.6H.111V0H0Z" transform="translate(2.142 -1.26)" fill="#fcf1d7"/>
        <path id="Fill_18" data-name="Fill 18" d="M0,6.6H.111V0H0Z" transform="translate(2.771 -1.26)" fill="#fcf1d7"/>
        <path id="Fill_19" data-name="Fill 19" d="M0,6.6H.111V0H0Z" transform="translate(3.399 -1.26)" fill="#fcf1d7"/>
        <path id="Fill_20" data-name="Fill 20" d="M0,6.6H.111V0H0Z" transform="translate(4.028 -1.26)" fill="#fcf1d7"/>
        <path id="Fill_21" data-name="Fill 21" d="M0,6.6H.111V0H0Z" transform="translate(4.656 -1.26)" fill="#fcf1d7"/>
        <path id="Fill_22" data-name="Fill 22" d="M0,6.6H.111V0H0Z" transform="translate(5.285 -1.26)" fill="#fcf1d7"/>
        <path id="Fill_23" data-name="Fill 23" d="M0,6.6H.111V0H0Z" transform="translate(5.913 -1.26)" fill="#fcf1d7"/>
        <path id="Fill_24" data-name="Fill 24" d="M0,6.6H.111V0H0Z" transform="translate(6.542 -1.26)" fill="#fcf1d7"/>
        <path id="Fill_25" data-name="Fill 25" d="M0,6.6H.111V0H0Z" transform="translate(7.17 -1.26)" fill="#fcf1d7"/>
        <path id="Fill_26" data-name="Fill 26" d="M0,6.6H.111V0H0Z" transform="translate(7.799 -1.26)" fill="#fcf1d7"/>
        <path id="Fill_27" data-name="Fill 27" d="M0,6.6H.111V0H0Z" transform="translate(8.427 -1.26)" fill="#fcf1d7"/>
        <path id="Fill_28" data-name="Fill 28" d="M0,6.6H.111V0H0Z" transform="translate(9.056 -1.26)" fill="#fcf1d7"/>
        <path id="Fill_29" data-name="Fill 29" d="M0,6.6H.111V0H0Z" transform="translate(9.684 -1.26)" fill="#fcf1d7"/>
      </g>
    </g>
    <g id="Group_33" data-name="Group 33" transform="translate(0.813 5.723)">
      <path id="Clip_32-3" data-name="Clip 32" d="M0,1.611A2.524,2.524,0,0,0,1.49,3.691h0a7.863,7.863,0,0,0,7.134,0h0a2.5,2.5,0,0,0,1.464-2.052h0l0-1.611A2.5,2.5,0,0,1,8.627,2.075h0a7.863,7.863,0,0,1-7.134,0h0A2.524,2.524,0,0,1,0,0H0Z" fill="none"/>
      <g id="Group_33-2" data-name="Group 33" clip-path="url(#clip-path)">
        <path id="Fill_31" data-name="Fill 31" d="M0,1.611A2.524,2.524,0,0,0,1.49,3.691h0a7.863,7.863,0,0,0,7.134,0h0a2.5,2.5,0,0,0,1.464-2.052h0l0-1.611A2.5,2.5,0,0,1,8.627,2.075h0a7.863,7.863,0,0,1-7.134,0h0A2.524,2.524,0,0,1,0,0H0Z" fill="url(#linear-gradient)"/>
      </g>
    </g>
    <g id="Group_43" data-name="Group 43" transform="translate(0.817 2.813)">
      <path id="Fill_34" data-name="Fill 34" d="M8.6.856C10.575,2,10.587,3.847,8.623,4.988a7.863,7.863,0,0,1-7.134,0C-.487,3.847-.5,2,1.465.856A7.861,7.861,0,0,1,8.6.856" transform="translate(0)" fill="#f2c95f"/>
      <path id="Fill_36" data-name="Fill 36" d="M7.039.7c1.618.934,1.627,2.449.02,3.383a6.437,6.437,0,0,1-5.841,0C-.4,3.149-.407,1.634,1.2.7a6.436,6.436,0,0,1,5.84,0" transform="translate(0.915 0.53)" fill="#efbb37"/>
      <g id="Group_40" data-name="Group 40" transform="translate(0 2.747)">
        <path id="Clip_39-3" data-name="Clip 39" d="M0,0H10.089V3.135H0Z" fill="none"/>
        <g id="Group_40-2" data-name="Group 40" clip-path="url(#clip-path-4)">
          <path id="Fill_38" data-name="Fill 38" d="M10.079,0a1.766,1.766,0,0,1-.1.807,2.264,2.264,0,0,1-.418.7,4.073,4.073,0,0,1-1.321.962,6.551,6.551,0,0,1-1.561.5,8.75,8.75,0,0,1-1.632.16A8.682,8.682,0,0,1,3.419,2.97a6.671,6.671,0,0,1-1.56-.5A4.124,4.124,0,0,1,.536,1.506a2.3,2.3,0,0,1-.423-.7A1.775,1.775,0,0,1,.008,0,1.765,1.765,0,0,0,.131.8a2.273,2.273,0,0,0,.433.683,4.087,4.087,0,0,0,1.319.932A6.9,6.9,0,0,0,3.432,2.9a8.625,8.625,0,0,0,1.618.156,8.667,8.667,0,0,0,1.619-.152A6.772,6.772,0,0,0,8.219,2.42a4.038,4.038,0,0,0,1.317-.934A2.236,2.236,0,0,0,9.965.8a1.757,1.757,0,0,0,.114-.8" fill="#fff"/>
        </g>
      </g>
      <path id="Fill_41" data-name="Fill 41" d="M1.857,3.229h0l-.03-.017L1.34,2.931,1.31,2.914l1.46-1.291-2.223.85-.03-.018-.486-.28L0,2.157,1.769.593,1.376.365,1.835.1l.3.173L2.44,0l.517.3L2.65.57l.63.364L3.747.754l.517.3-.3.273.629.364.468-.178.516.3-.467.178.3.173-.459.266L4.552,2.2l-2.7,1.03ZM3.6,1.647h0l-.841.743,1.28-.49L3.6,1.647ZM2.286.891h0l-.84.743,1.279-.489L2.286.891Z" transform="translate(2.481 1.132)" fill="#fff"/>
    </g>
    <g id="Group_61" data-name="Group 61" transform="translate(0.815 5.723)">
      <path id="Clip_45-3" data-name="Clip 45" d="M0,1.611A2.524,2.524,0,0,0,1.49,3.691h0a7.863,7.863,0,0,0,7.134,0h0a2.5,2.5,0,0,0,1.464-2.052h0l0-1.611A2.5,2.5,0,0,1,8.627,2.075h0a7.863,7.863,0,0,1-7.134,0h0A2.524,2.524,0,0,1,0,0H0Z" fill="none"/>
      <g id="Group_61-2" data-name="Group 61" clip-path="url(#clip-path)">
        <path id="Fill_44" data-name="Fill 44" d="M0,6.6H.111V0H0Z" transform="translate(0.257 -1.26)" fill="#fcf1d7"/>
        <path id="Fill_46" data-name="Fill 46" d="M0,6.6H.111V0H0Z" transform="translate(0.885 -1.26)" fill="#fcf1d7"/>
        <path id="Fill_47" data-name="Fill 47" d="M0,6.6H.111V0H0Z" transform="translate(1.514 -1.26)" fill="#fcf1d7"/>
        <path id="Fill_48" data-name="Fill 48" d="M0,6.6H.111V0H0Z" transform="translate(2.142 -1.26)" fill="#fcf1d7"/>
        <path id="Fill_49" data-name="Fill 49" d="M0,6.6H.111V0H0Z" transform="translate(2.771 -1.26)" fill="#fcf1d7"/>
        <path id="Fill_50" data-name="Fill 50" d="M0,6.6H.111V0H0Z" transform="translate(3.399 -1.26)" fill="#fcf1d7"/>
        <path id="Fill_51" data-name="Fill 51" d="M0,6.6H.111V0H0Z" transform="translate(4.028 -1.26)" fill="#fcf1d7"/>
        <path id="Fill_52" data-name="Fill 52" d="M0,6.6H.111V0H0Z" transform="translate(4.656 -1.26)" fill="#fcf1d7"/>
        <path id="Fill_53" data-name="Fill 53" d="M0,6.6H.111V0H0Z" transform="translate(5.285 -1.26)" fill="#fcf1d7"/>
        <path id="Fill_54" data-name="Fill 54" d="M0,6.6H.111V0H0Z" transform="translate(5.913 -1.26)" fill="#fcf1d7"/>
        <path id="Fill_55" data-name="Fill 55" d="M0,6.6H.111V0H0Z" transform="translate(6.542 -1.26)" fill="#fcf1d7"/>
        <path id="Fill_56" data-name="Fill 56" d="M0,6.6H.111V0H0Z" transform="translate(7.17 -1.26)" fill="#fcf1d7"/>
        <path id="Fill_57" data-name="Fill 57" d="M0,6.6H.111V0H0Z" transform="translate(7.799 -1.26)" fill="#fcf1d7"/>
        <path id="Fill_58" data-name="Fill 58" d="M0,6.6H.111V0H0Z" transform="translate(8.427 -1.26)" fill="#fcf1d7"/>
        <path id="Fill_59" data-name="Fill 59" d="M0,6.6H.111V0H0Z" transform="translate(9.056 -1.26)" fill="#fcf1d7"/>
        <path id="Fill_60" data-name="Fill 60" d="M0,6.6H.111V0H0Z" transform="translate(9.684 -1.26)" fill="#fcf1d7"/>
      </g>
    </g>
    <g id="Group_64" data-name="Group 64" transform="translate(0 2.911)">
      <path id="Clip_63-3" data-name="Clip 63" d="M0,1.611A2.524,2.524,0,0,0,1.49,3.691h0a7.863,7.863,0,0,0,7.134,0h0a2.5,2.5,0,0,0,1.464-2.052h0l0-1.611A2.5,2.5,0,0,1,8.627,2.075h0a7.863,7.863,0,0,1-7.134,0h0A2.524,2.524,0,0,1,0,0H0Z" fill="none"/>
      <g id="Group_64-2" data-name="Group 64" clip-path="url(#clip-path)">
        <path id="Fill_62" data-name="Fill 62" d="M0,1.611A2.524,2.524,0,0,0,1.49,3.691h0a7.863,7.863,0,0,0,7.134,0h0a2.5,2.5,0,0,0,1.464-2.052h0l0-1.611A2.5,2.5,0,0,1,8.627,2.075h0a7.863,7.863,0,0,1-7.134,0h0A2.524,2.524,0,0,1,0,0H0Z" fill="url(#linear-gradient)"/>
      </g>
    </g>
    <g id="Group_73" data-name="Group 73" transform="translate(0.004)">
      <path id="Fill_65" data-name="Fill 65" d="M8.6.856C10.575,2,10.587,3.847,8.623,4.988a7.863,7.863,0,0,1-7.134,0C-.487,3.847-.5,2,1.465.856A7.861,7.861,0,0,1,8.6.856" transform="translate(0)" fill="#f2c95f"/>
      <path id="Fill_67" data-name="Fill 67" d="M7.039.7c1.618.934,1.627,2.449.02,3.383a6.437,6.437,0,0,1-5.841,0C-.4,3.149-.407,1.634,1.2.7a6.436,6.436,0,0,1,5.84,0" transform="translate(0.915 0.53)" fill="#efbb37"/>
      <path id="Fill_69" data-name="Fill 69" d="M10.079,0a1.766,1.766,0,0,1-.1.807,2.264,2.264,0,0,1-.418.7,4.073,4.073,0,0,1-1.321.962,6.551,6.551,0,0,1-1.561.5,8.75,8.75,0,0,1-1.632.16A8.683,8.683,0,0,1,3.419,2.97a6.671,6.671,0,0,1-1.56-.5A4.124,4.124,0,0,1,.536,1.506a2.3,2.3,0,0,1-.423-.7A1.775,1.775,0,0,1,.008,0,1.765,1.765,0,0,0,.131.8a2.274,2.274,0,0,0,.433.683,4.088,4.088,0,0,0,1.319.932A6.9,6.9,0,0,0,3.432,2.9a8.626,8.626,0,0,0,1.618.156,8.673,8.673,0,0,0,1.619-.152A6.772,6.772,0,0,0,8.219,2.42a4.038,4.038,0,0,0,1.317-.934A2.236,2.236,0,0,0,9.965.8a1.757,1.757,0,0,0,.114-.8" transform="translate(0 2.747)" fill="#fff"/>
      <path id="Fill_71" data-name="Fill 71" d="M1.857,3.229h0l-.03-.017L1.34,2.931,1.31,2.914l1.46-1.291-2.223.85-.03-.018-.486-.28L0,2.157,1.769.593,1.376.365,1.835.1l.3.173L2.44,0l.517.3L2.65.57l.63.364L3.747.754l.517.3-.3.273.629.364.468-.178.516.3-.467.178.3.173-.459.266L4.552,2.2l-2.7,1.03ZM3.6,1.647h0l-.841.743,1.28-.49L3.6,1.647ZM2.286.891h0l-.84.743,1.279-.489L2.286.891Z" transform="translate(2.481 1.132)" fill="#fff"/>
    </g>
    <g id="Group_91" data-name="Group 91" transform="translate(0.002 2.911)">
      <path id="Clip_75-3" data-name="Clip 75" d="M0,1.611A2.524,2.524,0,0,0,1.49,3.691h0a7.863,7.863,0,0,0,7.134,0h0a2.5,2.5,0,0,0,1.464-2.052h0l0-1.611A2.5,2.5,0,0,1,8.627,2.075h0a7.863,7.863,0,0,1-7.134,0h0A2.524,2.524,0,0,1,0,0H0Z" fill="none"/>
      <g id="Group_91-2" data-name="Group 91" clip-path="url(#clip-path)">
        <path id="Fill_74" data-name="Fill 74" d="M0,6.6H.111V0H0Z" transform="translate(0.257 -1.26)" fill="#fcf1d7"/>
        <path id="Fill_76" data-name="Fill 76" d="M0,6.6H.111V0H0Z" transform="translate(0.885 -1.26)" fill="#fcf1d7"/>
        <path id="Fill_77" data-name="Fill 77" d="M0,6.6H.111V0H0Z" transform="translate(1.514 -1.26)" fill="#fcf1d7"/>
        <path id="Fill_78" data-name="Fill 78" d="M0,6.6H.111V0H0Z" transform="translate(2.142 -1.26)" fill="#fcf1d7"/>
        <path id="Fill_79" data-name="Fill 79" d="M0,6.6H.111V0H0Z" transform="translate(2.771 -1.26)" fill="#fcf1d7"/>
        <path id="Fill_80" data-name="Fill 80" d="M0,6.6H.111V0H0Z" transform="translate(3.399 -1.26)" fill="#fcf1d7"/>
        <path id="Fill_81" data-name="Fill 81" d="M0,6.6H.111V0H0Z" transform="translate(4.028 -1.26)" fill="#fcf1d7"/>
        <path id="Fill_82" data-name="Fill 82" d="M0,6.6H.111V0H0Z" transform="translate(4.656 -1.26)" fill="#fcf1d7"/>
        <path id="Fill_83" data-name="Fill 83" d="M0,6.6H.111V0H0Z" transform="translate(5.285 -1.26)" fill="#fcf1d7"/>
        <path id="Fill_84" data-name="Fill 84" d="M0,6.6H.111V0H0Z" transform="translate(5.913 -1.26)" fill="#fcf1d7"/>
        <path id="Fill_85" data-name="Fill 85" d="M0,6.6H.111V0H0Z" transform="translate(6.542 -1.26)" fill="#fcf1d7"/>
        <path id="Fill_86" data-name="Fill 86" d="M0,6.6H.111V0H0Z" transform="translate(7.17 -1.26)" fill="#fcf1d7"/>
        <path id="Fill_87" data-name="Fill 87" d="M0,6.6H.111V0H0Z" transform="translate(7.799 -1.26)" fill="#fcf1d7"/>
        <path id="Fill_88" data-name="Fill 88" d="M0,6.6H.111V0H0Z" transform="translate(8.428 -1.26)" fill="#fcf1d7"/>
        <path id="Fill_89" data-name="Fill 89" d="M0,6.6H.111V0H0Z" transform="translate(9.056 -1.26)" fill="#fcf1d7"/>
        <path id="Fill_90" data-name="Fill 90" d="M0,6.6H.111V0H0Z" transform="translate(9.685 -1.26)" fill="#fcf1d7"/>
      </g>
    </g>
  </g>
  <g id="Group_92-2" data-name="Group 92" transform="translate(7.921 5.544)">
    <g id="Group_33-3" data-name="Group 33" transform="translate(0.828 5.828)">
      <path id="Clip_32-4" data-name="Clip 32" d="M0,1.641A2.57,2.57,0,0,0,1.517,3.758h0a8.007,8.007,0,0,0,7.265,0h0a2.55,2.55,0,0,0,1.491-2.09h0l0-1.641a2.55,2.55,0,0,1-1.491,2.09h0a8.007,8.007,0,0,1-7.265,0h0A2.57,2.57,0,0,1,0,0H0Z" fill="none"/>
      <g id="Group_33-4" data-name="Group 33" clip-path="url(#clip-path-8)">
        <path id="Fill_31-2" data-name="Fill 31" d="M0,1.641A2.57,2.57,0,0,0,1.517,3.758h0a8.007,8.007,0,0,0,7.265,0h0a2.55,2.55,0,0,0,1.491-2.09h0l0-1.641a2.55,2.55,0,0,1-1.491,2.09h0a8.007,8.007,0,0,1-7.265,0h0A2.57,2.57,0,0,1,0,0H0Z" fill="url(#linear-gradient)"/>
      </g>
    </g>
    <g id="Group_43-2" data-name="Group 43" transform="translate(0.832 2.864)">
      <path id="Fill_34-2" data-name="Fill 34" d="M8.756.871c2.013,1.162,2.024,3.046.025,4.208a8.007,8.007,0,0,1-7.265,0C-.5,3.917-.507,2.033,1.492.871a8,8,0,0,1,7.264,0" transform="translate(0)" fill="#f2c95f"/>
      <path id="Fill_36-2" data-name="Fill 36" d="M7.168.713c1.648.951,1.657,2.494.02,3.445a6.555,6.555,0,0,1-5.948,0C-.406,3.207-.415,1.664,1.222.713a6.554,6.554,0,0,1,5.947,0" transform="translate(0.932 0.54)" fill="#efbb37"/>
      <g id="Group_40-3" data-name="Group 40" transform="translate(0 2.797)">
        <path id="Clip_39-4" data-name="Clip 39" d="M0,0H10.274V3.192H0Z" fill="none"/>
        <g id="Group_40-4" data-name="Group 40" clip-path="url(#clip-path-9)">
          <path id="Fill_38-2" data-name="Fill 38" d="M10.263,0a1.8,1.8,0,0,1-.1.821,2.306,2.306,0,0,1-.426.716,4.148,4.148,0,0,1-1.345.98,6.671,6.671,0,0,1-1.589.511,8.91,8.91,0,0,1-1.662.163,8.841,8.841,0,0,1-1.662-.167,6.793,6.793,0,0,1-1.589-.513A4.2,4.2,0,0,1,.546,1.534,2.342,2.342,0,0,1,.116.82,1.808,1.808,0,0,1,.009,0,1.8,1.8,0,0,0,.134.814a2.314,2.314,0,0,0,.441.7,4.162,4.162,0,0,0,1.343.949,7.028,7.028,0,0,0,1.577.5,8.783,8.783,0,0,0,1.648.159,8.825,8.825,0,0,0,1.648-.155,6.9,6.9,0,0,0,1.577-.5,4.112,4.112,0,0,0,1.342-.951,2.277,2.277,0,0,0,.436-.7A1.789,1.789,0,0,0,10.263,0" fill="#fff"/>
        </g>
      </g>
      <path id="Fill_41-2" data-name="Fill 41" d="M1.891,3.289h0l-.031-.018-.494-.285-.032-.018L2.821,1.653.556,2.518.526,2.5.031,2.215,0,2.2,1.8.6,1.4.373,1.868.1l.3.176L2.485,0l.526.3L2.7.58,3.34.95,3.815.768l.526.3-.309.278.641.37.476-.182.526.3L5.2,2.024l.3.175-.467.271-.4-.231L1.891,3.288ZM3.662,1.678h0l-.856.756,1.3-.5-.447-.258ZM2.328.907h0l-.856.756,1.3-.5L2.328.907Z" transform="translate(2.527 1.153)" fill="#fff"/>
    </g>
    <g id="Group_61-3" data-name="Group 61" transform="translate(0.83 5.828)">
      <path id="Clip_45-4" data-name="Clip 45" d="M0,1.641A2.57,2.57,0,0,0,1.517,3.758h0a8.007,8.007,0,0,0,7.265,0h0a2.55,2.55,0,0,0,1.491-2.09h0l0-1.641a2.55,2.55,0,0,1-1.491,2.09h0a8.007,8.007,0,0,1-7.265,0h0A2.57,2.57,0,0,1,0,0H0Z" fill="none"/>
      <g id="Group_61-4" data-name="Group 61" clip-path="url(#clip-path-8)">
        <path id="Fill_44-2" data-name="Fill 44" d="M0,6.723H.113V0H0Z" transform="translate(0.261 -1.283)" fill="#fcf1d7"/>
        <path id="Fill_46-2" data-name="Fill 46" d="M0,6.723H.113V0H0Z" transform="translate(0.901 -1.283)" fill="#fcf1d7"/>
        <path id="Fill_47-2" data-name="Fill 47" d="M0,6.723H.113V0H0Z" transform="translate(1.541 -1.283)" fill="#fcf1d7"/>
        <path id="Fill_48-2" data-name="Fill 48" d="M0,6.723H.113V0H0Z" transform="translate(2.181 -1.283)" fill="#fcf1d7"/>
        <path id="Fill_49-2" data-name="Fill 49" d="M0,6.723H.113V0H0Z" transform="translate(2.821 -1.283)" fill="#fcf1d7"/>
        <path id="Fill_50-2" data-name="Fill 50" d="M0,6.723H.113V0H0Z" transform="translate(3.461 -1.283)" fill="#fcf1d7"/>
        <path id="Fill_51-2" data-name="Fill 51" d="M0,6.723H.113V0H0Z" transform="translate(4.102 -1.283)" fill="#fcf1d7"/>
        <path id="Fill_52-2" data-name="Fill 52" d="M0,6.723H.113V0H0Z" transform="translate(4.742 -1.283)" fill="#fcf1d7"/>
        <path id="Fill_53-2" data-name="Fill 53" d="M0,6.723H.113V0H0Z" transform="translate(5.382 -1.283)" fill="#fcf1d7"/>
        <path id="Fill_54-2" data-name="Fill 54" d="M0,6.723H.113V0H0Z" transform="translate(6.022 -1.283)" fill="#fcf1d7"/>
        <path id="Fill_55-2" data-name="Fill 55" d="M0,6.723H.113V0H0Z" transform="translate(6.662 -1.283)" fill="#fcf1d7"/>
        <path id="Fill_56-2" data-name="Fill 56" d="M0,6.723H.113V0H0Z" transform="translate(7.302 -1.283)" fill="#fcf1d7"/>
        <path id="Fill_57-2" data-name="Fill 57" d="M0,6.723H.113V0H0Z" transform="translate(7.942 -1.283)" fill="#fcf1d7"/>
        <path id="Fill_58-2" data-name="Fill 58" d="M0,6.723H.113V0H0Z" transform="translate(8.582 -1.283)" fill="#fcf1d7"/>
        <path id="Fill_59-2" data-name="Fill 59" d="M0,6.723H.113V0H0Z" transform="translate(9.222 -1.283)" fill="#fcf1d7"/>
        <path id="Fill_60-2" data-name="Fill 60" d="M0,6.723H.113V0H0Z" transform="translate(9.862 -1.283)" fill="#fcf1d7"/>
      </g>
    </g>
    <g id="Group_64-3" data-name="Group 64" transform="translate(0 2.964)">
      <path id="Clip_63-4" data-name="Clip 63" d="M0,1.641A2.57,2.57,0,0,0,1.517,3.758h0a8.007,8.007,0,0,0,7.265,0h0a2.55,2.55,0,0,0,1.491-2.09h0l0-1.641a2.55,2.55,0,0,1-1.491,2.09h0a8.007,8.007,0,0,1-7.265,0h0A2.57,2.57,0,0,1,0,0H0Z" fill="none"/>
      <g id="Group_64-4" data-name="Group 64" clip-path="url(#clip-path-8)">
        <path id="Fill_62-2" data-name="Fill 62" d="M0,1.641A2.57,2.57,0,0,0,1.517,3.758h0a8.007,8.007,0,0,0,7.265,0h0a2.55,2.55,0,0,0,1.491-2.09h0l0-1.641a2.55,2.55,0,0,1-1.491,2.09h0a8.007,8.007,0,0,1-7.265,0h0A2.57,2.57,0,0,1,0,0H0Z" fill="url(#linear-gradient)"/>
      </g>
    </g>
    <g id="Group_73-2" data-name="Group 73" transform="translate(0.004)">
      <path id="Fill_65-2" data-name="Fill 65" d="M8.756.871c2.013,1.162,2.024,3.046.025,4.208a8.007,8.007,0,0,1-7.265,0C-.5,3.917-.507,2.033,1.492.871a8.005,8.005,0,0,1,7.264,0" transform="translate(0)" fill="#f2c95f"/>
      <path id="Fill_67-2" data-name="Fill 67" d="M7.168.713c1.648.951,1.657,2.494.02,3.445a6.555,6.555,0,0,1-5.948,0C-.406,3.207-.415,1.664,1.222.713a6.554,6.554,0,0,1,5.947,0" transform="translate(0.932 0.54)" fill="#efbb37"/>
      <path id="Fill_69-2" data-name="Fill 69" d="M10.263,0a1.8,1.8,0,0,1-.1.821,2.306,2.306,0,0,1-.426.716,4.148,4.148,0,0,1-1.345.98,6.671,6.671,0,0,1-1.589.511,8.91,8.91,0,0,1-1.662.163,8.842,8.842,0,0,1-1.662-.167,6.793,6.793,0,0,1-1.589-.513A4.2,4.2,0,0,1,.546,1.534,2.342,2.342,0,0,1,.116.82,1.808,1.808,0,0,1,.009,0,1.8,1.8,0,0,0,.134.814a2.316,2.316,0,0,0,.441.7,4.163,4.163,0,0,0,1.343.949,7.029,7.029,0,0,0,1.577.5,8.784,8.784,0,0,0,1.648.159,8.832,8.832,0,0,0,1.648-.155,6.9,6.9,0,0,0,1.577-.5,4.112,4.112,0,0,0,1.342-.951,2.277,2.277,0,0,0,.436-.7A1.789,1.789,0,0,0,10.263,0" transform="translate(0 2.797)" fill="#fff"/>
      <path id="Fill_71-2" data-name="Fill 71" d="M1.891,3.289h0l-.031-.018-.494-.285-.032-.018L2.821,1.653.556,2.518.526,2.5.031,2.215,0,2.2,1.8.6,1.4.373,1.868.1l.3.176L2.485,0l.526.3L2.7.58,3.339.95,3.815.768l.526.3-.309.278.641.37.476-.182.526.3L5.2,2.024l.3.175-.467.271-.4-.231L1.891,3.288ZM3.662,1.678h0l-.856.756,1.3-.5-.447-.258ZM2.328.907h0l-.856.756,1.3-.5L2.328.907Z" transform="translate(2.527 1.153)" fill="#fff"/>
    </g>
    <g id="Group_91-3" data-name="Group 91" transform="translate(0.002 2.964)">
      <path id="Clip_75-4" data-name="Clip 75" d="M0,1.641A2.57,2.57,0,0,0,1.517,3.758h0a8.007,8.007,0,0,0,7.265,0h0a2.551,2.551,0,0,0,1.491-2.09h0l0-1.641a2.55,2.55,0,0,1-1.491,2.09h0a8.007,8.007,0,0,1-7.265,0h0A2.57,2.57,0,0,1,0,0H0Z" fill="none"/>
      <g id="Group_91-4" data-name="Group 91" clip-path="url(#clip-path-12)">
        <path id="Fill_74-2" data-name="Fill 74" d="M0,6.723H.113V0H0Z" transform="translate(0.261 -1.283)" fill="#fcf1d7"/>
        <path id="Fill_76-2" data-name="Fill 76" d="M0,6.723H.113V0H0Z" transform="translate(0.901 -1.283)" fill="#fcf1d7"/>
        <path id="Fill_77-2" data-name="Fill 77" d="M0,6.723H.113V0H0Z" transform="translate(1.541 -1.283)" fill="#fcf1d7"/>
        <path id="Fill_78-2" data-name="Fill 78" d="M0,6.723H.113V0H0Z" transform="translate(2.181 -1.283)" fill="#fcf1d7"/>
        <path id="Fill_79-2" data-name="Fill 79" d="M0,6.723H.113V0H0Z" transform="translate(2.822 -1.283)" fill="#fcf1d7"/>
        <path id="Fill_80-2" data-name="Fill 80" d="M0,6.723H.113V0H0Z" transform="translate(3.462 -1.283)" fill="#fcf1d7"/>
        <path id="Fill_81-2" data-name="Fill 81" d="M0,6.723H.113V0H0Z" transform="translate(4.102 -1.283)" fill="#fcf1d7"/>
        <path id="Fill_82-2" data-name="Fill 82" d="M0,6.723H.113V0H0Z" transform="translate(4.742 -1.283)" fill="#fcf1d7"/>
        <path id="Fill_83-2" data-name="Fill 83" d="M0,6.723H.113V0H0Z" transform="translate(5.382 -1.283)" fill="#fcf1d7"/>
        <path id="Fill_84-2" data-name="Fill 84" d="M0,6.723H.113V0H0Z" transform="translate(6.022 -1.283)" fill="#fcf1d7"/>
        <path id="Fill_85-2" data-name="Fill 85" d="M0,6.723H.113V0H0Z" transform="translate(6.662 -1.283)" fill="#fcf1d7"/>
        <path id="Fill_86-2" data-name="Fill 86" d="M0,6.723H.113V0H0Z" transform="translate(7.302 -1.283)" fill="#fcf1d7"/>
        <path id="Fill_87-2" data-name="Fill 87" d="M0,6.723H.113V0H0Z" transform="translate(7.942 -1.283)" fill="#fcf1d7"/>
        <path id="Fill_88-2" data-name="Fill 88" d="M0,6.723H.113V0H0Z" transform="translate(8.582 -1.283)" fill="#fcf1d7"/>
        <path id="Fill_89-2" data-name="Fill 89" d="M0,6.723H.113V0H0Z" transform="translate(9.222 -1.283)" fill="#fcf1d7"/>
        <path id="Fill_90-2" data-name="Fill 90" d="M0,6.723H.113V0H0Z" transform="translate(9.862 -1.283)" fill="#fcf1d7"/>
      </g>
    </g>
  </g>
</svg>
