<svg width="19" height="19" viewBox="0 0 19 19" fill="none" xmlns="http://www.w3.org/2000/svg">
<path fill-rule="evenodd" clip-rule="evenodd" d="M16.8333 0.75991C16.8346 0.483771 16.6118 0.258867 16.3357 0.257574C16.0595 0.256281 15.8346 0.479087 15.8333 0.755227L15.8177 4.09162C13.5939 1.69079 10.0496 0.527965 6.35512 1.74554L6.35451 1.74574C3.91659 2.55266 1.97984 4.386 1.09484 6.80672L1.0947 6.80709C-1.70863 14.4939 5.86775 21.6023 13.5711 17.9296C15.1577 17.1742 16.4406 15.8787 17.1873 14.2939C17.9842 12.614 18.2683 10.9269 18.1351 9.3506C18.1119 9.07544 17.87 8.87121 17.5948 8.89445C17.3197 8.91769 17.1155 9.15959 17.1387 9.43475C17.2564 10.8291 17.0075 12.3399 16.2836 13.8658L16.283 13.8671C15.634 15.2448 14.5179 16.3712 13.1412 17.0267L13.141 17.0268C6.24598 20.3144 -0.462222 13.9958 2.03404 7.15009C2.81112 5.02457 4.5121 3.40902 6.66839 2.6952C10.2128 1.5272 13.5719 2.80568 15.4969 5.25468L11.3351 5.23992C11.0589 5.23895 10.8343 5.46201 10.8333 5.73815C10.8323 6.01429 11.0554 6.23894 11.3315 6.23992L16.8075 6.25934L16.8333 0.75991ZM17.1873 14.2939L17.1876 14.2932L16.7353 14.0801L17.187 14.2944L17.1873 14.2939ZM13.5711 17.9296L13.3563 17.4785L13.5713 17.9295L13.5711 17.9296Z" fill="#333333"/>
</svg>
