<?xml version="1.0" encoding="UTF-8"?>
<svg width="36px" height="36px" viewBox="0 0 36 36" version="1.1" xmlns="http://www.w3.org/2000/svg" xmlns:xlink="http://www.w3.org/1999/xlink">
    <title>Group 2 Copy</title>
    <g id="pub" stroke="none" stroke-width="1" fill="none" fill-rule="evenodd">
        <g id="Artboard" transform="translate(-409.000000, -82.000000)">
            <g id="Group-2-Copy" transform="translate(409.000000, 82.000000)">
                <rect id="Rectangle" fill-opacity="0" fill="#DCDCDC" x="0" y="0" width="36" height="36"></rect>
                <g id="Group" transform="translate(19.977266, 11.124695)" stroke="#5E6755" stroke-linejoin="round" stroke-width="1.5">
                    <path d="M10.240948,5.15496826 C10.240948,3.91212972 10.240948,2.69154867 10.240948,1.4932251 C10.240948,-0.497741699 13.0151179,-0.497741699 13.0151179,1.4932251 C13.0151179,2.8205363 13.0151179,6.2604777 13.0151179,11.8130493 C10.0073054,14.7024536 8.50339917,16.4962362 8.50339917,17.194397 C8.50339917,17.8925578 8.50339917,18.6380717 8.50339917,19.4309387" id="Path-2" stroke-linecap="round"></path>
                    <path d="M0.000347415913,23.7296753 L0.000347415913,20.769043 C-0.00528816351,20.4504801 0.0576390826,20.2133789 0.189129154,20.0577393 C0.320619226,19.9020996 0.543224613,19.8242798 0.856945316,19.8242798 L9.08787183,19.8242798 C9.61621249,19.8117065 9.9682531,19.9269714 10.1439937,20.1700745 C10.3197342,20.4131775 10.3850927,20.7308655 10.3400691,21.1231384 L10.3400691,23.7296753" id="Path-3"></path>
                    <path d="M6.44926099,14.1842651 C6.44926099,13.8324992 6.44926099,13.5238241 6.44926099,13.2582397 C6.44926099,12.8598633 7.00504712,12.269043 7.21378736,12.0717163 C7.42252759,11.8743896 9.12467603,10.0846558 10.2447932,8.95184326 C11.3649104,7.81903076 9.48026685,6.09899902 8.3470271,7.22644043 C7.21378736,8.35388184 3.44138745,11.9358521 3.0020564,12.3753052 C2.56272535,12.8147583 2.0055354,13.7243042 2.0055354,14.3944702 C2.0055354,14.8412476 2.0055354,15.8542074 2.0055354,17.4333496" id="Path-4" stroke-linecap="round"></path>
                </g>
                <g id="Group-Copy" transform="translate(10.484825, 22.989532) scale(-1, 1) translate(-10.484825, -22.989532) translate(3.977266, 11.124695)" stroke="#5E6755" stroke-linejoin="round" stroke-width="1.5">
                    <path d="M10.240948,5.15496826 C10.240948,3.91212972 10.240948,2.69154867 10.240948,1.4932251 C10.240948,-0.497741699 13.0151179,-0.497741699 13.0151179,1.4932251 C13.0151179,2.8205363 13.0151179,6.2604777 13.0151179,11.8130493 C10.0073054,14.7024536 8.50339917,16.4962362 8.50339917,17.194397 C8.50339917,17.8925578 8.50339917,18.6380717 8.50339917,19.4309387" id="Path-2" stroke-linecap="round"></path>
                    <path d="M0.000347415913,23.7296753 L0.000347415913,20.769043 C-0.00528816351,20.4504801 0.0576390826,20.2133789 0.189129154,20.0577393 C0.320619226,19.9020996 0.543224613,19.8242798 0.856945316,19.8242798 L9.08787183,19.8242798 C9.61621249,19.8117065 9.9682531,19.9269714 10.1439937,20.1700745 C10.3197342,20.4131775 10.3850927,20.7308655 10.3400691,21.1231384 L10.3400691,23.7296753" id="Path-3"></path>
                    <path d="M6.44926099,14.1842651 C6.44926099,13.8324992 6.44926099,13.5238241 6.44926099,13.2582397 C6.44926099,12.8598633 7.00504712,12.269043 7.21378736,12.0717163 C7.42252759,11.8743896 9.12467603,10.0846558 10.2447932,8.95184326 C11.3649104,7.81903076 9.48026685,6.09899902 8.3470271,7.22644043 C7.21378736,8.35388184 3.44138745,11.9358521 3.0020564,12.3753052 C2.56272535,12.8147583 2.0055354,13.7243042 2.0055354,14.3944702 C2.0055354,14.8412476 2.0055354,15.8542074 2.0055354,17.4333496" id="Path-4" stroke-linecap="round"></path>
                </g>
                <path d="M24.000563,6.92919922 C22.3364394,6.92919922 19.7343886,6.2333374 18.6907485,5 C17.729811,6.18640137 15.1445449,6.92919922 13.5487197,6.92919922 C13.1121556,11.9493815 14.7557713,15.5137533 18.4795669,17.6223145 C23.8625108,15.6340332 24.0370009,9.16217041 24.000563,6.92919922 Z" id="Path-7" stroke="#5E6755" stroke-width="1.5" stroke-linecap="round"></path>
                <polyline id="Path-8" stroke="#5E6755" stroke-width="1.5" stroke-linecap="round" stroke-linejoin="round" points="16.1559629 11.1421509 18.4848253 12.7138062 21.3087295 9.48059082"></polyline>
            </g>
        </g>
    </g>
</svg>