<?xml version="1.0" encoding="UTF-8"?>
<svg width="36px" height="36px" viewBox="0 0 36 36" version="1.1" xmlns="http://www.w3.org/2000/svg" xmlns:xlink="http://www.w3.org/1999/xlink">
    <title>Group 2 Copy 3</title>
    <g id="pub" stroke="none" stroke-width="1" fill="none" fill-rule="evenodd">
        <g id="Artboard" transform="translate(-352.000000, -27.000000)">
            <g id="Group-2-Copy-3" transform="translate(352.000000, 27.000000)">
                <rect id="Rectangle" fill-opacity="0" fill="#DCDCDC" x="0" y="0" width="36" height="36"></rect>
                <g id="Group" transform="translate(19.962148, 10.206722)" stroke="#333333" stroke-linejoin="round" stroke-width="1.5">
                    <path d="M10.240948,5.15496826 C10.240948,3.91212972 10.240948,2.69154867 10.240948,1.4932251 C10.240948,-0.497741699 13.0151179,-0.497741699 13.0151179,1.4932251 C13.0151179,2.8205363 13.0151179,6.2604777 13.0151179,11.8130493 C10.0073054,14.7024536 8.50339917,16.4962362 8.50339917,17.194397 C8.50339917,17.8925578 8.50339917,18.6380717 8.50339917,19.4309387" id="Path-2" stroke-linecap="round"></path>
                    <path d="M0.000347415913,23.7296753 L0.000347415913,20.769043 C-0.00528816351,20.4504801 0.0576390826,20.2133789 0.189129154,20.0577393 C0.320619226,19.9020996 0.543224613,19.8242798 0.856945316,19.8242798 L9.08787183,19.8242798 C9.61621249,19.8117065 9.9682531,19.9269714 10.1439937,20.1700745 C10.3197342,20.4131775 10.3850927,20.7308655 10.3400691,21.1231384 L10.3400691,23.7296753" id="Path-3"></path>
                    <path d="M6.44926099,14.1842651 C6.44926099,13.8324992 6.44926099,13.5238241 6.44926099,13.2582397 C6.44926099,12.8598633 7.00504712,12.269043 7.21378736,12.0717163 C7.42252759,11.8743896 9.12467603,10.0846558 10.2447932,8.95184326 C11.3649104,7.81903076 9.48026685,6.09899902 8.3470271,7.22644043 C7.21378736,8.35388184 3.44138745,11.9358521 3.0020564,12.3753052 C2.56272535,12.8147583 2.0055354,13.7243042 2.0055354,14.3944702 C2.0055354,14.8412476 2.0055354,15.8542074 2.0055354,17.4333496" id="Path-4" stroke-linecap="round"></path>
                </g>
                <g id="Group-Copy" transform="translate(10.469707, 22.071559) scale(-1, 1) translate(-10.469707, -22.071559) translate(3.962148, 10.206722)" stroke="#333333" stroke-linejoin="round" stroke-width="1.5">
                    <path d="M10.240948,5.15496826 C10.240948,3.91212972 10.240948,2.69154867 10.240948,1.4932251 C10.240948,-0.497741699 13.0151179,-0.497741699 13.0151179,1.4932251 C13.0151179,2.8205363 13.0151179,6.2604777 13.0151179,11.8130493 C10.0073054,14.7024536 8.50339917,16.4962362 8.50339917,17.194397 C8.50339917,17.8925578 8.50339917,18.6380717 8.50339917,19.4309387" id="Path-2" stroke-linecap="round"></path>
                    <path d="M0.000347415913,23.7296753 L0.000347415913,20.769043 C-0.00528816351,20.4504801 0.0576390826,20.2133789 0.189129154,20.0577393 C0.320619226,19.9020996 0.543224613,19.8242798 0.856945316,19.8242798 L9.08787183,19.8242798 C9.61621249,19.8117065 9.9682531,19.9269714 10.1439937,20.1700745 C10.3197342,20.4131775 10.3850927,20.7308655 10.3400691,21.1231384 L10.3400691,23.7296753" id="Path-3"></path>
                    <path d="M6.44926099,14.1842651 C6.44926099,13.8324992 6.44926099,13.5238241 6.44926099,13.2582397 C6.44926099,12.8598633 7.00504712,12.269043 7.21378736,12.0717163 C7.42252759,11.8743896 9.12467603,10.0846558 10.2447932,8.95184326 C11.3649104,7.81903076 9.48026685,6.09899902 8.3470271,7.22644043 C7.21378736,8.35388184 3.44138745,11.9358521 3.0020564,12.3753052 C2.56272535,12.8147583 2.0055354,13.7243042 2.0055354,14.3944702 C2.0055354,14.8412476 2.0055354,15.8542074 2.0055354,17.4333496" id="Path-4" stroke-linecap="round"></path>
                </g>
                <g id="favor-copy" transform="translate(12.312015, 5.000000)" fill-rule="nonzero" stroke="#333333" stroke-linejoin="round" stroke-width="1.5">
                    <path d="M10.6284454,4.25382689 C10.9958702,4.22878116 11.401658,4.3318328 11.7438019,4.54470496 C11.7889171,4.55919896 11.7999928,4.55214471 11.8111434,4.54520132 C12.1528518,4.33242236 12.5581395,4.22978188 12.9255972,4.25482984 C13.328138,4.28226926 13.6873908,4.45275846 13.9414367,4.76174867 C14.137189,4.99983782 14.2842753,5.33461558 14.2842753,5.80545197 C14.2842753,6.54428742 13.860812,7.59634786 12.1721073,8.63828244 C12.0371882,8.72152782 11.905834,8.79752595 11.7782789,8.86657585 C11.6505366,8.79740983 11.51928,8.72146423 11.3844639,8.63828244 C9.69575923,7.59634786 9.272296,6.54428742 9.272296,5.80545197 C9.272296,5.33433921 9.41869622,4.99987521 9.61314964,4.76215907 C9.86691676,4.4519329 10.2258883,4.28126741 10.6284454,4.25382689 Z" id="favor-copy-3"></path>
                    <path d="M1.58201778,4.52944721 C2.27764865,4.48202914 3.04322375,4.68462826 3.68956638,5.08676421 C3.93512375,5.239543 4.16238747,5.4202662 4.36288322,5.62436662 C4.56279796,5.42044272 4.78931354,5.24012791 5.03397864,5.08777698 C5.67923109,4.68598365 6.44357941,4.48454061 7.13892955,4.53193955 C7.82464742,4.5786819 8.44383046,4.8588368 8.87872262,5.3877863 C9.23250287,5.81808123 9.47723101,6.42928153 9.47723101,7.27405554 C9.47723101,8.89687616 8.38882318,11.1251932 4.7574372,13.3657665 C0.338407827,11.1251932 -0.75,8.89687616 -0.75,7.27405554 C-0.75,6.42798209 -0.506443134,5.81670408 -0.154661663,5.38665697 C0.279208369,4.85625792 0.897136055,4.57613257 1.58201778,4.52944721 Z" id="favor"></path>
                    <path d="M6.84749709,-0.745476288 C7.2885938,-0.775543898 7.77514256,-0.650146986 8.18556948,-0.394791065 C8.94941761,-0.649385521 9.43530315,-0.774204068 9.87636239,-0.744139013 C10.3424675,-0.712366691 10.7600665,-0.517260999 11.0547066,-0.158896854 C11.2859312,0.122336436 11.454935,0.519162353 11.454935,1.07393595 C11.454935,2.01119824 10.8822127,3.32729123 8.7574372,4.63828244 C5.84501835,3.32729123 5.272296,2.01119824 5.272296,1.07393595 C5.272296,0.518656337 5.44050483,0.122056306 5.67027344,-0.158832078 C5.96446799,-0.518480121 6.38156706,-0.713715902 6.84749709,-0.745476288 Z" id="favor-copy-2"></path>
                </g>
            </g>
        </g>
    </g>
</svg>