<svg width="35" height="40" viewBox="0 0 35 40" fill="none" xmlns="http://www.w3.org/2000/svg">
<path fill-rule="evenodd" clip-rule="evenodd" d="M28.427 11.3755V0.568359H2.53143C1.44749 0.568359 0.568604 1.4477 0.568604 2.53119V37.4693C0.568604 38.5528 1.44749 39.4312 2.53098 39.4312L31.5806 39.4317C32.6641 39.4317 33.5434 38.5532 33.5434 37.4693V13.337H30.3893C29.3063 13.337 28.427 12.459 28.427 11.3755Z" fill="white"/>
<mask id="mask0_209_260" style="mask-type:luminance" maskUnits="userSpaceOnUse" x="0" y="0" width="35" height="40">
<path fill-rule="evenodd" clip-rule="evenodd" d="M0.000244141 0H34.1116V39.9998H0.000244141V0Z" fill="white"/>
</mask>
<g mask="url(#mask0_209_260)">
<path fill-rule="evenodd" clip-rule="evenodd" d="M2.53142 1.13669C1.76256 1.13669 1.13693 1.76232 1.13693 2.53072V37.4688C1.13693 38.2377 1.76211 38.8629 2.53096 38.8629L31.5806 38.8633C32.3494 38.8633 32.9751 38.2377 32.9751 37.4688V13.9053H30.3893C28.9939 13.9053 27.8586 12.7704 27.8586 11.3755V1.13669H2.53142ZM31.5806 40L2.53096 39.9995C1.13557 39.9995 0.000244141 38.8642 0.000244141 37.4688V2.53072C0.000244141 1.13532 1.13557 0 2.53142 0H28.9953V11.3755C28.9953 12.1434 29.6209 12.7686 30.3893 12.7686H34.1118V37.4688C34.1118 38.8647 32.9764 40 31.5806 40Z" fill="#333333"/>
</g>
<path fill-rule="evenodd" clip-rule="evenodd" d="M31.5804 0.568359H28.4268V11.3755C28.4268 12.4586 29.3061 13.337 30.3896 13.337H33.5432V2.53119C33.5432 1.44815 32.6643 0.568359 31.5804 0.568359Z" fill="white"/>
<mask id="mask1_209_260" style="mask-type:luminance" maskUnits="userSpaceOnUse" x="27" y="0" width="8" height="14">
<path fill-rule="evenodd" clip-rule="evenodd" d="M27.8586 0H34.1116V13.9053H27.8586V0Z" fill="white"/>
</mask>
<g mask="url(#mask1_209_260)">
<path fill-rule="evenodd" clip-rule="evenodd" d="M28.9953 1.13669V11.3755C28.9953 12.1434 29.621 12.7686 30.3894 12.7686H32.9751V2.53117C32.9751 1.76232 32.3495 1.13669 31.5806 1.13669H28.9953ZM34.1118 13.9053H30.3894C28.994 13.9053 27.8586 12.7704 27.8586 11.3755V0H31.5806C32.976 0 34.1118 1.13532 34.1118 2.53117V13.9053Z" fill="#333333"/>
</g>
<path fill-rule="evenodd" clip-rule="evenodd" d="M31.5804 6.23486H28.4268V17.0416C28.4268 18.1251 29.3061 19.0035 30.3896 19.0035H33.5432V8.19724C33.5432 7.1142 32.6643 6.23486 31.5804 6.23486Z" fill="#F79759"/>
<mask id="mask2_209_260" style="mask-type:luminance" maskUnits="userSpaceOnUse" x="27" y="5" width="8" height="15">
<path fill-rule="evenodd" clip-rule="evenodd" d="M27.8586 5.6665H34.1116V19.5718H27.8586V5.6665Z" fill="white"/>
</mask>
<g mask="url(#mask2_209_260)">
<path fill-rule="evenodd" clip-rule="evenodd" d="M28.9953 6.80319V17.0416C28.9953 17.81 29.621 18.4351 30.3894 18.4351H32.9751V8.19722C32.9751 7.42882 32.3495 6.80319 31.5806 6.80319H28.9953ZM34.1118 19.5718H30.3894C28.994 19.5718 27.8586 18.4365 27.8586 17.0416V5.6665H31.5806C32.976 5.6665 34.1118 6.80183 34.1118 8.19722V19.5718Z" fill="#333333"/>
</g>
<path fill-rule="evenodd" clip-rule="evenodd" d="M31.5804 11.9004H28.4268V22.7071C28.4268 23.791 29.3061 24.6695 30.3896 24.6695H33.5432V13.8632C33.5432 12.7797 32.6643 11.9004 31.5804 11.9004Z" fill="#588EFA"/>
<mask id="mask3_209_260" style="mask-type:luminance" maskUnits="userSpaceOnUse" x="27" y="11" width="8" height="15">
<path fill-rule="evenodd" clip-rule="evenodd" d="M27.8586 11.332H34.1116V25.2378H27.8586V11.332Z" fill="white"/>
</mask>
<g mask="url(#mask3_209_260)">
<path fill-rule="evenodd" clip-rule="evenodd" d="M28.9953 12.4687V22.7071C28.9953 23.4755 29.621 24.1011 30.3894 24.1011H32.9751V13.8632C32.9751 13.0944 32.3495 12.4687 31.5806 12.4687H28.9953ZM34.1118 25.2378H30.3894C28.994 25.2378 27.8586 24.1025 27.8586 22.7071V11.332H31.5806C32.976 11.332 34.1118 12.4674 34.1118 13.8632V25.2378Z" fill="#333333"/>
</g>
<mask id="mask4_209_260" style="mask-type:luminance" maskUnits="userSpaceOnUse" x="0" y="0" width="35" height="40">
<path fill-rule="evenodd" clip-rule="evenodd" d="M0 40H34.1115V0H0V40Z" fill="white"/>
</mask>
<g mask="url(#mask4_209_260)">
<path fill-rule="evenodd" clip-rule="evenodd" d="M5.75928 7.90872H23.5389V5.45166H5.75928V7.90872Z" fill="#CFCFCF"/>
<path fill-rule="evenodd" clip-rule="evenodd" d="M23.5391 10.1307C23.5391 10.595 23.1631 10.9714 22.6989 10.9714C22.2347 10.9714 21.8586 10.595 21.8586 10.1307C21.8586 9.66696 22.2347 9.29004 22.6989 9.29004C23.1631 9.29004 23.5391 9.66696 23.5391 10.1307Z" fill="#CCCCCC"/>
<path fill-rule="evenodd" clip-rule="evenodd" d="M21.098 10.1307C21.098 10.595 20.7219 10.9714 20.2577 10.9714C19.7935 10.9714 19.4175 10.595 19.4175 10.1307C19.4175 9.66696 19.7935 9.29004 20.2577 9.29004C20.7219 9.29004 21.098 9.66696 21.098 10.1307Z" fill="#CCCCCC"/>
<path fill-rule="evenodd" clip-rule="evenodd" d="M18.6568 10.1307C18.6568 10.595 18.2808 10.9714 17.8166 10.9714C17.3523 10.9714 16.9763 10.595 16.9763 10.1307C16.9763 9.66696 17.3523 9.29004 17.8166 9.29004C18.2808 9.29004 18.6568 9.66696 18.6568 10.1307Z" fill="#CCCCCC"/>
<ellipse cx="12.3057" cy="24.9271" rx="5.30574" ry="5.30701" fill="#AED8FE"/>
<ellipse opacity="0.4" cx="19.7796" cy="26.6235" rx="3.37798" ry="3" fill="#FFB29A"/>
</g>
</svg>
