<?xml version="1.0" encoding="UTF-8"?>
<svg width="36px" height="36px" viewBox="0 0 36 36" version="1.1" xmlns="http://www.w3.org/2000/svg" xmlns:xlink="http://www.w3.org/1999/xlink">
    <title>Group 26 Copy 2</title>
    <g id="pub" stroke="none" stroke-width="1" fill="none" fill-rule="evenodd">
        <g id="Artboard" transform="translate(-298.000000, -27.000000)">
            <g id="Group-26-Copy-2" transform="translate(298.000000, 27.000000)">
                <rect id="Rectangle" fill-opacity="0" fill="#DCDCDC" x="0" y="0" width="36" height="36"></rect>
                <circle id="Oval" stroke="#333333" stroke-width="1.5" cx="9.79216166" cy="20" r="3.25"></circle>
                <circle id="Oval-Copy-20" stroke="#333333" stroke-width="1.5" cx="24.7921617" cy="20" r="3.25"></circle>
                <path d="M22.5739136,4.75 C23.7475187,4.75 24.8100187,5.22569745 25.5791174,5.99479618 C26.3482161,6.76389491 26.8239136,7.82639491 26.8239136,9 L26.8239136,10.1206055 C26.8239136,11.2942106 26.3482161,12.3567106 25.5791174,13.1258093 C24.8100187,13.894908 23.7475187,14.3706055 22.5739136,14.3706055 L18.2861137,14.3706055 L14.5421617,18.1702615 L14.5421617,9 C14.5421617,7.82639491 15.0178591,6.76389491 15.7869578,5.99479618 C16.5560566,5.22569745 17.6185566,4.75 18.7921617,4.75 Z" id="Rectangle" stroke="#333333" stroke-width="1.5"></path>
                <line x1="18.2921617" y1="8.5" x2="22.2921617" y2="8.5" id="Line" stroke="#333333" stroke-width="1.5" stroke-linecap="round"></line>
                <line x1="18.2921617" y1="11" x2="20.2921617" y2="11" id="Line-Copy" stroke="#333333" stroke-width="1.5" stroke-linecap="round"></line>
                <path d="M9.79216166,23.75 C10.6035867,23.75 11.2038402,23.9651392 11.6734356,24.4347346 C12.273376,25.034675 12.6741965,25.978304 13.0785821,27.230877 C13.2277571,27.6919374 13.2972072,27.9064764 13.3662286,28.1231796 C13.8647768,29.8112092 14.2094533,31.1781763 14.1618633,32.0801073 C14.150941,32.2871098 14.1375743,32.4682207 14.0385028,32.580719 L5.79216166,32.6398926 C5.33839325,32.3722104 5.32391357,32.1157227 5.32391357,31.831507 C5.32391357,30.5535816 5.98429891,28.694642 6.49861843,27.251831 C6.94184158,26.0084653 7.35411271,25.0432028 7.96962597,24.4276895 C8.42533545,23.9719801 9.00280762,23.75 9.79216166,23.75 Z" id="Oval-Copy-19" stroke="#333333" stroke-width="1.5"></path>
                <path d="M24.7921617,23.75 C25.6035867,23.75 26.2038402,23.9651392 26.6734356,24.4347346 C27.273376,25.034675 27.6741965,25.978304 28.0785821,27.230877 C28.2277571,27.6919374 28.2972072,27.9064764 28.3662286,28.1231796 C28.8647768,29.8112092 29.2094533,31.1781763 29.1618633,32.0801073 C29.150941,32.2871098 29.1375743,32.4682207 29.0385028,32.580719 L20.7921617,32.6398926 C20.3383932,32.3722104 20.3239136,32.1157227 20.3239136,31.831507 C20.3239136,30.5535816 20.9842989,28.694642 21.4986184,27.251831 C21.9418416,26.0084653 22.3541127,25.0432028 22.969626,24.4276895 C23.4253355,23.9719801 24.0028076,23.75 24.7921617,23.75 Z" id="Oval-Copy-21" stroke="#333333" stroke-width="1.5"></path>
            </g>
        </g>
    </g>
</svg>