<svg id="Group_33_Copy_11" data-name="Group 33 Copy 11" xmlns="http://www.w3.org/2000/svg" width="30.393" height="46" viewBox="0 0 30.393 46">
  <ellipse id="Oval" cx="7.393" cy="2.875" rx="7.393" ry="2.875" transform="translate(8.214 36.964)" fill="#fff" opacity="0.2"/>
  <ellipse id="Oval-2" data-name="Oval" cx="15.196" cy="5.75" rx="15.196" ry="5.75" transform="translate(0 34.5)" fill="#fff" opacity="0.1"/>
  <path id="Oval_2" data-name="Oval 2" d="M15.2,40.25h0c-.038-.042-3.866-4.237-7.6-9.343a65.673,65.673,0,0,1-5.224-8.2C.8,19.676,0,17.167,0,15.246a15.2,15.2,0,1,1,30.393,0c0,1.921-.8,4.43-2.374,7.459a65.673,65.673,0,0,1-5.224,8.2c-3.732,5.106-7.559,9.3-7.6,9.343ZM7.928,13.67v8.894H21.857v-1.25a2.716,2.716,0,0,1-.318.029l-.109,0a3.555,3.555,0,0,1-2.235-.862l-.146-.113-.042-.032a2.344,2.344,0,0,0-1.309-.65,1.028,1.028,0,0,0-.375.073A3.041,3.041,0,0,1,18.8,18.337l.025-.012a3.144,3.144,0,0,1,1.21-.236,1.853,1.853,0,0,1,1.5.527.268.268,0,0,1-.012.266.367.367,0,0,1-.319.185.437.437,0,0,1-.14-.024.921.921,0,0,0-.29-.056.539.539,0,0,0-.4.182.567.567,0,0,0-.136.484.725.725,0,0,0,.5.5,1.744,1.744,0,0,0,.675.127,2.075,2.075,0,0,0,.452-.05v-.3a1.743,1.743,0,0,1-.451.059,1.47,1.47,0,0,1-.563-.106c-.132-.055-.3-.149-.323-.288a.276.276,0,0,1,.059-.22.241.241,0,0,1,.192-.095.629.629,0,0,1,.194.04.717.717,0,0,0,.237.04.644.644,0,0,0,.509-.245.575.575,0,0,0,.069-.651,2,2,0,0,0-1.721-.661,3.657,3.657,0,0,0-1.252.213c.032-1.344.773-2.771,2.079-2.771l.1,0a1.757,1.757,0,0,1,.873.261V13.67Zm10.2-6.352,1.828,3.114v.7A1.3,1.3,0,0,0,21.225,12.4a1.264,1.264,0,0,0,1.266-1.228v-.7L19.406,7.318Zm-1.933,0,.595,3.114v.7A1.3,1.3,0,0,0,18.059,12.4a1.239,1.239,0,0,0,1.265-1.207v-.7l-1.9-3.178Zm-1.908,0-.663,3.114v.7a1.267,1.267,0,1,0,2.533,0v-.7L15.5,7.318Zm-1.932,0-1.9,3.158v.7a1.267,1.267,0,0,0,2.533,0v-.7l.594-3.158Zm-1.976,0h0L7.295,10.476v.7a1.267,1.267,0,0,0,2.533,0v-.7l1.828-3.158Zm4.871,13.658a.446.446,0,0,1-.346-.15.651.651,0,0,1-.135-.45V16.768L13.934,20.1c-.054.213-.1.374-.134.477a.653.653,0,0,1-.191.277.552.552,0,0,1-.384.125.585.585,0,0,1-.313-.08.577.577,0,0,1-.2-.206,1.083,1.083,0,0,1-.112-.276c-.028-.1-.056-.207-.084-.317l-.837-3.337v3.616a.661.661,0,0,1-.134.45.488.488,0,0,1-.7,0,.653.653,0,0,1-.136-.452V16.231a.525.525,0,0,1,.178-.463.858.858,0,0,1,.481-.12h.328a1.262,1.262,0,0,1,.429.054.37.37,0,0,1,.2.193,3.121,3.121,0,0,1,.146.454l.759,2.87.759-2.87a3.031,3.031,0,0,1,.146-.454.37.37,0,0,1,.2-.193,1.255,1.255,0,0,1,.429-.054h.328a.863.863,0,0,1,.481.12.527.527,0,0,1,.178.463v4.145a.665.665,0,0,1-.133.45A.458.458,0,0,1,15.251,20.976Z" fill="#fff"/>
</svg>
