<svg width="34" height="30" viewBox="0 0 34 30" fill="none" xmlns="http://www.w3.org/2000/svg">
<g id="&#237;&#151;&#164;&#235;&#147;&#156;&#236;&#133;&#139;" clip-path="url(#clip0_2125_5250)">
<path id="Vector" d="M23.002 27.9358L23.8623 27.1429L27.8206 23.5179C27.3751 23.2851 27.0166 22.876 26.7708 22.3726L22.9918 25.8339L22.2646 26.5009C22.6538 26.8408 22.915 27.3505 23.002 27.9358Z" fill="white"/>
<path id="Vector_2" d="M18.4398 30H21.1844C21.379 30 21.5736 29.9496 21.7528 29.8426C21.8962 29.7608 22.0242 29.6475 22.1318 29.5154C22.3878 29.2007 22.5312 28.7854 22.5312 28.3448C22.5312 28.2882 22.5312 28.2253 22.5209 28.1686C22.48 27.6777 22.2598 27.2309 21.9116 26.9603C21.6965 26.7841 21.4405 26.6897 21.1793 26.6897H18.4346C18.0762 26.6897 17.7382 26.8596 17.4873 27.1743C17.2313 27.4889 17.0879 27.9043 17.0879 28.3448C17.0879 29.2574 17.6921 30 18.4346 30H18.4398Z" fill="white"/>
<path id="Vector_3" d="M5.6479 12.0642C5.87321 11.2587 6.13948 10.4846 6.45184 9.75456C8.50012 4.94021 12.3662 1.69289 16.7854 1.69289C21.2045 1.69289 25.0758 4.94021 27.124 9.75456C27.4825 10.5853 27.7795 11.4663 28.0202 12.3851C28.2301 12.3033 28.4554 12.2467 28.6858 12.2467C28.9624 12.2467 29.2235 12.3159 29.4642 12.4292C29.2491 11.5041 28.9777 10.6104 28.6551 9.75456C26.4788 3.97105 21.9726 0 16.7854 0C11.5981 0 7.10217 3.97105 4.92076 9.74827C4.64424 10.4783 4.40869 11.2461 4.20898 12.0327C4.42405 11.9446 4.64936 11.888 4.88491 11.888C5.15119 11.888 5.40722 11.9572 5.64278 12.0642H5.6479Z" fill="white"/>
<path id="Vector_4" d="M1.41867 21.5859C1.86929 22.0075 2.38648 22.2278 2.90879 22.2278C2.95999 22.2278 3.0112 22.2215 3.06753 22.2152C2.81149 21.7684 2.65787 21.2271 2.65787 20.6419V14.6318C2.65787 14.0906 2.79101 13.5871 3.0112 13.1655C2.97535 13.1655 2.94463 13.1592 2.90879 13.1592C2.38648 13.1592 1.86929 13.3794 1.41355 13.8011C0.527668 14.6318 -0.00488281 16.0918 -0.00488281 17.6966C-0.00488281 19.3014 0.527668 20.7614 1.41355 21.5922L1.41867 21.5859Z" fill="white"/>
<path id="Vector_5" d="M4.88559 22.7501C5.83291 22.7501 6.60102 21.8061 6.60102 20.6356V14.6255C6.60102 13.4613 5.83291 12.511 4.88559 12.511C3.93826 12.511 3.16504 13.455 3.16504 14.6255V20.6356C3.16504 21.7998 3.93314 22.7501 4.88559 22.7501Z" fill="white"/>
<path id="Vector_6" d="M32.1576 14.1473C31.707 13.7256 31.1898 13.5054 30.6624 13.5054C30.6317 13.5054 30.5958 13.5054 30.5651 13.5117C30.7853 13.9396 30.9184 14.4431 30.9184 14.9843V20.9944C30.9184 21.5796 30.7648 22.1209 30.5088 22.5677C31.0669 22.6117 31.6661 22.3978 32.1576 21.9321C33.0333 21.1139 33.5761 19.6224 33.5761 18.0428C33.5761 16.4632 33.0333 14.9654 32.1576 14.1473Z" fill="white"/>
<path id="Vector_7" d="M26.9707 14.978V20.9881C26.9707 22.1523 27.7388 23.1026 28.6913 23.1026C29.6437 23.1026 30.4067 22.1586 30.4067 20.9881V14.978C30.4067 13.8137 29.6386 12.8698 28.6913 12.8698C27.7439 12.8698 26.9707 13.8137 26.9707 14.978Z" fill="white"/>
</g>
<defs>
<clipPath id="clip0_2125_5250">
<rect width="33.5763" height="30" fill="white"/>
</clipPath>
</defs>
</svg>
