<svg width="19" height="19" viewBox="0 0 19 19" fill="none" xmlns="http://www.w3.org/2000/svg">
<path fill-rule="evenodd" clip-rule="evenodd" d="M16.8332 0.759971C16.8345 0.483832 16.6117 0.258928 16.3356 0.257635C16.0595 0.256342 15.8346 0.479148 15.8333 0.755288L15.8176 4.09158C13.5939 1.69078 10.0495 0.52797 6.35509 1.74554L6.35448 1.74574C3.91656 2.55266 1.97981 4.386 1.0948 6.80672L1.09467 6.80709C-1.70866 14.4939 5.86772 21.6023 13.571 17.9296C15.1577 17.1742 16.4406 15.8787 17.1873 14.2939C17.9841 12.614 18.2682 10.9269 18.1351 9.3506C18.1119 9.07544 17.87 8.87121 17.5948 8.89445C17.3197 8.91769 17.1154 9.15959 17.1387 9.43475C17.2564 10.8291 17.0074 12.3399 16.2835 13.8658L16.2829 13.8671C15.634 15.2448 14.5179 16.3712 13.1412 17.0267L13.1409 17.0268C6.24595 20.3144 -0.462253 13.9958 2.03401 7.15009C2.81109 5.02457 4.51207 3.40902 6.66836 2.6952C10.2128 1.52719 13.572 2.80571 15.4969 5.25474L11.335 5.23999C11.0589 5.23901 10.8342 5.46207 10.8333 5.73821C10.8323 6.01435 11.0553 6.239 11.3315 6.23998L16.8075 6.2594L16.8332 0.759971ZM17.1873 14.2939L17.1876 14.2932L16.7353 14.0801L17.187 14.2944L17.1873 14.2939ZM13.571 17.9296L13.3563 17.4785L13.5713 17.9295L13.571 17.9296Z" fill="white"/>
</svg>
