<?xml version="1.0" encoding="UTF-8"?>
<svg width="23.3981934px" height="28px" viewBox="0 0 23.3981934 28" version="1.1" xmlns="http://www.w3.org/2000/svg" xmlns:xlink="http://www.w3.org/1999/xlink">
    <title>quick-link-icon-2</title>
    <defs>
        <polygon id="path-1" points="0 0.363116 5.00849656 0.363116 5.00849656 4.64538056 0 4.64538056"></polygon>
        <polygon id="path-3" points="1.11210964e-15 0.61779805 5.00849656 0.61779805 5.00849656 4.39069851 1.11210964e-15 4.39069851"></polygon>
        <polygon id="path-5" points="0 1.03175029 23.3981934 1.03175029 23.3981934 3.97674627 0 3.97674627"></polygon>
    </defs>
    <g id="Page-1" stroke="none" stroke-width="1" fill="none" fill-rule="evenodd">
        <g id="assets" transform="translate(-493.2375, -914)">
            <g id="quick-link-icon-2" transform="translate(493.2375, 914)">
                <path d="M14.8066184,26.9682497 L2.89140506,26.9682497 C1.66432341,26.9682497 0.662624094,25.9665504 0.662624094,24.7394687 L0.662624094,2.59189697 C0.662624094,1.35980682 1.66432341,0.363116 2.89140506,0.363116 L14.8066184,0.363116 C16.0337,0.363116 17.0353993,1.35980682 17.0353993,2.59189697 L17.0353993,6.22806547 C17.0353993,6.4734818 16.840068,6.66881317 16.5946516,6.66881317 C16.3492353,6.66881317 16.1539039,6.4734818 16.1539039,6.22806547 L16.1539039,2.59189697 C16.1539039,1.84563098 15.5478759,1.24461139 14.8066184,1.24461139 L2.89140506,1.24461139 C2.15014757,1.24461139 1.54411949,1.84563098 1.54411949,2.59189697 L1.54411949,24.7394687 C1.54411949,25.4807262 2.15014757,26.0867543 2.89140506,26.0867543 L14.8066184,26.0867543 C15.5478759,26.0867543 16.1539039,25.4807262 16.1539039,24.7394687 L16.1539039,20.3770682 C16.1539039,20.1316519 16.3492353,19.9363205 16.5946516,19.9363205 C16.840068,19.9363205 17.0353993,20.1316519 17.0353993,20.3770682 L17.0353993,24.7394687 C17.0353993,25.9665504 16.0337,26.9682497 14.8066184,26.9682497" id="Fill-1" fill="#000000"></path>
                <path d="M16.5946516,22.5212056 L1.10337179,22.5212056 C0.862963957,22.5212056 0.667632591,22.3258743 0.667632591,22.0804579 L0.667632591,3.47890171 C0.667632591,3.23849387 0.862963957,3.03815401 1.10337179,3.03815401 L16.5946516,3.03815401 C16.840068,3.03815401 17.0353993,3.23849387 17.0353993,3.47890171 C17.0353993,3.72431804 16.840068,3.91964941 16.5946516,3.91964941 L1.54411949,3.91964941 L1.54411949,21.6397102 L16.5946516,21.6397102 C16.840068,21.6397102 17.0353993,21.8350416 17.0353993,22.0804579 C17.0353993,22.3258743 16.840068,22.5212056 16.5946516,22.5212056" id="Fill-3" fill="#000000"></path>
                <g id="Group-7" transform="translate(6.3458, 0)">
                    <mask id="mask-2" fill="white">
                        <use xlink:href="#path-1"></use>
                    </mask>
                    <g id="Clip-6"></g>
                    <path d="M3.67122798,2.58187997 L1.33726858,2.58187997 C1.09686075,2.58187997 0.896520884,2.38654861 0.896520884,2.14113228 C0.896520884,1.90072444 1.09686075,1.70038458 1.33726858,1.70038458 L3.67122798,1.70038458 C3.91664431,1.70038458 4.11197567,1.90072444 4.11197567,2.14113228 C4.11197567,2.38654861 3.91664431,2.58187997 3.67122798,2.58187997" id="Fill-5" fill="#000000" mask="url(#mask-2)"></path>
                </g>
                <g id="Group-10" transform="translate(6.6738, 22.5776)">
                    <mask id="mask-4" fill="white">
                        <use xlink:href="#path-3"></use>
                    </mask>
                    <g id="Clip-9"></g>
                    <path d="M1.10687774,1.39880297 C0.981665325,1.39880297 0.881495394,1.48755353 0.881495394,1.59849173 C0.881495394,1.70942993 0.981665325,1.80261801 1.10687774,1.80261801 L3.24550577,1.80261801 C3.37071818,1.80261801 3.47088811,1.70942993 3.47088811,1.59849173 C3.47088811,1.48755353 3.37071818,1.39880297 3.24550577,1.39880297 L1.10687774,1.39880297 Z M3.24550577,2.58362293 L1.10687774,2.58362293 C0.495841159,2.58362293 -1.31450406e-13,2.13987014 -1.31450406e-13,1.59849173 C-1.31450406e-13,1.05711332 0.495841159,0.61779805 1.10687774,0.61779805 L3.24550577,0.61779805 C3.85654235,0.61779805 4.35238351,1.05711332 4.35238351,1.59849173 C4.35238351,2.13987014 3.85654235,2.58362293 3.24550577,2.58362293 L3.24550577,2.58362293 Z" id="Fill-8" fill="#000000" mask="url(#mask-4)"></path>
                </g>
                <g id="Group-13" transform="translate(0, 22.9915)">
                    <mask id="mask-6" fill="white">
                        <use xlink:href="#path-5"></use>
                    </mask>
                    <g id="Clip-12"></g>
                    <path d="M22.9589482,3.97674627 L0.440747697,3.97674627 C0.195331366,3.97674627 0,3.7814149 0,3.53599857 C0,3.29058224 0.195331366,3.09525087 0.440747697,3.09525087 L22.9589482,3.09525087 C23.2043645,3.09525087 23.3996959,3.29058224 23.3996959,3.53599857 C23.3996959,3.7814149 23.2043645,3.97674627 22.9589482,3.97674627" id="Fill-11" fill="#000000" mask="url(#mask-6)"></path>
                </g>
                <path d="M7.03499687,9.83668724 C6.89475897,9.83668724 6.75952956,9.77157678 6.67438512,9.65137286 L5.76784724,8.38422324 C5.62760934,8.18889187 5.67268581,7.91342456 5.87302567,7.77318666 C6.06835703,7.63294875 6.34382434,7.67802522 6.48907075,7.87335659 L6.8396655,8.36919775 C7.09009033,7.60790627 7.570906,6.62123245 8.4423844,6.24559521 C8.66776675,6.14542528 8.92320007,6.2506037 9.02337,6.47097755 C9.11853144,6.6913514 9.01836151,6.95179322 8.79297916,7.05196315 C7.95656024,7.4175834 7.55588051,8.91512387 7.47073607,9.46105 C7.44569359,9.64135587 7.31046418,9.78159378 7.1401753,9.82667024 C7.10511582,9.83167874 7.07005635,9.83668724 7.03499687,9.83668724" id="Fill-14" fill="#000000"></path>
                <path d="M17.9735533,8.70025937 L10.5760039,8.70025937 C10.3305876,8.70025937 10.1352562,8.504928 10.1352562,8.25951167 C10.1352562,8.01409534 10.3305876,7.81876397 10.5760039,7.81876397 L17.9735533,7.81876397 C18.2189697,7.81876397 18.414301,8.01409534 18.414301,8.25951167 C18.414301,8.504928 18.2189697,8.70025937 17.9735533,8.70025937" id="Fill-16" fill="#000000"></path>
                <path d="M7.03499687,14.6243091 C6.89475897,14.6243091 6.75952956,14.5591986 6.67438512,14.4389947 L5.76784724,13.1718451 C5.62760934,12.9765137 5.67268581,12.7010464 5.87302567,12.5608085 C6.06835703,12.4155621 6.34382434,12.4656471 6.48907075,12.6609784 L6.8396655,13.1568196 C7.09009033,12.3955281 7.570906,11.4088543 8.4423844,11.0332171 C8.66275825,10.9330471 8.92320007,11.0332171 9.02337,11.2585994 C9.11853144,11.4789733 9.01836151,11.7394151 8.79297916,11.839585 C7.95656024,12.2052053 7.55588051,13.7027457 7.47073607,14.2486719 C7.44569359,14.4289777 7.31046418,14.5692156 7.1401753,14.6142921 C7.10511582,14.6193006 7.07005635,14.6243091 7.03499687,14.6243091" id="Fill-18" fill="#000000"></path>
                <path d="M17.9735533,13.4873804 L10.5760039,13.4873804 C10.3305876,13.4873804 10.1352562,13.292049 10.1352562,13.0466327 C10.1352562,12.8062248 10.3305876,12.605885 10.5760039,12.605885 L17.9735533,12.605885 C18.2189697,12.605885 18.414301,12.8062248 18.414301,13.0466327 C18.414301,13.292049 18.2189697,13.4873804 17.9735533,13.4873804" id="Fill-20" fill="#000000"></path>
                <path d="M7.03499687,19.4114301 C6.89475897,19.4114301 6.75952956,19.3463196 6.67438512,19.2261157 L5.76784724,17.9639746 C5.62760934,17.7636347 5.67268581,17.4881674 5.87302567,17.3479295 C6.06835703,17.2076916 6.34382434,17.2527681 6.48907075,17.4480995 L6.8396655,17.9439406 C7.09009033,17.1826491 7.570906,16.1959753 8.4423844,15.8203381 C8.66275825,15.7201681 8.92320007,15.8203381 9.02337,16.0457204 C9.11853144,16.2660943 9.01836151,16.5265361 8.79297916,16.626706 C7.95656024,16.9923263 7.55588051,18.4898667 7.47073607,19.0357929 C7.44569359,19.2160987 7.31046418,19.3563366 7.1401753,19.4014131 C7.10511582,19.4064216 7.07005635,19.4114301 7.03499687,19.4114301" id="Fill-22" fill="#000000"></path>
                <path d="M17.9735533,18.2750022 L10.5760039,18.2750022 C10.3305876,18.2750022 10.1352562,18.0796709 10.1352562,17.8342545 C10.1352562,17.5888382 10.3305876,17.3935068 10.5760039,17.3935068 L17.9735533,17.3935068 C18.2189697,17.3935068 18.414301,17.5888382 18.414301,17.8342545 C18.414301,18.0796709 18.2189697,18.2750022 17.9735533,18.2750022" id="Fill-24" fill="#000000"></path>
            </g>
        </g>
    </g>
</svg>