<svg width="43" height="39" viewBox="0 0 43 39" fill="none" xmlns="http://www.w3.org/2000/svg">
<g id="img-check-intro3 1" clip-path="url(#clip0_2133_7129)">
<path id="Rectangle Copy 69" d="M20.3174 38.2725H12.7531V22.1648H10.4769C10.0729 22.1649 9.67312 22.2464 9.30124 22.4044C8.92936 22.5623 8.59303 22.7935 8.31226 23.0842L5.35742 26.1427C5.08906 26.4207 4.76755 26.6417 4.41205 26.7926C4.05654 26.9436 3.67431 27.0214 3.28812 27.0214C2.90194 27.0214 2.51971 26.9436 2.1642 26.7926C1.80869 26.6417 1.48718 26.4207 1.21883 26.1427C0.669503 25.5736 0.368274 24.8096 0.381263 24.0184C0.394251 23.2272 0.720395 22.4734 1.28811 21.9227L6.36144 16.9992C7.44768 15.9454 8.88936 15.3377 10.4016 15.2961L12.6838 15.2338H12.8213H26.4068C27.3704 15.2353 28.3132 15.5144 29.1227 16.0376L32.3145 18.0924C32.8041 18.4079 33.3746 18.5746 33.957 18.5722C34.5393 18.5699 35.1085 18.3987 35.5956 18.0794L37.5665 16.7862C37.8893 16.5628 38.2535 16.4062 38.6377 16.3257C39.0218 16.2452 39.4182 16.2424 39.8035 16.3174C40.1887 16.3924 40.5552 16.5437 40.8812 16.7624C41.2072 16.9811 41.4862 17.2629 41.7018 17.5911C41.9175 17.9192 42.0654 18.2873 42.1369 18.6735C42.2083 19.0597 42.2019 19.4563 42.1181 19.84C42.0342 20.2237 41.8745 20.5868 41.6484 20.9079C41.4223 21.2289 41.1343 21.5015 40.8015 21.7096L36.7061 24.3572C35.8938 24.883 34.947 25.1627 33.9796 25.1627C33.0122 25.1627 32.0655 24.883 31.2532 24.3572L27.8817 22.1728V38.2725H20.3174ZM13.8444 6.67404C13.8436 5.37176 14.2288 4.09851 14.9512 3.01533C15.6736 1.93215 16.7008 1.08772 17.9028 0.588859C19.1048 0.0899936 20.4277 -0.0408935 21.7041 0.212754C22.9804 0.466401 24.153 1.09319 25.0733 2.01383C25.9937 2.93446 26.6205 4.10759 26.8746 5.38481C27.1286 6.66203 26.9984 7.98596 26.5005 9.18913C26.0026 10.3923 25.1592 11.4206 24.0772 12.1441C22.9952 12.8675 21.7231 13.2536 20.4218 13.2534C18.6779 13.2534 17.0054 12.5603 15.772 11.3265C14.5386 10.0927 13.8452 8.41926 13.8444 6.67404Z" fill="url(#paint0_linear_2133_7129)"/>
</g>
<defs>
<linearGradient id="paint0_linear_2133_7129" x1="21.2835" y1="19.1796" x2="21.2835" y2="38.2725" gradientUnits="userSpaceOnUse">
<stop stop-color="white"/>
<stop offset="1" stop-color="white" stop-opacity="0.502"/>
</linearGradient>
<clipPath id="clip0_2133_7129">
<rect width="41.7614" height="38.1818" fill="white" transform="translate(0.381836 0.0908203)"/>
</clipPath>
</defs>
</svg>
