<svg width="37" height="36" viewBox="0 0 37 36" fill="none" xmlns="http://www.w3.org/2000/svg">
<g id="Group 3 Copy 11">
<rect id="Rectangle" x="0.9375" width="36" height="36" fill="#DCDCDC" fill-opacity="0.01"/>
<path id="Rectangle_2" d="M8.1875 12C8.1875 9.65279 10.0903 7.75 12.4375 7.75H25.4375C27.7847 7.75 29.6875 9.65279 29.6875 12V25C29.6875 27.3472 27.7847 29.25 25.4375 29.25H12.4375C10.0903 29.25 8.1875 27.3472 8.1875 25V12Z" stroke="#BA366B" stroke-width="1.5"/>
<g id="Rectangle 2">
<mask id="path-3-inside-1_17_3086" fill="white">
<path fill-rule="evenodd" clip-rule="evenodd" d="M17.6875 16V13H19.6875V16H17.6875ZM16.1875 16V12.5C16.1875 11.9477 16.6352 11.5 17.1875 11.5H20.1875C20.7398 11.5 21.1875 11.9477 21.1875 12.5V16H24.1875C24.7398 16 25.1875 16.4477 25.1875 17V20C25.1875 20.5523 24.7398 21 24.1875 21H21.1875V24.5C21.1875 25.0523 20.7398 25.5 20.1875 25.5H17.1875C16.6352 25.5 16.1875 25.0523 16.1875 24.5V21H13.1875C12.6352 21 12.1875 20.5523 12.1875 20V17C12.1875 16.4477 12.6352 16 13.1875 16H16.1875ZM16.1875 19.5H13.6875V17.5H16.1875V19.5ZM17.6875 19.5V17.5H19.6875V19.5H17.6875ZM17.6875 21V24H19.6875V21H17.6875ZM21.1875 19.5H23.6875V17.5H21.1875V19.5Z"/>
</mask>
<path d="M17.6875 13V11.5H16.1875V13H17.6875ZM17.6875 16H16.1875V17.5H17.6875V16ZM19.6875 13H21.1875V11.5H19.6875V13ZM19.6875 16V17.5H21.1875V16H19.6875ZM16.1875 16V17.5H17.6875V16H16.1875ZM21.1875 16H19.6875V17.5H21.1875V16ZM21.1875 21V19.5H19.6875V21H21.1875ZM16.1875 21H17.6875V19.5H16.1875V21ZM13.6875 19.5H12.1875V21H13.6875V19.5ZM16.1875 19.5V21H17.6875V19.5H16.1875ZM13.6875 17.5V16H12.1875V17.5H13.6875ZM16.1875 17.5H17.6875V16H16.1875V17.5ZM17.6875 17.5V16H16.1875V17.5H17.6875ZM17.6875 19.5H16.1875V21H17.6875V19.5ZM19.6875 17.5H21.1875V16H19.6875V17.5ZM19.6875 19.5V21H21.1875V19.5H19.6875ZM17.6875 21V19.5H16.1875V21H17.6875ZM17.6875 24H16.1875V25.5H17.6875V24ZM19.6875 24V25.5H21.1875V24H19.6875ZM19.6875 21H21.1875V19.5H19.6875V21ZM21.1875 19.5H19.6875V21H21.1875V19.5ZM23.6875 19.5V21H25.1875V19.5H23.6875ZM23.6875 17.5H25.1875V16H23.6875V17.5ZM21.1875 17.5V16H19.6875V17.5H21.1875ZM16.1875 13V16H19.1875V13H16.1875ZM19.6875 11.5H17.6875V14.5H19.6875V11.5ZM21.1875 16V13H18.1875V16H21.1875ZM19.6875 14.5H17.6875V17.5H19.6875V14.5ZM14.6875 12.5V16H17.6875V12.5H14.6875ZM17.1875 10C15.8068 10 14.6875 11.1193 14.6875 12.5H17.6875C17.6875 12.7761 17.4636 13 17.1875 13V10ZM20.1875 10H17.1875V13H20.1875V10ZM22.6875 12.5C22.6875 11.1193 21.5682 10 20.1875 10V13C19.9114 13 19.6875 12.7761 19.6875 12.5H22.6875ZM22.6875 16V12.5H19.6875V16H22.6875ZM24.1875 14.5H21.1875V17.5H24.1875V14.5ZM26.6875 17C26.6875 15.6193 25.5682 14.5 24.1875 14.5V17.5C23.9114 17.5 23.6875 17.2761 23.6875 17H26.6875ZM26.6875 20V17H23.6875V20H26.6875ZM24.1875 22.5C25.5682 22.5 26.6875 21.3807 26.6875 20H23.6875C23.6875 19.7239 23.9114 19.5 24.1875 19.5V22.5ZM21.1875 22.5H24.1875V19.5H21.1875V22.5ZM22.6875 24.5V21H19.6875V24.5H22.6875ZM20.1875 27C21.5682 27 22.6875 25.8807 22.6875 24.5H19.6875C19.6875 24.2239 19.9114 24 20.1875 24V27ZM17.1875 27H20.1875V24H17.1875V27ZM14.6875 24.5C14.6875 25.8807 15.8068 27 17.1875 27V24C17.4636 24 17.6875 24.2239 17.6875 24.5H14.6875ZM14.6875 21V24.5H17.6875V21H14.6875ZM13.1875 22.5H16.1875V19.5H13.1875V22.5ZM10.6875 20C10.6875 21.3807 11.8068 22.5 13.1875 22.5V19.5C13.4636 19.5 13.6875 19.7239 13.6875 20H10.6875ZM10.6875 17V20H13.6875V17H10.6875ZM13.1875 14.5C11.8068 14.5 10.6875 15.6193 10.6875 17H13.6875C13.6875 17.2761 13.4636 17.5 13.1875 17.5V14.5ZM16.1875 14.5H13.1875V17.5H16.1875V14.5ZM13.6875 21H16.1875V18H13.6875V21ZM12.1875 17.5V19.5H15.1875V17.5H12.1875ZM16.1875 16H13.6875V19H16.1875V16ZM14.6875 17.5V19.5H17.6875V17.5H14.6875ZM16.1875 17.5V19.5H19.1875V17.5H16.1875ZM19.6875 16H17.6875V19H19.6875V16ZM21.1875 19.5V17.5H18.1875V19.5H21.1875ZM17.6875 21H19.6875V18H17.6875V21ZM16.1875 21V24H19.1875V21H16.1875ZM17.6875 25.5H19.6875V22.5H17.6875V25.5ZM21.1875 24V21H18.1875V24H21.1875ZM17.6875 22.5H19.6875V19.5H17.6875V22.5ZM21.1875 21H23.6875V18H21.1875V21ZM25.1875 19.5V17.5H22.1875V19.5H25.1875ZM23.6875 16H21.1875V19H23.6875V16ZM22.6875 19.5V17.5H19.6875V19.5H22.6875Z" fill="#BA366B" mask="url(#path-3-inside-1_17_3086)"/>
</g>
</g>
</svg>
