<svg xmlns="http://www.w3.org/2000/svg" width="14" height="14.181" viewBox="0 0 14 14.181">
  <g id="Path_3" data-name="Path 3" transform="translate(0 0)" fill="none" stroke-miterlimit="10">
    <path d="M8.033.326A1,1,0,0,0,6.588.292L.294,6.573A1,1,0,0,0,0,7.281v5.9a1,1,0,0,0,1,1H3.5l2.315,0h-1a1,1,0,0,0,1-.994l.01-1.732a.5.5,0,0,1,.5-.5H7.665a.5.5,0,0,1,.5.5v1.722a1,1,0,0,0,1,1H13a1,1,0,0,0,1-1V7.254a1,1,0,0,0-.261-.674Z" stroke="none"/>
    <path d="M 7.29460620880127 1.000003814697266 L 7.29460620880127 1.000011444091797 L 0.9999961853027344 7.280901432037354 L 0.9999961853027344 13.17861080169678 L 4.821036338806152 13.17997169494629 L 4.831326484680176 11.44812107086182 C 4.836226463317871 10.62594127655029 5.509116172790527 9.957051277160645 6.331296443939209 9.957051277160645 L 7.664546489715576 9.957051277160645 C 8.491645812988281 9.957051277160645 9.164546966552734 10.62995147705078 9.164546966552734 11.45705127716064 L 9.164546966552734 13.17861080169678 L 13.00013637542725 13.17861080169678 L 13.00013637542725 7.253681182861328 L 7.295696258544922 1.000131607055664 C 7.295579433441162 1.000095367431641 7.295172691345215 1.000019073486328 7.29460620880127 1.000003814697266 M 7.294448852539062 5.7220458984375e-06 C 7.565238952636719 1.1444091796875e-05 7.835583209991455 0.1092462539672852 8.033355712890625 0.3260211944580078 L 13.73887634277344 6.579691410064697 C 13.90695667266846 6.76392126083374 14.00013637542725 7.004301071166992 14.00013637542725 7.253681182861328 L 14.00013637542725 13.17861080169678 C 14.00013637542725 13.73090076446533 13.55241584777832 14.17861080169678 13.00013637542725 14.17861080169678 L 14.00013637542725 14.17861080169678 L 9.164546966552734 14.17861080169678 C 8.612266540527344 14.17861080169678 8.164546966552734 13.73090076446533 8.164546966552734 13.17861080169678 L 8.164546966552734 11.45705127716064 C 8.164546966552734 11.18091106414795 7.940696239471436 10.95705127716064 7.664546489715576 10.95705127716064 L 6.331296443939209 10.95705127716064 C 6.056316375732422 10.95705127716064 5.832945823669434 11.17910099029541 5.831306457519531 11.45408153533936 L 5.821016311645508 13.18591117858887 C 5.817746162414551 13.73626136779785 5.37102222442627 14.18053913116455 4.820006370544434 14.17996120452881 L 5.815095901489258 14.18098163604736 L 3.500036239624023 14.17861080169678 L 0.9999961853027344 14.17861080169678 C 0.4477167129516602 14.17861080169678 -3.814697265625e-06 13.73090076446533 -3.814697265625e-06 13.17861080169678 L -3.814697265625e-06 7.280901432037354 C -3.814697265625e-06 7.015311241149902 0.105656623840332 6.760621070861816 0.293665885925293 6.573021411895752 L 6.588276386260986 0.2921314239501953 C 6.783929347991943 0.09690475463867188 7.039385795593262 0 7.294448852539062 5.7220458984375e-06 Z" stroke="none" fill="#979797"/>
  </g>
</svg>
