<svg width="49" height="42" viewBox="0 0 49 42" fill="none" xmlns="http://www.w3.org/2000/svg">
<path id="Rectangle 3" d="M16.8154 41.4751C15.4775 41.4751 14.1944 40.8792 13.2484 39.8186C12.3024 38.7579 11.7709 37.3193 11.7709 35.8193C11.7709 34.3193 12.3024 32.8807 13.2484 31.8201C14.1944 30.7594 15.4775 30.1635 16.8154 30.1635H26.8342L31.0533 31.3518C31.4624 31.4669 31.8914 31.4583 32.2966 31.327C32.7018 31.1957 33.0687 30.9463 33.3599 30.6042L33.6965 30.2081C33.8903 29.9806 34.0354 29.7067 34.1208 29.407C34.2062 29.1074 34.2297 28.7899 34.1895 28.4786L37.3053 26.1715C37.7474 25.8443 38.2638 25.6658 38.7934 25.6572C39.3231 25.6485 39.8439 25.8101 40.2943 26.1227L45.4235 29.6814C45.6621 29.8471 45.8677 30.0661 46.0274 30.3249C46.1871 30.5837 46.2975 30.8766 46.3517 31.1854C46.4058 31.4942 46.4026 31.8122 46.3422 32.1195C46.2818 32.4268 46.1655 32.7168 46.0006 32.9715C45.6452 33.5196 45.1221 33.9017 44.5313 34.0448C43.9405 34.1878 43.3234 34.0819 42.7979 33.7471L40.4923 32.2767C39.9814 31.9514 39.3917 31.8163 38.808 31.8909C38.2243 31.9654 37.6767 32.2457 37.2442 32.6915L34.2644 35.7576L33.9407 35.9868H46.6212C46.9357 35.9868 47.2472 36.0567 47.5375 36.1925C47.8278 36.3284 48.0912 36.5274 48.3124 36.7782C48.5336 37.0289 48.7083 37.3263 48.8263 37.6532C48.9443 37.9802 49.0033 38.3301 48.9999 38.6827C48.9938 39.4008 48.7361 40.0875 48.2824 40.5944C47.8287 41.1013 47.2154 41.3878 46.5749 41.3922L33.0704 41.4751H16.8154ZM8.03305e-08 35.5046C9.62147e-08 34.3237 0.312343 33.1694 0.897527 32.1875C1.48271 31.2056 2.31445 30.4404 3.28756 29.9885C4.26068 29.5367 5.33145 29.4185 6.36447 29.6489C7.39749 29.8794 8.34635 30.4481 9.09106 31.2832C9.83577 32.1183 10.3429 33.1823 10.5482 34.3405C10.7536 35.4987 10.648 36.6992 10.2448 37.7902C9.84163 38.8811 9.15894 39.8135 8.28309 40.4694C7.40724 41.1253 6.37757 41.4753 5.3243 41.4751C4.62503 41.4751 3.9326 41.3207 3.28657 41.0206C2.64053 40.7206 2.05354 40.2808 1.55913 39.7263C1.06471 39.1719 0.67254 38.5137 0.405023 37.7894C0.137506 37.065 -0.000121385 36.2886 8.03305e-08 35.5046ZM30.8832 29.8297L26.7926 28.4723H14.8539C14.3633 28.4723 13.8928 28.2539 13.5459 27.8649C13.199 27.476 13.0042 26.9485 13.0042 26.3985V21.7739C13.0042 19.9982 13.6333 18.2953 14.7532 17.0397C15.8731 15.7841 17.3921 15.0787 18.9759 15.0787H25.0289C26.1881 15.0784 27.3311 15.3835 28.3658 15.9694L32.2251 18.1562C33.0304 18.6125 33.9566 18.7231 34.8295 18.4673L37.3099 17.7414C37.5469 17.6718 37.7942 17.6575 38.0363 17.6996C38.2784 17.7416 38.5102 17.839 38.7174 17.9858C38.9245 18.1325 39.1025 18.3254 39.2403 18.5526C39.3781 18.7797 39.4728 19.0362 39.5184 19.3061C39.6163 19.8856 39.52 20.4852 39.248 20.9899C38.9759 21.4947 38.5473 21.8692 38.0442 22.0415L35.1495 23.0338C33.9701 23.438 32.7043 23.3902 31.5518 22.898L28.0226 21.3924V24.192L31.415 25.4529C31.9332 25.645 32.3752 26.034 32.6647 26.5528C32.9541 27.0716 33.0728 27.6875 33.0001 28.294C32.9679 28.5605 32.8847 28.816 32.7562 29.0431C32.6277 29.2702 32.457 29.4635 32.2557 29.6097C32.0544 29.756 31.8273 29.8517 31.5899 29.8904C31.3525 29.929 31.1105 29.9097 30.8804 29.8338L30.8832 29.8297ZM14.0132 6.59782C14.0132 5.29294 14.3583 4.01736 15.0049 2.93238C15.6515 1.84739 16.5705 1.00174 17.6457 0.502331C18.721 0.00292745 19.9041 -0.127792 21.0456 0.126702C22.1872 0.381197 23.2357 1.00948 24.0588 1.93209C24.8818 2.85471 25.4423 4.03023 25.6695 5.31002C25.8967 6.5898 25.7803 7.91637 25.335 9.12198C24.8897 10.3276 24.1356 11.3581 23.168 12.0832C22.2004 12.8083 21.0627 13.1954 19.8989 13.1956C18.338 13.1956 16.8411 12.5006 15.7374 11.2632C14.6336 10.0259 14.0134 8.34777 14.0132 6.59782Z" fill="url(#paint0_linear_2133_7099)"/>
<defs>
<linearGradient id="paint0_linear_2133_7099" x1="24.5" y1="20.7376" x2="24.5" y2="40.6871" gradientUnits="userSpaceOnUse">
<stop stop-color="white"/>
<stop offset="1" stop-color="white" stop-opacity="0.494"/>
</linearGradient>
</defs>
</svg>
