<svg width="48" height="28" viewBox="0 0 48 28" fill="none" xmlns="http://www.w3.org/2000/svg">
    <path d="M33.78 18.328V19.252H25.17V14.982H33.696V15.906H26.318V18.328H33.78ZM29.412 26.126C31.372 26.126 32.548 25.636 32.548 24.754C32.548 23.872 31.386 23.382 29.412 23.382C27.438 23.382 26.276 23.872 26.276 24.754C26.276 25.636 27.438 26.126 29.412 26.126ZM29.412 22.486C32.086 22.486 33.71 23.298 33.71 24.754C33.71 26.21 32.086 27.022 29.412 27.022C26.738 27.022 25.114 26.21 25.114 24.754C25.114 23.298 26.738 22.486 29.412 22.486ZM23.742 20.456H35.11V21.408H23.742V20.456ZM45.2589 25.944V24.222H39.0849V25.944H45.2589ZM45.2589 23.326V21.674H46.3929V26.868H37.9509V21.674H39.0849V23.326H45.2589ZM46.0709 19.602H47.8769V20.54H36.4669V19.602H44.9229C45.2729 18.062 45.2729 16.942 45.2729 15.99H37.9229V15.052H46.4069V15.962C46.4069 16.928 46.4069 18.048 46.0709 19.602Z" fill="white"/>
    <path d="M9.59 27.49C5.495 27.49 2.73 25.95 0.91 23.885L3.325 20.63C4.865 22.135 6.755 23.29 9.1 23.29C11.725 23.29 13.51 21.995 13.51 19.65C13.51 17.13 12.005 15.52 6.37 15.52V11.845C11.13 11.845 12.67 10.2 12.67 7.89C12.67 5.86 11.41 4.67 9.205 4.67C7.35 4.67 5.845 5.51 4.305 6.945L1.68 3.795C3.92 1.835 6.405 0.61 9.45 0.61C14.455 0.61 17.85 3.095 17.85 7.505C17.85 10.305 16.275 12.335 13.545 13.42V13.595C16.45 14.4 18.69 16.57 18.69 19.965C18.69 24.725 14.525 27.49 9.59 27.49Z" fill="white"/>
</svg>
