<svg id="Group_22" data-name="Group 22" xmlns="http://www.w3.org/2000/svg" width="15.364" height="16.012" viewBox="0 0 15.364 16.012">
  <path id="Fill_1" data-name="Fill 1" d="M0,0V.436H2.094L3.019,10.87l-.64,2.577H13.7v-.436H2.937l.522-2.1L2.488,0Z" fill="#fff"/>
  <path id="Fill_12" data-name="Fill 12" d="M11.795,8.516H.581L0,0H12.957L11.795,8.515ZM10.1,1.764a.218.218,0,0,0-.218.218V6.538a.218.218,0,1,0,.436,0V1.982A.218.218,0,0,0,10.1,1.764Zm-1.787,0a.218.218,0,0,0-.218.218V6.538a.218.218,0,0,0,.436,0V1.982A.218.218,0,0,0,8.314,1.764Zm-1.787,0a.218.218,0,0,0-.218.218V6.538a.218.218,0,1,0,.436,0V1.982A.218.218,0,0,0,6.527,1.764Zm-1.787,0a.218.218,0,0,0-.219.218V6.538a.218.218,0,0,0,.437,0V1.982A.218.218,0,0,0,4.739,1.764Zm-1.788,0a.218.218,0,0,0-.218.218V6.538a.218.218,0,0,0,.437,0V1.982A.218.218,0,0,0,2.951,1.764Z" transform="translate(2.407 3.974)" fill="#ffd611"/>
  <g id="Group_21" data-name="Group 21" transform="translate(3.417 13.24)">
    <path id="Fill_3" data-name="Fill 3" d="M0,1.386A1.386,1.386,0,1,1,1.386,2.772,1.386,1.386,0,0,1,0,1.386" fill="#fff"/>
    <path id="Fill_5" data-name="Fill 5" d="M0,.554a.554.554,0,1,1,.554.554A.554.554,0,0,1,0,.554" transform="translate(0.832 0.832)" fill="#ee6969"/>
    <path id="Fill_7" data-name="Fill 7" d="M0,1.386A1.386,1.386,0,1,1,1.386,2.772,1.386,1.386,0,0,1,0,1.386" transform="translate(6.951)" fill="#fff"/>
    <path id="Fill_19" data-name="Fill 19" d="M0,.554a.554.554,0,1,1,.554.554A.554.554,0,0,1,0,.554" transform="translate(7.782 0.832)" fill="#ee6969"/>
  </g>
</svg>
