<?xml version="1.0" encoding="UTF-8"?>
<svg width="22.2374952px" height="28px" viewBox="0 0 22.2374952 28" version="1.1" xmlns="http://www.w3.org/2000/svg" xmlns:xlink="http://www.w3.org/1999/xlink">
    <title>quick-link-icon-1</title>
    <defs>
        <polygon id="path-1" points="0 0 6.26498664 0 6.26498664 6.26284842 0 6.26284842"></polygon>
        <polygon id="path-3" points="0 0 13.6023563 0 13.6023563 21.2095456 0 21.2095456"></polygon>
        <polygon id="path-5" points="0 28 22.2374952 28 22.2374952 0 0 0"></polygon>
    </defs>
    <g id="Page-1" stroke="none" stroke-width="1" fill="none" fill-rule="evenodd">
        <g id="assets" transform="translate(-465, -914)">
            <g id="quick-link-icon-1" transform="translate(476.1187, 928) scale(-1, 1) translate(-476.1187, -928)translate(465, 914)">
                <g id="Group-3" transform="translate(4.958, 0)">
                    <mask id="mask-2" fill="white">
                        <use xlink:href="#path-1"></use>
                    </mask>
                    <g id="Clip-2"></g>
                    <path d="M3.13249332,1.06697213 C1.9938908,1.06697213 1.06911035,1.99175258 1.06911035,3.1303551 C1.06911035,4.26895762 1.9938908,5.19908362 3.13249332,5.19908362 C4.27109584,5.19908362 5.19587629,4.26895762 5.19587629,3.1303551 C5.19587629,1.99175258 4.27109584,1.06697213 3.13249332,1.06697213 M3.13249332,6.26284842 C1.40588011,6.26284842 0,4.85696831 0,3.1303551 C0,1.40374189 1.40588011,-0.00213822069 3.13249332,-0.00213822069 C4.85910653,-0.00213822069 6.26498664,1.40374189 6.26498664,3.1303551 C6.26498664,4.85696831 4.85910653,6.26284842 3.13249332,6.26284842" id="Fill-1" fill="#000000" mask="url(#mask-2)"></path>
                </g>
                <g id="Group-6" transform="translate(5.5391, 6.7905)">
                    <mask id="mask-4" fill="white">
                        <use xlink:href="#path-3"></use>
                    </mask>
                    <g id="Clip-5"></g>
                    <path d="M9.16227568,20.1420389 L12.2680412,20.1420389 L12.2680412,19.9923635 C12.2680412,19.4791905 11.8510882,19.067583 11.3432608,19.067583 L11.0225277,19.067583 C10.7231768,19.067583 10.4879725,18.8270332 10.4879725,18.5330279 L10.4879725,11.0706376 C10.4879725,10.4398625 9.96945399,9.91599847 9.33867889,9.90530737 L4.03589156,9.81977854 C3.74723177,9.81443299 3.51202749,9.57922871 3.51202749,9.28522337 L3.51202749,5.5273005 C3.51202749,5.31347843 3.63497518,5.12638412 3.82741504,5.03550974 C4.01450935,4.94998091 4.23902253,4.98739977 4.39938908,5.12638412 L5.77854143,6.33982436 C5.88545246,6.43604429 6.02443681,6.48415426 6.16342115,6.48415426 L11.8831615,6.48415426 C12.2092402,6.48415426 12.5032455,6.24894998 12.5299733,5.96029019 C12.5460099,5.78923253 12.4979,5.62886598 12.3802978,5.50057274 C12.2680412,5.37762505 12.1130202,5.30813288 11.9473081,5.30813288 L6.59106529,5.30813288 C6.4574265,5.30813288 6.33447881,5.26002291 6.23825888,5.17449408 L3.69377625,2.9347079 C3.57617411,2.83314242 3.51202749,2.68346697 3.51202749,2.53379152 L3.51202749,1.91370752 C3.51202749,1.44864452 3.13249332,1.06911035 2.66743032,1.06911035 L2.12218404,1.06911035 C1.5395189,1.06911035 1.06911035,1.5395189 1.06911035,2.12218404 L1.06911035,10.3543337 C1.06911035,11.0813288 1.65712104,11.674685 2.38411607,11.674685 L7.57999236,11.674685 C8.4513173,11.674685 9.16227568,12.3856434 9.16227568,13.2569683 L9.16227568,20.1420389 Z M12.7972509,21.2111493 L8.6277205,21.2111493 C8.33371516,21.2111493 8.09316533,20.9705995 8.09316533,20.6765941 L8.09316533,13.2569683 C8.09316533,12.9736541 7.86330661,12.7384498 7.57999236,12.7384498 L2.38411607,12.7384498 C1.06911035,12.7384498 0,11.6693394 0,10.3543337 L0,2.12218404 C0,0.951508209 0.951508209,0 2.12218404,0 L2.66743032,0 C3.72050401,0 4.58113784,0.86063383 4.58113784,1.91370752 L4.58113784,2.2932417 L6.79419626,4.23902253 L11.9473081,4.23902253 C12.4123711,4.23902253 12.8613975,4.43680794 13.1714395,4.7842688 C13.486827,5.13172967 13.641848,5.59679267 13.5937381,6.06720122 C13.5082092,6.90110729 12.759832,7.5532646 11.8831615,7.5532646 L6.16342115,7.5532646 C5.76250477,7.5532646 5.3722795,7.40358916 5.06758305,7.14165712 L4.58113784,6.70866743 L4.58113784,8.7613593 L9.35471554,8.84154257 C10.5681558,8.85757923 11.5517373,9.86254296 11.5517373,11.0706376 L11.5517373,18.0091638 C12.5513555,18.1160748 13.331806,18.9660176 13.331806,19.9923635 L13.331806,20.6765941 C13.331806,20.9705995 13.0966018,21.2111493 12.7972509,21.2111493 L12.7972509,21.2111493 Z" id="Fill-4" fill="#000000" mask="url(#mask-4)"></path>
                </g>
                <path d="M9.80855288,13.0468881 C9.68560519,13.0468881 9.55731195,13.0041237 9.45574647,12.9132493 L8.07659412,11.6944635 C7.85208095,11.5020237 7.83069874,11.1652539 8.02848415,10.9407407 C8.22092402,10.7215731 8.55769378,10.7001909 8.78220695,10.8926308 L10.1613593,12.1114166 C10.3805269,12.309202 10.4019091,12.6459717 10.2094693,12.8651394 C10.1025582,12.9827415 9.95822833,13.0468881 9.80855288,13.0468881" id="Fill-7" fill="#000000"></path>
                <path d="M1.71592211,19.5305078 C1.42726231,19.5305078 1.19205804,19.7657121 1.19205804,20.0543719 C1.19205804,20.3430317 1.42726231,20.578236 1.71592211,20.578236 L13.1126384,20.578236 C13.4012982,20.578236 13.6365025,20.3430317 13.6365025,20.0543719 C13.6365025,19.7657121 13.4012982,19.5305078 13.1126384,19.5305078 L1.71592211,19.5305078 Z M13.1126384,21.6420008 L1.71592211,21.6420008 C0.839251623,21.6420008 0.12294769,20.9310424 0.12294769,20.0543719 C0.12294769,19.1777014 0.839251623,18.4613975 1.71592211,18.4613975 L13.1126384,18.4613975 C13.9893089,18.4613975 14.7002673,19.1777014 14.7002673,20.0543719 C14.7002673,20.9310424 13.9893089,21.6420008 13.1126384,21.6420008 L13.1126384,21.6420008 Z" id="Fill-9" fill="#000000"></path>
                <mask id="mask-6" fill="white">
                    <use xlink:href="#path-5"></use>
                </mask>
                <g id="Clip-12"></g>
                <path d="M6.39327988,26.9308897 L9.40282551,26.9308897 L9.40282551,21.644139 L6.39327988,21.644139 L6.39327988,26.9308897 Z M9.93738068,28 L5.8587247,28 C5.56471936,28 5.32416953,27.7594502 5.32416953,27.4654448 L5.32416953,21.1095838 C5.32416953,20.8155785 5.56471936,20.5750286 5.8587247,20.5750286 L9.93738068,20.5750286 C10.231386,20.5750286 10.4665903,20.8155785 10.4665903,21.1095838 L10.4665903,27.4654448 C10.4665903,27.7594502 10.231386,28 9.93738068,28 L9.93738068,28 Z" id="Fill-11" fill="#000000" mask="url(#mask-6)"></path>
                <path d="M21.7045437,28 L4.44910271,28 C4.14975181,28 3.91454754,27.7594502 3.91454754,27.4654448 C3.91454754,27.1714395 4.14975181,26.9308897 4.44910271,26.9308897 L21.7045437,26.9308897 C21.9985491,26.9308897 22.2390989,27.1714395 22.2390989,27.4654448 C22.2390989,27.7594502 21.9985491,28 21.7045437,28" id="Fill-13" fill="#000000" mask="url(#mask-6)"></path>
                <path d="M20.9428026,28 C20.7075983,28 20.4937763,27.844979 20.4296296,27.6097747 L16.6503246,13.95189 C16.5701413,13.6685758 16.7358534,13.3745704 17.0191676,13.2943872 C17.3024819,13.2195494 17.5964872,13.3852616 17.6766705,13.6685758 L21.4559756,27.3264605 C21.5361588,27.6097747 21.3704467,27.9037801 21.0871325,27.9786178 C21.0390225,27.9946544 20.9909126,28 20.9428026,28" id="Fill-14" fill="#000000" mask="url(#mask-6)"></path>
                <path d="M2.5674685,18.4630011 L3.43879343,18.4630011 L2.77059947,8.61114929 C2.7224895,8.18350515 2.35899198,7.8574265 1.92600229,7.8574265 C1.67476136,7.8574265 1.43421153,7.96433753 1.27384498,8.1567774 C1.11347843,8.34921726 1.0386407,8.60045819 1.07605956,8.84635357 L2.5674685,18.4630011 Z M4.00542192,19.5321115 L2.1130966,19.5321115 C1.84581901,19.5321115 1.62130584,19.3396716 1.58388698,19.0777396 L0.0229858725,9.00672012 C-0.0625429553,8.45078274 0.0978235968,7.88949981 0.461321115,7.46185567 C0.830164185,7.03421153 1.35937381,6.78831615 1.92600229,6.78831615 C2.90423826,6.78831615 3.72745323,7.52600229 3.83436426,8.50423826 C3.83436426,8.52562047 4.53997709,18.9601375 4.53997709,18.9601375 C4.55066819,19.1098129 4.49721268,19.2541428 4.39564719,19.3610538 C4.29408171,19.4679649 4.15509737,19.5321115 4.00542192,19.5321115 L4.00542192,19.5321115 Z" id="Fill-15" fill="#000000" mask="url(#mask-6)"></path>
            </g>
        </g>
    </g>
</svg>