<?xml version="1.0" encoding="UTF-8"?>
<svg width="23.332697px" height="28px" viewBox="0 0 23.332697 28" version="1.1" xmlns="http://www.w3.org/2000/svg" xmlns:xlink="http://www.w3.org/1999/xlink">
    <title>quick-link-icon-4</title>
    <defs>
        <polygon id="path-1" points="0 0 23.332697 0 23.332697 28 0 28"></polygon>
    </defs>
    <g id="Page-1" stroke="none" stroke-width="1" fill="none" fill-rule="evenodd">
        <g id="assets" transform="translate(-551.8794, -914)">
            <g id="quick-link-icon-4" transform="translate(551.8794, 914)">
                <mask id="mask-2" fill="white">
                    <use xlink:href="#path-1"></use>
                </mask>
                <g id="Clip-2"></g>
                <path d="M11.6665394,9.9172553 C12.5103499,9.9172553 13.4171598,10.1005264 13.4171598,10.4995227 C13.4171598,10.7935201 12.6019854,11.5514223 11.6665394,12.1489623 C10.7310934,11.5514223 9.91591895,10.7954291 9.91591895,10.4995227 C9.91591895,10.1005264 10.824638,9.9172553 11.6665394,9.9172553 L11.6665394,9.9172553 Z M11.3725421,13.336406 C11.4622685,13.3898601 11.5653585,13.4165871 11.6665394,13.4165871 C11.7696294,13.4165871 11.8708103,13.3898601 11.9624458,13.336406 C12.5771675,12.9775002 14.5836038,11.7079663 14.5836038,10.4995227 C14.5836038,9.9745275 14.2991518,8.75081136 11.6665394,8.75081136 C9.03392696,8.75081136 8.749475,9.9745275 8.749475,10.4995227 C8.749475,11.7079663 10.7559113,12.9775002 11.3725421,13.336406 L11.3725421,13.336406 Z M12.2507159,23.9164917 L12.2507159,24.8042109 L12.2507159,25.3979327 L12.2507159,25.9897455 L12.2507159,27.4177326 C12.2507159,27.7384569 11.9891728,28 11.6665394,28 C11.343906,28 11.084272,27.7384569 11.084272,27.4177326 L11.084272,26.2035618 L11.084272,25.6098399 L11.084272,25.0180271 L11.084272,23.9164917 C11.084272,23.5957673 11.343906,23.3342242 11.6665394,23.3342242 C11.9891728,23.3342242 12.2507159,23.5957673 12.2507159,23.9164917 L12.2507159,23.9164917 Z M5.71595713,17.7807293 C5.54223143,17.5115499 5.6166853,17.150735 5.88586467,16.9751002 C5.88586467,16.9751002 5.88586467,16.9751002 5.88586467,16.9751002 C6.14931682,16.8013745 6.52158617,16.8815556 6.69149371,17.1392806 C6.77740202,17.2729157 6.8079472,17.4237325 6.77740202,17.5764584 C6.7430387,17.7330024 6.65522132,17.8609104 6.52731339,17.9506368 C6.52731339,17.9506368 6.52731339,17.9506368 6.52731339,17.9506368 C6.42804156,18.0136362 6.3173153,18.0422723 6.20658903,18.0422723 C6.00804538,18.0422723 5.82668339,17.9430005 5.71595713,17.7807293 L5.71595713,17.7807293 Z M15.8951373,18.2751793 L16.6186762,13.1951346 C17.0214907,13.958764 17.4758502,14.5314861 18.0485723,14.9973 L15.8951373,18.2751793 Z M9.86628303,3.50085908 C9.86628303,2.21414351 10.6509123,1.1679712 11.6169035,1.1679712 C12.5809856,1.1679712 13.3656149,2.21414351 13.3656149,3.50085908 C13.3656149,4.33512423 13.0353451,5.0662994 12.5408951,5.47865928 C12.2717157,5.70202089 11.9567186,5.83374697 11.6169035,5.83374697 C11.2885428,5.83374697 10.981182,5.70965718 10.7177298,5.49965909 C10.2099163,5.09111735 9.86628303,4.34848774 9.86628303,3.50085908 L9.86628303,3.50085908 Z M2.5488041,16.4329233 C2.36171489,16.293561 2.14598958,15.69793 2.15744402,15.1614804 C2.15744402,14.8178471 2.23380697,14.5314861 2.30444269,14.4093054 L5.17950746,8.44726866 C5.27687021,8.30027 5.44868683,8.16472578 5.66250307,8.04636321 C5.86677394,7.93563695 6.10731721,7.8382742 6.36122399,7.76382033 C6.74494777,7.65118499 7.15730766,7.58436741 7.50666812,7.58436741 L7.58875828,7.58436741 L9.66964846,7.00019091 L10.5478223,6.75392042 C10.8800011,6.91046445 11.2389069,7.00019091 11.6169035,7.00019091 C12.0063545,7.00019091 12.3767148,6.9066463 12.7165298,6.7405569 L13.629067,7.00019091 L15.5915946,7.56145853 L15.7500477,7.58436741 C16.0822265,7.57673112 16.5404042,7.66073036 16.9737639,7.79818365 C17.2181253,7.87645567 17.4529413,7.97190935 17.6533941,8.07690839 C17.8767557,8.19527095 18.0581177,8.32699703 18.1592986,8.46445032 L21.0114544,14.373033 L21.0229089,14.4093054 C21.0992718,14.5314861 21.1756348,14.8235743 21.1756348,15.1614804 C21.1870892,15.69793 20.9713639,16.293561 20.7785475,16.4386506 L20.0760084,17.2614613 L19.625467,17.7883656 L19.1749257,18.3152699 L16.6778575,21.2399705 C16.5671312,21.3392424 16.4258598,21.3965146 16.275043,21.3965146 C16.0822265,21.3965146 15.9142281,21.3086972 15.7958655,21.1521532 C15.7786838,21.1254261 15.7634112,21.09679 15.7500477,21.0681539 C15.7195025,20.9994273 15.70423,20.9249734 15.70423,20.8428832 C15.70423,20.7627022 15.7214116,20.6825211 15.7500477,20.6061581 C15.7844111,20.5145226 15.8378651,20.4286143 15.9065918,20.3579786 L18.585022,16.29547 L19.0126544,15.646385 L19.3257425,15.1729348 C19.3791966,15.0908446 19.4078327,15.0030272 19.417378,14.9113917 C19.4250143,14.8541195 19.4250143,14.7949382 19.4135599,14.7357569 C19.3944691,14.6536668 19.3601058,14.5792129 19.312379,14.5123953 C19.2703794,14.4551231 19.2188344,14.4035781 19.1558349,14.3615785 C18.924837,14.2107617 18.7243843,14.0503995 18.5430223,13.8785829 C18.1554804,13.5063136 17.8653012,13.074863 17.6018491,12.5555949 C17.3593967,12.0764175 17.1360351,11.5227862 16.8764011,10.8679739 C16.7771293,10.6236125 16.5251316,10.4708866 16.2635885,10.507159 C16.0001364,10.5357951 15.7901383,10.740066 15.7557749,11.0016091 L14.6599667,18.6665394 L8.67311206,18.6665394 L7.57730384,11.0016091 C7.54294052,10.740066 7.33294243,10.5357951 7.0752175,10.507159 C6.8079472,10.4708866 6.56167671,10.6178853 6.46240489,10.8622467 L6.42804156,10.9443369 C6.17222571,11.5590586 5.94504595,12.0993264 5.67586658,12.5918673 C5.42959609,13.0424087 5.14705321,13.4490414 4.77478387,13.8308561 C4.58769466,14.0217634 4.37960564,14.2050345 4.14097145,14.3844874 C4.08179017,14.4303052 4.03406333,14.4856683 3.99588186,14.5467587 C3.9347915,14.6479396 3.90806447,14.7643931 3.91379169,14.8808465 C3.91760984,14.9820274 3.94815502,15.0832083 4.0073363,15.1729348 L4.31851529,15.6482941 L4.43878692,15.8315652 C4.52469523,15.9613822 4.66214853,16.0453814 4.81105626,16.0759266 C4.95614585,16.1045627 5.11459896,16.0816538 5.24441596,15.9957455 L5.24441596,15.9957455 C5.37805111,15.9136553 5.46586849,15.7800202 5.4945046,15.6272943 C5.53077699,15.4764775 5.50023182,15.3180244 5.41241443,15.1901165 L5.26732484,14.9743911 C5.84577413,14.4665776 6.30013364,13.8843101 6.70294816,13.1435896 L7.51812256,18.8307197 C7.39785093,18.8249925 7.269943,18.8536286 7.16494396,18.9223553 C7.16494396,18.9223553 7.16303488,18.9223553 7.16303488,18.9242643 C6.89576458,19.09799 6.81940164,19.460714 7.00076363,19.7337115 L7.35012409,20.266343 L7.42648703,20.3579786 C7.49521368,20.4286143 7.54866774,20.5145226 7.58303106,20.6080672 C7.61166717,20.6825211 7.6307579,20.7627022 7.6307579,20.8428832 C7.6307579,20.9230643 7.61166717,20.9937001 7.58303106,21.0605176 C7.56966755,21.0929719 7.55439496,21.121608 7.5372133,21.1521532 C7.42075981,21.3086972 7.25085226,21.3965146 7.05803584,21.3965146 C6.90721903,21.3965146 6.76594758,21.3449696 6.66094854,21.2456978 L4.17915292,18.3343606 L3.72670248,17.8036381 L3.27425205,17.2729157 L2.60798538,16.4921046 L2.5488041,16.4329233 Z M7.58303106,25.5582949 C6.9740366,25.6251125 6.38413287,25.6671121 5.83431969,25.6671121 C3.67133935,25.6671121 2.19944364,25.3712057 1.43199607,25.1650258 C2.4189871,23.3055881 3.15970764,21.4652412 3.76488396,19.6458941 L5.78659285,22.0207816 L5.81522895,22.0494177 C6.14168053,22.3777784 6.59794911,22.5629585 7.05803584,22.5629585 L7.06376306,22.5629585 C7.2413069,22.5629585 7.41694166,22.5324133 7.58303106,22.4789593 L7.58303106,25.5582949 Z M17.5006682,24.1742166 C16.9432187,24.1742166 16.353315,24.2143071 15.7500477,24.2753975 L15.7500477,22.4789593 C15.9180462,22.5324133 16.09559,22.5629585 16.275043,22.5629585 C16.7351297,22.5629585 17.1913983,22.3777784 17.5121226,22.0494177 L19.5891946,19.6134399 C20.1600076,21.3220607 20.8071836,22.9791366 21.59754,24.5674858 C20.6830938,24.3708512 19.3181062,24.1742166 17.5006682,24.1742166 L17.5006682,24.1742166 Z M23.258434,25.2203889 C22.0977173,23.1394987 21.2214525,20.9097008 20.4769138,18.5729948 L21.6013582,17.255734 C22.0728993,16.7822838 22.322988,16.0778357 22.3420787,15.1614804 C22.3363515,14.6364851 22.2428069,14.2107617 22.0557177,13.8594922 L19.1921073,7.91081899 L19.1386533,7.82300161 C18.1936619,6.60883083 16.3743148,6.44083236 15.8435923,6.42365069 L13.783702,5.83374697 C14.2476068,5.21329806 14.5339679,4.39812365 14.5339679,3.50085908 C14.5339679,1.57078572 13.2243434,-0.000381814711 11.6169035,-0.000381814711 C10.0075545,-0.000381814711 8.69983909,1.57078572 8.69983909,3.50085908 C8.69983909,4.40766902 8.99192735,5.23429787 9.46537759,5.85665585 L7.49521368,6.41792347 C6.60940355,6.44655958 5.00578177,6.67373933 4.17724384,7.84591049 L1.27736111,13.8594922 C1.09027191,14.2107617 0.996727302,14.6364851 0.991000082,15.1614804 C1.01009082,16.0835629 1.26017945,16.7937382 1.73935691,17.2671885 L2.87334661,18.5997218 C2.18608013,20.7875201 1.31745166,22.9982273 0.074644776,25.2184798 C-0.00553631331,25.3635694 -0.0227179753,25.535386 0.0307360842,25.6919301 C0.0841901437,25.8484741 0.202552704,25.976382 0.355278588,26.0412905 C0.429732457,26.0718357 2.25480677,26.8335561 5.83431969,26.8335561 C6.39176917,26.8335561 6.97976382,26.7934655 7.58303106,26.7323752 L7.58303106,27.4177326 C7.58303106,27.7384569 7.84457414,28 8.16720757,28 C8.48793193,28 8.749475,27.7384569 8.749475,27.4177326 L8.749475,26.5891946 L8.749475,26.0012 L8.749475,25.4093872 L8.749475,21.2189707 C8.77811111,21.09679 8.79720184,20.9727002 8.79720184,20.8428832 C8.79720184,20.7111572 8.77811111,20.5813402 8.749475,20.4553413 L8.749475,19.8329833 L14.5836038,19.8329833 L14.5836038,20.4534322 C14.5549677,20.5794311 14.5358769,20.7092481 14.5358769,20.8428832 C14.5358769,20.9688821 14.5549677,21.0929719 14.5836038,21.2170617 L14.5836038,24.418578 L14.5836038,25.0065727 L14.5836038,25.5983855 L14.5836038,27.4177326 C14.5836038,27.7384569 14.8451469,28 15.1658712,28 C15.4885046,28 15.7500477,27.7384569 15.7500477,27.4177326 L15.7500477,25.4475687 C16.3609513,25.3826602 16.9489459,25.3406605 17.5006682,25.3406605 C20.8014564,25.3406605 22.4948046,26.0298361 22.5234407,26.0412905 C22.7506204,26.1367442 23.0178907,26.079472 23.1839801,25.8942919 C23.3500695,25.7091117 23.3806147,25.4380233 23.258434,25.2203889 L23.258434,25.2203889 Z" id="Fill-1" fill="#000000" mask="url(#mask-2)"></path>
            </g>
        </g>
    </g>
</svg>