<svg width="30" height="40" viewBox="0 0 30 40" fill="none" xmlns="http://www.w3.org/2000/svg">
<g id="_?&#235;&#141;&#137;&#236;&#148;&#160;??1" clip-path="url(#clip0_2125_5368)">
<g id="Group 28">
<path id="Fill 27" d="M2.8212 40C1.26087 40 0 38.7578 0 37.2205C0 35.955 0.86685 34.8447 2.11196 34.5264L5.13805 17.764C5.15381 17.6863 5.17746 17.6165 5.20898 17.5388C5.35871 17.0652 5.80789 16.7391 6.31224 16.7391H14.2715C14.7758 16.7391 15.225 17.0575 15.3826 17.5388C15.4142 17.6087 15.4378 17.6863 15.4536 17.764L19.1022 37.9503C19.2125 38.5714 18.7949 39.1693 18.1566 39.278C18.0856 39.2935 18.0226 39.2935 17.9517 39.2935C17.3843 39.2935 16.9036 38.8975 16.809 38.3463L14.1927 23.882H6.39893L4.40517 34.8991C5.69757 35.7609 6.03643 37.4845 5.16958 38.7578C4.64159 39.5264 3.76686 39.9845 2.82908 39.9845L2.8212 40ZM2.8212 35.528C1.87555 35.528 1.11114 36.2811 1.11114 37.2127C1.11114 38.1444 1.87555 38.8975 2.8212 38.8975C3.76686 38.8975 4.53126 38.1444 4.53126 37.2127C4.53126 36.2811 3.76686 35.528 2.8212 35.528ZM7.27366 19.0373L6.80871 21.5994H13.775L13.3101 19.0373H7.27366Z" fill="white"/>
<path id="Fill 43" d="M20.2925 37.4068V27.8261C20.2925 27.6708 20.3083 27.5233 20.3477 27.3758C20.3792 27.104 20.4659 26.8478 20.6077 26.6149L23.224 22.1584C23.1373 22.0341 23.0585 21.9022 22.9955 21.7702L18.6534 12.3602L16.6202 15.5435C16.5414 15.6677 16.4468 15.7686 16.3286 15.854C16.1237 16.0326 15.8558 16.1335 15.58 16.1335H9.01558C8.39302 16.1335 7.88867 15.6366 7.88867 15.0233C7.88867 14.4099 8.39302 13.913 9.01558 13.913H15.0047L18.2042 8.91303C18.8898 7.31365 20.7653 6.56054 22.3966 7.23601C23.1373 7.54657 23.7284 8.11334 24.0594 8.83539L28.5197 18.5015C29.0398 19.6351 28.8428 20.9705 27.9996 21.9022C27.9602 21.9876 27.9208 22.073 27.8735 22.1584L24.0988 28.6025C24.0988 28.6025 24.0751 28.6413 24.0672 28.6568V37.4146C24.0672 38.4394 23.224 39.2624 22.1917 39.2624C21.1594 39.2624 20.3161 38.4317 20.3161 37.4146L20.2925 37.4068ZM14.0985 3.618C14.0985 1.83228 15.5642 0.388184 17.3767 0.388184C19.1892 0.388184 20.655 1.83228 20.655 3.618C20.655 5.40371 19.1892 6.84781 17.3767 6.84781C15.5642 6.84781 14.0985 5.40371 14.0985 3.618Z" stroke="white"/>
</g>
</g>
<defs>
<clipPath id="clip0_2125_5368">
<rect width="29.1892" height="40" fill="white"/>
</clipPath>
</defs>
</svg>
