<?xml version="1.0" encoding="UTF-8"?>
<svg width="18px" height="18px" viewBox="0 0 18 18" version="1.1" xmlns="http://www.w3.org/2000/svg" xmlns:xlink="http://www.w3.org/1999/xlink">
    <title>Shape</title>
    <g id="confirm-main" stroke="none" stroke-width="1" fill="none" fill-rule="evenodd">
        <g id="confirm-main-scroll2-copy-3" transform="translate(-596.000000, -566.000000)" fill="#333333" fill-rule="nonzero">
            <path d="M605,566 C609.97025,566 614,570.02975 614,575 C614,579.97025 609.97025,584 605,584 C600.02975,584 596,579.97025 596,575 C596,570.02975 600.02975,566 605,566 Z M605.75,567.53825 L605.75,571.25 L604.25,571.25 L604.25,567.53825 C600.71225,567.89075 597.89075,570.71225 597.53825,574.25 L601.25,574.25 L601.25,575.75 L597.53825,575.75 C597.89075,579.28775 600.71225,582.10925 604.25,582.46175 L604.25,578.75 L605.75,578.75 L605.75,582.46175 C609.28775,582.10925 612.10925,579.28775 612.46175,575.75 L608.75,575.75 L608.75,574.25 L612.46175,574.25 C612.10925,570.71225 609.28775,567.8915 605.75,567.53825 Z" id="Shape"></path>
        </g>
    </g>
</svg>