<svg xmlns="http://www.w3.org/2000/svg" width="26.663" height="19.996" viewBox="0 0 26.663 19.996">
  <path id="Shape_Copy" data-name="Shape Copy" d="M16,20a1.666,1.666,0,1,1,1.666-1.666A1.668,1.668,0,0,1,16,20ZM8.437,20A1.666,1.666,0,1,1,10.1,18.334,1.668,1.668,0,0,1,8.437,20Zm9.122-4.443H7.159a5.27,5.27,0,0,1-2.775-1.809l-.033-.042L0,3.336H2.409L6.08,12.084a2.944,2.944,0,0,0,1.908,1.249H16.67A3.023,3.023,0,0,0,18.6,11.874l.017-.031,2.76-9.649.048-.072A5.215,5.215,0,0,1,24.307,0h2.355l-.825,2.221h-.6A2.812,2.812,0,0,0,23.269,3.7l-2.8,9.658-.006.009a5.347,5.347,0,0,1-2.908,2.194h0ZM10.827,10h0L6.665,6.041l1.55-1.594L10.8,6.872l5.736-5.758,1.58,1.564L10.828,10Z" transform="translate(0 -0.004)" fill="#fff"/>
</svg>
