<svg width="24" height="40" viewBox="0 0 24 40" fill="none" xmlns="http://www.w3.org/2000/svg">
<path id="Rectangle 4" d="M12 40H5.36706V24.6028H4.4417V36.8251C3.26318 36.8236 2.13343 36.352 1.30061 35.5137C0.467786 34.6754 -9.18423e-07 33.5392 0 32.3544L0 22.0465C0 20.0728 0.77994 18.1799 2.16824 16.7843C3.55654 15.3887 5.43948 14.6047 7.40284 14.6047H16.5972C18.5605 14.6047 20.4435 15.3887 21.8318 16.7843C23.2201 18.1799 24 20.0728 24 22.0465V32.3442C24.0001 32.9327 23.8849 33.5155 23.661 34.0592C23.437 34.603 23.1087 35.0971 22.6948 35.5133C22.2809 35.9295 21.7894 36.2596 21.2486 36.4849C20.7077 36.7101 20.128 36.826 19.5426 36.826V24.6028H18.6311V40H12ZM5.68353 6.34977C5.68353 5.0939 6.05398 3.86624 6.74805 2.82203C7.44211 1.77781 8.42861 0.963949 9.58279 0.48335C10.737 0.00275124 12.007 -0.122995 13.2323 0.122012C14.4576 0.367019 15.583 0.971776 16.4664 1.85981C17.3498 2.74784 17.9514 3.87926 18.1951 5.11099C18.4388 6.34273 18.3137 7.61945 17.8357 8.77972C17.3576 9.93999 16.548 10.9317 15.5092 11.6294C14.4705 12.3271 13.2493 12.6995 12 12.6995C10.3248 12.6995 8.71815 12.0305 7.53358 10.8397C6.34901 9.64892 5.68353 8.03383 5.68353 6.34977Z" fill="url(#paint0_linear_2133_7168)"/>
<defs>
<linearGradient id="paint0_linear_2133_7168" x1="12" y1="20" x2="12" y2="40" gradientUnits="userSpaceOnUse">
<stop stop-color="white"/>
<stop offset="1" stop-color="white" stop-opacity="0.549"/>
</linearGradient>
</defs>
</svg>
