<svg width="22" height="23" viewBox="0 0 22 23" fill="none" xmlns="http://www.w3.org/2000/svg">
<rect y="0.5" width="22" height="22" rx="11" fill="#FAF7F5"/>
<path fill-rule="evenodd" clip-rule="evenodd" d="M4 11.6523C4 11.1001 4.44772 10.6523 5 10.6523H17C17.5523 10.6523 18 11.1001 18 11.6523C18 12.2046 17.5523 12.6523 17 12.6523H5C4.44772 12.6523 4 12.2046 4 11.6523Z" fill="#FF8120"/>
<path fill-rule="evenodd" clip-rule="evenodd" d="M10.9062 4.5C11.4585 4.5 11.9062 4.94772 11.9062 5.5L11.9062 17.5C11.9062 18.0523 11.4585 18.5 10.9062 18.5C10.354 18.5 9.90625 18.0523 9.90625 17.5L9.90625 5.5C9.90625 4.94772 10.354 4.5 10.9062 4.5Z" fill="#FF8120"/>
</svg>
