<svg width="44" height="25" viewBox="0 0 44 25" fill="none" xmlns="http://www.w3.org/2000/svg">
<g id="_&#229;&#175;&#131;&#226;&#145;&#184;&#226;&#148;&#129;_&#239;&#167;&#143;&#226;&#145;&#164;&#235;&#177;&#182;" clip-path="url(#clip0_2125_5260)">
<path id="Vector" d="M0.0369138 8.61582C0.0492183 8.64653 0.0553706 8.67723 0.0738275 8.71408C0.0861321 8.7325 0.0984367 8.75092 0.110741 8.76935C0.129198 8.80005 0.141503 8.82461 0.166112 8.85532C0.178417 8.87374 0.196873 8.89217 0.21533 8.91673C0.239939 8.94129 0.258396 8.972 0.283006 8.99656C0.301462 9.01499 0.326072 9.03955 0.350681 9.05797C0.381442 9.08254 0.406051 9.1071 0.436813 9.13166C0.461422 9.15009 0.492183 9.17465 0.516793 9.19307C0.547554 9.21764 0.584468 9.2422 0.621382 9.26677C0.652143 9.28519 0.682905 9.30361 0.719818 9.32818C0.756732 9.35274 0.793646 9.3773 0.836712 9.40187C0.873626 9.42029 0.910539 9.43871 0.947453 9.46328C0.990519 9.48784 1.03359 9.51241 1.0828 9.53083C1.11972 9.54925 1.16278 9.56767 1.20585 9.5861C1.25507 9.61066 1.30429 9.62908 1.3535 9.65365C1.39657 9.67207 1.44579 9.6905 1.48886 9.70892C1.54423 9.73348 1.5996 9.7519 1.65497 9.77033C1.70419 9.78875 1.7534 9.80717 1.80262 9.8256C1.86415 9.84402 1.91952 9.86858 1.98104 9.88701C2.03641 9.90543 2.08563 9.92385 2.141 9.94228C2.20252 9.9607 2.2702 9.98526 2.33172 10.0037C2.38709 10.0221 2.44861 10.0405 2.50398 10.0528C2.57166 10.0712 2.63933 10.0897 2.70701 10.1142C2.76853 10.1326 2.83005 10.1449 2.89158 10.1634C2.96541 10.1818 3.03923 10.2002 3.10691 10.2186C3.17458 10.237 3.23611 10.2493 3.30378 10.2677C3.37761 10.2862 3.45759 10.3046 3.53757 10.323C3.60524 10.3353 3.67292 10.3537 3.74675 10.366C3.82673 10.3844 3.90671 10.3967 3.98669 10.4151C4.04206 10.4274 4.09128 10.4397 4.14665 10.4458C4.1651 10.4458 4.17741 10.4458 4.19586 10.452C4.36813 10.4888 4.54655 10.5195 4.73111 10.5502C4.73727 10.5502 4.74957 10.5502 4.75572 10.5502C4.93414 10.5809 5.11256 10.6116 5.29712 10.6362C5.31558 10.6362 5.33404 10.6362 5.3525 10.6485C5.41402 10.6608 5.48169 10.6669 5.54937 10.6731C5.62935 10.6853 5.70933 10.6976 5.79546 10.7099C5.88159 10.7222 5.97388 10.7345 6.06001 10.7467C6.14614 10.759 6.22612 10.7713 6.31225 10.7836C6.33071 10.7836 6.34917 10.7836 6.36147 10.7897C6.38608 10.7897 6.41069 10.7897 6.4353 10.7959C6.706 10.8266 6.9767 10.8634 7.25971 10.888C7.27201 10.888 7.29047 10.888 7.30893 10.888C7.30893 10.888 7.32123 10.888 7.32738 10.888C7.59193 10.9126 7.86263 10.9371 8.13333 10.9617C8.16409 10.9617 8.1887 10.9617 8.21946 10.9678C8.25023 10.9678 8.28099 10.9678 8.31175 10.974C8.57015 10.9924 8.82239 11.0169 9.08694 11.0292C9.09309 11.0292 9.09924 11.0292 9.11155 11.0292C9.3761 11.0477 9.64065 11.0599 9.91135 11.0784C9.94211 11.0784 9.97287 11.0784 9.99748 11.0784C10.0344 11.0784 10.0775 11.0784 10.1144 11.0784C10.342 11.0906 10.5696 11.0968 10.7973 11.1091C10.8342 11.1091 10.8711 11.1091 10.908 11.1091C10.9203 11.1091 10.9326 11.1091 10.9449 11.1091C11.2218 11.1152 11.4925 11.1275 11.7755 11.1336C11.8001 11.1336 11.8247 11.1336 11.8493 11.1336C11.8924 11.1336 11.9354 11.1336 11.9785 11.1336C12.2308 11.1336 12.4769 11.1398 12.7352 11.1398C12.7722 11.1398 12.8091 11.1398 12.8521 11.1398H12.9936C13.2705 11.1398 13.5473 11.1398 13.8242 11.1336H13.9226C13.9534 11.1336 13.9903 11.1336 14.0211 11.1336C14.3718 11.1336 14.7163 11.1213 15.0547 11.1091C15.067 11.1091 15.0793 11.1091 15.0916 11.1091C15.1531 11.1091 15.2085 11.1091 15.2638 11.1029C15.4176 11.1029 15.5776 11.0906 15.7314 11.0845C15.8175 11.0845 15.9037 11.0784 15.9898 11.0722C16.1313 11.0661 16.2728 11.0599 16.4143 11.0477C16.4574 11.0477 16.5005 11.0477 16.5435 11.0415C16.5866 11.0415 16.6235 11.0415 16.6604 11.0354C16.845 11.0231 17.0295 11.0108 17.208 10.9985C17.2695 10.9985 17.331 10.9924 17.3925 10.9862C17.6263 10.9678 17.8601 10.9494 18.0939 10.931C18.137 10.931 18.1739 10.9248 18.2169 10.9187C18.4077 10.9003 18.5922 10.8818 18.7768 10.8634C18.8445 10.8573 18.9122 10.8511 18.986 10.8389C19.1521 10.8204 19.312 10.802 19.4782 10.7836C19.5151 10.7836 19.5581 10.7713 19.5951 10.7713C19.6258 10.7713 19.6504 10.7652 19.6812 10.759C19.7304 10.759 19.7735 10.7467 19.8227 10.7406C19.8781 10.7345 19.9334 10.7283 19.9826 10.7222C20.0196 10.7222 20.0503 10.7099 20.0872 10.7099C20.241 10.6853 20.3949 10.6669 20.5425 10.6423C20.5979 10.6362 20.6532 10.6239 20.7086 10.6178C20.8317 10.5994 20.9486 10.5748 21.0716 10.5564C21.6561 7.46745 23.4464 4.79612 25.9442 3.0705C25.249 0.0859739 14.2733 0 12.9813 0C11.6894 0 0 0.092115 0 3.39597C0 3.46966 0.0123046 3.53721 0.0246092 3.60477C0.0246092 3.60477 0.0246092 3.59862 0.0246092 3.59248C0.0123046 3.54336 0.00615229 3.49423 0.00615229 3.4451V8.42545C0.00615229 8.47458 0.0123046 8.52371 0.0246092 8.57283C0.0246092 8.59126 0.0369138 8.60354 0.0430661 8.62196L0.0369138 8.61582ZM12.9813 1.6028C20.0872 1.6028 23.8032 2.80644 24.3877 3.38983C23.8032 3.97937 20.0872 5.183 12.9813 5.183C5.87544 5.183 2.15946 3.98551 1.57499 3.39597C2.15946 2.80644 5.87544 1.60894 12.9813 1.60894V1.6028Z" fill="white"/>
<path id="Vector_2" d="M0.0367184 15.5306C0.049023 15.5613 0.0551753 15.592 0.0736322 15.6227C0.0859368 15.6411 0.0982414 15.6595 0.110546 15.678C0.129003 15.7087 0.141307 15.7332 0.165917 15.7639C0.178221 15.7824 0.196678 15.8008 0.215135 15.8253C0.239744 15.8499 0.258201 15.8806 0.28281 15.9052C0.301267 15.9236 0.325876 15.942 0.350485 15.9666C0.381247 15.9911 0.405856 16.0157 0.436618 16.0403C0.461227 16.0587 0.491988 16.0833 0.516597 16.1017C0.547359 16.1263 0.584273 16.1508 0.621186 16.1754C0.651948 16.1938 0.682709 16.2122 0.719623 16.2368C0.756537 16.2614 0.793451 16.2859 0.836517 16.3043C0.87343 16.3228 0.910344 16.3412 0.947258 16.3657C0.990324 16.3903 1.03339 16.4149 1.08261 16.4333C1.11952 16.4517 1.16259 16.4701 1.20565 16.4886C1.25487 16.5131 1.30409 16.5316 1.35331 16.5561C1.39638 16.5745 1.44559 16.593 1.48866 16.6114C1.54403 16.636 1.5994 16.6544 1.65477 16.6789C1.70399 16.6974 1.75321 16.7158 1.80243 16.7342C1.86395 16.7526 1.91932 16.7772 1.98084 16.7956C2.03621 16.814 2.08543 16.8325 2.1408 16.8509C2.20233 16.8693 2.27 16.8877 2.33152 16.9123C2.38689 16.9307 2.44842 16.9491 2.50379 16.9614C2.57146 16.9798 2.63914 16.9983 2.70681 17.0167C2.76834 17.0351 2.82986 17.0474 2.89138 17.0658C2.96521 17.0842 3.03904 17.1027 3.10671 17.1211C3.17439 17.1395 3.23591 17.1518 3.30359 17.1702C3.37741 17.1886 3.45739 17.2071 3.53737 17.2255C3.60505 17.2378 3.67272 17.2562 3.74655 17.2746C3.82653 17.293 3.90651 17.3053 3.98649 17.3237C4.04186 17.336 4.09108 17.3483 4.14645 17.3545C4.16491 17.3545 4.17721 17.3606 4.19567 17.3667C4.36793 17.4036 4.54635 17.4343 4.73092 17.465C4.73707 17.465 4.74938 17.465 4.75553 17.465C4.93394 17.4957 5.11236 17.5264 5.29693 17.551C5.31539 17.551 5.33384 17.5571 5.3523 17.5571C5.41382 17.5694 5.4815 17.5755 5.54917 17.5878C5.62915 17.6001 5.70913 17.6124 5.79527 17.6247C5.8814 17.6369 5.97368 17.6492 6.05981 17.6615C6.14595 17.6738 6.22593 17.6861 6.31206 17.6983C6.33052 17.6983 6.34897 17.6983 6.36128 17.7045C6.38589 17.7045 6.4105 17.7045 6.4351 17.7106C6.70581 17.7413 6.97651 17.7782 7.25951 17.8027C7.27182 17.8027 7.29027 17.8027 7.30873 17.8027C7.30873 17.8027 7.32103 17.8027 7.32719 17.8027C7.59174 17.8273 7.86244 17.8519 8.13314 17.8764C8.1639 17.8764 8.18851 17.8764 8.21927 17.8826C8.25003 17.8826 8.28079 17.8826 8.31155 17.8887C8.56995 17.9071 8.8222 17.9317 9.08674 17.944C9.0929 17.944 9.09905 17.944 9.11135 17.944C9.3759 17.9624 9.64045 17.9747 9.91115 17.9931C9.94191 17.9931 9.97267 17.9931 9.99728 17.9931C10.0342 17.9931 10.0773 17.9931 10.1142 17.9931C10.3418 18.0054 10.5694 18.0115 10.7971 18.0238C10.834 18.0238 10.8709 18.0238 10.9078 18.0238C10.9201 18.0238 10.9324 18.0238 10.9447 18.0238C11.2216 18.03 11.4923 18.0422 11.7753 18.0484C11.7999 18.0484 11.8245 18.0484 11.8491 18.0484C11.8922 18.0484 11.9353 18.0484 11.9783 18.0484C12.2306 18.0484 12.4767 18.0545 12.7351 18.0545C12.772 18.0545 12.8089 18.0545 12.8519 18.0545H12.9935C13.2703 18.0545 13.5472 18.0545 13.824 18.0545C13.8548 18.0545 13.8917 18.0545 13.9224 18.0545C13.9532 18.0545 13.9901 18.0545 14.0209 18.0545C14.3716 18.0545 14.7161 18.0422 15.0545 18.03C15.0668 18.03 15.0791 18.03 15.0914 18.03C15.1529 18.03 15.2083 18.03 15.2636 18.0238C15.4175 18.0238 15.5774 18.0115 15.7312 18.0054C15.8174 18.0054 15.9035 17.9993 15.9896 17.9931C16.1311 17.987 16.2726 17.9808 16.4141 17.9686C16.4572 17.9686 16.5003 17.9686 16.5433 17.9624C16.5864 17.9624 16.6233 17.9624 16.6602 17.9563C16.8448 17.944 17.0294 17.9317 17.2078 17.9194C17.2693 17.9194 17.3308 17.9133 17.3923 17.9071C17.6261 17.8887 17.8599 17.8703 18.0937 17.8519C18.1368 17.8519 18.1737 17.8457 18.2167 17.8396C18.4075 17.8212 18.592 17.8027 18.7766 17.7843C18.8443 17.7782 18.912 17.772 18.9858 17.7598C19.1519 17.7413 19.3119 17.7229 19.478 17.7045C19.5149 17.7045 19.5579 17.6983 19.5949 17.6922C19.6256 17.6922 19.6502 17.6861 19.681 17.6799C19.7302 17.6738 19.7733 17.6676 19.8225 17.6615C19.8779 17.6554 19.9332 17.6492 19.9825 17.6431C20.0194 17.6431 20.0501 17.6308 20.087 17.6247C20.2409 17.6062 20.3947 17.5817 20.5423 17.5571C20.5977 17.551 20.6531 17.5387 20.7084 17.5325C20.9053 17.5018 21.1022 17.4711 21.2929 17.4343C21.3237 17.4343 21.3544 17.422 21.3852 17.4159C21.5267 17.3913 21.6682 17.3606 21.8097 17.336C21.2068 15.9236 20.8684 14.3638 20.8684 12.7303C20.8684 12.6627 20.8684 12.589 20.8684 12.5215C20.813 12.5276 20.7576 12.5399 20.7023 12.546C20.6469 12.5522 20.5977 12.5645 20.5423 12.5706C20.3885 12.5952 20.2409 12.6136 20.087 12.6382C19.9948 12.6504 19.9086 12.6627 19.8102 12.675C19.7671 12.675 19.7302 12.6873 19.6871 12.6934C19.6133 12.7057 19.5333 12.7119 19.4595 12.7241C19.3057 12.7426 19.1519 12.761 18.9919 12.7794C18.9181 12.7855 18.8443 12.7978 18.7705 12.804C18.592 12.8224 18.4075 12.8408 18.2229 12.8592C18.1798 12.8592 18.1368 12.8654 18.0937 12.8715C17.8661 12.8899 17.6323 12.9145 17.3923 12.9329C17.3308 12.9329 17.2693 12.9391 17.2139 12.9452C17.0294 12.9575 16.8509 12.9698 16.6602 12.9821C16.5802 12.9821 16.5003 12.9943 16.4141 12.9943C16.2726 13.0005 16.1311 13.0066 15.9896 13.0189C15.9035 13.0189 15.8174 13.025 15.7312 13.0312C15.5774 13.0373 15.4175 13.0435 15.2636 13.0496C15.196 13.0496 15.1221 13.0496 15.0545 13.0558C14.7161 13.068 14.3716 13.0742 14.0209 13.0803C13.9532 13.0803 13.8917 13.0803 13.824 13.0803C13.5472 13.0803 13.2765 13.0803 12.9935 13.0803C12.9012 13.0803 12.8089 13.0803 12.7166 13.0803C12.4705 13.0803 12.2244 13.0803 11.9845 13.0742C11.9168 13.0742 11.8491 13.0742 11.7814 13.0742C11.5046 13.0742 11.2277 13.0619 10.9509 13.0496C10.9017 13.0496 10.8525 13.0496 10.8032 13.0496C10.5818 13.0435 10.3541 13.0312 10.1388 13.0189C10.065 13.0189 9.98498 13.0128 9.91115 13.0066C9.6466 12.9943 9.38821 12.9759 9.12981 12.9636C9.11135 12.9636 9.08674 12.9636 9.06829 12.9636C8.81604 12.9452 8.5761 12.9268 8.33001 12.9084C8.26234 12.9084 8.19466 12.8961 8.12699 12.8899C7.85628 12.8654 7.59174 12.8408 7.32719 12.8163C7.30258 12.8163 7.28412 12.8163 7.26566 12.8101C6.98266 12.7794 6.71196 12.7487 6.44126 12.718C6.39819 12.718 6.35512 12.7119 6.31206 12.6996C6.23208 12.6873 6.1521 12.6812 6.07212 12.6689C5.97983 12.6566 5.8814 12.6443 5.78911 12.632C5.71529 12.6197 5.64146 12.6075 5.56763 12.6013C5.47535 12.589 5.38306 12.5768 5.29078 12.5583C5.11236 12.5276 4.93394 12.5031 4.76168 12.4724C4.75553 12.4724 4.74322 12.4724 4.73707 12.4724C4.5525 12.4417 4.37409 12.4048 4.20182 12.3741C4.13415 12.3618 4.06032 12.3434 3.99264 12.3311C3.91266 12.3127 3.82653 12.3004 3.74655 12.282C3.67888 12.2697 3.6112 12.2513 3.54353 12.239C3.46355 12.2206 3.38357 12.2022 3.30974 12.1837C3.24206 12.1653 3.18054 12.153 3.11902 12.1346C3.04519 12.1162 2.97136 12.0978 2.89754 12.0793C2.83601 12.0609 2.77449 12.0486 2.71297 12.0302C2.64529 12.0118 2.57146 11.9934 2.50379 11.9749C2.44842 11.9565 2.38689 11.9381 2.33152 11.9258C2.26385 11.9074 2.20233 11.8828 2.13465 11.8644C2.07928 11.846 2.03006 11.8276 1.97469 11.8153C1.91317 11.7968 1.85165 11.7723 1.79627 11.7539C1.74706 11.7354 1.69784 11.717 1.64862 11.6986C1.59325 11.674 1.53788 11.6556 1.48251 11.631C1.43944 11.6126 1.39022 11.5942 1.34716 11.5758C1.29179 11.5512 1.24257 11.5328 1.19335 11.5082C1.15028 11.4898 1.11337 11.4714 1.0703 11.453C1.02109 11.4284 0.978019 11.41 0.934953 11.3854C0.89804 11.367 0.861126 11.3486 0.824212 11.324C0.781146 11.2994 0.744232 11.2749 0.701166 11.2503C0.670405 11.2319 0.639643 11.2135 0.608882 11.1889C0.571968 11.1643 0.541207 11.1398 0.504293 11.1152C0.479684 11.0968 0.448922 11.0722 0.424313 11.0538C0.393551 11.0292 0.36279 11.0047 0.338181 10.9801C0.313572 10.9617 0.295115 10.9371 0.270506 10.9187C0.245896 10.8941 0.221287 10.8696 0.20283 10.8389C0.184373 10.8204 0.165917 10.802 0.153612 10.7774C0.135155 10.7467 0.116698 10.7222 0.0982413 10.6915C0.0859368 10.673 0.0736322 10.6546 0.0674799 10.6362C0.0551753 10.6055 0.0428707 10.5748 0.0305661 10.5379C0.0305661 10.5195 0.0182615 10.5072 0.0121092 10.4888C-0.000195362 10.4397 -0.00634766 10.3906 -0.00634766 10.3414V15.3218C-0.00634766 15.3709 -0.000195362 15.42 0.0121092 15.4692C0.0121092 15.4876 0.0244138 15.4999 0.0305661 15.5183L0.0367184 15.5306Z" fill="white"/>
<path id="Vector_3" d="M22.7266 19.0924C22.6651 19.1046 22.6097 19.1231 22.5482 19.1353C22.4989 19.1476 22.4497 19.1538 22.4005 19.166C22.2713 19.1968 22.1483 19.2213 22.0129 19.2459C21.9575 19.2582 21.9022 19.2704 21.8468 19.2766C21.693 19.3073 21.5392 19.338 21.3792 19.3626C21.3485 19.3626 21.3239 19.3748 21.2931 19.381C21.1024 19.4117 20.9055 19.4485 20.7086 19.4792C20.6533 19.4854 20.604 19.4977 20.5487 19.5038C20.3949 19.5284 20.2472 19.5468 20.0934 19.5714C20.0011 19.5836 19.915 19.5959 19.8165 19.6082C19.7735 19.6082 19.7366 19.6205 19.6935 19.6266C19.6197 19.6389 19.5397 19.645 19.4659 19.6573C19.3121 19.6758 19.1582 19.6942 18.9983 19.7126C18.9245 19.7187 18.8506 19.731 18.7768 19.7372C18.5984 19.7556 18.4138 19.774 18.2292 19.7924C18.1862 19.7924 18.1431 19.7986 18.1 19.8047C17.8724 19.8231 17.6386 19.8477 17.3987 19.86C17.3372 19.86 17.2756 19.8661 17.2203 19.8723C17.0357 19.8845 16.8573 19.8968 16.6666 19.9091C16.5866 19.9091 16.5066 19.9214 16.4205 19.9214C16.279 19.9275 16.1375 19.9398 15.996 19.946C15.9098 19.946 15.8237 19.9521 15.7376 19.9582C15.5838 19.9644 15.4238 19.9705 15.27 19.9767C15.2023 19.9767 15.1285 19.9767 15.0608 19.9828C14.7224 19.9951 14.3779 20.0012 14.0272 20.0074C13.9596 20.0074 13.898 20.0074 13.8304 20.0074C13.5535 20.0074 13.2828 20.0135 12.9998 20.0135C12.9075 20.0135 12.8152 20.0135 12.7229 20.0135C12.4769 20.0135 12.2308 20.0135 11.9908 20.0074C11.9231 20.0074 11.8555 20.0074 11.7878 20.0074C11.5109 20.0074 11.2341 19.9951 10.9572 19.9828C10.908 19.9828 10.8588 19.9828 10.8096 19.9828C10.5881 19.9767 10.3605 19.9644 10.1451 19.9521C10.0713 19.9521 9.99133 19.946 9.9175 19.9398C9.65295 19.9275 9.39455 19.9091 9.13616 19.8907C9.1177 19.8907 9.09309 19.8907 9.07463 19.8907C8.82239 19.8723 8.58245 19.8538 8.33636 19.8354C8.26868 19.8354 8.20101 19.8231 8.13333 19.817C7.86263 19.7924 7.59808 19.7679 7.33353 19.7433C7.30893 19.7433 7.29047 19.7433 7.27201 19.7433C6.98901 19.7126 6.71831 19.6819 6.4476 19.6512C6.40454 19.6512 6.36147 19.6389 6.31841 19.6328C6.23843 19.6205 6.15845 19.6082 6.07847 19.6021C5.98618 19.5898 5.88775 19.5775 5.79546 19.5652C5.72163 19.5529 5.64781 19.5468 5.57398 19.5345C5.48169 19.5222 5.38941 19.5099 5.29713 19.4915C5.11871 19.4608 4.94029 19.4363 4.76803 19.4055C4.76188 19.4055 4.74957 19.4055 4.74342 19.4055C4.55885 19.3748 4.38043 19.338 4.20817 19.3073C4.14049 19.295 4.06667 19.2766 3.99899 19.2643C3.91901 19.2459 3.83288 19.2336 3.7529 19.2152C3.68522 19.1968 3.61755 19.1845 3.54987 19.1722C3.46989 19.1538 3.38991 19.1353 3.31609 19.1169C3.24841 19.1046 3.18689 19.0862 3.12537 19.0678C3.05154 19.0494 2.97771 19.0309 2.90388 19.0125C2.84236 18.9941 2.78084 18.9818 2.71931 18.9634C2.65164 18.945 2.57781 18.9265 2.51014 18.9081C2.45477 18.8897 2.39324 18.8713 2.33787 18.859C2.2702 18.8406 2.20867 18.816 2.141 18.7976C2.08563 18.7792 2.03641 18.7607 1.98104 18.7423C1.91952 18.7239 1.85799 18.6993 1.80262 18.6809C1.7534 18.6625 1.70419 18.6441 1.65497 18.6256C1.5996 18.6011 1.54423 18.5827 1.48886 18.5581C1.44579 18.5397 1.39657 18.5212 1.3535 18.5028C1.29813 18.4783 1.24892 18.4598 1.1997 18.4353C1.15663 18.4168 1.11972 18.3984 1.07665 18.38C1.02743 18.3554 0.984367 18.3309 0.941301 18.3124C0.904387 18.294 0.867473 18.2756 0.83056 18.2572C0.787494 18.2326 0.75058 18.2081 0.707514 18.1835C0.676752 18.1651 0.645991 18.1466 0.615229 18.1221C0.578316 18.0975 0.547554 18.073 0.51064 18.0484C0.486031 18.03 0.45527 18.0115 0.430661 17.987C0.399899 17.9624 0.369138 17.9378 0.344528 17.9133C0.319919 17.8949 0.301462 17.8703 0.276853 17.8519C0.252244 17.8273 0.227635 17.7966 0.209178 17.772C0.190721 17.7536 0.172264 17.7352 0.15996 17.7106C0.141503 17.6799 0.123046 17.6554 0.104589 17.6247C0.0922844 17.6062 0.0799798 17.5878 0.0738275 17.5694C0.0615229 17.5387 0.0492184 17.508 0.0369138 17.4773C0.0369138 17.4589 0.0246092 17.4466 0.0184569 17.4281C0.00615229 17.379 0 17.3299 0 17.2808V22.2611C0 22.3102 0.00615229 22.3594 0.0184569 22.4085C0.0184569 22.4269 0.0307615 22.4392 0.0369138 22.4576C0.0492184 22.4883 0.0553706 22.519 0.0738275 22.5559C0.0861321 22.5743 0.0984367 22.5927 0.110741 22.6111C0.129198 22.6419 0.141503 22.6664 0.166112 22.6971C0.178417 22.7155 0.196873 22.734 0.21533 22.7585C0.239939 22.7831 0.258396 22.8138 0.283006 22.8384C0.301462 22.8568 0.326072 22.8814 0.350681 22.8998C0.381442 22.9243 0.406051 22.9489 0.436813 22.9735C0.461422 22.9919 0.492184 23.0165 0.516793 23.0349C0.547554 23.0594 0.584468 23.084 0.621382 23.1086C0.652143 23.127 0.682905 23.1516 0.719818 23.17C0.756732 23.1945 0.793646 23.2191 0.836712 23.2437C0.873626 23.2621 0.91054 23.2867 0.947453 23.3051C0.990519 23.3296 1.03359 23.3542 1.0828 23.3726C1.11972 23.3911 1.16278 23.4095 1.20585 23.4279C1.25507 23.4525 1.30429 23.4709 1.3535 23.4955C1.39657 23.5139 1.44579 23.5323 1.48886 23.5507C1.54423 23.5753 1.5996 23.5937 1.65497 23.6183C1.70419 23.6367 1.7534 23.6551 1.80262 23.6735C1.86415 23.692 1.91952 23.7165 1.98104 23.735C2.03641 23.7534 2.08563 23.7718 2.141 23.7902C2.20252 23.8086 2.2702 23.8332 2.33172 23.8516C2.38709 23.8701 2.44861 23.8885 2.50398 23.9069C2.57166 23.9253 2.63933 23.9437 2.70701 23.9622C2.76853 23.9806 2.83006 23.9929 2.89158 24.0113C2.96541 24.0297 3.03923 24.0481 3.10691 24.0666C3.17458 24.085 3.23611 24.0973 3.30378 24.1157C3.37761 24.1341 3.45759 24.1525 3.53757 24.171C3.60524 24.1832 3.67292 24.2017 3.74675 24.2201C3.82673 24.2385 3.90671 24.2508 3.98669 24.2692C4.04206 24.2815 4.09128 24.2938 4.14665 24.2999C4.1651 24.2999 4.17741 24.2999 4.19586 24.3061C4.36813 24.3429 4.54655 24.3736 4.73111 24.4043C4.73727 24.4043 4.74957 24.4043 4.75572 24.4043C4.93414 24.435 5.11256 24.4657 5.29713 24.4903C5.31558 24.4903 5.33404 24.4903 5.3525 24.4964C5.41402 24.5087 5.48169 24.5149 5.54937 24.5271C5.62935 24.5394 5.70933 24.5517 5.79546 24.564C5.88159 24.5763 5.97388 24.5886 6.06001 24.6008C6.14614 24.6131 6.22612 24.6254 6.31225 24.6315C6.33071 24.6315 6.34917 24.6315 6.36147 24.6377C6.38608 24.6377 6.41069 24.6377 6.4353 24.6438C6.706 24.6745 6.9767 24.7114 7.25971 24.7359C7.27201 24.7359 7.29047 24.7359 7.30893 24.7359C7.30893 24.7359 7.32123 24.7359 7.32738 24.7359C7.59193 24.7605 7.86263 24.7851 8.13333 24.8096C8.16409 24.8096 8.1887 24.8096 8.21947 24.8158C8.25023 24.8158 8.28099 24.8158 8.31175 24.8219C8.57015 24.8403 8.82239 24.8649 9.08694 24.8772C9.09309 24.8772 9.09924 24.8772 9.11155 24.8772C9.3761 24.8956 9.64065 24.9079 9.91135 24.9263C9.94211 24.9263 9.97287 24.9263 9.99748 24.9263C10.0344 24.9263 10.0775 24.9263 10.1144 24.9263C10.342 24.9386 10.5696 24.9447 10.7973 24.957C10.8342 24.957 10.8711 24.957 10.908 24.957C10.9203 24.957 10.9326 24.957 10.9449 24.957C11.2218 24.9631 11.4925 24.9754 11.7755 24.9816C11.8001 24.9816 11.8247 24.9816 11.8493 24.9816C11.8924 24.9816 11.9355 24.9816 11.9785 24.9816C12.2308 24.9816 12.4769 24.9816 12.7352 24.9877C12.7722 24.9877 12.8091 24.9877 12.8521 24.9877C12.9014 24.9877 12.9506 24.9877 12.9936 24.9877C13.2705 24.9877 13.5474 24.9877 13.8242 24.9816H13.9226C13.9534 24.9816 13.9903 24.9816 14.0211 24.9816C14.3718 24.9816 14.7163 24.9693 15.0547 24.957C15.067 24.957 15.0793 24.957 15.0916 24.957C15.1531 24.957 15.2085 24.957 15.2638 24.9509C15.4176 24.9509 15.5776 24.9386 15.7314 24.9324C15.8175 24.9324 15.9037 24.9263 15.9898 24.9202C16.1313 24.914 16.2728 24.9079 16.4143 24.8956C16.4574 24.8956 16.5005 24.8956 16.5435 24.8956C16.5866 24.8956 16.6235 24.8956 16.6604 24.8895C16.845 24.8772 17.0296 24.8649 17.208 24.8526C17.2695 24.8526 17.331 24.8465 17.3925 24.8403C17.6263 24.8219 17.8601 24.8035 18.0939 24.7851C18.137 24.7851 18.1739 24.7789 18.2169 24.7728C18.4077 24.7544 18.5922 24.7359 18.7768 24.7175C18.8445 24.7114 18.9122 24.6991 18.986 24.6929C19.1521 24.6745 19.3121 24.6561 19.4782 24.6377C19.5151 24.6377 19.5581 24.6315 19.5951 24.6254C19.6258 24.6254 19.6504 24.6193 19.6812 24.6131C19.7304 24.6131 19.7735 24.6008 19.8227 24.5947C19.8781 24.5885 19.9334 24.5824 19.9827 24.5763C20.0196 24.5763 20.0503 24.564 20.0872 24.564C20.241 24.5394 20.3949 24.521 20.5425 24.4964C20.5979 24.4903 20.6533 24.478 20.7086 24.4719C20.9055 24.4412 21.1024 24.4105 21.2931 24.3736C21.3239 24.3736 21.3546 24.3613 21.3854 24.3552C21.5453 24.3245 21.6991 24.2999 21.8529 24.2692C21.9083 24.2569 21.9637 24.2447 22.0191 24.2385C22.1483 24.2139 22.2775 24.1832 22.4005 24.1587C22.4313 24.1525 22.4682 24.1464 22.5051 24.1341C22.5236 24.1341 22.5359 24.128 22.5543 24.1218C22.702 24.0911 22.8435 24.0543 22.985 24.0174C22.9973 24.0174 23.0096 24.0174 23.028 24.0052C23.1818 23.9683 23.3233 23.9253 23.4648 23.8823C23.4772 23.8823 23.4895 23.8823 23.5018 23.8701C23.551 23.8578 23.6002 23.8393 23.6494 23.8271C23.7048 23.8086 23.7602 23.7964 23.8155 23.7779C23.8771 23.7595 23.9386 23.7349 24.0001 23.7165C24.0493 23.6981 24.0985 23.6858 24.1478 23.6674C24.1601 23.6674 24.1662 23.6613 24.1785 23.6551C24.2585 23.6244 24.3323 23.5998 24.4062 23.5691C24.4185 23.5691 24.4308 23.563 24.4369 23.5569C24.523 23.5262 24.6092 23.4893 24.6892 23.4525C24.6953 23.4525 24.7015 23.4525 24.7076 23.4463C24.7261 23.4402 24.7445 23.4279 24.763 23.4218C24.8245 23.3911 24.886 23.3665 24.9476 23.3358C24.9722 23.3235 24.9968 23.3112 25.0214 23.2989C25.046 23.2867 25.0706 23.2744 25.0891 23.2621C25.1198 23.2437 25.1444 23.2314 25.1752 23.213C25.1936 23.2007 25.2121 23.1945 25.2306 23.1823C25.2921 23.1454 25.3536 23.1086 25.409 23.0717C25.409 23.0717 25.409 23.0717 25.4151 23.0717C25.4213 23.0717 25.4274 23.0656 25.4336 23.0594C25.4828 23.0226 25.532 22.9919 25.5751 22.955C25.5874 22.9428 25.5997 22.9305 25.6182 22.9243C25.6305 22.9121 25.6489 22.8998 25.6612 22.8936C25.6858 22.8691 25.7043 22.8506 25.7289 22.8261C25.735 22.8199 25.7474 22.8138 25.7535 22.8015C25.7843 22.7647 25.815 22.7278 25.8458 22.6971C25.8458 22.6971 25.8519 22.6848 25.8581 22.6848C25.8642 22.6726 25.8704 22.6664 25.8766 22.6541C25.9012 22.6234 25.9196 22.5927 25.9319 22.5559C25.9319 22.5436 25.9442 22.5313 25.9504 22.519C25.9504 22.5129 25.9565 22.5006 25.9627 22.4945C25.9688 22.476 25.975 22.4576 25.9811 22.4392C24.6953 21.5488 23.594 20.4127 22.745 19.0985L22.7266 19.0924Z" fill="white"/>
<path id="Vector_4" d="M33.2471 22.5128C38.5545 22.5128 42.857 18.2183 42.857 12.9206C42.857 7.62296 38.5545 3.32837 33.2471 3.32837C27.9397 3.32837 23.6372 7.62296 23.6372 12.9206C23.6372 18.2183 27.9397 22.5128 33.2471 22.5128Z" stroke="white" stroke-miterlimit="10"/>
<path id="Vector_5" d="M40.0021 11.8828H37.7689L38.3472 9.38342H36.7107L36.1816 11.8828H34.8588L34.262 9.38342H32.6686L32.078 11.8828H30.7675L30.2446 9.38342H28.5896L29.1556 11.8828H26.7686V13.0987H29.4263L30.5338 17.9747H32.1149L33.2408 13.0987H33.6899L34.7911 17.9747H36.3538L37.4797 13.0987H39.9898V11.8828H40.0021ZM31.4566 14.5173C31.4505 14.5541 31.4443 14.5848 31.4381 14.6156C31.432 14.6463 31.4258 14.677 31.4258 14.7015C31.4197 14.7322 31.4135 14.7568 31.4074 14.7814C31.4012 14.8059 31.3951 14.8305 31.3951 14.8612C31.3889 14.8428 31.3828 14.8182 31.3766 14.7998C31.3766 14.7814 31.3766 14.7568 31.3766 14.7261C31.3705 14.7077 31.3643 14.6831 31.3582 14.6585C31.3582 14.634 31.352 14.6094 31.3397 14.591L31.0259 13.0926H31.795L31.4566 14.5173ZM35.5909 14.6708L35.5602 14.7936L35.5294 14.6708L35.1541 13.0926H35.9293L35.5909 14.6708Z" fill="white"/>
</g>
<defs>
<clipPath id="clip0_2125_5260">
<rect width="43.4783" height="25" fill="white"/>
</clipPath>
</defs>
</svg>
