<svg width="35" height="29" viewBox="0 0 35 29" fill="none" xmlns="http://www.w3.org/2000/svg">
<g id="img-check-intro4 1" clip-path="url(#clip0_2133_7032)">
<path id="Shape" d="M32.0833 29H2.91667C2.14312 29 1.40125 28.6945 0.854272 28.1506C0.307291 27.6068 0 26.8691 0 26.1L0 8.7C0 7.93087 0.307291 7.19325 0.854272 6.64939C1.40125 6.10553 2.14312 5.8 2.91667 5.8H10.2083V2.9C10.2083 2.13087 10.5156 1.39325 11.0626 0.84939C11.6096 0.305535 12.3515 0 13.125 0L21.875 0C22.6485 0 23.3904 0.305535 23.9374 0.84939C24.4844 1.39325 24.7917 2.13087 24.7917 2.9V5.8H32.0833C32.8569 5.8 33.5987 6.10553 34.1457 6.64939C34.6927 7.19325 35 7.93087 35 8.7V26.1C35 26.8691 34.6927 27.6068 34.1457 28.1506C33.5987 28.6945 32.8569 29 32.0833 29ZM11.6667 15.95V18.85H16.0417V23.2H18.9583V18.85H23.3333V15.95H18.9583V11.6H16.0417V15.95H11.6667ZM13.8542 2.9C13.6607 2.90026 13.4752 2.97685 13.3385 3.11297C13.2018 3.24909 13.125 3.4336 13.125 3.62597V5.8H21.875V3.625C21.8747 3.4328 21.7978 3.24854 21.6611 3.11263C21.5245 2.97672 21.3391 2.90026 21.1458 2.9H13.8542Z" fill="url(#paint0_linear_2133_7032)"/>
</g>
<defs>
<linearGradient id="paint0_linear_2133_7032" x1="17.5" y1="14.5" x2="17.5" y2="35.583" gradientUnits="userSpaceOnUse">
<stop stop-color="white"/>
<stop offset="1" stop-color="white" stop-opacity="0.502"/>
</linearGradient>
<clipPath id="clip0_2133_7032">
<rect width="35" height="29" fill="white"/>
</clipPath>
</defs>
</svg>
