<svg width="37" height="36" viewBox="0 0 37 36" fill="none" xmlns="http://www.w3.org/2000/svg">
<g id="Group 3 Copy 10">
<rect id="Rectangle" x="0.6875" width="36" height="36" fill="#D8D8D8" fill-opacity="0.01"/>
<path id="Rectangle_2" d="M20.1687 29.5498C20.651 28.9185 20.9373 28.1295 20.9371 27.274L20.9348 20.0498H27.6875C28.9301 20.0498 29.9375 21.0572 29.9375 22.2998V27.2998C29.9375 28.5424 28.9301 29.5498 27.6875 29.5498H20.1687Z" stroke="#6E2A85" stroke-width="1.5"/>
<g id="Rectangle_3">
<mask id="mask0_209_697" style="mask-type:luminance" maskUnits="userSpaceOnUse" x="2" y="2" width="21" height="29">
<path id="Mask" fill-rule="evenodd" clip-rule="evenodd" d="M2.6875 2L11.6973 4.30464C11.6973 4.30464 7.50403 9.32313 9.87451 10.4914C11.1165 12.5925 13.0995 15.0511 16.5522 18.31C17.0399 18.7703 19.1838 17.7282 19.1838 17.7282L22.7751 14.2858L22.6875 31H2.6875V2Z" fill="white"/>
</mask>
<g mask="url(#mask0_209_697)">
<path id="Rectangle_4" d="M7.4375 14.2998C7.4375 13.0572 8.44486 12.0498 9.6875 12.0498H18.6875C19.9301 12.0498 20.9375 13.0572 20.9375 14.2998V27.2998C20.9375 28.5424 19.9301 29.5498 18.6875 29.5498H9.6875C8.44486 29.5498 7.4375 28.5424 7.4375 27.2998V14.2998Z" stroke="#6E2A85" stroke-width="1.5"/>
</g>
</g>
<g id="iconmonstr-heart-filled">
<path id="Path" d="M17.039 7.27791L17.6875 8.39433L18.336 7.27788C19.0621 6.02797 20.4635 5.56072 21.7139 5.82862C22.9341 6.09004 23.9375 7.03322 23.9375 8.62387C23.9375 9.65055 23.3322 10.8237 22.1593 12.2456C21.1205 13.5051 19.7365 14.8454 18.1943 16.3391C18.0271 16.501 17.8581 16.6647 17.6875 16.8302C17.5177 16.6655 17.3494 16.5025 17.183 16.3413C15.6454 14.852 14.2611 13.5111 13.2206 12.25C12.0456 10.8258 11.4375 9.64973 11.4375 8.62387C11.4375 7.0383 12.4393 6.08932 13.6581 5.82418C14.9045 5.55306 16.3056 6.01548 17.039 7.27791Z" stroke="#6E2A85" stroke-width="1.5"/>
</g>
<rect id="Rectangle_5" x="9.6875" y="19.2998" width="4" height="1.5" rx="0.75" fill="#6E2A85"/>
<rect id="Rectangle_6" x="14.6875" y="19.2998" width="4" height="1.5" rx="0.75" fill="#6E2A85"/>
<rect id="Rectangle_7" x="9.6875" y="22.2998" width="4" height="1.5" rx="0.75" fill="#6E2A85"/>
<rect id="Rectangle_8" x="14.6875" y="22.2998" width="4" height="1.5" rx="0.75" fill="#6E2A85"/>
<rect id="Rectangle Copy 7" x="23.1875" y="22.2998" width="4" height="1.5" rx="0.75" fill="#6E2A85"/>
<rect id="Rectangle_9" x="9.6875" y="25.2998" width="4" height="1.5" rx="0.75" fill="#6E2A85"/>
<rect id="Rectangle_10" x="14.6875" y="25.2998" width="4" height="1.5" rx="0.75" fill="#6E2A85"/>
<rect id="Rectangle Copy 8" x="23.1875" y="25.2998" width="4" height="1.5" rx="0.75" fill="#6E2A85"/>
</g>
</svg>
