<svg width="15" height="17" viewBox="0 0 15 17" fill="none" xmlns="http://www.w3.org/2000/svg">
<g clip-path="url(#clip0_2242_2917)">
<path d="M14.4401 13.8511C14.4401 15.2772 13.2884 16.4332 11.8675 16.4332C10.4466 16.4332 9.29484 15.2772 9.29484 13.8511C9.29484 13.4722 9.37613 13.1131 9.52228 12.7888L5.09741 10.0998C4.62651 10.7022 3.89487 11.0889 3.07285 11.0889C1.65173 11.0889 0.5 9.93288 0.5 8.50674C0.5 7.0806 1.65173 5.92463 3.07264 5.92463C3.87563 5.92463 4.59278 6.29397 5.06433 6.87271L9.62758 3.84032C9.45288 3.49203 9.35472 3.09861 9.35472 2.68196C9.35472 1.25583 10.5065 0.0998535 11.9274 0.0998535C13.3483 0.0998535 14.5 1.25583 14.5 2.68196C14.5 4.1081 13.3483 5.26408 11.9274 5.26408C11.1358 5.26408 10.428 4.90559 9.95664 4.34182L5.38756 7.37855C5.55274 7.71902 5.64549 8.10225 5.64549 8.50696C5.64549 8.91167 5.56117 9.25931 5.40983 9.58785L9.83059 12.2739C10.3015 11.6626 11.0385 11.2692 11.8677 11.2692C13.2886 11.2692 14.4403 12.4252 14.4403 13.8513L14.4401 13.8511Z" fill="white"/>
</g>
<defs>
<clipPath id="clip0_2242_2917">
<rect width="14" height="16.3333" fill="white" transform="translate(0.5 0.0998535)"/>
</clipPath>
</defs>
</svg>
