<svg width="37" height="36" viewBox="0 0 37 36" fill="none" xmlns="http://www.w3.org/2000/svg">
<path fill-rule="evenodd" clip-rule="evenodd" d="M8.57812 6.6875H14.5781C15.4066 6.6875 16.0781 7.35907 16.0781 8.1875V14.1875C16.0781 15.0159 15.4066 15.6875 14.5781 15.6875H8.57812C7.7497 15.6875 7.07812 15.0159 7.07812 14.1875V8.1875C7.07812 7.35907 7.7497 6.6875 8.57812 6.6875ZM5.57812 8.1875C5.57812 6.53065 6.92127 5.1875 8.57812 5.1875H14.5781C16.235 5.1875 17.5781 6.53065 17.5781 8.1875V14.1875C17.5781 15.8444 16.235 17.1875 14.5781 17.1875H8.57812C6.92127 17.1875 5.57812 15.8444 5.57812 14.1875V8.1875ZM22.0781 6.6875H28.0781C28.9066 6.6875 29.5781 7.35907 29.5781 8.1875V14.1875C29.5781 15.0159 28.9066 15.6875 28.0781 15.6875H22.0781C21.2497 15.6875 20.5781 15.0159 20.5781 14.1875V8.1875C20.5781 7.35907 21.2497 6.6875 22.0781 6.6875ZM19.0781 8.1875C19.0781 6.53065 20.4213 5.1875 22.0781 5.1875H28.0781C29.735 5.1875 31.0781 6.53065 31.0781 8.1875V14.1875C31.0781 15.8444 29.735 17.1875 28.0781 17.1875H22.0781C20.4213 17.1875 19.0781 15.8444 19.0781 14.1875V8.1875ZM14.4531 19.9375H8.45312C7.6247 19.9375 6.95312 20.6091 6.95312 21.4375V27.4375C6.95312 28.2659 7.6247 28.9375 8.45312 28.9375H14.4531C15.2816 28.9375 15.9531 28.2659 15.9531 27.4375V21.4375C15.9531 20.6091 15.2816 19.9375 14.4531 19.9375ZM8.45312 18.4375C6.79627 18.4375 5.45312 19.7806 5.45312 21.4375V27.4375C5.45312 29.0944 6.79627 30.4375 8.45312 30.4375H14.4531C16.11 30.4375 17.4531 29.0944 17.4531 27.4375V21.4375C17.4531 19.7806 16.11 18.4375 14.4531 18.4375H8.45312ZM22.4219 20.3125H28.4219C29.2503 20.3125 29.9219 20.9841 29.9219 21.8125V27.8125C29.9219 28.6409 29.2503 29.3125 28.4219 29.3125H22.4219C21.5934 29.3125 20.9219 28.6409 20.9219 27.8125V21.8125C20.9219 20.9841 21.5934 20.3125 22.4219 20.3125ZM19.4219 21.8125C19.4219 20.1556 20.765 18.8125 22.4219 18.8125H28.4219C30.0787 18.8125 31.4219 20.1556 31.4219 21.8125V27.8125C31.4219 29.4694 30.0787 30.8125 28.4219 30.8125H22.4219C20.765 30.8125 19.4219 29.4694 19.4219 27.8125V21.8125Z" fill="#FF8300"/>
</svg>
