<svg width="19" height="29" viewBox="0 0 19 29" fill="none" xmlns="http://www.w3.org/2000/svg">
<g clip-path="url(#clip0_209_429)">
<path d="M6.82578 2.06142C6.82578 2.06142 9.26361 2.93449 11.7645 2.06142C11.7645 2.06142 16.0097 -0.0339587 17.2391 4.09517C17.2391 4.09517 18.0167 5.20449 16.6401 9.27198C16.6401 9.27198 15.6314 11.9426 15.5053 12.528H3.61037L2.42298 9.62121C2.00266 8.80977 0.426479 4.93743 2.95888 2.47228C2.95888 2.47228 4.39846 0.756944 6.82578 2.06142Z" stroke="#FF8300" stroke-width="2" stroke-miterlimit="10" stroke-linecap="round"/>
<path d="M5.88013 4.28027C5.88013 4.28027 4.08329 4.7733 4.44055 6.58108" stroke="#FF8300" stroke-miterlimit="10" stroke-linecap="round"/>
<path d="M13.6873 12.5278H5.302V15.0238H13.6873V12.5278Z" stroke="#FF8300" stroke-miterlimit="10" stroke-linecap="round"/>
<path d="M7.02539 25.3673L8.14973 27.9865H10.8292L11.9641 25.3673V15.0239H7.02539V25.3673Z" stroke="#FF8300" stroke-miterlimit="10" stroke-linecap="round"/>
<path d="M5.302 16.9448L13.6873 17.9925" stroke="#FF8300" stroke-miterlimit="10" stroke-linecap="round"/>
<path d="M5.302 19.9028L13.6873 20.7245" stroke="#FF8300" stroke-miterlimit="10" stroke-linecap="round"/>
<path d="M5.302 22.7686L13.6873 23.5081" stroke="#FF8300" stroke-miterlimit="10" stroke-linecap="round"/>
<path d="M5.302 25.1309L13.6873 26.0039" stroke="#FF8300" stroke-miterlimit="10" stroke-linecap="round"/>
</g>
<defs>
<clipPath id="clip0_209_429">
<rect width="18" height="28" fill="white" transform="translate(0.5 0.5)"/>
</clipPath>
</defs>
</svg>
