<svg width="31" height="35" viewBox="0 0 31 35" fill="none" xmlns="http://www.w3.org/2000/svg">
<g clip-path="url(#clip0_209_561)">
<path d="M19.7348 1.0498L14.8648 7.2798C14.8648 7.2798 12.7748 9.5398 10.8448 10.8498C10.8448 10.8498 7.7848 12.7198 8.0748 18.7198L8.6948 23.6998C8.6948 23.6998 9.3148 31.2298 9.1448 33.7798" stroke="#FF8300" stroke-miterlimit="10" stroke-linecap="round"/>
<path d="M32.1298 11.5498L24.5998 17.3798C24.5998 17.3798 22.5098 18.5698 23.1298 22.2498L23.7498 33.7398" stroke="#FF8300" stroke-miterlimit="10" stroke-linecap="round"/>
<path d="M15.6039 15.9396C13.2239 15.5996 13.2239 13.6796 13.2239 13.6796C13.1239 10.9496 16.4039 11.1296 16.4039 11.1296C17.6039 11.2396 17.8139 10.8496 17.8139 10.8496L24.0939 4.61963" stroke="#FF8300" stroke-width="2" stroke-miterlimit="10" stroke-linecap="round"/>
<path d="M16.6739 14.13C16.6739 14.13 14.2239 17.18 17.7539 18.6C17.7139 18.62 21.1939 19.31 20.6439 15.94C20.6439 15.94 20.3639 14.69 20.9839 14.13L27.214 7.79004" stroke="#FF8300" stroke-width="2" stroke-miterlimit="10" stroke-linecap="round"/>
<path d="M16.4038 21.5398C16.4038 21.5398 15.5438 18.2898 13.3938 18.6998C13.3938 18.6998 9.98381 19.2198 11.3438 22.1498C11.3438 22.1498 12.4938 23.5898 13.1238 23.9798V33.9598" stroke="#FF8300" stroke-width="2" stroke-miterlimit="10" stroke-linecap="round"/>
<path d="M15.4839 19.66C15.4839 19.66 17.6639 17.31 19.6639 19.86C19.6639 19.86 20.9839 21.98 17.8339 24.06V33.95" stroke="#FF8300" stroke-width="2" stroke-miterlimit="10" stroke-linecap="round"/>
<path d="M5.14478 5.84961L8.83477 9.28961" stroke="#FF8300" stroke-miterlimit="10" stroke-linecap="round"/>
<path d="M1.83496 11.1997L6.41496 13.0197" stroke="#FF8300" stroke-miterlimit="10" stroke-linecap="round"/>
<path d="M0.514893 17.4097H5.35489" stroke="#FF8300" stroke-miterlimit="10" stroke-linecap="round"/>
<path d="M13.7139 14.6797C13.7139 14.6797 10.8339 15.0197 11.0239 17.0097C11.0239 17.0097 10.9939 18.5797 12.6139 18.9197L14.1039 18.6697L15.4939 19.4797L16.9939 18.4797L15.9439 16.8997L15.5939 16.1697L13.7139 14.6797Z" fill="#FF8300"/>
</g>
<defs>
<clipPath id="clip0_209_561">
<rect width="30.97" height="33.9" fill="white" transform="translate(0.0148926 0.549805)"/>
</clipPath>
</defs>
</svg>
