<svg width="29" height="31" viewBox="0 0 29 31" fill="none" xmlns="http://www.w3.org/2000/svg">
<path d="M15.5229 8.79548L13.6187 8.79785L13.621 10.7393L15.5252 10.737L15.5229 8.79548Z" stroke="#FAB46B" stroke-linecap="round" stroke-linejoin="round"/>
<path d="M15.5231 5.64069L13.6189 5.64307L13.6212 7.58456L15.5254 7.58219L15.5231 5.64069Z" stroke="#FAB46B" stroke-linecap="round" stroke-linejoin="round"/>
<path d="M12.6635 7.58601L10.7593 7.58838L10.7616 9.52987L12.6658 9.5275L12.6635 7.58601Z" stroke="#FAB46B" stroke-linecap="round" stroke-linejoin="round"/>
<path d="M15.5226 2.71735L13.6184 2.71973L13.6207 4.66122L15.525 4.65885L15.5226 2.71735Z" stroke="#FAB46B" stroke-linecap="round" stroke-linejoin="round"/>
<path d="M12.6633 3.94538L10.759 3.94775L10.7614 5.88925L12.6656 5.88688L12.6633 3.94538Z" stroke="#FAB46B" stroke-linecap="round" stroke-linejoin="round"/>
<path d="M10.287 11.7139L8.38281 11.7163L8.38514 13.6578L10.2894 13.6554L10.287 11.7139Z" stroke="#FAB46B" stroke-linecap="round" stroke-linejoin="round"/>
<path d="M3 11.6694L4.12786 11.6674L4.1292 12.9518L6.0106 12.9494L6.01283 15L10.9516 14.9937L10.9485 12.1739L12.8428 12.1715L12.8439 13.1969L14.7124 13.1945L14.7142 14.7325L16.5956 14.7301L16.5933 12.6795L17.7693 12.678L17.7671 10.6274L16.356 10.6291L16.3537 8.57851L18 8.57609L17.9976 6.26918L16.3513 6.27161L16.3491 4.22099L17.7602 4.21929L17.7568 2" stroke="#FAB46B" stroke-linecap="round" stroke-linejoin="round"/>
<path d="M20.9977 4.6695L19.0935 4.67188L19.0958 6.61337L21.0001 6.611L20.9977 4.6695Z" stroke="#FAB46B" stroke-linecap="round" stroke-linejoin="round"/>
<path d="M14.3332 14.6202L12.429 14.6226L12.4313 16.5641L14.3355 16.5617L14.3332 14.6202Z" stroke="#FAB46B" stroke-linecap="round" stroke-linejoin="round"/>
<path d="M5.76043 2.24714L3.8562 2.24951L3.85853 4.19101L5.76275 4.18863L5.76043 2.24714Z" stroke="#FAB46B" stroke-linecap="round" stroke-linejoin="round"/>
<path d="M8.83684 6.12995L6.93262 6.13232L6.93494 8.07382L8.83917 8.07145L8.83684 6.12995Z" stroke="#FAB46B" stroke-linecap="round" stroke-linejoin="round"/>
<path d="M2.90422 6.12995L1 6.13232L1.00233 8.07382L2.90655 8.07145L2.90422 6.12995Z" stroke="#FAB46B" stroke-linecap="round" stroke-linejoin="round"/>
<path d="M19.1607 24.3092V29.9997H6.73218V21.3101" stroke="#FF8300" stroke-width="2" stroke-linecap="round" stroke-linejoin="round"/>
<path d="M2.63908 11.333C2.63786 11.3423 2.63639 11.3515 2.63516 11.3608C2.0535 15.4556 3.86073 19.1916 6.95061 21.5563" stroke="#FF8300" stroke-width="2" stroke-linecap="round" stroke-linejoin="round"/>
<path d="M24.4997 17.4482H26.7081C27.1908 17.4482 27.5434 17.0071 27.4225 16.5547L25.2563 9.14447C24.1573 5.82157 21.5045 3.1721 18.125 2" stroke="#FF8300" stroke-width="2" stroke-linecap="round" stroke-linejoin="round"/>
<path d="M19.1606 24.2068L22.0444 24.2062C23.3135 24.2057 24.3415 23.16 24.3392 21.8715L24.3313 17.4482" stroke="#FF8300" stroke-width="2" stroke-linecap="round" stroke-linejoin="round"/>
</svg>
