<svg width="31" height="31" viewBox="0 0 31 31" fill="none" xmlns="http://www.w3.org/2000/svg">
<g clip-path="url(#clip0_209_483)">
<path d="M13.2418 18.2236C9.40893 19.1284 5.14756 18.8384 7.52142 16.3094C8.94574 14.7897 11.0069 14.4475 12.9697 13.705C13.9598 12.8465 16.4958 11.8372 15.1641 8.60059C10.9375 9.58666 6.13763 11.1818 2.87212 13.9196C-0.902897 20.5959 5.44863 26.5066 18.7191 22.8291C28.9151 20.0043 30.2005 16.1064 28.2956 12.1389C24.4048 14.6505 15.2973 17.7421 13.2476 18.2236H13.2418Z" fill="#F8F5F0" stroke="#FF8300" stroke-width="0.7" stroke-linecap="round" stroke-linejoin="round"/>
<path d="M23.8601 13.2947C24.0482 15.8942 27.3787 16.4539 27.9319 13.7104C28.1366 12.7017 27.9208 11.4047 26.7314 11.4435C26.4437 11.4546 26.2279 11.5766 26.2279 11.5766C26.156 11.5599 26.0951 11.5045 26.0343 11.4602C25.2764 10.9004 23.7383 11.5322 23.8656 13.3003L23.8601 13.2947Z" fill="#F8F5F0" stroke="#FF8300" stroke-width="1.5" stroke-linecap="round" stroke-linejoin="round"/>
<path d="M23.9043 16.7091C24.5903 16.7479 25.21 16.5372 26.0122 15.7835C26.2833 15.523 26.333 15.2181 26.3828 14.9687C26.5875 13.96 26.3718 12.663 25.1823 12.7018C24.8946 12.7129 24.6789 12.8349 24.6789 12.8349C24.6069 12.8182 24.5461 12.7628 24.4852 12.7185C23.7273 12.1587 22.1893 12.7905 22.3165 14.5586C22.394 15.6615 23.08 16.4652 23.9098 16.7091H23.9043Z" fill="#F8F5F0" stroke="#FF8300" stroke-width="1.5" stroke-linecap="round" stroke-linejoin="round"/>
<path d="M21.409 17.8342C22.1559 17.8952 22.947 17.413 23.4947 16.9197C23.7658 16.5373 23.7382 16.4486 23.799 16.1826C24.0148 15.1739 23.8212 13.8769 22.6317 13.8991C22.344 13.8991 22.1282 14.021 22.1282 14.021C22.0563 14.0044 21.9955 13.949 21.9346 13.9046C21.1822 13.3337 19.6387 13.9434 19.7382 15.7115C19.777 16.3766 20.0536 17.0306 20.5626 17.474C20.8281 17.7012 21.1158 17.8121 21.409 17.8342Z" fill="#F8F5F0" stroke="#FF8300" stroke-width="1.5" stroke-linecap="round" stroke-linejoin="round"/>
<path d="M19.102 18.954C19.2403 18.9595 19.3897 18.9429 19.5446 18.8874C19.9651 18.7489 20.4907 18.6657 20.8447 18.3775C21.2929 18.0173 21.4865 17.4353 21.5031 16.8755C21.5197 16.1605 21.2154 15.4234 20.4022 15.4068C20.1366 15.4068 19.9319 15.5065 19.9319 15.5065C19.8655 15.4899 19.8102 15.4345 19.7549 15.3901C19.0799 14.8414 17.6415 15.3624 17.6802 16.9919C17.7023 17.8233 18.2335 18.9096 19.0965 18.954H19.102Z" fill="#F8F5F0" stroke="#FF8300" stroke-width="1.5" stroke-linecap="round" stroke-linejoin="round"/>
<path d="M18.6762 19.3807C19.1631 18.9262 19.2571 18.2556 19.1465 17.5794C19.058 17.0418 18.7592 16.5208 18.1506 16.5097C17.8851 16.5097 17.6859 16.6206 17.6859 16.6206C17.6195 16.5984 17.5697 16.543 17.5144 16.4986C16.8671 15.9056 15.4232 16.4765 15.4066 18.239C15.401 19.0703 15.7274 19.5248 16.2198 19.9073C17.1991 20.1844 17.8353 19.9516 18.4494 19.5525C18.5324 19.5027 18.6043 19.4417 18.6707 19.3807H18.6762Z" fill="#F8F5F0" stroke="#FF8300" stroke-width="1.5" stroke-linecap="round" stroke-linejoin="round"/>
<path d="M14.892 10.5072C14.3443 11.7321 13.1105 12.242 12.1147 11.8651C11.4342 11.6046 10.7095 10.9118 10.9252 9.50399C11.0801 8.48417 11.7219 7.34242 12.8284 7.78582C13.0995 7.89112 13.2544 8.07957 13.2544 8.07957C13.3318 8.09065 13.4038 8.0574 13.4757 8.04077C14.383 7.77473 15.6057 8.89431 14.8864 10.5127L14.892 10.5072Z" fill="#F8F5F0" stroke="#FF8300" stroke-width="1.5" stroke-linecap="round" stroke-linejoin="round"/>
<path d="M12.015 11.4046C11.4673 12.6295 10.2336 13.1394 9.23775 12.7625C8.55727 12.5021 7.83252 11.8092 8.04828 10.4014C8.20319 9.38163 8.84495 8.23988 9.95143 8.68328C10.2225 8.78858 10.3774 8.97703 10.3774 8.97703C10.4549 8.98811 10.5268 8.95486 10.5987 8.93823C11.506 8.67219 12.7287 9.79177 12.0095 11.4102L12.015 11.4046Z" fill="#F8F5F0" stroke="#FF8300" stroke-width="1.5" stroke-linecap="round" stroke-linejoin="round"/>
<path d="M9.82972 12.6463C9.28201 13.8712 8.04828 14.3811 7.05245 14.0042C6.37196 13.7438 5.64722 13.0509 5.86298 11.6431C6.01789 10.6233 6.65965 9.48158 7.76613 9.92498C8.03722 10.0303 8.19212 10.2187 8.19212 10.2187C8.26958 10.2298 8.3415 10.1966 8.41342 10.1799C9.32073 9.91389 10.5434 11.0335 9.82418 12.6519L9.82972 12.6463Z" fill="#F8F5F0" stroke="#FF8300" stroke-width="1.5" stroke-linecap="round" stroke-linejoin="round"/>
<path d="M8.2862 13.539C7.83255 14.6918 6.72053 15.2128 5.79109 14.9024C5.15486 14.6918 4.45778 14.0877 4.59609 12.7796C4.69567 11.8374 5.23785 10.7566 6.27241 11.1169C6.5269 11.2056 6.67627 11.3719 6.67627 11.3719C6.74819 11.3719 6.81458 11.3497 6.88097 11.322C7.7053 11.0393 8.87817 12.0203 8.28067 13.5334L8.2862 13.539Z" fill="#F8F5F0" stroke="#FF8300" stroke-width="1.5" stroke-linecap="round" stroke-linejoin="round"/>
<path d="M6.57111 14.5307C6.11746 15.6835 5.00544 16.2045 4.076 15.8941C3.43977 15.6835 2.74269 15.0794 2.881 13.7713C2.98058 12.8291 3.52276 11.7483 4.55732 12.1086C4.81181 12.1973 4.96118 12.3636 4.96118 12.3636C5.03311 12.3636 5.0995 12.3414 5.16588 12.3137C5.99021 12.031 7.16308 13.012 6.56558 14.5251L6.57111 14.5307Z" fill="#F8F5F0" stroke="#FF8300" stroke-width="1.5" stroke-linecap="round" stroke-linejoin="round"/>
<path d="M5.27655 15.6395C4.86162 16.9087 3.90451 17.5295 3.12998 17.2468C2.59333 17.0528 2.02349 16.4376 2.17287 15.0243C2.28352 13.9989 2.77037 12.8073 3.63896 13.1398C3.84919 13.2174 3.97643 13.3893 3.97643 13.3893C4.03729 13.3893 4.09261 13.356 4.14794 13.3283C4.85055 12.9791 5.81872 13.9712 5.27655 15.6395Z" fill="#F8F5F0" stroke="#FF8300" stroke-width="1.5" stroke-linecap="round" stroke-linejoin="round"/>
<path d="M16.3635 17.1914C15.5281 17.3411 14.6817 17.4519 13.8352 17.524C13.7633 17.5295 13.6858 17.535 13.6139 17.5406C13.5918 17.5683 13.5752 17.596 13.5586 17.6293C13.4867 17.7623 13.5199 19.813 13.5088 20.5723C13.5696 20.6388 13.636 20.6998 13.708 20.7497C13.7577 20.7829 13.8131 20.8107 13.8629 20.8273C14.4991 20.7774 15.1574 20.7053 15.7715 20.5446C16.3856 20.3839 16.3303 19.5082 16.3746 18.9373C16.4188 18.383 16.4963 17.7346 16.3635 17.1914Z" fill="#F8F5F0" stroke="#FF8300" stroke-linecap="round" stroke-linejoin="round"/>
<path d="M13.7524 17.6681C12.9115 17.8012 12.065 17.8954 11.213 17.9508C11.1411 17.9508 11.0636 17.9619 10.9917 17.9619C10.9696 17.9896 10.953 18.0173 10.9309 18.0506C10.8534 18.1891 10.8202 20.2953 10.7815 21.0823C10.8368 21.1544 10.9032 21.2209 10.9751 21.2708C11.0249 21.304 11.0747 21.3317 11.13 21.3539C11.7718 21.3151 12.4302 21.2597 13.0498 21.1045C13.6694 20.9548 13.6473 20.0514 13.7081 19.4639C13.769 18.893 13.8686 18.2279 13.7524 17.6626V17.6681Z" fill="#F8F5F0" stroke="#FF8300" stroke-linecap="round" stroke-linejoin="round"/>
<path d="M10.8754 18.056C9.98466 18.0505 9.04415 18.1115 8.15897 18.0283C8.1313 18.1115 8.1645 18.0671 8.13684 18.0837C8.07045 18.4218 7.88235 19.22 7.82149 20.3063C7.71084 19.8573 7.65552 21.1155 7.65552 21.121C7.81042 21.5367 7.9764 21.3594 9.3429 21.4148C10.3277 21.4536 10.4936 21.4979 10.643 21.1099C10.8201 19.7797 10.9307 18.9151 10.9418 18.3609C10.9418 18.2445 10.9196 18.1392 10.8754 18.056Z" fill="#F8F5F0" stroke="#FF8300" stroke-linecap="round" stroke-linejoin="round"/>
<path d="M8.1149 17.9506C7.24078 18.067 6.33346 17.9339 5.49807 17.6679C5.43721 17.6513 5.38189 17.6291 5.32103 17.6069C5.30997 17.6291 5.2989 17.6457 5.28784 17.6513C5.19379 17.9838 4.9393 19.3805 4.80099 20.4613C4.80099 20.4613 4.65161 20.2729 4.65161 20.2784C4.67374 20.6608 4.67374 20.7551 6.28367 21.0821C7.27397 21.2871 7.45654 21.265 7.63358 20.8936C7.9102 19.5801 8.08723 18.7265 8.13703 18.1778C8.14256 18.1002 8.13703 18.0226 8.12043 17.9561L8.1149 17.9506Z" fill="#F8F5F0" stroke="#FF8300" stroke-linecap="round" stroke-linejoin="round"/>
<path d="M3.66117 16.2102C3.21858 15.8444 2.80918 15.3622 2.56022 14.7803C2.32233 15.2957 2.20615 16.3654 2.10657 16.964C2.04571 17.3298 1.99039 17.6347 1.95166 17.8841C2.25594 18.3995 2.42745 19.0092 2.8811 19.4914C2.96962 19.4692 3.13559 19.0535 3.20752 18.9371C3.3071 18.466 3.46754 17.7289 3.48414 17.6624C3.58372 17.2023 3.72203 16.7257 3.76629 16.2989C3.73309 16.2712 3.69437 16.2435 3.66117 16.2158V16.2102Z" fill="#F8F5F0" stroke="#FF8300" stroke-linecap="round" stroke-linejoin="round"/>
<path d="M3.36248 16.4043C3.16885 16.9364 3.09692 17.6015 3.01947 18.1724C2.94202 18.7543 2.59901 19.3751 2.99734 19.6356C3.39567 19.8961 3.98211 20.3339 4.41364 20.4836C4.4579 20.4725 4.49662 20.4559 4.54088 20.4281C4.60174 20.3893 4.65706 20.3395 4.71239 20.2785C4.82303 19.6522 5.11072 18.1945 5.20477 17.5738C4.51875 17.3188 3.85486 16.9475 3.35695 16.4098L3.36248 16.4043Z" fill="#F8F5F0" stroke="#FF8300" stroke-linecap="round" stroke-linejoin="round"/>
</g>
<defs>
<clipPath id="clip0_209_483">
<rect width="28" height="17.5" fill="white" transform="translate(1.5 6.75)"/>
</clipPath>
</defs>
</svg>
