<svg width="31" height="31" viewBox="0 0 31 31" fill="none" xmlns="http://www.w3.org/2000/svg">
<g clip-path="url(#clip0_209_593)">
<path d="M20 11.1949H16.4555V8H13.5445V11.1949H10V13.8187H13.5445V17H16.4555V13.8187H20V11.1949Z" fill="#FF8300" stroke="#FF8300" stroke-linecap="round" stroke-linejoin="round"/>
<path d="M7.29492 8.79785V10.4127" stroke="#FF8300" stroke-linecap="round" stroke-linejoin="round"/>
<path d="M8.10716 9.60938H6.48291" stroke="#FF8300" stroke-linecap="round" stroke-linejoin="round"/>
<path d="M17.4592 4.41357V6.0284" stroke="#FF8300" stroke-linecap="round" stroke-linejoin="round"/>
<path d="M18.2714 5.2168H16.6555" stroke="#FF8300" stroke-linecap="round" stroke-linejoin="round"/>
<path d="M6.37402 13.1821V14.797" stroke="#FF8300" stroke-linecap="round" stroke-linejoin="round"/>
<path d="M7.17789 13.9937H5.56201" stroke="#FF8300" stroke-linecap="round" stroke-linejoin="round"/>
<path d="M22.3152 12.7222V14.337" stroke="#FF8300" stroke-linecap="round" stroke-linejoin="round"/>
<path d="M23.119 13.5337H21.5032" stroke="#FF8300" stroke-linecap="round" stroke-linejoin="round"/>
<path d="M19.5271 24.2683V29.5814H7.57129V21.457" stroke="#FF8300" stroke-linecap="round" stroke-linejoin="round"/>
<path d="M6.69214 20.6372C6.95168 20.8966 7.2196 21.1392 7.49589 21.3735" stroke="#FF8300" stroke-linecap="round" stroke-linejoin="round"/>
<path d="M4.66603 7.39209C4.39812 7.91921 4.17206 8.47143 3.98787 9.04875C3.08365 11.9103 3.30133 14.6881 4.28928 17.056" stroke="#FF8300" stroke-linecap="round" stroke-linejoin="round"/>
<path d="M23.6294 5.79412C20.9084 2.27999 16.1612 0.422515 11.1378 1.96204C11.0792 1.97878 11.0206 1.99551 10.9536 2.02061" stroke="#FF8300" stroke-linecap="round" stroke-linejoin="round"/>
<path d="M24.7432 17.6001H26.8698C27.3386 17.6001 27.6819 17.1567 27.5647 16.7049L25.5134 9.45068" stroke="#FF8300" stroke-linecap="round" stroke-linejoin="round"/>
<path d="M19.5605 24.2268H22.4323C23.6965 24.2268 24.7179 23.1976 24.7179 21.9342V17.6001" stroke="#FF8300" stroke-linecap="round" stroke-linejoin="round"/>
</g>
<defs>
<clipPath id="clip0_209_593">
<rect width="25" height="29" fill="white" transform="translate(3 1)"/>
</clipPath>
</defs>
</svg>
