<svg width="31" height="31" viewBox="0 0 31 31" fill="none" xmlns="http://www.w3.org/2000/svg">
<g clip-path="url(#clip0_209_459)">
<path d="M14.5906 23.2887H14.5804C14.1899 23.2887 4.9011 23.001 1.6233 15.5206L1.5 15.2432L1.60275 14.9555C1.69523 14.6678 4.15101 7.81418 15.8545 7.71143H15.9881C17.3033 7.71143 24.1261 8.06078 29.2328 14.9349L29.5 15.2945L29.3356 15.7056C29.2123 16.0035 26.1914 23.0934 14.6215 23.2887H14.6112H14.5906ZM3.20569 15.2021C6.15468 21.3467 14.2207 21.7063 14.6009 21.7166C23.6637 21.5522 26.9004 16.9078 27.671 15.5C22.9444 9.46849 16.6971 9.29381 15.9778 9.29381H15.8853C6.56569 9.37601 3.77083 14.0204 3.20569 15.2021Z" fill="#FF8300"/>
<path d="M15.1763 22.1071C11.5903 22.1071 8.67212 19.1889 8.67212 15.6029C8.67212 12.0168 11.5903 9.08838 15.1763 9.08838C18.7624 9.08838 21.6806 12.0065 21.6806 15.5926C21.6806 19.1787 18.7624 22.0968 15.1763 22.0968V22.1071ZM15.1763 9.87957C12.0218 9.87957 9.46331 12.4484 9.46331 15.6029C9.46331 18.7574 12.0321 21.3159 15.1763 21.3159C18.3206 21.3159 20.8894 18.7574 20.8894 15.6029C20.8894 12.4484 18.3206 9.87957 15.1763 9.87957Z" fill="#FF8300"/>
<path d="M16.543 15.1095L18.4337 13.1367C17.6939 12.1502 16.5122 11.5132 15.1764 11.5132C12.9159 11.5132 11.0972 13.3422 11.0972 15.5925C11.0972 17.8427 12.9262 19.6717 15.1764 19.6717C17.4267 19.6717 19.1632 17.9352 19.2557 15.7569L16.543 15.0992V15.1095Z" fill="#FF8300"/>
</g>
<defs>
<clipPath id="clip0_209_459">
<rect width="28" height="15.5772" fill="white" transform="translate(1.5 7.71143)"/>
</clipPath>
</defs>
</svg>
