<svg width="31" height="31" viewBox="0 0 31 31" fill="none" xmlns="http://www.w3.org/2000/svg">
<g clip-path="url(#clip0_209_406)">
<g clip-path="url(#clip1_209_406)">
<path d="M22.9477 4.97152C21.2334 1.03192 15.7858 -0.524216 12.0906 1.18951C9.48106 2.41078 7.88106 5.42457 7.50011 8.28078C7.42392 8.91111 8.3763 8.89141 8.45249 8.28078C8.41439 8.51715 8.52868 7.90651 8.54773 7.80802C8.64297 7.35497 8.7763 6.92162 8.90963 6.48826C9.36677 5.1488 10.1096 3.86843 11.1573 2.94263C14.1287 0.38189 19.7096 1.32739 21.7477 4.71544C24.1287 8.65504 20.8525 12.4173 19.0239 15.7266C17.5953 18.3267 18.2049 21.6163 16.5477 24.1179C15.9001 25.1028 15.4296 25.5559 14.3439 25.6544C14.3058 25.4377 14.0785 24.6961 14.0001 24.5C13.0001 22 13.0001 23 12.5668 21.2026C12.4525 20.4738 12.3096 19.7288 12.5001 19C13.0001 19 14.1858 18.1495 14.7001 16.9479C14.7001 16.9479 14.7192 16.9085 14.7382 16.8888C14.7382 16.8888 14.7573 16.8888 14.7763 16.8494C16.7001 14.5447 16.1668 11.0188 13.7287 9.34447C13.2144 8.9899 12.6239 8.85202 12.1096 8.53685C11.1192 7.92621 11.5953 7.00041 12.0525 6.21249C12.9858 4.55786 14.662 4.00632 16.4525 4.40028C18.6811 4.89272 20.3382 7.25648 19.9001 9.63993C19.6525 10.9794 18.4525 12.1416 17.7096 13.2053C16.7763 14.5447 16.1096 15.9433 16.0334 17.5979C15.9953 18.2282 16.9477 18.2282 16.9858 17.5979C17.062 15.8842 17.9192 14.525 18.8906 13.2053C19.5953 12.2401 20.4906 11.2355 20.7763 10.0339C21.1382 8.59594 20.662 6.80343 19.862 5.60185C18.5477 3.61236 15.7858 2.74565 13.5953 3.55326C12.0906 4.10481 9.9382 6.56705 10.5858 8.39896C11.0239 9.60054 12.662 9.67933 13.5382 10.4279C14.7573 11.4718 15.2334 13.1659 14.8144 14.6826C14.7763 14.5841 14.7192 14.5053 14.662 14.4265C13.3477 11.3537 7.9763 11.7082 7.99535 15.6872C7.99535 17.6964 9.36677 18.7798 10.8906 18.9571C10.5096 20.7102 10.9668 22.6406 11.9763 24.0588C12.3192 24.5513 12.5668 25.1028 12.7192 25.6544C12.0144 25.5756 11.3096 25.3392 10.7192 24.9847C9.38582 24.1967 8.64297 22.7391 8.41439 21.2026C8.31916 20.5723 7.40487 20.8481 7.50011 21.4587C7.91916 24.3149 10.243 26.4817 12.9096 26.6787C13.0049 27.7424 13.0001 28 12.7192 29.3438C12.5001 30.5 13.7647 30.7731 14.0001 30C14.3239 28.9363 14.401 27.7522 14.3439 26.5703C14.801 26.5112 14.7953 26.5014 15.2525 26.3241C18.8715 24.9453 18.1858 20.4147 19.2525 17.3812C20.0715 15.0372 21.9192 13.225 22.8144 10.8809C23.5763 8.93081 23.7668 6.86252 22.9096 4.91242L22.9477 4.97152ZM9.00487 15.6872C9.00487 13.6189 11.0811 12.9098 12.5668 13.5598C11.6144 13.7765 10.8906 14.6629 10.8906 15.6872C10.8906 16.7115 11.6144 17.6176 12.5668 17.8146C11.0811 18.4449 8.98582 17.7555 8.98582 15.6872H9.00487Z" fill="#FF8300"/>
</g>
</g>
<defs>
<clipPath id="clip0_209_406">
<rect width="30" height="30" fill="white" transform="translate(0.5 0.5)"/>
</clipPath>
<clipPath id="clip1_209_406">
<rect width="16" height="30" fill="white" transform="translate(7.5 0.5)"/>
</clipPath>
</defs>
</svg>
