<svg width="31" height="31" viewBox="0 0 31 31" fill="none" xmlns="http://www.w3.org/2000/svg">
<g clip-path="url(#clip0_272_746)">
<path d="M29.5381 10.8084C29.2442 10.4434 28.8303 10.2546 28.3145 10.2735C28.0926 10.2798 27.9127 10.3364 27.7867 10.3868C27.7747 10.3742 27.7567 10.3679 27.7447 10.3553C27.2709 9.99029 26.5931 9.97141 26.0053 10.3113C25.5555 10.5693 25.2316 10.9972 25.0576 11.5259C24.8117 11.5448 24.5598 11.6077 24.3259 11.7462C23.8221 12.0357 23.4742 12.5391 23.3242 13.1622C23.3182 13.1622 23.3122 13.1496 23.3062 13.1433C22.8384 12.772 22.1546 12.7405 21.5668 13.0741C21.021 13.3762 20.6552 13.93 20.5112 14.6097C20.1453 14.4901 19.7195 14.5216 19.3296 14.723C18.8498 14.9684 18.5139 15.4153 18.34 15.9754C17.9681 15.7425 17.4943 15.7111 17.0384 15.9187C16.5946 16.1201 16.2527 16.4977 16.0308 16.9886C15.4729 17.0704 14.9031 17.146 14.3273 17.1963L14.0874 17.2152C13.9975 17.2215 13.9195 17.2718 13.8655 17.3474C13.8475 17.3662 13.8355 17.3914 13.8235 17.4166C13.0618 17.5299 12.282 17.6243 11.4903 17.6809L11.2504 17.6935C11.1724 17.6935 11.1065 17.7376 11.0525 17.7942C10.7646 17.7942 10.4707 17.7942 10.1768 17.8005C9.57098 17.8131 8.9472 17.8194 8.3474 17.769C8.28143 17.7061 8.19746 17.6683 8.10749 17.6809C7.70563 17.7376 7.27378 17.7376 6.82993 17.6872C6.85992 17.3411 7.16581 16.9257 7.45371 16.6047C8.52734 15.409 9.97884 14.9118 11.5203 14.3831C12.0061 14.2195 12.498 14.0496 12.9838 13.8545C13.0198 13.8419 13.0498 13.823 13.0738 13.7978C13.2297 13.6531 13.4337 13.5083 13.6496 13.3447C14.6332 12.6084 16.0248 11.57 15.8328 9.48681C16.1747 8.56167 16.0667 7.64282 15.5329 7.00089C15.0951 6.47224 14.4473 6.24567 13.8415 6.43447C13.8415 6.43447 13.8355 6.43447 13.8295 6.43447C13.7275 6.34637 13.5776 6.22679 13.3677 6.13868C12.8998 5.94358 12.438 5.96246 12.0421 6.20162C11.6643 6.42818 11.3584 6.84984 11.1424 7.38479C11.0045 7.38479 10.8605 7.40367 10.7226 7.44772C10.7226 7.44772 10.7166 7.44772 10.7106 7.44772C10.6086 7.35962 10.4587 7.24004 10.2487 7.15193C9.78091 6.95683 9.31907 6.97571 8.92321 7.21487C8.50335 7.4666 8.16147 7.96379 7.95154 8.60572C7.92155 8.59314 7.90356 8.57426 7.87357 8.56167C7.40573 8.36657 6.94389 8.38545 6.54803 8.6246C6.17016 8.85117 5.85227 9.27913 5.64234 9.82666C5.41442 9.83924 5.19849 9.90847 5.00656 10.0343C4.70066 10.2357 4.45475 10.5819 4.28081 11.0161C3.87295 10.8965 3.48308 10.9406 3.1472 11.1609C2.79332 11.3937 2.51742 11.8217 2.34348 12.3503C1.77367 12.7846 1.47977 13.7853 1.3958 14.6097C1.36581 14.9118 1.36581 15.1761 1.37781 15.4216C0.670052 17.6746 0.939959 19.8333 2.20552 21.5325C3.90294 23.8171 7.00387 24.9939 10.9925 24.9939C13.3497 24.9939 16.0188 24.5849 18.8978 23.7478C24.7517 22.0486 28.1706 19.9025 29.3522 17.19C29.796 16.1642 29.916 15.0754 29.712 13.8985C29.79 13.6909 29.862 13.4706 29.91 13.2188C30.0959 12.2371 29.952 11.3308 29.5261 10.8021L29.5381 10.8084ZM24.6198 12.2874C24.9977 12.0671 25.4295 12.0671 25.7414 12.3063C25.8134 12.3629 25.9093 12.4384 26.0353 12.4699C26.1073 12.4888 26.1853 12.4699 26.2512 12.4384C26.2512 12.4384 26.4312 12.3378 26.6591 12.3315C26.983 12.3189 27.2289 12.4259 27.4028 12.6461C27.7027 13.0237 27.8047 13.7601 27.6488 14.5845C27.6008 14.83 27.5528 15.0817 27.3489 15.2894C26.6471 15.9754 26.0773 16.2649 25.4055 16.2523C25.4055 16.2271 25.4175 16.2019 25.4235 16.1705L25.4475 16.0383C25.6454 15.0565 25.5195 14.1503 25.0996 13.6153C24.8297 13.2692 24.4339 13.093 23.978 13.0741C24.158 12.6147 24.4578 12.3881 24.6258 12.2874H24.6198ZM19.5935 15.2705C19.7495 15.1887 19.9174 15.1509 20.0734 15.1509C20.2653 15.1509 20.4512 15.2139 20.6012 15.3397C20.6672 15.3964 20.7511 15.4719 20.8771 15.5097C20.9491 15.5285 21.027 15.5223 21.093 15.4908C21.093 15.4908 21.249 15.4153 21.4649 15.4153C21.7108 15.4153 21.8967 15.4971 22.0467 15.6607C22.2626 15.8936 22.3766 16.2963 22.3646 16.7558C22.3526 17.3788 22.1307 17.9138 21.7648 18.2222C21.5249 18.4235 21.177 18.5242 20.8351 18.6249C20.7031 18.6627 20.5712 18.7005 20.4512 18.7445C20.4332 18.7508 20.4092 18.7571 20.3913 18.7571C20.4752 18.3858 20.4872 17.9641 20.4092 17.5047C20.2713 16.6047 19.7435 16.0383 19.0417 16.0257C19.0117 16.0257 18.9877 16.0257 18.9577 16.032C19.1317 15.5663 19.4376 15.3523 19.6055 15.2642L19.5935 15.2705ZM16.8465 17.4795C16.8945 17.9138 16.8585 18.3984 16.8225 18.8326L16.8045 19.0718C16.7985 19.1599 16.7925 19.2606 16.7865 19.3613C16.7565 20.0158 16.7025 20.5256 16.3726 20.62C15.7309 20.7962 15.0351 20.878 14.4293 20.9283C14.4113 20.9158 14.3933 20.9095 14.3753 20.8969C14.4473 20.6011 14.4713 20.2927 14.4893 20.0158C14.4953 19.9214 14.5013 19.827 14.5133 19.7389L14.5373 19.4997C14.5972 18.9585 14.6512 18.3543 14.5793 17.7942C15.353 17.7187 16.1147 17.618 16.8525 17.4921L16.8465 17.4795ZM11.5263 18.2914C12.366 18.2347 13.1997 18.1403 14.0035 18.0145C14.0394 18.4613 13.9855 18.9648 13.9375 19.4179L13.9135 19.6634C13.9015 19.7578 13.8955 19.8585 13.8895 19.9592C13.8355 20.6388 13.7695 21.1675 13.4277 21.2556C12.7799 21.4192 12.0841 21.4885 11.4723 21.5262C11.4543 21.5136 11.4363 21.5073 11.4183 21.4948C11.3944 21.4759 11.3644 21.4507 11.3404 21.4255C11.3524 21.1612 11.3644 20.8025 11.3764 20.4249C11.3764 20.2612 11.3884 20.0724 11.3944 19.8899C11.4603 19.2857 11.5023 18.8137 11.5083 18.4487C11.5083 18.3984 11.5023 18.348 11.4963 18.2977H11.5263V18.2914ZM8.00552 20.8969C8.0775 20.8402 8.12548 20.7584 8.13148 20.664C8.14348 20.4312 8.16147 20.2109 8.18546 19.9969C8.31742 19.3235 8.40139 18.8012 8.44937 18.3984C9.02517 18.4361 9.61297 18.4298 10.1888 18.4172C10.4347 18.4172 10.6746 18.411 10.9145 18.411C10.9145 18.4172 10.9145 18.4298 10.9145 18.4361C10.9025 19.0529 10.7766 20.0724 10.5966 21.4822C10.5426 21.6332 10.4887 21.6332 9.75692 21.6017L9.49301 21.5892C9.2351 21.5766 9.01917 21.5766 8.83324 21.5766C8.70128 21.5766 8.58132 21.5766 8.47936 21.5766C8.25744 21.5766 8.02352 21.5766 7.97553 21.5577C7.97553 21.5577 7.96354 21.5451 7.95154 21.5136C7.95154 21.3815 7.96954 21.1549 7.99353 20.9724C7.99353 20.9472 8.00552 20.9221 8.00552 20.8969ZM7.84958 18.3228C7.7836 18.9459 7.59167 19.9088 7.32776 21.2116C7.24379 21.3941 7.17181 21.4255 6.21214 21.2178C5.40242 21.0416 5.02455 20.9409 4.84461 20.8528C4.97057 19.8396 5.18649 18.5746 5.30645 17.983C6.17615 18.2662 7.05185 18.3795 7.84958 18.3228ZM2.03758 18.3921C1.95361 18.2033 1.86964 18.0145 1.77367 17.832C1.81566 17.5676 1.86364 17.2655 1.92362 16.9005C1.94761 16.7495 1.9776 16.567 2.00159 16.3719C2.05557 16.0068 2.11555 15.56 2.19952 15.1698C2.37346 15.4467 2.59539 15.7048 2.83531 15.9439C2.77533 15.9817 2.72734 16.032 2.70335 16.095C2.50542 16.6614 2.42145 17.3348 2.34947 17.9327L2.31948 18.1718C2.29549 18.348 2.25351 18.5242 2.21152 18.6942C2.21152 18.7067 2.20552 18.7256 2.19952 18.7382C2.14554 18.6249 2.09156 18.5054 2.03758 18.3858V18.3921ZM2.79332 18.8578C2.8413 18.6627 2.88929 18.4613 2.91328 18.2599L2.94327 18.0208C2.99125 17.6243 3.04523 17.19 3.1352 16.7998C3.55506 17.1711 4.06488 17.4858 4.65268 17.7438C4.5807 18.2033 4.46075 18.8578 4.35278 19.4557C4.28081 19.8396 4.22083 20.2046 4.17284 20.4626C4.15485 20.4815 4.13686 20.4941 4.12486 20.5067C3.80697 20.3619 3.40511 20.0787 3.07522 19.8396C2.96126 19.7578 2.8533 19.6822 2.75733 19.6193C2.63737 19.5375 2.69136 19.2669 2.79332 18.8641V18.8578ZM13.2957 12.8224C13.0798 12.9797 12.8818 13.1307 12.7199 13.2755C12.2581 13.458 11.7902 13.6153 11.3284 13.7727C9.78691 14.3013 8.19146 14.8426 7.00987 16.1579C6.54203 16.6803 6.28412 17.1523 6.23014 17.5739C5.95423 17.5173 5.67833 17.4481 5.39642 17.3537L5.21049 17.2907C5.21049 17.2907 5.1685 17.2844 5.15051 17.2781C5.13251 17.2655 5.11452 17.253 5.09653 17.2467C4.8746 17.1586 4.66467 17.0642 4.46674 16.9572C4.75464 16.674 4.99456 16.3152 5.1805 15.8873C5.64234 15.6985 6.06219 15.3712 6.37409 14.9181C7.03986 14.8677 7.68163 14.5027 8.14348 13.9111C8.88722 13.7727 9.58298 13.2818 10.0388 12.5391C10.0568 12.5391 10.0748 12.5391 10.0868 12.5391C10.9145 12.5391 11.7242 12.086 12.276 11.3182C12.312 11.3371 12.342 11.3497 12.372 11.3623C12.6419 11.4693 12.9238 11.5196 13.1997 11.5196C13.9075 11.5196 14.6032 11.186 15.1371 10.607C14.8552 11.6518 14.0214 12.2811 13.2897 12.8286L13.2957 12.8224ZM9.2231 7.7624C9.34906 7.68688 9.48101 7.64912 9.62496 7.64912C9.75092 7.64912 9.88288 7.68058 10.0268 7.73722C10.2428 7.82533 10.3747 7.98267 10.3747 7.98267C10.4227 8.0456 10.4887 8.08336 10.5666 8.08966C10.6986 8.10854 10.8126 8.07078 10.9325 8.03302C11.2684 7.93232 11.6763 8.08336 11.9582 8.42321C12.1561 8.66236 12.564 9.32318 12.1021 10.4057C11.7482 11.2301 11.0645 11.765 10.3507 11.872C10.6746 10.9595 10.5666 10.0532 10.0388 9.41758C9.64296 8.93928 9.07315 8.71271 8.52135 8.80711C8.68329 8.31622 8.9352 7.92603 9.2231 7.74981V7.7624ZM5.33045 10.5693C5.4504 10.4875 5.57636 10.4497 5.72031 10.4497C5.82228 10.4497 5.93024 10.4686 6.0502 10.5126C6.24213 10.5819 6.36809 10.7203 6.36809 10.7203C6.42207 10.777 6.48805 10.8147 6.56602 10.821C6.69797 10.8336 6.79994 10.7896 6.9079 10.7518C7.2078 10.6448 7.57367 10.7644 7.84358 11.0602C8.02951 11.2679 8.42538 11.8469 8.04751 12.8538C7.7956 13.5272 7.30376 14.0118 6.75196 14.2069C7.09984 13.2755 6.97388 12.3566 6.42207 11.7525C5.99622 11.2867 5.39042 11.1042 4.83861 11.293C4.96457 10.9721 5.13851 10.7077 5.33644 10.5756L5.33045 10.5693ZM2.73934 12.8286C2.81731 12.7783 2.89528 12.7531 2.97926 12.7531C3.04523 12.7531 3.11121 12.7657 3.18319 12.7972C3.32114 12.8538 3.41711 12.9734 3.41711 12.9734C3.47109 13.0489 3.55506 13.0993 3.65102 13.0993C3.78898 13.1119 3.89094 13.0489 3.98091 12.9986C4.14885 12.9105 4.35278 12.9482 4.53272 13.1119C4.86261 13.4139 5.13251 14.1503 4.79063 15.2453C4.6047 15.8432 4.2928 16.3215 3.92693 16.6173C3.84296 16.5607 3.76499 16.4977 3.68701 16.4411C3.70501 16.3341 3.729 16.2271 3.735 16.1264C3.74699 16.0194 3.70501 15.9124 3.62103 15.8432L3.51907 15.7551C3.01524 15.3209 2.63138 14.7985 2.40945 14.2447C2.36147 14.1314 2.2595 14.0559 2.13955 14.0559C2.12755 14.0559 2.12155 14.0622 2.10956 14.0622C2.24751 13.4643 2.48143 12.9986 2.75133 12.8286H2.73934ZM28.8123 16.932C27.7267 19.4305 24.3439 21.5199 18.7478 23.1436C9.90687 25.7051 4.65268 23.7919 2.68536 21.1486C2.2595 20.5696 1.9716 19.9403 1.79167 19.2732C1.89963 19.4683 2.01959 19.6571 2.16954 19.8396C2.22352 19.9592 2.30749 20.0661 2.43344 20.148C2.52941 20.2109 2.63138 20.2864 2.73934 20.3619C3.15919 20.6577 3.62703 20.9976 4.03489 21.1423C4.06488 21.1549 4.10087 21.1612 4.13086 21.1612C4.16085 21.1612 4.19084 21.1612 4.21483 21.1486C4.21483 21.1486 4.22083 21.1486 4.22683 21.1486C4.43675 21.457 4.93458 21.6017 6.08618 21.8472C6.50004 21.9353 6.82393 21.9982 7.08184 21.9982C7.23779 21.9982 7.36374 21.9668 7.47771 21.9101C7.68163 22.2185 7.98753 22.2185 8.47936 22.2122C8.71928 22.2122 9.03717 22.2059 9.46302 22.2248L9.72693 22.2374C9.91287 22.2437 10.0808 22.2563 10.2248 22.2563C10.6146 22.2563 10.8545 22.1996 11.0225 21.9731C11.0405 21.9856 11.0585 22.0045 11.0705 22.0171C11.1364 22.0675 11.2144 22.1115 11.2984 22.1493C11.3344 22.1682 11.3764 22.1745 11.4123 22.1745C11.4123 22.1745 11.4243 22.1745 11.4303 22.1745C12.0781 22.1367 12.8459 22.0675 13.5656 21.885C13.8175 21.822 13.9975 21.671 14.1234 21.4822C14.1714 21.5073 14.2134 21.5388 14.2674 21.5577C14.3034 21.5703 14.3393 21.5766 14.3753 21.5766C14.3813 21.5766 14.3933 21.5766 14.3993 21.5766C15.0471 21.5199 15.8088 21.4381 16.5226 21.243C16.8765 21.1486 17.0744 20.8969 17.1944 20.5948C17.4103 20.6388 17.6202 20.664 17.8121 20.664C18.5259 20.664 19.0537 20.3871 19.5156 20.0724C19.6175 20.0032 19.7135 19.9277 19.7975 19.8459C19.9234 19.7263 20.0254 19.5878 20.1153 19.4431C20.2833 19.4431 20.4572 19.4116 20.6312 19.3487C20.7451 19.3109 20.8651 19.2732 20.985 19.2354C21.3629 19.1221 21.7948 18.9963 22.1307 18.713C22.3046 18.5683 22.4485 18.3732 22.5685 18.1655C22.6105 18.1655 22.6525 18.1655 22.6945 18.1655C23.7141 18.1655 24.6498 17.3914 25.0217 17.0453C25.0396 17.0327 25.0516 17.0138 25.0636 16.9949C25.0996 16.9446 25.1236 16.9068 25.1476 16.8565C25.1596 16.8565 25.1656 16.8628 25.1776 16.8691C25.2016 16.8753 25.2196 16.8816 25.2436 16.8816C25.3036 16.8816 25.3635 16.8816 25.4175 16.8816C26.2332 16.8816 26.941 16.5355 27.7507 15.7425C27.8347 15.6607 27.8947 15.5726 27.9546 15.4845C28.3925 15.3964 28.8363 15.1761 29.2082 14.7607C29.2382 15.5285 29.1062 16.246 28.8123 16.932Z" fill="#FF8300"/>
</g>
<defs>
<clipPath id="clip0_272_746">
<rect width="29" height="19" fill="white" transform="translate(1 6)"/>
</clipPath>
</defs>
</svg>
