<svg width="348" height="208" viewBox="0 0 348 208" fill="none" xmlns="http://www.w3.org/2000/svg">
<g filter="url(#filter0_d_518_4762)">
<g clip-path="url(#clip0_518_4762)">
<rect x="4" width="340" height="200" rx="16" fill="#0031C8" fill-opacity="0.1" shape-rendering="crispEdges"/>
<rect opacity="0.9" x="4" width="340" height="203.046" rx="16" fill="white"/>
<path opacity="0.5" d="M219.252 26.896V24.22H220.728V34.552H219.252V30.928H217.716V29.656H219.252V28.156H217.92C217.428 29.98 216.324 31.516 214.26 32.74L213.36 31.636C215.544 30.304 216.504 28.708 216.708 26.548H213.984V25.288H218.28C218.28 25.852 218.244 26.38 218.184 26.896H219.252ZM221.52 23.968H223.02V35.032H221.52V23.968ZM226.187 27.292C226.187 28.144 226.799 28.66 227.639 28.66C228.467 28.66 229.091 28.144 229.091 27.292C229.091 26.428 228.467 25.924 227.639 25.924C226.799 25.924 226.187 26.428 226.187 27.292ZM230.627 27.292C230.627 28.864 229.331 29.992 227.639 29.992C225.935 29.992 224.639 28.864 224.639 27.292C224.639 25.72 225.935 24.58 227.639 24.58C229.331 24.58 230.627 25.72 230.627 27.292ZM225.887 32.212V30.94H233.255V35.044H231.671V32.212H225.887ZM234.671 26.704H233.255V27.808H234.671V29.104H233.255V30.496H231.671V23.98H233.255V25.42H234.671V26.704ZM237.61 26.668C237.61 27.34 238.126 27.724 238.882 27.724C239.638 27.724 240.178 27.34 240.178 26.668C240.178 25.996 239.638 25.612 238.882 25.612C238.126 25.612 237.61 25.996 237.61 26.668ZM242.194 29.404L242.29 30.52C240.058 30.94 237.574 30.976 235.75 30.976L235.558 29.716C236.314 29.716 237.19 29.716 238.102 29.692V28.84C236.926 28.588 236.134 27.76 236.134 26.668C236.134 25.348 237.286 24.424 238.882 24.424C240.49 24.424 241.642 25.348 241.642 26.668C241.642 27.748 240.862 28.576 239.686 28.84V29.632C240.538 29.584 241.402 29.524 242.194 29.404ZM238.582 31.696V33.58H244.726V34.84H236.998V31.696H238.582ZM244.354 27.448H245.746V28.756H244.354V32.416H242.77V23.98H244.354V27.448ZM250.725 30.832V32.524H252.657V30.832H250.725ZM254.217 32.524H256.641V33.82H246.621V32.524H249.165V30.832H247.785V27.124H253.953V25.948H247.773V24.688H255.513V28.36H249.357V29.572H255.765V30.832H254.217V32.524Z" fill="#333333"/>
<path opacity="0.5" d="M291.512 29.32V30.592H287.264V35.032H285.656V30.592H281.528V29.32H288.488C288.764 27.916 288.788 26.836 288.788 25.888H282.668V24.616H290.336V25.612C290.336 26.644 290.336 27.772 290.06 29.32H291.512ZM294.343 26.356V31.036H295.759V26.356H294.343ZM292.867 32.272V25.108H297.223V32.272H292.867ZM300.535 23.968H302.035V35.02H300.535V29.464H299.611V34.528H298.135V24.148H299.611V28.192H300.535V23.968ZM308.418 29.824H309.378V27.688H308.406C308.454 28.024 308.478 28.384 308.478 28.768C308.478 29.14 308.454 29.5 308.418 29.824ZM306.09 31.3C306.702 31.3 307.062 30.46 307.062 28.768C307.062 27.076 306.702 26.248 306.09 26.248C305.466 26.248 305.106 27.076 305.106 28.768C305.106 30.46 305.466 31.3 306.09 31.3ZM309.378 26.416V24.16H310.854V34.528H309.378V31.108H308.118C307.71 32.176 307.002 32.788 306.09 32.788C304.614 32.788 303.69 31.276 303.69 28.768C303.69 26.272 304.614 24.76 306.09 24.76C306.99 24.76 307.698 25.348 308.106 26.416H309.378ZM311.574 23.968H313.074V35.02H311.574V23.968ZM316.265 27.292C316.265 28.144 316.877 28.66 317.717 28.66C318.545 28.66 319.169 28.144 319.169 27.292C319.169 26.428 318.545 25.924 317.717 25.924C316.877 25.924 316.265 26.428 316.265 27.292ZM320.705 27.292C320.705 28.864 319.409 29.992 317.717 29.992C316.013 29.992 314.717 28.864 314.717 27.292C314.717 25.72 316.013 24.58 317.717 24.58C319.409 24.58 320.705 25.72 320.705 27.292ZM315.965 32.212V30.94H323.333V35.044H321.749V32.212H315.965ZM324.749 26.704H323.333V27.808H324.749V29.104H323.333V30.496H321.749V23.98H323.333V25.42H324.749V26.704Z" fill="#333333"/>
<path d="M17.89 34.502V33.032H26.85V37.218H25.002V34.502H17.89ZM19.92 27.166V28.174H24.946V27.166H19.92ZM23.336 30.68H28.264V32.15H16.602V30.68H21.488V29.616H18.086V24.646H19.92V25.78H24.946V24.646H26.78V29.616H23.336V30.68ZM34.4649 27.068V27.782C34.4649 29.882 35.5009 32.108 37.6569 33.004L36.6489 34.46C35.1509 33.816 34.1289 32.556 33.5549 31.002C32.9809 32.682 31.9449 34.096 30.4329 34.782L29.3829 33.312C31.5389 32.346 32.5889 29.98 32.5889 27.782V27.068H29.9009V25.542H37.1249V27.068H34.4649ZM38.3149 24.31H40.1629V37.204H38.3149V24.31ZM48.1558 35.818C49.8778 35.818 50.7598 35.524 50.7598 34.866C50.7598 34.208 49.8778 33.928 48.1558 33.928C46.4338 33.928 45.5518 34.208 45.5518 34.866C45.5518 35.524 46.4338 35.818 48.1558 35.818ZM48.1558 32.528C50.9418 32.528 52.6358 33.368 52.6358 34.866C52.6358 36.364 50.9418 37.218 48.1558 37.218C45.3698 37.218 43.6898 36.364 43.6898 34.866C43.6898 33.368 45.3698 32.528 48.1558 32.528ZM46.8258 29.35V30.428H49.5138V29.364C49.1078 29.406 48.6598 29.434 48.1838 29.434C47.6938 29.434 47.2458 29.406 46.8258 29.35ZM48.1838 25.906C46.4338 25.906 45.4258 26.256 45.4258 26.984C45.4258 27.684 46.4338 28.048 48.1838 28.048C49.9478 28.048 50.9558 27.684 50.9558 26.984C50.9558 26.256 49.9478 25.906 48.1838 25.906ZM51.3618 30.428H54.0078V31.884H42.3598V30.428H44.9778V28.874C44.0538 28.454 43.5218 27.81 43.5218 26.984C43.5218 25.444 45.3418 24.506 48.1838 24.506C51.0398 24.506 52.8598 25.444 52.8598 26.984C52.8598 27.824 52.3138 28.468 51.3618 28.888V30.428ZM66.9007 30.54V32.024H61.9447V37.204H60.0687V32.024H55.2527V30.54H63.3727C63.6947 28.902 63.7227 27.642 63.7227 26.536H56.5827V25.052H65.5287V26.214C65.5287 27.418 65.5287 28.734 65.2067 30.54H66.9007ZM78.8915 30.022L77.9255 31.45C76.5675 31.002 75.6295 30.134 75.0835 29.042C74.5235 30.302 73.5295 31.296 72.0595 31.814L71.0935 30.358C73.2495 29.644 74.1175 27.922 74.1175 26.172V25.01H75.9935V26.326C75.9935 27.88 76.8615 29.392 78.8915 30.022ZM77.2255 35.776C78.8635 35.776 79.7455 35.44 79.7455 34.712C79.7455 33.998 78.8635 33.662 77.2255 33.662C75.5735 33.662 74.6915 33.998 74.6915 34.712C74.6915 35.44 75.5735 35.776 77.2255 35.776ZM77.2255 32.234C79.8995 32.234 81.5795 33.158 81.5795 34.712C81.5795 36.28 79.8995 37.204 77.2255 37.204C74.5375 37.204 72.8575 36.28 72.8575 34.712C72.8575 33.158 74.5375 32.234 77.2255 32.234ZM81.4395 27.306H83.1475V28.832H81.4395V31.94H79.5915V24.324H81.4395V27.306ZM88.2844 25.43V27.53C88.2844 29.616 88.8444 31.758 90.5944 32.92L89.5864 34.348C88.4944 33.676 87.8084 32.584 87.4024 31.282C86.9544 32.71 86.1984 33.942 85.0364 34.642L83.9304 33.256C85.8204 32.108 86.5064 29.798 86.5064 27.6V25.43H88.2844ZM90.8604 28.664V24.52H92.5824V36.63H90.8604V30.162H89.2364V28.664H90.8604ZM93.4784 24.31H95.2284V37.204H93.4784V24.31ZM109.151 34.138V31.744H107.471V30.274H109.151V28.986H107.471V27.516H109.151V24.31H110.999V34.138H109.151ZM107.331 25.668V27.11H100.261V25.668H102.963V24.268H104.811V25.668H107.331ZM102.599 30.092C102.599 30.82 103.131 31.212 103.887 31.212C104.629 31.212 105.161 30.82 105.161 30.092C105.161 29.392 104.629 28.986 103.887 28.986C103.131 28.986 102.599 29.392 102.599 30.092ZM106.897 30.092C106.897 31.59 105.637 32.64 103.887 32.64C102.123 32.64 100.863 31.59 100.863 30.092C100.863 28.608 102.123 27.572 103.887 27.572C105.637 27.572 106.897 28.608 106.897 30.092ZM104.335 35.51H111.279V36.98H102.487V33.34H104.335V35.51ZM120.588 25.234V26.564H113.266V25.234H116.01V24.212H117.858V25.234H120.588ZM115.534 28.734C115.534 29.168 116.052 29.378 116.934 29.378C117.816 29.378 118.32 29.168 118.32 28.734C118.32 28.3 117.816 28.076 116.934 28.076C116.052 28.076 115.534 28.3 115.534 28.734ZM120.91 30.932L121.036 32.164C118.348 32.654 115.394 32.682 113.14 32.682L112.944 31.282C113.868 31.282 114.904 31.282 116.01 31.254V30.526C114.624 30.316 113.784 29.686 113.784 28.734C113.784 27.572 115.016 26.886 116.934 26.886C118.838 26.886 120.07 27.572 120.07 28.734C120.07 29.672 119.23 30.316 117.858 30.512V31.184C118.908 31.128 119.93 31.058 120.91 30.932ZM118.992 35.888C120.756 35.888 121.54 35.678 121.54 35.188C121.54 34.698 120.756 34.474 119.006 34.474C117.256 34.474 116.472 34.698 116.472 35.188C116.472 35.678 117.256 35.888 118.992 35.888ZM119.006 33.144C121.778 33.144 123.402 33.858 123.402 35.188C123.402 36.518 121.778 37.218 119.006 37.218C116.234 37.218 114.61 36.518 114.61 35.188C114.61 33.858 116.234 33.144 119.006 33.144ZM123.318 27.964H124.942V29.49H123.318V33.004H121.47V24.31H123.318V27.964Z" fill="#333333"/>
<path opacity="0.2" d="M4.47222 52.2842H344.472" stroke="#979797" stroke-linecap="square"/>
<path fill-rule="evenodd" clip-rule="evenodd" d="M28.5556 82.0974V84.5259C27.4024 85.5502 26.6667 87.0995 26.6667 88.8324C26.6667 91.9137 28.9938 94.4162 31.8612 94.4162C33.9918 94.4162 35.825 93.0335 36.6259 91.0578L37.8046 92.9736C36.5409 95.0629 34.3498 96.4467 31.8612 96.4467C27.9512 96.4467 24.7778 93.0345 24.7778 88.8324C24.7778 85.9127 26.3097 83.3746 28.5556 82.0974ZM38.0001 82.2335C38.5214 82.2335 38.9445 82.6883 38.9445 83.2487C38.9445 83.8091 38.5214 84.2639 38.0001 84.2639C36.8809 84.2639 34.9552 84.269 34.2223 84.2639C34.2223 86.9238 37.661 85.205 39.2033 87.7594C39.8889 88.8954 41.0478 90.803 41.6494 91.9127C41.7325 92.066 41.7741 92.2203 41.7778 92.3857C41.7844 92.7431 41.6135 93.1076 41.3037 93.2995C41.0865 93.4335 40.4226 93.5908 40.0136 92.9279C39.3808 91.9015 38.6442 90.6832 38.1285 89.8568C37.3899 88.6731 36.8932 88.3756 34.2223 88.3248C32.2966 88.2883 30.4445 87.8883 30.4445 85.2791V81.2182C30.4445 80.6791 30.6428 80.1634 30.9979 79.7827C31.3521 79.401 31.8319 79.1878 32.3334 79.1878C32.8339 79.1878 33.3147 79.401 33.6688 79.7827C34.023 80.1634 34.2223 80.6791 34.2223 81.2182V82.2335H38.0001ZM32.3334 72.0812C33.8974 72.0812 35.1667 73.4456 35.1667 75.1269C35.1667 76.8081 33.8974 78.1725 32.3334 78.1725C30.7694 78.1725 29.5001 76.8081 29.5001 75.1269C29.5001 73.4456 30.7694 72.0812 32.3334 72.0812Z" fill="#386AB7"/>
<path fill-rule="evenodd" clip-rule="evenodd" d="M36.111 125.888C36.6323 125.888 37.0554 125.433 37.0554 124.873C37.0554 124.313 36.6323 123.858 36.111 123.858H32.3332V122.843C32.3332 122.304 32.1339 121.788 31.7798 121.407C31.4256 121.025 30.9449 120.812 30.4443 120.812C29.9428 120.812 29.4631 121.025 29.1089 121.407C28.7538 121.788 28.5554 122.304 28.5554 122.843V126.904H25.4694C25.1428 126.297 24.5324 125.888 23.8332 125.888C22.79 125.888 21.9443 126.797 21.9443 127.919C21.9443 129.04 22.79 129.949 23.8332 129.949C24.5324 129.949 25.1428 129.541 25.4694 128.934H28.627C28.7206 130.553 28.873 132.151 28.873 132.151L31.997 132.225C31.997 132.225 32.1349 130.717 32.2341 128.934H38.2526C38.5792 129.541 39.1896 129.949 39.8888 129.949C40.932 129.949 41.7777 129.04 41.7777 127.919C41.7777 126.797 40.932 125.888 39.8888 125.888C39.1896 125.888 38.5792 126.297 38.2526 126.904H32.3193C32.3282 126.556 32.3332 126.214 32.3332 125.888C32.831 125.892 33.8792 125.891 34.851 125.889H34.8514H34.8523H34.8526H34.8529C35.3112 125.889 35.7525 125.888 36.111 125.888ZM33.2777 116.751C33.2777 115.07 32.0083 113.706 30.4443 113.706C28.8803 113.706 27.611 115.07 27.611 116.751C27.611 118.432 28.8803 119.797 30.4443 119.797C32.0083 119.797 33.2777 118.432 33.2777 116.751Z" fill="#DBB73A"/>
<path d="M58.312 82.112L57.672 83.44C55.272 83.056 53.304 81.84 52.36 80.176C51.432 81.856 49.432 83.056 47.032 83.44L46.392 82.112C49.336 81.696 51.48 79.92 51.48 78.016V77.248H53.224V78.016C53.224 79.888 55.4 81.696 58.312 82.112ZM58.872 84.8V86.144H53.128V91.248H51.48V86.144H45.816V84.8H58.872ZM67.0308 89.968C69.1428 89.968 70.3428 89.504 70.3428 88.608C70.3428 87.728 69.1428 87.248 67.0308 87.248C64.9188 87.248 63.7348 87.728 63.7348 88.608C63.7348 89.504 64.9188 89.968 67.0308 89.968ZM67.0308 85.984C70.1348 85.984 72.0068 86.944 72.0068 88.608C72.0068 90.288 70.1348 91.248 67.0308 91.248C63.9427 91.248 62.0548 90.288 62.0548 88.608C62.0548 86.944 63.9427 85.984 67.0308 85.984ZM67.8948 83.76H73.6068V85.104H60.5508V83.76H66.2468V82.32H62.1668V77.424H72.0068V78.736H63.7988V80.992H72.1028V82.32H67.8948V83.76ZM87.1255 76.784V85.344H85.4615V76.784H87.1255ZM84.1975 77.808V78.944H75.8615V77.808H79.2055V76.624H80.8535V77.808H84.1975ZM81.9255 81.264C81.9255 80.704 81.2215 80.384 80.0215 80.384C78.8375 80.384 78.1335 80.704 78.1335 81.264C78.1335 81.84 78.8375 82.144 80.0215 82.144C81.2215 82.144 81.9255 81.84 81.9255 81.264ZM76.5655 81.264C76.5655 80.048 77.9255 79.328 80.0215 79.328C82.1175 79.328 83.4775 80.048 83.4775 81.264C83.4775 82.48 82.1175 83.2 80.0215 83.2C77.9255 83.2 76.5655 82.48 76.5655 81.264ZM79.1255 89.968H87.5575V91.104H77.4935V87.936H85.4935V87.008H77.4615V85.904H79.2215V84.896C77.8935 84.944 76.6295 84.944 75.5095 84.944L75.3015 83.792C78.0055 83.792 81.5255 83.76 84.5815 83.408L84.6775 84.416C83.4295 84.624 82.1335 84.736 80.8695 84.816V85.904H87.1255V88.976H79.1255V89.968ZM94.3083 80.688V81.2C94.3083 83.456 95.2843 85.76 97.2683 86.832L96.3563 88.064C94.9963 87.328 94.0683 86 93.5403 84.432C93.0283 86.128 92.1163 87.584 90.7403 88.384L89.7963 87.136C91.7803 85.968 92.7403 83.504 92.7403 81.2V80.688H90.2443V79.328H92.7403V77.28H94.3083V79.328H96.7883V80.688H94.3083ZM97.8123 82.384V77.072H99.3643V90.528H97.8123V83.728H95.8603V82.384H97.8123ZM100.724 76.784H102.292V91.232H100.724V76.784ZM108.579 86.56C109.827 86.56 110.675 85.216 110.675 82.928C110.675 80.688 109.827 79.328 108.579 79.328C107.347 79.328 106.499 80.688 106.499 82.928C106.499 85.216 107.347 86.56 108.579 86.56ZM115.027 76.768H116.691V91.264H115.027V83.504H112.227C112.035 86.304 110.563 88.032 108.579 88.032C106.451 88.032 104.931 86.064 104.931 82.928C104.931 79.824 106.451 77.84 108.579 77.84C110.515 77.84 111.987 79.504 112.211 82.16H115.027V76.768Z" fill="#333333"/>
<path d="M47.608 120.36C47.608 121.688 48.568 122.552 49.832 122.552C51.096 122.552 52.072 121.688 52.072 120.36C52.072 119.048 51.096 118.184 49.832 118.184C48.568 118.184 47.608 119.048 47.608 120.36ZM53.688 120.36C53.688 122.472 52.024 123.976 49.832 123.976C47.656 123.976 45.992 122.472 45.992 120.36C45.992 118.248 47.656 116.76 49.832 116.76C52.024 116.76 53.688 118.248 53.688 120.36ZM49.608 125.288V128.616H57.672V129.96H47.944V125.288H49.608ZM57.096 120.072H59.144V121.432H57.096V126.376H55.448V115.784H57.096V120.072ZM68.2308 119.656H70.8548V115.8H72.5028V126.36H70.8548V121.016H68.2308V119.656ZM69.1267 123.032L68.3108 124.312C66.7108 123.768 65.5428 122.632 64.9348 121.208C64.2948 122.776 63.0788 124.04 61.3668 124.632L60.5188 123.336C62.7588 122.552 64.0708 120.648 64.0708 118.696V118.2H61.0148V116.872H68.7428V118.2H65.7348V118.696C65.7348 120.472 66.9668 122.28 69.1267 123.032ZM64.7908 128.616H72.8708V129.96H63.1428V125.448H64.7908V128.616ZM87.5095 120.776L86.8695 122.056C84.5815 121.672 82.6775 120.504 81.7495 118.92C80.8375 120.504 78.9655 121.672 76.6775 122.056L76.0215 120.776C78.8855 120.344 80.9175 118.6 80.9175 116.728V116.184H82.6135V116.728C82.6135 118.616 84.6455 120.36 87.5095 120.776ZM78.5495 125.8V128.616H86.8535V129.96H76.8855V125.8H78.5495ZM82.5815 123.416H88.3415V124.76H75.2375V123.416H80.9335V121.176H82.5815V123.416ZM98.4523 122.28L97.6683 123.576C96.0203 123.064 94.8523 122.008 94.2123 120.664C93.5723 122.136 92.3563 123.32 90.6123 123.88L89.7963 122.568C92.0843 121.848 93.3483 120.088 93.3483 118.184V117.992H90.2763V116.648H98.0363V117.992H95.0283V118.168C95.0283 119.912 96.2443 121.592 98.4523 122.28ZM99.6203 128.728V127.192H93.6363V128.728H99.6203ZM99.6203 125.912V124.376H101.252V130.056H92.0043V124.376H93.6363V125.912H99.6203ZM103.3 119V120.36H101.252V123.736H99.6043V115.768H101.252V119H103.3ZM114.915 115.768H116.579V130.264H114.915V115.768ZM108.883 116.84C111.043 116.84 112.611 118.824 112.611 121.928C112.611 125.064 111.043 127.032 108.883 127.032C106.739 127.032 105.171 125.064 105.171 121.928C105.171 118.824 106.739 116.84 108.883 116.84ZM108.883 118.328C107.635 118.328 106.755 119.688 106.755 121.928C106.755 124.2 107.635 125.56 108.883 125.56C110.147 125.56 111.027 124.2 111.027 121.928C111.027 119.688 110.147 118.328 108.883 118.328Z" fill="#333333"/>
<path d="M51.144 154.584V155.96C51.144 158.36 52.632 160.856 54.888 161.816L53.976 163.112C52.296 162.376 51 160.808 50.328 158.936C49.688 160.952 48.392 162.664 46.696 163.48L45.752 162.168C47.992 161.128 49.48 158.44 49.48 155.96V154.584H46.264V153.224H54.36V154.584H51.144ZM56.04 151.784H57.704V166.232H56.04V151.784ZM63.7988 154.296V158.376C64.4227 158.36 65.0788 158.328 65.7188 158.296V154.296H63.7988ZM69.2228 157.992L69.3348 159.192C66.4388 159.704 63.1268 159.752 60.6948 159.752L60.5188 158.392C61.0468 158.392 61.6228 158.392 62.2148 158.392V154.296H60.9028V152.952H68.6308V154.296H67.3188V158.184C67.9588 158.136 68.6148 158.056 69.2228 157.992ZM67.1268 164.936C69.1748 164.936 70.3268 164.44 70.3268 163.544C70.3268 162.632 69.1748 162.152 67.1268 162.152C65.1108 162.152 63.9588 162.632 63.9588 163.544C63.9588 164.44 65.1108 164.936 67.1268 164.936ZM67.1268 160.856C70.1188 160.856 71.9588 161.848 71.9588 163.544C71.9588 165.24 70.1188 166.232 67.1268 166.232C64.1508 166.232 62.3268 165.24 62.3268 163.544C62.3268 161.848 64.1508 160.856 67.1268 160.856ZM71.8148 155.384H73.8628V156.744H71.8148V160.568H70.1668V151.784H71.8148V155.384ZM85.4775 151.768H87.1415V166.264H85.4775V151.768ZM79.4455 152.84C81.6055 152.84 83.1735 154.824 83.1735 157.928C83.1735 161.064 81.6055 163.032 79.4455 163.032C77.3015 163.032 75.7335 161.064 75.7335 157.928C75.7335 154.824 77.3015 152.84 79.4455 152.84ZM79.4455 154.328C78.1975 154.328 77.3175 155.688 77.3175 157.928C77.3175 160.2 78.1975 161.56 79.4455 161.56C80.7095 161.56 81.5895 160.2 81.5895 157.928C81.5895 155.688 80.7095 154.328 79.4455 154.328Z" fill="#333333"/>
<path fill-rule="evenodd" clip-rule="evenodd" d="M36.111 152.284L37.9999 152.685L38.9881 154.221L41.5367 155.012L42.9826 155.849L43.6665 157.36L42.9826 158.424L42.1027 157.789L41.5367 157.36L40.5662 156.655H38.9881L37.9999 157.36L26.2865 172.589V173.535C26.2865 173.535 25.3684 174.771 25.3402 174.619C25.3121 174.467 23.1087 173.713 22.8887 172.589L24.0068 171.002H24.9178L27.2727 168.291L36.7589 156.216C36.7589 156.216 37.0849 154.866 36.7589 154.221L35.793 152.712L36.111 152.284Z" fill="#6D9F8B"/>
</g>
</g>
<defs>
<filter id="filter0_d_518_4762" x="0" y="0" width="348" height="208" filterUnits="userSpaceOnUse" color-interpolation-filters="sRGB">
<feFlood flood-opacity="0" result="BackgroundImageFix"/>
<feColorMatrix in="SourceAlpha" type="matrix" values="0 0 0 0 0 0 0 0 0 0 0 0 0 0 0 0 0 0 127 0" result="hardAlpha"/>
<feOffset dy="4"/>
<feGaussianBlur stdDeviation="2"/>
<feComposite in2="hardAlpha" operator="out"/>
<feColorMatrix type="matrix" values="0 0 0 0 0 0 0 0 0 0 0 0 0 0 0 0 0 0 0.1 0"/>
<feBlend mode="normal" in2="BackgroundImageFix" result="effect1_dropShadow_518_4762"/>
<feBlend mode="normal" in="SourceGraphic" in2="effect1_dropShadow_518_4762" result="shape"/>
</filter>
<clipPath id="clip0_518_4762">
<rect x="4" width="340" height="200" rx="16" fill="white"/>
</clipPath>
</defs>
</svg>
