<svg width="110" height="110" viewBox="0 0 110 110" fill="none" xmlns="http://www.w3.org/2000/svg">
<circle cx="55" cy="55" r="55" fill="#EDE8E4"/>
<g clip-path="url(#clip0_2059_2)">
<path d="M72.4738 25.8722C76.1715 27.4924 78.5205 31.0247 80.6176 34.4037C82.4998 37.4469 84.3598 40.534 85.6269 43.8619C87.4795 48.7151 88.0649 54.0208 90.4658 58.6332C91.9552 61.4868 94.1783 64.2308 94.1042 67.442C94.0672 69.2373 93.2891 70.945 92.2887 72.4557C89.873 76.1194 86.1456 78.8634 82.033 80.5712C77.9203 82.2789 73.4371 83.0014 68.9688 83.1693C66.1529 83.2788 63.3074 83.1693 60.5508 82.6146C56.5418 81.8118 52.7923 80.1041 49.0871 78.4109C46.5306 77.2433 43.9148 76.0318 41.9141 74.0978" fill="#524637"/>
<path d="M63.7817 24.8871C61.0695 21.9022 58.1944 18.9829 54.1706 18.5888C51.2065 18.2969 48.1684 18.1072 45.308 18.9027C39.8022 20.4426 33.7925 25.4125 31.0656 30.3606C29.5317 33.1339 28.8573 36.272 28.02 39.3226C27.1826 42.3586 26.16 45.3435 24.9596 48.2627C23.7369 51.2477 22.1659 53.7582 20.5208 56.5096C19.0388 58.9909 16.2674 61.6912 16.134 64.5739C16.0525 66.3765 15.682 68.1646 16.097 69.9234C16.7046 72.4923 18.1644 75.0977 19.6835 77.2652C21.4619 79.7977 25.708 81.5346 28.635 82.549C31.5621 83.5635 34.6892 83.9211 37.7866 84.14C41.9438 84.4319 46.2417 84.4757 50.1321 82.9942" fill="#524637"/>
<path d="M34.5405 53.3786C33.5253 52.3861 32.0136 51.919 30.6056 52.1598C29.1977 52.4007 27.938 53.3494 27.3229 54.6193C26.6856 55.9475 26.7597 57.5385 27.3081 58.8959C27.8564 60.2607 28.8494 61.4138 29.9758 62.3771C31.0132 63.2675 32.1766 64.0046 33.4215 64.5811C34.3774 65.019 35.4 65.3693 36.2078 66.0334" fill="#EDBFA9"/>
<path d="M74.3334 54.2106C75.4745 53.0283 77.1863 52.4737 78.7721 52.7583C80.3579 53.0429 81.788 54.1741 82.4772 55.6848C83.2034 57.2612 83.1145 59.1587 82.492 60.7788C81.8695 62.399 80.7506 63.7783 79.4835 64.9241C78.3126 65.9824 77.001 66.8654 75.5931 67.5441C74.5112 68.0696 73.3626 68.4783 72.4512 69.2738" fill="#EDBFA9"/>
<path d="M77.4904 37.4834C79.054 42.198 79.3949 47.3139 78.8835 52.2547C78.5797 55.225 77.7498 58.1151 76.8606 60.9686C75.3118 65.9532 73.5408 70.9377 70.5841 75.2582C67.6274 79.5786 63.3443 83.2204 58.209 84.4683C56.0749 84.9865 53.8074 85.0814 51.6955 84.4975C49.6206 83.921 47.7829 82.7314 45.9896 81.5564C43.8481 80.1552 41.6769 78.7248 40.0911 76.7324C38.1644 74.3022 37.2826 71.2443 36.5342 68.2521C34.0443 58.3048 32.8439 51.4081 32.3696 41.169C32.3696 41.169 33.4219 26.0109 52.4217 26.0109C71.4215 26.0109 76.2752 33.8125 77.4904 37.4907V37.4834Z" fill="#EDBFA9"/>
<path d="M46.3824 56.4803C47.2009 56.4803 47.8645 55.6405 47.8645 54.6047C47.8645 53.5688 47.2009 52.7291 46.3824 52.7291C45.5639 52.7291 44.9004 53.5688 44.9004 54.6047C44.9004 55.6405 45.5639 56.4803 46.3824 56.4803Z" fill="#0A0807"/>
<path d="M65.3894 54.6047C65.3894 55.641 64.7225 56.4803 63.9073 56.4803C63.0922 56.4803 62.4253 55.641 62.4253 54.6047C62.4253 53.5684 63.0922 52.7291 63.9073 52.7291C64.7225 52.7291 65.3894 53.5684 65.3894 54.6047Z" fill="#0A0807"/>
<path d="M62.6256 67.9893C62.8405 67.3471 63.0109 66.61 62.9294 66.1356C62.9739 66.3765 57.972 66.8727 57.6015 66.9019C55.0449 67.1428 54.8523 66.953 51.325 66.756C50.4951 66.7122 47.3383 66.0699 47.2864 66.3838C47.2197 66.7341 47.3013 67.3763 47.5087 68.1207C49.2427 68.7337 53.6148 69.6022 62.633 67.9893H62.6256Z" fill="white"/>
<path d="M50.0875 71.2589C49.7911 71.3099 49.4947 71.3683 49.1982 71.4413C49.4205 71.6967 49.6651 71.9376 49.9244 72.1346C50.8507 72.8352 51.8511 73.3899 52.9182 73.5286C54.6225 73.7475 56.4899 73.8351 58.1127 73.1345C58.7648 72.8498 59.4021 72.5214 59.9727 72.0325C60.1802 71.85 60.3877 71.653 60.5803 71.4413C60.0468 71.2662 59.4836 71.1567 58.9204 71.091C55.986 70.7115 52.9923 70.7699 50.0801 71.2662L50.0875 71.2589Z" fill="#FF5C5C"/>
<path d="M62.2479 68.9527C62.359 68.7045 62.4998 68.3615 62.6184 67.9893C53.6076 69.6022 49.2355 68.7337 47.4941 68.1207C47.7905 69.1935 48.3611 70.4853 49.1911 71.4413C49.4875 71.3683 49.7839 71.3099 50.0803 71.2589C52.9925 70.7626 55.9862 70.7042 58.9207 71.0837C59.4839 71.1567 60.047 71.2589 60.5806 71.434C61.2401 70.7334 61.8181 69.8941 62.2405 68.9527H62.2479Z" fill="#0A0807"/>
<path d="M53.1922 62.4282C53.0884 62.4282 52.9847 62.3844 52.9106 62.3041L51.3692 60.5307C51.31 60.4577 51.1914 60.3264 51.1766 60.1293C51.1543 59.852 51.347 59.6695 51.4359 59.582C52.4363 58.5967 53.0736 57.1298 53.2144 55.4513C53.3552 53.8092 53.044 52.1598 52.7105 50.7732C52.666 50.5762 52.792 50.3791 52.9847 50.3353C53.1847 50.2915 53.3848 50.4156 53.4293 50.6053C53.7702 52.0504 54.0962 53.7654 53.948 55.5096C53.7924 57.3633 53.081 58.9908 51.9546 60.1001C51.9546 60.1001 51.9472 60.1074 51.9398 60.1147L53.4737 61.8371C53.6071 61.9903 53.5923 62.2239 53.4367 62.3552C53.37 62.4136 53.2811 62.4428 53.1922 62.4428V62.4282Z" fill="#BD9886"/>
<path d="M79.417 55.0499C78.4092 54.7434 76.3566 55.4075 75.5489 56.1081C76.7197 56.2978 77.8905 56.5168 79.0539 56.7649C79.6912 56.9036 80.4396 57.1517 80.6175 57.8012C80.6842 58.0567 80.6471 58.334 80.6175 58.5967C80.5508 59.0711 80.4544 59.5893 80.0913 59.8812C79.7208 60.1804 79.1947 60.1366 78.7279 60.0709C77.9868 59.9761 77.2458 59.8812 76.5122 59.779C76.7716 60.2899 77.2755 60.6475 77.8238 60.7278C77.9868 60.7497 78.1721 60.757 78.2907 60.881C78.4092 61.0051 78.4166 61.2021 78.4092 61.3773C78.2907 63.2675 76.8605 64.9825 75.082 65.3766C76.4752 65.6612 77.935 65.0774 78.9872 64.0849C80.0395 63.0923 80.7138 61.7495 81.1881 60.3629C81.4993 59.4652 82.1662 57.7064 81.4474 56.8963C80.8546 56.2249 80.2321 55.2834 79.4318 55.0426L79.417 55.0499Z" fill="#D4A58E"/>
<path d="M30.0721 53.8603C30.9688 53.6049 32.7843 54.1595 33.5031 54.7507C32.4656 54.9112 31.4282 55.0937 30.3982 55.298C29.835 55.4148 29.1681 55.6191 29.0125 56.1738C28.9532 56.3927 28.9828 56.619 29.0125 56.8379C29.0718 57.232 29.1533 57.6699 29.4793 57.918C29.8128 58.1734 30.2722 58.1297 30.6872 58.0786C31.3393 57.9983 31.9988 57.918 32.6509 57.8377C32.4212 58.261 31.9766 58.5675 31.4875 58.6332C31.3393 58.6551 31.1763 58.6551 31.0725 58.7573C30.9614 58.8595 30.9614 59.0273 30.9688 59.1733C31.0725 60.757 32.3397 62.202 33.918 62.5304C32.6879 62.7712 31.3912 62.275 30.4575 61.4503C29.5312 60.6183 28.931 59.4871 28.5086 58.3267C28.2344 57.575 27.6416 56.1008 28.2789 55.4148C28.805 54.8528 29.3533 54.0573 30.0647 53.853L30.0721 53.8603Z" fill="#D4AB97"/>
<path d="M40.7874 66.0043C42.9851 66.0043 44.7667 65.0044 44.7667 63.771C44.7667 62.5377 42.9851 61.5378 40.7874 61.5378C38.5897 61.5378 36.8081 62.5377 36.8081 63.771C36.8081 65.0044 38.5897 66.0043 40.7874 66.0043Z" fill="#E3A1A1"/>
<path d="M69.8353 50.0653C69.7686 50.0653 69.7093 50.0507 69.65 50.0142C67.9309 49.0217 65.8931 48.5327 63.9071 48.6349C62.9067 48.6859 62.1954 48.8903 61.6915 49.2844C61.5284 49.4085 61.2987 49.3793 61.1728 49.2187C61.0468 49.0581 61.0764 48.8319 61.2394 48.7078C61.8767 48.2189 62.7141 47.9634 63.8775 47.9051C66.0116 47.7956 68.1976 48.321 70.0354 49.3866C70.2132 49.4887 70.2725 49.715 70.1688 49.8828C70.1021 49.9996 69.9761 50.0653 69.8501 50.0653H69.8353Z" fill="#54433B"/>
<path d="M40.3653 50.0653C40.2393 50.0653 40.1133 49.9996 40.0467 49.8828C39.9429 49.7077 40.0022 49.4888 40.18 49.3866C42.0178 48.3211 44.2038 47.8029 46.3379 47.9051C47.5013 47.9635 48.3387 48.2189 48.976 48.7079C49.139 48.8319 49.1686 49.0582 49.0427 49.2187C48.9167 49.3793 48.687 49.4085 48.5239 49.2844C48.0126 48.8903 47.3087 48.686 46.3009 48.6349C44.3149 48.5327 42.2697 49.0217 40.558 50.0142C40.4987 50.0507 40.432 50.0653 40.3727 50.0653H40.3653Z" fill="#54433B"/>
<path d="M67.5013 64.8876C69.7031 64.8876 71.488 63.8878 71.488 62.6544C71.488 61.4211 69.7031 60.4212 67.5013 60.4212C65.2996 60.4212 63.5146 61.4211 63.5146 62.6544C63.5146 63.8878 65.2996 64.8876 67.5013 64.8876Z" fill="#E3A1A1"/>
<path d="M63.1664 26.4999C62.7589 28.3755 62.3439 30.2584 61.9363 32.134C58.0163 30.8641 53.7925 32.6156 50.206 34.6153C48.3015 35.6808 46.4342 36.8339 44.752 38.2278C42.7142 39.921 40.9876 41.928 39.2685 43.9349C38.2829 45.0807 37.29 46.2411 36.6379 47.5985C36.0821 48.7516 35.8005 50.0069 35.556 51.2622C35.2077 53.0502 34.5259 62.1144 37.4085 71.7624C31.3544 70.478 25.8412 63.9754 25.4929 57.8888C25.3373 55.1666 25.9894 52.4591 26.7378 49.8318C28.4273 43.8838 30.643 38.0746 33.3477 32.4989C34.6297 29.8424 36.0673 27.1932 38.2088 25.1497C40.5579 22.9092 43.6405 21.5226 46.8195 20.7417C50.8655 19.7419 55.2745 19.6981 59.0982 21.3547C60.8174 22.0991 62.4921 23.3106 63.0404 25.084" fill="#524637"/>
<path d="M61.8105 32.0975C61.8105 32.0975 65.2117 37.4834 71.1473 43.4168C72.5256 44.7961 75.7787 53.4589 76.3419 54.2325C76.3938 54.3055 78.5872 53.3713 78.9725 52.8969C79.2319 52.5831 78.9651 52.2766 79.017 52.2839C79.1059 52.2985 79.1355 52.3496 79.1874 52.2839C80.0396 50.9921 80.2989 49.4377 80.4842 47.9124C81.0622 43.1613 80.9807 38.1184 78.6835 33.8928C78.1055 32.8273 77.4015 31.842 76.6976 30.8568C75.7787 29.5723 76.4901 29.2293 75.5786 27.9522C75.0821 27.2588 72.9554 25.6241 72.2737 25.1059C71.666 24.6461 70.9398 24.3615 70.221 24.0842C68.1314 23.2887 65.8416 22.5589 63.6852 23.1573C61.7882 23.6828 60.3284 25.1424 58.9575 26.5436" fill="#524637"/>
</g>
<defs>
<clipPath id="clip0_2059_2">
<rect width="78.2222" height="88" fill="white" transform="translate(15.8892 18.3333)"/>
</clipPath>
</defs>
</svg>
