<svg width="240" height="158" viewBox="0 0 240 158" fill="none" xmlns="http://www.w3.org/2000/svg">
<rect width="232" height="150" transform="translate(4)" fill="#F8F8F8"/>
<rect width="232" height="150" transform="translate(4)" fill="#F8F8F8"/>
<g filter="url(#filter0_d_572_8310)">
<g clip-path="url(#clip0_572_8310)">
<rect opacity="0.9" x="4" width="232" height="152.284" rx="16" fill="white"/>
<path d="M27.3892 28.8989V27.8184H33.9752V30.8953H32.6169V28.8989H27.3892ZM28.8814 23.5066V24.2476H32.5757V23.5066H28.8814ZM31.3923 26.0896H35.0146V27.1701H26.4425V26.0896H30.0339V25.3075H27.5333V21.6543H28.8814V22.4879H32.5757V21.6543H33.9238V25.3075H31.3923V26.0896ZM39.5725 23.4346V23.9594C39.5725 25.503 40.334 27.1392 41.9188 27.7978L41.1778 28.868C40.0767 28.3947 39.3255 27.4685 38.9036 26.3263C38.4817 27.5611 37.7202 28.6005 36.6088 29.1047L35.837 28.0242C37.4218 27.3142 38.1936 25.575 38.1936 23.9594V23.4346H36.2178V22.3129H41.5277V23.4346H39.5725ZM42.4024 21.4074H43.7608V30.885H42.4024V21.4074ZM49.6359 29.8662C50.9016 29.8662 51.5499 29.6501 51.5499 29.1665C51.5499 28.6828 50.9016 28.477 49.6359 28.477C48.3702 28.477 47.7218 28.6828 47.7218 29.1665C47.7218 29.6501 48.3702 29.8662 49.6359 29.8662ZM49.6359 27.4479C51.6837 27.4479 52.9289 28.0654 52.9289 29.1665C52.9289 30.2676 51.6837 30.8953 49.6359 30.8953C47.5881 30.8953 46.3532 30.2676 46.3532 29.1665C46.3532 28.0654 47.5881 27.4479 49.6359 27.4479ZM48.6583 25.112V25.9043H50.6341V25.1223C50.3357 25.1531 50.0064 25.1737 49.6565 25.1737C49.2963 25.1737 48.967 25.1531 48.6583 25.112ZM49.6565 22.5805C48.3702 22.5805 47.6292 22.8377 47.6292 23.3729C47.6292 23.8874 48.3702 24.1549 49.6565 24.1549C50.9531 24.1549 51.694 23.8874 51.694 23.3729C51.694 22.8377 50.9531 22.5805 49.6565 22.5805ZM51.9924 25.9043H53.9374V26.9746H45.3756V25.9043H47.2999V24.7621C46.6208 24.4534 46.2297 23.98 46.2297 23.3729C46.2297 22.2409 47.5675 21.5514 49.6565 21.5514C51.7558 21.5514 53.0935 22.2409 53.0935 23.3729C53.0935 23.9903 52.6922 24.4637 51.9924 24.7724V25.9043ZM63.4142 25.9867V27.0775H59.7713V30.885H58.3924V27.0775H54.8524V25.9867H60.821C61.0577 24.7827 61.0782 23.8565 61.0782 23.0436H55.83V21.9528H62.4057V22.8069C62.4057 23.6919 62.4057 24.6592 62.169 25.9867H63.4142ZM72.2279 25.6059L71.5179 26.6556C70.5197 26.3263 69.8302 25.6882 69.4289 24.8856C69.0173 25.8117 68.2866 26.5424 67.2061 26.9231L66.4961 25.8529C68.0808 25.3281 68.7188 24.0623 68.7188 22.776V21.9219H70.0978V22.8892C70.0978 24.0315 70.7358 25.1428 72.2279 25.6059ZM71.0034 29.8354C72.2074 29.8354 72.8557 29.5884 72.8557 29.0533C72.8557 28.5284 72.2074 28.2815 71.0034 28.2815C69.7891 28.2815 69.1408 28.5284 69.1408 29.0533C69.1408 29.5884 69.7891 29.8354 71.0034 29.8354ZM71.0034 27.2318C72.9689 27.2318 74.2037 27.911 74.2037 29.0533C74.2037 30.2058 72.9689 30.885 71.0034 30.885C69.0276 30.885 67.7927 30.2058 67.7927 29.0533C67.7927 27.911 69.0276 27.2318 71.0034 27.2318ZM74.1008 23.6095H75.3563V24.7312H74.1008V27.0157H72.7425V21.4176H74.1008V23.6095ZM79.1321 22.2306V23.7742C79.1321 25.3075 79.5437 26.8819 80.8301 27.7361L80.0891 28.7857C79.2865 28.2918 78.7822 27.4891 78.4838 26.5321C78.1545 27.5817 77.5988 28.4873 76.7447 29.0018L75.9317 27.983C77.321 27.1392 77.8252 25.4413 77.8252 23.8256V22.2306H79.1321ZM81.0256 24.6077V21.5617H82.2913V30.4631H81.0256V25.7088H79.8319V24.6077H81.0256ZM82.9499 21.4074H84.2363V30.885H82.9499V21.4074ZM94.4701 28.6314V26.8717H93.2352V25.7911H94.4701V24.8444H93.2352V23.7639H94.4701V21.4074H95.8285V28.6314H94.4701ZM93.1323 22.4055V23.4655H87.9356V22.4055H89.9217V21.3765H91.28V22.4055H93.1323ZM89.6541 25.6574C89.6541 26.1925 90.0451 26.4806 90.6008 26.4806C91.1462 26.4806 91.5373 26.1925 91.5373 25.6574C91.5373 25.1428 91.1462 24.8444 90.6008 24.8444C90.0451 24.8444 89.6541 25.1428 89.6541 25.6574ZM92.8133 25.6574C92.8133 26.7585 91.8872 27.5303 90.6008 27.5303C89.3042 27.5303 88.3781 26.7585 88.3781 25.6574C88.3781 24.5666 89.3042 23.8051 90.6008 23.8051C91.8872 23.8051 92.8133 24.5666 92.8133 25.6574ZM90.9301 29.6398H96.0343V30.7203H89.5718V28.0448H90.9301V29.6398ZM102.877 22.0865V23.0641H97.4947V22.0865H99.5117V21.3353H100.87V22.0865H102.877ZM99.1618 24.6592C99.1618 24.9782 99.5426 25.1325 100.191 25.1325C100.839 25.1325 101.21 24.9782 101.21 24.6592C101.21 24.3402 100.839 24.1755 100.191 24.1755C99.5426 24.1755 99.1618 24.3402 99.1618 24.6592ZM103.113 26.2748L103.206 27.1804C101.23 27.5405 99.0589 27.5611 97.4021 27.5611L97.258 26.5321C97.9372 26.5321 98.6987 26.5321 99.5117 26.5115V25.9764C98.4929 25.822 97.8755 25.3589 97.8755 24.6592C97.8755 23.8051 98.7811 23.3008 100.191 23.3008C101.59 23.3008 102.496 23.8051 102.496 24.6592C102.496 25.3486 101.879 25.822 100.87 25.9661V26.46C101.642 26.4189 102.393 26.3674 103.113 26.2748ZM101.704 29.9177C103 29.9177 103.576 29.7633 103.576 29.4031C103.576 29.043 103 28.8783 101.714 28.8783C100.428 28.8783 99.8513 29.043 99.8513 29.4031C99.8513 29.7633 100.428 29.9177 101.704 29.9177ZM101.714 27.9007C103.751 27.9007 104.945 28.4255 104.945 29.4031C104.945 30.3808 103.751 30.8953 101.714 30.8953C99.6763 30.8953 98.4826 30.3808 98.4826 29.4031C98.4826 28.4255 99.6763 27.9007 101.714 27.9007ZM104.883 24.0932H106.077V25.2149H104.883V27.7978H103.525V21.4074H104.883V24.0932Z" fill="#333333"/>
<path fill-rule="evenodd" clip-rule="evenodd" d="M37.7447 63.3996V65.2209C36.917 65.9891 36.3889 67.151 36.3889 68.4507C36.3889 70.7615 38.0592 72.6383 40.1172 72.6383C41.6465 72.6383 42.9623 71.6013 43.5371 70.1196L44.3831 71.5564C43.4761 73.1233 41.9034 74.1611 40.1172 74.1611C37.3109 74.1611 35.0332 71.6021 35.0332 68.4507C35.0332 66.2609 36.1327 64.3575 37.7447 63.3996ZM44.524 63.5016C44.8982 63.5016 45.2019 63.8427 45.2019 64.263C45.2019 64.6833 44.8982 65.0244 44.524 65.0244C43.7208 65.0244 42.3386 65.0282 41.8126 65.0244C41.8126 67.0193 44.2807 65.7302 45.3877 67.6459C45.8798 68.4979 46.7115 69.9285 47.1433 70.7607C47.203 70.8757 47.2328 70.9914 47.2355 71.1155C47.2403 71.3835 47.1176 71.6569 46.8952 71.8008C46.7393 71.9013 46.2628 72.0193 45.9693 71.5221C45.5151 70.7523 44.9864 69.8387 44.6162 69.2189C44.0861 68.3311 43.7296 68.108 41.8126 68.07C40.4304 68.0426 39.1011 67.7426 39.1011 65.7858V62.7402C39.1011 62.336 39.2434 61.9492 39.4983 61.6636C39.7525 61.3774 40.0969 61.2175 40.4568 61.2175C40.8161 61.2175 41.1611 61.3774 41.4153 61.6636C41.6695 61.9492 41.8126 62.336 41.8126 62.7402V63.5016H44.524ZM40.4563 55.8877C41.5789 55.8877 42.49 56.911 42.49 58.1719C42.49 59.4327 41.5789 60.456 40.4563 60.456C39.3338 60.456 38.4227 59.4327 38.4227 58.1719C38.4227 56.911 39.3338 55.8877 40.4563 55.8877Z" fill="#386AB7"/>
<path fill-rule="evenodd" clip-rule="evenodd" d="M43.1672 96.2413C43.5413 96.2413 43.845 95.9002 43.845 95.4799C43.845 95.0596 43.5413 94.7185 43.1672 94.7185H40.4557V93.9571C40.4557 93.5528 40.3126 93.166 40.0584 92.8805C39.8042 92.5942 39.4592 92.4343 39.0999 92.4343C38.74 92.4343 38.3956 92.5942 38.1414 92.8805C37.8865 93.166 37.7442 93.5528 37.7442 93.9571V97.0027C37.7442 97.0027 37.7442 97.0027 37.7442 97.0027H35.5296C35.2952 96.5476 34.8571 96.2413 34.3553 96.2413C33.6065 96.2413 32.9995 96.9231 32.9995 97.7641C32.9995 98.6051 33.6065 99.2869 34.3553 99.2869C34.8571 99.2869 35.2952 98.9807 35.5296 98.5255H37.7955C37.8627 99.7401 37.9721 100.938 37.9721 100.938L40.2144 100.994C40.2144 100.994 40.3133 99.8628 40.3845 98.5255H44.7048C44.9392 98.9806 45.3773 99.2867 45.8791 99.2867C46.6278 99.2867 47.2348 98.6049 47.2348 97.7639C47.2348 96.9229 46.6278 96.2411 45.8791 96.2411C45.3772 96.2411 44.939 96.5475 44.7046 97.0027H40.4457C40.452 96.7418 40.4557 96.4858 40.4557 96.2413C40.8131 96.2439 41.5659 96.2429 42.2637 96.2421C42.5928 96.2417 42.9097 96.2413 43.1672 96.2413ZM41.1346 89.3888C41.1346 88.1279 40.2235 87.1046 39.101 87.1046C37.9784 87.1046 37.0674 88.1279 37.0674 89.3888C37.0674 90.6496 37.9784 91.6729 39.101 91.6729C40.2235 91.6729 41.1346 90.6496 41.1346 89.3888Z" fill="#DBB73A"/>
<path d="M67.3918 64.4242L66.9214 65.4003C65.1573 65.118 63.7107 64.2242 63.0168 63.0011C62.3347 64.236 60.8646 65.118 59.1005 65.4003L58.6301 64.4242C60.7941 64.1184 62.37 62.8129 62.37 61.4134V60.8489H63.6519V61.4134C63.6519 62.7894 65.2514 64.1184 67.3918 64.4242ZM67.8034 66.3999V67.3878H63.5814V71.1395H62.37V67.3878H58.2067V66.3999H67.8034ZM73.8005 70.1986C75.3529 70.1986 76.2349 69.8576 76.2349 69.199C76.2349 68.5522 75.3529 68.1993 73.8005 68.1993C72.2481 68.1993 71.3778 68.5522 71.3778 69.199C71.3778 69.8576 72.2481 70.1986 73.8005 70.1986ZM73.8005 67.2702C76.082 67.2702 77.458 67.9759 77.458 69.199C77.458 70.4339 76.082 71.1395 73.8005 71.1395C71.5307 71.1395 70.1429 70.4339 70.1429 69.199C70.1429 67.9759 71.5307 67.2702 73.8005 67.2702ZM74.4356 65.6355H78.6341V66.6234H69.0374V65.6355H73.2242V64.577H70.2252V60.9783H77.458V61.9426H71.4248V63.6009H77.5286V64.577H74.4356V65.6355ZM88.571 60.5078V66.7998H87.3479V60.5078H88.571ZM86.4188 61.2605V62.0955H80.2915V61.2605H82.7494V60.3902H83.9608V61.2605H86.4188ZM84.7488 63.8008C84.7488 63.3892 84.2313 63.154 83.3492 63.154C82.4789 63.154 81.9615 63.3892 81.9615 63.8008C81.9615 64.2242 82.4789 64.4477 83.3492 64.4477C84.2313 64.4477 84.7488 64.2242 84.7488 63.8008ZM80.8089 63.8008C80.8089 62.907 81.8086 62.3778 83.3492 62.3778C84.8899 62.3778 85.8895 62.907 85.8895 63.8008C85.8895 64.6946 84.8899 65.2239 83.3492 65.2239C81.8086 65.2239 80.8089 64.6946 80.8089 63.8008ZM82.6906 70.1986H88.8885V71.0337H81.491V68.705H87.3714V68.0229H81.4675V67.2114H82.7612V66.4705C81.7851 66.5058 80.856 66.5058 80.0327 66.5058L79.8798 65.659C81.8674 65.659 84.4547 65.6355 86.701 65.3768L86.7716 66.1177C85.8543 66.2706 84.9016 66.3529 83.9725 66.4117V67.2114H88.571V69.4695H82.6906V70.1986ZM93.8506 63.3775V63.7538C93.8506 65.412 94.568 67.1056 96.0263 67.8936L95.356 68.7991C94.3563 68.2581 93.6742 67.282 93.2861 66.1295C92.9097 67.3761 92.2394 68.4463 91.228 69.0343L90.5341 68.117C91.9924 67.2585 92.6981 65.4473 92.6981 63.7538V63.3775H90.8634V62.3778H92.6981V60.8724H93.8506V62.3778H95.6735V63.3775H93.8506ZM96.4262 64.6241V60.7195H97.567V70.6103H96.4262V65.612H94.9914V64.6241H96.4262ZM98.5666 60.5078H99.7192V71.1277H98.5666V60.5078ZM104.34 67.6936C105.258 67.6936 105.881 66.7057 105.881 65.0239C105.881 63.3775 105.258 62.3778 104.34 62.3778C103.435 62.3778 102.811 63.3775 102.811 65.0239C102.811 66.7057 103.435 67.6936 104.34 67.6936ZM109.08 60.4961H110.303V71.1513H109.08V65.4473H107.022C106.881 67.5055 105.799 68.7756 104.34 68.7756C102.776 68.7756 101.659 67.329 101.659 65.0239C101.659 62.7424 102.776 61.284 104.34 61.284C105.763 61.284 106.845 62.5072 107.01 64.4594H109.08V60.4961Z" fill="#333333"/>
<path d="M59.5239 92.5381C59.5239 93.5143 60.2296 94.1494 61.1587 94.1494C62.0878 94.1494 62.8052 93.5143 62.8052 92.5381C62.8052 91.5738 62.0878 90.9387 61.1587 90.9387C60.2296 90.9387 59.5239 91.5738 59.5239 92.5381ZM63.993 92.5381C63.993 94.0906 62.7699 95.1961 61.1587 95.1961C59.5592 95.1961 58.3361 94.0906 58.3361 92.5381C58.3361 90.9857 59.5592 89.892 61.1587 89.892C62.7699 89.892 63.993 90.9857 63.993 92.5381ZM60.994 96.1604V98.6067H66.9214V99.5946H59.7709V96.1604H60.994ZM66.498 92.3265H68.0034V93.3261H66.498V96.9602H65.2867V89.1746H66.498V92.3265ZM74.6825 92.0207H76.6113V89.1864H77.8226V96.9484H76.6113V93.0203H74.6825V92.0207ZM75.3411 94.5022L74.7413 95.443C73.5653 95.0432 72.7067 94.2082 72.2598 93.1615C71.7894 94.314 70.8956 95.2431 69.6372 95.6782L69.0139 94.7256C70.6604 94.1494 71.6247 92.7498 71.6247 91.315V90.9505H69.3785V89.9743H75.0589V90.9505H72.8479V91.315C72.8479 92.6205 73.7534 93.9494 75.3411 94.5022ZM72.154 98.6067H78.0931V99.5946H70.9426V96.278H72.154V98.6067ZM88.8532 92.8439L88.3828 93.7848C86.701 93.5025 85.3015 92.644 84.6194 91.4797C83.949 92.644 82.573 93.5025 80.8912 93.7848L80.4091 92.8439C82.5142 92.5264 84.0078 91.2445 84.0078 89.8685V89.4686H85.2545V89.8685C85.2545 91.2562 86.7481 92.5381 88.8532 92.8439ZM82.2672 96.5368V98.6067H88.371V99.5946H81.0441V96.5368H82.2672ZM85.2309 94.7844H89.4648V95.7723H79.8328V94.7844H84.0196V93.1379H85.2309V94.7844ZM96.8966 93.9494L96.3203 94.902C95.109 94.5257 94.2505 93.7495 93.78 92.7616C93.3096 93.8436 92.4158 94.7139 91.1339 95.1255L90.5341 94.1611C92.2159 93.6319 93.145 92.3382 93.145 90.9387V90.7976H90.8869V89.8097H96.5908V90.7976H94.3798V90.9269C94.3798 92.2088 95.2736 93.4437 96.8966 93.9494ZM97.7552 98.689V97.56H93.3567V98.689H97.7552ZM97.7552 96.6191V95.4901H98.9547V99.6651H92.1571V95.4901H93.3567V96.6191H97.7552ZM100.46 91.5385V92.5381H98.9547V95.0197H97.7434V89.1628H98.9547V91.5385H100.46ZM108.997 89.1628H110.221V99.818H108.997V89.1628ZM104.564 89.9508C106.151 89.9508 107.304 91.4091 107.304 93.6907C107.304 95.9958 106.151 97.4424 104.564 97.4424C102.988 97.4424 101.835 95.9958 101.835 93.6907C101.835 91.4091 102.988 89.9508 104.564 89.9508ZM104.564 91.0445C103.646 91.0445 102.999 92.0442 102.999 93.6907C102.999 95.3607 103.646 96.3604 104.564 96.3604C105.493 96.3604 106.14 95.3607 106.14 93.6907C106.14 92.0442 105.493 91.0445 104.564 91.0445Z" fill="#333333"/>
<path d="M62.123 117.694V118.706C62.123 120.47 63.2168 122.304 64.875 123.01L64.2047 123.963C62.9698 123.422 62.0172 122.269 61.5232 120.893C61.0528 122.375 60.1002 123.633 58.8536 124.233L58.1597 123.269C59.8062 122.504 60.8999 120.529 60.8999 118.706V117.694H58.536V116.695H64.4869V117.694H62.123ZM65.7218 115.636H66.9449V126.256H65.7218V115.636ZM71.4248 117.483V120.482C71.8835 120.47 72.3657 120.446 72.8361 120.423V117.483H71.4248ZM75.4117 120.199L75.494 121.081C73.3653 121.458 70.9309 121.493 69.1432 121.493L69.0139 120.493C69.402 120.493 69.8254 120.493 70.2605 120.493V117.483H69.2961V116.495H74.9765V117.483H74.0122V120.34C74.4826 120.305 74.9648 120.246 75.4117 120.199ZM73.871 125.303C75.3764 125.303 76.2232 124.939 76.2232 124.28C76.2232 123.61 75.3764 123.257 73.871 123.257C72.3892 123.257 71.5424 123.61 71.5424 124.28C71.5424 124.939 72.3892 125.303 73.871 125.303ZM73.871 122.304C76.0703 122.304 77.4228 123.034 77.4228 124.28C77.4228 125.527 76.0703 126.256 73.871 126.256C71.6836 126.256 70.3428 125.527 70.3428 124.28C70.3428 123.034 71.6836 122.304 73.871 122.304ZM77.3169 118.282H78.8223V119.282H77.3169V122.093H76.1056V115.636H77.3169V118.282ZM87.3596 115.624H88.5827V126.28H87.3596V115.624ZM82.9258 116.412C84.5135 116.412 85.6661 117.871 85.6661 120.152C85.6661 122.457 84.5135 123.904 82.9258 123.904C81.3499 123.904 80.1974 122.457 80.1974 120.152C80.1974 117.871 81.3499 116.412 82.9258 116.412ZM82.9258 117.506C82.0085 117.506 81.3617 118.506 81.3617 120.152C81.3617 121.822 82.0085 122.822 82.9258 122.822C83.8549 122.822 84.5018 121.822 84.5018 120.152C84.5018 118.506 83.8549 117.506 82.9258 117.506Z" fill="#333333"/>
<path fill-rule="evenodd" clip-rule="evenodd" d="M43.1675 116.037L44.5233 116.338L45.2326 117.489L47.0618 118.083L48.0996 118.71L48.5905 119.844L48.0996 120.642L47.4681 120.166L47.0618 119.844L46.3652 119.315H45.2326L44.5233 119.844L36.1161 131.265V131.975C36.1161 131.975 35.457 132.902 35.4369 132.788C35.4167 132.674 33.8352 132.108 33.6773 131.265L34.4798 130.075H35.1337L36.8239 128.042L43.6326 118.986C43.6326 118.986 43.8666 117.974 43.6326 117.489L42.9393 116.358L43.1675 116.037Z" fill="#6D9F8B"/>
<path d="M155.077 64.4648V63.1526H156.83V57.992H155.353V56.9885C156.169 56.8342 156.731 56.6246 157.249 56.2938H158.451V63.1526H159.984V64.4648H155.077ZM157.426 93.6192C155.761 93.6192 154.658 92.1637 154.658 89.3518C154.658 86.5289 155.761 85.1505 157.426 85.1505C159.091 85.1505 160.183 86.5399 160.183 89.3518C160.183 92.1637 159.091 93.6192 157.426 93.6192ZM157.426 92.3511C158.132 92.3511 158.65 91.6454 158.65 89.3518C158.65 87.0692 158.132 86.4076 157.426 86.4076C156.72 86.4076 156.191 87.0692 156.191 89.3518C156.191 91.6454 156.72 92.3511 157.426 92.3511ZM155.077 122.465V121.153H156.83V115.992H155.353V114.989C156.169 114.834 156.731 114.625 157.249 114.294H158.451V121.153H159.984V122.465H155.077Z" fill="#333333"/>
<path d="M207.415 64.6192C205.75 64.6192 204.647 63.1637 204.647 60.3518C204.647 57.5289 205.75 56.1505 207.415 56.1505C209.08 56.1505 210.171 57.5399 210.171 60.3518C210.171 63.1637 209.08 64.6192 207.415 64.6192ZM207.415 63.3511C208.12 63.3511 208.639 62.6454 208.639 60.3518C208.639 58.0692 208.12 57.4076 207.415 57.4076C206.709 57.4076 206.18 58.0692 206.18 60.3518C206.18 62.6454 206.709 63.3511 207.415 63.3511ZM207.205 93.6192C205.915 93.6192 205.055 93.112 204.448 92.5055L205.198 91.469C205.661 91.9211 206.235 92.296 206.996 92.296C207.845 92.296 208.44 91.7557 208.44 90.7963C208.44 89.848 207.889 89.3187 207.062 89.3187C206.577 89.3187 206.312 89.44 205.838 89.7487L205.099 89.2636L205.319 85.2938H209.686V86.6612H206.72L206.566 88.3924C206.896 88.238 207.172 88.1609 207.547 88.1609C208.914 88.1609 210.061 88.9769 210.061 90.7522C210.061 92.5717 208.716 93.6192 207.205 93.6192ZM204.636 122.465V121.528C206.852 119.543 208.164 118.01 208.164 116.753C208.164 115.926 207.723 115.43 206.94 115.43C206.345 115.43 205.86 115.816 205.441 116.268L204.559 115.386C205.308 114.581 206.036 114.15 207.15 114.15C208.694 114.15 209.719 115.143 209.719 116.665C209.719 118.142 208.495 119.73 207.007 121.186C207.415 121.142 207.955 121.097 208.341 121.097H210.105V122.465H204.636Z" fill="#333333"/>
<path opacity="0.5" d="M142.596 22.7776V20.8104H143.681V28.4058H142.596V25.7417H141.467V24.8066H142.596V23.7039H141.617C141.255 25.0448 140.444 26.1739 138.926 27.0737L138.265 26.2621C139.87 25.2829 140.576 24.1097 140.726 22.5218H138.723V21.5955H141.882C141.882 22.0101 141.855 22.3983 141.811 22.7776H142.596ZM144.263 20.6251H145.366V28.7587H144.263V20.6251ZM147.694 23.0687C147.694 23.6951 148.144 24.0744 148.762 24.0744C149.37 24.0744 149.829 23.6951 149.829 23.0687C149.829 22.4336 149.37 22.0631 148.762 22.0631C148.144 22.0631 147.694 22.4336 147.694 23.0687ZM150.958 23.0687C150.958 24.2244 150.006 25.0536 148.762 25.0536C147.509 25.0536 146.556 24.2244 146.556 23.0687C146.556 21.9131 147.509 21.075 148.762 21.075C150.006 21.075 150.958 21.9131 150.958 23.0687ZM147.474 26.6856V25.7505H152.89V28.7675H151.726V26.6856H147.474ZM153.931 22.6365H152.89V23.4481H153.931V24.4008H152.89V25.4241H151.726V20.634H152.89V21.6926H153.931V22.6365ZM156.092 22.61C156.092 23.104 156.471 23.3863 157.027 23.3863C157.583 23.3863 157.98 23.104 157.98 22.61C157.98 22.116 157.583 21.8337 157.027 21.8337C156.471 21.8337 156.092 22.116 156.092 22.61ZM159.462 24.6213L159.532 25.4417C157.891 25.7505 156.065 25.777 154.724 25.777L154.583 24.8507C155.139 24.8507 155.783 24.8507 156.453 24.833V24.2067C155.589 24.0215 155.007 23.4128 155.007 22.61C155.007 21.6396 155.854 20.9604 157.027 20.9604C158.209 20.9604 159.056 21.6396 159.056 22.61C159.056 23.4039 158.482 24.0126 157.618 24.2067V24.7889C158.244 24.7537 158.879 24.7095 159.462 24.6213ZM156.806 26.3063V27.6912H161.323V28.6175H155.642V26.3063H156.806ZM161.049 23.1834H162.073V24.145H161.049V26.8355H159.885V20.634H161.049V23.1834ZM165.733 25.6711V26.9149H167.153V25.6711H165.733ZM168.3 26.9149H170.082V27.8677H162.716V26.9149H164.586V25.6711H163.572V22.9452H168.106V22.0807H163.563V21.1544H169.253V23.8538H164.727V24.7448H169.438V25.6711H168.3V26.9149Z" fill="#333333"/>
<path opacity="0.5" d="M195.716 24.5596V25.4947H192.594V28.7587H191.412V25.4947H188.377V24.5596H193.493C193.696 23.5274 193.714 22.7335 193.714 22.0366H189.215V21.1015H194.852V21.8337C194.852 22.5924 194.852 23.4216 194.649 24.5596H195.716ZM197.798 22.3806V25.8211H198.839V22.3806H197.798ZM196.713 26.7297V21.4632H199.915V26.7297H196.713ZM202.35 20.6251H203.452V28.7498H202.35V24.6654H201.67V28.3882H200.585V20.7575H201.67V23.7303H202.35V20.6251ZM208.145 24.9301H208.85V23.3598H208.136C208.171 23.6068 208.189 23.8715 208.189 24.1538C208.189 24.4273 208.171 24.6919 208.145 24.9301ZM206.433 26.0151C206.883 26.0151 207.148 25.3976 207.148 24.1538C207.148 22.9099 206.883 22.3012 206.433 22.3012C205.975 22.3012 205.71 22.9099 205.71 24.1538C205.71 25.3976 205.975 26.0151 206.433 26.0151ZM208.85 22.4247V20.7663H209.936V28.3882H208.85V25.874H207.924C207.624 26.6591 207.104 27.109 206.433 27.109C205.348 27.109 204.669 25.9975 204.669 24.1538C204.669 22.3189 205.348 21.2074 206.433 21.2074C207.095 21.2074 207.615 21.6396 207.915 22.4247H208.85ZM210.465 20.6251H211.568V28.7498H210.465V20.6251ZM213.913 23.0687C213.913 23.6951 214.363 24.0744 214.981 24.0744C215.589 24.0744 216.048 23.6951 216.048 23.0687C216.048 22.4336 215.589 22.0631 214.981 22.0631C214.363 22.0631 213.913 22.4336 213.913 23.0687ZM217.177 23.0687C217.177 24.2244 216.225 25.0536 214.981 25.0536C213.728 25.0536 212.775 24.2244 212.775 23.0687C212.775 21.9131 213.728 21.075 214.981 21.075C216.225 21.075 217.177 21.9131 217.177 23.0687ZM213.693 26.6856V25.7505H219.109V28.7675H217.945V26.6856H213.693ZM220.15 22.6365H219.109V23.4481H220.15V24.4008H219.109V25.4241H217.945V20.634H219.109V21.6926H220.15V22.6365Z" fill="#333333"/>
</g>
</g>
<defs>
<filter id="filter0_d_572_8310" x="0" y="0" width="240" height="158" filterUnits="userSpaceOnUse" color-interpolation-filters="sRGB">
<feFlood flood-opacity="0" result="BackgroundImageFix"/>
<feColorMatrix in="SourceAlpha" type="matrix" values="0 0 0 0 0 0 0 0 0 0 0 0 0 0 0 0 0 0 127 0" result="hardAlpha"/>
<feOffset dy="4"/>
<feGaussianBlur stdDeviation="2"/>
<feComposite in2="hardAlpha" operator="out"/>
<feColorMatrix type="matrix" values="0 0 0 0 0 0 0 0 0 0 0 0 0 0 0 0 0 0 0.1 0"/>
<feBlend mode="normal" in2="BackgroundImageFix" result="effect1_dropShadow_572_8310"/>
<feBlend mode="normal" in="SourceGraphic" in2="effect1_dropShadow_572_8310" result="shape"/>
</filter>
<clipPath id="clip0_572_8310">
<rect x="4" width="232" height="150" rx="16" fill="white"/>
</clipPath>
</defs>
</svg>
