<svg width="89" height="80" viewBox="0 0 89 80" fill="none" xmlns="http://www.w3.org/2000/svg">
<path id="Rectangle Copy 69" fill-rule="evenodd" clip-rule="evenodd" d="M42.8998 27.5862C50.5175 27.5862 56.6929 21.4108 56.6929 13.7931C56.6929 6.17538 50.5175 0 42.8998 0C35.2821 0 29.1067 6.17538 29.1067 13.7931C29.1067 21.4108 35.2821 27.5862 42.8998 27.5862ZM57.0727 31.7241H26.8181L24.2517 31.7943C19.5609 31.9224 15.0888 33.8059 11.7197 37.0723L2.46188 46.0478C0.159476 48.28 0.0984538 51.9547 2.32547 54.2621C4.86497 56.8932 9.07992 56.8947 11.6213 54.2654L19.2168 46.4071C19.313 46.3075 19.4454 46.2513 19.5838 46.2513H26.8181V80H42.6802H58.5423V46.2513L66.591 51.4616C69.4731 53.3272 73.1815 53.3288 76.0652 51.4656L85.3338 45.4768C88.3645 43.5185 89.219 39.4658 87.237 36.4506C85.4647 33.7544 81.8435 33.0032 79.145 34.7719L71.5561 39.746C71.3917 39.8538 71.1792 39.8547 71.0139 39.7483L59.7781 32.5193C58.9713 32.0002 58.0321 31.7241 57.0727 31.7241Z" fill="url(#paint0_linear_2242_3495)"/>
<defs>
<linearGradient id="paint0_linear_2242_3495" x1="22.5972" y1="40" x2="22.5972" y2="80" gradientUnits="userSpaceOnUse">
<stop stop-color="#634F4F"/>
<stop offset="1" stop-color="#634F4F" stop-opacity="0.49959"/>
</linearGradient>
</defs>
</svg>
