<svg width="348" height="208" viewBox="0 0 348 208" fill="none" xmlns="http://www.w3.org/2000/svg">
<g filter="url(#filter0_d_518_4739)">
<g clip-path="url(#clip0_518_4739)">
<rect x="4" width="340" height="200" rx="16" fill="#0031C8" fill-opacity="0.1" shape-rendering="crispEdges"/>
<rect opacity="0.9" x="4" width="340" height="203.046" rx="16" fill="white"/>
<path d="M254.783 130.196C253.173 130.196 252.123 129.552 251.423 128.768L252.221 127.732C252.823 128.348 253.579 128.866 254.657 128.866C255.805 128.866 256.603 128.222 256.603 127.158C256.603 126.01 255.875 125.282 253.565 125.282V124.078C255.581 124.078 256.253 123.322 256.253 122.286C256.253 121.376 255.665 120.802 254.671 120.802C253.887 120.802 253.215 121.18 252.627 121.768L251.773 120.746C252.599 120.018 253.551 119.514 254.741 119.514C256.589 119.514 257.891 120.466 257.891 122.16C257.891 123.35 257.205 124.176 256.113 124.582V124.652C257.303 124.96 258.241 125.842 258.241 127.242C258.241 129.104 256.687 130.196 254.783 130.196ZM262.781 130.196C261.157 130.196 260.135 129.538 259.393 128.81L260.177 127.76C260.751 128.348 261.507 128.866 262.585 128.866C263.747 128.866 264.615 128.04 264.615 126.668C264.615 125.31 263.831 124.526 262.655 124.526C262.011 124.526 261.619 124.708 261.017 125.1L260.219 124.596L260.527 119.696H265.763V121.068H261.941L261.703 123.7C262.137 123.476 262.557 123.35 263.117 123.35C264.839 123.35 266.253 124.358 266.253 126.626C266.253 128.894 264.573 130.196 262.781 130.196ZM271.004 130.196C268.974 130.196 267.672 128.39 267.672 124.806C267.672 121.25 268.974 119.514 271.004 119.514C273.02 119.514 274.336 121.25 274.336 124.806C274.336 128.39 273.02 130.196 271.004 130.196ZM271.004 128.908C272.054 128.908 272.782 127.788 272.782 124.806C272.782 121.866 272.054 120.774 271.004 120.774C269.954 120.774 269.212 121.866 269.212 124.806C269.212 127.788 269.954 128.908 271.004 128.908ZM276.09 132.814L275.74 131.904C276.706 131.498 277.266 130.784 277.266 129.944L277.154 128.656L277.826 129.706C277.63 129.916 277.378 130 277.112 130C276.538 130 276.02 129.622 276.02 128.964C276.02 128.32 276.538 127.928 277.154 127.928C277.938 127.928 278.4 128.572 278.4 129.65C278.4 131.134 277.546 132.268 276.09 132.814ZM283.158 130.196C281.128 130.196 279.826 128.39 279.826 124.806C279.826 121.25 281.128 119.514 283.158 119.514C285.174 119.514 286.49 121.25 286.49 124.806C286.49 128.39 285.174 130.196 283.158 130.196ZM283.158 128.908C284.208 128.908 284.936 127.788 284.936 124.806C284.936 121.866 284.208 120.774 283.158 120.774C282.108 120.774 281.366 121.866 281.366 124.806C281.366 127.788 282.108 128.908 283.158 128.908ZM291.142 130.196C289.112 130.196 287.81 128.39 287.81 124.806C287.81 121.25 289.112 119.514 291.142 119.514C293.158 119.514 294.474 121.25 294.474 124.806C294.474 128.39 293.158 130.196 291.142 130.196ZM291.142 128.908C292.192 128.908 292.92 127.788 292.92 124.806C292.92 121.866 292.192 120.774 291.142 120.774C290.092 120.774 289.35 121.866 289.35 124.806C289.35 127.788 290.092 128.908 291.142 128.908ZM299.127 130.196C297.097 130.196 295.795 128.39 295.795 124.806C295.795 121.25 297.097 119.514 299.127 119.514C301.143 119.514 302.459 121.25 302.459 124.806C302.459 128.39 301.143 130.196 299.127 130.196ZM299.127 128.908C300.177 128.908 300.905 127.788 300.905 124.806C300.905 121.866 300.177 120.774 299.127 120.774C298.077 120.774 297.335 121.866 297.335 124.806C297.335 127.788 298.077 128.908 299.127 128.908ZM307.251 124.862H308.721V127.69H307.251V124.862ZM312.893 118.366H314.363V128.082H312.893V118.366ZM305.417 129.72H314.657V130.91H305.417V129.72ZM305.417 127.144H306.887V130.042H305.417V127.144ZM303.891 125.352L303.695 124.162C306.047 124.162 309.197 124.134 311.899 123.784L311.997 124.848C309.253 125.296 306.201 125.352 303.891 125.352ZM310.373 125.87H313.243V126.906H310.373V125.87ZM307.839 118.856C309.701 118.856 311.003 119.752 311.003 121.11C311.003 122.468 309.701 123.35 307.839 123.35C305.963 123.35 304.675 122.468 304.675 121.11C304.675 119.752 305.963 118.856 307.839 118.856ZM307.839 119.934C306.789 119.934 306.061 120.368 306.061 121.11C306.061 121.838 306.789 122.272 307.839 122.272C308.875 122.272 309.603 121.838 309.603 121.11C309.603 120.368 308.875 119.934 307.839 119.934Z" fill="#333333"/>
<path opacity="0.4" d="M240.081 153V151.67H242.349V144.502H240.487V143.48C241.467 143.312 242.139 143.06 242.741 142.696H243.959V151.67H245.975V153H240.081ZM247.967 155.814L247.617 154.904C248.583 154.498 249.143 153.784 249.143 152.944L249.031 151.656L249.703 152.706C249.507 152.916 249.255 153 248.989 153C248.415 153 247.897 152.622 247.897 151.964C247.897 151.32 248.415 150.928 249.031 150.928C249.815 150.928 250.277 151.572 250.277 152.65C250.277 154.134 249.423 155.268 247.967 155.814ZM255.343 153.196C253.383 153.196 251.787 151.544 251.787 148.044C251.787 144.096 253.635 142.514 255.679 142.514C256.827 142.514 257.667 142.99 258.255 143.62L257.373 144.6C256.995 144.152 256.365 143.83 255.763 143.83C254.391 143.83 253.285 144.894 253.285 148.044C253.285 150.704 254.069 151.95 255.329 151.95C256.225 151.95 256.925 151.138 256.925 149.808C256.925 148.478 256.323 147.736 255.231 147.736C254.615 147.736 253.873 148.1 253.257 149.038L253.187 147.862C253.789 147.05 254.741 146.574 255.511 146.574C257.247 146.574 258.423 147.624 258.423 149.808C258.423 151.852 257.009 153.196 255.343 153.196ZM263.019 153.196C260.989 153.196 259.687 151.39 259.687 147.806C259.687 144.25 260.989 142.514 263.019 142.514C265.035 142.514 266.351 144.25 266.351 147.806C266.351 151.39 265.035 153.196 263.019 153.196ZM263.019 151.908C264.069 151.908 264.797 150.788 264.797 147.806C264.797 144.866 264.069 143.774 263.019 143.774C261.969 143.774 261.227 144.866 261.227 147.806C261.227 150.788 261.969 151.908 263.019 151.908ZM271.004 153.196C268.974 153.196 267.672 151.39 267.672 147.806C267.672 144.25 268.974 142.514 271.004 142.514C273.02 142.514 274.336 144.25 274.336 147.806C274.336 151.39 273.02 153.196 271.004 153.196ZM271.004 151.908C272.054 151.908 272.782 150.788 272.782 147.806C272.782 144.866 272.054 143.774 271.004 143.774C269.954 143.774 269.212 144.866 269.212 147.806C269.212 150.788 269.954 151.908 271.004 151.908ZM276.09 155.814L275.74 154.904C276.706 154.498 277.266 153.784 277.266 152.944L277.154 151.656L277.826 152.706C277.63 152.916 277.378 153 277.112 153C276.538 153 276.02 152.622 276.02 151.964C276.02 151.32 276.538 150.928 277.154 150.928C277.938 150.928 278.4 151.572 278.4 152.65C278.4 154.134 277.546 155.268 276.09 155.814ZM283.158 153.196C281.128 153.196 279.826 151.39 279.826 147.806C279.826 144.25 281.128 142.514 283.158 142.514C285.174 142.514 286.49 144.25 286.49 147.806C286.49 151.39 285.174 153.196 283.158 153.196ZM283.158 151.908C284.208 151.908 284.936 150.788 284.936 147.806C284.936 144.866 284.208 143.774 283.158 143.774C282.108 143.774 281.366 144.866 281.366 147.806C281.366 150.788 282.108 151.908 283.158 151.908ZM291.142 153.196C289.112 153.196 287.81 151.39 287.81 147.806C287.81 144.25 289.112 142.514 291.142 142.514C293.158 142.514 294.474 144.25 294.474 147.806C294.474 151.39 293.158 153.196 291.142 153.196ZM291.142 151.908C292.192 151.908 292.92 150.788 292.92 147.806C292.92 144.866 292.192 143.774 291.142 143.774C290.092 143.774 289.35 144.866 289.35 147.806C289.35 150.788 290.092 151.908 291.142 151.908ZM299.127 153.196C297.097 153.196 295.795 151.39 295.795 147.806C295.795 144.25 297.097 142.514 299.127 142.514C301.143 142.514 302.459 144.25 302.459 147.806C302.459 151.39 301.143 153.196 299.127 153.196ZM299.127 151.908C300.177 151.908 300.905 150.788 300.905 147.806C300.905 144.866 300.177 143.774 299.127 143.774C298.077 143.774 297.335 144.866 297.335 147.806C297.335 150.788 298.077 151.908 299.127 151.908ZM307.251 147.862H308.721V150.69H307.251V147.862ZM312.893 141.366H314.363V151.082H312.893V141.366ZM305.417 152.72H314.657V153.91H305.417V152.72ZM305.417 150.144H306.887V153.042H305.417V150.144ZM303.891 148.352L303.695 147.162C306.047 147.162 309.197 147.134 311.899 146.784L311.997 147.848C309.253 148.296 306.201 148.352 303.891 148.352ZM310.373 148.87H313.243V149.906H310.373V148.87ZM307.839 141.856C309.701 141.856 311.003 142.752 311.003 144.11C311.003 145.468 309.701 146.35 307.839 146.35C305.963 146.35 304.675 145.468 304.675 144.11C304.675 142.752 305.963 141.856 307.839 141.856ZM307.839 142.934C306.789 142.934 306.061 143.368 306.061 144.11C306.061 144.838 306.789 145.272 307.839 145.272C308.875 145.272 309.603 144.838 309.603 144.11C309.603 143.368 308.875 142.934 307.839 142.934Z" fill="#333333"/>
<path d="M26.936 96V90.288H34.568V67.824H28.136V63.456C31.688 62.784 34.136 61.872 36.392 60.432H41.624V90.288H48.296V96H26.936ZM55.2976 106.224L53.8096 102.384C57.5536 100.992 59.6176 98.496 59.5696 95.808C59.4256 95.808 59.2816 95.808 59.1376 95.808C56.8336 95.808 54.7216 94.32 54.7216 91.632C54.7216 89.088 56.7856 87.456 59.2816 87.456C62.5456 87.456 64.3696 90.048 64.3696 94.416C64.3696 100.032 61.1056 104.304 55.2976 106.224ZM68.939 96V91.92C78.587 83.28 84.299 76.608 84.299 71.136C84.299 67.536 82.379 65.376 78.971 65.376C76.379 65.376 74.267 67.056 72.443 69.024L68.603 65.184C71.867 61.68 75.035 59.808 79.883 59.808C86.603 59.808 91.067 64.128 91.067 70.752C91.067 77.184 85.739 84.096 79.259 90.432C81.035 90.24 83.387 90.048 85.067 90.048H92.747V96H68.939ZM108.389 96.672C102.773 96.672 99.0286 94.464 96.3886 91.824L99.6526 87.312C101.669 89.28 104.165 90.912 107.477 90.912C111.173 90.912 113.765 88.56 113.765 84.384C113.765 80.256 111.365 77.952 107.765 77.952C105.653 77.952 104.501 78.48 102.437 79.824L99.2206 77.712L100.181 60.432H119.189V66.384H106.277L105.605 73.92C107.045 73.248 108.245 72.912 109.877 72.912C115.829 72.912 120.821 76.464 120.821 84.192C120.821 92.112 114.965 96.672 108.389 96.672ZM137.566 96.672C130.318 96.672 125.518 90.336 125.518 78.096C125.518 65.808 130.318 59.808 137.566 59.808C144.814 59.808 149.566 65.856 149.566 78.096C149.566 90.336 144.814 96.672 137.566 96.672ZM137.566 91.152C140.638 91.152 142.894 88.08 142.894 78.096C142.894 68.16 140.638 65.28 137.566 65.28C134.494 65.28 132.19 68.16 132.19 78.096C132.19 88.08 134.494 91.152 137.566 91.152ZM155.704 106.224L154.216 102.384C157.96 100.992 160.024 98.496 159.976 95.808C159.832 95.808 159.688 95.808 159.544 95.808C157.24 95.808 155.128 94.32 155.128 91.632C155.128 89.088 157.192 87.456 159.688 87.456C162.952 87.456 164.776 90.048 164.776 94.416C164.776 100.032 161.512 104.304 155.704 106.224ZM181.441 96.672C174.193 96.672 169.393 90.336 169.393 78.096C169.393 65.808 174.193 59.808 181.441 59.808C188.689 59.808 193.441 65.856 193.441 78.096C193.441 90.336 188.689 96.672 181.441 96.672ZM181.441 91.152C184.513 91.152 186.769 88.08 186.769 78.096C186.769 68.16 184.513 65.28 181.441 65.28C178.369 65.28 176.065 68.16 176.065 78.096C176.065 88.08 178.369 91.152 181.441 91.152ZM209.707 96.672C202.459 96.672 197.659 90.336 197.659 78.096C197.659 65.808 202.459 59.808 209.707 59.808C216.955 59.808 221.707 65.856 221.707 78.096C221.707 90.336 216.955 96.672 209.707 96.672ZM209.707 91.152C212.779 91.152 215.035 88.08 215.035 78.096C215.035 68.16 212.779 65.28 209.707 65.28C206.635 65.28 204.331 68.16 204.331 78.096C204.331 88.08 206.635 91.152 209.707 91.152ZM237.973 96.672C230.725 96.672 225.925 90.336 225.925 78.096C225.925 65.808 230.725 59.808 237.973 59.808C245.221 59.808 249.973 65.856 249.973 78.096C249.973 90.336 245.221 96.672 237.973 96.672ZM237.973 91.152C241.045 91.152 243.301 88.08 243.301 78.096C243.301 68.16 241.045 65.28 237.973 65.28C234.901 65.28 232.597 68.16 232.597 78.096C232.597 88.08 234.901 91.152 237.973 91.152ZM266.39 88.8H270.542V75.96H273.71V92.712H270.542V90.96H266.39V88.8ZM262.142 79.008C260.654 79.008 259.622 79.584 259.622 80.664C259.622 81.744 260.654 82.296 262.142 82.296C263.606 82.296 264.638 81.744 264.638 80.664C264.638 79.584 263.606 79.008 262.142 79.008ZM262.142 84.6C258.902 84.6 256.646 83.016 256.646 80.664C256.646 78.312 258.902 76.704 262.142 76.704C265.358 76.704 267.638 78.312 267.638 80.664C267.638 83.016 265.358 84.6 262.142 84.6ZM260.966 95.16H274.19V97.68H257.798V91.104H260.87V88.152C258.926 88.248 257.078 88.272 255.422 88.272L255.014 85.752C259.046 85.728 264.422 85.68 269.078 85.08L269.294 87.336C267.566 87.624 265.79 87.816 264.014 87.96V92.136H260.966V95.16Z" fill="#333333"/>
<rect x="76.334" y="121.827" width="143.556" height="12.1827" rx="6" fill="white"/>
<rect x="76.334" y="145.178" width="143.556" height="12.1827" rx="6" fill="white"/>
<rect x="76.2637" y="121.827" width="44.3889" height="12.1827" rx="6" fill="url(#paint0_linear_518_4739)"/>
<rect x="76.334" y="145.178" width="106.722" height="12.1827" rx="6" fill="#519CE9"/>
<path d="M30.952 28.348H32.26V29.044C32.26 31.168 31.264 33.076 29.14 33.784L28.324 32.524C30.172 31.912 30.952 30.46 30.952 29.044V28.348ZM31.276 28.348H32.572V29.044C32.572 30.364 33.328 31.72 35.128 32.296L34.276 33.508C32.248 32.836 31.276 31.048 31.276 29.044V28.348ZM28.78 27.772H34.744V29.044H28.78V27.772ZM35.632 26.956H37.228V35.092H35.632V26.956ZM36.772 30.184H38.704V31.492H36.772V30.184ZM30.064 36.604H37.624V37.876H30.064V36.604ZM30.064 34.3H31.66V37.276H30.064V34.3ZM44.4871 29.224H47.5111V30.508H44.4871V29.224ZM44.4871 32.668H47.5111V33.952H44.4871V32.668ZM42.5671 27.724C44.2231 27.724 45.4351 29.26 45.4351 31.684C45.4351 34.132 44.2231 35.668 42.5671 35.668C40.8991 35.668 39.6991 34.132 39.6991 31.684C39.6991 29.26 40.8991 27.724 42.5671 27.724ZM42.5671 29.176C41.7631 29.176 41.2111 30.052 41.2111 31.684C41.2111 33.34 41.7631 34.228 42.5671 34.228C43.3831 34.228 43.9231 33.34 43.9231 31.684C43.9231 30.052 43.3831 29.176 42.5671 29.176ZM47.2591 26.944H48.8431V38.092H47.2591V26.944ZM54.4769 33.28H56.0489V34.444H60.5489V33.28H62.1329V37.948H54.4769V33.28ZM56.0489 35.668V36.676H60.5489V35.668H56.0489ZM54.5129 27.4H61.5569V28.672H54.5129V27.4ZM53.2889 31.288H63.3449V32.572H53.2889V31.288ZM60.5969 27.4H62.1689V28.288C62.1689 29.212 62.1689 30.172 61.8569 31.564L60.2489 31.672C60.5969 30.244 60.5969 29.224 60.5969 28.288V27.4ZM69.2839 29.224H72.3079V30.508H69.2839V29.224ZM69.2839 32.668H72.3079V33.952H69.2839V32.668ZM67.3639 27.724C69.0199 27.724 70.2319 29.26 70.2319 31.684C70.2319 34.132 69.0199 35.668 67.3639 35.668C65.6959 35.668 64.4959 34.132 64.4959 31.684C64.4959 29.26 65.6959 27.724 67.3639 27.724ZM67.3639 29.176C66.5599 29.176 66.0079 30.052 66.0079 31.684C66.0079 33.34 66.5599 34.228 67.3639 34.228C68.1799 34.228 68.7199 33.34 68.7199 31.684C68.7199 30.052 68.1799 29.176 67.3639 29.176ZM72.0559 26.944H73.6399V38.092H72.0559V26.944Z" fill="#333333"/>
<path opacity="0.5" d="M30.132 124.928H31.152V126.728C31.152 129.284 30.012 131.732 28.128 132.692L27.36 131.684C29.064 130.856 30.132 128.756 30.132 126.728V124.928ZM30.372 124.928H31.38V126.728C31.38 128.684 32.412 130.676 34.056 131.492L33.288 132.488C31.464 131.54 30.372 129.2 30.372 126.728V124.928ZM34.788 124.028H36.048V134.996H34.788V124.028ZM35.76 128.372H37.752V129.416H35.76V128.372ZM40.9311 127.724H42.1791V129.764H40.9311V127.724ZM44.8791 127.724H46.1271V129.764H44.8791V127.724ZM38.5791 129.356H48.4911V130.352H38.5791V129.356ZM43.5231 131.06C45.8751 131.06 47.3031 131.768 47.3031 133.016C47.3031 134.276 45.8751 134.984 43.5231 134.984C41.1591 134.984 39.7431 134.276 39.7431 133.016C39.7431 131.768 41.1591 131.06 43.5231 131.06ZM43.5231 132.02C41.9151 132.02 41.0151 132.368 41.0151 133.016C41.0151 133.676 41.9151 134.024 43.5231 134.024C45.1311 134.024 46.0311 133.676 46.0311 133.016C46.0311 132.368 45.1311 132.02 43.5231 132.02ZM43.5351 124.208C45.9351 124.208 47.4471 124.988 47.4471 126.284C47.4471 127.58 45.9351 128.336 43.5351 128.336C41.1351 128.336 39.6351 127.58 39.6351 126.284C39.6351 124.988 41.1351 124.208 43.5351 124.208ZM43.5351 125.18C41.9031 125.18 40.9311 125.564 40.9311 126.284C40.9311 126.992 41.9031 127.376 43.5351 127.376C45.1791 127.376 46.1511 126.992 46.1511 126.284C46.1511 125.564 45.1791 125.18 43.5351 125.18Z" fill="#333333"/>
<path opacity="0.5" d="M27.54 152.62H37.452V153.628H27.54V152.62ZM31.872 151.42H33.12V153.088H31.872V151.42ZM31.872 147.028H33.12V148.588H31.872V147.028ZM31.8 148.672H32.904V148.864C32.904 150.604 31.08 151.708 28.428 151.936L28.044 150.976C30.396 150.808 31.8 149.932 31.8 148.864V148.672ZM32.088 148.672H33.192V148.864C33.192 149.932 34.596 150.808 36.936 150.976L36.564 151.936C33.9 151.708 32.088 150.604 32.088 148.864V148.672ZM28.524 148.06H36.468V149.044H28.524V148.06ZM32.484 154.312C34.86 154.312 36.264 154.96 36.264 156.148C36.264 157.336 34.86 157.984 32.484 157.984C30.108 157.984 28.704 157.336 28.704 156.148C28.704 154.96 30.108 154.312 32.484 154.312ZM32.484 155.248C30.864 155.248 29.976 155.548 29.976 156.148C29.976 156.736 30.864 157.048 32.484 157.048C34.104 157.048 34.992 156.736 34.992 156.148C34.992 155.548 34.104 155.248 32.484 155.248ZM42.5224 153.292H43.7584V154.6H48.7144V153.292H49.9624V157.864H42.5224V153.292ZM43.7584 155.584V156.856H48.7144V155.584H43.7584ZM42.5224 147.496H49.5304V148.516H42.5224V147.496ZM41.2864 151.408H51.2224V152.428H41.2864V151.408ZM48.7504 147.496H49.9864V148.336C49.9864 149.236 49.9864 150.232 49.6624 151.66L48.4024 151.72C48.7504 150.268 48.7504 149.248 48.7504 148.336V147.496ZM57.2454 149.38H60.4134V150.4H57.2454V149.38ZM57.2454 152.824H60.4134V153.844H57.2454V152.824ZM55.2774 147.832C56.8974 147.832 58.0494 149.332 58.0494 151.696C58.0494 154.06 56.8974 155.572 55.2774 155.572C53.6574 155.572 52.5054 154.06 52.5054 151.696C52.5054 149.332 53.6574 147.832 55.2774 147.832ZM55.2774 148.972C54.3414 148.972 53.6934 149.992 53.6934 151.696C53.6934 153.412 54.3414 154.444 55.2774 154.444C56.2254 154.444 56.8614 153.412 56.8614 151.696C56.8614 149.992 56.2254 148.972 55.2774 148.972ZM60.1734 147.016H61.4214V158.008H60.1734V147.016Z" fill="#333333"/>
</g>
</g>
<defs>
<filter id="filter0_d_518_4739" x="0" y="0" width="348" height="208" filterUnits="userSpaceOnUse" color-interpolation-filters="sRGB">
<feFlood flood-opacity="0" result="BackgroundImageFix"/>
<feColorMatrix in="SourceAlpha" type="matrix" values="0 0 0 0 0 0 0 0 0 0 0 0 0 0 0 0 0 0 127 0" result="hardAlpha"/>
<feOffset dy="4"/>
<feGaussianBlur stdDeviation="2"/>
<feComposite in2="hardAlpha" operator="out"/>
<feColorMatrix type="matrix" values="0 0 0 0 0 0 0 0 0 0 0 0 0 0 0 0 0 0 0.1 0"/>
<feBlend mode="normal" in2="BackgroundImageFix" result="effect1_dropShadow_518_4739"/>
<feBlend mode="normal" in="SourceGraphic" in2="effect1_dropShadow_518_4739" result="shape"/>
</filter>
<linearGradient id="paint0_linear_518_4739" x1="125.261" y1="121.952" x2="100.307" y2="98.8832" gradientUnits="userSpaceOnUse">
<stop stop-color="#836AFF"/>
<stop offset="1" stop-color="#FF3030"/>
</linearGradient>
<clipPath id="clip0_518_4739">
<rect x="4" width="340" height="200" rx="16" fill="white"/>
</clipPath>
</defs>
</svg>
