<svg xmlns="http://www.w3.org/2000/svg" xmlns:xlink="http://www.w3.org/1999/xlink" width="43.252" height="60.5" viewBox="0 0 43.252 60.5">
  <defs>
    <linearGradient id="linear-gradient" x1="0.203" y1="0.102" x2="0.822" y2="1" gradientUnits="objectBoundingBox">
      <stop offset="0" stop-color="#2fd8de"/>
      <stop offset="0.474" stop-color="#4958e0"/>
      <stop offset="1" stop-color="#ff4063"/>
    </linearGradient>
  </defs>
  <g id="Group_29_Copy" data-name="Group 29 Copy" transform="translate(0.691 0.5)">
    <path id="Fill_2" data-name="Fill 2" d="M1.122,50.183a2.833,2.833,0,0,1-.547-3.969L9.9,33.919q.08-.105.167-.2a2.833,2.833,0,0,1,2.391-1.311h9.828c0-.087-.006-.174-.006-.262V29.079H17.482a1.993,1.993,0,1,1,0-3.987h4.794v-7.73a5.858,5.858,0,0,1,11.715,0V32.145a5.858,5.858,0,0,1-5.411,5.841,2.836,2.836,0,0,1-.7.087H13.855L5.089,49.637a2.831,2.831,0,0,1-3.967.546ZM23.228,4.9a4.9,4.9,0,1,1,4.9,4.9A4.9,4.9,0,0,1,23.228,4.9Z" fill="none" stroke="#999" stroke-width="1" stroke-dasharray="2 1"/>
    <path id="Fill_29" data-name="Fill 29" d="M23.478,43.776V30.784H4.642V43.776a1.5,1.5,0,1,1-3,0V30.523a2.835,2.835,0,0,1,1.189-5.408h.8V17.476a1.51,1.51,0,0,1,.027-.285,1.5,1.5,0,0,1,1.5-1.423H23.173l1.44-13.693a2.316,2.316,0,1,1,4.607.483L26.545,28.018a2.841,2.841,0,0,1-.05.467q-.008.063-.019.124V43.776a1.5,1.5,0,1,1-3,0ZM22.19,25.115l.667-6.349H6.633v6.349ZM10.263,37.993a3.493,3.493,0,0,1-3.353-2.516L6.521,33.44a.829.829,0,0,1,.8-1.061h13.39a.829.829,0,0,1,.8,1.061l-.387,2.036a3.494,3.494,0,0,1-3.354,2.516Z" transform="translate(13.328 14.724)" fill="url(#linear-gradient)"/>
  </g>
</svg>
