<svg width="251" height="410" viewBox="0 0 251 410" fill="none" xmlns="http://www.w3.org/2000/svg">
<g clip-path="url(#clip0_2149_11357)">
<path d="M9.22424 259.301V259.6C9.22424 261.266 10.8025 262.914 14.38 263.37L13.5032 265.124C10.8727 264.773 9.0138 263.738 8.04929 262.283C7.06724 263.738 5.20837 264.773 2.57788 265.124L1.70105 263.37C5.29605 262.914 6.8568 261.266 6.8568 259.6V259.301H9.22424ZM4.59458 252.445C4.59458 253.357 5.85722 253.812 8.04929 253.812C10.2589 253.812 11.5215 253.357 11.5215 252.445C11.5215 251.515 10.2589 251.059 8.04929 251.059C5.85722 251.059 4.59458 251.515 4.59458 252.445ZM9.17163 256.688H15.3445V258.53H0.754073V256.688H6.87434V255.531C3.99834 255.286 2.20961 254.163 2.20961 252.445C2.20961 250.481 4.48936 249.288 8.04929 249.288C11.6092 249.288 13.9065 250.481 13.9065 252.445C13.9065 254.163 12.0827 255.303 9.17163 255.549V256.688Z" fill="#5DB0BF"/>
<path d="M26.3981 256.022V253.935H23.3292V256.022H26.3981ZM28.6603 254.882V257.863H21.0319V249.919H23.3292V252.164H26.3981V249.902H28.6603V253.023H31.5363V249.025H33.8512V260.038H31.5363V254.882H28.6603ZM29.6424 259.109V259.494C29.6424 261.125 31.2733 262.879 34.728 263.335L33.8862 265.124C31.2558 264.755 29.3969 263.65 28.4324 262.125C27.4679 263.633 25.6265 264.773 23.0136 265.124L22.1718 263.335C25.5739 262.861 27.275 261.038 27.275 259.494V259.109H29.6424Z" fill="#5DB0BF"/>
<path d="M48.7983 259.687L46.4834 259.424C47.0972 256.373 47.1323 254.128 47.1323 252.252H37.7152V250.41H49.4471V251.954C49.4471 253.97 49.4471 256.25 48.7983 259.687ZM43.7127 261.371H50.8501V263.23H36.2421V261.371H41.3978V255.812H43.7127V261.371Z" fill="#5DB0BF"/>
<path d="M66.9016 249.025H69.234V257.706H66.9016V249.025ZM58.5016 258.407H60.7989V259.915H66.9367V258.407H69.234V264.983H58.5016V258.407ZM60.7989 261.686V263.142H66.9367V261.686H60.7989ZM60.4481 249.691C62.9559 249.691 64.8323 251.287 64.8323 253.497C64.8323 255.724 62.9559 257.32 60.4481 257.32C57.9404 257.32 56.0465 255.724 56.0465 253.497C56.0465 251.287 57.9404 249.691 60.4481 249.691ZM60.4481 251.603C59.2206 251.603 58.3087 252.322 58.3087 253.497C58.3087 254.707 59.2206 255.408 60.4481 255.408C61.6757 255.408 62.5701 254.707 62.5701 253.497C62.5701 252.322 61.6757 251.603 60.4481 251.603Z" fill="#5DB0BF"/>
<path d="M72.5894 250.691H80.3406C80.3406 255.636 78.6746 259.67 72.9401 262.44L71.7301 260.617C75.8512 258.635 77.6399 256.11 77.9731 252.532H72.5894V250.691ZM82.8132 249.007H85.1456V265.159H82.8132V249.007Z" fill="#5DB0BF"/>
<path d="M88.3081 250.673H95.919C95.919 255.514 94.0776 259.67 88.7114 262.388L87.4137 260.617C91.1666 258.688 93.1657 256.127 93.5866 252.55H88.3081V250.673ZM102.478 255.18V257.092H100.215V265.141H97.9006V249.007H100.215V255.18H102.478Z" fill="#5DB0BF"/>
<path d="M107.902 250.673H115.513C115.513 255.514 113.672 259.67 108.305 262.388L107.008 260.617C110.76 258.688 112.76 256.127 113.181 252.55H107.902V250.673ZM122.072 255.18V257.092H119.809V265.141H117.495V249.007H119.809V255.18H122.072Z" fill="#5DB0BF"/>
<path d="M136.037 253.041V254.882H124.883V249.306H127.198V253.041H136.037ZM130.302 263.37C132.459 263.37 133.564 262.984 133.564 262.142C133.564 261.301 132.459 260.915 130.302 260.915C128.145 260.915 127.04 261.301 127.04 262.142C127.04 262.984 128.145 263.37 130.302 263.37ZM130.302 259.144C133.792 259.144 135.914 260.248 135.914 262.142C135.914 264.036 133.792 265.141 130.302 265.141C126.812 265.141 124.708 264.036 124.708 262.142C124.708 260.248 126.812 259.144 130.302 259.144ZM123.06 256.25H137.668V258.091H123.06V256.25Z" fill="#5DB0BF"/>
<path d="M143.583 259.985C144.671 259.985 145.46 259.249 145.46 258.004C145.46 256.794 144.671 256.04 143.583 256.04C142.496 256.04 141.689 256.794 141.689 258.021C141.689 259.249 142.496 259.985 143.583 259.985ZM143.583 254.163C145.916 254.163 147.652 255.759 147.652 258.004C147.652 260.283 145.916 261.879 143.583 261.879C141.233 261.879 139.48 260.283 139.48 258.004C139.48 255.759 141.233 254.163 143.583 254.163ZM144.723 249.306V251.41H148.231V253.251H138.831V251.41H142.408V249.306H144.723ZM153.912 255.338V257.25H151.598V265.176H149.283V249.025H151.598V255.338H153.912Z" fill="#5DB0BF"/>
<path d="M164.703 255.531L163.598 257.337C161.757 256.794 160.512 255.689 159.793 254.286C159.057 255.812 157.741 257.039 155.83 257.618L154.707 255.794C157.408 254.987 158.583 252.953 158.583 250.989V249.498H160.933V250.989C160.933 252.901 162.09 254.777 164.703 255.531ZM165.913 263.142V261.686H159.776V263.142H165.913ZM165.913 259.915V258.407H168.211V264.983H157.478V258.407H159.776V259.915H165.913ZM165.878 249.025H168.211V257.706H165.878V249.025Z" fill="#5DB0BF"/>
<path d="M173.811 250.551V259.214C175.933 259.161 178.23 258.986 180.597 258.512L180.843 260.441C178.09 261.02 175.407 261.195 172.951 261.195H171.513V250.551H173.811ZM181.842 249.007H184.157V265.159H181.842V249.007Z" fill="#5DB0BF"/>
<path d="M186.934 250.673H191.301C191.301 255.128 190.897 258.6 188.021 261.792L186.215 260.476C188.354 258.109 188.986 255.777 189.109 252.532H186.934V250.673ZM191.862 250.673H195.755C195.755 255.338 195.387 259.319 192.563 262.809L190.739 261.529C192.879 258.828 193.458 256.127 193.58 252.532H191.862V250.673ZM201.472 255.338V257.25H199.385V265.159H197.053V249.007H199.385V255.338H201.472Z" fill="#5DB0BF"/>
<path d="M204.775 259.249C204.354 256.425 207.335 255.286 207.335 253.62C207.335 252.743 206.756 252.182 205.844 252.182C205.073 252.182 204.459 252.585 203.898 253.164L202.477 251.866C203.389 250.831 204.634 250.112 206.16 250.112C208.264 250.112 209.808 251.2 209.808 253.444C209.808 255.934 206.756 256.776 207.019 259.249H204.775ZM205.897 263.914C204.985 263.914 204.301 263.177 204.301 262.23C204.301 261.266 204.985 260.547 205.897 260.547C206.826 260.547 207.51 261.266 207.51 262.23C207.51 263.177 206.826 263.914 205.897 263.914Z" fill="#5DB0BF"/>
<path d="M0 266.299H86.8189V267.175H0V266.299Z" fill="#5DB0BF"/>
<path d="M86.8175 266.299H210.684V267.175H86.8175V266.299Z" fill="#5DB0BF"/>
<path d="M0 291.852C0 287.701 3.36488 284.336 7.51568 284.336H243.007C247.158 284.336 250.523 287.701 250.523 291.852V314.399C250.523 318.549 247.158 321.914 243.007 321.914H7.51567C3.36488 321.914 0 318.549 0 314.399V291.852Z" fill="white"/>
<path fill-rule="evenodd" clip-rule="evenodd" d="M243.007 284.962H7.51568C3.71078 284.962 0.626306 288.047 0.626306 291.852V314.399C0.626306 318.204 3.71078 321.288 7.51567 321.288H243.007C246.812 321.288 249.896 318.204 249.896 314.399V291.852C249.896 288.047 246.812 284.962 243.007 284.962ZM7.51568 284.336C3.36488 284.336 0 287.701 0 291.852V314.399C0 318.549 3.36488 321.914 7.51567 321.914H243.007C247.158 321.914 250.523 318.549 250.523 314.399V291.852C250.523 287.701 247.158 284.336 243.007 284.336H7.51568Z" fill="#CCCCCC"/>
<path d="M0 335.693C0 331.542 3.36488 328.177 7.51568 328.177H243.007C247.158 328.177 250.523 331.542 250.523 335.693V358.24C250.523 362.391 247.158 365.756 243.007 365.756H7.51567C3.36488 365.756 0 362.391 0 358.24V335.693Z" fill="white"/>
<path fill-rule="evenodd" clip-rule="evenodd" d="M243.007 328.804H7.51568C3.71078 328.804 0.626306 331.888 0.626306 335.693V358.24C0.626306 362.045 3.71078 365.129 7.51567 365.129H243.007C246.812 365.129 249.896 362.045 249.896 358.24V335.693C249.896 331.888 246.812 328.804 243.007 328.804ZM7.51568 328.177C3.36488 328.177 0 331.542 0 335.693V358.24C0 362.391 3.36488 365.756 7.51567 365.756H243.007C247.158 365.756 250.523 362.391 250.523 358.24V335.693C250.523 331.542 247.158 328.177 243.007 328.177H7.51568Z" fill="#CCCCCC"/>
<path d="M0 379.534C0 375.384 3.36488 372.019 7.51568 372.019H243.007C247.158 372.019 250.523 375.384 250.523 379.534V402.082C250.523 406.232 247.158 409.597 243.007 409.597H7.51567C3.36488 409.597 0 406.232 0 402.082V379.534Z" fill="white"/>
<path fill-rule="evenodd" clip-rule="evenodd" d="M243.007 372.645H7.51568C3.71078 372.645 0.626306 375.73 0.626306 379.534V402.082C0.626306 405.886 3.71078 408.971 7.51567 408.971H243.007C246.812 408.971 249.896 405.886 249.896 402.082V379.534C249.896 375.73 246.812 372.645 243.007 372.645ZM7.51568 372.019C3.36488 372.019 0 375.384 0 379.534V402.082C0 406.232 3.36488 409.597 7.51567 409.597H243.007C247.158 409.597 250.523 406.232 250.523 402.082V379.534C250.523 375.384 247.158 372.019 243.007 372.019H7.51568Z" fill="#CCCCCC"/>
<path d="M105.801 298.14V299.129H96.657V298.14H100.603V297.062H101.905V298.14H105.801ZM98.7238 305.43V307.234H105.225V308.248H97.4211V305.43H98.7238ZM98.849 301.271C98.849 301.81 99.6632 302.085 101.254 302.085C102.832 302.085 103.647 301.81 103.647 301.271C103.647 300.745 102.832 300.47 101.254 300.47C99.6632 300.47 98.849 300.745 98.849 301.271ZM101.905 303.777H106.365V304.791H96.1309V303.777H100.603V302.987C98.6486 302.875 97.5338 302.286 97.5338 301.271C97.5338 300.156 98.8991 299.555 101.254 299.555C103.596 299.555 104.962 300.156 104.962 301.271C104.962 302.286 103.847 302.875 101.905 302.987V303.777Z" fill="#333333"/>
<path d="M111.442 299.355V300.445C111.442 302.198 112.557 304.202 114.273 305.017L113.559 306.031C112.294 305.43 111.329 304.177 110.816 302.749C110.315 304.328 109.313 305.68 108.01 306.319L107.271 305.292C108.999 304.465 110.152 302.323 110.152 300.445V299.355H107.684V298.29H113.835V299.355H111.442ZM118.006 301.622V302.687H116.24V308.474H114.949V297.163H116.24V301.622H118.006Z" fill="#333333"/>
<path d="M122.92 298.077V299.944C122.92 302.048 123.997 304.102 125.726 304.904L124.962 305.944C123.684 305.305 122.77 304.065 122.281 302.549C121.78 304.152 120.853 305.468 119.563 306.131L118.749 305.104C120.515 304.24 121.617 302.06 121.617 299.944V298.077H122.92ZM126.916 297.138H128.219V308.486H126.916V301.91H124.498V300.858H126.916V297.138Z" fill="#333333"/>
<path d="M133.347 298.353H138.595C138.595 301.635 137.192 304.541 133.497 306.407L132.783 305.417C135.551 304.002 137.042 302.01 137.305 299.405H133.347V298.353ZM143.267 301.622V302.699H141.551V308.461H140.261V297.15H141.551V301.622H143.267Z" fill="#333333"/>
<path d="M153.205 300.169V301.209H145.476V297.376H146.766V300.169H153.205ZM149.221 307.447C150.875 307.447 151.814 307.058 151.814 306.369C151.814 305.655 150.875 305.292 149.221 305.292C147.568 305.292 146.641 305.655 146.641 306.369C146.641 307.058 147.568 307.447 149.221 307.447ZM149.221 304.278C151.651 304.278 153.117 305.042 153.117 306.369C153.117 307.685 151.651 308.449 149.221 308.449C146.804 308.449 145.326 307.685 145.326 306.369C145.326 305.042 146.804 304.278 149.221 304.278ZM144.136 302.349H154.37V303.401H144.136V302.349Z" fill="#333333"/>
<path d="M98.4766 341.618V347.368H97.1864V341.618H98.4766ZM90.6227 344.549C90.6227 345.451 91.3492 346.04 92.3263 346.04C93.3158 346.04 94.0549 345.451 94.0549 344.549C94.0549 343.647 93.3158 343.059 92.3263 343.059C91.3492 343.059 90.6227 343.647 90.6227 344.549ZM95.3075 344.549C95.3075 346.04 94.0424 347.092 92.3263 347.092C90.6227 347.092 89.3701 346.04 89.3701 344.549C89.3701 343.059 90.6227 341.994 92.3263 341.994C94.0424 341.994 95.3075 343.059 95.3075 344.549ZM92.3513 351.789H98.8148V352.804H91.0862V349.835H97.1989V348.896H91.0611V347.881H98.4766V350.787H92.3513V351.789Z" fill="#333333"/>
<path d="M108.189 345.977V344.537H103.015V345.977H108.189ZM109.479 342.069V347.017H101.725V342.069H103.015V343.497H108.189V342.069H109.479ZM110.744 348.244V349.284H106.222V352.954H104.932V349.284H100.485V348.244H110.744Z" fill="#333333"/>
<path d="M120.218 350.524H124.715V351.589H114.469V350.524H118.928V347.856H115.721V342.482H123.463V343.522H117.012V346.816H123.563V347.856H120.218V350.524Z" fill="#333333"/>
<path d="M130.92 342.821C129.241 342.821 128.214 343.234 128.214 343.973C128.214 344.699 129.241 345.113 130.92 345.113C132.598 345.113 133.613 344.699 133.613 343.973C133.613 343.234 132.598 342.821 130.92 342.821ZM130.92 346.102C128.452 346.102 126.886 345.301 126.886 343.973C126.886 342.633 128.452 341.818 130.92 341.818C133.387 341.818 134.953 342.633 134.953 343.973C134.953 345.301 133.387 346.102 130.92 346.102ZM133.525 351.777V350.048H128.302V351.777H133.525ZM136.03 347.881H131.559V349.021H134.79V352.804H127.024V349.021H130.268V347.881H125.797V346.841H136.03V347.881Z" fill="#333333"/>
<path d="M149.125 341.618V347.468H147.822V341.618H149.125ZM142.536 343.372V346.09C143.037 346.077 143.576 346.065 144.089 346.04V343.372H142.536ZM146.845 345.814L146.908 346.729C144.666 347.092 142.073 347.155 140.106 347.167L139.968 346.115C140.382 346.115 140.833 346.115 141.296 346.102V343.372H140.269V342.345H146.344V343.372H145.342V345.952C145.856 345.915 146.357 345.877 146.845 345.814ZM142.937 351.827H149.501V352.841H141.647V349.898H147.847V348.983H141.634V347.981H149.125V350.837H142.937V351.827Z" fill="#333333"/>
<path d="M154.803 348.044V350.499H157.659V348.031C157.221 348.144 156.732 348.194 156.231 348.194C155.73 348.194 155.242 348.144 154.803 348.044ZM156.231 343.297C154.515 343.297 153.325 344.048 153.325 345.238C153.325 346.441 154.515 347.192 156.231 347.192C157.935 347.192 159.125 346.441 159.125 345.238C159.125 344.048 157.935 343.297 156.231 343.297ZM158.95 350.499H161.367V351.551H151.121V350.499H153.513V347.555C152.611 347.054 152.073 346.24 152.073 345.238C152.073 343.434 153.814 342.282 156.231 342.282C158.636 342.282 160.39 343.434 160.39 345.238C160.39 346.24 159.851 347.042 158.95 347.555V350.499Z" fill="#333333"/>
<path d="M85.9042 388.215C85.9042 389.004 86.5681 389.505 87.5075 389.505C88.4595 389.505 89.0983 389.004 89.0983 388.215C89.0983 387.439 88.4595 386.938 87.5075 386.938C86.5681 386.938 85.9042 387.439 85.9042 388.215ZM91.0148 391.134L91.1025 392.073C88.7727 392.512 86.1422 392.549 84.2507 392.549L84.0879 391.497C84.9021 391.497 85.8666 391.497 86.8812 391.459V390.432C85.5785 390.232 84.7017 389.38 84.7017 388.215C84.7017 386.875 85.8666 385.961 87.5075 385.961C89.1484 385.961 90.3009 386.875 90.3009 388.215C90.3009 389.368 89.4491 390.219 88.1714 390.432V391.409C89.1359 391.347 90.113 391.272 91.0148 391.134ZM86.9438 393.389V395.518H93.3572V396.558H85.6537V393.389H86.9438ZM92.9689 389.18H94.5222V390.244H92.9689V394.128H91.6787V385.485H92.9689V389.18Z" fill="#333333"/>
<path d="M101.478 388.503H103.533V385.485H104.823V393.752H103.533V389.568H101.478V388.503ZM102.18 391.146L101.541 392.148C100.288 391.723 99.374 390.833 98.898 389.718C98.397 390.946 97.445 391.935 96.1047 392.399L95.4408 391.384C97.1945 390.771 98.2216 389.28 98.2216 387.752V387.363H95.8291V386.324H101.879V387.363H99.5243V387.752C99.5243 389.142 100.489 390.558 102.18 391.146ZM98.7853 395.518H105.111V396.57H97.4951V393.038H98.7853V395.518Z" fill="#333333"/>
<path d="M110.426 393.288C111.353 393.288 112.03 392.662 112.03 391.71C112.03 390.758 111.353 390.132 110.426 390.132C109.499 390.132 108.823 390.758 108.823 391.71C108.823 392.662 109.499 393.288 110.426 393.288ZM110.426 389.067C112.067 389.067 113.27 390.169 113.27 391.71C113.27 393.263 112.067 394.353 110.426 394.353C108.785 394.353 107.583 393.263 107.583 391.71C107.583 390.169 108.785 389.067 110.426 389.067ZM111.065 385.622V387.238H113.783V388.278H107.032V387.238H109.762V385.622H111.065ZM114.798 385.472H116.101V396.783H114.798V385.472Z" fill="#333333"/>
<path d="M126.514 394.366H131.011V395.43H120.765V394.366H125.224V391.697H122.018V386.324H129.759V387.363H123.308V390.658H129.859V391.697H126.514V394.366Z" fill="#333333"/>
<path d="M137.216 386.662C135.537 386.662 134.51 387.075 134.51 387.814C134.51 388.541 135.537 388.954 137.216 388.954C138.894 388.954 139.909 388.541 139.909 387.814C139.909 387.075 138.894 386.662 137.216 386.662ZM137.216 389.944C134.748 389.944 133.183 389.142 133.183 387.814C133.183 386.474 134.748 385.66 137.216 385.66C139.684 385.66 141.249 386.474 141.249 387.814C141.249 389.142 139.684 389.944 137.216 389.944ZM139.821 395.618V393.89H134.598V395.618H139.821ZM142.327 391.723H137.855V392.862H141.087V396.645H133.32V392.862H136.565V391.723H132.093V390.683H142.327V391.723Z" fill="#333333"/>
<path d="M155.421 385.459V391.309H154.118V385.459H155.421ZM148.832 387.213V389.931C149.333 389.919 149.872 389.906 150.386 389.881V387.213H148.832ZM153.141 389.656L153.204 390.57C150.962 390.933 148.369 390.996 146.402 391.009L146.264 389.956C146.678 389.956 147.129 389.956 147.592 389.944V387.213H146.565V386.186H152.64V387.213H151.638V389.794C152.152 389.756 152.653 389.718 153.141 389.656ZM149.233 395.668H155.797V396.683H147.943V393.739H154.143V392.825H147.93V391.823H155.421V394.679H149.233V395.668Z" fill="#333333"/>
<path d="M161.1 391.885V394.34H163.956V391.873C163.517 391.986 163.029 392.036 162.528 392.036C162.027 392.036 161.538 391.986 161.1 391.885ZM162.528 387.138C160.811 387.138 159.621 387.89 159.621 389.08C159.621 390.282 160.811 391.034 162.528 391.034C164.231 391.034 165.421 390.282 165.421 389.08C165.421 387.89 164.231 387.138 162.528 387.138ZM165.246 394.34H167.663V395.393H157.417V394.34H159.809V391.397C158.908 390.896 158.369 390.082 158.369 389.08C158.369 387.276 160.11 386.123 162.528 386.123C164.933 386.123 166.686 387.276 166.686 389.08C166.686 390.082 166.148 390.883 165.246 391.397V394.34Z" fill="#333333"/>
</g>
<path d="M3.92632 188.054L3.26119 186.915C4.80566 186.51 5.53844 185.54 5.6399 184.503H3.56557V183.319H5.65117V182.192H7.15055V183.319H9.2587V184.503H7.16182C7.26328 185.495 8.01861 186.431 9.54053 186.825L8.88667 187.953C7.69168 187.648 6.87998 186.983 6.41777 186.126C5.95556 187.028 5.13259 187.727 3.92632 188.054ZM7.15055 187.75V189.26C7.98479 189.204 8.80776 189.136 9.5969 189.012L9.68709 190.095C7.45493 190.545 5.00858 190.557 3.22736 190.568L3.03571 189.362C3.80231 189.362 4.7042 189.362 5.65117 189.328V187.75H7.15055ZM10.1606 182.09H11.6487V192.507H10.1606V182.09Z" fill="#333333"/>
<path d="M15.8688 188.787V191.12H21.7874V192.304H14.3807V188.787H15.8688ZM21.2688 186.701H22.5991V187.885H13.197V186.701H19.7807C20.0062 185.551 20.04 184.672 20.04 183.86H14.3581V182.677H21.5056V183.578C21.5056 184.458 21.5056 185.439 21.2688 186.701Z" fill="#333333"/>
<path d="M31.9146 183.195L31.9033 184.356H25.7931V183.195H28.0929V182.09H29.5922V183.195H31.9146ZM27.7208 186.724C27.7208 187.299 28.1831 187.603 28.8482 187.603C29.5021 187.603 29.9755 187.299 29.9755 186.724C29.9755 186.16 29.5021 185.856 28.8482 185.856C28.1831 185.856 27.7208 186.16 27.7208 186.724ZM31.396 186.724C31.396 187.919 30.3363 188.73 28.8482 188.73C27.3601 188.73 26.3004 187.919 26.3004 186.724C26.3004 185.551 27.3601 184.728 28.8482 184.728C30.3363 184.728 31.396 185.551 31.396 186.724ZM28.758 189.294V191.12H34.3384V192.304H27.2699V189.294H28.758ZM33.9664 185.269H35.3417V186.498H33.9664V189.869H32.4783V182.102H33.9664V185.269Z" fill="#333333"/>
<path d="M44.2739 185.529L44.4205 186.69C43.079 186.983 41.8276 187.039 39.618 187.039H38.7499V182.643H43.3946V183.804H40.2268V185.867C42.008 185.856 43.0902 185.777 44.2739 185.529ZM41.1963 190.545V191.199H46.8669V192.361H39.7194V189.463H45.0969V188.854H39.7082V187.682H46.5625V190.545H41.1963ZM46.5625 184.063H47.9378V185.269H46.5625V187.254H45.0744V182.09H46.5625V184.063Z" fill="#333333"/>
<path d="M48.9676 182.879H53.9617C53.9617 185.698 52.2256 187.648 49.1367 188.539L48.5166 187.355C50.8277 186.724 52.1129 185.517 52.3496 184.063H48.9676V182.879ZM51.5492 188.787V191.12H57.1183V192.304H50.0611V188.787H51.5492ZM56.7575 184.999H58.1442V186.216H56.7575V189.531H55.2694V182.102H56.7575V184.999Z" fill="#333333"/>
<path d="M62.1388 182.789C63.7622 182.789 65.0023 183.86 65.0023 185.348C65.0023 186.848 63.7622 187.907 62.1388 187.907C60.5154 187.907 59.2866 186.848 59.2866 185.348C59.2866 183.86 60.5154 182.789 62.1388 182.789ZM62.1388 184.063C61.3384 184.063 60.7296 184.537 60.7296 185.348C60.7296 186.16 61.3384 186.634 62.1388 186.634C62.9393 186.634 63.548 186.16 63.548 185.348C63.548 184.537 62.9393 184.063 62.1388 184.063ZM65.9718 182.09H67.4599V192.507H65.9718V182.09ZM59.0386 190.399L58.847 189.193C60.6733 189.193 63.2211 189.181 65.4082 188.854L65.4983 189.925C63.2662 190.376 60.8311 190.399 59.0386 190.399Z" fill="#333333"/>
<path d="M77.5195 186.701L76.7416 187.851C75.6481 187.49 74.8928 186.791 74.4531 185.912C74.0022 186.927 73.2017 187.727 72.018 188.144L71.2401 186.972C72.9763 186.397 73.6752 185.01 73.6752 183.601V182.665H75.1859V183.725C75.1859 184.976 75.8848 186.194 77.5195 186.701ZM76.1779 191.335C77.4969 191.335 78.2072 191.064 78.2072 190.478C78.2072 189.903 77.4969 189.632 76.1779 189.632C74.8477 189.632 74.1374 189.903 74.1374 190.478C74.1374 191.064 74.8477 191.335 76.1779 191.335ZM76.1779 188.482C78.3312 188.482 79.684 189.226 79.684 190.478C79.684 191.74 78.3312 192.485 76.1779 192.485C74.0134 192.485 72.6606 191.74 72.6606 190.478C72.6606 189.226 74.0134 188.482 76.1779 188.482ZM79.5713 184.514H80.9466V185.743H79.5713V188.246H78.0832V182.113H79.5713V184.514Z" fill="#333333"/>
<path d="M87.6357 182.846V183.917H81.7396V182.846H83.9492V182.023H85.4373V182.846H87.6357ZM83.5659 185.664C83.5659 186.014 83.983 186.183 84.6933 186.183C85.4035 186.183 85.8093 186.014 85.8093 185.664C85.8093 185.315 85.4035 185.134 84.6933 185.134C83.983 185.134 83.5659 185.315 83.5659 185.664ZM87.8949 187.434L87.9964 188.426C85.8319 188.821 83.4532 188.843 81.6381 188.843L81.4803 187.716C82.2244 187.716 83.0586 187.716 83.9492 187.693V187.107C82.8331 186.938 82.1567 186.431 82.1567 185.664C82.1567 184.728 83.1488 184.176 84.6933 184.176C86.2265 184.176 87.2185 184.728 87.2185 185.664C87.2185 186.419 86.5421 186.938 85.4373 187.096V187.637C86.2828 187.592 87.1058 187.535 87.8949 187.434ZM86.3505 191.425C87.7709 191.425 88.4023 191.256 88.4023 190.861C88.4023 190.467 87.7709 190.286 86.3617 190.286C84.9526 190.286 84.3212 190.467 84.3212 190.861C84.3212 191.256 84.9526 191.425 86.3505 191.425ZM86.3617 189.215C88.5939 189.215 89.9016 189.79 89.9016 190.861C89.9016 191.932 88.5939 192.496 86.3617 192.496C84.1296 192.496 82.8219 191.932 82.8219 190.861C82.8219 189.79 84.1296 189.215 86.3617 189.215ZM89.834 185.044H91.1417V186.273H89.834V189.102H88.3459V182.102H89.834V185.044Z" fill="#333333"/>
<path d="M96.5005 183.342C95.0011 183.342 94.2908 183.556 94.2908 184.018C94.2908 184.503 95.0011 184.706 96.5005 184.706C98.0111 184.706 98.7213 184.503 98.7213 184.018C98.7213 183.556 98.0111 183.342 96.5005 183.342ZM96.5005 185.788C94.133 185.788 92.7464 185.168 92.7464 184.018C92.7464 182.879 94.133 182.248 96.5005 182.248C98.8792 182.248 100.266 182.879 100.266 184.018C100.266 185.168 98.8792 185.788 96.5005 185.788ZM94.3698 190.703V191.29H100.322V192.406H92.8929V189.677H98.5861V189.125H92.8817V188.031H100.052V190.703H94.3698ZM91.8107 186.284H101.19V187.445H91.8107V186.284Z" fill="#333333"/>
<path d="M105.309 186.419L104.801 185.247C106.74 185.089 107.755 184.413 108.014 183.714H105.264V182.53H112.941V183.714H110.179C110.438 184.413 111.453 185.089 113.392 185.247L112.873 186.419C110.923 186.228 109.638 185.506 109.097 184.514C108.544 185.506 107.27 186.228 105.309 186.419ZM109.074 191.38C110.472 191.38 111.171 191.166 111.171 190.658C111.171 190.162 110.472 189.937 109.074 189.937C107.676 189.937 106.977 190.162 106.977 190.658C106.977 191.166 107.676 191.38 109.074 191.38ZM109.074 188.821C111.329 188.821 112.682 189.486 112.682 190.658C112.682 191.831 111.329 192.485 109.074 192.485C106.819 192.485 105.478 191.831 105.478 190.658C105.478 189.486 106.819 188.821 109.074 188.821ZM109.829 187.073H113.786V188.257H104.407V187.073H108.341V185.833H109.829V187.073Z" fill="#333333"/>
<path d="M120.735 183.015L120.723 184.176H114.602V183.015H116.913V182.023H118.412V183.015H120.735ZM116.541 186.295C116.541 186.791 117.003 187.051 117.668 187.051C118.333 187.051 118.796 186.791 118.796 186.295C118.796 185.799 118.333 185.54 117.668 185.54C117.003 185.54 116.541 185.799 116.541 186.295ZM120.216 186.295C120.216 187.389 119.168 188.133 117.668 188.133C116.169 188.133 115.12 187.389 115.12 186.295C115.12 185.191 116.169 184.458 117.668 184.458C119.168 184.458 120.216 185.191 120.216 186.295ZM121.31 191.211V190.478H117.51V191.211H121.31ZM121.31 189.362V188.573H122.786V192.361H116.034V188.573H117.51V189.362H121.31ZM124.162 184.593V185.811H122.786V188.189H121.298V182.113H122.786V184.593H124.162Z" fill="#333333"/>
<path d="M127.818 189.148C128.517 189.148 129.024 188.674 129.024 187.874C129.024 187.096 128.517 186.611 127.818 186.611C127.119 186.611 126.601 187.096 126.601 187.885C126.601 188.674 127.119 189.148 127.818 189.148ZM127.818 185.405C129.318 185.405 130.434 186.431 130.434 187.874C130.434 189.339 129.318 190.365 127.818 190.365C126.308 190.365 125.18 189.339 125.18 187.874C125.18 186.431 126.308 185.405 127.818 185.405ZM128.551 182.282V183.635H130.806V184.819H124.763V183.635H127.063V182.282H128.551ZM134.458 186.16V187.389H132.97V192.485H131.482V182.102H132.97V186.16H134.458Z" fill="#333333"/>
<path d="M140.482 187.445H142.252V185.416H140.448C140.516 185.754 140.55 186.126 140.55 186.521C140.55 186.848 140.527 187.163 140.482 187.445ZM137.867 188.888C138.633 188.888 139.152 188.065 139.152 186.521C139.152 184.988 138.633 184.165 137.867 184.165C137.111 184.165 136.593 184.988 136.593 186.521C136.593 188.065 137.111 188.888 137.867 188.888ZM142.252 182.09H143.74V192.507H142.252V188.652H140.133C139.671 189.666 138.87 190.252 137.867 190.241C136.322 190.241 135.184 188.809 135.184 186.521C135.184 184.244 136.322 182.823 137.867 182.823C138.802 182.823 139.58 183.33 140.043 184.221H142.252V182.09Z" fill="#333333"/>
<path d="M156.246 182.102V187.299H154.747V182.102H156.246ZM149.211 184.773C149.211 185.517 149.786 185.946 150.553 185.946C151.32 185.946 151.872 185.517 151.872 184.773C151.872 184.041 151.32 183.601 150.553 183.601C149.786 183.601 149.211 184.041 149.211 184.773ZM153.315 184.773C153.315 186.16 152.131 187.152 150.553 187.152C148.963 187.152 147.768 186.16 147.768 184.773C147.768 183.398 148.963 182.406 150.553 182.406C152.131 182.406 153.315 183.398 153.315 184.773ZM150.812 191.211H156.505V192.361H149.335V189.497H154.769V188.866H149.324V187.727H156.246V190.557H150.812V191.211Z" fill="#333333"/>
<path d="M163.95 186.701L163.172 187.851C162.078 187.49 161.323 186.791 160.883 185.912C160.432 186.927 159.632 187.727 158.448 188.144L157.67 186.972C159.407 186.397 160.106 185.01 160.106 183.601V182.665H161.616V183.725C161.616 184.976 162.315 186.194 163.95 186.701ZM162.608 191.335C163.927 191.335 164.637 191.064 164.637 190.478C164.637 189.903 163.927 189.632 162.608 189.632C161.278 189.632 160.568 189.903 160.568 190.478C160.568 191.064 161.278 191.335 162.608 191.335ZM162.608 188.482C164.761 188.482 166.114 189.226 166.114 190.478C166.114 191.74 164.761 192.485 162.608 192.485C160.444 192.485 159.091 191.74 159.091 190.478C159.091 189.226 160.444 188.482 162.608 188.482ZM166.002 184.514H167.377V185.743H166.002V188.246H164.513V182.113H166.002V184.514Z" fill="#333333"/>
<path d="M174.663 185.822V188.122H173.277V182.293H174.663V184.627H175.475V182.102H176.884V188.449H175.475V185.822H174.663ZM173.266 186.712L172.476 187.84C171.62 187.502 171.022 186.882 170.65 186.138C170.278 187.017 169.635 187.761 168.677 188.167L167.888 187.017C169.342 186.386 169.906 185.1 169.906 183.928V182.722H171.338V183.928C171.338 185.044 171.901 186.16 173.266 186.712ZM173.367 191.368C174.697 191.368 175.441 191.098 175.441 190.545C175.441 189.993 174.697 189.723 173.367 189.723C172.014 189.723 171.27 189.993 171.27 190.545C171.27 191.098 172.014 191.368 173.367 191.368ZM173.367 188.606C175.543 188.606 176.929 189.339 176.929 190.545C176.929 191.763 175.543 192.485 173.367 192.485C171.18 192.485 169.782 191.763 169.782 190.545C169.782 189.339 171.18 188.606 173.367 188.606Z" fill="#333333"/>
<path d="M184.272 182.755V183.736H178.376V182.755H180.586V182.023H182.074V182.755H184.272ZM180.203 185.292C180.203 185.596 180.62 185.754 181.33 185.754C182.04 185.754 182.446 185.596 182.446 185.292C182.446 184.999 182.04 184.852 181.33 184.852C180.62 184.852 180.203 184.999 180.203 185.292ZM184.532 186.825L184.633 187.716C182.457 188.099 180.056 188.122 178.264 188.122L178.117 187.107C178.861 187.107 179.695 187.107 180.586 187.085V186.611C179.47 186.476 178.793 186.002 178.793 185.292C178.793 184.447 179.785 183.939 181.33 183.939C182.874 183.939 183.855 184.447 183.855 185.292C183.855 186.002 183.179 186.476 182.074 186.611V187.028C182.908 186.983 183.742 186.915 184.532 186.825ZM180.98 190.929V191.425H186.831V192.406H179.504V190.016H185.005V189.565H179.492V188.584H186.471V190.929H180.98ZM186.471 184.548H187.778V185.766H186.471V188.212H184.983V182.09H186.471V184.548Z" fill="#333333"/>
<path d="M190.781 188.978C191.356 188.978 191.683 188.201 191.683 186.6C191.683 185.01 191.356 184.232 190.781 184.232C190.217 184.232 189.879 185.01 189.879 186.6C189.879 188.201 190.217 188.978 190.781 188.978ZM193.836 185.923V182.271H195.223V192.022H193.836V187.13H193.024C192.889 189.159 192.044 190.376 190.781 190.376C189.406 190.376 188.538 188.956 188.538 186.6C188.538 184.255 189.406 182.834 190.781 182.834C192.01 182.834 192.844 183.984 193.013 185.923H193.836ZM195.944 182.09H197.353V192.473H195.944V182.09Z" fill="#333333"/>
<path d="M202.554 182.902V184.401C202.554 186.363 203.31 188.268 205.023 189.035L204.144 190.219C203.005 189.666 202.25 188.652 201.822 187.4C201.371 188.73 200.593 189.813 199.432 190.399L198.507 189.204C200.266 188.392 201.055 186.374 201.055 184.401V182.902H202.554ZM205.88 182.09H207.368V192.507H205.88V186.543H203.885V185.348H205.88V182.09Z" fill="#333333"/>
<path d="M213.132 184.266V188.776C214.609 188.753 215.838 188.674 217.18 188.449L217.326 189.677C215.759 189.959 214.339 190.016 212.535 190.016H211.656V183.06H216.492V184.266H213.132ZM220.889 185.935V187.163H219.378V192.507H217.89V182.102H219.378V185.935H220.889Z" fill="#333333"/>
<path d="M226.146 182.305C228.434 182.305 229.911 183.071 229.911 184.323C229.911 185.585 228.434 186.34 226.146 186.34C223.857 186.34 222.392 185.585 222.392 184.323C222.392 183.071 223.857 182.305 226.146 182.305ZM226.146 183.443C224.737 183.443 223.925 183.736 223.925 184.323C223.925 184.909 224.737 185.202 226.146 185.202C227.566 185.202 228.378 184.909 228.378 184.323C228.378 183.736 227.566 183.443 226.146 183.443ZM222.55 188.843H229.72V192.361H222.55V188.843ZM228.254 190.004H224.004V191.199H228.254V190.004ZM221.456 186.938H230.836V188.11H221.456V186.938Z" fill="#333333"/>
<path d="M237.164 187.953L235.71 187.829C235.946 186.352 235.98 185.236 235.98 184.311H232.102V183.128H237.446V183.973C237.446 184.976 237.446 186.239 237.164 187.953ZM234.898 186.104V189.125C235.901 189.091 236.916 189.024 237.863 188.911L237.942 189.982C235.834 190.343 233.511 190.388 231.708 190.399L231.572 189.181C232.147 189.181 232.779 189.181 233.432 189.17V186.104H234.898ZM241.222 186.273V187.513H239.825V192.473H238.336V182.09H239.825V186.273H241.222Z" fill="#333333"/>
<path d="M3.45283 199.073H8.36809C8.36809 201.847 6.69961 203.414 3.53175 204.011L2.9568 202.827C5.47079 202.41 6.56433 201.396 6.71088 200.257H3.45283V199.073ZM5.84282 206.953V207.574H11.4232V208.644H4.36599V204.225H11.209V205.308H5.84282V205.916H11.0963V206.953H5.84282ZM11.1639 200.505H12.5393V201.734H11.1639V203.808H9.67582V198.374H11.1639V200.505Z" fill="#333333"/>
<path d="M17.8868 199.862C16.5001 199.862 15.6659 200.201 15.6659 200.832C15.6659 201.475 16.5001 201.79 17.8868 201.79C19.2847 201.79 20.1189 201.475 20.1189 200.832C20.1189 200.201 19.2847 199.862 17.8868 199.862ZM17.8868 202.974C15.6321 202.974 14.1327 202.151 14.1327 200.832C14.1327 199.513 15.6321 198.69 17.8868 198.69C20.1527 198.69 21.6521 199.513 21.6521 200.832C21.6521 202.151 20.1527 202.974 17.8868 202.974ZM15.8237 205.567V207.404H21.5281V208.588H14.3356V205.567H15.8237ZM13.197 203.684H22.5765V204.868H13.197V203.684Z" fill="#333333"/>
<path d="M30.4603 207.652C31.847 207.652 32.5572 207.416 32.5572 206.875C32.5572 206.333 31.847 206.085 30.4603 206.085C29.0737 206.085 28.3634 206.333 28.3634 206.875C28.3634 207.416 29.0737 207.652 30.4603 207.652ZM30.4603 204.958C32.7037 204.958 34.0678 205.646 34.0678 206.875C34.0678 208.092 32.7037 208.78 30.4603 208.78C28.2169 208.78 26.8641 208.092 26.8641 206.875C26.8641 205.646 28.2169 204.958 30.4603 204.958ZM31.2382 203.267H35.1952V204.451H25.8043V203.267H29.7501V202.41H26.943V198.825H34.0678V200.009H28.4198V201.227H34.1242V202.41H31.2382V203.267Z" fill="#333333"/>
<path d="M42.1999 203.132L41.4445 204.282C40.3172 203.921 39.5393 203.188 39.0884 202.275C38.6262 203.278 37.8145 204.079 36.6195 204.473L35.8416 203.312C37.5326 202.76 38.2654 201.463 38.2992 200.178H36.2362V198.994H41.8504V200.178H39.8211C39.855 201.373 40.5652 202.602 42.1999 203.132ZM37.2395 206.288V205.105H44.1727V208.78H42.6846V206.288H37.2395ZM45.5481 200.888V202.117H44.1727V204.642H42.6846V198.386H44.1727V200.888H45.5481Z" fill="#333333"/>
<path d="M50.8956 199.626C49.3962 199.626 48.6859 199.84 48.6859 200.302C48.6859 200.787 49.3962 200.99 50.8956 200.99C52.4062 200.99 53.1164 200.787 53.1164 200.302C53.1164 199.84 52.4062 199.626 50.8956 199.626ZM50.8956 202.072C48.5281 202.072 47.1415 201.452 47.1415 200.302C47.1415 199.163 48.5281 198.532 50.8956 198.532C53.2743 198.532 54.6609 199.163 54.6609 200.302C54.6609 201.452 53.2743 202.072 50.8956 202.072ZM48.7649 206.987V207.574H54.7173V208.69H47.288V205.961H52.9812V205.409H47.2768V204.315H54.4467V206.987H48.7649ZM46.2058 202.568H55.5853V203.729H46.2058V202.568Z" fill="#333333"/>
<path d="M64.9121 199.152V200.268H58.7906V199.152H61.1017V198.307H62.601V199.152H64.9121ZM60.7296 202.219C60.7296 202.647 61.1693 202.861 61.857 202.861C62.5447 202.861 62.9843 202.647 62.9843 202.219C62.9843 201.779 62.5447 201.565 61.857 201.565C61.1693 201.565 60.7296 201.779 60.7296 202.219ZM64.4048 202.219C64.4048 203.256 63.4015 203.91 61.857 203.91C60.3238 203.91 59.3092 203.256 59.3092 202.219C59.3092 201.17 60.3238 200.516 61.857 200.516C63.4015 200.516 64.4048 201.17 64.4048 202.219ZM61.609 207.032V207.607H67.2796V208.69H60.1321V206.018H65.5096V205.477H60.1209V204.394H66.9752V207.032H61.609ZM66.9752 200.584H68.3505V201.801H66.9752V203.989H65.4871V198.374H66.9752V200.584Z" fill="#333333"/>
<path d="M72.9086 200.809V205.014C73.1679 204.992 73.461 204.947 73.7654 204.879L73.8781 206.085C73.1228 206.255 72.5817 206.266 72.0406 206.266H71.5783V199.626H73.7654V200.809H72.9086ZM75.479 200.809V205.014C75.8059 204.992 76.1441 204.947 76.5387 204.857L76.6514 206.074C75.8623 206.255 75.2535 206.266 74.6335 206.266H74.1487V199.626H76.4034V200.809H75.479ZM79.064 198.374H80.4506V208.757H79.064V203.594H78.3086V208.295H76.9445V198.543H78.3086V202.399H79.064V198.374Z" fill="#333333"/>
<path d="M85.8768 200.55V205.06C87.3536 205.037 88.5824 204.958 89.924 204.733L90.0705 205.961C88.5035 206.243 87.083 206.3 85.2793 206.3H84.3999V199.344H89.2363V200.55H85.8768ZM93.6329 202.219V203.447H92.1223V208.791H90.6342V198.386H92.1223V202.219H93.6329Z" fill="#333333"/>
<path d="M100.987 200.46V199.75H95.3503V198.622H102.453V201.508H96.8384V202.23H102.656V203.357H95.3729V200.46H100.987ZM96.8722 205.747V207.404H102.689V208.588H95.3841V205.747H96.8722ZM94.2004 204H103.603V205.184H94.2004V204Z" fill="#333333"/>
<path d="M110.618 199.186V200.697C110.618 202.568 111.351 204.451 113.02 205.274L112.118 206.446C111.035 205.894 110.303 204.89 109.874 203.65C109.423 204.969 108.645 206.063 107.473 206.638L106.582 205.432C108.33 204.609 109.119 202.624 109.119 200.697V199.186H110.618ZM116.435 202.376V203.617H114.925V208.769H113.437V198.386H114.925V202.376H116.435Z" fill="#333333"/>
<path d="M122.978 202.681L123.102 203.876C121.659 204.146 120.34 204.191 118.266 204.191H117.375V200.956H120.633V200.088H117.364V198.904H122.099V202.061H118.852V202.996C120.543 202.985 121.681 202.918 122.978 202.681ZM119.878 206.164V207.483H123.722V206.164H119.878ZM118.412 208.644V204.992H125.176V208.644H118.412ZM126.552 200.832V202.049H125.176V204.563H123.688V198.386H125.176V200.832H126.552Z" fill="#333333"/>
<path d="M130.546 199.073C132.17 199.073 133.41 200.144 133.41 201.632C133.41 203.132 132.17 204.191 130.546 204.191C128.923 204.191 127.694 203.132 127.694 201.632C127.694 200.144 128.923 199.073 130.546 199.073ZM130.546 200.347C129.746 200.347 129.137 200.821 129.137 201.632C129.137 202.444 129.746 202.918 130.546 202.918C131.347 202.918 131.955 202.444 131.955 201.632C131.955 200.821 131.347 200.347 130.546 200.347ZM134.379 198.374H135.867V208.791H134.379V198.374ZM127.446 206.683L127.254 205.477C129.081 205.477 131.628 205.465 133.816 205.138L133.906 206.209C131.674 206.66 129.238 206.683 127.446 206.683Z" fill="#333333"/>
<path d="M145.239 206.379H149.207V207.596H139.805V206.379H143.751V204.214H140.899V199.096H148.125V200.291H142.398V203.019H148.204V204.214H145.239V206.379Z" fill="#333333"/>
<path d="M154.701 199.671C153.292 199.671 152.481 199.953 152.481 200.539C152.481 201.114 153.292 201.407 154.701 201.407C156.122 201.407 156.934 201.114 156.934 200.539C156.934 199.953 156.122 199.671 154.701 199.671ZM154.701 202.523C152.413 202.523 150.947 201.779 150.947 200.539C150.947 199.287 152.413 198.543 154.701 198.543C156.99 198.543 158.467 199.287 158.467 200.539C158.467 201.779 156.99 202.523 154.701 202.523ZM156.81 207.483V206.288H152.559V207.483H156.81ZM159.391 204.237H155.446V205.127H158.275V208.644H151.105V205.127H153.957V204.237H150.012V203.053H159.391V204.237Z" fill="#333333"/>
<path d="M164.908 199.626C163.408 199.626 162.698 199.84 162.698 200.302C162.698 200.787 163.408 200.99 164.908 200.99C166.418 200.99 167.129 200.787 167.129 200.302C167.129 199.84 166.418 199.626 164.908 199.626ZM164.908 202.072C162.54 202.072 161.154 201.452 161.154 200.302C161.154 199.163 162.54 198.532 164.908 198.532C167.287 198.532 168.673 199.163 168.673 200.302C168.673 201.452 167.287 202.072 164.908 202.072ZM162.777 206.987V207.574H168.73V208.69H161.3V205.961H166.993V205.409H161.289V204.315H168.459V206.987H162.777ZM160.218 202.568H169.598V203.729H160.218V202.568Z" fill="#333333"/>
<path d="M176.625 202.771V201.441H174.584V202.771H176.625ZM178.09 198.994V203.932H173.119V198.994H174.584V200.302H176.625V198.994H178.09ZM175.723 206.074V207.461H181.247V208.644H174.246V204.89H181.055V206.074H175.723ZM180.987 200.742H182.363V201.971H180.987V204.439H179.499V198.386H180.987V200.742Z" fill="#333333"/>
<path d="M191.385 201.193V202.376H184.182V198.758H185.67V201.193H191.385ZM185.58 205.454V207.359H191.442V208.543H184.08V205.454H185.58ZM183.02 203.436H192.423V204.631H183.02V203.436Z" fill="#333333"/>
<path d="M201.253 200.888H202.809V198.386H204.297V204.563H202.809V202.095H201.253V200.888ZM201.873 203.12L201.152 204.282C200.025 203.91 199.247 203.177 198.796 202.264C198.345 203.312 197.522 204.158 196.316 204.563L195.56 203.391C197.206 202.816 197.961 201.497 198.007 200.201H195.966V199.006H201.546V200.201H199.528C199.574 201.384 200.295 202.602 201.873 203.12ZM200.791 207.652C202.144 207.652 202.854 207.371 202.854 206.784C202.854 206.198 202.144 205.916 200.791 205.916C199.427 205.916 198.717 206.198 198.717 206.784C198.717 207.371 199.427 207.652 200.791 207.652ZM200.791 204.789C202.989 204.789 204.342 205.522 204.342 206.784C204.342 208.047 202.989 208.78 200.791 208.78C198.582 208.78 197.229 208.047 197.229 206.784C197.229 205.522 198.582 204.789 200.791 204.789Z" fill="#333333"/>
<path d="M211.257 206.379H215.225V207.596H205.823V206.379H209.769V204.214H206.916V199.096H214.143V200.291H208.416V203.019H214.222V204.214H211.257V206.379Z" fill="#333333"/>
<path d="M222.816 200.077V199.569H217.179V198.566H224.282V201.012H218.667V201.553H224.462V202.557H217.202V200.077H222.816ZM218.577 207.111V207.675H224.597V208.678H217.1V206.176H222.838V205.646H217.089V204.642H224.315V207.111H218.577ZM216.029 203.053H225.431V204.124H216.029V203.053Z" fill="#333333"/>
<path d="M235.818 204.733V203.188H234.6V202.004H235.818V201.249H234.6V200.054H235.818V198.386H237.306V204.733H235.818ZM231.139 200.257V203.109C231.455 203.109 231.782 203.087 232.109 203.075V200.257H231.139ZM234.488 202.895L234.578 203.989C232.65 204.315 230.418 204.349 228.783 204.349L228.625 203.143C228.964 203.143 229.324 203.143 229.708 203.143V200.257H228.885V199.073H234.364V200.257H233.541V202.996C233.868 202.963 234.183 202.929 234.488 202.895ZM233.789 207.652C235.164 207.652 235.863 207.382 235.863 206.841C235.863 206.288 235.164 206.029 233.789 206.029C232.425 206.029 231.726 206.288 231.726 206.841C231.726 207.382 232.425 207.652 233.789 207.652ZM233.789 204.902C236.01 204.902 237.351 205.612 237.351 206.841C237.351 208.058 236.01 208.769 233.789 208.769C231.579 208.769 230.237 208.058 230.237 206.841C230.237 205.612 231.579 204.902 233.789 204.902Z" fill="#333333"/>
<path d="M239.305 199.445H244.198C244.198 202.557 243.014 205.229 239.565 206.976L238.73 205.837C241.143 204.597 242.428 202.951 242.699 200.652H239.305V199.445ZM248.414 202.343V203.571H246.96V208.746H245.472V198.374H246.96V202.343H248.414Z" fill="#333333"/>
<path d="M5.98938 221.716C6.68833 221.716 7.19564 221.242 7.19564 220.442C7.19564 219.664 6.68833 219.179 5.98938 219.179C5.29042 219.179 4.77184 219.664 4.77184 220.453C4.77184 221.242 5.29042 221.716 5.98938 221.716ZM5.98938 217.973C7.48875 217.973 8.60483 218.999 8.60483 220.442C8.60483 221.907 7.48875 222.933 5.98938 222.933C4.47873 222.933 3.35137 221.907 3.35137 220.442C3.35137 218.999 4.47873 217.973 5.98938 217.973ZM6.72216 214.85V216.203H8.97686V217.386H2.93425V216.203H5.23405V214.85H6.72216ZM12.6295 218.728V219.957H11.1414V225.052H9.65327V214.67H11.1414V218.728H12.6295Z" fill="#333333"/>
<path d="M18.6534 220.013H20.4233V217.984H18.6195C18.6872 218.322 18.721 218.694 18.721 219.089C18.721 219.416 18.6984 219.731 18.6534 220.013ZM16.0379 221.456C16.8045 221.456 17.3231 220.633 17.3231 219.089C17.3231 217.556 16.8045 216.733 16.0379 216.733C15.2826 216.733 14.764 217.556 14.764 219.089C14.764 220.633 15.2826 221.456 16.0379 221.456ZM20.4233 214.658H21.9114V225.075H20.4233V221.219H18.3039C17.8417 222.234 17.0412 222.82 16.0379 222.809C14.4934 222.809 13.3548 221.377 13.3548 219.089C13.3548 216.812 14.4934 215.391 16.0379 215.391C16.9736 215.391 17.7515 215.898 18.2137 216.789H20.4233V214.658Z" fill="#333333"/>
<path d="M32.5234 217.804V216.27H28.4085V217.804H32.5234ZM33.9889 215.109V218.976H26.943V215.109H33.9889ZM28.3634 221.862V223.688H34.1467V224.872H26.8753V221.862H28.3634ZM25.7818 219.799H35.1839V220.971H31.3622V222.741H29.8741V220.971H25.7818V219.799Z" fill="#333333"/>
<path d="M42.1097 215.662V216.823H35.9994V215.662H38.2992V214.602H39.7986V215.662H42.1097ZM37.9272 219.021C37.9272 219.528 38.3894 219.799 39.0545 219.799C39.7197 219.799 40.1819 219.528 40.1819 219.021C40.1819 218.514 39.7197 218.243 39.0545 218.243C38.3894 218.243 37.9272 218.514 37.9272 219.021ZM41.6024 219.021C41.6024 220.126 40.5539 220.87 39.0545 220.87C37.5552 220.87 36.5067 220.126 36.5067 219.021C36.5067 217.916 37.5552 217.161 39.0545 217.161C40.5539 217.161 41.6024 217.916 41.6024 219.021ZM40.7907 223.948C42.0984 223.948 42.7974 223.711 42.7974 223.215C42.7974 222.708 42.0984 222.482 40.7907 222.482C39.4829 222.482 38.784 222.708 38.784 223.215C38.784 223.711 39.4829 223.948 40.7907 223.948ZM40.7907 221.366C42.9326 221.366 44.2742 222.054 44.2742 223.215C44.2742 224.365 42.9326 225.052 40.7907 225.052C38.6487 225.052 37.3071 224.365 37.3071 223.215C37.3071 222.054 38.6487 221.366 40.7907 221.366ZM44.1727 217.319H45.5481V218.536H44.1727V221.253H42.6846V214.681H44.1727V217.319Z" fill="#333333"/>
<path d="M50.8956 215.91C49.3962 215.91 48.6859 216.124 48.6859 216.586C48.6859 217.071 49.3962 217.274 50.8956 217.274C52.4062 217.274 53.1164 217.071 53.1164 216.586C53.1164 216.124 52.4062 215.91 50.8956 215.91ZM50.8956 218.356C48.5281 218.356 47.1415 217.736 47.1415 216.586C47.1415 215.447 48.5281 214.816 50.8956 214.816C53.2743 214.816 54.6609 215.447 54.6609 216.586C54.6609 217.736 53.2743 218.356 50.8956 218.356ZM48.7649 223.271V223.857H54.7173V224.974H47.288V222.245H52.9812V221.693H47.2768V220.599H54.4467V223.271H48.7649ZM46.2058 218.852H55.5853V220.013H46.2058V218.852Z" fill="#333333"/>
<path d="M65.9944 222.336V218.085H64.0892V216.879H65.9944V214.67H67.4825V222.336H65.9944ZM65.0023 219.675L64.2132 220.825C63.1309 220.43 62.3869 219.675 61.9585 218.717C61.5188 219.788 60.7184 220.633 59.5121 221.073L58.7342 219.912C60.4478 219.337 61.1693 217.894 61.1693 216.417V215.301H62.68V216.428C62.68 217.781 63.3789 219.1 65.0023 219.675ZM62.1163 223.688H67.708V224.872H60.6282V221.569H62.1163V223.688Z" fill="#333333"/>
<path d="M73.6755 219.19L73.8107 220.374C72.627 220.566 71.6237 220.599 70.0792 220.599H69.3577V215.369H73.4387V216.541H70.7894V217.398H73.3372V218.525H70.7894V219.404C71.9055 219.393 72.7285 219.337 73.6755 219.19ZM70.7105 222.64V221.456H77.8579V225.064H76.3698V222.64H70.7105ZM76.4487 214.67H77.8579V221.005H76.4487V218.401H75.6145V220.938H74.2279V214.85H75.6145V217.217H76.4487V214.67Z" fill="#333333"/>
<path d="M81.706 221.58C82.2697 221.58 82.6755 221.129 82.6755 220.351C82.6755 219.574 82.2697 219.111 81.706 219.111C81.1423 219.111 80.7365 219.574 80.7365 220.351C80.7365 221.129 81.1423 221.58 81.706 221.58ZM81.706 217.871C83.0363 217.871 83.9833 218.897 83.9833 220.351C83.9833 221.794 83.0363 222.82 81.706 222.82C80.3757 222.82 79.4288 221.794 79.4288 220.351C79.4288 218.897 80.3757 217.871 81.706 217.871ZM82.4388 214.951V216.237H84.1636V217.42H79.2033V216.237H80.9732V214.951H82.4388ZM86.7115 214.658H88.1207V225.041H86.7115V220.092H85.9223V224.613H84.5357V214.861H85.9223V218.897H86.7115V214.658Z" fill="#333333"/>
<path d="M92.8027 219.81L92.2616 218.649C94.381 218.39 95.4858 217.375 95.6324 216.383H92.6449V215.199H100.345V216.383H97.4023C97.5489 217.375 98.6424 218.39 100.751 218.649L100.221 219.81C98.4057 219.562 97.1318 218.784 96.5117 217.725C95.8917 218.784 94.6178 219.562 92.8027 219.81ZM101.202 220.408V221.592H97.222V225.075H95.7339V221.592H91.822V220.408H101.202Z" fill="#333333"/>
<path d="M105.331 215.571V217.262C105.331 218.942 105.782 220.667 107.192 221.603L106.38 222.753C105.501 222.212 104.948 221.332 104.621 220.284C104.26 221.434 103.652 222.426 102.716 222.989L101.825 221.873C103.347 220.949 103.9 219.089 103.9 217.319V215.571H105.331ZM107.406 218.176V214.839H108.792V224.59H107.406V219.382H106.098V218.176H107.406ZM109.514 214.67H110.923V225.052H109.514V214.67Z" fill="#333333"/>
<path d="M115.775 220.656V222.64H118.063V220.656C117.702 220.723 117.319 220.757 116.913 220.757C116.507 220.757 116.135 220.723 115.775 220.656ZM116.913 216.349C115.47 216.349 114.512 216.936 114.512 217.973C114.512 218.999 115.47 219.596 116.913 219.596C118.356 219.596 119.326 218.999 119.326 217.973C119.326 216.936 118.356 216.349 116.913 216.349ZM119.54 222.64H121.625V223.846H112.223V222.64H114.298V220.103C113.509 219.619 113.035 218.875 113.046 217.973C113.046 216.27 114.681 215.177 116.913 215.177C119.157 215.177 120.791 216.27 120.791 217.973C120.791 218.875 120.318 219.619 119.54 220.103V222.64Z" fill="#333333"/>
<path d="M123.771 224.241C123.185 224.241 122.745 223.767 122.745 223.159C122.745 222.538 123.185 222.076 123.771 222.076C124.369 222.076 124.808 222.538 124.808 223.159C124.808 223.767 124.369 224.241 123.771 224.241Z" fill="#333333"/>
<path d="M2.50586 193.206H124.336V193.77H2.50586V193.206Z" fill="#333333"/>
<path d="M124.335 193.206H241.385V193.77H124.335V193.206ZM2.50586 209.49H83.5142V210.054H2.50586V209.49Z" fill="#333333"/>
<path d="M83.5093 209.49H248.719V210.054H83.5093V209.49Z" fill="#333333"/>
<path d="M2.50586 225.774H128.006V226.338H2.50586V225.774Z" fill="#333333"/>
<path fill-rule="evenodd" clip-rule="evenodd" d="M125.34 75.1166C129.733 75.1166 133.293 71.5559 133.293 67.1635C133.293 62.7712 129.733 59.2104 125.34 59.2104C120.948 59.2104 117.387 62.7712 117.387 67.1635C117.387 71.5559 120.948 75.1166 125.34 75.1166ZM120.25 77.5026C114.716 77.5026 110.229 81.9891 110.229 87.5235V100.328C110.229 103.095 112.473 105.338 115.24 105.338H115.83V90.0287H116.99V109.315H125.34H133.691V90.0287H134.838V105.338H135.441C138.208 105.338 140.451 103.095 140.451 100.328V87.5235C140.451 81.9891 135.965 77.5026 130.43 77.5026H120.25Z" fill="url(#paint0_linear_2149_11357)"/>
<path d="M93.1839 17.228V37.4001H89.1855V17.228H93.1839ZM87.1413 30.0648L85.1271 33.2213C82.0607 32.1691 79.9563 30.1249 78.7538 27.5395C77.4911 30.3353 75.3266 32.59 72.1099 33.7023L70.0957 30.5458C74.6953 28.9825 76.6794 25.1044 76.6794 21.4067V18.7311H80.7078V21.4067C80.7078 25.0743 82.6319 28.6217 87.1413 30.0648ZM78.7237 41.2481H93.8753V44.4047H74.7554V35.476H78.7237V41.2481Z" fill="#333333"/>
<path d="M105.283 25.0142V25.5854C105.283 29.7641 106.696 34.003 110.604 36.0773L108.47 39.0234C106.034 37.7307 104.441 35.5362 103.449 32.8906C102.517 35.7767 100.894 38.2418 98.3986 39.6848L96.1739 36.7086C100.112 34.3938 101.525 29.8543 101.525 25.5854V25.0142H97.196V21.8276H101.525V18.0998H105.283V21.8276H109.522V25.0142H105.283ZM111.085 27.6597V17.6488H114.783V43.623H111.085V30.8764H107.928V27.6597H111.085ZM116.677 17.1678H120.435V44.8556H116.677V17.1678Z" fill="#333333"/>
<path d="M130.372 20.0539H143.66C143.66 28.5316 140.804 35.446 130.973 40.1959L128.899 37.0694C135.964 33.6723 139.03 29.3432 139.601 23.2105H130.372V20.0539ZM147.899 17.1678H151.897V44.8556H147.899V17.1678Z" fill="#333333"/>
<path d="M177.614 24.0823V27.2389H158.495V17.6789H162.463V24.0823H177.614ZM167.784 41.7892C171.482 41.7892 173.376 41.1278 173.376 39.6848C173.376 38.2418 171.482 37.5804 167.784 37.5804C164.086 37.5804 162.192 38.2418 162.192 39.6848C162.192 41.1278 164.086 41.7892 167.784 41.7892ZM167.784 34.5441C173.766 34.5441 177.404 36.438 177.404 39.6848C177.404 42.9316 173.766 44.8255 167.784 44.8255C161.801 44.8255 158.194 42.9316 158.194 39.6848C158.194 36.438 161.801 34.5441 167.784 34.5441ZM155.368 29.5837H180.41V32.7403H155.368V29.5837Z" fill="#333333"/>
<g opacity="0.2">
<path d="M101.672 4.81485H103.385C103.362 5.31068 103.228 5.74779 102.983 6.12618C102.739 6.50458 102.399 6.79979 101.966 7.01182C101.535 7.22059 101.026 7.32497 100.439 7.32497C99.9627 7.32497 99.537 7.24505 99.1618 7.08521C98.79 6.92538 98.4736 6.6954 98.2126 6.3953C97.9549 6.09519 97.7575 5.73148 97.6205 5.30415C97.4868 4.87683 97.4199 4.39568 97.4199 3.86071V3.47417C97.4199 2.9392 97.4901 2.45805 97.6303 2.03073C97.7739 1.60014 97.9761 1.23479 98.2371 0.934689C98.5013 0.631322 98.8177 0.399719 99.1863 0.23988C99.5549 0.0800414 99.9643 0.00012207 100.414 0.00012207C101.034 0.00012207 101.558 0.111031 101.985 0.332847C102.412 0.554664 102.744 0.859662 102.978 1.24784C103.213 1.63276 103.352 2.0715 103.394 2.56406H101.682C101.675 2.29658 101.63 2.07313 101.545 1.89372C101.46 1.71105 101.326 1.57404 101.144 1.48271C100.961 1.39137 100.718 1.3457 100.414 1.3457C100.202 1.3457 100.018 1.38485 99.8615 1.46313C99.705 1.54142 99.5745 1.66538 99.4701 1.835C99.3657 2.00463 99.2874 2.22481 99.2352 2.49556C99.1863 2.76305 99.1618 3.08599 99.1618 3.46438V3.86071C99.1618 4.23911 99.1847 4.56205 99.2303 4.82953C99.276 5.09702 99.3494 5.31557 99.4505 5.4852C99.5516 5.65482 99.6821 5.78041 99.842 5.86196C100.005 5.94025 100.204 5.97939 100.439 5.97939C100.7 5.97939 100.92 5.93862 101.099 5.85707C101.279 5.77225 101.418 5.64504 101.515 5.47541C101.613 5.30252 101.665 5.08234 101.672 4.81485Z" fill="#333333"/>
<path d="M108.997 2.93104V4.25216H105.342V2.93104H108.997ZM105.914 0.102875V7.22711H104.197V0.102875H105.914ZM110.152 0.102875V7.22711H108.439V0.102875H110.152Z" fill="#333333"/>
<path d="M116.146 5.906V7.22711H112.349V5.906H116.146ZM112.96 0.102875V7.22711H111.243V0.102875H112.96ZM115.656 2.93104V4.20812H112.349V2.93104H115.656ZM116.16 0.102875V1.42888H112.349V0.102875H116.16Z" fill="#333333"/>
<path d="M120.902 4.81485H122.614C122.591 5.31068 122.458 5.74779 122.213 6.12618C121.968 6.50458 121.629 6.79979 121.195 7.01182C120.765 7.22059 120.256 7.32497 119.668 7.32497C119.192 7.32497 118.767 7.24505 118.391 7.08521C118.02 6.92538 117.703 6.6954 117.442 6.3953C117.184 6.09519 116.987 5.73148 116.85 5.30415C116.716 4.87683 116.649 4.39568 116.649 3.86071V3.47417C116.649 2.9392 116.72 2.45805 116.86 2.03073C117.003 1.60014 117.206 1.23479 117.467 0.934689C117.731 0.631322 118.047 0.399719 118.416 0.23988C118.784 0.0800414 119.194 0.00012207 119.644 0.00012207C120.264 0.00012207 120.787 0.111031 121.215 0.332847C121.642 0.554664 121.973 0.859662 122.208 1.24784C122.443 1.63276 122.581 2.0715 122.624 2.56406H120.911C120.905 2.29658 120.859 2.07313 120.774 1.89372C120.689 1.71105 120.556 1.57404 120.373 1.48271C120.19 1.39137 119.947 1.3457 119.644 1.3457C119.432 1.3457 119.248 1.38485 119.091 1.46313C118.935 1.54142 118.804 1.66538 118.7 1.835C118.595 2.00463 118.517 2.22481 118.465 2.49556C118.416 2.76305 118.391 3.08599 118.391 3.46438V3.86071C118.391 4.23911 118.414 4.56205 118.46 4.82953C118.506 5.09702 118.579 5.31557 118.68 5.4852C118.781 5.65482 118.912 5.78041 119.072 5.86196C119.235 5.94025 119.434 5.97939 119.668 5.97939C119.929 5.97939 120.15 5.93862 120.329 5.85707C120.508 5.77225 120.647 5.64504 120.745 5.47541C120.843 5.30252 120.895 5.08234 120.902 4.81485Z" fill="#333333"/>
<path d="M125.144 0.102875V7.22711H123.426V0.102875H125.144ZM129.396 0.102875L126.636 3.71392L125.021 5.4803L124.708 3.90475L125.741 2.33899L127.277 0.102875H129.396ZM127.365 7.22711L125.525 4.01729L126.861 3.03379L129.396 7.22711H127.365Z" fill="#333333"/>
<path d="M137.039 5.906V7.22711H133.437V5.906H137.039ZM134.049 0.102875V7.22711H132.332V0.102875H134.049Z" fill="#333333"/>
<path d="M139.588 0.102875V7.22711H137.875V0.102875H139.588Z" fill="#333333"/>
<path d="M144.466 5.33351C144.466 5.2226 144.45 5.12311 144.417 5.03504C144.385 4.9437 144.324 4.85889 144.236 4.7806C144.148 4.70231 144.021 4.62403 143.855 4.54574C143.692 4.46419 143.476 4.37937 143.209 4.2913C142.896 4.18692 142.594 4.06948 142.304 3.939C142.013 3.80526 141.754 3.65031 141.526 3.47417C141.297 3.29475 141.116 3.08599 140.982 2.84786C140.849 2.60647 140.782 2.32594 140.782 2.00626C140.782 1.69963 140.85 1.42399 140.987 1.17934C141.124 0.931427 141.315 0.721027 141.56 0.54814C141.808 0.371992 142.098 0.238249 142.431 0.146913C142.764 0.0523143 143.127 0.00501509 143.522 0.00501509C144.044 0.00501509 144.504 0.0963515 144.902 0.279024C145.303 0.458435 145.616 0.714503 145.841 1.04723C146.07 1.37669 146.184 1.7665 146.184 2.21666H144.476C144.476 2.03725 144.439 1.87904 144.364 1.74204C144.292 1.60503 144.183 1.49739 144.036 1.4191C143.889 1.34081 143.705 1.30167 143.483 1.30167C143.268 1.30167 143.086 1.33429 142.94 1.39953C142.793 1.46477 142.682 1.55284 142.607 1.66375C142.532 1.7714 142.494 1.89046 142.494 2.02094C142.494 2.12859 142.524 2.22645 142.582 2.31452C142.644 2.39933 142.731 2.47925 142.842 2.55428C142.956 2.6293 143.093 2.70107 143.253 2.76957C143.416 2.83807 143.599 2.90494 143.801 2.97018C144.179 3.09088 144.515 3.22625 144.809 3.37631C145.106 3.5231 145.355 3.69109 145.557 3.88029C145.763 4.06622 145.918 4.27825 146.022 4.51638C146.13 4.75451 146.184 5.02362 146.184 5.32373C146.184 5.6434 146.122 5.9272 145.998 6.17511C145.874 6.42303 145.696 6.63343 145.464 6.80631C145.233 6.97594 144.956 7.10479 144.633 7.19286C144.31 7.28093 143.949 7.32497 143.551 7.32497C143.186 7.32497 142.826 7.2793 142.47 7.18797C142.118 7.09337 141.798 6.94984 141.511 6.75738C141.224 6.56166 140.994 6.31212 140.821 6.00875C140.651 5.70212 140.567 5.33841 140.567 4.91761H142.289C142.289 5.12638 142.317 5.30252 142.372 5.44605C142.428 5.58958 142.509 5.70538 142.617 5.79346C142.724 5.87827 142.857 5.94025 143.013 5.97939C143.17 6.01527 143.349 6.03322 143.551 6.03322C143.77 6.03322 143.946 6.00223 144.08 5.94025C144.214 5.87501 144.311 5.79019 144.373 5.68581C144.435 5.57816 144.466 5.46073 144.466 5.33351Z" fill="#333333"/>
<path d="M150.519 0.102875V7.22711H148.802V0.102875H150.519ZM152.662 0.102875V1.42888H146.707V0.102875H152.662Z" fill="#333333"/>
</g>
<path d="M51.2575 127.373V131.982H50.4357V127.373H51.2575ZM44.8842 129.698C44.8842 130.469 45.5355 131.02 46.4073 131.02C47.2892 131.02 47.9305 130.469 47.9305 129.698C47.9305 128.916 47.2892 128.365 46.4073 128.365C45.5355 128.365 44.8842 128.916 44.8842 129.698ZM48.7322 129.698C48.7322 130.88 47.7501 131.682 46.4073 131.682C45.0645 131.682 44.0925 130.88 44.0925 129.698C44.0925 128.505 45.0645 127.693 46.4073 127.693C47.7501 127.693 48.7322 128.505 48.7322 129.698ZM46.267 135.59H51.5581V136.241H45.4554V133.986H50.4458V133.075H45.4353V132.423H51.2575V134.598H46.267V135.59Z" fill="#333333"/>
<path d="M57.9782 131.601L57.5473 132.243C56.5753 131.882 55.8037 131.141 55.4028 130.219C55.0321 131.271 54.2304 132.093 53.1782 132.493L52.7473 131.842C54.1101 131.351 54.9819 130.128 54.9819 128.756V127.834H55.8037V128.826C55.8037 130.038 56.6855 131.161 57.9782 131.601ZM56.906 135.71C58.2287 135.71 59.0404 135.339 59.0404 134.718C59.0404 134.087 58.2287 133.716 56.906 133.716C55.5732 133.716 54.7615 134.087 54.7615 134.718C54.7615 135.339 55.5732 135.71 56.906 135.71ZM56.906 133.075C58.7298 133.075 59.8621 133.666 59.8621 134.718C59.8621 135.76 58.7298 136.351 56.906 136.351C55.0721 136.351 53.9398 135.76 53.9398 134.718C53.9398 133.666 55.0721 133.075 56.906 133.075ZM59.7619 129.698H61.0947V130.379H59.7619V132.824H58.9402V127.383H59.7619V129.698Z" fill="#333333"/>
<path d="M66.9937 131.762L66.5829 132.403C65.5808 132.042 64.8092 131.301 64.4083 130.369C64.0275 131.401 63.2058 132.223 62.1536 132.614L61.7227 131.962C63.0555 131.491 63.9875 130.289 63.9875 129.016V128.655H61.9833V127.984H66.7833V128.655H64.8092V129.016C64.8092 130.168 65.691 131.301 66.9937 131.762ZM63.0856 133.906V133.245H69.0981V136.371H68.2664V133.906H63.0856ZM68.2664 127.373H69.0981V132.754H68.2664V130.389H66.5127V129.718H68.2664V127.373Z" fill="#333333"/>
<path d="M77.9733 127.383V133.946H77.1516V127.383H77.9733ZM71.6101 130.209C71.6101 131.1 72.2715 131.722 73.1433 131.722C74.0351 131.722 74.6965 131.1 74.6965 130.209C74.6965 129.337 74.0351 128.715 73.1433 128.715C72.2715 128.715 71.6101 129.337 71.6101 130.209ZM75.4982 130.209C75.4982 131.511 74.4861 132.433 73.1433 132.433C71.8105 132.433 70.8084 131.511 70.8084 130.209C70.8084 128.916 71.8105 128.004 73.1433 128.004C74.4861 128.004 75.4982 128.916 75.4982 130.209ZM73.013 135.49H78.2439V136.161H72.1913V133.275H73.013V135.49Z" fill="#333333"/>
<path d="M87.0829 130.459V132.634H86.3013V127.553H87.0829V129.788H88.2253V127.383H89.0169V132.924H88.2253V130.459H87.0829ZM85.9305 131.591L85.4896 132.223C84.6478 131.882 84.0365 131.241 83.7159 130.479C83.3952 131.321 82.7539 132.082 81.882 132.473L81.4411 131.832C82.6136 131.311 83.315 130.148 83.315 129.146V127.934H84.1067V129.146C84.1067 130.138 84.7781 131.151 85.9305 131.591ZM86.0507 135.72C87.4136 135.72 88.2453 135.359 88.2453 134.738C88.2453 134.117 87.4136 133.766 86.0507 133.766C84.7079 133.766 83.8662 134.117 83.8662 134.738C83.8662 135.359 84.7079 135.72 86.0507 135.72ZM86.0507 133.125C87.9046 133.125 89.057 133.716 89.057 134.738C89.057 135.76 87.9046 136.351 86.0507 136.351C84.2069 136.351 83.0545 135.76 83.0545 134.738C83.0545 133.716 84.2069 133.125 86.0507 133.125Z" fill="#333333"/>
<path d="M95.6775 128.054V128.645H90.5168V128.054H92.6913V127.282H93.513V128.054H95.6775ZM91.7794 130.108C91.7794 130.509 92.2905 130.76 93.1022 130.76C93.9038 130.76 94.4149 130.509 94.4149 130.108C94.4149 129.708 93.9038 129.467 93.1022 129.467C92.2905 129.467 91.7794 129.708 91.7794 130.108ZM95.9481 131.601L95.9982 132.123C94.0842 132.463 91.9598 132.473 90.3865 132.473L90.2963 131.862C90.9978 131.862 91.8295 131.862 92.6913 131.832V131.281C91.6491 131.201 90.9978 130.78 90.9978 130.108C90.9978 129.367 91.8195 128.926 93.1022 128.926C94.3648 128.926 95.1965 129.367 95.1965 130.108C95.1965 130.77 94.5452 131.191 93.513 131.281V131.812C94.3347 131.772 95.1765 131.702 95.9481 131.601ZM92.3105 134.908V135.67H97.6416V136.261H91.5089V134.357H96.4892V133.656H91.4788V133.075H97.3009V134.908H92.3105ZM97.3009 129.667H98.6237V130.359H97.3009V132.684H96.4792V127.373H97.3009V129.667Z" fill="#333333"/>
<path d="M102.158 128.034C103.561 128.034 104.563 128.886 104.563 130.148C104.563 131.401 103.561 132.263 102.158 132.263C100.765 132.263 99.7528 131.401 99.7528 130.148C99.7528 128.886 100.765 128.034 102.158 128.034ZM102.158 128.736C101.236 128.736 100.554 129.307 100.554 130.148C100.554 130.98 101.236 131.561 102.158 131.561C103.09 131.561 103.761 130.98 103.761 130.148C103.761 129.307 103.09 128.736 102.158 128.736ZM105.745 127.373H106.567V136.381H105.745V127.373ZM99.402 134.407L99.3018 133.716C100.935 133.716 103.19 133.706 105.154 133.405L105.224 134.017C103.2 134.387 101.025 134.407 99.402 134.407Z" fill="#333333"/>
<path d="M114.123 128.395C112.76 128.395 111.829 128.896 111.829 129.687C111.829 130.479 112.76 130.99 114.123 130.99C115.496 130.99 116.428 130.479 116.428 129.687C116.428 128.896 115.496 128.395 114.123 128.395ZM114.123 131.652C112.259 131.652 110.987 130.89 110.987 129.687C110.987 128.485 112.259 127.733 114.123 127.733C115.997 127.733 117.27 128.485 117.27 129.687C117.27 130.89 115.997 131.652 114.123 131.652ZM118.212 132.493V133.165H116.087V136.361H115.256V133.165H113.001V136.361H112.169V133.165H110.075V132.493H118.212Z" fill="#333333"/>
<path d="M122.187 128.976V130.118C122.187 131.642 123.269 133.195 124.592 133.756L124.131 134.417C123.089 133.936 122.207 132.904 121.776 131.672C121.365 132.984 120.483 134.117 119.461 134.638L118.98 133.976C120.273 133.365 121.365 131.672 121.365 130.118V128.976H119.281V128.295H124.301V128.976H122.187ZM125.514 127.383H126.335V136.361H125.514V127.383Z" fill="#333333"/>
<path d="M128.366 128.335H132.475C132.475 130.89 131.303 133.205 128.397 134.658L127.946 134.017C130.24 132.864 131.473 131.141 131.663 129.016H128.366V128.335ZM136.243 131.02V131.702H134.8V136.361H133.978V127.373H134.8V131.02H136.243Z" fill="#333333"/>
<path d="M139.641 129.718C139.641 130.519 140.292 131.09 141.174 131.09C142.056 131.09 142.707 130.519 142.707 129.718C142.707 128.926 142.056 128.355 141.174 128.355C140.292 128.355 139.641 128.926 139.641 129.718ZM145.292 130.038H143.468C143.298 131.07 142.386 131.762 141.174 131.762C139.831 131.762 138.859 130.93 138.859 129.718C138.859 128.515 139.831 127.683 141.174 127.683C142.376 127.683 143.288 128.365 143.458 129.377H145.292V127.383H146.114V131.952H145.292V130.038ZM141.154 135.59H146.455V136.241H140.342V133.986H145.302V133.095H140.322V132.443H146.114V134.608H141.154V135.59Z" fill="#333333"/>
<path d="M148.786 128.936V133.415H151.302V128.936H148.786ZM147.985 134.077V128.275H152.103V134.077H147.985ZM156.021 130.96V131.652H154.538V136.361H153.717V127.383H154.538V130.96H156.021Z" fill="#333333"/>
<path d="M157.702 128.244V133.395C158.994 133.395 160.327 133.285 161.78 132.994L161.88 133.676C160.347 133.986 158.974 134.087 157.601 134.087H156.89V128.244H157.702ZM164.887 130.96V131.642H163.444V136.361H162.622V127.373H163.444V130.96H164.887Z" fill="#333333"/>
<path d="M167.843 128.335H171.952C171.952 130.89 170.779 133.205 167.873 134.658L167.422 134.017C169.717 132.864 170.95 131.141 171.14 129.016H167.843V128.335ZM175.72 131.02V131.702H174.277V136.361H173.455V127.373H174.277V131.02H175.72Z" fill="#333333"/>
<path d="M183.473 129.878V130.539H177.37V127.563H178.192V129.878H183.473ZM180.326 135.69C181.729 135.69 182.571 135.319 182.571 134.698C182.571 134.057 181.739 133.696 180.326 133.696C178.913 133.696 178.081 134.057 178.081 134.698C178.081 135.319 178.913 135.69 180.326 135.69ZM180.326 133.055C182.24 133.055 183.403 133.646 183.403 134.698C183.403 135.74 182.24 136.331 180.326 136.331C178.412 136.331 177.25 135.74 177.25 134.698C177.25 133.646 178.412 133.055 180.326 133.055ZM176.278 131.581H184.405V132.253H176.278V131.581Z" fill="#333333"/>
<path d="M190.504 128.475V129.136H185.203V128.475H187.438V127.373H188.259V128.475H190.504ZM186.486 131.301C186.486 131.932 187.037 132.333 187.848 132.333C188.66 132.333 189.221 131.932 189.221 131.301C189.221 130.68 188.66 130.279 187.848 130.279C187.037 130.279 186.486 130.68 186.486 131.301ZM190.003 131.301C190.003 132.313 189.121 132.974 187.848 132.974C186.576 132.974 185.704 132.313 185.704 131.301C185.704 130.299 186.576 129.637 187.848 129.637C189.121 129.637 190.003 130.299 190.003 131.301ZM187.378 133.586V135.49H192.548V136.161H186.556V133.586H187.378ZM192.147 130.339H193.47V131.03H192.147V134.117H191.326V127.373H192.147V130.339Z" fill="#333333"/>
<path d="M197.285 128.976V130.118C197.285 131.642 198.367 133.195 199.69 133.756L199.229 134.417C198.187 133.936 197.305 132.904 196.874 131.672C196.463 132.984 195.581 134.117 194.559 134.638L194.078 133.976C195.371 133.365 196.463 131.672 196.463 130.118V128.976H194.379V128.295H199.399V128.976H197.285ZM200.612 127.383H201.434V136.361H200.612V127.383Z" fill="#333333"/>
<path d="M203.204 137.524L202.983 136.983C203.615 136.702 203.986 136.211 203.986 135.62C203.946 135.63 203.915 135.63 203.875 135.63C203.525 135.63 203.204 135.409 203.204 134.989C203.204 134.598 203.525 134.347 203.895 134.347C204.376 134.347 204.667 134.758 204.667 135.429C204.667 136.391 204.106 137.143 203.204 137.524Z" fill="#333333"/>
<path d="M36.4633 145.15V147.304C38.0566 147.304 39.179 147.234 40.5017 147.014L40.5819 147.675C39.199 147.916 38.0366 147.976 36.3431 147.976H35.6416V141.963H39.8303V142.634H36.4633V144.488H39.6299V145.15H36.4633ZM43.6483 144.759V145.45H42.1652V150.13H41.3435V141.151H42.1652V144.759H43.6483Z" fill="#333333"/>
<path d="M51.5315 141.161V147.725H50.7098V141.161H51.5315ZM45.1682 143.987C45.1682 144.879 45.8296 145.5 46.7014 145.5C47.5933 145.5 48.2546 144.879 48.2546 143.987C48.2546 143.116 47.5933 142.494 46.7014 142.494C45.8296 142.494 45.1682 143.116 45.1682 143.987ZM49.0563 143.987C49.0563 145.29 48.0442 146.212 46.7014 146.212C45.3686 146.212 44.3665 145.29 44.3665 143.987C44.3665 142.695 45.3686 141.783 46.7014 141.783C48.0442 141.783 49.0563 142.695 49.0563 143.987ZM46.5711 149.268H51.802V149.94H45.7494V147.054H46.5711V149.268Z" fill="#333333"/>
<path d="M55.9775 141.813C57.3804 141.813 58.3825 142.665 58.3825 143.927C58.3825 145.18 57.3804 146.042 55.9775 146.042C54.5846 146.042 53.5724 145.18 53.5724 143.927C53.5724 142.665 54.5846 141.813 55.9775 141.813ZM55.9775 142.514C55.0555 142.514 54.3741 143.085 54.3741 143.927C54.3741 144.759 55.0555 145.34 55.9775 145.34C56.9094 145.34 57.5808 144.759 57.5808 143.927C57.5808 143.085 56.9094 142.514 55.9775 142.514ZM59.5649 141.151H60.3867V150.16H59.5649V141.151ZM53.2217 148.186L53.1215 147.495C54.7549 147.495 57.0096 147.485 58.9737 147.184L59.0439 147.795C57.0196 148.166 54.8451 148.186 53.2217 148.186Z" fill="#333333"/>
<path d="M68.3739 148.326H72.0515V149.008H63.8845V148.326H67.5421V146.022H64.9267V141.873H71.0194V142.544H65.7484V145.36H71.1096V146.022H68.3739V148.326Z" fill="#333333"/>
<path d="M76.8683 141.963C75.4353 141.963 74.5435 142.354 74.5435 143.015C74.5435 143.667 75.4353 144.057 76.8683 144.057C78.2813 144.057 79.1731 143.667 79.1731 143.015C79.1731 142.354 78.2813 141.963 76.8683 141.963ZM76.8683 144.689C74.9142 144.689 73.7017 144.078 73.7017 143.015C73.7017 141.943 74.9142 141.322 76.8683 141.322C78.8023 141.322 80.0149 141.943 80.0149 143.015C80.0149 144.078 78.8023 144.689 76.8683 144.689ZM79.133 149.359V147.715H74.6036V149.359H79.133ZM80.9268 146.042H77.2792V147.064H79.9347V150.02H73.8019V147.064H76.4575V146.042H72.7998V145.38H80.9268V146.042Z" fill="#333333"/>
<path d="M88.2387 141.151H89.0605V150.16H88.2387V141.151ZM84.3206 141.843C85.6534 141.843 86.6053 143.065 86.6053 144.979C86.6053 146.893 85.6534 148.116 84.3206 148.116C82.9878 148.116 82.0358 146.893 82.0358 144.979C82.0358 143.065 82.9878 141.843 84.3206 141.843ZM84.3206 142.584C83.4387 142.584 82.8174 143.526 82.8174 144.979C82.8174 146.442 83.4387 147.384 84.3206 147.384C85.1924 147.384 85.8137 146.442 85.8137 144.979C85.8137 143.526 85.1924 142.584 84.3206 142.584Z" fill="#333333"/>
<path d="M99.9237 141.151V145.821H99.102V141.151H99.9237ZM94.6226 142.404V144.799C95.1036 144.789 95.5946 144.769 96.0857 144.739V142.404H94.6226ZM98.2001 144.569L98.2402 145.17C96.4564 145.44 94.3621 145.5 92.7788 145.51L92.6986 144.829C93.0493 144.829 93.4301 144.829 93.8209 144.819V142.404H92.9391V141.753H97.7592V142.404H96.8773V144.689C97.3283 144.659 97.7692 144.609 98.2001 144.569ZM94.8932 149.389H100.264V150.04H94.0815V147.795H99.112V146.893H94.0514V146.252H99.9237V148.407H94.8932V149.389Z" fill="#333333"/>
<path d="M104.259 146.192V148.306H106.765V146.192C106.384 146.282 105.953 146.332 105.502 146.332C105.061 146.332 104.63 146.282 104.259 146.192ZM105.502 142.364C104.059 142.364 103.027 143.025 103.027 144.027C103.027 145.029 104.059 145.691 105.502 145.691C106.945 145.691 107.987 145.029 107.987 144.027C107.987 143.025 106.945 142.364 105.502 142.364ZM107.586 148.306H109.601V148.988H101.434V148.306H103.438V145.881C102.686 145.49 102.235 144.839 102.235 144.027C102.235 142.624 103.598 141.723 105.502 141.723C107.416 141.723 108.769 142.624 108.769 144.027C108.769 144.839 108.328 145.48 107.586 145.871V148.306Z" fill="#333333"/>
<path d="M115.68 142.254V142.915H110.379V142.254H112.614V141.151H113.435V142.254H115.68ZM111.662 145.08C111.662 145.711 112.213 146.112 113.024 146.112C113.836 146.112 114.397 145.711 114.397 145.08C114.397 144.458 113.836 144.057 113.024 144.057C112.213 144.057 111.662 144.458 111.662 145.08ZM115.179 145.08C115.179 146.092 114.297 146.753 113.024 146.753C111.752 146.753 110.88 146.092 110.88 145.08C110.88 144.078 111.752 143.416 113.024 143.416C114.297 143.416 115.179 144.078 115.179 145.08ZM112.553 147.364V149.268H117.724V149.94H111.732V147.364H112.553ZM117.323 144.118H118.646V144.809H117.323V147.895H116.502V141.151H117.323V144.118Z" fill="#333333"/>
<path d="M128.918 144.579L128.577 145.24C127.185 144.999 125.832 144.218 125.25 143.136C124.689 144.228 123.336 144.999 121.934 145.24L121.603 144.579C123.236 144.338 124.82 143.256 124.82 141.973V141.472H125.681V141.973C125.681 143.226 127.285 144.338 128.918 144.579ZM129.309 146.212L129.319 146.893H125.641V150.15H124.82V146.893H121.192V146.212H129.309Z" fill="#333333"/>
<path d="M130.889 145.13L130.578 144.468C132.172 144.258 133.625 143.366 133.625 142.274V142.264H130.829V141.602H137.483V142.264H134.687V142.274C134.687 143.366 136.14 144.258 137.723 144.468L137.423 145.13C135.96 144.909 134.637 144.188 134.156 143.146C133.665 144.188 132.342 144.909 130.889 145.13ZM131.931 147.394V149.268H137.322V149.94H131.109V147.394H131.931ZM130.067 145.781H138.224V146.442H134.627V148.266H133.805V146.442H130.067V145.781Z" fill="#333333"/>
<path d="M145.526 141.151H146.348V150.16H145.526V141.151ZM141.608 141.843C142.941 141.843 143.893 143.065 143.893 144.979C143.893 146.893 142.941 148.116 141.608 148.116C140.275 148.116 139.323 146.893 139.323 144.979C139.323 143.065 140.275 141.843 141.608 141.843ZM141.608 142.584C140.726 142.584 140.105 143.526 140.105 144.979C140.105 146.442 140.726 147.384 141.608 147.384C142.48 147.384 143.101 146.442 143.101 144.979C143.101 143.526 142.48 142.584 141.608 142.584Z" fill="#333333"/>
<path d="M152.231 147.384C153.083 147.384 153.684 146.442 153.684 144.979C153.684 143.526 153.083 142.584 152.231 142.584C151.369 142.584 150.768 143.526 150.768 144.979C150.768 146.442 151.369 147.384 152.231 147.384ZM156.409 141.151H157.231V150.16H156.409V145.25H154.455C154.375 147.014 153.483 148.116 152.231 148.116C150.918 148.116 149.986 146.893 149.986 144.979C149.986 143.065 150.918 141.843 152.231 141.843C153.443 141.843 154.325 142.895 154.455 144.579H156.409V141.151Z" fill="#333333"/>
<path d="M165.946 145.22V145.891H159.723V141.943H160.545V145.22H165.946ZM158.721 148.226H166.878V148.908H158.721V148.226Z" fill="#333333"/>
<path d="M174.364 143.486H176.138V141.161H176.97V146.513H176.138V144.158H174.364V143.486ZM174.865 145.531L174.454 146.172C173.452 145.811 172.681 145.07 172.29 144.148C171.909 145.19 171.077 146.032 170.025 146.432L169.594 145.781C170.937 145.29 171.859 144.078 171.859 142.785V142.474H169.855V141.813H174.655V142.474H172.681V142.785C172.681 143.937 173.563 145.07 174.865 145.531ZM174.003 149.499C175.356 149.499 176.178 149.118 176.178 148.467C176.178 147.815 175.356 147.424 174.003 147.424C172.651 147.424 171.829 147.815 171.829 148.467C171.829 149.118 172.651 149.499 174.003 149.499ZM174.003 146.793C175.847 146.793 177 147.404 177 148.467C177 149.529 175.847 150.14 174.003 150.14C172.16 150.14 171.007 149.529 171.007 148.467C171.007 147.404 172.16 146.793 174.003 146.793Z" fill="#333333"/>
<path d="M182.949 148.326H186.626V149.008H178.459V148.326H182.117V146.022H179.502V141.873H185.594V142.544H180.323V145.36H185.685V146.022H182.949V148.326Z" fill="#333333"/>
<path d="M194.75 141.161V147.725H193.928V141.161H194.75ZM188.387 143.987C188.387 144.879 189.048 145.5 189.92 145.5C190.812 145.5 191.473 144.879 191.473 143.987C191.473 143.116 190.812 142.494 189.92 142.494C189.048 142.494 188.387 143.116 188.387 143.987ZM192.275 143.987C192.275 145.29 191.263 146.212 189.92 146.212C188.587 146.212 187.585 145.29 187.585 143.987C187.585 142.695 188.587 141.783 189.92 141.783C191.263 141.783 192.275 142.695 192.275 143.987ZM189.79 149.268H195.021V149.94H188.968V147.054H189.79V149.268Z" fill="#333333"/>
<path d="M199.487 142.755V143.897C199.487 145.42 200.569 146.974 201.892 147.535L201.431 148.196C200.389 147.715 199.507 146.683 199.076 145.45C198.665 146.763 197.783 147.895 196.761 148.417L196.28 147.755C197.573 147.144 198.665 145.45 198.665 143.897V142.755H196.581V142.073H201.601V142.755H199.487ZM202.814 141.161H203.635V150.14H202.814V141.161Z" fill="#333333"/>
<path d="M211.479 142.725V141.993H206.207V141.412H212.29V143.286H207.039V144.057H212.451V144.649H206.228V142.725H211.479ZM206.989 148.597V149.429H212.601V150.02H206.177V148.026H211.509V147.274H206.157V146.683H212.32V148.597H206.989ZM205.185 145.33H213.332V145.951H205.185V145.33Z" fill="#333333"/>
<path d="M69.7887 158.568L69.488 157.916C71.0713 157.756 72.5043 156.994 72.5745 156.002H69.7887V155.341H76.4325V156.002H73.6367C73.7068 156.994 75.1498 157.756 76.7231 157.916L76.4325 158.568C74.9494 158.397 73.6066 157.746 73.1056 156.764C72.6045 157.746 71.2617 158.397 69.7887 158.568ZM73.0956 163.278C74.5085 163.278 75.3402 162.947 75.3402 162.356C75.3402 161.774 74.5085 161.444 73.0956 161.444C71.6726 161.444 70.8509 161.774 70.8509 162.356C70.8509 162.947 71.6726 163.278 73.0956 163.278ZM73.0956 160.812C75.0196 160.812 76.172 161.364 76.172 162.356C76.172 163.358 75.0196 163.909 73.0956 163.909C71.1715 163.909 70.0191 163.358 70.0191 162.356C70.0191 161.364 71.1715 160.812 73.0956 160.812ZM73.5064 159.409H77.164V160.071H69.0371V159.409H72.6847V158.117H73.5064V159.409Z" fill="#333333"/>
<path d="M83.2735 155.852V156.513H77.9725V155.852H80.2071V154.84H81.0288V155.852H83.2735ZM79.2551 158.508C79.2551 159.099 79.7963 159.46 80.618 159.46C81.4397 159.46 81.9908 159.099 81.9908 158.508C81.9908 157.926 81.4397 157.556 80.618 157.556C79.7963 157.556 79.2551 157.926 79.2551 158.508ZM82.7725 158.508C82.7725 159.47 81.9006 160.081 80.618 160.081C79.3353 160.081 78.4735 159.47 78.4735 158.508C78.4735 157.556 79.3353 156.944 80.618 156.944C81.9006 156.944 82.7725 157.556 82.7725 158.508ZM84.1052 163.137V162.145H80.0768V163.137H84.1052ZM84.1052 161.504V160.552H84.9169V163.799H79.2651V160.552H80.0768V161.504H84.1052ZM86.2497 157.215V157.906H84.9169V160.151H84.0952V154.93H84.9169V157.215H86.2497Z" fill="#333333"/>
<path d="M92.1487 159.319L91.7379 159.961C90.7358 159.6 89.9642 158.858 89.5633 157.926C89.1825 158.959 88.3608 159.78 87.3086 160.171L86.8777 159.52C88.2105 159.049 89.1425 157.846 89.1425 156.574V156.213H87.1383V155.541H91.9383V156.213H89.9642V156.574C89.9642 157.726 90.846 158.858 92.1487 159.319ZM88.2406 161.464V160.802H94.2531V163.929H93.4214V161.464H88.2406ZM93.4214 154.93H94.2531V160.311H93.4214V157.946H91.6677V157.275H93.4214V154.93Z" fill="#333333"/>
<path d="M99.8114 155.491C101.675 155.491 103.078 156.483 103.078 157.977C103.078 159.48 101.675 160.462 99.8114 160.462C97.9476 160.462 96.5446 159.48 96.5446 157.977C96.5446 156.483 97.9476 155.491 99.8114 155.491ZM99.8114 156.163C98.3985 156.163 97.3263 156.894 97.3263 157.977C97.3263 159.069 98.3985 159.79 99.8114 159.79C101.234 159.79 102.297 159.069 102.297 157.977C102.297 156.894 101.234 156.163 99.8114 156.163ZM95.743 162.045H103.91V162.726H95.743V162.045Z" fill="#333333"/>
<path d="M109.138 162.135H112.815V162.807H104.648V162.135H108.306V160.442H105.67V157.666H111.002V156.263H105.65V155.592H111.803V158.327H106.482V159.78H112.014V160.442H109.138V162.135Z" fill="#333333"/>
<path d="M117.456 156.433V159.5C117.926 159.49 118.408 159.48 118.889 159.45V156.433H117.456ZM120.993 159.279L121.053 159.89C119.259 160.171 117.165 160.211 115.612 160.211L115.521 159.53C115.872 159.53 116.253 159.53 116.654 159.52V156.433H115.772V155.772H120.572V156.433H119.68V159.399C120.131 159.369 120.572 159.329 120.993 159.279ZM117.696 160.933V163.047H122.867V163.718H116.874V160.933H117.696ZM122.466 157.666H123.789V158.347H122.466V161.554H121.644V154.93H122.466V157.666Z" fill="#333333"/>
<path d="M129.598 158.868L129.688 159.53C128.455 159.78 127.393 159.84 125.509 159.84H124.808V155.712H128.786V156.373H125.629V159.169C127.403 159.169 128.425 159.099 129.598 158.868ZM126.601 160.782V163.047H131.772V163.718H125.78V160.782H126.601ZM131.371 157.596H132.704V158.277H131.371V161.434H130.55V154.93H131.371V157.596Z" fill="#333333"/>
<path d="M135.938 161.233C136.759 161.233 137.35 160.652 137.35 159.85C137.35 159.039 136.759 158.458 135.938 158.458C135.126 158.458 134.535 159.039 134.535 159.85C134.535 160.652 135.126 161.233 135.938 161.233ZM135.938 157.776C137.22 157.776 138.132 158.638 138.132 159.85C138.132 161.073 137.22 161.915 135.938 161.915C134.675 161.915 133.763 161.073 133.763 159.85C133.763 158.638 134.675 157.776 135.938 157.776ZM136.338 155.04V156.373H138.553V157.035H133.252V156.373H135.517V155.04H136.338ZM141.7 158.628V159.319H140.226V163.919H139.405V154.94H140.226V158.628H141.7Z" fill="#333333"/>
<path d="M147.188 158.608V155.171H147.969V163.468H147.188V159.269H145.344C144.803 160.311 143.941 161.243 142.698 161.985L142.217 161.394C144.141 160.241 145.103 158.628 145.254 156.744H142.598V156.073H146.065C146.065 156.954 145.935 157.806 145.634 158.608H147.188ZM149.062 154.93H149.843V163.919H149.062V154.93Z" fill="#333333"/>
<path d="M158.863 158.928L158.913 159.52C156.959 159.85 154.804 159.88 153.191 159.89L153.071 159.229C153.822 159.229 154.704 159.229 155.606 159.189V158.227H153.882V155.381H158.111V156.052H154.694V157.556H158.201V158.227H156.428V159.159C157.259 159.109 158.081 159.049 158.863 158.928ZM159.604 163.137V162.095H155.345V163.137H159.604ZM159.604 161.454V160.512H160.416V163.799H154.524V160.512H155.345V161.454H159.604ZM159.594 154.94H160.416V160.111H159.594V154.94Z" fill="#333333"/>
<path d="M163.329 155.802V160.893C164.681 160.893 166.074 160.772 167.567 160.472L167.658 161.173C166.094 161.494 164.681 161.594 163.248 161.594H162.507V155.802H163.329ZM168.489 154.93H169.311V163.909H168.489V154.93Z" fill="#333333"/>
<path d="M172.054 156.473V160.993C173.647 160.993 174.799 160.923 176.102 160.692L176.192 161.374C174.819 161.634 173.637 161.694 171.943 161.694H171.232V155.792H175.411V156.473H172.054ZM179.249 158.478V159.159H177.765V163.939H176.944V154.93H177.765V158.478H179.249Z" fill="#333333"/>
<path d="M180.618 163.308C180.257 163.308 179.957 163.027 179.957 162.616C179.957 162.195 180.257 161.905 180.618 161.905C180.979 161.905 181.28 162.195 181.28 162.616C181.28 163.027 180.979 163.308 180.618 163.308Z" fill="#333333"/>
<path opacity="0.2" fill-rule="evenodd" clip-rule="evenodd" d="M160.961 3.46924H172.861V4.09554H160.961V3.46924Z" fill="#979797"/>
<path opacity="0.2" fill-rule="evenodd" clip-rule="evenodd" d="M77.6621 3.46924H89.5619V4.09554H77.6621V3.46924Z" fill="#979797"/>
<defs>
<linearGradient id="paint0_linear_2149_11357" x1="117.785" y1="84.2627" x2="117.785" y2="109.315" gradientUnits="userSpaceOnUse">
<stop stop-color="#5DB0BF"/>
<stop offset="1" stop-color="#5DB0BF" stop-opacity="0.303349"/>
</linearGradient>
<clipPath id="clip0_2149_11357">
<rect width="250.523" height="166.598" fill="white" transform="translate(0 243)"/>
</clipPath>
</defs>
</svg>
