<svg id="download" xmlns="http://www.w3.org/2000/svg" width="50.323" height="60" viewBox="0 0 50.323 60">
  <path id="Oval-Copy-13" d="M25.161,60Q50.323,39.057,50.323,25.161A25.161,25.161,0,0,0,0,25.161Q0,39.057,25.161,60Z" fill="#1fbca9"/>
  <g id="Group-5" transform="translate(13.25 13.25)">
    <path id="Shape" d="M21.033,7.834A2.885,2.885,0,0,1,18.2,5V4.075l-.265-.417V5a2.833,2.833,0,0,1-5.666,0V3.846L12.38,0h3.111l2.061,3.058L15.605,0h3.649l4.611,3.594V5.1a2.656,2.656,0,0,1-.843,1.937A2.911,2.911,0,0,1,21.033,7.834Zm-11.912,0a2.889,2.889,0,0,1-1.989-.81,2.7,2.7,0,0,1-.844-1.953V3.7L8.757,0h3.17l.027,3.929V5.072a2.7,2.7,0,0,1-.844,1.953A2.892,2.892,0,0,1,9.121,7.834Zm-6.287,0a2.889,2.889,0,0,1-1.989-.81A2.7,2.7,0,0,1,0,5.071V3.562L4.569,0H8.284L5.666,4.145v.926a2.7,2.7,0,0,1-.844,1.953A2.892,2.892,0,0,1,2.833,7.834Z" fill="none" stroke="#fff" stroke-linejoin="round" stroke-width="1.5"/>
    <path id="Path" d="M19.167,0a1.25,1.25,0,0,1,1.25,1.25v9.583a1.25,1.25,0,0,1-1.25,1.25H1.25A1.25,1.25,0,0,1,0,10.833V1.25A1.25,1.25,0,0,1,1.25,0Z" transform="translate(1.542 9.917)" fill="none" stroke="#fff" stroke-width="1.5"/>
    <path id="Path-2" data-name="Path" d="M2.385,5.845,1.282,1.46V6.211a.865.865,0,0,1-.176.592A.6.6,0,0,1,.638,7a.6.6,0,0,1-.46-.195A.855.855,0,0,1,0,6.211V.765A.683.683,0,0,1,.235.157,1.124,1.124,0,0,1,.869,0H1.3a1.647,1.647,0,0,1,.566.07.475.475,0,0,1,.261.254,3.935,3.935,0,0,1,.192.6l1,3.77,1-3.77a3.935,3.935,0,0,1,.192-.6A.475.475,0,0,1,4.772.07,1.647,1.647,0,0,1,5.338,0H5.77A1.124,1.124,0,0,1,6.4.157a.683.683,0,0,1,.235.608V6.211a.865.865,0,0,1-.176.592.6.6,0,0,1-.472.2.587.587,0,0,1-.455-.2.857.857,0,0,1-.178-.592V1.46l-1.1,4.385q-.108.427-.176.627a.865.865,0,0,1-.251.364A.732.732,0,0,1,3.319,7a.742.742,0,0,1-.676-.376A1.541,1.541,0,0,1,2.5,6.261Q2.441,6.061,2.385,5.845Z" transform="translate(8.363 12.41)" fill="#fff"/>
  </g>
</svg>
