<svg xmlns="http://www.w3.org/2000/svg" width="61.684" height="58.5" viewBox="0 0 61.684 58.5">
  <g id="Group_41" data-name="Group 41" transform="translate(0 0.5)">
    <path id="Fill_63" data-name="Fill 63" d="M32.77,46.94l-8.6-10.545H8.116a3.1,3.1,0,0,1-3.083-2.785,5.161,5.161,0,0,1-.607-2.436V24.459L3.173,25.711v7.611a1.587,1.587,0,1,1-3.173,0V25.112a1.581,1.581,0,0,1,.112-.587A1.579,1.579,0,0,1,.5,23.9l3.929-3.929v-2.7a5.184,5.184,0,1,1,10.369,0V30.2H25.63a3.09,3.09,0,0,1,2.223.94,3.127,3.127,0,0,1,.253.275l9.466,11.611a3.1,3.1,0,1,1-4.8,3.916ZM4.643,4.982A4.983,4.983,0,1,1,9.626,9.965,4.983,4.983,0,0,1,4.643,4.982Z" transform="translate(18.694)" fill="none" stroke="#979797" stroke-width="1" stroke-dasharray="2 1"/>
    <path id="Fill_64" data-name="Fill 64" d="M36.595,51.6a3.98,3.98,0,0,1,1.568-6.651V38H29.635c.012.186.019.355.024.514a13.8,13.8,0,0,1-13.379,14.2c-.133,0-.27.006-.418.006a13.8,13.8,0,0,1-3.718-27.091L7.354,9.174c-.018-.061-.034-.126-.05-.194L5.448,2.6H1.3A1.3,1.3,0,1,1,1.3,0h5.04C6.37,0,6.4,0,6.449,0A1.29,1.29,0,0,1,7.673.941L8.988,5.457a3.2,3.2,0,0,1,.517-.2,3.135,3.135,0,0,1,.886-.127,3.175,3.175,0,0,1,3.031,2.278l4.092,14.06H39.361a1.2,1.2,0,0,1,1.2,1.2c0,.014,0,.03,0,.044V33.165a2.432,2.432,0,0,1,.853.392,2.464,2.464,0,0,1,.717.608l8.558,10.652a2.505,2.505,0,0,1,.3.465h8.94a1.761,1.761,0,1,1,0,3.522H48.685a1.8,1.8,0,0,1-.506-.074,2.433,2.433,0,0,1-1.314-.842l-6.306-7.852v4.914a3.979,3.979,0,0,1-1.078,7.77l-.118,0A3.958,3.958,0,0,1,36.595,51.6Zm2.716-4.538a1.681,1.681,0,0,0,.049,3.361h.051a1.681,1.681,0,0,0-.049-3.361ZM13.3,29.586a9.663,9.663,0,0,0-4.015,2.242l-.04.037-.005.005a9.785,9.785,0,0,0-.775.818l-.008.01,0,0,0,.005-.014.015a9.58,9.58,0,0,0-2.2,5.309l0,.015v.014l0,.018a9.717,9.717,0,0,0-.031,1.134c.008.257.026.516.053.77a9.649,9.649,0,0,0,9.62,8.623c.089,0,.179,0,.293,0a9.683,9.683,0,0,0,9.354-8.79V39.8l0-.037a9.872,9.872,0,0,0,.031-1.131A9.617,9.617,0,0,0,23.6,33.1h.021a9.648,9.648,0,0,0-3.573-2.922l.005.017a9.575,9.575,0,0,0-4.178-.949c-.1,0-.2,0-.3,0a9.731,9.731,0,0,0-2.282.341v0Zm5.365-4.18a13.844,13.844,0,0,1,9.721,7.69h9.781V23.864H18.212ZM10.823,39.075a5.047,5.047,0,1,1,5.2,4.893l-.151,0A5.05,5.05,0,0,1,10.823,39.075Z" transform="translate(0 5.277)" fill="#333"/>
  </g>
</svg>
