<svg width="311" height="194" viewBox="0 0 311 194" fill="none" xmlns="http://www.w3.org/2000/svg">
<g opacity="0.3">
<g filter="url(#filter0_d_2149_15141)">
<path d="M190.603 31.4797C190.603 25.4591 195.483 20.5784 201.504 20.5784H294.3C300.32 20.5784 305.201 25.4591 305.201 31.4797V155.858C305.201 161.879 300.32 166.759 294.3 166.759H201.504C195.483 166.759 190.603 161.879 190.603 155.858V31.4797Z" fill="white"/>
</g>
<path d="M247.528 69.1492C256.182 69.1492 263.198 62.1245 263.198 53.4591C263.198 44.7937 256.182 37.769 247.528 37.769C238.873 37.769 231.857 44.7937 231.857 53.4591C231.857 62.1245 238.873 69.1492 247.528 69.1492Z" fill="white"/>
<path d="M263.237 53.374C263.237 44.4274 255.663 37.2426 246.547 37.7983C238.754 38.2788 232.403 44.5745 231.893 52.3215C231.595 56.8422 233.24 60.9706 236.07 63.9909C236.489 64.442 237.126 64.6316 237.731 64.4845L237.787 64.4715C238.303 64.3505 238.738 63.9909 238.95 63.5072C239.98 61.2027 241.921 59.382 244.317 58.5092C244.919 58.2902 244.997 57.4796 244.438 57.1625C242.072 55.8158 240.666 52.9817 241.526 49.9353C242.101 47.8988 243.752 46.284 245.808 45.7349C250.018 44.6072 253.826 47.7386 253.826 51.7429C253.826 54.0474 252.565 56.0642 250.692 57.1429C250.116 57.473 250.188 58.2935 250.806 58.519C253.195 59.3918 255.124 61.206 256.144 63.5104C256.356 63.9975 256.788 64.3505 257.301 64.4747L257.35 64.4878C257.961 64.6349 258.599 64.4388 259.024 63.9877C261.632 61.2027 263.234 57.4796 263.234 53.3773" fill="#C1C1C1"/>
<path fill-rule="evenodd" clip-rule="evenodd" d="M207.575 110.814C207.575 110.061 208.185 109.451 208.938 109.451H286.847C287.599 109.451 288.21 110.061 288.21 110.814C288.21 111.566 287.599 112.176 286.847 112.176H208.938C208.185 112.176 207.575 111.566 207.575 110.814Z" fill="#C1C1C1"/>
<path fill-rule="evenodd" clip-rule="evenodd" d="M207.575 120.739C207.575 119.987 208.185 119.376 208.938 119.376H286.847C287.599 119.376 288.21 119.987 288.21 120.739C288.21 121.492 287.599 122.102 286.847 122.102H208.938C208.185 122.102 207.575 121.492 207.575 120.739Z" fill="#C1C1C1"/>
<path fill-rule="evenodd" clip-rule="evenodd" d="M207.575 130.665C207.575 129.913 208.185 129.303 208.938 129.303H286.847C287.599 129.303 288.21 129.913 288.21 130.665C288.21 131.418 287.599 132.028 286.847 132.028H208.938C208.185 132.028 207.575 131.418 207.575 130.665Z" fill="#C1C1C1"/>
<path fill-rule="evenodd" clip-rule="evenodd" d="M207.575 140.591C207.575 139.839 208.185 139.229 208.938 139.229H286.847C287.599 139.229 288.21 139.839 288.21 140.591C288.21 141.344 287.599 141.954 286.847 141.954H208.938C208.185 141.954 207.575 141.344 207.575 140.591Z" fill="#C1C1C1"/>
<path fill-rule="evenodd" clip-rule="evenodd" d="M207.575 150.517C207.575 149.764 208.185 149.154 208.938 149.154H247.892C248.645 149.154 249.255 149.764 249.255 150.517C249.255 151.269 248.645 151.88 247.892 151.88H208.938C208.185 151.88 207.575 151.269 207.575 150.517Z" fill="#C1C1C1"/>
<path d="M216.96 76.6201C216.96 75.416 217.936 74.4398 219.14 74.4398H276.663C277.867 74.4398 278.843 75.416 278.843 76.6201V82.5734C278.843 83.7776 277.867 84.7537 276.663 84.7537H219.14C217.936 84.7537 216.96 83.7776 216.96 82.5734V76.6201Z" fill="#D9D9D9"/>
<g filter="url(#filter1_d_2149_15141)">
<path d="M5.20117 31.4798C5.20117 25.4592 10.0818 20.5785 16.1024 20.5785H108.899C114.919 20.5785 119.8 25.4592 119.8 31.4798V155.858C119.8 161.879 114.919 166.759 108.899 166.759H16.1024C10.0818 166.759 5.20117 161.879 5.20117 155.858V31.4798Z" fill="white"/>
</g>
<path d="M62.1275 69.1495C70.782 69.1495 77.798 62.1248 77.798 53.4594C77.798 44.794 70.782 37.7693 62.1275 37.7693C53.4729 37.7693 46.457 44.794 46.457 53.4594C46.457 62.1248 53.4729 69.1495 62.1275 69.1495Z" fill="white"/>
<path d="M77.8367 53.3741C77.8367 44.4275 70.263 37.2428 61.1464 37.7985C53.3537 38.279 47.0025 44.5746 46.4925 52.3216C46.1951 56.8423 47.8393 60.9707 50.67 63.9911C51.0884 64.4422 51.7258 64.6318 52.3305 64.4847L52.3861 64.4716C52.9026 64.3506 53.3373 63.9911 53.5498 63.5073C54.5795 61.2028 56.5211 59.3821 58.9171 58.5094C59.5186 58.2903 59.597 57.4797 59.038 57.1626C56.6715 55.8159 55.2659 52.9819 56.1256 49.9354C56.7009 47.8989 58.3516 46.2842 60.4077 45.735C64.6178 44.6073 68.4259 47.7388 68.4259 51.743C68.4259 54.0475 67.1642 56.0643 65.2912 57.143C64.7159 57.4732 64.7878 58.2936 65.4056 58.5192C67.7951 59.3919 69.7236 61.2061 70.7435 63.5106C70.956 63.9976 71.3874 64.3506 71.9006 64.4748L71.9497 64.4879C72.5609 64.635 73.1983 64.4389 73.6233 63.9878C76.2318 61.2028 77.8334 57.4797 77.8334 53.3774" fill="#C1C1C1"/>
<path fill-rule="evenodd" clip-rule="evenodd" d="M22.1748 110.814C22.1748 110.061 22.7849 109.451 23.5375 109.451H101.446C102.199 109.451 102.809 110.061 102.809 110.814C102.809 111.566 102.199 112.176 101.446 112.176H23.5375C22.7849 112.176 22.1748 111.566 22.1748 110.814Z" fill="#C1C1C1"/>
<path fill-rule="evenodd" clip-rule="evenodd" d="M22.1748 120.739C22.1748 119.987 22.7849 119.376 23.5375 119.376H101.446C102.199 119.376 102.809 119.987 102.809 120.739C102.809 121.492 102.199 122.102 101.446 122.102H23.5375C22.7849 122.102 22.1748 121.492 22.1748 120.739Z" fill="#C1C1C1"/>
<path fill-rule="evenodd" clip-rule="evenodd" d="M22.1748 130.665C22.1748 129.913 22.7849 129.303 23.5375 129.303H101.446C102.199 129.303 102.809 129.913 102.809 130.665C102.809 131.418 102.199 132.028 101.446 132.028H23.5375C22.7849 132.028 22.1748 131.418 22.1748 130.665Z" fill="#C1C1C1"/>
<path fill-rule="evenodd" clip-rule="evenodd" d="M22.1748 140.591C22.1748 139.839 22.7849 139.229 23.5375 139.229H101.446C102.199 139.229 102.809 139.839 102.809 140.591C102.809 141.344 102.199 141.954 101.446 141.954H23.5375C22.7849 141.954 22.1748 141.344 22.1748 140.591Z" fill="#C1C1C1"/>
<path fill-rule="evenodd" clip-rule="evenodd" d="M22.1748 150.517C22.1748 149.764 22.7849 149.154 23.5375 149.154H62.492C63.2445 149.154 63.8546 149.764 63.8546 150.517C63.8546 151.269 63.2445 151.88 62.492 151.88H23.5375C22.7849 151.88 22.1748 151.269 22.1748 150.517Z" fill="#C1C1C1"/>
<path d="M31.5586 76.6201C31.5586 75.4159 32.5347 74.4398 33.7388 74.4398H91.2616C92.4657 74.4398 93.4418 75.4159 93.4418 76.6201V82.5734C93.4418 83.7775 92.4657 84.7537 91.2616 84.7537H33.7388C32.5347 84.7537 31.5586 83.7775 31.5586 82.5734V76.6201Z" fill="#D9D9D9"/>
</g>
<g filter="url(#filter2_d_2149_15141)">
<path d="M84.3369 16.6403C84.3369 10.6197 89.2176 5.73907 95.2382 5.73907H217.009C223.03 5.73907 227.91 10.6197 227.91 16.6403V177.979C227.91 183.999 223.03 188.88 217.009 188.88H95.2382C89.2176 188.88 84.3369 183.999 84.3369 177.979V16.6403Z" fill="white"/>
</g>
<path fill-rule="evenodd" clip-rule="evenodd" d="M110.106 93.9182C110.106 93.1656 110.717 92.5555 111.469 92.5555H203.923C204.675 92.5555 205.285 93.1656 205.285 93.9182C205.285 94.6707 204.675 95.2808 203.923 95.2808H111.469C110.717 95.2808 110.106 94.6707 110.106 93.9182Z" fill="#C1C1C1"/>
<path fill-rule="evenodd" clip-rule="evenodd" d="M110.106 103.844C110.106 103.091 110.717 102.481 111.469 102.481H203.923C204.675 102.481 205.285 103.091 205.285 103.844C205.285 104.596 204.675 105.206 203.923 105.206H111.469C110.717 105.206 110.106 104.596 110.106 103.844Z" fill="#C1C1C1"/>
<path fill-rule="evenodd" clip-rule="evenodd" d="M110.106 113.77C110.106 113.017 110.717 112.407 111.469 112.407H203.923C204.675 112.407 205.285 113.017 205.285 113.77C205.285 114.522 204.675 115.132 203.923 115.132H111.469C110.717 115.132 110.106 114.522 110.106 113.77Z" fill="#C1C1C1"/>
<path fill-rule="evenodd" clip-rule="evenodd" d="M110.106 123.696C110.106 122.943 110.717 122.333 111.469 122.333H203.923C204.675 122.333 205.285 122.943 205.285 123.696C205.285 124.448 204.675 125.058 203.923 125.058H111.469C110.717 125.058 110.106 124.448 110.106 123.696Z" fill="#C1C1C1"/>
<path fill-rule="evenodd" clip-rule="evenodd" d="M110.106 133.621C110.106 132.869 110.717 132.259 111.469 132.259H157.696C158.449 132.259 159.059 132.869 159.059 133.621C159.059 134.374 158.449 134.984 157.696 134.984H111.469C110.717 134.984 110.106 134.374 110.106 133.621Z" fill="#C1C1C1"/>
<path d="M157.104 60.881C167.947 60.881 176.737 52.0802 176.737 41.2239C176.737 30.3676 167.947 21.5668 157.104 21.5668C146.261 21.5668 137.472 30.3676 137.472 41.2239C137.472 52.0802 146.261 60.881 157.104 60.881Z" fill="white"/>
<path d="M176.786 41.1177C176.786 29.9091 167.297 20.9078 155.876 21.604C146.113 22.206 138.156 30.0934 137.517 39.7991C137.144 45.4628 139.204 50.6351 142.751 54.4191C143.275 54.9842 144.073 55.2217 144.831 55.0374L144.901 55.0211C145.548 54.8695 146.092 54.4191 146.358 53.813C147.648 50.9258 150.081 48.6448 153.083 47.5514C153.836 47.277 153.935 46.2614 153.234 45.8641C150.269 44.1769 148.508 40.6263 149.586 36.8096C150.306 34.2582 152.374 32.2352 154.95 31.5472C160.225 30.1343 164.996 34.0576 164.996 39.0742C164.996 41.9614 163.415 44.4881 161.069 45.8396C160.348 46.2532 160.438 47.2811 161.212 47.5636C164.206 48.6571 166.622 50.9299 167.899 53.8171C168.166 54.4272 168.706 54.8695 169.349 55.0252L169.411 55.0415C170.176 55.2258 170.975 54.9801 171.507 54.415C174.775 50.9258 176.782 46.2614 176.782 41.1218" fill="#FD8106"/>
<path d="M129.543 74.0956H130.564V82.9845H129.543V74.0956ZM125.845 74.7529C127.169 74.7529 128.131 75.9695 128.131 77.8729C128.131 79.7958 127.169 81.0026 125.845 81.0026C124.53 81.0026 123.568 79.7958 123.568 77.8729C123.568 75.9695 124.53 74.7529 125.845 74.7529ZM125.845 75.6654C125.079 75.6654 124.54 76.4993 124.54 77.8729C124.54 79.266 125.079 80.1 125.845 80.1C126.62 80.1 127.159 79.266 127.159 77.8729C127.159 76.4993 126.62 75.6654 125.845 75.6654Z" fill="#333333"/>
<path d="M136.803 81.0909H140.325V81.9248H132.299V81.0909H135.792V79.58H133.271V76.725H138.373V75.5378H133.251V74.7235H139.373V77.5295H134.262V78.7657H139.57V79.58H136.803V81.0909Z" fill="#333333"/>
<path d="M145.328 75.0374C144.013 75.0374 143.209 75.3612 143.209 75.9401C143.209 76.5091 144.013 76.8329 145.328 76.8329C146.643 76.8329 147.437 76.5091 147.437 75.9401C147.437 75.3612 146.643 75.0374 145.328 75.0374ZM145.328 77.608C143.395 77.608 142.169 76.98 142.169 75.9401C142.169 74.8903 143.395 74.2526 145.328 74.2526C147.261 74.2526 148.487 74.8903 148.487 75.9401C148.487 76.98 147.261 77.608 145.328 77.608ZM147.369 82.0524V80.6985H143.277V82.0524H147.369ZM149.331 79.0011H145.828V79.8939H148.36V82.8569H142.277V79.8939H144.818V79.0011H141.315V78.1868H149.331V79.0011Z" fill="#333333"/>
<path d="M160.217 77.3725L159.824 78.1868C158.352 77.9513 157.146 77.2057 156.567 76.1853C155.998 77.2155 154.771 77.9513 153.3 78.1868L152.907 77.3725C154.713 77.1174 156.027 76.0284 156.027 74.8608V74.3899H157.097V74.8608C157.097 76.0087 158.431 77.1174 160.217 77.3725ZM160.56 79.0208V79.8449H157.038V82.9746H156.027V79.8449H152.554V79.0208H160.56Z" fill="#333333"/>
<path d="M167.584 82.0426V81.0124H163.581V82.0426H167.584ZM167.584 80.2275V79.1679H168.595V82.8569H162.58V79.1679H163.581V80.2275H167.584ZM168.388 77.6472H169.605V78.4713H161.58V77.6472H167.388C167.594 76.6759 167.613 75.9499 167.613 75.3023H162.59V74.488H168.604V75.165C168.604 75.8518 168.604 76.5974 168.388 77.6472Z" fill="#333333"/>
<path d="M173.705 75.8223V76.6759C173.705 78.0495 174.579 79.6192 175.923 80.257L175.363 81.0517C174.373 80.5807 173.617 79.5996 173.215 78.4811C172.822 79.7173 172.037 80.7769 171.017 81.2773L170.438 80.4728C171.792 79.8253 172.695 78.1476 172.695 76.6759V75.8223H170.762V74.9884H175.579V75.8223H173.705ZM178.846 77.5981V78.4321H177.463V82.9648H176.452V74.1054H177.463V77.5981H178.846Z" fill="#333333"/>
<path d="M185.066 77.3234L185.184 78.1378C183.771 78.4321 182.456 78.54 180.896 78.54H180.16V74.6156H181.171V77.6963C182.574 77.6864 183.771 77.5883 185.066 77.3234ZM182.123 80.306V82.0426H185.939V80.306H182.123ZM181.122 82.8569V79.5015H186.93V82.8569H181.122ZM185.91 74.1054H186.93V79.0992H185.91V74.1054Z" fill="#333333"/>
<path d="M152.771 66.9854C152.45 66.9854 152.061 67.1609 151.725 67.6416C151.817 68.7557 152.221 69.2823 152.824 69.2823C153.313 69.2823 153.702 68.8397 153.702 68.1071C153.702 67.3898 153.374 66.9854 152.771 66.9854ZM152.832 69.9538C151.763 69.9538 150.894 69.061 150.894 67.1533C150.894 64.9937 151.908 64.1314 153.015 64.1314C153.641 64.1314 154.099 64.3985 154.419 64.7343L153.938 65.2684C153.732 65.0242 153.389 64.8487 153.061 64.8487C152.343 64.8487 151.748 65.3905 151.71 66.993C152.038 66.5886 152.527 66.3444 152.931 66.3444C153.877 66.3444 154.511 66.9243 154.511 68.1071C154.511 69.2212 153.748 69.9538 152.832 69.9538Z" fill="#A3A3A3"/>
<path d="M156.886 69.9538C156.001 69.9538 155.444 69.5951 155.047 69.206L155.467 68.6337C155.787 68.9541 156.192 69.2365 156.779 69.2365C157.413 69.2365 157.893 68.7863 157.893 68.0384C157.893 67.2906 157.466 66.8633 156.825 66.8633C156.466 66.8633 156.253 66.9701 155.925 67.1838L155.497 66.9014L155.665 64.2306H158.512V64.9785H156.428L156.299 66.4207C156.543 66.2986 156.764 66.2223 157.069 66.2223C158.008 66.2223 158.779 66.7794 158.779 68.0079C158.779 69.2518 157.871 69.9538 156.886 69.9538Z" fill="#A3A3A3"/>
<path d="M161.696 64.1849V65.3905C161.696 66.5046 162.116 67.6722 163.039 68.2521L162.596 68.8626C161.971 68.481 161.559 67.8095 161.322 67.0388C161.078 67.8858 160.628 68.6108 159.964 69.0152L159.483 68.42C160.46 67.84 160.933 66.6038 160.933 65.4287V64.1849H161.696ZM163.314 65.9628V63.6812H164.054V70.1217H163.314V66.6038H162.299V65.9628H163.314ZM164.718 63.5515H165.466V70.4422H164.718V63.5515Z" fill="#A3A3A3"/>
<path d="M97.9023 144.669C97.9023 142.863 99.3665 141.399 101.173 141.399H212.204C214.01 141.399 215.474 142.863 215.474 144.669V175.435C215.474 177.241 214.01 178.706 212.204 178.706H101.173C99.3665 178.706 97.9023 177.241 97.9023 175.435V144.669Z" fill="#F9FAFB"/>
<path fill-rule="evenodd" clip-rule="evenodd" d="M212.204 141.944H101.173C99.6676 141.944 98.4474 143.164 98.4474 144.669V175.435C98.4474 176.94 99.6676 178.161 101.173 178.161H212.204C213.709 178.161 214.929 176.94 214.929 175.435V144.669C214.929 143.164 213.709 141.944 212.204 141.944ZM101.173 141.399C99.3665 141.399 97.9023 142.863 97.9023 144.669V175.435C97.9023 177.241 99.3665 178.706 101.173 178.706H212.204C214.01 178.706 215.474 177.241 215.474 175.435V144.669C215.474 142.863 214.01 141.399 212.204 141.399H101.173Z" fill="#ECECEC"/>
<defs>
<filter id="filter0_d_2149_15141" x="185.603" y="15.5784" width="124.599" height="156.181" filterUnits="userSpaceOnUse" color-interpolation-filters="sRGB">
<feFlood flood-opacity="0" result="BackgroundImageFix"/>
<feColorMatrix in="SourceAlpha" type="matrix" values="0 0 0 0 0 0 0 0 0 0 0 0 0 0 0 0 0 0 127 0" result="hardAlpha"/>
<feOffset/>
<feGaussianBlur stdDeviation="2.5"/>
<feComposite in2="hardAlpha" operator="out"/>
<feColorMatrix type="matrix" values="0 0 0 0 0 0 0 0 0 0 0 0 0 0 0 0 0 0 0.1 0"/>
<feBlend mode="normal" in2="BackgroundImageFix" result="effect1_dropShadow_2149_15141"/>
<feBlend mode="normal" in="SourceGraphic" in2="effect1_dropShadow_2149_15141" result="shape"/>
</filter>
<filter id="filter1_d_2149_15141" x="0.201172" y="15.5785" width="124.599" height="156.181" filterUnits="userSpaceOnUse" color-interpolation-filters="sRGB">
<feFlood flood-opacity="0" result="BackgroundImageFix"/>
<feColorMatrix in="SourceAlpha" type="matrix" values="0 0 0 0 0 0 0 0 0 0 0 0 0 0 0 0 0 0 127 0" result="hardAlpha"/>
<feOffset/>
<feGaussianBlur stdDeviation="2.5"/>
<feComposite in2="hardAlpha" operator="out"/>
<feColorMatrix type="matrix" values="0 0 0 0 0 0 0 0 0 0 0 0 0 0 0 0 0 0 0.1 0"/>
<feBlend mode="normal" in2="BackgroundImageFix" result="effect1_dropShadow_2149_15141"/>
<feBlend mode="normal" in="SourceGraphic" in2="effect1_dropShadow_2149_15141" result="shape"/>
</filter>
<filter id="filter2_d_2149_15141" x="79.3369" y="0.739075" width="153.573" height="193.141" filterUnits="userSpaceOnUse" color-interpolation-filters="sRGB">
<feFlood flood-opacity="0" result="BackgroundImageFix"/>
<feColorMatrix in="SourceAlpha" type="matrix" values="0 0 0 0 0 0 0 0 0 0 0 0 0 0 0 0 0 0 127 0" result="hardAlpha"/>
<feOffset/>
<feGaussianBlur stdDeviation="2.5"/>
<feComposite in2="hardAlpha" operator="out"/>
<feColorMatrix type="matrix" values="0 0 0 0 0 0 0 0 0 0 0 0 0 0 0 0 0 0 0.1 0"/>
<feBlend mode="normal" in2="BackgroundImageFix" result="effect1_dropShadow_2149_15141"/>
<feBlend mode="normal" in="SourceGraphic" in2="effect1_dropShadow_2149_15141" result="shape"/>
</filter>
</defs>
</svg>
