<svg width="200" height="179" viewBox="0 0 200 179" fill="none" xmlns="http://www.w3.org/2000/svg">
<g clip-path="url(#clip0_2149_14986)">
<path d="M103.717 178.209C102.794 178.209 101.856 178.181 100.937 178.142C100.609 178.126 100.357 177.85 100.373 177.523C100.388 177.195 100.661 176.943 100.988 176.959C101.895 176.998 102.814 177.022 103.721 177.026C104.048 177.026 104.313 177.294 104.309 177.621C104.309 177.949 104.045 178.209 103.717 178.209ZM106.478 178.166C106.162 178.166 105.898 177.913 105.886 177.594C105.875 177.266 106.131 176.994 106.454 176.982C107.361 176.951 108.28 176.9 109.184 176.829C109.503 176.797 109.795 177.046 109.819 177.373C109.842 177.7 109.602 177.984 109.274 178.008C108.355 178.079 107.421 178.13 106.494 178.166C106.486 178.166 106.478 178.166 106.47 178.166H106.478ZM98.2074 177.965C98.2074 177.965 98.1719 177.965 98.1562 177.965C97.2333 177.886 96.3025 177.787 95.3875 177.673C95.0641 177.633 94.8353 177.337 94.8748 177.01C94.9142 176.687 95.2139 176.458 95.5374 176.497C96.4326 176.612 97.3476 176.706 98.2587 176.785C98.5861 176.813 98.8266 177.101 98.799 177.424C98.7714 177.732 98.5151 177.965 98.2114 177.965H98.2074ZM111.98 177.744C111.684 177.744 111.428 177.523 111.392 177.223C111.353 176.9 111.585 176.604 111.909 176.564C112.804 176.458 113.715 176.332 114.618 176.19C114.938 176.138 115.245 176.359 115.297 176.683C115.348 177.006 115.127 177.31 114.804 177.361C113.885 177.507 112.958 177.637 112.047 177.744C112.023 177.744 112 177.748 111.976 177.748L111.98 177.744ZM92.7332 177.274C92.7016 177.274 92.6661 177.274 92.6346 177.266C91.7235 177.113 90.8046 176.939 89.9014 176.75C89.5819 176.683 89.3769 176.367 89.4439 176.048C89.5109 175.728 89.8265 175.523 90.1459 175.59C91.0333 175.776 91.9365 175.949 92.8318 176.099C93.1552 176.154 93.3721 176.458 93.3169 176.781C93.2696 177.069 93.0172 177.274 92.7332 177.274ZM117.43 176.872C117.154 176.872 116.91 176.679 116.851 176.399C116.788 176.079 116.993 175.768 117.312 175.701C118.199 175.523 119.099 175.322 119.982 175.105C120.302 175.026 120.621 175.22 120.696 175.539C120.775 175.854 120.578 176.178 120.262 176.253C119.363 176.474 118.448 176.679 117.545 176.86C117.505 176.868 117.466 176.872 117.426 176.872H117.43ZM87.3339 176.135C87.2865 176.135 87.2353 176.131 87.1879 176.115C86.2966 175.886 85.3934 175.638 84.506 175.373C84.1945 175.279 84.013 174.951 84.1077 174.636C84.2023 174.324 84.5297 174.143 84.8452 174.237C85.7168 174.498 86.6042 174.742 87.4798 174.967C87.7953 175.046 87.9886 175.369 87.9058 175.685C87.8387 175.953 87.5981 176.131 87.3339 176.131V176.135ZM122.79 175.559C122.534 175.559 122.297 175.389 122.222 175.133C122.132 174.817 122.313 174.49 122.625 174.399C123.5 174.147 124.376 173.871 125.236 173.583C125.547 173.48 125.882 173.646 125.985 173.957C126.087 174.269 125.922 174.604 125.61 174.707C124.735 174.999 123.843 175.279 122.952 175.535C122.897 175.551 122.842 175.559 122.786 175.559H122.79ZM82.045 174.557C81.9819 174.557 81.9148 174.545 81.8517 174.525C80.9762 174.222 80.0967 173.898 79.2369 173.567C78.9332 173.449 78.7833 173.106 78.9016 172.802C79.02 172.498 79.3631 172.348 79.6668 172.467C80.5068 172.794 81.3706 173.113 82.2343 173.409C82.5419 173.516 82.7076 173.851 82.6011 174.163C82.5183 174.407 82.2856 174.561 82.041 174.561L82.045 174.557ZM128.028 173.804C127.791 173.804 127.566 173.658 127.476 173.425C127.361 173.121 127.511 172.778 127.819 172.66C128.671 172.336 129.523 171.989 130.359 171.63C130.659 171.5 131.006 171.642 131.136 171.942C131.266 172.242 131.128 172.589 130.824 172.719C129.972 173.086 129.105 173.437 128.237 173.768C128.166 173.796 128.095 173.808 128.024 173.808L128.028 173.804ZM76.9099 172.549C76.831 172.549 76.7482 172.534 76.6733 172.498C75.8253 172.127 74.9774 171.733 74.1531 171.331C73.8612 171.189 73.739 170.834 73.8809 170.538C74.0229 170.242 74.3779 170.124 74.6737 170.266C75.4861 170.664 76.3183 171.051 77.1505 171.414C77.4502 171.544 77.5843 171.895 77.4542 172.194C77.3556 172.415 77.1387 172.549 76.9139 172.549H76.9099ZM133.108 171.623C132.887 171.623 132.674 171.5 132.575 171.287C132.433 170.992 132.56 170.641 132.851 170.499C133.672 170.104 134.492 169.69 135.297 169.264C135.585 169.11 135.943 169.221 136.097 169.509C136.251 169.797 136.141 170.155 135.853 170.309C135.036 170.743 134.196 171.165 133.364 171.567C133.281 171.607 133.195 171.627 133.108 171.627V171.623ZM71.9642 170.132C71.8695 170.132 71.7709 170.108 71.6841 170.061C70.8717 169.623 70.0592 169.162 69.2665 168.688C68.9865 168.523 68.8918 168.16 69.0614 167.876C69.227 167.596 69.5899 167.505 69.8739 167.671C70.6508 168.136 71.4515 168.59 72.2481 169.02C72.536 169.173 72.6425 169.532 72.4887 169.82C72.3822 170.017 72.1771 170.132 71.9681 170.132H71.9642ZM137.99 169.031C137.789 169.031 137.588 168.925 137.478 168.74C137.312 168.46 137.407 168.097 137.691 167.931C138.475 167.474 139.26 166.992 140.025 166.499C140.302 166.322 140.664 166.401 140.842 166.677C141.019 166.953 140.937 167.316 140.664 167.493C139.883 167.994 139.083 168.483 138.286 168.949C138.192 169.004 138.089 169.031 137.986 169.031H137.99ZM67.2274 167.316C67.117 167.316 67.0066 167.284 66.904 167.221C66.131 166.716 65.358 166.192 64.6047 165.655C64.3404 165.466 64.2773 165.095 64.4667 164.831C64.656 164.567 65.0267 164.504 65.2909 164.693C66.0285 165.218 66.7897 165.738 67.5508 166.231C67.823 166.409 67.9019 166.775 67.7244 167.052C67.61 167.225 67.4207 167.32 67.2274 167.32V167.316ZM142.64 166.05C142.455 166.05 142.27 165.963 142.155 165.797C141.966 165.529 142.033 165.162 142.301 164.973C143.043 164.452 143.784 163.908 144.51 163.356C144.77 163.159 145.141 163.206 145.338 163.466C145.535 163.727 145.488 164.097 145.228 164.295C144.49 164.859 143.733 165.411 142.98 165.939C142.877 166.01 142.759 166.046 142.64 166.046V166.05ZM62.7352 164.117C62.609 164.117 62.4828 164.078 62.3724 163.995C61.6428 163.431 60.9131 162.839 60.2072 162.248C59.9587 162.039 59.9271 161.664 60.1362 161.416C60.3452 161.167 60.7199 161.136 60.9683 161.345C61.6625 161.928 62.3763 162.508 63.0941 163.064C63.3505 163.265 63.3978 163.636 63.2006 163.892C63.0823 164.042 62.9088 164.121 62.7313 164.121L62.7352 164.117ZM147.026 162.697C146.856 162.697 146.687 162.626 146.569 162.484C146.36 162.232 146.395 161.861 146.647 161.652C147.346 161.072 148.04 160.469 148.718 159.862C148.959 159.645 149.333 159.66 149.554 159.905C149.771 160.15 149.755 160.52 149.511 160.741C148.825 161.36 148.115 161.976 147.405 162.563C147.294 162.654 147.16 162.701 147.026 162.701V162.697ZM58.5152 160.564C58.3732 160.564 58.2312 160.512 58.1168 160.41C57.4385 159.787 56.7601 159.144 56.1015 158.489C55.8688 158.26 55.8688 157.886 56.1015 157.653C56.3302 157.42 56.7049 157.42 56.9376 157.653C57.5844 158.292 58.2509 158.927 58.9175 159.538C59.1581 159.759 59.1738 160.134 58.953 160.374C58.8346 160.501 58.6769 160.568 58.5152 160.568V160.564ZM151.124 159.002C150.97 159.002 150.816 158.943 150.702 158.824C150.473 158.592 150.477 158.217 150.71 157.988C151.36 157.353 152.003 156.695 152.626 156.036C152.851 155.799 153.226 155.787 153.463 156.012C153.699 156.237 153.711 156.612 153.486 156.848C152.851 157.523 152.197 158.189 151.534 158.836C151.42 158.951 151.27 159.006 151.12 159.006L151.124 159.002ZM54.5949 156.679C54.4371 156.679 54.2793 156.616 54.161 156.49C53.5339 155.815 52.9108 155.117 52.3074 154.411C52.0944 154.163 52.1259 153.788 52.3705 153.575C52.6189 153.362 52.9936 153.39 53.2026 153.638C53.7942 154.332 54.4095 155.018 55.0248 155.681C55.2456 155.922 55.2338 156.296 54.9932 156.517C54.8788 156.624 54.7329 156.675 54.5909 156.675L54.5949 156.679ZM154.906 154.987C154.768 154.987 154.63 154.94 154.52 154.841C154.271 154.628 154.247 154.253 154.46 154.005C155.06 153.315 155.648 152.609 156.212 151.903C156.417 151.646 156.787 151.607 157.044 151.808C157.3 152.013 157.34 152.384 157.138 152.64C156.567 153.358 155.967 154.076 155.356 154.778C155.237 154.912 155.076 154.983 154.91 154.983L154.906 154.987ZM51.0058 152.482C50.8323 152.482 50.6588 152.404 50.5405 152.258C49.9686 151.532 49.4046 150.787 48.8603 150.033C48.6671 149.769 48.7302 149.398 48.9944 149.209C49.2587 149.016 49.6294 149.075 49.8187 149.343C50.3511 150.081 50.9072 150.818 51.4673 151.528C51.6684 151.784 51.625 152.155 51.3687 152.36C51.2583 152.447 51.132 152.486 51.0019 152.486L51.0058 152.482ZM158.349 150.68C158.227 150.68 158.105 150.645 157.998 150.566C157.734 150.372 157.679 150.002 157.872 149.737C158.412 149.004 158.941 148.251 159.446 147.501C159.627 147.229 159.998 147.158 160.266 147.339C160.538 147.521 160.609 147.888 160.428 148.16C159.915 148.925 159.375 149.69 158.826 150.436C158.712 150.593 158.531 150.676 158.349 150.676V150.68ZM47.7678 148.01C47.5746 148.01 47.3892 147.915 47.2748 147.746C46.7621 146.973 46.2612 146.184 45.784 145.391C45.6144 145.111 45.7051 144.748 45.9852 144.579C46.2652 144.409 46.628 144.5 46.7976 144.78C47.2669 145.557 47.7599 146.334 48.2648 147.095C48.4462 147.367 48.3713 147.734 48.0991 147.915C48.0005 147.982 47.8862 148.014 47.7718 148.014L47.7678 148.01ZM161.429 146.109C161.323 146.109 161.216 146.081 161.118 146.022C160.838 145.853 160.751 145.486 160.925 145.21C161.402 144.437 161.867 143.644 162.309 142.855C162.471 142.571 162.83 142.469 163.114 142.63C163.398 142.792 163.5 143.151 163.338 143.435C162.889 144.24 162.412 145.044 161.93 145.829C161.82 146.01 161.623 146.109 161.426 146.109H161.429ZM44.9045 143.285C44.6955 143.285 44.4943 143.175 44.3839 142.977C43.9343 142.161 43.5004 141.333 43.0903 140.508C42.9443 140.217 43.0627 139.862 43.3545 139.716C43.6464 139.57 44.0013 139.688 44.1473 139.98C44.5495 140.789 44.9794 141.605 45.4212 142.406C45.5789 142.693 45.4764 143.052 45.1885 143.21C45.0978 143.261 44.9992 143.285 44.9045 143.285ZM164.123 141.305C164.033 141.305 163.942 141.285 163.855 141.242C163.563 141.092 163.449 140.737 163.595 140.445C164.005 139.637 164.403 138.813 164.782 137.988C164.916 137.692 165.271 137.558 165.567 137.696C165.863 137.831 165.997 138.182 165.859 138.481C165.476 139.321 165.07 140.161 164.652 140.982C164.549 141.187 164.34 141.305 164.123 141.305ZM42.4395 138.335C42.2147 138.335 41.9978 138.205 41.8992 137.984C41.5206 137.14 41.1538 136.277 40.8106 135.413C40.6884 135.109 40.8383 134.766 41.1419 134.644C41.4456 134.522 41.7888 134.671 41.911 134.975C42.2502 135.823 42.6091 136.671 42.9798 137.499C43.1139 137.799 42.9798 138.146 42.6801 138.28C42.6012 138.316 42.5184 138.331 42.4395 138.331V138.335ZM166.415 136.296C166.34 136.296 166.265 136.281 166.19 136.253C165.886 136.131 165.744 135.784 165.866 135.48C166.21 134.644 166.541 133.784 166.848 132.928C166.959 132.621 167.298 132.463 167.606 132.573C167.913 132.684 168.071 133.023 167.961 133.33C167.645 134.202 167.31 135.078 166.959 135.93C166.864 136.158 166.643 136.296 166.411 136.296H166.415ZM40.3886 133.196C40.1441 133.196 39.9154 133.043 39.8325 132.802C39.5249 131.926 39.2291 131.035 38.9609 130.148C38.8663 129.836 39.0398 129.505 39.3553 129.41C39.6669 129.312 39.9982 129.489 40.0928 129.805C40.3571 130.672 40.6489 131.552 40.9487 132.412C41.0552 132.719 40.8935 133.058 40.5858 133.165C40.5227 133.188 40.4557 133.196 40.3886 133.196ZM168.292 131.106C168.233 131.106 168.174 131.098 168.115 131.078C167.803 130.98 167.629 130.649 167.728 130.337C168 129.469 168.26 128.586 168.497 127.71C168.584 127.395 168.907 127.209 169.223 127.292C169.538 127.379 169.724 127.702 169.641 128.018C169.4 128.909 169.136 129.808 168.86 130.692C168.781 130.944 168.548 131.106 168.296 131.106H168.292ZM38.7795 127.904C38.5152 127.904 38.2786 127.726 38.2076 127.462C37.9749 126.567 37.7541 125.655 37.5608 124.752C37.4898 124.433 37.6949 124.117 38.0144 124.046C38.3338 123.975 38.6493 124.18 38.7203 124.5C38.9136 125.383 39.1266 126.279 39.3593 127.162C39.4421 127.478 39.2528 127.801 38.9373 127.884C38.886 127.896 38.8387 127.904 38.7874 127.904H38.7795ZM169.739 125.77C169.696 125.77 169.653 125.766 169.609 125.754C169.29 125.683 169.093 125.364 169.164 125.048C169.365 124.165 169.55 123.265 169.712 122.37C169.771 122.051 170.079 121.838 170.402 121.897C170.721 121.956 170.934 122.264 170.875 122.587C170.71 123.498 170.52 124.417 170.315 125.316C170.252 125.592 170.008 125.778 169.739 125.778V125.77ZM37.6042 122.512C37.3242 122.512 37.0717 122.311 37.0205 122.023C36.8627 121.116 36.7168 120.189 36.5945 119.27C36.5511 118.947 36.7799 118.647 37.1033 118.604C37.4267 118.56 37.7265 118.789 37.7698 119.112C37.8882 120.016 38.0301 120.923 38.1879 121.818C38.2431 122.141 38.0301 122.445 37.7067 122.504C37.6712 122.512 37.6397 122.512 37.6042 122.512ZM170.741 120.343C170.714 120.343 170.686 120.343 170.658 120.339C170.335 120.292 170.11 119.992 170.158 119.668C170.284 118.769 170.394 117.858 170.485 116.955C170.516 116.632 170.804 116.387 171.132 116.427C171.455 116.458 171.696 116.75 171.66 117.073C171.569 117.992 171.455 118.923 171.325 119.838C171.282 120.134 171.029 120.347 170.741 120.347V120.343ZM36.8745 117.042C36.5709 117.042 36.3145 116.813 36.2869 116.505C36.2041 115.586 36.137 114.652 36.0897 113.729C36.0739 113.402 36.3224 113.125 36.6497 113.11C36.9731 113.094 37.2532 113.342 37.2689 113.67C37.3163 114.577 37.3794 115.492 37.4622 116.399C37.4938 116.722 37.2532 117.01 36.9258 117.042C36.9061 117.042 36.8903 117.042 36.8706 117.042H36.8745ZM171.289 114.853C171.289 114.853 171.266 114.853 171.254 114.853C170.927 114.833 170.678 114.553 170.698 114.226C170.753 113.323 170.789 112.404 170.804 111.493C170.812 111.169 171.073 110.913 171.396 110.913H171.408C171.735 110.921 171.995 111.189 171.988 111.516C171.972 112.443 171.932 113.382 171.877 114.297C171.857 114.612 171.597 114.853 171.285 114.853H171.289ZM36.5945 111.532C36.2711 111.532 36.0069 111.272 36.0029 110.948C36.0029 110.704 36.0029 110.455 36.0029 110.211C36.0029 109.529 36.0148 108.838 36.0345 108.164C36.0424 107.837 36.3224 107.584 36.6419 107.588C36.9692 107.596 37.2256 107.872 37.2137 108.195C37.194 108.862 37.1822 109.536 37.1822 110.207C37.1822 110.447 37.1822 110.688 37.1822 110.933C37.1822 111.26 36.9219 111.528 36.5985 111.532H36.5906H36.5945ZM171.408 110.802C171.08 110.802 170.816 110.538 170.816 110.211C170.816 109.3 170.796 108.377 170.761 107.478C170.749 107.15 171.002 106.874 171.329 106.862C171.656 106.847 171.932 107.103 171.944 107.43C171.98 108.349 171.999 109.284 171.999 110.215C171.999 110.542 171.735 110.806 171.408 110.806V110.802ZM36.7602 106.014C36.7602 106.014 36.7326 106.014 36.7168 106.014C36.3894 105.991 36.1449 105.711 36.1686 105.383C36.2317 104.464 36.3184 103.53 36.421 102.611C36.4565 102.287 36.7483 102.051 37.0757 102.09C37.3991 102.126 37.6357 102.418 37.5963 102.745C37.4977 103.648 37.4149 104.563 37.3478 105.47C37.3242 105.782 37.0678 106.022 36.7562 106.022L36.7602 106.014ZM171.187 105.289C170.883 105.289 170.623 105.056 170.599 104.744C170.528 103.845 170.434 102.93 170.323 102.023C170.284 101.7 170.516 101.404 170.84 101.364C171.163 101.321 171.459 101.554 171.498 101.881C171.613 102.804 171.704 103.735 171.778 104.65C171.806 104.977 171.562 105.261 171.238 105.289C171.222 105.289 171.207 105.289 171.191 105.289H171.187ZM37.3675 100.528C37.336 100.528 37.3084 100.528 37.2768 100.52C36.9534 100.469 36.7326 100.169 36.7799 99.846C36.9219 98.931 37.0796 98.0081 37.2571 97.105C37.3202 96.7855 37.6318 96.5725 37.9513 96.6356C38.2707 96.6987 38.4798 97.0103 38.4166 97.3298C38.2431 98.2172 38.0854 99.1243 37.9473 100.024C37.9039 100.315 37.6515 100.524 37.3636 100.524L37.3675 100.528ZM170.516 99.8066C170.232 99.8066 169.98 99.6015 169.933 99.3096C169.787 98.4144 169.617 97.5073 169.436 96.6199C169.369 96.3004 169.574 95.9888 169.897 95.9218C170.213 95.8547 170.528 96.0598 170.595 96.3832C170.781 97.2864 170.954 98.2093 171.104 99.1203C171.155 99.4437 170.938 99.7474 170.615 99.7987C170.583 99.8027 170.552 99.8066 170.516 99.8066ZM38.4245 95.1133C38.3772 95.1133 38.3338 95.1093 38.2865 95.0975C37.967 95.0225 37.7738 94.7031 37.8487 94.3836C38.0617 93.4844 38.2983 92.5773 38.5507 91.6899C38.6415 91.3744 38.9649 91.1929 39.2804 91.2797C39.5959 91.3704 39.7773 91.6938 39.6906 92.0093C39.446 92.881 39.2133 93.7723 39.0004 94.6557C38.9373 94.9279 38.6927 95.1093 38.4245 95.1093V95.1133ZM169.4 94.4033C169.136 94.4033 168.895 94.2219 168.828 93.9537C168.608 93.0742 168.367 92.1868 168.111 91.3152C168.02 91.0036 168.197 90.6723 168.513 90.5816C168.824 90.4909 169.156 90.6684 169.246 90.9839C169.507 91.8713 169.751 92.7745 169.976 93.6698C170.055 93.9853 169.862 94.3087 169.546 94.3876C169.499 94.3994 169.448 94.4073 169.4 94.4073V94.4033ZM39.9272 89.8047C39.868 89.8047 39.8049 89.7968 39.7418 89.7731C39.4303 89.6706 39.2607 89.3393 39.3632 89.0277C39.6511 88.1482 39.9587 87.2647 40.2861 86.401C40.4005 86.0934 40.7397 85.9396 41.0473 86.0539C41.3549 86.1683 41.5087 86.5075 41.3944 86.8151C41.0749 87.667 40.7712 88.5347 40.4912 89.3984C40.4084 89.6469 40.1796 89.8047 39.9311 89.8047H39.9272ZM167.846 89.1105C167.602 89.1105 167.369 88.9567 167.286 88.7082C166.994 87.8445 166.679 86.9808 166.352 86.1289C166.233 85.8252 166.387 85.482 166.691 85.3637C166.994 85.2454 167.338 85.3992 167.456 85.7029C167.791 86.5666 168.111 87.4501 168.406 88.3257C168.513 88.6333 168.347 88.9725 168.036 89.075C167.973 89.0947 167.909 89.1066 167.846 89.1066V89.1105ZM41.8558 84.642C41.7809 84.642 41.702 84.6262 41.627 84.5947C41.3273 84.4684 41.1853 84.1214 41.3115 83.8177C41.6704 82.9658 42.053 82.1139 42.4435 81.2817C42.5815 80.9859 42.9365 80.8597 43.2323 80.9977C43.528 81.1358 43.6543 81.4907 43.5162 81.7865C43.1297 82.6029 42.759 83.443 42.404 84.2791C42.3094 84.5039 42.0885 84.642 41.8597 84.642H41.8558ZM165.851 83.9518C165.622 83.9518 165.405 83.8177 165.306 83.5968C164.948 82.7686 164.561 81.9285 164.163 81.1042C164.021 80.8084 164.143 80.4574 164.439 80.3154C164.731 80.1734 165.086 80.2957 165.228 80.5915C165.634 81.4316 166.024 82.2835 166.391 83.1275C166.521 83.4272 166.383 83.7743 166.083 83.9045C166.008 83.936 165.926 83.9518 165.847 83.9518H165.851ZM44.1985 79.6607C44.1078 79.6607 44.0132 79.6371 43.9264 79.5937C43.6385 79.4438 43.5241 79.0849 43.674 78.797C44.0999 77.9806 44.5495 77.1602 45.011 76.3596C45.1727 76.0756 45.5355 75.9771 45.8195 76.1427C46.1035 76.3044 46.2021 76.6672 46.0364 76.9512C45.5868 77.7361 45.1411 78.5406 44.7231 79.3452C44.6166 79.5464 44.4115 79.6647 44.1985 79.6647V79.6607ZM163.437 78.9784C163.228 78.9784 163.023 78.864 162.916 78.6668C162.486 77.8623 162.033 77.0616 161.571 76.2807C161.406 76.0007 161.497 75.6379 161.78 75.4722C162.061 75.3066 162.423 75.3973 162.589 75.6813C163.058 76.474 163.52 77.2943 163.958 78.1107C164.111 78.3987 164.005 78.7576 163.717 78.9114C163.626 78.9587 163.532 78.9824 163.437 78.9824V78.9784ZM46.9475 74.8846C46.841 74.8846 46.7306 74.857 46.632 74.7939C46.3559 74.6203 46.2731 74.2535 46.4466 73.9775C46.9396 73.2005 47.4523 72.4196 47.9769 71.6544C48.1622 71.3863 48.529 71.3192 48.8012 71.5046C49.0693 71.6899 49.1364 72.0567 48.951 72.3289C48.4344 73.0782 47.9295 73.8434 47.4444 74.6085C47.33 74.786 47.1407 74.8846 46.9435 74.8846H46.9475ZM160.629 74.218C160.436 74.218 160.246 74.1234 160.132 73.9459C159.639 73.1808 159.122 72.4196 158.598 71.6781C158.408 71.4099 158.471 71.0431 158.74 70.8538C159.004 70.6645 159.375 70.7276 159.564 70.9958C160.096 71.7491 160.621 72.5261 161.126 73.303C161.303 73.5791 161.224 73.942 160.948 74.1194C160.85 74.1825 160.739 74.2141 160.629 74.2141V74.218ZM50.0751 70.345C49.9528 70.345 49.8266 70.3056 49.7201 70.2267C49.4598 70.0295 49.4046 69.6588 49.6018 69.3985C50.1579 68.661 50.7337 67.9234 51.3174 67.2096C51.5264 66.9572 51.8972 66.9177 52.1496 67.1267C52.402 67.3318 52.4415 67.7065 52.2324 67.9589C51.6566 68.661 51.0926 69.3867 50.5444 70.1123C50.43 70.2662 50.2525 70.349 50.0711 70.349L50.0751 70.345ZM157.438 69.7061C157.261 69.7061 157.087 69.6272 156.969 69.4774C156.417 68.7596 155.837 68.0418 155.253 67.3437C155.044 67.0913 155.076 66.7205 155.328 66.5115C155.577 66.3025 155.951 66.334 156.16 66.5864C156.756 67.2963 157.34 68.026 157.904 68.7596C158.105 69.0199 158.053 69.3906 157.797 69.5878C157.691 69.6706 157.564 69.7101 157.438 69.7101V69.7061ZM53.5655 66.0737C53.4274 66.0737 53.2855 66.0264 53.1711 65.9238C52.9266 65.7069 52.9029 65.3322 53.1198 65.0877C53.7351 64.3975 54.3701 63.7073 55.009 63.0447C55.2377 62.8081 55.6085 62.8041 55.8451 63.029C56.0817 63.2538 56.0857 63.6284 55.8609 63.8651C55.2338 64.5198 54.6067 65.1942 54.0033 65.8726C53.8849 66.0027 53.7232 66.0698 53.5615 66.0698L53.5655 66.0737ZM153.893 65.4742C153.731 65.4742 153.573 65.4072 153.455 65.281C152.847 64.6105 152.212 63.944 151.573 63.2932C151.345 63.0605 151.349 62.6858 151.581 62.4571C151.814 62.2283 152.189 62.2323 152.417 62.465C153.068 63.1236 153.711 63.8059 154.33 64.4882C154.551 64.7288 154.531 65.1035 154.291 65.3244C154.176 65.4269 154.035 65.4782 153.893 65.4782V65.4742ZM57.3912 62.0982C57.2373 62.0982 57.0796 62.039 56.9652 61.9167C56.7404 61.6801 56.7483 61.3054 56.9849 61.0806C57.6515 60.4417 58.3417 59.8067 59.0358 59.1954C59.2803 58.9785 59.655 59.0021 59.8719 59.2467C60.0888 59.4912 60.0652 59.8659 59.8206 60.0828C59.1383 60.6823 58.46 61.3054 57.8053 61.9325C57.6909 62.043 57.545 62.0982 57.3951 62.0982H57.3912ZM150.016 61.5421C149.87 61.5421 149.724 61.4908 149.613 61.3843C148.951 60.7651 148.268 60.1498 147.578 59.5582C147.33 59.3453 147.302 58.9706 147.515 58.7221C147.728 58.4736 148.103 58.446 148.351 58.659C149.053 59.2624 149.751 59.8895 150.422 60.5166C150.662 60.7414 150.674 61.1161 150.449 61.3528C150.335 61.479 150.173 61.5421 150.016 61.5421ZM61.5284 58.446C61.3549 58.446 61.1853 58.3711 61.0669 58.2291C60.8619 57.9767 60.9013 57.602 61.1537 57.3969C61.8715 56.8132 62.609 56.2374 63.3505 55.6853C63.6108 55.492 63.9815 55.5433 64.1787 55.8036C64.3759 56.0639 64.3207 56.4346 64.0604 56.6318C63.3308 57.1761 62.6051 57.7401 61.8991 58.3119C61.7887 58.4027 61.6585 58.446 61.5284 58.446ZM145.835 57.9452C145.705 57.9452 145.575 57.9018 145.468 57.8189C144.758 57.2589 144.029 56.6989 143.291 56.1664C143.027 55.9732 142.968 55.6024 143.161 55.3382C143.354 55.0739 143.725 55.0148 143.989 55.208C144.739 55.7523 145.484 56.3202 146.206 56.8921C146.462 57.0933 146.505 57.4679 146.3 57.7243C146.182 57.8702 146.012 57.9491 145.835 57.9491V57.9452ZM65.9535 55.1449C65.7642 55.1449 65.5789 55.0542 65.4645 54.8886C65.2791 54.6204 65.3501 54.2496 65.6183 54.0682C66.3795 53.5476 67.1643 53.0349 67.9492 52.5419C68.2253 52.3684 68.5921 52.4512 68.7656 52.7312C68.9391 53.0073 68.8563 53.3741 68.5763 53.5476C67.8033 54.0327 67.0342 54.5376 66.2848 55.0503C66.1823 55.1213 66.0679 55.1528 65.9496 55.1528L65.9535 55.1449ZM141.374 54.6993C141.26 54.6993 141.146 54.6677 141.047 54.6007C140.294 54.0998 139.521 53.6028 138.744 53.1296C138.464 52.96 138.377 52.5971 138.546 52.3171C138.716 52.0371 139.083 51.9503 139.359 52.1199C140.148 52.6011 140.937 53.1059 141.702 53.6147C141.974 53.7961 142.045 54.1629 141.863 54.435C141.749 54.6046 141.564 54.6993 141.37 54.6993H141.374ZM70.635 52.2106C70.43 52.2106 70.2288 52.1041 70.1223 51.9109C69.9606 51.6269 70.0592 51.264 70.3432 51.1023C71.1478 50.6448 71.9721 50.1952 72.7924 49.7693C73.0843 49.6194 73.4392 49.7338 73.5891 50.0217C73.739 50.3135 73.6246 50.6685 73.3367 50.8184C72.5282 51.2364 71.7196 51.6782 70.9308 52.1278C70.8401 52.1791 70.7376 52.2067 70.639 52.2067L70.635 52.2106ZM136.669 51.828C136.571 51.828 136.472 51.8044 136.381 51.7531C135.589 51.3114 134.776 50.8854 133.968 50.4753C133.676 50.3293 133.557 49.9744 133.703 49.6825C133.849 49.3907 134.204 49.2723 134.496 49.4183C135.32 49.8324 136.145 50.2702 136.953 50.7158C137.237 50.8736 137.344 51.2364 137.182 51.5204C137.075 51.7137 136.87 51.8241 136.665 51.8241L136.669 51.828ZM75.5414 49.6707C75.3205 49.6707 75.1036 49.5445 75.005 49.3276C74.8669 49.0318 74.9931 48.6807 75.2929 48.5427C76.129 48.1522 76.9888 47.7736 77.8446 47.4147C78.1444 47.2885 78.4915 47.4305 78.6177 47.7342C78.7439 48.0339 78.6019 48.381 78.2982 48.5072C77.4581 48.8582 76.6141 49.229 75.7898 49.6155C75.707 49.6549 75.6242 49.6707 75.5414 49.6707ZM131.747 49.3552C131.664 49.3552 131.581 49.3394 131.503 49.3039C130.678 48.9332 129.834 48.5703 128.994 48.2311C128.69 48.1089 128.545 47.7657 128.667 47.462C128.789 47.1584 129.132 47.0124 129.436 47.1347C130.292 47.4818 131.152 47.8486 131.988 48.2272C132.283 48.3613 132.418 48.7123 132.283 49.0081C132.185 49.225 131.968 49.3552 131.743 49.3552H131.747ZM80.6449 47.5449C80.4043 47.5449 80.1795 47.395 80.0888 47.1584C79.9744 46.8507 80.1322 46.5115 80.4398 46.3972C81.3075 46.0777 82.1949 45.7701 83.0783 45.4861C83.3899 45.3836 83.7212 45.5571 83.8237 45.8687C83.9223 46.1803 83.7527 46.5115 83.4412 46.6141C82.5735 46.8941 81.7019 47.1978 80.85 47.5094C80.7829 47.533 80.7119 47.5449 80.6449 47.5449ZM126.636 47.2925C126.569 47.2925 126.502 47.2806 126.438 47.257C125.587 46.9533 124.711 46.6614 123.843 46.3893C123.532 46.2907 123.358 45.9594 123.453 45.6478C123.551 45.3362 123.883 45.1627 124.194 45.2574C125.078 45.5334 125.965 45.8292 126.837 46.1369C127.144 46.2473 127.306 46.5865 127.196 46.8941C127.109 47.1347 126.88 47.2885 126.64 47.2885L126.636 47.2925ZM85.9022 45.845C85.6419 45.845 85.4053 45.6715 85.3343 45.4112C85.2475 45.0957 85.4329 44.7723 85.7444 44.6815C86.6318 44.4331 87.539 44.2043 88.4421 43.9913C88.7616 43.9164 89.0771 44.1136 89.1521 44.4331C89.227 44.7525 89.0298 45.0681 88.7103 45.143C87.8229 45.352 86.9316 45.5768 86.06 45.8214C86.0087 45.8371 85.9535 45.845 85.9022 45.845ZM121.366 45.6518C121.315 45.6518 121.264 45.6439 121.213 45.632C120.341 45.3993 119.446 45.1824 118.554 44.9813C118.235 44.9103 118.034 44.5948 118.105 44.2753C118.176 43.9558 118.487 43.7547 118.811 43.8257C119.718 44.0268 120.625 44.2477 121.516 44.4843C121.832 44.5672 122.021 44.8906 121.934 45.21C121.863 45.4743 121.623 45.6478 121.363 45.6478L121.366 45.6518ZM91.2779 44.5869C90.9978 44.5869 90.7533 44.3897 90.6981 44.1057C90.635 43.7863 90.848 43.4747 91.1674 43.4155C92.0745 43.242 92.9974 43.0842 93.9124 42.9501C94.2358 42.9067 94.5356 43.1237 94.5829 43.4471C94.6302 43.7705 94.4094 44.0702 94.086 44.1176C93.1867 44.2516 92.2796 44.4055 91.3883 44.5751C91.3528 44.5829 91.3134 44.5869 91.2779 44.5869ZM115.983 44.4528C115.947 44.4528 115.912 44.4528 115.876 44.4449C114.981 44.2832 114.074 44.1412 113.175 44.015C112.851 43.9716 112.627 43.6719 112.67 43.3485C112.713 43.0251 113.013 42.7963 113.337 42.8436C114.252 42.9699 115.178 43.1158 116.086 43.2775C116.409 43.3366 116.622 43.6443 116.563 43.9637C116.511 44.2516 116.263 44.4528 115.983 44.4528ZM96.7363 43.7744C96.4366 43.7744 96.1802 43.5496 96.1487 43.2459C96.1132 42.9225 96.3498 42.6307 96.6732 42.5952C97.5922 42.4966 98.5229 42.4177 99.4458 42.3546C99.7692 42.3309 100.053 42.5794 100.077 42.9067C100.097 43.2341 99.8521 43.5141 99.5247 43.5378C98.6176 43.5969 97.7026 43.6758 96.7994 43.7744C96.7797 43.7744 96.756 43.7744 96.7363 43.7744ZM110.513 43.6995C110.513 43.6995 110.473 43.6995 110.453 43.6995C109.55 43.6127 108.631 43.5417 107.724 43.4944C107.397 43.4747 107.148 43.1986 107.164 42.8713C107.18 42.5439 107.452 42.2875 107.787 42.3112C108.71 42.3625 109.641 42.4335 110.564 42.5202C110.887 42.5518 111.128 42.8397 111.096 43.1671C111.069 43.4747 110.808 43.7034 110.509 43.7034L110.513 43.6995ZM102.242 43.4116C101.923 43.4116 101.658 43.1552 101.651 42.8358C101.643 42.5084 101.899 42.2363 102.226 42.2284C102.826 42.2126 103.417 42.2087 104.025 42.2047C104.352 42.2047 104.683 42.2047 105.011 42.2126C105.338 42.2166 105.598 42.4847 105.595 42.8121C105.591 43.1394 105.334 43.4116 104.995 43.3958C104.66 43.3919 104.325 43.3879 103.989 43.3879C103.41 43.3879 102.834 43.3958 102.258 43.4116C102.254 43.4116 102.246 43.4116 102.242 43.4116Z" fill="#D1D1D1"/>
<g clip-path="url(#clip1_2149_14986)">
<path d="M72.4794 107.462H76.5388C76.8664 107.462 77.1577 107.327 77.3605 107.102H77.3709C77.7766 106.934 78.06 106.53 78.06 106.07V87.6158C82.7825 76.4545 93.6734 69.2525 105.859 69.2525C118.045 69.2525 128.913 76.4441 133.648 87.5821L133.739 87.8073V106.406C133.739 107.022 134.246 107.529 134.865 107.529C135 107.529 135.125 107.506 135.237 107.462H139.307C139.216 109.796 137.265 111.67 134.899 111.67H125.397C124.9 112.454 124.349 113.196 123.774 113.913H134.901C138.566 113.913 141.541 110.963 141.574 107.327C145.137 106.688 147.854 103.57 147.854 99.8329V93.9197C147.854 89.7119 144.417 86.2908 140.188 86.2908H136.085C135.905 86.2908 135.736 86.3348 135.588 86.415C130.444 74.6145 118.799 67.0089 105.859 67.0089C92.9192 67.0089 81.3627 74.5472 76.1877 86.2934H72.4794C68.264 86.2934 64.8262 89.7145 64.8262 93.9223V99.8355C64.8262 104.043 68.264 107.464 72.4794 107.464V107.462Z" fill="#FD8106"/>
<path d="M117.267 114.014H107.022C105.466 114.014 104.203 112.759 104.203 111.209V110.065C104.203 106.51 107.1 103.627 110.662 103.627H117.267C118.823 103.627 120.086 104.884 120.086 106.432V111.212C120.086 111.37 120.076 111.525 120.053 111.672H125.397C127.708 108.083 129.05 103.831 129.05 99.2662C129.05 86.5445 118.646 76.2009 105.862 76.2009C93.0777 76.2009 82.6836 86.5445 82.6836 99.2662C82.6836 111.988 93.0777 122.342 105.862 122.342C113.065 122.342 119.514 119.055 123.774 113.916H118.014C117.777 113.983 117.53 114.017 117.27 114.017L117.267 114.014Z" fill="#FD8106"/>
<path fill-rule="evenodd" clip-rule="evenodd" d="M117.27 114.017C117.53 114.017 117.777 113.983 118.014 113.916H123.774C123.523 114.218 123.265 114.515 122.999 114.804C118.752 119.431 112.641 122.342 105.862 122.342C93.0777 122.342 82.6836 111.988 82.6836 99.2662C82.6836 86.5445 93.0777 76.2009 105.862 76.2009C118.646 76.2009 129.05 86.5445 129.05 99.2662C129.05 103.831 127.708 108.083 125.397 111.672H120.053C120.076 111.525 120.086 111.37 120.086 111.212V106.432C120.086 104.884 118.823 103.627 117.267 103.627H110.662C107.1 103.627 104.203 106.51 104.203 110.065V111.209C104.203 112.759 105.466 114.014 107.022 114.014H117.267L117.27 114.017ZM116.901 114.902H107.022C104.981 114.902 103.315 113.254 103.315 111.209V110.065C103.315 106.016 106.612 102.739 110.662 102.739H117.267C119.309 102.739 120.974 104.39 120.974 106.432V110.784H124.906C126.972 107.42 128.162 103.483 128.162 99.2662C128.162 87.0395 118.16 77.0889 105.862 77.0889C93.5641 77.0889 83.5716 87.039 83.5716 99.2662C83.5716 111.494 93.5646 121.454 105.862 121.454C112.083 121.454 117.72 118.905 121.773 114.804H118.128C117.849 114.872 117.563 114.905 117.27 114.905H116.904L116.901 114.902Z" fill="#FD8106"/>
<path d="M117.267 105.868H110.662C108.34 105.868 106.457 107.752 106.457 110.063V111.206C106.457 111.509 106.704 111.768 107.021 111.768H116.862C116.997 111.701 117.155 111.667 117.324 111.667H117.585C117.73 111.566 117.832 111.398 117.832 111.206V106.427C117.832 106.124 117.585 105.865 117.267 105.865V105.868Z" fill="#FD8106"/>
<path d="M108.959 140.094L117.132 148.564L128.057 129.391C126.4 129.088 124.697 128.931 122.963 128.92L108.962 140.094H108.959Z" fill="#FD8106"/>
<path d="M86.4805 129.36L97.4155 148.567L105.578 140.131L92.4122 128.912H91.8375C90.0223 128.912 88.241 129.057 86.4831 129.36H86.4805Z" fill="#FD8106"/>
<path d="M130.366 129.875L118.349 150.976C118.18 151.289 117.865 151.491 117.514 151.538C117.47 151.548 117.413 151.548 117.368 151.548C117.064 151.548 116.77 151.424 116.557 151.201L107.278 141.611L97.9895 151.201C97.7763 151.427 97.4824 151.548 97.1782 151.548C97.134 151.548 97.0872 151.548 97.0429 151.538C96.6945 151.494 96.3772 151.292 96.1978 150.976L84.1575 129.841C82.7819 130.168 81.44 130.605 80.1216 131.12L80.1034 131.164C68.3362 135.809 59.999 147.255 59.999 160.593V192.578H77.7083C77.6953 192.506 77.6849 192.431 77.6849 192.356V159.49C77.6849 158.776 78.2674 158.196 78.9852 158.196C79.7029 158.196 80.2854 158.776 80.2854 159.49V192.356C80.2854 192.444 80.275 192.526 80.2594 192.609H132.553V159.325C132.553 158.696 133.06 158.204 133.679 158.204C133.985 158.204 134.264 158.326 134.467 158.522C134.474 158.53 134.482 158.538 134.49 158.546L134.805 159.506V192.609H154.397V160.593C154.397 145.806 144.161 133.343 130.363 129.878L130.366 129.875Z" fill="#FD8106"/>
</g>
</g>
<g clip-path="url(#clip2_2149_14986)">
<path d="M2.8374 63.8089H29.9583C31.5267 63.8089 32.7967 65.095 32.7967 66.6801V82.0354C32.7967 83.6205 31.5242 84.9066 29.9583 84.9066H19.5526L20.0072 90.2114L13.9095 84.9066H2.8374C1.26908 84.9066 -0.000976562 83.6229 -0.000976562 82.0354V66.6801C-0.000976562 65.095 1.26908 63.8089 2.8374 63.8089Z" fill="#B4AEA8"/>
<path d="M9.93794 69.984H5.07422V74.8998H9.93794V69.984Z" fill="white"/>
<path d="M27.7209 70.1954H12.1436V70.8689H27.7209V70.1954Z" fill="white"/>
<path d="M27.7209 74.0902H12.1436V74.7637H27.7209V74.0902Z" fill="white"/>
<path d="M27.7211 78.2013H5.07422V78.8748H27.7211V78.2013Z" fill="white"/>
</g>
<path d="M184.551 58.3983C184.551 55.4049 186.975 52.981 189.968 52.981C192.961 52.981 195.385 55.4077 195.385 58.3983C195.385 61.3889 192.961 63.8155 189.968 63.8155C186.975 63.8155 184.551 61.3889 184.551 58.3983Z" fill="#B4AEA8"/>
<path d="M179.935 75.7892C179.935 70.2485 184.427 65.757 189.968 65.757C195.508 65.757 200 70.2485 200 75.7892V81.9415H179.933V75.7892H179.935Z" fill="#B4AEA8"/>
<path d="M157.693 51.0117H176.287C177.218 51.0117 177.976 51.7692 177.976 52.7006V60.8138C177.976 61.7481 177.218 62.5055 176.284 62.5055H157.693C156.758 62.5055 156.001 61.7481 156.001 60.8138V52.7006C156.001 51.7664 156.758 51.0089 157.693 51.0089V51.0117Z" fill="#5DB0BF"/>
<path d="M172.458 61.3777L174.371 66.3377L167.046 61.2655L172.458 61.3777Z" fill="#5DB0BF"/>
<path d="M172.403 56.76C172.403 56.2943 172.782 55.9184 173.245 55.9184C173.708 55.9184 174.087 56.2943 174.087 56.76C174.087 57.2257 173.711 57.6017 173.245 57.6017C172.779 57.6017 172.403 57.2257 172.403 56.76Z" fill="#F8F8F8"/>
<path d="M166.147 56.76C166.147 56.2943 166.523 55.9184 166.989 55.9184C167.455 55.9184 167.831 56.2943 167.831 56.76C167.831 57.2257 167.452 57.6017 166.989 57.6017C166.526 57.6017 166.147 57.2257 166.147 56.76Z" fill="#F8F8F8"/>
<path d="M159.889 56.76C159.889 56.2943 160.265 55.9184 160.73 55.9184C161.196 55.9184 161.572 56.2943 161.572 56.76C161.572 57.2257 161.196 57.6017 160.73 57.6017C160.265 57.6017 159.889 57.2257 159.889 56.76Z" fill="#F8F8F8"/>
<g clip-path="url(#clip3_2149_14986)">
<path d="M57.4697 30.3488V33.0207C57.4697 34.4053 60.3677 35.5276 63.9408 35.5276C67.5139 35.5276 70.4119 34.4053 70.4119 33.0207V30.3488H57.4697Z" fill="#B4AEA8"/>
<path d="M63.9423 35.6162C60.2643 35.6162 57.3838 34.4762 57.3838 33.0206V30.2601H70.5026V33.0206C70.5026 34.4762 67.6221 35.6162 63.9441 35.6162H63.9423ZM57.5587 30.4374V33.0206C57.5587 34.3539 60.4235 35.4389 63.9423 35.4389C67.4612 35.4389 70.326 34.3539 70.326 33.0206V30.4374H57.5569H57.5587Z" fill="#F8F8F8"/>
<path d="M63.9428 32.9888C67.5167 32.9888 70.4139 31.8664 70.4139 30.4819C70.4139 29.0973 67.5167 27.9749 63.9428 27.9749C60.3689 27.9749 57.4717 29.0973 57.4717 30.4819C57.4717 31.8664 60.3689 32.9888 63.9428 32.9888Z" fill="#B4AEA8"/>
<path d="M63.9423 33.0793C60.2643 33.0793 57.3838 31.9393 57.3838 30.4837C57.3838 29.0281 60.2643 27.8881 63.9423 27.8881C67.6204 27.8881 70.5009 29.0281 70.5009 30.4837C70.5009 31.9393 67.6204 33.0793 63.9423 33.0793ZM63.9423 28.0654C60.4217 28.0654 57.5587 29.1504 57.5587 30.4837C57.5587 31.8169 60.4235 32.902 63.9423 32.902C67.4612 32.902 70.326 31.8169 70.326 30.4837C70.326 29.1504 67.4612 28.0654 63.9423 28.0654Z" fill="#F8F8F8"/>
<path d="M69.4403 30.4021C69.4403 31.3737 67.0023 32.1626 63.9941 32.1626C60.9859 32.1626 58.5479 31.3737 58.5479 30.4021C58.5479 29.4305 60.9859 28.6415 63.9941 28.6415C67.0023 28.6415 69.4403 29.4305 69.4403 30.4021Z" fill="#B4AEA8"/>
<path d="M63.9936 32.2512C60.891 32.2512 58.46 31.4392 58.46 30.402C58.46 29.3648 60.891 28.5528 63.9936 28.5528C67.0963 28.5528 69.5273 29.3648 69.5273 30.402C69.5273 31.4392 67.0963 32.2512 63.9936 32.2512ZM63.9936 28.7301C61.0886 28.7301 58.6349 29.496 58.6349 30.402C58.6349 31.308 61.0886 32.0739 63.9936 32.0739C66.8986 32.0739 69.3524 31.308 69.3524 30.402C69.3524 29.496 66.8986 28.7301 63.9936 28.7301Z" fill="#F8F8F8"/>
<path d="M57.4697 27.0457V29.7176C57.4697 31.1023 60.3677 32.2245 63.9408 32.2245C67.5139 32.2245 70.4119 31.1023 70.4119 29.7176V27.0457H57.4697Z" fill="#B4AEA8"/>
<path d="M63.9423 32.3132C60.2643 32.3132 57.3838 31.1732 57.3838 29.7176V26.9571H70.5026V29.7176C70.5026 31.1732 67.6221 32.3132 63.9441 32.3132H63.9423ZM57.5587 27.1344V29.7176C57.5587 31.0508 60.4235 32.1359 63.9423 32.1359C67.4612 32.1359 70.326 31.0508 70.326 29.7176V27.1344H57.5569H57.5587Z" fill="#F8F8F8"/>
<path d="M70.4139 27.1788C70.4139 28.5634 67.5159 29.6857 63.9428 29.6857C60.3697 29.6857 57.4717 28.5634 57.4717 27.1788C57.4717 25.7941 60.3697 24.6718 63.9428 24.6718C67.5159 24.6718 70.4139 25.7941 70.4139 27.1788Z" fill="#B4AEA8"/>
<path d="M63.9423 29.7744C60.2643 29.7744 57.3838 28.6343 57.3838 27.1787C57.3838 25.7232 60.2643 24.5831 63.9423 24.5831C67.6204 24.5831 70.5009 25.7232 70.5009 27.1787C70.5009 28.6343 67.6204 29.7744 63.9423 29.7744ZM63.9423 24.7604C60.4217 24.7604 57.5587 25.8455 57.5587 27.1787C57.5587 28.512 60.4235 29.5971 63.9423 29.5971C67.4612 29.5971 70.326 28.512 70.326 27.1787C70.326 25.8455 67.4612 24.7604 63.9423 24.7604Z" fill="#F8F8F8"/>
<path d="M69.4403 27.0991C69.4403 28.0707 67.0023 28.8596 63.9941 28.8596C60.9859 28.8596 58.5479 28.0707 58.5479 27.0991C58.5479 26.1275 60.9859 25.3386 63.9941 25.3386C67.0023 25.3386 69.4403 26.1275 69.4403 27.0991Z" fill="#B4AEA8"/>
<path d="M63.9936 28.9482C60.891 28.9482 58.46 28.1362 58.46 27.099C58.46 26.0618 60.891 25.2498 63.9936 25.2498C67.0963 25.2498 69.5273 26.0618 69.5273 27.099C69.5273 28.1362 67.0963 28.9482 63.9936 28.9482ZM63.9936 25.4271C61.0886 25.4271 58.6349 26.193 58.6349 27.099C58.6349 28.005 61.0886 28.7709 63.9936 28.7709C66.8986 28.7709 69.3524 28.005 69.3524 27.099C69.3524 26.193 66.8986 25.4271 63.9936 25.4271Z" fill="#F8F8F8"/>
<path d="M57.4697 24.0532V26.725C57.4697 28.1097 60.3677 29.232 63.9408 29.232C67.5139 29.232 70.4119 28.1097 70.4119 26.725V24.0532H57.4697Z" fill="#B4AEA8"/>
<path d="M63.9423 29.3206C60.2643 29.3206 57.3838 28.1806 57.3838 26.725V23.9645H70.5026V26.725C70.5026 28.1806 67.6221 29.3206 63.9441 29.3206H63.9423ZM57.5587 24.1418V26.725C57.5587 28.0583 60.4235 29.1433 63.9423 29.1433C67.4612 29.1433 70.326 28.0583 70.326 26.725V24.1418H57.5569H57.5587Z" fill="#F8F8F8"/>
<path d="M63.9428 26.6932C67.5167 26.6932 70.4139 25.5708 70.4139 24.1862C70.4139 22.8017 67.5167 21.6793 63.9428 21.6793C60.3689 21.6793 57.4717 22.8017 57.4717 24.1862C57.4717 25.5708 60.3689 26.6932 63.9428 26.6932Z" fill="#B4AEA8"/>
<path d="M63.9423 26.7818C60.2643 26.7818 57.3838 25.6418 57.3838 24.1862C57.3838 22.7306 60.2643 21.5906 63.9423 21.5906C67.6204 21.5906 70.5009 22.7306 70.5009 24.1862C70.5009 25.6418 67.6204 26.7818 63.9423 26.7818ZM63.9423 21.7679C60.4217 21.7679 57.5587 22.853 57.5587 24.1862C57.5587 25.5195 60.4235 26.6045 63.9423 26.6045C67.4612 26.6045 70.326 25.5195 70.326 24.1862C70.326 22.853 67.4612 21.7679 63.9423 21.7679Z" fill="#F8F8F8"/>
<path d="M69.4403 24.1064C69.4403 25.078 67.0023 25.867 63.9941 25.867C60.9859 25.867 58.5479 25.078 58.5479 24.1064C58.5479 23.1349 60.9859 22.3459 63.9941 22.3459C67.0023 22.3459 69.4403 23.1349 69.4403 24.1064Z" fill="#B4AEA8"/>
<path d="M63.9936 25.9556C60.891 25.9556 58.46 25.1436 58.46 24.1064C58.46 23.0692 60.891 22.2572 63.9936 22.2572C67.0963 22.2572 69.5273 23.0692 69.5273 24.1064C69.5273 25.1436 67.0963 25.9556 63.9936 25.9556ZM63.9936 22.4345C61.0886 22.4345 58.6349 23.2004 58.6349 24.1064C58.6349 25.0124 61.0886 25.7783 63.9936 25.7783C66.8986 25.7783 69.3524 25.0124 69.3524 24.1064C69.3524 23.2004 66.8986 22.4345 63.9936 22.4345Z" fill="#F8F8F8"/>
<path d="M58.1668 21.0586V23.7305C58.1668 25.1152 61.0648 26.2374 64.6379 26.2374C68.211 26.2374 71.109 25.1152 71.109 23.7305V21.0586H58.165H58.1668Z" fill="#B4AEA8"/>
<path d="M64.6396 26.3261C60.9616 26.3261 58.0811 25.1861 58.0811 23.7305V20.97H71.1999V23.7305C71.1999 25.1861 68.3194 26.3261 64.6414 26.3261H64.6396ZM58.2559 21.1473V23.7305C58.2559 25.0637 61.1207 26.1488 64.6396 26.1488C68.1585 26.1488 71.0233 25.0637 71.0233 23.7305V21.1473H58.2542H58.2559Z" fill="#F8F8F8"/>
<path d="M71.1112 21.1917C71.1112 22.5763 68.2131 23.6986 64.64 23.6986C61.067 23.6986 58.1689 22.5763 58.1689 21.1917C58.1689 19.807 61.067 18.6847 64.64 18.6847C68.2131 18.6847 71.1112 19.807 71.1112 21.1917Z" fill="#B4AEA8"/>
<path d="M64.6396 23.7873C60.9616 23.7873 58.0811 22.6472 58.0811 21.1916C58.0811 19.7361 60.9616 18.596 64.6396 18.596C68.3176 18.596 71.1982 19.7361 71.1982 21.1916C71.1982 22.6472 68.3176 23.7873 64.6396 23.7873ZM64.6396 18.7733C61.119 18.7733 58.2559 19.8584 58.2559 21.1916C58.2559 22.5249 61.1207 23.61 64.6396 23.61C68.1585 23.61 71.0233 22.5249 71.0233 21.1916C71.0233 19.8584 68.1585 18.7733 64.6396 18.7733Z" fill="#F8F8F8"/>
<path d="M70.1385 21.1119C70.1385 22.0834 67.7005 22.8724 64.6923 22.8724C61.6841 22.8724 59.2461 22.0834 59.2461 21.1119C59.2461 20.1403 61.6841 19.3513 64.6923 19.3513C67.7005 19.3513 70.1385 20.1403 70.1385 21.1119Z" fill="#B4AEA8"/>
<path d="M64.6919 22.9611C61.5892 22.9611 59.1582 22.1491 59.1582 21.1119C59.1582 20.0747 61.5892 19.2627 64.6919 19.2627C67.7945 19.2627 70.2255 20.0747 70.2255 21.1119C70.2255 22.1491 67.7945 22.9611 64.6919 22.9611ZM64.6919 19.44C61.7869 19.44 59.3331 20.2059 59.3331 21.1119C59.3331 22.0179 61.7869 22.7838 64.6919 22.7838C67.5969 22.7838 70.0506 22.0179 70.0506 21.1119C70.0506 20.2059 67.5969 19.44 64.6919 19.44Z" fill="#F8F8F8"/>
<path d="M57.4697 18.0658V20.7376C57.4697 22.1223 60.3677 23.2446 63.9408 23.2446C67.5139 23.2446 70.4119 22.1223 70.4119 20.7376V18.0658H57.4697Z" fill="#B4AEA8"/>
<path d="M63.9423 23.3315C60.2643 23.3315 57.3838 22.1915 57.3838 20.7359V17.9754H70.5026V20.7359C70.5026 22.1915 67.6221 23.3315 63.9441 23.3315H63.9423ZM57.5587 18.1527V20.7359C57.5587 22.0691 60.4235 23.1542 63.9423 23.1542C67.4612 23.1542 70.326 22.0691 70.326 20.7359V18.1527H57.5569H57.5587Z" fill="#F8F8F8"/>
<path d="M63.9428 20.7058C67.5167 20.7058 70.4139 19.5834 70.4139 18.1988C70.4139 16.8143 67.5167 15.6919 63.9428 15.6919C60.3689 15.6919 57.4717 16.8143 57.4717 18.1988C57.4717 19.5834 60.3689 20.7058 63.9428 20.7058Z" fill="#B4AEA8"/>
<path d="M63.9423 20.7944C60.2643 20.7944 57.3838 19.6544 57.3838 18.1988C57.3838 16.7432 60.2643 15.6032 63.9423 15.6032C67.6204 15.6032 70.5009 16.7432 70.5009 18.1988C70.5009 19.6544 67.6204 20.7944 63.9423 20.7944ZM63.9423 15.7805C60.4217 15.7805 57.5587 16.8655 57.5587 18.1988C57.5587 19.5321 60.4235 20.6171 63.9423 20.6171C67.4612 20.6171 70.326 19.5321 70.326 18.1988C70.326 16.8655 67.4612 15.7805 63.9423 15.7805Z" fill="#F8F8F8"/>
<path d="M69.4403 18.1172C69.4403 19.0888 67.0023 19.8778 63.9941 19.8778C60.9859 19.8778 58.5479 19.0888 58.5479 18.1172C58.5479 17.1456 60.9859 16.3567 63.9941 16.3567C67.0023 16.3567 69.4403 17.1456 69.4403 18.1172Z" fill="#B4AEA8"/>
<path d="M63.9936 19.9664C60.891 19.9664 58.46 19.1544 58.46 18.1172C58.46 17.08 60.891 16.268 63.9936 16.268C67.0963 16.268 69.5273 17.08 69.5273 18.1172C69.5273 19.1544 67.0963 19.9664 63.9936 19.9664ZM63.9936 16.4453C61.0886 16.4453 58.6349 17.2112 58.6349 18.1172C58.6349 19.0232 61.0886 19.7891 63.9936 19.7891C66.8986 19.7891 69.3524 19.0232 69.3524 18.1172C69.3524 17.2112 66.8986 16.4453 63.9936 16.4453Z" fill="#F8F8F8"/>
<path d="M57.4697 15.0712V17.7431C57.4697 19.1277 60.3677 20.25 63.9408 20.25C67.5139 20.25 70.4119 19.1277 70.4119 17.7431V15.0712H57.4697Z" fill="#B4AEA8"/>
<path d="M63.9423 20.3386C60.2643 20.3386 57.3838 19.1986 57.3838 17.743V14.9825H70.5026V17.743C70.5026 19.1986 67.6221 20.3386 63.9441 20.3386H63.9423ZM57.5569 15.1598V17.743C57.5569 19.0763 60.4217 20.1613 63.9406 20.1613C67.4595 20.1613 70.3242 19.0763 70.3242 17.743V15.1598H57.5569Z" fill="#F8F8F8"/>
<path d="M70.4139 15.2042C70.4139 16.5889 67.5159 17.7112 63.9428 17.7112C60.3697 17.7112 57.4717 16.5889 57.4717 15.2042C57.4717 13.8196 60.3679 12.6973 63.9428 12.6973C67.5176 12.6973 70.4139 13.8196 70.4139 15.2042Z" fill="#B4AEA8"/>
<path d="M63.9423 17.7998C60.2643 17.7998 57.3838 16.6598 57.3838 15.2042C57.3838 13.7486 60.2643 12.6086 63.9423 12.6086C67.6204 12.6086 70.5009 13.7486 70.5009 15.2042C70.5009 16.6598 67.6204 17.7998 63.9423 17.7998ZM63.9423 12.7859C60.4217 12.7859 57.5587 13.871 57.5587 15.2042C57.5587 16.5375 60.4235 17.6225 63.9423 17.6225C67.4612 17.6225 70.326 16.5375 70.326 15.2042C70.326 13.871 67.463 12.7859 63.9423 12.7859Z" fill="#F8F8F8"/>
<path d="M69.4403 15.1246C69.4403 16.0962 67.0023 16.8851 63.9941 16.8851C60.9859 16.8851 58.5479 16.0962 58.5479 15.1246C58.5479 14.153 60.9859 13.364 63.9941 13.364C67.0023 13.364 69.4403 14.153 69.4403 15.1246Z" fill="#B4AEA8"/>
<path d="M63.9936 16.9737C60.891 16.9737 58.46 16.1617 58.46 15.1245C58.46 14.0873 60.891 13.2753 63.9936 13.2753C67.0963 13.2753 69.5273 14.0873 69.5273 15.1245C69.5273 16.1617 67.0963 16.9737 63.9936 16.9737ZM63.9936 13.4526C61.0886 13.4526 58.6349 14.2185 58.6349 15.1245C58.6349 16.0305 61.0886 16.7964 63.9936 16.7964C66.8986 16.7964 69.3524 16.0305 69.3524 15.1245C69.3524 14.2185 66.8986 13.4526 63.9936 13.4526Z" fill="#F8F8F8"/>
<path d="M46.4873 32.1431V34.8149C46.4873 36.1996 49.3853 37.3219 52.9584 37.3219C56.5315 37.3219 59.4313 36.1996 59.4313 34.8149V32.1431H46.4873Z" fill="#B4AEA8"/>
<path d="M52.958 37.4088C49.2799 37.4088 46.3994 36.2687 46.3994 34.8131V32.0527H59.5183V34.8131C59.5183 36.2687 56.6377 37.4088 52.958 37.4088ZM46.5743 32.2317V34.8149C46.5743 36.1482 49.4391 37.2332 52.958 37.2332C56.4768 37.2332 59.3434 36.1482 59.3434 34.8149V32.2317H46.5743Z" fill="#F8F8F8"/>
<path d="M59.4313 32.2761C59.4313 33.6608 56.5333 34.783 52.9584 34.783C49.3836 34.783 46.4873 33.6608 46.4873 32.2761C46.4873 30.8914 49.3853 29.7691 52.9584 29.7691C56.5315 29.7691 59.4313 30.8914 59.4313 32.2761Z" fill="#B4AEA8"/>
<path d="M52.958 34.8717C49.2799 34.8717 46.3994 33.7316 46.3994 32.2761C46.3994 30.8205 49.2799 29.6805 52.958 29.6805C56.636 29.6805 59.5183 30.8205 59.5183 32.2761C59.5183 33.7316 56.6377 34.8717 52.958 34.8717ZM52.958 29.8577C49.4373 29.8577 46.5743 30.9428 46.5743 32.2761C46.5743 33.6093 49.4391 34.6944 52.958 34.6944C56.4768 34.6944 59.3434 33.6093 59.3434 32.2761C59.3434 30.9428 56.4786 29.8577 52.958 29.8577Z" fill="#F8F8F8"/>
<path d="M58.4559 32.1945C58.4559 33.1661 56.0179 33.955 53.0097 33.955C50.0015 33.955 47.5635 33.1661 47.5635 32.1945C47.5635 31.2229 50.0015 30.434 53.0097 30.434C56.0179 30.434 58.4559 31.2229 58.4559 32.1945Z" fill="#B4AEA8"/>
<path d="M53.0102 34.0437C49.9076 34.0437 47.4766 33.2316 47.4766 32.1945C47.4766 31.1573 49.9076 30.3453 53.0102 30.3453C56.1129 30.3453 58.5439 31.1573 58.5439 32.1945C58.5439 33.2316 56.1129 34.0437 53.0102 34.0437ZM53.0102 30.5226C50.1052 30.5226 47.6515 31.2885 47.6515 32.1945C47.6515 33.1004 50.1052 33.8664 53.0102 33.8664C55.9152 33.8664 58.369 33.1004 58.369 32.1945C58.369 31.2885 55.9152 30.5226 53.0102 30.5226Z" fill="#F8F8F8"/>
<path d="M46.4873 28.8383V31.5102C46.4873 32.8949 49.3853 34.0171 52.9584 34.0171C56.5315 34.0171 59.4313 32.8949 59.4313 31.5102V28.8383H46.4873Z" fill="#B4AEA8"/>
<path d="M52.958 34.1057C49.2799 34.1057 46.3994 32.9657 46.3994 31.5101V28.7496H59.5183V31.5101C59.5183 32.9657 56.6377 34.1057 52.958 34.1057ZM46.5743 28.9269V31.5101C46.5743 32.8434 49.4391 33.9284 52.958 33.9284C56.4768 33.9284 59.3434 32.8434 59.3434 31.5101V28.9269H46.5743Z" fill="#F8F8F8"/>
<path d="M59.4313 28.9713C59.4313 30.356 56.5333 31.4783 52.9584 31.4783C49.3836 31.4783 46.4873 30.356 46.4873 28.9713C46.4873 27.5867 49.3853 26.4644 52.9584 26.4644C56.5315 26.4644 59.4313 27.5867 59.4313 28.9713Z" fill="#B4AEA8"/>
<path d="M52.958 31.5669C49.2799 31.5669 46.3994 30.4269 46.3994 28.9713C46.3994 27.5157 49.2799 26.3757 52.958 26.3757C56.636 26.3757 59.5183 27.5157 59.5183 28.9713C59.5183 30.4269 56.6377 31.5669 52.958 31.5669ZM52.958 26.553C49.4373 26.553 46.5743 27.638 46.5743 28.9713C46.5743 30.3046 49.4391 31.3896 52.958 31.3896C56.4768 31.3896 59.3434 30.3046 59.3434 28.9713C59.3434 27.638 56.4786 26.553 52.958 26.553Z" fill="#F8F8F8"/>
<path d="M58.4559 28.8916C58.4559 29.8631 56.0179 30.6521 53.0097 30.6521C50.0015 30.6521 47.5635 29.8631 47.5635 28.8916C47.5635 27.92 50.0015 27.131 53.0097 27.131C56.0179 27.131 58.4559 27.92 58.4559 28.8916Z" fill="#B4AEA8"/>
<path d="M53.0102 30.7407C49.9076 30.7407 47.4766 29.9287 47.4766 28.8916C47.4766 27.8544 49.9076 27.0424 53.0102 27.0424C56.1129 27.0424 58.5439 27.8544 58.5439 28.8916C58.5439 29.9287 56.1129 30.7407 53.0102 30.7407ZM53.0102 27.2197C50.1052 27.2197 47.6515 27.9856 47.6515 28.8916C47.6515 29.7975 50.1052 30.5634 53.0102 30.5634C55.9152 30.5634 58.369 29.7975 58.369 28.8916C58.369 27.9856 55.9152 27.2197 53.0102 27.2197Z" fill="#F8F8F8"/>
<path d="M46.4873 25.8455V28.5173C46.4873 29.902 49.3853 31.0243 52.9584 31.0243C56.5315 31.0243 59.4313 29.902 59.4313 28.5173V25.8455H46.4873Z" fill="#B4AEA8"/>
<path d="M52.958 31.1129C49.2799 31.1129 46.3994 29.9729 46.3994 28.5173V25.7568H59.5183V28.5173C59.5183 29.9729 56.6377 31.1129 52.958 31.1129ZM46.5743 25.9341V28.5173C46.5743 29.8506 49.4391 30.9356 52.958 30.9356C56.4768 30.9356 59.3434 29.8506 59.3434 28.5173V25.9341H46.5743Z" fill="#F8F8F8"/>
<path d="M59.4313 25.9785C59.4313 27.3632 56.5333 28.4855 52.9584 28.4855C49.3836 28.4855 46.4873 27.3632 46.4873 25.9785C46.4873 24.5938 49.3853 23.4716 52.9584 23.4716C56.5315 23.4716 59.4313 24.5938 59.4313 25.9785Z" fill="#B4AEA8"/>
<path d="M52.958 28.5741C49.2799 28.5741 46.3994 27.4341 46.3994 25.9785C46.3994 24.5229 49.2799 23.3829 52.958 23.3829C56.636 23.3829 59.5183 24.5229 59.5183 25.9785C59.5183 27.4341 56.6377 28.5741 52.958 28.5741ZM52.958 23.5602C49.4373 23.5602 46.5743 24.6453 46.5743 25.9785C46.5743 27.3118 49.4391 28.3968 52.958 28.3968C56.4768 28.3968 59.3434 27.3118 59.3434 25.9785C59.3434 24.6453 56.4786 23.5602 52.958 23.5602Z" fill="#F8F8F8"/>
<path d="M58.4559 25.8987C58.4559 26.8703 56.0179 27.6592 53.0097 27.6592C50.0015 27.6592 47.5635 26.8703 47.5635 25.8987C47.5635 24.9271 50.0015 24.1382 53.0097 24.1382C56.0179 24.1382 58.4559 24.9271 58.4559 25.8987Z" fill="#B4AEA8"/>
<path d="M53.0102 27.7479C49.9076 27.7479 47.4766 26.9359 47.4766 25.8987C47.4766 24.8616 49.9076 24.0495 53.0102 24.0495C56.1129 24.0495 58.5439 24.8616 58.5439 25.8987C58.5439 26.9359 56.1129 27.7479 53.0102 27.7479ZM53.0102 24.2268C50.1052 24.2268 47.6515 24.9928 47.6515 25.8987C47.6515 26.8047 50.1052 27.5706 53.0102 27.5706C55.9152 27.5706 58.369 26.8047 58.369 25.8987C58.369 24.9928 55.9152 24.2268 53.0102 24.2268Z" fill="#F8F8F8"/>
<path d="M46.4873 22.773V25.4448C46.4873 26.8295 49.3853 27.9518 52.9584 27.9518C56.5315 27.9518 59.4313 26.8295 59.4313 25.4448V22.773H46.4873Z" fill="#B4AEA8"/>
<path d="M52.958 28.0404C49.2799 28.0404 46.3994 26.9004 46.3994 25.4448V22.6843H59.5183V25.4448C59.5183 26.9004 56.6377 28.0404 52.958 28.0404ZM46.5743 22.8616V25.4448C46.5743 26.7781 49.4391 27.8631 52.958 27.8631C56.4768 27.8631 59.3434 26.7781 59.3434 25.4448V22.8616H46.5743Z" fill="#F8F8F8"/>
<path d="M59.4313 22.906C59.4313 24.2907 56.5333 25.413 52.9584 25.413C49.3836 25.413 46.4873 24.2907 46.4873 22.906C46.4873 21.5214 49.3853 20.3991 52.9584 20.3991C56.5315 20.3991 59.4313 21.5214 59.4313 22.906Z" fill="#B4AEA8"/>
<path d="M52.958 25.5017C49.2799 25.5017 46.3994 24.3617 46.3994 22.9061C46.3994 21.4505 49.2799 20.3105 52.958 20.3105C56.636 20.3105 59.5183 21.4505 59.5183 22.9061C59.5183 24.3617 56.6377 25.5017 52.958 25.5017ZM52.958 20.4878C49.4391 20.4878 46.5743 21.5728 46.5743 22.9061C46.5743 24.2393 49.4391 25.3244 52.958 25.3244C56.4768 25.3244 59.3434 24.2393 59.3434 22.9061C59.3434 21.5728 56.4786 20.4878 52.958 20.4878Z" fill="#F8F8F8"/>
<path d="M58.4559 22.8244C58.4559 23.796 56.0179 24.5849 53.0097 24.5849C50.0015 24.5849 47.5635 23.796 47.5635 22.8244C47.5635 21.8528 50.0015 21.0638 53.0097 21.0638C56.0179 21.0638 58.4559 21.8528 58.4559 22.8244Z" fill="#B4AEA8"/>
<path d="M53.0102 24.6736C49.9076 24.6736 47.4766 23.8616 47.4766 22.8244C47.4766 21.7872 49.9076 20.9752 53.0102 20.9752C56.1129 20.9752 58.5439 21.7872 58.5439 22.8244C58.5439 23.8616 56.1129 24.6736 53.0102 24.6736ZM53.0102 21.1525C50.1052 21.1525 47.6515 21.9184 47.6515 22.8244C47.6515 23.7304 50.1052 24.4963 53.0102 24.4963C55.9152 24.4963 58.369 23.7304 58.369 22.8244C58.369 21.9184 55.9152 21.1525 53.0102 21.1525Z" fill="#F8F8F8"/>
</g>
<path d="M132.001 15.0087C132.001 22.5198 125.912 28.6087 118.401 28.6087C110.89 28.6087 104.801 22.5198 104.801 15.0087C104.801 7.4976 110.89 1.40866 118.401 1.40866C125.912 1.40866 132.001 7.4976 132.001 15.0087Z" fill="#B4AEA8"/>
<path d="M129.336 15.0087C129.336 21.0485 124.44 25.9448 118.4 25.9448C112.36 25.9448 107.464 21.0485 107.464 15.0087C107.464 8.96882 112.36 4.07256 118.4 4.07256C124.44 4.07256 129.336 8.96882 129.336 15.0087Z" fill="#F8F8F8"/>
<path d="M117.132 15.0626H118.201C118.543 15.0626 118.825 15.0047 119.047 14.8891C119.269 14.7689 119.433 14.6024 119.54 14.3896C119.651 14.1722 119.706 13.9202 119.706 13.6334C119.706 13.3744 119.655 13.1455 119.554 12.9466C119.456 12.7431 119.306 12.5859 119.103 12.4749C118.899 12.3592 118.642 12.3014 118.333 12.3014C118.087 12.3014 117.861 12.35 117.653 12.4471C117.445 12.5442 117.278 12.6807 117.153 12.8564C117.028 13.0322 116.966 13.2449 116.966 13.4947H114.961C114.961 12.9397 115.109 12.4564 115.405 12.0447C115.706 11.6331 116.108 11.3117 116.612 11.0804C117.116 10.8492 117.671 10.7335 118.277 10.7335C118.962 10.7335 119.56 10.8445 120.074 11.0665C120.587 11.2839 120.987 11.6054 121.274 12.0309C121.561 12.4564 121.704 12.9836 121.704 13.6126C121.704 13.9317 121.63 14.2416 121.482 14.5422C121.334 14.8382 121.121 15.1065 120.844 15.347C120.571 15.5829 120.238 15.7725 119.845 15.9159C119.452 16.0546 119.01 16.124 118.52 16.124H117.132V15.0626ZM117.132 16.5819V15.5482H118.52C119.07 15.5482 119.554 15.6106 119.97 15.7355C120.386 15.8604 120.735 16.0407 121.017 16.2766C121.299 16.5079 121.512 16.7831 121.656 17.1022C121.799 17.4167 121.871 17.7659 121.871 18.1498C121.871 18.6215 121.78 19.0424 121.6 19.4124C121.42 19.7778 121.165 20.0876 120.837 20.342C120.513 20.5964 120.134 20.7906 119.699 20.9248C119.264 21.0543 118.79 21.119 118.277 21.119C117.852 21.119 117.433 21.0612 117.021 20.9456C116.614 20.8253 116.244 20.6473 115.911 20.4114C115.583 20.1709 115.319 19.8703 115.12 19.5095C114.926 19.1441 114.829 18.7117 114.829 18.2122H116.834C116.834 18.4712 116.899 18.7024 117.028 18.9059C117.158 19.1094 117.336 19.269 117.562 19.3846C117.794 19.5003 118.05 19.5581 118.333 19.5581C118.652 19.5581 118.925 19.5003 119.151 19.3846C119.382 19.2644 119.558 19.0979 119.678 18.8851C119.803 18.6678 119.866 18.4157 119.866 18.1289C119.866 17.7589 119.799 17.4629 119.665 17.2409C119.53 17.0143 119.338 16.8478 119.089 16.7414C118.839 16.6351 118.543 16.5819 118.201 16.5819H117.132Z" fill="#5DB0BF"/>
<path d="M133.036 0.686495C129.741 0.155192 126.638 2.39949 126.109 5.69493C125.852 7.27739 126.239 8.81404 127.071 10.0438L125.981 12.0225C125.813 12.3293 125.937 12.4713 126.262 12.3385L128.399 11.4591C129.168 12.0499 130.091 12.4645 131.117 12.6271C134.413 13.1584 137.516 10.9141 138.045 7.61862C138.576 4.32317 136.332 1.22009 133.036 0.691075V0.686495Z" fill="#5DB0BF"/>
<path d="M132.103 10.2683C131.697 10.2683 131.393 9.94309 131.393 9.53546C131.393 9.12782 131.697 8.78888 132.103 8.78888C132.508 8.78888 132.822 9.12553 132.822 9.53546C132.822 9.94538 132.508 10.2683 132.103 10.2683ZM132.643 7.96445C132.634 7.99422 132.634 8.00567 132.62 8.01712C132.611 8.02857 132.556 8.03773 132.455 8.03773H131.638C131.603 8.03773 131.594 8.02628 131.594 8.01712C131.571 7.99651 131.56 7.93468 131.56 7.83849L131.404 3.58579C131.393 3.29266 131.404 3.2812 131.615 3.2812H132.597C132.806 3.2812 132.806 3.29266 132.796 3.58579L132.641 7.83849V7.96445H132.643Z" fill="#F8F8F8"/>
<defs>
<clipPath id="clip0_2149_14986">
<rect width="136" height="136" fill="white" transform="translate(35.999 42.2088)"/>
</clipPath>
<clipPath id="clip1_2149_14986">
<rect width="94.4003" height="125.6" fill="white" transform="translate(59.999 67.0088)"/>
</clipPath>
<clipPath id="clip2_2149_14986">
<rect width="32.8001" height="26.4001" fill="white" transform="translate(-0.000976562 63.8089)"/>
</clipPath>
<clipPath id="clip3_2149_14986">
<rect width="24.8001" height="24.8001" fill="white" transform="translate(46.3994 12.6088)"/>
</clipPath>
</defs>
</svg>
