<svg width="90" height="90" viewBox="0 0 90 90" fill="none" xmlns="http://www.w3.org/2000/svg">
<circle cx="45" cy="45" r="45" fill="#EDE8E4"/>
<path d="M25.5324 47.4506C24.6525 46.2942 23.3536 45.8035 22.1525 46.175C20.9514 46.5465 19.89 47.773 19.3872 49.357C18.8634 51.0111 18.9472 52.9525 19.4361 54.5925C19.9249 56.2326 20.7908 57.5923 21.7615 58.7067C22.6623 59.737 23.6609 60.5851 24.7363 61.2158C25.5604 61.6995 26.4333 62.0709 27.1386 62.8419" fill="#EDBFA9"/>
<path d="M65.1763 46.0629C66.0073 44.7732 67.2503 44.1074 68.4165 44.3317C69.5827 44.549 70.6372 45.6563 71.1609 47.1983C71.7056 48.8103 71.6567 50.7868 71.2168 52.5109C70.7768 54.2351 69.9668 55.728 69.045 56.9825C68.2 58.139 67.2433 59.1272 66.2168 59.9122C65.4347 60.508 64.5897 60.9986 63.9263 61.8747" fill="#EDBFA9"/>
<path d="M63.8564 31.8911C63.9053 32.0313 65.253 42.5234 65.2111 43.0911C65.0086 45.9227 67.2851 51.9222 66.503 54.6696C65.1343 59.4636 66.4192 62.7788 63.6469 66.9911C60.8745 71.2034 53.9053 76.2987 48.8983 77.6655C46.8173 78.2332 44.5896 78.3944 42.4946 77.9108C40.4346 77.4342 37.1315 76.4109 35.3298 75.3596C33.186 74.105 31.7265 72.7873 30.1064 70.951C28.1371 68.7082 27.1664 65.8276 26.3354 63.0031C23.5701 53.6253 25.6441 47.808 24.855 38.0869C24.855 38.0869 22.6692 24.2936 41.3494 23.6488C60.0296 22.997 62.5435 28.4358 63.8564 31.8981V31.8911Z" fill="#EDBFA9"/>
<path d="M37.7461 48.6491C37.781 49.6934 37.1595 50.5555 36.3494 50.5836C35.5464 50.6116 34.862 49.7916 34.8271 48.7473C34.7922 47.7029 35.4137 46.8409 36.2237 46.8128C37.0268 46.7848 37.7112 47.6048 37.7461 48.6491Z" fill="#0A0807"/>
<path d="M54.5967 48.0463C54.6316 49.0907 54.0101 49.9527 53.2 49.9808C52.3969 50.0088 51.7126 49.1888 51.6777 48.1445C51.6428 47.1002 52.2643 46.2381 53.0743 46.21C53.8774 46.182 54.5617 47.002 54.5967 48.0463Z" fill="#0A0807"/>
<path d="M43.249 56.3448C43.1442 56.3448 43.0395 56.3097 42.9697 56.2256L41.3914 54.4944C41.3286 54.4244 41.2099 54.2912 41.1889 54.0949C41.161 53.8146 41.3426 53.6254 41.4264 53.5342C42.3831 52.511 42.9557 51.0111 43.0395 49.3079C43.1233 47.6469 42.7602 45.9998 42.39 44.6121C42.3412 44.4158 42.4529 44.2126 42.6484 44.1635C42.844 44.1144 43.0395 44.2266 43.0954 44.4228C43.4794 45.8666 43.8565 47.5838 43.7657 49.35C43.668 51.2213 43.0255 52.8894 41.9571 54.0389C41.9571 54.0389 41.9501 54.0459 41.9431 54.0529L43.5074 55.735C43.64 55.8822 43.6331 56.1205 43.4864 56.2536C43.4166 56.3167 43.3328 56.3448 43.249 56.3518V56.3448Z" fill="#BD9886"/>
<path d="M68.9124 46.6867C68.1722 46.4203 66.6708 47.2193 66.0842 47.9833C66.9431 48.1235 67.8021 48.2917 68.654 48.4879C69.1219 48.6001 69.6736 48.8243 69.8133 49.4902C69.8691 49.7565 69.8412 50.0369 69.8133 50.3172C69.7644 50.8148 69.7015 51.3615 69.4431 51.6839C69.1708 52.0133 68.7867 51.9923 68.4445 51.9503C67.8998 51.8872 67.3621 51.8241 66.8174 51.761C67.013 52.2797 67.3831 52.6301 67.7881 52.6862C67.9068 52.7002 68.0465 52.7002 68.1303 52.8193C68.2211 52.9455 68.2281 53.1488 68.2211 53.331C68.1512 55.3075 67.1177 57.1648 65.8188 57.6694C66.8384 57.9007 67.9068 57.2139 68.668 56.1275C69.4292 55.0411 69.911 53.6043 70.2462 52.1395C70.4627 51.1863 70.9376 49.322 70.3999 48.5089C69.9599 47.8431 69.499 46.8899 68.9054 46.6726L68.9124 46.6867Z" fill="#D4A58E"/>
<path d="M21.7337 48.2846C22.4948 47.9202 24.0521 48.5089 24.6736 49.1888C23.7867 49.4411 22.9068 49.7214 22.0339 50.0298C21.5521 50.198 20.9865 50.4924 20.8608 51.1723C20.8119 51.4386 20.8398 51.7189 20.8747 51.9853C20.9306 52.4689 21.0074 52.9945 21.2867 53.2749C21.573 53.5623 21.9711 53.4922 22.3203 53.4081C22.8789 53.2749 23.4376 53.1417 23.9962 53.0086C23.8077 53.5412 23.4306 53.9407 23.0116 54.0459C22.8859 54.0809 22.7462 54.0949 22.6624 54.2211C22.5717 54.3543 22.5717 54.5575 22.5786 54.7397C22.6904 56.6742 23.7937 58.3703 25.1485 58.6927C24.101 59.0571 22.9837 58.5175 22.1806 57.5573C21.3775 56.5971 20.8468 55.2374 20.4697 53.8356C20.2253 52.9315 19.7015 51.1582 20.2323 50.2821C20.6722 49.5673 21.1261 48.565 21.7337 48.2776V48.2846Z" fill="#D4AB97"/>
<path d="M34.9878 57.2489C35.0297 58.4895 33.3118 59.5618 31.147 59.6389C28.9822 59.716 27.1945 58.7698 27.1526 57.5223C27.1107 56.2817 28.8286 55.2094 30.9934 55.1323C33.1582 55.0552 34.9459 56.0014 34.9878 57.2489Z" fill="#E3A1A1"/>
<path d="M61.2236 55.2093C61.2655 56.4499 59.5477 57.5222 57.3829 57.5993C55.2181 57.6764 53.4303 56.7302 53.3884 55.4827C53.3465 54.2421 55.0644 53.1698 57.2292 53.0927C59.394 53.0156 61.1817 53.9618 61.2236 55.2093Z" fill="#E3A1A1"/>
<path d="M56.1959 24.1534C56.3006 27.1952 54.904 29.2278 56.4612 31.835C57.0897 32.8864 59.464 34.9469 60.295 35.8511C60.9584 36.573 61.6218 35.8861 62.2853 36.608C62.8858 37.2598 63.5003 37.9397 63.7238 38.7948C63.8565 39.2854 63.8425 39.804 63.8635 40.3157C63.9333 42.3622 64.4291 44.3667 64.9249 46.3572C65.4556 46.161 65.7978 45.6564 66.2448 45.3129C67.2015 44.577 68.5143 44.6331 69.7154 44.7172C69.6107 42.2501 72.6344 31.8771 71.8802 29.1437C71.6637 28.3727 69.2685 25.7444 68.8914 25.0365C68.4515 24.2095 67.8649 23.4666 67.2224 22.7937C62.9906 18.3361 56.2029 16.612 50.33 18.3431C49.6735 18.5324 49.0171 18.7777 48.5073 19.2262C47.9975 19.6818 47.6554 20.3897 47.809 21.0555C47.9277 21.5882 48.3258 22.0087 48.7168 22.3942C50.4347 24.1044 50.1763 21.392 52.0758 22.8848" fill="#827975"/>
<path d="M28.4936 29.1226C28.3958 30.0057 28.2981 30.8889 28.2073 31.772C27.9768 33.8676 27.7394 34.6105 26.8386 36.5169C26.6919 36.8323 26.5173 37.1477 26.4056 37.4841C26.224 38.0308 26.1961 38.6195 26.1682 39.1943C26.0355 42.1169 25.9098 45.0466 25.7771 47.9693C25.0229 47.3805 24.2618 46.7918 23.3889 46.4203C22.5159 46.0488 22.488 46.0559 21.5942 46.3923C21.8735 45.0886 21.1752 43.5607 20.7911 42.2851C20.5886 41.5983 20.1975 40.9815 19.8274 40.3647C18.2282 37.7154 16.7827 36.1524 17.0271 33.0616C17.09 32.2345 17.2855 31.3935 17.7534 30.7066C18.0746 30.23 18.5146 29.8375 18.8847 29.396C19.8623 28.2325 20.3302 26.7326 21.0355 25.38C21.7059 24.0973 22.5858 22.9409 23.4657 21.7985C24.3525 20.642 25.2534 19.4645 26.3986 18.5674C28.1095 17.2217 30.2743 16.5699 32.4321 16.3526C34.59 16.1354 36.7687 16.3316 38.9266 16.5209" fill="#827975"/>
<path d="M58.8146 42.117C58.3886 41.7104 57.8439 41.5633 57.3132 41.4441C56.0772 41.1778 54.8202 41.0656 53.5492 41.1077C53.4305 41.1077 53.221 41.1077 52.9626 41.1077L52.8649 41.0867C52.5436 40.9885 49.478 41.346 49.2476 41.5072C49.5618 41.6684 49.8132 41.9067 49.9529 42.166C50.0925 42.4394 50.2112 42.8108 50.5883 42.8669C50.6721 42.8809 50.7559 42.8669 50.8328 42.8599C51.3425 42.8038 51.8593 42.7407 52.3691 42.6847C53.9333 42.5094 55.4976 42.3482 57.0828 42.2221C57.6554 42.2711 58.228 42.2641 58.8076 42.1099L58.8146 42.117Z" fill="#968B86"/>
<path d="M38.4583 42.18C38.4304 42.1029 38.3815 42.0328 38.3256 41.9768C38.3466 41.9768 38.3745 41.9768 38.3955 41.9768C37.7181 41.4021 36.8173 41.1147 35.9304 41.1708C34.3731 41.0026 32.6413 41.2829 31.1469 41.6333C30.5044 41.7805 29.7921 42.0539 29.5547 42.6776C29.9248 42.7547 30.3089 42.7547 30.686 42.7197C31.6497 42.8669 32.6343 42.6356 33.612 42.5024C35.1064 42.2992 36.6287 42.3482 38.1301 42.5375C38.193 42.5445 38.2628 42.5515 38.3256 42.5375C38.4583 42.4884 38.5002 42.3202 38.4583 42.194V42.18Z" fill="#968B86"/>
<path d="M43.5285 69.4862C45.1207 69.7876 46.9154 69.0727 48.1235 68.0424C48.752 67.5027 49.2478 66.886 49.6738 66.2411C46.657 66.3533 43.6542 66.907 40.6724 67.5097C41.3428 68.4139 42.2436 69.2479 43.5215 69.4862H43.5285Z" fill="#FF4545"/>
<path d="M51.6149 62.113C48.0045 62.9541 44.3244 63.4937 40.6233 63.711C40.0227 63.7461 39.4082 63.7601 38.8076 63.711C39.1638 64.9375 39.7154 66.108 40.4487 67.1944C40.5185 67.2995 40.5953 67.4046 40.6721 67.5098C43.647 66.907 46.6568 66.3533 49.6735 66.2412C50.0716 65.6454 50.4138 65.0217 50.742 64.4049C51.133 63.669 51.5171 62.884 51.6149 62.113Z" fill="#0A0807"/>
<path d="M51.6149 62.113C51.6638 61.7485 51.6498 61.3841 51.5241 61.0406C48.2001 61.7205 44.8411 62.1971 41.4822 62.4634C40.7769 62.5195 39.7224 62.3373 39.073 62.4915C38.3258 62.6667 38.64 63.1293 38.8006 63.697C38.8006 63.697 38.8006 63.704 38.8006 63.711C39.4012 63.7601 40.0087 63.746 40.6163 63.711C44.3174 63.4937 47.9976 62.9611 51.6079 62.113H51.6149Z" fill="white"/>
<path d="M43.2979 59.0852C43.6121 59.2604 43.9333 59.4987 44.0102 59.8492C44.094 60.2487 43.8286 60.6482 43.4794 60.8584C43.1303 61.0687 42.7252 61.1388 42.3272 61.2299C39.3942 61.9027 37.0269 63.9984 34.3873 65.4562C34.3314 64.3698 34.9599 63.3746 35.6233 62.5195C37.4529 60.1505 40.1484 57.3681 43.2979 59.0922V59.0852Z" fill="#968B86"/>
<path d="M45.5955 59.1623C45.2813 59.3375 44.9601 59.5758 44.8833 59.9263C44.7995 60.3258 45.0648 60.7253 45.414 60.9355C45.7631 61.1458 46.1682 61.2159 46.5662 61.307C49.4992 61.9798 51.8665 64.0755 54.5062 65.5333C54.562 64.4469 53.9335 63.4517 53.2701 62.5966C51.4405 60.2276 48.745 57.4451 45.5955 59.1693V59.1623Z" fill="#968B86"/>
<path d="M56.1608 28.0994C54.408 26.5084 52.2223 25.401 49.9039 24.9384C49.443 24.8473 48.9332 24.7842 48.5212 25.0155C48.2977 25.1417 48.1231 25.3379 47.9066 25.4711C47.2921 25.8426 46.51 25.5902 45.8256 25.373C44.7782 25.0436 43.7027 24.8263 42.6064 24.7141C42.0756 24.6581 41.4472 24.6791 41.1399 25.1136C41.0491 25.2468 40.9863 25.408 40.8606 25.5061C40.672 25.6393 40.4206 25.5832 40.1972 25.5412C39.3801 25.387 38.5421 25.5201 37.7181 25.6533C36.8312 25.8075 35.9374 25.9687 35.0505 26.1369C34.3033 26.2771 33.5491 26.4173 32.8019 26.5574C31.9569 26.7186 31.077 26.8869 30.3997 27.4125C29.2544 28.2956 28.996 29.9076 28.9821 31.3515C28.9681 32.7953 29.1078 34.3232 28.4723 35.6198C27.8229 36.9515 26.4402 36.4328 25.8466 37.7995C25.6301 38.2972 25.4695 38.9139 24.9667 39.1172C24.2195 36.1735 23.5212 34.5545 23.7586 31.5197C23.996 28.5059 25.1832 25.5762 27.1106 23.2563L33.5421 19.2963L44.4988 17.9366L48.4094 18.9389L55.8117 21.5111" fill="#827975"/>
<path d="M30.393 17.3549C30.9587 15.3784 32.8511 14.1169 34.7017 13.2338C41.3986 10.0377 49.7087 9.69432 56.0494 13.5491C55.379 13.5982 54.7017 13.458 54.1011 13.1567C56.3707 13.451 58.5564 14.3832 60.3371 15.827C61.5033 16.7662 62.502 17.9156 63.724 18.7847C64.4084 19.2683 65.1486 19.6608 65.812 20.1724C68.5494 22.2821 69.4503 26.0738 69.2547 29.5362C69.2338 29.9357 69.1709 30.3842 68.8497 30.6225C68.6332 30.7837 68.3469 30.8048 68.0816 30.8258C65.6444 30.98 63.1304 31.1202 60.8399 30.2861C59.4642 29.7815 58.2422 28.9474 56.9573 28.2536C52.9698 26.0879 48.4028 25.2188 43.8777 24.8823C39.3525 24.5459 34.8064 24.7001 30.2813 24.4408C29.6179 24.3987 28.8288 24.2656 28.5634 23.6558C28.4098 23.2914 28.4936 22.8778 28.6123 22.4994C29.2897 20.4037 30.9796 18.6726 33.0536 17.9437" fill="#827975"/>
<path d="M34.7855 60.1155C34.1151 60.7603 33.5914 61.5453 33.1654 62.3723C32.5788 63.5147 32.1808 64.9095 32.7464 66.0659C32.3065 64.6151 31.9573 62.954 32.7534 61.6644C33.1305 61.0616 33.7171 60.6271 34.2897 60.2136C35.0369 59.6739 36.9713 57.7956 37.921 58.0128C36.8595 58.6997 35.7073 59.2324 34.7785 60.1155H34.7855Z" fill="#BD9886"/>
<path d="M61.2028 30.3772C61.7335 30.195 62.2642 29.9917 62.76 29.7114C63.1232 29.5011 63.4653 29.2488 63.8075 28.9965C64.3801 28.5689 64.9458 28.1484 65.5184 27.7209C65.5813 27.9031 65.4556 28.0853 65.3229 28.2255C64.9109 28.646 64.3941 28.9404 63.8843 29.2278C62.4737 30.0268 61.0631 30.8258 59.6525 31.6178C59.7712 31.835 60.0994 31.772 60.3299 31.6738C62.3201 30.8398 64.3452 29.9777 65.9933 28.583C66.105 28.8914 65.8047 29.1717 65.5324 29.3539C64.1986 30.2651 62.8089 31.0991 61.3843 31.8561C61.1469 31.9822 60.8815 32.1645 60.8955 32.4308C61.4053 32.3747 61.8662 32.1084 62.3131 31.8491C63.9472 30.8889 65.5882 29.9357 67.2223 28.9755C67.0687 29.5432 66.5729 29.9357 66.105 30.2861C64.5757 31.4355 63.0463 32.578 61.51 33.7274C61.9989 33.9026 62.5296 33.6994 62.9975 33.4821C64.3522 32.8583 65.6441 32.0874 66.929 31.3164C65.679 32.5429 64.1846 33.5101 62.5645 34.1479C62.0826 34.3372 61.5659 34.4984 61.0561 34.4143C61.2796 33.9377 61.503 33.4681 61.7265 32.9915C61.7544 32.9354 61.7824 32.8723 61.7754 32.8093C61.7544 32.585 61.4262 32.599 61.2237 32.6901C60.7 32.9354 60.679 32.4869 60.274 32.4238C59.8201 32.3537 59.2963 32.5009 59.0729 31.9121C58.6539 30.8118 60.5743 30.5875 61.2097 30.3632L61.2028 30.3772Z" fill="#A8A8A8"/>
<path d="M26.2866 31.3444C25.7559 31.1622 25.2252 30.959 24.7294 30.6786C24.3663 30.4683 24.0241 30.216 23.6819 29.9637C23.1093 29.5362 22.5436 29.1156 21.971 28.6881C21.9082 28.8703 22.0338 29.0526 22.1665 29.1927C22.5785 29.6133 23.0953 29.9076 23.6051 30.195C25.0157 30.994 26.4263 31.793 27.8369 32.585C27.7182 32.8023 27.39 32.7392 27.1595 32.6411C25.1693 31.807 23.1442 30.9449 21.4961 29.5502C21.3844 29.8586 21.6847 30.1389 21.957 30.3212C23.2908 31.2323 24.6805 32.0663 26.1051 32.8233C26.3425 32.9494 26.6079 33.1317 26.5939 33.398C26.0841 33.3419 25.6232 33.0756 25.1763 32.8163C23.5422 31.8561 21.9012 30.9029 20.2671 29.9427C20.4207 30.5104 20.9165 30.9029 21.3844 31.2533C22.9137 32.4028 24.4431 33.5452 25.9794 34.6946C25.4906 34.8699 24.9598 34.6666 24.492 34.4493C23.1372 33.8255 21.8453 33.0546 20.5604 32.2836C21.8104 33.5102 23.3048 34.4774 24.9249 35.1152C25.4068 35.3044 25.9235 35.4656 26.4333 35.3885C26.2098 34.9119 25.9864 34.4423 25.7629 33.9657C25.735 33.9097 25.707 33.8466 25.714 33.7835C25.735 33.5592 26.0632 33.5732 26.2657 33.6643C26.7894 33.9097 26.8104 33.4611 27.2154 33.398C27.6693 33.3279 28.1931 33.4751 28.4165 32.8864C28.8355 31.786 26.9151 31.5617 26.2797 31.3374L26.2866 31.3444Z" fill="#A8A8A8"/>
<path d="M33.5211 21.6233C33.5211 21.6233 33.5002 21.6233 33.4932 21.6233C33.2139 21.5672 32.9834 21.3429 32.7879 20.9434C32.0686 19.4505 32.2781 17.4741 33.3186 15.9041C34.1776 14.6075 35.5533 13.5421 37.4038 12.7572C40.4206 11.4675 43.9611 11.1591 47.6343 11.86C50.7208 12.4488 53.8493 13.7174 57.2153 15.7429C57.9415 16.1774 58.6748 16.647 59.3801 17.1026C61.091 18.203 62.8647 19.3314 64.7572 20.1374C64.827 20.1654 64.8619 20.2495 64.834 20.3196C64.806 20.3897 64.7222 20.4248 64.6524 20.3967C62.732 19.5907 60.9583 18.4483 59.2334 17.3409C58.5281 16.8923 57.8019 16.4227 57.0756 15.9882C53.7446 13.9837 50.6371 12.7221 47.5854 12.1404C43.9681 11.4465 40.4904 11.7549 37.5155 13.0165C35.7208 13.7804 34.387 14.8037 33.556 16.0583C32.5644 17.5512 32.3619 19.4225 33.0393 20.8243C33.1929 21.1397 33.3605 21.3149 33.5491 21.3499C33.6259 21.3639 33.6748 21.441 33.6538 21.5181C33.6398 21.5812 33.584 21.6303 33.5141 21.6303L33.5211 21.6233Z" fill="#9E9E9E"/>
<path d="M37.781 23.4035C37.4109 23.4035 37.0268 23.2773 36.6916 23.032C36.3006 22.7447 35.9793 22.3171 35.693 21.6934C35.2531 20.7402 35.0296 19.6818 35.0436 18.6375C35.0576 17.5932 35.3159 16.6821 35.7978 16.0022C36.4333 15.1051 37.4388 14.6075 38.2419 14.2711C41.2168 13.0235 44.5757 12.7922 47.6972 13.6052C50.2391 14.2711 52.5645 15.6097 54.8131 16.9064C55.3648 17.2218 55.9095 17.5372 56.4612 17.8455C59.0729 19.2964 61.8103 20.5579 64.6106 21.6022C64.6805 21.6303 64.7224 21.7074 64.6944 21.7845C64.6665 21.8546 64.5827 21.8896 64.5129 21.8686C61.6986 20.8173 58.9472 19.5487 56.3215 18.0908C55.7698 17.7825 55.2182 17.4671 54.6665 17.1517C52.4319 15.8691 50.1274 14.5374 47.6204 13.8786C44.5617 13.0796 41.2657 13.3109 38.3467 14.5304C37.5785 14.8528 36.6218 15.3294 36.0282 16.1634C35.5813 16.7942 35.3369 17.6493 35.3229 18.6375C35.3089 19.6398 35.5254 20.6561 35.9444 21.5742C36.2098 22.1559 36.4961 22.5484 36.8522 22.8078C37.2852 23.1232 37.8229 23.2143 38.2349 23.032C38.3048 23.004 38.3886 23.032 38.4165 23.1021C38.4444 23.1722 38.4165 23.2563 38.3467 23.2844C38.1721 23.3615 37.9765 23.4035 37.774 23.4035H37.781Z" fill="#9E9E9E"/>
<path d="M41.0701 23.7189C41.0701 23.7189 41.0561 23.7189 41.0491 23.7189C40.1273 23.5717 39.2963 22.9549 38.8773 22.1209C38.4583 21.2868 38.4653 20.2495 38.8913 19.4225C39.2684 18.6866 39.9597 18.0768 41.0002 17.5652C41.7754 17.1867 42.5924 16.9204 43.4374 16.7662C45.5533 16.3807 47.9066 16.7031 50.6301 17.7474C51.943 18.252 53.2209 18.8688 54.4639 19.4645C55.3717 19.9061 56.3145 20.3547 57.2572 20.7612C60.1343 21.9877 63.165 22.8147 66.2726 23.2142C66.3494 23.2213 66.4052 23.2913 66.3913 23.3684C66.3843 23.4455 66.3214 23.5086 66.2376 23.4876C63.1092 23.0881 60.0505 22.254 57.1525 21.0205C56.2027 20.614 55.26 20.1584 54.3452 19.7239C53.1092 19.1281 51.8312 18.5114 50.5323 18.0137C47.8578 16.9904 45.5603 16.675 43.4932 17.0465C42.6762 17.1937 41.8801 17.453 41.1259 17.8245C40.1413 18.3081 39.4918 18.8758 39.1427 19.5557C38.7586 20.3126 38.7516 21.2448 39.1357 22.0017C39.5128 22.7587 40.267 23.3124 41.105 23.4455C41.1818 23.4596 41.2307 23.5296 41.2237 23.6067C41.2097 23.6768 41.1539 23.7259 41.084 23.7259L41.0701 23.7189Z" fill="#9E9E9E"/>
<path d="M66.5658 22.4012C66.5658 22.4012 66.5519 22.4012 66.5449 22.4012C62.5784 21.7704 58.8354 20.1234 55.2111 18.5254C52.0337 17.1306 48.7446 15.6798 45.3298 14.9299C44.3172 14.7056 43.5421 14.6005 42.8158 14.5934C42.7879 14.5934 42.753 14.5934 42.7251 14.5934C41.8033 14.5934 40.8396 14.7546 39.8619 15.063C38.5281 15.4906 37.6063 16.1214 37.1315 16.9414C36.7195 17.6563 36.6008 18.5955 36.8033 19.5907C36.9918 20.5299 37.4318 21.413 37.8298 22.1769C37.8647 22.247 37.8368 22.3311 37.7739 22.3662C37.7111 22.4012 37.6203 22.3732 37.5854 22.3101C37.1804 21.5391 36.7265 20.628 36.5309 19.6538C36.3144 18.5955 36.4471 17.5862 36.8941 16.8082C37.4038 15.9251 38.3745 15.2523 39.7781 14.8037C40.8186 14.4743 41.8382 14.3131 42.8158 14.3201C43.7725 14.3341 44.6943 14.5093 45.3857 14.6635C48.8354 15.4205 52.1315 16.8713 55.3228 18.2801C58.9262 19.864 62.6552 21.5041 66.5868 22.1349C66.6636 22.1489 66.7125 22.219 66.7055 22.2961C66.6915 22.3662 66.6357 22.4152 66.5658 22.4152V22.4012Z" fill="#9E9E9E"/>
<path d="M41.2658 21.2027C41.2449 20.3757 41.7197 19.5907 42.3831 19.1001C43.0465 18.6095 43.8706 18.3852 44.6946 18.3081C45.2672 18.2591 45.8468 18.2731 46.4055 18.3922C47.6345 18.6515 48.703 19.3664 49.8273 19.9271C51.6918 20.8663 53.7309 21.392 55.749 21.9106C57.6345 22.3942 59.527 22.8849 61.4613 23.0671C58.9823 22.9199 56.5172 22.6395 54.0661 22.24C52.6694 22.0088 51.2798 21.7424 49.8692 21.6513C48.4585 21.5672 47.013 21.6653 45.6862 22.1629C44.7714 22.5064 43.7169 23.2143 42.6974 23.1231C41.8664 23.0461 41.2937 21.9527 41.2728 21.2027H41.2658Z" fill="#69615E"/>
</svg>
