<svg xmlns="http://www.w3.org/2000/svg" width="29.25" height="40" viewBox="0 0 29.25 40">
  <path id="Path_41" data-name="Path 41" d="M7.365,40a8.971,8.971,0,0,1-2.929-.65C2.015,38.507.554,38,.043,35.468c-.218-1.079.376-2.1,1.767-3.041a12.458,12.458,0,0,1,3.03-1.415,7.7,7.7,0,0,0,3.174-1.647c.519-.654,4.817-7.531,4.817-7.829a.665.665,0,0,1,.044-.184c.128-.393.427-1.315-.533-4.222a14.49,14.49,0,0,0-1.382-3.157,19.775,19.775,0,0,1-1.616-3.557C7.937,7.764,7.1,6.4,6.65,5.665a6.849,6.849,0,0,1-.415-.721.714.714,0,0,1,0-.564.775.775,0,0,1,.43-.414C7.111,3.79,17.747,0,18.84,0A.243.243,0,0,1,18.9.006l.185.049c.525.136.65.169.779.882.021.115.055.439.106.928.286,2.726,1.157,11.022,3.2,13.273a14.593,14.593,0,0,0,2.816,3.574c.234.219.5.467.837.8a6.589,6.589,0,0,1,2.421,4.332.714.714,0,0,0-.291.617.738.738,0,0,0,.257.594,3.96,3.96,0,0,1-1.073,2.126,8.4,8.4,0,0,1-.613.576h-.02a1.018,1.018,0,0,0-.523.152.956.956,0,0,0-.458.606c-.218.149-.453.3-.7.448a.842.842,0,0,0-.257-.039,1.051,1.051,0,0,0-.441.1.921.921,0,0,0-.538.637c-.584.311-1.174.6-1.745.885A17.339,17.339,0,0,0,19.478,32.5a80.979,80.979,0,0,1-9.671,6.849A5.44,5.44,0,0,1,7.365,40Zm5.507-4.147a.383.383,0,1,0,.383.383A.383.383,0,0,0,12.872,35.853Zm1.149-.958a.383.383,0,1,0,.382.383A.384.384,0,0,0,14.021,34.9Zm.958-.958a.383.383,0,1,0,.382.383A.384.384,0,0,0,14.979,33.938Zm1.339.045a.433.433,0,0,0-.3.135.347.347,0,0,0-.067.474.242.242,0,0,0,.175.068.438.438,0,0,0,.3-.135.346.346,0,0,0,.068-.474A.244.244,0,0,0,16.318,33.983Zm-.382-1.193a.383.383,0,1,0,.382.382A.383.383,0,0,0,15.936,32.79Zm2.3-.766a.383.383,0,1,0,.383.382A.383.383,0,0,0,18.234,32.024ZM16.7,31.832a.383.383,0,1,0,.382.382A.383.383,0,0,0,16.7,31.832Zm3.92-2.367a1.011,1.011,0,0,0-.57.19,1,1,0,0,0-.386.511.6.6,0,0,0,.065.532.618.618,0,0,0,.52.245,1.008,1.008,0,0,0,.57-.19.993.993,0,0,0,.386-.51.6.6,0,0,0-.065-.533A.617.617,0,0,0,20.623,29.465Zm2.385-.9a1.1,1.1,0,0,0-.209.02.786.786,0,0,0-.718.823.726.726,0,0,0,.764.514,1.129,1.129,0,0,0,.21-.021.963.963,0,0,0,.62-.385.574.574,0,0,0,.1-.437A.725.725,0,0,0,23.007,28.568Zm.684-1.906a.67.67,0,1,0,.67.67A.671.671,0,0,0,23.692,26.662Zm2.489-.958a.67.67,0,1,0,.671.67A.671.671,0,0,0,26.181,25.7ZM28.1,24.555c-.264,0-.479.3-.479.67s.215.67.479.67.479-.3.479-.67S28.36,24.555,28.1,24.555Z" transform="translate(0.001 0)" fill="#333"/>
</svg>
