<svg width="80" height="81" viewBox="0 0 80 81" fill="none" xmlns="http://www.w3.org/2000/svg">
<path id="Oval 3" fill-rule="evenodd" clip-rule="evenodd" d="M35.5 0H44.5L41.5 3.38574V8.034C45.966 8.23689 50.1971 9.34112 54.0156 11.1691L57.0081 5.98599L56.1029 1.55385L63.8971 6.05385L59.5955 7.50438L56.6599 12.5891C60.4386 14.8494 63.72 17.8554 66.3008 21.4037L71.514 18.3938L72.9462 14.1029L77.4462 21.8971L72.9956 21.0025L67.9545 23.913C70.5218 28.2305 72.1173 33.1934 72.4395 38.5H76.6143L80 35.5V44.5L76.593 41.5H72.4849C72.3371 46.3921 71.1081 51.0123 69.0288 55.1299L74.014 58.0081L78.4462 57.1029L73.9462 64.8971L72.4956 60.5956L67.554 57.7425C65.1511 61.5744 61.971 64.8694 58.2347 67.4064L60.6062 71.514L64.8971 72.9462L57.1029 77.4462L57.9975 72.9956L55.6767 68.976C51.4393 71.3138 46.6243 72.7332 41.5 72.966V77.6143L44.5 81H35.5L38.5 77.593V72.966C33.8577 72.7551 29.4692 71.5703 25.534 69.611L23.0025 73.9956L23.8971 78.4462L16.1029 73.9462L20.3938 72.514L22.9129 68.1509C19.0668 65.7691 15.7545 62.6072 13.1971 58.8862L8.50438 61.5956L7.05385 65.8971L2.55385 58.1029L6.98599 59.0081L11.6129 56.3368C9.14559 51.9236 7.67756 46.8759 7.51509 41.5H3.40698L0 44.5V35.5L3.38574 38.5H7.56053C7.84571 33.8026 9.12868 29.3745 11.2003 25.425L7.00438 23.0025L2.55385 23.8971L7.05385 16.1029L8.48599 20.3938L12.7151 22.8355C15.3325 18.8009 18.8204 15.3834 22.9129 12.8491L20.4045 8.50438L16.1029 7.05385L23.8971 2.55385L22.9919 6.98599L25.534 11.389C29.4692 9.42973 33.8577 8.2449 38.5 8.034V3.40698L35.5 0ZM28.1511 27.5C28.1511 31.0899 27.3338 34 26.3256 34C25.3173 34 24.5 31.0899 24.5 27.5C24.5 23.9101 25.3173 21 26.3256 21C27.3338 21 28.1511 23.9101 28.1511 27.5ZM61.7592 46.6325C60.8159 46.088 58.0366 49.1361 55.5513 53.4407C53.066 57.7454 51.8159 61.6764 52.7592 62.221C53.7024 62.7656 56.4817 59.7174 58.967 55.4128C61.4523 51.1082 62.7024 47.1771 61.7592 46.6325ZM29.3013 56.3378C30.544 54.1855 32.3159 52.8822 33.2592 53.4268C34.2024 53.9713 33.9596 56.1576 32.717 58.3099C31.4744 60.4622 29.7024 61.7656 28.7592 61.221C27.8159 60.6764 28.0587 58.4902 29.3013 56.3378ZM45.2838 27.9026C45.932 29.1217 48.2363 29.1642 50.4307 27.9974C52.6251 26.8306 53.8785 24.8965 53.2303 23.6774C52.5821 22.4583 50.2777 22.4159 48.0833 23.5827C45.889 24.7494 44.6355 26.6835 45.2838 27.9026Z" fill="url(#paint0_linear_2242_3532)"/>
<defs>
<linearGradient id="paint0_linear_2242_3532" x1="9.3287" y1="29.207" x2="9.3287" y2="91.3164" gradientUnits="userSpaceOnUse">
<stop stop-color="#699224"/>
<stop offset="1" stop-color="#A2C44A" stop-opacity="0.498743"/>
</linearGradient>
</defs>
</svg>
