<svg width="179" height="169" viewBox="0 0 179 169" fill="none" xmlns="http://www.w3.org/2000/svg">
<g filter="url(#filter0_d_2149_14803)">
<path d="M95.1045 5.83462C95.1045 2.79284 97.5703 0.326996 100.612 0.326996H164.713C167.755 0.326996 170.221 2.79284 170.221 5.83462V69.9357C170.221 72.9775 167.755 75.4433 164.713 75.4433H100.612C97.5703 75.4433 95.1045 72.9775 95.1045 69.9357V5.83462Z" fill="white"/>
</g>
<g filter="url(#filter1_d_2149_14803)">
<path d="M95.1045 86.4859C95.1045 83.4441 97.5703 80.9782 100.612 80.9782H164.713C167.755 80.9782 170.221 83.4441 170.221 86.4859V150.587C170.221 153.629 167.755 156.095 164.713 156.095H100.612C97.5703 156.095 95.1045 153.629 95.1045 150.587V86.4859Z" fill="white"/>
</g>
<g filter="url(#filter2_d_2149_14803)">
<path d="M14.4531 5.83462C14.4531 2.79284 16.919 0.326996 19.9607 0.326996H84.0618C87.1036 0.326996 89.5695 2.79284 89.5695 5.83462V69.9357C89.5695 72.9775 87.1036 75.4433 84.0618 75.4433H19.9607C16.919 75.4433 14.4531 72.9775 14.4531 69.9357V5.83462Z" fill="white"/>
</g>
<g filter="url(#filter3_d_2149_14803)">
<path d="M0.220703 61.1835C0.220703 58.1417 2.68655 55.6758 5.72833 55.6758H99.0852C102.127 55.6758 104.593 58.1417 104.593 61.1835V154.54C104.593 157.582 102.127 160.048 99.0852 160.048H5.72832C2.68655 160.048 0.220703 157.582 0.220703 154.54V61.1835Z" fill="white"/>
</g>
<g filter="url(#filter4_d_2149_14803)">
<path fill-rule="evenodd" clip-rule="evenodd" d="M99.0852 57.3281H5.72833C3.59908 57.3281 1.87299 59.0542 1.87299 61.1835V154.54C1.87299 156.67 3.59908 158.396 5.72832 158.396H99.0852C101.214 158.396 102.941 156.67 102.941 154.54V61.1835C102.941 59.0542 101.214 57.3281 99.0852 57.3281ZM5.72833 55.6758C2.68655 55.6758 0.220703 58.1417 0.220703 61.1835V154.54C0.220703 157.582 2.68655 160.048 5.72832 160.048H99.0852C102.127 160.048 104.593 157.582 104.593 154.54V61.1835C104.593 58.1417 102.127 55.6758 99.0852 55.6758H5.72833Z" fill="#FD8915"/>
</g>
<path d="M30.1238 75.1073L29.3527 76.7419C26.8699 76.3718 25.0964 75.2152 24.1866 73.6885C23.2767 75.2152 21.4878 76.3718 19.005 76.7419L18.2339 75.1073C21.4724 74.6601 23.0916 72.8249 23.0916 71.1594V70.4809H25.2661V71.1594C25.2661 72.8095 26.9007 74.6601 30.1238 75.1073ZM30.5864 77.7906V79.4407H25.1427V84.283H23.1071V79.4407H17.7559V77.7906H30.5864Z" fill="#FD8106"/>
<path d="M38.3113 82.7408C40.2081 82.7408 41.1797 82.417 41.1797 81.6768C41.1797 80.9365 40.2081 80.5973 38.3113 80.5973C36.4145 80.5973 35.4429 80.9365 35.4429 81.6768C35.4429 82.417 36.4145 82.7408 38.3113 82.7408ZM38.3113 79.0551C41.3801 79.0551 43.2461 79.9958 43.2461 81.6768C43.2461 83.3423 41.3801 84.283 38.3113 84.283C35.2425 84.283 33.3919 83.3423 33.3919 81.6768C33.3919 79.9958 35.2425 79.0551 38.3113 79.0551ZM39.3754 76.7419H44.7883V78.3612H31.9423V76.7419H37.3398V75.5699H33.4998V70.6659H43.2461V72.2852H35.52V73.9507H43.3232V75.5699H39.3754V76.7419Z" fill="#FD8106"/>
<path d="M57.9415 70.0645V78.4537H55.9058V70.0645H57.9415ZM54.8726 70.9898V72.3314H46.6993V70.9898H49.7527V69.9411H51.8038V70.9898H54.8726ZM52.3127 74.475C52.3127 74.0586 51.7575 73.8582 50.7705 73.8582C49.7836 73.8582 49.2284 74.0586 49.2284 74.475C49.2284 74.8914 49.7836 75.0919 50.7705 75.0919C51.7575 75.0919 52.3127 74.8914 52.3127 74.475ZM47.3162 74.475C47.3162 73.303 48.6578 72.609 50.7705 72.609C52.8987 72.609 54.2403 73.303 54.2403 74.475C54.2403 75.6624 52.8987 76.3564 50.7705 76.3564C48.6578 76.3564 47.3162 75.6624 47.3162 74.475ZM50.3233 82.818H58.3116V84.1596H48.3185V80.8903H55.9367V80.2734H48.3031V78.9472H49.7836V78.1453C48.5653 78.1916 47.4241 78.1916 46.3909 78.1916L46.1596 76.8191C48.812 76.8191 52.2047 76.8036 55.1965 76.4335L55.3044 77.6826C54.1632 77.8523 52.9912 77.9757 51.8192 78.0528V78.9472H57.9415V82.1394H50.3233V82.818Z" fill="#FD8106"/>
<path d="M64.7102 74.0741V74.3671C64.7102 76.5106 65.435 78.685 67.4398 79.7491L66.3449 81.2604C65.0958 80.5973 64.2784 79.4715 63.7695 78.1144C63.2915 79.5949 62.4587 80.8594 61.1787 81.5997L60.0376 80.073C62.0578 78.8855 62.7826 76.5569 62.7826 74.3671V74.0741H60.5619V72.4394H62.7826V70.5271H64.7102V72.4394H66.8846V74.0741H64.7102ZM67.6865 75.4311V70.2958H69.5834V83.6199H67.6865V77.0812H66.0673V75.4311H67.6865ZM70.5549 70.0491H72.4826V84.2521H70.5549V70.0491Z" fill="#FD8106"/>
<path d="M78.3723 79.3482C79.421 79.3482 80.1149 78.2224 80.1149 76.1097C80.1149 74.0124 79.421 72.8866 78.3723 72.8866C77.3391 72.8866 76.6451 74.0124 76.6451 76.1097C76.6451 78.2224 77.3391 79.3482 78.3723 79.3482ZM84.3712 70.0491H86.4069V84.2984H84.3712V76.8191H82.0118C81.7959 79.5332 80.3463 81.1987 78.3723 81.1987C76.2596 81.1987 74.7021 79.2402 74.7021 76.1097C74.7021 72.9946 76.2596 71.0515 78.3723 71.0515C80.2846 71.0515 81.7188 72.609 81.9963 75.169H84.3712V70.0491Z" fill="#FD8106"/>
<path d="M145.621 57.6644H119.545C118.132 57.6644 116.981 56.5142 116.981 55.1012V44.9877C116.981 43.5746 118.132 42.4244 119.545 42.4244H127.67V45.382C127.448 45.7435 127.448 46.2036 127.67 46.5651V49.457C127.448 49.8185 127.448 50.2786 127.67 50.6401V51.1576C127.67 52.1435 128.467 52.9486 129.461 52.9486C130.447 52.9486 131.252 52.1517 131.252 51.1576V42.4244H135.672L136.107 44.9302C135.532 45.1684 135.261 45.8257 135.5 46.4008C135.664 46.8033 136.05 47.0745 136.485 47.0991L136.806 48.9558C136.206 48.808 135.59 49.1777 135.442 49.7774C135.294 50.3771 135.664 50.9933 136.264 51.1412C136.354 51.1659 136.444 51.1741 136.535 51.1741C136.773 51.1741 137.011 51.1001 137.2 50.9522C137.479 51.6013 138.12 52.0285 138.827 52.0285C138.934 52.0285 139.032 52.0203 139.131 52.0039C139.64 51.9135 140.084 51.6095 140.347 51.1659C140.388 51.1659 140.437 51.1741 140.478 51.1741C141.103 51.1741 141.604 50.6729 141.604 50.0485C141.604 49.4241 141.103 48.923 140.478 48.923C140.478 48.923 140.421 48.923 140.388 48.923L140.059 47.017C140.634 47.247 141.292 46.9759 141.53 46.4008C141.76 45.8257 141.489 45.1684 140.914 44.9302C140.511 44.7659 140.059 44.848 139.739 45.1356L139.262 42.4244H145.621C147.034 42.4244 148.184 43.5746 148.184 44.9877V55.1012C148.184 56.5142 147.034 57.6644 145.621 57.6644ZM144.446 52.9897C143.822 52.9897 143.321 53.4909 143.321 54.1153C143.321 54.7397 143.822 55.2408 144.446 55.2408C145.071 55.2408 145.572 54.7397 145.572 54.1153C145.572 53.4909 145.071 52.9897 144.446 52.9897ZM140.495 52.9897C139.87 52.9897 139.369 53.4909 139.369 54.1153C139.369 54.7397 139.87 55.2408 140.495 55.2408C141.119 55.2408 141.62 54.7397 141.62 54.1153C141.62 53.4909 141.119 52.9897 140.495 52.9897ZM136.543 52.9897C135.919 52.9897 135.417 53.4909 135.417 54.1153C135.417 54.7397 135.919 55.2408 136.543 55.2408C137.167 55.2408 137.668 54.7397 137.668 54.1153C137.668 53.4909 137.167 52.9897 136.543 52.9897ZM132.591 52.9897C131.967 52.9897 131.466 53.4909 131.466 54.1153C131.466 54.7397 131.967 55.2408 132.591 55.2408C133.216 55.2408 133.717 54.7397 133.717 54.1153C133.717 53.4909 133.216 52.9897 132.591 52.9897ZM128.639 52.9897C128.015 52.9897 127.514 53.4909 127.514 54.1153C127.514 54.7397 128.015 55.2408 128.639 55.2408C129.264 55.2408 129.765 54.7397 129.765 54.1153C129.765 53.4909 129.264 52.9897 128.639 52.9897ZM124.688 52.9897C124.063 52.9897 123.562 53.4909 123.562 54.1153C123.562 54.7397 124.063 55.2408 124.688 55.2408C125.312 55.2408 125.813 54.7397 125.813 54.1153C125.813 53.4909 125.312 52.9897 124.688 52.9897ZM120.736 52.9897C120.112 52.9897 119.61 53.4909 119.61 54.1153C119.61 54.7397 120.112 55.2408 120.736 55.2408C121.36 55.2408 121.862 54.7397 121.862 54.1153C121.862 53.4909 121.36 52.9897 120.736 52.9897ZM144.463 48.9148C143.838 48.9148 143.337 49.4159 143.337 50.0403C143.337 50.6647 143.838 51.1659 144.463 51.1659C145.087 51.1659 145.588 50.6647 145.588 50.0403C145.588 49.4159 145.087 48.9148 144.463 48.9148ZM132.599 48.9148C131.975 48.9148 131.474 49.4159 131.474 50.0403C131.474 50.6647 131.975 51.1659 132.599 51.1659C133.224 51.1659 133.725 50.6647 133.725 50.0403C133.725 49.4159 133.224 48.9148 132.599 48.9148ZM124.688 48.9148C124.063 48.9148 123.562 49.4159 123.562 50.0403C123.562 50.6647 124.063 51.1659 124.688 51.1659C125.312 51.1659 125.813 50.6647 125.813 50.0403C125.813 49.4159 125.312 48.9148 124.688 48.9148ZM120.736 48.9148C120.112 48.9148 119.61 49.4159 119.61 50.0403C119.61 50.6647 120.112 51.1659 120.736 51.1659C121.36 51.1659 121.862 50.6647 121.862 50.0403C121.862 49.4159 121.36 48.9148 120.736 48.9148ZM144.463 44.8398C143.838 44.8398 143.337 45.341 143.337 45.9653C143.337 46.5897 143.838 47.0909 144.463 47.0909C145.087 47.0909 145.588 46.5897 145.588 45.9653C145.588 45.341 145.087 44.8398 144.463 44.8398ZM132.599 44.8398C131.975 44.8398 131.474 45.341 131.474 45.9653C131.474 46.5897 131.975 47.0909 132.599 47.0909C133.224 47.0909 133.725 46.5897 133.725 45.9653C133.725 45.341 133.224 44.8398 132.599 44.8398ZM124.688 44.8398C124.063 44.8398 123.562 45.341 123.562 45.9653C123.562 46.5897 124.063 47.0909 124.688 47.0909C125.312 47.0909 125.813 46.5897 125.813 45.9653C125.813 45.341 125.312 44.8398 124.688 44.8398ZM120.736 44.8398C120.112 44.8398 119.61 45.341 119.61 45.9653C119.61 46.5897 120.112 47.0909 120.736 47.0909C121.36 47.0909 121.862 46.5897 121.862 45.9653C121.862 45.341 121.36 44.8398 120.736 44.8398Z" fill="#B4AEA8"/>
<path fill-rule="evenodd" clip-rule="evenodd" d="M131.253 16.2988C129.585 16.2988 128.238 17.6461 128.238 19.3137C128.238 20.9812 129.585 22.3285 131.253 22.3285C132.92 22.3285 134.268 20.9812 134.268 19.3137C134.268 17.6461 132.92 16.2988 131.253 16.2988ZM127.137 19.3137C127.137 17.0377 128.977 15.1973 131.253 15.1973C133.529 15.1973 135.369 17.0377 135.369 19.3137C135.369 21.5896 133.529 23.43 131.253 23.43C128.977 23.43 127.137 21.5896 127.137 19.3137ZM136.008 25.485C135.821 25.1577 135.446 24.9809 135.062 25.0484L134.96 25.0663L134.858 25.046C134.839 25.0422 134.805 25.0403 134.712 25.0403H127.769C127.723 25.0403 127.681 25.0445 127.598 25.0528L127.514 25.0612L127.443 25.0496C127.061 24.9877 126.686 25.1683 126.496 25.4964L121.649 33.884C121.398 34.3201 121.548 34.8783 121.981 35.1281C122.418 35.3796 122.976 35.2297 123.226 34.7962L128.222 26.1488V51.1392L128.23 51.1411C128.23 51.831 128.78 52.3813 129.47 52.3813C130.158 52.3813 130.71 51.8244 130.71 51.1411V36.5005H131.847L136.092 41.5764L137.636 50.4531C137.636 50.4528 137.636 50.4534 137.636 50.4531C137.756 51.1226 138.391 51.5653 139.054 51.4529C139.723 51.3327 140.164 50.6977 140.051 50.0347C140.051 50.0346 140.051 50.0349 140.051 50.0347L138.44 40.7878C138.396 40.5143 138.256 40.2683 138.048 40.0886L138.015 40.0596L134.259 35.5754V26.0895L139.28 34.7877C139.53 35.2212 140.088 35.3714 140.524 35.1199C140.958 34.8701 141.108 34.3123 140.857 33.8762M140.857 33.8762L136.008 25.485L140.857 33.8762ZM127.128 51.1595L127.12 51.1575V30.2572L124.18 35.3463C124.18 35.3464 124.18 35.3463 124.18 35.3463C123.625 36.3095 122.392 36.6361 121.431 36.0825C120.468 35.5272 120.141 34.2943 120.695 33.3338L125.543 24.9451C125.948 24.2439 126.735 23.8517 127.542 23.9513C127.607 23.9451 127.685 23.9388 127.769 23.9388H134.712C134.716 23.9388 134.72 23.9388 134.724 23.9387C134.779 23.9387 134.867 23.9385 134.965 23.9492C135.765 23.8467 136.558 24.2266 136.964 24.9384C136.964 24.9389 136.965 24.9395 136.965 24.94L141.81 33.3251C142.364 34.2856 142.038 35.519 141.075 36.0742C140.114 36.6279 138.881 36.3014 138.326 35.3384C138.326 35.3383 138.326 35.3385 138.326 35.3384L135.361 30.2014V35.1751L138.804 39.2868C139.184 39.6294 139.442 40.0926 139.527 40.6073C139.527 40.6083 139.527 40.6093 139.527 40.6103L141.137 49.8488C141.352 51.1076 140.513 52.312 139.245 52.5378L139.241 52.5384C137.982 52.7536 136.778 51.9144 136.552 50.6461L136.552 50.644L135.057 42.0563L131.812 38.1755V51.1411C131.812 52.4295 130.77 53.4829 129.47 53.4829C128.178 53.4829 127.138 52.4492 127.128 51.1595Z" fill="#B4AEA8"/>
<path fill-rule="evenodd" clip-rule="evenodd" d="M135.252 94.5073C133.436 94.5073 131.958 95.9849 131.958 97.8014C131.958 99.6179 133.436 101.095 135.252 101.095C137.069 101.095 138.546 99.6179 138.546 97.8014C138.546 95.9849 137.069 94.5073 135.252 94.5073ZM130.857 97.8014C130.857 95.3765 132.827 93.4058 135.252 93.4058C137.677 93.4058 139.648 95.3765 139.648 97.8014C139.648 100.226 137.677 102.197 135.252 102.197C132.827 102.197 130.857 100.226 130.857 97.8014ZM139.805 103.498C138.239 102.84 136.434 103.573 135.777 105.136L135.766 105.163L132.333 111.356L126.681 112.757C126.681 112.758 126.68 112.758 126.68 112.758C126.125 112.9 125.794 113.458 125.932 114.001C126.074 114.557 126.632 114.889 127.176 114.75L127.18 114.75L133.197 113.256C133.336 113.224 133.467 113.16 133.587 113.063L133.605 113.048L133.624 113.036C133.776 112.932 133.892 112.805 133.966 112.67L133.969 112.663L136.222 108.605L140.35 118.976C140.35 118.976 140.35 118.976 140.35 118.976M139.805 103.498C140.565 103.82 141.157 104.426 141.465 105.195C141.465 105.195 141.465 105.195 141.465 105.195L145.775 116.03C145.775 116.03 145.775 116.03 145.775 116.03C146.25 117.23 145.927 118.605 144.964 119.458L144.935 119.484L138.891 126.581V135.801C138.891 136.678 138.181 137.388 137.304 137.388C136.525 137.388 135.878 136.828 135.743 136.088V126.061C135.758 125.638 135.905 125.235 136.167 124.912M134.641 135.25V126.043L134.641 126.034C134.662 125.374 134.893 124.731 135.317 124.212L135.324 124.203L139.36 119.466C139.348 119.439 139.338 119.412 139.327 119.385L136.058 111.17L134.934 113.195C134.769 113.499 134.531 113.746 134.262 113.934C134.024 114.121 133.75 114.258 133.45 114.328L127.449 115.818C127.448 115.818 127.447 115.818 127.447 115.818C126.302 116.109 125.154 115.407 124.865 114.274C124.573 113.128 125.275 111.979 126.409 111.69L126.413 111.689L131.602 110.402L134.774 104.68C135.678 102.573 138.119 101.594 140.233 102.483L140.234 102.484C141.267 102.921 142.071 103.746 142.488 104.786L146.798 115.624C147.438 117.238 147.015 119.09 145.725 120.256L139.993 126.987V135.801C139.993 137.286 138.789 138.49 137.304 138.49C135.819 138.49 134.615 137.286 134.615 135.801V135.25H134.641Z" fill="#B4AEA8"/>
<path d="M151.26 123.551C149.769 123.551 148.562 122.344 148.562 120.853C148.562 120.465 148.64 120.086 148.803 119.741L148.476 119.172H122.726L122.398 119.741C123.01 121.103 122.407 122.698 121.053 123.31C119.691 123.922 118.097 123.318 117.485 121.965C117.329 121.62 117.243 121.241 117.243 120.853C117.243 119.456 118.304 118.293 119.691 118.163L120.338 117.043C120.416 116.913 120.502 116.793 120.614 116.698C120.907 116.275 121.39 116.025 121.898 116.025H149.312C149.846 116.025 150.346 116.293 150.631 116.741C150.734 116.844 150.821 116.956 150.898 117.077L151.519 118.163C153.002 118.301 154.096 119.62 153.959 121.103C153.829 122.491 152.665 123.551 151.269 123.551H151.26ZM151.26 119.81C150.683 119.81 150.217 120.275 150.217 120.853C150.217 121.43 150.683 121.896 151.26 121.896C151.838 121.896 152.303 121.43 152.303 120.853C152.303 120.275 151.838 119.818 151.26 119.818V119.81ZM119.933 119.81C119.355 119.81 118.89 120.275 118.89 120.844C118.89 121.422 119.355 121.887 119.924 121.887C120.493 121.887 120.967 121.422 120.967 120.853C120.967 120.275 120.502 119.818 119.933 119.81Z" fill="#B4AEA8"/>
<path d="M40.406 54.0943C38.8944 54.0943 37.6729 52.8728 37.6729 51.3612C37.6729 50.1168 38.5126 49.0251 39.7189 48.7121L42.6505 32.2294C42.6658 32.1531 42.6887 32.0844 42.7192 32.008C42.8642 31.5423 43.2994 31.2217 43.788 31.2217H51.4988C51.9874 31.2217 52.4225 31.5347 52.5752 32.008C52.6057 32.0767 52.6286 32.1531 52.6439 32.2294L56.1786 52.0788C56.2855 52.6896 55.8809 53.2774 55.2625 53.3843C55.1938 53.3996 55.1327 53.3996 55.064 53.3996C54.5143 53.3996 54.0486 53.0102 53.957 52.4682L51.4224 38.2453H43.872L41.9405 49.0785C43.1925 49.9259 43.5208 51.6208 42.681 52.8728C42.1695 53.6286 41.3221 54.0791 40.4136 54.0791L40.406 54.0943ZM40.406 49.6969C39.4898 49.6969 38.7493 50.4374 38.7493 51.3536C38.7493 52.2697 39.4898 53.0102 40.406 53.0102C41.3221 53.0102 42.0626 52.2697 42.0626 51.3536C42.0626 50.4374 41.3221 49.6969 40.406 49.6969ZM44.7194 33.4814L44.269 36.0008H51.0178L50.5674 33.4814H44.7194Z" fill="#B4AEA8"/>
<path fill-rule="evenodd" clip-rule="evenodd" d="M54.5053 15.6946C53.0535 15.6946 51.8801 16.868 51.8801 18.3197C51.8801 19.7715 53.0535 20.9449 54.5053 20.9449C55.957 20.9449 57.1304 19.7715 57.1304 18.3197C57.1304 16.868 55.957 15.6946 54.5053 15.6946ZM50.7786 18.3197C50.7786 16.2596 52.4452 14.5931 54.5053 14.5931C56.5654 14.5931 58.2319 16.2596 58.2319 18.3197C58.2319 20.3798 56.5654 22.0464 54.5053 22.0464C52.4452 22.0464 50.7786 20.3798 50.7786 18.3197ZM59.1539 22.3847C57.8534 21.8387 56.3599 22.4487 55.8143 23.7407L55.7968 23.7821L52.5112 28.9937H46.4052C46.1062 28.9937 45.8642 29.2357 45.8642 29.5347C45.8642 29.8336 46.1062 30.0756 46.4052 30.0756H52.7646C52.8967 30.0756 53.0267 30.026 53.125 29.939L53.1439 29.9223L53.1642 29.9074C53.2211 29.8657 53.2652 29.8185 53.3053 29.7543L53.3062 29.7528L55.8204 25.7575L60.4484 35.9374C60.4947 36.0354 60.5548 36.1383 60.6238 36.2387L60.8209 36.5253L58.1077 41.2162C58.0119 41.3759 57.9525 41.5521 57.9306 41.7435L57.9261 41.7829L57.9161 41.8212C57.8921 41.9121 57.8808 42.0089 57.8808 42.1238V51.1476L57.9037 51.1553V51.5523C57.9037 52.2482 58.474 52.8185 59.1699 52.8185C59.8673 52.8185 60.4361 52.2543 60.4361 51.5523V42.8106L60.4943 42.6944C60.507 42.6689 60.5233 42.6409 60.5288 42.6315L60.5401 42.6122L60.5436 42.6065L64.1937 36.2815C64.2272 36.2196 64.2568 36.1549 64.295 36.0708L64.3297 35.9947L64.3854 35.9322C65.0551 35.1811 65.2139 34.1013 64.7986 33.1821C64.7986 33.182 64.7987 33.1823 64.7986 33.1821L60.4779 23.678L60.4773 23.6767C60.2142 23.0942 59.7449 22.6365 59.1539 22.3847ZM54.818 23.2692C55.6153 21.4456 57.7364 20.594 59.5818 21.3696L59.584 21.3706C60.4275 21.7295 61.1027 22.3859 61.4808 23.2225C61.4807 23.2223 61.4809 23.2228 61.4808 23.2225L65.8022 32.728C66.3826 34.0119 66.18 35.5227 65.2643 36.6001C65.2339 36.6658 65.1987 36.7395 65.1578 36.8144L65.1515 36.8261L61.5376 43.0877V51.5523C61.5376 52.8657 60.4727 53.92 59.1699 53.92C58.005 53.92 57.0321 53.0716 56.8376 51.9611L56.7792 51.9416V42.1238C56.7792 41.9458 56.796 41.7653 56.841 41.5798C56.8835 41.2523 56.9898 40.9395 57.1607 40.6534L59.5291 36.5587C59.5013 36.5077 59.4749 36.4559 59.4503 36.4035L59.4472 36.3969L55.6637 28.0746L54.2394 30.3381C54.2392 30.3384 54.239 30.3387 54.2388 30.339C54.1308 30.5116 53.9983 30.6578 53.8357 30.7807C53.5396 31.0345 53.1584 31.1771 52.7646 31.1771H46.4052C45.4979 31.1771 44.7627 30.442 44.7627 29.5347C44.7627 28.6274 45.4979 27.8922 46.4052 27.8922H51.9035L54.818 23.2692Z" fill="#B4AEA8"/>
<g clip-path="url(#clip0_2149_14803)">
<path fill-rule="evenodd" clip-rule="evenodd" d="M50.3318 94.8017C50.0782 94.8017 49.831 94.826 49.5924 94.8724L49.3825 93.791C49.69 93.7313 50.0074 93.7001 50.3318 93.7001C50.6562 93.7001 50.9737 93.7313 51.2812 93.791L51.0712 94.8724C50.8326 94.826 50.5855 94.8017 50.3318 94.8017ZM53.4852 96.4633C53.2079 96.0543 52.851 95.7022 52.4362 95.4288L53.0424 94.509C53.5774 94.8617 54.0382 95.3161 54.3969 95.8451L53.4852 96.4633ZM48.2275 95.4288C47.8126 95.7022 47.4558 96.0543 47.1785 96.4633L46.2667 95.8451C46.6254 95.3161 47.0862 94.8617 47.6213 94.509L48.2275 95.4288ZM54.1256 98.5547C54.1256 98.3021 54.1006 98.056 54.0532 97.8185L55.1334 97.6027C55.1949 97.9109 55.2271 98.2293 55.2271 98.5547C55.2271 98.8801 55.1948 99.1985 55.133 99.5067L54.0529 99.2901C54.1005 99.0528 54.1256 98.807 54.1256 98.5547ZM46.6104 97.8185C46.563 98.056 46.538 98.3021 46.538 98.5547C46.538 98.8073 46.563 99.0534 46.6104 99.2909L45.5303 99.5066C45.4687 99.1984 45.4365 98.8801 45.4365 98.5547C45.4365 98.2293 45.4687 97.9109 45.5303 97.6027L46.6104 97.8185ZM52.4343 101.679C52.8489 101.405 53.206 101.053 53.4837 100.644L54.3949 101.263C54.0359 101.792 53.5752 102.246 53.0411 102.598L52.4343 101.679ZM47.1785 100.646C47.4558 101.055 47.8126 101.407 48.2275 101.681L47.6213 102.6C47.0862 102.248 46.6254 101.793 46.2667 101.264L47.1785 100.646ZM50.3318 102.308C50.5849 102.308 50.8317 102.283 51.0703 102.237L51.2814 103.318C50.9737 103.378 50.6561 103.409 50.3318 103.409C50.0074 103.409 49.69 103.378 49.3825 103.318L49.5924 102.237C49.831 102.283 50.0782 102.308 50.3318 102.308Z" fill="#5DB0BF"/>
<path fill-rule="evenodd" clip-rule="evenodd" d="M50.3105 105.237C50.0464 105.237 49.7888 105.263 49.5398 105.312L49.3281 104.231C49.6464 104.168 49.975 104.136 50.3105 104.136C50.6461 104.136 50.9746 104.168 51.2929 104.23L51.0821 105.311C50.8329 105.263 50.5749 105.237 50.3105 105.237ZM53.6031 106.974C53.3131 106.547 52.9401 106.179 52.5071 105.894L53.1137 104.974C53.6665 105.339 54.1431 105.809 54.5144 106.355L53.6031 106.974ZM48.1159 105.895C47.683 106.181 47.3101 106.549 47.0199 106.976L46.1089 106.357C46.4801 105.811 46.9563 105.341 47.5085 104.976L48.1159 105.895ZM46.4242 108.39C46.3743 108.638 46.3481 108.894 46.3481 109.157V109.74H45.2465V109.157C45.2465 108.821 45.2802 108.491 45.3444 108.172L46.4242 108.39ZM54.273 109.157C54.273 108.894 54.2469 108.637 54.1972 108.389L55.2773 108.173C55.3412 108.491 55.3746 108.821 55.3746 109.157V110.087H54.273V109.157ZM46.3481 110.905V111.717L45.2517 112.803L44.4765 112.02L45.2465 111.257V110.905H46.3481ZM54.273 113.806V111.947H55.3746V113.806H54.273ZM43.3852 114.652L42.452 115.576L41.6768 114.794L42.61 113.869L43.3852 114.652ZM54.273 117.525V115.665H55.3746V117.525H54.273ZM54.273 119.384H55.3746V119.763H56.0035V120.865H54.273V119.384ZM60.7224 120.865H58.363V119.763H60.7224V120.865ZM64.2616 120.865H63.0818V119.763H64.2616C64.4564 119.763 64.6469 119.781 64.832 119.815L64.6335 120.898C64.5131 120.876 64.3889 120.865 64.2616 120.865ZM65.6371 121.375C65.5418 121.296 65.4409 121.225 65.3352 121.163L65.895 120.214C66.0579 120.31 66.2115 120.419 66.3549 120.539L66.3726 120.554L66.3891 120.57C66.3782 120.559 66.3689 120.551 66.3631 120.547L65.6705 121.403C65.6606 121.395 65.6493 121.386 65.6371 121.375ZM65.6771 121.405C65.688 121.416 65.6973 121.424 65.7031 121.428L66.3958 120.572C66.4066 120.581 66.4192 120.591 66.4328 120.604C66.4519 120.62 66.4708 120.637 66.4894 120.654L65.7461 121.467C65.7342 121.456 65.7216 121.445 65.7083 121.434L65.6922 121.42L65.6771 121.405ZM65.8486 121.573C65.8372 121.559 65.826 121.547 65.815 121.535L66.6209 120.784C66.6358 120.8 66.6504 120.816 66.6649 120.833C66.6692 120.837 66.6742 120.841 66.6801 120.847L66.6787 120.848C66.6797 120.85 66.6806 120.851 66.6816 120.852L66.6511 120.878L65.9307 121.654C65.9159 121.64 65.8973 121.623 65.8775 121.603L65.8625 121.589L65.8486 121.573ZM66.0005 121.722C65.9976 121.718 65.9942 121.715 65.9899 121.71L66.782 120.945C66.802 120.965 66.8231 120.989 66.8447 121.014L66.8485 121.019L67.5357 121.854L66.6852 122.554L66.0018 121.723C66.0014 121.723 66.0009 121.722 66.0005 121.722ZM46.3481 121.16C46.3481 121.318 46.3589 121.474 46.3794 121.627L45.2876 121.774C45.2608 121.573 45.2465 121.368 45.2465 121.16H46.3481ZM46.6218 122.544C46.6809 122.694 46.7485 122.84 46.8234 122.984L46.8734 123.08L46.8835 123.188C46.9085 123.456 46.9832 123.71 47.0984 123.939L46.114 124.433C45.9541 124.115 45.8456 123.766 45.7988 123.399C45.7258 123.253 45.6582 123.103 45.5972 122.948L46.6218 122.544ZM69.434 125.893L68.0596 124.223L68.9101 123.523L70.2844 125.193L69.434 125.893ZM48.24 124.97C48.478 125.061 48.7383 125.111 49.0135 125.111H50.1787V126.213H49.0135C48.6029 126.213 48.2097 126.138 47.8475 126L48.24 124.97ZM52.5092 125.111H54.8396V126.213H52.5092V125.111ZM57.1701 125.111H59.5005V126.213H57.1701V125.111ZM61.8309 125.111H63.2562L64.0454 126.07L63.1948 126.77L62.7361 126.213H61.8309V125.111ZM72.1827 129.232L70.8083 127.563L71.6588 126.863L73.0331 128.532L72.1827 129.232ZM65.2932 127.587L66.541 129.103L65.6904 129.803L64.4426 128.287L65.2932 127.587ZM74.2442 131.737L73.557 130.902L74.4075 130.202L75.0945 131.036C75.0944 131.036 75.0945 131.036 75.0945 131.036M67.7888 130.62L69.0366 132.136L68.1861 132.836L66.9382 131.32L67.7888 130.62ZM70.2845 133.653L70.9097 134.412C71.0931 134.637 71.313 134.814 71.5542 134.942L71.036 135.914C70.6693 135.719 70.3349 135.45 70.057 135.11C70.0568 135.109 70.0571 135.11 70.057 135.11L69.4339 134.352L70.2845 133.653ZM73.9329 134.719C74.1574 134.537 74.3346 134.32 74.4637 134.082L75.4319 134.608C75.2349 134.97 74.965 135.301 74.6257 135.575C74.285 135.851 73.903 136.047 73.5043 136.164L73.1926 135.108C73.4558 135.03 73.7076 134.901 73.9329 134.719Z" fill="#5DB0BF"/>
<path d="M74.9525 137.612H68.0772C68.0139 137.487 67.9401 137.372 67.8557 137.257L61.2756 129.141C61.1175 128.942 60.9171 128.786 60.7062 128.671C60.5164 128.535 60.3055 128.441 60.0735 128.389V120.387C60.0735 120.011 59.8415 119.687 59.5146 119.541C59.4092 119.499 59.2826 119.468 59.1561 119.468H42.3579L39.205 108.75C38.8254 107.476 37.4861 106.744 36.1891 107.11C36.052 107.152 35.9149 107.204 35.799 107.267L34.7866 103.82C34.6601 103.391 34.2699 103.13 33.8481 103.12C33.8165 103.12 33.7954 103.099 33.7638 103.099H29.8621C29.3138 103.099 28.8604 103.537 28.8604 104.091C28.8604 104.645 29.3032 105.083 29.8621 105.083H33.0467L34.5019 110.045C34.5019 110.045 34.5019 110.077 34.5019 110.098L38.1927 122.654C33.6056 123.928 30.2945 128.148 30.4421 133.079C30.6214 138.887 35.5037 143.452 41.3667 143.274C47.2297 143.097 51.8379 138.26 51.6586 132.452C51.6586 132.316 51.6375 132.191 51.627 132.055H58.1965V137.372C56.9311 137.769 56.0242 138.95 56.0559 140.339C56.1086 142.01 57.5111 143.326 59.2088 143.274C60.896 143.222 62.2247 141.822 62.172 140.151C62.1298 138.835 61.244 137.748 60.0313 137.362V133.601L64.882 139.587C65.23 140.015 65.7256 140.245 66.2318 140.276C66.2529 140.276 66.2634 140.276 66.2845 140.276H74.9314C75.6801 140.276 76.2812 139.67 76.2812 138.939C76.2812 138.208 75.6695 137.602 74.9314 137.602L74.9525 137.612ZM41.2929 140.14C37.1803 140.266 33.7532 137.059 33.6267 132.985C33.5212 129.517 35.8517 126.54 39.089 125.662L40.0908 129.057C38.3825 129.496 37.1382 131.063 37.1909 132.891C37.2542 135.011 39.0468 136.683 41.1874 136.62C43.3281 136.557 45.0153 134.782 44.952 132.661C44.952 132.463 44.9098 132.264 44.8782 132.066H48.4846C48.4951 132.222 48.5162 132.389 48.5267 132.546C48.6533 136.62 45.416 140.015 41.3034 140.14H41.2929ZM44.2877 126.122C45.3633 126.634 46.2912 127.396 47.0083 128.326H44.9415L44.2982 126.122H44.2877ZM50.6885 128.326C49.286 125.349 46.5232 123.155 43.2226 122.476L42.8746 121.285H58.2176V128.315H50.6885V128.326ZM60.432 140.214C60.4531 140.924 59.8942 141.509 59.1772 141.53C58.4601 141.551 57.8696 140.997 57.8485 140.287C57.8274 139.576 58.3863 138.991 59.1034 138.97C59.8204 138.95 60.4109 139.503 60.432 140.214Z" fill="#FD8106"/>
<path d="M48.5054 132.546C48.6319 136.62 45.3946 140.015 41.2821 140.14C37.1695 140.266 33.7424 137.059 33.6159 132.985C33.4894 128.911 36.7267 125.516 40.8392 125.391C44.9517 125.265 48.3789 128.472 48.5054 132.546Z" fill="white"/>
<path d="M44.2872 132.671C44.3399 134.437 42.9374 135.899 41.1659 135.952C39.3838 136.004 37.9075 134.614 37.8442 132.859C37.7915 131.094 39.194 129.632 40.9655 129.569C42.7476 129.517 44.2239 130.906 44.2872 132.661" fill="#27BC96"/>
<path fill-rule="evenodd" clip-rule="evenodd" d="M48.0036 114.136L47.6029 114.829L46.6491 114.278L47.0498 113.585L48.0036 114.136ZM46.4747 116.782L46.8015 116.217L45.8477 115.665L45.3731 116.487V117.853H46.4747V116.782ZM46.4747 120.291V122.729H45.3731V120.291H46.4747ZM46.4747 125.166V126.385C46.4747 126.72 46.4053 127.04 46.2798 127.331L45.2682 126.895C45.3357 126.738 45.3731 126.566 45.3731 126.385V125.166H46.4747ZM41.7085 127.331C41.583 127.04 41.5137 126.72 41.5137 126.385H42.6152C42.6152 126.566 42.6526 126.738 42.7202 126.895L41.7085 127.331ZM43.9942 128.819C43.6643 128.819 43.348 128.756 43.0584 128.64L43.468 127.617C43.6293 127.682 43.8067 127.718 43.9942 127.718C44.1816 127.718 44.359 127.682 44.5203 127.617L44.93 128.64C44.6403 128.756 44.324 128.819 43.9942 128.819Z" fill="#5DB0BF"/>
<path fill-rule="evenodd" clip-rule="evenodd" d="M41.5137 116.107V115.086H42.6152V116.107H41.5137ZM41.5137 120.192V118.15H42.6152V120.192H41.5137ZM41.5137 124.278V122.235H42.6152V124.278H41.5137ZM41.5137 127.342V126.32H42.6152V127.342H41.5137Z" fill="#5DB0BF"/>
</g>
<defs>
<filter id="filter0_d_2149_14803" x="95.1045" y="0.326996" width="83.1162" height="83.1163" filterUnits="userSpaceOnUse" color-interpolation-filters="sRGB">
<feFlood flood-opacity="0" result="BackgroundImageFix"/>
<feColorMatrix in="SourceAlpha" type="matrix" values="0 0 0 0 0 0 0 0 0 0 0 0 0 0 0 0 0 0 127 0" result="hardAlpha"/>
<feOffset dx="4" dy="4"/>
<feGaussianBlur stdDeviation="2"/>
<feComposite in2="hardAlpha" operator="out"/>
<feColorMatrix type="matrix" values="0 0 0 0 0 0 0 0 0 0 0 0 0 0 0 0 0 0 0.05 0"/>
<feBlend mode="normal" in2="BackgroundImageFix" result="effect1_dropShadow_2149_14803"/>
<feBlend mode="normal" in="SourceGraphic" in2="effect1_dropShadow_2149_14803" result="shape"/>
</filter>
<filter id="filter1_d_2149_14803" x="95.1045" y="80.9782" width="83.1162" height="83.1163" filterUnits="userSpaceOnUse" color-interpolation-filters="sRGB">
<feFlood flood-opacity="0" result="BackgroundImageFix"/>
<feColorMatrix in="SourceAlpha" type="matrix" values="0 0 0 0 0 0 0 0 0 0 0 0 0 0 0 0 0 0 127 0" result="hardAlpha"/>
<feOffset dx="4" dy="4"/>
<feGaussianBlur stdDeviation="2"/>
<feComposite in2="hardAlpha" operator="out"/>
<feColorMatrix type="matrix" values="0 0 0 0 0 0 0 0 0 0 0 0 0 0 0 0 0 0 0.05 0"/>
<feBlend mode="normal" in2="BackgroundImageFix" result="effect1_dropShadow_2149_14803"/>
<feBlend mode="normal" in="SourceGraphic" in2="effect1_dropShadow_2149_14803" result="shape"/>
</filter>
<filter id="filter2_d_2149_14803" x="14.4531" y="0.326996" width="83.1162" height="83.1163" filterUnits="userSpaceOnUse" color-interpolation-filters="sRGB">
<feFlood flood-opacity="0" result="BackgroundImageFix"/>
<feColorMatrix in="SourceAlpha" type="matrix" values="0 0 0 0 0 0 0 0 0 0 0 0 0 0 0 0 0 0 127 0" result="hardAlpha"/>
<feOffset dx="4" dy="4"/>
<feGaussianBlur stdDeviation="2"/>
<feComposite in2="hardAlpha" operator="out"/>
<feColorMatrix type="matrix" values="0 0 0 0 0 0 0 0 0 0 0 0 0 0 0 0 0 0 0.05 0"/>
<feBlend mode="normal" in2="BackgroundImageFix" result="effect1_dropShadow_2149_14803"/>
<feBlend mode="normal" in="SourceGraphic" in2="effect1_dropShadow_2149_14803" result="shape"/>
</filter>
<filter id="filter3_d_2149_14803" x="0.220703" y="55.6758" width="112.372" height="112.372" filterUnits="userSpaceOnUse" color-interpolation-filters="sRGB">
<feFlood flood-opacity="0" result="BackgroundImageFix"/>
<feColorMatrix in="SourceAlpha" type="matrix" values="0 0 0 0 0 0 0 0 0 0 0 0 0 0 0 0 0 0 127 0" result="hardAlpha"/>
<feOffset dx="4" dy="4"/>
<feGaussianBlur stdDeviation="2"/>
<feComposite in2="hardAlpha" operator="out"/>
<feColorMatrix type="matrix" values="0 0 0 0 0 0 0 0 0 0 0 0 0 0 0 0 0 0 0.1 0"/>
<feBlend mode="normal" in2="BackgroundImageFix" result="effect1_dropShadow_2149_14803"/>
<feBlend mode="normal" in="SourceGraphic" in2="effect1_dropShadow_2149_14803" result="shape"/>
</filter>
<filter id="filter4_d_2149_14803" x="0.220703" y="55.6758" width="112.372" height="112.372" filterUnits="userSpaceOnUse" color-interpolation-filters="sRGB">
<feFlood flood-opacity="0" result="BackgroundImageFix"/>
<feColorMatrix in="SourceAlpha" type="matrix" values="0 0 0 0 0 0 0 0 0 0 0 0 0 0 0 0 0 0 127 0" result="hardAlpha"/>
<feOffset dx="4" dy="4"/>
<feGaussianBlur stdDeviation="2"/>
<feComposite in2="hardAlpha" operator="out"/>
<feColorMatrix type="matrix" values="0 0 0 0 0 0 0 0 0 0 0 0 0 0 0 0 0 0 0.1 0"/>
<feBlend mode="normal" in2="BackgroundImageFix" result="effect1_dropShadow_2149_14803"/>
<feBlend mode="normal" in="SourceGraphic" in2="effect1_dropShadow_2149_14803" result="shape"/>
</filter>
<clipPath id="clip0_2149_14803">
<rect width="47.4419" height="49.0233" fill="white" transform="translate(28.8604 94.2509)"/>
</clipPath>
</defs>
</svg>
