<svg width="246" height="97" viewBox="0 0 246 97" fill="none" xmlns="http://www.w3.org/2000/svg">
<g filter="url(#filter0_d_518_4416)">
<rect x="4.69385" y="4.21344" width="111.02" height="79.5732" rx="16.4068" fill="white" shape-rendering="crispEdges"/>
<path d="M19.4108 18.1895V19.6464H23.6241V18.1895H19.4108ZM22.0195 22.2551H25.5535V23.0918H17.5011V22.2551H21.0056V20.4635H18.4067V15.8761H19.4108V17.3724H23.6241V15.8761H24.6282V20.4635H22.0195V22.2551ZM30.5634 16.4274C29.2837 16.4274 28.4469 16.8605 28.4469 17.5693C28.4469 18.2879 29.2837 18.7211 30.5634 18.7211C31.8333 18.7211 32.6701 18.2879 32.6701 17.5693C32.6701 16.8605 31.8333 16.4274 30.5634 16.4274ZM30.5634 19.5381C28.6832 19.5381 27.4035 18.7703 27.4035 17.5693C27.4035 16.3782 28.6832 15.6103 30.5634 15.6103C32.4338 15.6103 33.7135 16.3782 33.7135 17.5693C33.7135 18.7703 32.4338 19.5381 30.5634 19.5381ZM34.6094 20.2961L34.6192 21.1329H32.611V24.1747H31.5774V21.1329H29.5495V24.1747H28.5159V21.1329H26.547V20.2961H34.6094ZM36.3707 18.9376L36.0064 18.1402C37.6504 17.9729 38.7923 17.2838 38.9301 16.4864H36.351V15.6694H42.917V16.4864H40.3182C40.456 17.2838 41.5979 17.9729 43.2419 18.1402L42.8875 18.9376C41.3223 18.7703 40.1016 18.1304 39.6291 17.2149C39.1467 18.1304 37.926 18.7703 36.3707 18.9376ZM41.6471 22.5996C41.6471 22.068 40.9088 21.7924 39.6094 21.7924C38.31 21.7924 37.5815 22.068 37.5815 22.5996C37.5815 23.1115 38.31 23.397 39.6094 23.397C40.9088 23.397 41.6471 23.1115 41.6471 22.5996ZM43.6455 20.1977H40.1311V21.0246C41.7357 21.123 42.6709 21.6743 42.6709 22.5996C42.6709 23.6037 41.529 24.1747 39.6094 24.1747C37.6996 24.1747 36.5479 23.6037 36.5479 22.5996C36.5479 21.6743 37.5027 21.1132 39.1172 21.0147V20.1977H35.6028V19.3904H43.6455V20.1977Z" fill="#333333" fill-opacity="0.8"/>
<path d="M22.2361 48.1531V48.8225C22.2361 50.7913 23.2074 52.8782 25.2287 53.7183L24.2837 55.0833C22.8792 54.4796 21.9211 53.2983 21.3829 51.8413C20.8448 53.4164 19.8735 54.7421 18.456 55.3852L17.4715 54.007C19.4929 53.1014 20.4773 50.8832 20.4773 48.8225V48.1531H17.9572V46.7224H24.7299V48.1531H22.2361ZM25.8456 45.5674H27.5782V57.6559H25.8456V45.5674ZM32.4992 47.8512V50.9226C32.9061 50.9094 33.313 50.8963 33.7198 50.8832V47.8512H32.4992ZM36.7518 50.6338L36.87 51.8938C34.4811 52.327 31.751 52.3795 29.756 52.3795L29.5722 50.9619C29.966 50.9619 30.386 50.9619 30.8322 50.9619V47.8512H29.8872V46.473H36.3318V47.8512H35.3737V50.765C35.8462 50.7257 36.3056 50.6863 36.7518 50.6338ZM35.1636 56.3302C36.7387 56.3302 37.5394 56.0152 37.5394 55.3721C37.5394 54.7158 36.7387 54.4139 35.1636 54.4139C33.6148 54.4139 32.8142 54.7158 32.8142 55.3721C32.8142 56.0152 33.6148 56.3302 35.1636 56.3302ZM35.1636 53.062C37.6969 53.062 39.2719 53.9152 39.2719 55.3721C39.2719 56.8159 37.6969 57.6559 35.1636 57.6559C32.6567 57.6559 31.0816 56.8159 31.0816 55.3721C31.0816 53.9152 32.6567 53.062 35.1636 53.062ZM39.1538 48.4287H40.7551V49.8463H39.1538V52.8651H37.4212V45.5674H39.1538V48.4287ZM49.9944 45.5542H51.727V57.6822H49.9944V45.5542ZM45.2299 46.4074C47.0543 46.4074 48.4062 48.0612 48.4062 50.7125C48.4062 53.377 47.0543 55.044 45.2299 55.044C43.4054 55.044 42.0535 53.377 42.0535 50.7125C42.0535 48.0612 43.4054 46.4074 45.2299 46.4074ZM45.2299 47.9693C44.3373 47.9693 43.7204 48.9275 43.7204 50.7125C43.7204 52.5107 44.3373 53.4689 45.2299 53.4689C46.1224 53.4689 46.7393 52.5107 46.7393 50.7125C46.7393 48.9275 46.1224 47.9693 45.2299 47.9693Z" fill="#333333" fill-opacity="0.5"/>
<path fill-rule="evenodd" clip-rule="evenodd" d="M80.2159 50.7379H74.0319C73.3884 50.7379 72.8667 51.2596 72.8667 51.9032C72.8667 52.5467 73.3884 53.0684 74.0319 53.0684H75.5236V74.4722C75.5236 75.1157 76.4068 75.6374 77.0503 75.6374C77.6939 75.6374 78.6744 75.1157 78.6744 74.4722V53.0684H80.2159C80.8594 53.0684 81.3811 52.5467 81.3811 51.9032C81.3811 51.2596 80.8594 50.7379 80.2159 50.7379Z" fill="url(#paint0_linear_518_4416)"/>
<path d="M99.8247 75.301L99.7171 74.9052L99.8247 75.301ZM96.3807 73.332L95.985 73.4398L95.985 73.4401L96.3807 73.332ZM101.794 71.857L101.398 71.9647L101.398 71.9649L101.794 71.857ZM98.6415 60.2807L98.2701 60.1066L98.2061 60.243L98.2457 60.3885L98.6415 60.2807ZM103.056 50.8661L103.428 51.0402L103.428 51.0402L103.056 50.8661ZM103.249 50.31L102.861 50.1787L102.855 50.1975L102.85 50.2167L103.249 50.31ZM102.177 45.5863L101.883 45.8726L101.883 45.8726L102.177 45.5863ZM93.1942 36.3706L93.488 36.0843L93.488 36.0843L93.1942 36.3706ZM86.6386 36.2858L86.3524 35.992L86.3523 35.9921L86.6386 36.2858ZM85.4702 38.1551L85.8416 38.3292L85.8522 38.3067L85.8599 38.2831L85.4702 38.1551ZM81.965 45.6302V46.0404H82.2257L82.3363 45.8043L81.965 45.6302ZM84.1053 48.8403L83.8911 48.4905L83.8725 48.5019L83.8553 48.5151L84.1053 48.8403ZM84.7921 48.0714L84.4207 47.8972L84.4206 47.8974L84.7921 48.0714ZM87.0206 43.319L87.3144 43.0327L86.9008 42.6083L86.6492 43.1448L87.0206 43.319ZM95.5379 52.0585L95.2441 52.3447L95.2443 52.3449L95.5379 52.0585ZM96.0783 52.5335L96.4497 52.7077L96.5913 52.4057L96.3245 52.2055L96.0783 52.5335ZM93.1321 58.8173L92.7607 58.6431L92.7607 58.6433L93.1321 58.8173ZM92.8946 60.3996L93.3025 60.3542L93.3007 60.3418L92.8946 60.3996ZM92.9765 60.8286L92.5807 60.9362L92.5807 60.9363L92.9765 60.8286ZM86.7407 31.4405C86.7407 31.1189 86.7127 30.8036 86.659 30.4969L85.8509 30.6385C85.8965 30.8987 85.9204 31.1666 85.9204 31.4405H86.7407ZM86.4142 29.5815C86.1951 28.9799 85.8729 28.4282 85.4692 27.9476L84.8411 28.4753C85.1842 28.8837 85.4576 29.3521 85.6433 29.8622L86.4142 29.5815ZM84.7997 27.2781C84.3192 26.8745 83.7675 26.5523 83.1658 26.3332L82.8851 27.104C83.3952 27.2898 83.8636 27.5632 84.2721 27.9063L84.7997 27.2781ZM82.2505 26.0884C81.9437 26.0347 81.6284 26.0067 81.3069 26.0067V26.827C81.5807 26.827 81.8487 26.8508 82.1089 26.8964L82.2505 26.0884ZM81.3069 26.0067C80.9854 26.0067 80.6701 26.0346 80.3633 26.0883L80.5048 26.8964C80.765 26.8508 81.033 26.827 81.3069 26.827V26.0067ZM79.4479 26.333C78.8462 26.5521 78.2944 26.8742 77.8139 27.2779L78.3415 27.906C78.7499 27.563 79.2183 27.2896 79.7285 27.1039L79.4479 26.333ZM77.1443 27.9474C76.7407 28.428 76.4185 28.9798 76.1995 29.5815L76.9704 29.8621C77.1561 29.3519 77.4294 28.8835 77.7725 28.475L77.1443 27.9474ZM75.9548 30.4969C75.9011 30.8036 75.8731 31.1189 75.8731 31.4405H76.6934C76.6934 31.1666 76.7173 30.8986 76.7628 30.6384L75.9548 30.4969ZM75.8731 31.4405C75.8731 31.762 75.9011 32.0773 75.9548 32.384L76.7628 32.2425C76.7173 31.9823 76.6934 31.7143 76.6934 31.4405H75.8731ZM76.1995 33.2994C76.4185 33.9011 76.7407 34.4529 77.1443 34.9335L77.7725 34.4059C77.4294 33.9974 77.1561 33.529 76.9704 33.0188L76.1995 33.2994ZM77.8139 35.603C78.2944 36.0067 78.8462 36.3288 79.4479 36.5479L79.7285 35.777C79.2183 35.5913 78.7499 35.3179 78.3415 34.9749L77.8139 35.603ZM80.3633 36.7926C80.6701 36.8463 80.9854 36.8743 81.3069 36.8743V36.0539C81.033 36.0539 80.765 36.0301 80.5048 35.9845L80.3633 36.7926ZM81.3069 36.8743C81.6284 36.8743 81.9437 36.8463 82.2505 36.7925L82.1089 35.9845C81.8487 36.0301 81.5807 36.0539 81.3069 36.0539V36.8743ZM83.1658 36.5477C83.7675 36.3286 84.3192 36.0064 84.7997 35.6028L84.2721 34.9746C83.8636 35.3177 83.3952 35.5911 82.8851 35.7769L83.1658 36.5477ZM85.4692 34.9333C85.8729 34.4527 86.1951 33.901 86.4142 33.2994L85.6433 33.0187C85.4576 33.5288 85.1842 33.9972 84.8411 34.4056L85.4692 34.9333ZM86.659 32.384C86.7127 32.0773 86.7407 31.762 86.7407 31.4405H85.9204C85.9204 31.7143 85.8965 31.9822 85.8509 32.2424L86.659 32.384ZM99.7171 74.9052C99.5095 74.9616 99.3016 74.9889 99.0973 74.9898L99.1009 75.8101C99.3761 75.8089 99.6552 75.7721 99.9323 75.6968L99.7171 74.9052ZM98.4777 74.9105C98.0716 74.803 97.6992 74.5901 97.4006 74.2947L96.8237 74.8779C97.2242 75.2741 97.7232 75.5594 98.2678 75.7035L98.4777 74.9105ZM97.0179 73.801C96.915 73.6245 96.8331 73.4314 96.7764 73.224L95.985 73.4401C96.0607 73.7171 96.1706 73.9763 96.3092 74.2141L97.0179 73.801ZM96.7765 73.2243L96.5495 72.3907L95.758 72.6062L95.985 73.4398L96.7765 73.2243ZM96.3226 71.5571L95.8687 69.89L95.0772 70.1055L95.5311 71.7727L96.3226 71.5571ZM95.6417 69.0565L95.1878 67.3893L94.3963 67.6048L94.8502 69.272L95.6417 69.0565ZM94.9609 66.5558L94.507 64.8886L93.7155 65.1041L94.1694 66.7713L94.9609 66.5558ZM94.28 64.0551L93.8261 62.388L93.0346 62.6035L93.4885 64.2706L94.28 64.0551ZM93.5992 61.5544L93.3722 60.7208L92.5807 60.9363L92.8077 61.7699L93.5992 61.5544ZM93.3723 60.721C93.3613 60.6806 93.3514 60.6402 93.3426 60.5998L92.5411 60.7743C92.5528 60.8283 92.566 60.8823 92.5807 60.9362L93.3723 60.721ZM93.3193 60.4774C93.3125 60.4363 93.3069 60.3952 93.3023 60.3542L92.487 60.445C92.4931 60.5001 92.5007 60.5553 92.5098 60.6104L93.3193 60.4774ZM93.3007 60.3418C93.2791 60.1902 93.272 60.036 93.2801 59.8814L92.4608 59.8387C92.45 60.0467 92.4596 60.2539 92.4886 60.4574L93.3007 60.3418ZM93.3485 59.426C93.3854 59.2794 93.4368 59.1339 93.5036 58.9912L92.7607 58.6433C92.6715 58.8337 92.6025 59.0288 92.5529 59.226L93.3485 59.426ZM93.5035 58.9914L93.8309 58.2932L93.0881 57.9449L92.7607 58.6431L93.5035 58.9914ZM94.1582 57.595L94.8129 56.1986L94.0702 55.8504L93.4155 57.2468L94.1582 57.595ZM95.1403 55.5004L95.795 54.104L95.0522 53.7558L94.3975 55.1522L95.1403 55.5004ZM96.1223 53.4059L96.4497 52.7077L95.7069 52.3594L95.3796 53.0576L96.1223 53.4059ZM96.3245 52.2055C96.1521 52.076 95.9871 51.9316 95.8315 51.7721L95.2443 52.3449C95.4294 52.5347 95.6261 52.707 95.8321 52.8616L96.3245 52.2055ZM95.8316 51.7722L95.2638 51.1895L94.6763 51.7621L95.2441 52.3447L95.8316 51.7722ZM94.696 50.6069L93.5604 49.4416L92.9729 50.0142L94.1085 51.1795L94.696 50.6069ZM92.9925 48.859L91.8569 47.6937L91.2694 48.2663L92.4051 49.4316L92.9925 48.859ZM91.2891 47.1111L90.1535 45.9458L89.566 46.5184L90.7016 47.6837L91.2891 47.1111ZM89.5856 45.3632L88.45 44.1979L87.8625 44.7705L88.9981 45.9358L89.5856 45.3632ZM87.8822 43.6153L87.3144 43.0327L86.7269 43.6052L87.2947 44.1879L87.8822 43.6153ZM86.6492 43.1448L86.2778 43.9369L87.0206 44.2852L87.392 43.4931L86.6492 43.1448ZM85.9064 44.729L85.1636 46.3131L85.9063 46.6614L86.6491 45.0772L85.9064 44.729ZM84.7921 47.1052L84.4207 47.8972L85.1635 48.2455L85.5349 47.4534L84.7921 47.1052ZM84.4206 47.8974C84.3816 47.9807 84.3356 48.0579 84.2837 48.1289L84.9461 48.613C85.029 48.4995 85.102 48.3767 85.1635 48.2453L84.4206 47.8974ZM84.1053 48.3288C84.039 48.3898 83.9672 48.4439 83.8911 48.4905L84.3196 49.19C84.4406 49.1159 84.5551 49.0298 84.6609 48.9323L84.1053 48.3288ZM83.8553 48.5151C83.7759 48.5762 83.6898 48.6287 83.5983 48.6715L83.9456 49.4147C84.0918 49.3464 84.2291 49.2626 84.3554 49.1654L83.8553 48.5151ZM83.3141 48.7679C83.2181 48.7891 83.1179 48.8004 83.0146 48.8004V49.6207C83.1777 49.6207 83.3372 49.6029 83.4909 49.569L83.3141 48.7679ZM83.0146 48.8004H82.1467V49.6207H83.0146V48.8004ZM81.2789 48.8004H79.5431V49.6207H81.2789V48.8004ZM78.6752 48.8004H76.9395V49.6207H78.6752V48.8004ZM76.0716 48.8004H75.2038V49.6207H76.0716V48.8004ZM75.2038 48.8004C74.9515 48.8004 74.7163 48.7332 74.5138 48.6161L74.1031 49.3262C74.4272 49.5136 74.8036 49.6207 75.2038 49.6207V48.8004ZM74.0081 48.1104C73.8909 47.9078 73.8237 47.6726 73.8237 47.4204H73.0034C73.0034 47.8206 73.1105 48.197 73.298 48.5211L74.0081 48.1104ZM73.8237 47.4204C73.8237 47.1681 73.8909 46.9329 74.0081 46.7304L73.298 46.3197C73.1105 46.6438 73.0034 47.0202 73.0034 47.4204H73.8237ZM74.5138 46.2247C74.7163 46.1076 74.9515 46.0404 75.2038 46.0404V45.22C74.8036 45.22 74.4272 45.3271 74.1031 45.5146L74.5138 46.2247ZM75.2038 46.0404H75.955V45.22H75.2038V46.0404ZM76.7062 46.0404H78.2087V45.22H76.7062V46.0404ZM78.96 46.0404H80.4625V45.22H78.96V46.0404ZM81.2137 46.0404H81.965V45.22H81.2137V46.0404ZM82.3363 45.8043L82.7258 44.9738L81.9831 44.6255L81.5936 45.4561L82.3363 45.8043ZM83.1153 44.1432L83.8942 42.4821L83.1515 42.1338L82.3725 43.7949L83.1153 44.1432ZM84.2837 41.6515L85.0626 39.9904L84.3199 39.6421L83.541 41.3032L84.2837 41.6515ZM85.4521 39.1598L85.8416 38.3292L85.0989 37.981L84.7094 38.8115L85.4521 39.1598ZM85.8599 38.2831C85.9298 38.0703 86.017 37.8621 86.1215 37.6606L85.3932 37.283C85.2683 37.5239 85.164 37.7729 85.0805 38.0271L85.8599 38.2831ZM86.4795 37.0883C86.612 36.9101 86.7605 36.7399 86.9249 36.5795L86.3523 35.9921C86.1566 36.1829 85.9796 36.3858 85.8212 36.5987L86.4795 37.0883ZM86.9248 36.5796C87.1046 36.4046 87.2956 36.249 87.4955 36.1125L87.033 35.435C86.7941 35.598 86.5663 35.7837 86.3524 35.992L86.9248 36.5796ZM88.1374 35.7525C88.5908 35.5482 89.0728 35.4281 89.56 35.392L89.4995 34.5739C88.9183 34.617 88.3426 34.7603 87.8004 35.0046L88.1374 35.7525ZM90.297 35.4015C90.7832 35.4501 91.2619 35.5827 91.7099 35.7986L92.066 35.0596C91.5304 34.8014 90.9585 34.6432 90.3786 34.5853L90.297 35.4015ZM92.3422 36.1751C92.5384 36.3166 92.7254 36.4772 92.9005 36.6569L93.488 36.0843C93.2796 35.8705 93.0566 35.6789 92.8221 35.5098L92.3422 36.1751ZM92.9005 36.6569L93.4994 37.2712L94.0868 36.6986L93.488 36.0843L92.9005 36.6569ZM94.0982 37.8856L95.2959 39.1144L95.8833 38.5418L94.6857 37.313L94.0982 37.8856ZM95.8947 39.7288L97.0924 40.9575L97.6799 40.3849L96.4822 39.1562L95.8947 39.7288ZM97.6913 41.5719L98.889 42.8007L99.4764 42.2281L98.2787 40.9993L97.6913 41.5719ZM99.4878 43.415L100.685 44.6438L101.273 44.0712L100.075 42.8425L99.4878 43.415ZM101.284 45.2582L101.883 45.8726L102.471 45.3L101.872 44.6856L101.284 45.2582ZM101.883 45.8726C102.067 46.0613 102.23 46.2625 102.371 46.4733L103.052 46.0164C102.883 45.7645 102.69 45.5245 102.471 45.3L101.883 45.8726ZM102.74 47.152C102.947 47.6313 103.06 48.1411 103.08 48.6539L103.9 48.6215C103.876 48.0098 103.741 47.4011 103.494 46.8279L102.74 47.152ZM103.04 49.4265C103.004 49.6813 102.944 49.9331 102.861 50.1787L103.638 50.4413C103.737 50.1479 103.809 49.8471 103.852 49.5432L103.04 49.4265ZM102.85 50.2167C102.837 50.2709 102.823 50.3248 102.806 50.3786L103.59 50.6208C103.612 50.5486 103.632 50.4761 103.649 50.4033L102.85 50.2167ZM102.751 50.5372C102.731 50.5891 102.709 50.6407 102.685 50.6919L103.428 51.0402C103.46 50.9719 103.489 50.9029 103.516 50.8335L102.751 50.5372ZM102.685 50.6919L102.317 51.4765L103.06 51.8248L103.428 51.0402L102.685 50.6919ZM101.949 52.261L101.213 53.8301L101.956 54.1784L102.692 52.6093L101.949 52.261ZM100.845 54.6147L100.11 56.1838L100.852 56.5321L101.588 54.963L100.845 54.6147ZM99.7417 56.9683L99.0059 58.5375L99.7486 58.8857L100.484 57.3166L99.7417 56.9683ZM98.638 59.322L98.2701 60.1066L99.0129 60.4548L99.3808 59.6703L98.638 59.322ZM98.2457 60.3885L98.4559 61.1602L99.2474 60.9447L99.0373 60.1729L98.2457 60.3885ZM98.666 61.932L99.0863 63.4755L99.8778 63.2599L99.4575 61.7164L98.666 61.932ZM99.2964 64.2472L99.7167 65.7907L100.508 65.5752L100.088 64.0317L99.2964 64.2472ZM99.9269 66.5625L100.347 68.106L101.139 67.8905L100.718 66.347L99.9269 66.5625ZM100.557 68.8777L100.978 70.4212L101.769 70.2057L101.349 68.6622L100.557 68.8777ZM101.188 71.193L101.398 71.9647L102.189 71.7492L101.979 70.9775L101.188 71.193ZM101.398 71.9649C101.455 72.1725 101.482 72.3804 101.483 72.5848L102.303 72.5807C102.302 72.3054 102.265 72.0262 102.189 71.749L101.398 71.9649ZM101.404 73.2045C101.297 73.6106 101.084 73.9831 100.788 74.2817L101.371 74.8588C101.768 74.4582 102.053 73.959 102.197 73.4141L101.404 73.2045ZM100.294 74.6641C100.118 74.7669 99.9246 74.8487 99.7171 74.9052L99.9323 75.6968C100.21 75.6214 100.469 75.5116 100.707 75.3732L100.294 74.6641Z" fill="#979797"/>
</g>
<g filter="url(#filter1_d_518_4416)">
<rect x="123.917" y="4.21344" width="109.082" height="79.5732" rx="16.4068" fill="white" shape-rendering="crispEdges"/>
<path d="M138.634 18.1897V19.6466H142.848V18.1897H138.634ZM141.243 22.2553H144.777V23.092H136.725V22.2553H140.229V20.4636H137.63V15.8763H138.634V17.3726H142.848V15.8763H143.852V20.4636H141.243V22.2553ZM149.787 16.4276C148.507 16.4276 147.671 16.8607 147.671 17.5695C147.671 18.2881 148.507 18.7212 149.787 18.7212C151.057 18.7212 151.894 18.2881 151.894 17.5695C151.894 16.8607 151.057 16.4276 149.787 16.4276ZM149.787 19.5383C147.907 19.5383 146.627 18.7705 146.627 17.5695C146.627 16.3783 147.907 15.6105 149.787 15.6105C151.657 15.6105 152.937 16.3783 152.937 17.5695C152.937 18.7705 151.657 19.5383 149.787 19.5383ZM153.833 20.2963L153.843 21.133H151.835V24.1749H150.801V21.133H148.773V24.1749H147.739V21.133H145.771V20.2963H153.833ZM155.594 18.9378L155.23 18.1404C156.874 17.9731 158.016 17.284 158.154 16.4866H155.575V15.6696H162.141V16.4866H159.542C159.68 17.284 160.822 17.9731 162.465 18.1404L162.111 18.9378C160.546 18.7705 159.325 18.1306 158.853 17.2151C158.37 18.1306 157.15 18.7705 155.594 18.9378ZM160.871 22.5998C160.871 22.0682 160.132 21.7926 158.833 21.7926C157.534 21.7926 156.805 22.0682 156.805 22.5998C156.805 23.1117 157.534 23.3972 158.833 23.3972C160.132 23.3972 160.871 23.1117 160.871 22.5998ZM162.869 20.1978H159.355V21.0248C160.959 21.1232 161.895 21.6745 161.895 22.5998C161.895 23.6039 160.753 24.1749 158.833 24.1749C156.923 24.1749 155.772 23.6039 155.772 22.5998C155.772 21.6745 156.726 21.1134 158.341 21.0149V20.1978H154.826V19.3906H162.869V20.1978Z" fill="#333333" fill-opacity="0.8"/>
<path d="M145.161 45.1551V41.6769H142.956V40.2724H145.161V38.0674H146.894V45.1551H145.161ZM144.059 43.4094L143.153 44.7745C141.88 44.3413 141.027 43.5144 140.515 42.4381C139.977 43.6719 139.018 44.6432 137.588 45.1289L136.682 43.7376C138.743 43.0813 139.596 41.4406 139.596 39.7737V38.6974H141.355V39.6949C141.355 41.3225 142.142 42.7925 144.059 43.4094ZM142.812 48.8302C144.387 48.8302 145.214 48.5021 145.214 47.8196C145.214 47.1239 144.387 46.7958 142.812 46.7958C141.223 46.7958 140.397 47.1239 140.397 47.8196C140.397 48.5021 141.223 48.8302 142.812 48.8302ZM142.812 45.457C145.371 45.457 146.946 46.3233 146.946 47.8196C146.946 49.2896 145.371 50.1559 142.812 50.1559C140.239 50.1559 138.664 49.2896 138.664 47.8196C138.664 46.3233 140.239 45.457 142.812 45.457ZM158.902 38.0805V46.7564H157.157V38.0805H158.902ZM150.725 41.9131C150.725 42.8844 151.434 43.4751 152.327 43.4751C153.232 43.4751 153.915 42.8844 153.915 41.9131C153.915 40.9156 153.232 40.3381 152.327 40.3381C151.434 40.3381 150.725 40.9156 150.725 41.9131ZM155.608 41.9131C155.608 43.6719 154.177 44.9714 152.327 44.9714C150.476 44.9714 149.032 43.6719 149.032 41.9131C149.032 40.1281 150.476 38.8418 152.327 38.8418C154.177 38.8418 155.608 40.1281 155.608 41.9131ZM152.589 48.5677H159.204V49.9459H150.857V45.9033H152.589V48.5677ZM166.37 48.8565C167.984 48.8565 168.811 48.5809 168.811 47.964C168.811 47.3471 167.984 47.0846 166.37 47.0846C164.755 47.0846 163.928 47.3471 163.928 47.964C163.928 48.5809 164.755 48.8565 166.37 48.8565ZM166.37 45.772C168.982 45.772 170.57 46.5595 170.57 47.964C170.57 49.3684 168.982 50.169 166.37 50.169C163.758 50.169 162.183 49.3684 162.183 47.964C162.183 46.5595 163.758 45.772 166.37 45.772ZM165.123 42.7925V43.8032H167.643V42.8057C167.262 42.845 166.842 42.8713 166.396 42.8713C165.937 42.8713 165.517 42.845 165.123 42.7925ZM166.396 39.5637C164.755 39.5637 163.81 39.8918 163.81 40.5743C163.81 41.2306 164.755 41.5719 166.396 41.5719C168.05 41.5719 168.995 41.2306 168.995 40.5743C168.995 39.8918 168.05 39.5637 166.396 39.5637ZM169.376 43.8032H171.856V45.1682H160.936V43.8032H163.39V42.3463C162.524 41.9525 162.025 41.3487 162.025 40.5743C162.025 39.1305 163.732 38.2511 166.396 38.2511C169.074 38.2511 170.78 39.1305 170.78 40.5743C170.78 41.3619 170.268 41.9656 169.376 42.3594V43.8032ZM139.662 58.0575V59.7507H144.833V58.0575H139.662ZM143.114 63.3471H147.734V64.7515H136.787V63.3471H141.381V61.1289H137.942V54.8155H139.662V56.6925H144.833V54.8155H146.539V61.1289H143.114V63.3471ZM156.632 58.4513V61.247H155.017V54.2905H156.632V57.0468H157.524V54.0674H159.165V61.6276H157.524V58.4513H156.632ZM154.676 55.3012V56.64H148.796V55.3012H150.883V54.1986H152.589V55.3012H154.676ZM150.686 59.1338C150.686 59.6982 151.119 60.0132 151.762 60.0132C152.405 60.0132 152.825 59.6982 152.825 59.1338C152.825 58.5694 152.405 58.2675 151.762 58.2675C151.119 58.2675 150.686 58.5694 150.686 59.1338ZM154.361 59.1338C154.361 60.3807 153.285 61.247 151.762 61.247C150.227 61.247 149.15 60.3807 149.15 59.1338C149.15 57.8869 150.227 57.0337 151.762 57.0337C153.285 57.0337 154.361 57.8869 154.361 59.1338ZM155.07 64.8696C156.684 64.8696 157.498 64.594 157.498 63.964C157.498 63.3339 156.684 63.0583 155.07 63.0583C153.455 63.0583 152.642 63.3339 152.642 63.964C152.642 64.594 153.455 64.8696 155.07 64.8696ZM155.07 61.7589C157.669 61.7589 159.231 62.5595 159.231 63.964C159.231 65.3684 157.669 66.1559 155.07 66.1559C152.471 66.1559 150.909 65.3684 150.909 63.964C150.909 62.5595 152.471 61.7589 155.07 61.7589ZM161.605 55.3143H167.407C167.407 59.0157 166.16 62.0345 161.868 64.1083L160.962 62.7433C164.047 61.2601 165.385 59.3701 165.635 56.6925H161.605V55.3143ZM169.257 54.0542H171.003V66.1428H169.257V54.0542Z" fill="#333333" fill-opacity="0.5"/>
<path fill-rule="evenodd" clip-rule="evenodd" d="M201.824 49.5899H194.432L193.865 52.7735H202.391L201.824 49.5899ZM204.36 47.7321C204.176 47.1564 203.637 46.74 203.001 46.74H193.254C192.617 46.74 192.078 47.1572 191.895 47.734C191.861 47.821 191.835 47.9127 191.818 48.0083L188.11 68.8352C186.625 69.2229 185.528 70.5742 185.528 72.1805C185.528 74.0891 187.076 75.6376 188.985 75.6376C190.895 75.6376 192.442 74.0891 192.442 72.1805C192.442 70.9881 191.838 69.9363 190.919 69.3148L193.357 55.6234H202.898L206.098 73.5951C206.236 74.3699 206.976 74.8874 207.751 74.7483C208.526 74.6105 209.043 73.8707 208.904 73.0958L204.438 48.0083C204.421 47.912 204.394 47.8197 204.36 47.7321ZM188.984 74.2774C190.143 74.2774 191.081 73.3387 191.081 72.1803C191.081 71.0219 190.143 70.0832 188.984 70.0832C187.826 70.0832 186.887 71.0219 186.887 72.1803C186.887 73.3387 187.826 74.2774 188.984 74.2774Z" fill="url(#paint1_linear_518_4416)"/>
<path d="M214.971 61.5295L214.623 61.3129L214.561 61.4123V61.5295H214.971ZM215.013 61.4595L215.368 61.6646L215.368 61.6646L215.013 61.4595ZM219.635 53.4546L219.99 53.6597L219.99 53.6595L219.635 53.4546ZM219.789 53.1363L219.483 52.8638L219.435 52.9174L219.409 52.9839L219.789 53.1363ZM220.428 48.9136L220.801 48.7439L220.801 48.7438L220.428 48.9136ZM214.966 36.8977L214.592 37.0674L214.592 37.0674L214.966 36.8977ZM209.782 34.954L209.612 34.5806L209.782 34.954ZM207.796 36.9946L208.143 37.2131L208.161 37.1848L208.174 37.154L207.796 36.9946ZM203.881 43.2117V43.6219H204.107L204.228 43.4302L203.881 43.2117ZM205.509 45.6273L205.269 45.2949L205.252 45.307L205.237 45.3206L205.509 45.6273ZM205.868 45.2437L206.215 45.4623L206.215 45.4623L205.868 45.2437ZM208.36 41.2858L208.734 41.1161L208.419 40.4232L208.013 41.0672L208.36 41.2858ZM213.675 52.9778L214.048 52.8081L214.048 52.8081L213.675 52.9778ZM213.95 53.4614L214.306 53.6665L214.436 53.4402L214.286 53.2262L213.95 53.4614ZM210.754 58.9997L211.109 59.2049L211.109 59.2047L210.754 58.9997ZM210.439 59.9453L210.837 60.0447L210.844 60.019L210.847 59.9926L210.439 59.9453ZM211.216 30.4278C211.216 30.1663 211.193 29.9097 211.149 29.6601L210.341 29.8017C210.377 30.0047 210.395 30.2139 210.395 30.4278H211.216ZM210.95 28.9152C210.772 28.4256 210.51 27.9766 210.181 27.5857L209.553 28.1133C209.821 28.4321 210.034 28.7977 210.179 29.1958L210.95 28.9152ZM209.637 27.0409C209.246 26.7126 208.797 26.4504 208.307 26.2722L208.026 27.0431C208.425 27.188 208.79 27.4013 209.109 27.6691L209.637 27.0409ZM207.562 26.0731C207.313 26.0294 207.056 26.0067 206.795 26.0067V26.827C207.008 26.827 207.218 26.8456 207.421 26.8812L207.562 26.0731ZM206.795 26.0067C206.533 26.0067 206.276 26.0294 206.027 26.0731L206.168 26.8812C206.371 26.8456 206.581 26.827 206.795 26.827V26.0067ZM205.282 26.2722C204.792 26.4504 204.343 26.7125 203.952 27.0408L204.48 27.6691C204.798 27.4013 205.164 27.188 205.562 27.0431L205.282 26.2722ZM203.407 27.5855C203.079 27.9764 202.816 28.4253 202.638 28.915L203.409 29.1958C203.554 28.7977 203.767 28.4321 204.035 28.1132L203.407 27.5855ZM202.439 29.66C202.395 29.9096 202.372 30.1662 202.372 30.4278H203.192C203.192 30.2139 203.211 30.0047 203.247 29.8016L202.439 29.66ZM202.372 30.4278C202.372 30.6893 202.395 30.9459 202.439 31.1955L203.247 31.0539C203.211 30.8508 203.192 30.6416 203.192 30.4278H202.372ZM202.638 31.9405C202.816 32.4302 203.079 32.8791 203.407 33.2701L204.035 32.7423C203.767 32.4235 203.554 32.0579 203.409 31.6598L202.638 31.9405ZM203.952 33.8147C204.343 34.143 204.792 34.4051 205.282 34.5833L205.562 33.8124C205.164 33.6675 204.798 33.4542 204.48 33.1864L203.952 33.8147ZM206.027 34.7824C206.276 34.8261 206.533 34.8489 206.795 34.8489V34.0285C206.581 34.0285 206.371 34.0099 206.168 33.9744L206.027 34.7824ZM206.795 34.8489C207.056 34.8489 207.313 34.8261 207.562 34.7824L207.421 33.9744C207.218 34.0099 207.008 34.0285 206.795 34.0285V34.8489ZM208.307 34.5833C208.797 34.4051 209.246 34.143 209.637 33.8146L209.109 33.1864C208.79 33.4542 208.425 33.6675 208.026 33.8124L208.307 34.5833ZM210.181 33.2699C210.51 32.8789 210.772 32.43 210.95 31.9403L210.179 31.6597C210.034 32.0578 209.821 32.4234 209.553 32.7423L210.181 33.2699ZM211.149 31.1954C211.193 30.9458 211.216 30.6893 211.216 30.4278H210.395C210.395 30.6416 210.377 30.8508 210.341 31.0539L211.149 31.1954ZM212.671 74.3021C212.326 74.3021 212.004 74.2101 211.726 74.0495L211.315 74.7595C211.714 74.9905 212.178 75.1225 212.671 75.1225V74.3021ZM211.034 73.3571C210.873 73.0795 210.781 72.7573 210.781 72.4124H209.961C209.961 72.9054 210.093 73.3689 210.324 73.7679L211.034 73.3571ZM210.781 72.4124V71.6185H209.961V72.4124H210.781ZM210.781 70.8246V69.2369H209.961V70.8246H210.781ZM210.781 68.443V66.8553H209.961V68.443H210.781ZM210.781 66.0615V64.4737H209.961V66.0615H210.781ZM210.781 63.6799V62.0921H209.961V63.6799H210.781ZM210.781 61.2983V60.5044H209.961V61.2983H210.781ZM210.781 60.5044C210.781 60.4521 210.783 60.4005 210.787 60.3495L209.97 60.2833C209.964 60.3563 209.961 60.43 209.961 60.5044H210.781ZM210.806 60.1959C210.814 60.1448 210.825 60.0943 210.837 60.0447L210.041 59.8459C210.024 59.9173 210.009 59.9898 209.997 60.0633L210.806 60.1959ZM210.847 59.9926C210.857 59.9011 210.874 59.8098 210.898 59.7193L210.103 59.5142C210.071 59.6413 210.047 59.7695 210.032 59.898L210.847 59.9926ZM210.986 59.4553C211.02 59.3705 211.061 59.2868 211.109 59.2049L210.398 58.7944C210.333 58.9084 210.275 59.0251 210.227 59.1439L210.986 59.4553ZM211.109 59.2047L211.464 58.5894L210.753 58.1793L210.398 58.7946L211.109 59.2047ZM211.819 57.974L212.53 56.7433L211.819 56.3332L211.109 57.5639L211.819 57.974ZM212.885 56.1279L213.595 54.8972L212.885 54.4871L212.174 55.7178L212.885 56.1279ZM213.95 54.2818L214.306 53.6665L213.595 53.2564L213.24 53.8717L213.95 54.2818ZM214.286 53.2262C214.196 53.097 214.116 52.9575 214.048 52.8081L213.301 53.1475C213.39 53.343 213.495 53.5263 213.614 53.6966L214.286 53.2262ZM214.048 52.8081L213.694 52.0286L212.947 52.3681L213.301 53.1475L214.048 52.8081ZM213.339 51.2491L212.631 49.6902L211.884 50.0297L212.593 51.5886L213.339 51.2491ZM212.277 48.9107L211.568 47.3518L210.821 47.6912L211.53 49.2502L212.277 48.9107ZM211.214 46.5723L210.505 45.0134L209.758 45.3528L210.467 46.9118L211.214 46.5723ZM210.151 44.2339L209.442 42.675L208.695 43.0144L209.404 44.5734L210.151 44.2339ZM209.088 41.8955L208.734 41.1161L207.987 41.4555L208.341 42.235L209.088 41.8955ZM208.013 41.0672L207.598 41.7269L208.292 42.164L208.707 41.5043L208.013 41.0672ZM207.182 42.3866L206.352 43.7059L207.046 44.143L207.877 42.8237L207.182 42.3866ZM205.936 44.3655L205.521 45.0252L206.215 45.4623L206.63 44.8026L205.936 44.3655ZM205.521 45.0252C205.498 45.0609 205.474 45.0945 205.448 45.1261L206.082 45.647C206.13 45.5889 206.174 45.5273 206.215 45.4623L205.521 45.0252ZM205.364 45.2163C205.334 45.2447 205.302 45.271 205.269 45.2949L205.749 45.9596C205.811 45.9151 205.87 45.8666 205.926 45.8139L205.364 45.2163ZM205.237 45.3206C205.178 45.3727 205.113 45.4177 205.044 45.4544L205.426 46.1802C205.555 46.1124 205.674 46.0295 205.781 45.9339L205.237 45.3206ZM204.825 45.5375C204.75 45.5558 204.672 45.5656 204.592 45.5656V46.386C204.739 46.386 204.883 46.3681 205.021 46.3341L204.825 45.5375ZM204.592 45.5656H203.698V46.386H204.592V45.5656ZM202.805 45.5656H201.018V46.386H202.805V45.5656ZM200.125 45.5656H198.338V46.386H200.125V45.5656ZM197.445 45.5656H196.551V46.386H197.445V45.5656ZM196.551 45.5656C196.374 45.5656 196.208 45.5183 196.066 45.4358L195.655 46.1458C195.919 46.2986 196.226 46.386 196.551 46.386V45.5656ZM195.709 45.0794C195.627 44.9369 195.58 44.7714 195.58 44.5937H194.759C194.759 44.9196 194.847 45.2262 194.999 45.4903L195.709 45.0794ZM195.58 44.5937C195.58 44.4161 195.627 44.2506 195.709 44.1081L194.999 43.6972C194.847 43.9613 194.759 44.2679 194.759 44.5937H195.58ZM196.066 43.7517C196.208 43.6692 196.374 43.6219 196.551 43.6219V42.8015C196.226 42.8015 195.919 42.8889 195.655 43.0417L196.066 43.7517ZM196.551 43.6219H197.366V42.8015H196.551V43.6219ZM198.18 43.6219H199.809V42.8015H198.18V43.6219ZM200.623 43.6219H202.252V42.8015H200.623V43.6219ZM203.067 43.6219H203.881V42.8015H203.067V43.6219ZM204.228 43.4302L204.663 42.7395L203.969 42.3024L203.534 42.9931L204.228 43.4302ZM205.098 42.0487L205.968 40.6671L205.274 40.23L204.404 41.6116L205.098 42.0487ZM206.403 39.9763L207.273 38.5947L206.579 38.1576L205.709 39.5392L206.403 39.9763ZM207.708 37.9039L208.143 37.2131L207.449 36.776L207.014 37.4668L207.708 37.9039ZM208.174 37.154C208.286 36.8874 208.431 36.6346 208.607 36.4021L207.952 35.9077C207.736 36.1947 207.556 36.5066 207.418 36.8351L208.174 37.154ZM209.212 35.7808C209.433 35.6037 209.681 35.4506 209.952 35.3274L209.612 34.5806C209.279 34.732 208.974 34.9208 208.7 35.1398L209.212 35.7808ZM209.952 35.3274C210.238 35.1973 210.532 35.1091 210.827 35.0598L210.692 34.2506C210.327 34.3116 209.964 34.4206 209.612 34.5806L209.952 35.3274ZM211.741 35.029C212.353 35.089 212.94 35.3093 213.441 35.6662L213.917 34.9983C213.3 34.5581 212.575 34.2866 211.821 34.2126L211.741 35.029ZM214.109 36.2901C214.299 36.5213 214.462 36.7811 214.592 37.0674L215.339 36.728C215.179 36.376 214.978 36.0553 214.743 35.7694L214.109 36.2901ZM214.592 37.0674L214.956 37.8685L215.703 37.529L215.339 36.7279L214.592 37.0674ZM215.32 38.6695L216.049 40.2716L216.796 39.9322L216.067 38.3301L215.32 38.6695ZM216.413 41.0727L217.141 42.6748L217.888 42.3354L217.16 40.7332L216.413 41.0727ZM217.505 43.4759L218.233 45.078L218.98 44.7385L218.252 43.1364L217.505 43.4759ZM218.598 45.8791L219.326 47.4812L220.073 47.1417L219.344 45.5396L218.598 45.8791ZM219.69 48.2822L220.054 49.0833L220.801 48.7438L220.437 47.9428L219.69 48.2822ZM220.054 49.0833C220.149 49.2923 220.222 49.5054 220.273 49.7201L221.071 49.5287C221.007 49.2635 220.918 49.0008 220.801 48.7439L220.054 49.0833ZM220.366 50.386C220.385 50.8395 220.315 51.2892 220.165 51.7105L220.937 51.986C221.123 51.467 221.209 50.9121 221.186 50.3517L220.366 50.386ZM219.879 52.3202C219.765 52.5128 219.633 52.695 219.483 52.8638L220.096 53.4088C220.281 53.2001 220.445 52.9752 220.585 52.7376L219.879 52.3202ZM219.409 52.9839C219.396 53.0142 219.383 53.0444 219.37 53.0744L220.116 53.4152C220.135 53.3733 220.153 53.3311 220.17 53.2886L219.409 52.9839ZM219.327 53.163C219.312 53.1921 219.296 53.221 219.279 53.2496L219.99 53.6595C220.013 53.6197 220.035 53.5794 220.056 53.5389L219.327 53.163ZM219.28 53.2495L218.894 53.9166L219.605 54.3268L219.99 53.6597L219.28 53.2495ZM218.509 54.5836L217.739 55.9178L218.449 56.328L219.22 54.9938L218.509 54.5836ZM217.354 56.5849L216.583 57.919L217.294 58.3292L218.064 56.9951L217.354 56.5849ZM216.198 58.5861L215.428 59.9203L216.138 60.3305L216.909 58.9963L216.198 58.5861ZM215.043 60.5874L214.658 61.2544L215.368 61.6646L215.753 60.9975L215.043 60.5874ZM214.658 61.2544C214.646 61.2742 214.634 61.2937 214.623 61.3129L215.319 61.7461C215.336 61.7193 215.352 61.6921 215.368 61.6646L214.658 61.2544ZM214.561 61.5295V62.4364H215.381V61.5295H214.561ZM214.561 63.3433V65.1571H215.381V63.3433H214.561ZM214.561 66.064V67.8778H215.381V66.064H214.561ZM214.561 68.7847V70.5985H215.381V68.7847H214.561ZM214.561 71.5055V72.4124H215.381V71.5055H214.561ZM214.561 72.4124C214.561 72.7573 214.469 73.0795 214.308 73.3571L215.018 73.7679C215.249 73.3689 215.381 72.9054 215.381 72.4124H214.561ZM213.616 74.0495C213.338 74.2101 213.016 74.3021 212.671 74.3021V75.1225C213.164 75.1225 213.627 74.9905 214.026 74.7595L213.616 74.0495Z" fill="#979797"/>
</g>
<defs>
<filter id="filter0_d_518_4416" x="0.592139" y="0.111731" width="127.427" height="95.98" filterUnits="userSpaceOnUse" color-interpolation-filters="sRGB">
<feFlood flood-opacity="0" result="BackgroundImageFix"/>
<feColorMatrix in="SourceAlpha" type="matrix" values="0 0 0 0 0 0 0 0 0 0 0 0 0 0 0 0 0 0 127 0" result="hardAlpha"/>
<feOffset dx="4.10171" dy="4.10171"/>
<feGaussianBlur stdDeviation="4.10171"/>
<feComposite in2="hardAlpha" operator="out"/>
<feColorMatrix type="matrix" values="0 0 0 0 0 0 0 0 0 0 0 0 0 0 0 0 0 0 0.1 0"/>
<feBlend mode="normal" in2="BackgroundImageFix" result="effect1_dropShadow_518_4416"/>
<feBlend mode="normal" in="SourceGraphic" in2="effect1_dropShadow_518_4416" result="shape"/>
</filter>
<filter id="filter1_d_518_4416" x="119.816" y="0.111731" width="125.489" height="95.98" filterUnits="userSpaceOnUse" color-interpolation-filters="sRGB">
<feFlood flood-opacity="0" result="BackgroundImageFix"/>
<feColorMatrix in="SourceAlpha" type="matrix" values="0 0 0 0 0 0 0 0 0 0 0 0 0 0 0 0 0 0 127 0" result="hardAlpha"/>
<feOffset dx="4.10171" dy="4.10171"/>
<feGaussianBlur stdDeviation="4.10171"/>
<feComposite in2="hardAlpha" operator="out"/>
<feColorMatrix type="matrix" values="0 0 0 0 0 0 0 0 0 0 0 0 0 0 0 0 0 0 0.1 0"/>
<feBlend mode="normal" in2="BackgroundImageFix" result="effect1_dropShadow_518_4416"/>
<feBlend mode="normal" in="SourceGraphic" in2="effect1_dropShadow_518_4416" result="shape"/>
</filter>
<linearGradient id="paint0_linear_518_4416" x1="70.7747" y1="60.9928" x2="83.8989" y2="67.5027" gradientUnits="userSpaceOnUse">
<stop stop-color="#2FD8DE"/>
<stop offset="0.47394" stop-color="#4958E0"/>
<stop offset="1" stop-color="#FF4063"/>
</linearGradient>
<linearGradient id="paint1_linear_518_4416" x1="179.779" y1="58.6415" x2="198.665" y2="80.8241" gradientUnits="userSpaceOnUse">
<stop stop-color="#2FD8DE"/>
<stop offset="0.47394" stop-color="#4958E0"/>
<stop offset="1" stop-color="#FF4063"/>
</linearGradient>
</defs>
</svg>
