<svg width="160" height="161" viewBox="0 0 160 161" fill="none" xmlns="http://www.w3.org/2000/svg">
<circle cx="80" cy="80.1875" r="79.25" fill="white" stroke="#FD8106" stroke-width="1.5"/>
<path d="M62.9364 27.8992C62.9364 29.4392 63.9364 30.3792 65.2764 30.3792C66.6364 30.3792 67.6364 29.4392 67.6364 27.8992C67.6364 26.3792 66.6364 25.4392 65.2764 25.4392C63.9364 25.4392 62.9364 26.3792 62.9364 27.8992ZM72.9564 26.6992H69.9964C70.0764 27.0792 70.1364 27.4792 70.1364 27.8992C70.1364 28.2992 70.0964 28.7192 69.9964 29.0792H72.9564V26.6992ZM72.9564 31.1792H68.8964C67.9964 32.1192 66.7164 32.6792 65.2764 32.6792C62.5564 32.6792 60.4364 30.6592 60.4364 27.8992C60.4364 25.1592 62.5564 23.1392 65.2764 23.1392C66.7164 23.1392 67.9564 23.6792 68.8564 24.5992H72.9564V22.0392H75.5964V35.5192H72.9564V31.1792ZM66.0964 38.0392H76.0164V40.1392H63.4564V34.1992H66.0964V38.0392ZM79.2548 23.4192H88.1148C88.1148 28.4192 85.0348 31.8792 79.5548 33.4592L78.4548 31.3592C82.5548 30.2392 84.8348 28.0992 85.2548 25.5192H79.2548V23.4192ZM83.8348 33.8992V38.0392H93.7148V40.1392H81.1948V33.8992H83.8348ZM93.0748 27.1792H95.5348V29.3392H93.0748V35.2192H90.4348V22.0392H93.0748V27.1792Z" fill="#333333"/>
<path d="M45.576 64.7392V62.3592H48.756V52.9992H46.076V51.1792C47.556 50.8992 48.576 50.5192 49.516 49.9192H51.696V62.3592H54.476V64.7392H45.576ZM61.8734 57.4992C61.0734 57.4992 60.1334 57.9392 59.4534 59.0592C59.7334 61.7592 60.7334 62.7992 61.9734 62.7992C63.0734 62.7992 63.9934 61.8792 63.9934 60.0592C63.9934 58.3192 63.1534 57.4992 61.8734 57.4992ZM62.0334 65.0192C59.2134 65.0192 56.7134 62.7592 56.7134 57.5392C56.7134 52.0192 59.4534 49.6592 62.4334 49.6592C64.2534 49.6592 65.5534 50.4192 66.4534 51.3392L64.8934 53.0992C64.3734 52.4992 63.4734 52.0192 62.6134 52.0192C60.9134 52.0192 59.5134 53.2992 59.3934 57.0192C60.1934 56.0192 61.4734 55.4192 62.4334 55.4192C64.9134 55.4192 66.6734 56.8992 66.6734 60.0592C66.6734 63.0992 64.5534 65.0192 62.0334 65.0192ZM73.3907 65.0192C70.3707 65.0192 68.3707 62.3792 68.3707 57.2792C68.3707 52.1592 70.3707 49.6592 73.3907 49.6592C76.4107 49.6592 78.3907 52.1792 78.3907 57.2792C78.3907 62.3792 76.4107 65.0192 73.3907 65.0192ZM73.3907 62.7192C74.6707 62.7192 75.6107 61.4392 75.6107 57.2792C75.6107 53.1392 74.6707 51.9392 73.3907 51.9392C72.1107 51.9392 71.1507 53.1392 71.1507 57.2792C71.1507 61.4392 72.1107 62.7192 73.3907 62.7192ZM86.8481 56.3592V51.6392H83.2481V56.3592H86.8481ZM89.4481 49.5592V58.4392H80.6681V49.5592H89.4481ZM85.3881 60.1592V64.0392H95.2881V66.1392H82.7481V60.1592H85.3881ZM94.6281 53.3592H97.0681V55.5192H94.6281V61.4792H91.9881V48.0392H94.6281V53.3592ZM107.926 58.7392H111.386V48.0392H114.026V61.9992H111.386V60.5392H107.926V58.7392ZM104.386 50.5792C103.146 50.5792 102.286 51.0592 102.286 51.9592C102.286 52.8592 103.146 53.3192 104.386 53.3192C105.606 53.3192 106.466 52.8592 106.466 51.9592C106.466 51.0592 105.606 50.5792 104.386 50.5792ZM104.386 55.2392C101.686 55.2392 99.8065 53.9192 99.8065 51.9592C99.8065 49.9992 101.686 48.6592 104.386 48.6592C107.066 48.6592 108.966 49.9992 108.966 51.9592C108.966 53.9192 107.066 55.2392 104.386 55.2392ZM103.406 64.0392H114.426V66.1392H100.766V60.6592H103.326V58.1992C101.706 58.2792 100.166 58.2992 98.7865 58.2992L98.4465 56.1992C101.806 56.1792 106.286 56.1392 110.166 55.6392L110.346 57.5192C108.906 57.7592 107.426 57.9192 105.946 58.0392V61.5192H103.406V64.0392Z" fill="#5DB0BF"/>
<g clip-path="url(#clip0_2149_14841)">
<path d="M76.9795 123.516V129.46C76.9795 132.54 83.5556 135.037 91.6636 135.037C99.7716 135.037 106.348 132.54 106.348 129.46V123.516H76.9795Z" fill="#FD8106"/>
<path d="M91.6677 135.234C83.3216 135.234 76.7852 132.698 76.7852 129.46V123.319H106.554V129.46C106.554 132.698 100.018 135.234 91.6717 135.234H91.6677ZM77.182 123.713V129.46C77.182 132.426 83.6827 134.84 91.6677 134.84C99.6527 134.84 106.153 132.426 106.153 129.46V123.713H77.1781H77.182Z" fill="white"/>
<path d="M91.6675 129.389C99.7773 129.389 106.352 126.892 106.352 123.812C106.352 120.732 99.7773 118.235 91.6675 118.235C83.5577 118.235 76.9834 120.732 76.9834 123.812C76.9834 126.892 83.5577 129.389 91.6675 129.389Z" fill="#FD8106"/>
<path d="M91.6677 129.59C83.3216 129.59 76.7852 127.054 76.7852 123.816C76.7852 120.577 83.3216 118.041 91.6677 118.041C100.014 118.041 106.55 120.577 106.55 123.816C106.55 127.054 100.014 129.59 91.6677 129.59ZM91.6677 118.436C83.6788 118.436 77.182 120.85 77.182 123.816C77.182 126.782 83.6827 129.196 91.6677 129.196C99.6527 129.196 106.153 126.782 106.153 123.816C106.153 120.85 99.6527 118.436 91.6677 118.436Z" fill="white"/>
<path d="M104.145 123.634C104.145 125.796 98.6123 127.551 91.7862 127.551C84.9601 127.551 79.4277 125.796 79.4277 123.634C79.4277 121.473 84.9601 119.718 91.7862 119.718C98.6123 119.718 104.145 121.473 104.145 123.634Z" fill="#FD8106"/>
<path d="M91.7864 127.748C84.746 127.748 79.2295 125.942 79.2295 123.634C79.2295 121.327 84.746 119.52 91.7864 119.52C98.8268 119.52 104.343 121.327 104.343 123.634C104.343 125.942 98.8268 127.748 91.7864 127.748ZM91.7864 119.915C85.1944 119.915 79.6264 121.619 79.6264 123.634C79.6264 125.65 85.1944 127.354 91.7864 127.354C98.3784 127.354 103.946 125.65 103.946 123.634C103.946 121.619 98.3784 119.915 91.7864 119.915Z" fill="white"/>
<path d="M76.9795 116.168V122.112C76.9795 125.192 83.5556 127.689 91.6636 127.689C99.7716 127.689 106.348 125.192 106.348 122.112V116.168H76.9795Z" fill="#FD8106"/>
<path d="M91.6677 127.886C83.3216 127.886 76.7852 125.35 76.7852 122.112V115.971H106.554V122.112C106.554 125.35 100.018 127.886 91.6717 127.886H91.6677ZM77.182 116.365V122.112C77.182 125.078 83.6827 127.492 91.6677 127.492C99.6527 127.492 106.153 125.078 106.153 122.112V116.365H77.1781H77.182Z" fill="white"/>
<path d="M106.352 116.464C106.352 119.544 99.7755 122.041 91.6675 122.041C83.5595 122.041 76.9834 119.544 76.9834 116.464C76.9834 113.383 83.5595 110.886 91.6675 110.886C99.7755 110.886 106.352 113.383 106.352 116.464Z" fill="#FD8106"/>
<path d="M91.6677 122.238C83.3216 122.238 76.7852 119.702 76.7852 116.464C76.7852 113.225 83.3216 110.689 91.6677 110.689C100.014 110.689 106.55 113.225 106.55 116.464C106.55 119.702 100.014 122.238 91.6677 122.238ZM91.6677 111.084C83.6788 111.084 77.182 113.497 77.182 116.464C77.182 119.43 83.6827 121.844 91.6677 121.844C99.6527 121.844 106.153 119.43 106.153 116.464C106.153 113.497 99.6527 111.084 91.6677 111.084Z" fill="white"/>
<path d="M104.145 116.286C104.145 118.448 98.6123 120.203 91.7862 120.203C84.9601 120.203 79.4277 118.448 79.4277 116.286C79.4277 114.125 84.9601 112.369 91.7862 112.369C98.6123 112.369 104.145 114.125 104.145 116.286Z" fill="#FD8106"/>
<path d="M91.7864 120.4C84.746 120.4 79.2295 118.593 79.2295 116.286C79.2295 113.979 84.746 112.172 91.7864 112.172C98.8268 112.172 104.343 113.979 104.343 116.286C104.343 118.593 98.8268 120.4 91.7864 120.4ZM91.7864 112.567C85.1944 112.567 79.6264 114.271 79.6264 116.286C79.6264 118.302 85.1944 120.006 91.7864 120.006C98.3784 120.006 103.946 118.302 103.946 116.286C103.946 114.271 98.3784 112.567 91.7864 112.567Z" fill="white"/>
<path d="M76.9795 109.51V115.454C76.9795 118.534 83.5556 121.031 91.6636 121.031C99.7716 121.031 106.348 118.534 106.348 115.454V109.51H76.9795Z" fill="#FD8106"/>
<path d="M91.6677 121.228C83.3216 121.228 76.7852 118.692 76.7852 115.454V109.313H106.554V115.454C106.554 118.692 100.018 121.228 91.6717 121.228H91.6677ZM77.182 109.707V115.454C77.182 118.42 83.6827 120.834 91.6677 120.834C99.6527 120.834 106.153 118.42 106.153 115.454V109.707H77.1781H77.182Z" fill="white"/>
<path d="M91.6675 115.383C99.7773 115.383 106.352 112.886 106.352 109.806C106.352 106.725 99.7773 104.228 91.6675 104.228C83.5577 104.228 76.9834 106.725 76.9834 109.806C76.9834 112.886 83.5577 115.383 91.6675 115.383Z" fill="#FD8106"/>
<path d="M91.6677 115.58C83.3216 115.58 76.7852 113.044 76.7852 109.806C76.7852 106.567 83.3216 104.031 91.6677 104.031C100.014 104.031 106.55 106.567 106.55 109.806C106.55 113.044 100.014 115.58 91.6677 115.58ZM91.6677 104.426C83.6788 104.426 77.182 106.84 77.182 109.806C77.182 112.772 83.6827 115.186 91.6677 115.186C99.6527 115.186 106.153 112.772 106.153 109.806C106.153 106.84 99.6527 104.426 91.6677 104.426Z" fill="white"/>
<path d="M104.145 109.628C104.145 111.79 98.6123 113.545 91.7862 113.545C84.9601 113.545 79.4277 111.79 79.4277 109.628C79.4277 107.467 84.9601 105.711 91.7862 105.711C98.6123 105.711 104.145 107.467 104.145 109.628Z" fill="#FD8106"/>
<path d="M91.7864 113.742C84.746 113.742 79.2295 111.936 79.2295 109.628C79.2295 107.321 84.746 105.514 91.7864 105.514C98.8268 105.514 104.343 107.321 104.343 109.628C104.343 111.936 98.8268 113.742 91.7864 113.742ZM91.7864 105.909C85.1944 105.909 79.6264 107.613 79.6264 109.628C79.6264 111.644 85.1944 113.348 91.7864 113.348C98.3784 113.348 103.946 111.644 103.946 109.628C103.946 107.613 98.3784 105.909 91.7864 105.909Z" fill="white"/>
<path d="M78.5674 102.848V108.792C78.5674 111.872 85.1435 114.369 93.2516 114.369C101.36 114.369 107.936 111.872 107.936 108.792V102.848H78.5635H78.5674Z" fill="#FD8106"/>
<path d="M93.2556 114.566C84.9095 114.566 78.373 112.03 78.373 108.792V102.651H108.142V108.792C108.142 112.03 101.606 114.566 93.2596 114.566H93.2556ZM78.7699 103.045V108.792C78.7699 111.758 85.2706 114.172 93.2556 114.172C101.241 114.172 107.741 111.758 107.741 108.792V103.045H78.7659H78.7699Z" fill="white"/>
<path d="M107.94 103.144C107.94 106.224 101.363 108.721 93.2554 108.721C85.1474 108.721 78.5713 106.224 78.5713 103.144C78.5713 100.063 85.1474 97.5666 93.2554 97.5666C101.363 97.5666 107.94 100.063 107.94 103.144Z" fill="#FD8106"/>
<path d="M93.2556 108.918C84.9095 108.918 78.373 106.382 78.373 103.144C78.373 99.9055 84.9095 97.3694 93.2556 97.3694C101.602 97.3694 108.138 99.9055 108.138 103.144C108.138 106.382 101.602 108.918 93.2556 108.918ZM93.2556 97.7638C85.2666 97.7638 78.7699 100.178 78.7699 103.144C78.7699 106.11 85.2706 108.524 93.2556 108.524C101.241 108.524 107.741 106.11 107.741 103.144C107.741 100.178 101.241 97.7638 93.2556 97.7638Z" fill="white"/>
<path d="M105.733 102.966C105.733 105.128 100.2 106.883 93.3741 106.883C86.548 106.883 81.0156 105.128 81.0156 102.966C81.0156 100.805 86.548 99.0496 93.3741 99.0496C100.2 99.0496 105.733 100.805 105.733 102.966Z" fill="#FD8106"/>
<path d="M93.3743 107.08C86.3338 107.08 80.8174 105.274 80.8174 102.966C80.8174 100.659 86.3338 98.8524 93.3743 98.8524C100.415 98.8524 105.931 100.659 105.931 102.966C105.931 105.274 100.415 107.08 93.3743 107.08ZM93.3743 99.2468C86.7823 99.2468 81.2143 100.951 81.2143 102.966C81.2143 104.982 86.7823 106.686 93.3743 106.686C99.9663 106.686 105.534 104.982 105.534 102.966C105.534 100.951 99.9663 99.2468 93.3743 99.2468Z" fill="white"/>
<path d="M76.9795 96.19V102.134C76.9795 105.215 83.5556 107.711 91.6636 107.711C99.7716 107.711 106.348 105.215 106.348 102.134V96.19H76.9795Z" fill="#FD8106"/>
<path d="M91.6677 107.905C83.3216 107.905 76.7852 105.368 76.7852 102.13V95.9889H106.554V102.13C106.554 105.368 100.018 107.905 91.6717 107.905H91.6677ZM77.182 96.3833V102.13C77.182 105.096 83.6827 107.51 91.6677 107.51C99.6527 107.51 106.153 105.096 106.153 102.13V96.3833H77.1781H77.182Z" fill="white"/>
<path d="M91.6675 102.063C99.7773 102.063 106.352 99.5661 106.352 96.4859C106.352 93.4057 99.7773 90.9087 91.6675 90.9087C83.5577 90.9087 76.9834 93.4057 76.9834 96.4859C76.9834 99.5661 83.5577 102.063 91.6675 102.063Z" fill="#FD8106"/>
<path d="M91.6677 102.26C83.3216 102.26 76.7852 99.7241 76.7852 96.4858C76.7852 93.2476 83.3216 90.7114 91.6677 90.7114C100.014 90.7114 106.55 93.2476 106.55 96.4858C106.55 99.7241 100.014 102.26 91.6677 102.26ZM91.6677 91.1059C83.6788 91.1059 77.182 93.5198 77.182 96.4858C77.182 99.4519 83.6827 101.866 91.6677 101.866C99.6527 101.866 106.153 99.4519 106.153 96.4858C106.153 93.5198 99.6527 91.1059 91.6677 91.1059Z" fill="white"/>
<path d="M104.145 96.3044C104.145 98.4659 98.6123 100.221 91.7862 100.221C84.9601 100.221 79.4277 98.4659 79.4277 96.3044C79.4277 94.143 84.9601 92.3878 91.7862 92.3878C98.6123 92.3878 104.145 94.143 104.145 96.3044Z" fill="#FD8106"/>
<path d="M91.7864 100.418C84.746 100.418 79.2295 98.6118 79.2295 96.3044C79.2295 93.997 84.746 92.1905 91.7864 92.1905C98.8268 92.1905 104.343 93.997 104.343 96.3044C104.343 98.6118 98.8268 100.418 91.7864 100.418ZM91.7864 92.585C85.1944 92.585 79.6264 94.2889 79.6264 96.3044C79.6264 98.3199 85.1944 100.024 91.7864 100.024C98.3784 100.024 103.946 98.3199 103.946 96.3044C103.946 94.2889 98.3784 92.585 91.7864 92.585Z" fill="white"/>
<path d="M76.9795 89.5282V95.4722C76.9795 98.5527 83.5556 101.049 91.6636 101.049C99.7716 101.049 106.348 98.5527 106.348 95.4722V89.5282H76.9795Z" fill="#FD8106"/>
<path d="M91.6677 101.247C83.3216 101.247 76.7852 98.7104 76.7852 95.4722V89.3309H106.554V95.4722C106.554 98.7104 100.018 101.247 91.6717 101.247H91.6677ZM77.1781 89.7254V95.4722C77.1781 98.4383 83.6788 100.852 91.6637 100.852C99.6487 100.852 106.149 98.4383 106.149 95.4722V89.7254H77.1781Z" fill="white"/>
<path d="M106.352 89.824C106.352 92.9044 99.7755 95.4012 91.6675 95.4012C83.5595 95.4012 76.9834 92.9044 76.9834 89.824C76.9834 86.7435 83.5555 84.2468 91.6675 84.2468C99.7795 84.2468 106.352 86.7435 106.352 89.824Z" fill="#FD8106"/>
<path d="M91.6677 95.5984C83.3216 95.5984 76.7852 93.0622 76.7852 89.824C76.7852 86.5857 83.3216 84.0496 91.6677 84.0496C100.014 84.0496 106.55 86.5857 106.55 89.824C106.55 93.0622 100.014 95.5984 91.6677 95.5984ZM91.6677 84.444C83.6788 84.444 77.182 86.8579 77.182 89.824C77.182 92.7901 83.6827 95.204 91.6677 95.204C99.6527 95.204 106.153 92.7901 106.153 89.824C106.153 86.8579 99.6567 84.444 91.6677 84.444Z" fill="white"/>
<path d="M104.145 89.6465C104.145 91.8079 98.6123 93.5631 91.7862 93.5631C84.9601 93.5631 79.4277 91.8079 79.4277 89.6465C79.4277 87.485 84.9601 85.7298 91.7862 85.7298C98.6123 85.7298 104.145 87.485 104.145 89.6465Z" fill="#FD8106"/>
<path d="M91.7864 93.7604C84.746 93.7604 79.2295 91.9539 79.2295 89.6465C79.2295 87.3391 84.746 85.5326 91.7864 85.5326C98.8268 85.5326 104.343 87.3391 104.343 89.6465C104.343 91.9539 98.8268 93.7604 91.7864 93.7604ZM91.7864 85.927C85.1944 85.927 79.6264 87.631 79.6264 89.6465C79.6264 91.662 85.1944 93.3659 91.7864 93.3659C98.3784 93.3659 103.946 91.662 103.946 89.6465C103.946 87.631 98.3784 85.927 91.7864 85.927Z" fill="white"/>
<path d="M52.0605 127.508V133.452C52.0605 136.532 58.6366 139.029 66.7447 139.029C74.8527 139.029 81.4327 136.532 81.4327 133.452V127.508H52.0605Z" fill="#FD8106"/>
<path d="M66.7448 139.222C58.3987 139.222 51.8623 136.686 51.8623 133.448V127.306H81.6314V133.448C81.6314 136.686 75.0949 139.222 66.7448 139.222ZM52.2592 127.705V133.452C52.2592 136.418 58.7599 138.832 66.7448 138.832C74.7298 138.832 81.2345 136.418 81.2345 133.452V127.705H52.2592Z" fill="white"/>
<path d="M81.4327 127.803C81.4327 130.884 74.8566 133.381 66.7447 133.381C58.6327 133.381 52.0605 130.884 52.0605 127.803C52.0605 124.723 58.6366 122.226 66.7447 122.226C74.8527 122.226 81.4327 124.723 81.4327 127.803Z" fill="#FD8106"/>
<path d="M66.7448 133.578C58.3987 133.578 51.8623 131.042 51.8623 127.803C51.8623 124.565 58.3987 122.029 66.7448 122.029C75.091 122.029 81.6314 124.565 81.6314 127.803C81.6314 131.042 75.0949 133.578 66.7448 133.578ZM66.7448 122.423C58.7559 122.423 52.2592 124.837 52.2592 127.803C52.2592 130.769 58.7599 133.183 66.7448 133.183C74.7298 133.183 81.2345 130.769 81.2345 127.803C81.2345 124.837 74.7338 122.423 66.7448 122.423Z" fill="white"/>
<path d="M79.2218 127.622C79.2218 129.783 73.6895 131.539 66.8633 131.539C60.0372 131.539 54.5049 129.783 54.5049 127.622C54.5049 125.46 60.0372 123.705 66.8633 123.705C73.6895 123.705 79.2218 125.46 79.2218 127.622Z" fill="#FD8106"/>
<path d="M66.8635 131.736C59.8231 131.736 54.3066 129.929 54.3066 127.622C54.3066 125.315 59.8231 123.508 66.8635 123.508C73.904 123.508 79.4204 125.315 79.4204 127.622C79.4204 129.929 73.904 131.736 66.8635 131.736ZM66.8635 123.902C60.2716 123.902 54.7035 125.606 54.7035 127.622C54.7035 129.637 60.2716 131.341 66.8635 131.341C73.4555 131.341 79.0236 129.637 79.0236 127.622C79.0236 125.606 73.4555 123.902 66.8635 123.902Z" fill="white"/>
<path d="M52.0605 120.155V126.099C52.0605 129.18 58.6366 131.677 66.7447 131.677C74.8527 131.677 81.4327 129.18 81.4327 126.099V120.155H52.0605Z" fill="#FD8106"/>
<path d="M66.7448 131.874C58.3987 131.874 51.8623 129.338 51.8623 126.099V119.958H81.6314V126.099C81.6314 129.338 75.0949 131.874 66.7448 131.874ZM52.2592 120.353V126.099C52.2592 129.065 58.7599 131.479 66.7448 131.479C74.7298 131.479 81.2345 129.065 81.2345 126.099V120.353H52.2592Z" fill="white"/>
<path d="M81.4327 120.451C81.4327 123.532 74.8566 126.028 66.7447 126.028C58.6327 126.028 52.0605 123.532 52.0605 120.451C52.0605 117.371 58.6366 114.874 66.7447 114.874C74.8527 114.874 81.4327 117.371 81.4327 120.451Z" fill="#FD8106"/>
<path d="M66.7448 126.226C58.3987 126.226 51.8623 123.689 51.8623 120.451C51.8623 117.213 58.3987 114.677 66.7448 114.677C75.091 114.677 81.6314 117.213 81.6314 120.451C81.6314 123.689 75.0949 126.226 66.7448 126.226ZM66.7448 115.071C58.7559 115.071 52.2592 117.485 52.2592 120.451C52.2592 123.417 58.7599 125.831 66.7448 125.831C74.7298 125.831 81.2345 123.417 81.2345 120.451C81.2345 117.485 74.7338 115.071 66.7448 115.071Z" fill="white"/>
<path d="M79.2218 120.274C79.2218 122.435 73.6895 124.19 66.8633 124.19C60.0372 124.19 54.5049 122.435 54.5049 120.274C54.5049 118.112 60.0372 116.357 66.8633 116.357C73.6895 116.357 79.2218 118.112 79.2218 120.274Z" fill="#FD8106"/>
<path d="M66.8635 124.388C59.8231 124.388 54.3066 122.581 54.3066 120.274C54.3066 117.966 59.8231 116.16 66.8635 116.16C73.904 116.16 79.4204 117.966 79.4204 120.274C79.4204 122.581 73.904 124.388 66.8635 124.388ZM66.8635 116.554C60.2716 116.554 54.7035 118.258 54.7035 120.274C54.7035 122.289 60.2716 123.993 66.8635 123.993C73.4555 123.993 79.0236 122.289 79.0236 120.274C79.0236 118.258 73.4555 116.554 66.8635 116.554Z" fill="white"/>
<path d="M52.0605 113.497V119.441C52.0605 122.522 58.6366 125.019 66.7447 125.019C74.8527 125.019 81.4327 122.522 81.4327 119.441V113.497H52.0605Z" fill="#FD8106"/>
<path d="M66.7448 125.216C58.3987 125.216 51.8623 122.68 51.8623 119.441V113.3H81.6314V119.441C81.6314 122.68 75.0949 125.216 66.7448 125.216ZM52.2592 113.695V119.441C52.2592 122.408 58.7599 124.821 66.7448 124.821C74.7298 124.821 81.2345 122.408 81.2345 119.441V113.695H52.2592Z" fill="white"/>
<path d="M81.4327 113.793C81.4327 116.874 74.8566 119.37 66.7447 119.37C58.6327 119.37 52.0605 116.874 52.0605 113.793C52.0605 110.713 58.6366 108.216 66.7447 108.216C74.8527 108.216 81.4327 110.713 81.4327 113.793Z" fill="#FD8106"/>
<path d="M66.7448 119.568C58.3987 119.568 51.8623 117.032 51.8623 113.793C51.8623 110.555 58.3987 108.019 66.7448 108.019C75.091 108.019 81.6314 110.555 81.6314 113.793C81.6314 117.032 75.0949 119.568 66.7448 119.568ZM66.7448 108.413C58.7559 108.413 52.2592 110.827 52.2592 113.793C52.2592 116.759 58.7599 119.173 66.7448 119.173C74.7298 119.173 81.2345 116.759 81.2345 113.793C81.2345 110.827 74.7338 108.413 66.7448 108.413Z" fill="white"/>
<path d="M79.2218 113.616C79.2218 115.777 73.6895 117.532 66.8633 117.532C60.0372 117.532 54.5049 115.777 54.5049 113.616C54.5049 111.454 60.0372 109.699 66.8633 109.699C73.6895 109.699 79.2218 111.454 79.2218 113.616Z" fill="#FD8106"/>
<path d="M66.8635 117.73C59.8231 117.73 54.3066 115.923 54.3066 113.616C54.3066 111.308 59.8231 109.502 66.8635 109.502C73.904 109.502 79.4204 111.308 79.4204 113.616C79.4204 115.923 73.904 117.73 66.8635 117.73ZM66.8635 109.896C60.2716 109.896 54.7035 111.6 54.7035 113.616C54.7035 115.631 60.2716 117.335 66.8635 117.335C73.4555 117.335 79.0236 115.631 79.0236 113.616C79.0236 111.6 73.4555 109.896 66.8635 109.896Z" fill="white"/>
<path d="M52.0605 106.662V112.606C52.0605 115.687 58.6366 118.183 66.7447 118.183C74.8527 118.183 81.4327 115.687 81.4327 112.606V106.662H52.0605Z" fill="#FD8106"/>
<path d="M66.7448 118.38C58.3987 118.38 51.8623 115.844 51.8623 112.606V106.465H81.6314V112.606C81.6314 115.844 75.0949 118.38 66.7448 118.38ZM52.2592 106.859V112.606C52.2592 115.572 58.7599 117.986 66.7448 117.986C74.7298 117.986 81.2345 115.572 81.2345 112.606V106.859H52.2592Z" fill="white"/>
<path d="M81.4327 106.958C81.4327 110.038 74.8566 112.535 66.7447 112.535C58.6327 112.535 52.0605 110.038 52.0605 106.958C52.0605 103.877 58.6366 101.381 66.7447 101.381C74.8527 101.381 81.4327 103.877 81.4327 106.958Z" fill="#FD8106"/>
<path d="M66.7448 112.732C58.3987 112.732 51.8623 110.196 51.8623 106.958C51.8623 103.72 58.3987 101.183 66.7448 101.183C75.091 101.183 81.6314 103.72 81.6314 106.958C81.6314 110.196 75.0949 112.732 66.7448 112.732ZM66.7448 101.578C58.7599 101.578 52.2592 103.992 52.2592 106.958C52.2592 109.924 58.7599 112.338 66.7448 112.338C74.7298 112.338 81.2345 109.924 81.2345 106.958C81.2345 103.992 74.7338 101.578 66.7448 101.578Z" fill="white"/>
<path d="M79.2218 106.776C79.2218 108.938 73.6895 110.693 66.8633 110.693C60.0372 110.693 54.5049 108.938 54.5049 106.776C54.5049 104.615 60.0372 102.86 66.8633 102.86C73.6895 102.86 79.2218 104.615 79.2218 106.776Z" fill="#FD8106"/>
<path d="M66.8635 110.89C59.8231 110.89 54.3066 109.084 54.3066 106.776C54.3066 104.469 59.8231 102.663 66.8635 102.663C73.904 102.663 79.4204 104.469 79.4204 106.776C79.4204 109.084 73.904 110.89 66.8635 110.89ZM66.8635 103.057C60.2716 103.057 54.7035 104.761 54.7035 106.776C54.7035 108.792 60.2716 110.496 66.8635 110.496C73.4555 110.496 79.0236 108.792 79.0236 106.776C79.0236 104.761 73.4555 103.057 66.8635 103.057Z" fill="white"/>
</g>
<defs>
<clipPath id="clip0_2149_14841">
<rect width="56.2759" height="55.1724" fill="white" transform="translate(51.8623 84.0496)"/>
</clipPath>
</defs>
</svg>
