<svg xmlns="http://www.w3.org/2000/svg" width="43.542" height="60.5" viewBox="0 0 43.542 60.5">
  <g id="Group_28" data-name="Group 28" transform="translate(0 0.5)">
    <path id="Fill_27" data-name="Fill 27" d="M4.214,35.226a4.215,4.215,0,0,1-1.066-8.293L7.667,1.546a1.746,1.746,0,0,1,.1-.338A1.73,1.73,0,0,1,9.419,0H21.3a1.731,1.731,0,0,1,1.656,1.21,1.717,1.717,0,0,1,.1.336L28.5,32.128a1.737,1.737,0,0,1-1.406,2.014,1.751,1.751,0,0,1-.308.027,1.732,1.732,0,0,1-1.707-1.433l-3.9-21.908H9.544L6.572,27.518a4.214,4.214,0,0,1-2.358,7.708Zm0-6.771a2.556,2.556,0,1,0,2.557,2.557A2.559,2.559,0,0,0,4.214,28.455Zm6.64-24.981-.691,3.881H20.556l-.691-3.881Z" transform="translate(0 24.774)" fill="#333"/>
    <path id="Fill_43" data-name="Fill 43" d="M18.531,56.068V41.552a2.81,2.81,0,0,1,.083-.681A2.986,2.986,0,0,1,19,39.719l3.9-6.751a3.685,3.685,0,0,1-.336-.59L16.079,18.125,13.042,22.95a1.683,1.683,0,0,1-.439.468,1.678,1.678,0,0,1-1.117.424h-9.8a1.685,1.685,0,0,1,0-3.37H10.62l4.771-7.577a4.773,4.773,0,0,1,8.741-.118l6.657,14.647a4.773,4.773,0,0,1-.777,5.147,3.025,3.025,0,0,1-.188.388l-5.634,9.758c-.017.029-.034.057-.051.086V56.068a2.8,2.8,0,0,1-5.607,0ZM9.28,4.89a4.89,4.89,0,1,1,4.891,4.889A4.891,4.891,0,0,1,9.28,4.89Z" transform="translate(11.753)" fill="none" stroke="#979797" stroke-width="1" stroke-dasharray="2 1"/>
  </g>
</svg>
