<svg width="90" height="90" viewBox="0 0 90 90" fill="none" xmlns="http://www.w3.org/2000/svg">
<circle cx="45" cy="45" r="45" fill="#EDE8E4"/>
<path d="M27.3559 56.6768C26.6206 56.5535 25.8921 56.4371 25.1568 56.3138C22.8409 55.937 20.3326 55.5808 18.2435 56.6494C16.1819 57.7043 14.9518 60.0743 14.9999 62.3896C15.048 64.7048 16.2575 66.9105 18.003 68.4311C19.7485 69.9586 21.9888 70.8491 24.2703 71.2533C25.6928 71.5067 27.1772 71.5821 28.5722 71.1916C30.5514 70.6436 32.1663 69.2257 33.5339 67.6982C34.9014 66.1707 36.0971 64.4788 37.6296 63.1225" fill="#FAFAFA"/>
<path d="M44.6392 19.4685C38.2963 18.0848 31.4792 20.7974 27.0398 25.5169C22.6005 30.2364 20.3533 36.7027 19.8035 43.1484C19.5974 45.5938 19.618 48.0666 20.0922 50.4777C21.1367 55.7658 24.3597 60.4785 28.5448 63.8897C32.723 67.3009 37.8152 69.4792 43.0517 70.8012C44.8797 71.2601 46.7558 71.63 48.6456 71.541C51.8342 71.3903 54.8442 69.9312 57.3594 67.9722C59.8746 66.0131 61.9568 63.5746 64.0184 61.1497" fill="#FAFAFA"/>
<path d="M29.6236 50.9572C27.1222 45.2582 26.3594 38.8125 27.4658 32.6887C27.7269 31.2365 28.098 29.7981 28.7715 28.4829C29.7748 26.5239 31.4172 24.9621 33.1559 23.6127C36.7019 20.8659 40.8251 18.8589 45.1751 17.7424C47.9377 17.0368 50.8652 16.6875 53.6346 17.3519C54.7685 17.6191 55.8543 18.0575 56.9401 18.489C58.823 19.2425 60.7266 20.0028 62.3553 21.2015C63.6816 22.1742 64.788 23.4072 65.8738 24.6333C68.4783 27.5719 71.124 30.6954 72.0311 34.5108C72.4572 36.3191 72.471 38.1891 72.4778 40.0454C72.4984 44.1348 72.5122 48.2858 71.3989 52.2244" fill="#FAFAFA"/>
<path d="M31.6649 49.9845C30.6272 48.9639 29.1772 48.5872 27.9059 49.005C26.6346 49.4229 25.5694 50.6216 25.1364 52.1285C24.6898 53.6971 24.9234 55.4987 25.5763 56.9919C26.2291 58.4852 27.2668 59.6976 28.4076 60.6771C29.459 61.5813 30.6066 62.3005 31.8161 62.828C32.7438 63.2253 33.7197 63.5198 34.5374 64.1911" fill="#EDBFA9"/>
<path d="M67.9906 46.1418C68.7672 44.8951 70.0317 44.2033 71.2755 44.3334C72.5193 44.4704 73.7082 45.4294 74.3679 46.8268C75.0551 48.2926 75.1513 50.1284 74.8077 51.7587C74.4641 53.3889 73.722 54.8205 72.8492 56.0466C72.0383 57.1769 71.1106 58.1496 70.0866 58.9373C69.3032 59.5401 68.4511 60.047 67.8188 60.8963" fill="#EDBFA9"/>
<path d="M65.1385 31.853C66.8909 35.867 67.7499 39.0933 67.7293 43.4909C67.7155 46.1349 69.4336 51.5463 68.9044 54.1424C67.9767 58.677 69.3099 61.6841 67.1108 65.7666C64.9117 69.8491 59.0499 75.0207 54.7067 76.603C52.8994 77.2606 50.9408 77.5483 49.0579 77.2332C47.2093 76.9181 44.2337 76.1783 42.5775 75.3084C40.6052 74.2741 39.2377 73.1438 37.7052 71.5341C35.8292 69.5682 34.8052 66.9584 33.905 64.3897C30.9088 55.848 32.3931 50.3065 31.1218 41.3195C31.1218 41.3195 28.2974 27.3595 44.7628 25.5923C61.2352 23.825 63.771 28.7295 65.1385 31.8599V31.853Z" fill="#EDBFA9"/>
<path d="M43.1067 50.3476C43.2029 51.3134 42.6738 52.1559 41.9179 52.2313C41.1619 52.3066 40.4747 51.5874 40.3716 50.6216C40.2754 49.6557 40.8046 48.8132 41.5605 48.7379C42.3164 48.6625 43.0036 49.3818 43.1067 50.3476Z" fill="#0A0807"/>
<path d="M59.0638 48.7105C59.16 49.6763 58.6308 50.5188 57.8749 50.5942C57.119 50.6695 56.4318 49.9503 56.3287 48.9845C56.2325 48.0186 56.7616 47.1761 57.5175 47.1008C58.2735 47.0254 58.9607 47.7446 59.0638 48.7105Z" fill="#0A0807"/>
<path d="M48.7694 57.1563C48.6732 57.1632 48.5701 57.1358 48.5014 57.0604L46.9071 55.5466C46.8452 55.485 46.7215 55.3685 46.6872 55.1904C46.6391 54.937 46.7971 54.7452 46.8727 54.6493C47.7042 53.6355 48.1509 52.2039 48.1234 50.6216C48.0959 49.0735 47.6493 47.5666 47.2163 46.2993C47.1545 46.1212 47.2507 45.9226 47.4293 45.8678C47.6149 45.8061 47.8073 45.902 47.8623 46.0801C48.3158 47.4022 48.7763 48.9708 48.8038 50.6147C48.8312 52.3614 48.3296 53.9506 47.395 55.0877C47.395 55.0877 47.395 55.0945 47.3812 55.1014L48.9549 56.5672C49.0924 56.6974 49.0993 56.9166 48.9687 57.0536C48.9068 57.1152 48.8312 57.1495 48.7557 57.1563H48.7694Z" fill="#BD9886"/>
<path d="M71.9624 46.4911C71.1584 46.2856 69.6396 47.1213 69.083 47.868C69.997 47.9433 70.911 48.0461 71.825 48.183C72.3266 48.2584 72.9245 48.4296 73.1169 49.0461C73.1925 49.2859 73.1856 49.553 73.1788 49.8133C73.165 50.2791 73.1375 50.786 72.8833 51.1011C72.6221 51.423 72.2167 51.4299 71.8525 51.4093C71.2752 51.3819 70.6979 51.3545 70.1276 51.334C70.3681 51.7998 70.7873 52.108 71.2134 52.1354C71.3439 52.1423 71.4814 52.1354 71.5844 52.2381C71.6875 52.3477 71.7081 52.5395 71.715 52.7108C71.7837 54.5465 70.8354 56.3412 69.4953 56.8892C70.588 57.0399 71.66 56.3412 72.3816 55.2863C73.1032 54.2315 73.5086 52.8683 73.756 51.4847C73.9141 50.5873 74.2783 48.8269 73.6598 48.1008C73.1513 47.5049 72.5946 46.6487 71.9555 46.4843L71.9624 46.4911Z" fill="#D4A58E"/>
<path d="M27.6031 50.9915C28.4003 50.6079 30.1389 51.06 30.8605 51.6559C29.919 51.9436 28.9844 52.2518 28.0567 52.5943C27.5482 52.7861 26.9572 53.0875 26.8678 53.7245C26.8335 53.978 26.8884 54.2314 26.9434 54.478C27.0396 54.9233 27.1633 55.4096 27.4863 55.6562C27.8162 55.9096 28.2422 55.8206 28.6202 55.7178L30.4069 55.2452C30.242 55.7521 29.8572 56.1425 29.4174 56.2727C29.2868 56.3069 29.1356 56.3343 29.0463 56.4576C28.9569 56.5878 28.9707 56.7796 28.9982 56.944C29.2662 58.7318 30.5856 60.2456 32.0769 60.4579C30.9705 60.8552 29.7197 60.4305 28.7714 59.5811C27.8299 58.7318 27.1565 57.5056 26.6411 56.2316C26.3112 55.4027 25.6102 53.7862 26.1188 52.9437C26.538 52.2518 26.964 51.2928 27.6031 50.9915Z" fill="#D4AB97"/>
<path d="M41.059 58.5126C41.1758 59.6634 39.6227 60.7662 37.5955 60.9717C35.5682 61.1772 33.8227 60.41 33.7059 59.2524C33.5891 58.1016 35.1421 56.9988 37.1694 56.7933C39.1967 56.5878 40.9422 57.355 41.059 58.5126Z" fill="#E3A1A1"/>
<path d="M65.599 54.9781C65.7159 56.1288 64.1628 57.2316 62.1355 57.4371C60.1083 57.6426 58.3628 56.8755 58.2459 55.7178C58.1291 54.5671 59.6822 53.4642 61.7094 53.2587C63.7367 53.0533 65.4822 53.8204 65.599 54.9781Z" fill="#E3A1A1"/>
<path d="M56.8784 64.8281C57.5725 63.8829 58.0742 62.78 58.3078 61.6087C58.3559 61.3621 58.3903 61.1087 58.404 60.8484C54.2189 62.1636 49.8071 62.5608 45.4227 62.7663C45.1615 62.78 44.8867 62.7869 44.6187 62.7663C45.0104 63.5883 45.622 64.7185 45.945 65.1432C46.2198 65.5063 46.5428 65.8282 46.8864 66.1296C50.1507 65.2939 53.5111 64.8555 56.8853 64.8281H56.8784Z" fill="#0A0807"/>
<path d="M58.4038 60.8484C58.4244 60.4717 58.4038 60.1018 58.2801 59.7456C58.2457 59.6428 58.1976 59.5401 58.1014 59.4921C58.0121 59.451 57.9021 59.4784 57.8059 59.5127C56.1223 60.047 54.418 60.5196 52.6862 60.8689C51.1881 61.1703 49.6694 61.3827 48.1369 61.458C47.2367 61.4991 45.285 61.6841 44.2611 61.8142C44.1992 61.8211 44.3641 62.2252 44.6184 62.7595C44.8864 62.7801 45.1544 62.7732 45.4224 62.7595C49.8068 62.554 54.2187 62.1636 58.4038 60.8415V60.8484Z" fill="white"/>
<path d="M46.8863 66.1296C47.4566 66.6297 48.0957 67.0475 48.7898 67.3215C50.7484 68.0955 53.0299 67.8558 54.8166 66.7598C55.6207 66.2666 56.3147 65.5953 56.8782 64.8282C53.5109 64.8556 50.1505 65.3008 46.8794 66.1296H46.8863Z" fill="#FF5959"/>
<path d="M45.0034 22.8386C45.2439 25.6882 42.6326 29.0103 42.0278 31.8051C41.4299 34.5587 39.4577 36.7643 37.7465 39.0042C36.214 41.0112 34.8396 43.1347 33.4721 45.2581C32.5306 46.7103 31.5617 48.2926 31.6304 50.0188C30.2972 48.9433 29.3489 47.409 28.9846 45.7376C28.7991 44.9019 28.7579 44.0457 28.7235 43.1963C28.5998 40.2304 28.5792 37.2096 29.4107 34.3601C29.9811 32.4078 30.9363 30.5926 31.8846 28.7911C32.3726 27.8664 32.8674 26.9348 33.5202 26.1128C35.2794 23.9277 38.0283 22.7838 40.7496 22.0851" fill="#FAFAFA"/>
<path d="M57.5448 55.2041C54.0676 55.2041 51.2432 52.3889 51.2432 48.9228C51.2432 45.4568 54.0676 42.6415 57.5448 42.6415C61.0221 42.6415 63.8465 45.4568 63.8465 48.9228C63.8465 52.3889 61.0221 55.2041 57.5448 55.2041ZM57.5448 43.3265C54.4455 43.3265 51.9304 45.8404 51.9304 48.9228C51.9304 52.0053 54.4524 54.5192 57.5448 54.5192C60.6373 54.5192 63.1593 52.0053 63.1593 48.9228C63.1593 45.8404 60.6373 43.3265 57.5448 43.3265Z" fill="#FAFAFA"/>
<path d="M40.9697 57.6906C37.4924 57.6906 34.668 54.8753 34.668 51.4093C34.668 47.9433 37.4924 45.128 40.9697 45.128C44.4469 45.128 47.2713 47.9433 47.2713 51.4093C47.2713 54.8753 44.4469 57.6906 40.9697 57.6906ZM40.9697 45.813C37.8704 45.813 35.3552 48.3269 35.3552 51.4093C35.3552 54.4917 37.8772 57.0056 40.9697 57.0056C44.0621 57.0056 46.5841 54.4917 46.5841 51.4093C46.5841 48.3269 44.0621 45.813 40.9697 45.813Z" fill="#FAFAFA"/>
<path d="M46.8176 25.4416C47.8209 26.7156 48.8174 27.9828 49.8207 29.2569C50.6591 30.3255 65.0561 42.8675 68.3134 45.7513C68.8495 46.224 68.9044 43.2854 69.1243 44.4978C69.3717 44.4978 69.5092 44.2238 69.5848 43.9909C70.4713 41.2784 70.9454 38.3466 70.2788 35.5725C69.9284 34.1271 69.2824 32.7709 68.5746 31.4626C66.8497 28.3048 64.6919 25.3388 61.9018 23.0578C59.1117 20.7768 55.6551 19.2151 52.0541 19.0644C50.7141 19.0096 49.3809 19.1466 48.0477 19.3041C46.9138 19.4411 44.4055 19.6534 44.2268 21.0988C44.0619 22.4276 46.0754 24.4894 46.8245 25.4416H46.8176Z" fill="#FAFAFA"/>
<path d="M46.914 50.8819L46.749 50.2174C46.8933 50.1832 50.2606 49.3475 51.5114 49.3475V50.0325C50.3431 50.0325 46.9483 50.875 46.914 50.8819Z" fill="#FAFAFA"/>
<path d="M39.3479 65.3076C39.4166 66.7119 40.7086 67.7119 41.9249 68.4312C40.6742 67.6229 40.0351 65.9995 40.3237 64.5542C40.5986 63.1499 42.0211 62.2526 42.2479 60.9032C41.114 62.0334 39.2654 63.5472 39.3479 65.3076Z" fill="#BD9886"/>
<path d="M61.091 65.5748C61.469 64.9788 61.5858 64.2664 61.6958 63.5678C61.7714 63.0814 61.847 62.5882 61.7645 62.1019C61.6958 61.7183 61.5309 61.3621 61.3453 61.0196C60.9055 60.2113 60.074 58.6564 59.0981 58.492C60.7131 60.5059 61.6271 62.9718 61.0979 65.5748H61.091Z" fill="#BD9886"/>
</svg>
