<?xml version="1.0" encoding="UTF-8"?>
<svg width="498.397873px" height="42.2756851px" viewBox="0 0 498.397873 42.2756851" version="1.1" xmlns="http://www.w3.org/2000/svg" xmlns:xlink="http://www.w3.org/1999/xlink">
    <title>Group 5</title>
    <g id="장기요양등급테스트" stroke="none" stroke-width="1" fill="none" fill-rule="evenodd">
        <g id="s1-4-copy-8" transform="translate(-326.9999, -663)">
            <g id="Group-5" transform="translate(326.9999, 663)">
                <path d="M306.362219,37.0707072 C300.742219,37.0707072 295.123219,37.0707072 289.503219,37.0707072 C289.128219,37.0707072 288.752219,37.0847072 288.379219,37.0577072 C287.486219,36.9937072 287.301219,36.8187072 287.259219,35.9197072 C287.224219,35.1757072 287.235184,34.4277072 287.244219,33.6827072 C287.262219,32.2087072 287.437219,32.0337072 288.898219,32.0327072 C293.019219,32.0327072 297.140219,32.0377072 301.261219,32.0397072 C303.243219,32.0397072 303.244219,32.0377072 303.245219,30.0627072 C303.246219,29.1507072 303.268219,28.2377072 303.234219,27.3277072 C303.201219,26.4427072 303.007219,26.2137072 302.101219,26.2097072 C299.480219,26.1967072 296.856219,26.0647072 294.238219,26.2867072 C292.164219,26.4617072 292.022219,26.3547072 292.020219,24.2907072 C292.018219,20.8097072 292.019219,17.3287072 292.020219,13.8467072 C292.020219,13.5157072 292.006219,13.1817072 292.036219,12.8527072 C292.109219,12.0627072 292.248219,11.9237072 293.021219,11.8687072 C293.394219,11.8417072 293.770219,11.8607072 294.145219,11.8607072 C300.389219,11.8607072 306.633219,11.8637072 312.877219,11.8597072 C314.701219,11.8587072 314.704219,11.8487072 314.704219,10.0827072 C314.703219,7.60970725 314.866219,7.72770725 312.315219,7.72870725 C306.154219,7.73170725 299.994219,7.72970725 293.833219,7.73070725 C293.625219,7.73070725 293.416219,7.73570725 293.208219,7.73070725 C291.988219,7.69970725 291.821219,7.55470725 291.786219,6.37970725 C291.763219,5.59370725 291.754219,4.80370725 291.796219,4.01870725 C291.853219,2.94070725 292.096219,2.72070725 293.158219,2.69070725 C293.740219,2.67470725 294.324219,2.68970725 294.906219,2.68970725 C302.857219,2.69070725 310.808219,2.69070725 318.759219,2.69170725 C318.967219,2.69170725 319.175219,2.68870725 319.383219,2.69170725 C320.701219,2.71370725 320.789219,2.78570725 320.792219,4.12170725 C320.801219,7.89270725 320.801219,11.6637072 320.791219,15.4347072 C320.788219,16.7867072 320.682219,16.8877072 319.265219,16.8897072 C312.896219,16.8977072 306.527219,16.8947072 300.158219,16.8977072 C298.246219,16.8987072 298.245219,16.9017072 298.246219,18.8507072 C298.247219,19.3067072 298.257219,19.7627072 298.263219,20.2187072 C298.271219,20.8337072 298.600219,21.1197072 299.202219,21.1267072 C299.618219,21.1317072 300.034219,21.1437072 300.451219,21.1437072 C306.986219,21.1437072 313.522219,21.1437072 320.057219,21.1417072 C321.989219,21.1407072 322.029219,21.1767072 322.031219,23.0647072 C322.032219,23.8107072 322.059219,24.5587072 322.010219,25.3017072 C321.958219,26.0917072 321.685219,26.3417072 320.887219,26.2827072 C318.059219,26.0757072 315.229219,26.2237072 312.400219,26.1927072 C311.654219,26.1847072 310.907219,26.2897072 310.160219,26.3377072 C309.616219,26.3727072 309.317219,26.6307072 309.319219,27.1977072 C309.326219,28.5237072 309.329219,29.8497072 309.326219,31.1757072 C309.326219,31.7347072 309.585219,32.0227072 310.155219,32.0227072 C310.530219,32.0227072 310.905219,32.0367072 311.279219,32.0367072 C315.400219,32.0387072 319.521219,32.0377072 323.642219,32.0387072 C323.975219,32.0387072 324.308219,32.0437072 324.641219,32.0477072 C325.180219,32.0547072 325.522219,32.2927072 325.528219,32.8597072 C325.541219,33.9377072 325.548219,35.0147072 325.533219,36.0917072 C325.525219,36.6847072 325.179219,37.0007072 324.594219,37.0417072 C324.221219,37.0677072 323.845219,37.0687072 323.471219,37.0697072 C317.768219,37.0707072 312.065219,37.0707072 306.362219,37.0707072" id="Fill-1" fill="#fff"></path>
                <path d="M346.389319,19.1030072 L363.626319,19.1100072 C363.959319,19.1100072 364.292319,19.1170072 364.625319,19.1240072 C365.165319,19.1360072 365.499319,19.3830072 365.504319,19.9470072 C365.515319,21.0660072 365.516319,22.1850072 365.508319,23.3040072 C365.504319,23.8590072 365.190319,24.1310072 364.644319,24.1460072 C364.269319,24.1570072 363.895319,24.1630072 363.520319,24.1630072 L357.337819,24.1642572 L351.155319,24.1640072 C350.863319,24.1640072 350.572319,24.1630072 350.281319,24.1720072 L350.075527,24.1726632 C349.971799,24.1741272 349.870519,24.1830072 349.788319,24.2250072 C348.938319,24.6650072 349.384319,25.4650072 349.301319,26.1110072 C349.236319,26.6160072 349.415319,27.0200072 350.031319,27.0330072 C350.447319,27.0420072 350.863319,27.0490072 351.279319,27.0490072 L356.692282,27.0476739 C357.594319,27.0483406 358.496319,27.0503406 359.398319,27.0550072 C360.650319,27.0620072 360.761319,27.1680072 360.765319,28.4050072 C360.777319,32.3010072 360.775319,36.1970072 360.766319,40.0940072 C360.762319,41.5340072 360.559319,41.7480072 359.095319,41.7550072 C355.514319,41.7720072 351.934319,41.7620072 348.353319,41.7620072 C343.607319,41.7620072 338.860319,41.7610072 334.114319,41.7610072 C333.823319,41.7610072 333.531319,41.7710072 333.240319,41.7560072 C332.213319,41.7040072 332.017319,41.5370072 332.006319,40.4740072 C331.981319,37.9460072 331.994319,35.4170072 331.994319,32.8890072 C331.993319,31.3550072 331.976319,29.8210072 332.004319,28.2880072 C332.023319,27.2010072 332.161319,27.0650072 333.246319,27.0580072 C335.952319,27.0400072 338.658319,27.0510072 341.365319,27.0490072 C341.656319,27.0490072 341.948319,27.0520072 342.239319,27.0420072 C342.404319,27.0360072 342.594319,27.0510072 342.729319,26.9780072 C343.563319,26.5260072 343.141319,25.7330072 343.202319,25.0820072 C343.251319,24.5670072 343.022319,24.1930072 342.427319,24.1800072 C342.094319,24.1720072 341.761319,24.1650072 341.428319,24.1650072 C337.348319,24.1640072 333.268319,24.1650072 329.188319,24.1640072 C328.813319,24.1640072 328.439319,24.1590072 328.064319,24.1450072 C327.578319,24.1280072 327.259319,23.8870072 327.250319,23.3910072 C327.230319,22.2310072 327.231319,21.0700072 327.247319,19.9100072 C327.254319,19.4270072 327.527319,19.1450072 328.029319,19.1250072 C328.362319,19.1110072 328.695319,19.1040072 329.028319,19.1040072 C334.815319,19.1030072 340.602319,19.1030072 346.389319,19.1030072 Z M346.445319,31.8240072 L342.698319,31.8240072 L339.202319,31.8340072 C338.616319,31.8370072 338.237319,32.0820072 338.235319,32.7120072 C338.230319,33.7890072 338.231319,34.8670072 338.244319,35.9440072 C338.251319,36.4990072 338.566319,36.7680072 339.113319,36.7810072 C339.446319,36.7900072 339.779319,36.8010072 340.112319,36.8010072 C344.150319,36.8040072 348.188319,36.8060072 352.226319,36.8070072 C352.684319,36.8080072 353.143319,36.8220072 353.599319,36.7970072 C354.524319,36.7460072 354.647319,36.6240072 354.673319,35.6640072 C354.695319,34.8360072 354.687319,34.0070072 354.674319,33.1780072 C354.654319,31.9240072 354.578319,31.8370072 353.314319,31.8290072 C351.024319,31.8150072 348.735319,31.8250072 346.445319,31.8240072 Z" id="Path-5" fill="#fff"></path>
                <path d="M207.346919,21.2136072 C207.346919,27.5526072 207.347919,33.8916072 207.345919,40.2306072 C207.344919,42.1386072 207.241919,42.2396072 205.284919,42.2496072 C204.410919,42.2546072 203.534919,42.2756072 202.663919,42.2306072 C201.836919,42.1876072 201.674919,41.9986072 201.607919,41.1606072 C201.577919,40.7896072 201.591919,40.4156072 201.591919,40.0426072 C201.590919,34.4076072 201.593919,28.7726072 201.589919,23.1386072 C201.588919,21.4066072 201.506919,21.3356072 199.739919,21.3826072 C198.486919,21.4156072 198.383919,21.4936072 198.380919,22.7406072 C198.370919,27.7536072 198.375919,32.7676072 198.376919,37.7806072 C198.376919,40.2636072 198.377919,40.2646072 195.939919,40.2636072 C195.231919,40.2636072 194.521919,40.2886072 193.817919,40.2376072 C193.046919,40.1816072 192.889919,39.9986072 192.826919,39.2406072 C192.798919,38.9116072 192.814919,38.5786072 192.814919,38.2466072 C192.811919,26.3976072 192.809919,14.5476072 192.807919,2.69860725 C192.807919,0.905607245 193.075919,0.636607245 194.829919,0.826607245 C195.660919,0.915607245 196.490919,0.901607245 197.321919,0.932607245 C198.336919,0.969607245 198.513919,1.15860725 198.468919,2.10560725 C198.261919,6.41160725 198.415919,10.7206072 198.385919,15.0276072 C198.375919,16.3216072 198.496919,16.4026072 199.842919,16.4216072 C200.009919,16.4236072 200.176919,16.4266072 200.342919,16.4196072 C201.398919,16.3766072 201.573919,16.2346072 201.581919,15.1696072 C201.602919,12.4346072 201.590919,9.70060725 201.591919,6.96560725 C201.591919,5.14260725 201.579919,3.31960725 201.596919,1.49660725 C201.609919,0.151607245 201.836919,-0.060392755 203.134919,0.086607245 C203.923919,0.175607245 204.711919,0.175607245 205.501919,0.178607245 C207.340919,0.186607245 207.342919,0.185607245 207.345919,2.07260725 C207.347919,3.56360725 207.345919,5.05560725 207.345919,6.54660725 C207.345919,11.4356072 207.345919,16.3246072 207.346919,21.2136072" id="Fill-5" fill="#fff"></path>
                <path d="M386.858019,42.0556072 C382.487019,42.0556072 378.117019,42.0556072 373.746019,42.0546072 C373.413019,42.0546072 373.078019,42.0696072 372.747019,42.0386072 C371.948019,41.9626072 371.766019,41.7686072 371.696019,40.9456072 C371.674019,40.6986072 371.683019,40.4486072 371.683019,40.1996072 C371.682019,37.6716072 371.679019,35.1446072 371.682019,32.6166072 C371.684019,30.8086072 371.706019,30.7906072 373.474019,30.7906072 C379.843019,30.7916072 386.212019,30.7936072 392.580019,30.7936072 C392.955019,30.7936072 393.330019,30.7896072 393.704019,30.7726072 C394.223019,30.7486072 394.428019,30.4376072 394.427019,29.9516072 C394.425019,29.4626072 394.205019,29.1606072 393.694019,29.1306072 C393.321019,29.1096072 392.946019,29.1076072 392.571019,29.1076072 C386.286019,29.1066072 380.000019,29.1086072 373.715019,29.1066072 C371.734019,29.1066072 371.714019,29.0856072 371.709019,27.0806072 C371.708019,26.4596072 371.68072,25.8336072 371.739019,25.2176072 C371.811019,24.4446072 372.065019,24.2256072 372.849019,24.1406072 C373.138019,24.1096072 373.431019,24.1216072 373.723019,24.1216072 C382.006019,24.1216072 390.290019,24.1236072 398.573019,24.1246072 C400.616019,24.1246072 400.680019,24.1756072 400.672019,26.2106072 C400.663019,28.6956072 400.728019,31.1806072 400.529019,33.6636072 C400.410019,35.1496072 400.339019,35.2966072 398.846019,35.2986072 C392.478019,35.3076072 386.109019,35.3026072 379.740019,35.3046072 C379.324019,35.3046072 378.907019,35.3086072 378.492019,35.3306072 C377.976019,35.3586072 377.776019,35.6686072 377.778019,36.1586072 C377.779019,36.6436072 377.959019,36.9616072 378.490019,36.9776072 C378.823019,36.9886072 379.156019,36.9906072 379.489019,36.9906072 C386.399019,36.9886072 393.309019,36.9856072 400.219019,36.9856072 C402.134019,36.9856072 402.166019,37.0176072 402.171019,38.9316072 C402.173019,39.6356072 402.168019,40.3406072 402.132019,41.0436072 C402.100019,41.6776072 401.749019,42.0276072 401.094019,42.0396072 C400.719019,42.0456072 400.345019,42.0536072 399.970019,42.0546072 C395.599019,42.0556072 391.229019,42.0546072 386.858019,42.0556072" id="Fill-7" fill="#fff"></path>
                <path d="M267.879919,7.43030725 C269.615919,10.0803072 270.285919,13.0413072 270.556919,16.1263072 C270.614919,16.7843072 270.565919,17.4513072 270.565919,18.1143072 C270.706919,20.8023072 270.237919,23.4033072 269.297919,25.9103072 C268.256919,28.6833072 266.520919,30.8843072 263.795919,32.2293072 C260.018919,34.0943072 254.888919,33.0333072 252.185919,29.8133072 C250.994919,28.3943072 250.135919,26.8033072 249.598919,25.0333072 C248.136919,20.2103072 248.120919,15.3953072 249.759919,10.6183072 C250.537919,8.35230725 251.740919,6.34230725 253.720919,4.86630725 C257.860919,1.78030725 264.566919,2.37230725 267.879919,7.43030725 Z M257.414919,8.93130725 C256.346919,9.86530725 255.701919,11.0513072 255.313919,12.3933072 C254.781919,14.2363072 254.476919,16.1113072 254.495919,18.0373072 C254.548919,18.9463072 254.556919,19.8613072 254.667919,20.7643072 C254.768919,21.5833072 254.941919,22.4003072 255.153919,23.1993072 C255.485919,24.4513072 256.014919,25.6213072 256.843919,26.6353072 C258.258919,28.3663072 260.330919,28.5173072 261.983919,27.0253072 C262.808919,26.2813072 263.363919,25.3613072 263.720919,24.3333072 C265.187919,20.1083072 265.146919,15.8743072 263.685919,11.6593072 C263.314919,10.5883072 262.685919,9.65530725 261.814919,8.90730725 C260.404919,7.69730725 258.804919,7.71430725 257.414919,8.93130725 Z" id="Path-7" fill="#fff"></path>
                <path d="M98.8074186,7.17330725 C100.694419,9.78630725 101.384419,12.7893072 101.644419,15.9223072 C101.706419,16.6623072 101.653419,17.4113072 101.653419,18.1563072 C101.774419,21.4843072 101.211419,24.6803072 99.6204186,27.6353072 C97.9074186,30.8163072 95.2514186,32.7403072 91.6074186,33.0083072 C87.9484186,33.2773072 84.9444186,31.9373072 82.7584186,28.9223072 C80.9944186,26.4903072 80.2374186,23.6903072 79.9644186,20.7883072 C79.6244186,17.1803072 79.8134186,13.5873072 81.1814186,10.1503072 C82.8174186,6.04130725 85.6364186,3.36230725 90.2234186,3.06130725 C93.8044186,2.82630725 96.6964186,4.24930725 98.8074186,7.17330725 Z M88.2044186,9.25430725 C87.4244186,10.0823072 86.8244186,11.0033072 86.4724186,12.0893072 C85.8404186,14.0393072 85.5814186,16.0373072 85.6634186,18.1603072 C85.5484186,20.2573072 85.8824186,22.3673072 86.6274186,24.4153072 C86.8984186,25.1623072 87.2374186,25.8783072 87.7684186,26.4663072 C89.5174186,28.4013072 91.6954186,28.7123072 93.6094186,26.7773072 C94.3614186,26.0173072 94.8304186,25.1093072 95.1644186,24.1233072 C96.3074186,20.7463072 96.3504186,17.3113072 95.6854186,13.8393072 C95.3684186,12.1863072 94.8174186,10.6403072 93.6294186,9.39530725 C92.2094186,7.90730725 90.1334186,7.20630725 88.2044186,9.25430725 Z" id="Path-8" fill="#fff"></path>
                <path d="M431.088919,4.23430725 C433.669919,4.23430725 436.249919,4.23430725 438.830919,4.23430725 C439.121919,4.23430725 439.414919,4.22030725 439.704919,4.24530725 C440.548919,4.31830725 440.700919,4.46030725 440.714919,5.32330725 C440.741919,7.06630725 440.661919,8.81030725 440.379919,10.5273072 C439.738919,14.4353072 438.670919,18.2233072 436.676919,21.6803072 C434.633919,25.2223072 432.176919,28.4253072 428.891919,30.9693072 C426.942919,32.4793072 424.842919,33.7263072 422.727919,34.9643072 C421.983919,35.4003072 421.802919,35.3693072 421.254919,34.6883072 C420.449919,33.6863072 419.668919,32.6623072 418.905919,31.6273072 C418.443919,31.0003072 418.497919,30.7533072 419.173919,30.3303072 C420.053919,29.7793072 420.964919,29.2773072 421.849919,28.7323072 C423.834919,27.5083072 425.722919,26.1733072 427.292919,24.4163072 C428.424919,23.1493072 429.740919,22.0403072 430.545919,20.5083072 C430.731919,20.1543072 431.159919,19.7853072 430.898919,19.3953072 C430.632919,18.9993072 430.130919,19.2713072 429.732919,19.3133072 C426.879919,19.6163072 424.026919,19.9343072 421.172919,20.2283072 C420.170919,20.3323072 420.000919,20.2033072 419.947919,19.1853072 C419.894919,18.1863072 419.692919,17.2133072 419.565919,16.2283072 C419.425919,15.1503072 419.553919,14.9573072 420.599919,14.8733072 C422.755919,14.6983072 424.912919,14.5423072 427.069919,14.3953072 C428.729919,14.2823072 430.383919,14.1173072 432.050919,14.0793072 C433.403919,14.0483072 433.565919,13.8593072 433.821919,12.5033072 C433.966919,11.7313072 434.057919,10.9493072 434.167919,10.1703072 C434.233919,9.70030725 434.012919,9.46730725 433.545919,9.45430725 C433.212919,9.44530725 432.879919,9.43830725 432.546919,9.43830725 C429.508919,9.43730725 426.469919,9.43830725 423.431919,9.43630725 C423.056919,9.43530725 422.682919,9.42630725 422.308919,9.40630725 C421.760919,9.37630725 421.460919,9.06330725 421.449919,8.53330725 C421.423919,7.37430725 421.417919,6.21430725 421.429919,5.05530725 C421.434919,4.56230725 421.747919,4.30530725 422.224919,4.26630725 C422.596919,4.23530725 422.972919,4.23030725 423.346919,4.22930725 C425.927919,4.22630725 428.507919,4.22830725 431.088919,4.22830725 L431.088919,4.23430725 Z" id="Fill-13" fill="#fff"></path>
                <path d="M454.387919,21.3323072 L454.387919,39.9803072 C454.387919,40.2293072 454.391919,40.4783072 454.386919,40.7263072 C454.359919,42.1033072 454.232919,42.2433072 452.899919,42.2633072 C451.817919,42.2793072 450.734919,42.2803072 449.652919,42.2633072 C448.320919,42.2413072 448.175919,42.0983072 448.170919,40.7243072 C448.158919,37.6993072 448.168919,34.6743072 448.167919,31.6493072 C448.167919,30.6543072 448.178919,29.6593072 448.158919,28.6653072 C448.134919,27.4973072 448.016919,27.3693072 446.867919,27.3543072 C445.202919,27.3323072 443.537919,27.3483072 441.872919,27.3443072 C441.539919,27.3433072 441.205919,27.3403072 440.874919,27.3093072 C440.388919,27.2653072 440.122919,26.9953072 440.121919,26.4963072 C440.119919,25.3363072 440.082919,24.1743072 440.131919,23.0163072 C440.163919,22.2553072 440.380919,22.1063072 441.303919,22.0933072 C442.843919,22.0723072 444.383919,22.0893072 445.923919,22.0903072 C446.298919,22.0903072 446.673919,22.1023072 447.047919,22.0843072 C447.989919,22.0383072 448.131919,21.9193072 448.155919,20.9843072 C448.184919,19.8253072 448.188919,18.6633072 448.156919,17.5043072 C448.132919,16.6413072 447.992919,16.5003072 447.103919,16.4883072 C445.355919,16.4653072 443.606919,16.4943072 441.858919,16.4923072 C440.831919,16.4913072 440.698919,16.3793072 440.668919,15.3663072 C440.639919,14.3723072 440.634919,13.3763072 440.669919,12.3823072 C440.701919,11.4413072 440.915919,11.2473072 441.893919,11.2153072 C442.390919,11.1993072 442.893919,11.2343072 443.387919,11.2933072 C444.723919,11.4533072 446.046919,11.2533072 447.373919,11.1743072 C447.870919,11.1443072 448.123919,10.8573072 448.143919,10.3713072 C448.159919,9.99930725 448.164919,9.62630725 448.164919,9.25330725 C448.166919,6.68430725 448.156919,4.11430725 448.167919,1.54530725 C448.173919,0.179307245 448.324919,0.031307245 449.654919,0.00930724504 C450.569919,-0.00469275496 451.485919,-0.00169275496 452.401919,0.010307245 C454.128919,0.034307245 454.364919,0.258307245 454.387919,1.93830725 C454.404919,3.13930725 454.389919,4.34130725 454.389919,5.54330725 C454.389919,10.8063072 454.389919,16.0693072 454.389919,21.3323072 L454.387919,21.3323072 Z" id="Fill-15" fill="#fff"></path>
                <path d="M460.675419,18.2484072 C460.675419,14.2704072 460.675419,10.2924072 460.675419,6.31440725 C460.675419,6.02340725 460.670419,5.73340725 460.677419,5.44340725 C460.712419,4.03140725 460.840419,3.89840725 462.282419,3.89740725 C467.818419,3.89340725 473.354419,3.89340725 478.890419,3.90040725 C480.311419,3.90240725 480.427419,4.03140725 480.440419,5.48440725 C480.447419,6.27140725 480.463419,7.06040725 480.424419,7.84540725 C480.383419,8.67540725 480.203419,8.84240725 479.372419,8.91840725 C479.000419,8.95240725 478.623419,8.93740725 478.249419,8.93840725 C474.960419,8.93940725 471.672419,8.93240725 468.384419,8.94240725 C466.994419,8.94740725 466.901419,9.04240725 466.899419,10.4384072 C466.892419,15.6594072 466.895419,20.8814072 466.896419,26.1024072 C466.896419,26.3094072 466.904419,26.5164072 466.910419,26.7234072 C466.926419,27.2984072 467.254419,27.5664072 467.797419,27.5104072 C470.410419,27.2414072 473.039419,27.4264072 475.653419,27.2174072 C477.811419,27.0444072 479.957419,26.8024072 482.084419,26.3844072 C483.104419,26.1844072 483.293419,26.3524072 483.456419,27.4334072 C483.592419,28.3344072 483.691419,29.2414072 483.785419,30.1474072 C483.872419,30.9864072 483.755419,31.1604072 482.923419,31.3614072 C481.261419,31.7624072 479.566419,31.9704072 477.866419,32.1084072 C472.679419,32.5294072 467.481419,32.6424072 462.279419,32.6014072 C460.807419,32.5894072 460.679419,32.4664072 460.676419,30.9284072 C460.669419,26.7024072 460.674419,22.4754072 460.675419,18.2484072" id="Fill-18" fill="#fff"></path>
                <path d="M346.417419,0.943807245 C349.432419,1.09580725 352.460419,1.27480725 355.344419,2.37080725 C357.074419,3.02980725 358.681419,3.89080725 359.853419,5.36280725 C361.788419,7.79280725 361.696419,10.9978072 359.662419,13.3458072 C358.976419,14.1378072 358.156419,14.7758072 357.242419,15.2778072 C354.722419,16.6628072 352.021419,17.3278072 349.140419,17.4798072 C346.514419,17.6188072 343.913419,17.5808072 341.320419,17.1738072 C339.122419,16.8288072 337.040419,16.1398072 335.142419,14.9618072 C334.069419,14.2958072 333.145419,13.4608072 332.483419,12.3848072 C331.040419,10.0338072 331.363419,7.12980725 333.286419,5.03580725 C334.738419,3.45380725 336.619419,2.58880725 338.634419,1.99380725 C341.163419,1.24780725 343.772419,1.03680725 346.417419,0.943807245 Z M340.652419,6.62580725 C339.893419,6.87980725 339.190419,7.23780725 338.616419,7.79880725 C337.664419,8.72980725 337.661419,9.64580725 338.566419,10.6278072 C339.270419,11.3898072 340.178419,11.7878072 341.149419,12.0608072 C342.926419,12.5598072 344.741419,12.7488072 346.695419,12.6668072 C348.516419,12.7598072 350.406419,12.5648072 352.225419,11.8608072 C352.969419,11.5718072 353.673419,11.2148072 354.255419,10.6688072 C355.107419,9.86880725 355.148419,8.91780725 354.394419,8.02180725 C353.726419,7.22680725 352.813419,6.83780725 351.858419,6.51280725 C350.462419,6.03780725 349.001419,5.90480725 347.554419,5.84780725 C345.224419,5.75480725 342.897419,5.87480725 340.652419,6.62580725 Z" id="Path-6" fill="#fff"></path>
                <path d="M392.645819,1.24190725 C394.831819,1.63790725 396.923819,2.31090725 398.774819,3.58090725 C400.955819,5.07790725 401.874819,7.41790725 401.233819,9.85290725 C400.885819,11.1779072 400.148819,12.2519072 399.028819,13.0689072 C396.752819,14.7279072 394.168819,15.5579072 391.403819,15.9159072 C389.751819,16.1299072 388.092819,16.2269072 386.528819,16.1909072 C383.288819,16.2249072 380.199819,15.9279072 377.227819,14.8319072 C375.770819,14.2939072 374.374819,13.6259072 373.265819,12.5369072 C370.606819,9.92490725 370.962819,5.87190725 374.019819,3.67390725 C375.878819,2.33690725 378.013819,1.65090725 380.240819,1.24190725 C384.373819,0.482907245 388.513819,0.492907245 392.645819,1.24190725 Z M381.119819,6.08290725 C380.141819,6.30490725 379.212819,6.68890725 378.444819,7.35890725 C377.617819,8.08090725 377.603819,8.68090725 378.382819,9.45990725 C378.951819,10.0289072 379.659819,10.3749072 380.419819,10.6209072 C382.459819,11.2829072 384.558819,11.5009072 386.723819,11.4309072 C388.873819,11.4929072 391.013819,11.3169072 393.045819,10.4319072 C393.584819,10.1969072 394.092819,9.92990725 394.511819,9.51190725 C395.302819,8.72190725 395.304819,8.17790725 394.529819,7.39390725 C393.796819,6.64990725 392.843819,6.33090725 391.872819,6.10390725 C388.294819,5.27090725 384.702819,5.27190725 381.119819,6.08290725 Z" id="Path-4" fill="#fff"></path>
                <path d="M486.312519,21.1954072 C486.312519,14.7764072 486.311519,8.35740725 486.312519,1.93840725 C486.313519,0.049407245 486.347519,0.016407245 488.281519,0.00840724504 C489.071519,0.00540724504 489.861519,-0.00259275496 490.651519,0.011407245 C492.216519,0.037407245 492.385519,0.198407245 492.394519,1.71740725 C492.405519,3.41540725 492.397519,5.11340725 492.397519,6.81140725 C492.397519,9.21240725 492.393519,11.6144072 492.398519,14.0164072 C492.401519,15.6214072 492.439519,15.6564072 494.101519,15.6694072 C495.099519,15.6774072 496.098519,15.6494072 497.095519,15.6754072 C498.167519,15.7024072 498.354519,15.8804072 498.380519,16.8974072 C498.404519,17.8484072 498.405519,18.8024072 498.371519,19.7544072 C498.339519,20.6434072 498.157519,20.8294072 497.236519,20.8614072 C496.114519,20.9004072 494.990519,20.8694072 493.867519,20.8814072 C492.481519,20.8974072 492.393519,20.9804072 492.393519,22.3824072 C492.389519,28.3044072 492.396519,34.2264072 492.395519,40.1484072 C492.395519,42.2644072 492.391519,42.2664072 490.235519,42.2674072 C489.279519,42.2684072 488.321519,42.2914072 487.366519,42.2494072 C486.512519,42.2114072 486.367519,42.0444072 486.326519,41.1974072 C486.298519,40.6194072 486.316519,40.0384072 486.316519,39.4584072 C486.315519,33.3704072 486.315519,27.2834072 486.315519,21.1954072 L486.312519,21.1954072 Z" id="Fill-24" fill="#fff"></path>
                <path d="M172.610319,18.5187072 L172.610319,7.70270725 C172.610319,7.45370725 172.609319,7.20570725 172.610319,6.95670725 C172.617319,5.02370725 172.653319,4.98470725 174.541319,4.98470725 C178.620319,4.98370725 182.699319,4.98570725 186.778319,4.98570725 C187.028319,4.98670725 187.278319,4.97970725 187.528319,4.99170725 C188.665319,5.04470725 188.836319,5.19970725 188.864319,6.30470725 C188.884319,7.13370725 188.889319,7.96370725 188.851319,8.79070725 C188.811319,9.67970725 188.610319,9.86370725 187.724319,9.93670725 C187.393319,9.96370725 187.059319,9.94970725 186.726319,9.94870725 C184.436319,9.94170725 182.147319,9.91670725 179.858319,9.93070725 C178.768319,9.93770725 178.613319,10.0907072 178.611319,11.1527072 C178.601319,16.1257072 178.604319,21.0987072 178.618319,26.0717072 C178.621319,27.2157072 178.742319,27.3077072 179.940319,27.3327072 C183.068319,27.3967072 186.176319,27.1847072 189.257319,26.6297072 C190.410319,26.4227072 190.587319,26.5357072 190.769319,27.6447072 C190.897319,28.4207072 190.989319,29.2037072 191.062319,29.9867072 C191.150319,30.9397072 190.993319,31.1617072 190.055319,31.3647072 C188.344319,31.7347072 186.600319,31.9287072 184.861319,32.0357072 C181.291319,32.2557072 177.717319,32.4637072 174.136319,32.3407072 C172.786319,32.2947072 172.621319,32.1637072 172.616319,30.8267072 C172.603319,26.7237072 172.612319,22.6217072 172.610319,18.5187072" id="Fill-26" fill="#fff"></path>
                <path d="M13.2490186,22.1834072 C12.7120186,23.2124072 12.2310186,24.2154072 11.6790186,25.1774072 C9.87401862,28.3234072 7.47801862,30.9314072 4.43501862,32.9324072 C3.37801862,33.6284072 3.25501862,33.6124072 2.47901862,32.6934072 C1.81001862,31.9004072 1.15001862,31.0994072 0.501018622,30.2904072 C-0.199981378,29.4184072 -0.186981378,29.2524072 0.677018622,28.5974072 C1.47101862,27.9944072 2.26001862,27.3914072 3.00401862,26.7224072 C7.14801862,22.9914072 9.38201862,18.3384072 9.96901862,12.8284072 C10.2240186,10.4264072 10.1200186,8.02740725 10.1630186,5.62640725 C10.1700186,5.25340725 10.1680186,4.88040725 10.1840186,4.50740725 C10.2050186,4.02640725 10.4440186,3.70540725 10.9460186,3.70040725 C12.4440186,3.68540725 13.9420186,3.68240725 15.4400186,3.70440725 C15.9360186,3.71140725 16.1790186,4.04740725 16.2010186,4.52240725 C16.2240186,5.01940725 16.2310186,5.51640725 16.2270186,6.01440725 C16.2040186,8.87440725 16.2090186,11.7324072 16.6920186,14.5644072 C17.5530186,19.6064072 20.0130186,23.7074072 24.0240186,26.8924072 C24.2190186,27.0474072 24.4170186,27.1984072 24.6170186,27.3484072 C26.0210186,28.4024072 26.0130186,28.3954072 24.8720186,29.8154072 C24.2740186,30.5594072 23.7170186,31.3364072 23.1270186,32.0864072 C22.5480186,32.8224072 22.4760186,32.8244072 21.7410186,32.2764072 C18.3490186,29.7504072 15.7030186,26.6014072 13.7890186,22.8404072 C13.6790186,22.6254072 13.6290186,22.3624072 13.2490186,22.1834072" id="Fill-28" fill="#fff"></path>
                <path d="M114.420619,21.1290072 C114.420619,27.5090072 114.422619,33.8880072 114.419619,40.2680072 C114.418619,42.2360072 114.400619,42.2480072 112.373619,42.2530072 C111.707619,42.2548929 111.042619,42.2570072 110.376619,42.2500072 C108.707619,42.2350072 108.582619,42.1180072 108.577619,40.5030072 C108.570619,38.6380072 108.578619,36.7740072 108.578619,34.9100072 C108.578619,30.8090072 108.577619,26.7080072 108.577619,22.6070072 C108.577619,22.2750072 108.587619,21.9430072 108.570619,21.6120072 C108.521619,20.6080072 108.384619,20.4520072 107.396619,20.4300072 C106.315619,20.4060072 105.233619,20.4300072 104.151619,20.4300072 C103.860619,20.4300072 103.569619,20.4230072 103.278619,20.4170072 C102.738619,20.4050072 102.398619,20.1550072 102.389619,19.5960072 C102.373619,18.4780072 102.373619,17.3600072 102.382619,16.2420072 C102.386619,15.6100072 102.777619,15.3780072 103.359619,15.3760072 C104.358619,15.3740072 105.356619,15.3730072 106.355619,15.3700072 C106.771619,15.3690072 107.187619,15.3630072 107.603619,15.3630072 C108.203619,15.3630072 108.540619,15.0860072 108.557619,14.4700072 C108.565619,14.1800072 108.575619,13.8900072 108.575619,13.6000072 C108.574619,9.58200725 108.573619,5.56400725 108.568619,1.54500725 C108.566619,0.243007245 108.596619,0.194007245 109.862619,0.181007245 C111.026619,0.170007245 112.193619,0.160007245 113.356619,0.199007245 C114.211619,0.228007245 114.352619,0.399007245 114.414619,1.24500725 C114.438619,1.57500725 114.424619,1.90700725 114.424619,2.23900725 C114.424619,8.53500725 114.424619,14.8320072 114.424619,21.1290072 L114.420619,21.1290072 Z" id="Fill-31" fill="#fff"></path>
                <path d="M276.248619,21.0042072 C276.248619,14.6212072 276.247619,8.23920725 276.249619,1.85620725 C276.250619,0.093207245 276.332619,0.023207245 278.053619,0.00320724504 C279.137619,-0.00979275496 280.217619,0.040207245 281.292619,0.168207245 C282.157619,0.271207245 282.258619,0.383207245 282.312619,1.25720725 C282.333619,1.58820725 282.321619,1.92020725 282.321619,2.25220725 C282.322619,14.9342072 282.322619,27.6172072 282.322619,40.2992072 C282.321619,42.2642072 282.319619,42.2652072 280.304619,42.2682072 C279.513619,42.2692072 278.722619,42.2752072 277.932619,42.2662072 C276.410619,42.2492072 276.273619,42.1202072 276.256619,40.6502072 C276.243619,39.5722072 276.252619,38.4942072 276.252619,37.4172072 C276.252619,31.9462072 276.252619,26.4752072 276.252619,21.0042072 L276.248619,21.0042072 Z" id="Fill-33" fill="#fff"></path>
                <path d="M41.6949186,17.7774072 C41.6949186,14.0074072 41.6949186,10.2384072 41.6949186,6.46840725 C41.6949186,6.13740725 41.6849186,5.80540725 41.7029186,5.47440725 C41.7579186,4.41540725 41.9159186,4.24040725 42.9579186,4.22340725 C44.1639186,4.20340725 45.3719186,4.20240725 46.5779186,4.23640725 C47.5019186,4.26240725 47.6719186,4.42940725 47.6889186,5.34540725 C47.7179186,6.83640725 47.6989186,8.32740725 47.6989186,9.81840725 C47.6989186,14.7894072 47.6989186,19.7604072 47.6989186,24.7314072 C47.6989186,25.0214072 47.6839186,25.3124072 47.7039186,25.6014072 C47.7589186,26.3944072 47.8799186,26.5114072 48.6789186,26.5684072 C48.9269186,26.5864072 49.1779186,26.5824072 49.4269186,26.5744072 C53.9169186,26.4294072 58.3989186,26.1964072 62.8239186,25.3454072 C63.1509186,25.2824072 63.4769186,25.2154072 63.8049186,25.1594072 C64.3429186,25.0684072 64.7219186,25.2754072 64.8209186,25.8154072 C65.0229186,26.9144072 65.2049186,28.0184072 65.3589186,29.1244072 C65.4399186,29.7044072 65.0329186,29.9404072 64.5419186,30.0264072 C62.9449186,30.3064072 61.3489186,30.5974072 59.7439186,30.8284072 C58.3869186,31.0244072 57.0199186,31.1514072 55.6569186,31.2944072 C54.3339186,31.4334072 53.0169186,31.6114072 51.6789186,31.5874072 C49.0579186,31.5394072 46.4489186,31.9304072 43.8249186,31.8104072 C43.4929186,31.7954072 43.1569186,31.8184072 42.8279186,31.7814072 C42.0319186,31.6914072 41.8179186,31.4854072 41.7269186,30.7004072 C41.6839186,30.3314072 41.6969186,29.9554072 41.6959186,29.5834072 C41.6949186,25.6484072 41.6949186,21.7124072 41.6949186,17.7774072" id="Fill-35" fill="#fff"></path>
                <path d="M159.106219,20.5081072 C159.106219,26.4351072 159.108219,32.3621072 159.105219,38.2881072 C159.104219,40.2041072 159.046219,40.2571072 157.162219,40.2641072 C156.496219,40.2671072 155.829219,40.2731072 155.163219,40.2621072 C153.709219,40.2381072 153.576219,40.1141072 153.570219,38.7071072 C153.560219,36.6761072 153.568219,34.6451072 153.568219,32.6141072 C153.568219,28.8431072 153.568219,25.0711072 153.567219,21.3001072 C153.567219,20.9681072 153.556219,20.6371072 153.556219,20.3051072 C153.556219,19.6861072 153.240219,19.4021072 152.627219,19.4051072 C151.628219,19.4091072 150.629219,19.4171072 149.630219,19.3981072 C148.122219,19.3701072 147.889219,19.1361072 147.862219,17.6611072 C147.850219,16.9561072 147.837219,16.2501072 147.869219,15.5471072 C147.911219,14.6511072 148.099219,14.4511072 148.991219,14.4161072 C149.947219,14.3791072 150.906219,14.4071072 151.863219,14.4051072 C153.538219,14.4031072 153.565219,14.3851072 153.566219,12.7631072 C153.570219,9.44710725 153.565219,6.13110725 153.559219,2.81610725 C153.556219,0.944107245 153.558219,0.936107245 155.413219,0.936107245 C156.329219,0.936107245 157.245219,0.946107245 158.161219,0.951107245 C158.765219,0.955107245 159.090219,1.24410725 159.101219,1.85810725 C159.105219,2.14810725 159.112219,2.43810725 159.112219,2.72810725 C159.113219,8.65410725 159.112219,14.5811072 159.112219,20.5081072 L159.106219,20.5081072 Z" id="Fill-37" fill="#fff"></path>
                <path d="M161.617619,21.0052072 C161.617619,14.7912072 161.617619,8.57820725 161.617619,2.36420725 C161.617619,2.19820725 161.616619,2.03320725 161.617619,1.86720725 C161.629619,0.087207245 161.762619,-0.011792755 163.571619,0.124207245 C164.482619,0.193207245 165.401619,0.148207245 166.315619,0.192207245 C167.172619,0.234207245 167.300619,0.381207245 167.361619,1.24020725 C167.382619,1.52920725 167.371619,1.82020725 167.371619,2.11020725 C167.372619,14.7862072 167.373619,27.4612072 167.372619,40.1372072 C167.372619,42.1572072 167.289619,42.2402072 165.280619,42.2522072 C164.448619,42.2562072 163.615619,42.2752072 162.784619,42.2392072 C161.866619,42.2002072 161.697619,42.0222072 161.631619,41.1372072 C161.604619,40.7662072 161.617619,40.3912072 161.617619,40.0192072 C161.617619,33.6812072 161.617619,27.3432072 161.617619,21.0052072" id="Fill-39" fill="#fff"></path>
                <path d="M28.6190186,21.0837072 C28.6190186,14.5347072 28.6190186,7.98470725 28.6190186,1.43570725 C28.6190186,0.272707245 28.6660186,0.201707245 29.7760186,0.184707245 C30.9830186,0.165707245 32.1910186,0.160707245 33.3980186,0.198707245 C34.2600186,0.226707245 34.4000186,0.395707245 34.4670186,1.23470725 C34.4860186,1.48270725 34.4760186,1.73170725 34.4760186,1.98070725 C34.4750186,14.7067072 34.4750186,27.4317072 34.4720186,40.1577072 C34.4710186,42.2477072 34.4670186,42.2507072 32.4090186,42.2527072 C31.5350186,42.2537072 30.6590186,42.2747072 29.7860186,42.2307072 C28.8860186,42.1837072 28.7020186,41.9777072 28.6390186,41.1047072 C28.6150186,40.7747072 28.6280186,40.4417072 28.6280186,40.1097072 C28.6270186,33.7677072 28.6280186,27.4257072 28.6280186,21.0837072 L28.6190186,21.0837072 Z" id="Fill-41" fill="#fff"></path>
                <path d="M74.4327186,21.1260072 C74.4327186,27.5080072 74.4347186,33.8900072 74.4317186,40.2710072 C74.4307186,42.2280072 74.3967186,42.2750072 72.3797186,42.2460072 C71.4247186,42.2320072 70.4707186,42.1240072 69.5157186,42.0710072 C68.8957186,42.0370072 68.6277186,41.6950072 68.6167186,41.1090072 C68.6087186,40.6530072 68.6037186,40.1980072 68.6037186,39.7420072 C68.5997186,26.9780072 68.5967186,14.2140072 68.5937046,1.45100725 C68.5927186,0.258007245 68.6417186,0.195007245 69.8587186,0.182007245 C71.0237186,0.169007245 72.1907186,0.161007245 73.3547186,0.200007245 C74.2187186,0.229007245 74.3607186,0.395007245 74.4197186,1.23500725 C74.4457186,1.60600725 74.4317186,1.98100725 74.4317186,2.35300725 C74.4317186,8.61100725 74.4317186,14.8680072 74.4327186,21.1260072" id="Fill-43" fill="#fff"></path>
                <path d="M142.143919,23.1361072 C141.740919,23.2251072 141.713919,23.5481072 141.617919,23.8061072 C140.276919,27.4241072 137.864919,30.2121072 134.807919,32.4921072 C133.954919,33.1291072 133.847919,33.1011072 133.171919,32.3291072 C132.515919,31.5801072 131.867919,30.8251072 131.214919,30.0721072 C130.466919,29.2091072 130.467919,28.9891072 131.373919,28.2791072 C132.654919,27.2741072 133.823919,26.1561072 134.832919,24.8871072 C137.114919,22.0141072 138.225919,18.6641072 138.836919,15.1001072 C139.218919,12.8741072 139.060919,10.6391072 139.107919,8.40710725 C139.129919,7.33010725 139.084919,6.25110725 139.131919,5.17610725 C139.165919,4.40010725 139.347919,4.22810725 140.126919,4.20710725 C141.373919,4.17310725 142.623919,4.17210725 143.870919,4.20810725 C144.705919,4.23110725 144.865919,4.39710725 144.880919,5.27810725 C144.911919,7.10010725 144.868919,8.92410725 144.903919,10.7461072 C144.965919,14.0421072 145.475919,17.2551072 146.783919,20.3151072 C147.930919,22.9981072 149.564919,25.2961072 151.946919,27.0381072 C153.011919,27.8161072 153.033919,27.9851072 152.237919,28.9971072 C151.596919,29.8121072 150.929919,30.6071072 150.255919,31.3951072 C149.722919,32.0181072 149.633919,32.0391072 148.913919,31.5391072 C147.469919,30.5351072 146.270919,29.2651072 145.156919,27.9241072 C144.119919,26.6751072 143.250919,25.3101072 142.578919,23.8281072 C142.462919,23.5741072 142.389919,23.2851072 142.143919,23.1361072" id="Fill-45" fill="#fff"></path>
                <path d="M386.453319,17.5983072 C392.195319,17.5983072 397.936319,17.5963072 403.678319,17.5993072 C405.496319,17.6003072 405.497319,17.6053072 405.502319,19.3723072 C405.504319,20.0763072 405.522319,20.7813072 405.488319,21.4843072 C405.447319,22.3153072 405.258319,22.5063072 404.458319,22.5913072 C404.129319,22.6253072 403.793319,22.6093072 403.461319,22.6093072 C392.061319,22.6113072 380.661319,22.6123072 369.261319,22.6133072 C367.201319,22.6133072 367.194319,22.6063072 367.190241,20.5273072 C367.189319,19.8653072 367.198319,19.2023072 367.201319,18.5393072 C367.203319,17.9403072 367.478319,17.6083072 368.105319,17.6103072 C368.480319,17.6113072 368.854319,17.5993072 369.228319,17.5993072 C374.970319,17.5983072 380.711319,17.5983072 386.453319,17.5983072" id="Fill-47" fill="#fff"></path>
                <path d="M228.685819,34.3524072 C227.979819,34.3524072 227.272819,34.3794072 226.567819,34.3454072 C225.778819,34.3064072 225.587819,34.1494072 225.564819,33.3894072 C225.522819,32.0264072 225.521819,30.6604072 225.556819,29.2964072 C225.575819,28.5444072 225.767819,28.3654072 226.560819,28.3464072 C227.888819,28.3154072 229.219819,28.3104072 230.546819,28.3624072 C231.544819,28.4014072 231.781819,28.6664072 231.807819,29.6634072 C231.838819,30.8614072 231.839819,32.0624072 231.806819,33.2604072 C231.781819,34.1734072 231.618819,34.3114072 230.678819,34.3444072 C230.015819,34.3664072 229.350819,34.3484072 228.685819,34.3484072 L228.685819,34.3524072 Z" id="Fill-49" fill="#fff"></path>
                <path d="M228.640019,17.4488072 C227.974019,17.4488072 227.307019,17.4738072 226.643019,17.4428072 C225.790019,17.4028072 225.581019,17.2298072 225.558019,16.4208072 C225.521019,15.0968072 225.521019,13.7688072 225.561019,12.4448072 C225.583019,11.7078072 225.800019,11.4918072 226.569019,11.4698072 C227.941019,11.4308072 229.317019,11.4278072 230.687019,11.4858072 C231.545019,11.5228072 231.776019,11.7918072 231.802019,12.6648072 C231.840019,13.9068072 231.839019,15.1518072 231.806019,16.3938072 C231.782019,17.2528072 231.619019,17.3998072 230.762019,17.4378072 C230.056019,17.4688072 229.347019,17.4438072 228.640019,17.4438072 L228.640019,17.4488072 Z" id="Fill-51" fill="#fff"></path>
            </g>
        </g>
    </g>
</svg>