<svg width="264.000000" height="26.044739" viewBox="0 0 264 26.0447" fill="none" xmlns="http://www.w3.org/2000/svg" xmlns:xlink="http://www.w3.org/1999/xlink">
	<desc>
			Created with Pixso.
	</desc>
	<defs>
		<linearGradient id="paint_linear_2149_15184_0" x1="0.000000" y1="12.572784" x2="392.513214" y2="12.572784" gradientUnits="userSpaceOnUse">
			<stop stop-color="#FD8106"/>
			<stop offset="0.244792" stop-color="#EBBD7D"/>
			<stop offset="0.421875" stop-color="#9AD76D"/>
			<stop offset="0.576366" stop-color="#3BC4A1"/>
			<stop offset="0.838542" stop-color="#27A4FF"/>
			<stop offset="1.000000" stop-color="#B000DC"/>
		</linearGradient>
	</defs>
	<path id="Rectangle 129" d="M0 13.0224C0 5.83032 5.18262 0 11.5752 0L252.425 0C258.817 0 264 5.83032 264 13.0224C264 20.2144 258.817 26.0447 252.425 26.0447L11.5752 26.0447C5.18262 26.0447 0 20.2144 0 13.0224Z" fill-rule="nonzero" fill="url(#paint_linear_2149_15184_0)"/>
	<path id="Line 25 (Stroke)" d="M46.0381 26.0447L46.0381 0L46.5547 0L46.5547 26.0447L46.0381 26.0447Z" fill-rule="evenodd" fill="#FFFFFF"/>
	<path id="Line 26 (Stroke)" d="M87.2607 26.0447L87.2607 0L87.7773 0L87.7773 26.0447L87.2607 26.0447Z" fill-rule="evenodd" fill="#FFFFFF"/>
	<path id="Line 27 (Stroke)" d="M128.22 26.0447L128.22 0L128.736 0L128.736 26.0447L128.22 26.0447Z" fill-rule="evenodd" fill="#FFFFFF"/>
	<path id="Line 28 (Stroke)" d="M169.18 26.0447L169.18 0L169.696 0L169.696 26.0447L169.18 26.0447Z" fill-rule="evenodd" fill="#FFFFFF"/>
	<path id="Line 29 (Stroke)" d="M210.139 26.0447L210.139 0L210.655 0L210.655 26.0447L210.139 26.0447Z" fill-rule="evenodd" fill="#FFFFFF"/>
	<path id="1 등급" d="M26.3252 10.7805L26.3252 11.7181L21.2207 11.7181L21.2207 8.72498L26.2852 8.72498L26.2852 9.6716L22.2705 9.6716L22.2705 10.7805L26.3252 10.7805ZM33.1758 11.7361L32.2305 11.7361C32.3906 10.8076 32.3906 10.1494 32.3906 9.50031L32.3906 8.83316L27.3184 8.83316L27.3184 9.77979L31.3486 9.77979C31.3486 10.3297 31.3252 10.9518 31.1807 11.7361L26.4922 11.7361L26.4922 12.2951L20.4111 12.2951L20.4111 13.2688L27.0859 13.2688L27.0859 12.6918L33.1758 12.6918L33.1758 11.7361ZM16.7451 14.9547L16.7451 16.0275L20.3115 16.0275L20.3115 14.9547L19.1973 14.9547L19.1973 9.34705L18.3242 9.34705C17.9473 9.61749 17.5381 9.78879 16.9453 9.91501L16.9453 10.7354L18.0195 10.7354L18.0195 14.9547L16.7451 14.9547ZM31.3174 13.2237L31.3174 14.0892L28.3359 14.0892L28.3359 13.2237L27.2861 13.2237L27.2861 16.7127L32.375 16.7127L32.375 13.2237L31.3174 13.2237ZM23.7207 13.7466C25.3154 13.7466 26.2852 14.2965 26.2852 15.2792C26.2852 16.2529 25.3154 16.8029 23.7207 16.8029C22.126 16.8029 21.1641 16.2529 21.1641 15.2792C21.1641 14.2965 22.126 13.7466 23.7207 13.7466ZM23.7207 15.9013C24.7061 15.9013 25.2109 15.712 25.2109 15.2792C25.2109 14.8465 24.7061 14.6481 23.7207 14.6481C22.7344 14.6481 22.2295 14.8465 22.2295 15.2792C22.2295 15.712 22.7344 15.9013 23.7207 15.9013ZM31.3174 15.0088L31.3174 15.757L28.3359 15.757L28.3359 15.0088L31.3174 15.0088Z" fill-rule="evenodd" fill="#FFFFFF"/>
	<path id="2 등급" d="M67.2236 10.7805L67.2236 11.7181L62.1191 11.7181L62.1191 8.72498L67.1836 8.72498L67.1836 9.6716L63.1689 9.6716L63.1689 10.7805L67.2236 10.7805ZM74.0752 11.7361L73.1299 11.7361C73.29 10.8076 73.29 10.1494 73.29 9.50031L73.29 8.83316L68.2168 8.83316L68.2168 9.77979L72.248 9.77979C72.248 10.3297 72.2236 10.9518 72.0801 11.7361L67.3916 11.7361L67.3916 12.2951L61.3096 12.2951L61.3096 13.2688L67.9854 13.2688L67.9854 12.6918L74.0752 12.6918L74.0752 11.7361ZM57.3311 15.2612L57.3311 16.0275L61.3066 16.0275L61.3066 14.9096L60.0244 14.9096C59.7432 14.9096 59.3506 14.9456 59.0547 14.9817C60.1367 13.7917 61.0254 12.4934 61.0254 11.2854C61.0254 10.0412 60.2803 9.22983 59.1582 9.22983C58.3496 9.22983 57.8203 9.58145 57.2754 10.2396L57.916 10.9608C58.2207 10.5912 58.5732 10.2756 59.0068 10.2756C59.5752 10.2756 59.8955 10.6813 59.8955 11.3575C59.8955 12.3853 58.9424 13.6384 57.3311 15.2612ZM72.2158 13.2237L72.2158 14.0892L69.2344 14.0892L69.2344 13.2237L68.1846 13.2237L68.1846 16.7127L73.2734 16.7127L73.2734 13.2237L72.2158 13.2237ZM64.6191 13.7466C66.2139 13.7466 67.1836 14.2965 67.1836 15.2792C67.1836 16.2529 66.2139 16.8029 64.6191 16.8029C63.0244 16.8029 62.0635 16.2529 62.0635 15.2792C62.0635 14.2965 63.0244 13.7466 64.6191 13.7466ZM64.6191 15.9013C65.6055 15.9013 66.1104 15.712 66.1104 15.2792C66.1104 14.8465 65.6055 14.6481 64.6191 14.6481C63.6338 14.6481 63.1289 14.8465 63.1289 15.2792C63.1289 15.712 63.6338 15.9013 64.6191 15.9013ZM72.2158 15.0088L72.2158 15.757L69.2344 15.757L69.2344 15.0088L72.2158 15.0088Z" fill-rule="evenodd" fill="#FFFFFF"/>
	<path id="3 등급" d="M108.582 10.7805L108.582 11.7181L103.478 11.7181L103.478 8.72498L108.542 8.72498L108.542 9.6716L104.527 9.6716L104.527 10.7805L108.582 10.7805ZM115.434 11.7361L114.488 11.7361C114.648 10.8076 114.648 10.1494 114.648 9.50034L114.648 8.83316L109.575 8.83316L109.575 9.77979L113.606 9.77979C113.606 10.3297 113.582 10.9518 113.438 11.7361L108.75 11.7361L108.75 12.2951L102.668 12.2951L102.668 13.2688L109.344 13.2688L109.344 12.6918L115.434 12.6918L115.434 11.7361ZM98.5537 15.2251C98.9707 15.757 99.6035 16.1537 100.541 16.1537C101.671 16.1537 102.625 15.4415 102.625 14.2154C102.625 13.3409 102.112 12.782 101.446 12.5746L101.446 12.5295C102.071 12.25 102.433 11.7271 102.433 11.0059C102.433 9.86993 101.655 9.22983 100.509 9.22983C99.8115 9.22983 99.2432 9.54538 98.7305 10.0503L99.3311 10.8616C99.6836 10.492 100.028 10.2756 100.453 10.2756C100.958 10.2756 101.246 10.5822 101.246 11.1051C101.246 11.7001 100.894 12.1238 99.8037 12.1238L99.8037 13.0704C101.094 13.0704 101.438 13.4851 101.438 14.1343C101.438 14.7383 101.03 15.0719 100.429 15.0719C99.8916 15.0719 99.459 14.7744 99.1064 14.3867L98.5537 15.2251ZM113.574 13.2237L113.574 14.0892L110.593 14.0892L110.593 13.2237L109.543 13.2237L109.543 16.7127L114.632 16.7127L114.632 13.2237L113.574 13.2237ZM105.978 13.7466C107.572 13.7466 108.542 14.2965 108.542 15.2792C108.542 16.2529 107.572 16.8029 105.978 16.8029C104.383 16.8029 103.422 16.2529 103.422 15.2792C103.422 14.2965 104.383 13.7466 105.978 13.7466ZM105.978 15.9013C106.964 15.9013 107.469 15.712 107.469 15.2792C107.469 14.8465 106.964 14.6481 105.978 14.6481C104.992 14.6481 104.487 14.8465 104.487 15.2792C104.487 15.712 104.992 15.9013 105.978 15.9013ZM113.574 15.0088L113.574 15.757L110.593 15.757L110.593 15.0088L113.574 15.0088Z" fill-rule="evenodd" fill="#FFFFFF"/>
	<path id="4 등급" d="M149.245 10.7805L149.245 11.7181L144.141 11.7181L144.141 8.72498L149.205 8.72498L149.205 9.6716L145.19 9.6716L145.19 10.7805L149.245 10.7805ZM156.097 11.7361L155.151 11.7361C155.312 10.8076 155.312 10.1494 155.312 9.50031L155.312 8.83316L150.238 8.83316L150.238 9.77979L154.27 9.77979C154.27 10.3297 154.245 10.9518 154.102 11.7361L149.413 11.7361L149.413 12.2951L143.331 12.2951L143.331 13.2688L150.007 13.2688L150.007 12.6918L156.097 12.6918L156.097 11.7361ZM141.709 14.2965L141.709 16.0275L142.807 16.0275L142.807 14.2965L143.504 14.2965L143.504 13.2868L142.807 13.2868L142.807 9.34705L141.389 9.34705L139.177 13.395L139.177 14.2965L141.709 14.2965ZM141.709 13.2868L140.322 13.2868L141.244 11.628C141.412 11.2673 141.573 10.8977 141.717 10.5371L141.749 10.5371C141.733 10.9338 141.709 11.5378 141.709 11.9255L141.709 13.2868ZM154.237 13.2237L154.237 14.0892L151.256 14.0892L151.256 13.2237L150.206 13.2237L150.206 16.7127L155.295 16.7127L155.295 13.2237L154.237 13.2237ZM146.641 13.7466C148.235 13.7466 149.205 14.2965 149.205 15.2792C149.205 16.2529 148.235 16.8029 146.641 16.8029C145.046 16.8029 144.085 16.2529 144.085 15.2792C144.085 14.2965 145.046 13.7466 146.641 13.7466ZM146.641 15.9013C147.627 15.9013 148.132 15.712 148.132 15.2792C148.132 14.8465 147.627 14.6481 146.641 14.6481C145.655 14.6481 145.15 14.8465 145.15 15.2792C145.15 15.712 145.655 15.9013 146.641 15.9013ZM154.237 15.0088L154.237 15.757L151.256 15.757L151.256 15.0088L154.237 15.0088Z" fill-rule="evenodd" fill="#FFFFFF"/>
	<path id="5 등급" d="M190.881 10.7805L190.881 11.7181L185.776 11.7181L185.776 8.72498L190.841 8.72498L190.841 9.6716L186.826 9.6716L186.826 10.7805L190.881 10.7805ZM197.732 11.7361L196.787 11.7361C196.947 10.8076 196.947 10.1494 196.947 9.50034L196.947 8.83316L191.874 8.83316L191.874 9.77979L195.905 9.77979C195.905 10.3297 195.881 10.9518 195.737 11.7361L191.049 11.7361L191.049 12.2951L184.967 12.2951L184.967 13.2688L191.643 13.2688L191.643 12.6918L197.732 12.6918L197.732 11.7361ZM180.853 15.2432C181.293 15.739 181.918 16.1537 182.856 16.1537C183.954 16.1537 184.932 15.2973 184.932 13.8097C184.932 12.3582 184.098 11.6911 183.104 11.6911C182.832 11.6911 182.632 11.7542 182.392 11.8804L182.503 10.465L184.659 10.465L184.659 9.34705L181.485 9.34705L181.325 12.5926L181.862 12.9893C182.207 12.7369 182.399 12.6377 182.752 12.6377C183.353 12.6377 183.754 13.0704 183.754 13.8458C183.754 14.6301 183.32 15.0719 182.704 15.0719C182.15 15.0719 181.734 14.7654 181.397 14.3957L180.853 15.2432ZM195.873 13.2237L195.873 14.0892L192.892 14.0892L192.892 13.2237L191.842 13.2237L191.842 16.7127L196.931 16.7127L196.931 13.2237L195.873 13.2237ZM188.276 13.7466C189.871 13.7466 190.841 14.2965 190.841 15.2792C190.841 16.2529 189.871 16.8029 188.276 16.8029C186.682 16.8029 185.721 16.2529 185.721 15.2792C185.721 14.2965 186.682 13.7466 188.276 13.7466ZM188.276 15.9013C189.263 15.9013 189.768 15.712 189.768 15.2792C189.768 14.8465 189.263 14.6481 188.276 14.6481C187.291 14.6481 186.786 14.8465 186.786 15.2792C186.786 15.712 187.291 15.9013 188.276 15.9013ZM195.873 15.0088L195.873 15.757L192.892 15.757L192.892 15.0088L195.873 15.0088Z" fill-rule="evenodd" fill="#FFFFFF"/>
	<path id="인지지원 등급" d="M229.166 8.4996L228.108 8.4996L228.108 16.8029L229.166 16.8029L229.166 8.4996ZM234.519 8.4996L235.576 8.4996L235.576 16.8029L234.519 16.8029L234.519 8.4996ZM241.025 13.3229L239.639 13.3229L239.639 14.1343L241.025 14.1343L241.025 14.7924L242.083 14.7924L242.083 8.4996L241.025 8.4996L241.025 13.3229ZM222.771 8.50861L222.771 14.4678L221.706 14.4678L221.706 8.50861L222.771 8.50861ZM249.059 10.7805L249.059 11.7181L243.954 11.7181L243.954 8.72498L249.019 8.72498L249.019 9.6716L245.004 9.6716L245.004 10.7805L249.059 10.7805ZM236.385 10.2666C236.385 11.1501 237.139 11.7452 238.22 11.7452C239.294 11.7452 240.056 11.1501 240.056 10.2666C240.056 9.38312 239.294 8.77908 238.22 8.77908C237.139 8.77908 236.385 9.38312 236.385 10.2666ZM256.23 11.7361L255.284 11.7361C255.445 10.8076 255.445 10.1494 255.445 9.50034L255.445 8.83319L250.372 8.83319L250.372 9.77982L254.403 9.77982C254.403 10.3297 254.379 10.9518 254.234 11.7361L249.547 11.7361L249.547 12.2951L243.145 12.2951L243.145 13.2688L249.82 13.2688L249.82 12.6918L256.23 12.6918L256.23 11.7361ZM220.76 11.1411C220.76 12.3492 219.887 13.2417 218.757 13.2417C217.627 13.2417 216.745 12.3492 216.745 11.1411C216.745 9.91504 217.627 9.03152 218.757 9.03152C219.887 9.03152 220.76 9.91504 220.76 11.1411ZM225.904 10.7354L225.904 10.2757L227.427 10.2757L227.427 9.29297L223.292 9.29297L223.292 10.2757L224.83 10.2757L224.83 10.7354C224.83 12.1509 224.229 13.6745 222.995 14.2966L223.597 15.2432C224.462 14.8014 225.055 13.8909 225.384 12.809C225.712 13.8097 226.297 14.6211 227.154 15.0358L227.731 14.0982C226.497 13.5212 225.904 12.0878 225.904 10.7354ZM232.314 10.2757L232.314 10.7354C232.314 12.0878 232.907 13.5212 234.142 14.0982L233.564 15.0358C232.707 14.6211 232.122 13.8097 231.794 12.809C231.465 13.8909 230.872 14.8014 230.007 15.2432L229.405 14.2966C230.64 13.6745 231.241 12.1509 231.241 10.7354L231.241 10.2757L229.702 10.2757L229.702 9.29297L233.837 9.29297L233.837 10.2757L232.314 10.2757ZM237.379 10.2666C237.379 9.86093 237.724 9.64456 238.22 9.64456C238.709 9.64456 239.054 9.86093 239.054 10.2666C239.054 10.6723 238.709 10.8797 238.22 10.8797C237.724 10.8797 237.379 10.6723 237.379 10.2666ZM217.779 11.1411C217.779 11.8083 218.212 12.214 218.757 12.214C219.31 12.214 219.727 11.8083 219.727 11.1411C219.727 10.456 219.31 10.0593 218.757 10.0593C218.212 10.0593 217.779 10.456 217.779 11.1411ZM242.243 15.712L237.827 15.712L237.827 14.576L238.845 14.576L238.845 13.0074C239.438 12.9532 240.031 12.8811 240.608 12.7729L240.536 11.9255C238.981 12.1509 237.187 12.1689 235.84 12.1779L235.977 13.1245C236.529 13.1245 237.146 13.1155 237.795 13.0795L237.795 14.1884L236.77 14.1884L236.77 16.6586L242.243 16.6586L242.243 15.712ZM254.371 13.2237L254.371 14.0892L251.39 14.0892L251.39 13.2237L250.34 13.2237L250.34 16.7127L255.429 16.7127L255.429 13.2237L254.371 13.2237ZM246.454 13.7466C248.049 13.7466 249.019 14.2966 249.019 15.2792C249.019 16.2529 248.049 16.8029 246.454 16.8029C244.859 16.8029 243.897 16.2529 243.897 15.2792C243.897 14.2966 244.859 13.7466 246.454 13.7466ZM218.917 15.712L222.956 15.712L222.956 16.6586L217.859 16.6586L217.859 13.8818L218.917 13.8818L218.917 15.712ZM246.454 15.9013C247.439 15.9013 247.944 15.712 247.944 15.2792C247.944 14.8465 247.439 14.6482 246.454 14.6482C245.469 14.6482 244.964 14.8465 244.964 15.2792C244.964 15.712 245.469 15.9013 246.454 15.9013ZM254.371 15.0088L254.371 15.757L251.39 15.757L251.39 15.0088L254.371 15.0088Z" fill-rule="evenodd" fill="#FFFFFF"/>
</svg>
