<svg width="90" height="68" viewBox="0 0 90 68" fill="none" xmlns="http://www.w3.org/2000/svg">
<path id="Rectangle 3" fill-rule="evenodd" clip-rule="evenodd" d="M36.5476 21.6197C42.5177 21.6197 47.3574 16.7799 47.3574 10.8098C47.3574 4.83973 42.5177 0 36.5476 0C30.5774 0 25.7377 4.83973 25.7377 10.8098C25.7377 16.7799 30.5774 21.6197 36.5476 21.6197ZM29.6197 49.4164C25.2014 49.4164 21.6197 52.9981 21.6197 57.4164V59.9476C21.6197 64.3658 25.2014 67.9476 29.6197 67.9476H60.741L85.602 67.7979C88.0185 67.7833 89.9763 65.8324 89.9993 63.4159C90.0227 60.9562 88.0352 58.9497 85.5754 58.9497H62.3398L62.9342 58.5744L70.4209 51.7044C70.8517 51.309 71.4886 51.2369 71.9969 51.5261L78.9322 55.4711C80.7451 56.5024 83.0435 56.0063 84.2697 54.3192C85.6698 52.3928 85.1372 49.6825 83.1122 48.4293L72.1432 41.6407C71.5922 41.2996 70.8932 41.3099 70.3524 41.6669L62.7975 46.6546C62.9467 47.6877 62.6132 48.7321 61.8928 49.4875L61.5894 49.8057C60.3056 51.1518 58.3974 51.7037 56.5933 51.2508L49.2874 49.4164H29.6197ZM19.5607 58.1672C19.5607 63.5688 15.1819 67.9476 9.78033 67.9476C4.3788 67.9476 0 63.5688 0 58.1672C0 52.7657 4.3788 48.3869 9.78033 48.3869C15.1819 48.3869 19.5607 52.7657 19.5607 58.1672ZM31.8846 24.7082C27.4663 24.7082 23.8846 28.2899 23.8846 32.7082V44.6466C23.8846 45.7512 24.78 46.6466 25.8846 46.6466H49.2105L56.1443 48.6986C58.2459 49.3206 60.407 47.9208 60.6987 45.7485C60.9273 44.0461 59.9119 42.4219 58.2813 41.8818L51.4754 39.6274V35.0469L59.8903 38.2536C60.7514 38.5818 61.6972 38.6137 62.5784 38.3444L70.1762 36.0227C71.9195 35.4901 72.9825 33.7307 72.6433 31.9397C72.258 29.9057 70.2305 28.6235 68.2276 29.1473L62.2456 30.7117C61.7555 30.8399 61.2354 30.7845 60.7833 30.5561L50.9121 25.568C49.7934 25.0027 48.5575 24.7082 47.304 24.7082H31.8846Z" fill="url(#paint0_linear_2242_3445)"/>
<defs>
<linearGradient id="paint0_linear_2242_3445" x1="23.3444" y1="33.9738" x2="23.3444" y2="66.6724" gradientUnits="userSpaceOnUse">
<stop stop-color="#4E5B7F"/>
<stop offset="1" stop-color="#4E5B7F" stop-opacity="0.499645"/>
</linearGradient>
</defs>
</svg>
