<svg width="61" height="66" viewBox="0 0 61 66" fill="none" xmlns="http://www.w3.org/2000/svg">
<path id="Oval 2" fill-rule="evenodd" clip-rule="evenodd" d="M30.5 65.3321C47.0685 65.3321 60.5 50.707 60.5 32.6661C60.5 14.6251 47.0685 0 30.5 0C13.9315 0 0.5 14.6251 0.5 32.6661C0.5 50.707 13.9315 65.3321 30.5 65.3321ZM20.5809 21.4839C19.6767 22.1529 18.5579 22.5486 17.3467 22.5486C14.3407 22.5486 11.9039 20.1118 11.9039 17.1058C11.9039 14.0999 14.3407 11.6631 17.3467 11.6631C17.4539 11.6631 17.5605 11.6662 17.6662 11.6723C18.264 10.2943 19.6366 9.33044 21.2344 9.33044C21.5798 9.33044 21.9147 9.37549 22.2335 9.46003C23.79 7.04324 26.5046 5.44276 29.5929 5.44276C30.9965 5.44276 32.3228 5.77333 33.4983 6.36086C34.1755 5.78809 35.0512 5.44276 36.0076 5.44276C37.1637 5.44276 38.202 5.94745 38.9142 6.74854C39.4217 6.65691 39.9445 6.60906 40.4784 6.60906C44.9893 6.60906 48.7027 10.0236 49.175 14.409C49.3193 14.3928 49.4659 14.3844 49.6145 14.3844C51.7616 14.3844 53.5022 16.125 53.5022 18.2721C53.5022 18.4604 53.4888 18.6456 53.4629 18.8268C55.0604 19.3099 56.2235 20.7934 56.2235 22.5486C56.2235 23.8866 55.5476 25.0667 54.5186 25.7661C53.9514 28.132 51.839 29.897 49.3082 29.9346C47.7391 32.2792 45.0666 33.8229 42.0335 33.8229C40.1215 33.8229 38.3528 33.2094 36.9134 32.1686C35.7588 32.7302 34.4621 33.0453 33.0918 33.0453C28.4035 33.0453 24.5767 29.357 24.3547 24.7236C22.8054 24.0289 21.495 22.8965 20.5809 21.4839ZM37.3898 23.9349C37.1592 23.2429 37.6742 22.5283 38.4036 22.5283C38.8636 22.5283 39.2719 22.8227 39.4174 23.259L39.6491 23.9543L40.7727 23.5797C41.4664 23.3485 42.2163 23.3485 42.9099 23.5797L44.4899 24.1064C44.9263 24.2518 45.2206 24.6602 45.2206 25.1202C45.2206 25.8496 44.506 26.3646 43.814 26.1339L42.4959 25.6946C42.071 25.5529 41.6116 25.5529 41.1867 25.6946L40.1143 26.052C40.101 26.3645 40.0442 26.6756 39.944 26.9762L39.4174 28.5561C39.2719 28.9925 38.8636 29.2868 38.4036 29.2868C37.6742 29.2868 37.1592 28.5722 37.3898 27.8803L37.8292 26.5622C37.9708 26.1373 37.9708 25.6779 37.8292 25.253L37.3898 23.9349ZM20.1983 12.8502C19.5639 12.4904 19.4685 11.6147 20.0105 11.1266C20.3523 10.8189 20.8527 10.7643 21.2528 10.9913L22.7014 11.813C22.875 11.9115 23.0386 12.0246 23.1906 12.1507L23.9076 11.5945C24.479 11.1513 25.1989 10.9448 25.9183 11.0179L27.1106 11.1391C27.5361 11.1823 27.8924 11.4802 28.0102 11.8913C28.2142 12.6025 27.6353 13.2948 26.8992 13.22L26.0616 13.1349C25.6488 13.093 25.2357 13.2115 24.9079 13.4658L24.3488 13.8995L24.7973 14.9278C24.9812 15.3494 24.8747 15.8414 24.5328 16.1492C23.9908 16.6372 23.1299 16.4508 22.8383 15.7823L22.2828 14.5087C22.1038 14.0982 21.7964 13.7568 21.4068 13.5358L20.1983 12.8502ZM32.3061 17.8238C31.7942 18.3435 30.9237 18.209 30.5926 17.5591C30.3838 17.1493 30.4606 16.6518 30.7834 16.3241L31.952 15.1376C32.0128 15.0759 32.0757 15.0168 32.1406 14.9602C31.9786 14.556 31.9352 14.1081 32.0247 13.6707L32.179 12.9166C32.2555 12.5428 32.5367 12.2442 32.9053 12.1454C33.6287 11.9516 34.3032 12.5868 34.1531 13.3206L34.0941 13.6086C34.0584 13.7834 34.0628 13.9613 34.1042 14.13L35.5032 13.9192C35.958 13.8507 36.4056 14.081 36.6145 14.4908C36.9456 15.1407 36.5427 15.924 35.8215 16.0326L34.5351 16.2264C34.4145 16.3513 34.2582 16.4475 34.0714 16.4976C33.9391 16.533 33.8037 16.5406 33.6727 16.5224C33.5309 16.6095 33.3993 16.7139 33.281 16.8339L32.3061 17.8238ZM47.7309 22.0915C48.4355 21.9027 48.748 21.0792 48.3461 20.4705L47.5806 19.311C47.3338 18.9372 47.2149 18.4935 47.2417 18.0464L47.325 16.6595C47.3687 15.9314 46.6863 15.3745 45.9817 15.5633C45.5374 15.6823 45.2192 16.0723 45.1916 16.5314L45.0918 18.1939C45.048 18.9237 45.2421 19.6481 45.645 20.2583L46.5626 21.6481C46.816 22.0319 47.2867 22.2105 47.7309 22.0915ZM28.908 24.4826C28.4633 25.0608 27.5829 25.0334 27.175 24.4287C26.9178 24.0474 26.9335 23.5443 27.2139 23.1797L28.2292 21.8596C28.675 21.28 29.2967 20.8606 30.0011 20.6644L31.6054 20.2175C32.0485 20.0941 32.5209 20.2681 32.7781 20.6494C33.1859 21.2541 32.8815 22.0807 32.1789 22.2764L30.8404 22.6492C30.409 22.7694 30.0281 23.0263 29.7551 23.3813L28.908 24.4826Z" fill="url(#paint0_linear_2242_3460)"/>
<defs>
<linearGradient id="paint0_linear_2242_3460" x1="15.5" y1="32.6661" x2="15.5" y2="65.3321" gradientUnits="userSpaceOnUse">
<stop stop-color="#9E906C"/>
<stop offset="1" stop-color="#9E906C" stop-opacity="0.50041"/>
</linearGradient>
</defs>
</svg>
