<svg width="301" height="449" viewBox="0 0 301 449" fill="none" xmlns="http://www.w3.org/2000/svg">
<path d="M0 208H301V250H0V208Z" fill="#4E5B7F"/>
<g clip-path="url(#clip0_2149_11361)">
<path d="M75.1409 272.127H77.4733V275.827H75.1409V272.127ZM76.3159 263.814C79.7881 263.814 82.3835 265.585 82.3835 268.286C82.3835 271.022 79.7881 272.775 76.3159 272.775C72.8436 272.775 70.2482 271.022 70.2482 268.286C70.2482 265.585 72.8436 263.814 76.3159 263.814ZM76.3159 265.656C74.0887 265.656 72.5455 266.638 72.5455 268.286C72.5455 269.97 74.0887 270.934 76.3159 270.934C78.543 270.934 80.0863 269.97 80.0863 268.286C80.0863 266.638 78.543 265.656 76.3159 265.656ZM68.9856 275.459H83.6813V277.353H68.9856V275.459Z" fill="#4E5B7F"/>
<path d="M84.8446 271.758H99.5578V273.617H84.8446V271.758ZM86.6859 277.089H98.1373V278.948H86.6859V277.089ZM86.6859 274.512H89.0183V277.896H86.6859V274.512ZM86.6509 263.358H97.7691V267.865H88.9832V269.549H86.6684V266.217H95.4718V265.13H86.6509V263.358ZM86.6684 269.005H98.0847V270.759H86.6684V269.005Z" fill="#4E5B7F"/>
<path d="M103.808 264.533H105.526V265.393C105.526 267.269 104.439 269.058 101.949 269.672L101.002 267.97C102.896 267.532 103.808 266.41 103.808 265.393V264.533ZM104.492 264.533H106.122V265.358C106.122 266.287 107.017 267.339 108.735 267.76L108.051 269.461C105.509 268.865 104.492 267.059 104.492 265.358V264.533ZM109.98 264.533H111.611V265.358C111.611 267.076 110.594 268.882 108.051 269.461L107.368 267.76C109.086 267.339 109.98 266.304 109.98 265.358V264.533ZM110.612 264.533H112.33V265.393C112.33 266.462 113.225 267.55 115.136 267.97L114.172 269.672C111.699 269.058 110.612 267.322 110.612 265.393V264.533ZM101.703 263.551H107.736V265.393H101.703V263.551ZM108.385 263.551H114.4V265.393H108.385V263.551ZM100.721 270.776H115.417V272.618H100.721V270.776ZM106.894 269.461H109.226V272.232H106.894V269.461ZM102.317 273.915H113.646V279.229H111.313V275.757H102.317V273.915Z" fill="#4E5B7F"/>
<path d="M123.875 263.867H125.786V265.305C125.786 268.532 124.384 271.373 121.297 272.442L120.052 270.601C122.77 269.689 123.875 267.515 123.875 265.305V263.867ZM124.348 263.867H126.242V265.533C126.242 267.479 127.33 269.373 129.873 270.163L128.662 271.969C125.734 270.987 124.348 268.461 124.348 265.533V263.867ZM130.767 262.99H133.099V272.583H130.767V262.99ZM132.45 266.743H135.256V268.672H132.45V266.743ZM127.803 272.951C131.17 272.951 133.292 274.126 133.292 276.09C133.292 278.072 131.17 279.229 127.803 279.229C124.419 279.229 122.297 278.072 122.297 276.09C122.297 274.126 124.419 272.951 127.803 272.951ZM127.803 274.757C125.734 274.757 124.612 275.196 124.612 276.09C124.612 277.002 125.734 277.423 127.803 277.423C129.873 277.423 130.977 277.002 130.977 276.09C130.977 275.196 129.873 274.757 127.803 274.757Z" fill="#4E5B7F"/>
<path d="M140.102 265.55H141.961V267.374C141.961 271.127 140.435 274.792 137.384 276.178L136.069 274.336C138.787 273.126 140.102 270.127 140.102 267.374V265.55ZM140.628 265.55H142.47V267.374C142.47 270.005 143.767 272.811 146.486 273.933L145.223 275.774C142.137 274.441 140.628 270.987 140.628 267.374V265.55ZM136.718 264.551H145.819V266.462H136.718V264.551ZM147.327 262.99H149.677V279.229H147.327V262.99Z" fill="#4E5B7F"/>
<path d="M155.47 281.211C153.804 278.51 152.84 275.651 152.84 272.144C152.84 268.654 153.804 265.778 155.47 263.078L157.066 263.762C155.593 266.322 154.927 269.286 154.927 272.144C154.927 275.02 155.593 277.984 157.066 280.544L155.47 281.211Z" fill="#4E5B7F"/>
<path d="M160.211 277.089H171.47V278.948H160.211V277.089ZM160.211 274.249H162.544V277.721H160.211V274.249ZM158.44 271.408H173.136V273.267H158.44V271.408ZM164.595 269.145H166.91V272.127H164.595V269.145ZM164.56 263.446H166.559V263.937C166.559 267.006 164.21 269.479 160.088 270.127L159.194 268.304C162.824 267.795 164.56 265.831 164.56 263.937V263.446ZM164.946 263.446H166.945V263.937C166.945 265.919 168.646 267.813 172.311 268.304L171.417 270.127C167.296 269.444 164.946 267.094 164.946 263.937V263.446Z" fill="#4E5B7F"/>
<path d="M175.071 281.421L174.545 280.018C175.912 279.51 176.666 278.58 176.649 277.545L176.561 275.722L177.473 277.23C177.21 277.493 176.859 277.616 176.474 277.616C175.632 277.616 174.86 277.054 174.86 276.09C174.86 275.16 175.614 274.564 176.544 274.564C177.719 274.564 178.385 275.511 178.385 277.089C178.385 279.159 177.21 280.72 175.071 281.421Z" fill="#4E5B7F"/>
<path d="M180.097 263.972H188.76V265.761H180.097V263.972ZM179.904 271.022L179.676 269.18C182.499 269.18 186.235 269.145 189.321 268.795L189.426 270.461C186.27 270.969 182.675 271.004 179.904 271.022ZM181.377 264.866H183.622V270.25H181.377V264.866ZM185.253 264.866H187.48V270.25H185.253V264.866ZM190.215 262.99H192.548V271.302H190.215V262.99ZM191.601 266.164H194.687V268.058H191.601V266.164ZM181.815 271.951H192.548V276.335H184.165V278.282H181.85V274.669H190.251V273.74H181.815V271.951ZM181.85 277.317H193.021V279.124H181.85V277.317Z" fill="#4E5B7F"/>
<path d="M196.394 281.421L195.868 280.018C197.236 279.51 197.99 278.58 197.973 277.545L197.885 275.722L198.797 277.23C198.534 277.493 198.183 277.616 197.797 277.616C196.955 277.616 196.184 277.054 196.184 276.09C196.184 275.16 196.938 274.564 197.867 274.564C199.042 274.564 199.709 275.511 199.709 277.089C199.709 279.159 198.534 280.72 196.394 281.421Z" fill="#4E5B7F"/>
<path d="M205.542 264.112C207.962 264.112 209.733 266.357 209.733 269.899C209.733 273.477 207.962 275.722 205.542 275.722C203.104 275.722 201.35 273.477 201.35 269.899C201.35 266.357 203.104 264.112 205.542 264.112ZM205.542 266.234C204.367 266.234 203.577 267.515 203.577 269.899C203.577 272.32 204.367 273.617 205.542 273.617C206.734 273.617 207.506 272.32 207.506 269.899C207.506 267.515 206.734 266.234 205.542 266.234ZM212.398 262.973H214.713V279.264H212.398V262.973ZM209.049 268.83H213.38V270.706H209.049V268.83Z" fill="#4E5B7F"/>
<path d="M229.064 262.973H231.291V279.211H229.064V262.973ZM227.047 269.145H229.941V271.022H227.047V269.145ZM219.016 264.866H220.962C220.962 268.882 220.524 272.355 218.489 275.441L216.701 274.424C218.577 271.636 219.016 268.97 219.016 265.059V264.866ZM217.262 264.866H220.208V266.725H217.262V264.866ZM222.786 264.866H224.785C224.785 269.075 224.434 273.003 222.312 276.388L220.471 275.406C222.505 272.284 222.786 269.145 222.786 265.077V264.866ZM221.453 264.866H224.031V266.725H221.453V264.866ZM225.679 263.253H227.854V278.51H225.679V263.253Z" fill="#4E5B7F"/>
<path d="M234.647 281.211L233.033 280.544C234.506 277.984 235.19 275.02 235.19 272.144C235.19 269.286 234.506 266.322 233.033 263.762L234.647 263.078C236.295 265.778 237.26 268.654 237.26 272.144C237.26 275.651 236.295 278.51 234.647 281.211Z" fill="#4E5B7F"/>
<path d="M249.594 262.973H251.944V279.211H249.594V262.973ZM251.33 269.18H254.188V271.092H251.33V269.18ZM245.332 264.656H247.612C247.612 269.531 245.753 273.705 240.352 276.423L239.054 274.652C243.316 272.442 245.332 269.461 245.332 265.059V264.656ZM239.949 264.656H246.525V266.532H239.949V264.656Z" fill="#4E5B7F"/>
<path d="M74.194 289.738C76.7543 289.738 78.6658 291.404 78.6658 293.737C78.6658 296.087 76.7543 297.753 74.194 297.753C71.6512 297.753 69.7046 296.087 69.7046 293.737C69.7046 291.404 71.6512 289.738 74.194 289.738ZM74.194 291.738C72.9489 291.738 72.0019 292.474 72.0019 293.737C72.0019 295.017 72.9489 295.753 74.194 295.753C75.4391 295.753 76.386 295.017 76.386 293.737C76.386 292.474 75.4391 291.738 74.194 291.738ZM80.1915 288.651H82.5238V304.943H80.1915V288.651ZM69.3188 301.646L69.0382 299.769C71.8967 299.769 75.8775 299.734 79.2971 299.226L79.4725 300.909C75.9476 301.611 72.1246 301.646 69.3188 301.646Z" fill="#4E5B7F"/>
<path d="M88.7553 291.229H90.6141V293.053C90.6141 296.806 89.0885 300.471 86.0371 301.856L84.7219 300.015C87.44 298.805 88.7553 295.806 88.7553 293.053V291.229ZM89.2814 291.229H91.1227V293.053C91.1227 295.683 92.4204 298.489 95.1386 299.611L93.8759 301.453C90.7895 300.12 89.2814 296.665 89.2814 293.053V291.229ZM85.3707 290.229H94.4722V292.141H85.3707V290.229ZM95.9803 288.669H98.3302V304.908H95.9803V288.669Z" fill="#4E5B7F"/>
<path d="M112.453 288.669H114.663V304.908H112.453V288.669ZM110.279 294.912H112.979V296.788H110.279V294.912ZM108.823 288.949H110.98V304.136H108.823V288.949ZM101.177 299.331H102.317C104.316 299.331 105.982 299.261 107.911 298.91L108.087 300.804C106.122 301.19 104.404 301.242 102.317 301.242H101.177V299.331ZM101.177 290.545H107.175V292.421H103.492V300.243H101.177V290.545Z" fill="#4E5B7F"/>
<path d="M116.615 301.225H131.311V303.119H116.615V301.225ZM122.771 298.156H125.103V301.996H122.771V298.156ZM118.264 289.721H129.662V295.122H120.614V297.858H118.299V293.298H127.348V291.562H118.264V289.721ZM118.299 296.928H130.031V298.805H118.299V296.928Z" fill="#4E5B7F"/>
<path d="M142.365 297.121H144.697V299.699H142.365V297.121ZM143.539 288.897C147.117 288.897 149.414 290.072 149.414 292.036C149.414 293.982 147.117 295.14 143.539 295.14C139.962 295.14 137.665 293.982 137.665 292.036C137.665 290.072 139.962 288.897 143.539 288.897ZM143.539 290.668C141.312 290.668 140.067 291.124 140.067 292.036C140.067 292.93 141.312 293.368 143.539 293.368C145.749 293.368 147.012 292.93 147.012 292.036C147.012 291.124 145.749 290.668 143.539 290.668ZM137.893 299.191H149.116V304.732H137.893V299.191ZM146.836 301.032H140.19V302.891H146.836V301.032ZM136.192 295.964H150.87V297.823H136.192V295.964Z" fill="#4E5B7F"/>
<path d="M156.014 290.335H157.943V291.352C157.943 294.421 156.452 297.191 153.331 298.191L152.138 296.385C154.839 295.508 156.014 293.386 156.014 291.352V290.335ZM156.487 290.335H158.399V291.352C158.399 293.281 159.556 295.262 162.204 296.104L161.012 297.91C157.96 296.946 156.487 294.28 156.487 291.352V290.335ZM163.221 288.669H165.571V298.454H163.221V288.669ZM154.488 299.173H165.571V304.908H163.221V301.032H154.488V299.173ZM152.752 289.616H161.591V291.457H152.752V289.616Z" fill="#4E5B7F"/>
<path d="M179.08 288.651H181.43V304.943H179.08V288.651ZM172.68 289.791C175.135 289.791 176.941 292.036 176.941 295.578C176.941 299.156 175.135 301.4 172.68 301.4C170.224 301.4 168.418 299.156 168.418 295.578C168.418 292.036 170.224 289.791 172.68 289.791ZM172.68 291.913C171.47 291.913 170.645 293.193 170.645 295.578C170.645 297.998 171.47 299.296 172.68 299.296C173.89 299.296 174.696 297.998 174.696 295.578C174.696 293.193 173.89 291.913 172.68 291.913Z" fill="#4E5B7F"/>
<path d="M187.785 289.914H189.678V292.281C189.678 296.455 188.24 300.225 185.014 301.716L183.628 299.787C186.452 298.559 187.785 295.438 187.785 292.281V289.914ZM188.24 289.914H190.134V292.281C190.134 295.28 191.415 298.261 194.185 299.454L192.818 301.33C189.678 299.892 188.24 296.28 188.24 292.281V289.914ZM194.957 288.651H197.307V304.943H194.957V288.651Z" fill="#4E5B7F"/>
<path d="M211.816 294.806H214.674V296.718H211.816V294.806ZM210.079 288.651H212.429V304.89H210.079V288.651ZM200.189 290.212H202.521V300.295H200.189V290.212ZM200.189 298.998H201.592C203.907 298.998 206.414 298.84 209.027 298.314L209.273 300.225C206.59 300.786 203.977 300.927 201.592 300.927H200.189V298.998Z" fill="#4E5B7F"/>
<path d="M218.819 296.911H221.133V301.47H218.819V296.911ZM224.711 296.911H227.043V301.47H224.711V296.911ZM215.592 301.137H230.288V303.031H215.592V301.137ZM222.922 289.458C226.412 289.458 228.99 291.176 228.99 293.824C228.99 296.472 226.412 298.173 222.922 298.173C219.415 298.173 216.855 296.472 216.855 293.824C216.855 291.176 219.415 289.458 222.922 289.458ZM222.922 291.282C220.66 291.282 219.152 292.211 219.152 293.824C219.152 295.42 220.66 296.367 222.922 296.367C225.184 296.367 226.693 295.42 226.693 293.824C226.693 292.211 225.184 291.282 222.922 291.282Z" fill="#4E5B7F"/>
<path d="M233.836 298.928C233.415 296.104 236.414 294.982 236.414 293.316C236.414 292.421 235.835 291.878 234.923 291.878C234.152 291.878 233.538 292.264 232.959 292.86L231.539 291.545C232.45 290.51 233.696 289.791 235.221 289.791C237.343 289.791 238.886 290.878 238.886 293.14C238.886 295.631 235.835 296.455 236.098 298.928H233.836ZM234.976 303.592C234.046 303.592 233.38 302.873 233.38 301.909C233.38 300.944 234.046 300.243 234.976 300.243C235.888 300.243 236.589 300.944 236.589 301.909C236.589 302.873 235.888 303.592 234.976 303.592Z" fill="#4E5B7F"/>
<path d="M68.2666 280.299H238.512V281.176H68.2666V280.299Z" fill="#4E5B7F"/>
<path d="M238.511 280.299H258.368V281.176H238.511V280.299ZM68.2666 305.977H239.763V306.854H68.2666V305.977Z" fill="#4E5B7F"/>
<path d="M24.4258 330.904C24.4258 326.753 27.7907 323.389 31.9415 323.389H267.433C271.583 323.389 274.948 326.753 274.948 330.904V353.451C274.948 357.602 271.583 360.967 267.433 360.967H31.9415C27.7907 360.967 24.4258 357.602 24.4258 353.451V330.904Z" fill="white"/>
<path fill-rule="evenodd" clip-rule="evenodd" d="M267.433 324.015H31.9415C28.1366 324.015 25.0521 327.099 25.0521 330.904V353.451C25.0521 357.256 28.1366 360.341 31.9415 360.341H267.433C271.238 360.341 274.322 357.256 274.322 353.451V330.904C274.322 327.099 271.238 324.015 267.433 324.015ZM31.9415 323.389C27.7907 323.389 24.4258 326.753 24.4258 330.904V353.451C24.4258 357.602 27.7907 360.967 31.9415 360.967H267.433C271.583 360.967 274.948 357.602 274.948 353.451V330.904C274.948 326.753 271.583 323.389 267.433 323.389H31.9415Z" fill="#374876"/>
<path fill-rule="evenodd" clip-rule="evenodd" d="M267.433 324.015H31.9415C28.1366 324.015 25.0521 327.099 25.0521 330.904V353.451C25.0521 357.256 28.1366 360.341 31.9415 360.341H267.433C271.238 360.341 274.322 357.256 274.322 353.451V330.904C274.322 327.099 271.238 324.015 267.433 324.015ZM31.9415 323.389C27.7907 323.389 24.4258 326.753 24.4258 330.904V353.451C24.4258 357.602 27.7907 360.967 31.9415 360.967H267.433C271.583 360.967 274.948 357.602 274.948 353.451V330.904C274.948 326.753 271.583 323.389 267.433 323.389H31.9415Z" fill="#97A4C9"/>
<path d="M24.4258 374.745C24.4258 370.595 27.7907 367.23 31.9415 367.23H267.433C271.583 367.23 274.948 370.595 274.948 374.745V397.292C274.948 401.443 271.583 404.808 267.433 404.808H31.9415C27.7907 404.808 24.4258 401.443 24.4258 397.292V374.745Z" fill="white"/>
<path fill-rule="evenodd" clip-rule="evenodd" d="M267.433 367.856H31.9415C28.1366 367.856 25.0521 370.941 25.0521 374.745V397.292C25.0521 401.097 28.1366 404.182 31.9415 404.182H267.433C271.238 404.182 274.322 401.097 274.322 397.292V374.745C274.322 370.941 271.238 367.856 267.433 367.856ZM31.9415 367.23C27.7907 367.23 24.4258 370.595 24.4258 374.745V397.292C24.4258 401.443 27.7907 404.808 31.9415 404.808H267.433C271.583 404.808 274.948 401.443 274.948 397.292V374.745C274.948 370.595 271.583 367.23 267.433 367.23H31.9415Z" fill="#CCCCCC"/>
<path d="M24.4258 418.587C24.4258 414.436 27.7907 411.071 31.9415 411.071H267.433C271.583 411.071 274.948 414.436 274.948 418.587V441.134C274.948 445.285 271.583 448.65 267.433 448.65H31.9415C27.7907 448.65 24.4258 445.285 24.4258 441.134V418.587Z" fill="white"/>
<path fill-rule="evenodd" clip-rule="evenodd" d="M267.433 411.697H31.9415C28.1366 411.697 25.0521 414.782 25.0521 418.587V441.134C25.0521 444.939 28.1366 448.023 31.9415 448.023H267.433C271.238 448.023 274.322 444.939 274.322 441.134V418.587C274.322 414.782 271.238 411.697 267.433 411.697ZM31.9415 411.071C27.7907 411.071 24.4258 414.436 24.4258 418.587V441.134C24.4258 445.285 27.7907 448.65 31.9415 448.65H267.433C271.583 448.65 274.948 445.285 274.948 441.134V418.587C274.948 414.436 271.583 411.071 267.433 411.071H31.9415Z" fill="#CCCCCC"/>
<path d="M120.008 337.505C118.405 337.505 117.365 337.969 117.365 338.77C117.365 339.572 118.405 340.036 120.008 340.036C121.599 340.036 122.638 339.572 122.638 338.77C122.638 337.969 121.599 337.505 120.008 337.505ZM120.008 341.075C117.578 341.075 116 340.186 116 338.77C116 337.355 117.578 336.466 120.008 336.466C122.425 336.466 124.016 337.355 124.016 338.77C124.016 340.186 122.425 341.075 120.008 341.075ZM117.453 343.969V346.261H124.016V347.313H116.15V343.969H117.453ZM114.885 341.839H125.144V342.892H120.76V345.033H119.444V342.892H114.885V341.839Z" fill="#333333"/>
<path d="M131.323 346.537C132.977 346.537 133.916 346.173 133.916 345.472C133.916 344.783 132.977 344.407 131.323 344.407C129.67 344.407 128.743 344.783 128.743 345.472C128.743 346.173 129.67 346.537 131.323 346.537ZM131.323 343.418C133.753 343.418 135.219 344.169 135.219 345.472C135.219 346.787 133.753 347.539 131.323 347.539C128.906 347.539 127.428 346.787 127.428 345.472C127.428 344.169 128.906 343.418 131.323 343.418ZM132 341.676H136.472V342.729H126.25V341.676H130.71V340.549H127.515V336.716H135.219V337.743H128.793V339.509H135.294V340.549H132V341.676Z" fill="#333333"/>
<path d="M144.217 341.539L143.591 342.541C142.325 342.14 141.424 341.326 140.935 340.274C140.434 341.476 139.482 342.441 138.129 342.904L137.478 341.889C139.257 341.276 140.246 339.823 140.246 338.282V338.056H137.841V337.017H143.916V338.056H141.549V338.269C141.549 339.672 142.488 340.988 144.217 341.539ZM142.764 346.512C144.342 346.512 145.257 346.111 145.257 345.384C145.257 344.645 144.342 344.257 142.764 344.257C141.186 344.257 140.271 344.645 140.271 345.384C140.271 346.111 141.186 346.512 142.764 346.512ZM142.764 343.242C145.094 343.242 146.534 344.031 146.534 345.384C146.534 346.725 145.094 347.526 142.764 347.526C140.434 347.526 138.994 346.725 138.994 345.384C138.994 344.031 140.434 343.242 142.764 343.242ZM146.409 338.971H148.012V340.036H146.409V342.979H145.119V336.215H146.409V338.971Z" fill="#333333"/>
<path d="M151.461 343.906C152.225 343.906 152.701 342.904 152.701 341.113C152.701 339.322 152.225 338.307 151.461 338.307C150.697 338.307 150.221 339.322 150.221 341.113C150.221 342.904 150.697 343.906 151.461 343.906ZM151.461 337.092C152.927 337.092 153.891 338.62 153.891 341.113C153.891 343.58 152.927 345.121 151.461 345.121C149.996 345.121 149.031 343.58 149.031 341.113C149.031 338.62 149.996 337.092 151.461 337.092ZM157.349 336.215H158.576V347.514H157.349V341.676H156.058V346.988H154.843V336.428H156.058V340.624H157.349V336.215Z" fill="#333333"/>
<path d="M164.28 339.309C164.28 340.261 164.994 340.887 165.984 340.887C166.973 340.887 167.7 340.261 167.7 339.309C167.7 338.37 166.973 337.756 165.984 337.756C164.994 337.756 164.28 338.37 164.28 339.309ZM170.969 339.823H168.877C168.627 341.1 167.487 341.952 165.984 341.952C164.293 341.952 163.04 340.875 163.04 339.309C163.04 337.768 164.293 336.691 165.984 336.691C167.474 336.691 168.614 337.518 168.865 338.758H170.969V336.228H172.259V342.203H170.969V339.823ZM166.973 346.399V345.084H165.357V346.399H166.973ZM166.973 342.854H168.163V347.388H164.155V342.854H165.357V344.132H166.973V342.854ZM171.432 342.766V343.668C171.432 344.871 172.059 346.023 173.424 346.524L172.785 347.501C171.783 347.113 171.132 346.386 170.781 345.522C170.405 346.374 169.767 347.1 168.815 347.501L168.163 346.524C169.516 345.96 170.155 344.783 170.155 343.668V342.766H171.432Z" fill="#333333"/>
<path d="M179.341 336.453C181.808 336.453 183.374 337.267 183.374 338.62C183.374 339.96 181.808 340.787 179.341 340.787C176.873 340.787 175.307 339.96 175.307 338.62C175.307 337.267 176.873 336.453 179.341 336.453ZM179.341 337.455C177.662 337.455 176.635 337.869 176.635 338.62C176.635 339.359 177.662 339.773 179.341 339.773C181.019 339.773 182.034 339.359 182.034 338.62C182.034 337.869 181.019 337.455 179.341 337.455ZM175.445 343.606H183.211V347.388H175.445V343.606ZM181.946 344.633H176.723V346.361H181.946V344.633ZM174.218 341.614H184.451V342.641H174.218V341.614Z" fill="#333333"/>
<path d="M116.857 383.013V382.111H111.821V383.013H116.857ZM118.134 380.219V383.99H110.543V380.219H111.821V381.159H116.857V380.219H118.134ZM119.462 385.794H114.978V386.721H118.172V389.389H111.733V390.278H118.498V391.268H110.456V388.487H116.907V387.685H110.418V386.721H113.675V385.794H109.203V384.766H119.462V385.794Z" fill="#333333"/>
<path d="M122.36 382.8C122.36 383.589 123.024 384.09 123.963 384.09C124.915 384.09 125.554 383.589 125.554 382.8C125.554 382.023 124.915 381.522 123.963 381.522C123.024 381.522 122.36 382.023 122.36 382.8ZM127.47 385.718L127.558 386.658C125.228 387.096 122.598 387.134 120.706 387.134L120.544 386.082C121.358 386.082 122.322 386.082 123.337 386.044V385.017C122.034 384.817 121.157 383.965 121.157 382.8C121.157 381.46 122.322 380.545 123.963 380.545C125.604 380.545 126.756 381.46 126.756 382.8C126.756 383.952 125.905 384.804 124.627 385.017V385.994C125.592 385.931 126.569 385.856 127.47 385.718ZM123.399 387.973V390.103H129.813V391.142H122.109V387.973H123.399ZM129.425 383.764H130.978V384.829H129.425V388.712H128.134V380.069H129.425V383.764Z" fill="#333333"/>
<path d="M137.934 383.088H139.988V380.069H141.278V388.336H139.988V384.153H137.934V383.088ZM138.635 385.731L137.997 386.733C136.744 386.307 135.83 385.418 135.354 384.303C134.853 385.531 133.901 386.52 132.56 386.984L131.896 385.969C133.65 385.355 134.677 383.865 134.677 382.336V381.948H132.285V380.908H138.335V381.948H135.98V382.336C135.98 383.727 136.944 385.142 138.635 385.731ZM135.241 390.103H141.567V391.155H133.951V387.622H135.241V390.103Z" fill="#333333"/>
<path d="M150.991 381.347C149.387 381.347 148.348 381.81 148.348 382.612C148.348 383.414 149.387 383.877 150.991 383.877C152.582 383.877 153.621 383.414 153.621 382.612C153.621 381.81 152.582 381.347 150.991 381.347ZM150.991 384.917C148.561 384.917 146.982 384.027 146.982 382.612C146.982 381.197 148.561 380.307 150.991 380.307C153.408 380.307 154.999 381.197 154.999 382.612C154.999 384.027 153.408 384.917 150.991 384.917ZM148.435 387.81V390.103H154.999V391.155H147.133V387.81H148.435ZM145.868 385.681H156.127V386.733H151.742V388.875H150.427V386.733H145.868V385.681Z" fill="#333333"/>
<path d="M162.306 390.378C163.96 390.378 164.899 390.015 164.899 389.313C164.899 388.625 163.96 388.249 162.306 388.249C160.653 388.249 159.726 388.625 159.726 389.313C159.726 390.015 160.653 390.378 162.306 390.378ZM162.306 387.259C164.736 387.259 166.202 388.011 166.202 389.313C166.202 390.629 164.736 391.38 162.306 391.38C159.889 391.38 158.411 390.629 158.411 389.313C158.411 388.011 159.889 387.259 162.306 387.259ZM162.983 385.518H167.454V386.57H157.233V385.518H161.692V384.391H158.498V380.558H166.202V381.585H159.776V383.351H166.277V384.391H162.983V385.518Z" fill="#333333"/>
<path d="M175.2 385.38L174.573 386.382C173.308 385.982 172.406 385.167 171.918 384.115C171.417 385.318 170.465 386.282 169.112 386.746L168.461 385.731C170.239 385.117 171.229 383.664 171.229 382.123V381.898H168.824V380.858H174.899V381.898H172.532V382.111C172.532 383.514 173.471 384.829 175.2 385.38ZM173.747 390.353C175.325 390.353 176.239 389.952 176.239 389.226C176.239 388.487 175.325 388.098 173.747 388.098C172.168 388.098 171.254 388.487 171.254 389.226C171.254 389.952 172.168 390.353 173.747 390.353ZM173.747 387.084C176.077 387.084 177.517 387.873 177.517 389.226C177.517 390.566 176.077 391.368 173.747 391.368C171.417 391.368 169.976 390.566 169.976 389.226C169.976 387.873 171.417 387.084 173.747 387.084ZM177.392 382.812H178.995V383.877H177.392V386.821H176.102V380.057H177.392V382.812Z" fill="#333333"/>
<path d="M182.444 387.748C183.208 387.748 183.684 386.746 183.684 384.954C183.684 383.163 183.208 382.149 182.444 382.149C181.68 382.149 181.204 383.163 181.204 384.954C181.204 386.746 181.68 387.748 182.444 387.748ZM182.444 380.933C183.91 380.933 184.874 382.462 184.874 384.954C184.874 387.422 183.91 388.963 182.444 388.963C180.979 388.963 180.014 387.422 180.014 384.954C180.014 382.462 180.979 380.933 182.444 380.933ZM188.331 380.057H189.559V391.355H188.331V385.518H187.041V390.829H185.826V380.27H187.041V384.466H188.331V380.057Z" fill="#333333"/>
<path d="M117.315 426.641C117.315 427.43 117.979 427.931 118.919 427.931C119.871 427.931 120.509 427.43 120.509 426.641C120.509 425.865 119.871 425.364 118.919 425.364C117.979 425.364 117.315 425.865 117.315 426.641ZM122.426 429.56L122.514 430.499C120.184 430.938 117.553 430.975 115.662 430.975L115.499 429.923C116.313 429.923 117.278 429.923 118.292 429.886V428.858C116.99 428.658 116.113 427.806 116.113 426.641C116.113 425.301 117.278 424.387 118.919 424.387C120.56 424.387 121.712 425.301 121.712 426.641C121.712 427.794 120.86 428.645 119.583 428.858V429.835C120.547 429.773 121.524 429.698 122.426 429.56ZM118.355 431.815V433.944H124.768V434.984H117.065V431.815H118.355ZM124.38 427.606H125.933V428.671H124.38V432.554H123.09V423.911H124.38V427.606Z" fill="#333333"/>
<path d="M132.89 426.929H134.944V423.911H136.234V432.178H134.944V427.994H132.89V426.929ZM133.591 429.572L132.952 430.574C131.7 430.149 130.785 429.259 130.309 428.144C129.808 429.372 128.856 430.362 127.516 430.825L126.852 429.81C128.606 429.197 129.633 427.706 129.633 426.178V425.79H127.24V424.75H133.29V425.79H130.935V426.178C130.935 427.568 131.9 428.984 133.591 429.572ZM130.196 433.944H136.522V434.996H128.906V431.464H130.196V433.944Z" fill="#333333"/>
<path d="M145.946 425.188C144.343 425.188 143.303 425.652 143.303 426.453C143.303 427.255 144.343 427.719 145.946 427.719C147.537 427.719 148.577 427.255 148.577 426.453C148.577 425.652 147.537 425.188 145.946 425.188ZM145.946 428.758C143.516 428.758 141.938 427.869 141.938 426.453C141.938 425.038 143.516 424.149 145.946 424.149C148.364 424.149 149.955 425.038 149.955 426.453C149.955 427.869 148.364 428.758 145.946 428.758ZM143.391 431.652V433.944H149.955V434.996H142.088V431.652H143.391ZM140.823 429.522H151.082V430.574H146.698V432.716H145.383V430.574H140.823V429.522Z" fill="#333333"/>
<path d="M157.262 434.22C158.915 434.22 159.855 433.856 159.855 433.155C159.855 432.466 158.915 432.09 157.262 432.09C155.608 432.09 154.681 432.466 154.681 433.155C154.681 433.856 155.608 434.22 157.262 434.22ZM157.262 431.101C159.692 431.101 161.157 431.852 161.157 433.155C161.157 434.47 159.692 435.222 157.262 435.222C154.844 435.222 153.366 434.47 153.366 433.155C153.366 431.852 154.844 431.101 157.262 431.101ZM157.938 429.359H162.41V430.412H152.189V429.359H156.648V428.232H153.454V424.399H161.157V425.426H154.731V427.192H161.232V428.232H157.938V429.359Z" fill="#333333"/>
<path d="M170.155 429.222L169.529 430.224C168.264 429.823 167.362 429.009 166.873 427.957C166.372 429.159 165.42 430.124 164.068 430.587L163.416 429.572C165.195 428.959 166.185 427.506 166.185 425.965V425.739H163.779V424.7H169.855V425.739H167.487V425.952C167.487 427.355 168.427 428.671 170.155 429.222ZM168.702 434.195C170.281 434.195 171.195 433.794 171.195 433.067C171.195 432.328 170.281 431.94 168.702 431.94C167.124 431.94 166.21 432.328 166.21 433.067C166.21 433.794 167.124 434.195 168.702 434.195ZM168.702 430.925C171.032 430.925 172.473 431.714 172.473 433.067C172.473 434.407 171.032 435.209 168.702 435.209C166.372 435.209 164.932 434.407 164.932 433.067C164.932 431.714 166.372 430.925 168.702 430.925ZM172.347 426.654H173.951V427.719H172.347V430.662H171.057V423.898H172.347V426.654Z" fill="#333333"/>
<path d="M177.4 431.589C178.164 431.589 178.64 430.587 178.64 428.796C178.64 427.005 178.164 425.99 177.4 425.99C176.636 425.99 176.16 427.005 176.16 428.796C176.16 430.587 176.636 431.589 177.4 431.589ZM177.4 424.775C178.865 424.775 179.83 426.303 179.83 428.796C179.83 431.263 178.865 432.804 177.4 432.804C175.934 432.804 174.97 431.263 174.97 428.796C174.97 426.303 175.934 424.775 177.4 424.775ZM183.287 423.898H184.514V435.197H183.287V429.359H181.997V434.671H180.782V424.111H181.997V428.307H183.287V423.898Z" fill="#333333"/>
</g>
<path fill-rule="evenodd" clip-rule="evenodd" d="M41.9206 272.46C45.9136 272.46 49.1507 269.223 49.1507 265.23C49.1507 261.237 45.9136 258 41.9206 258C37.9275 258 34.6905 261.237 34.6905 265.23C34.6905 269.223 37.9275 272.46 41.9206 272.46ZM34.8896 274.629C33.8519 274.629 33.0107 273.788 33.0107 272.75V258.881C33.0107 258.532 32.7288 258.249 32.3801 258.247C28.8267 258.231 25.9375 261.107 25.9375 264.661V280.981C25.9375 283.762 28.192 286.017 30.973 286.017H34.329V320.631H41.5212V302.411H42.3102V320.631H49.5122V286.017H50.5547V299.935H50.6473C53.4145 299.935 55.6577 297.691 55.6577 294.924V284.65C55.6577 279.116 51.1712 274.629 45.6368 274.629H34.8896Z" fill="url(#paint0_linear_2149_11361)"/>
<path fill-rule="evenodd" clip-rule="evenodd" d="M33.0107 272.75C33.0107 273.788 33.8519 274.629 34.8896 274.629H38.0251L37.9956 275.54C37.8731 279.325 36.5934 282.981 34.329 286.017L-nan -nanL34.329 286.017H30.973C28.192 286.017 25.9375 283.762 25.9375 280.981L25.9375 264.661C25.9375 261.107 28.8267 258.231 32.3801 258.248L-nan -nanL32.3801 258.248C32.7288 258.249 33.0107 258.532 33.0107 258.881V272.75Z" fill="#FCD45D"/>
<path fill-rule="evenodd" clip-rule="evenodd" d="M38.0251 274.629H36.7718L36.7639 274.873L37.0452 274.882V275.224L36.7529 275.215L36.7437 275.499C36.7259 276.048 36.682 276.594 36.6126 277.136L37.8551 277.295C37.9151 276.827 37.9573 276.356 37.9814 275.882C37.9872 275.768 37.9919 275.654 37.9956 275.54L38.0251 274.629ZM37.4675 279.372L36.2512 279.072C35.9891 280.136 35.6263 281.172 35.1679 282.168L36.3055 282.692C36.7973 281.624 37.1864 280.513 37.4675 279.372ZM35.3136 284.557L34.243 283.907C34.0664 284.197 33.8809 284.483 33.6868 284.764H33.2802V286.017H34.329C34.6812 285.545 35.0096 285.057 35.3136 284.557ZM32.0218 286.017V284.764H30.973C30.654 284.764 30.3459 284.725 30.0525 284.652L29.7491 285.867C30.1409 285.965 30.5509 286.017 30.973 286.017H32.0218ZM28.3839 285.301L29.0289 284.227C28.4957 283.907 28.0473 283.459 27.727 282.925L26.6532 283.57C27.0792 284.28 27.6748 284.875 28.3839 285.301ZM26.0873 282.205L27.3026 281.902C27.2293 281.608 27.1901 281.3 27.1901 280.981V279.281H25.9375V280.981C25.9375 281.403 25.9894 281.813 26.0873 282.205ZM25.9375 277.241V273.841H27.1901V277.241H25.9375ZM25.9375 271.801H27.1901V268.401H25.9375V271.801ZM25.9375 266.361H27.1901V264.661C27.1901 264.225 27.2439 263.804 27.3444 263.402L26.1294 263.098C26.004 263.598 25.9375 264.122 25.9375 264.661V266.361ZM26.8542 261.355L27.927 262.001C28.3663 261.273 28.9809 260.661 29.7116 260.225L29.0698 259.149C28.1623 259.691 27.3997 260.45 26.8542 261.355ZM30.8159 258.432L31.1147 259.649C31.3241 259.597 31.5388 259.559 31.7581 259.534V260.326H33.0107V258.881C33.0107 258.773 32.9838 258.672 32.9364 258.583L32.3759 258.882L32.6776 258.323C32.589 258.275 32.4878 258.248 32.3801 258.248C31.8408 258.245 31.3168 258.309 30.8159 258.432ZM33.0107 262.059H31.7581V264.949H33.0107V262.059ZM33.0107 266.683H31.7581V269.572H33.0107V266.683ZM33.0107 271.306V272.75C33.0107 273.788 33.8519 274.629 34.8896 274.629H35.8694V275.882H34.8896C33.1601 275.882 31.7581 274.48 31.7581 272.75V271.306H33.0107Z" fill="#374876"/>
<path fill-rule="evenodd" clip-rule="evenodd" d="M144.08 76.5087C147.82 76.5087 150.851 73.4775 150.851 69.7384C150.851 65.9993 147.82 62.9681 144.08 62.9681C140.341 62.9681 137.31 65.9993 137.31 69.7384C137.31 73.4775 140.341 76.5087 144.08 76.5087ZM139.741 93.918C136.974 93.918 134.731 96.1612 134.731 98.9284V100.514C134.731 103.281 136.974 105.524 139.741 105.524H159.233L174.804 105.43C176.317 105.421 177.543 104.199 177.558 102.686C177.572 101.145 176.327 99.8887 174.787 99.8887H160.234L160.607 99.6537L165.295 95.3509C165.565 95.1033 165.964 95.0582 166.283 95.2393L170.626 97.7101C171.762 98.3559 173.201 98.0453 173.969 96.9886C174.846 95.7821 174.512 94.0846 173.244 93.2997L166.374 89.048C166.029 88.8344 165.591 88.8408 165.253 89.0644L160.521 92.1882C160.614 92.8353 160.405 93.4894 159.954 93.9625L159.764 94.1618C158.96 95.0048 157.765 95.3505 156.635 95.0668L152.059 93.918H139.741ZM133.441 99.3987C133.441 102.782 130.699 105.524 127.316 105.524C123.933 105.524 121.19 102.782 121.19 99.3987C121.19 96.0156 123.933 93.2732 127.316 93.2732C130.699 93.2732 133.441 96.0156 133.441 99.3987ZM141.16 78.443C138.393 78.443 136.15 80.6863 136.15 83.4535V90.9306C136.15 91.6224 136.71 92.1832 137.402 92.1832H152.011L156.354 93.4684C157.67 93.8579 159.024 92.9812 159.206 91.6207C159.35 90.5545 158.714 89.5373 157.692 89.199L153.43 87.7871V84.9183L158.7 86.9266C159.239 87.1321 159.832 87.1522 160.384 86.9835L165.142 85.5294C166.234 85.1958 166.9 84.0939 166.687 82.9722C166.446 81.6983 165.176 80.8952 163.922 81.2233L160.175 82.2031C159.868 82.2834 159.543 82.2487 159.259 82.1056L153.077 78.9816C152.376 78.6275 151.602 78.443 150.817 78.443H141.16Z" fill="url(#paint1_linear_2149_11361)"/>
<path d="M34.9204 171.948V170.02H33.5676V168.836H34.9204V167.799H33.5676V166.615H34.9204V164.034H36.4085V171.948H34.9204ZM33.4549 165.127V166.289H27.7617V165.127H29.9375V164H31.4256V165.127H33.4549ZM29.6444 168.69C29.6444 169.276 30.0728 169.592 30.6816 169.592C31.2791 169.592 31.7075 169.276 31.7075 168.69C31.7075 168.126 31.2791 167.799 30.6816 167.799C30.0728 167.799 29.6444 168.126 29.6444 168.69ZM33.1054 168.69C33.1054 169.896 32.0908 170.742 30.6816 170.742C29.2611 170.742 28.2465 169.896 28.2465 168.69C28.2465 167.495 29.2611 166.661 30.6816 166.661C32.0908 166.661 33.1054 167.495 33.1054 168.69ZM31.0423 173.053H36.634V174.236H29.5542V171.305H31.0423V173.053Z" fill="#333333"/>
<path d="M45.5101 164.023H46.9193V174.405H45.5101V169.22H44.6646V173.943H43.2779V170.933L42.4437 172.049C41.5193 171.553 40.9105 170.719 40.5497 169.682C40.2115 170.877 39.6028 171.846 38.6332 172.433L37.7426 171.305C39.2871 170.403 39.7831 168.566 39.7831 166.57V166.289H38.0808V165.082H42.7819V166.289H41.2261V166.57C41.2261 168.385 41.7447 170.11 43.2779 170.911V164.192H44.6646V168.002H45.5101V164.023Z" fill="#333333"/>
<path d="M59.1546 164.045V171.61H57.6552V164.045H59.1546ZM56.8886 168.859L56.1333 170.043C54.9834 169.648 54.1943 168.881 53.7433 167.912C53.2698 168.96 52.4581 169.806 51.2519 170.223L50.4966 169.039C52.2214 168.453 52.9655 166.999 52.9655 165.612V164.609H54.4761V165.612C54.4761 166.987 55.1976 168.318 56.8886 168.859ZM53.7321 173.053H59.4139V174.236H52.2439V170.888H53.7321V173.053Z" fill="#333333"/>
<path d="M66.3171 166.807H67.9292V164.034H69.4173V170.302H67.9292V168.002H66.3171V166.807ZM66.971 168.836L66.2946 169.975C65.1334 169.671 64.3217 169.028 63.8482 168.205C63.386 169.152 62.5743 169.885 61.368 170.234L60.6691 169.084C62.315 168.611 63.0365 167.438 63.0591 166.277H61.0298V165.105H63.0591V164H64.5472V165.105H66.599V166.277H64.5472C64.5697 167.348 65.3138 168.397 66.971 168.836ZM65.9113 173.278C67.2641 173.278 67.9743 173.019 67.9743 172.455C67.9743 171.891 67.2641 171.621 65.9113 171.621C64.5359 171.621 63.8369 171.891 63.8369 172.455C63.8369 173.019 64.5359 173.278 65.9113 173.278ZM65.9113 170.482C68.1096 170.482 69.4624 171.204 69.4624 172.455C69.4624 173.695 68.1096 174.417 65.9113 174.417C63.7017 174.417 62.3488 173.695 62.3488 172.455C62.3488 171.204 63.7017 170.482 65.9113 170.482Z" fill="#333333"/>
<path d="M79.5673 164.045V171.497H78.0679V164.045H79.5673ZM72.5439 167.337C72.5439 168.171 73.1527 168.679 73.9193 168.679C74.6972 168.679 75.2834 168.171 75.2834 167.337C75.2834 166.48 74.6972 165.984 73.9193 165.984C73.1527 165.984 72.5439 166.48 72.5439 167.337ZM76.7377 167.337C76.7377 168.848 75.5089 169.964 73.9193 169.964C72.3297 169.964 71.0896 168.848 71.0896 167.337C71.0896 165.804 72.3297 164.699 73.9193 164.699C75.5089 164.699 76.7377 165.804 76.7377 167.337ZM74.1448 173.053H79.8266V174.236H72.6567V170.764H74.1448V173.053Z" fill="#333333"/>
<path d="M84.4864 164.722C86.1098 164.722 87.3499 165.792 87.3499 167.281C87.3499 168.78 86.1098 169.84 84.4864 169.84C82.863 169.84 81.6342 168.78 81.6342 167.281C81.6342 165.792 82.863 164.722 84.4864 164.722ZM84.4864 165.995C83.686 165.995 83.0772 166.469 83.0772 167.281C83.0772 168.092 83.686 168.566 84.4864 168.566C85.2868 168.566 85.8956 168.092 85.8956 167.281C85.8956 166.469 85.2868 165.995 84.4864 165.995ZM88.3194 164.023H89.8075V174.439H88.3194V164.023ZM81.3862 172.331L81.1945 171.125C83.0208 171.125 85.5686 171.114 87.7557 170.787L87.8459 171.858C85.6137 172.309 83.1787 172.331 81.3862 172.331Z" fill="#333333"/>
<path d="M94.1288 164.62H99.0328C99.0328 167.393 97.2967 169.265 94.219 170.065L93.6215 168.904C95.9326 168.329 97.2065 167.179 97.4207 165.804H94.1288V164.62ZM94.9969 171.677V170.494H101.919V174.428H100.431V171.677H94.9969ZM103.294 166.458V167.675H101.919V170.054H100.431V164.034H101.919V166.458H103.294Z" fill="#333333"/>
<path d="M113.162 167.844V166.773H108.889V167.844H113.162ZM114.628 164.428V169.028H107.413V164.428H108.889V165.612H113.162V164.428H114.628ZM115.744 170.009V171.193H111.753V174.428H110.265V171.193H106.342V170.009H115.744Z" fill="#333333"/>
<path d="M123.267 167.472V166.537H119.22V167.472H123.267ZM124.744 164.361V168.633H117.743V164.361H119.22V165.42H123.267V164.361H124.744ZM119.118 171.384V173.053H124.913V174.236H117.63V171.384H119.118ZM116.537 169.355H125.95V170.527H122.117V172.162H120.629V170.527H116.537V169.355Z" fill="#333333"/>
<path d="M130.091 164.722C131.715 164.722 132.955 165.792 132.955 167.281C132.955 168.78 131.715 169.84 130.091 169.84C128.468 169.84 127.239 168.78 127.239 167.281C127.239 165.792 128.468 164.722 130.091 164.722ZM130.091 165.995C129.291 165.995 128.682 166.469 128.682 167.281C128.682 168.092 129.291 168.566 130.091 168.566C130.892 168.566 131.5 168.092 131.5 167.281C131.5 166.469 130.892 165.995 130.091 165.995ZM133.924 164.023H135.412V174.439H133.924V164.023ZM126.991 172.331L126.799 171.125C128.626 171.125 131.174 171.114 133.361 170.787L133.451 171.858C131.219 172.309 128.784 172.331 126.991 172.331Z" fill="#333333"/>
<path d="M144.04 165.319C142.631 165.319 141.819 165.601 141.819 166.187C141.819 166.762 142.631 167.055 144.04 167.055C145.461 167.055 146.272 166.762 146.272 166.187C146.272 165.601 145.461 165.319 144.04 165.319ZM144.04 168.171C141.752 168.171 140.286 167.427 140.286 166.187C140.286 164.936 141.752 164.192 144.04 164.192C146.329 164.192 147.806 164.936 147.806 166.187C147.806 167.427 146.329 168.171 144.04 168.171ZM146.148 173.132V171.937H141.898V173.132H146.148ZM148.73 169.885H144.784V170.775H147.614V174.293H140.444V170.775H143.296V169.885H139.35V168.701H148.73V169.885Z" fill="#333333"/>
<path d="M156.028 168.803L155.272 169.941C154.123 169.58 153.333 168.836 152.86 167.912C152.398 168.927 151.563 169.738 150.357 170.133L149.602 168.972C151.293 168.43 152.06 167.111 152.082 165.826H149.996V164.654H155.644V165.826H153.593C153.615 167.044 154.382 168.261 156.028 168.803ZM151.113 171.937V170.753H158.181V174.428H156.682V171.937H151.113ZM156.682 164.034H158.181V170.291H156.682V164.034Z" fill="#333333"/>
<path d="M166.888 164.034H168.387V169.919H166.888V164.034ZM161.477 170.381H168.387V174.293H161.477V170.381ZM166.933 171.542H162.942V173.132H166.933V171.542ZM162.739 164.507C164.351 164.507 165.558 165.544 165.558 167.01C165.558 168.464 164.351 169.501 162.739 169.501C161.127 169.501 159.91 168.464 159.91 167.01C159.91 165.544 161.127 164.507 162.739 164.507ZM162.739 165.747C161.95 165.747 161.364 166.221 161.364 167.01C161.364 167.788 161.95 168.261 162.739 168.261C163.517 168.261 164.103 167.788 164.103 167.01C164.103 166.221 163.517 165.747 162.739 165.747Z" fill="#333333"/>
<path d="M173.306 164.722C174.93 164.722 176.17 165.792 176.17 167.281C176.17 168.78 174.93 169.84 173.306 169.84C171.683 169.84 170.454 168.78 170.454 167.281C170.454 165.792 171.683 164.722 173.306 164.722ZM173.306 165.995C172.506 165.995 171.897 166.469 171.897 167.281C171.897 168.092 172.506 168.566 173.306 168.566C174.107 168.566 174.716 168.092 174.716 167.281C174.716 166.469 174.107 165.995 173.306 165.995ZM177.139 164.023H178.628V174.439H177.139V164.023ZM170.206 172.331L170.015 171.125C171.841 171.125 174.389 171.114 176.576 170.787L176.666 171.858C174.434 172.309 171.999 172.331 170.206 172.331Z" fill="#333333"/>
<path d="M185.857 166.277V166.785C185.857 168.521 186.365 170.268 187.864 171.147L186.996 172.23C186.083 171.677 185.485 170.787 185.147 169.693C184.786 170.877 184.178 171.891 183.242 172.478L182.363 171.384C183.873 170.426 184.414 168.566 184.414 166.785V166.277H182.746V165.071H187.368V166.277H185.857ZM187.966 167.574V164.203H189.352V173.943H187.966V168.78H186.647V167.574H187.966ZM190.062 164.023H191.472V174.405H190.062V164.023Z" fill="#333333"/>
<path d="M198.893 165.127L198.882 166.289H192.772V165.127H195.072V164.023H196.571V165.127H198.893ZM194.7 168.656C194.7 169.231 195.162 169.535 195.827 169.535C196.481 169.535 196.954 169.231 196.954 168.656C196.954 168.092 196.481 167.788 195.827 167.788C195.162 167.788 194.7 168.092 194.7 168.656ZM198.375 168.656C198.375 169.851 197.315 170.663 195.827 170.663C194.339 170.663 193.279 169.851 193.279 168.656C193.279 167.484 194.339 166.661 195.827 166.661C197.315 166.661 198.375 167.484 198.375 168.656ZM195.737 171.226V173.053H201.317V174.236H194.249V171.226H195.737ZM200.945 167.202H202.321V168.43H200.945V171.801H199.457V164.034H200.945V167.202Z" fill="#333333"/>
<path d="M210.824 169.377H212.594V167.348H210.791C210.858 167.686 210.892 168.058 210.892 168.453C210.892 168.78 210.87 169.096 210.824 169.377ZM208.209 170.82C208.976 170.82 209.494 169.998 209.494 168.453C209.494 166.92 208.976 166.097 208.209 166.097C207.454 166.097 206.935 166.92 206.935 168.453C206.935 169.998 207.454 170.82 208.209 170.82ZM212.594 164.023H214.082V174.439H212.594V170.584H210.475C210.013 171.598 209.212 172.185 208.209 172.173C206.664 172.173 205.526 170.742 205.526 168.453C205.526 166.176 206.664 164.755 208.209 164.755C209.145 164.755 209.923 165.263 210.385 166.153H212.594V164.023Z" fill="#333333"/>
<path d="M222.395 167.844V166.773H218.122V167.844H222.395ZM223.86 164.428V169.028H216.645V164.428H218.122V165.612H222.395V164.428H223.86ZM224.977 170.009V171.193H220.986V174.428H219.498V171.193H215.574V170.009H224.977Z" fill="#333333"/>
<path d="M232.567 165.725V165.218H226.931V164.214H234.033V166.661H228.419V167.202H234.213V168.205H226.953V165.725H232.567ZM228.329 172.76V173.323H234.349V174.327H226.852V171.824H232.59V171.294H226.84V170.291H234.067V172.76H228.329ZM225.781 168.701H235.183V169.772H225.781V168.701Z" fill="#333333"/>
<path d="M240.846 167.461V168.915H245.288V167.461H240.846ZM243.811 172.004H247.779V173.21H238.377V172.004H242.323V170.099H239.369V164.676H240.846V166.289H245.288V164.676H246.753V170.099H243.811V172.004Z" fill="#333333"/>
<path d="M252.608 164.834V166.345C252.608 168.273 253.431 170.167 255.189 170.922L254.344 172.128C253.149 171.587 252.349 170.561 251.886 169.287C251.424 170.674 250.579 171.79 249.339 172.376L248.448 171.147C250.263 170.37 251.12 168.363 251.12 166.345V164.834H252.608ZM255.697 164.023H257.185V174.439H255.697V164.023Z" fill="#333333"/>
<path d="M266.873 170.888L265.385 170.719C265.779 168.757 265.802 167.314 265.802 166.108H259.748V164.924H267.29V165.916C267.29 167.213 267.29 168.679 266.873 170.888ZM263.603 171.97H268.192V173.165H258.801V171.97H262.115V168.397H263.603V171.97Z" fill="#333333"/>
<path d="M30.7267 187.364C31.4256 187.364 31.9329 186.89 31.9329 186.09C31.9329 185.312 31.4256 184.827 30.7267 184.827C30.0277 184.827 29.5091 185.312 29.5091 186.101C29.5091 186.89 30.0277 187.364 30.7267 187.364ZM30.7267 183.621C32.2261 183.621 33.3421 184.647 33.3421 186.09C33.3421 187.555 32.2261 188.581 30.7267 188.581C29.216 188.581 28.0887 187.555 28.0887 186.09C28.0887 184.647 29.216 183.621 30.7267 183.621ZM31.4595 180.498V181.851H33.7142V183.035H27.6716V181.851H29.9714V180.498H31.4595ZM37.3668 184.376V185.605H35.8787V190.701H34.3906V180.318H35.8787V184.376H37.3668Z" fill="#333333"/>
<path d="M39.738 181.299V186.913C41.0458 186.879 42.455 186.766 43.9092 186.484L44.0558 187.702C42.3309 188.063 40.6625 188.153 39.1518 188.153H38.2499V181.299H39.738ZM47.5168 184.23V185.459H46.0625V190.678H44.5744V180.307H46.0625V184.23H47.5168Z" fill="#333333"/>
<path d="M55.1302 184.929L54.3298 185.977C53.6421 185.56 53.2024 184.906 52.9431 184.14C52.6951 184.94 52.2667 185.65 51.5565 186.101C50.835 185.639 50.4066 184.917 50.1586 184.117C49.888 184.884 49.4484 185.549 48.7607 185.977L47.9602 184.929C49.1552 184.173 49.4596 182.798 49.4596 181.524V180.881H50.8575V181.524C50.8575 182.437 50.9816 183.486 51.5565 184.309C52.1202 183.497 52.2442 182.448 52.2442 181.524V180.881H53.6308V181.524C53.6308 182.832 53.9352 184.185 55.1302 184.929ZM49.6175 188.006V186.823H57.0016V190.712H55.5022V188.006H49.6175ZM55.5022 180.318H57.0016V186.338H55.5022V180.318Z" fill="#333333"/>
<path d="M69.3497 180.318V185.639H67.8616V180.318H69.3497ZM67.2077 184.399L66.5313 185.537C65.3363 185.222 64.5246 184.534 64.0511 183.655C63.5777 184.636 62.7209 185.413 61.4695 185.763L60.7818 184.602C62.3827 184.151 63.1493 183.069 63.2507 181.975H61.1764V180.791H66.8244V181.975H64.7839C64.8967 182.978 65.652 183.982 67.2077 184.399ZM63.9271 189.494H69.6203V190.622H62.4503V187.792H67.8841V187.172H62.439V186.056H69.361V188.841H63.9271V189.494Z" fill="#333333"/>
<path d="M77.6734 183.452V181.919H73.5585V183.452H77.6734ZM79.1389 180.757V184.624H72.093V180.757H79.1389ZM73.5134 187.51V189.337H79.2968V190.52H72.0253V187.51H73.5134ZM70.9318 185.447H80.3339V186.62H76.5122V188.39H75.0241V186.62H70.9318V185.447Z" fill="#333333"/>
<path d="M83.483 187.195C84.058 187.195 84.3849 186.417 84.3849 184.816C84.3849 183.226 84.058 182.448 83.483 182.448C82.9194 182.448 82.5812 183.226 82.5812 184.816C82.5812 186.417 82.9194 187.195 83.483 187.195ZM86.5382 184.14V180.487H87.9248V190.238H86.5382V185.346H85.7265C85.5912 187.375 84.7457 188.593 83.483 188.593C82.1077 188.593 81.2396 187.172 81.2396 184.816C81.2396 182.471 82.1077 181.051 83.483 181.051C84.7119 181.051 85.5461 182.2 85.7152 184.14H86.5382ZM88.6463 180.307H90.0555V190.689H88.6463V180.307Z" fill="#333333"/>
<path d="M99.619 184.128L99.7656 185.312C98.4917 185.583 97.308 185.65 95.0082 185.65H94.1401V180.927H98.7622V182.11H95.6169V184.455C97.4658 184.444 98.4917 184.365 99.619 184.128ZM100.442 189.382V188.469H96.609V189.382H100.442ZM100.442 187.33V186.383H101.919V190.565H95.1434V186.383H96.609V187.33H100.442ZM103.294 182.55V183.767H101.919V185.876H100.431V180.307H101.919V182.55H103.294Z" fill="#333333"/>
<path d="M106.443 187.228C107.007 187.228 107.413 186.778 107.413 186C107.413 185.222 107.007 184.76 106.443 184.76C105.88 184.76 105.474 185.222 105.474 186C105.474 186.778 105.88 187.228 106.443 187.228ZM106.443 183.519C107.774 183.519 108.721 184.545 108.721 186C108.721 187.443 107.774 188.469 106.443 188.469C105.113 188.469 104.166 187.443 104.166 186C104.166 184.545 105.113 183.519 106.443 183.519ZM107.176 180.6V181.885H108.901V183.069H103.941V181.885H105.711V180.6H107.176ZM111.449 180.307H112.858V190.689H111.449V185.74H110.66V190.261H109.273V180.509H110.66V184.545H111.449V180.307Z" fill="#333333"/>
<path d="M119.017 183.745V185.199H123.459V183.745H119.017ZM121.982 188.288H125.95V189.494H116.548V188.288H120.494V186.383H117.54V180.96H119.017V182.572H123.459V180.96H124.924V186.383H121.982V188.288Z" fill="#333333"/>
<path d="M130.069 181.22V182.911C130.069 184.59 130.52 186.315 131.929 187.251L131.117 188.401C130.238 187.86 129.685 186.98 129.359 185.932C128.998 187.082 128.389 188.074 127.453 188.638L126.563 187.522C128.085 186.597 128.637 184.737 128.637 182.967V181.22H130.069ZM132.143 183.824V180.487H133.53V190.238H132.143V185.03H130.835V183.824H132.143ZM134.251 180.318H135.66V190.701H134.251V180.318Z" fill="#333333"/>
<path d="M140.512 186.304V188.288H142.8V186.304C142.44 186.372 142.056 186.405 141.65 186.405C141.245 186.405 140.873 186.372 140.512 186.304ZM141.65 181.998C140.207 181.998 139.249 182.584 139.249 183.621C139.249 184.647 140.207 185.244 141.65 185.244C143.093 185.244 144.063 184.647 144.063 183.621C144.063 182.584 143.093 181.998 141.65 181.998ZM144.277 188.288H146.363V189.494H136.961V188.288H139.035V185.752C138.246 185.267 137.772 184.523 137.784 183.621C137.784 181.919 139.418 180.825 141.65 180.825C143.894 180.825 145.529 181.919 145.529 183.621C145.529 184.523 145.055 185.267 144.277 185.752V188.288Z" fill="#333333"/>
<path d="M148.509 189.889C147.922 189.889 147.483 189.416 147.483 188.807C147.483 188.187 147.922 187.724 148.509 187.724C149.106 187.724 149.546 188.187 149.546 188.807C149.546 189.416 149.106 189.889 148.509 189.889Z" fill="#333333"/>
<path d="M27.2432 175.138H50.0505V175.702H27.2432V175.138Z" fill="#333333"/>
<path d="M50.0456 175.138H268.512V175.702H50.0456V175.138Z" fill="#333333"/>
<path d="M27.2432 191.422H150.346V191.986H27.2432V191.422Z" fill="#333333"/>
<path d="M145.191 17.1677H148.949V44.8554H145.191V31.0266H142.936V43.6229H139.238V35.5961L137.014 38.5723C134.549 37.2496 132.925 35.0249 131.963 32.2592C131.061 35.4458 129.438 38.0312 126.852 39.5945L124.478 36.5882C128.596 34.1832 129.919 29.283 129.919 23.9619V23.2103H125.379V19.9936H137.916V23.2103H133.767V23.9619C133.767 28.802 135.15 33.4015 139.238 35.536V17.6186H142.936V27.7798H145.191V17.1677Z" fill="#333333"/>
<path d="M167.571 18.9414V21.5568H151.848V18.9414H157.741V16.9873H161.709V18.9414H167.571ZM156.719 25.7055C156.719 26.5172 157.831 26.9381 159.725 26.9381C161.619 26.9381 162.701 26.5172 162.701 25.7055C162.701 24.9239 161.619 24.533 159.725 24.533C157.831 24.533 156.719 24.9239 156.719 25.7055ZM168.263 29.794L168.533 32.169C162.731 33.1911 156.328 33.2512 151.548 33.2512L151.157 30.5456C153.141 30.5456 155.366 30.5456 157.741 30.4855V29.2228C154.765 28.8621 152.961 27.5994 152.961 25.7055C152.961 23.4508 155.606 22.098 159.725 22.098C163.843 22.098 166.459 23.4508 166.459 25.7055C166.459 27.5994 164.655 28.8621 161.709 29.2228V30.3352C163.934 30.2149 166.158 30.0345 168.263 29.794ZM158.793 40.7369V42.0596H174.395V44.6751H154.855V38.3018H169.525V37.0993H154.825V34.4838H173.433V40.7369H158.793ZM173.433 23.7214H176.921V26.9681H173.433V33.4917H169.465V17.1677H173.433V23.7214Z" fill="#333333"/>
<g opacity="0.2">
<path d="M126.411 4.81473H128.124C128.101 5.31056 127.967 5.74767 127.723 6.12606C127.478 6.50445 127.139 6.79967 126.705 7.0117C126.274 7.22047 125.765 7.32485 125.178 7.32485C124.702 7.32485 124.276 7.24493 123.901 7.08509C123.529 6.92525 123.213 6.69528 122.952 6.39518C122.694 6.09507 122.497 5.73136 122.36 5.30403C122.226 4.87671 122.159 4.39556 122.159 3.86059V3.47404C122.159 2.93907 122.229 2.45793 122.37 2.0306C122.513 1.60002 122.715 1.23467 122.976 0.934567C123.241 0.631199 123.557 0.399597 123.926 0.239758C124.294 0.0799193 124.704 0 125.154 0C125.773 0 126.297 0.110908 126.724 0.332725C127.152 0.554542 127.483 0.85954 127.718 1.24772C127.953 1.63264 128.091 2.07138 128.134 2.56394H126.421C126.414 2.29646 126.369 2.07301 126.284 1.8936C126.199 1.71093 126.065 1.57392 125.883 1.48258C125.7 1.39125 125.457 1.34558 125.154 1.34558C124.942 1.34558 124.757 1.38472 124.601 1.46301C124.444 1.5413 124.314 1.66526 124.209 1.83488C124.105 2.00451 124.027 2.22469 123.974 2.49544C123.926 2.76292 123.901 3.08586 123.901 3.46426V3.86059C123.901 4.23899 123.924 4.56192 123.97 4.82941C124.015 5.0969 124.089 5.31545 124.19 5.48507C124.291 5.6547 124.421 5.78029 124.581 5.86184C124.744 5.94013 124.943 5.97927 125.178 5.97927C125.439 5.97927 125.659 5.93849 125.839 5.85694C126.018 5.77213 126.157 5.64491 126.255 5.47529C126.352 5.3024 126.405 5.08222 126.411 4.81473Z" fill="#333333"/>
<path d="M133.736 2.93092V4.25203H130.081V2.93092H133.736ZM130.653 0.102753V7.22699H128.936V0.102753H130.653ZM134.891 0.102753V7.22699H133.178V0.102753H134.891Z" fill="#333333"/>
<path d="M140.885 5.90587V7.22699H137.088V5.90587H140.885ZM137.699 0.102753V7.22699H135.982V0.102753H137.699ZM140.395 2.93092V4.208H137.088V2.93092H140.395ZM140.899 0.102753V1.42876H137.088V0.102753H140.899Z" fill="#333333"/>
<path d="M145.641 4.81473H147.353C147.331 5.31056 147.197 5.74767 146.952 6.12606C146.707 6.50445 146.368 6.79967 145.934 7.0117C145.504 7.22047 144.995 7.32485 144.408 7.32485C143.931 7.32485 143.506 7.24493 143.131 7.08509C142.759 6.92525 142.442 6.69528 142.181 6.39518C141.924 6.09507 141.726 5.73136 141.589 5.30403C141.456 4.87671 141.389 4.39556 141.389 3.86059V3.47404C141.389 2.93907 141.459 2.45793 141.599 2.0306C141.743 1.60002 141.945 1.23467 142.206 0.934567C142.47 0.631199 142.787 0.399597 143.155 0.239758C143.524 0.0799193 143.933 0 144.383 0C145.003 0 145.527 0.110908 145.954 0.332725C146.381 0.554542 146.712 0.85954 146.947 1.24772C147.182 1.63264 147.321 2.07138 147.363 2.56394H145.651C145.644 2.29646 145.598 2.07301 145.514 1.8936C145.429 1.71093 145.295 1.57392 145.112 1.48258C144.93 1.39125 144.687 1.34558 144.383 1.34558C144.171 1.34558 143.987 1.38472 143.83 1.46301C143.674 1.5413 143.543 1.66526 143.439 1.83488C143.335 2.00451 143.256 2.22469 143.204 2.49544C143.155 2.76292 143.131 3.08586 143.131 3.46426V3.86059C143.131 4.23899 143.153 4.56192 143.199 4.82941C143.245 5.0969 143.318 5.31545 143.419 5.48507C143.52 5.6547 143.651 5.78029 143.811 5.86184C143.974 5.94013 144.173 5.97927 144.408 5.97927C144.669 5.97927 144.889 5.93849 145.068 5.85694C145.248 5.77213 145.386 5.64491 145.484 5.47529C145.582 5.3024 145.634 5.08222 145.641 4.81473Z" fill="#333333"/>
<path d="M149.883 0.102753V7.22699H148.166V0.102753H149.883ZM154.135 0.102753L151.375 3.7138L149.761 5.48018L149.448 3.90463L150.48 2.33886L152.016 0.102753H154.135ZM152.104 7.22699L150.265 4.01717L151.6 3.03367L154.135 7.22699H152.104Z" fill="#333333"/>
<path d="M161.778 5.90587V7.22699H158.177V5.90587H161.778ZM158.788 0.102753V7.22699H157.071V0.102753H158.788Z" fill="#333333"/>
<path d="M164.327 0.102753V7.22699H162.615V0.102753H164.327Z" fill="#333333"/>
<path d="M169.206 5.33339C169.206 5.22248 169.189 5.12299 169.157 5.03492C169.124 4.94358 169.064 4.85877 168.976 4.78048C168.888 4.70219 168.76 4.6239 168.594 4.54561C168.431 4.46406 168.216 4.37925 167.948 4.29118C167.635 4.18679 167.333 4.06936 167.043 3.93888C166.753 3.80514 166.493 3.65019 166.265 3.47404C166.037 3.29463 165.855 3.08586 165.722 2.84774C165.588 2.60635 165.521 2.32582 165.521 2.00614C165.521 1.69951 165.59 1.42387 165.727 1.17922C165.864 0.931305 166.054 0.720905 166.299 0.548018C166.547 0.371869 166.837 0.238127 167.17 0.146791C167.503 0.0521922 167.867 0.00489302 168.261 0.00489302C168.783 0.00489302 169.243 0.0962294 169.641 0.278902C170.042 0.458313 170.355 0.714381 170.581 1.04711C170.809 1.37657 170.923 1.76638 170.923 2.21654H169.215C169.215 2.03713 169.178 1.87892 169.103 1.74191C169.031 1.60491 168.922 1.49726 168.775 1.41898C168.628 1.34069 168.444 1.30154 168.222 1.30154C168.007 1.30154 167.826 1.33416 167.679 1.3994C167.532 1.46464 167.421 1.55272 167.346 1.66363C167.271 1.77127 167.234 1.89034 167.234 2.02082C167.234 2.12846 167.263 2.22632 167.322 2.3144C167.384 2.39921 167.47 2.47913 167.581 2.55416C167.695 2.62918 167.832 2.70095 167.992 2.76945C168.155 2.83795 168.338 2.90482 168.54 2.97006C168.919 3.09076 169.254 3.22613 169.548 3.37618C169.845 3.52297 170.094 3.69097 170.297 3.88016C170.502 4.0661 170.657 4.27813 170.762 4.51626C170.869 4.75438 170.923 5.0235 170.923 5.32361C170.923 5.64328 170.861 5.92708 170.737 6.17499C170.613 6.4229 170.435 6.6333 170.204 6.80619C169.972 6.97581 169.695 7.10466 169.372 7.19274C169.049 7.28081 168.689 7.32485 168.291 7.32485C167.925 7.32485 167.565 7.27918 167.209 7.18785C166.857 7.09325 166.537 6.94972 166.25 6.75726C165.963 6.56154 165.733 6.312 165.56 6.00863C165.391 5.702 165.306 5.33828 165.306 4.91748H167.028C167.028 5.12625 167.056 5.3024 167.111 5.44593C167.167 5.58946 167.248 5.70526 167.356 5.79333C167.464 5.87815 167.596 5.94013 167.752 5.97927C167.909 6.01515 168.088 6.03309 168.291 6.03309C168.509 6.03309 168.685 6.0021 168.819 5.94013C168.953 5.87489 169.051 5.79007 169.113 5.68569C169.175 5.57804 169.206 5.46061 169.206 5.33339Z" fill="#333333"/>
<path d="M175.258 0.102753V7.22699H173.541V0.102753H175.258ZM177.401 0.102753V1.42876H171.447V0.102753H177.401Z" fill="#333333"/>
</g>
<path d="M71.5769 127.944H75.7155C75.7155 130.218 74.1322 131.832 71.5067 132.553L71.166 131.902C73.3506 131.311 74.6834 130.138 74.8337 128.615H71.5769V127.944ZM72.3184 133.716V133.054H78.1606V136.361H77.3389V133.716H72.3184ZM79.4934 129.647V130.328H78.1606V132.643H77.3389V127.362H78.1606V129.647H79.4934Z" fill="#333333"/>
<path d="M86.739 131.21L85.9274 131.12C86.1378 130.088 86.1679 129.316 86.1679 128.745H82.5002V128.074H86.9695V128.545C86.9695 129.136 86.9695 130.028 86.739 131.21ZM87.5908 131.751L87.6509 132.353C85.7871 132.663 83.6326 132.713 82.0392 132.713L81.9591 132.042C82.5303 132.042 83.1816 132.032 83.863 132.022V130.078H84.6747V131.992C85.6568 131.952 86.6789 131.872 87.5908 131.751ZM84.1537 133.525V135.489H89.3044V136.161H83.3319V133.525H84.1537ZM89.0138 130.298H90.2965V130.98H89.0138V134.146H88.1921V127.372H89.0138V130.298Z" fill="#333333"/>
<path d="M95.7245 129.387H97.4982V127.382H98.3199V132.022H97.4982V130.048H95.7245V129.387ZM96.1955 131.27L95.8047 131.912C94.7926 131.591 94.0109 130.89 93.6201 130.008C93.2393 130.97 92.4176 131.761 91.3654 132.122L90.9546 131.481C92.2673 131.03 93.1992 129.908 93.1992 128.745V128.505H91.2051V127.843H96.0151V128.505H94.031V128.745C94.031 129.827 94.9128 130.86 96.1955 131.27ZM93.3596 135.61H98.6606V136.261H92.5479V134.006H97.5082V133.114H92.5278V132.473H98.3199V134.627H93.3596V135.61Z" fill="#333333"/>
<path d="M102.746 128.034C104.149 128.034 105.151 128.885 105.151 130.148C105.151 131.401 104.149 132.263 102.746 132.263C101.353 132.263 100.341 131.401 100.341 130.148C100.341 128.885 101.353 128.034 102.746 128.034ZM102.746 128.735C101.824 128.735 101.143 129.306 101.143 130.148C101.143 130.98 101.824 131.561 102.746 131.561C103.678 131.561 104.349 130.98 104.349 130.148C104.349 129.306 103.678 128.735 102.746 128.735ZM106.333 127.372H107.155V136.381H106.333V127.372ZM99.9901 134.407L99.8899 133.716C101.523 133.716 103.778 133.706 105.742 133.405L105.812 134.016C103.788 134.387 101.614 134.407 99.9901 134.407Z" fill="#333333"/>
<path d="M114.731 128.184C113.298 128.184 112.407 128.575 112.407 129.236C112.407 129.888 113.298 130.278 114.731 130.278C116.144 130.278 117.036 129.888 117.036 129.236C117.036 128.575 116.144 128.184 114.731 128.184ZM114.731 130.91C112.777 130.91 111.565 130.298 111.565 129.236C111.565 128.164 112.777 127.543 114.731 127.543C116.665 127.543 117.878 128.164 117.878 129.236C117.878 130.298 116.665 130.91 114.731 130.91ZM116.996 135.579V133.936H112.467V135.579H116.996ZM118.79 132.263H115.142V133.285H117.798V136.241H111.665V133.285H114.321V132.263H110.663V131.601H118.79V132.263Z" fill="#333333"/>
<path d="M125.06 131.761L124.659 132.413C123.627 132.052 122.805 131.311 122.394 130.369C122.013 131.391 121.182 132.192 120.119 132.583L119.688 131.942C121.051 131.461 121.963 130.288 121.963 129.026V128.665H119.909V128.004H124.839V128.665H122.805V129.026C122.805 130.228 123.737 131.321 125.06 131.761ZM120.931 133.946V133.285H126.944V136.361H126.122V133.946H120.931ZM126.122 127.372H126.944V132.814H126.122V127.372Z" fill="#333333"/>
<path d="M135.027 127.382H135.849V132.523H135.027V127.382ZM130.037 133.004H135.849V136.241H130.037V133.004ZM135.047 133.655H130.838V135.579H135.047V133.655ZM131.019 127.853C132.382 127.853 133.374 128.705 133.374 129.948C133.374 131.19 132.382 132.042 131.019 132.042C129.666 132.042 128.684 131.19 128.684 129.948C128.684 128.705 129.666 127.853 131.019 127.853ZM131.019 128.535C130.127 128.535 129.486 129.126 129.486 129.948C129.486 130.779 130.127 131.361 131.019 131.361C131.921 131.361 132.572 130.779 132.572 129.948C132.572 129.126 131.921 128.535 131.019 128.535Z" fill="#333333"/>
<path d="M142.069 132.413L141.247 132.333C141.497 130.84 141.517 129.747 141.517 129.026H137.78V128.354H142.319V128.845C142.319 129.567 142.319 130.739 142.069 132.413ZM140.004 130.92V133.665C140.986 133.625 141.988 133.565 142.9 133.455L142.95 134.056C141.087 134.357 138.972 134.397 137.379 134.397L137.289 133.716C137.86 133.716 138.521 133.706 139.193 133.685V130.92H140.004ZM145.706 131.13V131.822H144.273V136.361H143.451V127.372H144.273V131.13H145.706Z" fill="#333333"/>
<path d="M146.505 137.524L146.284 136.982C146.915 136.702 147.286 136.211 147.286 135.62C147.246 135.63 147.216 135.63 147.176 135.63C146.825 135.63 146.505 135.409 146.505 134.988C146.505 134.597 146.825 134.347 147.196 134.347C147.677 134.347 147.968 134.758 147.968 135.429C147.968 136.391 147.406 137.143 146.505 137.524Z" fill="#333333"/>
<path d="M155.458 129.858H157.262V127.382H158.093V133.966H157.262V130.529H155.458V129.858ZM155.989 131.972L155.578 132.613C154.576 132.253 153.804 131.501 153.414 130.579C153.023 131.601 152.201 132.433 151.149 132.814L150.718 132.172C152.051 131.691 152.983 130.499 152.983 129.226V128.775H150.978V128.104H155.778V128.775H153.804V129.216C153.804 130.389 154.686 131.511 155.989 131.972ZM153.173 135.489H158.344V136.161H152.341V133.385H153.173V135.489Z" fill="#333333"/>
<path d="M162.209 129.707V130.138C162.209 131.571 162.93 133.054 164.143 133.706L163.672 134.327C162.8 133.836 162.158 132.924 161.828 131.842C161.517 132.984 160.886 133.986 160.004 134.517L159.523 133.906C160.736 133.184 161.427 131.611 161.427 130.138V129.707H159.763V129.026H161.427V127.693H162.219V129.026H163.872V129.707H162.209ZM164.634 130.92V127.583H165.415V135.89H164.634V131.601H163.261V130.92H164.634ZM166.437 127.372H167.229V136.351H166.437V127.372Z" fill="#333333"/>
<path d="M173.799 131.761L173.389 132.403C172.387 132.042 171.615 131.301 171.214 130.369C170.833 131.401 170.012 132.222 168.959 132.613L168.528 131.962C169.861 131.491 170.793 130.288 170.793 129.016V128.655H168.789V127.984H173.589V128.655H171.615V129.016C171.615 130.168 172.497 131.301 173.799 131.761ZM169.891 133.906V133.245H175.904V136.371H175.072V133.906H169.891ZM175.072 127.372H175.904V132.754H175.072V130.389H173.318V129.717H175.072V127.372Z" fill="#333333"/>
<path d="M184.779 127.382V133.946H183.957V127.382H184.779ZM178.416 130.208C178.416 131.1 179.077 131.721 179.949 131.721C180.841 131.721 181.502 131.1 181.502 130.208C181.502 129.336 180.841 128.715 179.949 128.715C179.077 128.715 178.416 129.336 178.416 130.208ZM182.304 130.208C182.304 131.511 181.292 132.433 179.949 132.433C178.616 132.433 177.614 131.511 177.614 130.208C177.614 128.916 178.616 128.004 179.949 128.004C181.292 128.004 182.304 128.916 182.304 130.208ZM179.819 135.489H185.05V136.161H178.997V133.275H179.819V135.489Z" fill="#333333"/>
<path d="M190.201 128.625V131.03C190.672 131.02 191.153 131.01 191.634 130.99V128.625H190.201ZM193.738 130.83L193.788 131.421C191.985 131.701 189.9 131.721 188.347 131.731L188.267 131.05C188.618 131.05 189.008 131.05 189.399 131.05V128.625H188.517V127.974H193.317V128.625H192.426V130.94C192.877 130.91 193.317 130.87 193.738 130.83ZM190.331 134.627V135.61H195.542V136.261H189.53V134.016H194.4V133.114H189.499V132.473H195.211V134.627H190.331ZM195.211 129.346H196.544V130.028H195.211V132.042H194.39V127.372H195.211V129.346Z" fill="#333333"/>
<path d="M197.363 137.524L197.142 136.982C197.773 136.702 198.144 136.211 198.144 135.62C198.104 135.63 198.074 135.63 198.034 135.63C197.683 135.63 197.363 135.409 197.363 134.988C197.363 134.597 197.683 134.347 198.054 134.347C198.535 134.347 198.826 134.758 198.826 135.429C198.826 136.391 198.264 137.143 197.363 137.524Z" fill="#333333"/>
<path d="M202.748 128.916V133.435C204.342 133.435 205.494 133.365 206.797 133.134L206.887 133.816C205.514 134.076 204.332 134.136 202.638 134.136H201.927V128.234H206.105V128.916H202.748ZM209.943 130.92V131.601H208.46V136.381H207.639V127.372H208.46V130.92H209.943Z" fill="#333333"/>
<path d="M211.794 131.411V133.515C213.267 133.515 214.59 133.445 216.163 133.194L216.243 133.866C214.62 134.136 213.257 134.197 211.714 134.197H210.972V130.749H214.279V128.875H210.942V128.204H215.111V131.411H211.794ZM217.005 127.362H217.827V136.371H217.005V127.362Z" fill="#333333"/>
<path d="M222.273 128.034C223.675 128.034 224.678 128.885 224.678 130.148C224.678 131.401 223.675 132.263 222.273 132.263C220.88 132.263 219.868 131.401 219.868 130.148C219.868 128.885 220.88 128.034 222.273 128.034ZM222.273 128.735C221.351 128.735 220.669 129.306 220.669 130.148C220.669 130.98 221.351 131.561 222.273 131.561C223.204 131.561 223.876 130.98 223.876 130.148C223.876 129.306 223.204 128.735 222.273 128.735ZM225.86 127.372H226.682V136.381H225.86V127.372ZM219.517 134.407L219.417 133.716C221.05 133.716 223.305 133.706 225.269 133.405L225.339 134.016C223.315 134.387 221.14 134.407 219.517 134.407Z" fill="#333333"/>
<path d="M87.3156 142.043C85.9427 142.043 85.0308 142.474 85.0308 143.185C85.0308 143.887 85.9427 144.318 87.3156 144.318C88.6985 144.318 89.6004 143.887 89.6004 143.185C89.6004 142.474 88.6985 142.043 87.3156 142.043ZM87.3156 144.989C85.4116 144.989 84.169 144.298 84.169 143.185C84.169 142.073 85.4116 141.382 87.3156 141.382C89.2196 141.382 90.4622 142.073 90.4622 143.185C90.4622 144.298 89.2196 144.989 87.3156 144.989ZM85.111 147.314V149.258H90.5022V149.939H84.2893V147.314H85.111ZM83.2471 145.711H91.3941V146.382H87.8066V148.196H86.9749V146.382H83.2471V145.711Z" fill="#333333"/>
<path d="M96.2309 149.498C97.6338 149.498 98.4656 149.148 98.4656 148.516C98.4656 147.885 97.6338 147.534 96.2309 147.534C94.8079 147.534 93.9762 147.885 93.9762 148.516C93.9762 149.148 94.8079 149.498 96.2309 149.498ZM96.2309 146.893C98.1349 146.893 99.2973 147.474 99.2973 148.516C99.2973 149.559 98.1349 150.14 96.2309 150.14C94.3069 150.14 93.1445 149.559 93.1445 148.516C93.1445 147.474 94.3069 146.893 96.2309 146.893ZM96.6418 145.59H100.299V146.252H92.1624V145.59H95.8201V144.548H93.1846V141.562H99.2873V142.223H94.0063V143.887H99.3474V144.548H96.6418V145.59Z" fill="#333333"/>
<path d="M110.201 143.656V144.318H104.098V141.341H104.92V143.656H110.201ZM107.054 149.468C108.457 149.468 109.299 149.098 109.299 148.476C109.299 147.835 108.467 147.474 107.054 147.474C105.641 147.474 104.809 147.835 104.809 148.476C104.809 149.098 105.641 149.468 107.054 149.468ZM107.054 146.833C108.968 146.833 110.13 147.424 110.13 148.476C110.13 149.519 108.968 150.11 107.054 150.11C105.14 150.11 103.978 149.519 103.978 148.476C103.978 147.424 105.14 146.833 107.054 146.833ZM103.006 145.36H111.133V146.031H103.006V145.36Z" fill="#333333"/>
<path d="M116.651 145.39L116.731 146.051C115.629 146.242 114.717 146.272 112.923 146.272H112.282V143.606H115.328V142.364H112.252V141.692H116.13V144.238H113.083V145.6C114.747 145.6 115.609 145.56 116.651 145.39ZM113.284 147.835V147.164H119.306V150.15H118.475V147.835H113.284ZM118.475 141.161H119.306V146.683H118.475V145.019H116.721V144.358H118.475V143.155H116.721V142.484H118.475V141.161Z" fill="#333333"/>
<path d="M124.865 141.923C123.392 141.923 122.55 142.263 122.55 142.865C122.55 143.466 123.392 143.807 124.865 143.807C126.338 143.807 127.179 143.466 127.179 142.865C127.179 142.263 126.338 141.923 124.865 141.923ZM124.865 144.418C122.891 144.418 121.708 143.877 121.708 142.865C121.708 141.853 122.891 141.301 124.865 141.301C126.839 141.301 128.021 141.853 128.021 142.865C128.021 143.877 126.839 144.418 124.865 144.418ZM122.61 148.486V149.398H128.162V150.04H121.808V147.885H127.079V147.083H121.778V146.462H127.891V148.486H122.61ZM120.796 145.029H128.933V145.691H120.796V145.029Z" fill="#333333"/>
<path d="M136.98 141.973V142.594H131.82V141.973H133.994V141.091H134.816V141.973H136.98ZM133.082 144.258C133.082 144.729 133.593 145.029 134.405 145.029C135.197 145.029 135.718 144.729 135.718 144.258C135.718 143.787 135.197 143.496 134.405 143.496C133.593 143.496 133.082 143.787 133.082 144.258ZM137.251 145.981L137.311 146.572C135.387 146.903 133.263 146.913 131.689 146.923L131.599 146.262C132.311 146.262 133.132 146.262 133.994 146.232V145.58C132.952 145.48 132.301 144.999 132.301 144.258C132.301 143.436 133.132 142.925 134.405 142.925C135.658 142.925 136.499 143.436 136.499 144.258C136.499 144.989 135.848 145.47 134.816 145.58V146.202C135.638 146.162 136.469 146.101 137.251 145.981ZM132.691 148.286V147.635H138.604V150.14H137.782V148.286H132.691ZM139.917 143.877V144.558H138.604V147.184H137.782V141.161H138.604V143.877H139.917Z" fill="#333333"/>
<path d="M147.92 141.161V147.725H147.098V141.161H147.92ZM141.557 143.987C141.557 144.879 142.218 145.5 143.09 145.5C143.982 145.5 144.643 144.879 144.643 143.987C144.643 143.115 143.982 142.494 143.09 142.494C142.218 142.494 141.557 143.115 141.557 143.987ZM145.445 143.987C145.445 145.29 144.433 146.212 143.09 146.212C141.757 146.212 140.755 145.29 140.755 143.987C140.755 142.694 141.757 141.782 143.09 141.782C144.433 141.782 145.445 142.694 145.445 143.987ZM142.96 149.268H148.191V149.939H142.138V147.053H142.96V149.268Z" fill="#333333"/>
<path d="M152.085 147.454C152.907 147.454 153.498 146.873 153.498 146.071C153.498 145.26 152.907 144.678 152.085 144.678C151.274 144.678 150.682 145.26 150.682 146.071C150.682 146.873 151.274 147.454 152.085 147.454ZM152.085 143.997C153.368 143.997 154.28 144.859 154.28 146.071C154.28 147.294 153.368 148.136 152.085 148.136C150.823 148.136 149.911 147.294 149.911 146.071C149.911 144.859 150.823 143.997 152.085 143.997ZM152.486 141.261V142.594H154.701V143.255H149.4V142.594H151.665V141.261H152.486ZM157.847 144.849V145.54H156.374V150.14H155.553V141.161H156.374V144.849H157.847Z" fill="#333333"/>
<path d="M165.56 143.857V144.528H159.447V141.482H160.269V143.857H165.56ZM160.209 147.294V149.248H165.61V149.919H159.387V147.294H160.209ZM158.345 145.731H166.492V146.392H158.345V145.731Z" fill="#333333"/>
<path d="M174.389 145.089L174.479 145.751C173.247 146.001 172.185 146.061 170.301 146.061H169.599V141.933H173.577V142.594H170.421V145.39C172.195 145.39 173.217 145.32 174.389 145.089ZM171.393 147.003V149.268H176.564V149.939H170.571V147.003H171.393ZM176.163 143.817H177.496V144.498H176.163V147.655H175.341V141.151H176.163V143.817Z" fill="#333333"/>
<path d="M183.144 143.656V141.392H183.926V149.679H183.144V146.572H181.521V145.901H183.144V144.318H181.661C181.24 145.831 180.268 147.184 178.565 148.196L178.084 147.615C180.018 146.462 180.98 144.849 181.12 142.965H178.484V142.293H181.932C181.932 142.754 181.892 143.205 181.811 143.656H183.144ZM184.948 141.151H185.73V150.13H184.948V141.151Z" fill="#333333"/>
<path d="M195.48 141.161H196.302V145.981H195.48V141.161ZM190.51 146.422H191.322V147.524H195.49V146.422H196.302V150.02H190.51V146.422ZM191.322 148.166V149.358H195.49V148.166H191.322ZM191.472 141.582C192.835 141.582 193.827 142.424 193.827 143.646C193.827 144.889 192.835 145.721 191.472 145.721C190.119 145.721 189.137 144.889 189.137 143.646C189.137 142.424 190.119 141.582 191.472 141.582ZM191.472 142.263C190.58 142.263 189.939 142.835 189.939 143.646C189.939 144.468 190.58 145.039 191.472 145.039C192.384 145.039 193.025 144.468 193.025 143.646C193.025 142.835 192.384 142.263 191.472 142.263Z" fill="#333333"/>
<path d="M199.215 142.023V147.114C200.568 147.114 201.961 146.993 203.454 146.693L203.544 147.394C201.981 147.715 200.568 147.815 199.135 147.815H198.393V142.023H199.215ZM204.376 141.151H205.197V150.13H204.376V141.151Z" fill="#333333"/>
<path d="M207.94 142.694V147.214C209.533 147.214 210.686 147.144 211.988 146.913L212.079 147.595C210.706 147.855 209.523 147.915 207.83 147.915H207.118V142.013H211.297V142.694H207.94ZM215.135 144.698V145.38H213.652V150.16H212.83V141.151H213.652V144.698H215.135Z" fill="#333333"/>
<path d="M216.504 149.529C216.144 149.529 215.843 149.248 215.843 148.837C215.843 148.416 216.144 148.126 216.504 148.126C216.865 148.126 217.166 148.416 217.166 148.837C217.166 149.248 216.865 149.529 216.504 149.529Z" fill="#333333"/>
<path opacity="0.2" fill-rule="evenodd" clip-rule="evenodd" d="M185.7 3.46912H197.6V4.09542H185.7V3.46912Z" fill="#979797"/>
<path opacity="0.2" fill-rule="evenodd" clip-rule="evenodd" d="M102.401 3.46912H114.301V4.09542H102.401V3.46912Z" fill="#979797"/>
<path d="M34.8659 221.773C32.273 221.773 30.6271 222.427 30.6271 223.712C30.6271 224.998 32.273 225.651 34.8659 225.651C37.5039 225.651 39.1273 224.998 39.1273 223.712C39.1273 222.427 37.5039 221.773 34.8659 221.773ZM34.8659 228.019C30.4016 228.019 27.4028 226.35 27.4028 223.712C27.4028 221.097 30.4016 219.406 34.8659 219.406C39.3528 219.406 42.329 221.097 42.329 223.712C42.329 226.35 39.3528 228.019 34.8659 228.019ZM30.6947 233.205V237.06H42.2388V239.428H27.6734V233.205H30.6947ZM25.4863 229.101H44.2906V231.469H36.5795V235.031H33.5356V231.469H25.4863V229.101Z" fill="white"/>
<path d="M55.2335 237.556C58.0068 237.556 59.4272 237.083 59.4272 236C59.4272 234.918 58.0068 234.422 55.2335 234.422C52.4602 234.422 51.0398 234.918 51.0398 236C51.0398 237.083 52.4602 237.556 55.2335 237.556ZM55.2335 232.167C59.7204 232.167 62.4486 233.543 62.4486 236C62.4486 238.436 59.7204 239.811 55.2335 239.811C50.7466 239.811 48.041 238.436 48.041 236C48.041 233.543 50.7466 232.167 55.2335 232.167ZM56.7892 228.785H64.7033V231.153H45.9216V228.785H53.813V227.072H48.1988V219.902H62.4486V222.269H51.1525V224.704H62.5613V227.072H56.7892V228.785Z" fill="white"/>
<path d="M78.69 228.447L77.2696 230.747C74.9923 230.071 73.414 228.695 72.5122 226.982C71.5877 229.033 69.9418 230.679 67.5067 231.469L66.0186 229.146C69.3781 228.019 70.8662 225.381 70.9113 222.788H66.7852V220.398H78.0136V222.788H73.9552C74.0003 225.155 75.4207 227.478 78.69 228.447ZM75.8717 237.511C78.5097 237.511 79.9301 236.947 79.9301 235.775C79.9301 234.58 78.5097 234.016 75.8717 234.016C73.2111 234.016 71.7907 234.58 71.7907 235.775C71.7907 236.947 73.2111 237.511 75.8717 237.511ZM75.8717 231.717C80.1782 231.717 82.8838 233.227 82.8838 235.775C82.8838 238.3 80.1782 239.788 75.8717 239.788C71.5426 239.788 68.837 238.3 68.837 235.775C68.837 233.227 71.5426 231.717 75.8717 231.717ZM82.6583 223.803H85.4091V226.238H82.6583V231.356H79.6821V219.023H82.6583V223.803Z" fill="white"/>
<path d="M91.4142 232.776C92.519 232.776 93.1954 231.22 93.1954 228.019C93.1954 224.84 92.519 223.284 91.4142 223.284C90.2643 223.284 89.6105 224.84 89.6105 228.019C89.6105 231.22 90.2643 232.776 91.4142 232.776ZM91.4142 220.488C94.1424 220.488 95.9011 223.329 95.9011 228.019C95.9011 232.731 94.1424 235.572 91.4142 235.572C88.6409 235.572 86.9048 232.731 86.9048 228.019C86.9048 223.329 88.6409 220.488 91.4142 220.488ZM101.718 219H104.537V239.766H101.718V229.327H99.9821V238.864H97.2088V219.361H99.9821V226.937H101.718V219Z" fill="white"/>
<path d="M123.19 224.028H126.302V219.023H129.278V231.378H126.302V226.441H123.19V224.028ZM124.43 228.492L122.987 230.815C120.733 230.071 119.177 228.605 118.275 226.779C117.373 228.876 115.727 230.567 113.315 231.378L111.804 229.033C115.096 227.884 116.606 225.246 116.697 222.653H112.616V220.263H123.776V222.653H119.74C119.831 225.02 121.274 227.455 124.43 228.492ZM122.266 237.556C124.971 237.556 126.392 236.993 126.392 235.82C126.392 234.648 124.971 234.084 122.266 234.084C119.538 234.084 118.117 234.648 118.117 235.82C118.117 236.993 119.538 237.556 122.266 237.556ZM122.266 231.829C126.662 231.829 129.368 233.295 129.368 235.82C129.368 238.345 126.662 239.811 122.266 239.811C117.847 239.811 115.141 238.345 115.141 235.82C115.141 233.295 117.847 231.829 122.266 231.829Z" fill="white"/>
<path d="M143.197 235.008H151.134V237.443H132.329V235.008H140.221V230.679H134.516V220.443H148.969V222.833H137.515V228.289H149.127V230.679H143.197V235.008Z" fill="white"/>
<defs>
<linearGradient id="paint0_linear_2149_11361" x1="33.3676" y1="289.315" x2="33.3676" y2="320.631" gradientUnits="userSpaceOnUse">
<stop stop-color="#4E5B7F"/>
<stop offset="1" stop-color="#4E5B7F" stop-opacity="0.497787"/>
</linearGradient>
<linearGradient id="paint1_linear_2149_11361" x1="135.811" y1="84.2461" x2="135.811" y2="104.726" gradientUnits="userSpaceOnUse">
<stop stop-color="#4E5B7F"/>
<stop offset="1" stop-color="#4E5B7F" stop-opacity="0.499645"/>
</linearGradient>
<clipPath id="clip0_2149_11361">
<rect width="250.523" height="191.65" fill="white" transform="translate(24.4258 257)"/>
</clipPath>
</defs>
</svg>
