<svg width="340" height="210" viewBox="0 0 340 210" fill="none" xmlns="http://www.w3.org/2000/svg">
<rect width="332" height="200" transform="translate(4 2)" fill="#F8F8F8"/>
<g filter="url(#filter0_d_516_347)">
<g clip-path="url(#clip0_516_347)">
<rect opacity="0.9" x="4" y="2" width="332" height="203.046" rx="16" fill="white"/>
</g>
</g>
<g filter="url(#filter1_d_516_347)">
<g clip-path="url(#clip1_516_347)">
<path d="M38.39 29.502V28.032H47.35V32.218H45.502V29.502H38.39ZM40.42 22.166V23.174H45.446V22.166H40.42ZM43.836 25.68H48.764V27.15H37.102V25.68H41.988V24.616H38.586V19.646H40.42V20.78H45.446V19.646H47.28V24.616H43.836V25.68ZM54.9649 22.068V22.782C54.9649 24.882 56.0009 27.108 58.1569 28.004L57.1489 29.46C55.6509 28.816 54.6289 27.556 54.0549 26.002C53.4809 27.682 52.4449 29.096 50.9329 29.782L49.8829 28.312C52.0389 27.346 53.0889 24.98 53.0889 22.782V22.068H50.4009V20.542H57.6249V22.068H54.9649ZM58.8149 19.31H60.6629V32.204H58.8149V19.31ZM68.6558 30.818C70.3778 30.818 71.2598 30.524 71.2598 29.866C71.2598 29.208 70.3778 28.928 68.6558 28.928C66.9338 28.928 66.0518 29.208 66.0518 29.866C66.0518 30.524 66.9338 30.818 68.6558 30.818ZM68.6558 27.528C71.4418 27.528 73.1358 28.368 73.1358 29.866C73.1358 31.364 71.4418 32.218 68.6558 32.218C65.8698 32.218 64.1898 31.364 64.1898 29.866C64.1898 28.368 65.8698 27.528 68.6558 27.528ZM67.3258 24.35V25.428H70.0138V24.364C69.6078 24.406 69.1598 24.434 68.6838 24.434C68.1938 24.434 67.7458 24.406 67.3258 24.35ZM68.6838 20.906C66.9338 20.906 65.9258 21.256 65.9258 21.984C65.9258 22.684 66.9338 23.048 68.6838 23.048C70.4478 23.048 71.4558 22.684 71.4558 21.984C71.4558 21.256 70.4478 20.906 68.6838 20.906ZM71.8618 25.428H74.5078V26.884H62.8598V25.428H65.4778V23.874C64.5538 23.454 64.0218 22.81 64.0218 21.984C64.0218 20.444 65.8418 19.506 68.6838 19.506C71.5398 19.506 73.3598 20.444 73.3598 21.984C73.3598 22.824 72.8138 23.468 71.8618 23.888V25.428ZM87.4007 25.54V27.024H82.4447V32.204H80.5687V27.024H75.7527V25.54H83.8727C84.1947 23.902 84.2227 22.642 84.2227 21.536H77.0827V20.052H86.0287V21.214C86.0287 22.418 86.0287 23.734 85.7067 25.54H87.4007ZM99.3915 25.022L98.4255 26.45C97.0675 26.002 96.1295 25.134 95.5835 24.042C95.0235 25.302 94.0295 26.296 92.5595 26.814L91.5935 25.358C93.7495 24.644 94.6175 22.922 94.6175 21.172V20.01H96.4935V21.326C96.4935 22.88 97.3615 24.392 99.3915 25.022ZM97.7255 30.776C99.3635 30.776 100.246 30.44 100.246 29.712C100.246 28.998 99.3635 28.662 97.7255 28.662C96.0735 28.662 95.1915 28.998 95.1915 29.712C95.1915 30.44 96.0735 30.776 97.7255 30.776ZM97.7255 27.234C100.4 27.234 102.08 28.158 102.08 29.712C102.08 31.28 100.4 32.204 97.7255 32.204C95.0375 32.204 93.3575 31.28 93.3575 29.712C93.3575 28.158 95.0375 27.234 97.7255 27.234ZM101.94 22.306H103.648V23.832H101.94V26.94H100.092V19.324H101.94V22.306ZM108.784 20.43V22.53C108.784 24.616 109.344 26.758 111.094 27.92L110.086 29.348C108.994 28.676 108.308 27.584 107.902 26.282C107.454 27.71 106.698 28.942 105.536 29.642L104.43 28.256C106.32 27.108 107.006 24.798 107.006 22.6V20.43H108.784ZM111.36 23.664V19.52H113.082V31.63H111.36V25.162H109.736V23.664H111.36ZM113.978 19.31H115.728V32.204H113.978V19.31ZM129.651 29.138V26.744H127.971V25.274H129.651V23.986H127.971V22.516H129.651V19.31H131.499V29.138H129.651ZM127.831 20.668V22.11H120.761V20.668H123.463V19.268H125.311V20.668H127.831ZM123.099 25.092C123.099 25.82 123.631 26.212 124.387 26.212C125.129 26.212 125.661 25.82 125.661 25.092C125.661 24.392 125.129 23.986 124.387 23.986C123.631 23.986 123.099 24.392 123.099 25.092ZM127.397 25.092C127.397 26.59 126.137 27.64 124.387 27.64C122.623 27.64 121.363 26.59 121.363 25.092C121.363 23.608 122.623 22.572 124.387 22.572C126.137 22.572 127.397 23.608 127.397 25.092ZM124.835 30.51H131.779V31.98H122.987V28.34H124.835V30.51ZM141.088 20.234V21.564H133.766V20.234H136.51V19.212H138.358V20.234H141.088ZM136.034 23.734C136.034 24.168 136.552 24.378 137.434 24.378C138.316 24.378 138.82 24.168 138.82 23.734C138.82 23.3 138.316 23.076 137.434 23.076C136.552 23.076 136.034 23.3 136.034 23.734ZM141.41 25.932L141.536 27.164C138.848 27.654 135.894 27.682 133.64 27.682L133.444 26.282C134.368 26.282 135.404 26.282 136.51 26.254V25.526C135.124 25.316 134.284 24.686 134.284 23.734C134.284 22.572 135.516 21.886 137.434 21.886C139.338 21.886 140.57 22.572 140.57 23.734C140.57 24.672 139.73 25.316 138.358 25.512V26.184C139.408 26.128 140.43 26.058 141.41 25.932ZM139.492 30.888C141.256 30.888 142.04 30.678 142.04 30.188C142.04 29.698 141.256 29.474 139.506 29.474C137.756 29.474 136.972 29.698 136.972 30.188C136.972 30.678 137.756 30.888 139.492 30.888ZM139.506 28.144C142.278 28.144 143.902 28.858 143.902 30.188C143.902 31.518 142.278 32.218 139.506 32.218C136.734 32.218 135.11 31.518 135.11 30.188C135.11 28.858 136.734 28.144 139.506 28.144ZM143.818 22.964H145.442V24.49H143.818V28.004H141.97V19.31H143.818V22.964Z" fill="#333333"/>
<path opacity="0.5" d="M189.752 21.896V19.22H191.228V29.552H189.752V25.928H188.216V24.656H189.752V23.156H188.42C187.928 24.98 186.824 26.516 184.76 27.74L183.86 26.636C186.044 25.304 187.004 23.708 187.208 21.548H184.484V20.288H188.78C188.78 20.852 188.744 21.38 188.684 21.896H189.752ZM192.02 18.968H193.52V30.032H192.02V18.968ZM196.687 22.292C196.687 23.144 197.299 23.66 198.139 23.66C198.967 23.66 199.591 23.144 199.591 22.292C199.591 21.428 198.967 20.924 198.139 20.924C197.299 20.924 196.687 21.428 196.687 22.292ZM201.127 22.292C201.127 23.864 199.831 24.992 198.139 24.992C196.435 24.992 195.139 23.864 195.139 22.292C195.139 20.72 196.435 19.58 198.139 19.58C199.831 19.58 201.127 20.72 201.127 22.292ZM196.387 27.212V25.94H203.755V30.044H202.171V27.212H196.387ZM205.171 21.704H203.755V22.808H205.171V24.104H203.755V25.496H202.171V18.98H203.755V20.42H205.171V21.704ZM208.11 21.668C208.11 22.34 208.626 22.724 209.382 22.724C210.138 22.724 210.678 22.34 210.678 21.668C210.678 20.996 210.138 20.612 209.382 20.612C208.626 20.612 208.11 20.996 208.11 21.668ZM212.694 24.404L212.79 25.52C210.558 25.94 208.074 25.976 206.25 25.976L206.058 24.716C206.814 24.716 207.69 24.716 208.602 24.692V23.84C207.426 23.588 206.634 22.76 206.634 21.668C206.634 20.348 207.786 19.424 209.382 19.424C210.99 19.424 212.142 20.348 212.142 21.668C212.142 22.748 211.362 23.576 210.186 23.84V24.632C211.038 24.584 211.902 24.524 212.694 24.404ZM209.082 26.696V28.58H215.226V29.84H207.498V26.696H209.082ZM214.854 22.448H216.246V23.756H214.854V27.416H213.27V18.98H214.854V22.448ZM221.225 25.832V27.524H223.157V25.832H221.225ZM224.717 27.524H227.141V28.82H217.121V27.524H219.665V25.832H218.285V22.124H224.453V20.948H218.273V19.688H226.013V23.36H219.857V24.572H226.265V25.832H224.717V27.524Z" fill="#333333"/>
<path opacity="0.5" d="M269.012 24.32V25.592H264.764V30.032H263.156V25.592H259.028V24.32H265.988C266.264 22.916 266.288 21.836 266.288 20.888H260.168V19.616H267.836V20.612C267.836 21.644 267.836 22.772 267.56 24.32H269.012ZM271.843 21.356V26.036H273.259V21.356H271.843ZM270.367 27.272V20.108H274.723V27.272H270.367ZM278.035 18.968H279.535V30.02H278.035V24.464H277.111V29.528H275.635V19.148H277.111V23.192H278.035V18.968ZM285.918 24.824H286.878V22.688H285.906C285.954 23.024 285.978 23.384 285.978 23.768C285.978 24.14 285.954 24.5 285.918 24.824ZM283.59 26.3C284.202 26.3 284.562 25.46 284.562 23.768C284.562 22.076 284.202 21.248 283.59 21.248C282.966 21.248 282.606 22.076 282.606 23.768C282.606 25.46 282.966 26.3 283.59 26.3ZM286.878 21.416V19.16H288.354V29.528H286.878V26.108H285.618C285.21 27.176 284.502 27.788 283.59 27.788C282.114 27.788 281.19 26.276 281.19 23.768C281.19 21.272 282.114 19.76 283.59 19.76C284.49 19.76 285.198 20.348 285.606 21.416H286.878ZM289.074 18.968H290.574V30.02H289.074V18.968ZM293.765 22.292C293.765 23.144 294.377 23.66 295.217 23.66C296.045 23.66 296.669 23.144 296.669 22.292C296.669 21.428 296.045 20.924 295.217 20.924C294.377 20.924 293.765 21.428 293.765 22.292ZM298.205 22.292C298.205 23.864 296.909 24.992 295.217 24.992C293.513 24.992 292.217 23.864 292.217 22.292C292.217 20.72 293.513 19.58 295.217 19.58C296.909 19.58 298.205 20.72 298.205 22.292ZM293.465 27.212V25.94H300.833V30.044H299.249V27.212H293.465ZM302.249 21.704H300.833V22.808H302.249V24.104H300.833V25.496H299.249V18.98H300.833V20.42H302.249V21.704Z" fill="#333333"/>
<path opacity="0.2" d="M4.45983 50.5076H335.54" stroke="#979797" stroke-linecap="square"/>
<path d="M209.23 85V83.215H211.615V76.195H209.605V74.83C210.715 74.62 211.48 74.335 212.185 73.885H213.82V83.215H215.905V85H209.23ZM212.425 125.21C210.16 125.21 208.66 123.23 208.66 119.405C208.66 115.565 210.16 113.69 212.425 113.69C214.69 113.69 216.175 115.58 216.175 119.405C216.175 123.23 214.69 125.21 212.425 125.21ZM212.425 123.485C213.385 123.485 214.09 122.525 214.09 119.405C214.09 116.3 213.385 115.4 212.425 115.4C211.465 115.4 210.745 116.3 210.745 119.405C210.745 122.525 211.465 123.485 212.425 123.485ZM209.23 165V163.215H211.615V156.195H209.605V154.83C210.715 154.62 211.48 154.335 212.185 153.885H213.82V163.215H215.905V165H209.23Z" fill="#333333"/>
<path d="M280.425 85.21C278.16 85.21 276.66 83.23 276.66 79.405C276.66 75.565 278.16 73.69 280.425 73.69C282.69 73.69 284.175 75.58 284.175 79.405C284.175 83.23 282.69 85.21 280.425 85.21ZM280.425 83.485C281.385 83.485 282.09 82.525 282.09 79.405C282.09 76.3 281.385 75.4 280.425 75.4C279.465 75.4 278.745 76.3 278.745 79.405C278.745 82.525 279.465 83.485 280.425 83.485ZM280.14 125.21C278.385 125.21 277.215 124.52 276.39 123.695L277.41 122.285C278.04 122.9 278.82 123.41 279.855 123.41C281.01 123.41 281.82 122.675 281.82 121.37C281.82 120.08 281.07 119.36 279.945 119.36C279.285 119.36 278.925 119.525 278.28 119.945L277.275 119.285L277.575 113.885H283.515V115.745H279.48L279.27 118.1C279.72 117.89 280.095 117.785 280.605 117.785C282.465 117.785 284.025 118.895 284.025 121.31C284.025 123.785 282.195 125.21 280.14 125.21ZM276.645 165V163.725C279.66 161.025 281.445 158.94 281.445 157.23C281.445 156.105 280.845 155.43 279.78 155.43C278.97 155.43 278.31 155.955 277.74 156.57L276.54 155.37C277.56 154.275 278.55 153.69 280.065 153.69C282.165 153.69 283.56 155.04 283.56 157.11C283.56 159.12 281.895 161.28 279.87 163.26C280.425 163.2 281.16 163.14 281.685 163.14H284.085V165H276.645Z" fill="#333333"/>
<path fill-rule="evenodd" clip-rule="evenodd" d="M33.4555 83.7645V86.2423C32.3295 87.2874 31.611 88.8681 31.611 90.6363C31.611 93.7801 33.8834 96.3334 36.6833 96.3334C38.7638 96.3334 40.5538 94.9226 41.3359 92.9069L42.4868 94.8615C41.2529 96.9933 39.1133 98.4051 36.6833 98.4051C32.8653 98.4051 29.7666 94.9237 29.7666 90.6363C29.7666 87.6572 31.2624 85.0676 33.4555 83.7645ZM42.6786 83.9033C43.1876 83.9033 43.6008 84.3674 43.6008 84.9391C43.6008 85.5109 43.1876 85.975 42.6786 85.975C41.5857 85.975 39.7053 85.9802 38.9897 85.975C38.9897 88.6889 42.3475 86.9352 43.8535 89.5414C44.523 90.7005 45.6546 92.6468 46.242 93.779C46.3232 93.9354 46.3638 94.0929 46.3674 94.2617C46.3739 94.6263 46.207 94.9982 45.9045 95.194C45.6924 95.3307 45.0441 95.4913 44.6447 94.8149C44.0268 93.7676 43.3075 92.5246 42.804 91.6814C42.0828 90.4736 41.5977 90.1701 38.9897 90.1184C37.1093 90.0811 35.3008 89.6729 35.3008 87.0108V82.8675C35.3008 82.3174 35.4944 81.7912 35.8412 81.4028C36.187 81.0133 36.6555 80.7958 37.1452 80.7958C37.634 80.7958 38.1034 81.0133 38.4492 81.4028C38.7951 81.7912 38.9897 82.3174 38.9897 82.8675V83.9033H42.6786V83.9033ZM37.1448 73.5449C38.672 73.5449 39.9115 74.9371 39.9115 76.6524C39.9115 78.3678 38.672 79.76 37.1448 79.76C35.6176 79.76 34.3781 78.3678 34.3781 76.6524C34.3781 74.9371 35.6176 73.5449 37.1448 73.5449Z" fill="#386AB7"/>
<path fill-rule="evenodd" clip-rule="evenodd" d="M40.8329 128.444C41.3419 128.444 41.7551 127.98 41.7551 127.409C41.7551 126.837 41.3419 126.373 40.8329 126.373H37.144V125.337C37.144 124.787 36.9494 124.261 36.6036 123.872C36.2577 123.483 35.7883 123.265 35.2995 123.265C34.8098 123.265 34.3414 123.483 33.9955 123.872C33.6488 124.261 33.4551 124.787 33.4551 125.337V129.48C33.4551 129.48 33.4551 129.48 33.4551 129.48H30.4421C30.1232 128.861 29.5271 128.445 28.8444 128.445C27.8258 128.445 27 129.372 27 130.516C27 131.66 27.8258 132.588 28.8444 132.588C29.5272 132.588 30.1232 132.171 30.4421 131.552H33.5249C33.6163 133.204 33.7651 134.834 33.7651 134.834L36.8157 134.91C36.8157 134.91 36.9503 133.371 37.0472 131.552H42.9245C43.2434 132.171 43.8395 132.588 44.5222 132.588C45.5408 132.588 46.3666 131.66 46.3666 130.516C46.3666 129.372 45.5408 128.444 44.5222 128.444C43.8395 128.444 43.2434 128.861 42.9245 129.48H37.1304C37.1391 129.125 37.144 128.777 37.144 128.444C37.6303 128.448 38.6544 128.447 39.6038 128.446L39.6053 128.446C40.0525 128.445 40.483 128.444 40.8329 128.444ZM38.0675 119.122C38.0675 117.407 36.828 116.014 35.3008 116.014C33.7736 116.014 32.5342 117.407 32.5342 119.122C32.5342 120.837 33.7736 122.229 35.3008 122.229C36.828 122.229 38.0675 120.837 38.0675 119.122Z" fill="#DBB73A"/>
<path d="M73.7895 84.112L73.1495 85.44C70.7495 85.056 68.7815 83.84 67.8375 82.176C66.9095 83.856 64.9095 85.056 62.5095 85.44L61.8695 84.112C64.8135 83.696 66.9575 81.92 66.9575 80.016V79.248H68.7015V80.016C68.7015 81.888 70.8775 83.696 73.7895 84.112ZM74.3495 86.8V88.144H68.6055V93.248H66.9575V88.144H61.2935V86.8H74.3495ZM82.5083 91.968C84.6203 91.968 85.8203 91.504 85.8203 90.608C85.8203 89.728 84.6203 89.248 82.5083 89.248C80.3963 89.248 79.2123 89.728 79.2123 90.608C79.2123 91.504 80.3963 91.968 82.5083 91.968ZM82.5083 87.984C85.6123 87.984 87.4843 88.944 87.4843 90.608C87.4843 92.288 85.6123 93.248 82.5083 93.248C79.4203 93.248 77.5323 92.288 77.5323 90.608C77.5323 88.944 79.4203 87.984 82.5083 87.984ZM83.3723 85.76H89.0843V87.104H76.0283V85.76H81.7243V84.32H77.6443V79.424H87.4843V80.736H79.2763V82.992H87.5803V84.32H83.3723V85.76ZM102.603 78.784V87.344H100.939V78.784H102.603ZM99.675 79.808V80.944H91.339V79.808H94.683V78.624H96.331V79.808H99.675ZM97.403 83.264C97.403 82.704 96.699 82.384 95.499 82.384C94.315 82.384 93.611 82.704 93.611 83.264C93.611 83.84 94.315 84.144 95.499 84.144C96.699 84.144 97.403 83.84 97.403 83.264ZM92.043 83.264C92.043 82.048 93.403 81.328 95.499 81.328C97.595 81.328 98.955 82.048 98.955 83.264C98.955 84.48 97.595 85.2 95.499 85.2C93.403 85.2 92.043 84.48 92.043 83.264ZM94.603 91.968H103.035V93.104H92.971V89.936H100.971V89.008H92.939V87.904H94.699V86.896C93.371 86.944 92.107 86.944 90.987 86.944L90.779 85.792C93.483 85.792 97.003 85.76 100.059 85.408L100.155 86.416C98.907 86.624 97.611 86.736 96.347 86.816V87.904H102.603V90.976H94.603V91.968ZM109.786 82.688V83.2C109.786 85.456 110.762 87.76 112.746 88.832L111.834 90.064C110.474 89.328 109.546 88 109.018 86.432C108.506 88.128 107.594 89.584 106.218 90.384L105.274 89.136C107.258 87.968 108.218 85.504 108.218 83.2V82.688H105.722V81.328H108.218V79.28H109.786V81.328H112.266V82.688H109.786ZM113.29 84.384V79.072H114.842V92.528H113.29V85.728H111.338V84.384H113.29ZM116.202 78.784H117.77V93.232H116.202V78.784ZM124.057 88.56C125.305 88.56 126.153 87.216 126.153 84.928C126.153 82.688 125.305 81.328 124.057 81.328C122.825 81.328 121.977 82.688 121.977 84.928C121.977 87.216 122.825 88.56 124.057 88.56ZM130.505 78.768H132.169V93.264H130.505V85.504H127.705C127.513 88.304 126.041 90.032 124.057 90.032C121.929 90.032 120.409 88.064 120.409 84.928C120.409 81.824 121.929 79.84 124.057 79.84C125.993 79.84 127.465 81.504 127.689 84.16H130.505V78.768Z" fill="#333333"/>
<path d="M63.0855 122.36C63.0855 123.688 64.0455 124.552 65.3095 124.552C66.5735 124.552 67.5495 123.688 67.5495 122.36C67.5495 121.048 66.5735 120.184 65.3095 120.184C64.0455 120.184 63.0855 121.048 63.0855 122.36ZM69.1655 122.36C69.1655 124.472 67.5015 125.976 65.3095 125.976C63.1335 125.976 61.4695 124.472 61.4695 122.36C61.4695 120.248 63.1335 118.76 65.3095 118.76C67.5015 118.76 69.1655 120.248 69.1655 122.36ZM65.0855 127.288V130.616H73.1495V131.96H63.4215V127.288H65.0855ZM72.5735 122.072H74.6215V123.432H72.5735V128.376H70.9255V117.784H72.5735V122.072ZM83.7083 121.656H86.3323V117.8H87.9803V128.36H86.3323V123.016H83.7083V121.656ZM84.6043 125.032L83.7883 126.312C82.1883 125.768 81.0203 124.632 80.4123 123.208C79.7723 124.776 78.5563 126.04 76.8443 126.632L75.9963 125.336C78.2363 124.552 79.5483 122.648 79.5483 120.696V120.2H76.4923V118.872H84.2203V120.2H81.2123V120.696C81.2123 122.472 82.4443 124.28 84.6043 125.032ZM80.2683 130.616H88.3483V131.96H78.6203V127.448H80.2683V130.616ZM102.987 122.776L102.347 124.056C100.059 123.672 98.155 122.504 97.227 120.92C96.315 122.504 94.443 123.672 92.155 124.056L91.499 122.776C94.363 122.344 96.395 120.6 96.395 118.728V118.184H98.091V118.728C98.091 120.616 100.123 122.36 102.987 122.776ZM94.027 127.8V130.616H102.331V131.96H92.363V127.8H94.027ZM98.059 125.416H103.819V126.76H90.715V125.416H96.411V123.176H98.059V125.416ZM113.93 124.28L113.146 125.576C111.498 125.064 110.33 124.008 109.69 122.664C109.05 124.136 107.834 125.32 106.09 125.88L105.274 124.568C107.562 123.848 108.826 122.088 108.826 120.184V119.992H105.754V118.648H113.514V119.992H110.506V120.168C110.506 121.912 111.722 123.592 113.93 124.28ZM115.098 130.728V129.192H109.114V130.728H115.098ZM115.098 127.912V126.376H116.73V132.056H107.482V126.376H109.114V127.912H115.098ZM118.778 121V122.36H116.73V125.736H115.082V117.768H116.73V121H118.778ZM130.393 117.768H132.057V132.264H130.393V117.768ZM124.361 118.84C126.521 118.84 128.089 120.824 128.089 123.928C128.089 127.064 126.521 129.032 124.361 129.032C122.217 129.032 120.649 127.064 120.649 123.928C120.649 120.824 122.217 118.84 124.361 118.84ZM124.361 120.328C123.113 120.328 122.233 121.688 122.233 123.928C122.233 126.2 123.113 127.56 124.361 127.56C125.625 127.56 126.505 126.2 126.505 123.928C126.505 121.688 125.625 120.328 124.361 120.328Z" fill="#333333"/>
<path d="M66.6215 156.584V157.96C66.6215 160.36 68.1095 162.856 70.3655 163.816L69.4535 165.112C67.7735 164.376 66.4775 162.808 65.8055 160.936C65.1655 162.952 63.8695 164.664 62.1735 165.48L61.2295 164.168C63.4695 163.128 64.9575 160.44 64.9575 157.96V156.584H61.7415V155.224H69.8375V156.584H66.6215ZM71.5175 153.784H73.1815V168.232H71.5175V153.784ZM79.2763 156.296V160.376C79.9003 160.36 80.5563 160.328 81.1963 160.296V156.296H79.2763ZM84.7003 159.992L84.8123 161.192C81.9163 161.704 78.6043 161.752 76.1723 161.752L75.9963 160.392C76.5243 160.392 77.1003 160.392 77.6923 160.392V156.296H76.3803V154.952H84.1083V156.296H82.7963V160.184C83.4363 160.136 84.0923 160.056 84.7003 159.992ZM82.6043 166.936C84.6523 166.936 85.8043 166.44 85.8043 165.544C85.8043 164.632 84.6523 164.152 82.6043 164.152C80.5883 164.152 79.4363 164.632 79.4363 165.544C79.4363 166.44 80.5883 166.936 82.6043 166.936ZM82.6043 162.856C85.5963 162.856 87.4363 163.848 87.4363 165.544C87.4363 167.24 85.5963 168.232 82.6043 168.232C79.6283 168.232 77.8043 167.24 77.8043 165.544C77.8043 163.848 79.6283 162.856 82.6043 162.856ZM87.2923 157.384H89.3403V158.744H87.2923V162.568H85.6443V153.784H87.2923V157.384ZM100.955 153.768H102.619V168.264H100.955V153.768ZM94.923 154.84C97.083 154.84 98.651 156.824 98.651 159.928C98.651 163.064 97.083 165.032 94.923 165.032C92.779 165.032 91.211 163.064 91.211 159.928C91.211 156.824 92.779 154.84 94.923 154.84ZM94.923 156.328C93.675 156.328 92.795 157.688 92.795 159.928C92.795 162.2 93.675 163.56 94.923 163.56C96.187 163.56 97.067 162.2 97.067 159.928C97.067 157.688 96.187 156.328 94.923 156.328Z" fill="#333333"/>
<path fill-rule="evenodd" clip-rule="evenodd" d="M40.833 155.376L42.6774 155.785L43.6424 157.352L46.131 158.16L47.543 159.013L48.2108 160.556L47.543 161.641L46.6838 160.993L46.131 160.556L45.1834 159.835H43.6424L42.6774 160.556L31.2397 176.093V177.059C31.2397 177.059 30.3432 178.32 30.3157 178.165C30.2882 178.01 28.1367 177.24 27.9219 176.093L29.0136 174.474H29.9032L32.2027 171.708L41.4657 159.388C41.4657 159.388 41.784 158.011 41.4657 157.352L40.5225 155.813L40.833 155.376Z" fill="#6D9F8B"/>
</g>
</g>
<defs>
<filter id="filter0_d_516_347" x="0" y="2" width="340" height="208" filterUnits="userSpaceOnUse" color-interpolation-filters="sRGB">
<feFlood flood-opacity="0" result="BackgroundImageFix"/>
<feColorMatrix in="SourceAlpha" type="matrix" values="0 0 0 0 0 0 0 0 0 0 0 0 0 0 0 0 0 0 127 0" result="hardAlpha"/>
<feOffset dy="4"/>
<feGaussianBlur stdDeviation="2"/>
<feComposite in2="hardAlpha" operator="out"/>
<feColorMatrix type="matrix" values="0 0 0 0 0 0 0 0 0 0 0 0 0 0 0 0 0 0 0.1 0"/>
<feBlend mode="normal" in2="BackgroundImageFix" result="effect1_dropShadow_516_347"/>
<feBlend mode="normal" in="SourceGraphic" in2="effect1_dropShadow_516_347" result="shape"/>
</filter>
<filter id="filter1_d_516_347" x="0" y="0" width="340" height="211" filterUnits="userSpaceOnUse" color-interpolation-filters="sRGB">
<feFlood flood-opacity="0" result="BackgroundImageFix"/>
<feColorMatrix in="SourceAlpha" type="matrix" values="0 0 0 0 0 0 0 0 0 0 0 0 0 0 0 0 0 0 127 0" result="hardAlpha"/>
<feOffset dy="4"/>
<feGaussianBlur stdDeviation="2"/>
<feComposite in2="hardAlpha" operator="out"/>
<feColorMatrix type="matrix" values="0 0 0 0 0 0 0 0 0 0 0 0 0 0 0 0 0 0 0.1 0"/>
<feBlend mode="normal" in2="BackgroundImageFix" result="effect1_dropShadow_516_347"/>
<feBlend mode="normal" in="SourceGraphic" in2="effect1_dropShadow_516_347" result="shape"/>
</filter>
<clipPath id="clip0_516_347">
<rect x="4" y="2" width="332" height="200" rx="16" fill="white"/>
</clipPath>
<clipPath id="clip1_516_347">
<rect x="4" width="332" height="203" rx="16" fill="white"/>
</clipPath>
</defs>
</svg>
