<svg width="81" height="80" viewBox="0 0 81 80" fill="none" xmlns="http://www.w3.org/2000/svg">
<g clip-path="url(#clip0_111_103)">
<path d="M76.8272 3.20386H3.23483V76.7962H76.8272V3.20386Z" fill="white"/>
<path d="M27.7656 7.05191C28.2969 7.05191 28.7276 6.62121 28.7276 6.08992C28.7276 5.55863 28.2969 5.12793 27.7656 5.12793C27.2343 5.12793 26.8036 5.55863 26.8036 6.08992C26.8036 6.62121 27.2343 7.05191 27.7656 7.05191Z" fill="black"/>
<path d="M32.5755 7.05191C33.1068 7.05191 33.5375 6.62121 33.5375 6.08992C33.5375 5.55863 33.1068 5.12793 32.5755 5.12793C32.0443 5.12793 31.6136 5.55863 31.6136 6.08992C31.6136 6.62121 32.0443 7.05191 32.5755 7.05191Z" fill="black"/>
<path d="M34.9805 7.05191C35.5118 7.05191 35.9425 6.62121 35.9425 6.08992C35.9425 5.55863 35.5118 5.12793 34.9805 5.12793C34.4492 5.12793 34.0185 5.55863 34.0185 6.08992C34.0185 6.62121 34.4492 7.05191 34.9805 7.05191Z" fill="black"/>
<path d="M37.3855 7.05191C37.9168 7.05191 38.3475 6.62121 38.3475 6.08992C38.3475 5.55863 37.9168 5.12793 37.3855 5.12793C36.8542 5.12793 36.4235 5.55863 36.4235 6.08992C36.4235 6.62121 36.8542 7.05191 37.3855 7.05191Z" fill="black"/>
<path d="M39.7905 7.05191C40.3218 7.05191 40.7525 6.62121 40.7525 6.08992C40.7525 5.55863 40.3218 5.12793 39.7905 5.12793C39.2592 5.12793 38.8285 5.55863 38.8285 6.08992C38.8285 6.62121 39.2592 7.05191 39.7905 7.05191Z" fill="black"/>
<path d="M42.1955 7.05191C42.7268 7.05191 43.1575 6.62121 43.1575 6.08992C43.1575 5.55863 42.7268 5.12793 42.1955 5.12793C41.6642 5.12793 41.2335 5.55863 41.2335 6.08992C41.2335 6.62121 41.6642 7.05191 42.1955 7.05191Z" fill="black"/>
<path d="M49.4104 7.05191C49.9417 7.05191 50.3724 6.62121 50.3724 6.08992C50.3724 5.55863 49.9417 5.12793 49.4104 5.12793C48.8791 5.12793 48.4484 5.55863 48.4484 6.08992C48.4484 6.62121 48.8791 7.05191 49.4104 7.05191Z" fill="black"/>
<path d="M51.8154 7.05191C52.3467 7.05191 52.7774 6.62121 52.7774 6.08992C52.7774 5.55863 52.3467 5.12793 51.8154 5.12793C51.2841 5.12793 50.8534 5.55863 50.8534 6.08992C50.8534 6.62121 51.2841 7.05191 51.8154 7.05191Z" fill="black"/>
<path d="M54.2204 7.05191C54.7517 7.05191 55.1824 6.62121 55.1824 6.08992C55.1824 5.55863 54.7517 5.12793 54.2204 5.12793C53.6891 5.12793 53.2584 5.55863 53.2584 6.08992C53.2584 6.62121 53.6891 7.05191 54.2204 7.05191Z" fill="black"/>
<path d="M30.1706 9.4567C30.7019 9.4567 31.1326 9.026 31.1326 8.49471C31.1326 7.96341 30.7019 7.53271 30.1706 7.53271C29.6393 7.53271 29.2086 7.96341 29.2086 8.49471C29.2086 9.026 29.6393 9.4567 30.1706 9.4567Z" fill="black"/>
<path d="M32.5755 9.4567C33.1068 9.4567 33.5375 9.026 33.5375 8.49471C33.5375 7.96341 33.1068 7.53271 32.5755 7.53271C32.0443 7.53271 31.6136 7.96341 31.6136 8.49471C31.6136 9.026 32.0443 9.4567 32.5755 9.4567Z" fill="black"/>
<path d="M34.9805 9.4567C35.5118 9.4567 35.9425 9.026 35.9425 8.49471C35.9425 7.96341 35.5118 7.53271 34.9805 7.53271C34.4492 7.53271 34.0185 7.96341 34.0185 8.49471C34.0185 9.026 34.4492 9.4567 34.9805 9.4567Z" fill="black"/>
<path d="M37.3855 9.4567C37.9168 9.4567 38.3475 9.026 38.3475 8.49471C38.3475 7.96341 37.9168 7.53271 37.3855 7.53271C36.8542 7.53271 36.4235 7.96341 36.4235 8.49471C36.4235 9.026 36.8542 9.4567 37.3855 9.4567Z" fill="black"/>
<path d="M39.7905 9.4567C40.3218 9.4567 40.7525 9.026 40.7525 8.49471C40.7525 7.96341 40.3218 7.53271 39.7905 7.53271C39.2592 7.53271 38.8285 7.96341 38.8285 8.49471C38.8285 9.026 39.2592 9.4567 39.7905 9.4567Z" fill="black"/>
<path d="M42.1955 9.4567C42.7268 9.4567 43.1575 9.026 43.1575 8.49471C43.1575 7.96341 42.7268 7.53271 42.1955 7.53271C41.6642 7.53271 41.2335 7.96341 41.2335 8.49471C41.2335 9.026 41.6642 9.4567 42.1955 9.4567Z" fill="black"/>
<path d="M44.6005 9.4567C45.1318 9.4567 45.5625 9.026 45.5625 8.49471C45.5625 7.96341 45.1318 7.53271 44.6005 7.53271C44.0692 7.53271 43.6385 7.96341 43.6385 8.49471C43.6385 9.026 44.0692 9.4567 44.6005 9.4567Z" fill="black"/>
<path d="M47.0054 9.4567C47.5367 9.4567 47.9674 9.026 47.9674 8.49471C47.9674 7.96341 47.5367 7.53271 47.0054 7.53271C46.4741 7.53271 46.0434 7.96341 46.0434 8.49471C46.0434 9.026 46.4741 9.4567 47.0054 9.4567Z" fill="black"/>
<path d="M51.8154 9.4567C52.3467 9.4567 52.7774 9.026 52.7774 8.49471C52.7774 7.96341 52.3467 7.53271 51.8154 7.53271C51.2841 7.53271 50.8534 7.96341 50.8534 8.49471C50.8534 9.026 51.2841 9.4567 51.8154 9.4567Z" fill="black"/>
<path d="M25.3606 11.8619C25.8919 11.8619 26.3226 11.4312 26.3226 10.8999C26.3226 10.3686 25.8919 9.93793 25.3606 9.93793C24.8293 9.93793 24.3987 10.3686 24.3987 10.8999C24.3987 11.4312 24.8293 11.8619 25.3606 11.8619Z" fill="black"/>
<path d="M27.7656 11.8619C28.2969 11.8619 28.7276 11.4312 28.7276 10.8999C28.7276 10.3686 28.2969 9.93793 27.7656 9.93793C27.2343 9.93793 26.8036 10.3686 26.8036 10.8999C26.8036 11.4312 27.2343 11.8619 27.7656 11.8619Z" fill="black"/>
<path d="M30.1706 11.8619C30.7019 11.8619 31.1326 11.4312 31.1326 10.8999C31.1326 10.3686 30.7019 9.93793 30.1706 9.93793C29.6393 9.93793 29.2086 10.3686 29.2086 10.8999C29.2086 11.4312 29.6393 11.8619 30.1706 11.8619Z" fill="black"/>
<path d="M32.5755 11.8619C33.1068 11.8619 33.5375 11.4312 33.5375 10.8999C33.5375 10.3686 33.1068 9.93793 32.5755 9.93793C32.0443 9.93793 31.6136 10.3686 31.6136 10.8999C31.6136 11.4312 32.0443 11.8619 32.5755 11.8619Z" fill="black"/>
<path d="M37.3855 11.8619C37.9168 11.8619 38.3475 11.4312 38.3475 10.8999C38.3475 10.3686 37.9168 9.93793 37.3855 9.93793C36.8542 9.93793 36.4235 10.3686 36.4235 10.8999C36.4235 11.4312 36.8542 11.8619 37.3855 11.8619Z" fill="black"/>
<path d="M42.1955 11.8619C42.7268 11.8619 43.1575 11.4312 43.1575 10.8999C43.1575 10.3686 42.7268 9.93793 42.1955 9.93793C41.6642 9.93793 41.2335 10.3686 41.2335 10.8999C41.2335 11.4312 41.6642 11.8619 42.1955 11.8619Z" fill="black"/>
<path d="M49.4104 11.8619C49.9417 11.8619 50.3724 11.4312 50.3724 10.8999C50.3724 10.3686 49.9417 9.93793 49.4104 9.93793C48.8791 9.93793 48.4484 10.3686 48.4484 10.8999C48.4484 11.4312 48.8791 11.8619 49.4104 11.8619Z" fill="black"/>
<path d="M51.8154 11.8619C52.3467 11.8619 52.7774 11.4312 52.7774 10.8999C52.7774 10.3686 52.3467 9.93793 51.8154 9.93793C51.2841 9.93793 50.8534 10.3686 50.8534 10.8999C50.8534 11.4312 51.2841 11.8619 51.8154 11.8619Z" fill="black"/>
<path d="M25.3606 14.2666C25.8919 14.2666 26.3226 13.8359 26.3226 13.3046C26.3226 12.7733 25.8919 12.3427 25.3606 12.3427C24.8293 12.3427 24.3987 12.7733 24.3987 13.3046C24.3987 13.8359 24.8293 14.2666 25.3606 14.2666Z" fill="black"/>
<path d="M27.7656 14.2666C28.2969 14.2666 28.7276 13.8359 28.7276 13.3046C28.7276 12.7733 28.2969 12.3427 27.7656 12.3427C27.2343 12.3427 26.8036 12.7733 26.8036 13.3046C26.8036 13.8359 27.2343 14.2666 27.7656 14.2666Z" fill="black"/>
<path d="M32.5755 14.2666C33.1068 14.2666 33.5375 13.8359 33.5375 13.3046C33.5375 12.7733 33.1068 12.3427 32.5755 12.3427C32.0443 12.3427 31.6136 12.7733 31.6136 13.3046C31.6136 13.8359 32.0443 14.2666 32.5755 14.2666Z" fill="black"/>
<path d="M34.9805 14.2666C35.5118 14.2666 35.9425 13.8359 35.9425 13.3046C35.9425 12.7733 35.5118 12.3427 34.9805 12.3427C34.4492 12.3427 34.0185 12.7733 34.0185 13.3046C34.0185 13.8359 34.4492 14.2666 34.9805 14.2666Z" fill="black"/>
<path d="M39.7905 14.2666C40.3218 14.2666 40.7525 13.8359 40.7525 13.3046C40.7525 12.7733 40.3218 12.3427 39.7905 12.3427C39.2592 12.3427 38.8285 12.7733 38.8285 13.3046C38.8285 13.8359 39.2592 14.2666 39.7905 14.2666Z" fill="black"/>
<path d="M42.1955 14.2666C42.7268 14.2666 43.1575 13.8359 43.1575 13.3046C43.1575 12.7733 42.7268 12.3427 42.1955 12.3427C41.6642 12.3427 41.2335 12.7733 41.2335 13.3046C41.2335 13.8359 41.6642 14.2666 42.1955 14.2666Z" fill="black"/>
<path d="M47.0054 14.2666C47.5367 14.2666 47.9674 13.8359 47.9674 13.3046C47.9674 12.7733 47.5367 12.3427 47.0054 12.3427C46.4741 12.3427 46.0434 12.7733 46.0434 13.3046C46.0434 13.8359 46.4741 14.2666 47.0054 14.2666Z" fill="black"/>
<path d="M49.4104 14.2666C49.9417 14.2666 50.3724 13.8359 50.3724 13.3046C50.3724 12.7733 49.9417 12.3427 49.4104 12.3427C48.8791 12.3427 48.4484 12.7733 48.4484 13.3046C48.4484 13.8359 48.8791 14.2666 49.4104 14.2666Z" fill="black"/>
<path d="M25.3606 16.6714C25.8919 16.6714 26.3226 16.2407 26.3226 15.7094C26.3226 15.1781 25.8919 14.7474 25.3606 14.7474C24.8293 14.7474 24.3987 15.1781 24.3987 15.7094C24.3987 16.2407 24.8293 16.6714 25.3606 16.6714Z" fill="black"/>
<path d="M27.7656 16.6714C28.2969 16.6714 28.7276 16.2407 28.7276 15.7094C28.7276 15.1781 28.2969 14.7474 27.7656 14.7474C27.2343 14.7474 26.8036 15.1781 26.8036 15.7094C26.8036 16.2407 27.2343 16.6714 27.7656 16.6714Z" fill="black"/>
<path d="M30.1706 16.6714C30.7019 16.6714 31.1326 16.2407 31.1326 15.7094C31.1326 15.1781 30.7019 14.7474 30.1706 14.7474C29.6393 14.7474 29.2086 15.1781 29.2086 15.7094C29.2086 16.2407 29.6393 16.6714 30.1706 16.6714Z" fill="black"/>
<path d="M32.5755 16.6714C33.1068 16.6714 33.5375 16.2407 33.5375 15.7094C33.5375 15.1781 33.1068 14.7474 32.5755 14.7474C32.0443 14.7474 31.6136 15.1781 31.6136 15.7094C31.6136 16.2407 32.0443 16.6714 32.5755 16.6714Z" fill="black"/>
<path d="M42.1955 16.6714C42.7268 16.6714 43.1575 16.2407 43.1575 15.7094C43.1575 15.1781 42.7268 14.7474 42.1955 14.7474C41.6642 14.7474 41.2335 15.1781 41.2335 15.7094C41.2335 16.2407 41.6642 16.6714 42.1955 16.6714Z" fill="black"/>
<path d="M44.6005 16.6714C45.1318 16.6714 45.5625 16.2407 45.5625 15.7094C45.5625 15.1781 45.1318 14.7474 44.6005 14.7474C44.0692 14.7474 43.6385 15.1781 43.6385 15.7094C43.6385 16.2407 44.0692 16.6714 44.6005 16.6714Z" fill="black"/>
<path d="M51.8154 16.6714C52.3467 16.6714 52.7774 16.2407 52.7774 15.7094C52.7774 15.1781 52.3467 14.7474 51.8154 14.7474C51.2841 14.7474 50.8534 15.1781 50.8534 15.7094C50.8534 16.2407 51.2841 16.6714 51.8154 16.6714Z" fill="black"/>
<path d="M25.3606 19.0766C25.8919 19.0766 26.3226 18.6459 26.3226 18.1146C26.3226 17.5833 25.8919 17.1526 25.3606 17.1526C24.8293 17.1526 24.3987 17.5833 24.3987 18.1146C24.3987 18.6459 24.8293 19.0766 25.3606 19.0766Z" fill="black"/>
<path d="M30.1706 19.0766C30.7019 19.0766 31.1326 18.6459 31.1326 18.1146C31.1326 17.5833 30.7019 17.1526 30.1706 17.1526C29.6393 17.1526 29.2086 17.5833 29.2086 18.1146C29.2086 18.6459 29.6393 19.0766 30.1706 19.0766Z" fill="black"/>
<path d="M47.0054 19.0766C47.5367 19.0766 47.9674 18.6459 47.9674 18.1146C47.9674 17.5833 47.5367 17.1526 47.0054 17.1526C46.4741 17.1526 46.0434 17.5833 46.0434 18.1146C46.0434 18.6459 46.4741 19.0766 47.0054 19.0766Z" fill="black"/>
<path d="M54.2204 19.0766C54.7517 19.0766 55.1824 18.6459 55.1824 18.1146C55.1824 17.5833 54.7517 17.1526 54.2204 17.1526C53.6891 17.1526 53.2584 17.5833 53.2584 18.1146C53.2584 18.6459 53.6891 19.0766 54.2204 19.0766Z" fill="black"/>
<path d="M25.3606 21.4814C25.8919 21.4814 26.3226 21.0507 26.3226 20.5194C26.3226 19.9881 25.8919 19.5574 25.3606 19.5574C24.8293 19.5574 24.3987 19.9881 24.3987 20.5194C24.3987 21.0507 24.8293 21.4814 25.3606 21.4814Z" fill="black"/>
<path d="M30.1706 21.4814C30.7019 21.4814 31.1326 21.0507 31.1326 20.5194C31.1326 19.9881 30.7019 19.5574 30.1706 19.5574C29.6393 19.5574 29.2086 19.9881 29.2086 20.5194C29.2086 21.0507 29.6393 21.4814 30.1706 21.4814Z" fill="black"/>
<path d="M34.9805 21.4814C35.5118 21.4814 35.9425 21.0507 35.9425 20.5194C35.9425 19.9881 35.5118 19.5574 34.9805 19.5574C34.4492 19.5574 34.0185 19.9881 34.0185 20.5194C34.0185 21.0507 34.4492 21.4814 34.9805 21.4814Z" fill="black"/>
<path d="M39.7905 21.4814C40.3218 21.4814 40.7525 21.0507 40.7525 20.5194C40.7525 19.9881 40.3218 19.5574 39.7905 19.5574C39.2592 19.5574 38.8285 19.9881 38.8285 20.5194C38.8285 21.0507 39.2592 21.4814 39.7905 21.4814Z" fill="black"/>
<path d="M44.6005 21.4814C45.1318 21.4814 45.5625 21.0507 45.5625 20.5194C45.5625 19.9881 45.1318 19.5574 44.6005 19.5574C44.0692 19.5574 43.6385 19.9881 43.6385 20.5194C43.6385 21.0507 44.0692 21.4814 44.6005 21.4814Z" fill="black"/>
<path d="M49.4104 21.4814C49.9417 21.4814 50.3724 21.0507 50.3724 20.5194C50.3724 19.9881 49.9417 19.5574 49.4104 19.5574C48.8791 19.5574 48.4484 19.9881 48.4484 20.5194C48.4484 21.0507 48.8791 21.4814 49.4104 21.4814Z" fill="black"/>
<path d="M54.2204 21.4814C54.7517 21.4814 55.1824 21.0507 55.1824 20.5194C55.1824 19.9881 54.7517 19.5574 54.2204 19.5574C53.6891 19.5574 53.2584 19.9881 53.2584 20.5194C53.2584 21.0507 53.6891 21.4814 54.2204 21.4814Z" fill="black"/>
<path d="M25.3606 23.887C25.8919 23.887 26.3226 23.4563 26.3226 22.925C26.3226 22.3937 25.8919 21.963 25.3606 21.963C24.8293 21.963 24.3987 22.3937 24.3987 22.925C24.3987 23.4563 24.8293 23.887 25.3606 23.887Z" fill="black"/>
<path d="M27.7656 23.887C28.2969 23.887 28.7276 23.4563 28.7276 22.925C28.7276 22.3937 28.2969 21.963 27.7656 21.963C27.2343 21.963 26.8036 22.3937 26.8036 22.925C26.8036 23.4563 27.2343 23.887 27.7656 23.887Z" fill="black"/>
<path d="M30.1706 23.887C30.7019 23.887 31.1326 23.4563 31.1326 22.925C31.1326 22.3937 30.7019 21.963 30.1706 21.963C29.6393 21.963 29.2086 22.3937 29.2086 22.925C29.2086 23.4563 29.6393 23.887 30.1706 23.887Z" fill="black"/>
<path d="M39.7905 23.887C40.3218 23.887 40.7525 23.4563 40.7525 22.925C40.7525 22.3937 40.3218 21.963 39.7905 21.963C39.2592 21.963 38.8285 22.3937 38.8285 22.925C38.8285 23.4563 39.2592 23.887 39.7905 23.887Z" fill="black"/>
<path d="M44.6005 23.887C45.1318 23.887 45.5625 23.4563 45.5625 22.925C45.5625 22.3937 45.1318 21.963 44.6005 21.963C44.0692 21.963 43.6385 22.3937 43.6385 22.925C43.6385 23.4563 44.0692 23.887 44.6005 23.887Z" fill="black"/>
<path d="M47.0054 23.887C47.5367 23.887 47.9674 23.4563 47.9674 22.925C47.9674 22.3937 47.5367 21.963 47.0054 21.963C46.4741 21.963 46.0434 22.3937 46.0434 22.925C46.0434 23.4563 46.4741 23.887 47.0054 23.887Z" fill="black"/>
<path d="M49.4104 23.887C49.9417 23.887 50.3724 23.4563 50.3724 22.925C50.3724 22.3937 49.9417 21.963 49.4104 21.963C48.8791 21.963 48.4484 22.3937 48.4484 22.925C48.4484 23.4563 48.8791 23.887 49.4104 23.887Z" fill="black"/>
<path d="M51.8154 23.887C52.3467 23.887 52.7774 23.4563 52.7774 22.925C52.7774 22.3937 52.3467 21.963 51.8154 21.963C51.2841 21.963 50.8534 22.3937 50.8534 22.925C50.8534 23.4563 51.2841 23.887 51.8154 23.887Z" fill="black"/>
<path d="M54.2204 23.887C54.7517 23.887 55.1824 23.4563 55.1824 22.925C55.1824 22.3937 54.7517 21.963 54.2204 21.963C53.6891 21.963 53.2584 22.3937 53.2584 22.925C53.2584 23.4563 53.6891 23.887 54.2204 23.887Z" fill="black"/>
<path d="M6.12077 26.2918C6.65207 26.2918 7.08277 25.8611 7.08277 25.3298C7.08277 24.7985 6.65207 24.3678 6.12077 24.3678C5.58948 24.3678 5.15878 24.7985 5.15878 25.3298C5.15878 25.8611 5.58948 26.2918 6.12077 26.2918Z" fill="black"/>
<path d="M10.9307 26.2918C11.462 26.2918 11.8927 25.8611 11.8927 25.3298C11.8927 24.7985 11.462 24.3678 10.9307 24.3678C10.3994 24.3678 9.96875 24.7985 9.96875 25.3298C9.96875 25.8611 10.3994 26.2918 10.9307 26.2918Z" fill="black"/>
<path d="M13.3358 26.2918C13.8671 26.2918 14.2978 25.8611 14.2978 25.3298C14.2978 24.7985 13.8671 24.3678 13.3358 24.3678C12.8045 24.3678 12.3738 24.7985 12.3738 25.3298C12.3738 25.8611 12.8045 26.2918 13.3358 26.2918Z" fill="black"/>
<path d="M15.7407 26.2918C16.272 26.2918 16.7027 25.8611 16.7027 25.3298C16.7027 24.7985 16.272 24.3678 15.7407 24.3678C15.2094 24.3678 14.7787 24.7985 14.7787 25.3298C14.7787 25.8611 15.2094 26.2918 15.7407 26.2918Z" fill="black"/>
<path d="M18.1457 26.2918C18.677 26.2918 19.1077 25.8611 19.1077 25.3298C19.1077 24.7985 18.677 24.3678 18.1457 24.3678C17.6144 24.3678 17.1837 24.7985 17.1837 25.3298C17.1837 25.8611 17.6144 26.2918 18.1457 26.2918Z" fill="black"/>
<path d="M20.5507 26.2918C21.082 26.2918 21.5127 25.8611 21.5127 25.3298C21.5127 24.7985 21.082 24.3678 20.5507 24.3678C20.0194 24.3678 19.5887 24.7985 19.5887 25.3298C19.5887 25.8611 20.0194 26.2918 20.5507 26.2918Z" fill="black"/>
<path d="M30.1706 26.2918C30.7019 26.2918 31.1326 25.8611 31.1326 25.3298C31.1326 24.7985 30.7019 24.3678 30.1706 24.3678C29.6393 24.3678 29.2086 24.7985 29.2086 25.3298C29.2086 25.8611 29.6393 26.2918 30.1706 26.2918Z" fill="black"/>
<path d="M32.5755 26.2918C33.1068 26.2918 33.5375 25.8611 33.5375 25.3298C33.5375 24.7985 33.1068 24.3678 32.5755 24.3678C32.0443 24.3678 31.6136 24.7985 31.6136 25.3298C31.6136 25.8611 32.0443 26.2918 32.5755 26.2918Z" fill="black"/>
<path d="M44.6005 26.2918C45.1318 26.2918 45.5625 25.8611 45.5625 25.3298C45.5625 24.7985 45.1318 24.3678 44.6005 24.3678C44.0692 24.3678 43.6385 24.7985 43.6385 25.3298C43.6385 25.8611 44.0692 26.2918 44.6005 26.2918Z" fill="black"/>
<path d="M47.0054 26.2918C47.5367 26.2918 47.9674 25.8611 47.9674 25.3298C47.9674 24.7985 47.5367 24.3678 47.0054 24.3678C46.4741 24.3678 46.0434 24.7985 46.0434 25.3298C46.0434 25.8611 46.4741 26.2918 47.0054 26.2918Z" fill="black"/>
<path d="M54.2204 26.2918C54.7517 26.2918 55.1824 25.8611 55.1824 25.3298C55.1824 24.7985 54.7517 24.3678 54.2204 24.3678C53.6891 24.3678 53.2584 24.7985 53.2584 25.3298C53.2584 25.8611 53.6891 26.2918 54.2204 26.2918Z" fill="black"/>
<path d="M59.0303 26.2918C59.5616 26.2918 59.9923 25.8611 59.9923 25.3298C59.9923 24.7985 59.5616 24.3678 59.0303 24.3678C58.499 24.3678 58.0683 24.7985 58.0683 25.3298C58.0683 25.8611 58.499 26.2918 59.0303 26.2918Z" fill="black"/>
<path d="M61.4353 26.2918C61.9666 26.2918 62.3973 25.8611 62.3973 25.3298C62.3973 24.7985 61.9666 24.3678 61.4353 24.3678C60.904 24.3678 60.4733 24.7985 60.4733 25.3298C60.4733 25.8611 60.904 26.2918 61.4353 26.2918Z" fill="black"/>
<path d="M63.8403 26.2918C64.3716 26.2918 64.8023 25.8611 64.8023 25.3298C64.8023 24.7985 64.3716 24.3678 63.8403 24.3678C63.309 24.3678 62.8783 24.7985 62.8783 25.3298C62.8783 25.8611 63.309 26.2918 63.8403 26.2918Z" fill="black"/>
<path d="M66.2453 26.2918C66.7765 26.2918 67.2072 25.8611 67.2072 25.3298C67.2072 24.7985 66.7765 24.3678 66.2453 24.3678C65.714 24.3678 65.2833 24.7985 65.2833 25.3298C65.2833 25.8611 65.714 26.2918 66.2453 26.2918Z" fill="black"/>
<path d="M68.6503 26.2918C69.1816 26.2918 69.6123 25.8611 69.6123 25.3298C69.6123 24.7985 69.1816 24.3678 68.6503 24.3678C68.119 24.3678 67.6883 24.7985 67.6883 25.3298C67.6883 25.8611 68.119 26.2918 68.6503 26.2918Z" fill="black"/>
<path d="M8.52577 28.6965C9.05707 28.6965 9.48776 28.2658 9.48776 27.7345C9.48776 27.2032 9.05707 26.7725 8.52577 26.7725C7.99448 26.7725 7.56378 27.2032 7.56378 27.7345C7.56378 28.2658 7.99448 28.6965 8.52577 28.6965Z" fill="black"/>
<path d="M10.9307 28.6965C11.462 28.6965 11.8927 28.2658 11.8927 27.7345C11.8927 27.2032 11.462 26.7725 10.9307 26.7725C10.3994 26.7725 9.96875 27.2032 9.96875 27.7345C9.96875 28.2658 10.3994 28.6965 10.9307 28.6965Z" fill="black"/>
<path d="M27.7656 28.6965C28.2969 28.6965 28.7276 28.2658 28.7276 27.7345C28.7276 27.2032 28.2969 26.7725 27.7656 26.7725C27.2343 26.7725 26.8036 27.2032 26.8036 27.7345C26.8036 28.2658 27.2343 28.6965 27.7656 28.6965Z" fill="black"/>
<path d="M37.3855 28.6965C37.9168 28.6965 38.3475 28.2658 38.3475 27.7345C38.3475 27.2032 37.9168 26.7725 37.3855 26.7725C36.8542 26.7725 36.4235 27.2032 36.4235 27.7345C36.4235 28.2658 36.8542 28.6965 37.3855 28.6965Z" fill="black"/>
<path d="M39.7905 28.6965C40.3218 28.6965 40.7525 28.2658 40.7525 27.7345C40.7525 27.2032 40.3218 26.7725 39.7905 26.7725C39.2592 26.7725 38.8285 27.2032 38.8285 27.7345C38.8285 28.2658 39.2592 28.6965 39.7905 28.6965Z" fill="black"/>
<path d="M42.1955 28.6965C42.7268 28.6965 43.1575 28.2658 43.1575 27.7345C43.1575 27.2032 42.7268 26.7725 42.1955 26.7725C41.6642 26.7725 41.2335 27.2032 41.2335 27.7345C41.2335 28.2658 41.6642 28.6965 42.1955 28.6965Z" fill="black"/>
<path d="M54.2204 28.6965C54.7517 28.6965 55.1824 28.2658 55.1824 27.7345C55.1824 27.2032 54.7517 26.7725 54.2204 26.7725C53.6891 26.7725 53.2584 27.2032 53.2584 27.7345C53.2584 28.2658 53.6891 28.6965 54.2204 28.6965Z" fill="black"/>
<path d="M59.0303 28.6965C59.5616 28.6965 59.9923 28.2658 59.9923 27.7345C59.9923 27.2032 59.5616 26.7725 59.0303 26.7725C58.499 26.7725 58.0683 27.2032 58.0683 27.7345C58.0683 28.2658 58.499 28.6965 59.0303 28.6965Z" fill="black"/>
<path d="M63.8403 28.6965C64.3716 28.6965 64.8023 28.2658 64.8023 27.7345C64.8023 27.2032 64.3716 26.7725 63.8403 26.7725C63.309 26.7725 62.8783 27.2032 62.8783 27.7345C62.8783 28.2658 63.309 28.6965 63.8403 28.6965Z" fill="black"/>
<path d="M66.2453 28.6965C66.7765 28.6965 67.2072 28.2658 67.2072 27.7345C67.2072 27.2032 66.7765 26.7725 66.2453 26.7725C65.714 26.7725 65.2833 27.2032 65.2833 27.7345C65.2833 28.2658 65.714 28.6965 66.2453 28.6965Z" fill="black"/>
<path d="M71.0552 28.6965C71.5865 28.6965 72.0172 28.2658 72.0172 27.7345C72.0172 27.2032 71.5865 26.7725 71.0552 26.7725C70.5239 26.7725 70.0932 27.2032 70.0932 27.7345C70.0932 28.2658 70.5239 28.6965 71.0552 28.6965Z" fill="black"/>
<path d="M8.52577 31.1017C9.05707 31.1017 9.48776 30.671 9.48776 30.1397C9.48776 29.6084 9.05707 29.1777 8.52577 29.1777C7.99448 29.1777 7.56378 29.6084 7.56378 30.1397C7.56378 30.671 7.99448 31.1017 8.52577 31.1017Z" fill="black"/>
<path d="M15.7407 31.1017C16.272 31.1017 16.7027 30.671 16.7027 30.1397C16.7027 29.6084 16.272 29.1777 15.7407 29.1777C15.2094 29.1777 14.7787 29.6084 14.7787 30.1397C14.7787 30.671 15.2094 31.1017 15.7407 31.1017Z" fill="black"/>
<path d="M20.5507 31.1017C21.082 31.1017 21.5127 30.671 21.5127 30.1397C21.5127 29.6084 21.082 29.1777 20.5507 29.1777C20.0194 29.1777 19.5887 29.6084 19.5887 30.1397C19.5887 30.671 20.0194 31.1017 20.5507 31.1017Z" fill="black"/>
<path d="M25.3606 31.1017C25.8919 31.1017 26.3226 30.671 26.3226 30.1397C26.3226 29.6084 25.8919 29.1777 25.3606 29.1777C24.8293 29.1777 24.3987 29.6084 24.3987 30.1397C24.3987 30.671 24.8293 31.1017 25.3606 31.1017Z" fill="black"/>
<path d="M32.5755 31.1017C33.1068 31.1017 33.5375 30.671 33.5375 30.1397C33.5375 29.6084 33.1068 29.1777 32.5755 29.1777C32.0443 29.1777 31.6136 29.6084 31.6136 30.1397C31.6136 30.671 32.0443 31.1017 32.5755 31.1017Z" fill="black"/>
<path d="M37.3855 31.1017C37.9168 31.1017 38.3475 30.671 38.3475 30.1397C38.3475 29.6084 37.9168 29.1777 37.3855 29.1777C36.8542 29.1777 36.4235 29.6084 36.4235 30.1397C36.4235 30.671 36.8542 31.1017 37.3855 31.1017Z" fill="black"/>
<path d="M39.7905 31.1017C40.3218 31.1017 40.7525 30.671 40.7525 30.1397C40.7525 29.6084 40.3218 29.1777 39.7905 29.1777C39.2592 29.1777 38.8285 29.6084 38.8285 30.1397C38.8285 30.671 39.2592 31.1017 39.7905 31.1017Z" fill="black"/>
<path d="M42.1955 31.1017C42.7268 31.1017 43.1575 30.671 43.1575 30.1397C43.1575 29.6084 42.7268 29.1777 42.1955 29.1777C41.6642 29.1777 41.2335 29.6084 41.2335 30.1397C41.2335 30.671 41.6642 31.1017 42.1955 31.1017Z" fill="black"/>
<path d="M44.6005 31.1017C45.1318 31.1017 45.5625 30.671 45.5625 30.1397C45.5625 29.6084 45.1318 29.1777 44.6005 29.1777C44.0692 29.1777 43.6385 29.6084 43.6385 30.1397C43.6385 30.671 44.0692 31.1017 44.6005 31.1017Z" fill="black"/>
<path d="M47.0054 31.1017C47.5367 31.1017 47.9674 30.671 47.9674 30.1397C47.9674 29.6084 47.5367 29.1777 47.0054 29.1777C46.4741 29.1777 46.0434 29.6084 46.0434 30.1397C46.0434 30.671 46.4741 31.1017 47.0054 31.1017Z" fill="black"/>
<path d="M61.4353 31.1017C61.9666 31.1017 62.3973 30.671 62.3973 30.1397C62.3973 29.6084 61.9666 29.1777 61.4353 29.1777C60.904 29.1777 60.4733 29.6084 60.4733 30.1397C60.4733 30.671 60.904 31.1017 61.4353 31.1017Z" fill="black"/>
<path d="M66.2453 31.1017C66.7765 31.1017 67.2072 30.671 67.2072 30.1397C67.2072 29.6084 66.7765 29.1777 66.2453 29.1777C65.714 29.1777 65.2833 29.6084 65.2833 30.1397C65.2833 30.671 65.714 31.1017 66.2453 31.1017Z" fill="black"/>
<path d="M68.6503 31.1017C69.1816 31.1017 69.6123 30.671 69.6123 30.1397C69.6123 29.6084 69.1816 29.1777 68.6503 29.1777C68.119 29.1777 67.6883 29.6084 67.6883 30.1397C67.6883 30.671 68.119 31.1017 68.6503 31.1017Z" fill="black"/>
<path d="M15.7407 33.5064C16.272 33.5064 16.7027 33.0757 16.7027 32.5444C16.7027 32.0132 16.272 31.5825 15.7407 31.5825C15.2094 31.5825 14.7787 32.0132 14.7787 32.5444C14.7787 33.0757 15.2094 33.5064 15.7407 33.5064Z" fill="black"/>
<path d="M18.1457 33.5064C18.677 33.5064 19.1077 33.0757 19.1077 32.5444C19.1077 32.0132 18.677 31.5825 18.1457 31.5825C17.6144 31.5825 17.1837 32.0132 17.1837 32.5444C17.1837 33.0757 17.6144 33.5064 18.1457 33.5064Z" fill="black"/>
<path d="M22.9557 33.5064C23.487 33.5064 23.9177 33.0757 23.9177 32.5444C23.9177 32.0132 23.487 31.5825 22.9557 31.5825C22.4244 31.5825 21.9937 32.0132 21.9937 32.5444C21.9937 33.0757 22.4244 33.5064 22.9557 33.5064Z" fill="black"/>
<path d="M37.3855 33.5064C37.9168 33.5064 38.3475 33.0757 38.3475 32.5444C38.3475 32.0132 37.9168 31.5825 37.3855 31.5825C36.8542 31.5825 36.4235 32.0132 36.4235 32.5444C36.4235 33.0757 36.8542 33.5064 37.3855 33.5064Z" fill="black"/>
<path d="M42.1955 33.5064C42.7268 33.5064 43.1575 33.0757 43.1575 32.5444C43.1575 32.0132 42.7268 31.5825 42.1955 31.5825C41.6642 31.5825 41.2335 32.0132 41.2335 32.5444C41.2335 33.0757 41.6642 33.5064 42.1955 33.5064Z" fill="black"/>
<path d="M47.0054 33.5064C47.5367 33.5064 47.9674 33.0757 47.9674 32.5444C47.9674 32.0132 47.5367 31.5825 47.0054 31.5825C46.4741 31.5825 46.0434 32.0132 46.0434 32.5444C46.0434 33.0757 46.4741 33.5064 47.0054 33.5064Z" fill="black"/>
<path d="M49.4104 33.5064C49.9417 33.5064 50.3724 33.0757 50.3724 32.5444C50.3724 32.0132 49.9417 31.5825 49.4104 31.5825C48.8791 31.5825 48.4484 32.0132 48.4484 32.5444C48.4484 33.0757 48.8791 33.5064 49.4104 33.5064Z" fill="black"/>
<path d="M51.8154 33.5064C52.3467 33.5064 52.7774 33.0757 52.7774 32.5444C52.7774 32.0132 52.3467 31.5825 51.8154 31.5825C51.2841 31.5825 50.8534 32.0132 50.8534 32.5444C50.8534 33.0757 51.2841 33.5064 51.8154 33.5064Z" fill="black"/>
<path d="M54.2204 33.5064C54.7517 33.5064 55.1824 33.0757 55.1824 32.5444C55.1824 32.0132 54.7517 31.5825 54.2204 31.5825C53.6891 31.5825 53.2584 32.0132 53.2584 32.5444C53.2584 33.0757 53.6891 33.5064 54.2204 33.5064Z" fill="black"/>
<path d="M56.6254 33.5064C57.1566 33.5064 57.5873 33.0757 57.5873 32.5444C57.5873 32.0132 57.1566 31.5825 56.6254 31.5825C56.0941 31.5825 55.6634 32.0132 55.6634 32.5444C55.6634 33.0757 56.0941 33.5064 56.6254 33.5064Z" fill="black"/>
<path d="M59.0303 33.5064C59.5616 33.5064 59.9923 33.0757 59.9923 32.5444C59.9923 32.0132 59.5616 31.5825 59.0303 31.5825C58.499 31.5825 58.0683 32.0132 58.0683 32.5444C58.0683 33.0757 58.499 33.5064 59.0303 33.5064Z" fill="black"/>
<path d="M61.4353 33.5064C61.9666 33.5064 62.3973 33.0757 62.3973 32.5444C62.3973 32.0132 61.9666 31.5825 61.4353 31.5825C60.904 31.5825 60.4733 32.0132 60.4733 32.5444C60.4733 33.0757 60.904 33.5064 61.4353 33.5064Z" fill="black"/>
<path d="M63.8403 33.5064C64.3716 33.5064 64.8023 33.0757 64.8023 32.5444C64.8023 32.0132 64.3716 31.5825 63.8403 31.5825C63.309 31.5825 62.8783 32.0132 62.8783 32.5444C62.8783 33.0757 63.309 33.5064 63.8403 33.5064Z" fill="black"/>
<path d="M66.2453 33.5064C66.7765 33.5064 67.2072 33.0757 67.2072 32.5444C67.2072 32.0132 66.7765 31.5825 66.2453 31.5825C65.714 31.5825 65.2833 32.0132 65.2833 32.5444C65.2833 33.0757 65.714 33.5064 66.2453 33.5064Z" fill="black"/>
<path d="M73.4602 33.5064C73.9915 33.5064 74.4222 33.0757 74.4222 32.5444C74.4222 32.0132 73.9915 31.5825 73.4602 31.5825C72.9289 31.5825 72.4982 32.0132 72.4982 32.5444C72.4982 33.0757 72.9289 33.5064 73.4602 33.5064Z" fill="black"/>
<path d="M6.12077 35.9117C6.65207 35.9117 7.08277 35.481 7.08277 34.9497C7.08277 34.4184 6.65207 33.9877 6.12077 33.9877C5.58948 33.9877 5.15878 34.4184 5.15878 34.9497C5.15878 35.481 5.58948 35.9117 6.12077 35.9117Z" fill="black"/>
<path d="M8.52577 35.9117C9.05707 35.9117 9.48776 35.481 9.48776 34.9497C9.48776 34.4184 9.05707 33.9877 8.52577 33.9877C7.99448 33.9877 7.56378 34.4184 7.56378 34.9497C7.56378 35.481 7.99448 35.9117 8.52577 35.9117Z" fill="black"/>
<path d="M15.7407 35.9117C16.272 35.9117 16.7027 35.481 16.7027 34.9497C16.7027 34.4184 16.272 33.9877 15.7407 33.9877C15.2094 33.9877 14.7787 34.4184 14.7787 34.9497C14.7787 35.481 15.2094 35.9117 15.7407 35.9117Z" fill="black"/>
<path d="M20.5507 35.9117C21.082 35.9117 21.5127 35.481 21.5127 34.9497C21.5127 34.4184 21.082 33.9877 20.5507 33.9877C20.0194 33.9877 19.5887 34.4184 19.5887 34.9497C19.5887 35.481 20.0194 35.9117 20.5507 35.9117Z" fill="black"/>
<path d="M22.9557 35.9117C23.487 35.9117 23.9177 35.481 23.9177 34.9497C23.9177 34.4184 23.487 33.9877 22.9557 33.9877C22.4244 33.9877 21.9937 34.4184 21.9937 34.9497C21.9937 35.481 22.4244 35.9117 22.9557 35.9117Z" fill="black"/>
<path d="M30.1706 35.9117C30.7019 35.9117 31.1326 35.481 31.1326 34.9497C31.1326 34.4184 30.7019 33.9877 30.1706 33.9877C29.6393 33.9877 29.2086 34.4184 29.2086 34.9497C29.2086 35.481 29.6393 35.9117 30.1706 35.9117Z" fill="black"/>
<path d="M32.5755 35.9117C33.1068 35.9117 33.5375 35.481 33.5375 34.9497C33.5375 34.4184 33.1068 33.9877 32.5755 33.9877C32.0443 33.9877 31.6136 34.4184 31.6136 34.9497C31.6136 35.481 32.0443 35.9117 32.5755 35.9117Z" fill="black"/>
<path d="M39.7905 35.9117C40.3218 35.9117 40.7525 35.481 40.7525 34.9497C40.7525 34.4184 40.3218 33.9877 39.7905 33.9877C39.2592 33.9877 38.8285 34.4184 38.8285 34.9497C38.8285 35.481 39.2592 35.9117 39.7905 35.9117Z" fill="black"/>
<path d="M42.1955 35.9117C42.7268 35.9117 43.1575 35.481 43.1575 34.9497C43.1575 34.4184 42.7268 33.9877 42.1955 33.9877C41.6642 33.9877 41.2335 34.4184 41.2335 34.9497C41.2335 35.481 41.6642 35.9117 42.1955 35.9117Z" fill="black"/>
<path d="M56.6254 35.9117C57.1566 35.9117 57.5873 35.481 57.5873 34.9497C57.5873 34.4184 57.1566 33.9877 56.6254 33.9877C56.0941 33.9877 55.6634 34.4184 55.6634 34.9497C55.6634 35.481 56.0941 35.9117 56.6254 35.9117Z" fill="black"/>
<path d="M59.0303 35.9117C59.5616 35.9117 59.9923 35.481 59.9923 34.9497C59.9923 34.4184 59.5616 33.9877 59.0303 33.9877C58.499 33.9877 58.0683 34.4184 58.0683 34.9497C58.0683 35.481 58.499 35.9117 59.0303 35.9117Z" fill="black"/>
<path d="M6.12077 38.3164C6.65207 38.3164 7.08277 37.8857 7.08277 37.3544C7.08277 36.8232 6.65207 36.3925 6.12077 36.3925C5.58948 36.3925 5.15878 36.8232 5.15878 37.3544C5.15878 37.8857 5.58948 38.3164 6.12077 38.3164Z" fill="black"/>
<path d="M10.9307 38.3164C11.462 38.3164 11.8927 37.8857 11.8927 37.3544C11.8927 36.8232 11.462 36.3925 10.9307 36.3925C10.3994 36.3925 9.96875 36.8232 9.96875 37.3544C9.96875 37.8857 10.3994 38.3164 10.9307 38.3164Z" fill="black"/>
<path d="M13.3358 38.3164C13.8671 38.3164 14.2978 37.8857 14.2978 37.3544C14.2978 36.8232 13.8671 36.3925 13.3358 36.3925C12.8045 36.3925 12.3738 36.8232 12.3738 37.3544C12.3738 37.8857 12.8045 38.3164 13.3358 38.3164Z" fill="black"/>
<path d="M18.1457 38.3164C18.677 38.3164 19.1077 37.8857 19.1077 37.3544C19.1077 36.8232 18.677 36.3925 18.1457 36.3925C17.6144 36.3925 17.1837 36.8232 17.1837 37.3544C17.1837 37.8857 17.6144 38.3164 18.1457 38.3164Z" fill="black"/>
<path d="M34.9805 38.3164C35.5118 38.3164 35.9425 37.8857 35.9425 37.3544C35.9425 36.8232 35.5118 36.3925 34.9805 36.3925C34.4492 36.3925 34.0185 36.8232 34.0185 37.3544C34.0185 37.8857 34.4492 38.3164 34.9805 38.3164Z" fill="black"/>
<path d="M42.1955 38.3164C42.7268 38.3164 43.1575 37.8857 43.1575 37.3544C43.1575 36.8232 42.7268 36.3925 42.1955 36.3925C41.6642 36.3925 41.2335 36.8232 41.2335 37.3544C41.2335 37.8857 41.6642 38.3164 42.1955 38.3164Z" fill="black"/>
<path d="M44.6005 38.3164C45.1318 38.3164 45.5625 37.8857 45.5625 37.3544C45.5625 36.8232 45.1318 36.3925 44.6005 36.3925C44.0692 36.3925 43.6385 36.8232 43.6385 37.3544C43.6385 37.8857 44.0692 38.3164 44.6005 38.3164Z" fill="black"/>
<path d="M51.8154 38.3164C52.3467 38.3164 52.7774 37.8857 52.7774 37.3544C52.7774 36.8232 52.3467 36.3925 51.8154 36.3925C51.2841 36.3925 50.8534 36.8232 50.8534 37.3544C50.8534 37.8857 51.2841 38.3164 51.8154 38.3164Z" fill="black"/>
<path d="M54.2204 38.3164C54.7517 38.3164 55.1824 37.8857 55.1824 37.3544C55.1824 36.8232 54.7517 36.3925 54.2204 36.3925C53.6891 36.3925 53.2584 36.8232 53.2584 37.3544C53.2584 37.8857 53.6891 38.3164 54.2204 38.3164Z" fill="black"/>
<path d="M61.4353 38.3164C61.9666 38.3164 62.3973 37.8857 62.3973 37.3544C62.3973 36.8232 61.9666 36.3925 61.4353 36.3925C60.904 36.3925 60.4733 36.8232 60.4733 37.3544C60.4733 37.8857 60.904 38.3164 61.4353 38.3164Z" fill="black"/>
<path d="M66.2453 38.3164C66.7765 38.3164 67.2072 37.8857 67.2072 37.3544C67.2072 36.8232 66.7765 36.3925 66.2453 36.3925C65.714 36.3925 65.2833 36.8232 65.2833 37.3544C65.2833 37.8857 65.714 38.3164 66.2453 38.3164Z" fill="black"/>
<path d="M71.0552 38.3164C71.5865 38.3164 72.0172 37.8857 72.0172 37.3544C72.0172 36.8232 71.5865 36.3925 71.0552 36.3925C70.5239 36.3925 70.0932 36.8232 70.0932 37.3544C70.0932 37.8857 70.5239 38.3164 71.0552 38.3164Z" fill="black"/>
<path d="M18.1457 40.7214C18.677 40.7214 19.1077 40.2907 19.1077 39.7594C19.1077 39.2281 18.677 38.7974 18.1457 38.7974C17.6144 38.7974 17.1837 39.2281 17.1837 39.7594C17.1837 40.2907 17.6144 40.7214 18.1457 40.7214Z" fill="black"/>
<path d="M20.5507 40.7214C21.082 40.7214 21.5127 40.2907 21.5127 39.7594C21.5127 39.2281 21.082 38.7974 20.5507 38.7974C20.0194 38.7974 19.5887 39.2281 19.5887 39.7594C19.5887 40.2907 20.0194 40.7214 20.5507 40.7214Z" fill="black"/>
<path d="M25.3606 40.7214C25.8919 40.7214 26.3226 40.2907 26.3226 39.7594C26.3226 39.2281 25.8919 38.7974 25.3606 38.7974C24.8293 38.7974 24.3987 39.2281 24.3987 39.7594C24.3987 40.2907 24.8293 40.7214 25.3606 40.7214Z" fill="black"/>
<path d="M30.1706 40.7214C30.7019 40.7214 31.1326 40.2907 31.1326 39.7594C31.1326 39.2281 30.7019 38.7974 30.1706 38.7974C29.6393 38.7974 29.2086 39.2281 29.2086 39.7594C29.2086 40.2907 29.6393 40.7214 30.1706 40.7214Z" fill="black"/>
<path d="M47.0054 40.7214C47.5367 40.7214 47.9674 40.2907 47.9674 39.7594C47.9674 39.2281 47.5367 38.7974 47.0054 38.7974C46.4741 38.7974 46.0434 39.2281 46.0434 39.7594C46.0434 40.2907 46.4741 40.7214 47.0054 40.7214Z" fill="black"/>
<path d="M49.4104 40.7214C49.9417 40.7214 50.3724 40.2907 50.3724 39.7594C50.3724 39.2281 49.9417 38.7974 49.4104 38.7974C48.8791 38.7974 48.4484 39.2281 48.4484 39.7594C48.4484 40.2907 48.8791 40.7214 49.4104 40.7214Z" fill="black"/>
<path d="M54.2204 40.7214C54.7517 40.7214 55.1824 40.2907 55.1824 39.7594C55.1824 39.2281 54.7517 38.7974 54.2204 38.7974C53.6891 38.7974 53.2584 39.2281 53.2584 39.7594C53.2584 40.2907 53.6891 40.7214 54.2204 40.7214Z" fill="black"/>
<path d="M66.2453 40.7214C66.7765 40.7214 67.2072 40.2907 67.2072 39.7594C67.2072 39.2281 66.7765 38.7974 66.2453 38.7974C65.714 38.7974 65.2833 39.2281 65.2833 39.7594C65.2833 40.2907 65.714 40.7214 66.2453 40.7214Z" fill="black"/>
<path d="M68.6503 40.7214C69.1816 40.7214 69.6123 40.2907 69.6123 39.7594C69.6123 39.2281 69.1816 38.7974 68.6503 38.7974C68.119 38.7974 67.6883 39.2281 67.6883 39.7594C67.6883 40.2907 68.119 40.7214 68.6503 40.7214Z" fill="black"/>
<path d="M71.0552 40.7214C71.5865 40.7214 72.0172 40.2907 72.0172 39.7594C72.0172 39.2281 71.5865 38.7974 71.0552 38.7974C70.5239 38.7974 70.0932 39.2281 70.0932 39.7594C70.0932 40.2907 70.5239 40.7214 71.0552 40.7214Z" fill="black"/>
<path d="M73.4602 40.7214C73.9915 40.7214 74.4222 40.2907 74.4222 39.7594C74.4222 39.2281 73.9915 38.7974 73.4602 38.7974C72.9289 38.7974 72.4982 39.2281 72.4982 39.7594C72.4982 40.2907 72.9289 40.7214 73.4602 40.7214Z" fill="black"/>
<path d="M6.12077 43.1268C6.65207 43.1268 7.08277 42.6961 7.08277 42.1648C7.08277 41.6335 6.65207 41.2028 6.12077 41.2028C5.58948 41.2028 5.15878 41.6335 5.15878 42.1648C5.15878 42.6961 5.58948 43.1268 6.12077 43.1268Z" fill="black"/>
<path d="M8.52577 43.1268C9.05707 43.1268 9.48776 42.6961 9.48776 42.1648C9.48776 41.6335 9.05707 41.2028 8.52577 41.2028C7.99448 41.2028 7.56378 41.6335 7.56378 42.1648C7.56378 42.6961 7.99448 43.1268 8.52577 43.1268Z" fill="black"/>
<path d="M10.9307 43.1268C11.462 43.1268 11.8927 42.6961 11.8927 42.1648C11.8927 41.6335 11.462 41.2028 10.9307 41.2028C10.3994 41.2028 9.96875 41.6335 9.96875 42.1648C9.96875 42.6961 10.3994 43.1268 10.9307 43.1268Z" fill="black"/>
<path d="M15.7407 43.1268C16.272 43.1268 16.7027 42.6961 16.7027 42.1648C16.7027 41.6335 16.272 41.2028 15.7407 41.2028C15.2094 41.2028 14.7787 41.6335 14.7787 42.1648C14.7787 42.6961 15.2094 43.1268 15.7407 43.1268Z" fill="black"/>
<path d="M18.1457 43.1268C18.677 43.1268 19.1077 42.6961 19.1077 42.1648C19.1077 41.6335 18.677 41.2028 18.1457 41.2028C17.6144 41.2028 17.1837 41.6335 17.1837 42.1648C17.1837 42.6961 17.6144 43.1268 18.1457 43.1268Z" fill="black"/>
<path d="M22.9557 43.1268C23.487 43.1268 23.9177 42.6961 23.9177 42.1648C23.9177 41.6335 23.487 41.2028 22.9557 41.2028C22.4244 41.2028 21.9937 41.6335 21.9937 42.1648C21.9937 42.6961 22.4244 43.1268 22.9557 43.1268Z" fill="black"/>
<path d="M25.3606 43.1268C25.8919 43.1268 26.3226 42.6961 26.3226 42.1648C26.3226 41.6335 25.8919 41.2028 25.3606 41.2028C24.8293 41.2028 24.3987 41.6335 24.3987 42.1648C24.3987 42.6961 24.8293 43.1268 25.3606 43.1268Z" fill="black"/>
<path d="M27.7656 43.1268C28.2969 43.1268 28.7276 42.6961 28.7276 42.1648C28.7276 41.6335 28.2969 41.2028 27.7656 41.2028C27.2343 41.2028 26.8036 41.6335 26.8036 42.1648C26.8036 42.6961 27.2343 43.1268 27.7656 43.1268Z" fill="black"/>
<path d="M30.1706 43.1268C30.7019 43.1268 31.1326 42.6961 31.1326 42.1648C31.1326 41.6335 30.7019 41.2028 30.1706 41.2028C29.6393 41.2028 29.2086 41.6335 29.2086 42.1648C29.2086 42.6961 29.6393 43.1268 30.1706 43.1268Z" fill="black"/>
<path d="M32.5755 43.1268C33.1068 43.1268 33.5375 42.6961 33.5375 42.1648C33.5375 41.6335 33.1068 41.2028 32.5755 41.2028C32.0443 41.2028 31.6136 41.6335 31.6136 42.1648C31.6136 42.6961 32.0443 43.1268 32.5755 43.1268Z" fill="black"/>
<path d="M34.9805 43.1268C35.5118 43.1268 35.9425 42.6961 35.9425 42.1648C35.9425 41.6335 35.5118 41.2028 34.9805 41.2028C34.4492 41.2028 34.0185 41.6335 34.0185 42.1648C34.0185 42.6961 34.4492 43.1268 34.9805 43.1268Z" fill="black"/>
<path d="M39.7905 43.1268C40.3218 43.1268 40.7525 42.6961 40.7525 42.1648C40.7525 41.6335 40.3218 41.2028 39.7905 41.2028C39.2592 41.2028 38.8285 41.6335 38.8285 42.1648C38.8285 42.6961 39.2592 43.1268 39.7905 43.1268Z" fill="black"/>
<path d="M44.6005 43.1268C45.1318 43.1268 45.5625 42.6961 45.5625 42.1648C45.5625 41.6335 45.1318 41.2028 44.6005 41.2028C44.0692 41.2028 43.6385 41.6335 43.6385 42.1648C43.6385 42.6961 44.0692 43.1268 44.6005 43.1268Z" fill="black"/>
<path d="M47.0054 43.1268C47.5367 43.1268 47.9674 42.6961 47.9674 42.1648C47.9674 41.6335 47.5367 41.2028 47.0054 41.2028C46.4741 41.2028 46.0434 41.6335 46.0434 42.1648C46.0434 42.6961 46.4741 43.1268 47.0054 43.1268Z" fill="black"/>
<path d="M49.4104 43.1268C49.9417 43.1268 50.3724 42.6961 50.3724 42.1648C50.3724 41.6335 49.9417 41.2028 49.4104 41.2028C48.8791 41.2028 48.4484 41.6335 48.4484 42.1648C48.4484 42.6961 48.8791 43.1268 49.4104 43.1268Z" fill="black"/>
<path d="M51.8154 43.1268C52.3467 43.1268 52.7774 42.6961 52.7774 42.1648C52.7774 41.6335 52.3467 41.2028 51.8154 41.2028C51.2841 41.2028 50.8534 41.6335 50.8534 42.1648C50.8534 42.6961 51.2841 43.1268 51.8154 43.1268Z" fill="black"/>
<path d="M54.2204 43.1268C54.7517 43.1268 55.1824 42.6961 55.1824 42.1648C55.1824 41.6335 54.7517 41.2028 54.2204 41.2028C53.6891 41.2028 53.2584 41.6335 53.2584 42.1648C53.2584 42.6961 53.6891 43.1268 54.2204 43.1268Z" fill="black"/>
<path d="M59.0303 43.1268C59.5616 43.1268 59.9923 42.6961 59.9923 42.1648C59.9923 41.6335 59.5616 41.2028 59.0303 41.2028C58.499 41.2028 58.0683 41.6335 58.0683 42.1648C58.0683 42.6961 58.499 43.1268 59.0303 43.1268Z" fill="black"/>
<path d="M63.8403 43.1268C64.3716 43.1268 64.8023 42.6961 64.8023 42.1648C64.8023 41.6335 64.3716 41.2028 63.8403 41.2028C63.309 41.2028 62.8783 41.6335 62.8783 42.1648C62.8783 42.6961 63.309 43.1268 63.8403 43.1268Z" fill="black"/>
<path d="M71.0552 43.1268C71.5865 43.1268 72.0172 42.6961 72.0172 42.1648C72.0172 41.6335 71.5865 41.2028 71.0552 41.2028C70.5239 41.2028 70.0932 41.6335 70.0932 42.1648C70.0932 42.6961 70.5239 43.1268 71.0552 43.1268Z" fill="black"/>
<path d="M73.4602 43.1268C73.9915 43.1268 74.4222 42.6961 74.4222 42.1648C74.4222 41.6335 73.9915 41.2028 73.4602 41.2028C72.9289 41.2028 72.4982 41.6335 72.4982 42.1648C72.4982 42.6961 72.9289 43.1268 73.4602 43.1268Z" fill="black"/>
<path d="M13.3358 45.5316C13.8671 45.5316 14.2978 45.1009 14.2978 44.5696C14.2978 44.0383 13.8671 43.6076 13.3358 43.6076C12.8045 43.6076 12.3738 44.0383 12.3738 44.5696C12.3738 45.1009 12.8045 45.5316 13.3358 45.5316Z" fill="black"/>
<path d="M15.7407 45.5316C16.272 45.5316 16.7027 45.1009 16.7027 44.5696C16.7027 44.0383 16.272 43.6076 15.7407 43.6076C15.2094 43.6076 14.7787 44.0383 14.7787 44.5696C14.7787 45.1009 15.2094 45.5316 15.7407 45.5316Z" fill="black"/>
<path d="M20.5507 45.5316C21.082 45.5316 21.5127 45.1009 21.5127 44.5696C21.5127 44.0383 21.082 43.6076 20.5507 43.6076C20.0194 43.6076 19.5887 44.0383 19.5887 44.5696C19.5887 45.1009 20.0194 45.5316 20.5507 45.5316Z" fill="black"/>
<path d="M25.3606 45.5316C25.8919 45.5316 26.3226 45.1009 26.3226 44.5696C26.3226 44.0383 25.8919 43.6076 25.3606 43.6076C24.8293 43.6076 24.3987 44.0383 24.3987 44.5696C24.3987 45.1009 24.8293 45.5316 25.3606 45.5316Z" fill="black"/>
<path d="M27.7656 45.5316C28.2969 45.5316 28.7276 45.1009 28.7276 44.5696C28.7276 44.0383 28.2969 43.6076 27.7656 43.6076C27.2343 43.6076 26.8036 44.0383 26.8036 44.5696C26.8036 45.1009 27.2343 45.5316 27.7656 45.5316Z" fill="black"/>
<path d="M30.1706 45.5316C30.7019 45.5316 31.1326 45.1009 31.1326 44.5696C31.1326 44.0383 30.7019 43.6076 30.1706 43.6076C29.6393 43.6076 29.2086 44.0383 29.2086 44.5696C29.2086 45.1009 29.6393 45.5316 30.1706 45.5316Z" fill="black"/>
<path d="M34.9805 45.5316C35.5118 45.5316 35.9425 45.1009 35.9425 44.5696C35.9425 44.0383 35.5118 43.6076 34.9805 43.6076C34.4492 43.6076 34.0185 44.0383 34.0185 44.5696C34.0185 45.1009 34.4492 45.5316 34.9805 45.5316Z" fill="black"/>
<path d="M47.0054 45.5316C47.5367 45.5316 47.9674 45.1009 47.9674 44.5696C47.9674 44.0383 47.5367 43.6076 47.0054 43.6076C46.4741 43.6076 46.0434 44.0383 46.0434 44.5696C46.0434 45.1009 46.4741 45.5316 47.0054 45.5316Z" fill="black"/>
<path d="M54.2204 45.5316C54.7517 45.5316 55.1824 45.1009 55.1824 44.5696C55.1824 44.0383 54.7517 43.6076 54.2204 43.6076C53.6891 43.6076 53.2584 44.0383 53.2584 44.5696C53.2584 45.1009 53.6891 45.5316 54.2204 45.5316Z" fill="black"/>
<path d="M61.4353 45.5316C61.9666 45.5316 62.3973 45.1009 62.3973 44.5696C62.3973 44.0383 61.9666 43.6076 61.4353 43.6076C60.904 43.6076 60.4733 44.0383 60.4733 44.5696C60.4733 45.1009 60.904 45.5316 61.4353 45.5316Z" fill="black"/>
<path d="M63.8403 45.5316C64.3716 45.5316 64.8023 45.1009 64.8023 44.5696C64.8023 44.0383 64.3716 43.6076 63.8403 43.6076C63.309 43.6076 62.8783 44.0383 62.8783 44.5696C62.8783 45.1009 63.309 45.5316 63.8403 45.5316Z" fill="black"/>
<path d="M6.12077 47.9363C6.65207 47.9363 7.08277 47.5056 7.08277 46.9743C7.08277 46.443 6.65207 46.0123 6.12077 46.0123C5.58948 46.0123 5.15878 46.443 5.15878 46.9743C5.15878 47.5056 5.58948 47.9363 6.12077 47.9363Z" fill="black"/>
<path d="M10.9307 47.9363C11.462 47.9363 11.8927 47.5056 11.8927 46.9743C11.8927 46.443 11.462 46.0123 10.9307 46.0123C10.3994 46.0123 9.96875 46.443 9.96875 46.9743C9.96875 47.5056 10.3994 47.9363 10.9307 47.9363Z" fill="black"/>
<path d="M13.3358 47.9363C13.8671 47.9363 14.2978 47.5056 14.2978 46.9743C14.2978 46.443 13.8671 46.0123 13.3358 46.0123C12.8045 46.0123 12.3738 46.443 12.3738 46.9743C12.3738 47.5056 12.8045 47.9363 13.3358 47.9363Z" fill="black"/>
<path d="M15.7407 47.9363C16.272 47.9363 16.7027 47.5056 16.7027 46.9743C16.7027 46.443 16.272 46.0123 15.7407 46.0123C15.2094 46.0123 14.7787 46.443 14.7787 46.9743C14.7787 47.5056 15.2094 47.9363 15.7407 47.9363Z" fill="black"/>
<path d="M22.9557 47.9363C23.487 47.9363 23.9177 47.5056 23.9177 46.9743C23.9177 46.443 23.487 46.0123 22.9557 46.0123C22.4244 46.0123 21.9937 46.443 21.9937 46.9743C21.9937 47.5056 22.4244 47.9363 22.9557 47.9363Z" fill="black"/>
<path d="M25.3606 47.9363C25.8919 47.9363 26.3226 47.5056 26.3226 46.9743C26.3226 46.443 25.8919 46.0123 25.3606 46.0123C24.8293 46.0123 24.3987 46.443 24.3987 46.9743C24.3987 47.5056 24.8293 47.9363 25.3606 47.9363Z" fill="black"/>
<path d="M32.5755 47.9363C33.1068 47.9363 33.5375 47.5056 33.5375 46.9743C33.5375 46.443 33.1068 46.0123 32.5755 46.0123C32.0443 46.0123 31.6136 46.443 31.6136 46.9743C31.6136 47.5056 32.0443 47.9363 32.5755 47.9363Z" fill="black"/>
<path d="M34.9805 47.9363C35.5118 47.9363 35.9425 47.5056 35.9425 46.9743C35.9425 46.443 35.5118 46.0123 34.9805 46.0123C34.4492 46.0123 34.0185 46.443 34.0185 46.9743C34.0185 47.5056 34.4492 47.9363 34.9805 47.9363Z" fill="black"/>
<path d="M37.3855 47.9363C37.9168 47.9363 38.3475 47.5056 38.3475 46.9743C38.3475 46.443 37.9168 46.0123 37.3855 46.0123C36.8542 46.0123 36.4235 46.443 36.4235 46.9743C36.4235 47.5056 36.8542 47.9363 37.3855 47.9363Z" fill="black"/>
<path d="M39.7905 47.9363C40.3218 47.9363 40.7525 47.5056 40.7525 46.9743C40.7525 46.443 40.3218 46.0123 39.7905 46.0123C39.2592 46.0123 38.8285 46.443 38.8285 46.9743C38.8285 47.5056 39.2592 47.9363 39.7905 47.9363Z" fill="black"/>
<path d="M42.1955 47.9363C42.7268 47.9363 43.1575 47.5056 43.1575 46.9743C43.1575 46.443 42.7268 46.0123 42.1955 46.0123C41.6642 46.0123 41.2335 46.443 41.2335 46.9743C41.2335 47.5056 41.6642 47.9363 42.1955 47.9363Z" fill="black"/>
<path d="M56.6254 47.9363C57.1566 47.9363 57.5873 47.5056 57.5873 46.9743C57.5873 46.443 57.1566 46.0123 56.6254 46.0123C56.0941 46.0123 55.6634 46.443 55.6634 46.9743C55.6634 47.5056 56.0941 47.9363 56.6254 47.9363Z" fill="black"/>
<path d="M61.4353 47.9363C61.9666 47.9363 62.3973 47.5056 62.3973 46.9743C62.3973 46.443 61.9666 46.0123 61.4353 46.0123C60.904 46.0123 60.4733 46.443 60.4733 46.9743C60.4733 47.5056 60.904 47.9363 61.4353 47.9363Z" fill="black"/>
<path d="M66.2453 47.9363C66.7765 47.9363 67.2072 47.5056 67.2072 46.9743C67.2072 46.443 66.7765 46.0123 66.2453 46.0123C65.714 46.0123 65.2833 46.443 65.2833 46.9743C65.2833 47.5056 65.714 47.9363 66.2453 47.9363Z" fill="black"/>
<path d="M71.0552 47.9363C71.5865 47.9363 72.0172 47.5056 72.0172 46.9743C72.0172 46.443 71.5865 46.0123 71.0552 46.0123C70.5239 46.0123 70.0932 46.443 70.0932 46.9743C70.0932 47.5056 70.5239 47.9363 71.0552 47.9363Z" fill="black"/>
<path d="M73.4602 47.9363C73.9915 47.9363 74.4222 47.5056 74.4222 46.9743C74.4222 46.443 73.9915 46.0123 73.4602 46.0123C72.9289 46.0123 72.4982 46.443 72.4982 46.9743C72.4982 47.5056 72.9289 47.9363 73.4602 47.9363Z" fill="black"/>
<path d="M6.12077 50.3415C6.65207 50.3415 7.08277 49.9108 7.08277 49.3795C7.08277 48.8482 6.65207 48.4175 6.12077 48.4175C5.58948 48.4175 5.15878 48.8482 5.15878 49.3795C5.15878 49.9108 5.58948 50.3415 6.12077 50.3415Z" fill="black"/>
<path d="M13.3358 50.3415C13.8671 50.3415 14.2978 49.9108 14.2978 49.3795C14.2978 48.8482 13.8671 48.4175 13.3358 48.4175C12.8045 48.4175 12.3738 48.8482 12.3738 49.3795C12.3738 49.9108 12.8045 50.3415 13.3358 50.3415Z" fill="black"/>
<path d="M15.7407 50.3415C16.272 50.3415 16.7027 49.9108 16.7027 49.3795C16.7027 48.8482 16.272 48.4175 15.7407 48.4175C15.2094 48.4175 14.7787 48.8482 14.7787 49.3795C14.7787 49.9108 15.2094 50.3415 15.7407 50.3415Z" fill="black"/>
<path d="M18.1457 50.3415C18.677 50.3415 19.1077 49.9108 19.1077 49.3795C19.1077 48.8482 18.677 48.4175 18.1457 48.4175C17.6144 48.4175 17.1837 48.8482 17.1837 49.3795C17.1837 49.9108 17.6144 50.3415 18.1457 50.3415Z" fill="black"/>
<path d="M20.5507 50.3415C21.082 50.3415 21.5127 49.9108 21.5127 49.3795C21.5127 48.8482 21.082 48.4175 20.5507 48.4175C20.0194 48.4175 19.5887 48.8482 19.5887 49.3795C19.5887 49.9108 20.0194 50.3415 20.5507 50.3415Z" fill="black"/>
<path d="M22.9557 50.3415C23.487 50.3415 23.9177 49.9108 23.9177 49.3795C23.9177 48.8482 23.487 48.4175 22.9557 48.4175C22.4244 48.4175 21.9937 48.8482 21.9937 49.3795C21.9937 49.9108 22.4244 50.3415 22.9557 50.3415Z" fill="black"/>
<path d="M27.7656 50.3415C28.2969 50.3415 28.7276 49.9108 28.7276 49.3795C28.7276 48.8482 28.2969 48.4175 27.7656 48.4175C27.2343 48.4175 26.8036 48.8482 26.8036 49.3795C26.8036 49.9108 27.2343 50.3415 27.7656 50.3415Z" fill="black"/>
<path d="M30.1706 50.3415C30.7019 50.3415 31.1326 49.9108 31.1326 49.3795C31.1326 48.8482 30.7019 48.4175 30.1706 48.4175C29.6393 48.4175 29.2086 48.8482 29.2086 49.3795C29.2086 49.9108 29.6393 50.3415 30.1706 50.3415Z" fill="black"/>
<path d="M32.5755 50.3415C33.1068 50.3415 33.5375 49.9108 33.5375 49.3795C33.5375 48.8482 33.1068 48.4175 32.5755 48.4175C32.0443 48.4175 31.6136 48.8482 31.6136 49.3795C31.6136 49.9108 32.0443 50.3415 32.5755 50.3415Z" fill="black"/>
<path d="M37.3855 50.3415C37.9168 50.3415 38.3475 49.9108 38.3475 49.3795C38.3475 48.8482 37.9168 48.4175 37.3855 48.4175C36.8542 48.4175 36.4235 48.8482 36.4235 49.3795C36.4235 49.9108 36.8542 50.3415 37.3855 50.3415Z" fill="black"/>
<path d="M39.7905 50.3415C40.3218 50.3415 40.7525 49.9108 40.7525 49.3795C40.7525 48.8482 40.3218 48.4175 39.7905 48.4175C39.2592 48.4175 38.8285 48.8482 38.8285 49.3795C38.8285 49.9108 39.2592 50.3415 39.7905 50.3415Z" fill="black"/>
<path d="M42.1955 50.3415C42.7268 50.3415 43.1575 49.9108 43.1575 49.3795C43.1575 48.8482 42.7268 48.4175 42.1955 48.4175C41.6642 48.4175 41.2335 48.8482 41.2335 49.3795C41.2335 49.9108 41.6642 50.3415 42.1955 50.3415Z" fill="black"/>
<path d="M47.0054 50.3415C47.5367 50.3415 47.9674 49.9108 47.9674 49.3795C47.9674 48.8482 47.5367 48.4175 47.0054 48.4175C46.4741 48.4175 46.0434 48.8482 46.0434 49.3795C46.0434 49.9108 46.4741 50.3415 47.0054 50.3415Z" fill="black"/>
<path d="M49.4104 50.3415C49.9417 50.3415 50.3724 49.9108 50.3724 49.3795C50.3724 48.8482 49.9417 48.4175 49.4104 48.4175C48.8791 48.4175 48.4484 48.8482 48.4484 49.3795C48.4484 49.9108 48.8791 50.3415 49.4104 50.3415Z" fill="black"/>
<path d="M66.2453 50.3415C66.7765 50.3415 67.2072 49.9108 67.2072 49.3795C67.2072 48.8482 66.7765 48.4175 66.2453 48.4175C65.714 48.4175 65.2833 48.8482 65.2833 49.3795C65.2833 49.9108 65.714 50.3415 66.2453 50.3415Z" fill="black"/>
<path d="M68.6503 50.3415C69.1816 50.3415 69.6123 49.9108 69.6123 49.3795C69.6123 48.8482 69.1816 48.4175 68.6503 48.4175C68.119 48.4175 67.6883 48.8482 67.6883 49.3795C67.6883 49.9108 68.119 50.3415 68.6503 50.3415Z" fill="black"/>
<path d="M73.4602 50.3415C73.9915 50.3415 74.4222 49.9108 74.4222 49.3795C74.4222 48.8482 73.9915 48.4175 73.4602 48.4175C72.9289 48.4175 72.4982 48.8482 72.4982 49.3795C72.4982 49.9108 72.9289 50.3415 73.4602 50.3415Z" fill="black"/>
<path d="M6.12077 52.7462C6.65207 52.7462 7.08277 52.3156 7.08277 51.7843C7.08277 51.253 6.65207 50.8223 6.12077 50.8223C5.58948 50.8223 5.15878 51.253 5.15878 51.7843C5.15878 52.3156 5.58948 52.7462 6.12077 52.7462Z" fill="black"/>
<path d="M13.3358 52.7462C13.8671 52.7462 14.2978 52.3156 14.2978 51.7843C14.2978 51.253 13.8671 50.8223 13.3358 50.8223C12.8045 50.8223 12.3738 51.253 12.3738 51.7843C12.3738 52.3156 12.8045 52.7462 13.3358 52.7462Z" fill="black"/>
<path d="M22.9557 52.7462C23.487 52.7462 23.9177 52.3156 23.9177 51.7843C23.9177 51.253 23.487 50.8223 22.9557 50.8223C22.4244 50.8223 21.9937 51.253 21.9937 51.7843C21.9937 52.3156 22.4244 52.7462 22.9557 52.7462Z" fill="black"/>
<path d="M34.9805 52.7462C35.5118 52.7462 35.9425 52.3156 35.9425 51.7843C35.9425 51.253 35.5118 50.8223 34.9805 50.8223C34.4492 50.8223 34.0185 51.253 34.0185 51.7843C34.0185 52.3156 34.4492 52.7462 34.9805 52.7462Z" fill="black"/>
<path d="M37.3855 52.7462C37.9168 52.7462 38.3475 52.3156 38.3475 51.7843C38.3475 51.253 37.9168 50.8223 37.3855 50.8223C36.8542 50.8223 36.4235 51.253 36.4235 51.7843C36.4235 52.3156 36.8542 52.7462 37.3855 52.7462Z" fill="black"/>
<path d="M42.1955 52.7462C42.7268 52.7462 43.1575 52.3156 43.1575 51.7843C43.1575 51.253 42.7268 50.8223 42.1955 50.8223C41.6642 50.8223 41.2335 51.253 41.2335 51.7843C41.2335 52.3156 41.6642 52.7462 42.1955 52.7462Z" fill="black"/>
<path d="M51.8154 52.7462C52.3467 52.7462 52.7774 52.3156 52.7774 51.7843C52.7774 51.253 52.3467 50.8223 51.8154 50.8223C51.2841 50.8223 50.8534 51.253 50.8534 51.7843C50.8534 52.3156 51.2841 52.7462 51.8154 52.7462Z" fill="black"/>
<path d="M54.2204 52.7462C54.7517 52.7462 55.1824 52.3156 55.1824 51.7843C55.1824 51.253 54.7517 50.8223 54.2204 50.8223C53.6891 50.8223 53.2584 51.253 53.2584 51.7843C53.2584 52.3156 53.6891 52.7462 54.2204 52.7462Z" fill="black"/>
<path d="M56.6254 52.7462C57.1566 52.7462 57.5873 52.3156 57.5873 51.7843C57.5873 51.253 57.1566 50.8223 56.6254 50.8223C56.0941 50.8223 55.6634 51.253 55.6634 51.7843C55.6634 52.3156 56.0941 52.7462 56.6254 52.7462Z" fill="black"/>
<path d="M59.0303 52.7462C59.5616 52.7462 59.9923 52.3156 59.9923 51.7843C59.9923 51.253 59.5616 50.8223 59.0303 50.8223C58.499 50.8223 58.0683 51.253 58.0683 51.7843C58.0683 52.3156 58.499 52.7462 59.0303 52.7462Z" fill="black"/>
<path d="M61.4353 52.7462C61.9666 52.7462 62.3973 52.3156 62.3973 51.7843C62.3973 51.253 61.9666 50.8223 61.4353 50.8223C60.904 50.8223 60.4733 51.253 60.4733 51.7843C60.4733 52.3156 60.904 52.7462 61.4353 52.7462Z" fill="black"/>
<path d="M63.8403 52.7462C64.3716 52.7462 64.8023 52.3156 64.8023 51.7843C64.8023 51.253 64.3716 50.8223 63.8403 50.8223C63.309 50.8223 62.8783 51.253 62.8783 51.7843C62.8783 52.3156 63.309 52.7462 63.8403 52.7462Z" fill="black"/>
<path d="M6.12077 55.1515C6.65207 55.1515 7.08277 54.7208 7.08277 54.1895C7.08277 53.6582 6.65207 53.2275 6.12077 53.2275C5.58948 53.2275 5.15878 53.6582 5.15878 54.1895C5.15878 54.7208 5.58948 55.1515 6.12077 55.1515Z" fill="black"/>
<path d="M10.9307 55.1515C11.462 55.1515 11.8927 54.7208 11.8927 54.1895C11.8927 53.6582 11.462 53.2275 10.9307 53.2275C10.3994 53.2275 9.96875 53.6582 9.96875 54.1895C9.96875 54.7208 10.3994 55.1515 10.9307 55.1515Z" fill="black"/>
<path d="M15.7407 55.1515C16.272 55.1515 16.7027 54.7208 16.7027 54.1895C16.7027 53.6582 16.272 53.2275 15.7407 53.2275C15.2094 53.2275 14.7787 53.6582 14.7787 54.1895C14.7787 54.7208 15.2094 55.1515 15.7407 55.1515Z" fill="black"/>
<path d="M18.1457 55.1515C18.677 55.1515 19.1077 54.7208 19.1077 54.1895C19.1077 53.6582 18.677 53.2275 18.1457 53.2275C17.6144 53.2275 17.1837 53.6582 17.1837 54.1895C17.1837 54.7208 17.6144 55.1515 18.1457 55.1515Z" fill="black"/>
<path d="M20.5507 55.1515C21.082 55.1515 21.5127 54.7208 21.5127 54.1895C21.5127 53.6582 21.082 53.2275 20.5507 53.2275C20.0194 53.2275 19.5887 53.6582 19.5887 54.1895C19.5887 54.7208 20.0194 55.1515 20.5507 55.1515Z" fill="black"/>
<path d="M25.3606 55.1515C25.8919 55.1515 26.3226 54.7208 26.3226 54.1895C26.3226 53.6582 25.8919 53.2275 25.3606 53.2275C24.8293 53.2275 24.3987 53.6582 24.3987 54.1895C24.3987 54.7208 24.8293 55.1515 25.3606 55.1515Z" fill="black"/>
<path d="M27.7656 55.1515C28.2969 55.1515 28.7276 54.7208 28.7276 54.1895C28.7276 53.6582 28.2969 53.2275 27.7656 53.2275C27.2343 53.2275 26.8036 53.6582 26.8036 54.1895C26.8036 54.7208 27.2343 55.1515 27.7656 55.1515Z" fill="black"/>
<path d="M32.5755 55.1515C33.1068 55.1515 33.5375 54.7208 33.5375 54.1895C33.5375 53.6582 33.1068 53.2275 32.5755 53.2275C32.0443 53.2275 31.6136 53.6582 31.6136 54.1895C31.6136 54.7208 32.0443 55.1515 32.5755 55.1515Z" fill="black"/>
<path d="M39.7905 55.1515C40.3218 55.1515 40.7525 54.7208 40.7525 54.1895C40.7525 53.6582 40.3218 53.2275 39.7905 53.2275C39.2592 53.2275 38.8285 53.6582 38.8285 54.1895C38.8285 54.7208 39.2592 55.1515 39.7905 55.1515Z" fill="black"/>
<path d="M42.1955 55.1515C42.7268 55.1515 43.1575 54.7208 43.1575 54.1895C43.1575 53.6582 42.7268 53.2275 42.1955 53.2275C41.6642 53.2275 41.2335 53.6582 41.2335 54.1895C41.2335 54.7208 41.6642 55.1515 42.1955 55.1515Z" fill="black"/>
<path d="M49.4104 55.1515C49.9417 55.1515 50.3724 54.7208 50.3724 54.1895C50.3724 53.6582 49.9417 53.2275 49.4104 53.2275C48.8791 53.2275 48.4484 53.6582 48.4484 54.1895C48.4484 54.7208 48.8791 55.1515 49.4104 55.1515Z" fill="black"/>
<path d="M54.2204 55.1515C54.7517 55.1515 55.1824 54.7208 55.1824 54.1895C55.1824 53.6582 54.7517 53.2275 54.2204 53.2275C53.6891 53.2275 53.2584 53.6582 53.2584 54.1895C53.2584 54.7208 53.6891 55.1515 54.2204 55.1515Z" fill="black"/>
<path d="M56.6254 55.1515C57.1566 55.1515 57.5873 54.7208 57.5873 54.1895C57.5873 53.6582 57.1566 53.2275 56.6254 53.2275C56.0941 53.2275 55.6634 53.6582 55.6634 54.1895C55.6634 54.7208 56.0941 55.1515 56.6254 55.1515Z" fill="black"/>
<path d="M59.0303 55.1515C59.5616 55.1515 59.9923 54.7208 59.9923 54.1895C59.9923 53.6582 59.5616 53.2275 59.0303 53.2275C58.499 53.2275 58.0683 53.6582 58.0683 54.1895C58.0683 54.7208 58.499 55.1515 59.0303 55.1515Z" fill="black"/>
<path d="M61.4353 55.1515C61.9666 55.1515 62.3973 54.7208 62.3973 54.1895C62.3973 53.6582 61.9666 53.2275 61.4353 53.2275C60.904 53.2275 60.4733 53.6582 60.4733 54.1895C60.4733 54.7208 60.904 55.1515 61.4353 55.1515Z" fill="black"/>
<path d="M63.8403 55.1515C64.3716 55.1515 64.8023 54.7208 64.8023 54.1895C64.8023 53.6582 64.3716 53.2275 63.8403 53.2275C63.309 53.2275 62.8783 53.6582 62.8783 54.1895C62.8783 54.7208 63.309 55.1515 63.8403 55.1515Z" fill="black"/>
<path d="M66.2453 55.1515C66.7765 55.1515 67.2072 54.7208 67.2072 54.1895C67.2072 53.6582 66.7765 53.2275 66.2453 53.2275C65.714 53.2275 65.2833 53.6582 65.2833 54.1895C65.2833 54.7208 65.714 55.1515 66.2453 55.1515Z" fill="black"/>
<path d="M68.6503 55.1515C69.1816 55.1515 69.6123 54.7208 69.6123 54.1895C69.6123 53.6582 69.1816 53.2275 68.6503 53.2275C68.119 53.2275 67.6883 53.6582 67.6883 54.1895C67.6883 54.7208 68.119 55.1515 68.6503 55.1515Z" fill="black"/>
<path d="M71.0552 55.1515C71.5865 55.1515 72.0172 54.7208 72.0172 54.1895C72.0172 53.6582 71.5865 53.2275 71.0552 53.2275C70.5239 53.2275 70.0932 53.6582 70.0932 54.1895C70.0932 54.7208 70.5239 55.1515 71.0552 55.1515Z" fill="black"/>
<path d="M25.3606 57.5562C25.8919 57.5562 26.3226 57.1255 26.3226 56.5943C26.3226 56.063 25.8919 55.6323 25.3606 55.6323C24.8293 55.6323 24.3987 56.063 24.3987 56.5943C24.3987 57.1255 24.8293 57.5562 25.3606 57.5562Z" fill="black"/>
<path d="M30.1706 57.5562C30.7019 57.5562 31.1326 57.1255 31.1326 56.5943C31.1326 56.063 30.7019 55.6323 30.1706 55.6323C29.6393 55.6323 29.2086 56.063 29.2086 56.5943C29.2086 57.1255 29.6393 57.5562 30.1706 57.5562Z" fill="black"/>
<path d="M34.9805 57.5562C35.5118 57.5562 35.9425 57.1255 35.9425 56.5943C35.9425 56.063 35.5118 55.6323 34.9805 55.6323C34.4492 55.6323 34.0185 56.063 34.0185 56.5943C34.0185 57.1255 34.4492 57.5562 34.9805 57.5562Z" fill="black"/>
<path d="M42.1955 57.5562C42.7268 57.5562 43.1575 57.1255 43.1575 56.5943C43.1575 56.063 42.7268 55.6323 42.1955 55.6323C41.6642 55.6323 41.2335 56.063 41.2335 56.5943C41.2335 57.1255 41.6642 57.5562 42.1955 57.5562Z" fill="black"/>
<path d="M54.2204 57.5562C54.7517 57.5562 55.1824 57.1255 55.1824 56.5943C55.1824 56.063 54.7517 55.6323 54.2204 55.6323C53.6891 55.6323 53.2584 56.063 53.2584 56.5943C53.2584 57.1255 53.6891 57.5562 54.2204 57.5562Z" fill="black"/>
<path d="M63.8403 57.5562C64.3716 57.5562 64.8023 57.1255 64.8023 56.5943C64.8023 56.063 64.3716 55.6323 63.8403 55.6323C63.309 55.6323 62.8783 56.063 62.8783 56.5943C62.8783 57.1255 63.309 57.5562 63.8403 57.5562Z" fill="black"/>
<path d="M71.0552 57.5562C71.5865 57.5562 72.0172 57.1255 72.0172 56.5943C72.0172 56.063 71.5865 55.6323 71.0552 55.6323C70.5239 55.6323 70.0932 56.063 70.0932 56.5943C70.0932 57.1255 70.5239 57.5562 71.0552 57.5562Z" fill="black"/>
<path d="M27.7656 59.9612C28.2969 59.9612 28.7276 59.5305 28.7276 58.9992C28.7276 58.4679 28.2969 58.0372 27.7656 58.0372C27.2343 58.0372 26.8036 58.4679 26.8036 58.9992C26.8036 59.5305 27.2343 59.9612 27.7656 59.9612Z" fill="black"/>
<path d="M42.1955 59.9612C42.7268 59.9612 43.1575 59.5305 43.1575 58.9992C43.1575 58.4679 42.7268 58.0372 42.1955 58.0372C41.6642 58.0372 41.2335 58.4679 41.2335 58.9992C41.2335 59.5305 41.6642 59.9612 42.1955 59.9612Z" fill="black"/>
<path d="M44.6005 59.9612C45.1318 59.9612 45.5625 59.5305 45.5625 58.9992C45.5625 58.4679 45.1318 58.0372 44.6005 58.0372C44.0692 58.0372 43.6385 58.4679 43.6385 58.9992C43.6385 59.5305 44.0692 59.9612 44.6005 59.9612Z" fill="black"/>
<path d="M47.0054 59.9612C47.5367 59.9612 47.9674 59.5305 47.9674 58.9992C47.9674 58.4679 47.5367 58.0372 47.0054 58.0372C46.4741 58.0372 46.0434 58.4679 46.0434 58.9992C46.0434 59.5305 46.4741 59.9612 47.0054 59.9612Z" fill="black"/>
<path d="M51.8154 59.9612C52.3467 59.9612 52.7774 59.5305 52.7774 58.9992C52.7774 58.4679 52.3467 58.0372 51.8154 58.0372C51.2841 58.0372 50.8534 58.4679 50.8534 58.9992C50.8534 59.5305 51.2841 59.9612 51.8154 59.9612Z" fill="black"/>
<path d="M54.2204 59.9612C54.7517 59.9612 55.1824 59.5305 55.1824 58.9992C55.1824 58.4679 54.7517 58.0372 54.2204 58.0372C53.6891 58.0372 53.2584 58.4679 53.2584 58.9992C53.2584 59.5305 53.6891 59.9612 54.2204 59.9612Z" fill="black"/>
<path d="M59.0303 59.9612C59.5616 59.9612 59.9923 59.5305 59.9923 58.9992C59.9923 58.4679 59.5616 58.0372 59.0303 58.0372C58.499 58.0372 58.0683 58.4679 58.0683 58.9992C58.0683 59.5305 58.499 59.9612 59.0303 59.9612Z" fill="black"/>
<path d="M63.8403 59.9612C64.3716 59.9612 64.8023 59.5305 64.8023 58.9992C64.8023 58.4679 64.3716 58.0372 63.8403 58.0372C63.309 58.0372 62.8783 58.4679 62.8783 58.9992C62.8783 59.5305 63.309 59.9612 63.8403 59.9612Z" fill="black"/>
<path d="M66.2453 59.9612C66.7765 59.9612 67.2072 59.5305 67.2072 58.9992C67.2072 58.4679 66.7765 58.0372 66.2453 58.0372C65.714 58.0372 65.2833 58.4679 65.2833 58.9992C65.2833 59.5305 65.714 59.9612 66.2453 59.9612Z" fill="black"/>
<path d="M68.6503 59.9612C69.1816 59.9612 69.6123 59.5305 69.6123 58.9992C69.6123 58.4679 69.1816 58.0372 68.6503 58.0372C68.119 58.0372 67.6883 58.4679 67.6883 58.9992C67.6883 59.5305 68.119 59.9612 68.6503 59.9612Z" fill="black"/>
<path d="M25.3606 62.3666C25.8919 62.3666 26.3226 61.9359 26.3226 61.4046C26.3226 60.8733 25.8919 60.4426 25.3606 60.4426C24.8293 60.4426 24.3987 60.8733 24.3987 61.4046C24.3987 61.9359 24.8293 62.3666 25.3606 62.3666Z" fill="black"/>
<path d="M30.1706 62.3666C30.7019 62.3666 31.1326 61.9359 31.1326 61.4046C31.1326 60.8733 30.7019 60.4426 30.1706 60.4426C29.6393 60.4426 29.2086 60.8733 29.2086 61.4046C29.2086 61.9359 29.6393 62.3666 30.1706 62.3666Z" fill="black"/>
<path d="M32.5755 62.3666C33.1068 62.3666 33.5375 61.9359 33.5375 61.4046C33.5375 60.8733 33.1068 60.4426 32.5755 60.4426C32.0443 60.4426 31.6136 60.8733 31.6136 61.4046C31.6136 61.9359 32.0443 62.3666 32.5755 62.3666Z" fill="black"/>
<path d="M34.9805 62.3666C35.5118 62.3666 35.9425 61.9359 35.9425 61.4046C35.9425 60.8733 35.5118 60.4426 34.9805 60.4426C34.4492 60.4426 34.0185 60.8733 34.0185 61.4046C34.0185 61.9359 34.4492 62.3666 34.9805 62.3666Z" fill="black"/>
<path d="M39.7905 62.3666C40.3218 62.3666 40.7525 61.9359 40.7525 61.4046C40.7525 60.8733 40.3218 60.4426 39.7905 60.4426C39.2592 60.4426 38.8285 60.8733 38.8285 61.4046C38.8285 61.9359 39.2592 62.3666 39.7905 62.3666Z" fill="black"/>
<path d="M49.4104 62.3666C49.9417 62.3666 50.3724 61.9359 50.3724 61.4046C50.3724 60.8733 49.9417 60.4426 49.4104 60.4426C48.8791 60.4426 48.4484 60.8733 48.4484 61.4046C48.4484 61.9359 48.8791 62.3666 49.4104 62.3666Z" fill="black"/>
<path d="M51.8154 62.3666C52.3467 62.3666 52.7774 61.9359 52.7774 61.4046C52.7774 60.8733 52.3467 60.4426 51.8154 60.4426C51.2841 60.4426 50.8534 60.8733 50.8534 61.4046C50.8534 61.9359 51.2841 62.3666 51.8154 62.3666Z" fill="black"/>
<path d="M54.2204 62.3666C54.7517 62.3666 55.1824 61.9359 55.1824 61.4046C55.1824 60.8733 54.7517 60.4426 54.2204 60.4426C53.6891 60.4426 53.2584 60.8733 53.2584 61.4046C53.2584 61.9359 53.6891 62.3666 54.2204 62.3666Z" fill="black"/>
<path d="M63.8403 62.3666C64.3716 62.3666 64.8023 61.9359 64.8023 61.4046C64.8023 60.8733 64.3716 60.4426 63.8403 60.4426C63.309 60.4426 62.8783 60.8733 62.8783 61.4046C62.8783 61.9359 63.309 62.3666 63.8403 62.3666Z" fill="black"/>
<path d="M68.6503 62.3666C69.1816 62.3666 69.6123 61.9359 69.6123 61.4046C69.6123 60.8733 69.1816 60.4426 68.6503 60.4426C68.119 60.4426 67.6883 60.8733 67.6883 61.4046C67.6883 61.9359 68.119 62.3666 68.6503 62.3666Z" fill="black"/>
<path d="M71.0552 62.3666C71.5865 62.3666 72.0172 61.9359 72.0172 61.4046C72.0172 60.8733 71.5865 60.4426 71.0552 60.4426C70.5239 60.4426 70.0932 60.8733 70.0932 61.4046C70.0932 61.9359 70.5239 62.3666 71.0552 62.3666Z" fill="black"/>
<path d="M73.4602 62.3666C73.9915 62.3666 74.4222 61.9359 74.4222 61.4046C74.4222 60.8733 73.9915 60.4426 73.4602 60.4426C72.9289 60.4426 72.4982 60.8733 72.4982 61.4046C72.4982 61.9359 72.9289 62.3666 73.4602 62.3666Z" fill="black"/>
<path d="M25.3606 64.7714C25.8919 64.7714 26.3226 64.3407 26.3226 63.8094C26.3226 63.2781 25.8919 62.8474 25.3606 62.8474C24.8293 62.8474 24.3987 63.2781 24.3987 63.8094C24.3987 64.3407 24.8293 64.7714 25.3606 64.7714Z" fill="black"/>
<path d="M32.5755 64.7714C33.1068 64.7714 33.5375 64.3407 33.5375 63.8094C33.5375 63.2781 33.1068 62.8474 32.5755 62.8474C32.0443 62.8474 31.6136 63.2781 31.6136 63.8094C31.6136 64.3407 32.0443 64.7714 32.5755 64.7714Z" fill="black"/>
<path d="M42.1955 64.7714C42.7268 64.7714 43.1575 64.3407 43.1575 63.8094C43.1575 63.2781 42.7268 62.8474 42.1955 62.8474C41.6642 62.8474 41.2335 63.2781 41.2335 63.8094C41.2335 64.3407 41.6642 64.7714 42.1955 64.7714Z" fill="black"/>
<path d="M44.6005 64.7714C45.1318 64.7714 45.5625 64.3407 45.5625 63.8094C45.5625 63.2781 45.1318 62.8474 44.6005 62.8474C44.0692 62.8474 43.6385 63.2781 43.6385 63.8094C43.6385 64.3407 44.0692 64.7714 44.6005 64.7714Z" fill="black"/>
<path d="M47.0054 64.7714C47.5367 64.7714 47.9674 64.3407 47.9674 63.8094C47.9674 63.2781 47.5367 62.8474 47.0054 62.8474C46.4741 62.8474 46.0434 63.2781 46.0434 63.8094C46.0434 64.3407 46.4741 64.7714 47.0054 64.7714Z" fill="black"/>
<path d="M51.8154 64.7714C52.3467 64.7714 52.7774 64.3407 52.7774 63.8094C52.7774 63.2781 52.3467 62.8474 51.8154 62.8474C51.2841 62.8474 50.8534 63.2781 50.8534 63.8094C50.8534 64.3407 51.2841 64.7714 51.8154 64.7714Z" fill="black"/>
<path d="M54.2204 64.7714C54.7517 64.7714 55.1824 64.3407 55.1824 63.8094C55.1824 63.2781 54.7517 62.8474 54.2204 62.8474C53.6891 62.8474 53.2584 63.2781 53.2584 63.8094C53.2584 64.3407 53.6891 64.7714 54.2204 64.7714Z" fill="black"/>
<path d="M56.6254 64.7714C57.1566 64.7714 57.5873 64.3407 57.5873 63.8094C57.5873 63.2781 57.1566 62.8474 56.6254 62.8474C56.0941 62.8474 55.6634 63.2781 55.6634 63.8094C55.6634 64.3407 56.0941 64.7714 56.6254 64.7714Z" fill="black"/>
<path d="M59.0303 64.7714C59.5616 64.7714 59.9923 64.3407 59.9923 63.8094C59.9923 63.2781 59.5616 62.8474 59.0303 62.8474C58.499 62.8474 58.0683 63.2781 58.0683 63.8094C58.0683 64.3407 58.499 64.7714 59.0303 64.7714Z" fill="black"/>
<path d="M61.4353 64.7714C61.9666 64.7714 62.3973 64.3407 62.3973 63.8094C62.3973 63.2781 61.9666 62.8474 61.4353 62.8474C60.904 62.8474 60.4733 63.2781 60.4733 63.8094C60.4733 64.3407 60.904 64.7714 61.4353 64.7714Z" fill="black"/>
<path d="M63.8403 64.7714C64.3716 64.7714 64.8023 64.3407 64.8023 63.8094C64.8023 63.2781 64.3716 62.8474 63.8403 62.8474C63.309 62.8474 62.8783 63.2781 62.8783 63.8094C62.8783 64.3407 63.309 64.7714 63.8403 64.7714Z" fill="black"/>
<path d="M68.6503 64.7714C69.1816 64.7714 69.6123 64.3407 69.6123 63.8094C69.6123 63.2781 69.1816 62.8474 68.6503 62.8474C68.119 62.8474 67.6883 63.2781 67.6883 63.8094C67.6883 64.3407 68.119 64.7714 68.6503 64.7714Z" fill="black"/>
<path d="M71.0552 64.7714C71.5865 64.7714 72.0172 64.3407 72.0172 63.8094C72.0172 63.2781 71.5865 62.8474 71.0552 62.8474C70.5239 62.8474 70.0932 63.2781 70.0932 63.8094C70.0932 64.3407 70.5239 64.7714 71.0552 64.7714Z" fill="black"/>
<path d="M73.4602 64.7714C73.9915 64.7714 74.4222 64.3407 74.4222 63.8094C74.4222 63.2781 73.9915 62.8474 73.4602 62.8474C72.9289 62.8474 72.4982 63.2781 72.4982 63.8094C72.4982 64.3407 72.9289 64.7714 73.4602 64.7714Z" fill="black"/>
<path d="M25.3606 67.1765C25.8919 67.1765 26.3226 66.7458 26.3226 66.2146C26.3226 65.6833 25.8919 65.2526 25.3606 65.2526C24.8293 65.2526 24.3987 65.6833 24.3987 66.2146C24.3987 66.7458 24.8293 67.1765 25.3606 67.1765Z" fill="black"/>
<path d="M30.1706 67.1765C30.7019 67.1765 31.1326 66.7458 31.1326 66.2146C31.1326 65.6833 30.7019 65.2526 30.1706 65.2526C29.6393 65.2526 29.2086 65.6833 29.2086 66.2146C29.2086 66.7458 29.6393 67.1765 30.1706 67.1765Z" fill="black"/>
<path d="M39.7905 67.1765C40.3218 67.1765 40.7525 66.7458 40.7525 66.2146C40.7525 65.6833 40.3218 65.2526 39.7905 65.2526C39.2592 65.2526 38.8285 65.6833 38.8285 66.2146C38.8285 66.7458 39.2592 67.1765 39.7905 67.1765Z" fill="black"/>
<path d="M42.1955 67.1765C42.7268 67.1765 43.1575 66.7458 43.1575 66.2146C43.1575 65.6833 42.7268 65.2526 42.1955 65.2526C41.6642 65.2526 41.2335 65.6833 41.2335 66.2146C41.2335 66.7458 41.6642 67.1765 42.1955 67.1765Z" fill="black"/>
<path d="M49.4104 67.1765C49.9417 67.1765 50.3724 66.7458 50.3724 66.2146C50.3724 65.6833 49.9417 65.2526 49.4104 65.2526C48.8791 65.2526 48.4484 65.6833 48.4484 66.2146C48.4484 66.7458 48.8791 67.1765 49.4104 67.1765Z" fill="black"/>
<path d="M54.2204 67.1765C54.7517 67.1765 55.1824 66.7458 55.1824 66.2146C55.1824 65.6833 54.7517 65.2526 54.2204 65.2526C53.6891 65.2526 53.2584 65.6833 53.2584 66.2146C53.2584 66.7458 53.6891 67.1765 54.2204 67.1765Z" fill="black"/>
<path d="M61.4353 67.1765C61.9666 67.1765 62.3973 66.7458 62.3973 66.2146C62.3973 65.6833 61.9666 65.2526 61.4353 65.2526C60.904 65.2526 60.4733 65.6833 60.4733 66.2146C60.4733 66.7458 60.904 67.1765 61.4353 67.1765Z" fill="black"/>
<path d="M25.3606 69.5813C25.8919 69.5813 26.3226 69.1506 26.3226 68.6193C26.3226 68.088 25.8919 67.6573 25.3606 67.6573C24.8293 67.6573 24.3987 68.088 24.3987 68.6193C24.3987 69.1506 24.8293 69.5813 25.3606 69.5813Z" fill="black"/>
<path d="M27.7656 69.5813C28.2969 69.5813 28.7276 69.1506 28.7276 68.6193C28.7276 68.088 28.2969 67.6573 27.7656 67.6573C27.2343 67.6573 26.8036 68.088 26.8036 68.6193C26.8036 69.1506 27.2343 69.5813 27.7656 69.5813Z" fill="black"/>
<path d="M32.5755 69.5813C33.1068 69.5813 33.5375 69.1506 33.5375 68.6193C33.5375 68.088 33.1068 67.6573 32.5755 67.6573C32.0443 67.6573 31.6136 68.088 31.6136 68.6193C31.6136 69.1506 32.0443 69.5813 32.5755 69.5813Z" fill="black"/>
<path d="M34.9805 69.5813C35.5118 69.5813 35.9425 69.1506 35.9425 68.6193C35.9425 68.088 35.5118 67.6573 34.9805 67.6573C34.4492 67.6573 34.0185 68.088 34.0185 68.6193C34.0185 69.1506 34.4492 69.5813 34.9805 69.5813Z" fill="black"/>
<path d="M39.7905 69.5813C40.3218 69.5813 40.7525 69.1506 40.7525 68.6193C40.7525 68.088 40.3218 67.6573 39.7905 67.6573C39.2592 67.6573 38.8285 68.088 38.8285 68.6193C38.8285 69.1506 39.2592 69.5813 39.7905 69.5813Z" fill="black"/>
<path d="M42.1955 69.5813C42.7268 69.5813 43.1575 69.1506 43.1575 68.6193C43.1575 68.088 42.7268 67.6573 42.1955 67.6573C41.6642 67.6573 41.2335 68.088 41.2335 68.6193C41.2335 69.1506 41.6642 69.5813 42.1955 69.5813Z" fill="black"/>
<path d="M44.6005 69.5813C45.1318 69.5813 45.5625 69.1506 45.5625 68.6193C45.5625 68.088 45.1318 67.6573 44.6005 67.6573C44.0692 67.6573 43.6385 68.088 43.6385 68.6193C43.6385 69.1506 44.0692 69.5813 44.6005 69.5813Z" fill="black"/>
<path d="M47.0054 69.5813C47.5367 69.5813 47.9674 69.1506 47.9674 68.6193C47.9674 68.088 47.5367 67.6573 47.0054 67.6573C46.4741 67.6573 46.0434 68.088 46.0434 68.6193C46.0434 69.1506 46.4741 69.5813 47.0054 69.5813Z" fill="black"/>
<path d="M51.8154 69.5813C52.3467 69.5813 52.7774 69.1506 52.7774 68.6193C52.7774 68.088 52.3467 67.6573 51.8154 67.6573C51.2841 67.6573 50.8534 68.088 50.8534 68.6193C50.8534 69.1506 51.2841 69.5813 51.8154 69.5813Z" fill="black"/>
<path d="M61.4353 69.5813C61.9666 69.5813 62.3973 69.1506 62.3973 68.6193C62.3973 68.088 61.9666 67.6573 61.4353 67.6573C60.904 67.6573 60.4733 68.088 60.4733 68.6193C60.4733 69.1506 60.904 69.5813 61.4353 69.5813Z" fill="black"/>
<path d="M68.6503 69.5813C69.1816 69.5813 69.6123 69.1506 69.6123 68.6193C69.6123 68.088 69.1816 67.6573 68.6503 67.6573C68.119 67.6573 67.6883 68.088 67.6883 68.6193C67.6883 69.1506 68.119 69.5813 68.6503 69.5813Z" fill="black"/>
<path d="M71.0552 69.5813C71.5865 69.5813 72.0172 69.1506 72.0172 68.6193C72.0172 68.088 71.5865 67.6573 71.0552 67.6573C70.5239 67.6573 70.0932 68.088 70.0932 68.6193C70.0932 69.1506 70.5239 69.5813 71.0552 69.5813Z" fill="black"/>
<path d="M27.7656 71.9861C28.2969 71.9861 28.7276 71.5554 28.7276 71.0241C28.7276 70.4928 28.2969 70.0621 27.7656 70.0621C27.2343 70.0621 26.8036 70.4928 26.8036 71.0241C26.8036 71.5554 27.2343 71.9861 27.7656 71.9861Z" fill="black"/>
<path d="M30.1706 71.9861C30.7019 71.9861 31.1326 71.5554 31.1326 71.0241C31.1326 70.4928 30.7019 70.0621 30.1706 70.0621C29.6393 70.0621 29.2086 70.4928 29.2086 71.0241C29.2086 71.5554 29.6393 71.9861 30.1706 71.9861Z" fill="black"/>
<path d="M34.9805 71.9861C35.5118 71.9861 35.9425 71.5554 35.9425 71.0241C35.9425 70.4928 35.5118 70.0621 34.9805 70.0621C34.4492 70.0621 34.0185 70.4928 34.0185 71.0241C34.0185 71.5554 34.4492 71.9861 34.9805 71.9861Z" fill="black"/>
<path d="M49.4104 71.9861C49.9417 71.9861 50.3724 71.5554 50.3724 71.0241C50.3724 70.4928 49.9417 70.0621 49.4104 70.0621C48.8791 70.0621 48.4484 70.4928 48.4484 71.0241C48.4484 71.5554 48.8791 71.9861 49.4104 71.9861Z" fill="black"/>
<path d="M54.2204 71.9861C54.7517 71.9861 55.1824 71.5554 55.1824 71.0241C55.1824 70.4928 54.7517 70.0621 54.2204 70.0621C53.6891 70.0621 53.2584 70.4928 53.2584 71.0241C53.2584 71.5554 53.6891 71.9861 54.2204 71.9861Z" fill="black"/>
<path d="M56.6254 71.9861C57.1566 71.9861 57.5873 71.5554 57.5873 71.0241C57.5873 70.4928 57.1566 70.0621 56.6254 70.0621C56.0941 70.0621 55.6634 70.4928 55.6634 71.0241C55.6634 71.5554 56.0941 71.9861 56.6254 71.9861Z" fill="black"/>
<path d="M66.2453 71.9861C66.7765 71.9861 67.2072 71.5554 67.2072 71.0241C67.2072 70.4928 66.7765 70.0621 66.2453 70.0621C65.714 70.0621 65.2833 70.4928 65.2833 71.0241C65.2833 71.5554 65.714 71.9861 66.2453 71.9861Z" fill="black"/>
<path d="M68.6503 71.9861C69.1816 71.9861 69.6123 71.5554 69.6123 71.0241C69.6123 70.4928 69.1816 70.0621 68.6503 70.0621C68.119 70.0621 67.6883 70.4928 67.6883 71.0241C67.6883 71.5554 68.119 71.9861 68.6503 71.9861Z" fill="black"/>
<path d="M73.4602 71.9861C73.9915 71.9861 74.4222 71.5554 74.4222 71.0241C74.4222 70.4928 73.9915 70.0621 73.4602 70.0621C72.9289 70.0621 72.4982 70.4928 72.4982 71.0241C72.4982 71.5554 72.9289 71.9861 73.4602 71.9861Z" fill="black"/>
<path d="M25.3606 74.3913C25.8919 74.3913 26.3226 73.9606 26.3226 73.4293C26.3226 72.898 25.8919 72.4673 25.3606 72.4673C24.8293 72.4673 24.3987 72.898 24.3987 73.4293C24.3987 73.9606 24.8293 74.3913 25.3606 74.3913Z" fill="black"/>
<path d="M30.1706 74.3913C30.7019 74.3913 31.1326 73.9606 31.1326 73.4293C31.1326 72.898 30.7019 72.4673 30.1706 72.4673C29.6393 72.4673 29.2086 72.898 29.2086 73.4293C29.2086 73.9606 29.6393 74.3913 30.1706 74.3913Z" fill="black"/>
<path d="M32.5755 74.3913C33.1068 74.3913 33.5375 73.9606 33.5375 73.4293C33.5375 72.898 33.1068 72.4673 32.5755 72.4673C32.0443 72.4673 31.6136 72.898 31.6136 73.4293C31.6136 73.9606 32.0443 74.3913 32.5755 74.3913Z" fill="black"/>
<path d="M39.7905 74.3913C40.3218 74.3913 40.7525 73.9606 40.7525 73.4293C40.7525 72.898 40.3218 72.4673 39.7905 72.4673C39.2592 72.4673 38.8285 72.898 38.8285 73.4293C38.8285 73.9606 39.2592 74.3913 39.7905 74.3913Z" fill="black"/>
<path d="M42.1955 74.3913C42.7268 74.3913 43.1575 73.9606 43.1575 73.4293C43.1575 72.898 42.7268 72.4673 42.1955 72.4673C41.6642 72.4673 41.2335 72.898 41.2335 73.4293C41.2335 73.9606 41.6642 74.3913 42.1955 74.3913Z" fill="black"/>
<path d="M44.6005 74.3913C45.1318 74.3913 45.5625 73.9606 45.5625 73.4293C45.5625 72.898 45.1318 72.4673 44.6005 72.4673C44.0692 72.4673 43.6385 72.898 43.6385 73.4293C43.6385 73.9606 44.0692 74.3913 44.6005 74.3913Z" fill="black"/>
<path d="M47.0054 74.3913C47.5367 74.3913 47.9674 73.9606 47.9674 73.4293C47.9674 72.898 47.5367 72.4673 47.0054 72.4673C46.4741 72.4673 46.0434 72.898 46.0434 73.4293C46.0434 73.9606 46.4741 74.3913 47.0054 74.3913Z" fill="black"/>
<path d="M49.4104 74.3913C49.9417 74.3913 50.3724 73.9606 50.3724 73.4293C50.3724 72.898 49.9417 72.4673 49.4104 72.4673C48.8791 72.4673 48.4484 72.898 48.4484 73.4293C48.4484 73.9606 48.8791 74.3913 49.4104 74.3913Z" fill="black"/>
<path d="M51.8154 74.3913C52.3467 74.3913 52.7774 73.9606 52.7774 73.4293C52.7774 72.898 52.3467 72.4673 51.8154 72.4673C51.2841 72.4673 50.8534 72.898 50.8534 73.4293C50.8534 73.9606 51.2841 74.3913 51.8154 74.3913Z" fill="black"/>
<path d="M54.2204 74.3913C54.7517 74.3913 55.1824 73.9606 55.1824 73.4293C55.1824 72.898 54.7517 72.4673 54.2204 72.4673C53.6891 72.4673 53.2584 72.898 53.2584 73.4293C53.2584 73.9606 53.6891 74.3913 54.2204 74.3913Z" fill="black"/>
<path d="M56.6254 74.3913C57.1566 74.3913 57.5873 73.9606 57.5873 73.4293C57.5873 72.898 57.1566 72.4673 56.6254 72.4673C56.0941 72.4673 55.6634 72.898 55.6634 73.4293C55.6634 73.9606 56.0941 74.3913 56.6254 74.3913Z" fill="black"/>
<path d="M59.0303 74.3913C59.5616 74.3913 59.9923 73.9606 59.9923 73.4293C59.9923 72.898 59.5616 72.4673 59.0303 72.4673C58.499 72.4673 58.0683 72.898 58.0683 73.4293C58.0683 73.9606 58.499 74.3913 59.0303 74.3913Z" fill="black"/>
<path d="M63.8403 74.3913C64.3716 74.3913 64.8023 73.9606 64.8023 73.4293C64.8023 72.898 64.3716 72.4673 63.8403 72.4673C63.309 72.4673 62.8783 72.898 62.8783 73.4293C62.8783 73.9606 63.309 74.3913 63.8403 74.3913Z" fill="black"/>
<path d="M66.2453 74.3913C66.7765 74.3913 67.2072 73.9606 67.2072 73.4293C67.2072 72.898 66.7765 72.4673 66.2453 72.4673C65.714 72.4673 65.2833 72.898 65.2833 73.4293C65.2833 73.9606 65.714 74.3913 66.2453 74.3913Z" fill="black"/>
<path d="M68.6503 74.3913C69.1816 74.3913 69.6123 73.9606 69.6123 73.4293C69.6123 72.898 69.1816 72.4673 68.6503 72.4673C68.119 72.4673 67.6883 72.898 67.6883 73.4293C67.6883 73.9606 68.119 74.3913 68.6503 74.3913Z" fill="black"/>
<path d="M13.5762 21.9628C18.225 21.9628 21.9936 18.1942 21.9936 13.5454C21.9936 8.89654 18.225 5.12793 13.5762 5.12793C8.92739 5.12793 5.15878 8.89654 5.15878 13.5454C5.15878 18.1942 8.92739 21.9628 13.5762 21.9628Z" fill="black"/>
<path d="M13.5762 19.5576C16.8968 19.5576 19.5887 16.8657 19.5887 13.5452C19.5887 10.2246 16.8968 7.53271 13.5762 7.53271C10.2556 7.53271 7.56378 10.2246 7.56378 13.5452C7.56378 16.8657 10.2556 19.5576 13.5762 19.5576Z" fill="white"/>
<path d="M13.5762 17.1529C15.5686 17.1529 17.1837 15.5377 17.1837 13.5454C17.1837 11.553 15.5686 9.93793 13.5762 9.93793C11.5839 9.93793 9.96875 11.553 9.96875 13.5454C9.96875 15.5377 11.5839 17.1529 13.5762 17.1529Z" fill="black"/>
<path d="M66.4858 21.9628C71.1346 21.9628 74.9032 18.1942 74.9032 13.5454C74.9032 8.89654 71.1346 5.12793 66.4858 5.12793C61.8369 5.12793 58.0683 8.89654 58.0683 13.5454C58.0683 18.1942 61.8369 21.9628 66.4858 21.9628Z" fill="black"/>
<path d="M66.4857 19.5576C69.8063 19.5576 72.4982 16.8657 72.4982 13.5452C72.4982 10.2246 69.8063 7.53271 66.4857 7.53271C63.1652 7.53271 60.4733 10.2246 60.4733 13.5452C60.4733 16.8657 63.1652 19.5576 66.4857 19.5576Z" fill="white"/>
<path d="M66.4857 17.1529C68.4781 17.1529 70.0932 15.5377 70.0932 13.5454C70.0932 11.553 68.4781 9.93793 66.4857 9.93793C64.4934 9.93793 62.8783 11.553 62.8783 13.5454C62.8783 15.5377 64.4934 17.1529 66.4857 17.1529Z" fill="black"/>
<path d="M13.5762 74.8721C18.225 74.8721 21.9936 71.1035 21.9936 66.4547C21.9936 61.8058 18.225 58.0372 13.5762 58.0372C8.92739 58.0372 5.15878 61.8058 5.15878 66.4547C5.15878 71.1035 8.92739 74.8721 13.5762 74.8721Z" fill="black"/>
<path d="M13.5762 72.4675C16.8968 72.4675 19.5887 69.7757 19.5887 66.4551C19.5887 63.1345 16.8968 60.4426 13.5762 60.4426C10.2556 60.4426 7.56378 63.1345 7.56378 66.4551C7.56378 69.7757 10.2556 72.4675 13.5762 72.4675Z" fill="white"/>
<path d="M13.5762 70.0623C15.5686 70.0623 17.1837 68.4472 17.1837 66.4549C17.1837 64.4625 15.5686 62.8474 13.5762 62.8474C11.5839 62.8474 9.96875 64.4625 9.96875 66.4549C9.96875 68.4472 11.5839 70.0623 13.5762 70.0623Z" fill="black"/>
<path d="M41.1878 51.2C46.4826 51.2 50.7748 46.9024 50.7748 41.601C50.7748 36.2996 46.4826 32.002 41.1878 32.002C35.8931 32.002 31.6008 36.2996 31.6008 41.601C31.6008 46.9024 35.8931 51.2 41.1878 51.2Z" fill="white"/>
<path d="M50.7992 41.5485C50.7992 36.075 46.1657 31.6795 40.5883 32.0195C35.8208 32.3134 31.9352 36.165 31.6232 40.9045C31.4412 43.6702 32.4471 46.196 34.1789 48.0438C34.4349 48.3197 34.8249 48.4357 35.1948 48.3457L35.2288 48.3377C35.5448 48.2638 35.8108 48.0438 35.9408 47.7478C36.5707 46.338 37.7586 45.2241 39.2244 44.6901C39.5924 44.5561 39.6404 44.0602 39.2984 43.8662C37.8506 43.0423 36.9907 41.3085 37.5166 39.4447C37.8686 38.1988 38.8785 37.2109 40.1363 36.8749C42.7121 36.185 45.0418 38.1008 45.0418 40.5506C45.0418 41.9604 44.2699 43.1943 43.124 43.8542C42.772 44.0562 42.816 44.5581 43.194 44.6961C44.6559 45.2301 45.8357 46.34 46.4597 47.7498C46.5896 48.0478 46.8536 48.2638 47.1676 48.3397L47.1976 48.3477C47.5715 48.4377 47.9615 48.3177 48.2215 48.0418C49.8173 46.338 50.7972 44.0602 50.7972 41.5505" fill="#0031C8"/>
<path d="M46.6182 32.0103H35.3454C32.9426 32.0103 30.9948 33.9581 30.9948 36.3608V47.6336C30.9948 50.0364 32.9426 51.9842 35.3454 51.9842H46.6182C49.021 51.9842 50.9688 50.0364 50.9688 47.6336V36.3608C50.9688 33.9581 49.021 32.0103 46.6182 32.0103Z" fill="#EF7F1A"/>
<path d="M36.5344 36.2435V40.912C36.5344 40.912 36.5344 40.9236 36.5344 40.9282C36.546 41.1425 36.7234 41.313 36.94 41.313C37.1566 41.313 37.3502 41.1309 37.3502 40.9051V36.2458C37.3502 36.0199 37.1658 35.8379 36.94 35.8379C36.7142 35.8379 36.5298 36.0199 36.5298 36.2458" fill="white"/>
<path d="M39.3757 36.2916C39.1914 36.2916 39.0462 36.439 39.0462 36.6188C39.0462 36.7985 39.196 36.946 39.3757 36.946H41.8575V37.4368H39.4702C39.4149 37.4368 39.3665 37.446 39.3227 37.4576C39.2536 37.4783 39.1983 37.5083 39.1568 37.5543C39.0877 37.6327 39.0531 37.7433 39.0531 37.8793V38.7918C39.0531 38.93 39.0877 39.036 39.1568 39.1167C39.1983 39.1628 39.2536 39.195 39.3227 39.2135C39.3665 39.225 39.4172 39.2342 39.4748 39.2342H40.4588V39.7665H38.7029C38.5116 39.7665 38.3549 39.9232 38.3549 40.1122C38.3549 40.3011 38.5116 40.4578 38.7029 40.4578H43.0972C43.118 40.4578 43.1341 40.4578 43.1525 40.4532C43.3207 40.4278 43.4475 40.285 43.4475 40.1122C43.4475 39.9209 43.2908 39.7665 43.0995 39.7665H41.2791V39.2342H42.4935C42.5142 39.2342 42.535 39.2296 42.5557 39.2273C42.7124 39.2019 42.8345 39.0683 42.8345 38.9047C42.8345 38.7226 42.6871 38.5775 42.505 38.5775C42.4981 38.5775 42.4935 38.5775 42.4843 38.5775H39.9403C39.908 38.5775 39.885 38.5706 39.8689 38.5567C39.8527 38.5429 39.8458 38.5152 39.8458 38.4715V38.0936H42.2285C42.3714 38.0936 42.4774 38.0544 42.5465 37.976C42.6156 37.8977 42.6502 37.7871 42.6502 37.6511V36.5566C42.6502 36.4713 42.6248 36.4045 42.5764 36.3607C42.535 36.3238 42.4774 36.3054 42.4105 36.2985C42.3967 36.2985 42.3852 36.2939 42.3714 36.2939H39.378L39.3757 36.2916Z" fill="white"/>
<path d="M48.6161 38.61H44.1848C44.0051 38.61 43.8599 38.7552 43.8599 38.9326C43.8599 39.11 44.0051 39.2552 44.1848 39.2552H45.9753V39.6216H44.9936C44.8692 39.6216 44.777 39.6538 44.7079 39.7138C44.6964 39.723 44.6872 39.7299 44.6779 39.7414C44.6157 39.8128 44.5835 39.9073 44.5766 40.0272C44.5766 40.0387 44.5719 40.0548 44.5719 40.0663V40.9927C44.5719 41.1309 44.6065 41.2392 44.6756 41.3176C44.6849 41.3291 44.6964 41.336 44.7056 41.3452C44.7747 41.4051 44.8669 41.4374 44.9913 41.4374H47.7704C47.8948 41.4374 47.987 41.4074 48.0561 41.3452C48.0676 41.336 48.0791 41.3291 48.0884 41.3176C48.1529 41.2415 48.1874 41.1425 48.1897 41.0157V40.0663C48.1897 39.9281 48.1552 39.8198 48.0861 39.7414C48.0169 39.6631 47.9109 39.6239 47.7681 39.6239H46.791V39.2575H48.623C48.8027 39.2575 48.9479 39.1146 48.9479 38.9349C48.9479 38.7552 48.8027 38.6123 48.623 38.6123H48.6161M45.4015 40.7738C45.3854 40.7622 45.3785 40.7346 45.3785 40.6908V40.2668H47.3948V40.7922H45.4729C45.4407 40.7922 45.4176 40.7876 45.4015 40.7738Z" fill="white"/>
<path d="M32.8636 38.0107C32.8636 38.8771 33.5688 39.5823 34.4375 39.5823C35.3062 39.5823 36.0114 38.8795 36.0114 38.0107C36.0114 37.142 35.3062 36.4415 34.4375 36.4415C33.5688 36.4415 32.8636 37.1443 32.8636 38.0107ZM33.5849 38.0107C33.5849 37.5406 33.9674 37.1604 34.4375 37.1604C34.9076 37.1604 35.2901 37.5429 35.2901 38.0107C35.2901 38.4785 34.9076 38.861 34.4375 38.861C33.9674 38.861 33.5849 38.4785 33.5849 38.0107Z" fill="white"/>
<path d="M45.0628 37.112C45.0628 37.8379 45.6527 38.4232 46.3786 38.4232C47.1044 38.4232 47.6943 37.8356 47.6943 37.112C47.6943 36.3884 47.1044 35.8008 46.3786 35.8008C45.6527 35.8008 45.0628 36.3884 45.0628 37.112ZM45.7748 37.112C45.7748 36.7779 46.0444 36.5106 46.3786 36.5106C46.7127 36.5106 46.9823 36.7802 46.9823 37.112C46.9823 37.4438 46.7127 37.7134 46.3786 37.7134C46.0444 37.7134 45.7748 37.4438 45.7748 37.112Z" fill="white"/>
<path d="M40.9703 45.9538C40.9703 43.8522 39.189 42.1654 37.046 42.2968C35.214 42.4097 33.7185 43.8891 33.5987 45.7072C33.5296 46.7695 33.9144 47.7396 34.5803 48.4471C34.6794 48.5531 34.8292 48.5968 34.9698 48.5623H34.9836C35.1057 48.53 35.2071 48.4471 35.2578 48.3318C35.4998 47.7903 35.956 47.364 36.5206 47.1566C36.6635 47.1059 36.6796 46.9147 36.5482 46.8409C35.9906 46.5253 35.6611 45.8593 35.8639 45.1426C35.9998 44.6633 36.3869 44.2854 36.8709 44.1564C37.8617 43.8914 38.7558 44.6265 38.7558 45.5666C38.7558 46.1082 38.4585 46.5829 38.0184 46.834C37.8825 46.9124 37.9009 47.1036 38.0461 47.1566C38.6083 47.3617 39.0623 47.788 39.3019 48.3295C39.3526 48.4448 39.454 48.5277 39.5738 48.5554H39.5854C39.7282 48.5945 39.878 48.5462 39.9794 48.4402C40.5924 47.7857 40.9703 46.9124 40.9703 45.9469" fill="white"/>
<path d="M42.1248 47.7673V43.0826C42.1248 42.6517 42.4751 42.3014 42.9083 42.3014H43.3023C43.5466 42.3014 43.7793 42.4166 43.9268 42.6125L46.5791 46.122V43.0826C46.5791 42.6517 46.9293 42.3014 47.3626 42.3014C47.7958 42.3014 48.146 42.6493 48.146 43.0826V47.7673C48.146 48.1982 47.7958 48.5484 47.3626 48.5484H46.9685C46.7243 48.5484 46.4915 48.4332 46.3441 48.2374L43.6918 44.7279V47.7673C43.6918 48.1982 43.3415 48.5484 42.9083 48.5484C42.4751 48.5484 42.1248 48.2005 42.1248 47.7673Z" fill="white"/>
<rect x="31.9935" y="33.0089" width="17.9766" height="17.9766" rx="2.12264" fill="#EF7F1A"/>
<mask id="mask0_111_103" style="mask-type:luminance" maskUnits="userSpaceOnUse" x="31" y="33" width="19" height="18">
<rect x="31.9935" y="33.0089" width="17.9766" height="17.9766" rx="2.12264" fill="white"/>
</mask>
<g mask="url(#mask0_111_103)">
</g>
<path d="M41.0982 42.5846C41.0982 40.2195 39.1438 38.3211 36.7924 38.469C34.7824 38.596 33.1415 40.261 33.01 42.3071C32.9342 43.5026 33.3564 44.5944 34.0871 45.3906C34.1958 45.5099 34.3602 45.5592 34.5144 45.5203H34.5296C34.6636 45.484 34.7748 45.3906 34.8304 45.2609C35.0959 44.6515 35.5965 44.1717 36.216 43.9383C36.3727 43.8813 36.3904 43.666 36.2463 43.583C35.6344 43.2278 35.2729 42.4783 35.4954 41.6717C35.6445 41.1323 36.0693 40.707 36.6003 40.5618C37.6874 40.2636 38.6684 41.0908 38.6684 42.1489C38.6684 42.7584 38.3423 43.2926 37.8594 43.5753C37.7102 43.6634 37.7304 43.8787 37.8897 43.9383C38.5066 44.1691 39.0047 44.6489 39.2676 45.2583C39.3233 45.388 39.4345 45.4814 39.566 45.5125H39.5786C39.7354 45.5566 39.8997 45.5021 40.011 45.3828C40.6835 44.6463 41.0982 43.6634 41.0982 42.5768" fill="white"/>
<path d="M42.3648 44.6257V39.3534C42.3648 38.8684 42.7491 38.4742 43.2244 38.4742H43.6568C43.9248 38.4742 44.1801 38.6039 44.3419 38.8243L47.252 42.774V39.3534C47.252 38.8684 47.6363 38.4742 48.1117 38.4742C48.587 38.4742 48.9713 38.8658 48.9713 39.3534V44.6257C48.9713 45.1106 48.587 45.5048 48.1117 45.5048H47.6793C47.4113 45.5048 47.156 45.3751 46.9942 45.1547L44.084 41.205V44.6257C44.084 45.1106 43.6997 45.5048 43.2244 45.5048C42.7491 45.5048 42.3648 45.1132 42.3648 44.6257Z" fill="white"/>
</g>
<rect x="0.831965" y="0.800959" width="78.3981" height="78.3981" rx="8.81055" stroke="#333333" stroke-width="1.60192"/>
<defs>
<clipPath id="clip0_111_103">
<rect x="3.23483" y="3.20386" width="73.5923" height="73.5923" rx="6.40767" fill="white"/>
</clipPath>
</defs>
</svg>
