<svg id="Group_5" data-name="Group 5" xmlns="http://www.w3.org/2000/svg" width="155" height="155" viewBox="0 0 155 155">
  <circle id="Oval" cx="77.5" cy="77.5" r="77.5" fill="#eaf1ff"/>
  <circle id="Oval-2" data-name="Oval" cx="53" cy="53" r="53" transform="translate(24.5 24.5)" fill="#3074ff"/>
  <path id="Path_4" data-name="Path 4" d="M1.871,27.189a1,1,0,0,1-.1-1.792L44.942,1a1,1,0,0,1,1.482,1.01l-5.238,37.31a2,2,0,0,1-2.629,1.614L27.531,37.149a2,2,0,0,0-2.28.735l-5.356,7.555a1,1,0,0,1-1.816-.578V35.269a3,3,0,0,1,.727-1.958L33.585,16.153a.5.5,0,0,0-.7-.711l-18.451,15.3a3,3,0,0,1-3.084.454Z" transform="translate(48.046 54.266)" fill="#fff"/>
</svg>
