<svg width="90" height="90" viewBox="0 0 90 90" fill="none" xmlns="http://www.w3.org/2000/svg">
<circle cx="45" cy="45" r="45" fill="#EDE8E4"/>
<path d="M48.656 20.4744C50.2977 19.9401 52.0199 19.6663 53.7487 19.673C54.5261 19.673 55.3034 19.7398 56.0539 19.9201C57.106 20.1806 58.0776 20.6748 59.0426 21.169C59.6926 21.503 60.3493 21.8369 60.939 22.2643C62.8554 23.6602 64.0013 25.9711 66.0518 27.1532C66.3333 27.3135 66.6348 27.4605 66.856 27.7009C67.0771 27.948 67.191 28.2686 67.2915 28.5825C68.7725 33.084 69.6972 37.9729 68.4642 42.5546C68.156 43.71 67.707 44.8254 67.2647 45.934C66.9163 46.809 66.5678 47.6906 66.0652 48.492C65.4085 49.5473 64.5106 50.4356 63.5591 51.237C62.889 51.798 62.1987 52.3324 61.475 52.8199C61.1467 53.0403 60.8049 53.2607 60.4096 53.3208C60.0209 53.3809 59.5719 53.234 59.391 52.8867L30.791 34.2461L31.1864 27.6341" fill="#3D312B"/>
<path d="M25.886 49.3937C24.9546 48.3184 23.5809 47.8375 22.3144 48.1447C21.0479 48.4519 19.9154 49.5339 19.3793 50.9632C18.8164 52.4525 18.9035 54.2224 19.4262 55.7252C19.9422 57.2279 20.8535 58.4835 21.8855 59.5254C22.8371 60.4872 23.8958 61.2819 25.0283 61.883C25.8994 62.3439 26.8242 62.7045 27.568 63.4258" fill="#EDBFA9"/>
<path d="M64.015 48.7258C64.9197 47.577 66.28 47.0093 67.5599 47.2431C68.8398 47.4768 69.9923 48.512 70.5619 49.9279C71.1583 51.404 71.1114 53.2072 70.6289 54.7567C70.1465 56.3129 69.2686 57.642 68.2635 58.7573C67.3387 59.7859 66.2934 60.6541 65.1743 61.3354C64.3166 61.8563 63.3985 62.2771 62.6748 63.0518" fill="#EDBFA9"/>
<path d="M62.8692 34.6535C64.3636 38.7009 65.6636 41.9601 65.2883 46.2346C65.0605 48.8059 65.0806 54.0955 64.3234 56.58C63.01 60.9146 64.1424 63.9401 61.5424 67.727C58.9424 71.5138 52.4759 76.0488 47.8522 77.2176C45.9357 77.7051 43.8852 77.8253 41.962 77.3578C40.0723 76.897 37.0569 75.9285 35.4084 74.9468C33.4517 73.778 32.1316 72.5624 30.6641 70.8727C28.8816 68.8089 28.0306 66.1842 27.3002 63.6061C24.8811 55.0573 25.5244 49.6808 24.9213 40.8448C24.9213 40.8448 24.4388 27.1465 41.6136 26.8126C58.7883 26.4786 61.6898 31.5078 62.8558 34.6669L62.8692 34.6535Z" fill="#EDBFA9"/>
<path d="M37.9749 50.7228C37.995 51.6711 37.412 52.4459 36.6682 52.4592C35.931 52.4726 35.3146 51.7179 35.2944 50.7695C35.2743 49.8211 35.8573 49.0464 36.6012 49.033C37.3383 49.0197 37.9548 49.7744 37.9749 50.7228Z" fill="#0A0807"/>
<path d="M53.8225 50.4088C53.8426 51.3572 53.2596 52.132 52.5158 52.1453C51.7787 52.1587 51.1622 51.404 51.1421 50.4556C51.122 49.5072 51.705 48.7325 52.4488 48.7191C53.1859 48.7058 53.8024 49.4605 53.8225 50.4088Z" fill="#0A0807"/>
<path d="M42.9334 57.7822C42.8396 57.7822 42.7458 57.7488 42.6788 57.6687L41.2514 56.0725C41.1911 56.0057 41.0839 55.8855 41.0705 55.7051C41.0504 55.4513 41.2179 55.2777 41.2983 55.1975C42.1896 54.2759 42.7324 52.9267 42.8329 51.3839C42.9334 49.8745 42.6184 48.3785 42.2968 47.1095C42.2499 46.9292 42.3571 46.7488 42.538 46.7021C42.719 46.6553 42.8999 46.7689 42.9468 46.9425C43.2818 48.2583 43.6035 49.8211 43.503 51.424C43.3958 53.1204 42.7793 54.6232 41.7808 55.6584C41.7808 55.6584 41.7741 55.6651 41.7674 55.6717L43.1813 57.2212C43.3019 57.3615 43.2953 57.5685 43.1545 57.6954C43.0942 57.7488 43.0138 57.7756 42.9401 57.7822H42.9334Z" fill="#BD9886"/>
<path d="M68.0961 49.4004C67.2852 49.1332 65.6502 49.8144 65.0069 50.4957C65.945 50.6426 66.8832 50.8229 67.8213 51.03C68.3373 51.1435 68.9404 51.3639 69.0878 51.9784C69.1481 52.2188 69.1213 52.4793 69.0878 52.7331C69.0409 53.1806 68.9672 53.6748 68.6791 53.962C68.3842 54.2559 67.962 54.2225 67.5868 54.1757L65.8043 53.9553C66.0188 54.4295 66.4275 54.7634 66.8698 54.8236C67.0038 54.8436 67.1512 54.8436 67.245 54.9571C67.3456 55.0707 67.3523 55.2577 67.3456 55.4246C67.2718 57.2146 66.1461 58.8776 64.7188 59.2984C65.8378 59.5388 67.0038 58.9444 67.8347 57.9826C68.6657 57.0209 69.195 55.7252 69.5569 54.4028C69.7914 53.5479 70.3074 51.8648 69.7244 51.1101C69.2419 50.489 68.7394 49.6074 68.0894 49.4004H68.0961Z" fill="#D4A58E"/>
<path d="M21.852 50.0482C22.6561 49.7409 24.3113 50.3153 24.9613 50.9498C24.0232 51.1502 23.0917 51.3839 22.1603 51.6444C21.651 51.7847 21.0546 52.0385 20.9206 52.6529C20.867 52.8933 20.9005 53.1471 20.934 53.3943C20.9943 53.8351 21.0747 54.3159 21.3695 54.5831C21.6711 54.8569 22.0933 54.7968 22.4618 54.73C23.0515 54.6232 23.6412 54.5163 24.2376 54.4094C24.0366 54.8903 23.6345 55.2443 23.1989 55.3311C23.0649 55.3578 22.9175 55.3645 22.8237 55.4847C22.7299 55.6049 22.7232 55.7919 22.7366 55.9522C22.8505 57.7154 24.0165 59.285 25.4505 59.6122C24.3381 59.9128 23.1587 59.3985 22.3077 58.4969C21.4567 57.5952 20.9005 56.353 20.5051 55.0706C20.2505 54.2425 19.6943 52.6128 20.2639 51.8381C20.7262 51.2036 21.2154 50.302 21.8587 50.0548L21.852 50.0482Z" fill="#D4AB97"/>
<path d="M35.328 58.4968C35.3481 59.6256 33.7532 60.574 31.7697 60.614C29.7795 60.6541 28.1512 59.7658 28.131 58.6371C28.1109 57.5084 29.7058 56.56 31.6893 56.5199C33.6795 56.4798 35.3079 57.3681 35.328 58.4968Z" fill="#E3A1A1"/>
<path d="M59.4652 57.0008C59.4853 58.1295 57.8904 59.0779 55.9069 59.118C53.9167 59.1581 52.2884 58.2698 52.2683 57.1411C52.2482 56.0123 53.843 55.064 55.8265 55.0239C57.8167 54.9838 59.4451 55.8721 59.4652 57.0008Z" fill="#E3A1A1"/>
<path d="M28.3522 37.2048C28.2316 36.6505 27.7827 34.56 27.9167 34.0057C28.0239 33.5515 32.7816 29.4574 41.0708 28.5491C42.927 28.3487 44.7765 28.2285 46.626 28.4756L54.6337 29.5509C55.9471 29.7246 57.361 29.9516 58.2857 30.9C59.579 32.2291 59.3713 34.3663 59.9543 36.1229C60.6981 38.3669 64.2698 45.894 65.228 47.5102C66.1193 46.9425 66.0924 45.9073 66.2533 44.8587C66.595 42.5746 66.7156 40.257 66.6084 37.9529C66.5481 36.7173 66.4208 35.4617 65.9182 34.3329C65.2816 32.9104 64.1089 31.8083 62.9363 30.7798C61.7569 29.7446 60.5373 28.7361 59.1435 28.0148C57.7363 27.2868 56.1883 26.8727 54.6337 26.5588C50.1306 25.6438 45.5069 25.4902 40.91 25.4301C39.4491 25.41 37.9682 25.4034 36.5342 25.6772C33.1837 26.3184 30.3223 28.4356 27.6754 30.5794C26.6033 31.4477 25.5244 32.356 24.7873 33.5181C23.4739 35.5752 23.3801 38.1532 23.3265 40.591C23.293 42.1405 23.0852 48.5922 25.2899 48.5521C25.4641 48.5521 26.4492 45.6535 26.7842 44.9322C27.327 43.7634 27.8363 42.5679 28.1713 41.319C28.5265 39.9765 28.6739 38.5673 28.3723 37.1981L28.3522 37.2048Z" fill="#3D312B"/>
<path d="M63.2578 43.2625C63.3784 44.3245 63.4991 45.3864 63.6197 46.4483C63.7939 47.9711 63.9614 49.5005 63.9145 51.0367C64.2898 50.8764 64.4975 50.4823 64.665 50.115C65.7037 47.8709 66.4475 45.4198 66.2264 42.962" fill="#3D312B"/>
<path d="M26.5627 44.9055C26.4488 45.9875 26.3282 47.0761 26.2143 48.1581C26.0467 49.7142 25.8792 51.2838 25.8591 52.8533C25.6112 52.6863 25.4838 52.2856 25.3833 51.9049C24.7534 49.6007 24.3313 47.0828 24.5591 44.5649" fill="#3D312B"/>
<path d="M55.9467 43.3827C56.4426 43.4428 56.9518 43.5297 57.3807 43.8569C56.1946 44.2977 54.9482 44.0172 53.7219 44.0707C52.3549 44.1241 50.9477 44.6384 49.5874 44.3044C49.7013 43.5898 51.9864 43.4696 52.4755 43.4095C53.6348 43.2625 54.7941 43.2558 55.9467 43.3894V43.3827Z" fill="#3D312B"/>
<path d="M36.9229 43.9838C35.3683 43.6766 33.5523 43.9237 32.0044 44.2577C31.408 44.3846 30.7513 44.625 30.5234 45.186C31.227 45.3396 31.9575 45.1994 32.6678 45.0858C34.6446 44.7719 36.6549 44.6317 38.6585 44.6651C37.908 44.0105 36.8291 43.7434 35.8575 43.9705" fill="#3D312B"/>
<path d="M43.972 64.1472C41.7673 64.1472 39.556 63.8733 37.3982 63.319C37.2173 63.2722 37.1101 63.0919 37.157 62.9116C37.2039 62.7313 37.3848 62.6244 37.5658 62.6711C42.1359 63.8399 47.1415 63.713 51.6446 62.3105C51.8189 62.2571 52.0065 62.3506 52.0668 62.5309C52.1204 62.7045 52.0266 62.8915 51.8457 62.9517C49.2859 63.7531 46.6256 64.1472 43.972 64.1472Z" fill="#BD9886"/>
<path d="M54.3118 20.1872C53.4138 18.404 48.1401 16.7944 44.9169 17.0215C39.9984 17.3688 35.2473 21.0488 30.3221 21.2024C29.92 21.2158 29.5113 21.2091 29.136 21.0755C28.4123 20.8084 27.9432 20.0737 27.7958 19.319C27.6484 18.5643 27.769 17.7829 27.9097 17.0215C26.5025 17.5157 25.2427 18.4841 24.519 19.7932C23.802 21.1022 23.6747 22.7519 24.318 24.101C23.2458 22.9856 22.8839 21.2425 23.42 19.7865C22.2942 20.8484 21.3896 22.1575 20.7999 23.5867C20.3107 24.7622 20.0293 26.0178 19.768 27.2668C19.6138 27.9881 19.4664 28.7227 19.4999 29.4574C19.5267 30.2255 19.7479 30.9802 19.969 31.7215C20.7597 34.4064 21.5571 37.0913 22.3479 39.7762C22.8638 41.5193 23.3865 43.2825 24.2577 44.8855C24.787 42.5813 25.3164 40.2838 25.8391 37.9796C26.2747 36.0895 26.7571 34.0925 28.104 32.6966C29.0623 31.7015 30.3556 31.1204 31.5618 30.4526C34.7649 28.676 37.5994 26.1514 41.0973 25.0761C43.1814 24.4349 45.3994 24.3548 47.5772 24.3949C49.8891 24.4349 52.4288 24.7155 54.0102 26.3985" fill="#3D312B"/>
</svg>
