<svg width="251" height="448" viewBox="0 0 251 448" fill="none" xmlns="http://www.w3.org/2000/svg">
<g clip-path="url(#clip0_2149_11358)">
<path d="M0 281.983C0 277.833 3.36488 274.468 7.51568 274.468H243.007C247.158 274.468 250.523 277.833 250.523 281.983V304.53C250.523 308.681 247.158 312.046 243.007 312.046H7.51567C3.36488 312.046 0 308.681 0 304.53V281.983Z" fill="white"/>
<path fill-rule="evenodd" clip-rule="evenodd" d="M243.007 275.094H7.51568C3.71078 275.094 0.626306 278.179 0.626306 281.983V304.53C0.626306 308.335 3.71078 311.42 7.51567 311.42H243.007C246.812 311.42 249.896 308.335 249.896 304.53V281.983C249.896 278.179 246.812 275.094 243.007 275.094ZM7.51568 274.468C3.36488 274.468 0 277.833 0 281.983V304.53C0 308.681 3.36488 312.046 7.51567 312.046H243.007C247.158 312.046 250.523 308.681 250.523 304.53V281.983C250.523 277.833 247.158 274.468 243.007 274.468H7.51568Z" fill="#CCCCCC"/>
<path d="M0 325.825C0 321.674 3.36488 318.309 7.51568 318.309H243.007C247.158 318.309 250.523 321.674 250.523 325.825V348.372C250.523 352.523 247.158 355.888 243.007 355.888H7.51567C3.36488 355.888 0 352.523 0 348.372V325.825Z" fill="white"/>
<path fill-rule="evenodd" clip-rule="evenodd" d="M243.007 318.936H7.51568C3.71078 318.936 0.626306 322.02 0.626306 325.825V348.372C0.626306 352.177 3.71078 355.261 7.51567 355.261H243.007C246.812 355.261 249.896 352.177 249.896 348.372V325.825C249.896 322.02 246.812 318.936 243.007 318.936ZM7.51568 318.309C3.36488 318.309 0 321.674 0 325.825V348.372C0 352.523 3.36488 355.888 7.51567 355.888H243.007C247.158 355.888 250.523 352.523 250.523 348.372V325.825C250.523 321.674 247.158 318.309 243.007 318.309H7.51568Z" fill="#CCCCCC"/>
<path d="M0 413.508C0 409.357 3.36488 405.992 7.51568 405.992H243.007C247.158 405.992 250.523 409.357 250.523 413.508V436.055C250.523 440.206 247.158 443.571 243.007 443.571H7.51567C3.36488 443.571 0 440.206 0 436.055V413.508Z" fill="white"/>
<path fill-rule="evenodd" clip-rule="evenodd" d="M243.007 406.619H7.51568C3.71078 406.619 0.626306 409.703 0.626306 413.508V436.055C0.626306 439.86 3.71078 442.945 7.51567 442.945H243.007C246.812 442.945 249.896 439.86 249.896 436.055V413.508C249.896 409.703 246.812 406.619 243.007 406.619ZM7.51568 405.992C3.36488 405.992 0 409.357 0 413.508V436.055C0 440.206 3.36488 443.571 7.51567 443.571H243.007C247.158 443.571 250.523 440.206 250.523 436.055V413.508C250.523 409.357 247.158 405.992 243.007 405.992H7.51568Z" fill="#CCCCCC"/>
<path d="M0 237.516C0 233.365 3.36488 230 7.51568 230H243.007C247.158 230 250.523 233.365 250.523 237.516V260.063C250.523 264.214 247.158 267.579 243.007 267.579H7.51567C3.36488 267.579 0 264.214 0 260.063V237.516Z" fill="white"/>
<path fill-rule="evenodd" clip-rule="evenodd" d="M243.007 230.626H7.51568C3.71078 230.626 0.626306 233.711 0.626306 237.516V260.063C0.626306 263.868 3.71078 266.952 7.51567 266.952H243.007C246.812 266.952 249.896 263.868 249.896 260.063V237.516C249.896 233.711 246.812 230.626 243.007 230.626ZM7.51568 230C3.36488 230 0 233.365 0 237.516V260.063C0 264.214 3.36488 267.579 7.51567 267.579H243.007C247.158 267.579 250.523 264.214 250.523 260.063V237.516C250.523 233.365 247.158 230 243.007 230H7.51568Z" fill="#CCCCCC"/>
<path fill-rule="evenodd" clip-rule="evenodd" d="M243.007 230.626H7.51568C3.71078 230.626 0.626306 233.711 0.626306 237.516V260.063C0.626306 263.868 3.71078 266.952 7.51567 266.952H243.007C246.812 266.952 249.896 263.868 249.896 260.063V237.516C249.896 233.711 246.812 230.626 243.007 230.626ZM7.51568 230C3.36488 230 0 233.365 0 237.516V260.063C0 264.214 3.36488 267.579 7.51567 267.579H243.007C247.158 267.579 250.523 264.214 250.523 260.063V237.516C250.523 233.365 247.158 230 243.007 230H7.51568Z" fill="#CCCCCC"/>
<path d="M0 369.667C0 365.516 3.36488 362.151 7.51568 362.151H243.007C247.158 362.151 250.523 365.516 250.523 369.667V392.214C250.523 396.364 247.158 399.729 243.007 399.729H7.51567C3.36488 399.729 0 396.364 0 392.214V369.667Z" fill="white"/>
<path fill-rule="evenodd" clip-rule="evenodd" d="M243.007 362.777H7.51568C3.71078 362.777 0.626306 365.862 0.626306 369.667V392.214C0.626306 396.018 3.71078 399.103 7.51567 399.103H243.007C246.812 399.103 249.896 396.018 249.896 392.214V369.667C249.896 365.862 246.812 362.777 243.007 362.777ZM7.51568 362.151C3.36488 362.151 0 365.516 0 369.667V392.214C0 396.364 3.36488 399.729 7.51567 399.729H243.007C247.158 399.729 250.523 396.364 250.523 392.214V369.667C250.523 365.516 247.158 362.151 243.007 362.151H7.51568Z" fill="#978454"/>
<path fill-rule="evenodd" clip-rule="evenodd" d="M243.007 362.777H7.51568C3.71078 362.777 0.626306 365.862 0.626306 369.667V392.214C0.626306 396.018 3.71078 399.103 7.51567 399.103H243.007C246.812 399.103 249.896 396.018 249.896 392.214V369.667C249.896 365.862 246.812 362.777 243.007 362.777ZM7.51568 362.151C3.36488 362.151 0 365.516 0 369.667V392.214C0 396.364 3.36488 399.729 7.51567 399.729H243.007C247.158 399.729 250.523 396.364 250.523 392.214V369.667C250.523 365.516 247.158 362.151 243.007 362.151H7.51568Z" fill="#E3DBC6"/>
<path d="M17.6119 293.683H18.9147V296.427H17.6119V293.683ZM18.2633 287.909C20.6934 287.909 22.4721 289.124 22.4721 290.978C22.4721 292.844 20.6934 294.047 18.2633 294.047C15.8458 294.047 14.0545 292.844 14.0545 290.978C14.0545 289.124 15.8458 287.909 18.2633 287.909ZM18.2633 288.948C16.5598 288.948 15.3322 289.738 15.3322 290.978C15.3322 292.23 16.5598 293.007 18.2633 293.007C19.9794 293.007 21.1944 292.23 21.1944 290.978C21.1944 289.738 19.9794 288.948 18.2633 288.948ZM13.1025 296.201H23.4742V297.278H13.1025V296.201Z" fill="#333333"/>
<path d="M25.7832 289.763H33.5995V290.815H25.7832V289.763ZM24.4304 291.767H34.802V292.819H24.4304V291.767ZM25.7832 287.383H27.0734V290.289H25.7832V287.383ZM25.6705 293.696H33.5244V296.539H26.9983V297.804H25.683V295.587H32.2217V294.698H25.6705V293.696ZM25.683 297.529H33.8876V298.543H25.683V297.529Z" fill="#333333"/>
<path d="M43.8877 287.22H45.203V298.694H43.8877V287.22ZM39.1027 288.072C40.8188 288.072 42.0589 289.637 42.0589 292.105C42.0589 294.573 40.8188 296.151 39.1027 296.151C37.3992 296.151 36.1591 294.573 36.1591 292.105C36.1591 289.637 37.3992 288.072 39.1027 288.072ZM39.1027 289.262C38.1006 289.262 37.4117 290.326 37.4117 292.105C37.4117 293.896 38.1006 294.974 39.1027 294.974C40.1048 294.974 40.7938 293.896 40.7938 292.105C40.7938 290.326 40.1048 289.262 39.1027 289.262Z" fill="#333333"/>
<path d="M55.2159 288.748H58.2973V289.75H55.2159V288.748ZM55.2159 290.928H58.3349V291.93H55.2159V290.928ZM50.2556 287.884H55.5917V292.832H50.2556V287.884ZM54.314 288.923H51.5457V291.804H54.314V288.923ZM57.9216 287.232H59.2243V293.758H57.9216V287.232ZM54.8276 295.174H55.9424V295.362C55.9424 297.003 54.1011 298.343 51.5332 298.644L51.0948 297.654C53.3119 297.429 54.8276 296.376 54.8276 295.362V295.174ZM55.0656 295.174H56.1679V295.362C56.1679 296.339 57.671 297.416 59.8756 297.654L59.4497 298.644C56.8443 298.343 55.0656 296.953 55.0656 295.362V295.174ZM51.5457 294.46H59.4497V295.45H51.5457V294.46ZM54.8401 293.445H56.1679V294.986H54.8401V293.445Z" fill="#333333"/>
<path d="M71.8928 287.232H73.208V295.688H71.8928V287.232ZM68.8614 288.635H72.3562V289.675H68.8614V288.635ZM65.78 297.391H73.4836V298.456H65.78V297.391ZM65.78 294.948H67.0952V297.905H65.78V294.948ZM64.3646 288.022H65.6673V293.408H64.3646V288.022ZM64.3646 293.007H65.2539C66.8948 293.007 68.398 292.932 70.114 292.619L70.2393 293.696C68.4731 294.022 66.9449 294.084 65.2539 294.084H64.3646V293.007ZM68.8614 290.79H72.3562V291.842H68.8614V290.79Z" fill="#333333"/>
<path d="M75.4669 300.159L75.1538 299.345C76.0181 298.982 76.5191 298.343 76.5191 297.591L76.4189 296.439L77.0202 297.379C76.8448 297.566 76.6193 297.642 76.3813 297.642C75.8678 297.642 75.4043 297.303 75.4043 296.715C75.4043 296.138 75.8678 295.788 76.4189 295.788C77.1204 295.788 77.5338 296.364 77.5338 297.328C77.5338 298.656 76.7697 299.671 75.4669 300.159Z" fill="#333333"/>
<path d="M86.7066 288.748H89.788V289.75H86.7066V288.748ZM86.7066 290.928H89.8256V291.93H86.7066V290.928ZM81.7462 287.884H87.0824V292.832H81.7462V287.884ZM85.8047 288.923H83.0364V291.804H85.8047V288.923ZM89.4122 287.232H90.7149V293.758H89.4122V287.232ZM86.3183 295.174H87.4331V295.362C87.4331 297.003 85.5917 298.343 83.0239 298.644L82.5855 297.654C84.8026 297.429 86.3183 296.376 86.3183 295.362V295.174ZM86.5563 295.174H87.6586V295.362C87.6586 296.339 89.1617 297.416 91.3663 297.654L90.9404 298.644C88.335 298.343 86.5563 296.953 86.5563 295.362V295.174ZM83.0364 294.46H90.9404V295.45H83.0364V294.46ZM86.3308 293.445H87.6586V294.986H86.3308V293.445Z" fill="#333333"/>
<path d="M98.1475 291.93H99.4502V293.946H98.1475V291.93ZM103.383 287.232H104.699V293.921H103.383V287.232ZM95.3416 292.356L95.1913 291.416C97.3959 291.416 100.152 291.404 102.582 291.153L102.657 291.98C100.164 292.331 97.4836 292.356 95.3416 292.356ZM96.8824 294.31H104.699V296.827H98.1976V297.942H96.9074V295.976H103.408V295.224H96.8824V294.31ZM96.9074 297.654H105.024V298.581H96.9074V297.654ZM101.216 292.619H103.797V293.433H101.216V292.619ZM98.8615 287.433C100.565 287.433 101.692 288.097 101.692 289.149C101.692 290.201 100.565 290.865 98.8615 290.865C97.1454 290.865 96.0181 290.201 96.0181 289.149C96.0181 288.097 97.1454 287.433 98.8615 287.433ZM98.8615 288.31C97.8719 288.31 97.2456 288.623 97.2456 289.149C97.2456 289.675 97.8719 289.976 98.8615 289.976C99.8385 289.976 100.465 289.675 100.465 289.149C100.465 288.623 99.8385 288.31 98.8615 288.31Z" fill="#333333"/>
<path d="M106.958 300.159L106.644 299.345C107.509 298.982 108.01 298.343 108.01 297.591L107.91 296.439L108.511 297.379C108.335 297.566 108.11 297.642 107.872 297.642C107.358 297.642 106.895 297.303 106.895 296.715C106.895 296.138 107.358 295.788 107.91 295.788C108.611 295.788 109.024 296.364 109.024 297.328C109.024 298.656 108.26 299.671 106.958 300.159Z" fill="#333333"/>
<path d="M118.197 288.748H121.279V289.75H118.197V288.748ZM118.197 290.928H121.316V291.93H118.197V290.928ZM113.237 287.884H118.573V292.832H113.237V287.884ZM117.295 288.923H114.527V291.804H117.295V288.923ZM120.903 287.232H122.206V293.758H120.903V287.232ZM117.809 295.174H118.924V295.362C118.924 297.003 117.082 298.343 114.515 298.644L114.076 297.654C116.293 297.429 117.809 296.376 117.809 295.362V295.174ZM118.047 295.174H119.149V295.362C119.149 296.339 120.652 297.416 122.857 297.654L122.431 298.644C119.826 298.343 118.047 296.953 118.047 295.362V295.174ZM114.527 294.46H122.431V295.45H114.527V294.46ZM117.821 293.445H119.149V294.986H117.821V293.445Z" fill="#333333"/>
<path d="M129.914 287.608C131.642 287.608 132.92 288.673 132.92 290.189C132.92 291.692 131.642 292.756 129.914 292.756C128.198 292.756 126.92 291.692 126.92 290.189C126.92 288.673 128.198 287.608 129.914 287.608ZM129.914 288.685C128.924 288.685 128.185 289.274 128.185 290.189C128.185 291.103 128.924 291.692 129.914 291.692C130.916 291.692 131.642 291.103 131.642 290.189C131.642 289.274 130.916 288.685 129.914 288.685ZM134.824 287.232H136.139V293.032H134.824V287.232ZM128.636 293.558H136.139V296.489H129.939V298.067H128.661V295.525H134.836V294.585H128.636V293.558ZM128.661 297.504H136.477V298.543H128.661V297.504Z" fill="#333333"/>
<path d="M146.164 287.245H147.48V295.537H146.164V287.245ZM140.001 297.391H147.805V298.456H140.001V297.391ZM140.001 294.698H141.317V297.792H140.001V294.698ZM141.304 288.009C143.033 288.009 144.336 289.186 144.336 290.865C144.336 292.518 143.033 293.721 141.304 293.721C139.576 293.721 138.26 292.518 138.26 290.865C138.26 289.186 139.576 288.009 141.304 288.009ZM141.304 289.136C140.302 289.136 139.538 289.813 139.538 290.865C139.538 291.892 140.302 292.569 141.304 292.569C142.306 292.569 143.058 291.892 143.058 290.865C143.058 289.813 142.306 289.136 141.304 289.136Z" fill="#333333"/>
<path d="M152.294 288.948H153.346V290.552C153.346 293.07 152.056 295.562 150.089 296.502L149.338 295.462C151.104 294.648 152.294 292.506 152.294 290.552V288.948ZM152.569 288.948H153.609V290.552C153.609 292.443 154.787 294.422 156.578 295.174L155.851 296.214C153.86 295.324 152.569 293.007 152.569 290.552V288.948ZM149.751 288.372H156.152V289.462H149.751V288.372ZM157.492 287.232H158.807V298.681H157.492V287.232Z" fill="#333333"/>
<path d="M163.359 296.201H173.731V297.278H163.359V296.201ZM167.868 293.433H169.171V296.477H167.868V293.433ZM164.511 288.134H172.516V293.633H164.511V288.134ZM171.238 289.186H165.802V292.581H171.238V289.186Z" fill="#333333"/>
<path d="M174.687 293.508H185.058V294.56H174.687V293.508ZM176.027 297.391H184.019V298.456H176.027V297.391ZM176.027 295.337H177.33V297.829H176.027V295.337ZM175.99 287.558H183.756V290.552H177.305V291.93H176.002V289.6H182.466V288.573H175.99V287.558ZM176.002 291.604H183.994V292.619H176.002V291.604Z" fill="#333333"/>
<path d="M193.593 287.22H194.908V298.694H193.593V287.22ZM194.608 291.617H196.687V292.706H194.608V291.617ZM186.503 294.798H187.43C189.459 294.798 190.963 294.723 192.654 294.41L192.791 295.512C191.038 295.825 189.51 295.888 187.43 295.888H186.503V294.798ZM186.503 288.31H191.827V289.374H187.806V295.299H186.503V288.31Z" fill="#333333"/>
<path d="M198.67 297.817C198.119 297.817 197.706 297.391 197.706 296.802C197.706 296.201 198.119 295.788 198.67 295.788C199.209 295.788 199.635 296.201 199.635 296.802C199.635 297.391 199.209 297.817 198.67 297.817Z" fill="#333333"/>
<path d="M15.8081 332.79H16.8477V334.393C16.8477 336.861 15.5575 339.391 13.6285 340.343L12.877 339.303C14.6306 338.464 15.8081 336.309 15.8081 334.393V332.79ZM16.0711 332.79H17.1108V334.393C17.1108 336.172 18.2256 338.201 19.9793 339.015L19.2402 340.055C17.3112 339.128 16.0711 336.735 16.0711 334.393V332.79ZM13.3028 332.213H19.5283V333.303H13.3028V332.213ZM20.6557 331.073H21.9709V342.522H20.6557V331.073ZM21.6703 335.583H23.7496V336.673H21.6703V335.583Z" fill="#333333"/>
<path d="M32.5597 331.086H33.875V339.453H32.5597V331.086ZM26.3969 341.232H34.2007V342.297H26.3969V341.232ZM26.3969 338.664H27.7121V341.758H26.3969V338.664ZM27.2862 331.712H28.376V332.852C28.376 335.082 27.2111 337.086 25.1568 337.863L24.4804 336.81C26.2967 336.147 27.2862 334.506 27.2862 332.852V331.712ZM27.5368 331.712H28.614V332.852C28.614 334.468 29.6036 335.996 31.3823 336.61L30.7059 337.65C28.6892 336.923 27.5368 335.044 27.5368 332.852V331.712Z" fill="#333333"/>
<path d="M43.8876 331.061H45.2028V342.535H43.8876V331.061ZM39.1026 331.913C40.8187 331.913 42.0588 333.478 42.0588 335.946C42.0588 338.414 40.8187 339.992 39.1026 339.992C37.3991 339.992 36.159 338.414 36.159 335.946C36.159 333.478 37.3991 331.913 39.1026 331.913ZM39.1026 333.103C38.1005 333.103 37.4116 334.167 37.4116 335.946C37.4116 337.737 38.1005 338.815 39.1026 338.815C40.1047 338.815 40.7937 337.737 40.7937 335.946C40.7937 334.167 40.1047 333.103 39.1026 333.103Z" fill="#333333"/>
<path d="M52.4726 338.076H53.4747V338.589C53.4747 340.192 52.6104 341.733 50.8943 342.359L50.2554 341.395C51.721 340.881 52.4726 339.691 52.4726 338.589V338.076ZM52.7857 338.076H53.7377V338.589C53.7377 339.716 54.3765 340.919 55.7544 341.483L55.2158 342.472C53.4872 341.808 52.7857 340.18 52.7857 338.589V338.076ZM56.6814 338.076H57.6333V338.589C57.6333 340.042 56.9068 341.771 55.2158 342.472L54.6772 341.483C56.0425 340.869 56.6814 339.591 56.6814 338.589V338.076ZM56.9695 338.076H57.9715V338.589C57.9715 339.767 58.7106 340.919 60.1887 341.395L59.5498 342.359C57.8087 341.758 56.9695 340.268 56.9695 338.589V338.076ZM57.8713 331.086H59.1866V337.587H57.8713V331.086ZM53.0112 331.712C54.7649 331.712 56.0425 332.815 56.0425 334.418C56.0425 335.996 54.7649 337.111 53.0112 337.111C51.2575 337.111 49.9673 335.996 49.9673 334.418C49.9673 332.815 51.2575 331.712 53.0112 331.712ZM53.0112 332.802C51.9966 332.802 51.245 333.441 51.245 334.418C51.245 335.395 51.9966 336.021 53.0112 336.021C54.0258 336.021 54.7649 335.395 54.7649 334.418C54.7649 333.441 54.0258 332.802 53.0112 332.802Z" fill="#333333"/>
<path d="M62.4351 334.355H70.2764V335.407H62.4351V334.355ZM61.0823 336.785H71.4539V337.85H61.0823V336.785ZM62.4351 331.487H63.7378V334.881H62.4351V331.487ZM62.3474 341.195H70.3391V342.259H62.3474V341.195ZM62.3474 338.89H63.6501V341.483H62.3474V338.89Z" fill="#333333"/>
<path d="M77.7591 332.326H78.8364V333.153C78.8364 335.295 77.6714 337.149 75.6171 337.85L74.9658 336.81C76.757 336.197 77.7591 334.719 77.7591 333.153V332.326ZM78.0096 332.326H79.0744V333.153C79.0744 334.568 80.0263 335.896 81.78 336.46L81.1537 337.487C79.1245 336.835 78.0096 335.132 78.0096 333.153V332.326ZM75.329 331.888H81.4794V332.94H75.329V331.888ZM82.6819 331.073H83.9971V337.925H82.6819V331.073ZM83.6339 333.854H85.613V334.944H83.6339V333.854ZM80.3144 338.188C82.6568 338.188 84.1224 338.99 84.1224 340.343C84.1224 341.708 82.6568 342.51 80.3144 342.51C77.9595 342.51 76.494 341.708 76.494 340.343C76.494 338.99 77.9595 338.188 80.3144 338.188ZM80.3144 339.228C78.7236 339.228 77.7967 339.616 77.7967 340.343C77.7967 341.082 78.7236 341.483 80.3144 341.483C81.9053 341.483 82.8197 341.082 82.8197 340.343C82.8197 339.616 81.9053 339.228 80.3144 339.228Z" fill="#333333"/>
<path d="M86.4064 340.017H96.778V341.094H86.4064V340.017ZM90.8782 337.349H92.1809V340.343H90.8782V337.349ZM90.8406 331.775H91.9805V332.639C91.9805 335.082 89.8886 337.073 87.2832 337.587L86.7321 336.497C89.0118 336.109 90.8406 334.393 90.8406 332.639V331.775ZM91.0786 331.775H92.231V332.639C92.231 334.418 94.0598 336.109 96.3396 336.497L95.7885 337.587C93.1705 337.073 91.0786 335.094 91.0786 332.639V331.775Z" fill="#333333"/>
<path d="M97.7342 336.309H108.106V337.286H97.7342V336.309ZM98.9368 338.05H106.841V340.618H100.265V341.796H98.9618V339.754H105.551V338.965H98.9368V338.05ZM98.9618 341.483H107.191V342.397H98.9618V341.483ZM99.037 331.349H106.803V333.867H100.352V334.969H99.0495V333.015H105.513V332.251H99.037V331.349ZM99.0495 334.681H107.016V335.595H99.0495V334.681Z" fill="#333333"/>
<path d="M119.334 331.073H120.649V336.848H119.334V331.073ZM120.098 333.416H122.252V334.493H120.098V333.416ZM113.259 337.349H120.649V340.305H114.574V341.871H113.271V339.341H119.359V338.376H113.259V337.349ZM113.271 341.345H121.025V342.385H113.271V341.345ZM114.862 331.449C116.591 331.449 117.856 332.514 117.856 334.017C117.856 335.52 116.591 336.585 114.862 336.585C113.133 336.585 111.868 335.52 111.868 334.017C111.868 332.514 113.133 331.449 114.862 331.449ZM114.862 332.514C113.872 332.514 113.133 333.115 113.133 334.017C113.133 334.931 113.872 335.533 114.862 335.533C115.864 335.533 116.591 334.931 116.591 334.017C116.591 333.115 115.864 332.514 114.862 332.514Z" fill="#333333"/>
<path d="M125.964 332.79H127.017V334.393C127.017 336.911 125.726 339.403 123.76 340.343L123.008 339.303C124.774 338.489 125.964 336.347 125.964 334.393V332.79ZM126.24 332.79H127.28V334.393C127.28 336.284 128.457 338.263 130.248 339.015L129.522 340.055C127.53 339.165 126.24 336.848 126.24 334.393V332.79ZM123.422 332.213H129.822V333.303H123.422V332.213ZM131.163 331.073H132.478V342.522H131.163V331.073Z" fill="#333333"/>
<path d="M138.32 331.537H146.048V335.445H138.32V331.537ZM144.758 332.577H139.61V334.405H144.758V332.577ZM137.017 336.648H147.364V337.687H137.017V336.648ZM141.539 335.169H142.842V337.036H141.539V335.169ZM141.526 338.326H142.654V338.614C142.654 340.656 140.838 342.071 138.245 342.46L137.769 341.445C140.048 341.144 141.526 339.992 141.526 338.614V338.326ZM141.727 338.326H142.854V338.614C142.854 339.992 144.332 341.144 146.612 341.445L146.124 342.46C143.543 342.071 141.727 340.656 141.727 338.614V338.326Z" fill="#333333"/>
<path d="M155.986 331.086H157.301V339.654H155.986V331.086ZM156.913 334.719H158.917V335.808H156.913V334.719ZM148.382 332.389H155.122V333.428H148.382V332.389ZM151.752 333.954C153.38 333.954 154.52 334.831 154.52 336.121C154.52 337.424 153.38 338.288 151.752 338.288C150.111 338.288 148.971 337.424 148.971 336.121C148.971 334.831 150.111 333.954 151.752 333.954ZM151.752 334.969C150.85 334.969 150.236 335.407 150.236 336.121C150.236 336.848 150.85 337.274 151.752 337.274C152.654 337.274 153.268 336.848 153.268 336.121C153.268 335.407 152.654 334.969 151.752 334.969ZM151.101 331.073H152.403V332.902H151.101V331.073ZM150.061 341.232H157.765V342.297H150.061V341.232ZM150.061 338.99H151.376V341.683H150.061V338.99Z" fill="#333333"/>
<path d="M167.264 331.061H168.579V342.535H167.264V331.061ZM168.278 335.458H170.358V336.547H168.278V335.458ZM160.174 338.639H161.101C163.13 338.639 164.633 338.564 166.324 338.251L166.462 339.353C164.708 339.666 163.18 339.729 161.101 339.729H160.174V338.639ZM160.174 332.151H165.497V333.215H161.477V339.14H160.174V332.151Z" fill="#333333"/>
<path d="M172.341 341.658C171.79 341.658 171.376 341.232 171.376 340.643C171.376 340.042 171.79 339.629 172.341 339.629C172.88 339.629 173.305 340.042 173.305 340.643C173.305 341.232 172.88 341.658 172.341 341.658Z" fill="#333333"/>
<path d="M16.9737 377.019V378.447C16.9737 380.239 18.2514 382.23 19.8798 382.994L19.291 383.821C18.0384 383.195 16.9862 381.88 16.4727 380.376C15.9591 382.017 14.8693 383.445 13.6042 384.097L13.0029 383.282C14.6063 382.481 15.9591 380.351 15.9591 378.447V377.019H13.3912V376.168H19.4664V377.019H16.9737ZM23.6877 379.55V380.414H21.8339V386.251H20.8067V375.028H21.8339V379.55H23.6877Z" fill="#333333"/>
<path d="M33.7504 375.015V383.257H32.7233V375.015H33.7504ZM31.2953 380.614L30.7567 381.429C29.479 380.94 28.4895 379.925 27.9884 378.648C27.5124 380.013 26.4978 381.103 25.1826 381.654L24.6439 380.815C26.335 380.163 27.4623 378.535 27.4623 376.781V375.642H28.4895V376.781C28.4895 378.472 29.6293 380.001 31.2953 380.614ZM27.55 385.161H34.0886V386.001H26.5229V382.493H27.55V385.161Z" fill="#333333"/>
<path d="M39.5167 375.842C41.2704 375.842 42.523 376.907 42.523 378.485C42.523 380.051 41.2704 381.128 39.5167 381.128C37.7756 381.128 36.5104 380.051 36.5104 378.485C36.5104 376.907 37.7756 375.842 39.5167 375.842ZM39.5167 376.719C38.3643 376.719 37.5125 377.433 37.5125 378.485C37.5125 379.525 38.3643 380.251 39.5167 380.251C40.6816 380.251 41.5209 379.525 41.5209 378.485C41.5209 377.433 40.6816 376.719 39.5167 376.719ZM44.0011 375.015H45.0282V386.276H44.0011V375.015ZM36.072 383.809L35.9468 382.944C37.9885 382.944 40.8069 382.932 43.262 382.556L43.3497 383.32C40.8194 383.784 38.1013 383.809 36.072 383.809Z" fill="#333333"/>
<path d="M51.2961 376.105V382.543C52.912 382.543 54.578 382.406 56.3943 382.042L56.5195 382.894C54.603 383.282 52.8869 383.408 51.1709 383.408H50.2815V376.105H51.2961ZM60.2774 379.5V380.351H58.4736V386.251H57.4465V375.015H58.4736V379.5H60.2774Z" fill="#333333"/>
<path d="M69.338 375.015H70.3651V386.276H69.338V375.015ZM64.4403 375.88C66.1063 375.88 67.2962 377.408 67.2962 379.8C67.2962 382.193 66.1063 383.721 64.4403 383.721C62.7743 383.721 61.5843 382.193 61.5843 379.8C61.5843 377.408 62.7743 375.88 64.4403 375.88ZM64.4403 376.806C63.338 376.806 62.5614 377.984 62.5614 379.8C62.5614 381.629 63.338 382.806 64.4403 382.806C65.53 382.806 66.3067 381.629 66.3067 379.8C66.3067 377.984 65.53 376.806 64.4403 376.806Z" fill="#333333"/>
<path d="M73.8892 378.385C73.8892 379.449 74.7159 380.151 75.8683 380.151C77.0082 380.151 77.835 379.449 77.835 378.385C77.835 377.333 77.0082 376.606 75.8683 376.606C74.7159 376.606 73.8892 377.333 73.8892 378.385ZM76.3819 380.99V382.894C77.4091 382.844 78.4487 382.781 79.4132 382.644L79.5009 383.395C77.121 383.796 74.503 383.834 72.5239 383.834L72.3861 382.969C73.2754 382.969 74.3026 382.957 75.3548 382.932V380.99C73.8892 380.815 72.8871 379.788 72.8871 378.385C72.8871 376.806 74.1272 375.742 75.8683 375.742C77.5844 375.742 78.837 376.806 78.837 378.385C78.837 379.788 77.8224 380.802 76.3819 380.99ZM82.9331 379.65V380.514H81.1544V386.251H80.1272V375.003H81.1544V379.65H82.9331Z" fill="#333333"/>
<path d="M93.5351 378.873V381.591H92.558V375.241H93.5351V378.034H94.963V375.028H95.9526V381.955H94.963V378.873H93.5351ZM92.0946 380.289L91.5434 381.078C90.4912 380.652 89.7271 379.85 89.3263 378.898C88.9254 379.951 88.1238 380.902 87.034 381.391L86.4828 380.589C87.9484 379.938 88.8252 378.485 88.8252 377.232V375.717H89.8148V377.232C89.8148 378.472 90.654 379.738 92.0946 380.289ZM92.2449 385.449C93.9484 385.449 94.9881 384.999 94.9881 384.222C94.9881 383.445 93.9484 383.007 92.2449 383.007C90.5664 383.007 89.5142 383.445 89.5142 384.222C89.5142 384.999 90.5664 385.449 92.2449 385.449ZM92.2449 382.205C94.5622 382.205 96.0027 382.944 96.0027 384.222C96.0027 385.5 94.5622 386.239 92.2449 386.239C89.94 386.239 88.4995 385.5 88.4995 384.222C88.4995 382.944 89.94 382.205 92.2449 382.205Z" fill="#333333"/>
<path d="M107.03 375.015V380.777H106.003V375.015H107.03ZM99.0633 377.921C99.0633 378.886 99.8775 379.575 100.967 379.575C102.07 379.575 102.871 378.886 102.871 377.921C102.871 376.944 102.07 376.255 100.967 376.255C99.8775 376.255 99.0633 376.944 99.0633 377.921ZM103.873 377.921C103.873 379.399 102.646 380.401 100.967 380.401C99.2888 380.401 98.0738 379.399 98.0738 377.921C98.0738 376.431 99.2888 375.416 100.967 375.416C102.646 375.416 103.873 376.431 103.873 377.921ZM100.792 385.287H107.406V386.101H99.7773V383.282H106.015V382.143H99.7523V381.328H107.03V384.047H100.792V385.287Z" fill="#333333"/>
<path d="M114.224 375.98C112.383 375.98 111.331 376.406 111.331 377.157C111.331 377.909 112.383 378.335 114.224 378.335C116.066 378.335 117.118 377.909 117.118 377.157C117.118 376.406 116.066 375.98 114.224 375.98ZM114.224 379.099C111.757 379.099 110.278 378.422 110.278 377.157C110.278 375.892 111.757 375.203 114.224 375.203C116.692 375.203 118.17 375.892 118.17 377.157C118.17 378.422 116.692 379.099 114.224 379.099ZM111.406 384.184V385.324H118.345V386.126H110.404V383.433H116.992V382.431H110.366V381.654H118.007V384.184H111.406ZM109.139 379.863H119.31V380.69H109.139V379.863Z" fill="#333333"/>
<path d="M125.302 376.769V380.414H131.052V376.769H125.302ZM128.709 383.959H133.294V384.811H123.11V383.959H127.67V381.228H124.313V375.955H132.054V381.228H128.709V383.959Z" fill="#333333"/>
<path d="M142.317 377.42V376.193H135.728V375.391H143.331V378.184H136.768V379.412H143.569V380.214H135.753V377.42H142.317ZM136.805 382.944V385.161H143.569V386.001H135.778V382.944H136.805ZM134.438 381.241H144.634V382.08H134.438V381.241Z" fill="#333333"/>
<path d="M147.294 376.944V382.594C149.286 382.594 150.726 382.506 152.355 382.218L152.467 383.07C150.751 383.395 149.273 383.47 147.156 383.47H146.267V376.092H151.49V376.944H147.294ZM156.288 379.449V380.301H154.434V386.276H153.407V375.015H154.434V379.449H156.288Z" fill="#333333"/>
<path d="M158.208 385.487C157.758 385.487 157.382 385.136 157.382 384.623C157.382 384.097 157.758 383.733 158.208 383.733C158.659 383.733 159.035 384.097 159.035 384.623C159.035 385.136 158.659 385.487 158.208 385.487Z" fill="#333333"/>
<path d="M16.0089 420.472H17.0611V422.076C17.0611 424.593 15.7709 427.086 13.8043 428.026L13.0527 426.986C14.8189 426.172 16.0089 424.03 16.0089 422.076V420.472ZM16.2845 420.472H17.3241V422.076C17.3241 423.967 18.5016 425.946 20.2928 426.698L19.5663 427.738C17.5747 426.848 16.2845 424.531 16.2845 422.076V420.472ZM13.4661 419.896H19.8669V420.986H13.4661V419.896ZM21.2072 418.756H22.5225V430.205H21.2072V418.756Z" fill="#333333"/>
<path d="M27.3493 419.696H28.4265V421.575C28.4265 424.343 27.1865 426.886 25.1322 427.888L24.343 426.798C26.1718 425.971 27.3493 423.767 27.3493 421.575V419.696ZM27.5998 419.696H28.6645V421.575C28.6645 423.679 29.8295 425.783 31.6332 426.585L30.8566 427.637C28.8399 426.685 27.5998 424.243 27.5998 421.575V419.696ZM32.5476 418.744H33.8629V430.218H32.5476V418.744Z" fill="#333333"/>
<path d="M35.7711 423.992H46.1427V424.969H35.7711V423.992ZM36.9736 425.733H44.8776V428.301H38.3014V429.479H36.9986V427.437H43.5874V426.648H36.9736V425.733ZM36.9986 429.166H45.2283V430.08H36.9986V429.166ZM37.0738 419.032H44.84V421.55H38.3891V422.652H37.0863V420.698H43.5498V419.934H37.0738V419.032ZM37.0863 422.364H45.053V423.278H37.0863V422.364Z" fill="#333333"/>
<path d="M57.8592 418.744H59.1745V430.218H57.8592V418.744ZM53.0742 419.596C54.7903 419.596 56.0304 421.161 56.0304 423.629C56.0304 426.097 54.7903 427.675 53.0742 427.675C51.3707 427.675 50.1306 426.097 50.1306 423.629C50.1306 421.161 51.3707 419.596 53.0742 419.596ZM53.0742 420.786C52.0721 420.786 51.3832 421.85 51.3832 423.629C51.3832 425.42 52.0721 426.497 53.0742 426.497C54.0763 426.497 54.7653 425.42 54.7653 423.629C54.7653 421.85 54.0763 420.786 53.0742 420.786Z" fill="#333333"/>
<path d="M61.0701 420.61H66.6568V421.662H61.0701V420.61ZM63.876 422.314C65.3165 422.314 66.3562 423.416 66.3562 424.982C66.3562 426.548 65.3165 427.637 63.876 427.637C62.448 427.637 61.3958 426.548 61.3958 424.982C61.3958 423.416 62.448 422.314 63.876 422.314ZM63.876 423.416C63.1119 423.416 62.5608 424.042 62.5608 424.982C62.5608 425.934 63.1119 426.535 63.876 426.535C64.6401 426.535 65.1912 425.934 65.1912 424.982C65.1912 424.042 64.6401 423.416 63.876 423.416ZM69.5879 418.756H70.8405V430.205H69.5879V418.756ZM67.9595 423.504H70.0013V424.568H67.9595V423.504ZM67.1578 418.994H68.3854V429.679H67.1578V418.994ZM63.2372 419.082H64.5274V421.262H63.2372V419.082Z" fill="#333333"/>
<path d="M80.0014 418.756H81.3041V430.205H80.0014V418.756ZM81.0035 423.353H83.0828V424.443H81.0035V423.353ZM72.373 420.522H79.087V421.575H72.373V420.522ZM75.7675 422.401C77.3959 422.401 78.5984 423.504 78.5984 425.069C78.5984 426.648 77.3959 427.75 75.7675 427.75C74.1266 427.75 72.9241 426.648 72.9241 425.069C72.9241 423.504 74.1266 422.401 75.7675 422.401ZM75.7675 423.479C74.8406 423.479 74.1767 424.105 74.1767 425.069C74.1767 426.034 74.8406 426.673 75.7675 426.673C76.6819 426.673 77.3458 426.034 77.3458 425.069C77.3458 424.105 76.6819 423.479 75.7675 423.479ZM75.0911 418.919H76.4064V420.961H75.0911V418.919Z" fill="#333333"/>
<path d="M86.682 420.472H87.7342V422.076C87.7342 424.593 86.444 427.086 84.4774 428.026L83.7259 426.986C85.4921 426.172 86.682 424.03 86.682 422.076V420.472ZM86.9576 420.472H87.9973V422.076C87.9973 423.967 89.1747 425.946 90.966 426.698L90.2395 427.738C88.2478 426.848 86.9576 424.531 86.9576 422.076V420.472ZM84.1392 419.896H90.5401V420.986H84.1392V419.896ZM91.8804 418.756H93.1956V430.205H91.8804V418.756Z" fill="#333333"/>
<path d="M99.0374 419.22H106.766V423.128H99.0374V419.22ZM105.476 420.259H100.328V422.088H105.476V420.259ZM97.7346 424.33H108.081V425.37H97.7346V424.33ZM102.257 422.852H103.559V424.719H102.257V422.852ZM102.244 426.009H103.371V426.297C103.371 428.339 101.555 429.754 98.9622 430.143L98.4862 429.128C100.766 428.827 102.244 427.675 102.244 426.297V426.009ZM102.444 426.009H103.572V426.297C103.572 427.675 105.05 428.827 107.33 429.128L106.841 430.143C104.261 429.754 102.444 428.339 102.444 426.297V426.009Z" fill="#333333"/>
<path d="M116.703 418.769H118.019V427.337H116.703V418.769ZM117.63 422.401H119.635V423.491H117.63V422.401ZM109.1 420.072H115.839V421.111H109.1V420.072ZM112.47 421.637C114.098 421.637 115.238 422.514 115.238 423.804C115.238 425.107 114.098 425.971 112.47 425.971C110.829 425.971 109.689 425.107 109.689 423.804C109.689 422.514 110.829 421.637 112.47 421.637ZM112.47 422.652C111.568 422.652 110.954 423.09 110.954 423.804C110.954 424.531 111.568 424.957 112.47 424.957C113.372 424.957 113.985 424.531 113.985 423.804C113.985 423.09 113.372 422.652 112.47 422.652ZM111.818 418.756H113.121V420.585H111.818V418.756ZM110.779 428.915H118.482V429.98H110.779V428.915ZM110.779 426.673H112.094V429.366H110.779V426.673Z" fill="#333333"/>
<path d="M127.981 418.744H129.296V430.218H127.981V418.744ZM128.996 423.14H131.075V424.23H128.996V423.14ZM120.891 426.322H121.818C123.848 426.322 125.351 426.247 127.042 425.934L127.18 427.036C125.426 427.349 123.898 427.412 121.818 427.412H120.891V426.322ZM120.891 419.834H126.215V420.898H122.194V426.823H120.891V419.834Z" fill="#333333"/>
<path d="M133.059 429.341C132.507 429.341 132.094 428.915 132.094 428.326C132.094 427.725 132.507 427.312 133.059 427.312C133.597 427.312 134.023 427.725 134.023 428.326C134.023 428.915 133.597 429.341 133.059 429.341Z" fill="#333333"/>
<path d="M17.9257 247.775V246.121H15.1574V247.775H17.9257ZM19.2033 243.541V248.802H13.8672V243.541H15.1574V245.107H17.9257V243.541H19.2033ZM18.6647 253.136C20.243 253.136 21.1574 252.735 21.1574 251.996C21.1574 251.269 20.243 250.869 18.6647 250.869C17.0864 250.869 16.172 251.269 16.172 251.996C16.172 252.735 17.0864 253.136 18.6647 253.136ZM18.6647 249.841C20.9946 249.841 22.4351 250.656 22.4351 251.996C22.4351 253.349 20.9946 254.15 18.6647 254.15C16.3348 254.15 14.8943 253.349 14.8943 251.996C14.8943 250.656 16.3348 249.841 18.6647 249.841ZM22.3098 245.583H23.9131V246.647H22.3098V249.578H21.0196V242.827H22.3098V245.583Z" fill="#333333"/>
<path d="M27.3245 250.944V252.973H32.5228V250.944H27.3245ZM26.0594 254V249.917H33.788V254H26.0594ZM33.4999 247.499H35.0656V248.551H24.8193V247.499H32.2097C32.4978 246.234 32.5228 245.282 32.5228 244.43H26.1095V243.378H33.788V244.255C33.788 245.144 33.788 246.146 33.4999 247.499Z" fill="#333333"/>
<path d="M42.1847 245.858H44.239V242.839H45.5292V251.107H44.239V246.923H42.1847V245.858ZM42.8862 248.501L42.2474 249.503C40.9947 249.077 40.0803 248.188 39.6043 247.073C39.1033 248.301 38.1513 249.29 36.811 249.754L36.1471 248.739C37.9008 248.125 38.9279 246.635 38.9279 245.107V244.718H36.5354V243.679H42.5856V244.718H40.2306V245.107C40.2306 246.497 41.1952 247.912 42.8862 248.501ZM39.4916 252.873H45.8173V253.925H38.2014V250.393H39.4916V252.873Z" fill="#333333"/>
<path d="M50.0429 250.518C50.8195 250.518 51.2955 249.503 51.2955 247.712C51.2955 245.921 50.8195 244.919 50.0429 244.919C49.2662 244.919 48.7902 245.921 48.7902 247.712C48.7902 249.503 49.2662 250.518 50.0429 250.518ZM53.6629 247.111V243.04H54.8654V253.599H53.6629V248.176H52.4604C52.3477 250.38 51.4207 251.733 50.0429 251.733C48.5773 251.733 47.6128 250.192 47.6128 247.712C47.6128 245.232 48.5773 243.704 50.0429 243.704C51.3957 243.704 52.3101 244.994 52.4479 247.111H53.6629ZM55.9301 242.827H57.1577V254.125H55.9301V242.827Z" fill="#333333"/>
<path d="M70.5026 245.583V246.622H62.7865V243.127H70.3899V244.167H64.0642V245.583H70.5026ZM63.9765 252.071V253.023H70.7406V254.025H62.6988V251.132H69.1498V250.255H62.6738V249.265H70.4149V252.071H63.9765ZM61.4838 247.399H71.7176V248.439H61.4838V247.399Z" fill="#333333"/>
<path d="M75.9181 244.505C74.9286 244.505 74.202 245.157 74.202 246.121C74.202 247.073 74.9286 247.725 75.9181 247.725C76.8952 247.725 77.6091 247.073 77.6091 246.121C77.6091 245.157 76.8952 244.505 75.9181 244.505ZM80.891 246.635H78.7866C78.5486 247.912 77.3962 248.789 75.9181 248.789C74.2271 248.789 72.9745 247.687 72.9745 246.121C72.9745 244.543 74.2271 243.441 75.9181 243.441C77.3837 243.441 78.5236 244.292 78.7866 245.57H80.891V242.827H82.1812V249.228H80.891V246.635ZM81.0288 249.666V250.217C81.0288 251.407 81.7678 252.572 83.2334 253.048L82.5945 254C81.5048 253.612 80.7657 252.86 80.3774 251.946C80.0142 252.848 79.3503 253.662 78.3106 254.1C77.2584 253.687 76.582 252.898 76.2313 251.983C75.8304 252.873 75.0914 253.599 74.0517 254L73.4129 253.048C74.8659 252.535 75.6175 251.332 75.6175 250.217V249.666H76.8701V250.217C76.8701 251.194 77.3085 252.221 78.2981 252.848C79.3127 252.159 79.7636 251.082 79.7636 250.217V249.666H81.0288Z" fill="#333333"/>
<path d="M89.2627 245.883H92.2314V242.827H93.5216V251.069H92.2314V246.923H89.2627V245.883ZM90.5278 248.1L90.6531 249.128C89.1249 249.428 87.7846 249.491 85.6802 249.491H84.8034V243.691H89.9516V244.731H86.0936V248.439C87.9224 248.426 89.1249 248.351 90.5278 248.1ZM87.4715 252.923H93.8097V253.963H86.1813V250.443H87.4715V252.923Z" fill="#333333"/>
<path d="M106.127 242.814H107.43V254.163H106.127V242.814ZM101.405 243.654C103.096 243.654 104.324 245.207 104.324 247.637C104.324 250.092 103.096 251.633 101.405 251.633C99.7266 251.633 98.499 250.092 98.499 247.637C98.499 245.207 99.7266 243.654 101.405 243.654ZM101.405 244.819C100.428 244.819 99.7391 245.883 99.7391 247.637C99.7391 249.416 100.428 250.48 101.405 250.48C102.395 250.48 103.084 249.416 103.084 247.637C103.084 245.883 102.395 244.819 101.405 244.819Z" fill="#333333"/>
<path d="M112.47 250.48C113.447 250.48 114.136 249.416 114.136 247.637C114.136 245.883 113.447 244.819 112.47 244.819C111.48 244.819 110.804 245.883 110.804 247.637C110.804 249.416 111.48 250.48 112.47 250.48ZM112.47 243.654C114.161 243.654 115.376 245.207 115.376 247.637C115.376 250.092 114.161 251.633 112.47 251.633C110.779 251.633 109.564 250.092 109.564 247.637C109.564 245.207 110.779 243.654 112.47 243.654ZM119.923 246.647H118.219V248.927H119.923V249.992H118.219V254.15H116.929V242.827H118.219V245.583H119.923V246.647Z" fill="#333333"/>
<path d="M121.443 244.017H126.804C126.804 247.386 125.451 250.242 121.568 252.121L120.879 251.094C123.848 249.666 125.251 247.674 125.476 245.069H121.443V244.017ZM128.846 242.827H130.136V254.138H128.846V242.827Z" fill="#333333"/>
<path d="M133.823 243.929V250.242C135.351 250.23 136.979 250.105 138.696 249.754L138.846 250.819C136.929 251.194 135.176 251.32 133.472 251.32H132.533V243.929H133.823ZM142.616 247.236V248.301H140.9V254.138H139.61V242.827H140.9V247.236H142.616Z" fill="#333333"/>
<path d="M155.435 242.814V248.564H154.145V242.814H155.435ZM147.581 245.745C147.581 246.647 148.308 247.236 149.285 247.236C150.274 247.236 151.013 246.647 151.013 245.745C151.013 244.844 150.274 244.255 149.285 244.255C148.308 244.255 147.581 244.844 147.581 245.745ZM152.266 245.745C152.266 247.236 151.001 248.288 149.285 248.288C147.581 248.288 146.329 247.236 146.329 245.745C146.329 244.255 147.581 243.19 149.285 243.19C151.001 243.19 152.266 244.255 152.266 245.745ZM149.31 252.986H155.773V254H148.045V251.031H154.157V250.092H148.02V249.077H155.435V251.983H149.31V252.986Z" fill="#333333"/>
<path d="M162.567 243.967C160.813 243.967 159.874 244.305 159.874 244.956C159.874 245.595 160.813 245.933 162.567 245.933C164.32 245.933 165.26 245.595 165.26 244.956C165.26 244.305 164.32 243.967 162.567 243.967ZM162.567 246.898C160.024 246.898 158.533 246.209 158.533 244.956C158.533 243.691 160.024 243.002 162.567 243.002C165.097 243.002 166.6 243.691 166.6 244.956C166.6 246.209 165.097 246.898 162.567 246.898ZM159.961 252.109V253.048H166.725V254.038H158.684V251.194H165.135V250.38H158.658V249.403H166.4V252.109H159.961ZM157.443 247.562H167.69V248.589H157.443V247.562Z" fill="#333333"/>
<path d="M180.747 242.814V249.253H179.456V242.814H180.747ZM172.905 246.109C172.905 247.061 173.632 247.687 174.646 247.687C175.661 247.687 176.388 247.061 176.388 246.109C176.388 245.157 175.661 244.518 174.646 244.518C173.632 244.518 172.905 245.157 172.905 246.109ZM177.64 246.109C177.64 247.662 176.375 248.752 174.646 248.752C172.918 248.752 171.64 247.662 171.64 246.109C171.64 244.543 172.918 243.453 174.646 243.453C176.375 243.453 177.64 244.543 177.64 246.109ZM180.859 250.881H177.79C177.991 251.946 179.331 252.873 181.31 253.136L180.859 254.088C179.131 253.85 177.765 253.111 177.102 252.071C176.45 253.111 175.085 253.85 173.344 254.088L172.905 253.136C174.872 252.86 176.225 251.933 176.413 250.881H173.381V249.804H180.859V250.881Z" fill="#333333"/>
<path d="M191.849 246.071V247.123H184.083V243.228H185.373V246.071H191.849ZM185.298 250.555V252.848H191.912V253.887H184.008V250.555H185.298ZM182.755 248.476H193.026V249.516H182.755V248.476Z" fill="#333333"/>
<path d="M195.849 244.944V250.292C197.678 250.28 199.056 250.205 200.634 249.929L200.772 250.994C199.056 251.307 197.528 251.37 195.486 251.37H194.559V243.892H199.82V244.944H195.849ZM204.63 247.173V248.238H202.864V254.15H201.574V242.814H202.864V247.173H204.63Z" fill="#333333"/>
<path d="M206.676 253.336C206.137 253.336 205.711 252.923 205.711 252.334C205.711 251.733 206.137 251.307 206.676 251.307C207.215 251.307 207.64 251.733 207.64 252.334C207.64 252.923 207.215 253.336 206.676 253.336Z" fill="#333333"/>
</g>
<path d="M6.88058 187.749H8.39123V189.903H6.88058V187.749ZM6.8693 184.029H8.0643V184.266C8.0643 186.013 7.12859 187.535 5.14446 188.065L4.46804 186.915C6.13652 186.476 6.8693 185.382 6.8693 184.266V184.029ZM7.18496 184.029H8.39123V184.266C8.39123 185.337 9.14655 186.397 10.8038 186.825L10.1386 187.975C8.15448 187.468 7.18496 185.968 7.18496 184.266V184.029ZM4.7837 183.308H10.4994V184.491H4.7837V183.308ZM6.88058 182.169H8.39123V183.826H6.88058V182.169ZM11.4238 182.068H12.9232V192.541H11.4238V182.068ZM4.43422 190.602L4.25385 189.384C6.08016 189.384 8.65052 189.362 10.8489 189.035L10.9616 190.128C8.69561 190.568 6.23799 190.59 4.43422 190.602Z" fill="#333333"/>
<path d="M15.5763 182.654H22.1713V183.849H15.5763V182.654ZM14.4264 186.69H23.8736V187.896H14.4264V186.69ZM21.2919 182.654H22.7688V183.556C22.7688 184.548 22.7688 185.653 22.4418 187.152L20.965 187.017C21.2919 185.562 21.2919 184.525 21.2919 183.556V182.654ZM15.6101 191.132H23.0619V192.338H15.6101V191.132ZM15.6101 188.787H17.0982V191.256H15.6101V188.787Z" fill="#333333"/>
<path d="M33.7302 182.09H35.2296V189.891H33.7302V182.09ZM34.8012 185.269H36.6162V186.498H34.8012V185.269ZM27.0112 183.172H33.1553V184.345H27.0112V183.172ZM30.0889 184.717C31.5882 184.717 32.648 185.54 32.648 186.735C32.648 187.93 31.5882 188.742 30.0889 188.742C28.5782 188.742 27.5185 187.93 27.5185 186.735C27.5185 185.54 28.5782 184.717 30.0889 184.717ZM30.0889 185.856C29.4237 185.856 28.9615 186.171 28.9615 186.735C28.9615 187.299 29.4237 187.603 30.0889 187.603C30.754 187.603 31.2162 187.299 31.2162 186.735C31.2162 186.171 30.754 185.856 30.0889 185.856ZM29.3335 182.068H30.8329V183.747H29.3335V182.068ZM28.4993 191.143H35.6016V192.338H28.4993V191.143ZM28.4993 189.305H29.9987V191.661H28.4993V189.305Z" fill="#333333"/>
<path d="M39.9681 185.867H40.8361C43.0119 185.867 44.1956 185.799 45.5146 185.529L45.6725 186.69C44.3309 186.994 43.0683 187.039 40.8361 187.039H39.9681V185.867ZM39.9681 182.62H44.6353V183.792H41.4562V186.521H39.9681V182.62ZM46.3263 182.079H47.8257V187.265H46.3263V182.079ZM47.4086 184.041H49.2123V185.258H47.4086V184.041ZM40.9263 187.693H47.8257V190.579H42.437V191.831H40.9488V189.474H46.3489V188.866H40.9263V187.693ZM40.9488 191.222H48.1301V192.405H40.9488V191.222Z" fill="#333333"/>
<path d="M56.5214 182.079H58.032V189.553H56.5214V182.079ZM57.6036 184.987H59.4187V186.216H57.6036V184.987ZM53.6128 182.857H55.2137C55.2137 185.698 53.4775 187.648 50.3661 188.55L49.7347 187.355C52.2938 186.656 53.6128 185.258 53.6128 183.601V182.857ZM50.1857 182.857H54.4245V184.063H50.1857V182.857ZM51.2792 191.143H58.3815V192.338H51.2792V191.143ZM51.2792 188.798H52.7899V191.673H51.2792V188.798Z" fill="#333333"/>
<path d="M63.3795 182.767C65.0254 182.767 66.2543 183.838 66.2543 185.337C66.2543 186.848 65.0254 187.919 63.3795 187.919C61.7448 187.919 60.4935 186.848 60.4935 185.337C60.4935 183.838 61.7448 182.767 63.3795 182.767ZM63.3795 184.052C62.5791 184.052 61.9703 184.525 61.9703 185.337C61.9703 186.16 62.5791 186.633 63.3795 186.633C64.1799 186.633 64.7887 186.16 64.7887 185.337C64.7887 184.525 64.1799 184.052 63.3795 184.052ZM67.235 182.068H68.7344V192.541H67.235V182.068ZM60.2455 190.421L60.0651 189.215C61.9027 189.215 64.4618 189.193 66.6601 188.866L66.7728 189.948C64.5069 190.399 62.0492 190.421 60.2455 190.421Z" fill="#333333"/>
<path d="M74.9046 182.643H76.1334V183.567C76.1334 185.641 75.2316 187.468 73.2474 188.155L72.447 186.972C74.1944 186.385 74.9046 184.987 74.9046 183.567V182.643ZM75.209 182.643H76.4265V183.714C76.4265 184.965 77.1255 186.182 78.7602 186.69L77.9823 187.851C76.0996 187.22 75.209 185.596 75.209 183.714V182.643ZM79.3351 182.079H80.8345V188.246H79.3351V182.079ZM80.4174 184.491H82.2211V185.732H80.4174V184.491ZM77.4299 188.482C79.5944 188.482 80.9585 189.238 80.9585 190.5C80.9585 191.774 79.5944 192.518 77.4299 192.518C75.2541 192.518 73.89 191.774 73.89 190.5C73.89 189.238 75.2541 188.482 77.4299 188.482ZM77.4299 189.643C76.0996 189.643 75.3781 189.925 75.3781 190.5C75.3781 191.086 76.0996 191.357 77.4299 191.357C78.7602 191.357 79.4704 191.086 79.4704 190.5C79.4704 189.925 78.7602 189.643 77.4299 189.643Z" fill="#333333"/>
<path d="M89.6091 182.09H91.1085V189.125H89.6091V182.09ZM90.5786 185.033H92.4162V186.273H90.5786V185.033ZM87.6137 189.226C89.8684 189.226 91.1648 189.813 91.1648 190.884C91.1648 191.955 89.8684 192.529 87.6137 192.529C85.359 192.529 84.0625 191.955 84.0625 190.884C84.0625 189.813 85.359 189.226 87.6137 189.226ZM87.6137 190.309C86.1932 190.309 85.5619 190.478 85.5619 190.884C85.5619 191.278 86.1932 191.447 87.6137 191.447C89.0116 191.447 89.6542 191.278 89.6542 190.884C89.6542 190.478 89.0116 190.309 87.6137 190.309ZM85.1899 186.679H86.6893V188.212H85.1899V186.679ZM82.8675 188.854L82.6984 187.727C84.5586 187.727 87.0387 187.716 89.1469 187.434L89.2596 188.448C87.0726 188.832 84.6826 188.854 82.8675 188.854ZM82.969 182.823H88.8876V183.905H82.969V182.823ZM85.9339 184.165C87.4784 184.165 88.4705 184.728 88.4705 185.653C88.4705 186.577 87.4784 187.141 85.9339 187.141C84.3895 187.141 83.3861 186.577 83.3861 185.653C83.3861 184.728 84.3895 184.165 85.9339 184.165ZM85.9339 185.123C85.2237 185.123 84.8066 185.303 84.8066 185.653C84.8066 186.013 85.2237 186.182 85.9339 186.182C86.6442 186.182 87.05 186.013 87.05 185.653C87.05 185.303 86.6442 185.123 85.9339 185.123ZM85.1899 182H86.6893V183.296H85.1899V182Z" fill="#333333"/>
<path d="M97.7524 182.225C100.131 182.225 101.529 182.857 101.529 184.007C101.529 185.157 100.131 185.788 97.7524 185.788C95.3624 185.788 93.9758 185.157 93.9758 184.007C93.9758 182.857 95.3624 182.225 97.7524 182.225ZM97.7524 183.319C96.2417 183.319 95.5315 183.544 95.5315 184.007C95.5315 184.491 96.2417 184.694 97.7524 184.694C99.2631 184.694 99.9733 184.491 99.9733 184.007C99.9733 183.544 99.2631 183.319 97.7524 183.319ZM93.0288 186.273H102.465V187.456H93.0288V186.273ZM94.1111 188.043H101.326V190.726H95.5992V191.65H94.1223V189.689H99.8493V189.159H94.1111V188.043ZM94.1223 191.323H101.597V192.451H94.1223V191.323Z" fill="#333333"/>
<path d="M109.582 185.822H111.07V187.693H109.582V185.822ZM105.625 187.073H115.061V188.257H105.625V187.073ZM110.326 188.832C112.592 188.832 113.945 189.497 113.945 190.681C113.945 191.864 112.592 192.518 110.326 192.518C108.06 192.518 106.696 191.864 106.696 190.681C106.696 189.497 108.06 188.832 110.326 188.832ZM110.326 189.959C108.917 189.959 108.218 190.185 108.218 190.681C108.218 191.188 108.917 191.402 110.326 191.402C111.735 191.402 112.434 191.188 112.434 190.681C112.434 190.185 111.735 189.959 110.326 189.959ZM109.311 183.06H110.642V183.319C110.642 184.886 109.232 186.16 106.538 186.419L106.019 185.235C108.308 185.044 109.311 184.131 109.311 183.319V183.06ZM110.044 183.06H111.374V183.319C111.374 184.131 112.366 185.044 114.666 185.235L114.148 186.419C111.465 186.16 110.044 184.897 110.044 183.319V183.06ZM106.482 182.507H114.215V183.691H106.482V182.507Z" fill="#333333"/>
<path d="M122.55 182.079H124.05V188.189H122.55V182.079ZM123.452 184.582H125.436V185.822H123.452V184.582ZM117.263 188.595H118.74V189.384H122.562V188.595H124.05V192.405H117.263V188.595ZM118.74 190.512V191.233H122.562V190.512H118.74ZM115.831 182.981H121.975V184.165H115.831V182.981ZM118.909 184.446C120.42 184.446 121.468 185.19 121.468 186.295C121.468 187.4 120.42 188.144 118.909 188.144C117.387 188.144 116.339 187.4 116.339 186.295C116.339 185.19 117.387 184.446 118.909 184.446ZM118.909 185.54C118.233 185.54 117.782 185.81 117.782 186.295C117.782 186.791 118.233 187.051 118.909 187.051C119.574 187.051 120.036 186.791 120.036 186.295C120.036 185.81 119.574 185.54 118.909 185.54ZM118.154 182H119.653V183.646H118.154V182Z" fill="#333333"/>
<path d="M132.734 182.079H134.222V192.518H132.734V182.079ZM133.884 186.149H135.733V187.4H133.884V186.149ZM125.993 183.623H132.069V184.818H125.993V183.623ZM129.048 185.405C130.57 185.405 131.697 186.442 131.697 187.896C131.697 189.35 130.57 190.387 129.048 190.387C127.526 190.387 126.398 189.35 126.398 187.896C126.398 186.442 127.526 185.405 129.048 185.405ZM129.048 186.622C128.337 186.622 127.83 187.096 127.83 187.896C127.83 188.696 128.337 189.17 129.048 189.17C129.758 189.17 130.265 188.696 130.265 187.896C130.265 187.096 129.758 186.622 129.048 186.622ZM128.292 182.248H129.792V184.074H128.292V182.248Z" fill="#333333"/>
<path d="M140.911 184.21H143.752V185.416H140.911V184.21ZM140.911 187.445H143.752V188.651H140.911V187.445ZM139.107 182.8C140.663 182.8 141.802 184.243 141.802 186.521C141.802 188.82 140.663 190.263 139.107 190.263C137.54 190.263 136.413 188.82 136.413 186.521C136.413 184.243 137.54 182.8 139.107 182.8ZM139.107 184.165C138.352 184.165 137.834 184.987 137.834 186.521C137.834 188.076 138.352 188.911 139.107 188.911C139.874 188.911 140.381 188.076 140.381 186.521C140.381 184.987 139.874 184.165 139.107 184.165ZM143.515 182.068H145.003V192.541H143.515V182.068Z" fill="#333333"/>
<path d="M151.636 182.8C153.225 182.8 154.375 184.243 154.375 186.521C154.375 188.82 153.225 190.263 151.636 190.263C150.046 190.263 148.896 188.82 148.896 186.521C148.896 184.243 150.046 182.8 151.636 182.8ZM151.636 184.165C150.858 184.165 150.339 184.987 150.339 186.521C150.339 188.076 150.858 188.911 151.636 188.911C152.414 188.911 152.944 188.076 152.944 186.521C152.944 184.987 152.414 184.165 151.636 184.165ZM155.514 182.079H157.025V192.518H155.514V182.079ZM156.686 186.013H158.535V187.253H156.686V186.013Z" fill="#333333"/>
<path d="M159.328 188.978H160.061C161.301 188.978 162.395 188.956 163.68 188.753L163.793 189.959C162.462 190.185 161.335 190.218 160.061 190.218H159.328V188.978ZM159.317 183.094H163.274V187.129H160.783V189.429H159.328V185.946H161.82V184.289H159.317V183.094ZM166.588 182.079H168.009V192.518H166.588V182.079ZM165.19 186.025H166.927V187.22H165.19V186.025ZM164.255 182.259H165.641V192.022H164.255V182.259Z" fill="#333333"/>
<path d="M178.361 182.079H179.861V188.696H178.361V182.079ZM179.444 184.739H181.248V185.968H179.444V184.739ZM176.468 188.809C178.621 188.809 179.974 189.497 179.974 190.669C179.974 191.831 178.621 192.518 176.468 192.518C174.314 192.518 172.961 191.831 172.961 190.669C172.961 189.497 174.314 188.809 176.468 188.809ZM176.468 189.937C175.149 189.937 174.45 190.173 174.45 190.669C174.45 191.165 175.149 191.402 176.468 191.402C177.787 191.402 178.486 191.165 178.486 190.669C178.486 190.173 177.787 189.937 176.468 189.937ZM171.642 183.071H177.787V184.232H171.642V183.071ZM174.72 184.582C176.231 184.582 177.279 185.337 177.279 186.453C177.279 187.58 176.231 188.324 174.72 188.324C173.198 188.324 172.15 187.58 172.15 186.453C172.15 185.337 173.198 184.582 174.72 184.582ZM174.72 185.675C174.044 185.675 173.593 185.946 173.593 186.453C173.593 186.96 174.044 187.231 174.72 187.231C175.385 187.231 175.848 186.96 175.848 186.453C175.848 185.946 175.385 185.675 174.72 185.675ZM173.965 182.011H175.464V183.691H173.965V182.011Z" fill="#333333"/>
<path d="M183.01 182.485H190.101V186.182H183.01V182.485ZM188.624 183.657H184.476V185.01H188.624V183.657ZM181.849 187.163H191.285V188.347H181.849V187.163ZM185.806 185.912H187.305V187.501H185.806V185.912ZM182.897 189.102H190.146V192.518H188.647V190.286H182.897V189.102Z" fill="#333333"/>
<path d="M198.413 187.321H199.913V189.159H198.413V187.321ZM194.445 186.825H203.881V188.009H194.445V186.825ZM199.146 188.753C201.401 188.753 202.765 189.429 202.765 190.636C202.765 191.842 201.401 192.518 199.146 192.518C196.88 192.518 195.516 191.842 195.516 190.636C195.516 189.429 196.88 188.753 199.146 188.753ZM199.146 189.88C197.748 189.88 197.038 190.117 197.038 190.636C197.038 191.143 197.748 191.391 199.146 191.391C200.544 191.391 201.254 191.143 201.254 190.636C201.254 190.117 200.544 189.88 199.146 189.88ZM198.131 183.06H199.462V183.319C199.462 184.886 198.052 186.171 195.358 186.419L194.84 185.247C197.128 185.055 198.131 184.131 198.131 183.319V183.06ZM198.864 183.06H200.194V183.319C200.194 184.142 201.187 185.055 203.486 185.247L202.968 186.419C200.285 186.171 198.864 184.897 198.864 183.319V183.06ZM195.302 182.507H203.035V183.691H195.302V182.507Z" fill="#333333"/>
<path d="M4.19748 199.93H9.19165V201.125H4.19748V199.93ZM6.71147 201.587C8.04175 201.587 9 202.613 9 204.079C9 205.533 8.04175 206.559 6.71147 206.559C5.39247 206.559 4.42295 205.533 4.42295 204.079C4.42295 202.613 5.39247 201.587 6.71147 201.587ZM6.71147 202.838C6.1478 202.838 5.75322 203.289 5.75322 204.079C5.75322 204.868 6.1478 205.307 6.71147 205.307C7.27515 205.307 7.681 204.868 7.681 204.079C7.681 203.289 7.27515 202.838 6.71147 202.838ZM11.7507 198.363H13.1825V208.802H11.7507V198.363ZM10.4994 202.602H12.2242V203.808H10.4994V202.602ZM9.56367 198.555H10.9616V208.362H9.56367V198.555ZM5.9787 198.645H7.45553V200.685H5.9787V198.645Z" fill="#333333"/>
<path d="M21.1454 198.363H22.656V204.383H21.1454V198.363ZM22.2164 200.832H24.0201V202.049H22.2164V200.832ZM19.2289 204.575C21.3709 204.575 22.7575 205.375 22.7575 206.694C22.7575 208.024 21.3709 208.813 19.2289 208.813C17.0757 208.813 15.689 208.024 15.689 206.694C15.689 205.375 17.0757 204.575 19.2289 204.575ZM19.2289 205.77C17.8986 205.77 17.1658 206.063 17.1658 206.694C17.1658 207.314 17.8986 207.618 19.2289 207.618C20.5479 207.618 21.2807 207.314 21.2807 206.694C21.2807 206.063 20.5479 205.77 19.2289 205.77ZM14.7759 202.647H15.6439C17.9437 202.647 19.0823 202.59 20.3337 202.32L20.4803 203.515C19.2063 203.797 18.0001 203.842 15.6439 203.842H14.7759V202.647ZM14.7759 199.062H19.4431V200.257H16.264V203.459H14.7759V199.062Z" fill="#333333"/>
<path d="M31.3179 198.363H32.806V208.802H31.3179V198.363ZM32.4678 202.433H34.3167V203.684H32.4678V202.433ZM24.5764 199.907H30.6528V201.102H24.5764V199.907ZM27.6315 201.689C29.1534 201.689 30.2808 202.726 30.2808 204.18C30.2808 205.634 29.1534 206.671 27.6315 206.671C26.1096 206.671 24.9822 205.634 24.9822 204.18C24.9822 202.726 26.1096 201.689 27.6315 201.689ZM27.6315 202.906C26.9212 202.906 26.4139 203.38 26.4139 204.18C26.4139 204.98 26.9212 205.454 27.6315 205.454C28.3417 205.454 28.849 204.98 28.849 204.18C28.849 203.38 28.3417 202.906 27.6315 202.906ZM26.8762 198.532H28.3755V200.358H26.8762V198.532Z" fill="#333333"/>
<path d="M36.0002 201.181H43.2378V202.365H36.0002V201.181ZM34.8278 203.447H44.2863V204.642H34.8278V203.447ZM36.0002 198.735H37.4884V201.767H36.0002V198.735ZM35.8988 207.382H43.2942V208.577H35.8988V207.382ZM35.8988 205.476H37.3982V207.697H35.8988V205.476Z" fill="#333333"/>
<path d="M47.4352 206.378H56.8824V207.596H47.4352V206.378ZM51.3922 204.067H52.8916V206.66H51.3922V204.067ZM48.416 199.129H55.8452V204.259H48.416V199.129ZM54.3797 200.324H49.8928V203.075H54.3797V200.324Z" fill="#333333"/>
<path d="M57.6415 203.515H67.0887V204.71H57.6415V203.515ZM58.7801 201.474H66.0516V202.681H58.7801V201.474ZM58.7801 198.746H65.9614V199.93H60.2795V201.914H58.7801V198.746ZM58.7576 207.416H66.1192V208.622H58.7576V207.416ZM58.7576 205.499H60.2457V207.72H58.7576V205.499Z" fill="#333333"/>
<path d="M70.2263 203.177H79.6623V204.36H70.2263V203.177ZM74.9274 204.935C77.1821 204.935 78.5462 205.646 78.5462 206.874C78.5462 208.103 77.1821 208.802 74.9274 208.802C72.6727 208.802 71.2973 208.103 71.2973 206.874C71.2973 205.646 72.6727 204.935 74.9274 204.935ZM74.9274 206.097C73.5295 206.097 72.8193 206.333 72.8193 206.874C72.8193 207.404 73.5295 207.652 74.9274 207.652C76.3253 207.652 77.0356 207.404 77.0356 206.874C77.0356 206.333 76.3253 206.097 74.9274 206.097ZM73.9128 199.434H75.2431V199.693C75.2431 201.249 73.8339 202.545 71.1395 202.782L70.6209 201.621C72.9094 201.418 73.9128 200.505 73.9128 199.693V199.434ZM74.6456 199.434H75.9758V199.693C75.9758 200.505 76.9679 201.418 79.2677 201.621L78.7491 202.782C76.066 202.545 74.6456 201.26 74.6456 199.693V199.434ZM71.0831 198.848H78.8168V200.031H71.0831V198.848Z" fill="#333333"/>
<path d="M82.7212 198.927H83.95V199.851C83.95 201.925 83.0481 203.752 81.064 204.439L80.2636 203.256C82.011 202.669 82.7212 201.271 82.7212 199.851V198.927ZM83.0256 198.927H84.2431V199.998C84.2431 201.249 84.9421 202.466 86.5768 202.974L85.7989 204.135C83.9162 203.504 83.0256 201.88 83.0256 199.998V198.927ZM87.1517 198.363H88.6511V204.529H87.1517V198.363ZM88.234 200.775H90.0377V202.016H88.234V200.775ZM85.2465 204.766C87.411 204.766 88.7751 205.522 88.7751 206.784C88.7751 208.058 87.411 208.802 85.2465 208.802C83.0707 208.802 81.7066 208.058 81.7066 206.784C81.7066 205.522 83.0707 204.766 85.2465 204.766ZM85.2465 205.927C83.9162 205.927 83.1947 206.209 83.1947 206.784C83.1947 207.37 83.9162 207.641 85.2465 207.641C86.5768 207.641 87.287 207.37 87.287 206.784C87.287 206.209 86.5768 205.927 85.2465 205.927Z" fill="#333333"/>
<path d="M95.3626 198.509C97.7414 198.509 99.1393 199.141 99.1393 200.291C99.1393 201.441 97.7414 202.072 95.3626 202.072C92.9727 202.072 91.586 201.441 91.586 200.291C91.586 199.141 92.9727 198.509 95.3626 198.509ZM95.3626 199.603C93.852 199.603 93.1418 199.828 93.1418 200.291C93.1418 200.775 93.852 200.978 95.3626 200.978C96.8733 200.978 97.5835 200.775 97.5835 200.291C97.5835 199.828 96.8733 199.603 95.3626 199.603ZM90.639 202.557H100.075V203.74H90.639V202.557ZM91.7213 204.327H98.9364V207.01H93.2094V207.934H91.7326V205.973H97.4595V205.443H91.7213V204.327ZM91.7326 207.607H99.2069V208.735H91.7326V207.607Z" fill="#333333"/>
<path d="M108.568 200.584H110.991V201.79H108.568V200.584ZM105.625 199.005H106.831V200.133C106.831 202.264 105.941 204.079 103.968 204.8L103.179 203.628C104.904 203.053 105.625 201.61 105.625 200.133V199.005ZM105.952 199.005H107.147V200.144C107.147 201.486 107.835 202.827 109.481 203.391L108.68 204.541C106.809 203.864 105.952 202.117 105.952 200.144V199.005ZM110.473 198.374H111.972V206.074H110.473V198.374ZM105.061 207.427H112.198V208.622H105.061V207.427ZM105.061 205.296H106.572V208.092H105.061V205.296Z" fill="#333333"/>
<path d="M113.791 203.12H114.512C116.023 203.12 116.993 203.098 118.143 202.906L118.278 204.101C117.083 204.304 116.068 204.338 114.512 204.338H113.791V203.12ZM113.791 199.062H117.906V200.257H115.234V203.785H113.791V199.062ZM114.806 201.102H117.793V202.23H114.806V201.102ZM120.916 198.363H122.336V204.732H120.916V198.363ZM119.664 200.922H121.322V202.117H119.664V200.922ZM118.684 198.555H120.082V204.665H118.684V198.555ZM115.166 205.183H122.336V208.802H120.848V206.378H115.166V205.183Z" fill="#333333"/>
<path d="M123.637 199.93H128.631V201.125H123.637V199.93ZM126.151 201.587C127.481 201.587 128.439 202.613 128.439 204.079C128.439 205.533 127.481 206.559 126.151 206.559C124.832 206.559 123.862 205.533 123.862 204.079C123.862 202.613 124.832 201.587 126.151 201.587ZM126.151 202.838C125.587 202.838 125.192 203.289 125.192 204.079C125.192 204.868 125.587 205.307 126.151 205.307C126.714 205.307 127.12 204.868 127.12 204.079C127.12 203.289 126.714 202.838 126.151 202.838ZM131.19 198.363H132.622V208.802H131.19V198.363ZM129.938 202.602H131.663V203.808H129.938V202.602ZM129.003 198.555H130.401V208.362H129.003V198.555ZM125.418 198.645H126.895V200.685H125.418V198.645Z" fill="#333333"/>
<path d="M140.111 199.524H141.407V199.828C141.407 201.666 139.908 203.165 137.259 203.526L136.706 202.354C139.006 202.072 140.111 200.899 140.111 199.828V199.524ZM140.539 199.524H141.836V199.828C141.836 200.899 142.94 202.072 145.24 202.354L144.699 203.526C142.039 203.165 140.539 201.666 140.539 199.828V199.524ZM140.19 204.98H141.678V208.813H140.19V204.98ZM136.255 204.124H145.691V205.319H136.255V204.124ZM137.089 198.893H144.834V200.076H137.089V198.893Z" fill="#333333"/>
<path d="M150.565 201.869H152.29V203.086H150.565V201.869ZM148.333 199.265H149.483V201.023C149.483 203.391 148.829 205.702 147.161 206.728L146.259 205.6C147.792 204.654 148.333 202.793 148.333 201.023V199.265ZM148.66 199.265H149.787V200.956C149.787 202.658 150.227 204.394 151.647 205.319L150.836 206.491C149.178 205.465 148.66 203.21 148.66 200.956V199.265ZM153.992 198.363H155.424V208.802H153.992V198.363ZM151.873 198.521H153.271V208.329H151.873V198.521Z" fill="#333333"/>
<path d="M158.742 203.661H160.23V206.593H158.742V203.661ZM162.53 203.661H164.03V206.593H162.53V203.661ZM156.668 206.378H166.115V207.596H156.668V206.378ZM161.38 198.87C163.624 198.87 165.281 199.975 165.281 201.677C165.281 203.38 163.624 204.473 161.38 204.473C159.126 204.473 157.48 203.38 157.48 201.677C157.48 199.975 159.126 198.87 161.38 198.87ZM161.38 200.043C159.926 200.043 158.956 200.64 158.956 201.677C158.956 202.703 159.926 203.312 161.38 203.312C162.835 203.312 163.804 202.703 163.804 201.677C163.804 200.64 162.835 200.043 161.38 200.043Z" fill="#333333"/>
<path d="M168.238 207.957C167.641 207.957 167.212 207.494 167.212 206.874C167.212 206.254 167.641 205.803 168.238 205.803C168.825 205.803 169.276 206.254 169.276 206.874C169.276 207.494 168.825 207.957 168.238 207.957Z" fill="#333333"/>
<path d="M3.75781 193.206H125.588V193.77H3.75781V193.206Z" fill="#333333"/>
<path d="M125.587 193.206H206.759V193.77H125.587V193.206Z" fill="#333333"/>
<path d="M3.75781 209.49H123.198V210.054H3.75781V209.49Z" fill="#333333"/>
<path d="M123.197 209.49H170.076V210.054H123.197V209.49Z" fill="#333333"/>
<path d="M90.4685 17.168H94.4969V37.1597H90.4685V17.168ZM75.9482 41.3084H95.1884V44.495H75.9482V41.3084ZM75.9482 35.1455H79.9466V42.6011H75.9482V35.1455ZM79.3453 18.9116C83.6142 18.9116 86.8911 21.8578 86.8911 25.9764C86.8911 30.0649 83.6142 33.0411 79.3453 33.0411C75.0764 33.0411 71.7695 30.0649 71.7695 25.9764C71.7695 21.8578 75.0764 18.9116 79.3453 18.9116ZM79.3453 22.3689C77.271 22.3689 75.6777 23.6916 75.6777 25.9764C75.6777 28.2311 77.271 29.5538 79.3453 29.5538C81.3896 29.5538 82.9829 28.2311 82.9829 25.9764C82.9829 23.6916 81.3896 22.3689 79.3453 22.3689Z" fill="#333333"/>
<path d="M104.552 21.5271H107.738V24.6536C107.738 31.087 105.123 37.3701 99.892 39.7451L97.6373 36.5885C102.297 34.5142 104.552 29.3735 104.552 24.6536V21.5271ZM105.454 21.5271H108.61V24.6536C108.61 29.163 110.835 33.9731 115.495 35.8971L113.33 39.0537C108.039 36.7689 105.454 30.8465 105.454 24.6536V21.5271ZM98.7496 19.8135H114.352V23.0904H98.7496V19.8135ZM116.938 17.1379H120.966V44.976H116.938V17.1379Z" fill="#333333"/>
<path d="M149.182 17.1379H153.21V44.976H149.182V17.1379ZM140.975 20.024H144.943C144.943 28.5317 142.057 35.5063 132.166 40.2862L130.092 37.0996C138.089 33.2516 140.975 28.201 140.975 20.7455V20.024ZM131.565 20.024H142.868V23.1805H131.565V20.024Z" fill="#333333"/>
<path d="M159.687 24.0524H178.897V27.239H159.687V24.0524ZM159.687 17.5889H163.656V25.4954H159.687V17.5889ZM156.531 29.614H181.723V32.8006H156.531V29.614ZM169.037 34.5743C175.049 34.5743 178.687 36.4382 178.687 39.7451C178.687 43.0219 175.049 44.9159 169.037 44.9159C163.024 44.9159 159.357 43.0219 159.357 39.7451C159.357 36.4382 163.024 34.5743 169.037 34.5743ZM169.037 37.6407C165.309 37.6407 163.415 38.3021 163.415 39.7451C163.415 41.158 165.309 41.8495 169.037 41.8495C172.765 41.8495 174.659 41.158 174.659 39.7451C174.659 38.3021 172.765 37.6407 169.037 37.6407Z" fill="#333333"/>
<g opacity="0.2">
<path d="M102.925 4.81485H104.637C104.615 5.31068 104.481 5.74779 104.236 6.12618C103.992 6.50458 103.652 6.79979 103.218 7.01182C102.788 7.22059 102.279 7.32497 101.692 7.32497C101.216 7.32497 100.79 7.24505 100.415 7.08521C100.043 6.92538 99.7265 6.6954 99.4655 6.3953C99.2078 6.09519 99.0105 5.73148 98.8735 5.30415C98.7397 4.87683 98.6729 4.39568 98.6729 3.86071V3.47417C98.6729 2.9392 98.743 2.45805 98.8833 2.03073C99.0268 1.60014 99.229 1.23479 99.49 0.934689C99.7542 0.631322 100.071 0.399719 100.439 0.23988C100.808 0.0800414 101.217 0.00012207 101.667 0.00012207C102.287 0.00012207 102.811 0.111031 103.238 0.332847C103.665 0.554664 103.996 0.859662 104.231 1.24784C104.466 1.63276 104.605 2.0715 104.647 2.56406H102.935C102.928 2.29658 102.882 2.07313 102.798 1.89372C102.713 1.71105 102.579 1.57404 102.396 1.48271C102.214 1.39137 101.971 1.3457 101.667 1.3457C101.455 1.3457 101.271 1.38485 101.114 1.46313C100.958 1.54142 100.827 1.66538 100.723 1.835C100.619 2.00463 100.54 2.22481 100.488 2.49556C100.439 2.76305 100.415 3.08599 100.415 3.46438V3.86071C100.415 4.23911 100.438 4.56205 100.483 4.82953C100.529 5.09702 100.602 5.31557 100.703 5.4852C100.805 5.65482 100.935 5.78041 101.095 5.86196C101.258 5.94025 101.457 5.97939 101.692 5.97939C101.953 5.97939 102.173 5.93862 102.352 5.85707C102.532 5.77225 102.67 5.64504 102.768 5.47541C102.866 5.30252 102.918 5.08234 102.925 4.81485Z" fill="#333333"/>
<path d="M110.25 2.93104V4.25216H106.595V2.93104H110.25ZM107.167 0.102875V7.22711H105.45V0.102875H107.167ZM111.404 0.102875V7.22711H109.692V0.102875H111.404Z" fill="#333333"/>
<path d="M117.398 5.906V7.22711H113.601V5.906H117.398ZM114.213 0.102875V7.22711H112.496V0.102875H114.213ZM116.909 2.93104V4.20812H113.601V2.93104H116.909ZM117.413 0.102875V1.42888H113.601V0.102875H117.413Z" fill="#333333"/>
<path d="M122.154 4.81485H123.867C123.844 5.31068 123.71 5.74779 123.466 6.12618C123.221 6.50458 122.882 6.79979 122.448 7.01182C122.017 7.22059 121.509 7.32497 120.921 7.32497C120.445 7.32497 120.019 7.24505 119.644 7.08521C119.272 6.92538 118.956 6.6954 118.695 6.3953C118.437 6.09519 118.24 5.73148 118.103 5.30415C117.969 4.87683 117.902 4.39568 117.902 3.86071V3.47417C117.902 2.9392 117.973 2.45805 118.113 2.03073C118.256 1.60014 118.459 1.23479 118.72 0.934689C118.984 0.631322 119.3 0.399719 119.669 0.23988C120.037 0.0800414 120.447 0.00012207 120.897 0.00012207C121.517 0.00012207 122.04 0.111031 122.468 0.332847C122.895 0.554664 123.226 0.859662 123.461 1.24784C123.696 1.63276 123.834 2.0715 123.877 2.56406H122.164C122.158 2.29658 122.112 2.07313 122.027 1.89372C121.942 1.71105 121.809 1.57404 121.626 1.48271C121.443 1.39137 121.2 1.3457 120.897 1.3457C120.685 1.3457 120.501 1.38485 120.344 1.46313C120.187 1.54142 120.057 1.66538 119.953 1.835C119.848 2.00463 119.77 2.22481 119.718 2.49556C119.669 2.76305 119.644 3.08599 119.644 3.46438V3.86071C119.644 4.23911 119.667 4.56205 119.713 4.82953C119.759 5.09702 119.832 5.31557 119.933 5.4852C120.034 5.65482 120.165 5.78041 120.324 5.86196C120.488 5.94025 120.687 5.97939 120.921 5.97939C121.182 5.97939 121.403 5.93862 121.582 5.85707C121.761 5.77225 121.9 5.64504 121.998 5.47541C122.096 5.30252 122.148 5.08234 122.154 4.81485Z" fill="#333333"/>
<path d="M126.397 0.102875V7.22711H124.679V0.102875H126.397ZM130.649 0.102875L127.889 3.71392L126.274 5.4803L125.961 3.90475L126.994 2.33899L128.53 0.102875H130.649ZM128.618 7.22711L126.778 4.01729L128.114 3.03379L130.649 7.22711H128.618Z" fill="#333333"/>
<path d="M138.292 5.906V7.22711H134.69V5.906H138.292ZM135.302 0.102875V7.22711H133.585V0.102875H135.302Z" fill="#333333"/>
<path d="M140.841 0.102875V7.22711H139.128V0.102875H140.841Z" fill="#333333"/>
<path d="M145.719 5.33351C145.719 5.2226 145.703 5.12311 145.67 5.03504C145.638 4.9437 145.577 4.85889 145.489 4.7806C145.401 4.70231 145.274 4.62403 145.108 4.54574C144.945 4.46419 144.729 4.37937 144.462 4.2913C144.149 4.18692 143.847 4.06948 143.557 3.939C143.266 3.80526 143.007 3.65031 142.779 3.47417C142.55 3.29475 142.369 3.08599 142.235 2.84786C142.102 2.60647 142.035 2.32594 142.035 2.00626C142.035 1.69963 142.103 1.42399 142.24 1.17934C142.377 0.931427 142.568 0.721027 142.813 0.54814C143.061 0.371992 143.351 0.238249 143.684 0.146913C144.016 0.0523143 144.38 0.00501509 144.775 0.00501509C145.297 0.00501509 145.757 0.0963515 146.155 0.279024C146.556 0.458435 146.869 0.714503 147.094 1.04723C147.323 1.37669 147.437 1.7665 147.437 2.21666H145.729C145.729 2.03725 145.692 1.87904 145.616 1.74204C145.545 1.60503 145.435 1.49739 145.289 1.4191C145.142 1.34081 144.958 1.30167 144.736 1.30167C144.52 1.30167 144.339 1.33429 144.193 1.39953C144.046 1.46477 143.935 1.55284 143.86 1.66375C143.785 1.7714 143.747 1.89046 143.747 2.02094C143.747 2.12859 143.777 2.22645 143.835 2.31452C143.897 2.39933 143.984 2.47925 144.095 2.55428C144.209 2.6293 144.346 2.70107 144.506 2.76957C144.669 2.83807 144.852 2.90494 145.054 2.97018C145.432 3.09088 145.768 3.22625 146.062 3.37631C146.359 3.5231 146.608 3.69109 146.81 3.88029C147.016 4.06622 147.171 4.27825 147.275 4.51638C147.383 4.75451 147.437 5.02362 147.437 5.32373C147.437 5.6434 147.375 5.9272 147.251 6.17511C147.127 6.42303 146.949 6.63343 146.717 6.80631C146.486 6.97594 146.209 7.10479 145.886 7.19286C145.563 7.28093 145.202 7.32497 144.804 7.32497C144.439 7.32497 144.078 7.2793 143.723 7.18797C143.371 7.09337 143.051 6.94984 142.764 6.75738C142.477 6.56166 142.247 6.31212 142.074 6.00875C141.904 5.70212 141.819 5.33841 141.819 4.91761H143.542C143.542 5.12638 143.57 5.30252 143.625 5.44605C143.68 5.58958 143.762 5.70538 143.87 5.79346C143.977 5.87827 144.109 5.94025 144.266 5.97939C144.423 6.01527 144.602 6.03322 144.804 6.03322C145.023 6.03322 145.199 6.00223 145.333 5.94025C145.466 5.87501 145.564 5.79019 145.626 5.68581C145.688 5.57816 145.719 5.46073 145.719 5.33351Z" fill="#333333"/>
<path d="M151.772 0.102875V7.22711H150.054V0.102875H151.772ZM153.915 0.102875V1.42888H147.96V0.102875H153.915Z" fill="#333333"/>
</g>
<path d="M21.2285 134.568H29.4356V135.259H21.2285V134.568ZM24.9062 132.524H25.7379V134.939H24.9062V132.524ZM24.9062 129.237H25.6377V129.437C25.6377 131.291 23.9542 132.494 21.9901 132.834L21.6694 132.173C23.4431 131.892 24.9062 130.84 24.9062 129.437V129.237ZM25.0164 129.237H25.7379V129.437C25.7379 130.84 27.201 131.892 28.9747 132.173L28.654 132.834C26.6899 132.494 25.0164 131.291 25.0164 129.437V129.237ZM21.9801 128.766H28.654V129.457H21.9801V128.766ZM24.9062 127.533H25.7379V129.016H24.9062V127.533Z" fill="#333333"/>
<path d="M36.7276 127.343H37.5593V136.402H36.7276V127.343ZM34.072 128.315H34.8937C34.8937 130.94 33.7113 133.235 30.685 134.718L30.244 134.047C32.8595 132.784 34.072 130.86 34.072 128.455V128.315ZM30.6549 128.315H34.4328V128.996H30.6549V128.315Z" fill="#333333"/>
<path d="M47.5507 127.343H48.3824V136.402H47.5507V127.343ZM43.4722 129.497H44.1436V130.269C44.1436 132.203 43.0513 133.957 41.5983 134.658L41.1273 134.017C42.4701 133.395 43.4722 131.852 43.4722 130.269V129.497ZM43.6325 129.497H44.2939V130.269C44.2939 131.782 45.326 133.255 46.6789 133.846L46.2079 134.498C44.7448 133.836 43.6325 132.143 43.6325 130.269V129.497ZM41.3778 128.916H46.3682V129.587H41.3778V128.916ZM43.4722 127.503H44.3039V129.287H43.4722V127.503Z" fill="#333333"/>
<path d="M56.7666 127.343H57.5683V136.402H56.7666V127.343ZM55.3336 130.93H57.0673V131.612H55.3336V130.93ZM54.7625 127.533H55.5541V135.951H54.7625V127.533ZM50.1929 128.385H53.6501V133.977H50.1929V128.385ZM52.8685 129.046H50.9746V133.315H52.8685V129.046Z" fill="#333333"/>
<path d="M59.0181 137.524L58.8076 136.993C59.4289 136.712 59.8097 136.211 59.8097 135.6L59.7095 134.778L60.1504 135.44C60.0302 135.59 59.8698 135.64 59.6895 135.64C59.3387 135.64 59.0281 135.41 59.0281 134.999C59.0281 134.598 59.3387 134.357 59.7095 134.357C60.1905 134.357 60.4811 134.768 60.4811 135.43C60.4811 136.402 59.93 137.153 59.0181 137.524Z" fill="#333333"/>
<path d="M69.3742 127.343H70.2059V131.952H69.3742V127.343ZM69.8452 129.287H71.5387V129.978H69.8452V129.287ZM64.4539 132.383H70.2059V134.608H65.2957V135.961H64.474V133.977H69.3942V133.045H64.4539V132.383ZM64.474 135.61H70.5366V136.281H64.474V135.61ZM65.6765 127.663C67.0393 127.663 68.0214 128.495 68.0214 129.678C68.0214 130.87 67.0393 131.702 65.6765 131.702C64.3337 131.702 63.3416 130.87 63.3416 129.678C63.3416 128.495 64.3337 127.663 65.6765 127.663ZM65.6765 128.345C64.8046 128.345 64.1533 128.896 64.1533 129.678C64.1533 130.469 64.8046 131.02 65.6765 131.02C66.5683 131.02 67.2197 130.469 67.2197 129.678C67.2197 128.896 66.5683 128.345 65.6765 128.345Z" fill="#333333"/>
<path d="M72.0866 134.558H80.2937V135.249H72.0866V134.558ZM75.7642 129.267H76.4958V129.467C76.4958 131.381 74.8423 132.664 72.8983 133.055L72.5676 132.373C74.3012 132.063 75.7642 130.93 75.7642 129.467V129.267ZM75.8745 129.267H76.596V129.467C76.596 130.93 78.059 132.063 79.7926 132.373L79.4619 133.055C77.5179 132.664 75.8745 131.381 75.8745 129.467V129.267ZM72.8381 128.786H79.5121V129.467H72.8381V128.786ZM75.7642 127.553H76.596V129.036H75.7642V127.553Z" fill="#333333"/>
<path d="M87.1247 127.343H87.9564V136.402H87.1247V127.343ZM87.756 131.061H89.4395V131.762H87.756V131.061ZM80.9418 128.786H86.2829V129.467H80.9418V128.786ZM83.6474 130.219C84.9301 130.219 85.852 131.081 85.852 132.303C85.852 133.526 84.9301 134.387 83.6474 134.387C82.3747 134.387 81.4428 133.526 81.4428 132.303C81.4428 131.081 82.3747 130.219 83.6474 130.219ZM83.6474 130.91C82.8257 130.91 82.2344 131.481 82.2344 132.303C82.2344 133.115 82.8257 133.696 83.6474 133.696C84.4691 133.696 85.0603 133.115 85.0603 132.303C85.0603 131.481 84.4691 130.91 83.6474 130.91ZM83.2165 127.453H84.0482V129.096H83.2165V127.453Z" fill="#333333"/>
<path d="M96.4709 127.333H97.3026V136.412H96.4709V127.333ZM92.5226 128.034C93.8654 128.034 94.8274 129.267 94.8274 131.191C94.8274 133.125 93.8654 134.357 92.5226 134.357C91.1898 134.357 90.2278 133.125 90.2278 131.191C90.2278 129.267 91.1898 128.034 92.5226 128.034ZM92.5226 128.786C91.6408 128.786 91.0195 129.728 91.0195 131.191C91.0195 132.664 91.6408 133.626 92.5226 133.626C93.4145 133.626 94.0258 132.664 94.0258 131.191C94.0258 129.728 93.4145 128.786 92.5226 128.786Z" fill="#333333"/>
<path d="M99.1632 128.225H103.282V134.117H99.1632V128.225ZM102.46 128.896H99.9749V133.446H102.46V128.896ZM105.436 127.333H106.258V136.412H105.436V127.333ZM103.121 130.64H105.747V131.331H103.121V130.64Z" fill="#333333"/>
<path d="M110.644 127.994C112.057 127.994 113.069 128.866 113.069 130.129C113.069 131.401 112.057 132.273 110.644 132.273C109.231 132.273 108.209 131.401 108.209 130.129C108.209 128.866 109.231 127.994 110.644 127.994ZM110.644 128.716C109.702 128.716 109.02 129.287 109.02 130.129C109.02 130.97 109.702 131.552 110.644 131.552C111.576 131.552 112.257 130.97 112.257 130.129C112.257 129.287 111.576 128.716 110.644 128.716ZM114.251 127.333H115.083V136.412H114.251V127.333ZM107.868 134.428L107.748 133.736C109.401 133.736 111.686 133.726 113.66 133.415L113.73 134.027C111.696 134.418 109.481 134.428 107.868 134.428Z" fill="#333333"/>
<path d="M120.946 128.335H121.637V129.257C121.637 130.92 120.615 132.313 119.092 132.864L118.661 132.203C120.024 131.722 120.946 130.549 120.946 129.257V128.335ZM121.106 128.335H121.798V129.257C121.798 130.479 122.74 131.582 124.082 132.033L123.652 132.684C122.148 132.173 121.106 130.85 121.106 129.257V128.335ZM118.882 128.094H123.842V128.766H118.882V128.094ZM125.125 127.353H125.966V133.977H125.125V127.353ZM120.144 135.52H126.237V136.201H120.144V135.52ZM120.144 133.355H120.966V135.82H120.144V133.355Z" fill="#333333"/>
<path d="M134.28 127.343H135.072V133.075H134.28V127.343ZM132.807 129.798H134.521V130.489H132.807V129.798ZM132.346 127.523H133.128V132.754H132.346V127.523ZM127.396 128.425H131.986V129.086H127.396V128.425ZM129.701 129.547C130.833 129.547 131.625 130.169 131.625 131.101C131.625 132.043 130.833 132.654 129.701 132.654C128.559 132.654 127.767 132.043 127.767 131.101C127.767 130.169 128.559 129.547 129.701 129.547ZM129.701 130.169C128.989 130.169 128.508 130.539 128.508 131.101C128.508 131.672 128.989 132.033 129.701 132.033C130.402 132.033 130.883 131.672 130.883 131.101C130.883 130.539 130.402 130.169 129.701 130.169ZM129.29 127.413H130.102V128.796H129.29V127.413ZM132.106 133.235C133.99 133.235 135.122 133.796 135.122 134.808C135.122 135.81 133.99 136.382 132.106 136.382C130.202 136.382 129.08 135.81 129.08 134.808C129.08 133.796 130.202 133.235 132.106 133.235ZM132.106 133.876C130.713 133.876 129.901 134.207 129.901 134.808C129.901 135.41 130.713 135.75 132.106 135.75C133.479 135.75 134.3 135.41 134.3 134.808C134.3 134.207 133.479 133.876 132.106 133.876Z" fill="#333333"/>
<path d="M142.358 129.357H145.094V130.048H142.358V129.357ZM142.358 132.223H145.094V132.914H142.358V132.223ZM140.694 128.034C142.007 128.034 142.949 129.267 142.949 131.191C142.949 133.125 142.007 134.357 140.694 134.357C139.372 134.357 138.44 133.125 138.44 131.191C138.44 129.267 139.372 128.034 140.694 128.034ZM140.694 128.786C139.823 128.786 139.221 129.728 139.221 131.191C139.221 132.664 139.823 133.626 140.694 133.626C141.566 133.626 142.167 132.664 142.167 131.191C142.167 129.728 141.566 128.786 140.694 128.786ZM144.913 127.333H145.735V136.412H144.913V127.333Z" fill="#333333"/>
<path d="M147.175 132.704H155.392V133.385H147.175V132.704ZM150.842 133.025H151.664V136.402H150.842V133.025ZM148.207 127.704H149.038V128.946H153.518V127.704H154.34V131.622H148.207V127.704ZM149.038 129.618V130.95H153.518V129.618H149.038Z" fill="#333333"/>
<path d="M158.375 131.912H159.206V134.077H158.375V131.912ZM158.786 127.924C160.178 127.924 161.181 128.796 161.181 130.058C161.181 131.321 160.178 132.193 158.786 132.193C157.393 132.193 156.391 131.321 156.391 130.058C156.391 128.796 157.393 127.924 158.786 127.924ZM158.786 128.635C157.864 128.635 157.202 129.217 157.202 130.058C157.202 130.9 157.864 131.481 158.786 131.481C159.707 131.481 160.369 130.9 160.369 130.058C160.369 129.217 159.707 128.635 158.786 128.635ZM162.213 127.343H163.044V136.402H162.213V127.343ZM162.804 131.071H164.477V131.772H162.804V131.071ZM156.1 134.448L155.98 133.756C157.613 133.746 159.798 133.736 161.642 133.486L161.712 134.107C159.798 134.428 157.683 134.448 156.1 134.448Z" fill="#333333"/>
<path d="M166.027 131.572H172.25V132.253H166.027V131.572ZM164.995 134.568H173.202V135.269H164.995V134.568ZM168.663 131.862H169.495V134.848H168.663V131.862ZM166.027 128.064H172.16V128.746H166.859V131.872H166.027V128.064Z" fill="#333333"/>
<path d="M176.309 128.044H180.318V128.726H176.309V128.044ZM177.672 130.068H178.494V132.333H177.672V130.068ZM179.987 128.044H180.809V128.525C180.809 129.116 180.809 130.018 180.568 131.211L179.757 131.121C179.987 129.928 179.987 129.106 179.987 128.525V128.044ZM182.041 127.343H182.873V134.167H182.041V127.343ZM182.492 130.289H184.166V130.98H182.492V130.289ZM177.151 135.52H183.164V136.201H177.151V135.52ZM177.151 133.536H177.973V135.73H177.151V133.536ZM175.848 132.724L175.758 132.043C177.372 132.043 179.596 132.003 181.43 131.752L181.49 132.353C179.606 132.684 177.442 132.724 175.848 132.724Z" fill="#333333"/>
<path d="M185.104 132.113H185.756C187.469 132.113 188.391 132.083 189.524 131.882L189.604 132.564C188.451 132.764 187.499 132.804 185.756 132.804H185.104V132.113ZM185.084 127.984H188.983V130.64H185.926V132.524H185.104V129.978H188.161V128.656H185.084V127.984ZM191.347 127.353H192.179V134.017H191.347V127.353ZM189.594 128.866H191.548V129.537H189.594V128.866ZM186.327 135.48H192.46V136.161H186.327V135.48ZM186.327 133.526H187.149V135.78H186.327V133.526ZM189.594 130.9H191.548V131.582H189.594V130.9Z" fill="#333333"/>
<path d="M200.213 127.333H201.044V136.412H200.213V127.333ZM196.264 128.034C197.607 128.034 198.569 129.267 198.569 131.191C198.569 133.125 197.607 134.357 196.264 134.357C194.932 134.357 193.97 133.125 193.97 131.191C193.97 129.267 194.932 128.034 196.264 128.034ZM196.264 128.786C195.383 128.786 194.761 129.728 194.761 131.191C194.761 132.664 195.383 133.626 196.264 133.626C197.156 133.626 197.768 132.664 197.768 131.191C197.768 129.728 197.156 128.786 196.264 128.786Z" fill="#333333"/>
<path d="M206.727 132.914H207.368V133.405C207.368 134.588 206.627 135.78 205.324 136.281L204.903 135.66C206.045 135.249 206.727 134.277 206.727 133.405V132.914ZM206.907 132.914H207.528V133.405C207.528 134.317 208.07 135.289 209.152 135.73L208.801 136.362C207.498 135.851 206.907 134.608 206.907 133.405V132.914ZM210.074 132.914H210.695V133.405C210.695 134.468 210.094 135.81 208.801 136.362L208.45 135.73C209.523 135.239 210.074 134.187 210.074 133.405V132.914ZM210.244 132.914H210.885V133.405C210.885 134.337 211.557 135.269 212.709 135.66L212.288 136.281C210.966 135.8 210.244 134.658 210.244 133.405V132.914ZM211.056 127.353H211.898V132.524H211.056V127.353ZM207.037 127.874C208.41 127.874 209.392 128.736 209.392 129.988C209.392 131.241 208.41 132.093 207.037 132.093C205.665 132.093 204.673 131.241 204.673 129.988C204.673 128.736 205.665 127.874 207.037 127.874ZM207.037 128.565C206.136 128.565 205.484 129.147 205.484 129.988C205.484 130.83 206.136 131.401 207.037 131.401C207.939 131.401 208.591 130.83 208.591 129.988C208.591 129.147 207.939 128.565 207.037 128.565Z" fill="#333333"/>
<path d="M217.466 127.914C219.35 127.914 220.753 128.916 220.753 130.419C220.753 131.932 219.35 132.924 217.466 132.924C215.582 132.924 214.169 131.932 214.169 130.419C214.169 128.916 215.582 127.914 217.466 127.914ZM217.466 128.595C216.033 128.595 214.971 129.327 214.971 130.419C214.971 131.501 216.033 132.243 217.466 132.243C218.899 132.243 219.961 131.501 219.961 130.419C219.961 129.327 218.899 128.595 217.466 128.595ZM213.377 134.508H221.585V135.209H213.377V134.508Z" fill="#333333"/>
<path d="M226.441 129.507H229.237V130.189H226.441V129.507ZM226.441 132.003H229.237V132.694H226.441V132.003ZM222.643 128.225H226.762V134.117H222.643V128.225ZM225.94 128.896H223.455V133.446H225.94V128.896ZM228.917 127.333H229.738V136.412H228.917V127.333Z" fill="#333333"/>
<path d="M52.9673 141.122H53.799V150.18H52.9673V141.122ZM48.8888 143.276H49.5602V144.048C49.5602 145.982 48.4679 147.735 47.0148 148.437L46.5439 147.795C47.8867 147.174 48.8888 145.631 48.8888 144.048V143.276ZM49.0491 143.276H49.7105V144.048C49.7105 145.561 50.7426 147.034 52.0954 147.625L51.6245 148.276C50.1614 147.615 49.0491 145.922 49.0491 144.048V143.276ZM46.7944 142.695H51.7848V143.366H46.7944V142.695ZM48.8888 141.282H49.7205V143.066H48.8888V141.282Z" fill="#333333"/>
<path d="M62.1832 141.122H62.9849V150.18H62.1832V141.122ZM60.7502 144.709H62.4838V145.39H60.7502V144.709ZM60.179 141.312H60.9707V149.729H60.179V141.312ZM55.6095 142.164H59.0667V147.755H55.6095V142.164ZM58.2851 142.825H56.3911V147.094H58.2851V142.825Z" fill="#333333"/>
<path d="M64.1941 148.377H72.4012V149.068H64.1941V148.377ZM67.8618 146.433H68.6935V148.667H67.8618V146.433ZM65.1862 141.793H71.3891V144.539H66.038V146.352H65.2163V143.867H70.5674V142.464H65.1862V141.793ZM65.2163 146.002H71.5996V146.683H65.2163V146.002Z" fill="#333333"/>
<path d="M81.611 141.132H82.4528V147.745H81.611V141.132ZM76.6306 149.299H82.7233V149.98H76.6306V149.299ZM76.6306 147.064H77.4523V149.529H76.6306V147.064ZM77.5926 141.753C78.9454 141.753 79.9475 142.675 79.9475 143.988C79.9475 145.29 78.9454 146.222 77.5926 146.222C76.2398 146.222 75.2277 145.29 75.2277 143.988C75.2277 142.675 76.2398 141.753 77.5926 141.753ZM77.5926 142.474C76.7108 142.474 76.0394 143.096 76.0394 143.988C76.0394 144.869 76.7108 145.491 77.5926 145.491C78.4745 145.491 79.1459 144.869 79.1459 143.988C79.1459 143.096 78.4745 142.474 77.5926 142.474Z" fill="#333333"/>
<path d="M90.1255 141.132H90.9572V147.926H90.1255V141.132ZM90.6967 144.098H92.3V144.799H90.6967V144.098ZM83.9526 142.224H89.3038V142.895H83.9526V142.224ZM86.6282 143.396C87.9109 143.396 88.7927 144.068 88.7927 145.09C88.7927 146.102 87.9109 146.773 86.6282 146.773C85.3355 146.773 84.4537 146.102 84.4537 145.09C84.4537 144.068 85.3355 143.396 86.6282 143.396ZM86.6282 144.048C85.8065 144.048 85.2453 144.458 85.2453 145.09C85.2453 145.711 85.8065 146.122 86.6282 146.122C87.4399 146.122 88.001 145.711 88.001 145.09C88.001 144.458 87.4399 144.048 86.6282 144.048ZM86.2073 141.122H87.039V142.575H86.2073V141.122ZM85.3155 149.299H91.3681V149.98H85.3155V149.299ZM85.3155 147.385H86.1472V149.589H85.3155V147.385Z" fill="#333333"/>
<path d="M96.9603 141.593H97.6517V142.514C97.6517 144.258 96.6697 145.701 95.1565 146.292L94.7156 145.621C96.0784 145.12 96.9603 143.897 96.9603 142.514V141.593ZM97.1106 141.593H97.792V142.575C97.792 143.797 98.6939 144.929 99.9966 145.38L99.5557 146.032C98.1027 145.491 97.1106 144.148 97.1106 142.575V141.593ZM100.959 141.122H101.79V146.613H100.959V141.122ZM101.56 143.456H103.133V144.158H101.56V143.456ZM98.9043 146.864C100.758 146.864 101.881 147.475 101.881 148.517C101.881 149.559 100.758 150.16 98.9043 150.16C97.0505 150.16 95.9281 149.559 95.9281 148.517C95.9281 147.475 97.0505 146.864 98.9043 146.864ZM98.9043 147.525C97.5615 147.525 96.7398 147.886 96.7398 148.517C96.7398 149.148 97.5615 149.509 98.9043 149.509C100.247 149.509 101.069 149.148 101.069 148.517C101.069 147.886 100.247 147.525 98.9043 147.525Z" fill="#333333"/>
<path d="M109.854 141.132H110.686V147.264H109.854V141.132ZM110.335 143.847H112.008V144.549H110.335V143.847ZM107.78 147.385C109.664 147.385 110.756 147.876 110.756 148.777C110.756 149.679 109.664 150.17 107.78 150.17C105.906 150.17 104.813 149.679 104.813 148.777C104.813 147.876 105.906 147.385 107.78 147.385ZM107.78 148.006C106.407 148.006 105.645 148.276 105.645 148.777C105.645 149.279 106.407 149.549 107.78 149.549C109.142 149.549 109.914 149.279 109.914 148.777C109.914 148.276 109.142 148.006 107.78 148.006ZM106.036 145.24H106.868V146.483H106.036V145.24ZM103.721 146.864L103.611 146.202C105.234 146.202 107.459 146.182 109.313 145.912L109.383 146.493C107.459 146.843 105.304 146.864 103.721 146.864ZM103.841 141.903H109.042V142.524H103.841V141.903ZM106.447 142.905C107.729 142.905 108.551 143.386 108.551 144.188C108.551 144.99 107.729 145.471 106.447 145.471C105.164 145.471 104.332 144.99 104.332 144.188C104.332 143.386 105.164 142.905 106.447 142.905ZM106.447 143.466C105.635 143.466 105.114 143.747 105.114 144.188C105.114 144.639 105.635 144.909 106.447 144.909C107.258 144.909 107.77 144.639 107.77 144.188C107.77 143.747 107.258 143.466 106.447 143.466ZM106.036 141.051H106.868V142.134H106.036V141.051Z" fill="#333333"/>
<path d="M114.775 141.963H119.615V142.645H114.775V141.963ZM114.624 146.453L114.524 145.751C116.107 145.741 118.262 145.721 120.036 145.501L120.096 146.122C118.292 146.403 116.168 146.453 114.624 146.453ZM115.667 142.474H116.468V145.891H115.667V142.474ZM117.911 142.474H118.713V145.891H117.911V142.474ZM120.697 141.132H121.529V147.805H120.697V141.132ZM121.268 143.877H122.872V144.579H121.268V143.877ZM115.887 149.299H121.94V149.98H115.887V149.299ZM115.887 147.164H116.719V149.479H115.887V147.164Z" fill="#333333"/>
<path d="M129.602 141.112H130.434V147.675H129.602V141.112ZM130.184 143.807H131.777V144.499H130.184V143.807ZM123.82 145.39H124.522C126.386 145.39 127.438 145.34 128.65 145.09L128.741 145.761C127.498 146.022 126.426 146.082 124.522 146.082H123.82V145.39ZM123.82 141.893H127.819V142.585H124.642V145.761H123.82V141.893ZM124.792 149.299H130.845V149.98H124.792V149.299ZM124.792 147.024H125.624V149.609H124.792V147.024Z" fill="#333333"/>
<path d="M133.427 143.637H139.57V144.318H133.427V143.637ZM133.427 141.302H134.249V143.937H133.427V141.302ZM132.315 145.37H140.502V146.042H132.315V145.37ZM136.393 146.853C138.327 146.853 139.5 147.445 139.5 148.507C139.5 149.549 138.327 150.15 136.393 150.15C134.459 150.15 133.287 149.549 133.287 148.507C133.287 147.445 134.459 146.853 136.393 146.853ZM136.393 147.505C134.98 147.505 134.129 147.866 134.129 148.507C134.129 149.128 134.98 149.489 136.393 149.489C137.816 149.489 138.658 149.128 138.658 148.507C138.658 147.866 137.816 147.505 136.393 147.505Z" fill="#333333"/>
<path d="M141.591 145.611H142.242C144.026 145.611 144.908 145.581 145.99 145.39L146.08 146.062C144.958 146.262 144.056 146.292 142.242 146.292H141.591V145.611ZM141.571 141.663H145.479V144.238H142.413V146.022H141.591V143.587H144.657V142.344H141.571V141.663ZM147.834 141.132H148.666V146.693H147.834V141.132ZM146.08 142.464H148.024V143.146H146.08V142.464ZM146.08 144.338H148.024V145.02H146.08V144.338ZM142.603 147.184H148.666V150.2H147.834V147.866H142.603V147.184Z" fill="#333333"/>
<path d="M154.214 141.272C156.208 141.272 157.401 141.833 157.401 142.845C157.401 143.857 156.208 144.418 154.214 144.418C152.21 144.418 151.027 143.857 151.027 142.845C151.027 141.833 152.21 141.272 154.214 141.272ZM154.214 141.903C152.731 141.903 151.879 142.244 151.879 142.845C151.879 143.446 152.731 143.787 154.214 143.787C155.687 143.787 156.539 143.446 156.539 142.845C156.539 142.244 155.687 141.903 154.214 141.903ZM150.115 145.02H158.302V145.691H150.115V145.02ZM151.107 146.463H157.26V148.507H151.949V149.609H151.127V147.906H156.439V147.104H151.107V146.463ZM151.127 149.429H157.531V150.08H151.127V149.429Z" fill="#333333"/>
<path d="M160.948 145.701H169.136V146.372H160.948V145.701ZM161.86 147.334H168.123V150.18H167.292V148.006H161.86V147.334ZM164.636 141.091H165.458V142.354H164.636V141.091ZM164.596 142.464H165.328V142.615C165.328 144.098 163.674 144.98 161.7 145.19L161.439 144.549C163.193 144.388 164.596 143.657 164.596 142.615V142.464ZM164.766 142.464H165.498V142.615C165.498 143.657 166.901 144.388 168.655 144.549L168.394 145.19C166.41 144.98 164.766 144.098 164.766 142.615V142.464ZM161.79 142.023H168.304V142.695H161.79V142.023Z" fill="#333333"/>
<path d="M174.694 143.466H176.738V144.158H174.694V143.466ZM176.478 141.122H177.309V146.523H176.478V141.122ZM174.333 146.793C176.197 146.793 177.349 147.425 177.349 148.487C177.349 149.559 176.197 150.17 174.333 150.17C172.459 150.17 171.307 149.559 171.307 148.487C171.307 147.425 172.459 146.793 174.333 146.793ZM174.333 147.445C172.97 147.445 172.139 147.826 172.139 148.487C172.139 149.138 172.97 149.519 174.333 149.519C175.696 149.519 176.528 149.138 176.528 148.487C176.528 147.826 175.696 147.445 174.333 147.445ZM172.169 142.033H172.85V142.765C172.85 144.438 171.828 145.871 170.325 146.433L169.894 145.771C171.237 145.28 172.169 144.068 172.169 142.765V142.033ZM172.329 142.033H173V142.765C173 143.937 173.882 145.06 175.195 145.521L174.774 146.182C173.301 145.651 172.329 144.288 172.329 142.765V142.033ZM170.144 141.783H174.984V142.464H170.144V141.783Z" fill="#333333"/>
<path d="M184.962 141.122H185.794V146.382H184.962V141.122ZM185.433 143.426H187.137V144.128H185.433V143.426ZM180.102 146.783H180.914V147.745H184.972V146.783H185.794V150.06H180.102V146.783ZM180.914 148.387V149.389H184.972V148.387H180.914ZM178.789 142.043H184.14V142.725H178.789V142.043ZM181.465 143.136C182.757 143.136 183.629 143.767 183.629 144.729C183.629 145.691 182.757 146.322 181.465 146.322C180.162 146.322 179.29 145.691 179.29 144.729C179.29 143.767 180.162 143.136 181.465 143.136ZM181.465 143.767C180.633 143.767 180.082 144.148 180.082 144.729C180.082 145.31 180.633 145.691 181.465 145.691C182.276 145.691 182.838 145.31 182.838 144.729C182.838 144.148 182.276 143.767 181.465 143.767ZM181.044 141.031H181.876V142.414H181.044V141.031Z" fill="#333333"/>
<path d="M194.258 141.122H195.09V150.18H194.258V141.122ZM188.246 142.003H189.067V147.615H188.246V142.003ZM188.246 147.124H188.987C190.36 147.124 191.793 147.024 193.326 146.703L193.426 147.415C191.853 147.735 190.42 147.846 188.987 147.846H188.246V147.124Z" fill="#333333"/>
<path d="M202.702 141.112H203.544V150.19H202.702V141.112ZM203.344 144.689H205.027V145.39H203.344V144.689ZM196.96 147.234H197.672C199.345 147.234 200.518 147.174 201.871 146.924L201.961 147.625C200.568 147.886 199.376 147.936 197.672 147.936H196.96V147.234ZM196.96 141.993H201.169V142.675H197.782V147.545H196.96V141.993Z" fill="#333333"/>
<path d="M206.367 149.539C206.006 149.539 205.715 149.248 205.715 148.838C205.715 148.417 206.006 148.136 206.367 148.136C206.738 148.136 207.038 148.417 207.038 148.838C207.038 149.248 206.738 149.539 206.367 149.539Z" fill="#333333"/>
<path opacity="0.2" fill-rule="evenodd" clip-rule="evenodd" d="M162.214 3.46924H174.114V4.09554H162.214V3.46924Z" fill="#979797"/>
<path opacity="0.2" fill-rule="evenodd" clip-rule="evenodd" d="M78.9141 3.46924H90.8139V4.09554H78.9141V3.46924Z" fill="#979797"/>
<path d="M120.891 106.695C120.082 106.275 119.978 105.048 119.878 103.864C119.923 103.013 119.699 102.173 119.246 101.49C118.303 100.772 117.188 100.391 116.049 100.396C114.913 100.357 113.799 100.033 112.788 99.448C111.103 98.3059 111.186 96.1356 111.265 94.0377C111.332 92.2734 111.395 90.6079 110.338 89.8082C109.878 89.4812 109.374 89.2387 108.846 89.0897C108.02 88.8136 107.368 88.59 107.098 87.2817C107.428 86.1154 107.945 85.0269 108.626 84.0706C109.415 82.7507 110.129 81.3765 110.764 79.956C111.087 79.2496 111.148 78.429 110.936 77.672C110.817 77.1408 110.758 76.5952 110.76 76.0476C110.777 73.7293 111.248 71.4436 112.14 69.3525C113.032 67.2614 114.322 65.4162 115.92 63.9476C119.43 60.7894 123.816 59.1144 128.313 59.2146C132.896 59.1631 137.334 61.0203 140.769 64.4274C142.375 65.9944 143.666 67.9272 144.555 70.0975C145.445 72.2677 145.913 74.6257 145.929 77.0147C145.929 81.3042 144.093 84.6253 141.768 88.8324C140.823 90.5416 139.846 92.3097 138.875 94.3426C138.123 95.9196 137.87 97.7361 138.157 99.4954C138.412 100.968 138.829 102.399 139.397 103.757C139.941 105.187 140.334 106.219 139.874 106.695H120.891ZM130.661 82.5924C131.278 83.0924 131.978 83.4477 132.72 83.6369C133.462 83.8262 134.231 83.8456 134.98 83.694C135.728 83.5424 136.442 83.2228 137.079 82.7545C137.715 82.2861 138.261 81.6786 138.683 80.9681C139.465 80.9551 140.221 80.6502 140.831 80.1016C141.441 79.553 141.872 78.7918 142.054 77.9381C142.447 77.6384 142.757 77.22 142.947 76.731C143.137 76.2421 143.2 75.7027 143.129 75.1751C143.058 74.6476 142.855 74.1536 142.544 73.7501C142.233 73.3466 141.826 73.0502 141.372 72.8952C141.388 72.7619 141.397 72.6274 141.396 72.4928C141.396 71.7435 141.13 71.0249 140.658 70.4951C140.186 69.9652 139.547 69.6672 138.879 69.6665C138.784 69.6659 138.689 69.6717 138.594 69.684C138.446 68.1249 137.789 66.6828 136.75 65.6358C135.71 64.5889 134.362 64.0115 132.966 64.0151C132.626 64.0149 132.287 64.0488 131.953 64.1163C131.517 63.5652 130.906 63.2273 130.252 63.1746C129.597 63.1218 128.949 63.3584 128.448 63.8339C127.199 63.1352 125.765 62.9783 124.419 63.3933C123.074 63.8083 121.912 64.766 121.157 66.083C120.946 66.0196 120.728 65.9877 120.51 65.988C120.019 65.9895 119.539 66.1521 119.129 66.4558C118.72 66.7595 118.398 67.191 118.203 67.6973C118.138 67.6973 118.07 67.6911 117.997 67.6911C117.441 67.6918 116.892 67.8406 116.397 68.1254C115.901 68.4101 115.472 68.8227 115.146 69.3293C114.82 69.8359 114.606 70.422 114.52 71.0397C114.435 71.6574 114.481 72.2891 114.655 72.8829C114.829 73.4767 115.125 74.0158 115.521 74.4559C115.916 74.8961 116.399 75.2248 116.929 75.4151C117.459 75.6053 118.022 75.6518 118.572 75.5507C119.121 75.4495 119.641 75.2036 120.09 74.8331C120.685 75.8678 121.536 76.686 122.538 77.1884C122.584 78.2376 122.861 79.2576 123.343 80.1573C123.826 81.0569 124.5 81.8083 125.305 82.3442C126.109 82.8801 127.02 83.1838 127.954 83.2282C128.889 83.2726 129.819 83.0563 130.661 82.5987V82.5924ZM130.897 79.7186L131.032 79.2663C131.268 78.469 131.268 77.6071 131.032 76.8098L130.897 76.3587C130.871 76.27 130.864 76.1756 130.876 76.0832C130.889 75.9908 130.921 75.903 130.969 75.8272C131.018 75.7513 131.082 75.6895 131.156 75.6468C131.23 75.6041 131.312 75.5817 131.396 75.5816C131.608 75.5821 131.814 75.6574 131.987 75.7968C132.159 75.9362 132.287 76.1328 132.355 76.3587L132.432 76.6174L132.756 76.4924C133.466 76.2259 134.234 76.2259 134.944 76.4924L135.346 76.6424C135.547 76.718 135.723 76.8628 135.847 77.0563C135.971 77.2498 136.038 77.4822 136.038 77.7207C136.038 77.8142 136.018 77.9063 135.98 77.9894C135.942 78.0726 135.887 78.1444 135.819 78.1989C135.752 78.2535 135.674 78.2892 135.591 78.3032C135.509 78.3171 135.425 78.3089 135.346 78.2792L134.944 78.1293C134.234 77.8627 133.466 77.8627 132.756 78.1293L132.663 78.1643C132.652 78.5375 132.593 78.9069 132.488 79.2613L132.354 79.7136C132.286 79.9395 132.157 80.1358 131.985 80.2751C131.813 80.4143 131.607 80.4893 131.394 80.4895C131.312 80.4891 131.231 80.467 131.158 80.4249C131.084 80.3829 131.021 80.3221 130.973 80.2474C130.924 80.1728 130.892 80.0863 130.878 79.9951C130.865 79.9039 130.871 79.8105 130.896 79.7224L130.897 79.7186ZM124.487 77.1784C124.369 76.9809 124.308 76.7465 124.315 76.5083C124.321 76.2701 124.395 76.0403 124.524 75.8515L124.782 75.4766C125.238 74.8098 125.874 74.3274 126.595 74.1022L127.003 73.9772C127.208 73.9123 127.426 73.9217 127.626 74.004C127.826 74.0864 127.997 74.2375 128.116 74.4358C128.163 74.5133 128.192 74.6022 128.202 74.695C128.212 74.7879 128.203 74.8821 128.174 74.9698C128.145 75.0576 128.098 75.1364 128.037 75.1997C127.975 75.2631 127.902 75.3092 127.821 75.3342L127.413 75.4591C126.692 75.6849 126.056 76.1672 125.6 76.8335L125.342 77.2084C125.291 77.2826 125.225 77.3422 125.15 77.3822C125.075 77.4223 124.992 77.4416 124.909 77.4387C124.826 77.4358 124.744 77.4106 124.671 77.3654C124.598 77.3201 124.536 77.256 124.49 77.1784H124.487ZM136.78 74.7269L136.547 74.3296C136.133 73.6283 135.935 72.795 135.98 71.9556L136.006 71.4808C136.02 71.2445 136.1 71.0191 136.234 70.8361C136.367 70.6531 136.549 70.5216 136.753 70.4599C136.833 70.4358 136.917 70.4335 136.999 70.4531C137.08 70.4728 137.156 70.514 137.221 70.5732C137.285 70.6324 137.336 70.7079 137.37 70.7936C137.403 70.8793 137.418 70.9726 137.412 71.0659L137.387 71.5407C137.342 72.38 137.541 73.213 137.953 73.9148L138.187 74.3121C138.233 74.39 138.262 74.479 138.271 74.5719C138.28 74.6647 138.269 74.7586 138.24 74.8459C138.21 74.9332 138.162 75.0114 138.101 75.0739C138.039 75.1364 137.965 75.1815 137.884 75.2055C137.679 75.2676 137.462 75.2556 137.263 75.171C137.065 75.0864 136.895 74.9336 136.778 74.7344L136.78 74.7269ZM126.677 72.2092C126.581 71.9968 126.547 71.7558 126.579 71.5204C126.612 71.2849 126.71 71.0669 126.859 70.8973L127.156 70.5574C127.295 70.3985 127.446 70.2535 127.608 70.1238C127.483 69.7866 127.452 69.4154 127.517 69.058L127.534 68.963C127.578 68.7218 127.68 68.4991 127.831 68.3198C127.981 68.1406 128.173 68.012 128.384 67.9485C128.459 67.9247 128.537 67.923 128.612 67.9436C128.687 67.9641 128.756 68.0062 128.812 68.0657C128.868 68.1252 128.909 68.2 128.932 68.2828C128.955 68.3657 128.958 68.4537 128.941 68.5382L128.924 68.6332C128.873 68.9112 128.881 69.1987 128.946 69.4728C128.998 69.4612 129.051 69.4508 129.103 69.4416L129.522 69.3704C129.731 69.3347 129.946 69.3742 130.135 69.4832C130.324 69.5922 130.477 69.7652 130.573 69.9776C130.611 70.0609 130.631 70.153 130.63 70.2464C130.63 70.3398 130.61 70.4319 130.572 70.515C130.534 70.5981 130.479 70.6698 130.412 70.7243C130.344 70.7789 130.266 70.8146 130.184 70.8285L129.765 70.8997C129.611 70.9256 129.459 70.9632 129.309 71.0122C129.259 71.0588 129.201 71.0924 129.138 71.1109C129.081 71.1278 129.023 71.1399 128.965 71.1471C128.534 71.346 128.143 71.641 127.816 72.0143L127.519 72.3529C127.46 72.4191 127.389 72.4689 127.31 72.4981C127.231 72.5274 127.147 72.5354 127.065 72.5214C126.983 72.5074 126.905 72.4718 126.838 72.4175C126.771 72.3633 126.715 72.2919 126.677 72.2092ZM121.643 70.9222L121.473 70.4862C121.174 69.7155 120.661 69.0748 120.009 68.6607L119.641 68.4258C119.569 68.3797 119.507 68.3149 119.462 68.2369C119.416 68.1588 119.387 68.0697 119.378 67.9769C119.369 67.884 119.38 67.7901 119.41 67.7028C119.439 67.6156 119.487 67.5375 119.549 67.4749C119.707 67.316 119.906 67.217 120.117 67.1921C120.328 67.1672 120.541 67.2177 120.725 67.3362L121.093 67.5711C121.326 67.7187 121.542 67.8961 121.738 68.0997C121.773 68.0615 121.81 68.026 121.849 67.9934L122.048 67.8198C122.546 67.3851 123.174 67.1828 123.801 67.255L124.052 67.2837C124.267 67.3087 124.47 67.4054 124.635 67.5613C124.8 67.7173 124.919 67.9253 124.978 68.1584C125 68.2455 125.003 68.3373 124.986 68.4258C124.969 68.5144 124.933 68.5969 124.881 68.6663C124.83 68.7357 124.763 68.7898 124.689 68.8239C124.614 68.858 124.533 68.871 124.453 68.8618L124.201 68.8331C123.609 68.7664 123.016 68.9441 122.532 69.3329L122.56 69.4041L122.73 69.8389C122.815 70.0577 122.836 70.3008 122.792 70.534C122.747 70.7672 122.638 70.9786 122.48 71.1384C122.418 71.2011 122.344 71.2463 122.263 71.2704C122.183 71.2945 122.098 71.2968 122.017 71.277C121.935 71.2572 121.859 71.216 121.795 71.1567C121.731 71.0974 121.68 71.0217 121.646 70.936L121.643 70.9222Z" fill="#B0A589"/>
<defs>
<clipPath id="clip0_2149_11358">
<rect width="250.523" height="217.328" fill="white" transform="translate(0 230)"/>
</clipPath>
</defs>
</svg>
