<svg width="160.000000" height="160.000000" viewBox="0 0 160 160" fill="none" xmlns="http://www.w3.org/2000/svg" xmlns:xlink="http://www.w3.org/1999/xlink">
	<desc>
			Created with Pixso.
	</desc>
	<defs/>
	<path id="Ellipse 22" d="M160 80C160 124.183 124.183 160 80 160C35.8174 160 0 124.183 0 80C0 35.8172 35.8174 0 80 0C124.183 0 160 35.8172 160 80Z" fill-rule="nonzero" fill="#FFFFFF"/>
	<path id="Ellipse 22 (Stroke)" d="M80 158.345C123.269 158.345 158.345 123.269 158.345 80C158.345 36.7313 123.269 1.65517 80 1.65517C36.7314 1.65517 1.65527 36.7313 1.65527 80C1.65527 123.269 36.7314 158.345 80 158.345ZM80 160C124.183 160 160 124.183 160 80C160 35.8172 124.183 0 80 0C35.8174 0 0 35.8172 0 80C0 124.183 35.8174 160 80 160Z" fill-rule="evenodd" fill="#FD8106"/>
	<path id="3" d="M64.4492 76.9831C68.0127 76.9831 70.8994 76.8671 73.1084 76.6348C75.3467 76.3736 77.0703 75.9963 78.2773 75.5029C79.5146 74.9804 80.3389 74.3419 80.752 73.5872C81.1934 72.8036 81.4141 71.9038 81.4141 70.8879C81.4141 69.6979 81.1641 68.682 80.6631 67.8403C80.1621 66.9986 79.4854 66.3165 78.6309 65.794C77.7764 65.2716 76.79 64.8943 75.6709 64.6621C74.5518 64.4008 73.373 64.2702 72.1367 64.2702C70.958 64.2702 69.7207 64.3428 68.4248 64.4879C67.1582 64.633 65.877 64.8507 64.5811 65.141C63.3145 65.4022 62.0635 65.7215 60.8262 66.0988C59.5889 66.4761 58.4404 66.897 57.3799 67.3614L57.3799 55.5192C60.1484 54.2421 62.9912 53.3278 65.9072 52.7763C68.8525 52.1958 72.1221 51.8911 75.7148 51.8621C79.1318 51.8911 82.1357 52.1523 84.7275 52.6457C87.3203 53.1101 89.5586 53.7632 91.4434 54.6049C93.3281 55.4466 94.8896 56.4335 96.127 57.5655C97.3936 58.6974 98.3945 59.931 99.1309 61.2661C99.8965 62.6013 100.427 63.9945 100.722 65.4457C101.046 66.897 101.207 68.3627 101.207 69.843C101.207 72.0779 100.824 73.9791 100.059 75.5464C99.293 77.1138 98.3359 78.4199 97.1865 79.4648C96.0381 80.4807 94.7861 81.2788 93.4316 81.8593C92.1064 82.4108 90.8691 82.8172 89.7207 83.0784C91.0459 83.3106 92.46 83.7024 93.9619 84.2539C95.4639 84.8054 96.8486 85.6181 98.1152 86.692C99.4111 87.7659 100.486 89.1446 101.34 90.828C102.194 92.4825 102.621 94.5432 102.621 97.0104C102.621 98.6648 102.444 100.276 102.091 101.843C101.768 103.41 101.192 104.891 100.368 106.284C99.5732 107.677 98.4834 108.969 97.0986 110.159C95.7441 111.32 94.0352 112.321 91.9736 113.163C89.9414 114.004 87.5117 114.658 84.6836 115.122C81.8857 115.615 78.6309 115.862 74.9199 115.862C71.5615 115.862 68.4697 115.601 65.6416 115.078C62.8145 114.585 60.0605 113.787 57.3799 112.684L57.3799 100.363C58.4111 100.827 59.5449 101.248 60.7822 101.625C62.0186 102.003 63.2852 102.336 64.5811 102.627C65.877 102.888 67.1738 103.091 68.4697 103.236C69.7656 103.381 70.9873 103.454 72.1367 103.454C73.3145 103.454 74.4629 103.323 75.582 103.062C76.7021 102.801 77.6885 102.38 78.543 101.799C79.4258 101.219 80.1182 100.464 80.6191 99.5355C81.1494 98.6067 81.4141 97.4603 81.4141 96.0961C81.4141 94.9351 81.2227 93.8757 80.8398 92.9178C80.457 91.931 79.6621 91.0893 78.4541 90.3927C77.2764 89.6671 75.5674 89.1156 73.3291 88.7383C71.1201 88.3319 68.1602 88.1287 64.4492 88.1287L64.4492 76.9831Z" fill-rule="nonzero" fill="#FD8106"/>
	<path id="60점" d="M96.0547 131.054L94.2363 131.054L94.2363 134.939L91.4111 134.939L91.4111 136.422L94.2363 136.422L94.2363 140.341L96.0547 140.341L96.0547 131.054ZM91.4287 139.935L92.3115 138.523C89.9463 137.693 88.5869 135.698 88.5869 133.72L88.5869 133.455L91.9062 133.455L91.9062 131.99L83.3779 131.99L83.3779 133.455L86.751 133.455L86.751 133.72C86.751 135.892 85.3027 137.993 82.8311 138.858L83.7666 140.288C85.6562 139.635 86.998 138.24 87.7041 136.527C88.375 138.081 89.6641 139.317 91.4287 139.935ZM62.7461 139.405C62.7461 143.819 64.7588 145.885 67.2305 145.885C69.3496 145.885 71.1143 144.19 71.1143 141.612C71.1143 138.876 69.6494 137.534 67.46 137.534C66.5244 137.534 65.3945 138.099 64.6348 139.035C64.7236 135.327 66.1006 134.073 67.7598 134.073C68.5195 134.073 69.3135 134.479 69.79 135.044L70.9023 133.809C70.1611 133.032 69.1016 132.414 67.6543 132.414C65.0938 132.414 62.7461 134.409 62.7461 139.405ZM76.9111 145.885C74.3691 145.885 72.709 143.625 72.709 139.105C72.709 134.603 74.3691 132.414 76.9111 132.414C79.4531 132.414 81.1133 134.621 81.1133 139.105C81.1133 143.625 79.4531 145.885 76.9111 145.885ZM76.9111 144.278C78.2354 144.278 79.1709 142.866 79.1709 139.105C79.1709 135.38 78.2354 134.02 76.9111 134.02C75.5869 134.02 74.6514 135.38 74.6514 139.105C74.6514 142.866 75.5869 144.278 76.9111 144.278ZM64.6709 140.535C65.4473 139.423 66.3477 139.017 67.0889 139.017C68.4844 139.017 69.2432 139.953 69.2432 141.612C69.2432 143.307 68.3428 144.331 67.2129 144.331C65.8184 144.331 64.8828 143.113 64.6709 140.535ZM85.585 141.065L85.585 146.82L96.0547 146.82L96.0547 141.065L85.585 141.065ZM87.3682 145.373L87.3682 142.513L94.2715 142.513L94.2715 145.373L87.3682 145.373Z" fill-rule="evenodd" fill="#333333"/>
	<path id="등급" d="M77.5654 30.1709L77.5654 32.007L66.3193 32.007L66.3193 26.1455L77.4775 26.1455L77.4775 27.9993L68.6318 27.9993L68.6318 30.1709L77.5654 30.1709ZM95.4844 32.0423L93.4014 32.0423C93.7539 30.2238 93.7539 28.935 93.7539 27.6638L93.7539 26.3573L82.5781 26.3573L82.5781 28.2111L91.459 28.2111C91.459 29.2881 91.4062 30.5063 91.0879 32.0423L80.7598 32.0423L80.7598 33.9138L95.4844 33.9138L95.4844 32.0423ZM64.5361 33.1369L79.2432 33.1369L79.2432 35.0437L64.5361 35.0437L64.5361 33.1369ZM91.3887 34.9554L91.3887 36.6503L84.8203 36.6503L84.8203 34.9554L82.5078 34.9554L82.5078 41.788L93.7188 41.788L93.7188 34.9554L91.3887 34.9554ZM71.8281 35.9794C75.3408 35.9794 77.4775 37.0564 77.4775 38.9808C77.4775 40.8876 75.3408 41.9645 71.8281 41.9645C68.3145 41.9645 66.1953 40.8876 66.1953 38.9808C66.1953 37.0564 68.3145 35.9794 71.8281 35.9794ZM71.8281 40.199C73.999 40.199 75.1113 39.8282 75.1113 38.9808C75.1113 38.1333 73.999 37.7449 71.8281 37.7449C69.6562 37.7449 68.5439 38.1333 68.5439 38.9808C68.5439 39.8282 69.6562 40.199 71.8281 40.199ZM91.3887 38.4511L91.3887 39.9165L84.8203 39.9165L84.8203 38.4511L91.3887 38.4511Z" fill-rule="evenodd" fill="#333333"/>
</svg>
