<svg width="340" height="208" viewBox="0 0 340 208" fill="none" xmlns="http://www.w3.org/2000/svg">
<rect width="332" height="200" transform="translate(4)" fill="#F8F8F8"/>
<g filter="url(#filter0_d_516_256)">
<g clip-path="url(#clip0_516_256)">
<rect opacity="0.9" x="4" width="332" height="203.046" rx="16" fill="white"/>
<path d="M250.783 130.196C249.173 130.196 248.123 129.552 247.423 128.768L248.221 127.732C248.823 128.348 249.579 128.866 250.657 128.866C251.805 128.866 252.603 128.222 252.603 127.158C252.603 126.01 251.875 125.282 249.565 125.282V124.078C251.581 124.078 252.253 123.322 252.253 122.286C252.253 121.376 251.665 120.802 250.671 120.802C249.887 120.802 249.215 121.18 248.627 121.768L247.773 120.746C248.599 120.018 249.551 119.514 250.741 119.514C252.589 119.514 253.891 120.466 253.891 122.16C253.891 123.35 253.205 124.176 252.113 124.582V124.652C253.303 124.96 254.241 125.842 254.241 127.242C254.241 129.104 252.687 130.196 250.783 130.196ZM258.781 130.196C257.157 130.196 256.135 129.538 255.393 128.81L256.177 127.76C256.751 128.348 257.507 128.866 258.585 128.866C259.747 128.866 260.615 128.04 260.615 126.668C260.615 125.31 259.831 124.526 258.655 124.526C258.011 124.526 257.619 124.708 257.017 125.1L256.219 124.596L256.527 119.696H261.763V121.068H257.941L257.703 123.7C258.137 123.476 258.557 123.35 259.117 123.35C260.839 123.35 262.253 124.358 262.253 126.626C262.253 128.894 260.573 130.196 258.781 130.196ZM267.004 130.196C264.974 130.196 263.672 128.39 263.672 124.806C263.672 121.25 264.974 119.514 267.004 119.514C269.02 119.514 270.336 121.25 270.336 124.806C270.336 128.39 269.02 130.196 267.004 130.196ZM267.004 128.908C268.054 128.908 268.782 127.788 268.782 124.806C268.782 121.866 268.054 120.774 267.004 120.774C265.954 120.774 265.212 121.866 265.212 124.806C265.212 127.788 265.954 128.908 267.004 128.908ZM272.09 132.814L271.74 131.904C272.706 131.498 273.266 130.784 273.266 129.944L273.154 128.656L273.826 129.706C273.63 129.916 273.378 130 273.112 130C272.538 130 272.02 129.622 272.02 128.964C272.02 128.32 272.538 127.928 273.154 127.928C273.938 127.928 274.4 128.572 274.4 129.65C274.4 131.134 273.546 132.268 272.09 132.814ZM279.158 130.196C277.128 130.196 275.826 128.39 275.826 124.806C275.826 121.25 277.128 119.514 279.158 119.514C281.174 119.514 282.49 121.25 282.49 124.806C282.49 128.39 281.174 130.196 279.158 130.196ZM279.158 128.908C280.208 128.908 280.936 127.788 280.936 124.806C280.936 121.866 280.208 120.774 279.158 120.774C278.108 120.774 277.366 121.866 277.366 124.806C277.366 127.788 278.108 128.908 279.158 128.908ZM287.142 130.196C285.112 130.196 283.81 128.39 283.81 124.806C283.81 121.25 285.112 119.514 287.142 119.514C289.158 119.514 290.474 121.25 290.474 124.806C290.474 128.39 289.158 130.196 287.142 130.196ZM287.142 128.908C288.192 128.908 288.92 127.788 288.92 124.806C288.92 121.866 288.192 120.774 287.142 120.774C286.092 120.774 285.35 121.866 285.35 124.806C285.35 127.788 286.092 128.908 287.142 128.908ZM295.127 130.196C293.097 130.196 291.795 128.39 291.795 124.806C291.795 121.25 293.097 119.514 295.127 119.514C297.143 119.514 298.459 121.25 298.459 124.806C298.459 128.39 297.143 130.196 295.127 130.196ZM295.127 128.908C296.177 128.908 296.905 127.788 296.905 124.806C296.905 121.866 296.177 120.774 295.127 120.774C294.077 120.774 293.335 121.866 293.335 124.806C293.335 127.788 294.077 128.908 295.127 128.908ZM303.251 124.862H304.721V127.69H303.251V124.862ZM308.893 118.366H310.363V128.082H308.893V118.366ZM301.417 129.72H310.657V130.91H301.417V129.72ZM301.417 127.144H302.887V130.042H301.417V127.144ZM299.891 125.352L299.695 124.162C302.047 124.162 305.197 124.134 307.899 123.784L307.997 124.848C305.253 125.296 302.201 125.352 299.891 125.352ZM306.373 125.87H309.243V126.906H306.373V125.87ZM303.839 118.856C305.701 118.856 307.003 119.752 307.003 121.11C307.003 122.468 305.701 123.35 303.839 123.35C301.963 123.35 300.675 122.468 300.675 121.11C300.675 119.752 301.963 118.856 303.839 118.856ZM303.839 119.934C302.789 119.934 302.061 120.368 302.061 121.11C302.061 121.838 302.789 122.272 303.839 122.272C304.875 122.272 305.603 121.838 305.603 121.11C305.603 120.368 304.875 119.934 303.839 119.934Z" fill="#333333"/>
<path opacity="0.4" d="M236.081 153V151.67H238.349V144.502H236.487V143.48C237.467 143.312 238.139 143.06 238.741 142.696H239.959V151.67H241.975V153H236.081ZM243.967 155.814L243.617 154.904C244.583 154.498 245.143 153.784 245.143 152.944L245.031 151.656L245.703 152.706C245.507 152.916 245.255 153 244.989 153C244.415 153 243.897 152.622 243.897 151.964C243.897 151.32 244.415 150.928 245.031 150.928C245.815 150.928 246.277 151.572 246.277 152.65C246.277 154.134 245.423 155.268 243.967 155.814ZM251.343 153.196C249.383 153.196 247.787 151.544 247.787 148.044C247.787 144.096 249.635 142.514 251.679 142.514C252.827 142.514 253.667 142.99 254.255 143.62L253.373 144.6C252.995 144.152 252.365 143.83 251.763 143.83C250.391 143.83 249.285 144.894 249.285 148.044C249.285 150.704 250.069 151.95 251.329 151.95C252.225 151.95 252.925 151.138 252.925 149.808C252.925 148.478 252.323 147.736 251.231 147.736C250.615 147.736 249.873 148.1 249.257 149.038L249.187 147.862C249.789 147.05 250.741 146.574 251.511 146.574C253.247 146.574 254.423 147.624 254.423 149.808C254.423 151.852 253.009 153.196 251.343 153.196ZM259.019 153.196C256.989 153.196 255.687 151.39 255.687 147.806C255.687 144.25 256.989 142.514 259.019 142.514C261.035 142.514 262.351 144.25 262.351 147.806C262.351 151.39 261.035 153.196 259.019 153.196ZM259.019 151.908C260.069 151.908 260.797 150.788 260.797 147.806C260.797 144.866 260.069 143.774 259.019 143.774C257.969 143.774 257.227 144.866 257.227 147.806C257.227 150.788 257.969 151.908 259.019 151.908ZM267.004 153.196C264.974 153.196 263.672 151.39 263.672 147.806C263.672 144.25 264.974 142.514 267.004 142.514C269.02 142.514 270.336 144.25 270.336 147.806C270.336 151.39 269.02 153.196 267.004 153.196ZM267.004 151.908C268.054 151.908 268.782 150.788 268.782 147.806C268.782 144.866 268.054 143.774 267.004 143.774C265.954 143.774 265.212 144.866 265.212 147.806C265.212 150.788 265.954 151.908 267.004 151.908ZM272.09 155.814L271.74 154.904C272.706 154.498 273.266 153.784 273.266 152.944L273.154 151.656L273.826 152.706C273.63 152.916 273.378 153 273.112 153C272.538 153 272.02 152.622 272.02 151.964C272.02 151.32 272.538 150.928 273.154 150.928C273.938 150.928 274.4 151.572 274.4 152.65C274.4 154.134 273.546 155.268 272.09 155.814ZM279.158 153.196C277.128 153.196 275.826 151.39 275.826 147.806C275.826 144.25 277.128 142.514 279.158 142.514C281.174 142.514 282.49 144.25 282.49 147.806C282.49 151.39 281.174 153.196 279.158 153.196ZM279.158 151.908C280.208 151.908 280.936 150.788 280.936 147.806C280.936 144.866 280.208 143.774 279.158 143.774C278.108 143.774 277.366 144.866 277.366 147.806C277.366 150.788 278.108 151.908 279.158 151.908ZM287.142 153.196C285.112 153.196 283.81 151.39 283.81 147.806C283.81 144.25 285.112 142.514 287.142 142.514C289.158 142.514 290.474 144.25 290.474 147.806C290.474 151.39 289.158 153.196 287.142 153.196ZM287.142 151.908C288.192 151.908 288.92 150.788 288.92 147.806C288.92 144.866 288.192 143.774 287.142 143.774C286.092 143.774 285.35 144.866 285.35 147.806C285.35 150.788 286.092 151.908 287.142 151.908ZM295.127 153.196C293.097 153.196 291.795 151.39 291.795 147.806C291.795 144.25 293.097 142.514 295.127 142.514C297.143 142.514 298.459 144.25 298.459 147.806C298.459 151.39 297.143 153.196 295.127 153.196ZM295.127 151.908C296.177 151.908 296.905 150.788 296.905 147.806C296.905 144.866 296.177 143.774 295.127 143.774C294.077 143.774 293.335 144.866 293.335 147.806C293.335 150.788 294.077 151.908 295.127 151.908ZM303.251 147.862H304.721V150.69H303.251V147.862ZM308.893 141.366H310.363V151.082H308.893V141.366ZM301.417 152.72H310.657V153.91H301.417V152.72ZM301.417 150.144H302.887V153.042H301.417V150.144ZM299.891 148.352L299.695 147.162C302.047 147.162 305.197 147.134 307.899 146.784L307.997 147.848C305.253 148.296 302.201 148.352 299.891 148.352ZM306.373 148.87H309.243V149.906H306.373V148.87ZM303.839 141.856C305.701 141.856 307.003 142.752 307.003 144.11C307.003 145.468 305.701 146.35 303.839 146.35C301.963 146.35 300.675 145.468 300.675 144.11C300.675 142.752 301.963 141.856 303.839 141.856ZM303.839 142.934C302.789 142.934 302.061 143.368 302.061 144.11C302.061 144.838 302.789 145.272 303.839 145.272C304.875 145.272 305.603 144.838 305.603 144.11C305.603 143.368 304.875 142.934 303.839 142.934Z" fill="#333333"/>
<path d="M22.936 96V90.288H30.568V67.824H24.136V63.456C27.688 62.784 30.136 61.872 32.392 60.432H37.624V90.288H44.296V96H22.936ZM51.2976 106.224L49.8096 102.384C53.5536 100.992 55.6176 98.496 55.5696 95.808C55.4256 95.808 55.2816 95.808 55.1376 95.808C52.8336 95.808 50.7216 94.32 50.7216 91.632C50.7216 89.088 52.7856 87.456 55.2816 87.456C58.5456 87.456 60.3696 90.048 60.3696 94.416C60.3696 100.032 57.1056 104.304 51.2976 106.224ZM64.939 96V91.92C74.587 83.28 80.299 76.608 80.299 71.136C80.299 67.536 78.379 65.376 74.971 65.376C72.379 65.376 70.267 67.056 68.443 69.024L64.603 65.184C67.867 61.68 71.035 59.808 75.883 59.808C82.603 59.808 87.067 64.128 87.067 70.752C87.067 77.184 81.739 84.096 75.259 90.432C77.035 90.24 79.387 90.048 81.067 90.048H88.747V96H64.939ZM104.389 96.672C98.7726 96.672 95.0286 94.464 92.3886 91.824L95.6526 87.312C97.6686 89.28 100.165 90.912 103.477 90.912C107.173 90.912 109.765 88.56 109.765 84.384C109.765 80.256 107.365 77.952 103.765 77.952C101.653 77.952 100.501 78.48 98.4366 79.824L95.2206 77.712L96.1806 60.432H115.189V66.384H102.277L101.605 73.92C103.045 73.248 104.245 72.912 105.877 72.912C111.829 72.912 116.821 76.464 116.821 84.192C116.821 92.112 110.965 96.672 104.389 96.672ZM133.566 96.672C126.318 96.672 121.518 90.336 121.518 78.096C121.518 65.808 126.318 59.808 133.566 59.808C140.814 59.808 145.566 65.856 145.566 78.096C145.566 90.336 140.814 96.672 133.566 96.672ZM133.566 91.152C136.638 91.152 138.894 88.08 138.894 78.096C138.894 68.16 136.638 65.28 133.566 65.28C130.494 65.28 128.19 68.16 128.19 78.096C128.19 88.08 130.494 91.152 133.566 91.152ZM151.704 106.224L150.216 102.384C153.96 100.992 156.024 98.496 155.976 95.808C155.832 95.808 155.688 95.808 155.544 95.808C153.24 95.808 151.128 94.32 151.128 91.632C151.128 89.088 153.192 87.456 155.688 87.456C158.952 87.456 160.776 90.048 160.776 94.416C160.776 100.032 157.512 104.304 151.704 106.224ZM177.441 96.672C170.193 96.672 165.393 90.336 165.393 78.096C165.393 65.808 170.193 59.808 177.441 59.808C184.689 59.808 189.441 65.856 189.441 78.096C189.441 90.336 184.689 96.672 177.441 96.672ZM177.441 91.152C180.513 91.152 182.769 88.08 182.769 78.096C182.769 68.16 180.513 65.28 177.441 65.28C174.369 65.28 172.065 68.16 172.065 78.096C172.065 88.08 174.369 91.152 177.441 91.152ZM205.707 96.672C198.459 96.672 193.659 90.336 193.659 78.096C193.659 65.808 198.459 59.808 205.707 59.808C212.955 59.808 217.707 65.856 217.707 78.096C217.707 90.336 212.955 96.672 205.707 96.672ZM205.707 91.152C208.779 91.152 211.035 88.08 211.035 78.096C211.035 68.16 208.779 65.28 205.707 65.28C202.635 65.28 200.331 68.16 200.331 78.096C200.331 88.08 202.635 91.152 205.707 91.152ZM233.973 96.672C226.725 96.672 221.925 90.336 221.925 78.096C221.925 65.808 226.725 59.808 233.973 59.808C241.221 59.808 245.973 65.856 245.973 78.096C245.973 90.336 241.221 96.672 233.973 96.672ZM233.973 91.152C237.045 91.152 239.301 88.08 239.301 78.096C239.301 68.16 237.045 65.28 233.973 65.28C230.901 65.28 228.597 68.16 228.597 78.096C228.597 88.08 230.901 91.152 233.973 91.152ZM262.39 88.8H266.542V75.96H269.71V92.712H266.542V90.96H262.39V88.8ZM258.142 79.008C256.654 79.008 255.622 79.584 255.622 80.664C255.622 81.744 256.654 82.296 258.142 82.296C259.606 82.296 260.638 81.744 260.638 80.664C260.638 79.584 259.606 79.008 258.142 79.008ZM258.142 84.6C254.902 84.6 252.646 83.016 252.646 80.664C252.646 78.312 254.902 76.704 258.142 76.704C261.358 76.704 263.638 78.312 263.638 80.664C263.638 83.016 261.358 84.6 258.142 84.6ZM256.966 95.16H270.19V97.68H253.798V91.104H256.87V88.152C254.926 88.248 253.078 88.272 251.422 88.272L251.014 85.752C255.046 85.728 260.422 85.68 265.078 85.08L265.294 87.336C263.566 87.624 261.79 87.816 260.014 87.96V92.136H256.966V95.16Z" fill="#333333"/>
<rect x="74.6318" y="121.827" width="140.178" height="12.1827" rx="6" fill="white"/>
<rect x="74.6318" y="145.178" width="140.178" height="12.1827" rx="6" fill="white"/>
<rect x="74.5635" y="121.827" width="43.3444" height="12.1827" rx="6" fill="url(#paint0_linear_516_256)"/>
<rect x="74.6318" y="145.178" width="104.211" height="12.1827" rx="6" fill="#519CE9"/>
<path d="M26.952 28.348H28.26V29.044C28.26 31.168 27.264 33.076 25.14 33.784L24.324 32.524C26.172 31.912 26.952 30.46 26.952 29.044V28.348ZM27.276 28.348H28.572V29.044C28.572 30.364 29.328 31.72 31.128 32.296L30.276 33.508C28.248 32.836 27.276 31.048 27.276 29.044V28.348ZM24.78 27.772H30.744V29.044H24.78V27.772ZM31.632 26.956H33.228V35.092H31.632V26.956ZM32.772 30.184H34.704V31.492H32.772V30.184ZM26.064 36.604H33.624V37.876H26.064V36.604ZM26.064 34.3H27.66V37.276H26.064V34.3ZM40.4871 29.224H43.5111V30.508H40.4871V29.224ZM40.4871 32.668H43.5111V33.952H40.4871V32.668ZM38.5671 27.724C40.2231 27.724 41.4351 29.26 41.4351 31.684C41.4351 34.132 40.2231 35.668 38.5671 35.668C36.8991 35.668 35.6991 34.132 35.6991 31.684C35.6991 29.26 36.8991 27.724 38.5671 27.724ZM38.5671 29.176C37.7631 29.176 37.2111 30.052 37.2111 31.684C37.2111 33.34 37.7631 34.228 38.5671 34.228C39.3831 34.228 39.9231 33.34 39.9231 31.684C39.9231 30.052 39.3831 29.176 38.5671 29.176ZM43.2591 26.944H44.8431V38.092H43.2591V26.944ZM50.4769 33.28H52.0489V34.444H56.5489V33.28H58.1329V37.948H50.4769V33.28ZM52.0489 35.668V36.676H56.5489V35.668H52.0489ZM50.5129 27.4H57.5569V28.672H50.5129V27.4ZM49.2889 31.288H59.3449V32.572H49.2889V31.288ZM56.5969 27.4H58.1689V28.288C58.1689 29.212 58.1689 30.172 57.8569 31.564L56.2489 31.672C56.5969 30.244 56.5969 29.224 56.5969 28.288V27.4ZM65.2839 29.224H68.3079V30.508H65.2839V29.224ZM65.2839 32.668H68.3079V33.952H65.2839V32.668ZM63.3639 27.724C65.0199 27.724 66.2319 29.26 66.2319 31.684C66.2319 34.132 65.0199 35.668 63.3639 35.668C61.6959 35.668 60.4959 34.132 60.4959 31.684C60.4959 29.26 61.6959 27.724 63.3639 27.724ZM63.3639 29.176C62.5599 29.176 62.0079 30.052 62.0079 31.684C62.0079 33.34 62.5599 34.228 63.3639 34.228C64.1799 34.228 64.7199 33.34 64.7199 31.684C64.7199 30.052 64.1799 29.176 63.3639 29.176ZM68.0559 26.944H69.6399V38.092H68.0559V26.944Z" fill="#333333"/>
<path opacity="0.5" d="M26.132 124.928H27.152V126.728C27.152 129.284 26.012 131.732 24.128 132.692L23.36 131.684C25.064 130.856 26.132 128.756 26.132 126.728V124.928ZM26.372 124.928H27.38V126.728C27.38 128.684 28.412 130.676 30.056 131.492L29.288 132.488C27.464 131.54 26.372 129.2 26.372 126.728V124.928ZM30.788 124.028H32.048V134.996H30.788V124.028ZM31.76 128.372H33.752V129.416H31.76V128.372ZM36.9311 127.724H38.1791V129.764H36.9311V127.724ZM40.8791 127.724H42.1271V129.764H40.8791V127.724ZM34.5791 129.356H44.4911V130.352H34.5791V129.356ZM39.5231 131.06C41.8751 131.06 43.3031 131.768 43.3031 133.016C43.3031 134.276 41.8751 134.984 39.5231 134.984C37.1591 134.984 35.7431 134.276 35.7431 133.016C35.7431 131.768 37.1591 131.06 39.5231 131.06ZM39.5231 132.02C37.9151 132.02 37.0151 132.368 37.0151 133.016C37.0151 133.676 37.9151 134.024 39.5231 134.024C41.1311 134.024 42.0311 133.676 42.0311 133.016C42.0311 132.368 41.1311 132.02 39.5231 132.02ZM39.5351 124.208C41.9351 124.208 43.4471 124.988 43.4471 126.284C43.4471 127.58 41.9351 128.336 39.5351 128.336C37.1351 128.336 35.6351 127.58 35.6351 126.284C35.6351 124.988 37.1351 124.208 39.5351 124.208ZM39.5351 125.18C37.9031 125.18 36.9311 125.564 36.9311 126.284C36.9311 126.992 37.9031 127.376 39.5351 127.376C41.1791 127.376 42.1511 126.992 42.1511 126.284C42.1511 125.564 41.1791 125.18 39.5351 125.18Z" fill="#333333"/>
<path opacity="0.5" d="M23.54 152.62H33.452V153.628H23.54V152.62ZM27.872 151.42H29.12V153.088H27.872V151.42ZM27.872 147.028H29.12V148.588H27.872V147.028ZM27.8 148.672H28.904V148.864C28.904 150.604 27.08 151.708 24.428 151.936L24.044 150.976C26.396 150.808 27.8 149.932 27.8 148.864V148.672ZM28.088 148.672H29.192V148.864C29.192 149.932 30.596 150.808 32.936 150.976L32.564 151.936C29.9 151.708 28.088 150.604 28.088 148.864V148.672ZM24.524 148.06H32.468V149.044H24.524V148.06ZM28.484 154.312C30.86 154.312 32.264 154.96 32.264 156.148C32.264 157.336 30.86 157.984 28.484 157.984C26.108 157.984 24.704 157.336 24.704 156.148C24.704 154.96 26.108 154.312 28.484 154.312ZM28.484 155.248C26.864 155.248 25.976 155.548 25.976 156.148C25.976 156.736 26.864 157.048 28.484 157.048C30.104 157.048 30.992 156.736 30.992 156.148C30.992 155.548 30.104 155.248 28.484 155.248ZM38.5224 153.292H39.7584V154.6H44.7144V153.292H45.9624V157.864H38.5224V153.292ZM39.7584 155.584V156.856H44.7144V155.584H39.7584ZM38.5224 147.496H45.5304V148.516H38.5224V147.496ZM37.2864 151.408H47.2224V152.428H37.2864V151.408ZM44.7504 147.496H45.9864V148.336C45.9864 149.236 45.9864 150.232 45.6624 151.66L44.4024 151.72C44.7504 150.268 44.7504 149.248 44.7504 148.336V147.496ZM53.2454 149.38H56.4134V150.4H53.2454V149.38ZM53.2454 152.824H56.4134V153.844H53.2454V152.824ZM51.2774 147.832C52.8974 147.832 54.0494 149.332 54.0494 151.696C54.0494 154.06 52.8974 155.572 51.2774 155.572C49.6574 155.572 48.5054 154.06 48.5054 151.696C48.5054 149.332 49.6574 147.832 51.2774 147.832ZM51.2774 148.972C50.3414 148.972 49.6934 149.992 49.6934 151.696C49.6934 153.412 50.3414 154.444 51.2774 154.444C52.2254 154.444 52.8614 153.412 52.8614 151.696C52.8614 149.992 52.2254 148.972 51.2774 148.972ZM56.1734 147.016H57.4214V158.008H56.1734V147.016Z" fill="#333333"/>
</g>
</g>
<defs>
<filter id="filter0_d_516_256" x="0" y="0" width="340" height="208" filterUnits="userSpaceOnUse" color-interpolation-filters="sRGB">
<feFlood flood-opacity="0" result="BackgroundImageFix"/>
<feColorMatrix in="SourceAlpha" type="matrix" values="0 0 0 0 0 0 0 0 0 0 0 0 0 0 0 0 0 0 127 0" result="hardAlpha"/>
<feOffset dy="4"/>
<feGaussianBlur stdDeviation="2"/>
<feComposite in2="hardAlpha" operator="out"/>
<feColorMatrix type="matrix" values="0 0 0 0 0 0 0 0 0 0 0 0 0 0 0 0 0 0 0.1 0"/>
<feBlend mode="normal" in2="BackgroundImageFix" result="effect1_dropShadow_516_256"/>
<feBlend mode="normal" in="SourceGraphic" in2="effect1_dropShadow_516_256" result="shape"/>
</filter>
<linearGradient id="paint0_linear_516_256" x1="122.407" y1="121.952" x2="97.5076" y2="99.4744" gradientUnits="userSpaceOnUse">
<stop stop-color="#836AFF"/>
<stop offset="1" stop-color="#FF3030"/>
</linearGradient>
<clipPath id="clip0_516_256">
<rect x="4" width="332" height="200" rx="16" fill="white"/>
</clipPath>
</defs>
</svg>
