<svg width="301" height="257" viewBox="0 0 301 257" fill="none" xmlns="http://www.w3.org/2000/svg">
<g clip-path="url(#clip0_2242_4018)">
<path d="M149.653 256.256C148.322 256.256 146.967 256.216 145.641 256.16C145.169 256.137 144.805 255.738 144.828 255.266C144.85 254.794 145.243 254.43 145.715 254.452C147.024 254.509 148.35 254.543 149.659 254.549C150.131 254.549 150.513 254.936 150.507 255.408C150.507 255.881 150.126 256.256 149.653 256.256ZM153.637 256.194C153.181 256.194 152.8 255.829 152.783 255.369C152.766 254.896 153.136 254.504 153.603 254.486C154.911 254.441 156.237 254.367 157.541 254.265C158.002 254.219 158.423 254.578 158.457 255.05C158.491 255.522 158.144 255.932 157.671 255.966C156.346 256.069 154.997 256.142 153.66 256.194C153.648 256.194 153.637 256.194 153.625 256.194H153.637ZM141.703 255.903C141.703 255.903 141.652 255.903 141.629 255.903C140.298 255.79 138.955 255.647 137.634 255.482C137.168 255.425 136.838 254.999 136.895 254.526C136.952 254.06 137.384 253.73 137.851 253.787C139.143 253.952 140.463 254.088 141.777 254.202C142.25 254.242 142.597 254.657 142.557 255.124C142.517 255.568 142.147 255.903 141.709 255.903H141.703ZM161.575 255.585C161.148 255.585 160.779 255.266 160.727 254.834C160.67 254.367 161.006 253.94 161.473 253.883C162.765 253.73 164.079 253.548 165.382 253.343C165.843 253.269 166.287 253.587 166.361 254.054C166.435 254.521 166.116 254.959 165.65 255.033C164.324 255.243 162.987 255.431 161.672 255.585C161.638 255.585 161.604 255.59 161.57 255.59L161.575 255.585ZM133.805 254.908C133.759 254.908 133.708 254.908 133.662 254.896C132.348 254.674 131.022 254.424 129.719 254.151C129.258 254.054 128.962 253.599 129.059 253.138C129.155 252.677 129.611 252.381 130.072 252.478C131.352 252.745 132.655 252.996 133.947 253.212C134.414 253.291 134.727 253.73 134.647 254.196C134.579 254.612 134.214 254.908 133.805 254.908ZM169.44 254.327C169.041 254.327 168.689 254.048 168.603 253.644C168.512 253.183 168.808 252.734 169.269 252.637C170.55 252.381 171.847 252.091 173.122 251.778C173.583 251.664 174.044 251.943 174.152 252.404C174.266 252.859 173.981 253.326 173.526 253.434C172.228 253.752 170.908 254.048 169.605 254.31C169.548 254.321 169.491 254.327 169.434 254.327H169.44ZM126.014 253.263C125.946 253.263 125.872 253.257 125.804 253.235C124.517 252.904 123.214 252.546 121.934 252.165C121.484 252.028 121.223 251.556 121.359 251.101C121.496 250.651 121.968 250.389 122.423 250.526C123.681 250.901 124.961 251.254 126.225 251.579C126.68 251.692 126.959 252.159 126.839 252.614C126.742 253.001 126.395 253.257 126.014 253.257V253.263ZM177.174 252.432C176.804 252.432 176.462 252.187 176.354 251.818C176.223 251.362 176.485 250.89 176.934 250.759C178.198 250.395 179.461 249.997 180.702 249.581C181.151 249.433 181.635 249.672 181.783 250.122C181.931 250.571 181.692 251.055 181.242 251.203C179.979 251.624 178.693 252.028 177.407 252.398C177.327 252.421 177.247 252.432 177.168 252.432H177.174ZM118.383 250.987C118.292 250.987 118.195 250.97 118.104 250.941C116.841 250.503 115.572 250.036 114.331 249.558C113.893 249.388 113.677 248.893 113.847 248.454C114.018 248.016 114.513 247.8 114.951 247.971C116.163 248.443 117.41 248.904 118.656 249.331C119.1 249.484 119.339 249.968 119.185 250.418C119.066 250.77 118.73 250.992 118.377 250.992L118.383 250.987ZM184.731 249.9C184.389 249.9 184.065 249.689 183.934 249.353C183.769 248.915 183.985 248.42 184.429 248.249C185.658 247.783 186.888 247.282 188.094 246.764C188.526 246.576 189.027 246.781 189.215 247.214C189.403 247.646 189.204 248.147 188.765 248.335C187.536 248.864 186.284 249.371 185.032 249.849C184.93 249.888 184.827 249.905 184.725 249.905L184.731 249.9ZM110.974 248.09C110.86 248.09 110.74 248.067 110.632 248.016C109.409 247.481 108.185 246.912 106.996 246.332C106.575 246.127 106.398 245.615 106.603 245.188C106.808 244.761 107.32 244.59 107.747 244.795C108.919 245.37 110.12 245.928 111.321 246.451C111.753 246.639 111.947 247.145 111.759 247.578C111.617 247.897 111.304 248.09 110.979 248.09H110.974ZM192.06 246.753C191.742 246.753 191.434 246.576 191.292 246.269C191.087 245.842 191.269 245.336 191.69 245.131C192.874 244.562 194.058 243.964 195.219 243.35C195.634 243.128 196.152 243.287 196.374 243.703C196.596 244.118 196.437 244.636 196.021 244.858C194.843 245.484 193.631 246.093 192.43 246.673C192.311 246.73 192.186 246.759 192.06 246.759V246.753ZM103.837 244.602C103.701 244.602 103.559 244.568 103.433 244.499C102.261 243.868 101.089 243.202 99.945 242.519C99.5409 242.28 99.4044 241.756 99.6491 241.347C99.8881 240.943 100.412 240.812 100.821 241.051C101.942 241.722 103.098 242.377 104.247 242.997C104.663 243.219 104.816 243.737 104.594 244.152C104.441 244.437 104.145 244.602 103.843 244.602H103.837ZM199.105 243.014C198.815 243.014 198.525 242.86 198.366 242.593C198.127 242.189 198.263 241.665 198.673 241.426C199.805 240.766 200.938 240.072 202.042 239.361C202.44 239.105 202.964 239.218 203.22 239.617C203.476 240.015 203.356 240.539 202.964 240.795C201.837 241.517 200.682 242.223 199.532 242.895C199.396 242.974 199.248 243.014 199.1 243.014H199.105ZM97.0029 240.539C96.8435 240.539 96.6842 240.493 96.5362 240.402C95.4209 239.674 94.3055 238.917 93.2186 238.143C92.8373 237.87 92.7462 237.335 93.0194 236.953C93.2925 236.572 93.8275 236.481 94.2087 236.754C95.2729 237.511 96.3712 238.262 97.4695 238.974C97.8622 239.23 97.976 239.759 97.7199 240.157C97.5549 240.408 97.2817 240.544 97.0029 240.544V240.539ZM205.815 238.712C205.547 238.712 205.28 238.587 205.115 238.348C204.842 237.961 204.938 237.431 205.325 237.158C206.395 236.407 207.465 235.622 208.512 234.825C208.888 234.541 209.423 234.609 209.707 234.984C209.992 235.36 209.923 235.895 209.548 236.179C208.484 236.993 207.391 237.79 206.304 238.553C206.156 238.655 205.986 238.706 205.815 238.706V238.712ZM90.5212 235.923C90.3391 235.923 90.157 235.867 89.9976 235.747C88.9448 234.933 87.8921 234.08 86.8734 233.226C86.5149 232.924 86.4694 232.384 86.771 232.025C87.0726 231.667 87.6132 231.621 87.9717 231.923C88.9733 232.765 90.0033 233.602 91.039 234.404C91.4089 234.694 91.4772 235.229 91.1927 235.599C91.0219 235.815 90.7716 235.929 90.5155 235.929L90.5212 235.923ZM212.143 233.875C211.898 233.875 211.653 233.772 211.483 233.567C211.181 233.203 211.232 232.668 211.597 232.367C212.604 231.53 213.605 230.66 214.584 229.783C214.931 229.47 215.472 229.493 215.791 229.846C216.104 230.199 216.081 230.734 215.728 231.052C214.738 231.946 213.713 232.833 212.689 233.681C212.53 233.812 212.336 233.88 212.143 233.88V233.875ZM84.4321 230.796C84.2272 230.796 84.0224 230.722 83.8574 230.574C82.8786 229.675 81.8998 228.747 80.9494 227.803C80.6137 227.473 80.6137 226.932 80.9494 226.596C81.2795 226.261 81.8201 226.261 82.1558 226.596C83.0891 227.518 84.0508 228.434 85.0126 229.316C85.3597 229.635 85.3825 230.176 85.0638 230.523C84.8931 230.705 84.6654 230.802 84.4321 230.802V230.796ZM218.055 228.543C217.834 228.543 217.612 228.457 217.447 228.286C217.117 227.951 217.122 227.41 217.458 227.08C218.397 226.164 219.325 225.214 220.224 224.263C220.548 223.922 221.089 223.905 221.43 224.229C221.772 224.553 221.789 225.094 221.464 225.435C220.548 226.409 219.603 227.37 218.647 228.304C218.482 228.469 218.266 228.548 218.05 228.548L218.055 228.543ZM78.7756 225.191C78.5479 225.191 78.3203 225.1 78.1496 224.918C77.2448 223.945 76.3456 222.937 75.4749 221.919C75.1677 221.56 75.2132 221.019 75.566 220.712C75.9245 220.405 76.4651 220.445 76.7667 220.803C77.6203 221.805 78.5081 222.795 79.3958 223.751C79.7145 224.098 79.6975 224.639 79.3503 224.957C79.1853 225.111 78.9747 225.185 78.7699 225.185L78.7756 225.191ZM223.513 222.749C223.314 222.749 223.115 222.681 222.955 222.539C222.597 222.232 222.563 221.691 222.87 221.332C223.735 220.337 224.583 219.318 225.396 218.299C225.692 217.929 226.227 217.873 226.597 218.163C226.967 218.459 227.024 218.994 226.734 219.363C225.909 220.399 225.044 221.435 224.162 222.448C223.991 222.641 223.758 222.744 223.519 222.744L223.513 222.749ZM73.597 219.136C73.3466 219.136 73.0962 219.022 72.9255 218.811C72.1004 217.764 71.2866 216.689 70.5013 215.602C70.2224 215.221 70.3135 214.686 70.6948 214.413C71.076 214.134 71.611 214.219 71.8841 214.606C72.6524 215.67 73.4548 216.734 74.2628 217.759C74.5531 218.129 74.4905 218.664 74.1206 218.959C73.9612 219.085 73.7791 219.142 73.5913 219.142L73.597 219.136ZM228.481 216.535C228.304 216.535 228.128 216.484 227.974 216.37C227.593 216.091 227.513 215.556 227.792 215.175C228.572 214.117 229.334 213.03 230.063 211.948C230.325 211.556 230.86 211.453 231.247 211.715C231.639 211.977 231.742 212.506 231.48 212.899C230.74 214.003 229.96 215.107 229.169 216.182C229.004 216.41 228.743 216.529 228.481 216.529V216.535ZM68.9249 212.683C68.6461 212.683 68.3786 212.546 68.2136 212.301C67.4738 211.186 66.7511 210.048 66.0625 208.904C65.8178 208.5 65.9487 207.976 66.3528 207.732C66.7568 207.487 67.2803 207.618 67.525 208.022C68.2022 209.143 68.9136 210.264 69.642 211.362C69.9038 211.755 69.7956 212.284 69.403 212.546C69.2607 212.643 69.0957 212.688 68.9306 212.688L68.9249 212.683ZM232.925 209.94C232.772 209.94 232.618 209.9 232.476 209.814C232.072 209.57 231.947 209.041 232.197 208.642C232.885 207.527 233.557 206.383 234.194 205.245C234.428 204.835 234.945 204.687 235.355 204.92C235.765 205.154 235.913 205.672 235.68 206.081C235.031 207.242 234.342 208.403 233.648 209.536C233.489 209.797 233.204 209.94 232.92 209.94H232.925ZM64.7935 205.865C64.4919 205.865 64.2017 205.706 64.0423 205.421C63.3936 204.243 62.7676 203.048 62.1758 201.859C61.9652 201.438 62.1359 200.926 62.5571 200.715C62.9782 200.504 63.4903 200.675 63.7009 201.096C64.2813 202.263 64.9016 203.441 65.539 204.596C65.7666 205.012 65.6187 205.529 65.2032 205.757C65.0723 205.831 64.9301 205.865 64.7935 205.865ZM236.812 203.008C236.681 203.008 236.55 202.98 236.425 202.917C236.004 202.701 235.839 202.189 236.049 201.768C236.641 200.601 237.216 199.412 237.762 198.223C237.956 197.796 238.468 197.602 238.895 197.801C239.322 197.995 239.515 198.501 239.316 198.934C238.764 200.146 238.178 201.358 237.575 202.542C237.427 202.838 237.125 203.008 236.812 203.008ZM61.2368 198.723C60.9124 198.723 60.5995 198.535 60.4572 198.217C59.9109 196.999 59.3816 195.753 58.8866 194.506C58.7101 194.068 58.9264 193.573 59.3646 193.397C59.8028 193.22 60.2978 193.437 60.4743 193.875C60.9637 195.098 61.4815 196.322 62.0164 197.517C62.2099 197.949 62.0164 198.45 61.5839 198.644C61.4701 198.695 61.3506 198.718 61.2368 198.718V198.723ZM240.118 195.781C240.01 195.781 239.902 195.758 239.794 195.719C239.356 195.542 239.151 195.041 239.327 194.603C239.822 193.397 240.3 192.156 240.744 190.921C240.904 190.477 241.393 190.25 241.837 190.409C242.281 190.568 242.508 191.058 242.349 191.502C241.894 192.759 241.41 194.023 240.904 195.252C240.767 195.582 240.448 195.781 240.113 195.781H240.118ZM58.2776 191.308C57.9248 191.308 57.5948 191.086 57.4753 190.739C57.0314 189.476 56.6046 188.19 56.2176 186.909C56.081 186.46 56.3314 185.982 56.7867 185.845C57.2362 185.703 57.7143 185.959 57.8508 186.414C58.2321 187.666 58.6532 188.935 59.0857 190.176C59.2394 190.62 59.0061 191.109 58.5622 191.263C58.4711 191.297 58.3744 191.308 58.2776 191.308ZM242.827 188.292C242.742 188.292 242.656 188.281 242.571 188.252C242.121 188.11 241.871 187.632 242.013 187.183C242.406 185.931 242.782 184.656 243.123 183.393C243.248 182.937 243.715 182.67 244.17 182.789C244.625 182.914 244.893 183.381 244.773 183.836C244.426 185.123 244.045 186.42 243.647 187.695C243.533 188.059 243.197 188.292 242.833 188.292H242.827ZM55.9558 183.671C55.5746 183.671 55.2331 183.415 55.1307 183.034C54.7949 181.742 54.4763 180.428 54.1974 179.124C54.095 178.664 54.3909 178.208 54.8518 178.106C55.3128 178.003 55.768 178.299 55.8705 178.76C56.1493 180.035 56.4566 181.327 56.7924 182.602C56.9119 183.057 56.6387 183.523 56.1835 183.643C56.1095 183.66 56.0412 183.671 55.9672 183.671H55.9558ZM244.916 180.593C244.853 180.593 244.79 180.587 244.728 180.57C244.267 180.467 243.982 180.007 244.085 179.551C244.375 178.277 244.642 176.979 244.876 175.687C244.961 175.226 245.405 174.919 245.872 175.004C246.333 175.09 246.64 175.534 246.555 176C246.316 177.315 246.042 178.641 245.746 179.938C245.655 180.337 245.303 180.604 244.916 180.604V180.593ZM54.26 175.892C53.856 175.892 53.4918 175.602 53.4178 175.187C53.1902 173.878 52.9796 172.54 52.8032 171.214C52.7406 170.748 53.0707 170.315 53.5373 170.253C54.0039 170.19 54.4364 170.52 54.499 170.987C54.6697 172.29 54.8746 173.599 55.1022 174.891C55.1819 175.357 54.8746 175.795 54.408 175.881C54.3568 175.892 54.3112 175.892 54.26 175.892ZM246.361 172.762C246.321 172.762 246.281 172.762 246.242 172.757C245.775 172.688 245.451 172.256 245.519 171.789C245.701 170.492 245.86 169.177 245.991 167.874C246.037 167.407 246.452 167.055 246.924 167.111C247.391 167.157 247.738 167.578 247.687 168.045C247.556 169.371 247.391 170.714 247.203 172.034C247.141 172.461 246.776 172.768 246.361 172.768V172.762ZM53.2072 167.999C52.769 167.999 52.3992 167.669 52.3593 167.225C52.2398 165.899 52.1431 164.551 52.0748 163.219C52.052 162.747 52.4105 162.348 52.8829 162.326C53.3495 162.303 53.7535 162.661 53.7763 163.134C53.8446 164.442 53.9356 165.763 54.0551 167.072C54.1007 167.538 53.7535 167.954 53.2812 167.999C53.2528 167.999 53.23 167.999 53.2015 167.999H53.2072ZM247.152 164.841C247.152 164.841 247.118 164.841 247.101 164.841C246.629 164.812 246.27 164.408 246.298 163.936C246.378 162.633 246.429 161.307 246.452 159.992C246.463 159.526 246.839 159.156 247.306 159.156H247.323C247.795 159.167 248.171 159.554 248.159 160.026C248.137 161.364 248.08 162.718 248 164.038C247.972 164.494 247.596 164.841 247.146 164.841H247.152ZM52.8032 160.049C52.3366 160.049 51.9553 159.674 51.9496 159.207C51.9496 158.854 51.9496 158.496 51.9496 158.143C51.9496 157.158 51.9667 156.163 51.9951 155.189C52.0065 154.717 52.4105 154.353 52.8715 154.359C53.3438 154.37 53.7137 154.768 53.6966 155.235C53.6682 156.197 53.6511 157.17 53.6511 158.137C53.6511 158.484 53.6511 158.831 53.6511 159.184C53.6511 159.657 53.2755 160.044 52.8089 160.049H52.7975H52.8032ZM247.323 158.996C246.85 158.996 246.469 158.615 246.469 158.143C246.469 156.828 246.441 155.497 246.39 154.199C246.372 153.727 246.737 153.329 247.209 153.311C247.681 153.289 248.08 153.659 248.097 154.131C248.148 155.457 248.176 156.806 248.176 158.149C248.176 158.621 247.795 159.002 247.323 159.002V158.996ZM53.0422 152.088C53.0422 152.088 53.0024 152.088 52.9796 152.088C52.5073 152.054 52.1545 151.65 52.1886 151.177C52.2796 149.852 52.4048 148.503 52.5528 147.177C52.604 146.71 53.0251 146.369 53.4975 146.426C53.9641 146.477 54.3055 146.898 54.2486 147.37C54.1064 148.674 53.9869 149.994 53.8901 151.303C53.856 151.752 53.4861 152.099 53.0365 152.099L53.0422 152.088ZM247.004 151.041C246.566 151.041 246.19 150.705 246.156 150.256C246.054 148.958 245.917 147.638 245.758 146.329C245.701 145.862 246.037 145.436 246.503 145.379C246.97 145.316 247.397 145.652 247.454 146.124C247.619 147.456 247.75 148.799 247.858 150.119C247.898 150.591 247.545 151.001 247.078 151.041C247.055 151.041 247.033 151.041 247.01 151.041H247.004ZM53.9186 144.172C53.873 144.172 53.8332 144.172 53.7877 144.161C53.321 144.087 53.0024 143.654 53.0707 143.188C53.2755 141.867 53.5031 140.536 53.7592 139.233C53.8503 138.772 54.2998 138.464 54.7608 138.555C55.2217 138.647 55.5233 139.096 55.4323 139.557C55.1819 140.837 54.9543 142.146 54.7551 143.444C54.6925 143.865 54.3283 144.167 53.9129 144.167L53.9186 144.172ZM246.037 143.131C245.627 143.131 245.263 142.835 245.194 142.414C244.984 141.122 244.739 139.813 244.477 138.533C244.381 138.072 244.677 137.622 245.143 137.525C245.598 137.429 246.054 137.725 246.15 138.191C246.418 139.494 246.668 140.826 246.885 142.141C246.959 142.607 246.646 143.045 246.179 143.119C246.133 143.125 246.088 143.131 246.037 143.131ZM55.4437 136.359C55.3754 136.359 55.3128 136.353 55.2445 136.336C54.7836 136.228 54.5047 135.767 54.6128 135.306C54.9201 134.009 55.2616 132.7 55.6258 131.419C55.7567 130.964 56.2233 130.702 56.6786 130.827C57.1338 130.958 57.3956 131.425 57.2704 131.88C56.9176 133.138 56.5818 134.424 56.2745 135.699C56.1835 136.091 55.8306 136.353 55.4437 136.353V136.359ZM244.426 135.335C244.045 135.335 243.698 135.073 243.601 134.686C243.282 133.417 242.935 132.136 242.565 130.879C242.434 130.429 242.691 129.951 243.146 129.82C243.595 129.689 244.073 129.945 244.204 130.401C244.58 131.681 244.933 132.984 245.257 134.276C245.371 134.731 245.092 135.198 244.637 135.312C244.568 135.329 244.495 135.34 244.426 135.34V135.335ZM57.6118 128.699C57.5265 128.699 57.4354 128.688 57.3444 128.654C56.8948 128.506 56.6501 128.028 56.7981 127.578C57.2135 126.309 57.6574 125.034 58.1297 123.788C58.2947 123.344 58.7841 123.122 59.228 123.287C59.6719 123.452 59.8938 123.942 59.7288 124.386C59.2678 125.615 58.8296 126.867 58.4256 128.113C58.3061 128.472 57.976 128.699 57.6175 128.699H57.6118ZM242.184 127.698C241.831 127.698 241.495 127.476 241.376 127.117C240.955 125.871 240.5 124.625 240.027 123.395C239.857 122.957 240.079 122.462 240.517 122.291C240.955 122.121 241.45 122.343 241.621 122.781C242.104 124.027 242.565 125.302 242.992 126.565C243.146 127.009 242.907 127.498 242.457 127.646C242.366 127.675 242.275 127.692 242.184 127.692V127.698ZM60.3946 121.25C60.2865 121.25 60.1727 121.227 60.0645 121.182C59.632 121 59.4272 120.499 59.6093 120.061C60.1271 118.831 60.6791 117.602 61.2425 116.402C61.4417 115.975 61.9538 115.793 62.3806 115.992C62.8074 116.191 62.9895 116.703 62.7904 117.13C62.2327 118.308 61.6978 119.52 61.1856 120.726C61.049 121.051 60.7303 121.25 60.4003 121.25H60.3946ZM239.305 120.254C238.975 120.254 238.662 120.061 238.519 119.742C238.001 118.547 237.444 117.335 236.869 116.145C236.664 115.719 236.84 115.212 237.267 115.007C237.688 114.802 238.201 114.979 238.405 115.406C238.992 116.618 239.555 117.847 240.084 119.065C240.272 119.497 240.073 119.998 239.64 120.186C239.532 120.231 239.413 120.254 239.299 120.254H239.305ZM63.7749 114.063C63.644 114.063 63.5074 114.029 63.3822 113.966C62.9668 113.75 62.8018 113.232 63.018 112.816C63.6326 111.638 64.2813 110.455 64.9471 109.3C65.1805 108.89 65.704 108.748 66.1137 108.987C66.5235 109.22 66.6657 109.743 66.4267 110.153C65.778 111.286 65.1349 112.447 64.5317 113.607C64.3781 113.898 64.0822 114.068 63.7749 114.068V114.063ZM235.822 113.078C235.52 113.078 235.224 112.913 235.071 112.629C234.45 111.468 233.796 110.313 233.13 109.186C232.891 108.782 233.022 108.258 233.432 108.019C233.836 107.78 234.359 107.911 234.598 108.321C235.276 109.465 235.941 110.648 236.573 111.826C236.795 112.242 236.641 112.76 236.226 112.981C236.095 113.05 235.958 113.084 235.822 113.084V113.078ZM67.7413 107.171C67.5876 107.171 67.4283 107.131 67.286 107.04C66.8877 106.79 66.7682 106.261 67.0186 105.862C67.7299 104.741 68.4697 103.615 69.2266 102.511C69.494 102.124 70.0233 102.027 70.4159 102.294C70.8029 102.562 70.8996 103.091 70.6322 103.484C69.8867 104.565 69.1583 105.669 68.4583 106.773C68.2933 107.029 68.0201 107.171 67.7356 107.171H67.7413ZM231.77 106.21C231.491 106.21 231.218 106.073 231.053 105.817C230.342 104.713 229.596 103.615 228.839 102.545C228.566 102.158 228.657 101.628 229.044 101.355C229.426 101.082 229.96 101.173 230.234 101.56C231.002 102.647 231.759 103.768 232.487 104.889C232.743 105.288 232.629 105.811 232.231 106.067C232.089 106.158 231.929 106.204 231.77 106.204V106.21ZM72.254 100.621C72.0776 100.621 71.8955 100.564 71.7418 100.451C71.3663 100.166 71.2866 99.6311 71.5711 99.2555C72.3735 98.1913 73.2044 97.1271 74.0466 96.0971C74.3482 95.7329 74.8831 95.676 75.2473 95.9776C75.6115 96.2735 75.6684 96.8142 75.3668 97.1784C74.536 98.1913 73.7222 99.2384 72.9312 100.285C72.7662 100.507 72.5101 100.627 72.2483 100.627L72.254 100.621ZM227.166 99.6993C226.91 99.6993 226.66 99.5855 226.489 99.3693C225.692 98.3336 224.856 97.2979 224.014 96.2906C223.712 95.9264 223.758 95.3915 224.122 95.0899C224.48 94.7883 225.021 94.8338 225.323 95.198C226.182 96.2223 227.024 97.2751 227.838 98.3336C228.128 98.7092 228.054 99.2441 227.684 99.5286C227.531 99.6481 227.348 99.705 227.166 99.705V99.6993ZM77.2903 94.4582C77.0911 94.4582 76.8862 94.3899 76.7212 94.242C76.3684 93.929 76.3342 93.3884 76.6472 93.0355C77.535 92.0397 78.4512 91.0438 79.3731 90.0877C79.7031 89.7463 80.2381 89.7406 80.5795 90.065C80.921 90.3894 80.9266 90.93 80.6023 91.2714C79.6975 92.2161 78.7926 93.1892 77.922 94.168C77.7512 94.3558 77.5179 94.4525 77.2846 94.4525L77.2903 94.4582ZM222.05 93.5932C221.817 93.5932 221.589 93.4965 221.419 93.3144C220.542 92.347 219.626 91.3852 218.704 90.4463C218.374 90.1105 218.38 89.5699 218.716 89.2398C219.051 88.9098 219.592 88.9155 219.922 89.2512C220.861 90.2016 221.789 91.1861 222.682 92.1705C223.001 92.5177 222.972 93.0583 222.625 93.377C222.46 93.5249 222.255 93.5989 222.05 93.5989V93.5932ZM82.8103 88.722C82.5883 88.722 82.3607 88.6366 82.1957 88.4602C81.8713 88.1188 81.8827 87.5781 82.2241 87.2538C83.1859 86.3319 84.1817 85.4157 85.1833 84.5336C85.5361 84.2206 86.0767 84.2548 86.3897 84.6076C86.7027 84.9604 86.6686 85.501 86.3157 85.814C85.3312 86.679 84.3524 87.5781 83.4078 88.483C83.2428 88.6423 83.0322 88.722 82.816 88.722H82.8103ZM216.456 87.9196C216.246 87.9196 216.035 87.8456 215.876 87.692C214.92 86.7985 213.935 85.9108 212.94 85.0572C212.581 84.7499 212.541 84.2092 212.849 83.8507C213.156 83.4922 213.696 83.4524 214.055 83.7597C215.068 84.6304 216.075 85.5352 217.043 86.44C217.39 86.7644 217.407 87.305 217.082 87.6464C216.917 87.8285 216.684 87.9196 216.456 87.9196ZM88.7798 83.4524C88.5294 83.4524 88.2847 83.3443 88.114 83.1394C87.8181 82.7752 87.875 82.2346 88.2392 81.9387C89.2749 81.0964 90.3391 80.2656 91.4089 79.4689C91.7845 79.19 92.3194 79.264 92.604 79.6396C92.8885 80.0152 92.8088 80.5501 92.4332 80.8347C91.3805 81.62 90.3334 82.4337 89.3147 83.2589C89.1554 83.3898 88.9676 83.4524 88.7798 83.4524ZM210.424 82.7297C210.236 82.7297 210.049 82.6671 209.895 82.5476C208.871 81.7395 207.818 80.9314 206.754 80.1632C206.372 79.8843 206.287 79.3494 206.566 78.9681C206.845 78.5868 207.38 78.5015 207.761 78.7803C208.842 79.5656 209.918 80.3851 210.959 81.2102C211.329 81.5005 211.392 82.0411 211.096 82.411C210.925 82.6215 210.68 82.7354 210.424 82.7354V82.7297ZM95.1648 78.6893C94.8916 78.6893 94.6242 78.5584 94.4591 78.3194C94.1917 77.9324 94.2941 77.3975 94.6811 77.1357C95.7794 76.3845 96.9118 75.6447 98.0443 74.9334C98.4426 74.683 98.9719 74.8025 99.2222 75.2066C99.4726 75.6049 99.3531 76.1341 98.9491 76.3845C97.8337 77.0845 96.724 77.8129 95.6428 78.5527C95.4948 78.6551 95.3298 78.7006 95.1591 78.7006L95.1648 78.6893ZM203.988 78.0462C203.823 78.0462 203.658 78.0007 203.516 77.9039C202.429 77.1812 201.313 76.4642 200.192 75.7813C199.788 75.5366 199.663 75.0131 199.908 74.609C200.153 74.205 200.682 74.0798 201.08 74.3245C202.218 75.0188 203.356 75.7472 204.46 76.4813C204.853 76.743 204.956 77.2723 204.694 77.6649C204.529 77.9096 204.261 78.0462 203.982 78.0462H203.988ZM101.92 74.4554C101.624 74.4554 101.333 74.3017 101.18 74.0229C100.947 73.6132 101.089 73.0896 101.499 72.8563C102.659 72.1962 103.849 71.5474 105.032 70.9328C105.454 70.7166 105.966 70.8816 106.182 71.297C106.398 71.7182 106.233 72.2303 105.818 72.4466C104.651 73.0498 103.485 73.6871 102.346 74.3359C102.216 74.4099 102.068 74.4497 101.925 74.4497L101.92 74.4554ZM197.199 73.9034C197.057 73.9034 196.915 73.8692 196.784 73.7953C195.64 73.1579 194.468 72.5433 193.301 71.9515C192.88 71.7409 192.709 71.2288 192.92 70.8076C193.13 70.3865 193.642 70.2158 194.064 70.4264C195.253 71.0239 196.442 71.6556 197.609 72.2986C198.019 72.5262 198.172 73.0498 197.939 73.4595C197.785 73.7384 197.489 73.8977 197.193 73.8977L197.199 73.9034ZM108.999 70.7906C108.68 70.7906 108.367 70.6085 108.225 70.2955C108.026 69.8687 108.208 69.3622 108.64 69.163C109.847 68.5996 111.087 68.0533 112.322 67.5355C112.755 67.3534 113.256 67.5582 113.438 67.9964C113.62 68.4289 113.415 68.9297 112.977 69.1118C111.765 69.6183 110.547 70.1532 109.357 70.7109C109.238 70.7678 109.118 70.7906 108.999 70.7906ZM190.097 70.3353C189.978 70.3353 189.858 70.3125 189.744 70.2613C188.555 69.7264 187.337 69.2029 186.125 68.7135C185.687 68.5371 185.476 68.042 185.653 67.6038C185.829 67.1656 186.324 66.955 186.762 67.1314C187.997 67.6322 189.238 68.1615 190.444 68.7078C190.871 68.9013 191.064 69.4077 190.871 69.8345C190.729 70.1475 190.416 70.3353 190.091 70.3353H190.097ZM116.363 67.7233C116.016 67.7233 115.691 67.507 115.56 67.1656C115.395 66.7217 115.623 66.2323 116.067 66.0673C117.319 65.6063 118.599 65.1625 119.874 64.7527C120.323 64.6048 120.801 64.8552 120.949 65.3047C121.092 65.7543 120.847 66.2323 120.397 66.3803C119.145 66.7843 117.888 67.2225 116.659 67.6721C116.562 67.7062 116.459 67.7233 116.363 67.7233ZM182.722 67.3591C182.625 67.3591 182.528 67.342 182.437 67.3079C181.208 66.8697 179.945 66.4486 178.693 66.0559C178.243 65.9136 177.993 65.4356 178.13 64.9861C178.272 64.5365 178.75 64.2861 179.199 64.4227C180.474 64.821 181.755 65.2478 183.012 65.6917C183.456 65.851 183.689 66.3404 183.53 66.7843C183.405 67.1314 183.075 67.3534 182.728 67.3534L182.722 67.3591ZM123.948 65.2706C123.573 65.2706 123.231 65.0202 123.129 64.6446C123.004 64.1894 123.271 63.7227 123.721 63.5918C125.001 63.2333 126.31 62.9033 127.613 62.596C128.074 62.4878 128.529 62.7724 128.637 63.2333C128.746 63.6943 128.461 64.1495 128 64.2576C126.72 64.5592 125.434 64.8836 124.176 65.2364C124.102 65.2592 124.022 65.2706 123.948 65.2706ZM175.119 64.9917C175.045 64.9917 174.971 64.9804 174.897 64.9633C173.64 64.6275 172.348 64.3145 171.062 64.0243C170.601 63.9219 170.311 63.4666 170.413 63.0057C170.515 62.5447 170.965 62.2545 171.432 62.3569C172.74 62.6472 174.049 62.9659 175.335 63.3073C175.791 63.4268 176.064 63.8934 175.939 64.3544C175.836 64.7357 175.489 64.9861 175.113 64.9861L175.119 64.9917ZM131.705 63.4553C131.301 63.4553 130.948 63.1707 130.868 62.761C130.777 62.3 131.084 61.8505 131.545 61.7651C132.854 61.5147 134.186 61.2871 135.506 61.0936C135.973 61.031 136.405 61.344 136.474 61.8106C136.542 62.2773 136.223 62.7098 135.757 62.7781C134.459 62.9715 133.15 63.1935 131.864 63.4382C131.813 63.4496 131.756 63.4553 131.705 63.4553ZM167.351 63.2618C167.3 63.2618 167.249 63.2618 167.198 63.2504C165.906 63.0171 164.597 62.8122 163.3 62.6301C162.833 62.5675 162.509 62.135 162.571 61.6684C162.634 61.2017 163.066 60.8717 163.533 60.94C164.853 61.1221 166.19 61.3326 167.499 61.5659C167.966 61.6513 168.273 62.0952 168.188 62.5561C168.114 62.9715 167.755 63.2618 167.351 63.2618ZM139.581 62.283C139.148 62.283 138.778 61.9586 138.733 61.5204C138.682 61.0538 139.023 60.6327 139.49 60.5814C140.816 60.4392 142.159 60.3254 143.49 60.2343C143.957 60.2002 144.367 60.5587 144.401 61.031C144.429 61.5033 144.076 61.9074 143.604 61.9415C142.295 62.0269 140.975 62.1407 139.672 62.283C139.643 62.283 139.609 62.283 139.581 62.283ZM159.458 62.1748C159.458 62.1748 159.401 62.1748 159.373 62.1748C158.07 62.0496 156.744 61.9472 155.435 61.8789C154.963 61.8505 154.604 61.4521 154.627 60.9798C154.65 60.5075 155.042 60.1376 155.526 60.1717C156.858 60.2457 158.201 60.3481 159.532 60.4733C159.999 60.5188 160.346 60.9343 160.301 61.4066C160.261 61.8505 159.885 62.1805 159.453 62.1805L159.458 62.1748ZM147.525 61.7594C147.064 61.7594 146.683 61.3895 146.671 60.9286C146.66 60.4563 147.03 60.0636 147.502 60.0522C148.367 60.0294 149.221 60.0238 150.097 60.0181C150.569 60.0181 151.047 60.0181 151.52 60.0294C151.992 60.0351 152.368 60.4221 152.362 60.8944C152.356 61.3668 151.986 61.7594 151.497 61.7367C151.013 61.731 150.53 61.7253 150.046 61.7253C149.209 61.7253 148.379 61.7367 147.548 61.7594C147.542 61.7594 147.531 61.7594 147.525 61.7594Z" fill="#D1D1D1"/>
<g clip-path="url(#clip1_2242_4018)">
<path d="M104.58 154.176H110.437C110.91 154.176 111.331 153.982 111.623 153.657H111.638C112.224 153.415 112.633 152.832 112.633 152.168V125.541C119.447 109.436 135.161 99.0449 152.743 99.0449C170.326 99.0449 186.007 109.422 192.839 125.492L192.971 125.817V152.653C192.971 153.542 193.702 154.274 194.595 154.274C194.791 154.274 194.971 154.24 195.132 154.176H201.004C200.873 157.544 198.059 160.248 194.644 160.248H180.934C180.217 161.379 179.422 162.451 178.592 163.485H194.648C199.935 163.485 204.227 159.228 204.276 153.982C209.417 153.06 213.338 148.561 213.338 143.169V134.637C213.338 128.565 208.377 123.629 202.276 123.629H196.355C196.096 123.629 195.852 123.693 195.639 123.808C188.217 106.782 171.414 95.8076 152.743 95.8076C134.073 95.8076 117.398 106.685 109.931 123.633H104.58C98.498 123.633 93.5376 128.569 93.5376 134.641V143.173C93.5376 149.244 98.498 154.18 104.58 154.18V154.176Z" fill="#B4AEA8"/>
<path d="M169.204 163.631H154.42C152.176 163.631 150.353 161.82 150.353 159.583V157.933C150.353 152.802 154.533 148.643 159.673 148.643H169.204C171.448 148.643 173.271 150.457 173.271 152.69V159.587C173.271 159.815 173.256 160.039 173.222 160.252H180.933C184.269 155.073 186.205 148.938 186.205 142.351C186.205 123.995 171.192 109.071 152.747 109.071C134.301 109.071 119.303 123.995 119.303 142.351C119.303 160.707 134.301 175.647 152.747 175.647C163.14 175.647 172.446 170.904 178.592 163.489H170.281C169.939 163.586 169.583 163.635 169.208 163.635L169.204 163.631Z" fill="#B4AEA8"/>
<path fill-rule="evenodd" clip-rule="evenodd" d="M169.208 163.635C169.583 163.635 169.939 163.586 170.281 163.489H178.592C178.23 163.925 177.857 164.353 177.474 164.77C171.346 171.446 162.528 175.647 152.747 175.647C134.301 175.647 119.303 160.707 119.303 142.351C119.303 123.995 134.301 109.071 152.747 109.071C171.192 109.071 186.205 123.995 186.205 142.351C186.205 148.938 184.269 155.073 180.933 160.252H173.222C173.256 160.039 173.271 159.815 173.271 159.587V152.69C173.271 150.457 171.448 148.643 169.204 148.643H159.673C154.533 148.643 150.353 152.802 150.353 157.933V159.583C150.353 161.82 152.176 163.631 154.42 163.631H169.204L169.208 163.635ZM168.675 164.912H154.42C151.475 164.912 149.071 162.534 149.071 159.583V157.933C149.071 152.09 153.83 147.362 159.673 147.362H169.204C172.149 147.362 174.552 149.744 174.552 152.69V158.97H180.225C183.206 154.117 184.924 148.435 184.924 142.351C184.924 124.709 170.491 110.352 152.747 110.352C135.003 110.352 120.585 124.709 120.585 142.351C120.585 159.994 135.003 174.365 152.747 174.365C161.724 174.365 169.857 170.688 175.705 164.77H170.446C170.043 164.868 169.63 164.916 169.208 164.916H168.679L168.675 164.912Z" fill="#B4AEA8"/>
<path d="M169.204 151.876H159.674C156.323 151.876 153.606 154.595 153.606 157.929V159.579C153.606 160.016 153.963 160.39 154.421 160.39H168.619C168.814 160.293 169.043 160.244 169.287 160.244H169.662C169.872 160.098 170.019 159.856 170.019 159.579V152.683C170.019 152.246 169.662 151.873 169.204 151.873V151.876Z" fill="#B4AEA8"/>
<path d="M157.216 201.262L169.009 213.483L184.772 185.818C182.382 185.381 179.924 185.153 177.421 185.138L157.22 201.262H157.216Z" fill="#B4AEA8"/>
<path d="M124.782 185.773L140.56 213.486L152.339 201.314L133.341 185.127H132.512C129.893 185.127 127.323 185.336 124.786 185.773H124.782Z" fill="#B4AEA8"/>
<path d="M188.104 186.516L170.765 216.963C170.521 217.414 170.067 217.706 169.56 217.773C169.496 217.788 169.414 217.788 169.35 217.788C168.911 217.788 168.487 217.609 168.179 217.287L154.792 203.449L141.389 217.287C141.081 217.612 140.657 217.788 140.218 217.788C140.154 217.788 140.087 217.788 140.023 217.773C139.52 217.709 139.062 217.418 138.803 216.963L121.431 186.468C119.446 186.938 117.51 187.569 115.607 188.312L115.581 188.376C98.6024 195.078 86.5729 211.593 86.5729 230.838V276.989H112.125C112.107 276.885 112.092 276.776 112.092 276.668V229.247C112.092 228.217 112.932 227.38 113.968 227.38C115.003 227.38 115.844 228.217 115.844 229.247V276.668C115.844 276.795 115.829 276.915 115.806 277.034H191.259V229.008C191.259 228.101 191.991 227.391 192.884 227.391C193.327 227.391 193.728 227.567 194.021 227.851C194.032 227.862 194.043 227.873 194.055 227.884L194.509 229.27V277.034H222.778V230.838C222.778 209.502 208.009 191.52 188.1 186.52L188.104 186.516Z" fill="#B4AEA8"/>
</g>
</g>
<g clip-path="url(#clip2_2242_4018)">
<path d="M4.09532 91.1904H43.2276C45.4905 91.1904 47.3231 93.0461 47.3231 95.3333V117.489C47.3231 119.776 45.4871 121.632 43.2276 121.632H28.2133L28.8693 129.286L20.071 121.632H4.09532C1.83242 121.632 -0.00012207 119.78 -0.00012207 117.489V95.3333C-0.00012207 93.0461 1.83242 91.1904 4.09532 91.1904Z" fill="#B4AEA8"/>
<path d="M14.3408 100.1H7.323V107.193H14.3408V100.1Z" fill="white"/>
<path d="M39.9995 100.406H17.5232V101.377H39.9995V100.406Z" fill="white"/>
<path d="M39.9995 106.025H17.5232V106.997H39.9995V106.025Z" fill="white"/>
<path d="M39.9997 111.957H7.32288V112.929H39.9997V111.957Z" fill="white"/>
</g>
<path d="M278.483 83.3836C278.483 79.0645 281.98 75.5671 286.299 75.5671C290.618 75.5671 294.116 79.0686 294.116 83.3836C294.116 87.6986 290.618 91.2001 286.299 91.2001C281.98 91.2001 278.483 87.6986 278.483 83.3836Z" fill="#B4AEA8"/>
<path d="M271.824 108.477C271.824 100.482 278.305 94.0015 286.299 94.0015C294.294 94.0015 300.774 100.482 300.774 108.477V117.354H271.82V108.477H271.824Z" fill="#B4AEA8"/>
<path d="M239.729 72.7257H266.558C267.902 72.7257 268.995 73.8187 268.995 75.1626V86.869C268.995 88.217 267.902 89.3099 266.554 89.3099H239.729C238.381 89.3099 237.288 88.217 237.288 86.869V75.1626C237.288 73.8146 238.381 72.7217 239.729 72.7217V72.7257Z" fill="#FD8106"/>
<path d="M261.032 87.6827L263.793 94.8393L253.224 87.5208L261.032 87.6827Z" fill="#FD8106"/>
<path d="M260.956 81.0198C260.956 80.3478 261.503 79.8054 262.171 79.8054C262.839 79.8054 263.385 80.3478 263.385 81.0198C263.385 81.6917 262.843 82.2341 262.171 82.2341C261.499 82.2341 260.956 81.6917 260.956 81.0198Z" fill="#F8F8F8"/>
<path d="M251.928 81.0198C251.928 80.3478 252.471 79.8054 253.143 79.8054C253.815 79.8054 254.357 80.3478 254.357 81.0198C254.357 81.6917 253.811 82.2341 253.143 82.2341C252.475 82.2341 251.928 81.6917 251.928 81.0198Z" fill="#F8F8F8"/>
<path d="M242.899 81.0198C242.899 80.3478 243.441 79.8054 244.113 79.8054C244.785 79.8054 245.328 80.3478 245.328 81.0198C245.328 81.6917 244.785 82.2341 244.113 82.2341C243.441 82.2341 242.899 81.6917 242.899 81.0198Z" fill="#F8F8F8"/>
<g clip-path="url(#clip3_2242_4018)">
<path d="M82.9215 42.9114V46.7665C82.9215 48.7645 87.103 50.3838 92.2585 50.3838C97.4141 50.3838 101.596 48.7645 101.596 46.7665V42.9114H82.9215Z" fill="#B4AEA8"/>
<path d="M92.2611 50.5117C86.9541 50.5117 82.7979 48.8668 82.7979 46.7665V42.7834H101.727V46.7665C101.727 48.8668 97.5706 50.5117 92.2636 50.5117H92.2611ZM83.0502 43.0393V46.7665C83.0502 48.6902 87.1837 50.2558 92.2611 50.2558C97.3384 50.2558 101.472 48.6902 101.472 46.7665V43.0393H83.0477H83.0502Z" fill="#F8F8F8"/>
<path d="M92.2611 46.7206C97.4178 46.7206 101.598 45.1011 101.598 43.1033C101.598 41.1056 97.4178 39.4861 92.2611 39.4861C87.1044 39.4861 82.9241 41.1056 82.9241 43.1033C82.9241 45.1011 87.1044 46.7206 92.2611 46.7206Z" fill="#B4AEA8"/>
<path d="M92.2613 46.8511C86.9543 46.8511 82.7981 45.2062 82.7981 43.106C82.7981 41.0057 86.9543 39.3608 92.2613 39.3608C97.5683 39.3608 101.725 41.0057 101.725 43.106C101.725 45.2062 97.5683 46.8511 92.2613 46.8511ZM92.2613 39.6167C87.1815 39.6167 83.0504 41.1823 83.0504 43.106C83.0504 45.0297 87.184 46.5953 92.2613 46.5953C97.3386 46.5953 101.472 45.0297 101.472 43.106C101.472 41.1823 97.3386 39.6167 92.2613 39.6167Z" fill="#F8F8F8"/>
<path d="M100.194 42.9883C100.194 44.3901 96.676 45.5285 92.3355 45.5285C87.9951 45.5285 84.4773 44.3901 84.4773 42.9883C84.4773 41.5864 87.9951 40.448 92.3355 40.448C96.676 40.448 100.194 41.5864 100.194 42.9883Z" fill="#B4AEA8"/>
<path d="M92.3354 45.6564C87.8587 45.6564 84.351 44.4848 84.351 42.9882C84.351 41.4917 87.8587 40.3201 92.3354 40.3201C96.8121 40.3201 100.32 41.4917 100.32 42.9882C100.32 44.4848 96.8121 45.6564 92.3354 45.6564ZM92.3354 40.5759C88.1438 40.5759 84.6033 41.681 84.6033 42.9882C84.6033 44.2955 88.1438 45.4006 92.3354 45.4006C96.527 45.4006 100.067 44.2955 100.067 42.9882C100.067 41.681 96.527 40.5759 92.3354 40.5759Z" fill="#F8F8F8"/>
<path d="M82.9215 38.1455V42.0007C82.9215 43.9986 87.103 45.6179 92.2585 45.6179C97.4141 45.6179 101.596 43.9986 101.596 42.0007V38.1455H82.9215Z" fill="#B4AEA8"/>
<path d="M92.2611 45.7458C86.9541 45.7458 82.7979 44.1009 82.7979 42.0006V38.0176H101.727V42.0006C101.727 44.1009 97.5706 45.7458 92.2636 45.7458H92.2611ZM83.0502 38.2734V42.0006C83.0502 43.9244 87.1837 45.49 92.2611 45.49C97.3384 45.49 101.472 43.9244 101.472 42.0006V38.2734H83.0477H83.0502Z" fill="#F8F8F8"/>
<path d="M101.598 38.3375C101.598 40.3354 97.4167 41.9547 92.2611 41.9547C87.1056 41.9547 82.9241 40.3354 82.9241 38.3375C82.9241 36.3395 87.1056 34.7202 92.2611 34.7202C97.4167 34.7202 101.598 36.3395 101.598 38.3375Z" fill="#B4AEA8"/>
<path d="M92.2613 42.0826C86.9543 42.0826 82.7981 40.4377 82.7981 38.3374C82.7981 36.2372 86.9543 34.5923 92.2613 34.5923C97.5683 34.5923 101.725 36.2372 101.725 38.3374C101.725 40.4377 97.5683 42.0826 92.2613 42.0826ZM92.2613 34.8481C87.1815 34.8481 83.0504 36.4137 83.0504 38.3374C83.0504 40.2612 87.184 41.8268 92.2613 41.8268C97.3386 41.8268 101.472 40.2612 101.472 38.3374C101.472 36.4137 97.3386 34.8481 92.2613 34.8481Z" fill="#F8F8F8"/>
<path d="M100.194 38.2224C100.194 39.6243 96.676 40.7626 92.3355 40.7626C87.9951 40.7626 84.4773 39.6243 84.4773 38.2224C84.4773 36.8205 87.9951 35.6821 92.3355 35.6821C96.676 35.6821 100.194 36.8205 100.194 38.2224Z" fill="#B4AEA8"/>
<path d="M92.3354 40.8905C87.8587 40.8905 84.351 39.7189 84.351 38.2224C84.351 36.7258 87.8587 35.5542 92.3354 35.5542C96.8121 35.5542 100.32 36.7258 100.32 38.2224C100.32 39.7189 96.8121 40.8905 92.3354 40.8905ZM92.3354 35.81C88.1438 35.81 84.6033 36.9151 84.6033 38.2224C84.6033 39.5296 88.1438 40.6347 92.3354 40.6347C96.527 40.6347 100.067 39.5296 100.067 38.2224C100.067 36.9151 96.527 35.81 92.3354 35.81Z" fill="#F8F8F8"/>
<path d="M82.9215 33.8276V37.6828C82.9215 39.6807 87.103 41.3 92.2585 41.3C97.4141 41.3 101.596 39.6807 101.596 37.6828V33.8276H82.9215Z" fill="#B4AEA8"/>
<path d="M92.2611 41.4279C86.9541 41.4279 82.7979 39.783 82.7979 37.6828V33.6997H101.727V37.6828C101.727 39.783 97.5706 41.4279 92.2636 41.4279H92.2611ZM83.0502 33.9555V37.6828C83.0502 39.6065 87.1837 41.1721 92.2611 41.1721C97.3384 41.1721 101.472 39.6065 101.472 37.6828V33.9555H83.0477H83.0502Z" fill="#F8F8F8"/>
<path d="M92.2611 37.6368C97.4178 37.6368 101.598 36.0173 101.598 34.0196C101.598 32.0218 97.4178 30.4023 92.2611 30.4023C87.1044 30.4023 82.9241 32.0218 82.9241 34.0196C82.9241 36.0173 87.1044 37.6368 92.2611 37.6368Z" fill="#B4AEA8"/>
<path d="M92.2613 37.7647C86.9543 37.7647 82.7981 36.1198 82.7981 34.0196C82.7981 31.9193 86.9543 30.2744 92.2613 30.2744C97.5683 30.2744 101.725 31.9193 101.725 34.0196C101.725 36.1198 97.5683 37.7647 92.2613 37.7647ZM92.2613 30.5302C87.1815 30.5302 83.0504 32.0958 83.0504 34.0196C83.0504 35.9433 87.184 37.5089 92.2613 37.5089C97.3386 37.5089 101.472 35.9433 101.472 34.0196C101.472 32.0958 97.3386 30.5302 92.2613 30.5302Z" fill="#F8F8F8"/>
<path d="M100.194 33.9045C100.194 35.3064 96.676 36.4448 92.3355 36.4448C87.9951 36.4448 84.4773 35.3064 84.4773 33.9045C84.4773 32.5026 87.9951 31.3643 92.3355 31.3643C96.676 31.3643 100.194 32.5026 100.194 33.9045Z" fill="#B4AEA8"/>
<path d="M92.3354 36.5727C87.8587 36.5727 84.351 35.401 84.351 33.9045C84.351 32.408 87.8587 31.2363 92.3354 31.2363C96.8121 31.2363 100.32 32.408 100.32 33.9045C100.32 35.401 96.8121 36.5727 92.3354 36.5727ZM92.3354 31.4921C88.1438 31.4921 84.6033 32.5973 84.6033 33.9045C84.6033 35.2117 88.1438 36.3168 92.3354 36.3168C96.527 36.3168 100.067 35.2117 100.067 33.9045C100.067 32.5973 96.527 31.4921 92.3354 31.4921Z" fill="#F8F8F8"/>
<path d="M83.9299 29.5068V33.362C83.9299 35.3599 88.1114 36.9792 93.2669 36.9792C98.4225 36.9792 102.604 35.3599 102.604 33.362V29.5068H83.9274H83.9299Z" fill="#B4AEA8"/>
<path d="M93.2689 37.1071C87.9619 37.1071 83.8057 35.4622 83.8057 33.362V29.3789H102.735V33.362C102.735 35.4622 98.5784 37.1071 93.2714 37.1071H93.2689ZM84.058 29.6347V33.362C84.058 35.2857 88.1915 36.8513 93.2689 36.8513C98.3462 36.8513 102.48 35.2857 102.48 33.362V29.6347H84.0555H84.058Z" fill="#F8F8F8"/>
<path d="M102.606 29.6988C102.606 31.6967 98.4244 33.316 93.2688 33.316C88.1132 33.316 83.9318 31.6967 83.9318 29.6988C83.9318 27.7009 88.1132 26.0815 93.2688 26.0815C98.4244 26.0815 102.606 27.7009 102.606 29.6988Z" fill="#B4AEA8"/>
<path d="M93.2686 33.4439C87.9617 33.4439 83.8054 31.799 83.8054 29.6988C83.8054 27.5985 87.9617 25.9536 93.2686 25.9536C98.5756 25.9536 102.732 27.5985 102.732 29.6988C102.732 31.799 98.5756 33.4439 93.2686 33.4439ZM93.2686 26.2094C88.1888 26.2094 84.0578 27.775 84.0578 29.6988C84.0578 31.6225 88.1913 33.1881 93.2686 33.1881C98.346 33.1881 102.479 31.6225 102.479 29.6988C102.479 27.775 98.346 26.2094 93.2686 26.2094Z" fill="#F8F8F8"/>
<path d="M101.204 29.5837C101.204 30.9856 97.686 32.124 93.3456 32.124C89.0051 32.124 85.4873 30.9856 85.4873 29.5837C85.4873 28.1818 89.0051 27.0435 93.3456 27.0435C97.686 27.0435 101.204 28.1818 101.204 29.5837Z" fill="#B4AEA8"/>
<path d="M93.3447 32.2519C88.8679 32.2519 85.3602 31.0802 85.3602 29.5837C85.3602 28.0872 88.8679 26.9155 93.3447 26.9155C97.8214 26.9155 101.329 28.0872 101.329 29.5837C101.329 31.0802 97.8214 32.2519 93.3447 32.2519ZM93.3447 27.1713C89.1531 27.1713 85.6126 28.2765 85.6126 29.5837C85.6126 30.8909 89.1531 31.996 93.3447 31.996C97.5362 31.996 101.077 30.8909 101.077 29.5837C101.077 28.2765 97.5362 27.1713 93.3447 27.1713Z" fill="#F8F8F8"/>
<path d="M82.9215 25.1885V29.0436C82.9215 31.0416 87.103 32.6609 92.2585 32.6609C97.4141 32.6609 101.596 31.0416 101.596 29.0436V25.1885H82.9215Z" fill="#B4AEA8"/>
<path d="M92.2611 32.7863C86.9541 32.7863 82.7979 31.1414 82.7979 29.0412V25.0581H101.727V29.0412C101.727 31.1414 97.5706 32.7863 92.2636 32.7863H92.2611ZM83.0502 25.3139V29.0412C83.0502 30.9649 87.1837 32.5305 92.2611 32.5305C97.3384 32.5305 101.472 30.9649 101.472 29.0412V25.3139H83.0477H83.0502Z" fill="#F8F8F8"/>
<path d="M92.2611 28.9977C97.4178 28.9977 101.598 27.3782 101.598 25.3804C101.598 23.3827 97.4178 21.7632 92.2611 21.7632C87.1044 21.7632 82.9241 23.3827 82.9241 25.3804C82.9241 27.3782 87.1044 28.9977 92.2611 28.9977Z" fill="#B4AEA8"/>
<path d="M92.2613 29.1256C86.9543 29.1256 82.7981 27.4807 82.7981 25.3804C82.7981 23.2802 86.9543 21.6353 92.2613 21.6353C97.5683 21.6353 101.725 23.2802 101.725 25.3804C101.725 27.4807 97.5683 29.1256 92.2613 29.1256ZM92.2613 21.8911C87.1815 21.8911 83.0504 23.4567 83.0504 25.3804C83.0504 27.3041 87.184 28.8697 92.2613 28.8697C97.3386 28.8697 101.472 27.3041 101.472 25.3804C101.472 23.4567 97.3386 21.8911 92.2613 21.8911Z" fill="#F8F8F8"/>
<path d="M100.194 25.2627C100.194 26.6645 96.676 27.8029 92.3355 27.8029C87.9951 27.8029 84.4773 26.6645 84.4773 25.2627C84.4773 23.8608 87.9951 22.7224 92.3355 22.7224C96.676 22.7224 100.194 23.8608 100.194 25.2627Z" fill="#B4AEA8"/>
<path d="M92.3354 27.9308C87.8587 27.9308 84.351 26.7592 84.351 25.2626C84.351 23.7661 87.8587 22.5945 92.3354 22.5945C96.8121 22.5945 100.32 23.7661 100.32 25.2626C100.32 26.7592 96.8121 27.9308 92.3354 27.9308ZM92.3354 22.8503C88.1438 22.8503 84.6033 23.9554 84.6033 25.2626C84.6033 26.5699 88.1438 27.675 92.3354 27.675C96.527 27.675 100.067 26.5699 100.067 25.2626C100.067 23.9554 96.527 22.8503 92.3354 22.8503Z" fill="#F8F8F8"/>
<path d="M82.9215 20.8677V24.7228C82.9215 26.7208 87.103 28.3401 92.2585 28.3401C97.4141 28.3401 101.596 26.7208 101.596 24.7228V20.8677H82.9215Z" fill="#B4AEA8"/>
<path d="M92.2611 28.468C86.9541 28.468 82.7979 26.8231 82.7979 24.7228V20.7397H101.727V24.7228C101.727 26.8231 97.5706 28.468 92.2636 28.468H92.2611ZM83.0477 20.9956V24.7228C83.0477 26.6465 87.1812 28.2121 92.2585 28.2121C97.3359 28.2121 101.469 26.6465 101.469 24.7228V20.9956H83.0477Z" fill="#F8F8F8"/>
<path d="M101.598 21.0596C101.598 23.0575 97.4167 24.6769 92.2611 24.6769C87.1056 24.6769 82.9241 23.0575 82.9241 21.0596C82.9241 19.0617 87.103 17.4424 92.2611 17.4424C97.4192 17.4424 101.598 19.0617 101.598 21.0596Z" fill="#B4AEA8"/>
<path d="M92.2613 24.8048C86.9543 24.8048 82.7981 23.1599 82.7981 21.0596C82.7981 18.9594 86.9543 17.3145 92.2613 17.3145C97.5683 17.3145 101.725 18.9594 101.725 21.0596C101.725 23.1599 97.5683 24.8048 92.2613 24.8048ZM92.2613 17.5703C87.1815 17.5703 83.0504 19.1359 83.0504 21.0596C83.0504 22.9833 87.184 24.5489 92.2613 24.5489C97.3386 24.5489 101.472 22.9833 101.472 21.0596C101.472 19.1359 97.3412 17.5703 92.2613 17.5703Z" fill="#F8F8F8"/>
<path d="M100.194 20.9446C100.194 22.3464 96.676 23.4848 92.3355 23.4848C87.9951 23.4848 84.4773 22.3464 84.4773 20.9446C84.4773 19.5427 87.9951 18.4043 92.3355 18.4043C96.676 18.4043 100.194 19.5427 100.194 20.9446Z" fill="#B4AEA8"/>
<path d="M92.3354 23.6127C87.8587 23.6127 84.351 22.4411 84.351 20.9445C84.351 19.448 87.8587 18.2764 92.3354 18.2764C96.8121 18.2764 100.32 19.448 100.32 20.9445C100.32 22.4411 96.8121 23.6127 92.3354 23.6127ZM92.3354 18.5322C88.1438 18.5322 84.6033 19.6373 84.6033 20.9445C84.6033 22.2518 88.1438 23.3569 92.3354 23.3569C96.527 23.3569 100.067 22.2518 100.067 20.9445C100.067 19.6373 96.527 18.5322 92.3354 18.5322Z" fill="#F8F8F8"/>
<path d="M67.0754 45.5002V49.3554C67.0754 51.3533 71.2569 52.9726 76.4125 52.9726C81.568 52.9726 85.752 51.3533 85.752 49.3554V45.5002H67.0754Z" fill="#B4AEA8"/>
<path d="M76.4124 53.0981C71.1055 53.0981 66.9492 51.4532 66.9492 49.3529V45.3699H85.8782V49.3529C85.8782 51.4532 81.7219 53.0981 76.4124 53.0981ZM67.2016 45.6282V49.3555C67.2016 51.2792 71.3351 52.8448 76.4124 52.8448C81.4898 52.8448 85.6258 51.2792 85.6258 49.3555V45.6282H67.2016Z" fill="#F8F8F8"/>
<path d="M85.752 45.6922C85.752 47.6901 81.5706 49.3094 76.4125 49.3094C71.2544 49.3094 67.0754 47.6901 67.0754 45.6922C67.0754 43.6943 71.2569 42.075 76.4125 42.075C81.568 42.075 85.752 43.6943 85.752 45.6922Z" fill="#B4AEA8"/>
<path d="M76.4124 49.4373C71.1055 49.4373 66.9492 47.7924 66.9492 45.6922C66.9492 43.5919 71.1055 41.947 76.4124 41.947C81.7194 41.947 85.8782 43.5919 85.8782 45.6922C85.8782 47.7924 81.7219 49.4373 76.4124 49.4373ZM76.4124 42.2028C71.3326 42.2028 67.2016 43.7684 67.2016 45.6922C67.2016 47.6159 71.3351 49.1815 76.4124 49.1815C81.4898 49.1815 85.6258 47.6159 85.6258 45.6922C85.6258 43.7684 81.4923 42.2028 76.4124 42.2028Z" fill="#F8F8F8"/>
<path d="M84.3464 45.5744C84.3464 46.9763 80.8286 48.1147 76.4881 48.1147C72.1477 48.1147 68.6299 46.9763 68.6299 45.5744C68.6299 44.1726 72.1477 43.0342 76.4881 43.0342C80.8286 43.0342 84.3464 44.1726 84.3464 45.5744Z" fill="#B4AEA8"/>
<path d="M76.4882 48.2426C72.0115 48.2426 68.5038 47.0709 68.5038 45.5744C68.5038 44.0779 72.0115 42.9062 76.4882 42.9062C80.9649 42.9062 84.4726 44.0779 84.4726 45.5744C84.4726 47.0709 80.9649 48.2426 76.4882 48.2426ZM76.4882 43.1621C72.2966 43.1621 68.7561 44.2672 68.7561 45.5744C68.7561 46.8816 72.2966 47.9868 76.4882 47.9868C80.6798 47.9868 84.2203 46.8816 84.2203 45.5744C84.2203 44.2672 80.6798 43.1621 76.4882 43.1621Z" fill="#F8F8F8"/>
<path d="M67.0754 40.7319V44.5871C67.0754 46.585 71.2569 48.2043 76.4125 48.2043C81.568 48.2043 85.752 46.585 85.752 44.5871V40.7319H67.0754Z" fill="#B4AEA8"/>
<path d="M76.4124 48.3322C71.1055 48.3322 66.9492 46.6873 66.9492 44.5871V40.604H85.8782V44.5871C85.8782 46.6873 81.7219 48.3322 76.4124 48.3322ZM67.2016 40.8598V44.5871C67.2016 46.5108 71.3351 48.0764 76.4124 48.0764C81.4898 48.0764 85.6258 46.5108 85.6258 44.5871V40.8598H67.2016Z" fill="#F8F8F8"/>
<path d="M85.752 40.9239C85.752 42.9218 81.5706 44.5411 76.4125 44.5411C71.2544 44.5411 67.0754 42.9218 67.0754 40.9239C67.0754 38.926 71.2569 37.3066 76.4125 37.3066C81.568 37.3066 85.752 38.926 85.752 40.9239Z" fill="#B4AEA8"/>
<path d="M76.4124 44.669C71.1055 44.669 66.9492 43.0241 66.9492 40.9239C66.9492 38.8236 71.1055 37.1787 76.4124 37.1787C81.7194 37.1787 85.8782 38.8236 85.8782 40.9239C85.8782 43.0241 81.7219 44.669 76.4124 44.669ZM76.4124 37.4345C71.3326 37.4345 67.2016 39.0001 67.2016 40.9239C67.2016 42.8476 71.3351 44.4132 76.4124 44.4132C81.4898 44.4132 85.6258 42.8476 85.6258 40.9239C85.6258 39.0001 81.4923 37.4345 76.4124 37.4345Z" fill="#F8F8F8"/>
<path d="M84.3464 40.8088C84.3464 42.2107 80.8286 43.3491 76.4881 43.3491C72.1477 43.3491 68.6299 42.2107 68.6299 40.8088C68.6299 39.4069 72.1477 38.2686 76.4881 38.2686C80.8286 38.2686 84.3464 39.4069 84.3464 40.8088Z" fill="#B4AEA8"/>
<path d="M76.4882 43.4769C72.0115 43.4769 68.5038 42.3053 68.5038 40.8088C68.5038 39.3123 72.0115 38.1406 76.4882 38.1406C80.9649 38.1406 84.4726 39.3123 84.4726 40.8088C84.4726 42.3053 80.9649 43.4769 76.4882 43.4769ZM76.4882 38.3964C72.2966 38.3964 68.7561 39.5016 68.7561 40.8088C68.7561 42.116 72.2966 43.2211 76.4882 43.2211C80.6798 43.2211 84.2203 42.116 84.2203 40.8088C84.2203 39.5016 80.6798 38.3964 76.4882 38.3964Z" fill="#F8F8F8"/>
<path d="M67.0754 36.4138V40.269C67.0754 42.2669 71.2569 43.8862 76.4125 43.8862C81.568 43.8862 85.752 42.2669 85.752 40.269V36.4138H67.0754Z" fill="#B4AEA8"/>
<path d="M76.4124 44.0141C71.1055 44.0141 66.9492 42.3692 66.9492 40.2689V36.2859H85.8782V40.2689C85.8782 42.3692 81.7219 44.0141 76.4124 44.0141ZM67.2016 36.5417V40.2689C67.2016 42.1927 71.3351 43.7583 76.4124 43.7583C81.4898 43.7583 85.6258 42.1927 85.6258 40.2689V36.5417H67.2016Z" fill="#F8F8F8"/>
<path d="M85.752 36.6058C85.752 38.6037 81.5706 40.223 76.4125 40.223C71.2544 40.223 67.0754 38.6037 67.0754 36.6058C67.0754 34.6078 71.2569 32.9885 76.4125 32.9885C81.568 32.9885 85.752 34.6078 85.752 36.6058Z" fill="#B4AEA8"/>
<path d="M76.4124 40.3509C71.1055 40.3509 66.9492 38.706 66.9492 36.6057C66.9492 34.5055 71.1055 32.8606 76.4124 32.8606C81.7194 32.8606 85.8782 34.5055 85.8782 36.6057C85.8782 38.706 81.7219 40.3509 76.4124 40.3509ZM76.4124 33.1164C71.3326 33.1164 67.2016 34.682 67.2016 36.6057C67.2016 38.5295 71.3351 40.0951 76.4124 40.0951C81.4898 40.0951 85.6258 38.5295 85.6258 36.6057C85.6258 34.682 81.4923 33.1164 76.4124 33.1164Z" fill="#F8F8F8"/>
<path d="M84.3464 36.4907C84.3464 37.8926 80.8286 39.0309 76.4881 39.0309C72.1477 39.0309 68.6299 37.8926 68.6299 36.4907C68.6299 35.0888 72.1477 33.9504 76.4881 33.9504C80.8286 33.9504 84.3464 35.0888 84.3464 36.4907Z" fill="#B4AEA8"/>
<path d="M76.4882 39.1588C72.0115 39.1588 68.5038 37.9872 68.5038 36.4907C68.5038 34.9941 72.0115 33.8225 76.4882 33.8225C80.9649 33.8225 84.4726 34.9941 84.4726 36.4907C84.4726 37.9872 80.9649 39.1588 76.4882 39.1588ZM76.4882 34.0783C72.2966 34.0783 68.7561 35.1835 68.7561 36.4907C68.7561 37.7979 72.2966 38.903 76.4882 38.903C80.6798 38.903 84.2203 37.7979 84.2203 36.4907C84.2203 35.1835 80.6798 34.0783 76.4882 34.0783Z" fill="#F8F8F8"/>
<path d="M67.0754 31.9805V35.8356C67.0754 37.8335 71.2569 39.4529 76.4125 39.4529C81.568 39.4529 85.752 37.8335 85.752 35.8356V31.9805H67.0754Z" fill="#B4AEA8"/>
<path d="M76.4124 39.5807C71.1055 39.5807 66.9492 37.9358 66.9492 35.8356V31.8525H85.8782V35.8356C85.8782 37.9358 81.7219 39.5807 76.4124 39.5807ZM67.2016 32.1084V35.8356C67.2016 37.7593 71.3351 39.3249 76.4124 39.3249C81.4898 39.3249 85.6258 37.7593 85.6258 35.8356V32.1084H67.2016Z" fill="#F8F8F8"/>
<path d="M85.752 32.1724C85.752 34.1703 81.5706 35.7897 76.4125 35.7897C71.2544 35.7897 67.0754 34.1703 67.0754 32.1724C67.0754 30.1745 71.2569 28.5552 76.4125 28.5552C81.568 28.5552 85.752 30.1745 85.752 32.1724Z" fill="#B4AEA8"/>
<path d="M76.4124 35.9175C71.1055 35.9175 66.9492 34.2726 66.9492 32.1724C66.9492 30.0721 71.1055 28.4272 76.4124 28.4272C81.7194 28.4272 85.8782 30.0721 85.8782 32.1724C85.8782 34.2726 81.7219 35.9175 76.4124 35.9175ZM76.4124 28.6831C71.3351 28.6831 67.2016 30.2487 67.2016 32.1724C67.2016 34.0961 71.3351 35.6617 76.4124 35.6617C81.4898 35.6617 85.6258 34.0961 85.6258 32.1724C85.6258 30.2487 81.4923 28.6831 76.4124 28.6831Z" fill="#F8F8F8"/>
<path d="M84.3464 32.0547C84.3464 33.4565 80.8286 34.5949 76.4881 34.5949C72.1477 34.5949 68.6299 33.4565 68.6299 32.0547C68.6299 30.6528 72.1477 29.5144 76.4881 29.5144C80.8286 29.5144 84.3464 30.6528 84.3464 32.0547Z" fill="#B4AEA8"/>
<path d="M76.4882 34.7228C72.0115 34.7228 68.5038 33.5512 68.5038 32.0546C68.5038 30.5581 72.0115 29.3865 76.4882 29.3865C80.9649 29.3865 84.4726 30.5581 84.4726 32.0546C84.4726 33.5512 80.9649 34.7228 76.4882 34.7228ZM76.4882 29.6423C72.2966 29.6423 68.7561 30.7474 68.7561 32.0546C68.7561 33.3619 72.2966 34.467 76.4882 34.467C80.6798 34.467 84.2203 33.3619 84.2203 32.0546C84.2203 30.7474 80.6798 29.6423 76.4882 29.6423Z" fill="#F8F8F8"/>
</g>
<path d="M190.463 20.7773C190.463 31.6149 181.677 40.4006 170.839 40.4006C160.002 40.4006 151.216 31.6149 151.216 20.7773C151.216 9.93968 160.002 1.15405 170.839 1.15405C181.677 1.15405 190.463 9.93968 190.463 20.7773Z" fill="#B4AEA8"/>
<path d="M186.619 20.7773C186.619 29.4921 179.554 36.5568 170.839 36.5568C162.125 36.5568 155.06 29.4921 155.06 20.7773C155.06 12.0625 162.125 4.9978 170.839 4.9978C179.554 4.9978 186.619 12.0625 186.619 20.7773Z" fill="#F8F8F8"/>
<path d="M169.009 20.8551H170.55C171.044 20.8551 171.451 20.7717 171.771 20.6049C172.092 20.4314 172.328 20.1911 172.482 19.8842C172.642 19.5705 172.722 19.2068 172.722 18.7931C172.722 18.4194 172.649 18.089 172.502 17.8021C172.362 17.5085 172.145 17.2816 171.851 17.1214C171.558 16.9546 171.187 16.8712 170.74 16.8712C170.387 16.8712 170.06 16.9412 169.759 17.0814C169.459 17.2215 169.219 17.4184 169.039 17.672C168.858 17.9255 168.768 18.2325 168.768 18.5929H165.875C165.875 17.7921 166.089 17.0947 166.516 16.5008C166.95 15.9069 167.53 15.4431 168.258 15.1094C168.985 14.7757 169.786 14.6089 170.66 14.6089C171.648 14.6089 172.512 14.769 173.253 15.0894C173.993 15.403 174.571 15.8668 174.984 16.4808C175.398 17.0947 175.605 17.8555 175.605 18.763C175.605 19.2235 175.498 19.6706 175.285 20.1044C175.071 20.5315 174.764 20.9185 174.364 21.2656C173.97 21.6059 173.49 21.8795 172.922 22.0864C172.355 22.2866 171.718 22.3867 171.011 22.3867H169.009V20.8551ZM169.009 23.0473V21.5558H171.011C171.805 21.5558 172.502 21.6459 173.103 21.8261C173.703 22.0063 174.207 22.2666 174.614 22.6069C175.021 22.9406 175.328 23.3376 175.535 23.7981C175.742 24.2519 175.845 24.7557 175.845 25.3096C175.845 25.9903 175.715 26.5976 175.455 27.1314C175.195 27.6586 174.828 28.1057 174.354 28.4728C173.887 28.8398 173.34 29.1201 172.712 29.3136C172.085 29.5005 171.401 29.5939 170.66 29.5939C170.046 29.5939 169.442 29.5105 168.848 29.3436C168.261 29.1701 167.727 28.9132 167.247 28.5729C166.773 28.2259 166.393 27.7921 166.106 27.2716C165.825 26.7444 165.685 26.1204 165.685 25.3997H168.578C168.578 25.7734 168.672 26.1071 168.858 26.4007C169.045 26.6943 169.302 26.9246 169.629 27.0914C169.963 27.2582 170.333 27.3416 170.74 27.3416C171.201 27.3416 171.594 27.2582 171.921 27.0914C172.255 26.9179 172.509 26.6776 172.682 26.3707C172.862 26.057 172.952 25.6933 172.952 25.2796C172.952 24.7457 172.856 24.3186 172.662 23.9983C172.469 23.6713 172.192 23.4311 171.831 23.2776C171.471 23.1241 171.044 23.0473 170.55 23.0473H169.009Z" fill="#FD8106"/>
<path d="M191.958 0.112098C187.203 -0.654508 182.725 2.58374 181.962 7.33869C181.592 9.62198 182.15 11.8392 183.35 13.6136L181.777 16.4686C181.536 16.9114 181.714 17.1162 182.183 16.9246L185.266 15.6557C186.377 16.5082 187.708 17.1063 189.189 17.3409C193.944 18.1075 198.421 14.8693 199.184 10.1143C199.951 5.35939 196.713 0.882009 191.958 0.118707V0.112098Z" fill="#FD8106"/>
<path d="M190.61 13.9375C190.025 13.9375 189.585 13.4683 189.585 12.8801C189.585 12.2919 190.025 11.8029 190.61 11.8029C191.194 11.8029 191.647 12.2886 191.647 12.8801C191.647 13.4716 191.194 13.9375 190.61 13.9375ZM191.389 10.6133C191.376 10.6563 191.376 10.6728 191.356 10.6893C191.343 10.7058 191.264 10.7191 191.118 10.7191H189.939C189.889 10.7191 189.876 10.7025 189.876 10.6893C189.843 10.6596 189.826 10.5704 189.826 10.4316L189.602 4.29543C189.585 3.87248 189.602 3.85596 189.906 3.85596H191.323C191.624 3.85596 191.624 3.87248 191.611 4.29543L191.386 10.4316V10.6133H191.389Z" fill="#F8F8F8"/>
<defs>
<clipPath id="clip0_2242_4018">
<rect width="196.233" height="196.233" fill="white" transform="translate(51.9442 60.0239)"/>
</clipPath>
<clipPath id="clip1_2242_4018">
<rect width="136.208" height="181.226" fill="white" transform="translate(86.5731 95.8076)"/>
</clipPath>
<clipPath id="clip2_2242_4018">
<rect width="47.3267" height="38.0922" fill="white" transform="translate(-0.00012207 91.1904)"/>
</clipPath>
<clipPath id="clip3_2242_4018">
<rect width="35.7836" height="35.7836" fill="white" transform="translate(66.9492 17.3147)"/>
</clipPath>
</defs>
</svg>
