<svg width="149" height="46" viewBox="0 0 149 46" fill="none" xmlns="http://www.w3.org/2000/svg">
<g clip-path="url(#clip0_2351_166)">
<path d="M121.234 16.9395C121.234 8.87189 114.345 2.39427 106.047 2.89541C98.9593 3.32849 93.1803 9.008 92.7127 15.9929C92.4447 20.0701 93.9408 23.7945 96.5093 26.5167C96.8896 26.9251 97.4693 27.0983 98.0179 26.9622L98.0678 26.9498C98.5416 26.8446 98.9343 26.5167 99.1276 26.0775C100.063 23.9987 101.833 22.3592 104.009 21.5673C104.557 21.3693 104.626 20.6392 104.121 20.3546C101.964 19.142 100.686 16.5869 101.472 13.8399C101.995 12.0024 103.498 10.5485 105.368 10.0536C109.202 9.03893 112.662 11.8601 112.662 15.4732C112.662 17.552 111.515 19.3709 109.813 20.3423C109.289 20.6392 109.358 21.3817 109.919 21.5796C112.094 22.3654 113.846 24.0049 114.775 26.0837C114.968 26.5229 115.361 26.8384 115.829 26.956L115.872 26.9684C116.427 27.1045 117.007 26.9251 117.393 26.5167C119.769 24.0049 121.227 20.6454 121.227 16.9457" fill="#0031C8"/>
<path d="M125.709 23.8996V5.90833C125.709 4.25645 127.062 2.90771 128.739 2.90771H130.26C131.208 2.90771 132.106 3.34698 132.679 4.10178L142.94 17.5829V5.90833C142.94 4.25645 144.293 2.90771 145.97 2.90771C147.647 2.90771 149 4.24407 149 5.90833V23.8996C149 25.5515 147.647 26.9002 145.97 26.9002H144.449C143.501 26.9002 142.604 26.461 142.03 25.7062L131.769 12.2251V23.8996C131.769 25.5515 130.416 26.9002 128.739 26.9002C127.062 26.9002 125.709 25.5639 125.709 23.8996Z" fill="#0031C8"/>
<path d="M19.7494 2.36974V27.3027C19.7494 27.3027 19.7494 27.3583 19.7619 27.3893C19.818 28.5338 20.778 29.4433 21.95 29.4433C23.122 29.4433 24.1569 28.4658 24.1569 27.2655V2.38211C24.1569 1.17568 23.1719 0.204346 21.95 0.204346C20.7281 0.204346 19.7432 1.18187 19.7432 2.38211" fill="#EF7F1A"/>
<path d="M35.0354 2.61694H35.023C34.038 2.61694 33.2463 3.40267 33.2463 4.36782C33.2463 5.33296 34.0505 6.11869 35.023 6.11869H48.3763V8.74191H35.5342C35.2349 8.74191 34.9731 8.7914 34.7424 8.84708C34.3746 8.95226 34.0754 9.11312 33.851 9.36059C33.4769 9.7813 33.2899 10.3629 33.2899 11.0929V15.9619C33.2899 16.6982 33.4707 17.2735 33.851 17.6943C34.0754 17.9417 34.3746 18.1149 34.7424 18.2078C34.9856 18.2758 35.2536 18.3253 35.5653 18.3253H40.8518V21.1651H31.4072C30.3724 21.1651 29.5308 21.9941 29.5308 23.0087C29.5308 24.0234 30.3724 24.8524 31.4072 24.8524H55.0592C55.1776 24.8524 55.2649 24.84 55.3584 24.8215C56.2561 24.6854 56.9419 23.9244 56.9419 23.0025C56.9419 21.9817 56.1003 21.1589 55.0654 21.1589H45.2717V18.3191H51.805C51.9235 18.3191 52.0294 18.3006 52.1354 18.282C52.977 18.1459 53.6316 17.4282 53.6316 16.5621C53.6316 15.5969 52.8399 14.8112 51.8549 14.8112C51.8175 14.8112 51.7863 14.8112 51.7489 14.8236H38.0589C37.8844 14.8236 37.7597 14.7864 37.6724 14.706C37.5852 14.6318 37.5478 14.4833 37.5478 14.2482V12.2313H50.3712C51.138 12.2313 51.7053 12.0209 52.0856 11.6002C52.4534 11.1795 52.6466 10.598 52.6466 9.86791V4.02754C52.6466 3.56971 52.5095 3.21707 52.2476 2.98816C52.0232 2.79018 51.7177 2.69118 51.3562 2.65406C51.2814 2.65406 51.219 2.62314 51.1442 2.62314H35.0354V2.61694Z" fill="#EF7F1A"/>
<path d="M84.7518 14.9969H60.9066C59.9403 14.9969 59.1548 15.7703 59.1548 16.7169C59.1548 17.6634 59.9403 18.4368 60.9066 18.4368H70.5382V20.3856H65.2579C64.5909 20.3856 64.0859 20.5589 63.7181 20.8744C63.662 20.9239 63.5997 20.961 63.556 21.0167C63.2256 21.4003 63.0448 21.9076 63.0137 22.5387C63.0137 22.6067 62.995 22.681 62.995 22.749V27.6923C62.995 28.4285 63.1757 29.0101 63.556 29.4308C63.6059 29.4865 63.662 29.5236 63.7181 29.5731C64.0859 29.8886 64.5909 30.0618 65.2579 30.0618H80.2072C80.8742 30.0618 81.3792 29.901 81.747 29.5731C81.8031 29.5236 81.8717 29.4865 81.9215 29.4308C82.2706 29.0286 82.4514 28.4966 82.4701 27.816V22.749C82.4701 22.0128 82.2893 21.4312 81.9091 21.0105C81.5413 20.5898 80.974 20.3795 80.1947 20.3795H74.9332V18.4306H84.783C85.7492 18.4306 86.5347 17.6634 86.5347 16.7107C86.5347 15.7579 85.7492 14.9907 84.783 14.9907H84.7456M67.4461 26.5353C67.3588 26.4673 67.3214 26.325 67.3214 26.0961V23.8317H78.1686V26.6343H67.8201C67.6456 26.6343 67.5209 26.6034 67.4336 26.5415" fill="#EF7F1A"/>
<path d="M0 11.7983C0 16.4261 3.7903 20.1877 8.47207 20.1877C13.1538 20.1877 16.9441 16.4385 16.9441 11.7983C16.9441 7.15823 13.1538 3.42139 8.47207 3.42139C3.7903 3.42139 0 7.1706 0 11.7983ZM3.87758 11.7983C3.87758 9.29268 5.93481 7.25722 8.47207 7.25722C11.0093 7.25722 13.0666 9.29268 13.0666 11.7983C13.0666 14.304 11.0093 16.3395 8.47207 16.3395C5.93481 16.3395 3.87758 14.304 3.87758 11.7983Z" fill="#EF7F1A"/>
<path d="M65.6384 7.00349C65.6384 10.8764 68.8116 14.007 72.7141 14.007C76.6166 14.007 79.7897 10.8703 79.7897 7.00349C79.7897 3.13672 76.6166 0 72.7141 0C68.8116 0 65.6384 3.13672 65.6384 7.00349ZM69.4661 7.00349C69.4661 5.22168 70.9187 3.79253 72.7141 3.79253C74.5095 3.79253 75.962 5.22787 75.962 7.00349C75.962 8.77911 74.5095 10.2145 72.7141 10.2145C70.9187 10.2145 69.4661 8.77911 69.4661 7.00349Z" fill="#EF7F1A"/>
<path d="M44.9975 43.0975C44.2494 42.6396 43.2956 41.5446 42.9901 40.6104C42.6909 41.6374 41.762 42.7819 40.8207 43.2893L40.0913 42.4231C41.5625 41.4827 42.348 40.0536 42.348 38.2594V36.8797H43.5886V38.1913C43.5886 39.9793 44.318 41.328 45.6895 42.2128L44.9975 43.0975ZM46.369 45.1453V36.1125H47.5659V45.1453H46.369Z" fill="#EF7F1A"/>
<path d="M54.3361 42.4788C53.2327 42.7634 51.1879 42.8871 50.1156 42.8871H49.2803V37.022H50.4585V41.8787C51.6991 41.8787 53.1828 41.7673 54.1802 41.526L54.3361 42.4788ZM56.2873 45.1453H55.1091V36.1125H56.2873V45.1453Z" fill="#EF7F1A"/>
<path d="M59.9218 36.7312C61.4117 36.7312 62.272 38.0676 62.272 39.9669C62.272 41.8663 61.4055 43.1779 59.9218 43.1779C58.4381 43.1779 57.5715 41.8539 57.5715 39.9608C57.5715 38.0676 58.4443 36.7312 59.9218 36.7312ZM59.9218 37.684C59.2423 37.684 58.7435 38.544 58.7435 39.9608C58.7435 41.3775 59.2423 42.2251 59.9218 42.2251C60.6013 42.2251 61.1312 41.3775 61.1312 39.9608C61.1312 38.544 60.62 37.684 59.9218 37.684ZM63.8367 45.1453V40.4309H62.5027V39.4287H63.8367V36.1125H65.0337V45.1453H63.8367Z" fill="#EF7F1A"/>
<path d="M72.7577 42.9428C72.1654 42.584 71.3488 41.6745 71.1057 40.7898C70.8563 41.7302 70.1643 42.6644 69.3227 43.1717L68.6245 42.3612C69.7778 41.6188 70.5259 40.2577 70.5259 38.3336V36.9911H71.6792V38.3274C71.6792 40.0783 72.34 41.4518 73.4434 42.1076L72.7639 42.9428H72.7577ZM73.6492 44.7246V40.1897H72.421V39.2245H73.6492V36.2796H74.765V44.7184H73.6492V44.7246ZM75.4446 45.1453V36.1125H76.5792V45.1453H75.4446Z" fill="#EF7F1A"/>
<path d="M79.0353 42.0395C79.9642 42.0704 81.0614 41.9838 81.6661 41.8291L81.7783 42.7633C81.0988 42.9427 79.7647 43.0108 78.7049 43.0108H77.8384V37.189H81.2733V38.1294C80.5253 38.1294 79.7834 38.117 79.0291 38.117V42.0333L79.0353 42.0395ZM84.1722 45.1452V40.6227H83.368V44.7307H82.2458V36.2795H83.368V39.6823H84.1722V36.1187H85.313V45.1514H84.1722V45.1452Z" fill="#EF7F1A"/>
<path d="M89.3716 38.5935H90.6184V39.7814H89.3716V38.5935ZM89.3716 42.2623H90.6184V43.4625H89.3716V42.2623Z" fill="#EF7F1A"/>
<path d="M96.7962 36.7312C98.2923 36.7312 99.1589 38.0676 99.1589 39.9669C99.1589 41.8663 98.2923 43.1779 96.7962 43.1779C95.3 43.1779 94.4521 41.8539 94.4521 39.9608C94.4521 38.0676 95.3187 36.7312 96.7962 36.7312ZM96.7962 37.684C96.1166 37.684 95.6179 38.544 95.6179 39.9608C95.6179 41.3775 96.1166 42.2251 96.7962 42.2251C97.4757 42.2251 98.018 41.3775 98.018 39.9608C98.018 38.544 97.5068 37.684 96.7962 37.684ZM100.518 45.1453V36.1125H101.709V45.1453H100.518Z" fill="#0031C8"/>
<path d="M107.612 41.6682V43.0788H111.147V44.0192H102.931V43.0788H106.422V41.6682H103.972V38.68H108.915V37.6406H103.922V36.7002H110.106V39.6266H105.162V40.7216H110.362V41.6744H107.606L107.612 41.6682Z" fill="#0031C8"/>
<path d="M112.712 45.0279V41.9778H115.162V41.2168H111.671V40.264H119.887V41.2168H116.352V41.9778H118.84V45.0279H112.718H112.712ZM115.773 36.3044C117.817 36.3044 118.958 37.0407 118.958 38.0367C118.958 39.0328 117.817 39.7876 115.779 39.7876C113.74 39.7876 112.593 39.0452 112.593 38.0367C112.593 37.0283 113.734 36.3044 115.773 36.3044ZM115.773 38.8782C116.97 38.8782 117.73 38.5441 117.73 38.0491C117.73 37.5542 117.013 37.2201 115.773 37.2201C114.532 37.2201 113.821 37.5418 113.821 38.0491C113.821 38.5564 114.538 38.8782 115.773 38.8782ZM117.655 42.8872H113.902V44.1184H117.655V42.8872Z" fill="#0031C8"/>
<path d="M120.398 40.864V39.9236H128.615V40.864H120.398ZM124.525 36.2424C126.582 36.2424 127.742 36.8797 127.742 37.8634C127.742 38.8471 126.582 39.4843 124.525 39.4843C122.468 39.4843 121.308 38.8347 121.308 37.8634C121.308 36.892 122.462 36.2424 124.525 36.2424ZM121.377 45.102V42.7943H126.352V42.2808H121.389V41.3589H127.542V43.6357H122.58V44.1306H127.867V45.102H121.377ZM124.525 38.5934C125.791 38.5934 126.514 38.2717 126.514 37.8572C126.514 37.4427 125.797 37.1395 124.525 37.1395C123.253 37.1395 122.536 37.4427 122.536 37.8572C122.536 38.2717 123.253 38.5934 124.525 38.5934Z" fill="#0031C8"/>
<path d="M136.301 37.0406C136.289 40.0721 134.967 42.2437 132.262 43.6419C132.012 43.3635 131.8 43.0418 131.551 42.7572C132.817 42.188 133.858 41.2724 134.462 40.0969C133.621 40.1897 132.773 40.2886 131.931 40.3753L131.769 39.3544L134.849 39.1255C134.955 38.7729 135.011 38.4017 135.042 38.0181H132.212V37.0344H136.308L136.301 37.0406ZM138.059 40.9197V39.5648H136.42V38.5625H138.059V36.1125H139.25V45.1453H138.059V41.9158H136.283V40.9135H138.059V40.9197Z" fill="#0031C8"/>
<path d="M141.993 42.0766C143.29 42.0766 144.555 42.0395 145.584 41.7982L145.721 42.7386C144.836 42.9552 143.464 43.0418 141.688 43.0418H140.802V36.9354H144.961V37.8882H141.993V42.0704V42.0766ZM147.56 39.5215H148.863V40.5052H147.56V45.1453H146.369V36.1125H147.56V39.5215Z" fill="#0031C8"/>
</g>
<defs>
<clipPath id="clip0_2351_166">
<rect width="149" height="45.1515" fill="white"/>
</clipPath>
</defs>
</svg>
