<svg width="58" height="58" viewBox="0 0 58 58" fill="none" xmlns="http://www.w3.org/2000/svg">
<g clip-path="url(#clip0_1706_15472)">
<path d="M22.3106 33.4897L22.8082 33.4409L22.7988 33.345L22.7544 33.2594L22.3106 33.4897ZM40.3057 36.1807L40.6975 35.87L40.5473 35.6807H40.3057V36.1807ZM48.3905 46.3752L47.9987 46.6859L47.9988 46.6859L48.3905 46.3752ZM52.9068 42.5899L52.515 42.9006L52.515 42.9006L52.9068 42.5899ZM44.0056 31.366L44.3973 31.0553L44.3973 31.0553L44.0056 31.366ZM43.7803 31.1127L43.4148 31.4539L43.4204 31.4598L43.4261 31.4656L43.7803 31.1127ZM31.4892 30.1907H30.9892V30.6907H31.4892V30.1907ZM21.7398 20.3065L22.0982 20.6552L22.2398 20.5096V20.3065H21.7398ZM18.0457 24.1043L17.6873 23.7557H17.6873L18.0457 24.1043ZM17.6851 24.7033L18.1508 24.8853L18.1562 24.8714L18.1608 24.8572L17.6851 24.7033ZM20.5617 25.8542L20.2033 25.5056L20.0617 25.6511V25.8542H20.5617ZM21.7398 24.6434H22.2398V23.4125L21.3814 24.2947L21.7398 24.6434ZM31.8145 5.81617C31.8145 5.34847 31.7555 4.89415 31.6445 4.46092L30.6758 4.7093C30.7662 5.06193 30.8145 5.43282 30.8145 5.81617H31.8145ZM31.1386 3.18981C30.6896 2.38098 30.0391 1.70385 29.2552 1.23107L28.7388 2.08737C29.3709 2.46866 29.899 3.01703 30.2643 3.67517L31.1386 3.18981ZM27.9929 0.685783C27.5581 0.564565 27.1009 0.5 26.6299 0.5V1.5C27.0092 1.5 27.376 1.55194 27.7244 1.64906L27.9929 0.685783ZM26.6299 0.5C26.1587 0.5 25.7015 0.564514 25.2666 0.685645L25.5349 1.64898C25.8834 1.55191 26.2504 1.5 26.6299 1.5V0.5ZM24.004 1.23069C23.2198 1.7034 22.569 2.38051 22.1198 3.18937L22.9941 3.67486C23.3595 3.01673 23.8878 2.46838 24.5202 2.08714L24.004 1.23069ZM21.6138 4.46067C21.5026 4.89398 21.4436 5.34838 21.4436 5.81617H22.4436C22.4436 5.43275 22.492 5.0618 22.5824 4.70911L21.6138 4.46067ZM21.4436 5.81617C21.4436 6.28396 21.5026 6.73836 21.6138 7.17167L22.5824 6.92323C22.492 6.57054 22.4436 6.19959 22.4436 5.81617H21.4436ZM22.1198 8.44296C22.569 9.25182 23.2198 9.92894 24.004 10.4016L24.5202 9.5452C23.8878 9.16396 23.3595 8.61561 22.9941 7.95748L22.1198 8.44296ZM25.2666 10.9467C25.7015 11.0678 26.1587 11.1323 26.6299 11.1323V10.1323C26.2504 10.1323 25.8834 10.0804 25.5349 9.98336L25.2666 10.9467ZM26.6299 11.1323C27.1009 11.1323 27.5581 11.0678 27.9929 10.9466L27.7244 9.98328C27.376 10.0804 27.0092 10.1323 26.6299 10.1323V11.1323ZM29.2552 10.4013C30.0391 9.92849 30.6896 9.25135 31.1386 8.44252L30.2643 7.95717C29.899 8.6153 29.3709 9.16368 28.7388 9.54497L29.2552 10.4013ZM31.6445 7.17142C31.7555 6.73819 31.8145 6.28387 31.8145 5.81617H30.8145C30.8145 6.19952 30.7662 6.5704 30.6758 6.92304L31.6445 7.17142ZM22.7544 33.2594C22.6425 33.0437 22.5471 32.8175 22.4699 32.5826L21.5199 32.8946C21.6139 33.181 21.7303 33.4568 21.8668 33.72L22.7544 33.2594ZM22.2973 31.8683C22.2595 31.6297 22.2398 31.3846 22.2398 31.1343H21.2398C21.2398 31.4372 21.2636 31.7347 21.3096 32.0249L22.2973 31.8683ZM22.2398 31.1343V30.0525H21.2398V31.1343H22.2398ZM22.2398 28.9707V26.807H21.2398V28.9707H22.2398ZM22.2398 25.7252V24.6434H21.2398V25.7252H22.2398ZM21.3814 24.2947L20.9887 24.6983L21.7054 25.3957L22.0981 24.9921L21.3814 24.2947ZM20.596 25.102L20.2033 25.5056L20.9201 26.2029L21.3127 25.7993L20.596 25.102ZM20.0617 25.8542V27.0805H21.0617V25.8542H20.0617ZM20.0617 28.3069V30.7595H21.0617V28.3069H20.0617ZM20.0617 31.9858V33.2121H21.0617V31.9858H20.0617ZM20.0617 33.2121C20.0617 33.4016 20.0131 33.5775 19.9293 33.7287L20.8039 34.2136C20.9683 33.917 21.0617 33.5746 21.0617 33.2121H20.0617ZM19.5657 34.1083C19.4197 34.1965 19.2512 34.2465 19.0707 34.2465V35.2465C19.44 35.2465 19.7866 35.1432 20.0829 34.9642L19.5657 34.1083ZM19.0707 34.2465C18.8896 34.2465 18.7208 34.1965 18.5747 34.1084L18.0582 34.9647C18.3547 35.1435 18.7013 35.2465 19.0707 35.2465V34.2465ZM18.2107 33.7289C18.1267 33.5777 18.0781 33.4017 18.0781 33.2121H17.0781C17.0781 33.5748 17.1716 33.9174 17.3363 34.2142L18.2107 33.7289ZM18.0781 33.2121V32.3302H17.0781V33.2121H18.0781ZM18.0781 31.4482V29.6843H17.0781V31.4482H18.0781ZM18.0781 28.8024V27.0385H17.0781V28.8024H18.0781ZM18.0781 26.1566V25.2746H17.0781V26.1566H18.0781ZM18.0781 25.2746C18.0781 25.2292 18.0809 25.1847 18.0863 25.1413L17.0937 25.0191C17.0834 25.103 17.0781 25.1883 17.0781 25.2746H18.0781ZM18.1106 25.011C18.1214 24.9679 18.1349 24.926 18.1508 24.8853L17.2194 24.5213C17.1884 24.6007 17.1621 24.6826 17.1409 24.7665L18.1106 25.011ZM18.1608 24.8572C18.1771 24.8069 18.1972 24.7577 18.2211 24.7101L17.3272 24.2617C17.2804 24.3551 17.2411 24.4513 17.2094 24.5493L18.1608 24.8572ZM18.3026 24.5746C18.3328 24.5321 18.3666 24.4914 18.4041 24.4529L17.6873 23.7557C17.6139 23.8311 17.5474 23.9111 17.4879 23.9948L18.3026 24.5746ZM18.4041 24.4529L19.0198 23.82L18.303 23.1227L17.6873 23.7557L18.4041 24.4529ZM19.6355 23.187L20.8668 21.9211L20.15 21.2238L18.9186 22.4897L19.6355 23.187ZM21.4825 21.2881L22.0982 20.6552L21.3813 19.9579L20.7657 20.5909L21.4825 21.2881ZM22.2398 20.3065V19.4364H21.2398V20.3065H22.2398ZM22.2398 18.5662V17.696H21.2398V18.5662H22.2398ZM22.2398 17.696C22.2398 17.4309 22.2619 17.1715 22.3042 16.9196L21.318 16.754C21.2665 17.0604 21.2398 17.3752 21.2398 17.696H22.2398ZM22.4971 16.1668C22.6708 15.6695 22.9267 15.2128 23.2479 14.8142L22.4693 14.1868C22.0769 14.6737 21.7646 15.231 21.553 15.8373L22.4971 16.1668ZM23.7847 14.2548C24.1728 13.9151 24.6183 13.6446 25.1034 13.4605L24.7487 12.5256C24.1494 12.7529 23.6015 13.0862 23.126 13.5024L23.7847 14.2548ZM25.8457 13.2538C26.095 13.2083 26.3518 13.1845 26.6145 13.1845V12.1845C26.2913 12.1845 25.9744 12.2138 25.6662 12.27L25.8457 13.2538ZM26.6145 13.1845C26.8772 13.1845 27.134 13.2083 27.3833 13.2538L27.5628 12.27C27.2546 12.2138 26.9377 12.1845 26.6145 12.1845V13.1845ZM28.1256 13.4605C28.6107 13.6446 29.0562 13.9151 29.4443 14.2548L30.103 13.5024C29.6275 13.0862 29.0796 12.7529 28.4803 12.5256L28.1256 13.4605ZM29.9811 14.8142C30.3023 15.2128 30.5582 15.6695 30.7319 16.1668L31.676 15.8373C31.4644 15.231 31.1521 14.6737 30.7597 14.1868L29.9811 14.8142ZM30.9248 16.9196C30.9671 17.1715 30.9892 17.4309 30.9892 17.696H31.9892C31.9892 17.3752 31.9625 17.0604 31.911 16.754L30.9248 16.9196ZM30.9892 17.696V18.7373H31.9892V17.696H30.9892ZM30.9892 19.7785V21.8609H31.9892V19.7785H30.9892ZM30.9892 22.9021V24.9846H31.9892V22.9021H30.9892ZM30.9892 26.0258V28.1082H31.9892V26.0258H30.9892ZM30.9892 29.1495V30.1907H31.9892V29.1495H30.9892ZM31.4892 30.6907H32.6212V29.6907H31.4892V30.6907ZM33.7533 30.6907H36.0173V29.6907H33.7533V30.6907ZM37.1493 30.6907H39.4133V29.6907H37.1493V30.6907ZM40.5453 30.6907H41.6773V29.6907H40.5453V30.6907ZM41.6773 30.6907C41.8998 30.6907 42.1146 30.7217 42.3182 30.7795L42.5914 29.8176C42.2999 29.7348 41.9932 29.6907 41.6773 29.6907V30.6907ZM42.9109 31.0407C43.0959 31.1547 43.2655 31.2939 43.4148 31.4539L44.1458 30.7715C43.9363 30.547 43.6975 30.3508 43.4354 30.1893L42.9109 31.0407ZM43.4261 31.4656C43.4482 31.4877 43.4699 31.5103 43.4912 31.5334L44.2259 30.855C44.196 30.8226 44.1655 30.7908 44.1345 30.7597L43.4261 31.4656ZM43.5538 31.6038C43.5741 31.6276 43.5941 31.6519 43.6138 31.6767L44.3973 31.0553C44.3699 31.0207 44.342 30.9868 44.3136 30.9536L43.5538 31.6038ZM43.6138 31.6767L44.2072 32.4249L44.9907 31.8035L44.3973 31.0553L43.6138 31.6767ZM44.8006 33.1732L45.9875 34.6697L46.771 34.0483L45.5841 32.5518L44.8006 33.1732ZM46.5809 35.418L47.7677 36.9145L48.5512 36.2931L47.3644 34.7966L46.5809 35.418ZM48.3611 37.6628L49.548 39.1593L50.3315 38.5379L49.1446 37.0414L48.3611 37.6628ZM50.1414 39.9076L51.3282 41.4041L52.1117 40.7827L50.9249 39.2862L50.1414 39.9076ZM51.9216 42.1524L52.515 42.9006L53.2985 42.2792L52.7051 41.531L51.9216 42.1524ZM52.515 42.9006C52.6531 43.0746 52.7643 43.2617 52.8496 43.4569L53.766 43.0567C53.6467 42.7836 53.491 42.5219 53.2985 42.2792L52.515 42.9006ZM53.0311 44.0812C53.0988 44.5139 53.0551 44.9591 52.9052 45.3686L53.8443 45.7123C54.0526 45.1432 54.1129 44.5265 54.0191 43.9266L53.0311 44.0812ZM52.6057 45.9439C52.4839 46.118 52.338 46.2787 52.1684 46.4209L52.8108 47.1873C53.0487 46.9878 53.2538 46.7619 53.4251 46.5171L52.6057 45.9439ZM52.1684 46.4209C52.0006 46.5616 51.8209 46.6746 51.6343 46.761L52.0546 47.6684C52.321 47.545 52.5753 47.3846 52.8108 47.1873L52.1684 46.4209ZM51.0323 46.9465C50.615 47.0154 50.1853 46.97 49.7896 46.8147L49.4243 47.7456C49.9873 47.9666 50.5995 48.0315 51.1953 47.9331L51.0323 46.9465ZM49.2376 46.5077C49.0723 46.3844 48.9188 46.2367 48.7823 46.0645L47.9988 46.6859C48.1892 46.926 48.4051 47.1343 48.6398 47.3093L49.2376 46.5077ZM48.7823 46.0645L48.1085 45.215L47.325 45.8363L47.9987 46.6859L48.7823 46.0645ZM47.4348 44.3654L46.0873 42.6663L45.3038 43.2877L46.6513 44.9868L47.4348 44.3654ZM45.4136 41.8168L44.0661 40.1177L43.2826 40.7391L44.6301 42.4382L45.4136 41.8168ZM43.3924 39.2682L42.0449 37.5691L41.2614 38.1905L42.6089 39.8896L43.3924 39.2682ZM41.3712 36.7196L40.6975 35.87L39.914 36.4914L40.5877 37.3409L41.3712 36.7196ZM40.3057 35.6807H39.2993V36.6807H40.3057V35.6807ZM38.2929 35.6807H36.2801V36.6807H38.2929V35.6807ZM35.2737 35.6807H33.2609V36.6807H35.2737V35.6807ZM32.2546 35.6807H30.2418V36.6807H32.2546V35.6807ZM29.2354 35.6807H27.2226V36.6807H29.2354V35.6807ZM26.2162 35.6807H25.2098V36.6807H26.2162V35.6807ZM25.2098 35.6807C24.7962 35.6807 24.4079 35.5737 24.0681 35.3849L23.5823 36.2589C24.0661 36.5278 24.621 36.6807 25.2098 36.6807V35.6807ZM23.2014 34.5707C22.9885 34.2415 22.8491 33.8568 22.8082 33.4409L21.813 33.5386C21.8697 34.1162 22.0638 34.6532 22.3618 35.1138L23.2014 34.5707Z" fill="#616161"/>
<path fill-rule="evenodd" clip-rule="evenodd" d="M1.22371 6.10144H5.96248C5.99749 6.10144 6.03216 6.10295 6.06643 6.10592C6.58704 6.11615 7.06253 6.47109 7.2155 7.01118L8.45171 11.376C8.60511 11.2984 8.76717 11.2333 8.93702 11.1825C10.513 10.7107 12.1616 11.6416 12.6205 13.2618L16.4686 26.8531H36.9777L36.9887 26.8529L37.0103 26.8527C37.2427 26.8527 37.4586 26.9248 37.6378 27.0486C37.9392 27.2563 38.1373 27.6096 38.1373 28.0111C38.1373 28.0248 38.1371 28.0384 38.1367 28.0519V38.1607C38.43 38.2339 38.7015 38.3648 38.9389 38.541C39.1911 38.6856 39.4209 38.8816 39.6128 39.1275L47.6596 49.4254C47.7704 49.5671 47.8627 49.7179 47.9369 49.8747H56.3437C57.2584 49.8747 58 50.6356 58 51.576C58 52.5163 57.2584 53.2788 56.3437 53.2788H45.8977L45.879 53.279L45.8573 53.279L45.8289 53.2788H45.7769C45.6147 53.2788 45.458 53.2548 45.3099 53.2101C44.8359 53.0903 44.3951 52.8155 44.0657 52.3942L38.1367 44.8053V49.5541C39.6117 50.0327 40.6997 51.428 40.7486 53.1066C40.8104 55.2288 39.1865 57.0015 37.1223 57.065C35.058 57.127 33.3353 55.4591 33.2735 53.3369C33.2222 51.5778 34.3283 50.0588 35.8839 49.5544V42.8323H27.8649C27.8756 42.9971 27.8834 43.1627 27.8882 43.3292C28.1029 50.6917 22.4696 56.8389 15.3081 57.0597C8.14508 57.2805 2.1656 51.4891 1.95238 44.1266C1.76992 37.8702 5.80864 32.4921 11.4193 30.8803L6.9145 14.9694C6.89653 14.9059 6.88065 14.8423 6.86682 14.7787L5.12207 8.61595H1.22371C0.54696 8.61595 0 8.05364 0 7.35949C0 6.66375 0.54696 6.10144 1.22371 6.10144ZM12.5015 34.7025C10.3992 35.2963 8.6088 36.6424 7.41158 38.4342C7.34116 38.5396 7.27278 38.6466 7.20652 38.755C6.2788 40.2727 5.76438 42.0805 5.82026 44.0071C5.93961 48.0799 8.57099 51.4668 12.1414 52.6426C12.2513 52.6788 12.3621 52.7129 12.4737 52.7449C13.3365 52.992 14.2497 53.1114 15.1921 53.0825C19.3716 52.9544 22.8085 49.9497 23.7608 45.9708C23.9539 45.1647 24.0451 44.3185 24.0198 43.448C23.9151 39.8377 21.835 36.7664 18.8772 35.2964L18.8562 35.286C17.5858 34.6588 16.1545 34.3266 14.6489 34.3732C13.9065 34.396 13.1875 34.5095 12.5017 34.703L12.5015 34.7025ZM26.6842 38.094C24.9713 34.3174 21.593 31.5182 17.547 30.6619L17.1243 29.1691H35.8839V38.094H26.6842ZM38.5905 53.1726C38.6168 54.0701 37.9308 54.8183 37.0578 54.8453C36.1848 54.8723 35.4571 54.167 35.4308 53.2695C35.4046 52.372 36.0906 51.6239 36.9635 51.5969C37.8365 51.5699 38.5643 52.2752 38.5905 53.1726ZM15.062 48.6045C17.6809 48.5235 19.7421 46.2742 19.6633 43.5818C19.5845 40.8894 17.3982 38.7704 14.7777 38.8514C12.1588 38.9324 10.0992 41.1801 10.1764 43.8741C10.2552 46.5665 12.4431 48.6839 15.062 48.6045Z" fill="url(#paint0_linear_1706_15472)"/>
</g>
<defs>
<linearGradient id="paint0_linear_1706_15472" x1="16.3125" y1="15.1265" x2="39.4612" y2="53.4971" gradientUnits="userSpaceOnUse">
<stop stop-color="#FF8120"/>
<stop offset="1" stop-color="#E54304"/>
</linearGradient>
<clipPath id="clip0_1706_15472">
<rect width="58" height="58" fill="white"/>
</clipPath>
</defs>
</svg>
