<svg width="58" height="58" viewBox="0 0 58 58" fill="none" xmlns="http://www.w3.org/2000/svg">
<path fill-rule="evenodd" clip-rule="evenodd" d="M12.82 29.5516C13.1201 27.7557 14.1895 26.1814 15.7341 25.2619L25.1154 19.677C25.9183 19.199 26.9305 19.3494 27.553 20.0391L29.5469 22.2486L36.7813 17.9418C36.7224 17.5413 36.9053 17.1241 37.2711 16.9064L42.3865 13.8611C42.8611 13.5786 43.4645 13.7402 43.7343 14.2221L44.0369 14.7624L44.0469 14.7799L45.8806 18.0548L45.8903 18.0725L46.303 18.8096C46.6006 19.3411 46.3672 20.0287 45.8166 20.2855C44.2388 21.0217 41.3452 22.5086 40.435 23.8925C40.3667 23.9963 40.1546 24.1022 40.0052 23.8354L39.9239 23.6902C39.0447 25.1322 39.2971 26.9424 39.8841 28.5552C40.7257 30.8675 40.2342 33.7483 38.1288 35.0017L20.1259 45.7191C18.2277 46.8492 15.8139 46.2027 14.7346 44.2751L11.142 37.8589C10.1219 36.037 10.6591 33.7227 12.3239 32.5202L12.82 29.5516ZM14.762 31.0503L27.7225 23.3347L26.5295 21.9858C26.2192 21.6349 25.7088 21.5564 25.3041 21.7974L16.5344 27.0181C15.7621 27.4779 15.2274 28.265 15.0773 29.163L14.762 31.0503Z" fill="url(#paint0_linear_1706_16514)"/>
<defs>
<linearGradient id="paint0_linear_1706_16514" x1="18.3824" y1="27.7709" x2="32.8985" y2="40.2119" gradientUnits="userSpaceOnUse">
<stop stop-color="#FF8120"/>
<stop offset="1" stop-color="#E54304"/>
</linearGradient>
</defs>
</svg>
