<svg width="58" height="58" viewBox="0 0 58 58" fill="none" xmlns="http://www.w3.org/2000/svg">
<g clip-path="url(#clip0_1706_15601)">
<path d="M15.7726 26.6025L15.2871 26.7222H15.2871L15.7726 26.6025ZM17.2866 24.0868L17.1662 23.6015L17.1658 23.6016L17.2866 24.0868ZM18.2833 28.1195L18.4035 28.6048L18.4038 28.6048L18.2833 28.1195ZM26.1902 26.1572L26.07 25.6719L26.0698 25.672L26.1902 26.1572ZM26.9941 25.7578L26.7205 25.3393L26.6991 25.3533L26.6793 25.3693L26.9941 25.7578ZM27.6748 25.0228L27.2373 24.7808L27.2371 24.7812L27.6748 25.0228ZM29.8923 21.0126L30.357 20.8281L29.9666 19.8449L29.4547 20.7706L29.8923 21.0126ZM34.7605 33.2736L35.2253 33.0892L35.2252 33.0891L34.7605 33.2736ZM34.9905 33.7538L35.3715 34.0777L35.598 33.8112L35.4254 33.507L34.9905 33.7538ZM29.3721 40.3623L29.7529 40.6863L29.753 40.6862L29.3721 40.3623ZM28.9057 41.1317L29.3587 41.3431L29.3643 41.3311L29.3693 41.3189L28.9057 41.1317ZM34.2609 43.2924L33.8799 42.9685L33.7609 43.1086V43.2924H34.2609ZM42.0111 34.1765L41.6778 33.8037L41.6523 33.8265L41.6302 33.8526L42.0111 34.1765ZM43.2673 28.8434L43.7321 28.659L43.732 28.6589L43.2673 28.8434ZM37.5935 14.5526L38.0582 14.3681L38.0581 14.3679L37.5935 14.5526ZM31.3991 11.8779L31.2141 11.4134L31.2138 11.4135L31.3991 11.8779ZM28.7687 14.4584L29.2063 14.7003L29.2191 14.6771L29.2294 14.6527L28.7687 14.4584ZM24.425 22.3153L24.5454 22.8006L24.7571 22.748L24.8626 22.5572L24.425 22.3153ZM34.2781 5.06946C34.2781 4.74037 34.2496 4.41757 34.1947 4.1035L33.2096 4.27558C33.2546 4.53307 33.2781 4.79831 33.2781 5.06946H34.2781ZM33.9448 3.16601C33.7209 2.54952 33.3917 1.98418 32.9793 1.49173L32.2127 2.13384C32.5515 2.53834 32.8214 3.00218 33.0048 3.50727L33.9448 3.16601ZM32.2947 0.805195C31.803 0.391007 31.2383 0.0603231 30.6224 -0.164603L30.2794 0.774718C30.7835 0.95884 31.2466 1.22984 31.6504 1.57L32.2947 0.805195ZM29.6849 -0.416037C29.3707 -0.471261 29.0477 -0.5 28.7185 -0.5V0.5C28.9894 0.5 29.2545 0.523642 29.5118 0.568867L29.6849 -0.416037ZM28.7185 -0.5C28.3892 -0.5 28.0662 -0.471284 27.752 -0.416101L27.9249 0.568828C28.1823 0.523628 28.4474 0.5 28.7185 0.5V-0.5ZM26.8143 -0.164813C26.1982 0.0600283 25.6333 0.390621 25.1415 0.804723L25.7856 1.56968C26.1895 1.22959 26.6527 0.958656 27.1571 0.774585L26.8143 -0.164813ZM24.4567 1.49123C24.044 1.98371 23.7147 2.54911 23.4907 3.16568L24.4307 3.50702C24.6141 3.00188 24.8842 2.53801 25.2231 2.1335L24.4567 1.49123ZM23.2407 4.10333C23.1858 4.41745 23.1573 4.74031 23.1573 5.06946H24.1573C24.1573 4.79826 24.1808 4.53298 24.2258 4.27545L23.2407 4.10333ZM23.1573 5.06946C23.1573 5.39861 23.1858 5.72147 23.2407 6.03559L24.2258 5.86347C24.1808 5.60594 24.1573 5.34066 24.1573 5.06946H23.1573ZM23.4907 6.97324C23.7147 7.58981 24.044 8.15521 24.4567 8.64769L25.2231 8.00542C24.8842 7.60091 24.6141 7.13704 24.4307 6.6319L23.4907 6.97324ZM25.1415 9.3342C25.6333 9.7483 26.1982 10.0789 26.8143 10.3037L27.1571 9.36434C26.6528 9.18027 26.1895 8.90933 25.7856 8.56924L25.1415 9.3342ZM27.752 10.555C28.0662 10.6102 28.3892 10.6389 28.7185 10.6389V9.63892C28.4474 9.63892 28.1823 9.61529 27.9249 9.57009L27.752 10.555ZM28.7185 10.6389C29.0477 10.6389 29.3707 10.6102 29.6849 10.555L29.5118 9.57005C29.2545 9.61528 28.9894 9.63892 28.7185 9.63892V10.6389ZM30.6224 10.3035C31.2383 10.0786 31.803 9.74791 32.2947 9.33372L31.6504 8.56893C31.2466 8.90908 30.7835 9.18008 30.2794 9.3642L30.6224 10.3035ZM32.9793 8.64719C33.3917 8.15474 33.7209 7.5894 33.9448 6.97291L33.0048 6.63165C32.8214 7.13674 32.5515 7.60058 32.2127 8.00508L32.9793 8.64719ZM34.1947 6.03542C34.2496 5.72135 34.2781 5.39855 34.2781 5.06946H33.2781C33.2781 5.34061 33.2546 5.60585 33.2096 5.86334L34.1947 6.03542ZM16.258 26.4827C16.189 26.2031 16.1991 25.9239 16.2733 25.667L15.3126 25.3894C15.191 25.8103 15.175 26.2678 15.2871 26.7222L16.258 26.4827ZM16.6944 24.9667C16.8866 24.7808 17.1285 24.6415 17.4075 24.572L17.1658 23.6016C16.7114 23.7148 16.3142 23.9432 15.9991 24.248L16.6944 24.9667ZM17.4071 24.5721L18.5968 24.2768L18.3559 23.3063L17.1662 23.6015L17.4071 24.5721ZM19.7865 23.9816L22.166 23.3911L21.9251 22.4205L19.5456 23.011L19.7865 23.9816ZM23.3557 23.0958L24.5454 22.8006L24.3045 21.83L23.1148 22.1253L23.3557 23.0958ZM24.8626 22.5572L25.3452 21.6842L24.47 21.2004L23.9874 22.0734L24.8626 22.5572ZM25.8278 20.8112L26.7931 19.0652L25.918 18.5814L24.9527 20.3274L25.8278 20.8112ZM27.2758 18.1922L28.241 16.4463L27.3659 15.9624L26.4006 17.7084L27.2758 18.1922ZM28.7237 15.5733L29.2063 14.7003L28.3311 14.2164L27.8485 15.0894L28.7237 15.5733ZM29.2294 14.6527C29.3756 14.3063 29.567 13.9791 29.7993 13.681L29.0105 13.0663C28.7239 13.4341 28.4881 13.8373 28.3081 14.264L29.2294 14.6527ZM30.6021 12.8928C30.8966 12.672 31.2251 12.4856 31.5844 12.3423L31.2138 11.4135C30.772 11.5898 30.3665 11.8195 30.0022 12.0927L30.6021 12.8928ZM31.5841 12.3424C31.9402 12.2006 32.3032 12.1103 32.6652 12.0676L32.5482 11.0745C32.1001 11.1273 31.652 11.239 31.2141 11.4134L31.5841 12.3424ZM33.7792 12.0842C34.5198 12.1937 35.2219 12.4971 35.8099 12.962L36.4301 12.1776C35.7049 11.6042 34.8394 11.23 33.9254 11.095L33.7792 12.0842ZM36.5861 13.7619C36.8036 14.0547 36.9872 14.3808 37.1288 14.7372L38.0581 14.3679C37.8841 13.93 37.6578 13.5277 37.389 13.1657L36.5861 13.7619ZM37.1288 14.7371L37.507 15.6898L38.4365 15.3208L38.0582 14.3681L37.1288 14.7371ZM37.8853 16.6425L38.6418 18.548L39.5712 18.179L38.8147 16.2735L37.8853 16.6425ZM39.0201 19.5007L39.7766 21.4061L40.706 21.0371L39.9495 19.1317L39.0201 19.5007ZM40.1548 22.3589L40.9113 24.2643L41.8408 23.8953L41.0842 21.9898L40.1548 22.3589ZM41.2896 25.217L42.0461 27.1225L42.9755 26.7535L42.219 24.848L41.2896 25.217ZM42.4244 28.0752L42.8026 29.0279L43.732 28.6589L43.3538 27.7062L42.4244 28.0752ZM42.8026 29.0278C42.912 29.3037 42.9908 29.5838 43.0405 29.8644L44.0252 29.6897C43.9637 29.3431 43.8666 28.998 43.7321 28.659L42.8026 29.0278ZM43.1041 30.7305C43.0872 31.3163 42.9497 31.8892 42.7063 32.4139L43.6135 32.8347C43.9131 32.1887 44.0828 31.4826 44.1037 30.7594L43.1041 30.7305ZM42.2627 33.1617C42.0912 33.3936 41.8956 33.609 41.6778 33.8037L42.3443 34.5492C42.6136 34.3085 42.8551 34.0424 43.0667 33.7563L42.2627 33.1617ZM41.6302 33.8526L40.9843 34.6123L41.7462 35.26L42.392 34.5003L41.6302 33.8526ZM40.3384 35.3719L39.0467 36.8912L39.8086 37.539L41.1003 36.0196L40.3384 35.3719ZM38.4009 37.6509L37.1092 39.1702L37.8711 39.8179L39.1628 38.2986L38.4009 37.6509ZM36.4633 39.9299L35.1716 41.4492L35.9335 42.0969L37.2252 40.5776L36.4633 39.9299ZM34.5258 42.2089L33.8799 42.9685L34.6418 43.6162L35.2877 42.8566L34.5258 42.2089ZM33.7609 43.2924V44.2835H34.7609V43.2924H33.7609ZM33.7609 45.2745V47.2567H34.7609V45.2745H33.7609ZM33.7609 48.2477V50.2299H34.7609V48.2477H33.7609ZM33.7609 51.221V53.2031H34.7609V51.221H33.7609ZM33.7609 54.1942V55.1853H34.7609V54.1942H33.7609ZM33.7609 55.1853C33.7609 55.6079 33.6485 56.0024 33.4526 56.3422L34.3189 56.8417C34.6002 56.3539 34.7609 55.7877 34.7609 55.1853H33.7609ZM32.6069 57.1903C32.2676 57.3871 31.8737 57.4999 31.4517 57.4999V58.4999C32.0545 58.4999 32.621 58.3382 33.1086 58.0553L32.6069 57.1903ZM31.4517 57.4999C31.0298 57.4999 30.6358 57.3871 30.2966 57.1903L29.7949 58.0553C30.2825 58.3382 30.8489 58.4999 31.4517 58.4999V57.4999ZM29.4508 56.3422C29.2549 56.0024 29.1426 55.6079 29.1426 55.1853H28.1426C28.1426 55.7877 28.3033 56.3539 28.5845 56.8417L29.4508 56.3422ZM29.1426 55.1853V54.1134H28.1426V55.1853H29.1426ZM29.1426 53.0414V50.8976H28.1426V53.0414H29.1426ZM29.1426 49.8257V47.6819H28.1426V49.8257H29.1426ZM29.1426 46.61V44.4662H28.1426V46.61H29.1426ZM29.1426 43.3943V42.3224H28.1426V43.3943H29.1426ZM29.1426 42.3224C29.1426 42.2078 29.1509 42.0955 29.1668 41.9858L28.1771 41.8422C28.1543 41.9993 28.1426 42.1596 28.1426 42.3224H29.1426ZM29.2392 41.6574C29.2715 41.5491 29.3116 41.4441 29.3587 41.3431L28.4526 40.9202C28.3849 41.0651 28.3275 41.2157 28.281 41.3712L29.2392 41.6574ZM29.3693 41.3189C29.3999 41.2429 29.4349 41.1682 29.474 41.095L28.5925 40.623C28.5362 40.7281 28.4861 40.8354 28.442 40.9445L29.3693 41.3189ZM29.6024 40.8835C29.6484 40.816 29.6986 40.7501 29.7529 40.6863L28.9912 40.0384C28.9139 40.1292 28.8423 40.2232 28.7764 40.3198L29.6024 40.8835ZM29.753 40.6862L30.3773 39.9519L29.6154 39.3042L28.9911 40.0385L29.753 40.6862ZM31.0015 39.2176L32.2501 37.7491L31.4882 37.1013L30.2397 38.5699L31.0015 39.2176ZM32.8744 37.0148L34.1229 35.5462L33.3611 34.8985L32.1125 36.3671L32.8744 37.0148ZM34.7472 34.8119L35.3715 34.0777L34.6096 33.4299L33.9853 34.1642L34.7472 34.8119ZM35.4254 33.507C35.3503 33.3746 35.2832 33.2352 35.2253 33.0892L34.2958 33.458C34.3708 33.6471 34.4578 33.8281 34.5557 34.0006L35.4254 33.507ZM35.2252 33.0891L34.8196 32.0674L33.8901 32.4364L34.2958 33.4581L35.2252 33.0891ZM34.4139 31.0456L33.6025 29.0021L32.6731 29.3711L33.4844 31.4146L34.4139 31.0456ZM33.1968 27.9803L32.3854 25.9368L31.456 26.3059L32.2674 28.3494L33.1968 27.9803ZM31.9797 24.9151L31.1684 22.8716L30.2389 23.2406L31.0503 25.2841L31.9797 24.9151ZM30.7627 21.8498L30.357 20.8281L29.4276 21.1971L29.8333 22.2189L30.7627 21.8498ZM29.4547 20.7706L29.0851 21.439L29.9603 21.9229L30.3298 21.2545L29.4547 20.7706ZM28.7156 22.1074L27.9764 23.4441L28.8516 23.928L29.5907 22.5913L28.7156 22.1074ZM27.6069 24.1124L27.2373 24.7808L28.1124 25.2647L28.482 24.5963L27.6069 24.1124ZM27.2371 24.7812C27.1948 24.8578 27.1474 24.9292 27.0955 24.9953L27.8824 25.6124C27.9672 25.5042 28.0443 25.388 28.1126 25.2643L27.2371 24.7812ZM26.9221 25.1827C26.8589 25.2407 26.7914 25.293 26.7205 25.3393L27.2676 26.1764C27.3837 26.1005 27.4944 26.0148 27.5981 25.9196L26.9221 25.1827ZM26.6793 25.3693C26.6205 25.417 26.558 25.4606 26.4921 25.4996L27.0013 26.3602C27.1097 26.2961 27.2123 26.2245 27.3088 26.1463L26.6793 25.3693ZM26.2878 25.601C26.2182 25.6294 26.1456 25.6532 26.07 25.6719L26.3104 26.6426C26.433 26.6122 26.5516 26.5734 26.6657 26.5268L26.2878 25.601ZM26.0698 25.672L25.1912 25.89L25.4321 26.8605L26.3106 26.6425L26.0698 25.672ZM24.3127 26.108L22.5556 26.5441L22.7965 27.5146L24.5535 27.0786L24.3127 26.108ZM21.6771 26.7621L19.92 27.1982L20.1608 28.1687L21.9179 27.7327L21.6771 26.7621ZM19.0414 27.4162L18.1629 27.6342L18.4038 28.6048L19.2823 28.3867L19.0414 27.4162ZM18.1631 27.6342C17.8843 27.7032 17.6056 27.6931 17.3492 27.6186L17.0702 28.5789C17.4911 28.7012 17.949 28.7174 18.4035 28.6048L18.1631 27.6342ZM16.6507 27.1965C16.4656 27.0041 16.3269 26.7621 16.258 26.4827L15.2871 26.7222C15.3992 27.1768 15.6265 27.5744 15.9303 27.89L16.6507 27.1965Z" fill="#616161"/>
<path fill-rule="evenodd" clip-rule="evenodd" d="M46.1096 33.2463H12.2231L11.7894 33.9991C11.9924 34.4471 12.1054 34.9446 12.1054 35.4685C12.1054 37.434 10.5151 39.0273 8.55349 39.0273C6.59185 39.0273 5 37.434 5 35.4685C5 33.6153 6.41529 32.0929 8.22138 31.9251L9.07051 30.4515C9.17051 30.2779 9.29182 30.1244 9.42921 29.9923C9.8026 29.4551 10.4232 29.1039 11.1256 29.1039H47.2065C47.9334 29.1039 48.5727 29.48 48.941 30.0491C49.0738 30.1787 49.1911 30.3285 49.2884 30.4973L50.111 31.9251C51.918 32.0917 53.3332 33.6147 53.3332 35.4688C53.3332 37.4342 51.7429 39.0276 49.7813 39.0276C47.8196 39.0276 46.2278 37.4342 46.2278 35.4688C46.2278 34.9449 46.3408 34.4475 46.5439 33.9997L46.1096 33.2463ZM51.1493 35.4685C51.1493 36.2254 50.5367 36.8392 49.7812 36.8392C49.0258 36.8392 48.4132 36.2254 48.4132 35.4685C48.4132 34.7116 49.0258 34.0978 49.7812 34.0978C50.5367 34.0978 51.1493 34.7116 51.1493 35.4685ZM8.55345 36.8392C9.30891 36.8392 9.92152 36.2254 9.92152 35.4685C9.92152 34.7116 9.30891 34.0978 8.55345 34.0978C7.798 34.0978 7.18538 34.7116 7.18538 35.4685C7.18538 36.2254 7.798 36.8392 8.55345 36.8392Z" fill="url(#paint0_linear_1706_15601)"/>
<path d="M12.2231 33.2463V32.9963H12.0786L12.0064 33.1215L12.2231 33.2463ZM46.1096 33.2463L46.3263 33.1214L46.2541 32.9963H46.1096V33.2463ZM11.7894 33.9991L11.5728 33.8743L11.5088 33.9855L11.5617 34.1023L11.7894 33.9991ZM8.22138 31.9251L8.2445 32.174L8.37337 32.162L8.43798 32.0499L8.22138 31.9251ZM9.07051 30.4515L9.28712 30.5764L9.28714 30.5763L9.07051 30.4515ZM9.42921 29.9923L9.6025 30.1725L9.62035 30.1553L9.63449 30.135L9.42921 29.9923ZM48.941 30.0491L48.7312 30.1849L48.7464 30.2084L48.7664 30.2279L48.941 30.0491ZM49.2884 30.4973L49.0717 30.6221L49.0717 30.6221L49.2884 30.4973ZM50.111 31.9251L49.8943 32.0499L49.959 32.1621L50.088 32.174L50.111 31.9251ZM46.5439 33.9997L46.7716 34.1029L46.8245 33.986L46.7605 33.8748L46.5439 33.9997ZM12.2231 33.4963H46.1096V32.9963H12.2231V33.4963ZM12.0061 34.1239L12.4397 33.3711L12.0064 33.1215L11.5728 33.8743L12.0061 34.1239ZM12.3554 35.4685C12.3554 34.9083 12.2345 34.3757 12.0172 33.896L11.5617 34.1023C11.7503 34.5184 11.8554 34.9808 11.8554 35.4685H12.3554ZM8.55349 39.2773C10.6537 39.2773 12.3554 37.5716 12.3554 35.4685H11.8554C11.8554 37.2964 10.3766 38.7773 8.55349 38.7773V39.2773ZM4.75 35.4685C4.75 37.5717 6.45347 39.2773 8.55349 39.2773V38.7773C6.73023 38.7773 5.25 37.2962 5.25 35.4685H4.75ZM8.19825 31.6761C6.26455 31.8558 4.75 33.4852 4.75 35.4685H5.25C5.25 33.7453 6.56602 32.3299 8.2445 32.174L8.19825 31.6761ZM8.8539 30.3267L8.00477 31.8002L8.43798 32.0499L9.28712 30.5764L8.8539 30.3267ZM9.25593 29.8121C9.10171 29.9604 8.96576 30.1325 8.85388 30.3267L9.28714 30.5763C9.37526 30.4233 9.48193 30.2884 9.6025 30.1725L9.25593 29.8121ZM11.1256 28.8539C10.3378 28.8539 9.64197 29.2482 9.22394 29.8496L9.63449 30.135C9.96322 29.6621 10.5087 29.3539 11.1256 29.3539V28.8539ZM47.2065 28.8539H11.1256V29.3539H47.2065V28.8539ZM49.1509 29.9132C48.7385 29.2762 48.0218 28.8539 47.2065 28.8539V29.3539C47.8449 29.3539 48.4068 29.6839 48.7312 30.1849L49.1509 29.9132ZM49.505 30.3725C49.3962 30.1837 49.2647 30.0157 49.1157 29.8702L48.7664 30.2279C48.8828 30.3417 48.986 30.4734 49.0717 30.6221L49.505 30.3725ZM50.3276 31.8003L49.505 30.3725L49.0717 30.6221L49.8943 32.0499L50.3276 31.8003ZM53.5832 35.4688C53.5832 33.4847 52.0688 31.8546 50.1339 31.6761L50.088 32.174C51.7672 32.3289 53.0832 33.7447 53.0832 35.4688H53.5832ZM49.7813 39.2776C51.8814 39.2776 53.5832 37.5718 53.5832 35.4688H53.0832C53.0832 37.2966 51.6044 38.7776 49.7813 38.7776V39.2776ZM45.9778 35.4688C45.9778 37.572 47.6812 39.2776 49.7813 39.2776V38.7776C47.958 38.7776 46.4778 37.2964 46.4778 35.4688H45.9778ZM46.3162 33.8964C46.0987 34.3761 45.9778 34.9086 45.9778 35.4688H46.4778C46.4778 34.9812 46.5829 34.519 46.7716 34.1029L46.3162 33.8964ZM45.893 33.3711L46.3273 34.1245L46.7605 33.8748L46.3263 33.1214L45.893 33.3711ZM49.7812 37.0892C50.6752 37.0892 51.3993 36.363 51.3993 35.4685H50.8993C50.8993 36.0878 50.3981 36.5892 49.7812 36.5892V37.0892ZM48.1632 35.4685C48.1632 36.363 48.8872 37.0892 49.7812 37.0892V36.5892C49.1643 36.5892 48.6632 36.0878 48.6632 35.4685H48.1632ZM49.7812 33.8478C48.8872 33.8478 48.1632 34.574 48.1632 35.4685H48.6632C48.6632 34.8492 49.1643 34.3478 49.7812 34.3478V33.8478ZM51.3993 35.4685C51.3993 34.574 50.6752 33.8478 49.7812 33.8478V34.3478C50.3981 34.3478 50.8993 34.8492 50.8993 35.4685H51.3993ZM9.67152 35.4685C9.67152 36.0878 9.17038 36.5892 8.55345 36.5892V37.0892C9.44744 37.0892 10.1715 36.363 10.1715 35.4685H9.67152ZM8.55345 34.3478C9.17038 34.3478 9.67152 34.8492 9.67152 35.4685H10.1715C10.1715 34.574 9.44744 33.8478 8.55345 33.8478V34.3478ZM7.43538 35.4685C7.43538 34.8492 7.93653 34.3478 8.55345 34.3478V33.8478C7.65947 33.8478 6.93538 34.574 6.93538 35.4685H7.43538ZM8.55345 36.5892C7.93653 36.5892 7.43538 36.0878 7.43538 35.4685H6.93538C6.93538 36.363 7.65947 37.0892 8.55345 37.0892V36.5892Z" fill="#FF8120"/>
</g>
<defs>
<linearGradient id="paint0_linear_1706_15601" x1="18.5937" y1="30.8612" x2="20.0022" y2="40.853" gradientUnits="userSpaceOnUse">
<stop stop-color="#FF8120"/>
<stop offset="1" stop-color="#E54304"/>
</linearGradient>
<clipPath id="clip0_1706_15601">
<rect width="58" height="58" fill="white"/>
</clipPath>
</defs>
</svg>
