<svg width="58" height="58" viewBox="0 0 58 58" fill="none" xmlns="http://www.w3.org/2000/svg">
<g clip-path="url(#clip0_1706_16574)">
<path fill-rule="evenodd" clip-rule="evenodd" d="M58.9954 43.1979C59.0029 43.7761 59 48.1877 58.9975 50.8365C58.9965 51.9401 58.1015 52.8323 56.9979 52.8323H28.6186C27.4715 52.8323 27.223 51.2171 28.3189 50.8784C37.7191 47.9735 54.5089 42.7859 56.6422 42.1321C57.8546 41.7605 58.9846 42.3643 58.9954 43.1979Z" fill="url(#paint0_linear_1706_16574)"/>
<path fill-rule="evenodd" clip-rule="evenodd" d="M2.08299 20.1267L5.62069 18.88C5.64769 18.8705 5.67486 18.8622 5.70215 18.8551C6.09307 18.7268 6.54624 18.8496 6.8115 19.1854L8.96017 21.9056C9.05293 21.811 9.15571 21.7229 9.2683 21.6427C10.3123 20.8989 11.8045 21.1147 12.6021 22.1244L19.2922 30.5954L34.6036 25.1998L34.6192 25.194L34.6272 25.1912C34.7953 25.1319 34.9707 25.124 35.1348 25.1592C35.4247 25.2211 35.6791 25.4176 35.7939 25.7029L35.8013 25.722L35.8048 25.7315L38.6438 32.7846C38.8826 32.7586 39.1212 32.7783 39.3474 32.8384C39.5769 32.8727 39.8043 32.9492 40.0173 33.0706L48.9166 38.1388C49.0391 38.2085 49.1504 38.2894 49.2498 38.3793L55.5257 36.1678C56.2086 35.9271 56.9759 36.2629 57.24 36.919C57.5041 37.5751 57.1646 38.3022 56.4817 38.5428L48.6859 41.29C48.6672 41.2969 48.6485 41.3035 48.6297 41.3098L48.5931 41.3227C48.472 41.3653 48.3482 41.3899 48.2251 41.3976C47.8377 41.4387 47.4315 41.3628 47.0674 41.1556L40.5098 37.4204L41.8434 40.7336C43.079 40.6794 44.2833 41.3667 44.7913 42.5251C45.4334 43.9895 44.7189 45.6536 43.1957 46.241C41.6721 46.8272 39.9176 46.1167 39.2754 44.6523C38.7432 43.4385 39.1422 42.0878 40.1617 41.3266L38.274 36.6367L23.8726 41.7115C23.1065 41.9815 22.2637 41.7293 21.7731 41.1432C21.657 41.0438 21.5492 40.9323 21.4518 40.809L8.8219 24.8169C8.79147 24.7784 8.7625 24.7393 8.73497 24.6996L5.69924 20.8556L2.78916 21.8811C2.28394 22.0591 1.71769 21.8107 1.52274 21.3264C1.32735 20.8409 1.57776 20.3047 2.08299 20.1267ZM20.4321 32.0388L24.8249 37.601L36.9433 33.3306L34.4368 27.1037L20.4321 32.0388Z" fill="white"/>
<path d="M5.62069 18.88L5.43396 18.4161L5.62069 18.88ZM2.08299 20.1267L2.26972 20.5906L2.08299 20.1267ZM5.70215 18.8551L5.84835 19.3314L5.86367 19.3275L5.87866 19.3225L5.70215 18.8551ZM6.8115 19.1854L7.20999 18.8936L7.20999 18.8936L6.8115 19.1854ZM8.96017 21.9056L8.56167 22.1973L8.92944 22.6629L9.33278 22.2516L8.96017 21.9056ZM9.2683 21.6427L8.95973 21.2419L8.95973 21.2419L9.2683 21.6427ZM12.6021 22.1244L13.0006 21.8327L13.0006 21.8326L12.6021 22.1244ZM19.2922 30.5954L18.8936 30.8871L19.1274 31.1832L19.4789 31.0593L19.2922 30.5954ZM34.6036 25.1998L34.7904 25.6638L34.7988 25.6607L34.6036 25.1998ZM34.6192 25.194L34.4304 24.7308L34.424 24.7332L34.6192 25.194ZM34.6272 25.1912L34.4405 24.7272L34.4383 24.728L34.6272 25.1912ZM35.1348 25.1592L35.0413 25.6402L35.0417 25.6403L35.1348 25.1592ZM35.7939 25.7029L36.2676 25.5422L36.2654 25.5368L35.7939 25.7029ZM35.8013 25.722L36.2782 25.5696L36.275 25.5614L35.8013 25.722ZM35.8048 25.7315L35.3281 25.884L35.3306 25.8909L35.3333 25.8977L35.8048 25.7315ZM38.6438 32.7846L38.1723 32.9508L38.3199 33.3176L38.7167 33.2744L38.6438 32.7846ZM39.3474 32.8384L39.2289 33.3134L39.2574 33.321L39.2864 33.3253L39.3474 32.8384ZM40.0173 33.0706L39.7716 33.4935L39.7718 33.4937L40.0173 33.0706ZM48.9166 38.1388L48.6711 38.5618L48.6712 38.5619L48.9166 38.1388ZM49.2498 38.3793L48.9111 38.7349L49.1447 38.9461L49.4366 38.8432L49.2498 38.3793ZM56.4817 38.5428L56.6684 39.0067L56.4817 38.5428ZM48.6859 41.29L48.4991 40.826L48.4916 40.8288L48.6859 41.29ZM48.6297 41.3098L48.4505 40.8432L48.4429 40.8459L48.6297 41.3098ZM48.2251 41.3976L48.1755 40.9059L48.1645 40.9066L48.1537 40.9078L48.2251 41.3976ZM47.0674 41.1556L46.8219 41.5786L46.822 41.5787L47.0674 41.1556ZM40.5098 37.4204L40.7553 36.9974L39.5173 36.2922L40.0382 37.5866L40.5098 37.4204ZM41.8434 40.7336L41.3719 40.8998L41.5097 41.2423L41.883 41.2259L41.8434 40.7336ZM44.7913 42.5251L45.2568 42.3448L44.7913 42.5251ZM43.1957 46.241L43.3958 46.7L43.3962 46.6998L43.1957 46.241ZM39.2754 44.6523L38.8099 44.8326L39.2754 44.6523ZM40.1617 41.3266L40.479 41.721L40.7711 41.5029L40.6332 41.1605L40.1617 41.3266ZM38.274 36.6367L38.7455 36.4705L38.5588 36.0066L38.0872 36.1728L38.274 36.6367ZM23.8726 41.7115L24.0593 42.1755L23.8726 41.7115ZM21.7731 41.1432L22.1623 40.8399L22.1344 40.8065L22.1011 40.7781L21.7731 41.1432ZM21.4518 40.809L21.0533 41.1008L21.0533 41.1008L21.4518 40.809ZM8.8219 24.8169L9.22042 24.5252L9.22039 24.5251L8.8219 24.8169ZM8.73497 24.6996L9.15244 24.4335L9.14338 24.4204L9.1335 24.4079L8.73497 24.6996ZM5.69924 20.8556L6.09777 20.5639L5.86398 20.2679L5.51251 20.3917L5.69924 20.8556ZM24.8249 37.601L24.4264 37.8927L24.6602 38.1888L25.0116 38.0649L24.8249 37.601ZM20.4321 32.0388L20.2454 31.5749L19.6128 31.7978L20.0336 32.3305L20.4321 32.0388ZM36.9433 33.3306L37.13 33.7946L37.6015 33.6284L37.4148 33.1645L36.9433 33.3306ZM34.4368 27.1037L34.9084 26.9375L34.7216 26.4736L34.2501 26.6398L34.4368 27.1037ZM4.54954 18.7278C4.28913 18.8196 4.16163 19.1016 4.26476 19.3579C4.36789 19.6141 4.66259 19.7474 4.923 19.6556L4.54954 18.7278ZM3.15414 20.2789C3.41455 20.1872 3.54205 19.9051 3.43892 19.6489C3.33579 19.3927 3.04109 19.2593 2.78068 19.3511L3.15414 20.2789ZM1.41458 19.9446C1.21099 20.1248 1.20189 20.4362 1.39424 20.6401C1.5866 20.844 1.90757 20.8632 2.11115 20.683L1.41458 19.9446ZM1.96366 20.9921C1.97152 20.7205 1.75094 20.4867 1.47096 20.4701C1.19099 20.4534 0.95765 20.6601 0.949784 20.9318L1.96366 20.9921ZM1.37071 21.9766C1.56833 22.1757 1.88943 22.1867 2.08791 22.0012C2.28639 21.8157 2.28709 21.5039 2.08947 21.3048L1.37071 21.9766ZM2.41819 21.4456C2.13811 21.4359 1.91049 21.6486 1.90979 21.9205C1.9091 22.1925 2.13558 22.4209 2.41566 22.4306L2.41819 21.4456ZM3.70341 22.0887C3.96381 21.9969 4.09131 21.7148 3.98819 21.4586C3.88506 21.2024 3.59036 21.0691 3.32995 21.1608L3.70341 22.0887ZM4.78499 20.6481C4.52458 20.7399 4.39708 21.0219 4.50021 21.2782C4.60334 21.5344 4.89804 21.6677 5.15845 21.5759L4.78499 20.6481ZM5.68017 21.6279C5.85338 21.8472 6.17223 21.8944 6.39233 21.7333C6.61243 21.5721 6.65044 21.2637 6.47723 21.0444L5.68017 21.6279ZM7.23617 22.0054C7.06295 21.7861 6.74411 21.7389 6.52401 21.9C6.30391 22.0611 6.2659 22.3695 6.43911 22.5889L7.23617 22.0054ZM7.19804 23.5499C7.37125 23.7692 7.69009 23.8164 7.91019 23.6553C8.1303 23.4941 8.16831 23.1857 7.9951 22.9664L7.19804 23.5499ZM8.75403 23.9274C8.58082 23.7081 8.26198 23.6609 8.04188 23.822C7.82177 23.9831 7.78376 24.2915 7.95697 24.5109L8.75403 23.9274ZM8.87444 25.6798C9.04765 25.8991 9.3665 25.9463 9.5866 25.7852C9.8067 25.6241 9.8447 25.3156 9.67149 25.0963L8.87444 25.6798ZM10.5736 26.2386C10.4004 26.0193 10.0816 25.9721 9.86147 26.1332C9.64137 26.2944 9.60336 26.6028 9.77658 26.8221L10.5736 26.2386ZM10.6787 27.9644C10.8519 28.1837 11.1708 28.2309 11.3909 28.0698C11.611 27.9086 11.649 27.6002 11.4758 27.3809L10.6787 27.9644ZM12.3779 28.5232C12.2047 28.3039 11.8858 28.2567 11.6657 28.4178C11.4456 28.5789 11.4076 28.8874 11.5809 29.1067L12.3779 28.5232ZM12.483 30.249C12.6562 30.4683 12.975 30.5155 13.1951 30.3544C13.4152 30.1932 13.4533 29.8848 13.28 29.6655L12.483 30.249ZM14.1822 30.8078C14.009 30.5885 13.6901 30.5413 13.47 30.7024C13.2499 30.8635 13.2119 31.1719 13.3851 31.3913L14.1822 30.8078ZM14.2873 32.5336C14.4605 32.7529 14.7793 32.8001 14.9994 32.6389C15.2195 32.4778 15.2575 32.1694 15.0843 31.9501L14.2873 32.5336ZM15.9864 33.0924C15.8132 32.873 15.4944 32.8259 15.2743 32.987C15.0542 33.1481 15.0162 33.4565 15.1894 33.6759L15.9864 33.0924ZM16.0915 34.8181C16.2647 35.0375 16.5836 35.0847 16.8037 34.9235C17.0238 34.7624 17.0618 34.454 16.8886 34.2347L16.0915 34.8181ZM17.7907 35.377C17.6175 35.1576 17.2987 35.1104 17.0786 35.2716C16.8585 35.4327 16.8205 35.7411 16.9937 35.9604L17.7907 35.377ZM17.8958 37.1027C18.069 37.3221 18.3879 37.3692 18.608 37.2081C18.8281 37.047 18.8661 36.7386 18.6929 36.5192L17.8958 37.1027ZM19.595 37.6615C19.4218 37.4422 19.1029 37.395 18.8828 37.5562C18.6627 37.7173 18.6247 38.0257 18.7979 38.245L19.595 37.6615ZM19.7001 39.3873C19.8733 39.6066 20.1921 39.6538 20.4122 39.4927C20.6323 39.3316 20.6703 39.0232 20.4971 38.8038L19.7001 39.3873ZM21.3993 39.9461C21.2261 39.7268 20.9072 39.6796 20.6871 39.8407C20.467 40.0019 20.429 40.3103 20.6022 40.5296L21.3993 39.9461ZM21.1434 41.2093C21.3274 41.4203 21.6477 41.4521 21.8589 41.2802C22.0701 41.1083 22.0921 40.7979 21.9081 40.5869L21.1434 41.2093ZM22.0337 40.7175C21.8294 40.5248 21.5085 40.5243 21.3168 40.7165C21.1251 40.9086 21.1353 41.2206 21.3396 41.4133L22.0337 40.7175ZM21.9423 41.9329C22.1808 42.0832 22.4932 42.0211 22.64 41.7942C22.7868 41.5673 22.7125 41.2615 22.474 41.1112L21.9423 41.9329ZM23.2755 41.326C22.9961 41.3365 22.786 41.5656 22.8062 41.8375C22.8263 42.1095 23.0691 42.3213 23.3485 42.3107L23.2755 41.326ZM24.7794 41.9217C25.0398 41.8299 25.1673 41.5479 25.0641 41.2916C24.961 41.0354 24.6663 40.9021 24.4059 40.9939L24.7794 41.9217ZM25.846 40.4864C25.5856 40.5782 25.4581 40.8603 25.5613 41.1165C25.6644 41.3727 25.9591 41.506 26.2195 41.4142L25.846 40.4864ZM27.6596 40.9067C27.92 40.815 28.0475 40.5329 27.9444 40.2767C27.8413 40.0205 27.5466 39.8872 27.2862 39.9789L27.6596 40.9067ZM28.7263 39.4714C28.4659 39.5632 28.3384 39.8453 28.4416 40.1015C28.5447 40.3577 28.8394 40.491 29.0998 40.3993L28.7263 39.4714ZM30.5399 39.8918C30.8003 39.8 30.9278 39.5179 30.8247 39.2617C30.7216 39.0055 30.4269 38.8722 30.1665 38.9639L30.5399 39.8918ZM31.6066 38.4565C31.3462 38.5482 31.2187 38.8303 31.3218 39.0865C31.425 39.3427 31.7197 39.476 31.9801 39.3843L31.6066 38.4565ZM33.4202 38.8768C33.6806 38.785 33.8081 38.5029 33.705 38.2467C33.6019 37.9905 33.3072 37.8572 33.0468 37.949L33.4202 38.8768ZM34.4869 37.4415C34.2265 37.5332 34.099 37.8153 34.2021 38.0715C34.3052 38.3278 34.5999 38.4611 34.8604 38.3693L34.4869 37.4415ZM36.3005 37.8618C36.5609 37.7701 36.6884 37.488 36.5853 37.2317C36.4821 36.9755 36.1874 36.8422 35.927 36.934L36.3005 37.8618ZM37.3672 36.4265C37.1068 36.5183 36.9793 36.8004 37.0824 37.0566C37.1855 37.3128 37.4802 37.4461 37.7406 37.3543L37.3672 36.4265ZM38.0384 37.3891C38.1416 37.6453 38.4363 37.7786 38.6967 37.6868C38.9571 37.5951 39.0846 37.313 38.9815 37.0568L38.0384 37.3891ZM39.4534 38.2292C39.3503 37.973 39.0556 37.8397 38.7952 37.9315C38.5347 38.0232 38.4072 38.3053 38.5104 38.5615L39.4534 38.2292ZM38.9823 39.734C39.0854 39.9902 39.3801 40.1236 39.6405 40.0318C39.901 39.94 40.0285 39.6579 39.9253 39.4017L38.9823 39.734ZM40.3973 40.5742C40.2941 40.318 39.9994 40.1847 39.739 40.2764C39.4786 40.3682 39.3511 40.6503 39.4542 40.9065L40.3973 40.5742ZM39.0963 41.7099C38.9434 41.9329 39.0098 42.2402 39.2445 42.3962C39.4792 42.5522 39.7933 42.4978 39.9462 42.2748L39.0963 41.7099ZM39.5531 43.7257C39.5323 43.4538 39.2891 43.2424 39.0098 43.2536C38.7304 43.2648 38.5208 43.4942 38.5416 43.7662L39.5531 43.7257ZM39.143 45.4239C39.3035 45.652 39.6196 45.7166 39.8492 45.5682C40.0788 45.4198 40.1349 45.1146 39.9745 44.8865L39.143 45.4239ZM40.6678 45.5459C40.4301 45.3944 40.1173 45.4549 39.9692 45.681C39.8211 45.9071 39.8938 46.2132 40.1315 46.3647L40.6678 45.5459ZM41.399 46.8707C41.6752 46.9248 41.9369 46.7525 41.9835 46.4858C42.03 46.2191 41.8439 45.959 41.5677 45.9048L41.399 46.8707ZM42.5324 45.9121C42.2589 45.9619 42.0861 46.2192 42.1464 46.4867C42.2068 46.7543 42.4774 46.9308 42.7509 46.881L42.5324 45.9121ZM43.9905 46.4034C44.2225 46.2584 44.2832 45.9542 44.1262 45.7239C43.9692 45.4936 43.6539 45.4244 43.422 45.5694L43.9905 46.4034ZM44.102 44.9283C43.9461 45.1493 44.0084 45.4572 44.241 45.6161C44.4737 45.775 44.7887 45.7247 44.9446 45.5038L44.102 44.9283ZM45.4666 44.3065C45.522 44.0417 45.3444 43.7762 45.0699 43.7135C44.7953 43.6508 44.5278 43.8147 44.4724 44.0796L45.4666 44.3065ZM44.4706 43.1537C44.5277 43.4218 44.7963 43.6013 45.0705 43.5547C45.3447 43.508 45.5206 43.2529 45.4635 42.9847L44.4706 43.1537ZM44.6822 41.4485C44.4963 41.239 44.1758 41.2101 43.9663 41.3839C43.7568 41.5576 43.7376 41.8683 43.9235 42.0778L44.6822 41.4485ZM42.6391 41.3038C42.9122 41.373 43.184 41.2158 43.2463 40.9526C43.3085 40.6894 43.1376 40.4199 42.8645 40.3507L42.6391 41.3038ZM41.9815 39.7392C41.8783 39.483 41.5836 39.3497 41.3232 39.4414C41.0628 39.5332 40.9353 39.8153 41.0384 40.0715L41.9815 39.7392ZM40.3716 38.4149C40.4748 38.6711 40.7695 38.8044 41.0299 38.7126C41.2903 38.6209 41.4178 38.3388 41.3147 38.0826L40.3716 38.4149ZM41.0839 38.3103C41.329 38.4499 41.6376 38.3737 41.7732 38.1401C41.9088 37.9064 41.8201 37.6039 41.575 37.4643L41.0839 38.3103ZM43.2144 38.3981C42.9694 38.2585 42.6608 38.3348 42.5251 38.5684C42.3895 38.802 42.4783 39.1046 42.7233 39.2441L43.2144 38.3981ZM44.3628 40.1779C44.6078 40.3175 44.9164 40.2413 45.052 40.0077C45.1876 39.774 45.0989 39.4715 44.8538 39.3319L44.3628 40.1779ZM46.4932 40.2657C46.2482 40.1261 45.9396 40.2024 45.804 40.436C45.6684 40.6696 45.7571 40.9721 46.0022 41.1117L46.4932 40.2657ZM47.1698 41.7423C47.4336 41.8421 47.7237 41.7177 47.8177 41.4645C47.9117 41.2113 47.7741 40.9252 47.5102 40.8254L47.1698 41.7423ZM47.9355 40.9139C47.6555 40.9001 47.4245 41.1092 47.4195 41.381C47.4146 41.6528 47.6376 41.8843 47.9176 41.8982L47.9355 40.9139ZM48.4043 41.8767C48.6804 41.8399 48.8661 41.5916 48.8192 41.3219C48.7722 41.0523 48.5102 40.8634 48.2341 40.9002L48.4043 41.8767ZM48.3498 40.8766C48.0829 40.9505 47.9354 41.2228 48.0204 41.4847C48.1054 41.7466 48.3907 41.899 48.6575 41.825L48.3498 40.8766ZM48.789 41.7834C49.0494 41.6916 49.1769 41.4095 49.0737 41.1533C48.9706 40.8971 48.6759 40.7638 48.4155 40.8555L48.789 41.7834ZM48.4338 40.8491C48.1734 40.9409 48.0459 41.2229 48.149 41.4792C48.2522 41.7354 48.5469 41.8687 48.8073 41.7769L48.4338 40.8491ZM48.8268 41.7702C49.088 41.6805 49.2178 41.3995 49.1168 41.1425C49.0157 40.8856 48.722 40.7501 48.4608 40.8398L48.8268 41.7702ZM48.4814 40.8325C48.2218 40.9263 48.0967 41.2095 48.2019 41.4649C48.3071 41.7204 48.6028 41.8515 48.8624 41.7577L48.4814 40.8325ZM49.5222 41.525C49.7826 41.4332 49.9101 41.1511 49.807 40.8949C49.7039 40.6387 49.4092 40.5054 49.1488 40.5971L49.5222 41.525ZM50.4481 40.1393C50.1877 40.231 50.0602 40.5131 50.1633 40.7693C50.2664 41.0256 50.5611 41.1589 50.8215 41.0671L50.4481 40.1393ZM52.1209 40.6092C52.3813 40.5175 52.5088 40.2354 52.4056 39.9792C52.3025 39.723 52.0078 39.5897 51.7474 39.6814L52.1209 40.6092ZM53.0467 39.2236C52.7863 39.3153 52.6588 39.5974 52.7619 39.8536C52.8651 40.1098 53.1598 40.2432 53.4202 40.1514L53.0467 39.2236ZM54.7195 39.6935C54.9799 39.6018 55.1074 39.3197 55.0043 39.0635C54.9011 38.8072 54.6064 38.6739 54.346 38.7657L54.7195 39.6935ZM55.6453 38.3078C55.3849 38.3996 55.2574 38.6817 55.3606 38.9379C55.4637 39.1941 55.7584 39.3274 56.0188 39.2357L55.6453 38.3078ZM57.2633 38.6584C57.4668 38.478 57.4756 38.1665 57.2831 37.9628C57.0906 37.759 56.7696 37.7401 56.5662 37.9205L57.2633 38.6584ZM56.8222 37.3817C56.8141 37.6533 57.0345 37.8872 57.3144 37.904C57.5944 37.9209 57.8279 37.7144 57.836 37.4427L56.8222 37.3817ZM57.3187 36.1576C57.1211 35.9585 56.8 35.9475 56.6015 36.133C56.403 36.3186 56.4023 36.6304 56.6 36.8295L57.3187 36.1576ZM56.0281 36.5832C56.3082 36.593 56.5359 36.3805 56.5368 36.1085C56.5376 35.8366 56.3112 35.6081 56.0311 35.5983L56.0281 36.5832ZM54.5545 35.9803C54.2941 36.0721 54.1666 36.3541 54.2697 36.6104C54.3729 36.8666 54.6676 36.9999 54.928 36.9081L54.5545 35.9803ZM53.359 37.461C53.6194 37.3692 53.7469 37.0871 53.6438 36.8309C53.5406 36.5747 53.2459 36.4414 52.9855 36.5332L53.359 37.461ZM51.4166 37.0861C51.1562 37.1778 51.0287 37.4599 51.1318 37.7161C51.2349 37.9723 51.5296 38.1056 51.79 38.0139L51.4166 37.0861ZM50.2211 38.5668C50.4815 38.475 50.609 38.1929 50.5058 37.9367C50.4027 37.6805 50.108 37.5472 49.8476 37.6389L50.2211 38.5668ZM48.4205 37.2934C48.1755 37.1538 47.8669 37.2301 47.7313 37.4637C47.5957 37.6974 47.6844 37.9999 47.9295 38.1395L48.4205 37.2934ZM46.4463 37.2948C46.6914 37.4343 47 37.3581 47.1356 37.1245C47.2711 36.8908 47.1824 36.5883 46.9373 36.4487L46.4463 37.2948ZM45.4541 35.604C45.209 35.4644 44.9004 35.5407 44.7648 35.7743C44.6292 36.008 44.718 36.3105 44.9631 36.4501L45.4541 35.604ZM43.4798 35.6054C43.7249 35.745 44.0335 35.6687 44.1691 35.4351C44.3047 35.2014 44.2159 34.8989 43.9709 34.7593L43.4798 35.6054ZM42.4876 33.9146C42.2426 33.7751 41.934 33.8513 41.7984 34.085C41.6628 34.3186 41.7515 34.6211 41.9966 34.7607L42.4876 33.9146ZM40.5134 33.916C40.7585 34.0556 41.0671 33.9793 41.2027 33.7457C41.3382 33.5121 41.2495 33.2095 41.0044 33.0699L40.5134 33.916ZM40.0605 32.5443C39.8036 32.4276 39.5049 32.5324 39.3933 32.7783C39.2817 33.0241 39.3995 33.318 39.6564 33.4347L40.0605 32.5443ZM39.413 33.3503C39.6865 33.4176 39.9571 33.2583 40.0172 32.9946C40.0774 32.7309 39.9044 32.4626 39.6309 32.3953L39.413 33.3503ZM39.2444 32.3152C38.9671 32.2682 38.7105 32.4474 38.6713 32.7155C38.6321 32.9835 38.8251 33.239 39.1024 33.286L39.2444 32.3152ZM38.8452 33.2663C39.1249 33.2619 39.3404 33.0376 39.3266 32.7655C39.3127 32.4934 39.0746 32.2765 38.7949 32.2809L38.8452 33.2663ZM38.8787 32.0307C38.7756 31.7745 38.4809 31.6412 38.2205 31.733C37.9601 31.8247 37.8326 32.1068 37.9357 32.363L38.8787 32.0307ZM37.4626 31.1875C37.5657 31.4437 37.8604 31.577 38.1208 31.4853C38.3812 31.3935 38.5087 31.1114 38.4056 30.8552L37.4626 31.1875ZM37.9324 29.6797C37.8293 29.4235 37.5346 29.2902 37.2742 29.3819C37.0138 29.4737 36.8863 29.7558 36.9894 30.012L37.9324 29.6797ZM36.5162 28.8365C36.6194 29.0927 36.9141 29.226 37.1745 29.1342C37.4349 29.0425 37.5624 28.7604 37.4593 28.5042L36.5162 28.8365ZM36.9861 27.3286C36.883 27.0724 36.5883 26.9391 36.3279 27.0309C36.0675 27.1226 35.94 27.4047 36.0431 27.661L36.9861 27.3286ZM35.5699 26.4854C35.673 26.7416 35.9678 26.875 36.2282 26.7832C36.4886 26.6914 36.6161 26.4093 36.5129 26.1531L35.5699 26.4854ZM36.2808 25.5767C36.1853 25.3179 35.8945 25.1764 35.6312 25.2606C35.3679 25.3448 35.2318 25.6228 35.3272 25.8816L36.2808 25.5767ZM35.3254 25.8769C35.4209 26.1357 35.7117 26.2772 35.975 26.193C36.2383 26.1088 36.3744 25.8307 36.279 25.5719L35.3254 25.8769ZM36.2732 25.5566C36.1731 25.2993 35.8799 25.1627 35.6183 25.2514C35.3567 25.3401 35.2258 25.6206 35.3258 25.8779L36.2732 25.5566ZM35.3221 25.8684C35.4221 26.1256 35.7153 26.2623 35.9769 26.1735C36.2385 26.0848 36.3695 25.8043 36.2695 25.547L35.3221 25.8684ZM36.0958 25.2331C35.9301 25.0084 35.6128 24.9508 35.3869 25.1044C35.1611 25.258 35.1123 25.5647 35.278 25.7893L36.0958 25.2331ZM35.1342 25.6718C35.3887 25.7935 35.6898 25.6949 35.8067 25.4516C35.9237 25.2082 35.8121 24.9121 35.5576 24.7904L35.1342 25.6718ZM35.0284 24.6494C34.7486 24.6287 34.512 24.8318 34.4999 25.1032C34.4878 25.3745 34.7048 25.6113 34.9846 25.6321L35.0284 24.6494ZM34.8703 25.6394C35.1424 25.5838 35.3093 25.3227 35.2429 25.0563C35.1766 24.7899 34.9022 24.6191 34.6301 24.6747L34.8703 25.6394ZM34.4363 24.7287C34.1764 24.8216 34.0502 25.1043 34.1545 25.3601C34.2588 25.6159 34.5541 25.7479 34.8141 25.655L34.4363 24.7287ZM34.8101 25.6565C35.07 25.5635 35.1962 25.2809 35.0919 25.0251C34.9876 24.7693 34.6923 24.6372 34.4324 24.7301L34.8101 25.6565ZM34.4201 24.7346C34.1616 24.831 34.0394 25.1154 34.1472 25.3699C34.2551 25.6245 34.552 25.7527 34.8105 25.6563L34.4201 24.7346ZM34.8027 25.6592C35.0612 25.5629 35.1834 25.2784 35.0756 25.0239C34.9678 24.7694 34.6708 24.6412 34.4123 24.7375L34.8027 25.6592ZM33.6513 25.0057C33.3909 25.0975 33.2634 25.3795 33.3665 25.6358C33.4697 25.892 33.7644 26.0253 34.0248 25.9335L33.6513 25.0057ZM32.4936 26.4731C32.754 26.3813 32.8815 26.0992 32.7784 25.843C32.6753 25.5868 32.3806 25.4535 32.1202 25.5453L32.4936 26.4731ZM30.589 26.0848C30.3286 26.1766 30.2011 26.4587 30.3042 26.7149C30.4074 26.9711 30.7021 27.1044 30.9625 27.0126L30.589 26.0848ZM29.4313 27.5522C29.6917 27.4604 29.8192 27.1783 29.7161 26.9221C29.613 26.6659 29.3183 26.5326 29.0579 26.6244L29.4313 27.5522ZM27.5267 27.1639C27.2663 27.2557 27.1388 27.5378 27.2419 27.794C27.3451 28.0502 27.6398 28.1835 27.9002 28.0917L27.5267 27.1639ZM26.369 28.6313C26.6294 28.5395 26.7569 28.2574 26.6538 28.0012C26.5507 27.745 26.256 27.6117 25.9956 27.7035L26.369 28.6313ZM24.4644 28.243C24.204 28.3348 24.0765 28.6169 24.1797 28.8731C24.2828 29.1293 24.5775 29.2626 24.8379 29.1709L24.4644 28.243ZM23.3067 29.7104C23.5672 29.6186 23.6947 29.3366 23.5915 29.0803C23.4884 28.8241 23.1937 28.6908 22.9333 28.7826L23.3067 29.7104ZM21.4021 29.3221C21.1417 29.4139 21.0142 29.696 21.1174 29.9522C21.2205 30.2084 21.5152 30.3417 21.7756 30.25L21.4021 29.3221ZM20.2445 30.7895C20.5049 30.6978 20.6324 30.4157 20.5292 30.1595C20.4261 29.9032 20.1314 29.7699 19.871 29.8617L20.2445 30.7895ZM19.2726 29.7742C19.0993 29.5549 18.7805 29.5077 18.5604 29.6688C18.3403 29.83 18.3023 30.1384 18.4755 30.3577L19.2726 29.7742ZM17.6393 29.2988C17.8125 29.5181 18.1313 29.5653 18.3514 29.4042C18.5715 29.2431 18.6095 28.9347 18.4363 28.7153L17.6393 29.2988ZM17.6 27.6565C17.4268 27.4371 17.108 27.39 16.8879 27.5511C16.6678 27.7122 16.6298 28.0206 16.803 28.2399L17.6 27.6565ZM15.9667 27.1811C16.14 27.4004 16.4588 27.4476 16.6789 27.2865C16.899 27.1253 16.937 26.8169 16.7638 26.5976L15.9667 27.1811ZM15.9275 25.5387C15.7543 25.3194 15.4355 25.2722 15.2154 25.4333C14.9953 25.5945 14.9573 25.9029 15.1305 26.1222L15.9275 25.5387ZM14.2942 25.0633C14.4674 25.2827 14.7863 25.3298 15.0064 25.1687C15.2265 25.0076 15.2645 24.6992 15.0913 24.4798L14.2942 25.0633ZM14.255 23.421C14.0818 23.2016 13.763 23.1545 13.5429 23.3156C13.3228 23.4767 13.2848 23.7851 13.458 24.0045L14.255 23.421ZM12.6217 22.9456C12.7949 23.1649 13.1138 23.2121 13.3339 23.051C13.554 22.8898 13.592 22.5814 13.4188 22.3621L12.6217 22.9456ZM12.1413 21.0979C11.8957 20.9592 11.5874 21.0366 11.4528 21.2707C11.3181 21.5049 11.408 21.8071 11.6536 21.9458L12.1413 21.0979ZM10.2314 21.7462C10.5012 21.6816 10.6587 21.415 10.5832 21.1506C10.5078 20.8862 10.228 20.7242 9.95825 20.7888L10.2314 21.7462ZM8.86155 21.3151C8.64667 21.4826 8.61811 21.7923 8.79776 22.0068C8.97741 22.2212 9.29724 22.2593 9.51212 22.0917L8.86155 21.3151ZM9.38998 22.1959C9.5887 22.0106 9.5898 21.6988 9.39243 21.4995C9.19506 21.3001 8.87396 21.2887 8.67524 21.474L9.38998 22.1959ZM8.8215 20.9337C8.64826 20.7144 8.32942 20.6673 8.10933 20.8284C7.88925 20.9896 7.85127 21.298 8.02451 21.5173L8.8215 20.9337ZM6.95017 20.1572C7.1234 20.3765 7.44225 20.4237 7.66233 20.2625C7.88242 20.1014 7.92039 19.7929 7.74716 19.5736L6.95017 20.1572ZM6.86395 18.5742C6.6297 18.4176 6.31533 18.471 6.16181 18.6936C6.00828 18.9161 6.07373 19.2235 6.30799 19.3802L6.86395 18.5742ZM6.02606 19.2981C6.30583 19.2943 6.52192 19.0706 6.5087 18.7985C6.49549 18.5263 6.25798 18.3088 5.97821 18.3127L6.02606 19.2981ZM5.52507 18.3872C5.25866 18.4626 5.11275 18.7357 5.19918 18.9972C5.28562 19.2587 5.57165 19.4096 5.83807 19.3342L5.52507 18.3872ZM5.8176 19.3405C6.08012 19.2541 6.21379 18.9749 6.11616 18.7168C6.01853 18.4587 5.72657 18.3195 5.46406 18.4059L5.8176 19.3405ZM24.6743 36.614C24.5011 36.3946 24.1823 36.3475 23.9622 36.5086C23.7421 36.6697 23.7041 36.9781 23.8773 37.1975L24.6743 36.614ZM22.7791 35.8069C22.9523 36.0262 23.2711 36.0734 23.4912 35.9123C23.7113 35.7512 23.7493 35.4427 23.5761 35.2234L22.7791 35.8069ZM22.4779 33.8329C22.3047 33.6135 21.9859 33.5664 21.7658 33.7275C21.5457 33.8886 21.5077 34.197 21.6809 34.4163L22.4779 33.8329ZM20.5827 33.0258C20.7559 33.2451 21.0747 33.2923 21.2948 33.1312C21.5149 32.97 21.5529 32.6616 21.3797 32.4423L20.5827 33.0258ZM21.3191 32.2559C21.5795 32.1642 21.707 31.8821 21.6038 31.6259C21.5007 31.3697 21.206 31.2363 20.9456 31.3281L21.3191 32.2559ZM22.3461 30.8346C22.0857 30.9264 21.9582 31.2084 22.0613 31.4647C22.1644 31.7209 22.4591 31.8542 22.7195 31.7624L22.3461 30.8346ZM24.12 31.2689C24.3804 31.1771 24.5079 30.8951 24.4048 30.6388C24.3017 30.3826 24.007 30.2493 23.7465 30.3411L24.12 31.2689ZM25.147 29.8476C24.8866 29.9393 24.7591 30.2214 24.8622 30.4776C24.9654 30.7339 25.2601 30.8672 25.5205 30.7754L25.147 29.8476ZM26.921 30.2819C27.1814 30.1901 27.3089 29.908 27.2057 29.6518C27.1026 29.3956 26.8079 29.2623 26.5475 29.3541L26.921 30.2819ZM27.948 28.8606C27.6876 28.9523 27.5601 29.2344 27.6632 29.4906C27.7663 29.7468 28.061 29.8801 28.3214 29.7884L27.948 28.8606ZM29.7219 29.2949C29.9823 29.2031 30.1098 28.921 30.0067 28.6648C29.9036 28.4086 29.6089 28.2753 29.3485 28.367L29.7219 29.2949ZM30.7489 27.8735C30.4885 27.9653 30.361 28.2474 30.4641 28.5036C30.5673 28.7598 30.862 28.8931 31.1224 28.8014L30.7489 27.8735ZM32.5229 28.3079C32.7833 28.2161 32.9108 27.934 32.8076 27.6778C32.7045 27.4216 32.4098 27.2883 32.1494 27.38L32.5229 28.3079ZM33.5499 26.8865C33.2895 26.9783 33.162 27.2604 33.2651 27.5166C33.3682 27.7728 33.6629 27.9061 33.9233 27.8143L33.5499 26.8865ZM34.2786 28.0482C34.3818 28.3044 34.6765 28.4377 34.9369 28.346C35.1973 28.2542 35.3248 27.9721 35.2217 27.7159L34.2786 28.0482ZM35.8483 29.2726C35.7451 29.0164 35.4504 28.8831 35.19 28.9749C34.9296 29.0666 34.8021 29.3487 34.9052 29.6049L35.8483 29.2726ZM35.5319 31.1617C35.635 31.4179 35.9297 31.5512 36.1901 31.4594C36.4505 31.3677 36.578 31.0856 36.4749 30.8294L35.5319 31.1617ZM37.1015 32.3861C36.9983 32.1299 36.7036 31.9966 36.4432 32.0884C36.1828 32.1801 36.0553 32.4622 36.1585 32.7184L37.1015 32.3861ZM35.9991 33.1336C35.7387 33.2254 35.6112 33.5075 35.7144 33.7637C35.8175 34.0199 36.1122 34.1532 36.3726 34.0615L35.9991 33.1336ZM34.8578 34.5952C35.1182 34.5035 35.2457 34.2214 35.1426 33.9652C35.0395 33.709 34.7447 33.5757 34.4843 33.6674L34.8578 34.5952ZM32.9695 34.2012C32.7091 34.293 32.5816 34.5751 32.6848 34.8313C32.7879 35.0875 33.0826 35.2208 33.343 35.129L32.9695 34.2012ZM31.8282 35.6628C32.0886 35.5711 32.2161 35.289 32.113 35.0328C32.0099 34.7766 31.7152 34.6432 31.4548 34.735L31.8282 35.6628ZM29.94 35.2688C29.6796 35.3606 29.5521 35.6427 29.6552 35.8989C29.7583 36.1551 30.053 36.2884 30.3134 36.1966L29.94 35.2688ZM28.7986 36.7304C29.059 36.6387 29.1865 36.3566 29.0834 36.1004C28.9803 35.8441 28.6856 35.7108 28.4252 35.8026L28.7986 36.7304ZM26.9104 36.3364C26.65 36.4282 26.5225 36.7102 26.6256 36.9665C26.7287 37.2227 27.0234 37.356 27.2838 37.2642L26.9104 36.3364ZM25.769 37.798C26.0294 37.7062 26.1569 37.4242 26.0538 37.1679C25.9507 36.9117 25.656 36.7784 25.3956 36.8702L25.769 37.798ZM5.43396 18.4161L4.54954 18.7278L4.923 19.6556L5.80742 19.344L5.43396 18.4161ZM2.78068 19.3511L1.89626 19.6628L2.26972 20.5906L3.15414 20.2789L2.78068 19.3511ZM1.89626 19.6628C1.71301 19.7273 1.55071 19.8241 1.41458 19.9446L2.11115 20.683C2.15476 20.6444 2.20771 20.6124 2.26972 20.5906L1.89626 19.6628ZM0.949784 20.9318C0.944404 21.1175 0.976956 21.308 1.05124 21.4925L1.99425 21.1602C1.97158 21.1039 1.96206 21.0472 1.96366 20.9921L0.949784 20.9318ZM1.05124 21.4925C1.12555 21.6771 1.23552 21.8404 1.37071 21.9766L2.08947 21.3048C2.04946 21.2644 2.01678 21.2162 1.99425 21.1602L1.05124 21.4925ZM2.41566 22.4306C2.60278 22.437 2.79277 22.4095 2.97589 22.345L2.60243 21.4172C2.54046 21.439 2.47819 21.4477 2.41819 21.4456L2.41566 22.4306ZM2.97589 22.345L3.70341 22.0887L3.32995 21.1608L2.60243 21.4172L2.97589 22.345ZM5.15845 21.5759L5.88597 21.3195L5.51251 20.3917L4.78499 20.6481L5.15845 21.5759ZM5.30071 21.1474L5.68017 21.6279L6.47723 21.0444L6.09777 20.5639L5.30071 21.1474ZM6.43911 22.5889L7.19804 23.5499L7.9951 22.9664L7.23617 22.0054L6.43911 22.5889ZM7.95697 24.5109L8.33644 24.9914L9.1335 24.4079L8.75403 23.9274L7.95697 24.5109ZM8.31749 24.9658C8.35108 25.0142 8.38638 25.0618 8.4234 25.1087L9.22039 24.5251C9.19656 24.495 9.17392 24.4644 9.15244 24.4335L8.31749 24.9658ZM8.42337 25.1087L8.87444 25.6798L9.67149 25.0963L9.22042 24.5252L8.42337 25.1087ZM9.77658 26.8221L10.6787 27.9644L11.4758 27.3809L10.5736 26.2386L9.77658 26.8221ZM11.5809 29.1067L12.483 30.249L13.28 29.6655L12.3779 28.5232L11.5809 29.1067ZM13.3851 31.3913L14.2873 32.5336L15.0843 31.9501L14.1822 30.8078L13.3851 31.3913ZM15.1894 33.6759L16.0915 34.8181L16.8886 34.2347L15.9864 33.0924L15.1894 33.6759ZM16.9937 35.9604L17.8958 37.1027L18.6929 36.5192L17.7907 35.377L16.9937 35.9604ZM18.7979 38.245L19.7001 39.3873L20.4971 38.8038L19.595 37.6615L18.7979 38.245ZM20.6022 40.5296L21.0533 41.1008L21.8503 40.5173L21.3993 39.9461L20.6022 40.5296ZM21.0533 41.1008C21.0826 41.1378 21.1126 41.174 21.1434 41.2093L21.9081 40.5869C21.8884 40.5643 21.8691 40.5411 21.8503 40.5172L21.0533 41.1008ZM21.3396 41.4133C21.3741 41.4459 21.4093 41.4776 21.4451 41.5082L22.1011 40.7781C22.0782 40.7585 22.0557 40.7383 22.0337 40.7175L21.3396 41.4133ZM21.3839 41.4464C21.5444 41.6381 21.7337 41.8016 21.9423 41.9329L22.474 41.1112C22.3564 41.0372 22.251 40.9459 22.1623 40.8399L21.3839 41.4464ZM23.3485 42.3107C23.5868 42.3017 23.8264 42.2575 24.0593 42.1755L23.6858 41.2476C23.5499 41.2955 23.4118 41.3208 23.2755 41.326L23.3485 42.3107ZM24.0593 42.1755L24.7794 41.9217L24.4059 40.9939L23.6858 41.2476L24.0593 42.1755ZM26.2195 41.4142L27.6596 40.9067L27.2862 39.9789L25.846 40.4864L26.2195 41.4142ZM29.0998 40.3993L30.5399 39.8918L30.1665 38.9639L28.7263 39.4714L29.0998 40.3993ZM31.9801 39.3843L33.4202 38.8768L33.0468 37.949L31.6066 38.4565L31.9801 39.3843ZM34.8604 38.3693L36.3005 37.8618L35.927 36.934L34.4869 37.4415L34.8604 38.3693ZM37.7406 37.3543L38.4607 37.1006L38.0872 36.1728L37.3672 36.4265L37.7406 37.3543ZM37.8025 36.8028L38.0384 37.3891L38.9815 37.0568L38.7455 36.4705L37.8025 36.8028ZM38.5104 38.5615L38.9823 39.734L39.9253 39.4017L39.4534 38.2292L38.5104 38.5615ZM39.4542 40.9065L39.6902 41.4928L40.6332 41.1605L40.3973 40.5742L39.4542 40.9065ZM39.8444 40.9322C39.5485 41.1531 39.2972 41.4167 39.0963 41.7099L39.9462 42.2748C40.0892 42.0662 40.268 41.8785 40.479 41.721L39.8444 40.9322ZM38.5416 43.7662C38.5689 44.1234 38.6567 44.4833 38.8099 44.8326L39.741 44.472C39.6333 44.2264 39.5721 43.9749 39.5531 43.7257L38.5416 43.7662ZM38.8099 44.8326C38.9021 45.043 39.0141 45.2405 39.143 45.4239L39.9745 44.8865C39.8845 44.7585 39.8059 44.6201 39.741 44.472L38.8099 44.8326ZM40.1315 46.3647C40.5173 46.6104 40.9485 46.7824 41.399 46.8707L41.5677 45.9048C41.2464 45.8418 40.9402 45.7194 40.6678 45.5459L40.1315 46.3647ZM42.7509 46.881C42.9684 46.8414 43.1842 46.7814 43.3958 46.7L42.9957 45.782C42.8429 45.8408 42.6879 45.8838 42.5324 45.9121L42.7509 46.881ZM43.3962 46.6998C43.6077 46.6183 43.8062 46.5187 43.9905 46.4034L43.422 45.5694C43.2903 45.6517 43.1479 45.7233 42.9953 45.7821L43.3962 46.6998ZM44.9446 45.5038C45.199 45.1434 45.3767 44.7361 45.4666 44.3065L44.4724 44.0796C44.409 44.3827 44.2832 44.6717 44.102 44.9283L44.9446 45.5038ZM45.4635 42.9847C45.4176 42.7694 45.349 42.5551 45.2568 42.3448L44.3257 42.7054C44.3906 42.8534 44.4385 43.0035 44.4706 43.1537L45.4635 42.9847ZM45.2568 42.3448C45.1108 42.0119 44.9155 41.7113 44.6822 41.4485L43.9235 42.0778C44.0863 42.2612 44.223 42.4713 44.3257 42.7054L45.2568 42.3448ZM42.8645 40.3507C42.5211 40.2636 42.1635 40.2256 41.8037 40.2414L41.883 41.2259C42.1396 41.2146 42.3945 41.2418 42.6391 41.3038L42.8645 40.3507ZM42.3149 40.5675L41.9815 39.7392L41.0384 40.0715L41.3719 40.8998L42.3149 40.5675ZM41.3147 38.0826L40.9813 37.2543L40.0382 37.5866L40.3716 38.4149L41.3147 38.0826ZM40.2642 37.8434L41.0839 38.3103L41.575 37.4643L40.7553 36.9974L40.2642 37.8434ZM42.7233 39.2441L44.3628 40.1779L44.8538 39.3319L43.2144 38.3981L42.7233 39.2441ZM46.0022 41.1117L46.8219 41.5786L47.313 40.7326L46.4932 40.2657L46.0022 41.1117ZM46.822 41.5787C46.935 41.643 47.0513 41.6975 47.1698 41.7423L47.5102 40.8254C47.4432 40.8 47.3772 40.7692 47.3128 40.7325L46.822 41.5787ZM47.9176 41.8982C48.0448 41.9044 48.1715 41.9008 48.2965 41.8875L48.1537 40.9078C48.0814 40.9154 48.0085 40.9175 47.9355 40.9139L47.9176 41.8982ZM48.2747 41.8894C48.3179 41.8866 48.3611 41.8824 48.4043 41.8767L48.2341 40.9002C48.2146 40.9028 48.195 40.9047 48.1755 40.9059L48.2747 41.8894ZM48.6575 41.825C48.6986 41.8137 48.7393 41.8009 48.7798 41.7866L48.4064 40.8588C48.3875 40.8654 48.3686 40.8713 48.3498 40.8766L48.6575 41.825ZM48.7798 41.7866L48.789 41.7834L48.4155 40.8555L48.4064 40.8588L48.7798 41.7866ZM48.8073 41.7769L48.8164 41.7737L48.4429 40.8459L48.4338 40.8491L48.8073 41.7769ZM48.8089 41.7763C48.8148 41.7743 48.8208 41.7723 48.8268 41.7702L48.4608 40.8398C48.4574 40.841 48.4539 40.8421 48.4505 40.8433L48.8089 41.7763ZM48.8624 41.7577C48.8683 41.7555 48.8742 41.7534 48.8801 41.7512L48.4916 40.8288C48.4882 40.83 48.4848 40.8313 48.4814 40.8325L48.8624 41.7577ZM48.8726 41.7539L49.5222 41.525L49.1488 40.5971L48.4991 40.8261L48.8726 41.7539ZM50.8215 41.0671L52.1209 40.6092L51.7474 39.6814L50.4481 40.1393L50.8215 41.0671ZM53.4202 40.1514L54.7195 39.6935L54.346 38.7657L53.0467 39.2236L53.4202 40.1514ZM56.0188 39.2357L56.6684 39.0067L56.295 38.0789L55.6453 38.3078L56.0188 39.2357ZM56.6684 39.0067C56.8951 38.9269 57.0955 38.8072 57.2633 38.6584L56.5662 37.9205C56.4908 37.9873 56.4 38.0419 56.295 38.0789L56.6684 39.0067ZM57.836 37.4427C57.8428 37.2143 57.803 36.9801 57.7115 36.7528L56.7685 37.0852C56.8082 37.1837 56.8251 37.2839 56.8222 37.3817L57.836 37.4427ZM57.7115 36.7528C57.6201 36.5256 57.4849 36.325 57.3187 36.1576L56.6 36.8295C56.671 36.901 56.7289 36.9866 56.7685 37.0852L57.7115 36.7528ZM56.0311 35.5983C55.8002 35.5902 55.5655 35.624 55.339 35.7038L55.7125 36.6317C55.8175 36.5946 55.9244 36.5796 56.0281 36.5832L56.0311 35.5983ZM55.339 35.7038L54.5545 35.9803L54.928 36.9081L55.7125 36.6317L55.339 35.7038ZM52.9855 36.5332L51.4166 37.0861L51.79 38.0139L53.359 37.461L52.9855 36.5332ZM49.8476 37.6389L49.0631 37.9154L49.4366 38.8432L50.2211 38.5668L49.8476 37.6389ZM49.5886 38.0237C49.4607 37.9081 49.3181 37.8045 49.162 37.7157L48.6712 38.5619C48.7601 38.6125 48.8401 38.6707 48.9111 38.7349L49.5886 38.0237ZM49.1621 37.7157L48.4205 37.2934L47.9295 38.1395L48.6711 38.5618L49.1621 37.7157ZM46.9373 36.4487L45.4541 35.604L44.9631 36.4501L46.4463 37.2948L46.9373 36.4487ZM43.9709 34.7593L42.4876 33.9146L41.9966 34.7607L43.4798 35.6054L43.9709 34.7593ZM41.0044 33.0699L40.2628 32.6476L39.7718 33.4937L40.5134 33.916L41.0044 33.0699ZM40.263 32.6477C40.1966 32.6099 40.1291 32.5754 40.0605 32.5443L39.6564 33.4347C39.6952 33.4523 39.7337 33.4719 39.7716 33.4935L40.263 32.6477ZM39.6309 32.3953C39.557 32.3772 39.4827 32.3625 39.4083 32.3514L39.2864 33.3253C39.3288 33.3317 39.371 33.34 39.413 33.3503L39.6309 32.3953ZM39.4658 32.3633C39.3929 32.344 39.3191 32.3279 39.2444 32.3152L39.1024 33.286C39.1451 33.2932 39.1873 33.3024 39.2289 33.3134L39.4658 32.3633ZM38.7949 32.2809C38.7203 32.2821 38.6456 32.2868 38.5709 32.2949L38.7167 33.2744C38.7596 33.2697 38.8025 33.267 38.8452 33.2663L38.7949 32.2809ZM39.1153 32.6185L38.8787 32.0307L37.9357 32.363L38.1723 32.9508L39.1153 32.6185ZM38.4056 30.8552L37.9324 29.6797L36.9894 30.012L37.4626 31.1875L38.4056 30.8552ZM37.4593 28.5042L36.9861 27.3286L36.0431 27.661L36.5162 28.8365L37.4593 28.5042ZM36.5129 26.1531L36.2764 25.5654L35.3333 25.8977L35.5699 26.4854L36.5129 26.1531ZM36.2816 25.5791L36.2808 25.5767L35.3272 25.8816L35.3281 25.884L36.2816 25.5791ZM36.279 25.5719L36.2781 25.5696L35.3246 25.8745L35.3254 25.8769L36.279 25.5719ZM36.275 25.5614L36.2732 25.5566L35.3258 25.8779L35.3277 25.8827L36.275 25.5614ZM36.2695 25.547L36.2676 25.5423L35.3202 25.8636L35.3221 25.8684L36.2695 25.547ZM36.2654 25.5368C36.2214 25.4274 36.1641 25.3257 36.0958 25.2331L35.278 25.7893C35.2955 25.8131 35.3106 25.8397 35.3224 25.8691L36.2654 25.5368ZM35.5576 24.7904C35.4528 24.7402 35.342 24.7024 35.2279 24.6781L35.0417 25.6403C35.074 25.6472 35.1051 25.6579 35.1342 25.6718L35.5576 24.7904ZM35.2283 24.6781C35.1626 24.6641 35.0958 24.6544 35.0284 24.6494L34.9846 25.6321C35.0038 25.6335 35.0227 25.6363 35.0413 25.6402L35.2283 24.6781ZM34.6301 24.6747C34.5662 24.6878 34.5029 24.7053 34.4405 24.7272L34.8139 25.6551C34.8328 25.6484 34.8517 25.6432 34.8703 25.6394L34.6301 24.6747ZM34.4383 24.728L34.4363 24.7287L34.8141 25.655L34.816 25.6543L34.4383 24.728ZM34.4324 24.7301L34.4304 24.7308L34.8081 25.6572L34.8101 25.6565L34.4324 24.7301ZM34.424 24.7332L34.4201 24.7346L34.8105 25.6563L34.8144 25.6549L34.424 24.7332ZM34.4123 24.7375L34.4084 24.739L34.7988 25.6607L34.8027 25.6592L34.4123 24.7375ZM34.4169 24.7359L33.6513 25.0057L34.0248 25.9335L34.7903 25.6637L34.4169 24.7359ZM32.1202 25.5453L30.589 26.0848L30.9625 27.0126L32.4936 26.4731L32.1202 25.5453ZM29.0579 26.6244L27.5267 27.1639L27.9002 28.0917L29.4313 27.5522L29.0579 26.6244ZM25.9956 27.7035L24.4644 28.243L24.8379 29.1709L26.369 28.6313L25.9956 27.7035ZM22.9333 28.7826L21.4021 29.3221L21.7756 30.25L23.3067 29.7104L22.9333 28.7826ZM19.871 29.8617L19.1054 30.1315L19.4789 31.0593L20.2445 30.7895L19.871 29.8617ZM19.6907 30.3036L19.2726 29.7742L18.4755 30.3577L18.8936 30.8871L19.6907 30.3036ZM18.4363 28.7153L17.6 27.6565L16.803 28.2399L17.6393 29.2988L18.4363 28.7153ZM16.7638 26.5976L15.9275 25.5387L15.1305 26.1222L15.9667 27.1811L16.7638 26.5976ZM15.0913 24.4798L14.255 23.421L13.458 24.0045L14.2942 25.0633L15.0913 24.4798ZM13.4188 22.3621L13.0006 21.8327L12.2036 22.4162L12.6217 22.9456L13.4188 22.3621ZM13.0006 21.8326C12.7594 21.5273 12.4656 21.2811 12.1413 21.0979L11.6536 21.9458C11.8613 22.0632 12.049 22.2204 12.2036 22.4162L13.0006 21.8326ZM9.95825 20.7888C9.60603 20.8731 9.26642 21.0234 8.95973 21.2419L9.57687 22.0435C9.77901 21.8995 10.0014 21.8012 10.2314 21.7462L9.95825 20.7888ZM8.95973 21.2419C8.92631 21.2657 8.89359 21.2901 8.86155 21.3151L9.51212 22.0917C9.5332 22.0753 9.55478 22.0592 9.57687 22.0435L8.95973 21.2419ZM8.67524 21.474C8.64525 21.5019 8.61602 21.5304 8.58756 21.5595L9.33278 22.2516C9.35132 22.2327 9.37039 22.2141 9.38998 22.1959L8.67524 21.474ZM9.35867 21.6138L8.8215 20.9337L8.02451 21.5173L8.56167 22.1973L9.35867 21.6138ZM7.74716 19.5736L7.20999 18.8936L6.413 19.4772L6.95017 20.1572L7.74716 19.5736ZM7.20999 18.8936C7.11033 18.7674 6.99299 18.6605 6.86395 18.5742L6.30799 19.3802C6.34701 19.4063 6.38248 19.4385 6.413 19.4772L7.20999 18.8936ZM5.97821 18.3127C5.82555 18.3147 5.67275 18.3394 5.52565 18.3877L5.87866 19.3225C5.9264 19.3069 5.97616 19.2988 6.02606 19.2981L5.97821 18.3127ZM5.55596 18.3788C5.54565 18.3815 5.53535 18.3843 5.52507 18.3872L5.83807 19.3342C5.8415 19.3333 5.84492 19.3323 5.84835 19.3314L5.55596 18.3788ZM5.46406 18.4059C5.454 18.4092 5.44397 18.4126 5.43396 18.4161L5.80742 19.344C5.81082 19.3428 5.81421 19.3416 5.8176 19.3405L5.46406 18.4059ZM25.2234 37.3093L24.6743 36.614L23.8773 37.1975L24.4264 37.8927L25.2234 37.3093ZM23.5761 35.2234L22.4779 33.8329L21.6809 34.4163L22.7791 35.8069L23.5761 35.2234ZM21.3797 32.4423L20.8306 31.747L20.0336 32.3305L20.5827 33.0258L21.3797 32.4423ZM20.6188 32.5027L21.3191 32.2559L20.9456 31.3281L20.2454 31.5749L20.6188 32.5027ZM22.7195 31.7624L24.12 31.2689L23.7465 30.3411L22.3461 30.8346L22.7195 31.7624ZM25.5205 30.7754L26.921 30.2819L26.5475 29.3541L25.147 29.8476L25.5205 30.7754ZM28.3214 29.7884L29.7219 29.2949L29.3485 28.367L27.948 28.8606L28.3214 29.7884ZM31.1224 28.8014L32.5229 28.3079L32.1494 27.38L30.7489 27.8735L31.1224 28.8014ZM33.9233 27.8143L34.6236 27.5676L34.2501 26.6398L33.5499 26.8865L33.9233 27.8143ZM33.9653 27.2698L34.2786 28.0482L35.2217 27.7159L34.9084 26.9375L33.9653 27.2698ZM34.9052 29.6049L35.5319 31.1617L36.4749 30.8294L35.8483 29.2726L34.9052 29.6049ZM36.1585 32.7184L36.4718 33.4968L37.4148 33.1645L37.1015 32.3861L36.1585 32.7184ZM36.7565 32.8667L35.9991 33.1336L36.3726 34.0615L37.13 33.7946L36.7565 32.8667ZM34.4843 33.6674L32.9695 34.2012L33.343 35.129L34.8578 34.5952L34.4843 33.6674ZM31.4548 34.735L29.94 35.2688L30.3134 36.1966L31.8282 35.6628L31.4548 34.735ZM28.4252 35.8026L26.9104 36.3364L27.2838 37.2642L28.7986 36.7304L28.4252 35.8026ZM25.3956 36.8702L24.6382 37.1371L25.0116 38.0649L25.769 37.798L25.3956 36.8702Z" fill="#616161"/>
<path fill-rule="evenodd" clip-rule="evenodd" d="M21.9179 15.9766C23.8488 15.2961 24.8098 13.2402 24.0626 11.3838C23.3154 9.52744 21.1436 8.57548 19.2127 9.25591C17.2806 9.93674 16.3196 11.9927 17.0668 13.8491C17.814 15.7055 19.9858 16.6574 21.9179 15.9766ZM24.0252 31.5678C24.2643 32.1616 24.6435 32.6666 25.1125 33.0607C25.648 34.0764 26.9054 34.5727 28.0325 34.1755L39.3019 30.2043L48.201 35.1906C49.32 35.8175 50.7443 35.4687 51.3816 34.4115C52.0189 33.3542 51.6286 31.9884 50.5096 31.3614L40.7123 25.8719C40.6376 25.8301 40.5615 25.7926 40.4844 25.7593C39.9264 25.4978 39.2651 25.4451 38.644 25.664L31.0384 28.3441L27.5297 19.6269C26.7521 17.6951 24.4935 16.7041 22.483 17.4126C20.4725 18.1211 19.4737 20.2599 20.2513 22.1917L20.9842 24.0126L19.2929 27.6345C19.2154 27.8003 19.1834 27.9751 19.1918 28.1462C19.1897 28.2879 19.2155 28.4329 19.2724 28.5742L21.5016 34.1124C21.7393 34.7031 22.4308 35.0074 23.0467 34.7903C23.6616 34.5737 23.9667 33.9182 23.7289 33.3275L21.6625 28.1937L22.2022 27.0385L24.0252 31.5678Z" fill="white"/>
<path d="M21.9179 15.9766L22.1046 16.4405L22.1046 16.4405L21.9179 15.9766ZM19.2127 9.25591L19.3994 9.71982L19.2127 9.25591ZM25.1125 33.0607L25.5623 32.8477L25.5152 32.7584L25.4368 32.6926L25.1125 33.0607ZM24.0252 31.5678L23.5537 31.734L24.0252 31.5678ZM28.0325 34.1755L28.2193 34.6394L28.0325 34.1755ZM39.3019 30.2043L39.5441 29.7795L39.3357 29.6627L39.1151 29.7404L39.3019 30.2043ZM48.201 35.1906L47.9587 35.6154L47.9587 35.6155L48.201 35.1906ZM51.3816 34.4115L50.9418 34.152L51.3816 34.4115ZM50.5096 31.3614L50.2673 31.7863L50.2673 31.7863L50.5096 31.3614ZM40.7123 25.8719L40.9545 25.447L40.9545 25.447L40.7123 25.8719ZM40.4844 25.7593L40.2765 26.2018L40.2841 26.2054L40.2917 26.2087L40.4844 25.7593ZM31.0384 28.3441L30.5669 28.5102L30.7537 28.9741L31.2252 28.808L31.0384 28.3441ZM27.5297 19.6269L27.0582 19.793L27.5297 19.6269ZM20.2513 22.1917L20.7228 22.0255L20.2513 22.1917ZM20.9842 24.0126L21.4472 24.2285L21.5344 24.0419L21.4557 23.8465L20.9842 24.0126ZM19.2929 27.6345L18.8298 27.4186L18.8298 27.4186L19.2929 27.6345ZM19.1918 28.1462L19.6989 28.1696L19.6992 28.1543L19.6984 28.139L19.1918 28.1462ZM19.2724 28.5742L19.7439 28.4081L19.2724 28.5742ZM21.5016 34.1124L21.0301 34.2785L21.5016 34.1124ZM21.6625 28.1937L21.1995 27.9779L21.1124 28.1645L21.191 28.3599L21.6625 28.1937ZM22.2022 27.0385L22.6737 26.8724L22.2304 25.7711L21.7392 26.8227L22.2022 27.0385ZM24.5341 11.2177C24.3946 10.8709 24.2111 10.5512 23.9919 10.2627L23.1829 10.8307C23.3474 11.0473 23.4856 11.2878 23.5911 11.55L24.5341 11.2177ZM23.2114 9.47545C22.6259 9.02111 21.9275 8.71908 21.1906 8.6002L21.0569 9.5723C21.6202 9.66317 22.1516 9.89377 22.5947 10.2376L23.2114 9.47545ZM20.09 8.56081C19.7329 8.59275 19.3756 8.66881 19.026 8.79199L19.3994 9.71982C19.669 9.62484 19.9431 9.56664 20.2161 9.54223L20.09 8.56081ZM19.026 8.79199C18.6764 8.91519 18.3542 9.07855 18.0632 9.27494L18.6602 10.0905C18.8826 9.94032 19.1298 9.81484 19.3994 9.71982L19.026 8.79199ZM17.2635 9.98378C16.7932 10.528 16.481 11.1861 16.3612 11.889L17.362 12.0813C17.4527 11.5494 17.6896 11.048 18.0491 10.632L17.2635 9.98378ZM16.3295 12.9626C16.3682 13.3148 16.4557 13.6684 16.5953 14.0152L17.5383 13.6829C17.4328 13.4207 17.3671 13.1546 17.338 12.8902L16.3295 12.9626ZM16.5953 14.0152C16.7349 14.362 16.9184 14.6818 17.1376 14.9703L17.9466 14.4023C17.7821 14.1857 17.6438 13.9451 17.5383 13.6829L16.5953 14.0152ZM17.9184 15.7577C18.504 16.212 19.2026 16.5139 19.9397 16.6327L20.0731 15.6605C19.5097 15.5698 18.9781 15.3392 18.535 14.9955L17.9184 15.7577ZM21.0405 16.6718C21.3976 16.6398 21.755 16.5637 22.1046 16.4405L21.7311 15.5127C21.4615 15.6077 21.1872 15.6659 20.9142 15.6904L21.0405 16.6718ZM22.1046 16.4405C22.4541 16.3173 22.7763 16.1539 23.0673 15.9575L22.4701 15.1421C22.2477 15.2922 22.0006 15.4177 21.7311 15.5127L22.1046 16.4405ZM23.8667 15.2486C24.3366 14.7044 24.6486 14.0463 24.7683 13.3435L23.7675 13.1513C23.6769 13.6832 23.4401 14.1845 23.0808 14.6005L23.8667 15.2486ZM24.7999 12.27C24.7612 11.9179 24.6737 11.5644 24.5341 11.2177L23.5911 11.55C23.6966 11.8121 23.7623 12.0782 23.7914 12.3426L24.7999 12.27ZM25.4368 32.6926C25.0311 32.3517 24.7036 31.9155 24.4968 31.4017L23.5537 31.734C23.825 32.4078 24.2558 32.9816 24.7882 33.4289L25.4368 32.6926ZM24.4968 31.4017L24.1929 30.6468L23.2499 30.9791L23.5537 31.734L24.4968 31.4017ZM23.8891 29.8919L23.2814 28.3822L22.3384 28.7145L22.946 30.2242L23.8891 29.8919ZM22.9775 27.6273L22.6737 26.8724L21.7307 27.2047L22.0345 27.9596L22.9775 27.6273ZM21.7392 26.8227L21.5593 27.2077L22.4853 27.6395L22.6652 27.2544L21.7392 26.8227ZM21.3794 27.5928L21.1995 27.9779L22.1255 28.4096L22.3054 28.0245L21.3794 27.5928ZM21.191 28.3599L21.5354 29.2155L22.4784 28.8832L22.134 28.0276L21.191 28.3599ZM21.8798 30.0711L22.5686 31.7824L23.5116 31.4501L22.8228 29.7388L21.8798 30.0711ZM22.913 32.638L23.2574 33.4936L24.2004 33.1613L23.856 32.3057L22.913 32.638ZM23.2574 33.4936C23.3017 33.6037 23.3123 33.717 23.294 33.8251L24.2949 34.0167C24.3419 33.7396 24.3146 33.4449 24.2004 33.1613L23.2574 33.4936ZM23.1488 34.1314C23.0758 34.2161 22.9785 34.2847 22.86 34.3264L23.2335 35.2542C23.5166 35.1545 23.7549 34.9879 23.9352 34.7788L23.1488 34.1314ZM22.86 34.3264C22.7411 34.3683 22.6194 34.3769 22.5047 34.3584L22.371 35.3305C22.6538 35.3761 22.9503 35.354 23.2335 35.2542L22.86 34.3264ZM22.1794 34.2179C22.0893 34.148 22.0174 34.0563 21.9731 33.9462L21.0301 34.2785C21.1443 34.5623 21.3317 34.8008 21.5626 34.98L22.1794 34.2179ZM21.9731 33.9462L21.6015 33.0232L20.6585 33.3555L21.0301 34.2785L21.9731 33.9462ZM21.23 32.1002L20.487 30.2541L19.544 30.5864L20.287 32.4325L21.23 32.1002ZM20.1154 29.3311L19.7439 28.4081L18.8009 28.7404L19.1724 29.6634L20.1154 29.3311ZM19.7439 28.4081C19.7334 28.382 19.7249 28.3559 19.7182 28.3299L18.7348 28.5396C18.7522 28.6071 18.7742 28.6741 18.8009 28.7404L19.7439 28.4081ZM19.7032 28.2502C19.6999 28.2233 19.6985 28.1964 19.6989 28.1696L18.6848 28.1227C18.6837 28.1921 18.6873 28.2621 18.6958 28.3323L19.7032 28.2502ZM19.6984 28.139C19.6968 28.1065 19.6978 28.0737 19.7016 28.0408L18.6935 27.8997C18.6838 27.9844 18.6812 28.0692 18.6853 28.1534L19.6984 28.139ZM19.7208 27.9442C19.7297 27.9129 19.7413 27.8815 19.7559 27.8503L18.8298 27.4186C18.7942 27.4951 18.7651 27.5732 18.7425 27.6525L19.7208 27.9442ZM19.7559 27.8503L20.3197 26.643L19.3936 26.2114L18.8298 27.4186L19.7559 27.8503ZM20.8834 25.4357L21.4472 24.2285L20.5212 23.7968L19.9574 25.0041L20.8834 25.4357ZM21.4557 23.8465L21.2114 23.2395L20.2684 23.5718L20.5127 24.1788L21.4557 23.8465ZM20.9671 22.6325L20.7228 22.0255L19.7797 22.3578L20.0241 22.9648L20.9671 22.6325ZM20.7228 22.0255C20.6123 21.751 20.5434 21.4723 20.5129 21.1954L19.5044 21.2681C19.5446 21.6327 19.6352 21.9988 19.7797 22.3578L20.7228 22.0255ZM20.5378 20.3484C20.6325 19.7915 20.8805 19.2667 21.2566 18.8313L20.4709 18.1831C19.9839 18.7468 19.6608 19.4285 19.5369 20.1564L20.5378 20.3484ZM21.8961 18.2644C22.1289 18.1073 22.3876 17.976 22.6698 17.8765L22.2963 16.9487C21.9341 17.0763 21.6004 17.2455 21.2991 17.4489L21.8961 18.2644ZM22.6698 17.8765C22.9519 17.7771 23.2389 17.7161 23.5247 17.6905L23.3984 16.7091C23.0285 16.7423 22.6584 16.8211 22.2963 16.9487L22.6698 17.8765ZM24.4049 17.7219C24.9946 17.8169 25.5509 18.0583 26.0148 18.4184L26.6316 17.6563C26.0253 17.1857 25.3019 16.8728 24.5385 16.7497L24.4049 17.7219ZM26.6307 19.0396C26.8029 19.2665 26.9477 19.5185 27.0582 19.793L28.0012 19.4607C27.8567 19.1016 27.6667 18.7706 27.4398 18.4718L26.6307 19.0396ZM27.0582 19.793L27.448 20.7616L28.391 20.4293L28.0012 19.4607L27.0582 19.793ZM27.8379 21.7302L28.6176 23.6673L29.5606 23.335L28.7809 21.3979L27.8379 21.7302ZM29.0075 24.6359L29.7872 26.5731L30.7302 26.2408L29.9505 24.3036L29.0075 24.6359ZM30.1771 27.5416L30.5669 28.5102L31.51 28.1779L31.1201 27.2093L30.1771 27.5416ZM31.2252 28.808L32.0702 28.5102L31.6968 27.5824L30.8517 27.8802L31.2252 28.808ZM32.9153 28.2124L34.6054 27.6168L34.232 26.689L32.5418 27.2846L32.9153 28.2124ZM35.4505 27.319L37.1406 26.7235L36.7672 25.7956L35.077 26.3912L35.4505 27.319ZM37.9857 26.4257L38.8308 26.1279L38.4573 25.2001L37.6122 25.4978L37.9857 26.4257ZM38.8308 26.1279C38.9896 26.0719 39.151 26.0386 39.3113 26.0259L39.1958 25.0436C38.9478 25.0632 38.6996 25.1147 38.4573 25.2001L38.8308 26.1279ZM39.8044 26.0511C39.9685 26.081 40.1274 26.1319 40.2765 26.2018L40.6923 25.3168C40.46 25.2079 40.2133 25.1289 39.9592 25.0826L39.8044 26.0511ZM40.2917 26.2087C40.3119 26.2174 40.3321 26.2265 40.3521 26.236L40.7712 25.3525C40.74 25.3377 40.7086 25.3235 40.6771 25.31L40.2917 26.2087ZM40.4115 26.2653C40.4311 26.2754 40.4506 26.2859 40.47 26.2968L40.9545 25.447C40.9244 25.4302 40.8942 25.4139 40.8637 25.3982L40.4115 26.2653ZM40.47 26.2968L41.2864 26.7542L41.771 25.9045L40.9545 25.447L40.47 26.2968ZM42.1029 27.2117L43.7358 28.1266L44.2203 27.2769L42.5874 26.362L42.1029 27.2117ZM44.5522 28.5841L46.1851 29.499L46.6696 28.6493L45.0367 27.7343L44.5522 28.5841ZM47.0015 29.9564L48.6344 30.8714L49.119 30.0216L47.4861 29.1067L47.0015 29.9564ZM49.4508 31.3288L50.2673 31.7863L50.7518 30.9366L49.9354 30.4791L49.4508 31.3288ZM50.2673 31.7863C50.5555 31.9478 50.7794 32.1704 50.9335 32.4249L51.8034 31.9463C51.5578 31.5407 51.202 31.1888 50.7518 30.9366L50.2673 31.7863ZM51.1805 33.2926C51.1819 33.5839 51.106 33.8797 50.9418 34.152L51.8214 34.6709C52.076 34.2485 52.197 33.783 52.1947 33.3205L51.1805 33.2926ZM50.9418 34.152C50.7769 34.4256 50.5451 34.6387 50.2757 34.7843L50.7909 35.6493C51.2061 35.425 51.5659 35.0948 51.8214 34.6709L50.9418 34.152ZM49.361 35.0094C49.0485 35.0068 48.7327 34.9279 48.4433 34.7657L47.9587 35.6155C48.4104 35.8685 48.9027 35.9908 49.3859 35.9949L49.361 35.0094ZM48.4433 34.7657L47.4545 34.2117L46.9699 35.0614L47.9587 35.6154L48.4433 34.7657ZM46.4657 33.6577L44.4881 32.5496L44.0036 33.3993L45.9811 34.5074L46.4657 33.6577ZM43.4993 31.9956L41.5217 30.8875L41.0372 31.7372L43.0148 32.8453L43.4993 31.9956ZM40.5329 30.3335L39.5441 29.7795L39.0596 30.6292L40.0484 31.1832L40.5329 30.3335ZM39.1151 29.7404L38.176 30.0713L38.5495 30.9992L39.4886 30.6682L39.1151 29.7404ZM37.2369 30.4023L35.3587 31.0641L35.7321 31.992L37.6104 31.3301L37.2369 30.4023ZM34.4196 31.3951L32.5414 32.0569L32.9148 32.9847L34.793 32.3229L34.4196 31.3951ZM31.6022 32.3878L29.724 33.0497L30.0975 33.9775L31.9757 33.3157L31.6022 32.3878ZM28.7849 33.3806L27.8458 33.7116L28.2193 34.6394L29.1584 34.3085L28.7849 33.3806ZM27.8458 33.7116C27.5558 33.8138 27.2568 33.8407 26.971 33.8039L26.8708 34.7809C27.3145 34.838 27.7762 34.7955 28.2193 34.6394L27.8458 33.7116ZM26.1436 33.4923C25.9025 33.3292 25.701 33.1108 25.5623 32.8477L24.6627 33.2737C24.8834 33.6924 25.2039 34.0387 25.5831 34.2951L26.1436 33.4923Z" fill="#616161"/>
<path d="M31.1372 36.3588C31.4605 36.7998 31.7496 37.2698 31.9995 37.7667L31.5453 37.9711C31.6615 38.2021 31.7688 38.4394 31.8667 38.6826C31.9646 38.9258 32.0512 39.1704 32.1268 39.4157L32.6122 39.2889C32.7747 39.8167 32.8888 40.3483 32.9567 40.8793L32.4535 40.9241C32.519 41.4368 32.5392 41.9491 32.516 42.4566L33.0226 42.4947C32.9981 43.0335 32.9272 43.5668 32.8123 44.0898L32.3162 43.9718C32.2071 44.4687 32.0561 44.9563 31.8654 45.4298L32.3385 45.6224C32.1394 46.1168 31.8992 46.5962 31.6203 47.0559L31.1812 46.7953C30.9181 47.2289 30.6187 47.6442 30.2851 48.0369L30.6805 48.358C30.3358 48.7637 29.9565 49.1461 29.5445 49.5008L29.2012 49.1273C28.8155 49.4594 28.3998 49.7662 27.956 50.0437L28.2403 50.4607C27.787 50.7441 27.3058 50.9982 26.7986 51.2192L26.5785 50.7684C26.3413 50.8717 26.098 50.9675 25.849 51.0553C25.5999 51.143 25.3495 51.2212 25.0984 51.2899L25.2508 51.7646C24.7139 51.9116 24.1731 52.0176 23.6325 52.0844L23.5522 51.5955C23.023 51.6609 22.4943 51.6869 21.9703 51.6754L21.9756 52.168C21.4159 52.1556 20.8612 52.1024 20.3162 52.0103L20.3869 51.5249C19.8594 51.4357 19.3415 51.3083 18.8381 51.1448L18.6918 51.6117C18.1581 51.4384 17.6396 51.2263 17.1414 50.9777L17.3611 50.5409C16.884 50.3027 16.4268 50.0295 15.9944 49.7233L15.7048 50.1182C15.2497 49.7961 14.8205 49.439 14.4221 49.0493L14.7761 48.708C14.4009 48.3408 14.0548 47.9434 13.7426 47.5175L13.3328 47.7946C13.0094 47.3535 12.7204 46.8836 12.4704 46.3866L12.9247 46.1822C12.8085 45.9512 12.7012 45.714 12.6033 45.4708C12.5054 45.2275 12.4188 44.983 12.3432 44.7377L11.8577 44.8644C11.6952 44.3367 11.5811 43.8051 11.5133 43.274L12.0165 43.2293C11.951 42.7166 11.9308 42.2042 11.954 41.6967L11.4473 41.6586C11.4719 41.1199 11.5428 40.5866 11.6577 40.0636L12.1538 40.1816C12.2629 39.6846 12.4139 39.1971 12.6046 38.7236L12.1315 38.531C12.3306 38.0366 12.5708 37.5572 12.8497 37.0975L13.2888 37.3581C13.5519 36.9245 13.8513 36.5092 14.1849 36.1165L13.7895 35.7954C14.1342 35.3897 14.5135 35.0073 14.9254 34.6526L15.2688 35.0261C15.6545 34.694 16.0701 34.3872 16.514 34.1097L16.2297 33.6927C16.683 33.4093 17.1642 33.1551 17.6714 32.9342L17.8915 33.385C18.1287 33.2817 18.3719 33.1859 18.621 33.0981C18.8701 33.0103 19.1204 32.9322 19.3716 32.8634L19.2191 32.3888C19.7561 32.2418 20.2969 32.1357 20.8374 32.069L20.9178 32.5578C21.447 32.4924 21.9757 32.4664 22.4997 32.478L22.4944 31.9854C23.0541 31.9977 23.6088 32.051 24.1538 32.1431L24.0831 32.6285C24.6106 32.7177 25.1285 32.8451 25.6319 33.0085L25.7782 32.5417C26.3119 32.715 26.8304 32.927 27.3286 33.1757L27.1088 33.6125C27.586 33.8506 28.0432 34.1239 28.4756 34.43L28.7652 34.0351C29.2203 34.3573 29.6495 34.7143 30.0478 35.1041L29.6939 35.4454C30.0691 35.8125 30.4152 36.21 30.7274 36.6358L31.1372 36.3588Z" fill="white" stroke="#616161" stroke-dasharray="1.5 1.5"/>
</g>
<defs>
<linearGradient id="paint0_linear_1706_16574" x1="32.4039" y1="43.9348" x2="34.545" y2="54.6082" gradientUnits="userSpaceOnUse">
<stop stop-color="#FF8120"/>
<stop offset="1" stop-color="#E54304"/>
</linearGradient>
<clipPath id="clip0_1706_16574">
<rect width="58" height="58" fill="white"/>
</clipPath>
</defs>
</svg>
