<svg width="58" height="58" viewBox="0 0 58 58" fill="none" xmlns="http://www.w3.org/2000/svg">
<g clip-path="url(#clip0_1706_16148)">
<path d="M4.20381 31.3678L4.58662 31.0462L4.57316 31.0302L4.55841 31.0153L4.20381 31.3678ZM8.51711 24.4476L8.22073 24.0449L8.51711 24.4476ZM8.7834 31.6501L9.08674 32.0476L8.7834 31.6501ZM17.0729 25.3241L17.4377 24.9822L17.1287 24.6525L16.7695 24.9266L17.0729 25.3241ZM24.6996 33.462L24.3348 33.8039L24.4829 33.962H24.6996V33.462ZM24.8303 26.1379L24.4684 26.4829L24.6161 26.6379H24.8303V26.1379ZM17.0729 18L17.4348 17.655L17.1273 17.3324L16.7716 17.6009L17.0729 18ZM9.38118 23.8065L9.68243 24.2056L9.38118 23.8065ZM4.55841 31.0153C4.32993 30.7855 4.19737 30.5647 4.12805 30.3569L3.17941 30.6732C3.30477 31.0491 3.52944 31.3987 3.84921 31.7203L4.55841 31.0153ZM4.1021 29.6149C4.2057 29.1518 4.51279 28.6332 4.99674 28.0718L4.23933 27.4189C3.71024 28.0326 3.28202 28.7002 3.12622 29.3966L4.1021 29.6149ZM5.67127 27.3676C6.13001 26.9289 6.65073 26.4941 7.19032 26.0711L6.57328 25.2841C6.01982 25.7181 5.47136 26.1751 4.98016 26.6448L5.67127 27.3676ZM7.99448 25.4565C8.27185 25.2489 8.54646 25.0468 8.8135 24.8502L8.22073 24.0449C7.95416 24.2411 7.67637 24.4455 7.39528 24.6559L7.99448 25.4565ZM8.8135 24.8502C8.91107 24.7784 9.00767 24.7073 9.10273 24.6372L8.50902 23.8325C8.41451 23.9022 8.31839 23.973 8.22073 24.0449L8.8135 24.8502ZM9.39249 24.4227C9.4912 24.3493 9.588 24.2768 9.68243 24.2056L9.07992 23.4074C8.98785 23.477 8.89301 23.5479 8.79572 23.6202L9.39249 24.4227ZM9.68243 24.2056L10.5371 23.5604L9.93456 22.7623L9.07992 23.4074L9.68243 24.2056ZM11.3917 22.9152L13.101 21.6249L12.4985 20.8268L10.7892 22.1171L11.3917 22.9152ZM13.9556 20.9797L15.6648 19.6894L15.0623 18.8913L13.3531 20.1816L13.9556 20.9797ZM16.5195 19.0442L17.3741 18.3991L16.7716 17.6009L15.917 18.2461L16.5195 19.0442ZM16.7109 18.345L17.3574 19.0232L18.0812 18.3332L17.4348 17.655L16.7109 18.345ZM18.0039 19.7013L19.2968 21.0576L20.0206 20.3676L18.7277 19.0113L18.0039 19.7013ZM19.9432 21.7358L21.2361 23.0921L21.9599 22.4021L20.667 21.0458L19.9432 21.7358ZM21.8826 23.7703L23.1755 25.1266L23.8993 24.4366L22.6064 23.0803L21.8826 23.7703ZM23.8219 25.8047L24.4684 26.4829L25.1922 25.7929L24.5458 25.1148L23.8219 25.8047ZM24.8303 26.6379H25.8407V25.6379H24.8303V26.6379ZM26.8511 26.6379H28.8718V25.6379H26.8511V26.6379ZM29.8822 26.6379H31.9029V25.6379H29.8822V26.6379ZM32.9133 26.6379H34.9341V25.6379H32.9133V26.6379ZM35.9444 26.6379H37.9652V25.6379H35.9444V26.6379ZM38.9756 26.6379H40.9963V25.6379H38.9756V26.6379ZM42.0067 26.6379H43.0171V25.6379H42.0067V26.6379ZM43.0171 26.6379C43.2043 26.6379 43.3886 26.6835 43.5679 26.774L44.0185 25.8813C43.7102 25.7257 43.3725 25.6379 43.0171 25.6379V26.6379ZM44.0641 27.1571C44.3387 27.4512 44.5761 27.8631 44.7368 28.3643L45.6891 28.0589C45.4914 27.4425 45.187 26.8946 44.7952 26.4748L44.0641 27.1571ZM44.9 29.0698C44.9349 29.3039 44.9534 29.5483 44.9534 29.8H45.9534C45.9534 29.4993 45.9313 29.2057 45.8891 28.9224L44.9 29.0698ZM44.9534 29.8C44.9534 30.0516 44.9349 30.296 44.9 30.5301L45.8891 30.6775C45.9313 30.3942 45.9534 30.1006 45.9534 29.8H44.9534ZM44.7368 31.2356C44.5761 31.7368 44.3387 32.1487 44.0641 32.4428L44.7952 33.1252C45.187 32.7054 45.4914 32.1574 45.6891 31.541L44.7368 31.2356ZM43.5679 32.8259C43.3886 32.9164 43.2043 32.962 43.0171 32.962V33.962C43.3725 33.962 43.7102 33.8742 44.0185 33.7186L43.5679 32.8259ZM43.0171 32.962H41.9994V33.962H43.0171V32.962ZM40.9818 32.962H38.9465V33.962H40.9818V32.962ZM37.9289 32.962H35.8936V33.962H37.9289V32.962ZM34.876 32.962H32.8407V33.962H34.876V32.962ZM31.8231 32.962H29.7878V33.962H31.8231V32.962ZM28.7701 32.962H26.7349V33.962H28.7701V32.962ZM25.7172 32.962H24.6996V33.962H25.7172V32.962ZM25.0644 33.1201L24.4288 32.4419L23.6992 33.1258L24.3348 33.8039L25.0644 33.1201ZM23.7933 31.7638L22.5222 30.4075L21.7925 31.0913L23.0636 32.4476L23.7933 31.7638ZM21.8866 29.7293L20.6155 28.373L19.8858 29.0568L21.157 30.4131L21.8866 29.7293ZM19.9799 27.6948L18.7088 26.3385L17.9792 27.0223L19.2503 28.3787L19.9799 27.6948ZM18.0732 25.6604L17.4377 24.9822L16.708 25.666L17.3436 26.3442L18.0732 25.6604ZM16.7695 24.9266L15.8485 25.6295L16.4551 26.4245L17.3762 25.7216L16.7695 24.9266ZM14.9274 26.3324L13.0853 27.7382L13.692 28.5332L15.5341 27.1274L14.9274 26.3324ZM12.1643 28.4411L10.3222 29.8469L10.9288 30.6418L12.7709 29.236L12.1643 28.4411ZM9.40112 30.5498L8.48007 31.2527L9.08674 32.0476L10.0078 31.3447L9.40112 30.5498ZM8.48007 31.2527C8.35278 31.3498 8.14297 31.4678 7.86865 31.5741L8.22998 32.5065C8.56602 32.3763 8.86514 32.2167 9.08674 32.0476L8.48007 31.2527ZM7.15516 31.7775C6.68446 31.867 6.18224 31.877 5.72035 31.7564L5.46766 32.7239C6.10794 32.8911 6.76551 32.8695 7.34193 32.7599L7.15516 31.7775ZM5.09489 31.4901C4.91368 31.3769 4.74232 31.2315 4.58662 31.0462L3.82099 31.6895C4.04479 31.9558 4.29595 32.1701 4.56508 32.3382L5.09489 31.4901ZM50.5028 32.9647C50.2121 32.9647 49.9312 32.9256 49.6644 32.8527L49.4006 33.8172C49.7525 33.9135 50.1221 33.9647 50.5028 33.9647V32.9647ZM48.8861 32.5225C48.3985 32.2339 47.9912 31.8181 47.709 31.3192L46.8386 31.8115C47.2062 32.4614 47.7375 33.0047 48.3767 33.3831L48.8861 32.5225ZM47.3898 30.5316C47.3195 30.2627 47.2819 29.9796 47.2819 29.6868H46.2819C46.2819 30.0656 46.3306 30.4336 46.4223 30.7844L47.3898 30.5316ZM47.2819 29.6868C47.2819 29.394 47.3195 29.1108 47.3898 28.8418L46.4223 28.589C46.3306 28.9399 46.2819 29.308 46.2819 29.6868H47.2819ZM47.709 28.054C47.9912 27.5548 48.3985 27.1388 48.8861 26.8499L48.3764 25.9896C47.7372 26.3682 47.206 26.9117 46.8385 27.5618L47.709 28.054ZM49.6644 26.5195C49.9312 26.4465 50.2121 26.4074 50.5028 26.4074V25.4074C50.122 25.4074 49.7523 25.4586 49.4003 25.555L49.6644 26.5195ZM50.5028 26.4074C50.7936 26.4074 51.0747 26.4464 51.3416 26.5194L51.6054 25.5549C51.2534 25.4586 50.8836 25.4074 50.5028 25.4074V26.4074ZM52.1202 26.8497C52.6081 27.1385 53.0156 27.5545 53.2979 28.0537L54.1683 27.5614C53.8006 26.9112 53.2691 26.3678 52.6296 25.9892L52.1202 26.8497ZM53.6173 28.8416C53.6876 29.1107 53.7252 29.3939 53.7252 29.6868H54.7252C54.7252 29.3079 54.6765 28.9398 54.5848 28.5887L53.6173 28.8416ZM53.7252 29.6868C53.7252 29.9797 53.6876 30.2628 53.6173 30.5318L54.5848 30.7847C54.6765 30.4337 54.7252 30.0656 54.7252 29.6868H53.7252ZM53.2979 31.3195C53.0156 31.8184 52.6081 32.2341 52.1202 32.5228L52.6293 33.3835C53.2689 33.0051 53.8005 32.4619 54.1682 31.8119L53.2979 31.3195ZM51.3415 32.8527C51.0747 32.9256 50.7936 32.9647 50.5028 32.9647V33.9647C50.8835 33.9647 51.2532 33.9135 51.6051 33.8174L51.3415 32.8527Z" fill="#616161"/>
<path fill-rule="evenodd" clip-rule="evenodd" d="M1.83927 40.5555C0.647709 40.5555 0 39.7974 0 38.6881C0 37.6149 0.710327 36.8191 1.83927 36.8191H56.1607C57.2371 36.8191 58 37.6012 58 38.6881C58 39.6319 57.3265 40.5555 56.1607 40.5555H1.83927Z" stroke="#616161" stroke-dasharray="2 1"/>
<path fill-rule="evenodd" clip-rule="evenodd" d="M22.5964 34.104C22.9107 34.4191 22.6875 34.9571 22.2424 34.9571H4.98888C4.65416 34.9571 4.38281 34.6857 4.38281 34.351C4.38281 34.0163 4.65416 33.745 4.98888 33.745H7.14764C7.33835 33.745 7.52856 33.7252 7.71521 33.6861L7.92664 33.6417C8.4839 33.5248 9.00978 33.2903 9.46913 32.9539L9.958 32.5958L15.6853 28.3807C16.0837 28.0874 16.6367 28.1296 16.986 28.4798L22.5964 34.104Z" fill="url(#paint0_linear_1706_16148)"/>
</g>
<defs>
<linearGradient id="paint0_linear_1706_16148" x1="9.74472" y1="29.1255" x2="11.4883" y2="35.9576" gradientUnits="userSpaceOnUse">
<stop stop-color="#FF8120"/>
<stop offset="1" stop-color="#E54304"/>
</linearGradient>
<clipPath id="clip0_1706_16148">
<rect width="58" height="58" fill="white"/>
</clipPath>
</defs>
</svg>
