<svg width="58" height="58" viewBox="0 0 58 58" fill="none" xmlns="http://www.w3.org/2000/svg">
<g clip-path="url(#clip0_1706_15325)">
<mask id="path-1-outside-1_1706_15325" maskUnits="userSpaceOnUse" x="7" y="23.5063" width="29" height="35" fill="black">
<rect fill="white" x="7" y="23.5063" width="29" height="35"/>
<path fill-rule="evenodd" clip-rule="evenodd" d="M27.133 27.8095H18.4541L17.7885 31.4997H27.7987L27.133 27.8095ZM30.1111 25.6588C29.8968 24.9901 29.2633 24.5063 28.5158 24.5063H17.0717C16.3236 24.5063 15.6913 24.9892 15.4768 25.657C15.4361 25.7583 15.405 25.8651 15.3847 25.9765L11.0316 50.1158C9.28777 50.5652 8 52.1313 8 53.9932C8 56.2053 9.81805 58.0001 12.0589 58.0001C14.3013 58.0001 16.1179 56.2053 16.1179 53.9932C16.1179 52.6111 15.4089 51.392 14.33 50.6717L17.1926 34.8028H28.3945L32.1518 55.6329C32.3136 56.531 33.1822 57.1308 34.092 56.9696C35.0017 56.8098 35.6093 55.9524 35.446 55.0542L30.2025 25.9765C30.1823 25.8658 30.1515 25.7596 30.1111 25.6588ZM12.0587 56.4239C13.4188 56.4239 14.5209 55.3359 14.5209 53.9932C14.5209 52.6505 13.4188 51.5625 12.0587 51.5625C10.6986 51.5625 9.59644 52.6505 9.59644 53.9932C9.59644 55.3359 10.6986 56.4239 12.0587 56.4239Z"/>
</mask>
<path fill-rule="evenodd" clip-rule="evenodd" d="M27.133 27.8095H18.4541L17.7885 31.4997H27.7987L27.133 27.8095ZM30.1111 25.6588C29.8968 24.9901 29.2633 24.5063 28.5158 24.5063H17.0717C16.3236 24.5063 15.6913 24.9892 15.4768 25.657C15.4361 25.7583 15.405 25.8651 15.3847 25.9765L11.0316 50.1158C9.28777 50.5652 8 52.1313 8 53.9932C8 56.2053 9.81805 58.0001 12.0589 58.0001C14.3013 58.0001 16.1179 56.2053 16.1179 53.9932C16.1179 52.6111 15.4089 51.392 14.33 50.6717L17.1926 34.8028H28.3945L32.1518 55.6329C32.3136 56.531 33.1822 57.1308 34.092 56.9696C35.0017 56.8098 35.6093 55.9524 35.446 55.0542L30.2025 25.9765C30.1823 25.8658 30.1515 25.7596 30.1111 25.6588ZM12.0587 56.4239C13.4188 56.4239 14.5209 55.3359 14.5209 53.9932C14.5209 52.6505 13.4188 51.5625 12.0587 51.5625C10.6986 51.5625 9.59644 52.6505 9.59644 53.9932C9.59644 55.3359 10.6986 56.4239 12.0587 56.4239Z" fill="url(#paint0_linear_1706_15325)"/>
<path d="M18.4541 27.8095V27.3095H18.0363L17.9621 27.7208L18.4541 27.8095ZM27.133 27.8095L27.6251 27.7208L27.5509 27.3095H27.133V27.8095ZM17.7885 31.4997L17.2964 31.4109L17.1902 31.9997H17.7885V31.4997ZM27.7987 31.4997V31.9997H28.3969L28.2907 31.4109L27.7987 31.4997ZM30.1111 25.6588L29.635 25.8114L29.6404 25.8282L29.6469 25.8446L30.1111 25.6588ZM15.4768 25.657L15.9408 25.8433L15.9474 25.8268L15.9528 25.8099L15.4768 25.657ZM15.3847 25.9765L14.8928 25.8871L14.8927 25.8878L15.3847 25.9765ZM11.0316 50.1158L11.1563 50.6L11.4667 50.52L11.5236 50.2045L11.0316 50.1158ZM14.33 50.6717L13.838 50.5829L13.7798 50.9055L14.0524 51.0875L14.33 50.6717ZM17.1926 34.8028V34.3028H16.7747L16.7006 34.7141L17.1926 34.8028ZM28.3945 34.8028L28.8865 34.7141L28.8124 34.3028H28.3945V34.8028ZM32.1518 55.6329L32.6439 55.5443L32.6439 55.5442L32.1518 55.6329ZM34.092 56.9696L34.0055 56.4771L34.0047 56.4772L34.092 56.9696ZM35.446 55.0542L34.9539 55.143L34.954 55.1437L35.446 55.0542ZM30.2025 25.9765L30.6945 25.8878L30.6944 25.8871L30.2025 25.9765ZM18.4541 28.3095H27.133V27.3095H18.4541V28.3095ZM18.2805 31.5884L18.9462 27.8983L17.9621 27.7208L17.2964 31.4109L18.2805 31.5884ZM27.7987 30.9997H17.7885V31.9997H27.7987V30.9997ZM26.641 27.8983L27.3066 31.5884L28.2907 31.4109L27.6251 27.7208L26.641 27.8983ZM28.5158 25.0063C29.0435 25.0063 29.4863 25.3474 29.635 25.8114L30.5873 25.5062C30.3074 24.6328 29.4831 24.0063 28.5158 24.0063V25.0063ZM17.0717 25.0063H28.5158V24.0063H17.0717V25.0063ZM15.9528 25.8099C16.1017 25.3467 16.5432 25.0063 17.0717 25.0063V24.0063C16.104 24.0063 15.281 24.6317 15.0008 25.504L15.9528 25.8099ZM15.8767 26.066C15.8908 25.988 15.9125 25.9136 15.9408 25.8433L15.0128 25.4706C14.9596 25.603 14.9191 25.7423 14.8928 25.8871L15.8767 26.066ZM11.5236 50.2045L15.8768 26.0653L14.8927 25.8878L10.5395 50.0271L11.5236 50.2045ZM8.5 53.9932C8.5 52.369 9.62398 50.9949 11.1563 50.6L10.9068 49.6316C8.95156 50.1355 7.5 51.8937 7.5 53.9932H8.5ZM12.0589 57.5001C10.0881 57.5001 8.5 55.9231 8.5 53.9932H7.5C7.5 56.4875 9.548 58.5001 12.0589 58.5001V57.5001ZM15.6179 53.9932C15.6179 55.9232 14.0312 57.5001 12.0589 57.5001V58.5001C14.5715 58.5001 16.6179 56.4874 16.6179 53.9932H15.6179ZM14.0524 51.0875C14.9998 51.7201 15.6179 52.7869 15.6179 53.9932H16.6179C16.6179 52.4353 15.818 51.064 14.6077 50.2558L14.0524 51.0875ZM16.7006 34.7141L13.838 50.5829L14.8221 50.7604L17.6847 34.8916L16.7006 34.7141ZM28.3945 34.3028H17.1926V35.3028H28.3945V34.3028ZM32.6439 55.5442L28.8865 34.7141L27.9024 34.8916L31.6597 55.7217L32.6439 55.5442ZM34.0047 56.4772C33.3617 56.5912 32.756 56.1666 32.6439 55.5443L31.6597 55.7216C31.8712 56.8955 33.0027 57.6704 34.1792 57.4619L34.0047 56.4772ZM34.954 55.1437C35.0665 55.7624 34.6488 56.3641 34.0055 56.4771L34.1784 57.462C35.3547 57.2555 36.1521 56.1424 35.9379 54.9648L34.954 55.1437ZM29.7104 26.0653L34.9539 55.143L35.938 54.9655L30.6945 25.8878L29.7104 26.0653ZM29.6469 25.8446C29.6749 25.9145 29.6964 25.9884 29.7105 26.066L30.6944 25.8871C30.6682 25.7432 30.628 25.6047 30.5753 25.473L29.6469 25.8446ZM14.0209 53.9932C14.0209 55.0537 13.1487 55.9239 12.0587 55.9239V56.9239C13.6888 56.9239 15.0209 55.6181 15.0209 53.9932H14.0209ZM12.0587 52.0625C13.1487 52.0625 14.0209 52.9327 14.0209 53.9932H15.0209C15.0209 52.3683 13.6888 51.0625 12.0587 51.0625V52.0625ZM10.0964 53.9932C10.0964 52.9327 10.9686 52.0625 12.0587 52.0625V51.0625C10.4285 51.0625 9.09644 52.3683 9.09644 53.9932H10.0964ZM12.0587 55.9239C10.9686 55.9239 10.0964 55.0537 10.0964 53.9932H9.09644C9.09644 55.6181 10.4285 56.9239 12.0587 56.9239V55.9239Z" fill="#FF8120" mask="url(#path-1-outside-1_1706_15325)"/>
<path d="M32.722 40.6976L32.299 40.4311L32.222 40.5532V40.6976H32.722ZM32.7714 40.6163L33.203 40.8687L33.203 40.8687L32.7714 40.6163ZM38.1981 31.3381L38.6297 31.5905L38.6298 31.5903L38.1981 31.3381ZM38.3801 30.968L38.0084 30.6335L37.9496 30.6989L37.9166 30.7804L38.3801 30.968ZM39.1285 26.0746L39.5827 25.8655L39.5826 25.8655L39.1285 26.0746ZM32.7157 12.1476L32.2615 12.3566L32.2615 12.3567L32.7157 12.1476ZM26.6296 9.8947L26.4249 9.43851L26.6296 9.8947ZM24.2959 12.2636L24.7174 12.5325L24.7396 12.4977L24.7558 12.4597L24.2959 12.2636ZM19.7021 19.4659V19.9659H19.9762L20.1236 19.7347L19.7021 19.4659ZM21.6109 22.2674L21.3211 21.8599L21.3007 21.8744L21.2819 21.8909L21.6109 22.2674ZM22.035 21.821L22.4566 22.0899L22.4566 22.0899L22.035 21.821ZM24.9605 17.2343L25.4147 17.0252L25.0316 16.1931L24.539 16.9654L24.9605 17.2343ZM31.1999 30.7853L31.6541 30.5762L31.6541 30.5762L31.1999 30.7853ZM31.5239 31.3462L31.9556 31.5986L32.1184 31.3201L31.9318 31.057L31.5239 31.3462ZM27.7706 37.7652L28.2021 38.0178L28.2023 38.0175L27.7706 37.7652ZM27.402 38.8594L27.8867 38.9823L27.8947 38.9506L27.8986 38.9181L27.402 38.8594ZM28.3309 4.64888C28.3309 4.18511 28.2688 3.73495 28.152 3.30644L27.1872 3.56934C27.2808 3.91301 27.3309 4.27479 27.3309 4.64888H28.3309ZM27.6248 2.05871C27.1647 1.27865 26.5037 0.629854 25.7122 0.180734L25.2187 1.05046C25.859 1.41382 26.3928 1.93832 26.7635 2.56675L27.6248 2.05871ZM24.4605 -0.328292C24.0327 -0.440411 23.5839 -0.5 23.1217 -0.5V0.5C23.4976 0.5 23.8613 0.548436 24.2069 0.639032L24.4605 -0.328292ZM23.1217 -0.5C22.6595 -0.5 22.2106 -0.440405 21.7828 -0.328279L22.0363 0.639052C22.382 0.548441 22.7457 0.5 23.1217 0.5V-0.5ZM20.5309 0.180688C19.7393 0.629741 19.078 1.27844 18.6176 2.0584L19.4788 2.56669C19.8497 1.93832 20.3838 1.41384 21.0243 1.05049L20.5309 0.180688ZM18.09 3.3062C17.9732 3.73478 17.911 4.18502 17.911 4.64888H18.911C18.911 4.27478 18.9611 3.91298 19.0548 3.56929L18.09 3.3062ZM17.911 4.64888C17.911 5.11273 17.9732 5.56298 18.09 5.99156L19.0548 5.72847C18.9611 5.38477 18.911 5.02298 18.911 4.64888H17.911ZM18.6176 7.23935C19.078 8.01932 19.7393 8.66801 20.5309 9.11707L21.0243 8.24727C20.3838 7.88391 19.8497 7.35943 19.4788 6.73106L18.6176 7.23935ZM21.7828 9.62603C22.2106 9.73816 22.6595 9.79776 23.1217 9.79776V8.79776C22.7457 8.79776 22.382 8.74931 22.0363 8.6587L21.7828 9.62603ZM23.1217 9.79776C23.5839 9.79776 24.0327 9.73817 24.4605 9.62605L24.2069 8.65872C23.8613 8.74932 23.4976 8.79776 23.1217 8.79776V9.79776ZM25.7122 9.11702C26.5037 8.6679 27.1647 8.0191 27.6248 7.23905L26.7635 6.73101C26.3928 7.35943 25.859 7.88393 25.2187 8.24729L25.7122 9.11702ZM28.152 5.99132C28.2688 5.56281 28.3309 5.11264 28.3309 4.64888H27.3309C27.3309 5.02296 27.2808 5.38474 27.1872 5.72842L28.152 5.99132ZM30.0217 55.4767C29.6209 55.4767 29.2468 55.3717 28.9245 55.1888L28.431 56.0585C28.9002 56.3248 29.4439 56.4767 30.0217 56.4767V55.4767ZM28.1171 54.3965C27.929 54.0775 27.8213 53.7072 27.8213 53.3109H26.8213C26.8213 53.8913 26.9796 54.4363 27.2558 54.9045L28.1171 54.3965ZM27.8213 53.3109V52.3908H26.8213V53.3109H27.8213ZM27.8213 51.4707V49.6304H26.8213V51.4707H27.8213ZM27.8213 48.7103V46.87H26.8213V48.7103H27.8213ZM27.8213 45.9499V44.1096H26.8213V45.9499H27.8213ZM27.8213 43.1895V41.3492H26.8213V43.1895H27.8213ZM27.8213 40.4291V39.509H26.8213V40.4291H27.8213ZM27.8213 39.509C27.8213 39.4491 27.8238 39.3899 27.8286 39.3314L26.8319 39.2495C26.8249 39.3352 26.8213 39.4217 26.8213 39.509H27.8213ZM27.8504 39.1555C27.8601 39.0969 27.8723 39.0392 27.8867 38.9823L26.9174 38.7364C26.8962 38.8201 26.8783 38.9051 26.864 38.9913L27.8504 39.1555ZM27.8986 38.9181C27.911 38.8135 27.9306 38.7091 27.9577 38.6056L26.9904 38.352C26.9515 38.5005 26.9233 38.6504 26.9055 38.8006L27.8986 38.9181ZM28.0596 38.3039C28.0998 38.207 28.1473 38.1115 28.2021 38.0178L27.3391 37.5126C27.2615 37.6453 27.1939 37.7813 27.1363 37.9198L28.0596 38.3039ZM28.2023 38.0175L28.8278 36.9477L27.9646 36.443L27.339 37.5128L28.2023 38.0175ZM29.4534 35.8779L30.7045 33.7382L29.8412 33.2335L28.5901 35.3731L29.4534 35.8779ZM31.33 32.6684L31.9556 31.5986L31.0923 31.0938L30.4668 32.1637L31.33 32.6684ZM31.9318 31.057C31.8264 30.9084 31.7331 30.7479 31.6541 30.5762L30.7457 30.9944C30.8508 31.2227 30.9752 31.4367 31.1161 31.6355L31.9318 31.057ZM31.6541 30.5762L31.2381 29.6728L30.3298 30.091L30.7457 30.9944L31.6541 30.5762ZM30.8221 28.7694L29.9902 26.9626L29.0819 27.3808L29.9138 29.1876L30.8221 28.7694ZM29.5743 26.0592L28.7424 24.2524L27.834 24.6706L28.6659 26.4774L29.5743 26.0592ZM28.3264 23.349L27.4945 21.5422L26.5862 21.9604L27.4181 23.7672L28.3264 23.349ZM27.0785 20.6388L26.2466 18.832L25.3383 19.2502L26.1702 21.057L27.0785 20.6388ZM25.8307 17.9286L25.4147 17.0252L24.5064 17.4434L24.9223 18.3468L25.8307 17.9286ZM24.539 16.9654L24.0514 17.7299L24.8945 18.2676L25.3821 17.5032L24.539 16.9654ZM23.5638 18.4943L22.5887 20.0232L23.4318 20.561L24.4069 19.0321L23.5638 18.4943ZM22.1011 20.7877L21.6135 21.5521L22.4566 22.0899L22.9442 21.3254L22.1011 20.7877ZM21.6135 21.5521C21.5875 21.5929 21.5593 21.6313 21.5293 21.6673L22.2971 22.3079C22.3543 22.2394 22.4076 22.1667 22.4566 22.0899L21.6135 21.5521ZM21.4315 21.7703C21.3965 21.8027 21.3596 21.8326 21.3211 21.8599L21.9007 22.6748C21.9738 22.6228 22.044 22.5659 22.1107 22.5041L21.4315 21.7703ZM21.2819 21.8909C21.2142 21.9501 21.1393 22.0013 21.0586 22.0431L21.5186 22.931C21.6709 22.8521 21.8123 22.7554 21.94 22.6438L21.2819 21.8909ZM20.8056 22.1376C20.7197 22.1584 20.6293 22.1696 20.5357 22.1696V23.1696C20.7091 23.1696 20.8783 23.1489 21.0407 23.1096L20.8056 22.1376ZM20.5357 22.1696H19.4868V23.1696H20.5357V22.1696ZM18.438 22.1696H16.3402V23.1696H18.438V22.1696ZM15.2914 22.1696H13.1936V23.1696H15.2914V22.1696ZM12.1448 22.1696H11.0959V23.1696H12.1448V22.1696ZM11.0959 22.1696C10.8905 22.1696 10.6995 22.1158 10.5352 22.0226L10.0416 22.8922C10.3529 23.0689 10.7134 23.1696 11.0959 23.1696V22.1696ZM10.1234 21.6186C10.0278 21.4566 9.97325 21.269 9.97325 21.0677H8.97325C8.97325 21.4532 9.07854 21.8156 9.26209 22.1267L10.1234 21.6186ZM9.97325 21.0677C9.97325 20.8664 10.0278 20.6788 10.1234 20.5169L9.26209 20.0087C9.07854 20.3199 8.97325 20.6822 8.97325 21.0677H9.97325ZM10.5352 20.1129C10.6995 20.0196 10.8905 19.9659 11.0959 19.9659V18.9659C10.7134 18.9659 10.3529 19.0665 10.0416 19.2432L10.5352 20.1129ZM11.0959 19.9659H12.0521V18.9659H11.0959V19.9659ZM13.0084 19.9659H14.9209V18.9659H13.0084V19.9659ZM15.8771 19.9659H17.7896V18.9659H15.8771V19.9659ZM18.7458 19.9659H19.7021V18.9659H18.7458V19.9659ZM20.1236 19.7347L20.634 18.9345L19.7909 18.3967L19.2805 19.197L20.1236 19.7347ZM21.1445 18.1342L22.1653 16.5337L21.3222 15.996L20.3014 17.5965L21.1445 18.1342ZM22.6757 15.7335L23.6966 14.133L22.8535 13.5952L21.8326 15.1957L22.6757 15.7335ZM24.207 13.3327L24.7174 12.5325L23.8743 11.9947L23.3639 12.795L24.207 13.3327ZM24.7558 12.4597C24.8873 12.1514 25.0574 11.8589 25.2633 11.5899L24.4692 10.9821C24.2123 11.3178 24 11.6828 23.8359 12.0675L24.7558 12.4597ZM25.9703 10.873C26.229 10.6692 26.5177 10.4929 26.8342 10.3509L26.4249 9.43851C26.0332 9.61422 25.6742 9.83324 25.3515 10.0875L25.9703 10.873ZM26.8342 10.3509C27.1684 10.201 27.5117 10.0992 27.8563 10.0421L27.6931 9.05555C27.2645 9.12645 26.8384 9.25301 26.4249 9.43851L26.8342 10.3509ZM28.9226 10.0057C29.6378 10.0739 30.3246 10.3269 30.9094 10.7367L31.4833 9.91784C30.7562 9.40826 29.9042 9.09481 29.0176 9.01018L28.9226 10.0057ZM31.6934 11.4566C31.9168 11.7242 32.1089 12.0251 32.2615 12.3566L33.1699 11.9385C32.9799 11.5258 32.7403 11.1502 32.461 10.8157L31.6934 11.4566ZM32.2615 12.3567L32.689 13.2852L33.5974 12.8669L33.1699 11.9384L32.2615 12.3567ZM33.1166 14.2136L33.9716 16.0706L34.8799 15.6523L34.0249 13.7954L33.1166 14.2136ZM34.3991 16.999L35.2541 18.856L36.1625 18.4377L35.3074 16.5808L34.3991 16.999ZM35.6817 19.7844L36.5367 21.6414L37.445 21.2231L36.59 19.3662L35.6817 19.7844ZM36.9642 22.5699L37.8193 24.4268L38.7276 24.0085L37.8726 22.1516L36.9642 22.5699ZM38.2468 25.3553L38.6743 26.2837L39.5826 25.8655L39.1551 24.937L38.2468 25.3553ZM38.6743 26.2837C38.7851 26.5244 38.8698 26.7696 38.9297 27.0165L39.9015 26.7804C39.8263 26.4712 39.7205 26.1649 39.5827 25.8655L38.6743 26.2837ZM39.038 27.7833C39.0601 28.3053 38.9781 28.8231 38.8026 29.3082L39.743 29.6484C39.962 29.0429 40.0647 28.3954 40.0372 27.7412L39.038 27.7833ZM38.4696 30.0092C38.3371 30.2303 38.1829 30.4395 38.0084 30.6335L38.7518 31.3024C38.9697 31.0602 39.1621 30.7991 39.3273 30.5233L38.4696 30.0092ZM37.9166 30.7804C37.9025 30.8153 37.8875 30.8499 37.8715 30.8844L38.7792 31.304C38.802 31.2549 38.8234 31.2053 38.8436 31.1555L37.9166 30.7804ZM37.8214 30.9863C37.804 31.0197 37.7856 31.0529 37.7664 31.0859L38.6298 31.5903C38.6571 31.5437 38.6831 31.4966 38.7079 31.4491L37.8214 30.9863ZM37.7665 31.0857L37.3143 31.8588L38.1775 32.3637L38.6297 31.5905L37.7665 31.0857ZM36.862 32.632L35.9576 34.1784L36.8208 34.6833L37.7252 33.1369L36.862 32.632ZM35.5054 34.9516L34.6009 36.4979L35.4641 37.0028L36.3686 35.4564L35.5054 34.9516ZM34.1487 37.2711L33.2443 38.8175L34.1075 39.3223L35.0119 37.776L34.1487 37.2711ZM32.792 39.5907L32.3398 40.3638L33.203 40.8687L33.6552 40.0955L32.792 39.5907ZM32.3398 40.3638C32.3265 40.3866 32.3129 40.409 32.299 40.4311L33.145 40.9642C33.1648 40.9327 33.1842 40.9009 33.203 40.8687L32.3398 40.3638ZM32.222 40.6976V41.7487H33.222V40.6976H32.222ZM32.222 42.7998V44.9021H33.222V42.7998H32.222ZM32.222 45.9532V48.0554H33.222V45.9532H32.222ZM32.222 49.1065V51.2087H33.222V49.1065H32.222ZM32.222 52.2598V53.3109H33.222V52.2598H32.222ZM32.222 53.3109C32.222 53.7072 32.1143 54.0775 31.9262 54.3965L32.7875 54.9045C33.0637 54.4363 33.222 53.8913 33.222 53.3109H32.222ZM31.1188 55.1888C30.7965 55.3717 30.4224 55.4767 30.0217 55.4767V56.4767C30.5994 56.4767 31.1431 56.3248 31.6123 56.0585L31.1188 55.1888Z" fill="#616161"/>
</g>
<defs>
<linearGradient id="paint0_linear_1706_15325" x1="15.7266" y1="30.4375" x2="32.6553" y2="50.6619" gradientUnits="userSpaceOnUse">
<stop stop-color="#FF8120"/>
<stop offset="1" stop-color="#E54304"/>
</linearGradient>
<clipPath id="clip0_1706_15325">
<rect width="58" height="58" fill="white"/>
</clipPath>
</defs>
</svg>
