<svg width="58" height="58" viewBox="0 0 58 58" fill="none" xmlns="http://www.w3.org/2000/svg">
<mask id="mask0_1706_16211" style="mask-type:luminance" maskUnits="userSpaceOnUse" x="0" y="12" width="58" height="39">
<rect y="12" width="58" height="38.1143" fill="white"/>
</mask>
<g mask="url(#mask0_1706_16211)">
<path d="M46.1987 32.0295L46.6982 32.0059L46.6977 31.9971L46.1987 32.0295ZM41.1177 8.76303L40.6732 8.99192L40.6733 8.99224L41.1177 8.76303ZM40.4314 32.129L40.9312 32.1412L40.9314 32.1328L40.9314 32.1244L40.4314 32.129ZM38.9349 17.9672L39.4139 17.8237L38.4349 17.9672H38.9349ZM38.9409 35.1821L39.4355 35.1088L39.4355 35.1088L38.9409 35.1821ZM31.6333 39.3069H32.1333V38.8069H31.6333V39.3069ZM29.3628 39.3069V38.8069H28.8628V39.3069H29.3628ZM22.0492 17.9672H22.5492L21.5702 17.8236L22.0492 17.9672ZM20.5527 32.129L20.0527 32.1245L20.0527 32.1327L20.0529 32.1409L20.5527 32.129ZM14.7854 32.0295L14.2863 31.9971L14.2859 32.0059L14.7854 32.0295ZM19.8647 8.76303L20.3091 8.99224L20.3091 8.99214L19.8647 8.76303ZM25.8986 5.71126V5.21125L25.8952 5.21127L25.8986 5.71126ZM35.0855 5.71126L35.0889 5.21126H35.0855V5.71126ZM37.0778 -3.76244C37.0778 -4.15436 37.0445 -4.53879 36.9805 -4.91289L35.9948 -4.74417C36.0494 -4.42558 36.0778 -4.09759 36.0778 -3.76244H37.0778ZM36.6884 -6.03069C36.4262 -6.76787 36.0399 -7.44479 35.5551 -8.03547L34.7821 -7.40105C35.1946 -6.89854 35.5232 -6.32263 35.7463 -5.69554L36.6884 -6.03069ZM34.7471 -8.86234C34.1644 -9.3633 33.494 -9.76379 32.762 -10.0366L32.4128 -9.09951C33.0318 -8.86885 33.6001 -8.52966 34.0952 -8.10403L34.7471 -8.86234ZM31.6444 -10.3423C31.2694 -10.4096 30.8838 -10.4446 30.4906 -10.4446V-9.44458C30.8244 -9.44458 31.1509 -9.41487 31.4679 -9.35803L31.6444 -10.3423ZM30.4906 -10.4446C30.0973 -10.4446 29.7118 -10.4095 29.3368 -10.3423L29.5135 -9.35799C29.8304 -9.41486 30.1569 -9.44458 30.4906 -9.44458V-10.4446ZM28.2194 -10.0363C27.4876 -9.76347 26.8174 -9.36288 26.2349 -8.86183L26.8869 -8.10367C27.3819 -8.52938 27.95 -8.86864 28.5688 -9.09935L28.2194 -10.0363ZM25.4271 -8.03493C24.9426 -7.44429 24.5564 -6.76743 24.2943 -6.03034L25.2365 -5.69526C25.4595 -6.32229 25.788 -6.89816 26.2002 -7.40066L25.4271 -8.03493ZM24.0023 -4.91271C23.9383 -4.53867 23.905 -4.15429 23.905 -3.76244H24.905C24.905 -4.09753 24.9335 -4.42548 24.988 -4.74402L24.0023 -4.91271ZM23.905 -3.76244C23.905 -3.37059 23.9383 -2.98621 24.0023 -2.61217L24.988 -2.78087C24.9335 -3.0994 24.905 -3.42735 24.905 -3.76244H23.905ZM24.2943 -1.49454C24.5564 -0.757451 24.9426 -0.0805922 25.4271 0.510049L26.2002 -0.124226C25.788 -0.626724 25.4595 -1.20259 25.2365 -1.82962L24.2943 -1.49454ZM26.2349 1.33695C26.8174 1.838 27.4876 2.23859 28.2194 2.51145L28.5688 1.57447C27.95 1.34375 27.3819 1.0045 26.8869 0.578788L26.2349 1.33695ZM29.3368 2.81739C29.7118 2.88466 30.0973 2.9197 30.4906 2.9197V1.9197C30.1569 1.9197 29.8304 1.88997 29.5135 1.83311L29.3368 2.81739ZM30.4906 2.9197C30.8838 2.9197 31.2694 2.88469 31.6444 2.81745L31.4679 1.83315C31.1509 1.88999 30.8244 1.9197 30.4906 1.9197V2.9197ZM32.762 2.51168C33.494 2.2389 34.1644 1.83841 34.7471 1.33746L34.0952 0.579151C33.6001 1.00478 33.0318 1.34397 32.4128 1.57462L32.762 2.51168ZM35.5551 0.510583C36.0399 -0.0800915 36.4262 -0.757016 36.6884 -1.49419L35.7463 -1.82935C35.5232 -1.20225 35.1946 -0.626347 34.7821 -0.12383L35.5551 0.510583ZM36.9805 -2.61199C37.0445 -2.98609 37.0778 -3.37053 37.0778 -3.76244H36.0778C36.0778 -3.4273 36.0494 -3.0993 35.9948 -2.78072L36.9805 -2.61199ZM46.6977 31.9971C46.6756 31.6564 46.6528 31.3211 46.6294 30.9909L45.6319 31.0615C45.6552 31.3897 45.6778 31.7231 45.6998 32.0618L46.6977 31.9971ZM46.5553 29.989C46.5022 29.3009 46.4463 28.6362 46.3876 27.9939L45.3917 28.0849C45.45 28.7224 45.5055 29.3824 45.5583 30.066L46.5553 29.989ZM46.2924 26.9946C46.2235 26.3009 46.1514 25.6346 46.0762 24.9941L45.0831 25.1106C45.1575 25.745 45.229 26.4054 45.2973 27.0934L46.2924 26.9946ZM45.9541 23.9961C45.8654 23.3009 45.773 22.6376 45.6772 22.0042L44.6885 22.1537C44.783 22.7791 44.8744 23.4347 44.9622 24.1227L45.9541 23.9961ZM45.5203 21.0106C45.4054 20.3132 45.2861 19.6541 45.1632 19.0299L44.182 19.2231C44.3029 19.8367 44.4203 20.4856 44.5337 21.1733L45.5203 21.0106ZM44.9587 18.0389C44.8076 17.3393 44.6517 16.6865 44.4918 16.0746L43.5243 16.3273C43.6804 16.9248 43.8331 17.5637 43.9813 18.25L44.9587 18.0389ZM44.2234 15.0966C44.0225 14.4 43.8166 13.7601 43.6074 13.1662L42.6642 13.4984C42.8669 14.0739 43.0669 14.6953 43.2625 15.3737L44.2234 15.0966ZM43.2547 12.2136C42.9905 11.5343 42.7232 10.9182 42.4567 10.3444L41.5498 10.7658C41.8085 11.3227 42.0672 11.9191 42.3227 12.5761L43.2547 12.2136ZM42.0175 9.43158C41.8643 9.12292 41.7122 8.82483 41.562 8.53381L40.6733 8.99224C40.8222 9.2808 40.9717 9.57386 41.1217 9.8761L42.0175 9.43158ZM41.5622 8.53413C41.3534 8.12865 41.1044 7.77111 40.8269 7.45652L40.0769 8.11802C40.3017 8.37277 40.5034 8.66224 40.6732 8.99192L41.5622 8.53413ZM39.859 6.59213C39.1182 6.06923 38.302 5.74578 37.555 5.54494L37.2953 6.51064C37.9633 6.69025 38.6631 6.97203 39.2824 7.40912L39.859 6.59213ZM36.3317 5.30133C35.8007 5.22997 35.3608 5.21315 35.0889 5.21127L35.082 6.21125C35.3213 6.2129 35.7179 6.22784 36.1985 6.29242L36.3317 5.30133ZM35.0855 5.21126C35.0929 5.21126 35.0994 5.21147 35.1046 5.21171L35.0566 6.21056C35.0649 6.21096 35.0746 6.21126 35.0855 6.21126V5.21126ZM35.1159 5.21244L35.1168 5.21251L35.0249 6.20827C35.026 6.20838 35.0305 6.2088 35.0355 6.2092L35.1159 5.21244ZM35.1168 5.21251C35.1157 5.2124 35.1112 5.21198 35.1062 5.21158L35.0257 6.20834L35.0249 6.20827L35.1168 5.21251ZM35.0851 5.21021C35.0767 5.20981 35.067 5.20951 35.0562 5.20951V6.20951C35.0487 6.20951 35.0423 6.20931 35.0371 6.20906L35.0851 5.21021ZM35.0562 5.20951H34.0418V6.20951H35.0562V5.20951ZM33.0273 5.20951H30.9984V6.20951H33.0273V5.20951ZM29.984 5.20951H27.9551V6.20951H29.984V5.20951ZM26.9406 5.20951H25.9262V6.20951H26.9406V5.20951ZM25.9262 5.20951C25.9133 5.20951 25.9023 5.20996 25.8941 5.21041L25.949 6.2089C25.944 6.20917 25.9361 6.20951 25.9262 6.20951V5.20951ZM25.8754 5.21171C25.8713 5.21205 25.8676 5.2124 25.8664 5.21251L25.9584 6.20827L25.9586 6.20825L25.8754 5.21171ZM25.8664 5.21251L25.8662 5.21253L25.9494 6.20906C25.9535 6.20872 25.9572 6.20837 25.9584 6.20827L25.8664 5.21251ZM25.8758 5.21187C25.8808 5.2116 25.8887 5.21126 25.8986 5.21126V6.21126C25.9115 6.21126 25.9225 6.21082 25.9307 6.21037L25.8758 5.21187ZM25.8952 5.21127C25.6233 5.21315 25.1833 5.22998 24.6522 5.30136L24.7854 6.29245C25.2661 6.22784 25.6628 6.2129 25.9021 6.21125L25.8952 5.21127ZM23.4287 5.54501C22.6816 5.74588 21.8653 6.06935 21.1243 6.59223L21.7008 7.40931C22.3203 6.97217 23.0203 6.69035 23.6884 6.51072L23.4287 5.54501ZM20.1561 7.45649C19.8785 7.77103 19.6293 8.12851 19.4203 8.53391L20.3091 8.99214C20.4791 8.66245 20.681 8.37299 20.9058 8.11822L20.1561 7.45649ZM19.4203 8.53381C19.2702 8.82483 19.1181 9.12293 18.9649 9.4316L19.8607 9.87608C20.0107 9.57384 20.1602 9.28079 20.3091 8.99224L19.4203 8.53381ZM18.5258 10.3445C18.2593 10.9183 17.9921 11.5344 17.728 12.2137L18.6601 12.5761C18.9155 11.9191 19.174 11.3227 19.4327 10.7658L18.5258 10.3445ZM17.3754 13.1663C17.1662 13.7603 16.9604 14.4001 16.7597 15.0968L17.7206 15.3737C17.9161 14.6954 18.116 14.0739 18.3186 13.4985L17.3754 13.1663ZM16.4913 16.0748C16.3316 16.6867 16.1757 17.3395 16.0247 18.0391L17.0022 18.2501C17.1503 17.5638 17.3029 16.9249 17.4589 16.3274L16.4913 16.0748ZM15.8203 19.0301C15.6975 19.6543 15.5783 20.3134 15.4633 21.0108L16.45 21.1734C16.5634 20.4857 16.6807 19.8368 16.8015 19.2232L15.8203 19.0301ZM15.3065 22.0044C15.2108 22.6378 15.1184 23.301 15.0298 23.9963L16.0217 24.1228C16.1095 23.4348 16.2008 22.7792 16.2953 22.1538L15.3065 22.0044ZM14.9077 24.9942C14.8326 25.6347 14.7605 26.301 14.6916 26.9947L15.6867 27.0934C15.755 26.4054 15.8265 25.745 15.9009 25.1107L14.9077 24.9942ZM14.5965 27.994C14.5378 28.6363 14.4819 29.301 14.4287 29.9891L15.4258 30.066C15.4785 29.3824 15.5341 28.7224 15.5923 28.085L14.5965 27.994ZM14.3547 30.9909C14.3313 31.3211 14.3085 31.6564 14.2864 31.9971L15.2843 32.0618C15.3063 31.7231 15.3289 31.3897 15.3522 31.0615L14.3547 30.9909ZM14.7854 32.0295C14.2859 32.0059 14.2859 32.006 14.2859 32.0061C14.2859 32.0061 14.2859 32.0062 14.2859 32.0063C14.2859 32.0064 14.2859 32.0065 14.2859 32.0066C14.2859 32.0069 14.2859 32.0071 14.2859 32.0074C14.2858 32.008 14.2858 32.0086 14.2858 32.0094C14.2857 32.0109 14.2856 32.0127 14.2856 32.0148C14.2854 32.0191 14.2852 32.0247 14.285 32.0316C14.2847 32.0453 14.2843 32.064 14.2842 32.0874C14.284 32.134 14.2848 32.1992 14.2885 32.2793C14.296 32.4391 14.3153 32.6612 14.3627 32.9159L15.3458 32.7327C15.3084 32.5318 15.2932 32.3565 15.2875 32.2327C15.2846 32.1711 15.2841 32.123 15.2842 32.0918C15.2843 32.0762 15.2845 32.0649 15.2847 32.0583C15.2848 32.0549 15.2848 32.0528 15.2849 32.0519C15.2849 32.0515 15.2849 32.0513 15.2849 32.0515C15.2849 32.0516 15.2849 32.0518 15.2849 32.052C15.2849 32.0521 15.2849 32.0523 15.2848 32.0524C15.2848 32.0525 15.2848 32.0526 15.2848 32.0527C15.2848 32.0527 15.2848 32.0528 15.2848 32.0528C15.2848 32.0529 15.2848 32.053 14.7854 32.0295ZM14.6217 33.7865C14.8422 34.3043 15.2152 34.8501 15.8406 35.2225L16.3521 34.3632C15.9557 34.1272 15.7033 33.774 15.5418 33.3947L14.6217 33.7865ZM16.7247 35.5725C17.0015 35.6364 17.3034 35.6703 17.6321 35.6703V34.6703C17.3723 34.6703 17.1464 34.6436 16.9499 34.5981L16.7247 35.5725ZM17.6321 35.6703C17.9552 35.6703 18.2528 35.6385 18.5263 35.5784L18.312 34.6017C18.1147 34.645 17.8894 34.6703 17.6321 34.6703V35.6703ZM19.4025 35.2511C20.0334 34.899 20.4226 34.3784 20.6603 33.8772L19.7567 33.4488C19.585 33.8108 19.3224 34.1506 18.9152 34.3779L19.4025 35.2511ZM20.9497 33.0214C21.0055 32.7693 21.0311 32.5489 21.0429 32.3901C21.0489 32.3104 21.0513 32.2455 21.0523 32.1989C21.0528 32.1756 21.0529 32.1569 21.0529 32.1431C21.0528 32.1362 21.0528 32.1306 21.0527 32.1263C21.0527 32.1241 21.0527 32.1222 21.0527 32.1207C21.0526 32.12 21.0526 32.1193 21.0526 32.1187C21.0526 32.1184 21.0526 32.1181 21.0526 32.1179C21.0526 32.1177 21.0526 32.1176 21.0526 32.1175C21.0526 32.1174 21.0526 32.1173 21.0526 32.1173C21.0526 32.1172 21.0526 32.1172 20.5527 32.129C20.0529 32.1409 20.0529 32.1408 20.0529 32.1407C20.0529 32.1407 20.0529 32.1406 20.0529 32.1406C20.0528 32.1405 20.0528 32.1404 20.0528 32.1403C20.0528 32.1402 20.0528 32.14 20.0528 32.1399C20.0528 32.1396 20.0528 32.1394 20.0528 32.1393C20.0528 32.1391 20.0528 32.1392 20.0528 32.1396C20.0528 32.1404 20.0529 32.1424 20.0529 32.1455C20.0529 32.1519 20.0528 32.1629 20.0525 32.1781C20.0519 32.2086 20.0502 32.2556 20.0457 32.316C20.0367 32.4372 20.0167 32.609 19.9733 32.8055L20.9497 33.0214ZM20.5527 32.129C21.0527 32.1336 21.0527 32.1336 21.0527 32.1336V32.1336C21.0527 32.1336 21.0527 32.1336 21.0527 32.1336C21.0527 32.1335 21.0527 32.1335 21.0527 32.1334C21.0527 32.1333 21.0527 32.1331 21.0527 32.1328C21.0527 32.1322 21.0527 32.1312 21.0527 32.1299C21.0528 32.1274 21.0528 32.1235 21.0529 32.1182C21.053 32.1078 21.0531 32.0921 21.0534 32.0713C21.0539 32.0298 21.0548 31.968 21.0561 31.8874C21.0588 31.7264 21.0634 31.4907 21.0709 31.1928L20.0712 31.1675C20.0636 31.4685 20.059 31.7072 20.0563 31.8709C20.0549 31.9527 20.054 32.0158 20.0535 32.0586C20.0532 32.08 20.053 32.0963 20.0529 32.1074C20.0529 32.1129 20.0528 32.1171 20.0528 32.12C20.0528 32.1214 20.0528 32.1225 20.0527 32.1232C20.0527 32.1236 20.0527 32.1239 20.0527 32.1241C20.0527 32.1242 20.0527 32.1243 20.0527 32.1244C20.0527 32.1244 20.0527 32.1244 20.0527 32.1244C20.0527 32.1245 20.0527 32.1245 20.0527 32.1245C20.0527 32.1245 20.0527 32.1245 20.5527 32.129ZM21.0994 30.2447C21.1184 29.6979 21.1448 29.0562 21.1814 28.3522L20.1828 28.3002C20.1458 29.0108 20.1192 29.6583 20.1 30.2101L21.0994 30.2447ZM21.235 27.4056C21.2719 26.8018 21.3163 26.1671 21.3695 25.5181L20.3728 25.4364C20.319 26.0931 20.2742 26.7348 20.2368 27.3445L21.235 27.4056ZM21.4524 24.5753C21.5112 23.9497 21.5786 23.3191 21.6558 22.6975L20.6634 22.5743C20.5848 23.2071 20.5164 23.8477 20.4568 24.4816L21.4524 24.5753ZM21.7804 21.7635C21.8726 21.1213 21.976 20.4987 22.0921 19.9121L21.1111 19.718C20.991 20.3252 20.8847 20.9655 20.7906 21.6215L21.7804 21.7635ZM22.2898 19.0025C22.365 18.6881 22.4444 18.3899 22.5281 18.1109L21.5702 17.8236C21.4803 18.1234 21.3961 18.44 21.3172 18.7699L22.2898 19.0025ZM21.5492 17.9672V18.9271H22.5492V17.9672H21.5492ZM21.5492 19.887V21.8068H22.5492V19.887H21.5492ZM21.5492 22.7667V24.6865H22.5492V22.7667H21.5492ZM21.5492 25.6464V27.5662H22.5492V25.6464H21.5492ZM21.5492 28.5261V30.4459H22.5492V28.5261H21.5492ZM21.5492 31.4058V33.3256H22.5492V31.4058H21.5492ZM21.5492 34.2855V35.2454H22.5492V34.2855H21.5492ZM21.5492 35.2454V35.2868H22.5492V35.2454H21.5492ZM21.5492 35.3281V35.3695H22.5492V35.3281H21.5492ZM21.5492 35.3695V36.3341H22.5492V35.3695H21.5492ZM21.5492 37.2988V39.2281H22.5492V37.2988H21.5492ZM21.5492 40.1927V42.122H22.5492V40.1927H21.5492ZM21.5492 43.0867V45.016H22.5492V43.0867H21.5492ZM21.5492 45.9807V47.91H22.5492V45.9807H21.5492ZM21.5492 48.8746V50.8039H22.5492V48.8746H21.5492ZM21.5492 51.7686V53.6979H22.5492V51.7686H21.5492ZM21.5492 54.6626V56.5919H22.5492V54.6626H21.5492ZM21.5492 57.5565V59.4858H22.5492V57.5565H21.5492ZM21.5492 60.4505V61.4151H22.5492V60.4505H21.5492ZM21.5492 61.4151C21.5492 61.7881 21.5971 62.1506 21.6874 62.4961L22.6549 62.2434C22.586 61.9797 22.5492 61.7022 22.5492 61.4151H21.5492ZM22.0973 63.5077C22.4593 64.1479 22.9825 64.683 23.6119 65.0558L24.1215 64.1954C23.6436 63.9123 23.2444 63.5047 22.9678 63.0155L22.0973 63.5077ZM24.6203 65.4836C24.967 65.5785 25.331 65.629 25.706 65.629V64.629C25.4211 64.629 25.1458 64.5907 24.8843 64.5191L24.6203 65.4836ZM25.706 65.629C26.081 65.629 26.445 65.5785 26.7917 65.4836L26.5277 64.5191C26.2662 64.5907 25.9909 64.629 25.706 64.629V65.629ZM27.8001 65.0558C28.4295 64.683 28.9527 64.1479 29.3147 63.5077L28.4442 63.0155C28.1676 63.5047 27.7684 63.9123 27.2905 64.1954L27.8001 65.0558ZM29.7246 62.4961C29.8149 62.1506 29.8628 61.7881 29.8628 61.4151H28.8628C28.8628 61.7022 28.826 61.9797 28.7571 62.2434L29.7246 62.4961ZM29.8628 61.4151V60.3624H28.8628V61.4151H29.8628ZM29.8628 59.3096V57.204H28.8628V59.3096H29.8628ZM29.8628 56.1513V54.0457H28.8628V56.1513H29.8628ZM29.8628 52.9929V50.8874H28.8628V52.9929H29.8628ZM29.8628 49.8346V47.7291H28.8628V49.8346H29.8628ZM29.8628 46.6763V44.5708H28.8628V46.6763H29.8628ZM29.8628 43.518V41.4124H28.8628V43.518H29.8628ZM29.8628 40.3596V39.3069H28.8628V40.3596H29.8628ZM29.3628 39.8069H30.1197V38.8069H29.3628V39.8069ZM30.8765 39.8069H31.6333V38.8069H30.8765V39.8069ZM31.1333 39.3069V40.3596H32.1333V39.3069H31.1333ZM31.1333 41.4124V43.518H32.1333V41.4124H31.1333ZM31.1333 44.5707V46.6763H32.1333V44.5707H31.1333ZM31.1333 47.7291V49.8346H32.1333V47.7291H31.1333ZM31.1333 50.8874V52.9929H32.1333V50.8874H31.1333ZM31.1333 54.0457V56.1513H32.1333V54.0457H31.1333ZM31.1333 57.204V59.3096H32.1333V57.204H31.1333ZM31.1333 60.3624V61.4151H32.1333V60.3624H31.1333ZM31.1333 61.4151C31.1333 61.7881 31.1813 62.1506 31.2715 62.4961L32.2391 62.2434C32.1702 61.9797 32.1333 61.7022 32.1333 61.4151H31.1333ZM31.6815 63.5077C32.0434 64.1479 32.5666 64.683 33.1961 65.0558L33.7057 64.1954C33.2278 63.9123 32.8285 63.5047 32.5519 63.0155L31.6815 63.5077ZM34.2045 65.4836C34.5511 65.5785 34.9152 65.629 35.2901 65.629V64.629C35.0053 64.629 34.7299 64.5907 34.4685 64.5191L34.2045 65.4836ZM35.2901 65.629C35.6651 65.629 36.0292 65.5785 36.3758 65.4836L36.1118 64.5191C35.8503 64.5907 35.575 64.629 35.2901 64.629V65.629ZM37.3842 65.0558C38.0137 64.683 38.5368 64.1479 38.8988 63.5077L38.0283 63.0155C37.7517 63.5047 37.3525 63.9123 36.8746 64.1954L37.3842 65.0558ZM39.3088 62.4961C39.399 62.1506 39.447 61.7881 39.447 61.4151H38.447C38.447 61.7022 38.4101 61.9797 38.3412 62.2434L39.3088 62.4961ZM39.447 61.4151V60.4459H38.447V61.4151H39.447ZM39.447 59.4766V57.5381H38.447V59.4766H39.447ZM39.447 56.5689V54.6304H38.447V56.5689H39.447ZM39.447 53.6611V51.7227H38.447V53.6611H39.447ZM39.447 50.7534V48.8149H38.447V50.7534H39.447ZM39.447 47.8457V45.9072H38.447V47.8457H39.447ZM39.447 44.9379V42.9994H38.447V44.9379H39.447ZM39.447 42.0302V40.0917H38.447V42.0302H39.447ZM39.447 39.1224V37.1839H38.447V39.1224H39.447ZM39.447 36.2147V35.2454H38.447V36.2147H39.447ZM39.447 35.2454C39.447 35.2231 39.446 35.2028 39.4446 35.1851L38.4476 35.2634C38.4473 35.2595 38.447 35.2534 38.447 35.2454H39.447ZM39.4397 35.1386C39.4381 35.1264 39.4364 35.1151 39.4355 35.1088L38.4463 35.2554C38.4474 35.2631 38.4478 35.2657 38.448 35.2676L39.4397 35.1386ZM39.4355 35.1088C39.4344 35.1014 39.434 35.0989 39.4338 35.097L38.4422 35.227C38.4438 35.2386 38.4454 35.2494 38.4463 35.2555L39.4355 35.1088ZM39.4342 35.1017C39.4345 35.1058 39.4349 35.1126 39.4349 35.1214H38.4349C38.4349 35.1439 38.436 35.1642 38.4374 35.1818L39.4342 35.1017ZM39.4349 35.1214V34.1684H38.4349V35.1214H39.4349ZM39.4349 33.2154V31.3094H38.4349V33.2154H39.4349ZM39.4349 30.3564V28.4503H38.4349V30.3564H39.4349ZM39.4349 27.4973V25.5913H38.4349V27.4973H39.4349ZM39.4349 24.6383V22.7323H38.4349V24.6383H39.4349ZM39.4349 21.7793V19.8733H38.4349V21.7793H39.4349ZM39.4349 18.9202V17.9672H38.4349V18.9202H39.4349ZM38.456 18.1107C38.5396 18.3898 38.6189 18.688 38.694 19.0025L39.6666 18.77C39.5878 18.4402 39.5037 18.1235 39.4139 17.8237L38.456 18.1107ZM38.8915 19.9121C39.0075 20.4987 39.1109 21.1213 39.203 21.7635L40.1928 21.6216C40.0988 20.9657 39.9926 20.3254 39.8725 19.7181L38.8915 19.9121ZM39.3276 22.6976C39.4047 23.3192 39.4721 23.9498 39.531 24.5754L40.5266 24.4817C40.4669 23.8478 40.3985 23.2072 40.32 22.5745L39.3276 22.6976ZM39.6139 25.5182C39.6671 26.1672 39.7115 26.8019 39.7485 27.4058L40.7467 27.3446C40.7093 26.7348 40.6644 26.0932 40.6106 25.4365L39.6139 25.5182ZM39.8022 28.3523C39.8389 29.0563 39.8654 29.698 39.8844 30.2448L40.8838 30.2101C40.8646 29.6582 40.8379 29.0108 40.8008 28.3002L39.8022 28.3523ZM39.913 31.1929C39.9206 31.4907 39.9252 31.7265 39.9279 31.8875C39.9293 31.968 39.9301 32.0299 39.9307 32.0714C39.9309 32.0922 39.9311 32.1079 39.9312 32.1183C39.9313 32.1236 39.9313 32.1275 39.9314 32.13C39.9314 32.1313 39.9314 32.1323 39.9314 32.1329C39.9314 32.1332 39.9314 32.1334 39.9314 32.1335C39.9314 32.1336 39.9314 32.1336 39.9314 32.1337C39.9314 32.1337 39.9314 32.1337 39.9314 32.1337C39.9314 32.1337 39.9314 32.1337 39.9314 32.1337C39.9314 32.1337 39.9314 32.1337 40.4314 32.129C40.9314 32.1244 40.9314 32.1244 40.9314 32.1244C40.9314 32.1244 40.9314 32.1244 40.9314 32.1243C40.9314 32.1243 40.9314 32.1243 40.9314 32.1243C40.9314 32.1242 40.9314 32.1241 40.9314 32.124C40.9314 32.1238 40.9314 32.1235 40.9314 32.1231C40.9313 32.1224 40.9313 32.1213 40.9313 32.1199C40.9313 32.117 40.9312 32.1128 40.9312 32.1073C40.9311 32.0963 40.9309 32.0799 40.9306 32.0585C40.93 32.0158 40.9292 31.9526 40.9278 31.8708C40.925 31.7071 40.9204 31.4684 40.9127 31.1674L39.913 31.1929ZM40.4314 32.129C39.9315 32.1169 39.9315 32.117 39.9315 32.117C39.9315 32.1171 39.9315 32.1171 39.9315 32.1172C39.9315 32.1173 39.9315 32.1174 39.9315 32.1176C39.9315 32.1178 39.9315 32.1181 39.9315 32.1184C39.9315 32.119 39.9315 32.1197 39.9315 32.1204C39.9314 32.122 39.9314 32.1238 39.9314 32.126C39.9313 32.1303 39.9312 32.136 39.9312 32.1429C39.9312 32.1566 39.9313 32.1754 39.9318 32.1987C39.9327 32.2452 39.9352 32.3102 39.941 32.3899C39.9528 32.5488 39.9783 32.7692 40.034 33.0214L41.0105 32.8058C40.9671 32.6093 40.9473 32.4375 40.9383 32.3163C40.9339 32.2559 40.9322 32.2088 40.9316 32.1784C40.9312 32.1632 40.9312 32.1522 40.9312 32.1458C40.9312 32.1427 40.9313 32.1406 40.9313 32.1398C40.9313 32.1395 40.9313 32.1394 40.9313 32.1396C40.9313 32.1397 40.9313 32.1399 40.9313 32.1401C40.9313 32.1403 40.9313 32.1404 40.9312 32.1406C40.9312 32.1407 40.9312 32.1408 40.9312 32.1409C40.9312 32.1409 40.9312 32.141 40.9312 32.141C40.9312 32.1411 40.9312 32.1412 40.4314 32.129ZM40.3233 33.8774C40.5609 34.3788 40.9503 34.8994 41.5814 35.2514L42.0685 34.378C41.6611 34.1508 41.3985 33.8111 41.227 33.4491L40.3233 33.8774ZM42.4578 35.5785C42.7313 35.6385 43.0289 35.6703 43.352 35.6703V34.6703C43.0946 34.6703 42.8693 34.645 42.6719 34.6017L42.4578 35.5785ZM43.352 35.6703C43.6807 35.6703 43.9826 35.6364 44.2594 35.5725L44.0342 34.5981C43.8377 34.6436 43.6118 34.6703 43.352 34.6703V35.6703ZM45.1435 35.2225C45.7689 34.8501 46.1419 34.3043 46.3624 33.7865L45.4423 33.3947C45.2808 33.774 45.0284 34.1272 44.632 34.3632L45.1435 35.2225ZM46.6214 32.9159C46.6688 32.6612 46.6881 32.4391 46.6956 32.2793C46.6993 32.1992 46.7001 32.134 46.6999 32.0874C46.6998 32.064 46.6994 32.0453 46.6991 32.0316C46.6989 32.0247 46.6987 32.0191 46.6985 32.0148C46.6985 32.0127 46.6984 32.0109 46.6983 32.0094C46.6983 32.0086 46.6983 32.008 46.6982 32.0074C46.6982 32.0071 46.6982 32.0069 46.6982 32.0066C46.6982 32.0065 46.6982 32.0064 46.6982 32.0063C46.6982 32.0062 46.6982 32.0061 46.6982 32.0061C46.6982 32.006 46.6982 32.0059 46.1987 32.0295C45.6993 32.053 45.6993 32.0529 45.6993 32.0528C45.6993 32.0528 45.6993 32.0527 45.6993 32.0527C45.6993 32.0526 45.6993 32.0525 45.6993 32.0524C45.6992 32.0523 45.6992 32.0521 45.6992 32.052C45.6992 32.0518 45.6992 32.0516 45.6992 32.0515C45.6992 32.0513 45.6992 32.0515 45.6992 32.0519C45.6993 32.0528 45.6993 32.0549 45.6994 32.0583C45.6996 32.0649 45.6998 32.0762 45.6999 32.0918C45.7 32.123 45.6995 32.1711 45.6966 32.2327C45.6909 32.3565 45.6757 32.5318 45.6383 32.7327L46.6214 32.9159Z" fill="#616161"/>
</g>
<path fill-rule="evenodd" clip-rule="evenodd" d="M31.9396 30.0106H29.043V27.0818H22.0356V33.25C22.0356 33.25 25.7062 32.8394 27.3627 34.8588C29.0191 36.8764 29.3786 39.495 29.3786 39.495H30.4914H31.6249C31.6249 39.495 31.9638 36.8764 33.6202 34.8588C35.2766 32.8394 38.9472 33.25 38.9472 33.25V27.0818H31.9396V30.0106Z" fill="url(#paint0_linear_1706_16211)"/>
<defs>
<linearGradient id="paint0_linear_1706_16211" x1="26.792" y1="29.28" x2="31.9148" y2="39.4454" gradientUnits="userSpaceOnUse">
<stop stop-color="#FF8120"/>
<stop offset="1" stop-color="#E54304"/>
</linearGradient>
</defs>
</svg>
