<svg width="58" height="58" viewBox="0 0 58 58" fill="none" xmlns="http://www.w3.org/2000/svg">
<g clip-path="url(#clip0_1706_15691)">
<path fill-rule="evenodd" clip-rule="evenodd" d="M32.545 36.9044H22.4008V37.5209H21.4008V36.9044H10.5759C8.60083 36.9044 7 38.4935 7 40.454V54.4504C7 56.411 8.60083 58 10.5759 58H46.9241C48.8992 58 50.5 56.411 50.5 54.4504V40.454C50.5 38.4935 48.8992 36.9044 46.9241 36.9044H38.5757L38.8927 38.7115L37.9078 38.8843L37.5604 36.9044H33.5603L33.5771 36.9999L32.5922 37.1729L32.545 36.9044ZM26.3904 36.9195V38.7768H27.3904V36.9195H26.3904ZM34.1076 40.0213L33.7539 38.007L32.769 38.18L33.1227 40.1942L34.1076 40.0213ZM22.4008 40.4972V38.5637H21.4008V40.6493H22.197C21.902 40.9091 21.7062 41.2778 21.6735 41.6921H21.4008V43.7777H22.4008V43.1341C22.6429 43.2859 22.9296 43.3738 23.2368 43.3738C24.1041 43.3738 24.8065 42.6765 24.8065 41.8156C24.8065 40.9548 24.1041 40.2575 23.2368 40.2575C22.9296 40.2575 22.6429 40.3454 22.4008 40.4972ZM26.3904 39.7054V41.5626H27.2015C27.188 41.645 27.1809 41.7295 27.1809 41.8156C27.1809 42.0578 27.2365 42.2869 27.3356 42.4913H26.3904V44.3485H27.3904V42.5942C27.6615 43.0603 28.1686 43.3738 28.7491 43.3738C29.6163 43.3738 30.3187 42.6765 30.3187 41.8156C30.3187 40.9548 29.6163 40.2575 28.7491 40.2575C28.1686 40.2575 27.6615 40.571 27.3904 41.0371V39.7054H26.3904ZM39.184 40.3714C39.366 40.298 39.565 40.2575 39.7735 40.2575C40.6408 40.2575 41.3432 40.9548 41.3432 41.8156C41.3432 42.6765 40.6408 43.3738 39.7735 43.3738C39.7525 43.3738 39.7315 43.3733 39.7106 43.3725L40.0147 45.1054L39.0297 45.2782L38.6557 43.1469L38.8932 43.1052C38.4781 42.825 38.2054 42.3521 38.2054 41.8156C38.2054 41.6088 38.2459 41.4114 38.3195 41.2309L38.0948 39.95L39.0797 39.7772L39.184 40.3714ZM35.1686 46.064L34.8149 44.0498L33.83 44.2227L34.1245 45.9001C33.3228 45.9689 32.6932 46.6373 32.6932 47.4523C32.6932 48.3132 33.3956 49.0104 34.2613 49.0104C34.4302 49.0104 34.5928 48.984 34.7452 48.9351C34.8598 49.1938 35.0099 49.4313 35.1884 49.6422L35.9518 48.9964C35.7839 48.7979 35.6542 48.5643 35.5759 48.3043C35.7372 48.0595 35.831 47.7668 35.831 47.4523C35.831 46.8659 35.505 46.3555 35.0231 46.0896L35.1686 46.064ZM22.4008 46.1339V44.8205H21.4008V46.9061H21.7678C21.7037 47.076 21.6687 47.2601 21.6687 47.4523C21.6687 47.626 21.6973 47.7929 21.75 47.9488H21.4008V48.9916C21.4008 49.5355 21.548 50.0465 21.805 50.486L22.6682 49.9811C22.4982 49.6904 22.4008 49.353 22.4008 48.9916V48.7708C22.6429 48.9226 22.9296 49.0104 23.2368 49.0104C24.1041 49.0104 24.8065 48.3132 24.8065 47.4523C24.8065 46.5915 24.1041 45.8942 23.2368 45.8942C22.9296 45.8942 22.6429 45.9821 22.4008 46.1339ZM26.3904 45.2771V47.1344H27.2136C27.1922 47.237 27.1809 47.3434 27.1809 47.4523C27.1809 47.6691 27.2255 47.8755 27.3059 48.063H26.3904V48.9916C26.3904 49.353 26.2931 49.6904 26.123 49.9811L26.9862 50.486C27.2433 50.0465 27.3904 49.5355 27.3904 48.9916V48.2309C27.6615 48.697 28.1686 49.0104 28.7491 49.0104C29.6163 49.0104 30.3187 48.3132 30.3187 47.4523C30.3187 46.5915 29.6163 45.8942 28.7491 45.8942C28.1686 45.8942 27.6615 46.2077 27.3904 46.6738V45.2771H26.3904ZM38.7251 49.2428C38.4693 49.4546 38.1556 49.6052 37.8016 49.6665C37.4475 49.7279 37.1006 49.6916 36.7873 49.5778L36.446 50.5178C36.9189 50.6895 37.4422 50.7437 37.9723 50.6518C38.5021 50.56 38.976 50.3334 39.3629 50.013L38.7251 49.2428ZM24.3956 50.9681C24.0317 50.9681 23.6922 50.8721 23.3997 50.7047L22.9076 51.5648C22.1998 51.7151 21.6687 52.34 21.6687 53.0885C21.6687 53.9494 22.3711 54.6467 23.2368 54.6467C24.1041 54.6467 24.8065 53.9494 24.8065 53.0885C24.8065 52.6482 24.6227 52.2506 24.327 51.9673C24.3498 51.9678 24.3727 51.9681 24.3956 51.9681C24.938 51.9681 25.4482 51.8244 25.8881 51.5727L25.3915 50.7047C25.0991 50.8721 24.7595 50.9681 24.3956 50.9681ZM13.782 41.8156C13.782 42.6765 13.0796 43.3738 12.2124 43.3738C11.3466 43.3738 10.6442 42.6765 10.6442 41.8156C10.6442 40.9548 11.3466 40.2575 12.2124 40.2575C13.0796 40.2575 13.782 40.9548 13.782 41.8156ZM17.7246 43.3738C18.5919 43.3738 19.2943 42.6765 19.2943 41.8156C19.2943 40.9548 18.5919 40.2575 17.7246 40.2575C16.8589 40.2575 16.1565 40.9548 16.1565 41.8156C16.1565 42.6765 16.8589 43.3738 17.7246 43.3738ZM35.831 41.8156C35.831 42.6765 35.1285 43.3738 34.2613 43.3738C33.3956 43.3738 32.6932 42.6765 32.6932 41.8156C32.6932 40.9548 33.3956 40.2575 34.2613 40.2575C35.1285 40.2575 35.831 40.9548 35.831 41.8156ZM46.8554 41.8156C46.8554 42.6765 46.153 43.3738 45.2858 43.3738C44.42 43.3738 43.7176 42.6765 43.7176 41.8156C43.7176 40.9548 44.42 40.2575 45.2858 40.2575C46.153 40.2575 46.8554 40.9548 46.8554 41.8156ZM12.2124 49.0104C13.0796 49.0104 13.782 48.3132 13.782 47.4523C13.782 46.5915 13.0796 45.8942 12.2124 45.8942C11.3466 45.8942 10.6442 46.5915 10.6442 47.4523C10.6442 48.3132 11.3466 49.0104 12.2124 49.0104ZM19.2943 47.4523C19.2943 48.3132 18.5919 49.0104 17.7246 49.0104C16.8589 49.0104 16.1565 48.3132 16.1565 47.4523C16.1565 46.5915 16.8589 45.8942 17.7246 45.8942C18.5919 45.8942 19.2943 46.5915 19.2943 47.4523ZM41.3432 47.4523C41.3432 48.3132 40.6408 49.0104 39.7735 49.0104C38.9078 49.0104 38.2054 48.3132 38.2054 47.4523C38.2054 46.5915 38.9078 45.8942 39.7735 45.8942C40.6408 45.8942 41.3432 46.5915 41.3432 47.4523ZM45.2858 49.0104C46.153 49.0104 46.8554 48.3132 46.8554 47.4523C46.8554 46.5915 46.153 45.8942 45.2858 45.8942C44.42 45.8942 43.7176 46.5915 43.7176 47.4523C43.7176 48.3132 44.42 49.0104 45.2858 49.0104ZM13.782 53.0885C13.782 53.9494 13.0796 54.6467 12.2124 54.6467C11.3466 54.6467 10.6442 53.9494 10.6442 53.0885C10.6442 52.2277 11.3466 51.5304 12.2124 51.5304C13.0796 51.5304 13.782 52.2277 13.782 53.0885ZM17.7246 54.6467C18.5919 54.6467 19.2943 53.9494 19.2943 53.0885C19.2943 52.2277 18.5919 51.5304 17.7246 51.5304C16.8589 51.5304 16.1565 52.2277 16.1565 53.0885C16.1565 53.9494 16.8589 54.6467 17.7246 54.6467ZM28.7491 54.6467C29.6163 54.6467 30.3187 53.9494 30.3187 53.0885C30.3187 52.2277 29.6163 51.5304 28.7491 51.5304C27.8833 51.5304 27.1809 52.2277 27.1809 53.0885C27.1809 53.9494 27.8833 54.6467 28.7491 54.6467ZM35.831 53.0885C35.831 53.9494 35.1285 54.6467 34.2613 54.6467C33.3956 54.6467 32.6932 53.9494 32.6932 53.0885C32.6932 52.2277 33.3956 51.5304 34.2613 51.5304C35.1285 51.5304 35.831 52.2277 35.831 53.0885ZM39.7735 54.6467C40.6408 54.6467 41.3432 53.9494 41.3432 53.0885C41.3432 52.2277 40.6408 51.5304 39.7735 51.5304C38.9078 51.5304 38.2054 52.2277 38.2054 53.0885C38.2054 53.9494 38.9078 54.6467 39.7735 54.6467ZM46.8554 53.0885C46.8554 53.9494 46.153 54.6467 45.2858 54.6467C44.42 54.6467 43.7176 53.9494 43.7176 53.0885C43.7176 52.2277 44.42 51.5304 45.2858 51.5304C46.153 51.5304 46.8554 52.2277 46.8554 53.0885Z" fill="url(#paint0_linear_1706_15691)"/>
<path d="M31.8377 17.1687L32.2699 16.9174L31.3377 15.3145V17.1687H31.8377ZM37.402 26.7361L36.9698 26.9874L36.97 26.9878L37.402 26.7361ZM31.8377 27.1722H31.3377V27.3549L31.4555 27.4946L31.8377 27.1722ZM36.8511 33.1162L36.4689 33.4386L36.4935 33.4677L36.5222 33.4928L36.8511 33.1162ZM37.6521 34.5352L38.1446 34.4487L38.1446 34.4485L37.6521 34.5352ZM39.8959 47.3228L39.4035 47.4092L39.4035 47.4094L39.8959 47.3228ZM37.8867 50.159L37.9721 50.6516L37.8867 50.159ZM35.0296 48.1645L34.5371 48.251L34.5372 48.2511L35.0296 48.1645ZM32.9076 36.079L33.4001 35.9926L33.3767 35.8597L33.2898 35.7566L32.9076 36.079ZM27.3491 29.4903L27.7312 29.1679L27.5814 28.9903H27.3491V29.4903ZM26.8902 29.4903V28.9903H26.3902V29.4903H26.8902ZM21.9016 23.8954L22.4016 23.9092V23.8954H21.9016ZM21.9016 17.2319H22.4016V15.3776L21.4693 16.9805L21.9016 17.2319ZM16.3741 26.7359L16.8061 26.9876L16.8063 26.9873L16.3741 26.7359ZM13.5882 27.4773L13.8367 27.0434L13.5882 27.4773ZM12.8427 24.712L13.2747 24.9637L13.2749 24.9633L12.8427 24.712ZM19.595 13.1021L20.0272 13.3535L20.0273 13.3533L19.595 13.1021ZM21.699 12.1171L21.6167 12.6103L21.6906 12.6226L21.7648 12.6128L21.699 12.1171ZM23.7565 12.0951V12.5953L23.7675 12.595L23.7565 12.0951ZM29.9828 12.0951L29.9718 12.5951H29.9828V12.0951ZM32.0608 12.1201L31.9907 12.6152L32.0691 12.6262L32.1471 12.6126L32.0608 12.1201ZM34.1811 13.1023L33.7488 13.3535L33.7488 13.3536L34.1811 13.1023ZM40.9333 24.7121L40.5011 24.9635L40.5013 24.9639L40.9333 24.7121ZM40.1879 27.4775L39.9394 27.0436L40.1879 27.4775ZM32.356 4.92933C32.356 4.60678 32.3277 4.2904 32.2732 3.98263L31.2885 4.15702C31.3329 4.40748 31.356 4.66551 31.356 4.92933H32.356ZM32.0251 3.06469C31.8034 2.46232 31.4776 1.91038 31.0698 1.43018L30.3076 2.07751C30.6408 2.46989 30.9062 2.92 31.0866 3.41011L32.0251 3.06469ZM30.3949 0.76269C29.9117 0.361244 29.3572 0.0410706 28.753 -0.17646L28.4143 0.764428C28.9077 0.942043 29.3607 1.20361 29.7559 1.5319L30.3949 0.76269ZM27.8353 -0.41908C27.5279 -0.472309 27.2121 -0.5 26.8902 -0.5V0.5C27.1547 0.5 27.4134 0.522742 27.6646 0.566248L27.8353 -0.41908ZM26.8902 -0.5C26.5683 -0.5 26.2525 -0.472309 25.9452 -0.41908L26.1159 0.566248C26.367 0.522742 26.6257 0.5 26.8902 0.5V-0.5ZM25.0274 -0.176461C24.4232 0.0410704 23.8688 0.361244 23.3855 0.76269L24.0245 1.5319C24.4197 1.20361 24.8728 0.942043 25.3662 0.764428L25.0274 -0.176461ZM22.7107 1.43018C22.3029 1.91038 21.9771 2.46231 21.7553 3.06469L22.6938 3.41011C22.8742 2.92 23.1396 2.46989 23.4729 2.07751L22.7107 1.43018ZM21.5073 3.98263C21.4528 4.2904 21.4244 4.60678 21.4244 4.92933H22.4244C22.4244 4.66551 22.4476 4.40748 22.4919 4.15702L21.5073 3.98263ZM21.4244 4.92933C21.4244 5.25189 21.4528 5.56827 21.5073 5.87603L22.4919 5.70164C22.4476 5.45119 22.4244 5.19316 22.4244 4.92933H21.4244ZM21.7553 6.79397C21.9771 7.39635 22.3029 7.94829 22.7107 8.42848L23.4729 7.78116C23.1396 7.38878 22.8742 6.93866 22.6938 6.44856L21.7553 6.79397ZM23.3855 9.09597C23.8688 9.49742 24.4232 9.81759 25.0274 10.0351L25.3662 9.09424C24.8728 8.91662 24.4197 8.65505 24.0245 8.32677L23.3855 9.09597ZM25.9452 10.2777C26.2525 10.331 26.5683 10.3587 26.8902 10.3587V9.35867C26.6257 9.35867 26.367 9.33592 26.1159 9.29242L25.9452 10.2777ZM26.8902 10.3587C27.2121 10.3587 27.5279 10.331 27.8352 10.2777L27.6646 9.29242C27.4134 9.33592 27.1547 9.35867 26.8902 9.35867V10.3587ZM28.753 10.0351C29.3572 9.8176 29.9117 9.49742 30.3949 9.09598L29.7559 8.32677C29.3607 8.65505 28.9077 8.91662 28.4143 9.09424L28.753 10.0351ZM31.0698 8.42848C31.4776 7.94829 31.8034 7.39635 32.0251 6.79397L31.0866 6.44856C30.9062 6.93866 30.6408 7.38878 30.3076 7.78116L31.0698 8.42848ZM32.2732 5.87603C32.3277 5.56827 32.356 5.25189 32.356 4.92933H31.356C31.356 5.19316 31.3329 5.45119 31.2885 5.70165L32.2732 5.87603ZM31.3377 17.1687V18.2802H32.3377V17.1687H31.3377ZM31.3377 19.3917V21.6147H32.3377V19.3917H31.3377ZM31.3377 22.7262V24.9492H32.3377V22.7262H31.3377ZM31.3377 26.0607V27.1722H32.3377V26.0607H31.3377ZM31.4555 27.4946L32.0125 28.155L32.7769 27.5103L32.2199 26.8499L31.4555 27.4946ZM32.5696 28.8155L33.6837 30.1364L34.4481 29.4916L33.334 28.1707L32.5696 28.8155ZM34.2407 30.7968L35.3548 32.1177L36.1192 31.4729L35.0051 30.1521L34.2407 30.7968ZM35.9119 32.7781L36.4689 33.4386L37.2333 32.7938L36.6763 32.1334L35.9119 32.7781ZM36.5222 33.4928C36.8473 33.7768 37.0797 34.1668 37.1597 34.6218L38.1446 34.4485C38.0234 33.7595 37.6701 33.1677 37.18 32.7396L36.5222 33.4928ZM37.1596 34.6216L37.3466 35.6872L38.3316 35.5144L38.1446 34.4487L37.1596 34.6216ZM37.5336 36.7528L37.9076 38.8841L38.8925 38.7113L38.5186 36.58L37.5336 36.7528ZM38.0946 39.9498L38.4685 42.081L39.4535 41.9082L39.0795 39.7769L38.0946 39.9498ZM38.6555 43.1467L39.0295 45.278L40.0144 45.1051L39.6405 42.9739L38.6555 43.1467ZM39.2165 46.3436L39.4035 47.4092L40.3884 47.2364L40.2014 46.1708L39.2165 46.3436ZM39.4035 47.4094C39.4653 47.7608 39.4282 48.1051 39.3127 48.416L40.25 48.7644C40.4258 48.2915 40.4818 47.7674 40.3884 47.2362L39.4035 47.4094ZM38.7249 49.2426C38.4691 49.4544 38.1553 49.605 37.8014 49.6663L37.9721 50.6516C38.5018 50.5598 38.9758 50.3332 39.3627 50.0128L38.7249 49.2426ZM37.8014 49.6663C37.4473 49.7277 37.1004 49.6914 36.7871 49.5776L36.4458 50.5176C36.9187 50.6893 37.4419 50.7435 37.9721 50.6516L37.8014 49.6663ZM35.9516 48.9962C35.7364 48.7417 35.5839 48.4296 35.522 48.0779L34.5372 48.2511C34.6306 48.7822 34.8619 49.2564 35.1881 49.642L35.9516 48.9962ZM35.5221 48.0781L35.3452 47.0709L34.3603 47.2439L34.5371 48.251L35.5221 48.0781ZM35.1684 46.0638L34.8147 44.0496L33.8298 44.2225L34.1835 46.2368L35.1684 46.0638ZM34.6379 43.0424L34.2842 41.0282L33.2993 41.2011L33.653 43.2154L34.6379 43.0424ZM34.1074 40.0211L33.7537 38.0068L32.7688 38.1798L33.1225 40.194L34.1074 40.0211ZM33.5769 36.9997L33.4001 35.9926L32.4151 36.1655L32.592 37.1726L33.5769 36.9997ZM33.2898 35.7566L32.6721 35.0246L31.9078 35.6694L32.5254 36.4015L33.2898 35.7566ZM32.0545 34.2925L30.8193 32.8283L30.055 33.4731L31.2902 34.9373L32.0545 34.2925ZM30.2017 32.0962L28.9665 30.6321L28.2021 31.2769L29.4374 32.7411L30.2017 32.0962ZM28.3488 29.9L27.7312 29.1679L26.9669 29.8127L27.5845 30.5448L28.3488 29.9ZM27.3491 28.9903H27.1961V29.9903H27.3491V28.9903ZM27.0432 28.9903H26.8902V29.9903H27.0432V28.9903ZM26.3902 29.4903V30.4189H27.3902V29.4903H26.3902ZM26.3902 31.3476V33.2048H27.3902V31.3476H26.3902ZM26.3902 34.1334V35.9907H27.3902V34.1334H26.3902ZM26.3902 36.9193V38.7766H27.3902V36.9193H26.3902ZM26.3902 39.7052V41.5624H27.3902V39.7052H26.3902ZM26.3902 42.491V44.3483H27.3902V42.491H26.3902ZM26.3902 45.2769V47.1342H27.3902V45.2769H26.3902ZM26.3902 48.0628V48.9914H27.3902V48.0628H26.3902ZM26.3902 48.9914C26.3902 49.3528 26.2928 49.6902 26.1228 49.9809L26.986 50.4858C27.243 50.0463 27.3902 49.5353 27.3902 48.9914H26.3902ZM25.3913 50.7045C25.0989 50.8718 24.7593 50.9679 24.3954 50.9679V51.9679C24.9378 51.9679 25.448 51.8242 25.8879 51.5725L25.3913 50.7045ZM24.3954 50.9679C24.0315 50.9679 23.6919 50.8718 23.3995 50.7045L22.9029 51.5725C23.3429 51.8242 23.8531 51.9679 24.3954 51.9679V50.9679ZM22.668 49.9809C22.498 49.6902 22.4006 49.3528 22.4006 48.9914H21.4006C21.4006 49.5353 21.5478 50.0463 21.8048 50.4858L22.668 49.9809ZM22.4006 48.9914V47.9486H21.4006V48.9914H22.4006ZM22.4006 46.9058V44.8203H21.4006V46.9058H22.4006ZM22.4006 43.7775V41.6919H21.4006V43.7775H22.4006ZM22.4006 40.6491V38.5635H21.4006V40.6491H22.4006ZM22.4006 37.5207V35.4351H21.4006V37.5207H22.4006ZM22.4006 34.3923V32.3068H21.4006V34.3923H22.4006ZM22.4006 31.264V29.1784H21.4006V31.264H22.4006ZM22.4006 28.1356V26.05H21.4006V28.1356H22.4006ZM22.4006 25.0072V23.9644H21.4006V25.0072H22.4006ZM22.4006 23.9644C22.4006 23.946 22.4009 23.9275 22.4014 23.9092L21.4018 23.8816C21.401 23.9091 21.4006 23.9368 21.4006 23.9644H22.4006ZM22.4016 23.8954V22.7848H21.4016V23.8954H22.4016ZM22.4016 21.6742V19.4531H21.4016V21.6742H22.4016ZM22.4016 18.3425V17.2319H21.4016V18.3425H22.4016ZM21.4693 16.9805L21.0087 17.7725L21.8732 18.2752L22.3338 17.4832L21.4693 16.9805ZM20.5481 18.5645L19.6268 20.1485L20.4913 20.6513L21.4125 19.0672L20.5481 18.5645ZM19.1662 20.9405L18.245 22.5245L19.1094 23.0273L20.0307 21.4433L19.1662 20.9405ZM17.7843 23.3165L16.8631 24.9005L17.7275 25.4033L18.6488 23.8193L17.7843 23.3165ZM16.4025 25.6925L15.9418 26.4845L16.8063 26.9873L17.2669 26.1953L16.4025 25.6925ZM15.942 26.4842C15.8011 26.726 15.6048 26.9144 15.3779 27.0439L15.8737 27.9124C16.2487 27.6983 16.5741 27.3858 16.8061 26.9876L15.942 26.4842ZM14.6065 27.2487C14.3452 27.2488 14.0804 27.183 13.8367 27.0434L13.3397 27.9112C13.7391 28.1399 14.1761 28.2489 14.6072 28.2487L14.6065 27.2487ZM13.8367 27.0434C13.5934 26.9041 13.4044 26.7102 13.2746 26.4871L12.4102 26.9899C12.6263 27.3614 12.9406 27.6827 13.3397 27.9112L13.8367 27.0434ZM13.0684 25.7247C13.0681 25.4668 13.1341 25.205 13.2747 24.9637L12.4107 24.4602C12.1788 24.8583 12.068 25.2948 12.0684 25.7255L13.0684 25.7247ZM13.2749 24.9633L13.8376 23.9959L12.9732 23.4931L12.4105 24.4606L13.2749 24.9633ZM14.4003 23.0284L15.5257 21.0934L14.6613 20.5906L13.5359 22.5256L14.4003 23.0284ZM16.0884 20.1259L17.2138 18.1909L16.3493 17.6882L15.224 19.6231L16.0884 20.1259ZM17.7765 17.2234L18.9018 15.2884L18.0374 14.7857L16.912 16.7207L17.7765 17.2234ZM19.4645 14.321L20.0272 13.3535L19.1628 12.8507L18.6001 13.8182L19.4645 14.321ZM20.0273 13.3533C20.1352 13.1676 20.2759 13.0137 20.4377 12.8937L19.8422 12.0904C19.5735 12.2896 19.3404 12.5451 19.1627 12.8509L20.0273 13.3533ZM20.9983 12.6326C21.1994 12.5842 21.4099 12.5758 21.6167 12.6103L21.7813 11.624C21.4399 11.567 21.0939 11.5811 20.7645 11.6603L20.9983 12.6326ZM21.7648 12.6128C21.7943 12.6089 21.8239 12.6056 21.8538 12.603L21.7663 11.6068C21.7217 11.6107 21.6773 11.6156 21.6332 11.6215L21.7648 12.6128ZM21.9434 12.5971C21.9731 12.5958 22.0031 12.5951 22.0332 12.5951V11.5951C21.9885 11.5951 21.944 11.5961 21.8997 11.598L21.9434 12.5971ZM22.0332 12.5951H22.6076V11.5951H22.0332V12.5951ZM23.1821 12.5951H23.7565V11.5951H23.1821V12.5951ZM23.7675 12.595C23.771 12.5949 23.7745 12.5949 23.7781 12.5948L23.7634 11.5949C23.7574 11.595 23.7515 11.5951 23.7455 11.5953L23.7675 12.595ZM23.7887 12.5947C23.7923 12.5947 23.7958 12.5947 23.7994 12.5947V11.5947C23.7934 11.5947 23.7874 11.5947 23.7814 11.5947L23.7887 12.5947ZM23.7994 12.5947H24.8228V11.5947H23.7994V12.5947ZM25.8462 12.5947H27.893V11.5947H25.8462V12.5947ZM28.9164 12.5947H29.9398V11.5947H28.9164V12.5947ZM29.9398 12.5947C29.9434 12.5947 29.9469 12.5947 29.9505 12.5947L29.9578 11.5947C29.9518 11.5947 29.9458 11.5947 29.9398 11.5947V12.5947ZM29.9611 12.5948C29.9647 12.5949 29.9682 12.5949 29.9718 12.595L29.9938 11.5953C29.9878 11.5951 29.9818 11.595 29.9758 11.5949L29.9611 12.5948ZM29.9828 12.5951H30.5569V11.5951H29.9828V12.5951ZM31.1309 12.5951H31.705V11.5951H31.1309V12.5951ZM31.705 12.5951C31.7371 12.5951 31.769 12.5959 31.8007 12.5974L31.8472 11.5984C31.8 11.5962 31.7526 11.5951 31.705 11.5951V12.5951ZM31.896 12.604C31.9278 12.607 31.9594 12.6107 31.9907 12.6152L32.1308 11.625C32.084 11.6184 32.0368 11.6128 31.9893 11.6084L31.896 12.604ZM32.1471 12.6126C32.3551 12.5761 32.567 12.5832 32.7697 12.6308L32.9982 11.6573C32.6664 11.5794 32.3179 11.5674 31.9745 11.6276L32.1471 12.6126ZM33.335 12.8914C33.4983 13.0118 33.6401 13.1665 33.7488 13.3535L34.6134 12.851C34.4345 12.5432 34.1994 12.2863 33.9284 12.0865L33.335 12.8914ZM33.7488 13.3536L34.3115 14.3211L35.176 13.8184L34.6133 12.8509L33.7488 13.3536ZM34.8742 15.2886L35.9996 17.2236L36.864 16.7208L35.7387 14.7859L34.8742 15.2886ZM36.5623 18.1911L37.6877 20.1261L38.5521 19.6233L37.4267 17.6883L36.5623 18.1911ZM38.2504 21.0936L39.3757 23.0285L40.2402 22.5258L39.1148 20.5908L38.2504 21.0936ZM39.9384 23.996L40.5011 24.9635L41.3655 24.4608L40.8029 23.4933L39.9384 23.996ZM40.5013 24.9639C40.6419 25.2052 40.7079 25.4669 40.7077 25.7249L41.7077 25.7257C41.7081 25.2949 41.5973 24.8585 41.3653 24.4604L40.5013 24.9639ZM40.5015 26.4872C40.3717 26.7104 40.1827 26.9043 39.9394 27.0436L40.4363 27.9114C40.8354 27.6829 41.1498 27.3616 41.3659 26.99L40.5015 26.4872ZM39.9394 27.0436C39.6957 27.1832 39.4309 27.249 39.1695 27.2488L39.1689 28.2488C39.5999 28.2491 40.0369 28.1401 40.4363 27.9114L39.9394 27.0436ZM38.3982 27.0441C38.1713 26.9146 37.9749 26.7261 37.834 26.4843L36.97 26.9878C37.202 27.386 37.5274 27.6985 37.9024 27.9125L38.3982 27.0441ZM37.8342 26.4847L37.3705 25.6874L36.5061 26.1902L36.9698 26.9874L37.8342 26.4847ZM36.9068 24.8901L35.9794 23.2956L35.115 23.7983L36.0424 25.3929L36.9068 24.8901ZM35.5158 22.4983L34.5884 20.9037L33.7239 21.4065L34.6513 23.001L35.5158 22.4983ZM34.1247 20.1065L33.1973 18.5119L32.3329 19.0147L33.2602 20.6092L34.1247 20.1065ZM32.7336 17.7146L32.2699 16.9174L31.4055 17.4201L31.8692 18.2174L32.7336 17.7146Z" fill="#616161"/>
</g>
<defs>
<linearGradient id="paint0_linear_1706_15691" x1="19.2344" y1="40.6401" x2="25.7274" y2="60.1412" gradientUnits="userSpaceOnUse">
<stop stop-color="#FF8120"/>
<stop offset="1" stop-color="#E54304"/>
</linearGradient>
<clipPath id="clip0_1706_15691">
<rect width="58" height="58" fill="white"/>
</clipPath>
</defs>
</svg>
