<svg width="58" height="58" viewBox="0 0 58 58" fill="none" xmlns="http://www.w3.org/2000/svg">
<g clip-path="url(#clip0_1706_15562)">
<path fill-rule="evenodd" clip-rule="evenodd" d="M19.5826 28.6593H12.3607C11.6092 28.6593 11 29.2741 11 30.0323C11 30.7906 11.6092 31.4054 12.3607 31.4054H14.103V56.627C14.103 57.3853 15.1345 58.0001 15.886 58.0001C16.6375 58.0001 17.7825 57.3853 17.7825 56.627V31.4054H19.5826C20.3341 31.4054 20.9433 30.7906 20.9433 30.0323C20.9433 29.2741 20.3341 28.6593 19.5826 28.6593Z" fill="url(#paint0_linear_1706_15562)"/>
<path d="M14.103 31.4054H14.603V30.9054H14.103V31.4054ZM17.7825 31.4054V30.9054H17.2825V31.4054H17.7825ZM12.3607 29.1593H19.5826V28.1593H12.3607V29.1593ZM11.5 30.0323C11.5 29.5459 11.8896 29.1593 12.3607 29.1593V28.1593C11.3289 28.1593 10.5 29.0022 10.5 30.0323H11.5ZM12.3607 30.9054C11.8896 30.9054 11.5 30.5187 11.5 30.0323H10.5C10.5 31.0625 11.3289 31.9054 12.3607 31.9054V30.9054ZM14.103 30.9054H12.3607V31.9054H14.103V30.9054ZM14.603 56.627V31.4054H13.603V56.627H14.603ZM15.886 57.5001C15.6292 57.5001 15.2823 57.3881 15.0011 57.1895C14.7108 56.9844 14.603 56.7727 14.603 56.627H13.603C13.603 57.2396 14.011 57.7144 14.4242 58.0063C14.8466 58.3047 15.3912 58.5001 15.886 58.5001V57.5001ZM17.2825 56.627C17.2825 56.7502 17.1746 56.9623 16.8425 57.1794C16.5279 57.385 16.1474 57.5001 15.886 57.5001V58.5001C16.3761 58.5001 16.9438 58.3078 17.3896 58.0165C17.8179 57.7365 18.2825 57.2622 18.2825 56.627H17.2825ZM17.2825 31.4054V56.627H18.2825V31.4054H17.2825ZM19.5826 30.9054H17.7825V31.9054H19.5826V30.9054ZM20.4433 30.0323C20.4433 30.5187 20.0537 30.9054 19.5826 30.9054V31.9054C20.6144 31.9054 21.4433 31.0625 21.4433 30.0323H20.4433ZM19.5826 29.1593C20.0537 29.1593 20.4433 29.5459 20.4433 30.0323H21.4433C21.4433 29.0022 20.6144 28.1593 19.5826 28.1593V29.1593Z" fill="#FF8120"/>
<path d="M42.482 57.6034L42.3497 57.1213H42.3497L42.482 57.6034ZM38.4601 55.2833L37.9773 55.4136L37.9774 55.4139L38.4601 55.2833ZM44.7814 53.5452L44.2986 53.6754L44.2987 53.6757L44.7814 53.5452ZM41.1003 39.9044L40.6469 39.6937L40.5701 39.8588L40.6176 40.0346L41.1003 39.9044ZM46.256 28.8102L46.7094 29.021L46.7095 29.0209L46.256 28.8102ZM46.4827 28.1507L46.0084 27.9923L46.0008 28.0151L45.9954 28.0386L46.4827 28.1507ZM45.2288 22.5883L44.8692 22.9357V22.9357L45.2288 22.5883ZM34.7387 11.7288L35.0983 11.3814L35.0983 11.3814L34.7387 11.7288ZM27.0829 11.6289L26.7325 11.2723L26.7323 11.2724L27.0829 11.6289ZM25.7187 13.8308L26.1721 14.0416L26.1848 14.0143L26.1941 13.9857L25.7187 13.8308ZM21.6247 22.6402V23.1402H21.9437L22.0782 22.851L21.6247 22.6402ZM24.1267 26.4213L23.8633 25.9964L23.8407 26.0104L23.8197 26.0267L24.1267 26.4213ZM24.9264 25.5168L24.4729 25.306L24.4728 25.3062L24.9264 25.5168ZM27.5289 19.9165L27.8886 19.5691L27.3825 19.0452L27.0755 19.7058L27.5289 19.9165ZM37.4757 30.2149L37.116 30.5623L37.1162 30.5625L37.4757 30.2149ZM38.1071 30.775L38.5606 30.9857L38.7306 30.6199L38.409 30.3764L38.1071 30.775ZM34.6665 38.1797L34.213 37.969L34.2129 37.9692L34.6665 38.1797ZM34.3883 40.0388L34.8854 39.9847L34.8846 39.9773L34.8836 39.9698L34.3883 40.0388ZM34.4845 40.5496L34.0017 40.6797L34.0018 40.6799L34.4845 40.5496ZM27.2229 5.91969C27.2229 5.54181 27.1904 5.17116 27.1281 4.81052L26.1427 4.98089C26.1953 5.2855 26.2229 5.59915 26.2229 5.91969H27.2229ZM26.8439 3.73349C26.589 3.02421 26.2139 2.37327 25.7435 1.80571L24.9736 2.44383C25.371 2.92334 25.6877 3.47304 25.9028 4.07161L26.8439 3.73349ZM24.9611 1.01276C24.398 0.533301 23.7507 0.150233 23.0443 -0.110515L22.698 0.827613C23.292 1.04687 23.8375 1.36941 24.3129 1.77418L24.9611 1.01276ZM21.9673 -0.402436C21.6062 -0.466596 21.2348 -0.5 20.8562 -0.5V0.5C21.1759 0.5 21.4887 0.528197 21.7924 0.582149L21.9673 -0.402436ZM20.8562 -0.5C20.4775 -0.5 20.1062 -0.466622 19.745 -0.402509L19.9198 0.582096C20.2235 0.52818 20.5364 0.5 20.8562 0.5V-0.5ZM18.668 -0.110723C17.9615 0.149969 17.3141 0.533 16.751 1.01244L17.3992 1.77387C17.8746 1.36916 18.4201 1.04666 19.0142 0.827453L18.668 -0.110723ZM15.9685 1.80546C15.4981 2.37308 15.1231 3.02409 14.8683 3.73344L15.8095 4.07145C16.0245 3.4728 16.3411 2.92306 16.7385 2.44353L15.9685 1.80546ZM14.5843 4.81052C14.5219 5.17116 14.4895 5.54181 14.4895 5.91969H15.4895C15.4895 5.59912 15.517 5.28544 15.5696 4.98081L14.5843 4.81052ZM14.4895 5.91969C14.4895 6.29756 14.5219 6.66822 14.5843 7.02886L15.5696 6.85857C15.517 6.55394 15.4895 6.24025 15.4895 5.91969H14.4895ZM14.8683 8.10593C15.1231 8.81529 15.4981 9.4663 15.9685 10.0339L16.7385 9.39584C16.3411 8.91632 16.0245 8.36657 15.8095 7.76792L14.8683 8.10593ZM16.751 10.8269C17.3141 11.3064 17.9615 11.6894 18.668 11.9501L19.0142 11.0119C18.4201 10.7927 17.8746 10.4702 17.3992 10.0655L16.751 10.8269ZM19.745 12.2419C20.1062 12.306 20.4775 12.3394 20.8562 12.3394V11.3394C20.5364 11.3394 20.2235 11.3112 19.9198 11.2573L19.745 12.2419ZM20.8562 12.3394C21.2348 12.3394 21.6062 12.306 21.9673 12.2418L21.7924 11.2572C21.4887 11.3112 21.1759 11.3394 20.8562 11.3394V12.3394ZM23.0443 11.9499C23.7507 11.6891 24.398 11.3061 24.9611 10.8266L24.3129 10.0652C23.8375 10.47 23.292 10.7925 22.698 11.0118L23.0443 11.9499ZM25.7435 10.0337C26.2139 9.46611 26.589 8.81517 26.8439 8.10588L25.9028 7.76776C25.6877 8.36634 25.371 8.91604 24.9736 9.39555L25.7435 10.0337ZM27.1281 7.02886C27.1904 6.66822 27.2229 6.29757 27.2229 5.91969H26.2229C26.2229 6.24022 26.1953 6.55388 26.1427 6.85849L27.1281 7.02886ZM42.3497 57.1213C42.1087 57.1874 41.8673 57.2192 41.6303 57.2201L41.634 58.2201C41.9585 58.2189 42.2876 58.1752 42.6143 58.0856L42.3497 57.1213ZM40.9114 57.1264C40.4413 57.0001 40.0098 56.7504 39.6638 56.4037L38.956 57.1102C39.4256 57.5806 40.0115 57.9201 40.652 58.0922L40.9114 57.1264ZM39.2217 55.8264C39.1029 55.6203 39.0082 55.3949 38.9427 55.1527L37.9774 55.4139C38.0656 55.7399 38.1937 56.0452 38.3551 56.3255L39.2217 55.8264ZM38.9428 55.153L38.6778 54.1708L37.7123 54.4313L37.9773 55.4136L38.9428 55.153ZM38.4127 53.1886L37.8827 51.2241L36.9172 51.4846L37.4473 53.4491L38.4127 53.1886ZM37.6176 50.2418L37.0875 48.2773L36.1221 48.5378L36.6521 50.5023L37.6176 50.2418ZM36.8225 47.2951L36.2924 45.3306L35.327 45.5911L35.857 47.5556L36.8225 47.2951ZM36.0274 44.3483L35.4973 42.3838L34.5319 42.6444L35.0619 44.6088L36.0274 44.3483ZM35.2323 41.4016L34.9672 40.4194L34.0018 40.6799L34.2668 41.6621L35.2323 41.4016ZM34.9673 40.4195C34.9544 40.3716 34.9428 40.3237 34.9325 40.2759L33.9549 40.4863C33.9688 40.5508 33.9844 40.6153 34.0017 40.6797L34.9673 40.4195ZM34.9052 40.1308C34.8973 40.0821 34.8907 40.0334 34.8854 39.9847L33.8913 40.0929C33.8984 40.1587 33.9073 40.2246 33.918 40.2905L34.9052 40.1308ZM34.8836 39.9698C34.8589 39.7925 34.8508 39.6122 34.8604 39.4314L33.8617 39.3788C33.8488 39.6239 33.8597 39.868 33.8931 40.1078L34.8836 39.9698ZM34.9401 38.8988C34.9829 38.7273 35.0425 38.557 35.12 38.3902L34.2129 37.9692C34.1086 38.1939 34.0279 38.424 33.9698 38.6567L34.9401 38.8988ZM35.1199 38.3904L35.5022 37.5677L34.5953 37.1463L34.213 37.969L35.1199 38.3904ZM35.8845 36.7449L36.6491 35.0994L35.7422 34.678L34.9776 36.3235L35.8845 36.7449ZM37.0314 34.2767L37.796 32.6312L36.8891 32.2098L36.1245 33.8553L37.0314 34.2767ZM38.1783 31.8085L38.5606 30.9857L37.6537 30.5643L37.2714 31.3871L38.1783 31.8085ZM38.409 30.3764C38.2083 30.2244 38.0163 30.0548 37.8351 29.8674L37.1162 30.5625C37.3332 30.7869 37.5637 30.9907 37.8053 31.1737L38.409 30.3764ZM37.8353 29.8676L37.1722 29.181L36.4529 29.8757L37.116 30.5623L37.8353 29.8676ZM36.5091 28.4945L35.1828 27.1213L34.4636 27.816L35.7898 29.1892L36.5091 28.4945ZM34.5197 26.4348L33.1935 25.0616L32.4742 25.7564L33.8004 27.1295L34.5197 26.4348ZM32.5304 24.3751L31.2042 23.0019L30.4849 23.6967L31.8111 25.0698L32.5304 24.3751ZM30.541 22.3154L29.2148 20.9423L28.4955 21.637L29.8218 23.0101L30.541 22.3154ZM28.5517 20.2557L27.8886 19.5691L27.1693 20.2638L27.8324 20.9504L28.5517 20.2557ZM27.0755 19.7058L26.6417 20.6391L27.5486 21.0606L27.9824 20.1272L27.0755 19.7058ZM26.208 21.5725L25.3405 23.4393L26.2473 23.8607L27.1148 21.994L26.208 21.5725ZM24.9067 24.3727L24.4729 25.306L25.3798 25.7275L25.8135 24.7941L24.9067 24.3727ZM24.4728 25.3062C24.4279 25.4031 24.3749 25.493 24.3152 25.5755L25.1255 26.1614C25.2225 26.0273 25.3079 25.8823 25.3799 25.7273L24.4728 25.3062ZM24.1098 25.808C24.0335 25.8791 23.9508 25.9421 23.8633 25.9964L24.3902 26.8463C24.5325 26.7581 24.667 26.6556 24.7913 26.5398L24.1098 25.808ZM23.8197 26.0267C23.7282 26.0979 23.629 26.1591 23.5238 26.2089L23.9512 27.1129C24.1235 27.0315 24.2851 26.9316 24.4337 26.816L23.8197 26.0267ZM23.1963 26.3214C23.0855 26.3461 22.9701 26.3592 22.8509 26.3592V27.3592C23.0439 27.3592 23.2325 27.3379 23.4143 27.2973L23.1963 26.3214ZM22.8509 26.3592H21.8374V27.3592H22.8509V26.3592ZM20.8239 26.3592H18.7969V27.3592H20.8239V26.3592ZM17.7833 26.3592H15.7563V27.3592H17.7833V26.3592ZM14.7428 26.3592H13.7293V27.3592H14.7428V26.3592ZM13.7293 26.3592C13.4383 26.3592 13.1668 26.2807 12.933 26.1437L12.4273 27.0064C12.8101 27.2308 13.2554 27.3592 13.7293 27.3592V26.3592ZM12.3505 25.5534C12.216 25.3176 12.1387 25.0437 12.1387 24.7497H11.1387C11.1387 25.2216 11.2633 25.6658 11.482 26.049L12.3505 25.5534ZM12.1387 24.7497C12.1387 24.4557 12.216 24.1818 12.3505 23.946L11.482 23.4504C11.2633 23.8336 11.1387 24.2778 11.1387 24.7497H12.1387ZM12.933 23.3558C13.1668 23.2187 13.4383 23.1402 13.7293 23.1402V22.1402C13.2554 22.1402 12.8101 22.2687 12.4273 22.4931L12.933 23.3558ZM13.7293 23.1402H14.6065V22.1402H13.7293V23.1402ZM15.4838 23.1402H17.2384V22.1402H15.4838V23.1402ZM18.1156 23.1402H19.8702V22.1402H18.1156V23.1402ZM20.7475 23.1402H21.6247V22.1402H20.7475V23.1402ZM22.0782 22.851L22.533 21.8721L21.6262 21.4507L21.1713 22.4295L22.0782 22.851ZM22.9879 20.8933L23.8977 18.9357L22.9908 18.5142L22.0811 20.4719L22.9879 20.8933ZM24.3526 17.9568L25.2624 15.9992L24.3555 15.5778L23.4457 17.5354L24.3526 17.9568ZM25.7172 15.0204L26.1721 14.0416L25.2653 13.6201L24.8104 14.5989L25.7172 15.0204ZM26.1941 13.9857C26.2754 13.736 26.3768 13.4918 26.4982 13.2554L25.6088 12.7984C25.4627 13.0826 25.3409 13.3762 25.2433 13.676L26.1941 13.9857ZM26.9148 12.5833C27.0691 12.3739 27.242 12.1738 27.4335 11.9854L26.7323 11.2724C26.5028 11.4982 26.2952 11.7383 26.1097 11.9902L26.9148 12.5833ZM27.4334 11.9855C27.6421 11.7804 27.8638 11.5981 28.0957 11.4383L27.5282 10.6149C27.2489 10.8074 26.9825 11.0266 26.7325 11.2723L27.4334 11.9855ZM28.8414 11.0159C29.3688 10.7758 29.9294 10.6347 30.496 10.5924L30.4215 9.59514C29.7392 9.64615 29.0634 9.81614 28.4272 10.1057L28.8414 11.0159ZM31.3537 10.6036C31.919 10.6607 32.4758 10.8164 32.9968 11.0701L33.4346 10.1711C32.8061 9.86497 32.135 9.67742 31.4543 9.60862L31.3537 10.6036ZM33.7312 11.5118C33.9588 11.6776 34.1758 11.8657 34.3791 12.0762L35.0983 11.3814C34.8547 11.1293 34.5941 10.9032 34.32 10.7035L33.7312 11.5118ZM34.3791 12.0762L35.0784 12.8001L35.7976 12.1054L35.0983 11.3814L34.3791 12.0762ZM35.7778 13.5241L37.1764 14.972L37.8957 14.2773L36.497 12.8293L35.7778 13.5241ZM37.8758 15.696L39.2745 17.1439L39.9937 16.4492L38.595 15.0012L37.8758 15.696ZM39.9738 17.8679L41.3725 19.3158L42.0917 18.6211L40.693 17.1731L39.9738 17.8679ZM42.0718 20.0398L43.4705 21.4878L44.1898 20.793L42.7911 19.345L42.0718 20.0398ZM44.1699 22.2117L44.8692 22.9357L45.5884 22.2409L44.8891 21.517L44.1699 22.2117ZM44.8692 22.9357C45.0836 23.1576 45.273 23.3943 45.4377 23.6423L46.2708 23.0892C46.0727 22.7909 45.8453 22.5068 45.5884 22.2409L44.8692 22.9357ZM45.8676 24.4399C46.1072 25.0025 46.2388 25.6007 46.2626 26.2028L47.2618 26.1634C47.2334 25.4422 47.0756 24.7243 46.7877 24.0481L45.8676 24.4399ZM46.2165 27.1093C46.1741 27.4084 46.1047 27.704 46.0084 27.9923L46.9569 28.3091C47.0725 27.9629 47.1558 27.6082 47.2066 27.2498L46.2165 27.1093ZM45.9954 28.0386C45.9807 28.1025 45.9637 28.1662 45.9443 28.2297L46.9007 28.5216C46.927 28.4357 46.95 28.3494 46.9699 28.2628L45.9954 28.0386ZM45.8799 28.4169C45.8565 28.4781 45.8307 28.539 45.8026 28.5995L46.7095 29.0209C46.7473 28.9396 46.782 28.8575 46.8137 28.7748L45.8799 28.4169ZM45.8026 28.5995L45.3729 29.524L46.2798 29.9455L46.7094 29.021L45.8026 28.5995ZM44.9433 30.4485L44.084 32.2976L44.9909 32.719L45.8502 30.87L44.9433 30.4485ZM43.6544 33.2221L42.7951 35.0711L43.702 35.4925L44.5612 33.6435L43.6544 33.2221ZM42.3655 35.9956L41.5062 37.8446L42.413 38.2661L43.2723 36.417L42.3655 35.9956ZM41.0765 38.7691L40.6469 39.6937L41.5537 40.1151L41.9834 39.1906L41.0765 38.7691ZM40.6176 40.0346L40.863 40.944L41.8284 40.6835L41.583 39.7741L40.6176 40.0346ZM41.1084 41.8534L41.5992 43.6722L42.5647 43.4116L42.0739 41.5929L41.1084 41.8534ZM41.8446 44.5816L42.3354 46.4003L43.3009 46.1398L42.8101 44.321L41.8446 44.5816ZM42.5808 47.3097L43.0716 49.1285L44.0371 48.868L43.5463 47.0492L42.5808 47.3097ZM43.317 50.0379L43.8078 51.8567L44.7733 51.5961L44.2825 49.7773L43.317 50.0379ZM44.0532 52.766L44.2986 53.6754L45.2641 53.4149L45.0187 52.5055L44.0532 52.766ZM44.2987 53.6757C44.3643 53.9184 44.3962 54.1617 44.3976 54.4008L45.3976 54.395C45.3957 54.0705 45.3524 53.7414 45.264 53.4147L44.2987 53.6757ZM44.3068 55.1258C44.1828 55.6021 43.9362 56.0387 43.5944 56.3885L44.3096 57.0874C44.7736 56.6126 45.1069 56.0218 45.2745 55.3777L44.3068 55.1258ZM43.0211 56.8379C42.8157 56.9588 42.5911 57.055 42.3497 57.1213L42.6143 58.0856C42.9417 57.9958 43.2479 57.8648 43.5285 57.6996L43.0211 56.8379Z" fill="#616161"/>
</g>
<defs>
<linearGradient id="paint0_linear_1706_15562" x1="13.7966" y1="33.855" x2="25.7551" y2="39.7578" gradientUnits="userSpaceOnUse">
<stop stop-color="#FF8120"/>
<stop offset="1" stop-color="#E54304"/>
</linearGradient>
<clipPath id="clip0_1706_15562">
<rect width="58" height="58" fill="white"/>
</clipPath>
</defs>
</svg>
