<svg width="58" height="58" viewBox="0 0 58 58" fill="none" xmlns="http://www.w3.org/2000/svg">
<path fill-rule="evenodd" clip-rule="evenodd" d="M19.7455 9.68128C19.318 9.85106 19.046 10.3422 19.2483 10.8363C19.316 11.0016 19.468 11.2535 19.7324 11.6914L19.7324 11.6914L19.7324 11.6914C20.2583 12.5626 21.2286 14.1699 22.8627 17.2958C23.7173 19.6761 24.2526 20.6276 24.7412 21.496C25.2317 22.3678 25.6751 23.1559 26.3472 25.2221C27.464 28.6555 27.1154 29.7448 26.9672 30.2077C26.9374 30.3008 26.9157 30.3686 26.9157 30.425C26.9157 30.7617 21.9608 38.8425 21.3166 39.6673C20.6723 40.4922 18.991 41.1874 17.6268 41.6117C16.2626 42.0359 11.4573 43.8897 12.0505 46.8716C12.6436 49.8535 14.3621 50.466 17.1562 51.4554C19.9503 52.4449 21.2408 52.5102 23.3986 51.4554C25.5564 50.4007 32.5097 45.2499 34.6416 43.3705C35.5403 42.5783 36.9854 41.8517 38.5612 41.0594C39.224 40.7261 39.91 40.3812 40.5882 40.0149C40.6395 39.7188 40.8696 39.4254 41.214 39.2622C41.4928 39.1302 41.7878 39.1113 42.0261 39.1887C42.3023 39.0181 42.573 38.8424 42.8361 38.6608C42.8886 38.3919 43.0778 38.1218 43.3679 37.9448C43.5736 37.8193 43.7961 37.7612 44.0003 37.7662C44.2522 37.5482 44.4908 37.322 44.713 37.0866C45.4255 36.3319 45.8143 35.4693 45.9603 34.5767C45.7826 34.4445 45.6614 34.18 45.6614 33.8751C45.6614 33.5481 45.8009 33.2674 46 33.1468C45.7962 31.0652 44.5278 29.0426 43.1857 28.0326C42.7927 27.6419 42.4803 27.345 42.2135 27.0914C41.1426 26.0736 40.8057 25.7533 38.9384 22.8717C36.5593 20.2113 35.5603 10.5358 35.2153 7.19545L35.2153 7.19541C35.1566 6.6271 35.1169 6.24217 35.0925 6.10638C34.9414 5.26506 34.7887 5.22465 34.1867 5.06544C34.1204 5.04791 34.0487 5.02895 33.971 5.00733C33.187 4.7892 20.173 9.5115 19.7455 9.68128ZM39.5398 38.0577C39.9701 38.0577 40.319 37.7035 40.319 37.2665C40.319 36.8294 39.9701 36.4752 39.5398 36.4752C39.1095 36.4752 38.7607 36.8294 38.7607 37.2665C38.7607 37.7035 39.1095 38.0577 39.5398 38.0577ZM33.6406 43.2576C33.6406 43.5073 33.4413 43.7098 33.1954 43.7098C32.9495 43.7098 32.7502 43.5073 32.7502 43.2576C32.7502 43.0079 32.9495 42.8054 33.1954 42.8054C33.4413 42.8054 33.6406 43.0079 33.6406 43.2576ZM30.5293 45.8524C30.7109 46.0368 31.0053 46.0368 31.1869 45.8524C31.3685 45.668 31.3685 45.369 31.1869 45.1846C31.0053 45.0002 30.7109 45.0002 30.5293 45.1846C30.3478 45.369 30.3478 45.668 30.5293 45.8524ZM31.8598 43.0316C31.8598 43.2814 31.6605 43.4838 31.4146 43.4838C31.1687 43.4838 30.9694 43.2814 30.9694 43.0316C30.9694 42.7819 31.1687 42.5795 31.4146 42.5795C31.6605 42.5795 31.8598 42.7819 31.8598 43.0316ZM30.5241 44.6141C30.77 44.6141 30.9694 44.4117 30.9694 44.1619C30.9694 43.9122 30.77 43.7098 30.5241 43.7098C30.2783 43.7098 30.0789 43.9122 30.0789 44.1619C30.0789 44.4117 30.2783 44.6141 30.5241 44.6141ZM29.8564 45.5186C29.8564 45.7684 29.6571 45.9708 29.4112 45.9708C29.1653 45.9708 28.966 45.7684 28.966 45.5186C28.966 45.2689 29.1653 45.0665 29.4112 45.0665C29.6571 45.0665 29.8564 45.2689 29.8564 45.5186ZM28.2981 47.1011C28.544 47.1011 28.7433 46.8987 28.7433 46.6489C28.7433 46.3992 28.544 46.1968 28.2981 46.1968C28.0522 46.1968 27.8529 46.3992 27.8529 46.6489C27.8529 46.8987 28.0522 47.1011 28.2981 47.1011ZM27.4077 47.7792C27.4077 48.0289 27.2083 48.2314 26.9624 48.2314C26.7166 48.2314 26.5172 48.0289 26.5172 47.7792C26.5172 47.5295 26.7166 47.3271 26.9624 47.3271C27.2083 47.3271 27.4077 47.5295 27.4077 47.7792ZM38.7979 40.304C39.341 40.1968 39.7147 39.7621 39.6326 39.3332C39.5505 38.9042 39.0436 38.6433 38.5006 38.7505C37.9575 38.8577 37.5838 39.2924 37.6659 39.7214C37.748 40.1504 38.2548 40.4112 38.7979 40.304ZM36.576 40.0744C36.8228 40.4324 36.6555 40.9838 36.2023 41.3061C35.7491 41.6284 35.1816 41.5994 34.9348 41.2415C34.688 40.8835 34.8553 40.332 35.3085 40.0098C35.7617 39.6875 36.3291 39.7164 36.576 40.0744ZM42.4336 36.9275C42.8639 36.9275 43.2127 36.5732 43.2127 36.1362C43.2127 35.6992 42.8639 35.3449 42.4336 35.3449C42.0033 35.3449 41.6545 35.6992 41.6545 36.1362C41.6545 36.5732 42.0033 36.9275 42.4336 36.9275ZM45.2163 34.7795C45.2163 35.2165 44.9671 35.5707 44.6598 35.5707C44.3524 35.5707 44.1033 35.2165 44.1033 34.7795C44.1033 34.3424 44.3524 33.9882 44.6598 33.9882C44.9671 33.9882 45.2163 34.3424 45.2163 34.7795Z" fill="url(#paint0_linear_1706_15862)"/>
<defs>
<linearGradient id="paint0_linear_1706_15862" x1="21.5625" y1="13.3623" x2="45.7813" y2="38.7604" gradientUnits="userSpaceOnUse">
<stop stop-color="#FF8120"/>
<stop offset="1" stop-color="#E54304"/>
</linearGradient>
</defs>
</svg>
