<svg width="58" height="58" viewBox="0 0 58 58" fill="none" xmlns="http://www.w3.org/2000/svg">
<path d="M45.0099 24.9251L44.5099 24.9136V24.9251H45.0099ZM45.0099 24.8147H44.5098L44.5101 24.8262L45.0099 24.8147ZM45.0099 22.6968L44.5099 22.686V22.6968H45.0099ZM24.3826 22.4991V22.9991H24.8531L24.8817 22.5294L24.3826 22.4991ZM45.0092 24.9508V24.4508H44.5257L44.5095 24.9341L45.0092 24.9508ZM45.0099 24.9508V25.4508H45.5099V24.9508H45.0099ZM54.0464 23.6223C54.0464 23.254 53.9979 22.8962 53.9068 22.5553L52.9407 22.8136C53.0095 23.071 53.0464 23.342 53.0464 23.6223H54.0464ZM53.4943 21.5605C53.1325 20.9352 52.6113 20.4139 51.9859 20.052L51.4851 20.9176C51.9591 21.1918 52.3545 21.5873 52.6288 22.0613L53.4943 21.5605ZM50.9911 19.6395C50.6502 19.5484 50.2924 19.5 49.9241 19.5V20.5C50.2045 20.5 50.4754 20.5368 50.7328 20.6056L50.9911 19.6395ZM49.9241 19.5C49.5558 19.5 49.198 19.5485 48.8572 19.6397L49.1157 20.6057C49.373 20.5368 49.6438 20.5 49.9241 20.5V19.5ZM47.8626 20.0524C47.2376 20.4143 46.7166 20.9356 46.355 21.5609L47.2206 22.0616C47.4948 21.5876 47.8901 21.1921 48.3638 20.9177L47.8626 20.0524ZM45.9428 22.5556C45.8517 22.8964 45.8032 23.2541 45.8032 23.6223H46.8032C46.8032 23.3421 46.8401 23.0711 46.9089 22.8138L45.9428 22.5556ZM45.8032 23.6223C45.8032 23.9905 45.8517 24.3482 45.9428 24.6889L46.9088 24.4307C46.8401 24.1734 46.8032 23.9025 46.8032 23.6223H45.8032ZM46.355 25.6834C46.7168 26.3086 47.2378 26.8296 47.863 27.1913L48.3638 26.3258C47.89 26.0517 47.4947 25.6564 47.2206 25.1826L46.355 25.6834ZM48.8575 27.6036C49.1982 27.6947 49.5559 27.7431 49.9241 27.7431V26.7431C49.6439 26.7431 49.373 26.7063 49.1157 26.6376L48.8575 27.6036ZM49.9241 27.7431C50.2923 27.7431 50.65 27.6948 50.9908 27.6038L50.7328 26.6376C50.4754 26.7063 50.2045 26.7431 49.9241 26.7431V27.7431ZM51.9856 27.1917C52.6111 26.8301 53.1324 26.309 53.4943 25.6838L52.6288 25.1829C52.3546 25.6566 51.9591 26.0519 51.4851 26.326L51.9856 27.1917ZM53.9068 24.6892C53.9979 24.3483 54.0464 23.9906 54.0464 23.6223H53.0464C53.0464 23.9026 53.0096 24.1735 52.9407 24.4308L53.9068 24.6892ZM44.5099 24.9251V24.9337H45.5099V24.9251H44.5099ZM44.5099 24.9422V24.9508H45.5099V24.9422H44.5099ZM45.0099 24.4508H45.0097V25.4508H45.0099V24.4508ZM45.0094 24.4508H45.0092V25.4508H45.0094V24.4508ZM44.5095 24.9341C44.4983 25.2663 44.4008 25.5757 44.2388 25.8417L45.0927 26.3621C45.3419 25.9531 45.4918 25.4767 45.5089 24.9676L44.5095 24.9341ZM43.5564 26.5012C43.286 26.6536 42.9738 26.7407 42.6397 26.7407V27.7407C43.1502 27.7407 43.631 27.6071 44.0474 27.3724L43.5564 26.5012ZM42.6397 26.7407H41.6502V27.7407H42.6397V26.7407ZM40.6606 26.7407H38.6816V27.7407H40.6606V26.7407ZM37.692 26.7407H35.713V27.7407H37.692V26.7407ZM34.7234 26.7407H32.7443V27.7407H34.7234V26.7407ZM31.7548 26.7407H29.7757V27.7407H31.7548V26.7407ZM28.7862 26.7407H26.8071V27.7407H28.7862V26.7407ZM25.8176 26.7407H23.8385V27.7407H25.8176V26.7407ZM22.849 26.7407H20.8699V27.7407H22.849V26.7407ZM19.8804 26.7407H17.9013V27.7407H19.8804V26.7407ZM16.9118 26.7407H14.9327V27.7407H16.9118V26.7407ZM13.9431 26.7407H11.9641V27.7407H13.9431V26.7407ZM10.9745 26.7407H8.99546V27.7407H10.9745V26.7407ZM8.00592 26.7407H7.01638V27.7407H8.00592V26.7407ZM7.01638 26.7407C6.67473 26.7407 6.35588 26.6496 6.08118 26.4907L5.58037 27.3562C6.0032 27.6009 6.49421 27.7407 7.01638 27.7407V26.7407ZM5.39561 25.8051C5.23668 25.5304 5.14555 25.2115 5.14555 24.8699H4.14555C4.14555 25.3921 4.28541 25.8831 4.53005 26.3059L5.39561 25.8051ZM5.14555 24.8699C5.14555 24.5282 5.23668 24.2094 5.39561 23.9347L4.53005 23.4339C4.28541 23.8567 4.14555 24.3477 4.14555 24.8699H5.14555ZM6.08118 23.2491C6.35588 23.0902 6.67473 22.9991 7.01638 22.9991V21.9991C6.49421 21.9991 6.0032 22.1389 5.58037 22.3836L6.08118 23.2491ZM7.01638 22.9991H7.98117V21.9991H7.01638V22.9991ZM8.94596 22.9991H10.8755V21.9991H8.94596V22.9991ZM11.8403 22.9991H13.7699V21.9991H11.8403V22.9991ZM14.7347 22.9991H16.6643V21.9991H14.7347V22.9991ZM17.6291 22.9991H19.5586V21.9991H17.6291V22.9991ZM20.5234 22.9991H22.453V21.9991H20.5234V22.9991ZM23.4178 22.9991H24.3826V21.9991H23.4178V22.9991ZM24.8817 22.5294C24.9014 22.2047 25.0037 21.9031 25.168 21.6441L24.3238 21.1082C24.0713 21.506 23.9138 21.9706 23.8835 22.4688L24.8817 22.5294ZM25.8472 21.0054C26.1142 20.8582 26.421 20.7742 26.749 20.7742V19.7742C26.2479 19.7742 25.7754 19.903 25.3643 20.1297L25.8472 21.0054ZM26.749 20.7742H27.8084V19.7742H26.749V20.7742ZM28.8677 20.7742H30.9865V19.7742H28.8677V20.7742ZM32.0459 20.7742H34.1646V19.7742H32.0459V20.7742ZM35.224 20.7742H37.3428V19.7742H35.224V20.7742ZM38.4021 20.7742H40.5209V19.7742H38.4021V20.7742ZM41.5803 20.7742H42.6396V19.7742H41.5803V20.7742ZM42.6396 20.7742C42.9813 20.7742 43.3001 20.8653 43.5748 21.0243L44.0757 20.1587C43.6528 19.9141 43.1618 19.7742 42.6396 19.7742V20.7742ZM44.2604 21.7098C44.4193 21.9845 44.5105 22.3034 44.5105 22.645H45.5105C45.5105 22.1229 45.3706 21.6318 45.126 21.209L44.2604 21.7098ZM44.5105 22.645C44.5105 22.6496 44.5105 22.6542 44.5104 22.6587L45.5104 22.6658C45.5104 22.6589 45.5105 22.652 45.5105 22.645H44.5105ZM44.5103 22.6724C44.5102 22.6769 44.5101 22.6815 44.51 22.686L45.5098 22.7075C45.51 22.7006 45.5101 22.6936 45.5102 22.6866L44.5103 22.6724ZM44.5099 22.6968V23.4027H45.5099V22.6968H44.5099ZM44.5099 24.1087V24.8147H45.5099V24.1087H44.5099ZM44.5101 24.8262C44.5102 24.831 44.5103 24.8359 44.5103 24.8407L45.5102 24.8255C45.5101 24.8181 45.51 24.8107 45.5098 24.8033L44.5101 24.8262ZM44.5105 24.8553C44.5105 24.8602 44.5106 24.865 44.5106 24.8699H45.5106C45.5106 24.8625 45.5105 24.8551 45.5105 24.8477L44.5105 24.8553ZM44.5106 24.8699C44.5106 24.8748 44.5105 24.8796 44.5105 24.8845L45.5105 24.8921C45.5105 24.8847 45.5106 24.8773 45.5106 24.8699H44.5106ZM44.5103 24.8991C44.5103 24.9039 44.5102 24.9088 44.5101 24.9136L45.5098 24.9365C45.51 24.9291 45.5101 24.9217 45.5102 24.9143L44.5103 24.8991Z" fill="#616161"/>
<path fill-rule="evenodd" clip-rule="evenodd" d="M3.73679 32.4785C3.73679 32.5871 3.74471 32.6938 3.75999 32.7981H2.56976C1.15053 32.7981 0 33.9487 0 35.3694C0 36.7886 1.15053 37.9391 2.56976 37.9391H55.4302C56.8495 37.9391 58 36.7886 58 35.3694C58 33.9487 56.8495 32.7981 55.4302 32.7981H53.6238C53.6391 32.6938 53.647 32.5871 53.647 32.4785V32.3746C53.647 31.1662 52.6687 30.1879 51.4603 30.1879C50.2518 30.1879 49.2735 31.1662 49.2735 32.3746V32.4785C49.2735 32.5871 49.2814 32.6938 49.2967 32.7981H47.1185C47.1338 32.6938 47.1417 32.5871 47.1417 32.4785V32.3746C47.1417 31.1662 46.1634 30.1879 44.955 30.1879C43.7465 30.1879 42.7682 31.1662 42.7682 32.3746V32.4785C42.7682 32.5871 42.7761 32.6938 42.7914 32.7981H40.6134C40.6287 32.6938 40.6366 32.5871 40.6366 32.4785V32.3746C40.6366 31.1662 39.6583 30.1879 38.4499 30.1879C37.2414 30.1879 36.2631 31.1662 36.2631 32.3746V32.4785C36.2631 32.5871 36.271 32.6938 36.2863 32.7981H34.1081C34.1234 32.6938 34.1313 32.5871 34.1313 32.4785V32.3746C34.1313 31.1662 33.153 30.1879 31.9446 30.1879C30.7361 30.1879 29.7578 31.1662 29.7578 32.3746V32.4785C29.7578 32.5871 29.7657 32.6938 29.781 32.7981H27.6028C27.6181 32.6938 27.626 32.5871 27.626 32.4785V32.3746C27.626 31.1662 26.6477 30.1879 25.4393 30.1879C24.2308 30.1879 23.2525 31.1662 23.2525 32.3746V32.4785C23.2525 32.5871 23.2604 32.6938 23.2757 32.7981H21.0975C21.1128 32.6938 21.1207 32.5871 21.1207 32.4785V32.3746C21.1207 31.1662 20.1424 30.1879 18.934 30.1879C17.7255 30.1879 16.7472 31.1662 16.7472 32.3746V32.4785C16.7472 32.5871 16.7551 32.6938 16.7704 32.7981H14.5922C14.6075 32.6938 14.6154 32.5871 14.6154 32.4785V32.3746C14.6154 31.1662 13.6371 30.1879 12.4287 30.1879C11.2202 30.1879 10.2419 31.1662 10.2419 32.3746V32.4785C10.2419 32.5871 10.2498 32.6938 10.2651 32.7981H8.08709C8.10237 32.6938 8.11029 32.5871 8.11029 32.4785V32.3746C8.11029 31.1662 7.13197 30.1879 5.92354 30.1879C4.71511 30.1879 3.73679 31.1662 3.73679 32.3746V32.4785Z" fill="url(#paint0_linear_1706_15958)"/>
<defs>
<linearGradient id="paint0_linear_1706_15958" x1="16.3125" y1="31.5605" x2="17.0368" y2="39.4538" gradientUnits="userSpaceOnUse">
<stop stop-color="#FF8120"/>
<stop offset="1" stop-color="#E54304"/>
</linearGradient>
</defs>
</svg>
