<svg xmlns="http://www.w3.org/2000/svg" width="21" height="21" viewBox="0 0 21 21">
  <g id="그룹_1" data-name="그룹 1" transform="translate(0.5 0.5)">
    <path id="Path" d="M19.894,8.175A1.94,1.94,0,0,0,20,7.538a2.01,2.01,0,0,0-.879-1.651c-1.794-1.243-1.557-.931-2.232-2.952a2.115,2.115,0,0,0-2.02-1.414h-.006c-2.211.007-1.828.126-3.612-1.128a2.191,2.191,0,0,0-2.5,0c-1.8,1.262-1.4,1.135-3.612,1.127H5.131A2.113,2.113,0,0,0,3.112,2.934C2.436,4.961,2.668,4.648.881,5.887A2.012,2.012,0,0,0,0,7.54a1.979,1.979,0,0,0,.106.635C.8,10.2.8,9.81.106,11.825A1.975,1.975,0,0,0,0,12.46a2.013,2.013,0,0,0,.881,1.653c1.788,1.242,1.557.927,2.232,2.953a2.111,2.111,0,0,0,2.018,1.414h.006c2.211-.007,1.828-.127,3.612,1.128a2.189,2.189,0,0,0,2.5,0c1.784-1.253,1.4-1.135,3.612-1.128h.006a2.117,2.117,0,0,0,2.02-1.414c.676-2.023.438-1.71,2.233-2.953A2.017,2.017,0,0,0,20,12.461a1.939,1.939,0,0,0-.106-.636C19.2,9.8,19.2,10.189,19.894,8.175Z" fill="#fff" stroke="rgba(0,0,0,0)" stroke-miterlimit="10" stroke-width="1"/>
    <path id="Path-2" data-name="Path" d="M3.75,7.916,0,4.279,1.548,2.732l2.2,2.088L8.452,0,10,1.548Z" transform="translate(5 6.042)" fill="#333" stroke="rgba(0,0,0,0)" stroke-miterlimit="10" stroke-width="1"/>
  </g>
</svg>
