<svg width="8" height="8" viewBox="0 0 8 8" fill="none" xmlns="http://www.w3.org/2000/svg">
<path d="M6.7175 3.18195L3.88908 0.353523C3.69381 0.158261 3.37723 0.158261 3.18197 0.353523C2.98671 0.548785 2.98671 0.865367 3.18197 1.06063L6.0104 3.88906C6.20566 4.08432 6.52224 4.08432 6.7175 3.88906C6.91277 3.69379 6.91277 3.37721 6.7175 3.18195Z" fill="white"/>
<path d="M6.71751 3.88906C6.91277 3.6938 6.91277 3.37722 6.71751 3.18195C6.52224 2.98669 6.20566 2.98669 6.0104 3.18195L3.18197 6.01038C2.98671 6.20564 2.98671 6.52222 3.18197 6.71749C3.37723 6.91275 3.69382 6.91275 3.88908 6.71749L6.71751 3.88906Z" fill="white"/>
</svg>
