<svg width="66" height="21" viewBox="0 0 66 21" fill="none" xmlns="http://www.w3.org/2000/svg">
<g clip-path="url(#clip0_32_434)">
<path d="M2.28401 20.1534H0V0.996735L2.28401 0.5V20.1534ZM8.39262 6.2509L10.1802 7.53973L5.7846 13.0416L10.8747 19.1379L9.11157 20.5012L3.10322 13.1649L8.39262 6.2509Z" fill="#FFCC00"/>
<path d="M12.897 16.5101C12.897 15.1383 13.3555 14.0936 14.2762 13.3747C15.1945 12.6558 16.5309 12.2958 18.2855 12.2958H20.9192V11.4292C20.9192 9.33002 19.9911 8.28163 18.1375 8.28163C17.5421 8.28163 16.9173 8.36462 16.2644 8.52939C15.6102 8.69537 15.0099 8.90041 14.4633 9.14817L13.7921 7.53714C14.4707 7.15757 15.203 6.86343 15.9905 6.65717C16.7767 6.45091 17.5421 6.34717 18.2855 6.34717C21.4975 6.34717 23.1029 8.05706 23.1029 11.4768V20.1508H21.4156L21.1417 18.6642C20.4631 19.2098 19.7393 19.6309 18.969 19.9287C18.1999 20.2265 17.4675 20.3741 16.7706 20.3741C15.5625 20.3741 14.6162 20.0312 13.929 19.3453C13.2418 18.6594 12.897 17.7135 12.897 16.5077M17.1838 18.5398C17.4968 18.5398 17.8221 18.4983 18.1608 18.4153C18.4982 18.3323 18.8357 18.2261 19.1744 18.0931C19.5131 17.96 19.831 17.7989 20.1269 17.6098C20.424 17.4194 20.6881 17.2168 20.9192 17.0032V13.8311H18.5447C17.3428 13.8311 16.4649 14.0374 15.911 14.4499C15.3596 14.8625 15.0832 15.5154 15.0832 16.4076C15.0832 17.8282 15.7826 18.5385 17.185 18.5385" fill="#FFCC00"/>
<path d="M29.4512 20.1534H27.1672V0.996735L29.4512 0.5V20.1534ZM35.5574 6.2509L37.3449 7.53973L32.9518 13.0416L38.0407 19.1379L36.2787 20.5012L30.2704 13.1649L35.5574 6.2509Z" fill="#FFCC00"/>
<path d="M40.0643 16.5101C40.0643 15.1383 40.5228 14.0936 41.441 13.3747C42.3605 12.6558 43.6957 12.2958 45.4515 12.2958H48.0827V11.4292C48.0827 9.33002 47.1559 8.28163 45.3023 8.28163C44.7056 8.28163 44.0821 8.36462 43.4267 8.52939C42.7726 8.69537 42.1722 8.90041 41.6281 9.14817L40.9568 7.53714C41.6354 7.15757 42.3678 6.86343 43.154 6.65717C43.939 6.45091 44.7056 6.34717 45.4503 6.34717C48.6611 6.34717 50.2677 8.05706 50.2677 11.4768V20.1508H48.5779L48.3053 18.6642C47.6267 19.2098 46.9041 19.6309 46.1325 19.9287C45.3635 20.2265 44.6311 20.3741 43.9366 20.3741C42.7273 20.3741 41.7797 20.0312 41.0926 19.3453C40.4054 18.6594 40.063 17.7135 40.063 16.5077M44.3498 18.5398C44.6616 18.5398 44.9881 18.4983 45.3256 18.4153C45.6642 18.3323 46.0017 18.2261 46.3392 18.0931C46.6779 17.96 46.9945 17.7989 47.2917 17.6098C47.5876 17.4194 47.8504 17.2168 48.0827 17.0032V13.8311H45.7095C44.5051 13.8311 43.6272 14.0374 43.0758 14.4499C42.5231 14.8625 42.248 15.5154 42.248 16.4076C42.248 17.8282 42.9474 18.5385 44.3498 18.5385" fill="#FFCC00"/>
<path d="M59.4588 6.37402C61.3454 6.37402 62.8273 6.98548 63.9021 8.20718C64.9793 9.43132 65.5172 11.1815 65.5172 13.4626C65.5172 15.7436 64.9841 17.4365 63.9155 18.6423C62.8481 19.8469 61.3613 20.451 59.4588 20.451C57.5562 20.451 56.0902 19.8481 55.0155 18.6423C53.9383 17.4365 53.4003 15.7083 53.4003 13.4626C53.4003 11.2169 53.9419 9.43132 55.0265 8.20718C56.111 6.98548 57.588 6.37402 59.4588 6.37402ZM59.4588 8.20718C58.2678 8.20718 57.3533 8.65266 56.715 9.54605C56.0768 10.4382 55.7576 11.7441 55.7576 13.4626C55.7576 15.181 56.0768 16.4491 56.715 17.3168C57.352 18.1834 58.2666 18.6179 59.4588 18.6179C60.6509 18.6179 61.5887 18.1834 62.2282 17.3168C62.8652 16.4491 63.1831 15.1651 63.1831 13.4626C63.1831 11.76 62.864 10.4382 62.2282 9.54605C61.5899 8.65388 60.6668 8.20718 59.4588 8.20718Z" fill="#FFCC00"/>
</g>
<defs>
<clipPath id="clip0_32_434">
<rect width="65.5172" height="20" fill="white" transform="translate(0 0.5)"/>
</clipPath>
</defs>
</svg>
