<?xml version="1.0" encoding="UTF-8"?>
<svg width="12.3533797px" height="10.6262913px" viewBox="0 0 12.3533797 10.6262913" version="1.1" xmlns="http://www.w3.org/2000/svg" xmlns:xlink="http://www.w3.org/1999/xlink">
    <title>Path 4</title>
    <defs>
        <path d="M21.0745714,13.7263361 L21.0745714,13.7263361 L21.0745714,13.7263361 L20.2837226,13.710686 L20.2837226,17.0604391 C20.2837226,17.6127239 19.8360074,18.0604391 19.2837226,18.0604391 C19.2800452,18.0604391 19.2763677,18.0604189 19.2726905,18.0603783 L13.0048694,17.9912265 C12.4569215,17.9851811 12.0159015,17.5392686 12.0159015,16.9912874 L12.0159015,13.710686 L12.0159015,13.710686 L11.2569278,13.710686 L11.1769175,13.710686 C10.7767463,13.710686 10.4523435,13.3862832 10.4523435,12.986112 C10.4523435,12.7916825 10.5304837,12.6054106 10.6691977,12.4691709 L10.6691977,12.4691709 L10.6691977,12.4691709 L15.5039047,7.72070665 C15.8972015,7.33442558 16.5289273,7.33928737 16.9162322,7.73157598 L21.5437,12.4185888 L21.5437,12.4185888 L21.600386,12.4776957 C21.8824714,12.7718284 21.872705,13.2389455 21.5785723,13.5210308 C21.4428652,13.6511796 21.2625931,13.7246136 21.0745714,13.7263361 Z" id="path-1"></path>
        <filter x="4.1%" y="-0.8%" width="99.8%" height="105.2%" filterUnits="objectBoundingBox" id="filter-2">
            <feOffset dx="1" dy="0" in="SourceAlpha" result="shadowOffsetOuter1"></feOffset>
            <feComposite in="shadowOffsetOuter1" in2="SourceAlpha" operator="out" result="shadowOffsetOuter1"></feComposite>
            <feColorMatrix values="0 0 0 0 0.666666667   0 0 0 0 0.666666667   0 0 0 0 0.666666667  0 0 0 1 0" type="matrix" in="shadowOffsetOuter1"></feColorMatrix>
        </filter>
    </defs>
    <g id="회원" stroke="none" stroke-width="1" fill="none" fill-rule="evenodd">
        <g id="로그인-페이지" transform="translate(-1479.4523, -343.4341)">
            <g id="Path-4" transform="translate(1469, 336)">
                <use fill="black" fill-opacity="1" filter="url(#filter-2)" xlink:href="#path-1"></use>
                <path stroke="#AAAAAA" stroke-width="1" d="M16.2084675,7.93416288 L21.1828335,12.7646746 C21.2521713,12.8369736 21.2958424,12.9183367 21.2984525,13.0008514 C21.2990644,13.0201969 21.2970346,13.0392393 21.2924966,13.0575972 L19.7837226,13.2785856 L19.7837226,17.0604391 C19.7837226,17.1985103 19.7277582,17.3235103 19.637276,17.4139925 C19.5467938,17.5044747 19.4217938,17.5604391 19.2892339,17.5604695 L13.0103855,17.491257 C12.8733985,17.4897456 12.7497775,17.4332509 12.6604033,17.3428851 C12.571029,17.2525194 12.5159015,17.1282827 12.5159015,16.9912874 L12.5159015,13.210686 L11.1769175,13.210686 C11.1149031,13.210686 11.0587596,13.1855497 11.0181197,13.1449098 C11.0138205,13.1406106 11.0096948,13.1361379 11.0057539,13.131503 L15.8586939,8.07312702 C15.956419,7.97944177 16.082625,7.93319439 16.2084675,7.93416288 Z" stroke-linejoin="square" fill="#FFFFFF" fill-rule="evenodd"></path>
            </g>
        </g>
    </g>
</svg>