<svg width="40" height="40" viewBox="0 0 40 40" fill="none" xmlns="http://www.w3.org/2000/svg">
<g clip-path="url(#clip0_366_7999)">
<g clip-path="url(#clip1_366_7999)">
<path d="M2.44838 39.2935L2.44825 39.2936C2.05142 39.533 1.53396 39.5552 1.11334 39.406C0.679169 39.2519 0.5 38.9858 0.5 38.7614V2.43042C0.5 1.95357 0.758557 1.4824 1.25502 1.11294C1.7515 0.743466 2.46079 0.5 3.2659 0.5H36.7341C37.5392 0.5 38.2485 0.743466 38.745 1.11294C39.2414 1.4824 39.5 1.95357 39.5 2.43042V38.7614C39.5 38.9858 39.3208 39.2519 38.8867 39.406C38.466 39.5552 37.9486 39.533 37.5518 39.2936L37.5516 39.2935L22.7625 30.3774C21.1439 29.401 18.8568 29.4011 17.2376 30.3773L2.44838 39.2935Z" fill="white" stroke="#999999"/>
</g>
</g>
<defs>
<clipPath id="clip0_366_7999">
<rect width="40" height="40" fill="white"/>
</clipPath>
<clipPath id="clip1_366_7999">
<rect width="40" height="40" fill="white"/>
</clipPath>
</defs>
</svg>
