<?xml version="1.0" encoding="UTF-8"?>
<svg width="15px" height="16.4428711px" viewBox="0 0 15 16.4428711" version="1.1" xmlns="http://www.w3.org/2000/svg" xmlns:xlink="http://www.w3.org/1999/xlink">
    <title>Group 18 Copy</title>
    <g id="마이페이지_new" stroke="none" stroke-width="1" fill="none" fill-rule="evenodd">
        <g id="마이페이지-메인" transform="translate(-700, -295)" stroke-width="1.4">
            <g id="Group-18-Copy" transform="translate(700, 295)">
                <path d="M12,0.7 C12.6351275,0.7 13.2101275,0.957436269 13.6263456,1.3736544 C14.0425637,1.78987254 14.3,2.36487254 14.3,3 L14.3,10 C14.3,10.6351275 14.0425637,11.2101275 13.6263456,11.6263456 C13.2101275,12.0425637 12.6351275,12.3 12,12.3 L10.7402343,12.3 L7.7,14.9167837 L7.7,12.3 L3,12.3 C2.36487254,12.3 1.78987254,12.0425637 1.3736544,11.6263456 C0.957436269,11.2101275 0.7,10.6351275 0.7,10 L0.7,3 C0.7,2.36487254 0.957436269,1.78987254 1.3736544,1.3736544 C1.78987254,0.957436269 2.36487254,0.7 3,0.7 Z" id="Rectangle" stroke="#2C8DFF" fill="#2C8DFF"></path>
                <line x1="4.5" y1="4.5" x2="10.5" y2="4.5" id="Line-2" stroke="#FFFFFF" stroke-linecap="round"></line>
                <line x1="4.5" y1="7.5" x2="8.5" y2="7.5" id="Line-2-Copy" stroke="#FFFFFF" stroke-linecap="round"></line>
            </g>
        </g>
    </g>
</svg>