<svg width="120" height="52" viewBox="0 0 120 52" fill="none" xmlns="http://www.w3.org/2000/svg">
<path d="M60.8403 30.209C60.8403 12.8829 46.1548 -1.02365 28.4867 0.0592305C13.3833 0.990132 1.05363 13.1868 0.0657384 28.1762C-0.504201 36.9343 2.66842 44.9325 8.15884 50.7648C8.97575 51.6388 10.2106 51.9997 11.3695 51.7147H11.4835C12.4904 51.4488 13.3263 50.7648 13.7443 49.8149C15.739 45.3504 19.5007 41.8358 24.1552 40.126C25.333 39.708 25.466 38.1312 24.3831 37.5233C19.7856 34.9205 17.0689 29.4301 18.7407 23.5217C19.8616 19.5702 23.0533 16.4545 27.0428 15.3906C35.212 13.2058 42.5832 19.2662 42.5832 27.0174C42.5832 31.4819 40.1325 35.3955 36.5039 37.4663C35.383 38.1122 35.535 39.689 36.7318 40.126C41.3673 41.8168 45.11 45.3314 47.0858 49.796C47.5037 50.7459 48.3396 51.4298 49.3275 51.6577H49.4225C50.6003 51.9807 51.8353 51.5818 52.6712 50.7079C57.7246 45.3124 60.8403 38.1122 60.8403 30.152" fill="#B1B3BA"/>
<path d="M70.3584 45.1604V6.53748C70.3584 2.98486 73.2461 0.097168 76.8177 0.097168H80.0663C82.0801 0.097168 83.9989 1.04706 85.2148 2.66189L107.081 31.5958V6.53748C107.081 2.98486 109.969 0.097168 113.541 0.097168C117.112 0.097168 120 2.96586 120 6.53748V45.1604C120 48.713 117.112 51.6007 113.541 51.6007H110.292C108.278 51.6007 106.36 50.6508 105.144 49.036L83.277 20.102V45.1604C83.277 48.713 80.3893 51.6007 76.8177 51.6007C73.2461 51.6007 70.3584 48.732 70.3584 45.1604Z" fill="#B1B3BA"/>
</svg>
