<svg width="48" height="44" viewBox="0 0 48 44" fill="none" xmlns="http://www.w3.org/2000/svg">
<path fill-rule="evenodd" clip-rule="evenodd" d="M46.0004 22C46.0004 23.894 45.7344 25.722 45.2824 27.476C47.0004 24.726 48.0004 21.484 48.0004 18C48.0004 8.058 39.9424 0 30.0004 0C29.0124 0 28.0464 0.088 27.1064 0.246C37.7684 1.762 46.0004 10.926 46.0004 22ZM21.1064 4.246C22.0464 4.088 23.0124 4 24.0004 4C33.9424 4 42.0004 12.058 42.0004 22C42.0004 25.484 41.0004 28.726 39.2824 31.476C39.7344 29.722 40.0004 27.894 40.0004 26C40.0004 14.926 31.7684 5.762 21.1064 4.246ZM18 44C27.942 44 36 35.942 36 26C36 16.058 27.942 8 18 8C8.058 8 0 16.058 0 26C0 35.942 8.058 44 18 44ZM14.168 22H11.543L12.481 25.6226H11.0615V26.8981H12.8112L14.1323 32H17.1323L18.1501 27.6429C18.2074 27.3945 18.2596 27.1473 18.3091 26.8981H19.2038C19.2547 27.1454 19.3077 27.3923 19.3644 27.6429L20.418 32H23.5073L24.7645 26.8981H26.3676V25.6226H25.0788L25.9715 22H23.543L22.7452 25.6226H20.9048L19.9894 22H17.6501L16.7739 25.6226H14.9657L14.168 22ZM15.2466 26.8981L15.2573 26.9464C15.3555 27.4464 15.4314 27.9241 15.5073 28.4018C15.5831 28.8795 15.659 29.3571 15.7573 29.8571H15.8287C15.8694 29.6499 15.9086 29.4442 15.9475 29.2399L15.9475 29.2396C16.0964 28.458 16.2414 27.6966 16.4537 26.9464L16.4654 26.8981H15.2466ZM18.5442 25.6226C18.5476 25.6035 18.551 25.5845 18.5544 25.5654C18.6019 25.2969 18.6508 25.0204 18.7037 24.7321H18.793L18.8304 24.9367L18.8305 24.9368C18.8737 25.1728 18.9154 25.4005 18.9566 25.6226H18.5442ZM21.2272 26.8981L21.2394 26.9464C21.3953 27.618 21.527 28.2492 21.6616 28.8943L21.6617 28.8946C21.7275 29.2101 21.794 29.5288 21.8644 29.8571H21.9537C22.0519 29.3571 22.1278 28.8795 22.2037 28.4018L22.2037 28.4018C22.2796 27.9241 22.3555 27.4464 22.4537 26.9464L22.4643 26.8981H21.2272Z" fill="#DFA919"/>
</svg>
