<?xml version="1.0" encoding="UTF-8"?>
<svg width="26.0005px" height="25.9996667px" viewBox="0 0 26.0005 25.9996667" version="1.1" xmlns="http://www.w3.org/2000/svg" xmlns:xlink="http://www.w3.org/1999/xlink">
    <title>Oval 4</title>
    <defs>
        <polygon id="path-1" points="0 0 26 0 17.3618862 18.9338728 13.9255022 22.5027902 15.9445801 30.5471191 0 31"></polygon>
    </defs>
    <g id="회원" stroke="none" stroke-width="1" fill="none" fill-rule="evenodd">
        <g id="로그인-페이지" transform="translate(-720, -882)">
            <g id="Oval-4" transform="translate(718, 875)">
                <path d="M22.5598565,20.4272093 C22.9350033,21.3500001 22.8968276,21.8228294 23.358292,22.0137802 C23.8032115,22.1978848 24.0905082,21.8619387 24.6253049,21.6614147 L26.5448165,22.9568803 C26.1602336,23.8673139 25.7938875,24.1791151 25.9862929,24.6411796 C26.1691684,25.0803578 26.5986458,25.0473725 27.1221881,25.2846396 L27.5737898,27.5607385 C26.6604465,27.9328155 26.1790673,27.8959103 25.9865072,28.359805 C25.8029182,28.8020876 26.1375253,29.0891521 26.3371441,29.6238689 L25.0420943,31.5459424 C24.1273505,31.1591313 23.8190041,30.7956553 23.3601253,30.9858865 C22.9170259,31.169238 22.949645,31.60449 22.7124539,32.1252616 L20.4399374,32.5721955 C20.0646528,31.6512434 20.1012238,31.1768368 19.640695,30.9856739 C19.198036,30.8019287 18.9109593,31.1373595 18.3767338,31.3370424 L16.4542305,30.0431369 C16.833256,29.144177 17.2068609,28.8244214 17.0132071,28.3584872 C16.8292288,27.9166605 16.3904817,27.949007 15.8688883,27.7116955 L15.4273258,25.4382765 C16.3454939,25.0650149 16.8217915,25.1023164 17.0129928,24.641695 C17.1963493,24.1999726 16.8641777,23.9159198 16.6629002,23.3791388 L17.9572815,21.4552223 C18.865841,21.8392536 19.177484,22.2068752 19.640695,22.0139928 C20.0822088,21.8307229 20.0497145,21.3956791 20.2867184,20.875378 Z" id="Path" stroke="#333333" fill-rule="nonzero"></path>
                <circle id="Oval" stroke="#333333" cx="21.5" cy="26.5" r="2"></circle>
                <mask id="mask-2" fill="white">
                    <use xlink:href="#path-1"></use>
                </mask>
                <g id="Mask"></g>
                <circle stroke="#333333" mask="url(#mask-2)" cx="13" cy="13" r="5.5"></circle>
                <rect id="Rectangle" stroke="#333333" mask="url(#mask-2)" x="2.5" y="21.5" width="21" height="18" rx="7"></rect>
            </g>
        </g>
    </g>
</svg>