<svg width="20" height="20" viewBox="0 0 20 20" fill="none" xmlns="http://www.w3.org/2000/svg">
<path d="M10.6967 14.2626L10.6731 13.2212C6.64692 13.2106 4.88253 10.6717 4.86682 8.61267C4.85111 7.03345 5.92965 5.35931 7.7176 5.34349C9.22546 5.33031 9.97938 6.52989 9.97938 6.52989C9.97938 6.52989 10.6103 5.30922 12.283 5.2934C13.4741 5.28286 15.0789 6.29261 15.0998 8.63113C15.1181 10.8299 13.5448 13.2396 10.6993 14.2626M9.92179 -0.000561043C4.45844 0.0495312 -0.0441755 4.07537 0.000327081 9.26387C0.0212695 11.8555 1.34849 14.5025 3.70975 16.2478L3.09719 19.2349C14.6234 22.5831 20.0448 14.1439 20.0003 9.10832C19.9558 3.97518 15.482 -0.0480169 9.92179 -0.000561043Z" fill="#EF403C"/>
</svg>
