<svg width="20" height="21" viewBox="0 0 20 21" fill="none" xmlns="http://www.w3.org/2000/svg">
<path d="M17.9825 10.5367C17.9825 15.2066 14.2398 18.9999 9.6204 18.9999C5.00101 18.9999 1.2583 15.2123 1.2583 10.5367V9.38464C1.2583 4.70906 5.00101 0.921387 9.6204 0.921387C14.2398 0.921387 17.9825 4.70906 17.9825 9.38464V10.5367Z" fill="#FF8120"/>
<path d="M9.62635 19.4215C4.78217 19.4215 0.842773 15.4371 0.842773 10.5368V9.38473C0.842773 4.48436 4.78217 0.5 9.62635 0.5C14.4705 0.5 18.4099 4.48436 18.4099 9.38473V10.5368C18.4099 15.4371 14.4705 19.4215 9.62635 19.4215ZM9.62635 1.34857C5.24861 1.34857 1.68573 4.95641 1.68573 9.39035V10.5424C1.68573 14.9763 5.24861 18.5842 9.62635 18.5842C14.0041 18.5842 17.567 14.9763 17.567 10.5424V9.39035C17.567 4.95641 14.0041 1.34857 9.62635 1.34857Z" fill="#333333"/>
<path d="M3.06275 9.03583V13.5147C3.06275 17.1394 6.00185 20.0785 9.62654 20.0785C13.2512 20.0785 16.1903 17.1394 16.1903 13.5147V9.42359C16.1903 9.42359 11.6834 8.49634 10.0593 6.33838C7.58098 8.15354 3.05713 8.99649 3.05713 9.03583H3.06275Z" fill="white"/>
<path d="M9.62687 20.5001C5.77739 20.5001 2.6416 17.3643 2.6416 13.5148V9.03592C2.6416 8.69874 2.90573 8.63692 3.23729 8.55824C6.24382 7.85578 8.45798 6.99597 9.81232 6.00129C9.99777 5.86641 10.2619 5.90575 10.3968 6.08558C11.9028 8.08619 16.23 9.0022 16.275 9.00782C16.4717 9.04716 16.6121 9.22137 16.6121 9.41806V13.5092C16.6121 17.3587 13.4764 20.4945 9.62687 20.4945V20.5001ZM3.48455 9.36186V13.5148C3.48455 16.9035 6.2382 19.6571 9.62687 19.6571C13.0155 19.6571 15.7692 16.9035 15.7692 13.5148V9.76086C14.7239 9.50797 11.5544 8.62568 9.98653 6.90606C8.53665 7.8614 6.3506 8.6875 3.48455 9.36186Z" fill="#333333"/>
<path d="M13.3359 12.8736C13.3359 13.1939 13.0774 13.4524 12.7516 13.4524C12.4257 13.4524 12.1729 13.1939 12.1729 12.8736C12.1729 12.5534 12.4313 12.2949 12.7516 12.2949C13.0718 12.2949 13.3359 12.5534 13.3359 12.8736Z" fill="#333333"/>
<path d="M7.51925 12.8736C7.51925 13.1939 7.25518 13.4524 6.93492 13.4524C6.61466 13.4524 6.35059 13.1939 6.35059 12.8736C6.35059 12.5534 6.61466 12.2949 6.93492 12.2949C7.25518 12.2949 7.51925 12.5534 7.51925 12.8736Z" fill="#333333"/>
<path d="M10.7164 9.87973H8.72185C8.56453 9.87973 8.44092 9.75612 8.44092 9.5988C8.44092 9.44148 8.56453 9.31787 8.72185 9.31787H10.7164C10.8738 9.31787 10.9974 9.44148 10.9974 9.5988C10.9974 9.75612 10.8738 9.87973 10.7164 9.87973Z" fill="#333333"/>
<path d="M11.8928 11.0096H7.52073C7.36338 11.0096 7.23975 10.886 7.23975 10.7287C7.23975 10.5714 7.36338 10.4478 7.52073 10.4478H11.8928C12.0502 10.4478 12.1738 10.5714 12.1738 10.7287C12.1738 10.886 12.0502 11.0096 11.8928 11.0096Z" fill="#333333"/>
<path d="M19.0094 12.8744C19.0094 13.9927 18.4026 14.9031 17.661 14.9031C16.9193 14.9031 16.3125 13.9927 16.3125 12.8744C16.3125 11.7561 16.9193 10.8457 17.661 10.8457C18.4026 10.8457 19.0094 11.7561 19.0094 12.8744Z" fill="white"/>
<path d="M17.6613 15.3247C16.6666 15.3247 15.8911 14.2513 15.8911 12.8745C15.8911 11.4977 16.6666 10.4243 17.6613 10.4243C18.656 10.4243 19.4315 11.5033 19.4315 12.8745C19.4315 14.2457 18.656 15.3247 17.6613 15.3247ZM17.6613 11.2673C17.223 11.2673 16.7341 11.9304 16.7341 12.8745C16.7341 13.8186 17.223 14.4817 17.6613 14.4817C18.0997 14.4817 18.5886 13.8242 18.5886 12.8745C18.5886 11.9248 18.0997 11.2673 17.6613 11.2673Z" fill="#333333"/>
<path d="M0.421387 12.8749C0.421387 13.9932 1.02819 14.9036 1.76985 14.9036C2.5115 14.9036 3.11831 13.9932 3.11831 12.8749C3.11831 11.7566 2.5115 10.8462 1.76985 10.8462C1.02819 10.8462 0.421387 11.7566 0.421387 12.8749Z" fill="white"/>
<path d="M1.7702 15.3252C0.775517 15.3252 0 14.2518 0 12.875C0 11.4982 0.775517 10.4248 1.7702 10.4248C2.76489 10.4248 3.5404 11.5038 3.5404 12.875C3.5404 14.2462 2.76489 15.3252 1.7702 15.3252ZM1.7702 11.2678C1.33187 11.2678 0.842953 11.9309 0.842953 12.875C0.842953 13.8191 1.33187 14.4822 1.7702 14.4822C2.20854 14.4822 2.69745 13.8247 2.69745 12.875C2.69745 11.9253 2.20854 11.2678 1.7702 11.2678Z" fill="#333333"/>
<path d="M7.31794 17.3431C7.25052 17.3431 7.18871 17.3206 7.13252 17.2757C7.01453 17.1745 7.0033 16.9948 7.10443 16.8768L7.95846 15.8991C8.05959 15.7811 8.23939 15.7699 8.35738 15.871C8.47537 15.9722 8.4866 16.152 8.38547 16.27L7.53144 17.2476C7.47526 17.3094 7.3966 17.3431 7.31794 17.3431Z" fill="#333333"/>
<path d="M12.4933 17.1673C12.4146 17.1673 12.3359 17.1336 12.2797 17.0718L11.4257 16.0942C11.3246 15.9762 11.3358 15.802 11.4538 15.6953C11.5718 15.5941 11.746 15.6054 11.8527 15.7233L12.7068 16.701C12.8079 16.819 12.7967 16.9931 12.6787 17.0999C12.6281 17.1448 12.5607 17.1673 12.4933 17.1673Z" fill="#333333"/>
</svg>
