<svg width="30" height="32" viewBox="0 0 30 32" fill="none" xmlns="http://www.w3.org/2000/svg">
<path d="M27.7618 16.131C27.7618 23.3431 21.9817 29.2013 14.8477 29.2013C7.7137 29.2013 1.93359 23.3518 1.93359 16.131V14.3518C1.93359 7.13103 7.7137 1.28149 14.8477 1.28149C21.9817 1.28149 27.7618 7.13103 27.7618 14.3518V16.131Z" fill="#FAF7F5"/>
<path d="M14.858 29.8515C7.37683 29.8515 1.29297 23.6982 1.29297 16.1303V14.3511C1.29297 6.78318 7.37683 0.629883 14.858 0.629883C22.3392 0.629883 28.423 6.78318 28.423 14.3511V16.1303C28.423 23.6982 22.3392 29.8515 14.858 29.8515ZM14.858 1.94039C8.09718 1.94039 2.59479 7.5122 2.59479 14.3598V16.139C2.59479 22.9866 8.09718 28.5584 14.858 28.5584C21.6188 28.5584 27.1212 22.9866 27.1212 16.139V14.3598C27.1212 7.5122 21.6188 1.94039 14.858 1.94039Z" fill="#333333"/>
<path d="M4.71962 13.8138V20.7308C4.71962 26.3287 9.25865 30.8677 14.8565 30.8677C20.4544 30.8677 24.9934 26.3287 24.9934 20.7308V14.4126C24.9934 14.4126 18.033 12.9806 15.5248 9.64795C11.6974 12.4512 4.71094 13.753 4.71094 13.8138H4.71962Z" fill="white"/>
<path d="M14.8581 31.5187C8.9131 31.5187 4.07031 26.6759 4.07031 20.7309V13.8139C4.07031 13.2932 4.47822 13.1977 4.99027 13.0762C9.63345 11.9913 13.0529 10.6635 15.1445 9.12732C15.4309 8.91903 15.8388 8.97978 16.0471 9.2575C18.373 12.3472 25.0557 13.7618 25.1252 13.7705C25.4289 13.8313 25.6459 14.1003 25.6459 14.4041V20.7223C25.6459 26.6673 20.8031 31.51 14.8581 31.51V31.5187ZM5.37214 14.3173V20.7309C5.37214 25.9643 9.62477 30.2169 14.8581 30.2169C20.0914 30.2169 24.3441 25.9643 24.3441 20.7309V14.9335C22.7298 14.5429 17.835 13.1803 15.4136 10.5246C13.1744 12 9.79835 13.2758 5.37214 14.3173Z" fill="#333333"/>
<path d="M20.5852 19.7404C20.5852 20.235 20.1861 20.6342 19.6828 20.6342C19.1795 20.6342 18.7891 20.235 18.7891 19.7404C18.7891 19.2458 19.1882 18.8467 19.6828 18.8467C20.1774 18.8467 20.5852 19.2458 20.5852 19.7404Z" fill="#333333"/>
<path d="M11.6017 19.7404C11.6017 20.235 11.1939 20.6342 10.6993 20.6342C10.2047 20.6342 9.79688 20.235 9.79688 19.7404C9.79688 19.2458 10.2047 18.8467 10.6993 18.8467C11.1939 18.8467 11.6017 19.2458 11.6017 19.7404Z" fill="#333333"/>
<path d="M16.5416 15.116H13.4612C13.2182 15.116 13.0273 14.9251 13.0273 14.6821C13.0273 14.4392 13.2182 14.2483 13.4612 14.2483H16.5416C16.7845 14.2483 16.9754 14.4392 16.9754 14.6821C16.9754 14.9251 16.7845 15.116 16.5416 15.116Z" fill="#333333"/>
<path d="M18.356 16.8604H11.6039C11.3609 16.8604 11.1699 16.6695 11.1699 16.4265C11.1699 16.1836 11.3609 15.9927 11.6039 15.9927H18.356C18.599 15.9927 18.7899 16.1836 18.7899 16.4265C18.7899 16.6695 18.599 16.8604 18.356 16.8604Z" fill="#333333"/>
<path d="M29.3486 19.7419C29.3486 21.469 28.4115 22.875 27.2661 22.875C26.1207 22.875 25.1836 21.469 25.1836 19.7419C25.1836 18.0149 26.1207 16.6089 27.2661 16.6089C28.4115 16.6089 29.3486 18.0149 29.3486 19.7419Z" fill="white"/>
<path d="M27.267 23.5252C25.7309 23.5252 24.5332 21.8676 24.5332 19.7412C24.5332 17.6149 25.7309 15.9573 27.267 15.9573C28.8032 15.9573 30.0009 17.6236 30.0009 19.7412C30.0009 21.8589 28.8032 23.5252 27.267 23.5252ZM27.267 17.2591C26.5901 17.2591 25.835 18.2832 25.835 19.7412C25.835 21.1993 26.5901 22.2234 27.267 22.2234C27.944 22.2234 28.699 21.208 28.699 19.7412C28.699 18.2745 27.944 17.2591 27.267 17.2591Z" fill="#333333"/>
<path d="M0.640625 19.7419C0.640625 21.469 1.57776 22.875 2.72314 22.875C3.86852 22.875 4.80565 21.469 4.80565 19.7419C4.80565 18.0149 3.86852 16.6089 2.72314 16.6089C1.57776 16.6089 0.640625 18.0149 0.640625 19.7419Z" fill="white"/>
<path d="M2.72407 23.5262C1.18791 23.5262 -0.00976562 21.8685 -0.00976562 19.7422C-0.00976562 17.6159 1.18791 15.9583 2.72407 15.9583C4.26022 15.9583 5.4579 17.6246 5.4579 19.7422C5.4579 21.8599 4.26022 23.5262 2.72407 23.5262ZM2.72407 17.2601C2.04712 17.2601 1.29206 18.2842 1.29206 19.7422C1.29206 21.2003 2.04712 22.2244 2.72407 22.2244C3.40102 22.2244 4.15608 21.2089 4.15608 19.7422C4.15608 18.2755 3.40102 17.2601 2.72407 17.2601Z" fill="#333333"/>
<path d="M11.2914 26.6406C11.1873 26.6406 11.0919 26.6059 11.0051 26.5365C10.8229 26.3803 10.8055 26.1026 10.9617 25.9204L12.2806 24.4106C12.4368 24.2284 12.7145 24.211 12.8967 24.3672C13.0789 24.5234 13.0963 24.8011 12.9401 24.9833L11.6212 26.4931C11.5344 26.5886 11.4129 26.6406 11.2914 26.6406Z" fill="#333333"/>
<path d="M19.2842 26.3711C19.1627 26.3711 19.0412 26.319 18.9545 26.2236L17.6355 24.7138C17.4793 24.5315 17.4967 24.2626 17.6789 24.0977C17.8611 23.9415 18.1301 23.9589 18.295 24.1411L19.6139 25.6509C19.7701 25.8331 19.7528 26.1021 19.5705 26.267C19.4924 26.3364 19.3883 26.3711 19.2842 26.3711Z" fill="#333333"/>
</svg>
