<svg width="100" height="100" viewBox="0 0 100 100" fill="none" xmlns="http://www.w3.org/2000/svg">
<rect x="0.5" y="0.5" width="99" height="99" rx="49.5" fill="white"/>
<rect x="0.5" y="0.5" width="99" height="99" rx="49.5" stroke="#EEEEEE"/>
<path d="M38.7512 59.3279L39.1758 59.2849L39.1674 59.2012L39.1277 59.127L38.7512 59.3279ZM53.455 61.4653L53.7858 61.1956L53.6577 61.0385H53.455V61.4653ZM60.0593 69.5657L59.7285 69.8354L59.7286 69.8354L60.0593 69.5657ZM63.4084 69.9065L63.1387 69.5757L63.4084 69.9065ZM63.7492 66.5575L63.4184 66.8272L63.4184 66.8272L63.7492 66.5575ZM56.4768 57.6377L56.8075 57.368L56.8075 57.368L56.4768 57.6377ZM56.2631 57.4079L55.9602 57.7089L55.9703 57.7184L56.2631 57.4079ZM46.2498 56.705H45.823V57.1318H46.2498V56.705ZM38.2843 48.8503L38.5861 49.1521L38.7111 49.0271V48.8503H38.2843ZM35.2666 51.868L34.9648 51.5662H34.9648L35.2666 51.868ZM34.9744 52.337L35.3695 52.4985L35.3744 52.4865L35.3785 52.4742L34.9744 52.337ZM37.3219 53.259L37.0201 52.9572L36.8951 53.0822V53.259H37.3219ZM38.2843 52.2968H38.7111V51.2667L37.9825 51.995L38.2843 52.2968ZM46.5339 37.3338C46.5339 36.9535 46.4839 36.5843 46.3899 36.2326L45.5653 36.453C45.6402 36.7334 45.6803 37.0286 45.6803 37.3338H46.5339ZM45.9643 35.206C45.5908 34.5605 45.0528 34.0226 44.4074 33.6492L43.9799 34.388C44.4961 34.6866 44.9268 35.1173 45.2255 35.6335L45.9643 35.206ZM43.3808 33.2236C43.0291 33.1295 42.6599 33.0795 42.2796 33.0795V33.9331C42.5848 33.9331 42.8799 33.9732 43.1604 34.0482L43.3808 33.2236ZM42.2796 33.0795C41.8993 33.0795 41.5301 33.1295 41.1783 33.2235L41.3986 34.0481C41.6791 33.9732 41.9744 33.9331 42.2796 33.9331V33.0795ZM40.1515 33.6489C39.5058 34.0222 38.9676 34.5601 38.594 35.2056L39.3327 35.6332C39.6315 35.117 40.0623 34.6864 40.5788 34.3878L40.1515 33.6489ZM38.1682 36.2324C38.0741 36.5841 38.0241 36.9534 38.0241 37.3338H38.8777C38.8777 37.0285 38.9178 36.7333 38.9928 36.4529L38.1682 36.2324ZM38.0241 37.3338C38.0241 37.7141 38.0741 38.0834 38.1682 38.4352L38.9928 38.2147C38.9178 37.9342 38.8777 37.639 38.8777 37.3338H38.0241ZM38.594 39.4619C38.9676 40.1074 39.5058 40.6453 40.1515 41.0187L40.5788 40.2798C40.0623 39.9811 39.6315 39.5505 39.3327 39.0343L38.594 39.4619ZM41.1783 41.4441C41.5301 41.5381 41.8993 41.588 42.2796 41.588V40.7344C41.9744 40.7344 41.6791 40.6944 41.3986 40.6194L41.1783 41.4441ZM42.2796 41.588C42.6599 41.588 43.0291 41.538 43.3808 41.444L43.1604 40.6194C42.8799 40.6944 42.5848 40.7344 42.2796 40.7344V41.588ZM44.4074 41.0184C45.0528 40.645 45.5908 40.107 45.9643 39.4616L45.2255 39.0341C44.9268 39.5503 44.4961 39.9809 43.9799 40.2796L44.4074 41.0184ZM46.3899 38.435C46.4839 38.0833 46.5339 37.7141 46.5339 37.3338H45.6803C45.6803 37.639 45.6402 37.9341 45.5653 38.2145L46.3899 38.435ZM39.1277 59.127C39.0372 58.9574 38.9601 58.7798 38.8977 58.5954L38.0892 58.8689C38.1667 59.098 38.2624 59.3185 38.3747 59.5289L39.1277 59.127ZM38.7578 58.0334C38.7271 57.8454 38.7111 57.6523 38.7111 57.4551H37.8575C37.8575 57.6986 37.8773 57.9377 37.9154 58.171L38.7578 58.0334ZM38.7111 57.4551V56.5954H37.8575V57.4551H38.7111ZM38.7111 55.7357V54.0163H37.8575V55.7357H38.7111ZM38.7111 53.1566V52.2968H37.8575V53.1566H38.7111ZM37.9825 51.995L37.6617 52.3158L38.2652 52.9194L38.586 52.5987L37.9825 51.995ZM37.3409 52.6365L37.0201 52.9572L37.6236 53.5609L37.9444 53.2401L37.3409 52.6365ZM36.8951 53.259V54.2335H37.7487V53.259H36.8951ZM36.8951 55.2079V57.1568H37.7487V55.2079H36.8951ZM36.8951 58.1312V59.1057H37.7487V58.1312H36.8951ZM36.8951 59.1057C36.8951 59.2506 36.8565 59.3854 36.7894 59.5016L37.5284 59.9287C37.6686 59.6862 37.7487 59.4046 37.7487 59.1057H36.8951ZM36.499 59.7925C36.383 59.8597 36.2485 59.8983 36.1037 59.8983V60.7519C36.403 60.7519 36.6847 60.6715 36.9271 60.5309L36.499 59.7925ZM36.1037 59.8983C35.9585 59.8983 35.8237 59.8597 35.7076 59.7925L35.2801 60.5313C35.5227 60.6717 35.8044 60.7519 36.1037 60.7519V59.8983ZM35.4169 59.5018C35.3497 59.3855 35.3111 59.2507 35.3111 59.1057H34.4575C34.4575 59.4048 34.5377 59.6866 34.6781 59.9292L35.4169 59.5018ZM35.3111 59.1057V58.0544H34.4575V59.1057H35.3111ZM35.3111 57.003V54.9004H34.4575V57.003H35.3111ZM35.3111 53.849V52.7977H34.4575V53.849H35.3111ZM35.3111 52.7977C35.3111 52.7627 35.3133 52.7285 35.3176 52.6951L34.471 52.5862C34.4621 52.6556 34.4575 52.7262 34.4575 52.7977H35.3111ZM35.3371 52.595C35.3459 52.5619 35.3567 52.5297 35.3695 52.4985L34.5793 52.1755C34.5527 52.2408 34.53 52.3082 34.5118 52.3774L35.3371 52.595ZM35.3785 52.4742C35.3914 52.4364 35.4071 52.3995 35.4258 52.3637L34.669 51.9689C34.6299 52.0438 34.597 52.121 34.5703 52.1998L35.3785 52.4742ZM35.4894 52.2617C35.5129 52.2297 35.5392 52.199 35.5684 52.1698L34.9648 51.5662C34.9051 51.626 34.8507 51.6894 34.8018 51.7559L35.4894 52.2617ZM35.5684 52.1698L36.0714 51.6668L35.4678 51.0633L34.9648 51.5662L35.5684 52.1698ZM36.5743 51.1639L37.5802 50.158L36.9766 49.5544L35.9707 50.5603L36.5743 51.1639ZM38.0831 49.655L38.5861 49.1521L37.9825 48.5485L37.4796 49.0515L38.0831 49.655ZM38.7111 48.8503V48.1587H37.8575V48.8503H38.7111ZM38.7111 47.4671V46.7756H37.8575V47.4671H38.7111ZM38.7111 46.7756C38.7111 46.4564 38.753 46.1477 38.8313 45.8545L38.0067 45.6342C37.9093 45.9987 37.8575 46.3814 37.8575 46.7756H38.7111ZM39.1865 44.9974C39.4988 44.4576 39.949 44.0073 40.4889 43.6951L40.0615 42.9562C39.3923 43.3432 38.8347 43.9009 38.4476 44.57L39.1865 44.9974ZM41.3459 43.3399C41.6392 43.2615 41.9479 43.2196 42.267 43.2196V42.366C41.8729 42.366 41.4901 42.4178 41.1256 42.5152L41.3459 43.3399ZM42.267 43.2196C42.5862 43.2196 42.8948 43.2615 43.1881 43.3399L43.4084 42.5152C43.0439 42.4178 42.6612 42.366 42.267 42.366V43.2196ZM44.0452 43.6951C44.585 44.0073 45.0353 44.4576 45.3475 44.9974L46.0864 44.57C45.6994 43.9009 45.1417 43.3432 44.4726 42.9562L44.0452 43.6951ZM45.7027 45.8545C45.7811 46.1477 45.823 46.4564 45.823 46.7756H46.6765C46.6765 46.3814 46.6248 45.9987 46.5274 45.6342L45.7027 45.8545ZM45.823 46.7756V47.603H46.6765V46.7756H45.823ZM45.823 48.4305V50.0854H46.6765V48.4305H45.823ZM45.823 50.9128V52.5677H46.6765V50.9128H45.823ZM45.823 53.3952V55.0501H46.6765V53.3952H45.823ZM45.823 55.8775V56.705H46.6765V55.8775H45.823ZM46.2498 57.1318H47.1747V56.2782H46.2498V57.1318ZM48.0996 57.1318H49.9494V56.2782H48.0996V57.1318ZM50.8743 57.1318H52.7241V56.2782H50.8743V57.1318ZM53.649 57.1318H54.5739V56.2782H53.649V57.1318ZM54.5739 57.1318C54.7503 57.1318 54.9206 57.155 55.0822 57.1984L55.3036 56.3741C55.0704 56.3115 54.8257 56.2782 54.5739 56.2782V57.1318ZM55.5545 57.3952C55.7032 57.4817 55.8397 57.5873 55.9603 57.7087L56.5658 57.1071C56.3929 56.9331 56.1973 56.7816 55.9836 56.6573L55.5545 57.3952ZM55.9703 57.7184C55.991 57.738 56.0114 57.7581 56.0315 57.7787L56.6438 57.184C56.615 57.1544 56.5857 57.1255 56.5559 57.0974L55.9703 57.7184ZM56.0901 57.8418C56.1091 57.8631 56.1277 57.885 56.146 57.9074L56.8075 57.368C56.7815 57.336 56.7549 57.3048 56.7277 57.2743L56.0901 57.8418ZM56.146 57.9074L56.752 58.6507L57.4136 58.1113L56.8075 57.368L56.146 57.9074ZM57.3581 59.394L58.5701 60.8806L59.2317 60.3413L58.0196 58.8546L57.3581 59.394ZM59.1762 61.624L60.3882 63.1106L61.0498 62.5712L59.8377 61.0846L59.1762 61.624ZM60.9943 63.8539L62.2063 65.3405L62.8679 64.8012L61.6558 63.3145L60.9943 63.8539ZM62.8124 66.0839L63.4184 66.8272L64.08 66.2878L63.4739 65.5445L62.8124 66.0839ZM63.4184 66.8272C63.6437 67.1035 63.7804 67.4218 63.833 67.7491L64.6758 67.6137C64.6 67.1421 64.4027 66.6836 64.08 66.2878L63.4184 66.8272ZM63.7305 68.7562C63.613 69.0662 63.415 69.3504 63.1387 69.5757L63.6781 70.2373C64.0738 69.9146 64.3594 69.5052 64.5287 69.0586L63.7305 68.7562ZM63.1387 69.5757C62.8623 69.801 62.5441 69.9377 62.2167 69.9903L62.3522 70.8331C62.8237 70.7573 63.2823 70.56 63.6781 70.2373L63.1387 69.5757ZM61.2097 69.8878C60.8996 69.7703 60.6154 69.5723 60.3901 69.296L59.7286 69.8354C60.0512 70.2311 60.4606 70.5167 60.9072 70.686L61.2097 69.8878ZM60.3901 69.296L59.8397 68.621L59.1782 69.1603L59.7285 69.8354L60.3901 69.296ZM59.2894 67.9459L58.1887 66.5959L57.5271 67.1352L58.6278 68.4853L59.2894 67.9459ZM57.6383 65.9208L56.5376 64.5708L55.876 65.1102L56.9767 66.4602L57.6383 65.9208ZM55.9872 63.8957L54.8865 62.5457L54.2249 63.0851L55.3257 64.4351L55.9872 63.8957ZM54.3361 61.8707L53.7858 61.1956L53.1242 61.735L53.6746 62.41L54.3361 61.8707ZM53.455 61.0385H52.6326V61.8921H53.455V61.0385ZM51.8103 61.0385H50.1656V61.8921H51.8103V61.0385ZM49.3432 61.0385H47.6986V61.8921H49.3432V61.0385ZM46.8762 61.0385H45.2315V61.8921H46.8762V61.0385ZM44.4092 61.0385H42.7645V61.8921H44.4092V61.0385ZM41.9421 61.0385H41.1198V61.8921H41.9421V61.0385ZM41.1198 61.0385C40.7867 61.0385 40.4743 60.9557 40.201 60.8098L39.7992 61.5629C40.1932 61.7731 40.6432 61.8921 41.1198 61.8921V61.0385ZM39.4975 60.1747C39.3229 59.9153 39.209 59.6122 39.1758 59.2849L38.3266 59.371C38.3744 59.8419 38.5385 60.2787 38.7895 60.6514L39.4975 60.1747Z" fill="#FD8106"/>
<path fill-rule="evenodd" clip-rule="evenodd" d="M21.5225 37.5584H25.3941C25.419 37.5584 25.4437 37.5594 25.4681 37.5611C25.8977 37.5646 26.2918 37.8478 26.4178 38.2807L27.428 41.7502C27.5533 41.6886 27.6856 41.6369 27.8242 41.5966C29.1118 41.2216 30.4588 41.9614 30.8337 43.249L33.9776 54.0501H50.7609H50.762C51.2707 54.0501 51.6823 54.4616 51.6823 54.9703C51.6823 54.9858 51.6819 55.0013 51.6811 55.0166V63.0366C51.918 63.0941 52.1373 63.1963 52.3296 63.3338C52.5384 63.449 52.7286 63.6062 52.8871 63.8037L59.4615 71.9876C59.5524 72.1007 59.6281 72.2211 59.6889 72.3464H66.5565C67.3039 72.3464 67.9098 72.951 67.9098 73.6984C67.9098 74.4457 67.3039 75.0516 66.5565 75.0516H57.9233C57.7788 75.0516 57.6396 75.0289 57.509 74.987C57.1342 74.8877 56.7867 74.6722 56.5252 74.3469L51.6811 68.316V72.0908C52.8859 72.4713 53.7745 73.58 53.8144 74.9138C53.8649 76.6003 52.5381 78.009 50.8516 78.0595C49.1651 78.1088 47.7576 76.7833 47.7071 75.0968C47.6652 73.6985 48.5692 72.4911 49.8406 72.0905V66.7492H43.2916C43.3003 66.8801 43.3067 67.0116 43.3106 67.1437C43.4861 72.9948 38.8835 77.8801 33.0325 78.0555C27.1802 78.231 22.2949 73.6285 22.1207 67.7774C21.9717 62.8065 25.27 58.5331 29.8525 57.2513L26.1718 44.606C26.1566 44.5539 26.1433 44.5016 26.1317 44.4493L24.7077 39.5567H21.5225C20.9696 39.5567 20.5227 39.1099 20.5227 38.5582C20.5227 38.0053 20.9696 37.5584 21.5225 37.5584ZM40.1478 67.238C40.1429 67.0736 40.1327 66.9106 40.1174 66.7492C39.9835 65.3394 39.4583 64.0489 38.6542 62.9836H38.6563C37.9411 62.0362 37.0053 61.2668 35.9278 60.75L35.9281 60.7511C34.8904 60.2529 33.7214 59.9891 32.4916 60.0262C28.3852 60.1486 25.1561 63.5759 25.2785 67.6823C25.4023 71.7888 28.8295 75.0179 32.936 74.8942C37.0412 74.7717 40.2703 71.3444 40.1478 67.238ZM42.3271 62.9836C40.9272 59.9811 38.1657 57.756 34.8584 57.0763L34.5133 55.8906H49.8406V62.9836H42.3271ZM52.0528 74.9674C52.0742 75.6807 51.5138 76.2752 50.8005 76.2967C50.0873 76.3181 49.4927 75.7577 49.4713 75.0444C49.4498 74.3312 50.0103 73.7366 50.7235 73.7152C51.4368 73.6937 52.0313 74.2542 52.0528 74.9674ZM32.8294 71.3363C34.9691 71.272 36.6531 69.4845 36.5887 67.3448C36.5244 65.2051 34.7381 63.5211 32.5972 63.5855C30.4575 63.6499 28.7748 65.4361 28.8379 67.577C28.9023 69.7167 30.6898 71.3995 32.8294 71.3363Z" fill="#FD8106"/>
<path fill-rule="evenodd" clip-rule="evenodd" d="M80.0481 22.9271C81.3173 24.1637 81.3173 26.1688 80.0481 27.4054L67.0481 40.0721C65.7789 41.3087 63.7211 41.3087 62.4519 40.0721L55.9519 33.7387C54.6827 32.5021 54.6827 30.4971 55.9519 29.2604C57.2211 28.0237 59.2789 28.0237 60.5481 29.2604L64.75 33.3546L75.4519 22.9271C76.7211 21.6904 78.7789 21.6904 80.0481 22.9271Z" fill="#FD8106"/>
</svg>
