<?xml version="1.0" encoding="UTF-8"?>
<svg width="80px" height="74px" viewBox="0 0 80 74" version="1.1" xmlns="http://www.w3.org/2000/svg" xmlns:xlink="http://www.w3.org/1999/xlink">
    <title>Group 2</title>
    <defs>
        <linearGradient x1="50%" y1="0%" x2="50%" y2="100%" id="linearGradient-1">
            <stop stop-color="#4F9BF9" offset="0%"></stop>
            <stop stop-color="#A347EB" offset="100%"></stop>
        </linearGradient>
    </defs>
    <g id="join" stroke="none" stroke-width="1" fill="none" fill-rule="evenodd">
        <g id="Artboard-Copy-2" transform="translate(-713.000000, -1240.000000)">
            <g id="Group-2" transform="translate(713.000000, 1240.000000)">
                <path d="M12,0 L68,0 C74.627417,-1.21743675e-15 80,5.372583 80,12 L80,72 L80,72 L0,72 L0,12 C-8.11624501e-16,5.372583 5.372583,1.21743675e-15 12,0 Z" id="Rectangle" fill="#333333"></path>
                <path d="M11,2 L66,2 C70.9705627,2 75,6.02943725 75,11 L75,72 L75,72 L2,72 L2,11 C2,6.02943725 6.02943725,2 11,2 Z" id="Rectangle" fill="#FFFFFF"></path>
                <g id="iconmonstr-certificate-1" transform="translate(34.000000, 50.000000)" fill="url(#linearGradient-1)" fill-rule="nonzero">
                    <path d="M23.873,9.81 C23.96,9.559 24,9.301 24,9.046 C24,8.276 23.62,7.532 22.945,7.065 C20.792,5.573 21.077,5.948 20.266,3.522 C19.926,2.509 18.947,1.825 17.842,1.825 L17.835,1.825 C15.182,1.834 15.642,1.976 13.501,0.471 C13.055,0.157 12.527,0 12,0 C11.473,0 10.945,0.157 10.498,0.471 C8.342,1.986 8.812,1.833 6.164,1.824 L6.157,1.824 C5.053,1.824 4.073,2.509 3.735,3.521 C2.923,5.953 3.201,5.577 1.057,7.065 C0.38,7.534 0,8.277 0,9.048 C0,9.302 0.042,9.559 0.127,9.81 C0.958,12.238 0.956,11.772 0.127,14.19 C0.042,14.441 0,14.697 0,14.952 C0,15.722 0.38,16.466 1.057,16.935 C3.203,18.425 2.925,18.048 3.736,20.478 C4.074,21.491 5.053,22.175 6.158,22.175 L6.165,22.175 C8.818,22.166 8.358,22.023 10.499,23.528 C10.945,23.842 11.473,24 12,24 C12.527,24 13.055,23.842 13.502,23.529 C15.643,22.025 15.181,22.167 17.836,22.176 L17.843,22.176 C18.947,22.176 19.927,21.491 20.267,20.479 C21.078,18.052 20.792,18.427 22.946,16.936 C23.62,16.467 24,15.723 24,14.953 C24,14.699 23.96,14.441 23.873,14.19 C23.042,11.762 23.046,12.227 23.873,9.81 Z M10.5,16.75 L6,12.386 L7.858,10.529 L10.5,13.034 L16.142,7.251 L18,9.108 L10.5,16.75 Z" id="Shape"></path>
                </g>
                <path d="M29.4693333,35.9333333 C27.9306667,38.516 28.6226667,42.9026667 31.368,47.9666667 C32.608,50.2493333 32.2973333,51.9933333 31.8186667,53.0533333 C30.5093333,55.9573333 26.9186667,56.7853333 23.1186667,57.6613333 C20.5,58.2666667 20.6666667,58.8213333 20.6666667,63 L18.0066667,63 L18,61.3453333 C18,57.9853333 18.2653333,56.0453333 22.2373333,55.128 C26.724,54.092 31.1546667,53.164 29.024,49.2373333 C22.7133333,37.5986667 27.224,31 34,31 C38.428,31 41.96,33.8226667 41.96,39.2226667 C41.96,43.9626667 39.3613333,48.3333333 38.7826667,49.6666667 L35.9626667,49.6666667 C36.4853333,47.6186667 39.2946667,43.8453333 39.2946667,39.2106667 C39.2946667,32.34 31.472,32.564 29.4693333,35.9333333 Z" id="Shape" fill="#333333" fill-rule="nonzero"></path>
                <rect id="Rectangle" fill="#333333" x="26" y="6" width="23" height="5" rx="2.5"></rect>
            </g>
        </g>
    </g>
</svg>