<svg id="logo_white_copy" data-name="logo_white copy" xmlns="http://www.w3.org/2000/svg" width="66.898" height="15" viewBox="0 0 66.898 15">
  <g id="Group_2474" data-name="Group 2474">
    <g id="Group_5" data-name="Group 5">
      <path id="Fill_2470" data-name="Fill 2470" d="M7.334,7.919a1.41,1.41,0,0,1-.17,1.6,1.63,1.63,0,0,1-1.841.5c-.612-.21-.778-.044-.952.134a.683.683,0,0,0-.144.543c.069.341.471.574.8.71a4.28,4.28,0,0,0,4.514-1.047,3.86,3.86,0,0,0,.825-1.283,2.991,2.991,0,0,1,.584-.955,2.121,2.121,0,0,1,1.578-.645,1.984,1.984,0,0,1,1.118.409A4.1,4.1,0,0,0,9.353,4.379l.015-.021S9.441.223,5.37.006C1.968-.173.081,3.447,0,6.817c2.514-.94,6.281-.643,7.334,1.1" transform="translate(3.66 0)" fill="#fff"/>
      <path id="Fill_2472" data-name="Fill 2472" d="M17.327,2.13A1.088,1.088,0,0,0,17.1,1.68a1.3,1.3,0,0,0-1.986-.04c-.441.435-.5,1.336-1.41,2.237a5.013,5.013,0,0,1-5.3,1.2C6.69,4.361,7.111,3.07,7.518,2.655a1.434,1.434,0,0,1,1.7-.309c.868.3,1.449-.574,1.161-1.051C9.668.119,6.372-.547,3.7.58L3.638.608A7.4,7.4,0,0,0,0,4.107c1.747-.691,3.279.766,4.619,1.776A8.744,8.744,0,0,0,10.415,8a7.968,7.968,0,0,0,5.393-2.565c.684-.757,1.781-2.266,1.519-3.3" transform="translate(0 6.995)" fill="#fff"/>
    </g>
    <path id="Fill_2441" data-name="Fill 2441" d="M42.336,6.749V2.556l-2.1,2.1a.732.732,0,0,1-1.053,0l-2.1-2.1V6.749a.75.75,0,1,1-1.5,0v-6A.756.756,0,0,1,36.339,0a.746.746,0,0,1,.527.224l2.847,2.847L42.56.224A.74.74,0,0,1,43.087,0a.756.756,0,0,1,.75.749v6a.75.75,0,1,1-1.5,0Zm-25.295.517L14.267,4.494H13.074V6.74a.749.749,0,1,1-1.5,0V.75A.75.75,0,0,1,12.325,0h3.744a2.25,2.25,0,0,1,.282,4.482l1.742,1.732a.711.711,0,0,1,.222.526.749.749,0,0,1-.747.75A.709.709,0,0,1,17.042,7.266ZM13.074,3h2.994a.749.749,0,1,0,0-1.5H13.074ZM.749,7.49A.756.756,0,0,1,0,6.74V.75A.754.754,0,0,1,.749,0H5.243A.753.753,0,0,1,5.992.75a.753.753,0,0,1-.749.748H1.5V3h3a.749.749,0,0,1,0,1.5h-3v1.5H5.243a.749.749,0,0,1,0,1.5ZM27.734,4.119V.75a.749.749,0,1,1,1.5,0V4.119a1.872,1.872,0,1,0,3.744,0V.75a.749.749,0,1,1,1.5,0V4.119a3.37,3.37,0,1,1-6.739,0ZM20.35,6.393a3.749,3.749,0,0,1,0-5.3,3.744,3.744,0,0,1,6.393,2.65A3.746,3.746,0,0,1,20.35,6.393Zm.4-2.648A2.246,2.246,0,1,0,23,1.5,2.249,2.249,0,0,0,20.752,3.745Zm-13.235,0a1.069,1.069,0,1,1,1.07,1.07A1.069,1.069,0,0,1,7.516,3.745Z" transform="translate(23.061 4.063)" fill="#fff"/>
  </g>
</svg>
