<?xml version="1.0" encoding="UTF-8"?>
<svg width="404px" height="144px" viewBox="0 0 404 144" version="1.1" xmlns="http://www.w3.org/2000/svg" xmlns:xlink="http://www.w3.org/1999/xlink">
    <title>이로움과 함께 새 삶을 누리세요</title>
    <g id="Page-1" stroke="none" stroke-width="1" fill="none" fill-rule="evenodd">
        <g id="회원가입-메인" transform="translate(-924.000000, -293.000000)" fill="#FFFFFF" fill-rule="nonzero">
            <g id="이로움과-함께-새-삶을-누리세요" transform="translate(924.930000, 293.970000)">
                <path d="M55.98,65.87 L47.58,65.87 L47.58,0.07 L55.98,0.07 L55.98,65.87 Z M39.81,25.13 C39.81,27.79 39.32,30.24 38.41,32.48 C37.43,34.86 36.17,36.89 34.56,38.57 C32.88,40.39 30.92,41.79 28.68,42.77 C26.44,43.82 23.99,44.31 21.33,44.31 C18.67,44.31 16.22,43.82 13.98,42.77 C11.67,41.79 9.71,40.39 8.1,38.57 C6.42,36.89 5.16,34.86 4.25,32.48 C3.27,30.24 2.85,27.79 2.85,25.13 C2.85,22.47 3.27,20.02 4.25,17.64 C5.16,15.33 6.49,13.3 8.17,11.48 C9.78,9.8 11.74,8.4 14.05,7.35 C16.29,6.37 18.67,5.81 21.33,5.81 C23.92,5.81 26.37,6.37 28.61,7.35 C30.85,8.4 32.81,9.8 34.49,11.48 C36.1,13.3 37.43,15.33 38.41,17.64 C39.32,20.02 39.81,22.47 39.81,25.13 Z M31.41,25.13 C31.41,23.45 31.13,21.84 30.64,20.3 C30.08,18.9 29.38,17.64 28.54,16.52 C27.56,15.54 26.51,14.7 25.32,14.07 C24.06,13.51 22.8,13.23 21.4,13.23 C20,13.23 18.67,13.51 17.48,14.07 C16.22,14.7 15.1,15.54 14.26,16.52 C13.28,17.64 12.58,18.9 12.09,20.3 C11.53,21.84 11.25,23.45 11.25,25.13 C11.25,26.81 11.46,28.35 12.02,29.75 C12.44,31.22 13.14,32.48 14.12,33.46 C14.96,34.58 16.08,35.42 17.34,35.98 C18.53,36.61 19.86,36.89 21.4,36.89 C22.8,36.89 24.13,36.61 25.39,35.98 C26.58,35.42 27.63,34.58 28.54,33.46 C29.38,32.48 30.08,31.22 30.64,29.75 C31.13,28.35 31.41,26.81 31.41,25.13 Z" id="Shape"></path>
                <polygon id="Path" points="117.52 26.25 82.52 26.25 82.52 33.81 118.36 33.81 118.36 40.67 100.02 40.67 100.02 50.47 126.41 50.47 126.41 57.89 65.23 57.89 65.23 50.47 91.69 50.47 91.69 40.67 74.12 40.67 74.12 19.39 109.12 19.39 109.12 12.04 74.12 12.04 74.12 5.18 117.52 5.18"></polygon>
                <path d="M138.67,64.47 L138.67,41.65 L155.12,41.65 L155.12,36.75 L128.17,36.75 L128.17,29.33 L190.47,29.33 L190.47,36.75 L163.52,36.75 L163.52,41.65 L179.97,41.65 L179.97,64.47 L138.67,64.47 Z M177.59,13.51 C177.59,15.47 177.1,17.22 176.26,18.83 C175.35,20.51 174.09,21.98 172.48,23.1 C170.8,24.36 168.91,25.27 166.67,25.9 C164.36,26.6 161.84,26.95 159.18,26.95 C156.52,26.95 154.14,26.67 151.97,25.97 C149.73,25.34 147.77,24.43 146.16,23.24 C144.48,22.12 143.22,20.65 142.31,18.97 C141.33,17.36 140.91,15.54 140.91,13.51 C140.91,11.48 141.33,9.59 142.31,7.91 C143.22,6.3 144.48,4.9 146.16,3.64 C147.77,2.52 149.73,1.61 151.97,0.91 C154.14,0.35 156.52,0 159.18,0 C161.84,0 164.36,0.35 166.67,0.98 C168.91,1.68 170.8,2.66 172.48,3.78 C174.02,5.04 175.28,6.44 176.26,8.05 C177.1,9.73 177.59,11.55 177.59,13.51 Z M171.57,49.07 L147,49.07 L147,56.98 L171.57,56.98 L171.57,49.07 Z M169.19,13.51 C169.19,12.6 168.91,11.76 168.42,10.92 C167.86,10.22 167.16,9.52 166.32,8.96 C165.41,8.47 164.36,8.05 163.17,7.7 C161.91,7.42 160.58,7.28 159.18,7.28 C157.78,7.28 156.52,7.42 155.4,7.7 C154.14,7.98 153.09,8.4 152.25,8.89 C151.34,9.45 150.64,10.15 150.15,10.85 C149.59,11.69 149.31,12.53 149.31,13.51 C149.31,14.49 149.59,15.4 150.15,16.1 C150.64,16.87 151.34,17.5 152.32,17.99 C153.16,18.55 154.21,18.97 155.47,19.25 C156.59,19.53 157.85,19.67 159.18,19.67 C160.58,19.67 161.91,19.53 163.17,19.18 C164.36,18.9 165.41,18.48 166.32,17.92 C167.16,17.43 167.86,16.8 168.42,16.03 C168.91,15.33 169.19,14.49 169.19,13.51 Z" id="Shape"></path>
                <path d="M228.56,6.37 C228.56,17.71 227.79,28.42 226.25,38.57 L223.52,38.15 C224.99,28 225.76,18.2 225.76,8.82 L196.92,8.82 L196.92,6.37 L228.56,6.37 Z M192.72,49.77 L192.72,47.32 L207.77,47.32 L207.77,24.92 L210.57,24.92 L210.57,47.32 C219.53,47.32 227.65,46.62 234.79,45.08 L235.21,47.46 C228.07,49 219.39,49.77 209.17,49.77 L192.72,49.77 Z M243.12,28.77 L243.12,65.87 L240.32,65.87 L240.32,0.07 L243.12,0.07 L243.12,26.32 L255.37,26.32 L255.37,28.77 L243.12,28.77 Z" id="Shape"></path>
                <path d="M281.92,9.66 L281.92,7.21 L299.28,7.21 L299.28,0.07 L302.08,0.07 L302.08,7.21 L319.37,7.21 L319.37,9.66 L281.92,9.66 Z M332.32,20.72 L332.32,36.47 L329.52,36.47 L329.52,0.07 L332.32,0.07 L332.32,18.27 L343.17,18.27 L343.17,20.72 L332.32,20.72 Z M292.77,64.47 L292.77,43.47 L332.32,43.47 L332.32,64.47 L292.77,64.47 Z M329.52,45.92 L295.57,45.92 L295.57,62.02 L329.52,62.02 L329.52,45.92 Z M314.05,24.71 C314.05,28.35 312.72,31.15 310.2,33.25 C307.61,35.42 304.39,36.47 300.61,36.47 C296.76,36.47 293.54,35.42 291.02,33.25 C288.43,31.15 287.17,28.35 287.17,24.71 C287.17,21.07 288.43,18.2 291.02,16.03 C293.54,13.93 296.76,12.88 300.61,12.88 C304.39,12.88 307.61,13.93 310.2,16.03 C312.72,18.2 314.05,21.07 314.05,24.71 Z M311.25,24.71 C311.25,21.77 310.2,19.46 308.17,17.78 C306.07,16.17 303.55,15.33 300.61,15.33 C297.6,15.33 295.08,16.17 293.05,17.78 C290.95,19.46 289.97,21.77 289.97,24.71 C289.97,27.65 290.95,29.89 293.05,31.5 C295.08,33.18 297.6,34.02 300.61,34.02 C303.55,34.02 306.07,33.18 308.17,31.5 C310.2,29.89 311.25,27.65 311.25,24.71 Z" id="Shape"></path>
                <path d="M387.98,63.77 L385.18,63.77 L385.18,27.02 L374.68,27.02 C374.12,29.12 373.42,31.15 372.72,32.97 C369.85,40.11 366.7,45.36 363.34,48.72 L361.24,46.76 C364.46,43.54 367.4,38.5 370.13,31.71 C372.58,25.55 373.91,17.92 374.12,8.82 L364.25,8.82 L364.25,6.37 L376.99,6.37 C376.99,13.23 376.36,19.25 375.24,24.57 L385.18,24.57 L385.18,1.47 L387.98,1.47 L387.98,63.77 Z M400.37,65.87 L397.57,65.87 L397.57,0.07 L400.37,0.07 L400.37,65.87 Z M344.93,40.81 C348.5,38.36 351.65,34.16 354.38,28.14 C356.76,22.75 358.09,16.31 358.37,8.82 L347.8,8.82 L347.8,6.37 L361.24,6.37 C361.24,15.4 359.77,23.03 356.97,29.33 C354.1,35.7 350.81,40.18 347.03,42.77 L344.93,40.81 Z" id="Shape"></path>
                <path d="M32.2,141.47 L32.2,114.87 L50.82,114.87 L50.82,141.47 L32.2,141.47 Z M48.16,117.18 L34.86,117.18 L34.86,139.16 L48.16,139.16 L48.16,117.18 Z M25.9,128.38 L9.73,128.38 L9.73,139.16 C16.24,139.16 21.98,138.67 26.88,137.83 L27.3,140.07 C22.4,140.98 15.61,141.47 7.07,141.47 L7.07,126.07 L23.24,126.07 L23.24,117.18 L7.07,117.18 L7.07,114.87 L25.9,114.87 L25.9,128.38 Z M20.86,85.75 C20.86,89.67 22.61,93.38 26.18,96.95 C29.68,100.59 33.88,103.32 38.78,105.21 L36.68,107.17 C31.57,105.07 27.16,101.99 23.52,98.07 C21.7,96.18 20.37,94.22 19.46,92.19 C18.48,94.5 17.08,96.74 15.19,98.91 C11.55,103.11 7.14,106.33 2.1,108.57 L0,106.61 C4.83,104.51 9.03,101.57 12.6,97.72 C16.1,93.94 17.92,89.95 17.92,85.75 L17.92,79.17 L20.86,79.17 L20.86,85.75 Z M50.82,94.22 L50.82,108.57 L48.02,108.57 L48.02,77.07 L50.82,77.07 L50.82,91.77 L61.67,91.77 L61.67,94.22 L50.82,94.22 Z" id="Shape"></path>
                <path d="M110.54,90.23 C110.54,94.15 108.93,97.09 105.71,99.12 C102.42,101.22 98.29,102.27 93.32,102.27 C88.42,102.27 84.36,101.22 81.14,99.12 C77.85,97.09 76.24,94.15 76.24,90.23 C76.24,86.31 77.85,83.3 81.14,81.2 C84.36,79.17 88.42,78.12 93.32,78.12 C98.29,78.12 102.42,79.17 105.71,81.2 C108.93,83.3 110.54,86.31 110.54,90.23 Z M107.74,90.23 C107.74,87.08 106.34,84.7 103.68,83.02 C100.88,81.41 97.45,80.57 93.32,80.57 C89.26,80.57 85.9,81.41 83.17,83.02 C80.37,84.7 79.04,87.08 79.04,90.23 C79.04,93.38 80.37,95.76 83.17,97.37 C85.9,99.05 89.26,99.82 93.32,99.82 C97.45,99.82 100.88,99.05 103.68,97.37 C106.34,95.76 107.74,93.38 107.74,90.23 Z M113.97,130.83 L75.47,130.83 L75.47,139.72 L114.67,139.72 L114.67,142.17 L72.67,142.17 L72.67,128.38 L111.17,128.38 L111.17,120.12 L72.67,120.12 L72.67,117.67 L113.97,117.67 L113.97,130.83 Z M124.47,108.5 L124.47,110.95 L62.17,110.95 L62.17,108.5 L124.47,108.5 Z" id="Shape"></path>
                <path d="M180.35,142.87 L180.35,119.56 L151.23,119.56 L151.23,117.11 L212.41,117.11 L212.41,119.56 L183.29,119.56 L183.29,142.87 L180.35,142.87 Z M204.01,106.47 L161.17,106.47 L161.17,80.22 L163.97,80.22 L163.97,104.02 L204.01,104.02 L204.01,106.47 Z" id="Shape"></path>
                <path d="M224.32,123.27 C236.22,123.27 246.86,122.57 256.1,121.03 L256.52,123.41 C247.28,124.95 235.59,125.72 221.52,125.72 L221.52,102.48 L246.02,102.48 L246.02,85.82 L221.52,85.82 L221.52,83.37 L248.82,83.37 L248.82,104.93 L224.32,104.93 L224.32,123.27 Z M268.42,142.87 L265.62,142.87 L265.62,77.07 L268.42,77.07 L268.42,142.87 Z" id="Shape"></path>
                <path d="M310.78,124.53 C306.51,121.24 302.73,116.55 299.51,110.46 C297.9,107.59 296.71,104.65 295.94,101.57 C295.1,104.65 293.91,107.59 292.37,110.46 C289.08,116.55 285.3,121.24 281.1,124.53 L279,122.57 C282.99,119.49 286.56,115.01 289.78,109.27 C292.86,103.53 294.47,97.58 294.47,91.42 L294.47,81.97 L297.41,81.97 L297.41,91.42 C297.41,97.58 298.95,103.53 302.17,109.27 C305.25,115.01 308.82,119.49 312.88,122.57 L310.78,124.53 Z M306.86,98.56 L318.83,98.56 L318.83,78.47 L321.63,78.47 L321.63,140.77 L318.83,140.77 L318.83,101.01 L306.86,101.01 L306.86,98.56 Z M334.37,142.87 L331.57,142.87 L331.57,77.07 L334.37,77.07 L334.37,142.87 Z" id="Shape"></path>
                <path d="M387.02,116.62 L387.02,130.97 L402.91,130.97 L402.91,133.42 L341.73,133.42 L341.73,130.97 L357.62,130.97 L357.62,116.62 L360.42,116.62 L360.42,130.97 L384.22,130.97 L384.22,116.62 L387.02,116.62 Z M391.29,98.63 C391.29,103.67 389.47,107.8 385.97,111.02 C382.33,114.31 377.78,115.92 372.32,115.92 C366.93,115.92 362.45,114.31 358.88,111.02 C355.24,107.8 353.49,103.67 353.49,98.63 C353.49,93.59 355.24,89.46 358.88,86.17 C362.45,82.95 366.93,81.27 372.32,81.27 C377.78,81.27 382.33,82.95 385.97,86.17 C389.47,89.46 391.29,93.59 391.29,98.63 Z M388.49,98.63 C388.49,94.36 386.95,90.79 383.94,87.92 C380.86,85.12 376.94,83.72 372.32,83.72 C367.84,83.72 364.06,85.12 360.98,87.92 C357.83,90.79 356.29,94.36 356.29,98.63 C356.29,102.9 357.83,106.4 360.98,109.2 C364.06,112.07 367.84,113.47 372.32,113.47 C376.94,113.47 380.86,112.07 383.94,109.2 C386.95,106.4 388.49,102.9 388.49,98.63 Z" id="Shape"></path>
            </g>
        </g>
    </g>
</svg>