<svg id="그동안_이로움_마켓을_이용해_주셔서" data-name="그동안 이로움 마켓을 이용해 주셔서" xmlns="http://www.w3.org/2000/svg" xmlns:xlink="http://www.w3.org/1999/xlink" width="475.02" height="105.75" viewBox="0 0 475.02 105.75">
  <defs>
    <linearGradient id="linear-gradient" x1="-0.062" y1="-0.136" x2="1.042" y2="1" gradientUnits="objectBoundingBox">
      <stop offset="0" stop-color="#f34747"/>
      <stop offset="1" stop-color="#7038d0"/>
    </linearGradient>
  </defs>
  <g id="Shape">
    <path id="Shape-2" data-name="Shape" d="M53.82,105.12a11.707,11.707,0,0,1-3.51-1.755,8.178,8.178,0,0,1-2.205-2.7A7.328,7.328,0,0,1,47.34,97.2a7.471,7.471,0,0,1,.765-3.465A7.935,7.935,0,0,1,50.31,90.99a10.885,10.885,0,0,1,3.465-1.755,16.519,16.519,0,0,1,4.725-.63,16.813,16.813,0,0,1,4.68.63,13.062,13.062,0,0,1,3.555,1.755,7.6,7.6,0,0,1,2.97,6.21,7.963,7.963,0,0,1-.765,3.465,8.606,8.606,0,0,1-2.25,2.7,12.887,12.887,0,0,1-3.51,1.755,17.05,17.05,0,0,1-4.68.63A16.345,16.345,0,0,1,53.82,105.12ZM52.155,92.565a5.576,5.576,0,0,0-2.3,4.635,4.724,4.724,0,0,0,.63,2.565,5.584,5.584,0,0,0,1.71,2.025,8.675,8.675,0,0,0,2.745,1.305,13.917,13.917,0,0,0,3.555.45,10.352,10.352,0,0,0,6.39-1.755,5.783,5.783,0,0,0,0-9.225A10.352,10.352,0,0,0,58.5,90.81,10.269,10.269,0,0,0,52.155,92.565ZM467.819,105.3H463.86V63h3.96V78.975h7.2V82.44h-7.2V105.3h0Zm-38.7,0H425.16V63h3.96v42.3Zm-82.8,0H342.36V63h3.96V78.975h7.2V82.44h-7.2V105.3h0Zm-94.906,0H248.9V78.615h-10.17v-2.25H248.9V63h2.52v42.3Zm-40.455,0H208.44V83.52h-9.585V81.4h9.585v-8.1h-9.585v-2.16h9.585V63h2.52v42.3Zm-54.4,0H153.9V90.54H135.63V88.335h39.33V90.54h-18.4V105.3h0Zm-41.041,0H113.04V81.81h-6.525v22.14H104.04V63.9h2.475V79.605h6.525V63h2.475v42.3Zm-82.575,0H30.42V63h2.52v42.3Zm354.331-.9H361.4V89.55h3.915v4.14h18V89.55h3.96V104.4h0Zm-21.959-3.285h18V96.93h-18ZM306.269,104.4H280.4V88.425H306.27V104.4h0Zm-21.959-3.51h18V91.935h-18ZM86.94,92.88a7.221,7.221,0,0,1-2.745-1.98,7.621,7.621,0,0,1-1.8-2.88,9.253,9.253,0,0,1-.63-3.555,9.548,9.548,0,0,1,.63-3.6,8,8,0,0,1,1.8-2.88A8.19,8.19,0,0,1,86.94,76.05a9.817,9.817,0,0,1,7.155,0,9.439,9.439,0,0,1,2.79,1.935,10.253,10.253,0,0,1,1.755,2.88,10.609,10.609,0,0,1,.63,3.6,10.226,10.226,0,0,1-.63,3.6,9.626,9.626,0,0,1-1.755,2.88A8.026,8.026,0,0,1,94.1,92.88a9.248,9.248,0,0,1-7.155,0Zm1.035-14.805A5.944,5.944,0,0,0,86,79.515,6.094,6.094,0,0,0,84.69,81.72a7.834,7.834,0,0,0-.45,2.745,7.594,7.594,0,0,0,.45,2.745A5.266,5.266,0,0,0,86,89.37a4.927,4.927,0,0,0,1.98,1.44,5.593,5.593,0,0,0,2.52.54,6.278,6.278,0,0,0,2.565-.54,5.767,5.767,0,0,0,2.025-1.44,6.341,6.341,0,0,0,1.26-2.16,8.791,8.791,0,0,0,.45-2.745,8.9,8.9,0,0,0-.45-2.7,7.513,7.513,0,0,0-1.26-2.2,7.2,7.2,0,0,0-2.025-1.44,6.507,6.507,0,0,0-5.085-.045Zm228.1,15.479c-.449-.4-.907-.862-1.349-1.3-.225-.225-.454-.442-.674-.652s-.451-.428-.676-.653a27.374,27.374,0,0,0,4.635-4.14,26.836,26.836,0,0,0,3.285-4.68,23.216,23.216,0,0,0,1.98-4.95,21.091,21.091,0,0,0,.63-5.04v-6.21h4.1v6.21a19.816,19.816,0,0,0,2.655,9.945,24.537,24.537,0,0,0,7.92,8.46l-2.7,2.565a24.849,24.849,0,0,1-3.2-2.565,19.4,19.4,0,0,1-2.79-2.97,19.481,19.481,0,0,1-2.3-3.24,12.974,12.974,0,0,1-1.62-3.375,24.013,24.013,0,0,1-3.96,6.885,31.33,31.33,0,0,1-5.939,5.714h0Zm-96.209,0h0a8.4,8.4,0,0,1-.9-.9c-.311-.265-.63-.54-.9-.81a23.087,23.087,0,0,0,4.455-3.96,28.029,28.029,0,0,0,3.51-4.815,25.427,25.427,0,0,0,2.25-5.355,19.566,19.566,0,0,0,.81-5.49v-6.12h2.655v6.12a18.079,18.079,0,0,0,.9,5.805,21.834,21.834,0,0,0,2.43,5.31,22.364,22.364,0,0,0,3.555,4.59A20,20,0,0,0,242.82,91.4c-.164.164-.327.314-.484.461s-.286.265-.416.394c-.315.27-.626.581-.9.855a17.984,17.984,0,0,1-3.285-2.655,23.224,23.224,0,0,1-3.015-3.285,21.294,21.294,0,0,1-2.52-3.78,20.01,20.01,0,0,1-1.8-4.14,23.59,23.59,0,0,1-1.71,4.275,28.6,28.6,0,0,1-2.475,3.915A24.338,24.338,0,0,1,223.2,90.81a22.77,22.77,0,0,1-3.329,2.745Zm-40.5,0h0a8.4,8.4,0,0,1-.9-.9c-.311-.265-.63-.54-.9-.81a23.087,23.087,0,0,0,4.455-3.96,28.029,28.029,0,0,0,3.51-4.815,25.427,25.427,0,0,0,2.25-5.355,19.566,19.566,0,0,0,.81-5.49v-6.12h2.655v6.12a18.079,18.079,0,0,0,.9,5.805,21.834,21.834,0,0,0,2.43,5.31,22.364,22.364,0,0,0,3.555,4.59A20,20,0,0,0,202.32,91.4c-.164.164-.327.315-.484.461s-.286.265-.416.394c-.315.27-.625.581-.9.855a17.984,17.984,0,0,1-3.285-2.655,23.224,23.224,0,0,1-3.015-3.285,21.294,21.294,0,0,1-2.52-3.78,20.01,20.01,0,0,1-1.8-4.14,23.59,23.59,0,0,1-1.71,4.275,28.6,28.6,0,0,1-2.475,3.915A24.337,24.337,0,0,1,182.7,90.81a22.769,22.769,0,0,1-3.329,2.745ZM437.9,92.475h0V66.825h19.44v3.51H441.81V89.01h.041c3.361,0,6.306-.118,9-.359,2.983-.226,6.012-.59,9-1.08l.4,3.42A143.6,143.6,0,0,1,437.9,92.475Zm-39.15-.45h0V66.375h3.915V88.56h.045c3.549,0,6.494-.114,9.27-.359,3.016-.225,5.945-.579,8.955-1.08l.4,3.42a142.18,142.18,0,0,1-22.589,1.485ZM6.885,89.955a10.009,10.009,0,0,1-3.645-2.52,10.25,10.25,0,0,1-2.385-3.78A12.347,12.347,0,0,1,0,78.93a12.792,12.792,0,0,1,.855-4.77A10.863,10.863,0,0,1,6.885,67.9a11.352,11.352,0,0,1,4.545-.9,11.86,11.86,0,0,1,4.545.9,12.583,12.583,0,0,1,3.6,2.475,13.673,13.673,0,0,1,2.43,3.78,13.744,13.744,0,0,1,.855,4.77,13.417,13.417,0,0,1-.855,4.725,12.482,12.482,0,0,1-2.43,3.78,10.949,10.949,0,0,1-8.145,3.42A10.559,10.559,0,0,1,6.885,89.955ZM7.965,69.93A9.113,9.113,0,0,0,5.13,71.955a9.721,9.721,0,0,0-1.89,3.06,11.228,11.228,0,0,0-.675,3.915,10.464,10.464,0,0,0,.675,3.825,8.391,8.391,0,0,0,1.89,3.06A7.307,7.307,0,0,0,7.92,87.84a7.78,7.78,0,0,0,3.555.765,7.677,7.677,0,0,0,3.51-.765,7.879,7.879,0,0,0,2.835-2.025,9.87,9.87,0,0,0,1.845-3.06,11.506,11.506,0,0,0,.63-3.825,11.1,11.1,0,0,0-.675-3.87A10.479,10.479,0,0,0,17.775,72a10.511,10.511,0,0,0-2.79-2.07,8.916,8.916,0,0,0-7.02,0Zm354.87,16.29a7.709,7.709,0,0,1-2.88-1.575,5.848,5.848,0,0,1-1.845-2.43,7.165,7.165,0,0,1-.675-3.15,7.557,7.557,0,0,1,.675-3.195A7.708,7.708,0,0,1,360,73.4a9.368,9.368,0,0,1,2.88-1.62,11.546,11.546,0,0,1,3.645-.54,12.42,12.42,0,0,1,3.69.585,9.92,9.92,0,0,1,2.88,1.62,7.708,7.708,0,0,1,1.89,2.475,7.716,7.716,0,0,1,.045,6.21,7.243,7.243,0,0,1-1.845,2.475,8.193,8.193,0,0,1-2.88,1.62,11.409,11.409,0,0,1-3.78.585A10.561,10.561,0,0,1,362.835,86.22Zm0-10.485a4.077,4.077,0,0,0-1.44,3.33,3.99,3.99,0,0,0,1.485,3.24,5.179,5.179,0,0,0,3.645,1.26,5.659,5.659,0,0,0,3.69-1.215,3.988,3.988,0,0,0,1.485-3.285,4.178,4.178,0,0,0-1.44-3.33,5.657,5.657,0,0,0-3.735-1.215A5.426,5.426,0,0,0,362.835,75.735ZM387.269,85.95H383.31V63h3.96V73.125H393.8v3.51H387.27v9.314h0ZM38.52,85.635V83.43H50.085V77.535a6.938,6.938,0,0,1-2.7-5.67A7.094,7.094,0,0,1,48.24,68.4a7.743,7.743,0,0,1,2.385-2.61,11.474,11.474,0,0,1,3.51-1.665A16.743,16.743,0,0,1,58.5,63.54a17.636,17.636,0,0,1,4.455.585A12.312,12.312,0,0,1,66.51,65.79,8.787,8.787,0,0,1,68.9,68.4a7.611,7.611,0,0,1,.855,3.465,6.888,6.888,0,0,1-2.79,5.67V83.43H78.57v2.2H38.52ZM52.515,83.43H64.53V79.02a14.568,14.568,0,0,1-6.03,1.125,13.955,13.955,0,0,1-5.985-1.17Zm2.7-17.28a10.266,10.266,0,0,0-2.745,1.215A6.474,6.474,0,0,0,50.58,69.3a5.226,5.226,0,0,0-.675,2.565,4.381,4.381,0,0,0,.72,2.565,5.314,5.314,0,0,0,1.845,1.89,8.051,8.051,0,0,0,2.745,1.215,12.844,12.844,0,0,0,3.285.4,13.909,13.909,0,0,0,3.375-.4A8.926,8.926,0,0,0,64.62,76.32a6.329,6.329,0,0,0,1.89-1.89,4.758,4.758,0,0,0,.675-2.565,4.9,4.9,0,0,0-.675-2.52,6.828,6.828,0,0,0-1.845-1.935,10.261,10.261,0,0,0-2.745-1.26,13.916,13.916,0,0,0-3.42-.4A12.722,12.722,0,0,0,55.215,66.15ZM306.269,85.275H302.31V63h3.96v9.45h6.75v3.51h-6.75v9.314h0Zm-29.384,0a17.761,17.761,0,0,1-1.215-1.485,13.362,13.362,0,0,1-1.26-1.485,25.862,25.862,0,0,0,5.8-2.115A24.431,24.431,0,0,0,285.165,77a18.349,18.349,0,0,0,3.645-4.1,11.935,11.935,0,0,0,1.845-4.59H275.9V64.8h19.44a17.517,17.517,0,0,1-1.44,7.065,21.373,21.373,0,0,1-3.915,5.985,25.129,25.129,0,0,1-5.85,4.545,27.5,27.5,0,0,1-7.244,2.88ZM164.565,80.01a20.855,20.855,0,0,1-3.915-2.34,19.451,19.451,0,0,1-3.2-2.79,11.234,11.234,0,0,1-2.16-3.06,13.715,13.715,0,0,1-2.205,3.06,20.833,20.833,0,0,1-3.195,2.745,24.225,24.225,0,0,1-3.915,2.34,27.585,27.585,0,0,1-4.365,1.755h0a8.219,8.219,0,0,1-.854-.9c-.27-.27-.545-.59-.81-.9a15.9,15.9,0,0,0,3.06-.99,20.68,20.68,0,0,0,3.195-1.575,29.884,29.884,0,0,0,2.97-2.115,18.208,18.208,0,0,0,2.475-2.475,11.289,11.289,0,0,0,1.62-2.745,6.768,6.768,0,0,0,.495-2.835H141.75V64.98h27.045v2.205H156.78a7.444,7.444,0,0,0,1.17,4.095,12.971,12.971,0,0,0,3.105,3.6,19.245,19.245,0,0,0,4.41,2.925,25.59,25.59,0,0,0,5.13,2.115l-.038.046c-.253.293-.515.6-.772.854-.27.315-.581.626-.855.9A24.476,24.476,0,0,1,164.565,80.01ZM100.8,71.64H80.145v-2.2h9.09v-6.03h2.52v6.03H100.8v2.2h0Zm277.7-1.755H354.645v-3.06h9.945V63h3.96v3.825h9.945v3.059h0ZM94.455,42.165A11.936,11.936,0,0,1,90.99,40.41a7.935,7.935,0,0,1-2.205-2.745,7.5,7.5,0,0,1-.81-3.555,7.677,7.677,0,0,1,.765-3.51,7.935,7.935,0,0,1,2.2-2.745,10.984,10.984,0,0,1,3.465-1.8,16,16,0,0,1,4.59-.63,16.4,16.4,0,0,1,4.635.63A12.533,12.533,0,0,1,107.1,27.81a9.132,9.132,0,0,1,2.2,2.745,8.588,8.588,0,0,1,.765,3.555,8.06,8.06,0,0,1-.765,3.555,9.132,9.132,0,0,1-2.2,2.745,12.533,12.533,0,0,1-3.465,1.755A18.319,18.319,0,0,1,99,42.75,17.416,17.416,0,0,1,94.455,42.165ZM92.79,29.43A5.619,5.619,0,0,0,90.5,34.11a5.507,5.507,0,0,0,2.295,4.635A9.8,9.8,0,0,0,99.045,40.5a10.381,10.381,0,0,0,6.255-1.71,5.619,5.619,0,0,0,2.25-4.68,5.734,5.734,0,0,0-2.25-4.725,10.381,10.381,0,0,0-6.255-1.71A9.8,9.8,0,0,0,92.79,29.43ZM346.184,42.3h-2.519V0h2.52V16.56h7.65v2.205h-7.65V42.3h0Zm-135.5,0H208.17V0h2.52V42.3Zm216.9-.45H400.9V32.625H424.62v-4.68H400.9V25.83H427.14v8.865H403.425v5.04H427.59v2.114h0Zm-66.6-.45-.854-.855c-.27-.315-.581-.625-.855-.9a33.959,33.959,0,0,0,5.67-1.98,21.391,21.391,0,0,0,4.635-3.06,14.807,14.807,0,0,0,3.195-3.96,11.238,11.238,0,0,0,1.26-4.725v-.855h2.61v.585a9.987,9.987,0,0,0,1.215,4.9,13.151,13.151,0,0,0,3.195,4.05,19.626,19.626,0,0,0,4.725,3.1,28.578,28.578,0,0,0,5.625,1.935,8.141,8.141,0,0,0-.855.9c-.089.089-.18.175-.276.266a8.118,8.118,0,0,0-.579.588,30.955,30.955,0,0,1-4.635-1.574,25.991,25.991,0,0,1-4.14-2.295,16.247,16.247,0,0,1-3.33-2.97,12.122,12.122,0,0,1-2.25-3.465,13.093,13.093,0,0,1-2.25,3.465,21.18,21.18,0,0,1-3.33,2.97,30.028,30.028,0,0,1-4.1,2.295,33.339,33.339,0,0,1-4.68,1.575Zm-70.92,0H263.52V27.315h12.015V22.41H256.77V20.2h40.05v2.2H278.055v4.905H290.07V41.4h0ZM266.04,39.15h21.465V29.565H266.04ZM153.719,41.175H127.755V27.315h2.52v11.61H153.72v2.249h0Zm62.911-4.77V34.2h18.4V25.74h-11.79V13.41h23.58V6.03h-23.58V3.915h26.1v11.61h-23.58V23.58h24.39v2.16h-12.6V34.2h18.4v2.205Zm-177.75,0V34.2H78.21v2.205Zm296.5-7.29H316.3V3.96h19.08V29.114h0Zm-16.559-2.25h14.04V6.21h-14.04Zm-134.19.09a10.009,10.009,0,0,1-3.645-2.52,10.25,10.25,0,0,1-2.385-3.78,12.347,12.347,0,0,1-.855-4.725,12.792,12.792,0,0,1,.855-4.77,10.863,10.863,0,0,1,6.03-6.255,11.352,11.352,0,0,1,4.545-.9,11.86,11.86,0,0,1,4.545.9,12.583,12.583,0,0,1,3.6,2.475,13.673,13.673,0,0,1,2.43,3.78,13.744,13.744,0,0,1,.855,4.77,13.417,13.417,0,0,1-.855,4.725,12.483,12.483,0,0,1-2.43,3.78,10.949,10.949,0,0,1-8.145,3.42A10.559,10.559,0,0,1,184.635,26.955Zm1.08-20.025a9.113,9.113,0,0,0-2.835,2.025,9.721,9.721,0,0,0-1.89,3.06,11.228,11.228,0,0,0-.675,3.915,10.464,10.464,0,0,0,.675,3.825,8.391,8.391,0,0,0,1.89,3.06,7.307,7.307,0,0,0,2.79,2.025,7.78,7.78,0,0,0,3.555.765,7.677,7.677,0,0,0,3.51-.765,7.879,7.879,0,0,0,2.835-2.025,9.87,9.87,0,0,0,1.845-3.06,11.506,11.506,0,0,0,.63-3.825,11.1,11.1,0,0,0-.675-3.87A10.479,10.479,0,0,0,195.525,9a10.511,10.511,0,0,0-2.79-2.07,8.916,8.916,0,0,0-7.02,0ZM153.089,27.45H150.57V0h2.52V11.835h7.2v2.2h-7.2V27.449h0ZM68.04,25.875c.45-3.33.81-6.615,1.08-9.9.18-3.24.315-6.48.315-9.765H45.585V3.96h26.37A151.667,151.667,0,0,1,70.47,26.19ZM357.165,23.49a4.5,4.5,0,0,1-.9-.945c-.315-.27-.635-.59-.945-.9a22.542,22.542,0,0,0,3.69-1.485,26.388,26.388,0,0,0,3.555-2.115,23.762,23.762,0,0,0,3.105-2.61,17.79,17.79,0,0,0,2.52-3.015l-11.745.945c-.045-.18-.079-.374-.112-.562s-.068-.383-.113-.562a8.376,8.376,0,0,1-.225-1.125c2.262-.136,4.472-.272,6.66-.45,2.212-.092,4.453-.229,6.66-.4a18.761,18.761,0,0,0,1.125-2.925,16.887,16.887,0,0,0,.495-3.2H356.9V1.98h16.74a21.084,21.084,0,0,1-1.3,7.515,21.843,21.843,0,0,1-3.555,6.165,23.576,23.576,0,0,1-5.22,4.725,25.274,25.274,0,0,1-6.389,3.1Zm32.849-.09H387.63V0h2.385V23.4h0ZM79.02,22.32V20.07H97.785V15.21H85.68V1.53h26.325V3.735H88.2v9.27h24.66v2.2H100.305v4.86H119.07v2.249H79.02Zm315-.36v-2.2h40.05v2.2H394.02Zm-265.725-.945a8.137,8.137,0,0,1-3.195-2.07,8.137,8.137,0,0,1-2.07-3.195,10.059,10.059,0,0,1-.765-4.14,10.467,10.467,0,0,1,.765-4.185,8.855,8.855,0,0,1,2.07-3.2,9.969,9.969,0,0,1,3.195-2.07,11.594,11.594,0,0,1,4.1-.72,12.144,12.144,0,0,1,4.1.72,11.06,11.06,0,0,1,3.2,2.07,11.06,11.06,0,0,1,2.07,3.2,12.4,12.4,0,0,1,.72,4.185,11.594,11.594,0,0,1-.72,4.095,9.969,9.969,0,0,1-2.07,3.195,8.855,8.855,0,0,1-3.2,2.07,10.22,10.22,0,0,1-4.1.765A10.7,10.7,0,0,1,128.295,21.015ZM126.855,5.85a7.962,7.962,0,0,0-2.07,5.76,8.121,8.121,0,0,0,.585,3.24,6.3,6.3,0,0,0,1.575,2.52,5.822,5.822,0,0,0,2.385,1.575,7.46,7.46,0,0,0,3.1.585,7.733,7.733,0,0,0,3.06-.585,6.437,6.437,0,0,0,2.34-1.62,8.232,8.232,0,0,0,1.575-2.52,8.963,8.963,0,0,0,.54-3.195,9.721,9.721,0,0,0-.54-3.285,8.138,8.138,0,0,0-1.53-2.475A7.975,7.975,0,0,0,135.5,4.23a8.566,8.566,0,0,0-3.06-.54A7.306,7.306,0,0,0,126.855,5.85ZM382.229,21.6H379.8V12.33h-7.11V10.08h7.11V.9h2.43V21.6h0ZM272.34,16.56a10.567,10.567,0,0,1-3.51-1.665,7.645,7.645,0,0,1-2.34-2.61,6.633,6.633,0,0,1-.855-3.42A7.094,7.094,0,0,1,266.49,5.4a7.743,7.743,0,0,1,2.385-2.61,11.474,11.474,0,0,1,3.51-1.665A16.743,16.743,0,0,1,276.75.54a17.636,17.636,0,0,1,4.455.585A12.312,12.312,0,0,1,284.76,2.79a8.787,8.787,0,0,1,2.385,2.61A7.611,7.611,0,0,1,288,8.865a7.159,7.159,0,0,1-.855,3.42,8.093,8.093,0,0,1-2.34,2.61,11.452,11.452,0,0,1-3.6,1.665,15.814,15.814,0,0,1-4.455.585A15.212,15.212,0,0,1,272.34,16.56Zm1.125-13.41a10.266,10.266,0,0,0-2.745,1.215A6.474,6.474,0,0,0,268.83,6.3a5.226,5.226,0,0,0-.675,2.565,4.381,4.381,0,0,0,.72,2.565,5.314,5.314,0,0,0,1.845,1.89,8.051,8.051,0,0,0,2.745,1.215,12.844,12.844,0,0,0,3.285.4,13.909,13.909,0,0,0,3.375-.4,8.926,8.926,0,0,0,2.745-1.215,6.329,6.329,0,0,0,1.89-1.89,4.758,4.758,0,0,0,.675-2.565,4.9,4.9,0,0,0-.675-2.52,6.829,6.829,0,0,0-1.845-1.935,10.262,10.262,0,0,0-2.745-1.26,13.916,13.916,0,0,0-3.42-.4A12.722,12.722,0,0,0,273.465,3.15Zm136.17,12.51a10.37,10.37,0,0,1-3.51-1.485,6.5,6.5,0,0,1-2.385-2.43,6.234,6.234,0,0,1-.855-3.33,6.264,6.264,0,0,1,.9-3.42A6.9,6.9,0,0,1,406.17,2.52a12.546,12.546,0,0,1,3.51-1.485A19.034,19.034,0,0,1,414,.54a20.053,20.053,0,0,1,4.41.495,13.4,13.4,0,0,1,3.555,1.53,8.969,8.969,0,0,1,2.43,2.43,7.159,7.159,0,0,1,.855,3.42,6.625,6.625,0,0,1-.855,3.33,7.078,7.078,0,0,1-2.34,2.43,11.232,11.232,0,0,1-3.6,1.485A17.861,17.861,0,0,1,414,16.2,16.725,16.725,0,0,1,409.635,15.66Zm.99-12.555a9.358,9.358,0,0,0-2.7,1.035,5.414,5.414,0,0,0-1.845,1.8,4.653,4.653,0,0,0-.675,2.475,4.3,4.3,0,0,0,.675,2.43,4.974,4.974,0,0,0,1.845,1.755,7.946,7.946,0,0,0,2.745,1.08,13.235,13.235,0,0,0,3.33.36,13.7,13.7,0,0,0,3.375-.36,7.7,7.7,0,0,0,2.745-1.035,5.912,5.912,0,0,0,1.89-1.755,4.322,4.322,0,0,0,.675-2.475,4.653,4.653,0,0,0-.675-2.475,6.271,6.271,0,0,0-1.845-1.755,11.62,11.62,0,0,0-2.745-1.08,17.029,17.029,0,0,0-3.42-.36A15.943,15.943,0,0,0,410.625,3.105Z" fill="none"/>
    <path id="Shape-3" data-name="Shape" d="M53.82,105.12a11.707,11.707,0,0,1-3.51-1.755,8.178,8.178,0,0,1-2.205-2.7A7.328,7.328,0,0,1,47.34,97.2a7.471,7.471,0,0,1,.765-3.465A7.935,7.935,0,0,1,50.31,90.99a10.885,10.885,0,0,1,3.465-1.755,16.519,16.519,0,0,1,4.725-.63,16.813,16.813,0,0,1,4.68.63,13.062,13.062,0,0,1,3.555,1.755,7.6,7.6,0,0,1,2.97,6.21,7.963,7.963,0,0,1-.765,3.465,8.606,8.606,0,0,1-2.25,2.7,12.887,12.887,0,0,1-3.51,1.755,17.05,17.05,0,0,1-4.68.63A16.345,16.345,0,0,1,53.82,105.12ZM52.155,92.565a5.576,5.576,0,0,0-2.3,4.635,4.724,4.724,0,0,0,.63,2.565,5.584,5.584,0,0,0,1.71,2.025,8.675,8.675,0,0,0,2.745,1.305,13.917,13.917,0,0,0,3.555.45,10.352,10.352,0,0,0,6.39-1.755,5.783,5.783,0,0,0,0-9.225A10.352,10.352,0,0,0,58.5,90.81,10.269,10.269,0,0,0,52.155,92.565ZM467.819,105.3H463.86V63h3.96V78.975h7.2V82.44h-7.2V105.3h0Zm-38.7,0H425.16V63h3.96v42.3Zm-82.8,0H342.36V63h3.96V78.975h7.2V82.44h-7.2V105.3h0Zm-94.906,0H248.9V78.615h-10.17v-2.25H248.9V63h2.52v42.3Zm-40.455,0H208.44V83.52h-9.585V81.4h9.585v-8.1h-9.585v-2.16h9.585V63h2.52v42.3Zm-54.4,0H153.9V90.54H135.63V88.335h39.33V90.54h-18.4V105.3h0Zm-41.041,0H113.04V81.81h-6.525v22.14H104.04V63.9h2.475V79.605h6.525V63h2.475v42.3Zm-82.575,0H30.42V63h2.52v42.3Zm354.331-.9H361.4V89.55h3.915v4.14h18V89.55h3.96V104.4h0Zm-21.959-3.285h18V96.93h-18ZM306.269,104.4H280.4V88.425H306.27V104.4h0Zm-21.959-3.51h18V91.935h-18ZM86.94,92.88a7.221,7.221,0,0,1-2.745-1.98,7.621,7.621,0,0,1-1.8-2.88,9.253,9.253,0,0,1-.63-3.555,9.548,9.548,0,0,1,.63-3.6,8,8,0,0,1,1.8-2.88A8.19,8.19,0,0,1,86.94,76.05a9.817,9.817,0,0,1,7.155,0,9.439,9.439,0,0,1,2.79,1.935,10.253,10.253,0,0,1,1.755,2.88,10.609,10.609,0,0,1,.63,3.6,10.226,10.226,0,0,1-.63,3.6,9.626,9.626,0,0,1-1.755,2.88A8.026,8.026,0,0,1,94.1,92.88a9.248,9.248,0,0,1-7.155,0Zm1.035-14.805A5.944,5.944,0,0,0,86,79.515,6.094,6.094,0,0,0,84.69,81.72a7.834,7.834,0,0,0-.45,2.745,7.594,7.594,0,0,0,.45,2.745A5.266,5.266,0,0,0,86,89.37a4.927,4.927,0,0,0,1.98,1.44,5.593,5.593,0,0,0,2.52.54,6.278,6.278,0,0,0,2.565-.54,5.767,5.767,0,0,0,2.025-1.44,6.341,6.341,0,0,0,1.26-2.16,8.791,8.791,0,0,0,.45-2.745,8.9,8.9,0,0,0-.45-2.7,7.513,7.513,0,0,0-1.26-2.2,7.2,7.2,0,0,0-2.025-1.44,6.507,6.507,0,0,0-5.085-.045Zm228.1,15.479c-.449-.4-.907-.862-1.349-1.3-.225-.225-.454-.442-.674-.652s-.451-.428-.676-.653a27.374,27.374,0,0,0,4.635-4.14,26.836,26.836,0,0,0,3.285-4.68,23.216,23.216,0,0,0,1.98-4.95,21.091,21.091,0,0,0,.63-5.04v-6.21h4.1v6.21a19.816,19.816,0,0,0,2.655,9.945,24.537,24.537,0,0,0,7.92,8.46l-2.7,2.565a24.849,24.849,0,0,1-3.2-2.565,19.4,19.4,0,0,1-2.79-2.97,19.481,19.481,0,0,1-2.3-3.24,12.974,12.974,0,0,1-1.62-3.375,24.013,24.013,0,0,1-3.96,6.885,31.33,31.33,0,0,1-5.939,5.714h0Zm-96.209,0h0a8.4,8.4,0,0,1-.9-.9c-.311-.265-.63-.54-.9-.81a23.087,23.087,0,0,0,4.455-3.96,28.029,28.029,0,0,0,3.51-4.815,25.427,25.427,0,0,0,2.25-5.355,19.566,19.566,0,0,0,.81-5.49v-6.12h2.655v6.12a18.079,18.079,0,0,0,.9,5.805,21.834,21.834,0,0,0,2.43,5.31,22.364,22.364,0,0,0,3.555,4.59A20,20,0,0,0,242.82,91.4c-.164.164-.327.314-.484.461s-.286.265-.416.394c-.315.27-.626.581-.9.855a17.984,17.984,0,0,1-3.285-2.655,23.224,23.224,0,0,1-3.015-3.285,21.294,21.294,0,0,1-2.52-3.78,20.01,20.01,0,0,1-1.8-4.14,23.59,23.59,0,0,1-1.71,4.275,28.6,28.6,0,0,1-2.475,3.915A24.338,24.338,0,0,1,223.2,90.81a22.77,22.77,0,0,1-3.329,2.745Zm-40.5,0h0a8.4,8.4,0,0,1-.9-.9c-.311-.265-.63-.54-.9-.81a23.087,23.087,0,0,0,4.455-3.96,28.029,28.029,0,0,0,3.51-4.815,25.427,25.427,0,0,0,2.25-5.355,19.566,19.566,0,0,0,.81-5.49v-6.12h2.655v6.12a18.079,18.079,0,0,0,.9,5.805,21.834,21.834,0,0,0,2.43,5.31,22.364,22.364,0,0,0,3.555,4.59A20,20,0,0,0,202.32,91.4c-.164.164-.327.315-.484.461s-.286.265-.416.394c-.315.27-.625.581-.9.855a17.984,17.984,0,0,1-3.285-2.655,23.224,23.224,0,0,1-3.015-3.285,21.294,21.294,0,0,1-2.52-3.78,20.01,20.01,0,0,1-1.8-4.14,23.59,23.59,0,0,1-1.71,4.275,28.6,28.6,0,0,1-2.475,3.915A24.337,24.337,0,0,1,182.7,90.81a22.769,22.769,0,0,1-3.329,2.745ZM437.9,92.475h0V66.825h19.44v3.51H441.81V89.01h.041c3.361,0,6.306-.118,9-.359,2.983-.226,6.012-.59,9-1.08l.4,3.42A143.6,143.6,0,0,1,437.9,92.475Zm-39.15-.45h0V66.375h3.915V88.56h.045c3.549,0,6.494-.114,9.27-.359,3.016-.225,5.945-.579,8.955-1.08l.4,3.42a142.18,142.18,0,0,1-22.589,1.485ZM6.885,89.955a10.009,10.009,0,0,1-3.645-2.52,10.25,10.25,0,0,1-2.385-3.78A12.347,12.347,0,0,1,0,78.93a12.792,12.792,0,0,1,.855-4.77A10.863,10.863,0,0,1,6.885,67.9a11.352,11.352,0,0,1,4.545-.9,11.86,11.86,0,0,1,4.545.9,12.583,12.583,0,0,1,3.6,2.475,13.673,13.673,0,0,1,2.43,3.78,13.744,13.744,0,0,1,.855,4.77,13.417,13.417,0,0,1-.855,4.725,12.482,12.482,0,0,1-2.43,3.78,10.949,10.949,0,0,1-8.145,3.42A10.559,10.559,0,0,1,6.885,89.955ZM7.965,69.93A9.113,9.113,0,0,0,5.13,71.955a9.721,9.721,0,0,0-1.89,3.06,11.228,11.228,0,0,0-.675,3.915,10.464,10.464,0,0,0,.675,3.825,8.391,8.391,0,0,0,1.89,3.06A7.307,7.307,0,0,0,7.92,87.84a7.78,7.78,0,0,0,3.555.765,7.677,7.677,0,0,0,3.51-.765,7.879,7.879,0,0,0,2.835-2.025,9.87,9.87,0,0,0,1.845-3.06,11.506,11.506,0,0,0,.63-3.825,11.1,11.1,0,0,0-.675-3.87A10.479,10.479,0,0,0,17.775,72a10.511,10.511,0,0,0-2.79-2.07,8.916,8.916,0,0,0-7.02,0Zm354.87,16.29a7.709,7.709,0,0,1-2.88-1.575,5.848,5.848,0,0,1-1.845-2.43,7.165,7.165,0,0,1-.675-3.15,7.557,7.557,0,0,1,.675-3.195A7.708,7.708,0,0,1,360,73.4a9.368,9.368,0,0,1,2.88-1.62,11.546,11.546,0,0,1,3.645-.54,12.42,12.42,0,0,1,3.69.585,9.92,9.92,0,0,1,2.88,1.62,7.708,7.708,0,0,1,1.89,2.475,7.716,7.716,0,0,1,.045,6.21,7.243,7.243,0,0,1-1.845,2.475,8.193,8.193,0,0,1-2.88,1.62,11.409,11.409,0,0,1-3.78.585A10.561,10.561,0,0,1,362.835,86.22Zm0-10.485a4.077,4.077,0,0,0-1.44,3.33,3.99,3.99,0,0,0,1.485,3.24,5.179,5.179,0,0,0,3.645,1.26,5.659,5.659,0,0,0,3.69-1.215,3.988,3.988,0,0,0,1.485-3.285,4.178,4.178,0,0,0-1.44-3.33,5.657,5.657,0,0,0-3.735-1.215A5.426,5.426,0,0,0,362.835,75.735ZM387.269,85.95H383.31V63h3.96V73.125H393.8v3.51H387.27v9.314h0ZM38.52,85.635V83.43H50.085V77.535a6.938,6.938,0,0,1-2.7-5.67A7.094,7.094,0,0,1,48.24,68.4a7.743,7.743,0,0,1,2.385-2.61,11.474,11.474,0,0,1,3.51-1.665A16.743,16.743,0,0,1,58.5,63.54a17.636,17.636,0,0,1,4.455.585A12.312,12.312,0,0,1,66.51,65.79,8.787,8.787,0,0,1,68.9,68.4a7.611,7.611,0,0,1,.855,3.465,6.888,6.888,0,0,1-2.79,5.67V83.43H78.57v2.2H38.52ZM52.515,83.43H64.53V79.02a14.568,14.568,0,0,1-6.03,1.125,13.955,13.955,0,0,1-5.985-1.17Zm2.7-17.28a10.266,10.266,0,0,0-2.745,1.215A6.474,6.474,0,0,0,50.58,69.3a5.226,5.226,0,0,0-.675,2.565,4.381,4.381,0,0,0,.72,2.565,5.314,5.314,0,0,0,1.845,1.89,8.051,8.051,0,0,0,2.745,1.215,12.844,12.844,0,0,0,3.285.4,13.909,13.909,0,0,0,3.375-.4A8.926,8.926,0,0,0,64.62,76.32a6.329,6.329,0,0,0,1.89-1.89,4.758,4.758,0,0,0,.675-2.565,4.9,4.9,0,0,0-.675-2.52,6.828,6.828,0,0,0-1.845-1.935,10.261,10.261,0,0,0-2.745-1.26,13.916,13.916,0,0,0-3.42-.4A12.722,12.722,0,0,0,55.215,66.15ZM306.269,85.275H302.31V63h3.96v9.45h6.75v3.51h-6.75v9.314h0Zm-29.384,0a17.761,17.761,0,0,1-1.215-1.485,13.362,13.362,0,0,1-1.26-1.485,25.862,25.862,0,0,0,5.8-2.115A24.431,24.431,0,0,0,285.165,77a18.349,18.349,0,0,0,3.645-4.1,11.935,11.935,0,0,0,1.845-4.59H275.9V64.8h19.44a17.517,17.517,0,0,1-1.44,7.065,21.373,21.373,0,0,1-3.915,5.985,25.129,25.129,0,0,1-5.85,4.545,27.5,27.5,0,0,1-7.244,2.88ZM164.565,80.01a20.855,20.855,0,0,1-3.915-2.34,19.451,19.451,0,0,1-3.2-2.79,11.234,11.234,0,0,1-2.16-3.06,13.715,13.715,0,0,1-2.205,3.06,20.833,20.833,0,0,1-3.195,2.745,24.225,24.225,0,0,1-3.915,2.34,27.585,27.585,0,0,1-4.365,1.755h0a8.219,8.219,0,0,1-.854-.9c-.27-.27-.545-.59-.81-.9a15.9,15.9,0,0,0,3.06-.99,20.68,20.68,0,0,0,3.195-1.575,29.884,29.884,0,0,0,2.97-2.115,18.208,18.208,0,0,0,2.475-2.475,11.289,11.289,0,0,0,1.62-2.745,6.768,6.768,0,0,0,.495-2.835H141.75V64.98h27.045v2.205H156.78a7.444,7.444,0,0,0,1.17,4.095,12.971,12.971,0,0,0,3.105,3.6,19.245,19.245,0,0,0,4.41,2.925,25.59,25.59,0,0,0,5.13,2.115l-.038.046c-.253.293-.515.6-.772.854-.27.315-.581.626-.855.9A24.476,24.476,0,0,1,164.565,80.01ZM100.8,71.64H80.145v-2.2h9.09v-6.03h2.52v6.03H100.8v2.2h0Zm277.7-1.755H354.645v-3.06h9.945V63h3.96v3.825h9.945v3.059h0ZM94.455,42.165A11.936,11.936,0,0,1,90.99,40.41a7.935,7.935,0,0,1-2.205-2.745,7.5,7.5,0,0,1-.81-3.555,7.677,7.677,0,0,1,.765-3.51,7.935,7.935,0,0,1,2.2-2.745,10.984,10.984,0,0,1,3.465-1.8,16,16,0,0,1,4.59-.63,16.4,16.4,0,0,1,4.635.63A12.533,12.533,0,0,1,107.1,27.81a9.132,9.132,0,0,1,2.2,2.745,8.588,8.588,0,0,1,.765,3.555,8.06,8.06,0,0,1-.765,3.555,9.132,9.132,0,0,1-2.2,2.745,12.533,12.533,0,0,1-3.465,1.755A18.319,18.319,0,0,1,99,42.75,17.416,17.416,0,0,1,94.455,42.165ZM92.79,29.43A5.619,5.619,0,0,0,90.5,34.11a5.507,5.507,0,0,0,2.295,4.635A9.8,9.8,0,0,0,99.045,40.5a10.381,10.381,0,0,0,6.255-1.71,5.619,5.619,0,0,0,2.25-4.68,5.734,5.734,0,0,0-2.25-4.725,10.381,10.381,0,0,0-6.255-1.71A9.8,9.8,0,0,0,92.79,29.43ZM346.184,42.3h-2.519V0h2.52V16.56h7.65v2.205h-7.65V42.3h0Zm-135.5,0H208.17V0h2.52V42.3Zm216.9-.45H400.9V32.625H424.62v-4.68H400.9V25.83H427.14v8.865H403.425v5.04H427.59v2.114h0Zm-66.6-.45-.854-.855c-.27-.315-.581-.625-.855-.9a33.959,33.959,0,0,0,5.67-1.98,21.391,21.391,0,0,0,4.635-3.06,14.807,14.807,0,0,0,3.195-3.96,11.238,11.238,0,0,0,1.26-4.725v-.855h2.61v.585a9.987,9.987,0,0,0,1.215,4.9,13.151,13.151,0,0,0,3.195,4.05,19.626,19.626,0,0,0,4.725,3.1,28.578,28.578,0,0,0,5.625,1.935,8.141,8.141,0,0,0-.855.9c-.089.089-.18.175-.276.266a8.118,8.118,0,0,0-.579.588,30.955,30.955,0,0,1-4.635-1.574,25.991,25.991,0,0,1-4.14-2.295,16.247,16.247,0,0,1-3.33-2.97,12.122,12.122,0,0,1-2.25-3.465,13.093,13.093,0,0,1-2.25,3.465,21.18,21.18,0,0,1-3.33,2.97,30.028,30.028,0,0,1-4.1,2.295,33.339,33.339,0,0,1-4.68,1.575Zm-70.92,0H263.52V27.315h12.015V22.41H256.77V20.2h40.05v2.2H278.055v4.905H290.07V41.4h0ZM266.04,39.15h21.465V29.565H266.04ZM153.719,41.175H127.755V27.315h2.52v11.61H153.72v2.249h0Zm62.911-4.77V34.2h18.4V25.74h-11.79V13.41h23.58V6.03h-23.58V3.915h26.1v11.61h-23.58V23.58h24.39v2.16h-12.6V34.2h18.4v2.205Zm-177.75,0V34.2H78.21v2.205Zm296.5-7.29H316.3V3.96h19.08V29.114h0Zm-16.559-2.25h14.04V6.21h-14.04Zm-134.19.09a10.009,10.009,0,0,1-3.645-2.52,10.25,10.25,0,0,1-2.385-3.78,12.347,12.347,0,0,1-.855-4.725,12.792,12.792,0,0,1,.855-4.77,10.863,10.863,0,0,1,6.03-6.255,11.352,11.352,0,0,1,4.545-.9,11.86,11.86,0,0,1,4.545.9,12.583,12.583,0,0,1,3.6,2.475,13.673,13.673,0,0,1,2.43,3.78,13.744,13.744,0,0,1,.855,4.77,13.417,13.417,0,0,1-.855,4.725,12.483,12.483,0,0,1-2.43,3.78,10.949,10.949,0,0,1-8.145,3.42A10.559,10.559,0,0,1,184.635,26.955Zm1.08-20.025a9.113,9.113,0,0,0-2.835,2.025,9.721,9.721,0,0,0-1.89,3.06,11.228,11.228,0,0,0-.675,3.915,10.464,10.464,0,0,0,.675,3.825,8.391,8.391,0,0,0,1.89,3.06,7.307,7.307,0,0,0,2.79,2.025,7.78,7.78,0,0,0,3.555.765,7.677,7.677,0,0,0,3.51-.765,7.879,7.879,0,0,0,2.835-2.025,9.87,9.87,0,0,0,1.845-3.06,11.506,11.506,0,0,0,.63-3.825,11.1,11.1,0,0,0-.675-3.87A10.479,10.479,0,0,0,195.525,9a10.511,10.511,0,0,0-2.79-2.07,8.916,8.916,0,0,0-7.02,0ZM153.089,27.45H150.57V0h2.52V11.835h7.2v2.2h-7.2V27.449h0ZM68.04,25.875c.45-3.33.81-6.615,1.08-9.9.18-3.24.315-6.48.315-9.765H45.585V3.96h26.37A151.667,151.667,0,0,1,70.47,26.19ZM357.165,23.49a4.5,4.5,0,0,1-.9-.945c-.315-.27-.635-.59-.945-.9a22.542,22.542,0,0,0,3.69-1.485,26.388,26.388,0,0,0,3.555-2.115,23.762,23.762,0,0,0,3.105-2.61,17.79,17.79,0,0,0,2.52-3.015l-11.745.945c-.045-.18-.079-.374-.112-.562s-.068-.383-.113-.562a8.376,8.376,0,0,1-.225-1.125c2.262-.136,4.472-.272,6.66-.45,2.212-.092,4.453-.229,6.66-.4a18.761,18.761,0,0,0,1.125-2.925,16.887,16.887,0,0,0,.495-3.2H356.9V1.98h16.74a21.084,21.084,0,0,1-1.3,7.515,21.843,21.843,0,0,1-3.555,6.165,23.576,23.576,0,0,1-5.22,4.725,25.274,25.274,0,0,1-6.389,3.1Zm32.849-.09H387.63V0h2.385V23.4h0ZM79.02,22.32V20.07H97.785V15.21H85.68V1.53h26.325V3.735H88.2v9.27h24.66v2.2H100.305v4.86H119.07v2.249H79.02Zm315-.36v-2.2h40.05v2.2H394.02Zm-265.725-.945a8.137,8.137,0,0,1-3.195-2.07,8.137,8.137,0,0,1-2.07-3.195,10.059,10.059,0,0,1-.765-4.14,10.467,10.467,0,0,1,.765-4.185,8.855,8.855,0,0,1,2.07-3.2,9.969,9.969,0,0,1,3.195-2.07,11.594,11.594,0,0,1,4.1-.72,12.144,12.144,0,0,1,4.1.72,11.06,11.06,0,0,1,3.2,2.07,11.06,11.06,0,0,1,2.07,3.2,12.4,12.4,0,0,1,.72,4.185,11.594,11.594,0,0,1-.72,4.095,9.969,9.969,0,0,1-2.07,3.195,8.855,8.855,0,0,1-3.2,2.07,10.22,10.22,0,0,1-4.1.765A10.7,10.7,0,0,1,128.295,21.015ZM126.855,5.85a7.962,7.962,0,0,0-2.07,5.76,8.121,8.121,0,0,0,.585,3.24,6.3,6.3,0,0,0,1.575,2.52,5.822,5.822,0,0,0,2.385,1.575,7.46,7.46,0,0,0,3.1.585,7.733,7.733,0,0,0,3.06-.585,6.437,6.437,0,0,0,2.34-1.62,8.232,8.232,0,0,0,1.575-2.52,8.963,8.963,0,0,0,.54-3.195,9.721,9.721,0,0,0-.54-3.285,8.138,8.138,0,0,0-1.53-2.475A7.975,7.975,0,0,0,135.5,4.23a8.566,8.566,0,0,0-3.06-.54A7.306,7.306,0,0,0,126.855,5.85ZM382.229,21.6H379.8V12.33h-7.11V10.08h7.11V.9h2.43V21.6h0ZM272.34,16.56a10.567,10.567,0,0,1-3.51-1.665,7.645,7.645,0,0,1-2.34-2.61,6.633,6.633,0,0,1-.855-3.42A7.094,7.094,0,0,1,266.49,5.4a7.743,7.743,0,0,1,2.385-2.61,11.474,11.474,0,0,1,3.51-1.665A16.743,16.743,0,0,1,276.75.54a17.636,17.636,0,0,1,4.455.585A12.312,12.312,0,0,1,284.76,2.79a8.787,8.787,0,0,1,2.385,2.61A7.611,7.611,0,0,1,288,8.865a7.159,7.159,0,0,1-.855,3.42,8.093,8.093,0,0,1-2.34,2.61,11.452,11.452,0,0,1-3.6,1.665,15.814,15.814,0,0,1-4.455.585A15.212,15.212,0,0,1,272.34,16.56Zm1.125-13.41a10.266,10.266,0,0,0-2.745,1.215A6.474,6.474,0,0,0,268.83,6.3a5.226,5.226,0,0,0-.675,2.565,4.381,4.381,0,0,0,.72,2.565,5.314,5.314,0,0,0,1.845,1.89,8.051,8.051,0,0,0,2.745,1.215,12.844,12.844,0,0,0,3.285.4,13.909,13.909,0,0,0,3.375-.4,8.926,8.926,0,0,0,2.745-1.215,6.329,6.329,0,0,0,1.89-1.89,4.758,4.758,0,0,0,.675-2.565,4.9,4.9,0,0,0-.675-2.52,6.829,6.829,0,0,0-1.845-1.935,10.262,10.262,0,0,0-2.745-1.26,13.916,13.916,0,0,0-3.42-.4A12.722,12.722,0,0,0,273.465,3.15Zm136.17,12.51a10.37,10.37,0,0,1-3.51-1.485,6.5,6.5,0,0,1-2.385-2.43,6.234,6.234,0,0,1-.855-3.33,6.264,6.264,0,0,1,.9-3.42A6.9,6.9,0,0,1,406.17,2.52a12.546,12.546,0,0,1,3.51-1.485A19.034,19.034,0,0,1,414,.54a20.053,20.053,0,0,1,4.41.495,13.4,13.4,0,0,1,3.555,1.53,8.969,8.969,0,0,1,2.43,2.43,7.159,7.159,0,0,1,.855,3.42,6.625,6.625,0,0,1-.855,3.33,7.078,7.078,0,0,1-2.34,2.43,11.232,11.232,0,0,1-3.6,1.485A17.861,17.861,0,0,1,414,16.2,16.725,16.725,0,0,1,409.635,15.66Zm.99-12.555a9.358,9.358,0,0,0-2.7,1.035,5.414,5.414,0,0,0-1.845,1.8,4.653,4.653,0,0,0-.675,2.475,4.3,4.3,0,0,0,.675,2.43,4.974,4.974,0,0,0,1.845,1.755,7.946,7.946,0,0,0,2.745,1.08,13.235,13.235,0,0,0,3.33.36,13.7,13.7,0,0,0,3.375-.36,7.7,7.7,0,0,0,2.745-1.035,5.912,5.912,0,0,0,1.89-1.755,4.322,4.322,0,0,0,.675-2.475,4.653,4.653,0,0,0-.675-2.475,6.271,6.271,0,0,0-1.845-1.755,11.62,11.62,0,0,0-2.745-1.08,17.029,17.029,0,0,0-3.42-.36A15.943,15.943,0,0,0,410.625,3.105Z" fill="url(#linear-gradient)"/>
  </g>
</svg>
