<svg id="회원님의_계정은_휴면상태_입니다" data-name="회원님의 계정은 휴면상태 입니다" xmlns="http://www.w3.org/2000/svg" xmlns:xlink="http://www.w3.org/1999/xlink" width="279.96" height="82" viewBox="0 0 279.96 82">
  <defs>
    <linearGradient id="linear-gradient" x1="0.085" y1="0.091" x2="0.948" y2="0.906" gradientUnits="objectBoundingBox">
      <stop offset="0" stop-color="#de455f"/>
      <stop offset="0.001" stop-color="#de455f"/>
      <stop offset="0.5" stop-color="#b03f8c"/>
      <stop offset="1" stop-color="#7739c8"/>
    </linearGradient>
  </defs>
  <path id="Combined_Shape" data-name="Combined Shape" d="M91.319,81.4a9.748,9.748,0,0,1-3.2-1.68A8.355,8.355,0,0,1,85.96,77a7.252,7.252,0,0,1-.8-3.52,7.641,7.641,0,0,1,.8-3.6,7.811,7.811,0,0,1,2.2-2.68,9.743,9.743,0,0,1,3.2-1.72,13.611,13.611,0,0,1,3.92-.561,13.253,13.253,0,0,1,3.96.6,11.356,11.356,0,0,1,3.24,1.68,9.067,9.067,0,0,1,2.2,2.72,8.147,8.147,0,0,1,.8,3.56,7.712,7.712,0,0,1-.8,3.479,9.543,9.543,0,0,1-2.16,2.72A11.465,11.465,0,0,1,99.28,81.4a13.232,13.232,0,0,1-4,.6A12.539,12.539,0,0,1,91.319,81.4Zm1.4-13.04a6.223,6.223,0,0,0-2.12,1.12,4.926,4.926,0,0,0-1.44,1.72,4.994,4.994,0,0,0-.52,2.281A4.113,4.113,0,0,0,89.2,75.72a4.56,4.56,0,0,0,1.44,1.721,7.055,7.055,0,0,0,2.119,1.08,8.806,8.806,0,0,0,2.52.36,9.5,9.5,0,0,0,2.6-.36A8.91,8.91,0,0,0,100,77.44a5.425,5.425,0,0,0,1.44-1.721,5.028,5.028,0,0,0,.519-2.239,5.239,5.239,0,0,0-.519-2.24,6.415,6.415,0,0,0-1.4-1.72A7.6,7.6,0,0,0,97.92,68.4a9.52,9.52,0,0,0-2.641-.4A8.785,8.785,0,0,0,92.72,68.36ZM273.159,81.6H270.92V44h2.24v14.72h6.8V60.68h-6.8V81.6h0Zm-36.4,0H234.52V44h2.24V81.6Zm-90.481,0h-3.4V61.28h-4.44V80.4h-3.4V44.8h3.4V58.2h4.44V44h3.4V81.6ZM12.839,81.2H9.32V70.84H0V67.76H34.96v3.08H25.6V81.2H22.12V70.84H12.84V81.2h0Zm186.279-.4H176.4V66.2h2.24v4.88H196.88V66.2h2.24V80.8h0Zm-20.479-1.92H196.88V73H178.64ZM69.88,80.6H46.68V68H50.16v9.48H69.881V80.6h0Zm47-9.28h0V47.4h14.24V50.52H120.16v6.761H130.28v3.08H120.16V68.2h.017a60.95,60.95,0,0,0,12.5-1.159L133,70.08a42.775,42.775,0,0,1-6.88.92c-2.438.219-5.374.32-9.239.32Zm130.08-1.4h0V47.52h17v2H249.2V67.96h.049c3.42,0,6.213-.1,8.79-.319,2.817-.2,5.59-.525,8.24-.96l.28,1.92a123.985,123.985,0,0,1-19.6,1.32Zm-36.8-.4h0V47.12h2.24V67.56h.049c3.474,0,6.415-.1,8.991-.32,2.844-.2,5.617-.523,8.24-.959l.28,1.92a124.13,124.13,0,0,1-19.8,1.32ZM69.479,68.4H65.96V59.24h-7.4V63.2H41.48V45.6H58.56v3.24h7.4V44h3.52V68.4h0ZM44.96,60.12H55.04V48.72H44.96Zm13.6-3.8h7.4v-4.6h-7.4ZM13.64,64.36a8.082,8.082,0,0,1-3.04-1.52,6.585,6.585,0,0,1-2.04-2.4,6.177,6.177,0,0,1-.76-3.12,6.642,6.642,0,0,1,.76-3.2,7.369,7.369,0,0,1,2.08-2.4,8.583,8.583,0,0,1,1.531-.921H4.88v-3H15.72V43.2H19.2v4.6H30.08v3H22.822a10.648,10.648,0,0,1,1.618.96,8.416,8.416,0,0,1,2.039,2.4,6.986,6.986,0,0,1,.72,3.16,6.576,6.576,0,0,1-.72,3.08,6.849,6.849,0,0,1-2,2.4,9.719,9.719,0,0,1-3.08,1.56,12.282,12.282,0,0,1-3.92.56A11.664,11.664,0,0,1,13.64,64.36ZM13.08,53.72a4.456,4.456,0,0,0-1.679,3.6A4.206,4.206,0,0,0,13.08,60.88a6.858,6.858,0,0,0,4.4,1.32,7.019,7.019,0,0,0,4.441-1.32A4.206,4.206,0,0,0,23.6,57.32a4.844,4.844,0,0,0-.44-2,6.655,6.655,0,0,0-1.28-1.561,8.8,8.8,0,0,0-1.92-1.04,8.5,8.5,0,0,0-2.48-.36A6.845,6.845,0,0,0,13.08,53.72Zm9.743-2.92a13.352,13.352,0,0,0-1.462-.6,15.038,15.038,0,0,0-3.88-.52,14.262,14.262,0,0,0-3.8.52,13.151,13.151,0,0,0-1.509.6ZM105.679,64.12H102.16V44h3.52v8.4h6v3.12h-6v8.6h0ZM78.4,63.4h0c-.384-.345-.773-.733-1.15-1.11l-.05-.049c-.2-.2-.407-.4-.606-.586s-.4-.377-.594-.574a22.4,22.4,0,0,0,3.96-2.561,19.186,19.186,0,0,0,2.96-3.08,14.985,14.985,0,0,0,1.92-3.4,10.68,10.68,0,0,0,.64-3.52V45H89.12v3.52a9.173,9.173,0,0,0,.64,3.361,10.488,10.488,0,0,0,1.88,3.2,14.432,14.432,0,0,0,2.96,2.84,17.141,17.141,0,0,0,4,2.36c-.2.2-.4.389-.593.573s-.4.384-.607.587l-.049.05c-.377.376-.767.766-1.151,1.111a17.781,17.781,0,0,1-2.84-1.561,14.632,14.632,0,0,1-2.52-1.88A10.457,10.457,0,0,1,88.8,57a8.044,8.044,0,0,1-1.44-2.319A16.323,16.323,0,0,1,83.84,59.6,21.933,21.933,0,0,1,78.4,63.4Zm120.719-.2H196.88V44h2.24V63.2h0Zm-22.759-1.44a7.862,7.862,0,0,1-2.839-1.72,7.008,7.008,0,0,1-1.92-2.72,8.259,8.259,0,0,1-.68-3.52,8.5,8.5,0,0,1,.68-3.52,7.472,7.472,0,0,1,1.92-2.68,8.42,8.42,0,0,1,2.839-1.72,10.21,10.21,0,0,1,3.56-.6,10.4,10.4,0,0,1,3.56.6,9.666,9.666,0,0,1,2.84,1.76,8.554,8.554,0,0,1,1.88,2.68,9.241,9.241,0,0,1,0,6.961A7.847,7.847,0,0,1,186.32,60a8.239,8.239,0,0,1-2.84,1.72,9.575,9.575,0,0,1-3.56.64A10.231,10.231,0,0,1,176.359,61.76Zm.96-14.04a6.573,6.573,0,0,0-2.16,1.32,5.3,5.3,0,0,0-1.44,2.04,6.21,6.21,0,0,0-.56,2.72,6.44,6.44,0,0,0,.52,2.72,5.3,5.3,0,0,0,1.44,2.04,4.967,4.967,0,0,0,2.16,1.319,7.29,7.29,0,0,0,2.679.481,7.394,7.394,0,0,0,2.68-.481,5.938,5.938,0,0,0,2.12-1.319,6.6,6.6,0,0,0,1.4-2.08,7.094,7.094,0,0,0,.481-2.68,7.3,7.3,0,0,0-.52-2.68,7.547,7.547,0,0,0-1.4-2.08,7.224,7.224,0,0,0-2.12-1.32,8.34,8.34,0,0,0-2.641-.44A7.961,7.961,0,0,0,177.32,47.72ZM222.6,37.4a9.745,9.745,0,0,1-3.2-1.721,7.838,7.838,0,0,1-2.12-2.64,6.792,6.792,0,0,1-.8-3.4,7.167,7.167,0,0,1,.8-3.479,7.54,7.54,0,0,1,2.16-2.641,9.743,9.743,0,0,1,3.2-1.679,12.2,12.2,0,0,1,3.919-.6,13.2,13.2,0,0,1,4,.6,11.379,11.379,0,0,1,3.24,1.679,9.848,9.848,0,0,1,2.16,2.641,8.245,8.245,0,0,1,.76,3.479,7.69,7.69,0,0,1-.76,3.4,9.847,9.847,0,0,1-2.16,2.64,11.442,11.442,0,0,1-3.24,1.721,12.858,12.858,0,0,1-4,.6A12.534,12.534,0,0,1,222.6,37.4Zm.92-13.721A7.727,7.727,0,0,0,221.04,25a6.162,6.162,0,0,0-1.68,2,5.341,5.341,0,0,0-.64,2.64,5.116,5.116,0,0,0,.64,2.6,5.937,5.937,0,0,0,1.68,2.04,9.309,9.309,0,0,0,2.52,1.28,10.309,10.309,0,0,0,3,.44,11,11,0,0,0,3.08-.44,8.383,8.383,0,0,0,2.52-1.32,6.312,6.312,0,0,0,1.721-2,5.525,5.525,0,0,0,.6-2.6,5.852,5.852,0,0,0-.6-2.64,6.162,6.162,0,0,0-1.68-2,8.424,8.424,0,0,0-2.52-1.32,11.161,11.161,0,0,0-3.12-.44A10.3,10.3,0,0,0,223.52,23.68Zm-23.4,13.92h-2.2V0h2.2V37.6Zm-55.4,0H142.48V0h2.24V37.6Zm-113.84,0H27.36V0h3.52V37.6Zm39-.6H45.48V26.4h3.48v7.48h20.92V37h0Zm37.28-.2H84.4V22.92h22.76V36.8h0ZM86.64,34.84h18.28V24.92H86.64ZM274.079,36.6h-24V25.359h2.24V34.6h21.76v2h0Zm-81.24-.2h-2.2V20.48H183.6V18.56h7.04v-8.4h-5.76V8.24h5.76V.8h2.2V36.4ZM1.56,30V26.92h9.12V23.2a8.185,8.185,0,0,1-2.64-.8A6.453,6.453,0,0,1,6,20.88,5.718,5.718,0,0,1,4.64,18.8a6.311,6.311,0,0,1-.52-2.64,6.431,6.431,0,0,1,.68-3.04A6.2,6.2,0,0,1,6.6,10.84,7.881,7.881,0,0,1,9.28,9.36a10.6,10.6,0,0,1,3.24-.48A11.042,11.042,0,0,1,15.8,9.4a10.1,10.1,0,0,1,2.68,1.44,8.433,8.433,0,0,1,1.8,2.281,7.477,7.477,0,0,1,.64,3.04,7.182,7.182,0,0,1-.52,2.72,7.6,7.6,0,0,1-1.48,2.16,6.871,6.871,0,0,1-2.2,1.48,8.256,8.256,0,0,1-2.759.76v3.64h.014A55.553,55.553,0,0,0,24.6,25.84l.32,3.04A66.824,66.824,0,0,1,11.56,30Zm9.08-17.72a4.775,4.775,0,0,0-1.56.8A3.986,3.986,0,0,0,8.04,14.4a3.944,3.944,0,0,0-.4,1.8,3.266,3.266,0,0,0,.4,1.68,2.943,2.943,0,0,0,1.04,1.28,3.289,3.289,0,0,0,1.56.84,5.648,5.648,0,0,0,1.88.28A6.355,6.355,0,0,0,14.44,20,4.256,4.256,0,0,0,16,19.16a3.5,3.5,0,0,0,1.44-2.96,4.507,4.507,0,0,0-.4-1.8A4.876,4.876,0,0,0,16,13.08a7.207,7.207,0,0,0-1.56-.8A8.066,8.066,0,0,0,12.52,12,6.916,6.916,0,0,0,10.64,12.28Zm105.04,16.4V26.72h3.4c3.957,0,7.224-.1,10.28-.32,3.269-.2,6.538-.522,9.72-.959a8.131,8.131,0,0,0,.16.959,3.976,3.976,0,0,0,.12.96,149.575,149.575,0,0,1-20.28,1.32Zm-46.2-1.08H65.96V24.2H57.08V21.48h8.88V0h3.52V27.6h0Zm101.44-1.04a5.126,5.126,0,0,1-.8-.8c-.26-.222-.553-.473-.84-.76a20.636,20.636,0,0,0,4.96-3.08,24.788,24.788,0,0,0,4.2-4.441,25.373,25.373,0,0,0,3-5.56,21.1,21.1,0,0,0,1.24-6.4h-12V3.56H185.16A25.971,25.971,0,0,1,184,11.4a26.981,26.981,0,0,1-3.12,6.56,24.266,24.266,0,0,1-4.52,5.119,22.954,22.954,0,0,1-5.44,3.48ZM52.079,25.2H48.76V19.32H39.68v-2.8h10.6A58.673,58.673,0,0,0,62.8,15.24L63.16,18a44.638,44.638,0,0,1-5.32.88,52.557,52.557,0,0,1-5.76.4V25.2h0Zm191.6-3.76v-2h35.6v2h-35.6Zm-6.361-1H235.08V10h-8.24V8h8.24V0h2.24V20.439h0ZM122.6,19.76a7.985,7.985,0,0,1-2.88-1.721,7.018,7.018,0,0,1-1.92-2.72,8.222,8.222,0,0,1-.72-3.52,8.786,8.786,0,0,1,.72-3.64,7.666,7.666,0,0,1,1.92-2.721,8.69,8.69,0,0,1,2.92-1.679,9.956,9.956,0,0,1,3.52-.6,10.649,10.649,0,0,1,3.6.6,9.468,9.468,0,0,1,2.88,1.72A8.844,8.844,0,0,1,134.6,8.2a9.486,9.486,0,0,1,.68,3.6,8.876,8.876,0,0,1-.68,3.48,7.835,7.835,0,0,1-1.88,2.72,8.531,8.531,0,0,1-2.92,1.72,9.925,9.925,0,0,1-3.641.64A10.233,10.233,0,0,1,122.6,19.76Zm.8-14.241a6.464,6.464,0,0,0-2.2,1.36,5.737,5.737,0,0,0-1.44,2.081,6.994,6.994,0,0,0-.519,2.8,6.632,6.632,0,0,0,.519,2.759,5.243,5.243,0,0,0,1.481,2.08,5.868,5.868,0,0,0,2.2,1.361,7.432,7.432,0,0,0,2.76.48,8.055,8.055,0,0,0,2.76-.48,6.787,6.787,0,0,0,2.16-1.361,6.2,6.2,0,0,0,1.44-2.119,7.188,7.188,0,0,0,.519-2.72A7.739,7.739,0,0,0,132.56,9a7.1,7.1,0,0,0-1.44-2.12,7.5,7.5,0,0,0-2.16-1.319,8.048,8.048,0,0,0-2.76-.481A8.718,8.718,0,0,0,123.4,5.52Zm-16.241,14.4H104.92V0h2.24V19.919h0Zm102.081-.56a7.63,7.63,0,0,1-.8-.8c-.259-.222-.553-.473-.8-.72a17.783,17.783,0,0,0,3.52-2.24,19.461,19.461,0,0,0,3.08-2.96,15.073,15.073,0,0,0,2.16-3.36,9.225,9.225,0,0,0,.841-3.44V3.72h-8.08V1.76H227.8V3.72h-8.12V5.76a7.9,7.9,0,0,0,.959,3.56,12.151,12.151,0,0,0,2.2,3.16,15.96,15.96,0,0,0,3.04,2.6,18.564,18.564,0,0,0,3.44,1.959c-.288.247-.565.487-.8.72l-.283.283-.518.517a16.059,16.059,0,0,1-2.92-1.64,16.34,16.34,0,0,1-2.6-2.04,13.066,13.066,0,0,1-2.12-2.36,12.761,12.761,0,0,1-1.56-2.64,17.117,17.117,0,0,1-3.72,5.48,20.581,20.581,0,0,1-5.559,4ZM80.16,17.24h0V1.72H82.4V15.28h.051c3.585,0,6.5-.1,9.189-.319,2.906-.2,5.746-.525,8.439-.959l.28,1.92a130.09,130.09,0,0,1-20.2,1.32Zm177.36-1.721a8.607,8.607,0,0,1-3.12-1.48,6.476,6.476,0,0,1-2.08-2.44,6.807,6.807,0,0,1-.76-3.32,7.113,7.113,0,0,1,.76-3.361,6.793,6.793,0,0,1,2.12-2.44A10.205,10.205,0,0,1,257.56,1a14.85,14.85,0,0,1,3.88-.52A15.636,15.636,0,0,1,265.4,1a10.953,10.953,0,0,1,3.16,1.48,7.709,7.709,0,0,1,2.12,2.44,7.71,7.71,0,0,1,.76,3.361,7.268,7.268,0,0,1-.76,3.32,6.847,6.847,0,0,1-2.08,2.44,9.428,9.428,0,0,1-3.2,1.48,14.037,14.037,0,0,1-3.96.52A13.5,13.5,0,0,1,257.521,15.52ZM258.48,2.8a8.105,8.105,0,0,0-2.44,1.12,5.054,5.054,0,0,0-1.64,1.8,5.372,5.372,0,0,0-.6,2.56,5.126,5.126,0,0,0,.6,2.52,5.054,5.054,0,0,0,1.64,1.8,7.159,7.159,0,0,0,2.44,1.08,10.2,10.2,0,0,0,2.96.4,10.736,10.736,0,0,0,3.04-.4,7.941,7.941,0,0,0,2.44-1.08,5.424,5.424,0,0,0,1.64-1.8,5.126,5.126,0,0,0,.6-2.52,5.131,5.131,0,0,0-.6-2.52,5.944,5.944,0,0,0-1.64-1.841,9.125,9.125,0,0,0-2.44-1.12,12.38,12.38,0,0,0-3.04-.36A11.752,11.752,0,0,0,258.48,2.8ZM47.2,13.88a7.07,7.07,0,0,1-2.68-1.4,5.785,5.785,0,0,1-1.72-2.2,6.057,6.057,0,0,1-.64-2.84,6.471,6.471,0,0,1,.64-2.92,6.544,6.544,0,0,1,1.76-2.2A8.366,8.366,0,0,1,47.2.88,10.9,10.9,0,0,1,50.52.4,11.122,11.122,0,0,1,53.84.88a10.364,10.364,0,0,1,2.641,1.4,7.426,7.426,0,0,1,1.76,2.24,7.1,7.1,0,0,1,.6,2.92,6.551,6.551,0,0,1-.6,2.84,6.427,6.427,0,0,1-1.76,2.2,7.6,7.6,0,0,1-2.641,1.4,10,10,0,0,1-3.32.52A9.8,9.8,0,0,1,47.2,13.88Zm-.32-9.52a3.827,3.827,0,0,0-1.4,3.081,3.684,3.684,0,0,0,.36,1.64,3.311,3.311,0,0,0,1.04,1.32,4.108,4.108,0,0,0,1.6.879,6.29,6.29,0,0,0,5.68-.879,3.686,3.686,0,0,0,1.4-2.96,3.923,3.923,0,0,0-1.4-3.081,6.294,6.294,0,0,0-7.28,0ZM22.519,7.2H2.36V4.12h8.4V.2h3.52V4.12h8.24V7.2h0Z" fill="url(#linear-gradient)"/>
</svg>
