<?xml version="1.0" encoding="UTF-8"?>
<svg width="475.02px" height="105.75px" viewBox="0 0 475.02 105.75" version="1.1" xmlns="http://www.w3.org/2000/svg" xmlns:xlink="http://www.w3.org/1999/xlink">
    <title>그동안 이로움 마켓을 이용해 주셔서@3x</title>
    <defs>
        <linearGradient x1="-6.15230574%" y1="46.8480073%" x2="104.168738%" y2="52.4780323%" id="linearGradient-1">
            <stop stop-color="#F34747" offset="0%"></stop>
            <stop stop-color="#7038D0" offset="100%"></stop>
        </linearGradient>
    </defs>
    <g id="Page-1" stroke="none" stroke-width="1" fill="none" fill-rule="evenodd">
        <g id="notice_txt" transform="translate(-94.83, -1888.74)" fill="url(#linearGradient-1)" fill-rule="nonzero">
            <g id="그동안-이로움-마켓을-이용해-주셔서" transform="translate(94.83, 1888.74)">
                <path d="M71.955,3.96 C71.955,12.15 71.46,19.53 70.47,26.19 L68.04,25.875 C68.49,22.545 68.85,19.26 69.12,15.975 C69.3,12.735 69.435,9.495 69.435,6.21 L45.585,6.21 L45.585,3.96 L71.955,3.96 Z M78.21,34.2 L78.21,36.405 L38.88,36.405 L38.88,34.2 L78.21,34.2 Z M110.07,34.11 C110.07,35.46 109.8,36.63 109.305,37.665 C108.765,38.7 108.045,39.6 107.1,40.41 C106.11,41.13 104.985,41.715 103.635,42.165 C102.24,42.525 100.71,42.75 99,42.75 C97.29,42.75 95.805,42.525 94.455,42.165 C93.105,41.715 91.935,41.13 90.99,40.41 C90,39.6 89.28,38.7 88.785,37.665 C88.245,36.63 87.975,35.46 87.975,34.11 C87.975,32.85 88.2,31.68 88.74,30.6 C89.235,29.565 89.955,28.665 90.945,27.855 C91.845,27.135 93.015,26.505 94.41,26.055 C95.76,25.65 97.29,25.425 99,25.425 C100.71,25.425 102.24,25.65 103.635,26.055 C104.985,26.505 106.11,27.09 107.1,27.81 C108.045,28.62 108.765,29.52 109.305,30.555 C109.8,31.635 110.07,32.85 110.07,34.11 Z M107.55,34.11 C107.55,32.13 106.785,30.555 105.3,29.385 C103.77,28.26 101.655,27.675 99.045,27.675 C96.345,27.675 94.275,28.26 92.79,29.43 C91.26,30.6 90.495,32.175 90.495,34.11 C90.495,36.045 91.26,37.575 92.79,38.745 C94.275,39.915 96.345,40.5 99.045,40.5 C101.655,40.5 103.77,39.915 105.3,38.79 C106.785,37.62 107.55,36.09 107.55,34.11 Z M112.86,15.21 L100.305,15.21 L100.305,20.07 L119.07,20.07 L119.07,22.32 L79.02,22.32 L79.02,20.07 L97.785,20.07 L97.785,15.21 L85.68,15.21 L85.68,1.53 L112.005,1.53 L112.005,3.735 L88.2,3.735 L88.2,13.005 L112.86,13.005 L112.86,15.21 Z M153.09,14.04 L153.09,27.45 L150.57,27.45 L150.57,0 L153.09,0 L153.09,11.835 L160.29,11.835 L160.29,14.04 L153.09,14.04 Z M153.72,41.175 L127.755,41.175 L127.755,27.315 L130.275,27.315 L130.275,38.925 L153.72,38.925 L153.72,41.175 Z M142.47,11.61 C142.47,13.14 142.2,14.49 141.75,15.705 C141.21,16.965 140.535,18.045 139.68,18.9 C138.78,19.8 137.7,20.52 136.485,20.97 C135.225,21.51 133.875,21.735 132.39,21.735 C130.86,21.735 129.51,21.51 128.295,21.015 C127.035,20.565 125.955,19.845 125.1,18.945 C124.2,18.09 123.48,17.01 123.03,15.75 C122.49,14.535 122.265,13.14 122.265,11.61 C122.265,10.08 122.49,8.685 123.03,7.425 C123.48,6.21 124.2,5.13 125.1,4.23 C125.955,3.375 127.035,2.7 128.295,2.16 C129.51,1.71 130.86,1.44 132.39,1.44 C133.83,1.44 135.225,1.71 136.485,2.16 C137.7,2.7 138.78,3.375 139.68,4.23 C140.535,5.13 141.21,6.21 141.75,7.425 C142.2,8.685 142.47,10.08 142.47,11.61 Z M139.95,11.61 C139.95,10.44 139.77,9.315 139.41,8.325 C139.05,7.38 138.51,6.57 137.88,5.85 C137.205,5.175 136.395,4.635 135.495,4.23 C134.55,3.87 133.515,3.69 132.435,3.69 C130.095,3.69 128.205,4.41 126.855,5.85 C125.46,7.29 124.785,9.225 124.785,11.61 C124.785,12.825 124.965,13.905 125.37,14.85 C125.73,15.84 126.225,16.695 126.945,17.37 C127.575,18.09 128.385,18.585 129.33,18.945 C130.23,19.35 131.265,19.53 132.435,19.53 C133.515,19.53 134.55,19.35 135.495,18.945 C136.395,18.585 137.16,18.045 137.835,17.325 C138.465,16.65 139.005,15.795 139.41,14.805 C139.77,13.86 139.95,12.78 139.95,11.61 Z M210.69,42.3 L208.17,42.3 L208.17,0 L210.69,0 L210.69,42.3 Z M200.61,15.93 C200.61,17.64 200.295,19.215 199.755,20.655 C199.125,22.14 198.315,23.4 197.325,24.435 C196.29,25.515 195.075,26.37 193.725,26.955 C192.285,27.585 190.8,27.855 189.18,27.855 C187.515,27.855 185.985,27.585 184.635,26.955 C183.195,26.37 181.98,25.515 180.99,24.435 C179.955,23.4 179.145,22.14 178.605,20.655 C178.02,19.215 177.75,17.64 177.75,15.93 C177.75,14.22 178.02,12.645 178.605,11.16 C179.145,9.72 179.955,8.46 180.99,7.38 C181.98,6.345 183.195,5.535 184.635,4.905 C185.985,4.32 187.515,4.005 189.18,4.005 C190.8,4.005 192.285,4.32 193.725,4.905 C195.075,5.535 196.29,6.345 197.325,7.38 C198.315,8.46 199.125,9.72 199.755,11.16 C200.295,12.645 200.61,14.22 200.61,15.93 Z M198.045,15.93 C198.045,14.58 197.82,13.275 197.37,12.06 C196.92,10.89 196.29,9.9 195.525,9 C194.715,8.145 193.77,7.47 192.735,6.93 C191.655,6.48 190.485,6.21 189.225,6.21 C187.965,6.21 186.795,6.48 185.715,6.93 C184.635,7.425 183.69,8.1 182.88,8.955 C182.07,9.855 181.44,10.845 180.99,12.015 C180.54,13.23 180.315,14.535 180.315,15.93 C180.315,17.325 180.54,18.585 180.99,19.755 C181.44,20.97 182.07,22.005 182.88,22.815 C183.645,23.715 184.59,24.39 185.67,24.84 C186.75,25.38 187.92,25.605 189.225,25.605 C190.485,25.605 191.655,25.38 192.735,24.84 C193.815,24.39 194.76,23.715 195.57,22.815 C196.335,21.96 196.965,20.925 197.415,19.755 C197.82,18.585 198.045,17.325 198.045,15.93 Z M249.345,15.525 L225.765,15.525 L225.765,23.58 L250.155,23.58 L250.155,25.74 L237.555,25.74 L237.555,34.2 L255.96,34.2 L255.96,36.405 L216.63,36.405 L216.63,34.2 L235.035,34.2 L235.035,25.74 L223.245,25.74 L223.245,13.41 L246.825,13.41 L246.825,6.03 L223.245,6.03 L223.245,3.915 L249.345,3.915 L249.345,15.525 Z M263.52,41.4 L263.52,27.315 L275.535,27.315 L275.535,22.41 L256.77,22.41 L256.77,20.205 L296.82,20.205 L296.82,22.41 L278.055,22.41 L278.055,27.315 L290.07,27.315 L290.07,41.4 L263.52,41.4 Z M288,8.865 C288,10.125 287.685,11.295 287.145,12.285 C286.56,13.32 285.795,14.175 284.805,14.895 C283.77,15.615 282.555,16.2 281.205,16.56 C279.81,16.965 278.325,17.145 276.75,17.145 C275.13,17.145 273.69,16.965 272.34,16.56 C270.99,16.2 269.82,15.615 268.83,14.895 C267.84,14.175 267.03,13.32 266.49,12.285 C265.905,11.295 265.635,10.125 265.635,8.865 C265.635,7.605 265.905,6.48 266.49,5.4 C267.03,4.41 267.84,3.51 268.875,2.79 C269.865,2.07 271.035,1.53 272.385,1.125 C273.735,0.765 275.175,0.54 276.75,0.54 C278.325,0.54 279.81,0.765 281.205,1.125 C282.555,1.53 283.725,2.07 284.76,2.79 C285.75,3.51 286.56,4.41 287.145,5.4 C287.685,6.48 288,7.605 288,8.865 Z M287.505,29.565 L266.04,29.565 L266.04,39.15 L287.505,39.15 L287.505,29.565 Z M285.435,8.865 C285.435,7.965 285.21,7.11 284.76,6.345 C284.31,5.625 283.68,4.95 282.915,4.41 C282.105,3.87 281.205,3.465 280.17,3.15 C279.09,2.88 277.965,2.745 276.75,2.745 C275.58,2.745 274.455,2.88 273.465,3.15 C272.385,3.465 271.485,3.87 270.72,4.365 C269.91,4.905 269.28,5.58 268.83,6.3 C268.38,7.11 268.155,7.965 268.155,8.865 C268.155,9.855 268.38,10.71 268.875,11.43 C269.325,12.195 269.91,12.825 270.72,13.32 C271.485,13.86 272.385,14.265 273.465,14.535 C274.5,14.805 275.58,14.94 276.75,14.94 C277.92,14.94 279.045,14.805 280.125,14.535 C281.16,14.265 282.06,13.86 282.87,13.32 C283.635,12.825 284.265,12.195 284.76,11.43 C285.21,10.71 285.435,9.855 285.435,8.865 Z M365.893009,38.8175221 C362.441681,33.8617699 359.07885,28.9502655 355.716018,24.0387611 C352.308938,19.1715044 348.901858,14.2157522 345.494779,9.26 L345.494779,38.8175221 L343.016903,38.8175221 L343.016903,4.52548673 L345.27354,4.52548673 C348.636372,9.56973451 352.043451,14.5254867 355.494779,19.4369912 C358.857611,24.3927434 362.26469,29.3484956 365.67177,34.3484956 L365.67177,4.52548673 L368.149646,4.52548673 L368.149646,38.8175221 L365.893009,38.8175221 Z M322.043451,39.26 C319.698319,39.26 317.574425,38.8175221 315.627522,37.8440708 C313.636372,36.9148673 311.954956,35.6316814 310.539027,33.9945133 C309.123097,32.4015929 308.016903,30.5431858 307.26469,28.419292 C306.46823,26.339646 306.07,24.1272566 306.07,21.7378761 C306.07,19.5254867 306.423982,17.3130973 307.220442,15.1892035 C307.972655,13.1095575 309.034602,11.2511504 310.450531,9.6139823 C311.822212,8.02106195 313.503628,6.69362832 315.494779,5.72017699 C317.441681,4.74672566 319.654071,4.26 322.043451,4.26 C324.344336,4.26 326.46823,4.74672566 328.415133,5.6759292 C330.362035,6.64938053 332.043451,7.88831858 333.503628,9.48123894 C334.919558,11.1184071 336.025752,12.9768142 336.822212,15.0564602 C337.618673,17.180354 338.016903,19.4369912 338.016903,21.7378761 C338.016903,23.9502655 337.618673,26.1184071 336.86646,28.1980531 C336.07,30.3219469 334.963805,32.2246018 333.592124,33.8175221 C332.176195,35.4989381 330.494779,36.7821239 328.547876,37.7555752 C326.556726,38.7732743 324.388584,39.26 322.043451,39.26 Z M322.043451,6.56088496 C320.185044,6.56088496 318.459381,6.95911504 316.822212,7.75557522 C315.140796,8.59628319 313.724867,9.70247788 312.485929,11.0741593 C311.246991,12.4900885 310.27354,14.0830088 309.565575,15.8971681 C308.813363,17.7555752 308.459381,19.7024779 308.459381,21.7378761 C308.459381,23.8175221 308.813363,25.7644248 309.565575,27.5785841 C310.27354,29.4369912 311.246991,31.0741593 312.485929,32.4458407 C313.724867,33.8617699 315.140796,34.9679646 316.822212,35.7644248 C318.459381,36.6051327 320.185044,37.0033628 322.043451,37.0033628 C323.813363,37.0033628 325.539027,36.6051327 327.220442,35.7644248 C328.813363,34.9679646 330.27354,33.8617699 331.512478,32.4458407 C332.751416,31.0741593 333.724867,29.4369912 334.47708,27.5785841 C335.185044,25.7644248 335.583274,23.8175221 335.583274,21.7378761 C335.583274,19.7024779 335.185044,17.7555752 334.47708,15.8971681 C333.724867,14.0830088 332.751416,12.4900885 331.512478,11.0741593 C330.27354,9.70247788 328.813363,8.59628319 327.220442,7.75557522 C325.539027,6.95911504 323.813363,6.56088496 322.043451,6.56088496 Z M409.25,8.415 C409.25,9.675 408.935,10.8 408.395,11.745 C407.81,12.735 407.045,13.545 406.055,14.175 C405.02,14.85 403.805,15.345 402.455,15.66 C401.06,16.02 399.575,16.2 398,16.2 C396.425,16.2 394.985,16.02 393.635,15.66 C392.285,15.345 391.115,14.85 390.125,14.175 C389.09,13.545 388.28,12.735 387.74,11.745 C387.155,10.8 386.885,9.675 386.885,8.415 C386.885,7.155 387.155,5.985 387.785,4.995 C388.325,4.005 389.135,3.195 390.17,2.52 C391.16,1.89 392.33,1.395 393.68,1.035 C395.03,0.72 396.47,0.54 398,0.54 C399.53,0.54 401.015,0.72 402.41,1.035 C403.76,1.395 404.93,1.935 405.965,2.565 C406.955,3.24 407.765,4.05 408.395,4.995 C408.935,5.985 409.25,7.155 409.25,8.415 Z M406.685,8.415 C406.685,7.515 406.46,6.66 406.01,5.94 C405.56,5.265 404.93,4.68 404.165,4.185 C403.355,3.735 402.455,3.375 401.42,3.105 C400.34,2.88 399.17,2.745 398,2.745 C396.785,2.745 395.66,2.88 394.625,3.105 C393.545,3.375 392.645,3.69 391.925,4.14 C391.115,4.635 390.53,5.22 390.08,5.94 C389.63,6.66 389.405,7.515 389.405,8.415 C389.405,9.36 389.63,10.17 390.08,10.845 C390.53,11.565 391.115,12.15 391.925,12.6 C392.69,13.095 393.59,13.455 394.67,13.68 C395.705,13.95 396.83,14.04 398,14.04 C399.17,14.04 400.295,13.95 401.375,13.68 C402.41,13.5 403.31,13.14 404.12,12.645 C404.885,12.195 405.515,11.61 406.01,10.89 C406.46,10.215 406.685,9.405 406.685,8.415 Z M411.14,34.695 L387.425,34.695 L387.425,39.735 L411.59,39.735 L411.59,41.85 L384.905,41.85 L384.905,32.625 L408.62,32.625 L408.62,27.945 L384.905,27.945 L384.905,25.83 L411.14,25.83 L411.14,34.695 Z M418.07,19.755 L418.07,21.96 L378.02,21.96 L378.02,19.755 L418.07,19.755 Z M32.94,105.3 L30.42,105.3 L30.42,63 L32.94,63 L32.94,105.3 Z M22.86,78.93 C22.86,80.64 22.545,82.215 22.005,83.655 C21.375,85.14 20.565,86.4 19.575,87.435 C18.54,88.515 17.325,89.37 15.975,89.955 C14.535,90.585 13.05,90.855 11.43,90.855 C9.765,90.855 8.235,90.585 6.885,89.955 C5.445,89.37 4.23,88.515 3.24,87.435 C2.205,86.4 1.395,85.14 0.855,83.655 C0.27,82.215 0,80.64 0,78.93 C0,77.22 0.27,75.645 0.855,74.16 C1.395,72.72 2.205,71.46 3.24,70.38 C4.23,69.345 5.445,68.535 6.885,67.905 C8.235,67.32 9.765,67.005 11.43,67.005 C13.05,67.005 14.535,67.32 15.975,67.905 C17.325,68.535 18.54,69.345 19.575,70.38 C20.565,71.46 21.375,72.72 22.005,74.16 C22.545,75.645 22.86,77.22 22.86,78.93 Z M20.295,78.93 C20.295,77.58 20.07,76.275 19.62,75.06 C19.17,73.89 18.54,72.9 17.775,72 C16.965,71.145 16.02,70.47 14.985,69.93 C13.905,69.48 12.735,69.21 11.475,69.21 C10.215,69.21 9.045,69.48 7.965,69.93 C6.885,70.425 5.94,71.1 5.13,71.955 C4.32,72.855 3.69,73.845 3.24,75.015 C2.79,76.23 2.565,77.535 2.565,78.93 C2.565,80.325 2.79,81.585 3.24,82.755 C3.69,83.97 4.32,85.005 5.13,85.815 C5.895,86.715 6.84,87.39 7.92,87.84 C9,88.38 10.17,88.605 11.475,88.605 C12.735,88.605 13.905,88.38 14.985,87.84 C16.065,87.39 17.01,86.715 17.82,85.815 C18.585,84.96 19.215,83.925 19.665,82.755 C20.07,81.585 20.295,80.325 20.295,78.93 Z M69.75,71.865 C69.75,74.205 68.805,76.095 66.96,77.535 L66.96,83.43 L78.57,83.43 L78.57,85.635 L38.52,85.635 L38.52,83.43 L50.085,83.43 L50.085,77.535 C48.285,76.095 47.385,74.205 47.385,71.865 C47.385,70.605 47.655,69.48 48.24,68.4 C48.78,67.41 49.59,66.51 50.625,65.79 C51.615,65.07 52.785,64.53 54.135,64.125 C55.485,63.765 56.925,63.54 58.5,63.54 C60.075,63.54 61.56,63.765 62.955,64.125 C64.305,64.53 65.475,65.07 66.51,65.79 C67.5,66.51 68.31,67.41 68.895,68.4 C69.435,69.48 69.75,70.605 69.75,71.865 Z M69.705,97.2 C69.705,98.46 69.435,99.63 68.94,100.665 C68.4,101.7 67.635,102.6 66.69,103.365 C65.7,104.085 64.53,104.67 63.18,105.12 C61.74,105.525 60.21,105.75 58.5,105.75 C56.745,105.75 55.17,105.525 53.82,105.12 C52.425,104.67 51.255,104.085 50.31,103.365 C49.32,102.555 48.6,101.655 48.105,100.665 C47.565,99.63 47.34,98.46 47.34,97.2 C47.34,95.94 47.565,94.815 48.105,93.735 C48.6,92.7 49.32,91.8 50.31,90.99 C51.21,90.27 52.38,89.685 53.775,89.235 C55.125,88.83 56.7,88.605 58.5,88.605 C60.21,88.605 61.785,88.83 63.18,89.235 C64.53,89.685 65.745,90.27 66.735,90.99 C67.68,91.755 68.4,92.655 68.94,93.69 C69.435,94.77 69.705,95.94 69.705,97.2 Z M67.185,97.2 C67.185,95.31 66.42,93.78 64.89,92.565 C63.36,91.395 61.2,90.81 58.5,90.81 C55.8,90.81 53.685,91.395 52.155,92.565 C50.625,93.735 49.86,95.31 49.86,97.2 C49.86,98.19 50.04,99.045 50.49,99.765 C50.85,100.53 51.435,101.205 52.2,101.79 C52.92,102.33 53.865,102.78 54.945,103.095 C55.98,103.365 57.15,103.545 58.5,103.545 C61.2,103.545 63.36,102.96 64.89,101.79 C66.42,100.575 67.185,99.09 67.185,97.2 Z M67.185,71.865 C67.185,70.965 66.96,70.11 66.51,69.345 C66.06,68.625 65.43,67.95 64.665,67.41 C63.855,66.87 62.955,66.465 61.92,66.15 C60.84,65.88 59.715,65.745 58.5,65.745 C57.33,65.745 56.205,65.88 55.215,66.15 C54.135,66.465 53.235,66.87 52.47,67.365 C51.66,67.905 51.03,68.58 50.58,69.3 C50.13,70.11 49.905,70.965 49.905,71.865 C49.905,72.855 50.13,73.71 50.625,74.43 C51.075,75.195 51.66,75.825 52.47,76.32 C53.235,76.86 54.135,77.265 55.215,77.535 C56.25,77.805 57.33,77.94 58.5,77.94 C59.67,77.94 60.795,77.805 61.875,77.535 C62.91,77.265 63.81,76.86 64.62,76.32 C65.385,75.825 66.015,75.195 66.51,74.43 C66.96,73.71 67.185,72.855 67.185,71.865 Z M64.53,83.43 L64.53,79.02 C62.82,79.785 60.84,80.145 58.5,80.145 C56.25,80.145 54.225,79.785 52.515,78.975 L52.515,83.43 L64.53,83.43 Z M99.27,84.465 C99.27,85.77 99.045,86.985 98.64,88.065 C98.19,89.19 97.605,90.135 96.885,90.945 C96.075,91.8 95.175,92.43 94.095,92.88 C93.015,93.375 91.8,93.6 90.54,93.6 C89.19,93.6 88.02,93.375 86.94,92.88 C85.86,92.43 84.915,91.755 84.195,90.9 C83.385,90.09 82.8,89.145 82.395,88.02 C81.945,86.94 81.765,85.725 81.765,84.465 C81.765,83.205 81.945,81.99 82.395,80.865 C82.8,79.785 83.385,78.795 84.195,77.985 C84.915,77.175 85.86,76.545 86.94,76.05 C88.02,75.6 89.19,75.375 90.54,75.375 C91.8,75.375 93.015,75.6 94.095,76.05 C95.175,76.545 96.075,77.175 96.885,77.985 C97.605,78.795 98.19,79.785 98.64,80.865 C99.045,81.99 99.27,83.205 99.27,84.465 Z M96.795,84.465 C96.795,83.52 96.615,82.62 96.345,81.765 C96.03,80.955 95.625,80.19 95.085,79.56 C94.5,78.975 93.825,78.48 93.06,78.12 C92.25,77.76 91.395,77.58 90.495,77.58 C89.55,77.58 88.695,77.76 87.975,78.075 C87.165,78.435 86.535,78.93 85.995,79.515 C85.41,80.145 84.96,80.91 84.69,81.72 C84.375,82.575 84.24,83.475 84.24,84.465 C84.24,85.455 84.375,86.4 84.69,87.21 C84.96,88.065 85.41,88.785 85.995,89.37 C86.535,90 87.165,90.495 87.975,90.81 C88.695,91.17 89.55,91.35 90.495,91.35 C91.395,91.35 92.25,91.17 93.06,90.81 C93.825,90.495 94.5,90 95.085,89.37 C95.625,88.785 96.03,88.065 96.345,87.21 C96.615,86.4 96.795,85.455 96.795,84.465 Z M106.515,103.95 L104.04,103.95 L104.04,63.9 L106.515,63.9 L106.515,79.605 L113.04,79.605 L113.04,63 L115.515,63 L115.515,105.3 L113.04,105.3 L113.04,81.81 L106.515,81.81 L106.515,103.95 Z M80.145,71.64 L80.145,69.435 L89.235,69.435 L89.235,63.405 L91.755,63.405 L91.755,69.435 L100.8,69.435 L100.8,71.64 L80.145,71.64 Z M170.595,79.92 C170.325,80.235 170.055,80.55 169.785,80.82 C169.515,81.135 169.2,81.45 168.93,81.72 C167.4,81.27 165.96,80.73 164.565,80.01 C163.125,79.335 161.82,78.57 160.65,77.67 C159.435,76.815 158.355,75.87 157.455,74.88 C156.51,73.89 155.79,72.9 155.295,71.82 C154.755,72.9 153.99,73.89 153.09,74.88 C152.145,75.87 151.065,76.815 149.895,77.625 C148.68,78.525 147.375,79.29 145.98,79.965 C144.54,80.685 143.1,81.27 141.615,81.72 C141.3,81.45 141.03,81.135 140.76,80.82 C140.49,80.55 140.22,80.235 139.95,79.92 C140.895,79.74 141.93,79.38 143.01,78.93 C144.09,78.525 145.125,77.985 146.205,77.355 C147.195,76.725 148.185,76.05 149.175,75.24 C150.075,74.475 150.93,73.665 151.65,72.765 C152.325,71.91 152.865,71.01 153.27,70.02 C153.63,69.12 153.81,68.175 153.765,67.185 L141.75,67.185 L141.75,64.98 L168.795,64.98 L168.795,67.185 L156.78,67.185 C156.78,68.625 157.14,70.02 157.95,71.28 C158.715,72.63 159.75,73.8 161.055,74.88 C162.315,76.005 163.8,76.995 165.465,77.805 C167.085,78.705 168.795,79.38 170.595,79.92 Z M153.9,105.3 L153.9,90.54 L135.63,90.54 L135.63,88.335 L174.96,88.335 L174.96,90.54 L156.555,90.54 L156.555,105.3 L153.9,105.3 Z M202.32,91.395 C202.005,91.71 201.69,91.98 201.42,92.25 C201.105,92.52 200.79,92.835 200.52,93.105 C199.35,92.385 198.27,91.485 197.235,90.45 C196.155,89.46 195.12,88.38 194.22,87.165 C193.23,85.995 192.42,84.735 191.7,83.385 C190.935,82.08 190.35,80.685 189.9,79.245 C189.45,80.73 188.91,82.17 188.19,83.52 C187.47,84.915 186.615,86.22 185.715,87.435 C184.77,88.695 183.78,89.82 182.7,90.81 C181.62,91.89 180.495,92.79 179.37,93.555 C179.055,93.285 178.74,92.97 178.47,92.655 C178.155,92.385 177.84,92.115 177.57,91.845 C179.19,90.765 180.675,89.415 182.025,87.885 C183.375,86.4 184.545,84.78 185.535,83.07 C186.48,81.36 187.245,79.605 187.785,77.715 C188.325,75.87 188.595,74.025 188.595,72.225 L188.595,66.105 L191.25,66.105 L191.25,72.225 C191.25,74.205 191.52,76.14 192.15,78.03 C192.735,79.92 193.545,81.72 194.58,83.34 C195.57,85.05 196.785,86.58 198.135,87.93 C199.44,89.325 200.835,90.495 202.32,91.395 Z M198.855,81.405 L208.44,81.405 L208.44,73.305 L198.855,73.305 L198.855,71.145 L208.44,71.145 L208.44,63 L210.96,63 L210.96,105.3 L208.44,105.3 L208.44,83.52 L198.855,83.52 L198.855,81.405 Z M238.725,76.365 L248.895,76.365 L248.895,63 L251.415,63 L251.415,105.3 L248.895,105.3 L248.895,78.615 L238.725,78.615 L238.725,76.365 Z M242.82,91.395 C242.505,91.71 242.19,91.98 241.92,92.25 C241.605,92.52 241.29,92.835 241.02,93.105 C239.85,92.385 238.77,91.485 237.735,90.45 C236.655,89.46 235.62,88.38 234.72,87.165 C233.73,85.995 232.92,84.735 232.2,83.385 C231.435,82.08 230.85,80.685 230.4,79.245 C229.95,80.73 229.41,82.17 228.69,83.52 C227.97,84.915 227.115,86.22 226.215,87.435 C225.27,88.695 224.28,89.82 223.2,90.81 C222.12,91.89 220.995,92.79 219.87,93.555 C219.555,93.285 219.24,92.97 218.97,92.655 C218.655,92.385 218.34,92.115 218.07,91.845 C219.69,90.765 221.175,89.415 222.525,87.885 C223.875,86.4 225.045,84.78 226.035,83.07 C226.98,81.36 227.745,79.605 228.285,77.715 C228.825,75.87 229.095,74.025 229.095,72.225 L229.095,66.105 L231.75,66.105 L231.75,72.225 C231.75,74.205 232.02,76.14 232.65,78.03 C233.235,79.92 234.045,81.72 235.08,83.34 C236.07,85.05 237.285,86.58 238.635,87.93 C239.94,89.325 241.335,90.495 242.82,91.395 Z M280.395,104.4 L280.395,88.425 L306.27,88.425 L306.27,104.4 L280.395,104.4 Z M302.31,91.935 L284.31,91.935 L284.31,100.89 L302.31,100.89 L302.31,91.935 Z M276.885,85.275 C276.435,84.78 276.03,84.285 275.67,83.79 C275.22,83.34 274.815,82.845 274.41,82.305 C276.39,81.855 278.325,81.135 280.215,80.19 C282.015,79.29 283.68,78.255 285.165,76.995 C286.605,75.78 287.82,74.43 288.81,72.9 C289.755,71.46 290.385,69.93 290.655,68.31 L275.895,68.31 L275.895,64.8 L295.335,64.8 C295.335,67.32 294.84,69.705 293.895,71.865 C292.905,74.115 291.6,76.095 289.98,77.85 C288.27,79.65 286.335,81.135 284.13,82.395 C281.88,83.7 279.45,84.645 276.885,85.275 Z M306.27,75.96 L306.27,85.275 L302.31,85.275 L302.31,63 L306.27,63 L306.27,72.45 L313.02,72.45 L313.02,75.96 L306.27,75.96 Z M335.88,93.105 C334.755,92.34 333.675,91.485 332.685,90.54 C331.65,89.64 330.705,88.65 329.895,87.57 C328.995,86.535 328.23,85.455 327.6,84.33 C326.88,83.25 326.34,82.125 325.98,80.955 C325.035,83.475 323.73,85.77 322.02,87.84 C320.31,90 318.33,91.89 316.08,93.555 C315.63,93.15 315.18,92.7 314.73,92.25 C314.28,91.8 313.83,91.395 313.38,90.945 C315.135,89.685 316.665,88.335 318.015,86.805 C319.32,85.32 320.4,83.745 321.3,82.125 C322.155,80.505 322.83,78.885 323.28,77.175 C323.685,75.51 323.91,73.845 323.91,72.135 L323.91,65.925 L328.005,65.925 L328.005,72.135 C328.005,75.6 328.86,78.93 330.66,82.08 C332.415,85.32 335.07,88.11 338.58,90.54 L335.88,93.105 Z M346.32,82.44 L346.32,105.3 L342.36,105.3 L342.36,63 L346.32,63 L346.32,78.975 L353.52,78.975 L353.52,82.44 L346.32,82.44 Z M354.645,69.885 L354.645,66.825 L364.59,66.825 L364.59,63 L368.55,63 L368.55,66.825 L378.495,66.825 L378.495,69.885 L354.645,69.885 Z M387.27,76.635 L387.27,85.95 L383.31,85.95 L383.31,63 L387.27,63 L387.27,73.125 L393.795,73.125 L393.795,76.635 L387.27,76.635 Z M361.395,104.4 L361.395,89.55 L365.31,89.55 L365.31,93.69 L383.31,93.69 L383.31,89.55 L387.27,89.55 L387.27,104.4 L361.395,104.4 Z M383.31,96.93 L365.31,96.93 L365.31,101.115 L383.31,101.115 L383.31,96.93 Z M375.66,79.065 C375.66,80.19 375.435,81.225 375.03,82.125 C374.58,83.115 373.95,83.925 373.185,84.6 C372.375,85.32 371.385,85.86 370.305,86.22 C369.135,86.625 367.875,86.805 366.525,86.805 C365.175,86.805 363.915,86.625 362.835,86.22 C361.71,85.86 360.765,85.365 359.955,84.645 C359.145,84.015 358.515,83.205 358.11,82.215 C357.66,81.27 357.435,80.235 357.435,79.065 C357.435,77.895 357.66,76.86 358.11,75.87 C358.56,74.925 359.19,74.115 360,73.395 C360.81,72.72 361.755,72.18 362.88,71.775 C363.96,71.415 365.175,71.235 366.525,71.235 C367.83,71.235 369.045,71.46 370.215,71.82 C371.295,72.225 372.285,72.765 373.095,73.44 C373.905,74.16 374.535,74.97 374.985,75.915 C375.435,76.905 375.66,77.94 375.66,79.065 Z M371.7,79.065 C371.7,77.67 371.205,76.545 370.26,75.735 C369.27,74.925 368.055,74.52 366.525,74.52 C364.995,74.52 363.78,74.925 362.835,75.735 C361.845,76.545 361.395,77.67 361.395,79.065 C361.395,80.415 361.89,81.495 362.88,82.305 C363.825,83.16 365.04,83.565 366.525,83.565 C367.965,83.565 369.225,83.16 370.215,82.35 C371.205,81.54 371.7,80.46 371.7,79.065 Z M402.66,88.56 C405.81,88.56 408.915,88.47 411.975,88.2 C414.99,87.975 417.96,87.615 420.93,87.12 L421.335,90.54 C415.395,91.53 407.835,92.025 398.745,92.025 L398.745,66.375 L402.66,66.375 L402.66,88.56 Z M429.12,105.3 L425.16,105.3 L425.16,63 L429.12,63 L429.12,105.3 Z M467.82,82.44 L467.82,105.3 L463.86,105.3 L463.86,63 L467.82,63 L467.82,78.975 L475.02,78.975 L475.02,82.44 L467.82,82.44 Z M441.81,89.01 C444.825,89.01 447.84,88.92 450.855,88.65 C453.825,88.425 456.84,88.065 459.855,87.57 L460.26,90.99 C454.14,91.98 446.67,92.475 437.895,92.475 L437.895,66.825 L457.335,66.825 L457.335,70.335 L441.81,70.335 L441.81,89.01 Z" id="Shape"></path>
            </g>
        </g>
    </g>
</svg>