<svg id="_3" data-name="3" xmlns="http://www.w3.org/2000/svg" width="273.5" height="407.5" viewBox="0 0 273.5 407.5">
  <path id="Path" d="M261,108.5a87,87,0,0,1-3,22.5,150.791,150.791,0,0,1-9,22.5A123.138,123.138,0,0,1,235,174c-6,6.5-12,12-19,16a119.768,119.768,0,0,1,23.5,18.5,154.683,154.683,0,0,1,18,23.5,139.451,139.451,0,0,1,12,26.5,107.562,107.562,0,0,1,4,27.5A105.01,105.01,0,0,1,263,332a131.709,131.709,0,0,1-29.5,38.5,142.115,142.115,0,0,1-43,27,147.387,147.387,0,0,1-53.5,10A151.281,151.281,0,0,1,84,398a126.053,126.053,0,0,1-43.5-26A112.077,112.077,0,0,1,11,333C3.5,318,0,302,0,284H59c0,11,2,20.5,6.5,29.5a64.85,64.85,0,0,0,17.5,24A68,68,0,0,0,108,353a71.732,71.732,0,0,0,29,6,75.906,75.906,0,0,0,29.5-6,88.664,88.664,0,0,0,25-16,80.967,80.967,0,0,0,17-23.5,63.24,63.24,0,0,0,6-27.5c0-8.5-2-17-6-26a102.5,102.5,0,0,0-17-22.5,102.171,102.171,0,0,0-24-16.5,73.5,73.5,0,0,0-29-6H99V167h39.5a59.842,59.842,0,0,0,24-5.5,67.937,67.937,0,0,0,20.5-13c5.5-5,10-11.5,14-18.5a50.371,50.371,0,0,0,5-21.5,53.609,53.609,0,0,0-5.5-23,87.085,87.085,0,0,0-14.5-19,95.253,95.253,0,0,0-20.5-13A70.633,70.633,0,0,0,137,49a63.012,63.012,0,0,0-21.5,4,86.983,86.983,0,0,0-20,11.5A71.45,71.45,0,0,0,80.5,82,59.131,59.131,0,0,0,73,103H12.5a99.635,99.635,0,0,1,12-40.5A120.545,120.545,0,0,1,52,30,134.126,134.126,0,0,1,91,8a141.158,141.158,0,0,1,46-8,130.632,130.632,0,0,1,48.5,9A136.953,136.953,0,0,1,225,33a127.112,127.112,0,0,1,26.5,34.5A98.388,98.388,0,0,1,261,108.5Z" fill="#333"/>
</svg>
