<svg id="_2" data-name="2" xmlns="http://www.w3.org/2000/svg" width="265" height="402" viewBox="0 0 265 402">
  <path id="Path" d="M130.5,0c19,0,36,3.5,52,10.5a140.635,140.635,0,0,1,40,28,129.778,129.778,0,0,1,25.5,40,124.11,124.11,0,0,1,9,46.5c0,24.5-6,47-17.5,67-12,20.5-30,37.5-54,50.5-35.5,21-62.5,40.5-81,59.5C85.5,321.5,76,339,76,355H265v47H0a164.97,164.97,0,0,1,7-48.5c4-16,12-32.5,23.5-49.5,11-16,26.5-32.5,46-49.5,19-16.5,43.5-33,73.5-50C167,194,179.5,182,188,168c8-13.5,12-27.5,12-41.5A89.8,89.8,0,0,0,195,98a97.369,97.369,0,0,0-15-24,76.988,76.988,0,0,0-22-16.5,65.127,65.127,0,0,0-53.5-.5A75.129,75.129,0,0,0,83,72c-6.5,7-11.5,14.5-14.5,23-4,9-5.5,19-5.5,29.5H3a110.977,110.977,0,0,1,10.5-47A127.19,127.19,0,0,1,41,37.5,131.611,131.611,0,0,1,81.5,10,122.626,122.626,0,0,1,130.5,0Z" fill="#333"/>
</svg>
