<?xml version="1.0" encoding="UTF-8"?>
<svg width="78px" height="29px" viewBox="0 0 78 29" version="1.1" xmlns="http://www.w3.org/2000/svg" xmlns:xlink="http://www.w3.org/1999/xlink">
    <title>Group 28</title>
    <defs>
        <linearGradient x1="19.694865%" y1="44.4161663%" x2="78.6999915%" y2="53.3761652%" id="linearGradient-1">
            <stop stop-color="#C61FFF" offset="0%"></stop>
            <stop stop-color="#FF621E" offset="100%"></stop>
        </linearGradient>
    </defs>
    <g id="Page-1" stroke="none" stroke-width="1" fill="none" fill-rule="evenodd">
        <g id="non-mem-10-copy-2" transform="translate(-1444.000000, -757.000000)" fill-rule="nonzero" stroke="#1C1C1C">
            <g id="Group-28" transform="translate(1445.061333, 758.340000)">
                <path d="M14.788,16.048 C17.7653633,16.048 20.1573873,16.5313588 21.8026836,17.4115173 C22.6756504,17.8785147 23.3455556,18.458489 23.7991662,19.1340304 C24.2580129,19.8173697 24.5,20.6001944 24.5,21.476 C24.5,22.3453544 24.2577667,23.1235648 23.798546,23.8035134 C23.3451105,24.474896 22.675676,25.0521098 21.8039741,25.5171946 C20.1622282,26.3931261 17.7778842,26.876 14.816,26.876 C11.8414898,26.876 9.45119804,26.393651 7.80623491,25.5186706 C6.93215005,25.0537319 6.26135966,24.4765938 5.80707093,23.8052879 C5.34664208,23.1249087 5.104,22.346104 5.104,21.476 C5.104,20.6009487 5.34557908,19.8187199 5.8032227,19.1358119 C6.25598063,18.4601944 6.92453111,17.8801448 7.79511678,17.4130012 C9.43719795,16.5318845 11.8232743,16.048 14.788,16.048 Z M14.816,20.464 C13.2747074,20.464 12.1617262,20.5574235 11.4395476,20.7937729 C11.1689212,20.8823415 10.9613515,20.9852785 10.8239041,21.8166816 C10.9542153,21.9551417 11.1577839,22.0545149 11.4225119,22.1400673 C12.141337,22.3723705 13.2515948,22.46 14.788,22.46 C16.3378393,22.46 17.4549296,22.3723764 18.1774847,22.140283 C18.4440479,22.0546596 18.6487391,21.9552423 18.7760917,21.1267811 C18.6437172,20.9853867 18.4372783,20.8824917 18.1685022,20.7939922 C17.4500696,20.5574352 16.3439221,20.464 14.816,20.464 Z M70.1324444,-0.5 L75.6684444,-0.5 L75.6684444,26.876 L70.1324444,26.876 L70.1324444,-0.5 Z M35.6222222,14.452 L35.6222222,16.804 L44.0022222,16.804 L44.0022222,14.452 L49.5102222,14.452 L49.5102222,26.54 L30.1422222,26.54 L30.1422222,14.452 L35.6222222,14.452 Z M44.0022222,21.22 L35.6222222,21.22 L35.6222222,21.984 L44.0022222,21.984 L44.0022222,21.22 Z M61.3364444,0.984 C63.5550812,0.984 65.5211388,1.74473176 66.9299014,3.00886855 C68.3423186,4.27628479 69.2004444,6.04985204 69.2004444,8.092 C69.2004444,9.73997917 68.644934,11.2123488 67.7010331,12.3844456 C66.8066662,13.4950331 65.5614068,14.336502 64.1044444,14.7956698 L64.1044444,16.9125572 C66.0524366,16.7862123 67.9673877,16.5809309 69.7932572,16.3530017 L70.1928898,20.5309793 C64.7237943,21.6898858 58.7426416,21.825504 54.1859286,21.8353518 L53.1206582,21.83576 L52.4414492,17.2242881 L54.2540243,17.223386 C55.591961,17.2214469 57.0495031,17.2133944 58.5684444,17.1797902 L58.5684444,14.7935458 C57.1019789,14.3240161 55.8654438,13.4848459 54.9812261,12.3807951 C54.0446778,11.2114033 53.5004444,9.74377557 53.5004444,8.092 C53.5004444,6.0515511 54.3572052,4.2792523 55.7639219,3.01213338 C57.1697249,1.74583755 59.1304168,0.984 61.3364444,0.984 Z M61.3364444,5.82 C60.6299872,5.82 59.9914184,6.01544782 59.5477073,6.43782662 C59.1503239,6.81610503 58.9244444,7.37254667 58.9244444,8.092 C58.9244444,8.82378631 59.1498348,9.38761149 59.5476754,9.77015049 C59.9910833,10.1965042 60.6298653,10.392 61.3364444,10.392 C62.0559501,10.392 62.7016819,10.197278 63.1490923,9.77117286 C63.5505364,9.3888451 63.7764444,8.82457413 63.7764444,8.092 C63.7764444,7.37176947 63.5500352,6.81488744 63.1490494,6.43681512 C62.7013337,6.01468321 62.0558214,5.82 61.3364444,5.82 Z M27.328,11.288 L27.328,15.928 L2.5,15.928 L2.5,11.288 L27.328,11.288 Z M49.6222488,0.508 L49.6220852,3.58057084 C49.6201638,5.39716943 49.59047,7.20963814 49.1670177,9.552 L52.2542222,9.552 L52.2542222,14.108 L27.4822222,14.108 L27.4822222,9.552 L43.6722087,9.552 C44.0008375,7.83625211 44.0958843,6.3926004 44.1312282,5.064 L30.3382222,5.064 L30.3382222,0.508 L49.6222488,0.508 Z M24.556,0.06 L24.556,4.616 L10.808,4.616 L10.808,6.304 L24.668,6.304 L24.668,10.832 L5.3,10.832 L5.3,0.06 L24.556,0.06 Z" id="Combined-Shape" fill="#333333"></path>
                <path d="M11.788,16.048 C14.7653633,16.048 17.1573873,16.5313588 18.8026836,17.4115173 C19.6756504,17.8785147 20.3455556,18.458489 20.7991662,19.1340304 C21.2580129,19.8173697 21.5,20.6001944 21.5,21.476 C21.5,22.3453544 21.2577667,23.1235648 20.798546,23.8035134 C20.3451105,24.474896 19.675676,25.0521098 18.8039741,25.5171946 C17.1622282,26.3931261 14.7778842,26.876 11.816,26.876 C8.84148983,26.876 6.45119804,26.393651 4.80623491,25.5186706 C3.93215005,25.0537319 3.26135966,24.4765938 2.80707093,23.8052879 C2.34664208,23.1249087 2.104,22.346104 2.104,21.476 C2.104,20.6009487 2.34557908,19.8187199 2.8032227,19.1358119 C3.25598063,18.4601944 3.92453111,17.8801448 4.79511678,17.4130012 C6.43719795,16.5318845 8.82327432,16.048 11.788,16.048 Z M11.816,20.464 C10.2747074,20.464 9.16172619,20.5574235 8.4395476,20.7937729 C8.16892116,20.8823415 7.96135149,20.9852785 7.82390407,21.8166816 C7.95421534,21.9551417 8.15778387,22.0545149 8.42251194,22.1400673 C9.14133695,22.3723705 10.2515948,22.46 11.788,22.46 C13.3378393,22.46 14.4549296,22.3723764 15.1774847,22.140283 C15.4440479,22.0546596 15.6487391,21.9552423 15.7760917,21.1267811 C15.6437172,20.9853867 15.4372783,20.8824917 15.1685022,20.7939922 C14.4500696,20.5574352 13.3439221,20.464 11.816,20.464 Z M72.6684444,-0.5 L72.6684444,26.876 L67.1324444,26.876 L67.1324444,-0.5 L72.6684444,-0.5 Z M32.6222222,14.452 L32.6222222,16.804 L41.0022222,16.804 L41.0022222,14.452 L46.5102222,14.452 L46.5102222,26.54 L27.1422222,26.54 L27.1422222,14.452 L32.6222222,14.452 Z M41.0022222,21.22 L32.6222222,21.22 L32.6222222,21.984 L41.0022222,21.984 L41.0022222,21.22 Z M58.3364444,0.984 C60.5550812,0.984 62.5211388,1.74473176 63.9299014,3.00886855 C65.3423186,4.27628479 66.2004444,6.04985204 66.2004444,8.092 C66.2004444,9.73997917 65.644934,11.2123488 64.7010331,12.3844456 C63.8066662,13.4950331 62.5614068,14.336502 61.1044444,14.7956698 L61.1044444,16.9125572 C63.0524366,16.7862123 64.9673877,16.5809309 66.7932572,16.3530017 L67.1928898,20.5309793 C61.7237943,21.6898858 55.7426416,21.825504 51.1859286,21.8353518 L50.1206582,21.83576 L49.441418,17.2240759 C51.2266577,17.2233663 53.3309658,17.2292934 55.5684444,17.1797905 L55.5684444,14.7935458 C54.1019789,14.3240161 52.8654438,13.4848459 51.9812261,12.3807951 C51.0446778,11.2114033 50.5004444,9.74377557 50.5004444,8.092 C50.5004444,6.0515511 51.3572052,4.2792523 52.7639219,3.01213338 C54.1697249,1.74583755 56.1304168,0.984 58.3364444,0.984 Z M58.3364444,5.82 C57.6299872,5.82 56.9914184,6.01544782 56.5477073,6.43782662 C56.1503239,6.81610503 55.9244444,7.37254667 55.9244444,8.092 C55.9244444,8.82378631 56.1498348,9.38761149 56.5476754,9.77015049 C56.9910833,10.1965042 57.6298653,10.392 58.3364444,10.392 C59.0559501,10.392 59.7016819,10.197278 60.1490923,9.77117286 C60.5505364,9.3888451 60.7764444,8.82457413 60.7764444,8.092 C60.7764444,7.37176947 60.5500352,6.81488744 60.1490494,6.43681512 C59.7013337,6.01468321 59.0558214,5.82 58.3364444,5.82 Z M24.328,11.288 L24.328,15.928 L-0.5,15.928 L-0.5,11.288 L24.328,11.288 Z M46.6222488,0.508 L46.6220852,3.58057084 C46.6201638,5.39716943 46.59047,7.20963814 46.1670177,9.552 L49.2542222,9.552 L49.2542222,14.108 L24.4822222,14.108 L24.4822222,9.552 L40.6722087,9.552 C41.0008375,7.83625211 41.0958843,6.3926004 41.1312282,5.064 L27.3382222,5.064 L27.3382222,0.508 L46.6222488,0.508 Z M21.556,0.06 L21.556,4.616 L7.808,4.616 L7.808,6.304 L21.668,6.304 L21.668,10.832 L2.3,10.832 L2.3,0.06 L21.556,0.06 Z" id="Combined-Shape" fill="url(#linearGradient-1)"></path>
            </g>
        </g>
    </g>
</svg>