<svg id="회원님의_계정이_휴면_해제되었습니다" data-name="회원님의 계정이 휴면 해제되었습니다" xmlns="http://www.w3.org/2000/svg" xmlns:xlink="http://www.w3.org/1999/xlink" width="355.96" height="81.6" viewBox="0 0 355.96 81.6">
  <defs>
    <linearGradient id="linear-gradient" x1="0.085" y1="0.091" x2="1" y2="0.858" gradientUnits="objectBoundingBox">
      <stop offset="0" stop-color="#de455f"/>
      <stop offset="0.5" stop-color="#b03f8c"/>
      <stop offset="1" stop-color="#7739c8"/>
    </linearGradient>
  </defs>
  <path id="Combined_Shape" data-name="Combined Shape" d="M349.159,81.6h-2.239V44h2.24v14.72h6.8V60.68h-6.8V81.6h0Zm-36.4,0h-2.237V44h2.24V81.6Zm-114,0H196.52V44h2.24V81.6Zm-36.48,0H158.96V44h3.32V81.6Zm-38,0h-3.4V61.28h-4.44V80.4h-3.4V44.8h3.4V58.2h4.44V44h3.4V81.6ZM12.839,81.2H9.32V70.84H0V67.76H34.96v3.08H25.6V81.2H22.12V70.84H12.84V81.2h0ZM225.4,80.8a25.247,25.247,0,0,1-1.958-1.6,21.1,21.1,0,0,1-1.882-1.882A15.193,15.193,0,0,1,220,75.2a8.756,8.756,0,0,1-1.12-2.2,20.016,20.016,0,0,1-2.641,4.52,16.192,16.192,0,0,1-3.6,3.281c-.1-.086-.2-.167-.3-.247a6.282,6.282,0,0,1-.5-.434l-.112-.1c-.247-.211-.479-.41-.688-.583a19.354,19.354,0,0,0,2.52-1.96,14.489,14.489,0,0,0,2.08-2.52,18.728,18.728,0,0,0,1.44-3.12,13.712,13.712,0,0,0,.64-3.52V66.36h2.2v1.96a9.087,9.087,0,0,0,.44,3,13.438,13.438,0,0,0,2.921,5,14.539,14.539,0,0,0,2.16,1.96c.635-.517,1.3-1.1,2.039-1.76a13.622,13.622,0,0,0,1.8-2.319,16.783,16.783,0,0,0,1.28-2.84,11.382,11.382,0,0,0,.481-3.4v-1.6h2.2v1.96a10.042,10.042,0,0,0,.56,3.52,12.58,12.58,0,0,0,1.52,3.12,11.864,11.864,0,0,0,2.12,2.52,19.216,19.216,0,0,0,2.48,1.96,6.556,6.556,0,0,0-.8.68c-.1.085-.2.165-.293.242a6.074,6.074,0,0,0-.506.437,14.589,14.589,0,0,1-3.6-3.28A17.482,17.482,0,0,1,232.079,73,11.664,11.664,0,0,1,231,75.12a22.726,22.726,0,0,1-1.6,2.24c-.577.648-1.2,1.283-1.96,2a10.831,10.831,0,0,1-2.04,1.4V80.8Zm47.88,0h-23.6V67.36h2.24V71.6H271V67.36h2.28V80.8h0ZM251.921,78.88H271V73.52h-19.08ZM69.88,80.6H46.68V68H50.16v9.48H69.881V80.6h0Zm85.038-.2H151.64V59H146.12V55.88h5.521V44.8h3.28V80.4ZM169.68,73V71.04h9.48V62.88h-7.28V47.52H188.64v2H174.119v11.4H189.36v1.96h-8V71.04h.031a46.65,46.65,0,0,0,5.768-.319c1.791-.186,3.715-.487,5.881-.92l.28,1.92a51.283,51.283,0,0,1-6.4.96,72.273,72.273,0,0,1-7.44.319Zm-36.92-1.441A15.663,15.663,0,0,1,131.6,70.4c-.132-.132-.266-.261-.394-.385-.27-.261-.525-.507-.766-.775a23.936,23.936,0,0,0,3.64-4,21.818,21.818,0,0,0,2.4-4.36,25.876,25.876,0,0,0,1.36-4.84,38.529,38.529,0,0,0,.4-5.521h-6.4V47.4h16.12V50.52h-6.4a31.466,31.466,0,0,0,.4,5.241,18.3,18.3,0,0,0,1.28,4.72,17.608,17.608,0,0,0,2.4,4.4,22.118,22.118,0,0,0,3.72,4.16c-.138.138-.276.273-.411.4-.264.256-.512.5-.749.758l-.8.8-.364.364a23.787,23.787,0,0,1-4.2-4.84,23.237,23.237,0,0,1-2.96-5.76,25.364,25.364,0,0,1-2.921,5.881,25.717,25.717,0,0,1-4.2,4.918h0ZM98.6,70.72a6.676,6.676,0,0,1-2.52-1.76,6.757,6.757,0,0,1-1.6-2.64,8.4,8.4,0,0,1-.6-3.24,8.985,8.985,0,0,1,.561-3.28,7.524,7.524,0,0,1,1.64-2.641A7.7,7.7,0,0,1,98.6,55.4a8.359,8.359,0,0,1,3.24-.64,8.66,8.66,0,0,1,3.28.64,8.866,8.866,0,0,1,2.561,1.759,9.525,9.525,0,0,1,1.6,2.68,9.911,9.911,0,0,1,.561,3.24,9.093,9.093,0,0,1-.561,3.2,7.888,7.888,0,0,1-1.6,2.64,7.558,7.558,0,0,1-2.561,1.759,7.419,7.419,0,0,1-3.28.68A7.634,7.634,0,0,1,98.6,70.72ZM99.92,58.24a4.422,4.422,0,0,0-1.4,1.16,4.868,4.868,0,0,0-.92,1.68,5.619,5.619,0,0,0-.32,2,5.168,5.168,0,0,0,.32,1.96,4.043,4.043,0,0,0,.879,1.64,3.479,3.479,0,0,0,1.4,1.12,3.728,3.728,0,0,0,1.92.44,4.165,4.165,0,0,0,2-.44,3.9,3.9,0,0,0,1.44-1.12,5.6,5.6,0,0,0,.92-1.68,7.323,7.323,0,0,0,.28-1.92,6.7,6.7,0,0,0-.32-2,5.84,5.84,0,0,0-.92-1.64,5.068,5.068,0,0,0-1.44-1.16,4.547,4.547,0,0,0-1.96-.44A4.643,4.643,0,0,0,99.92,58.24ZM322.96,69.92h0V47.52h17v2H325.2V67.96h.049c3.42,0,6.214-.1,8.79-.319,2.818-.2,5.59-.525,8.24-.96l.28,1.92a123.973,123.973,0,0,1-19.6,1.32Zm-36.8-.4h0V47.12h2.24V67.56h.049c3.474,0,6.414-.1,8.991-.32,2.844-.2,5.616-.523,8.24-.959l.28,1.92a124.13,124.13,0,0,1-19.8,1.32ZM69.479,68.4H65.96V59.24h-7.4V63.2H41.48V45.6H58.56v3.24h7.4V44h3.52V68.4h0ZM44.96,60.12H55.04V48.72H44.96Zm13.6-3.8h7.4v-4.6h-7.4ZM13.64,64.36a8.082,8.082,0,0,1-3.04-1.52,6.585,6.585,0,0,1-2.04-2.4,6.177,6.177,0,0,1-.76-3.12,6.642,6.642,0,0,1,.76-3.2,7.369,7.369,0,0,1,2.08-2.4,8.583,8.583,0,0,1,1.531-.921H4.88v-3H15.72V43.2H19.2v4.6H30.08v3H22.822a10.648,10.648,0,0,1,1.618.96,8.416,8.416,0,0,1,2.039,2.4,6.986,6.986,0,0,1,.72,3.16,6.576,6.576,0,0,1-.72,3.08,6.849,6.849,0,0,1-2,2.4,9.719,9.719,0,0,1-3.08,1.56,12.282,12.282,0,0,1-3.92.56A11.664,11.664,0,0,1,13.64,64.36ZM13.08,53.72a4.456,4.456,0,0,0-1.679,3.6A4.206,4.206,0,0,0,13.08,60.88a6.858,6.858,0,0,0,4.4,1.32,7.019,7.019,0,0,0,4.441-1.32A4.206,4.206,0,0,0,23.6,57.32a4.844,4.844,0,0,0-.44-2,6.655,6.655,0,0,0-1.28-1.561,8.8,8.8,0,0,0-1.92-1.04,8.5,8.5,0,0,0-2.48-.36A6.845,6.845,0,0,0,13.08,53.72Zm9.743-2.92a13.352,13.352,0,0,0-1.462-.6,15.038,15.038,0,0,0-3.88-.52,14.262,14.262,0,0,0-3.8.52,13.151,13.151,0,0,0-1.509.6ZM237.319,64H235.08V54.6h-8.24a8.009,8.009,0,0,1-.88,3.2A7.877,7.877,0,0,1,224,60.24a7.314,7.314,0,0,1-2.76,1.561,9.133,9.133,0,0,1-3.32.56,10.231,10.231,0,0,1-3.56-.6,7.862,7.862,0,0,1-2.839-1.72,7.018,7.018,0,0,1-1.92-2.72,8.273,8.273,0,0,1-.68-3.52,8.512,8.512,0,0,1,.68-3.52,7.473,7.473,0,0,1,1.92-2.68,8.42,8.42,0,0,1,2.839-1.72,10.21,10.21,0,0,1,3.56-.6,11.143,11.143,0,0,1,3.28.52,9.469,9.469,0,0,1,2.721,1.48,8.995,8.995,0,0,1,1.92,2.32,9.286,9.286,0,0,1,.96,3.04h8.28V44h2.24V64h0Zm-22-16.28a6.583,6.583,0,0,0-2.16,1.32,5.3,5.3,0,0,0-1.44,2.04,6.21,6.21,0,0,0-.56,2.72,6.44,6.44,0,0,0,.52,2.72,5.307,5.307,0,0,0,1.44,2.04,4.967,4.967,0,0,0,2.16,1.319,7.293,7.293,0,0,0,2.679.481,7.39,7.39,0,0,0,2.68-.481,5.938,5.938,0,0,0,2.12-1.319,6.583,6.583,0,0,0,1.4-2.08,7.077,7.077,0,0,0,.481-2.68,7.3,7.3,0,0,0-.52-2.68,7.527,7.527,0,0,0-1.4-2.08,7.224,7.224,0,0,0-2.12-1.32,8.336,8.336,0,0,0-2.641-.44A7.965,7.965,0,0,0,215.32,47.72ZM243.68,63.76V61.8h35.6v1.958h-35.6Zm22.48-8.879a10.588,10.588,0,0,1-4.68-4.441,11.339,11.339,0,0,1-4.68,4.4,26.6,26.6,0,0,1-8.28,2.76h0l-.014-.015c-.231-.231-.471-.47-.7-.745a7.158,7.158,0,0,1-.761-.8,26.289,26.289,0,0,0,5.56-1.4,17.7,17.7,0,0,0,4.16-2.16,9.969,9.969,0,0,0,2.641-2.72,5.949,5.949,0,0,0,.879-3v-2.2h2.361v2.2a5.382,5.382,0,0,0,.92,3.04,8.922,8.922,0,0,0,2.64,2.72,14.4,14.4,0,0,0,4.16,2.12,25.228,25.228,0,0,0,5.521,1.4l-.04.049c-.223.257-.454.524-.68.75l-.522.522-.238.239A24.946,24.946,0,0,1,266.161,54.88ZM110.679,52.2h-18V49.12h7.24V44.2h3.521v4.92h7.24V52.2h0ZM260.6,37.4a9.764,9.764,0,0,1-3.2-1.721,7.849,7.849,0,0,1-2.12-2.64,6.792,6.792,0,0,1-.8-3.4,7.167,7.167,0,0,1,.8-3.479,7.54,7.54,0,0,1,2.16-2.641,9.753,9.753,0,0,1,3.2-1.679,12.2,12.2,0,0,1,3.919-.6,13.2,13.2,0,0,1,4,.6,11.379,11.379,0,0,1,3.24,1.679,9.848,9.848,0,0,1,2.16,2.641,8.244,8.244,0,0,1,.76,3.479,7.69,7.69,0,0,1-.76,3.4,9.847,9.847,0,0,1-2.16,2.64,11.443,11.443,0,0,1-3.24,1.721,12.858,12.858,0,0,1-4,.6A12.534,12.534,0,0,1,260.6,37.4Zm.92-13.721A7.727,7.727,0,0,0,259.04,25a6.162,6.162,0,0,0-1.68,2,5.342,5.342,0,0,0-.64,2.64,5.125,5.125,0,0,0,.64,2.6,5.938,5.938,0,0,0,1.68,2.04,9.31,9.31,0,0,0,2.52,1.28,10.313,10.313,0,0,0,3,.44,11,11,0,0,0,3.08-.44,8.383,8.383,0,0,0,2.52-1.32,6.3,6.3,0,0,0,1.721-2,5.525,5.525,0,0,0,.6-2.6,5.852,5.852,0,0,0-.6-2.64,6.151,6.151,0,0,0-1.68-2,8.423,8.423,0,0,0-2.52-1.32,11.157,11.157,0,0,0-3.12-.44A10.307,10.307,0,0,0,261.519,23.68Zm51.2,13.92h-2.238V0h2.24V37.6Zm-74.6,0h-2.2V0h2.2V37.6Zm-55.4,0h-2.237V0h2.24V37.6Zm-113.84,0H65.361V0h3.52V37.6Zm39-.6h-24.4V26.4h3.48v7.48H107.88V37h0Zm37.28-.2H122.4V22.92h22.76V36.8h0ZM124.64,34.84h18.28V24.92H124.64Zm106.2,1.56h-2.2V20.48H221.6V18.56h7.04v-8.4h-5.76V8.24h5.76V.8h2.2V36.4ZM39.56,30V26.92h9.12V23.2a8.179,8.179,0,0,1-2.64-.8A6.432,6.432,0,0,1,44,20.88a5.7,5.7,0,0,1-1.36-2.08,6.311,6.311,0,0,1-.52-2.64,6.421,6.421,0,0,1,.68-3.04,6.188,6.188,0,0,1,1.8-2.281,7.881,7.881,0,0,1,2.68-1.48,10.6,10.6,0,0,1,3.24-.48A11.051,11.051,0,0,1,53.8,9.4a10.124,10.124,0,0,1,2.68,1.44,8.468,8.468,0,0,1,1.8,2.281,7.492,7.492,0,0,1,.64,3.04,7.2,7.2,0,0,1-.52,2.72,7.622,7.622,0,0,1-1.48,2.16,6.891,6.891,0,0,1-2.2,1.48,8.267,8.267,0,0,1-2.759.76v3.64h.013A55.569,55.569,0,0,0,62.6,25.84l.32,3.04A66.83,66.83,0,0,1,49.56,30Zm9.08-17.72a4.757,4.757,0,0,0-1.56.8,3.959,3.959,0,0,0-1.44,3.12,3.258,3.258,0,0,0,.4,1.68,2.931,2.931,0,0,0,1.04,1.28,3.28,3.28,0,0,0,1.56.84,5.644,5.644,0,0,0,1.88.28A6.359,6.359,0,0,0,52.44,20,4.27,4.27,0,0,0,54,19.16a3.5,3.5,0,0,0,1.44-2.96,4.522,4.522,0,0,0-.4-1.8A4.894,4.894,0,0,0,54,13.08a7.248,7.248,0,0,0-1.56-.8,8.08,8.08,0,0,0-1.92-.28A6.911,6.911,0,0,0,48.641,12.28Zm105.04,16.4V26.72h3.4c3.956,0,7.223-.1,10.28-.32,3.268-.2,6.539-.522,9.72-.959a7.775,7.775,0,0,0,.16.959,3.931,3.931,0,0,0,.12.96,149.584,149.584,0,0,1-20.28,1.32Zm-46.2-1.08H103.96V24.2H95.08V21.48h8.88V0h3.52V27.6h0ZM208.92,26.56a5.094,5.094,0,0,1-.8-.8c-.26-.222-.553-.473-.84-.76a20.618,20.618,0,0,0,4.96-3.08,24.788,24.788,0,0,0,4.2-4.441,25.373,25.373,0,0,0,3-5.56,21.077,21.077,0,0,0,1.24-6.4h-12V3.56H223.16A25.971,25.971,0,0,1,222,11.4a26.981,26.981,0,0,1-3.12,6.56,24.266,24.266,0,0,1-4.52,5.119,22.967,22.967,0,0,1-5.44,3.48ZM90.079,25.2H86.76V19.32H77.68v-2.8h10.6A58.667,58.667,0,0,0,100.8,15.24l.36,2.76a44.608,44.608,0,0,1-5.32.88,52.541,52.541,0,0,1-5.76.4V25.2h0Zm199.48-1.24a8.91,8.91,0,0,1-3.24-2.24,9.115,9.115,0,0,1-2.12-3.36,10.98,10.98,0,0,1-.76-4.2,11.381,11.381,0,0,1,.76-4.24,9.661,9.661,0,0,1,5.36-5.56,10.115,10.115,0,0,1,4.04-.8,10.547,10.547,0,0,1,4.04.8,11.191,11.191,0,0,1,3.2,2.2A12.15,12.15,0,0,1,303,9.92a12.19,12.19,0,0,1,.76,4.24,11.9,11.9,0,0,1-.76,4.2,11.06,11.06,0,0,1-2.16,3.36,9.731,9.731,0,0,1-7.24,3.04A9.392,9.392,0,0,1,289.56,23.96Zm.96-17.8A8.1,8.1,0,0,0,288,7.96a8.658,8.658,0,0,0-1.68,2.721,10.005,10.005,0,0,0-.6,3.479,9.329,9.329,0,0,0,.6,3.4A7.462,7.462,0,0,0,288,20.28a6.506,6.506,0,0,0,2.479,1.8,6.909,6.909,0,0,0,3.16.68,6.813,6.813,0,0,0,3.12-.68,6.987,6.987,0,0,0,2.52-1.8,8.728,8.728,0,0,0,1.64-2.72,10.212,10.212,0,0,0,.56-3.4,9.874,9.874,0,0,0-.6-3.44A9.346,9.346,0,0,0,299.24,8a9.208,9.208,0,0,0-2.48-1.84,7.925,7.925,0,0,0-6.24,0Zm-15.2,14.28H273.08V10h-8.24V8h8.24V0h2.24V20.439h0ZM160.6,19.76a7.97,7.97,0,0,1-2.88-1.721,7.008,7.008,0,0,1-1.92-2.72,8.209,8.209,0,0,1-.72-3.52,8.772,8.772,0,0,1,.72-3.64,7.644,7.644,0,0,1,1.92-2.721,8.673,8.673,0,0,1,2.92-1.679,9.949,9.949,0,0,1,3.52-.6,10.656,10.656,0,0,1,3.6.6,9.489,9.489,0,0,1,2.88,1.72A8.874,8.874,0,0,1,172.6,8.2a9.5,9.5,0,0,1,.68,3.6,8.892,8.892,0,0,1-.68,3.48A7.847,7.847,0,0,1,170.72,18a8.548,8.548,0,0,1-2.92,1.72,9.932,9.932,0,0,1-3.641.64A10.229,10.229,0,0,1,160.6,19.76Zm.8-14.241a6.447,6.447,0,0,0-2.2,1.36,5.726,5.726,0,0,0-1.44,2.081,6.979,6.979,0,0,0-.519,2.8,6.618,6.618,0,0,0,.519,2.759,5.225,5.225,0,0,0,1.48,2.08,5.854,5.854,0,0,0,2.2,1.361,7.425,7.425,0,0,0,2.76.48,8.063,8.063,0,0,0,2.76-.48,6.807,6.807,0,0,0,2.16-1.361,6.229,6.229,0,0,0,1.44-2.119,7.205,7.205,0,0,0,.519-2.72A7.759,7.759,0,0,0,170.561,9a7.117,7.117,0,0,0-1.44-2.12,7.514,7.514,0,0,0-2.16-1.319,8.056,8.056,0,0,0-2.76-.481A8.714,8.714,0,0,0,161.4,5.52Zm-16.241,14.4H142.92V0h2.24V19.919h0Zm102.081-.56a7.631,7.631,0,0,1-.8-.8c-.259-.222-.553-.473-.8-.72a17.783,17.783,0,0,0,3.52-2.24,19.461,19.461,0,0,0,3.08-2.96,15.04,15.04,0,0,0,2.16-3.36,9.208,9.208,0,0,0,.841-3.44V3.72h-8.08V1.76H265.8V3.72h-8.12V5.76a7.913,7.913,0,0,0,.959,3.56,12.15,12.15,0,0,0,2.2,3.16,15.96,15.96,0,0,0,3.04,2.6,18.565,18.565,0,0,0,3.44,1.959c-.287.247-.565.487-.8.72l-.283.283-.518.517a16.088,16.088,0,0,1-2.92-1.64,16.338,16.338,0,0,1-2.6-2.04,13.1,13.1,0,0,1-2.12-2.36,12.761,12.761,0,0,1-1.56-2.64,17.117,17.117,0,0,1-3.72,5.48,20.567,20.567,0,0,1-5.559,4ZM118.16,17.24h0V1.72h2.24V15.28h.051c3.585,0,6.5-.1,9.189-.319,2.906-.2,5.746-.525,8.439-.959l.28,1.92a130.091,130.091,0,0,1-20.2,1.32ZM85.2,13.88a7.07,7.07,0,0,1-2.68-1.4,5.785,5.785,0,0,1-1.72-2.2,6.057,6.057,0,0,1-.64-2.84,6.471,6.471,0,0,1,.64-2.92,6.556,6.556,0,0,1,1.759-2.2A8.376,8.376,0,0,1,85.2.88,10.9,10.9,0,0,1,88.52.4,11.118,11.118,0,0,1,91.84.88a10.364,10.364,0,0,1,2.641,1.4A7.412,7.412,0,0,1,96.24,4.52a7.1,7.1,0,0,1,.6,2.92,6.538,6.538,0,0,1-.6,2.84,6.427,6.427,0,0,1-1.759,2.2,7.6,7.6,0,0,1-2.641,1.4,10,10,0,0,1-3.32.52A9.8,9.8,0,0,1,85.2,13.88Zm-.32-9.52a3.829,3.829,0,0,0-1.4,3.081,3.684,3.684,0,0,0,.36,1.64,3.319,3.319,0,0,0,1.04,1.32,4.108,4.108,0,0,0,1.6.879,6.29,6.29,0,0,0,5.68-.879,3.686,3.686,0,0,0,1.4-2.96,3.923,3.923,0,0,0-1.4-3.081,6.294,6.294,0,0,0-7.28,0ZM60.519,7.2H40.361V4.12h8.4V.2h3.52V4.12h8.24V7.2h0Z" fill="url(#linear-gradient)"/>
</svg>
