<?xml version="1.0" encoding="UTF-8"?>
<svg width="43px" height="56px" viewBox="0 0 43 56" version="1.1" xmlns="http://www.w3.org/2000/svg" xmlns:xlink="http://www.w3.org/1999/xlink">
    <title>Group 37</title>
    <defs>
        <linearGradient x1="36.277816%" y1="8.19682253%" x2="62.9953741%" y2="75.2755441%" id="linearGradient-1">
            <stop stop-color="#C61FFF" offset="0%"></stop>
            <stop stop-color="#FF621E" offset="100%"></stop>
        </linearGradient>
    </defs>
    <g id="Page-1" stroke="none" stroke-width="1" fill="none" fill-rule="evenodd">
        <g id="non-mem-10-copy-2" transform="translate(-1871.000000, -736.000000)" fill-rule="nonzero" stroke="#1C1C1C">
            <g id="Group-37" transform="translate(1872.273087, 736.595703)">
                <path d="M37.7232393,0 L36.7837861,9.61132812 L35.6998018,9.61132812 C31.6047497,9.65950521 28.0095348,10.7434896 24.9141572,12.8632812 C21.8187796,14.9830729 19.3557263,18.0423177 17.5249971,22.0410156 C20.4878877,19.2226562 23.9445934,17.8616536 27.8951143,17.9580078 C30.7134736,18.0061849 33.0982393,18.8071289 35.0494111,20.3608398 C37.000583,21.9145508 38.4398734,24.058431 39.3672822,26.7924805 C40.2946911,29.5265299 40.6259085,32.507487 40.3609346,35.7353516 C40.0959606,38.9873047 39.1083304,41.9983724 37.398044,44.7685547 C35.6877575,47.538737 33.4354789,49.7548828 30.641208,51.4169922 C27.437432,53.319987 24.0048148,54.2353516 20.3433565,54.1630859 C16.7541638,54.1149089 13.6587861,53.1513672 11.0572236,51.2724609 C8.45566115,49.3935547 6.55266636,46.8341471 5.34823927,43.5942383 C4.14381219,40.3543294 3.74635125,36.8072917 4.15585646,32.953125 L4.69784865,28.5087891 C5.39641636,23.1852214 7.1729463,18.3374023 10.0274385,13.965332 C12.8819307,9.59326172 16.543389,6.18473307 21.0118135,3.73974609 C25.480238,1.29475911 30.3160127,0.0481770833 35.5191377,0 L37.7232393,0 Z M23.3062471,27.2080078 C20.6083304,27.1116536 18.2837861,28.4003906 16.3326143,31.0742188 C15.874932,34.4466146 15.6460908,36.7591146 15.6460908,38.0117188 C15.6460908,40.1315104 16.0796846,41.7755534 16.9468721,42.9438477 C17.8140596,44.1121419 19.0666638,44.7083333 20.7046846,44.7324219 C23.1135388,44.780599 25.0707328,43.5701497 26.5762666,41.1010742 C28.0818005,38.6319987 28.6900361,35.8798828 28.4009736,32.8447266 C28.2323539,31.1585286 27.7024059,29.8035482 26.8111299,28.7797852 C25.9198539,27.7560221 24.7515596,27.2320964 23.3062471,27.2080078 Z" id="Shape" fill="#333333"></path>
                <path d="M33.7232393,0 L32.7837861,9.61132812 L31.6998018,9.61132812 C27.6047497,9.65950521 24.0095348,10.7434896 20.9141572,12.8632812 C17.8187796,14.9830729 15.3557263,18.0423177 13.5249971,22.0410156 C16.4878877,19.2226562 19.9445934,17.8616536 23.8951143,17.9580078 C26.7134736,18.0061849 29.0982393,18.8071289 31.0494111,20.3608398 C33.000583,21.9145508 34.4398734,24.058431 35.3672822,26.7924805 C36.2946911,29.5265299 36.6259085,32.507487 36.3609346,35.7353516 C36.0959606,38.9873047 35.1083304,41.9983724 33.398044,44.7685547 C31.6877575,47.538737 29.4354789,49.7548828 26.641208,51.4169922 C23.437432,53.319987 20.0048148,54.2353516 16.3433565,54.1630859 C12.7541638,54.1149089 9.65878615,53.1513672 7.05722365,51.2724609 C4.45566115,49.3935547 2.55266636,46.8341471 1.34823927,43.5942383 C0.143812189,40.3543294 -0.253648748,36.8072917 0.15585646,32.953125 L0.697848647,28.5087891 C1.39641636,23.1852214 3.1729463,18.3374023 6.02743849,13.965332 C8.88193068,9.59326172 12.543389,6.18473307 17.0118135,3.73974609 C21.480238,1.29475911 26.3160127,0.0481770833 31.5191377,0 L33.7232393,0 Z M19.3062471,27.2080078 C16.6083304,27.1116536 14.2837861,28.4003906 12.3326143,31.0742188 C11.874932,34.4466146 11.6460908,36.7591146 11.6460908,38.0117188 C11.6460908,40.1315104 12.0796846,41.7755534 12.9468721,42.9438477 C13.8140596,44.1121419 15.0666638,44.7083333 16.7046846,44.7324219 C19.1135388,44.780599 21.0707328,43.5701497 22.5762666,41.1010742 C24.0818005,38.6319987 24.6900361,35.8798828 24.4009736,32.8447266 C24.2323539,31.1585286 23.7024059,29.8035482 22.8111299,28.7797852 C21.9198539,27.7560221 20.7515596,27.2320964 19.3062471,27.2080078 Z" id="Shape" fill="url(#linearGradient-1)"></path>
            </g>
        </g>
    </g>
</svg>