<svg xmlns="http://www.w3.org/2000/svg" xmlns:xlink="http://www.w3.org/1999/xlink" width="48.149" height="48.301" viewBox="0 0 48.149 48.301">
  <defs>
    <filter id="Oval" x="3.626" y="3.588" width="40.896" height="41.125" filterUnits="userSpaceOnUse">
      <feOffset input="SourceAlpha"/>
      <feGaussianBlur stdDeviation="2" result="blur"/>
      <feFlood flood-color="#ff9200"/>
      <feComposite operator="in" in2="blur"/>
      <feComposite in="SourceGraphic"/>
    </filter>
    <filter id="Oval-2" x="0" y="0" width="48.149" height="48.301" filterUnits="userSpaceOnUse">
      <feOffset input="SourceAlpha"/>
      <feGaussianBlur stdDeviation="2" result="blur-2"/>
      <feFlood flood-color="#ff9200"/>
      <feComposite operator="in" in2="blur-2"/>
      <feComposite in="SourceGraphic"/>
    </filter>
  </defs>
  <g transform="matrix(1, 0, 0, 1, 0, 0)" filter="url(#Oval)">
    <path id="Oval-3" data-name="Oval" d="M14.488,29.125a14.74,14.74,0,0,1,2.427-2.016q1.529-.641,2.407-1,.91-.377,2.537-.955a13.819,13.819,0,0,1,3.33,0,15.1,15.1,0,0,1,0-3.341q.525-1.566.9-2.472.362-.874.952-2.394a13.914,13.914,0,0,1,1.855-2.39,13.92,13.92,0,0,1-1.855-2.391q-.59-1.52-.952-2.394-.371-.9-.889-2.346a15.355,15.355,0,0,1-.012-3.37,11.877,11.877,0,0,1-3.321,0L19.322,3q-.885-.367-2.451-1.118A18.61,18.61,0,0,1,14.448,0a16.186,16.186,0,0,1-2.291,1.889Q10.635,2.636,9.753,3q-.9.373-2.426.906A14.02,14.02,0,0,1,4.3,4.054a16.672,16.672,0,0,1-.324,3.186q-.608,1.618-.986,2.53-.363.876-.99,2.4a13.829,13.829,0,0,1-2,2.384,13.835,13.835,0,0,1,2,2.385q.626,1.524.989,2.4.376.907.981,2.478a10.637,10.637,0,0,1,.005,3,19.433,19.433,0,0,1,3.353.345q1.527.57,2.428.943.878.364,2.407,1A13.16,13.16,0,0,1,14.488,29.125Z" transform="translate(9.63 9.59)" fill="#ffb229" opacity="0.4"/>
  </g>
  <g transform="matrix(1, 0, 0, 1, 0, 0)" filter="url(#Oval-2)">
    <path id="Oval-4" data-name="Oval" d="M14.488,29.125a14.74,14.74,0,0,1,2.427-2.016q1.529-.641,2.407-1,.91-.377,2.537-.955a13.819,13.819,0,0,1,3.33,0,15.1,15.1,0,0,1,0-3.341q.525-1.566.9-2.472.362-.874.952-2.394a13.914,13.914,0,0,1,1.855-2.39,13.92,13.92,0,0,1-1.855-2.391q-.59-1.52-.952-2.394-.371-.9-.889-2.346a15.355,15.355,0,0,1-.012-3.37,11.877,11.877,0,0,1-3.321,0L19.322,3q-.885-.367-2.451-1.118A18.61,18.61,0,0,1,14.448,0a16.186,16.186,0,0,1-2.291,1.889Q10.635,2.636,9.753,3q-.9.373-2.426.906A14.02,14.02,0,0,1,4.3,4.054a16.672,16.672,0,0,1-.324,3.186q-.608,1.618-.986,2.53-.363.876-.99,2.4a13.829,13.829,0,0,1-2,2.384,13.835,13.835,0,0,1,2,2.385q.626,1.524.989,2.4.376.907.981,2.478a10.637,10.637,0,0,1,.005,3,19.433,19.433,0,0,1,3.353.345q1.527.57,2.428.943.878.364,2.407,1A13.16,13.16,0,0,1,14.488,29.125Z" transform="translate(14.52 6) rotate(17)" fill="#ffb229" opacity="0.4"/>
  </g>
  <circle id="Oval-5" data-name="Oval" cx="12.5" cy="12.5" r="12.5" transform="translate(11.664 11.641)" fill="#ffb229"/>
</svg>
