<svg width="320" height="180" viewBox="0 0 320 180" fill="none" xmlns="http://www.w3.org/2000/svg">
<path d="M225.236 163.381H94.76C93.0731 163.381 91.7061 162.013 91.7061 160.327V70.3853L159.998 16.9121L228.29 70.3853V160.327C228.29 162.013 226.922 163.381 225.236 163.381Z" fill="white"/>
<path d="M225.236 164.038H94.7559C92.7097 164.038 91.0447 162.373 91.0447 160.326V70.3851C91.0447 70.1836 91.1367 69.9908 91.2988 69.8681L159.591 16.395C159.827 16.2066 160.165 16.2066 160.401 16.395L228.693 69.8681C228.851 69.9908 228.947 70.1836 228.947 70.3851V160.326C228.947 162.373 227.282 164.038 225.236 164.038ZM92.3592 70.7094V160.331C92.3592 161.654 93.4327 162.728 94.7559 162.728H225.236C226.559 162.728 227.633 161.654 227.633 160.331V70.7094L159.998 17.7489L92.3592 70.7094Z" fill="white"/>
<path d="M236.063 70.5517L162.706 10.6157C161.137 9.33627 158.859 9.33627 157.29 10.6157L83.9334 70.5517C83.4865 70.9154 83.2061 71.4499 83.1622 72.0239C83.1184 72.5979 83.3068 73.1719 83.688 73.6013L87.5132 77.9172C88.2668 78.7672 89.5506 78.8724 90.4357 78.1582L158.557 22.9324C159.393 22.2533 160.607 22.2533 161.444 22.9324L229.565 78.1582C229.959 78.478 230.432 78.6314 230.901 78.6314C231.488 78.6314 232.071 78.3904 232.487 77.9172L236.313 73.6013C236.694 73.1719 236.887 72.5979 236.838 72.0239C236.795 71.4499 236.51 70.9154 236.067 70.5517H236.063Z" fill="#EF7B89"/>
<path d="M89.0991 79.2887C88.3323 79.2887 87.5699 78.9688 87.0222 78.351L83.197 74.0351C82.6975 73.4699 82.4478 72.7206 82.5091 71.9714C82.5705 71.2221 82.9385 70.5167 83.5213 70.0435L156.869 10.1118C156.869 10.1118 156.874 10.1118 156.878 10.1075C158.688 8.63085 161.312 8.63085 163.122 10.1075L236.479 70.0435C237.062 70.5211 237.43 71.2221 237.491 71.9714C237.552 72.7206 237.298 73.4743 236.803 74.0351L232.978 78.3554C232.448 78.9513 231.69 79.293 230.897 79.293C230.261 79.293 229.644 79.074 229.148 78.6709L161.028 23.4407C160.432 22.9587 159.564 22.9587 158.968 23.4407L90.8473 78.6709C90.3303 79.0871 89.7125 79.293 89.0991 79.293V79.2887ZM159.998 21.7669C160.66 21.7669 161.317 21.986 161.856 22.4198L229.977 77.6456C230.568 78.1232 231.488 78.0487 231.992 77.479L235.817 73.1632C236.08 72.8652 236.212 72.4709 236.181 72.0765C236.15 71.6822 235.953 71.3098 235.646 71.06L162.289 11.124C160.966 10.0417 159.043 10.0417 157.715 11.1196C157.715 11.1196 157.711 11.124 157.706 11.1284L84.3494 71.06C84.0427 71.3098 83.8499 71.6822 83.8149 72.0765C83.7798 72.4709 83.9156 72.8696 84.1785 73.1632L88.0037 77.479C88.5251 78.0662 89.4102 78.1407 90.0192 77.6456L158.14 22.4198C158.679 21.9816 159.336 21.7669 159.998 21.7669Z" fill="#EF7B89"/>
<path d="M211.697 80.1429H108.295C105.169 80.1429 102.634 82.6775 102.634 85.804V145.775C102.634 148.902 105.169 151.436 108.295 151.436H211.697C214.823 151.436 217.358 148.902 217.358 145.775V85.804C217.358 82.6775 214.823 80.1429 211.697 80.1429Z" fill="#DED0CC"/>
<path d="M211.701 152.093H108.295C104.812 152.093 101.977 149.259 101.977 145.775V85.7997C101.977 82.3163 104.812 79.4814 108.295 79.4814H211.701C215.184 79.4814 218.019 82.3163 218.019 85.7997V145.775C218.019 149.259 215.184 152.093 211.701 152.093ZM108.295 80.8003C105.539 80.8003 103.291 83.0437 103.291 85.8041V145.78C103.291 148.536 105.535 150.783 108.295 150.783H211.701C214.457 150.783 216.705 148.54 216.705 145.78V85.8041C216.705 83.0481 214.461 80.8003 211.701 80.8003H108.295Z" fill="#DED0CC"/>
<path d="M164.036 161.733C166.458 156.524 170.323 153.28 173.784 148.983C175.711 146.588 176.812 143.357 178.358 140.696C180.107 137.681 181.972 134.724 183.509 131.587C183.85 130.891 184.174 130.171 184.475 129.439C186.969 123.372 187.877 116.316 184.389 110.892C181.805 106.875 177.32 104.551 172.975 102.556C164.544 98.682 155.713 96.1339 147.17 92.6465C143.764 91.2534 141.067 89.5457 137.247 88.9659C133.553 88.4042 129.715 88.4177 126.03 89.0783C116.157 90.8534 108.607 101.248 105.605 110.101C102.01 120.703 102.509 132.198 103.043 143.379C103.304 148.781 103.565 154.183 103.825 159.585C103.942 161.989 104.805 163.886 106.203 165.378H160.791C161.412 165.121 162 164.807 162.481 164.339C163.214 163.629 163.614 162.659 164.041 161.733H164.036Z" fill="#F49676"/>
<path d="M164.62 162.07C165.825 159.499 167.492 157.23 169.343 155.091C171.164 152.988 173.186 151.006 174.808 148.741C176.431 146.476 177.419 143.725 178.812 141.263C180.381 138.481 182.106 135.793 183.572 132.958C186.2 127.875 188.043 122.01 187.117 116.245C186.681 113.544 185.531 111.018 183.76 108.928C182.017 106.87 179.747 105.302 177.401 104.007C174.817 102.578 172.089 101.392 169.366 100.264C166.377 99.028 163.339 97.909 160.297 96.8124C157.232 95.7114 154.158 94.6328 151.111 93.4779C149.646 92.9206 148.177 92.3678 146.739 91.7432C145.444 91.1859 144.182 90.5613 142.887 90.004C141.575 89.4378 140.24 88.9299 138.847 88.5974C137.31 88.2334 135.719 88.0626 134.146 87.9637C131.05 87.7705 127.828 87.9188 124.803 88.6558C120.044 89.8242 115.941 92.8892 112.728 96.5068C109.492 100.151 106.967 104.452 105.281 109.018C103.147 114.793 102.32 121.004 102.082 127.129C101.83 133.546 102.212 139.968 102.522 146.377C102.684 149.752 102.846 153.127 103.007 156.506C103.084 158.093 103.052 159.724 103.362 161.283C103.614 162.542 104.126 163.764 104.877 164.811C105.201 165.265 105.641 166.025 106.252 166.052C106.355 166.056 106.463 166.052 106.567 166.052H157.762C158.751 166.052 159.753 166.092 160.742 166.052C161.259 166.029 161.834 165.661 162.256 165.377C163.456 164.573 164.036 163.342 164.625 162.074C164.778 161.746 164.719 161.346 164.382 161.153C164.09 160.982 163.614 161.063 163.461 161.396C163.007 162.376 162.584 163.477 161.686 164.142C161.474 164.299 161.241 164.429 161.003 164.551C160.944 164.582 160.594 164.771 160.791 164.708C160.778 164.708 160.76 164.708 160.746 164.708C160.535 164.739 160.302 164.708 160.09 164.708H108.571C107.821 164.708 107.048 164.658 106.297 164.708C106.266 164.708 106.23 164.708 106.198 164.708L106.675 164.906C105.713 163.868 105.048 162.623 104.724 161.243C104.526 160.403 104.495 159.558 104.455 158.699C104.41 157.729 104.36 156.754 104.315 155.783C104.126 151.869 103.938 147.95 103.749 144.035C103.398 136.755 103.025 129.434 103.762 122.163C104.41 115.782 105.982 109.472 109.151 103.859C111.892 99.0055 115.699 94.4621 120.637 91.7432C123.28 90.2871 126.129 89.604 129.122 89.3614C132.717 89.0692 136.551 89.2041 140.002 90.3321C141.526 90.8309 142.977 91.514 144.433 92.1836C146.033 92.9206 147.655 93.5857 149.296 94.2239C152.765 95.5721 156.279 96.8034 159.785 98.0618C163.286 99.3201 166.782 100.605 170.206 102.07C173.222 103.36 176.269 104.722 178.997 106.555C181.545 108.263 183.765 110.51 184.929 113.391C186.093 116.271 186.232 119.476 185.756 122.523C185.234 125.871 184.048 129.07 182.506 132.077C181.666 133.722 180.74 135.322 179.801 136.912C178.889 138.463 177.923 139.991 177.1 141.591C176.35 143.051 175.689 144.561 174.907 146.004C174.125 147.446 173.181 148.691 172.121 149.923C170.027 152.354 167.771 154.65 165.888 157.261C164.953 158.565 164.126 159.94 163.447 161.391C163.295 161.719 163.353 162.119 163.69 162.313C163.982 162.483 164.458 162.402 164.611 162.07H164.62Z" fill="#F49676"/>
<path d="M143.984 51.1395C140.676 48.9644 136.497 48.16 132.619 48.9509C127.082 50.0789 123.051 53.409 120.611 58.5501C119.644 60.5859 119.024 62.8105 118.984 65.062C118.943 67.4752 119.568 69.8121 120.305 72.0906C121.015 74.2926 122.736 75.933 123.172 78.1979C123.397 79.3574 123.343 80.6337 124.004 81.6134C124.35 82.1257 124.857 82.5077 125.406 82.7953C127.015 83.6492 128.907 83.7435 130.722 83.8199C133.207 83.9278 135.881 83.9862 137.962 82.62" fill="#E8E3E2"/>
<path d="M144.321 50.5555C140.402 47.9984 135.508 47.3602 131.028 48.641C127.221 49.7286 123.976 52.0699 121.702 55.3056C120.426 57.1257 119.429 59.1974 118.844 61.3456C118.507 62.5859 118.314 63.8802 118.301 65.1655C118.287 66.4508 118.462 67.7495 118.741 69.0079C119.02 70.2662 119.339 71.511 119.802 72.6929C120.21 73.74 120.799 74.6838 121.365 75.6455C121.932 76.6072 122.368 77.4925 122.547 78.5486C122.736 79.6631 122.741 80.8361 123.343 81.8338C123.985 82.8943 125.145 83.5145 126.291 83.892C127.464 84.274 128.713 84.3863 129.936 84.4538C132.187 84.5751 134.6 84.7279 136.757 83.9504C137.297 83.7572 137.818 83.51 138.299 83.1999C138.604 83.0022 138.73 82.6022 138.542 82.2787C138.362 81.9731 137.926 81.8383 137.62 82.036C135.823 83.1954 133.625 83.2404 131.558 83.1775C130.461 83.1415 129.347 83.119 128.259 82.9618C127.172 82.8045 126.075 82.5168 125.19 81.8742C124.358 81.2675 124.138 80.3507 124.012 79.38C123.941 78.8048 123.882 78.2251 123.738 77.6633C123.608 77.151 123.406 76.6522 123.181 76.1758C122.732 75.2231 122.138 74.3512 121.635 73.4345C121.1 72.4548 120.781 71.4166 120.476 70.3471C119.82 68.0416 119.424 65.6508 119.815 63.26C120.17 61.0759 121.015 58.9952 122.152 57.1032C123.994 54.0383 126.754 51.6161 130.093 50.3712C131.994 49.6612 134.003 49.2747 136.038 49.3331C138.191 49.396 140.344 49.9353 142.263 50.915C142.739 51.1577 143.197 51.4273 143.647 51.7194C143.952 51.9172 144.393 51.7823 144.568 51.4767C144.761 51.1487 144.631 50.7532 144.325 50.5555H144.321Z" fill="#E8E3E2"/>
<path d="M144.532 92.4399C144.326 91.568 143.818 90.7861 143.229 90.0535C142.919 89.5592 142.532 89.1053 142.056 88.7053C141.292 87.8874 140.438 87.1279 139.346 86.719C138.245 86.3055 137.014 86.2876 135.818 86.2786C133.913 86.2606 131.945 86.2516 130.192 86.9122C127.549 87.9054 126.79 90.0086 126.875 92.2646C126.821 93.2353 126.902 94.2285 127.064 95.1497C127.325 96.6238 127.841 98.1248 128.983 99.2303C129.068 99.3112 129.158 99.3921 129.253 99.4685C129.419 99.6842 129.594 99.8909 129.796 100.08C130.533 100.767 131.576 101.248 132.646 101.185C133.863 101.113 134.92 100.354 135.558 99.4325C136.196 98.5113 136.483 97.4417 136.762 96.3901C137.355 97.3878 137.975 98.4124 138.951 99.1404C139.926 99.8685 141.359 100.237 142.51 99.7381C144.033 99.0775 144.375 97.3159 144.424 95.8194C144.433 95.5003 144.438 95.1812 144.429 94.8576C144.645 94.0577 144.721 93.2353 144.532 92.4354V92.4399Z" fill="white"/>
<path d="M145.179 92.26C144.99 91.505 144.613 90.804 144.159 90.1748C143.705 89.5456 143.26 88.8805 142.676 88.3547C142.105 87.8424 141.606 87.2897 140.977 86.8403C140.348 86.3909 139.611 86.0448 138.847 85.8651C138.025 85.6718 137.171 85.6224 136.33 85.6089C135.49 85.5954 134.686 85.5864 133.868 85.6089C132.263 85.6628 130.619 85.8785 129.172 86.6245C128.035 87.2088 127.154 88.1525 126.664 89.3299C126.174 90.5074 126.17 91.7747 126.183 93.0195C126.205 94.6104 126.475 96.2507 127.127 97.7068C127.432 98.3899 127.85 99.028 128.372 99.5718C128.479 99.6796 128.592 99.7785 128.704 99.8819C128.848 100.021 128.965 100.183 129.1 100.331C129.383 100.637 129.711 100.906 130.061 101.131C131.553 102.097 133.468 102.093 134.91 101.037C136.353 99.9807 136.964 98.2685 137.418 96.5698L136.187 96.7316C136.775 97.7203 137.396 98.7359 138.294 99.4729C139.193 100.21 140.33 100.691 141.508 100.641C142.627 100.592 143.611 100.053 144.244 99.1359C144.793 98.3404 144.99 97.3472 145.071 96.4035C145.125 95.8058 145.071 95.2036 145.188 94.6194C145.345 93.8329 145.368 93.0465 145.188 92.26C145.107 91.905 144.698 91.6983 144.357 91.7882C143.993 91.887 143.804 92.26 143.885 92.6195C143.997 93.1229 143.997 93.6487 143.903 94.1565C143.844 94.4666 143.759 94.7542 143.764 95.0733C143.764 95.3474 143.764 95.6215 143.75 95.8912C143.737 96.2956 143.705 96.6237 143.642 96.9563C143.606 97.1495 143.561 97.3428 143.503 97.5315C143.444 97.7203 143.377 97.9045 143.323 98.0169C143.139 98.3854 143.004 98.5876 142.703 98.8438C142.685 98.8572 142.649 98.8887 142.577 98.9381C142.492 98.992 142.406 99.046 142.316 99.0909C142.155 99.1718 141.921 99.2392 141.714 99.2752C140.905 99.3965 140.002 99.0864 139.332 98.5876C138.461 97.9405 137.894 96.9697 137.351 96.053C137.059 95.5586 136.268 95.6485 136.119 96.2148C135.782 97.4821 135.418 98.8123 134.425 99.7111C133.553 100.502 132.362 100.745 131.27 100.259C130.992 100.138 130.713 99.9717 130.479 99.7785C130.192 99.5448 129.989 99.2482 129.733 98.9876C129.509 98.7584 129.261 98.5606 129.055 98.309C128.848 98.0573 128.682 97.7877 128.533 97.509C127.922 96.381 127.662 95.0463 127.572 93.7745C127.522 93.0779 127.531 92.3769 127.549 91.6803C127.549 91.5635 127.558 91.4421 127.567 91.3253C127.572 91.2534 127.581 91.186 127.585 91.1141C127.599 90.9747 127.59 91.0511 127.585 91.0826C127.621 90.8085 127.68 90.5343 127.756 90.2692C128.012 89.3839 128.542 88.6154 129.324 88.0941C130.443 87.3481 131.823 87.0874 133.149 86.9931C133.868 86.9436 134.587 86.9391 135.301 86.9436C136.056 86.9436 136.811 86.9436 137.562 87.0155C138.312 87.0874 139.058 87.2627 139.719 87.6357C140.353 87.9907 140.887 88.4671 141.386 88.9839C141.651 89.258 141.939 89.5007 142.191 89.7838C142.424 90.049 142.604 90.3456 142.82 90.6242C143.287 91.2219 143.692 91.878 143.876 92.6195C144.087 93.4599 145.386 93.1049 145.175 92.26H145.179Z" fill="white"/>
<path d="M138.299 90.6108C139.126 91.1905 140.024 91.6624 140.959 92.0309C140.964 91.9859 140.973 91.941 140.977 91.896C140.977 91.8691 140.986 91.8376 140.991 91.8107C141.278 89.8108 141.737 87.829 142.357 85.8876L132.821 84.2832C134.29 86.692 135.993 88.9974 138.294 90.6108H138.299Z" fill="#E6AD9A"/>
<path d="M138.299 90.6105C135.998 88.9972 134.295 86.6918 132.825 84.283L131.409 84.0448C130.924 84.0088 130.704 84.5167 130.645 84.9121C130.565 85.4379 130.488 85.9637 130.407 86.4895C130.232 87.6535 130.057 88.8219 129.877 89.9859C129.625 91.6621 129.531 93.6709 131.176 94.7136C131.8 95.1135 132.587 95.2933 133.351 95.4506C134.542 95.6977 135.764 95.909 136.977 95.8236C138.195 95.7382 139.418 95.3068 140.11 94.4933C140.707 93.7878 140.838 92.8935 140.959 92.0306C140.02 91.6621 139.126 91.1858 138.299 90.6105Z" fill="#FFC6B0"/>
<path d="M160.54 72.9401C160.679 69.4209 157.981 66.4572 154.514 66.3203C151.047 66.1835 148.124 68.9254 147.985 72.4446C147.846 75.9638 150.544 78.9276 154.011 79.0644C157.478 79.2012 160.401 76.4593 160.54 72.9401Z" fill="#E6AD9A"/>
<path d="M157.406 70.2485C157.819 59.805 150.617 51.0415 141.322 50.6747C132.027 50.3079 124.158 58.4766 123.746 68.92C123.333 79.3635 130.535 88.127 139.83 88.4938C149.125 88.8606 156.994 80.6919 157.406 70.2485Z" fill="#FFC6B0"/>
<path d="M130.248 71.746C130.387 68.2268 127.689 65.2631 124.222 65.1262C120.755 64.9894 117.832 67.7313 117.693 71.2505C117.554 74.7697 120.252 77.7335 123.719 77.8703C127.186 78.0071 130.109 75.2652 130.248 71.746Z" fill="#FFC6B0"/>
<path d="M120.858 72.4728C122.192 72.4548 123.563 72.5492 124.826 72.7514C125.172 72.8053 125.567 72.6615 125.657 72.2795C125.729 71.956 125.558 71.5111 125.185 71.4482C123.752 71.219 122.309 71.1021 120.858 71.1201C120.507 71.1246 120.166 71.4257 120.184 71.7942C120.202 72.1627 120.48 72.4728 120.858 72.4683V72.4728Z" fill="#C77B5F"/>
<path d="M133.625 78.4679C133.558 80.207 132.254 81.5642 130.717 81.5058C129.18 81.4474 127.99 79.9868 128.057 78.2477C128.124 76.5085 129.428 75.1513 130.965 75.2097C132.501 75.2681 133.692 76.7287 133.625 78.4679Z" fill="#FFA78C"/>
<path d="M153.453 80.0586C152.617 81.7259 151.156 82.6876 150.19 82.2023C149.228 81.7169 149.125 79.9733 149.961 78.306C150.797 76.6387 152.257 75.677 153.223 76.1623C154.185 76.6477 154.288 78.3914 153.453 80.0586Z" fill="#FFA78C"/>
<path d="M142.955 73.0164C143.233 73.7804 143.534 74.5713 143.449 75.3758C143.382 76.0409 142.905 76.5487 142.402 77.0655C142.15 77.3262 142.141 77.7576 142.402 78.0182C142.663 78.2789 143.103 78.2834 143.355 78.0182C144.029 77.3172 144.635 76.5801 144.77 75.587C144.905 74.5938 144.59 73.5916 144.253 72.6569C144.128 72.3153 143.795 72.0861 143.422 72.185C143.094 72.2749 142.824 72.6704 142.95 73.0164H142.955Z" fill="#C77B5F"/>
<path d="M149.179 73.6276C148.986 74.513 148.406 75.1376 147.889 75.0253C147.372 74.9129 147.112 74.104 147.305 73.2187C147.498 72.3334 148.073 71.7087 148.595 71.821C149.112 71.9334 149.377 72.7423 149.179 73.6276Z" fill="#5B4242"/>
<path d="M138.074 72.8637C137.881 73.749 137.301 74.3737 136.784 74.2614C136.268 74.149 136.007 73.3401 136.2 72.4548C136.393 71.5694 136.969 70.9448 137.49 71.0571C138.007 71.1695 138.272 71.9784 138.074 72.8637Z" fill="#5B4242"/>
<path d="M158.949 67.2055C158.949 67.2055 158.976 67.2055 158.989 67.201C160.193 67.0033 161.389 66.2573 161.762 65.0934C161.87 64.7608 161.901 64.3878 161.753 64.0732C161.578 63.7047 161.2 63.4935 160.886 63.2373C159.82 62.37 159.438 60.9499 158.935 59.6691C155.578 51.1215 144.388 47.5038 135.957 49.6564C132.263 50.6002 128.834 52.8067 126.794 56.0244C125.756 57.6603 125.127 59.4803 124.399 61.26C124.026 62.1722 123.077 63.5968 123.298 64.6305C124.021 68.0504 128.695 65.1203 130.097 63.9698C131.239 63.0306 132.385 62.0914 133.526 61.1521C133.737 60.9813 133.962 60.8016 134.232 60.7611C134.51 60.7207 134.789 60.833 135.045 60.9454C141.543 63.7227 148.451 65.4079 155.358 66.8865C156.54 67.1381 157.758 67.3898 158.949 67.201V67.2055Z" fill="#E8E3E2"/>
<path d="M159.128 67.8575C159.973 67.7227 160.778 67.3496 161.42 66.7879C162.077 66.2127 162.607 65.2914 162.521 64.3926C162.472 63.8758 162.22 63.4444 161.82 63.1163C161.483 62.8377 161.169 62.6354 160.886 62.2894C160.409 61.7052 160.126 60.9367 159.861 60.2267C159.335 58.82 158.715 57.4808 157.834 56.2539C157.003 55.099 156.028 54.0564 154.931 53.1531C152.684 51.3105 150.033 50.0073 147.233 49.2343C144.469 48.4703 141.539 48.1962 138.685 48.5018C135.436 48.8523 132.281 49.9489 129.675 51.9487C128.277 53.0228 127.059 54.317 126.129 55.8225C125.599 56.6809 125.176 57.5977 124.785 58.5234C124.588 58.9908 124.399 59.4672 124.21 59.939C124.12 60.1637 124.035 60.3839 123.945 60.6086C123.85 60.8468 123.779 61.0266 123.711 61.1749C123.37 61.9164 122.947 62.6354 122.727 63.4309C122.507 64.2263 122.588 64.9813 122.97 65.6869C123.576 66.8149 124.835 67.0441 125.999 66.8283C127.154 66.6171 128.259 66.0329 129.243 65.4127C130.52 64.6083 131.648 63.5792 132.807 62.622C133.229 62.2759 133.638 61.9029 134.079 61.5793C134.191 61.494 134.281 61.4266 134.42 61.4355C134.582 61.4445 134.807 61.5749 134.955 61.6378C135.926 62.0467 136.901 62.4377 137.885 62.8062C139.831 63.5297 141.804 64.1724 143.799 64.7521C145.813 65.3408 147.844 65.8666 149.88 66.352C151.902 66.8328 153.929 67.3137 155.974 67.7092C157.03 67.9114 158.068 68.0193 159.137 67.862C159.497 67.808 159.695 67.3541 159.609 67.0306C159.501 66.6441 159.142 66.5093 158.778 66.5587C157.843 66.6935 156.877 66.5183 155.965 66.3295C154.971 66.1228 153.983 65.9026 152.994 65.6824C151.053 65.2465 149.116 64.7881 147.188 64.2847C143.328 63.2736 139.508 62.0782 135.818 60.5457C135.369 60.357 134.915 60.1053 134.42 60.0828C133.877 60.0559 133.454 60.3525 133.054 60.6805C132.25 61.3322 131.454 61.9973 130.654 62.6534C130.295 62.95 129.935 63.2511 129.571 63.5432C129.535 63.5702 129.499 63.5972 129.468 63.6286C129.401 63.6825 129.58 63.5477 129.508 63.5972C129.49 63.6106 129.472 63.6241 129.459 63.6376C129.365 63.705 129.275 63.7724 129.18 63.8398C128.758 64.1364 128.322 64.4106 127.873 64.6622C127.625 64.7971 127.374 64.9274 127.118 65.0442C127.055 65.0757 126.987 65.1026 126.924 65.1296C126.808 65.1835 126.983 65.1071 126.861 65.1566C126.722 65.2105 126.583 65.2644 126.444 65.3139C126.192 65.3993 125.936 65.4712 125.675 65.5206C125.612 65.5341 125.549 65.5431 125.486 65.552C125.621 65.5296 125.495 65.552 125.428 65.552C125.311 65.561 125.19 65.5655 125.073 65.561C125.014 65.561 124.961 65.552 124.902 65.5476C125.032 65.5565 124.952 65.5565 124.871 65.5386C124.817 65.5296 124.763 65.5161 124.713 65.4981C124.686 65.4891 124.529 65.4307 124.623 65.4712C124.722 65.5116 124.565 65.4397 124.543 65.4262C124.498 65.3993 124.453 65.3678 124.408 65.3408C124.345 65.3049 124.453 65.3768 124.453 65.3768C124.43 65.3543 124.403 65.3363 124.381 65.3139C124.336 65.2689 124.295 65.224 124.25 65.1746C124.17 65.0892 124.291 65.2599 124.237 65.1521C124.21 65.0982 124.174 65.0487 124.143 64.9948C124.12 64.9543 124.057 64.806 124.107 64.9274C124.075 64.851 124.053 64.7746 124.026 64.6982C123.936 64.3971 123.931 64.2083 123.999 63.9297C124.165 63.2062 124.543 62.577 124.857 61.9074C125.253 61.067 125.558 60.1862 125.909 59.3278C126.578 57.6965 127.387 56.1191 128.569 54.7934C130.69 52.4116 133.598 50.8566 136.694 50.1646C137.013 50.0927 137.333 50.0298 137.656 49.9758C137.809 49.9489 137.957 49.9264 138.11 49.9039C138.285 49.877 138.299 49.877 138.528 49.85C139.193 49.7736 139.858 49.7287 140.528 49.7152C141.862 49.6882 143.269 49.7871 144.487 49.9893C147.215 50.4387 149.754 51.3195 152.082 52.7441C154.315 54.1058 156.243 55.9529 157.533 58.2403C157.87 58.838 158.144 59.4267 158.364 60.002C158.67 60.7974 158.935 61.6153 159.349 62.3613C159.551 62.7298 159.798 63.0803 160.086 63.3904C160.351 63.6736 160.706 63.8983 160.975 64.1409C161.227 64.3656 161.241 64.5903 161.119 64.9499C161.025 65.233 160.836 65.4936 160.602 65.7183C160.117 66.1857 159.47 66.4419 158.787 66.5542C158.427 66.6126 158.225 67.062 158.315 67.3856C158.418 67.7676 158.782 67.9159 159.146 67.8575H159.128Z" fill="#E8E3E2"/>
<path d="M136.73 76.7285C134.798 78.1396 133.562 80.2428 133.248 82.6156C133.198 82.9751 133.594 83.2897 133.922 83.2897C134.326 83.2897 134.546 82.9796 134.596 82.6156C134.838 80.8045 135.908 78.9935 137.414 77.8969C137.706 77.6812 137.854 77.3127 137.656 76.9756C137.485 76.688 137.032 76.5173 136.735 76.733L136.73 76.7285Z" fill="#C77B5F"/>
<path d="M137.445 80.3507C138.609 81.1956 140.074 81.5461 141.49 81.645C142.883 81.7438 144.33 81.5865 145.66 81.1551C146.006 81.0428 146.231 80.6877 146.132 80.3237C146.038 79.9822 145.651 79.7395 145.301 79.8519C144.074 80.2473 142.869 80.3777 141.571 80.2968C140.357 80.2204 139.13 79.9148 138.124 79.1823C137.827 78.9665 137.373 79.1328 137.202 79.4249C137.005 79.7665 137.148 80.1305 137.445 80.3462V80.3507Z" fill="#5B4242"/>
<path d="M161.798 84.153C161.097 82.3285 160.957 80.2927 161.335 78.3737C161.915 75.4257 163.654 74.0056 165.406 71.835C167.267 69.534 169.199 67.2241 171.667 65.5928C176.102 62.6582 181.585 61.5347 186.838 62.1594C192.11 62.7885 196.015 64.5592 199.237 68.8015C200.46 70.4104 201.161 72.4012 202.603 73.8168C203.677 74.8729 205.12 75.565 205.947 76.8233C206.733 78.0187 206.832 79.5916 206.392 80.9578C205.965 82.2745 204.697 83.0655 204.253 84.2564C203.848 85.335 204.217 86.5798 203.65 87.7348C202.859 89.3571 201.291 90.584 199.525 90.9615C199.197 91.0334 198.842 91.0828 198.581 91.2895C198.325 91.4917 198.195 91.8063 198.064 92.1029C196.64 95.2982 193.768 97.8867 190.407 98.8979C188.555 99.4551 187.742 99.8506 186.137 101.033C184.447 102.268 182.56 103.28 180.484 103.653C177.383 104.214 173.801 103.055 172.318 100.278C170.682 100.547 168.916 100.799 167.442 100.035C165.973 99.2709 165.191 97.0463 166.413 95.9273C164.467 95.9498 162.566 94.7454 161.753 92.9793C160.939 91.2131 161.263 88.9841 162.548 87.5235C162.755 87.2899 162.993 87.0472 163.02 86.7326C163.043 86.436 162.858 86.1619 162.696 85.9147C162.332 85.3619 162.036 84.7732 161.802 84.162L161.798 84.153Z" fill="#AFA6A5"/>
<path d="M162.445 83.9732C161.73 82.0768 161.591 79.9601 162.108 77.9917C162.548 76.32 163.559 75.0122 164.665 73.7359C165.937 72.2664 167.119 70.7159 168.444 69.2913C169.77 67.8667 171.289 66.541 173.019 65.5388C176.412 63.5705 180.34 62.6222 184.254 62.6627C186.079 62.6806 187.867 62.9053 189.643 63.3278C191.215 63.7053 192.645 64.2221 194.029 65.013C195.435 65.8175 196.622 66.8061 197.718 68.0195C198.32 68.6891 198.873 69.3992 199.345 70.1632C199.844 70.9721 200.28 71.817 200.797 72.6169C201.313 73.4168 201.925 74.1673 202.671 74.7785C203.363 75.3492 204.127 75.8391 204.774 76.4683C205.421 77.0974 205.807 77.812 205.933 78.6793C206.05 79.4972 205.942 80.4634 205.551 81.178C205.142 81.9285 204.504 82.4947 204.023 83.2183C203.457 84.0676 203.381 85.0114 203.331 86.0045C203.309 86.4584 203.268 86.9168 203.089 87.3393C202.931 87.7033 202.689 88.0763 202.455 88.3684C201.925 89.029 201.278 89.5368 200.518 89.9053C200.168 90.0761 199.786 90.2019 199.386 90.2918C198.864 90.4087 198.356 90.5165 197.974 90.9255C197.642 91.276 197.494 91.7479 197.282 92.1748C197.089 92.5658 196.873 92.9478 196.635 93.3208C195.723 94.7499 194.487 95.9947 193.058 96.916C192.343 97.3789 191.579 97.7699 190.789 98.053C189.948 98.3541 189.085 98.5833 188.263 98.9428C186.587 99.6753 185.238 100.956 183.63 101.814C182.771 102.273 181.863 102.632 180.915 102.866C180.097 103.064 179.36 103.14 178.493 103.1C177.037 103.028 175.441 102.533 174.313 101.621C173.698 101.127 173.262 100.61 172.893 99.9315C172.741 99.6483 172.426 99.5719 172.134 99.6214C171.24 99.7697 170.341 99.9 169.433 99.8551C169.02 99.8326 168.62 99.7652 168.229 99.6349C168.049 99.5764 167.883 99.5045 167.721 99.4147C167.662 99.3832 167.599 99.3472 167.541 99.3068C167.429 99.2304 167.465 99.2574 167.397 99.2034C166.921 98.799 166.642 98.3316 166.512 97.7294C166.503 97.6845 166.494 97.6395 166.485 97.5946C166.494 97.662 166.494 97.6575 166.485 97.5766C166.485 97.5092 166.476 97.4463 166.476 97.3789C166.476 97.2935 166.476 97.2036 166.489 97.1182C166.471 97.253 166.503 97.0733 166.507 97.0418C166.525 96.9609 166.552 96.8755 166.584 96.7991C166.539 96.916 166.611 96.7497 166.624 96.7272C166.638 96.7048 166.768 96.507 166.701 96.5924C166.755 96.5205 166.822 96.4576 166.885 96.3947C167.312 95.9902 166.984 95.2442 166.409 95.2442C164.696 95.2487 162.975 94.1926 162.297 92.5523C161.968 91.7659 161.897 90.8356 162.063 90.0132C162.157 89.5458 162.301 89.1234 162.526 88.7144C162.768 88.274 163.083 87.9549 163.38 87.555C163.82 86.9573 163.73 86.2787 163.348 85.6765C163.002 85.1327 162.683 84.5754 162.445 83.9732C162.314 83.6362 161.991 83.398 161.613 83.5014C161.29 83.5913 161.011 83.9912 161.142 84.3328C161.375 84.935 161.649 85.5192 161.991 86.072C162.081 86.2113 162.323 86.4944 162.337 86.6382C162.346 86.746 162.166 86.9213 162.063 87.0382C161.362 87.8516 160.881 88.8447 160.715 89.9098C160.369 92.1164 161.249 94.2465 163.074 95.5408C164.04 96.2239 165.227 96.6014 166.409 96.5969L165.932 95.4464C164.899 96.4261 164.966 97.9901 165.627 99.154C166.435 100.583 167.995 101.158 169.572 101.208C170.552 101.239 171.527 101.077 172.489 100.92L171.729 100.61C173.455 103.792 177.473 104.933 180.848 104.259C182.902 103.85 184.794 102.83 186.474 101.608C187.184 101.091 187.912 100.588 188.712 100.215C189.045 100.057 189.364 99.9405 189.764 99.8056C190.209 99.6528 190.663 99.5315 191.108 99.3742C192.892 98.7406 194.519 97.7069 195.871 96.3857C196.541 95.7296 197.143 95.0015 197.66 94.2196C197.912 93.8421 198.141 93.4511 198.347 93.0511C198.451 92.8489 198.55 92.6467 198.64 92.44C198.725 92.2467 198.801 92.004 198.954 91.8557C199.08 91.7299 199.26 91.7029 199.426 91.667C199.664 91.6131 199.907 91.5681 200.141 91.4962C200.594 91.3614 201.035 91.1726 201.453 90.9435C202.302 90.4806 203.03 89.8289 203.61 89.0605C203.889 88.6964 204.127 88.3055 204.306 87.883C204.536 87.3482 204.626 86.782 204.662 86.2023C204.693 85.7304 204.679 85.2495 204.783 84.7867C204.873 84.3912 205.057 84.0676 205.318 83.7126C205.799 83.0565 206.482 82.4048 206.841 81.6094C207.277 80.6477 207.398 79.5511 207.255 78.513C207.111 77.4749 206.652 76.5177 205.933 75.7402C205.3 75.0571 204.513 74.5493 203.79 73.9741C203.066 73.3988 202.446 72.7023 201.934 71.9113C201.403 71.0844 200.954 70.2081 200.433 69.3767C199.462 67.8308 198.195 66.4241 196.775 65.2782C195.431 64.1996 193.948 63.3637 192.339 62.7481C190.667 62.1099 188.906 61.7549 187.135 61.5257C183.063 60.9999 178.825 61.4852 175.024 63.0626C173.06 63.876 171.213 64.9411 169.586 66.3163C167.981 67.6735 166.611 69.2778 165.29 70.9047C164.139 72.3203 162.8 73.646 161.843 75.2099C160.76 76.9761 160.337 79.0928 160.467 81.151C160.535 82.2386 160.751 83.3171 161.137 84.3373C161.267 84.6788 161.591 84.9125 161.968 84.8091C162.297 84.7193 162.571 84.3238 162.44 83.9777L162.445 83.9732Z" fill="#AFA6A5"/>
<path d="M218.53 157.234C217.506 152.498 216.216 148.48 215.748 143.492C215.025 135.776 213.865 128.1 212.279 120.514C210.886 113.84 211.084 108.596 205.668 103.805C203.678 102.044 201.017 99.3561 198.447 98.5157C195.952 97.7023 192.213 98.1652 189.589 98.1338C182.933 98.0484 175.797 98.8213 170.88 103.868C168.593 106.214 165.267 109.342 163.883 112.362C161.793 116.905 162.063 123.673 161.492 128.603C160.827 134.324 160.239 140.058 159.695 145.793C159.115 151.896 158.58 158.003 158.05 164.106C158.018 164.474 157.992 164.87 157.978 165.288H217.488C218.773 162.865 219.101 159.85 218.539 157.239L218.53 157.234Z" fill="white"/>
<path d="M219.182 157.054C218.602 154.381 217.888 151.743 217.312 149.069C217.025 147.725 216.773 146.372 216.593 145.011C216.4 143.546 216.288 142.071 216.13 140.602C215.483 134.611 214.58 128.643 213.416 122.729C212.935 120.285 212.468 117.849 212.036 115.395C211.681 113.368 211.272 111.337 210.49 109.423C209.637 107.333 208.378 105.463 206.756 103.89C205.902 103.063 204.999 102.282 204.113 101.495C203.143 100.637 202.145 99.7963 201.062 99.0863C200.096 98.4481 199.04 97.9223 197.903 97.6752C196.721 97.4145 195.498 97.3606 194.289 97.3606C193.076 97.3606 191.863 97.428 190.649 97.455C189.494 97.4819 188.339 97.446 187.18 97.4774C182.515 97.5943 177.662 98.3133 173.631 100.812C171.559 102.093 169.914 103.868 168.229 105.603C166.476 107.409 164.683 109.324 163.515 111.575C162.427 113.665 161.969 116.024 161.663 118.343C161.339 120.783 161.232 123.242 161.065 125.695C160.881 128.405 160.522 131.097 160.229 133.794C159.901 136.813 159.591 139.833 159.299 142.858C158.706 148.92 158.171 154.987 157.636 161.054C157.515 162.461 157.349 163.872 157.295 165.288C157.281 165.652 157.614 165.962 157.969 165.962H215.061C215.834 165.962 216.607 165.98 217.38 165.962C217.411 165.962 217.447 165.962 217.479 165.962C217.708 165.962 217.95 165.836 218.063 165.629C219.433 163.018 219.788 159.94 219.182 157.063C219.002 156.214 217.703 156.574 217.883 157.423C218.413 159.931 218.094 162.672 216.903 164.95L217.488 164.618H160.396C159.627 164.618 158.845 164.582 158.077 164.618C158.045 164.618 158.009 164.618 157.978 164.618L158.652 165.292C158.706 163.836 158.877 162.38 159.003 160.928C159.128 159.477 159.263 157.962 159.394 156.484C159.659 153.495 159.928 150.511 160.207 147.527C160.764 141.573 161.362 135.623 162.045 129.677C162.319 127.295 162.463 124.909 162.625 122.518C162.787 120.141 162.989 117.75 163.559 115.431C163.811 114.411 164.126 113.391 164.593 112.442C165.123 111.377 165.815 110.393 166.566 109.472C168.103 107.58 169.851 105.836 171.59 104.124C174.889 100.87 179.423 99.4728 183.94 99.0234C186.214 98.7987 188.479 98.8616 190.753 98.8077C193.054 98.7492 195.476 98.4751 197.736 99.0234C200.01 99.5761 201.884 101.297 203.574 102.821C205.264 104.34 206.972 105.809 208.167 107.769C210.351 111.341 210.661 115.651 211.43 119.669C211.973 122.5 212.567 125.318 213.052 128.163C213.537 131.007 213.987 134 214.355 136.935C214.724 139.847 214.926 142.786 215.339 145.694C215.712 148.336 216.337 150.929 216.971 153.518C217.285 154.816 217.6 156.12 217.883 157.427C218.067 158.277 219.366 157.917 219.182 157.068V157.054Z" fill="white"/>
<mask id="mask0_2144_29621" style="mask-type:luminance" maskUnits="userSpaceOnUse" x="157" y="98" width="62" height="68">
<path d="M218.53 157.234C217.506 152.498 216.216 148.48 215.748 143.492C215.025 135.776 213.865 128.1 212.279 120.514C210.886 113.84 211.084 108.596 205.668 103.805C203.678 102.044 201.017 99.3561 198.447 98.5157C195.952 97.7023 192.213 98.1652 189.589 98.1338C182.933 98.0484 175.797 98.8213 170.88 103.868C168.593 106.214 165.267 109.342 163.883 112.362C161.793 116.905 162.063 123.673 161.492 128.603C160.827 134.324 160.239 140.058 159.695 145.793C159.115 151.896 158.58 158.003 158.05 164.106C158.018 164.474 157.992 164.87 157.978 165.288H217.488C218.773 162.865 219.101 159.85 218.539 157.239L218.53 157.234Z" fill="white"/>
</mask>
<g mask="url(#mask0_2144_29621)">
<mask id="mask1_2144_29621" style="mask-type:luminance" maskUnits="userSpaceOnUse" x="205" y="82" width="37" height="37">
<path d="M241.791 82.0225H205.606V118.208H241.791V82.0225Z" fill="white"/>
</mask>
<g mask="url(#mask1_2144_29621)">
<path d="M241.922 114.887H205.484V115.489H241.922V114.887Z" fill="#B09271"/>
<path d="M241.922 102.825H205.484V103.427H241.922V102.825Z" fill="#B09271"/>
<path d="M241.922 108.856H205.484V109.458H241.922V108.856Z" fill="#B09271"/>
<path d="M205.735 114.887H169.298V115.489H205.735V114.887Z" fill="#B09271"/>
<path d="M205.735 102.825H169.298V103.427H205.735V102.825Z" fill="#B09271"/>
<path d="M205.735 108.856H169.298V109.458H205.735V108.856Z" fill="#B09271"/>
</g>
<mask id="mask2_2144_29621" style="mask-type:luminance" maskUnits="userSpaceOnUse" x="205" y="118" width="37" height="37">
<path d="M241.791 118.208H205.606V154.394H241.791V118.208Z" fill="white"/>
</mask>
<g mask="url(#mask2_2144_29621)">
<path d="M241.922 151.073H205.484V151.676H241.922V151.073Z" fill="#B09271"/>
<path d="M241.922 139.011H205.484V139.613H241.922V139.011Z" fill="#B09271"/>
<path d="M241.922 126.949H205.484V127.552H241.922V126.949Z" fill="#B09271"/>
<path d="M241.922 145.042H205.484V145.644H241.922V145.042Z" fill="#B09271"/>
<path d="M241.922 132.98H205.484V133.583H241.922V132.98Z" fill="#B09271"/>
<path d="M241.921 120.918H205.484V121.52H241.921V120.918Z" fill="#B09271"/>
<path d="M205.735 151.073H169.298V151.675H205.735V151.073Z" fill="#B09271"/>
<path d="M205.735 139.011H169.298V139.613H205.735V139.011Z" fill="#B09271"/>
<path d="M205.735 126.949H169.298V127.551H205.735V126.949Z" fill="#B09271"/>
<path d="M205.735 145.042H169.298V145.644H205.735V145.042Z" fill="#B09271"/>
<path d="M205.735 132.98H169.298V133.582H205.735V132.98Z" fill="#B09271"/>
<path d="M205.736 120.918H169.298V121.52H205.736V120.918Z" fill="#B09271"/>
</g>
<mask id="mask3_2144_29621" style="mask-type:luminance" maskUnits="userSpaceOnUse" x="205" y="154" width="37" height="37">
<path d="M241.791 154.389H205.606V190.575H241.791V154.389Z" fill="white"/>
</mask>
<g mask="url(#mask3_2144_29621)">
<path d="M241.922 163.135H205.484V163.737H241.922V163.135Z" fill="#B09271"/>
<path d="M241.921 157.104H205.484V157.706H241.921V157.104Z" fill="#B09271"/>
<path d="M205.735 163.135H169.298V163.737H205.735V163.135Z" fill="#B09271"/>
<path d="M205.736 157.104H169.298V157.706H205.736V157.104Z" fill="#B09271"/>
</g>
<mask id="mask4_2144_29621" style="mask-type:luminance" maskUnits="userSpaceOnUse" x="169" y="82" width="37" height="37">
<path d="M205.61 82.0225H169.424V118.208H205.61V82.0225Z" fill="white"/>
</mask>
<g mask="url(#mask4_2144_29621)">
<path d="M241.922 114.887H205.484V115.489H241.922V114.887Z" fill="#B09271"/>
<path d="M241.922 102.825H205.484V103.427H241.922V102.825Z" fill="#B09271"/>
<path d="M241.922 108.856H205.484V109.458H241.922V108.856Z" fill="#B09271"/>
<path d="M205.735 114.887H169.298V115.489H205.735V114.887Z" fill="#B09271"/>
<path d="M205.735 102.825H169.298V103.427H205.735V102.825Z" fill="#B09271"/>
<path d="M205.735 108.856H169.298V109.458H205.735V108.856Z" fill="#B09271"/>
<path d="M169.55 114.887H133.113V115.489H169.55V114.887Z" fill="#B09271"/>
<path d="M169.55 102.825H133.113V103.427H169.55V102.825Z" fill="#B09271"/>
<path d="M169.55 108.856H133.113V109.458H169.55V108.856Z" fill="#B09271"/>
</g>
<mask id="mask5_2144_29621" style="mask-type:luminance" maskUnits="userSpaceOnUse" x="169" y="118" width="37" height="37">
<path d="M205.61 118.208H169.424V154.394H205.61V118.208Z" fill="white"/>
</mask>
<g mask="url(#mask5_2144_29621)">
<path d="M241.922 151.073H205.484V151.676H241.922V151.073Z" fill="#B09271"/>
<path d="M241.922 139.011H205.484V139.613H241.922V139.011Z" fill="#B09271"/>
<path d="M241.922 126.949H205.484V127.552H241.922V126.949Z" fill="#B09271"/>
<path d="M241.922 145.042H205.484V145.644H241.922V145.042Z" fill="#B09271"/>
<path d="M241.922 132.98H205.484V133.583H241.922V132.98Z" fill="#B09271"/>
<path d="M241.922 120.918H205.484V121.52H241.922V120.918Z" fill="#B09271"/>
<path d="M205.735 151.073H169.298V151.676H205.735V151.073Z" fill="#B09271"/>
<path d="M205.735 139.011H169.298V139.613H205.735V139.011Z" fill="#B09271"/>
<path d="M205.735 126.949H169.298V127.552H205.735V126.949Z" fill="#B09271"/>
<path d="M205.735 145.042H169.298V145.644H205.735V145.042Z" fill="#B09271"/>
<path d="M205.735 132.98H169.298V133.583H205.735V132.98Z" fill="#B09271"/>
<path d="M205.736 120.918H169.298V121.52H205.736V120.918Z" fill="#B09271"/>
<path d="M169.55 151.073H133.113V151.675H169.55V151.073Z" fill="#B09271"/>
<path d="M169.55 139.011H133.113V139.613H169.55V139.011Z" fill="#B09271"/>
<path d="M169.55 126.949H133.113V127.551H169.55V126.949Z" fill="#B09271"/>
<path d="M169.55 145.042H133.113V145.644H169.55V145.042Z" fill="#B09271"/>
<path d="M169.55 132.98H133.113V133.582H169.55V132.98Z" fill="#B09271"/>
<path d="M169.55 120.918H133.113V121.52H169.55V120.918Z" fill="#B09271"/>
</g>
<mask id="mask6_2144_29621" style="mask-type:luminance" maskUnits="userSpaceOnUse" x="169" y="154" width="37" height="37">
<path d="M205.61 154.389H169.424V190.575H205.61V154.389Z" fill="white"/>
</mask>
<g mask="url(#mask6_2144_29621)">
<path d="M241.922 163.135H205.484V163.737H241.922V163.135Z" fill="#B09271"/>
<path d="M241.922 157.104H205.484V157.706H241.922V157.104Z" fill="#B09271"/>
<path d="M205.735 163.135H169.298V163.737H205.735V163.135Z" fill="#B09271"/>
<path d="M205.736 157.104H169.298V157.706H205.736V157.104Z" fill="#B09271"/>
<path d="M169.55 163.135H133.113V163.737H169.55V163.135Z" fill="#B09271"/>
<path d="M169.55 157.104H133.113V157.706H169.55V157.104Z" fill="#B09271"/>
</g>
<mask id="mask7_2144_29621" style="mask-type:luminance" maskUnits="userSpaceOnUse" x="133" y="82" width="37" height="37">
<path d="M169.424 82.0226H133.239V118.208H169.424V82.0226Z" fill="white"/>
</mask>
<g mask="url(#mask7_2144_29621)">
<path d="M205.735 114.887H169.297V115.489H205.735V114.887Z" fill="#B09271"/>
<path d="M205.735 102.825H169.297V103.427H205.735V102.825Z" fill="#B09271"/>
<path d="M205.735 108.856H169.297V109.458H205.735V108.856Z" fill="#B09271"/>
<path d="M169.55 114.887H133.113V115.489H169.55V114.887Z" fill="#B09271"/>
<path d="M169.55 102.825H133.113V103.427H169.55V102.825Z" fill="#B09271"/>
<path d="M169.55 108.856H133.113V109.458H169.55V108.856Z" fill="#B09271"/>
</g>
<mask id="mask8_2144_29621" style="mask-type:luminance" maskUnits="userSpaceOnUse" x="133" y="118" width="37" height="37">
<path d="M169.424 118.208H133.239V154.394H169.424V118.208Z" fill="white"/>
</mask>
<g mask="url(#mask8_2144_29621)">
<path d="M205.735 151.073H169.297V151.676H205.735V151.073Z" fill="#B09271"/>
<path d="M205.735 139.011H169.297V139.613H205.735V139.011Z" fill="#B09271"/>
<path d="M205.735 126.949H169.297V127.552H205.735V126.949Z" fill="#B09271"/>
<path d="M205.735 145.042H169.297V145.644H205.735V145.042Z" fill="#B09271"/>
<path d="M205.735 132.98H169.297V133.583H205.735V132.98Z" fill="#B09271"/>
<path d="M205.735 120.918H169.297V121.52H205.735V120.918Z" fill="#B09271"/>
<path d="M169.55 151.073H133.113V151.676H169.55V151.073Z" fill="#B09271"/>
<path d="M169.55 139.011H133.113V139.613H169.55V139.011Z" fill="#B09271"/>
<path d="M169.55 126.949H133.113V127.552H169.55V126.949Z" fill="#B09271"/>
<path d="M169.55 145.042H133.113V145.644H169.55V145.042Z" fill="#B09271"/>
<path d="M169.55 132.98H133.113V133.583H169.55V132.98Z" fill="#B09271"/>
<path d="M169.55 120.918H133.113V121.52H169.55V120.918Z" fill="#B09271"/>
</g>
<mask id="mask9_2144_29621" style="mask-type:luminance" maskUnits="userSpaceOnUse" x="133" y="154" width="37" height="37">
<path d="M169.424 154.389H133.239V190.575H169.424V154.389Z" fill="white"/>
</mask>
<g mask="url(#mask9_2144_29621)">
<path d="M205.735 163.135H169.297V163.737H205.735V163.135Z" fill="#B09271"/>
<path d="M205.735 157.104H169.297V157.706H205.735V157.104Z" fill="#B09271"/>
<path d="M169.55 163.135H133.113V163.737H169.55V163.135Z" fill="#B09271"/>
<path d="M169.55 157.104H133.113V157.706H169.55V157.104Z" fill="#B09271"/>
</g>
</g>
<mask id="mask10_2144_29621" style="mask-type:luminance" maskUnits="userSpaceOnUse" x="157" y="97" width="63" height="69">
<path d="M219.182 157.054C218.602 154.381 217.888 151.743 217.312 149.069C217.025 147.725 216.773 146.372 216.593 145.011C216.4 143.546 216.288 142.071 216.13 140.602C215.483 134.611 214.58 128.643 213.416 122.729C212.935 120.285 212.468 117.849 212.036 115.395C211.681 113.368 211.272 111.337 210.49 109.423C209.637 107.333 208.378 105.463 206.756 103.89C205.902 103.063 204.999 102.282 204.113 101.495C203.143 100.637 202.145 99.7963 201.062 99.0863C200.096 98.4481 199.04 97.9223 197.903 97.6752C196.766 97.428 195.498 97.3606 194.289 97.3606C193.081 97.3606 191.863 97.428 190.649 97.455C189.436 97.4819 188.339 97.446 187.18 97.4774C182.515 97.5943 177.662 98.3133 173.631 100.812C171.559 102.093 169.914 103.868 168.229 105.603C166.543 107.337 164.683 109.324 163.515 111.575C162.427 113.665 161.969 116.024 161.663 118.343C161.339 120.783 161.232 123.242 161.065 125.695C160.881 128.405 160.522 131.097 160.229 133.794C159.901 136.813 159.591 139.833 159.299 142.858C158.706 148.92 158.171 154.987 157.636 161.054C157.515 162.461 157.349 163.872 157.295 165.288C157.281 165.652 157.614 165.962 157.969 165.962H215.061C215.834 165.962 216.607 165.98 217.38 165.962C217.411 165.962 217.447 165.962 217.479 165.962C217.708 165.962 217.95 165.836 218.063 165.629C219.433 163.018 219.788 159.94 219.182 157.063C219.002 156.214 217.703 156.574 217.883 157.423C218.413 159.931 218.094 162.672 216.903 164.95L217.488 164.618H160.396C159.627 164.618 158.845 164.582 158.077 164.618C158.045 164.618 158.009 164.618 157.978 164.618L158.652 165.292C158.706 163.836 158.877 162.38 159.003 160.928C159.128 159.477 159.263 157.962 159.394 156.484C159.659 153.495 159.928 150.511 160.207 147.527C160.764 141.573 161.362 135.623 162.045 129.677C162.319 127.295 162.463 124.909 162.625 122.518C162.787 120.127 162.989 117.75 163.559 115.431C163.811 114.411 164.126 113.391 164.593 112.442C165.123 111.377 165.815 110.393 166.566 109.472C168.103 107.58 169.851 105.836 171.59 104.124C174.889 100.87 179.423 99.4728 183.94 99.0234C186.214 98.7987 188.479 98.8616 190.753 98.8077C193.054 98.7492 195.476 98.4751 197.736 99.0234C199.997 99.5716 201.884 101.297 203.574 102.821C205.264 104.344 206.972 105.809 208.167 107.769C210.351 111.341 210.661 115.651 211.43 119.669C211.973 122.5 212.567 125.318 213.052 128.163C213.551 131.075 213.987 134 214.355 136.935C214.724 139.847 214.926 142.786 215.339 145.694C215.712 148.336 216.337 150.929 216.971 153.518C217.285 154.816 217.6 156.12 217.883 157.427C218.067 158.277 219.366 157.917 219.182 157.068V157.054Z" fill="white"/>
</mask>
<g mask="url(#mask10_2144_29621)">
<mask id="mask11_2144_29621" style="mask-type:luminance" maskUnits="userSpaceOnUse" x="205" y="82" width="37" height="37">
<path d="M241.791 82.0227H205.605V118.208H241.791V82.0227Z" fill="white"/>
</mask>
<g mask="url(#mask11_2144_29621)">
<path d="M241.921 114.887H205.484V115.489H241.921V114.887Z" fill="#B09271"/>
<path d="M241.921 102.825H205.484V103.427H241.921V102.825Z" fill="#B09271"/>
<path d="M241.921 108.856H205.484V109.458H241.921V108.856Z" fill="#B09271"/>
<path d="M241.921 96.7941H205.484V97.3963H241.921V96.7941Z" fill="#B09271"/>
<path d="M205.735 114.887H169.298V115.489H205.735V114.887Z" fill="#B09271"/>
<path d="M205.735 102.825H169.298V103.427H205.735V102.825Z" fill="#B09271"/>
<path d="M205.735 108.856H169.298V109.458H205.735V108.856Z" fill="#B09271"/>
<path d="M205.735 96.7942H169.298V97.3964H205.735V96.7942Z" fill="#B09271"/>
</g>
<mask id="mask12_2144_29621" style="mask-type:luminance" maskUnits="userSpaceOnUse" x="205" y="118" width="37" height="37">
<path d="M241.791 118.208H205.605V154.394H241.791V118.208Z" fill="white"/>
</mask>
<g mask="url(#mask12_2144_29621)">
<path d="M241.921 151.073H205.484V151.676H241.921V151.073Z" fill="#B09271"/>
<path d="M241.921 139.011H205.484V139.614H241.921V139.011Z" fill="#B09271"/>
<path d="M241.921 126.949H205.484V127.552H241.921V126.949Z" fill="#B09271"/>
<path d="M241.921 145.042H205.484V145.644H241.921V145.042Z" fill="#B09271"/>
<path d="M241.921 132.98H205.484V133.583H241.921V132.98Z" fill="#B09271"/>
<path d="M241.921 120.918H205.484V121.521H241.921V120.918Z" fill="#B09271"/>
<path d="M205.735 151.073H169.298V151.675H205.735V151.073Z" fill="#B09271"/>
<path d="M205.735 139.011H169.298V139.614H205.735V139.011Z" fill="#B09271"/>
<path d="M205.735 126.949H169.298V127.551H205.735V126.949Z" fill="#B09271"/>
<path d="M205.735 145.042H169.298V145.644H205.735V145.042Z" fill="#B09271"/>
<path d="M205.735 132.98H169.298V133.582H205.735V132.98Z" fill="#B09271"/>
<path d="M205.735 120.918H169.298V121.521H205.735V120.918Z" fill="#B09271"/>
</g>
<mask id="mask13_2144_29621" style="mask-type:luminance" maskUnits="userSpaceOnUse" x="205" y="154" width="37" height="37">
<path d="M241.791 154.39H205.605V190.575H241.791V154.39Z" fill="white"/>
</mask>
<g mask="url(#mask13_2144_29621)">
<path d="M241.921 163.135H205.484V163.737H241.921V163.135Z" fill="#B09271"/>
<path d="M241.921 157.104H205.484V157.706H241.921V157.104Z" fill="#B09271"/>
<path d="M205.735 163.135H169.298V163.737H205.735V163.135Z" fill="#B09271"/>
<path d="M205.735 157.104H169.298V157.706H205.735V157.104Z" fill="#B09271"/>
</g>
<mask id="mask14_2144_29621" style="mask-type:luminance" maskUnits="userSpaceOnUse" x="169" y="82" width="37" height="37">
<path d="M205.61 82.0227H169.424V118.208H205.61V82.0227Z" fill="white"/>
</mask>
<g mask="url(#mask14_2144_29621)">
<path d="M241.922 114.887H205.484V115.489H241.922V114.887Z" fill="#B09271"/>
<path d="M241.922 102.825H205.484V103.427H241.922V102.825Z" fill="#B09271"/>
<path d="M241.922 108.856H205.484V109.458H241.922V108.856Z" fill="#B09271"/>
<path d="M241.922 96.7941H205.484V97.3963H241.922V96.7941Z" fill="#B09271"/>
<path d="M205.735 114.887H169.298V115.489H205.735V114.887Z" fill="#B09271"/>
<path d="M205.735 102.825H169.298V103.427H205.735V102.825Z" fill="#B09271"/>
<path d="M205.735 108.856H169.298V109.458H205.735V108.856Z" fill="#B09271"/>
<path d="M205.735 96.7941H169.298V97.3963H205.735V96.7941Z" fill="#B09271"/>
<path d="M169.55 114.887H133.112V115.489H169.55V114.887Z" fill="#B09271"/>
<path d="M169.55 102.825H133.112V103.427H169.55V102.825Z" fill="#B09271"/>
<path d="M169.55 108.856H133.112V109.458H169.55V108.856Z" fill="#B09271"/>
<path d="M169.55 96.7942H133.112V97.3964H169.55V96.7942Z" fill="#B09271"/>
</g>
<mask id="mask15_2144_29621" style="mask-type:luminance" maskUnits="userSpaceOnUse" x="169" y="118" width="37" height="37">
<path d="M205.61 118.208H169.424V154.394H205.61V118.208Z" fill="white"/>
</mask>
<g mask="url(#mask15_2144_29621)">
<path d="M241.922 151.073H205.484V151.676H241.922V151.073Z" fill="#B09271"/>
<path d="M241.922 139.011H205.484V139.614H241.922V139.011Z" fill="#B09271"/>
<path d="M241.922 126.949H205.484V127.552H241.922V126.949Z" fill="#B09271"/>
<path d="M241.922 145.042H205.484V145.644H241.922V145.042Z" fill="#B09271"/>
<path d="M241.922 132.98H205.484V133.583H241.922V132.98Z" fill="#B09271"/>
<path d="M241.921 120.918H205.484V121.521H241.921V120.918Z" fill="#B09271"/>
<path d="M205.735 151.073H169.298V151.676H205.735V151.073Z" fill="#B09271"/>
<path d="M205.735 139.011H169.298V139.614H205.735V139.011Z" fill="#B09271"/>
<path d="M205.735 126.949H169.298V127.552H205.735V126.949Z" fill="#B09271"/>
<path d="M205.735 145.042H169.298V145.644H205.735V145.042Z" fill="#B09271"/>
<path d="M205.735 132.98H169.298V133.583H205.735V132.98Z" fill="#B09271"/>
<path d="M205.735 120.918H169.298V121.521H205.735V120.918Z" fill="#B09271"/>
<path d="M169.55 151.073H133.112V151.675H169.55V151.073Z" fill="#B09271"/>
<path d="M169.55 139.011H133.112V139.614H169.55V139.011Z" fill="#B09271"/>
<path d="M169.55 126.949H133.112V127.551H169.55V126.949Z" fill="#B09271"/>
<path d="M169.55 145.042H133.112V145.644H169.55V145.042Z" fill="#B09271"/>
<path d="M169.55 132.98H133.112V133.582H169.55V132.98Z" fill="#B09271"/>
<path d="M169.55 120.918H133.112V121.521H169.55V120.918Z" fill="#B09271"/>
</g>
<mask id="mask16_2144_29621" style="mask-type:luminance" maskUnits="userSpaceOnUse" x="169" y="154" width="37" height="37">
<path d="M205.61 154.39H169.424V190.575H205.61V154.39Z" fill="white"/>
</mask>
<g mask="url(#mask16_2144_29621)">
<path d="M241.922 163.135H205.484V163.737H241.922V163.135Z" fill="#B09271"/>
<path d="M241.921 157.104H205.484V157.706H241.921V157.104Z" fill="#B09271"/>
<path d="M205.735 163.135H169.298V163.737H205.735V163.135Z" fill="#B09271"/>
<path d="M205.735 157.104H169.298V157.706H205.735V157.104Z" fill="#B09271"/>
<path d="M169.55 163.135H133.112V163.737H169.55V163.135Z" fill="#B09271"/>
<path d="M169.55 157.104H133.112V157.706H169.55V157.104Z" fill="#B09271"/>
</g>
<mask id="mask17_2144_29621" style="mask-type:luminance" maskUnits="userSpaceOnUse" x="133" y="82" width="37" height="37">
<path d="M169.424 82.0228H133.238V118.209H169.424V82.0228Z" fill="white"/>
</mask>
<g mask="url(#mask17_2144_29621)">
<path d="M205.734 114.887H169.297V115.489H205.734V114.887Z" fill="#B09271"/>
<path d="M205.734 102.825H169.297V103.427H205.734V102.825Z" fill="#B09271"/>
<path d="M205.734 108.856H169.297V109.458H205.734V108.856Z" fill="#B09271"/>
<path d="M205.734 96.7942H169.297V97.3964H205.734V96.7942Z" fill="#B09271"/>
<path d="M169.55 114.887H133.112V115.489H169.55V114.887Z" fill="#B09271"/>
<path d="M169.55 102.825H133.112V103.427H169.55V102.825Z" fill="#B09271"/>
<path d="M169.55 108.856H133.112V109.458H169.55V108.856Z" fill="#B09271"/>
<path d="M169.55 96.7942H133.112V97.3964H169.55V96.7942Z" fill="#B09271"/>
</g>
<mask id="mask18_2144_29621" style="mask-type:luminance" maskUnits="userSpaceOnUse" x="133" y="118" width="37" height="37">
<path d="M169.424 118.208H133.238V154.394H169.424V118.208Z" fill="white"/>
</mask>
<g mask="url(#mask18_2144_29621)">
<path d="M205.734 151.073H169.297V151.676H205.734V151.073Z" fill="#B09271"/>
<path d="M205.734 139.011H169.297V139.614H205.734V139.011Z" fill="#B09271"/>
<path d="M205.734 126.949H169.297V127.552H205.734V126.949Z" fill="#B09271"/>
<path d="M205.734 145.042H169.297V145.644H205.734V145.042Z" fill="#B09271"/>
<path d="M205.734 132.98H169.297V133.583H205.734V132.98Z" fill="#B09271"/>
<path d="M205.735 120.918H169.297V121.521H205.735V120.918Z" fill="#B09271"/>
<path d="M169.55 151.073H133.112V151.676H169.55V151.073Z" fill="#B09271"/>
<path d="M169.55 139.011H133.112V139.614H169.55V139.011Z" fill="#B09271"/>
<path d="M169.55 126.949H133.112V127.552H169.55V126.949Z" fill="#B09271"/>
<path d="M169.55 145.042H133.112V145.644H169.55V145.042Z" fill="#B09271"/>
<path d="M169.55 132.98H133.112V133.583H169.55V132.98Z" fill="#B09271"/>
<path d="M169.55 120.918H133.112V121.521H169.55V120.918Z" fill="#B09271"/>
</g>
<mask id="mask19_2144_29621" style="mask-type:luminance" maskUnits="userSpaceOnUse" x="133" y="154" width="37" height="37">
<path d="M169.424 154.39H133.238V190.575H169.424V154.39Z" fill="white"/>
</mask>
<g mask="url(#mask19_2144_29621)">
<path d="M205.734 163.135H169.297V163.737H205.734V163.135Z" fill="#B09271"/>
<path d="M205.735 157.104H169.297V157.706H205.735V157.104Z" fill="#B09271"/>
<path d="M169.55 163.135H133.112V163.737H169.55V163.135Z" fill="#B09271"/>
<path d="M169.55 157.104H133.112V157.706H169.55V157.104Z" fill="#B09271"/>
</g>
</g>
<path d="M174.004 139.361C174.53 129.227 173.923 118.676 175.734 108.717C176.129 106.542 178.228 100.61 174.988 100.358C172.75 100.187 168.97 103.297 167.344 104.636C162.984 108.231 160.288 113.296 159.43 118.86C158.225 126.643 159.524 134.521 158.162 142.206C156.796 149.9 155.426 157.589 154.059 165.283H172.256C172.876 157.818 173.397 150.349 173.815 142.871C173.882 141.703 173.945 140.534 174.004 139.366V139.361Z" fill="#33578C"/>
<path d="M174.678 139.362C174.898 135.088 174.921 130.805 175.002 126.531C175.082 122.248 175.226 117.961 175.689 113.701C175.882 111.917 176.098 110.11 176.494 108.362C176.745 107.256 177.042 106.16 177.231 105.036C177.419 103.913 177.59 102.646 177.258 101.522C176.92 100.39 175.995 99.6841 174.808 99.6796C173.429 99.6796 172.076 100.43 170.934 101.136C169.681 101.913 168.508 102.821 167.366 103.751C164.724 105.904 162.54 108.501 161.025 111.566C160.243 113.148 159.632 114.811 159.21 116.523C158.72 118.509 158.486 120.554 158.347 122.595C158.05 126.936 158.27 131.286 158.118 135.627C158.041 137.793 157.87 139.955 157.493 142.094C157.115 144.233 156.715 146.471 156.324 148.66C155.542 153.059 154.761 157.455 153.979 161.854C153.785 162.937 153.592 164.02 153.399 165.103C153.322 165.526 153.579 165.957 154.05 165.957H172.247C172.633 165.957 172.889 165.647 172.921 165.283C173.483 158.529 173.963 151.765 174.359 144.997C174.467 143.119 174.57 141.24 174.669 139.366C174.714 138.499 173.366 138.503 173.321 139.366C172.97 146.103 172.539 152.83 172.031 159.558C171.887 161.468 171.734 163.378 171.577 165.288L172.251 164.613H154.055L154.707 165.467C155.475 161.153 156.239 156.839 157.008 152.525C157.39 150.376 157.772 148.233 158.154 146.085C158.535 143.937 158.962 141.811 159.196 139.649C159.659 135.393 159.488 131.111 159.542 126.841C159.592 122.909 159.78 118.891 161.016 115.125C162.063 111.939 163.829 108.996 166.189 106.609C167.168 105.616 168.292 104.699 169.375 103.868C170.534 102.978 171.752 102.115 173.083 101.504C173.339 101.387 173.595 101.284 173.896 101.194C174.031 101.154 174.17 101.118 174.309 101.086C174.377 101.073 174.44 101.059 174.507 101.05C174.588 101.037 174.507 101.05 174.489 101.05C174.53 101.046 174.575 101.041 174.615 101.041C174.75 101.032 174.88 101.037 175.011 101.041C175.091 101.046 174.993 101.037 174.979 101.037C175.006 101.037 175.037 101.046 175.064 101.05C175.127 101.064 175.19 101.077 175.253 101.095C175.303 101.109 175.352 101.127 175.402 101.149C175.294 101.109 175.37 101.136 175.424 101.167C175.464 101.194 175.509 101.217 175.55 101.243C175.64 101.297 175.482 101.167 175.581 101.27C175.613 101.306 175.649 101.338 175.685 101.374C175.779 101.459 175.685 101.36 175.703 101.387C175.766 101.477 175.815 101.567 175.864 101.661C175.878 101.693 175.891 101.724 175.905 101.751C175.905 101.747 175.86 101.639 175.887 101.711C175.905 101.76 175.923 101.81 175.936 101.859C175.972 101.972 175.999 102.088 176.022 102.205C176.031 102.264 176.04 102.318 176.049 102.376C176.031 102.255 176.049 102.38 176.049 102.43C176.058 102.565 176.067 102.695 176.071 102.83C176.076 103.104 176.067 103.378 176.044 103.648C176.017 103.971 175.99 104.201 175.954 104.434C175.909 104.726 175.855 105.018 175.797 105.311C175.685 105.881 175.55 106.443 175.415 107.009C175.082 108.375 174.844 109.751 174.647 111.144C174.058 115.314 173.82 119.521 173.703 123.727C173.586 127.915 173.577 132.104 173.442 136.288C173.411 137.312 173.366 138.337 173.316 139.366C173.271 140.233 174.62 140.229 174.664 139.366L174.678 139.362Z" fill="#33578C"/>
<path d="M217.155 131.106C216.193 121.893 216.593 110.447 209.578 103.437C209.169 103.028 208.747 102.637 208.311 102.264C204.644 99.1178 200.001 97.1314 195.256 96.5292C193.737 96.336 189.427 94.7092 188.299 96.354C187.225 97.9269 188.569 101.603 188.623 103.392C188.744 107.306 189.126 111.288 189.162 115.242C189.243 123.664 187.823 131.609 186.708 139.896C185.589 148.206 185.76 156.902 185.302 165.279H219.362C220.049 153.913 218.337 142.462 217.151 131.102L217.155 131.106Z" fill="#33578C"/>
<path d="M217.829 131.106C217.461 127.556 217.299 123.988 216.895 120.446C216.486 116.851 215.861 113.229 214.495 109.859C213.834 108.223 213.016 106.654 211.978 105.225C210.805 103.612 209.39 102.214 207.812 100.996C204.5 98.4348 200.537 96.7136 196.407 96.026C196.159 95.9856 195.912 95.9451 195.661 95.9137C195.526 95.8957 195.386 95.8777 195.252 95.8597C195.413 95.8822 195.252 95.8597 195.184 95.8463C194.906 95.7968 194.627 95.7294 194.353 95.662C193.661 95.4957 192.969 95.3205 192.268 95.1856C190.946 94.934 189.194 94.6464 188.075 95.6036C186.884 96.6237 187.171 98.6191 187.383 99.9763C187.508 100.776 187.684 101.567 187.823 102.367C187.962 103.167 187.967 104.043 188.007 104.933C188.227 109.724 188.623 114.487 188.421 119.287C188.218 124.087 187.612 128.688 186.956 133.358C186.619 135.735 186.264 138.108 185.963 140.485C185.661 142.863 185.468 145.195 185.324 147.554C185.037 152.313 184.974 157.082 184.79 161.845C184.745 162.991 184.695 164.137 184.632 165.283C184.614 165.647 184.956 165.957 185.306 165.957H215.16C216.54 165.957 217.928 166.007 219.308 165.957C219.326 165.957 219.348 165.957 219.366 165.957C219.748 165.957 220.018 165.647 220.041 165.283C220.571 156.349 219.645 147.424 218.652 138.557C218.373 136.077 218.09 133.591 217.829 131.111C217.794 130.747 217.546 130.437 217.155 130.437C216.818 130.437 216.445 130.747 216.481 131.111C217.412 140.004 218.656 148.885 218.827 157.832C218.877 160.317 218.836 162.802 218.692 165.283L219.366 164.609H186.686C186.25 164.609 185.796 164.573 185.365 164.609C185.347 164.609 185.324 164.609 185.306 164.609L185.98 165.283C186.232 160.645 186.295 156.003 186.484 151.361C186.578 149.028 186.704 146.696 186.902 144.368C187.099 142.04 187.392 139.816 187.711 137.546C188.358 132.949 189.054 128.36 189.468 123.736C189.675 121.408 189.809 119.071 189.836 116.734C189.863 114.389 189.755 112.052 189.621 109.71C189.553 108.519 189.477 107.333 189.414 106.142C189.36 105.108 189.373 104.061 189.27 103.032C189.113 101.5 188.636 100.017 188.565 98.4753C188.556 98.291 188.551 98.1023 188.56 97.918C188.565 97.7517 188.583 97.5585 188.6 97.4641C188.663 97.1271 188.704 96.9608 188.879 96.7046C188.794 96.826 189.086 96.5204 188.964 96.6147C189.014 96.5788 189.063 96.5473 189.113 96.5204C189.149 96.4979 189.185 96.4844 189.221 96.4664C189.158 96.4979 189.18 96.4799 189.23 96.4664C189.549 96.3541 189.702 96.3361 189.989 96.3226C191.355 96.2597 192.695 96.6642 194.029 96.9833C194.699 97.145 195.368 97.2259 196.047 97.3383C197.04 97.5046 198.024 97.7293 198.991 98.0124C200.937 98.5831 202.802 99.3875 204.55 100.417C207.785 102.327 210.527 104.956 212.288 108.295C213.911 111.36 214.729 114.788 215.245 118.199C215.771 121.669 215.964 125.174 216.252 128.67C216.32 129.488 216.391 130.306 216.477 131.124C216.513 131.488 216.76 131.798 217.151 131.798C217.488 131.798 217.861 131.488 217.825 131.124L217.829 131.106Z" fill="#33578C"/>
<path d="M176.39 99.2843C175.972 98.9787 175.428 99.4551 175.176 99.9045C173.617 102.7 174.363 106.506 176.718 108.668C179.077 110.829 182.771 111.292 185.688 109.976C186.641 112.268 187.84 114.519 189.656 116.218C191.472 117.916 193.993 118.995 196.446 118.609C196.766 118.559 197.121 118.456 197.264 118.164C197.359 117.975 197.336 117.75 197.314 117.543C197.062 115.395 196.761 113.193 195.7 111.31C194.635 109.427 192.627 107.922 190.469 108.093C192.456 107.585 194.483 107.059 196.195 105.926C197.907 104.794 199.269 102.924 199.233 100.875C199.233 100.624 199.201 100.358 199.053 100.156C198.927 99.9764 198.725 99.864 198.523 99.7697C197.049 99.1001 195.283 99.3338 193.831 100.048C192.379 100.763 191.188 101.913 190.096 103.109C191.35 100.947 190.564 97.9676 188.645 96.3677C186.726 94.7678 183.949 94.4533 181.549 95.1453C179.149 95.8374 177.095 97.4283 175.415 99.2753" fill="#EF7B89"/>
<path d="M176.731 98.7C175.896 98.1742 174.988 98.8618 174.579 99.5943C174.224 100.232 173.972 100.938 173.833 101.653C173.559 103.086 173.675 104.596 174.174 105.971C174.673 107.346 175.558 108.645 176.754 109.571C177.972 110.515 179.423 111.085 180.942 111.292C182.681 111.526 184.425 111.265 186.025 110.555L185.036 110.151C185.863 112.133 186.838 114.056 188.236 115.701C189.584 117.287 191.373 118.55 193.404 119.085C194.442 119.359 195.516 119.422 196.577 119.26C197.08 119.184 197.588 118.968 197.84 118.501C198.123 117.988 197.961 117.355 197.889 116.806C197.62 114.649 197.233 112.384 196.006 110.533C194.779 108.681 192.735 107.257 190.461 107.414L190.64 108.74C193.813 107.931 197.283 106.911 199.053 103.904C199.44 103.252 199.723 102.524 199.831 101.774C199.961 100.889 199.974 99.8999 199.148 99.3471C198.455 98.8843 197.503 98.7135 196.68 98.7C195.858 98.6865 194.959 98.8573 194.168 99.1674C192.353 99.8819 190.91 101.217 189.611 102.632L190.672 103.45C192.213 100.736 191.049 97.235 188.6 95.4958C185.877 93.5634 182.178 93.8555 179.324 95.316C177.653 96.1744 176.192 97.4237 174.929 98.8034C174.682 99.073 174.664 99.4909 174.929 99.7561C175.176 100.003 175.635 100.026 175.882 99.7561C177.81 97.6484 180.34 95.7474 183.261 95.5048C184.618 95.3924 186.007 95.5857 187.22 96.2283C188.344 96.826 189.225 97.7832 189.661 98.9112C189.921 99.5853 190.038 100.188 190.02 100.884C190.007 101.536 189.836 102.187 189.508 102.767C189.139 103.419 190.034 104.16 190.568 103.585C192.402 101.59 195.053 99.2528 197.988 100.277C198.105 100.318 198.222 100.363 198.33 100.421C198.33 100.421 198.487 100.525 198.464 100.502C198.586 100.623 198.518 100.57 198.509 100.552C198.622 100.767 198.559 101.199 198.527 101.464C198.455 102.026 198.231 102.632 197.939 103.145C197.282 104.295 196.258 105.162 195.103 105.787C193.602 106.596 191.93 107.014 190.29 107.432C189.571 107.616 189.697 108.812 190.47 108.758C192.078 108.645 193.539 109.531 194.555 110.793C195.714 112.236 196.159 114.155 196.433 115.948C196.505 116.411 196.563 116.874 196.617 117.337C196.635 117.498 196.703 117.755 196.649 117.889C196.676 117.818 196.671 117.858 196.649 117.844C196.626 117.835 196.635 117.853 196.604 117.867C196.545 117.889 196.483 117.903 196.42 117.916C195.638 118.087 194.766 118.011 193.993 117.831C192.24 117.422 190.717 116.406 189.512 115.09C188.115 113.566 187.14 111.679 186.349 109.782C186.169 109.351 185.791 109.185 185.36 109.378C183.126 110.371 180.376 110.223 178.268 108.964C176.179 107.715 174.992 105.383 175.042 103.005C175.055 102.34 175.154 101.747 175.383 101.086C175.491 100.776 175.608 100.502 175.788 100.201C175.846 100.107 175.936 99.9808 176.003 99.9269C175.994 99.9359 176.206 99.81 176.111 99.855C176.192 99.8325 176.201 99.8325 176.138 99.855C175.976 99.7965 175.954 99.801 176.062 99.855C176.799 100.318 177.477 99.1539 176.74 98.691L176.731 98.7Z" fill="#EF7B89"/>
<path d="M181.235 101.522C180.466 102.084 179.626 102.551 178.745 102.92C178.736 102.875 178.731 102.835 178.722 102.79C178.722 102.763 178.713 102.736 178.709 102.709C178.394 100.826 177.927 98.9608 177.298 97.1362L186.281 95.4285C184.942 97.7339 183.378 99.9494 181.235 101.522Z" fill="#E6AD9A"/>
<path d="M181.235 101.522C183.378 99.9539 184.942 97.7384 186.281 95.4284L187.616 95.1768C188.075 95.1318 188.295 95.6082 188.358 95.9812C188.443 96.4756 188.528 96.9744 188.614 97.4687C188.803 98.5698 188.996 99.6663 189.185 100.767C189.459 102.345 189.585 104.241 188.052 105.266C187.468 105.657 186.731 105.841 186.007 106.007C184.888 106.264 183.738 106.488 182.583 106.43C181.432 106.371 180.264 105.989 179.594 105.234C179.015 104.578 178.871 103.738 178.74 102.924C179.621 102.556 180.457 102.089 181.23 101.527L181.235 101.522Z" fill="#FFC6B0"/>
<path d="M166.212 92.0295C169.49 91.8302 171.983 88.9734 171.781 85.6488C171.579 82.3241 168.758 79.7905 165.48 79.9898C162.202 80.1891 159.709 83.0459 159.911 86.3705C160.114 89.6952 162.935 92.2288 166.212 92.0295Z" fill="#E6AD9A"/>
<path d="M179.805 100.661C188.588 100.126 195.221 91.6943 194.621 81.8269C194.021 71.9594 186.415 64.3932 177.632 64.9273C168.85 65.4613 162.217 73.8934 162.817 83.7609C163.417 93.6284 171.023 101.195 179.805 100.661Z" fill="#FFC6B0"/>
<path d="M194.834 90.2866C198.111 90.0872 200.604 87.2305 200.402 83.9058C200.2 80.5812 197.379 78.0476 194.101 78.2469C190.824 78.4462 188.331 81.303 188.533 84.6276C188.735 87.9523 191.556 90.4859 194.834 90.2866Z" fill="#FFC6B0"/>
<path d="M197.413 83.8114C196.038 83.8249 194.667 83.9597 193.319 84.2069C192.973 84.2698 192.744 84.7102 192.847 85.0383C192.968 85.4113 193.305 85.5775 193.678 85.5101C194.887 85.2899 196.123 85.1731 197.417 85.1641C197.768 85.1641 198.109 84.854 198.092 84.49C198.074 84.126 197.795 83.8114 197.417 83.8159L197.413 83.8114Z" fill="#C77B5F"/>
<path d="M185.908 90.0309C186.021 91.8735 187.167 93.3026 188.474 93.2262C189.778 93.1453 190.744 91.5904 190.632 89.7433C190.519 87.9008 189.373 86.4717 188.065 86.5481C186.762 86.629 185.796 88.1884 185.908 90.0309Z" fill="#FFA78C"/>
<path d="M166.805 92.6737C167.65 94.2735 169.038 95.1948 169.906 94.7364C170.773 94.278 170.786 92.6107 169.941 91.0154C169.097 89.4155 167.708 88.4942 166.841 88.9526C165.973 89.411 165.96 91.0783 166.805 92.6737Z" fill="#FFA78C"/>
<path d="M176.934 88.3593C176.821 88.2964 176.754 88.238 176.709 88.1571C176.695 88.1346 176.592 87.9144 176.632 88.0223C176.601 87.9369 176.574 87.8515 176.556 87.7661C176.547 87.7212 176.538 87.6762 176.529 87.6358C176.538 87.7032 176.538 87.6987 176.529 87.6133C176.529 87.5055 176.525 87.3976 176.529 87.2853C176.538 87.101 176.57 86.9302 176.61 86.7325C176.799 85.7843 176.978 84.8585 176.534 83.9552C176.372 83.6271 175.909 83.5373 175.612 83.7125C175.28 83.9058 175.208 84.3057 175.37 84.6338C175.428 84.7551 175.468 84.9484 175.477 85.0832C175.482 85.1866 175.477 85.2944 175.477 85.4023C175.473 85.4921 175.464 85.5865 175.459 85.618C175.388 86.1348 175.244 86.6381 175.194 87.1594C175.109 88.0627 175.419 89.0604 176.246 89.5278C176.565 89.7075 176.983 89.6042 177.167 89.2851C177.351 88.966 177.244 88.5436 176.925 88.3638L176.934 88.3593Z" fill="#C77B5F"/>
<path d="M161.627 77.9959C161.667 77.8297 161.699 77.6724 161.726 77.5286C162.117 75.2366 162.899 72.8188 164.108 70.819C165.451 68.599 167.496 66.6441 170.08 65.6015C172.013 64.8195 174.156 64.5723 176.268 64.4914C178.412 64.4105 180.574 64.4914 182.65 64.9408C186.38 65.7498 189.737 67.79 191.921 70.5763C194.204 73.4929 196.725 80.1126 191.737 81.9147C190.488 82.3641 189.535 83.2629 188.106 82.7865C187.148 82.4675 186.38 81.7574 185.706 81.0069C184.371 79.5284 183.288 77.8252 182.511 75.9916C177.212 78.8813 171.433 80.8856 165.483 81.8877C164.22 82.1035 162.009 82.3192 161.38 80.8047C161.079 80.0812 161.42 78.8902 161.627 77.9959Z" fill="#AFA6A5"/>
<path d="M162.274 78.1758C162.544 76.9984 162.742 75.8255 163.115 74.6705C163.488 73.5156 163.942 72.4415 164.539 71.4079C165.591 69.5878 167.069 68.0149 168.885 66.9408C170.993 65.696 173.437 65.305 175.851 65.1837C178.394 65.0578 180.978 65.1432 183.446 65.8308C185.49 66.4016 187.459 67.3678 189.112 68.7025C189.939 69.3676 190.699 70.1226 191.359 70.9495C191.386 70.9854 191.503 71.1292 191.395 70.9944C191.418 71.0214 191.436 71.0484 191.458 71.0753C191.499 71.1292 191.539 71.1877 191.584 71.2416C191.692 71.3899 191.795 71.5382 191.894 71.691C192.088 71.9831 192.267 72.2842 192.434 72.5898C192.622 72.9313 192.798 73.2819 192.959 73.6369C192.995 73.7133 193.027 73.7897 193.063 73.8661C193.144 74.0503 193.036 73.7987 193.081 73.9065C193.103 73.956 193.121 74.0054 193.139 74.0548C193.211 74.2301 193.278 74.4099 193.341 74.5896C193.476 74.9671 193.593 75.3536 193.692 75.7446C193.737 75.9154 193.773 76.0906 193.809 76.2659C193.827 76.3558 193.845 76.4501 193.858 76.54C193.863 76.5805 193.872 76.6209 193.876 76.6614C193.903 76.8232 193.867 76.576 193.885 76.7243C193.93 77.1018 193.953 77.4793 193.939 77.8568C193.935 78.0186 193.921 78.1848 193.903 78.3466C193.903 78.3871 193.876 78.5129 193.903 78.3646C193.899 78.4005 193.89 78.441 193.885 78.4769C193.867 78.5713 193.849 78.6612 193.831 78.7511C193.795 78.9129 193.746 79.0746 193.692 79.2319C193.678 79.2724 193.597 79.4701 193.624 79.4072C193.665 79.3128 193.593 79.4746 193.593 79.4791C193.575 79.5196 193.553 79.56 193.53 79.6004C193.454 79.7487 193.368 79.8881 193.274 80.0229C193.247 80.0588 193.22 80.0993 193.193 80.1352C193.207 80.1128 193.278 80.0364 193.193 80.1307C193.13 80.2026 193.072 80.2745 193.004 80.342C192.883 80.4678 192.753 80.5846 192.618 80.6925C192.717 80.6161 192.546 80.7419 192.51 80.7644C192.416 80.8273 192.317 80.8902 192.218 80.9486C191.782 81.2003 191.485 81.2722 190.991 81.4879C190.11 81.8744 189.319 82.4407 188.371 82.1575C187.328 81.8474 186.533 80.9531 185.854 80.1532C185.086 79.2544 184.421 78.2657 183.854 77.2276C183.571 76.7108 183.32 76.1805 183.086 75.6412C182.942 75.2997 182.452 75.2413 182.165 75.3986C178.978 77.1332 175.63 78.5444 172.161 79.6049C170.417 80.1397 168.647 80.5846 166.858 80.9397C166.422 81.025 165.986 81.1059 165.55 81.1823C165.393 81.2093 165.236 81.2363 165.079 81.2587C165.02 81.2677 164.962 81.2767 164.903 81.2857C165.043 81.2677 164.818 81.2947 164.777 81.2992C164.481 81.3306 164.184 81.3531 163.892 81.3531C163.748 81.3531 163.6 81.3486 163.456 81.3351C163.389 81.3306 163.321 81.3217 163.258 81.3172C163.371 81.3306 163.178 81.3037 163.146 81.2947C162.989 81.2632 162.836 81.2183 162.683 81.1689C162.661 81.1599 162.566 81.1194 162.67 81.1689C162.634 81.1509 162.593 81.1329 162.557 81.1149C162.494 81.0835 162.432 81.043 162.373 81.0071C162.346 80.9891 162.324 80.9711 162.297 80.9531C162.396 81.0295 162.288 80.9397 162.27 80.9217C162.22 80.8722 162.166 80.8228 162.121 80.7644C162.189 80.8498 162.068 80.6745 162.05 80.6386C162.032 80.6116 162.018 80.5801 162.005 80.5487C161.96 80.4498 162.027 80.6296 161.996 80.5172C161.91 80.2476 161.928 79.8476 161.987 79.5016C162.063 79.0522 162.175 78.6118 162.279 78.1714C162.36 77.8163 162.166 77.4433 161.807 77.34C161.465 77.2456 161.061 77.4568 160.975 77.8118C160.787 78.6252 160.517 79.4926 160.598 80.3375C160.674 81.1284 161.083 81.807 161.771 82.2205C162.917 82.908 164.409 82.7418 165.663 82.535C169.496 81.8924 173.258 80.8273 176.866 79.3802C178.916 78.5578 180.915 77.6231 182.852 76.567C182.547 76.4861 182.237 76.4052 181.931 76.3243C182.43 77.4973 183.05 78.6163 183.783 79.6589C184.502 80.679 185.311 81.7171 186.29 82.5036C187.288 83.308 188.506 83.8203 189.791 83.4698C190.344 83.3215 190.856 83.0429 191.373 82.7957C191.804 82.589 192.272 82.4452 192.708 82.2205C194.245 81.4295 195.103 79.9465 195.269 78.2567C195.436 76.567 194.973 74.9492 194.348 73.4571C193.674 71.8528 192.757 70.3922 191.562 69.1249C189.948 67.4127 187.944 66.1094 185.773 65.2106C183.342 64.1995 180.713 63.8175 178.089 63.786C175.392 63.7546 172.53 63.9074 169.99 64.9095C167.748 65.7904 165.847 67.3003 164.386 69.2058C162.863 71.1922 161.906 73.592 161.34 76.0187C161.2 76.6119 161.11 77.2186 160.971 77.8118C160.89 78.1669 161.079 78.5399 161.443 78.6432C161.784 78.7376 162.189 78.5309 162.274 78.1714V78.1758Z" fill="#AFA6A5"/>
<path d="M182.044 90.5434C182.462 90.7996 182.691 90.9794 183.05 91.3254C183.41 91.6714 183.621 91.9366 183.846 92.2736C183.967 92.4534 184.079 92.6421 184.183 92.8354C184.237 92.9387 184.291 93.0376 184.34 93.1455C184.363 93.1994 184.389 93.2488 184.412 93.3028C184.461 93.4196 184.358 93.1589 184.439 93.3657C184.605 93.7971 184.731 94.2375 184.807 94.6914C184.87 95.0509 185.311 95.2532 185.639 95.1633C186.021 95.0599 186.169 94.6959 186.111 94.3319C185.76 92.2916 184.484 90.4625 182.727 89.3795C182.417 89.1907 181.985 89.3121 181.805 89.6222C181.626 89.9322 181.738 90.3547 182.048 90.5434H182.044Z" fill="#C77B5F"/>
<path d="M171.325 85.5056C171.447 86.3729 171.955 87.0201 172.462 86.9482C172.97 86.8763 173.28 86.1168 173.159 85.2494C173.038 84.3821 172.53 83.7349 172.022 83.8068C171.514 83.8788 171.204 84.6382 171.325 85.5056Z" fill="#5B4242"/>
<path d="M181.517 84.4898C181.639 85.3572 182.147 86.0043 182.654 85.9324C183.162 85.8605 183.472 85.101 183.351 84.2337C183.23 83.3663 182.722 82.7192 182.214 82.7911C181.706 82.863 181.396 83.6225 181.517 84.4898Z" fill="#5B4242"/>
<path d="M176.732 92.7095C175.887 92.4938 175.073 92.0983 174.44 91.5006C174.458 91.5006 174.476 91.4872 174.494 91.4872C174.534 91.4737 174.575 91.4647 174.619 91.4602C176.143 91.3029 177.671 91.1906 179.203 91.1366C179.599 91.1231 179.999 91.1142 180.394 91.1052C180.659 91.1007 180.925 91.0647 181.19 91.0737C181.527 91.0872 181.855 91.1591 182.115 91.3838C182.358 91.595 182.488 91.8916 182.511 92.2017C181.693 92.6691 180.713 92.8264 179.765 92.8938C178.749 92.9657 177.72 92.9522 176.732 92.7005V92.7095Z" fill="white"/>
<path d="M173.698 92.0264C173.851 91.7253 174.129 91.5725 174.44 91.5006C175.073 92.0983 175.887 92.4938 176.731 92.7095C177.716 92.9567 178.749 92.9746 179.765 92.9027C180.713 92.8353 181.693 92.6735 182.511 92.2107C182.52 92.305 182.52 92.3994 182.511 92.4938C182.425 93.2038 181.828 93.7791 181.293 94.1925C180.763 94.606 180.138 94.934 179.486 95.1093C178.089 95.4913 176.624 95.2441 175.379 94.5206C174.754 94.1566 174.035 93.6757 173.716 92.9971C173.577 92.696 173.55 92.3275 173.707 92.0264H173.698Z" fill="#A32B2B"/>
<path d="M152.774 105.931C152.131 105.414 151.372 104.964 150.545 104.955C149.718 104.946 148.842 105.522 148.77 106.348C148.621 108.034 151.525 108.784 151.354 110.465C150.374 109.157 149.039 107.944 147.646 107.085C147.107 106.753 146.518 106.456 145.889 106.402C145.255 106.353 144.568 106.591 144.235 107.135C143.862 107.742 144.033 108.551 144.424 109.144C144.779 109.679 145.282 110.092 145.759 110.523C145.853 110.667 145.952 110.802 146.064 110.923C146.774 111.692 147.615 112.312 148.001 113.323C147.561 113.256 147.552 112.955 147.354 112.654C147.116 112.299 146.72 111.984 146.388 111.719C145.732 111.188 144.99 110.766 144.199 110.483C143.718 110.308 143.139 110.195 142.725 110.496C142.038 110.995 142.384 112.069 142.793 112.815C143.584 114.253 144.375 115.691 145.166 117.134C144.321 116.307 143.296 115.66 142.186 115.256C141.669 115.067 141.036 114.954 140.627 115.318C139.831 116.024 140.838 117.215 141.602 117.956C143.997 120.271 144.253 124.01 146.015 126.837C148.505 130.832 153.974 132.234 157.6 128.922C160.886 125.92 159.708 120.451 158.711 116.703C157.713 112.955 155.992 108.515 152.783 105.935L152.774 105.931Z" fill="#FFC6B0"/>
<path d="M152.149 112.119C152.509 112.618 152.815 113.148 153.057 113.714C152.999 113.575 153.093 113.804 153.102 113.827C153.129 113.899 153.156 113.975 153.183 114.047C153.228 114.177 153.273 114.308 153.313 114.442C153.403 114.743 153.475 115.054 153.534 115.364C153.597 115.71 154.037 115.939 154.365 115.836C154.738 115.714 154.904 115.377 154.837 115.004C154.608 113.723 154.082 112.487 153.318 111.436C153.111 111.153 152.72 110.982 152.397 111.193C152.114 111.373 151.934 111.809 152.154 112.114L152.149 112.119Z" fill="#C77B5F"/>
<path d="M149.102 115.251C149.129 115.283 149.273 115.431 149.147 115.305C149.192 115.35 149.224 115.413 149.26 115.463C149.336 115.566 149.403 115.674 149.471 115.786C149.606 116.006 149.727 116.236 149.835 116.469C149.853 116.505 149.956 116.694 149.862 116.532C149.893 116.586 149.911 116.654 149.934 116.712C149.979 116.833 150.019 116.955 150.06 117.076C150.136 117.323 150.194 117.575 150.239 117.826C150.302 118.172 150.743 118.402 151.071 118.298C151.444 118.177 151.606 117.84 151.543 117.467C151.336 116.298 150.806 115.22 150.06 114.299C149.835 114.025 149.336 114.051 149.107 114.299C148.837 114.591 148.869 114.959 149.107 115.251H149.102Z" fill="#C77B5F"/>
<path d="M145.691 118.01C145.772 118.1 145.849 118.19 145.925 118.285L145.822 118.15C146.064 118.464 146.267 118.81 146.424 119.174L146.357 119.013C146.473 119.291 146.563 119.579 146.626 119.875C146.698 120.221 147.125 120.455 147.458 120.347C147.822 120.23 148.006 119.889 147.929 119.516C147.736 118.599 147.282 117.75 146.653 117.058C146.415 116.797 145.939 116.797 145.7 117.058C145.444 117.336 145.449 117.732 145.7 118.01H145.691Z" fill="#C77B5F"/>
<path d="M200.028 143.586C204.329 137.33 207.601 130.185 208.769 122.644C209.695 116.689 210.279 106.083 202.208 104.78C199.966 104.421 197.665 105.306 195.858 106.681C193.018 108.843 191.144 112.015 188.996 114.802C187.149 117.193 185.014 119.309 183.225 121.7C181.63 123.83 179.603 126.019 176.772 126.221C174.714 126.365 172.768 125.385 170.939 124.437C168.696 123.268 166.454 122.1 164.211 120.932C163.537 120.581 162.845 120.226 162.086 120.145C161.524 120.087 160.958 120.19 160.409 120.338C157.25 121.188 155.264 123.713 153.309 126.167C152.077 127.713 151.206 129.636 151.3 131.609C151.448 134.854 154.037 137.407 156.576 139.429C163.308 144.799 170.966 149.01 179.113 151.81C181.477 152.623 183.917 153.324 186.416 153.36C191.589 153.437 195.332 149.873 198.285 145.995C198.882 145.208 199.467 144.404 200.033 143.577L200.028 143.586Z" fill="white"/>
<path d="M200.613 143.927C204.195 138.71 207.053 132.922 208.617 126.774C209.21 124.441 209.605 122.051 209.817 119.651C209.992 117.682 210.037 115.692 209.817 113.723C209.596 111.755 209.138 109.751 208.113 108.025C207.098 106.313 205.538 105.032 203.633 104.43C202.316 104.012 200.936 103.926 199.579 104.2C198.074 104.506 196.654 105.23 195.44 106.164C193.009 108.029 191.27 110.573 189.486 113.022C188.551 114.303 187.567 115.534 186.524 116.73C185.428 117.993 184.3 119.237 183.261 120.554C181.63 122.621 179.94 125.035 177.159 125.507C175.694 125.758 174.179 125.259 172.853 124.648C171.294 123.929 169.784 123.084 168.256 122.289C167.452 121.871 166.647 121.453 165.847 121.035C165.106 120.648 164.373 120.231 163.605 119.898C162.773 119.538 161.955 119.39 161.052 119.52C160.266 119.633 159.511 119.889 158.787 120.217C156.226 121.377 154.387 123.682 152.702 125.848C151.758 127.061 151.008 128.468 150.738 129.992C150.469 131.515 150.68 132.998 151.3 134.4C152.486 137.088 154.918 139.02 157.183 140.768C159.695 142.705 162.333 144.489 165.07 146.094C167.78 147.684 170.584 149.109 173.469 150.349C174.948 150.988 176.449 151.585 177.963 152.129C179.478 152.673 181.14 153.23 182.785 153.59C184.371 153.936 186.034 154.151 187.657 153.985C189.059 153.841 190.398 153.45 191.665 152.839C194.097 151.662 196.101 149.729 197.804 147.671C198.797 146.471 199.719 145.208 200.604 143.923C200.811 143.622 200.658 143.177 200.361 143.002C200.029 142.804 199.647 142.943 199.44 143.244C196.537 147.455 192.73 152.345 187.216 152.677C184.021 152.871 180.853 151.76 177.896 150.677C175.015 149.621 172.206 148.385 169.478 146.983C166.746 145.577 164.099 144.004 161.555 142.278C160.288 141.42 159.048 140.521 157.839 139.586C156.711 138.71 155.592 137.807 154.599 136.773C153.718 135.856 152.909 134.818 152.428 133.641C151.907 132.373 151.821 131.021 152.185 129.695C152.572 128.297 153.376 127.142 154.275 126.023C155.107 124.99 155.956 123.965 156.94 123.075C157.893 122.208 158.994 121.489 160.23 121.098C160.931 120.873 161.677 120.707 162.405 120.896C163.169 121.093 163.87 121.525 164.566 121.884C166.072 122.671 167.582 123.453 169.087 124.239C170.593 125.026 172.017 125.839 173.586 126.396C175.055 126.918 176.646 127.097 178.161 126.661C179.464 126.288 180.61 125.52 181.594 124.603C182.578 123.686 183.423 122.518 184.286 121.426C185.306 120.141 186.407 118.923 187.481 117.687C188.555 116.451 189.499 115.283 190.429 114.011C191.279 112.851 192.101 111.665 193 110.537C194.78 108.308 196.959 106.137 199.844 105.517C201.04 105.261 202.244 105.378 203.395 105.764C203.516 105.805 203.633 105.85 203.754 105.895C203.795 105.908 203.831 105.926 203.871 105.94C203.736 105.886 203.925 105.967 203.938 105.971C204.159 106.07 204.374 106.182 204.586 106.304C204.774 106.411 204.954 106.528 205.129 106.654C205.179 106.69 205.224 106.722 205.269 106.758C205.17 106.681 205.251 106.744 205.269 106.758C205.372 106.843 205.475 106.928 205.579 107.018C205.736 107.157 205.884 107.306 206.028 107.459C206.091 107.526 206.158 107.598 206.221 107.67C206.257 107.715 206.298 107.755 206.334 107.8C206.352 107.823 206.5 108.011 206.406 107.885C206.671 108.227 206.904 108.596 207.111 108.973C207.215 109.162 207.309 109.355 207.403 109.548C207.426 109.593 207.444 109.638 207.466 109.683C207.475 109.701 207.552 109.881 207.493 109.742C207.538 109.854 207.583 109.962 207.628 110.074C207.794 110.51 207.934 110.959 208.055 111.409C208.176 111.858 208.275 112.344 208.356 112.815C208.374 112.932 208.392 113.045 208.41 113.161C208.419 113.215 208.423 113.265 208.432 113.319C208.464 113.525 208.419 113.184 208.441 113.391C208.473 113.647 208.5 113.903 208.522 114.155C208.612 115.139 208.635 116.132 208.617 117.121C208.599 118.06 208.54 118.999 208.45 119.934C208.405 120.383 208.356 120.828 208.302 121.278C208.298 121.327 208.253 121.655 208.275 121.489C208.262 121.579 208.248 121.673 208.239 121.763C208.208 121.974 208.176 122.185 208.145 122.397C207.21 128.45 204.932 134.225 201.84 139.492C201.094 140.764 200.298 142.008 199.462 143.226C199.256 143.527 199.404 143.972 199.705 144.148C200.038 144.341 200.42 144.206 200.626 143.905L200.613 143.927Z" fill="white"/>
<path d="M179.873 128.805C181.796 131.704 183.005 135.061 183.319 138.53C183.351 138.894 183.607 139.204 183.994 139.204C184.331 139.204 184.699 138.894 184.668 138.53C184.331 134.823 183.099 131.227 181.037 128.122C180.834 127.821 180.443 127.691 180.115 127.879C179.814 128.055 179.67 128.495 179.873 128.801V128.805Z" fill="#E0DDD5"/>
<path d="M184.155 128.522C183.679 128.49 183.544 128.522 183.751 128.625C183.715 128.603 183.724 128.616 183.787 128.67C183.877 128.76 183.953 128.863 184.034 128.962C184.173 129.133 184.317 129.308 184.452 129.484C184.708 129.816 184.951 130.158 185.185 130.504C185.71 131.277 186.187 132.086 186.614 132.922C187.445 134.553 188.056 136.292 188.456 138.076C188.537 138.431 188.946 138.638 189.288 138.548C189.652 138.449 189.836 138.076 189.76 137.717C189.04 134.49 187.616 131.403 185.603 128.778C185.315 128.405 185.036 127.992 184.699 127.664C184.308 127.286 183.616 127.093 183.212 127.569C182.978 127.848 182.938 128.248 183.212 128.522C183.454 128.765 183.931 128.801 184.164 128.522H184.155Z" fill="#E0DDD5"/>
<path d="M203.084 104.214C203.408 104.825 204.042 105.333 204.734 105.266C205.358 105.203 205.857 104.677 206.082 104.093C206.307 103.508 206.302 102.861 206.298 102.232C207.462 103.531 206.603 105.967 207.951 107.077C208.252 107.324 208.675 107.463 209.034 107.31C209.25 107.216 209.407 107.032 209.542 106.843C210.028 106.164 210.311 105.347 210.347 104.511C210.257 105.495 210.23 106.479 210.261 107.468C210.288 108.326 210.567 109.409 211.421 109.512C211.987 109.58 212.486 109.135 212.787 108.65C213.088 108.164 213.286 107.607 213.69 107.207C213.533 108.02 213.38 108.874 213.627 109.665C213.874 110.456 214.656 111.148 215.47 110.987C215.978 110.888 216.378 110.483 216.665 110.052C217.816 108.322 217.591 105.949 216.616 104.111C215.641 102.273 214.036 100.866 212.432 99.5448C211.192 98.5246 209.92 97.5269 208.504 96.7764C206.464 95.6934 203.43 94.6463 201.089 94.7991C200.325 94.8485 199.422 95.1811 199.309 95.9361C199.224 96.5203 199.66 97.0326 200.033 97.491C201.736 99.5942 201.916 101.981 203.098 104.219L203.084 104.214Z" fill="#FFC6B0"/>
<path d="M201.336 95.1764C199.624 94.9697 197.84 95.455 196.469 96.4976C196.02 96.8392 195.602 97.2571 195.377 97.7784C195.152 98.2997 195.157 98.9424 195.498 99.3963C195.903 99.9356 196.649 100.079 197.323 100.079C199.219 100.079 201.224 99.266 202.94 100.07" fill="#FFC6B0"/>
<path d="M205.39 99.1179C205.489 99.2752 205.574 99.437 205.646 99.6078L205.578 99.446C205.7 99.7336 205.781 100.035 205.826 100.345L205.803 100.165C205.83 100.358 205.839 100.556 205.83 100.754C205.817 101.109 206.149 101.446 206.504 101.428C206.882 101.41 207.165 101.131 207.178 100.754C207.205 99.9448 206.985 99.1224 206.558 98.4348C206.374 98.1337 205.947 97.9899 205.637 98.1922C205.327 98.3944 205.196 98.7944 205.394 99.1134L205.39 99.1179Z" fill="#C77B5F"/>
<path d="M209.25 101.257C209.385 101.616 209.479 101.989 209.533 102.367L209.51 102.187C209.564 102.583 209.569 102.978 209.533 103.374C209.519 103.535 209.618 103.738 209.731 103.85C209.848 103.967 210.041 104.057 210.207 104.048C210.373 104.039 210.562 103.985 210.683 103.85C210.805 103.715 210.863 103.562 210.881 103.374C210.962 102.542 210.845 101.679 210.553 100.897C210.49 100.731 210.405 100.587 210.243 100.493C210.099 100.408 209.883 100.372 209.722 100.426C209.398 100.529 209.12 100.902 209.25 101.257Z" fill="#C77B5F"/>
<path d="M212.818 103.994C212.845 104.133 212.868 104.277 212.886 104.416L212.863 104.236C212.926 104.708 212.944 105.189 212.917 105.665C212.895 106.016 213.241 106.353 213.591 106.34C213.973 106.322 214.243 106.043 214.265 105.665C214.306 104.987 214.247 104.304 214.122 103.634C214.09 103.477 213.946 103.311 213.811 103.23C213.668 103.144 213.452 103.108 213.29 103.162C213.128 103.216 212.971 103.315 212.886 103.472C212.796 103.639 212.782 103.805 212.818 103.994Z" fill="#C77B5F"/>
<path d="M181.747 153.522C176.696 153.437 172.444 150.125 174.651 144.894C176.66 140.134 182.017 137.141 186.461 134.957C189.998 133.218 194.007 132.211 197.898 132.832C198.514 132.931 199.152 133.083 199.62 133.497C200.087 133.91 200.312 134.656 199.961 135.173C199.682 135.582 199.157 135.726 198.671 135.838C196.528 136.341 194.38 136.84 192.236 137.344C195.18 136.701 198.289 136.827 201.17 137.708C201.53 137.815 201.912 137.959 202.114 138.274C202.662 139.141 201.417 140.022 200.424 140.283C198.038 140.912 195.611 141.406 193.166 141.757C195.296 141.559 197.471 141.784 199.516 142.413C200.249 142.638 201.107 143.132 201.017 143.891C200.941 144.574 200.15 144.898 199.48 145.06C197.436 145.545 195.323 145.77 193.22 145.716C194.824 145.846 196.42 146.152 197.961 146.615C198.312 146.723 198.676 146.844 198.919 147.123C199.485 147.77 198.995 148.857 198.231 149.248C197.467 149.639 196.559 149.572 195.701 149.608C193.27 149.711 190.982 150.713 188.744 151.666C186.506 152.619 184.174 153.558 181.742 153.518L181.747 153.522Z" fill="#FFC6B0"/>
<path d="M117.685 105.454C120.071 108.236 122.453 111.013 124.839 113.795C130.317 120.186 135.818 126.599 142.141 132.153C147.538 136.899 154.055 141.164 161.241 141.015C166.382 140.912 172.547 137.321 177.536 139.55C178.569 140.009 179.392 140.836 180.102 141.716C183.108 145.424 184.367 151.091 181.549 154.947C180.628 156.205 179.356 157.167 178.066 158.043C162.535 168.626 130.875 172.819 117.671 155.864" fill="#F49676"/>
<path d="M117.208 105.931C121.711 111.184 126.16 116.492 130.776 121.646C135.144 126.527 139.728 131.34 144.95 135.326C149.642 138.903 155.282 141.865 161.335 141.689C164.198 141.609 166.957 140.656 169.73 140.036C172.229 139.478 175.222 139.006 177.576 140.319C178.776 140.988 179.689 142.157 180.417 143.294C181.131 144.413 181.684 145.631 182.039 146.911C182.718 149.374 182.623 152.111 181.185 154.291C180.376 155.513 179.19 156.443 177.999 157.27C177.181 157.836 176.336 158.376 175.478 158.879C173.721 159.913 171.891 160.82 170.022 161.629C168.152 162.438 165.977 163.22 163.915 163.849C161.852 164.479 159.555 165.049 157.335 165.481C152.85 166.348 148.266 166.748 143.665 166.573C139.269 166.406 134.933 165.71 130.758 164.213C126.862 162.82 123.158 160.65 120.21 157.702C119.478 156.969 118.795 156.192 118.161 155.378C117.936 155.091 117.442 155.144 117.208 155.378C116.925 155.661 116.984 156.043 117.208 156.331C119.869 159.737 123.388 162.398 127.288 164.227C131.378 166.146 135.805 167.211 140.29 167.678C144.775 168.146 149.669 167.988 154.306 167.341C158.845 166.708 163.33 165.602 167.636 164.02C171.613 162.555 175.496 160.699 178.961 158.241C180.255 157.324 181.482 156.299 182.362 154.965C183.126 153.81 183.562 152.475 183.733 151.104C184.079 148.376 183.297 145.541 181.945 143.181C181.226 141.932 180.318 140.692 179.19 139.784C178.003 138.827 176.561 138.373 175.064 138.202C172.206 137.878 169.325 138.719 166.58 139.406C165.227 139.743 163.856 140.09 162.468 140.247C161.052 140.404 159.6 140.35 158.194 140.125C155.241 139.658 152.455 138.503 149.88 137.002C147.246 135.47 144.829 133.596 142.546 131.582C140.002 129.34 137.584 126.954 135.252 124.491C130.506 119.48 126.08 114.177 121.59 108.937C120.453 107.611 119.316 106.286 118.179 104.96C117.941 104.681 117.469 104.717 117.226 104.96C116.952 105.234 116.988 105.634 117.226 105.913L117.208 105.931Z" fill="#F49676"/>
<path d="M119.649 103.198C123.896 105.319 127.369 108.811 129.518 113.04C130.115 114.213 130.587 115.417 130.96 116.685C131.203 117.516 132.506 117.161 132.259 116.325C130.843 111.521 127.85 107.274 123.873 104.245C122.763 103.4 121.577 102.659 120.327 102.034C120.004 101.873 119.599 101.949 119.406 102.277C119.231 102.574 119.321 103.036 119.649 103.198Z" fill="#DD7C62"/>
<path d="M120.395 109.724C125.131 113.512 127.985 118.981 130.906 124.167C133.733 129.187 136.924 134.324 141.791 137.609C143.184 138.548 144.703 139.294 146.303 139.815C148.168 140.422 150.123 140.719 152.068 140.876C152.433 140.907 152.743 140.543 152.743 140.202C152.743 139.811 152.433 139.559 152.068 139.528C148.914 139.272 145.84 138.539 143.121 136.867C140.744 135.402 138.753 133.394 137.032 131.214C133.414 126.635 131.059 121.237 127.9 116.357C126.08 113.543 123.976 110.874 121.347 108.771C121.064 108.542 120.673 108.492 120.395 108.771C120.161 109.005 120.107 109.494 120.395 109.724Z" fill="#DD7C62"/>
<path d="M104.85 145.028C106.468 148.107 108.454 150.983 110.728 153.612C112.993 156.232 115.559 158.582 118.341 160.645C119.9 161.8 121.536 162.861 123.23 163.813C123.985 164.24 124.668 163.076 123.909 162.649C120.965 160.991 118.206 159.018 115.694 156.753C113.2 154.502 110.939 151.985 109.002 149.239C107.901 147.675 106.899 146.04 106.009 144.35C105.839 144.026 105.389 143.932 105.088 144.107C104.76 144.296 104.675 144.705 104.845 145.028H104.85Z" fill="#DD7C62"/>
<path d="M189.463 137.986C189.557 137.932 189.652 137.878 189.746 137.833C189.769 137.82 189.796 137.811 189.818 137.802C189.719 137.842 189.701 137.851 189.769 137.825C189.818 137.807 189.867 137.784 189.921 137.771C190.124 137.699 190.335 137.654 190.551 137.622L190.371 137.645C190.654 137.609 190.937 137.609 191.216 137.645L191.036 137.622C191.144 137.636 191.247 137.658 191.355 137.681C191.697 137.762 192.101 137.573 192.186 137.209C192.263 136.863 192.083 136.463 191.715 136.377C190.721 136.148 189.661 136.301 188.784 136.827C188.483 137.007 188.344 137.443 188.542 137.748C188.739 138.054 189.139 138.184 189.463 137.991V137.986Z" fill="#C77B5F"/>
</svg>
