<svg width="320" height="180" viewBox="0 0 320 180" fill="none" xmlns="http://www.w3.org/2000/svg">
<mask id="mask0_1582_9124" style="mask-type:luminance" maskUnits="userSpaceOnUse" x="89" y="9" width="115" height="160">
<path d="M203.334 9H89.6973V169H203.334V9Z" fill="white"/>
</mask>
<g mask="url(#mask0_1582_9124)">
<path d="M126.263 127.89C126.263 127.89 132.475 133.79 141.777 128.547C141.777 128.547 128.943 118.092 126.263 127.89Z" fill="#E27D84"/>
<path d="M184.734 135.46C184.734 135.46 182.15 136.103 180.932 134.765C179.714 133.42 183.657 130.197 183.657 130.197L184.734 135.46Z" fill="#E27D84"/>
<path d="M139.442 129.476C139.442 129.476 142.359 138.351 144.75 142.523C144.75 142.523 140.558 154.647 139.795 162.606C139.032 170.559 143.699 188.993 144.558 194.425C144.558 194.425 165.302 196.887 175.732 193.976C175.732 193.976 177.264 190.585 177.2 187.927C177.135 185.549 184.629 173.47 186.084 165.712C187.54 157.948 187.155 148.156 183.616 141.412C183.616 141.412 180.815 134.33 183.354 130.204L181.501 123.199L153.173 104.688L136.731 103.889C136.731 103.889 128.436 116.091 139.442 129.476Z" fill="#A887C4"/>
<path d="M132.501 93.4345C132.501 93.4345 122.257 100.224 125.61 113.713C125.61 113.713 126.635 116.526 125.969 117.69C125.302 118.853 123.866 126.247 126.257 127.897C126.257 127.897 140.732 122.641 143.027 102.362C143.027 102.362 137.956 90.0428 132.501 93.4345Z" fill="#F29C9F"/>
<path d="M165.572 84.6823C165.572 84.6823 177.06 88.9966 181.22 96.6181C185.381 104.246 189.041 124.544 184.733 135.46C184.733 135.46 180.355 119.671 165.566 119.814C150.777 119.957 141.867 108.911 142.591 101.485C142.591 101.485 154.418 84.8512 165.566 84.6758L165.572 84.6823Z" fill="#F29C9F"/>
<path d="M135.417 93.6163C135.417 93.6163 135.756 101.823 142.59 101.491C149.423 101.16 149.301 92.9406 149.301 92.9406L135.417 93.6163Z" fill="#FFF1E3"/>
<path opacity="0.8" d="M135.417 93.6163C135.417 93.6163 135.756 101.823 142.59 101.491C149.423 101.16 149.301 92.9406 149.301 92.9406L135.417 93.6163Z" fill="url(#paint0_linear_1582_9124)"/>
<path d="M149.302 94.9288C149.302 94.9288 146.174 99.9449 142.591 101.491C142.591 101.491 149.456 102.83 149.302 94.9288Z" fill="#F29C9F"/>
<path d="M136.021 96.618C136.021 96.618 139.143 100.763 142.592 101.485C142.592 101.485 135.233 102.914 136.021 96.618Z" fill="#F29C9F"/>
<path d="M133.653 98.2426C133.653 98.2426 133.723 98.3206 133.851 98.457C133.954 98.587 134.121 98.7624 134.255 98.9898C134.326 99.1003 134.422 99.2172 134.48 99.3602C134.537 99.5031 134.563 99.6786 134.627 99.8475C134.685 100.023 134.762 100.192 134.877 100.335C134.999 100.471 135.178 100.562 135.351 100.647C135.531 100.725 135.691 100.816 135.845 100.9C136.012 100.978 136.166 101.056 136.313 101.14C136.46 101.218 136.595 101.309 136.717 101.413C136.845 101.498 136.967 101.582 137.082 101.667C137.518 102.005 137.781 102.381 137.781 102.381L137.749 102.459C137.749 102.459 137.326 102.511 136.73 102.355C136.582 102.31 136.422 102.278 136.262 102.206C136.108 102.122 135.96 102.018 135.813 101.894C135.666 101.771 135.518 101.641 135.371 101.511C135.223 101.381 135.134 101.173 135.025 100.998C134.922 100.816 134.807 100.653 134.678 100.51C134.569 100.354 134.416 100.231 134.255 100.12C134.082 100.016 133.928 99.8995 133.826 99.75C133.723 99.6071 133.646 99.4511 133.595 99.3082C133.557 99.1523 133.518 99.0158 133.505 98.8859C133.48 98.7624 133.492 98.639 133.505 98.5415C133.518 98.3531 133.576 98.2491 133.576 98.2491L133.659 98.2296L133.653 98.2426Z" fill="#E27D84"/>
<path d="M137.416 104.305C137.416 104.305 137.404 104.344 137.365 104.409C137.327 104.474 137.269 104.571 137.166 104.675C136.981 104.883 136.641 105.13 136.179 105.267C135.955 105.338 135.698 105.377 135.429 105.377C135.16 105.364 134.884 105.299 134.615 105.195C134.339 105.117 134.077 105 133.788 104.955C133.506 104.903 133.218 104.838 132.916 104.818C132.615 104.786 132.32 104.727 132.038 104.643C131.756 104.565 131.493 104.441 131.23 104.344C130.698 104.149 130.294 103.818 129.929 103.558C129.243 102.986 128.891 102.473 128.891 102.473L128.942 102.401C128.942 102.401 129.096 102.434 129.346 102.512C129.596 102.583 129.936 102.719 130.327 102.895C130.525 102.979 130.737 103.064 130.955 103.174C131.173 103.285 131.391 103.408 131.621 103.532C131.852 103.655 132.083 103.811 132.327 103.935C132.577 104.051 132.807 104.227 133.057 104.37C133.307 104.5 133.564 104.649 133.839 104.701C134.109 104.766 134.391 104.786 134.654 104.734C134.916 104.708 135.166 104.63 135.391 104.61C135.615 104.571 135.833 104.578 136.019 104.539C136.218 104.526 136.391 104.487 136.551 104.461C136.705 104.422 136.852 104.396 136.968 104.363C137.198 104.298 137.346 104.246 137.346 104.246L137.41 104.305H137.416Z" fill="#E27D84"/>
<path d="M126.455 115.682C126.455 115.682 126.615 115.63 126.891 115.565C127.167 115.5 127.551 115.422 128.006 115.363C128.237 115.331 128.481 115.305 128.743 115.285C129.006 115.272 129.288 115.305 129.59 115.318C129.891 115.344 130.186 115.298 130.487 115.233C130.788 115.162 131.07 115.012 131.346 114.87C131.609 114.694 131.878 114.545 132.135 114.389C132.385 114.226 132.647 114.096 132.872 113.921C133.103 113.758 133.333 113.622 133.538 113.473C133.737 113.317 133.968 113.213 134.128 113.057C134.308 112.92 134.474 112.797 134.635 112.693C134.776 112.569 134.904 112.465 135.013 112.381C135.231 112.212 135.378 112.115 135.378 112.115L135.449 112.16C135.449 112.16 135.397 112.316 135.288 112.589C135.231 112.725 135.16 112.894 135.058 113.07C134.942 113.239 134.808 113.421 134.654 113.629C134.506 113.836 134.295 114.005 134.077 114.2C133.872 114.408 133.603 114.551 133.327 114.701C133.058 114.863 132.75 114.967 132.449 115.084C132.147 115.214 131.814 115.246 131.494 115.311C131.167 115.357 130.852 115.402 130.545 115.48C130.237 115.545 129.949 115.662 129.66 115.766C129.378 115.883 129.096 115.994 128.82 116.039C128.545 116.098 128.282 116.085 128.038 116.098C127.551 116.085 127.147 116.013 126.872 115.929C126.596 115.851 126.442 115.766 126.442 115.766V115.682H126.455Z" fill="#E27D84"/>
<path d="M145.968 102.778C145.968 102.778 146.25 102.83 146.744 102.914C147.231 103.005 147.923 103.142 148.744 103.311C149.154 103.402 149.596 103.486 150.064 103.597C150.532 103.7 151.013 103.869 151.532 103.986C152.045 104.123 152.584 104.207 153.135 104.233C153.686 104.259 154.25 104.207 154.802 104.123C155.353 104.045 155.898 103.902 156.424 103.791C156.949 103.668 157.456 103.525 157.93 103.337C158.404 103.155 158.853 102.96 159.263 102.758C159.68 102.557 160.058 102.336 160.398 102.109C160.744 101.894 161.033 101.654 161.302 101.452C161.565 101.244 161.77 101.03 161.962 100.868C162.302 100.517 162.52 100.315 162.52 100.315L162.59 100.361C162.59 100.361 162.475 100.621 162.231 101.082C162.097 101.296 161.917 101.556 161.699 101.842C161.475 102.128 161.199 102.427 160.86 102.726C160.52 103.018 160.129 103.311 159.68 103.558C159.238 103.824 158.738 104.025 158.206 104.194C157.674 104.35 157.116 104.474 156.545 104.552C155.975 104.623 155.391 104.636 154.815 104.597C154.238 104.578 153.667 104.513 153.109 104.493C152.552 104.454 152 104.448 151.455 104.441C150.917 104.428 150.391 104.415 149.904 104.337C149.417 104.259 148.962 104.136 148.552 104.019C147.725 103.772 147.064 103.48 146.616 103.252C146.167 103.025 145.93 102.849 145.93 102.849L145.962 102.771L145.968 102.778Z" fill="#E27D84"/>
<path d="M150.057 106.923C150.057 106.923 150.262 106.969 150.601 107.099C150.941 107.222 151.396 107.417 151.941 107.67C152.21 107.8 152.499 107.937 152.8 108.106C153.102 108.268 153.39 108.496 153.711 108.704C154.339 109.139 155.102 109.418 155.903 109.516C156.3 109.581 156.698 109.607 157.076 109.678C157.461 109.73 157.832 109.782 158.198 109.808C158.922 109.873 159.595 109.938 160.179 109.964C160.473 109.997 160.736 109.984 160.98 109.997C161.224 110.01 161.435 110.01 161.608 110.01C161.961 110.01 162.172 110.022 162.172 110.022L162.191 110.107C162.191 110.107 162.012 110.204 161.672 110.347C161.506 110.425 161.294 110.503 161.05 110.562C160.807 110.627 160.525 110.705 160.211 110.737C159.897 110.776 159.557 110.815 159.198 110.802C158.839 110.815 158.461 110.763 158.076 110.705C157.691 110.64 157.3 110.536 156.909 110.425C156.518 110.315 156.134 110.152 155.762 109.971C155.384 109.808 155.025 109.607 154.646 109.483C154.275 109.327 153.896 109.223 153.525 109.126C153.146 109.035 152.787 108.931 152.46 108.794C152.14 108.652 151.851 108.476 151.589 108.32C151.069 107.989 150.672 107.657 150.409 107.411C150.146 107.164 150.012 106.995 150.012 106.995L150.057 106.923Z" fill="#E27D84"/>
<path d="M167.438 115.753C167.438 115.753 167.438 115.753 167.438 115.779V115.799C167.438 115.799 167.419 115.844 167.368 115.818C167.342 115.799 167.355 115.805 167.349 115.799C167.342 115.786 167.336 115.779 167.336 115.773C167.336 115.766 167.329 115.753 167.323 115.74C167.31 115.695 167.285 115.623 167.259 115.539C167.208 115.357 167.15 115.097 167.073 114.759C166.932 114.083 166.778 113.115 166.688 111.946C166.65 111.361 166.611 110.724 166.618 110.049C166.618 109.373 166.701 108.665 166.765 107.937C166.849 107.209 166.913 106.449 166.958 105.689C167.009 104.922 167.022 104.142 167.067 103.356C167.092 102.57 167.169 101.784 167.285 101.017C167.406 100.25 167.567 99.4967 167.753 98.7755C167.945 98.0542 168.188 97.372 168.49 96.7483C168.778 96.1245 169.118 95.5592 169.483 95.0719C170.208 94.0908 171.054 93.48 171.676 93.1746C171.99 93.0252 172.246 92.9342 172.426 92.8823C172.605 92.8368 172.701 92.8108 172.701 92.8108L172.733 92.8888C172.733 92.8888 172.65 92.9407 172.496 93.0317C172.342 93.1227 172.118 93.2591 171.862 93.467C171.605 93.6749 171.304 93.9284 171.009 94.2727C170.714 94.6171 170.406 95.0264 170.124 95.5072C169.836 95.9815 169.567 96.5273 169.317 97.1251C169.073 97.7229 168.836 98.3661 168.618 99.0419C168.394 99.7176 168.208 100.432 168.035 101.173C167.862 101.907 167.701 102.661 167.541 103.421C167.4 104.181 167.272 104.948 167.227 105.715C167.176 106.475 167.182 107.229 167.233 107.956C167.272 108.684 167.349 109.386 167.374 110.049C167.406 110.711 167.406 111.342 167.419 111.92C167.432 113.083 167.438 114.051 167.432 114.733C167.432 115.071 167.432 115.344 167.432 115.526C167.432 115.617 167.432 115.688 167.432 115.734C167.432 115.747 167.432 115.753 167.432 115.76L167.419 115.747C167.368 115.727 167.349 115.779 167.355 115.766H167.438V115.753Z" fill="#E27D84"/>
<path d="M143.872 101.53C143.872 101.53 144.071 101.478 144.417 101.394C144.757 101.31 145.237 101.173 145.801 101.011C146.083 100.926 146.391 100.842 146.712 100.744C147.045 100.673 147.398 100.595 147.763 100.51C148.5 100.341 149.231 99.9516 149.834 99.3993C150.135 99.1329 150.436 98.8665 150.731 98.6001C151.026 98.3337 151.327 98.0998 151.596 97.8334C151.866 97.5735 152.141 97.3396 152.404 97.1187C152.654 96.8848 152.904 96.6769 153.135 96.4819C153.616 96.1116 153.981 95.7607 154.282 95.5528C154.571 95.3384 154.75 95.2214 154.75 95.2214L154.814 95.2799C154.814 95.2799 154.725 95.4683 154.539 95.7867C154.449 95.9492 154.327 96.1376 154.186 96.3455C154.052 96.5664 153.879 96.7938 153.68 97.0277C153.475 97.2681 153.257 97.5215 153.013 97.7814C152.763 98.0413 152.468 98.2752 152.167 98.5221C151.872 98.7755 151.519 98.9835 151.18 99.2174C150.846 99.4578 150.455 99.6202 150.084 99.7957C149.718 99.9906 149.314 100.114 148.975 100.328C148.616 100.51 148.269 100.712 147.942 100.933C147.609 101.134 147.282 101.349 146.942 101.465C146.609 101.602 146.269 101.66 145.962 101.725C145.648 101.764 145.359 101.803 145.103 101.797C144.846 101.803 144.622 101.777 144.436 101.751C144.071 101.693 143.865 101.608 143.865 101.608V101.524L143.872 101.53Z" fill="#E27D84"/>
<path d="M125.07 124.486C125.07 124.486 125.198 124.382 125.423 124.239C125.647 124.096 125.974 123.914 126.371 123.726C126.577 123.641 126.788 123.537 127.025 123.459C127.262 123.381 127.538 123.342 127.814 123.29C128.089 123.232 128.365 123.141 128.621 123.004C128.878 122.868 129.134 122.719 129.352 122.504C129.577 122.303 129.795 122.095 130.032 121.926C130.147 121.841 130.263 121.757 130.378 121.672C130.487 121.581 130.589 121.491 130.698 121.4C131.102 121.029 131.57 120.808 131.923 120.548C132.634 120.042 133.237 119.795 133.237 119.795L133.301 119.853C133.301 119.853 133.025 120.418 132.423 121.146C132.128 121.51 131.692 121.835 131.211 122.153C130.974 122.316 130.711 122.459 130.436 122.582C130.166 122.719 129.872 122.816 129.583 122.92C129.301 123.03 129 123.108 128.737 123.245C128.468 123.368 128.23 123.544 128 123.719C127.762 123.888 127.538 124.057 127.301 124.174C127.07 124.297 126.833 124.369 126.609 124.427C126.166 124.551 125.788 124.596 125.512 124.603C125.243 124.616 125.083 124.583 125.083 124.583L125.064 124.499L125.07 124.486Z" fill="#E27D84"/>
<path d="M183.667 128.742C183.667 128.742 183.462 128.423 183.129 127.858C182.949 127.585 182.802 127.202 182.526 126.851C182.263 126.493 181.988 126.084 181.693 125.636C181.347 125.22 180.962 124.772 180.584 124.278C180.141 123.843 179.75 123.297 179.25 122.829C178.744 122.361 178.225 121.861 177.59 121.51C177.282 121.321 176.975 121.12 176.641 120.971L175.628 120.542C175.295 120.392 174.943 120.288 174.596 120.171C174.25 120.054 173.917 119.918 173.571 119.821C172.885 119.619 172.218 119.392 171.551 119.249C170.891 119.067 170.25 118.943 169.641 118.787C169.032 118.651 168.455 118.521 167.917 118.411C167.378 118.307 166.885 118.203 166.449 118.118C166.006 118.04 165.622 117.969 165.308 117.91C164.667 117.793 164.301 117.728 164.301 117.728V117.644C164.301 117.644 164.673 117.592 165.327 117.566C165.981 117.54 166.917 117.54 168.032 117.644C169.148 117.761 170.449 117.956 171.795 118.378C172.468 118.573 173.154 118.839 173.84 119.106C174.513 119.405 175.199 119.723 175.84 120.119C176.487 120.503 177.122 120.893 177.737 121.302C178.372 121.672 178.949 122.114 179.552 122.485C179.859 122.66 180.109 122.913 180.379 123.121C180.648 123.336 180.898 123.557 181.141 123.778C181.571 124.271 181.949 124.772 182.295 125.226C182.584 125.733 182.84 126.201 183.052 126.617C183.173 126.818 183.244 127.02 183.302 127.208C183.366 127.397 183.423 127.566 183.468 127.728C183.661 128.358 183.757 128.722 183.757 128.722L183.68 128.755L183.667 128.742Z" fill="#E27D84"/>
<path d="M109.596 58.8484C109.596 58.8484 114.237 26.8159 138.109 25.8868C138.109 25.8868 155.796 21.1307 172.892 35.1002C189.995 49.0697 182.085 70.102 179.649 74.2214C179.649 74.2214 114.987 66.3985 109.596 58.8484Z" fill="#DBDBDB"/>
<path d="M176.63 67.8929C176.63 67.8929 184.412 68.4777 183.739 74.9622C183.066 81.4466 173.707 85.9429 172.457 83.7727L176.63 67.8929Z" fill="#FFF1E3"/>
<path d="M176.988 70.6089C176.988 70.6089 182.084 70.9922 181.642 75.2351C181.206 79.4779 175.078 82.4278 174.257 81.0048L176.988 70.6089Z" fill="#FCB8B1"/>
<path d="M112.275 58.985C112.275 58.985 104.627 57.4321 103.557 63.8646C102.486 70.297 110.313 77.1714 112.096 75.4235L112.275 58.9915V58.985Z" fill="#FFF1E3"/>
<path d="M111.212 61.4995C111.212 61.4995 106.205 60.4859 105.5 64.6897C104.802 68.9001 109.923 73.4028 111.09 72.2528L111.206 61.493L111.212 61.4995Z" fill="#FCB8B1"/>
<path d="M110.365 71.5379C110.365 71.5379 113.147 94.4285 139.186 96.3842C165.225 98.3335 174.603 84.4744 174.937 79.0945C175.225 74.4813 185.219 45.0218 159.725 32.1178C134.231 19.2074 111.211 44.5085 110.365 71.5379Z" fill="#FFF1E3"/>
<path opacity="0.8" d="M128.571 74.2408C128.129 77.548 125.116 79.8676 121.853 79.4128C118.59 78.958 116.302 75.9106 116.751 72.6034C117.199 69.2962 120.206 66.9766 123.469 67.4315C126.732 67.8798 129.014 70.9336 128.571 74.2408Z" fill="url(#paint1_radial_1582_9124)"/>
<path opacity="0.8" d="M150.129 77.2232C149.681 80.5304 151.969 83.5777 155.232 84.0325C158.495 84.4873 161.501 82.1677 161.95 78.8605C162.399 75.5468 160.11 72.506 156.848 72.0512C153.585 71.6029 150.578 73.916 150.129 77.2232Z" fill="url(#paint2_radial_1582_9124)"/>
<path d="M140.071 69.0753C140.071 69.0753 137.667 72.9088 139.116 76.1446C139.116 76.1446 133.5 71.6548 140.071 69.0753Z" fill="#FCB8B1"/>
<path d="M136.975 69.9397C136.674 72.1553 134.667 73.7017 132.481 73.4029C130.295 73.0975 128.77 71.0573 129.065 68.8481C129.359 66.6325 131.379 65.0861 133.558 65.385C135.744 65.6839 137.27 67.7241 136.975 69.9397Z" stroke="#FF61A1" stroke-width="1.1373" stroke-linecap="round" stroke-linejoin="round"/>
<path d="M148.752 71.5706C148.457 73.7862 146.444 75.3326 144.258 75.0337C142.072 74.7348 140.546 72.6946 140.841 70.479C141.142 68.2634 143.149 66.717 145.335 67.0158C147.521 67.3212 149.046 69.3614 148.752 71.5706Z" stroke="#FF61A1" stroke-width="1.1373" stroke-linecap="round" stroke-linejoin="round"/>
<path d="M137.18 68.3997C137.18 68.3997 139.507 66.8143 141.353 68.978" stroke="#FF61A1" stroke-width="1.1373" stroke-linecap="round" stroke-linejoin="round"/>
<path d="M116.308 67.1716C116.308 67.1716 116.34 67.2366 116.372 67.3341C116.385 67.386 116.411 67.4445 116.423 67.516C116.43 67.5875 116.468 67.6589 116.507 67.7109C116.545 67.7694 116.577 67.8214 116.603 67.8669C116.635 67.9188 116.68 67.9903 116.705 68.0553C116.731 68.1203 116.763 68.1852 116.802 68.2567C116.84 68.3217 116.859 68.3932 116.891 68.4646C116.962 68.6076 117.007 68.7635 117.064 68.913C117.109 69.0754 117.161 69.2183 117.186 69.3743C117.218 69.5302 117.25 69.6537 117.263 69.7641C117.276 69.8681 117.282 69.9396 117.282 69.9396C117.282 69.9396 117.218 69.9396 117.109 69.9396C117.007 69.9266 116.84 69.9071 116.693 69.8226C116.532 69.7511 116.359 69.6407 116.212 69.4847C116.141 69.4068 116.058 69.3288 116 69.2313C115.936 69.1339 115.885 69.0299 115.834 68.9324C115.757 68.705 115.68 68.4841 115.699 68.2372C115.699 68.1203 115.705 68.0163 115.731 67.8993C115.763 67.7759 115.808 67.6719 115.853 67.581C115.891 67.4835 115.943 67.4185 116 67.386C116.052 67.3406 116.103 67.3016 116.148 67.2691C116.238 67.2106 116.295 67.1781 116.295 67.1781L116.308 67.1716Z" fill="#FCB8B1"/>
<path d="M113.924 68.2827C113.924 68.2827 113.956 68.3542 113.994 68.4777C114.033 68.6141 114.103 68.7246 114.187 68.8805C114.27 69.03 114.379 69.1794 114.488 69.3353C114.603 69.4978 114.725 69.6667 114.847 69.8421C115.103 70.193 115.366 70.5763 115.552 70.9142C115.744 71.2391 115.866 71.538 115.866 71.538C115.866 71.538 115.546 71.5835 115.148 71.4405C114.738 71.3171 114.263 70.9922 113.917 70.5244C113.751 70.284 113.616 70.0176 113.545 69.7317C113.475 69.4523 113.469 69.1664 113.526 68.9325C113.571 68.7116 113.68 68.4972 113.763 68.4192C113.853 68.3282 113.911 68.2762 113.911 68.2762L113.924 68.2827Z" fill="#FCB8B1"/>
<path d="M131.635 76.3461C131.635 76.3461 131.532 76.45 131.346 76.619C131.257 76.7034 131.141 76.8009 131.007 76.9113C130.872 77.0153 130.757 77.1712 130.616 77.3012C130.475 77.4376 130.327 77.5871 130.167 77.743C130.013 77.912 129.846 78.0874 129.667 78.2628C129.487 78.4318 129.314 78.6202 129.135 78.8151C128.955 79.0035 128.769 79.192 128.584 79.3804C128.404 79.5753 128.231 79.7702 128.045 79.9587C127.859 80.1471 127.68 80.329 127.519 80.5174C127.353 80.6994 127.186 80.8748 127.019 81.0372C126.866 81.2062 126.725 81.3686 126.59 81.518C126.462 81.674 126.308 81.7974 126.212 81.9274C126.116 82.0573 126.019 82.1678 125.943 82.2588C125.782 82.4472 125.68 82.5576 125.68 82.5576C125.68 82.5576 125.693 82.4212 125.737 82.1678C125.763 82.0443 125.789 81.8884 125.834 81.713C125.872 81.5375 125.955 81.3621 126.039 81.1607C126.122 80.9658 126.212 80.7449 126.327 80.5239C126.449 80.316 126.584 80.0951 126.731 79.8742C127.007 79.4129 127.398 79.0035 127.769 78.5747C128.18 78.1913 128.577 77.782 129.02 77.4831C129.237 77.3272 129.449 77.1842 129.654 77.0543C129.866 76.9243 130.096 76.8269 130.289 76.7359C130.487 76.645 130.661 76.554 130.827 76.515C130.987 76.4695 131.135 76.4435 131.257 76.4175C131.5 76.3721 131.641 76.3526 131.641 76.3526L131.635 76.3461Z" fill="#FCB8B1"/>
<path d="M146.506 78.4058C146.506 78.4058 146.673 78.3928 146.968 78.4643C147.269 78.5293 147.673 78.6917 148.102 78.9841C148.327 79.1206 148.532 79.3155 148.75 79.5104C148.968 79.7118 149.166 79.9522 149.372 80.1991C149.577 80.446 149.75 80.7254 149.929 81.0113C150.109 81.3037 150.256 81.5701 150.397 81.934C150.532 82.2978 150.622 82.6227 150.686 82.9476C150.75 83.2724 150.814 83.5908 150.852 83.8962C150.936 84.5069 150.993 85.0787 151.032 85.566C151.07 86.0533 151.102 86.4562 151.134 86.7421C151.16 87.028 151.205 87.1904 151.205 87.1904C151.205 87.1904 151.096 87.0669 150.942 86.807C150.801 86.5472 150.628 86.1638 150.455 85.7025C150.282 85.2347 150.109 84.6889 149.936 84.1106C149.852 83.8247 149.763 83.5258 149.673 83.2269C149.577 82.9346 149.481 82.6357 149.384 82.3953C149.295 82.1549 149.096 81.8625 148.961 81.6026C148.82 81.3297 148.654 81.0828 148.506 80.8359C148.365 80.5825 148.198 80.3616 148.057 80.1407C147.916 79.9197 147.756 79.7248 147.622 79.5429C147.339 79.179 147.064 78.8996 146.859 78.7112C146.654 78.5228 146.506 78.4188 146.506 78.4188V78.4058Z" fill="#FCB8B1"/>
<path d="M165.097 72.4409C165.097 72.4409 165.142 72.4864 165.206 72.5644C165.257 72.6554 165.366 72.7398 165.398 72.9153C165.418 73.0062 165.437 73.1102 165.437 73.2206C165.443 73.3441 165.418 73.4286 165.398 73.539C165.373 73.643 165.354 73.7599 165.302 73.8509C165.257 73.9484 165.2 74.0458 165.142 74.1368C165.007 74.2992 164.866 74.4617 164.7 74.5591C164.539 74.6696 164.373 74.7411 164.213 74.7735C163.905 74.858 163.648 74.806 163.648 74.806C163.648 74.806 163.68 74.5396 163.783 74.2667C163.879 73.9808 164.033 73.6885 164.206 73.4545C164.277 73.3311 164.386 73.2271 164.463 73.1232C164.501 73.0777 164.572 73.0192 164.597 72.9802C164.636 72.9413 164.687 72.9023 164.732 72.8568C164.834 72.7723 164.892 72.6229 164.969 72.5579C165.033 72.4799 165.084 72.4344 165.084 72.4344L165.097 72.4409Z" fill="#FCB8B1"/>
<path d="M167.059 73.2532C167.059 73.2532 167.104 73.3052 167.162 73.3961C167.213 73.4936 167.309 73.6041 167.335 73.7925C167.379 73.9809 167.392 74.2083 167.36 74.4162C167.341 74.6372 167.264 74.8451 167.174 75.053C167.065 75.2479 166.95 75.4428 166.79 75.5923C166.642 75.7482 166.476 75.8652 166.303 75.9367C166.149 76.0211 165.982 76.0471 165.873 76.0601C165.764 76.0731 165.7 76.0601 165.7 76.0601C165.7 76.0601 165.706 75.9886 165.726 75.8782C165.745 75.7872 165.777 75.6508 165.809 75.4883C165.841 75.3389 165.886 75.1829 165.937 75.014C166.001 74.8581 166.053 74.6826 166.136 74.5332C166.2 74.3708 166.309 74.2278 166.386 74.0784C166.488 73.9289 166.572 73.812 166.668 73.7015C166.77 73.5976 166.847 73.4546 166.918 73.3767C166.988 73.2922 167.04 73.2467 167.04 73.2467L167.059 73.2532Z" fill="#FCB8B1"/>
<path d="M132.686 53.8C132.686 53.8 133.474 53.683 134.641 53.6636C135.224 53.6441 135.904 53.6506 136.628 53.683C136.994 53.7025 137.365 53.709 137.75 53.748C138.128 53.7805 138.506 53.813 138.891 53.8455C139.276 53.8975 139.654 53.9429 140.013 53.9754C140.378 54.0079 140.756 54.0599 141.115 54.1054C141.84 54.2028 142.513 54.3133 143.09 54.4692C143.378 54.5342 143.641 54.6187 143.866 54.7096C144.096 54.7876 144.289 54.8656 144.449 54.9501C144.763 55.106 144.93 55.2035 144.93 55.2035C144.93 55.2035 144.725 55.2035 144.391 55.171C144.051 55.145 143.577 55.132 143.007 55.132C142.436 55.1255 141.769 55.1385 141.051 55.132C140.686 55.119 140.321 55.132 139.93 55.0995C139.539 55.08 139.147 55.0475 138.763 55.0085C138.378 54.963 137.994 54.9176 137.615 54.8721C137.244 54.8331 136.872 54.7616 136.519 54.7096C135.808 54.5992 135.147 54.4692 134.577 54.3328C133.442 54.0794 132.699 53.8065 132.699 53.8065L132.686 53.8Z" fill="#FCB8B1"/>
<path d="M136.129 56.9187C136.129 56.9187 136.578 56.7952 137.219 56.7628C137.379 56.7563 137.552 56.7433 137.738 56.7433C137.917 56.7303 138.103 56.7173 138.296 56.7043C138.68 56.6848 139.078 56.6913 139.482 56.7108C140.315 56.7368 141.142 56.8407 141.776 57.0291C142.405 57.1916 142.809 57.406 142.809 57.406C142.809 57.406 142.379 57.5879 141.751 57.6984C141.129 57.8218 140.276 57.8998 139.437 57.8738C139.001 57.8478 138.565 57.7958 138.161 57.7244C137.962 57.6919 137.764 57.6529 137.59 57.6074C137.417 57.5489 137.257 57.484 137.11 57.419C136.514 57.1786 136.135 56.9187 136.135 56.9187H136.129Z" fill="#FCB8B1"/>
<path d="M136.962 59.3162C136.962 59.3162 137.168 59.1343 137.469 59.0108C137.77 58.8679 138.161 58.7964 138.552 58.8159C138.95 58.8484 139.341 58.9783 139.616 59.1538C139.898 59.3162 140.065 59.5241 140.065 59.5241C140.065 59.5241 139.847 59.6996 139.546 59.8165C139.245 59.9465 138.86 60.0049 138.488 59.9724C138.103 59.953 137.719 59.8425 137.437 59.6736C137.155 59.5241 136.969 59.3162 136.969 59.3162H136.962Z" fill="#FCB8B1"/>
<path d="M130.378 60.5312C130.378 60.5312 131.564 60.4468 133.333 60.4792C134.218 60.4857 135.243 60.5247 136.346 60.5832C136.897 60.6222 137.468 60.6417 138.038 60.6937C138.615 60.7391 139.199 60.7911 139.788 60.8366C140.372 60.9016 140.962 60.9665 141.538 61.0315C142.122 61.1095 142.699 61.2199 143.237 61.3109C143.776 61.4149 144.301 61.5123 144.795 61.6033C145.289 61.6813 145.75 61.7852 146.18 61.8437C146.609 61.9022 147.007 61.9801 147.359 62.0126C147.712 62.0451 148.019 62.1036 148.276 62.1036C148.789 62.1296 149.09 62.1556 149.09 62.1556C149.09 62.1556 148.808 62.2271 148.289 62.331C148.032 62.396 147.718 62.4155 147.353 62.4545C146.987 62.4999 146.577 62.5064 146.128 62.5064C145.231 62.5129 144.192 62.435 143.096 62.318C142.545 62.253 141.994 62.2141 141.429 62.1426C140.853 62.0906 140.269 62.0386 139.686 61.9867C139.102 61.9217 138.519 61.8632 137.942 61.7982C137.365 61.7397 136.801 61.6553 136.256 61.5903C135.166 61.4474 134.147 61.2849 133.275 61.129C131.532 60.8236 130.384 60.5182 130.384 60.5182L130.378 60.5312Z" fill="#FCB8B1"/>
<path d="M137.277 37.8095C137.277 37.8095 129.776 60.2322 112.353 58.9912C112.353 58.9912 115.565 30.058 136.488 28.9405C136.488 28.9405 149.828 26.0881 158.937 29.7981C168.047 33.5082 184.855 47.2243 177.265 67.9772C177.265 67.9772 143.379 66.8077 137.283 37.816L137.277 37.8095Z" fill="#DBDBDB"/>
<path d="M187.809 31.3771C186.931 37.8745 181.027 42.4228 174.617 41.5326C168.206 40.6425 163.719 34.6583 164.597 28.1608C165.476 21.6634 171.38 17.1152 177.79 18.0053C184.2 18.889 188.688 24.8796 187.809 31.3771Z" fill="#DBDBDB"/>
<path d="M111.174 58.0821C111.174 58.0821 111.097 57.4519 111.174 56.3668C111.238 55.2817 111.449 53.7353 111.962 51.9355C112.238 51.0454 112.533 50.0772 112.994 49.1091C113.43 48.1345 114.045 47.1859 114.686 46.2178C116.02 44.314 117.321 42.2803 118.706 40.2206C119.424 39.22 120.174 38.2129 121.046 37.3552C121.475 36.9134 121.905 36.4911 122.366 36.1012C122.591 35.8998 122.815 35.7049 123.039 35.5099C123.27 35.328 123.501 35.1461 123.732 34.9641C123.962 34.7887 124.193 34.6068 124.417 34.4314C124.655 34.2754 124.892 34.113 125.129 33.9635C125.597 33.6517 126.065 33.3658 126.539 33.1254C127.469 32.5991 128.411 32.2287 129.264 31.8649C130.142 31.5725 130.937 31.2671 131.668 31.1047C132.033 31.0137 132.373 30.9357 132.687 30.8643C133.001 30.7863 133.289 30.7278 133.559 30.7018C134.623 30.5394 135.225 30.4939 135.225 30.4939L135.27 30.6628C135.27 30.6628 134.719 30.9487 133.757 31.3711C133.27 31.566 132.713 31.8844 132.052 32.1832C131.392 32.4821 130.68 32.8915 129.892 33.2878C129.123 33.7231 128.283 34.178 127.437 34.7237C127.001 34.9706 126.571 35.263 126.129 35.5489C125.905 35.6919 125.68 35.8348 125.456 35.9778C125.232 36.1337 125.007 36.2831 124.783 36.4391C124.559 36.595 124.328 36.751 124.097 36.9069C123.873 37.0758 123.648 37.2448 123.424 37.4202C122.962 37.7516 122.526 38.1219 122.078 38.4988C121.193 39.246 120.296 40.0257 119.424 40.8509C118.571 41.689 117.763 42.5922 117.11 43.5798C116.424 44.5479 115.924 45.62 115.494 46.6596C115.09 47.7187 114.738 48.7518 114.385 49.7134C114.033 50.675 113.648 51.5652 113.353 52.4098C113.026 53.2415 112.77 54.0277 112.513 54.7099C112.276 55.4052 112.065 56.0094 111.892 56.5097C111.545 57.5233 111.353 58.1016 111.353 58.1016L111.18 58.0821H111.174Z" fill="#C1C1C1"/>
<path d="M138.367 29.6296C138.367 29.6296 139.316 29.4477 140.989 29.3827C141.829 29.3567 142.848 29.3372 144.015 29.4087C145.181 29.4607 146.495 29.6036 147.925 29.8181C149.348 30.0585 150.886 30.3638 152.47 30.8447C154.053 31.332 155.675 32.0077 157.29 32.8134C158.912 33.6061 160.534 34.5157 162.169 35.4449C162.97 35.9387 163.803 36.4 164.592 36.9458C164.989 37.2057 165.412 37.4461 165.803 37.732L166.977 38.5831C167.38 38.856 167.746 39.1744 168.118 39.4798L169.233 40.4154C169.913 41.1106 170.643 41.7539 171.246 42.5076C171.861 43.2483 172.489 43.976 173.002 44.7752C173.272 45.1651 173.541 45.5549 173.81 45.9383C174.06 46.3346 174.284 46.7439 174.515 47.1403C174.746 47.5431 174.99 47.933 175.195 48.3358C175.381 48.7452 175.566 49.1545 175.752 49.5638C175.938 49.9667 176.118 50.3695 176.297 50.7659C176.438 51.1752 176.573 51.5846 176.708 51.9874C177.304 53.5728 177.605 55.1517 177.926 56.5811C178.118 58.0365 178.381 59.3555 178.4 60.551C178.458 61.7401 178.547 62.7667 178.483 63.6179C178.426 65.3202 178.355 66.2753 178.355 66.2753H178.182C178.182 66.2753 178.022 65.3202 177.797 63.6633C177.714 62.8317 177.477 61.8375 177.284 60.7005C177.118 59.5569 176.74 58.3029 176.432 56.9255C176.252 56.2432 176.015 55.548 175.797 54.8203C175.599 54.0861 175.31 53.3584 175.022 52.6112C174.881 52.2343 174.733 51.8574 174.592 51.4741C174.425 51.0972 174.252 50.7204 174.079 50.337C173.906 49.9537 173.733 49.5638 173.56 49.174C173.361 48.7971 173.163 48.4138 172.957 48.0239C172.752 47.6406 172.56 47.2442 172.342 46.8544C172.105 46.4775 171.868 46.1007 171.631 45.7238C171.182 44.9441 170.605 44.2359 170.066 43.4952C169.81 43.1119 169.502 42.7675 169.201 42.4166L168.31 41.3446L167.355 40.318C167.034 39.9736 166.72 39.6227 166.361 39.3173C165.002 38.0179 163.502 36.8483 161.9 35.9062C160.297 34.9705 158.624 34.2103 156.938 33.684C155.271 33.1058 153.611 32.7289 152.066 32.3196C151.29 32.1247 150.534 31.9297 149.797 31.7543C149.066 31.5659 148.348 31.4164 147.662 31.2735C144.918 30.6887 142.591 30.3508 140.957 30.1169C139.322 29.9025 138.373 29.7986 138.373 29.7986V29.6231L138.367 29.6296Z" fill="#C1C1C1"/>
<path d="M135.552 33.1839C135.552 33.1839 135.539 33.3139 135.507 33.5543C135.475 33.7947 135.411 34.1456 135.308 34.5809C135.212 35.0227 135.058 35.5425 134.866 36.1403C134.667 36.7316 134.417 37.3878 134.11 38.083C133.776 38.7653 133.449 39.5385 132.962 40.2662C132.513 41.0199 131.904 41.7281 131.295 42.4623C130.699 43.203 130.033 43.9307 129.494 44.7624C128.879 45.5356 128.359 46.4128 127.789 47.2509C127.199 48.0761 126.661 48.9663 125.949 49.681C125.609 50.0514 125.27 50.4217 124.936 50.7856C124.609 51.1559 124.218 51.4613 123.872 51.7927C123.52 52.1175 123.161 52.4294 122.808 52.7283C122.449 53.0272 122.058 53.2546 121.693 53.508C120.949 53.9823 120.257 54.4501 119.545 54.749C118.846 55.0674 118.205 55.3598 117.628 55.5872C117.032 55.7756 116.5 55.9056 116.071 56.016C115.205 56.2304 114.712 56.3149 114.712 56.3149L114.654 56.1525C114.654 56.1525 115.071 55.8406 115.808 55.3728C116.173 55.1389 116.622 54.866 117.135 54.5606C117.616 54.1967 118.173 53.8199 118.77 53.404C119.398 53.0337 119.981 52.4944 120.654 52.0071C120.981 51.7537 121.34 51.5198 121.68 51.2469C122.013 50.9675 122.359 50.6816 122.725 50.4087C123.077 50.1228 123.462 49.8629 123.808 49.5445C124.161 49.2327 124.52 48.9143 124.879 48.5959C125.616 47.9722 126.327 47.2899 127.077 46.6402C127.821 45.9774 128.468 45.2172 129.077 44.4505C129.36 44.0542 129.635 43.6449 129.872 43.229C130.122 42.8197 130.347 42.3973 130.533 41.962C130.924 41.1043 131.283 40.2792 131.654 39.5125C132.039 38.7588 132.449 38.07 132.808 37.4138C133.187 36.777 133.507 36.1728 133.828 35.6595C134.122 35.1332 134.417 34.6849 134.635 34.308C135.097 33.5608 135.385 33.132 135.385 33.132L135.546 33.1904L135.552 33.1839Z" fill="#C1C1C1"/>
<path d="M139.347 33.6519C139.347 33.6519 139.719 34.3666 140.392 35.5881C141.072 36.8031 142.053 38.5185 143.328 40.5067C143.944 41.5138 144.681 42.5599 145.418 43.6969C146.175 44.821 146.918 46.049 147.777 47.2705C148.194 47.8878 148.662 48.4856 149.143 49.0833C149.386 49.3757 149.643 49.6681 149.905 49.954C150.168 50.2399 150.418 50.5323 150.707 50.7987C151.803 51.9097 153.021 52.9298 154.303 53.8525C155.572 54.7946 156.899 55.6393 158.175 56.5099C158.816 56.9388 159.47 57.3351 160.111 57.7444C160.758 58.1278 161.406 58.5047 162.034 58.875C162.675 59.2324 163.303 59.5832 163.919 59.9276C164.226 60.103 164.534 60.2655 164.842 60.4214C165.143 60.5838 165.444 60.7463 165.739 60.9087C166.322 61.2401 166.912 61.526 167.476 61.8054C168.04 62.0913 168.579 62.3836 169.117 62.6305C170.181 63.1308 171.149 63.6247 172.028 64.0015C172.906 64.3849 173.662 64.7682 174.303 65.0281C175.573 65.5804 176.303 65.9248 176.303 65.9248L176.259 66.0937C176.259 66.0937 175.47 65.9702 174.098 65.6908C173.406 65.5674 172.592 65.3335 171.649 65.0736C170.701 64.8332 169.669 64.4498 168.528 64.06C167.406 63.6182 166.181 63.1568 164.944 62.5331C163.688 61.9613 162.412 61.2271 161.124 60.4344C160.495 60.0186 159.841 59.6092 159.2 59.1609C158.572 58.6996 157.925 58.2577 157.297 57.7704C156.034 56.8023 154.835 55.7172 153.694 54.5802C153.123 54.0149 152.546 53.4496 152.002 52.8714C151.431 52.3126 150.886 51.7343 150.335 51.169C149.226 50.045 148.136 48.9339 147.078 47.8618C146.014 46.7897 145.027 45.6982 144.194 44.5806C143.373 43.4565 142.674 42.3325 142.085 41.2734C141.501 40.2013 141.001 39.2007 140.623 38.2845C140.226 37.3749 139.944 36.5562 139.732 35.8805C139.303 34.5225 139.194 33.7038 139.194 33.7038L139.36 33.6519H139.347Z" fill="#C1C1C1"/>
<path d="M143.97 34.269C143.97 34.269 144.444 34.6979 145.213 35.4776C145.598 35.8674 146.066 36.3352 146.585 36.894C147.111 37.4398 147.688 38.0701 148.316 38.7588C148.938 39.4475 149.617 40.1947 150.303 41.0134C150.989 41.8321 151.637 42.7612 152.361 43.6904C153.066 44.6325 153.861 45.5421 154.746 46.3868C155.611 47.2575 156.611 48.0047 157.598 48.7649C158.611 49.4926 159.637 50.1878 160.598 50.922C161.598 51.6043 162.554 52.3255 163.515 52.9557C164.496 53.5535 165.387 54.2227 166.272 54.7815C167.163 55.3273 167.977 55.9121 168.759 56.3864C169.547 56.8477 170.278 57.2701 170.919 57.6664C171.554 58.0757 172.156 58.3162 172.631 58.5955C173.586 59.1088 174.131 59.4467 174.131 59.4467L174.079 59.6156C174.079 59.6156 173.464 59.5117 172.387 59.2583C172.118 59.1933 171.823 59.1218 171.496 59.0374C171.169 58.9594 170.817 58.8684 170.464 58.719C169.74 58.4526 168.932 58.1277 168.047 57.7704C167.188 57.3675 166.284 56.8737 165.323 56.3539C164.368 55.8276 163.445 55.1389 162.483 54.4502C161.528 53.7484 160.611 52.9298 159.65 52.1436C158.72 51.3184 157.842 50.4022 156.97 49.4926C156.137 48.544 155.246 47.6603 154.38 46.7832C153.515 45.8995 152.585 45.1263 151.694 44.3466C150.784 43.5864 149.919 42.8392 149.175 42.053C148.406 41.2928 147.803 40.4546 147.201 39.7334C146.636 38.9732 146.117 38.2845 145.694 37.6347C145.265 36.9915 144.912 36.4197 144.643 35.9389C144.085 34.9773 143.842 34.3795 143.842 34.3795L143.983 34.2755L143.97 34.269Z" fill="#C1C1C1"/>
<path d="M165.078 29.8507C165.078 29.8507 165.392 29.8507 165.892 29.9742C166.392 30.0911 167.085 30.312 167.854 30.7019C168.232 30.9033 168.643 31.1177 169.034 31.4231C169.431 31.7155 169.777 32.1313 170.143 32.5342C170.508 32.937 170.893 33.3463 171.361 33.6517C171.803 33.9896 172.309 34.256 172.828 34.5224C173.335 34.7953 173.873 35.0422 174.322 35.393C174.777 35.7244 175.232 36.0558 175.643 36.4131C176.059 36.7575 176.444 37.1149 176.764 37.5047C177.085 37.8946 177.38 38.2584 177.617 38.6288C177.848 39.0056 178.066 39.3435 178.232 39.6619C178.399 39.9803 178.515 40.2791 178.611 40.5195C178.803 41.0068 178.874 41.2992 178.874 41.2992L178.732 41.4032C178.732 41.4032 178.463 41.2473 178.059 40.9419C177.854 40.7924 177.623 40.604 177.354 40.3831C177.079 40.1752 176.784 39.9283 176.47 39.6619C176.175 39.376 175.803 39.1096 175.47 38.7847C175.13 38.4598 174.764 38.122 174.425 37.7321C174.085 37.3423 173.707 36.9589 173.335 36.5626C172.963 36.1597 172.604 35.7244 172.252 35.2696C171.899 34.8213 171.495 34.4184 171.066 34.0806C170.63 33.7427 170.143 33.4893 169.636 33.3009C169.136 33.1124 168.643 32.937 168.226 32.7096C167.809 32.4822 167.444 32.2158 167.104 31.9689C166.771 31.7155 166.469 31.4751 166.213 31.2412C165.95 31.0203 165.732 30.7993 165.553 30.6239C165.194 30.26 165.008 30.0066 165.008 30.0066L165.085 29.8507H165.078Z" fill="#C1C1C1"/>
<path d="M171.476 32.5668C171.476 32.5668 171.341 32.2679 171.258 31.7286C171.219 31.4622 171.174 31.1373 171.174 30.7605C171.162 30.3901 171.187 29.9678 171.251 29.5195C171.322 29.0711 171.412 28.5773 171.61 28.09C171.803 27.6027 172.11 27.1284 172.45 26.6606C172.777 26.1863 173.117 25.7184 173.38 25.1986C173.674 24.6918 173.912 24.146 174.194 23.5938C174.463 23.035 174.79 22.4957 175.2 22.0344C175.617 21.5796 176.059 21.1572 176.533 20.8064C177.001 20.4425 177.508 20.1631 178.008 19.9682C178.264 19.8772 178.508 19.7798 178.751 19.7148C178.995 19.6563 179.232 19.6043 179.463 19.5523C179.925 19.4874 180.341 19.4289 180.719 19.4419C181.091 19.4484 181.418 19.4549 181.681 19.5004C182.213 19.5848 182.508 19.6758 182.508 19.6758L182.521 19.8512C182.521 19.8512 182.245 20.0072 181.771 20.2021C181.534 20.2931 181.258 20.4425 180.944 20.5659C180.63 20.7024 180.284 20.8713 179.918 21.0403C179.181 21.3911 178.392 21.8524 177.527 22.3268C177.098 22.5737 176.668 22.8596 176.245 23.1714C175.841 23.5093 175.367 23.8082 174.944 24.185C174.501 24.5424 174.13 24.9842 173.841 25.465C173.559 25.9523 173.38 26.4851 173.303 27.0244C173.213 27.5637 173.174 28.0835 173.065 28.5513C172.963 29.0191 172.815 29.448 172.694 29.8508C172.437 30.65 172.187 31.3257 171.995 31.8066C171.803 32.2874 171.655 32.5668 171.662 32.5668H171.488H171.476Z" fill="#C1C1C1"/>
<path d="M183.27 20.3253C183.27 20.3253 183.129 20.6502 182.834 21.1635C182.693 21.4169 182.513 21.7288 182.302 22.0666C182.097 22.4045 181.853 22.7878 181.59 23.1842C181.321 23.5805 181.039 24.0224 180.699 24.4512C180.359 24.8865 179.936 25.3024 179.526 25.7637C179.122 26.225 178.744 26.7513 178.5 27.3491C178.238 27.9338 178.09 28.5836 178.013 29.2333C177.936 29.8831 177.917 30.5263 177.872 31.1371C177.827 31.7478 177.834 32.3521 177.872 32.9174C177.917 33.4892 177.975 34.0284 178.039 34.5482C178.109 35.0615 178.174 35.5554 178.289 36.0102C178.359 36.4715 178.507 36.8808 178.584 37.2642C178.712 37.628 178.789 37.9724 178.879 38.2518C179.071 38.7976 179.154 39.1484 179.154 39.1484L179.013 39.2524C179.013 39.2524 178.731 39.051 178.289 38.6222C178.071 38.4077 177.84 38.1218 177.571 37.784C177.334 37.4266 177.052 37.0238 176.834 36.5365C176.372 35.5748 176.007 34.3143 176.084 32.9564C176.097 32.6185 176.116 32.2806 176.174 31.9363C176.212 31.5919 176.282 31.254 176.359 30.9162C176.5 30.2339 176.795 29.5842 177.103 28.9669C177.43 28.3497 177.731 27.7519 178.013 27.1476C178.295 26.5499 178.513 25.9326 178.718 25.3154C178.924 24.7046 179.135 24.1003 179.436 23.5935C179.731 23.0802 180.09 22.6579 180.424 22.2745C180.763 21.8977 181.103 21.5728 181.424 21.3064C181.738 21.0335 182.039 20.8256 182.289 20.6632C182.795 20.3318 183.135 20.2148 183.135 20.2148L183.251 20.3448L183.27 20.3253Z" fill="#C1C1C1"/>
<path d="M179.636 18.5059C179.636 18.5059 179.361 18.6618 178.893 18.8697C178.662 18.9802 178.386 19.1101 178.066 19.2466C177.758 19.383 177.406 19.539 177.027 19.7079C176.649 19.8638 176.252 20.0588 175.816 20.2147C175.38 20.3771 174.893 20.5006 174.386 20.6825C173.893 20.8709 173.399 21.1438 173.015 21.5532C172.63 21.956 172.322 22.4433 172.13 22.9826C171.918 23.5024 171.809 24.0547 171.643 24.555C171.591 24.8149 171.514 25.0683 171.463 25.3217C171.431 25.5816 171.367 25.8285 171.341 26.0754C171.322 26.3288 171.284 26.5692 171.252 26.8096C171.232 27.05 171.2 27.2904 171.168 27.5243C171.13 27.9922 171.04 28.434 171.027 28.8563C170.976 29.2786 170.944 29.6685 170.912 30.0194C170.88 30.3702 170.835 30.6821 170.816 30.942C170.764 31.4618 170.694 31.7802 170.694 31.7802L170.527 31.8127C170.527 31.8127 170.361 31.5463 170.136 31.059C170.014 30.8121 169.899 30.5067 169.79 30.1493C169.739 29.9674 169.668 29.779 169.617 29.571C169.579 29.3631 169.534 29.1422 169.489 28.9148C169.405 28.46 169.373 27.9467 169.361 27.4074C169.373 27.1345 169.386 26.8551 169.418 26.5757C169.457 26.2898 169.521 26.0039 169.591 25.7115C169.739 25.1333 169.963 24.5485 170.226 23.9767C170.508 23.4114 170.899 22.8981 171.341 22.4498C171.771 21.995 172.232 21.5922 172.649 21.1698C173.079 20.767 173.476 20.3381 173.874 19.9028C174.277 19.487 174.7 19.0776 175.175 18.8177C175.643 18.5513 176.124 18.4019 176.572 18.2849C177.021 18.1745 177.444 18.1225 177.816 18.103C178.188 18.077 178.521 18.103 178.784 18.1355C179.322 18.194 179.624 18.3239 179.624 18.3239V18.4994L179.636 18.5059Z" fill="#C1C1C1"/>
<path d="M177.04 41.0521C177.04 41.0521 177.098 41.0911 177.213 41.1756C177.322 41.2535 177.463 41.3965 177.642 41.5784C177.822 41.7668 178.021 42.0072 178.194 42.2996C178.373 42.592 178.591 42.9234 178.751 43.3132C178.905 43.7031 179.072 44.1319 179.168 44.6062C179.296 45.0741 179.232 45.6068 179.219 46.1396C179.194 46.6724 179.239 47.2052 179.328 47.7315C179.392 48.2643 179.54 48.7971 179.719 49.3299C179.886 49.8627 180.117 50.402 180.149 50.9478C180.213 51.487 180.271 52.0263 180.316 52.5461C180.367 53.0659 180.38 53.5727 180.354 54.047C180.296 54.5214 180.207 54.9632 180.123 55.3725C179.944 56.1912 179.739 56.8604 179.566 57.3218C179.392 57.7831 179.258 58.043 179.258 58.043L179.085 58.0235C179.085 58.0235 178.982 57.7376 178.88 57.2568C178.771 56.776 178.655 56.0937 178.591 55.2881C178.566 54.8852 178.54 54.4564 178.546 54.0016C178.514 53.5467 178.501 53.0724 178.527 52.5721C178.546 52.0783 178.585 51.565 178.63 51.0387C178.681 50.5124 178.732 49.9731 178.783 49.4403C178.848 48.9011 178.867 48.3553 178.816 47.829C178.764 47.3027 178.54 46.8154 178.328 46.3541C178.098 45.8927 177.899 45.4509 177.713 45.0416C177.546 44.6257 177.457 44.2099 177.367 43.8265C177.283 43.4432 177.181 43.0988 177.13 42.7804C177.098 42.6245 177.072 42.4686 177.059 42.3256C177.033 42.1892 177.008 42.0657 176.989 41.9488C176.95 41.7149 176.937 41.5134 176.912 41.377C176.892 41.2406 176.886 41.1626 176.886 41.1626L177.033 41.0716L177.04 41.0521Z" fill="#C1C1C1"/>
<path d="M176.002 39.8633C176.002 39.8633 176.034 39.8698 176.091 39.8958C176.149 39.9218 176.226 39.9542 176.297 40.0062C176.45 40.1102 176.617 40.2791 176.675 40.4935C176.7 40.604 176.726 40.7209 176.675 40.8444C176.63 40.9678 176.463 41.0718 176.322 41.1693C176.168 41.2667 176.059 41.3642 176.034 41.4876C175.995 41.6111 176.034 41.7605 176.085 41.936C176.136 42.1114 176.181 42.2998 176.143 42.4558C176.117 42.6117 176.059 42.7547 176.002 42.8976C175.88 43.177 175.611 43.3134 175.367 43.3589C175.239 43.3784 175.13 43.3979 175.015 43.3784C174.906 43.3654 174.803 43.3394 174.713 43.3069C174.54 43.2485 174.438 43.177 174.438 43.177L174.354 43.0275C174.354 43.0275 174.354 42.8976 174.354 42.7222C174.354 42.5467 174.373 42.3518 174.386 42.1634C174.399 42.0724 174.425 42.0009 174.444 41.923C174.463 41.845 174.527 41.806 174.591 41.7605C174.662 41.7216 174.758 41.6956 174.841 41.6436C174.925 41.5981 175.085 41.5851 175.226 41.5396C175.38 41.5006 175.495 41.4292 175.534 41.3252C175.591 41.2277 175.521 41.0978 175.425 40.9808C175.316 40.8574 175.2 40.7534 175.168 40.6755C175.136 40.591 175.175 40.5195 175.207 40.4546C175.284 40.3181 175.431 40.1882 175.566 40.0842C175.63 40.0322 175.7 39.9867 175.745 39.9542C175.797 39.9218 175.822 39.9023 175.822 39.9023L175.989 39.8698L176.002 39.8633Z" fill="#C1C1C1"/>
<path d="M171.546 36.1205C171.546 36.1205 171.36 36.1595 171.104 36.166C170.841 36.166 170.501 36.1465 170.142 36.0295C169.963 35.9711 169.777 35.9061 169.604 35.7761C169.431 35.6462 169.29 35.4318 169.123 35.2173C168.963 35.0029 168.764 34.834 168.527 34.756C168.29 34.6781 168.027 34.6716 167.751 34.717C167.476 34.769 167.213 34.808 166.976 34.8145C166.732 34.8145 166.501 34.808 166.277 34.8145C166.052 34.8145 165.847 34.782 165.655 34.743C165.463 34.704 165.277 34.6261 165.104 34.5806C164.931 34.5156 164.764 34.4571 164.616 34.3792C164.469 34.3207 164.334 34.2622 164.219 34.1972C163.988 34.0803 163.841 33.9763 163.841 33.9763L163.815 33.8009C163.815 33.8009 163.924 33.671 164.142 33.502C164.251 33.4176 164.386 33.3136 164.552 33.2356C164.719 33.1512 164.905 33.0927 165.116 33.0212C165.328 32.9497 165.559 32.9367 165.809 32.9172C166.059 32.8978 166.309 32.9432 166.565 33.0147C166.822 33.0797 167.072 33.1966 167.328 33.3071C167.584 33.4046 167.809 33.6255 168.033 33.8009C168.251 33.9958 168.469 34.1713 168.713 34.2622C168.944 34.3792 169.219 34.3792 169.495 34.3662C169.77 34.3532 170.053 34.3272 170.277 34.3987C170.508 34.4636 170.681 34.6001 170.847 34.7235C171.174 34.9834 171.379 35.2888 171.501 35.5422C171.623 35.7891 171.649 35.9776 171.649 35.9776L171.553 36.1205H171.546Z" fill="#C1C1C1"/>
<path d="M168.008 32.1572C168.008 32.1572 167.732 32.1702 167.29 32.1248C166.848 32.0793 166.245 31.9818 165.553 31.7934C165.207 31.6894 164.835 31.592 164.463 31.423C164.091 31.2476 163.719 31.0007 163.322 30.7408C162.924 30.4939 162.495 30.286 162.027 30.1885C161.559 30.0976 161.078 30.0521 160.578 30.0976C160.085 30.13 159.597 30.169 159.136 30.169C158.668 30.156 158.213 30.156 157.771 30.169C157.328 30.169 156.912 30.156 156.514 30.1365C156.11 30.0976 155.732 30.0586 155.379 30.0261C155.027 29.9871 154.7 29.9481 154.405 29.8896C154.117 29.8636 153.854 29.8247 153.636 29.7857C153.2 29.7077 152.937 29.6297 152.937 29.6297L152.905 29.4608C152.905 29.4608 153.123 29.3049 153.533 29.0969C153.738 28.993 153.988 28.8695 154.283 28.7591C154.578 28.6551 154.918 28.5707 155.296 28.4797C155.674 28.3822 156.085 28.3432 156.52 28.3108C156.956 28.2718 157.418 28.2913 157.892 28.3692C158.367 28.4212 158.847 28.5252 159.328 28.6421C159.815 28.7396 160.29 28.9605 160.758 29.1619C161.226 29.3568 161.681 29.5778 162.155 29.6752C162.617 29.8117 163.104 29.8442 163.585 29.8507C164.066 29.8701 164.54 29.8571 164.957 29.9741C165.38 30.0716 165.745 30.247 166.085 30.4094C166.758 30.7408 167.271 31.1371 167.604 31.4555C167.944 31.7674 168.091 32.0078 168.091 32.0078L168.014 32.1637L168.008 32.1572Z" fill="#C1C1C1"/>
<path d="M118.52 61.4151C118.52 61.4151 119.167 61.4996 120.084 61.5191C120.539 61.5321 121.065 61.5191 121.616 61.4671C121.892 61.4411 122.174 61.4086 122.456 61.3566C122.744 61.3241 123.027 61.2527 123.309 61.1812C123.597 61.1357 123.866 61.0187 124.148 60.9473C124.418 60.8433 124.687 60.7459 124.943 60.6484C125.2 60.5314 125.443 60.421 125.674 60.3105C125.918 60.2131 126.116 60.0701 126.328 59.9727C126.527 59.8557 126.732 59.7777 126.886 59.6673C127.046 59.5633 127.193 59.4789 127.315 59.4139C127.559 59.2774 127.713 59.1995 127.713 59.1995C127.713 59.1995 127.636 59.3424 127.475 59.5828C127.398 59.6998 127.296 59.8492 127.18 60.0051C127.071 60.1741 126.905 60.33 126.732 60.5054C126.552 60.6744 126.379 60.8888 126.142 61.0447C125.911 61.2072 125.68 61.4086 125.405 61.558C125.129 61.6945 124.853 61.8829 124.539 61.9934C124.225 62.0973 123.918 62.2403 123.591 62.3052C123.264 62.3767 122.93 62.4417 122.603 62.4677C122.277 62.5197 121.95 62.4872 121.642 62.4872C121.328 62.4807 121.033 62.4222 120.751 62.3767C120.475 62.3182 120.212 62.2533 119.982 62.1688C119.514 62.0194 119.148 61.8179 118.905 61.675C118.661 61.5256 118.539 61.4151 118.539 61.4151H118.52Z" fill="#C9C7C5"/>
<path d="M162.079 66.5414C162.079 66.5414 161.938 66.6259 161.668 66.7299C161.399 66.8273 161.008 66.9508 160.515 67.0093C160.271 67.0482 160.002 67.0612 159.72 67.0612C159.438 67.0612 159.136 67.0482 158.822 67.0028C158.515 66.9443 158.188 66.9118 157.88 66.8013C157.559 66.7169 157.252 66.5869 156.938 66.457C156.623 66.327 156.348 66.1256 156.059 65.9697C155.777 65.8007 155.54 65.5668 155.29 65.3784C155.053 65.177 154.854 64.9366 154.662 64.7286C154.457 64.5272 154.329 64.2868 154.181 64.0854C154.046 63.8775 153.912 63.6955 153.835 63.5071C153.745 63.3252 153.681 63.1628 153.623 63.0328C153.514 62.7664 153.463 62.6105 153.463 62.6105C153.463 62.6105 153.598 62.7144 153.809 62.8964C153.912 62.9873 154.046 63.0978 154.181 63.2277C154.316 63.3642 154.495 63.4811 154.668 63.6306C154.854 63.767 155.027 63.9489 155.245 64.0919C155.457 64.2413 155.675 64.3973 155.905 64.5597C156.143 64.7027 156.386 64.8521 156.63 65.0015C156.886 65.125 157.13 65.2939 157.406 65.3914C157.668 65.5148 157.931 65.6448 158.207 65.7293C158.476 65.8332 158.745 65.9177 159.015 66.0021C159.547 66.1516 160.059 66.2685 160.515 66.3465C161.418 66.5025 162.066 66.5479 162.066 66.5479L162.079 66.5414Z" fill="#C9C7C5"/>
<path d="M120.404 66.4631C120.404 66.4631 120.379 66.4631 120.334 66.4761C120.276 66.4891 120.193 66.5021 120.109 66.5086C119.93 66.5281 119.686 66.5476 119.391 66.5346C118.808 66.5151 118.02 66.3462 117.378 65.9173C117.058 65.7159 116.789 65.4495 116.571 65.1896C116.468 65.0597 116.378 64.9167 116.295 64.7868C116.205 64.6633 116.16 64.5204 116.096 64.4099C115.975 64.1825 115.923 63.9681 115.872 63.8252C115.827 63.6822 115.802 63.6042 115.802 63.6042C115.802 63.6042 115.853 63.6757 115.936 63.7927C116.026 63.9096 116.135 64.0916 116.314 64.2605C116.404 64.345 116.481 64.4554 116.59 64.5334C116.699 64.6179 116.808 64.7153 116.93 64.7933C117.18 64.9492 117.449 65.0857 117.731 65.1506C118.295 65.3066 118.872 65.2351 119.27 65.1182C119.468 65.0597 119.629 64.9947 119.731 64.9427C119.789 64.9167 119.814 64.8972 119.834 64.8907C119.859 64.8777 119.879 64.8648 119.879 64.8648C120.289 64.6373 120.795 64.7933 121.02 65.2026C121.244 65.612 121.09 66.1318 120.686 66.3592C120.609 66.4047 120.526 66.4306 120.443 66.4501H120.417L120.404 66.4631Z" fill="#543129"/>
<path d="M128.007 68.0617C128.007 70.7062 125.891 72.8568 123.282 72.8568C120.667 72.8568 118.552 70.7127 118.552 68.0682C118.552 65.4237 120.661 63.2731 123.276 63.2731C125.885 63.2731 128.007 65.4172 128.007 68.0617Z" fill="#543129"/>
<path d="M126.545 69.7245C126.545 70.6406 125.814 71.3814 124.91 71.3814C124.006 71.3814 123.276 70.6406 123.276 69.7245C123.276 68.8084 124.006 68.0677 124.91 68.0612C125.814 68.0612 126.545 68.8019 126.545 69.718V69.7245Z" fill="white"/>
<path d="M160.347 68.8024C160.347 68.8024 160.36 68.8089 160.392 68.8284C160.405 68.8414 160.437 68.8544 160.494 68.8804C160.597 68.9323 160.757 68.9973 160.956 69.0558C161.353 69.1727 161.93 69.2442 162.494 69.0883C162.776 69.0168 163.046 68.8803 163.296 68.7309C163.417 68.6529 163.52 68.5555 163.635 68.471C163.744 68.3865 163.828 68.2826 163.911 68.1981C164.09 68.0292 164.199 67.8473 164.289 67.7303C164.379 67.6133 164.424 67.5419 164.424 67.5419C164.424 67.5419 164.398 67.6198 164.353 67.7628C164.302 67.8992 164.251 68.1136 164.129 68.3476C164.065 68.4645 164.02 68.601 163.93 68.7244C163.847 68.8479 163.757 68.9908 163.655 69.1273C163.437 69.3872 163.167 69.6535 162.847 69.855C162.206 70.2838 161.417 70.4527 160.834 70.4722C160.539 70.4852 160.296 70.4722 160.116 70.4462C160.033 70.4397 159.949 70.4202 159.892 70.4137C159.847 70.4072 159.821 70.4008 159.821 70.4008H159.802C159.347 70.3098 159.046 69.868 159.129 69.4066C159.212 68.9453 159.648 68.6399 160.11 68.7244C160.199 68.7439 160.283 68.7764 160.36 68.8154L160.347 68.8024Z" fill="#543129"/>
<path d="M152.205 71.9926C152.205 74.6371 154.314 76.7877 156.93 76.7877C159.539 76.7877 161.661 74.6436 161.661 71.9991C161.661 69.3546 159.552 67.204 156.936 67.204C154.327 67.204 152.205 69.3481 152.205 71.9926Z" fill="#543129"/>
<path d="M156.309 74.0586C156.309 74.9747 157.039 75.7154 157.943 75.7154C158.847 75.7154 159.578 74.9747 159.578 74.0586C159.578 73.1424 158.847 72.4017 157.943 72.4017C157.039 72.4017 156.309 73.1424 156.309 74.0586Z" fill="white"/>
<path d="M142.212 83.0581C142.212 85.3323 140.488 87.184 138.366 87.184C136.244 87.184 134.52 85.3388 134.52 83.0581C134.52 80.7775 136.244 78.9323 138.366 78.9323C140.488 78.9323 142.212 80.7775 142.212 83.0581Z" fill="#EF9289"/>
</g>
<path d="M191.212 137.782L210.623 128.542L214.02 135.735L230.303 133.721L210.565 142.193L206.706 136.651L191.212 137.782Z" fill="#D32F2F"/>
<path d="M189.084 134.071L194.969 119.16L200.386 121.304L208.174 111.889L201.732 126.56L196.892 125.54L189.084 134.071Z" fill="#D32F2F"/>
<defs>
<linearGradient id="paint0_linear_1582_9124" x1="142.364" y1="93.2843" x2="142.765" y2="101.494" gradientUnits="userSpaceOnUse">
<stop offset="0.33" stop-color="#F9B5AA"/>
<stop offset="0.54" stop-color="#FBC9C3"/>
<stop offset="0.76" stop-color="#FFE3E3"/>
<stop offset="1" stop-color="#FFF1E3"/>
</linearGradient>
<radialGradient id="paint1_radial_1582_9124" cx="0" cy="0" r="1" gradientUnits="userSpaceOnUse" gradientTransform="translate(122.655 73.4264) rotate(7.88435) scale(5.96958 6.04762)">
<stop stop-color="#FF8191"/>
<stop offset="1" stop-color="#FFF1E3"/>
</radialGradient>
<radialGradient id="paint2_radial_1582_9124" cx="0" cy="0" r="1" gradientUnits="userSpaceOnUse" gradientTransform="translate(156.029 78.0201) rotate(-172.116) scale(5.96317 6.04113)">
<stop stop-color="#FF8191"/>
<stop offset="1" stop-color="#FFF1E3"/>
</radialGradient>
</defs>
</svg>
