<svg width="40" height="40" viewBox="0 0 40 40" fill="none" xmlns="http://www.w3.org/2000/svg">
<g clip-path="url(#clip0_2485_28804)">
<path d="M12.9244 35.9223C12.8683 35.9612 12.7737 35.9104 12.739 36H12.047C12.0135 35.9793 11.9826 35.9518 11.946 35.9392C11.2111 35.6906 10.7998 35.1631 10.767 34.3883C10.7481 33.9417 10.7613 33.4944 10.7607 33.0472C10.7607 32.6983 10.7607 32.3494 10.7607 31.9973C10.6043 32.0023 10.538 32.0925 10.4573 32.1514C9.52114 32.8336 8.59257 33.5257 7.65075 34.201C6.71462 34.8719 5.55453 34.5392 5.10602 33.4894C5.08016 33.428 5.08836 33.3391 4.99878 33.3128V32.5003C5.27193 31.7988 5.89076 31.4348 6.45976 31.0214C7.08491 30.5666 7.70501 30.105 8.33267 29.6546C8.4765 29.5513 8.55725 29.4322 8.60519 29.2594C8.99188 27.8681 9.38552 26.4794 9.78861 25.0926C9.84097 24.9128 9.817 24.7919 9.70408 24.6428C9.23853 24.0308 8.9616 23.3506 9.02532 22.5651C9.40381 22.5645 9.78167 22.5632 10.1602 22.5626L10.152 22.5807C10.2277 23.7389 10.6661 24.708 11.6628 25.3682C11.8628 25.5004 11.9277 25.6401 11.9271 25.8731C11.9189 28.6587 11.922 31.4436 11.9214 34.2292C11.9214 34.776 12.1195 35.2364 12.5119 35.6198C12.6361 35.7407 12.8393 35.7519 12.9232 35.9242L12.9244 35.9223Z" fill="#3F404F"/>
<path d="M21.4846 36C21.3086 35.9148 21.1225 35.8465 20.9591 35.7425C20.4444 35.4156 20.1801 34.9345 20.17 34.3332C20.1567 33.5239 20.1668 32.7146 20.1668 31.9046C20.0325 31.8852 19.9751 31.9735 19.9038 32.0255C18.9235 32.7402 17.9545 33.47 16.9648 34.1703C15.8829 34.9357 14.485 34.3488 14.2857 33.0472C14.1879 32.4082 14.439 31.8796 14.9569 31.4931C15.7864 30.8742 16.6166 30.2553 17.465 29.6628C17.776 29.4454 17.9892 29.2036 18.0372 28.8246C18.0511 28.7138 18.1059 28.6073 18.1425 28.4995C18.6333 28.6248 19.0875 28.8697 19.5959 28.9368C19.6647 28.9581 19.7322 28.9863 19.8028 29C20.216 29.0827 20.6305 29.1629 21.0443 29.2437C21.0443 30.9206 21.0475 32.5974 21.0424 34.2743C21.0405 34.9476 21.3307 35.4494 21.9016 35.8002C21.9861 35.8522 22.1098 35.8647 22.1142 36.0012H21.4852L21.4846 36Z" fill="#4296B8"/>
<path d="M22.1135 36C22.1091 35.8634 21.9855 35.8509 21.9009 35.7989C21.33 35.4481 21.0399 34.9464 21.0418 34.273C21.0468 32.5962 21.0436 30.9193 21.0436 29.2425C21.8814 29.2901 22.7141 29.2218 23.5442 29.1172C23.5474 30.8629 23.5663 32.6093 23.5449 34.3551C23.536 35.0698 23.1575 35.5878 22.487 35.8797C22.4031 35.9161 22.2996 35.9154 22.2391 36H22.1135Z" fill="#54ACE2"/>
<path d="M23.5449 29.1172C22.7147 29.2224 21.8827 29.2901 21.0443 29.2425C20.6305 29.1616 20.2167 29.0821 19.8029 28.9988C19.7328 28.9844 19.6647 28.9568 19.5959 28.9355C19.7303 27.7961 19.8741 26.6579 19.9965 25.5179C20.0874 24.6748 20.1896 23.8304 20.2167 22.9841C20.2545 21.7984 20.2255 20.6101 20.2293 19.4231C20.2293 19.3417 20.1769 19.2389 20.3252 19.1418C20.3567 19.1907 20.387 19.2464 20.4248 19.2966C21.1358 20.2437 21.8455 21.192 22.5595 22.136C23.032 22.7599 23.6313 23.0706 24.4394 22.8921C24.7529 22.8232 25.0772 22.8012 25.3964 22.758C25.4405 23.5084 25.6392 24.2282 25.8581 24.9416C26.1256 25.8148 26.441 26.6724 26.8334 27.4979C26.9463 27.736 26.8851 27.8431 26.6675 27.9571C25.7395 28.4444 24.7662 28.8071 23.7455 29.047C23.6761 29.0633 23.5972 29.0545 23.5436 29.1172H23.5449Z" fill="#68CA97"/>
<path d="M23.8124 14.1877C23.8793 14.3418 24.0408 14.3931 24.1556 14.4946C24.9902 15.2338 25.3592 16.1721 25.368 17.2652C25.3731 17.889 25.3743 18.5136 25.3661 19.1375C25.3636 19.3316 25.4147 19.3924 25.6197 19.3523C25.9572 19.2865 26.301 19.2515 26.6417 19.2032C26.7792 19.9449 26.9489 20.6809 27.0391 21.4307C26.9482 21.4532 26.8587 21.4846 26.7666 21.4977C26.0474 21.6023 25.3239 21.6812 24.6098 21.8128C23.813 21.9594 23.1368 21.8134 22.6309 21.1488C21.8897 20.1754 21.1567 19.1951 20.4161 18.221C20.2855 18.0488 20.2104 17.874 20.2237 17.6504C20.2458 17.2683 20.2432 16.8868 20.2798 16.5035C20.3839 15.4079 20.6028 14.3769 21.5459 13.6552C21.9736 13.5857 22.3874 13.7072 22.8075 13.7461C23.1002 13.8751 23.3929 14.0035 23.6863 14.1326C23.7153 14.1839 23.7601 14.2008 23.8168 14.1896L23.8137 14.1877H23.8124Z" fill="#68CA97"/>
<path d="M21.5446 13.6559C20.6015 14.3775 20.3833 15.4085 20.2785 16.5041C20.242 16.8874 20.2445 17.2689 20.2224 17.651C20.2098 17.8746 20.2842 18.0494 20.4148 18.2217C21.1554 19.1957 21.8884 20.176 22.6296 21.1494C23.1355 21.814 23.8118 21.96 24.6085 21.8134C25.3226 21.6819 26.0461 21.6029 26.7653 21.4983C26.8574 21.4852 26.947 21.4539 27.0378 21.4313C27.0523 21.4351 27.0674 21.4388 27.0813 21.4445C27.1337 21.7927 27.186 22.141 27.2384 22.4887C26.6246 22.5789 26.0102 22.6691 25.3964 22.7593C25.0772 22.8025 24.753 22.8238 24.4394 22.8933C23.6314 23.0712 23.0314 22.7611 22.5596 22.1373C21.8449 21.1927 21.1352 20.2449 20.4249 19.2978C20.387 19.2471 20.3561 19.1913 20.3252 19.1431C20.1776 19.2402 20.23 19.3429 20.2293 19.4243C20.2249 20.6114 20.2539 21.7996 20.2167 22.9854C20.1896 23.8317 20.0874 24.676 19.9966 25.5192C19.8742 26.6598 19.7304 27.798 19.596 28.9368C19.0876 28.8698 18.6334 28.6248 18.1426 28.4996C17.7698 28.3135 17.4007 28.1193 17.0229 27.9452C16.8134 27.8487 16.7693 27.7579 16.8727 27.528C17.472 26.1888 17.9855 24.8195 18.2479 23.3694C18.2851 23.1652 18.3085 22.9585 18.3381 22.753C18.4069 22.7311 18.4757 22.7073 18.545 22.6872C19.3292 22.4605 19.972 21.6142 19.6521 20.6308C19.4547 19.9837 18.9955 19.6329 18.3482 19.4951C18.3754 18.5624 18.2965 17.6278 18.3955 16.6964C18.5589 15.1617 19.8281 13.8707 21.3585 13.6859C21.421 13.6784 21.4822 13.6672 21.544 13.6578L21.5446 13.6559Z" fill="#58B07E"/>
<path d="M15.4899 7.05618C15.8942 7.4884 16.315 7.90182 16.5856 8.4449C17.7028 10.688 16.4759 13.4066 14.0422 14.0568C13.962 14.0781 13.8807 14.0962 13.7999 14.1163C13.7211 14.0192 13.5993 14.0117 13.4933 13.9716C12.1427 13.4667 11.2773 12.5302 10.9038 11.1397C10.736 10.5145 10.8174 9.87872 10.7795 9.24856C11.0836 8.68544 11.0539 8.07345 11.0375 7.46585C11.0331 7.30486 11.0621 7.18835 11.2312 7.14137C11.587 7.14075 11.9428 7.14826 12.2979 7.13761C13.3621 7.10504 14.4301 7.22343 15.4905 7.05618H15.4899ZM15.8103 9.11013C15.8103 8.94414 15.8236 8.77626 15.8072 8.61215C15.7801 8.33653 15.5618 8.13859 15.3114 8.14047C15.0414 8.14235 14.8313 8.34844 14.8206 8.64597C14.8099 8.94664 14.8099 9.24856 14.8206 9.54986C14.8313 9.84239 15.0483 10.0529 15.3145 10.0535C15.5637 10.0535 15.7801 9.85429 15.8072 9.57805C15.8223 9.42396 15.8097 9.26673 15.8097 9.11076L15.8103 9.11013ZM14.1765 9.09259C14.1765 9.09259 14.1778 9.09259 14.1784 9.09259C14.1784 8.93662 14.1891 8.78002 14.1759 8.62593C14.1519 8.34656 13.9463 8.14736 13.6933 8.14047C13.4315 8.13296 13.2006 8.3453 13.188 8.63344C13.1748 8.94414 13.1741 9.25671 13.188 9.5674C13.2006 9.84176 13.4164 10.0453 13.6687 10.0535C13.9166 10.061 14.1437 9.8618 14.1721 9.5912C14.1891 9.42709 14.1753 9.25921 14.1753 9.09322L14.1765 9.09259Z" fill="#F7BF88"/>
<path d="M12.9913 14.2008C13.5395 14.3938 14.0908 14.5635 14.5557 14.9475C15.2036 15.4831 15.606 16.1508 15.7537 16.9614C15.9114 17.8264 15.789 18.7046 15.8218 19.5759C15.8243 19.6386 15.8237 19.7006 15.8243 19.7632C15.4593 19.866 15.1699 19.7764 14.9563 19.4945C14.8371 19.3373 14.7141 19.1832 14.6011 19.0209C14.5128 18.8944 14.4409 18.8681 14.3028 18.9752C13.6612 19.4713 13.0102 19.9549 12.363 20.4429C12.3422 20.441 12.3214 20.4404 12.3005 20.441C12.1233 20.0739 11.8426 19.7801 11.5959 19.4632C11.4742 19.3066 11.36 19.4018 11.2559 19.5033C11.1682 19.5885 10.9481 19.6367 11.0812 19.8002C11.3417 20.1209 11.5253 20.5049 11.8678 20.7579C11.8482 20.8882 11.9466 20.9634 12.0116 21.0517C12.3832 21.5578 12.7566 22.0621 13.1294 22.567C12.1372 22.5714 11.1449 22.5751 10.1526 22.5795L10.1608 22.5613C10.1608 21.1682 10.1557 19.7751 10.1627 18.3826C10.1646 17.9586 10.1482 17.537 10.2125 17.1104C10.3866 15.9541 11.0168 15.1404 12.0198 14.571C12.2917 14.4169 12.6153 14.3931 12.8658 14.2002C12.9074 14.2002 12.949 14.2002 12.9913 14.2002V14.2008Z" fill="#E4F3FC"/>
<path d="M20.9315 11.3645C19.9802 11.8162 19.0655 11.7159 18.3268 10.9949C17.5055 10.1932 17.3831 9.13456 18.0436 8.15738C18.5981 7.33743 19.415 7.04741 20.3965 7.23846C20.5738 7.27291 20.6861 7.26727 20.7599 7.03739C21.221 5.59793 22.1843 4.63955 23.6579 4.2468C24.589 3.99875 25.5157 4.07642 26.3963 4.50112C26.3124 4.60259 26.1862 4.63454 26.0752 4.68966C25.2665 5.09368 24.5328 5.58854 23.9361 6.27945C23.1791 7.15515 22.7779 8.15738 22.74 9.30932C22.7281 9.67388 22.776 10.0328 22.7981 10.3942C22.1641 10.3667 21.6147 10.1055 21.0854 9.78538C21.0091 9.73903 20.9359 9.62377 20.8482 9.66825C20.7441 9.72086 20.8003 9.85366 20.7933 9.952C20.7574 10.4306 20.8274 10.8991 20.9309 11.3645H20.9315Z" fill="#CBCBCA"/>
<path d="M28.9903 10.195C28.9795 11.2555 28.6256 12.1926 27.8952 12.9625C27.0858 13.8156 26.0815 14.2666 24.8861 14.2566C24.5852 13.9735 24.208 13.7805 23.9367 13.4629C23.1917 12.5904 22.8297 11.5844 22.8726 10.4375C22.9981 10.4387 23.1236 10.44 23.2498 10.4406C24.4748 10.4475 25.5182 10.0215 26.3553 9.12955C26.9193 8.52821 27.2429 7.8041 27.3993 7.00169C27.5791 7.06119 27.6838 7.22155 27.8327 7.3224C28.5512 8.14799 28.9928 9.0832 28.9909 10.195H28.9903ZM27.9671 11.2173C27.9772 10.8853 27.8523 10.7012 27.5999 10.6404C27.3331 10.5759 27.1237 10.6843 27.024 10.9455C26.9685 11.0895 26.9224 11.243 26.9079 11.3958C26.8827 11.6552 27.0126 11.8418 27.2624 11.9145C27.516 11.9884 27.7236 11.8926 27.834 11.6577C27.9078 11.5005 27.9362 11.3226 27.9664 11.2179L27.9671 11.2173ZM25.9453 11.5681C26.2853 11.5712 26.5105 11.2618 26.5212 10.7776C26.5282 10.4801 26.3093 10.252 26.0216 10.2571C25.6993 10.2627 25.4583 10.6085 25.4545 11.0695C25.452 11.3464 25.6677 11.5656 25.9453 11.5681Z" fill="#F7BF88"/>
<path d="M27.3991 7.00168C27.2427 7.80347 26.9191 8.52821 26.3551 9.12955C25.518 10.0215 24.4747 10.4475 23.2496 10.4406C23.1241 10.44 22.9985 10.4387 22.8724 10.4375C22.8478 10.4231 22.8232 10.4086 22.7992 10.3936C22.7771 10.0322 22.7292 9.67326 22.7412 9.30869C22.779 8.15675 23.1802 7.15515 23.9372 6.27882C24.5339 5.58791 25.2682 5.09306 26.0763 4.68903C26.1867 4.63391 26.3135 4.60196 26.3974 4.50049C26.7109 4.5412 26.8951 4.8544 27.2149 4.88259C27.3518 5.58227 27.5177 6.27945 27.3998 7.00106L27.3991 7.00168Z" fill="#E4E4E4"/>
<path d="M29.2209 21.4971C30.5753 21.2766 31.555 21.903 31.907 23.2309C32.9239 27.0701 33.9351 30.9105 34.9482 34.7503C34.9589 34.7904 34.969 34.8311 34.9784 34.8712C35.056 35.2026 34.9198 35.4532 34.622 35.5246C34.3476 35.591 34.1085 35.4369 34.0215 35.1155C33.8228 34.3833 33.6348 33.6479 33.4411 32.9138C32.6028 29.7373 31.7644 26.5615 30.9235 23.3857C30.7475 22.7217 30.2561 22.3709 29.6095 22.4329C29.0449 22.4868 28.5939 22.9585 28.5636 23.5404C28.556 23.6838 28.5907 23.8298 28.6008 23.9745C28.6191 24.2532 28.4923 24.438 28.2179 24.5C27.9505 24.5608 27.7215 24.4192 27.6464 24.1392C27.4843 23.5335 27.5922 22.9647 27.9132 22.4304C28.4747 22.292 28.9257 22.0026 29.2209 21.4965V21.4971Z" fill="#414250"/>
<path d="M15.49 7.05618C14.4296 7.22343 13.3616 7.10504 12.2974 7.13761C11.9423 7.14826 11.5865 7.14074 11.2307 7.14137C11.2837 6.33645 11.6073 5.64804 12.1517 5.05923C12.6841 4.48232 13.3736 4.19105 14.123 4.01315C15.2724 4.01002 16.4217 4.01065 17.5711 4C17.7604 3.99812 17.79 4.06702 17.7856 4.23615C17.7585 5.36053 16.9195 6.50182 15.7821 6.94468C15.6849 6.98226 15.5878 7.01922 15.4907 7.05618H15.49Z" fill="#F8C901"/>
<path d="M12.363 20.4429C13.0103 19.9549 13.6613 19.4713 14.3028 18.9752C14.441 18.8681 14.5135 18.8944 14.6012 19.0209C14.7141 19.1826 14.8371 19.3373 14.9563 19.4945C15.17 19.7764 15.4593 19.866 15.8244 19.7632C16.3978 19.6899 16.9737 19.6292 17.5446 19.5377C17.814 19.4945 18.0808 19.5033 18.3495 19.4933C18.9968 19.6311 19.456 19.9818 19.6534 20.6289C19.3235 21.281 18.8088 21.6318 18.0619 21.717C16.9889 21.8397 15.924 22.0377 14.8529 22.1824C14.2284 22.2663 13.6632 22.1216 13.2525 21.6048C12.9491 21.2234 12.6595 20.8306 12.3637 20.4429H12.363Z" fill="#F7BF88"/>
<path d="M14.123 4.01315C13.3742 4.19105 12.6841 4.48232 12.1517 5.05923C11.6073 5.64805 11.2837 6.33645 11.2307 7.14137C11.0616 7.18835 11.0326 7.30486 11.037 7.46584C11.0534 8.07345 11.0831 8.68543 10.779 9.24856C10.3204 9.82297 9.78608 10.2539 8.98746 10.1875C8.96475 9.24794 8.9616 8.30897 8.98936 7.36938C9.02973 7.33242 9.02847 7.2892 9.00891 7.24347C9.01396 5.54782 10.5588 3.9455 12.4576 4.00188C13.0127 4.01817 13.5679 4.01002 14.123 4.01315Z" fill="#F39614"/>
<path d="M12.8656 14.2002C12.6152 14.3931 12.2909 14.4169 12.0197 14.571C11.016 15.1411 10.3865 15.9541 10.2124 17.1104C10.148 17.537 10.165 17.9586 10.1625 18.3827C10.1556 19.7758 10.1606 21.1689 10.1606 22.5613C9.78214 22.562 9.40427 22.5632 9.02578 22.5638C9.02515 20.8594 9.03398 19.155 9.0201 17.4512C9.01001 16.2022 9.92155 14.9037 11.1283 14.4357C11.5314 14.2798 11.9522 14.2328 12.3672 14.147C12.5332 14.1645 12.6997 14.1821 12.8656 14.2002Z" fill="#C0D8E4"/>
<path d="M12.8656 14.2002C12.6997 14.1827 12.5332 14.1651 12.3672 14.147C10.4022 13.8169 9.02768 12.207 8.9873 10.1882C9.78593 10.2546 10.3209 9.8236 10.7788 9.24919C10.8167 9.87934 10.7353 10.5151 10.9031 11.1403C11.2766 12.5302 12.1427 13.4673 13.4926 13.9722C13.5986 14.0117 13.7204 14.0192 13.7992 14.1169C13.533 14.1764 13.2624 14.194 12.9905 14.2015C12.9489 14.2015 12.9072 14.2015 12.865 14.2015L12.8656 14.2002Z" fill="#DB9555"/>
<path d="M22.7993 10.3942C22.8239 10.4086 22.8478 10.4231 22.8724 10.4381C22.8295 11.5844 23.1916 12.591 23.9366 13.4636C24.2079 13.7812 24.5851 13.9741 24.886 14.2572C24.5233 14.3073 24.1726 14.1708 23.8124 14.1889L23.8155 14.1908C23.8035 14.1019 23.7373 14.1326 23.6849 14.1338C23.3922 14.0048 23.0995 13.8764 22.8062 13.7473C22.4637 13.4611 22.0839 13.223 21.7893 12.876C21.4045 12.4238 21.1471 11.9082 20.9308 11.3658C20.8273 10.9004 20.7579 10.4312 20.7932 9.95263C20.8008 9.85491 20.744 9.72212 20.8481 9.66887C20.9358 9.6244 21.009 9.73965 21.0853 9.78601C21.6146 10.1061 22.164 10.3673 22.798 10.3949L22.7993 10.3942Z" fill="#DB9555"/>
<path d="M28.9901 10.195C28.992 9.0832 28.5504 8.14736 27.8325 7.3224C27.9429 6.98477 28.1416 6.69663 28.341 6.40599C28.6803 5.91176 29.0973 5.61798 29.73 5.81467L29.7275 5.81342C29.7464 5.8604 29.7672 5.85977 29.7906 5.81592C30.6315 6.87703 30.7305 8.07094 30.0511 9.22288C29.8007 9.64758 29.4443 9.97831 28.9907 10.1957L28.9901 10.195Z" fill="#E4E4E4"/>
<path d="M27.0825 21.4438C27.068 21.4388 27.0535 21.4344 27.039 21.4307C26.9488 20.6809 26.7791 19.9449 26.6416 19.2032C27.1715 19.1375 27.6957 18.9539 28.2351 19.1588C28.7624 19.3592 29.1302 19.7031 29.2854 20.2524C29.2368 20.3307 29.1863 20.4084 29.139 20.488C28.8734 20.9327 28.4798 21.2046 27.9752 21.3079C27.6806 21.3687 27.3803 21.3994 27.0819 21.4438H27.0825Z" fill="#F7BF88"/>
<path d="M29.7301 5.81466C29.0967 5.61798 28.6798 5.91176 28.341 6.40598C28.1417 6.696 27.943 6.98414 27.8326 7.3224C27.6837 7.22155 27.579 7.06119 27.3992 7.00168C27.5171 6.28008 27.3506 5.5829 27.2144 4.88322C28.0874 4.79803 28.8753 4.99847 29.5516 5.57225C29.6317 5.6399 29.7225 5.69565 29.7301 5.81466Z" fill="#CBCBCA"/>
<path d="M27.0825 21.4438C27.3803 21.3994 27.6812 21.3687 27.9758 21.3079C28.4804 21.2039 28.8741 20.9327 29.1396 20.488C29.1869 20.4084 29.2368 20.3314 29.286 20.2524C29.4727 20.6778 29.3465 21.0868 29.221 21.4965C28.9258 22.0026 28.4747 22.2926 27.9133 22.4304C27.6887 22.4492 27.4642 22.4686 27.2396 22.488C27.1872 22.1398 27.1349 21.7915 27.0825 21.4438Z" fill="#DB9555"/>
<path d="M9.00864 7.2441C9.02806 7.29046 9.02869 7.33368 8.98923 7.37001C8.97231 7.32428 8.97482 7.28169 9.00864 7.2441Z" fill="#DB9555"/>
<path d="M29.7897 5.81592C29.7671 5.85977 29.7465 5.8604 29.7271 5.81342C29.7477 5.81404 29.7684 5.81529 29.7897 5.81592Z" fill="#CBCBCA"/>
<path d="M10.1526 22.5795C11.1449 22.5751 12.1372 22.5714 13.1294 22.567C13.5628 23.0706 14.0959 23.3356 14.7771 23.2504C15.1052 23.209 15.4332 23.1683 15.7612 23.127C15.6168 24.0998 15.109 24.8477 14.3002 25.3908C14.1078 25.5198 14.0523 25.6488 14.053 25.8681C14.0605 28.6461 14.0542 31.4248 14.0599 34.2029C14.0618 35.0322 13.7104 35.6148 12.9238 35.9223C12.8399 35.7507 12.6361 35.7394 12.5125 35.6179C12.1201 35.2346 11.922 34.7741 11.922 34.2273C11.9227 31.4417 11.9195 28.6568 11.9277 25.8712C11.9284 25.6382 11.8634 25.4991 11.6634 25.3663C10.6661 24.7067 10.2283 23.7371 10.1526 22.5789V22.5795Z" fill="#5D5E70"/>
<path d="M15.7611 23.1276C15.4331 23.1689 15.105 23.2096 14.777 23.251C14.0963 23.3362 13.5627 23.0712 13.1293 22.5676C12.7565 22.0627 12.3824 21.5585 12.0115 21.0523C11.9465 20.964 11.8475 20.8889 11.8677 20.7579C12.0373 20.6859 12.1749 20.5713 12.301 20.441C12.3218 20.4397 12.3427 20.441 12.3635 20.4429C12.6593 20.8306 12.9489 21.2233 13.2523 21.6048C13.6636 22.1216 14.2282 22.2669 14.8527 22.1824C15.9238 22.0383 16.988 21.8397 18.0617 21.7169C18.8086 21.6318 19.3233 21.2803 19.6533 20.6289C19.9737 21.6123 19.3303 22.4586 18.5462 22.6854C18.4768 22.7054 18.408 22.7292 18.3393 22.7511C17.4757 22.8463 16.6152 22.9616 15.7617 23.127L15.7611 23.1276Z" fill="#DB9555"/>
<path d="M23.6848 14.1326C23.7368 14.1319 23.8019 14.1006 23.8145 14.1896C23.7581 14.2008 23.7136 14.1839 23.6848 14.1326Z" fill="#FEFEFE"/>
<path d="M15.8104 9.11013C15.8104 9.2661 15.823 9.4227 15.8079 9.57742C15.7801 9.85366 15.5644 10.0535 15.3152 10.0529C15.049 10.0529 14.8326 9.84239 14.8213 9.54923C14.8099 9.24856 14.8099 8.94664 14.8213 8.64535C14.832 8.34781 15.042 8.14235 15.312 8.13984C15.5625 8.13797 15.7807 8.33591 15.8079 8.61152C15.8243 8.77626 15.811 8.94351 15.811 9.1095L15.8104 9.11013Z" fill="#414250"/>
<path d="M14.1766 9.09259C14.1766 9.25858 14.1905 9.42646 14.1734 9.59057C14.1451 9.8618 13.9173 10.0604 13.67 10.0529C13.4177 10.0453 13.202 9.84176 13.1894 9.56677C13.1748 9.25608 13.1755 8.94351 13.1894 8.63282C13.202 8.34467 13.4322 8.13295 13.6946 8.13984C13.9482 8.14673 14.1539 8.34593 14.1772 8.6253C14.1905 8.78002 14.1797 8.93662 14.1797 9.09196C14.1791 9.09196 14.1785 9.09196 14.1779 9.09196L14.1766 9.09259Z" fill="#414250"/>
<path d="M12.3006 20.4416C12.1744 20.5719 12.0369 20.6865 11.8672 20.7586C11.5246 20.5055 11.3411 20.1215 11.0805 19.8008C10.9474 19.6373 11.1676 19.5891 11.2553 19.5039C11.3594 19.4024 11.4736 19.3072 11.5953 19.4638C11.842 19.7814 12.1227 20.0752 12.2999 20.4416H12.3006Z" fill="#C0D8E4"/>
<path d="M27.9669 11.2173C27.9366 11.3226 27.9076 11.5004 27.8344 11.657C27.724 11.8926 27.5159 11.9884 27.2629 11.9139C27.0125 11.8406 26.8831 11.6545 26.9084 11.3952C26.9229 11.2424 26.9696 11.0895 27.0245 10.9448C27.1241 10.6836 27.3342 10.5759 27.6004 10.6398C27.8527 10.7005 27.9776 10.8847 27.9675 11.2167L27.9669 11.2173Z" fill="#414250"/>
<path d="M25.9451 11.5681C25.6676 11.5656 25.4525 11.347 25.4544 11.0695C25.4581 10.6085 25.6991 10.2627 26.0215 10.2571C26.3091 10.252 26.5274 10.4794 26.5211 10.7776C26.5104 11.2618 26.2852 11.5712 25.9451 11.5681Z" fill="#414250"/>
</g>
<defs>
<clipPath id="clip0_2485_28804">
<rect width="30" height="32" fill="white" transform="translate(5 4)"/>
</clipPath>
</defs>
</svg>
