<svg width="80" height="80" viewBox="0 0 80 80" fill="none" xmlns="http://www.w3.org/2000/svg">
<path d="M0 40C0 17.9086 17.9086 0 40 0C62.0914 0 80 17.9086 80 40C80 62.0914 62.0914 80 40 80C17.9086 80 0 62.0914 0 40Z" fill="#FFF5E6"/>
<mask id="mask0_2471_28671" style="mask-type:alpha" maskUnits="userSpaceOnUse" x="0" y="0" width="80" height="80">
<path d="M0 40C0 17.9086 17.9086 0 40 0C62.0914 0 80 17.9086 80 40C80 62.0914 62.0914 80 40 80C17.9086 80 0 62.0914 0 40Z" fill="#FFC77D"/>
</mask>
<g mask="url(#mask0_2471_28671)">
</g>
<g clip-path="url(#clip0_2471_28671)">
<path d="M59.2367 46.1215C55.9636 41.911 55.1151 43.0163 54.9003 40.6947C54.7293 38.1688 54.5714 32.4424 54.5714 32.4424C53.1245 23.2668 47.3763 19.9463 43.3008 18.983C43.2504 17.3295 41.9131 16.0022 40.2666 16.0022C38.6202 16.0022 37.2829 17.3295 37.2325 18.983C33.157 19.9463 27.4066 23.2668 25.9618 32.4424C25.9618 32.4424 25.804 38.1688 25.633 40.6947C25.4182 43.0163 24.5697 41.911 21.2966 46.1215C17.0808 51.5461 18.6089 54.4603 25.0586 54.4603H55.4747C61.9222 54.4603 63.4525 51.5461 59.2367 46.1215Z" fill="#FFC77D"/>
<path d="M34.0536 55.943C33.0364 55.943 32.2998 56.913 32.5453 57.9118C33.4135 61.412 36.5397 64.0022 40.2644 64.0022C43.9892 64.0022 47.1176 61.412 47.9835 57.9118C48.2313 56.913 47.4925 55.943 46.4752 55.943H34.0492H34.0536Z" fill="url(#paint0_linear_2471_28671)"/>
<path d="M51.7332 34.1333C56.2988 34.1333 59.9999 30.4322 59.9999 25.8667C59.9999 21.3011 56.2988 17.6 51.7332 17.6C47.1677 17.6 43.4666 21.3011 43.4666 25.8667C43.4666 30.4322 47.1677 34.1333 51.7332 34.1333Z" fill="url(#paint1_linear_2471_28671)"/>
<path d="M54.6559 29.7637L51.7332 26.841L48.8104 29.7637L47.8362 28.7895L50.7589 25.8667L47.8362 22.944L48.8104 21.9698L51.7332 24.8925L54.6559 21.9698L55.6301 22.944L52.7074 25.8667L55.6301 28.7895L54.6559 29.7637Z" fill="white"/>
</g>
<defs>
<linearGradient id="paint0_linear_2471_28671" x1="36.8667" y1="57.3702" x2="39.4827" y2="64.7143" gradientUnits="userSpaceOnUse">
<stop stop-color="#FF8120"/>
<stop offset="1" stop-color="#E54304"/>
</linearGradient>
<linearGradient id="paint1_linear_2471_28671" x1="48.1166" y1="20.5278" x2="56.0388" y2="32.0667" gradientUnits="userSpaceOnUse">
<stop stop-color="#FF8120"/>
<stop offset="1" stop-color="#E54304"/>
</linearGradient>
<clipPath id="clip0_2471_28671">
<rect width="42.6667" height="48" fill="white" transform="translate(18.9333 16)"/>
</clipPath>
</defs>
</svg>
