<svg width="40" height="40" viewBox="0 0 40 40" fill="none" xmlns="http://www.w3.org/2000/svg">
<path fill-rule="evenodd" clip-rule="evenodd" d="M18.2654 11.7098C19.6965 12.6469 20.741 14.0694 21.2065 15.7154C21.6721 17.3615 21.5274 19.1203 20.7991 20.6681C22.0994 21.6693 23.6823 22.2352 25.3227 22.2853C26.9631 22.3354 28.5775 21.8671 29.9365 20.9471C31.2955 20.027 32.3299 18.702 32.8927 17.1604C33.4554 15.6187 33.5179 13.9389 33.0713 12.3597C32.6247 10.7805 31.6916 9.3823 30.4047 8.36379C29.1179 7.34528 27.5427 6.75832 25.9031 6.68635C24.2636 6.61438 22.643 7.06106 21.2719 7.96289C19.9007 8.86472 18.8487 10.1758 18.2654 11.7098ZM25.5641 13.7621C26.2284 13.7621 26.7674 14.3012 26.7674 14.9654V18.4213C26.7674 18.7404 26.6407 19.0465 26.415 19.2722C26.1893 19.4978 25.8833 19.6246 25.5641 19.6246C25.245 19.6246 24.9389 19.4978 24.7133 19.2722C24.4876 19.0465 24.3608 18.7404 24.3608 18.4213V14.9654C24.3608 14.3012 24.8999 13.7621 25.5641 13.7621ZM24.1529 10.7202C24.1529 11.627 24.9038 12.0256 25.4332 12.0833C25.478 12.0884 25.523 12.0909 25.568 12.091C26.0936 12.091 26.9811 11.706 26.9811 10.7202C26.9811 9.81149 26.2303 9.41296 25.7008 9.3552C25.6561 9.35015 25.6111 9.34757 25.5661 9.3475C25.0405 9.3475 24.1529 9.73255 24.1529 10.7202ZM14.3668 22.345C14.9915 22.3577 15.6126 22.2455 16.1935 22.0152C16.7744 21.7848 17.3035 21.4409 17.7498 21.0035C18.1961 20.5661 18.5507 20.0441 18.7928 19.468C19.0348 18.8918 19.1595 18.2732 19.1595 17.6483C19.1595 17.0234 19.0348 16.4048 18.7928 15.8286C18.5507 15.2525 18.1961 14.7305 17.7498 14.2931C17.3035 13.8557 16.7744 13.5118 16.1935 13.2814C15.6126 13.0511 14.9915 12.939 14.3668 12.9516C13.1376 12.9765 11.9672 13.4823 11.1067 14.3604C10.2462 15.2384 9.7642 16.4189 9.7642 17.6483C9.7642 18.8777 10.2462 20.0582 11.1067 20.9363C11.9672 21.8144 13.1376 22.3201 14.3668 22.345ZM6.54054 31.7365C6.53734 29.7712 7.27369 27.8766 8.60324 26.4293C9.93279 24.9819 11.7582 24.0878 13.7167 23.9246C15.6753 23.7613 17.6235 24.341 19.1743 25.5482C20.7251 26.7555 21.7649 28.502 22.0871 30.4408H32.0157C32.3987 30.4408 32.766 30.5929 33.0368 30.8637C33.3075 31.1345 33.4597 31.5018 33.4597 31.8847C33.4597 32.2677 33.3075 32.635 33.0368 32.9058C32.766 33.1765 32.3987 33.3287 32.0157 33.3287H8.023C7.65743 33.3286 7.30551 33.1898 7.03824 32.9404C6.77097 32.691 6.60824 32.3495 6.58289 31.9848C6.55609 31.9048 6.54244 31.8209 6.54246 31.7365H6.54054Z" fill="#4780F0"/>
<path fill-rule="evenodd" clip-rule="evenodd" d="M18.2349 11.7024C19.666 12.6395 20.7104 14.062 21.176 15.708C21.6415 17.3541 21.4968 19.1129 20.7686 20.6607C22.0689 21.6619 23.6518 22.2278 25.2921 22.2779C26.9325 22.328 28.547 21.8597 29.9059 20.9397C31.2649 20.0196 32.2994 18.6946 32.8621 17.153C33.4249 15.6113 33.4874 13.9315 33.0408 12.3523C32.5941 10.7731 31.6611 9.37489 30.3742 8.35638C29.0873 7.33787 27.5122 6.75092 25.8726 6.67895C24.233 6.60698 22.6125 7.05365 21.2414 7.95549C19.8702 8.85732 18.8182 10.1684 18.2349 11.7024ZM25.5336 13.7547C26.1978 13.7547 26.7369 14.2938 26.7369 14.958V18.4139C26.7369 18.733 26.6101 19.0391 26.3845 19.2648C26.1588 19.4904 25.8527 19.6172 25.5336 19.6172C25.2145 19.6172 24.9084 19.4904 24.6828 19.2648C24.4571 19.0391 24.3303 18.733 24.3303 18.4139V14.958C24.3303 14.2938 24.8694 13.7547 25.5336 13.7547ZM24.1224 10.7128C24.1224 11.6196 24.8732 12.0181 25.4027 12.0759C25.4474 12.081 25.4924 12.0835 25.5375 12.0836C26.0631 12.0836 26.9506 11.6986 26.9506 10.7128C26.9506 9.80409 26.1998 9.40555 25.6703 9.3478C25.6256 9.34274 25.5806 9.34017 25.5355 9.3401C25.0099 9.3401 24.1224 9.72515 24.1224 10.7128Z" fill="#FF5C00"/>
</svg>
