<svg width="40" height="40" viewBox="0 0 40 40" fill="none" xmlns="http://www.w3.org/2000/svg">
<path d="M5.5 4.00002L8.65829 4.00001C8.65829 4.00001 12.2641 2.89089 12.2641 16.7438C12.2641 16.7438 11.6759 22.0122 15.1922 22.0122H26.2399C26.2399 22.0122 30.127 21.5492 31.2522 23.9394L34.5 33.5" stroke="#FFC77D" stroke-width="2" stroke-miterlimit="10"/>
<path d="M23.5 13.5524C23.5 13.5524 26.5 13.0904 26.5 14.9095V34.5" stroke="#FFC77D" stroke-width="2" stroke-miterlimit="10"/>
<path d="M8.11242 2.5H3.72009C3.04625 2.5 2.5 3.04625 2.5 3.72009C2.5 4.39393 3.04625 4.94018 3.72009 4.94018H8.11242C8.78625 4.94018 9.33251 4.39393 9.33251 3.72009C9.33251 3.04625 8.78625 2.5 8.11242 2.5Z" fill="#FF8120"/>
<path d="M35.4661 31.5643L32.0394 32.9238C31.413 33.1723 31.1067 33.8815 31.3552 34.5079C31.6037 35.1342 32.3129 35.4405 32.9392 35.192L36.3659 33.8325C36.9923 33.584 37.2986 32.8748 37.0501 32.2485C36.8016 31.6221 36.0924 31.3158 35.4661 31.5643Z" fill="#FF8120"/>
<path d="M22.4689 12.0699H15.1483C14.4745 12.0699 13.9282 12.6162 13.9282 13.29C13.9282 13.9638 14.4745 14.5101 15.1483 14.5101H22.4689C23.1427 14.5101 23.6889 13.9638 23.6889 13.29C23.6889 12.6162 23.1427 12.0699 22.4689 12.0699Z" fill="#FF8120"/>
<path d="M26.5 37.5C28.1569 37.5 29.5 36.1569 29.5 34.5C29.5 32.8431 28.1569 31.5 26.5 31.5C24.8431 31.5 23.5 32.8431 23.5 34.5C23.5 36.1569 24.8431 37.5 26.5 37.5Z" fill="#FFC77D"/>
<path d="M12.8651 36.2303C18.0374 36.2303 22.2303 32.0374 22.2303 26.8651C22.2303 21.6929 18.0374 17.5 12.8651 17.5C7.69291 17.5 3.5 21.6929 3.5 26.8651C3.5 32.0374 7.69291 36.2303 12.8651 36.2303Z" fill="#FFC77D"/>
<path d="M13 31.5C15.4853 31.5 17.5 29.4853 17.5 27C17.5 24.5147 15.4853 22.5 13 22.5C10.5147 22.5 8.5 24.5147 8.5 27C8.5 29.4853 10.5147 31.5 13 31.5Z" fill="white"/>
</svg>
