<svg width="40" height="40" viewBox="0 0 40 40" fill="none" xmlns="http://www.w3.org/2000/svg">
<g clip-path="url(#clip0_2218_27565)">
<path d="M24.1425 12.3216C24.1425 10.3765 22.5696 8.8036 20.6245 8.8036C18.6793 8.8036 17.1064 10.3765 17.1064 12.3216C17.1064 14.2667 18.6793 15.8396 20.6245 15.8396C20.6245 17.7847 22.1974 19.3576 24.1425 19.3576C26.0876 19.3576 27.6605 17.7847 27.6605 15.8396C27.6605 13.8945 26.0876 12.3216 24.1425 12.3216Z" fill="#FFC77D"/>
<path d="M17.2145 23.1518C15.8457 21.783 13.6124 21.783 12.2436 23.1518C10.8748 24.5206 10.8748 26.7538 12.2436 28.1226C13.6124 29.4914 15.8457 29.4914 17.2145 28.1226C18.5833 29.4914 20.8165 29.4914 22.1853 28.1226C23.5541 26.7538 23.5541 24.5206 22.1853 23.1518C20.8165 21.783 18.5833 21.783 17.2145 23.1518Z" fill="#FFC77D"/>
<path d="M20.5764 26.4056H13.8525V37.512H20.5764V26.4056Z" fill="#FFC77D"/>
<path d="M33.9635 7.25513L29.209 2.50066L21.3556 10.354L26.1101 15.1085L33.9635 7.25513Z" fill="#FFC77D"/>
<path d="M13.4323 20.4022C11.8234 19.6938 11.0669 17.8688 11.7393 16.3199C12.4237 14.771 14.2728 14.0986 15.8937 14.795C16.9743 15.2633 19.0755 16.8122 19.988 18.253C20.2642 18.6973 20.5764 19.5738 20.3482 20.0901C19.988 20.9065 19.3637 21.2427 18.8113 21.3508C17.4065 21.6149 14.4889 20.8585 13.4443 20.4022H13.4323Z" fill="#FF8120"/>
<path d="M10.6589 21.9151L8.94189 23.6441" stroke="#E53935" stroke-miterlimit="10" stroke-linecap="round"/>
<path d="M9.07387 17.8208H6.63647" stroke="#E53935" stroke-miterlimit="10" stroke-linecap="round"/>
<path d="M10.7548 13.8345L8.8457 12.3216" stroke="#E53935" stroke-miterlimit="10" stroke-linecap="round"/>
<path d="M14.9333 12.0695V9.63208" stroke="#E53935" stroke-miterlimit="10" stroke-linecap="round"/>
</g>
<defs>
<clipPath id="clip0_2218_27565">
<rect width="27.928" height="35" fill="white" transform="translate(6.03613 2.5)"/>
</clipPath>
</defs>
</svg>
