<svg width="40" height="40" viewBox="0 0 40 40" fill="none" xmlns="http://www.w3.org/2000/svg">
<g clip-path="url(#clip0_2218_27559)">
<path d="M19.0257 28.345H19.0147C18.5963 28.345 8.64404 28.0367 5.13211 20.022L5 19.7248L5.11009 19.4165C5.20917 19.1083 7.84037 11.7651 20.3798 11.655H20.5229C21.9321 11.655 29.2422 12.0294 34.7138 19.3945L35 19.7798L34.8239 20.2202C34.6917 20.5394 31.455 28.1358 19.0587 28.345H19.0477H19.0257Z" fill="#FFC77D"/>
<path d="M19.4688 26.6751C15.6266 26.6751 12.5 23.5485 12.5 19.7063C12.5 15.8641 15.6266 12.7265 19.4688 12.7265C23.311 12.7265 26.4376 15.8531 26.4376 19.6953C26.4376 23.5375 23.311 26.6641 19.4688 26.6641V26.6751ZM19.4688 13.5742C16.089 13.5742 13.3477 16.3265 13.3477 19.7063C13.3477 23.0861 16.1 25.8274 19.4688 25.8274C22.8376 25.8274 25.5899 23.0861 25.5899 19.7063C25.5899 16.3265 22.8376 13.5742 19.4688 13.5742Z" fill="white"/>
<path d="M20.933 19.1778L22.9587 17.064C22.166 16.0072 20.9 15.3246 19.4688 15.3246C17.0468 15.3246 15.0981 17.2842 15.0981 19.6952C15.0981 22.1063 17.0578 24.0659 19.4688 24.0659C21.8798 24.0659 23.7403 22.2053 23.8394 19.8714L20.933 19.1668V19.1778Z" fill="white"/>
</g>
<defs>
<clipPath id="clip0_2218_27559">
<rect width="30" height="16.6899" fill="white" transform="translate(5 11.655)"/>
</clipPath>
</defs>
</svg>
