<svg width="40" height="40" viewBox="0 0 40 40" fill="none" xmlns="http://www.w3.org/2000/svg">
<g clip-path="url(#clip0_2218_27564)">
<path d="M30.4779 25.6227C30.4779 25.501 30.5277 25.3915 30.615 25.3002C32.7972 23.1034 34.0005 20.2069 34.0005 17.1582C34.0005 13.574 32.3483 10.2394 29.4678 8C27.348 6.35091 24.7918 5.47465 22.086 5.45639L22.0112 5V5.45639C15.8513 5.46247 10.7264 9.96552 10.0842 15.9351L10.0405 16.0872C9.6727 16.7931 8.27612 19.2454 6.05034 20.8824C6.01293 20.9675 5.97552 21.0953 6.01917 21.1805C6.07528 21.3022 6.29973 21.4118 6.62393 21.4726L8.30106 21.7708C8.52551 21.8073 8.68761 22.002 8.68761 22.2211V27.0771C8.68761 27.1623 8.78113 29.4199 10.4707 29.5355H15.1842C15.4398 29.5355 15.6518 29.7363 15.6518 29.9919V34.4219C15.6518 34.7444 15.9199 35 16.2441 35H29.8856C30.216 35 30.4841 34.7383 30.4841 34.4158V25.6166L30.4779 25.6227Z" fill="#FFC77D"/>
<path d="M31.0631 15.8682C31.0631 15.1136 30.6828 14.4381 30.0968 14.0061C30.1217 13.8661 30.1404 13.7201 30.1404 13.574C30.1404 12.4239 29.2738 11.4686 28.1266 11.2556C28.1515 11.146 28.164 11.0304 28.164 10.9209C28.164 9.81339 27.0418 8.91887 25.6639 8.91887C25.1402 8.91887 24.6539 9.04666 24.2549 9.26572C23.9743 8.82759 23.4069 8.52333 22.7398 8.52333C22.0415 8.52333 21.4368 8.8641 21.1812 9.34483C20.7572 9.07708 20.221 8.91887 19.6412 8.91887C18.2571 8.91887 17.1411 9.81339 17.1411 10.9209C17.1411 11.0365 17.1535 11.146 17.1785 11.2556C16.0313 11.4686 15.1647 12.4239 15.1647 13.574C15.1647 13.7201 15.1834 13.8661 15.2083 14.0061C14.6223 14.4381 14.2419 15.1136 14.2419 15.8682C14.2419 16.7018 14.6971 17.4321 15.3891 17.858C15.3704 17.9676 15.3642 18.0771 15.3642 18.1866C15.3642 19.3428 16.237 20.2982 17.3967 20.5112C17.5152 21.5274 18.5875 22.3245 19.8906 22.3245C20.4018 22.3245 20.8819 22.1968 21.2809 21.9838L22.8708 24.1075C22.8708 24.1075 23.5503 24.5152 24.205 24.1684C24.205 24.1684 24.9407 23.6998 24.6851 23.0791L24.5167 22.3732C24.5167 22.3732 24.5791 22.3854 24.6102 22.3915L24.5105 22.3245L24.4731 22.1663C24.7723 22.2698 25.0903 22.3245 25.4332 22.3245C26.7363 22.3245 27.8024 21.5274 27.9209 20.5112C29.0805 20.3043 29.9534 19.3428 29.9534 18.1866C29.9534 18.0771 29.9409 17.9676 29.9284 17.858C30.6205 17.4381 31.0756 16.7079 31.0756 15.8682H31.0631Z" fill="white"/>
<path d="M27 14.8399H23.81V12H21.19V14.8399H18V17.1722H21.19V20H23.81V17.1722H27V14.8399Z" fill="#FF8120"/>
</g>
<defs>
<clipPath id="clip0_2218_27564">
<rect width="28.0009" height="30" fill="white" transform="translate(5.99951 5)"/>
</clipPath>
</defs>
</svg>
