<svg width="40" height="40" viewBox="0 0 40 40" fill="none" xmlns="http://www.w3.org/2000/svg">
<g clip-path="url(#clip0_2218_27562)">
<path d="M31.5952 15.4086C30.6659 21.1667 31.6665 14.5861 31.6665 14.1655C31.6665 7.47643 26.0332 2.09817 19.2469 2.52257C13.4708 2.88688 8.75757 7.56657 8.36323 13.3392C8.13039 16.7344 9.35095 19.8479 11.4653 22.1164C12.4944 23.2206 12.7873 24.798 12.2465 26.2027C11.7883 27.3933 11.5968 28.7153 11.7432 30.0974C12.1601 34.0034 15.3674 37.1357 19.2844 37.4662C23.1226 37.7892 26.4613 35.4982 27.7457 32.1819C29.6273 26.2816 30.983 20.6517 31.5989 15.4049L31.5952 15.4086Z" fill="#FFC77D"/>
<path d="M23.4998 24.6667C23.6943 23.1111 24.7589 19.5696 26.4165 17.0833C28.7498 13.5833 26.4165 7.75001 22.3331 7.16667C19.5613 6.77069 17.9031 8.58669 17.3197 9.55891C16.7364 10.5311 16.4998 12.4167 18.4864 14.2256C20.2398 15.8221 24.0831 21.75 17.0832 23.5" stroke="white" stroke-width="1.5" stroke-linecap="round"/>
<circle cx="17.6665" cy="21.1667" r="3.5" fill="white"/>
<path d="M17.9615 20C17.5726 21.3611 17.2615 24.6667 19.1282 27C20.9948 29.3333 19.517 32.6389 18.5448 34" stroke="white" stroke-width="1.5" stroke-linecap="round"/>
</g>
<defs>
<clipPath id="clip0_2218_27562">
<rect width="23.3333" height="35" fill="white" transform="translate(8.33325 2.5)"/>
</clipPath>
</defs>
</svg>
