<svg width="40" height="40" viewBox="0 0 40 40" fill="none" xmlns="http://www.w3.org/2000/svg">
<path d="M16.6571 4.45158C16.6571 4.45158 19.7044 5.54292 22.8305 4.45158C22.8305 4.45158 28.137 1.83235 29.6737 6.99376C29.6737 6.99376 30.6457 8.38041 28.9251 13.4648C28.9251 13.4648 27.6641 16.803 27.5065 17.5348H12.6378L11.1536 13.9013C10.6282 12.887 8.65798 8.04659 11.8235 4.96515C11.8235 4.96515 13.623 2.82098 16.6571 4.45158Z" fill="#FFC77D"/>
<path d="M15.4749 7.22487C15.4749 7.22487 13.2289 7.84116 13.6754 10.1009" stroke="white" stroke-miterlimit="10" stroke-linecap="round"/>
<path d="M23.6743 17.5349H16.3127C15.4511 17.5349 14.7527 18.2333 14.7527 19.0948C14.7527 19.9564 15.4511 20.6548 16.3127 20.6548H23.6743C24.5359 20.6548 25.2343 19.9564 25.2343 19.0948C25.2343 18.2333 24.5359 17.5349 23.6743 17.5349Z" fill="#FFC77D"/>
<path d="M16.9067 33.584L18.3122 36.858H21.6616L23.0801 33.584V20.6548H16.9067V33.584Z" fill="#FFC77D"/>
<path d="M14.7322 22.8829L25.2546 23.8087" stroke="#FF8120" stroke-width="1.5" stroke-miterlimit="10" stroke-linecap="round"/>
<path d="M15 26.3887L25.4816 27.4159" stroke="#FF8120" stroke-width="1.5" stroke-miterlimit="10" stroke-linecap="round"/>
<path d="M15 29.6353L25.4816 30.5597" stroke="#FF8120" stroke-width="1.5" stroke-miterlimit="10" stroke-linecap="round"/>
<path d="M14.9895 33.0363L25.4921 33.9031" stroke="#FF8120" stroke-width="1.5" stroke-miterlimit="10" stroke-linecap="round"/>
</svg>
