<svg width="40" height="40" viewBox="0 0 40 40" fill="none" xmlns="http://www.w3.org/2000/svg">
<g clip-path="url(#clip0_2218_27561)">
<path d="M17.059 23.7121C12.2399 24.8832 6.88219 24.5078 9.8668 21.2349C11.6576 19.2681 14.2491 18.8252 16.7168 17.8643C17.9616 16.7533 21.1501 15.4471 19.4758 11.2583C14.1617 12.5345 8.12699 14.5988 4.02134 18.1421C-0.724921 26.7824 7.26073 34.4318 23.9454 29.6725C36.7647 26.0167 38.3807 20.9721 35.9858 15.8375C31.0939 19.0879 19.6432 23.089 17.0663 23.7121H17.059Z" fill="#FFC77D"/>
<path d="M31.6981 16.8434C31.9456 20.3641 36.3278 21.1223 37.0558 17.4064C37.3251 16.0402 37.0412 14.2836 35.4761 14.3361C35.0976 14.3511 34.8137 14.5163 34.8137 14.5163C34.7191 14.4937 34.639 14.4187 34.5589 14.3586C33.5616 13.6004 31.5379 14.4562 31.7053 16.8509L31.6981 16.8434Z" fill="#FF8120"/>
<path d="M31.7565 21.4676C32.6591 21.5201 33.4744 21.2349 34.53 20.2139C34.8867 19.8611 34.9522 19.4482 35.0177 19.1104C35.2871 17.7442 35.0032 15.9876 33.4381 16.0401C33.0595 16.0552 32.7756 16.2203 32.7756 16.2203C32.681 16.1978 32.6009 16.1227 32.5208 16.0627C31.5235 15.3045 29.4998 16.1603 29.6673 18.5549C29.7692 20.0488 30.6718 21.1373 31.7638 21.4676H31.7565Z" fill="white"/>
<path d="M28.4659 22.9915C29.4487 23.074 30.4897 22.4209 31.2103 21.7528C31.567 21.2349 31.5306 21.1148 31.6107 20.7544C31.8946 19.3882 31.6398 17.6316 30.0747 17.6616C29.6962 17.6616 29.4123 17.8268 29.4123 17.8268C29.3176 17.8042 29.2376 17.7292 29.1575 17.6691C28.1675 16.8959 26.1365 17.7217 26.2675 20.1163C26.3185 21.0172 26.6825 21.903 27.3522 22.5035C27.7016 22.8113 28.0801 22.9614 28.4659 22.9915Z" fill="#FF8120"/>
<path d="M25.4304 24.5078C25.6124 24.5154 25.809 24.4928 26.0128 24.4178C26.566 24.2301 27.2576 24.1175 27.7235 23.7271C28.3131 23.2392 28.5679 22.451 28.5898 21.6928C28.6116 20.7244 28.2112 19.726 27.1411 19.7035C26.7917 19.7035 26.5224 19.8386 26.5224 19.8386C26.435 19.8161 26.3622 19.741 26.2894 19.681C25.4013 18.9378 23.5086 19.6434 23.5596 21.8504C23.5887 22.9765 24.2876 24.4478 25.4232 24.5078H25.4304Z" fill="white"/>
<path d="M24.8699 25.0859C25.5105 24.4703 25.6343 23.562 25.4887 22.6462C25.3722 21.918 24.9791 21.2124 24.1784 21.1973C23.829 21.1973 23.5669 21.3475 23.5669 21.3475C23.4795 21.3174 23.414 21.2424 23.3412 21.1823C22.4895 20.3791 20.5896 21.1523 20.5677 23.5395C20.5604 24.6655 20.9899 25.281 21.6378 25.799C22.9263 26.1744 23.7634 25.8591 24.5715 25.3186C24.6807 25.251 24.7753 25.1684 24.8626 25.0859H24.8699Z" fill="#FF8120"/>
<path d="M19.8908 13.0675C19.1701 14.7265 17.5468 15.4171 16.2365 14.9066C15.3411 14.5538 14.3875 13.6154 14.6714 11.7087C14.8752 10.3275 15.7196 8.78106 17.1755 9.3816C17.5322 9.52423 17.7361 9.77946 17.7361 9.77946C17.838 9.79448 17.9326 9.74944 18.0272 9.72692C19.2211 9.36659 20.8299 10.883 19.8835 13.075L19.8908 13.0675Z" fill="#FF8120"/>
<path d="M16.1127 14.2836C15.392 15.9426 13.7687 16.6332 12.4584 16.1227C11.563 15.7699 10.6094 14.8316 10.8933 12.9248C11.0971 11.5436 11.9415 9.99717 13.3974 10.5977C13.7541 10.7403 13.958 10.9956 13.958 10.9956C14.0599 11.0106 14.1545 10.9655 14.2492 10.943C15.443 10.5827 17.0518 12.0991 16.1054 14.2911L16.1127 14.2836Z" fill="white"/>
<path d="M13.2299 15.9651C12.5092 17.6241 10.8859 18.3147 9.57558 17.8042C8.68019 17.4514 7.72658 16.5131 8.01048 14.6063C8.2143 13.2251 9.05873 11.6787 10.5146 12.2792C10.8713 12.4219 11.0752 12.6771 11.0752 12.6771C11.1771 12.6921 11.2717 12.6471 11.3663 12.6245C12.5602 12.2642 14.169 13.7806 13.2226 15.9726L13.2299 15.9651Z" fill="#FF8120"/>
<path d="M11.1991 17.1737C10.6022 18.7351 9.13897 19.4407 7.91601 19.0204C7.07886 18.7351 6.16164 17.9168 6.34363 16.1452C6.47466 14.8691 7.18805 13.4053 8.54933 13.8932C8.88419 14.0133 9.08073 14.2385 9.08073 14.2385C9.17537 14.2385 9.26272 14.2085 9.35008 14.1709C10.4347 13.7881 11.978 15.1168 11.1918 17.1662L11.1991 17.1737Z" fill="white"/>
<path d="M8.94224 18.5174C8.34532 20.0788 6.88213 20.7845 5.65917 20.3641C4.82203 20.0788 3.9048 19.2606 4.08679 17.489C4.21782 16.2128 4.93122 14.749 6.29249 15.2369C6.62735 15.357 6.8239 15.5822 6.8239 15.5822C6.91853 15.5822 7.00589 15.5522 7.09324 15.5147C8.17789 15.1318 9.72115 16.4605 8.93496 18.5099L8.94224 18.5174Z" fill="#FF8120"/>
<path d="M7.23894 20.0188C6.69297 21.7378 5.43361 22.5786 4.41448 22.1957C3.70836 21.933 2.95857 21.0998 3.15512 19.1855C3.30071 17.7968 3.94131 16.1828 5.08419 16.6332C5.36082 16.7383 5.52825 16.971 5.52825 16.971C5.60832 16.971 5.68112 16.926 5.75391 16.8884C6.67841 16.4155 7.95233 17.7592 7.23894 20.0188Z" fill="white"/>
<path d="M19.2202 26.7029C19.4022 26.7104 19.5988 26.6878 19.8026 26.6128C20.3558 26.4251 21.0474 26.3125 21.5133 25.9221C22.1029 25.4342 22.3577 24.646 22.3796 23.8878C22.4014 22.9194 22.001 21.921 20.9309 21.8985C20.5815 21.8985 20.3122 22.0336 20.3122 22.0336C20.2248 22.0111 20.152 21.936 20.0792 21.876C19.1911 21.1328 17.2984 21.8384 17.3494 24.0454C17.3785 25.1715 18.0774 26.6428 19.213 26.7029H19.2202Z" fill="white"/>
</g>
<defs>
<clipPath id="clip0_2218_27561">
<rect width="35" height="22.2727" fill="white" transform="translate(2.5 8.86363)"/>
</clipPath>
</defs>
</svg>
