<svg width="40" height="40" viewBox="0 0 40 40" fill="none" xmlns="http://www.w3.org/2000/svg">
<g clip-path="url(#clip0_2218_27566)">
<path d="M30.4774 25.6166C30.4774 25.4949 30.5273 25.3854 30.6145 25.2941C32.7967 23.0974 34 20.2008 34 17.1521C34 13.5679 32.3478 10.2333 29.4674 7.99391C27.3476 6.34482 24.7913 5.46856 22.0855 5.4503L22.0107 4.99391V5.4503C15.8508 5.45639 10.7259 9.95943 10.0837 15.929L10.0401 16.0811C9.67221 16.787 8.27564 19.2393 6.04985 20.8763C6.01244 20.9615 5.97503 21.0892 6.01868 21.1744C6.07479 21.2961 6.29924 21.4057 6.62344 21.4665L8.30057 21.7647C8.52502 21.8012 8.68713 21.9959 8.68713 22.215V27.071C8.68713 27.1562 8.78065 29.4138 10.4702 29.5294H15.1837C15.4393 29.5294 15.6513 29.7302 15.6513 29.9858V34.4158C15.6513 34.7383 15.9194 34.9939 16.2436 34.9939H29.8851C30.2155 34.9939 30.4836 34.7322 30.4836 34.4097V25.6105L30.4774 25.6166Z" fill="#FFC77D"/>
<path d="M31.0634 15.8682C31.0634 15.1136 30.6831 14.4381 30.097 14.0061C30.1219 13.8661 30.1407 13.7201 30.1407 13.574C30.1407 12.4239 29.274 11.4686 28.1268 11.2556C28.1518 11.146 28.1643 11.0304 28.1643 10.9209C28.1643 9.81339 27.042 8.91887 25.6641 8.91887C25.1404 8.91887 24.6541 9.04666 24.2551 9.26572C23.9745 8.82759 23.4072 8.52333 22.7401 8.52333C22.0418 8.52333 21.437 8.8641 21.1814 9.34483C20.7574 9.07708 20.2213 8.91887 19.6414 8.91887C18.2573 8.91887 17.1413 9.81339 17.1413 10.9209C17.1413 11.0365 17.1538 11.146 17.1787 11.2556C16.0315 11.4686 15.1649 12.4239 15.1649 13.574C15.1649 13.7201 15.1836 13.8661 15.2086 14.0061C14.6225 14.4381 14.2422 15.1136 14.2422 15.8682C14.2422 16.7018 14.6973 17.4321 15.3894 17.858C15.3707 17.9676 15.3644 18.0771 15.3644 18.1866C15.3644 19.3428 16.2373 20.2982 17.3969 20.5112C17.5154 21.5274 18.5878 22.3245 19.8908 22.3245C20.4021 22.3245 20.8821 22.1968 21.2812 21.9838L22.871 24.1075C22.871 24.1075 23.5506 24.5152 24.2052 24.1684C24.2052 24.1684 24.9409 23.6998 24.6853 23.0791L24.517 22.3732C24.517 22.3732 24.5793 22.3854 24.6105 22.3915L24.5107 22.3245L24.4733 22.1663C24.7726 22.2698 25.0906 22.3245 25.4335 22.3245C26.7365 22.3245 27.8026 21.5274 27.9211 20.5112C29.0808 20.3043 29.9536 19.3428 29.9536 18.1866C29.9536 18.0771 29.9411 17.9676 29.9287 17.858C30.6207 17.4381 31.0759 16.7079 31.0759 15.8682H31.0634Z" fill="white"/>
<path d="M19.7078 15.976H19.3439C19.1545 15.976 19 15.8083 19 15.6028V15.4134C19 15.2079 19.1545 15.0402 19.3439 15.0402C19.5632 15.0402 19.7277 14.8184 19.6779 14.5858L19.2143 12.4544C19.1645 12.2218 19.324 12 19.5483 12H20.0766C20.2361 12 20.3757 12.1244 20.4106 12.2975L20.8791 14.7481C20.914 14.9212 21.0536 15.0456 21.2131 15.0456H21.5171C21.6766 15.0456 21.8162 14.9266 21.8511 14.7589L22.3645 12.2921C22.3994 12.1244 22.5389 12.0054 22.6984 12.0054H23.3016C23.4611 12.0054 23.6006 12.1244 23.6355 12.2921L24.1589 14.7589C24.1938 14.9266 24.3333 15.0456 24.4928 15.0456H24.8069C24.9664 15.0456 25.1059 14.9212 25.1408 14.7481L25.6093 12.2975C25.6442 12.1244 25.7838 12 25.9433 12H26.4517C26.671 12 26.8355 12.2218 26.7857 12.4544L26.3221 14.5858C26.2723 14.8184 26.4318 15.0402 26.6561 15.0402C26.8455 15.0402 27 15.2079 27 15.4134V15.6028C27 15.8083 26.8455 15.976 26.6561 15.976H26.2922C26.1327 15.976 25.9981 16.0951 25.9583 16.2628L25.4199 18.7133C25.385 18.881 25.2455 19 25.086 19H24.3383C24.1788 19 24.0393 18.881 24.0044 18.7133L23.4959 16.2682C23.4611 16.1005 23.3215 15.9815 23.162 15.9815H22.833C22.6735 15.9815 22.534 16.1005 22.4991 16.2682L21.9907 18.7133C21.9558 18.881 21.8162 19 21.6567 19H20.909C20.7495 19 20.615 18.881 20.5751 18.7133L20.0368 16.2628C20.0019 16.0951 19.8623 15.976 19.7028 15.976H19.7078ZM21.3178 17.058H21.3726L21.6019 15.9706H21.1084L21.3178 17.058ZM23.2368 15.0456L23.0274 14.0394H22.9726L22.7632 15.0456H23.2368ZM24.6474 17.058H24.7022L24.9115 15.9706H24.4181L24.6474 17.058Z" fill="#FF8120"/>
</g>
<defs>
<clipPath id="clip0_2218_27566">
<rect width="28" height="30" fill="white" transform="translate(6 5)"/>
</clipPath>
</defs>
</svg>
