<svg width="40" height="40" viewBox="0 0 40 40" fill="none" xmlns="http://www.w3.org/2000/svg">
<path d="M36.646 17.5989L22.4712 6.2432C21.1191 5.14116 18.8809 5.14116 17.5288 6.2432L3.35405 17.5989C2.00185 18.701 2.28162 19.5634 4.00683 19.5634H6.75784V35.2315H33.2422V19.5634H35.9932C37.7184 19.5634 37.9981 18.6531 36.646 17.5989ZM18.6012 30.7754C18.6012 31.1588 18.3214 31.4462 17.9484 31.4462C17.5754 31.4462 17.2956 31.1588 17.2956 30.7754V23.6841C17.2956 22.9175 16.8293 22.2946 16.2698 22.2946C15.7103 22.2946 15.244 22.9175 15.244 23.6362V23.732V24.4507C15.244 24.834 14.9642 25.1215 14.5912 25.1215C14.2182 25.1215 13.9384 24.834 13.9384 24.4507V23.5883C13.9384 22.1029 15.0109 20.8571 16.3164 20.8571C17.622 20.8571 18.6944 22.1029 18.6944 23.5883V30.7754H18.6012ZM16.4563 16.2094C16.4563 14.6282 17.6686 13.3825 19.2073 13.3825C20.746 13.3825 21.9583 14.6282 21.9583 16.2094C21.9583 17.7906 20.746 19.0364 19.2073 19.0364C17.6686 19.0364 16.4563 17.7906 16.4563 16.2094ZM25.2689 31.9733C25.2223 32.3566 24.8492 32.6441 24.4762 32.6441H22.4246C22.005 32.6441 21.7252 32.3087 21.7252 31.9254V28.0922C21.7252 28.0922 21.7252 27.661 21.6786 27.4693C21.632 27.2777 21.1191 26.0798 19.8601 23.6841C19.0675 22.1987 19.2073 21.0488 19.4871 20.4259C19.7202 19.7551 20.1399 19.4197 20.2798 19.3239C20.5595 19.0364 21.3056 18.8447 21.5387 18.7968C22.751 18.6051 23.7302 18.9885 24.4296 19.8988C26.9475 23.0133 25.3621 31.6858 25.2689 32.0691V31.9733Z" fill="#FFC77D"/>
<path d="M15.9038 16.3444C15.9038 14.6406 17.2462 13.2981 18.9501 13.2981C20.654 13.2981 21.9964 14.6406 21.9964 16.3444C21.9964 18.0483 20.654 19.3907 18.9501 19.3907C17.2462 19.3907 15.9038 18.0483 15.9038 16.3444Z" fill="white"/>
<path d="M15.9038 16.3444C15.9038 14.6406 17.2462 13.2981 18.9501 13.2981C20.654 13.2981 21.9964 14.6406 21.9964 16.3444C21.9964 18.0483 20.654 19.3907 18.9501 19.3907C17.2462 19.3907 15.9038 18.0483 15.9038 16.3444Z" fill="white"/>
<path d="M2.5 18.0555L20 4.76851L29.6748 12.5463M36.5278 18.0555L29.6748 12.5463M29.6748 12.5463V4.76851" stroke="#FF8120" stroke-width="3" stroke-linecap="round" stroke-linejoin="round"/>
</svg>
