<svg width="40" height="40" viewBox="0 0 40 40" fill="none" xmlns="http://www.w3.org/2000/svg">
<path d="M18.2986 33.5351C18.2986 34.0402 17.93 34.4189 17.4386 34.4189C16.9471 34.4189 16.5785 34.0402 16.5785 33.5351V24.192C16.5785 23.1819 15.9642 22.3612 15.227 22.3612C14.4898 22.3612 13.8754 23.1819 13.8754 24.1288V24.2551V25.202C13.8754 25.7071 13.5068 26.0858 13.0153 26.0858C12.5239 26.0858 12.1553 25.7071 12.1553 25.202V24.0657C12.1553 22.1087 13.5683 20.4673 15.2884 20.4673C17.0085 20.4673 18.4215 22.1087 18.4215 24.0657V33.5351H18.2986ZM15.4727 14.3438C15.4727 12.2605 17.07 10.6191 19.0973 10.6191C21.1246 10.6191 22.7218 12.2605 22.7218 14.3438C22.7218 16.427 21.1246 18.0684 19.0973 18.0684C17.07 18.0684 15.4727 16.427 15.4727 14.3438ZM27.0836 35.1134C27.0222 35.6184 26.5307 35.9972 26.0392 35.9972H23.3362C22.7833 35.9972 22.4147 35.5553 22.4147 35.0502V29.9999C22.4147 29.9999 22.4147 29.4317 22.3532 29.1792C22.2918 28.9267 21.616 27.3484 19.9573 24.192C18.913 22.235 19.0973 20.7198 19.4659 19.8992C19.773 19.0154 20.3259 18.5734 20.5102 18.4472C20.8788 18.0684 21.8618 17.8159 22.1689 17.7528C23.7662 17.5002 25.0563 18.0053 25.9778 19.2047C29.2952 23.3082 27.2065 34.7346 27.0836 35.2396V35.1134Z" fill="#FFC77D"/>
<path d="M18.2986 33.5351C18.2986 34.0402 17.93 34.4189 17.4386 34.4189C16.9471 34.4189 16.5785 34.0402 16.5785 33.5351V24.192C16.5785 23.1819 15.9642 22.3612 15.227 22.3612C14.4898 22.3612 13.8754 23.1819 13.8754 24.1288V24.2551V25.202C13.8754 25.7071 13.5068 26.0858 13.0153 26.0858C12.5239 26.0858 12.1553 25.7071 12.1553 25.202V24.0657C12.1553 22.1087 13.5683 20.4673 15.2884 20.4673C17.0085 20.4673 18.4215 22.1087 18.4215 24.0657V33.5351H18.2986ZM15.4727 14.3438C15.4727 12.2605 17.07 10.6191 19.0973 10.6191C21.1246 10.6191 22.7218 12.2605 22.7218 14.3438C22.7218 16.427 21.1246 18.0684 19.0973 18.0684C17.07 18.0684 15.4727 16.427 15.4727 14.3438ZM27.0836 35.1134C27.0222 35.6184 26.5307 35.9972 26.0392 35.9972H23.3362C22.7833 35.9972 22.4147 35.5553 22.4147 35.0502V29.9999C22.4147 29.9999 22.4147 29.4317 22.3532 29.1792C22.2918 28.9267 21.616 27.3484 19.9573 24.192C18.913 22.235 19.0973 20.7198 19.4659 19.8992C19.773 19.0154 20.3259 18.5734 20.5102 18.4472C20.8788 18.0684 21.8618 17.8159 22.1689 17.7528C23.7662 17.5002 25.0563 18.0053 25.9778 19.2047C29.2952 23.3082 27.2065 34.7346 27.0836 35.2396V35.1134Z" fill="#FFC77D"/>
<path d="M15.571 14.3438C15.571 12.2605 17.1683 10.6191 19.1956 10.6191C21.2229 10.6191 22.8202 12.2605 22.8202 14.3438C22.8202 16.427 21.2229 18.0684 19.1956 18.0684C17.1683 18.0684 15.571 16.427 15.571 14.3438Z" fill="#FFC77D"/>
<path d="M15.571 14.3438C15.571 12.2605 17.1683 10.6191 19.1956 10.6191C21.2229 10.6191 22.8202 12.2605 22.8202 14.3438C22.8202 16.427 21.2229 18.0684 19.1956 18.0684C17.1683 18.0684 15.571 16.427 15.571 14.3438Z" fill="#FFC77D"/>
<path d="M2.5 17.2787L20.5 4.00282L30.4512 11.7741M37.5 17.2787L30.4512 11.7741M30.4512 11.7741V4.00282" stroke="#FF8120" stroke-width="3" stroke-linecap="round" stroke-linejoin="round"/>
</svg>
