<svg width="64" height="59" viewBox="0 0 64 59" fill="none" xmlns="http://www.w3.org/2000/svg">
<g filter="url(#filter0_dd_1582_8616)">
<path d="M41.8082 22.0447C41.8082 23.0531 41.1948 23.3263 40.4458 22.6507L37.6909 20.169C36.9419 19.4942 36.3286 18.1163 36.3286 17.1079V15.8326C36.3286 14.8242 37.1537 13.9991 38.1622 13.9991H39.9746C40.9831 13.9991 41.8082 14.8242 41.8082 15.8326V22.0438V22.0447Z" fill="url(#paint0_linear_1582_8616)"/>
<path d="M34.6371 17.1335C33.1868 16.0426 30.8132 16.0426 29.362 17.1335L24.6012 20.7145C23.1508 21.8054 21.9636 24.1835 21.9636 25.9987V37.6949C21.9636 39.5102 23.4488 40.9953 25.264 40.9953H38.7333C40.5485 40.9953 42.0336 39.5102 42.0336 37.6949V25.9987C42.0336 24.1835 40.8464 21.8054 39.3961 20.7145L34.6362 17.1335H34.6371Z" fill="white"/>
<path d="M29.5435 27.0649C30.9948 27.0649 31.6649 28.078 32.0005 28.684C32.3351 28.078 33.0052 27.0649 34.4574 27.0649C35.9096 27.0649 37.0005 28.0202 37.0005 29.5815C37.0005 31.1428 36.1562 32.4703 35.1514 33.4833C34.208 34.4386 32.7935 35.4048 31.9995 35.4048C31.2056 35.4048 29.791 34.4386 28.8477 33.4833C27.8429 32.4693 26.9985 31.0951 26.9985 29.5815C26.9985 28.0679 28.0904 27.0649 29.5426 27.0649H29.5435Z" fill="url(#paint1_linear_1582_8616)"/>
<path d="M46.1646 28.8022C45.774 28.8022 45.3807 28.6776 45.048 28.4218L31.9995 18.3794L18.952 28.4218C18.1498 29.0388 16.9983 28.8893 16.3804 28.0872C15.7625 27.285 15.9129 26.1335 16.7151 25.5156L30.882 14.6133C31.5411 14.1054 32.4597 14.1054 33.118 14.6133L47.284 25.5156C48.0861 26.1335 48.2365 27.2841 47.6186 28.0872C47.2574 28.5565 46.7137 28.8022 46.1646 28.8022Z" fill="url(#paint2_linear_1582_8616)"/>
</g>
<defs>
<filter id="filter0_dd_1582_8616" x="-0.000244141" y="-0.000915527" width="64.0002" height="58.9962" filterUnits="userSpaceOnUse" color-interpolation-filters="sRGB">
<feFlood flood-opacity="0" result="BackgroundImageFix"/>
<feColorMatrix in="SourceAlpha" type="matrix" values="0 0 0 0 0 0 0 0 0 0 0 0 0 0 0 0 0 0 127 0" result="hardAlpha"/>
<feOffset/>
<feGaussianBlur stdDeviation="0.5"/>
<feComposite in2="hardAlpha" operator="out"/>
<feColorMatrix type="matrix" values="0 0 0 0 0 0 0 0 0 0 0 0 0 0 0 0 0 0 0.2 0"/>
<feBlend mode="normal" in2="BackgroundImageFix" result="effect1_dropShadow_1582_8616"/>
<feColorMatrix in="SourceAlpha" type="matrix" values="0 0 0 0 0 0 0 0 0 0 0 0 0 0 0 0 0 0 127 0" result="hardAlpha"/>
<feOffset dy="2"/>
<feGaussianBlur stdDeviation="8"/>
<feComposite in2="hardAlpha" operator="out"/>
<feColorMatrix type="matrix" values="0 0 0 0 0 0 0 0 0 0 0 0 0 0 0 0 0 0 0.08 0"/>
<feBlend mode="normal" in2="effect1_dropShadow_1582_8616" result="effect2_dropShadow_1582_8616"/>
<feBlend mode="normal" in="SourceGraphic" in2="effect2_dropShadow_1582_8616" result="shape"/>
</filter>
<linearGradient id="paint0_linear_1582_8616" x1="36" y1="16.0001" x2="42.6244" y2="17.2875" gradientUnits="userSpaceOnUse">
<stop stop-color="#FF8020"/>
<stop offset="1" stop-color="#E54304"/>
<stop offset="1" stop-color="#E74806"/>
</linearGradient>
<linearGradient id="paint1_linear_1582_8616" x1="29.8116" y1="28.5418" x2="33.5042" y2="34.9921" gradientUnits="userSpaceOnUse">
<stop stop-color="#FBA13B"/>
<stop offset="1" stop-color="#E54304"/>
</linearGradient>
<linearGradient id="paint2_linear_1582_8616" x1="24.9996" y1="16.8125" x2="29.2603" y2="30.4423" gradientUnits="userSpaceOnUse">
<stop stop-color="#FFB245"/>
<stop offset="1" stop-color="#E54304"/>
</linearGradient>
</defs>
</svg>
