<svg width="40" height="40" viewBox="0 0 40 40" fill="none" xmlns="http://www.w3.org/2000/svg">
<path d="M8.21875 11.1641C8.21875 10.3829 8.52906 9.63377 9.08141 9.08141C9.63377 8.52906 10.3829 8.21875 11.1641 8.21875H23.3984C24.1796 8.21875 24.9287 8.52906 25.4811 9.08141C26.0334 9.63377 26.3438 10.3829 26.3438 11.1641V22.7188H31.7812V27.7031C31.7812 28.7847 31.3516 29.822 30.5868 30.5868C29.822 31.3516 28.7847 31.7812 27.7031 31.7812H12.2969C11.2153 31.7812 10.178 31.3516 9.41321 30.5868C8.64841 29.822 8.21875 28.7847 8.21875 27.7031V11.1641ZM26.3438 29.9688H27.7031C28.304 29.9688 28.8803 29.7301 29.3052 29.3052C29.7301 28.8803 29.9688 28.304 29.9688 27.7031V24.5312H26.3438V29.9688ZM12.75 14.5625C12.75 14.8029 12.8455 15.0334 13.0154 15.2033C13.1854 15.3733 13.4159 15.4688 13.6562 15.4688H20.9062C21.1466 15.4688 21.3771 15.3733 21.5471 15.2033C21.717 15.0334 21.8125 14.8029 21.8125 14.5625C21.8125 14.3221 21.717 14.0916 21.5471 13.9217L20.9062 13.6562H13.6562C13.4159 13.6562 13.1854 13.7517 13.0154 13.9217C12.8455 14.0916 12.75 14.3221 12.75 14.5625ZM13.6562 19.0938C13.4159 19.0938 13.1854 19.1892 13.0154 19.3592C12.8455 19.5291 12.75 19.7596 12.75 20C12.75 20.2404 12.8455 20.4709 13.0154 20.6408C13.1854 20.8108 13.4159 20.9062 13.6562 20.9062H20.9062C21.1466 20.9062 21.3771 20.8108 21.5471 20.6408C21.717 20.4709 21.8125 20.2404 21.8125 20C21.8125 19.7596 21.717 19.5291 21.5471 19.3592C21.3771 19.1892 21.1466 19.0938 20.9062 19.0938H13.6562ZM12.75 25.4375C12.75 25.6779 12.8455 25.9084 13.0154 26.0783C13.1854 26.2483 13.4159 26.3438 13.6562 26.3438H17.2812C17.5216 26.3438 17.7521 26.2483 17.9221 26.0783C18.092 25.9084 18.1875 25.6779 18.1875 25.4375C18.1875 25.1971 18.092 24.9666 17.9221 24.7967C17.7521 24.6267 17.5216 24.5312 17.2812 24.5312H13.6562C13.4159 24.5312 13.1854 24.6267 13.0154 24.7967C12.8455 24.9666 12.75 25.1971 12.75 25.4375Z" fill="#FF6161"/>
</svg>
