<svg width="40" height="40" viewBox="0 0 40 40" fill="none" xmlns="http://www.w3.org/2000/svg">
<g clip-path="url(#clip0_2485_28757)">
<path d="M21.1986 36H18.8256C18.7661 35.9185 18.676 35.9442 18.5965 35.9367C17.9642 35.8797 17.3358 35.7932 16.7161 35.6567C12.8801 34.811 9.70588 32.8728 7.34599 29.7312C4.00834 25.2884 3.16453 20.347 4.8271 15.0511C6.07778 11.0656 8.62796 8.06748 12.2598 6.01337C14.9364 4.49988 17.8378 3.88722 20.8975 4.01689C21.3488 4.03631 21.8114 4.04571 22.2534 4.18227C22.7003 4.31508 23.1516 4.43348 23.5923 4.58257C25.6718 5.28669 27.4301 6.47506 28.9355 8.07374C30.6006 9.84282 31.7637 11.8976 32.5054 14.1922C33.214 16.3841 33.5264 18.6325 33.3905 20.9465C33.3098 22.3128 33.1176 23.6528 32.7558 24.9683C31.8582 28.2321 30.2056 31.0279 27.5791 33.2017C26.2915 34.2672 24.8505 35.0578 23.2374 35.5251C22.91 35.6197 22.5645 35.6567 22.2571 35.8189C22.167 35.8759 22.0599 35.8571 21.9635 35.8822C21.7119 35.948 21.4409 35.881 21.198 35.9993L21.1986 36ZM10.7156 25.886C11.6795 25.336 12.0795 24.1176 11.637 23.0789C11.1882 22.0271 10.0113 21.4865 8.9084 21.8254C7.70153 22.1537 7.02111 23.5463 7.47306 24.7635C7.95568 26.0621 9.60384 26.6328 10.7162 25.8867L10.7156 25.886ZM29.5759 13.2607C28.1462 13.6541 27.4921 15.3875 28.3014 16.6285C28.9819 17.6709 30.3415 17.9321 31.2529 17.3771C31.3349 17.3338 31.4238 17.3 31.4983 17.2468C32.3784 16.6191 32.6932 15.4207 32.2319 14.4691C31.7405 13.4555 30.6438 12.9569 29.5753 13.2613L29.5759 13.2607ZM17.9786 23.5663C18.4732 23.5939 19.0591 23.5118 19.6393 23.3884C21.7119 22.948 23.407 21.8912 24.7316 20.2387C25.3963 19.4092 25.8702 18.4765 26.1982 17.4691C26.2877 17.1935 26.1663 16.9655 25.914 16.8602C25.6899 16.7669 25.4564 16.8671 25.3218 17.1196C25.278 17.2023 25.2392 17.2881 25.2085 17.3764C24.5945 19.1486 23.4734 20.5149 21.8772 21.4796C20.3016 22.4312 18.5915 22.782 16.7618 22.5208C15.9311 22.4018 15.1424 22.1537 14.3906 21.7822C14.1978 21.687 14 21.6262 13.7991 21.7559C13.4479 21.9827 13.5117 22.4262 13.9393 22.6411C15.1768 23.2638 16.4895 23.5776 17.9786 23.5657V23.5663ZM12.4019 15.5641C10.6336 15.576 9.4774 17.2562 10.0652 18.8266C10.1754 19.1204 10.4045 19.2526 10.6686 19.1743C10.9271 19.0979 11.0517 18.8505 10.9803 18.5523C10.9634 18.4815 10.9409 18.4119 10.9228 18.3418C10.6968 17.4654 11.3109 16.604 12.2104 16.5489C12.8751 16.5082 13.3352 16.8195 13.6432 17.399C13.8053 17.7041 14.0933 17.793 14.3418 17.6464C14.5865 17.5017 14.6404 17.2436 14.4851 16.9379C14.0326 16.0484 13.2902 15.6168 12.4019 15.5641ZM21.6193 13.2231C21.608 13.4161 21.675 13.7099 21.7783 13.9949C21.8772 14.2674 22.1125 14.3939 22.3698 14.3163C22.6421 14.2336 22.7441 14.0369 22.7009 13.7631C22.6847 13.661 22.6521 13.5614 22.6277 13.4605C22.4725 12.8128 22.7642 12.165 23.3519 11.8537C24.0881 11.4634 24.878 11.7272 25.33 12.514C25.5209 12.8466 25.7775 12.9487 26.0423 12.7984C26.294 12.6549 26.3453 12.3862 26.1826 12.0629C25.6786 11.0606 24.55 10.5162 23.5009 10.7681C22.3955 11.0337 21.623 11.9947 21.618 13.2237L21.6193 13.2231ZM22.6953 24.1051C22.6991 23.8025 22.4311 23.5394 22.1613 23.5995C21.7676 23.6879 21.3914 23.8463 21.0521 24.0668C20.8487 24.199 20.7867 24.4195 20.9094 24.6413C21.0283 24.8568 21.203 24.9802 21.4753 24.88C21.8058 24.7584 22.1332 24.6325 22.4474 24.4715C22.6133 24.387 22.6897 24.2542 22.6959 24.1051H22.6953Z" fill="#F9D356"/>
<path d="M22.2533 4.18214C23.4201 4.29427 24.5481 4.58932 25.6285 5.02282C30.7614 7.08007 34.0703 10.7805 35.52 16.1278C35.7491 16.9716 35.8825 17.8355 35.9401 18.7094C35.9438 18.7695 35.9325 18.8365 35.9989 18.8754V21.1876C35.9325 21.2252 35.9426 21.2922 35.9376 21.3523C35.8706 22.225 35.7372 23.0888 35.5056 23.932C34.039 29.2606 30.7283 32.9453 25.6022 34.9869C24.5299 35.4141 23.4126 35.7048 22.2564 35.8188C22.5638 35.6572 22.9093 35.6202 23.2367 35.525C24.8504 35.0577 26.2914 34.2671 27.5784 33.2015C30.2043 31.0278 31.8575 28.2319 32.7551 24.9682C33.1169 23.6526 33.3091 22.3133 33.3899 20.9464C33.5263 18.6323 33.214 16.384 32.5048 14.1921C31.763 11.8974 30.5999 9.84268 28.9349 8.07361C27.4294 6.47429 25.6717 5.28656 23.5916 4.58243C23.1503 4.43334 22.699 4.31432 22.2527 4.18214H22.2533Z" fill="#F6B243"/>
<path d="M17.9787 23.5663C16.4896 23.5782 15.1769 23.2644 13.9394 22.6417C13.5118 22.4268 13.4486 21.9833 13.7992 21.7565C14.0001 21.6268 14.1979 21.6876 14.3907 21.7828C15.1425 22.1537 15.9306 22.4024 16.7618 22.5214C18.5915 22.7826 20.3017 22.4318 21.8772 21.4802C23.4735 20.5161 24.5952 19.1492 25.2086 17.377C25.2393 17.2887 25.2781 17.2029 25.3219 17.1202C25.4559 16.8677 25.69 16.7669 25.9141 16.8608C26.1664 16.9661 26.2878 17.1941 26.1983 17.4698C25.8703 18.4771 25.3964 19.4098 24.7316 20.2393C23.4071 21.8918 21.712 22.948 19.6394 23.389C19.0591 23.5124 18.4732 23.5945 17.9787 23.5669V23.5663Z" fill="#F17640"/>
<path d="M31.2535 17.3771C30.3421 17.9321 28.9825 17.6709 28.3021 16.6285C27.4921 15.3881 28.1469 13.6547 29.5766 13.2607C29.9935 13.4624 30.3384 13.7456 30.5975 14.1352C30.7759 14.404 30.9381 14.6834 31.052 14.9815C31.3481 15.7571 31.6454 16.5401 31.2542 17.3764L31.2535 17.3771Z" fill="#F17640"/>
<path d="M10.7157 25.886C9.60398 26.6321 7.95518 26.0614 7.47256 24.7628C7.02062 23.5463 7.70104 22.1531 8.9079 21.8248C9.22276 21.962 9.53199 22.1136 9.74732 22.3924C10.3157 23.1278 10.685 23.9428 10.7814 24.8812C10.8171 25.227 10.7032 25.5496 10.7151 25.886H10.7157Z" fill="#F17640"/>
<path d="M12.4021 15.5641C13.2903 15.6167 14.0327 16.0484 14.4853 16.9379C14.6411 17.2436 14.5867 17.5017 14.3419 17.6464C14.0941 17.793 13.8055 17.7041 13.6434 17.399C13.3354 16.8201 12.8753 16.5082 12.2105 16.5489C11.311 16.604 10.6969 17.4654 10.9229 18.3418C10.9411 18.4119 10.9636 18.4815 10.9805 18.5523C11.0512 18.8504 10.9267 19.0979 10.6688 19.1743C10.4046 19.2526 10.1749 19.1198 10.0653 18.8266C9.47755 17.2561 10.6343 15.5754 12.4021 15.5641Z" fill="#421C16"/>
<path d="M21.6194 13.2231C21.6244 11.994 22.3962 11.033 23.5023 10.7674C24.5514 10.515 25.68 11.06 26.1839 12.0623C26.3467 12.3855 26.2947 12.6543 26.0437 12.7977C25.7789 12.9487 25.5223 12.846 25.3314 12.5133C24.8794 11.7265 24.0894 11.4634 23.3533 11.8531C22.7655 12.1644 22.4738 12.8121 22.6291 13.4599C22.6535 13.5607 22.686 13.6604 22.7023 13.7625C22.7449 14.0362 22.6435 14.2329 22.3712 14.3156C22.1139 14.3933 21.8785 14.2667 21.7796 13.9942C21.6763 13.7098 21.6094 13.416 21.6206 13.2225L21.6194 13.2231Z" fill="#421C16"/>
<path d="M10.7156 25.886C10.7037 25.5496 10.8176 25.2276 10.782 24.8812C10.6856 23.9422 10.3162 23.1272 9.74787 22.3924C9.53254 22.1142 9.22331 21.9626 8.90845 21.8248C10.0114 21.4859 11.1882 22.0265 11.637 23.0783C12.0802 24.1163 11.6802 25.3354 10.7156 25.8854V25.886Z" fill="#EF4334"/>
<path d="M31.2535 17.3771C31.6447 16.5407 31.3474 15.7577 31.0513 14.9822C30.9374 14.684 30.7753 14.4046 30.5969 14.1358C30.3384 13.7456 29.9934 13.463 29.5759 13.2613C30.6438 12.9569 31.7405 13.4555 32.2325 14.4691C32.6945 15.4213 32.379 16.6191 31.4989 17.2468C31.4238 17.3 31.3355 17.3345 31.2535 17.3771Z" fill="#EF4334"/>
<path d="M22.6954 24.1051C22.6891 24.2542 22.6127 24.387 22.4469 24.4715C22.1326 24.6319 21.8052 24.7584 21.4747 24.88C21.2024 24.9796 21.0284 24.8562 20.9089 24.6413C20.7862 24.4195 20.8488 24.199 21.0516 24.0668C21.3909 23.8463 21.7671 23.6878 22.1608 23.5995C22.4306 23.5394 22.6985 23.8025 22.6947 24.1051H22.6954Z" fill="#F6B243"/>
</g>
<defs>
<clipPath id="clip0_2485_28757">
<rect width="32" height="32" fill="white" transform="translate(4 4)"/>
</clipPath>
</defs>
</svg>
