<svg width="40" height="40" viewBox="0 0 40 40" fill="none" xmlns="http://www.w3.org/2000/svg">
<path d="M0 20C0 8.95431 8.95431 0 20 0C31.0457 0 40 8.95431 40 20C40 31.0457 31.0457 40 20 40C8.95431 40 0 31.0457 0 20Z" fill="white"/>
<path d="M20.155 26.1545C20.155 22.6934 17.2228 19.9135 13.6897 20.1295C10.6717 20.315 8.21019 22.7516 8.01361 25.7475C7.89731 27.4946 8.53415 29.095 9.63061 30.2607C9.79397 30.4351 10.0404 30.5099 10.273 30.4517L10.2951 30.4462C10.4945 30.3991 10.6634 30.2607 10.7464 30.0724C11.1452 29.1808 11.8983 28.4776 12.8258 28.1398C13.0584 28.0539 13.0889 27.741 12.8729 27.6192C11.9564 27.0987 11.411 26.0022 11.7432 24.8227C11.9647 24.0336 12.6043 23.4106 13.4018 23.1974C15.0326 22.7599 16.5084 23.9727 16.5084 25.5204C16.5084 26.412 16.0183 27.1928 15.2957 27.6081C15.0741 27.7355 15.1018 28.0539 15.34 28.1398C16.2647 28.4776 17.0123 29.1781 17.4083 30.0696C17.4913 30.2579 17.6575 30.3936 17.8568 30.4434L17.8762 30.449C18.1116 30.5071 18.3608 30.4296 18.5241 30.2552C19.5347 29.1781 20.155 27.7383 20.155 26.1517" fill="#0131CB"/>
<path d="M22.0601 29.142V21.4252C22.0601 20.7164 22.636 20.1377 23.3503 20.1377H23.9982C24.4025 20.1377 24.7846 20.326 25.0283 20.65L29.3947 26.4313V21.4252C29.3947 20.7164 29.9706 20.1377 30.685 20.1377C31.3994 20.1377 31.9753 20.7109 31.9753 21.4252V29.142C31.9753 29.8508 31.3994 30.4295 30.685 30.4295H30.0371C29.6328 30.4295 29.2507 30.2412 29.0071 29.9173L24.6406 24.1359V29.142C24.6406 29.8508 24.0647 30.4295 23.3503 30.4295C22.636 30.4295 22.0601 29.8564 22.0601 29.142Z" fill="#0131CB"/>
<path d="M13.4782 10.1891V17.1555C13.4782 17.1555 13.4782 17.1718 13.48 17.179C13.4963 17.5001 13.7614 17.7544 14.0861 17.7544C14.4108 17.7544 14.6976 17.482 14.6976 17.1447V10.1909C14.6976 9.85361 14.4234 9.58123 14.0861 9.58123C13.7488 9.58123 13.4746 9.85361 13.4746 10.1909" fill="#FF8120"/>
<path d="M17.7174 10.2577H17.7156C17.4414 10.2577 17.2213 10.4759 17.2213 10.7465C17.2213 11.0171 17.4432 11.2353 17.7156 11.2353H21.4188V11.9677H17.8581C17.7751 11.9677 17.7029 11.9803 17.638 11.9966C17.537 12.0254 17.4522 12.0705 17.3909 12.1409C17.2862 12.2581 17.2357 12.4223 17.2357 12.6243V13.9844C17.2357 14.19 17.2862 14.3506 17.3909 14.4678C17.4522 14.5382 17.5352 14.5851 17.638 14.6121C17.7047 14.6302 17.7805 14.6446 17.8653 14.6446H19.3318V15.4383H16.7126C16.4258 15.4383 16.1931 15.671 16.1931 15.9542C16.1931 16.2374 16.4258 16.4701 16.7126 16.4701H23.2714C23.3038 16.4701 23.3273 16.4683 23.3543 16.4629C23.6033 16.425 23.7945 16.2121 23.7945 15.956C23.7945 15.6692 23.5618 15.4401 23.275 15.4401H20.5584V14.6464H22.3713C22.4037 14.6464 22.4326 14.641 22.4633 14.6356C22.6959 14.5977 22.8781 14.3975 22.8781 14.154C22.8781 13.8834 22.6581 13.6651 22.3839 13.6651C22.3731 13.6651 22.3658 13.6651 22.355 13.6669H18.5579C18.5092 13.6669 18.475 13.6561 18.4515 13.6344C18.4281 13.6128 18.4172 13.5731 18.4172 13.5064V12.9418H21.9726C22.1837 12.9418 22.3424 12.8822 22.447 12.765C22.548 12.6477 22.6021 12.4836 22.6021 12.2816V10.6491C22.6021 10.521 22.5643 10.4218 22.4921 10.3587C22.4308 10.3028 22.3442 10.2757 22.245 10.2649C22.2233 10.2649 22.2071 10.2577 22.1855 10.2577H17.7174Z" fill="#FF8120"/>
<path d="M31.5039 13.7192H24.891C24.6222 13.7192 24.4058 13.9357 24.4058 14.2009C24.4058 14.466 24.6222 14.6825 24.891 14.6825H27.5625V15.2272H26.0978C25.912 15.2272 25.7731 15.2759 25.6721 15.3643C25.6558 15.377 25.6396 15.3878 25.627 15.404C25.535 15.5104 25.4845 15.6529 25.4772 15.8297C25.4772 15.8478 25.4718 15.8694 25.4718 15.8892V17.271C25.4718 17.4766 25.5223 17.639 25.627 17.758C25.6396 17.7743 25.6558 17.7851 25.6721 17.7977C25.7731 17.8861 25.9138 17.9348 26.0978 17.9348H30.243C30.4288 17.9348 30.5677 17.8897 30.6687 17.7977C30.6849 17.7851 30.703 17.7743 30.7174 17.758C30.8148 17.6462 30.8653 17.4965 30.8707 17.3071V15.891C30.8707 15.6854 30.8202 15.5231 30.7156 15.404C30.6146 15.2868 30.4558 15.2272 30.2412 15.2272H28.7819V14.6825H31.5147C31.7835 14.6825 31.9999 14.4678 31.9999 14.2009C31.9999 13.9339 31.7835 13.7192 31.5147 13.7192H31.5039ZM26.7075 16.9445C26.684 16.9265 26.6732 16.885 26.6732 16.8218V16.1887H29.682V16.9715H26.8121C26.7634 16.9715 26.7291 16.9643 26.7057 16.9445" fill="#FF8120"/>
<path d="M8 12.8245C8 14.1179 9.05163 15.1677 10.3486 15.1677C11.6456 15.1677 12.6972 14.1197 12.6972 12.8245C12.6972 11.5294 11.6456 10.4832 10.3486 10.4832C9.05163 10.4832 8 11.5312 8 12.8245ZM9.07508 12.8245C9.07508 12.1247 9.6469 11.5546 10.3486 11.5546C11.0503 11.5546 11.6221 12.1247 11.6221 12.8245C11.6221 13.5244 11.0503 14.0944 10.3486 14.0944C9.6469 14.0944 9.07508 13.5244 9.07508 12.8245Z" fill="#FF8120"/>
<path d="M26.2043 11.4843C26.2043 12.5666 27.0846 13.4396 28.1669 13.4396C29.2492 13.4396 30.1295 12.563 30.1295 11.4843C30.1295 10.4056 29.2492 9.52891 28.1669 9.52891C27.0846 9.52891 26.2043 10.4056 26.2043 11.4843ZM27.2668 11.4843C27.2668 10.9864 27.6691 10.586 28.1669 10.586C28.6648 10.586 29.067 10.9864 29.067 11.4843C29.067 11.9821 28.6648 12.3826 28.1669 12.3826C27.6691 12.3826 27.2668 11.9821 27.2668 11.4843Z" fill="#FF8120"/>
</svg>
