<svg width="40" height="40" viewBox="0 0 40 40" fill="none" xmlns="http://www.w3.org/2000/svg">
<g clip-path="url(#clip0_1582_8625)">
<path d="M14.7234 2.64706C17.5855 2.64706 18.9113 4.64882 19.5697 5.84285C20.2282 4.64882 21.5539 2.64706 24.4161 2.64706C27.2783 2.64706 29.438 4.53468 29.438 7.60756C29.438 10.6804 27.7699 13.3055 25.7945 15.3073C23.9332 17.1949 21.1413 19.1001 19.5785 19.1001C18.0157 19.1001 15.2238 17.1949 13.3625 15.3073C11.3783 13.3055 9.71899 10.5926 9.71899 7.60756C9.71899 4.62248 11.8612 2.64706 14.7234 2.64706Z" fill="url(#paint0_linear_1582_8625)"/>
<path d="M15.7906 11.9886H15.3861C15.1747 11.9886 15 11.8198 15 11.6155V11.4289C15 11.2246 15.1747 11.0558 15.3861 11.0558C15.6343 11.0558 15.8182 10.8338 15.763 10.6028L15.239 8.47081C15.1839 8.23985 15.3677 8.01777 15.6159 8.01777H16.2135C16.3973 8.01777 16.5536 8.14213 16.5904 8.31091L17.1144 10.7627C17.1512 10.9315 17.3075 11.0558 17.4913 11.0558H17.8315C18.0153 11.0558 18.1624 10.9315 18.2084 10.7627L18.7875 8.29315C18.8243 8.12437 18.9806 8 19.1645 8H19.8447C20.0194 8 20.1757 8.11548 20.2217 8.28426L20.81 10.7538C20.8468 10.9226 21.0031 11.0381 21.1869 11.0381H21.5363C21.7201 11.0381 21.8764 10.9137 21.9132 10.7449L22.4372 8.29315C22.474 8.12437 22.6302 8 22.8141 8H23.3841C23.6323 8 23.8161 8.22208 23.761 8.45305L23.237 10.585C23.1818 10.816 23.3657 11.0381 23.6139 11.0381C23.8253 11.0381 24 11.2069 24 11.4112V11.5977C24 11.802 23.8253 11.9708 23.6139 11.9708H23.2094C23.0347 11.9708 22.8784 12.0863 22.8325 12.2551L22.2257 14.7157C22.189 14.8845 22.0327 15 21.8488 15H21.0031C20.8192 15 20.6721 14.8756 20.6261 14.7069L20.0562 12.2551C20.0194 12.0863 19.8631 11.9619 19.6793 11.9619H19.3115C19.1277 11.9619 18.9806 12.0863 18.9346 12.2551L18.3647 14.7069C18.3279 14.8756 18.1716 15 17.9877 15H17.142C16.9673 15 16.811 14.8845 16.7651 14.7157L16.1583 12.2551C16.1216 12.0863 15.9653 11.9708 15.7814 11.9708L15.7906 11.9886ZM17.6016 13.0812H17.666L17.9234 11.9886H17.3718L17.6108 13.0812H17.6016ZM19.762 11.0647L19.523 10.052H19.4586L19.2196 11.0647H19.7528H19.762ZM21.3524 13.0812H21.4168L21.6558 11.9886H21.1042L21.3616 13.0812H21.3524Z" fill="white"/>
<path d="M14.7234 2.64706C17.5855 2.64706 18.9113 4.64882 19.5697 5.84285C20.2282 4.64882 21.5539 2.64706 24.4161 2.64706C27.2783 2.64706 29.438 4.53468 29.438 7.60756C29.438 10.6804 27.7699 13.3055 25.7945 15.3073C23.9332 17.1949 21.1413 19.1001 19.5785 19.1001C18.0157 19.1001 15.2238 17.1949 13.3625 15.3073C11.3783 13.3055 9.71899 10.5926 9.71899 7.60756C9.71899 4.62248 11.8612 2.64706 14.7234 2.64706Z" fill="url(#paint1_linear_1582_8625)"/>
</g>
<path d="M37.2905 19.0818C36.8233 18.6146 36.0474 18.0806 34.6124 18.8065C34.5957 18.8148 34.579 18.8232 34.5623 18.8398L26.1274 24.7551C26.0607 23.5454 25.1679 22.7695 23.7162 22.6777L14.9226 21.7683C14.8391 21.7683 12.8201 21.6098 11.1682 22.4941L6.46265 24.8302L6.82974 25.5811L9.58298 31.2711L9.95007 32.0387C10.2921 31.9386 10.7677 31.8051 11.2433 31.7049C11.5853 31.6382 14.5471 31.6465 17.1585 31.6549C23.4993 31.6799 26.2275 31.6549 26.7114 31.4463C27.5708 31.0792 35.5885 23.2784 37.2071 21.7015C37.9746 20.8589 37.8662 19.6908 37.3072 19.0735L37.2905 19.0818Z" fill="#E0E0E0"/>
<path d="M10.3924 32.9981L9.93352 32.047L9.56643 31.2794L6.81319 25.5894L6.4461 24.8386L6.04563 24.0042C5.99557 23.9041 5.91214 23.829 5.80367 23.7873C5.69521 23.7539 5.58675 23.7539 5.48664 23.804L1.62377 25.6645C1.41519 25.7646 1.33176 26.0149 1.43187 26.2235L5.77865 35.2174C5.8287 35.3175 5.91214 35.3926 6.0206 35.4343C6.06231 35.451 6.11237 35.4594 6.16243 35.4594C6.22083 35.4594 6.28758 35.4427 6.34598 35.4176L10.2088 33.5571C10.4174 33.457 10.5009 33.2067 10.4007 32.9981H10.3924Z" fill="#E0E0E0"/>
<path d="M14.1051 26.6824L24.3004 26.4655C24.3004 26.4655 25.8355 26.2068 25.8522 24.7134C25.8606 23.4286 25.0012 23.195 24.4172 22.9614C23.8332 22.7277 15.2398 22.0269 15.2398 22.0269C15.2398 22.0269 13.1623 21.9268 11.7607 22.5275C9.19935 23.6121 6.72144 24.9721 6.72144 24.9721" fill="#E0E0E0"/>
<defs>
<linearGradient id="paint0_linear_1582_8625" x1="15.265" y1="5.56062" x2="22.5522" y2="18.2816" gradientUnits="userSpaceOnUse">
<stop stop-color="#FF8120"/>
<stop offset="1" stop-color="#E54304"/>
</linearGradient>
<linearGradient id="paint1_linear_1582_8625" x1="15.265" y1="5.56062" x2="22.5522" y2="18.2816" gradientUnits="userSpaceOnUse">
<stop stop-color="#FF8120"/>
<stop offset="1" stop-color="#E54304"/>
</linearGradient>
<clipPath id="clip0_1582_8625">
<rect width="38.2441" height="34.7059" fill="white" transform="translate(1.75586 2.64706)"/>
</clipPath>
</defs>
</svg>
