<svg width="80" height="80" viewBox="0 0 80 80" fill="none" xmlns="http://www.w3.org/2000/svg">
<path d="M65.6767 36.7955L43.8072 19.2752C41.7209 17.5749 38.2678 17.5749 36.1816 19.2752L14.3121 36.7955C12.2258 38.4958 12.6575 39.8264 15.3192 39.8264H19.5636V64H60.4251V39.8264H64.6696C67.3313 39.8264 67.763 38.4219 65.6767 36.7955ZM37.8362 57.1249C37.8362 57.7164 37.4046 58.1599 36.8291 58.1599C36.2535 58.1599 35.8219 57.7164 35.8219 57.1249V46.184C35.8219 45.0012 35.1025 44.0402 34.2392 44.0402C33.376 44.0402 32.6566 45.0012 32.6566 46.1101V46.2579V47.3668C32.6566 47.9582 32.2249 48.4018 31.6494 48.4018C31.0739 48.4018 30.6423 47.9582 30.6423 47.3668V46.0362C30.6423 43.7445 32.2969 41.8224 34.3112 41.8224C36.3255 41.8224 37.9801 43.7445 37.9801 46.0362V57.1249H37.8362ZM34.527 34.6517C34.527 32.2121 36.3974 30.2901 38.7714 30.2901C41.1454 30.2901 43.0158 32.2121 43.0158 34.6517C43.0158 37.0912 41.1454 39.0133 38.7714 39.0133C36.3974 39.0133 34.527 37.0912 34.527 34.6517ZM48.1235 58.9731C48.0516 59.5645 47.4761 60.008 46.9006 60.008H43.7352C43.0878 60.008 42.6561 59.4906 42.6561 58.8992V52.9851C42.6561 52.9851 42.6561 52.3198 42.5842 52.0241C42.5123 51.7284 41.7209 49.8803 39.7786 46.184C38.5556 43.8923 38.7714 42.1181 39.2031 41.1571C39.5627 40.1221 40.2102 39.6047 40.426 39.4568C40.8577 39.0133 42.0087 38.7176 42.3684 38.6436C44.2388 38.3479 45.7495 38.9393 46.8286 40.3439C50.7133 45.1491 48.2674 58.5295 48.1235 59.1209V58.9731Z" fill="#10185C"/>
<path d="M65.6767 36.7955L43.8072 19.2752C41.7209 17.5749 38.2678 17.5749 36.1816 19.2752L14.3121 36.7955C12.2258 38.4958 12.6575 39.8264 15.3192 39.8264H19.5636V64H60.4251V39.8264H64.6696C67.3313 39.8264 67.763 38.4219 65.6767 36.7955ZM37.8362 57.1249C37.8362 57.7164 37.4046 58.1599 36.8291 58.1599C36.2535 58.1599 35.8219 57.7164 35.8219 57.1249V46.184C35.8219 45.0012 35.1025 44.0402 34.2392 44.0402C33.376 44.0402 32.6566 45.0012 32.6566 46.1101V46.2579V47.3668C32.6566 47.9582 32.2249 48.4018 31.6494 48.4018C31.0739 48.4018 30.6423 47.9582 30.6423 47.3668V46.0362C30.6423 43.7445 32.2969 41.8224 34.3112 41.8224C36.3255 41.8224 37.9801 43.7445 37.9801 46.0362V57.1249H37.8362ZM34.527 34.6517C34.527 32.2121 36.3974 30.2901 38.7714 30.2901C41.1454 30.2901 43.0158 32.2121 43.0158 34.6517C43.0158 37.0912 41.1454 39.0133 38.7714 39.0133C36.3974 39.0133 34.527 37.0912 34.527 34.6517ZM48.1235 58.9731C48.0516 59.5645 47.4761 60.008 46.9006 60.008H43.7352C43.0878 60.008 42.6561 59.4906 42.6561 58.8992V52.9851C42.6561 52.9851 42.6561 52.3198 42.5842 52.0241C42.5123 51.7284 41.7209 49.8803 39.7786 46.184C38.5556 43.8923 38.7714 42.1181 39.2031 41.1571C39.5627 40.1221 40.2102 39.6047 40.426 39.4568C40.8577 39.0133 42.0087 38.7176 42.3684 38.6436C44.2388 38.3479 45.7495 38.9393 46.8286 40.3439C50.7133 45.1491 48.2674 58.5295 48.1235 59.1209V58.9731Z" fill="#10185C"/>
<path d="M12.9944 37.5L39.9944 17L54.9212 29M65.4944 37.5L54.9212 29M54.9212 29V17" stroke="#EE6002" stroke-width="5" stroke-linecap="round" stroke-linejoin="round"/>
</svg>
