<svg width="40" height="40" viewBox="0 0 40 40" fill="none" xmlns="http://www.w3.org/2000/svg">
<g clip-path="url(#clip0_1582_8619)">
<path d="M6.10701 34.4868H33.893C34.284 34.4868 34.6098 34.1577 34.6098 33.7628V20.6253C34.6098 19.9671 35.1311 19.4405 35.7827 19.4405C36.4605 19.4405 36.7602 18.5717 36.2259 18.1505L20.4431 5.65797C20.1825 5.44734 19.8175 5.44734 19.5569 5.65797L13.2881 10.6207C13.1447 10.7261 12.9623 10.7524 12.8059 10.6734C12.6495 10.5944 12.5452 10.4365 12.5452 10.2522V6.27667C12.5452 5.88175 12.2194 5.55266 11.8284 5.55266H8.72661C8.33562 5.55266 8.0098 5.88175 8.0098 6.27667V14.2276C8.0098 14.5962 7.84037 14.9385 7.56668 15.1623L3.77413 18.1636C3.23979 18.5849 3.53954 19.4537 4.21725 19.4537C4.86889 19.4537 5.3902 19.9803 5.3902 20.6384V33.776C5.3902 34.1709 5.71602 34.5 6.10701 34.5V34.4868Z" fill="#10185C"/>
<path d="M13.0597 34.1442C12.1986 34.1442 11.5 33.5106 11.5 32.7307C11.5 28.5228 14.9768 25.0621 19.2173 25.0621C23.4578 25.0621 26.9346 28.5065 26.9346 32.7307C26.9346 33.5106 26.236 34.1442 25.3749 34.1442H13.076H13.0597Z" fill="white"/>
<path d="M16.9486 15.3041C18.4913 15.3041 19.2022 16.4459 19.5501 17.1214C19.898 16.4459 20.6088 15.3041 22.1516 15.3041C23.6943 15.3041 24.8438 16.3816 24.8438 18.1345C24.8438 19.8874 23.9515 21.3831 22.8927 22.5249C21.8945 23.6024 20.3971 24.6959 19.5501 24.6959C18.7031 24.6959 17.2057 23.6024 16.2075 22.5249C15.1487 21.3831 14.2563 19.8392 14.2563 18.1345C14.2563 16.4298 15.4058 15.3041 16.9486 15.3041Z" fill="url(#paint0_linear_1582_8619)"/>
</g>
<defs>
<linearGradient id="paint0_linear_1582_8619" x1="17.2341" y1="16.9672" x2="21.5186" y2="24.0023" gradientUnits="userSpaceOnUse">
<stop stop-color="#FF8120"/>
<stop offset="1" stop-color="#E54304"/>
</linearGradient>
<clipPath id="clip0_1582_8619">
<rect width="33" height="29" fill="white" transform="translate(3.5 5.5)"/>
</clipPath>
</defs>
</svg>
