<svg width="40" height="40" viewBox="0 0 40 40" fill="none" xmlns="http://www.w3.org/2000/svg">
<path d="M14.5 11C13.5717 11 12.6815 11.3687 12.0251 12.0251C11.3687 12.6815 11 13.5717 11 14.5V20.5C11 21.4283 11.3687 22.3185 12.0251 22.9749C12.6815 23.6313 13.5717 24 14.5 24H14.998V22H14.501C14.1032 22 13.7216 21.842 13.4403 21.5607C13.159 21.2794 13.001 20.8978 13.001 20.5V14.5C13.001 14.1022 13.159 13.7206 13.4403 13.4393C13.7216 13.158 14.1032 13 14.501 13H20.501C20.8988 13 21.2804 13.158 21.5617 13.4393C21.843 13.7206 22.001 14.1022 22.001 14.5V20.5C22.001 20.8978 21.843 21.2794 21.5617 21.5607C21.2804 21.842 20.8988 22 20.501 22H18.995V24H20.501C21.4293 24 22.3195 23.6313 22.9759 22.9749C23.6323 22.3185 24.001 21.4283 24.001 20.5V14.5C24.001 13.5717 23.6323 12.6815 22.9759 12.0251C22.3195 11.3687 21.4293 11 20.501 11H14.5ZM17.998 19.497C17.998 19.0992 18.156 18.7176 18.4373 18.4363C18.7186 18.155 19.1002 17.997 19.498 17.997H20.997V15.997H19.498C18.5697 15.997 17.6795 16.3657 17.0231 17.0221C16.3667 17.6785 15.998 18.5687 15.998 19.497V25.497C15.998 26.4253 16.3667 27.3155 17.0231 27.9719C17.6795 28.6283 18.5697 28.997 19.498 28.997H25.498C26.4263 28.997 27.3165 28.6283 27.9729 27.9719C28.6293 27.3155 28.998 26.4253 28.998 25.497V19.497C28.998 18.5687 28.6293 17.6785 27.9729 17.0221C27.3165 16.3657 26.4263 15.997 25.498 15.997H25.003V17.997H25.498C25.8958 17.997 26.2774 18.155 26.5587 18.4363C26.84 18.7176 26.998 19.0992 26.998 19.497V25.497C26.998 25.8948 26.84 26.2764 26.5587 26.5577C26.2774 26.839 25.8958 26.997 25.498 26.997H19.498C19.1002 26.997 18.7186 26.839 18.4373 26.5577C18.156 26.2764 17.998 25.8948 17.998 25.497V19.497Z" fill="url(#paint0_linear_1582_8622)"/>
<defs>
<linearGradient id="paint0_linear_1582_8622" x1="16.0619" y1="14.187" x2="24.6853" y2="26.7478" gradientUnits="userSpaceOnUse">
<stop stop-color="#FF8120"/>
<stop offset="1" stop-color="#E54304"/>
</linearGradient>
</defs>
</svg>
