<svg width="40" height="40" viewBox="0 0 40 40" fill="none" xmlns="http://www.w3.org/2000/svg">
<path d="M0 20C0 8.95431 8.95431 0 20 0C31.0457 0 40 8.95431 40 20C40 31.0457 31.0457 40 20 40C8.95431 40 0 31.0457 0 20Z" fill="#FF8120"/>
<path d="M20.2093 21.0751C20.2093 16.7487 16.5441 13.2739 12.1278 13.5438C8.35524 13.7757 5.27837 16.8214 5.03263 20.5663C4.88727 22.7502 5.68331 24.7507 7.05388 26.2078C7.25809 26.4258 7.56611 26.5193 7.85684 26.4466L7.88453 26.4397C8.13373 26.3809 8.34486 26.2078 8.44869 25.9725C8.94708 24.858 9.88848 23.9789 11.0479 23.5566C11.3387 23.4493 11.3767 23.0582 11.1068 22.906C9.96116 22.2553 9.27933 20.8847 9.69466 19.4103C9.97154 18.4239 10.7711 17.6452 11.7678 17.3787C13.8064 16.8318 15.6511 18.3478 15.6511 20.2825C15.6511 21.3969 15.0385 22.373 14.1352 22.8921C13.8583 23.0513 13.8929 23.4493 14.1906 23.5566C15.3466 23.9789 16.281 24.8545 16.776 25.969C16.8798 26.2043 17.0875 26.3739 17.3367 26.4362L17.3609 26.4431C17.6551 26.5158 17.9666 26.4189 18.1708 26.2009C19.4341 24.8545 20.2093 23.0548 20.2093 21.0716" fill="white"/>
<path d="M22.5906 24.8094V15.1635C22.5906 14.2775 23.3105 13.5541 24.2034 13.5541H25.0133C25.5186 13.5541 25.9963 13.7895 26.3008 14.1944L31.7589 21.4211V15.1635C31.7589 14.2775 32.4788 13.5541 33.3718 13.5541C34.2647 13.5541 34.9846 14.2705 34.9846 15.1635V24.8094C34.9846 25.6955 34.2647 26.4188 33.3718 26.4188H32.5619C32.0566 26.4188 31.5789 26.1835 31.2744 25.7785L25.8163 18.5519V24.8094C25.8163 25.6955 25.0964 26.4188 24.2034 26.4188C23.3105 26.4188 22.5906 25.7024 22.5906 24.8094Z" fill="white"/>
</svg>
