<svg width="40" height="40" viewBox="0 0 40 40" fill="none" xmlns="http://www.w3.org/2000/svg">
<path fill-rule="evenodd" clip-rule="evenodd" d="M34.6151 26.0882C34.6151 32.8095 28.5271 35.8309 20.0011 35.8309C11.4751 35.8309 5.38477 32.8095 5.38477 26.1357C5.38477 19.7469 8.17777 16.1126 13.7638 12.8265C15.564 14.1793 17.7553 14.9099 20.0071 14.9083C22.259 14.9067 24.4492 14.1728 26.2475 12.8175C31.8267 16.0696 34.6151 19.7039 34.6151 26.0882ZM23.9429 10.9721L26.8151 6.48293C26.9398 6.24476 27.0017 5.97872 26.9949 5.70997C26.9881 5.44122 26.9129 5.17863 26.7764 4.94704C26.6399 4.71544 26.4466 4.52248 26.2147 4.38641C25.9829 4.25033 25.7202 4.17563 25.4514 4.16938H15.1229C14.8365 4.16394 14.5539 4.23636 14.3053 4.3789C14.0568 4.52145 13.8516 4.72878 13.7116 4.97879C13.5716 5.22879 13.5021 5.5121 13.5105 5.79851C13.5189 6.08491 13.6049 6.36366 13.7592 6.60505L16.1271 11.0151C18.5266 12.4511 21.5548 12.4376 23.9429 10.9721Z" fill="#EE6002"/>
<path fill-rule="evenodd" clip-rule="evenodd" d="M20.3914 18.1698C19.4759 18.1569 18.567 18.3273 17.7175 18.6712C16.868 19.0151 16.0948 19.5255 15.4429 20.1729C14.791 20.8203 14.2734 21.5916 13.92 22.4422C13.5667 23.2927 13.3848 24.2055 13.3848 25.1275C13.3848 26.0494 13.5667 26.9622 13.92 27.8128C14.2734 28.6633 14.791 29.4347 15.4429 30.082C16.0948 30.7294 16.868 31.2398 17.7175 31.5837C18.567 31.9276 19.4759 32.098 20.3914 32.0852C22.2241 32.0852 23.9817 31.352 25.2776 30.0471C26.5735 28.7422 27.3015 26.9723 27.3015 25.1268C27.3015 23.2813 26.5735 21.5114 25.2776 20.2065C23.9817 18.9015 22.2241 18.1698 20.3914 18.1698ZM20.6651 21.4596L21.586 23.3251C21.6065 23.3721 21.639 23.4129 21.6802 23.4432C21.7214 23.4735 21.7699 23.4922 21.8206 23.4975L23.8647 23.8098C23.9232 23.8173 23.9784 23.8415 24.0237 23.8795C24.0691 23.9175 24.1027 23.9678 24.1207 24.0244C24.1387 24.081 24.1403 24.1416 24.1252 24.199C24.1102 24.2565 24.0792 24.3085 24.0359 24.3488L22.5285 25.7934C22.506 25.8366 22.4943 25.8846 22.4943 25.9333C22.4943 25.982 22.506 26.03 22.5285 26.0731L22.817 28.1206C22.8292 28.1795 22.8241 28.2408 22.8025 28.2969C22.7809 28.353 22.7436 28.4017 22.6951 28.437C22.6467 28.4723 22.5892 28.4927 22.5295 28.4958C22.4697 28.499 22.4104 28.4846 22.3586 28.4546L20.5384 27.4852C20.4911 27.4636 20.4399 27.4524 20.388 27.4524C20.3362 27.4524 20.2849 27.4636 20.2377 27.4852L18.4175 28.4546C18.3657 28.4846 18.3063 28.499 18.2466 28.4958C18.1869 28.4927 18.1294 28.4723 18.0809 28.437C18.0325 28.4017 17.9952 28.353 17.9736 28.2969C17.9519 28.2408 17.9469 28.1795 17.959 28.1206L18.3002 26.0731C18.3148 26.0256 18.3175 25.9753 18.3081 25.9265C18.2987 25.8777 18.2774 25.832 18.2462 25.7934L16.7375 24.3379C16.6969 24.2972 16.6684 24.2459 16.655 24.1899C16.6417 24.1338 16.644 24.0751 16.6617 24.0203C16.6794 23.9654 16.7119 23.9166 16.7555 23.8792C16.7991 23.8418 16.8521 23.8173 16.9087 23.8084L18.9541 23.5084C19.0048 23.5031 19.0533 23.4843 19.0945 23.454C19.1357 23.4238 19.1682 23.383 19.1887 23.3359L20.1096 21.4704C20.1341 21.4175 20.1729 21.3725 20.2215 21.3406C20.2701 21.3088 20.3267 21.2913 20.3847 21.2901C20.4427 21.289 20.4998 21.3043 20.5496 21.3342C20.5995 21.3642 20.6399 21.4076 20.6665 21.4596H20.6651Z" fill="white"/>
</svg>
