<svg width="40" height="40" viewBox="0 0 40 40" fill="none" xmlns="http://www.w3.org/2000/svg">
<path d="M12.8598 7.9016C17.069 7.9016 19.0187 10.8455 19.9871 12.6015C20.9555 10.8455 22.9052 7.9016 27.1144 7.9016C31.3237 7.9016 34.5 10.6776 34.5 15.1968C34.5 19.7159 32.0467 23.5766 29.1416 26.5205C26.4043 29.2965 22.2983 32.0984 20 32.0984C17.7017 32.0984 13.5957 29.2965 10.8584 26.5205C7.94034 23.5766 5.5 19.5868 5.5 15.1968C5.5 10.8068 8.65049 7.9016 12.8598 7.9016Z" fill="#FF6767"/>
<path d="M14.4303 20.6398H13.8354C13.5245 20.6398 13.2676 20.3915 13.2676 20.0911V19.8167C13.2676 19.5162 13.5245 19.268 13.8354 19.268C14.2004 19.268 14.4708 18.9414 14.3897 18.6017L13.6191 15.4663C13.538 15.1267 13.8084 14.8 14.1734 14.8H15.0522C15.3226 14.8 15.5524 14.9829 15.6065 15.2312L16.3771 18.8369C16.4312 19.0851 16.6611 19.268 16.9315 19.268H17.4317C17.7021 19.268 17.9184 19.0851 17.986 18.8369L18.8378 15.205C18.8918 14.9568 19.1217 14.7739 19.3921 14.7739H20.3925C20.6494 14.7739 20.8793 14.9438 20.9469 15.192L21.8121 18.8238C21.8662 19.0721 22.096 19.2419 22.3664 19.2419H22.8802C23.1506 19.2419 23.3804 19.059 23.4345 18.8108L24.2051 15.205C24.2592 14.9568 24.489 14.7739 24.7594 14.7739H25.5977C25.9627 14.7739 26.2331 15.1005 26.152 15.4402L25.3814 18.5756C25.3002 18.9153 25.5706 19.2419 25.9357 19.2419C26.2466 19.2419 26.5035 19.4901 26.5035 19.7906V20.0649C26.5035 20.3654 26.2466 20.6136 25.9357 20.6136H25.3408C25.0839 20.6136 24.8541 20.7835 24.7865 21.0317L23.8942 24.6505C23.8401 24.8987 23.6103 25.0685 23.3399 25.0685H22.096C21.8256 25.0685 21.6093 24.8856 21.5417 24.6374L20.7035 21.0317C20.6494 20.7835 20.4196 20.6006 20.1492 20.6006H19.6084C19.338 20.6006 19.1217 20.7835 19.0541 21.0317L18.2158 24.6374C18.1618 24.8856 17.9319 25.0685 17.6615 25.0685H16.4177C16.1608 25.0685 15.931 24.8987 15.8634 24.6505L14.9711 21.0317C14.917 20.7835 14.6872 20.6136 14.4168 20.6136L14.4303 20.6398ZM17.0937 22.2467H17.1883L17.5669 20.6398H16.7557L17.1072 22.2467H17.0937ZM20.2709 19.2811L19.9193 17.7918H19.8247L19.4732 19.2811H20.2573H20.2709ZM22.6098 22.2467H22.7044L23.0559 20.6398H22.2448L22.6233 22.2467H22.6098Z" fill="white"/>
</svg>
