<svg width="80" height="80" viewBox="0 0 80 80" fill="none" xmlns="http://www.w3.org/2000/svg">
<path d="M0 40C0 17.9086 17.9086 0 40 0C62.0914 0 80 17.9086 80 40C80 62.0914 62.0914 80 40 80C17.9086 80 0 62.0914 0 40Z" fill="#FFF5E6"/>
<mask id="mask0_2471_28672" style="mask-type:alpha" maskUnits="userSpaceOnUse" x="0" y="0" width="80" height="80">
<path d="M0 40C0 17.9086 17.9086 0 40 0C62.0914 0 80 17.9086 80 40C80 62.0914 62.0914 80 40 80C17.9086 80 0 62.0914 0 40Z" fill="#FFC77D"/>
</mask>
<g mask="url(#mask0_2471_28672)">
<path d="M64 80.5333H16V28.8C18.2624 28.7975 20.4314 27.8976 22.0312 26.2979C23.6309 24.6981 24.5308 22.5291 24.5333 20.2667H55.4667C55.4643 21.3874 55.6842 22.4975 56.1136 23.5327C56.543 24.5679 57.1735 25.5077 57.9685 26.2976C58.7584 27.0928 59.6983 27.7235 60.7336 28.1531C61.7689 28.5826 62.8791 28.8025 64 28.8V80.5333Z" fill="white"/>
<path d="M40 54.9333C47.0692 54.9333 52.8 49.2026 52.8 42.1333C52.8 35.0641 47.0692 29.3333 40 29.3333C32.9307 29.3333 27.2 35.0641 27.2 42.1333C27.2 49.2026 32.9307 54.9333 40 54.9333Z" fill="url(#paint0_linear_2471_28672)"/>
<path d="M44.5255 48.1674L40 43.6419L35.4745 48.1674L33.966 46.6589L38.4915 42.1334L33.966 37.6079L35.4745 36.0994L40 40.6249L44.5255 36.0994L46.034 37.6079L41.5085 42.1334L46.034 46.6589L44.5255 48.1674Z" fill="white"/>
<path d="M46.9332 58.1333H33.0666C32.1829 58.1333 31.4666 58.8497 31.4666 59.7333C31.4666 60.617 32.1829 61.3333 33.0666 61.3333H46.9332C47.8169 61.3333 48.5332 60.617 48.5332 59.7333C48.5332 58.8497 47.8169 58.1333 46.9332 58.1333Z" fill="#FFC77D"/>
<path d="M51.7334 64.5333H28.2667C27.3831 64.5333 26.6667 65.2497 26.6667 66.1333C26.6667 67.017 27.3831 67.7333 28.2667 67.7333H51.7334C52.6171 67.7333 53.3334 67.017 53.3334 66.1333C53.3334 65.2497 52.6171 64.5333 51.7334 64.5333Z" fill="#FFC77D"/>
</g>
<defs>
<linearGradient id="paint0_linear_2471_28672" x1="34.4" y1="33.8667" x2="46.6666" y2="51.7333" gradientUnits="userSpaceOnUse">
<stop stop-color="#FF8120"/>
<stop offset="1" stop-color="#E54304"/>
</linearGradient>
</defs>
</svg>
