<svg width="40" height="40" viewBox="0 0 40 40" fill="none" xmlns="http://www.w3.org/2000/svg">
<path d="M0 20C0 8.95431 8.95431 0 20 0C31.0457 0 40 8.95431 40 20C40 31.0457 31.0457 40 20 40C8.95431 40 0 31.0457 0 20Z" fill="#FEE500"/>
<g clip-path="url(#clip0_2180_17257)">
<g clip-path="url(#clip1_2180_17257)">
<path d="M20.1183 11.2011C14.5629 11.2011 10.0867 14.7182 10.0867 19.1145C10.0867 21.9522 11.9651 24.4701 14.8427 25.8289C14.6429 26.5883 14.0833 28.6666 13.9634 29.1062C13.8435 29.6657 14.1633 29.6657 14.3631 29.5059C14.5629 29.386 17.0808 27.6274 18.1999 26.8681C18.7994 26.948 19.4389 26.988 20.0384 26.988C25.5538 26.988 30.07 23.4709 30.07 19.0746C30.1099 14.7182 25.6337 11.2011 20.1183 11.2011Z" fill="#391B1B"/>
</g>
</g>
<defs>
<clipPath id="clip0_2180_17257">
<rect width="23.98" height="23.98" fill="white" transform="translate(8.01001 8.01003)"/>
</clipPath>
<clipPath id="clip1_2180_17257">
<rect width="23.98" height="23.98" fill="white" transform="translate(8.00977 8.00809)"/>
</clipPath>
</defs>
</svg>
