<svg width="40" height="40" viewBox="0 0 40 40" fill="none" xmlns="http://www.w3.org/2000/svg">
<path d="M0 20C0 8.95431 8.95431 0 20 0C31.0457 0 40 8.95431 40 20C40 31.0457 31.0457 40 20 40C8.95431 40 0 31.0457 0 20Z" fill="#10185C"/>
<path d="M21.01 25.959C20.824 25.977 19.384 27.235 16.689 29.733C16.5458 29.8658 16.3668 29.9538 16.1742 29.9861C15.9815 30.0184 15.7836 29.9935 15.6049 29.9146C15.4263 29.8357 15.2746 29.7061 15.1687 29.542C15.0628 29.3779 15.0073 29.1863 15.009 28.991C15.029 26.629 15.02 25.282 14.985 24.951C14.967 24.778 15.017 24.671 14.985 24.651C12.708 23.212 11 20.775 11 18.005C11 13.584 15.03 10 20 10C24.97 10 29 13.584 29 18.004C29 22.121 25.505 25.513 21.01 25.959Z" fill="white"/>
</svg>
