<svg width="40" height="40" viewBox="0 0 40 40" fill="none" xmlns="http://www.w3.org/2000/svg">
<path d="M0 20C0 8.95431 8.95431 0 20 0C31.0457 0 40 8.95431 40 20C40 31.0457 31.0457 40 20 40C8.95431 40 0 31.0457 0 20Z" fill="#1D4ED8"/>
<path fill-rule="evenodd" clip-rule="evenodd" d="M13.8929 11C13.1256 11 12.3898 11.3048 11.8473 11.8473C11.3048 12.3898 11 13.1256 11 13.8929V23.5357C11 23.7915 11.1016 24.0367 11.2824 24.2176C11.4633 24.3984 11.7085 24.5 11.9643 24.5C12.22 24.5 12.4653 24.3984 12.6461 24.2176C12.827 24.0367 12.9286 23.7915 12.9286 23.5357V13.8929C12.9286 13.6371 13.0302 13.3918 13.211 13.211C13.3918 13.0302 13.6371 12.9286 13.8929 12.9286H23.5357C23.7915 12.9286 24.0367 12.827 24.2176 12.6461C24.3984 12.4653 24.5 12.22 24.5 11.9643C24.5 11.7085 24.3984 11.4633 24.2176 11.2824C24.0367 11.1016 23.7915 11 23.5357 11H13.8929ZM16.7857 14.8571C16.2742 14.8571 15.7837 15.0603 15.422 15.422C15.0603 15.7837 14.8571 16.2742 14.8571 16.7857V27.0714C14.8571 27.5829 15.0603 28.0735 15.422 28.4351C15.7837 28.7968 16.2742 29 16.7857 29H27.0714C27.5829 29 28.0735 28.7968 28.4351 28.4351C28.7968 28.0735 29 27.5829 29 27.0714V16.7857C29 16.2742 28.7968 15.7837 28.4351 15.422C28.0735 15.0603 27.5829 14.8571 27.0714 14.8571H16.7857Z" fill="white"/>
</svg>
