<svg width="40" height="40" viewBox="0 0 40 40" fill="none" xmlns="http://www.w3.org/2000/svg">
<path d="M0 20C0 8.95431 8.95431 0 20 0C31.0457 0 40 8.95431 40 20C40 31.0457 31.0457 40 20 40C8.95431 40 0 31.0457 0 20Z" fill="#EEEEEE"/>
<path d="M13 18C11.9 18 11 18.9 11 20C11 21.1 11.9 22 13 22C14.1 22 15 21.1 15 20C15 18.9 14.1 18 13 18ZM27 18C25.9 18 25 18.9 25 20C25 21.1 25.9 22 27 22C28.1 22 29 21.1 29 20C29 18.9 28.1 18 27 18ZM20 18C18.9 18 18 18.9 18 20C18 21.1 18.9 22 20 22C21.1 22 22 21.1 22 20C22 18.9 21.1 18 20 18Z" fill="#616161"/>
</svg>
