<svg width="80" height="80" viewBox="0 0 80 80" fill="none" xmlns="http://www.w3.org/2000/svg">
<g clip-path="url(#clip0_2448_25584)">
<g style="mix-blend-mode:multiply">
<path d="M41.156 79.9902C62.6036 79.9902 79.9904 62.3128 79.9904 40.5065C79.9904 18.7003 62.6036 1.02281 41.156 1.02281C19.7083 1.02281 2.32153 18.7003 2.32153 40.5065C2.32153 62.3128 19.7083 79.9902 41.156 79.9902Z" fill="#FFC77D"/>
</g>
<path d="M77.1689 39.4837C77.1689 61.0217 59.9982 78.4674 38.8344 78.4674C17.6707 78.4674 0.5 61.0217 0.5 39.4837C0.5 17.9458 17.6707 0.5 38.8344 0.5C59.9982 0.5 77.1689 17.9458 77.1689 39.4837Z" fill="white" stroke="#FFAB3B"/>
<path d="M39.4237 5.88168C45.0203 5.88168 50.5179 7.41796 55.3617 10.3355C60.2056 13.253 64.2243 17.4486 67.0122 22.4988C69.8002 27.549 71.2588 33.2752 71.2409 39.0994C71.223 44.9237 69.7292 50.6401 66.9103 55.6716C64.0913 60.7032 60.0469 64.8719 55.1853 67.7571C50.3236 70.6423 44.8166 72.142 39.2201 72.1047C33.6236 72.0675 28.1355 70.4946 23.3097 67.5449C18.4839 64.5952 14.4911 60.373 11.7343 55.3043L39.4237 38.9935V5.88168Z" fill="#FF8120"/>
<mask id="mask0_2448_25584" style="mask-type:alpha" maskUnits="userSpaceOnUse" x="11" y="5" width="61" height="68">
<path d="M39.4237 5.88168C45.0175 5.88168 50.5125 7.41644 55.3546 10.3312C60.1968 13.246 64.215 17.4378 67.004 22.484C69.7931 27.5302 71.2546 33.2524 71.241 39.0738C71.2274 44.8952 69.7394 50.61 66.9268 55.6421C64.1142 60.6741 60.0766 64.8456 55.2209 67.7359C50.3652 70.6262 44.8632 72.1332 39.2694 72.105C33.6756 72.0768 28.1878 70.5143 23.3593 67.5751C18.5308 64.636 14.5322 60.424 11.7667 55.3637L39.4237 38.9935V5.88168Z" fill="url(#paint0_linear_2448_25584)"/>
</mask>
<g mask="url(#mask0_2448_25584)">
<g clip-path="url(#clip1_2448_25584)">
<path d="M40.2167 73.5146C40.155 73.5573 40.0509 73.5015 40.0127 73.6H39.2515C39.2147 73.5773 39.1807 73.5469 39.1405 73.5332C38.3321 73.2596 37.8797 72.6794 37.8436 71.8271C37.8228 71.3358 37.8373 70.8439 37.8367 70.3519C37.8367 69.9681 37.8367 69.5843 37.8367 69.1971C37.6646 69.2026 37.5917 69.3018 37.5029 69.3666C36.4731 70.1169 35.4517 70.8783 34.4157 71.6211C33.386 72.359 32.1099 71.9932 31.6165 70.8383C31.588 70.7708 31.5971 70.673 31.4985 70.644V69.7504C31.799 68.9786 32.4797 68.5783 33.1056 68.1236C33.7933 67.6233 34.4754 67.1155 35.1658 66.6201C35.324 66.5064 35.4128 66.3755 35.4656 66.1853C35.8909 64.655 36.3239 63.1274 36.7673 61.6018C36.8249 61.4041 36.7986 61.2711 36.6744 61.1071C36.1623 60.4339 35.8576 59.6856 35.9277 58.8216C36.3441 58.8209 36.7597 58.8195 37.1761 58.8188L37.167 58.8388C37.2503 60.1128 37.7326 61.1788 38.8289 61.905C39.0489 62.0504 39.1204 62.2041 39.1197 62.4604C39.1107 65.5245 39.1141 68.588 39.1134 71.6521C39.1134 72.2536 39.3313 72.7601 39.7629 73.1818C39.8996 73.3147 40.1231 73.3271 40.2154 73.5166L40.2167 73.5146Z" fill="#3F404F"/>
<path d="M49.6331 73.6C49.4395 73.5063 49.2348 73.4312 49.0551 73.3168C48.4889 72.9571 48.1981 72.428 48.187 71.7665C48.1724 70.8762 48.1835 69.986 48.1835 69.0951C48.0357 69.0737 47.9726 69.1709 47.8942 69.2281C46.8159 70.0143 45.75 70.817 44.6613 71.5873C43.4712 72.4293 41.9335 71.7837 41.7143 70.3519C41.6067 69.6491 41.8829 69.0675 42.4526 68.6424C43.3651 67.9616 44.2782 67.2809 45.2115 66.629C45.5536 66.3899 45.7882 66.124 45.8409 65.7071C45.8562 65.5852 45.9166 65.468 45.9568 65.3495C46.4967 65.4873 46.9963 65.7567 47.5556 65.8304C47.6312 65.8539 47.7054 65.8849 47.7832 65.9C48.2377 65.991 48.6936 66.0792 49.1488 66.1681C49.1488 68.0126 49.1522 69.8572 49.1467 71.7017C49.1446 72.4424 49.4638 72.9943 50.0918 73.3802C50.1848 73.4374 50.3208 73.4512 50.3256 73.6014H49.6338L49.6331 73.6Z" fill="#3F404F"/>
<path d="M50.3249 73.6C50.3201 73.4498 50.1841 73.436 50.0911 73.3788C49.4631 72.993 49.1439 72.441 49.146 71.7003C49.1516 69.8558 49.1481 68.0112 49.1481 66.1667C50.0696 66.2191 50.9855 66.144 51.8987 66.0289C51.9022 67.9492 51.923 69.8702 51.8994 71.7906C51.8897 72.5768 51.4734 73.1466 50.7357 73.4677C50.6435 73.5077 50.5297 73.507 50.463 73.6H50.3249Z" fill="#5D5E70"/>
<path d="M51.8993 66.0289C50.9861 66.1447 50.0708 66.2191 49.1486 66.1667C48.6934 66.0778 48.2382 65.9903 47.783 65.8987C47.706 65.8828 47.6311 65.8525 47.5554 65.8291C47.7032 64.5757 47.8614 63.3237 47.996 62.0697C48.096 61.1423 48.2084 60.2134 48.2382 59.2826C48.2799 57.9782 48.2479 56.6711 48.2521 55.3654C48.2521 55.2758 48.1945 55.1628 48.3576 55.056C48.3923 55.1098 48.4256 55.1711 48.4672 55.2262C49.2492 56.268 50.0299 57.3112 50.8154 58.3496C51.3351 59.0359 51.9943 59.3776 52.8832 59.1813C53.2281 59.1055 53.5848 59.0814 53.9359 59.0338C53.9844 59.8593 54.203 60.651 54.4438 61.4358C54.738 62.3963 55.085 63.3396 55.5166 64.2477C55.6408 64.5096 55.5735 64.6274 55.3341 64.7528C54.3134 65.2889 53.2427 65.6878 52.1199 65.9517C52.0436 65.9696 51.9569 65.96 51.8979 66.0289H51.8993Z" fill="#83DB3E"/>
<path d="M52.1937 49.6064C52.2672 49.776 52.4449 49.8325 52.5711 49.9441C53.4892 50.7571 53.8951 51.7893 53.9048 52.9917C53.9104 53.678 53.9118 54.3649 53.9027 55.0512C53.9 55.2648 53.9562 55.3316 54.1817 55.2875C54.5529 55.2152 54.9311 55.1766 55.3058 55.1235C55.4571 55.9394 55.6438 56.749 55.743 57.5737C55.6431 57.5986 55.5445 57.633 55.4432 57.6475C54.6522 57.7625 53.8563 57.8494 53.0708 57.9941C52.1944 58.1553 51.4505 57.9947 50.894 57.2637C50.0786 56.1929 49.2723 55.1146 48.4577 54.0431C48.314 53.8537 48.2315 53.6614 48.246 53.4154C48.2703 52.9951 48.2676 52.5755 48.3078 52.1538C48.4223 50.9487 48.6631 49.8145 49.7005 49.0208C50.1709 48.9443 50.6261 49.078 51.0883 49.1207C51.4102 49.2626 51.7322 49.4039 52.0549 49.5458C52.0868 49.6023 52.1361 49.6209 52.1985 49.6085L52.195 49.6064H52.1937Z" fill="#83DB3E"/>
<path d="M49.699 49.0215C48.6617 49.8152 48.4216 50.9494 48.3064 52.1545C48.2661 52.5762 48.2689 52.9958 48.2446 53.4161C48.2307 53.6621 48.3126 53.8543 48.4563 54.0438C49.2709 55.1153 50.0772 56.1936 50.8926 57.2644C51.4491 57.9954 52.1929 58.156 53.0693 57.9948C53.8548 57.8501 54.6507 57.7632 55.4418 57.6482C55.5431 57.6337 55.6416 57.5992 55.7416 57.5744C55.7575 57.5786 55.7742 57.5827 55.7894 57.5889C55.847 57.972 55.9046 58.3551 55.9622 58.7375C55.287 58.8368 54.6112 58.936 53.936 59.0352C53.5849 59.0827 53.2282 59.1062 52.8834 59.1826C51.9945 59.3783 51.3346 59.0373 50.8155 58.351C50.0293 57.3119 49.2487 56.2694 48.4674 55.2276C48.4257 55.1718 48.3917 55.1105 48.3577 55.0574C48.1953 55.1642 48.2529 55.2772 48.2522 55.3668C48.2474 56.6725 48.2793 57.9796 48.2384 59.2839C48.2085 60.2148 48.0961 61.1436 47.9962 62.0711C47.8616 63.3258 47.7034 64.5778 47.5556 65.8305C46.9963 65.7567 46.4967 65.4873 45.9568 65.3495C45.5467 65.1449 45.1408 64.9313 44.7251 64.7397C44.4948 64.6336 44.4462 64.5337 44.56 64.2808C45.2192 62.8077 45.784 61.3014 46.0727 59.7063C46.1136 59.4817 46.1393 59.2543 46.1719 59.0283C46.2476 59.0042 46.3232 58.978 46.3995 58.956C47.262 58.7065 47.9691 57.7756 47.6173 56.6939C47.4001 55.9821 46.895 55.5962 46.183 55.4446C46.2129 54.4187 46.1261 53.3906 46.2351 52.366C46.4148 50.6779 47.8109 49.2578 49.4943 49.0545C49.563 49.0463 49.6303 49.0339 49.6983 49.0235L49.699 49.0215Z" fill="#4FB103"/>
<path d="M43.0388 41.7618C43.4836 42.2372 43.9464 42.692 44.2441 43.2894C45.473 45.7568 44.1234 48.7472 41.4463 49.4624C41.3582 49.4859 41.2687 49.5058 41.1798 49.5279C41.0931 49.4211 40.9592 49.4128 40.8426 49.3687C39.3569 48.8134 38.4049 47.7833 37.9941 46.2536C37.8095 45.566 37.8991 44.8666 37.8574 44.1734C38.1919 43.554 38.1593 42.8808 38.1412 42.2124C38.1364 42.0353 38.1683 41.9072 38.3543 41.8555C38.7456 41.8548 39.137 41.8631 39.5276 41.8514C40.6983 41.8155 41.873 41.9458 43.0395 41.7618H43.0388ZM43.3913 44.0211C43.3913 43.8385 43.4059 43.6539 43.3878 43.4734C43.358 43.1702 43.1179 42.9524 42.8424 42.9545C42.5454 42.9566 42.3144 43.1833 42.3026 43.5106C42.2908 43.8413 42.2908 44.1734 42.3026 44.5048C42.3144 44.8266 42.5531 45.0581 42.8459 45.0588C43.12 45.0588 43.358 44.8397 43.3878 44.5358C43.4045 44.3663 43.3906 44.1934 43.3906 44.0218L43.3913 44.0211ZM41.5941 44.0018C41.5941 44.0018 41.5955 44.0018 41.5962 44.0018C41.5962 43.8303 41.608 43.658 41.5934 43.4885C41.567 43.1812 41.3408 42.9621 41.0626 42.9545C40.7746 42.9462 40.5206 43.1798 40.5067 43.4968C40.4922 43.8385 40.4915 44.1824 40.5067 44.5241C40.5206 44.8259 40.7579 45.0499 41.0355 45.0588C41.3082 45.0671 41.558 44.848 41.5892 44.5503C41.608 44.3698 41.5927 44.1851 41.5927 44.0025L41.5941 44.0018Z" fill="#F7BF88"/>
<path d="M40.2903 49.6209C40.8933 49.8331 41.4998 50.0199 42.0112 50.4423C42.7238 51.0314 43.1665 51.7659 43.3289 52.6575C43.5024 53.6091 43.3678 54.5751 43.4038 55.5335C43.4066 55.6024 43.4059 55.6706 43.4066 55.7395C43.0051 55.8525 42.6868 55.754 42.4518 55.4439C42.3207 55.271 42.1853 55.1015 42.0611 54.923C41.964 54.7839 41.8849 54.7549 41.7329 54.8727C41.0272 55.4185 40.3111 55.9504 39.5992 56.4871C39.5763 56.4851 39.5534 56.4844 39.5305 56.4851C39.3355 56.0813 39.0267 55.7581 38.7554 55.4095C38.6215 55.2372 38.4959 55.342 38.3814 55.4536C38.2849 55.5473 38.0427 55.6004 38.1892 55.7802C38.4757 56.133 38.6777 56.5554 39.0544 56.8337C39.0329 56.9771 39.1412 57.0597 39.2127 57.1569C39.6214 57.7136 40.0322 58.2683 40.4423 58.8237C39.3507 58.8285 38.2592 58.8326 37.1677 58.8374L37.1767 58.8175C37.1767 57.285 37.1712 55.7526 37.1788 54.2209C37.1809 53.7544 37.1629 53.2907 37.2336 52.8215C37.4252 51.5495 38.1184 50.6545 39.2217 50.0281C39.5208 49.8586 39.8767 49.8325 40.1522 49.6202C40.198 49.6202 40.2438 49.6202 40.2903 49.6202V49.6209Z" fill="#E4F3FC"/>
<path d="M49.0247 46.501C47.9783 46.9978 46.9721 46.8875 46.1595 46.0944C45.2561 45.2125 45.1215 44.048 45.848 42.9731C46.4579 42.0712 47.3565 41.7521 48.4362 41.9623C48.6312 42.0002 48.7547 41.994 48.8359 41.7411C49.3432 40.1577 50.4028 39.1035 52.0237 38.6715C53.0479 38.3986 54.0673 38.4841 55.036 38.9512C54.9437 39.0628 54.8049 39.098 54.6828 39.1586C53.7932 39.6031 52.9862 40.1474 52.3297 40.9074C51.4971 41.8707 51.0557 42.9731 51.0141 44.2403C51.0009 44.6413 51.0537 45.0361 51.0779 45.4337C50.3806 45.4033 49.7762 45.116 49.194 44.7639C49.11 44.7129 49.0295 44.5861 48.9331 44.6351C48.8186 44.6929 48.8803 44.839 48.8727 44.9472C48.8332 45.4736 48.9102 45.989 49.024 46.501H49.0247Z" fill="#CBCBCA"/>
<path d="M57.8892 45.2145C57.8774 46.3811 57.4882 47.4119 56.6846 48.2587C55.7943 49.1972 54.6896 49.6933 53.3747 49.6822C53.0437 49.3708 52.6288 49.1586 52.3304 48.8092C51.5109 47.8494 51.1126 46.7428 51.1598 45.4812C51.2978 45.4826 51.4359 45.484 51.5747 45.4846C52.9223 45.4922 54.07 45.0237 54.9908 44.0425C55.6112 43.381 55.9671 42.5845 56.1392 41.7019C56.337 41.7673 56.4522 41.9437 56.6159 42.0546C57.4063 42.9628 57.892 43.9915 57.8899 45.2145H57.8892ZM56.7637 46.3391C56.7748 45.9739 56.6374 45.7713 56.3599 45.7045C56.0664 45.6335 55.836 45.7527 55.7263 46.04C55.6653 46.1985 55.6146 46.3673 55.5987 46.5354C55.5709 46.8207 55.7139 47.026 55.9886 47.1059C56.2676 47.1873 56.4959 47.0818 56.6173 46.8234C56.6985 46.6505 56.7297 46.4548 56.763 46.3397L56.7637 46.3391ZM54.5398 46.7249C54.9138 46.7284 55.1615 46.388 55.1733 45.8553C55.1809 45.5281 54.9401 45.2772 54.6237 45.2828C54.2691 45.289 54.0041 45.6693 53.9999 46.1764C53.9971 46.481 54.2344 46.7222 54.5398 46.7249Z" fill="#F7BF88"/>
<path d="M56.1391 41.7018C55.967 42.5838 55.611 43.381 54.9906 44.0425C54.0698 45.0237 52.9221 45.4922 51.5746 45.4846C51.4365 45.484 51.2984 45.4826 51.1596 45.4812C51.1325 45.4654 51.1055 45.4495 51.0791 45.433C51.0548 45.0354 51.0021 44.6406 51.0153 44.2396C51.0569 42.9724 51.4982 41.8707 52.3309 40.9067C52.9873 40.1467 53.795 39.6024 54.6839 39.1579C54.8054 39.0973 54.9448 39.0622 55.0371 38.9505C55.382 38.9953 55.5846 39.3398 55.9364 39.3708C56.087 40.1405 56.2695 40.9074 56.1397 41.7012L56.1391 41.7018Z" fill="#E4E4E4"/>
<path d="M58.1429 57.6468C59.6327 57.4043 60.7104 58.0933 61.0976 59.554C62.2161 63.7771 63.3285 68.0016 64.4429 72.2254C64.4547 72.2695 64.4658 72.3143 64.4762 72.3584C64.5615 72.7229 64.4117 72.9985 64.0841 73.077C63.7823 73.1501 63.5193 72.9806 63.4235 72.6271C63.205 71.8216 62.9982 71.0127 62.7851 70.2051C61.8629 66.711 60.9408 63.2176 60.0158 59.7242C59.8222 58.9939 59.2816 58.608 58.5704 58.6762C57.9493 58.7355 57.4532 59.2543 57.4199 59.8944C57.4116 60.0522 57.4497 60.2128 57.4608 60.3719C57.4809 60.6785 57.3415 60.8818 57.0396 60.95C56.7454 61.0169 56.4935 60.8611 56.4109 60.5531C56.2326 59.8868 56.3513 59.2612 56.7045 58.6735C57.322 58.5212 57.8182 58.2028 58.1429 57.6461V57.6468Z" fill="#414250"/>
<path d="M43.039 41.7618C41.8725 41.9458 40.6978 41.8155 39.5272 41.8514C39.1365 41.8631 38.7451 41.8548 38.3538 41.8555C38.412 40.9701 38.768 40.2128 39.3669 39.5652C39.9525 38.9306 40.711 38.6102 41.5353 38.4145C42.7996 38.411 44.0639 38.4117 45.3282 38.4C45.5364 38.3979 45.569 38.4737 45.5641 38.6598C45.5343 39.8966 44.6114 41.152 43.3603 41.6392C43.2534 41.6805 43.1466 41.7211 43.0397 41.7618H43.039Z" fill="#5D5E70"/>
<path d="M39.5994 56.4871C40.3113 55.9504 41.0274 55.4185 41.7331 54.8727C41.8851 54.7549 41.9649 54.7839 42.0613 54.923C42.1855 55.1008 42.3209 55.271 42.452 55.4439C42.687 55.754 43.0053 55.8525 43.4068 55.7395C44.0376 55.6589 44.6711 55.5921 45.2991 55.4915C45.5954 55.4439 45.8889 55.4536 46.1845 55.4426C46.8965 55.5942 47.4016 55.98 47.6188 56.6918C47.2559 57.4091 46.6897 57.7949 45.8681 57.8886C44.6878 58.0237 43.5165 58.2414 42.3382 58.4006C41.6512 58.4929 41.0295 58.3338 40.5778 57.7653C40.244 57.3457 39.9255 56.9137 39.6001 56.4871H39.5994Z" fill="#F7BF88"/>
<path d="M41.5353 38.4145C40.7116 38.6102 39.9525 38.9306 39.3669 39.5652C38.768 40.2128 38.412 40.9701 38.3538 41.8555C38.1678 41.9072 38.1359 42.0353 38.1407 42.2124C38.1588 42.8808 38.1914 43.554 37.8569 44.1734C37.3525 44.8053 36.7647 45.2793 35.8862 45.2063C35.8613 44.1727 35.8578 43.1399 35.8883 42.1063C35.9327 42.0657 35.9313 42.0181 35.9098 41.9678C35.9154 40.1026 37.6147 38.3401 39.7034 38.4021C40.314 38.42 40.9247 38.411 41.5353 38.4145Z" fill="#3F404F"/>
<path d="M40.1523 49.6202C39.8768 49.8325 39.5201 49.8586 39.2217 50.0281C38.1177 50.6552 37.4252 51.5495 37.2337 52.8215C37.1629 53.2907 37.1816 53.7544 37.1789 54.2209C37.1712 55.7533 37.1768 57.2857 37.1768 58.8175C36.7604 58.8181 36.3448 58.8195 35.9285 58.8202C35.9278 56.9454 35.9375 55.0705 35.9222 53.1963C35.9111 51.8224 36.9138 50.394 38.2412 49.8793C38.6846 49.7077 39.1475 49.6561 39.6041 49.5617C39.7866 49.581 39.9698 49.6002 40.1523 49.6202Z" fill="#C0D8E4"/>
<path d="M40.1521 49.6202C39.9696 49.6009 39.7864 49.5816 39.6039 49.5617C37.4424 49.1985 35.9304 47.4277 35.886 45.207C36.7645 45.28 37.3529 44.806 37.8567 44.1741C37.8983 44.8673 37.8088 45.5666 37.9934 46.2543C38.4042 47.7833 39.3569 48.8141 40.8419 49.3694C40.9584 49.4128 41.0923 49.4211 41.1791 49.5286C40.8863 49.594 40.5886 49.6133 40.2895 49.6216C40.2437 49.6216 40.1979 49.6216 40.1514 49.6216L40.1521 49.6202Z" fill="#DB9555"/>
<path d="M51.0792 45.4337C51.1062 45.4495 51.1326 45.4654 51.1597 45.4819C51.1125 46.7428 51.5108 47.8501 52.3303 48.8099C52.6286 49.1593 53.0436 49.3715 53.3746 49.6829C52.9756 49.7381 52.5898 49.5878 52.1936 49.6078L52.197 49.6099C52.1839 49.5121 52.111 49.5458 52.0534 49.5472C51.7314 49.4053 51.4095 49.264 51.0868 49.1221C50.71 48.8072 50.2923 48.5453 49.9682 48.1636C49.5449 47.6661 49.2618 47.0991 49.0238 46.5024C48.91 45.9904 48.8337 45.4743 48.8725 44.9479C48.8809 44.8404 48.8184 44.6943 48.9329 44.6358C49.0294 44.5868 49.1099 44.7136 49.1938 44.7646C49.776 45.1167 50.3804 45.404 51.0778 45.4343L51.0792 45.4337Z" fill="#DB9555"/>
<path d="M57.889 45.2145C57.8911 43.9915 57.4054 42.9621 56.6157 42.0546C56.7372 41.6832 56.9557 41.3663 57.175 41.0466C57.5483 40.5029 58.007 40.1798 58.703 40.3961L58.7002 40.3948C58.721 40.4464 58.7439 40.4457 58.7696 40.3975C59.6946 41.5647 59.8035 42.878 59.0562 44.1452C58.7807 44.6123 58.3886 44.9761 57.8897 45.2152L57.889 45.2145Z" fill="#E4E4E4"/>
<path d="M55.7907 57.5882C55.7747 57.5827 55.7588 57.5779 55.7428 57.5738C55.6436 56.749 55.4569 55.9394 55.3057 55.1235C55.8885 55.0512 56.4652 54.8493 57.0585 55.0746C57.6386 55.2951 58.0431 55.6734 58.2138 56.2777C58.1604 56.3638 58.1049 56.4492 58.0528 56.5368C57.7607 57.026 57.3277 57.325 56.7726 57.4387C56.4485 57.5055 56.1182 57.5393 55.79 57.5882H55.7907Z" fill="#F7BF88"/>
<path d="M58.7031 40.3961C58.0064 40.1798 57.5477 40.5029 57.1751 41.0466C56.9558 41.3656 56.7373 41.6826 56.6158 42.0546C56.4521 41.9437 56.3369 41.7673 56.1391 41.7018C56.2689 40.9081 56.0857 40.1412 55.9358 39.3715C56.8962 39.2778 57.7628 39.4983 58.5067 40.1295C58.5948 40.2039 58.6948 40.2652 58.7031 40.3961Z" fill="#CBCBCA"/>
<path d="M55.7908 57.5882C56.1183 57.5393 56.4493 57.5055 56.7733 57.4387C57.3285 57.3243 57.7615 57.026 58.0536 56.5368C58.1056 56.4492 58.1605 56.3645 58.2146 56.2777C58.42 56.7455 58.2812 57.1955 58.1431 57.6461C57.8184 58.2028 57.3222 58.5219 56.7046 58.6735C56.4576 58.6941 56.2106 58.7155 55.9636 58.7368C55.906 58.3537 55.8484 57.9706 55.7908 57.5882Z" fill="#DB9555"/>
<path d="M35.9096 41.9685C35.9309 42.0195 35.9316 42.067 35.8882 42.107C35.8696 42.0567 35.8723 42.0098 35.9096 41.9685Z" fill="#DB9555"/>
<path d="M58.7686 40.3975C58.7438 40.4457 58.7211 40.4464 58.6997 40.3948C58.7224 40.3954 58.7452 40.3968 58.7686 40.3975Z" fill="#CBCBCA"/>
<path d="M37.1677 58.8374C38.2592 58.8326 39.3507 58.8285 40.4423 58.8237C40.919 59.3776 41.5053 59.6691 42.2547 59.5754C42.6156 59.5299 42.9764 59.4851 43.3372 59.4397C43.1783 60.5097 42.6197 61.3324 41.7301 61.9298C41.5185 62.0718 41.4574 62.2137 41.4581 62.4549C41.4665 65.5107 41.4595 68.5673 41.4658 71.6232C41.4678 72.5354 41.0813 73.1762 40.216 73.5146C40.1238 73.3258 39.8996 73.3134 39.7636 73.1797C39.332 72.758 39.1141 72.2516 39.1141 71.65C39.1148 68.5859 39.1113 65.5225 39.1204 62.4583C39.1211 62.202 39.0496 62.049 38.8296 61.903C37.7326 61.1774 37.251 60.1108 37.1677 58.8368V58.8374Z" fill="#5D5E70"/>
<path d="M43.3372 59.4403C42.9764 59.4858 42.6156 59.5306 42.2547 59.5761C41.506 59.6698 40.919 59.3783 40.4423 58.8243C40.0322 58.269 39.6207 57.7143 39.2127 57.1576C39.1412 57.0604 39.0322 56.9777 39.0544 56.8337C39.2411 56.7545 39.3924 56.6284 39.5312 56.4851C39.5541 56.4837 39.577 56.4851 39.5999 56.4871C39.9253 56.9137 40.2438 57.3457 40.5776 57.7653C41.03 58.3338 41.651 58.4936 42.338 58.4006C43.5162 58.2421 44.6869 58.0237 45.8679 57.8886C46.6895 57.7949 47.2557 57.4084 47.6186 56.6918C47.9711 57.7736 47.2633 58.7045 46.4008 58.9539C46.3245 58.9759 46.2488 59.0021 46.1732 59.0262C45.2233 59.131 44.2768 59.2577 43.3379 59.4397L43.3372 59.4403Z" fill="#DB9555"/>
<path d="M52.0532 49.5458C52.1104 49.5451 52.1821 49.5107 52.1959 49.6085C52.1338 49.6209 52.0849 49.6023 52.0532 49.5458Z" fill="#FEFEFE"/>
<path d="M43.3914 44.0211C43.3914 44.1927 43.4052 44.365 43.3886 44.5352C43.358 44.839 43.1207 45.0588 42.8466 45.0581C42.5538 45.0581 42.3158 44.8266 42.3033 44.5042C42.2908 44.1734 42.2908 43.8413 42.3033 43.5099C42.3151 43.1826 42.5462 42.9566 42.8432 42.9538C43.1187 42.9518 43.3587 43.1695 43.3886 43.4727C43.4066 43.6539 43.392 43.8379 43.392 44.0205L43.3914 44.0211Z" fill="#414250"/>
<path d="M41.5943 44.0018C41.5943 44.1844 41.6095 44.3691 41.5908 44.5496C41.5596 44.848 41.3091 45.0664 41.037 45.0581C40.7595 45.0499 40.5222 44.8259 40.5083 44.5234C40.4923 44.1817 40.493 43.8379 40.5083 43.4961C40.5222 43.1791 40.7754 42.9462 41.0641 42.9538C41.3431 42.9614 41.5693 43.1805 41.5949 43.4878C41.6095 43.658 41.5977 43.8303 41.5977 44.0012C41.597 44.0012 41.5963 44.0012 41.5956 44.0012L41.5943 44.0018Z" fill="#414250"/>
<path d="M39.5305 56.4858C39.3917 56.6291 39.2404 56.7552 39.0538 56.8344C38.677 56.5561 38.4751 56.1337 38.1885 55.7809C38.0421 55.601 38.2842 55.548 38.3807 55.4543C38.4952 55.3427 38.6208 55.2379 38.7547 55.4102C39.026 55.7595 39.3348 56.0827 39.5298 56.4858H39.5305Z" fill="#C0D8E4"/>
<path d="M56.7635 46.339C56.7302 46.4548 56.6983 46.6505 56.6178 46.8228C56.4963 47.0818 56.2674 47.1872 55.9891 47.1053C55.7136 47.0246 55.5714 46.82 55.5991 46.5347C55.6151 46.3666 55.6664 46.1985 55.7268 46.0393C55.8364 45.752 56.0675 45.6335 56.3603 45.7038C56.6379 45.7706 56.7753 45.9732 56.7642 46.3384L56.7635 46.339Z" fill="#414250"/>
<path d="M54.5396 46.7249C54.2343 46.7222 53.9977 46.4817 53.9998 46.1764C54.0039 45.6693 54.269 45.289 54.6236 45.2828C54.94 45.2772 55.1801 45.5274 55.1732 45.8553C55.1614 46.388 54.9136 46.7284 54.5396 46.7249Z" fill="#414250"/>
</g>
</g>
<path d="M38.8389 75.5812V73.991" stroke="#A35D54" stroke-width="0.219178" stroke-miterlimit="10"/>
<path d="M35.1289 75.383L35.2917 73.8014" stroke="#A35D54" stroke-width="0.219178" stroke-miterlimit="10"/>
<path d="M31.4587 74.7916L31.7844 73.2373" stroke="#A35D54" stroke-width="0.219178" stroke-miterlimit="10"/>
<path d="M27.8699 73.8145L28.353 72.3016" stroke="#A35D54" stroke-width="0.219178" stroke-miterlimit="10"/>
<path d="M24.4009 72.4607L25.0372 71.0077" stroke="#A35D54" stroke-width="0.219178" stroke-miterlimit="10"/>
<path d="M21.0896 70.7451L21.8716 69.3683" stroke="#A35D54" stroke-width="0.219178" stroke-miterlimit="10"/>
<path d="M17.9744 68.6876L18.8935 67.4013" stroke="#A35D54" stroke-width="0.219178" stroke-miterlimit="10"/>
<path d="M15.0862 66.3098L16.1328 65.128" stroke="#A35D54" stroke-width="0.219178" stroke-miterlimit="10"/>
<path d="M12.4592 63.6391L13.6205 62.5749" stroke="#A35D54" stroke-width="0.219178" stroke-miterlimit="10"/>
<path d="M10.1206 60.7026L11.3858 59.7681" stroke="#A35D54" stroke-width="0.219178" stroke-miterlimit="10"/>
<path d="M8.09717 57.5341L9.45128 56.7401" stroke="#A35D54" stroke-width="0.219178" stroke-miterlimit="10"/>
<path d="M6.40967 54.1685L7.83877 53.5215" stroke="#A35D54" stroke-width="0.219178" stroke-miterlimit="10"/>
<path d="M5.07812 50.6417L6.56615 50.1505" stroke="#A35D54" stroke-width="0.219178" stroke-miterlimit="10"/>
<path d="M4.11719 46.9928L5.64593 46.6617" stroke="#A35D54" stroke-width="0.219178" stroke-miterlimit="10"/>
<path d="M3.5354 43.2612L5.09092 43.0956" stroke="#A35D54" stroke-width="0.219178" stroke-miterlimit="10"/>
<path d="M3.34033 39.4881H4.90442" stroke="#A35D54" stroke-width="0.219178" stroke-miterlimit="10"/>
<path d="M3.5354 35.7163L5.09092 35.8818" stroke="#A35D54" stroke-width="0.219178" stroke-miterlimit="10"/>
<path d="M4.11719 31.9846L5.64593 32.3158" stroke="#A35D54" stroke-width="0.219178" stroke-miterlimit="10"/>
<path d="M5.07812 28.3357L6.56615 28.827" stroke="#A35D54" stroke-width="0.219178" stroke-miterlimit="10"/>
<path d="M6.40967 24.8089L7.83877 25.4559" stroke="#A35D54" stroke-width="0.219178" stroke-miterlimit="10"/>
<path d="M8.09717 21.4433L9.45128 22.2374" stroke="#A35D54" stroke-width="0.219178" stroke-miterlimit="10"/>
<path d="M10.1206 18.2748L11.3858 19.2093" stroke="#A35D54" stroke-width="0.219178" stroke-miterlimit="10"/>
<path d="M12.4592 15.3383L13.6205 16.4024" stroke="#A35D54" stroke-width="0.219178" stroke-miterlimit="10"/>
<path d="M15.0862 12.6675L16.1328 13.8482" stroke="#A35D54" stroke-width="0.219178" stroke-miterlimit="10"/>
<path d="M17.9744 10.2898L18.8935 11.5762" stroke="#A35D54" stroke-width="0.219178" stroke-miterlimit="10"/>
<path d="M21.0896 8.23225L21.8716 9.609" stroke="#A35D54" stroke-width="0.219178" stroke-miterlimit="10"/>
<path d="M24.4009 6.51677L25.0362 7.96977" stroke="#A35D54" stroke-width="0.219178" stroke-miterlimit="10"/>
<path d="M27.8699 5.16296L28.353 6.67587" stroke="#A35D54" stroke-width="0.219178" stroke-miterlimit="10"/>
<path d="M31.4587 4.18585L31.7844 5.74124" stroke="#A35D54" stroke-width="0.219178" stroke-miterlimit="10"/>
<path d="M35.1289 3.59448L35.2917 5.176" stroke="#A35D54" stroke-width="0.219178" stroke-miterlimit="10"/>
<path d="M38.8389 3.39622V4.98646" stroke="#A35D54" stroke-width="0.219178" stroke-miterlimit="10"/>
<path d="M42.5497 3.59448L42.3857 5.176" stroke="#A35D54" stroke-width="0.219178" stroke-miterlimit="10"/>
<path d="M46.22 4.18585L45.8943 5.74015" stroke="#A35D54" stroke-width="0.219178" stroke-miterlimit="10"/>
<path d="M49.8088 5.16296L49.3257 6.67587" stroke="#A35D54" stroke-width="0.219178" stroke-miterlimit="10"/>
<path d="M53.2777 6.51677L52.6414 7.96977" stroke="#A35D54" stroke-width="0.219178" stroke-miterlimit="10"/>
<path d="M56.5881 8.23225L55.8071 9.609" stroke="#A35D54" stroke-width="0.219178" stroke-miterlimit="10"/>
<path d="M59.7043 10.2898L58.7852 11.5762" stroke="#A35D54" stroke-width="0.219178" stroke-miterlimit="10"/>
<path d="M62.5926 12.6675L61.5459 13.8482" stroke="#A35D54" stroke-width="0.219178" stroke-miterlimit="10"/>
<path d="M65.2195 15.3383L64.0571 16.4024" stroke="#A35D54" stroke-width="0.219178" stroke-miterlimit="10"/>
<path d="M67.5582 18.2748L66.293 19.2093" stroke="#A35D54" stroke-width="0.219178" stroke-miterlimit="10"/>
<path d="M69.5817 21.4422L68.2275 22.2374" stroke="#A35D54" stroke-width="0.219178" stroke-miterlimit="10"/>
<path d="M71.2692 24.8089L69.8401 25.4548" stroke="#A35D54" stroke-width="0.219178" stroke-miterlimit="10"/>
<path d="M72.6008 28.3357L71.1128 28.827" stroke="#A35D54" stroke-width="0.219178" stroke-miterlimit="10"/>
<path d="M73.5615 31.9846L72.0317 32.3158" stroke="#A35D54" stroke-width="0.219178" stroke-miterlimit="10"/>
<path d="M74.1434 35.7163L72.5879 35.8818" stroke="#A35D54" stroke-width="0.219178" stroke-miterlimit="10"/>
<path d="M74.3374 39.4881H72.7744" stroke="#A35D54" stroke-width="0.219178" stroke-miterlimit="10"/>
<path d="M74.1434 43.2612L72.5879 43.0956" stroke="#A35D54" stroke-width="0.219178" stroke-miterlimit="10"/>
<path d="M73.5614 46.9928L72.0327 46.6617" stroke="#A35D54" stroke-width="0.219178" stroke-miterlimit="10"/>
<path d="M72.6008 50.6417L71.1128 50.1505" stroke="#A35D54" stroke-width="0.219178" stroke-miterlimit="10"/>
<path d="M71.2692 54.1685L69.8401 53.5215" stroke="#A35D54" stroke-width="0.219178" stroke-miterlimit="10"/>
<path d="M69.5817 57.5341L68.2275 56.7401" stroke="#A35D54" stroke-width="0.219178" stroke-miterlimit="10"/>
<path d="M67.5582 60.7026L66.293 59.7681" stroke="#A35D54" stroke-width="0.219178" stroke-miterlimit="10"/>
<path d="M65.2195 63.6391L64.0571 62.5749" stroke="#A35D54" stroke-width="0.219178" stroke-miterlimit="10"/>
<path d="M62.5926 66.3098L61.5459 65.128" stroke="#A35D54" stroke-width="0.219178" stroke-miterlimit="10"/>
<path d="M59.7043 68.6876L58.7852 67.4013" stroke="#A35D54" stroke-width="0.219178" stroke-miterlimit="10"/>
<path d="M56.5881 70.7451L55.8071 69.3683" stroke="#A35D54" stroke-width="0.219178" stroke-miterlimit="10"/>
<path d="M53.2777 72.4607L52.6414 71.0077" stroke="#A35D54" stroke-width="0.219178" stroke-miterlimit="10"/>
<path d="M49.8088 73.8145L49.3257 72.3016" stroke="#A35D54" stroke-width="0.219178" stroke-miterlimit="10"/>
<path d="M46.22 74.7914L45.8943 73.2361" stroke="#A35D54" stroke-width="0.219178" stroke-miterlimit="10"/>
<path d="M42.5498 75.383L42.387 73.8014" stroke="#A35D54" stroke-width="0.219178" stroke-miterlimit="10"/>
<path d="M38.8389 77.3021V73.5977" stroke="#A35D54" stroke-width="0.438356" stroke-miterlimit="10"/>
<path d="M20.2432 72.2362L22.0644 69.0285" stroke="#A35D54" stroke-width="0.438356" stroke-miterlimit="10"/>
<path d="M6.63037 58.3957L9.78533 56.5429" stroke="#A35D54" stroke-width="0.438356" stroke-miterlimit="10"/>
<path d="M1.64771 39.4881H5.29118" stroke="#A35D54" stroke-width="0.438356" stroke-miterlimit="10"/>
<path d="M6.63037 20.5828L9.78533 22.4345" stroke="#A35D54" stroke-width="0.438356" stroke-miterlimit="10"/>
<path d="M20.2432 6.74119L22.0644 9.9489" stroke="#A35D54" stroke-width="0.438356" stroke-miterlimit="10"/>
<path d="M38.8389 1.67526V5.37964" stroke="#A35D54" stroke-width="0.438356" stroke-miterlimit="10"/>
<path d="M57.4342 6.74228L55.613 9.9489" stroke="#A35D54" stroke-width="0.438356" stroke-miterlimit="10"/>
<path d="M71.0472 20.5817L67.8933 22.4345" stroke="#A35D54" stroke-width="0.438356" stroke-miterlimit="10"/>
<path d="M76.0299 39.4881H72.3875" stroke="#A35D54" stroke-width="0.438356" stroke-miterlimit="10"/>
<path d="M71.0483 58.3957L67.8933 56.5429" stroke="#A35D54" stroke-width="0.438356" stroke-miterlimit="10"/>
<path d="M57.4353 72.2362L55.613 69.0285" stroke="#A35D54" stroke-width="0.438356" stroke-miterlimit="10"/>
<path d="M39.6635 40.4912L39.822 9.88451L41.5468 9.97819L38.8332 5.24341L35.6365 9.65578L37.6719 9.76688L37.9558 40.4956L39.6635 40.4912Z" fill="#DB5700"/>
<path d="M39.761 37.3993L13.7914 52.881L12.9909 51.3244L10.3707 56.1134L15.7336 56.6562L14.7896 54.82L40.6349 38.8897L39.761 37.3993Z" fill="#DB5700"/>
<path d="M39.5795 41.3288C40.5803 40.8662 41.0227 39.6664 40.5677 38.6489C40.1127 37.6315 38.9326 37.1817 37.9318 37.6443C36.9311 38.1069 36.4887 39.3067 36.9437 40.3242C37.3987 41.3416 38.5788 41.7914 39.5795 41.3288Z" fill="#C62828"/>
</g>
<defs>
<linearGradient id="paint0_linear_2448_25584" x1="25.5035" y1="17.6088" x2="57.6711" y2="62.63" gradientUnits="userSpaceOnUse">
<stop stop-color="#FF8120"/>
<stop offset="1" stop-color="#E54304"/>
</linearGradient>
<clipPath id="clip0_2448_25584">
<rect width="80" height="80" fill="white"/>
</clipPath>
<clipPath id="clip1_2448_25584">
<rect width="33" height="35.2" fill="white" transform="translate(31.5 38.4)"/>
</clipPath>
</defs>
</svg>
