<svg width="80" height="80" viewBox="0 0 80 80" fill="none" xmlns="http://www.w3.org/2000/svg">
<g clip-path="url(#clip0_2448_25585)">
<g style="mix-blend-mode:multiply">
<path d="M41.156 79.9902C62.6036 79.9902 79.9904 62.3128 79.9904 40.5065C79.9904 18.7003 62.6036 1.02281 41.156 1.02281C19.7083 1.02281 2.32153 18.7003 2.32153 40.5065C2.32153 62.3128 19.7083 79.9902 41.156 79.9902Z" fill="#FFC77D"/>
</g>
<path d="M77.1689 39.4837C77.1689 61.0217 59.9982 78.4674 38.8344 78.4674C17.6707 78.4674 0.5 61.0217 0.5 39.4837C0.5 17.9458 17.6707 0.5 38.8344 0.5C59.9982 0.5 77.1689 17.9458 77.1689 39.4837Z" fill="white" stroke="#FFAB3B"/>
<path d="M39.4237 5.88168C47.8622 5.88168 55.955 9.37024 61.922 15.5799C67.8889 21.7896 71.2411 30.2117 71.2411 38.9935L39.4237 38.9935V5.88168Z" fill="#FF8120"/>
<mask id="mask0_2448_25585" style="mask-type:alpha" maskUnits="userSpaceOnUse" x="39" y="5" width="33" height="34">
<path d="M39.4237 5.88168C47.8622 5.88168 55.955 9.37024 61.922 15.5799C67.8889 21.7896 71.2411 30.2117 71.2411 38.9935L39.4237 38.9935V5.88168Z" fill="#FDE7CC"/>
</mask>
<g mask="url(#mask0_2448_25585)">
<g clip-path="url(#clip1_2448_25585)">
<path d="M46.6319 43.3301C46.5813 43.365 46.4962 43.3194 46.4649 43.4H45.8421C45.812 43.3814 45.7842 43.3566 45.7513 43.3453C45.0899 43.1215 44.7197 42.6468 44.6902 41.9495C44.6732 41.5475 44.6851 41.145 44.6845 40.7425C44.6845 40.4284 44.6845 40.1144 44.6845 39.7976C44.5437 39.8021 44.4841 39.8833 44.4114 39.9363C43.5689 40.5502 42.7332 41.1732 41.8856 41.7809C41.043 42.3847 39.999 42.0853 39.5953 41.1405C39.572 41.0852 39.5794 41.0052 39.4988 40.9815V40.2503C39.7446 39.6189 40.3016 39.2913 40.8137 38.9193C41.3763 38.51 41.9344 38.0945 42.4993 37.6892C42.6287 37.5961 42.7014 37.489 42.7445 37.3334C43.0926 36.0813 43.4468 34.8315 43.8096 33.5833C43.8567 33.4215 43.8352 33.3127 43.7335 33.1786C43.3146 32.6278 43.0653 32.0155 43.1227 31.3086C43.4633 31.308 43.8034 31.3069 44.144 31.3063L44.1366 31.3227C44.2048 32.3651 44.5994 33.2372 45.4964 33.8314C45.6764 33.9503 45.7348 34.076 45.7343 34.2858C45.7269 36.7928 45.7297 39.2992 45.7292 41.8063C45.7292 42.2984 45.9074 42.7128 46.2606 43.0578C46.3724 43.1666 46.5552 43.1768 46.6307 43.3318L46.6319 43.3301Z" fill="#3F404F"/>
<path d="M54.3361 43.4C54.1777 43.3233 54.0103 43.2619 53.8632 43.1683C53.3999 42.874 53.162 42.4411 53.153 41.8998C53.141 41.1715 53.1501 40.4431 53.1501 39.7142C53.0292 39.6967 52.9775 39.7762 52.9134 39.823C52.0311 40.4662 51.1591 41.123 50.2683 41.7533C49.2946 42.4422 48.0365 41.9139 47.8571 40.7425C47.7691 40.1674 47.995 39.6916 48.4612 39.3438C49.2077 38.7868 49.9549 38.2298 50.7185 37.6965C50.9984 37.5009 51.1903 37.2833 51.2334 36.9422C51.2459 36.8424 51.2953 36.7466 51.3282 36.6496C51.7699 36.7623 52.1787 36.9828 52.6363 37.0431C52.6982 37.0623 52.759 37.0876 52.8225 37.1C53.1944 37.1744 53.5674 37.2466 53.9398 37.3193C53.9398 38.8285 53.9427 40.3377 53.9381 41.8469C53.9364 42.4529 54.1976 42.9045 54.7114 43.2202C54.7875 43.267 54.8988 43.2782 54.9027 43.4011H54.3367L54.3361 43.4Z" fill="#3F404F"/>
<path d="M54.9021 43.4C54.8981 43.2771 54.7868 43.2658 54.7108 43.219C54.197 42.9033 53.9358 42.4518 53.9375 41.8457C53.9421 40.3366 53.9392 38.8274 53.9392 37.3182C54.6932 37.3611 55.4426 37.2996 56.1897 37.2055C56.1926 38.7766 56.2096 40.3484 56.1903 41.9196C56.1824 42.5628 55.8417 43.0291 55.2382 43.2918C55.1627 43.3245 55.0696 43.3239 55.0151 43.4H54.9021Z" fill="#5D5E70"/>
<path d="M56.1903 37.2055C55.4431 37.3002 54.6943 37.3611 53.9398 37.3182C53.5673 37.2455 53.1949 37.1739 52.8224 37.0989C52.7594 37.0859 52.6981 37.0611 52.6362 37.042C52.7572 36.0165 52.8866 34.9922 52.9967 33.9661C53.0785 33.2073 53.1705 32.4474 53.1949 31.6857C53.229 30.6185 53.2028 29.5491 53.2062 28.4808C53.2062 28.4075 53.1591 28.315 53.2925 28.2277C53.3209 28.2716 53.3482 28.3218 53.3822 28.3669C54.0221 29.2193 54.6608 30.0728 55.3035 30.9224C55.7287 31.4839 56.2681 31.7635 56.9953 31.6029C57.2775 31.5408 57.5693 31.5211 57.8566 31.4822C57.8963 32.1576 58.0752 32.8053 58.2722 33.4475C58.5129 34.2333 58.7968 35.0051 59.1499 35.7481C59.2515 35.9624 59.1965 36.0588 59.0006 36.1614C58.1654 36.6 57.2894 36.9264 56.3708 37.1423C56.3084 37.157 56.2374 37.1491 56.1891 37.2055H56.1903Z" fill="#83DB3E"/>
<path d="M56.4312 23.7689C56.4914 23.9076 56.6367 23.9538 56.74 24.0452C57.4911 24.7104 57.8233 25.5549 57.8312 26.5386C57.8358 27.1001 57.8369 27.6622 57.8295 28.2237C57.8272 28.3985 57.8732 28.4532 58.0578 28.4171C58.3615 28.3579 58.6709 28.3263 58.9775 28.2829C59.1013 28.9504 59.254 29.6128 59.3352 30.2876C59.2534 30.3079 59.1728 30.3361 59.0899 30.3479C58.4427 30.4421 57.7915 30.5131 57.1488 30.6315C56.4317 30.7634 55.8231 30.6321 55.3678 30.0339C54.7007 29.1578 54.041 28.2756 53.3745 27.3989C53.2569 27.2439 53.1894 27.0866 53.2013 26.8854C53.2212 26.5415 53.2189 26.1981 53.2518 25.8531C53.3455 24.8671 53.5425 23.9392 54.3913 23.2897C54.7762 23.2271 55.1487 23.3365 55.5268 23.3715C55.7902 23.4876 56.0536 23.6032 56.3176 23.7193C56.3437 23.7655 56.3841 23.7808 56.4352 23.7706L56.4323 23.7689H56.4312Z" fill="#83DB3E"/>
<path d="M54.3902 23.2903C53.5414 23.9397 53.345 24.8677 53.2507 25.8537C53.2178 26.1987 53.2201 26.542 53.2002 26.8859C53.1888 27.0872 53.2558 27.2445 53.3733 27.3995C54.0399 28.2761 54.6996 29.1584 55.3667 30.0345C55.822 30.6326 56.4306 30.764 57.1477 30.6321C57.7904 30.5137 58.4416 30.4427 59.0888 30.3485C59.1717 30.3367 59.2523 30.3085 59.334 30.2882C59.3471 30.2916 59.3607 30.2949 59.3732 30.3C59.4203 30.6135 59.4675 30.9269 59.5146 31.2398C58.9622 31.321 58.4092 31.4022 57.8568 31.4833C57.5695 31.5222 57.2777 31.5414 56.9955 31.604C56.2682 31.7641 55.7283 31.485 55.3037 30.9235C54.6604 30.0734 54.0217 29.2204 53.3824 28.368C53.3484 28.3224 53.3205 28.2722 53.2927 28.2288C53.1599 28.3162 53.207 28.4086 53.2064 28.4819C53.2025 29.5502 53.2286 30.6197 53.1951 31.6869C53.1707 32.4485 53.0787 33.2084 52.9969 33.9672C52.8868 34.9938 52.7573 36.0182 52.6364 37.0431C52.1788 36.9828 51.77 36.7623 51.3283 36.6496C50.9928 36.4822 50.6607 36.3074 50.3206 36.1507C50.1321 36.0639 50.0924 35.9821 50.1855 35.7752C50.7248 34.5699 51.187 33.3375 51.4232 32.0324C51.4567 31.8487 51.4777 31.6626 51.5043 31.4777C51.5662 31.458 51.6281 31.4365 51.6906 31.4185C52.3963 31.2144 52.9748 30.4528 52.6869 29.5677C52.5092 28.9853 52.0959 28.6696 51.5134 28.5456C51.5378 27.7062 51.4669 26.8651 51.556 26.0268C51.7031 24.6456 52.8453 23.4837 54.2227 23.3173C54.2789 23.3106 54.334 23.3004 54.3896 23.292L54.3902 23.2903Z" fill="#4FB103"/>
<path d="M48.941 17.3506C49.3049 17.7396 49.6836 18.1116 49.9271 18.6004C50.9326 20.6192 49.8283 23.0659 47.638 23.6511C47.5659 23.6703 47.4927 23.6866 47.42 23.7046C47.349 23.6173 47.2395 23.6105 47.1441 23.5744C45.9285 23.12 45.1496 22.2772 44.8135 21.0257C44.6625 20.4631 44.7357 19.8908 44.7017 19.3237C44.9753 18.8169 44.9486 18.2661 44.9339 17.7193C44.9299 17.5744 44.956 17.4695 45.1082 17.4272C45.4284 17.4267 45.7486 17.4334 46.0682 17.4239C47.026 17.3945 47.9872 17.5011 48.9415 17.3506H48.941ZM49.2294 19.1991C49.2294 19.0497 49.2413 18.8986 49.2265 18.7509C49.2021 18.5029 49.0057 18.3247 48.7803 18.3264C48.5373 18.3281 48.3483 18.5136 48.3386 18.7814C48.3289 19.052 48.3289 19.3237 48.3386 19.5949C48.3483 19.8581 48.5436 20.0476 48.7831 20.0481C49.0074 20.0481 49.2021 19.8689 49.2265 19.6202C49.2402 19.4816 49.2288 19.3401 49.2288 19.1997L49.2294 19.1991ZM47.7589 19.1833C47.7589 19.1833 47.7601 19.1833 47.7606 19.1833C47.7606 19.043 47.7703 18.902 47.7584 18.7633C47.7368 18.5119 47.5517 18.3326 47.324 18.3264C47.0884 18.3197 46.8806 18.5108 46.8693 18.7701C46.8574 19.0497 46.8568 19.331 46.8693 19.6107C46.8806 19.8576 47.0748 20.0408 47.3019 20.0481C47.525 20.0549 47.7294 19.8756 47.755 19.6321C47.7703 19.4844 47.7578 19.3333 47.7578 19.1839L47.7589 19.1833Z" fill="#F7BF88"/>
<path d="M46.692 23.7808C47.1854 23.9544 47.6816 24.1072 48.1 24.4527C48.6831 24.9348 49.0453 25.5357 49.1782 26.2652C49.3201 27.0438 49.21 27.8342 49.2395 28.6183C49.2418 28.6747 49.2412 28.7305 49.2418 28.7869C48.9132 28.8794 48.6528 28.7987 48.4605 28.545C48.3532 28.4035 48.2425 28.2649 48.1409 28.1189C48.0614 28.005 47.9967 27.9813 47.8724 28.0777C47.295 28.5242 46.7091 28.9594 46.1266 29.3986C46.1078 29.3969 46.0891 29.3963 46.0704 29.3969C45.9108 29.0665 45.6582 28.8021 45.4362 28.5169C45.3266 28.3759 45.2239 28.4616 45.1302 28.5529C45.0513 28.6296 44.8531 28.673 44.9729 28.8202C45.2074 29.1088 45.3726 29.4544 45.6809 29.6821C45.6633 29.7994 45.7519 29.8671 45.8103 29.9465C46.1447 30.4021 46.4808 30.8559 46.8164 31.3103C45.9233 31.3142 45.0303 31.3176 44.1372 31.3215L44.1446 31.3052C44.1446 30.0514 44.14 28.7976 44.1463 27.5444C44.148 27.1627 44.1332 26.7833 44.1911 26.3994C44.3478 25.3587 44.915 24.6264 45.8177 24.1139C46.0624 23.9752 46.3537 23.9538 46.5791 23.7802C46.6165 23.7802 46.654 23.7802 46.692 23.7802V23.7808Z" fill="#E4F3FC"/>
<path d="M53.8383 21.2281C52.9821 21.6345 52.1589 21.5443 51.4941 20.8955C50.7549 20.1738 50.6447 19.2211 51.2392 18.3416C51.7382 17.6037 52.4734 17.3427 53.3568 17.5146C53.5164 17.5456 53.6174 17.5405 53.6839 17.3336C54.0989 16.0381 54.9658 15.1756 56.2921 14.8221C57.13 14.5989 57.964 14.6688 58.7566 15.051C58.6811 15.1423 58.5676 15.1711 58.4676 15.2207C57.7398 15.5843 57.0795 16.0297 56.5424 16.6515C55.8611 17.4396 55.5001 18.3416 55.466 19.3784C55.4552 19.7065 55.4984 20.0295 55.5182 20.3548C54.9476 20.33 54.4531 20.0949 53.9768 19.8068C53.9081 19.7651 53.8423 19.6614 53.7633 19.7014C53.6697 19.7488 53.7202 19.8683 53.7139 19.9568C53.6816 20.3875 53.7446 20.8092 53.8377 21.2281H53.8383Z" fill="#CBCBCA"/>
<path d="M61.0913 20.1755C61.0816 21.13 60.7631 21.9734 60.1057 22.6662C59.3773 23.434 58.4734 23.8399 57.3976 23.8309C57.1268 23.5761 56.7873 23.4025 56.5431 23.1167C55.8726 22.3313 55.5467 21.4259 55.5853 20.3937C55.6983 20.3948 55.8113 20.396 55.9249 20.3965C57.0274 20.4027 57.9664 20.0194 58.7198 19.2166C59.2274 18.6754 59.5186 18.0237 59.6594 17.3015C59.8213 17.3551 59.9155 17.4994 60.0495 17.5902C60.6961 18.3332 61.0936 19.1749 61.0919 20.1755H61.0913ZM60.1704 21.0956C60.1795 20.7968 60.0671 20.6311 59.84 20.5764C59.5998 20.5183 59.4113 20.6158 59.3216 20.8509C59.2717 20.9806 59.2302 21.1187 59.2172 21.2563C59.1945 21.4897 59.3114 21.6577 59.5362 21.723C59.7645 21.7896 59.9513 21.7033 60.0506 21.4919C60.117 21.3504 60.1426 21.1903 60.1698 21.0962L60.1704 21.0956ZM58.3508 21.4113C58.6568 21.4141 58.8595 21.1356 58.8692 20.6998C58.8754 20.432 58.6784 20.2268 58.4195 20.2314C58.1294 20.2364 57.9125 20.5476 57.9091 20.9625C57.9068 21.2117 58.101 21.409 58.3508 21.4113Z" fill="#F7BF88"/>
<path d="M59.6592 17.3015C59.5184 18.0231 59.2272 18.6754 58.7196 19.2166C57.9662 20.0194 57.0272 20.4027 55.9246 20.3965C55.8117 20.396 55.6987 20.3948 55.5851 20.3937C55.563 20.3807 55.5408 20.3678 55.5193 20.3543C55.4994 20.029 55.4562 19.7059 55.467 19.3778C55.5011 18.3411 55.8622 17.4396 56.5435 16.6509C57.0806 16.0291 57.7414 15.5838 58.4687 15.2201C58.568 15.1705 58.6821 15.1418 58.7577 15.0504C59.0398 15.0871 59.2056 15.369 59.4934 15.3943C59.6166 16.024 59.766 16.6515 59.6598 17.301L59.6592 17.3015Z" fill="#E4E4E4"/>
<path d="M61.2989 30.3474C62.5179 30.1489 63.3996 30.7127 63.7164 31.9079C64.6316 35.3631 65.5417 38.8195 66.4534 42.2753C66.4631 42.3114 66.4722 42.348 66.4807 42.3841C66.5505 42.6823 66.4279 42.9078 66.1599 42.9721C65.913 43.0319 65.6978 42.8932 65.6194 42.604C65.4406 41.9449 65.2714 41.2831 65.0971 40.6224C64.3426 37.7636 63.5881 34.9053 62.8313 32.0471C62.6729 31.4495 62.2306 31.1338 61.6487 31.1896C61.1405 31.2381 60.7346 31.6626 60.7074 32.1863C60.7005 32.3154 60.7318 32.4468 60.7409 32.577C60.7573 32.8279 60.6432 32.9942 60.3962 33.05C60.1555 33.1047 59.9494 32.9773 59.8819 32.7253C59.736 32.1801 59.833 31.6683 60.122 31.1874C60.6273 31.0628 61.0332 30.8023 61.2989 30.3468V30.3474Z" fill="#414250"/>
<path d="M48.941 17.3506C47.9867 17.5011 47.0255 17.3945 46.0677 17.4238C45.7481 17.4334 45.4279 17.4267 45.1077 17.4272C45.1554 16.7028 45.4466 16.0832 45.9366 15.5533C46.4157 15.0341 47.0363 14.7719 47.7108 14.6118C48.7452 14.609 49.7796 14.6096 50.814 14.6C50.9843 14.5983 51.011 14.6603 51.007 14.8125C50.9826 15.8245 50.2275 16.8516 49.2039 17.2502C49.1165 17.284 49.029 17.3173 48.9416 17.3506H48.941Z" fill="#5D5E70"/>
<path d="M46.1267 29.3986C46.7092 28.9594 47.2951 28.5242 47.8725 28.0777C47.9968 27.9813 48.0621 28.005 48.141 28.1188C48.2427 28.2643 48.3534 28.4035 48.4607 28.545C48.653 28.7987 48.9134 28.8794 49.2419 28.7869C49.758 28.7209 50.2763 28.6663 50.7901 28.5839C51.0325 28.545 51.2727 28.5529 51.5146 28.5439C52.0971 28.6679 52.5104 28.9836 52.6881 29.566C52.3911 30.1529 51.9279 30.4686 51.2557 30.5453C50.2899 30.6557 49.3316 30.8339 48.3676 30.9641C47.8055 31.0397 47.2968 30.9094 46.9272 30.4443C46.6541 30.101 46.3935 29.7475 46.1273 29.3986H46.1267Z" fill="#F7BF88"/>
<path d="M47.7107 14.6118C47.0368 14.7719 46.4156 15.0341 45.9365 15.5533C45.4465 16.0832 45.1553 16.7028 45.1076 17.4272C44.9554 17.4695 44.9293 17.5744 44.9333 17.7193C44.948 18.2661 44.9747 18.8169 44.7011 19.3237C44.2883 19.8407 43.8075 20.2285 43.0887 20.1688C43.0683 19.3231 43.0654 18.4781 43.0904 17.6324C43.1267 17.5992 43.1256 17.5603 43.108 17.5191C43.1125 15.993 44.5029 14.551 46.2118 14.6017C46.7114 14.6163 47.2111 14.609 47.7107 14.6118Z" fill="#3F404F"/>
<path d="M46.5789 23.7802C46.3535 23.9538 46.0617 23.9752 45.8176 24.1139C44.9143 24.627 44.3477 25.3587 44.191 26.3994C44.1331 26.7833 44.1484 27.1627 44.1462 27.5444C44.1399 28.7982 44.1445 30.052 44.1445 31.3052C43.8038 31.3058 43.4637 31.3069 43.1231 31.3074C43.1225 29.7735 43.1305 28.2395 43.118 26.7061C43.1089 25.582 43.9293 24.4133 45.0154 23.9922C45.3782 23.8518 45.7568 23.8095 46.1304 23.7323C46.2797 23.7481 46.4296 23.7638 46.5789 23.7802Z" fill="#C0D8E4"/>
<path d="M46.5791 23.7802C46.4298 23.7644 46.2799 23.7486 46.1306 23.7323C44.3621 23.4352 43.125 21.9863 43.0886 20.1693C43.8074 20.2291 44.2888 19.8412 44.701 19.3243C44.7351 19.8914 44.6618 20.4636 44.8128 21.0262C45.149 22.2772 45.9285 23.1206 47.1434 23.575C47.2388 23.6105 47.3484 23.6173 47.4193 23.7052C47.1798 23.7588 46.9362 23.7746 46.6915 23.7813C46.654 23.7813 46.6166 23.7813 46.5785 23.7813L46.5791 23.7802Z" fill="#DB9555"/>
<path d="M55.5194 20.3548C55.5415 20.3678 55.5631 20.3807 55.5852 20.3943C55.5466 21.4259 55.8725 22.3319 56.543 23.1172C56.7871 23.403 57.1266 23.5767 57.3974 23.8315C57.071 23.8766 56.7553 23.7537 56.4311 23.77L56.434 23.7717C56.4232 23.6917 56.3636 23.7193 56.3165 23.7204C56.053 23.6043 55.7896 23.4887 55.5256 23.3726C55.2173 23.115 54.8755 22.9007 54.6104 22.5884C54.2641 22.1814 54.0324 21.7174 53.8377 21.2292C53.7446 20.8103 53.6822 20.3881 53.7139 19.9574C53.7208 19.8694 53.6697 19.7499 53.7633 19.702C53.8423 19.662 53.9081 19.7657 53.9768 19.8074C54.4531 20.0955 54.9476 20.3306 55.5182 20.3554L55.5194 20.3548Z" fill="#DB9555"/>
<path d="M61.0911 20.1755C61.0928 19.1749 60.6954 18.3326 60.0493 17.5902C60.1487 17.2863 60.3275 17.027 60.5069 16.7654C60.8124 16.3206 61.1876 16.0562 61.7571 16.2332L61.7548 16.2321C61.7718 16.2744 61.7906 16.2738 61.8116 16.2343C62.5684 17.1893 62.6575 18.2638 62.0461 19.3006C61.8207 19.6828 61.4999 19.9805 61.0917 20.1761L61.0911 20.1755Z" fill="#E4E4E4"/>
<path d="M59.3744 30.2995C59.3613 30.2949 59.3483 30.291 59.3352 30.2876C59.254 29.6128 59.1013 28.9504 58.9775 28.2829C59.4544 28.2237 59.9262 28.0585 60.4116 28.2429C60.8863 28.4233 61.2173 28.7328 61.3569 29.2272C61.3132 29.2977 61.2678 29.3676 61.2252 29.4392C60.9862 29.8394 60.6319 30.0841 60.1777 30.1771C59.9126 30.2318 59.6424 30.2594 59.3738 30.2995H59.3744Z" fill="#F7BF88"/>
<path d="M61.7571 16.2332C61.1871 16.0562 60.8118 16.3206 60.5069 16.7654C60.3275 17.0264 60.1487 17.2857 60.0493 17.5902C59.9153 17.4994 59.8211 17.3551 59.6593 17.3015C59.7654 16.6521 59.6156 16.0246 59.4929 15.3949C60.2787 15.3182 60.9878 15.4986 61.5964 16.015C61.6685 16.0759 61.7503 16.1261 61.7571 16.2332Z" fill="#CBCBCA"/>
<path d="M59.3743 30.2995C59.6422 30.2594 59.9131 30.2318 60.1782 30.1771C60.6324 30.0835 60.9866 29.8394 61.2257 29.4392C61.2682 29.3676 61.3131 29.2982 61.3574 29.2272C61.5254 29.61 61.4119 29.9781 61.2989 30.3468C61.0332 30.8023 60.6273 31.0633 60.122 31.1874C59.9199 31.2043 59.7177 31.2218 59.5156 31.2392C59.4685 30.9258 59.4214 30.6123 59.3743 30.2995Z" fill="#DB9555"/>
<path d="M43.1077 17.5197C43.1252 17.5614 43.1258 17.6003 43.0903 17.633C43.075 17.5918 43.0773 17.5535 43.1077 17.5197Z" fill="#DB9555"/>
<path d="M61.8108 16.2343C61.7905 16.2738 61.7719 16.2744 61.7544 16.2321C61.773 16.2326 61.7916 16.2338 61.8108 16.2343Z" fill="#CBCBCA"/>
<path d="M44.1372 31.3215C45.0303 31.3176 45.9233 31.3142 46.8164 31.3103C47.2064 31.7635 47.6861 32.002 48.2993 31.9253C48.5945 31.8881 48.8898 31.8515 49.185 31.8143C49.055 32.6898 48.5979 33.3629 47.8701 33.8517C47.6969 33.9678 47.647 34.0839 47.6475 34.2813C47.6544 36.7815 47.6487 39.2823 47.6538 41.7826C47.6555 42.529 47.3393 43.0533 46.6313 43.3301C46.5558 43.1756 46.3724 43.1655 46.2611 43.0561C45.908 42.7111 45.7297 42.2967 45.7297 41.8046C45.7303 39.2976 45.7274 36.7911 45.7348 34.2841C45.7354 34.0744 45.6769 33.9492 45.4969 33.8297C44.5993 33.2361 44.2053 32.3634 44.1372 31.321V31.3215Z" fill="#5D5E70"/>
<path d="M49.185 31.8148C48.8897 31.852 48.5945 31.8887 48.2993 31.9259C47.6867 32.0026 47.2064 31.7641 46.8163 31.3108C46.4808 30.8564 46.1441 30.4026 45.8103 29.9471C45.7518 29.8676 45.6627 29.8 45.6809 29.6821C45.8336 29.6173 45.9574 29.5141 46.0709 29.3969C46.0896 29.3958 46.1084 29.3969 46.1271 29.3986C46.3934 29.7475 46.654 30.101 46.9271 30.4443C47.2972 30.9094 47.8053 31.0402 48.3674 30.9641C49.3314 30.8345 50.2892 30.6557 51.2555 30.5453C51.9277 30.4686 52.391 30.1523 52.6879 29.566C52.9763 30.4511 52.3972 31.2127 51.6915 31.4168C51.6291 31.4349 51.5672 31.4563 51.5053 31.476C50.7281 31.5617 49.9537 31.6654 49.1855 31.8143L49.185 31.8148Z" fill="#DB9555"/>
<path d="M56.3164 23.7193C56.3632 23.7187 56.4218 23.6906 56.4331 23.7706C56.3824 23.7808 56.3423 23.7655 56.3164 23.7193Z" fill="#FEFEFE"/>
<path d="M49.2294 19.1991C49.2294 19.3395 49.2408 19.4804 49.2272 19.6197C49.2022 19.8683 49.008 20.0481 48.7837 20.0476C48.5442 20.0476 48.3494 19.8581 48.3392 19.5943C48.329 19.3237 48.329 19.052 48.3392 18.7808C48.3489 18.513 48.5379 18.3281 48.7809 18.3259C49.0063 18.3242 49.2027 18.5023 49.2272 18.7504C49.2419 18.8986 49.23 19.0492 49.23 19.1986L49.2294 19.1991Z" fill="#414250"/>
<path d="M47.7589 19.1833C47.7589 19.3327 47.7714 19.4838 47.7561 19.6315C47.7305 19.8756 47.5256 20.0543 47.303 20.0476C47.0759 20.0408 46.8818 19.8576 46.8704 19.6101C46.8574 19.3305 46.8579 19.0492 46.8704 18.7695C46.8818 18.5102 47.089 18.3197 47.3252 18.3259C47.5534 18.3321 47.7385 18.5113 47.7595 18.7628C47.7714 18.902 47.7618 19.043 47.7618 19.1828C47.7612 19.1828 47.7606 19.1828 47.7601 19.1828L47.7589 19.1833Z" fill="#414250"/>
<path d="M46.0704 29.3974C45.9568 29.5147 45.8331 29.6179 45.6803 29.6827C45.3721 29.455 45.2068 29.1094 44.9724 28.8207C44.8526 28.6736 45.0507 28.6302 45.1296 28.5535C45.2233 28.4622 45.3261 28.3765 45.4356 28.5174C45.6576 28.8032 45.9103 29.0677 46.0698 29.3974H46.0704Z" fill="#C0D8E4"/>
<path d="M60.1703 21.0956C60.1431 21.1903 60.1169 21.3504 60.0511 21.4913C59.9517 21.7033 59.7644 21.7896 59.5367 21.7225C59.3113 21.6565 59.1949 21.4891 59.2176 21.2557C59.2307 21.1181 59.2727 20.9806 59.3221 20.8504C59.4118 20.6153 59.6009 20.5183 59.8405 20.5758C60.0675 20.6305 60.18 20.7962 60.1709 21.095L60.1703 21.0956Z" fill="#414250"/>
<path d="M58.3506 21.4113C58.1008 21.409 57.9072 21.2123 57.9089 20.9625C57.9124 20.5476 58.1292 20.2364 58.4193 20.2314C58.6782 20.2268 58.8747 20.4315 58.869 20.6998C58.8593 21.1356 58.6567 21.4141 58.3506 21.4113Z" fill="#414250"/>
</g>
</g>
<path d="M38.8389 75.5812V73.991" stroke="#A35D54" stroke-width="0.219178" stroke-miterlimit="10"/>
<path d="M35.1289 75.383L35.2917 73.8014" stroke="#A35D54" stroke-width="0.219178" stroke-miterlimit="10"/>
<path d="M31.4587 74.7916L31.7844 73.2373" stroke="#A35D54" stroke-width="0.219178" stroke-miterlimit="10"/>
<path d="M27.8699 73.8145L28.353 72.3016" stroke="#A35D54" stroke-width="0.219178" stroke-miterlimit="10"/>
<path d="M24.4009 72.4607L25.0372 71.0077" stroke="#A35D54" stroke-width="0.219178" stroke-miterlimit="10"/>
<path d="M21.0896 70.7451L21.8716 69.3683" stroke="#A35D54" stroke-width="0.219178" stroke-miterlimit="10"/>
<path d="M17.9744 68.6876L18.8935 67.4013" stroke="#A35D54" stroke-width="0.219178" stroke-miterlimit="10"/>
<path d="M15.0862 66.3098L16.1328 65.128" stroke="#A35D54" stroke-width="0.219178" stroke-miterlimit="10"/>
<path d="M12.4592 63.6391L13.6205 62.5749" stroke="#A35D54" stroke-width="0.219178" stroke-miterlimit="10"/>
<path d="M10.1206 60.7026L11.3858 59.7681" stroke="#A35D54" stroke-width="0.219178" stroke-miterlimit="10"/>
<path d="M8.09717 57.5341L9.45128 56.7401" stroke="#A35D54" stroke-width="0.219178" stroke-miterlimit="10"/>
<path d="M6.40967 54.1685L7.83877 53.5215" stroke="#A35D54" stroke-width="0.219178" stroke-miterlimit="10"/>
<path d="M5.07812 50.6417L6.56615 50.1505" stroke="#A35D54" stroke-width="0.219178" stroke-miterlimit="10"/>
<path d="M4.11719 46.9928L5.64593 46.6617" stroke="#A35D54" stroke-width="0.219178" stroke-miterlimit="10"/>
<path d="M3.5354 43.2612L5.09092 43.0956" stroke="#A35D54" stroke-width="0.219178" stroke-miterlimit="10"/>
<path d="M3.34033 39.4881H4.90442" stroke="#A35D54" stroke-width="0.219178" stroke-miterlimit="10"/>
<path d="M3.5354 35.7163L5.09092 35.8818" stroke="#A35D54" stroke-width="0.219178" stroke-miterlimit="10"/>
<path d="M4.11719 31.9846L5.64593 32.3158" stroke="#A35D54" stroke-width="0.219178" stroke-miterlimit="10"/>
<path d="M5.07812 28.3357L6.56615 28.827" stroke="#A35D54" stroke-width="0.219178" stroke-miterlimit="10"/>
<path d="M6.40967 24.8089L7.83877 25.4559" stroke="#A35D54" stroke-width="0.219178" stroke-miterlimit="10"/>
<path d="M8.09717 21.4433L9.45128 22.2374" stroke="#A35D54" stroke-width="0.219178" stroke-miterlimit="10"/>
<path d="M10.1206 18.2748L11.3858 19.2093" stroke="#A35D54" stroke-width="0.219178" stroke-miterlimit="10"/>
<path d="M12.4592 15.3383L13.6205 16.4024" stroke="#A35D54" stroke-width="0.219178" stroke-miterlimit="10"/>
<path d="M15.0862 12.6675L16.1328 13.8482" stroke="#A35D54" stroke-width="0.219178" stroke-miterlimit="10"/>
<path d="M17.9744 10.2898L18.8935 11.5762" stroke="#A35D54" stroke-width="0.219178" stroke-miterlimit="10"/>
<path d="M21.0896 8.23225L21.8716 9.609" stroke="#A35D54" stroke-width="0.219178" stroke-miterlimit="10"/>
<path d="M24.4009 6.51677L25.0362 7.96977" stroke="#A35D54" stroke-width="0.219178" stroke-miterlimit="10"/>
<path d="M27.8699 5.16296L28.353 6.67587" stroke="#A35D54" stroke-width="0.219178" stroke-miterlimit="10"/>
<path d="M31.4587 4.18585L31.7844 5.74124" stroke="#A35D54" stroke-width="0.219178" stroke-miterlimit="10"/>
<path d="M35.1289 3.59448L35.2917 5.176" stroke="#A35D54" stroke-width="0.219178" stroke-miterlimit="10"/>
<path d="M38.8389 3.39622V4.98646" stroke="#A35D54" stroke-width="0.219178" stroke-miterlimit="10"/>
<path d="M42.5497 3.59448L42.3857 5.176" stroke="#A35D54" stroke-width="0.219178" stroke-miterlimit="10"/>
<path d="M46.22 4.18585L45.8943 5.74015" stroke="#A35D54" stroke-width="0.219178" stroke-miterlimit="10"/>
<path d="M49.8088 5.16296L49.3257 6.67587" stroke="#A35D54" stroke-width="0.219178" stroke-miterlimit="10"/>
<path d="M53.2777 6.51677L52.6414 7.96977" stroke="#A35D54" stroke-width="0.219178" stroke-miterlimit="10"/>
<path d="M56.5881 8.23225L55.8071 9.609" stroke="#A35D54" stroke-width="0.219178" stroke-miterlimit="10"/>
<path d="M59.7043 10.2898L58.7852 11.5762" stroke="#A35D54" stroke-width="0.219178" stroke-miterlimit="10"/>
<path d="M62.5926 12.6675L61.5459 13.8482" stroke="#A35D54" stroke-width="0.219178" stroke-miterlimit="10"/>
<path d="M65.2195 15.3383L64.0571 16.4024" stroke="#A35D54" stroke-width="0.219178" stroke-miterlimit="10"/>
<path d="M67.5582 18.2748L66.293 19.2093" stroke="#A35D54" stroke-width="0.219178" stroke-miterlimit="10"/>
<path d="M69.5817 21.4422L68.2275 22.2374" stroke="#A35D54" stroke-width="0.219178" stroke-miterlimit="10"/>
<path d="M71.2692 24.8089L69.8401 25.4548" stroke="#A35D54" stroke-width="0.219178" stroke-miterlimit="10"/>
<path d="M72.6008 28.3357L71.1128 28.827" stroke="#A35D54" stroke-width="0.219178" stroke-miterlimit="10"/>
<path d="M73.5615 31.9846L72.0317 32.3158" stroke="#A35D54" stroke-width="0.219178" stroke-miterlimit="10"/>
<path d="M74.1434 35.7163L72.5879 35.8818" stroke="#A35D54" stroke-width="0.219178" stroke-miterlimit="10"/>
<path d="M74.3374 39.4881H72.7744" stroke="#A35D54" stroke-width="0.219178" stroke-miterlimit="10"/>
<path d="M74.1434 43.2612L72.5879 43.0956" stroke="#A35D54" stroke-width="0.219178" stroke-miterlimit="10"/>
<path d="M73.5614 46.9928L72.0327 46.6617" stroke="#A35D54" stroke-width="0.219178" stroke-miterlimit="10"/>
<path d="M72.6008 50.6417L71.1128 50.1505" stroke="#A35D54" stroke-width="0.219178" stroke-miterlimit="10"/>
<path d="M71.2692 54.1685L69.8401 53.5215" stroke="#A35D54" stroke-width="0.219178" stroke-miterlimit="10"/>
<path d="M69.5817 57.5341L68.2275 56.7401" stroke="#A35D54" stroke-width="0.219178" stroke-miterlimit="10"/>
<path d="M67.5582 60.7026L66.293 59.7681" stroke="#A35D54" stroke-width="0.219178" stroke-miterlimit="10"/>
<path d="M65.2195 63.6391L64.0571 62.5749" stroke="#A35D54" stroke-width="0.219178" stroke-miterlimit="10"/>
<path d="M62.5926 66.3098L61.5459 65.128" stroke="#A35D54" stroke-width="0.219178" stroke-miterlimit="10"/>
<path d="M59.7043 68.6876L58.7852 67.4013" stroke="#A35D54" stroke-width="0.219178" stroke-miterlimit="10"/>
<path d="M56.5881 70.7451L55.8071 69.3683" stroke="#A35D54" stroke-width="0.219178" stroke-miterlimit="10"/>
<path d="M53.2777 72.4607L52.6414 71.0077" stroke="#A35D54" stroke-width="0.219178" stroke-miterlimit="10"/>
<path d="M49.8088 73.8145L49.3257 72.3016" stroke="#A35D54" stroke-width="0.219178" stroke-miterlimit="10"/>
<path d="M46.22 74.7914L45.8943 73.2361" stroke="#A35D54" stroke-width="0.219178" stroke-miterlimit="10"/>
<path d="M42.5498 75.383L42.387 73.8014" stroke="#A35D54" stroke-width="0.219178" stroke-miterlimit="10"/>
<path d="M38.8389 77.3021V73.5977" stroke="#A35D54" stroke-width="0.438356" stroke-miterlimit="10"/>
<path d="M20.2432 72.2362L22.0644 69.0285" stroke="#A35D54" stroke-width="0.438356" stroke-miterlimit="10"/>
<path d="M6.63037 58.3957L9.78533 56.5429" stroke="#A35D54" stroke-width="0.438356" stroke-miterlimit="10"/>
<path d="M1.64771 39.4881H5.29118" stroke="#A35D54" stroke-width="0.438356" stroke-miterlimit="10"/>
<path d="M6.63037 20.5828L9.78533 22.4345" stroke="#A35D54" stroke-width="0.438356" stroke-miterlimit="10"/>
<path d="M20.2432 6.74119L22.0644 9.9489" stroke="#A35D54" stroke-width="0.438356" stroke-miterlimit="10"/>
<path d="M38.8389 1.67526V5.37964" stroke="#A35D54" stroke-width="0.438356" stroke-miterlimit="10"/>
<path d="M57.4342 6.74228L55.613 9.9489" stroke="#A35D54" stroke-width="0.438356" stroke-miterlimit="10"/>
<path d="M71.0474 20.5817L67.8936 22.4345" stroke="#A35D54" stroke-width="0.438356" stroke-miterlimit="10"/>
<path d="M76.0299 39.4881H72.3875" stroke="#A35D54" stroke-width="0.438356" stroke-miterlimit="10"/>
<path d="M71.0485 58.3957L67.8936 56.5429" stroke="#A35D54" stroke-width="0.438356" stroke-miterlimit="10"/>
<path d="M57.4353 72.2362L55.613 69.0285" stroke="#A35D54" stroke-width="0.438356" stroke-miterlimit="10"/>
<path d="M39.6635 40.4912L39.822 9.88451L41.5468 9.97819L38.8332 5.24341L35.6365 9.65578L37.6719 9.76688L37.9558 40.4956L39.6635 40.4912Z" fill="#DB5700"/>
<path d="M37.6294 40.4662L67.7328 40.7461L67.6331 42.4997L72.3008 39.7593L67.9738 36.4928L67.856 38.5612L37.6326 38.7311L37.6294 40.4662Z" fill="#DB5700"/>
<path d="M39.5795 41.3288C40.5803 40.8662 41.0227 39.6664 40.5677 38.6489C40.1127 37.6315 38.9326 37.1817 37.9318 37.6443C36.9311 38.1069 36.4887 39.3067 36.9437 40.3242C37.3987 41.3416 38.5788 41.7914 39.5795 41.3288Z" fill="#C62828"/>
</g>
<defs>
<clipPath id="clip0_2448_25585">
<rect width="80" height="80" fill="white"/>
</clipPath>
<clipPath id="clip1_2448_25585">
<rect width="27" height="28.8" fill="white" transform="translate(39.5 14.6)"/>
</clipPath>
</defs>
</svg>
