<svg width="80" height="80" viewBox="0 0 80 80" fill="none" xmlns="http://www.w3.org/2000/svg">
<g clip-path="url(#clip0_2448_25583)">
<g style="mix-blend-mode:multiply">
<path d="M41.156 79.9902C62.6036 79.9902 79.9904 62.3128 79.9904 40.5065C79.9904 18.7003 62.6036 1.02281 41.156 1.02281C19.7083 1.02281 2.32153 18.7003 2.32153 40.5065C2.32153 62.3128 19.7083 79.9902 41.156 79.9902Z" fill="#FFC77D"/>
</g>
<path d="M77.1689 39.4837C77.1689 61.0217 59.9982 78.4674 38.8344 78.4674C17.6707 78.4674 0.5 61.0217 0.5 39.4837C0.5 17.9458 17.6707 0.5 38.8344 0.5C59.9982 0.5 77.1689 17.9458 77.1689 39.4837Z" fill="white" stroke="#FFAB3B"/>
<path d="M39.4237 5.88168C46.3517 5.88168 53.0905 8.23499 58.6163 12.5841C64.142 16.9332 68.1527 23.0404 70.039 29.978C71.9254 36.9155 71.5843 44.3043 69.0676 51.0217C66.5509 57.7391 61.9962 63.4181 56.0953 67.196C50.1944 70.9738 43.2699 72.6441 36.3737 71.9529C29.4775 71.2618 22.9865 68.2471 17.8868 63.3668C12.7872 58.4864 9.35748 52.0072 8.11884 44.9135C6.8802 37.8197 7.90028 30.499 11.0241 24.0636L39.4237 38.9935V5.88168Z" fill="#FF8120"/>
<mask id="mask0_2448_25583" style="mask-type:alpha" maskUnits="userSpaceOnUse" x="7" y="5" width="65" height="68">
<path d="M39.4237 5.88168C46.3389 5.88168 53.0658 8.22627 58.5862 12.5605C64.1066 16.8948 68.1199 22.9827 70.0184 29.9027C71.917 36.8227 71.5976 44.198 69.1084 50.9122C66.6193 57.6264 62.096 63.3138 56.2233 67.1136C50.3505 70.9134 43.4482 72.6186 36.561 71.9711C29.6738 71.3236 23.1768 68.3587 18.0535 63.5251C12.9302 58.6916 9.4596 52.2526 8.16699 45.1829C6.87438 38.1132 7.83018 30.7977 10.8897 24.3438L39.4237 38.9935V5.88168Z" fill="url(#paint0_linear_2448_25583)"/>
</mask>
<g mask="url(#mask0_2448_25583)">
<g clip-path="url(#clip1_2448_25583)">
<path d="M34.2167 74.5146C34.155 74.5573 34.0509 74.5015 34.0127 74.6H33.2515C33.2147 74.5773 33.1807 74.5469 33.1405 74.5332C32.3321 74.2596 31.8797 73.6794 31.8436 72.8271C31.8228 72.3358 31.8373 71.8439 31.8367 71.3519C31.8367 70.9681 31.8367 70.5843 31.8367 70.1971C31.6646 70.2026 31.5917 70.3018 31.5029 70.3666C30.4731 71.1169 29.4517 71.8783 28.4157 72.6211C27.386 73.359 26.1099 72.9932 25.6165 71.8383C25.588 71.7708 25.5971 71.673 25.4985 71.644V70.7504C25.799 69.9786 26.4797 69.5783 27.1056 69.1236C27.7933 68.6233 28.4754 68.1155 29.1658 67.6201C29.324 67.5064 29.4128 67.3755 29.4656 67.1853C29.8909 65.655 30.3239 64.1274 30.7673 62.6018C30.8249 62.4041 30.7986 62.2711 30.6744 62.1071C30.1623 61.4339 29.8576 60.6856 29.9277 59.8216C30.3441 59.8209 30.7597 59.8195 31.1761 59.8188L31.167 59.8388C31.2503 61.1128 31.7326 62.1788 32.8289 62.905C33.0489 63.0504 33.1204 63.2041 33.1197 63.4604C33.1107 66.5245 33.1141 69.588 33.1134 72.6521C33.1134 73.2536 33.3313 73.7601 33.7629 74.1818C33.8996 74.3147 34.1231 74.3271 34.2154 74.5166L34.2167 74.5146Z" fill="#3F404F"/>
<path d="M43.6331 74.6C43.4395 74.5063 43.2348 74.4312 43.0551 74.3168C42.4889 73.9571 42.1981 73.428 42.187 72.7665C42.1724 71.8762 42.1835 70.986 42.1835 70.0951C42.0357 70.0737 41.9726 70.1709 41.8942 70.2281C40.8159 71.0143 39.75 71.817 38.6613 72.5873C37.4712 73.4293 35.9335 72.7837 35.7143 71.3519C35.6067 70.6491 35.8829 70.0675 36.4526 69.6424C37.3651 68.9616 38.2782 68.2809 39.2115 67.629C39.5536 67.3899 39.7882 67.124 39.8409 66.7071C39.8562 66.5852 39.9166 66.468 39.9568 66.3495C40.4967 66.4873 40.9963 66.7567 41.5556 66.8304C41.6312 66.8539 41.7054 66.8849 41.7832 66.9C42.2377 66.991 42.6936 67.0792 43.1488 67.1681C43.1488 69.0126 43.1522 70.8572 43.1467 72.7017C43.1446 73.4424 43.4638 73.9943 44.0918 74.3802C44.1848 74.4374 44.3208 74.4512 44.3256 74.6014H43.6338L43.6331 74.6Z" fill="#3F404F"/>
<path d="M44.3249 74.6C44.3201 74.4498 44.1841 74.436 44.0911 74.3788C43.4631 73.993 43.1439 73.441 43.146 72.7003C43.1516 70.8558 43.1481 69.0112 43.1481 67.1667C44.0696 67.2191 44.9855 67.144 45.8987 67.0289C45.9022 68.9492 45.923 70.8702 45.8994 72.7906C45.8897 73.5768 45.4734 74.1466 44.7357 74.4677C44.6435 74.5077 44.5297 74.507 44.463 74.6H44.3249Z" fill="#5D5E70"/>
<path d="M45.8993 67.0289C44.9861 67.1447 44.0708 67.2191 43.1486 67.1667C42.6934 67.0778 42.2382 66.9903 41.783 66.8987C41.706 66.8828 41.6311 66.8525 41.5554 66.8291C41.7032 65.5757 41.8614 64.3237 41.996 63.0697C42.096 62.1423 42.2084 61.2134 42.2382 60.2826C42.2799 58.9782 42.2479 57.6711 42.2521 56.3654C42.2521 56.2758 42.1945 56.1628 42.3576 56.056C42.3923 56.1098 42.4256 56.1711 42.4672 56.2262C43.2492 57.268 44.0299 58.3112 44.8154 59.3496C45.3351 60.0359 45.9943 60.3776 46.8832 60.1813C47.2281 60.1055 47.5848 60.0814 47.9359 60.0338C47.9844 60.8593 48.203 61.651 48.4438 62.4358C48.738 63.3963 49.085 64.3396 49.5166 65.2477C49.6408 65.5096 49.5735 65.6274 49.3341 65.7528C48.3134 66.2889 47.2427 66.6878 46.1199 66.9517C46.0436 66.9696 45.9569 66.96 45.8979 67.0289H45.8993Z" fill="#83DB3E"/>
<path d="M46.1937 50.6064C46.2672 50.776 46.4449 50.8325 46.5711 50.9441C47.4892 51.7571 47.8951 52.7893 47.9048 53.9917C47.9104 54.678 47.9118 55.3649 47.9027 56.0512C47.9 56.2648 47.9562 56.3316 48.1817 56.2875C48.5529 56.2152 48.9311 56.1766 49.3058 56.1235C49.4571 56.9394 49.6438 57.749 49.743 58.5737C49.6431 58.5986 49.5445 58.633 49.4432 58.6475C48.6522 58.7625 47.8563 58.8494 47.0708 58.9941C46.1944 59.1553 45.4505 58.9947 44.894 58.2637C44.0786 57.1929 43.2723 56.1146 42.4577 55.0431C42.314 54.8537 42.2315 54.6614 42.246 54.4154C42.2703 53.9951 42.2676 53.5755 42.3078 53.1538C42.4223 51.9487 42.6631 50.8145 43.7005 50.0208C44.1709 49.9443 44.6261 50.078 45.0883 50.1207C45.4102 50.2626 45.7322 50.4039 46.0549 50.5458C46.0868 50.6023 46.1361 50.6209 46.1985 50.6085L46.195 50.6064H46.1937Z" fill="#83DB3E"/>
<path d="M43.699 50.0215C42.6617 50.8152 42.4216 51.9494 42.3064 53.1545C42.2661 53.5762 42.2689 53.9958 42.2446 54.4161C42.2307 54.6621 42.3126 54.8543 42.4563 55.0438C43.2709 56.1153 44.0772 57.1936 44.8926 58.2644C45.4491 58.9954 46.1929 59.156 47.0693 58.9948C47.8548 58.8501 48.6507 58.7632 49.4418 58.6482C49.5431 58.6337 49.6416 58.5992 49.7416 58.5744C49.7575 58.5786 49.7742 58.5827 49.7894 58.5889C49.847 58.972 49.9046 59.3551 49.9622 59.7375C49.287 59.8368 48.6112 59.936 47.936 60.0352C47.5849 60.0827 47.2282 60.1062 46.8834 60.1826C45.9945 60.3783 45.3346 60.0373 44.8155 59.351C44.0293 58.3119 43.2487 57.2694 42.4674 56.2276C42.4257 56.1718 42.3917 56.1105 42.3577 56.0574C42.1953 56.1642 42.2529 56.2772 42.2522 56.3668C42.2474 57.6725 42.2793 58.9796 42.2384 60.2839C42.2085 61.2148 42.0961 62.1436 41.9962 63.0711C41.8616 64.3258 41.7034 65.5778 41.5556 66.8305C40.9963 66.7567 40.4967 66.4873 39.9568 66.3495C39.5467 66.1449 39.1408 65.9313 38.7251 65.7397C38.4948 65.6336 38.4462 65.5337 38.56 65.2808C39.2192 63.8077 39.784 62.3014 40.0727 60.7063C40.1136 60.4817 40.1393 60.2543 40.1719 60.0283C40.2476 60.0042 40.3232 59.978 40.3995 59.956C41.262 59.7065 41.9691 58.7756 41.6173 57.6939C41.4001 56.9821 40.895 56.5962 40.183 56.4446C40.2129 55.4187 40.1261 54.3906 40.2351 53.366C40.4148 51.6779 41.8109 50.2578 43.4943 50.0545C43.563 50.0463 43.6303 50.0339 43.6983 50.0235L43.699 50.0215Z" fill="#4FB103"/>
<path d="M37.0388 42.7618C37.4836 43.2372 37.9464 43.692 38.2441 44.2894C39.473 46.7568 38.1234 49.7472 35.4463 50.4624C35.3582 50.4859 35.2687 50.5058 35.1798 50.5279C35.0931 50.4211 34.9592 50.4128 34.8426 50.3687C33.3569 49.8134 32.4049 48.7833 31.9941 47.2536C31.8095 46.566 31.8991 45.8666 31.8574 45.1734C32.1919 44.554 32.1593 43.8808 32.1412 43.2124C32.1364 43.0353 32.1683 42.9072 32.3543 42.8555C32.7456 42.8548 33.137 42.8631 33.5276 42.8514C34.6983 42.8155 35.873 42.9458 37.0395 42.7618H37.0388ZM37.3913 45.0211C37.3913 44.8385 37.4059 44.6539 37.3878 44.4734C37.358 44.1702 37.1179 43.9524 36.8424 43.9545C36.5454 43.9566 36.3144 44.1833 36.3026 44.5106C36.2908 44.8413 36.2908 45.1734 36.3026 45.5048C36.3144 45.8266 36.5531 46.0581 36.8459 46.0588C37.12 46.0588 37.358 45.8397 37.3878 45.5358C37.4045 45.3663 37.3906 45.1934 37.3906 45.0218L37.3913 45.0211ZM35.5941 45.0018C35.5941 45.0018 35.5955 45.0018 35.5962 45.0018C35.5962 44.8303 35.608 44.658 35.5934 44.4885C35.567 44.1812 35.3408 43.9621 35.0626 43.9545C34.7746 43.9462 34.5206 44.1798 34.5067 44.4968C34.4922 44.8385 34.4915 45.1824 34.5067 45.5241C34.5206 45.8259 34.7579 46.0499 35.0355 46.0588C35.3082 46.0671 35.558 45.848 35.5892 45.5503C35.608 45.3698 35.5927 45.1851 35.5927 45.0025L35.5941 45.0018Z" fill="#F7BF88"/>
<path d="M34.2903 50.6209C34.8933 50.8331 35.4998 51.0199 36.0112 51.4423C36.7238 52.0314 37.1665 52.7659 37.3289 53.6575C37.5024 54.6091 37.3678 55.5751 37.4038 56.5335C37.4066 56.6024 37.4059 56.6706 37.4066 56.7395C37.0051 56.8525 36.6868 56.754 36.4518 56.4439C36.3207 56.271 36.1853 56.1015 36.0611 55.923C35.964 55.7839 35.8849 55.7549 35.7329 55.8727C35.0272 56.4185 34.3111 56.9504 33.5992 57.4871C33.5763 57.4851 33.5534 57.4844 33.5305 57.4851C33.3355 57.0813 33.0267 56.7581 32.7554 56.4095C32.6215 56.2372 32.4959 56.342 32.3814 56.4536C32.2849 56.5473 32.0427 56.6004 32.1892 56.7802C32.4757 57.133 32.6777 57.5554 33.0544 57.8337C33.0329 57.9771 33.1412 58.0597 33.2127 58.1569C33.6214 58.7136 34.0322 59.2683 34.4423 59.8237C33.3507 59.8285 32.2592 59.8326 31.1677 59.8374L31.1767 59.8175C31.1767 58.285 31.1712 56.7526 31.1788 55.2209C31.1809 54.7544 31.1629 54.2907 31.2336 53.8215C31.4252 52.5495 32.1184 51.6545 33.2217 51.0281C33.5208 50.8586 33.8767 50.8325 34.1522 50.6202C34.198 50.6202 34.2438 50.6202 34.2903 50.6202V50.6209Z" fill="#E4F3FC"/>
<path d="M43.0247 47.501C41.9783 47.9978 40.9721 47.8875 40.1595 47.0944C39.2561 46.2125 39.1215 45.048 39.848 43.9731C40.4579 43.0712 41.3565 42.7521 42.4362 42.9623C42.6312 43.0002 42.7547 42.994 42.8359 42.7411C43.3432 41.1577 44.4028 40.1035 46.0237 39.6715C47.0479 39.3986 48.0673 39.4841 49.036 39.9512C48.9437 40.0628 48.8049 40.098 48.6828 40.1586C47.7932 40.6031 46.9862 41.1474 46.3297 41.9074C45.4971 42.8707 45.0557 43.9731 45.0141 45.2403C45.0009 45.6413 45.0537 46.0361 45.0779 46.4337C44.3806 46.4033 43.7762 46.116 43.194 45.7639C43.11 45.7129 43.0295 45.5861 42.9331 45.6351C42.8186 45.6929 42.8803 45.839 42.8727 45.9472C42.8332 46.4736 42.9102 46.989 43.024 47.501H43.0247Z" fill="#CBCBCA"/>
<path d="M51.8892 46.2145C51.8774 47.3811 51.4882 48.4119 50.6846 49.2587C49.7943 50.1972 48.6896 50.6933 47.3747 50.6822C47.0437 50.3708 46.6288 50.1586 46.3304 49.8092C45.5109 48.8494 45.1126 47.7428 45.1598 46.4812C45.2978 46.4826 45.4359 46.484 45.5747 46.4846C46.9223 46.4922 48.07 46.0237 48.9908 45.0425C49.6112 44.381 49.9671 43.5845 50.1392 42.7019C50.337 42.7673 50.4522 42.9437 50.6159 43.0546C51.4063 43.9628 51.892 44.9915 51.8899 46.2145H51.8892ZM50.7637 47.3391C50.7748 46.9739 50.6374 46.7713 50.3599 46.7045C50.0664 46.6335 49.836 46.7527 49.7263 47.04C49.6653 47.1985 49.6146 47.3673 49.5987 47.5354C49.5709 47.8207 49.7139 48.026 49.9886 48.1059C50.2676 48.1873 50.4959 48.0818 50.6173 47.8234C50.6985 47.6505 50.7297 47.4548 50.763 47.3397L50.7637 47.3391ZM48.5398 47.7249C48.9138 47.7284 49.1615 47.388 49.1733 46.8553C49.1809 46.5281 48.9401 46.2772 48.6237 46.2828C48.2691 46.289 48.0041 46.6693 47.9999 47.1764C47.9971 47.481 48.2344 47.7222 48.5398 47.7249Z" fill="#F7BF88"/>
<path d="M50.1391 42.7018C49.967 43.5838 49.611 44.381 48.9906 45.0425C48.0698 46.0237 46.9221 46.4922 45.5746 46.4846C45.4365 46.484 45.2984 46.4826 45.1596 46.4812C45.1325 46.4654 45.1055 46.4495 45.0791 46.433C45.0548 46.0354 45.0021 45.6406 45.0153 45.2396C45.0569 43.9724 45.4982 42.8707 46.3309 41.9067C46.9873 41.1467 47.795 40.6024 48.6839 40.1579C48.8054 40.0973 48.9448 40.0622 49.0371 39.9505C49.382 39.9953 49.5846 40.3398 49.9364 40.3708C50.087 41.1405 50.2695 41.9074 50.1397 42.7012L50.1391 42.7018Z" fill="#E4E4E4"/>
<path d="M52.1429 58.6468C53.6327 58.4043 54.7104 59.0933 55.0976 60.554C56.2161 64.7771 57.3285 69.0016 58.4429 73.2254C58.4547 73.2695 58.4658 73.3143 58.4762 73.3584C58.5615 73.7229 58.4117 73.9985 58.0841 74.077C57.7823 74.1501 57.5193 73.9806 57.4235 73.6271C57.205 72.8216 56.9982 72.0127 56.7851 71.2051C55.8629 67.711 54.9408 64.2176 54.0158 60.7242C53.8222 59.9939 53.2816 59.608 52.5704 59.6762C51.9493 59.7355 51.4532 60.2543 51.4199 60.8944C51.4116 61.0522 51.4497 61.2128 51.4608 61.3719C51.4809 61.6785 51.3415 61.8818 51.0396 61.95C50.7454 62.0169 50.4935 61.8611 50.4109 61.5531C50.2326 60.8868 50.3513 60.2612 50.7045 59.6735C51.322 59.5212 51.8182 59.2028 52.1429 58.6461V58.6468Z" fill="#414250"/>
<path d="M37.039 42.7618C35.8725 42.9458 34.6978 42.8155 33.5272 42.8514C33.1365 42.8631 32.7451 42.8548 32.3538 42.8555C32.412 41.9701 32.768 41.2128 33.3669 40.5652C33.9525 39.9306 34.711 39.6102 35.5353 39.4145C36.7996 39.411 38.0639 39.4117 39.3282 39.4C39.5364 39.3979 39.569 39.4737 39.5641 39.6598C39.5343 40.8966 38.6114 42.152 37.3603 42.6392C37.2534 42.6805 37.1466 42.7211 37.0397 42.7618H37.039Z" fill="#5D5E70"/>
<path d="M33.5994 57.4871C34.3113 56.9504 35.0274 56.4185 35.7331 55.8727C35.8851 55.7549 35.9649 55.7839 36.0613 55.923C36.1855 56.1008 36.3209 56.271 36.452 56.4439C36.687 56.754 37.0053 56.8525 37.4068 56.7395C38.0376 56.6589 38.6711 56.5921 39.2991 56.4915C39.5954 56.4439 39.8889 56.4536 40.1845 56.4426C40.8965 56.5942 41.4016 56.98 41.6188 57.6918C41.2559 58.4091 40.6897 58.7949 39.8681 58.8886C38.6878 59.0237 37.5165 59.2414 36.3382 59.4006C35.6512 59.4929 35.0295 59.3338 34.5778 58.7653C34.244 58.3457 33.9255 57.9137 33.6001 57.4871H33.5994Z" fill="#F7BF88"/>
<path d="M35.5353 39.4145C34.7116 39.6102 33.9525 39.9306 33.3669 40.5652C32.768 41.2128 32.412 41.9701 32.3538 42.8555C32.1678 42.9072 32.1359 43.0353 32.1407 43.2124C32.1588 43.8808 32.1914 44.554 31.8569 45.1734C31.3525 45.8053 30.7647 46.2793 29.8862 46.2063C29.8613 45.1727 29.8578 44.1399 29.8883 43.1063C29.9327 43.0657 29.9313 43.0181 29.9098 42.9678C29.9154 41.1026 31.6147 39.3401 33.7034 39.4021C34.314 39.42 34.9247 39.411 35.5353 39.4145Z" fill="#3F404F"/>
<path d="M34.1523 50.6202C33.8768 50.8325 33.5201 50.8586 33.2217 51.0281C32.1177 51.6552 31.4252 52.5495 31.2337 53.8215C31.1629 54.2907 31.1816 54.7544 31.1789 55.2209C31.1712 56.7533 31.1768 58.2857 31.1768 59.8175C30.7604 59.8181 30.3448 59.8195 29.9285 59.8202C29.9278 57.9454 29.9375 56.0705 29.9222 54.1963C29.9111 52.8224 30.9138 51.394 32.2412 50.8793C32.6846 50.7077 33.1475 50.6561 33.6041 50.5617C33.7866 50.581 33.9698 50.6002 34.1523 50.6202Z" fill="#C0D8E4"/>
<path d="M34.1521 50.6202C33.9696 50.6009 33.7864 50.5816 33.6039 50.5617C31.4424 50.1985 29.9304 48.4277 29.886 46.207C30.7645 46.28 31.3529 45.806 31.8567 45.1741C31.8983 45.8673 31.8088 46.5666 31.9934 47.2543C32.4042 48.7833 33.3569 49.8141 34.8419 50.3694C34.9584 50.4128 35.0923 50.4211 35.1791 50.5286C34.8863 50.594 34.5886 50.6133 34.2895 50.6216C34.2437 50.6216 34.1979 50.6216 34.1514 50.6216L34.1521 50.6202Z" fill="#DB9555"/>
<path d="M45.0792 46.4337C45.1062 46.4495 45.1326 46.4654 45.1597 46.4819C45.1125 47.7428 45.5108 48.8501 46.3303 49.8099C46.6286 50.1593 47.0436 50.3715 47.3746 50.6829C46.9756 50.7381 46.5898 50.5878 46.1936 50.6078L46.197 50.6099C46.1839 50.5121 46.111 50.5458 46.0534 50.5472C45.7314 50.4053 45.4095 50.264 45.0868 50.1221C44.71 49.8072 44.2923 49.5453 43.9682 49.1636C43.5449 48.6661 43.2618 48.0991 43.0238 47.5024C42.91 46.9904 42.8337 46.4743 42.8725 45.9479C42.8809 45.8404 42.8184 45.6943 42.9329 45.6358C43.0294 45.5868 43.1099 45.7136 43.1938 45.7646C43.776 46.1167 44.3804 46.404 45.0778 46.4343L45.0792 46.4337Z" fill="#DB9555"/>
<path d="M51.889 46.2145C51.8911 44.9915 51.4054 43.9621 50.6157 43.0546C50.7372 42.6832 50.9557 42.3663 51.175 42.0466C51.5483 41.5029 52.007 41.1798 52.703 41.3961L52.7002 41.3948C52.721 41.4464 52.7439 41.4457 52.7696 41.3975C53.6946 42.5647 53.8035 43.878 53.0562 45.1452C52.7807 45.6123 52.3886 45.9761 51.8897 46.2152L51.889 46.2145Z" fill="#E4E4E4"/>
<path d="M49.7907 58.5882C49.7747 58.5827 49.7588 58.5779 49.7428 58.5738C49.6436 57.749 49.4569 56.9394 49.3057 56.1235C49.8885 56.0512 50.4652 55.8493 51.0585 56.0746C51.6386 56.2951 52.0431 56.6734 52.2138 57.2777C52.1604 57.3638 52.1049 57.4492 52.0528 57.5368C51.7607 58.026 51.3277 58.325 50.7726 58.4387C50.4485 58.5055 50.1182 58.5393 49.79 58.5882H49.7907Z" fill="#F7BF88"/>
<path d="M52.7031 41.3961C52.0064 41.1798 51.5477 41.5029 51.1751 42.0466C50.9558 42.3656 50.7373 42.6826 50.6158 43.0546C50.4521 42.9437 50.3369 42.7673 50.1391 42.7018C50.2689 41.9081 50.0857 41.1412 49.9358 40.3715C50.8962 40.2778 51.7628 40.4983 52.5067 41.1295C52.5948 41.2039 52.6948 41.2652 52.7031 41.3961Z" fill="#CBCBCA"/>
<path d="M49.7908 58.5882C50.1183 58.5393 50.4493 58.5055 50.7733 58.4387C51.3285 58.3243 51.7615 58.026 52.0536 57.5368C52.1056 57.4492 52.1605 57.3645 52.2146 57.2777C52.42 57.7455 52.2812 58.1955 52.1431 58.6461C51.8184 59.2028 51.3222 59.5219 50.7046 59.6735C50.4576 59.6941 50.2106 59.7155 49.9636 59.7368C49.906 59.3537 49.8484 58.9706 49.7908 58.5882Z" fill="#DB9555"/>
<path d="M29.9096 42.9685C29.9309 43.0195 29.9316 43.067 29.8882 43.107C29.8696 43.0567 29.8723 43.0098 29.9096 42.9685Z" fill="#DB9555"/>
<path d="M52.7686 41.3975C52.7438 41.4457 52.7211 41.4464 52.6997 41.3948C52.7224 41.3954 52.7452 41.3968 52.7686 41.3975Z" fill="#CBCBCA"/>
<path d="M31.1677 59.8374C32.2592 59.8326 33.3507 59.8285 34.4423 59.8237C34.919 60.3776 35.5053 60.6691 36.2547 60.5754C36.6156 60.5299 36.9764 60.4851 37.3372 60.4397C37.1783 61.5097 36.6197 62.3324 35.7301 62.9298C35.5185 63.0718 35.4574 63.2137 35.4581 63.4549C35.4665 66.5107 35.4595 69.5673 35.4658 72.6232C35.4678 73.5354 35.0813 74.1762 34.216 74.5146C34.1238 74.3258 33.8996 74.3134 33.7636 74.1797C33.332 73.758 33.1141 73.2516 33.1141 72.65C33.1148 69.5859 33.1113 66.5225 33.1204 63.4583C33.1211 63.202 33.0496 63.049 32.8296 62.903C31.7326 62.1774 31.251 61.1108 31.1677 59.8368V59.8374Z" fill="#5D5E70"/>
<path d="M37.3372 60.4403C36.9764 60.4858 36.6156 60.5306 36.2547 60.5761C35.506 60.6698 34.919 60.3783 34.4423 59.8243C34.0322 59.269 33.6207 58.7143 33.2127 58.1576C33.1412 58.0604 33.0322 57.9777 33.0544 57.8337C33.2411 57.7545 33.3924 57.6284 33.5312 57.4851C33.5541 57.4837 33.577 57.4851 33.5999 57.4871C33.9253 57.9137 34.2438 58.3457 34.5776 58.7653C35.03 59.3338 35.651 59.4936 36.338 59.4006C37.5162 59.2421 38.6869 59.0237 39.8679 58.8886C40.6895 58.7949 41.2557 58.4084 41.6186 57.6918C41.9711 58.7736 41.2633 59.7045 40.4008 59.9539C40.3245 59.9759 40.2488 60.0021 40.1732 60.0262C39.2233 60.131 38.2768 60.2577 37.3379 60.4397L37.3372 60.4403Z" fill="#DB9555"/>
<path d="M46.0532 50.5458C46.1104 50.5451 46.1821 50.5107 46.1959 50.6085C46.1338 50.6209 46.0849 50.6023 46.0532 50.5458Z" fill="#FEFEFE"/>
<path d="M37.3914 45.0211C37.3914 45.1927 37.4052 45.365 37.3886 45.5352C37.358 45.839 37.1207 46.0588 36.8466 46.0581C36.5538 46.0581 36.3158 45.8266 36.3033 45.5042C36.2908 45.1734 36.2908 44.8413 36.3033 44.5099C36.3151 44.1826 36.5462 43.9566 36.8432 43.9538C37.1187 43.9518 37.3587 44.1695 37.3886 44.4727C37.4066 44.6539 37.392 44.8379 37.392 45.0205L37.3914 45.0211Z" fill="#414250"/>
<path d="M35.5943 45.0018C35.5943 45.1844 35.6095 45.3691 35.5908 45.5496C35.5596 45.848 35.3091 46.0664 35.037 46.0581C34.7595 46.0499 34.5222 45.8259 34.5083 45.5234C34.4923 45.1817 34.493 44.8379 34.5083 44.4961C34.5222 44.1791 34.7754 43.9462 35.0641 43.9538C35.3431 43.9614 35.5693 44.1805 35.5949 44.4878C35.6095 44.658 35.5977 44.8303 35.5977 45.0012C35.597 45.0012 35.5963 45.0012 35.5956 45.0012L35.5943 45.0018Z" fill="#414250"/>
<path d="M33.5305 57.4858C33.3917 57.6291 33.2404 57.7552 33.0538 57.8344C32.677 57.5561 32.4751 57.1337 32.1885 56.7809C32.0421 56.601 32.2842 56.548 32.3807 56.4543C32.4952 56.3427 32.6208 56.2379 32.7547 56.4102C33.026 56.7595 33.3348 57.0827 33.5298 57.4858H33.5305Z" fill="#C0D8E4"/>
<path d="M50.7635 47.339C50.7302 47.4548 50.6983 47.6505 50.6178 47.8228C50.4963 48.0818 50.2674 48.1872 49.9891 48.1053C49.7136 48.0246 49.5714 47.82 49.5991 47.5347C49.6151 47.3666 49.6664 47.1985 49.7268 47.0393C49.8364 46.752 50.0675 46.6335 50.3603 46.7038C50.6379 46.7706 50.7753 46.9732 50.7642 47.3384L50.7635 47.339Z" fill="#414250"/>
<path d="M48.5396 47.7249C48.2343 47.7222 47.9977 47.4817 47.9998 47.1764C48.0039 46.6693 48.269 46.289 48.6236 46.2828C48.94 46.2772 49.1801 46.5274 49.1732 46.8553C49.1614 47.388 48.9136 47.7284 48.5396 47.7249Z" fill="#414250"/>
</g>
<path d="M53.6391 26.0492C52.9803 26.7191 52.0159 26.8912 51.194 26.5685C51.327 26.8078 51.4934 27.0343 51.694 27.2383C52.8768 28.4408 54.7868 28.4502 55.9598 27.2576C57.1328 26.065 57.1243 24.1238 55.9408 22.9206C55.0814 22.0468 53.8396 21.8041 52.7748 22.1925C53.0846 22.3068 53.3761 22.4899 53.6253 22.7434C54.5274 23.6605 54.5331 25.1403 53.6398 26.0485L53.6391 26.0492Z" fill="#FFD367"/>
<path d="M47.4454 21.2977C48.7889 21.2977 49.8779 20.1904 49.8779 18.8245C49.8779 17.4586 48.7889 16.3513 47.4454 16.3513C46.102 16.3513 45.0129 17.4586 45.0129 18.8245C45.0129 20.1904 46.102 21.2977 47.4454 21.2977Z" fill="#D82700"/>
<path d="M47.4451 16.0519C47.2424 16.0519 47.0786 15.8854 47.0786 15.6793V15.5259C47.0786 15.3198 47.2424 15.1533 47.4451 15.1533C47.6478 15.1533 47.8117 15.3198 47.8117 15.5259V15.6793C47.8117 15.8842 47.6478 16.0519 47.4451 16.0519Z" fill="#D82700"/>
<path d="M47.4451 22.4948C47.2424 22.4948 47.0786 22.3283 47.0786 22.1222V21.9688C47.0786 21.7639 47.2424 21.5962 47.4451 21.5962C47.6478 21.5962 47.8117 21.7627 47.8117 21.9688V22.1222C47.8117 22.3271 47.6478 22.4948 47.4451 22.4948Z" fill="#D82700"/>
<path d="M50.6888 19.1961H50.5379C50.3364 19.1961 50.1714 19.0296 50.1714 18.8235C50.1714 18.6174 50.3352 18.4508 50.5379 18.4508H50.6888C50.8915 18.4508 51.0553 18.6174 51.0553 18.8235C51.0553 19.0296 50.8915 19.1961 50.6888 19.1961Z" fill="#D82700"/>
<path d="M44.3528 19.1961H44.202C43.9993 19.1961 43.8354 19.0296 43.8354 18.8235C43.8354 18.6174 43.9993 18.4508 44.202 18.4508H44.3528C44.5544 18.4508 44.7194 18.6174 44.7194 18.8235C44.7194 19.0296 44.5555 19.1961 44.3528 19.1961Z" fill="#D82700"/>
<path d="M45.8992 16.4737C45.7731 16.4737 45.6494 16.4066 45.5822 16.2879L45.5068 16.1549C45.4054 15.9764 45.4655 15.7499 45.6411 15.6469C45.8167 15.5438 46.0395 15.6049 46.1408 15.7835L46.2162 15.9165C46.3176 16.095 46.2575 16.3215 46.0819 16.4245C46.0241 16.4581 45.9617 16.4749 45.8992 16.4749V16.4737Z" fill="#D82700"/>
<path d="M49.0672 22.0528C48.9411 22.0528 48.8173 21.9857 48.7502 21.867L48.6747 21.734C48.5734 21.5555 48.6335 21.329 48.8091 21.226C48.9847 21.1229 49.2074 21.184 49.3088 21.3626L49.3842 21.4956C49.4856 21.6741 49.4255 21.9006 49.2499 22.0036C49.1921 22.0372 49.1296 22.054 49.0672 22.054V22.0528Z" fill="#D82700"/>
<path d="M50.1241 17.6239C49.998 17.6239 49.8742 17.5568 49.8071 17.4382C49.7057 17.2597 49.7658 17.0332 49.9414 16.9302L50.0722 16.8535C50.2478 16.7504 50.4706 16.8115 50.5719 16.9901C50.6733 17.1686 50.6132 17.3951 50.4376 17.4981L50.3068 17.5748C50.249 17.6084 50.1865 17.6251 50.1241 17.6251V17.6239Z" fill="#D82700"/>
<path d="M44.6368 20.8462C44.5107 20.8462 44.3869 20.7791 44.3198 20.6605C44.2184 20.482 44.2785 20.2555 44.4541 20.1524L44.5849 20.0758C44.7605 19.9727 44.9844 20.0338 45.0846 20.2124C45.186 20.3909 45.1259 20.6174 44.9503 20.7204L44.8195 20.7971C44.7617 20.8306 44.6992 20.8474 44.6368 20.8474V20.8462Z" fill="#D82700"/>
<path d="M44.7663 17.6238C44.7039 17.6238 44.6414 17.6082 44.5837 17.5735L44.4528 17.4968C44.2784 17.3938 44.2183 17.1661 44.3185 16.9888C44.4198 16.8102 44.6438 16.7503 44.8182 16.8522L44.949 16.9288C45.1234 17.0319 45.1835 17.2596 45.0834 17.4369C45.015 17.5567 44.8924 17.6226 44.7663 17.6226V17.6238Z" fill="#D82700"/>
<path d="M50.2537 20.846C50.1912 20.846 50.1288 20.8304 50.071 20.7956L49.9402 20.719C49.7646 20.6159 49.7045 20.3882 49.8058 20.2109C49.9072 20.0324 50.1299 19.9713 50.3055 20.0743L50.4364 20.151C50.612 20.254 50.6721 20.4817 50.5707 20.659C50.5024 20.7789 50.3798 20.8448 50.2537 20.8448V20.846Z" fill="#D82700"/>
<path d="M48.9914 16.4735C48.9289 16.4735 48.8664 16.4579 48.8087 16.4232C48.6343 16.3201 48.5742 16.0925 48.6755 15.9151L48.7509 15.7821C48.8523 15.6036 49.0762 15.5437 49.2506 15.6467C49.4251 15.7498 49.4852 15.9774 49.3838 16.1548L49.3084 16.2878C49.24 16.4076 49.1175 16.4735 48.9914 16.4735Z" fill="#D82700"/>
<path d="M45.8223 22.0526C45.7598 22.0526 45.6974 22.037 45.6396 22.0022C45.464 21.8992 45.4051 21.6715 45.5053 21.4942L45.5807 21.3612C45.682 21.1838 45.9048 21.1215 46.0804 21.2246C46.256 21.3276 46.3149 21.5553 46.2147 21.7326L46.1393 21.8656C46.071 21.9855 45.9484 22.0514 45.8223 22.0514V22.0526Z" fill="#D82700"/>
</g>
<path d="M38.8389 75.5812V73.991" stroke="#A35D54" stroke-width="0.219178" stroke-miterlimit="10"/>
<path d="M35.1289 75.383L35.2917 73.8014" stroke="#A35D54" stroke-width="0.219178" stroke-miterlimit="10"/>
<path d="M31.4587 74.7916L31.7844 73.2373" stroke="#A35D54" stroke-width="0.219178" stroke-miterlimit="10"/>
<path d="M27.8699 73.8145L28.353 72.3016" stroke="#A35D54" stroke-width="0.219178" stroke-miterlimit="10"/>
<path d="M24.4009 72.4607L25.0372 71.0077" stroke="#A35D54" stroke-width="0.219178" stroke-miterlimit="10"/>
<path d="M21.0896 70.7451L21.8716 69.3683" stroke="#A35D54" stroke-width="0.219178" stroke-miterlimit="10"/>
<path d="M17.9744 68.6876L18.8935 67.4013" stroke="#A35D54" stroke-width="0.219178" stroke-miterlimit="10"/>
<path d="M15.0862 66.3098L16.1328 65.128" stroke="#A35D54" stroke-width="0.219178" stroke-miterlimit="10"/>
<path d="M12.4592 63.6391L13.6205 62.5749" stroke="#A35D54" stroke-width="0.219178" stroke-miterlimit="10"/>
<path d="M10.1206 60.7026L11.3858 59.7681" stroke="#A35D54" stroke-width="0.219178" stroke-miterlimit="10"/>
<path d="M8.09717 57.5341L9.45128 56.7401" stroke="#A35D54" stroke-width="0.219178" stroke-miterlimit="10"/>
<path d="M6.40967 54.1685L7.83877 53.5215" stroke="#A35D54" stroke-width="0.219178" stroke-miterlimit="10"/>
<path d="M5.07812 50.6417L6.56615 50.1505" stroke="#A35D54" stroke-width="0.219178" stroke-miterlimit="10"/>
<path d="M4.11719 46.9928L5.64593 46.6617" stroke="#A35D54" stroke-width="0.219178" stroke-miterlimit="10"/>
<path d="M3.5354 43.2612L5.09092 43.0956" stroke="#A35D54" stroke-width="0.219178" stroke-miterlimit="10"/>
<path d="M3.34033 39.4881H4.90442" stroke="#A35D54" stroke-width="0.219178" stroke-miterlimit="10"/>
<path d="M3.5354 35.7163L5.09092 35.8818" stroke="#A35D54" stroke-width="0.219178" stroke-miterlimit="10"/>
<path d="M4.11719 31.9846L5.64593 32.3158" stroke="#A35D54" stroke-width="0.219178" stroke-miterlimit="10"/>
<path d="M5.07812 28.3357L6.56615 28.827" stroke="#A35D54" stroke-width="0.219178" stroke-miterlimit="10"/>
<path d="M6.40967 24.8089L7.83877 25.4559" stroke="#A35D54" stroke-width="0.219178" stroke-miterlimit="10"/>
<path d="M8.09717 21.4433L9.45128 22.2374" stroke="#A35D54" stroke-width="0.219178" stroke-miterlimit="10"/>
<path d="M10.1206 18.2748L11.3858 19.2093" stroke="#A35D54" stroke-width="0.219178" stroke-miterlimit="10"/>
<path d="M12.4592 15.3383L13.6205 16.4024" stroke="#A35D54" stroke-width="0.219178" stroke-miterlimit="10"/>
<path d="M15.0862 12.6675L16.1328 13.8482" stroke="#A35D54" stroke-width="0.219178" stroke-miterlimit="10"/>
<path d="M17.9744 10.2898L18.8935 11.5762" stroke="#A35D54" stroke-width="0.219178" stroke-miterlimit="10"/>
<path d="M21.0896 8.23225L21.8716 9.609" stroke="#A35D54" stroke-width="0.219178" stroke-miterlimit="10"/>
<path d="M24.4009 6.51677L25.0362 7.96977" stroke="#A35D54" stroke-width="0.219178" stroke-miterlimit="10"/>
<path d="M27.8699 5.16296L28.353 6.67587" stroke="#A35D54" stroke-width="0.219178" stroke-miterlimit="10"/>
<path d="M31.4587 4.18585L31.7844 5.74124" stroke="#A35D54" stroke-width="0.219178" stroke-miterlimit="10"/>
<path d="M35.1289 3.59448L35.2917 5.176" stroke="#A35D54" stroke-width="0.219178" stroke-miterlimit="10"/>
<path d="M38.8389 3.39622V4.98646" stroke="#A35D54" stroke-width="0.219178" stroke-miterlimit="10"/>
<path d="M42.5497 3.59448L42.3857 5.176" stroke="#A35D54" stroke-width="0.219178" stroke-miterlimit="10"/>
<path d="M46.22 4.18585L45.8943 5.74015" stroke="#A35D54" stroke-width="0.219178" stroke-miterlimit="10"/>
<path d="M49.8088 5.16296L49.3257 6.67587" stroke="#A35D54" stroke-width="0.219178" stroke-miterlimit="10"/>
<path d="M53.2777 6.51677L52.6414 7.96977" stroke="#A35D54" stroke-width="0.219178" stroke-miterlimit="10"/>
<path d="M56.5881 8.23225L55.8071 9.609" stroke="#A35D54" stroke-width="0.219178" stroke-miterlimit="10"/>
<path d="M59.7043 10.2898L58.7852 11.5762" stroke="#A35D54" stroke-width="0.219178" stroke-miterlimit="10"/>
<path d="M62.5926 12.6675L61.5459 13.8482" stroke="#A35D54" stroke-width="0.219178" stroke-miterlimit="10"/>
<path d="M65.2195 15.3383L64.0571 16.4024" stroke="#A35D54" stroke-width="0.219178" stroke-miterlimit="10"/>
<path d="M67.5582 18.2748L66.293 19.2093" stroke="#A35D54" stroke-width="0.219178" stroke-miterlimit="10"/>
<path d="M69.5817 21.4422L68.2275 22.2374" stroke="#A35D54" stroke-width="0.219178" stroke-miterlimit="10"/>
<path d="M71.2692 24.8089L69.8401 25.4548" stroke="#A35D54" stroke-width="0.219178" stroke-miterlimit="10"/>
<path d="M72.6008 28.3357L71.1128 28.827" stroke="#A35D54" stroke-width="0.219178" stroke-miterlimit="10"/>
<path d="M73.5615 31.9846L72.0317 32.3158" stroke="#A35D54" stroke-width="0.219178" stroke-miterlimit="10"/>
<path d="M74.1434 35.7163L72.5879 35.8818" stroke="#A35D54" stroke-width="0.219178" stroke-miterlimit="10"/>
<path d="M74.3374 39.4881H72.7744" stroke="#A35D54" stroke-width="0.219178" stroke-miterlimit="10"/>
<path d="M74.1434 43.2612L72.5879 43.0956" stroke="#A35D54" stroke-width="0.219178" stroke-miterlimit="10"/>
<path d="M73.5614 46.9928L72.0327 46.6617" stroke="#A35D54" stroke-width="0.219178" stroke-miterlimit="10"/>
<path d="M72.6008 50.6417L71.1128 50.1505" stroke="#A35D54" stroke-width="0.219178" stroke-miterlimit="10"/>
<path d="M71.2692 54.1685L69.8401 53.5215" stroke="#A35D54" stroke-width="0.219178" stroke-miterlimit="10"/>
<path d="M69.5817 57.5341L68.2275 56.7401" stroke="#A35D54" stroke-width="0.219178" stroke-miterlimit="10"/>
<path d="M67.5582 60.7026L66.293 59.7681" stroke="#A35D54" stroke-width="0.219178" stroke-miterlimit="10"/>
<path d="M65.2195 63.6391L64.0571 62.5749" stroke="#A35D54" stroke-width="0.219178" stroke-miterlimit="10"/>
<path d="M62.5926 66.3098L61.5459 65.128" stroke="#A35D54" stroke-width="0.219178" stroke-miterlimit="10"/>
<path d="M59.7043 68.6876L58.7852 67.4013" stroke="#A35D54" stroke-width="0.219178" stroke-miterlimit="10"/>
<path d="M56.5881 70.7451L55.8071 69.3683" stroke="#A35D54" stroke-width="0.219178" stroke-miterlimit="10"/>
<path d="M53.2777 72.4607L52.6414 71.0077" stroke="#A35D54" stroke-width="0.219178" stroke-miterlimit="10"/>
<path d="M49.8088 73.8145L49.3257 72.3016" stroke="#A35D54" stroke-width="0.219178" stroke-miterlimit="10"/>
<path d="M46.22 74.7914L45.8943 73.2361" stroke="#A35D54" stroke-width="0.219178" stroke-miterlimit="10"/>
<path d="M42.5498 75.383L42.387 73.8014" stroke="#A35D54" stroke-width="0.219178" stroke-miterlimit="10"/>
<path d="M38.8389 77.3021V73.5977" stroke="#A35D54" stroke-width="0.438356" stroke-miterlimit="10"/>
<path d="M20.2432 72.2362L22.0644 69.0285" stroke="#A35D54" stroke-width="0.438356" stroke-miterlimit="10"/>
<path d="M6.63037 58.3957L9.78533 56.5429" stroke="#A35D54" stroke-width="0.438356" stroke-miterlimit="10"/>
<path d="M1.64771 39.4881H5.29118" stroke="#A35D54" stroke-width="0.438356" stroke-miterlimit="10"/>
<path d="M6.63037 20.5828L9.78533 22.4345" stroke="#A35D54" stroke-width="0.438356" stroke-miterlimit="10"/>
<path d="M20.2432 6.74119L22.0644 9.9489" stroke="#A35D54" stroke-width="0.438356" stroke-miterlimit="10"/>
<path d="M38.8389 1.67526V5.37964" stroke="#A35D54" stroke-width="0.438356" stroke-miterlimit="10"/>
<path d="M57.4342 6.74228L55.613 9.9489" stroke="#A35D54" stroke-width="0.438356" stroke-miterlimit="10"/>
<path d="M71.0472 20.5817L67.8933 22.4345" stroke="#A35D54" stroke-width="0.438356" stroke-miterlimit="10"/>
<path d="M76.0299 39.4881H72.3875" stroke="#A35D54" stroke-width="0.438356" stroke-miterlimit="10"/>
<path d="M71.0483 58.3957L67.8933 56.5429" stroke="#A35D54" stroke-width="0.438356" stroke-miterlimit="10"/>
<path d="M57.4353 72.2362L55.613 69.0285" stroke="#A35D54" stroke-width="0.438356" stroke-miterlimit="10"/>
<path d="M39.6635 40.4912L39.822 9.88451L41.5468 9.97819L38.8332 5.24341L35.6365 9.65578L37.6719 9.76688L37.9558 40.4956L39.6635 40.4912Z" fill="#DB5700"/>
<path d="M40.4786 39.0484L14.8822 24.6384L15.7887 23.1432L10.5161 23.3569L12.6843 28.2652L13.7537 26.5018L39.6632 40.5726L40.4786 39.0484Z" fill="#DB5700"/>
<path d="M39.5795 41.3288C40.5803 40.8662 41.0227 39.6664 40.5677 38.6489C40.1127 37.6315 38.9326 37.1817 37.9318 37.6443C36.9311 38.1069 36.4887 39.3067 36.9437 40.3242C37.3987 41.3416 38.5788 41.7914 39.5795 41.3288Z" fill="#C62828"/>
</g>
<defs>
<linearGradient id="paint0_linear_2448_25583" x1="25.5035" y1="17.6088" x2="57.6711" y2="62.63" gradientUnits="userSpaceOnUse">
<stop stop-color="#FF8120"/>
<stop offset="1" stop-color="#E54304"/>
</linearGradient>
<clipPath id="clip0_2448_25583">
<rect width="80" height="80" fill="white"/>
</clipPath>
<clipPath id="clip1_2448_25583">
<rect width="33" height="35.2" fill="white" transform="translate(25.5 39.4)"/>
</clipPath>
</defs>
</svg>
