<svg width="40" height="40" viewBox="0 0 40 40" fill="none" xmlns="http://www.w3.org/2000/svg">
<path fill-rule="evenodd" clip-rule="evenodd" d="M20.163 14.5099C19.4828 14.5099 18.8617 14.7987 18.4263 15.2679C20.0472 15.4922 21.4286 16.613 21.9639 18.195L22.7979 20.6601H26.1838L24.7043 16.1414C24.3856 15.1681 23.4775 14.5099 22.4535 14.5099H20.163ZM27.0007 23.155L29.4595 30.6648C29.6314 31.1897 30.1962 31.4758 30.7211 31.304C31.2459 31.1321 31.5321 30.5673 31.3602 30.0425L26.605 15.519C26.0172 13.7239 24.3423 12.5099 22.4535 12.5099H20.163C18.3564 12.5099 16.7759 13.6144 16.1182 15.2266H15.4955C13.3511 15.2266 11.5238 16.7831 11.1827 18.9002L9.01288 32.3679C8.92503 32.9132 9.29584 33.4264 9.84109 33.5142C10.3863 33.6021 10.8996 33.2313 10.9874 32.686L12.0934 25.8214H14.3474L13.6648 30.1996C13.5797 30.7453 13.9531 31.2566 14.4988 31.3417C15.0445 31.4268 15.5559 31.0534 15.6409 30.5077L16.3716 25.8214H22.4327L24.8099 32.8475C24.9869 33.3706 25.5545 33.6512 26.0776 33.4742C26.6008 33.2972 26.8814 32.7296 26.7044 32.2065L24.5368 25.7997C24.7561 25.7532 24.9556 25.6338 25.1009 25.4578L27.0007 23.155ZM23.8647 23.8133L24.8161 22.6601H23.4745L23.8647 23.8133ZM20.6865 20.6601L20.0694 18.836C19.7439 17.874 18.8414 17.2266 17.8259 17.2266H17.7116L17.1763 20.6601H20.6865ZM16.8645 22.6601H21.3632L21.7561 23.8214H16.6834L16.8645 22.6601ZM14.6593 23.8214L15.6875 17.2266H15.4955C14.3329 17.2266 13.3421 18.0705 13.1572 19.2183L12.4156 23.8214H14.6593Z" fill="#E0E0E0"/>
<path d="M18.4563 13.3453C18.4563 12.836 18.8691 12.4232 19.3783 12.4232H22.7504C23.2596 12.4232 23.6724 12.836 23.6724 13.3453C23.6724 13.8545 23.2596 14.2673 22.7504 14.2673H19.3783C18.8691 14.2673 18.4563 13.8545 18.4563 13.3453Z" fill="#FF8120"/>
<path d="M13.8037 16.0619C13.8037 15.5527 14.2165 15.1399 14.7257 15.1399H18.0978C18.607 15.1399 19.0198 15.5527 19.0198 16.0619C19.0198 16.5712 18.607 16.984 18.0978 16.984H14.7257C14.2165 16.984 13.8037 16.5712 13.8037 16.0619Z" fill="#FF8120"/>
<ellipse cx="25.758" cy="32.4115" rx="0.652014" ry="0.658597" fill="#333333"/>
<ellipse cx="10.1098" cy="32.4116" rx="0.652014" ry="0.658597" fill="#333333"/>
<ellipse cx="30.5185" cy="30.4689" rx="0.652014" ry="0.658597" fill="#333333"/>
<ellipse cx="14.5985" cy="30.4689" rx="0.652014" ry="0.658597" fill="#333333"/>
<g clip-path="url(#clip0_1582_8621)">
<circle opacity="0.5" cx="24.5714" cy="13.9946" r="8.57143" fill="#EFF6FF"/>
<path fill-rule="evenodd" clip-rule="evenodd" d="M31.6429 13.9946C31.6429 17.9001 28.4769 21.0661 24.5714 21.0661C20.666 21.0661 17.5 17.9001 17.5 13.9946C17.5 10.0892 20.666 6.92322 24.5714 6.92322C28.4769 6.92322 31.6429 10.0892 31.6429 13.9946ZM30.4826 20.2017C28.9448 21.6667 26.8631 22.5661 24.5714 22.5661C19.8376 22.5661 16 18.7285 16 13.9946C16 9.26078 19.8376 5.42322 24.5714 5.42322C29.3053 5.42322 33.1429 9.26078 33.1429 13.9946C33.1429 15.9218 32.5069 17.7004 31.4333 19.132L35.7908 23.4896C36.0698 23.7685 36.0698 24.2208 35.7908 24.4997C35.5119 24.7787 35.0596 24.7787 34.7807 24.4997L30.4826 20.2017Z" fill="url(#paint0_linear_1582_8621)"/>
</g>
<defs>
<linearGradient id="paint0_linear_1582_8621" x1="21.625" y1="8.8384" x2="30.7409" y2="22.6077" gradientUnits="userSpaceOnUse">
<stop stop-color="#FF8120"/>
<stop offset="1" stop-color="#E54304"/>
</linearGradient>
<clipPath id="clip0_1582_8621">
<rect width="20" height="19.2857" fill="white" transform="translate(16 5.42322)"/>
</clipPath>
</defs>
</svg>
