<svg width="80" height="80" viewBox="0 0 80 80" fill="none" xmlns="http://www.w3.org/2000/svg">
<g clip-path="url(#clip0_1582_8614)">
<path fill-rule="evenodd" clip-rule="evenodd" d="M36.942 21.807C34.9967 21.807 33.3414 23.2242 33.0418 25.1462L32.988 25.4911H35.7624C38.8842 25.4911 41.6585 27.4813 42.659 30.4384L45.7338 39.5263H56.4015L51.4901 24.5261C50.959 22.904 49.4455 21.807 47.7387 21.807H36.942ZM57.5999 43.1867L64.4694 64.1674C64.7558 65.0422 65.6972 65.5192 66.572 65.2327C67.4467 64.9463 67.9237 64.005 67.6373 63.1302L54.6579 23.4888C53.6784 20.497 50.8868 18.4737 47.7387 18.4737H36.942C33.354 18.4737 30.301 21.0876 29.7482 24.6327L29.6144 25.4911H24.8992C21.3252 25.4911 18.2797 28.0852 17.7112 31.6137L11.6882 68.9976C11.5418 69.9064 12.1598 70.7618 13.0686 70.9082C13.9773 71.0546 14.8327 70.4366 14.9791 69.5278L17.9666 50.9848C18.0849 51.0114 18.2079 51.0254 18.3342 51.0254H25.6332L23.7051 63.3921C23.5633 64.3015 24.1856 65.1538 25.0951 65.2956C26.0046 65.4374 26.8569 64.815 26.9987 63.9056L29.0068 51.0254H46.1054L52.4564 69.7969C52.7514 70.6688 53.6974 71.1365 54.5693 70.8415C55.4412 70.5465 55.9089 69.6005 55.6139 68.7286L49.6243 51.0254H50.3473C50.8448 51.0254 51.3163 50.8032 51.6329 50.4194L57.5999 43.1867ZM48.4965 47.6921H49.5617L53.5485 42.8597H46.8616L48.4965 47.6921ZM42.2148 39.5263L39.5015 31.5067C38.9591 29.9034 37.4549 28.8244 35.7624 28.8244H32.4683L30.7997 39.5263H42.2148ZM30.28 42.8597H43.3426L44.9776 47.6921H29.5266L30.28 42.8597ZM26.153 47.6921L29.0947 28.8244H24.8992C22.9615 28.8244 21.3103 30.2309 21.0021 32.1439L18.4971 47.6921H26.153Z" fill="#BDBDBD"/>
<path d="M35.1763 19.715C35.1763 18.3996 36.2426 17.3333 37.558 17.3333H46.2682C47.5835 17.3333 48.6499 18.3996 48.6499 19.715V19.715C48.6499 21.0304 47.5835 22.0967 46.2682 22.0967H37.558C36.2426 22.0967 35.1763 21.0304 35.1763 19.715V19.715Z" fill="url(#paint0_linear_1582_8614)"/>
<path d="M23.1592 26.7324C23.1592 25.4171 24.2255 24.3507 25.5409 24.3507H34.2511C35.5665 24.3507 36.6328 25.4171 36.6328 26.7324V26.7324C36.6328 28.0478 35.5665 29.1141 34.2511 29.1141H25.5409C24.2255 29.1141 23.1592 28.0478 23.1592 26.7324V26.7324Z" fill="url(#paint1_linear_1582_8614)"/>
<ellipse cx="54.0372" cy="68.9646" rx="1.6842" ry="1.7012" fill="#333333"/>
<ellipse cx="13.6166" cy="68.9648" rx="1.6842" ry="1.7012" fill="#333333"/>
<ellipse cx="66.3339" cy="63.9465" rx="1.6842" ry="1.7012" fill="#333333"/>
<ellipse cx="25.2115" cy="63.9465" rx="1.6842" ry="1.7012" fill="#333333"/>
<g clip-path="url(#clip1_1582_8614)">
<circle opacity="0.5" cx="54" cy="20" r="12" fill="#EFF6FF"/>
<path fill-rule="evenodd" clip-rule="evenodd" d="M64 20C64 25.5228 59.5228 30 54 30C48.4772 30 44 25.5228 44 20C44 14.4772 48.4772 10 54 10C59.5228 10 64 14.4772 64 20ZM62.2757 28.6899C60.1226 30.7409 57.2084 32 54 32C47.3726 32 42 26.6274 42 20C42 13.3726 47.3726 8 54 8C60.6274 8 66 13.3726 66 20C66 22.698 65.1096 25.1881 63.6066 27.1924L69.7071 33.2929C70.0976 33.6834 70.0976 34.3166 69.7071 34.7071C69.3166 35.0976 68.6834 35.0976 68.2929 34.7071L62.2757 28.6899Z" fill="url(#paint2_linear_1582_8614)"/>
</g>
</g>
<defs>
<linearGradient id="paint0_linear_1582_8614" x1="38.9657" y1="18.1768" x2="40.0869" y2="22.7962" gradientUnits="userSpaceOnUse">
<stop stop-color="#FF8120"/>
<stop offset="1" stop-color="#E54304"/>
</linearGradient>
<linearGradient id="paint1_linear_1582_8614" x1="26.9486" y1="25.1943" x2="28.0699" y2="29.8136" gradientUnits="userSpaceOnUse">
<stop stop-color="#FF8120"/>
<stop offset="1" stop-color="#E54304"/>
</linearGradient>
<linearGradient id="paint2_linear_1582_8614" x1="49.875" y1="12.7813" x2="62.6373" y2="32.0583" gradientUnits="userSpaceOnUse">
<stop stop-color="#FF8120"/>
<stop offset="1" stop-color="#E54304"/>
</linearGradient>
<clipPath id="clip0_1582_8614">
<rect width="80" height="80" fill="white"/>
</clipPath>
<clipPath id="clip1_1582_8614">
<rect width="28" height="27" fill="white" transform="translate(42 8)"/>
</clipPath>
</defs>
</svg>
