<svg width="320" height="274" viewBox="0 0 320 274" fill="none" xmlns="http://www.w3.org/2000/svg">
<path d="M124.472 150.322C125.201 150.35 125.922 150.396 126.642 150.451C127.362 150.507 128.082 150.571 128.802 150.654C129.522 150.738 130.242 150.802 130.962 150.913C131.683 151.024 132.384 151.19 133.104 151.31C133.815 151.43 134.535 151.532 135.246 151.661C135.957 151.79 136.668 151.947 137.379 152.086C138.09 152.224 138.81 152.335 139.512 152.483C140.213 152.631 140.933 152.769 141.644 152.917C142.355 153.065 143.048 153.295 143.759 153.434C144.469 153.572 145.18 153.72 145.891 153.859C146.602 153.997 147.322 154.071 148.042 154.2C148.763 154.33 149.492 154.33 150.203 154.44C150.914 154.551 151.615 154.791 152.336 154.884C153.056 154.976 153.785 154.948 154.505 155.013C155.225 155.078 155.945 155.17 156.666 155.207C157.386 155.244 158.106 155.308 158.835 155.308C159.564 155.308 160.303 155.327 161.042 155.281C161.771 155.234 162.5 155.059 163.23 154.967C163.959 154.874 164.698 154.837 165.427 154.699C166.147 154.551 166.849 154.302 167.56 154.108C168.271 153.914 169.028 153.831 169.711 153.582C170.394 153.332 171.087 153.028 171.751 152.723C172.416 152.418 172.979 151.883 173.607 151.513C174.235 151.144 174.872 150.774 175.463 150.35C176.054 149.925 176.663 149.509 177.208 149.02C177.752 148.531 178.334 148.069 178.814 147.506C179.294 146.942 179.608 146.278 180.023 145.659C180.439 145.04 180.891 144.477 181.214 143.812C181.556 143.11 181.833 142.381 182.092 141.651C182.35 140.922 182.655 140.192 182.895 139.454C183.135 138.715 183.301 137.939 183.578 137.21C183.855 136.48 184.215 135.778 184.575 135.095C184.935 134.412 185.378 133.775 185.868 133.165C186.302 132.63 186.689 132.057 187.206 131.614C187.723 131.171 188.25 130.727 188.813 130.34C189.376 129.952 189.976 129.619 190.558 129.259C191.139 128.899 191.804 128.678 192.376 128.308C192.949 127.939 193.549 127.588 194.094 127.182C194.666 126.748 195.1 126.166 195.608 125.677C196.116 125.187 196.623 124.679 197.066 124.134C197.51 123.59 197.971 123.036 198.35 122.435C198.728 121.835 199.162 121.253 199.476 120.626C199.79 119.998 199.984 119.296 200.242 118.631C200.501 117.966 200.676 117.283 200.861 116.599C201.046 115.916 201.304 115.242 201.415 114.54C201.526 113.839 201.59 113.128 201.637 112.416C201.683 111.705 201.637 110.994 201.609 110.293C201.581 109.591 201.609 108.871 201.526 108.169C201.443 107.467 201.378 106.747 201.212 106.054C201.046 105.362 200.676 104.734 200.436 104.06C200.196 103.386 200.067 102.675 199.762 102.028C199.458 101.382 199.07 100.782 198.701 100.172C198.331 99.5628 198.008 98.9256 197.583 98.3531C197.159 97.7806 196.688 97.2451 196.217 96.7095C195.746 96.1739 195.266 95.6383 194.749 95.1582C194.232 94.678 193.632 94.2717 193.078 93.8285C192.524 93.3853 191.906 93.0344 191.315 92.6373C190.724 92.2402 190.179 91.7693 189.561 91.4276C188.942 91.086 188.259 90.8644 187.613 90.5689C186.966 90.2734 186.302 90.0333 185.637 89.7932C184.972 89.5531 184.317 89.2669 183.624 89.0914C182.932 88.916 182.276 88.7313 181.575 88.6205C181.759 87.928 181.898 87.2446 181.898 86.5244C181.898 85.8041 181.621 85.1208 181.473 84.4283C181.325 83.7357 181.104 83.0801 180.808 82.4245C180.513 81.7689 180.291 81.0763 179.867 80.5131C179.442 79.9498 178.842 79.5343 178.297 79.0726C177.752 78.6109 177.198 78.1953 176.552 77.8814C175.887 77.5582 175.269 77.1242 174.567 76.9395C173.865 76.7548 173.108 76.8195 172.379 76.7364C171.65 76.6533 170.939 76.6071 170.2 76.5794C169.462 76.5517 168.741 76.6071 168.012 76.5886C167.283 76.5702 166.553 76.367 165.833 76.3208C165.113 76.2747 164.365 76.2931 163.654 76.1823C162.897 76.0623 162.196 75.776 161.485 75.5544C160.774 75.3328 160.035 75.1481 159.343 74.8434C158.65 74.5387 157.995 74.1785 157.33 73.8184C156.666 73.4583 156.065 73.0243 155.428 72.5995C154.791 72.1748 154.09 71.8885 153.49 71.4268C152.889 70.9651 152.382 70.4019 151.791 69.9217C151.2 69.4415 150.526 69.0814 149.954 68.592C149.381 68.1026 148.947 67.447 148.384 66.9483C147.821 66.4497 147.119 66.0988 146.556 65.6002C145.993 65.1015 145.531 64.4736 144.959 63.9842C144.386 63.4948 143.685 63.1532 143.094 62.6915C142.512 62.2298 141.968 61.7127 141.367 61.2787C140.767 60.8447 140.112 60.4845 139.484 60.0783C138.856 59.672 138.302 59.1549 137.665 58.7763C137.028 58.3977 136.373 58.0283 135.717 57.6774C135.062 57.3265 134.351 57.0772 133.677 56.754C133.003 56.4308 132.301 56.1907 131.618 55.8953C130.935 55.5998 130.27 55.2581 129.578 54.9996C128.885 54.741 128.156 54.5656 127.445 54.3255C126.734 54.0854 126.097 53.6514 125.377 53.439C124.657 53.2266 123.918 53.1158 123.198 52.9311C122.478 52.7465 121.749 52.5987 121.019 52.4417C120.29 52.2848 119.579 52.0262 118.84 51.8969C118.102 51.7677 117.363 51.6569 116.625 51.5645C115.886 51.4722 115.138 51.4168 114.4 51.3429C113.661 51.269 112.913 51.1582 112.175 51.1121C111.427 51.0659 110.679 51.0197 109.94 51.0012C109.202 50.9828 108.445 51.1767 107.706 51.1767C106.967 51.1767 106.22 51.1767 105.472 51.2136C104.724 51.2506 103.967 51.1028 103.228 51.1582C102.49 51.2136 101.751 51.3614 101.003 51.4352C100.256 51.5091 99.5446 51.7584 98.806 51.86C98.0674 51.9616 97.3012 51.86 96.5626 51.98C95.824 52.1093 95.1315 52.4417 94.4022 52.5895C93.6728 52.7372 92.8973 52.6911 92.1679 52.8573C91.4386 53.0235 90.7369 53.2913 90.0168 53.4852C89.2967 53.6791 88.5765 53.8638 87.8564 54.0669C87.1363 54.2701 86.4162 54.464 85.7053 54.6948C84.9944 54.9257 84.2835 55.1473 83.5818 55.3966C82.8801 55.6459 82.16 55.8676 81.4676 56.1261C80.7752 56.3847 80.0827 56.6801 79.3903 56.9572C78.6979 57.2342 78.0793 57.6774 77.3961 57.9821C76.7129 58.2869 76.0205 58.5546 75.3465 58.8686C74.6725 59.1826 74.0263 59.5612 73.3615 59.8936C72.6968 60.226 71.9582 60.4199 71.2935 60.7616C70.6103 61.1217 69.9732 61.5557 69.3454 61.962C68.7176 62.3683 68.1175 62.8669 67.5174 63.3286C66.9173 63.7903 66.3541 64.3074 65.7817 64.8061C65.2093 65.3047 64.5446 65.711 64.0091 66.2558C63.4736 66.8006 63.0582 67.4562 62.5596 68.0287C62.0611 68.6012 61.6087 69.2107 61.1378 69.8109C60.667 70.4111 60.2331 71.0298 59.7899 71.6484C59.3468 72.2671 58.8297 72.8304 58.4143 73.4768C57.9988 74.1231 57.6388 74.788 57.2418 75.4344C56.8448 76.0807 56.4755 76.7456 56.0969 77.4104C55.7277 78.0568 55.3214 78.6847 54.9798 79.3496C54.6382 80.0144 54.2782 80.67 53.9735 81.3534C53.6688 82.0367 53.5303 82.7846 53.2626 83.4772C52.9949 84.1697 52.5609 84.8069 52.3209 85.5179C52.0809 86.2289 51.8408 86.9399 51.6377 87.6509C51.4346 88.362 51.3977 89.1284 51.2222 89.8579C51.0468 90.5873 50.8991 91.3076 50.7606 92.0463C50.6221 92.785 50.3913 93.4961 50.2805 94.2348C50.1697 94.9735 50.0682 95.7122 50.0036 96.4602C49.9389 97.2081 49.9112 97.9468 49.8835 98.6948C49.8558 99.4427 49.7266 100.191 49.7358 100.939C49.7451 101.687 50.0036 102.425 50.059 103.164C50.1144 103.903 50.022 104.66 50.1144 105.408C50.1882 106.045 50.1882 106.71 50.299 107.347C50.4098 107.984 50.6314 108.603 50.7975 109.231C50.9637 109.859 51.2407 110.45 51.4623 111.05C51.6839 111.65 51.7577 112.333 52.0439 112.915C52.4132 113.654 52.8471 114.374 53.3088 115.067C53.7704 115.759 54.2505 116.424 54.7398 117.098C55.2291 117.772 55.7461 118.409 56.1985 119.093C56.5955 119.693 57.0387 120.265 57.3895 120.893C57.7403 121.521 58.0911 122.158 58.4235 122.796C58.7559 123.433 58.9867 124.125 59.3006 124.772C59.6145 125.418 59.9099 126.074 60.2146 126.729C60.5193 127.385 60.787 128.05 61.1009 128.705C61.4148 129.361 61.7841 129.98 62.1072 130.626C62.4304 131.272 62.8366 131.873 63.1967 132.5C63.5567 133.128 63.8522 133.793 64.2492 134.403C64.6462 135.012 65.2093 135.492 65.6433 136.083C66.0772 136.674 66.4557 137.284 66.9173 137.838C67.3789 138.392 67.7852 139.01 68.2745 139.537C68.7638 140.063 69.3731 140.488 69.8902 140.986C70.4072 141.485 70.9057 142.021 71.4597 142.492C72.0136 142.963 72.5952 143.387 73.1769 143.821C73.7585 144.255 74.3771 144.625 74.9864 145.022C75.5958 145.419 76.1313 145.927 76.7591 146.287C77.3869 146.647 78.0608 146.933 78.7071 147.256C79.3534 147.58 80.0643 147.755 80.7382 148.032C81.4122 148.309 82.0215 148.706 82.714 148.946C83.4249 149.195 84.1542 149.399 84.8743 149.593C85.5945 149.786 86.3146 150.045 87.044 150.211C87.7733 150.377 88.5488 150.34 89.2874 150.461C90.026 150.581 90.7462 150.839 91.494 150.922C92.2418 151.005 92.9989 150.913 93.7559 150.968C94.513 151.024 95.2423 151.153 95.9994 151.181C96.7564 151.208 97.495 151.347 98.2521 151.356C98.9999 151.356 99.757 151.282 100.505 151.273C101.253 151.264 102.01 151.218 102.758 151.19C103.505 151.162 104.262 151.125 105.01 151.098C105.758 151.07 106.515 151.098 107.263 151.061C108.011 151.024 108.759 150.941 109.506 150.904C110.217 150.867 110.937 150.839 111.658 150.793C112.378 150.747 113.079 150.654 113.799 150.608C114.52 150.562 115.221 150.424 115.941 150.387C116.662 150.35 117.382 150.396 118.093 150.368C118.803 150.34 119.524 150.211 120.244 150.193C120.964 150.174 121.684 150.35 122.395 150.35C123.106 150.35 123.835 150.294 124.546 150.313L124.472 150.322Z" fill="#494542"/>
<path d="M200.492 192.728C200.373 192.11 200.166 191.493 200.028 190.868C199.89 190.243 199.949 189.601 199.801 188.968C199.653 188.335 199.258 187.773 199.091 187.148C198.923 186.523 198.992 185.874 198.805 185.257C198.617 184.639 198.42 184.03 198.223 183.413C198.025 182.795 197.65 182.226 197.443 181.616C197.236 181.007 197.019 180.397 196.792 179.788C196.565 179.179 196.447 178.546 196.21 177.944C195.973 177.343 195.717 176.741 195.46 176.14C195.204 175.538 194.957 174.937 194.691 174.343C194.425 173.75 194.168 173.148 193.892 172.555C193.616 171.961 193.349 171.368 193.053 170.774C192.757 170.18 192.452 169.603 192.136 169.017C191.82 168.431 191.327 167.917 191.001 167.339C190.676 166.762 190.459 166.144 190.113 165.574C189.768 165.005 189.305 164.482 188.949 163.913C188.594 163.343 188.318 162.749 187.953 162.187C187.588 161.625 187.282 161.032 186.897 160.486C186.513 159.94 186.148 159.362 185.743 158.824C185.339 158.286 184.796 157.803 184.372 157.265C183.948 156.727 183.573 156.165 183.139 155.642C182.705 155.12 182.29 154.566 181.837 154.052C181.383 153.537 180.85 153.054 180.367 152.556C179.883 152.057 179.36 151.575 178.857 151.092C178.354 150.609 177.752 150.174 177.239 149.707C176.726 149.24 176.322 148.654 175.779 148.195C175.237 147.736 174.497 147.428 173.935 146.992C173.372 146.557 172.919 146.035 172.327 145.639C171.735 145.243 171.034 144.943 170.423 144.571C169.811 144.199 169.209 143.803 168.568 143.455C167.927 143.107 167.236 142.822 166.575 142.505C165.914 142.188 165.263 141.848 164.582 141.547C163.902 141.247 163.211 140.97 162.521 140.693C161.83 140.416 161.169 140.083 160.459 139.83C159.749 139.577 159.009 139.387 158.298 139.149C157.588 138.912 156.898 138.619 156.168 138.406C155.438 138.192 154.717 137.962 153.987 137.757C153.257 137.551 152.547 137.282 151.817 137.092C151.087 136.902 150.308 136.807 149.558 136.625C148.808 136.443 148.078 136.253 147.328 136.087C146.579 135.921 145.829 135.786 145.079 135.62C144.98 135.62 145.168 135.786 145.079 135.786C144.32 135.62 143.58 135.343 142.81 135.208C142.041 135.074 141.232 135.082 140.452 134.971C139.673 134.86 138.923 134.615 138.144 134.52C137.365 134.425 136.575 134.354 135.786 134.282C134.997 134.211 134.198 134.33 133.409 134.282C132.619 134.235 131.85 134.029 131.051 134.005C130.252 133.982 129.472 134.045 128.673 134.037C127.874 134.029 127.095 134.116 126.306 134.124C125.517 134.132 124.727 134.172 123.938 134.203C123.149 134.235 122.36 134.251 121.571 134.306C120.781 134.361 119.992 134.354 119.203 134.425C118.414 134.496 117.624 134.536 116.845 134.631C116.066 134.726 115.277 134.821 114.507 134.931C113.728 135.042 112.948 135.145 112.169 135.28C111.39 135.414 110.679 135.723 109.91 135.881C109.14 136.039 108.351 136.11 107.592 136.285C106.832 136.459 106.112 136.728 105.362 136.926C104.612 137.123 103.803 137.179 103.054 137.393C102.304 137.606 101.544 137.796 100.814 138.026C100.084 138.255 99.3444 138.508 98.6242 138.762C97.9041 139.015 97.2628 139.434 96.5525 139.711C95.8423 139.988 95.053 140.147 94.3526 140.439C93.6522 140.732 92.9518 141.041 92.2711 141.358C91.5904 141.674 90.9097 142.014 90.2487 142.355C89.5878 142.695 88.9761 143.122 88.3349 143.478C87.6937 143.835 87.0228 144.183 86.3915 144.571C85.7601 144.958 85.1287 145.338 84.5269 145.75C83.9252 146.161 83.2938 146.557 82.7118 146.984C82.1297 147.412 81.5674 147.863 81.015 148.314C80.4526 148.765 79.9594 149.264 79.4267 149.731C78.894 150.197 78.3316 150.649 77.8285 151.139C77.3254 151.63 76.8519 152.136 76.3783 152.651C75.9048 153.165 75.4017 153.656 74.938 154.17C74.4744 154.685 74.0403 155.223 73.5766 155.737C73.113 156.252 72.817 156.869 72.3534 157.383C71.8897 157.898 71.2583 158.325 70.8045 158.848C70.3507 159.37 69.9463 159.924 69.5023 160.446C69.0584 160.968 68.5553 161.467 68.1015 161.997C67.6477 162.528 67.2235 163.058 66.7796 163.588C66.3356 164.118 66.0693 164.743 65.6352 165.274C65.2012 165.804 64.629 166.271 64.1949 166.801C63.7608 167.331 63.386 167.893 62.9519 168.431C62.5178 168.97 62.0739 169.492 61.6497 170.03C61.2255 170.568 60.8309 171.122 60.4166 171.66C60.0022 172.199 59.6372 172.768 59.213 173.314C58.7888 173.86 58.3942 174.407 57.9799 174.953C57.5655 175.499 57.023 175.974 56.6086 176.52C56.1943 177.066 55.8194 177.628 55.4149 178.174C55.0105 178.72 54.6849 179.305 54.2804 179.859C53.876 180.413 53.3531 180.904 52.9585 181.458C52.5639 182.012 52.1594 182.558 51.7648 183.112C51.3702 183.666 51.1236 184.275 50.7389 184.813C50.3541 185.352 49.8214 185.85 49.4367 186.396C49.0519 186.942 48.6277 187.481 48.2529 188.034C47.878 188.588 47.582 189.182 47.217 189.736C46.8323 190.322 46.3785 190.884 46.0135 191.477C45.6485 192.071 45.461 192.743 45.1157 193.337C44.7705 193.93 44.4449 194.548 44.1194 195.157C43.7938 195.767 43.3795 196.344 43.0835 196.962C42.7876 197.579 42.4818 198.196 42.2055 198.821C41.9293 199.447 41.5939 200.056 41.3571 200.689C41.1204 201.322 41.0809 202.003 40.8737 202.644C40.6666 203.285 40.3016 203.894 40.1338 204.543C39.9661 205.192 39.9661 205.857 39.8379 206.522C39.7096 207.186 39.5123 207.812 39.4137 208.484C39.3249 209.141 39.2559 209.798 39.2065 210.463C39.1572 211.128 39.1967 211.785 39.1868 212.441C39.1769 213.098 39.1375 213.763 39.1671 214.42C39.1967 215.077 39.2657 215.742 39.3446 216.398C39.4236 217.055 39.4828 217.72 39.611 218.369C39.7392 219.018 40.0253 219.651 40.2029 220.292C40.3805 220.933 40.5778 221.574 40.8047 222.207C41.0316 222.84 41.1993 223.489 41.4755 224.115C41.7517 224.74 41.9194 225.397 42.2549 225.998C42.5903 226.6 43.0934 227.146 43.4781 227.731C43.8629 228.317 44.3561 228.839 44.8001 229.401C45.2341 229.947 45.6781 230.485 46.1713 231C46.6646 231.514 47.0296 232.116 47.5623 232.598C48.095 233.081 48.7954 233.445 49.3775 233.896C49.9595 234.347 50.4725 234.854 51.1039 235.265C51.7352 235.677 52.4357 236.009 53.0966 236.381C53.7576 236.753 54.4284 237.109 55.119 237.442C55.8095 237.774 56.5297 238.067 57.2499 238.36C57.97 238.653 58.7099 238.914 59.4498 239.167C60.1897 239.42 60.9295 239.697 61.6892 239.903C62.4488 240.109 63.2084 240.362 63.9877 240.52C64.7671 240.679 65.5958 240.671 66.3948 240.782C67.1939 240.892 67.9733 241.027 68.7822 241.098C69.5911 241.169 70.3902 241.169 71.1992 241.185C72.0081 241.201 72.8072 241.241 73.6161 241.201C74.425 241.161 75.2439 241.13 76.0528 241.043C76.1317 241.692 76.329 242.349 76.4178 242.997C76.5066 243.646 76.3783 244.311 76.4573 244.968C76.5362 245.625 76.7236 246.258 76.8025 246.907C76.8815 247.556 76.9209 248.213 76.9998 248.862C77.0788 249.511 77.2267 250.16 77.3057 250.809C77.3846 251.458 77.4536 252.107 77.5326 252.763C77.6115 253.42 77.6509 254.069 77.7397 254.718C77.8285 255.367 77.8384 256.024 77.9173 256.673C77.9962 257.322 78.1541 257.971 78.233 258.62C78.3218 259.3 78.4007 259.941 78.5684 260.535C78.746 261.208 79.0518 261.801 79.3182 262.363C79.624 263.004 79.9791 263.566 80.3836 264.081C80.8374 264.642 81.38 265.101 81.9521 265.521C82.5539 265.964 83.1656 266.344 83.8758 266.645C84.5861 266.945 85.2668 267.301 86.0462 267.484C86.8255 267.666 87.6049 267.737 88.4237 267.824C89.1932 267.903 90.0021 267.982 90.8209 267.998C91.6397 268.014 92.4092 267.935 93.228 267.903C94.0468 267.871 94.8163 267.784 95.6252 267.721C96.4342 267.658 97.2135 267.578 98.0126 267.499C98.8117 267.42 99.591 267.246 100.38 267.159C101.169 267.072 101.988 267.04 102.768 266.953C103.547 266.866 104.376 266.819 105.155 266.74C105.934 266.66 106.704 266.471 107.483 266.399C108.262 266.328 109.052 266.304 109.841 266.241C110.63 266.178 111.419 266.209 112.199 266.154C112.978 266.099 113.767 266.019 114.547 265.972C115.326 265.924 116.115 265.893 116.904 265.853C117.694 265.814 118.473 265.711 119.262 265.679C120.051 265.647 120.84 265.64 121.62 265.608C122.399 265.576 123.188 265.529 123.978 265.513C124.767 265.497 125.556 265.505 126.335 265.489C127.115 265.473 127.914 265.568 128.703 265.56C129.492 265.553 130.272 265.489 131.061 265.481C131.85 265.473 132.639 265.418 133.419 265.418C134.198 265.418 134.997 265.521 135.776 265.521C136.556 265.521 137.355 265.394 138.134 265.402C138.913 265.41 139.712 265.418 140.492 265.418C141.271 265.418 142.07 265.41 142.85 265.418C143.629 265.426 144.418 265.592 145.207 265.6C145.997 265.608 146.786 265.632 147.565 265.647C148.344 265.663 149.144 265.497 149.933 265.513C150.722 265.529 151.501 265.584 152.291 265.6C153.08 265.616 153.869 265.6 154.648 265.616C155.428 265.632 156.227 265.6 157.006 265.616C157.785 265.632 158.575 265.782 159.364 265.798C160.153 265.814 160.942 265.671 161.731 265.687C162.521 265.703 163.3 265.774 164.089 265.782C164.878 265.79 165.668 265.822 166.447 265.829C167.226 265.837 168.025 265.885 168.805 265.893C169.584 265.901 170.383 265.909 171.163 265.909C171.942 265.909 172.741 265.814 173.52 265.814C174.3 265.814 175.099 265.806 175.878 265.798C176.657 265.79 177.456 265.814 178.236 265.806C179.015 265.798 179.814 265.829 180.594 265.814C181.373 265.798 182.162 265.766 182.951 265.75C183.741 265.735 184.52 265.663 185.309 265.64C186.098 265.616 186.878 265.552 187.667 265.521C188.456 265.489 189.245 265.608 190.035 265.568C190.715 265.537 191.396 265.394 192.067 265.275C192.738 265.157 193.349 264.959 193.882 264.611C194.651 264.104 195.135 263.455 195.352 262.672C195.569 261.888 195.539 261.105 195.539 260.337C195.539 259.704 195.47 259.071 195.47 258.438C195.47 257.805 195.589 257.172 195.589 256.538C195.589 255.905 195.48 255.272 195.48 254.639C195.48 254.006 195.737 253.373 195.737 252.74C195.737 252.107 195.717 251.473 195.717 250.84C195.717 250.207 195.46 249.574 195.46 248.941C195.46 248.308 195.589 247.675 195.589 247.042C195.589 246.408 195.559 245.775 195.549 245.142C195.539 244.509 195.431 243.876 195.431 243.243C195.431 242.61 195.677 241.969 195.668 241.336C195.658 240.702 195.618 240.069 195.608 239.436C195.598 238.803 195.608 238.17 195.598 237.529C195.589 236.888 195.303 236.263 195.283 235.63C195.263 234.996 195.273 234.363 195.253 233.73C195.233 233.097 195.204 232.464 195.184 231.831C195.164 231.198 195.184 230.565 195.164 229.924C195.145 229.282 195.263 228.649 195.233 228.016C195.204 227.383 194.957 226.758 194.928 226.125C194.898 225.492 194.967 224.851 194.928 224.217C194.888 223.584 194.839 222.951 194.79 222.318C194.74 221.685 194.612 221.052 194.563 220.419C194.513 219.786 194.513 219.137 194.464 218.504C194.928 217.973 195.431 217.443 195.855 216.897C196.279 216.351 196.733 215.805 197.108 215.227C197.483 214.649 197.877 214.08 198.203 213.486C198.528 212.892 198.755 212.267 199.032 211.658C199.308 211.049 199.564 210.431 199.791 209.814C200.018 209.197 200.156 208.556 200.324 207.922C200.492 207.297 200.64 206.68 200.758 206.055C200.876 205.43 200.985 204.796 201.054 204.163C201.123 203.53 201.093 202.897 201.123 202.256C201.153 201.615 201.162 200.99 201.153 200.357C201.143 199.724 201.113 199.09 201.074 198.457C201.034 197.824 201.054 197.183 200.985 196.55C200.916 195.917 200.866 195.284 200.768 194.651C200.669 194.018 200.521 193.392 200.403 192.767L200.492 192.728Z" fill="#FBDFBA"/>
<mask id="mask0_1582_9172" style="mask-type:luminance" maskUnits="userSpaceOnUse" x="34" y="134" width="168" height="134">
<path d="M200.471 192.728C200.349 192.11 200.135 191.493 199.993 190.868C199.851 190.243 199.912 189.601 199.759 188.968C199.607 188.335 199.2 187.773 199.027 187.148C198.854 186.523 198.925 185.874 198.732 185.257C198.539 184.639 198.335 184.03 198.132 183.413C197.929 182.795 197.542 182.226 197.329 181.616C197.115 181.007 196.891 180.397 196.657 179.788C196.424 179.179 196.302 178.546 196.057 177.944C195.813 177.343 195.549 176.741 195.285 176.14C195.02 175.538 194.766 174.937 194.491 174.343C194.217 173.75 193.952 173.148 193.668 172.555C193.383 171.961 193.108 171.368 192.803 170.774C192.498 170.18 192.183 169.603 191.857 169.017C191.532 168.431 191.023 167.917 190.688 167.339C190.352 166.762 190.129 166.144 189.773 165.574C189.417 165.005 188.939 164.482 188.573 163.913C188.207 163.343 187.922 162.749 187.545 162.187C187.169 161.625 186.854 161.032 186.457 160.486C186.061 159.94 185.684 159.362 185.267 158.824C184.851 158.286 184.291 157.803 183.854 157.265C183.417 156.727 183.03 156.165 182.583 155.642C182.135 155.12 181.708 154.566 181.24 154.052C180.773 153.537 180.223 153.054 179.725 152.556C179.227 152.057 178.688 151.575 178.169 151.092C177.65 150.609 177.03 150.174 176.501 149.707C175.972 149.24 175.556 148.654 174.996 148.195C174.437 147.736 173.674 147.428 173.094 146.992C172.515 146.557 172.047 146.035 171.437 145.639C170.827 145.243 170.105 144.943 169.474 144.571C168.844 144.199 168.223 143.803 167.562 143.455C166.901 143.107 166.189 142.822 165.508 142.505C164.827 142.188 164.155 141.848 163.454 141.547C162.752 141.247 162.04 140.97 161.328 140.693C160.616 140.416 159.935 140.083 159.203 139.83C158.471 139.577 157.708 139.387 156.976 139.149C156.243 138.912 155.532 138.619 154.779 138.406C154.026 138.192 153.284 137.962 152.532 137.757C151.779 137.551 151.047 137.282 150.294 137.092C149.542 136.902 148.738 136.807 147.965 136.625C147.192 136.443 146.44 136.253 145.667 136.087C144.894 135.921 144.121 135.786 143.348 135.62C143.247 135.62 143.44 135.786 143.348 135.786C142.565 135.62 141.803 135.343 141.009 135.208C140.216 135.074 139.382 135.082 138.579 134.971C137.775 134.86 137.003 134.615 136.199 134.52C135.396 134.425 134.582 134.354 133.769 134.282C132.955 134.211 132.131 134.33 131.318 134.282C130.504 134.235 129.711 134.029 128.887 134.005C128.063 133.982 127.26 134.045 126.436 134.037C125.613 134.029 124.809 134.116 123.996 134.124C123.182 134.132 122.368 134.172 121.555 134.203C120.741 134.235 119.928 134.251 119.114 134.306C118.301 134.361 117.487 134.354 116.673 134.425C115.86 134.496 115.046 134.536 114.243 134.631C113.44 134.726 112.626 134.821 111.833 134.931C111.029 135.042 110.226 135.145 109.423 135.28C108.619 135.414 107.887 135.723 107.094 135.881C106.3 136.039 105.487 136.11 104.704 136.285C103.921 136.459 103.178 136.728 102.405 136.926C101.633 137.123 100.799 137.179 100.026 137.393C99.2529 137.606 98.4699 137.796 97.7173 138.026C96.9648 138.255 96.202 138.508 95.4596 138.762C94.7173 139.015 94.0562 139.434 93.324 139.711C92.5918 139.988 91.7783 140.147 91.0562 140.439C90.3342 140.732 89.6121 141.041 88.9104 141.358C88.2087 141.674 87.507 142.014 86.8256 142.355C86.1443 142.695 85.5138 143.122 84.8527 143.478C84.1917 143.835 83.5002 144.183 82.8493 144.571C82.1985 144.958 81.5476 145.338 80.9273 145.75C80.3069 146.161 79.6561 146.557 79.0561 146.984C78.4561 147.412 77.8764 147.863 77.3069 148.314C76.7272 148.765 76.2187 149.264 75.6696 149.731C75.1204 150.197 74.5408 150.649 74.0221 151.139C73.5035 151.63 73.0153 152.136 72.5272 152.651C72.039 153.165 71.5204 153.656 71.0424 154.17C70.5644 154.685 70.117 155.223 69.639 155.737C69.161 156.252 68.8559 156.869 68.378 157.383C67.9 157.898 67.2491 158.325 66.7813 158.848C66.3135 159.37 65.8966 159.924 65.439 160.446C64.9813 160.968 64.4627 161.467 63.9949 161.997C63.5271 162.528 63.0898 163.058 62.6321 163.588C62.1745 164.118 61.8999 164.743 61.4525 165.274C61.005 165.804 60.4152 166.271 59.9677 166.801C59.5202 167.331 59.1338 167.893 58.6863 168.431C58.2389 168.97 57.7812 169.492 57.3439 170.03C56.9067 170.568 56.4999 171.122 56.0727 171.66C55.6456 172.199 55.2693 172.768 54.8321 173.314C54.3948 173.86 53.988 174.407 53.5609 174.953C53.1337 175.499 52.5744 175.974 52.1473 176.52C51.7201 177.066 51.3337 177.628 50.9168 178.174C50.4998 178.72 50.1642 179.305 49.7472 179.859C49.3303 180.413 48.7913 180.904 48.3845 181.458C47.9777 182.012 47.5608 182.558 47.154 183.112C46.7472 183.666 46.493 184.275 46.0964 184.813C45.6997 185.352 45.1506 185.85 44.754 186.396C44.3574 186.942 43.9201 187.481 43.5336 188.034C43.1472 188.588 42.8421 189.182 42.4658 189.736C42.0692 190.322 41.6014 190.884 41.2251 191.477C40.8488 192.071 40.6556 192.743 40.2997 193.337C39.9437 193.93 39.6081 194.548 39.2725 195.157C38.9369 195.767 38.5098 196.344 38.2047 196.962C37.8996 197.579 37.5844 198.196 37.2996 198.821C37.0149 199.447 36.6691 200.056 36.4251 200.689C36.181 201.322 36.1403 202.003 35.9267 202.644C35.7132 203.285 35.3369 203.894 35.164 204.543C34.9911 205.192 34.9911 205.857 34.8589 206.522C34.7267 207.186 34.5233 207.812 34.4216 208.484C34.3301 209.141 34.2589 209.798 34.2081 210.463C34.1572 211.128 34.1979 211.785 34.1877 212.441C34.1776 213.098 34.1369 213.763 34.1674 214.42C34.1979 215.077 34.2691 215.742 34.3505 216.398C34.4318 217.055 34.4928 217.72 34.625 218.369C34.7572 219.018 35.0522 219.651 35.2352 220.292C35.4183 220.933 35.6217 221.574 35.8556 222.207C36.0895 222.84 36.2623 223.489 36.5471 224.115C36.8318 224.74 37.0047 225.397 37.3505 225.998C37.6963 226.6 38.2149 227.146 38.6115 227.731C39.0081 228.317 39.5166 228.839 39.9742 229.401C40.4217 229.947 40.8793 230.485 41.3878 231C41.8963 231.514 42.2726 232.116 42.8217 232.598C43.3709 233.081 44.0929 233.445 44.6929 233.896C45.293 234.347 45.8218 234.854 46.4726 235.265C47.1235 235.677 47.8455 236.009 48.5269 236.381C49.2083 236.753 49.8998 237.109 50.6117 237.442C51.3235 237.774 52.0659 238.067 52.8083 238.36C53.5507 238.653 54.3134 238.914 55.0761 239.167C55.8388 239.42 56.6016 239.697 57.3846 239.903C58.1677 240.109 58.9507 240.362 59.7541 240.52C60.5575 240.679 61.4118 240.671 62.2355 240.782C63.0593 240.892 63.8627 241.027 64.6966 241.098C65.5305 241.169 66.3542 241.169 67.1881 241.185C68.022 241.201 68.8458 241.241 69.6797 241.201C70.5136 241.161 71.3577 241.13 72.1916 241.043C72.2729 241.692 72.4763 242.349 72.5679 242.997C72.6594 243.646 72.5272 244.311 72.6085 244.968C72.6899 245.625 72.8831 246.258 72.9645 246.907C73.0458 247.556 73.0865 248.213 73.1679 248.862C73.2492 249.511 73.4018 250.16 73.4831 250.809C73.5645 251.458 73.6357 252.107 73.717 252.763C73.7984 253.42 73.8391 254.069 73.9306 254.718C74.0221 255.367 74.0323 256.024 74.1136 256.673C74.195 257.322 74.3577 257.971 74.4391 258.62C74.5306 259.3 74.6119 259.941 74.7848 260.535C74.9679 261.208 75.2831 261.801 75.5577 262.363C75.873 263.004 76.2391 263.566 76.656 264.081C77.1238 264.642 77.6832 265.101 78.273 265.521C78.8934 265.964 79.5239 266.344 80.2561 266.645C80.9883 266.945 81.69 267.301 82.4934 267.484C83.2968 267.666 84.1002 267.737 84.9443 267.824C85.7375 267.903 86.5714 267.982 87.4155 267.998C88.2596 268.014 89.0528 267.935 89.8969 267.903C90.741 267.871 91.5342 267.784 92.3681 267.721C93.202 267.658 94.0054 267.578 94.8291 267.499C95.6529 267.42 96.4563 267.246 97.2698 267.159C98.0834 267.072 98.9275 267.04 99.7309 266.953C100.534 266.866 101.389 266.819 102.192 266.74C102.995 266.66 103.789 266.471 104.592 266.399C105.395 266.328 106.209 266.304 107.022 266.241C107.836 266.178 108.65 266.209 109.453 266.154C110.256 266.099 111.07 266.019 111.873 265.972C112.677 265.924 113.49 265.893 114.304 265.853C115.118 265.814 115.921 265.711 116.734 265.679C117.548 265.647 118.362 265.64 119.165 265.608C119.968 265.576 120.782 265.529 121.596 265.513C122.409 265.497 123.223 265.505 124.026 265.489C124.829 265.473 125.653 265.568 126.467 265.56C127.28 265.553 128.084 265.489 128.897 265.481C129.711 265.473 130.524 265.418 131.328 265.418C132.131 265.418 132.955 265.521 133.758 265.521C134.562 265.521 135.386 265.394 136.189 265.402C136.992 265.41 137.816 265.418 138.619 265.418C139.423 265.418 140.247 265.41 141.05 265.418C141.853 265.426 142.667 265.592 143.481 265.6C144.294 265.608 145.108 265.632 145.911 265.647C146.714 265.663 147.538 265.497 148.352 265.513C149.165 265.529 149.969 265.584 150.782 265.6C151.596 265.616 152.409 265.6 153.213 265.616C154.016 265.632 154.84 265.6 155.643 265.616C156.447 265.632 157.26 265.782 158.074 265.798C158.888 265.814 159.701 265.671 160.515 265.687C161.328 265.703 162.132 265.774 162.945 265.782C163.759 265.79 164.572 265.822 165.376 265.829C166.179 265.837 167.003 265.885 167.806 265.893C168.61 265.901 169.433 265.909 170.237 265.909C171.04 265.909 171.864 265.814 172.667 265.814C173.471 265.814 174.294 265.806 175.098 265.798C175.901 265.79 176.725 265.814 177.528 265.806C178.332 265.798 179.156 265.829 179.959 265.814C180.762 265.798 181.576 265.766 182.389 265.75C183.203 265.735 184.006 265.663 184.82 265.64C185.634 265.616 186.437 265.552 187.251 265.521C188.064 265.489 188.878 265.608 189.691 265.568C190.393 265.537 191.095 265.394 191.786 265.275C192.478 265.157 193.108 264.959 193.657 264.611C194.451 264.104 194.949 263.455 195.173 262.672C195.396 261.888 195.366 261.105 195.366 260.337C195.366 259.704 195.295 259.071 195.295 258.438C195.295 257.805 195.417 257.172 195.417 256.538C195.417 255.905 195.305 255.272 195.305 254.639C195.305 254.006 195.569 253.373 195.569 252.74C195.569 252.107 195.549 251.473 195.549 250.84C195.549 250.207 195.285 249.574 195.285 248.941C195.285 248.308 195.417 247.675 195.417 247.042C195.417 246.408 195.386 245.775 195.376 245.142C195.366 244.509 195.254 243.876 195.254 243.243C195.254 242.61 195.508 241.969 195.498 241.336C195.488 240.702 195.447 240.069 195.437 239.436C195.427 238.803 195.437 238.17 195.427 237.529C195.417 236.888 195.122 236.263 195.102 235.63C195.081 234.996 195.091 234.363 195.071 233.73C195.051 233.097 195.02 232.464 195 231.831C194.979 231.198 195 230.565 194.979 229.924C194.959 229.282 195.081 228.649 195.051 228.016C195.02 227.383 194.766 226.758 194.735 226.125C194.705 225.492 194.776 224.851 194.735 224.217C194.695 223.584 194.644 222.951 194.593 222.318C194.542 221.685 194.41 221.052 194.359 220.419C194.308 219.786 194.308 219.137 194.257 218.504C194.735 217.973 195.254 217.443 195.691 216.897C196.129 216.351 196.596 215.805 196.983 215.227C197.369 214.649 197.776 214.08 198.112 213.486C198.447 212.892 198.681 212.267 198.966 211.658C199.251 211.049 199.515 210.431 199.749 209.814C199.983 209.197 200.125 208.556 200.298 207.922C200.471 207.297 200.624 206.68 200.746 206.055C200.868 205.43 200.98 204.796 201.051 204.163C201.122 203.53 201.091 202.897 201.122 202.256C201.152 201.615 201.163 200.99 201.152 200.357C201.142 199.724 201.112 199.09 201.071 198.457C201.03 197.824 201.051 197.183 200.98 196.55C200.908 195.917 200.858 195.284 200.756 194.651C200.654 194.018 200.502 193.392 200.38 192.767L200.471 192.728Z" fill="white"/>
</mask>
<g mask="url(#mask0_1582_9172)">
<path d="M139.554 202.365C140.33 203.141 141.068 203.935 141.881 204.665C142.693 205.394 143.45 206.179 144.226 206.946C144.568 207.287 145.195 207.315 145.528 206.946C145.86 206.576 145.897 206.004 145.528 205.644C144.752 204.877 143.995 204.092 143.183 203.363C142.37 202.633 141.632 201.839 140.856 201.063C140.514 200.722 139.887 200.694 139.554 201.063C139.222 201.433 139.185 202.005 139.554 202.365Z" fill="#E8C4C4"/>
<path d="M160.918 204.203C160.586 204.729 160.161 205.2 159.828 205.727C159.496 206.253 159.238 206.872 158.924 207.426C158.61 207.98 158.167 208.506 157.807 209.051C157.41 209.66 157.04 210.279 156.662 210.888C156.403 211.313 156.569 211.904 156.994 212.153C157.419 212.403 157.991 212.246 158.259 211.821C158.628 211.221 158.998 210.621 159.376 210.03C159.755 209.439 160.189 208.94 160.53 208.349C160.844 207.804 161.075 207.223 161.407 206.696C161.74 206.17 162.183 205.671 162.534 205.126C162.801 204.702 162.626 204.111 162.201 203.861C161.758 203.603 161.204 203.769 160.936 204.194L160.918 204.203Z" fill="#E8C4C4"/>
<path d="M102.043 241.148C103.778 242.773 105.477 244.426 107.213 246.051C107.564 246.384 108.173 246.43 108.515 246.051C108.856 245.673 108.893 245.1 108.515 244.75C106.779 243.124 105.071 241.471 103.345 239.846C102.994 239.514 102.384 239.468 102.043 239.846C101.701 240.225 101.664 240.797 102.043 241.148Z" fill="#E8C4C4"/>
<path d="M133.064 248.12C132.593 249.247 132.039 250.327 131.559 251.444C131.328 251.989 131.042 252.497 130.774 253.023C130.488 253.587 130.202 254.15 129.869 254.685C129.602 255.11 129.777 255.701 130.202 255.95C130.645 256.209 131.199 256.043 131.467 255.618C131.799 255.082 132.085 254.519 132.371 253.956C132.658 253.393 132.962 252.848 133.202 252.266C133.729 251.038 134.329 249.847 134.837 248.609C135.03 248.148 134.633 247.594 134.19 247.474C133.655 247.326 133.249 247.658 133.055 248.12H133.064Z" fill="#E8C4C4"/>
<path d="M79.4237 212.892C80.1346 213.723 80.9378 214.471 81.6579 215.284C82.3781 216.097 83.1997 216.844 84.0399 217.537C84.4092 217.842 84.9816 217.934 85.3417 217.537C85.6556 217.195 85.7387 216.558 85.3417 216.235C84.5015 215.552 83.6798 214.795 82.9597 213.982C82.2396 213.169 81.4364 212.412 80.7255 211.59C80.4116 211.221 79.7376 211.239 79.4237 211.59C79.0636 211.978 79.0821 212.504 79.4237 212.892Z" fill="#E8C4C4"/>
<path d="M56.7857 237.196C56.3149 237.695 55.8994 238.23 55.4655 238.757C54.9669 239.357 54.4684 239.957 54.0252 240.603C53.6559 241.139 53.4159 241.739 53.0927 242.303C52.7419 242.903 52.3265 243.475 52.0033 244.094C51.7725 244.537 51.8925 245.1 52.3357 245.359C52.7511 245.599 53.3697 245.47 53.6005 245.027C53.9052 244.436 54.2837 243.9 54.6346 243.337C54.9854 242.773 55.207 242.173 55.567 241.638C55.9271 241.102 56.361 240.576 56.7765 240.068C57.1919 239.56 57.6259 238.997 58.0967 238.507C58.4383 238.147 58.4568 237.556 58.0967 237.205C57.7366 236.854 57.1365 236.845 56.7949 237.205L56.7857 237.196Z" fill="#E8C4C4"/>
<path d="M121.856 153.231C122.308 153.73 122.714 154.256 123.167 154.755C123.619 155.254 123.951 155.789 124.441 156.316C124.865 156.768 125.392 157.119 125.835 157.553C126.343 158.061 126.841 158.587 127.33 159.113C127.663 159.464 128.309 159.474 128.632 159.113C128.983 158.735 128.983 158.19 128.632 157.811C128.152 157.294 127.663 156.787 127.174 156.288C126.721 155.835 126.186 155.475 125.742 155.014C125.281 154.524 124.976 154.016 124.505 153.499C124.035 152.982 123.628 152.447 123.157 151.939C122.834 151.579 122.179 151.579 121.856 151.939C121.505 152.317 121.505 152.862 121.856 153.241V153.231Z" fill="#E8C4C4"/>
<path d="M158.73 161.274C158.73 161.274 158.638 161.394 158.693 161.32C158.656 161.376 158.61 161.422 158.564 161.477C158.471 161.597 158.37 161.708 158.277 161.819C158.093 162.031 157.908 162.244 157.724 162.465C157.327 162.946 156.994 163.444 156.68 163.971C156.062 165.033 155.369 165.827 154.64 166.805C154.354 167.193 154.566 167.849 154.972 168.071C155.452 168.329 155.923 168.154 156.237 167.738C156.893 166.861 157.677 165.919 158.277 164.903C158.554 164.432 158.831 164.008 159.127 163.657C159.533 163.176 159.949 162.706 160.327 162.198C160.622 161.81 160.401 161.145 159.995 160.933C159.505 160.674 159.044 160.85 158.73 161.265V161.274Z" fill="#E8C4C4"/>
<path d="M80.1343 154.155C80.5313 154.617 81.0114 154.995 81.473 155.392C81.9347 155.789 82.4055 156.26 82.8856 156.685C83.3657 157.11 83.855 157.488 84.3258 157.904C84.8521 158.356 85.3691 158.827 85.9415 159.206C86.3477 159.474 86.9848 159.298 87.2064 158.874C87.4556 158.412 87.3079 157.895 86.874 157.608C86.597 157.424 86.5139 157.359 86.2647 157.147C86.0154 156.934 85.7846 156.731 85.5445 156.519C85.0644 156.103 84.5659 155.715 84.095 155.3C83.6242 154.884 83.2272 154.469 82.7656 154.072C82.304 153.675 81.8239 153.296 81.4269 152.834C81.113 152.465 80.439 152.484 80.1251 152.834C79.765 153.222 79.7835 153.749 80.1251 154.136L80.1343 154.155Z" fill="#E8C4C4"/>
<path d="M135.363 218.996C135.898 219.393 136.443 219.79 136.951 220.224C137.458 220.658 137.874 221.175 138.382 221.591C138.889 222.006 139.434 222.348 139.896 222.773C140.376 223.225 140.782 223.751 141.244 224.213C141.595 224.564 142.195 224.564 142.545 224.213C142.896 223.862 142.906 223.262 142.545 222.911C142.075 222.449 141.678 221.923 141.198 221.471C140.717 221.018 140.071 220.612 139.6 220.224C139.093 219.799 138.677 219.282 138.169 218.857C137.56 218.349 136.923 217.879 136.295 217.408C135.898 217.112 135.261 217.343 135.03 217.74C134.753 218.211 134.956 218.71 135.363 219.005V218.996Z" fill="#E8C4C4"/>
</g>
<path d="M68.3207 116.359C68.6069 116.997 69.0962 117.541 69.4102 118.169C69.7241 118.788 70.038 119.416 70.3796 120.016C70.7212 120.616 70.9243 121.318 71.3028 121.909C71.6813 122.5 72.1522 123.026 72.5676 123.58C72.9831 124.134 73.5463 124.578 74.0171 125.095C74.5249 125.658 74.885 126.351 75.4204 126.868C75.9559 127.385 76.6668 127.745 77.2392 128.216C77.8116 128.687 78.2917 129.324 78.9011 129.749C79.5104 130.173 80.2028 130.515 80.8491 130.894C81.4954 131.272 82.1601 131.642 82.8341 131.956C83.5173 132.279 84.2005 132.602 84.9021 132.861C85.6038 133.119 86.3239 133.368 87.044 133.572C87.7642 133.775 88.4935 133.978 89.2321 134.116C89.9615 134.255 90.7185 134.347 91.4756 134.43C92.2326 134.513 92.9805 134.384 93.7375 134.403C94.4946 134.421 95.2332 134.44 95.9902 134.393C96.7473 134.347 97.4674 134.218 98.2245 134.107C98.9538 134.006 99.7109 134.033 100.422 133.886C101.133 133.738 101.844 133.488 102.545 133.285C103.247 133.082 103.921 132.777 104.613 132.519C105.306 132.26 105.961 131.946 106.626 131.642C107.291 131.337 108.029 131.171 108.685 130.829C109.34 130.487 109.903 130.007 110.541 129.629C111.178 129.25 111.768 128.825 112.378 128.419C112.987 128.013 113.578 127.579 114.169 127.145C114.76 126.711 115.415 126.351 115.988 125.898C116.56 125.446 117.096 124.938 117.649 124.458C118.213 123.977 118.757 123.46 119.284 122.943C119.81 122.426 120.364 121.918 120.844 121.346C121.324 120.773 121.804 120.201 122.219 119.582C122.672 118.899 122.93 118.105 123.29 117.366C123.651 116.627 124.14 115.953 124.435 115.187C124.731 114.42 125.008 113.645 125.257 112.869C125.506 112.093 125.58 111.253 125.802 110.468C126.014 109.739 126.199 109 126.374 108.27C126.549 107.541 126.836 106.821 126.993 106.082C127.15 105.343 127.307 104.595 127.427 103.847C127.547 103.099 127.63 102.342 127.713 101.585C127.796 100.828 127.981 100.08 128.017 99.3227C128.054 98.5655 127.851 97.7991 127.851 97.0419C127.851 96.2847 127.971 95.5276 127.925 94.7611C127.879 93.9947 127.888 93.2375 127.796 92.4803C127.704 91.7232 127.473 90.9937 127.325 90.2457C127.177 89.4978 126.891 88.796 126.679 88.0573C126.476 87.3278 126.42 86.5429 126.162 85.8411C125.903 85.1393 125.608 84.4191 125.294 83.745C124.98 83.0709 124.629 82.3784 124.26 81.7227C123.891 81.0671 123.447 80.4392 123.023 79.8113C122.598 79.1834 122.09 78.6201 121.619 78.0292C121.149 77.4382 120.659 76.8657 120.142 76.3116C119.625 75.7576 119.154 75.1574 118.61 74.6403C118.065 74.1232 117.483 73.6245 116.902 73.1536C116.32 72.6827 115.729 72.1933 115.111 71.7593C114.492 71.3253 113.827 70.9651 113.172 70.5773C112.516 70.1895 111.833 69.8848 111.159 69.5339C110.485 69.183 109.848 68.7767 109.156 68.4812C108.463 68.1857 107.697 68.0749 106.986 67.8164C106.275 67.5578 105.592 67.2531 104.863 67.0407C104.133 66.8283 103.432 66.5421 102.693 66.3851C101.954 66.2281 101.188 66.2096 100.44 66.0896C99.6924 65.9696 98.9538 65.8126 98.206 65.7479C97.4582 65.6833 96.7011 65.6648 95.9441 65.6464C95.187 65.6279 94.4392 65.6833 93.6821 65.7202C92.9251 65.7572 92.168 65.6556 91.411 65.7295C90.6539 65.8033 89.9245 65.9696 89.1675 66.0896C88.4289 66.2096 87.7457 66.4959 87.044 66.6621C86.3424 66.8283 85.5761 66.9022 84.8929 67.1238C84.2097 67.3454 83.508 67.6317 82.8341 67.9179C82.1601 68.2042 81.4492 68.4535 80.8029 68.7859C80.1567 69.1183 79.6027 69.6447 78.9842 70.0325C78.3656 70.4203 77.6732 70.7066 77.0823 71.1406C76.4914 71.5746 76.0206 72.1656 75.4666 72.6365C74.9127 73.1074 74.3126 73.5414 73.7863 74.0493C73.2601 74.5572 72.6692 75.0004 72.1614 75.5452C71.6536 76.09 71.2382 76.6902 70.7673 77.2535C70.2965 77.8168 69.8718 78.4077 69.4286 78.9987C68.9855 79.5897 68.5608 80.1807 68.1453 80.7809C67.7299 81.3811 67.259 81.9444 66.8528 82.563C66.4465 83.1817 66.0957 83.8189 65.708 84.4468C65.3202 85.0747 64.9601 85.8042 64.6924 86.5337C64.4247 87.2631 64.2769 88.0111 64.12 88.7775C63.963 89.5439 63.9538 90.3011 63.8892 91.0768C63.8245 91.8524 63.7045 92.6096 63.6953 93.3853C63.6861 94.1609 63.8153 94.9273 63.8522 95.6938C63.8892 96.4602 63.7599 97.2635 63.8245 98.0207C63.8892 98.7779 63.9446 99.5905 64.0277 100.329C64.1015 101.022 64.36 101.687 64.4524 102.37C64.5447 103.053 64.5816 103.746 64.7109 104.429C64.8401 105.112 65.0248 105.777 65.1725 106.451C65.3202 107.125 65.5418 107.781 65.7172 108.455C65.8926 109.129 65.9942 109.813 66.2065 110.477C66.4189 111.142 66.6589 111.789 66.8989 112.435C67.139 113.081 67.3698 113.737 67.6283 114.383C67.8868 115.03 68.0345 115.722 68.3207 116.35V116.359Z" fill="#EBBEA7"/>
<path d="M137.444 105.602C137.176 106.073 136.862 106.534 136.539 106.968C136.124 107.522 135.477 107.938 134.868 108.418C134.314 108.861 133.778 109.406 133.114 109.766C132.477 110.108 131.775 110.385 131.073 110.634C130.372 110.884 129.615 110.884 128.904 111.013C128.193 111.142 127.445 111.401 126.734 111.391C125.977 111.382 125.229 111.262 124.546 111.059C123.826 110.847 123.115 110.551 122.543 110.089C121.97 109.628 121.666 108.963 121.315 108.261C121.01 107.661 120.715 106.996 120.595 106.193C120.502 105.537 120.548 104.798 120.521 104.023C120.493 103.33 120.419 102.61 120.447 101.862C120.475 101.16 120.558 100.44 120.632 99.7012C120.705 98.9625 120.853 98.2792 120.982 97.5682C121.112 96.8572 121.093 96.1092 121.269 95.4074C121.444 94.7057 121.776 94.0408 122.007 93.3667C122.238 92.6926 122.367 91.9262 122.663 91.2891C122.977 90.615 123.503 90.0794 123.891 89.4884C124.306 88.8698 124.601 88.168 125.1 87.6786C125.626 87.1522 126.3 86.8475 126.928 86.5059C127.574 86.1457 128.211 85.7302 128.931 85.5732C129.652 85.4163 130.409 85.4532 131.147 85.4994C131.877 85.5455 132.634 85.6379 133.326 85.8964C134.065 86.1734 134.683 86.6906 135.302 87.1707C135.92 87.6509 136.465 88.1957 136.954 88.8144C137.444 89.433 137.933 90.0517 138.265 90.7627C138.598 91.4738 138.921 92.2032 139.115 92.9697C139.309 93.7361 139.364 94.5302 139.438 95.3059C139.512 96.0815 139.613 96.8849 139.586 97.6605C139.558 98.3438 139.272 99.0179 139.179 99.7012C139.087 100.385 139.032 101.068 138.856 101.733C138.681 102.398 138.487 103.062 138.229 103.7C137.97 104.337 137.785 105.02 137.444 105.62V105.602Z" fill="#EBBEA7"/>
<path d="M132.948 94.2348C132.311 94.6042 131.71 95.0382 131.073 95.4076C130.436 95.7769 129.781 96.0262 129.162 96.3679C128.544 96.7095 127.971 97.162 127.362 97.5314C126.688 97.9377 126.014 98.3255 125.34 98.7133C124.712 99.0734 124.435 99.9784 124.842 100.606C125.248 101.234 126.06 101.493 126.734 101.105C127.408 100.717 128.091 100.32 128.756 99.923C129.365 99.5536 129.929 99.1104 130.556 98.7595C131.184 98.4086 131.849 98.15 132.467 97.7992C133.086 97.4483 133.705 96.9958 134.342 96.6264C134.979 96.2571 135.246 95.3614 134.84 94.7335C134.434 94.1056 133.612 93.847 132.948 94.2348Z" fill="#A55535"/>
<path d="M84.4404 105.039C83.4248 104.706 82.1231 105.112 81.4306 105.907C80.969 106.424 80.7382 107.098 80.7844 107.79C80.8213 108.317 80.9321 108.852 81.0429 109.369C81.246 110.385 81.6614 111.401 82.4831 112.075C83.3879 112.823 84.4958 113.22 85.6775 113.22C86.3977 113.22 87.0993 112.583 87.0624 111.835C87.0255 111.087 86.4531 110.45 85.6775 110.45C85.5852 110.45 85.4929 110.45 85.4098 110.45C85.3544 110.45 85.2898 110.45 85.2344 110.431L85.4283 110.459C85.2713 110.394 85.0774 110.385 84.9112 110.339C84.8282 110.311 84.7451 110.274 84.662 110.247C84.9943 110.339 84.7912 110.302 84.6804 110.247C84.6066 110.21 84.5327 110.163 84.4589 110.126C84.4035 110.09 84.3204 109.997 84.2557 109.988L84.4127 110.108C84.4127 110.108 84.3296 110.043 84.2927 110.006C84.2281 109.951 84.1819 109.886 84.1173 109.831C83.9326 109.646 84.2557 110.071 84.1173 109.831C84.0803 109.766 84.0434 109.711 84.0065 109.646C83.9788 109.6 83.8772 109.323 83.9418 109.536C84.0065 109.748 83.9141 109.462 83.9049 109.415C83.8495 109.249 83.8034 109.083 83.7664 108.908C83.6926 108.594 83.6372 108.27 83.5725 107.947C83.5541 107.864 83.5449 107.781 83.5264 107.698C83.6095 108.077 83.5449 107.846 83.5449 107.726C83.5449 107.679 83.5449 107.643 83.5449 107.596C83.5449 107.486 83.5449 107.541 83.5172 107.763C83.5541 107.67 83.6556 107.439 83.4802 107.781C83.5449 107.679 83.5356 107.679 83.4525 107.8C83.3694 107.901 83.3602 107.92 83.4248 107.836L83.471 107.79C83.5725 107.698 83.5356 107.726 83.351 107.873C83.4156 107.846 83.471 107.79 83.5356 107.753L83.6002 107.716C83.7295 107.652 83.6833 107.67 83.471 107.772C83.5356 107.772 83.6279 107.726 83.6833 107.707C83.9049 107.633 83.4064 107.707 83.5633 107.716C83.6279 107.716 83.711 107.716 83.7757 107.716C83.8865 107.716 83.8218 107.716 83.5725 107.689C83.6187 107.698 83.6556 107.707 83.7018 107.726C84.3942 107.956 85.2436 107.467 85.4098 106.756C85.5852 105.99 85.179 105.297 84.4404 105.048V105.039Z" fill="#2B2927"/>
<path d="M78.5409 97.9191C76.9714 98.0207 75.5127 98.4547 74.1371 99.2211C72.7614 99.9875 71.8936 101.068 71.1181 102.351C70.7488 102.97 70.9611 103.903 71.6166 104.244C72.2906 104.595 73.1123 104.411 73.5093 103.746C73.657 103.506 73.8047 103.266 73.9616 103.035C74.0355 102.924 74.1094 102.785 74.2109 102.693C74.1371 102.767 74.0909 102.85 74.1924 102.721C74.2386 102.665 74.2848 102.61 74.3309 102.564C74.4879 102.388 74.7187 102.074 74.9403 101.982C74.8479 102.019 74.7926 102.093 74.9218 102.001C74.9864 101.964 75.0418 101.917 75.1065 101.88C75.2449 101.788 75.3834 101.705 75.5311 101.622C75.7897 101.474 76.0574 101.345 76.3251 101.225C76.3528 101.216 76.5836 101.123 76.4175 101.188C76.2513 101.253 76.4821 101.16 76.5098 101.151C76.6483 101.096 76.796 101.04 76.9437 100.994C77.2391 100.902 77.5346 100.828 77.83 100.772C77.9039 100.763 77.9777 100.745 78.0608 100.735C78.2639 100.699 77.83 100.754 78.0331 100.735C78.2085 100.717 78.3747 100.699 78.5501 100.689C79.2703 100.643 79.9719 100.089 79.935 99.3042C79.9073 98.5932 79.3257 97.8637 78.5501 97.9191H78.5409Z" fill="#2B2927"/>
<path d="M92.6852 97.1342C92.8421 97.0603 92.8698 97.0511 92.7775 97.0973C92.8514 97.0696 92.916 97.0419 92.9898 97.0142C93.156 96.9495 93.3222 96.8941 93.4884 96.8479C93.7746 96.7556 94.07 96.6817 94.3655 96.5986C94.7071 96.5063 95.0487 96.4047 95.3995 96.3124C95.5472 96.2754 95.6949 96.2385 95.8427 96.2016C95.9442 96.1831 96.0458 96.1646 96.1381 96.1462C96.0458 96.1646 96.0458 96.1646 96.1473 96.1462C96.8028 96.0815 97.4768 96.0446 98.1415 96.0908C98.1969 96.0908 98.6308 96.1369 98.4554 96.1185C98.6031 96.1369 98.7601 96.1646 98.9078 96.1923C99.2587 96.257 99.6095 96.3401 99.9511 96.4232C100.653 96.5986 101.484 96.2016 101.659 95.4536C101.834 94.7057 101.447 93.9392 100.69 93.7453C99.1294 93.3575 97.5968 93.2098 95.9904 93.3852C95.1779 93.4683 94.4116 93.7084 93.6269 93.9208C92.8421 94.1332 92.0481 94.4009 91.2819 94.7426C90.6171 95.0381 90.414 96.0538 90.7833 96.6356C91.2265 97.3189 91.9651 97.4482 92.6759 97.1342H92.6852Z" fill="#2B2927"/>
<path d="M93.1466 122.057C91.2355 122.075 89.2413 121.743 87.6533 120.635C87.2379 120.339 86.8132 120.053 86.4162 119.739C86.2408 119.601 86.0838 119.434 85.9176 119.296C85.6407 119.065 85.9176 119.268 85.7976 119.554C85.7238 119.73 85.5576 119.758 85.7699 119.684C85.9453 119.619 85.8438 119.628 86.0654 119.564C86.6008 119.407 87.164 119.314 87.7087 119.204C89.906 118.76 92.0941 118.142 94.3376 118.059C94.8915 118.04 95.4455 117.985 95.9994 117.957C96.2856 117.939 96.5903 117.92 96.8857 117.957C97.015 117.966 97.0334 117.957 96.9873 117.957C97.015 117.957 97.3843 118.105 97.2273 118.022C97.3012 118.059 97.3196 118.132 97.3104 118.068C97.2735 117.929 97.3935 118.252 97.3289 118.095C97.2643 117.939 97.4951 118.465 97.3843 118.188C97.5412 118.585 97.5043 118.963 97.3843 119.379C97.1535 120.21 96.8211 121.18 96.064 121.604C95.6301 121.854 95.1408 121.974 94.6607 122.075C94.1529 122.177 93.6544 122.075 93.1374 122.075C91.3555 122.038 91.3555 124.809 93.1374 124.846C93.8575 124.864 94.5038 124.919 95.2239 124.79C95.944 124.661 96.6549 124.43 97.3104 124.098C98.6122 123.433 99.2308 122.278 99.757 120.976C100.283 119.675 100.496 118.216 99.8216 116.895C99.1477 115.575 97.7443 115.168 96.341 115.196C94.8361 115.224 93.2389 115.261 91.7617 115.547C90.3123 115.833 88.8628 116.156 87.4133 116.461C86.1392 116.729 84.5882 116.849 83.6557 117.883C82.5016 119.157 83.2495 120.727 84.4035 121.678C85.5853 122.657 86.8686 123.599 88.3273 124.098C89.8783 124.624 91.5125 124.864 93.1466 124.846C94.9285 124.827 94.9285 122.057 93.1466 122.075V122.057Z" fill="#A55535"/>
<path d="M96.6612 109.03C97.6445 108.779 98.1302 107.354 97.746 105.847C97.3619 104.34 96.2534 103.321 95.2702 103.572C94.2869 103.823 93.8013 105.248 94.1854 106.755C94.5695 108.262 95.678 109.281 96.6612 109.03Z" fill="#2B2927"/>
<path d="M78.3484 113.697C79.3316 113.446 79.8173 112.021 79.4332 110.514C79.049 109.006 77.9406 107.988 76.9573 108.238C75.9741 108.489 75.4884 109.914 75.8725 111.421C76.2566 112.929 77.3651 113.947 78.3484 113.697Z" fill="#2B2927"/>
<path d="M121.453 89.4332C120.456 89.4239 119.45 89.1469 118.527 88.8052C117.917 88.5744 117.308 88.3528 116.745 88.0296C116.182 87.7064 115.72 87.2355 115.203 86.8476C114.686 86.4598 114.067 86.2013 113.578 85.7673C113.089 85.3333 112.738 84.927 112.267 84.4837C111.935 85.2132 111.519 85.8134 111.011 86.4136C110.504 87.0138 109.931 87.5956 109.285 88.0665C108.639 88.5375 107.872 88.7868 107.152 89.1192C106.432 89.4516 105.721 89.7933 104.955 89.9964C104.189 90.1996 103.404 90.3381 102.61 90.4027C101.816 90.4674 101.013 90.4674 100.237 90.4027C99.4617 90.3381 98.6585 90.1996 97.883 90.0241C97.1074 89.8487 96.3134 89.7194 95.5564 89.4609C94.7993 89.2023 94.1069 88.8145 93.3775 88.4821C92.6482 88.1496 92.0019 87.6879 91.3003 87.3186C90.5986 86.9492 89.7861 86.7738 89.1029 86.3675C88.4197 85.9612 87.8473 85.5087 87.1826 85.084C87.1549 85.8688 87.0349 86.5891 86.7487 87.3001C86.4625 88.0111 86.047 88.7037 85.5669 89.3223C85.0868 89.941 84.4221 90.3566 83.8035 90.8275C83.185 91.2984 82.5849 91.7971 81.874 92.1018C81.1631 92.4065 80.3876 92.5173 79.6213 92.6189C78.855 92.7205 78.0795 92.7389 77.3132 92.6558C76.5469 92.5727 75.7991 92.388 75.0605 92.148C74.3219 91.9079 73.5463 91.7417 72.8631 91.3723C72.1799 91.0029 71.506 90.5782 70.8966 90.0888C70.2873 89.5994 69.7518 88.9345 69.2348 88.362C69.2071 89.1654 69.2163 90.0334 69.0779 90.8275C68.9394 91.6216 68.5978 92.3603 68.367 93.136C68.1362 93.9116 67.97 94.6965 67.6376 95.426C67.3052 96.1555 66.8621 96.8296 66.4374 97.5129C66.0866 98.0669 65.708 98.6487 65.2279 99.1288C64.7479 99.609 64.157 99.9876 63.5661 100.246C62.9475 100.523 62.2828 100.754 61.5996 100.597C60.8056 100.412 60.2701 99.8306 59.8178 99.1935C59.3931 98.6025 59.0515 97.9007 58.8668 97.1158C58.6822 96.3309 58.7283 95.5645 58.7191 94.8166C58.7099 94.0686 58.5714 93.3299 58.6175 92.6097C58.6637 91.8894 58.8576 91.1414 58.9499 90.4212C59.0422 89.7009 59.1438 88.953 59.2915 88.242C59.4392 87.531 59.4115 86.7461 59.6054 86.0443C59.7993 85.3425 60.2517 84.6961 60.5102 84.0128C60.7687 83.3295 60.8795 82.5631 61.1934 81.9075C61.5073 81.2518 61.8304 80.5593 62.1997 79.9314C62.569 79.3035 63.0953 78.7494 63.52 78.1492C63.9446 77.549 64.3509 76.9303 64.8217 76.3671C65.2926 75.8038 65.8465 75.3052 66.3635 74.7788C66.8805 74.2525 67.3699 73.7077 67.933 73.2183C68.4962 72.7289 69.1056 72.3318 69.6964 71.8886C70.2873 71.4453 70.8136 70.919 71.4321 70.5127C72.0507 70.1064 72.7616 69.8756 73.4079 69.5062C74.0541 69.1368 74.6727 68.7767 75.3374 68.4443C76.0022 68.1119 76.6207 67.7148 77.3039 67.4286C77.9871 67.1423 78.7257 67.0223 79.4181 66.7729C80.1106 66.5236 80.7384 66.0896 81.4493 65.868C82.1602 65.6464 82.9172 65.6464 83.6374 65.4617C84.3575 65.277 85.0407 65.0093 85.77 64.8615C86.5179 64.7045 87.2749 64.5753 88.0412 64.446C88.8075 64.3167 89.5738 64.3259 90.3401 64.2244C91.1064 64.1228 91.845 63.8273 92.6113 63.7534C93.3775 63.6796 94.1531 63.6519 94.9193 63.6149C95.6856 63.578 96.4612 63.6149 97.2275 63.6149C98.003 63.6149 98.76 63.7442 99.5263 63.7904C100.293 63.8365 101.077 63.7627 101.834 63.8458C102.591 63.9289 103.376 64.012 104.124 64.1597C104.872 64.3075 105.638 64.4829 106.386 64.6768C107.134 64.8708 107.817 65.2678 108.537 65.5264C109.257 65.7849 110.024 65.9696 110.716 66.2928C111.362 66.5975 111.935 67.05 112.553 67.4101C113.172 67.7702 113.864 68.0195 114.455 68.4258C115.046 68.8321 115.6 69.3031 116.172 69.7371C116.745 70.1711 117.326 70.5958 117.88 71.0575C118.434 71.5192 118.951 72.0086 119.496 72.4796C120.041 72.9505 120.632 73.366 121.176 73.837C121.721 74.3079 122.173 74.8804 122.718 75.3421C123.263 75.8038 123.826 76.2655 124.38 76.7087C124.934 77.152 125.442 77.6413 125.894 78.2046C126.346 78.7679 126.651 79.405 126.965 80.0422C127.279 80.6793 127.657 81.3165 127.805 82.009C127.953 82.7016 127.851 83.4311 127.768 84.1421C127.685 84.8531 127.565 85.5364 127.214 86.1828C126.9 86.7738 126.448 87.3278 125.876 87.8449C125.275 88.3805 124.583 88.7683 123.826 89.0176C123.069 89.2669 122.284 89.4239 121.49 89.4147L121.453 89.4332Z" fill="#494542"/>
<path d="M115.941 117.661C115.858 118.382 115.785 119.093 115.775 119.813C115.766 120.533 115.831 121.253 115.895 121.964C115.96 122.675 115.895 123.414 116.006 124.125C116.117 124.836 116.265 125.547 116.412 126.249C116.56 126.951 116.699 127.662 116.855 128.364C117.012 129.065 117.308 129.739 117.465 130.432C117.622 131.125 117.686 131.854 117.843 132.556C118 133.258 118.24 133.941 118.37 134.652C118.499 135.363 118.443 136.092 118.536 136.803C118.591 137.21 118.757 137.634 118.536 137.976C118.351 138.262 118 138.382 117.686 138.512C116.994 138.798 116.311 139.112 115.591 139.334C114.87 139.555 114.141 139.721 113.412 139.897C112.682 140.072 111.972 140.34 111.242 140.479C110.513 140.617 109.756 140.7 109.017 140.82C108.279 140.94 107.531 141.033 106.792 141.153C105.537 141.347 105.537 141.347 104.281 141.54C103.025 141.734 103.007 141.642 101.751 141.836C100.496 142.03 100.486 142.011 99.2308 142.205C98.1322 142.381 97.172 141.688 97.0981 140.58C97.052 139.832 96.9319 139.093 96.8119 138.355C96.6919 137.616 96.5811 136.877 96.3965 136.148C96.2118 135.418 95.8794 134.744 95.6209 134.042C95.3624 133.341 95.2609 132.574 94.947 131.9C94.6331 131.226 94.2084 130.598 93.8299 129.952C93.4513 129.305 93.0636 128.668 92.6296 128.059" fill="#EBBEA7"/>
<path d="M78.0609 202.291C77.0915 202.919 77.0084 202.79 76.0298 203.427C75.0512 204.064 75.005 203.981 74.0356 204.609C73.0662 205.237 73.1124 205.32 72.143 205.948C71.1736 206.575 71.229 206.668 70.2596 207.296C69.2901 207.924 69.1794 207.757 68.21 208.395C67.5637 208.813 66.9143 209.232 66.2619 209.65C65.6095 210.069 64.9602 210.488 64.3139 210.906C63.3352 211.534 63.3629 211.571 62.3843 212.208C61.4057 212.836 61.4518 212.901 60.4732 213.538C59.8177 213.963 59.0606 214.083 58.359 213.935C57.6573 213.787 57.0757 213.316 56.6602 212.661C56.2663 212.051 55.8724 211.442 55.4785 210.832C54.8876 209.918 54.9153 209.9 54.3244 208.986C53.7336 208.071 53.6782 208.108 53.0873 207.194C52.4964 206.28 52.441 206.317 51.8501 205.403C51.2593 204.489 51.3424 204.433 50.7423 203.519C50.1421 202.605 49.9944 202.706 49.4036 201.792C48.8127 200.878 48.8865 200.832 48.2864 199.918C47.6863 199.004 47.7879 198.948 47.1878 198.025C46.5877 197.101 46.4861 197.175 45.8952 196.261C45.3044 195.347 45.3598 195.31 44.7689 194.387C44.178 193.463 44.1596 193.482 43.5594 192.568C42.9593 191.653 42.9224 191.681 42.3315 190.767C41.7407 189.853 41.8607 189.77 41.2698 188.855C40.6789 187.941 40.6235 187.978 40.0327 187.055C39.4418 186.131 39.3218 186.215 38.7309 185.291C38.14 184.368 38.26 184.294 37.6692 183.38C37.0783 182.466 37.0598 182.475 36.469 181.551C35.8781 180.628 35.9427 180.591 35.3426 179.668C34.7425 178.744 34.604 178.846 34.0039 177.922C33.5792 177.267 33.6069 176.482 33.7546 175.78C33.9024 175.078 34.207 174.33 34.8533 173.915C35.8227 173.287 35.8689 173.361 36.8475 172.733C37.8261 172.105 37.8815 172.197 38.8602 171.569C39.8388 170.942 39.7926 170.877 40.762 170.249C41.7314 169.621 41.713 169.593 42.6916 168.965C43.661 168.338 43.661 168.328 44.6304 167.7C45.5998 167.072 45.646 167.137 46.6154 166.509C47.5848 165.881 47.5663 165.854 48.5449 165.216C49.5236 164.579 49.5328 164.598 50.5022 163.97C51.4716 163.342 51.4531 163.296 52.4226 162.668C53.0781 162.243 53.8628 162.04 54.5645 162.188C55.2661 162.335 55.9124 162.853 56.3279 163.499C56.9187 164.413 57.0111 164.358 57.6019 165.272C58.1928 166.186 58.0359 166.288 58.6267 167.202C59.2176 168.116 59.1991 168.125 59.79 169.039C60.3809 169.954 60.5286 169.861 61.1195 170.775C61.7103 171.689 61.6457 171.736 62.2366 172.65C62.8275 173.564 62.8644 173.546 63.4553 174.46C64.0461 175.374 64.0831 175.355 64.674 176.27C65.2648 177.184 65.1817 177.239 65.7726 178.153C66.3635 179.067 66.3912 179.058 66.9821 179.972C67.5729 180.887 67.5637 180.896 68.1546 181.81C68.7454 182.724 68.6808 182.77 69.2717 183.684C69.8626 184.599 69.8903 184.58 70.4811 185.494C71.072 186.408 71.0166 186.445 71.6075 187.36C72.1984 188.274 72.2722 188.228 72.8631 189.142C73.454 190.056 73.5555 189.991 74.1464 190.915C74.7373 191.838 74.5711 191.94 75.162 192.854C75.7528 193.768 75.8082 193.731 76.4083 194.654C77.0084 195.578 77.0454 195.541 77.6455 196.464C78.2456 197.388 78.1348 197.452 78.7257 198.366C79.1504 199.022 79.2427 199.705 79.095 200.407C78.9472 201.109 78.6887 201.875 78.0332 202.3L78.0609 202.291Z" fill="#9AAA72"/>
<path d="M42.0175 177.516C42.4884 178.246 42.3037 179.086 41.5743 179.557C40.845 180.028 39.8848 179.926 39.414 179.197C38.9431 178.467 39.2293 177.525 39.9587 177.054C40.688 176.584 41.5467 176.787 42.0175 177.516Z" fill="#494542"/>
<path d="M46.2091 174.811C46.5691 175.374 46.4399 175.983 45.8767 176.343C45.3135 176.704 44.5842 176.648 44.2241 176.094C43.864 175.54 44.0949 174.82 44.658 174.46C45.2212 174.1 45.849 174.257 46.2091 174.811Z" fill="#494542"/>
<path d="M63.8617 175.669C63.5939 175.845 63.5939 175.826 63.3262 176.002C62.5599 176.5 61.5628 176.399 61.0735 175.632C60.3903 174.57 60.4641 174.524 59.7809 173.462C59.0978 172.4 59.1624 172.364 58.4792 171.302C57.9806 170.535 58.0637 169.529 58.83 169.03C59.0977 168.855 59.1254 168.91 59.3932 168.735C60.1595 168.236 61.212 168.439 61.7105 169.205C62.3937 170.267 62.3753 170.277 63.0585 171.339C63.7416 172.4 63.7324 172.4 64.4156 173.462C64.9142 174.229 64.6372 175.171 63.8617 175.66V175.669Z" fill="#9AAA72"/>
<path d="M40.7992 186.436C40.5314 186.612 40.5314 186.593 40.2637 186.769C39.4974 187.267 38.5003 187.166 38.011 186.399C37.5401 185.67 37.614 185.624 37.1431 184.894C36.6723 184.165 36.7369 184.128 36.266 183.398C35.7675 182.632 35.8506 181.625 36.6169 181.127C36.8846 180.951 36.9123 181.007 37.1801 180.831C37.9463 180.332 38.9988 180.536 39.4974 181.302C39.9682 182.032 39.9498 182.041 40.4206 182.77C40.8915 183.5 40.8822 183.509 41.3531 184.229C41.8516 184.996 41.5747 185.938 40.7992 186.427V186.436Z" fill="#9AAA72"/>
<path d="M46.1816 194.784C45.9139 194.959 45.9139 194.941 45.6461 195.116C44.8798 195.615 43.8827 195.513 43.3934 194.747C42.5348 193.426 42.6087 193.371 41.7593 192.05C41.2607 191.284 41.51 190.388 42.2763 189.899C42.544 189.723 42.4425 189.576 42.7102 189.4C43.4765 188.902 44.5382 189.179 45.0276 189.945C45.8862 191.266 45.9139 191.247 46.7633 192.577C47.2618 193.343 46.9571 194.304 46.1908 194.793L46.1816 194.784Z" fill="#9AAA72"/>
<path d="M72.0505 207.24C71.5243 207.517 70.9427 207.702 70.3795 207.914C69.8163 208.127 69.2531 208.339 68.69 208.533C69.4378 208.33 70.1856 208.053 70.9611 207.924C71.7366 207.794 72.5399 207.85 73.3154 207.961C74.0817 208.071 74.8203 208.413 75.4296 208.884C76.0389 209.355 76.5006 210.001 76.6575 210.777C76.8145 211.562 76.7498 212.356 76.3713 213.067C75.9928 213.778 75.3927 214.323 74.7926 214.803C74.1832 215.283 73.5739 215.754 72.9369 216.151C72.2998 216.548 71.6351 216.945 71.0165 217.388C70.3979 217.832 69.7055 218.201 69.1977 218.801C68.7084 219.365 68.3299 220.029 67.9421 220.667C67.5544 221.304 67.2589 221.996 66.8527 222.624C66.4465 223.252 65.9664 223.797 65.4217 224.323C64.877 224.85 64.2215 225.274 63.566 225.69C62.9105 226.105 62.2273 226.429 61.5071 226.696C60.787 226.964 60.0577 227.186 59.2914 227.324C58.5251 227.463 57.7773 227.731 57.0017 227.731C56.2262 227.731 55.4692 227.472 54.7121 227.343C53.955 227.213 53.1703 227.149 52.4409 226.881C51.7208 226.613 51.093 226.216 50.456 225.884C49.782 225.533 49.0619 225.293 48.471 224.877C47.8801 224.462 47.2985 223.945 46.7722 223.437C46.246 222.929 45.7567 222.338 45.3135 221.756C44.8704 221.174 44.4641 220.537 44.1133 219.882C43.7625 219.226 43.5594 218.515 43.3008 217.822C43.0423 217.13 42.8854 216.419 42.7192 215.699C42.553 214.978 42.2576 214.286 42.1745 213.547C42.0914 212.808 42.036 212.07 42.036 211.331C42.036 210.592 42.2207 209.863 42.2853 209.124C42.3499 208.385 42.4792 207.674 42.6177 206.945C42.7561 206.215 42.9131 205.514 43.107 204.793C43.3008 204.073 43.467 203.371 43.7163 202.669C43.9656 201.968 44.1318 201.247 44.4364 200.573C44.7411 199.899 45.0642 199.234 45.4243 198.579C45.7844 197.923 46.1721 197.295 46.5784 196.677C46.9846 196.058 47.3539 195.402 47.8063 194.821C48.2586 194.239 48.8588 193.768 49.3573 193.223C49.8559 192.678 50.4375 192.217 50.9914 191.736C51.5454 191.256 52.0716 190.721 52.6717 190.305C53.2718 189.89 53.8904 189.456 54.5367 189.105C55.183 188.754 55.8938 188.523 56.577 188.255C57.2602 187.987 57.9711 187.803 58.6913 187.627C59.4114 187.452 60.1223 187.341 60.8609 187.267C61.5995 187.193 62.3196 187.036 63.0674 187.073C63.7322 187.101 64.4338 187.276 64.8585 187.794C65.2555 188.283 65.2001 188.846 64.9416 189.428C64.7016 189.954 64.3877 190.555 63.9353 190.896C63.4829 191.238 62.8181 191.432 62.3658 191.81C61.9134 192.189 61.5718 192.623 61.4148 193.223C62.1534 192.817 62.8828 192.531 63.6768 192.254C64.4707 191.977 65.3109 191.856 66.1418 191.718C66.9727 191.579 67.8036 191.533 68.6438 191.524C69.2808 191.524 69.9456 191.496 70.5918 191.663C71.2381 191.829 71.8197 192.161 72.3183 192.54C72.8445 192.946 73.3154 193.399 73.4539 194.073C73.6385 194.913 73.3892 195.67 72.9184 196.326C72.4845 196.926 71.7828 197.341 71.0811 197.785C70.3795 198.228 69.724 198.653 69.0223 198.93C69.6594 198.828 70.3149 198.773 70.9796 198.745C71.6443 198.717 72.3183 198.745 72.9369 198.893C73.5554 199.041 74.2571 199.234 74.7372 199.724C75.2542 200.241 75.4204 200.98 75.5127 201.681C75.605 202.383 75.6327 203.103 75.4019 203.787C75.1711 204.47 74.7279 205.052 74.2571 205.56C73.6293 206.252 72.8999 206.816 72.0782 207.25L72.0505 207.24Z" fill="#EBBEA7"/>
<path d="M63.8059 214.452C63.9813 214.203 64.1291 213.944 64.286 213.676C64.3599 213.547 64.443 213.418 64.526 213.289C64.5537 213.252 64.6922 213.095 64.563 213.224C64.4153 213.372 64.6184 213.169 64.6461 213.132C64.8676 212.892 65.1169 212.661 65.3662 212.448C65.4955 212.338 65.6247 212.227 65.754 212.125C65.7817 212.107 65.9663 211.959 65.837 212.061C65.6893 212.181 65.9663 211.968 65.9663 211.968C66.4741 211.608 67.065 211.414 67.6189 211.137C67.9143 210.989 68.2005 210.832 68.496 210.675C68.6437 210.602 68.7914 210.528 68.9484 210.454C69.1053 210.38 69.0038 210.398 68.9207 210.454C68.9945 210.398 69.1515 210.371 69.2346 210.343C69.9178 210.112 70.444 209.383 70.204 208.635C69.9824 207.951 69.2346 207.416 68.496 207.665C67.7574 207.914 67.0373 208.321 66.3171 208.69C65.6986 209.004 65.0338 209.207 64.4799 209.632C63.8521 210.094 63.2243 210.592 62.6888 211.174C62.1533 211.756 61.8487 212.421 61.4147 213.049C60.9808 213.676 61.2855 214.609 61.9133 214.942C62.6149 215.311 63.372 215.08 63.8059 214.443V214.452Z" fill="#A55535"/>
<path d="M58.7281 207.97C59.1251 207.416 59.9098 206.76 60.4638 206.197C61.1008 205.541 61.5994 205.107 62.3933 204.692C63.1873 204.276 63.9167 203.898 64.683 203.51C64.8307 203.436 64.8769 203.418 65.0892 203.344C65.3385 203.261 65.5878 203.177 65.837 203.104C66.3079 202.956 66.788 202.836 67.268 202.753C68.0066 202.623 68.4221 201.718 68.2374 201.044C68.0251 200.269 67.2773 199.946 66.5295 200.075C64.4799 200.435 62.6703 201.414 60.8515 202.383C59.956 202.854 59.1989 203.528 58.4973 204.239C57.7494 204.997 56.9555 205.708 56.3369 206.576C55.903 207.185 56.2261 208.118 56.8354 208.469C57.5279 208.875 58.2942 208.579 58.7281 207.97Z" fill="#A55535"/>
<path d="M53.5949 203.131C53.4841 203.279 53.641 203.085 53.678 203.039C53.7426 202.974 53.798 202.9 53.8626 202.836C54.0011 202.688 54.1488 202.54 54.2965 202.392C54.5827 202.106 54.8597 201.811 55.109 201.497C55.2105 201.368 55.3029 201.238 55.4044 201.109C55.4229 201.081 55.626 200.813 55.5337 200.934C55.4506 201.035 55.6168 200.832 55.626 200.813C55.6906 200.73 55.7645 200.647 55.8384 200.564C55.8937 200.5 55.9584 200.435 56.023 200.379C56.0415 200.361 56.3 200.139 56.1892 200.222C56.1061 200.287 56.3092 200.139 56.3277 200.13C56.42 200.066 56.5215 200.001 56.6139 199.936C58.0911 198.994 59.4759 197.896 61.0824 197.185C61.7471 196.889 61.9502 195.873 61.5809 195.292C61.1377 194.608 60.3992 194.479 59.6883 194.793C58.8389 195.171 58.008 195.661 57.2324 196.178C56.4569 196.695 55.7368 197.194 54.9797 197.702C54.5827 197.969 54.195 198.256 53.8718 198.607C53.7241 198.764 53.5949 198.939 53.4564 199.105C53.3548 199.234 53.2625 199.364 53.161 199.493C52.9117 199.825 53.244 199.391 53.0963 199.576C52.4962 200.324 51.7669 200.952 51.1852 201.728C50.7421 202.309 51.0744 203.307 51.6838 203.621C52.4131 204.008 53.1056 203.741 53.5764 203.122L53.5949 203.131Z" fill="#A55535"/>
<path d="M113.772 171.154C113.181 170.748 112.571 170.36 111.944 169.99C111.316 169.621 110.707 169.252 110.06 168.919C109.414 168.587 108.759 168.291 108.103 167.987C107.448 167.682 106.82 167.313 106.146 167.045C105.472 166.777 104.77 166.602 104.087 166.361C103.404 166.121 102.721 165.891 102.028 165.678C101.336 165.466 100.634 165.281 99.9416 165.106C99.2491 164.93 98.529 164.792 97.8273 164.644C97.1257 164.496 96.3963 164.404 95.6854 164.293C94.9745 164.182 94.2452 164.145 93.5343 164.062C92.8234 163.979 92.094 163.914 91.3831 163.868C90.6722 163.822 89.9429 163.684 89.2228 163.674C88.4934 163.665 87.7733 163.656 87.0624 163.684C86.4161 163.711 85.7144 163.73 84.9943 163.785C84.2742 163.841 83.591 163.868 82.9263 163.998C82.2154 164.136 81.5137 164.321 80.9228 164.598C80.332 164.875 79.9165 165.41 79.538 165.891C79.1317 166.408 78.7255 166.98 78.7901 167.608C78.8548 168.338 79.3625 169.002 79.9719 169.473C80.5351 169.907 81.2829 170.194 81.9938 170.351C82.7139 170.498 83.4156 170.48 84.0988 170.443C84.782 170.406 85.4836 170.194 86.1761 170.11C86.8685 170.027 87.5702 170.212 88.281 170.24C89.0843 170.277 89.9244 170.24 90.6999 170.517C91.4662 170.785 92.2141 171.172 92.9065 171.588C93.5989 172.003 94.1806 172.539 94.7807 173.019C94.0882 173.038 93.4789 173.112 92.8049 173.287C92.131 173.462 91.5216 173.841 90.9215 174.173C90.3214 174.506 89.749 174.912 89.2781 175.42C88.7519 175.983 88.4103 176.519 88.2164 177.119C88.0225 177.719 87.9394 178.393 87.8102 179.104C87.4224 181.237 87.764 180.139 86.1945 181.718C85.6129 182.309 85.0682 182.973 84.6712 183.666C84.2465 184.395 83.9603 185.236 83.9418 186.03C83.9234 186.787 84.3203 187.498 84.8281 188.283C85.1513 188.791 85.4375 189.345 85.4467 189.927C85.4467 190.462 85.1236 190.933 84.8743 191.423C84.4865 192.198 84.4404 193.029 84.5696 193.851C84.6989 194.673 84.9205 195.467 85.3728 196.196C85.8252 196.926 86.5084 197.406 87.1178 197.96C87.6255 198.413 88.1056 198.911 88.6873 199.281C89.2689 199.65 89.8229 200.075 90.4507 200.361C91.0785 200.647 91.7801 200.73 92.4449 200.924C93.1096 201.118 93.7743 201.22 94.4575 201.321C95.1407 201.423 95.8147 201.497 96.4979 201.497C97.1811 201.497 97.8827 201.534 98.5567 201.432C99.2399 201.331 99.9231 201.211 100.606 201.34C101.105 201.432 101.539 201.663 101.982 201.894C102.619 202.217 103.33 202.485 103.995 202.873C104.659 203.261 105.223 203.731 105.887 204.101C106.552 204.47 107.235 204.775 107.918 205.07C108.602 205.366 109.368 205.486 110.088 205.643C110.808 205.8 111.556 206.077 112.304 206.021C113.052 205.966 113.726 205.671 114.455 205.347C115.11 205.052 115.747 204.673 116.403 204.313C117.058 203.953 117.686 203.593 118.296 203.177C118.905 202.762 119.542 202.374 120.105 201.903C120.668 201.432 121.148 200.841 121.628 200.306C122.109 199.77 122.552 199.151 122.939 198.542C123.327 197.932 123.715 197.277 123.955 196.584C124.25 195.735 124.352 194.848 124.454 193.962C124.555 193.075 124.749 192.18 124.74 191.293C124.74 190.555 124.601 189.807 124.537 189.068C124.472 188.329 124.537 187.563 124.417 186.833C124.297 186.104 123.974 185.402 123.789 184.682C123.604 183.961 123.475 183.223 123.216 182.521C122.958 181.819 122.533 181.201 122.201 180.536C121.869 179.871 121.684 179.132 121.268 178.504C120.89 177.922 120.401 177.396 119.957 176.842C119.514 176.288 119.043 175.789 118.545 175.272C118.046 174.755 117.575 174.266 117.049 173.786C116.523 173.305 115.987 172.871 115.424 172.437C114.861 172.003 114.316 171.579 113.726 171.182L113.772 171.154Z" fill="#EBBEA7"/>
<path d="M91.3741 181.588C92.1681 181.358 92.9713 181.154 93.7837 180.979C94.5962 180.803 95.4271 180.757 96.2488 180.637C96.9412 180.536 97.6891 180.296 98.3353 180.259C99.1662 180.203 99.9972 180.36 100.828 180.379C101.576 180.397 102.213 179.732 102.213 178.994C102.213 178.255 101.576 177.627 100.828 177.609C99.9418 177.581 99.0462 177.424 98.1599 177.498C97.3198 177.572 96.5165 177.812 95.6856 177.941C94.8547 178.07 94.0423 178.116 93.239 178.273C92.362 178.44 91.4941 178.67 90.6355 178.92C89.9154 179.132 89.4722 179.889 89.6661 180.628C89.86 181.367 90.654 181.81 91.3741 181.598V181.588Z" fill="#A55535"/>
<path d="M89.4999 190.453C90.2108 190.259 90.9402 190.194 91.6603 190.065C92.3805 189.936 93.0637 189.834 93.793 189.742C94.5778 189.65 95.3533 189.557 96.138 189.52C96.9228 189.483 97.7168 189.373 98.5015 189.391C99.2494 189.419 99.8864 188.735 99.8864 188.006C99.8864 187.239 99.2494 186.649 98.5015 186.621C97.6522 186.593 96.8028 186.713 95.9534 186.75C95.1686 186.787 94.3839 186.898 93.6084 186.99C92.7682 187.092 91.9281 187.203 91.0879 187.36C90.3124 187.507 89.5184 187.572 88.7614 187.775C88.0412 187.969 87.5981 188.763 87.792 189.483C87.9858 190.204 88.7706 190.647 89.4999 190.453Z" fill="#A55535"/>
<path d="M94.0974 198.108C94.6514 198.376 95.1776 198.68 95.6854 199.031C96.1932 199.382 96.6733 199.678 97.1441 200.038L96.8671 199.825C97.0241 199.946 97.1718 200.075 97.3103 200.223C97.8181 200.74 98.769 200.767 99.2676 200.223C99.7661 199.678 99.803 198.819 99.2676 198.265C98.7321 197.711 98.0119 197.305 97.3657 196.843C96.7656 196.427 96.1562 196.04 95.4915 195.716C95.1499 195.55 94.7991 195.476 94.4205 195.578C94.0974 195.67 93.7466 195.91 93.5896 196.215C93.4234 196.538 93.3311 196.926 93.4511 197.286C93.5527 197.609 93.765 197.96 94.0882 198.117L94.0974 198.108Z" fill="#A55535"/>
<path d="M98.0584 174.497C98.6677 174.423 99.2586 174.294 99.8587 174.183C99.9603 174.164 100.219 174.127 99.9695 174.155C100.117 174.137 100.256 174.127 100.403 174.127C100.68 174.118 100.957 174.127 101.234 174.127C102.342 174.146 103.45 174.063 104.567 174.09C105.287 174.109 105.989 173.444 105.952 172.705C105.915 171.967 105.343 171.339 104.567 171.32C103.459 171.292 102.351 171.376 101.234 171.357C100.607 171.348 99.988 171.376 99.3601 171.477C99.1201 171.514 98.8801 171.569 98.6492 171.616C98.5292 171.643 98.4092 171.671 98.2892 171.69C98.2246 171.699 97.7168 171.773 98.0584 171.736C97.3382 171.819 96.6366 172.308 96.6735 173.121C96.7012 173.795 97.2921 174.598 98.0584 174.506V174.497Z" fill="#A55535"/>
<path d="M131.489 188.228C132.809 188.698 134.129 189.142 135.468 189.53C136.807 189.917 138.182 190.176 139.53 190.564C140.878 190.952 142.328 190.942 143.722 191.136C145.19 191.339 146.593 191.718 148.08 191.727C149.566 191.736 150.905 191.626 152.326 191.533C153.831 191.432 155.29 191.053 156.749 190.693C157.413 190.527 158.087 190.342 158.771 190.241C159.454 190.139 160.165 190.148 160.857 190.13C161.55 190.111 162.214 190.056 162.898 190.093C163.581 190.13 164.282 190.305 164.966 190.434C165.741 190.582 166.544 190.601 167.311 190.758C168.077 190.915 168.852 191.136 169.6 191.358C170.348 191.579 171.087 191.875 171.834 192.133C172.647 192.411 173.496 192.577 174.318 192.845C175.029 193.075 175.832 192.577 176.026 191.875C176.229 191.118 175.767 190.407 175.057 190.167C174.346 189.927 173.672 189.797 172.979 189.585C172.296 189.373 171.631 189.096 170.948 188.865C169.536 188.394 168.077 188.034 166.6 187.877C165.123 187.72 163.793 187.295 162.344 187.304C160.894 187.313 159.362 187.332 157.912 187.581C156.463 187.83 155.068 188.264 153.647 188.56C152.317 188.837 150.905 188.892 149.557 188.939C148.883 188.957 148.209 188.966 147.535 188.939C146.824 188.92 146.187 188.708 145.494 188.588C144.802 188.468 144.165 188.412 143.5 188.311C142.706 188.181 141.903 188.218 141.109 188.098C140.407 187.987 139.724 187.71 139.041 187.526C138.302 187.332 137.536 187.212 136.798 187.018C135.246 186.612 133.723 186.085 132.209 185.55C131.507 185.3 130.695 185.836 130.501 186.519C130.289 187.286 130.76 187.969 131.47 188.228H131.489Z" fill="#BF9887"/>
<path d="M116.68 217.13C117.52 217.786 118.434 218.303 119.219 219.023C120.077 219.826 121.038 220.482 121.989 221.165C122.903 221.821 123.78 222.532 124.703 223.178C125.626 223.825 126.568 224.443 127.519 225.044C128.47 225.644 129.411 226.115 130.335 226.715C131.313 227.352 132.329 227.897 133.344 228.469C134.295 229.005 135.246 229.485 136.142 230.131C137.037 230.778 138.081 231.323 139.087 231.766C139.595 231.997 140.121 232.144 140.638 232.348C141.118 232.532 141.57 232.782 142.032 233.003C142.54 233.243 143.038 233.465 143.509 233.77C143.98 234.074 144.396 234.342 144.894 234.555C145.873 234.979 146.888 235.238 147.839 235.727C148.864 236.254 149.953 236.568 151.015 236.983C152.077 237.399 153.028 237.897 154.099 238.23C154.597 238.387 155.087 238.553 155.594 238.691C156.13 238.839 156.693 238.885 157.238 239.005C158.272 239.227 159.149 239.836 160.192 240.021C161.291 240.215 162.38 240.363 163.479 240.584C164.688 240.834 166.009 241.101 167.246 241.101C167.837 241.101 168.427 240.991 169.018 240.972C169.692 240.954 170.376 241 171.049 240.972C173.616 240.889 176.164 240.538 178.611 239.698C179.322 239.458 179.783 238.747 179.58 237.99C179.396 237.306 178.583 236.78 177.872 237.02C176.857 237.371 175.795 237.602 174.742 237.833C173.69 238.063 172.748 238.11 171.705 238.156C170.569 238.211 169.415 238.128 168.28 238.248C167.227 238.359 166.276 238.239 165.233 238.082C164.19 237.925 163.091 237.629 162.011 237.491C161.051 237.362 160.229 237.195 159.343 236.808C158.3 236.355 157.219 236.291 156.139 235.967C155.161 235.672 154.163 235.395 153.24 234.961C152.188 234.462 151.089 234.139 150.018 233.705C149.086 233.336 148.245 232.791 147.295 232.468C146.879 232.329 146.436 232.218 146.03 232.043C145.54 231.83 145.116 231.489 144.663 231.221C143.703 230.649 142.604 230.159 141.57 229.753C141.192 229.605 140.786 229.494 140.407 229.337C139.853 229.106 139.318 228.765 138.782 228.479C137.85 227.971 137.037 227.297 136.105 226.798C135.172 226.299 134.184 225.764 133.234 225.237C132.283 224.711 131.378 224.028 130.408 223.483C128.303 222.31 126.282 221.008 124.389 219.522C123.438 218.783 122.385 218.155 121.49 217.342C121.01 216.908 120.539 216.465 120.013 216.077C119.579 215.754 119.08 215.505 118.656 215.172C118.065 214.711 117.271 214.6 116.698 215.172C116.218 215.653 116.107 216.668 116.698 217.13H116.68Z" fill="#BF9887"/>
<path d="M145.344 26C145.344 14.9543 154.298 6 165.344 6H266.344C277.389 6 286.344 14.9543 286.344 26V68C286.344 79.0457 277.389 88 266.344 88H145.344V26Z" fill="url(#paint0_linear_1582_9172)"/>
<path d="M166.622 30.016C167.678 30.608 168.478 31.6 168.478 32.784C168.478 34.752 166.99 36.192 164.238 36.192C161.47 36.192 159.998 34.752 159.998 32.544H162.43C162.43 33.264 162.766 33.888 164.238 33.888C165.71 33.888 166.158 33.264 166.158 32.544C166.158 31.808 165.726 31.072 164.27 31.072H163.47V28.992H164.302C165.47 28.992 165.982 28.32 165.982 27.68C165.982 27.072 165.614 26.56 164.35 26.56C163.07 26.56 162.814 27.072 162.814 27.68H160.382C160.382 25.6 161.822 24.256 164.35 24.256C166.814 24.256 168.286 25.6 168.286 27.44C168.286 28.528 167.598 29.44 166.622 30.016ZM174.391 33.776C175.927 33.776 176.695 32.832 176.695 30.208C176.695 27.568 175.927 26.64 174.391 26.64C172.839 26.64 172.071 27.568 172.071 30.208C172.071 32.832 172.839 33.776 174.391 33.776ZM169.639 30.208C169.639 26.528 171.527 24.208 174.391 24.208C177.191 24.208 179.127 26.464 179.127 30.208C179.127 33.856 177.255 36.208 174.391 36.208C171.511 36.208 169.639 33.856 169.639 30.208ZM180.119 33.856H185.447V31.312H187.959V33.856H193.287V35.888H180.119V33.856ZM180.359 29.824C183.863 29.472 185.159 27.936 185.383 26.64H181.191V24.656H185.447V22.992H187.959V24.656H192.215V26.64H188.023C188.247 27.936 189.543 29.472 193.047 29.824L192.151 31.808C189.447 31.504 187.687 30.48 186.711 29.136C185.719 30.48 183.959 31.504 181.255 31.808L180.359 29.824ZM194.424 24.016H201.496V31.216H194.424V24.016ZM196.072 37.232V32.416H198.6V35.248H206.088V37.232H196.072ZM196.888 29.248H199.032V25.984H196.888V29.248ZM203.144 33.472V22.896H205.64V26.96H207.448V29.008H205.64V33.472H203.144ZM218.28 22.88H220.648V37.44H218.28V22.88ZM208.152 29.216C208.152 25.824 209.4 23.792 211.336 23.792C213.064 23.792 214.232 25.376 214.488 28.08H215.256V23.072H217.592V36.832H215.256V30.08H214.504C214.312 32.944 213.112 34.624 211.336 34.624C209.4 34.624 208.152 32.608 208.152 29.216ZM210.424 29.216C210.424 31.376 210.728 32.256 211.336 32.256C211.96 32.256 212.264 31.376 212.264 29.216C212.264 27.056 211.96 26.176 211.336 26.176C210.728 26.176 210.424 27.056 210.424 29.216ZM160.286 44.048H167.95V45.44H165.006V45.616C165.006 47.36 166.126 49.008 168.334 49.696L167.502 51.04C165.918 50.544 164.798 49.52 164.19 48.24C163.566 49.744 162.382 50.928 160.686 51.504L159.822 50.144C162.078 49.376 163.278 47.536 163.278 45.616V45.44H160.286V44.048ZM161.726 54.56C161.726 52.864 163.566 51.856 166.478 51.856C169.422 51.856 171.23 52.864 171.23 54.56C171.23 56.272 169.422 57.264 166.478 57.264C163.566 57.264 161.726 56.272 161.726 54.56ZM163.422 54.56C163.422 55.456 164.542 55.936 166.478 55.936C168.43 55.936 169.534 55.456 169.534 54.56C169.534 53.68 168.43 53.216 166.478 53.216C164.542 53.216 163.422 53.68 163.422 54.56ZM169.358 51.552V43.056H171.07V46.48H173.054V47.888H171.07V51.552H169.358ZM183.967 43.056H185.695V57.28H183.967V43.056ZM174.015 53.408C177.727 51.616 179.439 49.184 179.727 45.92H174.735V44.544H181.487C181.487 48.8 179.855 52.384 174.927 54.768L174.015 53.408ZM187.919 54.144H190.895V50.496C189.775 49.84 189.103 48.848 189.103 47.584C189.103 45.296 191.311 43.824 194.351 43.824C197.407 43.824 199.599 45.296 199.599 47.584C199.599 48.832 198.927 49.84 197.823 50.496V54.144H200.799V55.536H187.919V54.144ZM190.783 47.584C190.783 49.072 192.239 49.984 194.351 49.984C196.447 49.984 197.919 49.072 197.919 47.584C197.919 46.096 196.447 45.184 194.351 45.184C192.239 45.184 190.783 46.096 190.783 47.584ZM192.607 54.144H196.095V51.136C195.551 51.248 194.975 51.312 194.351 51.312C193.727 51.312 193.151 51.248 192.607 51.136V54.144ZM205.871 43.856C208.047 43.856 209.679 45.264 209.679 47.264C209.679 49.264 208.047 50.672 205.871 50.672C203.695 50.672 202.079 49.264 202.079 47.264C202.079 45.264 203.695 43.856 205.871 43.856ZM203.695 54.528C203.695 52.784 205.519 51.76 208.447 51.76C211.359 51.76 213.183 52.784 213.183 54.528C213.183 56.256 211.359 57.264 208.447 57.264C205.519 57.264 203.695 56.256 203.695 54.528ZM203.759 47.264C203.759 48.48 204.655 49.232 205.871 49.232C207.087 49.232 207.999 48.48 207.999 47.264C207.999 46.064 207.087 45.312 205.871 45.312C204.655 45.312 203.759 46.064 203.759 47.264ZM205.391 54.528C205.391 55.424 206.495 55.92 208.447 55.92C210.383 55.92 211.487 55.424 211.487 54.528C211.487 53.616 210.383 53.136 208.447 53.136C206.495 53.136 205.391 53.616 205.391 54.528ZM211.311 51.408V43.056H213.039V44.96H214.959V46.368H213.039V48.032H214.959V49.44H213.039V51.408H211.311ZM229.591 43.072H231.319V53.344H229.591V43.072ZM219.831 47.568C219.831 45.472 221.479 44 223.623 44C225.783 44 227.415 45.472 227.415 47.568C227.415 49.632 225.783 51.12 223.623 51.12C221.479 51.12 219.831 49.632 219.831 47.568ZM221.511 47.568C221.511 48.816 222.423 49.616 223.623 49.616C224.823 49.616 225.751 48.816 225.751 47.568C225.751 46.288 224.823 45.488 223.623 45.488C222.423 45.488 221.511 46.288 221.511 47.568ZM222.007 57.008V52.32H223.719V55.616H231.719V57.008H222.007ZM241.192 46.608H243.64V43.056H245.368V51.504H243.64V48.016H241.192V46.608ZM233.528 50.096C235.768 49.312 236.984 47.408 236.984 45.488V45.376H234.024V44H241.64V45.376H238.728V45.488C238.728 47.232 239.864 48.992 242.04 49.728L241.192 51.088C239.624 50.544 238.504 49.456 237.896 48.112C237.272 49.648 236.088 50.88 234.408 51.472L233.528 50.096ZM235.784 54.592C235.784 52.896 237.624 51.888 240.616 51.888C243.592 51.888 245.416 52.896 245.416 54.592C245.416 56.304 243.592 57.28 240.616 57.28C237.624 57.28 235.784 56.304 235.784 54.592ZM237.512 54.592C237.512 55.488 238.632 55.968 240.616 55.968C242.584 55.968 243.704 55.488 243.704 54.592C243.704 53.68 242.584 53.2 240.616 53.2C238.632 53.2 237.512 53.68 237.512 54.592ZM247.56 49.68H260.424V51.088H247.56V49.68ZM249.048 54.688C249.048 53.024 250.888 52.096 253.96 52.096C257 52.096 258.856 53.024 258.856 54.688C258.856 56.336 257 57.28 253.96 57.28C250.888 57.28 249.048 56.336 249.048 54.688ZM249.144 48.528V43.52H258.856V44.912H250.856V47.168H258.936V48.528H249.144ZM250.776 54.688C250.776 55.536 251.912 55.952 253.96 55.952C255.992 55.952 257.112 55.536 257.112 54.688C257.112 53.856 255.992 53.408 253.96 53.408C251.912 53.408 250.776 53.856 250.776 54.688ZM263.128 51.168H264.824V52.832H271.112V51.168H272.808V57.12H263.128V51.168ZM261.528 50.112V48.704H270.792C271.112 47.2 271.144 46.064 271.144 45.04H263.144V43.648H272.84V44.752C272.84 45.856 272.84 47.04 272.504 48.704H274.408V50.112H261.528ZM264.824 55.744H271.112V54.16H264.824V55.744ZM169.406 63.072H171.118V67.232H173.054V68.64H171.118V72.688H169.406V63.072ZM159.822 70.992C160.894 70.992 162.11 70.992 163.39 70.96V70.064C161.822 69.872 160.846 69.12 160.846 68C160.846 66.688 162.19 65.888 164.238 65.888C166.302 65.888 167.63 66.688 167.63 68C167.63 69.12 166.67 69.872 165.102 70.064V70.896C166.318 70.832 167.55 70.736 168.686 70.592L168.814 71.792C165.806 72.32 162.51 72.336 160.03 72.352L159.822 70.992ZM160.174 65.456V64.208H163.39V62.944H165.102V64.208H168.302V65.456H160.174ZM161.598 74.656V73.312H171.118V77.28H169.406V74.656H161.598ZM162.478 68C162.478 68.592 163.15 68.976 164.238 68.976C165.342 68.976 166.014 68.592 166.014 68C166.014 67.376 165.342 67.024 164.238 67.024C163.15 67.024 162.478 67.376 162.478 68ZM183.951 63.072H185.679V73.344H183.951V63.072ZM174.191 67.568C174.191 65.472 175.839 64 177.983 64C180.143 64 181.775 65.472 181.775 67.568C181.775 69.632 180.143 71.12 177.983 71.12C175.839 71.12 174.191 69.632 174.191 67.568ZM175.871 67.568C175.871 68.816 176.783 69.616 177.983 69.616C179.183 69.616 180.111 68.816 180.111 67.568C180.111 66.288 179.183 65.488 177.983 65.488C176.783 65.488 175.871 66.288 175.871 67.568ZM176.367 77.008V72.32H178.079V75.616H186.079V77.008H176.367ZM195.879 63.664C197.927 63.664 199.399 64.816 199.399 66.512C199.399 67.952 198.343 69.008 196.759 69.28V70.48C197.943 70.416 199.142 70.304 200.231 70.144L200.359 71.376C197.463 71.92 194.167 71.968 191.783 71.968L191.575 70.592C192.599 70.592 193.799 70.592 195.047 70.544V69.296C193.447 69.024 192.343 67.968 192.343 66.512C192.343 64.816 193.831 63.664 195.879 63.664ZM193.511 76.992V72.992H195.239V75.6H203.271V76.992H193.511ZM193.959 66.512C193.959 67.472 194.727 68.064 195.879 68.064C197.015 68.064 197.799 67.472 197.799 66.512C197.799 65.568 197.015 64.96 195.879 64.96C194.727 64.96 193.959 65.568 193.959 66.512ZM201.062 73.92V63.072H202.775V67.664H204.711V69.088H202.775V73.92H201.062ZM205.591 74.224H209.015V71.824H207.127V67.2H215.271V65.392H207.111V64.016H216.967V68.544H208.839V70.432H217.287V71.824H215.207V74.224H218.471V75.616H205.591V74.224ZM210.695 74.224H213.527V71.824H210.695V74.224ZM222.839 63.952L222.567 72.912H220.999L220.695 63.952H222.839ZM220.791 75.376C220.791 74.832 221.143 74.4 221.799 74.4C222.423 74.4 222.775 74.832 222.775 75.376C222.775 75.936 222.423 76.368 221.799 76.368C221.143 76.368 220.791 75.936 220.791 75.376Z" fill="white"/>
<defs>
<linearGradient id="paint0_linear_1582_9172" x1="185" y1="20.5208" x2="213.999" y2="93.1478" gradientUnits="userSpaceOnUse">
<stop stop-color="#FF8120"/>
<stop offset="1" stop-color="#E54304"/>
</linearGradient>
</defs>
</svg>
