<svg width="320" height="473" viewBox="0 0 320 473" fill="none" xmlns="http://www.w3.org/2000/svg">
<path d="M112.431 394.907C113.081 404.711 112.882 414.548 111.828 424.213C119.542 425.115 127.303 425.028 134.931 423.967C134.692 412.525 135.216 401.096 136.503 389.84" fill="#FFC2B8"/>
<path d="M129.923 422.813C128.443 422.806 126.944 422.879 125.492 422.647C119.19 421.626 118.182 415.629 112.968 413.984C110.222 413.115 107.204 414.416 105.048 416.286C100.624 420.12 99.6688 423.536 93.9046 425.553C88.4853 427.45 82.2833 428.564 78.2503 432.922C77.461 433.771 76.7579 434.826 76.8308 435.973C76.9701 438.162 79.6433 439.21 81.8654 439.582C87.7291 440.57 93.7122 440.49 99.6622 440.411C109.26 440.278 120.072 441.505 129.538 440.006C135.959 438.991 138.579 431.343 136.277 425.679C136.072 425.168 135.82 424.657 135.428 424.252C135.043 423.861 134.539 423.596 134.022 423.397C132.715 422.899 131.329 422.82 129.923 422.813Z" fill="#1D2C38"/>
<path d="M99.4105 426.169C100.472 427.118 101.453 428.153 102.342 429.267C102.488 429.453 102.82 429.559 103.045 429.559C103.291 429.559 103.583 429.453 103.749 429.267C103.914 429.081 104.054 428.829 104.04 428.564C104.027 428.285 103.921 428.08 103.749 427.861C102.86 426.746 101.885 425.712 100.817 424.763C100.425 424.418 99.7886 424.352 99.4105 424.763C99.0656 425.141 98.9926 425.798 99.4105 426.169Z" fill="white"/>
<path d="M102.687 422.932C103.032 423.151 103.363 423.384 103.695 423.629C103.708 423.636 103.874 423.768 103.748 423.669C103.622 423.569 103.775 423.689 103.801 423.709C103.887 423.775 103.967 423.841 104.053 423.908C104.213 424.04 104.365 424.173 104.518 424.306C105.135 424.856 105.705 425.453 106.222 426.096C106.375 426.282 106.7 426.388 106.925 426.388C107.171 426.388 107.463 426.282 107.629 426.096C107.794 425.911 107.934 425.659 107.92 425.393C107.907 425.115 107.801 424.903 107.629 424.69C106.521 423.324 105.181 422.156 103.695 421.214C103.257 420.936 102.581 421.108 102.335 421.573C102.077 422.064 102.223 422.634 102.694 422.932H102.687Z" fill="white"/>
<path d="M182.411 394.907C181.761 404.711 181.96 414.548 183.015 424.213C175.3 425.115 167.54 425.028 159.911 423.967C160.15 412.525 159.626 401.096 158.339 389.84" fill="#FFC2B8"/>
<path d="M164.919 422.813C166.398 422.806 167.897 422.879 169.35 422.647C175.652 421.626 176.66 415.629 181.874 413.984C184.62 413.115 187.638 414.416 189.794 416.286C194.218 420.12 195.173 423.536 200.937 425.553C206.357 427.45 212.559 428.564 216.591 432.922C217.381 433.771 218.084 434.826 218.011 435.973C217.872 438.162 215.199 439.21 212.976 439.582C207.113 440.57 201.13 440.49 195.18 440.411C185.581 440.278 174.769 441.505 165.304 440.006C158.883 438.991 156.263 431.343 158.565 425.679C158.77 425.168 159.022 424.657 159.414 424.252C159.798 423.861 160.303 423.596 160.82 423.397C162.127 422.899 163.513 422.82 164.919 422.813Z" fill="#1D2C38"/>
<path d="M194.026 424.756C192.965 425.705 191.983 426.74 191.094 427.854C190.922 428.066 190.802 428.272 190.802 428.557C190.802 428.803 190.908 429.095 191.094 429.26C191.28 429.426 191.532 429.566 191.797 429.552C192.043 429.539 192.341 429.466 192.5 429.26C193.389 428.146 194.364 427.111 195.432 426.163C195.824 425.818 195.81 425.101 195.432 424.756C195.014 424.372 194.444 424.385 194.026 424.756Z" fill="white"/>
<path d="M191.147 421.215C189.661 422.156 188.321 423.331 187.213 424.69C187.041 424.903 186.921 425.108 186.921 425.393C186.921 425.639 187.028 425.931 187.213 426.097C187.578 426.428 188.268 426.528 188.619 426.097C189.143 425.453 189.707 424.856 190.324 424.306C190.477 424.173 190.629 424.04 190.789 423.908C190.861 423.848 190.941 423.788 191.014 423.729C191.047 423.702 191.1 423.642 191.14 423.629C191.067 423.649 190.988 423.748 191.12 423.649C191.452 423.397 191.797 423.158 192.148 422.933C192.586 422.654 192.805 422.037 192.507 421.573C192.221 421.135 191.618 420.916 191.147 421.215Z" fill="white"/>
<path d="M186.133 265.806L155.812 261.276L146.48 259.883L137.147 261.276L106.827 265.806C105.858 304.312 105.858 362.624 104.06 404.652C104.007 405.945 105.036 407.013 106.329 407.013H141.452C142.652 407.013 143.647 406.084 143.72 404.89C145.014 383.87 146.97 352.515 146.48 335.428C146.519 349.815 150.639 383.956 152.158 404.91C152.244 406.098 153.232 407.013 154.426 407.013H189.555C190.849 407.013 191.884 405.938 191.824 404.645C189.92 362.604 187.101 304.312 186.139 265.806H186.133Z" fill="#2F4063"/>
<path d="M114.726 263.67C114.879 266.251 113.718 268.652 112.723 270.967C111.609 273.554 110.494 276.147 109.38 278.734C109.168 279.225 109.234 279.802 109.738 280.094C110.156 280.34 110.886 280.233 111.098 279.736C112.259 277.043 113.413 274.356 114.574 271.663C115.668 269.129 116.882 266.503 116.716 263.67C116.683 263.133 116.279 262.675 115.721 262.675C115.204 262.675 114.693 263.133 114.726 263.67Z" fill="#223049"/>
<path d="M176.421 265.375C177.993 270.071 180.009 274.622 182.437 278.94C183.067 280.054 184.785 279.053 184.155 277.938C181.807 273.766 179.857 269.388 178.338 264.851C178.165 264.34 177.655 264.009 177.111 264.155C176.613 264.294 176.242 264.864 176.414 265.382L176.421 265.375Z" fill="#223049"/>
<path d="M136.158 272.924C137.889 280.877 139.461 288.863 140.781 296.896C142.081 304.829 143.123 312.809 143.799 320.822C144.184 325.392 144.456 329.975 144.595 334.559C144.635 335.839 146.625 335.839 146.585 334.559C146.34 326.394 145.67 318.241 144.681 310.136C143.693 302.03 142.373 293.911 140.841 285.865C139.985 281.361 139.056 276.87 138.081 272.393C137.969 271.869 137.358 271.564 136.854 271.696C136.31 271.842 136.045 272.393 136.158 272.924Z" fill="#223049"/>
<path d="M180.825 104.541C184.407 110.484 187.027 117.058 191.498 122.358C194.177 125.535 197.481 128.188 201.162 130.118C204.28 131.75 207.729 132.918 210.336 135.286C211.769 136.592 212.89 138.217 213.705 139.975C217.699 148.525 214.017 159.205 207.059 165.573C200.101 171.94 190.582 174.74 181.249 176.146C170.225 177.804 158.809 177.758 148.097 174.687C138.731 172 130.094 167.045 122.619 160.797C118.281 157.168 114.274 153.043 111.482 148.127C109.246 144.181 107.847 139.796 106.938 135.352C105.412 127.837 105.015 121.436 106.268 113.867C107.761 104.886 110.732 97.1449 117.916 91.0092C123.82 85.968 131.713 82.406 139.454 81.8688C156.587 80.688 172.182 90.2066 180.818 104.541H180.825Z" fill="#822F2F"/>
<path d="M179.963 105.045C182.762 109.708 184.971 114.716 187.969 119.266C190.954 123.797 194.821 127.644 199.537 130.364C201.832 131.684 204.32 132.632 206.635 133.912C208.95 135.193 210.767 136.798 212.087 139.033C214.415 142.96 214.847 147.696 213.845 152.101C212.83 156.571 210.489 160.73 207.272 163.987C203.756 167.549 199.272 170.083 194.609 171.828C189.946 173.572 184.599 174.713 179.452 175.403C173.655 176.179 167.778 176.458 161.941 176.06C156.103 175.662 150.591 174.594 145.185 172.723C140.137 170.972 135.342 168.551 130.858 165.652C126.374 162.753 122.142 159.41 118.427 155.59C114.712 151.769 111.628 147.179 109.797 142.031C108.835 139.338 108.165 136.552 107.635 133.747C107.104 130.941 106.719 128.082 106.58 125.216C106.315 119.797 106.932 114.351 108.272 109.091C109.406 104.627 111.197 100.349 113.963 96.6407C116.954 92.6211 121.04 89.4504 125.438 87.089C129.836 84.7276 135.076 83.0759 140.27 82.8172C144.893 82.5917 149.517 83.1489 153.954 84.4689C162.71 87.0691 170.431 92.5348 176.162 99.6058C177.555 101.324 178.815 103.148 179.963 105.038C180.626 106.133 182.344 105.131 181.681 104.037C176.752 95.8912 169.529 89.0789 160.892 85.0062C151.984 80.8008 141.471 79.4012 131.939 82.2534C122.407 85.1057 113.101 92.0042 108.796 101.516C106.68 106.192 105.532 111.267 104.915 116.354C104.199 122.245 104.584 128.142 105.658 133.966C106.733 139.789 108.424 145.295 111.568 150.21C114.553 154.873 118.553 158.8 122.838 162.269C131.534 169.327 141.689 174.62 152.714 176.836C158.624 178.023 164.687 178.401 170.703 178.162C176.719 177.923 182.211 177.214 187.803 175.927C197.726 173.638 207.762 168.882 212.983 159.696C215.344 155.537 216.704 150.641 216.259 145.839C215.782 140.658 213.288 135.783 208.85 132.924C206.582 131.465 204.041 130.51 201.66 129.263C199.279 128.016 197.096 126.49 195.12 124.692C190.954 120.898 188.181 116.043 185.568 111.114C184.308 108.733 183.06 106.345 181.674 104.037C181.017 102.942 179.293 103.937 179.956 105.038L179.963 105.045Z" fill="#822F2F"/>
<path d="M189.641 246.245C189.429 251.843 189.064 257.435 188.54 263.014C188.434 264.128 188.221 265.415 187.226 265.979C186.716 266.271 186.099 266.304 185.509 266.33C160.316 267.411 135.09 267.756 109.871 267.365C108.537 267.345 107.065 267.266 106.116 266.363C105.161 265.455 105.055 264.009 105.008 262.709C104.471 246.424 104.445 230.126 104.929 213.842C105.42 197.213 102.567 173.552 116.955 161.639C125.014 154.966 133.597 152.81 143.892 152.247C146.267 152.114 148.655 151.994 151.023 152.2C163.035 153.248 176.05 161.115 181.635 171.967C185.29 179.071 184.699 186.288 185.979 193.85C187.008 199.906 188.885 205.789 189.979 211.826C190.802 216.396 189.648 220.847 189.767 225.497C189.939 232.415 189.906 239.333 189.641 246.245Z" fill="#6B8EBF"/>
<path d="M124.875 156.697C115.529 161.261 107.536 169.519 101.825 178.089C96.1068 186.679 92.9892 196.894 86.0642 204.702C83.8288 207.222 81.2286 209.431 79.2918 212.19C74.3434 219.241 74.5955 229.145 78.6815 236.726C79.8091 238.829 81.2154 240.793 82.94 242.438C86.7408 246.066 92.0407 247.97 97.2942 247.99C104.08 248.009 110.521 244.739 116.192 241.343" fill="#6B8EBF"/>
<path d="M92.4125 204.642C96.5582 205.584 100.346 208.058 102.846 211.501C103.583 212.515 104.213 213.61 104.73 214.751C104.949 215.242 105.666 215.361 106.09 215.109C106.594 214.817 106.667 214.24 106.448 213.749C104.531 209.497 100.976 205.968 96.7373 204.032C95.5168 203.474 94.2499 203.023 92.9365 202.725C92.4125 202.605 91.8619 202.884 91.7094 203.421C91.5701 203.925 91.8752 204.522 92.4058 204.648L92.4125 204.642Z" fill="#C1C1C1"/>
<path d="M97.3803 196.423C100.737 199.567 103.483 203.302 105.486 207.441C106.037 208.589 106.527 209.763 106.952 210.963C107.131 211.467 107.629 211.806 108.179 211.66C108.67 211.527 109.055 210.943 108.876 210.433C107.244 205.862 104.79 201.624 101.612 197.949C100.723 196.921 99.7815 195.946 98.7932 195.017C97.8579 194.142 96.4517 195.548 97.387 196.423H97.3803Z" fill="#C1C1C1"/>
<path d="M157.564 202.486C151.574 190.434 147.919 176.716 146.194 164.763C145.942 163.025 145.737 161.208 146.287 159.536C152.025 142.118 186.882 163.755 194.205 169.513C207.239 179.748 218.277 192.848 223.517 208.788C226.018 216.402 226.635 224.919 223.577 232.322C220.585 239.552 214.071 245.23 206.503 247.2C198.935 249.17 190.477 247.399 184.342 242.544C177.43 237.078 175.626 229.583 171.367 222.485C167.182 215.514 161.278 209.968 157.564 202.486Z" fill="#6B8EBF"/>
<path d="M196.673 207.56C196.865 207.083 197.462 206.705 198.026 206.453C198.663 206.174 199.478 205.982 200.195 205.849C201.787 205.551 203.465 205.564 205.057 205.862C208.188 206.446 210.96 208.084 213.01 210.512C214.065 211.766 214.894 213.238 215.418 214.777C215.59 215.288 216.101 215.62 216.645 215.474C217.143 215.341 217.514 214.757 217.342 214.247C216.187 210.877 213.912 207.958 210.907 206.041C207.657 203.965 203.664 203.249 199.876 203.899C197.847 204.244 195.585 204.96 194.756 207.036C194.557 207.534 194.975 208.131 195.452 208.264C196.023 208.423 196.474 208.071 196.679 207.567L196.673 207.56Z" fill="#C1C1C1"/>
<path d="M184.315 222.551C183.194 225.364 183.472 228.462 183.923 231.38C184.374 234.299 185.157 237.423 186.192 240.322C186.371 240.826 186.868 241.164 187.419 241.018C187.91 240.885 188.294 240.302 188.115 239.791C187.114 236.985 186.371 234.1 185.893 231.161C185.462 228.481 185.203 225.656 186.238 223.075C186.437 222.578 186.019 221.981 185.542 221.848C184.978 221.696 184.52 222.041 184.315 222.545V222.551Z" fill="#C1C1C1"/>
<path d="M157.059 135.524C156.123 135.836 155.712 143.803 155.626 144.904C155.367 148.373 155.447 151.902 155.387 155.384C155.387 155.623 155.374 155.868 155.268 156.08C155.069 156.472 154.604 156.624 154.193 156.757C152.283 157.374 150.465 158.296 148.84 159.477C146.538 161.155 144.157 163.483 141.351 162.992C138.924 162.568 137.405 160.153 136.476 157.865C134.552 153.135 136.549 147.862 134.984 142.847L157.052 135.518L157.059 135.524Z" fill="#D99C9A"/>
<path d="M144.509 156.372C144.887 156.704 145.272 157.049 145.444 157.493C145.61 157.918 145.557 158.389 145.497 158.833C145.245 160.571 144.768 162.316 143.72 163.788C142.672 165.261 140.967 166.428 139.037 166.594C136.549 166.813 134.155 165.32 132.914 163.357C131.674 161.394 131.382 159.065 131.389 156.803C131.395 153.991 131.302 149.686 134.553 148.293C134.712 148.227 134.884 148.16 135.063 148.187C135.269 148.22 135.421 148.359 135.567 148.499C138.406 151.238 141.491 153.779 144.516 156.366L144.509 156.372Z" fill="white"/>
<path d="M117.665 117.303C117.612 115.127 117.678 112.952 117.771 110.816C117.943 106.896 117.963 102.922 119.84 99.3272C120.444 98.173 121.16 97.1515 121.996 96.2362C124.51 93.4967 128.125 91.7057 133.18 90.0872C143.242 86.8635 154.771 89.7091 161.736 97.5296C166.286 102.637 168.243 108.209 168.667 114.975C169.118 122.178 168.282 129.143 163.473 134.795C152.588 147.59 128.935 147.789 120.802 131.85C120.378 131.014 120 130.145 119.668 129.263C118.262 125.455 117.764 121.376 117.671 117.303H117.665Z" fill="#FFC2B8"/>
<path d="M164.986 116.474C165.895 115.937 166.837 115.466 167.805 115.054C168.674 114.683 169.583 114.365 170.525 114.338C172.283 114.292 173.948 115.3 175.049 116.673C177.702 119.983 177.039 125.376 173.775 128.082C171.055 130.331 166.95 130.51 163.872 128.838" fill="#FFC2B8"/>
<path d="M133.253 121.621C134.392 121.621 135.316 120.698 135.316 119.558C135.316 118.419 134.392 117.495 133.253 117.495C132.114 117.495 131.19 118.419 131.19 119.558C131.19 120.698 132.114 121.621 133.253 121.621Z" fill="#1D2C38"/>
<path d="M149.398 121.621C150.537 121.621 151.461 120.698 151.461 119.558C151.461 118.419 150.537 117.495 149.398 117.495C148.258 117.495 147.335 118.419 147.335 119.558C147.335 120.698 148.258 121.621 149.398 121.621Z" fill="#1D2C38"/>
<path d="M171.486 120.394L167.56 121.376C167.055 121.502 166.704 122.099 166.863 122.603C167.022 123.107 167.546 123.432 168.09 123.299L172.017 122.318C172.521 122.192 172.873 121.595 172.714 121.091C172.554 120.586 172.03 120.261 171.486 120.394Z" fill="#BD5C55"/>
<path d="M121.253 116.474C120.345 115.937 119.403 115.466 118.434 115.054C117.565 114.683 116.657 114.365 115.715 114.338C113.957 114.292 112.292 115.3 111.191 116.673C108.538 119.983 109.201 125.376 112.464 128.082C115.184 130.331 119.29 130.51 122.368 128.838" fill="#FFC2B8"/>
<path d="M114.222 122.311L118.149 123.293C118.653 123.419 119.25 123.134 119.376 122.596C119.502 122.059 119.224 121.508 118.68 121.369L114.753 120.387C114.249 120.261 113.652 120.547 113.526 121.084C113.4 121.621 113.678 122.172 114.222 122.311Z" fill="#BD5C55"/>
<path d="M112.338 102.186C112.968 99.5593 114.407 97.105 116.105 94.9692C125.133 83.5867 137.723 82.0809 151.215 84.2964C153.702 84.7077 156.243 85.1322 158.485 86.2864C160.66 87.4074 162.438 89.1652 164.103 90.9561C167.638 94.7635 170.922 99.0353 172.242 104.057C173.071 107.201 172.673 113.224 169.045 114.398C164.773 115.777 158.087 111.585 154.916 109.191C150.584 105.914 147.029 101.735 143.169 97.9143C142.903 97.6556 142.611 97.377 142.247 97.3239C141.769 97.251 141.318 97.5627 140.933 97.8612C137.736 100.335 134.532 102.81 131.335 105.284C128.284 107.645 121.903 113.953 117.77 113.734C113.91 113.529 111.953 108.076 111.993 104.846C112.006 103.944 112.125 103.062 112.331 102.193L112.338 102.186Z" fill="#822F2F"/>
<path d="M113.299 102.445C114.036 99.4532 115.76 96.8331 117.75 94.5247C119.501 92.5016 121.485 90.6974 123.7 89.2315C127.912 86.4522 132.834 84.973 137.782 84.5617C140.416 84.3428 143.069 84.3826 145.702 84.5949C148.575 84.8271 151.414 85.2118 154.239 85.8552C155.758 86.2001 157.244 86.6777 158.591 87.4737C159.937 88.2697 161.045 89.2447 162.12 90.3193C164.249 92.4419 166.265 94.7503 167.95 97.251C169.509 99.5659 170.895 102.166 171.426 104.932C171.446 105.045 171.466 105.151 171.486 105.264C171.492 105.324 171.505 105.377 171.512 105.436C171.492 105.237 171.512 105.396 171.512 105.436C171.545 105.695 171.565 105.954 171.585 106.212C171.618 106.743 171.625 107.274 171.598 107.804C171.585 108.07 171.565 108.328 171.539 108.594C171.539 108.653 171.499 108.912 171.512 108.859C171.525 108.746 171.499 108.945 171.492 108.972C171.479 109.051 171.466 109.138 171.452 109.217C171.36 109.748 171.233 110.265 171.061 110.776C171.021 110.895 170.975 111.015 170.928 111.134C170.922 111.154 170.842 111.34 170.889 111.234C170.935 111.128 170.855 111.307 170.842 111.327C170.729 111.559 170.61 111.791 170.477 112.01C170.418 112.109 170.345 112.209 170.278 112.308C170.258 112.335 170.166 112.461 170.278 112.315C170.245 112.361 170.205 112.408 170.166 112.448C170.006 112.633 169.834 112.806 169.648 112.965C169.462 113.124 169.688 112.958 169.549 113.045C169.449 113.104 169.356 113.171 169.257 113.23C169.157 113.29 169.051 113.336 168.952 113.389C169.131 113.303 168.759 113.456 168.686 113.476C168.454 113.542 168.222 113.595 167.99 113.635C167.824 113.661 168.129 113.622 167.963 113.635C167.897 113.641 167.831 113.648 167.771 113.655C167.625 113.668 167.472 113.675 167.327 113.675C167.055 113.675 166.783 113.675 166.511 113.648C166.371 113.635 166.232 113.622 166.093 113.602C166.139 113.602 166.245 113.628 166.04 113.595C165.953 113.582 165.861 113.569 165.774 113.549C165.164 113.436 164.567 113.277 163.977 113.091C162.75 112.693 161.662 112.195 160.508 111.592C158.405 110.484 156.408 109.157 154.564 107.658C152.011 105.582 149.709 103.221 147.434 100.853C146.306 99.6853 145.185 98.5113 144.038 97.3704C143.394 96.7336 142.691 96.183 141.729 96.3621C140.893 96.5147 140.237 97.1581 139.587 97.6622C136.734 99.8711 133.882 102.073 131.023 104.282C129.292 105.615 127.674 107.081 125.969 108.448C125.047 109.191 124.138 109.88 123.117 110.564C122.619 110.895 122.115 111.214 121.591 111.512C121.352 111.645 121.107 111.778 120.861 111.904C120.742 111.963 120.622 112.023 120.503 112.076C120.457 112.096 120.112 112.249 120.251 112.195C119.793 112.388 119.316 112.547 118.832 112.653C118.739 112.673 118.639 112.693 118.54 112.713C118.354 112.753 118.52 112.713 118.56 112.713C118.507 112.713 118.453 112.726 118.4 112.733C118.162 112.753 117.923 112.759 117.684 112.739C117.624 112.739 117.558 112.726 117.498 112.719C117.518 112.719 117.644 112.746 117.531 112.719C117.412 112.693 117.293 112.673 117.173 112.64C117.054 112.607 116.941 112.567 116.828 112.527C116.682 112.474 116.954 112.587 116.815 112.527C116.749 112.494 116.676 112.461 116.609 112.428C116.391 112.315 116.185 112.189 115.986 112.043C115.959 112.023 115.84 111.93 115.966 112.03C115.92 111.99 115.873 111.95 115.82 111.91C115.714 111.817 115.608 111.725 115.508 111.625C115.329 111.446 115.157 111.254 114.998 111.055C114.925 110.968 114.998 111.048 114.998 111.061C114.958 111.008 114.918 110.955 114.885 110.902C114.792 110.769 114.699 110.63 114.606 110.491C114.321 110.033 114.069 109.555 113.857 109.058C113.903 109.164 113.79 108.886 113.764 108.826C113.717 108.7 113.671 108.574 113.625 108.441C113.532 108.169 113.445 107.897 113.372 107.619C113.233 107.108 113.12 106.584 113.047 106.053C113.074 106.259 113.034 105.907 113.028 105.867C113.014 105.748 113.008 105.635 113.001 105.516C112.988 105.29 112.981 105.071 112.981 104.846C112.988 104.037 113.1 103.241 113.286 102.458C113.406 101.934 113.12 101.383 112.59 101.231C112.086 101.092 111.489 101.403 111.363 101.927C110.752 104.521 110.938 107.168 111.946 109.635C112.829 111.791 114.348 114.013 116.749 114.59C119.004 115.134 121.299 114.026 123.176 112.879C125.372 111.539 127.368 109.874 129.338 108.216C131.421 106.458 133.564 104.793 135.72 103.128C137.192 101.994 138.658 100.853 140.131 99.7185C140.495 99.4333 140.867 99.148 141.232 98.8695C141.457 98.697 141.762 98.3852 142.048 98.3255C142.154 98.3056 142.034 98.2924 142.127 98.3388C142.24 98.3985 142.353 98.5245 142.452 98.624C142.757 98.9225 143.056 99.221 143.348 99.5261C147.719 103.95 151.865 108.627 157.178 111.97C159.44 113.396 161.914 114.69 164.527 115.326C166.829 115.883 169.549 115.917 171.326 114.112C172.951 112.461 173.482 109.96 173.575 107.718C173.674 105.111 172.991 102.67 171.93 100.309C170.623 97.3903 168.72 94.7702 166.65 92.3491C164.58 89.928 162.385 87.4472 159.645 85.8154C156.906 84.1836 153.384 83.6132 150.14 83.1422C147.308 82.731 144.455 82.459 141.597 82.4458C136.217 82.4259 130.818 83.3412 125.949 85.6827C123.468 86.8767 121.173 88.4488 119.123 90.2928C116.828 92.3557 114.732 94.7834 113.2 97.4632C112.397 98.8628 111.754 100.369 111.369 101.934C111.064 103.174 112.981 103.705 113.286 102.465L113.299 102.445Z" fill="#822F2F"/>
<path d="M135.82 110.066C133.903 109.131 131.548 109.204 129.744 110.391C129.313 110.677 129.087 111.287 129.386 111.751C129.664 112.182 130.281 112.414 130.745 112.109C130.924 111.99 131.104 111.884 131.296 111.791C131.342 111.771 131.654 111.645 131.422 111.731C131.521 111.691 131.621 111.658 131.72 111.625C131.919 111.559 132.125 111.506 132.337 111.466C132.39 111.453 132.722 111.373 132.463 111.439C132.55 111.419 132.649 111.419 132.742 111.413C132.941 111.4 133.14 111.4 133.339 111.413C133.445 111.413 133.551 111.426 133.657 111.439C133.77 111.453 133.763 111.453 133.631 111.439C133.684 111.446 133.737 111.459 133.79 111.466C133.996 111.506 134.201 111.559 134.407 111.625C134.506 111.658 134.606 111.698 134.705 111.731C134.467 111.638 134.785 111.771 134.831 111.791C135.296 112.016 135.926 111.93 136.191 111.433C136.43 110.988 136.33 110.318 135.833 110.073L135.82 110.066Z" fill="#1D2C38"/>
<path d="M148.012 111.393C147.773 111.492 148.091 111.366 148.138 111.353C148.237 111.32 148.337 111.287 148.436 111.26C148.628 111.207 148.847 111.141 149.046 111.134C148.768 111.147 149.119 111.134 149.172 111.134C149.278 111.128 149.378 111.121 149.484 111.121C149.696 111.121 149.902 111.134 150.108 111.154C150.22 111.167 150.214 111.167 150.074 111.154C150.127 111.161 150.181 111.174 150.227 111.181C150.326 111.201 150.433 111.22 150.532 111.247C150.738 111.3 150.93 111.366 151.129 111.433C151.235 111.473 151.229 111.472 151.109 111.419C151.156 111.439 151.202 111.459 151.248 111.486C151.341 111.532 151.434 111.579 151.527 111.625C151.713 111.725 151.885 111.837 152.051 111.963C152.476 112.268 153.179 112.05 153.411 111.605C153.683 111.088 153.504 110.57 153.053 110.245C151.295 108.972 148.953 108.846 146.997 109.695C146.519 109.9 146.373 110.643 146.638 111.055C146.957 111.552 147.487 111.632 147.998 111.413L148.012 111.393Z" fill="#1D2C38"/>
<path d="M152.197 131.564C150.466 130.331 149.995 127.518 150.923 125.634C151.666 124.122 153.198 123.081 154.83 122.842C156.462 122.603 158.16 123.127 159.467 124.155C161.749 125.939 161.344 129.614 159.109 131.392C158.153 132.155 156.92 132.466 155.712 132.5C154.479 132.533 153.212 132.281 152.197 131.558V131.564Z" fill="#F7A797"/>
<path d="M123.841 131.923C122.109 130.689 121.638 127.876 122.567 125.992C123.31 124.48 124.842 123.439 126.474 123.2C128.106 122.961 129.804 123.485 131.111 124.513C133.392 126.298 132.988 129.972 130.752 131.75C129.797 132.513 128.563 132.825 127.356 132.858C126.122 132.891 124.855 132.639 123.841 131.916V131.923Z" fill="#F7A797"/>
<path d="M139.19 115.094C139.263 115.87 139.263 116.666 139.137 117.436C139.011 118.205 138.739 118.928 138.546 119.684C138.135 121.296 138.507 122.895 139.594 124.149C139.946 124.553 140.642 124.507 141.001 124.149C141.405 123.744 141.352 123.147 141.001 122.742C140.676 122.371 140.457 121.88 140.377 121.396C140.278 120.739 140.477 120.122 140.669 119.505C141.113 118.073 141.319 116.587 141.18 115.088C141.133 114.55 140.755 114.093 140.185 114.093C139.687 114.093 139.143 114.55 139.19 115.088V115.094Z" fill="#BD5C55"/>
<path d="M145.173 165.619C142.672 164.551 142.055 163.105 141.073 160.71C139.282 156.366 153.524 149.5 156.263 147.683C157.066 147.968 157.563 148.764 157.928 149.534C159.646 153.195 159.965 159.51 157.039 162.68C156.15 163.642 155.049 164.392 153.882 164.976C151.196 166.315 147.945 166.773 145.173 165.619Z" fill="white"/>
<path d="M131.296 156.498C131.913 158.873 132.868 161.447 134.798 163.065C137.113 165.002 140.43 165.141 142.818 163.231C144.005 162.282 144.834 160.843 145.073 159.337H143.156C143.733 162.335 146.479 164.485 149.444 164.77C152.695 165.082 155.746 163.165 157.543 160.578C158.565 159.105 159.228 157.381 159.586 155.629C159.693 155.105 159.434 154.555 158.89 154.402C158.399 154.27 157.776 154.568 157.663 155.099C157.145 157.626 155.938 160.186 153.716 161.646C151.64 163.005 149.026 163.251 146.99 161.818C145.995 161.115 145.305 160.04 145.066 158.813C144.887 157.878 143.302 157.851 143.149 158.813C142.811 160.936 141.14 162.641 138.891 162.634C136.642 162.627 135.302 161.069 134.4 159.298C133.87 158.269 133.512 157.128 133.206 155.974C132.881 154.734 130.964 155.258 131.289 156.505L131.296 156.498Z" fill="#C1C1C1"/>
<path d="M134.745 127.757C136.098 129.515 137.558 131.279 139.667 132.135C141.902 133.044 144.695 132.606 146.565 131.093C147.726 130.151 148.469 128.599 148.303 127.094C148.244 126.523 147.899 126.145 147.308 126.099C143.408 125.774 139.488 125.827 135.601 126.258C135.064 126.317 134.606 126.676 134.606 127.253C134.606 127.744 135.064 128.307 135.601 128.248C139.488 127.817 143.408 127.764 147.308 128.089L146.313 127.094C146.453 128.354 145.743 129.402 144.649 130.006C144.105 130.304 143.494 130.476 142.877 130.563C142.665 130.596 142.387 130.609 142.148 130.609C141.989 130.609 141.836 130.609 141.677 130.596C141.484 130.583 141.504 130.583 141.378 130.563C140.363 130.39 139.501 129.919 138.778 129.302C137.909 128.559 137.127 127.624 136.457 126.749C136.132 126.324 135.601 126.099 135.097 126.39C134.679 126.636 134.407 127.326 134.739 127.75L134.745 127.757Z" fill="#BD5C55"/>
<path d="M105.712 213.782C98.3357 215.009 92.5251 211.991 85.5138 216.422C83.63 217.61 82.0181 219.334 81.3283 221.457C80.9966 222.485 80.8905 223.566 80.791 224.641C79.7894 235.877 86.2634 245.184 98.2495 239.366C104.1 236.527 110.236 232.408 113.114 226.385" fill="#FFC2B8"/>
<path d="M112.835 229.762C111.866 229.782 111.09 229.098 110.958 228.103L102.527 165.573C102.441 164.916 102.646 164.213 103.091 163.669C103.535 163.125 104.165 162.8 104.809 162.787L150.916 161.699C151.884 161.679 152.66 162.362 152.793 163.357L161.224 225.888C161.31 226.545 161.104 227.248 160.66 227.792C160.215 228.336 159.585 228.661 158.942 228.674L112.828 229.762H112.835Z" fill="#EDEDED"/>
<path d="M148.17 165.957C148.236 166.475 148.303 166.992 148.369 167.509L148.913 171.741C149.178 173.818 149.444 175.894 149.716 177.963C150.041 180.504 150.366 183.051 150.697 185.591C151.056 188.377 151.414 191.163 151.772 193.949L152.853 202.347L153.861 210.214L154.717 216.86L155.334 221.643C155.433 222.392 155.526 223.148 155.626 223.898C155.626 223.931 155.632 223.964 155.639 223.997C155.705 224.528 156.05 224.992 156.634 224.992C157.118 224.992 157.695 224.535 157.629 223.997C157.563 223.46 157.496 222.963 157.43 222.445L156.886 218.213L156.083 211.991C155.758 209.451 155.433 206.904 155.102 204.363C154.744 201.577 154.385 198.791 154.027 196.005C153.669 193.22 153.311 190.407 152.946 187.608C152.608 184.988 152.269 182.361 151.938 179.741L151.082 173.095L150.465 168.312C150.366 167.562 150.273 166.806 150.173 166.057C150.173 166.024 150.167 165.99 150.16 165.957C150.094 165.427 149.749 164.962 149.165 164.962C148.681 164.962 148.104 165.42 148.17 165.957Z" fill="#BCBCBC"/>
<path d="M111.123 171.703C111.656 170.844 111.477 169.769 110.724 169.301C109.971 168.834 108.928 169.151 108.395 170.011C107.862 170.87 108.04 171.945 108.793 172.413C109.547 172.88 110.59 172.562 111.123 171.703Z" fill="#1D2C38"/>
<path d="M154.491 180.895C153.98 180.895 153.576 180.517 153.516 179.986L152.853 174.182C152.766 173.439 153.377 172.723 154.093 172.723C154.604 172.723 155.008 173.101 155.068 173.632L155.731 179.436C155.818 180.179 155.207 180.895 154.491 180.895Z" fill="#DBD7D7"/>
<path d="M144.94 162.481C144.767 163.012 144.283 163.39 143.772 163.397L138.174 163.45C137.457 163.457 137 162.747 137.245 162.004C137.418 161.473 137.902 161.095 138.413 161.089L144.011 161.035C144.727 161.029 145.185 161.739 144.94 162.481Z" fill="#DBD7D7"/>
<path d="M112.57 166.892C112.762 167.987 113.332 168.982 113.803 169.977C114.009 170.401 114.148 170.859 114.414 171.257C114.772 171.794 115.302 172.159 115.939 172.272C116.516 172.371 117.113 172.365 117.697 172.385C118.354 172.405 119.004 172.418 119.66 172.431C120.914 172.451 122.168 172.451 123.421 172.431C125.929 172.398 128.436 172.285 130.937 172.106C132.19 172.013 133.437 171.907 134.684 171.781C135.779 171.668 137.112 171.728 137.948 170.899C138.572 170.289 139.009 169.453 139.401 168.683C139.792 167.914 140.15 167.125 140.449 166.315C140.634 165.811 140.243 165.228 139.752 165.088C139.195 164.936 138.711 165.274 138.525 165.785C138.485 165.897 138.445 166.004 138.399 166.116C138.366 166.196 138.339 166.269 138.306 166.349C138.379 166.169 138.306 166.362 138.28 166.402C138.134 166.733 137.981 167.058 137.822 167.383C137.504 168.033 137.152 168.67 136.734 169.267C136.575 169.493 136.867 169.148 136.681 169.327C136.648 169.36 136.615 169.4 136.582 169.44C136.535 169.486 136.489 169.532 136.436 169.579C136.635 169.393 136.528 169.552 136.422 169.566C135.951 169.645 135.48 169.698 135.003 169.751C133.862 169.871 132.721 169.977 131.58 170.063C126.99 170.421 122.373 170.527 117.77 170.395C117.471 170.388 117.173 170.375 116.868 170.362C116.649 170.355 116.384 170.382 116.204 170.295C116.098 170.242 116.078 170.209 115.992 170.037C115.873 169.811 115.793 169.586 115.68 169.34C115.243 168.358 114.666 167.43 114.473 166.355C114.38 165.825 113.73 165.526 113.246 165.659C112.689 165.811 112.457 166.349 112.55 166.886L112.57 166.892Z" fill="#BCBCBC"/>
<path d="M127.607 197.06C130.387 197.06 132.641 194.806 132.641 192.026C132.641 189.245 130.387 186.991 127.607 186.991C124.826 186.991 122.572 189.245 122.572 192.026C122.572 194.806 124.826 197.06 127.607 197.06Z" fill="white"/>
<path d="M130.692 213.245C127.893 211.786 124.709 211.706 121.611 211.673C120.736 211.66 117.585 212.171 116.961 211.56C115.754 210.373 117.751 209.942 118.772 209.743C120.795 209.351 122.838 209.146 124.875 209.126C126.188 209.113 128.138 210.001 128.749 208.084C129.034 207.202 128.749 206.221 128.198 205.531C127.647 204.841 126.878 204.416 126.095 204.085C119.018 201.073 109.672 205.299 103.848 210.2C101.805 211.925 99.7418 213.656 98.0437 215.772C95.9675 218.353 94.6343 221.483 94.4286 224.853C94.2495 227.719 95.0853 230.518 96.7436 232.674C99.6622 236.461 104.823 235.015 108.988 234.995C114.209 234.969 119.429 234.896 124.656 234.79C125.578 234.77 126.54 234.743 127.389 234.305C128.238 233.868 128.941 232.906 128.822 231.924C128.649 230.571 127.177 230.02 125.936 229.742C123.144 229.105 120.344 228.468 117.552 227.831C120.477 226.929 123.376 225.934 126.354 225.357C127.641 225.105 129.259 225.032 129.538 223.142C129.75 221.689 128.497 220.575 127.342 219.858C129.186 218.459 132.483 219.785 133.432 217.59C134.015 216.237 132.994 214.771 131.879 213.975C131.495 213.703 131.097 213.457 130.692 213.245Z" fill="#FFC2B8"/>
<path d="M113.566 220.86C117.035 219.673 120.676 219.182 124.338 219.407C124.875 219.44 125.333 218.93 125.333 218.412C125.333 217.848 124.875 217.45 124.338 217.417C120.517 217.185 116.657 217.703 113.035 218.943C112.524 219.115 112.192 219.626 112.338 220.17C112.471 220.668 113.055 221.039 113.566 220.867V220.86Z" fill="#BD5C55"/>
<path d="M113.639 228.448C114.435 228.269 115.224 228.083 116.02 227.904C116.531 227.785 116.876 227.175 116.716 226.677C116.544 226.147 116.04 225.855 115.489 225.981C114.693 226.16 113.904 226.346 113.108 226.525C112.597 226.644 112.252 227.254 112.411 227.752C112.584 228.282 113.088 228.574 113.639 228.448Z" fill="#BD5C55"/>
<path d="M188.971 179.675C190.424 184.862 193.482 189.445 196.685 193.777C199.889 198.108 203.319 202.334 205.687 207.176C208.055 212.018 209.295 217.65 207.842 222.837C206.39 228.024 201.753 232.514 196.36 232.634C192.434 232.72 188.712 230.544 186.132 227.579C183.558 224.614 181.98 220.92 180.673 217.218C177.39 207.879 175.599 198.015 175.393 188.119" fill="#FFC2B8"/>
<path d="M174.379 188.921C175.201 190.308 176.322 191.482 177.675 192.238C180.508 193.823 186.02 192.185 188.547 190.467C191.505 188.45 191.724 185.227 191.963 181.917C192.301 177.32 192.175 172.604 192.116 167.987C191.996 158.276 191.678 148.286 194.915 138.98C195.174 138.237 195.459 137.474 195.392 136.692C195.233 134.894 193.436 134.728 192.155 135.564C190.729 136.499 190.272 138.808 189.688 140.313C187.943 144.844 186.524 149.494 185.443 154.23C185.138 155.556 184.813 156.989 183.798 157.905C182.318 159.238 180.05 158.946 178.126 159.443C173.961 160.525 171.885 165.082 170.372 169.108C169.516 171.376 168.913 174.468 170.962 175.761C171.513 176.113 172.19 176.252 172.687 176.676C173.961 177.764 173.331 179.781 172.986 181.419C172.475 183.84 173.032 186.659 174.379 188.921Z" fill="#FFC2B8"/>
<path d="M174.213 170.302C175.407 171.098 176.76 171.536 178.179 171.682L177.476 169.984C175.772 171.748 174.478 173.837 173.629 176.139C173.443 176.643 173.835 177.227 174.326 177.366C174.883 177.519 175.36 177.181 175.553 176.67C176.269 174.74 177.436 172.896 178.889 171.39C179.168 171.105 179.254 170.673 179.095 170.302C178.922 169.911 178.597 169.732 178.186 169.692C177.178 169.586 176.123 169.181 175.221 168.584C174.777 168.285 174.12 168.498 173.861 168.942C173.576 169.433 173.768 170.003 174.219 170.302H174.213Z" fill="#BD5C55"/>
<path d="M177.582 161.705C179.028 163.682 181.197 165.095 183.638 165.453C184.149 165.526 184.733 165.327 184.866 164.757C184.972 164.286 184.72 163.616 184.169 163.529C183.652 163.45 183.141 163.33 182.643 163.158C182.524 163.118 182.405 163.072 182.285 163.025C182.418 163.078 182.332 163.045 182.252 163.012C182.199 162.992 182.146 162.966 182.1 162.939C181.854 162.826 181.615 162.7 181.383 162.561C181.164 162.428 180.952 162.289 180.746 162.136C180.7 162.103 180.654 162.07 180.607 162.037C180.766 162.156 180.607 162.037 180.574 162.01C180.474 161.931 180.375 161.845 180.282 161.758C180.083 161.579 179.891 161.387 179.712 161.188C179.625 161.095 179.539 160.996 179.46 160.896C179.426 160.85 179.387 160.81 179.353 160.763C179.493 160.929 179.32 160.71 179.3 160.69C178.995 160.273 178.425 160.02 177.941 160.332C177.523 160.598 177.257 161.248 177.582 161.692V161.705Z" fill="#BD5C55"/>
<path d="M182.71 160.651C184.68 161.659 186.782 162.263 188.984 162.481C189.502 162.535 189.999 161.991 189.979 161.486C189.953 160.903 189.542 160.545 188.984 160.492C188.5 160.445 188.242 160.412 187.698 160.306C187.22 160.213 186.749 160.1 186.278 159.961C185.807 159.822 185.35 159.662 184.898 159.483C184.898 159.483 184.613 159.364 184.753 159.424C184.627 159.371 184.5 159.311 184.368 159.258C184.149 159.158 183.93 159.052 183.711 158.939C183.247 158.701 182.61 158.8 182.351 159.298C182.113 159.755 182.212 160.405 182.71 160.657V160.651Z" fill="#BD5C55"/>
<path d="M112.411 213.65C112.477 213.59 112.544 213.53 112.617 213.477L112.418 213.63C112.67 213.437 112.948 213.272 113.24 213.152L113.001 213.252C113.3 213.132 113.605 213.046 113.923 213.006L113.658 213.039C113.784 213.026 113.91 213.013 114.043 213.013C114.302 213.013 114.56 212.907 114.746 212.721C114.918 212.549 115.051 212.263 115.038 212.018C115.025 211.773 114.945 211.494 114.746 211.315C114.547 211.136 114.308 211.016 114.043 211.023C112.909 211.05 111.847 211.487 111.005 212.243C110.819 212.409 110.713 212.708 110.713 212.947C110.713 213.185 110.819 213.484 111.005 213.65C111.416 214.028 112 214.021 112.411 213.65Z" fill="#BD5C55"/>
<path d="M107.35 401.448C115.88 401.435 124.404 401.428 132.934 401.415H140.197C141.477 401.401 141.477 399.411 140.197 399.418C131.667 399.431 123.143 399.438 114.613 399.451C112.192 399.451 109.771 399.451 107.35 399.458C106.07 399.458 106.07 401.448 107.35 401.448Z" fill="#223049"/>
<path d="M154.889 401.448C163.42 401.435 171.943 401.428 180.473 401.415H187.737C189.017 401.401 189.017 399.411 187.737 399.418C179.207 399.431 170.683 399.438 162.153 399.451C159.732 399.451 157.31 399.451 154.889 399.458C153.609 399.458 153.609 401.448 154.889 401.448Z" fill="#223049"/>
<path d="M207.789 87.7343L229.489 58.1184L216.877 50.8376L202.076 84.4412C200.478 88.0703 205.444 90.9378 207.789 87.7343Z" fill="#FFEABD"/>
<path d="M280.26 0.39502H207.438C198.167 0.39502 190.651 7.91074 190.651 17.1818V56.2515C190.651 65.5226 198.167 73.0383 207.438 73.0383H280.26C289.531 73.0383 297.047 65.5226 297.047 56.2515V17.1818C297.047 7.91074 289.531 0.39502 280.26 0.39502Z" fill="#FFEABD"/>
<path d="M226.614 23.0588C226.614 17.5926 222.186 13.1569 216.72 13.142C211.254 13.1271 206.825 17.5403 206.825 23.0065C206.825 26.8149 208.983 30.123 212.135 31.7808C212.09 31.4447 212.06 31.1087 212.06 30.7577C212.06 28.2188 213.337 26.0682 215.122 25.2542C213.733 24.6344 212.762 23.2455 212.762 21.625C212.762 19.4371 214.532 17.6747 216.72 17.6822C218.908 17.6822 220.677 19.4669 220.677 21.6474C220.677 23.2679 219.707 24.6493 218.318 25.2617C220.102 26.0906 221.379 28.2487 221.379 30.7876C221.379 31.1386 221.35 31.4821 221.305 31.8106C224.463 30.1678 226.614 26.8746 226.614 23.0662V23.0588Z" fill="white"/>
<path d="M218.318 25.2541C219.707 24.6418 220.678 23.2603 220.678 21.6399C220.678 19.4519 218.908 17.6822 216.72 17.6747C214.532 17.6747 212.762 19.437 212.762 21.6175C212.762 23.2379 213.733 24.6269 215.122 25.2467C213.337 26.0681 212.06 28.2187 212.06 30.7502C212.06 31.1012 212.09 31.4447 212.135 31.7732C213.502 32.4976 215.062 32.9083 216.713 32.9157C218.363 32.9157 219.924 32.5125 221.29 31.8031C221.335 31.4671 221.365 31.131 221.365 30.7801C221.365 28.2411 220.088 26.083 218.303 25.2541H218.318Z" fill="#6B8EBF"/>
<path d="M275.654 17.9585H257.351C256.731 17.9585 256.231 17.4582 256.231 16.8384C256.231 16.2186 256.731 15.7183 257.351 15.7183H275.654C276.273 15.7183 276.774 16.2186 276.774 16.8384C276.774 17.4582 276.273 17.9585 275.654 17.9585Z" fill="#616161"/>
<path d="M247.62 17.9585H233.32C232.7 17.9585 232.2 17.4582 232.2 16.8384C232.2 16.2186 232.7 15.7183 233.32 15.7183H247.62C248.24 15.7183 248.74 16.2186 248.74 16.8384C248.74 17.4582 248.24 17.9585 247.62 17.9585Z" fill="#616161"/>
<path d="M275.653 24.2535H269.074C268.454 24.2535 267.954 23.7532 267.954 23.1334C267.954 22.5136 268.454 22.0133 269.074 22.0133H275.653C276.273 22.0133 276.773 22.5136 276.773 23.1334C276.773 23.7532 276.273 24.2535 275.653 24.2535Z" fill="#616161"/>
<path d="M262.211 24.2535H233.327C232.708 24.2535 232.207 23.7532 232.207 23.1334C232.207 22.5136 232.708 22.0133 233.327 22.0133H262.211C262.831 22.0133 263.332 22.5136 263.332 23.1334C263.332 23.7532 262.831 24.2535 262.211 24.2535Z" fill="#616161"/>
<path d="M275.653 30.5411H233.32C232.7 30.5411 232.2 30.0408 232.2 29.421C232.2 28.8012 232.7 28.3009 233.32 28.3009H275.653C276.273 28.3009 276.773 28.8012 276.773 29.421C276.773 30.0408 276.273 30.5411 275.653 30.5411Z" fill="#616161"/>
<path d="M226.614 50.3672C226.614 44.9011 222.186 40.4654 216.72 40.4505C211.254 40.4355 206.825 44.8488 206.825 50.315C206.825 54.1234 208.983 57.4315 212.135 59.0892C212.09 58.7532 212.06 58.4172 212.06 58.0662C212.06 55.5273 213.337 53.3766 215.122 52.5627C213.733 51.9429 212.762 50.5539 212.762 48.9335C212.762 46.7455 214.532 44.9832 216.72 44.9907C218.908 44.9907 220.677 46.7754 220.677 48.9559C220.677 50.5763 219.707 51.9578 218.318 52.5701C220.102 53.399 221.379 55.5571 221.379 58.0961C221.379 58.447 221.35 58.7905 221.305 59.1191C224.463 57.4763 226.614 54.1831 226.614 50.3747V50.3672Z" fill="white"/>
<path d="M218.318 52.5702C219.707 51.9579 220.678 50.5764 220.678 48.9559C220.678 46.768 218.908 44.9982 216.72 44.9907C214.532 44.9907 212.762 46.753 212.762 48.9335C212.762 50.554 213.733 51.9429 215.122 52.5627C213.337 53.3841 212.06 55.5348 212.06 58.0662C212.06 58.4172 212.09 58.7607 212.135 59.0893C213.502 59.8136 215.062 60.2243 216.713 60.2318C218.363 60.2392 219.924 59.8285 221.29 59.1191C221.335 58.7831 221.365 58.4471 221.365 58.0961C221.365 55.5572 220.088 53.3991 218.303 52.5702H218.318Z" fill="#8DB579"/>
<path d="M275.654 45.267H268.582C267.962 45.267 267.462 44.7666 267.462 44.1469C267.462 43.5271 267.962 43.0267 268.582 43.0267H275.654C276.273 43.0267 276.774 43.5271 276.774 44.1469C276.774 44.7666 276.273 45.267 275.654 45.267Z" fill="#616161"/>
<path d="M262.458 45.267H233.32C232.7 45.267 232.2 44.7666 232.2 44.1469C232.2 43.5271 232.7 43.0267 233.32 43.0267H262.458C263.078 43.0267 263.578 43.5271 263.578 44.1469C263.578 44.7666 263.078 45.267 262.458 45.267Z" fill="#616161"/>
<path d="M259.874 51.562H233.327C232.708 51.562 232.207 51.0617 232.207 50.4419C232.207 49.8221 232.708 49.3218 233.327 49.3218H259.874C260.494 49.3218 260.994 49.8221 260.994 50.4419C260.994 51.0617 260.494 51.562 259.874 51.562Z" fill="#616161"/>
<path d="M266.931 57.8571H249.27C248.651 57.8571 248.15 57.3567 248.15 56.7369C248.15 56.1171 248.651 55.6168 249.27 55.6168H266.931C267.551 55.6168 268.051 56.1171 268.051 56.7369C268.051 57.3567 267.551 57.8571 266.931 57.8571Z" fill="#616161"/>
<path d="M241.975 57.8571H233.32C232.7 57.8571 232.2 57.3567 232.2 56.7369C232.2 56.1171 232.7 55.6168 233.32 55.6168H241.975C242.594 55.6168 243.095 56.1171 243.095 56.7369C243.095 57.3567 242.594 57.8571 241.975 57.8571Z" fill="#616161"/>
<path d="M212.12 110.471C211.5 110.471 211 109.97 211 109.351V99.1201C211 98.5003 211.5 98 212.12 98C212.74 98 213.24 98.5003 213.24 99.1201V109.351C213.24 109.97 212.74 110.471 212.12 110.471Z" fill="#777777"/>
<path d="M217.84 111.972C217.661 111.972 217.489 111.927 217.318 111.845C216.773 111.553 216.563 110.881 216.847 110.329L222.866 98.8961C223.157 98.351 223.829 98.1344 224.382 98.4256C224.927 98.7169 225.136 99.3889 224.852 99.9415L218.834 111.374C218.632 111.755 218.244 111.972 217.84 111.972Z" fill="#777777"/>
<path d="M220.85 117.087C220.446 117.087 220.065 116.87 219.864 116.497C219.573 115.952 219.774 115.272 220.319 114.981L228.743 110.471C229.288 110.179 229.967 110.381 230.259 110.926C230.55 111.471 230.348 112.151 229.803 112.442L221.38 116.952C221.208 117.042 221.029 117.087 220.85 117.087Z" fill="#777777"/>
</svg>
