<svg width="52" height="52" viewBox="0 0 52 52" fill="none" xmlns="http://www.w3.org/2000/svg">
<g filter="url(#filter0_dd_4198_26798)">
<path d="M19.4478 42.3254C19.4478 38.6392 22.3815 29.3577 26.0005 29.3577C29.6195 29.3577 32.5532 38.6392 32.5532 42.3254C32.5532 46.0117 29.6195 49 26.0005 49C22.3815 49 19.4478 46.0117 19.4478 42.3254Z" fill="white"/>
<path d="M7.92325 30.2443C10.7528 27.9461 19.7047 24.4957 21.961 27.3779C24.2173 30.2601 18.923 38.3836 16.0934 40.6819C13.2639 42.9801 9.14115 42.5063 6.88484 39.6242C4.62854 36.742 5.0937 32.5426 7.92325 30.2443Z" fill="white"/>
<path d="M10.0115 13.5353C13.5398 14.3551 21.7698 19.335 20.9649 22.9269C20.1601 26.5207 10.6234 27.3681 7.09515 26.5483C3.5669 25.7284 1.36078 22.1503 2.16564 18.5565C2.97049 14.9626 6.4833 12.7135 10.0115 13.5353Z" fill="white"/>
<path d="M24.1381 4.7807C25.7073 8.10128 27.0179 17.7603 23.7579 19.3586C20.4979 20.959 13.9008 13.8931 12.3316 10.5706C10.7605 7.25 12.1309 3.26098 15.3928 1.66065C18.6527 0.0603214 22.5689 1.45618 24.1401 4.77873L24.1381 4.7807Z" fill="white"/>
<path d="M39.6678 10.5725C38.0986 13.893 31.5015 20.9589 28.2415 19.3605C24.9816 17.7621 26.2921 8.10316 27.8613 4.78258C29.4305 1.46199 33.3467 0.0661309 36.6086 1.66449C39.8685 3.26285 41.2389 7.25188 39.6697 10.5744L39.6678 10.5725Z" fill="white"/>
<path d="M44.9041 26.5502C41.3759 27.37 31.8392 26.5227 31.0343 22.9288C30.2294 19.335 38.4595 14.3571 41.9877 13.5372C45.5159 12.7174 49.0288 14.9646 49.8336 18.5584C50.6385 22.1523 48.4323 25.7304 44.9041 26.5502Z" fill="white"/>
<path d="M35.906 40.6819C33.0765 38.3836 27.7822 30.2601 30.0385 27.3779C32.2948 24.4957 41.2467 27.9461 44.0762 30.2443C46.9058 32.5426 47.3709 36.742 45.1146 39.6242C42.8583 42.5063 38.7356 42.9801 35.906 40.6819Z" fill="white"/>
<path d="M26.0568 34.257C31.5007 34.257 35.9139 29.7617 35.9139 24.2166C35.9139 18.6714 31.5007 14.1762 26.0568 14.1762C20.6129 14.1762 16.1997 18.6714 16.1997 24.2166C16.1997 29.7617 20.6129 34.257 26.0568 34.257Z" fill="#FFD51C"/>
<path d="M21.0078 24.0023C21.0252 26.0076 22.2991 27.8832 24.1501 28.5732C25.1074 28.9291 26.1902 28.9586 27.1688 28.6715C28.1222 28.3924 28.9618 27.8045 29.5679 27.0083C30.2357 26.1315 30.6179 25.0462 30.6101 23.9335C30.6082 23.5403 30.008 23.5403 30.0118 23.9335C30.0234 25.6695 28.9406 27.37 27.327 27.9775C26.4797 28.296 25.5455 28.3432 24.6731 28.1034C23.8316 27.8714 23.102 27.3681 22.5539 26.68C21.9555 25.9309 21.6158 24.9676 21.6062 24.0042C21.6023 23.611 21.004 23.611 21.0078 24.0042V24.0023Z" fill="#1E1E1E"/>
<path d="M23.5781 22.0323L24.6976 22.3763C24.6127 23.2394 24.163 23.8724 23.6264 23.8882C23.0049 23.9059 22.4722 23.0801 22.4452 22.0637C22.4181 21.0453 22.9084 20.194 23.5299 20.1783C24.0047 20.1665 24.4428 20.6423 24.6243 21.3658L23.5781 22.0342V22.0323Z" fill="#1E1E1E"/>
<path d="M28.3821 22.0932L29.5016 22.4373C29.4166 23.3003 28.9669 23.9334 28.4303 23.9491C27.8088 23.9668 27.2761 23.1411 27.2491 22.1247C27.2221 21.1063 27.7123 20.255 28.3338 20.2393C28.8086 20.2275 29.2468 20.7032 29.4282 21.4267L28.3821 22.0952V22.0932Z" fill="#1E1E1E"/>
<path d="M20.7722 25.29C20.7722 25.8779 20.3051 26.3556 19.7261 26.3556C19.147 26.3556 18.6799 25.8798 18.6799 25.29C18.6799 24.7002 19.147 24.2244 19.7261 24.2244C20.3051 24.2244 20.7722 24.7002 20.7722 25.29Z" fill="#FF7E1C"/>
<path d="M33.0766 25.6518C33.0766 26.2396 32.6095 26.7173 32.0305 26.7173C31.4515 26.7173 30.9844 26.2416 30.9844 25.6518C30.9844 25.062 31.4515 24.5862 32.0305 24.5862C32.6095 24.5862 33.0766 25.062 33.0766 25.6518Z" fill="#FF7E1C"/>
</g>
<defs>
<filter id="filter0_dd_4198_26798" x="0" y="-0.00241089" width="52" height="52.0024" filterUnits="userSpaceOnUse" color-interpolation-filters="sRGB">
<feFlood flood-opacity="0" result="BackgroundImageFix"/>
<feColorMatrix in="SourceAlpha" type="matrix" values="0 0 0 0 0 0 0 0 0 0 0 0 0 0 0 0 0 0 127 0" result="hardAlpha"/>
<feOffset/>
<feGaussianBlur stdDeviation="0.5"/>
<feComposite in2="hardAlpha" operator="out"/>
<feColorMatrix type="matrix" values="0 0 0 0 0 0 0 0 0 0 0 0 0 0 0 0 0 0 0.2 0"/>
<feBlend mode="normal" in2="BackgroundImageFix" result="effect1_dropShadow_4198_26798"/>
<feColorMatrix in="SourceAlpha" type="matrix" values="0 0 0 0 0 0 0 0 0 0 0 0 0 0 0 0 0 0 127 0" result="hardAlpha"/>
<feOffset dy="1"/>
<feGaussianBlur stdDeviation="1"/>
<feComposite in2="hardAlpha" operator="out"/>
<feColorMatrix type="matrix" values="0 0 0 0 0 0 0 0 0 0 0 0 0 0 0 0 0 0 0.12 0"/>
<feBlend mode="normal" in2="effect1_dropShadow_4198_26798" result="effect2_dropShadow_4198_26798"/>
<feBlend mode="normal" in="SourceGraphic" in2="effect2_dropShadow_4198_26798" result="shape"/>
</filter>
</defs>
</svg>
