<svg width="48" height="48" viewBox="0 0 48 48" fill="none" xmlns="http://www.w3.org/2000/svg">
<path d="M17.4478 41.3254C17.4478 37.6392 20.3815 28.3577 24.0005 28.3577C27.6195 28.3577 30.5532 37.6392 30.5532 41.3254C30.5532 45.0117 27.6195 48 24.0005 48C20.3815 48 17.4478 45.0117 17.4478 41.3254Z" fill="white"/>
<path d="M5.92325 29.2443C8.75279 26.9461 17.7047 23.4957 19.961 26.3779C22.2173 29.2601 16.923 37.3836 14.0934 39.6819C11.2639 41.9801 7.14115 41.5063 4.88484 38.6242C2.62854 35.742 3.0937 31.5426 5.92325 29.2443Z" fill="white"/>
<path d="M8.01155 12.5353C11.5398 13.3551 19.7698 18.335 18.9649 21.9269C18.1601 25.5207 8.62339 26.3681 5.09515 25.5483C1.5669 24.7284 -0.639222 21.1503 0.165636 17.5565C0.970493 13.9626 4.4833 11.7135 8.01155 12.5353Z" fill="white"/>
<path d="M22.1381 3.7807C23.7073 7.10128 25.0179 16.7603 21.7579 18.3586C18.4979 19.959 11.9008 12.8931 10.3316 9.57058C8.76051 6.25 10.1309 2.26098 13.3928 0.660649C16.6527 -0.939679 20.5689 0.456185 22.1401 3.77873L22.1381 3.7807Z" fill="white"/>
<path d="M37.6678 9.57246C36.0986 12.893 29.5015 19.9589 26.2415 18.3605C22.9816 16.7621 24.2921 7.10316 25.8613 3.78258C27.4305 0.461994 31.3467 -0.933869 34.6086 0.664493C37.8685 2.26285 39.2389 6.25188 37.6697 9.57443L37.6678 9.57246Z" fill="white"/>
<path d="M42.9041 25.5502C39.3759 26.37 29.8392 25.5227 29.0343 21.9288C28.2294 18.335 36.4595 13.3571 39.9877 12.5372C43.5159 11.7174 47.0288 13.9646 47.8336 17.5584C48.6385 21.1523 46.4323 24.7304 42.9041 25.5502Z" fill="white"/>
<path d="M33.906 39.6819C31.0765 37.3836 25.7822 29.2601 28.0385 26.3779C30.2948 23.4957 39.2467 26.9461 42.0762 29.2443C44.9058 31.5426 45.3709 35.742 43.1146 38.6242C40.8583 41.5063 36.7356 41.9801 33.906 39.6819Z" fill="white"/>
<path d="M24.0568 33.257C29.5007 33.257 33.9139 28.7617 33.9139 23.2166C33.9139 17.6714 29.5007 13.1762 24.0568 13.1762C18.6129 13.1762 14.1997 17.6714 14.1997 23.2166C14.1997 28.7617 18.6129 33.257 24.0568 33.257Z" fill="#FFD51C"/>
<path d="M19.0078 23.0023C19.0252 25.0076 20.2991 26.8832 22.1501 27.5732C23.1074 27.9291 24.1902 27.9586 25.1688 27.6715C26.1222 27.3924 26.9618 26.8045 27.5679 26.0083C28.2357 25.1315 28.6179 24.0462 28.6101 22.9335C28.6082 22.5403 28.008 22.5403 28.0118 22.9335C28.0234 24.6695 26.9406 26.37 25.327 26.9775C24.4797 27.296 23.5455 27.3432 22.6731 27.1034C21.8316 26.8714 21.102 26.3681 20.5539 25.68C19.9555 24.9309 19.6158 23.9676 19.6062 23.0042C19.6023 22.611 19.004 22.611 19.0078 23.0042V23.0023Z" fill="#1E1E1E"/>
<path d="M21.5781 21.0323L22.6976 21.3763C22.6127 22.2394 22.163 22.8724 21.6264 22.8882C21.0049 22.9059 20.4722 22.0801 20.4452 21.0637C20.4181 20.0453 20.9084 19.194 21.5299 19.1783C22.0047 19.1665 22.4428 19.6423 22.6243 20.3658L21.5781 21.0342V21.0323Z" fill="#1E1E1E"/>
<path d="M26.3821 21.0932L27.5016 21.4373C27.4166 22.3003 26.9669 22.9334 26.4303 22.9491C25.8088 22.9668 25.2761 22.1411 25.2491 21.1247C25.2221 20.1063 25.7123 19.255 26.3338 19.2393C26.8086 19.2275 27.2468 19.7032 27.4282 20.4267L26.3821 21.0952V21.0932Z" fill="#1E1E1E"/>
<path d="M18.7722 24.29C18.7722 24.8779 18.3051 25.3556 17.7261 25.3556C17.147 25.3556 16.6799 24.8798 16.6799 24.29C16.6799 23.7002 17.147 23.2244 17.7261 23.2244C18.3051 23.2244 18.7722 23.7002 18.7722 24.29Z" fill="#FF7E1C"/>
<path d="M31.0766 24.6518C31.0766 25.2396 30.6095 25.7173 30.0305 25.7173C29.4515 25.7173 28.9844 25.2416 28.9844 24.6518C28.9844 24.062 29.4515 23.5862 30.0305 23.5862C30.6095 23.5862 31.0766 24.062 31.0766 24.6518Z" fill="#FF7E1C"/>
</svg>
