<svg width="49" height="48" viewBox="0 0 49 48" fill="none" xmlns="http://www.w3.org/2000/svg">
<path d="M48.5465 16.4668C48.5344 16.4318 48.5182 16.4055 48.506 16.3749C48.4899 16.3179 48.4696 16.261 48.4454 16.1996C47.2924 13.7464 45.3344 11.832 42.9071 10.9427C39.9053 9.83878 35.88 10.9515 33.5417 8.16971C31.6888 5.9662 31.0577 3.18004 28.5819 1.53726C26.5349 0.18361 23.9579 -0.350841 21.6115 0.236179C19.5685 0.748726 17.9503 2.05857 16.8095 3.94229C15.6363 5.87858 15.082 8.79178 12.7397 9.47955C10.5632 10.1191 8.3422 9.55841 6.1374 10.4827C4.16319 11.3107 2.41553 12.8133 1.56597 14.9555C0.748775 17.0144 0.890368 19.3231 1.52147 21.4215C2.55712 24.8516 4.91161 26.1483 7.10023 28.5621C9.88354 31.6286 6.86559 33.7708 6.35585 37.0607C5.95535 39.6191 6.74018 42.5148 8.37052 44.4248C10.013 46.3479 12.5253 47.3424 14.9242 47.0488C17.4527 46.7378 18.6623 45.0249 20.4868 43.3778C24.2937 39.9301 26.543 45.1345 29.5569 47.0094C31.5311 48.236 34.0433 48.3061 36.1146 47.3161C38.3963 46.2253 39.8931 43.9692 40.1723 41.2969C40.5323 37.858 38.6431 33.9898 40.2775 30.7568C41.657 28.0364 44.7114 26.8448 46.6896 24.7333C48.8216 22.4641 49.5741 19.5421 48.5425 16.4668H48.5465Z" fill="#FF8120"/>
<path d="M33.5301 15.4872C31.1999 13.3472 28.3357 12 25.1074 12H23.918C20.8636 12 17.6555 13.3269 15.4952 15.4872C13.428 17.5545 11.8745 20.9406 12.008 23.91C12.1455 26.9886 13.1569 30.1846 15.4952 32.3327C17.8254 34.4728 20.6897 35.82 23.918 35.82H25.1074C28.1617 35.82 31.3698 34.493 33.5301 32.3327C35.5974 30.2655 37.1509 26.8794 37.0174 23.91C36.8798 20.8314 35.8684 17.6354 33.5301 15.4872Z" fill="#FFE065"/>
<path d="M28.6109 22.8137C28.9871 21.8427 29.5251 20.9527 30.7792 21.0255C31.7704 21.0822 32.1466 21.8346 32.4177 22.6559C32.7818 22.6276 33.1499 22.5952 33.5181 22.5669C33.158 21.2278 32.1021 20.0061 30.6822 20.0425C29.161 20.0829 27.8988 21.418 27.6602 22.8865C27.9757 22.8582 28.2913 22.8298 28.6068 22.8096L28.6109 22.8137Z" fill="black"/>
<path d="M17.5868 22.8137C17.963 21.8427 18.5011 20.9527 19.7552 21.0255C20.7463 21.0822 21.1226 21.8346 21.3936 22.6559C21.7577 22.6276 22.1259 22.5952 22.498 22.5669C22.138 21.2278 21.0821 20.0061 19.6621 20.0425C18.141 20.0829 16.8788 21.418 16.6401 22.8865C16.9557 22.8582 17.2712 22.8298 17.5868 22.8096V22.8137Z" fill="black"/>
<path d="M27.2272 23.8453C26.7862 24.7879 26.1915 25.6415 24.9455 25.4877C23.9584 25.3664 23.6348 24.5896 23.4203 23.7522C23.0562 23.7563 22.6841 23.7643 22.3159 23.7684C22.587 25.1277 23.5619 26.4142 24.9779 26.4708C26.499 26.5315 27.8461 25.2814 28.1819 23.8291C27.8664 23.8372 27.5468 23.8453 27.2312 23.8453H27.2272Z" fill="black"/>
<path d="M18.4849 24.5735C15.7339 24.5735 15.7299 28.8496 18.4849 28.8496C21.2399 28.8496 21.2399 24.5735 18.4849 24.5735Z" fill="#FF7030"/>
<path d="M31.4549 24.5735C28.7039 24.5735 28.6999 28.8496 31.4549 28.8496C34.2099 28.8496 34.2099 24.5735 31.4549 24.5735Z" fill="#FF7030"/>
</svg>
