<svg width="52" height="52" viewBox="0 0 52 52" fill="none" xmlns="http://www.w3.org/2000/svg">
<g filter="url(#filter0_dd_4198_26844)">
<path d="M49.5465 17.4668C49.5344 17.4318 49.5182 17.4055 49.506 17.3749C49.4899 17.3179 49.4696 17.261 49.4454 17.1996C48.2924 14.7464 46.3344 12.832 43.9071 11.9427C40.9053 10.8388 36.88 11.9515 34.5417 9.16971C32.6888 6.9662 32.0577 4.18004 29.5819 2.53726C27.5349 1.18361 24.9579 0.649159 22.6115 1.23618C20.5685 1.74873 18.9503 3.05857 17.8095 4.94229C16.6363 6.87858 16.082 9.79178 13.7397 10.4796C11.5632 11.1191 9.3422 10.5584 7.1374 11.4827C5.16319 12.3107 3.41553 13.8133 2.56597 15.9555C1.74877 18.0144 1.89037 20.3231 2.52147 22.4215C3.55712 25.8516 5.91161 27.1483 8.10023 29.5621C10.8835 32.6286 7.86559 34.7708 7.35585 38.0607C6.95535 40.6191 7.74018 43.5148 9.37052 45.4248C11.013 47.3479 13.5253 48.3424 15.9242 48.0488C18.4527 47.7378 19.6623 46.0249 21.4868 44.3778C25.2937 40.9301 27.543 46.1345 30.5569 48.0094C32.5311 49.236 35.0433 49.3061 37.1146 48.3161C39.3963 47.2253 40.8931 44.9692 41.1723 42.2969C41.5323 38.858 39.6431 34.9898 41.2775 31.7568C42.657 29.0364 45.7114 27.8448 47.6896 25.7333C49.8216 23.4641 50.5741 20.5421 49.5425 17.4668H49.5465Z" fill="white"/>
<path d="M34.5301 16.4872C32.1999 14.3472 29.3357 13 26.1074 13H24.918C21.8636 13 18.6555 14.3269 16.4952 16.4872C14.428 18.5545 12.8745 21.9406 13.008 24.91C13.1455 27.9886 14.1569 31.1846 16.4952 33.3327C18.8254 35.4728 21.6897 36.82 24.918 36.82H26.1074C29.1617 36.82 32.3698 35.493 34.5301 33.3327C36.5974 31.2655 38.1509 27.8794 38.0174 24.91C37.8798 21.8314 36.8684 18.6354 34.5301 16.4872Z" fill="#FFCC00"/>
<path d="M29.6109 23.8137C29.9871 22.8427 30.5251 21.9527 31.7792 22.0255C32.7704 22.0822 33.1466 22.8346 33.4177 23.6559C33.7818 23.6276 34.1499 23.5952 34.5181 23.5669C34.158 22.2278 33.1021 21.0061 31.6822 21.0425C30.161 21.0829 28.8988 22.418 28.6602 23.8865C28.9757 23.8582 29.2913 23.8298 29.6068 23.8096L29.6109 23.8137Z" fill="black"/>
<path d="M18.5868 23.8137C18.963 22.8427 19.5011 21.9527 20.7552 22.0255C21.7463 22.0822 22.1226 22.8346 22.3936 23.6559C22.7577 23.6276 23.1259 23.5952 23.498 23.5669C23.138 22.2278 22.0821 21.0061 20.6621 21.0425C19.141 21.0829 17.8788 22.418 17.6401 23.8865C17.9557 23.8582 18.2712 23.8298 18.5868 23.8096V23.8137Z" fill="black"/>
<path d="M28.2272 24.8453C27.7862 25.7879 27.1915 26.6415 25.9455 26.4877C24.9584 26.3664 24.6348 25.5896 24.4203 24.7522C24.0562 24.7563 23.6841 24.7643 23.3159 24.7684C23.587 26.1277 24.5619 27.4142 25.9779 27.4708C27.499 27.5315 28.8461 26.2814 29.1819 24.8291C28.8664 24.8372 28.5468 24.8453 28.2312 24.8453H28.2272Z" fill="black"/>
<path d="M19.4849 25.5735C16.7339 25.5735 16.7299 29.8496 19.4849 29.8496C22.2399 29.8496 22.2399 25.5735 19.4849 25.5735Z" fill="#FF7030"/>
<path d="M32.4549 25.5735C29.7039 25.5735 29.6999 29.8496 32.4549 29.8496C35.2099 29.8496 35.2099 25.5735 32.4549 25.5735Z" fill="#FF7030"/>
</g>
<defs>
<filter id="filter0_dd_4198_26844" x="-1" y="0" width="53.0002" height="52.0004" filterUnits="userSpaceOnUse" color-interpolation-filters="sRGB">
<feFlood flood-opacity="0" result="BackgroundImageFix"/>
<feColorMatrix in="SourceAlpha" type="matrix" values="0 0 0 0 0 0 0 0 0 0 0 0 0 0 0 0 0 0 127 0" result="hardAlpha"/>
<feOffset/>
<feGaussianBlur stdDeviation="0.5"/>
<feComposite in2="hardAlpha" operator="out"/>
<feColorMatrix type="matrix" values="0 0 0 0 0 0 0 0 0 0 0 0 0 0 0 0 0 0 0.2 0"/>
<feBlend mode="normal" in2="BackgroundImageFix" result="effect1_dropShadow_4198_26844"/>
<feColorMatrix in="SourceAlpha" type="matrix" values="0 0 0 0 0 0 0 0 0 0 0 0 0 0 0 0 0 0 127 0" result="hardAlpha"/>
<feOffset dy="1"/>
<feGaussianBlur stdDeviation="1"/>
<feComposite in2="hardAlpha" operator="out"/>
<feColorMatrix type="matrix" values="0 0 0 0 0 0 0 0 0 0 0 0 0 0 0 0 0 0 0.12 0"/>
<feBlend mode="normal" in2="effect1_dropShadow_4198_26844" result="effect2_dropShadow_4198_26844"/>
<feBlend mode="normal" in="SourceGraphic" in2="effect2_dropShadow_4198_26844" result="shape"/>
</filter>
</defs>
</svg>
