<svg width="52" height="52" viewBox="0 0 52 52" fill="none" xmlns="http://www.w3.org/2000/svg">
<g filter="url(#filter0_dd_4198_26821)">
<path d="M17.2772 7.93069C17.6463 8.66303 18.3333 9.11941 19.1125 9.15125C19.1433 9.15125 19.174 9.15125 19.2048 9.15125C19.9789 9.15125 20.7171 8.73201 21.1375 8.03682C21.5681 7.33102 21.5989 6.47132 21.2195 5.72306C20.9273 5.14462 20.712 4.53434 20.5633 3.85507C20.2916 2.61327 19.133 1.85971 17.9231 2.14097C16.6825 2.43284 15.9238 3.65871 16.2057 4.93235C16.4313 5.95656 16.7902 6.96485 17.2772 7.92538V7.93069Z" fill="white"/>
<path d="M22.6805 7.32559C23.1111 7.71299 23.6546 7.91996 24.2031 7.91996C24.4441 7.91996 24.6901 7.8775 24.9208 7.7979C25.6539 7.53787 26.182 6.90105 26.3358 6.09972C26.5254 5.11266 26.587 4.12559 26.5203 3.17568C26.428 1.8649 25.3361 0.909673 24.0749 1.0105C22.8497 1.10072 21.9577 2.16208 22.0448 3.4304C22.0858 4.03007 22.0602 4.58729 21.9577 5.12327C21.7987 5.95113 22.0705 6.77899 22.6805 7.3309V7.32559Z" fill="white"/>
<path d="M29.6218 9.28391C29.8012 9.28391 29.9858 9.26269 30.1652 9.21492C30.9393 9.01857 31.534 8.42421 31.7596 7.62288C31.9647 6.89055 32.2466 6.21658 32.6209 5.55323C33.0258 4.83151 33.0361 3.97711 32.6414 3.266C32.2364 2.53366 31.4776 2.07197 30.6625 2.06667C29.8628 2.06667 29.1553 2.49121 28.7503 3.20763C28.1966 4.18939 27.7609 5.24013 27.4533 6.33333C27.2277 7.12935 27.4174 7.95721 27.9608 8.55157C28.3966 9.02388 29.0015 9.28391 29.6167 9.28391H29.6218Z" fill="white"/>
<path d="M35.2355 10.9343C35.3995 10.9768 35.5687 10.9927 35.7327 10.9927C36.3274 10.9927 36.9016 10.738 37.3322 10.2604L39.2752 8.11642C39.8289 7.50614 40.0237 6.66767 39.7878 5.87165C39.552 5.05971 38.9112 4.43351 38.1217 4.24246C37.3579 4.05672 36.5735 4.30614 36.0301 4.91112L34.0871 7.05506C33.5334 7.66535 33.3386 8.50382 33.5745 9.29984C33.8103 10.1118 34.4511 10.738 35.2406 10.929L35.2355 10.9343Z" fill="white"/>
<path d="M38.3576 13.8371C38.7882 14.4899 39.4649 14.8401 40.1621 14.8401C40.5876 14.8401 41.0183 14.7075 41.4027 14.4368C42.2691 13.8265 43.1765 13.2534 44.1044 12.7386C45.1913 12.1337 45.586 10.7698 44.9965 9.63416C44.3967 8.47728 43.0535 8.05274 41.9462 8.66832C40.9157 9.24146 39.9058 9.87828 38.942 10.5629C37.8962 11.3058 37.6399 12.7439 38.3627 13.8371H38.3576Z" fill="white"/>
<path d="M41.3104 16.6657C41.577 17.727 42.4639 18.4169 43.4584 18.4169C43.6481 18.4169 43.8429 18.3904 44.0377 18.3373L46.5497 17.6634C47.7545 17.3396 48.4466 16.1032 48.1287 14.8507C47.8109 13.5877 46.6112 12.8501 45.4014 13.1791L42.8894 13.8531C41.6897 14.1768 40.9925 15.4133 41.3104 16.6657Z" fill="white"/>
<path d="M47.3238 17.796L44.3402 18.3426C43.5609 18.4859 42.9406 19.0166 42.674 19.7648C42.4023 20.5449 42.5613 21.4365 43.0893 22.0892C43.525 22.6305 44.1505 22.9277 44.8118 22.9277C44.9451 22.9277 45.0835 22.9171 45.2168 22.8905L48.2005 22.3439C49.4001 22.1264 50.1691 20.9801 49.9589 19.733C49.7333 18.4169 48.5696 17.5678 47.3187 17.796H47.3238Z" fill="white"/>
<path d="M7.10088 13.1207L9.56163 14.5005C9.89999 14.6915 10.2691 14.7871 10.6331 14.7871C11.033 14.7871 11.4328 14.6756 11.7866 14.4474C12.4838 14.0017 12.9042 13.2056 12.8836 12.3672C12.8836 12.3566 12.8836 12.3406 12.8836 12.33C13.0118 12.3566 13.1451 12.3672 13.2784 12.3672C13.5501 12.3672 13.8269 12.3194 14.0986 12.2133C15.247 11.7728 15.816 10.5045 15.3957 9.31576C14.8933 7.89884 14.1089 6.68889 13.0733 5.71244C12.4735 5.14461 11.6584 4.95888 10.8894 5.2083C10.105 5.46302 9.51037 6.13168 9.33606 6.95423C9.16689 7.74495 9.42322 8.54627 10.0076 9.10349C10.2486 9.33168 10.4537 9.57579 10.6331 9.83052L9.25917 9.06103C8.15695 8.44544 6.8138 8.85937 6.20886 10.0163C5.61418 11.1519 6.0038 12.5158 7.09063 13.126L7.10088 13.1207Z" fill="white"/>
<path d="M4.50694 19.4358L7.48547 20.0036C7.62902 20.0302 7.77256 20.0461 7.91098 20.0461C8.99268 20.0461 9.93084 19.2554 10.1359 18.0932C10.3563 16.8461 9.59249 15.6945 8.39288 15.461L5.41434 14.8932C4.15834 14.6544 2.99973 15.4929 2.76391 16.8036C2.54347 18.0507 3.30733 19.2023 4.50694 19.4358Z" fill="white"/>
<path d="M4.22493 24.8488H6.45498C7.11118 24.8488 7.72124 24.5622 8.1365 24.058C8.4851 23.6388 8.67991 23.0922 8.67991 22.5244C8.67991 21.2242 7.70074 20.2053 6.45498 20.2053H4.22493C2.97917 20.2053 2 21.2242 2 22.5244C2 23.0922 2.18968 23.6388 2.54342 24.058C2.95867 24.5569 3.57385 24.8435 4.22493 24.8435V24.8488Z" fill="white"/>
<path d="M7.94165 33.8597C8.65424 33.4988 9.1105 32.8036 9.16177 32.0023C9.21303 31.1692 8.82341 30.3572 8.13645 29.8849C7.80835 29.6567 7.43412 29.5294 7.05475 29.4975C7.76222 29.2375 8.28512 28.6484 8.46455 27.9002C8.65936 27.0776 8.41842 26.202 7.82886 25.6182C7.25981 25.0557 6.46007 24.8541 5.69108 25.0876L4.06596 25.5758C3.29185 25.8093 2.71255 26.4249 2.52287 27.2262C2.32806 28.0488 2.56901 28.9244 3.15856 29.5081C3.56869 29.9167 4.10698 30.1343 4.66065 30.1343C4.87083 30.1343 5.08615 30.1025 5.29634 30.0388L5.40912 30.007C4.71191 30.4103 4.05571 30.9038 3.44565 31.4823C2.53825 32.3473 2.48698 33.7695 3.32774 34.7141C3.784 35.2235 4.38894 35.4836 4.999 35.4836C5.54241 35.4836 6.0807 35.2766 6.51646 34.8627C6.93171 34.47 7.3931 34.141 7.93139 33.865L7.94165 33.8597ZM5.78849 28.0753C5.76798 28.1549 5.74235 28.2292 5.70646 28.2982C5.63982 28.2557 5.5783 28.208 5.52191 28.1549L5.78336 28.0753H5.78849ZM5.46552 26.9662C5.37836 26.9927 5.29121 27.0192 5.19893 27.0458C5.21944 26.9662 5.24507 26.8919 5.28096 26.8176C5.3476 26.86 5.40912 26.9078 5.46552 26.9662Z" fill="white"/>
<path d="M14.4832 39.1081C14.1808 38.3121 13.5041 37.739 12.7146 37.6169C12.3403 37.5585 11.9661 37.6063 11.6277 37.7443C11.679 37.6116 11.7251 37.4736 11.7508 37.3303C11.9148 36.4972 11.638 35.6322 11.0331 35.0803C10.4486 34.5496 9.64889 34.3851 8.89528 34.6504C7.59314 35.1068 6.45504 35.9028 5.60403 36.9536C4.78891 37.9672 4.9222 39.4318 5.91163 40.2862C6.32688 40.6471 6.82415 40.8222 7.3163 40.8222C7.93149 40.8222 8.54155 40.5463 8.97731 40.005C9.33617 39.5592 9.75142 39.2567 10.2333 39.0816L9.07471 40.5834C8.56206 41.2468 8.43389 42.1171 8.73123 42.9131C9.0337 43.7091 9.71041 44.2823 10.4999 44.4096C10.6076 44.4255 10.7152 44.4362 10.8177 44.4362C11.4586 44.4362 12.0686 44.1284 12.4941 43.5818L14.1449 41.4431C14.6575 40.7798 14.7857 39.9095 14.4884 39.1134L14.4832 39.1081Z" fill="white"/>
<path d="M26.5358 43.8896C26.5973 43.0723 26.2487 42.3134 25.6079 41.8624C24.9414 41.3954 24.0699 41.3317 23.3265 41.7031C23.3009 41.7138 23.2804 41.7297 23.2599 41.7403C23.1727 41.5758 23.0702 41.4219 22.9472 41.2786C22.3986 40.6577 21.5579 40.3924 20.7581 40.5781C19.9738 40.7585 19.3637 41.3423 19.1228 42.1436L18.9946 42.5575C19.1125 42.1171 19.1074 41.6395 18.9587 41.1884C18.6921 40.3818 18.0359 39.7821 17.2464 39.6176C16.4877 39.4637 15.7187 39.7396 15.1958 40.3605C14.4883 41.1937 13.8526 42.0852 13.3041 43.0086C12.8837 43.7144 12.853 44.5635 13.2272 45.2799C13.6117 46.0229 14.3602 46.5005 15.1804 46.5217C15.2009 46.5217 15.2266 46.5217 15.2471 46.5217C16.0161 46.5217 16.7184 46.1131 17.1336 45.4232C17.5489 44.7227 18.0205 44.07 18.5229 43.4703C18.7126 43.2474 18.851 42.9927 18.9485 42.7274L18.1846 45.2481C17.9436 46.0388 18.1179 46.8667 18.6511 47.461C19.0869 47.9493 19.7021 48.2199 20.3377 48.2199C20.5069 48.2199 20.6761 48.204 20.8402 48.1615C21.4502 48.0182 21.9526 47.6308 22.2602 47.0896C22.4704 47.7051 22.9164 48.2093 23.5213 48.4693C23.8187 48.5967 24.1314 48.6604 24.439 48.6604C24.9209 48.6604 25.3977 48.5012 25.7873 48.1987C26.3973 47.7211 26.6998 46.9569 26.6024 46.1502C26.5101 45.3967 26.4948 44.6325 26.546 43.8736L26.5358 43.8896Z" fill="white"/>
<path d="M30.7651 41.5546C30.0268 41.1778 29.1502 41.2308 28.4786 41.6978C27.8327 42.1436 27.4841 42.9025 27.5353 43.725C27.5917 44.6325 27.5661 45.4657 27.4482 46.2776C27.3251 47.1214 27.643 47.9439 28.2889 48.4746C28.7093 48.8196 29.2271 49 29.7346 49C30.0063 49 30.278 48.9469 30.5395 48.8408C31.247 48.5489 31.7391 47.8962 31.857 47.0896C32.0365 45.8371 32.0877 44.659 32.0108 43.4862C31.9596 42.6425 31.493 41.9207 30.7651 41.5493V41.5546Z" fill="white"/>
<path d="M46.7345 22.9914C46.0168 23.1187 45.2837 23.1453 44.4891 23.0763C43.2689 22.9648 42.2385 23.8723 42.136 25.13C42.0591 26.0587 42.4846 26.8866 43.1818 27.3376C42.3359 27.7197 41.7822 28.606 41.8438 29.6355C41.8899 30.4368 42.3103 31.1055 42.9203 31.4716C41.7156 31.6361 40.8595 32.7134 40.9569 33.9977C40.9927 34.4328 41.1414 34.8255 41.367 35.1492C40.4237 34.9317 39.4343 35.3615 38.9319 36.3008C38.4961 37.1181 38.573 38.0574 39.06 38.7526C38.1629 38.4023 37.1068 38.6624 36.466 39.4796C36.2199 39.7927 36.0764 40.1483 36.0149 40.5144C35.7637 40.2809 35.4663 40.1005 35.1228 40.0103C34.3333 39.7927 33.4875 40.0262 32.9082 40.6206C32.3442 41.199 32.134 42.0269 32.3391 42.8388C32.6108 43.8949 32.9543 44.9456 33.3542 45.9592C33.713 46.872 34.5743 47.4239 35.4817 47.4239C35.7739 47.4239 36.0764 47.3655 36.3635 47.2434C37.481 46.7658 37.9988 45.4869 37.5426 44.33C37.3478 43.8471 37.1786 43.3483 37.0197 42.8494L38.5781 44.1602C38.9985 44.5104 39.5009 44.6803 40.0033 44.6803C40.6749 44.6803 41.3465 44.3778 41.8027 43.794C42.5717 42.8176 42.4333 41.4272 41.4849 40.6365L40.5211 39.8298C41.2183 40.196 41.9412 40.5463 42.6948 40.8594C42.9665 40.9708 43.2382 41.0239 43.5099 41.0239C44.366 41.0239 45.1658 40.4879 45.5041 39.6017C45.9706 38.3758 45.4016 36.9854 44.2327 36.5078C43.9303 36.3804 43.6227 36.2371 43.3151 36.0939C43.9098 36.0461 44.4686 36.1151 45.0273 36.3008C45.258 36.3751 45.4887 36.4123 45.7194 36.4123C46.2526 36.4123 46.7601 36.2106 47.1651 35.8338C47.7649 35.2713 48.0315 34.401 47.8572 33.5731C47.6983 32.8036 47.1805 32.1934 46.4679 31.9121C46.5397 31.9174 46.6115 31.928 46.6781 31.928C47.7701 31.928 48.739 31.1002 48.9338 29.938C49.1081 28.8978 48.5852 27.9373 47.7085 27.5234C48.4365 27.3589 49.0209 26.8494 49.2721 26.1383C49.549 25.3582 49.3952 24.4667 48.8671 23.8086C48.3442 23.1559 47.5445 22.8534 46.7396 22.9967L46.7345 22.9914Z" fill="white"/>
<path d="M44.1404 21.8239C44.0738 21.4471 43.9917 21.0703 43.9097 20.6988C43.028 16.8779 41.249 13.2216 38.4909 10.5257C35.8405 7.93068 32.3545 6.30149 28.7402 5.77081C23.3368 4.97479 17.6361 6.66235 13.4579 10.2975C10.2692 13.073 8.00841 16.9416 7.03949 21.1234C6.13209 25.0292 6.73702 29.1738 8.39803 32.7983C10.3359 37.0279 13.7655 40.4985 17.9847 42.2285C25.8591 45.4604 35.9482 43.9267 41.2439 36.6617C42.1821 35.3774 42.9408 33.9552 43.4791 32.4428C44.6736 29.073 44.7915 25.3635 44.1507 21.8292L44.1404 21.8239Z" fill="#FFCC00"/>
<path d="M22.3369 16.4322H22.178C21.5576 16.4322 20.963 17.4935 20.9886 18.7353C21.0194 19.9824 21.5115 21.0385 22.178 21.0385H22.3369C22.9572 21.0385 23.5519 19.9771 23.5262 18.7353C23.4955 17.4882 23.0033 16.4322 22.3369 16.4322Z" fill="black"/>
<path d="M29.3039 16.4322H29.145C28.5247 16.4322 27.93 17.4935 27.9556 18.7353C27.9864 19.9824 28.4785 21.0385 29.145 21.0385H29.3039C29.9242 21.0385 30.5189 19.9771 30.4933 18.7353C30.4625 17.4882 29.9704 16.4322 29.3039 16.4322Z" fill="black"/>
<path d="M37.527 21.4312C36.9836 22.206 35.989 22.3386 35.543 21.4206C35.1995 20.7148 34.1691 21.3303 34.5126 22.0361C34.8612 22.7473 35.3995 23.124 35.989 23.2355C35.6045 28.7174 30.7087 32.4269 25.5411 32.3313C20.5888 32.2411 17.6103 28.9456 15.9852 24.472C16.7695 24.0368 17.1387 23.1824 17.2463 22.3068C17.3437 21.5214 16.1544 21.5267 16.0569 22.3015C15.939 23.2302 15.1495 23.8511 14.3754 23.1718C13.7961 22.6623 12.9451 23.5274 13.5347 24.0368C13.9089 24.3658 14.3447 24.5993 14.7958 24.6789C16.6978 30.0229 20.3735 33.7907 26.2434 33.5572C31.8724 33.329 36.8657 29.0624 37.1835 23.1187C37.7064 22.9277 38.1934 22.5615 38.5472 22.0521C38.9983 21.4099 37.973 20.7944 37.527 21.4259V21.4312Z" fill="black"/>
</g>
<defs>
<filter id="filter0_dd_4198_26821" x="0" y="0" width="52" height="52" filterUnits="userSpaceOnUse" color-interpolation-filters="sRGB">
<feFlood flood-opacity="0" result="BackgroundImageFix"/>
<feColorMatrix in="SourceAlpha" type="matrix" values="0 0 0 0 0 0 0 0 0 0 0 0 0 0 0 0 0 0 127 0" result="hardAlpha"/>
<feOffset/>
<feGaussianBlur stdDeviation="0.5"/>
<feComposite in2="hardAlpha" operator="out"/>
<feColorMatrix type="matrix" values="0 0 0 0 0 0 0 0 0 0 0 0 0 0 0 0 0 0 0.2 0"/>
<feBlend mode="normal" in2="BackgroundImageFix" result="effect1_dropShadow_4198_26821"/>
<feColorMatrix in="SourceAlpha" type="matrix" values="0 0 0 0 0 0 0 0 0 0 0 0 0 0 0 0 0 0 127 0" result="hardAlpha"/>
<feOffset dy="1"/>
<feGaussianBlur stdDeviation="1"/>
<feComposite in2="hardAlpha" operator="out"/>
<feColorMatrix type="matrix" values="0 0 0 0 0 0 0 0 0 0 0 0 0 0 0 0 0 0 0.12 0"/>
<feBlend mode="normal" in2="effect1_dropShadow_4198_26821" result="effect2_dropShadow_4198_26821"/>
<feBlend mode="normal" in="SourceGraphic" in2="effect2_dropShadow_4198_26821" result="shape"/>
</filter>
</defs>
</svg>
