<svg width="48" height="49" viewBox="0 0 48 49" fill="none" xmlns="http://www.w3.org/2000/svg">
<path d="M45.4703 11.6573C44.7707 11.537 43.9986 11.6745 43.2862 11.8163C42.4714 11.9796 41.6822 12.2846 40.7906 12.5553C41.3196 11.6917 41.8187 10.9225 42.2666 10.1233C42.7956 9.18662 42.9279 7.52374 41.8102 6.94367C40.2787 6.14875 37.122 7.90186 35.791 8.68389C33.8074 9.85693 32.1308 11.4854 30.7871 13.3589C30.7103 13.4663 30.6634 13.5909 30.6036 13.7112C30.5482 13.6682 30.4885 13.6253 30.433 13.5866C30.4671 13.4104 30.497 13.2342 30.5311 13.0624C30.9279 11.1374 31.3459 9.22099 31.7298 7.29601C32.0669 5.60735 32.5788 3.94877 31.7896 2.29878C31.427 1.54254 30.7871 0.842155 29.9595 0.730438C28.829 0.571455 27.3402 1.43512 26.7601 2.39761C26.0178 3.6351 25.4035 4.94993 24.7423 6.2218C24.6826 6.04993 24.5717 5.75344 24.4693 5.45266C23.9275 3.86713 23.3303 2.30738 22.2382 1.00544C21.1675 -0.266429 20.0797 -0.313695 18.8425 0.79489C17.7846 1.7402 17.5329 2.99487 17.486 4.3226C17.3879 7.19288 17.759 10.0116 18.5141 12.7831C18.77 13.7327 18.9577 14.6995 19.2094 15.8295C19.0174 15.6534 18.9535 15.619 18.9279 15.5631C17.7974 12.9592 16.0612 10.7507 14.3633 8.52061C12.8447 6.52258 10.9975 5.02298 8.28868 5.32376C5.9467 5.58587 4.88875 6.97375 5.85712 9.2124C6.17706 9.95146 6.66337 10.6175 7.0729 11.3179C7.25633 11.6272 7.4483 11.9194 7.57201 12.2503C7.46963 12.0053 4.93568 12.1729 4.64133 12.2116C2.49131 12.4866 0.435147 14.8284 1.68506 17.0026C2.63209 18.6526 4.73092 19.4432 6.28371 20.367C8.42519 21.6389 10.6051 22.8463 12.8191 23.9892C13.6595 24.4232 15.6346 24.8443 14.5766 25.6564C13.8258 26.2279 12.3498 26.2837 11.454 26.5244C7.99007 27.4482 4.90155 29.1154 2.08179 31.3025C1.21581 31.9728 0.47354 32.772 0.128001 33.8591C-0.213271 34.9376 0.115203 35.7884 1.20301 36.0075C2.1927 36.2094 3.24638 36.1407 4.2702 36.1192C4.70106 36.1106 5.12765 35.913 5.5969 35.7884C5.23003 36.5274 4.82903 37.1633 4.59867 37.8551C4.36831 38.5512 4.25313 39.2946 4.18488 40.0293C3.98438 42.2809 5.34094 43.0586 7.31179 42.7063C8.53184 42.4871 9.72203 41.9586 10.8525 41.4043C12.4949 40.6008 13.7021 39.2215 14.9691 37.9239C15.9161 36.9528 16.9144 36.0333 17.9254 35.0536C17.9766 35.2126 18.0107 35.2641 18.0022 35.2985C17.951 35.4747 17.8912 35.6509 17.8315 35.827C16.7992 38.8004 16.1508 41.8512 16.1166 45.0094C16.1081 45.5937 16.2617 46.2125 16.4835 46.7582C16.9997 48.0215 18.6122 48.5672 19.5891 47.2566C20.2332 46.393 20.7323 45.4176 21.2698 44.4723C21.5215 44.0254 21.7135 43.5442 22.0121 42.9125C22.1614 43.3594 22.2425 43.6129 22.3278 43.8664C22.7373 45.0738 23.3217 46.1738 24.3925 46.9215C26.0007 48.0429 27.2037 47.6949 27.9673 45.8945C28.9826 43.5012 28.9058 41.009 28.5603 38.504C28.4408 37.6317 28.1849 36.7079 28.1891 35.8399C28.1891 36.42 30.0533 38.0098 30.4671 38.4524C31.3033 39.3418 32.182 40.1926 33.1504 40.9403C34.5752 42.0403 36.4607 43.5184 38.3249 43.6602C41.7163 43.918 39.9887 38.3192 40.0569 38.0743C40.0569 38.0743 41.6353 37.5715 42.497 37.4598C43.9261 37.2751 45.1248 36.738 45.8159 35.393C47.1213 32.8493 45.3637 29.5751 43.2521 28.0884C40.074 25.8498 37.0196 26.1419 33.3893 25.5318C31.0814 25.1451 35.663 23.6369 36.1963 23.5252C39.4213 22.8291 42.6634 21.5572 45.2741 19.4947C46.5581 18.4807 47.791 17.3506 47.9531 15.5932C48.1493 13.4276 47.6843 12.0526 45.4618 11.6745L45.4703 11.6573Z" fill="#FF8120"/>
<path d="M27.8649 15.4085C24.6442 14.1495 20.6641 14.4546 17.6524 16.1432C15.9844 17.08 14.952 18.2143 14.3975 19.5635C12.0512 23.1299 12.7594 28.5396 15.7839 31.8267C19.8322 36.2224 27.3872 36.5833 31.4867 32.1447C36.3498 26.8767 34.6136 18.0596 27.8649 15.4128V15.4085Z" fill="#FFE065"/>
<path d="M19.2775 29.2486C22.2935 31.3412 26.2438 31.281 29.1872 29.081C29.5456 28.8146 29.1958 28.2002 28.8332 28.4709C26.0688 30.5334 22.4684 30.6064 19.6316 28.6384C19.2605 28.3806 18.9107 28.9908 19.2775 29.2486Z" fill="black"/>
<path d="M24.175 27.0873C23.5351 27.0873 23.5351 28.0885 24.175 28.0885C24.8149 28.0885 24.8149 27.0873 24.175 27.0873Z" fill="black"/>
<path d="M22.7671 21.9526C22.5496 21.0545 21.9822 20.2897 21.2015 19.8127C20.3611 19.2971 19.3288 19.3143 18.45 19.6881C16.6285 20.4616 15.8905 22.6658 16.5005 24.4963C16.6626 24.9861 16.9356 25.4201 17.3281 25.7467C18.3434 26.7951 19.909 27.2033 21.257 26.4256C22.7927 25.5361 23.1638 23.5725 22.7714 21.9526H22.7671Z" fill="white"/>
<path d="M19.7554 27.0743C18.8254 27.0743 17.8869 26.679 17.1489 25.9184C16.7607 25.5962 16.4493 25.1278 16.2659 24.5735C15.5791 22.4981 16.4963 20.2509 18.3519 19.4603C19.3672 19.0306 20.4764 19.0822 21.3253 19.5978C22.1742 20.1177 22.7671 20.9298 23.0018 21.888C23.4028 23.5466 23.0572 25.6606 21.3722 26.6317C20.8646 26.9239 20.31 27.0657 19.7512 27.0657L19.7554 27.0743ZM19.7512 19.6622C19.3544 19.6622 18.9406 19.7439 18.5439 19.9157C16.9442 20.5946 16.1337 22.6142 16.7309 24.4188C16.8887 24.8915 17.1404 25.2739 17.4817 25.5575C18.3477 26.4469 19.7981 26.984 21.1333 26.2106C22.5965 25.3641 22.8909 23.4907 22.5325 22.0083C22.332 21.1747 21.8159 20.47 21.0778 20.0189C20.6897 19.7825 20.2289 19.6622 19.7512 19.6622Z" fill="black"/>
<path d="M31.5679 21.9354C31.3503 21.0373 30.7829 20.2725 30.0023 19.7956C29.1619 19.2799 28.1295 19.2971 27.2508 19.6709C25.4292 20.4444 24.6955 22.6487 25.3012 24.4791C25.4633 24.9689 25.7364 25.4029 26.1288 25.7295C27.1441 26.7779 28.7097 27.1861 30.0577 26.4084C31.5935 25.5189 31.9646 23.5553 31.5721 21.9354H31.5679Z" fill="white"/>
<path d="M28.5561 27.0572C27.6261 27.0572 26.6876 26.6619 25.9539 25.9014C25.5657 25.5791 25.2543 25.1107 25.0708 24.5565C24.384 22.4811 25.3012 20.2338 27.1569 19.4432C28.1722 19.0135 29.2813 19.0651 30.1302 19.5807C30.9791 20.1006 31.5721 20.9127 31.8067 21.8709C32.2077 23.5295 31.8622 25.6436 30.1771 26.6146C29.6695 26.9068 29.1149 27.0486 28.5561 27.0486V27.0572ZM28.5518 19.6452C28.1551 19.6452 27.7413 19.7268 27.3488 19.8987C25.7491 20.5776 24.9343 22.5971 25.5316 24.4018C25.6894 24.8744 25.9411 25.2568 26.2824 25.5404C27.1483 26.4299 28.5987 26.967 29.934 26.1935C31.3972 25.3471 31.6915 23.4736 31.3332 21.9912C31.1327 21.1577 30.6165 20.453 29.8785 20.0018C29.4903 19.7655 29.0296 19.6452 28.5518 19.6452Z" fill="black"/>
<path d="M20.6258 24.2815C20.7495 23.8174 20.8049 23.3361 20.7708 22.8678C20.7068 22.0643 20.4978 21.3252 19.9261 20.728C19.4313 20.208 18.7573 19.9202 18.0619 19.8944C16.5305 20.801 15.9418 22.8076 16.5006 24.5006C16.6627 24.9904 16.9357 25.4244 17.3282 25.751C17.6055 26.0389 17.9297 26.2752 18.2752 26.4557C18.288 26.4557 18.3008 26.4557 18.3136 26.4514C18.4373 26.4428 18.5483 26.4299 18.6549 26.4041C18.6805 26.3998 18.7018 26.3912 18.7274 26.3869C18.753 26.3783 18.7786 26.374 18.8042 26.3697C18.817 26.3697 18.8255 26.3611 18.8383 26.3568C19.2393 26.2494 19.6147 26.0603 19.9219 25.751C20.2845 25.3857 20.566 24.8229 20.6258 24.2857V24.2815Z" fill="black"/>
<path d="M28.573 20.6463C27.8478 20.2123 26.9435 20.1393 26.1543 20.4315C25.1603 21.4627 24.8318 23.0783 25.2968 24.4834C25.4589 24.9732 25.7319 25.4072 26.1244 25.7338C26.4614 26.0818 26.8624 26.3611 27.2933 26.5459C27.5748 26.5373 27.8478 26.4771 28.1251 26.3611C28.3939 26.2451 28.6072 26.1033 28.7991 25.9271C29.1105 25.6908 29.3878 25.4072 29.567 25.0592C29.9765 24.2643 30.1472 23.392 29.9339 22.5069C29.7462 21.742 29.2428 21.0502 28.5688 20.6506L28.573 20.6463Z" fill="black"/>
<path d="M20.4123 23.2545C21.7902 23.2545 21.7902 21.1018 20.4123 21.1018C19.0344 21.1018 19.0344 23.2545 20.4123 23.2545Z" fill="white"/>
<path d="M28.4492 21.9612V22.017C28.4492 22.5799 28.9398 23.1213 29.52 23.0955C30.1001 23.0697 30.5907 22.6229 30.5907 22.017V21.9612C30.5907 21.3983 30.1001 20.8569 29.52 20.8827C28.9398 20.9084 28.4492 21.3553 28.4492 21.9612Z" fill="white"/>
</svg>
