<svg width="52" height="53" viewBox="0 0 52 53" fill="none" xmlns="http://www.w3.org/2000/svg">
<g filter="url(#filter0_dd_4198_26781)">
<path d="M47.4703 12.6573C46.7707 12.537 45.9986 12.6745 45.2862 12.8163C44.4714 12.9796 43.6822 13.2846 42.7906 13.5553C43.3196 12.6917 43.8187 11.9226 44.2666 11.1233C44.7956 10.1866 44.9279 8.52375 43.8102 7.94368C42.2787 7.14876 39.122 8.90187 37.791 9.6839C35.8074 10.8569 34.1308 12.4854 32.7871 14.3589C32.7103 14.4663 32.6634 14.5909 32.6036 14.7112C32.5482 14.6682 32.4885 14.6253 32.433 14.5866C32.4671 14.4104 32.497 14.2343 32.5311 14.0624C32.9279 12.1374 33.3459 10.221 33.7298 8.29602C34.0669 6.60736 34.5788 4.94878 33.7896 3.29879C33.427 2.54255 32.7871 1.84216 31.9595 1.73045C30.829 1.57146 29.3402 2.43513 28.7601 3.39762C28.0178 4.63511 27.4035 5.94994 26.7423 7.22181C26.6826 7.04993 26.5717 6.75345 26.4693 6.45267C25.9275 4.86714 25.3303 3.30739 24.2382 2.00544C23.1675 0.733578 22.0797 0.686313 20.8425 1.7949C19.7846 2.7402 19.5329 3.99488 19.486 5.3226C19.3879 8.19289 19.759 11.0116 20.5141 13.7831C20.77 14.7327 20.9577 15.6995 21.2094 16.8295C21.0174 16.6534 20.9535 16.619 20.9279 16.5631C19.7974 13.9593 18.0612 11.7507 16.3633 9.52062C14.8447 7.52259 12.9975 6.02299 10.2887 6.32377C7.9467 6.58587 6.88875 7.97375 7.85712 10.2124C8.17706 10.9515 8.66337 11.6175 9.0729 12.3179C9.25633 12.6272 9.4483 12.9194 9.57201 13.2503C9.46963 13.0054 6.93568 13.1729 6.64133 13.2116C4.49131 13.4866 2.43515 15.8284 3.68506 18.0026C4.63209 19.6526 6.73092 20.4432 8.28371 21.367C10.4252 22.6389 12.6051 23.8463 14.8191 24.9892C15.6595 25.4232 17.6346 25.8443 16.5766 26.6564C15.8258 27.2279 14.3498 27.2838 13.454 27.5244C9.99007 28.4482 6.90155 30.1154 4.08179 32.3025C3.21581 32.9728 2.47354 33.772 2.128 34.8591C1.78673 35.9376 2.1152 36.7884 3.20301 37.0075C4.1927 37.2095 5.24638 37.1407 6.2702 37.1192C6.70106 37.1106 7.12765 36.913 7.5969 36.7884C7.23003 37.5274 6.82903 38.1634 6.59867 38.8551C6.36831 39.5512 6.25313 40.2946 6.18488 41.0293C5.98438 43.2809 7.34094 44.0586 9.31179 43.7063C10.5318 43.4871 11.722 42.9586 12.8525 42.4043C14.4949 41.6008 15.7021 40.2215 16.9691 38.9239C17.9161 37.9528 18.9144 37.0333 19.9254 36.0536C19.9766 36.2126 20.0107 36.2641 20.0022 36.2985C19.951 36.4747 19.8912 36.6509 19.8315 36.827C18.7992 39.8004 18.1508 42.8512 18.1166 46.0094C18.1081 46.5938 18.2617 47.2125 18.4835 47.7582C18.9997 49.0215 20.6122 49.5672 21.5891 48.2566C22.2332 47.393 22.7323 46.4176 23.2698 45.4723C23.5215 45.0254 23.7135 44.5442 24.0121 43.9125C24.1614 44.3594 24.2425 44.6129 24.3278 44.8664C24.7373 46.0738 25.3217 47.1738 26.3925 47.9215C28.0007 49.0429 29.2037 48.6949 29.9673 46.8945C30.9826 44.5012 30.9058 42.009 30.5603 39.504C30.4408 38.6317 30.1849 37.7079 30.1891 36.8399C30.1891 37.42 32.0533 39.0098 32.4671 39.4524C33.3033 40.3419 34.182 41.1926 35.1504 41.9403C36.5752 43.0403 38.4607 44.5184 40.3249 44.6602C43.7163 44.918 41.9887 39.3192 42.0569 39.0743C42.0569 39.0743 43.6353 38.5716 44.497 38.4598C45.9261 38.2751 47.1248 37.738 47.8159 36.3931C49.1213 33.8493 47.3637 30.5751 45.2521 29.0884C42.074 26.8498 39.0196 27.142 35.3893 26.5318C33.0814 26.1451 37.663 24.6369 38.1963 24.5252C41.4213 23.8291 44.6634 22.5572 47.2741 20.4947C48.5581 19.4807 49.791 18.3506 49.9531 16.5932C50.1493 14.4276 49.6843 13.0526 47.4618 12.6745L47.4703 12.6573Z" fill="white"/>
<path d="M29.8649 16.4085C26.6442 15.1495 22.6641 15.4546 19.6524 17.1432C17.9844 18.08 16.952 19.2143 16.3975 20.5635C14.0512 24.1299 14.7594 29.5396 17.7839 32.8267C21.8322 37.2224 29.3872 37.5833 33.4867 33.1447C38.3498 27.8768 36.6136 19.0596 29.8649 16.4128V16.4085Z" fill="#FFCC00"/>
<path d="M21.2775 30.2486C24.2935 32.3412 28.2438 32.281 31.1872 30.081C31.5456 29.8146 31.1958 29.2002 30.8332 29.4709C28.0688 31.5334 24.4684 31.6064 21.6316 29.6384C21.2605 29.3806 20.9107 29.9908 21.2775 30.2486Z" fill="black"/>
<path d="M26.175 28.0873C25.5351 28.0873 25.5351 29.0885 26.175 29.0885C26.8149 29.0885 26.8149 28.0873 26.175 28.0873Z" fill="black"/>
<path d="M24.7671 22.9526C24.5496 22.0545 23.9822 21.2897 23.2015 20.8127C22.3611 20.2971 21.3288 20.3143 20.45 20.6881C18.6285 21.4616 17.8905 23.6658 18.5005 25.4963C18.6626 25.9861 18.9356 26.4201 19.3281 26.7467C20.3434 27.7951 21.909 28.2033 23.257 27.4256C24.7927 26.5361 25.1638 24.5725 24.7714 22.9526H24.7671Z" fill="white"/>
<path d="M21.7554 28.0743C20.8254 28.0743 19.8869 27.679 19.1489 26.9184C18.7607 26.5962 18.4493 26.1278 18.2659 25.5735C17.5791 23.4981 18.4963 21.2509 20.3519 20.4603C21.3672 20.0306 22.4764 20.0822 23.3253 20.5978C24.1742 21.1177 24.7671 21.9298 25.0018 22.888C25.4028 24.5466 25.0572 26.6606 23.3722 27.6317C22.8646 27.9239 22.31 28.0657 21.7512 28.0657L21.7554 28.0743ZM21.7512 20.6622C21.3544 20.6622 20.9406 20.7439 20.5439 20.9157C18.9442 21.5946 18.1337 23.6142 18.7309 25.4188C18.8887 25.8915 19.1404 26.2739 19.4817 26.5575C20.3477 27.4469 21.7981 27.984 23.1333 27.2106C24.5965 26.3641 24.8909 24.4907 24.5325 23.0083C24.332 22.1747 23.8159 21.47 23.0778 21.0189C22.6897 20.7825 22.2289 20.6622 21.7512 20.6622Z" fill="black"/>
<path d="M33.5679 22.9354C33.3503 22.0373 32.7829 21.2725 32.0023 20.7956C31.1619 20.2799 30.1295 20.2971 29.2508 20.6709C27.4292 21.4444 26.6955 23.6487 27.3012 25.4791C27.4633 25.9689 27.7364 26.4029 28.1288 26.7295C29.1441 27.7779 30.7097 28.1861 32.0577 27.4084C33.5935 26.5189 33.9646 24.5553 33.5721 22.9354H33.5679Z" fill="white"/>
<path d="M30.5561 28.0572C29.6261 28.0572 28.6876 27.6619 27.9539 26.9014C27.5657 26.5791 27.2543 26.1107 27.0708 25.5565C26.384 23.4811 27.3012 21.2338 29.1569 20.4432C30.1722 20.0135 31.2813 20.0651 32.1302 20.5807C32.9791 21.1006 33.5721 21.9127 33.8067 22.8709C34.2077 24.5295 33.8622 26.6436 32.1771 27.6146C31.6695 27.9068 31.1149 28.0486 30.5561 28.0486V28.0572ZM30.5518 20.6452C30.1551 20.6452 29.7413 20.7268 29.3488 20.8987C27.7491 21.5776 26.9343 23.5971 27.5316 25.4018C27.6894 25.8744 27.9411 26.2568 28.2824 26.5404C29.1483 27.4299 30.5987 27.967 31.934 27.1935C33.3972 26.3471 33.6915 24.4736 33.3332 22.9912C33.1327 22.1577 32.6165 21.453 31.8785 21.0018C31.4903 20.7655 31.0296 20.6452 30.5518 20.6452Z" fill="black"/>
<path d="M22.6258 25.2815C22.7495 24.8174 22.8049 24.3361 22.7708 23.8678C22.7068 23.0643 22.4978 22.3252 21.9261 21.728C21.4313 21.208 20.7573 20.9202 20.0619 20.8944C18.5305 21.801 17.9418 23.8076 18.5006 25.5006C18.6627 25.9904 18.9357 26.4244 19.3282 26.751C19.6055 27.0389 19.9297 27.2752 20.2752 27.4557C20.288 27.4557 20.3008 27.4557 20.3136 27.4514C20.4373 27.4428 20.5483 27.4299 20.6549 27.4041C20.6805 27.3998 20.7018 27.3912 20.7274 27.3869C20.753 27.3783 20.7786 27.374 20.8042 27.3697C20.817 27.3697 20.8255 27.3611 20.8383 27.3568C21.2393 27.2494 21.6147 27.0603 21.9219 26.751C22.2845 26.3857 22.566 25.8229 22.6258 25.2857V25.2815Z" fill="black"/>
<path d="M30.573 21.6463C29.8478 21.2123 28.9435 21.1393 28.1543 21.4315C27.1603 22.4627 26.8318 24.0783 27.2968 25.4834C27.4589 25.9732 27.7319 26.4072 28.1244 26.7338C28.4614 27.0818 28.8624 27.3611 29.2933 27.5459C29.5748 27.5373 29.8478 27.4771 30.1251 27.3611C30.3939 27.2451 30.6072 27.1033 30.7991 26.9271C31.1105 26.6908 31.3878 26.4072 31.567 26.0592C31.9765 25.2643 32.1472 24.392 31.9339 23.5069C31.7462 22.742 31.2428 22.0502 30.5688 21.6506L30.573 21.6463Z" fill="black"/>
<path d="M22.4123 24.2545C23.7902 24.2545 23.7902 22.1018 22.4123 22.1018C21.0344 22.1018 21.0344 24.2545 22.4123 24.2545Z" fill="white"/>
<path d="M30.4492 22.9612V23.017C30.4492 23.5799 30.9398 24.1213 31.52 24.0955C32.1001 24.0697 32.5907 23.6229 32.5907 23.017V22.9612C32.5907 22.3983 32.1001 21.8569 31.52 21.8827C30.9398 21.9084 30.4492 22.3553 30.4492 22.9612Z" fill="white"/>
</g>
<defs>
<filter id="filter0_dd_4198_26781" x="-0.000976562" y="0" width="52.001" height="52.0112" filterUnits="userSpaceOnUse" color-interpolation-filters="sRGB">
<feFlood flood-opacity="0" result="BackgroundImageFix"/>
<feColorMatrix in="SourceAlpha" type="matrix" values="0 0 0 0 0 0 0 0 0 0 0 0 0 0 0 0 0 0 127 0" result="hardAlpha"/>
<feOffset/>
<feGaussianBlur stdDeviation="0.5"/>
<feComposite in2="hardAlpha" operator="out"/>
<feColorMatrix type="matrix" values="0 0 0 0 0 0 0 0 0 0 0 0 0 0 0 0 0 0 0.2 0"/>
<feBlend mode="normal" in2="BackgroundImageFix" result="effect1_dropShadow_4198_26781"/>
<feColorMatrix in="SourceAlpha" type="matrix" values="0 0 0 0 0 0 0 0 0 0 0 0 0 0 0 0 0 0 127 0" result="hardAlpha"/>
<feOffset dy="1"/>
<feGaussianBlur stdDeviation="1"/>
<feComposite in2="hardAlpha" operator="out"/>
<feColorMatrix type="matrix" values="0 0 0 0 0 0 0 0 0 0 0 0 0 0 0 0 0 0 0.12 0"/>
<feBlend mode="normal" in2="effect1_dropShadow_4198_26781" result="effect2_dropShadow_4198_26781"/>
<feBlend mode="normal" in="SourceGraphic" in2="effect2_dropShadow_4198_26781" result="shape"/>
</filter>
</defs>
</svg>
