<svg width="48" height="48" viewBox="0 0 48 48" fill="none" xmlns="http://www.w3.org/2000/svg">
<path d="M15.2772 6.93069C15.6463 7.66303 16.3333 8.11941 17.1125 8.15125C17.1433 8.15125 17.174 8.15125 17.2048 8.15125C17.9789 8.15125 18.7171 7.73201 19.1375 7.03682C19.5681 6.33102 19.5989 5.47132 19.2195 4.72306C18.9273 4.14462 18.712 3.53434 18.5633 2.85507C18.2916 1.61327 17.133 0.859709 15.9231 1.14097C14.6825 1.43284 13.9238 2.65871 14.2057 3.93235C14.4313 4.95656 14.7902 5.96485 15.2772 6.92538V6.93069Z" fill="white"/>
<path d="M20.6805 6.32559C21.1111 6.71299 21.6546 6.91996 22.2031 6.91996C22.4441 6.91996 22.6901 6.8775 22.9208 6.7979C23.6539 6.53787 24.182 5.90105 24.3358 5.09972C24.5254 4.11266 24.587 3.12559 24.5203 2.17568C24.428 0.864897 23.3361 -0.0903266 22.0749 0.0105026C20.8497 0.100718 19.9577 1.16208 20.0448 2.4304C20.0858 3.03007 20.0602 3.58729 19.9577 4.12327C19.7987 4.95113 20.0705 5.77899 20.6805 6.3309V6.32559Z" fill="white"/>
<path d="M27.6218 8.28391C27.8012 8.28391 27.9858 8.26269 28.1652 8.21492C28.9393 8.01857 29.534 7.42421 29.7596 6.62288C29.9647 5.89055 30.2466 5.21658 30.6209 4.55323C31.0258 3.83151 31.0361 2.97711 30.6414 2.266C30.2364 1.53366 29.4776 1.07197 28.6625 1.06667C27.8628 1.06667 27.1553 1.49121 26.7503 2.20763C26.1966 3.18939 25.7609 4.24013 25.4533 5.33333C25.2277 6.12935 25.4174 6.95721 25.9608 7.55157C26.3966 8.02388 27.0015 8.28391 27.6167 8.28391H27.6218Z" fill="white"/>
<path d="M33.2355 9.93433C33.3995 9.97679 33.5687 9.99271 33.7327 9.99271C34.3274 9.99271 34.9016 9.73798 35.3322 9.26037L37.2752 7.11642C37.8289 6.50614 38.0237 5.66767 37.7878 4.87165C37.552 4.05971 36.9112 3.43351 36.1217 3.24246C35.3579 3.05672 34.5735 3.30614 34.0301 3.91112L32.0871 6.05506C31.5334 6.66535 31.3386 7.50382 31.5745 8.29984C31.8103 9.11178 32.4511 9.73798 33.2406 9.92903L33.2355 9.93433Z" fill="white"/>
<path d="M36.3576 12.8371C36.7882 13.4899 37.4649 13.8401 38.1621 13.8401C38.5876 13.8401 39.0183 13.7075 39.4027 13.4368C40.2691 12.8265 41.1765 12.2534 42.1044 11.7386C43.1913 11.1337 43.586 9.76982 42.9965 8.63416C42.3967 7.47728 41.0535 7.05274 39.9462 7.66832C38.9157 8.24146 37.9058 8.87828 36.942 9.56285C35.8962 10.3058 35.6399 11.7439 36.3627 12.8371H36.3576Z" fill="white"/>
<path d="M39.3104 15.6657C39.577 16.727 40.4639 17.4169 41.4584 17.4169C41.6481 17.4169 41.8429 17.3904 42.0377 17.3373L44.5497 16.6634C45.7545 16.3396 46.4466 15.1032 46.1287 13.8507C45.8109 12.5877 44.6112 11.8501 43.4014 12.1791L40.8894 12.8531C39.6897 13.1768 38.9925 14.4133 39.3104 15.6657Z" fill="white"/>
<path d="M45.3238 16.796L42.3402 17.3426C41.5609 17.4859 40.9406 18.0166 40.674 18.7648C40.4023 19.5449 40.5613 20.4365 41.0893 21.0892C41.525 21.6305 42.1505 21.9277 42.8118 21.9277C42.9451 21.9277 43.0835 21.9171 43.2168 21.8905L46.2005 21.3439C47.4001 21.1264 48.1691 19.9801 47.9589 18.733C47.7333 17.4169 46.5696 16.5678 45.3187 16.796H45.3238Z" fill="white"/>
<path d="M5.10088 12.1207L7.56163 13.5005C7.89999 13.6915 8.2691 13.7871 8.63308 13.7871C9.03296 13.7871 9.43283 13.6756 9.78656 13.4474C10.4838 13.0017 10.9042 12.2056 10.8836 11.3672C10.8836 11.3566 10.8836 11.3406 10.8836 11.33C11.0118 11.3566 11.1451 11.3672 11.2784 11.3672C11.5501 11.3672 11.8269 11.3194 12.0986 11.2133C13.247 10.7728 13.816 9.50448 13.3957 8.31576C12.8933 6.89884 12.1089 5.68889 11.0733 4.71244C10.4735 4.14461 9.6584 3.95888 8.88941 4.2083C8.10505 4.46302 7.51037 5.13168 7.33606 5.95423C7.16689 6.74495 7.42322 7.54627 8.00764 8.10349C8.24859 8.33168 8.45366 8.57579 8.63308 8.83052L7.25917 8.06103C6.15695 7.44544 4.8138 7.85937 4.20886 9.01626C3.61418 10.1519 4.0038 11.5158 5.09063 12.126L5.10088 12.1207Z" fill="white"/>
<path d="M2.50694 18.4358L5.48547 19.0036C5.62902 19.0302 5.77256 19.0461 5.91098 19.0461C6.99268 19.0461 7.93084 18.2554 8.13591 17.0932C8.35635 15.8461 7.59249 14.6945 6.39288 14.461L3.41434 13.8932C2.15834 13.6544 0.999732 14.4929 0.76391 15.8036C0.543468 17.0507 1.30733 18.2023 2.50694 18.4358Z" fill="white"/>
<path d="M2.22493 23.8488H4.45498C5.11118 23.8488 5.72124 23.5622 6.1365 23.058C6.4851 22.6388 6.67991 22.0922 6.67991 21.5244C6.67991 20.2242 5.70074 19.2053 4.45498 19.2053H2.22493C0.979173 19.2053 0 20.2242 0 21.5244C0 22.0922 0.189683 22.6388 0.543416 23.058C0.958667 23.5569 1.57385 23.8435 2.22493 23.8435V23.8488Z" fill="white"/>
<path d="M5.94165 32.8597C6.65424 32.4988 7.1105 31.8036 7.16177 31.0023C7.21303 30.1692 6.82341 29.3572 6.13645 28.8849C5.80835 28.6567 5.43412 28.5294 5.05475 28.4975C5.76222 28.2375 6.28512 27.6484 6.46455 26.9002C6.65936 26.0776 6.41842 25.202 5.82886 24.6182C5.25981 24.0557 4.46007 23.8541 3.69108 24.0876L2.06596 24.5758C1.29185 24.8093 0.712552 25.4249 0.522869 26.2262C0.32806 27.0488 0.569008 27.9244 1.15856 28.5081C1.56869 28.9167 2.10698 29.1343 2.66065 29.1343C2.87083 29.1343 3.08615 29.1025 3.29634 29.0388L3.40912 29.007C2.71191 29.4103 2.05571 29.9038 1.44565 30.4823C0.538249 31.3473 0.486983 32.7695 1.32774 33.7141C1.784 34.2235 2.38894 34.4836 2.999 34.4836C3.54241 34.4836 4.0807 34.2766 4.51646 33.8627C4.93171 33.47 5.3931 33.141 5.93139 32.865L5.94165 32.8597ZM3.78849 27.0753C3.76798 27.1549 3.74235 27.2292 3.70646 27.2982C3.63982 27.2557 3.5783 27.208 3.52191 27.1549L3.78336 27.0753H3.78849ZM3.46552 25.9662C3.37836 25.9927 3.29121 26.0192 3.19893 26.0458C3.21944 25.9662 3.24507 25.8919 3.28096 25.8176C3.3476 25.86 3.40912 25.9078 3.46552 25.9662Z" fill="white"/>
<path d="M12.4832 38.1081C12.1808 37.3121 11.5041 36.739 10.7146 36.6169C10.3403 36.5585 9.9661 36.6063 9.62774 36.7443C9.67901 36.6116 9.72515 36.4736 9.75078 36.3303C9.91483 35.4972 9.638 34.6322 9.03306 34.0803C8.44863 33.5496 7.64889 33.3851 6.89528 33.6504C5.59314 34.1068 4.45504 34.9028 3.60403 35.9536C2.78891 36.9672 2.9222 38.4318 3.91163 39.2862C4.32688 39.6471 4.82415 39.8222 5.3163 39.8222C5.93149 39.8222 6.54155 39.5463 6.97731 39.005C7.33617 38.5592 7.75142 38.2567 8.23332 38.0816L7.07471 39.5834C6.56206 40.2468 6.43389 41.1171 6.73123 41.9131C7.0337 42.7091 7.71041 43.2823 8.4999 43.4096C8.60756 43.4255 8.71521 43.4362 8.81775 43.4362C9.45857 43.4362 10.0686 43.1284 10.4941 42.5818L12.1449 40.4431C12.6575 39.7798 12.7857 38.9095 12.4884 38.1134L12.4832 38.1081Z" fill="white"/>
<path d="M24.5358 42.8896C24.5973 42.0723 24.2487 41.3134 23.6079 40.8624C22.9414 40.3954 22.0699 40.3317 21.3265 40.7031C21.3009 40.7138 21.2804 40.7297 21.2599 40.7403C21.1727 40.5758 21.0702 40.4219 20.9472 40.2786C20.3986 39.6577 19.5579 39.3924 18.7581 39.5781C17.9738 39.7585 17.3637 40.3423 17.1228 41.1436L16.9946 41.5575C17.1125 41.1171 17.1074 40.6395 16.9587 40.1884C16.6921 39.3818 16.0359 38.7821 15.2464 38.6176C14.4877 38.4637 13.7187 38.7396 13.1958 39.3605C12.4883 40.1937 11.8526 41.0852 11.3041 42.0086C10.8837 42.7144 10.853 43.5635 11.2272 44.2799C11.6117 45.0229 12.3602 45.5005 13.1804 45.5217C13.2009 45.5217 13.2266 45.5217 13.2471 45.5217C14.0161 45.5217 14.7184 45.1131 15.1336 44.4232C15.5489 43.7227 16.0205 43.07 16.5229 42.4703C16.7126 42.2474 16.851 41.9927 16.9485 41.7274L16.1846 44.2481C15.9436 45.0388 16.1179 45.8667 16.6511 46.461C17.0869 46.9493 17.7021 47.2199 18.3377 47.2199C18.5069 47.2199 18.6761 47.204 18.8402 47.1615C19.4502 47.0182 19.9526 46.6308 20.2602 46.0896C20.4704 46.7051 20.9164 47.2093 21.5213 47.4693C21.8187 47.5967 22.1314 47.6604 22.439 47.6604C22.9209 47.6604 23.3977 47.5012 23.7873 47.1987C24.3973 46.7211 24.6998 45.9569 24.6024 45.1502C24.5101 44.3967 24.4948 43.6325 24.546 42.8736L24.5358 42.8896Z" fill="white"/>
<path d="M28.7651 40.5546C28.0268 40.1778 27.1502 40.2308 26.4786 40.6978C25.8327 41.1436 25.4841 41.9025 25.5353 42.725C25.5917 43.6325 25.5661 44.4657 25.4482 45.2776C25.3251 46.1214 25.643 46.9439 26.2889 47.4746C26.7093 47.8196 27.2271 48 27.7346 48C28.0063 48 28.278 47.9469 28.5395 47.8408C29.247 47.5489 29.7391 46.8962 29.857 46.0896C30.0365 44.8371 30.0877 43.659 30.0108 42.4862C29.9596 41.6425 29.493 40.9207 28.7651 40.5493V40.5546Z" fill="white"/>
<path d="M44.7345 21.9914C44.0168 22.1187 43.2837 22.1453 42.4891 22.0763C41.2689 21.9648 40.2385 22.8723 40.136 24.13C40.0591 25.0587 40.4846 25.8866 41.1818 26.3376C40.3359 26.7197 39.7822 27.606 39.8438 28.6355C39.8899 29.4368 40.3103 30.1055 40.9203 30.4716C39.7156 30.6361 38.8595 31.7134 38.9569 32.9977C38.9927 33.4328 39.1414 33.8255 39.367 34.1492C38.4237 33.9317 37.4343 34.3615 36.9319 35.3008C36.4961 36.1181 36.573 37.0574 37.06 37.7526C36.1629 37.4023 35.1068 37.6624 34.466 38.4796C34.2199 38.7927 34.0764 39.1483 34.0149 39.5144C33.7637 39.2809 33.4663 39.1005 33.1228 39.0103C32.3333 38.7927 31.4875 39.0262 30.9082 39.6206C30.3442 40.199 30.134 41.0269 30.3391 41.8388C30.6108 42.8949 30.9543 43.9456 31.3542 44.9592C31.713 45.872 32.5743 46.4239 33.4817 46.4239C33.7739 46.4239 34.0764 46.3655 34.3635 46.2434C35.481 45.7658 35.9988 44.4869 35.5426 43.33C35.3478 42.8471 35.1786 42.3483 35.0197 41.8494L36.5781 43.1602C36.9985 43.5104 37.5009 43.6803 38.0033 43.6803C38.6749 43.6803 39.3465 43.3778 39.8027 42.794C40.5717 41.8176 40.4333 40.4272 39.4849 39.6365L38.5211 38.8298C39.2183 39.196 39.9412 39.5463 40.6948 39.8594C40.9665 39.9708 41.2382 40.0239 41.5099 40.0239C42.366 40.0239 43.1658 39.4879 43.5041 38.6017C43.9706 37.3758 43.4016 35.9854 42.2327 35.5078C41.9303 35.3804 41.6227 35.2371 41.3151 35.0939C41.9098 35.0461 42.4686 35.1151 43.0273 35.3008C43.258 35.3751 43.4887 35.4123 43.7194 35.4123C44.2526 35.4123 44.7601 35.2106 45.1651 34.8338C45.7649 34.2713 46.0315 33.401 45.8572 32.5731C45.6983 31.8036 45.1805 31.1934 44.4679 30.9121C44.5397 30.9174 44.6115 30.928 44.6781 30.928C45.7701 30.928 46.739 30.1002 46.9338 28.938C47.1081 27.8978 46.5852 26.9373 45.7085 26.5234C46.4365 26.3589 47.0209 25.8494 47.2721 25.1383C47.549 24.3582 47.3952 23.4667 46.8671 22.8086C46.3442 22.1559 45.5445 21.8534 44.7396 21.9967L44.7345 21.9914Z" fill="white"/>
<path d="M42.1404 20.8239C42.0738 20.4471 41.9917 20.0703 41.9097 19.6988C41.028 15.8779 39.249 12.2216 36.4909 9.5257C33.8405 6.93068 30.3545 5.30149 26.7402 4.77081C21.3368 3.97479 15.6361 5.66235 11.4579 9.29751C8.26923 12.073 6.00841 15.9416 5.03949 20.1234C4.13209 24.0292 4.73702 28.1738 6.39803 31.7983C8.33587 36.0279 11.7655 39.4985 15.9847 41.2285C23.8591 44.4604 33.9482 42.9267 39.2439 35.6617C40.1821 34.3774 40.9408 32.9552 41.4791 31.4428C42.6736 28.073 42.7915 24.3635 42.1507 20.8292L42.1404 20.8239Z" fill="#FFCC00"/>
<path d="M20.3369 15.4322H20.178C19.5576 15.4322 18.963 16.4935 18.9886 17.7353C19.0194 18.9824 19.5115 20.0385 20.178 20.0385H20.3369C20.9572 20.0385 21.5519 18.9771 21.5262 17.7353C21.4955 16.4882 21.0033 15.4322 20.3369 15.4322Z" fill="black"/>
<path d="M27.3039 15.4322H27.145C26.5247 15.4322 25.93 16.4935 25.9556 17.7353C25.9864 18.9824 26.4785 20.0385 27.145 20.0385H27.3039C27.9242 20.0385 28.5189 18.9771 28.4933 17.7353C28.4625 16.4882 27.9704 15.4322 27.3039 15.4322Z" fill="black"/>
<path d="M35.527 20.4312C34.9836 21.206 33.989 21.3386 33.543 20.4206C33.1995 19.7148 32.1691 20.3303 32.5126 21.0361C32.8612 21.7473 33.3995 22.124 33.989 22.2355C33.6045 27.7174 28.7087 31.4269 23.5411 31.3313C18.5888 31.2411 15.6103 27.9456 13.9852 23.472C14.7695 23.0368 15.1387 22.1824 15.2463 21.3068C15.3437 20.5214 14.1544 20.5267 14.0569 21.3015C13.939 22.2302 13.1495 22.8511 12.3754 22.1718C11.7961 21.6623 10.9451 22.5274 11.5347 23.0368C11.9089 23.3658 12.3447 23.5993 12.7958 23.6789C14.6978 29.0229 18.3735 32.7907 24.2434 32.5572C29.8724 32.329 34.8657 28.0624 35.1835 22.1187C35.7064 21.9277 36.1934 21.5615 36.5472 21.0521C36.9983 20.4099 35.973 19.7944 35.527 20.4259V20.4312Z" fill="black"/>
</svg>
