<?xml version="1.0" encoding="UTF-8"?>
<svg width="29px" height="29px" viewBox="0 0 29 29" version="1.1" xmlns="http://www.w3.org/2000/svg" xmlns:xlink="http://www.w3.org/1999/xlink">
    <title>Oval Copy 9</title>
    <g id="회원-아버지-링크" stroke="none" stroke-width="1" fill="none" fill-rule="evenodd">
        <g id="link-1" transform="translate(-898.000000, -31.000000)" fill="#333333">
            <g id="Group-25" transform="translate(602.000000, -35.000000)">
                <path d="M310.5,66 C318.508129,66 325,72.4918711 325,80.5 C325,88.5081289 318.508129,95 310.5,95 C302.491871,95 296,88.5081289 296,80.5 C296,72.4918711 302.491871,66 310.5,66 Z M305.960864,82.3798841 L303.711203,82.3798841 L303.719874,85.0642472 C303.720405,88.0038669 306.104239,90.3887613 309.044919,90.3892916 C311.985599,90.3887613 314.370494,88.0038669 314.369963,85.0642472 L314.361823,82.3793538 L312.111632,82.3798841 L312.119242,85.0631866 C312.120303,86.7591822 310.740915,88.1385707 309.043858,88.1385707 C307.349454,88.1391011 305.969535,86.7591822 305.969535,85.0642472 L305.960864,82.3798841 Z M310,82.5028687 L308,82.5028687 L308,85 C308,85.5522847 308.447715,86 309,86 C309.552285,86 310,85.5522847 310,85 L310,82.5028687 Z M316.441219,72.55925 C314.360719,70.48025 310.988719,70.48025 308.909719,72.55925 L307.016219,74.4756763 L308.606969,76.0664263 L310.501219,74.15 C311.699719,72.9515 313.650469,72.9515 314.847469,74.15075 C316.048969,75.34925 316.048969,77.3 314.850469,78.4985 L312.956969,80.4149263 L314.547719,82.0056763 L316.441219,80.09 C318.519469,78.01025 318.519469,74.63825 316.441219,72.55925 Z M313.280734,75.7442597 C312.89021,75.3537354 312.257045,75.3537354 311.866521,75.7442597 L310.100782,77.5099982 L311.514996,78.9242118 L313.280734,77.1584733 C313.671258,76.767949 313.671258,76.134784 313.280734,75.7442597 Z" id="Oval-Copy-9"></path>
            </g>
        </g>
    </g>
</svg>