<?xml version="1.0" encoding="UTF-8"?>
<svg width="17px" height="17px" viewBox="0 0 17 17" version="1.1" xmlns="http://www.w3.org/2000/svg" xmlns:xlink="http://www.w3.org/1999/xlink">
    <title>Shape</title>
    <g id="회원-아버지-링크" stroke="none" stroke-width="1" fill="none" fill-rule="evenodd">
        <g id="link-1" transform="translate(-902.000000, -69.000000)" fill="#FFFFFF" fill-rule="nonzero">
            <path d="M914.217719,82.72175 L914.547719,85.03475 L913.466969,85.18775 L913.138469,82.8755 L914.217719,82.72175 Z M906.450969,74.0057373 L908.041719,75.5964873 L906.149719,77.50075 C904.951219,78.69925 904.951219,80.65075 906.149719,81.8485 C907.349719,83.0485 909.300469,83.0485 910.498969,81.8485 L912.390969,79.9457373 L913.982469,81.5364873 L912.089719,83.44075 C910.011469,85.51975 906.638719,85.51975 904.558969,83.44075 C902.479969,81.361 902.480719,77.989 904.558969,75.91 L906.450969,74.0057373 Z M915.365219,81.5855 L917.018969,83.2385 L916.247219,84.01025 L914.594969,82.35725 L915.365219,81.5855 Z M915.876719,80.138 L918.189719,80.46725 L918.034469,81.548 L915.721469,81.21875 L915.876719,80.138 Z M908.909719,71.55925 C910.988719,69.48025 914.360719,69.48025 916.441219,71.55925 C918.519469,73.63825 918.519469,77.01025 916.441219,79.09 L914.547719,81.0056763 L912.956969,79.4149263 L914.850469,77.4985 C916.048969,76.3 916.048969,74.34925 914.847469,73.15075 C913.650469,71.9515 911.699719,71.9515 910.501219,73.15 L908.606969,75.0664263 L907.016219,73.4756763 Z M913.327826,74.7766666 C913.71835,75.1671909 913.71835,75.8003559 913.327826,76.1908802 L909.085185,80.4335209 C908.694661,80.8240452 908.061496,80.8240452 907.670971,80.4335209 C907.280447,80.0429966 907.280447,79.4098316 907.670971,79.0193073 L911.913612,74.7766666 C912.304136,74.3861423 912.937301,74.3861423 913.327826,74.7766666 Z M902.964219,73.44975 L905.277219,73.77975 L905.122719,74.85975 L902.809719,74.5305 L902.964219,73.44975 Z M904.751469,70.98825 L906.404469,72.63975 L905.633469,73.41225 L903.979719,71.76 L904.751469,70.98825 Z M907.530969,69.81 L907.859469,72.12225 L906.780969,72.276 L906.450969,69.963 L907.530969,69.81 Z" id="Shape"></path>
        </g>
    </g>
</svg>