<?xml version="1.0" encoding="UTF-8"?>
<svg width="14px" height="18px" viewBox="0 0 14 18" version="1.1" xmlns="http://www.w3.org/2000/svg" xmlns:xlink="http://www.w3.org/1999/xlink">
    <title>Shape Copy</title>
    <g id="회원-아버지-링크" stroke="none" stroke-width="1" fill="none" fill-rule="evenodd">
        <g id="link-2" transform="translate(-1105.000000, -438.000000)" fill="#F2E837" fill-rule="nonzero">
            <path d="M1106.06175,437.915619 L1108.66616,440.520022 L1105.56854,443.637715 C1103.60634,445.59992 1103.60634,448.79495 1105.56854,450.755927 C1107.5332,452.720588 1110.727,452.720588 1112.68921,450.755927 L1115.78683,447.640691 L1118.39246,450.245095 L1115.29361,453.362787 C1111.89107,456.766562 1106.36914,456.766562 1102.96414,453.362787 C1099.56036,449.957784 1099.56159,444.437086 1102.96414,441.033311 L1106.06175,437.915619 Z M1111.83414,443.763158 L1112.7353,444.66432 C1113.12583,445.054844 1113.12583,445.688009 1112.7353,446.078533 L1109.92396,448.88988 C1109.53343,449.280404 1108.90027,449.280404 1108.50974,448.88988 L1107.60858,447.988718 C1107.21806,447.598194 1107.21806,446.965029 1107.60858,446.574504 L1110.41993,443.763158 C1110.81045,443.372634 1111.44362,443.372634 1111.83414,443.763158 Z" id="Shape-Copy" transform="translate(1109.402112, 446.915619) scale(-1, -1) rotate(45.000000) translate(-1109.402112, -446.915619) "></path>
        </g>
    </g>
</svg>