<?xml version="1.0" encoding="UTF-8"?>
<svg width="28px" height="28px" viewBox="0 0 28 28" version="1.1" xmlns="http://www.w3.org/2000/svg" xmlns:xlink="http://www.w3.org/1999/xlink">
    <title>Group 36</title>
    <g id="회원-아버지-링크" stroke="none" stroke-width="1" fill="none" fill-rule="evenodd">
        <g id="link-1" transform="translate(-902.000000, -33.000000)">
            <g id="Group-36" transform="translate(902.000000, 33.000000)">
                <rect id="Rectangle" opacity="0.200000003" x="0" y="0" width="28" height="28"></rect>
                <path d="M8.90971876,4.55925 C10.9887188,2.48025 14.3607188,2.48025 16.4412188,4.55925 C18.5194688,6.63825 18.5194688,10.01025 16.4412188,12.09 L14.5477188,14.0056763 L12.9569688,12.4149263 L14.8504688,10.4985 C16.0489688,9.3 16.0489688,7.34925 14.8474688,6.15075 C13.6504688,4.9515 11.6997188,4.9515 10.5012188,6.15 L8.60696876,8.06642627 L7.01621876,6.47567627 Z M13.2807342,7.74425973 C13.6712585,8.13478402 13.6712585,8.767949 13.2807342,9.15847329 L11.5149957,10.9242118 L10.1007821,9.50999824 L11.8665206,7.74425973 C12.2570449,7.35373544 12.8902099,7.35373544 13.2807342,7.74425973 Z" id="Shape" fill="#FFFFFF" fill-rule="nonzero"></path>
            </g>
        </g>
    </g>
</svg>