<?xml version="1.0" encoding="UTF-8"?>
<svg width="52px" height="29px" viewBox="0 0 52 29" version="1.1" xmlns="http://www.w3.org/2000/svg" xmlns:xlink="http://www.w3.org/1999/xlink">
    <title>Group 7</title>
    <g id="sub" stroke="none" stroke-width="1" fill="none" fill-rule="evenodd">
        <g id="Market-Copy-10" transform="translate(-666.000000, -366.000000)" fill="#BFA98A" fill-rule="nonzero">
            <g id="Bitmap" transform="translate(595.000000, 281.000000)">
                <g id="Group-7" transform="translate(71.318500, 85.744000)">
                    <g id="특징" transform="translate(13.561500, 17.148000)">
                        <path d="M8.25,4.158 L1.628,4.158 L1.628,0.374 L8.041,0.374 L8.041,0.88 L2.244,0.88 L2.244,1.98 L7.821,1.98 L7.821,2.486 L2.244,2.486 L2.244,3.652 L8.25,3.652 L8.25,4.158 Z M7.425,10.12 L7.425,7.37 L1.54,7.37 L1.54,6.82 L8.041,6.82 L8.041,10.12 L7.425,10.12 Z M9.79,5.247 L9.79,5.786 L0,5.786 L0,5.247 L9.79,5.247 Z" id="Shape"></path>
                        <path d="M18.986,8.151 C18.986,8.503 18.909,8.811 18.777,9.086 C18.623,9.361 18.425,9.603 18.183,9.812 C17.919,10.01 17.622,10.175 17.292,10.285 C16.951,10.395 16.588,10.45 16.192,10.45 C15.796,10.45 15.433,10.395 15.103,10.285 C14.762,10.175 14.465,10.01 14.223,9.812 C13.97,9.603 13.772,9.361 13.64,9.086 C13.486,8.811 13.42,8.503 13.42,8.151 C13.42,7.799 13.486,7.48 13.64,7.194 C13.772,6.919 13.97,6.677 14.234,6.468 C14.476,6.27 14.773,6.116 15.114,6.006 C15.444,5.896 15.796,5.841 16.192,5.841 C16.577,5.841 16.94,5.896 17.292,6.006 C17.622,6.116 17.919,6.27 18.183,6.468 C18.425,6.677 18.623,6.919 18.777,7.194 C18.909,7.48 18.986,7.799 18.986,8.151 Z M18.37,8.151 C18.37,7.887 18.315,7.645 18.205,7.425 C18.095,7.216 17.941,7.029 17.743,6.875 C17.545,6.721 17.314,6.6 17.05,6.512 C16.786,6.435 16.5,6.391 16.192,6.391 C15.884,6.391 15.609,6.435 15.356,6.512 C15.092,6.6 14.861,6.721 14.674,6.875 C14.476,7.029 14.322,7.216 14.212,7.425 C14.091,7.645 14.036,7.887 14.036,8.151 C14.036,8.415 14.091,8.657 14.212,8.866 C14.322,9.086 14.476,9.273 14.674,9.427 C14.872,9.57 15.103,9.691 15.367,9.779 C15.62,9.856 15.895,9.9 16.192,9.9 C16.489,9.9 16.775,9.856 17.039,9.779 C17.303,9.691 17.534,9.57 17.732,9.416 C17.93,9.262 18.084,9.086 18.205,8.866 C18.315,8.657 18.37,8.415 18.37,8.151 Z M19.096,5.621 L18.48,5.621 L18.48,0 L19.096,0 L19.096,5.621 Z M13.629,1.023 L11.407,1.023 L11.407,0.484 L16.533,0.484 L16.533,1.023 L14.3,1.023 L14.3,1.584 C14.311,1.936 14.399,2.255 14.564,2.563 C14.718,2.882 14.916,3.168 15.169,3.432 C15.411,3.696 15.686,3.938 16.005,4.147 C16.313,4.367 16.621,4.543 16.951,4.686 C16.874,4.752 16.797,4.818 16.731,4.884 C16.654,4.961 16.577,5.038 16.511,5.104 C16.225,4.983 15.961,4.829 15.708,4.653 C15.444,4.488 15.213,4.301 14.993,4.092 C14.773,3.894 14.575,3.685 14.41,3.443 C14.234,3.212 14.091,2.97 13.981,2.717 C13.75,3.267 13.409,3.773 12.958,4.224 C12.496,4.686 11.99,5.049 11.429,5.324 C11.352,5.258 11.275,5.181 11.209,5.104 C11.132,5.038 11.055,4.972 10.989,4.906 C11.319,4.752 11.638,4.543 11.957,4.29 C12.265,4.048 12.551,3.784 12.804,3.476 C13.046,3.19 13.244,2.882 13.398,2.552 C13.541,2.233 13.618,1.914 13.629,1.606 L13.629,1.023 Z" id="Shape"></path>
                    </g>
                    <g id="Design">
                        <path d="M0,9.256 L0,8.528 L1.183,8.528 L1.183,0.884 L0,0.884 L0,0.156 L1.599,0.156 C1.76366667,0.156 1.9565,0.151666667 2.1775,0.143 C2.3985,0.134333333 2.626,0.1235 2.86,0.1105 C3.094,0.0975 3.31716667,0.0845 3.5295,0.0715 C3.74183333,0.0585 3.92166667,0.052 4.069,0.052 C4.875,0.052 5.58566667,0.153833333 6.201,0.3575 C6.81633333,0.561166667 7.332,0.855833333 7.748,1.2415 C8.164,1.62716667 8.47816667,2.10166667 8.6905,2.665 C8.90283333,3.22833333 9.009,3.86966667 9.009,4.589 C9.009,5.28233333 8.90933333,5.91933333 8.71,6.5 C8.51066667,7.08066667 8.19866667,7.5855 7.774,8.0145 C7.34933333,8.4435 6.8055,8.77716667 6.1425,9.0155 C5.4795,9.25383333 4.68866667,9.373 3.77,9.373 C3.63133333,9.373 3.471,9.3665 3.289,9.3535 C3.107,9.3405 2.91416667,9.3275 2.7105,9.3145 C2.50683333,9.3015 2.301,9.2885 2.093,9.2755 C1.885,9.2625 1.69,9.256 1.508,9.256 L0,9.256 Z M3.874,0.78 C3.63133333,0.78 3.39733333,0.784333333 3.172,0.793 C2.94666667,0.801666667 2.769,0.819 2.639,0.845 L2.639,8.593 C2.691,8.60166667 2.77766667,8.60816667 2.899,8.6125 C3.02033333,8.61683333 3.1525,8.62116667 3.2955,8.6255 C3.4385,8.62983333 3.575,8.63416667 3.705,8.6385 C3.835,8.64283333 3.926,8.645 3.978,8.645 C4.628,8.645 5.16966667,8.5345 5.603,8.3135 C6.03633333,8.0925 6.38516667,7.79783333 6.6495,7.4295 C6.91383333,7.06116667 7.10233333,6.63216667 7.215,6.1425 C7.32766667,5.65283333 7.384,5.135 7.384,4.589 C7.384,4.16433333 7.32983333,3.72666667 7.2215,3.276 C7.11316667,2.82533333 6.92466667,2.41366667 6.656,2.041 C6.38733333,1.66833333 6.02766667,1.365 5.577,1.131 C5.12633333,0.897 4.55866667,0.78 3.874,0.78 Z" id="Shape"></path>
                        <polygon id="Path" points="17.082 0.156 17.082 2.288 16.25 2.288 16.25 1.17 15.99 0.884 12.805 0.884 12.805 4.251 15.002 4.251 15.197 4.056 15.197 3.51 16.029 3.51 16.029 5.733 15.197 5.733 15.197 5.187 15.002 4.979 12.805 4.979 12.805 8.528 16.211 8.528 16.471 8.268 16.471 6.994 17.303 6.994 17.303 9.256 10.166 9.256 10.166 8.528 11.349 8.528 11.349 0.884 10.166 0.884 10.166 0.156"></polygon>
                        <path d="M19.773,7.982 L20.007,8.294 C20.163,8.40666667 20.3775,8.49983333 20.6505,8.5735 C20.9235,8.64716667 21.2246667,8.684 21.554,8.684 C21.866,8.684 22.1541667,8.6515 22.4185,8.5865 C22.6828333,8.5215 22.9146667,8.424 23.114,8.294 C23.3133333,8.164 23.4693333,7.99933333 23.582,7.8 C23.6946667,7.60066667 23.751,7.36233333 23.751,7.085 C23.751,6.72966667 23.6318333,6.435 23.3935,6.201 C23.1551667,5.967 22.8583333,5.759 22.503,5.577 C22.1476667,5.395 21.762,5.21733333 21.346,5.044 C20.93,4.87066667 20.5443333,4.667 20.189,4.433 C19.8336667,4.199 19.5368333,3.91733333 19.2985,3.588 C19.0601667,3.25866667 18.941,2.84266667 18.941,2.34 C18.941,1.60333333 19.2205,1.02916667 19.7795,0.6175 C20.3385,0.205833333 21.0946667,0 22.048,0 C22.646,0 23.1616667,0.039 23.595,0.117 C24.0283333,0.195 24.3966667,0.299 24.7,0.429 L24.7,2.665 L23.868,2.665 L23.868,1.261 L23.66,0.936 C23.4953333,0.866666667 23.257,0.814666667 22.945,0.78 C22.633,0.745333333 22.3253333,0.728 22.022,0.728 C21.502,0.728 21.0946667,0.847166667 20.8,1.0855 C20.5053333,1.32383333 20.358,1.65966667 20.358,2.093 C20.358,2.44833333 20.4771667,2.74516667 20.7155,2.9835 C20.9538333,3.22183333 21.2506667,3.43633333 21.606,3.627 C21.9613333,3.81766667 22.347,4.00183333 22.763,4.1795 C23.179,4.35716667 23.5646667,4.56083333 23.92,4.7905 C24.2753333,5.02016667 24.5721667,5.29533333 24.8105,5.616 C25.0488333,5.93666667 25.168,6.33533333 25.168,6.812 C25.168,7.65266667 24.843,8.29616667 24.193,8.7425 C23.543,9.18883333 22.6546667,9.412 21.528,9.412 C20.9126667,9.412 20.3796667,9.347 19.929,9.217 C19.4783333,9.087 19.149,8.94833333 18.941,8.801 L18.941,6.435 L19.773,6.435 L19.773,7.982 Z" id="Path"></path>
                        <polygon id="Path" points="30.381 9.256 26.559 9.256 26.559 8.528 27.742 8.528 27.742 0.884 26.559 0.884 26.559 0.156 30.381 0.156 30.381 0.884 29.198 0.884 29.198 8.528 30.381 8.528"></polygon>
                        <path d="M39.754,8.632 C39.572,8.736 39.364,8.83566667 39.13,8.931 C38.896,9.02633333 38.6511667,9.10866667 38.3955,9.178 C38.1398333,9.24733333 37.882,9.30366667 37.622,9.347 C37.362,9.39033333 37.1106667,9.412 36.868,9.412 C36.062,9.412 35.3448333,9.31883333 34.7165,9.1325 C34.0881667,8.94616667 33.5573333,8.66016667 33.124,8.2745 C32.6906667,7.88883333 32.3613333,7.39916667 32.136,6.8055 C31.9106667,6.21183333 31.798,5.512 31.798,4.706 C31.798,3.85666667 31.9345,3.133 32.2075,2.535 C32.4805,1.937 32.8423333,1.4495 33.293,1.0725 C33.7436667,0.6955 34.2615,0.4225 34.8465,0.2535 C35.4315,0.0845 36.0316667,0 36.647,0 C37.2883333,0 37.817,0.0433333333 38.233,0.13 C38.649,0.216666667 39.0216667,0.333666667 39.351,0.481 L39.351,2.704 L38.519,2.704 L38.519,1.339 L38.337,1.079 C38.259,1.03566667 38.1593333,0.998833333 38.038,0.9685 C37.9166667,0.938166667 37.7888333,0.912166667 37.6545,0.8905 C37.5201667,0.868833333 37.3815,0.853666667 37.2385,0.845 C37.0955,0.836333333 36.9633333,0.832 36.842,0.832 C36.3653333,0.832 35.919,0.905666667 35.503,1.053 C35.087,1.20033333 34.7251667,1.43 34.4175,1.742 C34.1098333,2.054 33.8671667,2.45483333 33.6895,2.9445 C33.5118333,3.43416667 33.423,4.02133333 33.423,4.706 C33.423,5.93666667 33.7285,6.89 34.3395,7.566 C34.9505,8.242 35.828,8.58 36.972,8.58 C37.258,8.58 37.5028333,8.5605 37.7065,8.5215 C37.9101667,8.4825 38.09,8.43266667 38.246,8.372 L38.441,8.138 L38.441,5.681 L37.063,5.681 L37.063,4.953 L40.664,4.953 L40.664,5.681 L39.754,5.681 L39.754,8.632 Z" id="Path"></path>
                        <polygon id="Path" points="48.165 0.156 51.363 0.156 51.363 0.884 50.18 0.884 50.18 9.412 49.335 9.412 44.044 2.275 43.472 1.274 43.42 1.274 43.55 2.288 43.55 8.528 44.733 8.528 44.733 9.256 41.535 9.256 41.535 8.528 42.718 8.528 42.718 0.884 41.535 0.884 41.535 0.156 44.135 0.156 48.685 6.279 49.361 7.397 49.426 7.397 49.348 6.279 49.348 0.884 48.165 0.884"></polygon>
                    </g>
                </g>
            </g>
        </g>
    </g>
</svg>