<?xml version="1.0" encoding="UTF-8"?>
<svg width="442px" height="48px" viewBox="0 0 442 48" version="1.1" xmlns="http://www.w3.org/2000/svg" xmlns:xlink="http://www.w3.org/1999/xlink">
    <title>Group 11@2x</title>
    <defs>
        <linearGradient x1="14.418972%" y1="47.4721177%" x2="82.6182548%" y2="53.4399355%" id="linearGradient-1">
            <stop stop-color="#9D8D78" stop-opacity="0.642974213" offset="0%"></stop>
            <stop stop-color="#A69377" offset="100%"></stop>
        </linearGradient>
        <linearGradient x1="17.6757812%" y1="7.3964497%" x2="50%" y2="92.6035503%" id="linearGradient-2">
            <stop stop-color="#978973" stop-opacity="0.7129316" offset="0%"></stop>
            <stop stop-color="#9E8F77" stop-opacity="0.732271635" offset="37.0274257%"></stop>
            <stop stop-color="#A9987F" offset="100%"></stop>
        </linearGradient>
        <linearGradient x1="14.418972%" y1="47.4721177%" x2="82.6182548%" y2="53.4399355%" id="linearGradient-3">
            <stop stop-color="#A69377" stop-opacity="0.56793597" offset="0%"></stop>
            <stop stop-color="#A59277" stop-opacity="0.61956403" offset="13.4970498%"></stop>
            <stop stop-color="#9D8D78" stop-opacity="0.642974213" offset="100%"></stop>
        </linearGradient>
    </defs>
    <g id="sub" stroke="none" stroke-width="1" fill="none" fill-rule="evenodd">
        <g id="Market-Copy-10" transform="translate(-769.000000, -986.000000)">
            <g id="Group-11" transform="translate(769.000000, 986.000000)">
                <rect id="Rectangle" stroke="url(#linearGradient-1)" stroke-width="0.5" x="64.25" y="0.25" width="182.5" height="47.5" rx="8"></rect>
                <rect id="Rectangle" fill="url(#linearGradient-2)" x="0" y="0" width="52" height="48" rx="8"></rect>
                <g id="iconmonstr-zoom-in-thin" transform="translate(19.000000, 17.000000)" fill="#000000">
                    <path d="M9.908125,10.35 C8.85625,11.298125 7.46375,11.875 5.9375,11.875 C2.660625,11.875 0,9.214375 0,5.9375 C0,2.660625 2.660625,0 5.9375,0 C9.214375,0 11.875,2.660625 11.875,5.9375 C11.875,7.46375 11.298125,8.85625 10.35,9.908125 L15,14.558125 L14.558125,15 L9.908125,10.35 Z M5.9375,0.625 C8.869375,0.625 11.25,3.005625 11.25,5.9375 C11.25,8.869375 8.869375,11.25 5.9375,11.25 C3.005625,11.25 0.625,8.869375 0.625,5.9375 C0.625,3.005625 3.005625,0.625 5.9375,0.625 Z M3.125,5.625 L5.625,5.625 L5.625,3.125 L6.25,3.125 L6.25,5.625 L8.75,5.625 L8.75,6.25 L6.25,6.25 L6.25,8.75 L5.625,8.75 L5.625,6.25 L3.125,6.25 L3.125,5.625 Z" id="Shape"></path>
                </g>
                <text id="view" font-family="PTSerif-Caption, PT Serif Caption" font-size="11" font-weight="normal" fill="#BFA98A">
                    <tspan x="140.215" y="28">VIEW</tspan>
                </text>
                <rect id="Rectangle" stroke="url(#linearGradient-3)" stroke-width="0.5" x="259.25" y="0.25" width="182.5" height="47.5" rx="8"></rect>
                <g id="iconmonstr-heart-thin" transform="translate(322.000000, 18.000000)" fill="#BFA98A">
                    <path d="M6,10.2965 C3.185,7.527 0.5,5.148 0.5,3.0955 C0.5,1.2 2.034,0.5 3.1405,0.5 C3.7965,0.5 5.216,0.7505 6,2.7285 C6.795,0.7445 8.232,0.505 8.863,0.505 C10.133,0.505 11.5,1.3155 11.5,3.0955 C11.5,5.13 8.932,7.408 6,10.2965 M8.863,0.005 C7.7615,0.005 6.64,0.526 6,1.624 C5.3575,0.521 4.239,0 3.1405,0 C1.549,0 0,1.0935 0,3.0955 C0,5.426 2.7855,7.81 6,11 C9.215,7.81 12,5.426 12,3.0955 C12,1.09 10.4525,0.005 8.863,0.005" id="Shape"></path>
                </g>
                <text id="4,639" font-family="PTSerif-Caption, PT Serif Caption" font-size="12" font-weight="normal" fill="#BFA98A">
                    <tspan x="340.686" y="28">4,639</tspan>
                </text>
            </g>
        </g>
    </g>
</svg>