<?xml version="1.0" encoding="UTF-8"?>
<svg width="76px" height="29px" viewBox="0 0 76 29" version="1.1" xmlns="http://www.w3.org/2000/svg" xmlns:xlink="http://www.w3.org/1999/xlink">
    <title>Group 7</title>
    <g id="sub" stroke="none" stroke-width="1" fill="none" fill-rule="evenodd">
        <g id="Market-Copy-10" transform="translate(-654.000000, -366.000000)" fill="#BFA98A" fill-rule="nonzero">
            <g id="Bitmap" transform="translate(595.000000, 281.000000)">
                <g id="Group-7" transform="translate(59.775610, 85.424390)">
                    <g id="가치있는" transform="translate(15.116390, 17.467610)">
                        <path d="M7.634,4.598 L7.634,10.34 L7.018,10.34 L7.018,0 L7.634,0 L7.634,4.059 L9.504,4.059 L9.504,4.598 L7.634,4.598 Z M0,6.875 C0.55,6.677 1.089,6.391 1.595,6.039 C2.09,5.698 2.541,5.291 2.937,4.829 C3.322,4.367 3.641,3.861 3.894,3.3 C4.136,2.75 4.279,2.156 4.323,1.518 L0.363,1.518 L0.363,0.979 L5.005,0.979 C5.005,1.76 4.884,2.486 4.642,3.146 C4.389,3.828 4.059,4.433 3.652,4.961 C3.234,5.511 2.75,5.973 2.2,6.369 C1.65,6.765 1.067,7.084 0.462,7.304 L0,6.875 Z" id="Shape"></path>
                        <path d="M16.577,7.194 C16.5,7.26 16.423,7.326 16.357,7.392 C16.28,7.469 16.203,7.535 16.137,7.601 C15.851,7.392 15.576,7.161 15.312,6.897 C15.037,6.644 14.784,6.369 14.553,6.072 C14.311,5.786 14.091,5.489 13.915,5.159 C13.717,4.851 13.563,4.521 13.453,4.18 C13.354,4.51 13.211,4.84 13.035,5.17 C12.848,5.5 12.639,5.819 12.408,6.116 C12.166,6.424 11.902,6.721 11.638,6.985 C11.352,7.26 11.077,7.502 10.791,7.711 C10.714,7.645 10.648,7.579 10.582,7.502 C10.505,7.436 10.428,7.359 10.351,7.293 C11.121,6.71 11.77,6.006 12.309,5.192 C12.474,4.939 12.617,4.686 12.727,4.433 C12.826,4.191 12.914,3.938 12.98,3.685 C13.035,3.443 13.079,3.19 13.101,2.926 C13.123,2.673 13.134,2.409 13.134,2.123 L10.747,2.123 L10.747,1.584 L13.156,1.584 L13.156,0.099 L13.772,0.099 L13.772,1.584 L16.192,1.584 L16.192,2.123 L13.783,2.123 L13.783,2.607 C13.783,3.069 13.86,3.52 14.014,3.949 C14.168,4.389 14.377,4.807 14.641,5.192 C14.894,5.588 15.191,5.951 15.532,6.281 C15.862,6.633 16.203,6.93 16.577,7.194 Z M18.524,10.34 L17.908,10.34 L17.908,0 L18.524,0 L18.524,10.34 Z" id="Shape"></path>
                        <path d="M26.268,2.695 C26.268,3.047 26.202,3.366 26.081,3.652 C25.949,3.949 25.784,4.202 25.564,4.4 C25.344,4.609 25.08,4.763 24.783,4.873 C24.475,4.994 24.156,5.049 23.804,5.049 C23.452,5.049 23.122,4.994 22.825,4.884 C22.517,4.774 22.264,4.62 22.044,4.411 C21.813,4.213 21.637,3.96 21.516,3.663 C21.384,3.377 21.329,3.058 21.329,2.695 C21.329,2.343 21.384,2.024 21.516,1.727 C21.637,1.441 21.813,1.199 22.044,0.99 C22.264,0.792 22.517,0.627 22.825,0.517 C23.122,0.407 23.452,0.352 23.804,0.352 C24.156,0.352 24.475,0.407 24.783,0.517 C25.08,0.638 25.344,0.803 25.564,1.001 C25.784,1.21 25.949,1.452 26.081,1.738 C26.202,2.024 26.268,2.343 26.268,2.695 Z M25.652,2.695 C25.652,2.431 25.597,2.178 25.509,1.958 C25.41,1.738 25.278,1.551 25.124,1.386 C24.948,1.232 24.761,1.111 24.541,1.023 C24.31,0.946 24.068,0.902 23.815,0.902 C23.551,0.902 23.309,0.946 23.089,1.023 C22.858,1.111 22.66,1.232 22.495,1.386 C22.319,1.54 22.187,1.727 22.099,1.947 C21.989,2.178 21.945,2.431 21.945,2.695 C21.945,2.981 21.989,3.223 22.088,3.443 C22.176,3.663 22.308,3.85 22.484,4.004 C22.638,4.169 22.836,4.29 23.078,4.367 C23.298,4.455 23.551,4.499 23.815,4.499 C24.079,4.499 24.321,4.455 24.552,4.367 C24.772,4.29 24.959,4.169 25.135,4.004 C25.289,3.85 25.421,3.663 25.52,3.432 C25.608,3.212 25.652,2.97 25.652,2.695 Z M29.854,9.746 C29.777,9.801 29.7,9.867 29.634,9.933 C29.557,9.999 29.48,10.054 29.414,10.12 C29.04,9.878 28.71,9.581 28.424,9.218 C28.127,8.855 27.885,8.437 27.698,7.975 C27.632,8.14 27.522,8.327 27.39,8.536 C27.247,8.756 27.093,8.976 26.917,9.185 C26.741,9.383 26.554,9.581 26.378,9.757 C26.18,9.922 26.015,10.043 25.861,10.109 L25.861,10.12 C25.674,9.988 25.498,9.845 25.322,9.691 C25.135,9.515 24.959,9.339 24.805,9.163 C24.64,8.987 24.497,8.789 24.376,8.58 C24.244,8.382 24.134,8.184 24.068,7.975 C23.87,8.437 23.628,8.855 23.342,9.218 C23.045,9.581 22.715,9.878 22.352,10.12 C22.275,10.054 22.198,9.999 22.132,9.933 C22.055,9.867 21.978,9.801 21.912,9.746 C22.143,9.592 22.374,9.416 22.594,9.218 C22.803,9.009 22.99,8.778 23.166,8.525 C23.331,8.272 23.463,7.997 23.573,7.689 C23.672,7.392 23.727,7.073 23.749,6.732 L23.749,6.149 L24.354,6.149 L24.354,6.688 C24.354,6.985 24.387,7.26 24.475,7.513 C24.552,7.777 24.662,8.03 24.805,8.25 C24.937,8.492 25.091,8.701 25.278,8.888 C25.454,9.086 25.652,9.262 25.872,9.427 C26.048,9.284 26.235,9.119 26.422,8.943 C26.598,8.767 26.763,8.558 26.917,8.316 C27.06,8.096 27.181,7.843 27.28,7.557 C27.368,7.293 27.412,6.996 27.412,6.688 L27.412,6.149 L28.017,6.149 L28.017,6.732 C28.017,7.084 28.083,7.403 28.193,7.7 C28.292,8.008 28.424,8.283 28.6,8.536 C28.754,8.789 28.952,9.02 29.172,9.218 C29.381,9.416 29.612,9.592 29.854,9.746 Z M29.084,5.489 L28.468,5.489 L28.468,0 L29.084,0 L29.084,5.489 Z" id="Shape"></path>
                        <path d="M39.171,3.861 L32.516,3.861 L32.516,0.253 L33.132,0.253 L33.132,3.311 L39.171,3.311 L39.171,3.861 Z M39.248,10.065 L32.648,10.065 L32.648,6.963 L33.264,6.963 L33.264,9.526 L39.248,9.526 L39.248,10.065 Z M40.678,5.236 L40.678,5.786 L30.888,5.786 L30.888,5.236 L40.678,5.236 Z" id="Shape"></path>
                    </g>
                    <g id="Valuable">
                        <path d="M0,0.684878049 L0,0.202926829 L3.94439024,0.202926829 L3.94439024,0.684878049 L3.14536585,0.684878049 C2.7395122,0.684878049 2.53658537,0.803252033 2.53658537,1.04 C2.53658537,1.11609756 2.54926829,1.19430894 2.57463415,1.27463415 C2.6,1.35495935 2.64227642,1.4500813 2.70146341,1.56 L5.16195122,7.85073171 L7.34341463,1.85170732 C7.38569106,1.72487805 7.40682927,1.58113821 7.40682927,1.4204878 C7.40682927,0.930081301 7.15317073,0.684878049 6.64585366,0.684878049 L6.01170732,0.684878049 L6.01170732,0.202926829 L9.46146341,0.202926829 L9.46146341,0.684878049 L9.19512195,0.684878049 C8.69626016,0.684878049 8.2904065,1.10764228 7.97756098,1.95317073 L5.08585366,9.79121951 L4.61658537,9.79121951 L1.30634146,1.4204878 C1.20487805,1.1499187 1.07804878,0.959674797 0.925853659,0.849756098 C0.773658537,0.739837398 0.562276423,0.684878049 0.291707317,0.684878049 L0,0.684878049 Z" id="Path"></path>
                        <path d="M11.2878049,7.95219512 L14.4839024,0 L14.902439,0 L18.2760976,8.57365854 C18.4029268,8.9203252 18.6777236,9.09365854 19.1004878,9.09365854 L19.3921951,9.09365854 L19.3921951,9.57560976 L15.6507317,9.57560976 L15.6507317,9.09365854 L15.955122,9.09365854 C16.6146341,9.09365854 16.9443902,8.96260163 16.9443902,8.7004878 C16.9443902,8.62439024 16.9274797,8.54829268 16.8936585,8.47219512 L16.12,6.46829268 L12.4039024,6.46829268 L11.9726829,7.62243902 C11.8965854,7.82536585 11.8543089,7.95219512 11.8458537,8.00292683 C11.8120325,8.1297561 11.795122,8.25658537 11.795122,8.38341463 C11.795122,8.56943089 11.8986992,8.73430894 12.1058537,8.87804878 C12.3130081,9.02178862 12.5899187,9.09365854 12.9365854,9.09365854 L13.2536585,9.09365854 L13.2536585,9.57560976 L9.85463415,9.57560976 L9.85463415,9.09365854 L9.95609756,9.09365854 C10.5395122,9.09365854 10.9834146,8.71317073 11.2878049,7.95219512 Z M15.9297561,5.98634146 L14.2936585,1.81365854 L12.6195122,5.98634146 L15.9297561,5.98634146 Z" id="Shape"></path>
                        <path d="M19.8487805,0.684878049 L19.8487805,0.202926829 L24.1990244,0.202926829 L24.1990244,0.684878049 L23.1590244,0.684878049 C22.8292683,0.684878049 22.6643902,0.832845528 22.6643902,1.12878049 L22.6643902,8.7004878 C22.6643902,8.96260163 22.9180488,9.09365854 23.4253659,9.09365854 L24.7317073,9.09365854 C25.4926829,9.09365854 26.0845528,8.84422764 26.5073171,8.34536585 C26.9300813,7.84650407 27.2386992,7.05170732 27.4331707,5.96097561 L27.8770732,5.96097561 L27.6741463,9.57560976 L19.8487805,9.57560976 L19.8487805,9.09365854 L20.622439,9.09365854 C20.8760976,9.09365854 21.0578862,9.04926829 21.1678049,8.9604878 C21.2777236,8.87170732 21.3326829,8.70894309 21.3326829,8.47219512 L21.3326829,1.14146341 C21.3326829,0.837073171 21.1931707,0.684878049 20.9141463,0.684878049 L19.8487805,0.684878049 Z" id="Path"></path>
                        <path d="M28.4604878,0.684878049 L28.4604878,0.202926829 L32.7980488,0.202926829 L32.7980488,0.684878049 L31.9356098,0.684878049 C31.5128455,0.684878049 31.3014634,0.832845528 31.3014634,1.12878049 L31.3014634,6.45560976 C31.3014634,7.35186992 31.4980488,8.01349593 31.8912195,8.4404878 C32.2843902,8.86747967 32.8952846,9.08097561 33.7239024,9.08097561 C34.5525203,9.08097561 35.1993496,8.86536585 35.6643902,8.43414634 C36.1294309,8.00292683 36.3619512,7.41105691 36.3619512,6.65853659 L36.3619512,2.33365854 C36.3619512,1.23447154 36.0026016,0.684878049 35.2839024,0.684878049 L34.9160976,0.684878049 L34.9160976,0.202926829 L38.4673171,0.202926829 L38.4673171,0.684878049 L38.2009756,0.684878049 C37.4146341,0.684878049 37.0214634,1.09918699 37.0214634,1.92780488 L37.0214634,6.55707317 C37.0214634,7.57170732 36.7170732,8.36227642 36.1082927,8.92878049 C35.4995122,9.49528455 34.6413008,9.77853659 33.5336585,9.77853659 C31.1492683,9.77853659 29.9570732,8.79349593 29.9570732,6.82341463 L29.9570732,1.12878049 C29.9570732,0.832845528 29.758374,0.684878049 29.3609756,0.684878049 L28.4604878,0.684878049 Z" id="Path"></path>
                        <path d="M40.2429268,7.95219512 L43.4390244,0 L43.857561,0 L47.2312195,8.57365854 C47.3580488,8.9203252 47.6328455,9.09365854 48.0556098,9.09365854 L48.3473171,9.09365854 L48.3473171,9.57560976 L44.6058537,9.57560976 L44.6058537,9.09365854 L44.9102439,9.09365854 C45.5697561,9.09365854 45.8995122,8.96260163 45.8995122,8.7004878 C45.8995122,8.62439024 45.8826016,8.54829268 45.8487805,8.47219512 L45.075122,6.46829268 L41.3590244,6.46829268 L40.9278049,7.62243902 C40.8517073,7.82536585 40.8094309,7.95219512 40.8009756,8.00292683 C40.7671545,8.1297561 40.7502439,8.25658537 40.7502439,8.38341463 C40.7502439,8.56943089 40.8538211,8.73430894 41.0609756,8.87804878 C41.2681301,9.02178862 41.5450407,9.09365854 41.8917073,9.09365854 L42.2087805,9.09365854 L42.2087805,9.57560976 L38.8097561,9.57560976 L38.8097561,9.09365854 L38.9112195,9.09365854 C39.4946341,9.09365854 39.9385366,8.71317073 40.2429268,7.95219512 Z M44.884878,5.98634146 L43.2487805,1.81365854 L41.5746341,5.98634146 L44.884878,5.98634146 Z" id="Shape"></path>
                        <path d="M53.5219512,9.57560976 L48.7785366,9.57560976 L48.7785366,9.09365854 L49.564878,9.09365854 C49.7762602,9.09365854 49.943252,9.06195122 50.0658537,8.99853659 C50.1884553,8.93512195 50.2497561,8.84422764 50.2497561,8.72585366 L50.2497561,1.2302439 C50.2497561,0.866666667 50.038374,0.684878049 49.6156098,0.684878049 L48.7785366,0.684878049 L48.7785366,0.202926829 L53.6741463,0.202926829 C54.5957724,0.202926829 55.320813,0.405853659 55.8492683,0.811707317 C56.3777236,1.21756098 56.6419512,1.75869919 56.6419512,2.43512195 C56.6419512,2.95934959 56.4622764,3.40536585 56.1029268,3.77317073 C55.7435772,4.14097561 55.2087805,4.43479675 54.4985366,4.65463415 C56.2656911,5.03512195 57.1492683,5.83837398 57.1492683,7.06439024 C57.1492683,7.79154472 56.821626,8.39186992 56.1663415,8.86536585 C55.5110569,9.33886179 54.6295935,9.57560976 53.5219512,9.57560976 Z M51.5814634,1.15414634 L51.5814634,4.50243902 L53.3570732,4.50243902 C54.5492683,4.50243902 55.1453659,3.81756098 55.1453659,2.44780488 C55.1453659,1.72910569 54.9508943,1.24715447 54.5619512,1.00195122 C54.2321951,0.790569106 53.6234146,0.684878049 52.7356098,0.684878049 C52.3382114,0.684878049 52.0465041,0.695447154 51.8604878,0.716585366 C51.6744715,0.737723577 51.5814634,0.883577236 51.5814634,1.15414634 Z M53.5092683,4.98439024 L51.5814634,4.98439024 L51.5814634,8.58634146 C51.5814634,8.92455285 51.8097561,9.09365854 52.2663415,9.09365854 L53.4078049,9.09365854 C54.8790244,9.09365854 55.6146341,8.40878049 55.6146341,7.03902439 C55.6146341,6.39642276 55.4286179,5.89333333 55.0565854,5.5297561 C54.6845528,5.16617886 54.1687805,4.98439024 53.5092683,4.98439024 Z" id="Shape"></path>
                        <path d="M57.7960976,0.684878049 L57.7960976,0.202926829 L62.1463415,0.202926829 L62.1463415,0.684878049 L61.1063415,0.684878049 C60.7765854,0.684878049 60.6117073,0.832845528 60.6117073,1.12878049 L60.6117073,8.7004878 C60.6117073,8.96260163 60.8653659,9.09365854 61.3726829,9.09365854 L62.6790244,9.09365854 C63.44,9.09365854 64.0318699,8.84422764 64.4546341,8.34536585 C64.8773984,7.84650407 65.1860163,7.05170732 65.3804878,5.96097561 L65.8243902,5.96097561 L65.6214634,9.57560976 L57.7960976,9.57560976 L57.7960976,9.09365854 L58.5697561,9.09365854 C58.8234146,9.09365854 59.0052033,9.04926829 59.115122,8.9604878 C59.2250407,8.87170732 59.28,8.70894309 59.28,8.47219512 L59.28,1.14146341 C59.28,0.837073171 59.1404878,0.684878049 58.8614634,0.684878049 L57.7960976,0.684878049 Z" id="Path"></path>
                        <path d="M66.4965854,0.684878049 L66.4965854,0.202926829 L73.9160976,0.202926829 L74.1063415,3.36097561 L73.675122,3.36097561 C73.5060163,2.42243902 73.2481301,1.74178862 72.9014634,1.31902439 C72.5547967,0.896260163 72.0686179,0.684878049 71.4429268,0.684878049 L69.6039024,0.684878049 C69.2995122,0.684878049 69.1473171,0.841300813 69.1473171,1.15414634 L69.1473171,4.4897561 L69.9590244,4.4897561 C70.424065,4.4897561 70.7876423,4.33333333 71.0497561,4.0204878 C71.3118699,3.70764228 71.4429268,3.23837398 71.4429268,2.61268293 L71.8868293,2.61268293 L71.8868293,6.96292683 L71.4429268,6.96292683 C71.4429268,5.62699187 70.9271545,4.95902439 69.8956098,4.95902439 L69.1473171,4.95902439 L69.1473171,8.67512195 C69.1473171,8.95414634 69.3460163,9.09365854 69.7434146,9.09365854 L71.2019512,9.09365854 C72.7830894,9.09365854 73.6878049,8.09170732 73.9160976,6.08780488 L74.3726829,6.08780488 L74.2204878,9.57560976 L66.4965854,9.57560976 L66.4965854,9.09365854 L67.1307317,9.09365854 C67.5873171,9.09365854 67.8156098,8.92455285 67.8156098,8.58634146 L67.8156098,1.15414634 C67.8156098,0.841300813 67.6295935,0.684878049 67.257561,0.684878049 L66.4965854,0.684878049 Z" id="Path"></path>
                    </g>
                </g>
            </g>
        </g>
    </g>
</svg>