<?xml version="1.0" encoding="UTF-8"?>
<svg width="72px" height="29px" viewBox="0 0 72 29" version="1.1" xmlns="http://www.w3.org/2000/svg" xmlns:xlink="http://www.w3.org/1999/xlink">
    <title>Group 7</title>
    <g id="sub" stroke="none" stroke-width="1" fill="none" fill-rule="evenodd">
        <g id="Market-Copy-10" transform="translate(-656.000000, -366.000000)" fill="#BFA98A" fill-rule="nonzero">
            <g id="Bitmap" transform="translate(595.000000, 281.000000)">
                <g id="Group-7" transform="translate(61.328000, 85.796000)">
                    <g id="소재" transform="translate(23.640000, 17.096000)">
                        <path d="M8.789,5.258 C8.712,5.335 8.646,5.412 8.58,5.478 C8.503,5.555 8.426,5.632 8.36,5.698 C7.447,5.423 6.688,5.027 6.083,4.499 C5.467,3.993 5.038,3.388 4.807,2.706 C4.554,3.388 4.125,3.982 3.52,4.499 C2.904,5.027 2.145,5.423 1.243,5.698 C1.166,5.632 1.1,5.555 1.034,5.478 C0.957,5.412 0.88,5.335 0.814,5.258 C1.386,5.093 1.892,4.873 2.354,4.587 C2.805,4.323 3.19,4.004 3.509,3.652 C3.817,3.311 4.048,2.937 4.224,2.53 C4.389,2.134 4.477,1.738 4.477,1.32 L4.477,0.737 L5.126,0.737 L5.126,1.32 C5.126,1.738 5.203,2.145 5.379,2.541 C5.533,2.948 5.775,3.322 6.094,3.663 C6.402,4.015 6.787,4.323 7.249,4.587 C7.7,4.873 8.217,5.093 8.789,5.258 Z M5.115,5.72 L5.115,8.36 L9.614,8.36 L9.614,8.899 L0,8.899 L0,8.36 L4.499,8.36 L4.499,5.72 L5.115,5.72 Z" id="Shape"></path>
                        <path d="M17.083,10.01 L16.478,10.01 L16.478,0.11 L17.083,0.11 L17.083,4.059 L18.678,4.059 L18.678,0 L19.283,0 L19.283,10.34 L18.678,10.34 L18.678,4.598 L17.083,4.598 L17.083,10.01 Z M15.851,7.216 C15.774,7.282 15.697,7.348 15.631,7.414 C15.554,7.491 15.477,7.568 15.411,7.634 C15.191,7.458 14.96,7.249 14.74,6.985 C14.509,6.743 14.3,6.468 14.102,6.16 C13.904,5.874 13.728,5.566 13.574,5.236 C13.409,4.917 13.288,4.587 13.211,4.257 C13.101,4.609 12.969,4.939 12.815,5.258 C12.65,5.588 12.474,5.907 12.287,6.193 C12.089,6.49 11.88,6.754 11.671,6.996 C11.451,7.249 11.22,7.469 11,7.645 C10.923,7.579 10.857,7.513 10.791,7.436 C10.714,7.37 10.637,7.304 10.571,7.227 C11.165,6.732 11.704,6.072 12.166,5.236 C12.342,4.906 12.474,4.587 12.584,4.279 C12.672,3.982 12.749,3.674 12.804,3.366 C12.848,3.069 12.87,2.761 12.892,2.453 C12.892,2.156 12.903,1.848 12.903,1.518 L10.934,1.518 L10.934,0.979 L15.499,0.979 L15.499,1.518 L13.519,1.518 L13.519,2.519 C13.519,3.003 13.585,3.465 13.717,3.905 C13.838,4.367 14.003,4.796 14.223,5.192 C14.432,5.599 14.685,5.973 14.971,6.314 C15.246,6.666 15.543,6.963 15.851,7.216 Z" id="Shape"></path>
                    </g>
                    <g id="Material">
                        <path d="M0,0.832 L0,0.104 L2.964,0.104 L6.032,5.928 L9.165,0.104 L11.96,0.104 L11.96,0.832 L10.777,0.832 L10.777,8.476 L11.96,8.476 L11.96,9.204 L8.19,9.204 L8.19,8.476 L9.373,8.476 L9.373,2.678 C9.38166667,2.63466667 9.38816667,2.53283333 9.3925,2.3725 C9.39683333,2.21216667 9.40333333,2.041 9.412,1.859 C9.42066667,1.64233333 9.42933333,1.40833333 9.438,1.157 L9.321,1.157 L8.762,2.548 L6.097,7.254 L5.304,7.254 L2.704,2.548 L2.132,1.027 L2.002,1.027 L2.002,1.833 C2.002,2.03233333 2.00416667,2.22083333 2.0085,2.3985 C2.01283333,2.57616667 2.015,2.66933333 2.015,2.678 L2.015,8.476 L3.12,8.476 L3.12,9.204 L0,9.204 L0,8.476 L1.183,8.476 L1.183,0.832 L0,0.832 Z" id="Path"></path>
                        <path d="M15.561,9.204 L12.376,9.204 L12.376,8.476 L13.39,8.476 L16.757,0.104 L18.135,0.104 L21.216,8.476 L22.191,8.476 L22.191,9.204 L18.473,9.204 L18.473,8.476 L19.63,8.476 L18.785,6.188 L15.327,6.188 L14.443,8.476 L15.561,8.476 L15.561,9.204 Z M15.626,5.46 L18.564,5.46 L17.498,2.457 L17.173,1.079 L17.121,1.079 L16.744,2.483 L15.626,5.46 Z" id="Shape"></path>
                        <polygon id="Path" points="28.795 9.204 24.661 9.204 24.661 8.476 26 8.476 26 0.832 23.673 0.832 23.413 1.118 23.413 2.795 22.477 2.795 22.477 0.104 30.979 0.104 30.979 2.795 30.043 2.795 30.043 1.118 29.783 0.832 27.456 0.832 27.456 8.476 28.795 8.476"></polygon>
                        <polygon id="Path" points="38.597 0.104 38.597 2.236 37.765 2.236 37.765 1.118 37.505 0.832 34.32 0.832 34.32 4.199 36.517 4.199 36.712 4.004 36.712 3.458 37.544 3.458 37.544 5.681 36.712 5.681 36.712 5.135 36.517 4.927 34.32 4.927 34.32 8.476 37.726 8.476 37.986 8.216 37.986 6.942 38.818 6.942 38.818 9.204 31.681 9.204 31.681 8.476 32.864 8.476 32.864 0.832 31.681 0.832 31.681 0.104"></polygon>
                        <path d="M42.705,8.476 L43.823,8.476 L43.823,9.204 L40.066,9.204 L40.066,8.476 L41.249,8.476 L41.249,0.832 L40.066,0.832 L40.066,0.104 L41.379,0.104 C41.769,0.104 42.1936667,0.0866666667 42.653,0.052 C43.1123333,0.0173333333 43.563,0 44.005,0 C44.4816667,0 44.9301667,0.0498333333 45.3505,0.1495 C45.7708333,0.249166667 46.1326667,0.403 46.436,0.611 C46.7393333,0.819 46.9798333,1.0855 47.1575,1.4105 C47.3351667,1.7355 47.424,2.12333333 47.424,2.574 C47.424,3.198 47.2311667,3.72883333 46.8455,4.1665 C46.4598333,4.60416667 45.955,4.914 45.331,5.096 L47.918,8.476 L48.724,8.476 L48.724,9.204 L46.618,9.204 L44.031,5.278 L42.705,5.278 L42.705,8.476 Z M43.732,4.602 C44.3993333,4.602 44.9215,4.42 45.2985,4.056 C45.6755,3.692 45.864,3.198 45.864,2.574 C45.864,1.93266667 45.6646667,1.46466667 45.266,1.17 C44.8673333,0.875333333 44.3386667,0.728 43.68,0.728 C43.4546667,0.728 43.2661667,0.736666667 43.1145,0.754 C42.9628333,0.771333333 42.8263333,0.788666667 42.705,0.806 L42.705,4.602 L43.732,4.602 Z" id="Shape"></path>
                        <polygon id="Path" points="53.352 9.204 49.53 9.204 49.53 8.476 50.713 8.476 50.713 0.832 49.53 0.832 49.53 0.104 53.352 0.104 53.352 0.832 52.169 0.832 52.169 8.476 53.352 8.476"></polygon>
                        <path d="M57.213,9.204 L54.028,9.204 L54.028,8.476 L55.042,8.476 L58.409,0.104 L59.787,0.104 L62.868,8.476 L63.843,8.476 L63.843,9.204 L60.125,9.204 L60.125,8.476 L61.282,8.476 L60.437,6.188 L56.979,6.188 L56.095,8.476 L57.213,8.476 L57.213,9.204 Z M57.278,5.46 L60.216,5.46 L59.15,2.457 L58.825,1.079 L58.773,1.079 L58.396,2.483 L57.278,5.46 Z" id="Shape"></path>
                        <polygon id="Path" points="64.259 0.832 64.259 0.104 68.302 0.104 68.302 0.832 66.898 0.832 66.898 8.476 70.356 8.476 70.616 8.19 70.616 6.396 71.552 6.396 71.552 9.204 64.259 9.204 64.259 8.476 65.442 8.476 65.442 0.832"></polygon>
                    </g>
                </g>
            </g>
        </g>
    </g>
</svg>