<?xml version="1.0" encoding="UTF-8"?>
<svg width="208px" height="762px" viewBox="0 0 208 762" version="1.1" xmlns="http://www.w3.org/2000/svg" xmlns:xlink="http://www.w3.org/1999/xlink">
    <title>Group 8</title>
    <defs>
        <linearGradient x1="87.565454%" y1="49.8216537%" x2="21.7002275%" y2="50.4575615%" id="linearGradient-1">
            <stop stop-color="#3F3C3A" offset="0%"></stop>
            <stop stop-color="#56524F" offset="100%"></stop>
        </linearGradient>
        <path d="M50.4882812,64.7216797 L24.6533203,64.7216797 L20.1416016,79.3310547 L0,79.3310547 L28.6816406,1.12792969 L46.40625,1.12792969 L75.3027344,79.3310547 L55.0537109,79.3310547 L50.4882812,64.7216797 Z M29.1650391,50.1660156 L45.9765625,50.1660156 L37.5439453,23.0419922 L29.1650391,50.1660156 Z M97.0986328,52.7978516 L97.0986328,79.3310547 L78.2460938,79.3310547 L78.2460938,1.12792969 L109.452148,1.12792969 C115.431966,1.12792969 120.722493,2.22900391 125.32373,4.43115234 C129.924967,6.63330078 133.487793,9.7664388 136.012207,13.8305664 C138.536621,17.894694 139.798828,22.5048828 139.798828,27.6611328 C139.798828,35.2880859 137.068522,41.3842773 131.60791,45.949707 C126.147298,50.5151367 118.654622,52.7978516 109.129883,52.7978516 L97.0986328,52.7978516 Z M97.0986328,38.2421875 L109.452148,38.2421875 C113.104492,38.2421875 115.888509,37.3291016 117.804199,35.5029297 C119.719889,33.6767578 120.677734,31.0986328 120.677734,27.7685547 C120.677734,24.1162109 119.693034,21.1979167 117.723633,19.0136719 C115.754232,16.8294271 113.068685,15.719401 109.666992,15.6835938 L97.0986328,15.6835938 L97.0986328,38.2421875 Z M165.945312,52.7978516 L165.945312,79.3310547 L147.092773,79.3310547 L147.092773,1.12792969 L178.298828,1.12792969 C184.278646,1.12792969 189.569173,2.22900391 194.17041,4.43115234 C198.771647,6.63330078 202.334473,9.7664388 204.858887,13.8305664 C207.383301,17.894694 208.645508,22.5048828 208.645508,27.6611328 C208.645508,35.2880859 205.915202,41.3842773 200.45459,45.949707 C194.993978,50.5151367 187.501302,52.7978516 177.976562,52.7978516 L165.945312,52.7978516 Z M165.945312,38.2421875 L178.298828,38.2421875 C181.951172,38.2421875 184.735189,37.3291016 186.650879,35.5029297 C188.566569,33.6767578 189.524414,31.0986328 189.524414,27.7685547 C189.524414,24.1162109 188.539714,21.1979167 186.570312,19.0136719 C184.600911,16.8294271 181.915365,15.719401 178.513672,15.6835938 L165.945312,15.6835938 L165.945312,38.2421875 Z M234.791992,64.8291016 L267.609375,64.8291016 L267.609375,79.3310547 L215.939453,79.3310547 L215.939453,1.12792969 L234.791992,1.12792969 L234.791992,64.8291016 Z M321.30957,46.1914063 L291.661133,46.1914063 L291.661133,64.8291016 L326.680664,64.8291016 L326.680664,79.3310547 L272.808594,79.3310547 L272.808594,1.12792969 L326.788086,1.12792969 L326.788086,15.6835938 L291.661133,15.6835938 L291.661133,32.1728516 L321.30957,32.1728516 L321.30957,46.1914063 Z M370.21875,1.12792969 L379.188477,50.1660156 L389.930664,1.12792969 L405.936523,1.12792969 L416.839844,50.1660156 L425.80957,1.12792969 L444.500977,1.12792969 L427.904297,79.3310547 L408.353516,79.3310547 L397.879883,34.7509766 L387.621094,79.3310547 L368.124023,79.3310547 L351.473633,1.12792969 L370.21875,1.12792969 Z M487.136719,1.12792969 L516.033203,79.3310547 L495.78418,79.3310547 L491.21875,64.7216797 L465.383789,64.7216797 L460.87207,79.3310547 L440.730469,79.3310547 L469.412109,1.12792969 L487.136719,1.12792969 Z M573.922852,1.12792969 L573.922852,15.6835938 L550.451172,15.6835938 L550.451172,79.3310547 L531.598633,79.3310547 L531.598633,15.6835938 L508.556641,15.6835938 L508.556641,1.12792969 L573.922852,1.12792969 Z M478.274414,23.0419922 L469.895508,50.1660156 L486.707031,50.1660156 L478.274414,23.0419922 Z M640.889648,52.8515625 C640.638997,58.2942708 639.170898,63.1013997 636.485352,67.2729492 C633.799805,71.4444987 630.031087,74.6761068 625.179199,76.9677734 C620.327311,79.2594401 614.786133,80.4052734 608.555664,80.4052734 C598.278971,80.4052734 590.186523,77.0572917 584.27832,70.3613281 C578.370117,63.6653646 575.416016,54.2122396 575.416016,42.0019531 L575.416016,38.1347656 C575.416016,30.4720052 576.749837,23.7670898 579.41748,18.0200195 C582.085124,12.2729492 585.925456,7.83284505 590.938477,4.69970703 C595.951497,1.56656901 601.752279,2.73467337e-13 608.34082,2.73467337e-13 C617.829753,2.73467337e-13 625.456706,2.49755859 631.22168,7.49267578 C636.986654,12.487793 640.263021,19.3717448 641.050781,28.1445313 L622.251953,28.1445313 C622.108724,23.3821615 620.90918,19.9625651 618.65332,17.8857422 C616.397461,15.8089193 612.959961,14.7705078 608.34082,14.7705078 C603.650065,14.7705078 600.212565,16.5250651 598.02832,20.0341797 C595.844076,23.5432943 594.698242,29.1471354 594.59082,36.8457031 L594.59082,42.3779297 C594.59082,50.7210286 595.638184,56.6829427 597.73291,60.2636719 C599.827637,63.844401 603.435221,65.6347656 608.555664,65.6347656 C612.888346,65.6347656 616.200521,64.6142578 618.492188,62.5732422 C620.783854,60.5322266 622.001302,57.2916667 622.144531,52.8515625 L640.889648,52.8515625 Z M712.421875,79.3310547 L693.676758,79.3310547 L693.676758,46.6748047 L665.908203,46.6748047 L665.908203,79.3310547 L647.055664,79.3310547 L647.055664,1.12792969 L665.908203,1.12792969 L665.908203,32.1728516 L693.676758,32.1728516 L693.676758,1.12792969 L712.421875,1.12792969 L712.421875,79.3310547 Z" id="path-2"></path>
        <filter x="-12.2%" y="-214.5%" width="122.7%" height="388.5%" filterUnits="objectBoundingBox" id="filter-3">
            <feMorphology radius="2" operator="dilate" in="SourceAlpha" result="shadowSpreadOuter1"></feMorphology>
            <feOffset dx="-6" dy="-92" in="shadowSpreadOuter1" result="shadowOffsetOuter1"></feOffset>
            <feGaussianBlur stdDeviation="11.5" in="shadowOffsetOuter1" result="shadowBlurOuter1"></feGaussianBlur>
            <feComposite in="shadowBlurOuter1" in2="SourceAlpha" operator="out" result="shadowBlurOuter1"></feComposite>
            <feColorMatrix values="0 0 0 0 0   0 0 0 0 0   0 0 0 0 0  0 0 0 0.5 0" type="matrix" in="shadowBlurOuter1"></feColorMatrix>
        </filter>
        <linearGradient x1="100%" y1="49.7631048%" x2="1.72257101%" y2="50.2212233%" id="linearGradient-4">
            <stop stop-color="#C6AE8D" offset="0%"></stop>
            <stop stop-color="#9A8476" stop-opacity="0.137292395" offset="34.6454327%"></stop>
            <stop stop-color="#B19E83" offset="71.6318837%"></stop>
            <stop stop-color="#9A8A76" stop-opacity="0.235740822" offset="100%"></stop>
        </linearGradient>
    </defs>
    <g id="sub" stroke="none" stroke-width="1" fill="none" fill-rule="evenodd">
        <g id="Market-Copy-10" transform="translate(-1128.000000, -264.000000)" fill-rule="nonzero">
            <g id="Group-8" transform="translate(1244.008301, 282.991699)">
                <g id="apple-watch-copy" transform="translate(44.202637, 356.210938) rotate(-90.000000) translate(-44.202637, -356.210938) translate(-312.008301, 312.008301)">
                    <path d="M608.34082,6.5 C618.249617,6.5 626.191481,9.14947139 632.203941,14.359026 C638.601868,19.9025707 642.114326,27.65 642.662612,37.6445312 L642.662612,37.6445312 L620.764239,37.6445313 C620.827402,32.667363 619.884969,29.0585201 617.637356,26.9892895 C615.603739,25.1170705 612.476002,24.2705078 608.34082,24.2705078 C604.252336,24.2705078 601.216296,25.7510547 599.301776,28.8268407 C597.21891,32.1730835 596.193895,37.5337282 596.09082,44.8562136 L596.09082,44.8562136 L596.09082,50.3779297 C596.09082,58.3498504 597.021618,64.0771616 599.027638,67.5062559 C600.871772,70.6586217 604.091553,72.1347656 608.555664,72.1347656 C612.431258,72.1347656 615.432974,71.2891911 617.494556,69.4530944 C619.777335,67.4199945 620.740486,64.0017645 620.653969,59.3515625 L620.653969,59.3515625 L642.427919,59.3515625 C642.394925,65.7269053 640.82584,71.301807 637.746591,76.0849062 C634.912656,80.4869527 630.941526,83.9049856 625.819822,86.3240927 C620.780957,88.7040736 615.028045,89.9052734 608.555664,89.9052734 C597.789063,89.9052734 589.335491,86.3599447 583.153564,79.3537606 C577.038604,72.4234727 573.916016,62.6589255 573.916016,50.0019531 L573.916016,50.0019531 L573.916016,46.1347656 C573.916016,38.2291845 575.30551,31.3159881 578.056909,25.3884771 C580.854379,19.3617134 584.887976,14.7123984 590.143478,11.4277096 C595.385511,8.15143912 601.448598,6.5 608.34082,6.5 Z M47.4511172,7.62792969 L77.4561181,88.8310547 L53.9509246,88.8310547 L49.3854949,74.2216797 L25.7599853,74.2216797 L21.2482666,88.8310547 L-2.14783919,88.8310547 L27.6340762,7.62792969 L47.4511172,7.62792969 Z M37.5485229,36.109348 L31.1983444,56.6660156 L43.9394077,56.6660156 L37.5485229,36.109348 Z M109.452148,7.62792969 C115.677943,7.62792969 121.18232,8.78613382 125.971286,11.0781293 C130.845294,13.4108257 134.613157,16.73536 137.286407,21.039103 C139.955282,25.335803 141.298828,30.2080103 141.298828,35.6611328 C141.298828,43.7752991 138.374255,50.2477879 132.570041,55.1004911 C126.99433,59.7621514 119.402135,62.1953212 109.74885,62.29468 L109.129883,62.2978516 L98.5986328,62.2978516 L98.5986328,88.8310547 L76.7460938,88.8310547 L76.7460938,7.62792969 L109.452148,7.62792969 Z M109.658902,25.1835938 L98.5986328,25.1835938 L98.5986328,44.7421875 L109.452148,44.7421875 L109.845426,44.7384001 C112.831999,44.680243 115.160842,43.9504161 116.76921,42.4172055 C118.415982,40.8473852 119.177734,38.6111374 119.177734,35.7685547 C119.177734,32.5488143 118.35305,29.951772 116.6096,28.0181276 C114.910258,26.1334023 112.579955,25.2159075 109.658902,25.1835938 L109.658902,25.1835938 Z M178.298828,7.62792969 C184.524622,7.62792969 190.029,8.78613382 194.817966,11.0781293 C199.691974,13.4108257 203.459837,16.73536 206.133087,21.039103 C208.801962,25.335803 210.145508,30.2080103 210.145508,35.6611328 C210.145508,43.7752991 207.220934,50.2477879 201.416721,55.1004911 C195.841009,59.7621514 188.248814,62.1953212 178.595529,62.29468 L177.976562,62.2978516 L167.445312,62.2978516 L167.445312,88.8310547 L145.592773,88.8310547 L145.592773,7.62792969 L178.298828,7.62792969 Z M178.505581,25.1835938 L167.445312,25.1835938 L167.445312,44.7421875 L178.298828,44.7421875 L178.692106,44.7384001 C181.678679,44.680243 184.007522,43.9504161 185.61589,42.4172055 C187.262662,40.8473852 188.024414,38.6111374 188.024414,35.7685547 C188.024414,32.5488143 187.19973,29.951772 185.45628,28.0181276 C183.756937,26.1334023 181.426635,25.2159075 178.505581,25.1835938 L178.505581,25.1835938 Z M236.291992,7.62792969 L236.291992,71.3291016 L269.109375,71.3291016 L269.109375,88.8310547 L214.439453,88.8310547 L214.439453,7.62792969 L236.291992,7.62792969 Z M328.288086,7.62792969 L328.288086,25.1835938 L293.161133,25.1835938 L293.161133,38.6728516 L322.80957,38.6728516 L322.80957,55.6914063 L293.161133,55.6914063 L293.161133,71.3291016 L328.180664,71.3291016 L328.180664,88.8310547 L271.308594,88.8310547 L271.308594,7.62792969 L328.288086,7.62792969 Z M371.469266,7.62792969 L379.320731,50.5524049 L388.723683,7.62792969 L407.139638,7.62792969 L416.696777,50.6115158 L424.559054,7.62792969 L446.352722,7.62792969 L429.119367,88.8310547 L407.165084,88.8310547 L397.895023,49.3738729 L388.815117,88.8310547 L366.90977,88.8310547 L349.620643,7.62792969 L371.469266,7.62792969 Z M488.181586,7.62792969 L515.444999,81.4114424 L518.186587,88.8310547 L494.681393,88.8310547 L490.115964,74.2216797 L466.490454,74.2216797 L461.978735,88.8310547 L438.58263,88.8310547 L468.364545,7.62792969 L488.181586,7.62792969 Z M478.278992,36.109348 L471.928813,56.6660156 L484.669876,56.6660156 L478.278992,36.109348 Z M575.422852,7.62792969 L575.422852,25.1835938 L551.951172,25.1835938 L551.951172,88.8310547 L530.098633,88.8310547 L530.098633,25.1835938 L507.056641,25.1835938 L507.056641,7.62792969 L575.422852,7.62792969 Z M667.408203,7.62792969 L667.408203,38.6728516 L692.176758,38.6728516 L692.176758,7.62792969 L713.921875,7.62792969 L713.921875,88.8310547 L692.176758,88.8310547 L692.176758,56.1748047 L667.408203,56.1748047 L667.408203,88.8310547 L645.555664,88.8310547 L645.555664,7.62792969 L667.408203,7.62792969 Z" id="Shape" stroke="#1D1D1D" stroke-width="3" fill="#2B2827"></path>
                    <path d="M608.34082,4.5 C618.249617,4.5 626.191481,7.14947139 632.203941,12.359026 C638.601868,17.9025707 642.114326,25.65 642.662612,35.6445313 L642.662612,35.6445313 L620.764239,35.6445313 C620.827402,30.667363 619.884969,27.0585201 617.637356,24.9892895 C615.603739,23.1170705 612.476002,22.2705078 608.34082,22.2705078 C604.252336,22.2705078 601.216296,23.7510547 599.301776,26.8268407 C597.21891,30.1730835 596.193895,35.5337282 596.09082,42.8562136 L596.09082,42.8562136 L596.09082,48.3779297 C596.09082,56.3498504 597.021618,62.0771616 599.027638,65.5062559 C600.871772,68.6586217 604.091553,70.1347656 608.555664,70.1347656 C612.431258,70.1347656 615.432974,69.2891911 617.494556,67.4530944 C619.777335,65.4199945 620.740486,62.0017645 620.653969,57.3515625 L620.653969,57.3515625 L642.427919,57.3515625 C642.394925,63.7269053 640.82584,69.301807 637.746591,74.0849062 C634.912656,78.4869527 630.941526,81.9049856 625.819822,84.3240927 C620.780957,86.7040736 615.028045,87.9052734 608.555664,87.9052734 C597.789063,87.9052734 589.335491,84.3599447 583.153564,77.3537606 C577.038604,70.4234727 573.916016,60.6589255 573.916016,48.0019531 L573.916016,48.0019531 L573.916016,44.1347656 C573.916016,36.2291845 575.30551,29.3159881 578.056909,23.3884771 C580.854379,17.3617134 584.887976,12.7123984 590.143478,9.42770958 C595.385511,6.15143912 601.448598,4.5 608.34082,4.5 Z M47.4511172,5.62792969 L77.4561181,86.8310547 L53.9509246,86.8310547 L49.3854949,72.2216797 L25.7599853,72.2216797 L21.2482666,86.8310547 L-2.14783919,86.8310547 L27.6340762,5.62792969 L47.4511172,5.62792969 Z M37.5485229,34.109348 L31.1983444,54.6660156 L43.9394077,54.6660156 L37.5485229,34.109348 Z M109.452148,5.62792969 C115.677943,5.62792969 121.18232,6.78613382 125.971286,9.07812925 C130.845294,11.4108257 134.613157,14.73536 137.286407,19.039103 C139.955282,23.335803 141.298828,28.2080103 141.298828,33.6611328 C141.298828,41.7752991 138.374255,48.2477879 132.570041,53.1004911 C126.99433,57.7621514 119.402135,60.1953212 109.74885,60.29468 L109.129883,60.2978516 L98.5986328,60.2978516 L98.5986328,86.8310547 L76.7460938,86.8310547 L76.7460938,5.62792969 L109.452148,5.62792969 Z M109.658902,23.1835938 L98.5986328,23.1835938 L98.5986328,42.7421875 L109.452148,42.7421875 L109.845426,42.7384001 C112.831999,42.680243 115.160842,41.9504161 116.76921,40.4172055 C118.415982,38.8473852 119.177734,36.6111374 119.177734,33.7685547 C119.177734,30.5488143 118.35305,27.951772 116.6096,26.0181276 C114.910258,24.1334023 112.579955,23.2159075 109.658902,23.1835938 L109.658902,23.1835938 Z M178.298828,5.62792969 C184.524622,5.62792969 190.029,6.78613382 194.817966,9.07812925 C199.691974,11.4108257 203.459837,14.73536 206.133087,19.039103 C208.801962,23.335803 210.145508,28.2080103 210.145508,33.6611328 C210.145508,41.7752991 207.220934,48.2477879 201.416721,53.1004911 C195.841009,57.7621514 188.248814,60.1953212 178.595529,60.29468 L177.976562,60.2978516 L167.445312,60.2978516 L167.445312,86.8310547 L145.592773,86.8310547 L145.592773,5.62792969 L178.298828,5.62792969 Z M178.505581,23.1835938 L167.445312,23.1835938 L167.445312,42.7421875 L178.298828,42.7421875 L178.692106,42.7384001 C181.678679,42.680243 184.007522,41.9504161 185.61589,40.4172055 C187.262662,38.8473852 188.024414,36.6111374 188.024414,33.7685547 C188.024414,30.5488143 187.19973,27.951772 185.45628,26.0181276 C183.756937,24.1334023 181.426635,23.2159075 178.505581,23.1835938 L178.505581,23.1835938 Z M236.291992,5.62792969 L236.291992,69.3291016 L269.109375,69.3291016 L269.109375,86.8310547 L214.439453,86.8310547 L214.439453,5.62792969 L236.291992,5.62792969 Z M328.288086,5.62792969 L328.288086,23.1835938 L293.161133,23.1835938 L293.161133,36.6728516 L322.80957,36.6728516 L322.80957,53.6914063 L293.161133,53.6914063 L293.161133,69.3291016 L328.180664,69.3291016 L328.180664,86.8310547 L271.308594,86.8310547 L271.308594,5.62792969 L328.288086,5.62792969 Z M371.469266,5.62792969 L379.320731,48.5524049 L388.723683,5.62792969 L407.139638,5.62792969 L416.696777,48.6115158 L424.559054,5.62792969 L446.352722,5.62792969 L429.119367,86.8310547 L407.165084,86.8310547 L397.895023,47.3738729 L388.815117,86.8310547 L366.90977,86.8310547 L349.620643,5.62792969 L371.469266,5.62792969 Z M488.181586,5.62792969 L515.444999,79.4114424 L518.186587,86.8310547 L494.681393,86.8310547 L490.115964,72.2216797 L466.490454,72.2216797 L461.978735,86.8310547 L438.58263,86.8310547 L468.364545,5.62792969 L488.181586,5.62792969 Z M478.278992,34.109348 L471.928813,54.6660156 L484.669876,54.6660156 L478.278992,34.109348 Z M575.422852,5.62792969 L575.422852,23.1835938 L551.951172,23.1835938 L551.951172,86.8310547 L530.098633,86.8310547 L530.098633,23.1835938 L507.056641,23.1835938 L507.056641,5.62792969 L575.422852,5.62792969 Z M667.408203,5.62792969 L667.408203,36.6728516 L692.176758,36.6728516 L692.176758,5.62792969 L713.921875,5.62792969 L713.921875,86.8310547 L692.176758,86.8310547 L692.176758,54.1748047 L667.408203,54.1748047 L667.408203,86.8310547 L645.555664,86.8310547 L645.555664,5.62792969 L667.408203,5.62792969 Z" id="Shape" stroke="#222222" stroke-width="3" fill="#2B2827"></path>
                    <path d="M608.34082,2.5 C618.249617,2.5 626.191481,5.14947139 632.203941,10.359026 C638.601868,15.9025707 642.114326,23.65 642.662612,33.6445313 L642.662612,33.6445313 L620.764239,33.6445313 C620.827402,28.667363 619.884969,25.0585201 617.637356,22.9892895 C615.603739,21.1170705 612.476002,20.2705078 608.34082,20.2705078 C604.252336,20.2705078 601.216296,21.7510547 599.301776,24.8268407 C597.21891,28.1730835 596.193895,33.5337282 596.09082,40.8562136 L596.09082,40.8562136 L596.09082,46.3779297 C596.09082,54.3498504 597.021618,60.0771616 599.027638,63.5062559 C600.871772,66.6586217 604.091553,68.1347656 608.555664,68.1347656 C612.431258,68.1347656 615.432974,67.2891911 617.494556,65.4530944 C619.777335,63.4199945 620.740486,60.0017645 620.653969,55.3515625 L620.653969,55.3515625 L642.427919,55.3515625 C642.394925,61.7269053 640.82584,67.301807 637.746591,72.0849062 C634.912656,76.4869527 630.941526,79.9049856 625.819822,82.3240927 C620.780957,84.7040736 615.028045,85.9052734 608.555664,85.9052734 C597.789063,85.9052734 589.335491,82.3599447 583.153564,75.3537606 C577.038604,68.4234727 573.916016,58.6589255 573.916016,46.0019531 L573.916016,46.0019531 L573.916016,42.1347656 C573.916016,34.2291845 575.30551,27.3159881 578.056909,21.3884771 C580.854379,15.3617134 584.887976,10.7123984 590.143478,7.42770958 C595.385511,4.15143912 601.448598,2.5 608.34082,2.5 Z M47.4511172,3.62792969 L77.4561181,84.8310547 L53.9509246,84.8310547 L49.3854949,70.2216797 L25.7599853,70.2216797 L21.2482666,84.8310547 L-2.14783919,84.8310547 L27.6340762,3.62792969 L47.4511172,3.62792969 Z M37.5485229,32.109348 L31.1983444,52.6660156 L43.9394077,52.6660156 L37.5485229,32.109348 Z M109.452148,3.62792969 C115.677943,3.62792969 121.18232,4.78613382 125.971286,7.07812925 C130.845294,9.41082569 134.613157,12.73536 137.286407,17.039103 C139.955282,21.335803 141.298828,26.2080103 141.298828,31.6611328 C141.298828,39.7752991 138.374255,46.2477879 132.570041,51.1004911 C126.99433,55.7621514 119.402135,58.1953212 109.74885,58.29468 L109.129883,58.2978516 L98.5986328,58.2978516 L98.5986328,84.8310547 L76.7460938,84.8310547 L76.7460938,3.62792969 L109.452148,3.62792969 Z M109.658902,21.1835938 L98.5986328,21.1835938 L98.5986328,40.7421875 L109.452148,40.7421875 L109.845426,40.7384001 C112.831999,40.680243 115.160842,39.9504161 116.76921,38.4172055 C118.415982,36.8473852 119.177734,34.6111374 119.177734,31.7685547 C119.177734,28.5488143 118.35305,25.951772 116.6096,24.0181276 C114.910258,22.1334023 112.579955,21.2159075 109.658902,21.1835938 L109.658902,21.1835938 Z M178.298828,3.62792969 C184.524622,3.62792969 190.029,4.78613382 194.817966,7.07812925 C199.691974,9.41082569 203.459837,12.73536 206.133087,17.039103 C208.801962,21.335803 210.145508,26.2080103 210.145508,31.6611328 C210.145508,39.7752991 207.220934,46.2477879 201.416721,51.1004911 C195.841009,55.7621514 188.248814,58.1953212 178.595529,58.29468 L177.976562,58.2978516 L167.445312,58.2978516 L167.445312,84.8310547 L145.592773,84.8310547 L145.592773,3.62792969 L178.298828,3.62792969 Z M178.505581,21.1835938 L167.445312,21.1835938 L167.445312,40.7421875 L178.298828,40.7421875 L178.692106,40.7384001 C181.678679,40.680243 184.007522,39.9504161 185.61589,38.4172055 C187.262662,36.8473852 188.024414,34.6111374 188.024414,31.7685547 C188.024414,28.5488143 187.19973,25.951772 185.45628,24.0181276 C183.756937,22.1334023 181.426635,21.2159075 178.505581,21.1835938 L178.505581,21.1835938 Z M236.291992,3.62792969 L236.291992,67.3291016 L269.109375,67.3291016 L269.109375,84.8310547 L214.439453,84.8310547 L214.439453,3.62792969 L236.291992,3.62792969 Z M328.288086,3.62792969 L328.288086,21.1835938 L293.161133,21.1835938 L293.161133,34.6728516 L322.80957,34.6728516 L322.80957,51.6914063 L293.161133,51.6914063 L293.161133,67.3291016 L328.180664,67.3291016 L328.180664,84.8310547 L271.308594,84.8310547 L271.308594,3.62792969 L328.288086,3.62792969 Z M371.469266,3.62792969 L379.320731,46.5524049 L388.723683,3.62792969 L407.139638,3.62792969 L416.696777,46.6115158 L424.559054,3.62792969 L446.352722,3.62792969 L429.119367,84.8310547 L407.165084,84.8310547 L397.895023,45.3738729 L388.815117,84.8310547 L366.90977,84.8310547 L349.620643,3.62792969 L371.469266,3.62792969 Z M488.181586,3.62792969 L515.444999,77.4114424 L518.186587,84.8310547 L494.681393,84.8310547 L490.115964,70.2216797 L466.490454,70.2216797 L461.978735,84.8310547 L438.58263,84.8310547 L468.364545,3.62792969 L488.181586,3.62792969 Z M478.278992,32.109348 L471.928813,52.6660156 L484.669876,52.6660156 L478.278992,32.109348 Z M575.422852,3.62792969 L575.422852,21.1835938 L551.951172,21.1835938 L551.951172,84.8310547 L530.098633,84.8310547 L530.098633,21.1835938 L507.056641,21.1835938 L507.056641,3.62792969 L575.422852,3.62792969 Z M667.408203,3.62792969 L667.408203,34.6728516 L692.176758,34.6728516 L692.176758,3.62792969 L713.921875,3.62792969 L713.921875,84.8310547 L692.176758,84.8310547 L692.176758,52.1748047 L667.408203,52.1748047 L667.408203,84.8310547 L645.555664,84.8310547 L645.555664,3.62792969 L667.408203,3.62792969 Z" id="Shape" stroke="#262524" stroke-width="3" fill="#2B2827"></path>
                    <path d="M608.34082,0.5 C618.249617,0.5 626.191481,3.14947139 632.203941,8.359026 C638.601868,13.9025707 642.114326,21.65 642.662612,31.6445313 L642.662612,31.6445313 L620.764239,31.6445313 C620.827402,26.667363 619.884969,23.0585201 617.637356,20.9892895 C615.603739,19.1170705 612.476002,18.2705078 608.34082,18.2705078 C604.252336,18.2705078 601.216296,19.7510547 599.301776,22.8268407 C597.21891,26.1730835 596.193895,31.5337282 596.09082,38.8562136 L596.09082,38.8562136 L596.09082,44.3779297 C596.09082,52.3498504 597.021618,58.0771616 599.027638,61.5062559 C600.871772,64.6586217 604.091553,66.1347656 608.555664,66.1347656 C612.431258,66.1347656 615.432974,65.2891911 617.494556,63.4530944 C619.777335,61.4199945 620.740486,58.0017645 620.653969,53.3515625 L620.653969,53.3515625 L642.427919,53.3515625 C642.394925,59.7269053 640.82584,65.301807 637.746591,70.0849062 C634.912656,74.4869527 630.941526,77.9049856 625.819822,80.3240927 C620.780957,82.7040736 615.028045,83.9052734 608.555664,83.9052734 C597.789063,83.9052734 589.335491,80.3599447 583.153564,73.3537606 C577.038604,66.4234727 573.916016,56.6589255 573.916016,44.0019531 L573.916016,44.0019531 L573.916016,40.1347656 C573.916016,32.2291845 575.30551,25.3159881 578.056909,19.3884771 C580.854379,13.3617134 584.887976,8.71239836 590.143478,5.42770958 C595.385511,2.15143912 601.448598,0.5 608.34082,0.5 Z M47.4511172,1.62792969 L77.4561181,82.8310547 L53.9509246,82.8310547 L49.3854949,68.2216797 L25.7599853,68.2216797 L21.2482666,82.8310547 L-2.14783919,82.8310547 L27.6340762,1.62792969 L47.4511172,1.62792969 Z M37.5485229,30.109348 L31.1983444,50.6660156 L43.9394077,50.6660156 L37.5485229,30.109348 Z M109.452148,1.62792969 C115.677943,1.62792969 121.18232,2.78613382 125.971286,5.07812925 C130.845294,7.41082569 134.613157,10.73536 137.286407,15.039103 C139.955282,19.335803 141.298828,24.2080103 141.298828,29.6611328 C141.298828,37.7752991 138.374255,44.2477879 132.570041,49.1004911 C126.99433,53.7621514 119.402135,56.1953212 109.74885,56.29468 L109.129883,56.2978516 L98.5986328,56.2978516 L98.5986328,82.8310547 L76.7460938,82.8310547 L76.7460938,1.62792969 L109.452148,1.62792969 Z M109.658902,19.1835938 L98.5986328,19.1835938 L98.5986328,38.7421875 L109.452148,38.7421875 L109.845426,38.7384001 C112.831999,38.680243 115.160842,37.9504161 116.76921,36.4172055 C118.415982,34.8473852 119.177734,32.6111374 119.177734,29.7685547 C119.177734,26.5488143 118.35305,23.951772 116.6096,22.0181276 C114.910258,20.1334023 112.579955,19.2159075 109.658902,19.1835938 L109.658902,19.1835938 Z M178.298828,1.62792969 C184.524622,1.62792969 190.029,2.78613382 194.817966,5.07812925 C199.691974,7.41082569 203.459837,10.73536 206.133087,15.039103 C208.801962,19.335803 210.145508,24.2080103 210.145508,29.6611328 C210.145508,37.7752991 207.220934,44.2477879 201.416721,49.1004911 C195.841009,53.7621514 188.248814,56.1953212 178.595529,56.29468 L177.976562,56.2978516 L167.445312,56.2978516 L167.445312,82.8310547 L145.592773,82.8310547 L145.592773,1.62792969 L178.298828,1.62792969 Z M178.505581,19.1835938 L167.445312,19.1835938 L167.445312,38.7421875 L178.298828,38.7421875 L178.692106,38.7384001 C181.678679,38.680243 184.007522,37.9504161 185.61589,36.4172055 C187.262662,34.8473852 188.024414,32.6111374 188.024414,29.7685547 C188.024414,26.5488143 187.19973,23.951772 185.45628,22.0181276 C183.756937,20.1334023 181.426635,19.2159075 178.505581,19.1835938 L178.505581,19.1835938 Z M236.291992,1.62792969 L236.291992,65.3291016 L269.109375,65.3291016 L269.109375,82.8310547 L214.439453,82.8310547 L214.439453,1.62792969 L236.291992,1.62792969 Z M328.288086,1.62792969 L328.288086,19.1835938 L293.161133,19.1835938 L293.161133,32.6728516 L322.80957,32.6728516 L322.80957,49.6914063 L293.161133,49.6914063 L293.161133,65.3291016 L328.180664,65.3291016 L328.180664,82.8310547 L271.308594,82.8310547 L271.308594,1.62792969 L328.288086,1.62792969 Z M371.469266,1.62792969 L379.320731,44.5524049 L388.723683,1.62792969 L407.139638,1.62792969 L416.696777,44.6115158 L424.559054,1.62792969 L446.352722,1.62792969 L429.119367,82.8310547 L407.165084,82.8310547 L397.895023,43.3738729 L388.815117,82.8310547 L366.90977,82.8310547 L349.620643,1.62792969 L371.469266,1.62792969 Z M488.181586,1.62792969 L515.444999,75.4114424 L518.186587,82.8310547 L494.681393,82.8310547 L490.115964,68.2216797 L466.490454,68.2216797 L461.978735,82.8310547 L438.58263,82.8310547 L468.364545,1.62792969 L488.181586,1.62792969 Z M478.278992,30.109348 L471.928813,50.6660156 L484.669876,50.6660156 L478.278992,30.109348 Z M575.422852,1.62792969 L575.422852,19.1835938 L551.951172,19.1835938 L551.951172,82.8310547 L530.098633,82.8310547 L530.098633,19.1835938 L507.056641,19.1835938 L507.056641,1.62792969 L575.422852,1.62792969 Z M667.408203,1.62792969 L667.408203,32.6728516 L692.176758,32.6728516 L692.176758,1.62792969 L713.921875,1.62792969 L713.921875,82.8310547 L692.176758,82.8310547 L692.176758,50.1748047 L667.408203,50.1748047 L667.408203,82.8310547 L645.555664,82.8310547 L645.555664,1.62792969 L667.408203,1.62792969 Z" id="Shape" stroke="#272625" stroke-width="3" fill="#202020"></path>
                    <g id="Shape">
                        <use fill="black" fill-opacity="1" filter="url(#filter-3)" xlink:href="#path-2"></use>
                        <path stroke="url(#linearGradient-1)" stroke-width="3" d="M608.34082,-1.5 C618.249617,-1.5 626.191481,1.14947139 632.203941,6.359026 C638.601868,11.9025707 642.114326,19.65 642.662612,29.6445313 L642.662612,29.6445313 L620.764239,29.6445313 C620.827402,24.667363 619.884969,21.0585201 617.637356,18.9892895 C615.603739,17.1170705 612.476002,16.2705078 608.34082,16.2705078 C604.252336,16.2705078 601.216296,17.7510547 599.301776,20.8268407 C597.21891,24.1730835 596.193895,29.5337282 596.09082,36.8562136 L596.09082,36.8562136 L596.09082,42.3779297 C596.09082,50.3498504 597.021618,56.0771616 599.027638,59.5062559 C600.871772,62.6586217 604.091553,64.1347656 608.555664,64.1347656 C612.431258,64.1347656 615.432974,63.2891911 617.494556,61.4530944 C619.777335,59.4199945 620.740486,56.0017645 620.653969,51.3515625 L620.653969,51.3515625 L642.427919,51.3515625 C642.394925,57.7269053 640.82584,63.301807 637.746591,68.0849062 C634.912656,72.4869527 630.941526,75.9049856 625.819822,78.3240927 C620.780957,80.7040736 615.028045,81.9052734 608.555664,81.9052734 C597.789063,81.9052734 589.335491,78.3599447 583.153564,71.3537606 C577.038604,64.4234727 573.916016,54.6589255 573.916016,42.0019531 L573.916016,42.0019531 L573.916016,38.1347656 C573.916016,30.2291845 575.30551,23.3159881 578.056909,17.3884771 C580.854379,11.3617134 584.887976,6.71239836 590.143478,3.42770958 C595.385511,0.151439125 601.448598,-1.5 608.34082,-1.5 Z M47.4511172,-0.372070312 L77.4561181,80.8310547 L53.9509246,80.8310547 L49.3854949,66.2216797 L25.7599853,66.2216797 L21.2482666,80.8310547 L-2.14783919,80.8310547 L27.6340762,-0.372070312 L47.4511172,-0.372070312 Z M37.5485229,28.109348 L31.1983444,48.6660156 L43.9394077,48.6660156 L37.5485229,28.109348 Z M109.452148,-0.372070312 C115.677943,-0.372070312 121.18232,0.786133817 125.971286,3.07812925 C130.845294,5.41082569 134.613157,8.73536003 137.286407,13.039103 C139.955282,17.335803 141.298828,22.2080103 141.298828,27.6611328 C141.298828,35.7752991 138.374255,42.2477879 132.570041,47.1004911 C126.99433,51.7621514 119.402135,54.1953212 109.74885,54.29468 L109.129883,54.2978516 L98.5986328,54.2978516 L98.5986328,80.8310547 L76.7460938,80.8310547 L76.7460938,-0.372070312 L109.452148,-0.372070312 Z M109.658902,17.1835938 L98.5986328,17.1835938 L98.5986328,36.7421875 L109.452148,36.7421875 L109.845426,36.7384001 C112.831999,36.680243 115.160842,35.9504161 116.76921,34.4172055 C118.415982,32.8473852 119.177734,30.6111374 119.177734,27.7685547 C119.177734,24.5488143 118.35305,21.951772 116.6096,20.0181276 C114.910258,18.1334023 112.579955,17.2159075 109.658902,17.1835938 L109.658902,17.1835938 Z M178.298828,-0.372070312 C184.524622,-0.372070312 190.029,0.786133817 194.817966,3.07812925 C199.691974,5.41082569 203.459837,8.73536003 206.133087,13.039103 C208.801962,17.335803 210.145508,22.2080103 210.145508,27.6611328 C210.145508,35.7752991 207.220934,42.2477879 201.416721,47.1004911 C195.841009,51.7621514 188.248814,54.1953212 178.595529,54.29468 L177.976562,54.2978516 L167.445312,54.2978516 L167.445312,80.8310547 L145.592773,80.8310547 L145.592773,-0.372070312 L178.298828,-0.372070312 Z M178.505581,17.1835938 L167.445312,17.1835938 L167.445312,36.7421875 L178.298828,36.7421875 L178.692106,36.7384001 C181.678679,36.680243 184.007522,35.9504161 185.61589,34.4172055 C187.262662,32.8473852 188.024414,30.6111374 188.024414,27.7685547 C188.024414,24.5488143 187.19973,21.951772 185.45628,20.0181276 C183.756937,18.1334023 181.426635,17.2159075 178.505581,17.1835938 L178.505581,17.1835938 Z M236.291992,-0.372070312 L236.291992,63.3291016 L269.109375,63.3291016 L269.109375,80.8310547 L214.439453,80.8310547 L214.439453,-0.372070312 L236.291992,-0.372070312 Z M328.288086,-0.372070312 L328.288086,17.1835938 L293.161133,17.1835938 L293.161133,30.6728516 L322.80957,30.6728516 L322.80957,47.6914063 L293.161133,47.6914063 L293.161133,63.3291016 L328.180664,63.3291016 L328.180664,80.8310547 L271.308594,80.8310547 L271.308594,-0.372070312 L328.288086,-0.372070312 Z M371.469266,-0.372070312 L379.320731,42.5524049 L388.723683,-0.372070312 L407.139638,-0.372070312 L416.696777,42.6115158 L424.559054,-0.372070312 L446.352722,-0.372070312 L429.119367,80.8310547 L407.165084,80.8310547 L397.895023,41.3738729 L388.815117,80.8310547 L366.90977,80.8310547 L349.620643,-0.372070312 L371.469266,-0.372070312 Z M488.181586,-0.372070312 L518.186587,80.8310547 L494.681393,80.8310547 L490.115964,66.2216797 L466.490454,66.2216797 L461.978735,80.8310547 L438.58263,80.8310547 L468.364545,-0.372070312 L488.181586,-0.372070312 Z M478.278992,28.109348 L471.928813,48.6660156 L484.669876,48.6660156 L478.278992,28.109348 Z M575.422852,-0.372070312 L575.422852,17.1835938 L551.951172,17.1835938 L551.951172,80.8310547 L530.098633,80.8310547 L530.098633,17.1835938 L507.056641,17.1835938 L507.056641,-0.372070312 L575.422852,-0.372070312 Z M667.408203,-0.372070312 L667.408203,30.6728516 L692.176758,30.6728516 L692.176758,-0.372070312 L713.921875,-0.372070312 L713.921875,80.8310547 L692.176758,80.8310547 L692.176758,48.1748047 L667.408203,48.1748047 L667.408203,80.8310547 L645.555664,80.8310547 L645.555664,-0.372070312 L667.408203,-0.372070312 Z" fill="#34302C" fill-rule="evenodd"></path>
                    </g>
                    <path d="M608.34082,0.5 C617.689798,0.5 625.211781,2.946921 630.894259,7.87055904 C636.446032,12.6809459 639.641155,19.2760685 640.50038,27.6445312 L640.50038,27.6445312 L622.733308,27.6445313 C622.517596,22.9583959 621.248561,19.595385 618.991975,17.5178931 C616.662035,15.3728689 613.12128,14.2705078 608.34082,14.2705078 C603.449308,14.2705078 599.877988,16.1164019 597.603835,19.7699594 C595.386126,23.3328356 594.200015,29.0165764 594.09082,36.8457031 L594.09082,36.8457031 L594.09082,42.3779297 C594.09082,50.8447547 595.177039,56.8848698 597.301334,60.5161439 C599.479592,64.2396608 603.216444,66.1347656 608.555664,66.1347656 C613.040709,66.1347656 616.45637,65.0559467 618.824731,62.9466248 C621.117008,60.9050664 622.402679,57.7175886 622.624232,53.3515625 L622.624232,53.3515625 L640.362168,53.3515625 C640.048378,58.4856584 638.617979,63.0365733 636.064938,67.0022969 C633.428854,71.097014 629.727608,74.2664805 624.965658,76.515667 C620.176096,78.7778956 614.705495,79.9052734 608.555664,79.9052734 C598.442274,79.9052734 590.470201,76.623074 584.653239,70.0305173 C578.813955,63.4126619 575.916016,54.0633443 575.916016,42.0019531 L575.916016,42.0019531 L575.916016,38.1347656 C575.916016,30.5529454 577.23128,23.9174571 579.871004,18.2305337 C582.495372,12.5766945 586.271282,8.20632728 591.203476,5.12370618 C596.14016,2.03827897 601.853505,0.5 608.34082,0.5 Z M46.0579609,1.62792969 L74.5849398,78.8310547 L55.4213064,78.8310547 L50.8558767,64.2216797 L24.284432,64.2216797 L19.7727132,78.8310547 L0.715946395,78.8310547 L29.0308288,1.62792969 L46.0579609,1.62792969 Z M37.5424195,21.3528736 L28.4872706,50.6660156 L46.6556141,50.6660156 L37.5424195,21.3528736 Z M109.452148,1.62792969 C115.349974,1.62792969 120.569218,2.7099606 125.107879,4.88216004 C129.618192,7.04079248 133.112672,10.1101317 135.587474,14.0943876 C138.063734,18.080991 139.298828,22.6038403 139.298828,27.6611328 C139.298828,35.1256816 136.633278,41.0964405 131.2872,45.5661123 C126.021514,49.9685713 118.833848,52.1997599 109.739029,52.2946875 L109.129883,52.2978516 L96.5986328,52.2978516 L96.5986328,78.8310547 L78.7460938,78.8310547 L78.7460938,1.62792969 L109.452148,1.62792969 Z M109.672255,15.1836214 L96.5986328,15.1835938 L96.5986328,38.7421875 L109.452148,38.7421875 L109.871823,38.7381746 C113.476205,38.6686401 116.228257,37.6960131 118.149196,35.8648377 C120.154525,33.9532154 121.177734,31.2611313 121.177734,27.7685547 C121.177734,23.9720098 120.139695,20.9466316 118.094977,18.6788533 C116.036054,16.3953205 113.232959,15.2211025 109.672255,15.1836214 L109.672255,15.1836214 Z M178.298828,1.62792969 C184.196654,1.62792969 189.415898,2.7099606 193.954558,4.88216004 C198.464872,7.04079248 201.959351,10.1101317 204.434153,14.0943876 C206.910414,18.080991 208.145508,22.6038403 208.145508,27.6611328 C208.145508,35.1256816 205.479958,41.0964405 200.13388,45.5661123 C194.868193,49.9685713 187.680527,52.1997599 178.585709,52.2946875 L177.976562,52.2978516 L165.445312,52.2978516 L165.445312,78.8310547 L147.592773,78.8310547 L147.592773,1.62792969 L178.298828,1.62792969 Z M178.518935,15.1836214 L165.445312,15.1835938 L165.445312,38.7421875 L178.298828,38.7421875 L178.718502,38.7381746 C182.322885,38.6686401 185.074937,37.6960131 186.995875,35.8648377 C189.001205,33.9532154 190.024414,31.2611313 190.024414,27.7685547 C190.024414,23.9720098 188.986375,20.9466316 186.941657,18.6788533 C184.882734,16.3953205 182.079639,15.2211025 178.518935,15.1836214 L178.518935,15.1836214 Z M234.291992,1.62792969 L234.291992,65.3291016 L267.109375,65.3291016 L267.109375,78.8310547 L216.439453,78.8310547 L216.439453,1.62792969 L234.291992,1.62792969 Z M326.288086,1.62792969 L326.288086,15.1835938 L291.161133,15.1835938 L291.161133,32.6728516 L320.80957,32.6728516 L320.80957,45.6914063 L291.161133,45.6914063 L291.161133,65.3291016 L326.180664,65.3291016 L326.180664,78.8310547 L273.308594,78.8310547 L273.308594,1.62792969 L326.288086,1.62792969 Z M369.801911,1.62792969 L379.144392,52.7038859 L390.332991,1.62792969 L405.535485,1.62792969 L416.887533,52.6841822 L426.226409,1.62792969 L443.883728,1.62792969 L427.499274,78.8310547 L408.74966,78.8310547 L397.874836,32.5433445 L387.223086,78.8310547 L368.528775,78.8310547 L352.091296,1.62792969 L369.801911,1.62792969 Z M486.78843,1.62792969 L515.315409,78.8310547 L496.151775,78.8310547 L491.586345,64.2216797 L465.014901,64.2216797 L460.503182,78.8310547 L441.446415,78.8310547 L469.761298,1.62792969 L486.78843,1.62792969 Z M478.272888,21.3528736 L469.217739,50.6660156 L487.386083,50.6660156 L478.272888,21.3528736 Z M573.422852,1.62792969 L573.422852,15.1835938 L549.951172,15.1835938 L549.951172,78.8310547 L532.098633,78.8310547 L532.098633,15.1835938 L509.056641,15.1835938 L509.056641,1.62792969 L573.422852,1.62792969 Z M665.408203,1.62792969 L665.408203,32.6728516 L694.176758,32.6728516 L694.176758,1.62792969 L711.921875,1.62792969 L711.921875,78.8310547 L694.176758,78.8310547 L694.176758,46.1748047 L665.408203,46.1748047 L665.408203,78.8310547 L647.555664,78.8310547 L647.555664,1.62792969 L665.408203,1.62792969 Z" id="Shape" stroke="#B19E83" fill="url(#linearGradient-4)"></path>
                </g>
            </g>
        </g>
    </g>
</svg>