<?xml version="1.0" encoding="UTF-8"?>
<svg width="48px" height="36px" viewBox="0 0 48 36" version="1.1" xmlns="http://www.w3.org/2000/svg" xmlns:xlink="http://www.w3.org/1999/xlink">
    <title>Shape</title>
    <g id="main" stroke="none" stroke-width="1" fill="none" fill-rule="evenodd">
        <g id="Market" transform="translate(-132.000000, -329.000000)" fill="#323232">
            <g id="Group-38" transform="translate(74.000000, 302.000000)">
                <path d="M85,57 C83.344,57 82,58.344 82,60 C82,61.658 83.344,63 85,63 C86.656,63 88,61.658 88,60 C88,58.344 86.656,57 85,57 Z M78,60 C78,61.658 76.656,63 75,63 C73.344,63 72,61.658 72,60 C72,58.344 73.344,57 75,57 C76.656,57 78,58.344 78,60 Z M104.514,31 L100.656,31 L93.71,55 L67.232,55 L58,33 L62.338,33 L69.89,51 L90.746,51 L97.61,27 L106,27 L104.514,31 Z M77.44,39.366 L72.79,35 L70,37.87 L77.492,45 L90.61,31.816 L87.766,29 L77.44,39.366 Z" id="Shape"></path>
            </g>
        </g>
    </g>
</svg>