<?xml version="1.0" encoding="UTF-8"?>
<svg width="48px" height="32px" viewBox="0 0 48 32" version="1.1" xmlns="http://www.w3.org/2000/svg" xmlns:xlink="http://www.w3.org/1999/xlink">
    <title>Shape@3x</title>
    <g id="main" stroke="none" stroke-width="1" fill="none" fill-rule="evenodd">
        <g id="Market" transform="translate(-338.000000, -331.000000)" fill="#333333" fill-rule="nonzero">
            <g id="Group-10" transform="translate(74.000000, 302.000000)">
                <g id="Group-39" transform="translate(220.000000, 0.000000)">
                    <path d="M88,29 L48,29 C45.792,29 44,30.792 44,33 L44,57 C44,59.208 45.792,61 48,61 L88,61 C90.208,61 92,59.208 92,57 L92,33 C92,30.792 90.208,29 88,29 Z M88,56 C88,56.552 87.552,57 87,57 L49,57 C48.448,57 48,56.552 48,56 L48,43 L88,43 L88,56 Z M88,37 L48,37 L48,34 C48,33.448 48.448,33 49,33 L87,33 C87.552,33 88,33.448 88,34 L88,37 Z M70,49 L52,49 L52,47 L70,47 L70,49 Z M64,53 L52,53 L52,51 L64,51 L64,53 Z M84,49 L78,49 L78,47 L84,47 L84,49 Z" id="Shape"></path>
                </g>
            </g>
        </g>
    </g>
</svg>