<?xml version="1.0" encoding="UTF-8"?>
<svg width="47px" height="32px" viewBox="0 0 47 32" version="1.1" xmlns="http://www.w3.org/2000/svg" xmlns:xlink="http://www.w3.org/1999/xlink">
    <title>Shape@3x</title>
    <g id="main" stroke="none" stroke-width="1" fill="none" fill-rule="evenodd">
        <g id="Market" transform="translate(-785.000000, -331.000000)" fill="#333333" fill-rule="nonzero">
            <g id="Group-10" transform="translate(74.000000, 302.000000)">
                <g id="Group-40" transform="translate(660.000000, 0.000000)">
                    <path d="M69.056,41.209 L72.148,41.209 L72.148,41.209 L74.8630091,52.0998888 C74.9740642,52.5453711 75.3741969,52.858 75.8333131,52.858 L77.7708309,52.858 C78.2289535,52.858 78.6284876,52.5466954 78.7404867,52.1024741 L81.487,41.209 L81.487,41.209 L84.655,41.209 L87.1498572,52.0816494 C87.2541048,52.5359628 87.6584065,52.858 88.1245269,52.858 L90.1680376,52.858 C90.6311457,52.858 91.0336656,52.5400245 91.1408734,52.0894963 L93.73,41.209 L93.73,41.209 L96.69,41.209 C97.2422847,41.209 97.69,40.7612847 97.69,40.209 L97.69,38.4025879 C97.69,37.8503031 97.2422847,37.4025879 96.69,37.4025879 L94.6401367,37.4025879 L94.6401367,37.4025879 L96.3936868,30.3048461 C96.5261501,29.768682 96.198886,29.2266524 95.6627219,29.0941891 C95.5842468,29.0748012 95.5037104,29.065 95.4228758,29.065 L93.3968065,29.065 C92.9192257,29.065 92.5082997,29.4027016 92.4157594,29.871231 L90.9282227,37.4025879 L90.9282227,37.4025879 L87.328,37.4025879 L85.3142112,29.808675 C85.197951,29.3702629 84.8011859,29.065 84.3476205,29.065 L82.2268117,29.065 C81.7716447,29.065 81.3739022,29.37238 81.2591265,29.8128384 L79.2813721,37.4025879 L79.2813721,37.4025879 L75.052,37.4025879 L73.4697056,29.8596956 C73.3725642,29.3966168 72.9641654,29.065 72.4910074,29.065 L70.3663026,29.065 C69.8140178,29.065 69.3663026,29.5127153 69.3663026,30.065 C69.3663026,30.1399674 69.3747327,30.214697 69.3914339,30.2877803 L71.017334,37.4025879 L71.017334,37.4025879 L69.056,37.4025879 C68.5037153,37.4025879 68.056,37.8503031 68.056,38.4025879 L68.056,40.209 C68.056,40.7612847 68.5037153,41.209 69.056,41.209 Z M75.877,41.209 L78.319,41.209 L76.933,46.423 L75.877,41.209 Z M87.922,41.209 L90.133,41.209 L89.176,46.621 L87.922,41.209 Z M64.723,29 L65.802,33 L56,33 C55.4871642,33 55.0644928,33.3860402 55.0067277,33.8833789 L55,34 L55,56 C55,56.5128358 55.3860402,56.9355072 55.8833789,56.9932723 L56,57 L86.034668,57 C86.5475038,57 86.9701751,56.6139598 87.0279402,56.1166211 L87.034668,56 L87.034,55.98 L90.928,55.98 L90.9282227,57 C90.9282227,59.209139 89.1373617,61 86.9282227,61 L55,61 C52.790861,61 51,59.209139 51,57 L51,33 C51,30.790861 52.790861,29 55,29 L64.723,29 Z M68,50 C68.5522847,50 69,50.4477153 69,51 C69,51.5522847 68.5522847,52 68,52 L59,52 C58.4477153,52 58,51.5522847 58,51 C58,50.4477153 58.4477153,50 59,50 L68,50 Z M66,46 C66.5522847,46 67,46.4477153 67,47 C67,47.5522847 66.5522847,48 66,48 L59,48 C58.4477153,48 58,47.5522847 58,47 C58,46.4477153 58.4477153,46 59,46 L66,46 Z M83.203,34.51 L83.9798584,37.4025879 L82.2337646,37.4025879 L83.203,34.51 Z" id="Shape"></path>
                </g>
            </g>
        </g>
    </g>
</svg>