<?xml version="1.0" encoding="UTF-8"?>
<svg width="43px" height="39px" viewBox="0 0 43 39" version="1.1" xmlns="http://www.w3.org/2000/svg" xmlns:xlink="http://www.w3.org/1999/xlink">
    <title>Shape@3x</title>
    <g id="main" stroke="none" stroke-width="1" fill="none" fill-rule="evenodd">
        <g id="Market" transform="translate(-566.000000, -328.000000)" fill="#333333">
            <g id="Group-10" transform="translate(74.000000, 302.000000)">
                <g id="Group-41" transform="translate(440.000000, 0.000000)">
                    <path d="M87.0237727,59.9849545 C85.6215455,60.9138636 83.941,61.4545455 82.1363636,61.4545455 C77.2436364,61.4545455 73.2727273,57.4836364 73.2727273,52.5909091 C73.2727273,47.6981818 77.2436364,43.7272727 82.1363636,43.7272727 C87.0290909,43.7272727 91,47.6981818 91,52.5909091 C91,54.3955455 90.4593182,56.0760909 89.5304091,57.4783182 L94.5454545,62.4933636 L92.0388182,65 L87.0237727,59.9849545 L87.0237727,59.9849545 Z M73.4553182,61.4545455 L52,61.4545455 L52,26 L91,26 L91,43.9098636 C89.9824545,42.8710455 88.7840909,42.0095 87.4545455,41.3784091 L87.4545455,29.5454545 L75.0454545,29.5454545 L75.0454545,40.1818182 L67.9545455,40.1818182 L67.9545455,29.5454545 L55.5454545,29.5454545 L55.5454545,57.9090909 L70.9238636,57.9090909 C71.5549545,59.2386364 72.4165,60.437 73.4553182,61.4545455 Z M82.1363636,47.2727273 C85.072,47.2727273 87.4545455,49.6552727 87.4545455,52.5909091 C87.4545455,55.5265455 85.072,57.9090909 82.1363636,57.9090909 C79.2007273,57.9090909 76.8181818,55.5265455 76.8181818,52.5909091 C76.8181818,49.6552727 79.2007273,47.2727273 82.1363636,47.2727273 Z M79.9062727,54.3636364 L79.0199091,54.3636364 L79.0199091,50.8181818 L79.9062727,50.8181818 L79.9062727,54.3636364 Z M81.679,54.3636364 L80.7926364,54.3636364 L80.7926364,50.8181818 L81.679,50.8181818 L81.679,54.3636364 Z M83.4517273,54.3636364 L82.5653636,54.3636364 L82.5653636,50.8181818 L83.4517273,50.8181818 L83.4517273,54.3636364 Z M85.2102727,54.3636364 L84.3380909,54.3636364 L84.3380909,50.8181818 L85.2102727,50.8181818 L85.2102727,54.3636364 Z M67.9545455,50.8181818 L67.9545455,54.3636364 L59.0909091,54.3636364 L59.0909091,50.8181818 L67.9545455,50.8181818 Z" id="Shape"></path>
                </g>
            </g>
        </g>
    </g>
</svg>