<?xml version="1.0" encoding="UTF-8"?>
<svg width="63px" height="25px" viewBox="0 0 63 25" version="1.1" xmlns="http://www.w3.org/2000/svg" xmlns:xlink="http://www.w3.org/1999/xlink">
    <title>Group 2</title>
    <g id="Page-1" stroke="none" stroke-width="1" fill="none" fill-rule="evenodd">
        <g id="Artboard" transform="translate(-1214.000000, -786.000000)">
            <g id="Group-2" transform="translate(1214.000000, 786.000000)">
                <rect id="Rectangle" stroke="#FFFFFF" x="0.5" y="0.5" width="62" height="24"></rect>
                <path d="M38.1191406,13.3583984 L38.1191406,16 L36.8837891,16 L36.8837891,8.890625 L39.6035156,8.890625 C40.3977865,8.890625 41.0284831,9.09733073 41.4956055,9.51074219 C41.9627279,9.92415365 42.1962891,10.4710286 42.1962891,11.1513672 C42.1962891,11.8479818 41.9676107,12.389974 41.5102539,12.7773438 C41.0528971,13.1647135 40.4124349,13.3583984 39.5888672,13.3583984 L38.1191406,13.3583984 Z M38.1191406,12.3671875 L39.6035156,12.3671875 C40.0429688,12.3671875 40.3782552,12.2638346 40.609375,12.0571289 C40.8404948,11.8504232 40.9560547,11.5517578 40.9560547,11.1611328 C40.9560547,10.7770182 40.8388672,10.4702148 40.6044922,10.2407227 C40.3701172,10.0112305 40.0478516,9.89322917 39.6376953,9.88671875 L38.1191406,9.88671875 L38.1191406,12.3671875 Z M25.4384766,14.1689453 C25.4384766,13.8564453 25.3286133,13.6155599 25.1088867,13.4462891 C24.8891602,13.2770182 24.4928385,13.1061198 23.9199219,12.9335938 C23.3470052,12.7610677 22.891276,12.5690104 22.5527344,12.3574219 C21.9049479,11.9505208 21.5810547,11.4199219 21.5810547,10.765625 C21.5810547,10.1927083 21.8146159,9.72070312 22.2817383,9.34960938 C22.7488607,8.97851562 23.3551432,8.79296875 24.1005859,8.79296875 C24.5953776,8.79296875 25.0364583,8.88411458 25.4238281,9.06640625 C25.8111979,9.24869792 26.1155599,9.50830078 26.3369141,9.84521484 C26.5582682,10.1821289 26.6689453,10.5556641 26.6689453,10.9658203 L25.4384766,10.9658203 C25.4384766,10.5947266 25.3221029,10.3041992 25.0893555,10.0942383 C24.8566081,9.88427734 24.523763,9.77929688 24.0908203,9.77929688 C23.6871745,9.77929688 23.3738607,9.8655599 23.1508789,10.0380859 C22.9278971,10.210612 22.8164062,10.4514974 22.8164062,10.7607422 C22.8164062,11.0211589 22.936849,11.238444 23.1777344,11.4125977 C23.4186198,11.5867513 23.8157552,11.7560221 24.3691406,11.9204102 C24.922526,12.0847982 25.366862,12.2719727 25.7021484,12.4819336 C26.0374349,12.6918945 26.2832031,12.9327799 26.4394531,13.2045898 C26.5957031,13.4763997 26.6738281,13.7945964 26.6738281,14.1591797 C26.6738281,14.7516276 26.4467773,15.222819 25.9926758,15.5727539 C25.5385742,15.9226888 24.922526,16.0976562 24.1445312,16.0976562 C23.6302083,16.0976562 23.1573893,16.0024414 22.7260742,15.8120117 C22.2947591,15.621582 21.9594727,15.358724 21.7202148,15.0234375 C21.480957,14.688151 21.3613281,14.297526 21.3613281,13.8515625 L22.5966797,13.8515625 C22.5966797,14.2552083 22.7301432,14.5677083 22.9970703,14.7890625 C23.2639974,15.0104167 23.6464844,15.1210938 24.1445312,15.1210938 C24.5742188,15.1210938 24.8972982,15.0340169 25.1137695,14.8598633 C25.3302409,14.6857096 25.4384766,14.4554036 25.4384766,14.1689453 Z M29.7988281,12.9287109 L28.9931641,13.7832031 L28.9931641,16 L27.7578125,16 L27.7578125,8.890625 L28.9931641,8.890625 L28.9931641,12.2255859 L29.6767578,11.3808594 L31.7568359,8.890625 L33.2509766,8.890625 L30.609375,12.0400391 L33.4023438,16 L31.9375,16 L29.7988281,12.9287109 Z M35.3652344,16 L34.1347656,16 L34.1347656,8.890625 L35.3652344,8.890625 L35.3652344,16 Z" id="Shape" fill="#FFFFFF" fill-rule="nonzero"></path>
            </g>
        </g>
    </g>
</svg>