<?xml version="1.0" encoding="UTF-8"?>
<svg width="437px" height="23px" viewBox="0 0 437 23" version="1.1" xmlns="http://www.w3.org/2000/svg" xmlns:xlink="http://www.w3.org/1999/xlink">
    <title>Group 13@3x</title>
    <defs>
        <linearGradient x1="50%" y1="0%" x2="50%" y2="100%" id="linearGradient-1">
            <stop stop-color="#FFFFFF" stop-opacity="0" offset="0%"></stop>
            <stop stop-color="#FFFFFF" offset="100%"></stop>
        </linearGradient>
        <filter x="-27.0%" y="-27.0%" width="154.1%" height="154.1%" filterUnits="objectBoundingBox" id="filter-2">
            <feGaussianBlur stdDeviation="2" in="SourceGraphic"></feGaussianBlur>
        </filter>
    </defs>
    <g id="main" stroke="none" stroke-width="1" fill="none" fill-rule="evenodd">
        <g id="Market" transform="translate(-920.000000, -297.000000)">
            <g id="Group-13" transform="translate(1136.550000, 309.000000) rotate(-315.000000) translate(-1136.550000, -309.000000) translate(980.000000, 153.000000)">
                <line x1="312.5" y1="0.5" x2="12.95" y2="299.05" id="Line-5" stroke="url(#linearGradient-1)" stroke-width="0.5" stroke-linecap="square"></line>
                <path d="M11.1,312 C11.4177701,307.288448 12.2457761,304.26639 13.5840179,302.933826 C14.929738,301.593815 17.801732,300.915873 22.2,300.9 C18.0472479,300.748414 15.1752539,299.993973 13.5840179,298.636674 C11.992782,297.279376 11.164776,294.333818 11.1,289.8 C11.2008486,294.362312 10.5824129,297.30787 9.24469299,298.636674 C7.89519682,299.977176 4.81363249,300.731618 0,300.9 C5.07000865,300.966155 8.15157298,301.644097 9.24469299,302.933826 C10.6020876,304.535362 11.2205233,307.55742 11.1,312 Z" id="Oval" fill="#FFFFFF"></path>
                <path d="M11.1,312 C11.4177701,307.288448 12.2457761,304.26639 13.5840179,302.933826 C14.929738,301.593815 17.801732,300.915873 22.2,300.9 C18.0472479,300.748414 15.1752539,299.993973 13.5840179,298.636674 C11.992782,297.279376 11.164776,294.333818 11.1,289.8 C11.2008486,294.362312 10.5824129,297.30787 9.24469299,298.636674 C7.89519682,299.977176 4.81363249,300.731618 0,300.9 C5.07000865,300.966155 8.15157298,301.644097 9.24469299,302.933826 C10.6020876,304.535362 11.2205233,307.55742 11.1,312 Z" id="Oval" fill="#FFFFFF" filter="url(#filter-2)"></path>
            </g>
        </g>
    </g>
</svg>