<?xml version="1.0" encoding="UTF-8"?>
<svg width="44px" height="23px" viewBox="0 0 44 23" version="1.1" xmlns="http://www.w3.org/2000/svg" xmlns:xlink="http://www.w3.org/1999/xlink">
    <title>Group 44@3x</title>
    <defs>
        <linearGradient x1="50%" y1="0%" x2="50%" y2="100%" id="linearGradient-1">
            <stop stop-color="#FFFFFF" stop-opacity="0" offset="0%"></stop>
            <stop stop-color="#FFFFFF" offset="100%"></stop>
        </linearGradient>
    </defs>
    <g id="main" stroke="none" stroke-width="1" fill="none" fill-rule="evenodd">
        <g id="Market" transform="translate(-1368.000000, -59.000000)">
            <g id="Group-44" transform="translate(1368.000000, 59.000000)">
                <path d="M18.1126471,2.15678429 C19.7804296,2.63877147 21,4.17696277 21,6 C21,8.209139 19.209139,10 17,10 C16.5021069,10 16.0254605,9.90903214 15.5857745,9.74281011 C17.5703873,9.07962833 19,7.20676613 19,5 C19,3.98263336 18.6961489,3.03623493 18.1742457,2.24660367 Z" id="Oval-4" fill="#FFE17C"></path>
                <line x1="31.5" y1="2.5" x2="25.5" y2="8.5" id="Line-5" stroke="url(#linearGradient-1)" stroke-width="0.5" stroke-linecap="square"></line>
                <path d="M25,12 C25.0858838,10.7709496 25.3096692,9.97634814 25.6713562,9.61619568 C26.0350643,9.25403065 26.8112789,9.0486321 28,9 C26.8776346,8.95903092 26.10142,8.75512772 25.6713562,8.38829041 C25.2412924,8.02145309 25.017507,7.22535629 25,6 C25.0710186,7.32421337 24.9257549,8.16588817 24.564209,8.52502441 C24.1994803,8.88732221 23.344744,9.04564741 22,9 C23.3702726,9.01787966 24.2031278,9.2011072 24.4985657,9.54968262 C24.8654291,9.98253025 25.0325739,10.7993027 25,12 Z" id="Oval" fill="#FFFFFF"></path>
                <path d="M9,17 C9.08588382,15.7709496 9.30966922,14.9763481 9.6713562,14.6161957 C10.0350643,14.2540307 10.8112789,14.0486321 12,14 C10.8776346,13.9590309 10.10142,13.7551277 9.6713562,13.3882904 C9.24129243,13.0214531 9.01750703,12.2253563 9,11 C9.07101858,12.3242134 8.92575491,13.1658882 8.56420898,13.5250244 C8.19948029,13.8873222 7.34474396,14.0456474 6,14 C7.37027261,14.0178797 8.20312783,14.2011072 8.49856567,14.5496826 C8.86542909,14.9825302 9.03257387,15.7993027 9,17 Z" id="Oval" fill="#FFFFFF" opacity="0.400000006"></path>
                <path d="M29,16 C29.0572559,15.1806331 29.2064461,14.6508988 29.4475708,14.4107971 C29.6900429,14.1693538 30.2075193,14.0324214 31,14 C30.2517564,13.9726873 29.73428,13.8367518 29.4475708,13.5921936 C29.1608616,13.3476354 29.0116714,12.8169042 29,12 C29.0473457,12.8828089 28.9505033,13.4439254 28.7094727,13.6833496 C28.4663202,13.9248815 27.896496,14.0304316 27,14 C27.9135151,14.0119198 28.4687519,14.1340715 28.6657104,14.3664551 C28.9102861,14.6550202 29.0217159,15.1995351 29,16 Z" id="Oval" fill="#FFFFFF" opacity="0.5"></path>
                <path d="M35.5,20 C35.5429419,19.3854748 35.6548346,18.9881741 35.8356781,18.8080978 C36.0175322,18.6270153 36.4056395,18.524316 37,18.5 C36.4388173,18.4795155 36.05071,18.3775639 35.8356781,18.1941452 C35.6206462,18.0107265 35.5087535,17.6126781 35.5,17 C35.5355093,17.6621067 35.4628775,18.0829441 35.2821045,18.2625122 C35.0997401,18.4436611 34.672372,18.5228237 34,18.5 C34.6851363,18.5089398 35.1015639,18.6005536 35.2492828,18.7748413 C35.4327145,18.9912651 35.5162869,19.3996514 35.5,20 Z" id="Oval-Copy-4" fill="#FFFFFF" opacity="0.5"></path>
                <path d="M24.5,3 C24.5429419,2.38547479 24.6548346,1.98817407 24.8356781,1.80809784 C25.0175322,1.62701533 25.4056395,1.52431605 26,1.5 C25.4388173,1.47951546 25.05071,1.37756386 24.8356781,1.1941452 C24.6206462,1.01072655 24.5087535,0.612678145 24.5,0 C24.5355093,0.662106684 24.4628775,1.08294409 24.2821045,1.26251221 C24.0997401,1.44366111 23.672372,1.5228237 23,1.5 C23.6851363,1.50893983 24.1015639,1.6005536 24.2492828,1.77484131 C24.4327145,1.99126512 24.5162869,2.39965136 24.5,3 Z" id="Oval-Copy-5" fill="#FFFFFF" opacity="0.5"></path>
                <path d="M42.5,23 C42.5429419,22.3854748 42.6548346,21.9881741 42.8356781,21.8080978 C43.0175322,21.6270153 43.4056395,21.524316 44,21.5 C43.4388173,21.4795155 43.05071,21.3775639 42.8356781,21.1941452 C42.6206462,21.0107265 42.5087535,20.6126781 42.5,20 C42.5355093,20.6621067 42.4628775,21.0829441 42.2821045,21.2625122 C42.0997401,21.4436611 41.672372,21.5228237 41,21.5 C41.6851363,21.5089398 42.1015639,21.6005536 42.2492828,21.7748413 C42.4327145,21.9912651 42.5162869,22.3996514 42.5,23 Z" id="Oval-Copy-9" fill="#FFFFFF" opacity="0.5"></path>
                <path d="M5.5,10 C5.54294191,9.38547479 5.65483461,8.98817407 5.8356781,8.80809784 C6.01753216,8.62701533 6.40563946,8.52431605 7,8.5 C6.43881729,8.47951546 6.05070999,8.37756386 5.8356781,8.1941452 C5.62064621,8.01072655 5.50875351,7.61267814 5.5,7 C5.53550929,7.66210668 5.46287745,8.08294409 5.28210449,8.26251221 C5.09974014,8.44366111 4.67237198,8.5228237 4,8.5 C4.6851363,8.50893983 5.10156392,8.6005536 5.24928284,8.77484131 C5.43271455,8.99126512 5.51628693,9.39965136 5.5,10 Z" id="Oval-Copy-6" fill="#FFFFFF" opacity="0.5"></path>
                <path d="M1.5,23 C1.54294191,22.3854748 1.65483461,21.9881741 1.8356781,21.8080978 C2.01753216,21.6270153 2.40563946,21.524316 3,21.5 C2.43881729,21.4795155 2.05070999,21.3775639 1.8356781,21.1941452 C1.62064621,21.0107265 1.50875351,20.6126781 1.5,20 C1.53550929,20.6621067 1.46287745,21.0829441 1.28210449,21.2625122 C1.09974014,21.4436611 0.67237198,21.5228237 0,21.5 C0.685136304,21.5089398 1.10156392,21.6005536 1.24928284,21.7748413 C1.43271455,21.9912651 1.51628693,22.3996514 1.5,23 Z" id="Oval-Copy-7" fill="#FFFFFF" opacity="0.5"></path>
            </g>
        </g>
    </g>
</svg>