<?xml version="1.0" encoding="UTF-8"?>
<svg width="39px" height="39px" viewBox="0 0 39 39" version="1.1" xmlns="http://www.w3.org/2000/svg" xmlns:xlink="http://www.w3.org/1999/xlink">
    <title>Group 13@3x</title>
    <defs>
        <path d="M18.1145794,32.7133871 C19.2709023,31.5631085 20.0798593,30.8912446 20.5414506,30.6977956 C21.5609557,30.2705296 22.3632767,29.9355795 22.9484136,29.6929453 C23.5552466,29.4413146 24.4007666,29.1231207 25.4849736,28.7383636 C25.9753821,28.5643303 27.085238,28.5643303 28.8145415,28.7383636 C28.6540379,26.9897806 28.6540379,25.876232 28.8145415,25.3977177 C29.1647822,24.3535348 29.4650529,23.5296307 29.7153534,22.9260055 C29.9569789,22.3433011 30.2744686,21.5452145 30.6678224,20.5317458 C30.8477555,20.0681517 31.4660348,19.2713583 32.5226604,18.1413656 C31.4659164,17.0110643 30.8475587,16.2140688 30.6675871,15.7503792 C30.274342,14.7371985 29.9569307,13.939314 29.7153534,13.3567258 C29.4678924,12.7599484 29.1715886,11.978061 28.8264421,11.0110637 C28.6638177,10.5554389 28.6598509,9.43222754 28.8145415,7.6414295 C27.0894285,7.84318134 25.9823079,7.84318134 25.4931795,7.6414295 C24.405032,7.192599 23.5567767,6.84205115 22.9484136,6.58978595 C22.3583308,6.34510091 21.5414621,5.97257104 20.4978077,5.47219634 C20.0350749,5.25034152 19.2273191,4.62224236 18.0745403,3.58789885 C17.0014001,4.62485512 16.2378908,5.25462842 15.7840122,5.47721874 C14.7688668,5.97506454 13.9672407,6.34592027 13.3791338,6.58978595 C12.7786909,6.83876695 11.9701837,7.14061453 10.9536124,7.4953287 C10.4816909,7.65999714 9.47142246,7.70869741 7.92280691,7.6414295 C7.88953354,9.27848709 7.78141941,10.3403565 7.5984645,10.8270377 C7.19286288,11.905985 6.86410605,12.7492143 6.61219402,13.3567258 C6.37007212,13.9406273 6.04019119,14.7407969 5.62255122,15.7572345 C5.43247139,16.2198441 4.76709438,17.0145545 3.6264202,18.1413656 C4.76722108,19.2684856 5.43268119,20.0633982 5.62280052,20.5261036 C6.04032247,21.5422529 6.3701203,22.3422202 6.61219402,22.9260055 C6.86298274,23.530808 7.18993248,24.3567495 7.59304322,25.4038299 C7.7768927,25.8813791 7.7786998,26.8815375 7.5984645,28.4043051 C9.36201149,28.4585345 10.4795427,28.5736138 10.9510583,28.7495432 C11.9688296,29.1292885 12.7781881,29.4437559 13.3791338,29.6929453 C13.9643292,29.9356037 14.7667521,30.2705965 15.7864025,30.6979237 C16.2479454,30.8913526 17.0240044,31.5631737 18.1145794,32.7133871 Z" id="path-1"></path>
        <filter x="-27.5%" y="-27.1%" width="154.8%" height="154.3%" filterUnits="objectBoundingBox" id="filter-2">
            <feMorphology radius="0.5" operator="dilate" in="SourceAlpha" result="shadowSpreadOuter1"></feMorphology>
            <feOffset dx="0" dy="0" in="shadowSpreadOuter1" result="shadowOffsetOuter1"></feOffset>
            <feGaussianBlur stdDeviation="2" in="shadowOffsetOuter1" result="shadowBlurOuter1"></feGaussianBlur>
            <feColorMatrix values="0 0 0 0 1   0 0 0 0 0.570858829   0 0 0 0 0  0 0 0 1 0" type="matrix" in="shadowBlurOuter1"></feColorMatrix>
        </filter>
        <path d="M18.1145794,32.7133871 C19.2709023,31.5631085 20.0798593,30.8912446 20.5414506,30.6977956 C21.5609557,30.2705296 22.3632767,29.9355795 22.9484136,29.6929453 C23.5552466,29.4413146 24.4007666,29.1231207 25.4849736,28.7383636 C25.9753821,28.5643303 27.085238,28.5643303 28.8145415,28.7383636 C28.6540379,26.9897806 28.6540379,25.876232 28.8145415,25.3977177 C29.1647822,24.3535348 29.4650529,23.5296307 29.7153534,22.9260055 C29.9569789,22.3433011 30.2744686,21.5452145 30.6678224,20.5317458 C30.8477555,20.0681517 31.4660348,19.2713583 32.5226604,18.1413656 C31.4659164,17.0110643 30.8475587,16.2140688 30.6675871,15.7503792 C30.274342,14.7371985 29.9569307,13.939314 29.7153534,13.3567258 C29.4678924,12.7599484 29.1715886,11.978061 28.8264421,11.0110637 C28.6638177,10.5554389 28.6598509,9.43222754 28.8145415,7.6414295 C27.0894285,7.84318134 25.9823079,7.84318134 25.4931795,7.6414295 C24.405032,7.192599 23.5567767,6.84205115 22.9484136,6.58978595 C22.3583308,6.34510091 21.5414621,5.97257104 20.4978077,5.47219634 C20.0350749,5.25034152 19.2273191,4.62224236 18.0745403,3.58789885 C17.0014001,4.62485512 16.2378908,5.25462842 15.7840122,5.47721874 C14.7688668,5.97506454 13.9672407,6.34592027 13.3791338,6.58978595 C12.7786909,6.83876695 11.9701837,7.14061453 10.9536124,7.4953287 C10.4816909,7.65999714 9.47142246,7.70869741 7.92280691,7.6414295 C7.88953354,9.27848709 7.78141941,10.3403565 7.5984645,10.8270377 C7.19286288,11.905985 6.86410605,12.7492143 6.61219402,13.3567258 C6.37007212,13.9406273 6.04019119,14.7407969 5.62255122,15.7572345 C5.43247139,16.2198441 4.76709438,17.0145545 3.6264202,18.1413656 C4.76722108,19.2684856 5.43268119,20.0633982 5.62280052,20.5261036 C6.04032247,21.5422529 6.3701203,22.3422202 6.61219402,22.9260055 C6.86298274,23.530808 7.18993248,24.3567495 7.59304322,25.4038299 C7.7768927,25.8813791 7.7786998,26.8815375 7.5984645,28.4043051 C9.36201149,28.4585345 10.4795427,28.5736138 10.9510583,28.7495432 C11.9688296,29.1292885 12.7781881,29.4437559 13.3791338,29.6929453 C13.9643292,29.9356037 14.7667521,30.2705965 15.7864025,30.6979237 C16.2479454,30.8913526 17.0240044,31.5631737 18.1145794,32.7133871 Z" id="path-3"></path>
        <filter x="-27.5%" y="-27.1%" width="154.8%" height="154.3%" filterUnits="objectBoundingBox" id="filter-4">
            <feMorphology radius="0.5" operator="dilate" in="SourceAlpha" result="shadowSpreadOuter1"></feMorphology>
            <feOffset dx="0" dy="0" in="shadowSpreadOuter1" result="shadowOffsetOuter1"></feOffset>
            <feGaussianBlur stdDeviation="2" in="shadowOffsetOuter1" result="shadowBlurOuter1"></feGaussianBlur>
            <feColorMatrix values="0 0 0 0 1   0 0 0 0 0.570858829   0 0 0 0 0  0 0 0 1 0" type="matrix" in="shadowBlurOuter1"></feColorMatrix>
        </filter>
    </defs>
    <g id="intro" stroke="none" stroke-width="1" fill="none" fill-rule="evenodd">
        <g id="manager_dashboard-copy" transform="translate(-822.000000, -30.000000)">
            <g id="Group-6" transform="translate(462.000000, 31.412101)">
                <g id="Group-13" transform="translate(361.709806, 0.000000)">
                    <g id="Oval" opacity="0.400000006">
                        <use fill="black" fill-opacity="1" filter="url(#filter-2)" xlink:href="#path-1"></use>
                        <use fill="#FFB229" fill-rule="evenodd" xlink:href="#path-1"></use>
                    </g>
                    <g id="Oval" opacity="0.400000006" transform="translate(18.074540, 18.150643) rotate(17.000000) translate(-18.074540, -18.150643) ">
                        <use fill="black" fill-opacity="1" filter="url(#filter-4)" xlink:href="#path-3"></use>
                        <use fill="#FFB229" fill-rule="evenodd" xlink:href="#path-3"></use>
                    </g>
                    <circle id="Oval" fill="#FFB229" cx="18.1264202" cy="18.0878988" r="12.5"></circle>
                </g>
            </g>
        </g>
    </g>
</svg>