<?xml version="1.0" encoding="UTF-8"?>
<svg width="135px" height="50px" viewBox="0 0 135 50" version="1.1" xmlns="http://www.w3.org/2000/svg" xmlns:xlink="http://www.w3.org/1999/xlink">
    <title>이지이쿼티이로움마켓</title>
    <defs>
        <linearGradient x1="3.49877232%" y1="45.0795096%" x2="96.574442%" y2="55.6266012%" id="linearGradient-1">
            <stop stop-color="#1584B9" offset="0.0600961538%"></stop>
            <stop stop-color="#770DAC" offset="29.207123%"></stop>
            <stop stop-color="#B80D0D" offset="54.4901616%"></stop>
            <stop stop-color="#E5A20A" offset="76.5687764%"></stop>
            <stop stop-color="#43A800" offset="100%"></stop>
        </linearGradient>
    </defs>
    <g id="브랜드" stroke="none" stroke-width="1" fill="none" fill-rule="evenodd" opacity="0.200000003">
        <g id="cut-1" transform="translate(-1711.000000, -803.000000)" fill="url(#linearGradient-1)" fill-rule="nonzero">
            <path d="M1845.23014,842.98306 L1841.59744,842.98306 L1841.59744,852.833744 L1838.67965,852.833744 L1838.67965,842.98306 L1835.11345,842.98306 L1835.11345,840.730287 L1845.23014,840.730287 L1845.23014,842.98306 Z M1718.75833,809.97445 L1714.16965,809.97445 L1714.16965,812.858997 L1719.58961,812.858997 L1719.58961,815.103456 L1711.25186,815.103456 L1711.25186,803 L1719.60623,803 L1719.60623,805.252772 L1714.16965,805.252772 L1714.16965,807.804806 L1718.75833,807.804806 L1718.75833,809.97445 Z M1725.48609,815.103456 C1725.38633,814.920574 1725.29766,814.651793 1725.22008,814.297113 C1724.70468,814.945513 1723.98424,815.269713 1723.05875,815.269713 C1722.21084,815.269713 1721.4904,815.013401 1720.89742,814.500777 C1720.30443,813.988154 1720.00794,813.343911 1720.00794,812.568048 C1720.00794,811.592678 1720.36817,810.855609 1721.08861,810.35684 C1721.80905,809.858071 1722.85647,809.608687 1724.23085,809.608687 L1725.09539,809.608687 L1725.09539,809.134856 C1725.09539,808.309117 1724.73794,807.896247 1724.02303,807.896247 C1723.35801,807.896247 1723.0255,808.223218 1723.0255,808.877159 L1720.22408,808.877159 C1720.22408,808.007085 1720.594,807.300495 1721.33384,806.757392 C1722.07368,806.214288 1723.01718,805.942736 1724.16435,805.942736 C1725.31152,805.942736 1726.21762,806.222601 1726.88264,806.78233 C1727.54767,807.34206 1727.88849,808.109609 1727.90512,809.084979 L1727.90512,813.066817 C1727.9162,813.892557 1728.04366,814.52433 1728.28751,814.962139 L1728.28751,815.103456 L1725.48609,815.103456 Z M1723.73208,813.274637 C1724.08122,813.274637 1724.37079,813.199822 1724.60077,813.050191 C1724.83076,812.900561 1724.99563,812.731534 1725.09539,812.54311 L1725.09539,811.104993 L1724.28073,811.104993 C1723.30536,811.104993 1722.81768,811.542801 1722.81768,812.418418 C1722.81768,812.673344 1722.90357,812.879779 1723.07537,813.037722 C1723.24717,813.195666 1723.46607,813.274637 1723.73208,813.274637 Z M1733.9346,812.576361 C1733.9346,812.33806 1733.80991,812.146866 1733.56053,812.002777 C1733.31114,811.858688 1732.83731,811.709058 1732.13904,811.553885 C1731.44076,811.398712 1730.8644,811.195049 1730.40997,810.942893 C1729.95554,810.690738 1729.60917,810.384549 1729.37087,810.024327 C1729.13257,809.664105 1729.01342,809.251236 1729.01342,808.785718 C1729.01342,807.959979 1729.35424,807.279713 1730.03589,806.744922 C1730.71754,806.210131 1731.60979,805.942736 1732.71262,805.942736 C1733.89858,805.942736 1734.85178,806.211517 1735.57223,806.749079 C1736.29267,807.286641 1736.65289,807.99323 1736.65289,808.868846 L1733.84316,808.868846 C1733.84316,808.148402 1733.46354,807.788181 1732.70431,807.788181 C1732.41059,807.788181 1732.16397,807.869923 1731.96447,808.033409 C1731.76496,808.196894 1731.6652,808.400558 1731.6652,808.6444 C1731.6652,808.893785 1731.78713,809.096063 1732.03097,809.251236 C1732.27481,809.406408 1732.66413,809.533871 1733.19892,809.633625 C1733.73371,809.733379 1734.20338,809.852529 1734.60794,809.991076 C1735.96016,810.456594 1736.63627,811.290646 1736.63627,812.493233 C1736.63627,813.313431 1736.27189,813.981227 1735.54313,814.496621 C1734.81438,815.012015 1733.87087,815.269713 1732.71262,815.269713 C1731.9423,815.269713 1731.25511,815.131166 1730.65104,814.854072 C1730.04698,814.576978 1729.57592,814.200131 1729.23786,813.723529 C1728.89981,813.246928 1728.73078,812.745388 1728.73078,812.21891 L1731.34932,812.21891 C1731.3604,812.634551 1731.49895,812.937968 1731.76496,813.129163 C1732.03097,813.320358 1732.37179,813.415955 1732.78743,813.415955 C1733.16982,813.415955 1733.45662,813.338369 1733.64781,813.183196 C1733.83901,813.028024 1733.9346,812.825745 1733.9346,812.576361 Z M1741.31076,811.179808 L1742.80707,806.108992 L1745.808,806.108992 L1742.14205,816.608076 L1741.9841,816.990465 C1741.46317,818.154259 1740.54321,818.736156 1739.22425,818.736156 C1738.85848,818.736156 1738.47332,818.680737 1738.06877,818.5699 L1738.06877,816.566511 L1738.43453,816.566511 C1738.828,816.566511 1739.12865,816.509707 1739.33647,816.396099 C1739.54429,816.28249 1739.69808,816.078826 1739.79783,815.785107 L1740.02228,815.186584 L1736.89666,806.108992 L1739.88927,806.108992 L1741.31076,811.179808 Z M1718.60937,828.379469 L1714.0207,828.379469 L1714.0207,831.264015 L1719.44065,831.264015 L1719.44065,833.508475 L1711.1029,833.508475 L1711.1029,821.405018 L1719.45728,821.405018 L1719.45728,823.657791 L1714.0207,823.657791 L1714.0207,826.209824 L1718.60937,826.209824 L1718.60937,828.379469 Z M1719.75923,828.919802 C1719.75923,827.489998 1720.06958,826.370539 1720.69027,825.561425 C1721.31096,824.752311 1722.16718,824.347754 1723.25893,824.347754 C1724.17888,824.347754 1724.91595,824.724602 1725.47014,825.478297 L1725.66964,824.51401 L1728.09699,824.51401 L1728.09699,836.966605 L1725.28725,836.966605 L1725.28725,832.760321 C1724.74969,833.369928 1724.06804,833.674731 1723.2423,833.674731 C1722.17826,833.674731 1721.33174,833.263247 1720.70274,832.440278 C1720.07374,831.61731 1719.75923,830.443817 1719.75923,828.919802 Z M1722.56065,829.094371 C1722.56065,830.707056 1723.02617,831.513399 1723.9572,831.513399 C1724.60006,831.513399 1725.04341,831.269557 1725.28725,830.781872 L1725.28725,827.223988 C1725.0545,826.747386 1724.61669,826.509086 1723.97383,826.509086 C1723.10376,826.509086 1722.63547,827.204591 1722.56896,828.595602 L1722.56065,829.094371 Z M1734.80812,832.535875 C1734.21514,833.295112 1733.41434,833.674731 1732.40572,833.674731 C1731.41927,833.674731 1730.6725,833.387939 1730.16542,832.814355 C1729.65833,832.240771 1729.40479,831.416417 1729.40479,830.341293 L1729.40479,824.51401 L1732.20621,824.51401 L1732.20621,830.357918 C1732.20621,831.128239 1732.58029,831.513399 1733.32844,831.513399 C1733.9713,831.513399 1734.4285,831.283412 1734.70006,830.823436 L1734.70006,824.51401 L1737.5181,824.51401 L1737.5181,833.508475 L1734.89125,833.508475 L1734.80812,832.535875 Z M1741.77696,833.508475 L1738.96723,833.508475 L1738.96723,824.51401 L1741.77696,824.51401 L1741.77696,833.508475 Z M1738.80097,822.194736 C1738.80097,821.79572 1738.94506,821.46875 1739.23324,821.213824 C1739.52141,820.958897 1739.89549,820.831434 1740.35546,820.831434 C1740.81544,820.831434 1741.18952,820.958897 1741.47769,821.213824 C1741.76587,821.46875 1741.90996,821.79572 1741.90996,822.194736 C1741.90996,822.593751 1741.76587,822.920721 1741.47769,823.175648 C1741.18952,823.430574 1740.81544,823.558037 1740.35546,823.558037 C1739.89549,823.558037 1739.52141,823.430574 1739.23324,823.175648 C1738.94506,822.920721 1738.80097,822.593751 1738.80097,822.194736 Z M1751.05945,824.51401 L1752.48094,829.584827 L1753.97725,824.51401 L1756.97817,824.51401 L1753.31222,835.013094 L1753.15428,835.395483 C1752.63334,836.559277 1751.71339,837.141174 1750.39442,837.141174 C1750.02866,837.141174 1749.6435,837.085755 1749.23894,836.974918 L1749.23894,834.97153 L1749.60471,834.97153 C1749.99818,834.97153 1750.29883,834.914726 1750.50665,834.801117 C1750.71447,834.687509 1750.86825,834.483845 1750.96801,834.190125 L1751.19245,833.591603 L1748.06684,824.51401 L1751.05945,824.51401 Z M1746.53458,822.277864 L1746.53458,824.51401 L1748.01426,824.51401 L1748.01426,826.459209 L1746.53458,826.459209 L1746.53458,830.574051 C1746.53458,830.912106 1746.59554,831.147636 1746.71746,831.280641 C1746.83938,831.413646 1747.08046,831.480148 1747.44068,831.480148 C1747.71777,831.480148 1747.95053,831.463522 1748.13895,831.430271 L1748.13895,833.433659 C1747.63464,833.594374 1747.10817,833.674731 1746.55952,833.674731 C1745.59523,833.674731 1744.8831,833.447514 1744.42313,832.99308 C1743.96315,832.538646 1743.73316,831.848683 1743.73316,830.92319 L1743.73316,826.459209 L1742.58599,826.459209 L1742.58599,824.51401 L1743.73316,824.51401 L1743.73316,822.277864 L1746.53458,822.277864 Z M1718.50647,847.704738 L1713.9178,847.704738 L1713.9178,850.589284 L1719.33775,850.589284 L1719.33775,852.833744 L1711,852.833744 L1711,840.730287 L1719.35438,840.730287 L1719.35438,842.98306 L1713.9178,842.98306 L1713.9178,845.535094 L1718.50647,845.535094 L1718.50647,847.704738 Z M1721.18791,848.014783 L1721.18791,845.354683 L1723.85633,845.354683 L1723.85633,848.014783 L1721.18791,848.014783 Z M1730.8355,848.560958 L1729.25606,848.560958 L1729.25606,852.833744 L1726.33826,852.833744 L1726.33826,840.730287 L1731.10151,840.730287 C1732.53685,840.730287 1733.65908,841.048945 1734.4682,841.686261 C1735.27731,842.323577 1735.68187,843.224131 1735.68187,844.387925 C1735.68187,845.230287 1735.51145,845.928567 1735.17063,846.482754 C1734.8298,847.036942 1734.2964,847.485834 1733.57041,847.82943 L1736.09751,852.709052 L1736.09751,852.833744 L1732.97189,852.833744 L1730.8355,848.560958 Z M1729.25606,846.308185 L1731.10151,846.308185 C1731.65569,846.308185 1732.07272,846.162711 1732.35258,845.871762 C1732.63245,845.580814 1732.77238,845.174872 1732.77238,844.653935 C1732.77238,844.132999 1732.63106,843.724286 1732.34843,843.427795 C1732.06579,843.131305 1731.65015,842.98306 1731.10151,842.98306 L1729.25606,842.98306 L1729.25606,846.308185 Z M1747.46382,847.0314 C1747.46382,848.211819 1747.24491,849.256463 1746.80711,850.165331 C1746.3693,851.074198 1745.74722,851.77386 1744.94088,852.264316 C1744.13454,852.754772 1743.21597,853 1742.18518,853 C1741.15439,853 1740.23998,852.763085 1739.44195,852.289254 C1738.64392,851.815424 1738.02185,851.13793 1737.57573,850.256772 C1737.12961,849.375613 1736.89546,848.364221 1736.87329,847.222595 L1736.87329,846.540944 C1736.87329,845.354983 1737.09081,844.308954 1737.52585,843.402857 C1737.96089,842.49676 1738.58435,841.797098 1739.39623,841.303872 C1740.20812,840.810645 1741.13223,840.564031 1742.16856,840.564031 C1743.1938,840.564031 1744.10821,840.807874 1744.91179,841.295559 C1745.71536,841.783244 1746.3402,842.477364 1746.78632,843.377918 C1747.23245,844.278473 1747.45828,845.310648 1747.46382,846.474441 L1747.46382,847.0314 Z M1744.49614,846.524318 C1744.49614,845.321731 1744.29525,844.408707 1743.89347,843.785246 C1743.49168,843.161785 1742.91671,842.850055 1742.16856,842.850055 C1740.7055,842.850055 1739.93241,843.947346 1739.84928,846.141929 L1739.84097,847.0314 C1739.84097,848.217361 1740.03771,849.129 1740.43118,849.766316 C1740.82465,850.403631 1741.40932,850.722289 1742.18518,850.722289 C1742.92225,850.722289 1743.49029,850.409173 1743.88931,849.782941 C1744.28832,849.156709 1744.4906,848.256154 1744.49614,847.081277 L1744.49614,846.524318 Z M1758.23161,840.730287 L1758.23161,848.652399 C1758.23161,849.550182 1758.04041,850.32743 1757.65802,850.984143 C1757.27563,851.640855 1756.72699,852.141009 1756.01209,852.484606 C1755.29719,852.828202 1754.45205,853 1753.47668,853 C1752.00254,853 1750.84152,852.617611 1749.99361,851.852832 C1749.1457,851.088053 1748.71344,850.040638 1748.69681,848.710588 L1748.69681,840.730287 L1751.63123,840.730287 L1751.63123,848.768778 C1751.66449,850.093286 1752.27963,850.75554 1753.47668,850.75554 C1754.08074,850.75554 1754.53795,850.589284 1754.84829,850.256772 C1755.15864,849.924259 1755.31381,849.383926 1755.31381,848.635773 L1755.31381,840.730287 L1758.23161,840.730287 Z M1763.65426,840.730287 L1766.35592,849.151167 L1769.04927,840.730287 L1772.88979,840.730287 L1772.88979,852.833744 L1769.96368,852.833744 L1769.96368,850.007387 L1770.24632,844.221669 L1767.32021,852.833744 L1765.39164,852.833744 L1762.45721,844.213356 L1762.73985,850.007387 L1762.73985,852.833744 L1759.82205,852.833744 L1759.82205,840.730287 L1763.65426,840.730287 Z M1782.35517,840.730287 L1785.05683,849.151167 L1787.75018,840.730287 L1791.5907,840.730287 L1791.5907,852.833744 L1788.66459,852.833744 L1788.66459,850.007387 L1788.94723,844.221669 L1786.02112,852.833744 L1784.09255,852.833744 L1781.15812,844.213356 L1781.44076,850.007387 L1781.44076,852.833744 L1778.52296,852.833744 L1778.52296,840.730287 L1782.35517,840.730287 Z M1800.23873,850.572658 L1796.24026,850.572658 L1795.54199,852.833744 L1792.42468,852.833744 L1796.86372,840.730287 L1799.60695,840.730287 L1804.07925,852.833744 L1800.94532,852.833744 L1800.23873,850.572658 Z M1796.93854,848.319886 L1799.54045,848.319886 L1798.23534,844.121915 L1796.93854,848.319886 Z M1809.22757,848.560958 L1807.64814,848.560958 L1807.64814,852.833744 L1804.73034,852.833744 L1804.73034,840.730287 L1809.49358,840.730287 C1810.92893,840.730287 1812.05116,841.048945 1812.86027,841.686261 C1813.66939,842.323577 1814.07394,843.224131 1814.07394,844.387925 C1814.07394,845.230287 1813.90353,845.928567 1813.56271,846.482754 C1813.22188,847.036942 1812.68847,847.485834 1811.96249,847.82943 L1814.48958,852.709052 L1814.48958,852.833744 L1811.36397,852.833744 L1809.22757,848.560958 Z M1807.64814,846.308185 L1809.49358,846.308185 C1810.04777,846.308185 1810.4648,846.162711 1810.74466,845.871762 C1811.02453,845.580814 1811.16446,845.174872 1811.16446,844.653935 C1811.16446,844.132999 1811.02314,843.724286 1810.74051,843.427795 C1810.45787,843.131305 1810.04223,842.98306 1809.49358,842.98306 L1807.64814,842.98306 L1807.64814,846.308185 Z M1819.72104,848.328199 L1818.52399,849.641623 L1818.52399,852.833744 L1815.6062,852.833744 L1815.6062,840.730287 L1818.52399,840.730287 L1818.52399,846.067114 L1819.53816,844.529243 L1822.14838,840.730287 L1825.75614,840.730287 L1821.66624,846.083739 L1825.75614,852.833744 L1822.29801,852.833744 L1819.72104,848.328199 Z M1833.77239,847.704738 L1829.18372,847.704738 L1829.18372,850.589284 L1834.60367,850.589284 L1834.60367,852.833744 L1826.26592,852.833744 L1826.26592,840.730287 L1834.6203,840.730287 L1834.6203,842.98306 L1829.18372,842.98306 L1829.18372,845.535094 L1833.77239,845.535094 L1833.77239,847.704738 Z" id="이지이쿼티이로움마켓"></path>
        </g>
    </g>
</svg>