<svg xmlns="http://www.w3.org/2000/svg" width="38" height="50" viewBox="0 0 38 50">
  <path id="Fill_2473" data-name="Fill 2473" d="M33.787,50a25.5,25.5,0,0,1-10.7-2.317A40.4,40.4,0,0,1,15.4,42.927c-.508-.383-1.013-.776-1.548-1.193-3.207-2.5-6.838-5.325-10.767-5.325a8.363,8.363,0,0,0-3.084.6S0,37,0,36.994a22.405,22.405,0,0,1,2.778-4.4,24.51,24.51,0,0,1,9.346-7.253l.192-.087.014-.006a25.838,25.838,0,0,1,9.953-1.932c5.714,0,10.776,1.775,12.31,4.317a2.183,2.183,0,0,1-.1,2.177,3.007,3.007,0,0,1-2.615,1.528,3.571,3.571,0,0,1-1.159-.2,7.384,7.384,0,0,0-2.386-.453,4.4,4.4,0,0,0-3.276,1.486,4.641,4.641,0,0,0-1.124,3.968c.242,1.2,1.146,2.879,4.081,4.1a14.544,14.544,0,0,0,5.553,1.036A17.019,17.019,0,0,0,38,40.688v8.947a23.22,23.22,0,0,1-3.277.349C34.408,49.995,34.094,50,33.787,50ZM33.578,38.9a12.138,12.138,0,0,1-4.633-.868c-1.085-.451-2.426-1.228-2.655-2.366a2.274,2.274,0,0,1,.481-1.81,1.974,1.974,0,0,1,1.575-.773,5.061,5.061,0,0,1,1.6.328,6.029,6.029,0,0,0,1.95.332,5.3,5.3,0,0,0,4.188-2.008,4.7,4.7,0,0,0,.567-5.334,10.474,10.474,0,0,0-5.617-4.088A25.66,25.66,0,0,0,22.5,20.974a30.176,30.176,0,0,0-10.3,1.749A29.757,29.757,0,0,1,16.788,7.25C19,3.943,22.972,0,29.3,0c.266,0,.537.007.807.021A14.1,14.1,0,0,1,38,2.656V38.2A14.451,14.451,0,0,1,33.578,38.9Z" transform="translate(0 0)" fill="#fff"/>
</svg>
