<svg xmlns="http://www.w3.org/2000/svg" width="40.888" height="55.016" viewBox="0 0 40.888 55.016">
  <path id="Shape_Copy" data-name="Shape Copy" d="M7.4,55.014a5.936,5.936,0,0,0,3.248-3.668l.029-.095-.434-30.418,0-.007a2.018,2.018,0,0,1,1.166-1.333l22.439-3.236.131.018a5.051,5.051,0,0,1,3.862,2.752l3.1,27.2a7.79,7.79,0,0,1-4.522,5.644l-.138.06L7.4,55.016ZM18.1,38.358a.87.87,0,0,0-.741.984,7.4,7.4,0,0,0,8.365,6.305l7.336-1.031a.872.872,0,0,0,.742-.985.876.876,0,0,0-.863-.75.919.919,0,0,0-.122.008L25.51,43.916a5.771,5.771,0,0,1-.806.057,5.685,5.685,0,0,1-5.62-4.874.876.876,0,0,0-.864-.75A.918.918,0,0,0,18.1,38.358ZM30.088,23.473,22.752,24.5a7.415,7.415,0,0,0-6.3,8.365,7.4,7.4,0,0,0,8.365,6.3l7.336-1.03a.873.873,0,0,0,.742-.985.874.874,0,0,0-.861-.751.933.933,0,0,0-.122.009L24.6,37.444a5.812,5.812,0,0,1-.8.056,5.7,5.7,0,0,1-3.709-1.376,5.656,5.656,0,0,1,2.933-9.9L30.331,25.2a.872.872,0,0,0,.742-.985.876.876,0,0,0-.863-.75A.918.918,0,0,0,30.088,23.473ZM31,29.945l-.864.122-6.9.97a.872.872,0,0,0,.12,1.735.776.776,0,0,0,.122-.009l7.768-1.091a.872.872,0,0,0-.122-1.735A.918.918,0,0,0,31,29.945ZM5.045,54.123l-3.794-2.8,0,0a4.064,4.064,0,0,1-1.2-2.645L3.044,19l.005-.01a2.34,2.34,0,0,1,1.862-1.212L10.2,19.391a1.968,1.968,0,0,0-1.166,1.337L9,20.876,7.537,52.8l-.014.028a2.462,2.462,0,0,1-2.477,1.3Zm10-39.1,0-4.053C15.055,5.531,19.535.7,24.584.7,28.719.7,31.9,4.044,31.9,8.627l-.005,4.211a1.2,1.2,0,0,1-2.4,0V8.627a5.79,5.79,0,0,0-1.572-4.158,4.605,4.605,0,0,0-3.333-1.358c-3.724,0-7.126,3.751-7.133,7.869v4.047a1.2,1.2,0,0,1-1.023,1.189,1.257,1.257,0,0,1-.183.014A1.2,1.2,0,0,1,15.043,15.027Zm-6.371-1.51v-4.1C8.682,3.974,12.03,0,17.077,0a1.106,1.106,0,0,1,1.129,1.133,1.155,1.155,0,0,1-1.129,1.132c-3.724,0-5.994,3.039-6,7.157v4.092a1.207,1.207,0,0,1-1.028,1.193,1.168,1.168,0,0,1-.175.013A1.2,1.2,0,0,1,8.672,13.517Z" transform="translate(-0.054)" fill="#fff"/>
</svg>
