<svg xmlns="http://www.w3.org/2000/svg" width="65" height="65" viewBox="0 0 65 65">
  <path id="Shape" d="M2.708,65V27.084H62.292v7.841a7.541,7.541,0,0,0-3.736-1.113c-.14-.007-.281-.011-.419-.011a7.782,7.782,0,0,0-6.507,3.77,15.478,15.478,0,0,0-2.384,8.046,15.7,15.7,0,0,1,5.357-.91,13.339,13.339,0,0,1,4.436.694,5.445,5.445,0,0,1,2.921,2.126,2.447,2.447,0,0,1-.3,2.774,2.754,2.754,0,0,1-2.178,1.044,3.144,3.144,0,0,1-1.014-.173A2.616,2.616,0,0,0,57.641,51a1.027,1.027,0,0,0-.819.4,1.18,1.18,0,0,0-.25.941c.119.591.816,1,1.381,1.23a6.3,6.3,0,0,0,2.408.451,7.51,7.51,0,0,0,1.931-.255v1.278a8.833,8.833,0,0,1-1.933.215,7.569,7.569,0,0,1-2.887-.538c-1.526-.636-2-1.511-2.122-2.133a2.414,2.414,0,0,1,.584-2.065,2.287,2.287,0,0,1,1.7-.772,3.848,3.848,0,0,1,1.241.236,1.847,1.847,0,0,0,.6.105,1.563,1.563,0,0,0,1.36-.795,1.135,1.135,0,0,0,.05-1.131c-.8-1.322-3.43-2.245-6.4-2.245a13.437,13.437,0,0,0-5.175,1l-.075.033-.033.015A12.934,12.934,0,0,0,42.9,53.044a4.343,4.343,0,0,1,1.6-.311c2.044,0,3.932,1.471,5.6,2.768.28.219.542.423.806.621,2.533,1.91,5.443,3.677,9.561,3.677.161,0,.32,0,.487-.008a12.111,12.111,0,0,0,1.336-.121V65H2.708ZM31.977,40.262V55.671a2.791,2.791,0,0,0,.579,1.92,1.912,1.912,0,0,0,1.478.64,1.957,1.957,0,0,0,1.531-.64,2.821,2.821,0,0,0,.572-1.92V38a2.225,2.225,0,0,0-.761-1.973,3.668,3.668,0,0,0-2.056-.51h-1.4a5.341,5.341,0,0,0-1.835.229,1.544,1.544,0,0,0-.846.823A12.954,12.954,0,0,0,28.61,38.5L25.366,50.736,22.12,38.5a12.784,12.784,0,0,0-.625-1.934,1.546,1.546,0,0,0-.845-.823,5.354,5.354,0,0,0-1.836-.229h-1.4a3.669,3.669,0,0,0-2.057.51A2.226,2.226,0,0,0,14.594,38V55.671a2.789,2.789,0,0,0,.579,1.927,2.1,2.1,0,0,0,3.009-.007,2.818,2.818,0,0,0,.571-1.92V40.254l3.58,14.229c.141.538.255.967.358,1.348a5.022,5.022,0,0,0,.48,1.181,2.409,2.409,0,0,0,2.194,1.219,2.389,2.389,0,0,0,1.645-.533,2.814,2.814,0,0,0,.814-1.181c.149-.434.34-1.119.572-2.034l3.578-14.221ZM54.167,16.25V13.276L46.347,0H51.8L65,13.463v2.971a5.394,5.394,0,0,1-5.416,5.233A5.555,5.555,0,0,1,54.167,16.25Zm-13.541,0V13.276L38.082,0h5.262l8.109,13.547V16.52a5.318,5.318,0,0,1-5.412,5.146A5.555,5.555,0,0,1,40.625,16.25Zm-13.541,0V13.276L29.919,0h5.16l2.839,13.271v2.975a5.417,5.417,0,1,1-10.833.005Zm-13.542.184V13.463L21.656,0h5.262L24.375,13.463v2.974a5.42,5.42,0,0,1-10.833,0ZM0,16.434V13.463L13.2,0h5.452L10.833,13.463v2.974A5.42,5.42,0,0,1,0,16.434Z" fill="#fff"/>
</svg>
