<svg id="logo" xmlns="http://www.w3.org/2000/svg" width="89.197" height="20" viewBox="0 0 89.197 20">
  <g id="Group_5" data-name="Group 5" transform="translate(0 0)">
    <path id="Fill_2470" data-name="Fill 2470" d="M9.778,10.558a1.88,1.88,0,0,1-.227,2.134,2.174,2.174,0,0,1-2.455.67c-.817-.281-1.038-.058-1.27.178a.911.911,0,0,0-.193.724c.091.454.628.766,1.062.946a5.707,5.707,0,0,0,6.018-1.4,5.146,5.146,0,0,0,1.1-1.71,3.989,3.989,0,0,1,.779-1.273,2.828,2.828,0,0,1,2.1-.861,2.645,2.645,0,0,1,1.491.545,5.463,5.463,0,0,0-5.718-4.677l.02-.029S12.588.3,7.16.009C2.624-.231.108,4.6,0,9.089c3.352-1.253,8.374-.857,9.778,1.469" transform="translate(4.88)" fill="#ff8f15"/>
    <path id="Fill_2472" data-name="Fill 2472" d="M23.1,2.84a1.451,1.451,0,0,0-.308-.6,1.737,1.737,0,0,0-2.648-.053c-.588.58-.664,1.782-1.88,2.982a6.684,6.684,0,0,1-7.061,1.6C8.92,5.815,9.481,4.093,10.024,3.54a1.912,1.912,0,0,1,2.265-.413c1.158.4,1.932-.765,1.548-1.4C12.89.159,8.5-.729,4.933.773L4.851.81A9.867,9.867,0,0,0,0,5.476C2.33,4.555,4.372,6.5,6.159,7.844a11.658,11.658,0,0,0,7.728,2.823,10.624,10.624,0,0,0,7.191-3.42c.912-1.009,2.375-3.022,2.025-4.406" transform="translate(0 9.327)" fill="#95d600"/>
  </g>
  <path id="Fill_2441" data-name="Fill 2441" d="M56.448,9V3.408L53.651,6.2a.975.975,0,0,1-1.4,0l-2.8-2.794V9a1,1,0,1,1-2,0V1a1.008,1.008,0,0,1,1-1,1,1,0,0,1,.7.3l3.8,3.8,3.8-3.8a.986.986,0,0,1,.7-.3,1.007,1.007,0,0,1,1,1V9a1,1,0,1,1-2,0Zm-33.726.689-3.7-3.7H17.432v3a1,1,0,1,1-2,0V1a1,1,0,0,1,1-1h4.991A3,3,0,0,1,21.8,5.977l2.323,2.309a.947.947,0,0,1,.3.7,1,1,0,0,1-1,1A.946.946,0,0,1,22.722,9.688ZM17.432,4h3.992a1,1,0,1,0,0-2H17.432ZM1,9.986a1.007,1.007,0,0,1-1-1V1A1.006,1.006,0,0,1,1,0H6.99a1,1,0,0,1,1,1,1,1,0,0,1-1,1H2V4H5.993a1,1,0,0,1,0,2H2v2H6.99a1,1,0,0,1,0,2Zm35.98-4.495V1a1,1,0,1,1,2,0V5.492a2.5,2.5,0,1,0,4.991,0V1a1,1,0,1,1,2,0V5.492a4.493,4.493,0,1,1-8.986,0ZM27.134,8.524a5,5,0,0,1,0-7.063,4.993,4.993,0,0,1,8.524,3.533,4.994,4.994,0,0,1-8.524,3.53Zm.535-3.53a3,3,0,1,0,3-3A3,3,0,0,0,27.669,4.994Zm-17.647,0A1.425,1.425,0,1,1,11.448,6.42,1.425,1.425,0,0,1,10.022,4.994Z" transform="translate(30.748 5.417)" fill="#ff8f15"/>
</svg>
