<svg xmlns="http://www.w3.org/2000/svg" width="133.796" height="30" viewBox="0 0 133.796 30">
  <g id="Group_5" data-name="Group 5" transform="translate(0 0)">
    <path id="Fill_2470" data-name="Fill 2470" d="M14.667,15.837a2.82,2.82,0,0,1-.34,3.2,3.261,3.261,0,0,1-3.683,1.005c-1.225-.421-1.557-.087-1.9.267A1.366,1.366,0,0,0,8.451,21.4c.137.682.943,1.149,1.593,1.42a8.56,8.56,0,0,0,9.027-2.095,7.719,7.719,0,0,0,1.651-2.565,5.983,5.983,0,0,1,1.169-1.91,4.242,4.242,0,0,1,3.156-1.291,3.968,3.968,0,0,1,2.237.817c-1-6.411-6.73-7-8.577-7.015l.03-.043s.145-8.27-8-8.7C3.937-.347.162,6.894,0,13.634c5.028-1.88,12.561-1.286,14.667,2.2" transform="translate(7.32)" fill="#fff"/>
    <path id="Fill_2472" data-name="Fill 2472" d="M34.655,4.261a2.177,2.177,0,0,0-.462-.9,2.605,2.605,0,0,0-3.971-.079c-.881.87-1,2.672-2.819,4.473a10.026,10.026,0,0,1-10.592,2.4c-3.43-1.431-2.588-4.014-1.774-4.843a2.868,2.868,0,0,1,3.4-.619c1.736.6,2.9-1.147,2.322-2.1C19.335.238,12.744-1.094,7.4,1.159l-.124.056A14.8,14.8,0,0,0,0,8.214c3.494-1.382,6.558,1.532,9.239,3.552S15.529,16.18,20.831,16a15.936,15.936,0,0,0,10.787-5.13c1.368-1.514,3.562-4.533,3.037-6.609" transform="translate(0 13.991)" fill="#fff"/>
  </g>
  <path id="Fill_2441" data-name="Fill 2441" d="M84.672,13.5V5.112L80.477,9.3a1.463,1.463,0,0,1-2.106,0L74.176,5.112V13.5a1.5,1.5,0,1,1-3,0V1.5a1.512,1.512,0,0,1,1.5-1.5,1.492,1.492,0,0,1,1.055.447l5.693,5.693L85.119.448A1.48,1.48,0,0,1,86.174,0a1.511,1.511,0,0,1,1.5,1.5v12a1.5,1.5,0,1,1-3,0ZM34.083,14.531,28.535,8.987H26.149V13.48a1.5,1.5,0,1,1-3,0V1.5a1.5,1.5,0,0,1,1.5-1.5h7.487A4.5,4.5,0,0,1,32.7,8.966l3.485,3.463a1.421,1.421,0,0,1,.444,1.051,1.5,1.5,0,0,1-1.495,1.5A1.419,1.419,0,0,1,34.083,14.531ZM26.149,5.993h5.988a1.5,1.5,0,1,0,0-3H26.149ZM1.5,14.98A1.511,1.511,0,0,1,0,13.48V1.5A1.508,1.508,0,0,1,1.5,0h8.987a1.506,1.506,0,0,1,1.5,1.5,1.506,1.506,0,0,1-1.5,1.5H3v3H8.989a1.5,1.5,0,0,1,0,2.994H3v2.994h7.487a1.5,1.5,0,0,1,0,3ZM55.468,8.238V1.5a1.5,1.5,0,1,1,3,0V8.238a3.744,3.744,0,1,0,7.487,0V1.5a1.5,1.5,0,1,1,2.994,0V8.238a6.739,6.739,0,1,1-13.478,0ZM40.7,12.786a7.5,7.5,0,0,1,0-10.595,7.489,7.489,0,0,1,12.786,5.3,7.492,7.492,0,0,1-12.786,5.3Zm.8-5.3A4.493,4.493,0,1,0,46,3,4.5,4.5,0,0,0,41.5,7.491Zm-26.471,0A2.138,2.138,0,1,1,17.172,9.63,2.138,2.138,0,0,1,15.033,7.491Z" transform="translate(46.122 8.126)" fill="#fff"/>
</svg>
