<?xml version="1.0" encoding="UTF-8"?>
<svg width="136px" height="27px" viewBox="0 0 136 27" version="1.1" xmlns="http://www.w3.org/2000/svg" xmlns:xlink="http://www.w3.org/1999/xlink">
    <title>이로움 마켓</title>
    <g id="브랜드" stroke="none" stroke-width="1" fill="none" fill-rule="evenodd">
        <g id="cut-1" transform="translate(-1527.000000, -785.000000)" fill-rule="nonzero">
            <g id="이로움-마켓" transform="translate(1527.794000, 785.472000)">
                <path d="M19.214,24.44 L17.342,24.44 L17.342,0 L19.214,0 L19.214,24.44 Z M13.338,9.23 C13.338,10.218 13.156,11.154 12.844,11.986 C12.48,12.844 12.012,13.572 11.44,14.17 C10.816,14.794 10.114,15.288 9.308,15.626 C8.476,15.99 7.592,16.172 6.656,16.172 C5.668,16.172 4.784,15.99 4.004,15.626 C3.172,15.288 2.47,14.794 1.898,14.17 C1.274,13.546 0.806,12.818 0.494,11.96 C0.156,11.128 0,10.218 0,9.23 C0,8.242 0.156,7.332 0.52,6.474 C0.832,5.642 1.3,4.888 1.898,4.264 C2.47,3.64 3.172,3.146 4.004,2.782 C4.81,2.444 5.694,2.262 6.656,2.262 C7.592,2.262 8.476,2.444 9.308,2.782 C10.114,3.146 10.816,3.64 11.44,4.264 C12.012,4.888 12.48,5.642 12.844,6.474 C13.156,7.332 13.338,8.242 13.338,9.23 Z M11.44,9.23 C11.44,8.476 11.31,7.774 11.076,7.098 C10.816,6.474 10.504,5.902 10.088,5.434 C9.646,4.966 9.152,4.602 8.58,4.316 C7.982,4.056 7.358,3.926 6.682,3.926 C6.006,3.926 5.356,4.056 4.784,4.316 C4.186,4.602 3.692,4.966 3.276,5.434 C2.834,5.902 2.496,6.474 2.262,7.098 C2.002,7.774 1.898,8.476 1.898,9.23 C1.898,10.01 2.002,10.712 2.262,11.336 C2.496,11.986 2.834,12.532 3.276,13 C3.692,13.468 4.186,13.832 4.784,14.092 C5.356,14.378 6.006,14.508 6.682,14.508 C7.358,14.508 7.982,14.378 8.58,14.092 C9.152,13.832 9.646,13.468 10.088,13 C10.504,12.532 10.816,11.986 11.076,11.336 C11.31,10.712 11.44,10.01 11.44,9.23 Z" id="Shape" fill="#333333"></path>
                <polygon id="Path" fill="#333333" points="41.0000741 9.178 27.5320741 9.178 27.5320741 13.364 41.4420741 13.364 41.4420741 14.924 34.2660741 14.924 34.2660741 19.5 44.6920741 19.5 44.6920741 21.164 21.9680741 21.164 21.9680741 19.5 32.3940741 19.5 32.3940741 14.924 25.6600741 14.924 25.6600741 7.592 39.1280741 7.592 39.1280741 3.744 25.6600741 3.744 25.6600741 2.158 41.0000741 2.158"></polygon>
                <path d="M48.4341481,23.92 L48.4341481,15.704 L55.1681481,15.704 L55.1681481,13.13 L44.5341481,13.13 L44.5341481,11.466 L67.6741481,11.466 L67.6741481,13.13 L57.0401481,13.13 L57.0401481,15.704 L63.7741481,15.704 L63.7741481,23.92 L48.4341481,23.92 Z M62.6561481,5.096 C62.6561481,5.824 62.4741481,6.5 62.1621481,7.072 C61.8241481,7.67 61.3561481,8.164 60.7841481,8.58 C60.1861481,9.022 59.4841481,9.36 58.7041481,9.568 C57.8981481,9.828 57.0141481,9.932 56.0781481,9.932 C55.1421481,9.932 54.2841481,9.828 53.5041481,9.568 C52.6981481,9.36 51.9961481,9.022 51.4241481,8.606 C50.8261481,8.19 50.3581481,7.696 50.0461481,7.072 C49.7081481,6.5 49.5521481,5.824 49.5521481,5.096 C49.5521481,4.368 49.7081481,3.692 50.0461481,3.068 C50.3581481,2.496 50.8261481,1.976 51.4241481,1.534 C51.9961481,1.118 52.6981481,0.806 53.5041481,0.572 C54.2841481,0.364 55.1421481,0.234 56.0781481,0.234 C57.0141481,0.234 57.8721481,0.364 58.7041481,0.572 C59.4841481,0.832 60.1861481,1.144 60.7841481,1.56 C61.3561481,2.002 61.8241481,2.522 62.1621481,3.094 C62.4741481,3.718 62.6561481,4.368 62.6561481,5.096 Z M61.8761481,17.368 L50.3061481,17.368 L50.3061481,22.256 L61.8761481,22.256 L61.8761481,17.368 Z M60.7581481,5.096 C60.7581481,4.628 60.6281481,4.186 60.4201481,3.77 C60.1601481,3.38 59.8481481,3.042 59.4321481,2.756 C59.0161481,2.496 58.5221481,2.262 57.9501481,2.106 C57.3781481,1.95 56.7541481,1.872 56.0781481,1.872 C55.4281481,1.872 54.8301481,1.95 54.2841481,2.08 C53.7121481,2.236 53.2181481,2.47 52.8021481,2.73 C52.3601481,3.016 52.0221481,3.354 51.7881481,3.744 C51.5281481,4.16 51.4241481,4.602 51.4241481,5.096 C51.4241481,5.616 51.5541481,6.058 51.8141481,6.422 C52.0481481,6.838 52.3861481,7.176 52.8281481,7.436 C53.2441481,7.722 53.7381481,7.93 54.3101481,8.06 C54.8561481,8.216 55.4541481,8.294 56.0781481,8.294 C56.7021481,8.294 57.3261481,8.216 57.8981481,8.06 C58.4701481,7.93 58.9641481,7.722 59.4061481,7.436 C59.8221481,7.176 60.1341481,6.838 60.3941481,6.422 C60.6281481,6.058 60.7581481,5.616 60.7581481,5.096 Z" id="Shape" fill="#333333"></path>
                <path d="M77.6542963,16.848 L77.6542963,2.262 L88.7042963,2.262 L88.7042963,16.848 L77.6542963,16.848 Z M86.8322963,3.926 L79.5262963,3.926 L79.5262963,15.184 L86.8322963,15.184 L86.8322963,3.926 Z M94.9702963,11.05 L94.9702963,24.44 L93.0982963,24.44 L93.0982963,0 L94.9702963,0 L94.9702963,9.386 L99.2602963,9.386 L99.2602963,11.05 L94.9702963,11.05 Z" id="Shape" fill="#333333"></path>
                <path d="M100.92237,13.52 C100.68837,13.312 100.48037,13.078 100.27237,12.844 C100.03837,12.636 99.8043704,12.402 99.5963704,12.194 C101.00037,11.752 102.30037,11.128 103.54837,10.296 C104.74437,9.49 105.78437,8.502 106.61637,7.332 C105.52437,7.436 104.48437,7.514 103.44437,7.592 C102.37837,7.696 101.31237,7.774 100.24637,7.852 C100.19437,7.592 100.16837,7.306 100.11637,7.046 C100.06437,6.786 100.01237,6.526 99.9863704,6.24 C101.23437,6.162 102.45637,6.084 103.67837,6.006 C104.87437,5.954 106.12237,5.876 107.37037,5.772 C107.83837,4.836 108.12437,3.796 108.20237,2.678 L100.50637,2.678 L100.50637,1.092 L110.20437,1.092 C110.20437,2.678 109.97037,4.134 109.50237,5.434 C109.03437,6.76 108.38437,7.93 107.55237,8.97 C106.72037,10.01 105.73237,10.92 104.61437,11.674 C103.47037,12.454 102.22237,13.052 100.92237,13.52 Z M120.42237,22.646 C120.21437,22.854 120.00637,23.062 119.82437,23.296 C119.61637,23.504 119.40837,23.712 119.20037,23.92 C118.26437,23.686 117.40637,23.4 116.57437,23.036 C115.71637,22.672 114.93637,22.23 114.26037,21.762 C113.53237,21.268 112.90837,20.722 112.38837,20.124 C111.84237,19.552 111.42637,18.928 111.11437,18.252 C110.80237,18.902 110.41237,19.526 109.89237,20.098 C109.34637,20.696 108.72237,21.242 108.04637,21.736 C107.31837,22.204 106.53837,22.646 105.70637,23.036 C104.84837,23.4 103.96437,23.686 103.05437,23.92 C102.84637,23.712 102.63837,23.504 102.45637,23.296 C102.24837,23.062 102.04037,22.854 101.83237,22.646 C103.02837,22.334 104.12037,21.944 105.16037,21.424 C106.14837,20.93 107.03237,20.332 107.76037,19.656 C108.48837,19.006 109.06037,18.278 109.50237,17.472 C109.91837,16.692 110.12637,15.834 110.17837,14.95 L110.17837,14.404 L112.07637,14.404 L112.07637,14.82 C112.07637,15.756 112.28437,16.64 112.75237,17.472 C113.16837,18.304 113.76637,19.058 114.54637,19.734 C115.30037,20.41 116.18437,21.008 117.19837,21.476 C118.18637,21.97 119.27837,22.36 120.42237,22.646 Z M109.63237,7.384 L109.63237,5.72 L113.40237,5.72 L113.40237,0.52 L115.14437,0.52 L115.14437,12.48 L113.40237,12.48 L113.40237,7.384 L109.63237,7.384 Z M119.69437,13.52 L117.95237,13.52 L117.95237,0 L119.69437,0 L119.69437,13.52 Z" id="Shape" fill="#333333"></path>
                <path d="M128.791691,15.207917 L134.398135,15.207917 L134.398135,19.2094037 L133.818636,20.1135557 L128.791691,20.1135557 L128.791691,15.207917 Z M128.791691,3.29422297 L134.398135,3.29422297 L134.398135,8.90066723 L128.791691,8.90066723 L128.791691,3.29422297 Z M134.398135,15.207917 L134.398135,19.4127502 C134.398135,22.8961481 131.574283,25.72 128.090886,25.72 C130.413151,25.72 132.295783,23.8374321 132.295783,21.5151668 L132.295783,18.7119447 C132.277944,17.6683216 132.246159,16.7584891 132.200426,15.982447 C132.846029,15.7747235 133.578671,15.5160655 134.398135,15.207917 Z" id="Shape" fill="#1D1D1D"></path>
            </g>
        </g>
    </g>
</svg>