<svg xmlns="http://www.w3.org/2000/svg" width="1479.981" height="368.538" viewBox="0 0 1479.981 368.538">
  <g id="그룹_1" data-name="그룹 1" transform="translate(383.49 1110.269)">
    <path id="Path_2" data-name="Path 2" d="M40.134,68.8c-.67,0-1.34-.026-1.992-.078a22.128,22.128,0,0,0,6.182-1.368,21.46,21.46,0,0,0,6.9-4.34,18.517,18.517,0,0,0,4.687-6.866,24.631,24.631,0,0,0,1.562-9.027,22.472,22.472,0,0,0-1.537-8.4A21.536,21.536,0,0,0,44.447,27.136a21.192,21.192,0,0,0-6.31-1.47c.662-.054,1.334-.08,2-.08a21.883,21.883,0,0,1,8.312,1.55A21.536,21.536,0,0,1,59.933,38.721a22.455,22.455,0,0,1,1.537,8.4,24.63,24.63,0,0,1-1.562,9.027,18.525,18.525,0,0,1-4.686,6.866,21.475,21.475,0,0,1-6.9,4.34A22.8,22.8,0,0,1,40.134,68.8Zm49.316-1.611h-4V64.941H84.083a7.85,7.85,0,0,1-4.346-.878,3.41,3.41,0,0,1-1.391-2.54c-.113-1.1-.171-3.808-.171-8.056V46.338A34.041,34.041,0,0,1,79,37.891a13.287,13.287,0,0,1,3.76-5.933c1.944-1.9,3.636-2.857,5.029-2.857a2.23,2.23,0,0,1,1.662.732,13.964,13.964,0,0,0-2.691,2.125A13.276,13.276,0,0,0,83,37.891a33.993,33.993,0,0,0-.831,8.447v7.129c0,4.239.058,6.949.171,8.056a3.41,3.41,0,0,0,1.391,2.54,7.854,7.854,0,0,0,4.346.878h1.367v2.245Zm-77.441,0h-4V64.941h-2.1a7.854,7.854,0,0,1-4.346-.878,3.41,3.41,0,0,1-1.391-2.54C.058,60.416,0,57.706,0,53.467V29.443H4V53.467c0,4.239.058,6.949.171,8.056a3.409,3.409,0,0,0,1.392,2.54,7.848,7.848,0,0,0,4.345.878h2.1v2.245Zm24.125-.634a13.744,13.744,0,0,1-5.554-1.068,11.073,11.073,0,0,1-4.163-3.2,14.455,14.455,0,0,1-2.6-5.865,40.781,40.781,0,0,1-.867-9.051A42.037,42.037,0,0,1,23.8,38.3a15.543,15.543,0,0,1,2.545-6,10.8,10.8,0,0,1,4.144-3.351,13.522,13.522,0,0,1,5.646-1.117,16.519,16.519,0,0,1,2,.119,12.429,12.429,0,0,0-3.65,1A10.792,10.792,0,0,0,30.344,32.3a15.531,15.531,0,0,0-2.546,6,42.037,42.037,0,0,0-.849,9.064,40.782,40.782,0,0,0,.867,9.051,14.468,14.468,0,0,0,2.6,5.865,11.071,11.071,0,0,0,4.163,3.2,12.7,12.7,0,0,0,3.575.952A17.091,17.091,0,0,1,36.133,66.553ZM77.785,35.786h0a35.655,35.655,0,0,0-1.2-9.111c1.136-.319,2.36-.685,3.64-1.089a8.826,8.826,0,0,1,.6,4.143c-.007.3-.015.645-.02,1.032A16.6,16.6,0,0,0,77.785,35.786Zm20.355-.631a2.959,2.959,0,0,1-1.973-.743,3.648,3.648,0,0,0,.292-.282,3.479,3.479,0,0,0,.952-2.441,6.066,6.066,0,0,0-1.856-4.1,6.134,6.134,0,0,0-3.489-1.865,18.821,18.821,0,0,1,2.411-.136,6.61,6.61,0,0,1,5.078,2,6.066,6.066,0,0,1,1.856,4.1,3.479,3.479,0,0,1-.952,2.441A3.057,3.057,0,0,1,98.141,35.156ZM12.35,29.443h-4V27.2h4v2.245ZM4,27.2H0V24.169A140.917,140.917,0,0,1,.44,9.912,9.125,9.125,0,0,1,3.2,4.37a7.591,7.591,0,0,1,5.4-2.222,5.97,5.97,0,0,1,1.869.292A7.847,7.847,0,0,0,7.2,4.37,9.125,9.125,0,0,0,4.44,9.912,140.917,140.917,0,0,0,4,24.169V27.2Zm19.532-16.65a3.594,3.594,0,0,1-2.024-.657,3.772,3.772,0,0,0,.319-.271A3.108,3.108,0,0,0,22.8,7.276c0-1.652-1.166-3.3-3.467-4.883A14.6,14.6,0,0,0,12.181.083C12.809.027,13.457,0,14.108,0c3.823,0,6.928.8,9.229,2.392S26.8,5.623,26.8,7.276a3.108,3.108,0,0,1-.977,2.344A3.24,3.24,0,0,1,23.531,10.547Z" transform="translate(300.832 -1009.36)" fill="#fff"/>
    <g id="Path_2-2" data-name="Path 2" transform="translate(365 -681)">
      <path id="Path_2-3" data-name="Path 2" d="M42.45,67.328a21.3,21.3,0,0,1-6.88-4.413A19.026,19.026,0,0,1,30.9,56.024a24.221,24.221,0,0,1-1.557-8.9,22.573,22.573,0,0,1,1.538-8.429,21.457,21.457,0,0,1,11.475-11.56,23.01,23.01,0,0,1,16.59.005A21.535,21.535,0,0,1,70.435,38.721a22.47,22.47,0,0,1,1.537,8.4,24.628,24.628,0,0,1-1.562,9.027,18.517,18.517,0,0,1-4.687,6.866,21.459,21.459,0,0,1-6.9,4.34A22.8,22.8,0,0,1,50.635,68.8,22.412,22.412,0,0,1,42.45,67.328Zm2.539-38.379A10.8,10.8,0,0,0,40.845,32.3a15.54,15.54,0,0,0-2.545,6,42.045,42.045,0,0,0-.849,9.064,40.783,40.783,0,0,0,.867,9.051,14.453,14.453,0,0,0,2.6,5.865,11.074,11.074,0,0,0,4.163,3.2,13.744,13.744,0,0,0,5.554,1.068,14.072,14.072,0,0,0,5.646-1.068,10.726,10.726,0,0,0,4.144-3.2,14.61,14.61,0,0,0,2.546-5.865,41.664,41.664,0,0,0,.848-9.051,42.091,42.091,0,0,0-.842-9.033,15.7,15.7,0,0,0-2.527-6.006,10.705,10.705,0,0,0-4.137-3.37,13.587,13.587,0,0,0-5.676-1.122A13.522,13.522,0,0,0,44.989,28.949ZM78.711,67.188V64.941h1.025a8.036,8.036,0,0,0,4.175-.805A3.227,3.227,0,0,0,85.4,61.865a78.274,78.274,0,0,0,.245-8.4V42.188q0-6.445-.171-8.081a3.45,3.45,0,0,0-1.392-2.539q-1.22-.9-4.345-.9H78.711v-2.2a68.621,68.621,0,0,0,12.011-2.881,32.456,32.456,0,0,1,1.562,10.205,16.656,16.656,0,0,1,5.4-7.276,11.915,11.915,0,0,1,7.3-2.929,6.582,6.582,0,0,1,5.078,2,6.039,6.039,0,0,1,1.856,4.1,3.466,3.466,0,0,1-.952,2.441,3.044,3.044,0,0,1-2.319,1.025q-2.441,0-3.711-3.613-.879-2.442-2.637-2.442-2.1,0-5.029,2.857a13.226,13.226,0,0,0-3.76,5.933,33.884,33.884,0,0,0-.83,8.447v7.129q0,6.4.171,8.056a3.4,3.4,0,0,0,1.391,2.54q1.22.879,4.346.878h1.367v2.246Zm-77.832,0V64.941a11.017,11.017,0,0,0,4.663-.683,3.015,3.015,0,0,0,1.611-2.075,63.213,63.213,0,0,0,.318-8.716V29.444H0V27.2H7.471V23.584a68.692,68.692,0,0,1,.488-9.374,17.534,17.534,0,0,1,2.759-6.861A15.86,15.86,0,0,1,16.43,1.9,16.64,16.64,0,0,1,24.61,0q5.762,0,9.229,2.392t3.467,4.883a3.1,3.1,0,0,1-.976,2.344,3.227,3.227,0,0,1-2.3.928q-2.588,0-4.737-4Q26.9,2.149,23.1,2.148A7.558,7.558,0,0,0,17.7,4.37a9.086,9.086,0,0,0-2.759,5.541A140.163,140.163,0,0,0,14.5,24.17V27.2h8.35v2.246H14.5V53.467q0,6.4.171,8.056a3.4,3.4,0,0,0,1.391,2.54q1.222.879,4.346.878h2.1v2.246Z" transform="translate(-78.67 -328.36)" fill="none"/>
      <g id="Path_2-4" data-name="Path 2" transform="translate(-78.67 -328.36)" fill="none" stroke-miterlimit="10">
        <path d="M42.45,67.328a21.3,21.3,0,0,1-6.88-4.413A19.026,19.026,0,0,1,30.9,56.024a24.221,24.221,0,0,1-1.557-8.9,22.573,22.573,0,0,1,1.538-8.429,21.457,21.457,0,0,1,11.475-11.56,23.01,23.01,0,0,1,16.59.005A21.535,21.535,0,0,1,70.435,38.721a22.47,22.47,0,0,1,1.537,8.4,24.628,24.628,0,0,1-1.562,9.027,18.517,18.517,0,0,1-4.687,6.866,21.459,21.459,0,0,1-6.9,4.34A22.8,22.8,0,0,1,50.635,68.8,22.412,22.412,0,0,1,42.45,67.328Zm2.539-38.379A10.8,10.8,0,0,0,40.845,32.3a15.54,15.54,0,0,0-2.545,6,42.045,42.045,0,0,0-.849,9.064,40.783,40.783,0,0,0,.867,9.051,14.453,14.453,0,0,0,2.6,5.865,11.074,11.074,0,0,0,4.163,3.2,13.744,13.744,0,0,0,5.554,1.068,14.072,14.072,0,0,0,5.646-1.068,10.726,10.726,0,0,0,4.144-3.2,14.61,14.61,0,0,0,2.546-5.865,41.664,41.664,0,0,0,.848-9.051,42.091,42.091,0,0,0-.842-9.033,15.7,15.7,0,0,0-2.527-6.006,10.705,10.705,0,0,0-4.137-3.37,13.587,13.587,0,0,0-5.676-1.122A13.522,13.522,0,0,0,44.989,28.949ZM78.711,67.188V64.941h1.025a8.036,8.036,0,0,0,4.175-.805A3.227,3.227,0,0,0,85.4,61.865a78.274,78.274,0,0,0,.245-8.4V42.188q0-6.445-.171-8.081a3.45,3.45,0,0,0-1.392-2.539q-1.22-.9-4.345-.9H78.711v-2.2a68.621,68.621,0,0,0,12.011-2.881,32.456,32.456,0,0,1,1.562,10.205,16.656,16.656,0,0,1,5.4-7.276,11.915,11.915,0,0,1,7.3-2.929,6.582,6.582,0,0,1,5.078,2,6.039,6.039,0,0,1,1.856,4.1,3.466,3.466,0,0,1-.952,2.441,3.044,3.044,0,0,1-2.319,1.025q-2.441,0-3.711-3.613-.879-2.442-2.637-2.442-2.1,0-5.029,2.857a13.226,13.226,0,0,0-3.76,5.933,33.884,33.884,0,0,0-.83,8.447v7.129q0,6.4.171,8.056a3.4,3.4,0,0,0,1.391,2.54q1.22.879,4.346.878h1.367v2.246Zm-77.832,0V64.941a11.017,11.017,0,0,0,4.663-.683,3.015,3.015,0,0,0,1.611-2.075,63.213,63.213,0,0,0,.318-8.716V29.444H0V27.2H7.471V23.584a68.692,68.692,0,0,1,.488-9.374,17.534,17.534,0,0,1,2.759-6.861A15.86,15.86,0,0,1,16.43,1.9,16.64,16.64,0,0,1,24.61,0q5.762,0,9.229,2.392t3.467,4.883a3.1,3.1,0,0,1-.976,2.344,3.227,3.227,0,0,1-2.3.928q-2.588,0-4.737-4Q26.9,2.149,23.1,2.148A7.558,7.558,0,0,0,17.7,4.37a9.086,9.086,0,0,0-2.759,5.541A140.163,140.163,0,0,0,14.5,24.17V27.2h8.35v2.246H14.5V53.467q0,6.4.171,8.056a3.4,3.4,0,0,0,1.391,2.54q1.222.879,4.346.878h2.1v2.246Z" stroke="none"/>
        <path d="M 50.63489532470703 68.2987060546875 C 53.5048828125 68.2987060546875 56.20048141479492 67.8232421875 58.64669799804688 66.88559722900391 C 61.0902214050293 65.94805908203125 63.35657501220703 64.52154541015625 65.38282012939453 62.64568710327148 C 67.40034484863281 60.77793502807617 68.93508148193359 58.52972030639648 69.94437408447266 55.96355056762695 C 70.95809936523438 53.3852424621582 71.47209930419922 50.40967178344727 71.47209930419922 47.11950302124023 C 71.47209930419922 44.15465545654297 70.96698760986328 41.39148712158203 69.97086334228516 38.90690231323242 C 68.97511291503906 36.42545700073242 67.45906829833984 34.14851760864258 65.46474456787109 32.13925552368164 C 63.47086715698242 30.12954902648926 61.21477508544922 28.60191917419434 58.75917434692383 27.59879493713379 C 56.30118942260742 26.59504127502441 53.56778717041016 26.08610343933105 50.63489532470703 26.08610343933105 C 47.71841812133789 26.08610343933105 44.99742126464844 26.59324073791504 42.54732894897461 27.59347152709961 C 40.09871292114258 28.59222602844238 37.8460807800293 30.11371803283691 35.85205078125 32.11564254760742 C 33.85964965820312 34.11596298217773 32.3441276550293 36.39053344726562 31.3476505279541 38.87602615356445 C 30.3508358001709 41.36453247070312 29.84540367126465 44.13804244995117 29.84540367126465 47.11950302124023 C 29.84540367126465 50.34445571899414 30.3575267791748 53.27870178222656 31.36758804321289 55.8408088684082 C 32.37228012084961 58.39064025878906 33.90201950073242 60.64867401123047 35.9140510559082 62.55193328857422 C 37.93301773071289 64.459228515625 40.19334411621094 65.90946960449219 42.63217163085938 66.86235046386719 C 45.07292556762695 67.81544494628906 47.76543426513672 68.2987060546875 50.63489532470703 68.2987060546875 M 50.63489532470703 27.3325023651123 C 52.84466552734375 27.3325023651123 54.82439041137695 27.72531890869141 56.51929473876953 28.50014877319336 C 58.22431182861328 29.28056526184082 59.68091201782227 30.46634864807129 60.84837341308594 32.02424240112305 C 62.00897216796875 33.57044219970703 62.88886642456055 35.6552734375 63.46360397338867 38.22079467773438 C 64.03060150146484 40.75171661376953 64.31809997558594 43.82773208618164 64.31809997558594 47.36339569091797 C 64.31809997558594 50.93231964111328 64.02866363525391 54.0149040222168 63.45782089233398 56.52568817138672 C 62.87792587280273 59.07318115234375 61.98898696899414 61.11384201049805 60.81584930419922 62.59084320068359 C 59.63955688476562 64.07295227050781 58.18098831176758 65.20082855224609 56.48052597045898 65.94319915771484 C 54.79217529296875 66.67973327636719 52.82542037963867 67.05319213867188 50.63489532470703 67.05319213867188 C 48.49312591552734 67.05319213867188 46.55685043334961 66.6795654296875 44.8796501159668 65.94256591796875 C 43.19337463378906 65.20063781738281 41.72971343994141 64.07437896728516 40.52934265136719 62.59505844116211 C 39.33074188232422 61.11790466308594 38.42271041870117 59.07661056518555 37.83048248291016 56.52790451049805 C 37.24677276611328 54.01671981811523 36.9508056640625 50.93333435058594 36.9508056640625 47.36339569091797 C 36.9508056640625 43.81347274780273 37.24045181274414 40.72699356079102 37.81174087524414 38.18954849243164 C 38.39094161987305 35.6201171875 39.27742004394531 33.53687286376953 40.44652557373047 31.99767303466797 C 41.62355804443359 30.44807243347168 43.0821418762207 29.26941108703613 44.78146743774414 28.49459457397461 C 46.46966552734375 27.72348785400391 48.43904876708984 27.3325023651123 50.63489532470703 27.3325023651123 M 99.4512939453125 66.68770599365234 L 99.4512939453125 65.44129943847656 L 98.58420562744141 65.44129943847656 C 96.37195587158203 65.44129943847656 94.85477447509766 65.12314605712891 93.94593048095703 64.46864318847656 C 93.01563262939453 63.7987174987793 92.47846221923828 62.82496643066406 92.34935760498047 61.57450485229492 C 92.23251342773438 60.44380950927734 92.17571258544922 57.79188919067383 92.17571258544922 53.46719360351562 L 92.17571258544922 46.33830261230469 C 92.17571258544922 42.73194885253906 92.46067810058594 39.8460578918457 93.02275848388672 37.76064300537109 C 93.59712982177734 35.63224029541016 94.90720367431641 33.55954742431641 96.91661834716797 31.60011863708496 C 98.98589324951172 29.58236503601074 100.7451400756836 28.60150337219238 102.2948989868164 28.60150337219238 C 103.6948471069336 28.60150337219238 104.7403411865234 29.53427314758301 105.4036331176758 31.37748718261719 C 106.1785278320312 33.58345794677734 107.2380065917969 34.65579605102539 108.6426010131836 34.65579605102539 C 109.4165725708008 34.65579605102539 110.0553283691406 34.37281036376953 110.5955581665039 33.79042434692383 C 111.146354675293 33.19744110107422 111.4140930175781 32.51034927368164 111.4140930175781 31.68990325927734 C 111.4140930175781 30.42614936828613 110.834587097168 29.16034889221191 109.6915435791016 27.92751884460449 C 108.5435104370117 26.68844223022461 107.0025253295898 26.08610343933105 104.9804992675781 26.08610343933105 C 102.7298812866211 26.08610343933105 100.3776626586914 27.0358715057373 97.98915863037109 28.90904235839844 C 95.58345031738281 30.79568672180176 93.82147979736328 33.17122650146484 92.75217437744141 35.96965789794922 L 91.84369659423828 38.34722518920898 L 91.78524780273438 35.80267333984375 C 91.69535827636719 31.8895435333252 91.23330688476562 28.66527366638184 90.41094207763672 26.20796775817871 C 85.89559936523438 27.61584663391113 82.13296508789062 28.5230541229248 79.21131134033203 28.90853118896484 L 79.21131134033203 30.16390228271484 L 79.73640441894531 30.16390228271484 C 81.94963836669922 30.16390228271484 83.46825408935547 30.49156379699707 84.37882232666016 31.16542625427246 C 85.30641937255859 31.85113334655762 85.84217071533203 32.82308578491211 85.97122192382812 34.0546875 C 86.08646392822266 35.16334915161133 86.14491271972656 37.89962768554688 86.14491271972656 42.18750381469727 L 86.14491271972656 53.46719360351562 C 86.14491271972656 58.15855026245117 86.06260681152344 60.93244171142578 85.89328002929688 61.94736480712891 C 85.70703125 63.06387329101562 85.13169860839844 63.94137954711914 84.18305206298828 64.55564117431641 C 83.26165008544922 65.15159606933594 81.80714416503906 65.44129943847656 79.73640441894531 65.44129943847656 L 79.21131134033203 65.44129943847656 L 79.21131134033203 66.68770599365234 L 99.4512939453125 66.68770599365234 M 22.00989723205566 66.68770599365234 L 22.00989723205566 65.44129943847656 L 20.41020393371582 65.44129943847656 C 18.19897270202637 65.44129943847656 16.68183517456055 65.12319183349609 15.77191162109375 64.46864318847656 C 14.84163475036621 63.7987174987793 14.30446529388428 62.82496643066406 14.17529678344727 61.57410430908203 C 14.06011199951172 60.45045852661133 14.00169658660889 57.72290420532227 14.00169658660889 53.46719360351562 L 14.00169658660889 28.94350242614746 L 22.35189628601074 28.94350242614746 L 22.35189628601074 27.69710350036621 L 14.00169658660889 27.69710350036621 L 14.00169658660889 24.16950225830078 C 14.00169658660889 16.89051818847656 14.15123462677002 12.0714111328125 14.44611167907715 9.846179962158203 C 14.75257301330566 7.527534008026123 15.7310962677002 5.563703060150146 17.35438919067383 4.009364604949951 C 18.98960494995117 2.442672252655029 20.92129707336426 1.648303031921387 23.09580421447754 1.648303031921387 C 25.82011222839355 1.648303031921387 28.05417251586914 3.214687585830688 29.73735809326172 6.306533813476562 C 31.06960487365723 8.788595199584961 32.51503372192383 10.04710292816162 34.03349685668945 10.04710292816162 C 34.78557205200195 10.04710292816162 35.4236946105957 9.788487434387207 35.98408126831055 9.256733894348145 C 36.53647994995117 8.731857299804688 36.80500411987305 8.083826065063477 36.80500411987305 7.275595188140869 C 36.80500411987305 5.797564506530762 35.71125030517578 4.292980194091797 33.55423355102539 2.803733825683594 C 31.33888053894043 1.275087714195251 28.32948112487793 0.4999953806400299 24.60960388183594 0.4999953806400299 C 21.55171203613281 0.4999953806400299 18.88126564025879 1.119703054428101 16.6723575592041 2.341964483261108 C 14.46166610717773 3.564333915710449 12.59998893737793 5.339580059051514 11.13894271850586 7.618472099304199 C 9.670804023742676 9.907102584838867 8.767250061035156 12.14904117584229 8.453389167785645 14.28182601928711 C 8.133234977722168 16.46270370483398 7.970896244049072 19.59227180480957 7.970896244049072 23.58359527587891 L 7.970896244049072 27.69710350036621 L 0.5000041723251343 27.69710350036621 L 0.5000041723251343 28.94350242614746 L 7.970896244049072 28.94350242614746 L 7.970896244049072 53.46719360351562 C 7.970896244049072 58.43185806274414 7.862881183624268 61.31908798217773 7.64069652557373 62.29391860961914 C 7.396557807922363 63.3649787902832 6.769219398498535 64.17453002929688 5.775527477264404 64.70040893554688 C 4.899292945861816 65.16274261474609 3.458067178726196 65.40474700927734 1.3792964220047 65.43746185302734 L 1.3792964220047 66.68770599365234 L 22.00989723205566 66.68770599365234 M 50.63489532470703 68.7987060546875 C 47.70269775390625 68.7987060546875 44.94869613647461 68.30370330810547 42.45029830932617 67.32810211181641 C 39.95100402832031 66.35159301757812 37.6370964050293 64.86750030517578 35.57069778442383 62.9153938293457 C 33.50609588623047 60.96240997314453 31.93469619750977 58.64399719238281 30.90240478515625 56.02410125732422 C 29.86920356750488 53.40330123901367 29.34540367126465 50.40810394287109 29.34540367126465 47.11950302124023 C 29.34540367126465 44.07390213012695 29.86289596557617 41.23799514770508 30.88349723815918 38.69010162353516 C 31.90500450134277 36.14219665527344 33.45660400390625 33.81210327148438 35.497802734375 31.76279449462891 C 37.53900527954102 29.71350288391113 39.84749603271484 28.15470314025879 42.35849761962891 27.13050270080566 C 44.8694953918457 26.10539627075195 47.65409469604492 25.58610343933105 50.63489532470703 25.58610343933105 C 53.63189697265625 25.58610343933105 56.42909622192383 26.1071949005127 58.94820404052734 27.13590240478516 C 61.46640396118164 28.16459465026855 63.77849578857422 29.72970390319824 65.81969451904297 31.7871036529541 C 67.86180114746094 33.84450149536133 69.41429901123047 36.17730331420898 70.43489837646484 38.720703125 C 71.45460510253906 41.26410293579102 71.97209930419922 44.08921051025391 71.97209930419922 47.11950302124023 C 71.97209930419922 50.47290420532227 71.44649505615234 53.50950241088867 70.40969848632812 56.14650344848633 C 69.37289428710938 58.78259658813477 67.79611206054688 61.09290313720703 65.72249603271484 63.01259613037109 C 63.64889526367188 64.93230438232422 61.32869720458984 66.39210510253906 58.8258056640625 67.35240936279297 C 56.32289505004883 68.31179809570312 53.56709671020508 68.7987060546875 50.63489532470703 68.7987060546875 Z M 50.63489532470703 27.8325023651123 C 48.5126953125 27.8325023651123 46.6128044128418 28.20779609680176 44.98920440673828 28.94939613342285 C 43.36469650268555 29.69010353088379 41.97060394287109 30.81779479980469 40.84469604492188 32.30010223388672 C 39.71880340576172 33.78239440917969 38.86289596557617 35.80019378662109 38.29949569702148 38.29950332641602 C 37.73700332641602 40.79790115356445 37.4508056640625 43.84799575805664 37.4508056640625 47.36339569091797 C 37.4508056640625 50.89499664306641 37.74240493774414 53.94059371948242 38.31749725341797 56.41470336914062 C 38.89260482788086 58.88970184326172 39.76740264892578 60.86250305175781 40.9176025390625 62.28001022338867 C 42.06780242919922 63.69750213623047 43.46909713745117 64.77570343017578 45.08100509643555 65.48490142822266 C 46.69289779663086 66.19319915771484 48.56129837036133 66.55319213867188 50.63489532470703 66.55319213867188 C 52.75709533691406 66.55319213867188 54.65700531005859 66.19319915771484 56.28060531616211 65.48490142822266 C 57.90509796142578 64.77570343017578 59.2992057800293 63.69750213623047 60.4242057800293 62.28001022338867 C 61.55009460449219 60.86250305175781 62.40689468383789 58.88970184326172 62.97029495239258 56.41470336914062 C 63.53280258178711 53.94059371948242 63.81809616088867 50.89499664306641 63.81809616088867 47.36339569091797 C 63.81809616088867 43.86419677734375 63.53460311889648 40.82490158081055 62.9756965637207 38.33010482788086 C 62.41680526733398 35.83530426025391 61.56720352172852 33.81479644775391 60.4484977722168 32.32439422607422 C 59.33160400390625 30.8339958190918 57.93929672241211 29.69999504089355 56.31120300292969 28.95479583740234 C 54.68309783935547 28.21050262451172 52.77329635620117 27.8325023651123 50.63489532470703 27.8325023651123 Z M 99.9512939453125 67.18770599365234 L 78.71131134033203 67.18770599365234 L 78.71131134033203 64.94129943847656 L 79.73640441894531 64.94129943847656 C 81.68940734863281 64.94129943847656 83.08080291748047 64.67310333251953 83.9114990234375 64.13581085205078 C 84.74129486083984 63.59850311279297 85.23720550537109 62.84160995483398 85.40009307861328 61.86510467529297 C 85.56300354003906 60.88861083984375 85.64491271972656 58.08959579467773 85.64491271972656 53.46719360351562 L 85.64491271972656 42.18750381469727 C 85.64491271972656 37.89090347290039 85.58729553222656 35.19719696044922 85.47389984130859 34.10639572143555 C 85.35960388183594 33.01559448242188 84.89609527587891 32.16959381103516 84.08160400390625 31.56750297546387 C 83.26800537109375 30.96539497375488 81.81989288330078 30.66390228271484 79.73640441894531 30.66390228271484 L 78.71131134033203 30.66390228271484 L 78.71131134033203 28.46699523925781 C 81.77040100097656 28.10879516601562 85.77451324462891 27.14850234985352 90.72269439697266 25.58610343933105 C 91.66680145263672 28.15739631652832 92.18791198730469 31.55939483642578 92.28511047363281 35.79119491577148 C 93.39211273193359 32.89410400390625 95.19029998779297 30.46859550476074 97.68060302734375 28.51559448242188 C 100.1709136962891 26.56259536743164 102.6044998168945 25.58610343933105 104.9804992675781 25.58610343933105 C 107.1288070678711 25.58610343933105 108.8216934204102 26.25299453735352 110.0583114624023 27.58770370483398 C 111.2958068847656 28.92239570617676 111.9140930175781 30.28950309753418 111.9140930175781 31.68990325927734 C 111.9140930175781 32.63310241699219 111.5964050292969 33.44759368896484 110.9619140625 34.13070297241211 C 110.3274078369141 34.81470489501953 109.554313659668 35.15579605102539 108.6426010131836 35.15579605102539 C 107.0154037475586 35.15579605102539 105.7778930664062 33.95159530639648 104.9319000244141 31.5431957244873 C 104.3460006713867 29.91510391235352 103.4667129516602 29.10150337219238 102.2948989868164 29.10150337219238 C 100.8954010009766 29.10150337219238 99.21871185302734 30.05370330810547 97.26569366455078 31.95810317993164 C 95.31271362304688 33.86250305175781 94.05900573730469 35.83979415893555 93.5054931640625 37.89090347290039 C 92.95291137695312 39.94110488891602 92.67571258544922 42.75719451904297 92.67571258544922 46.33830261230469 L 92.67571258544922 53.46719360351562 C 92.67571258544922 57.73139572143555 92.73240661621094 60.41699600219727 92.84671020507812 61.52310180664062 C 92.96100616455078 62.63010406494141 93.42449951171875 63.47699356079102 94.23811340332031 64.06290435791016 C 95.05171203613281 64.64881134033203 96.50069427490234 64.94129943847656 98.58420562744141 64.94129943847656 L 99.9512939453125 64.94129943847656 L 99.9512939453125 67.18770599365234 Z M 22.50989723205566 67.18770599365234 L 0.8792964816093445 67.18770599365234 L 0.8792964816093445 64.94129943847656 C 3.124804258346558 64.94129943847656 4.679096698760986 64.71359252929688 5.5422043800354 64.25819396972656 C 6.404404163360596 63.80190277099609 6.941696643829346 63.11070251464844 7.153203964233398 62.18279647827148 C 7.364696502685547 61.25490188598633 7.470896244049072 58.34970474243164 7.470896244049072 53.46719360351562 L 7.470896244049072 29.44350242614746 L 4.16964030591771e-06 29.44350242614746 L 4.16964030591771e-06 27.19710350036621 L 7.470896244049072 27.19710350036621 L 7.470896244049072 23.58359527587891 C 7.470896244049072 19.54710388183594 7.633804321289062 16.42230224609375 7.958696365356445 14.20919513702393 C 8.284496307373047 11.99519538879395 9.204296112060547 9.708303451538086 10.71809673309326 7.348503112792969 C 12.2310037612915 4.98870325088501 14.13540458679199 3.173395395278931 16.43040466308594 1.904395341873169 C 18.72540473937988 0.6345030665397644 21.45149612426758 -4.633507160178851e-06 24.60960388183594 -4.633507160178851e-06 C 28.45080375671387 -4.633507160178851e-06 31.52700424194336 0.7974107265472412 33.83820343017578 2.392195463180542 C 36.1494026184082 3.987903118133545 37.30500411987305 5.615103244781494 37.30500411987305 7.275595188140869 C 37.30500411987305 8.21970272064209 36.97920227050781 9.000903129577637 36.32849502563477 9.619194984436035 C 35.67689514160156 10.23750305175781 34.91189575195312 10.54710292816162 34.03349685668945 10.54710292816162 C 32.30820465087891 10.54710292816162 30.72960472106934 9.212395668029785 29.29680442810059 6.542995452880859 C 27.70200347900391 3.613502979278564 25.63469696044922 2.148303031921387 23.09580421447754 2.148303031921387 C 21.04469680786133 2.148303031921387 19.24649620056152 2.888995409011841 17.70029640197754 4.370395183563232 C 16.15411186218262 5.850903034210205 15.23431205749512 7.698595523834229 14.94180393218994 9.911703109741211 C 14.64840412139893 12.12570285797119 14.50169658660889 16.87859535217285 14.50169658660889 24.16950225830078 L 14.50169658660889 27.19710350036621 L 22.85189628601074 27.19710350036621 L 22.85189628601074 29.44350242614746 L 14.50169658660889 29.44350242614746 L 14.50169658660889 53.46719360351562 C 14.50169658660889 57.73139572143555 14.55929660797119 60.41699600219727 14.67269611358643 61.52310180664062 C 14.7870044708252 62.63010406494141 15.25049686431885 63.47699356079102 16.06409645080566 64.06290435791016 C 16.87860488891602 64.64881134033203 18.32669639587402 64.94129943847656 20.41020393371582 64.94129943847656 L 22.50989723205566 64.94129943847656 L 22.50989723205566 67.18770599365234 Z" stroke="none" fill="#fff"/>
      </g>
    </g>
  </g>
  <path id="Fill_2441" data-name="Fill 2441" d="M338.687,53.99V20.448L321.909,37.212a5.854,5.854,0,0,1-8.426,0L296.706,20.448V53.99a6,6,0,1,1-12.005,0V6a6.046,6.046,0,0,1,6.009-6,5.965,5.965,0,0,1,4.22,1.79L317.7,24.566,340.477,1.793A5.915,5.915,0,0,1,344.7,0a6.043,6.043,0,0,1,5.995,6V53.99a6,6,0,1,1-12.005,0ZM5.995,59.918a6.044,6.044,0,0,1-5.995-6V6a6.034,6.034,0,0,1,5.995-6H41.938a6.025,6.025,0,0,1,6,6,6.021,6.021,0,0,1-6,5.981H11.991V23.974H35.958a5.988,5.988,0,0,1,0,11.976H11.991V47.927H41.938a6,6,0,1,1,0,11.991Zm130.335-1.79L114.139,35.951h-9.546V53.922a6,6,0,0,1-11.991,0V6A6.034,6.034,0,0,1,98.6.007h29.948a18,18,0,0,1,13.448,29.931A17.942,17.942,0,0,1,130.8,35.863l13.94,13.853a5.686,5.686,0,0,1,1.776,4.206,6.029,6.029,0,0,1-5.98,5.995A5.693,5.693,0,0,1,136.33,58.127ZM104.593,23.974h23.953a6,6,0,0,0,0-11.991H104.593ZM221.87,32.95V6a6,6,0,0,1,11.991,0V32.95a14.974,14.974,0,1,0,29.948,0V6a5.988,5.988,0,1,1,11.976,0V32.95a26.957,26.957,0,1,1-53.914,0ZM172.32,57.559A29.967,29.967,0,0,1,162.8,8.766a29.967,29.967,0,1,1,42.38,42.379,30.048,30.048,0,0,1-32.862,6.413ZM176.99,13.4a18.03,18.03,0,1,0,6.995-1.412A17.924,17.924,0,0,0,176.99,13.4ZM60.131,29.962a8.549,8.549,0,1,1,8.556,8.556A8.552,8.552,0,0,1,60.131,29.962Z" transform="translate(548.43)" fill="#fff"/>
  <path id="Combined_Shape" data-name="Combined Shape" d="M1409.985,144.385a47.356,47.356,0,0,1-9.271-4.578,44.482,44.482,0,0,1-7.843-6.408,46.772,46.772,0,0,1-6.238-7.978,49.2,49.2,0,0,1-4.456-9.284,66.621,66.621,0,0,1-3.565-22.486,66.633,66.633,0,0,1,3.515-21.923A48.559,48.559,0,0,1,1392.382,54.4a42.768,42.768,0,0,1,7.52-6.385,47.577,47.577,0,0,1,9.082-4.7,59.876,59.876,0,0,1,21.875-3.857,60.972,60.972,0,0,1,14.515,1.648,45.589,45.589,0,0,1,12.291,4.944,47.472,47.472,0,0,1,9.778,7.556,41.1,41.1,0,0,1,6.97,9.485,48.722,48.722,0,0,1,4.174,10.546,42.5,42.5,0,0,1,1.392,10.742,20.7,20.7,0,0,1-1.441,8.289,9.45,9.45,0,0,1-4.321,4.748c-3.824,1.976-9.278,2.978-16.211,2.978h-52.149a35.57,35.57,0,0,0,3.662,16.016,24.508,24.508,0,0,0,22.51,13.965,32.085,32.085,0,0,0,8.74-1.123,28.617,28.617,0,0,0,7.666-3.515,58.749,58.749,0,0,0,6.836-5.127c2.07-1.81,4.8-4.307,8.106-7.421a8.784,8.784,0,0,1,5.859-1.758,9.7,9.7,0,0,1,6.641,2.246,8.066,8.066,0,0,1,2.538,6.348c0,2.4-.952,5.24-2.832,8.447a33.644,33.644,0,0,1-8.544,9.277,48.931,48.931,0,0,1-14.355,7.374,62.128,62.128,0,0,1-19.875,2.93A66.354,66.354,0,0,1,1409.985,144.385Zm10.926-84.657a21.1,21.1,0,0,0-7.287,5.164,26.065,26.065,0,0,0-5.14,8.533,46.6,46.6,0,0,0-2.625,11.829H1454.2a44.881,44.881,0,0,0-2.331-11.951,24.251,24.251,0,0,0-5.042-8.508,20.821,20.821,0,0,0-7.409-5.091,25.168,25.168,0,0,0-9.436-1.7A23.262,23.262,0,0,0,1420.911,59.729Zm-112.252,84.217q-3.711-4.1-3.711-12.109V57.617q0-17.969,12.988-17.968,6.641,0,9.571,4.2t3.223,12.4q4.784-8.2,9.814-12.4t13.428-4.2a34.363,34.363,0,0,1,16.308,4.2q7.911,4.2,7.91,11.132a10.591,10.591,0,0,1-3.369,8.057,10.455,10.455,0,0,1-7.276,3.174q-1.465,0-7.08-1.807a32.921,32.921,0,0,0-9.912-1.806,14.5,14.5,0,0,0-9.571,3.076,19.735,19.735,0,0,0-5.762,9.131,63.749,63.749,0,0,0-2.832,14.4q-.78,8.35-.781,20.362v22.265q0,8.105-3.808,12.158a12.694,12.694,0,0,1-9.669,4.054A12.209,12.209,0,0,1,1308.659,143.945Zm-42.317.245a57.49,57.49,0,0,1-8.5-11.182,83.011,83.011,0,0,1-18.7,11.279,52.532,52.532,0,0,1-20.264,3.76,44.018,44.018,0,0,1-9.631-1.013,34.457,34.457,0,0,1-8.386-3.039,32.132,32.132,0,0,1-6.872-4.773,28.425,28.425,0,0,1-5.09-6.214,29.58,29.58,0,0,1-2.466-25.171,26.575,26.575,0,0,1,5.2-8.52,30.75,30.75,0,0,1,8.228-6.446,40.818,40.818,0,0,1,10.815-3.906c1.7-.392,5.94-1.28,12.6-2.637,6.683-1.363,12.483-2.627,17.237-3.759s10.009-2.532,15.576-4.151a42.381,42.381,0,0,0-1.307-9.143,18.471,18.471,0,0,0-2.941-6.335,11.324,11.324,0,0,0-5.774-3.7,33.146,33.146,0,0,0-9.8-1.233c-6.739,0-11.882.953-15.284,2.832a24.924,24.924,0,0,0-8.788,8.5,90.834,90.834,0,0,1-5.176,7.471c-1,1.2-3.19,1.806-6.494,1.806a11.409,11.409,0,0,1-7.763-2.881,9.423,9.423,0,0,1-3.271-7.373,20.212,20.212,0,0,1,1.245-6.934,26.356,26.356,0,0,1,3.736-6.738,28.2,28.2,0,0,1,6.372-6.055,46.2,46.2,0,0,1,9.155-4.882,55.058,55.058,0,0,1,11.841-3.223,90.082,90.082,0,0,1,14.429-1.074,107.036,107.036,0,0,1,15.7,1.038A51.707,51.707,0,0,1,1263.9,43.6a28.648,28.648,0,0,1,8.581,5.359,24.53,24.53,0,0,1,5.628,7.776,42.342,42.342,0,0,1,3.112,10.449,78.748,78.748,0,0,1,1.038,13.379c0,6.223-.016,11.578-.049,15.918-.032,4.405-.082,9.3-.147,14.551a53.876,53.876,0,0,0,2.49,15.674c1.652,5.41,2.49,8.941,2.49,10.5,0,2.723-1.3,5.236-3.857,7.471a12.984,12.984,0,0,1-8.74,3.37C1271.725,148.047,1269,146.749,1266.341,144.19Zm-27.3-45.215c-7.417,1.587-12.624,2.769-15.478,3.515a21.18,21.18,0,0,0-8.2,4.395,10.423,10.423,0,0,0-2.929,3.918,13.208,13.208,0,0,0-.977,5.213,13.677,13.677,0,0,0,1.148,5.6,14.433,14.433,0,0,0,3.443,4.7,15.213,15.213,0,0,0,5.3,3.186,20.131,20.131,0,0,0,6.714,1.062,31.4,31.4,0,0,0,14.6-3.467,23.246,23.246,0,0,0,9.814-8.935,24.216,24.216,0,0,0,2.71-8.008,68.122,68.122,0,0,0,.9-11.914V94.433A134.867,134.867,0,0,1,1239.046,98.975ZM1091.211,145.9a57.881,57.881,0,0,1-16.846-6.689,56.854,56.854,0,0,1-13.916-11.963,71.1,71.1,0,0,1-9.668-15.089,78.635,78.635,0,0,1-6.006-17.822,97.142,97.142,0,0,1-2-20.118,89.246,89.246,0,0,1,5.029-30.956,66.044,66.044,0,0,1,14.4-23.389,62.834,62.834,0,0,1,21.973-14.8A71.157,71.157,0,0,1,1111.035,0q17.384,0,30.957,6.934t20.8,17.139q7.226,10.2,7.227,19.287a12.57,12.57,0,0,1-3.516,8.789,11.144,11.144,0,0,1-8.5,3.808q-5.566,0-8.349-2.636t-6.2-9.082q-5.665-10.645-13.33-15.918t-18.9-5.273q-17.87,0-28.466,13.574t-10.6,38.574q0,16.7,4.687,27.784t13.281,16.552A36.661,36.661,0,0,0,1110.254,125q12.5,0,21.143-6.2t13.037-18.213a30.9,30.9,0,0,1,4.59-9.229q2.734-3.564,8.789-3.564a12.289,12.289,0,0,1,8.887,3.613,12.034,12.034,0,0,1,3.712,8.985,38.161,38.161,0,0,1-3.37,14.8,53.355,53.355,0,0,1-10.6,15.625,54.061,54.061,0,0,1-18.457,12.452q-11.229,4.784-26.171,4.785A91.421,91.421,0,0,1,1091.211,145.9Zm-178.753-1.513a47.38,47.38,0,0,1-9.271-4.578,44.551,44.551,0,0,1-7.843-6.408,46.776,46.776,0,0,1-6.238-7.978,49.2,49.2,0,0,1-4.456-9.284,66.621,66.621,0,0,1-3.564-22.486A66.606,66.606,0,0,1,884.6,71.729,48.544,48.544,0,0,1,894.857,54.4a42.765,42.765,0,0,1,7.52-6.385,47.557,47.557,0,0,1,9.083-4.7,59.869,59.869,0,0,1,21.875-3.857A60.969,60.969,0,0,1,947.848,41.1a45.605,45.605,0,0,1,12.292,4.944,47.49,47.49,0,0,1,9.778,7.556,41.1,41.1,0,0,1,6.971,9.485,48.73,48.73,0,0,1,4.175,10.546,42.5,42.5,0,0,1,1.391,10.742,20.7,20.7,0,0,1-1.441,8.289,9.45,9.45,0,0,1-4.321,4.748c-3.823,1.976-9.277,2.978-16.211,2.978H908.333A35.568,35.568,0,0,0,912,116.406a24.507,24.507,0,0,0,22.51,13.965,32.092,32.092,0,0,0,8.741-1.123,28.626,28.626,0,0,0,7.665-3.515,58.76,58.76,0,0,0,6.836-5.127c2.069-1.81,4.8-4.307,8.105-7.421a8.786,8.786,0,0,1,5.859-1.758,9.694,9.694,0,0,1,6.641,2.246,8.064,8.064,0,0,1,2.539,6.348c0,2.4-.953,5.24-2.832,8.447a33.653,33.653,0,0,1-8.545,9.277,48.933,48.933,0,0,1-14.355,7.374,62.122,62.122,0,0,1-19.874,2.93A66.355,66.355,0,0,1,912.459,144.385Zm10.926-84.657a21.111,21.111,0,0,0-7.287,5.164,26.082,26.082,0,0,0-5.14,8.533,46.6,46.6,0,0,0-2.624,11.829h48.34A44.916,44.916,0,0,0,954.341,73.3,24.261,24.261,0,0,0,949.3,64.8a20.831,20.831,0,0,0-7.41-5.091,25.164,25.164,0,0,0-9.436-1.7A23.265,23.265,0,0,0,923.385,59.729ZM834.229,143.9q-3.76-4.15-3.76-12.061v-70.6h-7.324q-5.958,0-9.18-2.686a8.66,8.66,0,0,1-3.222-6.982q0-9.57,13.379-9.571h6.348V33.984q0-12.5,3.174-19.873A20.174,20.174,0,0,1,844.385,3.369Q851.953,0,865.137,0q23.34,0,23.34,11.425a9.01,9.01,0,0,1-2.442,6.348,7.606,7.606,0,0,1-5.761,2.637,41.161,41.161,0,0,1-5.371-.586,43.545,43.545,0,0,0-6.446-.586q-7.227,0-9.277,4.248t-2.051,12.158v6.348h6.543q15.235,0,15.234,9.18,0,6.542-4.053,8.3t-11.182,1.758h-6.543v70.6q0,7.911-3.759,12.061a12.511,12.511,0,0,1-9.717,4.151A12.183,12.183,0,0,1,834.229,143.9Zm-300.375.049q-3.711-4.1-3.711-12.109V57.617q0-17.969,12.988-17.968,6.641,0,9.571,4.2t3.223,12.4q4.784-8.2,9.815-12.4t13.428-4.2a34.363,34.363,0,0,1,16.308,4.2q7.911,4.2,7.91,11.132a10.591,10.591,0,0,1-3.369,8.057,10.453,10.453,0,0,1-7.276,3.174q-1.465,0-7.08-1.807a32.921,32.921,0,0,0-9.912-1.806,14.5,14.5,0,0,0-9.571,3.076,19.737,19.737,0,0,0-5.762,9.131,63.753,63.753,0,0,0-2.832,14.4q-.78,8.35-.781,20.362v22.265q0,8.105-3.808,12.158a12.694,12.694,0,0,1-9.669,4.054A12.209,12.209,0,0,1,533.854,143.945Zm-95.344.2a48.566,48.566,0,0,1-16.748-11.182,47.486,47.486,0,0,1-6.226-7.934,50.51,50.51,0,0,1-4.516-9.253,63.126,63.126,0,0,1-3.662-21.924,63.9,63.9,0,0,1,3.711-22.168,51.707,51.707,0,0,1,4.517-9.326,46.061,46.061,0,0,1,6.128-7.861,45.288,45.288,0,0,1,7.665-6.312,49.912,49.912,0,0,1,9.131-4.675,63.579,63.579,0,0,1,43.75.049,50.353,50.353,0,0,1,9.155,4.737A46.52,46.52,0,0,1,505.343,62.6a50.823,50.823,0,0,1,4.5,9.277,63.541,63.541,0,0,1,3.662,21.973A63.326,63.326,0,0,1,509.8,115.82a51.561,51.561,0,0,1-4.541,9.351,46.548,46.548,0,0,1-13.916,14.318,49.639,49.639,0,0,1-9.082,4.7,59.667,59.667,0,0,1-21.973,3.857A57.95,57.95,0,0,1,438.51,144.14Zm14.428-83.752a22.678,22.678,0,0,0-11.694,8.057,29.927,29.927,0,0,0-3.906,6.946,48.881,48.881,0,0,0-3.223,18.456,48.525,48.525,0,0,0,3.173,18.262,30.164,30.164,0,0,0,3.857,6.9,23.6,23.6,0,0,0,5.225,5.066,22.2,22.2,0,0,0,6.432,3.113,26.187,26.187,0,0,0,7.484,1.038,25.221,25.221,0,0,0,10.876-2.283,23.5,23.5,0,0,0,8.411-6.848,31.318,31.318,0,0,0,5.383-10.877,52.846,52.846,0,0,0,1.795-14.368,53.654,53.654,0,0,0-1.795-14.5,31.018,31.018,0,0,0-5.383-10.888,23.463,23.463,0,0,0-8.411-6.812,25.336,25.336,0,0,0-10.876-2.271A26.033,26.033,0,0,0,452.938,60.388Zm-134.513,83.46q-3.711-4.2-3.711-12.012V87.4q0-13.184-3.662-20.166t-14.6-6.982A21.616,21.616,0,0,0,283.464,64.5a24.41,24.41,0,0,0-8.594,11.669q-1.953,5.958-1.953,22.266v33.4q0,8.105-3.76,12.158a12.653,12.653,0,0,1-9.716,4.054,12.078,12.078,0,0,1-9.473-4.2q-3.711-4.2-3.712-12.012V54.785q0-7.617,3.321-11.377a11.493,11.493,0,0,1,9.082-3.759,12.324,12.324,0,0,1,6.348,1.66,11.9,11.9,0,0,1,4.54,4.981,17.553,17.553,0,0,1,1.709,8.105v3.223q7.031-9.277,15.381-13.623a40.967,40.967,0,0,1,19.19-4.345,38.288,38.288,0,0,1,18.847,4.59,29.161,29.161,0,0,1,12.4,12.988A30.9,30.9,0,0,1,340.5,67.774a109.377,109.377,0,0,1,.781,14.453v49.609q0,8.008-3.662,12.109a12.17,12.17,0,0,1-9.522,4.1A12.3,12.3,0,0,1,318.424,143.848Zm-159.676.537a47.388,47.388,0,0,1-9.272-4.578,44.549,44.549,0,0,1-7.843-6.408,46.724,46.724,0,0,1-6.237-7.978,49.2,49.2,0,0,1-4.456-9.284,66.621,66.621,0,0,1-3.565-22.486,66.606,66.606,0,0,1,3.515-21.923A48.558,48.558,0,0,1,141.145,54.4a42.771,42.771,0,0,1,7.52-6.385,47.55,47.55,0,0,1,9.082-4.7,59.873,59.873,0,0,1,21.875-3.857A60.97,60.97,0,0,1,194.136,41.1a45.582,45.582,0,0,1,12.292,4.944,47.5,47.5,0,0,1,9.778,7.556,41.1,41.1,0,0,1,6.97,9.485,48.73,48.73,0,0,1,4.175,10.546,42.5,42.5,0,0,1,1.391,10.742,20.7,20.7,0,0,1-1.44,8.289,9.452,9.452,0,0,1-4.322,4.748c-3.823,1.976-9.277,2.978-16.211,2.978H154.622a35.592,35.592,0,0,0,3.662,16.016,24.507,24.507,0,0,0,22.51,13.965,32.092,32.092,0,0,0,8.741-1.123,28.614,28.614,0,0,0,7.665-3.515,58.758,58.758,0,0,0,6.836-5.127c2.069-1.81,4.8-4.307,8.105-7.421A8.786,8.786,0,0,1,218,111.426a9.692,9.692,0,0,1,6.641,2.246,8.063,8.063,0,0,1,2.539,6.348c0,2.4-.953,5.24-2.832,8.447a33.651,33.651,0,0,1-8.545,9.277,48.922,48.922,0,0,1-14.355,7.374,62.119,62.119,0,0,1-19.874,2.93A66.35,66.35,0,0,1,158.748,144.385Zm10.925-84.657a21.111,21.111,0,0,0-7.287,5.164,26.065,26.065,0,0,0-5.139,8.533,46.6,46.6,0,0,0-2.625,11.829h48.34A44.916,44.916,0,0,0,200.631,73.3a24.263,24.263,0,0,0-5.042-8.508,20.831,20.831,0,0,0-7.41-5.091,25.161,25.161,0,0,0-9.436-1.7A23.265,23.265,0,0,0,169.673,59.729Zm-147.7,80.311A46.579,46.579,0,0,1,6.1,124.658Q0,115.039,0,105.957A12.676,12.676,0,0,1,12.988,93.164a11.027,11.027,0,0,1,7.764,2.929,23.041,23.041,0,0,1,5.42,8.691,58.04,58.04,0,0,0,5.909,11.425,23.955,23.955,0,0,0,8.935,7.569q5.762,2.978,15.136,2.978,12.891,0,20.948-6.006t8.057-14.99A15.842,15.842,0,0,0,80.81,94.189,28.024,28.024,0,0,0,69.58,87.4q-6.885-2.344-18.408-4.981a135.044,135.044,0,0,1-25.83-8.447,41.752,41.752,0,0,1-16.5-13.183q-6.1-8.35-6.1-20.752a35.633,35.633,0,0,1,6.446-21q6.445-9.18,18.652-14.111T56.543,0q13.183,0,22.8,3.272a48.185,48.185,0,0,1,15.967,8.691A36.312,36.312,0,0,1,104.59,23.34a26.239,26.239,0,0,1,2.929,11.621,13.734,13.734,0,0,1-3.662,9.327,11.679,11.679,0,0,1-9.131,4.15q-4.981,0-7.569-2.489a33.573,33.573,0,0,1-5.615-8.155,36.954,36.954,0,0,0-9.374-12.646Q66.7,20.606,54.59,20.606q-11.229,0-18.115,4.932T29.59,37.4a12.022,12.022,0,0,0,2.344,7.422A19.741,19.741,0,0,0,38.379,50.2a43.54,43.54,0,0,0,8.3,3.515q4.2,1.269,13.867,3.711a217.594,217.594,0,0,1,21.924,6.25,66.594,66.594,0,0,1,16.7,8.3,34.149,34.149,0,0,1,10.742,12.353q3.857,7.471,3.857,18.311a42.071,42.071,0,0,1-6.69,23.34q-6.689,10.352-19.58,16.211t-30.566,5.86Q35.742,148.047,21.973,140.039ZM784.111,147a12.017,12.017,0,0,1-4.211-3.149,13.8,13.8,0,0,1-2.747-5.1,23.835,23.835,0,0,1-.915-6.909V55.566a23.774,23.774,0,0,1,.915-6.934,12.889,12.889,0,0,1,2.747-4.98,11.991,11.991,0,0,1,4.211-3,13.633,13.633,0,0,1,5.309-1,13.911,13.911,0,0,1,5.348,1,12.637,12.637,0,0,1,4.322,3,12.964,12.964,0,0,1,2.856,4.784,19.655,19.655,0,0,1,.952,6.348v77.051a23.59,23.59,0,0,1-.952,7.032,13.189,13.189,0,0,1-2.856,5.078,12.635,12.635,0,0,1-4.322,3.076,13.62,13.62,0,0,1-5.348,1.025A13.079,13.079,0,0,1,784.111,147Zm-412.565,0a12.017,12.017,0,0,1-4.211-3.149,13.809,13.809,0,0,1-2.747-5.1,23.834,23.834,0,0,1-.915-6.909V55.566a23.772,23.772,0,0,1,.915-6.934,12.9,12.9,0,0,1,2.747-4.98,11.991,11.991,0,0,1,4.211-3,13.634,13.634,0,0,1,5.31-1,13.909,13.909,0,0,1,5.347,1,12.628,12.628,0,0,1,4.322,3,12.953,12.953,0,0,1,2.856,4.784,19.656,19.656,0,0,1,.952,6.348v77.051a23.591,23.591,0,0,1-.952,7.032,13.178,13.178,0,0,1-2.856,5.078,12.627,12.627,0,0,1-4.322,3.076,13.619,13.619,0,0,1-5.347,1.025A13.081,13.081,0,0,1,371.545,147Zm307.1-1.391q-9.473,0-13.623-4.2t-4.15-13.574V17.578q0-8.788,3.955-13.183A13.325,13.325,0,0,1,675.228,0a13.817,13.817,0,0,1,10.6,4.346q4.053,4.346,4.053,13.232v104.2h58.789q7.032,0,10.791,3.418a11.123,11.123,0,0,1,3.76,8.594,10.852,10.852,0,0,1-3.711,8.545q-3.711,3.271-10.84,3.271ZM780.193,23.828a10.812,10.812,0,0,1-2.967-4.126,14.609,14.609,0,0,1-.988-5.542A12.878,12.878,0,0,1,777.25,9a12.122,12.122,0,0,1,3.04-4.162,13.677,13.677,0,0,1,9.423-3.662,14.038,14.038,0,0,1,9.181,3.32,10.424,10.424,0,0,1,3,4.077,14.59,14.59,0,0,1,1,5.591,14.528,14.528,0,0,1-.977,5.481,11.045,11.045,0,0,1-2.93,4.138,13.571,13.571,0,0,1-9.278,3.467A14.126,14.126,0,0,1,780.193,23.828Zm-412.565,0a10.82,10.82,0,0,1-2.966-4.126,14.61,14.61,0,0,1-.989-5.542A12.879,12.879,0,0,1,364.685,9a12.119,12.119,0,0,1,3.039-4.162,13.678,13.678,0,0,1,9.424-3.662,14.038,14.038,0,0,1,9.18,3.32,10.426,10.426,0,0,1,3,4.077,14.59,14.59,0,0,1,1,5.591,14.529,14.529,0,0,1-.977,5.481,11.045,11.045,0,0,1-2.93,4.138,13.571,13.571,0,0,1-9.277,3.467A14.131,14.131,0,0,1,367.628,23.828Z" transform="translate(0 220.49)" fill="#fff"/>
</svg>
