<svg width="320" height="132" viewBox="0 0 320 132" fill="none" xmlns="http://www.w3.org/2000/svg">
<g clip-path="url(#clip0_1846_17801)">
<path d="M258.33 94.0288C253.268 85.2425 247.064 77.1927 239.917 70.0765C229.492 59.7031 217.054 51.3317 203.257 45.6159C189.948 40.0973 175.353 37.0267 160.052 37.0164V61.7259C172.002 61.7363 183.403 64.1325 193.807 68.4479C204.585 72.9188 214.305 79.4437 222.459 87.535C228.091 93.1367 232.977 99.4749 236.961 106.415C240.052 111.788 246.598 114.091 252.334 111.726C259.274 108.852 262.085 100.533 258.34 94.0288H258.33Z" fill="url(#paint0_linear_1846_17801)"/>
<path d="M159.948 37.0164C144.679 37.0164 130.114 40.0558 116.805 45.5537C102.988 51.2591 90.5292 59.6097 80.0831 69.9832C72.9566 77.0578 66.7533 85.0765 61.691 93.8213C57.884 100.398 60.7367 108.821 67.7595 111.726C73.4026 114.06 79.8653 111.809 82.8943 106.508C86.9089 99.506 91.8466 93.0952 97.5416 87.452C105.716 79.3504 115.457 72.8359 126.255 68.3857C136.65 64.1014 148.019 61.7259 159.938 61.7259C159.969 61.7259 160 61.7259 160.031 61.7259V37.0164C160.031 37.0164 159.969 37.0164 159.938 37.0164H159.948Z" fill="url(#paint1_linear_1846_17801)"/>
<path d="M233.526 89.0158L215.415 94.2732C213.429 94.8505 212.696 97.2993 214.053 98.8585L224.321 110.759C225.681 112.328 228.197 111.966 229.058 110.085L236.903 92.9378C237.918 90.7254 235.865 88.3474 233.528 89.0261L215.416 94.2835C213.431 94.8607 212.698 97.3095 214.055 98.8688L224.323 110.769C225.682 112.339 228.199 111.977 229.059 110.095L236.905 92.948C237.92 90.7357 235.867 88.3576 233.53 89.0363L233.526 89.0158Z" fill="#333333"/>
<path d="M230.591 112.234C217.002 87.172 190.467 70.1492 159.948 70.1492C129.429 70.1492 102.894 87.172 89.3049 112.234H230.581H230.591Z" fill="#EEEEEE"/>
<path d="M141.665 86.1469V102.369H139.37V86.1469H141.665ZM131.188 87.4276V91.3763H134.675V87.4276H136.916V98.5801H128.912V87.4276H131.188ZM131.188 96.748H134.675V93.1373H131.188V96.748ZM157.851 86.1469V102.333H155.699V94.2045H154.134V101.551H152.053V86.4137H154.134V92.3902H155.699V86.1469H157.851ZM150.345 88.0146V89.8466H146.592V96.748C148.157 96.7391 149.545 96.6591 151.11 96.3745L151.27 98.2244C149.296 98.5979 147.57 98.6513 145.436 98.669H144.315V88.0146H150.345ZM165.5 88.6905C165.5 90.6471 166.638 92.5325 169.199 93.3329L167.99 95.0938C166.273 94.5247 165.073 93.4219 164.379 91.9989C163.677 93.6353 162.423 94.916 160.573 95.5385L159.345 93.7598C162.049 92.8527 163.205 90.7004 163.223 88.477V87.0007H165.5V88.6905ZM172.437 86.1469V89.9356H174.624V91.821H172.437V95.752H170.16V86.1469H172.437ZM167.136 96.0721C170.48 96.0721 172.597 97.2283 172.597 99.2027C172.597 101.195 170.48 102.333 167.136 102.333C163.721 102.333 161.587 101.195 161.587 99.2027C161.587 97.2283 163.721 96.0721 167.136 96.0721ZM167.136 97.8508C165.002 97.8508 163.846 98.3133 163.863 99.2027C163.846 100.128 165.002 100.554 167.136 100.554C169.235 100.554 170.356 100.128 170.356 99.2027C170.356 98.3133 169.235 97.8508 167.136 97.8508ZM181.312 90.5581C181.295 93.0305 182.611 95.8765 185.279 97.1038L184.016 98.8825C182.211 98.0554 180.921 96.4012 180.21 94.4535C179.48 96.5969 178.155 98.4111 176.279 99.2916L174.962 97.4951C177.666 96.2322 179.018 93.2262 179.036 90.5581V89.5621H175.603V87.7122H184.567V89.5621H181.312V90.5581ZM188.107 86.1469V92.3191H190.491V94.2223H188.107V102.333H185.83V86.1469H188.107Z" fill="#333333"/>
</g>
<g clip-path="url(#clip1_1846_17801)">
<path d="M129.502 29.2014L129.17 30.384C127.656 30.3321 126.38 29.689 125.519 28.6724C125.353 30.1558 124.575 31.5147 123.247 32.4379L122.293 31.5873C124.035 30.4255 124.741 28.5271 124.284 26.8259L124.191 26.4836L121.494 27.2305L121.203 26.1827L127.832 24.3466L128.122 25.3944L125.488 26.1309L125.581 26.4628C126.017 28.0188 127.49 29.1392 129.512 29.2118L129.502 29.2014ZM133.154 32.6039C133.558 34.0562 132.261 35.3425 129.73 36.0271C127.178 36.7533 125.384 36.3176 124.979 34.8757C124.585 33.4442 125.903 32.1786 128.465 31.4628C130.996 30.7574 132.759 31.1724 133.154 32.6039ZM126.286 34.5126C126.504 35.3321 127.676 35.4981 129.45 35.0002C131.214 34.5126 132.116 33.7761 131.888 32.9566C131.67 32.1682 130.519 32.0023 128.755 32.4898C126.981 32.9877 126.048 33.7242 126.286 34.5126ZM131.141 25.7471L132.915 25.2491L133.205 26.3176L131.432 26.8155L132.334 30.0728L131.037 30.4359L128.994 23.0811L130.291 22.718L131.131 25.7471H131.141Z" fill="#616161"/>
<path d="M136.214 31.9917L135.342 31.027C138.423 28.9005 139.689 26.3797 139.481 23.4129L134.865 24.1494L134.699 23.081L140.664 22.1266C141.255 25.7988 140.197 29.2428 136.224 31.9814L136.214 31.9917ZM146.193 32.7386L144.844 32.9565L142.832 20.4046L144.181 20.1868L146.193 32.7283V32.7386Z" fill="#616161"/>
<path d="M159.274 30.4357L147.645 30.9336L147.593 29.8133L150.374 29.6992L150.228 26.3797C149.16 25.8507 148.496 24.9585 148.444 23.8278C148.361 21.8258 150.259 20.4253 152.977 20.3112C155.716 20.1971 157.728 21.4316 157.811 23.4336C157.863 24.554 157.282 25.4772 156.286 26.0996L156.432 29.4502L159.212 29.3361L159.264 30.4565L159.274 30.4357ZM149.761 23.7656C149.824 25.1245 151.235 25.9648 153.226 25.8818C155.208 25.7988 156.577 24.8444 156.515 23.4855C156.452 22.1058 155.01 21.3071 153.029 21.3901C151.027 21.4731 149.689 22.3963 149.751 23.776L149.761 23.7656ZM155.093 29.4917L154.969 26.6598C154.461 26.8154 153.89 26.9088 153.278 26.9295C152.687 26.9502 152.116 26.9191 151.598 26.8154L151.722 29.637L155.093 29.4917Z" fill="#616161"/>
<path d="M167.438 23.6203C167.293 25.3838 165.778 26.5145 163.838 26.3797C161.898 26.2241 160.55 24.8859 160.695 23.1224C160.809 21.3382 162.344 20.2178 164.284 20.3631C166.224 20.5083 167.552 21.8361 167.438 23.6203ZM170.083 30.3423C169.969 31.8568 168.288 32.6349 165.705 32.4378C163.091 32.2614 161.515 31.2344 161.629 29.7199C161.743 28.195 163.444 27.4274 166.058 27.6141C168.641 27.8008 170.187 28.8174 170.073 30.3423H170.083ZM162.013 23.2158C161.919 24.3465 162.739 25.1452 163.921 25.249C165.114 25.3216 166.037 24.6577 166.12 23.527C166.203 22.4066 165.384 21.5871 164.201 21.4938C163.008 21.4108 162.085 22.1058 162.013 23.2261V23.2158ZM162.977 29.8133C162.894 30.6743 163.952 31.2241 165.788 31.3589C167.614 31.4938 168.703 31.0996 168.766 30.2386C168.828 29.388 167.801 28.8278 165.986 28.6929C164.149 28.5581 163.029 28.9523 162.977 29.8029V29.8133ZM172.303 23.1328L170.508 22.9979L170.394 24.6058L172.189 24.7407L172.106 25.861L170.311 25.7261L170.176 27.583L168.838 27.4793L169.388 20L170.726 20.1037L170.591 21.8983L172.386 22.0332L172.303 23.1328Z" fill="#616161"/>
<path d="M183.61 33.5892L172.189 31.4108L172.396 30.3112L177.427 31.276L177.915 28.7137L174.201 28.0083L175.425 21.5872L176.753 21.8361L176.338 23.9834L182.469 25.1556L182.873 23.0083L184.18 23.2573L182.956 29.6784L179.222 28.9627L178.734 31.5249L183.817 32.5L183.61 33.5996V33.5892ZM181.857 28.3506L182.261 26.2241L176.131 25.0519L175.726 27.1784L181.857 28.3506Z" fill="#616161"/>
<path d="M194.015 38.2261L185.996 35.7676L187.23 31.722L195.249 34.1805L194.015 38.2261ZM192.469 30.0518C192.064 31.3693 190.622 31.8568 188.952 31.3589C187.293 30.8299 186.359 29.6162 186.763 28.2987C187.158 27.0228 188.62 26.4938 190.29 27.0021C191.961 27.5104 192.863 28.7655 192.469 30.0415V30.0518ZM194.004 27.5415L186.878 25.3631L187.189 24.3361L190.114 25.2386L190.519 23.9211L191.795 24.3153L191.39 25.6328L194.305 26.5249L193.994 27.5518L194.004 27.5415ZM187.593 35.1141L193.071 36.7946L193.672 34.8133L188.195 33.1328L187.593 35.1141ZM187.988 28.6722C187.759 29.4191 188.268 30.083 189.243 30.3734C190.207 30.6743 190.996 30.4045 191.224 29.6577C191.442 28.9419 190.944 28.2676 189.969 27.9875C188.994 27.6763 188.195 27.946 187.977 28.6722H187.988ZM195.436 33.5788L194.149 33.1846L194.959 30.5394L193.06 29.9585L193.392 28.89L195.29 29.4709L196.411 25.8195L197.697 26.2137L195.436 33.5788Z" fill="#616161"/>
</g>
<defs>
<linearGradient id="paint0_linear_1846_17801" x1="160.052" y1="74.8379" x2="260" y2="74.8379" gradientUnits="userSpaceOnUse">
<stop stop-color="#FFCD03"/>
<stop offset="0.55" stop-color="#B7D508"/>
<stop offset="1" stop-color="#709F00"/>
</linearGradient>
<linearGradient id="paint1_linear_1846_17801" x1="60.0001" y1="74.8276" x2="160.052" y2="74.8276" gradientUnits="userSpaceOnUse">
<stop stop-color="#DF0000"/>
<stop offset="0.49" stop-color="#ED4A04"/>
<stop offset="1" stop-color="#FF8D00"/>
</linearGradient>
<clipPath id="clip0_1846_17801">
<rect width="200" height="75.6432" fill="white" transform="translate(60 37.0164)"/>
</clipPath>
<clipPath id="clip1_1846_17801">
<rect width="76.4834" height="18.2261" fill="white" transform="translate(121.203 20)"/>
</clipPath>
</defs>
</svg>
