<svg width="320" height="191" viewBox="0 0 320 191" fill="none" xmlns="http://www.w3.org/2000/svg">
<g clip-path="url(#clip0_2447_23081)">
<path d="M45.1641 186.988C37.6559 177.802 39.3158 163.004 43.9319 152.061C48.5453 141.118 55.4922 130.899 57.1734 119.137C58.2613 111.526 57.0505 103.767 57.5984 96.0954C59.3117 72.1654 80.4222 51.1892 104.259 49.7312C110.316 49.3596 116.426 50.1028 122.448 49.347C138.408 47.3442 154.461 39.0368 167.837 30.0619C183.39 19.6258 197.955 19.1377 216.542 21.2318C235.129 23.326 243.266 28.3204 251.846 43.1181C262.385 61.2915 250.413 86.9032 257.012 106.862C261.57 120.64 262.329 116.971 271.414 128.26C281.654 140.989 284.987 177.131 268.655 186.988H45.1641Z" fill="#FDE7CC"/>
<path d="M135.117 103.438C126.916 107.812 122.129 116.074 121.809 124.734C114.159 117.466 102.433 115.534 92.6128 120.772C80.3416 127.315 75.7015 142.565 82.2474 154.829C82.2474 154.829 82.3222 154.971 82.4719 155.225C83.2818 156.679 84.2119 158.025 85.249 159.252C91.6024 167.415 108.629 183.904 141.743 182.448L157.687 165.523C166.05 154.455 174.189 139.104 172.019 123H172.013C171.682 119.871 170.762 116.75 169.188 113.803C162.642 101.535 147.388 96.8967 135.119 103.441L135.117 103.438Z" fill="#FF6C6C"/>
<path d="M108.399 133.45L114.172 132.571C118.683 131.885 122.903 134.988 123.59 139.497L126.158 156.356L104.039 159.724L101.47 142.865C100.783 138.356 103.888 134.137 108.399 133.45Z" fill="white"/>
<path d="M111.388 131.264L110.672 131.373L115.02 159.913L115.736 159.804L111.388 131.264Z" fill="#FF6C6C"/>
<path d="M125.855 144.904L100.848 148.712L100.957 149.428L125.964 145.62L125.855 144.904Z" fill="#FF6C6C"/>
<path d="M242.847 21.2375C241.973 18.3062 241.099 15.3723 240.228 12.4411C240.041 11.8105 239.851 11.1505 239.979 10.5065C240.107 9.86253 240.663 9.2533 241.318 9.30407C241.906 9.35217 242.326 9.88123 242.633 10.3836C243.315 11.4978 243.825 12.7163 244.135 13.9855C243.972 10.9581 244.031 7.91995 244.312 4.9032C244.459 3.31867 244.98 1.37876 246.541 1.06613C247.869 3.9466 247.543 7.284 247.19 10.4343C247.554 7.70084 248.081 4.9887 248.762 2.31665C248.909 1.73682 249.078 1.14095 249.465 0.686698C249.853 0.232449 250.534 -0.0267397 251.066 0.243138C251.408 0.416821 251.622 0.76686 251.772 1.11957C252.785 3.54312 251.339 6.31939 251.71 8.9193C252.221 6.74157 252.967 4.61996 253.926 2.59722C254.188 2.04677 254.568 1.4322 255.174 1.3841C256.129 1.30929 256.508 2.59187 256.495 3.5458C256.457 6.3087 255.931 9.06359 254.942 11.6448C255.647 9.97208 256.658 8.42764 257.911 7.11299C258.414 6.58392 259.178 6.0602 259.814 6.41558C260.082 6.56522 260.25 6.84044 260.365 7.12367C261.089 8.91929 259.937 10.8672 258.922 12.5159C256.607 16.2728 254.787 20.3343 253.52 24.5615" fill="#FFDAD2"/>
<path d="M246.081 11.4766C248.621 11.2548 251.192 11.5541 253.613 12.353C254.311 12.5828 254.993 12.8554 255.656 13.1653C255.811 13.2375 255.947 13.0077 255.789 12.9355C253.44 11.8373 250.874 11.2254 248.284 11.1479C247.549 11.1265 246.814 11.1479 246.081 11.212C245.91 11.2281 245.91 11.4953 246.081 11.4792V11.4766Z" fill="#231815"/>
<path d="M245.197 15.3136C246.635 16.476 247.736 18.0231 248.351 19.768C248.407 19.9283 248.666 19.8588 248.607 19.6958C247.976 17.9109 246.856 16.3157 245.384 15.1239C245.25 15.017 245.06 15.2041 245.194 15.3136H245.197Z" fill="#231815"/>
<path d="M242.975 21.2001C242.235 18.7151 241.495 16.2274 240.754 13.7424C240.573 13.1332 240.375 12.5267 240.214 11.9121C240.067 11.3456 239.963 10.6936 240.241 10.1485C240.455 9.73168 240.883 9.36561 241.377 9.44577C241.872 9.52594 242.214 9.97217 242.465 10.3676C243.176 11.4872 243.686 12.7377 244.007 14.023C244.042 14.1673 244.277 14.1406 244.269 13.9883C244.157 11.8827 244.149 9.77176 244.25 7.66619C244.298 6.67485 244.355 5.67818 244.467 4.69219C244.547 3.98677 244.691 3.26531 244.993 2.61601C245.309 1.93463 245.814 1.35747 246.576 1.19447L246.426 1.13302C247.455 3.38556 247.466 5.92134 247.268 8.34222C247.212 9.03962 247.134 9.73703 247.057 10.4344C247.038 10.6054 247.303 10.6001 247.324 10.4344C247.522 8.95144 247.768 7.4738 248.062 6.00417C248.206 5.28004 248.361 4.55859 248.53 3.83981C248.687 3.15843 248.837 2.46637 249.046 1.79836C249.23 1.21051 249.535 0.609294 250.136 0.363465C250.39 0.259255 250.687 0.227191 250.946 0.334073C251.227 0.446299 251.416 0.702816 251.553 0.962005C252.141 2.0816 252.052 3.43633 251.892 4.64677C251.705 6.07631 251.384 7.50854 251.582 8.95679C251.601 9.09039 251.812 9.07703 251.839 8.95679C252.157 7.61275 252.558 6.29275 253.047 5.00215C253.295 4.3475 253.565 3.70353 253.857 3.06758C254.081 2.5786 254.311 1.97471 254.781 1.66476C255.18 1.40557 255.648 1.51779 255.923 1.88386C256.198 2.24993 256.31 2.73358 256.348 3.17981C256.401 3.79705 256.34 4.43835 256.294 5.05559C256.241 5.753 256.155 6.44773 256.038 7.13712C255.778 8.66553 255.367 10.1646 254.816 11.6128C254.763 11.7518 255.001 11.856 255.059 11.717C255.746 10.0978 256.709 8.60408 257.909 7.31882C258.385 6.81113 259.328 5.99883 259.975 6.72028C260.245 7.02222 260.37 7.46578 260.429 7.8559C260.491 8.27274 260.464 8.70027 260.378 9.11177C260.199 9.97217 259.798 10.7711 259.363 11.53C258.927 12.2888 258.419 13.0824 257.968 13.8707C257.059 15.4606 256.236 17.0985 255.506 18.7739C254.688 20.6497 253.982 22.5709 253.394 24.5295C253.343 24.6952 253.603 24.7647 253.651 24.6017C254.76 20.9116 256.286 17.3497 258.2 14.0043C258.665 13.1893 259.176 12.4011 259.638 11.5861C260.101 10.7711 260.493 9.96682 260.656 9.07436C260.801 8.28343 260.755 7.32951 260.266 6.65615C260.05 6.35688 259.721 6.16182 259.347 6.16984C258.946 6.17785 258.572 6.38627 258.262 6.62409C257.877 6.92068 257.553 7.29744 257.238 7.66886C256.906 8.06165 256.594 8.4678 256.302 8.89266C255.722 9.73703 255.228 10.6375 254.83 11.5807L255.073 11.685C255.602 10.2955 256 8.85792 256.262 7.39364C256.388 6.6802 256.484 5.96409 256.546 5.24263C256.602 4.57729 256.669 3.8879 256.62 3.21989C256.559 2.40491 256.177 1.13836 255.132 1.25593C254.586 1.31739 254.218 1.78233 253.966 2.23123C253.629 2.83779 253.365 3.49778 253.103 4.13908C252.472 5.67818 251.967 7.26538 251.585 8.88197H251.841C251.652 7.49518 251.964 6.10303 252.149 4.73494C252.32 3.46305 252.397 2.10297 251.828 0.913908C251.577 0.384842 251.12 -0.0507029 250.497 0.0027382C249.874 0.0561793 249.398 0.456987 249.107 0.970021C248.77 1.56055 248.639 2.25795 248.479 2.90993C248.292 3.66879 248.118 4.43033 247.958 5.19721C247.591 6.93137 247.295 8.67622 247.06 10.4318H247.327C247.605 7.95744 247.875 5.4083 247.319 2.95268C247.166 2.27933 246.947 1.62467 246.659 0.996742C246.635 0.940629 246.562 0.924596 246.509 0.935285C245.042 1.24524 244.488 2.86451 244.274 4.17114C244.122 5.10369 244.079 6.06028 244.023 7.00352C243.959 8.09906 243.924 9.19727 243.919 10.2955C243.911 11.5246 243.943 12.7564 244.007 13.9829L244.269 13.9482C243.967 12.7271 243.489 11.5514 242.847 10.4692C242.585 10.0256 242.275 9.54464 241.799 9.30416C241.361 9.08237 240.864 9.14383 240.479 9.44577C239.447 10.2527 239.854 11.6422 240.169 12.6977L241.374 16.7458C241.823 18.2555 242.272 19.7626 242.721 21.2723C242.77 21.4379 243.029 21.3658 242.978 21.2001H242.975Z" fill="#231815"/>
<path d="M205.202 177.368C206.135 180.283 206.504 183.38 206.282 186.432L182.154 186.846C182.098 184.676 183.389 182.691 184.907 181.139C186.425 179.586 188.216 178.301 189.579 176.609" fill="#3B2E72"/>
<path d="M183.103 184.321C186.105 184.219 189.109 184.121 192.111 184.019C195.112 183.918 198.071 183.819 201.051 183.72C202.741 183.664 204.433 183.608 206.122 183.549C206.293 183.543 206.293 183.276 206.122 183.282C203.12 183.383 200.116 183.482 197.114 183.584L188.173 183.883C186.484 183.939 184.792 183.995 183.103 184.054C182.932 184.059 182.932 184.326 183.103 184.321Z" fill="#231815"/>
<path d="M185.65 180.644C186.965 181.179 187.954 182.378 188.256 183.76C188.294 183.928 188.55 183.856 188.513 183.688C188.189 182.207 187.12 180.957 185.72 180.385C185.559 180.321 185.493 180.577 185.648 180.641L185.65 180.644Z" fill="#231815"/>
<path d="M194.749 80.5276C191.065 86.0882 186.717 91.2078 181.825 95.7423L172.203 88.6587C176.151 83.7795 180.099 78.8977 184.047 74.0185C187.192 70.1307 190.395 66.1867 194.495 63.3223" fill="#FF76AB"/>
<path d="M236.25 177.368C237.183 180.283 237.552 183.38 237.33 186.432L213.202 186.846C213.146 184.676 214.437 182.691 215.955 181.139C217.473 179.586 219.264 178.301 220.627 176.609" fill="#3B2E72"/>
<path d="M214.151 184.321C217.153 184.219 220.157 184.121 223.159 184.019C226.16 183.918 229.119 183.819 232.099 183.72C233.789 183.664 235.481 183.608 237.17 183.549C237.341 183.543 237.341 183.276 237.17 183.282C234.168 183.383 231.164 183.482 228.162 183.584L219.222 183.883C217.532 183.939 215.84 183.995 214.151 184.054C213.98 184.059 213.98 184.326 214.151 184.321Z" fill="#231815"/>
<path d="M216.696 180.644C218.011 181.179 219 182.378 219.302 183.76C219.339 183.928 219.596 183.856 219.558 183.688C219.235 182.207 218.166 180.957 216.765 180.385C216.605 180.321 216.538 180.577 216.693 180.641L216.696 180.644Z" fill="#231815"/>
<path d="M224.188 77.5457C229.322 71.3225 234.329 64.9951 239.204 58.5634C247.07 48.1825 254.821 36.9839 256.636 24.0886L238.116 18.6243C234.933 34.3707 227.2 49.1712 216.089 60.7759" fill="#FF76AB"/>
<path d="M207.546 59.6777C211.339 59.1566 215.135 58.6356 218.928 58.1145C219.991 63.154 222.525 67.8728 226.136 71.5469C226.671 72.092 227.246 72.6371 227.537 73.3425C227.871 74.1548 227.785 75.0713 227.703 75.9451C226.866 84.7949 226.826 93.7196 227.585 102.577L190.598 103.203L190.622 100.998C189.726 92.6428 189.406 84.2258 189.662 75.8249C189.774 72.1481 190.087 68.2229 192.34 65.313C194.987 61.8955 199.576 60.7785 203.807 59.8994" fill="#83DB3E"/>
<path d="M227.585 102.577L237.103 178.06H216.963L208.295 116.111L206.862 178.782H186.321L190.598 103.203L227.585 102.577Z" fill="white"/>
<path d="M206.993 178.915H186.182L186.19 178.774L190.475 103.069L227.705 102.441L227.721 102.561L237.255 178.194H216.848L216.832 178.079L208.394 117.763L206.993 178.918V178.915ZM186.463 178.648H206.731L208.161 116.109L208.428 116.093L217.078 177.927H236.951L227.467 102.714L190.726 103.334L186.465 178.648H186.463Z" fill="#231815"/>
<path d="M202.265 60.279C201.631 62.096 201.96 64.092 202.297 65.9865C203.045 70.2137 203.802 74.4729 205.349 78.4757C205.52 78.9219 205.82 79.4403 206.296 79.4136C206.638 79.3949 206.886 79.0876 207.065 78.7963C207.931 77.3801 208.241 75.7021 208.511 74.0614C209.316 69.1689 209.901 64.2416 210.27 59.2983" fill="#FF76AB"/>
<path d="M206.181 79.5496C206.242 82.5584 206.304 85.5671 206.365 88.5758C206.426 91.5846 206.488 94.5933 206.549 97.602C206.584 99.2908 206.619 100.977 206.654 102.666C206.656 102.837 206.924 102.837 206.921 102.666C206.859 99.6568 206.798 96.6481 206.737 93.6394C206.675 90.6307 206.614 87.6219 206.552 84.6132C206.517 82.9245 206.483 81.2384 206.448 79.5496C206.445 79.3786 206.178 79.3786 206.181 79.5496Z" fill="#231815"/>
<path d="M220.197 71.0901H213.349V73.4468H220.197V71.0901Z" fill="white"/>
<path d="M206.408 84.3059C205.24 82.8497 204.293 81.225 203.556 79.5123C202.818 77.7995 202.289 75.9611 201.931 74.1147C201.573 72.2683 201.385 70.3498 201.329 68.45C201.303 67.5067 201.305 66.5608 201.34 65.6176C201.375 64.6743 201.407 63.7525 201.543 62.8333C201.671 61.9622 201.907 61.0644 202.46 60.359C203.061 59.5921 203.967 59.234 204.871 58.9561C205.854 58.6542 206.889 58.3229 207.931 58.3736C208.899 58.4191 209.743 58.8893 210.315 59.6669C211.553 61.3476 211.286 63.6029 211.16 65.5588C211.034 67.5147 210.842 69.607 210.537 71.6137C210.235 73.6124 209.824 75.595 209.241 77.5296C208.658 79.4642 207.923 81.3159 206.972 83.0795C206.739 83.5097 206.493 83.9318 206.237 84.3487C206.146 84.4956 206.378 84.6292 206.467 84.4823C207.546 82.7321 208.404 80.8536 209.075 78.911C209.746 76.9685 210.241 74.927 210.596 72.8856C210.952 70.8441 211.187 68.7599 211.345 66.6837C211.425 65.6176 211.51 64.5461 211.526 63.4746C211.542 62.4031 211.457 61.361 211.034 60.3937C210.687 59.5948 210.11 58.8626 209.324 58.4591C208.391 57.9808 207.322 58.053 206.328 58.2721C205.809 58.387 205.301 58.5393 204.793 58.6943C204.326 58.8386 203.86 58.9989 203.427 59.226C202.602 59.6589 202.016 60.3483 201.671 61.2087C201.327 62.0691 201.225 62.9856 201.158 63.8914C201.089 64.8534 201.049 65.818 201.041 66.7826C201.022 68.7385 201.131 70.6945 201.409 72.6317C201.687 74.569 202.123 76.4474 202.781 78.2724C203.427 80.0707 204.283 81.7969 205.373 83.368C205.641 83.7528 205.921 84.1269 206.213 84.493C206.32 84.6266 206.509 84.4369 206.402 84.3032L206.408 84.3059Z" fill="#231815"/>
<path d="M200.135 40.6366C201.981 39.6426 204.147 39.1964 206.215 39.5491C208.284 39.9018 210.227 41.0882 211.353 42.8571C212.478 44.626 212.713 46.9694 211.818 48.8665C211.681 49.1524 211.516 49.4357 211.256 49.6174C210.762 49.9594 210.059 49.8285 209.572 49.4731C209.086 49.1177 208.768 48.586 208.45 48.0756C206.806 45.441 204.82 43.0201 202.564 40.8878" fill="#231815"/>
<path d="M201.03 55.4106C201.53 57.9197 202.059 60.4287 202.615 62.9324C202.615 62.9324 203.74 64.3566 206.865 63.4107C209.909 62.4889 209.735 60.4982 209.735 60.4982C209.035 58.2857 208.287 56.0866 207.493 53.9036L201.03 55.4106Z" fill="#FFDAD2"/>
<path d="M201.554 57.9651C202.294 58.5476 203.155 58.9805 204.069 59.2049C205.75 59.6191 207.584 59.3332 209.075 58.4621C208.57 56.9337 208.044 55.4133 207.493 53.9009L201.03 55.4079C201.201 56.2603 201.377 57.1127 201.554 57.9651Z" fill="#FFA18F"/>
<path d="M196.874 48.081C196.796 49.7778 196.927 51.5173 197.577 53.0858C198.223 54.657 199.445 56.0464 201.051 56.6102C202.324 57.0591 203.73 56.9629 205.047 56.669C206.103 56.4312 207.151 56.0598 208.014 55.4078C210.19 53.7592 210.746 50.6916 210.473 47.9822C210.273 45.9942 209.679 43.9741 208.34 42.4911C206.6 40.5699 203.652 39.8458 201.214 40.7409C198.777 41.6387 196.999 44.0997 196.922 46.6889L196.876 48.0784L196.874 48.081Z" fill="#FFDAD2"/>
<path d="M201.709 48.1638C201.781 48.4818 201.752 48.8131 201.631 49.1151C201.567 49.2754 201.476 49.425 201.364 49.556C201.262 49.6735 201.14 49.7777 201.057 49.9113C200.899 50.1705 200.968 50.4832 201.18 50.6889C201.426 50.9294 201.786 50.9588 202.11 50.9347C202.281 50.9214 202.281 50.6542 202.11 50.6675C201.821 50.6889 201.45 50.6809 201.287 50.395C201.123 50.1091 201.431 49.9007 201.594 49.6976C201.955 49.2487 202.094 48.6555 201.965 48.0943C201.928 47.926 201.669 47.9982 201.709 48.1665V48.1638Z" fill="#231815"/>
<path d="M199.641 50.1402C199.937 50.0466 200.102 49.7358 200.01 49.446C199.918 49.1562 199.604 48.9972 199.308 49.0908C199.013 49.1844 198.848 49.4952 198.94 49.785C199.031 50.0748 199.346 50.2338 199.641 50.1402Z" fill="#231815"/>
<path d="M208.495 41.8792C207.819 41.0482 207.014 40.292 206.044 39.8485C204.839 39.298 203.441 39.2606 202.161 39.5839C198.953 40.3909 196.51 43.576 196.55 46.9027L201.802 46.5767L202.385 42.8465L203.002 46.5046L210.385 46.0476C210.23 44.5085 209.471 43.0817 208.498 41.8819L208.495 41.8792Z" fill="#231815"/>
<path d="M203.914 51.8035C203.927 52.3619 203.93 52.9498 203.66 53.4361C203.307 54.0667 202.495 54.3927 201.8 54.195C201.105 53.9972 200.589 53.2998 200.586 52.5784L203.917 51.8035H203.914Z" fill="white"/>
<path d="M202.225 54.3872C202.07 54.3872 201.912 54.3658 201.76 54.3231C201.016 54.1093 200.453 53.3612 200.45 52.5782V52.4714L204.042 51.635L204.048 51.798C204.064 52.434 204.056 53.0004 203.775 53.5001C203.468 54.0505 202.85 54.3872 202.225 54.3872ZM200.72 52.6825C200.771 53.3104 201.233 53.8929 201.832 54.0666C202.468 54.2483 203.219 53.9437 203.54 53.3718C203.762 52.9737 203.788 52.5008 203.78 51.9717L200.717 52.6851L200.72 52.6825Z" fill="#231815"/>
<path d="M198.884 47.3942C199.236 47.0014 199.859 46.932 200.292 47.2339C200.434 47.3328 200.568 47.1003 200.426 47.0041C199.902 46.638 199.122 46.7316 198.694 47.2072C198.579 47.3355 198.769 47.5252 198.884 47.3969V47.3942Z" fill="#231815"/>
<path d="M203.545 46.9988C203.933 46.6915 204.545 46.7049 204.922 47.0255C205.053 47.1378 205.242 46.948 205.111 46.8358C204.617 46.4136 203.866 46.4056 203.358 46.8091C203.302 46.8545 203.31 46.9507 203.358 46.9988C203.414 47.0549 203.492 47.0442 203.548 46.9988H203.545Z" fill="#231815"/>
<path d="M204.12 49.7594C204.415 49.6658 204.58 49.355 204.488 49.0652C204.396 48.7754 204.082 48.6163 203.787 48.7099C203.491 48.8035 203.326 49.1143 203.418 49.4041C203.51 49.6939 203.824 49.853 204.12 49.7594Z" fill="#231815"/>
<path d="M209.647 48.1372C209.837 47.8165 210.037 47.4932 210.315 47.242C210.593 46.9909 210.968 46.8252 211.336 46.8733C212.007 46.9615 212.411 47.7524 212.285 48.4151C212.157 49.0777 211.647 49.6041 211.088 49.9889C210.69 50.2641 210.192 50.4939 209.735 50.339" fill="#FFDAD2"/>
<path d="M209.642 47.8806C209.177 47.4503 208.869 46.8545 208.787 46.2265C208.749 45.9433 208.757 45.6494 208.867 45.3875C208.976 45.1257 209.201 44.8985 209.479 44.8398C209.81 44.7676 210.155 44.944 210.374 45.2005C210.593 45.457 210.708 45.7857 210.802 46.1117C210.842 46.2506 210.879 46.3976 210.842 46.5365C210.794 46.7075 210.644 46.8251 210.513 46.9453C210.217 47.2125 209.973 47.5385 209.805 47.8993" fill="#231815"/>
<path d="M207.987 55.5574C208.244 56.4338 208.501 57.3103 208.755 58.184L209.134 59.4827L209.319 60.1159L209.42 60.4633C209.441 60.5381 209.452 60.6343 209.511 60.6904C209.578 60.7546 209.669 60.7332 209.722 60.6637C209.76 60.6129 209.762 60.5488 209.743 60.4927C209.687 60.3324 209.428 60.4018 209.487 60.5648L209.492 60.5301L209.703 60.5034C209.703 60.5034 209.685 60.4072 209.682 60.3938L209.637 60.2362L209.543 59.9209L209.359 59.2876L208.99 58.021C208.744 57.1767 208.495 56.3323 208.249 55.4879C208.201 55.3223 207.942 55.3944 207.993 55.5601L207.987 55.5574Z" fill="#231815"/>
<path d="M208.193 41.6387C210.249 41.6387 211.916 39.9722 211.916 37.9165C211.916 35.8608 210.249 34.1943 208.193 34.1943C206.137 34.1943 204.47 35.8608 204.47 37.9165C204.47 39.9722 206.137 41.6387 208.193 41.6387Z" fill="#231815"/>
<path d="M209.81 84.3086H203.219V93.3294H209.81V84.3086Z" fill="white"/>
<path d="M209.944 93.4631H203.085V84.175H209.944V93.4631ZM203.353 93.1959H209.677V84.4423H203.353V93.1959Z" fill="#231815"/>
<path d="M207.708 108.488L207.441 108.513L208.158 116.132L208.424 116.107L207.708 108.488Z" fill="#231815"/>
<path d="M154.359 95.9897C154.68 102.847 153.366 109.773 150.555 116.036L140.131 115.538C141.366 110.922 141.209 106.067 141.09 101.288C140.97 96.5131 140.91 91.641 142.319 87.076C143.727 82.5111 146.865 78.2249 151.377 76.6436L156.476 74.573" fill="#E5E161"/>
<path d="M160.052 175.871C161.366 177.367 162.143 179.27 162.57 181.216C162.997 183.158 163.093 185.158 163.19 187.146L143.388 187.154C143.195 185.345 144.043 183.545 145.266 182.2C146.49 180.854 148.066 179.882 149.622 178.937C151.178 177.993 152.763 177.04 154.015 175.721" fill="white"/>
<path d="M143.26 187.294L143.246 187.166C143.067 185.485 143.764 183.636 145.161 182.1C146.433 180.701 148.088 179.697 149.548 178.813L149.613 178.773C151.127 177.857 152.689 176.907 153.912 175.621L154.117 175.818C152.868 177.132 151.286 178.09 149.759 179.017L149.693 179.057C148.251 179.933 146.612 180.923 145.369 182.294C144.063 183.733 143.391 185.445 143.514 187.012L163.036 187.004C162.945 185.098 162.84 183.136 162.425 181.247C161.95 179.08 161.113 177.302 159.938 175.968L160.152 175.781C161.358 177.154 162.214 178.972 162.701 181.187C163.133 183.15 163.23 185.178 163.324 187.14L163.332 187.288L143.252 187.297L143.26 187.294Z" fill="#231815"/>
<path d="M151.4 161.844C151.833 166.836 152.481 171.807 153.346 176.742C153.486 177.541 153.665 178.397 154.262 178.943C154.866 179.492 155.739 179.586 156.553 179.654C157.304 179.717 158.072 179.78 158.806 179.606C159.54 179.433 160.251 178.986 160.544 178.292C160.695 177.931 160.726 177.535 160.755 177.143C161.156 171.762 161.554 166.381 161.955 161.002" fill="#FFDAD2"/>
<path d="M149.562 179.071C149.79 178.357 149.804 177.581 149.591 176.861C149.426 176.307 149.104 175.721 148.532 175.507C147.96 175.294 147.374 175.567 147.042 176.025C146.649 176.563 146.709 177.305 146.99 177.877C147.272 178.448 147.844 178.98 148.421 179.267C148.714 179.415 149.002 179.373 149.281 179.208C149.588 179.026 149.864 178.787 150.165 178.59C150.712 178.235 151.346 177.931 152.012 178.076C152.564 178.195 153.073 178.625 152.985 179.239C152.877 179.981 152.117 180.411 151.417 180.371C150.541 180.32 149.838 179.734 149.212 179.176C149.076 179.054 148.874 179.256 149.01 179.378C149.548 179.856 150.103 180.32 150.8 180.542C151.389 180.726 152.063 180.712 152.575 180.342C153.01 180.027 153.335 179.503 153.264 178.949C153.193 178.394 152.777 178.027 152.285 177.859C151.716 177.663 151.124 177.771 150.589 178.022C150.279 178.167 149.995 178.357 149.716 178.553C149.46 178.735 149.144 179.057 148.814 179.082C148.638 179.094 148.484 178.989 148.342 178.895C148.188 178.792 148.04 178.684 147.901 178.565C147.645 178.343 147.414 178.09 147.255 177.788C146.936 177.188 146.933 176.358 147.528 175.928C147.793 175.738 148.137 175.661 148.447 175.786C148.774 175.92 148.999 176.221 149.15 176.531C149.52 177.288 149.528 178.209 149.278 179C149.224 179.173 149.497 179.25 149.551 179.077L149.562 179.071Z" fill="#231815"/>
<path d="M181.393 175.871C182.707 177.367 183.484 179.27 183.911 181.216C184.337 183.158 184.434 185.158 184.531 187.146L164.729 187.154C164.536 185.345 165.384 183.545 166.607 182.2C167.83 180.854 169.407 179.882 170.963 178.937C172.519 177.993 174.104 177.04 175.356 175.721" fill="white"/>
<path d="M164.601 187.294L164.587 187.166C164.408 185.485 165.105 183.636 166.502 182.1C167.774 180.701 169.429 179.697 170.889 178.813L170.954 178.773C172.465 177.857 174.03 176.907 175.253 175.621L175.458 175.818C174.209 177.132 172.63 178.09 171.102 179.017L171.037 179.057C169.594 179.933 167.956 180.923 166.712 182.294C165.407 183.733 164.735 185.445 164.857 187.012L184.38 187.004C184.289 185.098 184.184 183.136 183.771 181.247C183.296 179.08 182.457 177.302 181.285 175.968L181.498 175.781C182.704 177.154 183.561 178.972 184.047 181.187C184.48 183.15 184.577 185.178 184.67 187.14L184.679 187.288L164.601 187.297V187.294Z" fill="#231815"/>
<path d="M172.738 161.844C173.171 166.836 173.819 171.807 174.684 176.742C174.824 177.541 175.003 178.397 175.6 178.943C176.204 179.492 177.077 179.586 177.891 179.654C178.642 179.717 179.41 179.78 180.144 179.606C180.878 179.433 181.589 178.986 181.882 178.292C182.033 177.931 182.064 177.535 182.093 177.143C182.494 171.762 182.892 166.381 183.293 161.002" fill="#FFDAD2"/>
<path d="M170.903 179.071C171.131 178.357 171.145 177.581 170.932 176.861C170.767 176.307 170.445 175.721 169.873 175.507C169.301 175.294 168.715 175.567 168.382 176.025C167.99 176.563 168.049 177.305 168.331 177.877C168.613 178.448 169.185 178.98 169.762 179.267C170.055 179.415 170.343 179.373 170.621 179.208C170.929 179.026 171.205 178.787 171.506 178.59C172.052 178.235 172.687 177.931 173.353 178.076C173.905 178.195 174.414 178.625 174.326 179.239C174.218 179.981 173.458 180.411 172.758 180.371C171.882 180.32 171.179 179.734 170.553 179.176C170.417 179.054 170.215 179.256 170.351 179.378C170.889 179.856 171.444 180.32 172.141 180.542C172.73 180.726 173.404 180.712 173.916 180.342C174.351 180.027 174.676 179.503 174.605 178.949C174.533 178.394 174.118 178.027 173.626 177.859C173.057 177.663 172.465 177.771 171.93 178.022C171.62 178.167 171.336 178.357 171.057 178.553C170.801 178.735 170.485 179.057 170.155 179.082C169.978 179.094 169.825 178.989 169.683 178.895C169.529 178.792 169.381 178.684 169.242 178.565C168.986 178.343 168.755 178.09 168.596 177.788C168.277 177.188 168.274 176.358 168.869 175.928C169.133 175.738 169.478 175.661 169.788 175.786C170.115 175.92 170.34 176.221 170.491 176.531C170.86 177.288 170.869 178.209 170.619 179C170.565 179.173 170.838 179.25 170.892 179.077L170.903 179.071Z" fill="#231815"/>
<path d="M173.008 164.671L183.051 164.281L182.878 166.224L173.23 166.704L173.008 164.671Z" fill="#FFA18F"/>
<path d="M161.648 165.112L151.753 165.493L151.992 167.572L161.492 167.228L161.648 165.112Z" fill="#FFA18F"/>
<path d="M155.258 112.668C152.88 118.908 150.501 125.151 148.123 131.391C146.999 134.338 145.872 137.298 145.19 140.379C143.346 148.704 144.854 157.384 146.788 165.689L188.656 164.062C186.528 159.284 185.1 154.196 184.434 149.008C184.241 147.515 184.113 146.005 184.264 144.506C184.602 141.115 186.332 138.055 187.618 134.901C191.046 126.488 191.342 116.84 188.437 108.234C187.814 106.391 187.003 104.525 185.532 103.251" fill="#8760A5"/>
<g opacity="0.4">
<mask id="mask0_2447_23081" style="mask-type:luminance" maskUnits="userSpaceOnUse" x="144" y="103" width="47" height="63">
<path d="M155.258 112.668C152.88 118.908 150.501 125.151 148.123 131.391C146.999 134.338 145.872 137.298 145.19 140.379C143.346 148.704 144.854 157.384 146.788 165.689L188.656 164.062C186.528 159.284 185.1 154.196 184.434 149.008C184.241 147.515 184.113 146.005 184.264 144.506C184.602 141.115 186.332 138.055 187.618 134.901C191.046 126.488 191.342 116.84 188.437 108.234C187.814 106.391 187.003 104.525 185.532 103.251" fill="white"/>
</mask>
<g mask="url(#mask0_2447_23081)">
<path d="M204.017 158.138C199.288 158.437 194.56 158.735 189.831 159.034C189.689 157.324 189.55 155.618 189.413 153.909C193.766 153.687 198.119 153.468 202.472 153.246C202.691 153.235 202.694 152.89 202.472 152.902C198.11 153.124 193.749 153.345 189.385 153.564C189.194 151.167 189.009 148.769 188.833 146.371C192.392 146.152 195.954 145.922 199.51 145.678C199.729 145.663 199.732 145.319 199.51 145.333C195.943 145.578 192.375 145.808 188.807 146.03C188.696 144.534 188.585 143.038 188.483 141.542C188.406 140.421 188.332 139.298 188.261 138.177C191.595 137.865 194.93 137.535 198.261 137.182C198.477 137.159 198.48 136.815 198.261 136.838C194.924 137.193 191.581 137.523 188.238 137.839C188.093 135.561 187.959 133.283 187.837 131.002C191.689 130.737 195.541 130.47 199.394 130.197C199.613 130.182 199.616 129.838 199.394 129.852C195.536 130.126 191.678 130.396 187.82 130.66C187.766 129.659 187.715 128.658 187.669 127.654C187.604 126.294 187.55 124.938 187.498 123.578C187.82 123.55 188.144 123.521 188.466 123.493C193.043 123.083 197.624 122.674 202.202 122.261C202.421 122.241 202.421 121.897 202.202 121.917C197.297 122.355 192.392 122.796 187.487 123.234C187.402 120.959 187.331 118.683 187.262 116.408C187.584 116.382 187.908 116.354 188.23 116.326C192.793 115.95 197.357 115.589 201.92 115.236C202.139 115.219 202.142 114.875 201.92 114.892C197.029 115.267 192.142 115.663 187.251 116.067C187.228 115.262 187.203 114.46 187.18 113.655C187.131 112.085 187.074 110.512 187.001 108.942C187.774 108.848 188.548 108.754 189.319 108.66C193.476 108.151 197.63 107.634 201.786 107.108C202.003 107.079 202.005 106.738 201.786 106.763C196.853 107.386 191.92 107.995 186.983 108.598C186.813 105.114 186.548 101.638 186.059 98.1824C186.028 97.9634 185.697 98.0573 185.729 98.2735C186.215 101.712 186.48 105.173 186.645 108.641C184.776 108.868 182.909 109.098 181.04 109.323C180.898 105.95 180.756 102.58 180.613 99.2064C180.605 98.9874 180.261 98.9845 180.269 99.2064C180.411 102.594 180.556 105.978 180.699 109.366C180.352 109.408 180.005 109.451 179.657 109.494C177.899 109.704 176.138 109.912 174.38 110.119C174.294 107.597 174.186 105.077 174.053 102.557C174.041 102.338 173.697 102.335 173.708 102.557C173.842 105.091 173.947 107.625 174.036 110.159C171.939 110.407 169.842 110.657 167.745 110.902C167.614 108.808 167.421 106.718 167.122 104.639C167.091 104.42 166.761 104.514 166.792 104.73C167.085 106.795 167.281 108.865 167.409 110.941C165.057 111.217 162.701 111.488 160.348 111.758C160.322 109.542 160.302 107.327 160.294 105.114C160.294 104.892 159.95 104.892 159.95 105.114C159.958 107.344 159.975 109.571 160.001 111.798C159.173 111.891 158.342 111.991 157.514 112.085C156.49 112.201 155.463 112.315 154.439 112.429C154.371 110.361 154.305 108.294 154.237 106.226C154.228 106.007 153.887 106.004 153.893 106.226C153.961 108.305 154.026 110.387 154.095 112.466C151.073 112.807 148.052 113.149 145.03 113.484C144.814 113.507 144.811 113.851 145.03 113.828C148.057 113.493 151.082 113.154 154.106 112.813C154.171 114.872 154.24 116.931 154.305 118.993C154.029 119.019 153.75 119.045 153.474 119.07C151.892 119.221 150.308 119.38 148.726 119.537C148.652 117.958 148.581 116.38 148.515 114.801C148.507 114.582 148.163 114.579 148.171 114.801C148.239 116.391 148.311 117.981 148.382 119.571C145.522 119.849 142.663 120.122 139.804 120.41C139.588 120.433 139.585 120.774 139.804 120.754C142.666 120.467 145.531 120.188 148.396 119.909C148.501 122.176 148.615 124.443 148.732 126.71C145.616 126.988 142.498 127.267 139.383 127.546C139.164 127.566 139.164 127.91 139.383 127.89C142.507 127.611 145.628 127.33 148.752 127.051C148.86 129.104 148.971 131.155 149.09 133.206C145.904 133.405 142.72 133.604 139.534 133.8C139.314 133.814 139.312 134.156 139.534 134.144C142.726 133.948 145.918 133.749 149.11 133.55C149.161 134.423 149.21 135.296 149.261 136.169C149.349 137.631 149.44 139.093 149.534 140.555C145.875 140.726 142.216 140.874 138.558 140.996C138.339 141.005 138.336 141.346 138.558 141.34C142.225 141.221 145.889 141.073 149.554 140.902C149.705 143.243 149.861 145.584 150.023 147.924C145.921 148.072 141.818 148.203 137.716 148.317C137.496 148.323 137.494 148.667 137.716 148.661C141.827 148.547 145.938 148.416 150.046 148.269C150.217 150.692 150.393 153.115 150.578 155.535C146.757 155.729 142.936 155.922 139.115 156.116C138.896 156.127 138.893 156.471 139.115 156.46C142.945 156.266 146.774 156.07 150.604 155.877C150.643 156.386 150.68 156.898 150.72 157.407C150.826 158.772 150.939 160.135 151.047 161.5C147.864 161.713 144.675 161.892 141.491 161.79C141.269 161.784 141.269 162.125 141.491 162.134C144.686 162.236 147.884 162.043 151.073 161.832C151.275 164.327 151.486 166.821 151.705 169.316C151.725 169.535 152.066 169.535 152.049 169.316C151.83 166.816 151.619 164.313 151.417 161.81C152.171 161.759 152.925 161.71 153.676 161.662C154.51 161.608 155.346 161.557 156.18 161.503C156.433 165.129 156.726 168.752 157.065 172.373C157.085 172.592 157.429 172.592 157.409 172.373C157.068 168.747 156.777 165.115 156.524 161.483C158.339 161.369 160.155 161.252 161.967 161.139C162.246 165.217 162.544 169.296 162.88 173.369C162.897 173.588 163.241 173.588 163.224 173.369C162.889 169.287 162.584 165.203 162.305 161.116C163.497 161.042 164.692 160.965 165.884 160.891C166.946 160.823 168.004 160.757 169.065 160.689C169.367 164.631 169.668 168.573 169.967 172.515C169.984 172.734 170.328 172.737 170.311 172.515C170.01 168.568 169.697 164.617 169.387 160.669C171.444 160.538 173.504 160.41 175.561 160.28C175.834 163.9 176.181 167.515 176.625 171.119C176.65 171.335 176.994 171.338 176.969 171.119C176.522 167.507 176.178 163.886 175.905 160.26C178.212 160.115 180.517 159.97 182.824 159.822C182.946 162.748 183.071 165.678 183.194 168.605C183.202 168.824 183.547 168.826 183.538 168.605C183.413 165.669 183.291 162.734 183.165 159.799C185.279 159.665 187.393 159.532 189.507 159.398C189.789 162.788 190.076 166.178 190.366 169.566C190.386 169.785 190.728 169.785 190.71 169.566C190.42 166.17 190.133 162.774 189.851 159.375C190.002 159.367 190.153 159.355 190.306 159.347C194.876 159.059 199.442 158.769 204.011 158.482C204.23 158.468 204.233 158.127 204.011 158.138H204.017ZM189.04 153.584C187.003 153.687 184.963 153.792 182.926 153.894C182.827 151.511 182.724 149.128 182.625 146.744C183.746 146.679 184.864 146.616 185.985 146.551C186.818 146.499 187.655 146.445 188.488 146.394C188.665 148.792 188.85 151.187 189.04 153.584ZM155.671 146.554C155.577 144.571 155.494 142.592 155.412 140.609C157.21 140.512 159.005 140.41 160.803 140.302C160.908 142.697 161.025 145.089 161.15 147.484C159.344 147.56 157.534 147.637 155.728 147.708C155.708 147.324 155.691 146.94 155.671 146.556V146.554ZM154.718 120.822C154.701 120.319 154.683 119.815 154.669 119.312C156.484 119.138 158.3 118.971 160.118 118.803C160.163 121.095 160.217 123.39 160.28 125.683C158.484 125.845 156.689 126.004 154.894 126.166C154.834 124.386 154.777 122.605 154.718 120.825V120.822ZM181.421 126.36C181.487 127.935 181.555 129.511 181.62 131.087C179.757 131.212 177.893 131.343 176.033 131.468C175.632 131.494 175.23 131.522 174.829 131.548C174.792 129.275 174.758 127.003 174.724 124.73C176.926 124.534 179.128 124.335 181.33 124.138C181.362 124.878 181.393 125.62 181.424 126.36H181.421ZM161.446 146.664C161.335 144.537 161.236 142.41 161.142 140.282C161.406 140.265 161.668 140.254 161.933 140.237C163.845 140.12 165.754 139.995 167.665 139.864C167.768 142.301 167.907 144.736 168.069 147.171C165.876 147.276 163.685 147.375 161.492 147.469C161.477 147.202 161.46 146.935 161.446 146.667V146.664ZM174.451 129.375C174.462 130.106 174.474 130.837 174.485 131.57C172.266 131.718 170.047 131.863 167.828 132.011C167.833 129.787 167.867 127.566 167.904 125.342C170.061 125.148 172.22 124.955 174.377 124.761C174.403 126.3 174.425 127.839 174.448 129.375H174.451ZM167.825 132.512C167.825 132.458 167.825 132.407 167.825 132.353C170.047 132.207 172.269 132.062 174.491 131.914C174.528 134.281 174.57 136.647 174.625 139.014C172.408 139.184 170.192 139.344 167.973 139.497C167.879 137.171 167.825 134.841 167.825 132.512ZM167.489 132.031C165.27 132.176 163.051 132.321 160.832 132.463C160.755 130.305 160.687 128.149 160.627 125.99C161.748 125.891 162.869 125.788 163.99 125.689L167.56 125.37C167.529 127.261 167.498 129.153 167.483 131.044C167.483 131.374 167.486 131.704 167.486 132.031H167.489ZM162.914 132.674C164.439 132.574 165.964 132.472 167.492 132.372C167.498 134.756 167.555 137.136 167.651 139.517C165.478 139.665 163.301 139.807 161.128 139.938C161.022 137.56 160.931 135.185 160.846 132.808C161.537 132.762 162.226 132.719 162.917 132.674H162.914ZM168.311 145.828C168.18 143.832 168.072 141.838 167.99 139.838C170.203 139.685 172.42 139.523 174.63 139.349C174.687 141.844 174.758 144.335 174.846 146.827C172.698 146.94 170.55 147.046 168.402 147.148C168.374 146.707 168.34 146.266 168.311 145.823V145.828ZM175.105 144.403C175.054 142.711 175.011 141.016 174.974 139.324C177.299 139.144 179.62 138.951 181.945 138.752C182.053 141.309 182.161 143.866 182.269 146.423C179.982 146.554 177.691 146.682 175.404 146.801C175.333 146.804 175.262 146.807 175.191 146.812C175.162 146.01 175.134 145.208 175.108 144.403H175.105ZM174.966 138.985C174.915 136.619 174.872 134.255 174.832 131.889C177.1 131.738 179.367 131.582 181.632 131.428C181.731 133.755 181.828 136.084 181.928 138.411C179.609 138.61 177.287 138.803 174.966 138.985ZM177.603 124.127C176.642 124.212 175.677 124.301 174.716 124.386C174.679 122.119 174.639 119.852 174.59 117.585C174.59 117.554 174.59 117.523 174.59 117.492C176.736 117.304 178.881 117.122 181.026 116.94C181.123 119.224 181.219 121.508 181.316 123.792C180.078 123.902 178.844 124.013 177.606 124.124L177.603 124.127ZM174.374 124.417C172.22 124.611 170.067 124.804 167.91 124.997C167.941 123.098 167.97 121.198 167.973 119.298C167.973 118.894 167.973 118.49 167.97 118.083C170.061 117.896 172.152 117.708 174.243 117.526C174.294 119.824 174.334 122.122 174.371 124.417H174.374ZM167.566 125.026C165.25 125.234 162.934 125.441 160.618 125.649C160.567 123.786 160.519 121.923 160.479 120.06C160.47 119.63 160.465 119.198 160.456 118.769C161.66 118.658 162.866 118.541 164.069 118.43C165.253 118.322 166.439 118.22 167.623 118.115C167.631 120.418 167.6 122.722 167.563 125.029L167.566 125.026ZM160.288 126.021C160.342 127.972 160.399 129.924 160.467 131.872C160.473 132.077 160.485 132.281 160.49 132.486C158.701 132.603 156.908 132.717 155.119 132.83C155.045 130.723 154.974 128.612 154.903 126.505C156.698 126.343 158.493 126.183 160.285 126.021H160.288ZM160.504 132.827C160.59 135.205 160.684 137.58 160.789 139.958C158.994 140.066 157.196 140.168 155.4 140.265C155.304 137.902 155.216 135.538 155.133 133.172C156.923 133.058 158.715 132.944 160.504 132.827ZM161.17 147.828C161.295 150.211 161.432 152.595 161.577 154.978C159.762 155.069 157.947 155.163 156.132 155.254C155.989 152.853 155.861 150.453 155.745 148.052C157.554 147.981 159.361 147.905 161.17 147.828ZM161.509 147.813C161.625 147.808 161.745 147.805 161.862 147.799C163.938 147.708 166.013 147.614 168.089 147.515C168.249 149.884 168.428 152.253 168.61 154.622C166.38 154.736 164.149 154.85 161.918 154.961C161.773 152.58 161.637 150.197 161.512 147.813H161.509ZM168.428 147.495C170.573 147.393 172.715 147.284 174.861 147.171C174.946 149.543 175.054 151.915 175.185 154.284C173.102 154.389 171.02 154.494 168.937 154.6C168.761 152.231 168.59 149.861 168.431 147.492L168.428 147.495ZM175.199 147.154C177.561 147.028 179.922 146.898 182.281 146.764C182.374 148.965 182.465 151.164 182.559 153.365C182.568 153.547 182.574 153.729 182.582 153.911C180.949 153.994 179.319 154.076 177.686 154.159C176.963 154.196 176.24 154.233 175.518 154.27C175.387 151.898 175.282 149.526 175.196 147.154H175.199ZM188.463 146.056C186.511 146.175 184.562 146.292 182.611 146.403C182.542 144.753 182.471 143.104 182.403 141.454C182.363 140.544 182.326 139.631 182.286 138.721C183.239 138.638 184.192 138.559 185.143 138.473C186.07 138.391 186.995 138.297 187.922 138.212C188.09 140.825 188.269 143.439 188.463 146.053V146.056ZM187.9 137.876C186.025 138.052 184.147 138.22 182.269 138.382C182.17 136.056 182.073 133.732 181.973 131.405C183.41 131.309 184.847 131.212 186.281 131.112C186.685 131.084 187.092 131.056 187.496 131.027C187.618 133.308 187.752 135.592 187.897 137.873L187.9 137.876ZM187.257 126.101C187.325 127.631 187.402 129.161 187.481 130.689C185.641 130.817 183.803 130.939 181.962 131.064C181.865 128.746 181.766 126.425 181.669 124.107C183.498 123.942 185.328 123.78 187.16 123.615C187.191 124.443 187.222 125.273 187.259 126.101H187.257ZM187.146 123.274C185.316 123.439 183.484 123.601 181.655 123.766C181.558 121.482 181.461 119.198 181.364 116.914C183.217 116.758 185.072 116.599 186.924 116.445C186.992 118.72 187.06 120.999 187.143 123.274H187.146ZM186.665 108.993C186.716 110.083 186.759 111.169 186.793 112.258C186.835 113.541 186.875 114.824 186.912 116.107C185.057 116.26 183.202 116.417 181.347 116.573C181.316 115.865 181.288 115.157 181.256 114.451C181.188 112.858 181.123 111.266 181.054 109.673C182.924 109.448 184.793 109.221 186.662 108.993H186.665ZM180.719 109.713C180.815 112.008 180.912 114.303 181.009 116.599C179.882 116.695 178.756 116.786 177.632 116.883C176.616 116.971 175.598 117.065 174.582 117.153C174.531 114.923 174.471 112.696 174.397 110.469C176.505 110.219 178.613 109.969 180.719 109.716V109.713ZM174.053 110.509C174.127 112.733 174.186 114.957 174.238 117.184C172.149 117.366 170.058 117.551 167.97 117.739C167.956 115.575 167.899 113.41 167.771 111.251C169.865 111.007 171.959 110.757 174.053 110.509ZM167.188 111.32C167.27 111.311 167.353 111.3 167.435 111.291C167.56 113.447 167.614 115.609 167.626 117.77C165.236 117.987 162.843 118.206 160.453 118.427C160.413 116.32 160.376 114.215 160.351 112.108C162.63 111.846 164.906 111.587 167.185 111.32H167.188ZM154.456 112.782C156.308 112.571 158.16 112.361 160.012 112.147C160.038 114.252 160.069 116.357 160.109 118.461C158.291 118.629 156.476 118.797 154.658 118.968C154.59 116.906 154.524 114.844 154.456 112.782ZM148.746 119.881C150.604 119.702 152.461 119.52 154.322 119.343C154.396 121.627 154.476 123.908 154.553 126.192C154.077 126.235 153.602 126.277 153.127 126.32C151.779 126.439 150.43 126.562 149.079 126.681C148.962 124.414 148.851 122.148 148.746 119.878V119.881ZM149.099 127.025C150.919 126.863 152.743 126.698 154.564 126.536C154.627 128.396 154.686 130.256 154.752 132.116C154.76 132.361 154.769 132.608 154.78 132.853C154.075 132.899 153.369 132.944 152.661 132.99C151.588 133.058 150.513 133.123 149.44 133.189C149.323 131.135 149.207 129.079 149.101 127.025H149.099ZM149.457 133.533C151.235 133.422 153.013 133.308 154.792 133.194C154.874 135.558 154.965 137.921 155.062 140.282C153.952 140.342 152.846 140.402 151.736 140.456C151.119 140.487 150.501 140.51 149.884 140.538C149.736 138.203 149.594 135.865 149.457 133.53V133.533ZM149.904 140.885C151.628 140.805 153.349 140.717 155.073 140.626C155.17 142.993 155.275 145.356 155.389 147.72C154.018 147.774 152.644 147.828 151.272 147.879C150.971 147.89 150.672 147.899 150.37 147.91C150.208 145.569 150.052 143.229 149.904 140.885ZM150.396 148.254C152.066 148.195 153.736 148.132 155.406 148.067C155.523 150.47 155.654 152.87 155.793 155.271C154.871 155.316 153.952 155.365 153.03 155.41C152.331 155.447 151.628 155.481 150.928 155.518C150.743 153.098 150.564 150.678 150.393 148.254H150.396ZM155.179 161.218C153.921 161.298 152.658 161.386 151.397 161.474C151.247 159.603 151.099 157.731 150.954 155.86C152.572 155.777 154.194 155.695 155.813 155.612C155.858 156.352 155.895 157.094 155.941 157.834C156.012 158.943 156.086 160.049 156.163 161.156C155.836 161.175 155.506 161.198 155.179 161.218ZM156.51 161.136C156.382 159.29 156.262 157.444 156.152 155.595C157.967 155.504 159.782 155.41 161.6 155.319C161.665 156.366 161.725 157.415 161.793 158.462C161.844 159.239 161.901 160.015 161.955 160.792C160.14 160.905 158.325 161.022 156.513 161.136H156.51ZM162.291 160.772C162.169 158.948 162.052 157.125 161.941 155.302C162.598 155.268 163.253 155.237 163.91 155.203C165.486 155.123 167.062 155.043 168.638 154.964C168.704 155.826 168.772 156.687 168.838 157.549C168.909 158.482 168.98 159.415 169.051 160.345C166.798 160.487 164.544 160.629 162.294 160.772H162.291ZM169.37 160.322C169.23 158.53 169.094 156.736 168.96 154.944C171.04 154.839 173.119 154.733 175.202 154.628C175.23 155.14 175.256 155.652 175.287 156.164C175.364 157.421 175.45 158.678 175.543 159.935C173.486 160.066 171.429 160.194 169.373 160.325L169.37 160.322ZM179.598 159.677C178.36 159.753 177.125 159.833 175.888 159.91C175.757 158.144 175.64 156.377 175.541 154.608C177.893 154.489 180.246 154.369 182.599 154.25C182.673 155.991 182.747 157.731 182.818 159.472C181.746 159.54 180.67 159.608 179.598 159.674V159.677ZM183.16 159.452C183.086 157.714 183.012 155.973 182.941 154.236C184.816 154.142 186.688 154.045 188.562 153.951C188.73 153.943 188.898 153.934 189.066 153.926C189.203 155.635 189.345 157.344 189.487 159.054C187.379 159.187 185.268 159.321 183.16 159.452Z" fill="white"/>
</g>
</g>
<path d="M153.819 125.529C153.605 120.08 152.496 116.604 150.513 115.202C149.417 114.429 148.404 114.528 148.023 114.608C144.49 114.969 141.827 116.405 140.108 118.877C138.734 120.854 138.165 123.223 138 125.427H140.222C140.376 123.595 140.845 121.684 141.929 120.131C143.272 118.203 145.417 117.082 148.31 116.801L148.376 116.821L148.507 116.766C148.601 116.755 148.911 116.749 149.312 117.065C150.069 117.662 151.375 119.568 151.611 125.629L155.361 190.843L157.568 190.712L153.821 125.529H153.819Z" fill="#231815"/>
<path d="M145.861 112.591C144.746 112.134 143.477 112.597 142.401 113.143C141.278 113.715 140.165 114.42 139.505 115.492C138.703 116.801 138.706 118.482 139.161 119.949C139.616 121.417 140.475 122.72 141.323 123.999C141.519 124.295 141.727 124.602 142.037 124.77C142.347 124.938 142.794 124.915 142.993 124.622C143.133 124.418 143.118 124.15 143.096 123.906C143.01 122.993 142.885 122.082 142.723 121.178C142.942 122.04 143.278 122.87 143.719 123.641C143.929 124.011 144.234 124.406 144.658 124.412C145.235 124.418 145.534 123.726 145.622 123.155C145.781 122.125 145.756 121.067 145.551 120.043C145.642 121.039 145.941 122.017 146.424 122.893C146.632 123.271 147.05 123.684 147.429 123.479C147.702 123.331 147.742 122.958 147.742 122.648C147.756 119.506 147.531 116.36 147.064 113.251" fill="#FFDAD2"/>
<path d="M145.898 112.452C144.447 111.877 142.837 112.694 141.596 113.419C140.356 114.144 139.255 115.168 138.879 116.621C138.504 118.075 138.805 119.616 139.4 120.976C139.724 121.718 140.137 122.421 140.572 123.103C140.788 123.445 141.01 123.78 141.235 124.116C141.423 124.397 141.628 124.685 141.921 124.864C142.194 125.029 142.558 125.074 142.851 124.929C143.201 124.756 143.275 124.378 143.252 124.019C143.189 123.055 143.036 122.091 142.865 121.141L142.592 121.218C142.763 121.88 142.999 122.526 143.298 123.14C143.531 123.618 143.807 124.247 144.325 124.477C144.777 124.679 145.218 124.446 145.465 124.053C145.767 123.573 145.815 122.964 145.852 122.412C145.906 121.607 145.852 120.8 145.696 120.006C145.665 119.85 145.4 119.884 145.417 120.043C145.511 121.024 145.79 121.98 146.251 122.853C146.43 123.192 146.7 123.578 147.101 123.661C147.477 123.738 147.764 123.459 147.847 123.115C147.955 122.677 147.895 122.185 147.892 121.738C147.887 121.192 147.875 120.643 147.855 120.097C147.816 119.016 147.747 117.933 147.651 116.855C147.54 115.635 147.394 114.42 147.212 113.211C147.187 113.032 146.911 113.109 146.939 113.288C147.229 115.234 147.429 117.193 147.531 119.156C147.579 120.108 147.608 121.064 147.614 122.02C147.614 122.244 147.616 122.472 147.614 122.697C147.611 122.87 147.602 123.069 147.508 123.223C147.249 123.649 146.777 123.174 146.615 122.916C146.086 122.074 145.801 121.027 145.707 120.046L145.429 120.083C145.548 120.694 145.605 121.314 145.596 121.937C145.588 122.475 145.565 123.055 145.389 123.567C145.261 123.934 144.97 124.386 144.515 124.247C144.06 124.107 143.778 123.459 143.579 123.055C143.278 122.444 143.044 121.801 142.874 121.141C142.828 120.962 142.566 121.039 142.601 121.218C142.743 122.006 142.854 122.802 142.936 123.598C142.968 123.897 143.087 124.375 142.834 124.608C142.62 124.804 142.276 124.747 142.051 124.605C141.761 124.417 141.576 124.105 141.389 123.823C141.187 123.519 140.987 123.214 140.794 122.907C140.407 122.296 140.037 121.667 139.736 121.007C139.158 119.75 138.828 118.328 139.107 116.951C139.241 116.286 139.519 115.657 139.949 115.131C140.379 114.605 140.879 114.21 141.431 113.86C142.071 113.453 142.766 113.083 143.48 112.827C144.239 112.554 145.064 112.423 145.835 112.728C146.006 112.796 146.08 112.52 145.912 112.455L145.898 112.452Z" fill="#231815"/>
<path d="M147.508 111.653C146.885 111.837 146.259 112.022 145.659 112.27C143.767 113.052 142.12 114.502 141.292 116.377C140.467 118.251 140.535 120.541 141.645 122.261C142.012 122.83 142.811 123.359 143.298 122.89C143.539 122.66 143.562 122.287 143.571 121.954C143.613 120.219 143.653 118.481 143.696 116.747C143.713 117.981 143.813 119.212 144 120.433C144.171 121.559 144.561 122.853 145.631 123.243C146.609 121.442 146.521 119.272 146.404 117.224C146.231 118.757 146.245 120.313 146.45 121.84C146.518 122.352 146.734 122.984 147.249 123.021C147.742 123.058 148.049 122.515 148.222 122.051C148.8 120.504 149.258 118.914 149.588 117.295C149.139 118.655 148.919 120.088 148.942 121.522C148.951 122.131 149.17 122.913 149.776 122.947C150.186 122.97 150.51 122.608 150.706 122.247C151.116 121.499 151.264 120.626 151.688 119.884C152.339 118.746 153.548 118.058 154.413 117.071C155.346 116.007 155.853 114.579 155.799 113.166" fill="#FFDAD2"/>
<path d="M147.471 111.516C146.672 111.752 145.869 111.994 145.118 112.358C144.478 112.668 143.875 113.055 143.326 113.507C142.242 114.403 141.377 115.58 140.933 116.92C140.489 118.26 140.469 119.861 140.979 121.235C141.218 121.875 141.545 122.546 142.12 122.947C142.359 123.115 142.654 123.24 142.95 123.203C143.246 123.166 143.494 122.95 143.605 122.668C143.761 122.273 143.716 121.801 143.727 121.385C143.738 120.871 143.753 120.353 143.764 119.838C143.79 118.806 143.812 117.773 143.838 116.741H143.554C143.571 117.896 143.659 119.045 143.821 120.188C143.938 121.013 144.103 121.895 144.595 122.588C144.848 122.947 145.178 123.217 145.591 123.373C145.647 123.396 145.724 123.359 145.75 123.308C146.751 121.445 146.657 119.266 146.544 117.219C146.532 117.034 146.279 117.039 146.259 117.219C146.151 118.191 146.114 119.173 146.157 120.151C146.177 120.646 146.219 121.141 146.279 121.63C146.322 121.968 146.37 122.307 146.527 122.617C146.655 122.876 146.871 123.1 147.167 123.149C147.485 123.203 147.773 123.041 147.969 122.802C148.202 122.52 148.328 122.173 148.45 121.832C148.612 121.385 148.766 120.936 148.908 120.484C149.232 119.449 149.505 118.396 149.724 117.332C149.761 117.153 149.508 117.082 149.451 117.256C149.01 118.607 148.783 120.029 148.8 121.451C148.806 121.912 148.879 122.432 149.192 122.793C149.505 123.154 150.035 123.154 150.404 122.853C150.871 122.472 151.076 121.823 151.269 121.274C151.488 120.654 151.702 120.04 152.109 119.511C152.831 118.57 153.881 117.95 154.632 117.034C155.52 115.95 155.989 114.562 155.947 113.163C155.941 112.981 155.656 112.981 155.662 113.163C155.699 114.34 155.358 115.512 154.692 116.485C154.06 117.406 153.124 118.026 152.35 118.811C151.964 119.204 151.631 119.642 151.4 120.143C151.147 120.691 150.996 121.283 150.754 121.835C150.578 122.239 150.2 122.975 149.636 122.768C149.227 122.617 149.118 122.028 149.093 121.647C149.047 120.942 149.113 120.211 149.215 119.511C149.323 118.769 149.497 118.038 149.73 117.327L149.457 117.25C149.283 118.092 149.079 118.925 148.837 119.753C148.595 120.581 148.367 121.385 148.032 122.153C147.915 122.421 147.739 122.756 147.44 122.85C147.141 122.944 146.902 122.719 146.777 122.469C146.626 122.165 146.592 121.821 146.552 121.488C146.501 121.053 146.467 120.617 146.447 120.179C146.401 119.19 146.438 118.197 146.547 117.213H146.262C146.373 119.204 146.481 121.343 145.508 123.16L145.667 123.095C144.723 122.736 144.373 121.647 144.199 120.745C143.946 119.431 143.858 118.072 143.838 116.735C143.838 116.553 143.559 116.553 143.554 116.735C143.514 118.425 143.474 120.114 143.431 121.804C143.423 122.125 143.448 122.537 143.198 122.779C142.976 122.995 142.654 122.921 142.41 122.788C141.827 122.466 141.499 121.804 141.272 121.206C140.78 119.926 140.757 118.49 141.147 117.182C141.536 115.873 142.296 114.793 143.278 113.917C143.824 113.427 144.435 113.015 145.09 112.682C145.869 112.284 146.709 112.031 147.548 111.783C147.724 111.732 147.648 111.456 147.471 111.51V111.516Z" fill="#231815"/>
<path d="M146.8 87.2949C146.097 90.9668 145.403 94.8349 146.584 98.3844C147.096 99.926 147.943 101.334 148.8 102.716C151.133 106.488 153.645 110.39 154.009 114.807L186.298 104.007C183.939 97.7957 180.662 91.9708 177.031 86.4047C174.863 83.0799 172.513 79.7834 169.37 77.3574C166.226 74.9313 162.143 73.4523 158.248 74.2202" fill="#E5E161"/>
<path d="M146.663 87.2553C145.935 91.0637 145.187 95.1565 146.618 98.8994C147.303 100.694 148.382 102.307 149.386 103.934C150.39 105.56 151.326 107.119 152.123 108.806C153.016 110.697 153.688 112.711 153.867 114.804C153.875 114.889 153.952 114.972 154.046 114.941C154.333 114.844 154.621 114.747 154.908 114.653L157.255 113.868C158.419 113.479 159.58 113.092 160.743 112.702L164.965 111.292L169.626 109.733L174.292 108.171L178.679 106.704C179.908 106.291 181.14 105.882 182.369 105.469L185.023 104.582C185.441 104.443 185.862 104.306 186.281 104.161C186.298 104.155 186.318 104.15 186.335 104.144C186.508 104.087 186.434 103.811 186.258 103.871C185.971 103.968 185.683 104.064 185.396 104.158C184.613 104.42 183.831 104.682 183.049 104.943C181.885 105.333 180.724 105.72 179.561 106.109L175.339 107.52L170.678 109.079L166.012 110.64L161.625 112.108C160.396 112.52 159.164 112.93 157.935 113.342L155.281 114.23L154.459 114.505C154.319 114.554 154.16 114.588 154.026 114.651C154.009 114.659 153.989 114.662 153.972 114.668L154.151 114.804C153.838 111.104 152.052 107.77 150.16 104.65C149.175 103.026 148.089 101.445 147.278 99.7242C146.427 97.9182 146.077 95.9727 146.088 93.9818C146.103 91.7406 146.515 89.525 146.936 87.3321C146.97 87.1529 146.697 87.0761 146.663 87.2553Z" fill="#231815"/>
<path d="M179.399 91.3365C179.871 94.0527 179.208 96.8713 178.024 99.3628C176.004 103.609 172.531 107.028 168.641 109.67C164.752 112.312 160.436 114.246 156.143 116.163L144.99 109.835C152.402 105.04 159.93 100.142 165.637 93.4043C166.203 92.7359 166.761 92.0305 167.034 91.1972C167.293 90.4065 167.279 89.5561 167.239 88.7284C167.108 86.0208 166.724 83.3245 166.095 80.6851" fill="#E5E161"/>
<path d="M157.779 71.6035C158.607 73.1337 159.292 74.8032 159.571 76.4756C159.847 78.148 159.677 79.8289 158.928 80.867C158.595 81.3278 158.16 81.6492 157.696 81.8995C156.937 82.309 156.041 82.528 155.107 82.1185C154.268 81.7516 153.494 80.9068 152.894 79.9484C152.296 78.9899 151.853 77.9205 151.432 76.8539C151.19 76.2481 150.948 75.5882 151.013 75.0165C151.047 74.7236 151.161 74.4847 151.286 74.2657C151.787 73.3868 152.493 72.7355 153.323 72.3885L157.779 71.6035Z" fill="#FFDAD2"/>
<path d="M153.323 72.3884C152.49 72.7383 151.784 73.3867 151.286 74.2656C151.161 74.4846 151.047 74.7263 151.013 75.0165C150.948 75.5881 151.192 76.248 151.431 76.8538C151.46 76.9249 151.488 76.9989 151.517 77.07C151.872 77.252 152.251 77.3885 152.635 77.4767C153.861 77.7611 155.144 77.6246 156.376 77.3657C157.474 77.1382 158.57 76.8026 159.517 76.2139C159.216 74.6268 158.561 73.0511 157.776 71.6006L153.321 72.3856L153.323 72.3884Z" fill="#FFA18F"/>
<path d="M146.683 59.9197C144.416 61.6575 143.741 65.0279 144.191 68.0626C144.609 70.8755 146.006 73.751 148.399 75.1503C150.951 76.6435 154.137 76.1458 156.476 74.5701C157.446 73.916 158.325 73.0655 158.812 71.9592C159.326 70.7817 159.361 69.3965 159.15 68.074C158.484 63.8987 155.286 60.1501 151.409 59.0067C150.367 58.6996 149.232 58.5773 148.285 59.038L146.683 59.9197Z" fill="#FFDAD2"/>
<path d="M149.978 69.4021C150.197 69.7206 150.288 70.1103 150.208 70.4914C150.134 70.8356 149.981 71.1655 150.069 71.5239C150.2 72.0472 150.777 72.4738 151.321 72.3174C151.451 72.2804 151.397 72.0728 151.264 72.1126C150.695 72.2776 150.185 71.6718 150.268 71.1371C150.316 70.8157 150.461 70.5227 150.453 70.1899C150.444 69.8572 150.345 69.5585 150.166 69.2969C150.089 69.1831 149.904 69.2912 149.981 69.4049L149.978 69.4021Z" fill="#231815"/>
<path d="M153.824 68.3925C153.289 68.0882 152.561 68.2702 152.259 68.8135C152.194 68.9329 152.376 69.041 152.444 68.9215C152.689 68.4778 153.278 68.3271 153.716 68.5745C153.836 68.6428 153.944 68.4579 153.824 68.3897V68.3925Z" fill="#231815"/>
<path d="M148.532 70.0108C148.291 69.7776 147.926 69.6582 147.599 69.7577C147.289 69.8516 147.056 70.1218 146.979 70.4346C146.948 70.5683 147.152 70.6252 147.184 70.4915C147.241 70.2497 147.414 70.0364 147.656 69.9625C147.912 69.8857 148.194 69.9767 148.384 70.1587C148.484 70.2554 148.635 70.1047 148.535 70.008L148.532 70.0108Z" fill="#231815"/>
<path d="M152.82 70.0222C153.045 70.1019 153.287 70.1161 153.523 70.0677C153.577 70.0564 153.614 69.9881 153.597 69.9369C153.577 69.88 153.523 69.8516 153.466 69.863C153.409 69.8743 153.383 69.8772 153.324 69.8829C153.272 69.8829 153.224 69.8829 153.173 69.8829C153.082 69.8772 152.977 69.8544 152.88 69.8175C152.826 69.7976 152.76 69.8374 152.749 69.8914C152.735 69.9511 152.766 70.0023 152.823 70.0222H152.82Z" fill="#231815"/>
<path d="M148.834 70.8015C148.834 70.8214 148.834 70.8442 148.834 70.8641C148.834 70.8726 148.834 70.884 148.834 70.8925C148.834 70.8755 148.834 70.9096 148.834 70.9096C148.828 70.9466 148.82 70.9807 148.808 71.0177C148.786 71.0888 148.76 71.1428 148.715 71.2139C148.709 71.2225 148.703 71.2282 148.7 71.2367C148.7 71.2367 148.683 71.2594 148.689 71.2509C148.686 71.2566 148.666 71.2765 148.655 71.2879C148.629 71.3163 148.604 71.3419 148.572 71.3647C148.567 71.3704 148.567 71.3704 148.572 71.3647L148.564 71.3704C148.564 71.3704 148.547 71.3817 148.538 71.3874C148.524 71.396 148.51 71.4073 148.493 71.4159C148.476 71.4244 148.461 71.4329 148.447 71.4415C148.447 71.4415 148.416 71.4557 148.433 71.4471C148.424 71.45 148.413 71.4557 148.404 71.4585C148.35 71.4784 148.313 71.5325 148.33 71.5894C148.345 71.6434 148.407 71.6832 148.461 71.6633C148.82 71.5353 149.05 71.1798 149.053 70.8044C149.053 70.7475 149.005 70.6963 148.945 70.6963C148.885 70.6963 148.84 70.7446 148.837 70.8044L148.834 70.8015Z" fill="#231815"/>
<path d="M152.635 71.7856C153.437 71.5808 154.277 71.6547 155.045 71.9619C155.173 72.0131 155.227 71.8055 155.102 71.7571C154.302 71.4357 153.414 71.3675 152.581 71.5808C152.447 71.6149 152.504 71.8197 152.638 71.7856H152.635Z" fill="#231815"/>
<path d="M150.032 72.5166C149.428 72.6759 148.973 73.1992 148.851 73.8022C148.822 73.9358 149.03 73.9927 149.056 73.8591C149.164 73.3243 149.554 72.8636 150.089 72.7214C150.222 72.6873 150.165 72.4796 150.032 72.5166Z" fill="#231815"/>
<path d="M152.464 57.2832C154.168 56.4299 156.49 57.6415 157.921 59.1006C159.201 58.9811 160.564 59.7519 161.224 60.9692C161.884 62.1865 161.802 63.7736 161.025 64.8174C161.702 65.3777 161.952 66.413 161.688 67.235C161.423 68.0569 160.704 68.6457 159.896 68.822C159.469 68.9159 158.877 68.7851 158.794 68.3243C158.072 68.6684 157.139 68.5205 156.496 67.9574C155.853 67.3942 155.528 66.4471 155.699 65.6166C154.37 65.5512 153.039 65.0279 151.955 64.1462C150.234 66.7202 147.565 68.5348 144.598 69.1519C144.598 69.1519 144.78 71.4927 146.549 73.6742C147.181 74.4507 144.6 73.6088 143.949 72.8522C143.297 72.0957 143.084 70.9523 143.428 70.0479C142.529 70.2583 141.479 69.6127 141.172 68.6599C140.868 67.7071 141.351 66.595 142.216 66.2708C141.767 64.1661 142.629 61.9874 144.077 60.5995C145.528 59.2087 147.494 57.6586 149.468 57.36C149.468 57.36 150.598 57.3486 151.164 57.8236L152.459 57.2803L152.464 57.2832Z" fill="white"/>
<path d="M151.375 58.6796C151.403 59.4418 151.446 60.2041 151.497 60.9663C151.523 61.3417 151.551 61.7172 151.582 62.0926C151.597 62.2803 151.614 62.468 151.631 62.6558C151.639 62.7496 151.648 62.8435 151.656 62.9373C151.662 62.9857 151.71 63.1876 151.673 63.2218L151.742 63.2047L151.764 63.2274L151.713 63.2957H151.727C151.816 63.2701 151.779 63.1307 151.69 63.1535H151.676C151.645 63.1649 151.625 63.1962 151.625 63.2246C151.625 63.29 151.673 63.3583 151.744 63.3384C151.875 63.3042 151.816 63.0852 151.807 63.0056C151.762 62.5249 151.722 62.0443 151.685 61.5636C151.611 60.6023 151.557 59.6438 151.52 58.6796C151.517 58.5886 151.375 58.5886 151.377 58.6796H151.375Z" fill="#231815"/>
<path d="M149.534 64.1889C148.555 65.4602 147.272 66.4728 145.801 67.1155C145.719 67.1525 145.79 67.2748 145.872 67.2378C147.366 66.5837 148.66 65.5512 149.656 64.26C149.713 64.1889 149.588 64.1178 149.534 64.1889Z" fill="#231815"/>
<path d="M147.992 64.3822C147.403 64.9681 146.737 65.4659 146.006 65.8584C145.926 65.901 145.998 66.0233 146.077 65.9807C146.817 65.5825 147.497 65.0762 148.091 64.4818C148.157 64.4164 148.054 64.3168 147.992 64.3822Z" fill="#231815"/>
<path d="M153.508 63.2671C154.075 63.7506 154.757 64.0891 155.494 64.2171C155.582 64.2313 155.622 64.0948 155.531 64.0806C154.82 63.9554 154.157 63.634 153.611 63.1676C153.543 63.1079 153.44 63.2074 153.511 63.2671H153.508Z" fill="#231815"/>
<path d="M150.464 73.5461C150.755 74.0722 151.139 74.6013 151.71 74.789C152.117 74.9226 152.587 74.8601 152.942 74.6183C153.298 74.3766 153.531 73.967 153.557 73.5375C153.58 73.1536 153.446 72.781 153.315 72.4226L150.464 73.5432V73.5461Z" fill="white"/>
<path d="M152.146 74.9627C151.986 74.9627 151.827 74.9371 151.679 74.8887C151.025 74.6726 150.621 74.0468 150.373 73.5946L150.316 73.4894L153.383 72.2834L153.42 72.3858C153.548 72.7357 153.693 73.1339 153.668 73.5434C153.639 74.0013 153.386 74.4479 153.005 74.7039C152.755 74.8717 152.45 74.9598 152.149 74.9598L152.146 74.9627ZM150.618 73.6003C150.851 74.007 151.21 74.5104 151.745 74.6896C152.117 74.8148 152.555 74.755 152.883 74.5332C153.21 74.3114 153.429 73.9302 153.452 73.5349C153.471 73.205 153.363 72.8693 153.255 72.565L150.621 73.6032L150.618 73.6003Z" fill="#231815"/>
<path d="M146.37 69.4932C146.945 69.1519 147.52 68.8078 148.094 68.4665C148.211 68.3954 148.106 68.2105 147.986 68.2816C147.411 68.6229 146.837 68.9671 146.262 69.3084C146.145 69.3795 146.251 69.5643 146.37 69.4932Z" fill="#231815"/>
<path d="M152.171 66.9277C152.82 66.8793 153.469 66.8651 154.117 66.8822C154.254 66.885 154.254 66.6717 154.117 66.6688C153.469 66.6518 152.817 66.6688 152.171 66.7144C152.035 66.7257 152.035 66.939 152.171 66.9277Z" fill="#231815"/>
<path d="M179.262 91.3765C179.677 93.8054 179.179 96.2998 178.235 98.5467C177.373 100.6 176.135 102.492 174.687 104.175C173.239 105.859 171.611 107.327 169.848 108.638C167.904 110.083 165.816 111.326 163.674 112.449C161.463 113.609 159.19 114.645 156.914 115.663C156.632 115.788 156.353 115.913 156.072 116.041H156.214C155.844 115.831 155.477 115.623 155.107 115.413L152.447 113.905L149.229 112.079L146.433 110.492L145.519 109.975C145.386 109.898 145.229 109.77 145.081 109.727C145.076 109.727 145.067 109.719 145.061 109.716V109.96C147.204 108.575 149.343 107.187 151.449 105.748C153.554 104.309 155.625 102.821 157.619 101.234C159.602 99.6588 161.512 97.9835 163.293 96.1775C164.183 95.273 165.039 94.3401 165.853 93.3674C166.251 92.8896 166.641 92.3919 166.923 91.8344C167.204 91.2769 167.35 90.6484 167.389 90.0141C167.432 89.323 167.384 88.629 167.335 87.9407C167.287 87.2524 167.224 86.5442 167.145 85.8474C166.983 84.4424 166.755 83.043 166.459 81.6607C166.388 81.3223 166.311 80.9867 166.231 80.6511C166.189 80.4719 165.916 80.5487 165.958 80.7278C166.601 83.4355 167.002 86.2114 167.108 88.9959C167.133 89.67 167.128 90.3554 166.943 91.0096C166.769 91.6211 166.433 92.1672 166.052 92.6706C165.298 93.666 164.428 94.5904 163.566 95.492C161.842 97.2924 159.984 98.9619 158.049 100.532C156.114 102.102 154.049 103.612 151.975 105.048C149.909 106.476 147.807 107.847 145.702 109.212C145.44 109.38 145.181 109.551 144.919 109.719C144.831 109.776 144.822 109.909 144.919 109.963C145.323 110.194 145.73 110.424 146.134 110.654L149.01 112.287L152.376 114.198L155.113 115.751L155.878 116.186C155.935 116.218 155.989 116.255 156.046 116.283C156.055 116.286 156.06 116.292 156.069 116.294C156.166 116.334 156.242 116.28 156.333 116.24C156.484 116.172 156.635 116.107 156.786 116.038C159.014 115.04 161.238 114.033 163.409 112.916C165.58 111.798 167.591 110.626 169.523 109.235C171.264 107.984 172.903 106.576 174.351 104.992C175.791 103.419 177.046 101.667 177.996 99.7555C179.034 97.665 179.728 95.347 179.694 92.9977C179.686 92.4317 179.632 91.8657 179.538 91.3082C179.507 91.129 179.233 91.2058 179.265 91.385L179.262 91.3765Z" fill="#231815"/>
<path d="M143.687 184.885C146.168 184.834 148.649 184.779 151.13 184.728C153.611 184.677 156.092 184.623 158.573 184.572L162.755 184.484C162.937 184.481 162.937 184.196 162.755 184.199L155.312 184.356C152.831 184.407 150.35 184.461 147.869 184.512L143.687 184.6C143.505 184.603 143.505 184.888 143.687 184.885Z" fill="#231815"/>
<path d="M152.234 94.3001C154.57 95.6596 157.164 96.5726 159.839 96.9651C160.194 97.0163 160.575 97.0988 160.934 97.0959C161.136 97.0959 161.46 96.9111 161.292 96.6779C161.187 96.53 160.94 96.6722 161.048 96.8201C161.005 96.7632 161.116 96.8087 161.002 96.8002C160.982 96.8002 160.957 96.8087 160.934 96.8115C160.866 96.8144 160.792 96.8002 160.723 96.7916C160.575 96.7774 160.43 96.7603 160.282 96.7404C159.969 96.7006 159.659 96.6523 159.349 96.5982C158.757 96.4958 158.169 96.365 157.588 96.2114C156.427 95.9042 155.292 95.5004 154.2 94.9998C153.577 94.7125 152.968 94.3968 152.376 94.0527C152.217 93.9617 152.074 94.2063 152.234 94.2973V94.3001Z" fill="#231815"/>
<path d="M142.672 101.96C143.972 101.47 145.355 101.254 146.743 101.331C146.925 101.342 146.925 101.058 146.743 101.047C145.335 100.97 143.918 101.186 142.598 101.684C142.427 101.749 142.501 102.022 142.674 101.957L142.672 101.96Z" fill="#231815"/>
<path d="M158.302 73.0003C158.982 74.6243 159.429 76.3394 159.625 78.0885C159.645 78.2677 159.93 78.2706 159.91 78.0885C159.713 76.3109 159.267 74.5731 158.578 72.9235C158.51 72.7557 158.234 72.8296 158.305 73.0003H158.302Z" fill="#231815"/>
<path d="M111.215 46.5695C107.244 50.5403 101.432 51.5609 96.4786 49.6479C97.2799 51.0663 98.2831 52.4093 99.4922 53.6184C106.621 60.7468 118.133 60.8026 125.202 53.733C132.272 46.6634 132.221 35.1558 125.088 28.0229C119.908 22.8435 112.423 21.4043 106.006 23.7068C107.873 24.3844 109.63 25.4702 111.132 26.9725C116.569 32.4091 116.603 41.1812 111.22 46.565L111.215 46.5695Z" fill="#FFD367"/>
<path d="M73.7952 44.4891C81.9063 44.4891 88.4817 37.9137 88.4817 29.8025C88.4817 21.6914 81.9063 15.116 73.7952 15.116C65.684 15.116 59.1086 21.6914 59.1086 29.8025C59.1086 37.9137 65.684 44.4891 73.7952 44.4891Z" fill="#FF9E67"/>
<path d="M73.7946 13.3367C72.5707 13.3367 71.5817 12.3476 71.5817 11.1237V10.2129C71.5817 8.98906 72.5707 8 73.7946 8C75.0185 8 76.0076 8.98906 76.0076 10.2129V11.1237C76.0076 12.3405 75.0185 13.3367 73.7946 13.3367Z" fill="#FF9E67"/>
<path d="M73.7946 51.5974C72.5707 51.5974 71.5817 50.6084 71.5817 49.3845V48.4737C71.5817 47.2569 72.5707 46.2607 73.7946 46.2607C75.0185 46.2607 76.0076 47.2498 76.0076 48.4737V49.3845C76.0076 50.6012 75.0185 51.5974 73.7946 51.5974Z" fill="#FF9E67"/>
<path d="M93.377 32.0082H92.4662C91.2495 32.0082 90.2533 31.0191 90.2533 29.7952C90.2533 28.5713 91.2424 27.5823 92.4662 27.5823H93.377C94.6009 27.5823 95.59 28.5713 95.59 29.7952C95.59 31.0191 94.6009 32.0082 93.377 32.0082Z" fill="#FF9E67"/>
<path d="M55.1237 32.0082H54.2129C52.9891 32.0082 52 31.0191 52 29.7952C52 28.5713 52.9891 27.5823 54.2129 27.5823H55.1237C56.3405 27.5823 57.3367 28.5713 57.3367 29.7952C57.3367 31.0191 56.3476 32.0082 55.1237 32.0082Z" fill="#FF9E67"/>
<path d="M64.4599 15.8416C63.6985 15.8416 62.9514 15.4431 62.5458 14.7387L62.0904 13.9488C61.4785 12.8886 61.8414 11.5438 62.9016 10.9318C63.9618 10.3199 65.3066 10.6828 65.9186 11.743L66.374 12.5328C66.9859 13.5931 66.623 14.9379 65.5628 15.5498C65.2141 15.7491 64.837 15.8487 64.4599 15.8487V15.8416Z" fill="#FF9E67"/>
<path d="M83.5864 48.9715C82.825 48.9715 82.0779 48.573 81.6723 47.8686L81.2169 47.0787C80.6049 46.0185 80.9678 44.6737 82.028 44.0617C83.0883 43.4498 84.4331 43.8127 85.0451 44.8729L85.5005 45.6627C86.1124 46.7229 85.7495 48.0678 84.6893 48.6797C84.3406 48.879 83.9635 48.9786 83.5864 48.9786V48.9715Z" fill="#FF9E67"/>
<path d="M89.9686 22.6722C89.2072 22.6722 88.4601 22.2737 88.0545 21.5693C87.4426 20.5091 87.8055 19.1642 88.8657 18.5523L89.6555 18.0969C90.7157 17.4849 92.0606 17.8478 92.6725 18.9081C93.2845 19.9683 92.9216 21.3131 91.8614 21.9251L91.0715 22.3805C90.7229 22.5797 90.3457 22.6793 89.9686 22.6793V22.6722Z" fill="#FF9E67"/>
<path d="M56.8388 41.806C56.0775 41.806 55.3303 41.4075 54.9248 40.7031C54.3128 39.6428 54.6757 38.298 55.7359 37.6861L56.5258 37.2307C57.586 36.6187 58.9379 36.9816 59.5428 38.0418C60.1547 39.1021 59.7918 40.4469 58.7316 41.0588L57.9418 41.5142C57.5931 41.7135 57.216 41.8131 56.8388 41.8131V41.806Z" fill="#FF9E67"/>
<path d="M57.621 22.6717C57.2439 22.6717 56.8668 22.5792 56.5181 22.3729L55.7283 21.9175C54.6752 21.3056 54.3123 19.9536 54.9171 18.9005C55.5291 17.8403 56.881 17.4845 57.9341 18.0893L58.7239 18.5447C59.777 19.1567 60.1399 20.5086 59.5351 21.5617C59.1224 22.2733 58.3824 22.6646 57.621 22.6646V22.6717Z" fill="#FF9E67"/>
<path d="M90.7515 41.8058C90.3744 41.8058 89.9972 41.7133 89.6486 41.5069L88.8587 41.0515C87.7985 40.4396 87.4356 39.0876 88.0476 38.0345C88.6595 36.9743 90.0043 36.6114 91.0646 37.2233L91.8544 37.6787C92.9146 38.2907 93.2775 39.6426 92.6656 40.6957C92.2529 41.4073 91.5128 41.7987 90.7515 41.7987V41.8058Z" fill="#FF9E67"/>
<path d="M83.1303 15.8412C82.7532 15.8412 82.3761 15.7487 82.0274 15.5423C80.9743 14.9304 80.6114 13.5784 81.2234 12.5253L81.6788 11.7355C82.2907 10.6753 83.6426 10.3195 84.6958 10.9315C85.7489 11.5434 86.1118 12.8954 85.4998 13.9485L85.0444 14.7383C84.6317 15.4498 83.8917 15.8412 83.1303 15.8412Z" fill="#FF9E67"/>
<path d="M63.9965 48.9709C63.6193 48.9709 63.2422 48.8784 62.8935 48.6721C61.8333 48.0601 61.4775 46.7082 62.0824 45.6551L62.5378 44.8652C63.1497 43.8121 64.4945 43.4421 65.5548 44.0541C66.615 44.666 66.9708 46.018 66.3659 47.0711L65.9105 47.8609C65.4978 48.5725 64.7578 48.9638 63.9965 48.9638V48.9709Z" fill="#FF9E67"/>
</g>
<defs>
<clipPath id="clip0_2447_23081">
<rect width="240" height="190.843" fill="white" transform="translate(40)"/>
</clipPath>
</defs>
</svg>
