<svg width="320" height="162" viewBox="0 0 320 162" fill="none" xmlns="http://www.w3.org/2000/svg">
<g clip-path="url(#clip0_1598_10003)">
<path d="M265.567 22.0002H55.3809C51.2903 22.0002 47.9741 24.8381 47.9741 28.3388V155.662C47.9741 159.162 51.2903 162 55.3809 162H265.567C269.658 162 272.974 159.162 272.974 155.662V28.3388C272.974 24.8381 269.658 22.0002 265.567 22.0002Z" fill="#EDE6DF"/>
<g clip-path="url(#clip1_1598_10003)">
<path d="M171.434 18.8703C171.424 18.7916 171.34 18.7234 171.334 18.6448C171.282 18.2199 171.298 17.7898 171.214 17.3702C171.13 16.9505 171.046 16.5257 170.925 16.1218C170.805 15.7179 170.663 15.3035 170.49 14.9101C170.317 14.5167 170.086 14.1548 169.861 13.7876C169.63 13.4204 169.409 13.0428 169.131 12.7123C168.853 12.3819 168.544 12.0777 168.224 11.7839C167.904 11.4902 167.574 11.2122 167.233 10.9499C166.892 10.6876 166.467 10.5408 166.105 10.3047C165.743 10.0687 165.381 9.83791 165.009 9.62285C164.652 9.41829 164.348 9.11406 163.981 8.92523C163.613 8.7364 163.215 8.61051 162.842 8.43742C162.47 8.26432 162.071 8.14368 161.688 7.98632C161.305 7.82896 160.959 7.58768 160.571 7.44081C160.183 7.29394 159.8 7.14183 159.407 7.01594C159.013 6.89005 158.609 6.80088 158.211 6.69073C157.812 6.58058 157.392 6.55435 156.994 6.45469C156.595 6.35503 156.202 6.21865 155.798 6.13997C155.394 6.06129 154.995 5.9459 154.586 5.88295C154.177 5.82001 153.768 5.77805 153.359 5.7256C152.95 5.67314 152.535 5.68363 152.121 5.65216C151.707 5.62069 151.297 5.58922 150.888 5.56824C150.479 5.54726 150.065 5.44235 149.656 5.4371C149.247 5.43186 148.832 5.48956 148.418 5.4948C148.003 5.50005 147.594 5.54726 147.185 5.56824C146.776 5.58922 146.362 5.63643 145.952 5.67314C145.538 5.70986 145.108 5.63643 144.699 5.69412C144.29 5.75182 143.886 5.8882 143.477 5.96163C143.068 6.03507 142.643 6.04556 142.239 6.14522C141.835 6.24488 141.431 6.37077 141.038 6.5019C140.644 6.63303 140.298 6.8953 139.91 7.05266C139.496 7.22575 139.081 7.38836 138.672 7.57719C138.263 7.76602 137.848 7.93911 137.424 8.08598C136.931 8.25908 136.406 8.30628 135.897 8.41643C135.388 8.52659 134.89 8.68395 134.381 8.78361C133.977 8.86229 133.563 8.88851 133.159 8.98293C132.755 9.07734 132.346 9.14553 131.948 9.25044C131.549 9.35534 131.155 9.49697 130.762 9.61236C130.369 9.72776 129.975 9.86414 129.587 10.0005C129.199 10.1369 128.821 10.3047 128.433 10.4569C128.045 10.609 127.678 10.7873 127.3 10.9499C126.923 11.1125 126.545 11.2751 126.172 11.4587C125.8 11.6423 125.464 11.8836 125.102 12.0829C124.74 12.2822 124.316 12.3714 123.964 12.5864C123.613 12.8015 123.314 13.1005 122.973 13.3365C122.632 13.5726 122.301 13.8138 121.976 14.0656C121.651 14.3174 121.336 14.5797 121.027 14.8524C120.717 15.1252 120.376 15.3612 120.083 15.6497C119.789 15.9382 119.521 16.2582 119.249 16.5624C118.976 16.8666 118.745 17.2128 118.488 17.538C118.231 17.8632 117.89 18.1202 117.654 18.4612C117.418 18.8021 117.297 19.2165 117.088 19.5679C116.878 19.9194 116.652 20.2656 116.463 20.6327C116.275 20.9999 116.075 21.3618 115.913 21.7395C115.75 22.1172 115.603 22.5053 115.472 22.8935C115.341 23.2816 115.294 23.696 115.194 24.0999C115.094 24.5038 114.958 24.8919 114.89 25.2958C114.816 25.7312 114.816 26.1665 114.785 26.5914C114.753 27.0163 114.743 27.4569 114.753 27.887C114.764 28.3171 114.774 28.7525 114.827 29.1826C114.879 29.6127 114.979 30.0323 115.063 30.4572C115.147 30.8821 115.126 31.3279 115.236 31.7528C115.346 32.1776 115.561 32.5605 115.687 32.9749C115.813 33.3893 115.886 33.8194 116.028 34.2286C116.17 34.6377 116.359 35.0311 116.505 35.4402C116.652 35.8494 116.799 36.2532 116.951 36.6624C117.103 37.0715 117.245 37.4754 117.392 37.8845C117.539 38.2937 117.686 38.7028 117.827 39.1119C117.969 39.5211 118.131 39.9249 118.257 40.3393C118.383 40.7537 118.499 41.1733 118.609 41.593C118.719 42.0126 118.787 42.4427 118.871 42.8676C118.955 43.2924 119.097 43.6753 119.217 44.074C119.338 44.4726 119.432 44.8818 119.584 45.2752C119.736 45.6686 119.92 46.041 120.093 46.4239C120.266 46.8068 120.382 47.2107 120.57 47.5883C120.759 47.966 120.938 48.3384 121.137 48.7108C121.336 49.0832 121.583 49.4189 121.787 49.7861C121.992 50.1533 122.233 50.4942 122.433 50.8666C122.632 51.2391 122.789 51.6272 122.978 51.9996C123.167 52.372 123.403 52.7287 123.576 53.1064C123.749 53.484 123.859 53.8984 124.011 54.2866C124.164 54.6747 124.295 55.0734 124.421 55.4773C124.546 55.8811 124.657 56.2798 124.746 56.6942C124.835 57.1085 124.83 57.5177 124.882 57.9426C124.929 58.3307 125.071 58.7136 125.123 59.107C125.176 59.5004 125.234 59.8886 125.328 60.2715C125.422 60.6544 125.454 61.0688 125.632 61.4254C125.811 61.7821 126.104 62.0706 126.398 62.3329C126.692 62.5951 127.075 62.7315 127.442 62.8469C127.809 62.9623 128.155 63.1144 128.543 62.999C128.612 63.4082 128.863 63.6914 129.078 64.0323C129.293 64.3733 129.493 64.7509 129.813 65.008C130.133 65.265 130.526 65.4223 130.898 65.5745C131.271 65.7266 131.659 65.8787 132.063 65.9469C132.467 66.0151 132.876 66.078 133.285 66.078C133.694 66.078 134.109 66.036 134.512 65.9888C134.922 65.9416 135.352 65.8944 135.782 65.8053C136.212 65.7161 136.605 65.6164 137.03 65.501C137.455 65.3856 137.817 65.1811 138.226 65.0447C138.635 64.9083 139.055 64.8401 139.454 64.6828C139.852 64.5254 140.204 64.2684 140.592 64.0953C140.98 63.9222 141.368 63.7491 141.746 63.555C142.123 63.3609 142.501 63.1564 142.863 62.9413C143.225 62.7263 143.645 62.5742 143.996 62.3381C144.347 62.1021 144.646 61.7716 144.982 61.5146C145.318 61.2576 145.622 60.9481 145.932 60.6649C146.241 60.3816 146.608 60.1298 146.891 59.8204C147.175 59.5109 147.4 59.128 147.641 58.7923C147.904 58.4304 148.239 58.1209 148.502 57.759C148.764 57.397 148.995 57.0141 149.257 56.6522C149.519 56.2903 149.792 55.9388 150.054 55.5769C150.317 55.215 150.637 54.895 150.899 54.5331C151.161 54.1712 151.418 53.7201 151.68 53.3582C151.287 53.012 151.119 53.311 150.616 53.1641C150.112 53.0172 150.112 53.0225 149.608 52.8756C149.105 52.7287 149.042 52.8389 148.659 52.4822C148.927 52.0836 149.163 51.7479 149.43 51.3492C149.698 50.9506 149.997 50.5782 150.254 50.1743C150.469 49.8333 150.589 49.4347 150.768 49.0728C150.946 48.7108 151.14 48.3541 151.313 47.9922C151.486 47.6303 151.649 47.2526 151.853 46.9117C152.058 46.5707 152.299 46.2403 152.583 45.9466C152.866 45.6528 153.191 45.464 153.558 45.2489C153.946 45.0234 154.329 44.8083 154.723 44.6247C155.116 44.4412 155.488 44.1527 155.892 43.9848C156.296 43.817 156.732 43.6858 157.141 43.5232C157.55 43.3606 158.001 43.2872 158.405 43.1088C158.809 42.9305 159.218 42.7522 159.611 42.5476C160.005 42.343 160.346 42.0545 160.718 41.808C161.09 41.5615 161.426 41.2992 161.767 41.0002C162.087 40.717 162.449 40.4495 162.748 40.1033C163.068 39.7361 163.257 39.3008 163.508 38.9336C163.776 38.5402 164.08 38.1888 164.306 37.7901C164.531 37.3915 164.71 36.9614 164.925 36.5417C165.14 36.1221 165.308 35.7077 165.538 35.2881C165.733 34.9314 165.963 34.5905 166.194 34.26C166.425 33.9296 166.692 33.6201 166.944 33.3001C167.196 32.9802 167.427 32.6497 167.679 32.3298C167.93 32.0098 168.271 31.758 168.502 31.4276C168.733 31.0971 168.827 30.6775 169.021 30.3208C169.231 29.9327 169.514 29.5865 169.698 29.1878C169.882 28.7892 170.023 28.3696 170.181 27.9604C170.338 27.5513 170.563 27.1579 170.695 26.7383C170.826 26.3186 170.889 25.878 170.994 25.4479C171.098 25.0178 171.156 24.5824 171.23 24.1523C171.303 23.7222 171.46 23.2921 171.508 22.8567C171.555 22.4214 171.476 21.9703 171.492 21.5297C171.508 21.0891 171.607 20.6485 171.592 20.2079C171.576 19.7673 171.502 19.3267 171.455 18.8913L171.434 18.8703Z" fill="#97928C"/>
<path d="M99.1964 107.861C99.3433 107.468 99.6055 107.116 99.7576 106.718C99.9098 106.319 100.025 105.915 100.177 105.527C100.329 105.139 100.424 104.719 100.586 104.326C100.749 103.932 100.98 103.576 101.142 103.188C101.305 102.799 101.426 102.39 101.594 102.002C101.761 101.614 101.919 101.221 102.097 100.838C102.275 100.455 102.496 100.093 102.679 99.71C102.863 99.3271 103.062 98.9599 103.251 98.5822C103.44 98.2046 103.702 97.8636 103.896 97.4912C104.09 97.1188 104.206 96.6992 104.41 96.332C104.615 95.9648 104.888 95.6344 105.097 95.2672C105.307 94.9 105.496 94.5224 105.711 94.1604C105.926 93.7985 106.194 93.4681 106.419 93.1114C106.645 92.7547 106.818 92.3666 107.049 92.0151C107.279 91.6637 107.468 91.2755 107.71 90.9346C107.951 90.5936 108.192 90.2422 108.444 89.9013C108.696 89.5603 108.958 89.2299 109.215 88.8942C109.472 88.5585 109.818 88.2962 110.086 87.971C110.353 87.6458 110.636 87.3311 110.909 87.0111C111.182 86.6911 111.46 86.3764 111.743 86.0617C112.026 85.747 112.294 85.4218 112.588 85.1175C112.876 84.8186 113.128 84.4829 113.427 84.1891C113.726 83.8954 114.067 83.6489 114.371 83.3656C114.675 83.0824 114.985 82.8044 115.299 82.5316C115.614 82.2589 115.913 81.9651 116.238 81.7029C116.564 81.4406 116.91 81.2046 117.24 80.9528C117.571 80.701 117.912 80.4597 118.253 80.2184C118.594 79.9772 118.892 79.6729 119.239 79.4421C119.585 79.2113 119.942 78.9858 120.293 78.7655C120.644 78.5452 121.059 78.4193 121.421 78.2147C121.783 78.0102 122.108 77.7322 122.475 77.5381C122.842 77.344 123.246 77.2181 123.624 77.0345C124.001 76.851 124.337 76.5939 124.72 76.4261C125.103 76.2582 125.496 76.1166 125.884 75.9645C126.273 75.8124 126.687 75.7232 127.075 75.5816C127.463 75.44 127.846 75.2669 128.245 75.141C128.297 75.1148 128.371 75.141 128.423 75.1148C128.796 74.9312 129.163 74.7476 129.546 74.585C129.929 74.4224 130.301 74.2545 130.694 74.1077C131.088 73.9608 131.444 73.7405 131.843 73.6146C132.242 73.4887 132.667 73.4782 133.071 73.3733C133.474 73.2684 133.847 73.0639 134.256 72.9747C134.665 72.8855 135.074 72.8331 135.483 72.7596C135.893 72.6862 136.307 72.66 136.721 72.6023C137.136 72.5446 137.534 72.4239 137.949 72.3767C138.363 72.3295 138.783 72.3767 139.197 72.34C139.611 72.3033 140.021 72.2246 140.435 72.1984C140.849 72.1722 141.264 72.1826 141.678 72.1617C142.092 72.1407 142.512 72.1879 142.921 72.1826C143.351 72.1722 143.776 72.0515 144.206 72.0515C144.636 72.0515 145.067 72.0777 145.497 72.083C145.927 72.0882 146.352 72.1564 146.782 72.1722C147.212 72.1879 147.647 72.1249 148.072 72.1512C148.497 72.1774 148.927 72.2718 149.352 72.3085C149.777 72.3452 150.202 72.4554 150.627 72.5079C151.051 72.5603 151.492 72.5131 151.917 72.576C152.342 72.639 152.751 72.7911 153.176 72.8698C153.601 72.9485 154.031 72.9747 154.45 73.0639C154.87 73.153 155.295 73.2212 155.709 73.3314C156.124 73.4415 156.549 73.5307 156.958 73.6513C157.372 73.7772 157.786 73.9083 158.19 74.05C158.594 74.1916 158.998 74.3542 159.397 74.5168C159.795 74.6794 160.199 74.842 160.587 75.0203C160.976 75.1987 161.316 75.4872 161.699 75.6813C162.082 75.8753 162.486 76.0379 162.853 76.253C163.221 76.4681 163.577 76.7146 163.939 76.9454C164.301 77.1762 164.663 77.4122 165.014 77.6535C165.366 77.8948 165.749 78.1098 166.09 78.3669C166.431 78.6239 166.724 78.9491 167.055 79.2218C167.385 79.4946 167.779 79.6992 168.099 79.9824C168.419 80.2657 168.676 80.6223 168.985 80.9213C169.31 81.1731 169.609 81.4563 169.929 81.7238C170.249 81.9914 170.564 82.2484 170.873 82.5211C171.183 82.7939 171.498 83.0562 171.807 83.3342C172.117 83.6122 172.416 83.8902 172.715 84.1734C173.013 84.4566 173.318 84.7346 173.622 85.0179C173.926 85.3011 174.314 85.4847 174.619 85.7627C174.923 86.0407 175.159 86.3922 175.468 86.6649C175.778 86.9377 176.082 87.2157 176.391 87.4884C176.701 87.7612 176.989 88.0602 177.304 88.3224C177.619 88.5847 177.997 88.7788 178.322 89.0253C178.657 89.2823 178.977 89.5551 179.329 89.7859C179.68 90.0167 180.021 90.2684 180.388 90.473C180.756 90.6776 181.144 90.8454 181.521 91.029C181.899 91.2126 182.324 91.286 182.712 91.4486C183.1 91.6112 183.462 91.8315 183.861 91.9732C184.259 92.1148 184.663 92.2197 185.062 92.3508C185.461 92.482 185.859 92.6183 186.258 92.739C186.657 92.8596 187.055 93.0117 187.459 93.1271C187.863 93.2425 188.272 93.3474 188.676 93.4628C189.08 93.5782 189.484 93.7041 189.882 93.8195C190.281 93.9349 190.701 94.0136 191.099 94.1342C191.498 94.2549 191.886 94.4384 192.279 94.5748C192.673 94.7112 193.077 94.8371 193.465 94.984C193.853 95.1308 194.246 95.2829 194.629 95.4455C195.012 95.6082 195.406 95.7603 195.783 95.9491C196.161 96.1379 196.544 96.311 196.906 96.5208C197.268 96.7306 197.651 96.9142 198.002 97.145C198.354 97.3758 198.658 97.68 198.993 97.9266C199.329 98.1731 199.723 98.3619 200.048 98.6242C200.373 98.8865 200.64 99.2274 200.95 99.5107C201.259 99.7939 201.621 100.025 201.92 100.318C202.219 100.612 202.461 100.969 202.744 101.273C203.027 101.577 203.295 101.908 203.573 102.222C203.851 102.537 204.108 102.868 204.37 103.198C204.632 103.529 204.915 103.838 205.162 104.179C205.408 104.52 205.618 104.887 205.854 105.233C206.09 105.579 206.332 105.926 206.552 106.282C206.772 106.639 206.993 107.001 207.202 107.363C207.412 107.725 207.722 108.04 207.921 108.407C208.12 108.774 208.309 109.173 208.493 109.555C208.676 109.938 208.75 110.379 208.928 110.767C209.106 111.155 209.332 111.522 209.495 111.921C209.657 112.32 209.862 112.697 210.014 113.096C210.166 113.495 210.218 113.93 210.36 114.334C210.502 114.738 210.617 115.147 210.743 115.556C210.869 115.965 211.031 116.364 211.152 116.773C211.273 117.182 211.462 117.575 211.572 117.99C211.682 118.404 211.734 118.829 211.834 119.249C211.934 119.668 211.991 120.088 212.086 120.508C212.18 120.927 212.285 121.342 212.364 121.761C212.442 122.181 212.579 122.59 212.657 123.015C212.736 123.44 212.804 123.859 212.873 124.279C212.941 124.699 212.92 125.139 212.983 125.559C213.046 125.978 213.161 126.398 213.219 126.823C213.276 127.248 213.355 127.667 213.408 128.092C213.46 128.517 213.518 128.942 213.565 129.367C213.607 129.787 213.533 130.217 213.575 130.636C213.617 131.056 213.722 131.465 213.754 131.885C213.785 132.304 213.733 132.729 213.754 133.149C213.775 133.568 213.806 133.988 213.811 134.408C213.817 134.827 213.948 135.247 213.943 135.672C213.937 136.097 213.895 136.516 213.869 136.936C213.843 137.355 213.806 137.775 213.769 138.195C213.733 138.614 213.596 139.018 213.533 139.438C213.47 139.857 213.465 140.277 213.381 140.692C213.297 141.106 213.14 141.499 213.03 141.903C212.92 142.307 212.768 142.7 212.631 143.094C212.495 143.487 212.369 143.891 212.206 144.279C212.044 144.667 211.871 145.05 211.677 145.423C211.483 145.795 211.304 146.178 211.079 146.535C210.853 146.891 210.638 147.253 210.386 147.589C210.134 147.925 209.856 148.245 209.573 148.554C209.29 148.864 209.033 149.21 208.723 149.493C208.414 149.776 208 149.934 207.659 150.186C207.297 150.448 206.977 150.757 206.599 150.978C206.221 151.198 205.818 151.397 205.419 151.576C205.02 151.754 204.606 151.922 204.186 152.063C203.767 152.205 203.331 152.273 202.901 152.383C202.471 152.493 202.051 152.609 201.616 152.688C201.181 152.766 200.751 152.876 200.315 152.929C199.88 152.981 199.429 152.903 198.988 152.929C198.548 152.955 198.112 153.102 197.677 153.112C197.341 153.123 196.916 153.06 196.444 153.007C196.067 152.965 195.657 152.876 195.227 152.813C194.834 152.756 194.42 152.698 194.005 152.646C193.591 152.593 193.176 152.619 192.773 152.588C192.369 152.556 191.939 152.483 191.54 152.493C191.099 152.504 190.695 152.588 190.328 152.672C189.888 152.771 189.52 152.924 189.242 153.175C189.064 153.333 188.912 153.737 188.791 154.34C188.718 154.702 188.697 155.137 188.644 155.609C188.597 156.008 188.445 156.427 188.414 156.873C188.382 157.288 188.461 157.723 188.44 158.158C188.419 158.594 188.335 159.008 188.319 159.438C188.304 159.868 188.34 160.304 188.325 160.723C188.309 161.143 188.304 161.594 188.293 162.008C188.283 162.459 188.272 162.895 188.267 163.294C188.267 163.771 188.256 164.206 188.256 164.573C188.256 165.36 188.23 165.9 188.22 165.9C187.8 165.9 187.375 165.89 186.955 165.885C186.536 165.879 186.111 165.848 185.691 165.843C185.272 165.837 184.847 165.879 184.427 165.879C184.008 165.879 183.583 165.837 183.163 165.832C182.744 165.827 182.319 165.853 181.899 165.853C181.479 165.853 181.055 165.78 180.635 165.775C180.215 165.769 179.79 165.754 179.371 165.754C178.951 165.754 178.526 165.801 178.107 165.801C177.687 165.801 177.262 165.843 176.843 165.843C176.423 165.843 175.998 165.796 175.578 165.796C175.159 165.796 174.734 165.848 174.314 165.848C173.895 165.848 173.47 165.785 173.05 165.785C172.631 165.785 172.206 165.78 171.786 165.775C171.366 165.769 170.942 165.775 170.522 165.775C170.102 165.775 169.677 165.696 169.258 165.696C168.838 165.696 168.413 165.801 167.994 165.796C167.574 165.79 167.149 165.79 166.73 165.79C166.31 165.79 165.885 165.68 165.466 165.675C165.046 165.67 164.621 165.717 164.201 165.717C163.782 165.717 163.357 165.801 162.937 165.796C162.518 165.79 162.093 165.643 161.673 165.643C161.254 165.643 160.829 165.78 160.409 165.775C159.989 165.769 159.565 165.659 159.145 165.659C158.725 165.659 158.3 165.722 157.881 165.722C157.461 165.722 157.036 165.675 156.617 165.675C156.197 165.675 155.772 165.633 155.353 165.633C154.933 165.633 154.508 165.638 154.088 165.633C153.669 165.628 153.244 165.607 152.824 165.601C152.405 165.596 151.98 165.607 151.56 165.601C151.141 165.596 150.716 165.691 150.296 165.685C149.876 165.68 149.452 165.601 149.032 165.601C148.612 165.601 148.187 165.696 147.768 165.696C147.348 165.696 146.923 165.675 146.504 165.67C146.084 165.664 145.659 165.664 145.24 165.659C144.82 165.654 144.395 165.559 143.976 165.559C143.556 165.559 143.131 165.649 142.711 165.643C142.292 165.638 141.867 165.68 141.447 165.68C141.028 165.68 140.603 165.601 140.183 165.596C139.764 165.591 139.339 165.664 138.919 165.664C138.499 165.664 138.075 165.57 137.655 165.57C137.235 165.57 136.81 165.607 136.391 165.607C135.971 165.607 135.546 165.591 135.127 165.591C134.707 165.591 134.282 165.518 133.863 165.512C133.443 165.507 133.018 165.502 132.598 165.502C132.179 165.502 131.754 165.617 131.334 165.617C130.915 165.617 130.49 165.617 130.07 165.617C129.651 165.617 129.226 165.497 128.806 165.491C128.386 165.486 127.962 165.533 127.542 165.533C127.122 165.533 126.698 165.486 126.278 165.486C125.858 165.486 125.433 165.559 125.014 165.559C124.594 165.559 124.169 165.518 123.75 165.518C123.33 165.518 122.905 165.538 122.486 165.533C122.066 165.528 121.641 165.533 121.221 165.528C120.802 165.523 120.377 165.465 119.957 165.46C119.538 165.455 119.113 165.47 118.693 165.465C118.274 165.46 117.849 165.575 117.429 165.575C117.009 165.575 116.585 165.533 116.165 165.533C115.745 165.533 115.32 165.428 114.896 165.428C114.471 165.46 114.046 165.486 113.621 165.518C113.196 165.549 112.776 165.649 112.352 165.675C111.927 165.701 111.502 165.727 111.077 165.743C110.652 165.759 110.227 165.717 109.802 165.727C109.378 165.738 108.958 165.864 108.533 165.874C108.108 165.885 107.683 165.806 107.258 165.806C106.834 165.806 106.409 165.848 105.984 165.848C105.559 165.848 105.134 165.89 104.709 165.885C104.284 165.879 103.859 165.864 103.435 165.853C103.01 165.843 102.585 165.806 102.16 165.79C101.735 165.775 101.31 165.78 100.885 165.764C100.461 165.748 100.041 165.601 99.6213 165.575C99.2016 165.549 98.761 165.664 98.3414 165.638C97.9218 165.612 97.5022 165.481 97.0773 165.444C96.6524 165.407 96.2276 165.407 95.8027 165.365C95.3778 165.323 94.9634 165.203 94.5438 165.156C94.1242 165.108 93.6941 165.124 93.2745 165.072C93.2115 164.657 93.1276 164.243 93.0699 163.829C93.0122 163.414 93.0542 162.984 93.0017 162.564C92.9492 162.145 92.7919 161.741 92.7447 161.321C92.6975 160.902 92.7499 160.472 92.708 160.057C92.666 159.643 92.5191 159.228 92.4772 158.809C92.4352 158.389 92.4929 157.964 92.4562 157.545C92.4195 157.125 92.2726 156.716 92.2464 156.291C92.2202 155.866 92.1939 155.452 92.1677 155.027C92.1415 154.602 92.2254 154.182 92.2097 153.758C92.1939 153.333 92.1152 152.918 92.0995 152.499C92.0838 152.079 92.0366 151.659 92.0261 151.235C92.0156 150.81 91.9946 150.39 91.9894 149.97C91.9841 149.551 92.0156 149.126 92.0156 148.706C92.0156 148.287 92.0366 147.862 92.0418 147.442C92.0471 147.023 92.089 146.603 92.0943 146.178C92.0995 145.753 92.0733 145.334 92.0838 144.914C92.0943 144.494 92.0628 144.069 92.0838 143.65C92.1048 143.23 92.1729 142.811 92.1939 142.391C92.2149 141.971 92.2621 141.552 92.2883 141.132C92.3146 140.712 92.3565 140.293 92.388 139.873C92.4195 139.454 92.3828 139.029 92.4142 138.609C92.4457 138.189 92.5296 137.775 92.5663 137.355C92.6031 136.936 92.6135 136.516 92.6555 136.097C92.6975 135.677 92.7499 135.257 92.8024 134.843C92.8548 134.429 92.9965 134.019 93.0489 133.6C93.1014 133.18 93.1328 132.761 93.1853 132.346C93.2377 131.932 93.2535 131.507 93.3164 131.087C93.3794 130.668 93.4738 130.259 93.542 129.844C93.6102 129.43 93.7151 129.021 93.7833 128.606C93.8514 128.192 93.9301 127.778 94.0036 127.363C94.077 126.949 94.1452 126.534 94.2291 126.12C94.313 125.706 94.2816 125.27 94.3655 124.861C94.4494 124.452 94.6487 124.059 94.7379 123.65C94.8271 123.24 94.8428 122.81 94.9372 122.401C95.0316 121.992 95.189 121.593 95.2887 121.184C95.3883 120.775 95.3883 120.345 95.4932 119.936C95.5981 119.527 95.7135 119.123 95.8184 118.714C95.9233 118.305 96.044 117.901 96.1541 117.497C96.2643 117.093 96.3797 116.684 96.4951 116.28C96.6105 115.876 96.7888 115.488 96.9042 115.084C97.0196 114.68 97.1717 114.287 97.2924 113.883C97.413 113.479 97.4445 113.049 97.5756 112.645C97.7067 112.241 97.8274 111.842 97.9585 111.444C98.0896 111.045 98.3099 110.673 98.4463 110.274C98.5827 109.875 98.7401 109.487 98.8817 109.089C99.0233 108.69 99.0443 108.249 99.1912 107.856L99.1964 107.861Z" fill="#6B8EBF"/>
<path d="M177.922 109.067C178.111 109.739 178.321 110.405 178.525 111.071C178.72 111.7 178.803 112.351 178.971 112.985C179.333 114.333 179.648 115.697 179.942 117.061C180.235 118.425 180.487 119.736 180.812 121.063C180.97 121.693 181.075 122.364 181.111 123.014C181.132 123.382 181.159 123.744 181.222 124.111C181.274 124.436 181.368 124.761 181.389 125.092C181.41 125.422 181.379 125.768 181.389 126.109C181.405 126.471 181.468 126.823 181.505 127.179C181.573 127.872 181.51 128.574 181.562 129.267C181.615 129.959 181.62 130.662 181.583 131.36C181.568 131.68 181.51 131.989 181.479 132.304C181.442 132.687 181.473 133.064 181.479 133.447C181.5 134.087 181.305 134.701 181.305 135.341C181.305 135.682 181.337 136.018 181.321 136.358C181.305 136.741 181.248 137.114 181.227 137.497C181.211 137.817 181.237 138.131 181.263 138.451C181.29 138.813 181.274 139.17 181.258 139.527C181.232 140.245 181.248 140.959 181.248 141.677C181.248 142.438 181.248 143.198 181.337 143.959C181.384 144.358 181.489 144.735 181.583 145.129C181.657 145.438 181.662 145.748 181.694 146.068C181.772 146.828 182.071 147.52 182.286 148.244C182.517 149.01 182.848 149.697 183.199 150.416C183.388 150.799 183.928 150.904 184.274 150.699C184.662 150.474 184.746 150.007 184.558 149.624C184.274 149.047 184.007 148.507 183.823 147.893C183.65 147.316 183.367 146.728 183.272 146.13C183.22 145.795 183.225 145.449 183.173 145.113C183.126 144.809 183.036 144.515 182.963 144.211C182.811 143.592 182.806 142.894 182.811 142.259C182.811 141.562 182.811 140.864 182.811 140.167C182.811 139.469 182.848 138.777 182.8 138.079C182.753 137.381 182.905 136.689 182.895 135.991C182.89 135.677 182.863 135.362 182.89 135.042C182.916 134.722 182.994 134.397 183.031 134.072C183.11 133.384 183 132.697 183.084 132.005C183.168 131.313 183.178 130.615 183.168 129.917C183.157 129.22 183.105 128.569 183.099 127.887C183.094 127.205 182.942 126.503 182.952 125.8C182.952 125.443 182.963 125.097 182.916 124.74C182.869 124.383 182.769 124.006 182.722 123.633C182.632 122.941 182.606 122.243 182.491 121.551C182.386 120.901 182.192 120.276 182.071 119.626C181.951 118.976 181.819 118.299 181.673 117.638C181.326 116.112 181.022 114.575 180.618 113.064C180.429 112.366 180.325 111.653 180.13 110.961C179.915 110.19 179.658 109.424 179.438 108.653C179.165 107.677 177.644 108.092 177.922 109.072V109.067Z" fill="#4E719B"/>
<path d="M155.174 62.4786C155.164 62.8825 155.243 63.2811 155.248 63.685C155.253 64.0889 155.274 64.4876 155.29 64.8862C155.305 65.2849 155.201 65.694 155.227 66.0979C155.253 66.5018 155.326 66.8952 155.363 67.299C155.4 67.7029 155.463 68.0963 155.51 68.495C155.557 68.8936 155.526 69.3027 155.583 69.7014C155.641 70.1 155.751 70.4882 155.82 70.8868C155.888 71.2855 156.045 71.6631 156.124 72.0565C156.202 72.4499 156.281 72.8433 156.37 73.2367C156.459 73.6301 156.57 74.013 156.669 74.4012C156.748 74.7002 156.821 75.0988 156.664 75.3506C156.507 75.6024 156.134 75.6548 155.856 75.6863C155.426 75.7282 154.996 75.7492 154.566 75.7859C154.136 75.8227 153.706 75.8856 153.276 75.9171C152.845 75.9485 152.41 75.9748 151.98 75.9957C151.55 76.0167 151.114 75.9223 150.679 75.9328C150.244 75.9433 149.819 76.0272 149.384 76.0325C148.948 76.0377 148.518 75.9538 148.088 75.9538C147.658 75.9538 147.222 75.9748 146.792 75.9643C146.362 75.9538 145.927 75.9485 145.497 75.9328C145.067 75.9171 144.631 75.9171 144.201 75.8908C143.771 75.8646 143.336 75.8489 142.906 75.8122C142.475 75.7754 142.056 75.6233 141.626 75.5814C141.196 75.5394 140.76 75.5499 140.33 75.5027C139.9 75.4555 139.475 75.3873 139.045 75.3296C138.615 75.2719 138.19 75.1932 137.765 75.125C137.634 75.1041 137.529 75.0673 137.435 74.9729C137.283 74.8156 137.251 74.5848 137.288 74.3592C137.351 73.9343 137.346 73.499 137.403 73.0741C137.461 72.6493 137.629 72.2349 137.676 71.81C137.723 71.3851 137.671 70.9445 137.713 70.5144C137.755 70.0843 137.781 69.6594 137.818 69.2293C137.854 68.7992 137.912 68.3743 137.944 67.9442C137.975 67.5141 138.085 67.0892 138.111 66.6644C138.138 66.2395 138.18 65.8041 138.195 65.374C138.211 64.9439 138.09 64.5085 138.101 64.0784C138.111 63.6483 138.169 63.2182 138.174 62.7881C138.18 62.358 138.216 61.9279 138.216 61.4977C138.216 61.0676 138.174 60.6375 138.164 60.2074C138.153 59.7773 138.195 59.3472 138.185 58.9171C138.174 58.4869 138.08 58.0621 138.059 57.632" fill="#EBBEA7"/>
<path d="M172.75 48.0133C172.63 48.4277 172.472 48.8316 172.347 49.2407C172.221 49.6498 172.158 50.0852 172.027 50.4943C171.896 50.9035 171.754 51.3126 171.612 51.7165C171.471 52.1204 171.261 52.5085 171.114 52.9072C170.967 53.3058 170.93 53.7622 170.768 54.1556C170.605 54.549 170.332 54.9056 170.154 55.2938C169.976 55.6819 169.792 56.0701 169.593 56.453C169.393 56.8359 169.273 57.2608 169.053 57.6279C168.832 57.9951 168.539 58.3203 168.297 58.677C168.056 59.0337 167.846 59.4114 167.573 59.747C167.301 60.0827 166.981 60.3712 166.692 60.6912C166.404 61.0112 166.168 61.3731 165.848 61.6721C165.528 61.9711 165.161 62.1861 164.82 62.4589C164.51 62.7106 164.227 62.9939 163.902 63.2247C163.576 63.4555 163.23 63.66 162.895 63.8699C162.559 64.0797 162.186 64.2318 161.835 64.4206C161.484 64.6094 161.174 64.877 160.817 65.05C160.461 65.2231 160.052 65.2861 159.684 65.433C159.317 65.5798 158.94 65.7005 158.562 65.8264C158.184 65.9522 157.838 66.1883 157.455 66.2932C157.072 66.3981 156.653 66.3614 156.265 66.44C155.876 66.5187 155.499 66.6604 155.105 66.7181C154.654 66.7862 154.219 66.8544 153.789 66.8649C153.359 66.8754 152.902 66.781 152.467 66.76C152.032 66.739 151.586 66.7338 151.145 66.7128C150.704 66.6918 150.269 66.6184 149.823 66.6184C149.404 66.6184 148.989 66.7076 148.575 66.7285C148.161 66.7495 147.741 66.802 147.327 66.8282C146.912 66.8544 146.487 66.7705 146.073 66.7862C145.659 66.802 145.244 66.9016 144.825 66.8911C144.405 66.8807 143.985 66.8912 143.571 66.8387C143.151 66.7862 142.747 66.6132 142.333 66.545C141.919 66.4768 141.504 66.3981 141.09 66.3089C140.675 66.2197 140.235 66.2512 139.831 66.1463C139.427 66.0414 139.044 65.8159 138.646 65.69C138.247 65.5641 137.843 65.4277 137.45 65.2861C137.056 65.1445 136.673 64.9661 136.285 64.793C135.897 64.6199 135.519 64.4468 135.147 64.2528C134.775 64.0587 134.376 63.9066 134.014 63.6863C133.652 63.466 133.29 63.2509 132.944 63.0096C132.598 62.7683 132.267 62.5061 131.942 62.2386C131.617 61.9711 131.297 61.6983 130.987 61.4046C130.678 61.1108 130.41 60.7961 130.122 60.4814C129.833 60.1667 129.576 59.8467 129.314 59.511C129.052 59.1753 128.784 58.8554 128.548 58.5039C128.312 58.1525 128.113 57.7853 127.903 57.4129C127.693 57.0405 127.452 56.7153 127.253 56.3533C127.053 55.9914 126.838 55.6347 126.644 55.2728C126.45 54.9109 126.293 54.5175 126.104 54.1556C125.915 53.7936 125.737 53.4107 125.553 53.0436C125.37 52.6764 125.233 52.2777 125.06 51.9053C124.887 51.5329 124.683 51.171 124.515 50.7933C124.347 50.4157 124.137 50.0537 123.98 49.6708C123.822 49.2879 123.759 48.8683 123.618 48.4801C123.476 48.092 123.329 47.7091 123.198 47.3157C123.067 46.9223 122.841 46.5604 122.721 46.167C122.6 45.7736 122.579 45.3487 122.48 44.9448C122.38 44.5409 122.249 44.1528 122.16 43.7489C122.07 43.345 122.034 42.9359 121.966 42.5267C121.897 42.1176 121.792 41.719 121.745 41.3098C121.698 40.9007 121.667 40.4916 121.63 40.0772C121.593 39.6628 121.646 39.2537 121.63 38.8393C121.614 38.4249 121.514 38.021 121.514 37.6014C121.514 37.1818 121.53 36.7779 121.551 36.3583C121.572 35.9334 121.646 35.5138 121.693 35.0889C121.74 34.664 121.708 34.2287 121.777 33.8143C121.845 33.3999 121.924 32.975 122.018 32.5607C122.112 32.1463 122.317 31.7581 122.427 31.349C122.537 30.9399 122.595 30.5097 122.731 30.1111C122.868 29.7125 123.104 29.3453 123.266 28.9519C123.429 28.5585 123.497 28.1284 123.675 27.7402C123.854 27.3521 124.027 26.9639 124.226 26.5863C124.426 26.2086 124.672 25.8624 124.892 25.4952C125.113 25.1281 125.343 24.7766 125.58 24.42C125.816 24.0633 126.12 23.759 126.372 23.4233C126.623 23.0876 126.796 22.6785 127.069 22.3481C127.342 22.0176 127.667 21.7396 127.956 21.4249C128.244 21.1102 128.496 20.764 128.795 20.465C129.094 20.166 129.44 19.909 129.755 19.6205C130.069 19.332 130.452 19.1327 130.783 18.8599C131.113 18.5872 131.397 18.2672 131.737 18.0102C132.078 17.7532 132.461 17.5643 132.813 17.3283C133.164 17.0923 133.453 16.7566 133.82 16.5363C134.187 16.316 134.544 16.0904 134.916 15.8806C135.289 15.6708 135.682 15.5134 136.065 15.3246C136.448 15.1358 136.831 14.9522 137.219 14.7791C137.607 14.606 138.027 14.5063 138.42 14.349C138.813 14.1916 139.223 14.0815 139.626 13.9451C140.03 13.8087 140.413 13.6146 140.817 13.494C141.221 13.3734 141.625 13.2212 142.039 13.1216C142.454 13.0219 142.868 12.938 143.288 12.8541C143.707 12.7701 144.127 12.7072 144.547 12.639C144.966 12.5708 145.396 12.5813 145.821 12.5341C146.246 12.4869 146.666 12.4449 147.09 12.4187C147.51 12.3925 147.93 12.361 148.349 12.3558C148.769 12.3505 149.189 12.3663 149.608 12.382C150.028 12.3977 150.453 12.34 150.872 12.3767C151.292 12.4135 151.706 12.5131 152.121 12.5708C152.535 12.6285 152.944 12.7229 153.359 12.8016C153.773 12.8803 154.182 12.9642 154.591 13.0639C155 13.1635 155.415 13.2422 155.813 13.3629C156.212 13.4835 156.611 13.6304 157.004 13.772C157.397 13.9136 157.775 14.1025 158.163 14.2598C158.551 14.4172 158.929 14.5955 159.307 14.7738C159.684 14.9522 160.046 15.162 160.419 15.3561C160.791 15.5502 161.164 15.7337 161.526 15.954C161.887 16.1743 162.281 16.3317 162.627 16.5677C162.973 16.8038 163.283 17.0975 163.618 17.3493C163.954 17.6011 164.274 17.8686 164.594 18.1413C164.914 18.4141 165.25 18.6606 165.559 18.9491C165.869 19.2376 166.215 19.4789 166.509 19.7831C166.802 20.0873 167.107 20.4125 167.39 20.7325C167.673 21.0525 167.925 21.4144 168.192 21.7501C168.46 22.0858 168.643 22.4897 168.89 22.8411C169.136 23.1926 169.425 23.5178 169.656 23.8797C169.887 24.2416 170.075 24.6298 170.285 25.0022C170.495 25.3746 170.778 25.7155 170.972 26.0985C171.166 26.4814 171.261 26.9167 171.434 27.3101C171.607 27.7035 171.764 28.1022 171.922 28.5008C172.079 28.8994 172.289 29.2823 172.425 29.6915C172.562 30.1006 172.604 30.536 172.719 30.9504C172.834 31.3647 172.955 31.7739 173.055 32.1935C173.154 32.6131 173.301 33.017 173.385 33.4419C173.469 33.8667 173.605 34.2759 173.674 34.7007C173.742 35.1256 173.758 35.5557 173.815 35.9858C173.873 36.416 173.857 36.8461 173.899 37.2762C173.941 37.7063 174.067 38.1259 174.099 38.556C174.125 38.9494 174.041 39.3533 174.041 39.7572C174.041 40.1611 174.041 40.5492 174.02 40.9531C173.999 41.357 174.02 41.7504 173.978 42.1491C173.936 42.5477 173.904 42.9411 173.842 43.3398C173.779 43.7384 173.768 44.137 173.689 44.5304C173.611 44.9238 173.438 45.291 173.348 45.6844C173.259 46.0778 173.244 46.4817 173.139 46.8698C173.034 47.258 172.866 47.6252 172.75 48.0081V48.0133Z" fill="#EBBEA7"/>
<path d="M116.501 51.5791C116.795 51.8939 117.088 52.2191 117.419 52.4971C117.739 52.7646 118.132 52.9901 118.531 53.2104C118.903 53.415 119.323 53.5619 119.742 53.7192C120.162 53.8766 120.555 54.0392 120.986 54.1388C121.416 54.2385 121.846 54.3329 122.281 54.3801C122.717 54.4273 123.162 54.3487 123.598 54.3434C124.033 54.3382 124.484 54.3801 124.909 54.3224C125.334 54.2647 125.785 54.1598 126.189 54.0339C126.619 53.8976 127.033 53.7402 127.401 53.5251C127.768 53.3101 128.13 53.0164 128.429 52.7069C128.728 52.3974 128.99 52.0407 129.184 51.6368C129.362 51.2644 129.441 50.8291 129.509 50.3727C129.567 49.9688 129.604 49.5387 129.567 49.0666C129.535 48.6837 129.42 48.2851 129.347 47.8602C129.284 47.4721 129.284 47.0524 129.189 46.6381C129.1 46.2499 129.011 45.846 128.901 45.4421C128.791 45.0383 128.701 44.6501 128.57 44.2515C128.439 43.8528 128.214 43.5119 128.061 43.129C127.909 42.7461 127.768 42.3631 127.6 41.9855C127.432 41.6078 127.233 41.2511 127.044 40.8892C126.855 40.5273 126.75 40.1077 126.546 39.7562C126.341 39.4048 125.995 39.1268 125.769 38.7911C125.544 38.4554 125.35 38.0777 125.093 37.763C124.836 37.4483 124.589 37.0969 124.301 36.8136C124.012 36.5304 123.687 36.2471 123.367 36.0006C123.047 35.7541 122.638 35.602 122.281 35.4131C121.924 35.2243 121.552 35.025 121.164 34.9096C120.744 34.7889 120.309 34.6893 119.874 34.663C119.438 34.6368 118.992 34.6631 118.557 34.726C118.122 34.7889 117.713 34.962 117.303 35.1194C116.894 35.2768 116.501 35.4603 116.134 35.7016C115.74 35.9586 115.326 36.2052 115.006 36.5409C114.686 36.8766 114.387 37.2595 114.14 37.6581C113.894 38.0568 113.784 38.5288 113.611 38.9642C113.438 39.3996 113.207 39.8192 113.107 40.2755C113.007 40.7319 113.049 41.2092 113.018 41.676C112.987 42.1428 112.95 42.6044 112.981 43.0713C113.013 43.5381 113.076 43.9997 113.154 44.4613C113.233 44.9229 113.301 45.3844 113.427 45.8355C113.543 46.2552 113.7 46.6643 113.847 47.0787C113.994 47.4931 114.203 47.876 114.387 48.2694C114.571 48.6628 114.749 49.0666 114.969 49.4391C115.19 49.8115 115.394 50.2049 115.656 50.5563C115.919 50.9077 116.186 51.2592 116.485 51.5791H116.501Z" fill="#EBBEA7"/>
<path d="M117.361 43.8379C117.906 43.99 118.446 44.0582 118.966 44.2837C119.527 44.5303 120.088 44.6142 120.676 44.7768C121.824 45.0968 122.926 45.5374 124.059 45.894C125.029 46.1983 125.444 44.6771 124.478 44.3782C123.345 44.0215 122.239 43.5809 121.095 43.2609C120.571 43.114 120.051 43.0511 119.543 42.8308C118.96 42.579 118.378 42.4898 117.775 42.322C116.799 42.044 116.38 43.5651 117.355 43.8379H117.361Z" fill="#A55535"/>
<path d="M159.726 43.6529C159.878 43.5585 159.648 43.6529 159.742 43.6371C159.842 43.6214 159.847 43.6319 159.747 43.6266C159.81 43.6266 159.952 43.6634 159.795 43.6162C159.836 43.6266 159.878 43.6371 159.92 43.6476C160.094 43.6948 159.821 43.5742 159.973 43.6686C159.994 43.6791 160.13 43.784 160.052 43.7158C159.973 43.6476 160.125 43.7945 160.12 43.7893C160.219 43.8837 160.114 43.7525 160.146 43.8207C160.172 43.8679 160.204 43.9151 160.23 43.9623C160.303 44.083 160.225 43.9047 160.235 43.9833C160.246 44.0358 160.267 44.0882 160.277 44.1407C160.277 44.1407 160.309 44.34 160.298 44.2299C160.288 44.1197 160.298 44.298 160.298 44.3243C160.298 44.403 160.298 44.4816 160.298 44.5603C160.298 44.6128 160.293 44.6652 160.288 44.7177C160.267 44.9642 160.319 44.576 160.272 44.8226C160.225 45.0691 160.177 45.3419 160.078 45.5831C160.12 45.4835 160.062 45.6094 160.041 45.6461C160.01 45.7038 159.978 45.7562 159.947 45.8087C159.915 45.8559 159.884 45.9031 159.852 45.9503C159.805 46.0238 159.926 45.8769 159.826 45.9765C159.742 46.0605 159.663 46.1444 159.574 46.2231C159.406 46.3699 159.684 46.1496 159.506 46.2755C159.459 46.307 159.412 46.3437 159.364 46.3752C159.265 46.4381 159.165 46.5011 159.06 46.5535C159.008 46.5798 158.913 46.6112 159.018 46.5745C158.95 46.5955 158.882 46.6165 158.808 46.6375C158.41 46.7371 158.132 47.2092 158.258 47.6078C158.394 48.0222 158.798 48.2635 159.228 48.1586C159.905 47.996 160.592 47.5239 161.027 46.9889C161.562 46.3332 161.788 45.5517 161.861 44.7177C161.929 43.9676 161.73 43.1598 161.174 42.6248C160.581 42.0531 159.653 41.8537 158.929 42.2891C158.578 42.4989 158.415 43.0077 158.646 43.3644C158.877 43.7211 159.343 43.8732 159.721 43.6476L159.726 43.6529Z" fill="#2B2927"/>
<path d="M149.142 49.497C148.602 50.0477 148.103 50.6876 147.642 51.3013C147.18 51.915 146.766 52.5602 146.498 53.2788C146.231 53.9974 146.01 54.7055 145.806 55.4346C145.575 56.2529 145.481 57.0187 145.481 57.8685C145.481 58.5451 146.53 58.5451 146.53 57.8685C146.53 57.4855 146.525 57.0974 146.572 56.7145C146.614 56.3735 146.724 56.0431 146.818 55.7126C147.018 55.0203 147.233 54.3489 147.474 53.667C147.715 52.9851 148.109 52.4238 148.518 51.8783C148.927 51.3328 149.394 50.7349 149.887 50.2365C150.38 49.7382 149.619 49.0144 149.147 49.497H149.142Z" fill="#BC7F6C"/>
<path d="M139.758 40.9313C139.433 40.9313 139.108 40.9313 138.782 40.9313C138.74 40.9313 138.698 40.9313 138.656 40.9261C138.52 40.8894 138.614 40.9208 138.656 40.9261C138.583 40.9051 138.499 40.8998 138.426 40.8894C138.232 40.8526 138.038 40.8212 137.843 40.8212C137.571 40.8212 137.308 41.0625 137.319 41.3457C137.329 41.6289 137.55 41.865 137.843 41.8702C137.885 41.8702 137.927 41.8702 137.969 41.8755C138.011 41.8807 138.132 41.9122 137.99 41.8755C138.058 41.8965 138.132 41.9017 138.2 41.9122C138.394 41.9489 138.588 41.9804 138.782 41.9856C139.108 41.9909 139.433 41.9856 139.758 41.9856C140.031 41.9856 140.293 41.7443 140.283 41.4611C140.272 41.1778 140.052 40.9366 139.758 40.9366V40.9313Z" fill="#BC7F6C"/>
<path d="M140.025 43.1041C139.469 43.1723 138.913 43.209 138.357 43.2824C138.21 43.2982 138.095 43.3296 137.985 43.4345C137.896 43.5237 137.827 43.6758 137.833 43.807C137.838 43.9381 137.885 44.085 137.985 44.1794C138.079 44.2685 138.221 44.3525 138.357 44.3315C138.913 44.2633 139.469 44.2266 140.025 44.1531C140.172 44.1374 140.287 44.1059 140.398 44.001C140.487 43.9119 140.555 43.7597 140.55 43.6286C140.544 43.4975 140.497 43.3506 140.398 43.2562C140.303 43.167 140.161 43.0831 140.025 43.1041Z" fill="#BC7F6C"/>
<path d="M132.215 30.6448C132.294 30.5294 132.446 30.4664 132.53 30.3563C132.771 30.0311 132.981 29.6796 133.27 29.3964C133.558 29.1131 133.847 28.8299 134.161 28.5729C134.476 28.3159 134.843 28.1323 135.168 27.8857C135.494 27.6392 135.766 27.335 136.081 27.078C136.396 26.8209 136.774 26.6374 137.067 26.3594C137.361 26.0814 137.618 25.7562 137.87 25.4414C138.148 25.0952 138.316 24.6651 138.515 24.2455C138.714 23.8259 138.919 23.4325 139.087 23.0129C139.255 22.5932 139.386 22.1421 139.575 21.7435C139.774 21.3134 140.041 20.941 140.319 20.6105C140.603 20.2696 140.87 19.8972 141.18 19.5667C141.489 19.2362 141.809 18.911 142.15 18.6173C142.491 18.3236 142.858 18.0351 143.241 17.8043C143.624 17.5735 144.054 17.4004 144.484 17.2588C144.914 17.1171 145.355 17.0594 145.816 17.0332C146.299 17.0017 146.719 17.0857 147.102 17.1696C147.558 17.2693 147.946 17.4109 148.297 17.6364C148.649 17.862 149.032 18.1138 149.315 18.4547C149.598 18.7956 149.766 19.189 149.986 19.5772C150.207 19.9653 150.443 20.3115 150.642 20.7049C150.841 21.0983 151.015 21.4917 151.224 21.8694C151.434 22.247 151.649 22.6352 151.906 22.9814C152.142 23.3014 152.426 23.5846 152.677 23.8888C152.929 24.1931 153.144 24.5392 153.417 24.8225C153.69 25.1057 154.004 25.3575 154.293 25.6303C154.581 25.903 154.828 26.223 155.132 26.48C155.436 26.737 155.762 26.9678 156.076 27.2091C156.391 27.4504 156.737 27.6497 157.062 27.8805C157.388 28.1113 157.702 28.3578 158.033 28.5729C158.363 28.7879 158.73 28.961 159.071 29.1604C159.412 29.3597 159.753 29.5642 160.099 29.7583C160.446 29.9524 160.834 30.0993 161.196 30.2881C161.558 30.4769 161.867 30.7497 162.234 30.9333C162.601 31.1168 163.005 31.206 163.372 31.3791C163.74 31.5522 164.102 31.7358 164.469 31.9036C164.836 32.0715 165.214 32.2236 165.586 32.3862C165.958 32.5488 166.284 32.8111 166.656 32.9737C167.028 33.1363 167.411 33.2674 167.784 33.4353C168.156 33.6031 168.513 33.792 168.88 33.9598C169.247 34.1276 169.641 34.2483 170.008 34.4214C170.375 34.5945 170.711 34.8253 171.078 35.0036C171.445 35.182 171.817 35.3393 172.174 35.5229C172.531 35.7065 172.898 35.8901 173.255 36.0841C173.8 36.3884 174.361 36.7398 174.986 36.7555C175.374 36.766 175.736 36.6559 176.05 36.4671C176.365 36.2782 176.627 36.0212 176.863 35.717C177.084 35.4337 177.325 35.1295 177.482 34.7886C177.64 34.4476 177.703 34.0595 177.792 33.7185C177.897 33.3199 177.97 32.916 178.044 32.5121C178.117 32.1082 178.227 31.7043 178.264 31.2952C178.301 30.8861 178.238 30.4717 178.243 30.0573C178.248 29.6429 178.274 29.239 178.248 28.8247C178.222 28.4103 178.148 28.0116 178.091 27.6025C178.033 27.1934 178.044 26.779 177.96 26.3751C177.876 25.9712 177.703 25.5935 177.592 25.1949C177.482 24.7963 177.44 24.3819 177.304 23.9937C177.168 23.6056 176.953 23.2489 176.79 22.8712C176.627 22.4936 176.47 22.1159 176.281 21.7487C176.092 21.3816 175.961 20.9829 175.751 20.6315C175.542 20.2801 175.243 19.9811 175.012 19.6401C174.781 19.2992 174.555 18.9582 174.304 18.633C174.052 18.3078 173.842 17.9459 173.569 17.6364C173.297 17.327 172.95 17.0909 172.662 16.7972C172.358 16.493 172.095 16.1468 171.781 15.8688C171.466 15.5908 171.141 15.297 170.805 15.0348C170.469 14.7725 170.05 14.6204 169.698 14.3791C169.347 14.1378 169.043 13.8231 168.675 13.608C168.308 13.393 167.936 13.1832 167.558 12.9838C167.181 12.7845 166.787 12.6114 166.399 12.4331C166.011 12.2548 165.617 12.0869 165.224 11.9295C164.831 11.7722 164.448 11.5676 164.044 11.426C163.64 11.2844 163.236 11.1427 162.832 11.0169C162.428 10.891 162.014 10.7808 161.6 10.6654C161.185 10.55 160.766 10.4923 160.351 10.3874C159.937 10.2825 159.512 10.2301 159.098 10.1304C158.683 10.0307 158.279 9.89437 157.86 9.79995C157.44 9.70554 157.041 9.64259 156.627 9.55342C156.213 9.46425 155.819 9.33836 155.405 9.26493C154.99 9.1915 154.571 9.17576 154.156 9.11282C153.742 9.04987 153.328 9.01316 152.908 8.9607C152.488 8.90825 152.085 8.78761 151.665 8.75089C151.245 8.71417 150.831 8.67746 150.411 8.65648C149.992 8.63549 149.572 8.63025 149.152 8.63025C148.733 8.63025 148.313 8.64074 147.894 8.65648C147.474 8.67221 147.054 8.67746 146.635 8.71417C146.215 8.75089 145.801 8.83482 145.392 8.89776C144.982 8.9607 144.579 9.10757 144.169 9.19674C143.76 9.28591 143.325 9.27018 142.921 9.38557C142.517 9.50097 142.166 9.75799 141.772 9.90486C141.442 10.0307 141.096 10.1147 140.76 10.2406C140.424 10.3664 140.073 10.4084 139.727 10.4976C139.312 10.6077 138.898 10.6654 138.473 10.7231C138.048 10.7808 137.644 10.9329 137.219 11.0011C136.81 11.0641 136.391 11.085 135.992 11.1795C135.593 11.2739 135.189 11.3893 134.796 11.5099C134.403 11.6306 134.025 11.8194 133.647 11.9715C133.27 12.1236 132.871 12.26 132.499 12.4383C132.126 12.6167 131.738 12.774 131.381 12.9786C131.025 13.1832 130.71 13.4664 130.369 13.6972C130.028 13.928 129.687 14.1588 129.357 14.4106C129.026 14.6623 128.732 14.9508 128.423 15.2183C128.114 15.4859 127.783 15.7376 127.484 16.0261C127.185 16.3146 126.907 16.6188 126.629 16.9231C126.351 17.2273 126.015 17.4843 125.753 17.8043C125.491 18.1242 125.244 18.4599 124.998 18.7904C124.751 19.1208 124.578 19.5038 124.347 19.8499C124.117 20.1961 123.812 20.4899 123.597 20.8413C123.382 21.1927 123.283 21.6124 123.089 21.9795C122.905 22.3257 122.601 22.6195 122.407 22.9866C122.213 23.3538 122.144 23.7524 121.961 24.1196C121.777 24.4868 121.499 24.791 121.326 25.1582C121.153 25.5254 121.027 25.9083 120.875 26.2859C120.723 26.6636 120.613 27.0517 120.487 27.4346C120.361 27.8176 120.272 28.2162 120.172 28.6043C120.073 28.9925 119.941 29.3859 119.878 29.7793C119.815 30.1727 119.805 30.5871 119.795 30.9857C119.784 31.3844 119.747 31.7987 119.8 32.1974C119.852 32.596 119.957 32.9894 120.083 33.3776C120.209 33.7657 120.419 34.0962 120.618 34.4581C120.807 34.799 121.022 35.1295 121.295 35.4495C121.541 35.7484 121.73 36.1104 122.013 36.3779C122.297 36.6454 122.585 36.9129 122.894 37.1542C123.204 37.3955 123.545 37.5843 123.87 37.7994C124.195 38.0144 124.541 38.198 124.877 38.3921C125.213 38.5862 125.58 38.7278 125.926 38.9061C126.293 39.1002 126.671 39.3834 127.08 39.4674C127.516 39.5565 127.961 39.4883 128.329 39.2471C128.58 39.0792 128.701 38.7855 128.864 38.5337C129.084 38.1875 129.351 37.8728 129.53 37.5004C129.708 37.128 129.902 36.766 130.049 36.3779C130.196 35.9897 130.296 35.5911 130.421 35.2029C130.547 34.8148 130.652 34.4161 130.778 34.0227C130.904 33.6293 131.014 33.2359 131.161 32.853C131.308 32.4701 131.439 32.0767 131.617 31.7096C131.796 31.3424 132 30.9805 132.226 30.6343L132.215 30.6448Z" fill="#97928C"/>
<path d="M145.282 21.5968C145.402 21.366 145.565 21.1876 145.738 20.9988C145.948 20.7628 146.137 20.511 146.336 20.2645C146.672 19.8396 147.091 19.5983 147.574 19.3623C148.056 19.1262 148.55 18.8745 149.095 18.8745C149.405 18.8745 149.714 18.8902 150.023 18.8849C150.296 18.8797 150.574 18.8587 150.842 18.9112C151.256 18.9899 151.691 18.7958 151.812 18.3604C151.917 17.9775 151.681 17.474 151.261 17.39C150.553 17.2537 149.814 17.3009 149.095 17.3009C148.298 17.3009 147.59 17.6103 146.887 17.9513C146.247 18.2608 145.644 18.6174 145.198 19.1839C144.783 19.7137 144.243 20.2068 143.928 20.8047C143.729 21.1771 143.834 21.6597 144.212 21.88C144.568 22.0898 145.088 21.9744 145.287 21.5968H145.282Z" fill="#97928C"/>
<path d="M148.434 23.2226C149.388 22.9236 150.38 22.8712 151.371 23.0076C151.822 23.0705 152.163 23.2541 152.562 23.4639C152.997 23.6947 153.448 23.8888 153.847 24.1825C154.188 24.4343 154.723 24.2402 154.922 23.8993C155.158 23.5006 154.985 23.0757 154.639 22.824C154.209 22.5093 153.726 22.3047 153.259 22.0529C152.714 21.7592 152.2 21.5441 151.581 21.4602C150.385 21.3028 149.173 21.3396 148.014 21.7067C147.61 21.8326 147.348 22.2522 147.463 22.6771C147.579 23.102 148.024 23.3538 148.434 23.2279V23.2226Z" fill="#97928C"/>
<path d="M148.843 80.4661C149.089 80.2248 149.315 79.9521 149.519 79.6636C149.724 79.3751 149.881 79.0708 150.028 78.7509C150.196 78.3837 150.311 77.9956 150.437 77.6127C150.563 77.2297 150.647 76.8364 150.747 76.443C150.846 76.0496 150.998 75.6929 151.093 75.2995C151.135 75.6929 151.15 76.0758 151.245 76.4639C151.339 76.8521 151.544 77.2035 151.685 77.5707C151.827 77.9379 151.927 78.3313 152.116 78.6827C152.304 79.0341 152.593 79.3174 152.824 79.6426C153.117 80.0465 153.38 80.4871 153.752 80.8228C154.125 81.1585 154.565 81.4102 155.021 81.6201C155.478 81.8299 155.971 81.9558 156.469 81.9715C156.967 81.9872 157.503 81.9505 157.948 81.7197C158.405 81.4837 158.809 81.106 159.102 80.6759C159.396 80.2458 159.511 79.7213 159.637 79.2282C159.732 78.8505 159.826 78.4676 159.863 78.069C159.9 77.6704 159.831 77.2874 159.821 76.8888C159.81 76.4902 159.858 76.0968 159.81 75.7086C159.763 75.3205 159.758 74.9113 159.695 74.5284C159.632 74.1455 159.443 73.7626 159.37 73.3849C159.291 72.9601 159.27 72.5037 159.092 72.1103C158.982 71.8638 158.793 71.612 158.552 71.4757C158.268 71.3183 157.906 71.3917 157.592 71.4547C157.167 71.5334 156.742 71.6173 156.317 71.6855C155.892 71.7537 155.462 71.8166 155.032 71.8743C154.602 71.932 154.172 71.974 153.742 72.0212C153.312 72.0684 152.887 72.1471 152.457 72.189C152.026 72.231 151.586 72.1733 151.156 72.1995C150.726 72.2257 150.295 72.3674 149.865 72.3831C149.435 72.3988 149 72.3359 148.565 72.3359C148.129 72.3359 147.699 72.2939 147.269 72.2834C146.839 72.2729 146.403 72.3411 145.973 72.3201C145.543 72.2992 145.118 72.1838 144.683 72.1523C144.248 72.1208 143.812 72.2047 143.382 72.1628C142.952 72.1208 142.522 72.0841 142.092 72.0264C141.662 71.9687 141.253 71.8009 140.822 71.7327C140.392 71.6645 139.973 71.5806 139.548 71.5019C139.123 71.4232 138.677 71.4652 138.252 71.376C137.827 71.2868 137.429 71.1032 137.009 70.9983C136.642 70.9092 136.312 71.0718 136.07 71.3026C135.829 71.5334 135.651 71.8533 135.703 72.2257C135.756 72.6191 135.808 73.0178 135.892 73.4112C135.976 73.8046 136.065 74.1927 136.18 74.5756C136.296 74.9585 136.521 75.3047 136.663 75.6719C136.805 76.0391 136.925 76.4272 137.093 76.7839C137.261 77.1406 137.455 77.492 137.649 77.8382C137.859 78.2001 138.053 78.583 138.305 78.9292C138.556 79.2754 138.808 79.6216 139.092 79.9311C139.375 80.2405 139.705 80.5238 140.03 80.7966C140.356 81.0693 140.702 81.3263 141.069 81.5361C141.436 81.746 141.819 81.9558 142.223 82.0869C142.627 82.218 143.057 82.2547 143.482 82.2915C143.87 82.3282 144.258 82.3124 144.646 82.281C145.034 82.2495 145.433 82.2547 145.811 82.1603C146.188 82.0659 146.524 81.8351 146.876 81.6778C147.227 81.5204 147.626 81.426 147.951 81.2109C148.276 80.9959 148.565 80.7231 148.843 80.4504V80.4661Z" fill="white"/>
<path d="M162.349 51.0186C162.58 51.4487 162.722 51.9155 162.895 52.3719C163.068 52.8282 163.194 53.2636 163.273 53.7409C163.357 54.2497 163.341 54.6903 163.241 55.1938C163.141 55.7236 163.089 56.2586 162.942 56.7779C162.759 57.4283 163.771 57.7063 163.954 57.0559C164.112 56.4947 164.164 55.9229 164.274 55.3564C164.395 54.7375 164.395 54.1972 164.301 53.573C164.217 53.017 164.065 52.5135 163.865 51.989C163.666 51.4644 163.514 50.9661 163.252 50.4888C162.932 49.8961 162.024 50.4259 162.344 51.0186H162.349Z" fill="#BC7F6C"/>
<path d="M117.35 95.7283C117.969 96.7039 118.567 97.6952 119.065 98.7338C119.306 99.2426 119.501 99.7724 119.758 100.271C120.015 100.769 120.277 101.189 120.492 101.676C120.943 102.71 121.237 103.806 121.614 104.871C121.992 105.936 122.364 107.053 122.658 108.17C122.952 109.287 123.12 110.389 123.403 111.485C123.686 112.581 123.723 113.772 123.985 114.895C124.111 115.43 124.158 115.949 124.216 116.489C124.274 117.029 124.415 117.606 124.442 118.173C124.468 118.802 124.478 119.395 124.599 120.014C124.699 120.544 124.709 121.084 124.746 121.619C124.819 122.768 124.893 123.927 124.908 125.076C124.924 126.224 125.034 127.336 125.076 128.469C125.118 129.602 125.024 130.772 125.045 131.931C125.066 133.091 125.144 134.239 125.176 135.388C125.192 135.954 125.144 136.521 125.155 137.087C125.165 137.654 125.171 138.22 125.144 138.787C125.118 139.353 125.197 139.957 125.202 140.549C125.207 141.142 125.176 141.682 125.165 142.249C125.155 142.815 125.15 143.382 125.155 143.948C125.16 144.515 125.255 145.118 125.265 145.711C125.276 146.303 125.27 146.844 125.281 147.41C125.291 147.977 125.354 148.538 125.417 149.104C125.48 149.671 125.548 150.285 125.543 150.862C125.543 151.475 125.506 152.037 125.658 152.64C125.721 152.881 125.779 153.112 125.784 153.364C125.79 153.657 125.763 153.956 125.784 154.25C125.821 154.853 125.868 155.493 125.989 156.086C126.047 156.353 126.136 156.616 126.188 156.883C126.241 157.151 126.241 157.413 126.262 157.675C126.304 158.273 126.44 158.85 126.55 159.438C126.765 160.571 127.017 161.693 127.295 162.816C127.431 163.366 127.552 163.917 127.694 164.468C127.951 165.449 129.467 165.029 129.21 164.048C128.916 162.936 128.659 161.809 128.397 160.686C128.134 159.564 127.888 158.473 127.814 157.361C127.772 156.752 127.604 156.196 127.494 155.603C127.395 155.068 127.347 154.476 127.353 153.93C127.358 153.311 127.311 152.76 127.164 152.157C127.033 151.622 127.148 151.087 127.111 150.542C127.033 149.388 126.886 148.249 126.854 147.09C126.839 146.503 126.87 145.91 126.828 145.328C126.786 144.746 126.734 144.2 126.734 143.628C126.734 143.057 126.75 142.495 126.75 141.929C126.75 141.362 126.807 140.754 126.765 140.166C126.723 139.579 126.713 139.044 126.739 138.467C126.765 137.89 126.729 137.292 126.729 136.705C126.729 136.117 126.77 135.572 126.729 135.005C126.687 134.439 126.666 133.83 126.645 133.243C126.603 132.12 126.55 130.966 126.645 129.844C126.739 128.721 126.587 127.536 126.534 126.387C126.482 125.238 126.445 124.084 126.377 122.93C126.309 121.745 126.298 120.57 126.083 119.4C125.984 118.871 126.052 118.325 125.989 117.79C125.916 117.208 125.811 116.631 125.758 116.043C125.706 115.456 125.596 114.868 125.47 114.281C125.349 113.73 125.291 113.164 125.202 112.602C125.019 111.459 124.772 110.336 124.541 109.209C124.31 108.081 124.001 106.958 123.634 105.867C123.267 104.776 122.842 103.696 122.517 102.594C122.349 102.023 122.134 101.477 121.892 100.932C121.667 100.423 121.384 99.9612 121.132 99.4681C120.88 98.9751 120.681 98.4348 120.439 97.9313C120.182 97.3963 119.915 96.8822 119.605 96.3787C119.296 95.8751 119.028 95.403 118.724 94.9257C118.184 94.076 116.82 94.8628 117.366 95.7178L117.35 95.7283Z" fill="#4E719B"/>
<path d="M150.794 35.2244C150.27 35.2873 149.74 35.2873 149.215 35.345C148.659 35.408 148.103 35.4657 147.553 35.5706C147.065 35.665 146.577 35.7069 146.084 35.7594C145.517 35.8223 144.993 36.0007 144.437 36.0898C144.017 36.158 143.781 36.6826 143.886 37.0602C144.007 37.5061 144.432 37.6739 144.857 37.611C145.35 37.5323 145.811 37.3644 146.309 37.3172C146.808 37.27 147.348 37.2176 147.862 37.1179C148.313 37.0287 148.759 36.9763 149.215 36.9291C149.74 36.8714 150.27 36.8714 150.794 36.8084C151.214 36.7612 151.581 36.4832 151.581 36.0217C151.581 35.6335 151.219 35.1877 150.794 35.2349V35.2244Z" fill="#2B2927"/>
<path d="M163.137 36.2515C163.488 36.3407 163.845 36.3931 164.196 36.4666C164.375 36.5033 164.548 36.5505 164.715 36.6134C164.763 36.6292 164.81 36.6502 164.857 36.6659C164.789 36.6344 164.794 36.6397 164.883 36.6764C164.967 36.7131 165.046 36.7498 165.13 36.7865C165.497 36.9544 165.864 37.1117 166.252 37.2324C166.609 37.3425 166.971 37.437 167.317 37.5733C167.7 37.7255 168.198 37.4055 168.288 37.0226C168.392 36.5662 168.146 36.22 167.737 36.0522C167.401 35.9211 167.055 35.8267 166.709 35.7217C166.536 35.6693 166.368 35.6116 166.2 35.5487C166.326 35.6011 166.058 35.4857 166.032 35.4752C165.948 35.4385 165.869 35.4018 165.786 35.3651C165.418 35.1972 165.051 35.0451 164.653 34.9559C164.285 34.872 163.918 34.8248 163.556 34.7304C163.158 34.6255 162.686 34.8615 162.586 35.2811C162.486 35.7008 162.712 36.1361 163.137 36.2515Z" fill="#2B2927"/>
<path d="M154.309 55.1093C153.742 55.1565 153.155 55.3348 152.594 55.1512C152.436 55.0988 152.331 55.0411 152.284 54.9257C152.216 54.7578 152.247 54.569 152.31 54.4746C152.499 54.1861 153.197 53.9763 153.595 53.8766C154.188 53.7298 154.807 53.52 155.421 53.5095C156.69 53.4832 158.033 53.5724 159.26 53.9291C159.449 53.9815 159.591 54.055 159.664 54.1179C159.675 54.1284 159.795 54.2386 159.738 54.1861C159.68 54.1337 159.806 54.2805 159.764 54.2176C159.722 54.1546 159.795 54.333 159.785 54.2648C159.774 54.1861 159.774 54.4851 159.785 54.4221C159.764 54.5533 159.691 54.6897 159.596 54.7526C159.491 54.826 159.208 54.8103 158.988 54.8155C158.615 54.8155 158.253 54.8837 157.881 54.9204C157.493 54.9624 157.099 54.9572 156.711 54.9781C156.323 54.9991 155.935 55.0516 155.541 55.0831C155.132 55.1145 154.718 55.0935 154.309 55.1145C153.9 55.1355 153.522 55.4607 153.522 55.9013C153.522 56.3105 153.884 56.7091 154.309 56.6881C154.76 56.6671 155.216 56.6881 155.667 56.6462C156.118 56.6042 156.57 56.557 157.021 56.5412C157.472 56.5255 157.907 56.4888 158.358 56.4363C158.752 56.3839 159.15 56.4101 159.544 56.3629C160.425 56.2632 161.133 55.6705 161.317 54.7841C161.49 53.9448 161.128 53.158 160.399 52.7174C159.769 52.3345 158.946 52.2296 158.232 52.1195C157.335 51.9831 156.396 51.9306 155.484 51.9411C154.639 51.9516 153.769 52.1929 152.956 52.4237C152.195 52.6387 151.298 53.0374 150.91 53.7612C150.422 54.6634 150.721 55.8384 151.566 56.4049C151.964 56.6724 152.452 56.7615 152.919 56.7983C153.386 56.835 153.91 56.7248 154.309 56.6934C154.734 56.6566 155.096 56.3577 155.096 55.9066C155.096 55.5079 154.734 55.0831 154.309 55.1198V55.1093Z" fill="#A55535"/>
<path d="M152.069 41.7243C151.701 41.8029 151.36 41.9656 150.993 42.06C150.626 42.1544 150.227 42.1491 149.771 42.2645C149.383 42.3589 149.021 42.5478 148.638 42.6632C148.255 42.7786 147.836 42.8625 147.437 42.9936C147.038 43.1248 146.755 43.5444 146.886 43.964C147.012 44.3574 147.437 44.6511 147.857 44.5148C148.239 44.3889 148.633 44.3154 149.016 44.2C149.399 44.0847 149.787 43.8853 150.191 43.7857C150.542 43.6965 150.936 43.7017 151.376 43.5916C151.754 43.4972 152.111 43.3293 152.488 43.2454C152.892 43.1562 153.165 42.6684 153.039 42.275C152.903 41.8502 152.504 41.6299 152.069 41.7243Z" fill="#2B2927"/>
<path d="M163.855 43.444C164.343 43.6223 164.842 43.7587 165.34 43.9055C165.838 44.0524 166.331 44.215 166.835 44.3357C167.233 44.4301 167.706 44.2098 167.805 43.7849C167.905 43.36 167.685 42.9194 167.254 42.8145C166.751 42.6939 166.258 42.5313 165.76 42.3844C165.261 42.2375 164.763 42.1012 164.275 41.9228C163.887 41.7812 163.394 42.0802 163.305 42.4736C163.205 42.9194 163.441 43.2866 163.855 43.444Z" fill="#2B2927"/>
<path d="M124.736 89.0836C124.935 89.6343 125.103 90.1956 125.339 90.7358C125.543 91.2027 125.706 91.6223 125.811 92.1206C125.921 92.6609 126.136 93.1225 126.346 93.626C126.556 94.1296 126.65 94.6698 126.787 95.1891C127.065 96.2277 127.274 97.2767 127.605 98.3048C127.773 98.8346 127.857 99.3801 127.983 99.9256C128.108 100.471 128.292 100.933 128.402 101.452C128.512 101.971 128.633 102.512 128.701 103.052C128.775 103.624 128.927 104.148 129.058 104.704C129.315 105.785 129.367 106.907 129.64 107.988C129.771 108.507 129.787 109 129.834 109.53C129.887 110.101 130.065 110.647 130.107 111.219C130.154 111.817 130.191 112.409 130.28 113.002C130.359 113.537 130.432 114.077 130.485 114.612C130.547 115.237 130.521 115.882 130.537 116.511C130.553 117.141 130.61 117.775 130.652 118.405C130.694 119.034 130.689 119.711 130.757 120.367C130.789 120.681 130.825 120.996 130.804 121.316C130.784 121.657 130.731 121.987 130.726 122.328C130.71 123.341 132.284 123.341 132.299 122.328C132.31 121.751 132.41 121.195 132.357 120.618C132.305 120.041 132.278 119.485 132.252 118.914C132.2 117.754 132.069 116.6 132.084 115.436C132.1 114.272 131.822 113.175 131.733 112.037C131.686 111.439 131.665 110.846 131.544 110.254C131.423 109.661 131.413 109.147 131.355 108.575C131.298 108.003 131.119 107.489 131.03 106.939C130.941 106.388 130.831 105.816 130.747 105.255C130.663 104.694 130.558 104.195 130.416 103.666C130.275 103.136 130.243 102.569 130.138 102.018C129.918 100.917 129.577 99.8574 129.357 98.7559C129.252 98.2314 129.068 97.7383 128.921 97.2243C128.775 96.7102 128.633 96.149 128.507 95.6087C128.365 95.0003 128.219 94.4023 128.056 93.7991C127.893 93.1959 127.6 92.7133 127.442 92.1468C127.364 91.8688 127.322 91.5803 127.253 91.3023C127.175 90.9719 127.038 90.6624 126.897 90.3582C126.645 89.8074 126.467 89.2304 126.262 88.664C126.115 88.2653 125.727 87.9978 125.292 88.1132C124.904 88.2181 124.599 88.6797 124.741 89.0836H124.736Z" fill="#4E719B"/>
<path d="M175.498 96.9723C175.141 97.2083 174.743 97.3814 174.397 97.6332C174.05 97.885 173.783 98.2416 173.442 98.4987C173.101 98.7557 172.718 98.9603 172.382 99.2278C172.047 99.4953 171.695 99.7418 171.37 100.02C171.045 100.298 170.767 100.628 170.452 100.917C170.137 101.205 169.765 101.431 169.455 101.725C169.146 102.018 168.91 102.391 168.606 102.69C168.37 102.926 168.086 103.141 167.898 103.419C167.709 103.697 167.52 104.022 167.509 104.368C167.494 104.956 167.913 105.491 168.354 105.879C168.711 106.194 169.125 106.409 169.566 106.582C170.006 106.755 170.442 106.965 170.914 107.028C171.386 107.09 171.868 107.106 172.34 107.09C172.812 107.075 173.279 106.954 173.751 106.907C174.223 106.86 174.696 106.839 175.162 106.797C175.629 106.755 176.101 106.666 176.573 106.676C176.972 106.687 177.371 106.723 177.764 106.776C178.157 106.828 178.556 106.881 178.939 106.965C179.322 107.049 179.679 107.264 180.067 107.368C180.455 107.473 180.854 107.484 181.236 107.594C181.619 107.704 181.986 107.851 182.369 107.951C182.752 108.05 183.13 108.181 183.513 108.265C183.896 108.349 184.289 108.423 184.683 108.475C185.076 108.528 185.475 108.475 185.868 108.48C186.261 108.486 186.671 108.591 187.059 108.543C187.447 108.496 187.856 108.428 188.234 108.323C188.611 108.218 188.937 107.945 189.283 107.762C189.629 107.578 190.012 107.437 190.311 107.164C190.646 106.854 190.935 106.493 191.161 106.11C191.386 105.727 191.512 105.281 191.633 104.845C191.753 104.41 191.806 103.975 191.821 103.518C191.837 103.062 191.758 102.637 191.68 102.191C191.601 101.746 191.517 101.321 191.355 100.901C191.192 100.481 190.987 100.088 190.741 99.7156C190.494 99.3432 190.29 98.9183 189.98 98.5931C189.671 98.2679 189.251 98.0581 188.889 97.7853C188.527 97.5126 188.181 97.2398 187.788 97.0142C187.394 96.7887 187.017 96.5474 186.597 96.3691C186.177 96.1907 185.732 96.1121 185.302 95.9809C184.871 95.8498 184.452 95.6557 184.011 95.5665C183.613 95.4826 183.193 95.5036 182.789 95.4459C182.385 95.3882 181.981 95.362 181.572 95.3358C181.163 95.3095 180.759 95.2413 180.35 95.2413C179.941 95.2413 179.537 95.299 179.128 95.3358C178.719 95.3725 178.32 95.4354 177.916 95.4984C177.512 95.5613 177.087 95.5193 176.694 95.619C176.301 95.7187 175.912 95.8655 175.524 95.9914C175.136 96.1173 174.779 96.3271 174.402 96.4897" fill="#D6A792"/>
<path d="M197.151 97.2975C196.836 97.0038 196.516 96.731 196.196 96.4635C195.876 96.196 195.541 95.9233 195.205 95.6715C194.869 95.4197 194.492 95.2099 194.14 94.9791C193.789 94.7483 193.416 94.5438 193.049 94.3339C192.682 94.1241 192.336 93.8724 191.958 93.6888C191.58 93.5052 191.187 93.3373 190.794 93.18C190.4 93.0226 190.007 92.8548 189.608 92.7236C189.21 92.5925 188.785 92.5138 188.376 92.4142C187.966 92.3145 187.552 92.2148 187.138 92.1414C186.723 92.068 186.304 92.0103 185.884 91.9683C185.464 91.9264 185.045 91.8582 184.62 91.8424C184.195 91.8267 183.781 91.9526 183.356 91.9683C182.931 91.984 182.511 91.8949 182.086 91.9368C181.662 91.9788 181.252 92.0732 180.833 92.1362C180.413 92.1991 179.978 92.1624 179.563 92.2516C179.149 92.3407 178.766 92.54 178.357 92.6554C177.948 92.7708 177.56 92.9177 177.156 93.0541C176.747 93.1905 176.348 93.3583 175.944 93.5262C175.54 93.694 175.142 93.8566 174.759 94.0507C174.376 94.2448 174.009 94.4808 173.636 94.7064C173.264 94.9319 172.823 95.0525 172.472 95.3043C172.12 95.5561 171.743 95.7974 171.412 96.0754C171.082 96.3534 170.793 96.6943 170.484 97.0038C170.174 97.3133 169.875 97.6332 169.603 97.9689C169.33 98.3046 169.178 98.7347 168.931 99.0914C168.685 99.4481 168.328 99.7366 168.123 100.12C167.919 100.502 167.84 100.943 167.672 101.347C167.546 101.646 167.3 101.945 167.263 102.27C167.227 102.595 167.295 102.989 167.484 103.272C167.819 103.77 168.307 103.933 168.748 103.844C169.141 103.765 169.597 103.497 170.001 103.178C170.363 102.894 170.641 102.459 170.961 102.144C171.365 101.746 171.769 101.441 172.031 101.258C172.346 101.032 172.666 100.822 172.991 100.618C173.316 100.413 173.631 100.188 173.977 100.009C174.323 99.831 174.685 99.7104 175.037 99.553C175.388 99.3957 175.713 99.1701 176.075 99.039C176.437 98.9078 176.831 98.8764 177.203 98.7715C177.575 98.6666 177.932 98.5354 178.31 98.462C177.922 98.6456 177.565 98.8869 177.193 99.0967C176.82 99.3065 176.432 99.4953 176.07 99.7313C175.708 99.9674 175.304 100.14 174.958 100.398C174.691 100.597 174.413 100.954 174.056 101.289C173.767 101.557 173.437 101.835 173.143 102.165C172.865 102.475 172.592 102.805 172.341 103.146C172.089 103.487 171.869 103.865 171.68 104.227C171.475 104.625 171.323 105.024 171.244 105.412C171.155 105.847 171.129 106.283 171.26 106.671C171.386 107.038 171.659 107.358 172.047 107.652C172.356 107.883 172.729 108.05 173.159 108.061C173.521 108.066 173.909 107.925 174.323 107.809C174.685 107.709 175.032 107.521 175.414 107.353C175.766 107.201 176.175 107.127 176.532 106.938C176.888 106.75 177.182 106.477 177.518 106.272C177.853 106.068 178.2 105.847 178.52 105.638C178.871 105.402 179.285 105.297 179.584 105.092C179.973 104.819 180.251 104.51 180.502 104.337C180.161 104.573 179.868 104.877 179.563 105.16C179.259 105.443 178.908 105.685 178.64 106.01C178.373 106.335 178.179 106.708 177.958 107.064C177.738 107.421 177.523 107.778 177.35 108.155C177.177 108.533 176.998 108.916 176.883 109.32C176.768 109.724 176.7 110.138 176.642 110.547C176.563 111.082 176.495 111.806 176.915 112.147C177.287 112.451 177.89 112.215 178.368 112.121C178.787 112.037 179.212 111.995 179.621 111.879C180.03 111.764 180.445 111.664 180.849 111.518C181.252 111.371 181.63 111.182 182.023 111.009C182.417 110.836 182.837 110.725 183.214 110.526C183.592 110.327 183.912 110.028 184.274 109.802C184.636 109.577 185.024 109.446 185.37 109.194C185.087 109.446 184.793 109.65 184.52 109.918C184.247 110.185 183.969 110.458 183.739 110.762C183.508 111.066 183.351 111.418 183.198 111.769C183.052 112.116 182.973 112.488 182.957 112.871C182.941 113.254 183.015 113.626 183.156 113.972C183.298 114.319 183.476 114.665 183.796 114.896C184.227 115.2 184.751 115.394 185.281 115.362C185.811 115.331 186.319 115.121 186.781 114.906C187.248 114.691 187.715 114.444 188.155 114.182C188.596 113.92 189 113.574 189.488 113.395C189.891 113.243 190.316 113.138 190.741 113.081C191.166 113.023 191.596 113.112 192.032 113.123C192.467 113.133 192.887 113.154 193.317 113.191C193.747 113.228 194.177 113.222 194.607 113.248C195.037 113.275 195.472 113.317 195.897 113.306C196.322 113.296 196.758 113.207 197.172 113.123C197.586 113.039 197.985 112.892 198.373 112.692C198.772 112.488 199.086 112.21 199.406 111.958C199.758 111.685 200.109 111.455 200.372 111.135C200.644 110.799 200.896 110.448 201.08 110.07C201.263 109.692 201.389 109.273 201.489 108.858C201.588 108.444 201.63 108.024 201.657 107.589C201.683 107.153 201.72 106.739 201.678 106.309C201.636 105.879 201.552 105.47 201.463 105.045C201.373 104.62 201.206 104.232 201.08 103.823C200.954 103.414 200.723 103.052 200.56 102.658C200.398 102.265 200.356 101.819 200.162 101.436C199.968 101.053 199.7 100.712 199.485 100.35C199.27 99.9884 199.097 99.574 198.856 99.233C198.599 98.8711 198.305 98.5564 198.037 98.2469C197.744 97.906 197.455 97.5913 197.161 97.3133L197.151 97.2975Z" fill="#EBBEA7"/>
<path d="M189.467 103.748C188.932 104.084 188.48 104.456 187.961 104.829C187.405 105.233 186.902 105.684 186.372 106.119C186.199 106.261 185.963 106.402 185.758 106.56C185.464 106.78 185.234 107.016 185.008 107.304C184.63 107.792 184.169 108.238 183.76 108.731C183.487 109.056 183.44 109.523 183.76 109.843C184.038 110.121 184.599 110.174 184.872 109.843C185.291 109.34 185.763 108.894 186.162 108.369C186.288 108.201 186.461 107.997 186.634 107.855C186.87 107.672 187.169 107.493 187.416 107.294C187.867 106.927 188.286 106.528 188.758 106.187C189.273 105.815 189.739 105.432 190.264 105.107C190.626 104.881 190.767 104.404 190.547 104.031C190.327 103.659 189.834 103.523 189.472 103.748H189.467Z" fill="#A55535"/>
<path d="M181.29 104.741C181.557 104.379 181.992 104.049 182.307 103.692C182.465 103.514 182.617 103.346 182.811 103.22C183.036 103.073 183.283 102.963 183.519 102.843C183.98 102.607 184.474 102.465 184.961 102.292C185.502 102.098 186.052 101.998 186.629 101.982C187.642 101.961 187.642 100.388 186.629 100.409C185.947 100.425 185.239 100.524 184.594 100.755C183.949 100.986 183.325 101.18 182.727 101.484C182.129 101.788 181.631 102.087 181.195 102.58C180.781 103.047 180.304 103.446 179.936 103.949C179.685 104.29 179.879 104.825 180.22 105.025C180.618 105.261 181.043 105.088 181.295 104.741H181.29Z" fill="#A55535"/>
<path d="M178.708 98.7459C178.756 98.7249 178.808 98.7039 178.855 98.6829C178.944 98.6462 178.955 98.641 178.892 98.6672C178.965 98.6357 179.039 98.6043 179.117 98.578C179.291 98.5099 179.469 98.4469 179.647 98.3892C179.983 98.2896 180.329 98.2371 180.67 98.1637C180.843 98.127 181.011 98.0902 181.184 98.0588C181.279 98.043 181.368 98.022 181.462 98.0063C181.462 98.0063 181.714 97.9748 181.572 97.9906C181.95 97.9591 182.322 98.0011 182.7 98.0011C183.109 98.0011 183.508 97.6391 183.487 97.2143C183.466 96.7894 183.141 96.4275 182.7 96.4275C182.296 96.4275 181.897 96.3803 181.494 96.4275C181.09 96.4747 180.665 96.5586 180.256 96.6478C179.889 96.7265 179.516 96.7842 179.154 96.8995C178.729 97.0307 178.325 97.2143 177.916 97.3926C177.539 97.5552 177.423 98.1427 177.633 98.4679C177.885 98.8613 178.304 98.9242 178.708 98.7511V98.7459Z" fill="#A55535"/>
<path d="M154.304 86.6434C154.304 87.0316 154.162 87.4145 153.979 87.7292C153.795 88.0439 153.507 88.3324 153.181 88.516C152.856 88.6996 152.489 88.7573 152.101 88.7573C151.713 88.7573 151.366 88.6419 151.052 88.4635C150.737 88.2852 150.391 88.0649 150.202 87.7397C150.013 87.4145 149.961 87.0316 149.961 86.6434C149.961 86.2552 150.071 85.8881 150.249 85.5734C150.428 85.2586 150.742 85.0383 151.062 84.8495C151.382 84.6607 151.707 84.54 152.096 84.54C152.484 84.54 152.835 84.6345 153.15 84.8128C153.465 84.9911 153.785 85.2324 153.973 85.5524C154.162 85.8723 154.304 86.2448 154.304 86.6329V86.6434Z" fill="white"/>
<path d="M154.272 95.8905C154.272 96.2787 154.078 96.6144 153.895 96.9291C153.711 97.2438 153.522 97.6058 153.197 97.7946C152.872 97.9834 152.489 98.0359 152.101 98.0359C151.713 98.0359 151.361 97.8942 151.052 97.7107C150.742 97.5271 150.428 97.291 150.239 96.9658C150.05 96.6406 149.961 96.2787 149.961 95.8905C149.961 95.5024 150.029 95.109 150.212 94.7995C150.396 94.49 150.742 94.2802 151.067 94.0914C151.393 93.9026 151.718 93.7032 152.106 93.7032C152.494 93.7032 152.856 93.8658 153.166 94.0494C153.475 94.233 153.8 94.4795 153.984 94.7995C154.167 95.1195 154.278 95.4971 154.278 95.8853L154.272 95.8905Z" fill="white"/>
<path d="M154.162 105.14C154.162 105.528 154.068 105.858 153.889 106.173C153.711 106.488 153.47 106.766 153.145 106.955C152.819 107.143 152.489 107.206 152.096 107.206C151.702 107.206 151.345 107.164 151.036 106.981C150.726 106.797 150.49 106.503 150.302 106.178C150.113 105.853 149.929 105.528 149.929 105.14C149.929 104.752 150.029 104.363 150.212 104.049C150.396 103.734 150.706 103.477 151.031 103.288C151.356 103.099 151.713 102.931 152.101 102.931C152.489 102.931 152.835 103.146 153.145 103.33C153.454 103.514 153.716 103.776 153.905 104.101C154.094 104.426 154.167 104.752 154.167 105.145L154.162 105.14Z" fill="white"/>
<path d="M197.872 82.5894C198.512 82.7363 199.157 82.9985 199.765 83.2503C200.374 83.5021 200.914 83.9532 201.433 84.3571C201.953 84.761 202.388 85.2488 202.829 85.7471C203.269 86.2454 203.684 86.7279 204.035 87.2944C204.386 87.8609 204.785 88.4064 205.121 88.9834C205.504 89.6391 205.866 90.3105 206.217 90.9871C206.511 91.5431 206.82 92.0729 207.041 92.6656C207.161 92.9908 207.287 93.3108 207.46 93.615C207.607 93.872 207.775 94.1186 207.885 94.3966C208.032 94.7637 208.189 95.1362 208.305 95.5191C208.42 95.902 208.452 96.2796 208.567 96.6521C208.813 97.4651 209.086 98.2624 209.296 99.0806C209.548 100.061 211.064 99.6471 210.812 98.661C210.618 97.9004 210.387 97.1556 210.141 96.4108C210.036 96.0908 209.973 95.7656 209.904 95.4351C209.826 95.0522 209.679 94.6956 209.543 94.3336C209.411 93.9927 209.291 93.6465 209.118 93.3265C208.96 93.038 208.766 92.7705 208.64 92.4663C208.357 91.7897 208.095 91.1392 207.738 90.4993C207.382 89.8594 207.035 89.1775 206.663 88.5218C206.29 87.8662 205.876 87.2735 205.477 86.6493C205.079 86.0251 204.659 85.4481 204.161 84.8921C203.663 84.3361 203.217 83.7958 202.65 83.3342C202.037 82.8359 201.386 82.2852 200.668 81.939C200.29 81.7554 199.891 81.6243 199.498 81.4774C199.104 81.3305 198.701 81.1627 198.281 81.0683C197.861 80.9738 197.431 81.1942 197.311 81.619C197.2 82.0177 197.442 82.4897 197.861 82.5894H197.872Z" fill="#D3CAC2"/>
<path d="M209.275 84.8618C209.458 85.166 209.668 85.4492 209.862 85.7482C210.077 86.0839 210.245 86.4353 210.429 86.7868C210.759 87.4162 211.205 87.9722 211.557 88.5964C211.924 89.2521 212.223 89.9392 212.574 90.6001C212.742 90.9148 212.947 91.2086 213.099 91.5285C213.251 91.8485 213.324 92.2262 213.45 92.5723C213.723 93.2962 214.017 94.0253 214.342 94.7229C214.651 95.3838 214.662 96.1234 214.924 96.8053C215.186 97.4872 215.291 98.1691 215.375 98.9087C215.417 99.2601 215.422 99.6168 215.454 99.9682C215.485 100.362 215.548 100.75 215.564 101.143C215.585 101.615 215.553 102.087 215.527 102.559C215.506 102.948 215.517 103.357 215.449 103.74C215.38 104.122 215.202 104.511 215.108 104.904C215.008 105.329 214.982 105.764 214.851 106.184C214.546 107.154 216.068 107.569 216.367 106.604C216.487 106.221 216.513 105.827 216.597 105.439C216.681 105.051 216.839 104.684 216.928 104.301C217.106 103.535 217.101 102.696 217.127 101.909C217.153 101.122 217.038 100.304 216.985 99.4909C216.933 98.6779 216.87 97.8701 216.686 97.1095C216.597 96.7424 216.419 96.4067 216.309 96.0447C216.193 95.6671 216.157 95.2684 216.062 94.8855C215.968 94.5026 215.784 94.125 215.616 93.763C215.459 93.4326 215.338 93.0864 215.202 92.7454C214.908 92.0058 214.719 91.2086 214.331 90.5162C214.148 90.1857 213.948 89.871 213.786 89.5353C213.607 89.1629 213.44 88.78 213.246 88.4181C213.051 88.0561 212.836 87.6575 212.616 87.2903C212.417 86.9651 212.17 86.6714 211.971 86.3462C211.751 85.9738 211.578 85.5751 211.362 85.2027C211.137 84.8093 210.859 84.4474 210.623 84.0592C210.098 83.1937 208.735 83.9858 209.264 84.8513L209.275 84.8618Z" fill="#D3CAC2"/>
</g>
<g clip-path="url(#clip2_1598_10003)">
<path d="M225.82 124.893C225.82 124.893 225.785 124.893 225.766 124.893L217.527 124.107C217.209 124.076 216.973 123.794 217.004 123.472C217.035 123.151 217.318 122.915 217.639 122.95L225.375 123.685L227.612 114.366C227.658 114.165 227.809 114.006 228.007 113.945L240.952 110.024C241.257 109.931 241.582 110.106 241.675 110.411C241.768 110.717 241.594 111.042 241.288 111.135L228.661 114.962L226.385 124.448C226.323 124.711 226.087 124.893 225.82 124.893Z" fill="#785B4E"/>
<path d="M233.273 132.345C233.246 132.345 233.218 132.345 233.191 132.338L222.208 130.766C221.891 130.72 221.67 130.426 221.717 130.108C221.763 129.791 222.057 129.57 222.375 129.617L233.009 131.138L236.728 125.933C236.876 125.724 237.143 125.639 237.386 125.72L247.978 129.249C248.284 129.35 248.447 129.679 248.346 129.985C248.246 130.29 247.917 130.453 247.611 130.352L237.425 126.958L233.752 132.101C233.644 132.256 233.466 132.345 233.28 132.345H233.273Z" fill="#785B4E"/>
<path d="M235.235 150C235.046 150 234.86 149.907 234.748 149.733L230.518 143.197L218.888 137.384C218.602 137.241 218.486 136.892 218.629 136.606C218.772 136.32 219.121 136.204 219.407 136.347L231.176 142.233C231.269 142.279 231.346 142.349 231.404 142.438L235.719 149.106C235.893 149.377 235.816 149.733 235.545 149.907C235.448 149.969 235.34 150 235.231 150H235.235Z" fill="#785B4E"/>
</g>
</g>
<defs>
<clipPath id="clip0_1598_10003">
<rect width="226" height="162" fill="white" transform="translate(47)"/>
</clipPath>
<clipPath id="clip1_1598_10003">
<rect width="125.142" height="169.89" fill="white" transform="translate(92 -4)"/>
</clipPath>
<clipPath id="clip2_1598_10003">
<rect width="31.37" height="40" fill="white" transform="translate(217 109.999)"/>
</clipPath>
</defs>
</svg>
