<svg width="320" height="162" viewBox="0 0 320 162" fill="none" xmlns="http://www.w3.org/2000/svg">
<g clip-path="url(#clip0_1598_10007)">
<path d="M265.093 20H54.9068C50.8161 20 47.5 22.8379 47.5 26.3386V153.661C47.5 157.162 50.8161 160 54.9068 160H265.093C269.184 160 272.5 157.162 272.5 153.661V26.3386C272.5 22.8379 269.184 20 265.093 20Z" fill="#EDE6DF"/>
<path d="M179.732 62.667C180.14 62.7402 180.548 62.8186 180.961 62.897C181.373 62.9754 181.792 62.9858 182.199 63.0695C182.607 63.1531 182.999 63.3099 183.407 63.404C183.815 63.4981 184.222 63.5713 184.625 63.6706C185.027 63.7699 185.451 63.796 185.853 63.9006C186.256 64.0051 186.627 64.2247 187.029 64.3344C187.432 64.4442 187.85 64.4912 188.247 64.6115C188.644 64.7317 189.052 64.8205 189.449 64.946C189.847 65.0714 190.239 65.2126 190.636 65.3432C191.033 65.4739 191.409 65.6516 191.801 65.7928C192.193 65.9339 192.601 66.028 192.993 66.1743C193.385 66.3207 193.777 66.4566 194.164 66.6082C194.551 66.7598 194.927 66.9479 195.309 67.1048C195.69 67.2616 196.098 67.3818 196.48 67.5491C196.861 67.7163 197.206 67.9672 197.588 68.1397C197.969 68.3122 198.367 68.4377 198.743 68.6154C199.119 68.7931 199.454 69.0545 199.83 69.2374C200.207 69.4203 200.619 69.5301 200.985 69.7235C201.351 69.9169 201.696 70.1574 202.062 70.3612C202.428 70.5651 202.831 70.6905 203.191 70.8996C203.552 71.1087 203.855 71.4171 204.21 71.6314C204.566 71.8457 204.947 72.0234 205.298 72.243C205.648 72.4625 206.009 72.682 206.354 72.912C206.699 73.142 207.038 73.3877 207.383 73.6229C207.728 73.8581 208.068 74.0985 208.403 74.3442C208.737 74.5899 209.03 74.8983 209.359 75.1492C209.688 75.4001 210.033 75.6405 210.357 75.8967C210.682 76.1528 211.084 76.32 211.403 76.5866C211.722 76.8532 212.004 77.1668 212.318 77.4386C212.631 77.7104 212.882 78.0607 213.185 78.3377C213.488 78.6147 213.823 78.8761 214.121 79.1636C214.419 79.451 214.748 79.7124 215.041 80.0103C215.334 80.3083 215.574 80.6533 215.862 80.9564C216.149 81.2596 216.463 81.5314 216.74 81.845C217.017 82.1587 217.289 82.4723 217.555 82.7911C217.822 83.11 218.078 83.4393 218.339 83.7634C218.601 84.0874 218.825 84.4377 219.081 84.767C219.338 85.0963 219.656 85.3785 219.902 85.7131C220.148 86.0476 220.399 86.3821 220.634 86.7271C220.869 87.0721 221.057 87.4432 221.287 87.7934C221.517 88.1489 221.726 88.5148 221.941 88.8754C222.155 89.2361 222.411 89.5758 222.615 89.947C222.819 90.3181 223.038 90.6787 223.232 91.0551C223.425 91.4314 223.603 91.813 223.786 92.1946C223.969 92.5762 224.078 92.9891 224.256 93.3707C224.434 93.7523 224.622 94.1286 224.795 94.5154C224.967 94.9022 225.192 95.2629 225.359 95.6497C225.526 96.0365 225.673 96.4337 225.835 96.8205C225.997 97.2073 226.127 97.615 226.284 98.0019C226.441 98.3887 226.514 98.8173 226.671 99.2093C226.828 99.6013 227.053 99.9672 227.215 100.354C227.377 100.741 227.586 101.112 227.748 101.504C227.91 101.896 228.035 102.298 228.203 102.685C228.37 103.072 228.553 103.454 228.725 103.835C228.898 104.217 229.123 104.583 229.3 104.959C229.478 105.335 229.546 105.78 229.739 106.151C229.933 106.522 230.147 106.893 230.351 107.259C230.555 107.625 230.811 107.938 231.015 108.294C231.219 108.649 231.37 109.036 231.574 109.386C231.778 109.737 232.097 110.029 232.306 110.374C232.515 110.719 232.619 111.137 232.834 111.482C233.048 111.827 233.309 112.151 233.524 112.496C233.738 112.841 233.926 113.207 234.135 113.558C234.344 113.908 234.533 114.268 234.747 114.619C234.961 114.969 235.175 115.314 235.379 115.664C235.583 116.014 235.787 116.37 235.986 116.725C236.184 117.081 236.503 117.373 236.697 117.729C236.89 118.084 236.995 118.492 237.177 118.858C237.36 119.224 237.585 119.563 237.758 119.935C237.93 120.306 238.087 120.677 238.244 121.058C238.401 121.44 238.51 121.827 238.651 122.214C238.793 122.6 239.007 122.951 239.132 123.343C239.258 123.735 239.274 124.148 239.383 124.545C239.493 124.942 239.598 125.324 239.686 125.726C239.775 126.129 239.869 126.515 239.943 126.923C240.016 127.331 240.037 127.728 240.094 128.136C240.146 128.549 240.167 128.967 240.199 129.396C240.23 129.824 240.356 130.227 240.366 130.655C240.376 131.084 240.345 131.497 240.335 131.92C240.324 132.344 240.34 132.762 240.314 133.185C240.288 133.609 240.272 134.027 240.23 134.45C240.188 134.873 240.042 135.276 239.979 135.694C239.916 136.112 239.922 136.536 239.843 136.954C239.765 137.372 239.692 137.785 239.598 138.198C239.503 138.611 239.326 138.998 239.216 139.411C239.106 139.823 239.049 140.236 238.929 140.644C238.808 141.052 238.672 141.449 238.536 141.852C238.401 142.254 238.28 142.657 238.129 143.054C237.977 143.451 237.789 143.827 237.622 144.214C237.454 144.601 237.292 144.993 237.11 145.375C236.927 145.756 236.697 146.112 236.498 146.488C236.299 146.864 236.148 147.262 235.939 147.627C235.73 147.993 235.494 148.349 235.27 148.704C235.045 149.06 234.747 149.373 234.506 149.713C234.266 150.053 234.088 150.455 233.827 150.785C233.566 151.114 233.268 151.422 232.996 151.741C232.724 152.06 232.457 152.395 232.165 152.698C231.872 153.001 231.579 153.314 231.271 153.597C230.962 153.879 230.555 154.062 230.225 154.323C229.896 154.585 229.603 154.904 229.258 155.139C228.913 155.374 228.574 155.646 228.213 155.86C227.852 156.074 227.455 156.236 227.074 156.419C226.692 156.602 226.31 156.785 225.918 156.937C225.526 157.088 225.119 157.209 224.716 157.329C224.314 157.449 223.906 157.548 223.488 157.632C223.07 157.716 222.657 157.737 222.233 157.789C221.82 157.841 221.407 157.977 220.979 157.998C220.55 158.019 220.143 157.914 219.714 157.893C219.285 157.872 218.878 157.878 218.454 157.825C218.031 157.773 217.623 157.731 217.2 157.653C216.755 157.569 216.28 157.517 215.862 157.355C215.443 157.193 215.036 156.932 214.696 156.628C214.356 156.33 214.163 155.928 213.959 155.536C213.755 155.144 213.64 154.736 213.541 154.297C213.441 153.858 213.358 153.445 213.316 153.001C213.274 152.557 213.17 152.118 213.149 151.689C213.128 151.265 213.164 150.842 213.133 150.424C213.102 150.006 213.055 149.582 213.018 149.164C212.981 148.746 213.008 148.317 212.961 147.899C212.913 147.481 212.856 147.063 212.804 146.645C212.751 146.227 212.699 145.808 212.642 145.39C212.584 144.972 212.427 144.57 212.359 144.157C212.291 143.744 212.255 143.32 212.182 142.907C212.109 142.494 211.973 142.092 211.894 141.679C211.816 141.266 211.774 140.843 211.685 140.43C211.596 140.017 211.581 139.588 211.481 139.181C211.382 138.773 211.183 138.386 211.079 137.978C210.974 137.571 210.917 137.152 210.807 136.745C210.697 136.337 210.551 135.94 210.436 135.537C210.321 135.135 210.274 134.706 210.154 134.304C210.033 133.901 209.803 133.53 209.673 133.128C209.542 132.725 209.411 132.328 209.281 131.931C209.15 131.533 209.04 131.12 208.904 130.723C208.768 130.326 208.612 129.934 208.465 129.537C208.319 129.139 208.272 128.711 208.12 128.319C207.969 127.927 207.775 127.55 207.618 127.158C207.462 126.766 207.305 126.374 207.148 125.987C206.991 125.601 206.834 125.209 206.672 124.817C206.51 124.425 206.354 124.038 206.186 123.651C206.019 123.264 205.805 122.898 205.632 122.511C205.46 122.125 205.345 121.717 205.172 121.335C205 120.954 204.89 120.541 204.712 120.159C204.535 119.778 204.226 119.459 204.043 119.077C203.86 118.696 203.698 118.309 203.515 117.933C203.332 117.556 203.144 117.18 202.956 116.798C202.768 116.417 202.59 116.04 202.397 115.664C202.203 115.288 202.099 114.87 201.905 114.498C201.712 114.127 201.451 113.788 201.257 113.411C201.064 113.035 200.912 112.643 200.714 112.272C200.515 111.901 200.306 111.535 200.107 111.164C199.909 110.792 199.715 110.416 199.511 110.05C199.307 109.684 199.02 109.36 198.816 108.994C198.612 108.628 198.388 108.268 198.184 107.902C197.98 107.536 197.839 107.128 197.63 106.762C197.421 106.396 197.143 106.067 196.934 105.707C196.725 105.346 196.589 104.933 196.375 104.572C196.161 104.212 195.884 103.882 195.669 103.522C195.455 103.161 195.272 102.779 195.053 102.419C194.833 102.058 194.598 101.708 194.378 101.347C194.159 100.986 193.971 100.61 193.751 100.249C193.532 99.8888 193.244 99.57 193.025 99.2145C192.805 98.8591 192.653 98.4566 192.429 98.0959C192.204 97.7353 191.953 97.4007 191.728 97.0401C191.503 96.6794 191.341 96.2874 191.117 95.9319C190.892 95.5765 190.599 95.2629 190.374 94.9074C190.15 94.552 189.993 94.1495 189.768 93.7941C189.543 93.4386 189.313 93.0832 189.089 92.7278C188.864 92.3723 188.54 92.0796 188.315 91.7294" fill="#8DB579"/>
<path d="M168.928 72.9488C168.761 72.6247 168.599 72.2902 168.416 71.9661C168.206 71.595 167.935 71.2709 167.715 70.9364C167.48 70.5809 167.302 70.1941 167.051 69.8805C166.79 69.546 166.471 69.2637 166.194 68.971C165.901 68.6626 165.624 68.349 165.316 68.0876C164.992 67.8106 164.61 67.6276 164.271 67.4081C163.931 67.1886 163.596 66.9011 163.23 66.7234C162.864 66.5456 162.452 66.4306 162.059 66.2947C161.667 66.1588 161.265 66.0752 160.857 65.9863C160.45 65.8975 160.058 65.7354 159.645 65.6936C159.232 65.6518 158.813 65.6414 158.395 65.6414C157.977 65.6414 157.58 65.7877 157.162 65.8295C156.744 65.8713 156.341 65.8609 155.923 65.9341C155.505 66.0072 155.123 66.1327 154.721 66.232C154.318 66.3313 153.89 66.3209 153.492 66.4463C153.095 66.5718 152.719 66.739 152.327 66.8854C151.935 67.0318 151.569 67.2095 151.182 67.3715C150.795 67.5335 150.429 67.706 150.048 67.8785C149.666 68.051 149.29 68.2078 148.919 68.396C148.548 68.5842 148.171 68.7514 147.805 68.9448C147.439 69.1382 147.058 69.3055 146.697 69.5094C146.337 69.7132 146.007 69.9746 145.652 70.1889C145.296 70.4032 144.967 70.6593 144.617 70.8789C144.267 71.0984 143.864 71.2448 143.519 71.4695C143.174 71.6943 142.84 71.9452 142.495 72.1752C142.15 72.4052 141.805 72.6404 141.465 72.8756C141.125 73.1108 140.759 73.3199 140.425 73.5656C140.09 73.8112 139.782 74.0987 139.452 74.3444C139.123 74.5901 138.799 74.8671 138.475 75.1128C138.151 75.3584 137.78 75.5832 137.456 75.8289C137.132 76.0746 136.823 76.3777 136.504 76.6286C136.186 76.8795 135.872 77.1827 135.553 77.4336C135.219 77.6949 134.884 77.9406 134.565 78.1863C134.231 78.4529 133.886 78.6828 133.572 78.9285C133.248 79.1846 132.919 79.4512 132.574 79.6969C132.229 79.9426 131.889 80.1935 131.528 80.3973C131.168 80.6012 130.749 80.7057 130.357 80.8521C129.965 80.9984 129.573 81.0925 129.155 81.1448C128.753 81.1971 128.361 81.2807 127.974 81.2389C127.587 81.1971 127.195 81.0873 126.813 80.9671C126.432 80.8468 126.103 80.6378 125.742 80.46C125.381 80.2823 125.026 80.136 124.681 79.9217C124.336 79.7073 124.043 79.4565 123.714 79.2265C123.385 78.9965 123.003 78.8501 122.689 78.6149C122.376 78.3797 122.093 78.0765 121.78 77.8465C121.445 77.6008 121.074 77.4074 120.734 77.1827C120.395 76.9579 120.055 76.7018 119.705 76.4979C119.354 76.2941 118.942 76.1686 118.576 75.9805C118.21 75.7923 117.88 75.5257 117.509 75.348C117.138 75.1703 116.746 75.0291 116.37 74.8566C115.993 74.6842 115.612 74.5326 115.23 74.3705C114.849 74.2085 114.488 74.0046 114.112 73.8426C113.73 73.6806 113.359 73.5133 112.977 73.3513C112.596 73.1892 112.24 72.9854 111.859 72.8181C111.477 72.6508 111.07 72.562 110.693 72.3842C110.317 72.2065 109.977 71.9818 109.606 71.7884C109.198 71.5793 108.827 71.3545 108.461 71.135C108.069 70.905 107.672 70.7116 107.311 70.4816C106.951 70.2516 106.569 69.9903 106.198 69.7707C105.827 69.5512 105.409 69.3839 105.017 69.1958C104.625 69.0076 104.254 68.7671 103.825 68.6365C103.422 68.511 102.994 68.4169 102.534 68.3542C102.126 68.2967 101.682 68.2287 101.217 68.2287C100.804 68.2287 100.396 68.2915 99.983 68.3333C99.5701 68.3751 99.1572 68.3856 98.7547 68.4587C98.3522 68.5319 97.9706 68.7149 97.5734 68.8246C97.1761 68.9344 96.7945 69.0755 96.4077 69.2167C96.0209 69.3578 95.6341 69.4885 95.263 69.661C94.8919 69.8335 94.5469 70.053 94.1862 70.2568C93.8256 70.4607 93.444 70.6123 93.099 70.837C92.754 71.0618 92.4404 71.3284 92.1163 71.5793C91.7923 71.8302 91.4734 72.0863 91.165 72.3633C90.8566 72.6404 90.5325 72.8913 90.2503 73.1892C89.968 73.4872 89.7223 73.8217 89.4662 74.1405C89.2101 74.4594 88.9592 74.7887 88.7292 75.1284C88.4992 75.4682 88.2849 75.8184 88.0811 76.1791C87.8772 76.5398 87.689 76.9004 87.5218 77.2768C87.3545 77.6531 87.2604 78.0556 87.1245 78.4424C86.9886 78.8292 86.8684 79.216 86.7743 79.6185C86.6802 80.021 86.5443 80.4078 86.492 80.8155C86.4398 81.2232 86.4136 81.6309 86.3979 82.0438C86.3823 82.4777 86.377 82.9115 86.3979 83.3454C86.4189 83.7792 86.4345 84.2131 86.4973 84.6469C86.56 85.0808 86.7325 85.4832 86.8213 85.9119C86.9102 86.3405 86.8893 86.7848 87.0043 87.2082C87.1193 87.6316 87.229 88.0497 87.3649 88.4627C87.5009 88.8756 87.7727 89.2415 87.919 89.6492C88.0654 90.0569 88.2013 90.4698 88.3581 90.8723C88.5149 91.2748 88.609 91.7087 88.7658 92.1111C88.9174 92.4927 89.0376 92.8847 89.1944 93.2663C89.3512 93.6479 89.4924 94.0295 89.6492 94.4058C89.806 94.7822 90.0046 95.1481 90.1614 95.5244C90.3182 95.9007 90.4855 96.2771 90.6475 96.6534C90.8096 97.0298 90.9455 97.4166 91.1127 97.7929C91.28 98.1693 91.5048 98.5195 91.6668 98.8906C91.8289 99.2617 91.9334 99.6694 92.1007 100.046C92.2679 100.422 92.4456 100.788 92.6129 101.164C92.7802 101.541 93.0311 101.875 93.2036 102.246C93.3761 102.618 93.5224 103.004 93.6949 103.375C93.8674 103.747 94.0503 104.112 94.2281 104.484C94.4058 104.855 94.5469 105.241 94.7299 105.607C94.9128 105.973 95.1794 106.303 95.3571 106.668C95.5348 107.034 95.7125 107.405 95.8955 107.771C96.0784 108.137 96.2718 108.498 96.46 108.864C96.6482 109.23 96.8416 109.59 97.0298 109.951C97.2179 110.312 97.38 110.693 97.5682 111.054C97.7563 111.415 97.887 111.812 98.0804 112.173C98.2738 112.533 98.462 112.899 98.6606 113.255C98.8592 113.61 99.1258 113.934 99.3244 114.295C99.5231 114.655 99.7635 114.99 99.9674 115.345C100.171 115.701 100.307 116.093 100.511 116.448C100.72 116.814 100.934 117.185 101.149 117.551C101.363 117.917 101.53 118.314 101.75 118.675C101.969 119.036 102.293 119.339 102.523 119.694C102.753 120.05 102.9 120.463 103.145 120.813C103.391 121.163 103.726 121.44 103.987 121.775C104.248 122.109 104.541 122.412 104.818 122.731C105.095 123.05 105.299 123.442 105.602 123.74C105.905 124.038 106.214 124.331 106.538 124.608C106.867 124.89 107.207 125.162 107.557 125.418C107.907 125.674 108.278 125.899 108.649 126.129C109.021 126.359 109.376 126.61 109.758 126.814C110.139 127.017 110.573 127.117 110.965 127.3C111.357 127.483 111.739 127.692 112.141 127.854C112.544 128.016 112.962 128.131 113.37 128.277C113.777 128.423 114.174 128.601 114.587 128.732C115 128.863 115.419 128.967 115.837 129.087C116.255 129.208 116.673 129.323 117.091 129.427C117.509 129.532 117.928 129.652 118.351 129.746C118.764 129.84 119.182 129.913 119.6 130.007C120.018 130.101 120.416 130.263 120.834 130.347C121.252 130.431 121.67 130.499 122.088 130.572C122.506 130.645 122.93 130.682 123.353 130.749C123.777 130.817 124.2 130.828 124.623 130.885C125.047 130.943 125.454 131.068 125.878 131.121C126.301 131.173 126.73 131.131 127.153 131.173C127.577 131.215 127.995 131.319 128.418 131.351C128.842 131.382 129.27 131.366 129.694 131.387C130.117 131.408 130.54 131.523 130.964 131.539C131.387 131.554 131.816 131.476 132.239 131.481C132.663 131.486 133.091 131.466 133.515 131.46C133.938 131.455 134.367 131.502 134.79 131.487C135.213 131.471 135.637 131.398 136.06 131.372C136.484 131.345 136.917 131.413 137.341 131.372C137.764 131.33 138.177 131.189 138.6 131.136C139.024 131.084 139.437 131 139.86 130.938C140.284 130.875 140.697 130.791 141.115 130.713C141.533 130.634 141.961 130.614 142.374 130.525C142.787 130.436 143.19 130.279 143.603 130.175C144.016 130.07 144.439 130.012 144.847 129.897C145.255 129.782 145.673 129.688 146.075 129.558C146.483 129.427 146.896 129.323 147.288 129.181C147.68 129.04 148.067 128.836 148.453 128.68C148.84 128.523 149.253 128.387 149.635 128.214C150.016 128.042 150.372 127.791 150.748 127.603C151.125 127.415 151.485 127.179 151.851 126.976C152.217 126.772 152.604 126.589 152.959 126.369C153.315 126.15 153.654 125.888 153.999 125.653C154.344 125.418 154.7 125.177 155.034 124.927C155.369 124.676 155.73 124.44 156.054 124.174C156.378 123.907 156.728 123.662 157.042 123.374C157.355 123.087 157.585 122.721 157.883 122.423C158.181 122.125 158.474 121.827 158.761 121.513C159.049 121.2 159.409 120.959 159.681 120.635C159.953 120.311 160.12 119.909 160.376 119.569C160.632 119.229 160.91 118.915 161.15 118.57C161.39 118.225 161.579 117.849 161.809 117.488C162.039 117.128 162.289 116.798 162.504 116.433C162.718 116.067 163 115.748 163.199 115.372C163.398 114.995 163.554 114.608 163.743 114.227C163.931 113.845 164.119 113.474 164.302 113.093C164.485 112.711 164.673 112.335 164.846 111.948C165.018 111.561 165.18 111.174 165.337 110.782C165.494 110.39 165.546 109.962 165.692 109.559C165.839 109.157 166.016 108.78 166.157 108.383C166.299 107.986 166.44 107.588 166.576 107.191C166.712 106.794 166.947 106.428 167.083 106.031C167.219 105.634 167.287 105.21 167.428 104.813C167.569 104.416 167.658 104.003 167.794 103.6C167.929 103.198 168.065 102.8 168.201 102.403C168.337 102.006 168.551 101.63 168.682 101.232C168.813 100.835 168.917 100.422 169.043 100.02C169.168 99.6172 169.325 99.2251 169.445 98.8227C169.566 98.4202 169.571 97.9811 169.686 97.5786C169.801 97.1761 170.046 96.805 170.156 96.3973C170.266 95.9896 170.365 95.5767 170.465 95.169C170.564 94.7613 170.538 94.3222 170.632 93.9092C170.726 93.4963 170.925 93.1095 171.008 92.6966C171.092 92.2836 171.108 91.855 171.181 91.4421C171.254 91.0291 171.343 90.6162 171.405 90.198C171.468 89.7799 171.458 89.3565 171.505 88.9383C171.552 88.5201 171.641 88.102 171.672 87.6838C171.703 87.2657 171.703 86.8423 171.719 86.4189C171.735 85.9955 171.797 85.5773 171.797 85.1539C171.797 84.7305 171.714 84.3124 171.693 83.8942C171.672 83.476 171.719 83.0474 171.682 82.6293C171.646 82.2111 171.5 81.8034 171.442 81.3852C171.385 80.9671 171.379 80.5437 171.301 80.1307C171.223 79.7178 171.144 79.3049 171.05 78.8919C170.956 78.479 170.904 78.0608 170.789 77.6531C170.674 77.2454 170.506 76.8586 170.37 76.4561C170.235 76.0536 170.093 75.6616 169.937 75.2696C169.78 74.8776 169.607 74.496 169.435 74.1092C169.262 73.7224 169.095 73.3408 168.902 72.9592L168.928 72.9488Z" fill="#8DB579"/>
<path d="M211.115 116.312C211.027 115.889 210.912 115.476 210.828 115.053C210.744 114.629 210.619 114.216 210.54 113.793C210.462 113.37 210.42 112.941 210.347 112.518C210.274 112.094 210.19 111.671 210.117 111.247C210.044 110.824 209.945 110.406 209.877 109.977C209.809 109.549 209.772 109.12 209.704 108.697C209.636 108.273 209.511 107.855 209.443 107.432C209.375 107.008 209.364 106.574 209.296 106.146C209.228 105.717 209.15 105.299 209.077 104.876C209.004 104.452 208.998 104.018 208.93 103.59C208.863 103.161 208.721 102.753 208.653 102.33C208.585 101.907 208.575 101.473 208.502 101.049C208.429 100.626 208.319 100.208 208.246 99.7845C208.173 99.3611 208.047 98.9482 207.969 98.5248C207.89 98.1014 207.786 97.6832 207.702 97.2651C207.618 96.8469 207.535 96.4235 207.446 96.0001C207.357 95.5767 207.258 95.169 207.148 94.7509C207.038 94.3327 206.944 93.925 206.814 93.512C206.683 93.0991 206.552 92.6966 206.411 92.2889C206.27 91.8812 206.15 91.4735 205.993 91.071C205.836 90.6685 205.617 90.3026 205.444 89.9054C205.272 89.5081 205.214 89.0743 205.031 88.6822C204.848 88.2902 204.644 87.9139 204.456 87.5323C204.268 87.1507 204.001 86.8005 203.803 86.4189C203.604 86.0374 203.405 85.661 203.196 85.2847C202.987 84.9083 202.757 84.5476 202.543 84.1765C202.329 83.8054 202.229 83.3663 202.005 83.0004C201.78 82.6345 201.524 82.2896 201.294 81.9237C201.064 81.5578 200.844 81.1919 200.614 80.8312C200.384 80.4705 200.165 80.0994 199.929 79.7388C199.694 79.3781 199.454 79.0227 199.213 78.6672C198.973 78.3118 198.712 77.9668 198.471 77.6166C198.231 77.2664 197.969 76.9162 197.724 76.5659C197.478 76.2157 197.232 75.8551 196.987 75.5153C196.736 75.1651 196.427 74.8515 196.166 74.5013C195.905 74.151 195.617 73.8322 195.345 73.4872C195.074 73.1422 194.786 72.8234 194.509 72.4888C194.232 72.1543 193.95 71.825 193.662 71.5009C193.375 71.1769 193.134 70.8057 192.836 70.4921C192.538 70.1785 192.183 69.9171 191.869 69.6192C191.556 69.3213 191.258 69.0024 190.934 68.7149C190.61 68.4274 190.28 68.1452 189.935 67.8786C189.59 67.612 189.245 67.3559 188.89 67.105C188.535 66.8541 188.158 66.6502 187.787 66.4202C187.416 66.1902 187.055 65.955 186.674 65.7512C186.287 65.5473 185.895 65.3696 185.498 65.1919C185.1 65.0142 184.703 64.8469 184.295 64.6901C183.888 64.5333 183.496 64.3451 183.083 64.2092C182.67 64.0733 182.262 63.906 181.844 63.7963C181.426 63.6865 181.002 63.561 180.579 63.4722C180.156 63.3833 179.711 63.3729 179.283 63.2945C178.854 63.2161 178.431 63.1115 177.997 63.054C177.563 62.9965 177.129 62.9756 176.695 62.9338C176.261 62.892 175.828 62.8345 175.394 62.8031C174.96 62.7718 174.526 62.7561 174.087 62.7352C173.653 62.7143 173.214 62.7508 172.78 62.7352C172.367 62.7247 171.96 62.6045 171.547 62.6045C171.134 62.6045 170.726 62.7404 170.313 62.7509C169.9 62.7613 169.487 62.6568 169.074 62.6724C168.661 62.6881 168.254 62.7979 167.846 62.824C167.438 62.8502 167.025 62.8972 166.617 62.9338C166.21 62.9704 165.792 62.9652 165.384 63.0122C164.976 63.0592 164.563 63.0854 164.156 63.1533C163.748 63.2213 163.345 63.3049 162.938 63.3833C162.53 63.4617 162.122 63.5088 161.72 63.6081C161.317 63.7074 160.941 63.8956 160.544 64.0053C160.146 64.1151 159.728 64.1622 159.336 64.2928C158.939 64.4235 158.573 64.6483 158.191 64.7946C157.81 64.941 157.413 65.0873 157.036 65.2546C156.655 65.4219 156.252 65.5473 155.881 65.7355C155.51 65.9237 155.155 66.1484 154.799 66.3523C154.444 66.5561 154.046 66.7234 153.701 66.9429C153.356 67.1625 153.017 67.4238 152.682 67.6643C152.348 67.9047 152.05 68.2079 151.726 68.464C151.402 68.7201 151.077 68.9815 150.764 69.2533C150.45 69.5251 150.074 69.729 149.776 70.0164C149.478 70.3039 149.175 70.5914 148.887 70.8946C148.6 71.1978 148.396 71.5741 148.124 71.8877C147.852 72.2014 147.601 72.5307 147.34 72.8547C147.079 73.1788 146.844 73.5186 146.598 73.8531C146.352 74.1876 145.997 74.4438 145.762 74.7887C145.526 75.1337 145.343 75.5101 145.119 75.8603C144.894 76.2105 144.643 76.545 144.434 76.9005C144.225 77.2559 144.016 77.6218 143.817 77.9825C143.618 78.3431 143.472 78.7404 143.284 79.1115C143.096 79.4826 142.976 79.8851 142.793 80.2562C142.61 80.6274 142.343 80.9619 142.171 81.3435C141.998 81.725 141.92 82.138 141.758 82.5248C141.596 82.9116 141.345 83.2513 141.193 83.6381C141.042 84.0249 140.994 84.4536 140.848 84.8404C140.702 85.2272 140.503 85.5983 140.367 85.9903C140.231 86.3823 140.069 86.7639 139.933 87.1612C139.797 87.5584 139.719 87.9661 139.594 88.3634C139.468 88.7607 139.338 89.1527 139.217 89.5499C139.097 89.9472 138.956 90.3392 138.841 90.7417C138.726 91.1442 138.642 91.5519 138.533 91.9492C138.423 92.3464 138.323 92.7541 138.219 93.1566C138.114 93.5591 137.984 93.9563 137.884 94.3588C137.785 94.7613 137.722 95.1795 137.623 95.582C137.524 95.9844 137.414 96.3869 137.32 96.7894C137.226 97.1919 137.147 97.6048 137.059 98.0073C136.97 98.4098 136.839 98.8123 136.75 99.22C136.661 99.6277 136.588 100.035 136.499 100.438C136.41 100.84 136.358 101.259 136.274 101.661C136.186 102.069 136.034 102.466 135.95 102.879C135.867 103.292 135.867 103.715 135.788 104.128C135.71 104.541 135.6 104.944 135.532 105.357C135.464 105.769 135.428 106.188 135.365 106.601C135.302 107.014 135.119 107.411 135.057 107.824C134.994 108.237 135.046 108.67 134.994 109.083C134.942 109.496 134.858 109.909 134.806 110.327C134.753 110.746 134.696 111.159 134.649 111.577C134.602 111.995 134.555 112.408 134.513 112.826C134.471 113.244 134.424 113.657 134.388 114.075C134.351 114.493 134.361 114.912 134.33 115.33C134.299 115.748 134.267 116.166 134.236 116.584C134.205 117.002 134.105 117.415 134.079 117.833C134.053 118.252 134.069 118.67 134.048 119.088C134.027 119.506 133.959 119.924 133.938 120.342C133.917 120.761 133.938 121.179 133.928 121.597C133.917 122.015 133.964 122.433 133.954 122.857C133.943 123.28 133.828 123.693 133.818 124.111C133.807 124.529 133.813 124.948 133.807 125.366C133.802 125.784 133.818 126.202 133.818 126.62C133.818 127.038 133.839 127.456 133.839 127.875C133.839 128.293 133.792 128.711 133.792 129.129C133.792 129.547 133.765 129.965 133.771 130.384C133.776 130.802 133.87 131.22 133.875 131.638C133.88 132.056 133.833 132.474 133.839 132.893C133.844 133.311 133.896 133.729 133.901 134.147C133.907 134.565 133.886 134.983 133.896 135.402C133.907 135.82 133.917 136.238 133.922 136.656C133.928 137.074 133.975 137.492 133.985 137.911C133.995 138.329 133.975 138.747 133.985 139.165C133.995 139.583 133.922 140.001 133.933 140.425C133.943 140.848 134.09 141.261 134.1 141.679C134.11 142.097 134.11 142.516 134.121 142.934C134.131 143.352 134.152 143.77 134.158 144.188C134.163 144.606 134.126 145.025 134.131 145.448C134.137 145.871 134.131 146.284 134.142 146.702C134.152 147.121 134.168 147.539 134.178 147.957C134.189 148.375 134.225 148.793 134.236 149.211C134.246 149.63 134.252 150.048 134.257 150.466C134.262 150.884 134.257 151.302 134.257 151.72C134.257 152.139 134.257 152.557 134.257 152.975C134.257 153.393 134.199 153.811 134.199 154.229C134.199 154.648 134.178 155.066 134.178 155.484C134.178 155.902 134.231 156.32 134.225 156.738C134.22 157.157 134.22 157.575 134.21 157.993C134.199 158.411 134.173 158.845 134.163 159.263C134.586 159.263 135.02 159.263 135.438 159.263C135.862 159.263 136.28 159.185 136.698 159.179C137.121 159.179 137.539 159.227 137.958 159.227C138.381 159.227 138.799 159.274 139.217 159.268C139.635 159.263 140.059 159.195 140.477 159.195C140.895 159.195 141.319 159.164 141.737 159.159C142.155 159.153 142.578 159.279 142.996 159.279C143.415 159.279 143.838 159.263 144.256 159.263C144.674 159.263 145.098 159.221 145.516 159.216C145.934 159.211 146.357 159.206 146.776 159.2C147.194 159.195 147.617 159.179 148.035 159.179C148.453 159.179 148.877 159.143 149.295 159.143C149.713 159.143 150.137 159.112 150.555 159.106C150.973 159.101 151.396 159.185 151.814 159.179C152.233 159.174 152.656 159.211 153.074 159.211C153.492 159.211 153.911 159.117 154.334 159.112C154.757 159.106 155.175 159.179 155.594 159.179C156.012 159.179 156.435 159.08 156.853 159.08C157.272 159.08 157.695 159.159 158.113 159.159C158.531 159.159 158.955 159.106 159.373 159.101C159.791 159.096 160.214 159.101 160.633 159.101C161.051 159.101 161.474 159.164 161.892 159.164C162.31 159.164 162.734 159.164 163.152 159.164C163.57 159.164 163.988 159.064 164.406 159.059C164.825 159.054 165.248 159.091 165.666 159.085C166.084 159.08 166.502 159.012 166.926 159.007C167.349 159.002 167.767 159.08 168.186 159.08C168.604 159.08 169.022 159.127 169.445 159.127C169.863 159.127 170.282 159.007 170.7 159.007C171.118 159.007 171.536 159.112 171.954 159.106C172.372 159.101 172.791 159.059 173.209 159.059C173.627 159.059 174.045 159.028 174.463 159.028C174.881 159.028 175.3 159.017 175.718 159.012C176.136 159.007 176.554 159.012 176.972 159.012C177.39 159.012 177.809 159.023 178.227 159.023C178.645 159.023 179.063 158.981 179.481 158.981C179.899 158.981 180.318 159.059 180.736 159.059C181.154 159.059 181.572 158.934 181.99 158.934C182.408 158.934 182.827 159.002 183.245 159.002C183.663 159.002 184.081 159.044 184.499 159.038C184.917 159.033 185.336 158.955 185.754 158.955C186.172 158.955 186.59 159.044 187.008 159.038C187.426 159.033 187.845 158.913 188.263 158.913C188.681 158.913 189.099 158.897 189.517 158.892C189.935 158.887 190.354 159.002 190.772 158.997C191.19 158.991 191.608 159.007 192.026 159.002C192.444 158.997 192.862 158.871 193.281 158.866C193.699 158.861 194.117 158.955 194.535 158.949C194.953 158.944 195.371 158.892 195.79 158.887C196.208 158.882 196.626 158.934 197.044 158.934C197.462 158.934 197.88 158.949 198.304 158.944C198.727 158.939 199.14 158.949 199.564 158.944C199.987 158.939 200.4 158.834 200.818 158.834C201.236 158.834 201.654 158.871 202.073 158.866C202.491 158.861 202.909 158.855 203.327 158.85C203.745 158.845 204.163 158.887 204.587 158.882C205.01 158.876 205.423 158.897 205.846 158.892C206.27 158.887 206.683 158.861 207.101 158.861C207.519 158.861 207.937 158.871 208.361 158.866C208.784 158.861 209.197 158.892 209.62 158.887C210.044 158.882 210.462 158.824 210.885 158.824C211.366 158.824 211.863 158.803 212.344 158.735C212.825 158.667 213.337 158.589 213.75 158.327C214.1 158.108 214.293 157.747 214.502 157.418C214.712 157.089 214.957 156.765 215.062 156.378C215.166 155.991 215.125 155.588 215.156 155.191C215.187 154.794 215.203 154.397 215.208 154.01C215.208 153.587 215.229 153.163 215.229 152.745C215.229 152.327 215.302 151.898 215.297 151.475C215.292 151.051 215.234 150.628 215.224 150.21C215.213 149.792 215.145 149.368 215.13 148.945C215.114 148.522 215.166 148.098 215.151 147.675C215.135 147.251 215.13 146.828 215.109 146.41C215.088 145.992 215.072 145.563 215.046 145.145C215.02 144.727 214.989 144.303 214.962 143.88C214.936 143.457 214.936 143.033 214.905 142.615C214.874 142.197 214.738 141.779 214.701 141.36C214.665 140.942 214.701 140.514 214.659 140.09C214.617 139.667 214.623 139.243 214.581 138.825C214.539 138.407 214.398 137.994 214.356 137.576C214.314 137.158 214.262 136.735 214.215 136.316C214.168 135.898 214.173 135.47 214.121 135.051C214.069 134.633 214.016 134.215 213.964 133.792C213.912 133.368 213.88 132.95 213.823 132.532C213.765 132.114 213.729 131.69 213.671 131.272C213.614 130.854 213.483 130.446 213.426 130.028C213.368 129.61 213.379 129.181 213.316 128.763C213.253 128.345 213.238 127.922 213.17 127.504C213.102 127.085 213.034 126.667 212.966 126.254C212.898 125.841 212.819 125.423 212.746 125.005C212.673 124.587 212.532 124.184 212.459 123.766C212.386 123.348 212.286 122.94 212.213 122.522C212.14 122.104 212.082 121.686 212.004 121.273C211.926 120.86 211.894 120.431 211.816 120.018C211.737 119.605 211.685 119.182 211.601 118.769C211.518 118.356 211.403 117.948 211.319 117.53C211.236 117.112 211.189 116.694 211.105 116.281L211.115 116.312Z" fill="#8DB579"/>
<path d="M205.606 84.9395C205.653 85.3576 205.716 85.7706 205.768 86.1887C205.826 86.6435 205.941 87.1035 205.972 87.5582C205.998 87.9764 205.956 88.3946 206.003 88.8127C206.05 89.2309 206.223 89.6438 206.259 90.062C206.296 90.4802 206.249 90.8983 206.301 91.3113C206.353 91.7242 206.474 92.1476 206.51 92.5657C206.547 92.963 206.563 93.3603 206.604 93.7575C206.651 94.1966 206.735 94.6304 206.772 95.0695C206.85 95.9477 206.949 96.8258 207.002 97.7039C207.028 98.1221 207.023 98.5455 207.075 98.9637C207.127 99.4236 207.2 99.8784 207.221 100.344C207.258 101.227 207.357 102.105 207.378 102.988C207.399 103.872 207.545 104.656 207.603 105.497C207.66 106.339 207.754 107.254 207.827 108.132C207.901 109.01 207.833 109.914 207.995 110.798C208.063 111.174 208.078 111.519 208.068 111.901C208.052 112.366 208.084 112.821 208.12 113.286C208.178 114.112 208.387 114.906 208.334 115.732C208.282 116.558 208.434 117.462 208.533 118.309C208.632 119.156 208.659 120.07 208.69 120.949C208.753 122.689 208.779 124.435 208.842 126.176C208.857 126.625 208.962 127.059 209.009 127.503C209.061 128 208.983 128.507 209.009 129.004C209.035 129.463 209.124 129.923 209.108 130.389C209.092 130.896 209.061 131.398 209.061 131.905C209.061 132.877 209.072 133.849 209.218 134.816C209.286 135.276 209.218 135.725 209.197 136.191C209.176 136.692 209.207 137.2 209.223 137.701C209.249 138.71 210.817 138.71 210.791 137.701C210.781 137.283 210.765 136.86 210.765 136.442C210.765 135.982 210.854 135.527 210.823 135.067C210.796 134.685 210.702 134.309 210.681 133.927C210.655 133.467 210.65 133.002 210.64 132.542C210.629 132.124 210.624 131.701 210.624 131.283C210.624 130.817 210.702 130.363 210.666 129.892C210.634 129.495 210.572 129.098 210.572 128.695C210.572 128.261 210.613 127.827 210.572 127.394C210.53 127.007 210.436 126.63 210.42 126.244C210.399 125.784 210.394 125.318 210.378 124.858C210.342 123.975 210.3 123.097 210.295 122.214C210.284 120.494 210.19 118.764 209.986 117.054C209.934 116.631 209.887 116.223 209.913 115.795C209.939 115.309 209.934 114.854 209.84 114.373C209.683 113.563 209.62 112.721 209.646 111.895C209.673 111.07 209.443 110.233 209.458 109.381C209.474 108.529 209.375 107.656 209.286 106.804C209.197 105.952 209.166 105.032 209.035 104.149C208.904 103.266 208.93 102.44 208.868 101.593C208.805 100.746 208.758 99.8366 208.653 98.9532C208.549 98.0698 208.544 97.2335 208.46 96.3763C208.413 95.8954 208.387 95.4145 208.34 94.9336C208.293 94.4527 208.193 93.9352 208.152 93.4334C208.11 92.9316 208.094 92.4717 208.016 91.9908C207.942 91.5465 207.843 91.1283 207.843 90.6788C207.843 90.1561 207.812 89.6595 207.681 89.1473C207.571 88.7239 207.545 88.3632 207.55 87.9189C207.55 87.3805 207.451 86.863 207.362 86.3351C207.284 85.8647 207.232 85.389 207.174 84.9186C207.122 84.5004 206.85 84.1345 206.39 84.1345C206.003 84.1345 205.554 84.4952 205.606 84.9186V84.9395Z" fill="#699055"/>
<path d="M164.318 54.6278C164.328 55.0668 164.223 55.5007 164.218 55.9397C164.213 56.3788 164.297 56.8179 164.281 57.2517C164.265 57.6856 164.276 58.1299 164.244 58.5637C164.213 58.9976 164.061 59.4262 164.014 59.86C163.967 60.2939 163.915 60.7277 163.858 61.1616C163.8 61.5954 163.858 62.0449 163.79 62.4788C163.722 62.9126 163.528 63.3203 163.445 63.749C163.361 64.1776 163.272 64.6062 163.173 65.0296C163.074 65.453 162.953 65.8764 162.844 66.2998C162.765 66.5925 162.708 66.974 162.864 67.2249C163.021 67.4706 163.377 67.4863 163.649 67.5124C164.072 67.5543 164.495 67.5752 164.913 67.6065C165.332 67.6379 165.755 67.6797 166.178 67.7058C166.602 67.732 167.025 67.7476 167.449 67.7686C167.872 67.7895 168.295 67.8261 168.719 67.8417C169.142 67.8574 169.566 67.8626 169.989 67.8679C170.412 67.8731 170.836 67.8365 171.259 67.8365C171.682 67.8365 172.106 67.847 172.529 67.8365C172.953 67.8261 173.371 67.7633 173.794 67.7477C174.218 67.732 174.636 67.6954 175.059 67.664C175.483 67.6327 175.906 67.6536 176.329 67.6222C176.753 67.5908 177.176 67.5647 177.594 67.5229C178.012 67.4811 178.441 67.4863 178.864 67.4393C179.288 67.3922 179.701 67.3033 180.119 67.2458C180.537 67.1884 180.95 67.0786 181.368 67.0106C181.499 66.9897 181.682 67.0472 181.776 66.9479C181.927 66.7911 181.912 66.4827 181.88 66.2632C181.818 65.845 181.656 65.4425 181.603 65.0244C181.551 64.6062 181.588 64.1776 181.541 63.7594C181.494 63.3412 181.41 62.9283 181.368 62.5049C181.326 62.0815 181.326 61.6634 181.29 61.2452C181.253 60.827 181.18 60.4089 181.149 59.9907C181.117 59.5725 181.107 59.1492 181.081 58.7258C181.055 58.3024 181.107 57.879 181.086 57.4608C181.065 57.0427 180.955 56.6245 180.945 56.2011C180.934 55.7777 180.929 55.3595 180.924 54.9361C180.919 54.5128 180.96 54.0946 180.96 53.6712C180.96 53.2478 180.877 52.8296 180.887 52.4063C180.898 51.9829 180.903 51.5647 180.919 51.1413C180.934 50.7179 181.055 50.305 181.07 49.8816" fill="#EBBEA7"/>
<path d="M148.443 38.7429C148.584 39.1558 148.72 39.5687 148.85 39.9869C148.981 40.4051 149.169 40.8023 149.3 41.2153C149.431 41.6282 149.54 42.0516 149.671 42.4698C149.802 42.8879 149.854 43.327 149.99 43.7399C150.126 44.1529 150.262 44.571 150.403 44.9787C150.544 45.3864 150.805 45.7576 150.962 46.1653C151.119 46.573 151.192 47.0121 151.365 47.4145C151.537 47.817 151.809 48.1672 152.002 48.5593C152.17 48.9043 152.311 49.2649 152.489 49.6047C152.666 49.9444 152.86 50.2737 153.058 50.603C153.257 50.9323 153.435 51.2773 153.654 51.591C153.874 51.9046 154.13 52.1973 154.37 52.4952C154.611 52.7932 154.903 53.0441 155.18 53.3107C155.457 53.5772 155.719 53.8543 156.022 54.0895C156.367 54.3561 156.702 54.6331 157.078 54.8474C157.454 55.0617 157.825 55.2969 158.223 55.4747C158.62 55.6524 159.043 55.7569 159.451 55.9085C159.859 56.0601 160.266 56.2064 160.679 56.3423C161.092 56.4782 161.484 56.6769 161.897 56.8023C162.268 56.9173 162.676 56.9069 163.042 57.0166C163.408 57.1264 163.753 57.3459 164.119 57.4557C164.485 57.5655 164.861 57.6648 165.237 57.7693C165.614 57.8739 166.011 57.8739 166.382 57.968C166.753 58.062 167.114 58.2189 167.495 58.3025C167.924 58.3966 168.368 58.4227 168.802 58.5011C169.236 58.5795 169.665 58.6997 170.098 58.7468C170.532 58.7938 170.982 58.7468 171.421 58.7677C171.86 58.7886 172.299 58.8827 172.738 58.8722C173.177 58.8618 173.616 58.7886 174.05 58.7416C174.484 58.6945 174.928 58.6579 175.357 58.5743C175.785 58.4907 176.23 58.4384 176.653 58.3077C177.077 58.177 177.453 57.9366 177.855 57.7536C178.185 57.6073 178.551 57.5393 178.875 57.3721C179.199 57.2048 179.523 57.0584 179.847 56.9016C180.171 56.7448 180.453 56.4835 180.788 56.358C181.18 56.2117 181.624 56.2326 182.032 56.1333C182.44 56.0339 182.837 55.8876 183.25 55.8092C183.663 55.7308 184.065 55.6158 184.473 55.5217C184.881 55.4276 185.309 55.3962 185.701 55.2499C186.083 55.1088 186.449 54.9101 186.799 54.7167C187.149 54.5233 187.525 54.3352 187.855 54.0947C188.184 53.8543 188.44 53.5302 188.743 53.2532C189.046 52.9761 189.303 52.673 189.58 52.3698C189.857 52.0666 190.196 51.8262 190.447 51.5073C190.698 51.1885 190.866 50.8069 191.096 50.4724C191.325 50.1378 191.524 49.7824 191.744 49.4426C191.968 49.0924 192.287 48.7997 192.507 48.439C192.726 48.0784 192.935 47.7229 193.145 47.357C193.354 46.9911 193.442 46.5678 193.636 46.1966C193.829 45.8255 194.122 45.5067 194.305 45.1303C194.488 44.754 194.666 44.3724 194.838 43.996C195.011 43.6197 195.194 43.2381 195.356 42.8513C195.518 42.4645 195.664 42.0725 195.816 41.6805C195.967 41.2884 196.051 40.8755 196.187 40.4782C196.323 40.081 196.432 39.6785 196.558 39.2813C196.683 38.884 196.803 38.4815 196.913 38.079C197.023 37.6765 197.122 37.2688 197.216 36.8611C197.31 36.4534 197.431 36.0509 197.514 35.6432C197.598 35.2355 197.676 34.8226 197.75 34.4096C197.823 33.9967 197.849 33.5785 197.906 33.1656C197.964 32.7527 198.032 32.3397 198.074 31.9216C198.115 31.5034 198.105 31.0852 198.131 30.6671C198.157 30.2489 198.162 29.836 198.173 29.4178C198.183 28.9996 198.236 28.5867 198.23 28.1685C198.225 27.7504 198.23 27.3322 198.21 26.9141C198.189 26.5011 198.21 26.083 198.173 25.6752C198.136 25.2675 198.047 24.8598 197.99 24.4521C197.932 24.0444 197.807 23.6471 197.723 23.2447C197.64 22.8422 197.645 22.4188 197.54 22.0215C197.436 21.6243 197.321 21.227 197.195 20.835C197.07 20.443 196.84 20.0875 196.699 19.7007C196.558 19.3139 196.49 18.8958 196.328 18.5194C196.166 18.1431 195.962 17.7824 195.784 17.4113C195.606 17.0402 195.45 16.6586 195.251 16.2979C195.052 15.9372 194.812 15.6027 194.598 15.2525C194.383 14.9023 194.169 14.5469 193.939 14.2071C193.709 13.8673 193.526 13.491 193.275 13.1617C193.024 12.8324 192.695 12.5658 192.434 12.2522C192.172 11.9386 191.906 11.6249 191.629 11.3165C191.352 11.0081 191.101 10.6841 190.808 10.3913C190.515 10.0986 190.16 9.8791 189.857 9.59684C189.554 9.31458 189.245 9.048 188.932 8.78664C188.618 8.52529 188.362 8.18553 188.032 7.93464C187.703 7.68374 187.327 7.50602 186.992 7.2708C186.658 7.03558 186.365 6.72719 186.015 6.50765C185.665 6.28811 185.257 6.16789 184.901 5.96404C184.546 5.76018 184.175 5.58246 183.809 5.39429C183.443 5.20612 183.093 4.99181 182.717 4.81931C182.34 4.64682 181.964 4.48478 181.582 4.32797C181.201 4.17116 180.84 3.9673 180.448 3.8314C180.056 3.6955 179.633 3.67982 179.241 3.55959C178.849 3.43937 178.467 3.27211 178.07 3.17279C177.672 3.07348 177.26 3.04212 176.852 2.95848C176.444 2.87485 176.057 2.75463 175.65 2.6919C175.242 2.62918 174.85 2.4776 174.437 2.43055C174.024 2.38351 173.611 2.43055 173.198 2.39919C172.785 2.36783 172.346 2.28419 171.928 2.27897C171.51 2.27374 171.076 2.39919 170.658 2.41487C170.24 2.43055 169.811 2.46714 169.393 2.50896C168.975 2.55077 168.546 2.556 168.128 2.61873C167.71 2.68145 167.292 2.75986 166.879 2.84349C166.466 2.92712 166.032 2.95848 165.624 3.06302C165.216 3.16757 164.793 3.25643 164.391 3.3871C163.988 3.51778 163.606 3.72163 163.209 3.87322C162.812 4.0248 162.436 4.22866 162.054 4.40115C161.672 4.57364 161.28 4.75136 160.904 4.94476C160.528 5.13816 160.151 5.33679 159.785 5.5511C159.42 5.76541 159.028 5.9379 158.672 6.17312C158.317 6.40834 157.972 6.65924 157.632 6.91013C157.292 7.16103 156.968 7.43807 156.639 7.70987C156.309 7.98168 155.98 8.24826 155.667 8.53575C155.353 8.82323 155.107 9.17867 154.809 9.47661C154.511 9.77456 154.182 10.0464 153.9 10.3652C153.618 10.6841 153.32 10.9872 153.053 11.3165C152.786 11.6458 152.53 11.9856 152.279 12.3254C152.029 12.6651 151.809 13.031 151.574 13.3864C151.339 13.7419 151.093 14.0869 150.873 14.4475C150.654 14.8082 150.408 15.1584 150.204 15.5348C150 15.9111 149.802 16.2822 149.614 16.6638C149.425 17.0454 149.232 17.427 149.065 17.8138C148.898 18.2006 148.767 18.6083 148.615 19.0055C148.464 19.4028 148.396 19.8262 148.265 20.2339C148.134 20.6416 147.951 21.0232 147.836 21.4309C147.721 21.8386 147.601 22.2463 147.507 22.6592C147.413 23.0722 147.356 23.4956 147.277 23.9137C147.199 24.3319 147.199 24.7605 147.136 25.1787C147.073 25.5968 147.026 26.015 146.984 26.4384C146.943 26.8618 146.875 27.2799 146.849 27.7033C146.822 28.1267 146.713 28.5501 146.707 28.9735C146.707 29.3812 146.765 29.7837 146.775 30.181C146.786 30.5782 146.775 30.9911 146.807 31.3884C146.838 31.7857 146.969 32.1829 147.021 32.5802C147.073 32.9774 147.037 33.3904 147.11 33.7876C147.183 34.1849 147.256 34.5821 147.345 34.9742C147.434 35.3662 147.596 35.7373 147.701 36.1293C147.805 36.5214 147.831 36.9291 147.946 37.3159C148.061 37.7027 148.197 38.079 148.333 38.4606C148.364 38.5547 148.417 38.6383 148.448 38.7324L148.443 38.7429Z" fill="#EBBEA7"/>
<path d="M179.157 42.8802C179.649 43.3568 180.1 43.8128 180.489 44.3827C180.877 44.9526 181.172 45.5433 181.509 46.134C182.219 47.3619 182.447 48.8126 182.457 50.2167C182.463 50.8851 183.499 50.8851 183.494 50.2167C183.488 49.4499 183.39 48.6468 183.266 47.8904C183.141 47.1339 182.836 46.3671 182.457 45.7091C182.105 45.0874 181.779 44.4553 181.38 43.8594C180.944 43.2118 180.442 42.6885 179.888 42.1496C179.411 41.6833 178.675 42.4139 179.157 42.8802Z" fill="#BC7F6C"/>
<path d="M162.336 42.8802C161.844 43.3568 161.393 43.8128 161.005 44.3827C160.616 44.9526 160.321 45.5433 159.984 46.134C159.274 47.3619 159.046 48.8126 159.036 50.2167C159.031 50.8851 157.995 50.8851 158 50.2167C158.005 49.4499 158.103 48.6468 158.228 47.8904C158.352 47.1339 158.658 46.3671 159.036 45.7091C159.388 45.0874 159.715 44.4553 160.114 43.8594C160.549 43.2118 161.052 42.6885 161.606 42.1496C162.083 41.6833 162.818 42.4139 162.336 42.8802Z" fill="#BC7F6C"/>
<path d="M141.857 41.3772C142.144 41.6856 142.39 42.0358 142.719 42.3076C143.033 42.5689 143.388 42.8251 143.78 43.0394C144.146 43.238 144.528 43.4471 144.941 43.5987C145.354 43.7503 145.777 43.7764 146.2 43.8757C146.624 43.975 147.031 44.0639 147.46 44.1109C147.889 44.158 148.317 44.158 148.741 44.1527C149.164 44.1475 149.614 44.2311 150.032 44.1684C150.45 44.1057 150.858 43.8809 151.255 43.7555C151.673 43.6248 152.091 43.5255 152.457 43.3164C152.823 43.1073 153.215 42.8773 153.513 42.5689C153.811 42.2605 154.062 41.8999 154.25 41.5026C154.423 41.1367 154.464 40.6977 154.527 40.2481C154.585 39.8561 154.642 39.4327 154.605 38.9727C154.574 38.5702 154.543 38.1312 154.47 37.6817C154.402 37.2739 154.313 36.8453 154.208 36.4063C154.114 35.9985 153.942 35.5908 153.816 35.1674C153.691 34.744 153.581 34.3416 153.435 33.9286C153.288 33.5157 153.215 33.0871 153.048 32.6846C152.881 32.2821 152.708 31.8849 152.52 31.4928C152.332 31.1008 152.029 30.7663 151.819 30.3899C151.61 30.0136 151.469 29.585 151.234 29.2243C150.999 28.8636 150.659 28.5605 150.398 28.2207C150.136 27.8809 149.875 27.5203 149.582 27.2119C149.29 26.9035 148.955 26.6003 148.626 26.339C148.281 26.0619 147.941 25.7901 147.57 25.5863C147.199 25.3824 146.775 25.2308 146.362 25.1158C145.949 24.9956 145.526 24.9747 145.097 24.9486C144.669 24.9224 144.245 24.9172 143.822 24.9799C143.399 25.0426 142.97 25.1158 142.573 25.2674C142.176 25.419 141.763 25.5863 141.407 25.8267C141.026 26.0828 140.712 26.433 140.398 26.7623C140.085 27.0916 139.797 27.4523 139.552 27.8391C139.306 28.2259 139.034 28.6075 138.862 29.0361C138.689 29.4647 138.679 29.9404 138.585 30.3847C138.49 30.829 138.318 31.2733 138.292 31.728C138.266 32.1828 138.271 32.648 138.297 33.108C138.323 33.568 138.48 34.007 138.558 34.4566C138.637 34.9061 138.668 35.3713 138.788 35.8104C138.898 36.2233 139.081 36.6153 139.227 37.0178C139.374 37.4203 139.478 37.8385 139.661 38.2305C139.844 38.6225 140.121 38.9571 140.336 39.3229C140.55 39.6888 140.717 40.0965 140.973 40.4415C141.229 40.7865 141.564 41.0636 141.857 41.3772Z" fill="#EBBEA7"/>
<path d="M142.62 33.892C143.179 34.0541 143.749 34.1743 144.308 34.352C144.868 34.5297 145.417 34.7127 145.986 34.8433C146.556 34.974 147.037 35.1674 147.56 35.3608C148.082 35.5542 148.652 35.7163 149.196 35.8835C150.163 36.1815 150.576 34.6656 149.614 34.3729C149.07 34.2056 148.511 34.0488 147.978 33.8502C147.445 33.6516 146.953 33.4582 146.404 33.3327C145.856 33.2073 145.281 33.0243 144.727 32.8414C144.172 32.6584 143.597 32.5434 143.038 32.3814C142.066 32.0991 141.653 33.6098 142.62 33.892Z" fill="#A55535"/>
<path d="M202.731 41.4609C202.444 41.7693 202.13 42.062 201.801 42.3338C201.487 42.5951 201.1 42.8042 200.708 43.0185C200.342 43.2172 199.935 43.3583 199.522 43.5099C199.109 43.6615 198.712 43.7451 198.288 43.8444C197.865 43.9437 197.462 44.043 197.034 44.0901C196.605 44.1371 196.182 44.1998 195.753 44.1946C195.324 44.1894 194.896 44.1162 194.478 44.0587C194.059 44.0012 193.636 43.8914 193.239 43.766C192.821 43.6353 192.382 43.5621 192.021 43.3531C191.66 43.144 191.341 42.8199 191.049 42.5167C190.756 42.2136 190.505 41.8738 190.317 41.4765C190.144 41.1107 190.035 40.7029 189.967 40.2534C189.909 39.8614 189.878 39.438 189.914 38.978C189.946 38.5755 190.008 38.1469 190.087 37.6922C190.155 37.2845 190.191 36.8454 190.296 36.4115C190.39 36.0038 190.526 35.5857 190.651 35.1623C190.777 34.7389 190.845 34.3207 190.991 33.9026C191.138 33.4844 191.368 33.1185 191.53 32.716C191.692 32.3135 191.885 31.9267 192.068 31.5347C192.251 31.1427 192.481 30.7716 192.69 30.3952C192.899 30.0189 193.045 29.5902 193.275 29.2348C193.505 28.8794 193.777 28.5187 194.039 28.1842C194.3 27.8496 194.572 27.4837 194.864 27.1806C195.157 26.8774 195.565 26.6474 195.894 26.3808C196.239 26.1038 196.527 25.7484 196.898 25.5445C197.269 25.3406 197.718 25.2309 198.131 25.1159C198.544 24.9957 198.973 24.98 199.401 24.9538C199.83 24.9277 200.248 24.9434 200.672 25.0113C201.095 25.0793 201.534 25.095 201.937 25.2466C202.339 25.3981 202.705 25.6386 203.06 25.8738C203.442 26.1299 203.771 26.4436 204.09 26.7729C204.409 27.1022 204.681 27.4628 204.926 27.8549C205.172 28.2469 205.428 28.6232 205.601 29.0519C205.773 29.4805 205.888 29.9248 205.988 30.3743C206.087 30.8238 206.061 31.2838 206.092 31.7438C206.123 32.2038 206.118 32.6481 206.092 33.108C206.066 33.568 206.123 34.0332 206.045 34.4828C205.967 34.9323 205.768 35.3609 205.648 35.8C205.538 36.2129 205.507 36.652 205.36 37.0597C205.214 37.4674 205.015 37.849 204.832 38.2358C204.649 38.6226 204.456 39.0094 204.237 39.3805C204.017 39.7516 203.75 40.0914 203.499 40.4311C203.249 40.7709 203.029 41.1577 202.736 41.4713L202.731 41.4609Z" fill="#EBBEA7"/>
<path d="M201.45 32.3502C200.902 32.5227 200.389 32.784 199.825 32.9095C199.292 33.0297 198.785 33.1238 198.278 33.3276C197.169 33.7615 196.014 34.0228 194.88 34.3574C193.913 34.6396 194.326 36.1555 195.298 35.868C196.438 35.5334 197.588 35.2721 198.696 34.8382C199.203 34.6396 199.715 34.5403 200.243 34.4201C200.808 34.2946 201.32 34.0385 201.869 33.8608C202.271 33.7353 202.532 33.3172 202.417 32.8938C202.308 32.4965 201.858 32.2195 201.45 32.3449V32.3502Z" fill="#A55535"/>
<path d="M176.69 28.7958C177.719 28.6442 178.791 28.7697 179.784 29.0572C180.26 29.1931 180.767 29.3081 181.227 29.4858C181.687 29.6635 182.105 29.9719 182.497 30.2594C182.837 30.5103 183.37 30.3169 183.568 29.9771C183.798 29.5799 183.631 29.1565 183.286 28.9056C182.805 28.5554 182.304 28.2313 181.744 28.0118C181.185 27.7922 180.631 27.6615 180.077 27.51C178.828 27.165 177.547 27.097 176.266 27.28C175.848 27.3427 175.618 27.8706 175.717 28.247C175.843 28.6965 176.261 28.8533 176.684 28.7958H176.69Z" fill="#2B2927"/>
<path d="M165.494 27.3687C164.197 27.2537 162.823 27.5464 161.636 28.0482C160.45 28.55 159.43 29.2086 158.625 30.1547C158.353 30.4788 158.306 30.9492 158.625 31.2628C158.908 31.5451 159.456 31.5869 159.733 31.2628C161.103 29.6581 163.398 28.7486 165.499 28.9368C165.922 28.9734 166.283 28.55 166.283 28.1527C166.283 27.698 165.922 27.4053 165.499 27.3687H165.494Z" fill="#2B2927"/>
<path d="M170.888 36.286C170.266 35.9096 169.393 35.9828 168.792 36.3748C168.071 36.8505 167.914 37.6816 167.877 38.4865C167.841 39.2915 167.992 40.0965 168.457 40.7655C168.714 41.1314 169.017 41.4398 169.393 41.696C169.728 41.9259 170.14 42.0462 170.533 42.135C170.925 42.2239 171.4 42.0148 171.5 41.5862C171.588 41.1889 171.379 40.7185 170.951 40.6192C170.81 40.5878 170.674 40.5565 170.538 40.5094C170.48 40.4885 170.418 40.4728 170.36 40.4467C170.496 40.5094 170.287 40.3996 170.282 40.3944C170.261 40.384 170.093 40.2637 170.193 40.3422C170.14 40.3003 170.093 40.2585 170.046 40.2115C169.999 40.1644 169.952 40.1226 169.91 40.0756C169.91 40.0756 169.759 39.8874 169.837 39.9972C169.764 39.8978 169.701 39.7933 169.644 39.6835C169.644 39.6731 169.545 39.4588 169.597 39.5999C169.576 39.5424 169.555 39.4849 169.534 39.4274C169.492 39.2967 169.456 39.1661 169.435 39.0302C169.451 39.1452 169.435 39.0093 169.435 38.9622C169.435 38.8838 169.435 38.8002 169.435 38.7218C169.435 38.5806 169.445 38.4395 169.451 38.3036C169.451 38.2513 169.456 38.1991 169.461 38.1416C169.471 38.0579 169.487 38.0161 169.461 38.1207C169.477 38.0579 169.487 37.99 169.503 37.9273C169.508 37.9063 169.566 37.7339 169.529 37.8332C169.492 37.9325 169.566 37.7704 169.576 37.7495C169.665 37.5823 169.487 37.8384 169.618 37.6973C169.707 37.6032 169.524 37.7339 169.602 37.7077C169.644 37.692 169.686 37.6607 169.722 37.6398C169.487 37.7757 169.926 37.5457 169.926 37.5927C169.926 37.6032 169.748 37.6032 169.926 37.5979C169.952 37.5979 170.046 37.5823 170.073 37.5979C169.968 37.5823 169.947 37.577 170.005 37.5927C170.031 37.5979 170.057 37.6032 170.083 37.6136C170.083 37.5875 169.931 37.53 170.088 37.6241C170.438 37.8384 170.966 37.7129 171.16 37.3418C171.353 36.9707 171.254 36.495 170.878 36.2703L170.888 36.286Z" fill="#2B2927"/>
<path d="M191.728 23.7882C191.493 23.5321 191.284 23.255 191.064 22.978C190.845 22.701 190.589 22.4657 190.39 22.173C190.275 22.0005 190.029 21.5301 189.669 20.9865C189.433 20.6311 189.162 20.2286 188.911 19.8261C188.66 19.4236 188.425 18.995 188.231 18.6186C187.912 18.0071 187.735 17.5732 187.839 17.3798C187.646 17.7405 187.426 18.0959 187.191 18.4305C186.956 18.765 186.6 19.0054 186.323 19.3086C186.046 19.6118 185.806 19.9411 185.497 20.2129C185.189 20.4847 184.907 20.7879 184.567 21.0231C184.227 21.2583 183.819 21.3733 183.459 21.5719C183.098 21.7706 182.769 22.0215 182.387 22.1783C182.006 22.3351 181.593 22.3873 181.201 22.4971C180.809 22.6069 180.411 22.6853 180.004 22.748C179.596 22.8107 179.199 22.9466 178.791 22.9623C178.383 22.978 177.976 22.863 177.568 22.8264C177.16 22.7898 176.747 22.7898 176.35 22.7062C175.953 22.6226 175.535 22.5807 175.143 22.4553C174.751 22.3298 174.395 22.1103 174.019 21.943C173.642 21.7758 173.271 21.6085 172.916 21.3994C172.56 21.1903 172.215 20.9708 171.886 20.7251C171.557 20.4795 171.269 20.1397 170.977 19.8575C170.752 20.2024 170.548 20.6101 170.297 20.9447C170.046 21.2792 169.754 21.5772 169.482 21.8908C169.21 22.2044 168.969 22.5598 168.672 22.8473C168.374 23.1348 168.044 23.4014 167.72 23.6627C167.396 23.9241 167.056 24.175 166.706 24.3945C166.356 24.6141 165.938 24.7186 165.556 24.8911C165.175 25.0636 164.809 25.2465 164.406 25.3668C164.004 25.487 163.612 25.6333 163.199 25.6804C162.786 25.7274 162.362 25.7222 161.95 25.7013C161.537 25.6804 161.129 25.5706 160.726 25.487C160.324 25.4033 159.906 25.3354 159.524 25.1786C159.143 25.0218 158.771 24.8179 158.426 24.5879C158.082 24.3579 157.737 24.1123 157.449 23.8143C157.162 23.5164 156.926 23.208 156.712 22.8473C156.451 23.1244 156.205 23.4275 155.865 23.715C155.567 23.9711 155.165 24.1384 154.82 24.3893C154.496 24.6297 154.146 24.8441 153.785 25.0688C153.424 25.2936 153.111 25.5393 152.745 25.7379C152.379 25.9365 151.997 26.0881 151.621 26.2606C151.245 26.4331 150.868 26.5951 150.481 26.7362C150.095 26.8774 149.697 27.0028 149.3 27.1074C148.903 27.2119 148.5 27.353 148.098 27.4105C147.695 27.468 147.267 27.5099 146.859 27.5046C146.451 27.4994 146.017 27.468 145.62 27.3844C145.223 27.3008 144.82 27.1544 144.444 26.9767C144.068 26.799 143.754 26.5428 143.435 26.2658C143.137 26.0045 142.881 25.6908 142.63 25.3354C142.4 25.0009 142.097 24.7029 141.93 24.337C141.763 23.9711 141.627 23.5791 141.517 23.1871C141.407 22.7951 141.344 22.3926 141.287 21.9849C141.23 21.5772 141.308 21.1747 141.297 20.767C141.287 20.3592 141.198 19.9568 141.224 19.5543C141.25 19.1518 141.277 18.7389 141.344 18.3416C141.412 17.9444 141.601 17.568 141.7 17.176C141.799 16.7839 141.825 16.3658 141.956 15.9842C142.087 15.6026 142.322 15.2472 142.484 14.8865C142.646 14.5259 142.855 14.16 143.049 13.815C143.252 13.4491 143.357 13.0414 143.587 12.7173C143.833 12.3723 144.178 12.1162 144.444 11.7973C144.711 11.4785 144.941 11.1231 145.228 10.8199C145.516 10.5167 145.824 10.2345 146.132 9.95219C146.441 9.66993 146.707 9.3354 147.032 9.07405C147.356 8.8127 147.748 8.62975 148.082 8.38408C148.417 8.13841 148.72 7.83524 149.07 7.60525C149.42 7.37526 149.776 7.15572 150.136 6.94141C150.497 6.7271 150.879 6.55461 151.245 6.35076C151.61 6.1469 151.997 5.98486 152.368 5.79669C152.739 5.60851 153.126 5.44648 153.503 5.26353C153.879 5.08058 154.245 4.87673 154.621 4.69901C154.998 4.52129 155.369 4.31743 155.745 4.15017C156.116 3.98813 156.503 3.86791 156.874 3.70587C157.245 3.54383 157.622 3.4027 157.998 3.24589C158.374 3.08908 158.704 2.83818 159.08 2.69182C159.456 2.54546 159.859 2.46706 160.24 2.32593C160.622 2.1848 160.998 2.04889 161.38 1.91822C161.761 1.78754 162.153 1.683 162.54 1.56278C162.927 1.44256 163.309 1.31188 163.701 1.20734C164.108 1.09757 164.521 1.00348 164.939 0.909397C165.358 0.81531 165.76 0.679407 166.173 0.601001C166.586 0.522595 167.015 0.475552 167.433 0.412827C167.851 0.350103 168.264 0.22988 168.687 0.182837C169.111 0.135794 169.539 0.182837 169.963 0.146248C170.386 0.109658 170.809 0.104431 171.233 0.0887501C171.656 0.073069 172.08 0.0992042 172.503 0.0992042C172.926 0.0992042 173.355 0.0103444 173.778 0.0260255C174.202 0.0417067 174.625 0.078296 175.049 0.109658C175.472 0.141021 175.895 0.151475 176.319 0.198518C176.742 0.245562 177.15 0.4076 177.568 0.470325C177.986 0.533049 178.43 0.470325 178.849 0.543503C179.267 0.616682 179.669 0.778721 180.087 0.86758C180.506 0.95644 180.903 1.10802 181.316 1.21779C181.729 1.32756 182.136 1.4321 182.544 1.55755C182.952 1.683 183.386 1.71959 183.788 1.85549C184.191 1.9914 184.577 2.17957 184.975 2.33115C185.372 2.48274 185.759 2.66569 186.151 2.83295C186.548 3.00022 186.94 3.16748 187.327 3.33997C187.714 3.51247 188.132 3.63269 188.519 3.81041C188.905 3.98813 189.287 4.19198 189.669 4.38016C190.05 4.56833 190.39 4.84014 190.766 5.04399C191.143 5.24785 191.508 5.46216 191.869 5.68169C192.23 5.90123 192.653 6.03713 193.009 6.27758C193.364 6.51802 193.646 6.85255 193.981 7.1139C194.315 7.37526 194.707 7.57389 195.026 7.86137C195.345 8.14886 195.617 8.47294 195.915 8.78656C196.213 9.10018 196.49 9.40858 196.762 9.74834C197.033 10.0881 197.248 10.4226 197.493 10.7624C197.739 11.1021 197.995 11.4314 198.22 11.7817C198.445 12.1319 198.701 12.4664 198.905 12.8323C199.109 13.1982 199.281 13.5798 199.469 13.9509C199.657 14.322 199.793 14.7193 199.955 15.1061C200.117 15.4929 200.238 15.8901 200.384 16.2822C200.53 16.6742 200.724 17.0453 200.844 17.4478C200.964 17.8503 201.064 18.2527 201.163 18.6605C201.262 19.0682 201.273 19.4863 201.346 19.8993C201.419 20.3122 201.607 20.7042 201.654 21.1172C201.701 21.5301 201.628 21.9587 201.654 22.3717C201.68 22.8107 201.691 23.2446 201.659 23.668C201.628 24.1175 201.659 24.5723 201.524 24.9695C201.388 25.3877 201.116 25.7431 200.818 26.0672C200.546 26.3651 200.222 26.6631 199.778 26.846C199.412 26.9976 199.02 27.0499 198.633 27.1178C198.246 27.1858 197.859 27.3008 197.467 27.2903C197.075 27.2799 196.694 27.1387 196.312 27.0499C195.931 26.961 195.544 26.8774 195.188 26.7101C194.833 26.5428 194.509 26.3181 194.195 26.0829C193.892 25.8529 193.636 25.5758 193.348 25.3406C193.061 25.1054 192.716 24.9225 192.444 24.6663C192.172 24.4102 191.963 24.0861 191.712 23.8091L191.728 23.7882Z" fill="#B3AFAF"/>
<path d="M186.229 35.753C186.339 35.7216 186.449 35.7007 186.558 35.685L186.417 35.7059C186.658 35.6746 186.898 35.6798 187.139 35.7059L186.998 35.685C187.191 35.7111 187.379 35.7582 187.562 35.8157C187.823 35.8993 188.142 35.7164 188.205 35.4498C188.268 35.1623 188.121 34.8957 187.839 34.8069C187.228 34.6135 186.569 34.5664 185.947 34.7389C185.686 34.8121 185.492 35.11 185.581 35.3818C185.67 35.6536 185.942 35.8261 186.224 35.7477L186.229 35.753Z" fill="#BC7F6C"/>
<path d="M186.088 37.7444C186.627 37.8803 187.165 38.0162 187.703 38.1521C187.97 38.2201 188.284 38.0685 188.346 37.7862C188.409 37.504 188.263 37.2113 187.98 37.1433C187.442 37.0074 186.904 36.8715 186.365 36.7356C186.099 36.6677 185.785 36.8192 185.722 37.1015C185.66 37.3838 185.806 37.6765 186.088 37.7444Z" fill="#BC7F6C"/>
<path d="M157.407 34.7024C156.78 34.5247 156.106 34.5717 155.489 34.7651C155.228 34.8487 155.034 35.131 155.123 35.408C155.207 35.6694 155.489 35.8628 155.766 35.7739C155.949 35.7164 156.137 35.6694 156.325 35.6432L156.184 35.6642C156.435 35.6328 156.686 35.6276 156.937 35.6642L156.796 35.6432C156.905 35.6589 157.015 35.6798 157.12 35.7112C157.381 35.7844 157.7 35.6223 157.763 35.3453C157.825 35.0683 157.679 34.7808 157.397 34.7024H157.407Z" fill="#BC7F6C"/>
<path d="M156.989 36.7566C156.451 36.8925 155.918 37.044 155.379 37.18C155.113 37.2479 154.93 37.5615 155.013 37.8229C155.097 38.0842 155.374 38.2567 155.656 38.1888C156.195 38.0529 156.728 37.9013 157.266 37.7654C157.533 37.6974 157.716 37.3838 157.632 37.1225C157.548 36.8611 157.271 36.6886 156.989 36.7566Z" fill="#BC7F6C"/>
<path d="M166.042 6.26187C165.849 6.70094 165.682 7.16092 165.436 7.57908C165.19 7.99725 164.908 8.34223 164.678 8.74471C164.202 9.56536 163.685 10.3546 163.115 11.1126C162.859 11.4471 162.582 11.7398 162.268 12.0168C161.929 12.32 161.646 12.6545 161.348 12.9943C160.742 13.6947 159.989 14.3115 159.247 14.8656C158.907 15.1165 158.735 15.5451 158.965 15.9371C159.158 16.2717 159.697 16.4755 160.036 16.2194C160.841 15.6183 161.657 14.9754 162.336 14.2331C162.655 13.8829 162.937 13.5118 163.293 13.1929C163.68 12.8479 164.009 12.4977 164.323 12.0848C164.913 11.3164 165.457 10.5219 165.938 9.68558C166.189 9.24651 166.492 8.84926 166.753 8.41541C167.015 7.98157 167.187 7.5059 167.391 7.05115C167.563 6.66435 167.506 6.20959 167.109 5.9796C166.774 5.7862 166.21 5.86984 166.037 6.26187H166.042Z" fill="#E8E7E6"/>
<path d="M158.244 9.58113C157.627 10.1875 156.973 10.7677 156.367 11.3897C156.1 11.6615 155.881 11.9699 155.604 12.2365C155.29 12.5396 154.95 12.8114 154.632 13.1094C154.328 13.3917 154.051 13.7 153.733 13.9666C153.414 14.2332 153.084 14.4318 152.781 14.688C152.154 15.2316 151.569 15.8275 150.941 16.3711C150.622 16.6481 150.659 17.1969 150.941 17.4792C151.26 17.7981 151.731 17.7562 152.049 17.4792C152.677 16.9356 153.262 16.3397 153.889 15.7961C154.177 15.5504 154.506 15.3518 154.794 15.1114C155.123 14.8343 155.416 14.5102 155.735 14.2175C156.053 13.9248 156.362 13.6687 156.665 13.3864C156.968 13.1042 157.193 12.7853 157.47 12.4978C158.076 11.8758 158.73 11.2956 159.346 10.6893C160.068 9.97839 158.96 8.87025 158.238 9.58113H158.244Z" fill="#E8E7E6"/>
<path d="M163.554 47.3883C164.108 47.6392 164.595 47.9842 165.201 48.1148C165.744 48.2351 166.288 48.3448 166.832 48.4546C167.433 48.5748 168.039 48.7578 168.651 48.8309C169.241 48.9041 169.869 48.9355 170.459 48.878C171.05 48.8205 171.672 48.7943 172.273 48.7421C172.874 48.6898 173.522 48.5382 174.144 48.4128C175.399 48.1619 176.564 47.7855 177.73 47.2576C178.117 47.0799 178.211 46.5258 178.012 46.1861C177.782 45.7888 177.328 45.7261 176.941 45.9038C175.927 46.369 174.887 46.6722 173.794 46.8917C173.251 47.0015 172.707 47.1478 172.153 47.1844C171.599 47.221 171.024 47.2576 170.459 47.3099C169.895 47.3621 169.299 47.3621 168.76 47.2733C168.274 47.1949 167.788 47.0485 167.307 46.9544C166.779 46.8499 166.252 46.7297 165.724 46.6251C165.206 46.5206 164.814 46.2435 164.338 46.0345C163.952 45.862 163.497 45.9247 163.267 46.3167C163.068 46.6513 163.162 47.2158 163.549 47.3883H163.554Z" fill="#A55535"/>
<path d="M163.831 36.8506C164.657 36.8506 165.326 35.8256 165.326 34.5612C165.326 33.2967 164.657 32.2717 163.831 32.2717C163.006 32.2717 162.336 33.2967 162.336 34.5612C162.336 35.8256 163.006 36.8506 163.831 36.8506Z" fill="#2B2927"/>
<path d="M179.011 36.8506C179.836 36.8506 180.506 35.8256 180.506 34.5612C180.506 33.2967 179.836 32.2717 179.011 32.2717C178.185 32.2717 177.516 33.2967 177.516 34.5612C177.516 35.8256 178.185 36.8506 179.011 36.8506Z" fill="#2B2927"/>
<path d="M96.8835 68.6625C96.8887 69.0179 96.9253 69.3681 96.9566 69.7236C96.988 70.079 97.0612 70.4187 97.1187 70.7742C97.1814 71.161 97.1762 71.5635 97.2807 71.9398C97.3853 72.3162 97.5996 72.6559 97.7407 73.0218C97.8818 73.3877 98.002 73.7588 98.185 74.109C98.3679 74.4593 98.5509 74.799 98.7704 75.1231C98.99 75.4472 99.2095 75.7765 99.4708 76.0692C99.7322 76.3619 100.009 76.6442 100.307 76.8951C100.605 77.146 100.961 77.3237 101.295 77.5328C101.63 77.7418 101.975 77.9039 102.335 78.045C102.696 78.1861 103.062 78.3168 103.443 78.4005C103.825 78.4841 104.207 78.5573 104.599 78.5782C104.991 78.5991 105.383 78.5729 105.764 78.5207C106.146 78.4684 106.527 78.3586 106.893 78.2384C107.259 78.1182 107.604 77.9405 107.944 77.7471C108.284 77.5537 108.65 77.4073 108.942 77.1355C109.245 76.8533 109.455 76.503 109.679 76.179C109.904 75.8549 110.092 75.4994 110.259 75.1283C110.427 74.7572 110.604 74.4018 110.709 74.0097C110.814 73.6177 110.861 73.2257 110.923 72.818C110.986 72.4103 110.981 72.0182 111.002 71.6105C111.023 71.2028 111.096 70.8108 111.091 70.4031C111.085 69.9954 111.017 69.5981 110.996 69.1956C110.976 68.7931 111.085 68.375 111.054 67.9777C111.028 67.5961 110.986 67.2093 110.96 66.8278C110.934 66.4462 110.767 66.0698 110.74 65.6883C110.714 65.3067 110.756 64.9147 110.725 64.5331C110.693 64.1515 110.657 63.7699 110.625 63.3831C110.594 62.9963 110.516 62.62 110.484 62.2384C110.453 61.8464 110.563 61.4334 110.521 61.0362C110.479 60.6389 110.411 60.2417 110.343 59.8497C110.275 59.4576 110.202 59.0499 110.092 58.6736C109.982 58.2972 109.711 57.9627 109.538 57.6072C109.366 57.2518 109.177 56.9121 108.927 56.5984C108.67 56.2691 108.378 55.9869 108.059 55.7151C107.74 55.4432 107.432 55.1714 107.092 54.9258C106.752 54.6801 106.465 54.3717 106.13 54.1208C105.811 53.8804 105.43 53.7131 105.132 53.4465C104.834 53.1799 104.583 52.8611 104.301 52.5788C104.018 52.2966 103.747 52.0039 103.485 51.6955C103.224 51.3871 102.936 51.1048 102.701 50.7807C102.466 50.4566 102.257 50.1117 102.048 49.7719C101.839 49.4321 101.666 49.0663 101.483 48.7108C101.279 48.324 101.144 47.8902 100.976 47.4668C100.809 47.0434 100.678 46.6148 100.495 46.2071C100.312 45.7993 100.051 45.4125 99.7845 45.0623C99.5179 44.7121 99.1938 44.4037 98.7809 44.1685C98.3941 43.949 97.9655 43.8706 97.5316 43.8601C97.0978 43.8497 96.6744 43.9228 96.2667 44.0849C95.859 44.2469 95.4826 44.456 95.1533 44.7435C94.824 45.031 94.5783 45.3864 94.3692 45.7628C94.1602 46.1391 94.0086 46.552 93.9145 46.9754C93.8204 47.3988 93.7838 47.8274 93.7838 48.2665C93.7838 48.7056 93.7943 49.1394 93.8727 49.568C93.9511 49.9967 94.0556 50.4305 94.1915 50.8382C94.3274 51.2459 94.5888 51.617 94.7665 52.0195C94.9442 52.422 95.0644 52.8402 95.2631 53.2322C95.4617 53.6242 95.723 53.9797 95.9165 54.3665C96.1099 54.7533 96.2458 55.1767 96.4235 55.5739C96.5907 55.9503 96.7214 56.3319 96.8416 56.703C96.9619 57.0741 97.0246 57.4923 97.103 57.8791C97.1814 58.2659 97.3382 58.6631 97.3748 59.0551C97.4114 59.4472 97.3853 59.8653 97.3905 60.2626C97.3957 60.6598 97.3905 61.0676 97.3748 61.4648C97.3591 61.8621 97.3016 62.2646 97.265 62.6618C97.2284 63.0591 97.1919 63.4615 97.15 63.8588C97.1082 64.2561 97.0664 64.6585 97.0246 65.0558C96.9828 65.4531 96.9723 65.8555 96.941 66.258C96.9096 66.6605 96.8887 67.0578 96.873 67.4602C96.8573 67.8627 96.8416 68.26 96.8521 68.6625H96.8835Z" fill="#D6A792"/>
<path d="M132.453 28.1006C132.438 27.6877 132.427 27.2695 132.391 26.8566C132.354 26.4436 132.286 26.0307 132.229 25.6178C132.171 25.21 132.114 24.7919 132.04 24.3842C131.962 23.9765 131.837 23.5792 131.737 23.1715C131.643 22.769 131.544 22.3665 131.429 21.9641C131.314 21.5668 131.167 21.18 131.037 20.7827C130.901 20.3855 130.718 20.0144 130.566 19.6276C130.415 19.2408 130.368 18.8069 130.2 18.4306C130.028 18.049 129.808 17.6936 129.625 17.3224C129.437 16.9513 129.192 16.6116 128.988 16.2509C128.784 15.8902 128.617 15.5034 128.397 15.1532C128.172 14.803 127.984 14.4266 127.744 14.0869C127.503 13.7471 127.19 13.4596 126.934 13.1356C126.677 12.8063 126.421 12.477 126.155 12.1633C125.883 11.8497 125.585 11.5622 125.297 11.2591C125.01 10.9559 124.785 10.5952 124.487 10.3077C124.189 10.0202 123.808 9.81639 123.499 9.54458C123.186 9.27277 122.93 8.93301 122.6 8.67166C122.276 8.41554 121.889 8.23259 121.55 7.99215C121.21 7.7517 120.886 7.49558 120.536 7.27081C120.185 7.04605 119.867 6.77424 119.506 6.56516C119.145 6.35608 118.769 6.17836 118.403 5.98496C118.037 5.79156 117.666 5.59816 117.29 5.42566C116.913 5.25317 116.527 5.09636 116.14 4.93955C115.753 4.78274 115.345 4.6991 114.953 4.5632C114.561 4.4273 114.19 4.21822 113.793 4.09799C113.396 3.97777 112.972 3.94118 112.57 3.84187C112.167 3.74255 111.77 3.61188 111.362 3.53347C110.954 3.44984 110.552 3.32962 110.144 3.26689C109.731 3.20417 109.324 3.12053 108.911 3.07872C108.498 3.0369 108.074 3.11008 107.656 3.08917C107.243 3.06826 106.83 2.9585 106.412 2.9585C105.999 2.9585 105.581 2.99509 105.163 3.01077C104.75 3.02645 104.337 3.13099 103.924 3.16758C103.511 3.20417 103.088 3.14667 102.675 3.20417C102.267 3.26167 101.875 3.46029 101.467 3.5387C101.06 3.6171 100.642 3.62756 100.234 3.72165C99.8313 3.81573 99.4445 3.97254 99.042 4.08754C98.6448 4.20253 98.2161 4.22344 97.8189 4.35935C97.4216 4.49525 97.0557 4.6991 96.6689 4.85069C96.2821 5.00227 95.9215 5.21658 95.5451 5.38907C95.1636 5.56157 94.7663 5.69224 94.4004 5.87519C94.0293 6.06336 93.6634 6.26199 93.3027 6.46585C92.9421 6.6697 92.5971 6.90492 92.2469 7.12968C91.8966 7.35445 91.4994 7.50603 91.1596 7.74647C90.8199 7.98692 90.5115 8.27441 90.1822 8.5253C89.8529 8.78143 89.4974 9.00619 89.1838 9.278C88.8702 9.54981 88.5513 9.82161 88.2482 10.1039C87.945 10.3914 87.6889 10.7259 87.4014 11.0238C87.1139 11.3218 86.8891 11.6772 86.6173 11.9908C86.3455 12.3045 86.0737 12.6181 85.8176 12.9422C85.5615 13.2662 85.2374 13.5485 84.9969 13.883C84.7565 14.2228 84.5265 14.5678 84.2965 14.918C84.0717 15.2682 83.8783 15.6393 83.6693 15.9948C83.4602 16.3554 83.2616 16.7213 83.0682 17.0872C82.8748 17.4531 82.697 17.8295 82.5193 18.2058C82.3468 18.5822 82.1534 18.9533 81.9966 19.3348C81.8398 19.7216 81.6934 20.1084 81.5575 20.5005C81.4216 20.8925 81.2387 21.2741 81.1185 21.6713C80.9982 22.0686 80.9826 22.4972 80.8832 22.8997C80.7839 23.3022 80.6533 23.6994 80.5749 24.1071C80.4912 24.5149 80.4128 24.9226 80.3553 25.3355C80.2926 25.7484 80.1828 26.1509 80.141 26.5691C80.0992 26.982 80.141 27.4054 80.1149 27.8183C80.094 28.2313 80.0051 28.6494 79.9999 29.0624C79.9999 29.4753 80.1044 29.8935 80.1201 30.3064C80.1358 30.7194 80.1462 31.1375 80.1881 31.5505C80.2246 31.9634 80.2299 32.3816 80.2874 32.7945C80.3449 33.2022 80.4128 33.6151 80.4912 34.0281C80.5696 34.4358 80.6533 34.8435 80.7473 35.2512C80.8414 35.6537 80.993 36.0457 81.108 36.4482C81.223 36.8455 81.3328 37.2479 81.4687 37.64C81.6046 38.0372 81.7353 38.4293 81.8868 38.8161C82.0384 39.2029 82.2266 39.574 82.3991 39.9556C82.5716 40.3371 82.7441 40.7135 82.9323 41.0794C83.1204 41.4505 83.3556 41.7955 83.5595 42.1561C83.7634 42.5168 83.9568 42.8827 84.1815 43.2329C84.4063 43.5831 84.6101 43.949 84.8454 44.2888C85.0858 44.6285 85.3053 44.984 85.5615 45.3133C85.8176 45.6426 86.0633 45.9823 86.3351 46.296C86.6069 46.6096 86.9205 46.8866 87.208 47.1898C87.4955 47.493 87.7934 47.7805 88.0914 48.0679C88.3893 48.3554 88.6559 48.6795 88.9695 48.9565C89.2831 49.2283 89.6751 49.4113 89.9992 49.6674C90.3233 49.9235 90.6056 50.2424 90.9453 50.4828C91.2851 50.7233 91.6092 50.9846 91.9594 51.2146C92.3096 51.4394 92.665 51.6589 93.0257 51.868C93.3864 52.0771 93.747 52.2914 94.1129 52.4848C94.4788 52.6782 94.9179 52.7357 95.2942 52.9082C95.6706 53.0807 96.0417 53.2636 96.4285 53.4204C96.8153 53.5772 97.2021 53.7079 97.5941 53.8491C97.9862 53.985 98.3364 54.2515 98.7336 54.3718C99.1309 54.492 99.549 54.5495 99.9515 54.6488C100.354 54.7481 100.762 54.8265 101.169 54.9101C101.514 54.9781 101.859 55.0879 102.204 55.161V71.229C102.204 73.1316 103.746 74.6684 105.644 74.6684C107.541 74.6684 109.083 73.1264 109.083 71.229V55.3126C109.339 55.2708 109.595 55.229 109.852 55.1924C110.259 55.1349 110.667 55.0408 111.08 54.9624C111.488 54.884 111.906 54.8526 112.314 54.7533C112.716 54.6592 113.118 54.539 113.521 54.424C113.918 54.309 114.295 54.1156 114.692 53.985C115.089 53.8491 115.512 53.802 115.899 53.6504C116.286 53.4988 116.662 53.3159 117.044 53.1434C117.426 52.9709 117.786 52.7671 118.157 52.5789C118.528 52.3907 118.889 52.1869 119.25 51.9778C119.61 51.7739 119.982 51.5805 120.332 51.361C120.682 51.1362 121.043 50.9219 121.382 50.6815C121.722 50.441 122.057 50.1901 122.386 49.934C122.715 49.6779 122.998 49.3642 123.311 49.0924C123.625 48.8206 123.938 48.5488 124.242 48.2613C124.545 47.9739 124.858 47.702 125.146 47.4041C125.433 47.1062 125.726 46.8082 125.998 46.4946C126.27 46.181 126.573 45.8883 126.829 45.5642C127.085 45.2401 127.263 44.8481 127.503 44.5083C127.744 44.1686 128.057 43.8811 128.282 43.5309C128.507 43.1806 128.706 42.8095 128.915 42.4541C129.124 42.0934 129.312 41.7223 129.5 41.3512C129.693 40.9853 129.903 40.6194 130.08 40.243C130.253 39.8667 130.315 39.4381 130.472 39.0565C130.629 38.6697 130.781 38.2881 130.922 37.8961C131.058 37.5041 131.288 37.1434 131.408 36.7409C131.528 36.3437 131.622 35.936 131.722 35.5335C131.821 35.131 131.915 34.7233 131.993 34.3156C132.077 33.9079 132.061 33.4845 132.124 33.0715C132.187 32.6586 132.307 32.2561 132.349 31.8432C132.391 31.4302 132.391 31.0121 132.412 30.5991C132.432 30.1862 132.412 29.768 132.412 29.3551C132.412 28.9422 132.479 28.524 132.459 28.1058L132.453 28.1006Z" fill="#10185C"/>
<path d="M94 29.7687C94 24.2682 96.3253 20.9811 99.9266 21.0001C102.847 20.9811 104.851 23.0616 105.163 25.7787H102.176C101.949 24.6197 101.118 23.8976 99.9266 23.9261C97.9889 23.9071 96.9397 25.9212 96.9397 29.1227H97.0626C97.7337 27.6882 99.1704 26.8237 100.787 26.8047C103.358 26.8237 105.305 29.0562 105.286 32.1437C105.305 35.4592 103.103 37.8533 99.851 37.8533C96.8452 37.8342 94.0095 35.8107 94.0095 29.7782L94 29.7687ZM99.8037 35.1457C101.297 35.1457 102.375 33.8727 102.375 32.2197C102.375 30.5667 101.316 29.2937 99.8415 29.2937C98.367 29.2937 97.2422 30.6142 97.2232 32.2197C97.2422 33.8157 98.3292 35.1457 99.7943 35.1457H99.8037Z" fill="white"/>
<path d="M107.403 33.0178H110.305C110.371 34.2718 111.411 35.1553 112.678 35.1553C114.171 35.1553 115.23 33.9488 115.211 32.2293C115.23 30.5098 114.152 29.2842 112.64 29.3032C111.534 29.2842 110.778 29.7402 110.352 30.6523H107.659L108.434 21.1902H117.3V24.0212H110.882L110.513 28.1537H110.598C111.146 27.3462 112.233 26.7667 113.5 26.7667C116.156 26.7667 118.141 29.0182 118.122 32.1438C118.141 35.4878 115.92 37.8533 112.687 37.8533C109.662 37.8533 107.451 35.8393 107.413 33.0273L107.403 33.0178Z" fill="white"/>
<path d="M107.939 65.1292C108.195 65.5421 108.346 66.0073 108.472 66.4777C108.597 66.9482 108.754 67.4291 108.738 67.9152C108.723 68.4013 108.534 68.8665 108.362 69.3265C108.205 69.7446 108.221 70.1733 108.226 70.5967C108.231 71.02 108.247 71.4434 108.346 71.8668C108.446 72.2902 108.561 72.6927 108.676 73.1109C108.791 73.529 108.932 73.9367 109.005 74.3549C109.078 74.7731 109.078 75.2121 109.047 75.6408C109.01 76.0485 108.916 76.4666 108.733 76.8848C108.571 77.2455 108.346 77.5852 108.101 77.9145C107.855 78.2438 107.656 78.5888 107.364 78.8815C107.071 79.1742 106.778 79.4356 106.459 79.6969C106.14 79.9583 105.795 80.1622 105.466 80.3974C105.137 80.6326 104.755 80.7946 104.421 81.0142C104.086 81.2337 103.773 81.5264 103.438 81.7303C103.077 81.9498 102.759 82.2059 102.434 82.4098C102.069 82.6346 101.692 82.8332 101.326 83.0109C100.96 83.1886 100.516 83.2618 100.129 83.3977C99.7426 83.5336 99.3505 83.7479 98.948 83.8315C98.5456 83.9152 98.1065 83.91 97.6988 83.9361C97.2911 83.9622 96.8572 84.0197 96.4443 83.9883C96.0313 83.957 95.608 83.889 95.2002 83.8002C94.7925 83.7113 94.3848 83.5963 93.9928 83.4447C93.6008 83.2932 93.2244 83.1154 92.8533 82.9116C92.4822 82.7077 92.1633 82.4464 91.8236 82.1903C91.4838 81.9341 91.212 81.6362 90.9036 81.3382C90.5952 81.0403 90.2502 80.8155 89.9784 80.4862C89.7066 80.1569 89.4923 79.8119 89.2519 79.4565C89.0271 79.122 88.7971 78.7927 88.6037 78.4425C88.4103 78.0922 88.2587 77.7159 88.0915 77.3552C87.9242 76.9946 87.7883 76.613 87.6419 76.2419C87.4956 75.8707 87.3126 75.5101 87.1976 75.1233C87.0826 74.7365 87.0722 74.3288 86.9729 73.942C86.8736 73.5552 86.7272 73.1788 86.6436 72.7868C86.5599 72.3948 86.5077 71.9975 86.4345 71.6055C86.3613 71.2134 86.2672 70.8214 86.2097 70.4294C86.1522 70.0374 86.1052 69.6349 86.0529 69.2428C86.0006 68.8404 85.9745 68.4379 85.9327 68.0302C85.8909 67.6225 85.8909 67.22 85.8647 66.8123C85.8386 66.4046 85.7759 66.0021 85.7654 65.5944C85.755 65.1867 85.7759 64.7789 85.7863 64.3765C85.7968 63.974 85.7811 63.561 85.8177 63.1586C85.8543 62.7561 85.9118 62.3484 85.985 61.9459C86.0581 61.5434 86.1209 61.1357 86.2306 60.7489C86.3404 60.3621 86.4868 59.9753 86.6383 59.5937C86.7899 59.2121 87.0408 58.8881 87.2395 58.5326C87.4381 58.1772 87.6263 57.827 87.8719 57.4977C88.1176 57.1684 88.3894 56.8861 88.6769 56.5934C88.9644 56.3007 89.2257 56.0132 89.555 55.7518C89.8843 55.4905 90.2345 55.2134 90.6004 54.9835C90.9663 54.7535 91.3427 54.5339 91.7243 54.3353C92.1058 54.1367 92.477 53.9067 92.8794 53.7342C93.2819 53.5617 93.7001 53.4519 94.1078 53.3056C94.5155 53.1592 94.9337 53.0599 95.3518 52.9345C95.77 52.809 96.162 52.6208 96.5802 52.5111C96.9984 52.4013 97.427 52.3229 97.8451 52.2236C98.2581 52.1295 98.6867 52.0929 99.1101 52.0197C99.5335 51.9465 99.9516 51.8734 100.375 51.8577C100.798 51.842 101.227 51.8734 101.645 51.9518C102.063 52.0302 102.487 52.1347 102.863 52.3386C103.239 52.5424 103.584 52.8247 103.861 53.1383C104.139 53.4519 104.368 53.8387 104.473 54.2621C104.551 54.5757 104.551 54.9103 104.588 55.2344C104.625 55.5584 104.625 55.9086 104.787 56.1909C105.053 56.6457 105.571 56.907 105.978 57.252C106.339 57.5552 106.653 57.9001 106.877 58.3131C107.102 58.726 107.181 59.186 107.259 59.646C107.337 60.106 107.421 60.5764 107.343 61.0312C107.264 61.4859 107.102 61.9459 106.862 62.3484C106.684 62.6463 106.48 62.9338 106.512 63.2736C106.548 63.6604 106.81 63.974 107.097 64.2353C107.4 64.5124 107.709 64.7789 107.928 65.1292H107.939Z" fill="#EBBEA7"/>
<path d="M92.4143 60.9369C92.7488 60.7749 93.052 60.5606 93.3865 60.4038C93.7211 60.247 94.0661 60.1842 94.4006 60.0536C95.1742 59.7504 95.9269 59.4054 96.7005 59.1022C97.0768 58.9559 97.4741 58.8618 97.8557 58.7207C98.2059 58.59 98.5247 58.3966 98.8645 58.2555C99.6485 57.9209 100.485 57.7432 101.3 57.508C102.267 57.2257 101.854 55.7151 100.882 55.9974C100.061 56.2326 99.2461 56.4364 98.4463 56.7448C98.0804 56.886 97.7459 57.0951 97.38 57.231C96.9775 57.3773 96.5646 57.4819 96.1673 57.6387C95.3989 57.9471 94.6515 58.2973 93.8779 58.5848C93.4858 58.7311 93.0781 58.8304 92.6913 59.0082C92.3202 59.1754 91.9857 59.4106 91.6198 59.5884C91.2539 59.7661 91.1389 60.3149 91.3375 60.6599C91.5675 61.0467 92.0275 61.1251 92.4091 60.9422L92.4143 60.9369Z" fill="#A55535"/>
<path d="M94.8501 68.4065C95.2108 68.1817 95.6133 68.0353 95.9792 67.8106C96.345 67.5858 96.6744 67.3088 97.0612 67.1154C97.8713 66.7024 98.7286 66.3679 99.5597 65.9968C100.365 65.6361 101.227 65.3957 102.079 65.1552C102.508 65.035 102.942 64.9357 103.381 64.8468C103.856 64.7475 104.322 64.5855 104.797 64.4914C105.215 64.413 105.451 63.9112 105.346 63.5244C105.226 63.0905 104.797 62.8971 104.379 62.9756C103.898 63.0644 103.438 63.2265 102.962 63.331C102.523 63.4251 102.09 63.5192 101.661 63.6394C100.72 63.906 99.7792 64.1882 98.8802 64.5907C98.0282 64.9723 97.1605 65.3225 96.3241 65.7354C95.9321 65.9288 95.6028 66.1954 95.2369 66.4254C94.871 66.6554 94.4372 66.8122 94.0608 67.0474C93.2088 67.5858 93.9929 68.9396 94.8501 68.4012V68.4065Z" fill="#A55535"/>
<path d="M97.5264 74.8304C98.2111 74.5168 98.8749 74.1509 99.5597 73.8373C100.244 73.5236 100.913 73.2832 101.609 73.1107C102.33 72.933 102.957 72.5357 103.668 72.3371C104.034 72.2378 104.4 72.1646 104.761 72.0392C105.137 71.9137 105.503 71.7569 105.879 71.6367C106.282 71.5112 106.543 71.0931 106.428 70.6697C106.318 70.2724 105.869 69.9954 105.461 70.1208C105.085 70.241 104.719 70.3979 104.342 70.5233C103.966 70.6488 103.616 70.7167 103.25 70.8213C102.858 70.931 102.487 71.0983 102.121 71.2708C101.781 71.4328 101.436 71.5321 101.07 71.621C100.318 71.8092 99.5754 72.1123 98.8697 72.426C98.1431 72.75 97.4479 73.1368 96.7266 73.4661C96.3398 73.6439 96.2457 74.1979 96.4443 74.5377C96.6743 74.9349 97.1291 74.9977 97.5159 74.8199L97.5264 74.8304Z" fill="#A55535"/>
<path d="M135.919 85.7289C135.851 87.0775 135.694 88.4313 135.699 89.7799C135.705 91.1285 135.658 92.4405 135.558 93.7681C135.459 95.0958 135.433 96.4287 135.407 97.7564C135.402 98.0491 135.407 98.347 135.365 98.6398C135.318 98.9743 135.25 99.3088 135.229 99.6486C135.192 100.323 135.239 101.002 135.213 101.677C135.187 102.351 135.093 102.983 135.077 103.637C135.062 104.29 135.051 104.991 135.046 105.665C135.041 106.339 134.905 107.008 134.915 107.688C134.915 107.996 134.952 108.32 134.915 108.629C134.879 108.937 134.79 109.235 134.753 109.543C134.68 110.176 134.644 110.871 134.701 111.504C134.727 111.796 134.769 112.084 134.753 112.376C134.732 112.737 134.664 113.093 134.633 113.448C134.581 114.117 134.565 114.802 134.576 115.476C134.576 115.732 134.597 115.994 134.56 116.244C134.508 116.605 134.408 116.95 134.377 117.311C134.32 118.043 134.325 118.785 134.278 119.522C134.231 120.259 134.356 120.954 134.314 121.681C134.272 122.407 134.257 123.202 134.205 123.96C134.152 124.717 134.042 125.475 133.99 126.233C133.964 126.657 134.372 127.017 134.774 127.017C135.219 127.017 135.532 126.657 135.558 126.233C135.6 125.559 135.699 124.885 135.752 124.21C135.804 123.536 135.814 122.862 135.851 122.182C135.867 121.864 135.893 121.55 135.903 121.231C135.914 120.912 135.867 120.609 135.841 120.301C135.778 119.647 135.888 118.973 135.909 118.314C135.919 118.001 135.914 117.682 135.94 117.363C135.966 117.044 136.06 116.746 136.102 116.438C136.191 115.784 136.133 115.11 136.159 114.457C136.186 113.803 136.264 113.113 136.311 112.434C136.332 112.136 136.301 111.849 136.269 111.556C136.233 111.211 136.254 110.876 136.264 110.531C136.274 110.239 136.264 109.935 136.301 109.648C136.342 109.324 136.431 109.01 136.468 108.686C136.541 108.017 136.457 107.348 136.536 106.674C136.687 105.351 136.583 104.013 136.719 102.685C136.787 102.016 136.813 101.332 136.813 100.657C136.813 100.339 136.781 100.025 136.792 99.7061C136.802 99.3872 136.876 99.0527 136.917 98.7234C137.001 98.07 136.985 97.3905 136.996 96.7319C137.006 96.0733 137.027 95.4199 137.053 94.7665C137.111 93.2716 137.315 91.7714 137.273 90.2712C137.231 88.7711 137.409 87.2291 137.482 85.7133C137.503 85.2899 137.106 84.9292 136.698 84.9292C136.254 84.9292 135.935 85.2899 135.914 85.7133L135.919 85.7289Z" fill="#699055"/>
<path d="M119.187 87.5896C119.24 87.9607 119.245 88.3423 119.313 88.7134C119.381 89.0845 119.548 89.4452 119.668 89.8111C119.788 90.177 119.835 90.5272 119.909 90.8879C119.987 91.2747 120.102 91.6562 120.207 92.0378C120.41 92.7853 120.651 93.5171 120.787 94.2802C120.923 95.0434 121.038 95.7438 121.106 96.486C121.257 98.0437 121.398 99.5909 121.487 101.154C121.576 102.717 121.55 104.238 121.545 105.774C121.545 106.647 121.508 107.526 121.466 108.398C121.451 108.817 121.398 109.23 121.377 109.643C121.362 110.008 121.356 110.406 121.21 110.751C121.043 111.137 121.095 111.592 121.492 111.822C121.827 112.016 122.397 111.932 122.564 111.54C122.914 110.74 122.914 109.935 122.987 109.078C123.055 108.289 123.066 107.499 123.092 106.705C123.118 105.91 123.081 105.079 123.097 104.269C123.113 103.459 123.134 102.685 123.097 101.896C123.029 100.312 122.904 98.7389 122.736 97.1655C122.569 95.5922 122.381 93.9195 121.911 92.3462C121.654 91.4837 121.471 90.6108 121.268 89.7327C121.174 89.3197 120.975 88.9382 120.87 88.5305C120.755 88.0914 120.755 87.621 120.693 87.1714C120.635 86.7533 120.097 86.5233 119.726 86.6226C119.276 86.748 119.119 87.1662 119.177 87.5896H119.187Z" fill="#699055"/>
<path d="M223.713 155.008C223.958 154.689 224.225 154.386 224.439 154.057C224.653 153.727 224.779 153.325 224.967 152.98C225.155 152.635 225.411 152.306 225.573 151.95C225.735 151.595 225.85 151.198 225.976 150.821C226.101 150.445 226.258 150.074 226.352 149.687C226.446 149.3 226.504 148.903 226.566 148.511C226.629 148.119 226.687 147.727 226.718 147.324C226.749 146.922 226.708 146.53 226.713 146.127C226.718 145.725 226.655 145.338 226.634 144.936C226.614 144.533 226.64 144.141 226.593 143.744C226.546 143.32 226.42 142.907 226.352 142.489C226.284 142.071 226.19 141.653 226.101 141.24C226.012 140.827 225.96 140.399 225.861 139.986C225.762 139.573 225.673 139.154 225.558 138.742C225.443 138.329 225.343 137.916 225.218 137.508C225.092 137.1 224.852 136.729 224.721 136.327C224.591 135.924 224.455 135.516 224.319 135.114C224.183 134.711 224.136 134.278 223.995 133.875C223.875 133.52 223.66 133.19 223.53 132.835C223.399 132.48 223.273 132.119 223.122 131.779C222.97 131.439 222.892 131.037 222.698 130.718C222.505 130.399 222.197 130.143 221.946 129.856C221.695 129.568 221.434 129.312 221.125 129.082C220.764 128.815 220.399 128.627 220.038 128.444C219.641 128.24 219.29 127.995 218.898 127.89C218.48 127.775 218.052 127.765 217.639 127.749C217.226 127.733 216.781 127.702 216.369 127.775C215.956 127.848 215.553 128.005 215.156 128.157C214.759 128.308 214.372 128.465 213.995 128.674C213.619 128.883 213.253 129.077 212.903 129.322C212.553 129.568 212.276 129.897 211.952 130.164C211.628 130.431 211.262 130.661 210.953 130.948C210.645 131.235 210.41 131.607 210.122 131.905C209.845 132.192 209.5 132.412 209.249 132.715C208.998 133.018 208.847 133.405 208.617 133.724C208.387 134.042 208.089 134.319 207.88 134.654C207.671 134.989 207.556 135.381 207.368 135.726C207.179 136.071 206.949 136.4 206.777 136.755C206.604 137.111 206.474 137.487 206.317 137.848C206.16 138.208 205.93 138.543 205.784 138.909C205.637 139.275 205.496 139.646 205.36 140.017C205.23 140.367 205.167 140.77 205.089 141.162C205.01 141.554 205 141.946 205.005 142.322C205.01 142.735 205.036 143.122 205.188 143.462C205.339 143.801 205.611 144.057 205.982 144.267C206.421 144.512 206.845 144.664 207.305 144.58C207.728 144.502 208.162 144.277 208.601 144.063C209.009 143.869 209.422 143.639 209.84 143.451C210.258 143.263 210.655 143.143 211.1 143.08C210.854 143.362 210.619 143.561 210.394 143.854C210.169 144.146 209.965 144.47 209.756 144.779C209.547 145.087 209.322 145.39 209.129 145.709C208.936 146.028 208.747 146.357 208.575 146.687C208.413 147 208.355 147.377 208.24 147.716C208.125 148.056 208.047 148.396 208.052 148.757C208.063 149.258 208.152 149.792 208.444 150.199C208.737 150.607 209.207 150.905 209.683 151.062C210.159 151.219 210.676 151.13 211.152 150.978C211.628 150.826 212.15 150.623 212.459 150.225C212.187 150.534 211.905 150.863 211.675 151.203C211.445 151.543 211.131 151.841 210.943 152.206C210.755 152.572 210.634 152.98 210.499 153.367C210.363 153.754 210.237 154.151 210.148 154.553C210.054 154.972 209.981 155.437 210.112 155.844C210.237 156.231 210.54 156.555 210.896 156.754C211.251 156.953 211.68 157.062 212.072 157.052C212.464 157.041 212.882 156.932 213.258 156.791C213.635 156.649 213.975 156.388 214.33 156.21C214.011 156.393 213.687 156.608 213.394 156.827C213.102 157.047 212.856 157.318 212.657 157.632C212.459 157.946 212.265 158.291 212.276 158.651C212.286 159.012 212.453 159.404 212.736 159.65C213.096 159.963 213.63 159.989 214.11 159.995C214.529 160.005 214.942 159.958 215.349 159.916C215.757 159.874 216.191 159.895 216.593 159.801C216.996 159.707 217.377 159.514 217.769 159.373C218.161 159.232 218.533 159.054 218.909 158.871C219.285 158.688 219.641 158.484 219.996 158.27C220.352 158.055 220.728 157.873 221.062 157.622C221.397 157.371 221.7 157.088 222.009 156.806C222.317 156.524 222.604 156.231 222.887 155.923C223.169 155.614 223.472 155.327 223.728 155.003L223.713 155.008Z" fill="#EBBEA7"/>
<path d="M218.548 134.272C217.498 135.26 216.504 136.316 215.433 137.283C214.91 137.754 214.461 138.297 213.969 138.804C213.718 139.066 213.452 139.317 213.222 139.599C213.008 139.86 212.819 140.148 212.595 140.404C212.318 140.723 212.281 141.198 212.595 141.512C212.877 141.794 213.426 141.831 213.703 141.512C213.928 141.256 214.116 140.968 214.33 140.707C214.544 140.446 214.8 140.2 215.041 139.949C215.543 139.432 216.003 138.872 216.541 138.386C217.613 137.419 218.606 136.363 219.656 135.375C220.393 134.685 219.285 133.577 218.548 134.267V134.272Z" fill="#A55535"/>
<path d="M220.953 141.622C220.676 141.873 220.414 142.134 220.137 142.385C219.86 142.636 219.573 142.834 219.29 143.059C218.752 143.493 218.198 143.932 217.728 144.439C217.231 144.967 216.661 145.411 216.133 145.908C215.605 146.405 215.025 146.901 214.471 147.398C214.152 147.68 214.184 148.218 214.471 148.506C214.785 148.819 215.26 148.788 215.579 148.506C216.123 148.025 216.672 147.56 217.2 147.058C217.728 146.556 218.329 146.091 218.836 145.547C219.296 145.056 219.829 144.622 220.357 144.204C220.639 143.979 220.937 143.775 221.204 143.535C221.496 143.274 221.773 142.991 222.066 142.73C222.38 142.442 222.353 141.909 222.066 141.622C221.752 141.308 221.271 141.334 220.958 141.622H220.953Z" fill="#A55535"/>
<path d="M220.022 150.393C219.588 150.827 219.155 151.255 218.747 151.71C218.339 152.165 217.884 152.489 217.492 152.917C217.304 153.121 217.106 153.424 216.975 153.597C216.855 153.759 216.593 154.005 216.41 154.188C216.196 154.407 215.992 154.632 215.752 154.82C215.814 154.773 215.726 154.836 215.71 154.851C215.637 154.904 215.569 154.961 215.496 155.013C215.36 155.118 215.224 155.223 215.098 155.348C214.8 155.635 214.79 156.174 215.098 156.456C215.407 156.738 215.893 156.759 216.206 156.456C216.259 156.409 216.306 156.362 216.358 156.315C216.379 156.299 216.504 156.2 216.431 156.257C216.572 156.148 216.719 156.043 216.86 155.933C217.085 155.75 217.283 155.541 217.487 155.332C217.691 155.123 217.911 154.925 218.093 154.695C218.208 154.553 218.313 154.412 218.418 154.266C218.428 154.25 218.538 154.099 218.506 154.141C218.485 154.172 218.6 154.031 218.606 154.026C218.987 153.607 219.452 153.278 219.829 152.855C220.247 152.389 220.691 151.95 221.136 151.501C221.423 151.208 221.449 150.68 221.136 150.393C220.822 150.105 220.336 150.084 220.027 150.393H220.022Z" fill="#A55535"/>
<path d="M214.832 122.888C215.177 122.59 215.517 122.261 215.909 122.025C216.301 121.79 216.729 121.592 217.116 121.33C217.916 120.781 218.763 120.342 219.693 120.05C220.655 119.746 221.601 119.375 222.594 119.177C223.08 119.083 223.582 119.083 224.073 119.015C224.518 118.952 224.967 118.863 225.417 118.915C225.986 118.983 226.546 119.03 227.115 119.072C227.392 119.093 227.664 119.13 227.941 119.14C228.218 119.15 228.485 119.119 228.746 119.161C229.164 119.229 229.588 119.051 229.713 118.612C229.818 118.236 229.588 117.718 229.164 117.645C228.135 117.473 227.063 117.577 226.023 117.431C225.401 117.342 224.868 117.331 224.246 117.415C223.744 117.483 223.242 117.514 222.74 117.577C221.664 117.708 220.644 118.084 219.62 118.424C218.595 118.764 217.576 119.135 216.672 119.736C216.196 120.055 215.71 120.327 215.213 120.614C214.67 120.928 214.199 121.367 213.724 121.78C213.405 122.057 213.441 122.606 213.724 122.888C214.043 123.207 214.513 123.165 214.832 122.888Z" fill="#699055"/>
<path d="M222.86 106.397C221.747 106.543 220.686 107.191 220.027 108.106C219.75 108.487 219.541 108.895 219.243 109.266C218.898 109.695 218.559 110.134 218.219 110.573C217.884 111.002 217.539 111.43 217.184 111.843C216.828 112.256 216.447 112.606 216.165 113.072C215.626 113.95 214.915 114.713 214.283 115.528C214.022 115.863 213.959 116.312 214.283 116.636C214.555 116.908 215.13 116.971 215.391 116.636C215.71 116.223 216.013 115.8 216.358 115.408C216.703 115.016 217.048 114.645 217.32 114.201C217.566 113.793 217.816 113.464 218.146 113.113C218.475 112.763 218.794 112.355 219.107 111.969C219.421 111.582 219.735 111.158 220.054 110.756C220.372 110.353 220.754 109.946 221.031 109.491C221.271 109.094 221.46 108.791 221.836 108.493C222.123 108.268 222.505 108.007 222.876 107.959C223.294 107.902 223.66 107.641 223.66 107.175C223.66 106.794 223.3 106.334 222.876 106.391L222.86 106.397Z" fill="#699055"/>
<path d="M173.977 79.3623C173.977 79.7335 173.841 80.0994 173.664 80.4025C173.486 80.7057 173.219 80.9932 172.911 81.1761C172.602 81.3591 172.237 81.38 171.865 81.38C171.494 81.38 171.128 81.3329 170.83 81.1552C170.533 80.9775 170.235 80.7214 170.052 80.4078C169.869 80.0941 169.769 79.7335 169.769 79.3623C169.769 78.9912 169.963 78.6619 170.135 78.364C170.308 78.066 170.522 77.7524 170.83 77.5747C171.139 77.397 171.489 77.282 171.86 77.282C172.231 77.282 172.571 77.4388 172.869 77.6165C173.167 77.7942 173.397 78.066 173.575 78.3744C173.752 78.6828 173.972 78.9912 173.972 79.3623H173.977Z" fill="white"/>
<path d="M173.977 88.2168C173.977 88.588 173.841 88.9539 173.664 89.257C173.486 89.5602 173.219 89.8477 172.911 90.0306C172.602 90.2136 172.237 90.2345 171.865 90.2345C171.494 90.2345 171.128 90.1874 170.83 90.0097C170.533 89.832 170.235 89.5759 170.052 89.2623C169.869 88.9486 169.769 88.588 169.769 88.2168C169.769 87.8457 169.963 87.5164 170.135 87.2185C170.308 86.9205 170.522 86.6069 170.83 86.4292C171.139 86.2515 171.489 86.1365 171.86 86.1365C172.231 86.1365 172.571 86.2933 172.869 86.471C173.167 86.6487 173.397 86.9205 173.575 87.2289C173.752 87.5373 173.972 87.8457 173.972 88.2168H173.977Z" fill="white"/>
<path d="M173.977 97.0716C173.977 97.4427 173.841 97.8086 173.664 98.1118C173.486 98.4149 173.219 98.7024 172.911 98.8854C172.602 99.0683 172.237 99.0892 171.865 99.0892C171.494 99.0892 171.128 99.0422 170.83 98.8645C170.533 98.6867 170.235 98.4306 170.052 98.117C169.869 97.8034 169.769 97.4427 169.769 97.0716C169.769 96.7005 169.963 96.3712 170.135 96.0732C170.308 95.7753 170.522 95.4616 170.83 95.2839C171.139 95.1062 171.489 94.9912 171.86 94.9912C172.231 94.9912 172.571 95.148 172.869 95.3257C173.167 95.5035 173.397 95.7753 173.575 96.0837C173.752 96.3921 173.972 96.7005 173.972 97.0716H173.977Z" fill="white"/>
<path d="M174.155 67.5647C174.155 67.5647 174.191 67.6536 174.202 67.6588C173.815 67.9045 173.407 68.0927 173.083 68.3854C172.759 68.6781 172.514 69.0701 172.216 69.3942C171.918 69.7183 171.557 69.9953 171.259 70.3194C170.961 70.6435 170.637 70.9362 170.308 71.2394C169.978 71.5425 169.717 71.9032 169.33 72.1489C168.97 72.3736 168.525 72.4677 168.086 72.6298C167.71 72.7709 167.349 72.9486 166.962 73.0375C166.576 73.1263 166.178 73.1891 165.781 73.2309C165.384 73.2727 164.987 73.372 164.584 73.3668C164.182 73.3615 163.79 73.2413 163.392 73.1891C162.995 73.1368 162.587 73.1368 162.201 73.0375C161.814 72.9382 161.432 72.8023 161.061 72.6559C160.664 72.4991 160.293 72.2743 159.932 72.0496C159.571 71.8248 159.263 71.5269 158.975 71.2132C158.746 70.9623 158.578 70.6696 158.406 70.3769C158.233 70.0842 158.066 69.7915 157.941 69.4726C157.789 69.091 157.627 68.7095 157.528 68.3122C157.428 67.915 157.402 67.502 157.35 67.0891C157.298 66.6762 157.298 66.2737 157.303 65.8607C157.308 65.4478 157.23 65.0296 157.287 64.6219C157.345 64.2142 157.491 63.8222 157.596 63.4249C157.721 62.944 157.846 62.5154 157.982 62.1391C158.165 61.6477 158.385 61.2766 158.651 60.9996C158.96 60.6859 159.32 60.5187 159.838 60.5396C160.199 60.5553 160.617 60.665 161.129 60.8637C161.511 61.0153 161.903 61.1198 162.279 61.2818C162.655 61.4439 163.016 61.632 163.387 61.7993C163.758 61.9666 164.156 62.0816 164.521 62.2593C164.887 62.437 165.217 62.6931 165.577 62.8761C165.938 63.059 166.293 63.2629 166.654 63.4511C167.015 63.6392 167.354 63.864 167.715 64.0574C168.076 64.2508 168.473 64.3658 168.828 64.5644C169.184 64.763 169.529 64.9774 169.884 65.176C170.24 65.3746 170.606 65.5523 170.961 65.7562C171.317 65.96 171.615 66.2528 171.97 66.4514C172.325 66.65 172.749 66.7336 173.104 66.9323C173.46 67.1309 173.799 67.3609 174.155 67.5595V67.5647Z" fill="white"/>
<path d="M168.666 67.5543C168.666 67.5543 168.64 67.6432 168.63 67.6484C169.017 67.8941 169.424 68.0875 169.748 68.375C170.073 68.6625 170.318 69.065 170.616 69.389C170.914 69.7131 171.249 70.0111 171.547 70.3351C171.845 70.6592 172.19 70.931 172.524 71.229C172.859 71.5269 173.146 71.8457 173.528 72.0914C173.888 72.3162 174.291 72.4939 174.725 72.6559C175.101 72.7971 175.483 72.8964 175.869 72.9905C176.256 73.0846 176.638 73.2257 177.035 73.2675C177.432 73.3093 177.835 73.2518 178.237 73.2518C178.64 73.2518 179.037 73.2623 179.434 73.21C179.831 73.1577 180.208 73.0114 180.595 72.9121C180.981 72.8128 181.363 72.7082 181.734 72.5566C182.131 72.3998 182.502 72.2064 182.863 71.9817C183.224 71.7569 183.632 71.5739 183.919 71.2551C184.149 71.0042 184.321 70.6958 184.494 70.3979C184.666 70.0999 184.75 69.7654 184.876 69.4518C185.027 69.0702 185.179 68.6886 185.278 68.2913C185.377 67.8941 185.508 67.4968 185.555 67.0839C185.602 66.671 185.566 66.258 185.566 65.8451C185.566 65.4322 185.545 65.0192 185.492 64.6115C185.44 64.2038 185.336 63.8065 185.226 63.4093C185.1 62.9284 184.964 62.505 184.823 62.1339C184.64 61.6425 184.416 61.2819 184.149 61.0101C183.841 60.6965 183.501 60.4351 182.978 60.456C182.617 60.4717 182.163 60.5605 181.656 60.7592C181.274 60.9108 180.919 61.1094 180.542 61.2714C180.166 61.4335 179.779 61.5641 179.408 61.7366C179.037 61.9091 178.671 62.0868 178.305 62.2646C177.939 62.4423 177.573 62.6252 177.213 62.8134C176.852 63.0016 176.512 63.2368 176.157 63.425C175.801 63.6131 175.446 63.817 175.085 64.0156C174.725 64.2143 174.374 64.4181 174.019 64.6167C173.664 64.8154 173.303 65.0035 172.947 65.2022C172.592 65.4008 172.221 65.5681 171.865 65.7719C171.51 65.9758 171.149 66.1587 170.794 66.3573C170.438 66.556 170.14 66.8591 169.785 67.0578C169.43 67.2564 169.017 67.3557 168.661 67.5543H168.666Z" fill="white"/>
<path d="M87.5 37L90.3868 32H84.6132L87.5 37ZM87 22V32.5H88V22H87Z" fill="white"/>
<path d="M124 22L121.113 27H126.887L124 22ZM123.5 26.5V37H124.5V26.5H123.5Z" fill="white"/>
</g>
<defs>
<clipPath id="clip0_1598_10007">
<rect width="225" height="162" fill="white" transform="translate(47.5)"/>
</clipPath>
</defs>
</svg>
