<svg width="320" height="162" viewBox="0 0 320 162" fill="none" xmlns="http://www.w3.org/2000/svg">
<g clip-path="url(#clip0_1598_10005)">
<path d="M265.567 22H55.3809C51.2903 22 47.9741 24.8379 47.9741 28.3386V155.661C47.9741 159.162 51.2903 162 55.3809 162H265.567C269.658 162 272.974 159.162 272.974 155.661V28.3386C272.974 24.8379 269.658 22 265.567 22Z" fill="#EDE6DF"/>
<path d="M211.433 104.929C211.293 104.546 211.049 104.199 210.904 103.815C210.759 103.432 210.682 103.023 210.531 102.644C210.381 102.266 210.267 101.867 210.112 101.489C209.956 101.111 209.713 100.769 209.552 100.391C209.391 100.012 209.246 99.629 209.081 99.2559C208.915 98.8829 208.744 98.5098 208.568 98.1368C208.392 97.7637 208.184 97.4114 208.008 97.0435C207.832 96.6757 207.718 96.2715 207.531 95.9089C207.345 95.5462 207.179 95.168 206.987 94.8053C206.796 94.4426 206.63 94.0644 206.428 93.7069C206.226 93.3494 205.977 93.0178 205.775 92.6655C205.573 92.3131 205.418 91.9245 205.205 91.5722C204.993 91.2199 204.728 90.9038 204.511 90.5567C204.293 90.2096 204.096 89.8469 203.868 89.5049C203.64 89.163 203.34 88.8728 203.107 88.536C202.874 88.1993 202.651 87.8521 202.407 87.5257C202.164 87.1993 201.899 86.8833 201.646 86.562C201.392 86.2408 201.117 85.9351 200.858 85.619C200.599 85.303 200.33 84.9921 200.065 84.6864C199.801 84.3807 199.527 84.0699 199.252 83.7642C198.977 83.4585 198.708 83.1528 198.423 82.8575C198.143 82.5673 197.858 82.2824 197.568 81.9974C197.278 81.7124 197.008 81.4119 196.708 81.1373C196.407 80.8627 196.112 80.5881 195.806 80.3239C195.501 80.0596 195.242 79.7332 194.926 79.4793C194.61 79.2255 194.242 79.0389 193.915 78.7903C193.589 78.5416 193.257 78.3136 192.931 78.0804C192.604 77.8473 192.319 77.5364 191.983 77.3084C191.646 77.0805 191.278 76.8991 190.936 76.6867C190.594 76.4743 190.268 76.2204 189.915 76.0183C189.563 75.8163 189.143 75.7334 188.786 75.5468C188.428 75.3603 188.066 75.179 187.703 75.0028C187.34 74.8266 187.019 74.5469 186.651 74.3811C186.283 74.2153 185.874 74.1375 185.496 73.9873C185.118 73.837 184.755 73.6609 184.372 73.5262C183.988 73.3915 183.594 73.293 183.206 73.1687C183.154 73.1428 183.133 73.0495 183.081 73.0236C182.719 72.8474 182.33 72.7283 181.957 72.5728C181.584 72.4174 181.216 72.262 180.838 72.1221C180.46 71.9822 180.092 71.806 179.708 71.6869C179.325 71.5677 178.911 71.5521 178.517 71.4537C178.123 71.3553 177.75 71.205 177.356 71.1221C176.962 71.0392 176.569 70.9563 176.17 70.889C175.771 70.8216 175.382 70.7128 174.983 70.6506C174.584 70.5884 174.18 70.5625 173.781 70.5159C173.382 70.4693 172.978 70.4745 172.574 70.4382C172.17 70.4019 171.776 70.2879 171.372 70.262C170.968 70.2361 170.564 70.3242 170.16 70.3087C169.755 70.2931 169.356 70.1377 168.958 70.1325C168.543 70.1221 168.123 70.1273 167.704 70.1221C167.284 70.117 166.87 70.1791 166.45 70.1895C166.03 70.1999 165.616 70.1999 165.196 70.2154C164.776 70.2309 164.367 70.3035 163.947 70.3294C163.528 70.3553 163.118 70.3916 162.699 70.4278C162.279 70.4641 161.854 70.3967 161.445 70.4485C161.036 70.5004 160.616 70.5625 160.207 70.6247C159.797 70.6869 159.388 70.7801 158.973 70.8579C158.559 70.9356 158.155 71.034 157.751 71.1221C157.347 71.2102 156.937 71.3086 156.533 71.4122C156.129 71.5159 155.709 71.5729 155.31 71.692C154.906 71.8164 154.533 72.0236 154.145 72.1635C153.756 72.3034 153.321 72.3604 152.937 72.5158C152.554 72.6713 152.171 72.863 151.792 73.034C151.414 73.2049 151.051 73.4277 150.678 73.6143C150.305 73.8008 149.943 74.0132 149.58 74.2153C149.217 74.4173 148.886 74.6816 148.533 74.9044C148.181 75.1272 147.787 75.293 147.445 75.5313C147.103 75.7696 146.787 76.0494 146.456 76.3033C146.124 76.5572 145.746 76.754 145.425 77.0183C145.103 77.2825 144.798 77.5727 144.487 77.8525C144.176 78.1322 143.932 78.4846 143.632 78.7747C143.306 79.0286 142.907 79.1892 142.58 79.4431C142.254 79.697 141.964 79.9923 141.637 80.2462C141.311 80.5 141.015 80.785 140.689 81.0389C140.363 81.2928 140.01 81.5104 139.684 81.7591C139.357 82.0078 139.047 82.2875 138.72 82.5414C138.394 82.7953 138.021 82.987 137.694 83.2409C137.368 83.4948 137.067 83.7797 136.741 84.0336C136.415 84.2875 136.114 84.5724 135.788 84.8263C135.461 85.0802 135.145 85.3444 134.819 85.5983C134.492 85.8522 134.176 86.1216 133.855 86.3703C133.534 86.619 133.119 86.7693 132.793 87.0231C132.466 87.277 132.145 87.5361 131.819 87.7848C131.492 88.0335 131.207 88.3443 130.881 88.593C130.555 88.8417 130.223 89.0904 129.897 89.3443C129.575 89.593 129.218 89.7899 128.897 90.0386C128.575 90.2873 128.332 90.6344 128.016 90.8831C127.7 91.1318 127.368 91.3701 127.052 91.624C126.736 91.8779 126.425 92.137 126.104 92.3857C125.783 92.6344 125.472 92.8934 125.156 93.1473C124.84 93.4012 124.524 93.6499 124.208 93.9089C123.892 94.168 123.539 94.3752 123.228 94.6291C122.918 94.883 122.648 95.199 122.342 95.4581C122.037 95.7172 121.653 95.8985 121.348 96.1627C121.042 96.427 120.793 96.7586 120.493 97.028C120.187 97.2974 119.824 97.5047 119.524 97.7793C119.223 98.0539 118.954 98.3647 118.653 98.6445C118.353 98.9243 118.089 99.2352 117.793 99.515C117.498 99.7948 117.13 100.007 116.84 100.292C116.55 100.577 116.28 100.888 115.996 101.183C115.711 101.479 115.457 101.795 115.177 102.095C114.897 102.396 114.669 102.738 114.395 103.038C114.12 103.339 113.757 103.567 113.493 103.878C113.229 104.188 113.016 104.546 112.757 104.862C112.498 105.178 112.224 105.479 111.965 105.8C111.706 106.121 111.493 106.468 111.244 106.795C110.996 107.121 110.695 107.401 110.452 107.732C110.208 108.064 109.98 108.401 109.747 108.737C109.514 109.074 109.322 109.437 109.094 109.779C108.866 110.121 108.685 110.484 108.467 110.831C108.25 111.178 107.923 111.452 107.711 111.805C107.498 112.157 107.358 112.546 107.162 112.903C106.965 113.261 106.789 113.628 106.597 113.991C106.405 114.354 106.188 114.701 106.006 115.064C105.825 115.426 105.602 115.779 105.431 116.152C105.26 116.525 105.131 116.913 104.97 117.292C104.809 117.67 104.638 118.043 104.493 118.421C104.348 118.799 104.291 119.214 104.157 119.602C104.022 119.991 103.846 120.359 103.721 120.747C103.597 121.136 103.514 121.54 103.405 121.934C103.296 122.328 103.146 122.711 103.048 123.105C102.949 123.499 102.82 123.892 102.737 124.291C102.654 124.69 102.607 125.1 102.54 125.504C102.473 125.908 102.385 126.307 102.328 126.711C102.271 127.115 102.302 127.53 102.26 127.939C102.214 128.359 102.177 128.783 102.151 129.203C102.126 129.623 102.012 130.048 102.001 130.473C101.991 130.897 102.053 131.322 102.069 131.747C102.084 132.172 102.157 132.592 102.193 133.011C102.229 133.431 102.234 133.861 102.296 134.281C102.359 134.7 102.416 135.12 102.504 135.535C102.592 135.949 102.701 136.358 102.815 136.768C102.929 137.177 103.027 137.597 103.167 138.001C103.307 138.405 103.499 138.788 103.664 139.182C103.83 139.576 103.991 139.975 104.182 140.353C104.374 140.731 104.55 141.13 104.768 141.498C104.986 141.866 105.245 142.208 105.483 142.565C105.721 142.923 105.965 143.27 106.219 143.612C106.473 143.954 106.721 144.306 106.991 144.633C107.25 144.949 107.555 145.229 107.835 145.534C108.115 145.84 108.39 146.14 108.68 146.431C108.97 146.721 109.255 147.021 109.56 147.296C109.866 147.57 110.193 147.819 110.514 148.078C110.835 148.337 111.182 148.55 111.514 148.798C111.845 149.047 112.193 149.259 112.534 149.487C112.876 149.715 113.167 150.021 113.519 150.228C113.871 150.436 114.239 150.622 114.602 150.819C114.964 151.016 115.332 151.197 115.7 151.373C116.068 151.55 116.436 151.746 116.814 151.902C117.192 152.057 117.581 152.192 117.97 152.332C118.358 152.472 118.747 152.596 119.14 152.72C119.534 152.845 119.918 152.995 120.317 153.099C120.716 153.202 121.115 153.311 121.513 153.394C121.912 153.477 122.332 153.472 122.741 153.534C123.151 153.596 123.56 153.591 123.969 153.632C124.353 153.669 124.757 153.741 125.135 153.762C125.125 154.176 125.104 154.617 125.094 155.031C125.083 155.446 125.063 155.86 125.052 156.275C125.042 156.689 125.026 157.104 125.016 157.518C125.006 157.933 125.016 158.347 125.011 158.762C125.006 159.176 124.985 159.591 124.975 160.005C124.964 160.42 124.954 160.824 124.943 161.238C125.358 161.238 125.767 161.28 126.182 161.28C126.596 161.28 127.016 161.259 127.43 161.259C127.845 161.259 128.265 161.202 128.679 161.197C129.094 161.192 129.513 161.275 129.928 161.269C130.342 161.264 130.762 161.238 131.176 161.238C131.591 161.238 132.011 161.223 132.425 161.223C132.84 161.223 133.259 161.171 133.674 161.166C134.088 161.161 134.508 161.212 134.922 161.207C135.337 161.202 135.757 161.124 136.171 161.124C136.586 161.124 137.005 161.155 137.42 161.155C137.834 161.155 138.254 161.155 138.668 161.155C139.083 161.155 139.503 161.119 139.917 161.114C140.332 161.109 140.751 161.218 141.166 161.218C141.58 161.218 142 161.218 142.414 161.218C142.829 161.218 143.249 161.119 143.663 161.119C144.078 161.119 144.497 161.104 144.912 161.098C145.326 161.093 145.746 161.088 146.16 161.088C146.575 161.088 146.995 161.181 147.409 161.181C147.824 161.181 148.243 161.212 148.658 161.212C149.072 161.212 149.492 161.212 149.906 161.212C150.321 161.212 150.741 161.078 151.155 161.078C151.569 161.078 151.989 161.098 152.404 161.093C152.818 161.088 153.238 161.093 153.652 161.093C154.067 161.093 154.487 161.155 154.901 161.155C155.315 161.155 155.735 161.093 156.15 161.093C156.564 161.093 156.984 161.145 157.398 161.145C157.813 161.145 158.232 161.041 158.647 161.041C159.061 161.041 159.481 161.135 159.896 161.135C160.31 161.135 160.73 161.083 161.144 161.083C161.559 161.083 161.978 161.166 162.393 161.161C162.807 161.155 163.227 161.119 163.642 161.119C164.056 161.119 164.476 161.078 164.89 161.073C165.305 161.067 165.724 161.057 166.139 161.052C166.553 161.047 166.973 161.005 167.388 161.005C167.802 161.005 168.222 161.036 168.636 161.036C169.051 161.036 169.47 161.052 169.885 161.052C170.299 161.052 170.719 161.005 171.134 161.005C171.548 161.005 171.968 161.088 172.382 161.088C172.797 161.088 173.216 161.088 173.631 161.088C174.045 161.088 174.465 161.031 174.88 161.031C175.294 161.031 175.714 161.067 176.128 161.067C176.543 161.067 176.962 161.057 177.377 161.052C177.791 161.047 178.211 160.974 178.626 160.974C179.04 160.974 179.46 161.01 179.874 161.01C180.289 161.01 180.708 160.943 181.123 160.938C181.537 160.933 181.957 161.005 182.372 161.005C182.786 161.005 183.206 160.943 183.62 160.938C184.035 160.933 184.454 160.917 184.869 160.917C185.283 160.917 185.703 160.912 186.118 160.907C186.532 160.902 186.952 160.964 187.366 160.964C187.781 160.964 188.2 160.948 188.615 160.948C189.029 160.948 189.449 160.969 189.864 160.964C190.278 160.959 190.698 160.912 191.112 160.907C191.527 160.902 191.946 160.896 192.361 160.891C192.775 160.886 193.195 160.933 193.61 160.933C194.024 160.933 194.444 160.943 194.858 160.943C195.273 160.943 195.687 160.995 196.107 160.995C196.516 161.026 196.936 160.979 197.345 161.005C197.76 161.031 198.169 161.093 198.578 161.119C198.993 161.145 199.407 161.104 199.817 161.119C200.226 161.135 200.64 161.202 201.055 161.212C201.469 161.223 201.879 161.264 202.293 161.275C202.708 161.285 203.117 161.321 203.532 161.326C203.946 161.332 204.361 161.254 204.77 161.254C205.179 161.254 205.594 161.233 206.008 161.228C206.423 161.223 206.837 161.295 207.246 161.285C207.656 161.275 208.075 161.269 208.485 161.254C208.894 161.238 209.309 161.212 209.723 161.192C210.138 161.171 210.547 161.083 210.956 161.057C211.366 161.031 211.785 161.067 212.194 161.036C212.609 161.005 213.013 160.902 213.422 160.865C213.832 160.829 214.246 160.782 214.656 160.741C215.065 160.7 215.479 160.668 215.889 160.627C216.298 160.586 216.707 160.56 217.117 160.513C217.179 160.099 217.246 159.689 217.303 159.275C217.36 158.86 217.355 158.441 217.407 158.021C217.459 157.601 217.624 157.202 217.671 156.788C217.718 156.373 217.749 155.954 217.79 155.539C217.832 155.125 217.775 154.7 217.811 154.28C217.847 153.86 217.982 153.456 218.013 153.037C218.044 152.617 218.044 152.197 218.07 151.783C218.096 151.368 218.111 150.949 218.137 150.529C218.163 150.109 218.101 149.69 218.122 149.27C218.142 148.85 218.267 148.441 218.277 148.021C218.288 147.601 218.313 147.187 218.319 146.767C218.324 146.348 218.241 145.928 218.246 145.513C218.251 145.099 218.246 144.679 218.246 144.26C218.246 143.84 218.319 143.425 218.313 143.006C218.308 142.586 218.334 142.166 218.324 141.752C218.313 141.337 218.225 140.918 218.21 140.498C218.194 140.078 218.153 139.664 218.137 139.244C218.122 138.825 218.22 138.405 218.194 137.985C218.168 137.566 218.039 137.156 218.008 136.742C217.977 136.327 217.977 135.908 217.94 135.488C217.904 135.068 217.956 134.649 217.92 134.229C217.883 133.809 217.744 133.405 217.702 132.991C217.661 132.576 217.598 132.162 217.552 131.747C217.505 131.333 217.557 130.903 217.505 130.488C217.453 130.074 217.334 129.664 217.282 129.25C217.231 128.835 217.236 128.41 217.174 127.996C217.111 127.581 216.982 127.177 216.92 126.763C216.858 126.348 216.744 125.944 216.671 125.535C216.598 125.126 216.573 124.706 216.5 124.291C216.428 123.877 216.391 123.462 216.314 123.053C216.236 122.644 216.143 122.234 216.06 121.825C215.977 121.416 215.961 120.991 215.873 120.582C215.785 120.172 215.557 119.794 215.469 119.385C215.381 118.975 215.391 118.545 215.298 118.136C215.205 117.727 215.06 117.333 214.961 116.929C214.863 116.525 214.811 116.105 214.702 115.701C214.593 115.297 214.49 114.893 214.381 114.489C214.272 114.084 214.075 113.706 213.961 113.302C213.847 112.898 213.707 112.504 213.588 112.105C213.469 111.706 213.35 111.302 213.226 110.903C213.101 110.504 213.08 110.074 212.956 109.675C212.832 109.276 212.604 108.914 212.469 108.515C212.334 108.116 212.251 107.706 212.117 107.307C211.982 106.909 211.884 106.504 211.744 106.111C211.604 105.717 211.469 105.323 211.324 104.929H211.433Z" fill="#8DB579"/>
<path d="M157.103 60.8272C157.113 61.2624 157.02 61.6976 157.015 62.1277C157.009 62.5577 157.082 62.9981 157.066 63.4281C157.051 63.8582 157.041 64.2986 157.009 64.7286C156.978 65.1586 156.823 65.5835 156.776 66.0135C156.73 66.4436 156.73 66.8788 156.673 67.3088C156.616 67.7389 156.574 68.1741 156.507 68.5989C156.44 69.0238 156.279 69.4383 156.191 69.8632C156.103 70.288 156.061 70.7232 155.968 71.1429C155.875 71.5626 155.849 72.0082 155.735 72.4278C155.657 72.718 155.569 73.0133 155.725 73.262C155.88 73.5055 156.149 73.5211 156.419 73.547C156.839 73.5884 157.253 73.6195 157.673 73.6506C158.092 73.6817 158.507 73.7439 158.927 73.7698C159.346 73.7957 159.761 73.8371 160.18 73.8527C160.6 73.8734 161.02 73.8527 161.439 73.863C161.859 73.8734 162.279 73.8734 162.698 73.8786C163.118 73.8837 163.538 73.9874 163.957 73.9822C164.377 73.977 164.797 73.8941 165.216 73.8838C165.636 73.8734 166.056 73.9356 166.476 73.92C166.895 73.9045 167.31 73.8423 167.729 73.8164C168.149 73.7905 168.564 73.749 168.983 73.7128C169.403 73.6765 169.817 73.6143 170.232 73.5729C170.646 73.5314 171.066 73.4693 171.481 73.4226C171.895 73.376 172.33 73.433 172.745 73.376C173.159 73.319 173.569 73.1998 173.983 73.1377C174.113 73.1169 174.258 73.0962 174.351 73.0029C174.501 72.8475 174.501 72.5729 174.465 72.3553C174.403 71.9408 174.377 71.5263 174.32 71.1118C174.263 70.6973 174.149 70.2932 174.102 69.8787C174.056 69.4642 173.947 69.0549 173.905 68.6404C173.864 68.2259 173.942 67.7959 173.905 67.3814C173.869 66.9669 173.74 66.5576 173.708 66.1379C173.677 65.7182 173.636 65.3037 173.615 64.8892C173.594 64.4747 173.594 64.0551 173.579 63.6354C173.563 63.2157 173.631 62.796 173.62 62.3815C173.61 61.967 173.62 61.5474 173.62 61.1277C173.62 60.708 173.475 60.2935 173.48 59.8738C173.486 59.4542 173.532 59.0397 173.543 58.62C173.553 58.2003 173.594 57.7858 173.605 57.3661C173.615 56.9465 173.594 56.532 173.615 56.1123" fill="#FEBFA6"/>
<path d="M140.041 46.7551C140.16 47.1592 140.202 47.5841 140.321 47.9831C140.44 48.382 140.616 48.7706 140.741 49.1644C140.865 49.5581 140.974 49.9674 141.109 50.3612C141.243 50.755 141.326 51.1747 141.471 51.5633C141.616 51.9518 141.86 52.3093 142.015 52.6979C142.171 53.0865 142.248 53.5114 142.425 53.8896C142.601 54.2678 142.767 54.6564 142.963 55.0243C143.16 55.3921 143.466 55.6978 143.684 56.0605C143.901 56.4232 144.01 56.8429 144.248 57.19C144.487 57.5372 144.792 57.8273 145.052 58.1589C145.311 58.4905 145.606 58.7755 145.891 59.0863C146.176 59.3972 146.404 59.7495 146.715 60.0397C147.026 60.3298 147.347 60.5785 147.678 60.8479C148.015 61.1225 148.336 61.423 148.694 61.6717C149.051 61.9204 149.461 62.0914 149.834 62.3194C150.207 62.5474 150.595 62.7339 150.984 62.9308C151.367 63.1328 151.72 63.4126 152.119 63.5888C152.518 63.7649 152.958 63.8375 153.367 63.9825C153.777 64.1276 154.196 64.2261 154.616 64.3504C155.036 64.4696 155.429 64.6872 155.854 64.7804C156.279 64.8737 156.709 64.9514 157.139 65.0188C157.569 65.0861 158.015 64.9929 158.429 65.0032C158.844 65.0136 159.289 65.1172 159.719 65.0965C160.149 65.0758 160.574 65.0447 161.004 65.0188C161.434 64.9929 161.849 64.9929 162.289 64.9877C162.693 64.9877 163.098 64.9877 163.502 65.0084C163.906 65.0291 164.315 64.9929 164.719 65.0188C165.123 65.0447 165.528 65.0499 165.932 65.0654C166.336 65.081 166.74 65.0913 167.144 65.0861C167.548 65.081 167.947 65.0447 168.351 64.9929C168.761 64.9411 169.17 64.91 169.569 64.8426C169.968 64.7753 170.382 64.7027 170.776 64.6198C171.17 64.5369 171.569 64.4126 171.968 64.309C172.367 64.2053 172.766 64.1121 173.154 63.9929C173.543 63.8737 173.921 63.6976 174.299 63.5525C174.677 63.4074 175.056 63.2468 175.429 63.081C175.802 62.9152 176.19 62.7805 176.553 62.594C176.916 62.4075 177.278 62.2158 177.631 62.0033C177.983 61.7909 178.356 61.6096 178.688 61.3712C179.019 61.1329 179.33 60.8583 179.646 60.5992C179.962 60.3402 180.232 60.0293 180.532 59.7443C180.833 59.4594 181.18 59.2366 181.46 58.9309C181.739 58.6252 181.993 58.3092 182.242 57.9827C182.491 57.6563 182.641 57.2677 182.874 56.9258C183.107 56.5838 183.387 56.2885 183.594 55.9258C183.802 55.5631 183.983 55.1642 184.19 54.7963C184.397 54.4284 184.636 54.0658 184.838 53.6979C185.04 53.33 185.2 52.9259 185.397 52.5477C185.594 52.1694 185.796 51.7964 185.983 51.413C186.169 51.0296 186.418 50.6773 186.594 50.2887C186.77 49.9001 186.858 49.4752 187.029 49.0866C187.2 48.6981 187.366 48.3043 187.522 47.9105C187.677 47.5168 187.869 47.1333 188.009 46.7292C188.149 46.3251 188.206 45.9002 188.335 45.4961C188.465 45.092 188.584 44.6878 188.693 44.2733C188.801 43.8588 189.009 43.4754 189.102 43.0609C189.195 42.6464 189.206 42.2164 189.283 41.7967C189.361 41.3771 189.516 40.9729 189.573 40.5532C189.63 40.1336 189.573 39.6984 189.61 39.2735C189.646 38.8486 189.656 38.429 189.672 38.0041C189.687 37.5793 189.739 37.1596 189.739 36.7295C189.739 36.2995 189.729 35.885 189.708 35.455C189.687 35.0405 189.724 34.6208 189.682 34.2167C189.641 33.8125 189.47 33.4136 189.402 33.0043C189.335 32.595 189.319 32.1805 189.231 31.7763C189.143 31.3722 188.983 30.9888 188.874 30.5898C188.765 30.1909 188.687 29.7868 188.553 29.393C188.418 28.9992 188.361 28.5795 188.211 28.1961C188.06 27.8127 187.817 27.4656 187.646 27.0925C187.475 26.7195 187.345 26.3154 187.154 25.9527C186.962 25.59 186.651 25.2895 186.439 24.932C186.226 24.5745 185.998 24.2377 185.765 23.8958C185.532 23.5538 185.33 23.1963 185.081 22.8647C184.833 22.5331 184.574 22.2171 184.309 21.8958C184.045 21.5746 183.822 21.2223 183.548 20.9166C183.273 20.6109 183.009 20.2897 182.713 19.9995C182.418 19.7094 182.071 19.471 181.765 19.1964C181.46 18.9218 181.118 18.6835 180.796 18.4244C180.475 18.1654 180.159 17.9011 179.828 17.6524C179.496 17.4037 179.164 17.1602 178.822 16.9271C178.48 16.6939 178.17 16.4193 177.817 16.2069C177.465 15.9945 177.107 15.7872 176.745 15.5851C176.382 15.3831 176.009 15.2069 175.641 15.0256C175.273 14.8442 174.905 14.6525 174.527 14.4867C174.149 14.3209 173.74 14.238 173.351 14.0878C172.963 13.9375 172.6 13.7458 172.206 13.6111C171.812 13.4764 171.429 13.3262 171.035 13.2122C170.641 13.0982 170.237 12.9946 169.838 12.8961C169.439 12.7977 169.03 12.7407 168.621 12.663C168.211 12.5852 167.812 12.492 167.403 12.4298C166.994 12.3676 166.59 12.2744 166.18 12.2277C165.771 12.1811 165.357 12.1397 164.942 12.1138C164.533 12.0879 164.123 12.0516 163.719 12.0464C163.315 12.0412 162.901 12.0775 162.491 12.093C162.082 12.1086 161.678 12.2122 161.274 12.2485C160.87 12.2847 160.455 12.2692 160.051 12.3262C159.647 12.3832 159.243 12.435 158.839 12.5127C158.434 12.5904 158.046 12.7096 157.647 12.8029C157.248 12.8961 156.875 13.0723 156.486 13.1914C156.098 13.3106 155.714 13.435 155.326 13.5748C154.937 13.7147 154.549 13.8235 154.176 13.979C153.803 14.1344 153.388 14.2121 153.02 14.3883C152.652 14.5645 152.31 14.7976 151.953 14.9893C151.595 15.181 151.222 15.352 150.87 15.5644C150.518 15.7768 150.228 16.0722 149.886 16.3001C149.544 16.5281 149.16 16.6887 148.834 16.9323C148.507 17.1758 148.186 17.4296 147.875 17.6939C147.564 17.9581 147.305 18.2794 147.005 18.5591C146.704 18.8389 146.352 19.0565 146.067 19.3519C145.782 19.6472 145.497 19.9684 145.222 20.2793C144.948 20.5902 144.72 20.9528 144.461 21.2793C144.202 21.6057 143.995 21.9787 143.756 22.3155C143.518 22.6523 143.243 22.9787 143.02 23.3258C142.798 23.673 142.528 24.0097 142.321 24.3724C142.114 24.7351 141.995 25.1496 141.808 25.5226C141.622 25.8957 141.352 26.2325 141.186 26.6159C141.021 26.9993 140.865 27.3879 140.715 27.7816C140.565 28.1754 140.471 28.5847 140.342 28.9785C140.212 29.3723 140.103 29.7764 139.989 30.1805C139.876 30.5847 139.819 30.9992 139.72 31.4033C139.622 31.8074 139.44 32.196 139.357 32.6053C139.274 33.0146 139.28 33.4395 139.212 33.854C139.145 34.2685 139.098 34.6778 139.047 35.0923C138.995 35.5068 138.824 35.9057 138.782 36.3254C138.741 36.7451 138.751 37.1596 138.72 37.5793C138.694 37.9627 138.705 38.3512 138.699 38.745C138.694 39.1388 138.622 39.5222 138.642 39.916C138.663 40.3097 138.741 40.688 138.782 41.0765C138.824 41.4651 138.953 41.833 139.01 42.2216C139.067 42.6102 139.124 42.9884 139.197 43.3718C139.269 43.7552 139.363 44.1283 139.451 44.5065C139.539 44.8847 139.637 45.2578 139.741 45.636C139.844 46.0142 139.943 46.3821 140.057 46.7551H140.041Z" fill="#FBC0A8"/>
<path d="M167.694 20.367C167.157 20.5291 166.653 20.7893 166.106 20.9581C165.558 21.1269 165.009 21.2255 164.472 21.4358C163.972 21.6266 163.483 21.837 163.023 22.0922C162.564 22.3474 162.168 22.6931 161.718 22.9678C161.269 23.2424 160.773 23.4384 160.313 23.6978C159.852 23.9572 159.44 24.2869 158.943 24.4871C158.534 24.6511 158.069 24.7828 157.597 24.9484C157.167 25.0955 156.685 25.1672 156.214 25.3024C155.744 25.4375 155.317 25.5939 154.843 25.6935C154.37 25.7931 153.898 25.8362 153.422 25.9003C152.945 25.9687 152.471 26.0683 151.994 26.0885C151.507 26.1112 151.023 26.0603 150.546 26.0281C150.055 25.9933 149.583 25.9096 149.125 25.8021C148.649 25.6871 148.212 25.518 147.781 25.3109C147.351 25.1038 146.942 24.8833 146.575 24.5656C146.232 24.2699 145.891 23.9438 145.62 23.5392C145.346 23.1296 145.054 22.7165 144.872 22.2716C144.69 21.8266 144.579 21.3514 144.482 20.8829C144.385 20.4145 144.435 19.9429 144.416 19.4628C144.396 18.9826 144.331 18.5202 144.382 18.0444C144.433 17.5686 144.567 17.126 144.673 16.6605C144.779 16.195 144.877 15.7455 145.033 15.2936C145.188 14.8417 145.336 14.4016 145.527 13.965C145.717 13.5284 145.976 13.1308 146.202 12.7095C146.427 12.2882 146.591 11.8422 146.846 11.4395C147.101 11.0369 147.42 10.6724 147.705 10.2883C147.99 9.90432 148.222 9.4754 148.535 9.11426C148.849 8.75312 149.207 8.40898 149.545 8.06986C149.883 7.73075 150.29 7.43065 150.656 7.11864C151.022 6.80663 151.397 6.47013 151.79 6.19368C152.183 5.91722 152.652 5.68571 153.071 5.44903C153.515 5.19972 153.958 4.98507 154.408 4.80677C154.889 4.61671 155.379 4.52471 155.853 4.42084C156.342 4.31531 156.803 4.10408 157.297 4.02138C157.791 3.93869 158.306 3.96929 158.806 3.9052C159.305 3.84534 159.797 3.77532 160.301 3.73829C160.805 3.70126 161.305 3.68957 161.806 3.66944C162.307 3.64931 162.803 3.52773 163.31 3.52621C163.812 3.52805 164.318 3.58315 164.825 3.60783C165.332 3.6325 165.835 3.63012 166.338 3.6717C166.842 3.71327 167.337 3.82752 167.842 3.89107C168.342 3.95377 168.852 3.95732 169.354 4.03777C169.855 4.11822 170.343 4.24429 170.84 4.34586C171.338 4.44744 171.826 4.5735 172.315 4.69112C172.805 4.80874 173.303 4.90609 173.789 5.04483C174.275 5.18357 174.757 5.3392 175.235 5.49399C175.713 5.64877 176.192 5.82554 176.661 6.00059C177.13 6.17565 177.632 6.30428 178.093 6.4996C178.554 6.69492 178.986 6.96795 179.439 7.18354C179.891 7.39913 180.335 7.63499 180.78 7.86662C181.224 8.09826 181.7 8.2877 182.133 8.53452C182.565 8.78135 182.941 9.12695 183.36 9.39319C183.784 9.66028 184.222 9.90374 184.628 10.1894C185.034 10.475 185.41 10.7987 185.803 11.0995C186.201 11.4054 186.652 11.6557 187.032 11.9759C187.413 12.2962 187.728 12.6916 188.091 13.0304C188.459 13.37 188.889 13.6515 189.235 14.0047C189.586 14.3587 189.859 14.7726 190.194 15.1367C190.529 15.5008 190.863 15.8691 191.176 16.2467C191.488 16.6286 191.865 16.9699 192.161 17.3619C192.458 17.7538 192.647 18.2132 192.922 18.6143C193.198 19.0155 193.483 19.4184 193.742 19.8297C194.002 20.241 194.318 20.6279 194.556 21.0527C194.794 21.4775 194.924 21.9477 195.147 22.3784C195.37 22.8091 195.654 23.2162 195.851 23.6553C196.049 24.0943 196.265 24.5326 196.442 24.9809C196.619 25.4293 196.656 25.917 196.813 26.3704C196.97 26.8238 197.236 27.2494 197.378 27.7087C197.52 28.1679 197.642 28.628 197.759 29.0914C197.876 29.5548 197.964 30.0258 198.057 30.4892C198.151 30.9526 198.233 31.4269 198.306 31.8953C198.38 32.3637 198.506 32.8331 198.56 33.3023C198.615 33.7715 198.653 34.2508 198.684 34.72C198.715 35.1892 198.71 35.6693 198.712 36.1418C198.714 36.6143 198.64 37.0858 198.623 37.5591C198.606 38.0324 198.51 38.4954 198.47 38.9644C198.429 39.4334 198.421 39.9084 198.354 40.3723C198.279 40.8742 198.131 41.4107 197.891 41.8641C197.633 42.3538 197.288 42.7834 196.716 42.9039C196.168 43.0203 195.597 42.7825 195.081 42.555C194.599 42.3427 194.165 42.0824 193.738 41.806C193.311 41.5296 192.841 41.2801 192.469 40.9396C192.097 40.5991 191.734 40.234 191.408 39.8454C191.083 39.4568 190.799 39.0497 190.527 38.6316C190.254 38.2135 190.012 37.7837 189.782 37.3428C189.552 36.902 189.315 36.4688 189.12 36.017C188.925 35.5653 188.785 35.0976 188.616 34.6332C188.446 34.1688 188.381 33.6844 188.235 33.22C188.09 32.7557 187.812 32.3148 187.686 31.8497C187.559 31.3845 187.524 30.8139 187.407 30.3505C187.117 30.7599 186.706 31.1335 186.261 31.3608C185.816 31.5881 185.334 31.8129 184.811 31.8727C184.288 31.9325 183.744 31.9314 183.225 31.8433C182.706 31.7552 182.225 31.4906 181.76 31.2682C181.294 31.0458 180.807 30.8149 180.397 30.498C179.992 30.1819 179.618 29.8236 179.267 29.4476C178.915 29.0717 178.644 28.6493 178.336 28.2422C178.028 27.835 177.709 27.4388 177.432 27.0198C177.165 26.6204 176.861 26.2445 176.61 25.8391C176.359 25.4337 176.187 24.9863 175.946 24.5784C175.704 24.1705 175.459 23.7617 175.228 23.3471C174.998 22.9325 174.814 22.496 174.593 22.0788C174.373 21.6617 174.118 21.2513 173.912 20.8282C173.703 20.4043 173.513 19.9712 173.319 19.5414C173.124 19.1117 172.884 18.752 172.7 18.3154C172.311 18.5708 171.965 18.7772 171.567 18.9784C171.154 19.1897 170.693 19.2962 170.269 19.4618C169.845 19.6275 169.455 19.8913 169.016 20.0324C168.577 20.1778 168.101 20.2157 167.659 20.3517L167.694 20.367Z" fill="#97928C"/>
<path d="M159.096 23.3357C158.605 23.6068 158.168 23.9666 157.667 24.2465C157.167 24.5264 156.651 24.7379 156.17 25.0559C155.722 25.3473 155.287 25.6555 154.891 26.0014C154.495 26.3473 154.181 26.7684 153.799 27.1311C153.417 27.4938 152.973 27.7894 152.577 28.1395C152.182 28.4897 151.848 28.8984 151.404 29.1983C151.038 29.4445 150.611 29.6708 150.184 29.9315C149.795 30.1655 149.338 30.3367 148.906 30.5674C148.475 30.7982 148.09 31.0406 147.648 31.2372C147.206 31.4339 146.753 31.5749 146.301 31.7374C145.849 31.9042 145.407 32.1009 144.945 32.2207C144.473 32.345 143.99 32.3966 143.516 32.4651C143.029 32.5339 142.55 32.551 142.079 32.542C141.59 32.5293 141.127 32.4556 140.662 32.3433C140.198 32.231 139.752 32.101 139.327 31.8673C138.93 31.65 138.527 31.4028 138.178 31.0639C137.824 30.7208 137.452 30.3782 137.18 29.9813C136.909 29.5844 136.702 29.1428 136.508 28.7052C136.315 28.2675 136.265 27.7959 136.146 27.3305C136.026 26.8651 135.865 26.4266 135.815 25.9507C135.766 25.4748 135.804 25.0138 135.81 24.5364C135.816 24.0591 135.818 23.599 135.875 23.1246C135.932 22.6502 135.985 22.1887 136.08 21.7219C136.175 21.2551 136.345 20.8121 136.477 20.3528C136.609 19.8936 136.676 19.4232 136.841 18.976C137.006 18.5288 137.241 18.1055 137.439 17.6703C137.637 17.2351 137.774 16.7672 138.005 16.3483C138.236 15.9295 138.514 15.5179 138.773 15.1155C139.033 14.7131 139.368 14.3345 139.66 13.9526C139.953 13.5708 140.249 13.1631 140.575 12.8105C140.901 12.4579 141.312 12.1331 141.671 11.814C142.054 11.4771 142.441 11.1744 142.844 10.9057C143.274 10.6191 143.735 10.4263 144.177 10.2254C144.633 10.0198 145.039 9.7166 145.505 9.53223C145.97 9.34787 146.48 9.26978 146.956 9.10236C147.431 8.93922 147.897 8.76774 148.382 8.62584C148.868 8.48394 149.354 8.36782 149.84 8.2431C150.325 8.11838 150.785 7.89548 151.281 7.7877C151.772 7.68433 152.278 7.63215 152.779 7.55003C153.28 7.4679 153.771 7.36024 154.272 7.2953C154.773 7.23035 155.281 7.23832 155.788 7.19473C156.29 7.15127 156.79 7.04766 157.297 7.02125C157.804 6.99485 158.308 7.01583 158.815 7.0109C159.323 7.00598 159.827 7.02696 160.33 7.03934C160.833 7.05173 161.341 7.04251 161.845 7.07637C162.349 7.11024 162.853 7.16129 163.353 7.21246C163.853 7.26363 164.358 7.33616 164.853 7.40894C165.349 7.48172 165.867 7.50232 166.358 7.59671C166.85 7.69109 167.33 7.86747 167.817 7.98345C168.305 8.09944 168.788 8.23703 169.272 8.37032C169.755 8.50362 170.26 8.58904 170.735 8.73976C171.209 8.89049 171.649 9.14961 172.115 9.32207C172.585 9.4944 173.064 9.6407 173.521 9.83489C173.978 10.0291 174.413 10.2668 174.861 10.4784C175.314 10.6942 175.807 10.8445 176.247 11.0778C176.686 11.3112 177.077 11.6318 177.503 11.887C177.933 12.1421 178.413 12.327 178.826 12.5998C179.243 12.8724 179.597 13.2198 180.001 13.5057C180.404 13.7916 180.808 14.0818 181.193 14.3853C181.579 14.6932 182.019 14.948 182.391 15.2691C182.763 15.5903 183.044 15.9998 183.397 16.3343C183.751 16.6688 184.114 17.0031 184.454 17.3508C184.794 17.6986 185.184 18.0107 185.506 18.3761C185.828 18.7416 186.053 19.174 186.361 19.5485C186.67 19.9229 187.033 20.2614 187.318 20.6494C187.603 21.0373 187.907 21.4204 188.173 21.8217C188.44 22.223 188.579 22.6922 188.827 23.1026C189.076 23.513 189.425 23.8734 189.66 24.2928C189.895 24.7122 190.111 25.1363 190.323 25.5649C190.534 25.9934 190.719 26.4356 190.907 26.8691C191.096 27.3026 191.275 27.7492 191.445 28.1918C191.616 28.6344 191.837 29.067 191.988 29.5144C192.14 29.9617 192.278 30.4224 192.407 30.8746C192.535 31.3269 192.631 31.7973 192.732 32.2589C192.833 32.7205 192.86 33.197 192.942 33.6634C193.024 34.1298 193.028 34.6026 193.087 35.0697C193.146 35.5367 193.237 36.0029 193.268 36.4706C193.3 36.9771 193.269 37.5325 193.128 38.0263C192.979 38.5591 192.731 39.0515 192.198 39.2893C191.687 39.5178 191.078 39.4051 190.525 39.2908C190.01 39.1842 189.531 39.0207 189.055 38.8399C188.58 38.6591 188.068 38.5137 187.633 38.2587C187.198 38.0038 186.766 37.7229 186.367 37.4111C185.967 37.0993 185.604 36.7608 185.25 36.4091C184.896 36.0574 184.57 35.6878 184.252 35.305C183.934 34.9222 183.612 34.5482 183.327 34.1474C183.041 33.7466 182.806 33.3186 182.544 32.9C182.281 32.4814 182.115 32.0215 181.875 31.598C181.636 31.1745 181.272 30.8015 181.051 30.3732C180.83 29.9449 180.675 29.3944 180.464 28.9659C180.266 29.4268 179.943 29.8782 179.556 30.1938C179.168 30.5094 178.743 30.8302 178.245 30.9983C177.746 31.1663 177.214 31.2794 176.688 31.302C176.162 31.3246 175.636 31.1666 175.135 31.0467C174.633 30.9268 174.108 30.8032 173.641 30.5792C173.178 30.3551 172.738 30.0831 172.316 29.7891C171.893 29.4951 171.539 29.1391 171.153 28.8055C170.767 28.4718 170.371 28.1513 170.013 27.7998C169.668 27.465 169.292 27.1612 168.962 26.8175C168.631 26.4737 168.369 26.0723 168.048 25.724C167.726 25.3758 167.4 25.0276 167.088 24.6705C166.776 24.3134 166.504 23.9251 166.201 23.5635C165.898 23.2018 165.563 22.8539 165.274 22.4833C164.98 22.1128 164.704 21.729 164.424 21.3495C164.143 20.9701 163.833 20.6688 163.561 20.2805C163.235 20.6116 162.939 20.886 162.593 21.1661C162.233 21.4595 161.805 21.66 161.425 21.9109C161.045 22.1618 160.719 22.5015 160.319 22.7314C159.92 22.9656 159.463 23.1024 159.059 23.3281L159.096 23.3357Z" fill="#97928C"/>
<path d="M194.661 50.2524C194.376 50.5581 194.065 50.8483 193.739 51.1177C193.428 51.3767 193.045 51.584 192.656 51.7964C192.293 51.9933 191.889 52.1332 191.48 52.2835C191.071 52.4337 190.677 52.5166 190.257 52.615C189.838 52.7135 189.439 52.8119 189.014 52.8586C188.589 52.9052 188.169 52.9674 187.744 52.9622C187.314 52.9622 186.895 52.8845 186.48 52.8275C186.066 52.7705 185.646 52.6617 185.252 52.5373C184.838 52.4078 184.403 52.3353 184.045 52.128C183.687 51.9208 183.371 51.5995 183.081 51.299C182.791 50.9985 182.542 50.6617 182.356 50.268C182.185 49.9053 182.076 49.5012 182.009 49.0556C181.952 48.667 181.921 48.2473 181.957 47.7914C181.988 47.3924 182.05 46.9676 182.128 46.5168C182.195 46.1127 182.232 45.6774 182.335 45.2474C182.428 44.8433 182.563 44.4288 182.688 44.0091C182.812 43.5894 182.879 43.1749 183.024 42.7604C183.169 42.3459 183.397 41.9833 183.558 41.5843C183.719 41.1854 183.91 40.802 184.092 40.4134C184.273 40.0248 184.501 39.6569 184.708 39.2839C184.915 38.9108 185.061 38.486 185.288 38.1336C185.516 37.7813 185.786 37.4238 186.045 37.0922C186.304 36.7606 186.573 36.398 186.864 36.0974C187.154 35.7969 187.558 35.569 187.884 35.3047C188.226 35.0301 188.511 34.6778 188.879 34.4757C189.247 34.2737 189.692 34.1649 190.102 34.0509C190.511 33.9317 190.936 33.9162 191.361 33.8903C191.786 33.8644 192.2 33.8799 192.62 33.9473C193.04 34.0146 193.475 34.0302 193.874 34.1804C194.273 34.3307 194.635 34.569 194.988 34.8022C195.366 35.056 195.692 35.3669 196.008 35.6933C196.324 36.0197 196.594 36.3772 196.837 36.7658C197.081 37.1544 197.335 37.5275 197.506 37.9523C197.677 38.3772 197.791 38.8176 197.889 39.2631C197.988 39.7087 197.962 40.1647 197.993 40.6206C198.024 41.0766 198.019 41.517 197.993 41.9729C197.967 42.4288 198.024 42.89 197.946 43.3356C197.868 43.7811 197.671 44.206 197.552 44.6412C197.444 45.0505 197.412 45.4857 197.267 45.8899C197.122 46.294 196.925 46.6722 196.744 47.0556C196.563 47.439 196.371 47.8225 196.153 48.1903C195.936 48.5582 195.672 48.895 195.423 49.2317C195.174 49.5685 194.957 49.9519 194.666 50.2628L194.661 50.2524Z" fill="#FBC0A8"/>
<path d="M193.392 41.2214C192.848 41.3924 192.341 41.6515 191.781 41.7758C191.253 41.895 190.75 41.9883 190.247 42.1903C189.149 42.6204 188.004 42.8794 186.88 43.211C185.921 43.4908 186.331 44.9933 187.294 44.7084C188.424 44.3768 189.564 44.1177 190.662 43.6877C191.165 43.4908 191.672 43.3924 192.196 43.2732C192.755 43.1488 193.263 42.895 193.807 42.7188C194.206 42.5945 194.465 42.18 194.351 41.7603C194.242 41.3665 193.797 41.0919 193.392 41.2163V41.2214Z" fill="#A55535"/>
<path d="M156.259 40.859C155.642 40.4859 154.777 40.5585 154.181 40.9471C153.466 41.4186 153.31 42.2424 153.274 43.0403C153.238 43.8382 153.388 44.6361 153.849 45.2993C154.103 45.6619 154.404 45.9676 154.777 46.2215C155.108 46.4495 155.518 46.5686 155.906 46.6567C156.295 46.7448 156.766 46.5376 156.865 46.1127C156.953 45.7189 156.746 45.2526 156.321 45.1542C156.181 45.1231 156.046 45.092 155.911 45.0454C155.854 45.0247 155.792 45.0091 155.735 44.9832C155.87 45.0454 155.663 44.9366 155.658 44.9314C155.637 44.921 155.471 44.8019 155.569 44.8796C155.518 44.8381 155.471 44.7967 155.424 44.7501C155.378 44.7034 155.331 44.662 155.29 44.6153C155.29 44.6153 155.139 44.4288 155.217 44.5376C155.145 44.4392 155.082 44.3356 155.025 44.2268C155.025 44.2164 154.927 44.004 154.979 44.1439C154.958 44.0869 154.937 44.0299 154.917 43.9729C154.875 43.8433 154.839 43.7138 154.818 43.5791C154.834 43.6931 154.818 43.5584 154.818 43.5118C154.818 43.434 154.818 43.3511 154.818 43.2734C154.818 43.1335 154.829 42.9936 154.834 42.8589C154.834 42.8071 154.839 42.7553 154.844 42.6983C154.854 42.6154 154.87 42.574 154.844 42.6776C154.86 42.6154 154.87 42.5481 154.886 42.4859C154.891 42.4652 154.948 42.2942 154.911 42.3926C154.875 42.4911 154.948 42.3304 154.958 42.3097C155.046 42.1439 154.87 42.3978 155 42.2579C155.088 42.1646 154.906 42.2942 154.984 42.2683C155.025 42.2527 155.067 42.2216 155.103 42.2009C154.87 42.3356 155.305 42.1077 155.305 42.1543C155.305 42.1646 155.129 42.1646 155.305 42.1595C155.331 42.1595 155.424 42.1439 155.45 42.1595C155.347 42.1439 155.326 42.1387 155.383 42.1543C155.409 42.1595 155.435 42.1646 155.461 42.175C155.461 42.1491 155.31 42.0921 155.466 42.1854C155.813 42.3978 156.336 42.2734 156.528 41.9056C156.72 41.5377 156.621 41.0662 156.248 40.8434L156.259 40.859Z" fill="#2B2927"/>
<path d="M149.331 43.4599C150.147 43.4599 150.808 42.4485 150.808 41.2009C150.808 39.9533 150.147 38.9419 149.331 38.9419C148.516 38.9419 147.854 39.9533 147.854 41.2009C147.854 42.4485 148.516 43.4599 149.331 43.4599Z" fill="#2B2927"/>
<path d="M164.492 43.4599C165.307 43.4599 165.968 42.4485 165.968 41.2009C165.968 39.9533 165.307 38.9419 164.492 38.9419C163.676 38.9419 163.015 39.9533 163.015 41.2009C163.015 42.4485 163.676 43.4599 164.492 43.4599Z" fill="#2B2927"/>
<path d="M151.709 34.5016C150.575 34.3203 149.461 34.4032 148.352 34.7244C147.824 34.8747 147.378 35.113 146.943 35.4446C146.508 35.7762 146.021 36.0715 145.627 36.4705C144.922 37.1803 146.021 38.2787 146.725 37.5689C147.02 37.2684 147.352 37.0663 147.694 36.8124C148.067 36.5327 148.342 36.3461 148.767 36.2218C149.601 35.9835 150.466 35.8695 151.295 35.999C151.709 36.0664 152.129 35.8902 152.253 35.455C152.357 35.0871 152.129 34.5638 151.709 34.4965V34.5016Z" fill="#2B2927"/>
<path d="M165.362 48.2005C165.855 48.6772 166.305 49.1331 166.694 49.703C167.082 50.273 167.378 50.8636 167.715 51.4543C168.424 52.6822 168.652 54.1329 168.663 55.537C168.668 56.2054 169.704 56.2054 169.699 55.537C169.694 54.7702 169.595 53.9671 169.471 53.2107C169.347 52.4542 169.041 51.6874 168.663 51.0294C168.31 50.4077 167.984 49.7756 167.585 49.1797C167.15 48.5321 166.647 48.0088 166.093 47.4699C165.616 47.0036 164.88 47.7342 165.362 48.2005Z" fill="#BC7F6C"/>
<path d="M172.046 40.7811C172.662 40.7811 173.284 40.7811 173.901 40.7811C174.17 40.7811 174.429 40.5428 174.419 40.263C174.408 39.9832 174.191 39.7449 173.901 39.7449C173.284 39.7449 172.662 39.7449 172.046 39.7449C171.776 39.7449 171.517 39.9832 171.528 40.263C171.538 40.5428 171.756 40.7811 172.046 40.7811Z" fill="#BC7F6C"/>
<path d="M171.797 42.9833C171.828 42.9833 171.859 42.9936 171.89 42.9936L171.75 42.9729C172.305 43.0506 172.854 43.149 173.403 43.2216C173.527 43.2371 173.688 43.1542 173.771 43.0713C173.859 42.9833 173.926 42.833 173.921 42.7035C173.916 42.5739 173.869 42.4289 173.771 42.3356L173.667 42.2527C173.584 42.2061 173.502 42.1802 173.408 42.1802C173.377 42.1802 173.346 42.1698 173.315 42.1698L173.455 42.1905C172.901 42.1128 172.351 42.0144 171.802 41.9418C171.678 41.9263 171.517 42.0092 171.434 42.0921C171.346 42.1802 171.279 42.3304 171.284 42.46C171.289 42.5895 171.336 42.7346 171.434 42.8278L171.538 42.9107C171.621 42.9573 171.704 42.9833 171.797 42.9833Z" fill="#BC7F6C"/>
<path d="M162.403 35.859C163.393 35.6673 164.455 35.6673 165.455 35.7968C166.372 35.916 167.377 36.1854 168.206 36.5947C168.584 36.7813 169.046 36.6984 169.268 36.315C169.47 35.973 169.367 35.4393 168.989 35.2528C166.859 34.201 164.305 33.9109 161.984 34.3565C161.569 34.4342 161.336 34.9316 161.44 35.315C161.559 35.745 161.984 35.9367 162.398 35.859H162.403Z" fill="#2B2927"/>
<path d="M160.626 54.7962C160.212 54.8117 159.803 54.8014 159.388 54.8066C158.932 54.8066 158.497 54.8532 158.057 54.7185C157.171 54.4439 156.31 54.0501 155.466 53.6771C155.119 53.5216 154.725 53.3766 154.44 53.1123C154.202 52.8895 153.87 52.5268 153.813 52.1745C153.71 51.5269 154.585 51.1072 155.093 50.9362C155.487 50.8015 155.896 50.7134 156.295 50.5943C156.777 50.4492 157.186 50.558 157.678 50.5787C158.093 50.5943 158.513 50.5528 158.927 50.5528C159.44 50.5528 159.948 50.615 160.455 50.6254C160.891 50.6357 161.233 50.6772 161.642 50.8378C162.098 51.0191 162.528 51.2108 162.958 51.444C163.295 51.6305 163.73 51.7497 164.02 52.0035C164.279 52.2315 164.455 52.646 164.621 52.9517C164.787 53.2574 164.802 53.4336 164.6 53.6978C164.326 54.0501 163.859 54.1641 163.45 54.3403C163.041 54.5164 162.668 54.6459 162.207 54.6667C161.678 54.6874 161.155 54.7703 160.626 54.7962C160.207 54.8169 159.849 55.1382 159.849 55.5734C159.849 55.9775 160.207 56.3713 160.626 56.3506C161.176 56.3246 161.714 56.2418 162.264 56.2158C162.911 56.1899 163.445 56.0293 164.03 55.7703C164.507 55.5578 165.01 55.4024 165.419 55.0656C165.828 54.7288 166.155 54.247 166.264 53.7341C166.403 53.0864 166.165 52.5217 165.849 51.9725C165.574 51.4906 165.3 51.0243 164.844 50.6927C164.435 50.3922 163.927 50.2005 163.481 49.9622C162.958 49.6824 162.388 49.4492 161.828 49.2575C161.269 49.0658 160.642 49.1021 160.036 49.0503C159.476 49.0036 158.922 48.9933 158.362 49.014C158.093 49.0244 157.823 49.0399 157.559 49.0192C157.295 48.9985 157.026 48.9363 156.756 48.9415C156.181 48.9518 155.601 49.1746 155.051 49.3249C153.963 49.6202 152.881 50.1901 152.43 51.2782C151.979 52.3662 152.575 53.5372 153.409 54.2884C153.881 54.7133 154.476 54.9361 155.046 55.1952C155.684 55.4853 156.336 55.7236 156.989 55.9879C157.606 56.2366 158.196 56.3972 158.87 56.3868C159.455 56.3816 160.036 56.3868 160.621 56.3661C161.041 56.3506 161.398 56.019 161.398 55.5889C161.398 55.1796 161.041 54.7962 160.621 54.8117L160.626 54.7962Z" fill="#A55535"/>
<path d="M167.906 20.3829C167.605 19.7508 167.351 19.1912 166.787 18.7508C166.274 18.357 165.74 17.9218 165.165 17.6213C164.538 17.2949 163.849 17.1498 163.175 16.9477C162.383 16.7094 161.668 16.8338 160.875 17.0099C160.466 17.1032 160.227 17.5747 160.331 17.9684C160.445 18.3881 160.875 18.6005 161.289 18.5125C161.554 18.4555 161.818 18.3777 162.082 18.357C162.367 18.3363 162.6 18.4037 162.87 18.4866C163.408 18.6523 163.978 18.7456 164.476 19.0254C164.973 19.3052 165.419 19.642 165.844 19.9839C166.201 20.2689 166.357 20.7507 166.564 21.1756C166.745 21.5538 167.284 21.6523 167.626 21.4554C168.015 21.2274 168.087 20.7715 167.906 20.3932V20.3829Z" fill="#97928C"/>
<path d="M150.948 49.1799C150.689 49.6411 150.414 50.097 150.269 50.6099C150.124 51.1229 150.041 51.6825 149.984 52.2109C149.958 52.47 149.948 52.7342 149.937 52.9933C149.922 53.299 149.865 53.5943 149.854 53.9C149.834 54.4699 149.989 55.0554 150.139 55.5994C150.321 56.2419 151.321 55.9673 151.139 55.3248C150.999 54.8274 150.86 54.3093 150.896 53.786C150.927 53.299 150.968 52.8068 151.01 52.3197C151.051 51.8742 151.134 51.4182 151.243 50.983C151.362 50.5167 151.611 50.1126 151.844 49.7032C152.17 49.123 151.279 48.5997 150.948 49.1799Z" fill="#BC7F6C"/>
<path d="M192.537 92.3855C191.931 93.3285 191.387 94.3026 190.833 95.2818C190.563 95.7585 190.268 96.2352 190.045 96.7326C189.802 97.2766 189.636 97.8569 189.408 98.4113C188.994 99.4319 188.512 100.416 188.165 101.468C187.817 102.52 187.532 103.618 187.253 104.706C186.973 105.794 186.626 106.867 186.46 107.971C186.294 109.074 185.952 110.173 185.838 111.302C185.781 111.846 185.729 112.375 185.636 112.919C185.538 113.494 185.527 114.069 185.455 114.644C185.382 115.219 185.222 115.758 185.222 116.338C185.222 116.918 185.185 117.437 185.134 117.986C185.03 119.105 184.999 120.224 184.906 121.343C184.812 122.462 184.849 123.54 184.833 124.644C184.818 125.747 184.719 126.882 184.704 128.001C184.688 129.12 184.719 130.244 184.781 131.364C184.812 131.913 184.766 132.462 184.761 133.016C184.755 133.571 184.786 134.156 184.755 134.726C184.724 135.296 184.74 135.819 184.766 136.379C184.792 136.938 184.724 137.483 184.709 138.032C184.693 138.581 184.657 139.172 184.631 139.742C184.605 140.311 184.631 140.84 184.641 141.394C184.652 142.513 184.46 143.633 184.486 144.757C184.496 145.301 184.47 145.866 184.424 146.41C184.377 146.954 184.191 147.487 184.216 148.052C184.232 148.337 184.284 148.632 184.248 148.912C184.211 149.166 184.128 149.415 184.077 149.669C183.968 150.228 183.895 150.819 183.838 151.389C183.812 151.653 183.823 151.922 183.812 152.187C183.802 152.472 183.74 152.731 183.672 153.005C183.543 153.544 183.486 154.088 183.393 154.632C183.206 155.736 183.004 156.845 182.755 157.933C182.636 158.471 182.481 159 182.336 159.528C182.071 160.497 183.574 160.907 183.833 159.943C184.128 158.855 184.393 157.772 184.59 156.663C184.683 156.119 184.802 155.58 184.89 155.042C184.978 154.503 185.035 153.953 185.17 153.415C185.31 152.834 185.356 152.285 185.372 151.689C185.387 151.156 185.476 150.601 185.574 150.078C185.683 149.492 185.833 148.959 185.792 148.353C185.776 148.114 185.745 147.876 185.776 147.638C185.812 147.353 185.895 147.073 185.937 146.793C186.102 145.653 185.999 144.493 186.082 143.348C186.118 142.798 186.165 142.249 186.191 141.7C186.216 141.151 186.154 140.602 186.175 140.047C186.216 138.928 186.32 137.804 186.33 136.685C186.33 136.13 186.263 135.586 186.294 135.032C186.325 134.477 186.33 133.933 186.325 133.379C186.32 132.825 186.367 132.239 186.356 131.669C186.346 131.099 186.315 130.566 186.289 130.016C186.237 128.908 186.211 127.763 186.299 126.654C186.341 126.099 186.393 125.561 186.393 125.006C186.393 124.452 186.377 123.903 186.382 123.353C186.393 122.25 186.496 121.157 186.532 120.053C186.569 118.949 186.792 117.82 186.786 116.701C186.786 116.437 186.766 116.167 186.797 115.903C186.828 115.639 186.9 115.395 186.942 115.146C187.04 114.582 187.03 114.007 187.118 113.442C187.289 112.354 187.398 111.261 187.595 110.178C187.693 109.639 187.843 109.105 187.931 108.561C188.019 108.017 188.128 107.442 188.289 106.888C188.89 104.784 189.299 102.603 190.139 100.572C190.361 100.038 190.62 99.5252 190.838 98.9864C191.056 98.4475 191.211 97.9449 191.418 97.4372C191.626 96.9294 191.936 96.4683 192.201 96.002C192.465 95.5357 192.745 95.0487 193.009 94.5668C193.273 94.085 193.574 93.6238 193.874 93.1627C194.418 92.3182 193.071 91.541 192.532 92.3804L192.537 92.3855Z" fill="#699055"/>
<path d="M200.102 99.1627C199.817 99.8207 199.537 100.479 199.247 101.132C198.957 101.784 198.594 102.359 198.402 103.023C198.319 103.308 198.268 103.608 198.154 103.883C198.04 104.157 197.874 104.427 197.749 104.707C197.459 105.365 197.148 106.023 196.983 106.717C196.827 107.364 196.501 107.924 196.283 108.551C196.066 109.178 195.843 109.872 195.625 110.53C195.407 111.188 195.211 111.898 194.946 112.566C194.682 113.235 194.402 113.898 194.283 114.572C194.221 114.924 194.2 115.276 194.081 115.618C193.962 115.96 193.796 116.266 193.693 116.608C193.579 117.001 193.532 117.411 193.423 117.805C193.314 118.198 193.169 118.582 193.055 118.976C192.786 119.939 194.283 120.354 194.553 119.39C194.744 118.716 194.952 118.064 195.102 117.38C195.252 116.696 195.61 116.152 195.708 115.489C195.755 115.188 195.781 114.893 195.874 114.597C195.983 114.245 196.117 113.903 196.231 113.551C196.459 112.872 196.724 112.209 196.931 111.52C197.138 110.831 197.366 110.199 197.584 109.541C197.672 109.266 197.755 108.986 197.869 108.717C198.014 108.38 198.19 108.059 198.314 107.717C198.418 107.437 198.47 107.142 198.547 106.852C198.635 106.53 198.775 106.23 198.905 105.924C199.169 105.313 199.521 104.712 199.723 104.074C199.827 103.748 199.879 103.401 200.019 103.09C200.159 102.779 200.33 102.494 200.47 102.188C200.801 101.442 201.117 100.686 201.444 99.9347C201.609 99.5513 201.558 99.1005 201.164 98.8725C200.832 98.6808 200.267 98.7637 200.102 99.1523V99.1627Z" fill="#699055"/>
<path d="M138.228 113.224C138.088 113.965 137.995 114.722 137.901 115.468C137.808 116.214 137.824 116.918 137.756 117.644C137.689 118.369 137.565 119.058 137.59 119.753C137.606 120.095 137.647 120.436 137.632 120.784C137.616 121.146 137.549 121.509 137.544 121.872C137.539 122.234 137.59 122.597 137.606 122.96C137.622 123.322 137.606 123.685 137.611 124.048C137.616 124.758 137.689 125.457 137.673 126.162C137.658 126.866 137.658 127.612 137.673 128.338C137.689 129.063 137.756 129.747 137.761 130.452C137.777 131.882 137.751 133.322 137.689 134.747C137.658 135.42 137.653 136.104 137.544 136.773C137.43 137.488 137.414 138.229 137.238 138.928C137.15 139.275 137.041 139.617 136.989 139.975C136.938 140.332 136.964 140.721 136.865 141.078C136.684 141.757 136.425 142.425 136.192 143.089C136.078 143.415 135.995 143.747 135.896 144.073C135.803 144.374 135.658 144.638 135.508 144.918C135.186 145.498 135.036 146.156 134.684 146.715C134.29 147.337 133.839 147.912 133.425 148.519C133.01 149.125 132.611 149.757 132.067 150.275C131.803 150.529 131.487 150.731 131.212 150.969C130.938 151.208 130.637 151.472 130.337 151.705C130.073 151.912 129.829 152.156 129.549 152.347C129.197 152.581 128.814 152.762 128.441 152.954C128.067 153.145 127.959 153.669 128.161 154.016C128.384 154.394 128.85 154.487 129.223 154.296C129.886 153.954 130.482 153.606 131.047 153.125C131.549 152.695 132.057 152.249 132.58 151.85C133.72 150.98 134.451 149.752 135.285 148.601C135.694 148.037 136.124 147.436 136.383 146.788C136.487 146.529 136.565 146.254 136.689 146C136.844 145.684 137.031 145.394 137.176 145.073C137.476 144.389 137.653 143.643 137.891 142.938C138.129 142.234 138.419 141.508 138.476 140.752C138.502 140.425 138.518 140.13 138.601 139.814C138.704 139.426 138.798 139.047 138.855 138.648C138.953 137.918 139.067 137.177 139.14 136.441C139.285 134.996 139.248 133.54 139.3 132.089C139.352 130.638 139.212 129.151 139.212 127.675C139.212 126.949 139.243 126.219 139.228 125.499C139.212 124.778 139.16 124.053 139.155 123.322C139.155 122.918 139.114 122.519 139.098 122.115C139.083 121.711 139.14 121.312 139.171 120.908C139.202 120.504 139.145 120.1 139.14 119.696C139.134 119.291 139.202 118.893 139.243 118.488C139.326 117.685 139.347 116.877 139.394 116.074C139.44 115.271 139.58 114.437 139.725 113.639C139.803 113.224 139.611 112.799 139.181 112.68C138.803 112.577 138.3 112.81 138.223 113.224H138.228Z" fill="#699055"/>
<path d="M136.202 62.9151C134.622 63.112 132.72 62.9565 132.383 64.9616C132.249 65.7699 132.073 66.5989 132.269 67.3916C132.596 68.7284 132.948 70.0599 133.275 71.3967C133.746 73.3137 134.42 75.2826 136.71 75.0079C138.466 74.8007 141.015 74.1271 141.425 72.0754C141.642 70.9614 140.803 69.7542 139.673 69.6662C139.741 69.2931 140.176 69.1791 140.492 68.9719C141.119 68.5574 140.963 67.7232 140.492 67.1429C140.015 66.5626 139.342 66.174 138.601 66.0549C139.445 65.6611 139.394 64.4798 138.73 63.827C138.067 63.1741 137.14 62.7907 136.217 62.9047L136.202 62.9151Z" fill="#BDBDBD"/>
<path d="M130.321 64.9565C130.378 66.5885 130.321 68.2569 130.518 69.9045C130.715 71.5521 131.306 73.1168 131.575 74.7437C131.845 76.3706 131.819 78.0545 132.088 79.6658C132.358 81.2772 132.969 82.8782 133.176 84.4843C133.415 85.1683 133.316 87.3858 133.58 90.2614C133.741 91.9815 133.845 93.9607 134.047 96.0228C134.233 97.9036 134.767 99.8258 135.005 101.732C135.259 103.738 135.472 105.696 135.808 107.453C136.249 109.737 136.746 111.68 137.368 112.986C138.404 115.157 139.881 115.649 141.606 112.846C141.461 111.074 141.249 109.214 141.057 107.442C140.865 105.67 140.694 103.898 140.471 102.126C140.249 100.354 139.668 98.6393 139.42 96.8777C139.171 95.1161 139.031 93.339 138.762 91.5722C138.492 89.8054 138.399 88.0231 138.124 86.2615C137.845 84.4999 137.254 82.7901 136.974 81.0285C136.694 79.2669 136.497 77.4949 136.218 75.7385C135.938 73.9821 135.731 72.2049 135.466 70.4485C135.202 68.6921 135.104 66.9098 134.86 65.1482C134.782 63.0343 133.264 61.8219 132.062 61.5524C130.772 61.2623 129.679 62.1016 130.327 64.9565H130.321Z" fill="#EE6002"/>
<path d="M133.591 100.821C133.803 101.271 133.98 101.727 134.151 102.163C134.311 102.572 134.472 102.986 134.653 103.39C134.835 103.795 135.016 104.209 135.239 104.587C135.461 104.966 135.809 105.271 136.099 105.598C136.389 105.924 136.674 106.261 137.052 106.504C137.425 106.743 137.84 106.851 138.254 106.96C138.669 107.069 139.088 107.214 139.523 107.209C139.959 107.204 140.399 107.168 140.824 107.064C141.249 106.96 141.663 106.805 142.052 106.608C142.44 106.411 142.757 106.09 143.088 105.82C143.42 105.551 143.808 105.313 144.088 104.981C144.368 104.649 144.637 104.297 144.865 103.929C145.093 103.561 145.295 103.168 145.477 102.774C145.658 102.38 145.767 101.95 145.907 101.541C146.047 101.131 146.192 100.717 146.295 100.297C146.389 99.9139 146.482 99.5201 146.549 99.1263C146.617 98.7326 146.689 98.3388 146.725 97.9398C146.762 97.5409 146.772 97.1419 146.772 96.743C146.772 96.344 146.725 95.9451 146.689 95.5513C146.653 95.1575 146.632 94.7534 146.554 94.3648C146.477 93.9762 146.373 93.5876 146.254 93.2042C146.135 92.8208 146.01 92.4426 145.839 92.0799C145.668 91.7172 145.44 91.3597 145.212 91.0281C144.984 90.6965 144.648 90.4427 144.368 90.1422C144.088 89.8416 143.865 89.4842 143.549 89.2303C143.233 88.9764 142.871 88.7691 142.518 88.5671C142.166 88.365 141.803 88.1526 141.425 88.0075C141.047 87.8624 140.643 87.7485 140.244 87.6707C139.845 87.593 139.425 87.6552 139.021 87.65C138.617 87.6448 138.202 87.6034 137.803 87.6811C137.404 87.7588 137.031 87.9142 136.653 88.0852C136.275 88.2562 135.938 88.4427 135.601 88.6966C135.29 88.9349 135.005 89.2199 134.726 89.5411C134.477 89.8209 134.285 90.1318 134.073 90.4427C133.86 90.7535 133.679 91.0644 133.493 91.3908C133.306 91.7172 133.068 92.0074 132.907 92.3442C132.746 92.6809 132.601 93.0229 132.446 93.3597C132.202 93.7586 132.078 94.1731 131.98 94.5824C131.876 95.0125 131.772 95.4425 131.798 95.8829C131.824 96.3233 131.902 96.7533 132.016 97.1886C132.13 97.6238 132.353 97.9968 132.519 98.4113C132.684 98.8258 132.783 99.2559 132.969 99.6548C133.156 100.054 133.389 100.437 133.575 100.826L133.591 100.821Z" fill="#D6A792"/>
<path d="M142.171 98.3698C142.337 98.7014 142.368 99.09 142.456 99.4475C142.544 99.805 142.663 100.168 142.669 100.536C142.674 100.903 142.669 101.287 142.591 101.65C142.513 102.012 142.29 102.323 142.13 102.66C141.933 103.069 141.876 103.515 141.845 103.94C141.814 104.364 141.922 104.795 141.979 105.23C142.036 105.665 141.985 106.105 142.067 106.535C142.15 106.965 142.285 107.38 142.316 107.815C142.347 108.25 142.404 108.691 142.327 109.126C142.254 109.535 142.026 109.914 141.803 110.318C141.606 110.67 141.415 111.033 141.135 111.344C140.855 111.654 140.534 111.882 140.213 112.157C139.891 112.432 139.612 112.711 139.27 112.944C138.928 113.178 138.586 113.395 138.228 113.602C137.871 113.81 137.508 114.001 137.151 114.193C136.793 114.385 136.436 114.618 136.078 114.794C135.695 114.986 135.275 115.074 134.933 115.245C134.544 115.442 134.208 115.727 133.819 115.872C133.43 116.017 132.969 116.032 132.57 116.136C132.171 116.24 131.741 116.328 131.332 116.38C130.923 116.431 130.488 116.545 130.068 116.54C129.648 116.535 129.213 116.494 128.798 116.426C128.384 116.359 127.98 116.193 127.576 116.064C127.172 115.934 126.783 115.779 126.4 115.592C126.016 115.406 125.664 115.188 125.312 114.944C124.959 114.701 124.648 114.437 124.327 114.147C124.006 113.856 123.736 113.556 123.457 113.229C123.177 112.903 122.928 112.587 122.685 112.229C122.441 111.872 122.141 111.582 121.933 111.198C121.737 110.841 121.617 110.447 121.452 110.079C121.286 109.711 121.073 109.354 120.939 108.971C120.804 108.587 120.731 108.183 120.623 107.794C120.514 107.406 120.467 107.002 120.379 106.603C120.291 106.204 120.244 105.805 120.177 105.406C120.11 105.007 119.975 104.618 119.928 104.214C119.882 103.81 119.876 103.406 119.845 103.002C119.814 102.598 119.82 102.194 119.794 101.789C119.768 101.385 119.716 100.981 119.7 100.577C119.685 100.168 119.654 99.7584 119.649 99.3439C119.643 98.9294 119.586 98.5201 119.597 98.1056C119.607 97.6911 119.731 97.287 119.757 96.8725C119.783 96.458 119.69 96.0383 119.742 95.629C119.794 95.2197 119.944 94.8207 120.022 94.4166C120.099 94.0125 120.11 93.5876 120.213 93.1887C120.317 92.7897 120.472 92.4011 120.617 92.0177C120.762 91.6343 120.892 91.2302 121.079 90.8623C121.265 90.4944 121.493 90.1421 121.721 89.8002C121.949 89.4582 122.203 89.1266 122.477 88.8157C122.752 88.5049 123.078 88.2562 123.4 87.9816C123.721 87.707 124.011 87.4375 124.369 87.2096C124.726 86.9816 125.141 86.7899 125.529 86.5878C125.918 86.3858 126.322 86.2148 126.731 86.049C127.135 85.8832 127.565 85.7847 127.985 85.65C128.405 85.5153 128.804 85.3392 129.229 85.2304C129.653 85.1216 130.083 85.0335 130.513 84.9454C130.943 84.8573 131.368 84.7537 131.804 84.6812C132.239 84.6086 132.669 84.5361 133.104 84.4739C133.529 84.4117 133.969 84.4428 134.399 84.4066C134.829 84.3703 135.265 84.2615 135.689 84.2874C136.114 84.3133 136.529 84.4584 136.948 84.5775C137.368 84.6967 137.746 84.8625 138.104 85.106C138.461 85.3495 138.871 85.562 139.119 85.9091C139.368 86.2562 139.456 86.7018 139.524 87.137C139.57 87.4583 139.617 87.7899 139.627 88.1163C139.638 88.4427 139.715 88.7536 139.855 89.0541C140.083 89.5411 140.539 89.8364 140.917 90.2198C141.187 90.4893 141.404 90.826 141.575 91.1576C141.746 91.4892 141.834 91.8778 141.912 92.2457C141.99 92.6135 141.99 92.997 141.969 93.3752C141.948 93.7534 141.876 94.1213 141.751 94.4788C141.627 94.8363 141.451 95.1575 141.223 95.4632C141.016 95.7482 140.865 96.0642 140.865 96.4113C140.865 96.8051 141.13 97.1056 141.394 97.3958C141.674 97.7015 141.974 98.0175 142.161 98.3854L142.171 98.3698Z" fill="#FBC0A8"/>
<path d="M126.803 92.7381C127.156 92.6034 127.482 92.4169 127.835 92.2926C128.187 92.1682 128.544 92.1319 128.891 92.0283C129.7 91.79 130.492 91.5102 131.301 91.277C131.695 91.1631 132.104 91.1009 132.503 90.9921C132.871 90.8936 133.207 90.7278 133.565 90.6139C134.389 90.3444 135.249 90.246 136.093 90.0802C137.073 89.8885 136.803 88.36 135.814 88.5518C134.964 88.7176 134.119 88.8523 133.285 89.0854C132.902 89.1942 132.544 89.3756 132.161 89.4792C131.741 89.5932 131.316 89.6605 130.902 89.7849C130.099 90.0232 129.311 90.3082 128.503 90.531C128.094 90.6449 127.674 90.7123 127.275 90.8522C126.876 90.9921 126.524 91.1941 126.135 91.3392C125.747 91.4843 125.591 92.0128 125.762 92.3755C125.954 92.7796 126.405 92.8988 126.798 92.7485L126.803 92.7381Z" fill="#A55535"/>
<path d="M128.586 100.505C128.99 100.297 129.425 100.183 129.829 99.9814C130.197 99.7949 130.539 99.5617 130.923 99.4063C131.783 99.0592 132.684 98.8001 133.56 98.4944C134.435 98.1887 135.342 98.0281 136.244 97.8571C136.71 97.769 137.176 97.7172 137.648 97.6602C138.119 97.6032 138.539 97.4893 138.99 97.4478C139.409 97.4064 139.684 96.9297 139.617 96.5463C139.539 96.1059 139.135 95.8779 138.715 95.9194C138.264 95.9608 137.824 96.0748 137.373 96.1318C136.881 96.194 136.394 96.251 135.907 96.339C134.933 96.5256 133.959 96.7224 133.016 97.0437C132.135 97.3442 131.239 97.624 130.368 97.9556C129.943 98.1162 129.57 98.3649 129.166 98.5669C128.762 98.769 128.327 98.8882 127.923 99.0902C127.037 99.5462 127.69 100.955 128.586 100.5V100.505Z" fill="#A55535"/>
<path d="M130.71 107.24C131.431 106.986 132.135 106.681 132.855 106.427C133.544 106.183 134.275 105.992 134.995 105.878C135.715 105.764 136.373 105.432 137.094 105.292C137.487 105.214 137.891 105.173 138.285 105.08C138.679 104.986 139.057 104.862 139.451 104.774C139.845 104.686 140.156 104.292 140.078 103.872C140.005 103.468 139.586 103.157 139.176 103.245C138.767 103.334 138.399 103.458 138.011 103.551C137.622 103.644 137.218 103.686 136.819 103.764C136.42 103.841 136.037 103.981 135.653 104.121C135.311 104.245 134.969 104.308 134.612 104.365C133.819 104.489 133.016 104.738 132.26 104.997C131.519 105.256 130.798 105.572 130.058 105.831C129.664 105.971 129.519 106.515 129.684 106.867C129.876 107.276 130.322 107.38 130.721 107.24H130.71Z" fill="#A55535"/>
</g>
<defs>
<clipPath id="clip0_1598_10005">
<rect width="226" height="162" fill="white" transform="translate(47)"/>
</clipPath>
</defs>
</svg>
