<svg width="320" height="162" viewBox="0 0 320 162" fill="none" xmlns="http://www.w3.org/2000/svg">
<g clip-path="url(#clip0_1598_10001)">
<path d="M265.093 22H54.9068C50.8161 22 47.5 24.8379 47.5 28.3386V155.661C47.5 159.162 50.8161 162 54.9068 162H265.093C269.184 162 272.5 159.162 272.5 155.661V28.3386C272.5 24.8379 269.184 22 265.093 22Z" fill="#EDE6DF"/>
<path d="M111.952 139.521C110.634 139.557 109.315 139.634 108.002 139.753C107.048 139.841 106.073 139.957 105.222 140.398C104.512 140.764 103.934 141.332 103.346 141.871C98.6825 146.15 93.2138 147.85 87.6884 150.533C86.5585 151.082 85.261 151.908 85.2971 153.167C85.3436 154.75 87.3659 155.357 88.9446 155.486C92.2903 155.757 95.6489 155.873 99.0075 155.834C101.68 155.803 104.388 155.664 106.929 154.841C109.47 154.015 111.859 152.424 113.138 150.079" fill="#3C4959"/>
<path d="M188.5 145.629C190.574 149.011 195.29 151.867 198.883 153.363C199.781 153.737 200.714 154.067 201.488 154.66C202.262 155.254 202.858 156.177 202.768 157.147C202.68 158.104 201.932 158.901 201.063 159.311C200.193 159.721 199.213 159.812 198.254 159.871C193.36 160.178 188.451 159.871 183.56 159.52C181.293 159.358 178.878 159.131 177.093 157.722C175.662 156.595 174.839 154.836 174.493 153.045C174.199 151.529 174.455 149.989 174.212 148.49C174.016 147.278 174.785 146.408 174.702 145.144" fill="#3C4959"/>
<path d="M157.014 92.565C166.125 93.8341 175.1 96.0887 183.731 99.2719C186.788 100.399 189.932 101.735 192.011 104.245C194.712 107.503 195.081 112.059 195.132 116.292C195.259 126.657 194.199 137.037 191.978 147.164C191.872 147.649 191.74 148.17 191.356 148.485C190.99 148.784 190.479 148.82 190.004 148.846C185.134 149.086 180.264 149.328 175.394 149.568C175.038 149.586 174.656 149.597 174.359 149.401C173.916 149.109 173.851 148.495 173.828 147.966C173.482 140.331 172.667 132.718 171.388 125.184C170.598 120.53 167.392 120.466 163.259 119.877C156.454 118.908 147.741 120.44 142.644 114.832C140.42 112.386 139.571 108.997 139.148 105.721C138.478 100.502 138.699 95.1729 139.801 90.0293" fill="#BFB7B7"/>
<g clip-path="url(#clip1_1598_10001)">
<path d="M208.559 104.236C208.559 104.236 208.524 104.236 208.505 104.236L200.265 103.45C199.948 103.419 199.712 103.137 199.743 102.815C199.774 102.494 200.056 102.258 200.378 102.293L208.114 103.028L210.351 93.7094C210.397 93.5081 210.548 93.3495 210.745 93.2876L223.69 89.3673C223.996 89.2744 224.321 89.4485 224.414 89.7543C224.507 90.06 224.333 90.3851 224.027 90.478L211.399 94.3054L209.124 103.791C209.062 104.054 208.826 104.236 208.559 104.236Z" fill="#785B4E"/>
<path d="M216.012 111.689C215.985 111.689 215.957 111.689 215.93 111.682L204.947 110.11C204.63 110.064 204.409 109.77 204.456 109.452C204.502 109.135 204.796 108.914 205.114 108.961L215.748 110.482L219.467 105.277C219.615 105.068 219.882 104.983 220.125 105.064L230.717 108.593C231.023 108.694 231.186 109.023 231.085 109.329C230.985 109.634 230.656 109.797 230.35 109.696L220.164 106.302L216.491 111.445C216.383 111.6 216.205 111.689 216.019 111.689H216.012Z" fill="#785B4E"/>
<path d="M217.974 129.344C217.785 129.344 217.599 129.251 217.487 129.077L213.257 122.541L201.627 116.728C201.341 116.585 201.225 116.236 201.368 115.95C201.511 115.664 201.86 115.548 202.146 115.691L213.915 121.577C214.008 121.623 214.085 121.693 214.143 121.782L218.458 128.45C218.632 128.721 218.555 129.077 218.284 129.251C218.187 129.313 218.079 129.344 217.97 129.344H217.974Z" fill="#785B4E"/>
</g>
<path d="M150.315 95.5806C151.236 103.146 152.523 110.083 151.3 117.587C149.843 126.533 148.336 135.471 146.783 144.399C146.324 147.04 145.821 149.777 144.284 151.975C141.093 156.528 134.724 157.449 129.637 157.423C122.156 157.387 114.681 157.567 107.252 156.427C106.635 156.332 105.959 156.195 105.58 155.702C105.234 155.254 105.229 154.637 105.242 154.072C105.353 148.978 103.333 140.522 109.14 138.115C112.888 136.56 118.269 137.922 121.7 135.881C124.971 133.934 123.993 127.441 123.947 124.211C123.763 110.844 121.731 96.6021 125.966 83.792" fill="#BFB7B7"/>
<path d="M156.196 99.6434C154.62 103.134 152.964 106.585 151.231 109.998C151.006 110.441 151.672 110.834 151.899 110.387C153.635 106.975 155.291 103.523 156.864 100.033C157.068 99.5815 156.4 99.1894 156.196 99.6434Z" fill="#9C9191"/>
<path d="M131.574 94.5642C130.088 97.0921 128.033 99.2564 125.579 100.866C125.164 101.137 125.551 101.808 125.969 101.534C128.533 99.8523 130.687 97.5977 132.242 94.9563C132.495 94.5255 131.827 94.136 131.574 94.5668V94.5642Z" fill="#9C9191"/>
<path d="M176.206 110.643C174.749 113.039 173.35 115.472 172.012 117.935C171.774 118.374 172.442 118.763 172.68 118.325C174.019 115.858 175.417 113.428 176.874 111.032C177.135 110.606 176.464 110.217 176.206 110.643Z" fill="#9C9191"/>
<path d="M176.57 117.744C178.102 116.919 179.727 116.295 181.417 115.877C181.899 115.758 181.695 115.01 181.21 115.131C179.459 115.565 177.767 116.222 176.178 117.079C175.739 117.316 176.129 117.984 176.567 117.747L176.57 117.744Z" fill="#9C9191"/>
<path d="M188.5 43.5C191.353 46.0744 193.34 49.7469 194.508 53.4073C196.435 59.4461 198.065 65.5777 199.391 71.7764C200.823 78.4703 201.899 85.4016 200.658 92.1343C200.144 94.9228 199.133 97.7938 196.928 99.5789C195.398 100.815 193.458 101.397 191.573 101.952C188.219 102.937 184.866 103.923 181.512 104.911C181.185 105.006 180.831 105.102 180.511 104.988C180.091 104.839 179.874 104.385 179.681 103.982C178.29 101.047 176.028 98.5316 173.253 96.842C172.455 96.357 171.486 95.4645 172.014 94.6984C172.177 94.4636 172.445 94.3321 172.703 94.2082C176.271 92.4748 179.892 89.9546 180.927 86.1265C181.44 84.2279 181.249 82.2107 180.942 80.2683C180.339 76.4634 179.302 72.7282 177.857 69.1607" fill="#8DB579"/>
<path d="M122.42 81.6381C122.755 81.442 123.207 81.6174 123.441 81.927C123.676 82.2365 123.746 82.6338 123.8 83.0181C124.182 85.7473 124.107 88.541 123.573 91.2469C123.467 91.7809 123.343 92.3149 123.302 92.8592C123.24 93.6485 123.346 94.4714 123.07 95.2143C122.546 96.615 120.532 97.1773 119.355 96.2513L117.689 89.044" fill="#DFBBAC"/>
<path d="M171.945 35.8198C165.104 30.769 154.999 32.34 148.215 37.4656C141.431 42.5911 137.347 50.4898 134.154 58.3703C131.672 64.4942 129.588 70.7806 127.919 77.1728C126.588 82.2674 124.612 87.4136 124.656 92.7611C131.033 94.3656 137.479 95.6837 143.972 96.713C151.367 97.8841 159.449 98.5548 165.867 94.6958C167.446 93.7465 169.035 92.044 168.447 90.2976C168.292 89.841 167.99 89.4025 168.044 88.9227C168.08 88.5977 168.276 88.3191 168.467 88.0534C172.667 82.1771 176.559 76.0094 181.639 70.9276C186.062 66.5037 190.288 61.3214 191.412 55.004C192.455 49.1536 189.738 42.1681 184.035 40.4991" fill="#8DB579"/>
<path d="M118.862 75.3206C118.77 79.6053 119.133 82.2158 120.97 86.1522C121.837 88.0069 122.703 89.8642 123.57 91.7189C123.725 92.0517 123.895 92.4025 124.205 92.5959C124.597 92.8436 125.131 92.7713 125.518 92.516C125.905 92.2606 126.165 91.853 126.361 91.4326C127.46 89.0852 126.802 86.3431 126.756 83.7506C126.733 82.4505 129.877 73.0919 126.526 73.858" fill="#FBC0A8"/>
<path d="M118.824 75.4419C117.753 80.6242 114.552 86.4412 115.367 91.6699C115.713 93.8987 116.856 95.9107 117.988 97.8609C118.561 98.8463 119.337 100.012 120.441 98.7689C120.828 98.3329 120.998 97.7396 121.045 97.1567C121.153 95.8076 120.671 94.492 120.408 93.1635C119.709 89.6424 120.627 85.835 122.851 83.0207" fill="#FBC0A8"/>
<path d="M119.827 82.5202C120.041 83.681 120.377 84.816 120.831 85.9046C120.911 86.098 121.086 86.2348 121.308 86.1754C121.491 86.1264 121.659 85.8943 121.579 85.6982C121.127 84.6071 120.789 83.4746 120.575 82.3138C120.537 82.1075 120.289 81.9914 120.098 82.043C119.881 82.1023 119.788 82.3138 119.827 82.5202Z" fill="#BB7B60"/>
<path d="M121.831 77.8769C121.161 78.0988 120.49 78.3206 119.822 78.5425C118.496 78.981 117.266 79.7291 116.345 78.4986C115.772 77.7351 115.228 75.5914 114.939 74.6164C112.829 67.4968 112.965 60.3359 114.188 53.0899C115.086 47.7734 117.449 41.4922 122.386 38.6753C125.296 37.0141 128.342 35.5824 131.489 34.4319C134.366 33.3795 137.425 32.1026 140.42 31.5454C148.865 29.9719 157.682 30.4259 165.924 32.8558C166.221 32.9435 166.528 33.039 166.765 33.235C167.657 33.9676 167.085 35.4044 166.419 36.346C162.723 41.5722 157.662 46.7958 151.46 48.8543C147.661 50.1157 143.587 50.304 139.718 51.3306C135.8 52.3676 131.67 54.4777 130.313 58.5096C128.773 63.0857 129.506 68.1546 130.886 72.6714C131.115 73.4246 131.301 74.3945 130.674 74.8692C130.509 74.9956 130.308 75.0626 130.109 75.1271C127.352 76.0429 124.592 76.9612 121.834 77.8769H121.831Z" fill="#8DB579"/>
<path d="M170.513 53.9981C171.284 53.9981 171.909 53.3733 171.909 52.6026C171.909 51.8318 171.284 51.207 170.513 51.207C169.742 51.207 169.117 51.8318 169.117 52.6026C169.117 53.3733 169.742 53.9981 170.513 53.9981Z" fill="#EAE6ED"/>
<path d="M167.841 59.5777C168.612 59.5777 169.236 58.9529 169.236 58.1822C169.236 57.4114 168.612 56.7866 167.841 56.7866C167.07 56.7866 166.445 57.4114 166.445 58.1822C166.445 58.9529 167.07 59.5777 167.841 59.5777Z" fill="#EAE6ED"/>
<path d="M145.519 42.0752C144.666 43.5533 143.399 44.7064 142.267 45.9626C141.096 47.2627 140.066 48.6892 139.197 50.206C138.949 50.6394 139.617 51.0289 139.865 50.5955C140.74 49.0684 141.777 47.6419 142.963 46.3444C144.101 45.1036 145.339 43.9351 146.188 42.4647C146.438 42.0339 145.77 41.6419 145.519 42.0752Z" fill="#699055"/>
<path d="M149.712 44.2345C148.409 45.336 147.106 46.4374 145.804 47.5389C145.644 47.673 145.664 47.9465 145.804 48.0858C145.961 48.2431 146.191 48.2199 146.351 48.0858C147.653 46.9843 148.956 45.8828 150.259 44.7814C150.419 44.6472 150.398 44.3738 150.259 44.2345C150.101 44.0771 149.872 44.1003 149.712 44.2345Z" fill="#699055"/>
<path d="M123.284 47.8664C125.476 49.6231 127.424 51.6764 129.052 53.9671C129.338 54.3695 130.009 53.9825 129.72 53.5775C128.053 51.2301 126.077 49.1226 123.831 47.3221C123.446 47.0125 122.894 47.5568 123.284 47.869V47.8664Z" fill="#699055"/>
<path d="M122.843 54.3876C124.277 55.0041 125.714 55.6181 127.148 56.2346C127.339 56.3171 127.564 56.2913 127.677 56.0953C127.772 55.9328 127.731 55.649 127.538 55.5665C126.103 54.95 124.667 54.336 123.232 53.7195C123.042 53.637 122.817 53.6627 122.704 53.8588C122.608 54.0213 122.649 54.3051 122.843 54.3876Z" fill="#699055"/>
<path d="M129.433 70.244C129.057 71.005 128.794 71.8175 128.675 72.661C128.647 72.8597 128.724 73.0867 128.946 73.1383C129.129 73.1795 129.392 73.0815 129.423 72.8674C129.48 72.4702 129.565 72.0781 129.681 71.6963C129.802 71.299 129.926 70.9895 130.102 70.6361C130.192 70.4555 130.156 70.2079 129.962 70.1073C129.787 70.0144 129.529 70.0531 129.433 70.2466V70.244Z" fill="#5B6F86"/>
<path d="M189.971 59.7969C187.342 63.3799 184.597 66.8778 181.744 70.2854C181.427 70.6646 181.971 71.2141 182.291 70.8323C185.186 67.3757 187.971 63.8236 190.639 60.1864C190.933 59.784 190.262 59.3971 189.971 59.7969Z" fill="#699055"/>
<path d="M184.706 83.7868L184.592 83.8281C184.123 84.0009 184.306 84.6587 184.799 84.5735C187.169 84.1608 189.555 83.8358 191.949 83.6011C192.439 83.552 192.445 82.7782 191.949 82.8272C189.486 83.0697 187.03 83.4024 184.592 83.8281L184.799 84.5735L184.912 84.5323C185.377 84.362 185.175 83.614 184.706 83.7868Z" fill="#699055"/>
<path d="M186.648 85.7782C188.82 86.1523 190.964 86.6759 193.066 87.344C193.541 87.4962 193.745 86.7481 193.272 86.5985C191.173 85.9278 189.029 85.4068 186.855 85.0327C186.367 84.9502 186.158 85.6957 186.648 85.7782Z" fill="#699055"/>
<path d="M169.293 95.8748C168.22 96.1766 167.144 96.4784 166.071 96.7802C165.581 96.9169 165.086 97.0562 164.642 97.3038C163.69 97.8326 163.035 98.867 162.965 99.953C162.942 100.327 162.983 100.711 163.125 101.06C163.538 102.068 164.67 102.569 165.731 102.806C166.481 102.974 167.253 103.061 168.024 103.067" fill="#DFBBAC"/>
<path d="M165.354 105.275C166.084 106.154 167.799 106.157 168.158 105.073C168.779 105.77 169.424 106.484 170.265 106.887C171.106 107.289 172.205 107.307 172.894 106.678C173.554 108.303 175.992 108.829 177.264 107.622C178.424 108.932 180.676 109.064 181.982 107.898C182.699 107.258 183.106 106.34 183.777 105.654C184.278 105.143 184.91 104.772 185.374 104.23C186.23 103.232 186.39 101.761 186.008 100.505C185.629 99.2461 184.773 98.1781 183.798 97.2985C181.427 95.1575 178.221 93.9657 175.027 94.0431C173.376 94.0818 171.71 94.7035 170.105 95.1085C169.337 95.3019 168.55 95.5238 167.918 96.0036C167.206 96.5427 166.76 97.3553 166.344 98.1446C165.421 99.9064 163.824 103.435 165.351 105.275H165.354Z" fill="#FBC0A8"/>
<path d="M168.937 100.794C168.681 101.834 168.423 102.873 168.168 103.915C168.049 104.398 168.795 104.604 168.914 104.122C169.169 103.082 169.427 102.042 169.682 101C169.801 100.518 169.055 100.312 168.937 100.794Z" fill="#BB7B60"/>
<path d="M173.595 102.659C173.265 103.562 173.023 104.49 172.865 105.437C172.832 105.644 172.92 105.852 173.136 105.914C173.322 105.966 173.577 105.852 173.613 105.644C173.768 104.697 174.013 103.766 174.343 102.865C174.416 102.669 174.263 102.442 174.073 102.388C173.856 102.329 173.668 102.46 173.595 102.659Z" fill="#BB7B60"/>
<path d="M177.295 103.931C177.125 104.547 176.957 105.161 176.787 105.778C176.732 105.974 176.854 106.208 177.057 106.255C177.261 106.301 177.475 106.193 177.535 105.984C177.705 105.367 177.873 104.754 178.043 104.137C178.097 103.941 177.976 103.706 177.772 103.66C177.568 103.613 177.354 103.722 177.295 103.931Z" fill="#BB7B60"/>
<path d="M151.223 113.359C151.068 114.757 150.913 116.153 150.759 117.551C150.735 117.76 150.952 117.938 151.145 117.938C151.375 117.938 151.509 117.76 151.532 117.551C151.687 116.153 151.842 114.757 151.997 113.359C152.02 113.15 151.803 112.972 151.61 112.972C151.38 112.972 151.246 113.15 151.223 113.359Z" fill="#9C9191"/>
<path d="M125.043 136.069C127.308 137.119 129.573 138.169 131.838 139.219C132.287 139.428 132.681 138.76 132.227 138.551C129.963 137.501 127.698 136.451 125.433 135.401C124.984 135.192 124.589 135.86 125.043 136.069Z" fill="#9C9191"/>
<path d="M124.723 139.446C126.209 140.891 127.561 142.469 128.755 144.164C129.039 144.569 129.712 144.182 129.423 143.775C128.193 142.026 126.805 140.393 125.27 138.902C124.914 138.554 124.365 139.1 124.723 139.449V139.446Z" fill="#9C9191"/>
<path d="M185.573 32.6856C185.833 32.5643 186.109 32.4483 186.401 32.3915C186.692 32.3348 186.979 32.3967 187.278 32.3915C187.559 32.3838 187.853 32.327 188.15 32.3554C188.446 32.3838 188.725 32.4018 189.019 32.4508C189.313 32.4999 189.571 32.634 189.86 32.6985C190.149 32.763 190.427 32.8068 190.714 32.8765C190.995 32.9461 191.276 33.0235 191.557 33.0957C191.838 33.168 192.13 33.217 192.409 33.2866C192.687 33.3563 192.976 33.4311 193.255 33.493C193.546 33.5575 193.838 33.5833 194.116 33.6323C194.413 33.6839 194.691 33.7767 194.97 33.8025C195.272 33.8309 195.563 33.8154 195.839 33.8025C196.123 33.7896 196.412 33.7819 196.698 33.7355C196.982 33.689 197.266 33.6349 197.544 33.5601C197.823 33.4852 198.078 33.3434 198.344 33.2402C198.61 33.137 198.904 33.0751 199.154 32.941C199.409 32.8042 199.66 32.652 199.889 32.4844C200.124 32.3141 200.343 32.1207 200.547 31.922C200.753 31.7208 200.957 31.5093 201.125 31.2771C201.293 31.045 201.383 30.7612 201.504 30.5007C201.625 30.2402 201.729 29.9796 201.796 29.6959C201.852 29.4611 201.87 29.2212 201.917 28.9839C201.963 28.7466 202.074 28.5299 202.17 28.3081C202.268 28.0785 202.407 27.8824 202.562 27.689C202.716 27.4955 202.848 27.284 203.026 27.1086C203.204 26.9332 203.392 26.7732 203.563 26.5952C203.769 26.3811 203.924 26.1258 204.099 25.8859C204.275 25.646 204.478 25.4241 204.62 25.1636C204.762 24.903 204.858 24.6193 204.966 24.3433C205.074 24.0673 205.211 23.799 205.288 23.5127C205.366 23.2263 205.368 22.9245 205.41 22.6304C205.451 22.3364 205.479 22.0449 205.49 21.7482C205.5 21.4361 205.513 21.1446 205.466 20.866C205.417 20.5642 205.345 20.2805 205.25 20.0044C205.154 19.7284 205.077 19.4292 204.953 19.1635C204.829 18.8978 204.703 18.6244 204.579 18.3561C204.455 18.0878 204.342 17.817 204.244 17.5358C204.146 17.2546 204.053 16.9864 204.004 16.6871C203.96 16.4214 203.939 16.1635 203.929 15.9081C203.919 15.6527 203.934 15.3844 203.942 15.1239C203.95 14.8634 203.939 14.6003 203.952 14.3397C203.965 14.0792 203.957 13.8187 203.957 13.5555C203.957 13.2924 203.913 13.0422 203.882 12.7765C203.851 12.5108 203.841 12.2658 203.772 12.0026C203.707 11.7602 203.643 11.5074 203.534 11.2546C203.426 11.0018 203.302 10.7438 203.165 10.4962C203.029 10.2485 202.892 10.0035 202.732 9.7739C202.572 9.54432 202.35 9.36117 202.17 9.14707C201.989 8.93296 201.832 8.69822 201.633 8.50217C201.434 8.30613 201.197 8.15135 200.978 7.97852C200.759 7.80569 200.568 7.58901 200.328 7.44197C200.088 7.29494 199.84 7.15822 199.587 7.03956C199.35 6.92864 199.113 6.81256 198.876 6.70164C198.638 6.59072 198.403 6.48238 198.189 6.33018C197.965 6.17025 197.722 6.02579 197.534 5.82201C197.346 5.61822 197.188 5.39122 197.01 5.1797C196.822 4.95528 196.636 4.72569 196.438 4.50643C196.239 4.28717 196.017 4.09628 195.808 3.88734C195.599 3.67839 195.414 3.44881 195.194 3.25018C194.975 3.05156 194.751 2.86067 194.521 2.67494C194.292 2.48921 194.041 2.33186 193.802 2.16161C193.562 1.99136 193.296 1.86238 193.046 1.70761C192.795 1.55283 192.587 1.32583 192.326 1.18911C192.065 1.0524 191.777 0.96985 191.506 0.85377C191.237 0.73511 190.956 0.649985 190.675 0.554541C190.394 0.459097 190.126 0.348176 189.839 0.275948C189.553 0.20372 189.264 0.162447 188.973 0.116015C188.681 0.0695828 188.39 0.0489463 188.096 0.0283098C187.801 0.00767328 187.51 -0.00522453 187.216 0.00251416C186.922 0.0102528 186.625 -0.00522453 186.334 0.0308894C186.042 0.0670032 185.756 0.14439 185.47 0.211459C185.183 0.278527 184.884 0.314641 184.608 0.410085C184.329 0.508109 184.071 0.655144 183.806 0.784122C183.54 0.9131 183.274 1.0395 183.027 1.20201C182.717 1.40322 182.418 1.65859 182.052 1.71019C181.706 1.7592 181.36 1.64054 181.025 1.53993C180.762 1.46255 180.499 1.3929 180.23 1.34131C179.962 1.28972 179.691 1.24586 179.42 1.22007C179.15 1.19427 178.876 1.17879 178.603 1.17879C178.329 1.17879 178.058 1.23039 177.788 1.2536C177.517 1.27682 177.248 1.31551 176.978 1.36194C176.707 1.40838 176.449 1.4806 176.183 1.55025C175.917 1.6199 175.657 1.68439 175.399 1.77467C175.141 1.86496 174.865 1.90881 174.615 2.02231C174.365 2.13581 174.119 2.25963 173.88 2.39119C173.64 2.52275 173.426 2.69816 173.199 2.85035C172.972 3.00255 172.768 3.1857 172.556 3.35595C172.345 3.5262 172.138 3.70419 171.94 3.88992C171.741 4.07822 171.55 4.26911 171.37 4.4729C171.189 4.67668 170.998 4.87273 170.838 5.09199C170.678 5.31126 170.487 5.51504 170.348 5.75236C170.209 5.98968 170.124 6.25022 170.008 6.50043C169.977 6.5675 169.688 6.68616 169.285 6.8461C169.066 6.9338 168.811 7.0344 168.537 7.13501C168.295 7.22529 168.047 7.33363 167.792 7.42908C167.536 7.52452 167.258 7.55548 167.015 7.64834C166.744 7.75152 166.51 7.90372 166.29 7.99916C165.96 8.14104 165.674 8.22874 165.553 8.32934C165.328 8.51765 165.148 8.75497 164.944 8.9665C164.74 9.17802 164.572 9.41534 164.394 9.65008C164.216 9.88482 164.041 10.1144 163.894 10.3672C163.747 10.62 163.592 10.8702 163.474 11.1385C163.355 11.4068 163.262 11.6854 163.18 11.9665C163.097 12.2477 162.989 12.5263 162.942 12.8152C162.896 13.1041 162.909 13.3982 162.898 13.6871C162.888 13.976 162.88 14.2701 162.906 14.559C162.932 14.8479 162.994 15.1342 163.053 15.418C163.112 15.7017 163.156 15.9932 163.249 16.2667C163.342 16.5401 163.458 16.8109 163.579 17.0741C163.701 17.3372 163.85 17.59 164 17.8376C164.149 18.0853 164.353 18.2968 164.531 18.5264C164.709 18.7559 164.903 18.9649 165.106 19.1712C165.31 19.3776 165.473 19.6304 165.7 19.811C165.927 19.9916 166.198 20.1231 166.445 20.2727C166.249 20.4868 166.084 20.7241 165.924 20.9615C165.764 21.1988 165.617 21.4464 165.493 21.707C165.37 21.9675 165.212 22.2151 165.125 22.4911C165.037 22.7672 164.99 23.0535 164.939 23.3372C164.887 23.621 164.903 23.9099 164.887 24.1988C164.872 24.4877 164.82 24.7715 164.838 25.0604C164.856 25.3493 164.926 25.6279 164.977 25.9116C165.029 26.1954 165.096 26.4714 165.179 26.7474C165.261 27.0234 165.364 27.2891 165.48 27.5522C165.597 27.8154 165.72 28.0733 165.87 28.3184C166.02 28.5634 166.138 28.8343 166.319 29.0587C166.499 29.2831 166.757 29.4328 166.969 29.6288C167.178 29.8223 167.366 30.0467 167.606 30.2066C167.781 30.3253 167.944 30.4697 168.119 30.591C168.295 30.7148 168.504 30.7922 168.643 30.9547C168.818 31.1585 168.896 31.419 168.999 31.6667C169.102 31.9143 169.203 32.1594 169.303 32.4044C169.409 32.6649 169.541 32.9126 169.68 33.1525C169.819 33.3924 169.974 33.6271 170.144 33.849C170.315 34.0708 170.498 34.2823 170.694 34.481C170.89 34.6796 171.122 34.8369 171.341 35.0098C171.561 35.1826 171.759 35.3812 171.996 35.5308C172.231 35.6779 172.487 35.7991 172.737 35.9229C172.987 36.0467 173.242 36.1551 173.506 36.2531C173.766 36.3511 174.019 36.4801 174.29 36.5549C174.561 36.6297 174.839 36.6736 175.113 36.7226C175.389 36.7716 175.672 36.7303 175.951 36.751C176.23 36.7716 176.506 36.7897 176.782 36.7845C177.063 36.7793 177.341 36.7845 177.62 36.7587C177.899 36.7329 178.182 36.7329 178.458 36.6813C178.734 36.6297 178.995 36.5137 179.266 36.4414C179.537 36.3692 179.813 36.3202 180.078 36.2299C180.344 36.1396 180.617 36.0725 180.878 35.9668C181.138 35.861 181.394 35.7424 181.647 35.6211C181.928 35.487 182.147 35.2651 182.39 35.1001C182.645 34.9298 182.934 34.8137 183.163 34.6254C183.398 34.4319 183.625 34.2333 183.852 34.0347C184.079 33.8361 184.283 33.6142 184.52 33.4259C184.758 33.2376 184.985 33.0493 185.245 32.8868C185.351 32.8223 185.457 32.7527 185.568 32.6985L185.573 32.6856Z" fill="#97928C"/>
<path d="M172.167 31.9351C172.148 32.2885 172.174 32.6522 172.115 33.003C172.056 33.3538 171.97 33.6969 171.883 34.04C171.795 34.3831 171.658 34.7029 171.553 35.0409C171.447 35.3788 171.297 35.6935 171.186 36.0262C171.075 36.359 170.998 36.7098 170.892 37.04C170.786 37.3702 170.725 37.7313 170.632 38.0667C170.539 38.402 170.389 38.7348 170.322 39.0779C170.255 39.421 170.281 39.795 170.258 40.1432C170.234 40.4915 170.232 40.8449 170.271 41.1983C170.309 41.5517 170.343 41.8948 170.456 42.2353C170.562 42.5525 170.694 42.875 170.874 43.1871C171.037 43.4657 171.204 43.7727 171.439 44.0461C171.645 44.2886 171.919 44.4511 172.154 44.6549C172.388 44.8587 172.605 45.1037 172.863 45.2688C173.121 45.4339 173.387 45.599 173.66 45.728C173.934 45.857 174.243 45.875 174.527 45.973C174.811 46.0711 175.087 46.1923 175.378 46.2594C175.67 46.3264 175.958 46.4038 176.253 46.4451C176.583 46.4915 176.923 46.4503 177.259 46.4503C177.594 46.4503 177.929 46.4657 178.257 46.3961C178.587 46.3264 178.933 46.28 179.237 46.1123C179.523 45.955 179.789 45.7486 180.032 45.5242C180.274 45.2998 180.506 45.0521 180.715 44.7813C180.919 44.5156 181.118 44.2344 181.303 43.9403C181.489 43.6463 181.639 43.3393 181.812 43.0401C181.984 42.7409 182.142 42.4313 182.315 42.1372C182.49 41.838 182.691 41.5646 182.879 41.286C183.068 41.0074 183.277 40.7391 183.496 40.4915" fill="#FEBFA6"/>
<path d="M197.402 32.6521C197.242 32.8842 197.098 33.1241 196.935 33.3537C196.773 33.5833 196.634 33.8284 196.469 34.0554C196.303 34.2824 196.154 34.5223 195.984 34.7441C195.813 34.9659 195.602 35.1594 195.426 35.3761C195.248 35.5954 195.073 35.812 194.887 36.021C194.702 36.2299 194.544 36.4724 194.348 36.671C194.152 36.8722 193.889 37.0038 193.683 37.1921C193.476 37.3804 193.311 37.6177 193.089 37.7931C192.87 37.966 192.641 38.1336 192.408 38.291C192.176 38.4484 191.905 38.5412 191.66 38.6805C191.415 38.8198 191.196 38.9901 190.938 39.1139C190.68 39.2377 190.417 39.3074 190.149 39.408C189.896 39.5034 189.656 39.6298 189.398 39.7072C189.14 39.7846 188.867 39.7949 188.603 39.8568C188.34 39.9161 188.088 40.0245 187.822 40.0657C187.556 40.107 187.285 40.107 187.017 40.1302C186.749 40.1534 186.483 40.187 186.212 40.1947C185.944 40.2025 185.673 40.2386 185.405 40.2283C185.137 40.2179 184.873 40.1328 184.605 40.1044C184.337 40.0761 184.061 40.1044 183.795 40.058C183.524 40.0116 183.261 39.9574 183.014 39.8826C182.766 39.8078 182.534 39.635 182.286 39.5421C182.038 39.4466 181.76 39.4312 181.512 39.3331C181.265 39.2351 181.04 39.0984 180.782 39.0107C180.486 38.9101 180.189 38.7992 179.887 38.7166C179.585 38.6341 179.265 38.6109 178.961 38.5283C178.659 38.4458 178.36 38.3426 178.063 38.242C177.767 38.1414 177.46 38.0563 177.176 37.9221C176.928 37.806 176.709 37.6332 176.469 37.5068C176.229 37.3804 175.997 37.2308 175.765 37.0941C175.533 36.9574 175.259 36.8722 175.032 36.7252C174.805 36.5782 174.615 36.3666 174.398 36.2067C174.181 36.0468 173.98 35.8585 173.774 35.6856C173.567 35.5128 173.309 35.389 173.113 35.2007C172.917 35.0124 172.721 34.8189 172.538 34.6177C172.355 34.4165 172.241 34.156 172.074 33.9419C171.906 33.7278 171.684 33.5549 171.532 33.3279C171.38 33.1009 171.238 32.8688 171.106 32.6314C170.975 32.3941 170.838 32.1568 170.725 31.9066C170.611 31.6564 170.51 31.4061 170.418 31.1482C170.325 30.8902 170.281 30.622 170.206 30.3588C170.131 30.0957 170.082 29.8326 170.028 29.5643C169.974 29.2961 169.915 29.0149 169.863 28.7415C169.811 28.468 169.765 28.1894 169.719 27.9134C169.672 27.6374 169.608 27.364 169.564 27.088C169.52 26.8119 169.479 26.5334 169.44 26.2573C169.401 25.9813 169.391 25.6976 169.363 25.4216C169.334 25.1455 169.293 24.8644 169.272 24.5858C169.252 24.3072 169.265 24.026 169.252 23.7474C169.239 23.4688 169.241 23.1902 169.239 22.9091C169.236 22.6279 169.208 22.3493 169.218 22.0707C169.228 21.7921 169.236 21.5109 169.257 21.2323C169.277 20.9538 169.272 20.6726 169.308 20.394C169.344 20.1154 169.409 19.8445 169.458 19.566C169.507 19.2874 169.595 19.0268 169.659 18.7508C169.724 18.4748 169.726 18.1936 169.801 17.9202C169.876 17.6468 169.961 17.3862 170.051 17.1179C170.142 16.8497 170.299 16.6175 170.402 16.3518C170.505 16.0861 170.559 15.7998 170.676 15.5418C170.792 15.2839 170.944 15.0388 171.078 14.7886C171.212 14.5384 171.333 14.2778 171.483 14.0379C171.633 13.7955 171.816 13.5736 171.978 13.344C172.143 13.1119 172.308 12.8797 172.486 12.6579C172.664 12.436 172.814 12.1884 173.005 11.9795C173.196 11.7705 173.441 11.608 173.645 11.4094C173.848 11.2107 174.055 11.0173 174.269 10.8316C174.483 10.6458 174.684 10.442 174.909 10.2692C175.133 10.0964 175.396 9.97514 175.631 9.8152C175.866 9.65527 176.1 9.5005 176.343 9.35346C176.585 9.20643 176.797 9.00264 177.047 8.8685C177.297 8.73437 177.573 8.65182 177.831 8.53058C178.087 8.40934 178.321 8.23651 178.587 8.12817C178.853 8.01983 179.142 7.98629 179.41 7.89085C179.678 7.79798 179.949 7.72318 180.222 7.64321C180.496 7.56324 180.759 7.46264 181.038 7.39557C181.316 7.3285 181.59 7.26659 181.871 7.215C182.152 7.16341 182.423 7.07313 182.704 7.03185C182.985 6.99058 183.277 7.03959 183.56 7.0138C183.844 6.988 184.123 6.92867 184.407 6.91835C184.69 6.90803 184.974 6.94415 185.258 6.94673C185.542 6.94931 185.825 6.92867 186.109 6.94673C186.393 6.96479 186.682 6.92351 186.965 6.95447C187.249 6.98542 187.523 7.07571 187.804 7.12214C188.085 7.16857 188.371 7.17373 188.652 7.23306C188.934 7.29239 189.186 7.43685 189.462 7.50907C189.741 7.5813 190.012 7.66901 190.283 7.75671C190.554 7.84442 190.832 7.91406 191.101 8.01725C191.369 8.12043 191.629 8.23393 191.89 8.35259C192.15 8.47125 192.429 8.55638 192.682 8.69051C192.935 8.82465 193.198 8.94331 193.445 9.09292C193.69 9.23996 193.91 9.43343 194.144 9.59594C194.379 9.75845 194.596 9.94934 194.823 10.1248C195.05 10.3002 195.274 10.4756 195.491 10.6613C195.708 10.8496 195.922 11.0379 196.125 11.2365C196.329 11.4352 196.559 11.6132 196.752 11.8247C196.946 12.0362 197.132 12.2555 197.312 12.4773C197.493 12.6992 197.658 12.9339 197.828 13.1661C197.998 13.3982 198.163 13.6304 198.318 13.8729C198.473 14.1153 198.568 14.3888 198.71 14.639C198.852 14.8892 199.015 15.1239 199.138 15.3819C199.262 15.6399 199.391 15.8772 199.497 16.13C199.603 16.3828 199.701 16.6459 199.794 16.9038C199.886 17.1618 199.951 17.4352 200.028 17.6983C200.106 17.9615 200.191 18.2272 200.255 18.4954C200.32 18.7637 200.402 19.032 200.451 19.3028C200.5 19.5737 200.547 19.8497 200.58 20.1231C200.614 20.3966 200.655 20.6726 200.676 20.9486C200.696 21.2246 200.689 21.5032 200.694 21.7792C200.699 22.0552 200.647 22.3312 200.64 22.6073C200.632 22.8833 200.66 23.1593 200.64 23.4353C200.619 23.7113 200.604 23.9873 200.573 24.2608C200.542 24.5342 200.482 24.805 200.444 25.0811C200.405 25.3571 200.31 25.6176 200.261 25.8885C200.212 26.1593 200.152 26.4276 200.093 26.6984C200.034 26.9693 199.992 27.2402 199.925 27.5084C199.858 27.7767 199.843 28.0553 199.755 28.3184C199.667 28.5815 199.536 28.8214 199.43 29.0794C199.324 29.3373 199.236 29.5927 199.118 29.8429C198.999 30.0932 198.821 30.3073 198.692 30.5523C198.563 30.7974 198.483 31.0631 198.341 31.303C198.199 31.5429 198.058 31.775 197.908 32.0072C197.758 32.2393 197.552 32.4302 197.395 32.6572L197.402 32.6521Z" fill="#FBC0A8"/>
<path d="M164.639 24.0648C164.748 24.2996 164.887 24.5162 165.024 24.7355C165.168 24.9677 165.328 25.2024 165.534 25.4165C165.728 25.6177 165.926 25.8241 166.161 26.0021C166.396 26.1801 166.644 26.3039 166.896 26.4483C167.149 26.5928 167.405 26.7037 167.67 26.8146C167.936 26.9256 168.189 27.0855 168.462 27.1577C168.736 27.2299 169.037 27.2377 169.319 27.2635C169.613 27.2919 169.896 27.2944 170.175 27.2635C170.466 27.23 170.737 27.15 170.998 27.0416C171.261 26.9307 171.506 26.794 171.72 26.5954C171.921 26.4096 172.089 26.1852 172.231 25.9144C172.355 25.6796 172.489 25.4243 172.564 25.1224C172.626 24.8619 172.664 24.573 172.711 24.2712C172.752 23.9978 172.827 23.714 172.85 23.4148C172.871 23.1362 172.829 22.8447 172.835 22.5506C172.84 22.2566 172.827 21.9805 172.816 21.6865C172.806 21.3924 172.765 21.1164 172.739 20.8275C172.713 20.5386 172.739 20.2471 172.695 19.9633C172.651 19.6796 172.584 19.3932 172.522 19.1146C172.46 18.8361 172.399 18.5446 172.311 18.2737C172.223 18.0029 172.05 17.7501 171.937 17.4921C171.823 17.2341 171.767 16.922 171.62 16.6821C171.465 16.4293 171.251 16.2255 171.062 16.0166C170.874 15.8076 170.632 15.6374 170.397 15.4775C170.18 15.3278 169.953 15.2066 169.708 15.1086C169.463 15.0106 169.226 14.8816 168.965 14.8377C168.705 14.7939 168.436 14.8068 168.173 14.8197C167.91 14.8326 167.655 14.8893 167.399 14.959C167.126 15.0338 166.871 15.137 166.623 15.2711C166.375 15.4052 166.12 15.5291 165.903 15.7096C165.687 15.8876 165.493 16.0966 165.313 16.3132C165.132 16.5299 165.016 16.7879 164.874 17.0304C164.732 17.2728 164.613 17.5205 164.508 17.781C164.402 18.0415 164.242 18.284 164.17 18.5549C164.098 18.8257 164.108 19.1146 164.067 19.3932C164.025 19.6718 163.93 19.9453 163.914 20.2264C163.899 20.4896 163.922 20.7552 163.93 21.0184C163.938 21.2815 163.953 21.5446 163.984 21.8077C164.015 22.0708 164.082 22.3262 164.136 22.5816C164.19 22.837 164.242 23.0975 164.325 23.3477C164.407 23.5979 164.528 23.8327 164.639 24.0726V24.0648Z" fill="#FBC0A8"/>
<path d="M167.09 18.9649C167.382 19.1764 167.624 19.4241 167.903 19.5918C168.223 19.7826 168.532 19.9529 168.821 20.1954C169.337 20.6262 169.954 20.995 170.537 21.4C170.771 21.5625 170.877 21.8618 170.725 22.1223C170.588 22.3545 170.237 22.4757 170.003 22.3106C169.386 21.885 168.739 21.5058 168.166 21.0183C167.934 20.8222 167.681 20.6855 167.395 20.5152C167.095 20.3398 166.799 20.0483 166.556 19.8729C166.327 19.7053 166.213 19.4138 166.368 19.1506C166.502 18.9236 166.858 18.7947 167.09 18.9623V18.9649Z" fill="#A55535"/>
<path d="M189.117 27.4775C189.628 27.3615 190.164 27.6065 190.461 28.027C190.758 28.4475 190.665 28.9995 190.515 29.4535C190.366 29.9075 190.151 30.3073 189.793 30.5962C189.362 30.9419 188.813 31.1276 188.258 31.0786C187.985 31.0554 187.716 30.8542 187.729 30.5498C187.742 30.2841 187.961 29.9952 188.258 30.021C188.353 30.0287 188.449 30.0287 188.544 30.0236C188.658 30.0184 188.472 30.0468 188.591 30.0184C188.627 30.0107 188.666 30.0029 188.704 29.9926C188.748 29.9823 188.789 29.9668 188.833 29.9513C188.88 29.9359 188.918 29.9126 188.851 29.9436C188.931 29.9023 189.006 29.8611 189.083 29.812C189.197 29.7398 189.016 29.8817 189.112 29.7914C189.143 29.763 189.171 29.7372 189.202 29.7063C189.225 29.6805 189.246 29.6547 189.269 29.6315C189.292 29.6031 189.287 29.6108 189.249 29.6573C189.261 29.6418 189.272 29.6237 189.285 29.6083C189.326 29.5463 189.365 29.4819 189.398 29.4148C189.406 29.3993 189.452 29.3245 189.45 29.3039C189.427 29.3606 189.421 29.3735 189.437 29.3374C189.445 29.3193 189.452 29.2987 189.46 29.2807C189.512 29.1414 189.556 28.9969 189.586 28.8524C189.592 28.8241 189.597 28.7957 189.602 28.7699L189.594 28.8241C189.607 28.7983 189.602 28.7235 189.602 28.6951C189.602 28.6745 189.602 28.6512 189.602 28.6306C189.599 28.5893 189.602 28.6022 189.607 28.6667C189.62 28.6383 189.537 28.5248 189.605 28.6306C189.592 28.6074 189.537 28.5558 189.594 28.6074C189.661 28.6667 189.574 28.5893 189.558 28.5739C189.486 28.4965 189.571 28.5687 189.571 28.579C189.571 28.5661 189.496 28.53 189.481 28.5223C189.465 28.5145 189.45 28.5042 189.434 28.499C189.398 28.481 189.414 28.4887 189.478 28.5171C189.46 28.5171 189.396 28.4939 189.378 28.4887C189.277 28.4629 189.494 28.4913 189.385 28.4913C189.282 28.4913 189.504 28.4629 189.401 28.4887C189.132 28.5506 188.818 28.4062 188.751 28.1198C188.689 27.8516 188.831 27.5369 189.12 27.4698L189.117 27.4775Z" fill="#2B2927"/>
<path d="M193.799 23.5979C194.472 23.7062 195.114 23.9926 195.659 24.4001C195.924 24.5988 196.188 24.8051 196.396 25.0631C196.611 25.3262 196.74 25.6229 196.884 25.9272C197.003 26.1775 196.961 26.5076 196.696 26.6495C196.461 26.7733 196.1 26.7269 195.973 26.4612C195.857 26.2161 195.759 25.9556 195.597 25.7389C195.628 25.7802 195.625 25.775 195.592 25.7389C195.563 25.7106 195.538 25.6796 195.512 25.6512C195.463 25.5996 195.411 25.5506 195.357 25.5016C195.303 25.4526 195.249 25.4062 195.192 25.3623C195.184 25.3572 195.109 25.2952 195.151 25.3288C195.197 25.3649 195.086 25.2823 195.089 25.2823C194.851 25.1069 194.599 24.9651 194.333 24.8387C194.299 24.8232 194.302 24.8258 194.343 24.8438L194.297 24.8258C194.266 24.8129 194.235 24.8025 194.201 24.7897C194.129 24.7639 194.057 24.7406 193.985 24.72C193.832 24.6762 193.675 24.6426 193.518 24.6168C193.244 24.573 193.069 24.2196 193.149 23.9668C193.244 23.6701 193.505 23.5515 193.799 23.5979Z" fill="#2B2927"/>
<path d="M182.023 31.8834C181.703 31.9969 181.414 32.1826 181.105 32.3194C180.795 32.4561 180.504 32.6057 180.251 32.8533C180.019 33.0803 179.787 33.3151 179.601 33.5833C179.5 33.7252 179.41 33.8748 179.312 34.0193C179.214 34.1637 179.113 34.303 179.054 34.4655C178.99 34.6435 178.814 34.7648 178.621 34.7106C178.448 34.6642 178.311 34.4578 178.376 34.2772C178.507 33.9032 178.755 33.5756 178.979 33.2506C179.204 32.9255 179.472 32.6341 179.756 32.3555C180.039 32.0769 180.359 31.886 180.726 31.7235C181.092 31.561 181.45 31.3417 181.837 31.205C182.015 31.1405 182.222 31.2772 182.271 31.45C182.325 31.6461 182.204 31.8189 182.026 31.8834H182.023Z" fill="#BC7F6C"/>
<path d="M179.722 24.5729C179.358 24.4516 179.01 24.2891 178.644 24.1679C178.468 24.1111 178.337 23.9228 178.399 23.7345C178.456 23.5617 178.644 23.4276 178.832 23.4895C179.196 23.6107 179.544 23.7732 179.91 23.8945C180.086 23.9512 180.217 24.1395 180.156 24.3278C180.099 24.5007 179.91 24.6348 179.722 24.5729Z" fill="#BC7F6C"/>
<path d="M179.47 25.8317C179.139 25.7672 178.804 25.7259 178.474 25.664C178.391 25.6485 178.304 25.5737 178.262 25.5015C178.219 25.4267 178.2 25.3158 178.226 25.2307C178.288 25.0372 178.466 24.9469 178.66 24.9856C178.99 25.0501 179.325 25.0914 179.655 25.1533C179.738 25.1688 179.826 25.2436 179.867 25.3158C179.911 25.3906 179.929 25.5015 179.903 25.5866C179.841 25.7801 179.663 25.8704 179.47 25.8317Z" fill="#BC7F6C"/>
<path d="M183.594 14.1875C183.318 14.3422 183.07 14.5512 182.789 14.7111C182.508 14.871 182.219 14.9897 181.948 15.1728C181.695 15.3405 181.45 15.5185 181.226 15.7197C181.001 15.9209 180.821 16.1686 180.604 16.3801C180.388 16.5916 180.137 16.7619 179.913 16.9656C179.689 17.1694 179.498 17.4093 179.247 17.5822C179.041 17.724 178.801 17.853 178.561 18.0026C178.342 18.1368 178.087 18.2322 177.844 18.3638C177.602 18.4953 177.385 18.6346 177.137 18.7455C176.89 18.8565 176.637 18.9339 176.384 19.0241C176.131 19.117 175.884 19.2279 175.626 19.2924C175.363 19.3595 175.094 19.3827 174.831 19.4162C174.56 19.4498 174.295 19.4523 174.034 19.4394C173.763 19.424 173.508 19.3724 173.252 19.2976C172.997 19.2228 172.752 19.1376 172.52 18.9906C172.303 18.8539 172.084 18.6991 171.896 18.4902C171.705 18.2786 171.504 18.0671 171.359 17.8246C171.215 17.5822 171.106 17.3139 171.006 17.0482C170.905 16.7825 170.884 16.4987 170.825 16.2176C170.766 15.9364 170.683 15.6707 170.663 15.3844C170.642 15.098 170.67 14.822 170.681 14.5357C170.691 14.2494 170.699 13.9734 170.737 13.6896C170.776 13.4058 170.812 13.1298 170.872 12.8512C170.931 12.5726 171.031 12.3095 171.111 12.0361C171.191 11.7627 171.235 11.4815 171.333 11.2158C171.431 10.9501 171.568 10.6999 171.684 10.4419C171.8 10.184 171.883 9.90538 172.017 9.65774C172.151 9.4101 172.311 9.16762 172.461 8.9303C172.61 8.69298 172.801 8.47114 172.969 8.24672C173.136 8.0223 173.307 7.7824 173.492 7.57603C173.678 7.36967 173.91 7.18136 174.114 6.99563C174.331 6.79959 174.55 6.62417 174.777 6.4694C175.019 6.30431 175.277 6.19597 175.525 6.08247C175.78 5.96639 176.01 5.79098 176.271 5.68779C176.531 5.58461 176.815 5.54592 177.081 5.45305C177.346 5.36277 177.607 5.26732 177.878 5.18994C178.149 5.11255 178.419 5.05064 178.69 4.98357C178.961 4.9165 179.219 4.79011 179.495 4.73335C179.768 4.67918 180.05 4.65597 180.328 4.61469C180.607 4.57342 180.88 4.51667 181.159 4.48572C181.437 4.45476 181.719 4.46766 182 4.4496C182.278 4.43155 182.557 4.37738 182.838 4.36964C183.119 4.3619 183.398 4.38253 183.679 4.38769C183.96 4.39285 184.239 4.41349 184.517 4.42897C184.796 4.44444 185.077 4.44702 185.356 4.4754C185.634 4.50377 185.913 4.54247 186.189 4.58116C186.465 4.61985 186.744 4.67145 187.017 4.72304C187.29 4.77463 187.577 4.79526 187.848 4.85975C188.119 4.92424 188.382 5.03774 188.65 5.11513C188.918 5.19252 189.184 5.2828 189.45 5.37051C189.715 5.45821 189.994 5.51754 190.254 5.61557C190.515 5.71359 190.755 5.8761 191.01 5.98702C191.268 6.09794 191.531 6.19339 191.781 6.31721C192.032 6.44103 192.269 6.59064 192.514 6.72478C192.762 6.86149 193.033 6.95952 193.272 7.10655C193.512 7.25359 193.724 7.45221 193.956 7.61215C194.191 7.77208 194.454 7.89074 194.678 8.06099C194.905 8.23124 195.096 8.44535 195.315 8.62334C195.535 8.80133 195.754 8.9819 195.963 9.1702C196.172 9.36109 196.412 9.52102 196.613 9.71965C196.814 9.91828 196.964 10.1685 197.155 10.3749C197.346 10.5812 197.542 10.7876 197.725 11.0017C197.908 11.2158 198.119 11.4093 198.292 11.6337C198.465 11.8581 198.584 12.1212 198.749 12.3508C198.914 12.5804 199.11 12.7893 199.262 13.0267C199.414 13.264 199.577 13.4987 199.719 13.7438C199.861 13.9888 199.93 14.2726 200.062 14.5228C200.193 14.773 200.382 14.9949 200.506 15.2502C200.629 15.5056 200.743 15.7636 200.854 16.0241C200.965 16.2846 201.06 16.5529 201.158 16.816C201.256 17.0791 201.349 17.35 201.437 17.6183C201.525 17.8865 201.641 18.1497 201.718 18.4205C201.795 18.6914 201.865 18.97 201.93 19.2434C201.994 19.5168 202.04 19.8006 202.089 20.0792C202.138 20.3578 202.146 20.6441 202.185 20.9253C202.224 21.2064 202.218 21.4902 202.244 21.7714C202.27 22.0525 202.314 22.3337 202.324 22.6149C202.334 22.9193 202.309 23.252 202.224 23.5461C202.133 23.8634 201.989 24.1549 201.69 24.289C201.403 24.418 201.068 24.3406 200.764 24.2632C200.48 24.191 200.217 24.0852 199.956 23.9692C199.696 23.8531 199.414 23.7576 199.177 23.5977C198.94 23.4378 198.705 23.2624 198.488 23.0689C198.272 22.8754 198.076 22.6665 197.885 22.4498C197.694 22.2331 197.518 22.0061 197.348 21.7714C197.178 21.5366 197.005 21.3071 196.853 21.062C196.701 20.8169 196.577 20.5564 196.438 20.301C196.298 20.0456 196.213 19.767 196.087 19.5091C195.96 19.2511 195.764 19.0216 195.648 18.761C195.532 18.5005 195.455 18.1677 195.344 17.9072C195.228 18.1806 195.042 18.4463 194.823 18.6295C194.604 18.8126 194.364 18.9983 194.085 19.0912C193.806 19.1841 193.51 19.2434 193.218 19.2486C192.927 19.2537 192.638 19.1505 192.362 19.0706C192.086 18.9906 191.797 18.9081 191.542 18.7662C191.289 18.6243 191.049 18.4541 190.819 18.2709C190.59 18.0878 190.399 17.8685 190.19 17.6621C189.981 17.4558 189.767 17.2571 189.573 17.0405C189.388 16.8341 189.184 16.6458 189.006 16.4343C188.828 16.2227 188.689 15.9777 188.516 15.7636C188.343 15.5495 188.168 15.3354 188 15.1161C187.832 14.8968 187.688 14.6595 187.525 14.4377C187.363 14.2158 187.182 14.0017 187.027 13.7747C186.87 13.5477 186.723 13.313 186.573 13.0808C186.424 12.8487 186.256 12.6629 186.112 12.4256C185.926 12.6191 185.758 12.779 185.562 12.9415C185.358 13.1118 185.118 13.2253 184.904 13.3697C184.69 13.5142 184.505 13.7128 184.28 13.8444C184.056 13.9785 183.8 14.0533 183.573 14.1823L183.594 14.1875Z" fill="#97928C"/>
<path d="M187.128 22.4061C186.589 22.1068 185.993 21.9082 185.39 21.7818C185.098 21.7199 184.802 21.689 184.505 21.6812C184.208 21.6735 183.896 21.6528 183.607 21.6915C183.318 21.7302 183.04 21.6245 182.957 21.3227C182.89 21.075 183.042 20.7113 183.326 20.6726C184.791 20.4714 186.367 20.7758 187.657 21.4955C187.905 21.6348 187.987 21.9753 187.845 22.2178C187.704 22.4602 187.373 22.5454 187.123 22.4061H187.128Z" fill="#2B2927"/>
<path d="M184.741 27.7549C184.946 27.0399 184.733 26.352 184.266 26.2183C183.799 26.0847 183.254 26.5559 183.05 27.2709C182.845 27.9858 183.058 28.6738 183.525 28.8074C183.992 28.9411 184.536 28.4699 184.741 27.7549Z" fill="#2B2927"/>
<path d="M193.424 30.2388C193.629 29.5238 193.416 28.8359 192.949 28.7022C192.482 28.5685 191.937 29.0398 191.733 29.7548C191.528 30.4697 191.741 31.1577 192.208 31.2913C192.675 31.425 193.22 30.9538 193.424 30.2388Z" fill="#2B2927"/>
<path d="M187.329 35.8224C186.976 35.6676 186.635 35.5077 186.274 35.3735C185.915 35.242 185.552 35.1929 185.183 35.1104C184.835 35.0304 184.502 34.9221 184.143 34.8937C183.741 34.8628 183.344 34.855 182.941 34.837C182.657 34.8241 182.412 34.6022 182.412 34.3082C182.412 34.0321 182.655 33.769 182.941 33.7793C183.369 33.7974 183.795 33.8051 184.223 33.8413C184.651 33.8774 185.046 33.9934 185.461 34.0889C185.877 34.1843 186.246 34.2359 186.627 34.3804C187.048 34.5403 187.448 34.7286 187.86 34.9066C188.121 35.0201 188.18 35.4045 188.049 35.6289C187.891 35.8997 187.59 35.9333 187.326 35.8172L187.329 35.8224Z" fill="#A55535"/>
<path d="M189.31 32.7012C189.339 33.1732 189.308 33.6608 189.264 34.1302C189.22 34.5997 189.153 35.0666 189.057 35.5284C189.019 35.7141 188.799 35.8224 188.624 35.7734C188.43 35.7192 188.34 35.5284 188.379 35.3401C188.467 34.9222 188.529 34.5017 188.565 34.0761C188.603 33.6246 188.632 33.1552 188.606 32.7012C188.596 32.5103 188.776 32.3503 188.957 32.3503C189.155 32.3503 189.297 32.5129 189.308 32.7012H189.31Z" fill="#BC7F6C"/>
<path d="M175.334 8.05333C175.169 8.11008 174.996 8.34224 174.886 8.49444C174.713 8.73433 174.532 8.95876 174.315 9.16254C173.861 9.59075 173.444 10.0525 173.013 10.5039C172.806 10.718 172.628 10.945 172.443 11.1772C172.257 11.4093 172.04 11.577 171.826 11.7705C171.599 11.9768 171.406 12.2193 171.199 12.4463C170.993 12.6733 170.838 12.9261 170.637 13.1531C170.449 13.3672 170.085 13.3466 169.891 13.1531C169.68 12.9416 169.701 12.6192 169.891 12.4076C170.093 12.1832 170.25 11.9253 170.454 11.7008C170.668 11.4661 170.872 11.2133 171.109 11.0018C171.318 10.8135 171.532 10.6458 171.707 10.4214C171.922 10.1479 172.141 9.89256 172.381 9.64234C172.819 9.18576 173.26 8.73691 173.704 8.29065C173.916 8.07913 174.065 7.81859 174.264 7.59417C174.483 7.34653 174.738 7.1479 175.053 7.03956C175.321 6.9467 175.631 7.14532 175.703 7.40844C175.783 7.69735 175.605 7.96562 175.334 8.05849V8.05333Z" fill="#7C7670"/>
<path d="M177.517 11.7963C177.163 12.0697 176.797 12.3303 176.459 12.6243C176.289 12.7714 176.111 12.9184 175.912 13.0293C175.714 13.1402 175.513 13.2099 175.322 13.3182C174.953 13.522 174.635 13.8006 174.256 13.9967C173.833 14.2159 173.4 14.4094 172.964 14.6003C172.703 14.7164 172.396 14.6751 172.242 14.412C172.11 14.1875 172.169 13.8058 172.43 13.6897C172.843 13.5065 173.25 13.3286 173.653 13.1222C173.846 13.0216 174.04 12.9261 174.218 12.7997C174.396 12.6733 174.545 12.5469 174.723 12.4412C175.053 12.2451 175.415 12.1342 175.709 11.8788C176.047 11.5848 176.413 11.3242 176.766 11.0508C176.991 10.8754 177.292 10.8315 177.512 11.0508C177.692 11.2314 177.739 11.6209 177.512 11.7963H177.517Z" fill="#7C7670"/>
</g>
<defs>
<clipPath id="clip0_1598_10001">
<rect width="225" height="162" fill="white" transform="translate(47.5)"/>
</clipPath>
<clipPath id="clip1_1598_10001">
<rect width="31.37" height="40" fill="white" transform="translate(199.739 89.344)"/>
</clipPath>
</defs>
</svg>
