<svg width="320" height="162" viewBox="0 0 320 162" fill="none" xmlns="http://www.w3.org/2000/svg">
<path d="M265.093 21.8203H54.9068C50.8161 21.8203 47.5 24.6618 47.5 28.167V155.653C47.5 159.159 50.8161 162 54.9068 162H265.093C269.184 162 272.5 159.159 272.5 155.653V28.167C272.5 24.6618 269.184 21.8203 265.093 21.8203Z" fill="#EDE6DF"/>
<path d="M201.328 142.619C201.883 152.432 191.633 153.197 179.673 153.197C167.714 153.197 156.078 151.454 158.019 142.619C159.274 136.912 167.714 132.042 179.673 132.042C191.633 132.042 200.997 136.789 201.328 142.619Z" fill="white"/>
<path d="M177.437 80.6326C162.348 80.6326 149.604 87.914 149.604 100.132C149.604 108.681 155.846 117.385 164.763 121.839V133.954C164.763 141.634 170.981 147.859 178.65 147.859H180.943C188.612 147.859 194.829 141.634 194.829 133.954V121.817C194.829 121.025 194.759 120.307 194.632 119.649C200.364 115.578 204.06 109.505 204.76 102.758C206.145 89.354 192.526 80.6361 177.437 80.6361V80.6326Z" fill="#BBBBBB"/>
<path d="M214.018 62.0736C212.362 87.0761 208.336 96.2482 193.021 90.1288C175.963 83.3086 172.025 77.5694 172.025 62.0736C172.025 46.5778 177.458 32.853 193.021 34.0184C212.693 35.4902 215.045 46.613 214.018 62.0736Z" fill="#A4A5A5"/>
<path d="M173.973 111.1C191.261 111.1 205.277 105.537 205.277 98.6741C205.277 91.8116 191.261 86.2485 173.973 86.2485C156.685 86.2485 142.669 91.8116 142.669 98.6741C142.669 105.537 156.685 111.1 173.973 111.1Z" fill="#A4A5A5"/>
<path d="M182.929 82.5937C181.856 82.1782 180.654 82.7134 180.239 83.7873C179.824 84.8612 180.358 86.0654 181.431 86.4809L200.388 93.8186C200.655 92.5792 201.113 91.2095 201.883 89.9314L182.929 82.5937Z" fill="#B9C3C6"/>
<path d="M207.805 92.2201L201.883 89.928C201.113 91.2061 200.656 92.5758 200.389 93.8151L206.307 96.1073C207.379 96.5228 208.582 95.9876 208.997 94.9137C209.412 93.8398 208.877 92.6356 207.805 92.2201Z" fill="#A4A5A5"/>
<path d="M193.24 96.5123C193.405 100.329 184.913 103.797 174.272 104.255C163.631 104.713 154.872 101.991 154.71 98.1742C154.545 94.3575 163.037 90.8893 173.678 90.4316C184.319 89.9738 193.078 92.6956 193.24 96.5123Z" fill="white"/>
<path d="M105.525 65.7178H98.647V140.278H105.525V65.7178Z" fill="#939296"/>
<path d="M147.431 61.489H98.0316C96.7925 61.489 95.7881 62.4948 95.7881 63.7354V67.7035C95.7881 68.9442 96.7925 69.9499 98.0316 69.9499H147.431C148.67 69.9499 149.674 68.9442 149.674 67.7035V63.7354C149.674 62.4948 148.67 61.489 147.431 61.489Z" fill="#63615F"/>
<path d="M110.821 61.4891C110.821 61.4891 116.173 60.894 116.894 62.7214C117.615 64.5488 117.657 67.8656 116.173 70.2915C114.689 72.7175 118.255 73.6083 119.953 70.9711C119.953 70.9711 124.496 69.2071 125.984 66.9853C127.471 64.7636 125.657 59.3906 125.657 59.3906C125.657 59.3906 122.077 56.8555 120.846 56.8555C119.615 56.8555 118.979 57.3238 118.979 57.3238C118.979 57.3238 115.413 57.0245 114.436 58.1301C113.458 59.2356 111.123 59.2357 110.828 61.4891H110.821Z" fill="#EBBEA7"/>
<path d="M117.488 59.4037C117.488 59.4037 116.546 58.7743 113.557 58.7708L117.488 59.4037Z" fill="#A55535"/>
<path d="M120.716 57.9987C120.716 57.9987 120.29 57.3517 118.975 57.3201L120.716 57.9987Z" fill="#A55535"/>
<path d="M174.308 104.05C174.308 104.05 198.002 99.2091 193.757 84.2414L171.421 81.2627L164.458 83.6605L174.311 104.05H174.308Z" fill="#EBBEA7"/>
<path d="M129.247 131.035C129.247 131.035 123.551 137.961 120.945 138.01L121.261 141.82C121.261 141.82 138.2 142.922 140.929 141.109C143.658 139.296 140.961 132.472 140.961 132.472L129.247 131.035Z" fill="#EBBEA7"/>
<path d="M143.542 142.384C143.514 141.472 142.754 140.753 141.843 140.781C141.843 140.781 129.202 141.391 129.23 140.979C129.43 138.211 126.715 136.676 123.266 135.849C118.919 134.806 113.43 141.676 114.935 143.767C115.466 144.507 115.804 144.838 116.715 144.809L141.942 144.081C142.852 144.052 143.57 143.292 143.542 142.38V142.384Z" fill="#94868C"/>
<path d="M142.923 135.004C142.923 135.004 137.318 142.912 134.515 143.169L135.152 147.25C135.152 147.25 153.497 147.123 156.3 144.954C159.102 142.785 155.663 135.641 155.663 135.641L142.923 135.004Z" fill="#EBBEA7"/>
<path d="M159.215 146.126C159.116 145.144 158.24 144.429 157.259 144.531C157.259 144.531 143.679 146.168 143.679 145.725C143.679 142.725 140.634 141.281 136.85 140.658C132.082 139.873 126.701 147.704 128.481 149.841C129.11 150.598 129.5 150.929 130.478 150.827L157.618 148.08C158.599 147.982 159.313 147.105 159.211 146.123L159.215 146.126Z" fill="#94868C"/>
<path d="M152.987 76.4321C152.987 76.4321 175.791 79.5165 177.064 104.646C177.064 104.646 173.305 107.452 166.778 107.068L165.154 108.343L163.051 107.068C163.051 107.068 162.017 110.638 159.222 109.621L157.537 137.303C157.537 137.303 145.089 143.426 139.231 134.37V131.437C139.231 131.437 131.206 135.518 125.98 129.905C125.98 129.905 127.127 93.4244 131.712 89.4703C136.298 85.5163 139.994 81.8967 152.987 76.4356V76.4321Z" fill="#BFB7B7"/>
<path d="M153.627 33.2121C153.627 33.2121 165.731 24.0294 179.87 29.001C194.01 33.9762 179.87 83.4847 179.87 83.4847C179.87 83.4847 160.378 88.3366 151.208 73.4006L153.627 33.2086V33.2121Z" fill="white"/>
<path d="M165.365 32.7614C164.718 35.05 162.724 36.4936 160.913 35.9796C159.102 35.4655 158.16 33.1945 158.807 30.9023C159.454 28.6102 161.447 27.1701 163.258 27.6842C165.069 28.1982 166.012 30.4693 165.365 32.7614Z" fill="#EBBEA7"/>
<path d="M158.81 30.8987L154.647 70.7139L155.086 71.2737C155.667 72.0132 155.74 73.0342 155.269 73.8511L154.647 74.925V76.1996C154.647 76.1996 152.097 76.3264 151.208 77.2207C150.314 78.115 145.986 80.0269 145.986 80.0269C145.986 80.0269 146.749 67.1436 147.769 63.4431L124.964 67.7809C124.964 67.7809 121.268 61.1474 126.237 59.1052C131.206 57.0631 140.377 54.6406 140.377 54.6406C140.377 54.6406 144.326 38.6941 147.892 35.6344C151.457 32.5747 158.807 30.8987 158.807 30.8987H158.81Z" fill="#8DB579"/>
<path d="M171.716 27.5257C171.716 27.5257 164.201 35.381 167.13 47.2431L163.818 54.0034L142.926 52.345L141.144 60.5102L167.514 66.1226C167.514 66.1226 170.316 66.7599 171.719 65.3586L168.685 83.9846C168.685 83.9846 183.696 91.2519 198.346 84.2381C198.346 84.2381 196.887 39.1167 181.309 29.7228C181.309 29.7228 175.587 27.3179 171.719 27.5257H171.716Z" fill="#8DB579"/>
<path d="M163.817 54.0034C163.817 54.0034 168.913 54.6407 169.743 57.3202L163.817 54.0034Z" fill="#699055"/>
<path d="M163.051 54.6406C163.051 54.6406 165.47 56.299 165.727 59.1052L163.051 54.6406Z" fill="#699055"/>
<path d="M171.715 34.2332C171.715 34.2332 169.366 38.5287 170.221 41.0991L171.715 34.2332Z" fill="#699055"/>
<path d="M161.683 42.5885C162.334 42.5885 162.861 42.0605 162.861 41.409C162.861 40.7576 162.334 40.2295 161.683 40.2295C161.032 40.2295 160.505 40.7576 160.505 41.409C160.505 42.0605 161.032 42.5885 161.683 42.5885Z" fill="white"/>
<path d="M162.087 45.3841C162.087 46.0355 161.56 46.5636 160.909 46.5636C160.259 46.5636 159.731 46.0355 159.731 45.3841C159.731 44.7327 160.259 44.2046 160.909 44.2046C161.56 44.2046 162.087 44.7327 162.087 45.3841Z" fill="white"/>
<g opacity="0.37">
<path d="M151.085 87.2062C151.042 87.2414 151.064 87.2695 151.021 87.3047C150.979 87.34 151.014 87.3822 150.972 87.4174C150.93 87.4526 150.912 87.435 150.87 87.4702C150.828 87.5054 150.846 87.5266 150.803 87.5653C150.761 87.6005 150.733 87.5688 150.691 87.6075C150.649 87.6428 150.617 87.6075 150.575 87.6463C150.533 87.685 150.575 87.7273 150.529 87.766C150.487 87.8012 150.501 87.8188 150.459 87.854C150.417 87.8927 150.42 87.8963 150.381 87.935C150.343 87.9737 150.297 87.9244 150.255 87.9632C150.213 88.0019 150.213 88.0019 150.174 88.0406C150.135 88.0794 150.132 88.0794 150.093 88.1181C150.051 88.1568 150.04 88.1427 149.998 88.1815C149.956 88.2202 149.963 88.2272 149.921 88.266C149.878 88.3047 149.861 88.2836 149.819 88.3223C149.777 88.361 149.819 88.4033 149.773 88.4385C149.727 88.4737 149.706 88.4455 149.664 88.4843C149.622 88.523 149.653 88.5547 149.611 88.5934C149.583 88.6192 149.555 88.6439 149.527 88.6674C149.485 88.7061 149.46 88.6779 149.418 88.7167C149.376 88.7554 149.386 88.7624 149.344 88.8012C149.302 88.8399 149.316 88.8505 149.274 88.8892C149.246 88.915 149.219 88.9408 149.193 88.9666C149.151 89.0054 149.112 88.9631 149.07 88.9983C149.028 89.0371 149.042 89.0511 149.003 89.0899C148.964 89.1286 149.003 89.1709 148.961 89.2096C148.918 89.2483 148.88 89.2025 148.838 89.2413C148.795 89.28 148.824 89.3082 148.785 89.3469C148.743 89.3856 148.704 89.3434 148.662 89.3821C148.634 89.4079 148.607 89.4338 148.581 89.4596C148.539 89.4983 148.602 89.5617 148.56 89.6004C148.534 89.6262 148.507 89.6521 148.479 89.6779C148.437 89.7166 148.38 89.6532 148.338 89.692C148.296 89.7307 148.359 89.7976 148.321 89.8363C148.279 89.8751 148.271 89.8645 148.229 89.9032C148.187 89.942 148.159 89.9103 148.117 89.949C148.075 89.9877 148.103 90.0159 148.06 90.0546C148.018 90.0898 148.018 90.0934 147.976 90.1286C147.937 90.1673 147.927 90.1567 147.888 90.1955C147.849 90.2342 147.835 90.2201 147.793 90.2588C147.751 90.2976 147.779 90.3222 147.737 90.361C147.698 90.3997 147.646 90.3469 147.603 90.3856C147.565 90.4243 147.603 90.4666 147.561 90.5053C147.522 90.544 147.494 90.5159 147.452 90.5546C147.413 90.5933 147.466 90.6497 147.424 90.6884C147.385 90.7271 147.347 90.6884 147.308 90.7271C147.269 90.7659 147.248 90.7447 147.206 90.7835C147.167 90.8222 147.217 90.8715 147.174 90.9102C147.132 90.949 147.108 90.9208 147.069 90.963C147.03 91.0018 147.016 90.9912 146.977 91.0299C146.939 91.0722 146.939 91.0722 146.904 91.1144C146.865 91.1532 146.904 91.1919 146.861 91.2306C146.823 91.2694 146.773 91.2201 146.731 91.2588C146.693 91.2975 146.731 91.3398 146.693 91.3785C146.654 91.4172 146.668 91.4313 146.629 91.4736C146.591 91.5123 146.587 91.5123 146.548 91.551C146.51 91.5898 146.453 91.5334 146.415 91.5757C146.376 91.6179 146.404 91.6461 146.366 91.6848C146.34 91.7107 146.314 91.7377 146.288 91.7658C146.25 91.8046 146.285 91.8398 146.246 91.8785C146.207 91.9172 146.144 91.8574 146.105 91.8996C146.067 91.9383 146.126 91.9982 146.084 92.0369C146.046 92.0757 146.017 92.051 145.979 92.0898C145.94 92.1285 145.905 92.0968 145.866 92.139C145.828 92.1813 145.835 92.1883 145.796 92.2271C145.757 92.2693 145.771 92.2834 145.733 92.3221C145.694 92.3644 145.704 92.3714 145.666 92.4137C145.627 92.4559 145.61 92.4383 145.571 92.4771C145.532 92.5193 145.585 92.5686 145.546 92.6109C145.508 92.6531 145.49 92.6355 145.451 92.6778C145.413 92.72 145.363 92.6742 145.325 92.713C145.299 92.7411 145.273 92.7681 145.247 92.794C145.209 92.8362 145.258 92.882 145.219 92.9207C145.18 92.963 145.177 92.9559 145.138 92.9982C145.1 93.0404 145.089 93.0298 145.05 93.0721C145.012 93.1144 145.047 93.146 145.008 93.1883C144.97 93.2306 144.924 93.1883 144.889 93.2305C144.853 93.2728 144.853 93.2728 144.815 93.315C144.776 93.3573 144.794 93.3714 144.759 93.4136C144.723 93.4559 144.709 93.4453 144.671 93.4876C144.632 93.5298 144.618 93.5157 144.579 93.558C144.54 93.6002 144.59 93.6425 144.551 93.6812C144.512 93.7235 144.453 93.6707 144.417 93.7129C144.382 93.7552 144.428 93.7974 144.393 93.8397C144.367 93.8678 144.342 93.896 144.319 93.9242C144.284 93.9664 144.256 93.9453 144.22 93.9876C144.185 94.0298 144.22 94.058 144.182 94.1038C144.147 94.146 144.09 94.1038 144.055 94.1425C144.02 94.1847 144.055 94.2199 144.024 94.2622C143.992 94.3044 143.981 94.3009 143.943 94.3432C143.908 94.3854 143.865 94.3537 143.83 94.396C143.795 94.4382 143.862 94.4946 143.83 94.5404C143.795 94.5826 143.763 94.558 143.728 94.6002C143.693 94.6425 143.711 94.6601 143.675 94.7023C143.64 94.7446 143.616 94.727 143.581 94.7727C143.545 94.815 143.528 94.8044 143.493 94.8467C143.457 94.8924 143.486 94.9136 143.45 94.9558C143.415 94.9981 143.391 94.9805 143.355 95.0262C143.32 95.072 143.341 95.0861 143.306 95.1319C143.271 95.1741 143.306 95.2023 143.268 95.2445C143.229 95.2868 143.169 95.2375 143.134 95.2833C143.099 95.329 143.123 95.3467 143.092 95.3924C143.06 95.4382 143.06 95.4417 143.028 95.4875C142.993 95.5333 142.972 95.5157 142.937 95.5614C142.902 95.6072 142.962 95.653 142.93 95.6952C142.895 95.741 142.846 95.7023 142.814 95.748C142.779 95.7938 142.779 95.7938 142.744 95.8361C142.708 95.8818 142.765 95.9206 142.73 95.9663C142.694 96.0121 142.645 95.9734 142.61 96.0192C142.578 96.0649 142.603 96.0896 142.571 96.1389C142.54 96.1917 142.561 96.2058 142.533 96.2586C142.501 96.3114 142.494 96.3044 142.462 96.3572C142.431 96.41 142.385 96.3854 142.353 96.4382C142.322 96.491 142.378 96.5191 142.35 96.572C142.329 96.6248 142.315 96.6213 142.293 96.6741C142.272 96.7269 142.223 96.7058 142.199 96.7586C142.174 96.8114 142.174 96.8114 142.149 96.8642C142.128 96.917 142.142 96.9241 142.121 96.9804C142.1 97.0332 142.146 97.0543 142.121 97.1072C142.1 97.16 142.033 97.1388 142.016 97.1916C141.998 97.248 142.009 97.2515 141.991 97.3043C141.973 97.3607 142.026 97.3783 142.009 97.4311C141.991 97.4839 141.956 97.4733 141.938 97.5297C141.921 97.586 141.886 97.5719 141.868 97.6282C141.85 97.6846 141.907 97.7022 141.889 97.755C141.872 97.8078 141.889 97.8149 141.875 97.8712C141.857 97.924 141.829 97.917 141.815 97.9733C141.801 98.0296 141.762 98.0156 141.748 98.0719C141.734 98.1282 141.77 98.1353 141.755 98.1916C141.741 98.2479 141.699 98.2339 141.685 98.2902C141.671 98.3465 141.71 98.3571 141.696 98.4099C141.682 98.4627 141.682 98.4662 141.664 98.5191C141.65 98.5754 141.618 98.5648 141.604 98.6212C141.59 98.6775 141.657 98.6916 141.643 98.7479C141.629 98.8043 141.576 98.7902 141.562 98.8465C141.552 98.9028 141.527 98.8958 141.513 98.9521C141.502 99.0085 141.566 99.0226 141.555 99.0789C141.544 99.1352 141.495 99.1247 141.485 99.1775C141.474 99.2303 141.513 99.2409 141.502 99.2972C141.492 99.3535 141.502 99.3535 141.488 99.4099C141.478 99.4662 141.45 99.4592 141.435 99.5155C141.421 99.5718 141.393 99.5648 141.379 99.6176C141.369 99.6739 141.369 99.6739 141.358 99.7303C141.348 99.7866 141.407 99.7972 141.397 99.8535C141.386 99.9098 141.319 99.8958 141.309 99.9521C141.298 100.008 141.337 100.015 141.326 100.072C141.316 100.128 141.302 100.125 141.291 100.181C141.281 100.237 141.316 100.244 141.305 100.297C141.295 100.353 141.224 100.339 141.214 100.396C141.203 100.452 141.27 100.463 141.26 100.519C141.249 100.575 141.196 100.565 141.186 100.621C141.175 100.677 141.154 100.674 141.144 100.727C141.133 100.783 141.158 100.787 141.147 100.843C141.137 100.899 141.2 100.91 141.189 100.966C141.179 101.022 141.14 101.015 141.13 101.068C141.119 101.125 141.073 101.114 141.063 101.17C141.052 101.227 141.091 101.234 141.084 101.287C141.077 101.339 141.13 101.35 141.119 101.406C141.108 101.463 141.077 101.456 141.066 101.512C141.056 101.568 141.028 101.561 141.017 101.618C141.006 101.674 141.017 101.674 141.01 101.73C140.999 101.787 140.989 101.783 140.978 101.839C140.968 101.896 140.978 101.896 140.968 101.952C140.957 102.008 140.94 102.005 140.929 102.061C140.919 102.117 140.968 102.125 140.961 102.181C140.95 102.234 140.95 102.237 140.94 102.29C140.933 102.346 140.964 102.35 140.957 102.406C140.95 102.463 140.929 102.459 140.919 102.515C140.908 102.568 140.908 102.572 140.897 102.625C140.89 102.681 140.897 102.681 140.89 102.737C140.883 102.794 140.883 102.794 140.876 102.85C140.869 102.906 140.831 102.899 140.824 102.955C140.817 103.012 140.802 103.008 140.795 103.065C140.788 103.121 140.824 103.125 140.817 103.181C140.81 103.237 140.827 103.241 140.82 103.294C140.813 103.346 140.785 103.346 140.778 103.399C140.771 103.455 140.718 103.448 140.711 103.505C140.704 103.561 140.746 103.565 140.739 103.621C140.732 103.677 140.771 103.681 140.764 103.737C140.757 103.793 140.718 103.786 140.711 103.843C140.704 103.899 140.753 103.906 140.746 103.959C140.739 104.012 140.708 104.012 140.697 104.065C140.69 104.121 140.672 104.117 140.662 104.174C140.655 104.23 140.683 104.234 140.676 104.29C140.669 104.346 140.63 104.339 140.623 104.396C140.616 104.452 140.655 104.455 140.648 104.512C140.641 104.568 140.63 104.565 140.623 104.621C140.616 104.677 140.644 104.681 140.637 104.737C140.63 104.793 140.588 104.786 140.581 104.843C140.574 104.899 140.567 104.899 140.56 104.952C140.553 105.008 140.535 105.005 140.528 105.061C140.521 105.117 140.584 105.124 140.581 105.181C140.574 105.237 140.549 105.234 140.546 105.29C140.542 105.346 140.49 105.339 140.486 105.396C140.479 105.452 140.486 105.452 140.486 105.508C140.479 105.565 140.479 105.565 140.475 105.621C140.468 105.677 140.504 105.681 140.497 105.737C140.49 105.793 140.49 105.793 140.482 105.85C140.475 105.906 140.465 105.903 140.458 105.959C140.451 106.015 140.49 106.019 140.482 106.075C140.475 106.131 140.416 106.124 140.412 106.181C140.405 106.237 140.482 106.244 140.475 106.3C140.471 106.338 140.467 106.376 140.465 106.413C140.458 106.469 140.44 106.466 140.437 106.522C140.433 106.579 140.388 106.575 140.384 106.628C140.381 106.681 140.433 106.688 140.426 106.744C140.419 106.8 140.398 106.797 140.395 106.853C140.388 106.91 140.356 106.906 140.352 106.962C140.345 107.019 140.377 107.022 140.373 107.079C140.37 107.135 140.381 107.135 140.373 107.191C140.369 107.229 140.364 107.266 140.359 107.304C140.352 107.36 140.289 107.353 140.286 107.41C140.282 107.466 140.328 107.469 140.321 107.526C140.314 107.582 140.261 107.575 140.257 107.631C140.25 107.688 140.293 107.691 140.289 107.748C140.282 107.804 140.314 107.807 140.31 107.864C140.303 107.92 140.229 107.913 140.222 107.969C140.215 108.026 140.3 108.033 140.296 108.089C140.289 108.145 140.236 108.138 140.229 108.195C140.222 108.251 140.279 108.255 140.275 108.311C140.268 108.367 140.279 108.367 140.275 108.424C140.268 108.48 140.257 108.476 140.25 108.533C140.243 108.589 140.236 108.589 140.233 108.642C140.226 108.698 140.219 108.698 140.215 108.751L140.205 108.864C140.198 108.92 140.131 108.913 140.124 108.969C140.117 109.026 140.194 109.033 140.191 109.089C140.184 109.145 140.162 109.142 140.155 109.198C140.152 109.255 140.177 109.258 140.17 109.311C140.166 109.367 140.124 109.364 140.12 109.42C140.117 109.476 140.078 109.473 140.071 109.529C140.068 109.585 140.159 109.593 140.155 109.649C140.152 109.705 140.082 109.698 140.075 109.754C140.075 109.811 140.075 109.811 140.068 109.867C140.061 109.924 140.061 109.924 140.053 109.98C140.05 110.036 140.078 110.04 140.071 110.093C140.066 110.13 140.063 110.168 140.061 110.205C140.057 110.262 140.071 110.262 140.068 110.318C140.064 110.374 140.082 110.374 140.075 110.431C140.068 110.487 140.057 110.487 140.053 110.54C140.05 110.592 140.018 110.592 140.015 110.649C140.011 110.705 139.976 110.702 139.973 110.758C139.969 110.814 140.032 110.818 140.025 110.874C140.022 110.931 139.98 110.927 139.973 110.983C139.969 111.04 140.011 111.043 140.008 111.1C140.004 111.156 139.934 111.149 139.93 111.205C139.927 111.261 139.976 111.265 139.973 111.321C139.969 111.378 139.99 111.378 139.987 111.434C139.983 111.49 139.937 111.487 139.93 111.543C139.928 111.581 139.926 111.618 139.923 111.656C139.92 111.712 139.973 111.716 139.969 111.772C139.966 111.828 139.944 111.825 139.941 111.881C139.937 111.938 139.966 111.938 139.962 111.994C139.959 112.05 139.944 112.05 139.941 112.103C139.941 112.159 139.941 112.159 139.937 112.216C139.934 112.272 139.92 112.272 139.916 112.325C139.913 112.381 139.895 112.381 139.892 112.434C139.888 112.49 139.874 112.49 139.871 112.543C139.867 112.599 139.839 112.596 139.835 112.652C139.832 112.709 139.825 112.709 139.821 112.765C139.818 112.821 139.885 112.825 139.881 112.881C139.878 112.937 139.821 112.934 139.814 112.99C139.811 113.047 139.86 113.05 139.853 113.106C139.85 113.163 139.828 113.159 139.825 113.216C139.821 113.272 139.839 113.272 139.835 113.328C139.832 113.385 139.86 113.385 139.857 113.441C139.853 113.497 139.839 113.497 139.835 113.554C139.832 113.61 139.772 113.606 139.765 113.663C139.762 113.719 139.825 113.723 139.821 113.779C139.818 113.835 139.73 113.828 139.726 113.885C139.723 113.941 139.737 113.941 139.733 113.997C139.73 114.054 139.79 114.057 139.786 114.113C139.783 114.17 139.765 114.17 139.762 114.223C139.758 114.275 139.776 114.279 139.772 114.335C139.769 114.392 139.73 114.388 139.726 114.444C139.723 114.501 139.737 114.501 139.733 114.557C139.733 114.613 139.733 114.613 139.726 114.67C139.723 114.726 139.748 114.726 139.744 114.782C139.741 114.839 139.712 114.835 139.709 114.892C139.705 114.948 139.737 114.948 139.733 115.004C139.73 115.061 139.66 115.057 139.656 115.11C139.653 115.166 139.719 115.17 139.716 115.226C139.712 115.282 139.698 115.282 139.695 115.335C139.691 115.392 139.628 115.388 139.624 115.444C139.621 115.501 139.709 115.508 139.705 115.561C139.702 115.613 139.624 115.61 139.621 115.666C139.617 115.723 139.681 115.726 139.677 115.782C139.674 115.839 139.642 115.835 139.639 115.892C139.635 115.948 139.6 115.944 139.596 116.001C139.593 116.057 139.674 116.061 139.67 116.117C139.667 116.173 139.66 116.173 139.656 116.23C139.653 116.286 139.589 116.282 139.586 116.339C139.582 116.395 139.624 116.399 139.621 116.455C139.621 116.492 139.619 116.53 139.614 116.568C139.61 116.624 139.589 116.624 139.586 116.677C139.582 116.733 139.593 116.733 139.589 116.789C139.586 116.846 139.596 116.846 139.593 116.902C139.593 116.958 139.568 116.958 139.565 117.011C139.561 117.064 139.572 117.068 139.565 117.124C139.565 117.18 139.505 117.177 139.501 117.233C139.501 117.289 139.544 117.293 139.54 117.349C139.54 117.406 139.554 117.406 139.551 117.462C139.551 117.518 139.53 117.518 139.526 117.571C139.526 117.609 139.524 117.646 139.519 117.684C139.519 117.74 139.544 117.74 139.54 117.796C139.54 117.853 139.501 117.849 139.498 117.906C139.498 117.962 139.459 117.958 139.456 118.015C139.452 118.071 139.537 118.075 139.537 118.131C139.537 118.187 139.456 118.184 139.452 118.24C139.452 118.296 139.48 118.296 139.477 118.353C139.477 118.409 139.477 118.409 139.477 118.465C139.477 118.522 139.438 118.518 139.435 118.575C139.435 118.631 139.501 118.634 139.498 118.691C139.498 118.747 139.452 118.744 139.449 118.8C139.449 118.856 139.484 118.86 139.484 118.913C139.484 118.969 139.424 118.965 139.424 119.022C139.417 119.078 139.417 119.078 139.413 119.134C139.413 119.191 139.421 119.191 139.417 119.247C139.413 119.303 139.47 119.307 139.466 119.363C139.463 119.42 139.406 119.416 139.403 119.472C139.399 119.529 139.421 119.529 139.417 119.585C139.417 119.641 139.368 119.638 139.364 119.694C139.364 119.751 139.438 119.754 139.435 119.81C139.435 119.867 139.406 119.863 139.403 119.92C139.403 119.976 139.368 119.972 139.364 120.029C139.364 120.085 139.435 120.089 139.431 120.145C139.431 120.201 139.347 120.198 139.343 120.254C139.336 120.307 139.336 120.31 139.333 120.367C139.333 120.423 139.368 120.423 139.368 120.479C139.368 120.536 139.336 120.532 139.333 120.589C139.329 120.645 139.361 120.645 139.357 120.701C139.354 120.758 139.315 120.754 139.312 120.81C139.308 120.867 139.375 120.87 139.371 120.927C139.368 120.983 139.361 120.983 139.357 121.039C139.357 121.096 139.329 121.096 139.326 121.148C139.326 121.205 139.333 121.205 139.333 121.261C139.329 121.317 139.329 121.317 139.322 121.374C139.315 121.43 139.315 121.43 139.312 121.486C139.312 121.543 139.287 121.543 139.283 121.596C139.28 121.648 139.312 121.652 139.312 121.708C139.312 121.765 139.347 121.765 139.347 121.821C139.347 121.877 139.273 121.874 139.273 121.93C139.273 121.986 139.248 121.986 139.248 122.039C139.248 122.092 139.266 122.096 139.262 122.152C139.259 122.208 139.29 122.208 139.287 122.265C139.283 122.321 139.308 122.321 139.304 122.377C139.304 122.434 139.262 122.43 139.259 122.486C139.259 122.543 139.276 122.543 139.273 122.599C139.269 122.655 139.269 122.655 139.262 122.712C139.262 122.768 139.22 122.765 139.217 122.821C139.213 122.877 139.213 122.877 139.206 122.934C139.206 122.99 139.213 122.99 139.213 123.046C139.213 123.103 139.273 123.106 139.269 123.162C139.269 123.219 139.203 123.215 139.199 123.272C139.199 123.328 139.199 123.328 139.199 123.384C139.199 123.441 139.262 123.444 139.259 123.5C139.255 123.557 139.255 123.557 139.248 123.613C139.248 123.669 139.238 123.669 139.234 123.726C139.234 123.782 139.206 123.782 139.203 123.835C139.203 123.891 139.224 123.891 139.22 123.948C139.22 124.004 139.195 124.004 139.192 124.06C139.192 124.098 139.192 124.135 139.192 124.173C139.192 124.229 139.157 124.226 139.153 124.282C139.153 124.338 139.143 124.338 139.143 124.395C139.143 124.451 139.234 124.455 139.231 124.511C139.231 124.567 139.213 124.567 139.213 124.624C139.213 124.68 139.192 124.68 139.188 124.736C139.185 124.793 139.167 124.793 139.164 124.849C139.16 124.905 139.185 124.905 139.185 124.962C139.185 125.018 139.16 125.018 139.16 125.074C139.16 125.131 139.203 125.131 139.199 125.187C139.199 125.243 139.199 125.243 139.199 125.3C139.199 125.356 139.129 125.352 139.125 125.409C139.122 125.465 139.122 125.465 139.115 125.521C139.115 125.578 139.185 125.581 139.185 125.638C139.185 125.694 139.171 125.694 139.171 125.75C139.167 125.807 139.167 125.807 139.164 125.863C139.164 125.919 139.079 125.916 139.076 125.972C139.076 126.028 139.093 126.028 139.093 126.085C139.093 126.141 139.146 126.145 139.143 126.197C139.143 126.254 139.118 126.254 139.115 126.31C139.115 126.366 139.072 126.363 139.072 126.419C139.072 126.476 139.115 126.476 139.115 126.532C139.115 126.588 139.065 126.585 139.062 126.641C139.062 126.697 139.104 126.697 139.101 126.754C139.101 126.81 139.136 126.81 139.136 126.866C139.136 126.923 139.115 126.923 139.115 126.979C139.115 127.035 139.065 127.032 139.065 127.088C139.065 127.145 139.09 127.145 139.086 127.201C139.086 127.257 139.051 127.257 139.051 127.314C139.051 127.37 139.037 127.37 139.034 127.426C139.03 127.483 139.108 127.486 139.104 127.542C139.104 127.599 139.037 127.595 139.034 127.652C139.034 127.708 139.093 127.711 139.093 127.768C139.093 127.824 139.051 127.824 139.048 127.881C139.048 127.937 139.076 127.937 139.072 127.993C139.072 128.05 139.002 128.046 138.999 128.102C138.999 128.159 139.037 128.159 139.034 128.215C139.034 128.271 139.055 128.271 139.055 128.328C139.055 128.384 139.041 128.384 139.041 128.44C139.041 128.497 139.02 128.497 139.016 128.553C139.016 128.609 138.992 128.609 138.992 128.666C138.992 128.722 139.037 128.722 139.034 128.778C139.03 128.835 138.974 128.831 138.97 128.887C138.97 128.944 138.97 128.944 138.97 129C138.97 129.057 139.051 129.06 139.051 129.116C139.051 129.154 139.051 129.191 139.051 129.229C139.051 129.285 138.992 129.282 138.992 129.338C138.992 129.395 138.992 129.395 138.992 129.451C138.992 129.507 138.956 129.507 138.953 129.564C138.953 129.62 138.992 129.62 138.992 129.676C138.992 129.733 139.027 129.733 139.027 129.789C139.027 129.845 138.981 129.845 138.981 129.902C138.981 129.958 138.981 129.958 138.974 130.014C138.974 130.071 138.974 130.071 138.974 130.127C138.974 130.183 139.013 130.183 139.013 130.24C139.013 130.296 138.963 130.296 138.96 130.352C138.96 130.409 138.928 130.409 138.928 130.465C138.928 130.521 138.988 130.525 138.988 130.581C138.988 130.637 138.956 130.637 138.956 130.694C138.956 130.75 138.939 130.75 138.935 130.806C138.935 130.863 138.942 130.863 138.939 130.919C138.939 130.975 138.974 130.975 138.974 131.032C138.974 131.088 138.992 131.088 138.992 131.144C138.992 131.18 138.956 131.215 138.97 131.247C138.984 131.278 139.03 131.292 139.058 131.32C139.086 131.349 139.111 131.366 139.146 131.38C139.181 131.394 139.213 131.444 139.255 131.444C139.297 131.444 139.343 131.423 139.378 131.412C139.417 131.398 139.47 131.394 139.501 131.37C139.533 131.345 139.494 131.282 139.512 131.25C139.53 131.218 139.537 131.197 139.537 131.162C139.537 131.106 139.568 131.106 139.568 131.053C139.568 130.997 139.53 130.997 139.53 130.94C139.53 130.884 139.628 130.887 139.628 130.831C139.628 130.775 139.561 130.775 139.565 130.718C139.568 130.662 139.551 130.662 139.554 130.606C139.554 130.549 139.61 130.553 139.614 130.497C139.614 130.444 139.614 130.44 139.614 130.384C139.614 130.328 139.572 130.328 139.572 130.271C139.572 130.215 139.558 130.215 139.558 130.159C139.558 130.102 139.568 130.102 139.568 130.046C139.568 129.99 139.596 129.99 139.596 129.937C139.596 129.88 139.656 129.884 139.66 129.828C139.66 129.771 139.568 129.768 139.568 129.715C139.568 129.659 139.635 129.662 139.635 129.606C139.639 129.549 139.639 129.549 139.642 129.493C139.642 129.437 139.61 129.437 139.614 129.38C139.614 129.324 139.603 129.324 139.607 129.268C139.607 129.211 139.684 129.215 139.688 129.159C139.688 129.102 139.656 129.102 139.656 129.046C139.656 128.99 139.621 128.99 139.624 128.933C139.624 128.877 139.684 128.88 139.688 128.824C139.688 128.787 139.689 128.749 139.691 128.711C139.691 128.655 139.649 128.655 139.649 128.599C139.649 128.542 139.635 128.542 139.639 128.486C139.639 128.43 139.705 128.433 139.709 128.377C139.709 128.321 139.646 128.321 139.646 128.264C139.646 128.227 139.648 128.189 139.653 128.152C139.653 128.095 139.628 128.095 139.632 128.039C139.632 127.983 139.702 127.986 139.702 127.93C139.702 127.873 139.698 127.873 139.702 127.817C139.705 127.761 139.674 127.761 139.677 127.704C139.677 127.648 139.719 127.652 139.723 127.595C139.723 127.539 139.684 127.539 139.684 127.483C139.684 127.426 139.684 127.426 139.684 127.37C139.684 127.314 139.716 127.314 139.716 127.261C139.716 127.204 139.716 127.204 139.723 127.148C139.723 127.092 139.681 127.092 139.684 127.035C139.684 126.979 139.674 126.979 139.677 126.923C139.677 126.866 139.702 126.866 139.705 126.814C139.705 126.757 139.765 126.761 139.769 126.704C139.769 126.648 139.733 126.648 139.733 126.592C139.733 126.535 139.733 126.535 139.733 126.479C139.733 126.423 139.726 126.423 139.726 126.366C139.726 126.31 139.705 126.31 139.709 126.254C139.712 126.197 139.723 126.197 139.726 126.145C139.726 126.088 139.793 126.092 139.797 126.036C139.8 125.979 139.8 125.979 139.804 125.923C139.804 125.867 139.73 125.863 139.733 125.807C139.733 125.75 139.748 125.75 139.748 125.697C139.748 125.641 139.772 125.641 139.772 125.588C139.772 125.536 139.751 125.532 139.755 125.476C139.758 125.419 139.8 125.423 139.804 125.367C139.804 125.329 139.805 125.291 139.807 125.254C139.807 125.198 139.79 125.198 139.79 125.141C139.79 125.085 139.832 125.088 139.832 125.032C139.832 124.994 139.833 124.957 139.835 124.919C139.835 124.863 139.85 124.863 139.853 124.81C139.853 124.754 139.828 124.754 139.832 124.698C139.832 124.641 139.807 124.641 139.811 124.585C139.811 124.529 139.811 124.529 139.811 124.472C139.811 124.416 139.825 124.416 139.828 124.36C139.828 124.303 139.797 124.303 139.8 124.247C139.8 124.191 139.874 124.194 139.874 124.138C139.874 124.081 139.86 124.081 139.864 124.025C139.864 123.969 139.888 123.969 139.892 123.916C139.892 123.86 139.804 123.856 139.804 123.8C139.804 123.743 139.86 123.747 139.864 123.691C139.864 123.634 139.835 123.634 139.835 123.578C139.835 123.522 139.818 123.522 139.821 123.465C139.825 123.409 139.916 123.412 139.92 123.36C139.92 123.303 139.885 123.303 139.888 123.247C139.892 123.191 139.92 123.194 139.92 123.138C139.92 123.081 139.909 123.081 139.913 123.025C139.916 122.969 139.92 122.969 139.923 122.912C139.923 122.856 139.846 122.853 139.85 122.796C139.85 122.74 139.92 122.743 139.923 122.687C139.923 122.631 139.955 122.634 139.959 122.578C139.959 122.522 139.923 122.522 139.927 122.465C139.93 122.409 139.913 122.409 139.916 122.353C139.916 122.296 139.916 122.296 139.916 122.24C139.916 122.184 139.934 122.184 139.937 122.131C139.937 122.093 139.939 122.056 139.941 122.018C139.941 121.962 139.952 121.962 139.955 121.905C139.959 121.849 139.93 121.849 139.934 121.793C139.934 121.736 139.927 121.736 139.934 121.68C139.941 121.624 139.997 121.627 140.001 121.571C140.004 121.515 139.923 121.511 139.927 121.455C139.927 121.398 139.923 121.398 139.927 121.342C139.93 121.286 139.955 121.289 139.955 121.233C139.955 121.177 140.011 121.18 140.015 121.124C140.015 121.067 139.941 121.064 139.944 121.008C139.944 120.951 140.018 120.955 140.022 120.898C140.025 120.842 139.987 120.842 139.987 120.786C139.987 120.729 140.046 120.733 140.05 120.677C140.05 120.62 140.001 120.617 140.004 120.564C140.004 120.508 140.015 120.508 140.018 120.451C140.018 120.395 140.029 120.395 140.032 120.339C140.036 120.282 140.022 120.282 140.025 120.226C140.025 120.17 140.071 120.173 140.075 120.117C140.075 120.06 140.018 120.057 140.022 120.001C140.022 119.944 140.022 119.944 140.022 119.888C140.022 119.832 140.089 119.835 140.092 119.779C140.092 119.722 140.046 119.719 140.05 119.666C140.05 119.61 140.092 119.613 140.096 119.557C140.096 119.501 140.082 119.501 140.085 119.444C140.085 119.388 140.039 119.384 140.043 119.332C140.043 119.275 140.103 119.279 140.106 119.222C140.106 119.166 140.106 119.166 140.106 119.11C140.106 119.053 140.096 119.053 140.099 118.997C140.099 118.941 140.131 118.944 140.134 118.888C140.138 118.832 140.138 118.832 140.145 118.775C140.145 118.719 140.117 118.719 140.117 118.663C140.117 118.606 140.085 118.606 140.089 118.55C140.089 118.494 140.148 118.497 140.148 118.441C140.148 118.384 140.113 118.384 140.117 118.328C140.12 118.272 140.092 118.272 140.096 118.215C140.096 118.159 140.155 118.163 140.159 118.106C140.163 118.05 140.155 118.05 140.159 117.994C140.159 117.937 140.131 117.937 140.134 117.881C140.138 117.825 140.184 117.828 140.187 117.772C140.189 117.734 140.192 117.697 140.194 117.659C140.194 117.603 140.145 117.599 140.148 117.543C140.148 117.487 140.17 117.487 140.173 117.434C140.177 117.381 140.148 117.377 140.152 117.321C140.152 117.265 140.18 117.268 140.184 117.212C140.184 117.156 140.177 117.156 140.184 117.099C140.184 117.043 140.173 117.043 140.177 116.987C140.177 116.93 140.177 116.93 140.177 116.874C140.18 116.818 140.233 116.821 140.236 116.765C140.24 116.708 140.275 116.712 140.279 116.656C140.282 116.599 140.208 116.596 140.212 116.539C140.215 116.483 140.261 116.487 140.264 116.43C140.272 116.374 140.272 116.374 140.275 116.318C140.275 116.261 140.275 116.261 140.279 116.205C140.282 116.149 140.275 116.149 140.279 116.092C140.282 116.036 140.268 116.036 140.272 115.98C140.275 115.923 140.307 115.927 140.31 115.87C140.314 115.814 140.279 115.811 140.282 115.758C140.286 115.701 140.275 115.701 140.282 115.645C140.289 115.589 140.324 115.592 140.328 115.536C140.331 115.48 140.307 115.48 140.31 115.423C140.314 115.367 140.352 115.37 140.356 115.314C140.359 115.258 140.335 115.258 140.338 115.201C140.342 115.145 140.363 115.149 140.37 115.092C140.373 115.036 140.356 115.036 140.359 114.98C140.363 114.923 140.31 114.92 140.314 114.863C140.314 114.807 140.314 114.807 140.321 114.751C140.324 114.694 140.395 114.701 140.398 114.645C140.402 114.589 140.377 114.589 140.381 114.532C140.384 114.476 140.419 114.48 140.423 114.423C140.426 114.367 140.342 114.36 140.345 114.307C140.349 114.251 140.405 114.254 140.409 114.198C140.412 114.142 140.419 114.142 140.423 114.085C140.426 114.029 140.366 114.025 140.37 113.969C140.373 113.913 140.454 113.92 140.458 113.863C140.461 113.807 140.444 113.807 140.447 113.751C140.451 113.694 140.426 113.694 140.43 113.638C140.437 113.582 140.437 113.582 140.44 113.525C140.444 113.469 140.482 113.473 140.486 113.416C140.49 113.36 140.437 113.356 140.44 113.3C140.444 113.244 140.507 113.247 140.511 113.195C140.514 113.138 140.479 113.135 140.482 113.082C140.482 113.025 140.482 113.025 140.486 112.969C140.49 112.913 140.514 112.916 140.518 112.86C140.521 112.804 140.49 112.804 140.497 112.747C140.504 112.691 140.514 112.695 140.521 112.638C140.525 112.582 140.472 112.578 140.475 112.522C140.479 112.466 140.539 112.473 140.546 112.416C140.553 112.36 140.528 112.36 140.532 112.304C140.535 112.247 140.521 112.247 140.525 112.191C140.528 112.135 140.511 112.135 140.514 112.078C140.518 112.022 140.606 112.029 140.609 111.973C140.613 111.916 140.56 111.913 140.563 111.857C140.567 111.8 140.56 111.8 140.563 111.744C140.567 111.688 140.553 111.688 140.556 111.631C140.56 111.575 140.63 111.582 140.634 111.526C140.637 111.469 140.592 111.466 140.595 111.409C140.599 111.353 140.644 111.357 140.648 111.3C140.651 111.244 140.595 111.24 140.599 111.184C140.602 111.128 140.613 111.128 140.616 111.075C140.62 111.019 140.616 111.019 140.616 110.962C140.62 110.906 140.679 110.913 140.683 110.857C140.686 110.8 140.644 110.797 140.651 110.74C140.655 110.684 140.686 110.688 140.69 110.631C140.693 110.575 140.665 110.575 140.672 110.519C140.676 110.462 140.708 110.466 140.711 110.409C140.718 110.357 140.718 110.353 140.729 110.3C140.729 110.244 140.729 110.244 140.736 110.188C140.739 110.131 140.69 110.128 140.693 110.071C140.697 110.015 140.746 110.019 140.75 109.966C140.753 109.913 140.767 109.913 140.771 109.857C140.774 109.8 140.743 109.797 140.746 109.744C140.753 109.691 140.753 109.688 140.76 109.635L140.771 109.522C140.774 109.466 140.785 109.466 140.792 109.413C140.799 109.36 140.813 109.36 140.817 109.304C140.82 109.247 140.838 109.251 140.841 109.195C140.845 109.138 140.788 109.135 140.795 109.078C140.802 109.022 140.841 109.026 140.848 108.969C140.855 108.913 140.838 108.913 140.841 108.857C140.845 108.8 140.88 108.804 140.883 108.748C140.89 108.691 140.859 108.688 140.866 108.635C140.873 108.578 140.824 108.575 140.831 108.519C140.838 108.462 140.88 108.466 140.887 108.413C140.894 108.36 140.912 108.36 140.919 108.304C140.926 108.248 140.919 108.248 140.919 108.191C140.926 108.135 140.89 108.131 140.897 108.075C140.904 108.019 140.926 108.022 140.929 107.966C140.936 107.91 140.961 107.913 140.964 107.857C140.971 107.8 140.901 107.793 140.908 107.737C140.915 107.681 140.894 107.681 140.901 107.624C140.908 107.568 140.954 107.575 140.961 107.519C140.968 107.462 140.982 107.466 140.985 107.41C140.992 107.353 140.943 107.35 140.947 107.293C140.954 107.237 141.006 107.244 141.01 107.188C141.017 107.131 140.999 107.131 141.006 107.075C141.013 107.019 140.996 107.019 140.999 106.962C141.006 106.906 141.031 106.91 141.038 106.853C141.045 106.797 140.989 106.793 140.996 106.737C141.003 106.681 141.024 106.684 141.031 106.628C141.038 106.572 141.077 106.575 141.084 106.522C141.091 106.466 141.073 106.466 141.08 106.41C141.087 106.353 141.066 106.353 141.073 106.297C141.08 106.241 141.063 106.241 141.07 106.184C141.077 106.128 141.087 106.131 141.094 106.075C141.101 106.019 141.084 106.019 141.094 105.962C141.101 105.906 141.087 105.906 141.094 105.85C141.101 105.793 141.189 105.804 141.196 105.748C141.203 105.691 141.133 105.684 141.14 105.628C141.147 105.572 141.168 105.575 141.175 105.519C141.182 105.462 141.147 105.459 141.154 105.403C141.161 105.346 141.239 105.357 141.242 105.3C141.249 105.244 141.214 105.241 141.221 105.184C141.228 105.128 141.214 105.128 141.221 105.072C141.228 105.015 141.214 105.015 141.221 104.959C141.228 104.903 141.249 104.906 141.256 104.85C141.263 104.793 141.235 104.79 141.242 104.737C141.249 104.681 141.305 104.688 141.312 104.635C141.319 104.582 141.249 104.572 141.256 104.515C141.263 104.459 141.274 104.462 141.284 104.406C141.291 104.35 141.305 104.353 141.312 104.297C141.319 104.241 141.319 104.241 141.326 104.188C141.333 104.131 141.397 104.142 141.404 104.086C141.411 104.029 141.362 104.022 141.369 103.97C141.376 103.913 141.386 103.917 141.393 103.86C141.404 103.808 141.404 103.804 141.411 103.751C141.418 103.695 141.439 103.698 141.446 103.642C141.453 103.586 141.404 103.579 141.411 103.526C141.418 103.47 141.411 103.47 141.418 103.413C141.425 103.357 141.481 103.367 141.492 103.311C141.499 103.255 141.414 103.244 141.421 103.188C141.428 103.132 141.513 103.146 141.523 103.089C141.534 103.033 141.544 103.036 141.552 102.98C141.559 102.924 141.548 102.924 141.552 102.867C141.559 102.811 141.541 102.811 141.552 102.755C141.559 102.698 141.59 102.706 141.597 102.649C141.604 102.593 141.58 102.589 141.59 102.536C141.597 102.48 141.566 102.477 141.576 102.42C141.587 102.367 141.587 102.364 141.597 102.311C141.604 102.255 141.622 102.258 141.629 102.202C141.639 102.146 141.604 102.142 141.611 102.086C141.622 102.033 141.622 102.029 141.632 101.977C141.643 101.92 141.615 101.917 141.622 101.864C141.632 101.808 141.71 101.822 141.72 101.765C141.731 101.709 141.734 101.713 141.745 101.656C141.755 101.6 141.671 101.586 141.678 101.533C141.689 101.477 141.72 101.484 141.727 101.427C141.738 101.371 141.787 101.382 141.798 101.325C141.808 101.269 141.752 101.262 141.759 101.206C141.766 101.149 141.791 101.153 141.798 101.1C141.808 101.044 141.847 101.051 141.857 100.998C141.868 100.945 141.847 100.938 141.857 100.885C141.868 100.832 141.857 100.829 141.868 100.772C141.879 100.716 141.843 100.713 141.854 100.656C141.868 100.603 141.868 100.6 141.879 100.547C141.886 100.512 141.893 100.476 141.9 100.438C141.91 100.382 141.921 100.385 141.931 100.332C141.942 100.276 141.973 100.283 141.984 100.23C141.995 100.177 141.938 100.163 141.949 100.111C141.959 100.054 141.938 100.051 141.949 99.9979C141.959 99.9451 141.973 99.9451 141.988 99.8922C141.998 99.8394 142.054 99.85 142.065 99.7937C142.075 99.7408 142.065 99.7373 142.079 99.6845C142.09 99.6317 142.107 99.6352 142.118 99.5789C142.128 99.5225 142.118 99.5225 142.128 99.4662C142.139 99.4134 142.09 99.3993 142.1 99.3465C142.111 99.2937 142.121 99.2937 142.132 99.2409C142.142 99.188 142.199 99.1986 142.213 99.1458C142.223 99.093 142.174 99.0789 142.188 99.0261C142.202 98.9733 142.213 98.9733 142.227 98.9205C142.241 98.8676 142.251 98.8712 142.265 98.8148C142.279 98.762 142.265 98.7585 142.279 98.7057C142.293 98.6529 142.325 98.6599 142.339 98.6071C142.353 98.5543 142.311 98.5437 142.325 98.4909C142.339 98.4381 142.311 98.431 142.325 98.3782C142.339 98.3254 142.381 98.336 142.395 98.2832C142.41 98.2303 142.367 98.2163 142.381 98.1634C142.395 98.1106 142.438 98.1212 142.455 98.0684C142.473 98.0156 142.473 98.0156 142.487 97.9627C142.504 97.9099 142.476 97.9029 142.494 97.8501C142.512 97.7973 142.55 97.8113 142.564 97.7585C142.582 97.7057 142.606 97.7163 142.624 97.6635C142.642 97.6106 142.571 97.5895 142.589 97.5367C142.606 97.4839 142.68 97.5121 142.698 97.4592C142.715 97.41 142.705 97.4029 142.726 97.3536C142.747 97.3043 142.691 97.2832 142.712 97.2339C142.733 97.1846 142.803 97.2128 142.824 97.1635C142.846 97.1142 142.835 97.1107 142.856 97.0614C142.877 97.0121 142.8 96.9769 142.817 96.9276C142.839 96.8783 142.888 96.8994 142.909 96.8501C142.93 96.8008 142.895 96.7832 142.923 96.741C142.948 96.6952 142.969 96.7058 142.993 96.6635C143.018 96.6213 143.046 96.6353 143.071 96.5896C143.095 96.5473 143.071 96.5297 143.095 96.4875C143.12 96.4417 143.13 96.4487 143.155 96.4065C143.18 96.3642 143.155 96.3396 143.183 96.2973C143.215 96.2515 143.253 96.2797 143.285 96.2339C143.317 96.1882 143.285 96.167 143.32 96.1248C143.355 96.0825 143.377 96.0966 143.408 96.0544C143.44 96.0086 143.457 96.0227 143.493 95.9804C143.524 95.9347 143.486 95.9065 143.521 95.8642C143.556 95.822 143.556 95.822 143.588 95.7762C143.619 95.7304 143.626 95.7375 143.658 95.6917C143.69 95.6459 143.69 95.6459 143.721 95.6002C143.756 95.5579 143.763 95.5614 143.799 95.5192C143.834 95.4769 143.879 95.5121 143.915 95.4699C143.95 95.4276 143.904 95.3924 143.939 95.3502C143.974 95.3079 143.999 95.329 144.034 95.2833C144.069 95.241 144.045 95.2199 144.08 95.1776C144.115 95.1354 144.101 95.1248 144.136 95.0826C144.171 95.0403 144.213 95.072 144.249 95.0298C144.284 94.9875 144.231 94.9453 144.266 94.8995C144.301 94.8572 144.319 94.8713 144.354 94.8291C144.389 94.7868 144.414 94.808 144.449 94.7657C144.484 94.7234 144.474 94.7129 144.509 94.6706C144.544 94.6284 144.526 94.6143 144.562 94.572C144.597 94.5298 144.611 94.5404 144.646 94.4981C144.681 94.4559 144.653 94.4312 144.688 94.389C144.723 94.3467 144.737 94.3573 144.773 94.315C144.808 94.2728 144.825 94.2868 144.86 94.2446C144.896 94.2023 144.878 94.1847 144.913 94.1425C144.948 94.1002 144.955 94.1038 144.991 94.0615C145.026 94.0193 145.026 94.0157 145.061 93.9735C145.1 93.9312 145.135 93.9664 145.173 93.9242C145.212 93.8819 145.191 93.8643 145.23 93.8256C145.268 93.7869 145.24 93.7587 145.275 93.7164C145.314 93.6742 145.374 93.7305 145.413 93.6883C145.451 93.646 145.434 93.6319 145.472 93.5932C145.511 93.5545 145.465 93.5122 145.5 93.47C145.539 93.4277 145.571 93.4594 145.61 93.4172C145.648 93.3749 145.617 93.3503 145.655 93.308C145.69 93.2658 145.69 93.2658 145.729 93.2235C145.768 93.1813 145.813 93.2235 145.852 93.1848C145.891 93.1425 145.831 93.0897 145.87 93.0475C145.908 93.0052 145.958 93.051 145.993 93.0122C146.031 92.97 146 92.9418 146.039 92.9031C146.077 92.8644 146.098 92.882 146.137 92.8432C146.176 92.801 146.176 92.801 146.211 92.7587C146.25 92.7165 146.267 92.7341 146.306 92.6954C146.344 92.6531 146.288 92.6003 146.327 92.5616C146.366 92.5193 146.415 92.5686 146.453 92.5299C146.492 92.4911 146.453 92.4559 146.496 92.4137C146.534 92.3749 146.559 92.3996 146.598 92.3573C146.623 92.3315 146.649 92.3045 146.675 92.2764C146.714 92.2376 146.735 92.2588 146.773 92.2165C146.799 92.1907 146.825 92.1637 146.851 92.1355C146.889 92.0968 146.861 92.0686 146.9 92.0299C146.939 91.9912 146.974 92.0264 147.016 91.9841C147.055 91.9454 147.002 91.8926 147.041 91.8538C147.079 91.8151 147.132 91.8644 147.171 91.8257C147.209 91.787 147.157 91.7341 147.195 91.6954C147.234 91.6567 147.248 91.6708 147.287 91.632C147.326 91.5933 147.333 91.6003 147.371 91.5581C147.41 91.5194 147.435 91.544 147.473 91.5053C147.499 91.4795 147.526 91.4536 147.554 91.4278C147.593 91.3891 147.554 91.3503 147.596 91.3116C147.635 91.2729 147.67 91.3116 147.712 91.2694C147.755 91.2342 147.755 91.2306 147.797 91.1954C147.835 91.1567 147.818 91.1356 147.857 91.0968C147.895 91.0581 147.857 91.0159 147.895 90.9771C147.934 90.9384 147.99 90.9947 148.029 90.956C148.068 90.9173 148.015 90.8609 148.053 90.8222C148.092 90.7835 148.155 90.8468 148.194 90.8081C148.233 90.7694 148.212 90.7483 148.254 90.7095C148.296 90.6708 148.314 90.6919 148.352 90.6532C148.391 90.6145 148.37 90.5898 148.409 90.5511C148.447 90.5124 148.461 90.5229 148.5 90.4842C148.539 90.4455 148.539 90.4455 148.577 90.4067C148.603 90.3809 148.63 90.3551 148.658 90.3293C148.7 90.2905 148.686 90.2764 148.725 90.2377C148.764 90.199 148.774 90.2095 148.817 90.1708C148.842 90.145 148.869 90.1192 148.897 90.0934C148.94 90.0546 148.897 90.0089 148.936 89.9701C148.978 89.9314 149.024 89.9807 149.063 89.942C149.105 89.9032 149.063 89.8575 149.101 89.8187C149.144 89.78 149.179 89.8187 149.221 89.78C149.263 89.7413 149.221 89.7025 149.267 89.6638C149.309 89.6251 149.319 89.6392 149.362 89.6004C149.404 89.5617 149.39 89.5476 149.432 89.5089C149.471 89.4701 149.471 89.4666 149.509 89.4279C149.551 89.3892 149.58 89.4244 149.622 89.3856C149.664 89.3469 149.685 89.3716 149.727 89.3363C149.769 89.2976 149.745 89.273 149.787 89.2342C149.829 89.1955 149.836 89.2026 149.875 89.1673C149.903 89.1439 149.931 89.1192 149.959 89.0934C149.988 89.0676 150.014 89.0418 150.04 89.0159C150.082 88.9772 150.093 88.9913 150.135 88.9561C150.177 88.9209 150.177 88.9209 150.22 88.8857C150.262 88.8469 150.209 88.7906 150.251 88.7554C150.293 88.7167 150.35 88.78 150.392 88.7448C150.434 88.7096 150.434 88.7096 150.48 88.6744C150.522 88.6357 150.48 88.5864 150.518 88.5512C150.561 88.5124 150.582 88.5371 150.624 88.4984C150.666 88.4596 150.687 88.4843 150.726 88.4455C150.768 88.4068 150.744 88.3822 150.786 88.347C150.828 88.3082 150.853 88.3364 150.891 88.2977C150.933 88.2589 150.898 88.2237 150.94 88.185C150.983 88.1463 150.955 88.1181 150.997 88.0794C151.039 88.0406 151.071 88.0794 151.113 88.0441C151.155 88.0054 151.123 87.9702 151.166 87.9315C151.208 87.8963 151.257 87.9526 151.299 87.9174C151.341 87.8822 151.289 87.8188 151.331 87.7836C151.373 87.7484 151.426 87.8082 151.468 87.773C151.51 87.7378 151.489 87.7097 151.531 87.6744C151.559 87.6498 151.598 87.6322 151.612 87.6005C151.626 87.5688 151.623 87.523 151.623 87.4843C151.623 87.4456 151.633 87.4033 151.623 87.3646C151.609 87.3294 151.573 87.2942 151.545 87.2625C151.517 87.2308 151.493 87.185 151.457 87.1639C151.422 87.1428 151.373 87.1463 151.338 87.1428C151.299 87.1357 151.253 87.1217 151.218 87.1322C151.183 87.1428 151.137 87.1533 151.109 87.178L151.085 87.2062Z" fill="#45434D"/>
</g>
<path d="M158.339 108.895C158.339 108.895 156.981 104.73 153.497 102.008L158.339 108.895Z" fill="#9C9191"/>
<path d="M161.651 105.92C161.651 105.92 158.339 96.8221 155.919 96.7375L161.651 105.92Z" fill="#9C9191"/>
<path d="M166.578 106.684C166.578 106.684 166.662 95.6283 164.454 94.4382L166.578 106.684Z" fill="#9C9191"/>
<path d="M156.299 82.5339C156.299 82.5339 163.687 86.0197 165.516 88.7414L156.299 82.5339Z" fill="#9C9191"/>
<path d="M168.02 87.7239C168.02 87.7239 172.011 94.1884 172.946 98.9488L168.02 87.7239Z" fill="#9C9191"/>
<path d="M175.412 78.1995C175.412 78.1995 181.186 84.3224 187.216 84.7485L175.412 78.1995Z" fill="#699055"/>
<path d="M178.636 76.432C178.636 76.432 188.064 78.284 194.263 75.0518L178.636 76.432Z" fill="#699055"/>
<path d="M141.302 59.7814C141.302 59.7814 134.413 55.771 132.289 50.8169C132.18 50.2747 127.591 49.4578 127.647 48.3135C127.686 47.5319 127.735 47.9826 127.767 47.3241C127.777 47.0953 127.306 46.9544 127.478 46.2221C127.637 45.5636 128.572 45.9862 128.706 45.4897C128.706 45.4897 128.498 44.3912 129.469 44.3207C130.408 44.2538 131.012 44.4088 131.012 44.4088C131.012 44.4088 130.692 43.4687 131.712 43.356C132.581 43.2609 135.661 43.9475 139.227 48.4368L142.796 52.926C142.796 52.926 144.301 56.3343 141.298 59.7849L141.302 59.7814Z" fill="#EBBEA7"/>
<path d="M128.021 47.3242C128.021 47.3242 130.967 47.8031 132.448 48.7925L128.021 47.3242Z" fill="#EBBEA7"/>
<path d="M128.551 45.7888C128.551 45.7888 131.515 46.1304 133.041 47.0458L128.551 45.7888Z" fill="#A55535"/>
<path d="M129.884 44.3206C129.884 44.3206 132.848 44.6621 134.374 45.5811L129.884 44.3206Z" fill="#A55535"/>
<path d="M159.281 22.804C159.144 22.5329 158.947 22.3005 158.768 22.0716C158.588 21.8428 158.406 21.5928 158.166 21.4097C157.938 21.2407 157.65 21.1527 157.354 21.0435C157.094 20.9484 156.816 20.8675 156.496 20.8252C156.215 20.79 155.937 20.7689 155.659 20.7794C155.381 20.79 155.104 20.8217 154.822 20.8675C154.541 20.9132 154.263 20.9308 153.989 21.0013C153.715 21.0717 153.44 21.128 153.17 21.2055C152.899 21.2829 152.649 21.4308 152.378 21.5083C152.108 21.5857 151.837 21.6667 151.566 21.7336C151.295 21.8005 151.007 21.804 150.729 21.8498C150.451 21.8956 150.177 21.9167 149.896 21.9273C149.614 21.9378 149.344 21.9308 149.062 21.8991C148.781 21.8674 148.517 21.8287 148.243 21.7442C147.986 21.6632 147.712 21.5998 147.448 21.466C147.213 21.3428 146.995 21.1984 146.787 21.033C146.583 20.871 146.393 20.6844 146.217 20.4907C146.042 20.2971 145.848 20.1105 145.694 19.8992C145.539 19.6879 145.44 19.4344 145.303 19.2126C145.145 18.9556 145.022 18.6809 144.885 18.4133C144.748 18.1458 144.593 17.8852 144.48 17.607C144.368 17.3289 144.252 17.0472 144.164 16.762C144.076 16.4768 144.037 16.174 143.977 15.8782C143.918 15.5825 143.89 15.2867 143.865 14.9874C143.84 14.6881 143.833 14.3924 143.844 14.0896C143.854 13.7868 143.833 13.484 143.886 13.1882C143.939 12.8924 144.037 12.6037 144.129 12.3185C144.22 12.0333 144.34 11.7552 144.47 11.4876C144.6 11.22 144.705 10.9242 144.874 10.6778C145.043 10.4313 145.289 10.2412 145.5 10.0264C145.711 9.81159 145.894 9.5616 146.14 9.38908C146.418 9.1919 146.738 9.0405 146.938 8.76234C147.16 8.45954 147.265 8.08631 147.36 7.72365C147.434 7.44197 147.533 7.18494 147.638 6.93143C147.747 6.66736 147.839 6.40329 147.979 6.16386C148.12 5.92443 148.306 5.70965 148.482 5.49135C148.658 5.27305 148.816 5.03715 149.017 4.84349C149.217 4.64984 149.439 4.47379 149.66 4.30126C149.882 4.12873 150.138 4.01254 150.377 3.86114C150.617 3.70974 150.831 3.53017 151.077 3.39637C151.323 3.26257 151.584 3.15694 151.837 3.03723C152.09 2.91752 152.343 2.80132 152.603 2.68865C152.864 2.57598 153.099 2.42106 153.359 2.31895C153.62 2.21684 153.904 2.16403 154.165 2.06192C154.425 1.95981 154.675 1.81545 154.931 1.71334C155.188 1.61123 155.469 1.54081 155.726 1.43166C155.983 1.32251 156.236 1.19576 156.496 1.10069C156.756 1.00562 157.017 0.885911 157.284 0.801408C157.551 0.716904 157.836 0.685216 158.103 0.611275C158.37 0.537335 158.648 0.495083 158.922 0.431705C159.197 0.368328 159.464 0.297908 159.742 0.248614C160.02 0.199321 160.294 0.16059 160.572 0.12538C160.849 0.0901702 161.124 0.0232716 161.405 0.00566673C161.683 -0.0119382 161.968 0.0479185 162.246 0.0479185C162.523 0.0479185 162.805 -0.0119382 163.086 0.00214575C163.367 0.0162297 163.645 0.0373555 163.926 0.0690443C164.229 0.104254 164.517 0.185237 164.806 0.245093C165.094 0.30495 165.396 0.357765 165.678 0.442268C165.959 0.526772 166.247 0.62888 166.525 0.734509C166.803 0.840139 167.045 1.03379 167.32 1.15351C167.594 1.27322 167.886 1.34716 168.153 1.47391C168.42 1.60067 168.674 1.75911 168.941 1.88939C169.208 2.01967 169.465 2.17459 169.736 2.30134C170.006 2.4281 170.291 2.5126 170.569 2.6288C170.819 2.73443 171.082 2.81189 171.343 2.91047C171.603 3.00906 171.849 3.11821 172.106 3.21328C172.362 3.30834 172.616 3.41045 172.872 3.51256C173.129 3.61467 173.375 3.73438 173.621 3.85058C173.867 3.96677 174.145 4.03719 174.381 4.17451C174.616 4.31182 174.813 4.51604 175.035 4.68153C175.253 4.84349 175.467 5.0125 175.661 5.20967C175.854 5.40685 176.012 5.61811 176.174 5.84697C176.343 6.0864 176.477 6.33287 176.593 6.59342C176.709 6.85397 176.821 7.11804 176.899 7.3962C176.976 7.67436 177.067 7.94547 177.106 8.23419C177.145 8.52291 177.131 8.80811 177.141 9.09683C177.152 9.38555 177.141 9.67075 177.127 9.95595C177.113 10.2412 177.092 10.5299 177.064 10.8151C177.036 11.1003 176.99 11.3855 176.948 11.6671C176.906 11.9523 176.927 12.2516 176.878 12.5368C176.828 12.822 176.783 13.1108 176.73 13.3959C176.677 13.6811 176.603 13.9628 176.543 14.248C176.484 14.5332 176.368 14.8043 176.308 15.086C176.248 15.3677 176.185 15.6529 176.125 15.9346C176.065 16.2198 176.09 16.5191 176.03 16.8043C175.97 17.0895 175.893 17.3676 175.833 17.6528C175.773 17.938 175.717 18.2197 175.661 18.5049C175.605 18.7901 175.496 19.0647 175.446 19.3499C175.397 19.6351 175.418 19.9344 175.372 20.2196C175.327 20.5048 175.281 20.79 175.242 21.0787C175.204 21.3674 175.088 21.6421 175.056 21.9308C175.024 22.2195 175.056 22.5118 175.035 22.8005C175.014 23.0646 174.979 23.3251 174.961 23.5927C174.943 23.8603 174.88 24.1173 174.852 24.3814C174.824 24.6455 174.859 24.9166 174.813 25.1771C174.768 25.4377 174.68 25.6877 174.606 25.9447C174.532 26.2017 174.49 26.4693 174.37 26.7052C174.251 26.9412 174.078 27.1559 173.92 27.3637C173.762 27.5714 173.6 27.8003 173.396 27.9658C173.192 28.1312 172.953 28.2721 172.703 28.3742C172.345 28.5186 171.93 28.5221 171.589 28.7052C171.241 28.8918 171.009 29.2439 170.717 29.5079C170.516 29.6875 170.245 29.7791 170.02 29.9269C169.795 30.0748 169.581 30.2368 169.338 30.353C169.096 30.4692 168.839 30.5466 168.582 30.6311C168.325 30.7156 168.072 30.7966 167.805 30.8459C167.538 30.8952 167.274 30.941 167.007 30.9586C166.74 30.9762 166.472 30.9304 166.202 30.9163C165.931 30.9023 165.664 30.9163 165.396 30.867C165.129 30.8178 164.865 30.7649 164.609 30.6875C164.352 30.61 164.099 30.5079 163.856 30.3952C163.613 30.2826 163.392 30.1241 163.167 29.9762C162.924 29.8213 162.713 29.6488 162.513 29.4692C162.302 29.2791 162.115 29.0819 161.943 28.8706C161.771 28.6594 161.556 28.4657 161.412 28.2298C161.268 27.9939 161.124 27.751 161.001 27.501C160.878 27.251 160.793 26.9869 160.691 26.7264C160.589 26.4693 160.526 26.1982 160.431 25.9342C160.336 25.6701 160.241 25.413 160.153 25.149C160.065 24.8849 159.935 24.6384 159.84 24.3779C159.745 24.1173 159.657 23.8568 159.552 23.5997C159.446 23.3427 159.394 23.061 159.271 22.8146L159.281 22.804Z" fill="#97928C"/>
<path d="M148.208 23.406C148.31 23.6701 148.394 23.9412 148.496 24.2017C148.598 24.4623 148.679 24.7369 148.788 24.9975C148.897 25.258 148.989 25.5291 149.105 25.7826C149.221 26.0362 149.386 26.2756 149.516 26.5256C149.646 26.7756 149.776 27.0255 149.917 27.2685C150.058 27.5114 150.17 27.7755 150.332 28.0079C150.494 28.2403 150.729 28.4128 150.909 28.6311C151.088 28.8494 151.218 29.1064 151.419 29.3071C151.619 29.5078 151.823 29.698 152.044 29.8811C152.266 30.0642 152.519 30.1768 152.758 30.3388C153.004 30.5078 153.233 30.7085 153.497 30.8564C153.761 31.0043 154.042 31.1028 154.316 31.2261C154.59 31.3493 154.854 31.4972 155.139 31.5958C155.424 31.6944 155.726 31.7225 156.018 31.793C156.31 31.8634 156.591 31.9796 156.887 32.0253C157.182 32.0711 157.484 32.0711 157.783 32.0887C158.082 32.1063 158.381 32.1169 158.669 32.0922C158.958 32.0676 159.264 32.0641 159.556 32.0253C159.848 31.9866 160.129 31.8775 160.431 31.8528C160.695 31.8282 160.959 31.8845 161.222 31.881C161.486 31.8775 161.746 31.881 162.01 31.881C162.274 31.881 162.531 31.7824 162.791 31.7577C163.051 31.7331 163.325 31.7894 163.582 31.7366C163.867 31.6768 164.141 31.5641 164.419 31.4937C164.697 31.4233 164.971 31.3141 165.245 31.2226C165.52 31.131 165.815 31.0852 166.082 30.9761C166.349 30.8669 166.61 30.7296 166.866 30.6029C167.127 30.4726 167.397 30.3599 167.644 30.2085C167.89 30.0571 168.104 29.8494 168.336 29.6768C168.568 29.5043 168.779 29.3071 168.997 29.1135C169.215 28.9198 169.469 28.7649 169.662 28.5501C169.855 28.3354 169.989 28.0713 170.165 27.8354C170.341 27.5995 170.474 27.353 170.622 27.0995C170.77 26.846 170.97 26.6347 171.097 26.3671C171.223 26.0995 171.343 25.8425 171.462 25.5819C171.582 25.3214 171.621 25.0186 171.733 24.7545C171.846 24.4904 172.029 24.251 172.138 23.9834C172.247 23.7158 172.349 23.4447 172.447 23.1736C172.545 22.9025 172.651 22.6314 172.739 22.3567C172.827 22.0821 172.908 21.8039 172.985 21.5258C173.062 21.2476 173.091 20.9554 173.154 20.6772C173.217 20.3991 173.259 20.1103 173.309 19.8251C173.358 19.5399 173.4 19.2583 173.432 18.9695C173.463 18.6808 173.481 18.3991 173.495 18.1069C173.509 17.8147 173.534 17.533 173.53 17.2443C173.527 16.9555 173.52 16.6703 173.498 16.3781C173.477 16.0859 173.428 15.8112 173.393 15.519C173.358 15.2408 173.326 14.9627 173.27 14.6916C173.214 14.4204 173.119 14.1528 173.045 13.8853C172.971 13.6177 172.876 13.3536 172.781 13.093C172.686 12.8325 172.612 12.5614 172.5 12.3043C172.387 12.0473 172.271 11.7938 172.141 11.5473C172.011 11.3009 171.898 11.0403 171.751 10.8044C171.603 10.5685 171.427 10.3467 171.262 10.1213C171.097 9.89599 170.9 9.69529 170.72 9.48051C170.541 9.26573 170.404 9.01222 170.214 8.81152C170.024 8.61083 169.82 8.41365 169.613 8.22352C169.405 8.03339 169.152 7.90311 168.934 7.72706C168.716 7.55101 168.537 7.33271 168.308 7.16723C168.08 7.00174 167.837 6.86794 167.601 6.72006C167.366 6.57218 167.137 6.4067 166.895 6.26938C166.652 6.13558 166.388 6.03347 166.138 5.91024C165.889 5.787 165.636 5.66729 165.375 5.56166C165.115 5.45603 164.873 5.31167 164.605 5.22365C164.338 5.13562 164.057 5.11098 163.786 5.03703C163.515 4.96309 163.248 4.89267 162.974 4.83282C162.699 4.77296 162.432 4.69198 162.158 4.64973C161.884 4.60748 161.599 4.6286 161.321 4.60043C161.043 4.57227 160.769 4.55114 160.488 4.54058C160.206 4.53001 159.932 4.45607 159.651 4.45959C159.373 4.46312 159.099 4.53001 158.824 4.55114C158.55 4.57227 158.265 4.54058 157.994 4.58283C157.724 4.62508 157.46 4.74479 157.193 4.80113C156.925 4.85747 156.658 4.93845 156.394 5.01591C156.131 5.09337 155.86 5.14971 155.6 5.24477C155.339 5.33984 155.083 5.43843 154.83 5.54758C154.576 5.65673 154.306 5.73771 154.059 5.86446C153.813 5.99122 153.613 6.19544 153.374 6.3398C153.135 6.48416 152.885 6.59683 152.656 6.75527C152.428 6.91372 152.234 7.11089 152.02 7.28694C151.805 7.46299 151.577 7.61439 151.373 7.80452C151.169 7.99466 150.926 8.14254 150.736 8.34323C150.546 8.54393 150.402 8.78688 150.226 9.00166C150.04 9.227 149.826 9.4277 149.66 9.66008C149.495 9.89246 149.397 10.1812 149.245 10.4241C149.094 10.6671 148.957 10.9241 148.823 11.1776C148.69 11.4311 148.539 11.6811 148.423 11.9452C148.306 12.2093 148.201 12.4769 148.103 12.748C148.004 13.0191 147.87 13.2796 147.79 13.5578C147.709 13.836 147.61 14.1106 147.547 14.3923C147.484 14.674 147.47 14.9662 147.42 15.2514C147.371 15.5366 147.361 15.8253 147.325 16.114C147.29 16.4028 147.259 16.6844 147.237 16.9767C147.216 17.2689 147.195 17.5506 147.188 17.8428C147.181 18.1351 147.135 18.4203 147.135 18.709C147.135 18.9731 147.157 19.2442 147.181 19.5153C147.206 19.7864 147.252 20.047 147.297 20.3146C147.343 20.5822 147.385 20.8427 147.448 21.1068C147.512 21.3709 147.631 21.6103 147.709 21.8708C147.786 22.1314 147.828 22.3955 147.916 22.649C148.004 22.9025 148.124 23.1454 148.219 23.3954L148.208 23.406Z" fill="#EBBEA7"/>
<path d="M176.525 22.9484C176.392 23.1174 176.234 23.2618 176.075 23.4132C175.878 23.6069 175.657 23.7935 175.393 23.9484C175.147 24.0928 174.89 24.2371 174.609 24.3392C174.328 24.4413 174.046 24.4871 173.754 24.5434C173.463 24.5998 173.174 24.6209 172.886 24.6315C172.598 24.642 172.288 24.6948 172.007 24.6455C171.708 24.5963 171.437 24.466 171.18 24.3427C170.91 24.216 170.671 24.0505 170.474 23.8357C170.277 23.6209 170.147 23.378 170.048 23.0822C169.964 22.8287 169.907 22.547 169.907 22.2231C169.907 21.959 169.932 21.6668 169.964 21.3605C169.995 21.0858 170.002 20.7936 170.059 20.4978C170.111 20.2197 170.189 19.9415 170.266 19.6528C170.344 19.3641 170.379 19.0824 170.47 18.8042C170.562 18.5261 170.716 18.2761 170.825 18.0085C170.934 17.7409 171.068 17.4804 171.202 17.2268C171.335 16.9733 171.504 16.7304 171.659 16.4945C171.824 16.248 171.951 15.9769 172.137 15.7692C172.337 15.5473 172.559 15.3572 172.784 15.1882C173.023 15.0121 173.269 14.8537 173.536 14.7516C173.811 14.6495 174.113 14.66 174.409 14.6389C174.704 14.6178 175.003 14.5509 175.291 14.6143C175.58 14.6777 175.843 14.8291 176.1 14.9699C176.374 15.1213 176.599 15.3431 176.817 15.5685C177.035 15.7938 177.222 16.0368 177.376 16.3114C177.531 16.586 177.714 16.8501 177.802 17.1494C177.89 17.4487 177.921 17.7691 177.953 18.0824C177.985 18.3958 177.967 18.7092 177.953 19.0225C177.939 19.3359 177.893 19.6458 177.837 19.9556C177.788 20.2267 177.76 20.5049 177.682 20.7689C177.605 21.033 177.5 21.2901 177.391 21.5436C177.281 21.7971 177.109 22.0189 176.972 22.2548C176.835 22.4907 176.701 22.7301 176.529 22.9449L176.525 22.9484Z" fill="#EBBEA7"/>
<path d="M175.537 18.2302C175.369 18.3006 175.2 18.3745 175.038 18.4555C174.985 18.4802 174.933 18.5083 174.88 18.533C174.845 18.5506 174.809 18.5682 174.774 18.5823C174.715 18.6104 174.704 18.614 174.739 18.5999C174.475 18.7055 174.191 18.7513 173.923 18.8534C173.631 18.9625 173.364 19.121 173.076 19.2442C173.111 19.2266 173.097 19.2337 173.034 19.2583C172.995 19.2724 172.956 19.29 172.918 19.3041C172.858 19.3252 172.802 19.3498 172.742 19.371C172.584 19.4308 172.429 19.4907 172.271 19.5505C172.014 19.6491 171.81 19.9097 171.901 20.2019C171.982 20.4519 172.274 20.6773 172.552 20.5716C172.844 20.459 173.139 20.3498 173.431 20.2336C173.582 20.1702 173.73 20.1033 173.878 20.0294C173.983 19.9766 174.152 19.8956 174.208 19.8745C174.475 19.7724 174.76 19.7231 175.024 19.621C175.175 19.5611 175.326 19.4942 175.471 19.4203C175.541 19.3851 175.611 19.3498 175.682 19.3146C175.717 19.297 175.752 19.2794 175.787 19.2653C175.847 19.2372 175.857 19.2337 175.822 19.2477C176.075 19.1456 176.286 18.8921 176.191 18.5964C176.111 18.3499 175.815 18.1175 175.541 18.2267L175.537 18.2302Z" fill="#A55535"/>
<path d="M156.018 20.776C155.585 20.5577 155.068 20.6492 154.702 20.959C154.358 21.2478 154.316 21.7477 154.344 22.1667C154.379 22.6386 154.509 23.0752 154.822 23.4378C155.089 23.7477 155.504 23.98 155.909 24.0399C156.053 24.061 156.183 24.0645 156.317 23.9871C156.426 23.9237 156.531 23.797 156.559 23.6702C156.615 23.4167 156.482 23.0646 156.19 23.0188C156.116 23.0083 156.042 22.9907 155.972 22.9695L155.937 22.959C155.884 22.9378 155.891 22.9414 155.961 22.973C155.933 22.9695 155.902 22.9449 155.877 22.9343C155.817 22.9026 155.761 22.8674 155.708 22.8287C155.606 22.7618 155.789 22.9061 155.705 22.8252C155.68 22.8005 155.652 22.7794 155.627 22.7547C155.606 22.7336 155.589 22.7125 155.571 22.6914C155.546 22.6597 155.557 22.6738 155.603 22.7336C155.592 22.7195 155.582 22.7055 155.575 22.6914C155.539 22.6421 155.483 22.5681 155.473 22.5083C155.497 22.5717 155.504 22.5822 155.49 22.547C155.483 22.5294 155.476 22.5118 155.473 22.4942C155.462 22.459 155.452 22.4203 155.441 22.385C155.434 22.3534 155.427 22.3217 155.42 22.2935C155.416 22.2724 155.406 22.1456 155.409 22.2336C155.413 22.3217 155.409 22.209 155.409 22.1914C155.409 22.1527 155.406 22.1174 155.402 22.0787C155.402 22.0153 155.399 21.9555 155.402 21.8921C155.402 21.8569 155.406 21.8252 155.409 21.79C155.409 21.7266 155.381 21.9027 155.409 21.8111C155.409 21.8076 155.434 21.7125 155.437 21.7125C155.406 21.7794 155.399 21.797 155.42 21.7618C155.427 21.7477 155.437 21.7301 155.444 21.7161L155.402 21.7689C155.402 21.7689 155.427 21.7442 155.441 21.7301C155.43 21.7583 155.328 21.797 155.413 21.7548C155.43 21.7477 155.529 21.6985 155.444 21.7337C155.36 21.7689 155.448 21.7337 155.469 21.7301C155.501 21.7231 155.532 21.7196 155.561 21.709C155.441 21.7442 155.487 21.7231 155.543 21.7196C155.638 21.709 155.427 21.6844 155.518 21.7125C155.561 21.7266 155.634 21.7653 155.497 21.6984C155.743 21.8217 156.081 21.7724 156.218 21.5083C156.345 21.2689 156.292 20.9168 156.028 20.7865L156.018 20.776Z" fill="#2B2927"/>
<path d="M152.945 16.6704C152.358 16.6246 151.77 16.7302 151.232 16.9591C150.947 17.0788 150.677 17.2056 150.434 17.3922C150.325 17.4767 150.234 17.5682 150.146 17.6739C150.086 17.7478 150.03 17.8218 149.973 17.8992C149.966 17.9098 149.91 17.9837 149.949 17.9309C149.994 17.871 149.914 17.9767 149.914 17.9767C149.741 18.1915 149.689 18.5154 149.914 18.7231C150.107 18.8992 150.473 18.952 150.659 18.7231C150.715 18.6562 150.768 18.5858 150.821 18.5154C150.835 18.4978 150.951 18.3534 150.867 18.452C150.937 18.364 151.011 18.283 151.095 18.2055C151 18.2936 151.148 18.1738 151.172 18.1562C151.211 18.1316 151.253 18.1069 151.296 18.0858C151.352 18.0541 151.408 18.026 151.468 18.0013C151.485 17.9943 151.665 17.9133 151.559 17.9591C151.777 17.8675 152.006 17.7971 152.238 17.7513C152.259 17.7478 152.452 17.7232 152.34 17.7337C152.407 17.7267 152.474 17.7196 152.54 17.7196C152.674 17.7126 152.811 17.7196 152.945 17.7267C153.219 17.7478 153.483 17.4697 153.472 17.1985C153.458 16.8922 153.24 16.695 152.945 16.6704Z" fill="#2B2927"/>
<path d="M162.185 23.6807C162.41 23.8286 162.604 24.0187 162.801 24.2018C162.998 24.3849 163.251 24.5609 163.427 24.7828C163.588 24.987 163.69 25.2405 163.785 25.4834C163.894 25.7546 163.961 26.0327 163.986 26.325C164 26.5151 164.137 26.6771 164.337 26.6771C164.517 26.6771 164.703 26.5151 164.689 26.325C164.661 25.9799 164.598 25.6419 164.471 25.318C164.344 24.994 164.225 24.6842 164.021 24.4095C163.817 24.1349 163.564 23.9413 163.318 23.7194C163.071 23.4976 162.825 23.2582 162.54 23.0716C162.382 22.9659 162.15 23.0399 162.059 23.1983C161.957 23.3709 162.027 23.5751 162.185 23.6807Z" fill="#BC7F6C"/>
<path d="M164.479 19.1598C164.749 19.1387 165.02 19.0859 165.287 19.0507L165.192 19.0648C165.273 19.0542 165.351 19.0436 165.432 19.0401C165.526 19.0331 165.611 19.0049 165.681 18.938C165.741 18.8782 165.787 18.776 165.783 18.688C165.78 18.6 165.748 18.5014 165.681 18.438C165.614 18.3747 165.523 18.3289 165.432 18.3359C165.161 18.357 164.89 18.4099 164.623 18.4451L164.718 18.431C164.637 18.4415 164.559 18.4521 164.479 18.4556C164.384 18.4627 164.299 18.4908 164.229 18.5577C164.169 18.6176 164.123 18.7197 164.127 18.8077C164.13 18.8958 164.162 18.9943 164.229 19.0577C164.296 19.1211 164.387 19.1669 164.479 19.1598Z" fill="#BC7F6C"/>
<path d="M164.437 20.2223C164.718 20.2364 164.996 20.275 165.277 20.2891C165.46 20.2997 165.636 20.1203 165.629 19.9375C165.618 19.7405 165.474 19.5964 165.277 19.5858C164.996 19.5717 164.718 19.5331 164.437 19.519C164.254 19.5084 164.078 19.6878 164.085 19.8706C164.095 20.0676 164.24 20.2117 164.437 20.2223Z" fill="#BC7F6C"/>
<path d="M163.547 10.6672C163.635 10.9207 163.677 11.1989 163.79 11.4524C163.899 11.6988 164.064 11.9242 164.194 12.1707C164.324 12.4171 164.472 12.6389 164.613 12.8749C164.753 13.1108 164.862 13.3643 165.02 13.5896C165.179 13.815 165.386 14.0016 165.555 14.2128C165.724 14.4241 165.857 14.6776 166.037 14.8783C166.216 15.079 166.434 15.2656 166.627 15.4522C166.821 15.6388 167.064 15.7937 167.271 15.9628C167.478 16.1318 167.689 16.3254 167.911 16.4733C168.147 16.6317 168.396 16.7444 168.628 16.8641C168.882 16.9944 169.121 17.1282 169.37 17.2057C169.641 17.2902 169.915 17.3183 170.176 17.3395C170.457 17.3606 170.721 17.3359 170.981 17.2726C171.241 17.2092 171.477 17.093 171.709 16.9345C171.937 16.7796 172.148 16.6177 172.331 16.4064C172.514 16.1951 172.679 15.9909 172.816 15.7445C172.954 15.498 173.091 15.2691 173.186 15.005C173.274 14.7515 173.333 14.4769 173.393 14.2023C173.453 13.9276 173.439 13.6565 173.471 13.3784C173.502 13.1002 173.565 12.8396 173.572 12.558C173.58 12.2763 173.541 12.0122 173.53 11.7341C173.52 11.4559 173.509 11.1848 173.474 10.9101C173.439 10.6355 173.407 10.3644 173.358 10.0933C173.309 9.82217 173.214 9.55809 173.147 9.29754C173.08 9.03699 173.042 8.74827 172.954 8.49476C172.866 8.24125 172.732 7.98069 172.623 7.73775C172.507 7.47719 172.426 7.2096 172.293 6.97722C172.148 6.73075 171.976 6.5054 171.814 6.30119C171.631 6.07584 171.417 5.8998 171.216 5.73783C170.977 5.5477 170.728 5.36461 170.457 5.22729C170.186 5.08997 169.887 5.00899 169.595 4.92096C169.304 4.83294 169.005 4.77308 168.702 4.73083C168.4 4.68858 168.094 4.70971 167.791 4.71323C167.5 4.71675 167.222 4.66041 166.962 4.68858C166.67 4.71675 166.406 4.82238 166.153 4.87519C165.864 4.93857 165.604 5.00547 165.362 5.09701C165.087 5.20264 164.852 5.33292 164.63 5.47024C164.384 5.62516 164.131 5.74839 163.948 5.94205C163.755 6.14626 163.617 6.39273 163.491 6.63568C163.364 6.87863 163.252 7.13214 163.188 7.40678C163.125 7.68141 163.132 7.94901 163.122 8.23068C163.115 8.49828 163.086 8.77644 163.122 9.05811C163.153 9.32571 163.227 9.59682 163.294 9.87146C163.357 10.1355 163.456 10.3926 163.547 10.6602V10.6672Z" fill="#97928C"/>
<path d="M158.602 17.2092C159.116 17.0684 159.608 17.0226 160.17 17.0578C160.659 17.086 161.152 17.1916 161.651 17.3958C161.908 17.5015 162.242 17.2832 162.301 17.0261C162.372 16.7198 162.206 16.4874 161.932 16.3747C160.817 15.917 159.485 15.8677 158.324 16.1881C158.057 16.2621 157.867 16.5649 157.955 16.8395C158.043 17.1141 158.317 17.2867 158.606 17.2092H158.602Z" fill="#2B2927"/>
<path d="M159.151 21.4237C159.499 21.5329 159.865 21.5998 160.22 21.6878C160.61 21.7828 161.011 21.8216 161.412 21.8638C161.687 21.892 161.95 21.5998 161.94 21.3357C161.926 21.0258 161.708 20.8392 161.412 20.8075C161.317 20.797 161.226 20.7899 161.131 20.7794C161.092 20.7758 161.05 20.7723 161.011 20.7653C160.983 20.7653 160.959 20.7582 160.93 20.7547L160.99 20.7618C160.811 20.7477 160.632 20.6984 160.459 20.6561C160.118 20.5716 159.767 20.5083 159.429 20.4026C159.165 20.3216 158.842 20.5012 158.778 20.7723C158.712 21.0575 158.866 21.3357 159.148 21.4237H159.151Z" fill="#2B2927"/>
<path d="M153.043 20.8604C152.941 20.9343 152.842 21.0118 152.744 21.0893C152.698 21.1245 152.709 21.1174 152.768 21.0717C152.751 21.0857 152.733 21.0998 152.712 21.1139C152.677 21.1421 152.638 21.1702 152.6 21.1949C152.455 21.3005 152.301 21.3885 152.142 21.4766C151.822 21.6491 151.509 21.8322 151.179 21.9871C151.066 22.0399 150.968 22.1878 150.936 22.304C150.901 22.4308 150.919 22.5998 150.989 22.7124C151.154 22.9695 151.443 23.0293 151.71 22.9026C152.037 22.7476 152.353 22.5646 152.673 22.392C152.832 22.3075 152.983 22.216 153.131 22.1103C153.233 22.0364 153.331 21.9589 153.433 21.8815C153.468 21.8533 153.503 21.8216 153.542 21.797C153.415 21.8885 153.546 21.797 153.574 21.7759C153.686 21.6914 153.778 21.6033 153.816 21.459C153.851 21.3322 153.834 21.1632 153.764 21.0505C153.693 20.9379 153.584 20.8393 153.447 20.8076C153.31 20.7759 153.152 20.7759 153.039 20.8604H153.043Z" fill="#2B2927"/>
<path d="M155.198 26.9446C155.725 27.0397 156.295 27.0714 156.833 27.0749C157.382 27.0749 157.927 27.0151 158.465 26.913C158.94 26.8214 159.369 26.6172 159.819 26.4517C160.318 26.2686 160.729 26.0221 161.165 25.7193C161.401 25.5574 161.507 25.2581 161.355 24.9975C161.218 24.7652 160.87 24.6454 160.634 24.8074C160.279 25.0539 159.945 25.2827 159.541 25.4341C159.136 25.5855 158.711 25.7862 158.268 25.8778C157.821 25.9693 157.371 26.0116 156.918 26.0186C156.668 26.0186 156.418 26.001 156.172 25.9834C155.944 25.9658 155.711 25.9658 155.483 25.9271C155.202 25.8778 154.913 26.0045 154.832 26.2968C154.762 26.5503 154.92 26.8953 155.202 26.9482L155.198 26.9446Z" fill="#A55535"/>
<path d="M151.517 15.1177C151.844 15.1353 152.164 15.1951 152.491 15.1881C152.79 15.1811 153.085 15.1423 153.384 15.1282C154.024 15.093 154.664 15.0332 155.297 14.9346C155.93 14.836 156.542 14.7374 157.143 14.5755C157.787 14.4029 158.444 14.2234 159.116 14.2198C159.57 14.2198 159.57 13.5121 159.116 13.5156C158.458 13.5192 157.794 13.6706 157.164 13.8396C156.535 14.0086 155.905 14.1177 155.272 14.2269C154.664 14.3325 154.045 14.3888 153.426 14.4205C153.113 14.4381 152.804 14.4769 152.491 14.4839C152.164 14.4909 151.84 14.4311 151.517 14.4135C151.063 14.3888 151.067 15.093 151.517 15.1177Z" fill="#BC7F6C"/>
<path d="M151.503 12.97C152.125 12.9946 152.748 12.9629 153.37 12.9524C153.704 12.9488 154.028 12.9805 154.358 12.9348C154.664 12.8925 154.963 12.8115 155.269 12.7798C155.575 12.7481 155.902 12.7341 156.208 12.6531C156.514 12.5721 156.809 12.4594 157.119 12.3925C157.783 12.2482 158.416 12.0686 159.098 12.0721C159.552 12.0721 159.552 11.3714 159.098 11.3679C158.42 11.3679 157.797 11.5299 157.14 11.6707C156.809 11.7411 156.496 11.8327 156.176 11.9313C155.874 12.0228 155.578 12.0475 155.265 12.0756C154.952 12.1038 154.643 12.1777 154.33 12.2306C154.017 12.2834 153.718 12.2446 153.409 12.2482C152.772 12.2517 152.139 12.2904 151.503 12.2658C151.049 12.2482 151.053 12.9524 151.503 12.97Z" fill="#BC7F6C"/>
<path d="M167.548 8.95938C168.076 9.01572 168.589 9.0474 169.113 9.14951C169.647 9.25514 170.175 9.3995 170.709 9.49809C170.98 9.54738 171.251 9.56147 171.518 9.63189C171.768 9.69878 172.014 9.78329 172.264 9.85019C172.513 9.91709 172.798 9.9523 173.055 10.0403C173.301 10.1248 173.53 10.2657 173.776 10.3502C174.043 10.4452 174.352 10.2445 174.426 9.98046C174.507 9.68822 174.328 9.42415 174.057 9.32908C173.821 9.2481 173.607 9.1143 173.371 9.0298C173.104 8.93473 172.819 8.89952 172.545 8.8291C172.281 8.7622 172.025 8.66714 171.757 8.60024C171.48 8.52982 171.191 8.51926 170.91 8.46292C170.375 8.35377 169.848 8.21293 169.313 8.11434C169.022 8.06153 168.73 8.01576 168.438 7.9735C168.146 7.93125 167.847 7.93477 167.552 7.89956C167.256 7.86435 167.024 8.16364 167.024 8.42771C167.024 8.73756 167.267 8.92417 167.552 8.95586L167.548 8.95938Z" fill="#7C7670"/>
<path d="M168.413 11.4031C168.867 11.4665 169.317 11.5299 169.757 11.6566C170.207 11.7869 170.653 11.9277 171.103 12.051C171.494 12.1566 171.877 12.2024 172.25 12.3749C172.665 12.565 173.083 12.7446 173.495 12.9383C173.751 13.058 174.064 13.0122 174.216 12.7481C174.349 12.5193 174.286 12.146 174.026 12.0263C173.611 11.8362 173.192 11.6566 172.781 11.463C172.566 11.3644 172.352 11.2658 172.127 11.1989C171.902 11.132 171.68 11.1073 171.459 11.051C171.009 10.9383 170.562 10.7905 170.119 10.6602C169.651 10.5229 169.18 10.4524 168.698 10.382C168.417 10.3433 168.132 10.4524 168.048 10.7517C167.981 10.9982 168.132 11.3609 168.417 11.4031H168.413Z" fill="#7C7670"/>
</svg>
