<svg xmlns="http://www.w3.org/2000/svg" xmlns:xlink="http://www.w3.org/1999/xlink" width="51" height="51" viewBox="0 0 51 51">
  <defs>
    <linearGradient id="linear-gradient" x1="0.5" x2="0.5" y2="1" gradientUnits="objectBoundingBox">
      <stop offset="0" stop-color="#fff" stop-opacity="0.627"/>
      <stop offset="1" stop-color="#fff"/>
    </linearGradient>
  </defs>
  <g id="Group_5" data-name="Group 5" transform="translate(1 1)">
    <path id="Oval_3" data-name="Oval 3" d="M23.5,47A23.5,23.5,0,0,1,6.883,6.883,23.5,23.5,0,0,1,40.117,40.117,23.346,23.346,0,0,1,23.5,47ZM17.958,15.865a4.309,4.309,0,0,0-3.676,1.61A8.049,8.049,0,0,0,13.077,22.3v2.584a7.83,7.83,0,0,0,1.256,4.722A4.327,4.327,0,0,0,17.978,31.2a4.272,4.272,0,0,0,3.666-1.635,8.178,8.178,0,0,0,1.205-4.855V22.13a7.815,7.815,0,0,0-1.236-4.7A4.338,4.338,0,0,0,17.958,15.865Zm11.843,2a2.092,2.092,0,0,1,1.616.656,2.466,2.466,0,0,1,.6,1.723,3.264,3.264,0,0,1-.456,1.615,12.467,12.467,0,0,1-1.533,2.005l-4.973,5.424V31H35.091V29.011H28.16l3.65-3.907a13.377,13.377,0,0,0,2.066-2.784,5.151,5.151,0,0,0,.631-2.343,3.808,3.808,0,0,0-1.256-3.02,5.073,5.073,0,0,0-3.43-1.092,5.669,5.669,0,0,0-2.66.6,4.283,4.283,0,0,0-1.774,1.7,4.9,4.9,0,0,0-.621,2.455h2.492a2.92,2.92,0,0,1,.666-2.02A2.408,2.408,0,0,1,29.8,17.865ZM17.978,29.216a1.971,1.971,0,0,1-1.835-1.025,6.506,6.506,0,0,1-.585-3.118V21.689a5.871,5.871,0,0,1,.6-2.9,1.966,1.966,0,0,1,1.795-.928,1.967,1.967,0,0,1,1.825.979,6.344,6.344,0,0,1,.574,3.081V25.3a6.131,6.131,0,0,1-.6,2.968A1.936,1.936,0,0,1,17.978,29.216Z" transform="translate(1 1)" fill="url(#linear-gradient)"/>
    <g id="Oval" transform="translate(1 1)" fill="none" stroke="#fff" stroke-width="1">
      <circle cx="23.5" cy="23.5" r="23.5" stroke="none"/>
      <circle cx="23.5" cy="23.5" r="23" fill="none"/>
    </g>
    <g id="Oval-2" data-name="Oval" fill="none" stroke="#fff" stroke-width="1" opacity="0.5">
      <circle cx="24.5" cy="24.5" r="24.5" stroke="none"/>
      <circle cx="24.5" cy="24.5" r="25" fill="none"/>
    </g>
  </g>
</svg>
