<?xml version="1.0" encoding="UTF-8"?>
<svg width="26px" height="24px" viewBox="0 0 26 24" version="1.1" xmlns="http://www.w3.org/2000/svg" xmlns:xlink="http://www.w3.org/1999/xlink">
    <title>Group 5</title>
    <g id="confirm-main" stroke="none" stroke-width="1" fill="none" fill-rule="evenodd">
        <g id="confirm-main-scroll2-copy-3" transform="translate(-333.000000, -563.000000)">
            <g id="Group-5" transform="translate(335.000000, 565.000000)">
                <path d="M11.1768991,-0.75 L11.2039144,3.178125 L11.2039144,4.321875 C11.2039144,5.08094117 10.8797243,5.77216326 10.3597397,6.27420836 C9.84116973,6.77488769 9.12939728,7.08333333 8.37058105,7.08333333 C7.61164711,7.08333333 6.89977259,6.77480113 6.38116342,6.27382466 C5.86139048,5.77172401 5.53724772,5.0803886 5.53724772,4.32083333 L5.53724772,2.95085753 L8.00691207,-0.75 L11.1768991,-0.75 Z M7.53472312,-0.75 L4.91666667,3.39514283 L4.91666667,4.321875 C4.91666667,5.08094117 4.59247657,5.77216326 4.072492,6.27420836 C3.55392201,6.77488769 2.84214956,7.08333333 2.08333333,7.08333333 C1.32439939,7.08333333 0.612524869,6.77480113 0.0939156953,6.27382466 C-0.42585724,5.77172401 -0.75,5.0803886 -0.75,4.32083333 L-0.75,2.81181299 L3.81930057,-0.75 L7.53472312,-0.75 Z M14.7419035,-0.75 L17.1845622,2.8750612 L17.1845622,4.24791667 C17.1845622,5.0028941 16.8606228,5.71584953 16.3396104,6.23738298 C15.8185657,6.75894875 15.1062183,7.08333333 14.3512288,7.08333333 C13.5954372,7.08333333 12.883204,6.75956246 12.3624352,6.23879363 C11.8416664,5.71802479 11.5178955,5.00579167 11.5178955,4.25 L11.5178955,3.09531168 L11.6300827,-0.75 L14.7419035,-0.75 Z M18.5032868,-0.75 L23.114266,2.84409148 L23.114266,4.35416667 C23.114266,5.11553765 22.7901705,5.79703925 22.2714608,6.29030678 C21.7542507,6.78214815 21.0429539,7.08333333 20.283016,7.08333333 C19.5277697,7.08333333 18.8153357,6.7595164 18.2943443,6.23852504 C17.7735832,5.71776391 17.4496826,5.00562858 17.4496826,4.25 L17.4496826,3.3247829 L14.8547756,-0.75 L18.5032868,-0.75 Z" id="Shape" stroke="#FFFFFF" stroke-width="1.5" stroke-linejoin="round" fill-rule="nonzero"></path>
                <path d="M19.9583333,9.16666667 C20.3035113,9.16666667 20.6160113,9.30657768 20.8422168,9.53278319 C21.0684223,9.7589887 21.2083333,10.0714887 21.2083333,10.4166667 L21.2083333,20 C21.2083333,20.345178 21.0684223,20.657678 20.8422168,20.8838835 C20.6160113,21.110089 20.3035113,21.25 19.9583333,21.25 L2.04166667,21.25 C1.6964887,21.25 1.3839887,21.110089 1.15778319,20.8838835 C0.931577682,20.657678 0.791666667,20.345178 0.791666667,20 L0.791666667,10.4166667 C0.791666667,10.0714887 0.931577682,9.7589887 1.15778319,9.53278319 C1.3839887,9.30657768 1.6964887,9.16666667 2.04166667,9.16666667 Z" id="Path" stroke="#FFFFFF" stroke-width="1.5" fill-rule="nonzero"></path>
                <path d="M6.99825778,17.5052267 L5.89497139,13.1202501 L5.89497139,17.8714239 C5.89497139,18.1343347 5.83628594,18.3315178 5.71891505,18.4629732 C5.60154416,18.5944286 5.44583211,18.6601563 5.2517789,18.6601563 C5.06398548,18.6601563 4.91062084,18.595211 4.79168501,18.4653206 C4.67274917,18.3354301 4.61328125,18.1374645 4.61328125,17.8714239 L4.61328125,12.4254145 C4.61328125,12.124945 4.69152851,11.9222846 4.84802303,11.8174332 C5.00451756,11.7125819 5.21578516,11.6601563 5.48182585,11.6601563 L5.91375073,11.6601563 C6.17353164,11.6601563 6.36210754,11.6836304 6.47947843,11.7305788 C6.59684933,11.7775271 6.68370379,11.8620342 6.74004181,11.9840999 C6.79637984,12.1061656 6.8605426,12.3049137 6.93253008,12.580344 L7.93253008,16.3502971 L8.93253008,12.580344 C9.00451756,12.3049137 9.06868031,12.1061656 9.12501834,11.9840999 C9.18135637,11.8620342 9.26821083,11.7775271 9.38558172,11.7305788 C9.50295261,11.6836304 9.69152851,11.6601563 9.95130942,11.6601563 L10.3832343,11.6601563 C10.649275,11.6601563 10.8605426,11.7125819 11.0170371,11.8174332 C11.1735316,11.9222846 11.2517789,12.124945 11.2517789,12.4254145 L11.2517789,17.8714239 C11.2517789,18.1343347 11.1930935,18.3315178 11.0757226,18.4629732 C10.9583517,18.5944286 10.8010747,18.6601563 10.6038916,18.6601563 C10.419228,18.6601563 10.2674284,18.5944286 10.1484925,18.4629732 C10.0295567,18.3315178 9.97008876,18.1343347 9.97008876,17.8714239 L9.97008876,13.1202501 L8.86680238,17.5052267 C8.7948149,17.7900467 8.73612945,17.9989669 8.69074604,18.1319872 C8.64536263,18.2650076 8.56163806,18.3862908 8.43957233,18.495837 C8.3175066,18.6053832 8.14849252,18.6601563 7.93253008,18.6601563 C7.76977577,18.6601563 7.63206059,18.624945 7.51938454,18.5545224 C7.40670848,18.4840999 7.31907155,18.3941156 7.25647374,18.2845694 C7.19387593,18.1750232 7.14458015,18.05374 7.10858641,17.9207196 C7.07259267,17.7876993 7.03581646,17.6492016 6.99825778,17.5052267 Z" id="Path" fill="#FFFFFF" fill-rule="nonzero"></path>
                <g id="Fill-2473" transform="translate(13.000000, 10.000000)" fill="#FFFFFF">
                    <path d="M3.47355576,5.03992399 C4.89902388,4.43909895 6.65686643,4.794312 7.03546512,5.42154693 C7.18910576,5.67596222 6.8791831,6.14077632 6.41606005,5.9818768 C5.95205653,5.82297729 5.70816853,5.94622345 5.51006456,6.14693863 C5.29303066,6.36790139 5.06851283,7.0567594 5.98331293,7.43838234 C6.68504121,7.73153214 7.89391565,7.70248126 8.80827553,6.79838263 C9.29473083,6.31816276 9.32510677,5.83750273 9.56019015,5.60553584 C9.90533129,5.26484824 10.3548072,5.31634753 10.619386,5.62666376 C10.6814586,5.6988508 10.7206392,5.77984113 10.7426507,5.86699377 C10.8826442,6.42072117 10.2975771,7.22578271 9.93262561,7.62941389 C9.51000381,8.09686898 8.4688574,8.94858799 7.05571575,8.99744629 C5.64169364,9.04542426 4.67934859,8.40806554 3.96397314,7.86842341 C3.24903793,7.32966162 2.43196912,6.55277063 1.5,6.92118863 L1.51246367,6.89386982 C1.60044591,6.70704051 2.16193522,5.60869355 3.44053843,5.0548896 C3.45198444,5.04960762 3.46254999,5.04476581 3.47355576,5.03992399 Z M6.13819932,1.00051702 L6.31696404,1.00343612 C8.34343557,1.1110711 8.44478654,3.03924361 8.44929346,3.2958549 L8.44944321,3.32398528 L8.44151905,3.33542957 C8.93413758,3.34027138 10.4626198,3.49652991 10.7289595,5.20613025 C10.554628,5.07408079 10.3494804,4.9974921 10.1324465,4.98824864 C9.82692614,4.97592402 9.52844949,5.09784969 9.29072473,5.33245756 C9.14368756,5.47771197 9.06356551,5.65465824 8.97904115,5.84172831 C8.87866847,6.06313124 8.77477395,6.29245713 8.53881011,6.52574451 C7.77456902,7.28106742 6.75499393,7.34489132 6.13118654,7.08431372 C5.95773551,7.01212669 5.74290276,6.88756003 5.70636358,6.70577194 C5.68127041,6.58164545 5.74422345,6.4557583 5.78340402,6.41614346 C5.87629277,6.32150801 5.96477921,6.23259471 6.29143064,6.34483675 C6.66122471,6.47116407 7.03762225,6.36860565 7.27358609,6.07677635 C7.48093491,5.82016023 7.51747409,5.47771197 7.36427369,5.22329668 C6.80253888,4.29278815 4.7933244,4.1343288 3.45238065,4.63567658 C3.49552329,2.83848344 4.50233168,0.907480175 6.31696404,1.00343612 Z"></path>
                </g>
            </g>
        </g>
    </g>
</svg>