<svg xmlns="http://www.w3.org/2000/svg" xmlns:xlink="http://www.w3.org/1999/xlink" width="25.364" height="23.5" viewBox="0 0 25.364 23.5">
  <defs>
    <linearGradient id="linear-gradient" x1="0.177" y1="0.165" x2="1" y2="1" gradientUnits="objectBoundingBox">
      <stop offset="0" stop-color="#29d591"/>
      <stop offset="1" stop-color="#21c3a2"/>
    </linearGradient>
  </defs>
  <g id="Group_5" data-name="Group 5" transform="translate(1.5 1.5)">
    <g id="Shape" fill="none" stroke-linejoin="round" stroke-miterlimit="10">
      <path d="M18.2,4.25V3.106L16.222,0h2.024l4.118,3.21V4.354a2.045,2.045,0,0,1-2.081,1.979A2.136,2.136,0,0,1,18.2,4.25Zm-5.932,0V3.106L12.359,0h1.985l2.092,3.1V4.248a2.084,2.084,0,1,1-4.167,0Zm-5.981.071V3.178L8.408,0h2.024l.022,3.178V4.322a2.084,2.084,0,0,1-4.166,0ZM0,4.321V3.178L4.077,0h2.1L4.167,3.178V4.322A2.085,2.085,0,0,1,0,4.321Z" stroke="none"/>
      <path d="M 20.28330039978027 6.333300113677979 C 21.39300155639648 6.333300113677979 22.36410140991211 5.465700149536133 22.36410140991211 4.354199886322021 L 22.36410140991211 3.210299968719482 L 18.24570083618164 5.683898862685055e-08 L 16.22160148620605 5.683898862685055e-08 L 18.19980049133301 3.105900049209595 L 18.19980049133301 4.249800205230713 C 18.19980049133301 5.361299991607666 19.17270088195801 6.333300113677979 20.28330039978027 6.333300113677979 M 14.35140037536621 6.333300113677979 C 15.46200084686279 6.333300113677979 16.43490028381348 5.35860013961792 16.43490028381348 4.248000144958496 L 16.43490028381348 3.104099988937378 L 14.34330081939697 5.683898862685055e-08 L 12.35880088806152 5.683898862685055e-08 L 12.26790046691895 3.105900049209595 L 12.26790046691895 4.249800205230713 C 12.26790046691895 5.361299991607666 13.23990058898926 6.333300113677979 14.35140037536621 6.333300113677979 M 8.370901107788086 6.333300113677979 C 9.482400894165039 6.333300113677979 10.45350074768066 5.432400226593018 10.45350074768066 4.321800231933594 L 10.45350074768066 3.177900075912476 L 10.43190097808838 5.683898862685055e-08 L 8.407800674438477 5.683898862685055e-08 L 6.287400722503662 3.177900075912476 L 6.287400722503662 4.320899963378906 C 6.287400722503662 5.432400226593018 7.259400844573975 6.333300113677979 8.370901107788086 6.333300113677979 M 2.083500623703003 6.333300113677979 C 3.195000648498535 6.333300113677979 4.167000770568848 5.432400226593018 4.167000770568848 4.321800231933594 L 4.167000770568848 3.177900075912476 L 6.17400074005127 5.683898862685055e-08 L 4.077000617980957 5.683898862685055e-08 L 7.049560508676223e-07 3.177900075912476 L 7.049560508676223e-07 4.320899963378906 C 7.049560508676223e-07 5.432400226593018 0.9720007181167603 6.333300113677979 2.083500623703003 6.333300113677979 M 20.28330039978027 7.833300113677979 C 19.06653594970703 7.833300113677979 17.96803283691406 7.189368724822998 17.31707572937012 6.230804920196533 C 16.66604804992676 7.189385890960693 15.56780910491943 7.833300113677979 14.35140037536621 7.833300113677979 C 13.1298942565918 7.833300113677979 12.02765941619873 7.184470653533936 11.37767314910889 6.219713687896729 C 11.23221874237061 6.437831401824951 11.06056976318359 6.642276287078857 10.86426067352295 6.829500198364258 C 10.18555068969727 7.476809978485107 9.300050735473633 7.833300113677979 8.370901107788086 7.833300113677979 C 7.441720485687256 7.833300113677979 6.556120872497559 7.47681999206543 5.877240657806396 6.829530239105225 C 5.615624904632568 6.580090522766113 5.397720813751221 6.29997444152832 5.227289199829102 5.997796535491943 C 5.056794166564941 6.300076007843018 4.838776111602783 6.580281257629395 4.576990604400635 6.82981014251709 C 3.898080587387085 7.476920127868652 3.012540817260742 7.833300113677979 2.083500623703003 7.833300113677979 C 1.15432071685791 7.833300113677979 0.2687207162380219 7.47681999206543 -0.4101592898368835 6.829530239105225 C -1.112949252128601 6.159450054168701 -1.499999284744263 5.268529891967773 -1.499999284744263 4.320899963378906 L -1.499999284744263 3.177900075912476 C -1.499999284744263 2.715569972991943 -1.286799311637878 2.279070138931274 -0.9221593141555786 1.994840025901794 L 3.154840707778931 -1.183059930801392 C 3.418350696563721 -1.388459920883179 3.742890596389771 -1.5 4.077000617980957 -1.5 L 6.17400074005127 -1.5 C 6.605429649353027 -1.5 7.009898662567139 -1.314774870872498 7.290914535522461 -1.001312494277954 C 7.573166370391846 -1.316190719604492 7.978325366973877 -1.5 8.407800674438477 -1.5 L 10.43190097808838 -1.5 C 10.79858589172363 -1.5 11.13466262817383 -1.368409276008606 11.39535808563232 -1.14971399307251 C 11.65628147125244 -1.36855149269104 11.99254894256592 -1.5 12.35880088806152 -1.5 L 14.34330081939697 -1.5 C 14.68925476074219 -1.5 15.01951694488525 -1.380720257759094 15.28244972229004 -1.169636487960815 C 15.54444885253906 -1.379941344261169 15.87428283691406 -1.5 16.22160148620605 -1.5 L 18.24570083618164 -1.5 C 18.57982063293457 -1.5 18.90437126159668 -1.388449907302856 19.16788101196289 -1.183039903640747 L 23.28628158569336 2.027260065078735 C 23.65091133117676 2.311490058898926 23.86410140991211 2.747980117797852 23.86410140991211 3.210299968719482 L 23.86410140991211 4.354199886322021 C 23.86410140991211 6.272580146789551 22.25776100158691 7.833300113677979 20.28330039978027 7.833300113677979 Z" stroke="none" fill="#29d590"/>
    </g>
    <g id="Path" transform="translate(0.042 8.417)" fill="none" stroke-miterlimit="10">
      <path d="M21.917,2a2,2,0,0,0-2-2H2A2,2,0,0,0,0,2v9.583a2,2,0,0,0,2,2H19.917a2,2,0,0,0,2-2Z" stroke="none"/>
      <path d="M 2.000003814697266 1.499996185302734 C 1.724302291870117 1.499996185302734 1.500003814697266 1.724296569824219 1.500003814697266 1.999996185302734 L 1.500003814697266 11.58333683013916 C 1.500003814697266 11.85903644561768 1.724302291870117 12.08333683013916 2.000003814697266 12.08333683013916 L 19.91666221618652 12.08333683013916 C 20.19236373901367 12.08333683013916 20.41666221618652 11.85903644561768 20.41666221618652 11.58333683013916 L 20.41666221618652 1.999996185302734 C 20.41666221618652 1.724296569824219 20.19236373901367 1.499996185302734 19.91666221618652 1.499996185302734 L 2.000003814697266 1.499996185302734 M 2.000003814697266 -3.814697265625e-06 L 19.91666221618652 -3.814697265625e-06 C 21.02123260498047 -3.814697265625e-06 21.91666221618652 0.8954267501831055 21.91666221618652 1.999996185302734 L 21.91666221618652 11.58333683013916 C 21.91666221618652 12.68790626525879 21.02123260498047 13.58333683013916 19.91666221618652 13.58333683013916 L 2.000003814697266 13.58333683013916 C 0.8954334259033203 13.58333683013916 3.814697265625e-06 12.68790626525879 3.814697265625e-06 11.58333683013916 L 3.814697265625e-06 1.999996185302734 C 3.814697265625e-06 0.8954267501831055 0.8954334259033203 -3.814697265625e-06 2.000003814697266 -3.814697265625e-06 Z" stroke="none" fill="#707070"/>
    </g>
    <path id="Path-2" data-name="Path" d="M2.385,5.845,1.282,1.46V6.211a.865.865,0,0,1-.176.592A.6.6,0,0,1,.638,7a.6.6,0,0,1-.46-.195A.855.855,0,0,1,0,6.211V.765A.683.683,0,0,1,.235.157,1.124,1.124,0,0,1,.869,0H1.3a1.647,1.647,0,0,1,.566.07.475.475,0,0,1,.261.254,3.935,3.935,0,0,1,.192.6l1,3.77,1-3.77a3.935,3.935,0,0,1,.192-.6A.475.475,0,0,1,4.772.07,1.647,1.647,0,0,1,5.338,0H5.77A1.124,1.124,0,0,1,6.4.157a.683.683,0,0,1,.235.608V6.211a.865.865,0,0,1-.176.592.6.6,0,0,1-.472.2.587.587,0,0,1-.455-.2.857.857,0,0,1-.178-.592V1.46l-1.1,4.385q-.108.427-.176.627a.865.865,0,0,1-.251.364A.732.732,0,0,1,3.319,7a.742.742,0,0,1-.676-.376A1.541,1.541,0,0,1,2.5,6.261Q2.441,6.061,2.385,5.845Z" transform="translate(7.613 11.66)" fill="url(#linear-gradient)"/>
  </g>
</svg>
