<svg xmlns="http://www.w3.org/2000/svg" xmlns:xlink="http://www.w3.org/1999/xlink" width="51" height="51" viewBox="0 0 51 51">
  <defs>
    <linearGradient id="linear-gradient" x1="0.5" x2="0.5" y2="1" gradientUnits="objectBoundingBox">
      <stop offset="0" stop-color="#fff" stop-opacity="0.627"/>
      <stop offset="1" stop-color="#fff"/>
    </linearGradient>
  </defs>
  <g id="Group_5_Copy_4" data-name="Group 5 Copy 4" transform="translate(1 1)">
    <path id="Oval_7" data-name="Oval 7" d="M23.5,47A23.5,23.5,0,0,1,6.883,6.883,23.5,23.5,0,0,1,40.117,40.117,23.346,23.346,0,0,1,23.5,47Zm9.049-31a6.887,6.887,0,0,0-5.5,2.225,9.179,9.179,0,0,0-1.913,6.152v.851a6.526,6.526,0,0,0,1.39,4.327A4.53,4.53,0,0,0,30.149,31.2,4.638,4.638,0,0,0,33.661,29.8,5.157,5.157,0,0,0,35,26.109a5.52,5.52,0,0,0-1.143-3.6,3.84,3.84,0,0,0-3.122-1.4,4.062,4.062,0,0,0-3.066,1.262,4.83,4.83,0,0,1,1.487-3.169A4.968,4.968,0,0,1,32.5,18.059h.308V16Zm-14.591-.133a4.309,4.309,0,0,0-3.676,1.61A8.049,8.049,0,0,0,13.077,22.3v2.584a7.83,7.83,0,0,0,1.256,4.722A4.327,4.327,0,0,0,17.978,31.2a4.272,4.272,0,0,0,3.666-1.635,8.178,8.178,0,0,0,1.205-4.855V22.13a7.815,7.815,0,0,0-1.236-4.7A4.338,4.338,0,0,0,17.958,15.865Zm.021,13.351a1.971,1.971,0,0,1-1.835-1.025,6.506,6.506,0,0,1-.585-3.118V21.689a5.871,5.871,0,0,1,.6-2.9,1.966,1.966,0,0,1,1.795-.928,1.967,1.967,0,0,1,1.825.979,6.344,6.344,0,0,1,.574,3.081V25.3a6.131,6.131,0,0,1-.6,2.968A1.936,1.936,0,0,1,17.978,29.216ZM30.129,29.2a2.138,2.138,0,0,1-1.805-.979,4.491,4.491,0,0,1-.7-2.641v-.759a2.714,2.714,0,0,1,1-1.23,2.639,2.639,0,0,1,1.5-.462,2.1,2.1,0,0,1,1.742.851,3.521,3.521,0,0,1,.657,2.2,3.474,3.474,0,0,1-.646,2.184A2.114,2.114,0,0,1,30.129,29.2Z" transform="translate(1 1)" fill="url(#linear-gradient)"/>
    <g id="Oval" transform="translate(1 1)" fill="none" stroke="#fff" stroke-width="1">
      <circle cx="23.5" cy="23.5" r="23.5" stroke="none"/>
      <circle cx="23.5" cy="23.5" r="23" fill="none"/>
    </g>
    <g id="Oval-2" data-name="Oval" fill="none" stroke="#fff" stroke-width="1" opacity="0.5">
      <circle cx="24.5" cy="24.5" r="24.5" stroke="none"/>
      <circle cx="24.5" cy="24.5" r="25" fill="none"/>
    </g>
  </g>
</svg>
