<svg xmlns="http://www.w3.org/2000/svg" xmlns:xlink="http://www.w3.org/1999/xlink" width="51" height="51" viewBox="0 0 51 51">
  <defs>
    <linearGradient id="linear-gradient" x1="0.5" x2="0.5" y2="1" gradientUnits="objectBoundingBox">
      <stop offset="0" stop-color="#fff" stop-opacity="0.627"/>
      <stop offset="1" stop-color="#fff"/>
    </linearGradient>
  </defs>
  <g id="Group_5_Copy" data-name="Group 5 Copy" transform="translate(1 1)">
    <path id="Oval_4" data-name="Oval 4" d="M23.5,47A23.5,23.5,0,0,1,6.883,6.883,23.5,23.5,0,0,1,40.117,40.117,23.346,23.346,0,0,1,23.5,47Zm1.246-20a3.794,3.794,0,0,0,1.374,3.056A5.333,5.333,0,0,0,29.647,31.2a5.379,5.379,0,0,0,3.625-1.189,4.026,4.026,0,0,0,1.379-3.2,3.64,3.64,0,0,0-.641-2.154,3.679,3.679,0,0,0-1.871-1.322A4.05,4.05,0,0,0,33.8,22a3.186,3.186,0,0,0,.641-1.892,3.955,3.955,0,0,0-1.276-3.122,5.161,5.161,0,0,0-3.513-1.123,5.578,5.578,0,0,0-2.445.528,4.114,4.114,0,0,0-1.7,1.472,3.78,3.78,0,0,0-.61,2.092h2.492a1.948,1.948,0,0,1,.645-1.513,2.39,2.39,0,0,1,1.651-.579,2.258,2.258,0,0,1,1.707.589,2.323,2.323,0,0,1,.559,1.656,2.132,2.132,0,0,1-.672,1.692,2.724,2.724,0,0,1-1.82.594H27.935v1.969H29.4A3,3,0,0,1,31.472,25a2.343,2.343,0,0,1,.7,1.815A2.317,2.317,0,0,1,31.5,28.6a2.6,2.6,0,0,1-1.825.616A2.516,2.516,0,0,1,27.9,28.6a2.09,2.09,0,0,1-.662-1.6ZM17.958,15.865a4.309,4.309,0,0,0-3.676,1.61A8.049,8.049,0,0,0,13.077,22.3v2.584a7.83,7.83,0,0,0,1.256,4.722A4.327,4.327,0,0,0,17.978,31.2a4.272,4.272,0,0,0,3.666-1.635,8.178,8.178,0,0,0,1.205-4.855V22.13a7.815,7.815,0,0,0-1.236-4.7A4.338,4.338,0,0,0,17.958,15.865Zm.021,13.351a1.971,1.971,0,0,1-1.835-1.025,6.506,6.506,0,0,1-.585-3.118V21.689a5.871,5.871,0,0,1,.6-2.9,1.966,1.966,0,0,1,1.795-.928,1.967,1.967,0,0,1,1.825.979,6.344,6.344,0,0,1,.574,3.081V25.3a6.131,6.131,0,0,1-.6,2.968A1.936,1.936,0,0,1,17.978,29.216Z" transform="translate(1 1)" fill="url(#linear-gradient)"/>
    <g id="Oval" transform="translate(1 1)" fill="none" stroke="#fff" stroke-width="1">
      <circle cx="23.5" cy="23.5" r="23.5" stroke="none"/>
      <circle cx="23.5" cy="23.5" r="23" fill="none"/>
    </g>
    <g id="Oval-2" data-name="Oval" fill="none" stroke="#fff" stroke-width="1" opacity="0.5">
      <circle cx="24.5" cy="24.5" r="24.5" stroke="none"/>
      <circle cx="24.5" cy="24.5" r="25" fill="none"/>
    </g>
  </g>
</svg>
