<svg xmlns="http://www.w3.org/2000/svg" xmlns:xlink="http://www.w3.org/1999/xlink" width="51" height="51" viewBox="0 0 51 51">
  <defs>
    <linearGradient id="linear-gradient" x1="0.5" x2="0.5" y2="1" gradientUnits="objectBoundingBox">
      <stop offset="0" stop-color="#fff" stop-opacity="0.627"/>
      <stop offset="1" stop-color="#fff"/>
    </linearGradient>
  </defs>
  <g id="Group_5" data-name="Group 5" transform="translate(1 1)">
    <g id="Oval" transform="translate(1 1)" fill="none" stroke="#fff" stroke-width="1">
      <circle cx="23.5" cy="23.5" r="23.5" stroke="none"/>
      <circle cx="23.5" cy="23.5" r="23" fill="none"/>
    </g>
    <path id="Oval_2" data-name="Oval 2" d="M23.5,47A23.5,23.5,0,0,1,6.883,6.883,23.5,23.5,0,0,1,40.117,40.117,23.346,23.346,0,0,1,23.5,47ZM17.958,15.865a4.309,4.309,0,0,0-3.676,1.61A8.049,8.049,0,0,0,13.077,22.3v2.584a7.83,7.83,0,0,0,1.256,4.722A4.327,4.327,0,0,0,17.978,31.2a4.272,4.272,0,0,0,3.666-1.635,8.178,8.178,0,0,0,1.205-4.855V22.13a7.815,7.815,0,0,0-1.236-4.7A4.338,4.338,0,0,0,17.958,15.865Zm11.362,3.148h0V31H31.8V16.019h-.318l-5.825,2.143v2.1l3.66-1.251Zm-11.341,10.2a1.971,1.971,0,0,1-1.835-1.025,6.506,6.506,0,0,1-.585-3.118V21.689a5.871,5.871,0,0,1,.6-2.9,1.966,1.966,0,0,1,1.795-.928,1.967,1.967,0,0,1,1.825.979,6.344,6.344,0,0,1,.574,3.081V25.3a6.131,6.131,0,0,1-.6,2.968A1.936,1.936,0,0,1,17.978,29.216Z" transform="translate(1 1)" fill="url(#linear-gradient)"/>
    <g id="Oval-2" data-name="Oval" fill="none" stroke="#fff" stroke-width="1" opacity="0.5">
      <circle cx="24.5" cy="24.5" r="24.5" stroke="none"/>
      <circle cx="24.5" cy="24.5" r="25" fill="none"/>
    </g>
  </g>
</svg>
