<?xml version="1.0" encoding="UTF-8"?>
<svg width="36px" height="36px" viewBox="0 0 36 36" version="1.1" xmlns="http://www.w3.org/2000/svg" xmlns:xlink="http://www.w3.org/1999/xlink">
    <title>Group 3 Copy 10</title>
    <defs>
        <path d="M0,0 L9.00976562,2.30464426 C6.21427657,5.65030042 5.60669193,7.71255628 7.18701172,8.49141184 C8.42895508,10.5924861 10.4119811,13.0510603 13.8647461,16.3100154 C14.1898244,16.6168465 15.0670217,16.4229174 16.4963379,15.7282282 L20.0876465,12.2858454 L20,29 L0,29 L0,0 Z" id="path-1"></path>
    </defs>
    <g id="pub" stroke="none" stroke-width="1" fill="none" fill-rule="evenodd">
        <g id="Artboard" transform="translate(-32.000000, -27.000000)">
            <g id="Group-3-Copy-10" transform="translate(32.000000, 27.000000)">
                <rect id="Rectangle" fill-opacity="0" fill="#D8D8D8" x="0" y="0" width="36" height="36"></rect>
                <path d="M27,20.0500056 C27.6213203,20.0500056 28.1838203,20.3018454 28.5909903,20.7090153 C28.9981602,21.1161852 29.25,21.6786852 29.25,22.3000056 L29.25,27.3000056 C29.25,27.9213259 28.9981602,28.4838259 28.5909903,28.8909958 C28.1838203,29.2981658 27.6213203,29.5500056 27,29.5500056 L19.479,29.55 L19.5824726,29.410961 C19.9612494,28.8651589 20.198767,28.2140295 20.2423023,27.5105899 L20.2495572,27.2742453 L20.2473042,20.0500056 Z" id="Rectangle" stroke="#333333" stroke-width="1.5"></path>
                <g id="Rectangle" transform="translate(2.000000, 2.000000)">
                    <mask id="mask-2" fill="white">
                        <use xlink:href="#path-1"></use>
                    </mask>
                    <g id="Mask"></g>
                    <path d="M16,10.0500056 C16.6213203,10.0500056 17.1838203,10.3018454 17.5909903,10.7090153 C17.9981602,11.1161852 18.25,11.6786852 18.25,12.3000056 L18.25,25.3000056 C18.25,25.9213259 17.9981602,26.4838259 17.5909903,26.8909958 C17.1838203,27.2981658 16.6213203,27.5500056 16,27.5500056 L7,27.5500056 C6.37867966,27.5500056 5.81617966,27.2981658 5.40900974,26.8909958 C5.00183983,26.4838259 4.75,25.9213259 4.75,25.3000056 L4.75,12.3000056 C4.75,11.6786852 5.00183983,11.1161852 5.40900974,10.7090153 C5.81617966,10.3018454 6.37867966,10.0500056 7,10.0500056 Z" stroke="#333333" stroke-width="1.5" mask="url(#mask-2)"></path>
                </g>
                <g id="iconmonstr-heart-filled" transform="translate(10.000000, 5.000000)" stroke="#333333" stroke-width="1.5">
                    <path d="M2.88638816,0.843706476 C3.54078251,0.682660026 4.25418837,0.726340675 4.894988,0.992900869 C5.47391726,1.2337242 5.99181149,1.65875928 6.35148473,2.27790715 L7.00003098,3.39432615 L7.64853091,2.27788024 C8.00634823,1.6618683 8.52496523,1.23862566 9.10508255,0.998602047 C9.74776346,0.732692748 10.4640589,0.688709532 11.1207604,0.850323756 C11.7328747,1.00096508 12.2956394,1.33169254 12.6878292,1.84034873 C13.0412597,2.29873561 13.25,2.89861531 13.25,3.6238739 C13.25,5.9625196 10.5471198,8.39496822 7.51005433,11.3359795 C7.34136191,11.4993366 7.17124194,11.6640764 6.99998346,11.8302284 C6.82959124,11.664867 6.66025479,11.5008716 6.49228309,11.3381981 C3.46438038,8.4058023 0.75,5.96204556 0.75,3.6238739 C0.75,2.89839865 0.959896014,2.29719199 1.31471222,1.8373558 C1.70822932,1.32736386 2.27255254,0.994771423 2.88638816,0.843706476 Z" id="Path"></path>
                </g>
                <rect id="Rectangle" fill="#333333" x="9" y="19.3000056" width="4" height="1.5" rx="0.75"></rect>
                <rect id="Rectangle" fill="#333333" x="14" y="19.3000056" width="4" height="1.5" rx="0.75"></rect>
                <rect id="Rectangle" fill="#333333" x="9" y="22.3000056" width="4" height="1.5" rx="0.75"></rect>
                <rect id="Rectangle" fill="#333333" x="14" y="22.3000056" width="4" height="1.5" rx="0.75"></rect>
                <rect id="Rectangle-Copy-7" fill="#333333" x="22.5" y="22.3000056" width="4" height="1.5" rx="0.75"></rect>
                <rect id="Rectangle" fill="#333333" x="9" y="25.3000056" width="4" height="1.5" rx="0.75"></rect>
                <rect id="Rectangle" fill="#333333" x="14" y="25.3000056" width="4" height="1.5" rx="0.75"></rect>
                <rect id="Rectangle-Copy-8" fill="#333333" x="22.5" y="25.3000056" width="4" height="1.5" rx="0.75"></rect>
            </g>
        </g>
    </g>
</svg>