<svg xmlns="http://www.w3.org/2000/svg" xmlns:xlink="http://www.w3.org/1999/xlink" width="51" height="51" viewBox="0 0 51 51">
  <defs>
    <linearGradient id="linear-gradient" x1="0.5" x2="0.5" y2="1" gradientUnits="objectBoundingBox">
      <stop offset="0" stop-color="#fff" stop-opacity="0.627"/>
      <stop offset="1" stop-color="#fff"/>
    </linearGradient>
  </defs>
  <g id="Group_5_Copy_3" data-name="Group 5 Copy 3" transform="translate(1 1)">
    <path id="Oval_6" data-name="Oval 6" d="M23.5,47A23.5,23.5,0,0,1,6.883,6.883,23.5,23.5,0,0,1,40.117,40.117,23.346,23.346,0,0,1,23.5,47Zm1.759-20.03a4.225,4.225,0,0,0,1.462,3.071,5.036,5.036,0,0,0,3.4,1.164,4.815,4.815,0,0,0,3.6-1.348,5,5,0,0,0,1.312-3.624,5.431,5.431,0,0,0-1.184-3.671A4.178,4.178,0,0,0,30.529,21.2a4.632,4.632,0,0,0-2.337.595l.41-3.568h5.947V16.07H26.53L25.72,23.6l1.989.492a2.72,2.72,0,0,1,2.174-.881A2.485,2.485,0,0,1,31.831,24a3.141,3.141,0,0,1,.707,2.158A3.56,3.56,0,0,1,31.9,28.4a2.149,2.149,0,0,1-1.789.82,2.383,2.383,0,0,1-1.661-.58,2.64,2.64,0,0,1-.778-1.666Zm-7.3-11.105a4.309,4.309,0,0,0-3.676,1.61A8.049,8.049,0,0,0,13.077,22.3v2.584a7.83,7.83,0,0,0,1.256,4.722A4.327,4.327,0,0,0,17.978,31.2a4.272,4.272,0,0,0,3.666-1.635,8.178,8.178,0,0,0,1.205-4.855V22.13a7.815,7.815,0,0,0-1.236-4.7A4.338,4.338,0,0,0,17.958,15.865Zm.021,13.351a1.971,1.971,0,0,1-1.835-1.025,6.506,6.506,0,0,1-.585-3.118V21.689a5.871,5.871,0,0,1,.6-2.9,1.966,1.966,0,0,1,1.795-.928,1.967,1.967,0,0,1,1.825.979,6.344,6.344,0,0,1,.574,3.081V25.3a6.131,6.131,0,0,1-.6,2.968A1.936,1.936,0,0,1,17.978,29.216Z" transform="translate(1 1)" fill="url(#linear-gradient)"/>
    <g id="Oval" transform="translate(1 1)" fill="none" stroke="#fff" stroke-width="1">
      <circle cx="23.5" cy="23.5" r="23.5" stroke="none"/>
      <circle cx="23.5" cy="23.5" r="23" fill="none"/>
    </g>
    <g id="Oval-2" data-name="Oval" fill="none" stroke="#fff" stroke-width="1" opacity="0.5">
      <circle cx="24.5" cy="24.5" r="24.5" stroke="none"/>
      <circle cx="24.5" cy="24.5" r="25" fill="none"/>
    </g>
  </g>
</svg>
