<?xml version="1.0" encoding="UTF-8"?>
<svg width="51px" height="61px" viewBox="0 0 51 61" version="1.1" xmlns="http://www.w3.org/2000/svg" xmlns:xlink="http://www.w3.org/1999/xlink">
    <title>Group 7@2x</title>
    <g id="confirm-main" stroke="none" stroke-width="1" fill="none" fill-rule="evenodd">
        <g id="confirm-main-scroll2-copy-3" transform="translate(-835.000000, -741.000000)">
            <g id="Group-7" transform="translate(835.386475, 741.990601)">
                <path d="M25.1612903,60 C41.9354839,46.0383248 50.3225806,34.4254216 50.3225806,25.1612903 C50.3225806,11.2650934 39.0574873,0 25.1612903,0 C11.2650934,0 0,11.2650934 0,25.1612903 C0,34.4254216 8.38709677,46.0383248 25.1612903,60 Z" id="Oval" fill="#333333"></path>
                <g id="Group-15" transform="translate(12.000000, 9.000000)" stroke="#FFFFFF" stroke-width="1.5">
                    <polygon id="Path-16" stroke-linecap="round" stroke-linejoin="round" points="0.362792969 10.4544678 13.1135254 -3.35774456e-16 25.8736572 10.7197266 25.8736572 12.7481689 23.6391602 12.935791 13.1182251 4.00256348 2.47644043 12.935791 -5.01964786e-15 12.7481689"></polygon>
                    <polyline id="Path-17" stroke-linecap="round" stroke-linejoin="round" points="3.15563965 12.1738281 3.15563965 27.701416 23.1730957 27.701416 23.1730957 12.5966797"></polyline>
                    <polyline id="Path-18" stroke-linecap="round" stroke-linejoin="round" points="22.1325684 7.4708252 22.1325684 1.72888184 18.9415283 1.72888184 18.9415283 4.80895996"></polyline>
                    <path d="M13.1700439,11.935791 C14.5727132,11.5250651 15.8815104,11.9764404 17.0964355,13.289917 C18.9188232,15.2601318 20.1552734,19.8996582 19.5370483,20.5240479 C19.1248983,20.9403076 18.6835124,21.0367432 18.2128906,20.8133545 C18.2840169,23.9219157 17.1477458,25.3719889 14.8040771,25.1635742 C14.4392497,25.2006022 14.2568359,25.2191162 14.2568359,25.2191162 L14.2824707,26.9256592" id="Path-19" stroke-linecap="round" stroke-linejoin="round"></path>
                    <path d="M6.17004395,11.935791 C7.57271322,11.5250651 8.88151042,11.9764404 10.0964355,13.289917 C11.9188232,15.2601318 13.1552734,19.8996582 12.5370483,20.5240479 C12.1248983,20.9403076 11.6835124,21.0367432 11.2128906,20.8133545 C11.2840169,23.9219157 10.1477458,25.3719889 7.80407715,25.1635742 C7.43924967,25.2006022 7.25683594,25.2191162 7.25683594,25.2191162 L7.2824707,26.9256592" id="Path-19-Copy" stroke-linecap="round" stroke-linejoin="round" transform="translate(9.434045, 19.357345) scale(-1, 1) translate(-9.434045, -19.357345) "></path>
                    <path d="M16.8808228,13.5167236 C18.9494914,13.2751058 19.9838257,13.6477051 19.9838257,14.6345215 C19.9838257,16.1147461 20.0235596,18.4089355 19.5172119,18.4089355 C19.0108643,18.4089355 17.5015869,18.3964844 17.3214111,17.4805908 C17.1412354,16.5646973 17.7619995,15.3510742 17.3214111,15.3510742 C16.8808228,15.3510742 16.0603027,14.9962158 16.0603027,14.2564697 C16.0603027,13.7633057 16.3338094,13.5167236 16.8808228,13.5167236 Z" id="Path-20" fill="#333333"></path>
                    <path d="M6.73409424,13.7550049 C8.80276286,13.513387 9.83709717,13.8859863 9.83709717,14.8728027 C9.83709717,16.3530273 9.87683105,18.6472168 9.3704834,18.6472168 C8.86413574,18.6472168 7.3548584,18.6347656 7.17468262,17.7188721 C6.99450684,16.8029785 7.615271,15.5893555 7.17468262,15.5893555 C6.73409424,15.5893555 5.91357422,15.2344971 5.91357422,14.494751 C5.91357422,14.0015869 6.18708089,13.7550049 6.73409424,13.7550049 Z" id="Path-20-Copy" fill="#333333" transform="translate(7.875701, 16.165468) scale(-1, 1) translate(-7.875701, -16.165468) "></path>
                    <line x1="11.1135254" y1="18.5093994" x2="11.1135254" y2="19.5093994" id="Line-7" stroke-linecap="round" stroke-linejoin="round"></line>
                    <line x1="15.1135254" y1="18.5093994" x2="15.1135254" y2="19.5093994" id="Line-7-Copy-3" stroke-linecap="round" stroke-linejoin="round"></line>
                    <path d="M12.1135254,22.0498047 C12.1135254,22.7749023 14.2855225,22.8280029 14.2855225,22.0498047" id="Path-21" stroke-linecap="round" stroke-linejoin="round"></path>
                </g>
            </g>
        </g>
    </g>
</svg>