<svg xmlns="http://www.w3.org/2000/svg" width="22.826" height="20" viewBox="0 0 22.826 20">
  <path id="Fill_2471_Copy_3" data-name="Fill 2471 Copy 3" d="M6.071,17.177C4.309,15.832,2.3,13.894,0,14.813a9.8,9.8,0,0,1,4.782-4.657l.081-.038c3.513-1.5,7.844-.613,8.777.952.378.635-.385,1.795-1.526,1.4a1.868,1.868,0,0,0-2.232.411c-.536.552-1.088,2.271,1.165,3.223a6.529,6.529,0,0,0,6.961-1.6c1.2-1.2,1.274-2.4,1.853-2.977a1.7,1.7,0,0,1,2.61.053,1.452,1.452,0,0,1,.3.6c.346,1.381-1.1,3.39-2,4.4a10.427,10.427,0,0,1-7.089,3.414c-.125,0-.247.006-.369.006A11.538,11.538,0,0,1,6.071,17.177Zm5.354-2.086c-.43-.179-.963-.488-1.054-.939a.9.9,0,0,1,.191-.718c.23-.235.45-.455,1.26-.177a2.157,2.157,0,0,0,2.435-.664,1.866,1.866,0,0,0,.225-2.117c-1.393-2.309-6.375-2.7-9.7-1.458.107-4.458,2.6-9.247,7.1-9.009,5.385.286,5.288,5.756,5.288,5.756l-.02.029a5.419,5.419,0,0,1,5.672,4.639,2.618,2.618,0,0,0-1.479-.54,2.806,2.806,0,0,0-2.087.853,3.966,3.966,0,0,0-.773,1.264,5.116,5.116,0,0,1-1.092,1.7,5.874,5.874,0,0,1-4.132,1.729A4.812,4.812,0,0,1,11.425,15.09Z" transform="translate(0 0)" fill="#333"/>
</svg>