<svg xmlns="http://www.w3.org/2000/svg" width="80.632" height="31.601" viewBox="0 0 80.632 31.601">
  <g id="그룹_1" data-name="그룹 1" transform="translate(-201.212 -28.753)">
    <path id="Combined_Shape" data-name="Combined Shape" d="M77.479,31.1H76.352V18.134H77.48v5.148h2.107v.949H77.48V31.1h0Zm-12,0H64.354V26.221H61.313v-.95h3.041V22.733H61.506v-.95h2.848V18.134h1.128V31.1h0Zm-54.741,0H9.615V18.134h1.128V31.1h0Zm37.773-.118h-9.3V27.9h7.744V26.754H39.182v-.9h8.9v2.908H40.34v1.305h8.175v.92h0Zm-12.977-.059H26.681v-4.2h3.842V25.018H25.256v-.934H36.962v.934H31.65v1.706h3.887v4.2Zm-7.714-.935H34.41V27.644H27.823Zm-15.158-.535V28.5h5.268v-2.21H14.1V22.243H21.79V20.166h-7.7v-.949h8.828v3.962H15.232v2.166h8.057v.95H19.059V28.5h5.312v.949Zm42.935-.7-.726-.89a8.608,8.608,0,0,0,4.57-4.317l-4.259.475-.238-1.039,4.838-.371a8.161,8.161,0,0,0,.371-2.137H55.616v-.949h5.742c-.041,4.322-1.816,7.168-5.756,9.228h0ZM.5,23.684c0-2.819,1.279-4.57,3.338-4.57a2.923,2.923,0,0,1,2.483,1.263A5.751,5.751,0,0,1,7.2,23.7a5.751,5.751,0,0,1-.87,3.322,2.923,2.923,0,0,1-2.483,1.263C1.784,28.283.5,26.52.5,23.684Zm1.068.014c0,2.156.912,3.605,2.27,3.605S6.128,25.854,6.128,23.7s-.919-3.605-2.285-3.605S1.573,21.542,1.573,23.7Zm66.411,4.228V19.484h6.157v.95H69.126v6.529h.743a33.624,33.624,0,0,0,5.489-.416l.119.935a39.184,39.184,0,0,1-6.216.445ZM49.552,24.692H37.847v-.949H49.553v.949h0ZM26.576,20.805a2.007,2.007,0,0,1,1.2-1.8,7.285,7.285,0,0,1,3.326-.637c2.875,0,4.525.886,4.525,2.434a1.979,1.979,0,0,1-1.194,1.769,7.33,7.33,0,0,1-3.331.634C28.268,23.208,26.576,22.309,26.576,20.805Zm1.113,0c0,.956,1.211,1.483,3.412,1.483,2.22,0,3.442-.527,3.442-1.483,0-.976-1.222-1.514-3.442-1.514C28.9,19.292,27.689,19.829,27.689,20.805ZM39.2,20.568c0-1.413,1.686-2.255,4.511-2.255,2.842,0,4.54.842,4.54,2.255s-1.7,2.24-4.54,2.24C40.882,22.808,39.2,21.97,39.2,20.568Zm1.157,0c0,.792,1.316,1.3,3.353,1.3,2.064,0,3.4-.513,3.4-1.3,0-.812-1.334-1.336-3.4-1.336C41.67,19.232,40.354,19.756,40.354,20.568Z" transform="translate(201.594 29.003)" fill="#0031c8" stroke="#0031c8" stroke-width="0.5"/>
    <path id="Combined_Shape-2" data-name="Combined Shape" d="M69.923,12.967H68.811V6.053H67.075V12.3h-1.1V.311h1.1V5.1h1.736V0h1.113V12.966h0Zm-13.367,0H55.444V0h1.112V12.966h0Zm-19.067,0H36.362V5.95H33.588c-.123,2.582-1.338,4.125-3.25,4.125a2.84,2.84,0,0,1-2.424-1.257,5.833,5.833,0,0,1-.855-3.327c0-2.828,1.256-4.585,3.279-4.585,1.881,0,3.1,1.526,3.25,4.08h2.774V0H37.49V12.966h0ZM28.187,5.5c0,2.114.884,3.591,2.151,3.591S32.49,7.619,32.49,5.5c0-2.131-.886-3.62-2.152-3.62C29.051,1.885,28.187,3.339,28.187,5.5Zm-4.2,7.463H22.876V0H23.99V12.966h0Zm-13.233,0H9.615V0h1.142V12.966h0Zm43.233-.653h-1.1V5.623h-2.3V4.674h2.3V.311h1.1v12h0ZM80,11.929H78.573V10.5H80v1.426h0ZM.741,10.162,0,9.318A7.368,7.368,0,0,0,3.457,3.472V1.128H4.6v2.3A6.836,6.836,0,0,0,7.968,8.991l-.713.86a8.816,8.816,0,0,1-3.2-3.961A8.624,8.624,0,0,1,.743,10.162h0Zm45.253-.074-.7-.845A6.916,6.916,0,0,0,48.071,3.56V1.2h1.112v2.33a6.528,6.528,0,0,0,2.923,5.341l-.7.831A8.022,8.022,0,0,1,48.634,5.98a7.174,7.174,0,0,1-2.64,4.109h0ZM14.212,9.778V1.35h1.142V8.783h.01A36.506,36.506,0,0,0,21.556,8.2l.1.979a41.237,41.237,0,0,1-6.87.594ZM59.39,9.629V1.588h5.03v.95h-3.9V8.65H60.9a25,25,0,0,0,4.347-.327l.1.92a31.985,31.985,0,0,1-5.1.386ZM80,5.5H78.573V4.061H80V5.495h0Z" transform="translate(201.594 29.003)" fill="#fd8106" stroke="#fd8006" stroke-width="0.5"/>
  </g>
</svg>
