<?xml version="1.0" encoding="UTF-8"?>
<svg width="196px" height="50px" viewBox="0 0 196 50" version="1.1" xmlns="http://www.w3.org/2000/svg" xmlns:xlink="http://www.w3.org/1999/xlink">
    <title>eroum</title>
    <g id="pub" stroke="none" stroke-width="1" fill="none" fill-rule="evenodd">
        <g id="Artboard-Copy-3" transform="translate(-1252.000000, -184.000000)" fill="#fff">
            <g id="eroum" transform="translate(1252.800000, 184.040000)">
                <path d="M27.96,32.76 C27.3,34.74 26.22,42.42 16.98,42.42 L14.82,42.42 C9.66,42.42 9.3,41.82 9.3,37.38 L9.3,21.12 L17.16,21.12 C21,21.12 21.36,24.6 21.72,26.76 L21.72,14.94 C21.36,17.16 21,20.58 17.16,20.58 L9.3,20.58 L9.3,1.5 L16.26,1.5 C25.5,1.5 26.58,9.18 27.24,11.16 L25.5,0.96 L0,0.96 C2.7,1.32 4.5,1.86 4.5,6.78 L4.5,37.14 C4.5,42.06 2.7,42.6 0,42.96 L26.22,42.96 L26.22,42.9 L27.96,32.76 Z" id="Path" fill-rule="nonzero"></path>
                <path d="M92.2,48.54 L92.14,48.3 C90.58,48.72 88.66,49.02 86.5,49.02 C80.32,49.02 72.58,46.56 67.06,37.98 C64.24,33.54 61.84,30.6 56.68,29.94 C74.32,27.78 73.54,0.9 54.34,0.959899706 L41.56,0.959899706 C44.26,1.32 46.06,1.86 46.06,6.78 L46.06,37.14 C46.06,42.06 44.26,42.6 41.56,42.96 L55.36,42.96 C52.72,42.6 50.86,42.06 50.86,37.14 L50.86,30.12 L54.34,30.12 C56.8,30.12 58.9,33.48 61.9,38.82 C66.64,47.28 75.1,49.86 82.72,49.86 C86.2,49.86 89.5,49.32 92.2,48.54 Z M50.86,6.54 C50.86,2.1 51.76,1.5 54.22,1.5 L54.34,1.5 C67.9,1.5 67.84,29.58 54.34,29.58 L50.86,29.58 L50.86,6.54 Z" id="Shape" fill-rule="nonzero"></path>
                <circle id="Oval" cx="34.5" cy="21.5" r="3.5"></circle>
                <path d="M116.08,21.9 C116.08,7.26 105.16,0 94.18,0 C83.26,0 72.28,7.26 72.28,21.9 C72.28,36.48 83.2,43.8 94.18,43.8 C105.1,43.8 116.08,36.48 116.08,21.9 Z M77.74,21.9 C77.74,7.56 85.96,0.42 94.18,0.42 C102.4,0.42 110.62,7.56 110.62,21.9 C110.62,36.18 102.4,43.38 94.18,43.38 C85.96,43.38 77.74,36.18 77.74,21.9 Z" id="Shape" fill-rule="nonzero"></path>
                <path d="M149.02,30.42 L149.02,9.78 C149.02,4.86 150.82,1.32 153.46,0.96 L143.98,0.96 C146.68,1.32 148.48,4.86 148.48,9.78 L148.48,30.42 C148.48,38.22 143.26,42.3 138.1,42.3 C133.12,42.3 128.2,38.46 128.2,30.42 L128.2,6.78 C128.2,1.86 130,1.32 132.7,0.96 L118.84,0.96 C121.54,1.32 123.34,1.86 123.34,6.78 L123.34,30.42 C123.28,39.36 129.7,43.86 136.18,43.86 C142.66,43.86 149.14,39.36 149.02,30.42 Z" id="Path" fill-rule="nonzero"></path>
                <path d="M185.74,37.14 C185.74,42.06 183.88,42.6 181.24,42.96 L195.04,42.96 C192.34,42.6 190.54,42.06 190.54,37.14 L190.54,6.78 C190.54,1.86 192.34,1.32 195.04,0.96 L187.06,0.96 L176.86,36.36 L165.04,0.96 L157.18,0.96 C159.82,1.32 161.68,1.86 161.68,6.78 L161.68,34.14 C161.68,39.06 159.82,42.6 157.18,42.96 L166.66,42.96 C164.02,42.6 162.16,39.06 162.16,34.14 L162.16,6.6 L174.76,43.68 L175.24,43.68 L185.74,7.26 L185.74,37.14 Z" id="Path" fill-rule="nonzero"></path>
            </g>
        </g>
    </g>
</svg>