<?xml version="1.0" encoding="UTF-8"?>
<svg width="289.572266px" height="39.4453125px" viewBox="0 0 289.572266 39.4453125" version="1.1" xmlns="http://www.w3.org/2000/svg" xmlns:xlink="http://www.w3.org/1999/xlink">
    <title>E∙ROUM Copy@2x</title>
    <g id="이로움메인" stroke="none" stroke-width="1" fill="none" fill-rule="evenodd">
        <g id="E∙ROUM-Copy" fill="#4E9857" fill-rule="nonzero">
            <polygon id="Path" points="23.0976562 22.2802734 7.91015625 22.2802734 7.91015625 32.5634766 25.734375 32.5634766 25.734375 38.9179688 0 38.9179688 0 0.52734375 25.6816406 0.52734375 25.6816406 6.93457031 7.91015625 6.93457031 7.91015625 16.0839844 23.0976562 16.0839844"></polygon>
            <polygon id="Path" points="32.6090199 26.5517578 32.6090199 18.1142578 41.0728871 18.1142578 41.0728871 26.5517578"></polygon>
            <path d="M64.3479226,24.8642578 L58.0461648,24.8642578 L58.0461648,38.9179688 L50.1360085,38.9179688 L50.1360085,0.52734375 L64.400657,0.52734375 C68.9358132,0.52734375 72.4338601,1.53808594 74.8947976,3.55957031 C77.3557351,5.58105469 78.5862038,8.4375 78.5862038,12.1289062 C78.5862038,14.7480469 78.0193093,16.9321289 76.8855202,18.6811523 C75.7517312,20.4301758 74.0334695,21.8232422 71.7307351,22.8603516 L80.0363991,38.5488281 L80.0363991,38.9179688 L71.5461648,38.9179688 L64.3479226,24.8642578 Z M58.0461648,18.4570312 L64.4270241,18.4570312 C66.4133523,18.4570312 67.9514382,17.9516602 69.041282,16.940918 C70.1311257,15.9301758 70.6760476,14.5371094 70.6760476,12.7617188 C70.6760476,10.9511719 70.1618874,9.52734375 69.1335671,8.49023438 C68.1052468,7.453125 66.5276101,6.93457031 64.400657,6.93457031 L58.0461648,6.93457031 L58.0461648,18.4570312 Z" id="Shape"></path>
            <path d="M116.133079,20.5927734 C116.133079,24.3720703 115.46511,27.6855469 114.129173,30.5332031 C112.793235,33.3808594 110.881614,35.578125 108.394309,37.125 C105.907005,38.671875 103.054954,39.4453125 99.838157,39.4453125 C96.6565163,39.4453125 93.8176491,38.6806641 91.3215554,37.1513672 C88.8254616,35.6220703 86.8918679,33.4379883 85.5207741,30.5991211 C84.1496804,27.7602539 83.4553445,24.4951172 83.4377663,20.8037109 L83.4377663,18.9052734 C83.4377663,15.1259766 84.1189187,11.7993164 85.4812234,8.92529297 C86.8435281,6.05126953 88.7683327,3.84521484 91.2556374,2.30712891 C93.7429421,0.769042969 96.5862038,0 99.7854226,0 C102.984641,0 105.827903,0.769042969 108.315208,2.30712891 C110.802512,3.84521484 112.727317,6.05126953 114.089622,8.92529297 C115.451926,11.7993164 116.133079,15.1171875 116.133079,18.8789062 L116.133079,20.5927734 Z M108.117454,18.8525391 C108.117454,14.8271484 107.396751,11.7685547 105.955344,9.67675781 C104.513938,7.58496094 102.457298,6.5390625 99.7854226,6.5390625 C97.1311257,6.5390625 95.0832741,7.57177734 93.6418679,9.63720703 C92.2004616,11.7026367 91.4709695,14.7304688 91.4533913,18.7207031 L91.4533913,20.5927734 C91.4533913,24.5126953 92.1740945,27.5537109 93.6155007,29.7158203 C95.056907,31.8779297 97.1311257,32.9589844 99.838157,32.9589844 C102.492454,32.9589844 104.531516,31.9174805 105.955344,29.8344727 C107.379173,27.7514648 108.099876,24.7148438 108.117454,20.7246094 L108.117454,18.8525391 Z" id="Shape"></path>
            <path d="M254.133079,20.5927734 C254.133079,24.3720703 253.46511,27.6855469 252.129173,30.5332031 C250.793235,33.3808594 248.881614,35.578125 246.394309,37.125 C243.907005,38.671875 241.054954,39.4453125 237.838157,39.4453125 C234.656516,39.4453125 231.817649,38.6806641 229.321555,37.1513672 C226.825462,35.6220703 224.891868,33.4379883 223.520774,30.5991211 C222.14968,27.7602539 221.455344,24.4951172 221.437766,20.8037109 L221.437766,18.9052734 C221.437766,15.1259766 222.118919,11.7993164 223.481223,8.92529297 C224.843528,6.05126953 226.768333,3.84521484 229.255637,2.30712891 C231.742942,0.769042969 234.586204,0 237.785423,0 C240.984641,0 243.827903,0.769042969 246.315208,2.30712891 C248.802512,3.84521484 250.727317,6.05126953 252.089622,8.92529297 C253.451926,11.7993164 254.133079,15.1171875 254.133079,18.8789062 L254.133079,20.5927734 Z M246.117454,18.8525391 C246.117454,14.8271484 245.396751,11.7685547 243.955344,9.67675781 C242.513938,7.58496094 240.457298,6.5390625 237.785423,6.5390625 C235.131126,6.5390625 233.083274,7.57177734 231.641868,9.63720703 C230.200462,11.7026367 229.470969,14.7304688 229.453391,18.7207031 L229.453391,20.5927734 C229.453391,24.5126953 230.174094,27.5537109 231.615501,29.7158203 C233.056907,31.8779297 235.131126,32.9589844 237.838157,32.9589844 C240.492454,32.9589844 242.531516,31.9174805 243.955344,29.8344727 C245.379173,27.7514648 246.099876,24.7148438 246.117454,20.7246094 L246.117454,18.8525391 Z" id="Shape-Copy-3"></path>
            <path d="M150.937766,0.52734375 L150.937766,25.8134766 C150.937766,30.0146484 149.623801,33.3369141 146.995872,35.7802734 C144.367942,38.2236328 140.77761,39.4453125 136.224876,39.4453125 C131.742454,39.4453125 128.182884,38.2587891 125.546165,35.8857422 C122.909446,33.5126953 121.564719,30.2519531 121.511985,26.1035156 L121.511985,0.52734375 L129.422141,0.52734375 L129.422141,25.8662109 C129.422141,28.3798828 130.024192,30.2124023 131.228294,31.3637695 C132.432395,32.5151367 134.097923,33.0908203 136.224876,33.0908203 C140.672141,33.0908203 142.93093,30.7529297 143.001243,26.0771484 L143.001243,0.52734375 L150.937766,0.52734375 Z" id="Path"></path>
            <polygon id="Path" points="167.760032 0.52734375 177.62136 28.3710938 187.429954 0.52734375 197.818626 0.52734375 197.818626 38.9179688 189.882102 38.9179688 189.882102 28.4238281 190.673118 10.3095703 180.310813 38.9179688 174.879173 38.9179688 164.543235 10.3359375 165.334251 28.4238281 165.334251 38.9179688 157.424094 38.9179688 157.424094 0.52734375"></polygon>
            <g id="N" transform="translate(257.572266, 0.917969)">
                <path d="M0,38 L9.20473773,38 L9.20473773,25.3844086 C9.20473773,20.7876344 8.39255499,15.577957 7.95939086,11.3387097 L8.23011844,11.3387097 L12.1827411,19.6639785 L22.1455161,38 L32,38 L32,0 L22.7952623,0 L22.7952623,12.5645161 C22.7952623,17.1102151 23.5532995,22.5752688 24.0947547,26.6102151 L23.8240271,26.6102151 L19.8714044,18.1827957 L9.85448393,0 L0,0 L0,38 Z" id="Path"></path>
            </g>
        </g>
    </g>
</svg>