<?xml version="1.0" encoding="UTF-8"?>
<svg width="644px" height="71px" viewBox="0 0 644 71" version="1.1" xmlns="http://www.w3.org/2000/svg" xmlns:xlink="http://www.w3.org/1999/xlink">
    <title>이로움과 함께 설계하세요@2x</title>
    <defs>
        <linearGradient x1="6.41964925%" y1="45.7815555%" x2="96.53794%" y2="55.2522895%" id="linearGradient-1">
            <stop stop-color="#FF6F20" offset="0%"></stop>
            <stop stop-color="#FFD641" offset="100%"></stop>
        </linearGradient>
    </defs>
    <g id="confirm-main" stroke="none" stroke-width="1" fill="none" fill-rule="evenodd">
        <g transform="translate(-432.000000, -337.000000)" fill-rule="nonzero" id="이로움과-함께-설계하세요">
            <g transform="translate(432.000000, 337.700000)">
                <path d="M123.127572,28.5925926 L86.4609053,28.5925926 L86.4609053,35.3333333 L123.868313,35.3333333 L123.868313,43.4814815 L104.831276,43.4814815 L104.831276,52.962963 L132.164609,52.962963 L132.164609,61.8518519 L67.4238683,61.8518519 L67.4238683,52.962963 L94.8312757,52.962963 L94.8312757,43.4814815 L76.4609053,43.4814815 L76.4609053,20.4444444 L113.127572,20.4444444 L113.127572,13.7037037 L76.4609053,13.7037037 L76.4609053,5.55555556 L123.127572,5.55555556 L123.127572,28.5925926 Z M56.6666667,70 L46.6666667,70 L46.6666667,0.37037037 L56.6666667,0.37037037 L56.6666667,70 Z M39.4074074,26.8888889 C39.4074074,32.5185185 37.4814815,37.3333333 33.7777778,41.3333333 C30,45.4074074 25.3333333,47.4074074 19.7037037,47.4074074 C14.0740741,47.4074074 9.33333333,45.4074074 5.62962963,41.3333333 C1.85185185,37.3333333 0,32.5185185 0,26.8888889 C0,21.2592593 1.85185185,16.3703704 5.62962963,12.2962963 C9.33333333,8.2962963 14.0740741,6.2962963 19.7037037,6.2962963 C25.3333333,6.2962963 30,8.2962963 33.7777778,12.2962963 C37.4814815,16.3703704 39.4074074,21.2592593 39.4074074,26.8888889 Z M29.4074074,26.8888889 C29.4074074,23.4814815 28.4444444,20.6666667 26.6666667,18.4444444 C24.8148148,16.2962963 22.5185185,15.1851852 19.7777778,15.1851852 C16.962963,15.1851852 14.5925926,16.2962963 12.8148148,18.4444444 C10.8888889,20.6666667 10,23.4814815 10,26.8888889 C10,30.2222222 10.8888889,32.962963 12.8148148,35.1851852 C14.5925926,37.4074074 16.962963,38.5185185 19.7777778,38.5185185 C22.5185185,38.5185185 24.8148148,37.4074074 26.6666667,35.1851852 C28.4444444,32.962963 29.4074074,30.2222222 29.4074074,26.8888889 Z M146.255144,68.5185185 L146.255144,44.0740741 L163.144033,44.0740741 L163.144033,39.6296296 L135.144033,39.6296296 L135.144033,30.7407407 L201.069959,30.7407407 L201.069959,39.6296296 L173.144033,39.6296296 L173.144033,44.0740741 L189.958848,44.0740741 L189.958848,68.5185185 L146.255144,68.5185185 Z M179.958848,52.962963 L156.255144,52.962963 L156.255144,59.6296296 L179.958848,59.6296296 L179.958848,52.962963 Z M187.662551,14.4444444 C187.662551,18.7407407 185.8107,22.1481481 182.18107,24.8148148 C178.477366,27.4814815 173.736626,28.8148148 167.958848,28.8148148 C162.255144,28.8148148 157.588477,27.4814815 153.958848,24.8148148 C150.255144,22.1481481 148.403292,18.7407407 148.403292,14.4444444 C148.403292,10.1481481 150.255144,6.66666667 153.958848,4 C157.588477,1.33333333 162.255144,0 167.958848,0 C173.736626,0 178.477366,1.33333333 182.18107,4 C185.8107,6.66666667 187.662551,10.1481481 187.662551,14.4444444 Z M177.662551,14.4444444 C177.662551,12.7407407 176.699588,11.3333333 174.847737,10.2222222 C172.921811,9.18518519 170.625514,8.66666667 167.958848,8.66666667 C165.366255,8.66666667 163.144033,9.18518519 161.292181,10.2222222 C159.366255,11.3333333 158.403292,12.7407407 158.403292,14.4444444 C158.403292,16.2222222 159.366255,17.5555556 161.292181,18.5925926 C163.144033,19.6296296 165.366255,20.1481481 167.958848,20.1481481 C170.625514,20.1481481 172.921811,19.6296296 174.847737,18.5925926 C176.699588,17.5555556 177.662551,16.2222222 177.662551,14.4444444 Z" id="Path-2" fill="url(#linearGradient-1)"></path>
                <path d="M242.493827,6.88888889 C242.493827,19.1111111 241.679012,30.3703704 240.049383,40.7407407 L236.123457,40.2222222 C236.864198,35.037037 237.382716,29.9259259 237.82716,24.962963 C238.197531,20.0740741 238.419753,15.2592593 238.419753,10.5185185 L208.864198,10.5185185 L208.864198,6.88888889 L242.493827,6.88888889 Z M204.716049,53.4814815 L204.716049,49.7777778 L219.753086,49.7777778 L219.753086,27.1111111 L223.753086,27.1111111 L223.753086,49.7777778 C232.790123,49.7777778 241.012346,49.037037 248.567901,47.5555556 L249.08642,51.1851852 C245.308642,51.9259259 241.160494,52.5185185 236.641975,52.8888889 C232.049383,53.3333333 227.012346,53.4814815 221.530864,53.4814815 L204.716049,53.4814815 Z M258.049383,31.2592593 L258.049383,70 L253.901235,70 L253.901235,0.37037037 L258.049383,0.37037037 L258.049383,27.6296296 L270.641975,27.6296296 L270.641975,31.2592593 L258.049383,31.2592593 Z" id="Shape" fill="#FFFFFF"></path>
                <path d="M301.193416,10.962963 L301.193416,7.55555556 L318.823045,7.55555556 L318.823045,0.37037037 L323.045267,0.37037037 L323.045267,7.55555556 L340.674897,7.55555556 L340.674897,10.962963 L301.193416,10.962963 Z M354.600823,22.4444444 L354.600823,39.1851852 L350.452675,39.1851852 L350.452675,0.37037037 L354.600823,0.37037037 L354.600823,18.8148148 L365.860082,18.8148148 L365.860082,22.4444444 L354.600823,22.4444444 Z M312.526749,68.5185185 L312.526749,45.9259259 L354.600823,45.9259259 L354.600823,68.5185185 L312.526749,68.5185185 Z M350.452675,49.6296296 L316.674897,49.6296296 L316.674897,64.8148148 L350.452675,64.8148148 L350.452675,49.6296296 Z M335.341564,26.5925926 C335.341564,28.5185185 334.971193,30.2222222 334.304527,31.7037037 C333.563786,33.3333333 332.526749,34.6666667 331.26749,35.7037037 C329.934156,36.8888889 328.452675,37.7037037 326.674897,38.2962963 C324.897119,38.8888889 322.971193,39.1851852 320.897119,39.1851852 C318.748971,39.1851852 316.823045,38.8888889 315.045267,38.2222222 C313.26749,37.6296296 311.711934,36.8148148 310.452675,35.6296296 C309.119342,34.5925926 308.156379,33.2592593 307.489712,31.7037037 C306.748971,30.2222222 306.378601,28.5185185 306.378601,26.5925926 C306.378601,24.6666667 306.748971,22.962963 307.489712,21.3333333 C308.230453,19.8518519 309.193416,18.5185185 310.526749,17.3333333 C311.786008,16.2962963 313.341564,15.4074074 315.119342,14.8148148 C316.897119,14.2222222 318.823045,13.9259259 320.897119,13.9259259 C322.897119,13.9259259 324.823045,14.2222222 326.600823,14.8148148 C328.304527,15.4074074 329.860082,16.2962963 331.193416,17.3333333 C332.452675,18.5185185 333.489712,19.8518519 334.230453,21.3333333 C334.971193,22.962963 335.341564,24.6666667 335.341564,26.5925926 Z M331.193416,26.5925926 C331.193416,25.2592593 330.897119,24 330.378601,22.8148148 C329.786008,21.7037037 329.119342,20.7407407 328.230453,19.9259259 C327.26749,19.1851852 326.156379,18.5185185 324.971193,18.0740741 C323.63786,17.7037037 322.304527,17.4814815 320.897119,17.4814815 C319.415638,17.4814815 318.00823,17.7037037 316.823045,18.0740741 C315.489712,18.5185185 314.452675,19.1851852 313.563786,19.9259259 C312.600823,20.7407407 311.860082,21.7037037 311.341564,22.8148148 C310.748971,24 310.526749,25.2592593 310.526749,26.5925926 C310.526749,28 310.748971,29.2592593 311.341564,30.2962963 C311.860082,31.4814815 312.600823,32.4444444 313.563786,33.1851852 C314.452675,34 315.563786,34.5925926 316.897119,34.962963 C318.082305,35.4074074 319.415638,35.6296296 320.897119,35.6296296 C322.304527,35.6296296 323.63786,35.4074074 324.971193,34.962963 C326.156379,34.5925926 327.26749,34 328.230453,33.1851852 C329.119342,32.4444444 329.786008,31.4814815 330.378601,30.2962963 C330.897119,29.2592593 331.193416,28 331.193416,26.5925926 Z" id="Shape" fill="#FFFFFF"></path>
                <path d="M414.765432,67.7777778 L410.91358,67.7777778 L410.91358,29.3333333 L400.765432,29.3333333 C399.728395,33.3333333 398.320988,37.1851852 396.54321,41.037037 C394.691358,44.8888889 392.320988,48.4444444 389.432099,51.6296296 C388.839506,51.2592593 388.320988,50.8888889 387.876543,50.4444444 C387.283951,50.0740741 386.765432,49.7037037 386.246914,49.2592593 C387.876543,47.4814815 389.432099,45.4074074 390.91358,42.8888889 C392.395062,40.4444444 393.728395,37.5555556 394.91358,34.2962963 C396.024691,31.1111111 396.987654,27.5555556 397.728395,23.5555556 C398.469136,19.6296296 398.839506,15.3333333 398.987654,10.5925926 L389.283951,10.5925926 L389.283951,6.96296296 L403.135802,6.96296296 C403.135802,13.9259259 402.54321,20.1481481 401.432099,25.7037037 L410.91358,25.7037037 L410.91358,1.85185185 L414.765432,1.85185185 L414.765432,67.7777778 Z M427.728395,70 L423.802469,70 L423.802469,0.37037037 L427.728395,0.37037037 L427.728395,70 Z M372.098765,45.6296296 C371.506173,45.2592593 370.987654,44.8888889 370.54321,44.4444444 C370.024691,44.1481481 369.506173,43.7777778 368.987654,43.3333333 C370.617284,42.0740741 372.246914,40.3703704 373.876543,38.2222222 C375.358025,36.1481481 376.765432,33.7777778 378.024691,30.962963 C379.209877,28.2222222 380.17284,25.1111111 380.987654,21.6296296 C381.728395,18.2222222 382.17284,14.5925926 382.320988,10.5925926 L371.876543,10.5925926 L371.876543,6.96296296 L386.395062,6.96296296 C386.395062,11.8518519 386.024691,16.3703704 385.283951,20.3703704 C384.54321,24.5185185 383.506173,28.1481481 382.246914,31.3333333 C380.91358,34.5925926 379.432099,37.4074074 377.728395,39.7777778 C375.950617,42.2222222 374.024691,44.1481481 372.098765,45.6296296 Z" id="Shape" fill="#FFFFFF"></path>
                <path d="M443.016461,14.5925926 L443.016461,10.962963 L460.349794,10.962963 L460.349794,1.03703704 L464.497942,1.03703704 L464.497942,10.962963 L481.90535,10.962963 L481.90535,14.5925926 L443.016461,14.5925926 Z M478.942387,36.4444444 C478.942387,38.8148148 478.497942,40.962963 477.683128,42.8888889 C476.794239,44.8148148 475.683128,46.5185185 474.27572,47.8518519 C472.794239,49.2592593 471.016461,50.2962963 469.016461,51.037037 C466.942387,51.8518519 464.794239,52.2222222 462.423868,52.2222222 C460.053498,52.2222222 457.831276,51.8518519 455.831276,51.037037 C453.757202,50.2962963 452.053498,49.2592593 450.572016,47.8518519 C449.090535,46.5185185 447.90535,44.8888889 447.090535,42.8888889 C446.201646,40.962963 445.831276,38.8148148 445.831276,36.4444444 C445.831276,34.0740741 446.27572,31.9259259 447.164609,29.9259259 C447.979424,28 449.164609,26.3703704 450.646091,24.962963 C452.127572,23.6296296 453.831276,22.5925926 455.90535,21.8518519 C457.90535,21.1111111 460.053498,20.7407407 462.423868,20.7407407 C464.720165,20.7407407 466.868313,21.1111111 468.942387,21.8518519 C470.942387,22.5925926 472.720165,23.7037037 474.201646,25.037037 C475.683128,26.4444444 476.794239,28.0740741 477.683128,30 C478.497942,31.9259259 478.942387,34.0740741 478.942387,36.4444444 Z M474.794239,36.4444444 C474.794239,34.6666667 474.423868,32.962963 473.831276,31.4814815 C473.164609,30 472.27572,28.7407407 471.238683,27.6296296 C470.053498,26.5925926 468.794239,25.7777778 467.312757,25.1851852 C465.757202,24.6666667 464.127572,24.3703704 462.423868,24.3703704 C460.646091,24.3703704 458.942387,24.6666667 457.460905,25.1851852 C455.90535,25.7777778 454.572016,26.5925926 453.534979,27.6296296 C452.349794,28.7407407 451.534979,30 450.942387,31.4814815 C450.27572,32.962963 449.979424,34.6666667 449.979424,36.4444444 C449.979424,38.3703704 450.27572,40 450.942387,41.4814815 C451.534979,42.962963 452.349794,44.2222222 453.534979,45.2592593 C454.572016,46.2962963 455.90535,47.1111111 457.460905,47.6296296 C458.942387,48.2222222 460.646091,48.5185185 462.423868,48.5185185 C464.201646,48.5185185 465.831276,48.2222222 467.386831,47.6296296 C468.868313,47.1111111 470.127572,46.2962963 471.312757,45.2592593 C472.349794,44.2222222 473.238683,42.962963 473.90535,41.4814815 C474.497942,40 474.794239,38.3703704 474.794239,36.4444444 Z M495.683128,31.3333333 L495.683128,70 L491.534979,70 L491.534979,0.37037037 L495.683128,0.37037037 L495.683128,27.7037037 L507.683128,27.7037037 L507.683128,31.3333333 L495.683128,31.3333333 Z" id="Shape" fill="#FFFFFF"></path>
                <path d="M546.440329,47.7037037 C545.921811,48.1481481 545.403292,48.6666667 544.958848,49.1111111 C544.440329,49.6296296 543.921811,50.0740741 543.477366,50.5185185 C541.921811,49.3333333 540.366255,47.8518519 538.884774,46.0740741 C537.329218,44.4444444 535.921811,42.5925926 534.588477,40.5925926 C533.255144,38.6666667 532.069959,36.5925926 531.032922,34.3703704 C529.921811,32.2222222 529.106996,30 528.514403,27.7777778 C527.773663,30.1481481 526.958848,32.3703704 525.921811,34.5185185 C524.8107,36.7407407 523.625514,38.8148148 522.366255,40.7407407 C521.032922,42.7407407 519.625514,44.5925926 518.144033,46.2222222 C516.588477,48 515.032922,49.4814815 513.55144,50.6666667 C513.032922,50.2222222 512.514403,49.7037037 512.069959,49.1851852 C511.55144,48.7407407 511.032922,48.2962963 510.588477,47.8518519 C512.736626,46.0740741 514.8107,43.9259259 516.736626,41.4074074 C518.588477,38.962963 520.218107,36.2962963 521.699588,33.4814815 C523.106996,30.6666667 524.218107,27.7777778 525.106996,24.6666667 C525.921811,21.7037037 526.366255,18.6666667 526.366255,15.5555556 L526.366255,5.48148148 L530.588477,5.48148148 L530.588477,15.5555556 C530.588477,18.8148148 531.032922,22 531.921811,25.1111111 C532.736626,28.2222222 533.921811,31.1851852 535.403292,33.9259259 C536.8107,36.7407407 538.514403,39.2592593 540.440329,41.5555556 C542.292181,43.9259259 544.292181,46 546.440329,47.7037037 Z M539.921811,22.5185185 L551.995885,22.5185185 L551.995885,1.77777778 L556.069959,1.77777778 L556.069959,67.7777778 L551.995885,67.7777778 L551.995885,26.1481481 L539.921811,26.1481481 L539.921811,22.5185185 Z M569.55144,70 L565.55144,70 L565.55144,0.37037037 L569.55144,0.37037037 L569.55144,70 Z" id="Shape" fill="#FFFFFF"></path>
                <path d="M626.901235,42.3703704 L626.901235,56.6666667 L643.123457,56.6666667 L643.123457,60.2962963 L578.382716,60.2962963 L578.382716,56.6666667 L594.604938,56.6666667 L594.604938,42.3703704 L598.753086,42.3703704 L598.753086,56.6666667 L622.753086,56.6666667 L622.753086,42.3703704 L626.901235,42.3703704 Z M631.197531,23.4074074 C631.197531,26.0740741 630.679012,28.5185185 629.641975,30.7407407 C628.604938,33.037037 627.123457,34.962963 625.345679,36.5925926 C623.493827,38.2962963 621.345679,39.6296296 618.901235,40.5185185 C616.382716,41.4814815 613.641975,41.9259259 610.753086,41.9259259 C607.790123,41.9259259 605.123457,41.4814815 602.679012,40.5185185 C600.160494,39.6296296 598.012346,38.2962963 596.234568,36.6666667 C594.382716,35.037037 592.975309,33.1111111 591.938272,30.8148148 C590.901235,28.5925926 590.382716,26.0740741 590.382716,23.4074074 C590.382716,20.7407407 590.901235,18.2962963 591.938272,16 C592.975309,13.7777778 594.382716,11.7777778 596.234568,10.0740741 C598.012346,8.44444444 600.160494,7.11111111 602.679012,6.14814815 C605.123457,5.25925926 607.790123,4.74074074 610.753086,4.74074074 C613.716049,4.74074074 616.45679,5.25925926 618.975309,6.14814815 C621.419753,7.11111111 623.567901,8.44444444 625.419753,10.0740741 C627.197531,11.7777778 628.604938,13.7777778 629.641975,16 C630.679012,18.2962963 631.197531,20.7407407 631.197531,23.4074074 Z M627.049383,23.4074074 C627.049383,21.2592593 626.604938,19.2592593 625.790123,17.4074074 C624.901235,15.6296296 623.790123,14 622.382716,12.6666667 C620.901235,11.3333333 619.123457,10.2962963 617.197531,9.48148148 C615.197531,8.74074074 613.049383,8.37037037 610.753086,8.37037037 C608.530864,8.37037037 606.382716,8.74074074 604.45679,9.48148148 C602.45679,10.2222222 600.753086,11.2592593 599.345679,12.5925926 C597.864198,13.9259259 596.679012,15.5555556 595.864198,17.3333333 C594.975309,19.1851852 594.530864,21.1851852 594.530864,23.4074074 C594.530864,25.6296296 594.901235,27.6296296 595.790123,29.4074074 C596.604938,31.2592593 597.790123,32.8148148 599.271605,34.0740741 C600.753086,35.4074074 602.45679,36.4444444 604.45679,37.1851852 C606.382716,37.9259259 608.530864,38.2962963 610.753086,38.2962963 C613.049383,38.2962963 615.197531,37.9259259 617.271605,37.1851852 C619.197531,36.4444444 620.975309,35.4074074 622.45679,34.0740741 C623.864198,32.7407407 624.975309,31.1851852 625.864198,29.3333333 C626.604938,27.5555556 627.049383,25.5555556 627.049383,23.4074074 Z" id="Shape" fill="#FFFFFF"></path>
            </g>
        </g>
    </g>
</svg>