<?xml version="1.0" encoding="UTF-8"?>
<svg width="94px" height="18px" viewBox="0 0 94 18" version="1.1" xmlns="http://www.w3.org/2000/svg" xmlns:xlink="http://www.w3.org/1999/xlink">
    <title>이로움 마켓</title>
    <g id="footer" stroke="none" stroke-width="1" fill="none" fill-rule="evenodd">
        <g id="type-icon-6" transform="translate(-1732.000000, -400.000000)" fill-rule="nonzero">
            <g id="Fill-2471" transform="translate(1719.000000, 387.000000)">
                <g id="이로움-마켓" transform="translate(13.062000, 13.096000)">
                    <path d="M13.536,16.92 L11.682,16.92 L11.682,0 L13.536,0 L13.536,16.92 Z M9.414,6.426 C9.414,7.11 9.288,7.74 9.054,8.316 C8.802,8.928 8.478,9.45 8.064,9.882 C7.632,10.332 7.146,10.674 6.57,10.926 C5.994,11.196 5.364,11.322 4.698,11.322 C4.014,11.322 3.384,11.196 2.826,10.926 C2.25,10.674 1.746,10.332 1.332,9.864 C0.9,9.432 0.576,8.91 0.36,8.316 C0.108,7.74 0,7.11 0,6.426 C0,5.76 0.108,5.13 0.36,4.518 C0.576,3.924 0.9,3.402 1.332,2.952 C1.746,2.52 2.25,2.16 2.826,1.89 C3.402,1.638 4.014,1.512 4.698,1.512 C5.364,1.512 5.994,1.638 6.57,1.89 C7.146,2.16 7.632,2.502 8.064,2.934 C8.478,3.384 8.802,3.906 9.054,4.5 C9.288,5.112 9.414,5.742 9.414,6.426 Z M7.542,6.426 C7.542,5.958 7.47,5.526 7.326,5.13 C7.182,4.734 6.984,4.392 6.732,4.086 C6.48,3.798 6.174,3.582 5.832,3.402 C5.472,3.258 5.112,3.168 4.716,3.168 C4.302,3.168 3.924,3.258 3.582,3.42 C3.222,3.6 2.934,3.816 2.682,4.104 C2.43,4.392 2.232,4.734 2.088,5.13 C1.944,5.526 1.872,5.958 1.872,6.426 C1.872,6.894 1.944,7.308 2.088,7.704 C2.232,8.1 2.43,8.442 2.7,8.73 C2.952,9.018 3.24,9.252 3.6,9.414 C3.942,9.594 4.32,9.666 4.716,9.666 C5.112,9.666 5.472,9.594 5.832,9.414 C6.174,9.252 6.48,9.018 6.732,8.73 C6.984,8.442 7.182,8.1 7.326,7.704 C7.47,7.308 7.542,6.894 7.542,6.426 Z" id="Shape" fill="#333333"></path>
                    <polygon id="Path" fill="#333333" points="29.013 6.606 19.905 6.606 19.905 8.874 29.247 8.874 29.247 10.404 24.459 10.404 24.459 13.14 31.389 13.14 31.389 14.796 15.657 14.796 15.657 13.14 22.605 13.14 22.605 10.404 18.033 10.404 18.033 5.076 27.141 5.076 27.141 2.916 18.033 2.916 18.033 1.386 29.013 1.386"></polygon>
                    <path d="M34.248,16.56 L34.248,10.746 L38.622,10.746 L38.622,9.324 L31.548,9.324 L31.548,7.668 L47.568,7.668 L47.568,9.324 L40.494,9.324 L40.494,10.746 L44.868,10.746 L44.868,16.56 L34.248,16.56 Z M44.202,3.474 C44.202,3.978 44.076,4.446 43.86,4.86 C43.608,5.292 43.284,5.652 42.888,5.94 C42.456,6.246 41.97,6.48 41.412,6.642 C40.836,6.822 40.206,6.894 39.522,6.894 C38.856,6.894 38.244,6.822 37.686,6.642 C37.11,6.498 36.624,6.264 36.228,5.958 C35.796,5.67 35.472,5.31 35.256,4.878 C35.004,4.464 34.896,3.996 34.896,3.474 C34.896,2.97 35.004,2.484 35.256,2.052 C35.472,1.638 35.796,1.278 36.228,0.972 C36.624,0.684 37.11,0.45 37.686,0.27 C38.244,0.126 38.856,0.036 39.522,0.036 C40.188,0.036 40.818,0.126 41.394,0.288 C41.97,0.468 42.456,0.702 42.888,0.99 C43.284,1.314 43.608,1.674 43.86,2.088 C44.076,2.52 44.202,2.97 44.202,3.474 Z M42.996,12.402 L36.102,12.402 L36.102,14.904 L42.996,14.904 L42.996,12.402 Z M42.33,3.474 C42.33,3.204 42.258,2.952 42.114,2.718 C41.952,2.502 41.754,2.322 41.502,2.142 C41.25,1.998 40.944,1.872 40.62,1.782 C40.26,1.71 39.9,1.656 39.522,1.656 C39.162,1.656 38.82,1.71 38.496,1.782 C38.154,1.872 37.866,1.998 37.614,2.142 C37.344,2.304 37.128,2.484 36.984,2.7 C36.822,2.934 36.75,3.186 36.75,3.474 C36.75,3.762 36.822,4.014 36.984,4.23 C37.128,4.464 37.344,4.662 37.596,4.806 C37.848,4.968 38.136,5.076 38.478,5.148 C38.802,5.238 39.162,5.274 39.522,5.274 C39.918,5.274 40.278,5.238 40.638,5.148 C40.962,5.076 41.268,4.95 41.52,4.77 C41.772,4.626 41.97,4.428 42.114,4.212 C42.258,3.996 42.33,3.762 42.33,3.474 Z" id="Shape" fill="#333333"></path>
                    <path d="M54.942,11.736 L54.942,1.494 L62.664,1.494 L62.664,11.736 L54.942,11.736 Z M60.792,3.15 L56.814,3.15 L56.814,10.08 L60.792,10.08 L60.792,3.15 Z M67.074,7.902 L67.074,16.92 L65.202,16.92 L65.202,0 L67.074,0 L67.074,6.264 L69.864,6.264 L69.864,7.902 L67.074,7.902 Z" id="Shape" fill="#333333"></path>
                    <path d="M71.751,9.27 C71.535,9.072 71.319,8.856 71.121,8.64 C70.905,8.424 70.689,8.226 70.473,8.01 C71.355,7.74 72.165,7.38 72.903,6.912 C73.623,6.462 74.253,5.922 74.757,5.292 L70.923,5.616 C70.887,5.364 70.869,5.094 70.833,4.842 C70.797,4.59 70.761,4.338 70.743,4.068 C71.535,4.032 72.309,3.978 73.101,3.924 C73.875,3.888 74.667,3.834 75.459,3.78 C75.675,3.276 75.819,2.772 75.873,2.232 L71.103,2.232 L71.103,0.702 L77.835,0.702 C77.835,2.88 77.295,4.68 76.251,6.084 C75.189,7.524 73.695,8.586 71.751,9.27 Z M84.855,15.318 C84.639,15.516 84.459,15.732 84.279,15.948 C84.099,16.146 83.901,16.344 83.703,16.56 C82.425,16.236 81.327,15.768 80.427,15.138 C79.509,14.49 78.825,13.788 78.393,13.014 C78.177,13.41 77.907,13.77 77.583,14.112 C77.241,14.472 76.845,14.814 76.395,15.12 C75.927,15.426 75.423,15.714 74.883,15.966 C74.325,16.2 73.731,16.398 73.101,16.56 L71.967,15.318 C72.759,15.102 73.515,14.832 74.199,14.472 C74.865,14.148 75.441,13.752 75.945,13.302 C76.413,12.87 76.791,12.384 77.079,11.88 C77.331,11.376 77.475,10.854 77.475,10.314 L77.475,9.846 L79.347,9.846 L79.347,10.26 C79.347,10.836 79.491,11.376 79.779,11.898 C80.049,12.438 80.445,12.906 80.949,13.338 C81.435,13.788 82.011,14.184 82.695,14.508 C83.343,14.868 84.063,15.12 84.855,15.318 Z M77.403,5.454 L77.403,3.798 L79.563,3.798 L79.563,0.36 L81.255,0.36 L81.255,8.64 L79.563,8.64 L79.563,5.454 L77.403,5.454 Z M84.441,9.36 L82.767,9.36 L82.767,0 L84.441,0 L84.441,9.36 Z" id="Shape" fill="#333333"></path>
                    <path d="M89.9350826,9.32520313 L93.9350826,9.32520313 L93.9350826,12.1801226 L93.5216304,12.8252031 L89.9350826,12.8252031 L89.9350826,9.32520313 Z M89.9350826,0.825203132 L93.9350826,0.825203132 L93.9350826,4.82520313 L89.9350826,4.82520313 L89.9350826,0.825203132 Z M93.9350826,9.32520313 L93.9350826,12.3252031 C93.9350826,14.8104845 91.9203639,16.8252031 89.4350826,16.8252031 L89.5010826,16.8232031 L89.6113555,16.8201104 C91.1861658,16.728864 92.4351285,15.422884 92.4351285,13.8252031 L92.4351285,11.8252031 C92.4223987,11.0804701 92.3997145,10.4312291 92.3670758,9.87747994 C92.8262457,9.7301164 93.3496047,9.54536412 93.9350826,9.32520313 Z" id="Shape" fill="#1D1D1D"></path>
                </g>
            </g>
        </g>
    </g>
</svg>