<svg id="Group_3_Copy_3" data-name="Group 3 Copy 3" xmlns="http://www.w3.org/2000/svg" xmlns:xlink="http://www.w3.org/1999/xlink" width="24" height="24" viewBox="0 0 24 24">
  <defs>
    <clipPath id="clip-path">
      <path id="Clip_2" data-name="Clip 2" d="M0,0H24V24H0Z" fill="none"/>
    </clipPath>
  </defs>
  <path id="Clip_2-2" data-name="Clip 2" d="M0,0H24V24H0Z" fill="none"/>
  <g id="Group_3_Copy_3-2" data-name="Group 3 Copy 3" clip-path="url(#clip-path)">
    <path id="Fill_1" data-name="Fill 1" d="M.9,24a.887.887,0,0,1-.634-.263.9.9,0,0,1,0-1.265l7.019-7.019L2.79,10.962a.9.9,0,0,1,0-1.265l.724-.724a4.4,4.4,0,0,1,5.463-.615l5.212-4.006A3.3,3.3,0,0,1,14.991.9l.642-.642a.894.894,0,0,1,1.265,0L23.738,7.1a.894.894,0,0,1,0,1.266l-.641.642a3.311,3.311,0,0,1-3.448.8l-4.008,5.214a4.4,4.4,0,0,1-.614,5.462l-.724.724a.9.9,0,0,1-.633.262.889.889,0,0,1-.633-.262L8.546,16.718,1.527,23.738A.885.885,0,0,1,.9,24ZM6.632,9.5a2.629,2.629,0,0,0-1.853.742l-.09.09,8.982,8.984.091-.091a2.618,2.618,0,0,0,0-3.7L8.482,10.238A2.623,2.623,0,0,0,6.632,9.5Zm8.536-3.641L10.342,9.566l4.092,4.091,3.71-4.826Zm1.1-3.694-.009.009a1.586,1.586,0,0,0,0,2.243l3.33,3.33a1.589,1.589,0,0,0,2.244,0l.009-.009L16.266,2.161Z" fill="#c4c4c4"/>
  </g>
</svg>
