<svg xmlns="http://www.w3.org/2000/svg" width="16.056" height="17" viewBox="0 0 16.056 17">
  <g id="Group_11_Copy" data-name="Group 11 Copy" transform="translate(0.5 0.5)">
    <path id="Fill_1" data-name="Fill 1" d="M14.481,16a.506.506,0,0,1-.367-.16L10.1,11.589a5.976,5.976,0,0,1-3.922,1.491A6.374,6.374,0,0,1,0,6.54,6.374,6.374,0,0,1,6.178,0a6.374,6.374,0,0,1,6.178,6.54,6.755,6.755,0,0,1-1.517,4.279l4.01,4.244a.574.574,0,0,1,0,.777A.506.506,0,0,1,14.481,16ZM6.178,1.1A5.3,5.3,0,0,0,1.038,6.54a5.3,5.3,0,0,0,5.14,5.442A5.3,5.3,0,0,0,11.318,6.54,5.3,5.3,0,0,0,6.178,1.1Z" fill="#fff" stroke="#fff" stroke-miterlimit="10" stroke-width="1"/>
  </g>
</svg>
