<svg xmlns="http://www.w3.org/2000/svg" width="24" height="22.349" viewBox="0 0 24 22.349">
  <path id="Combined_Shape" data-name="Combined Shape" d="M1.364,21.839a1.741,1.741,0,0,1,0-2.462l1.23-1.23-1.23-1.23a1.74,1.74,0,1,1,2.461-2.461l1.23,1.23,1.23-1.23a1.74,1.74,0,0,1,2.461,2.461l-1.23,1.23,1.23,1.23a1.741,1.741,0,0,1-2.461,2.462l-1.23-1.23-1.23,1.23a1.74,1.74,0,0,1-2.461,0Zm14,.228a1.45,1.45,0,1,1,0-2.9h6.67a1.45,1.45,0,1,1,0,2.9Zm0-5.22a1.45,1.45,0,1,1,0-2.9h6.67a1.45,1.45,0,1,1,0,2.9ZM17.041,8.7V6.96H15.3a1.74,1.74,0,1,1,0-3.479h1.741V1.74a1.74,1.74,0,0,1,3.479,0V3.48h1.74a1.74,1.74,0,1,1,0,3.479H20.52V8.7a1.74,1.74,0,1,1-3.479,0ZM1.595,6.7a1.6,1.6,0,0,1,0-3.191h6.38a1.6,1.6,0,0,1,0,3.191Z" fill="#5E6FE0"/>
</svg>
