<svg id="Group_9" data-name="Group 9" xmlns="http://www.w3.org/2000/svg" width="25" height="25" viewBox="0 0 25 25">
  <path id="Fill_21" data-name="Fill 21" d="M4.167,8.333A4.167,4.167,0,1,1,8.333,4.165,4.172,4.172,0,0,1,4.167,8.333Zm0-6.448a2.281,2.281,0,1,0,2.281,2.28A2.284,2.284,0,0,0,4.167,1.886Z" transform="translate(8.333 8.333)" fill="#fff"/>
  <path id="Fill_22" data-name="Fill 22" d="M14.7,25H10.292a.917.917,0,0,1-.91-.808L9.12,22c-.326-.116-.646-.248-.951-.391L6.438,22.973a.924.924,0,0,1-.567.2.914.914,0,0,1-.65-.269L2.1,19.778a.917.917,0,0,1-.071-1.215l1.363-1.732A10.181,10.181,0,0,1,3,15.879l-2.191-.26A.917.917,0,0,1,0,14.709V10.292a.916.916,0,0,1,.809-.91L3,9.122a9.945,9.945,0,0,1,.391-.954L2.029,6.437A.917.917,0,0,1,2.1,5.221L5.22,2.1a.913.913,0,0,1,.649-.268.922.922,0,0,1,.567.2L8.168,3.393A10.3,10.3,0,0,1,9.12,3L9.382.809A.917.917,0,0,1,10.292,0H14.7a.917.917,0,0,1,.91.808L15.878,3a10.254,10.254,0,0,1,.951.392L18.558,2.03a.916.916,0,0,1,1.216.071L22.9,5.224a.919.919,0,0,1,.071,1.217L21.606,8.169A10.024,10.024,0,0,1,22,9.122l2.194.259a.916.916,0,0,1,.809.91v4.417a.917.917,0,0,1-.809.91L22,15.879a10.179,10.179,0,0,1-.391.951l1.363,1.733a.916.916,0,0,1-.072,1.215L19.774,22.9a.908.908,0,0,1-.648.269.925.925,0,0,1-.568-.2l-1.731-1.364c-.306.144-.626.275-.95.391l-.264,2.193A.916.916,0,0,1,14.7,25ZM8.062,19.608a.921.921,0,0,1,.442.113,8.341,8.341,0,0,0,1.711.7.915.915,0,0,1,.657.771l.234,1.969h2.785l.237-1.969a.912.912,0,0,1,.656-.771,8.319,8.319,0,0,0,1.706-.7.917.917,0,0,1,1.011.084l1.553,1.223,1.972-1.972L19.8,17.5a.916.916,0,0,1-.081-1.014,8.059,8.059,0,0,0,.7-1.7.912.912,0,0,1,.773-.657l1.971-.234V11.107l-1.971-.232a.916.916,0,0,1-.773-.659,8.247,8.247,0,0,0-.7-1.71A.912.912,0,0,1,19.8,7.5l1.222-1.551-1.971-1.97L17.5,5.2a.915.915,0,0,1-1.011.082,8.285,8.285,0,0,0-1.706-.7.916.916,0,0,1-.658-.772l-.237-1.969H11.106L10.872,3.8a.916.916,0,0,1-.658.773,8.223,8.223,0,0,0-1.709.7.908.908,0,0,1-.443.115.921.921,0,0,1-.568-.2L5.94,3.974,3.974,5.942,5.2,7.5a.914.914,0,0,1,.08,1.012,8.255,8.255,0,0,0-.7,1.709.917.917,0,0,1-.774.658l-1.967.232v2.786l1.967.234a.911.911,0,0,1,.773.657,8.154,8.154,0,0,0,.7,1.7A.914.914,0,0,1,5.2,17.5L3.974,19.057l1.968,1.972,1.552-1.223A.924.924,0,0,1,8.062,19.608Z" fill="#fff"/>
</svg>
