<svg xmlns="http://www.w3.org/2000/svg" xmlns:xlink="http://www.w3.org/1999/xlink" width="19.262" height="19.707" viewBox="0 0 19.262 19.707">
  <defs>
    <clipPath id="clip-path">
      <rect id="사각형_5" data-name="사각형 5" width="19.262" height="19.707" fill="none"/>
    </clipPath>
  </defs>
  <g id="그룹_100" data-name="그룹 100" transform="translate(0 0)">
    <g id="그룹_110" data-name="그룹 110" transform="translate(0 0)" clip-path="url(#clip-path)">
      <path id="패스_158" fill="white" data-name="패스 158" d="M19.1,3.092a.782.782,0,0,0-.608-.3H4.1L3.558.59A.772.772,0,0,0,2.807,0H.773a.773.773,0,1,0,0,1.546H2.2l2.441,9.946v1.16A2.15,2.15,0,0,0,6.79,14.8h9.736a.773.773,0,1,0,0-1.546H6.79a.6.6,0,0,1-.6-.6v-.461H16.566a.772.772,0,0,0,.751-.59l1.922-7.848a.767.767,0,0,0-.141-.662M17.5,4.342l-1.543,6.3H6.021l-1.543-6.3Z" transform="translate(0 0.001)"/>
      <path id="패스_159" fill="white" data-name="패스 159" d="M6.5,12.416a2.176,2.176,0,1,0,2.176,2.176A2.179,2.179,0,0,0,6.5,12.416m.631,2.176a.631.631,0,1,1-.631-.631.632.632,0,0,1,.631.631" transform="translate(1.024 2.939)"/>
      <path id="패스_160" fill="white" data-name="패스 160" d="M12.337,12.416a2.176,2.176,0,1,0,2.176,2.176,2.179,2.179,0,0,0-2.176-2.176m.631,2.176a.631.631,0,1,1-.631-.631.632.632,0,0,1,.631.631" transform="translate(2.404 2.939)"/>
    </g>
  </g>
</svg>
