<svg xmlns="http://www.w3.org/2000/svg" width="20" height="20" viewBox="0 0 20 20">
  <path id="Combined_Shape" data-name="Combined Shape" d="M10,20A10,10,0,1,1,20,10,10.011,10.011,0,0,1,10,20ZM8.011,4.254A1.758,1.758,0,0,0,6.7,4.647a1.639,1.639,0,0,0-.362,1.146V14.9a1.11,1.11,0,0,0,.108.516.916.916,0,0,0,.276.33,1,1,0,0,0,.377.169,1.935,1.935,0,0,0,.423.047,1.5,1.5,0,0,0,.824-.247.949.949,0,0,0,.33-.831V12.1H10.9a5.866,5.866,0,0,0,2.177-.347,3.5,3.5,0,0,0,1.354-.922,3.34,3.34,0,0,0,.7-1.3,5.6,5.6,0,0,0,.2-1.492A3.908,3.908,0,0,0,14.911,6.1a3.267,3.267,0,0,0-1.077-1.154A3.941,3.941,0,0,0,12.4,4.393,8.622,8.622,0,0,0,10.9,4.254Zm2.8,5.784H8.672V6.9a.76.76,0,0,1,.077-.43c.052-.062.162-.093.338-.093h1.738a5.713,5.713,0,0,1,.778.054,2.01,2.01,0,0,1,.707.23,1.321,1.321,0,0,1,.508.523,1.927,1.927,0,0,1,.193.931,2.328,2.328,0,0,1-.185,1.007,1.476,1.476,0,0,1-.492.585,1.723,1.723,0,0,1-.708.269A5.354,5.354,0,0,1,10.811,10.039Z" transform="translate(0 0)"/>
</svg>
