<svg id="Group_10" data-name="Group 10" xmlns="http://www.w3.org/2000/svg" xmlns:xlink="http://www.w3.org/1999/xlink" width="30" height="30.621" viewBox="0 0 30 30.621">
  <defs>
    <clipPath id="clip-path">
      <path id="Clip_2" data-name="Clip 2" d="M0,0H30V30.621H0Z" fill="none"/>
    </clipPath>
  </defs>
  <g id="Group_3" data-name="Group 3">
    <path id="Clip_2-2" data-name="Clip 2" d="M0,0H30V30.621H0Z" fill="none"/>
    <g id="Group_3-2" data-name="Group 3" clip-path="url(#clip-path)">
      <path id="Fill_1" data-name="Fill 1" d="M22.576,30.621a1.741,1.741,0,0,1-1.739-1.739v-1.56H9.163v1.56a1.739,1.739,0,1,1-3.478,0v-1.56H4.711a2.065,2.065,0,0,1-2.063-2.063V9.841H2.063a.344.344,0,0,0-.344.344v2.407a.859.859,0,0,1-1.719,0V10.184A2.065,2.065,0,0,1,2.063,8.122h.585V2.063A2.065,2.065,0,0,1,4.711,0H25.289a2.066,2.066,0,0,1,2.064,2.063V8.122h.584A2.065,2.065,0,0,1,30,10.184v2.407a.859.859,0,1,1-1.719,0V10.184a.344.344,0,0,0-.344-.344h-.584V25.259a2.066,2.066,0,0,1-2.064,2.063h-.975v1.56A1.741,1.741,0,0,1,22.576,30.621ZM4.367,23.056v2.2a.344.344,0,0,0,.344.344H25.289a.344.344,0,0,0,.344-.344v-2.2H21.712a2.216,2.216,0,0,1-.676-4.326l4.6-1.472V15.589H4.367V17.3L8.843,18.73a2.216,2.216,0,0,1-.676,4.326ZM25.513,19.1,21.56,20.367a.5.5,0,0,0,.151.97h3.8V19.1Zm-21.146,0v2.235h3.8a.5.5,0,0,0,.152-.97Zm0-13.412V13.87H25.633V5.691Zm.344-3.972a.344.344,0,0,0-.344.344V3.972H25.633V2.063a.344.344,0,0,0-.344-.344Z" transform="translate(0 0)" fill="#020202"/>
    </g>
  </g>
  <path id="Fill_4" data-name="Fill 4" d="M4.672.171a.86.86,0,0,0-1.2.174l-3.3,4.41A.86.86,0,1,0,1.548,5.785l3.3-4.411a.86.86,0,0,0-.174-1.2" transform="translate(5.761 6.563)" fill="#020202"/>
  <path id="Fill_6" data-name="Fill 6" d="M2.487.171a.86.86,0,0,0-1.2.175L.171,1.838A.86.86,0,1,0,1.549,2.866L2.662,1.374a.86.86,0,0,0-.175-1.2" transform="translate(10.996 9.481)" fill="#020202"/>
  <path id="Fill_8" data-name="Fill 8" d="M2.073.171a.86.86,0,0,0-1.2.173l-.7.932a.86.86,0,1,0,1.377,1.03l.7-.932a.86.86,0,0,0-.173-1.2" transform="translate(13.589 6.563)" fill="#020202"/>
</svg>
