<svg id="Group_14" data-name="Group 14" xmlns="http://www.w3.org/2000/svg" xmlns:xlink="http://www.w3.org/1999/xlink" width="30" height="37.509" viewBox="0 0 30 37.509">
  <defs>
    <clipPath id="clip-path">
      <path id="Clip_8" data-name="Clip 8" d="M0,0H30V37.509H0Z" fill="none"/>
    </clipPath>
  </defs>
  <path id="Fill_1" data-name="Fill 1" d="M6.643.535A.577.577,0,0,0,6.315.141,1.249,1.249,0,0,0,5.723,0a1.136,1.136,0,0,0-.777.272L.15,4.918A.422.422,0,0,0,0,5.272a.576.576,0,0,0,.328.394,1.248,1.248,0,0,0,.593.141A1.134,1.134,0,0,0,1.7,5.535L6.5.889A.421.421,0,0,0,6.643.535" transform="translate(5.961 8.657)" fill="#020202"/>
  <path id="Fill_3" data-name="Fill 3" d="M3.137.141A1.249,1.249,0,0,0,2.545,0a1.132,1.132,0,0,0-.776.272L.15,1.844A.421.421,0,0,0,0,2.2a.579.579,0,0,0,.329.394,1.251,1.251,0,0,0,.592.141A1.132,1.132,0,0,0,1.7,2.46L3.32.888A.422.422,0,0,0,3.466.535.577.577,0,0,0,3.137.141" transform="translate(11.949 11.731)" fill="#020202"/>
  <path id="Fill_5" data-name="Fill 5" d="M2.535.141A1.249,1.249,0,0,0,1.941,0a1.133,1.133,0,0,0-.776.271L.15,1.254A.422.422,0,0,0,0,1.608.577.577,0,0,0,.331,2a1.249,1.249,0,0,0,.593.141A1.133,1.133,0,0,0,1.7,1.872L2.715.889A.422.422,0,0,0,2.863.535.577.577,0,0,0,2.535.141" transform="translate(15.721 8.657)" fill="#020202"/>
  <g id="Group_9" data-name="Group 9">
    <path id="Clip_8-2" data-name="Clip 8" d="M0,0H30V37.509H0Z" fill="none"/>
    <g id="Group_9-2" data-name="Group 9" clip-path="url(#clip-path)">
      <path id="Fill_7" data-name="Fill 7" d="M29.076,37.509a.959.959,0,0,1-.763-.36l-1.356-1.767H3.043L1.687,37.149a.958.958,0,0,1-.762.36.983.983,0,0,1-.545-.16A.813.813,0,0,1,.011,36.8a.761.761,0,0,1,.152-.595l3.37-4.389-.451-.136A2.476,2.476,0,0,1,1.243,29.36V6.535A2.572,2.572,0,0,1,3.919,4.088H7.653l.474-2.129A2.639,2.639,0,0,1,10.749,0h8.5a2.637,2.637,0,0,1,2.621,1.958l.475,2.129h3.734a2.572,2.572,0,0,1,2.676,2.447V29.36a2.476,2.476,0,0,1-1.839,2.324l-.45.136,3.368,4.389a.759.759,0,0,1,.154.595.818.818,0,0,1-.37.545A.982.982,0,0,1,29.076,37.509Zm-23.289-5.7-1.47,1.915H25.682l-1.47-1.915ZM3.093,18.722V29.36a.808.808,0,0,0,.825.788H26.081a.808.808,0,0,0,.826-.788V18.722ZM3.919,5.747a.808.808,0,0,0-.825.787V17.061H26.907V6.535a.808.808,0,0,0-.826-.787Zm6.83-4.087a.822.822,0,0,0-.807.623l-.4,1.8H20.461l-.4-1.8a.822.822,0,0,0-.807-.623Z" transform="translate(0)" fill="#020202"/>
    </g>
  </g>
  <path id="Fill_10" data-name="Fill 10" d="M2.93,5.859a2.93,2.93,0,1,1,2.93-2.93A2.933,2.933,0,0,1,2.93,5.859Zm0-3.87a.941.941,0,1,0,.941.941A.942.942,0,0,0,2.93,1.989Z" transform="translate(4.317 21.542)" fill="#020202"/>
  <path id="Fill_12" data-name="Fill 12" d="M2.93,5.859a2.93,2.93,0,1,1,2.93-2.93A2.933,2.933,0,0,1,2.93,5.859Zm0-3.87a.941.941,0,1,0,.941.941A.942.942,0,0,0,2.93,1.989Z" transform="translate(19.824 21.542)" fill="#020202"/>
</svg>
