<svg id="Group_10" data-name="Group 10" xmlns="http://www.w3.org/2000/svg" width="20" height="20.909" viewBox="0 0 20 20.909">
  <path id="Fill_15" data-name="Fill 15" d="M2.727,5.455A2.727,2.727,0,1,1,5.455,2.728,2.73,2.73,0,0,1,2.727,5.455Zm0-3.743A1.015,1.015,0,1,0,3.742,2.728,1.017,1.017,0,0,0,2.727,1.712Z" fill="#5E6FE0"/>
  <path id="Fill_16" data-name="Fill 16" d="M.836,1.818H11.892a.875.875,0,0,0,.836-.909A.875.875,0,0,0,11.892,0H.836A.875.875,0,0,0,0,.909a.875.875,0,0,0,.836.909" transform="translate(7.273 1.818)" fill="#5E6FE0"/>
  <path id="Fill_17" data-name="Fill 17" d="M2.727,5.455A2.727,2.727,0,1,1,5.455,2.728,2.73,2.73,0,0,1,2.727,5.455Zm0-3.743A1.016,1.016,0,1,0,3.742,2.728,1.017,1.017,0,0,0,2.727,1.712Z" transform="translate(0 8.182)" fill="#5E6FE0"/>
  <path id="Fill_18" data-name="Fill 18" d="M11.892,0H.836A.875.875,0,0,0,0,.909a.875.875,0,0,0,.836.909H11.892a.875.875,0,0,0,.836-.909A.875.875,0,0,0,11.892,0" transform="translate(7.273 9.091)" fill="#5E6FE0"/>
  <path id="Fill_19" data-name="Fill 19" d="M2.727,5.455A2.727,2.727,0,1,1,5.455,2.728,2.73,2.73,0,0,1,2.727,5.455Zm0-3.743A1.015,1.015,0,1,0,3.742,2.728,1.017,1.017,0,0,0,2.727,1.712Z" transform="translate(0 15.455)" fill="#5E6FE0"/>
  <path id="Fill_20" data-name="Fill 20" d="M11.892,0H.836A.875.875,0,0,0,0,.909a.875.875,0,0,0,.836.909H11.892a.875.875,0,0,0,.836-.909A.875.875,0,0,0,11.892,0" transform="translate(7.273 16.364)" fill="#5E6FE0"/>
</svg>
