<svg id="Group_14" data-name="Group 14" xmlns="http://www.w3.org/2000/svg" xmlns:xlink="http://www.w3.org/1999/xlink" width="30" height="28.951" viewBox="0 0 30 28.951">
  <defs>
    <clipPath id="clip-path">
      <path id="Clip_2" data-name="Clip 2" d="M0,0H30V28.951H0Z" fill="none"/>
    </clipPath>
  </defs>
  <g id="Group_3" data-name="Group 3">
    <path id="Clip_2-2" data-name="Clip 2" d="M0,0H30V28.951H0Z" fill="none"/>
    <g id="Group_3-2" data-name="Group 3" clip-path="url(#clip-path)">
      <path id="Fill_1" data-name="Fill 1" d="M23.328,28.95a1.779,1.779,0,0,1-1.777-1.777V25.29H8.344v1.884a1.777,1.777,0,0,1-3.554,0V25.29H2.109A2.111,2.111,0,0,1,0,23.182V12.631a2.111,2.111,0,0,1,2.109-2.109H3.118L4.739,1.739A2.1,2.1,0,0,1,6.814,0H23.18a2.106,2.106,0,0,1,2.078,1.749l1.619,8.773h1.015A2.111,2.111,0,0,1,30,12.631V23.182a2.11,2.11,0,0,1-2.108,2.108H25.106v1.884A1.779,1.779,0,0,1,23.328,28.95ZM2.109,12.28a.352.352,0,0,0-.352.351V23.182a.352.352,0,0,0,.352.351H27.892a.351.351,0,0,0,.351-.351V12.631a.351.351,0,0,0-.351-.351H2.109ZM6.814,1.757a.352.352,0,0,0-.347.292L4.9,10.522H25.089L23.528,2.057a.352.352,0,0,0-.348-.3Z" transform="translate(0 0)" fill="#020202"/>
    </g>
  </g>
  <path id="Fill_4" data-name="Fill 4" d="M2.588,5.176A2.588,2.588,0,1,1,5.176,2.588,2.591,2.591,0,0,1,2.588,5.176Zm0-3.419a.831.831,0,1,0,.831.832A.833.833,0,0,0,2.588,1.757Z" transform="translate(3.017 15.852)" fill="#020202"/>
  <path id="Fill_6" data-name="Fill 6" d="M2.588,5.176A2.588,2.588,0,1,1,5.176,2.588,2.591,2.591,0,0,1,2.588,5.176Zm0-3.419a.831.831,0,1,0,.831.832A.833.833,0,0,0,2.588,1.757Z" transform="translate(20.991 15.852)" fill="#020202"/>
  <path id="Fill_8" data-name="Fill 8" d="M4.772.175A.878.878,0,0,0,3.543.353L.175,4.863A.879.879,0,1,0,1.582,5.914L4.95,1.4A.878.878,0,0,0,4.772.175" transform="translate(7.683 2.968)" fill="#020202"/>
  <path id="Fill_10" data-name="Fill 10" d="M2.543.175a.879.879,0,0,0-1.23.178L.175,1.877A.879.879,0,1,0,1.583,2.928L2.721,1.4A.878.878,0,0,0,2.543.175" transform="translate(13.029 5.954)" fill="#020202"/>
  <path id="Fill_12" data-name="Fill 12" d="M2.12.175A.879.879,0,0,0,.89.353l-.715.958A.879.879,0,1,0,1.583,2.362L2.3,1.4A.878.878,0,0,0,2.12.175" transform="translate(15.681 2.968)" fill="#020202"/>
</svg>
