<svg id="Group_34" data-name="Group 34" xmlns="http://www.w3.org/2000/svg" xmlns:xlink="http://www.w3.org/1999/xlink" width="20" height="16" viewBox="0 0 20 16">
  <defs>
    <clipPath id="clip-path">
      <path id="Clip_33" data-name="Clip 33" d="M12.316.258A4.2,4.2,0,0,0,9.585,4.8h0c-2.164.472-6.918-2.209-8.2-4.12h0A4.083,4.083,0,0,0,2.634,6.1h0a3.5,3.5,0,0,1-1.85-.487h0c0,2.843,1.744,3.559,3.229,4.028h0a3.135,3.135,0,0,1-1.8.023h0c.79,2.2,2.234,2.627,3.844,2.858h0C4.457,13.7,3.077,14.335,0,14.2H0a12.136,12.136,0,0,0,13.865-.794h0a11.722,11.722,0,0,0,3.5-5.068h0a12.3,12.3,0,0,0,.65-3.081h0c.056-.7-.045-1.053.524-1.568h0a9.953,9.953,0,0,0,1.4-1.581h0c.1-.131.052-.236-.056-.268h0a.41.41,0,0,0-.274.035h0a18.28,18.28,0,0,1-2.1.651h0A4.019,4.019,0,0,0,19.259.275h0a14.476,14.476,0,0,1-2.247.907h0a.293.293,0,0,1-.141.007h0a.32.32,0,0,1-.166-.109h0A3.589,3.589,0,0,0,15.548.333h0A4.687,4.687,0,0,0,13.835,0h0a4.713,4.713,0,0,0-1.519.258" fill="#b2b6b5"/>
    </clipPath>
  </defs>
  <path id="Clip_33-2" data-name="Clip 33" d="M12.316.258A4.2,4.2,0,0,0,9.585,4.8h0c-2.164.472-6.918-2.209-8.2-4.12h0A4.083,4.083,0,0,0,2.634,6.1h0a3.5,3.5,0,0,1-1.85-.487h0c0,2.843,1.744,3.559,3.229,4.028h0a3.135,3.135,0,0,1-1.8.023h0c.79,2.2,2.234,2.627,3.844,2.858h0C4.457,13.7,3.077,14.335,0,14.2H0a12.136,12.136,0,0,0,13.865-.794h0a11.722,11.722,0,0,0,3.5-5.068h0a12.3,12.3,0,0,0,.65-3.081h0c.056-.7-.045-1.053.524-1.568h0a9.953,9.953,0,0,0,1.4-1.581h0c.1-.131.052-.236-.056-.268h0a.41.41,0,0,0-.274.035h0a18.28,18.28,0,0,1-2.1.651h0A4.019,4.019,0,0,0,19.259.275h0a14.476,14.476,0,0,1-2.247.907h0a.293.293,0,0,1-.141.007h0a.32.32,0,0,1-.166-.109h0A3.589,3.589,0,0,0,15.548.333h0A4.687,4.687,0,0,0,13.835,0h0a4.713,4.713,0,0,0-1.519.258" fill="#b2b6b5"/>
  <g id="Group_34-2" data-name="Group 34" clip-path="url(#clip-path)">
    <path id="Fill_32" data-name="Fill 32" d="M28.547,7.419V21a7.444,7.444,0,0,1-7.452,7.419H7.452A7.444,7.444,0,0,1,0,21V7.419A7.444,7.444,0,0,1,7.452,0H21.095a7.444,7.444,0,0,1,7.452,7.419" transform="translate(-4.274 -6.209)" fill="#b2b6b5"/>
  </g>
</svg>
