<svg id="Group_9" data-name="Group 9" xmlns="http://www.w3.org/2000/svg" xmlns:xlink="http://www.w3.org/1999/xlink" width="22" height="21.819" viewBox="0 0 22 21.819">
  <defs>
    <clipPath id="clip-path">
      <path id="Clip_2" data-name="Clip 2" d="M0,0H22V13.549H0Z" fill="none"/>
    </clipPath>
    <clipPath id="clip-path-2">
      <path id="Clip_5" data-name="Clip 5" d="M0,0H4.349V6.723H0Z" fill="none"/>
    </clipPath>
  </defs>
  <g id="Group_3" data-name="Group 3" transform="translate(0 8.27)">
    <path id="Clip_2-2" data-name="Clip 2" d="M0,0H22V13.549H0Z" fill="none"/>
    <g id="Group_3-2" data-name="Group 3" clip-path="url(#clip-path)">
      <path id="Fill_1" data-name="Fill 1" d="M7.156,13.549H3.789A3.752,3.752,0,0,1,.075,10.513,3.868,3.868,0,0,1,0,9.764c0-2.737,0-5.52,0-8.212V1.537A1.468,1.468,0,0,1,1.533,0h9.177q3.4,0,6.805,0a4.488,4.488,0,0,1,2.876,1.03A4.4,4.4,0,0,1,21.9,3.685a5.076,5.076,0,0,1-.44,3.394,4.311,4.311,0,0,1-3.515,2.341c-.286.028-.572.032-.789.032l-.317,0h-.626c-.017.139-.031.276-.044.408a6.753,6.753,0,0,1-.118.842A3.716,3.716,0,0,1,12.8,13.524c-.167.016-.3.023-.426.023H7.156Zm9.018-6.8c.135,0,.319,0,.513.009.243.006.514.012.76.012s.442-.007.573-.021a2.037,2.037,0,0,0-.007-4.028c-.316-.034-.9-.034-1.373-.034-.171,0-.324,0-.441,0a.03.03,0,0,0-.017.009l-.01.007V6.746Z" transform="translate(0)"/>
    </g>
  </g>
  <g id="Group_6" data-name="Group 6" transform="translate(2.892)">
    <path id="Clip_5-2" data-name="Clip 5" d="M0,0H4.349V6.723H0Z" fill="none"/>
    <g id="Group_6-2" data-name="Group 6" clip-path="url(#clip-path-2)">
      <path id="Fill_4" data-name="Fill 4" d="M0,1.141A6.291,6.291,0,0,1,.122.5.718.718,0,0,1,1,.026a.707.707,0,0,1,.509.835,1.453,1.453,0,0,0,.638,1.457A4.439,4.439,0,0,1,4.3,5.616a1.619,1.619,0,0,1,.041.45.729.729,0,0,1-.733.657A.763.763,0,0,1,2.891,6a3.247,3.247,0,0,0-.924-2.012,2.738,2.738,0,0,0-.5-.376A2.958,2.958,0,0,1,.055,1.526C.031,1.4.03,1.272.019,1.144L0,1.141" transform="translate(0 0)"/>
    </g>
  </g>
  <path id="Fill_7" data-name="Fill 7" d="M0,1.076A5.648,5.648,0,0,1,.1.517.723.723,0,0,1,1.5.871,1.373,1.373,0,0,0,2.125,2.3,4.418,4.418,0,0,1,4.238,5.331a2.661,2.661,0,0,1,.091.728.713.713,0,0,1-.726.661A.758.758,0,0,1,2.879,6a3.468,3.468,0,0,0-.614-1.659,2.542,2.542,0,0,0-.789-.726A2.928,2.928,0,0,1,.044,1.529C.019,1.4.017,1.265,0,1.076" transform="translate(7.686 0.002)"/>
</svg>
