<svg id="Group_3" data-name="Group 3" xmlns="http://www.w3.org/2000/svg" xmlns:xlink="http://www.w3.org/1999/xlink" width="14" height="14" viewBox="0 0 14 14">
  <defs>
    <clipPath id="clip-path">
      <path id="Clip_2" data-name="Clip 2" d="M0,0H14V14H0Z" fill="none"/>
    </clipPath>
  </defs>
  <path id="Clip_2-2" data-name="Clip 2" d="M0,0H14V14H0Z" fill="none"/>
  <g id="Group_3-2" data-name="Group 3" clip-path="url(#clip-path)">
    <path id="Fill_1" data-name="Fill 1" d="M8.7,7.747,7.929,7,8.7,6.25l5.072-4.972a.74.74,0,0,0,0-1.059A.768.768,0,0,0,13.238,0h0A.767.767,0,0,0,12.7.219L7,5.806,1.3.219a.774.774,0,0,0-1.079,0,.74.74,0,0,0,0,1.059L5.3,6.252,6.071,7,5.3,7.749.223,12.721a.74.74,0,0,0,0,1.059.771.771,0,0,0,1.079,0L7,8.193l5.7,5.587a.771.771,0,0,0,1.079,0,.74.74,0,0,0,0-1.059Z" transform="translate(0)"/>
  </g>
</svg>
