<svg xmlns="http://www.w3.org/2000/svg" xmlns:xlink="http://www.w3.org/1999/xlink" width="15" height="15" viewBox="0 0 15 15">
  <defs>
    <clipPath id="clip-path">
      <path id="Clip_2" data-name="Clip 2" d="M0,0H15V15H0Z" fill="none"/>
    </clipPath>
  </defs>
  <g id="Group_3" data-name="Group 3" clip-path="url(#clip-path)">
    <path id="Fill_1" data-name="Fill 1" d="M11.315,8.8a1.321,1.321,0,0,0-1.787.033l-.517.518a.3.3,0,0,1-.415,0L5.644,6.393a.3.3,0,0,1,0-.416l.518-.519A1.3,1.3,0,0,0,6.2,3.682L3.53.448A1.279,1.279,0,0,0,2.5,0a1.283,1.283,0,0,0-1,.5l-.05.067A6.476,6.476,0,0,0,0,4.094c0,1.72,1.226,3.861,3.546,6.194l.59.591c.97.966,4.323,4.12,6.755,4.12a6.478,6.478,0,0,0,3.532-1.454l.054-.042A1.291,1.291,0,0,0,15,12.463a1.314,1.314,0,0,0-.472-1Z"/>
  </g>
</svg>
