<svg xmlns="http://www.w3.org/2000/svg" width="22" height="22.917" viewBox="0 0 22 22.917">
  <g id="Group_11" data-name="Group 11" transform="translate(0)">
    <path id="Fill_3" data-name="Fill 3" d="M18.1,22.917H2.912a.88.88,0,0,1-.443-.122A3.3,3.3,0,0,1,0,19.61V.894A.893.893,0,0,1,.891,0H18.023a.893.893,0,0,1,.89.894V16.663h2.2a.893.893,0,0,1,.89.895V19A3.912,3.912,0,0,1,18.1,22.917ZM6.815,18.451V19a3.881,3.881,0,0,1-.633,2.126l11.917,0A2.126,2.126,0,0,0,20.219,19v-.551ZM1.781,1.787V19.61A1.491,1.491,0,0,0,3.11,21.1,2.132,2.132,0,0,0,5.034,19V17.557a.893.893,0,0,1,.89-.895H17.132V1.787Z" fill="#fff"/>
    <path id="Fill_5" data-name="Fill 5" d="M.786,1.833h2.1A.859.859,0,0,0,3.667.917.859.859,0,0,0,2.881,0H.786A.859.859,0,0,0,0,.917a.859.859,0,0,0,.786.917" transform="translate(5.5 5.5)" fill="#fff"/>
    <path id="Fill_7" data-name="Fill 7" d="M8.28,0H.887A.9.9,0,0,0,0,.917a.9.9,0,0,0,.887.917H8.28A.9.9,0,0,0,9.167.917.9.9,0,0,0,8.28,0" transform="translate(5.5 9.167)" fill="#fff"/>
  </g>
</svg>
