<svg xmlns="http://www.w3.org/2000/svg" xmlns:xlink="http://www.w3.org/1999/xlink" width="21" height="21" viewBox="0 0 21 21">
  <defs>
    <clipPath id="clip-path">
      <path id="Clip_4" data-name="Clip 4" d="M5.5,11A5.5,5.5,0,1,1,11,5.5,5.506,5.506,0,0,1,5.5,11Zm0-9.169A3.669,3.669,0,1,0,9.169,5.5,3.673,3.673,0,0,0,5.5,1.831Z" fill="#b2b6b5"/>
    </clipPath>
    <clipPath id="clip-path-2">
      <path id="Clip_7" data-name="Clip 7" d="M5.5,11A5.5,5.5,0,1,1,11,5.5,5.506,5.506,0,0,1,5.5,11Zm0-9.169A3.669,3.669,0,1,0,9.169,5.5,3.673,3.673,0,0,0,5.5,1.831Z" fill="none"/>
    </clipPath>
    <clipPath id="clip-path-3">
      <path id="Clip_12" data-name="Clip 12" d="M15.518,21H5.482A5.488,5.488,0,0,1,0,15.518V5.482A5.488,5.488,0,0,1,5.482,0H15.518A5.488,5.488,0,0,1,21,5.482V15.518A5.488,5.488,0,0,1,15.518,21ZM5.482,1.8A3.69,3.69,0,0,0,1.8,5.482V15.518A3.69,3.69,0,0,0,5.482,19.2H15.518A3.691,3.691,0,0,0,19.2,15.518V5.482A3.69,3.69,0,0,0,15.518,1.8Z" fill="none"/>
    </clipPath>
    <clipPath id="clip-path-4">
      <path id="Clip_17" data-name="Clip 17" d="M0,1.5A1.5,1.5,0,0,0,1.5,3h0A1.5,1.5,0,0,0,3,1.5H3A1.5,1.5,0,0,0,1.5,0h0A1.5,1.5,0,0,0,0,1.5" fill="#b2b6b5"/>
    </clipPath>
    <clipPath id="clip-path-5">
      <path id="Clip_20" data-name="Clip 20" d="M0,1.5A1.5,1.5,0,0,0,1.5,3h0A1.5,1.5,0,0,0,3,1.5H3A1.5,1.5,0,0,0,1.5,0h0A1.5,1.5,0,0,0,0,1.5" fill="none"/>
    </clipPath>
  </defs>
  <g id="그룹_93" data-name="그룹 93" transform="translate(-132 -432)">
    <path id="Fill_1" data-name="Fill 1" d="M5.5,11A5.5,5.5,0,1,1,11,5.5,5.506,5.506,0,0,1,5.5,11Zm0-9.168A3.669,3.669,0,1,0,9.169,5.5,3.673,3.673,0,0,0,5.5,1.832Z" transform="translate(137 437)" fill="#fff"/>
    <path id="Clip_4-2" data-name="Clip 4" d="M5.5,11A5.5,5.5,0,1,1,11,5.5,5.506,5.506,0,0,1,5.5,11Zm0-9.169A3.669,3.669,0,1,0,9.169,5.5,3.673,3.673,0,0,0,5.5,1.831Z" transform="translate(137 437)" fill="#b2b6b5"/>
    <g id="Group_5" data-name="Group 5" transform="translate(137 437)" clip-path="url(#clip-path)">
      <path id="Fill_3" data-name="Fill 3" d="M20.571,29.05H8.479A8.479,8.479,0,0,1,0,20.571V8.479A8.479,8.479,0,0,1,8.479,0H20.571A8.479,8.479,0,0,1,29.05,8.479V20.571a8.479,8.479,0,0,1-8.479,8.479" transform="translate(-9.025 -9.025)" fill="#b2b6b5"/>
    </g>
    <g id="Group_8" data-name="Group 8" transform="translate(137 437)">
      <path id="Clip_7-2" data-name="Clip 7" d="M5.5,11A5.5,5.5,0,1,1,11,5.5,5.506,5.506,0,0,1,5.5,11Zm0-9.169A3.669,3.669,0,1,0,9.169,5.5,3.673,3.673,0,0,0,5.5,1.831Z" fill="none"/>
      <g id="Group_8-2" data-name="Group 8" clip-path="url(#clip-path-2)">
        <path id="Fill_6" data-name="Fill 6" d="M5.5,11A5.5,5.5,0,1,1,11,5.5,5.506,5.506,0,0,1,5.5,11Zm0-9.169A3.669,3.669,0,1,0,9.169,5.5,3.673,3.673,0,0,0,5.5,1.831Z" fill="none"/>
      </g>
    </g>
    <path id="Fill_9" data-name="Fill 9" d="M15.518,21H5.482A5.488,5.488,0,0,1,0,15.518V5.482A5.488,5.488,0,0,1,5.482,0H15.518A5.488,5.488,0,0,1,21,5.482V15.518A5.488,5.488,0,0,1,15.518,21ZM5.482,1.8A3.69,3.69,0,0,0,1.8,5.482V15.518A3.69,3.69,0,0,0,5.482,19.2H15.518A3.691,3.691,0,0,0,19.2,15.518V5.482A3.69,3.69,0,0,0,15.518,1.8Z" transform="translate(132 432)" fill="#b2b6b5"/>
    <g id="Group_13" data-name="Group 13" transform="translate(132 432)">
      <path id="Clip_12-2" data-name="Clip 12" d="M15.518,21H5.482A5.488,5.488,0,0,1,0,15.518V5.482A5.488,5.488,0,0,1,5.482,0H15.518A5.488,5.488,0,0,1,21,5.482V15.518A5.488,5.488,0,0,1,15.518,21ZM5.482,1.8A3.69,3.69,0,0,0,1.8,5.482V15.518A3.69,3.69,0,0,0,5.482,19.2H15.518A3.691,3.691,0,0,0,19.2,15.518V5.482A3.69,3.69,0,0,0,15.518,1.8Z" fill="none"/>
      <g id="Group_13-2" data-name="Group 13" clip-path="url(#clip-path-3)">
        <path id="Fill_11" data-name="Fill 11" d="M15.518,21H5.482A5.488,5.488,0,0,1,0,15.518V5.482A5.488,5.488,0,0,1,5.482,0H15.518A5.488,5.488,0,0,1,21,5.482V15.518A5.488,5.488,0,0,1,15.518,21ZM5.482,1.8A3.69,3.69,0,0,0,1.8,5.482V15.518A3.69,3.69,0,0,0,5.482,19.2H15.518A3.691,3.691,0,0,0,19.2,15.518V5.482A3.69,3.69,0,0,0,15.518,1.8Z" fill="none"/>
      </g>
    </g>
    <path id="Fill_14" data-name="Fill 14" d="M3,1.5A1.5,1.5,0,1,1,1.5,0,1.5,1.5,0,0,1,3,1.5" transform="translate(146 436)" fill="#fff"/>
    <g id="Group_18" data-name="Group 18" transform="translate(146 436)">
      <path id="Clip_17-2" data-name="Clip 17" d="M0,1.5A1.5,1.5,0,0,0,1.5,3h0A1.5,1.5,0,0,0,3,1.5H3A1.5,1.5,0,0,0,1.5,0h0A1.5,1.5,0,0,0,0,1.5" fill="#b2b6b5"/>
      <g id="Group_18-2" data-name="Group 18" clip-path="url(#clip-path-4)">
        <path id="Fill_16" data-name="Fill 16" d="M24.4,34.46H10.058A10.058,10.058,0,0,1,0,24.4V10.058A10.058,10.058,0,0,1,10.058,0H24.4A10.058,10.058,0,0,1,34.46,10.058V24.4A10.058,10.058,0,0,1,24.4,34.46" transform="translate(-22.436 -8.912)" fill="#b2b6b5"/>
      </g>
    </g>
    <g id="Group_21" data-name="Group 21" transform="translate(146 436)">
      <path id="Clip_20-2" data-name="Clip 20" d="M0,1.5A1.5,1.5,0,0,0,1.5,3h0A1.5,1.5,0,0,0,3,1.5H3A1.5,1.5,0,0,0,1.5,0h0A1.5,1.5,0,0,0,0,1.5" fill="none"/>
      <g id="Group_21-2" data-name="Group 21" clip-path="url(#clip-path-5)">
        <path id="Fill_19" data-name="Fill 19" d="M0,1.5A1.5,1.5,0,0,0,1.5,3h0A1.5,1.5,0,0,0,3,1.5H3A1.5,1.5,0,0,0,1.5,0h0A1.5,1.5,0,0,0,0,1.5" fill="none"/>
      </g>
    </g>
  </g>
</svg>
