<svg xmlns="http://www.w3.org/2000/svg" width="20" height="16" viewBox="0 0 20 16">
  <g id="Combined_Shape" data-name="Combined Shape" fill="#fff" stroke-miterlimit="10">
    <path d="M 7.925004005432129 14.22486591339111 C 8.095104217529297 13.7183666229248 8.230683326721191 13.12628269195557 8.330889701843262 12.45076751708984 L 8.404990196228027 11.95119762420654 L 7.904709815979004 11.88209819793701 C 3.614129781723022 11.28944778442383 0.4999998509883881 8.925937652587891 0.4999998509883881 6.262197971343994 C 0.4999998509883881 4.767987728118896 1.456889867782593 3.345887899398804 3.194409847259521 2.257857799530029 C 5.004659652709961 1.124287843704224 7.42156982421875 0.4999978840351105 9.999899864196777 0.4999978840351105 C 12.57855987548828 0.4999978840351105 14.99557971954346 1.124277830123901 16.80570983886719 2.257847785949707 C 18.54302024841309 3.345817804336548 19.49979972839355 4.767918109893799 19.49979972839355 6.262197971343994 C 19.49979972839355 9.251977920532227 15.65089988708496 11.77542781829834 10.73740005493164 12.00706768035889 L 10.51605987548828 12.01750755310059 L 10.37512016296387 12.18849754333496 C 9.717103004455566 12.98680686950684 8.811412811279297 13.67378902435303 7.925004005432129 14.22486591339111 Z" stroke="none"/>
    <path d="M 8.736412048339844 13.05767631530762 C 9.239023208618164 12.66810703277588 9.66004753112793 12.26992607116699 9.989299774169922 11.8704776763916 L 10.27118015289307 11.52849769592285 L 10.71385955810547 11.50762748718262 C 13.04199981689453 11.39786815643311 15.18933963775635 10.75587749481201 16.76030921936035 9.699917793273926 C 18.20446968078613 8.72919750213623 18.99979972839355 7.508327960968018 18.99979972839355 6.262197971343994 C 18.99979972839355 4.946437835693359 18.12635040283203 3.674827814102173 16.54034042358398 2.681607961654663 C 14.8087100982666 1.597207903862 12.48593997955322 0.9999978542327881 9.999899864196777 0.9999978542327881 C 7.514189720153809 0.9999978542327881 5.191529750823975 1.597207903862 3.459779977798462 2.681627988815308 C 1.873569846153259 3.674907922744751 0.9999998807907104 4.946507930755615 0.9999998807907104 6.262197971343994 C 0.9999998807907104 7.694498062133789 2.004619836807251 8.768837928771973 2.847389936447144 9.417867660522461 C 4.133969783782959 10.40870761871338 5.954329967498779 11.10794830322266 7.973129749298096 11.38680744171143 L 8.973679542541504 11.52500820159912 L 8.825479507446289 12.52412796020508 C 8.798202514648438 12.70801258087158 8.768523216247559 12.88584136962891 8.736412048339844 13.05767631530762 M 5.603049755096436 16.00029754638672 C 5.559309959411621 16.0003776550293 5.985970020294189 15.83123779296875 6.63461971282959 15.51042747497559 C 6.452369689941406 15.68471813201904 6.247069835662842 15.81260776519775 6.015599727630615 15.88229751586914 C 5.752429962158203 15.96156787872314 5.623960018157959 16.00025749206543 5.603049755096436 16.00029754638672 Z M 6.63461971282959 15.51042747497559 C 7.291179656982422 14.88254833221436 7.647069931030273 13.65306758880615 7.836299896240234 12.37739753723145 C 3.3538498878479 11.7582483291626 -1.358032193365943e-07 9.255627632141113 -1.358032193365943e-07 6.262197971343994 C -1.358032193365943e-07 2.803497791290283 4.477499961853027 -2.126159643012215e-06 9.999899864196777 -2.126159643012215e-06 C 15.52320003509521 -2.126159643012215e-06 19.99979972839355 2.803497791290283 19.99979972839355 6.262197971343994 C 19.99979972839355 9.560467720031738 15.92840003967285 12.26289749145508 10.76095008850098 12.50651741027832 C 9.601119995117188 13.91362762451172 7.775049686431885 14.94639778137207 6.63461971282959 15.51042747497559 Z" stroke="none" fill="#919191"/>
  </g>
</svg>