<svg xmlns="http://www.w3.org/2000/svg" width="13.154" height="12.245" viewBox="0 0 13.154 12.245">
  <g id="Path_2" data-name="Path 2" transform="translate(1.005 0.994)" fill="none" stroke-miterlimit="10">
    <path d="M5.734,2.591S5.164-.259,2.6.026-.82,3.446.89,5.44A48.053,48.053,0,0,0,5.734,10s3.7-2.565,4.845-4.56.57-5.13-1.71-5.415C6.3-.259,5.734,2.591,5.734,2.591Z" stroke="none"/>
    <path d="M 2.952383041381836 0.0058746337890625 C 2.839035987854004 0.0058746337890625 2.72166633605957 0.01232242584228516 2.599408149719238 0.02590656280517578 C 0.03463840484619141 0.3108758926391602 -0.820281982421875 3.445596218109131 0.8895578384399414 5.44041633605957 C 2.599408149719238 7.435235977172852 5.734117984771729 9.999996185302734 5.734117984771729 9.999996185302734 C 5.734117984771729 9.999996185302734 9.438788414001465 7.435235977172852 10.57867813110352 5.44041633605957 C 11.71857833862305 3.445596218109131 11.14862823486328 0.3108758926391602 8.868838310241699 0.02590656280517578 C 6.304067134857178 -0.2590599060058594 5.734117984771729 2.590676307678223 5.734117984771729 2.590676307678223 C 5.734117984771729 2.590676307678223 5.216862201690674 0.0058746337890625 2.952383041381836 0.0058746337890625 M 2.952378273010254 -0.9941234588623047 C 4.222501754760742 -0.9941234588623047 5.126339435577393 -0.3932886123657227 5.734091281890869 0.3481245040893555 C 6.341825485229492 -0.3932962417602539 7.245643615722656 -0.9941234588623047 8.515788078308105 -0.9941234588623047 C 8.667247772216797 -0.9941234588623047 8.82316780090332 -0.9853239059448242 8.97929859161377 -0.9679737091064453 L 8.992868423461914 -0.9663734436035156 C 10.15290832519531 -0.8213634490966797 11.095778465271 -0.1335039138793945 11.64778804779053 0.9705162048339844 C 12.38381767272949 2.442566394805908 12.30308818817139 4.438266277313232 11.44691848754883 5.936556339263916 C 10.22963809967041 8.066816329956055 6.701608180999756 10.5464563369751 6.303328037261963 10.82218647003174 L 5.683938026428223 11.25099658966064 L 5.100878238677979 10.77395629882812 C 4.970088005065918 10.66694641113281 1.877628326416016 8.129746437072754 0.1302986145019531 6.091206550598145 C -0.990692138671875 4.783376216888428 -1.308921813964844 3.012376308441162 -0.7001819610595703 1.46933650970459 C -0.1620521545410156 0.1052560806274414 1.030158042907715 -0.8058938980102539 2.488978385925293 -0.9679737091064453 C 2.645188331604004 -0.9853239059448242 2.801077842712402 -0.9941234588623047 2.952378273010254 -0.9941234588623047 Z" stroke="none" fill="#919191"/>
  </g>
</svg>
