<svg xmlns="http://www.w3.org/2000/svg" width="45" height="45" viewBox="0 0 45 45">
  <path id="Shape" d="M1.875,45V18.75H43.125v5.43a5.216,5.216,0,0,0-2.588-.771c-.1-.005-.2-.008-.291-.008a5.384,5.384,0,0,0-4.5,2.61,10.715,10.715,0,0,0-1.651,5.57,10.872,10.872,0,0,1,3.708-.629,9.236,9.236,0,0,1,3.072.48A3.769,3.769,0,0,1,42.895,32.9a1.694,1.694,0,0,1-.2,1.921,1.906,1.906,0,0,1-1.507.723,2.175,2.175,0,0,1-.7-.12,1.829,1.829,0,0,0-.576-.118.711.711,0,0,0-.567.278.818.818,0,0,0-.174.652c.082.41.565.689.956.852a4.366,4.366,0,0,0,1.668.312,5.209,5.209,0,0,0,1.337-.176v.885a6.132,6.132,0,0,1-1.339.149,5.238,5.238,0,0,1-2-.373c-1.056-.44-1.382-1.046-1.469-1.476a1.672,1.672,0,0,1,.4-1.43,1.588,1.588,0,0,1,1.179-.535,2.661,2.661,0,0,1,.86.164,1.275,1.275,0,0,0,.417.073,1.084,1.084,0,0,0,.942-.55.788.788,0,0,0,.035-.784c-.553-.915-2.375-1.554-4.432-1.554a9.292,9.292,0,0,0-3.583.7l-.053.023-.022.01a8.955,8.955,0,0,0-4.366,4.2,3.015,3.015,0,0,1,1.111-.215c1.415,0,2.722,1.018,3.876,1.917.193.15.374.292.557.429A10.566,10.566,0,0,0,41.863,41.4c.111,0,.224,0,.337-.005a8.2,8.2,0,0,0,.925-.085V45H1.875ZM22.138,27.877V38.542a1.935,1.935,0,0,0,.4,1.329,1.326,1.326,0,0,0,1.023.443,1.358,1.358,0,0,0,1.059-.443,1.951,1.951,0,0,0,.4-1.329V26.307a1.539,1.539,0,0,0-.527-1.365,2.533,2.533,0,0,0-1.424-.354H22.1a3.715,3.715,0,0,0-1.271.158,1.068,1.068,0,0,0-.586.57,8.873,8.873,0,0,0-.432,1.339l-2.246,8.469-2.246-8.469a8.914,8.914,0,0,0-.433-1.339,1.069,1.069,0,0,0-.585-.57,3.715,3.715,0,0,0-1.271-.158h-.97a2.529,2.529,0,0,0-1.424.354,1.539,1.539,0,0,0-.527,1.365V38.542a1.935,1.935,0,0,0,.4,1.335,1.452,1.452,0,0,0,2.083-.005,1.951,1.951,0,0,0,.4-1.329V27.868l2.479,9.851c.075.29.156.6.247.933a3.492,3.492,0,0,0,.332.817,1.7,1.7,0,0,0,.59.607,1.731,1.731,0,0,0,.929.238,1.651,1.651,0,0,0,1.139-.369,1.948,1.948,0,0,0,.564-.817c.1-.294.23-.755.4-1.409l2.477-9.842ZM37.5,11.25V9.191L32.087,0h3.776L45,9.32v2.057A3.735,3.735,0,0,1,41.25,15,3.846,3.846,0,0,1,37.5,11.25Zm-9.375,0V9.191L26.365,0h3.643l5.613,9.379v2.058A3.682,3.682,0,0,1,31.875,15,3.846,3.846,0,0,1,28.125,11.25Zm-9.375,0V9.191L20.714,0h3.571L26.25,9.187v2.059a3.75,3.75,0,1,1-7.5,0Zm-9.374.128V9.32L14.992,0h3.643l-1.76,9.32V11.38a3.752,3.752,0,0,1-7.5,0ZM0,11.378V9.32L9.139,0h3.775L7.5,9.32V11.38a3.752,3.752,0,0,1-7.5,0Z" fill="#d8d8d8"/>
</svg>
