<?xml version="1.0" encoding="UTF-8"?>
<svg width="181px" height="37px" viewBox="0 0 181 37" version="1.1" xmlns="http://www.w3.org/2000/svg" xmlns:xlink="http://www.w3.org/1999/xlink">
    <title>Combined Shape</title>
    <g id="Page-1" stroke="none" stroke-width="1" fill="none" fill-rule="evenodd">
        <path d="M23.9656872,2.90731281 L23.9656872,33.5872867 C23.9656872,33.5872867 23.9656872,33.6580925 23.9777277,33.6931765 C24.0480698,35.1054657 25.2090317,36.2236875 26.6285483,36.2236875 C28.048065,36.2236875 29.3028163,35.0231778 29.3028163,33.5400828 L29.3028163,2.91879484 C29.3028163,1.43633768 28.1063666,0.235828059 26.6285483,0.235828059 C25.1507301,0.235828059 23.9536466,1.43633768 23.9536466,2.91879484 M42.5115456,3.21298986 L42.4995051,3.21298986 C41.3030553,3.21298986 40.3410793,4.17811795 40.3410793,5.36650765 C40.3410793,6.55553525 41.3150959,7.52002545 42.4995051,7.52002545 L56.0134305,7.52002545 L58.699739,7.52002545 L58.699739,10.7445611 L43.1452584,10.7445611 L43.1218111,10.7445611 C42.7580599,10.7445611 42.4412035,10.8038849 42.159835,10.8740529 C41.7137012,11.0035446 41.3499501,11.2038422 41.0806221,11.5093916 C40.6230815,12.0273586 40.4000146,12.7456231 40.4000146,13.6399454 L40.4000146,17.923379 L40.4000146,18.0056669 L40.4000146,19.6297357 C40.4000146,20.5361779 40.6230815,21.2423225 41.0806221,21.7596515 C41.3499501,22.0658389 41.7137012,22.2776185 42.159835,22.3956282 C42.4526104,22.4779161 42.7815073,22.536602 43.1566653,22.536602 L45.021682,22.536602 L45.1275121,22.536602 L49.573641,22.536602 L49.573641,26.0316032 L38.1477993,26.0316032 L38.1123114,26.0316032 C36.8575601,26.0316032 35.8366488,27.0554172 35.8366488,28.3031307 C35.8366488,29.5508442 36.8575601,30.5746582 38.1123114,30.5746582 L66.8055594,30.5746582 C66.9462437,30.5746582 67.0520737,30.5625383 67.1693106,30.5389363 C68.2599303,30.3743606 69.0932626,29.4328345 69.0932626,28.3031307 C69.0932626,27.0439351 68.0723513,26.0316032 66.8169662,26.0316032 L66.782112,26.0316032 L54.9342176,26.0316032 L54.9342176,22.536602 L62.8638658,22.536602 C63.0045501,22.536602 63.1338275,22.513 63.2631049,22.4893981 C64.2833825,22.3248224 65.0812269,21.4419821 65.0812269,20.3709643 C65.0812269,19.1825746 64.1192509,18.2174465 62.9228011,18.2174465 C62.8759064,18.2174465 62.8404184,18.2174465 62.7935237,18.2295664 L46.1832776,18.2295664 C45.9722512,18.2295664 45.8195264,18.1823625 45.7136964,18.0879547 C45.6085001,17.9941849 45.5616053,17.8174892 45.5616053,17.5234218 L45.5616053,15.0401147 L52.9868182,15.0401147 L61.1160859,15.0401147 C62.0432077,15.0401147 62.7352221,14.7811312 63.1927628,14.2631642 C63.6382629,13.7458352 63.8727366,13.0275707 63.8727366,12.1332484 L63.8727366,4.94294847 C63.8727366,4.37777762 63.708605,3.94273641 63.3917486,3.66015099 C63.1224206,3.41328743 62.7466289,3.29527772 62.3125357,3.24807383 C62.2187462,3.24807383 62.1484041,3.21298986 62.0546146,3.21298986 L42.5115456,3.21298986 Z M81.8441344,32.6457605 C81.7383044,32.5634727 81.6914096,32.3867771 81.6914096,32.1041916 L81.6914096,29.3153351 L94.8536244,29.3153351 L94.8536244,32.7631324 L82.3016751,32.7631324 C82.0906487,32.7631324 81.9379239,32.7280484 81.8320939,32.6457605 M102.830167,18.4533383 L102.80672,18.4533383 L73.9379336,18.4533383 L73.9024456,18.4533383 C72.7294433,18.4533383 71.7795078,19.4063465 71.7795078,20.5711343 C71.7795078,21.7365599 72.7294433,22.6895681 73.9024456,22.6895681 L85.5862085,22.6895681 L85.5862085,25.0905873 L79.1812732,25.0905873 C78.372022,25.0905873 77.7617566,25.3023669 77.3162565,25.6908421 C77.2459144,25.749528 77.1755722,25.7967319 77.116637,25.8668999 C76.7180316,26.3376629 76.4949647,26.9615197 76.4601105,27.7384701 C76.4601105,27.820758 76.4366631,27.9151658 76.4366631,27.9974536 L76.4366631,34.0816517 C76.4366631,34.987456 76.6590963,35.7057205 77.116637,36.2230496 C77.1755722,36.2938554 77.2459144,36.3410593 77.3162565,36.3997452 C77.7617566,36.7882204 78.372022,37 79.1812732,37 L97.3168661,37 C98.1261173,37 98.7363827,36.7997024 99.1818828,36.3997452 C99.2522249,36.3410593 99.3346076,36.2938554 99.3929092,36.2230496 C99.8155956,35.7293224 100.038029,35.0697438 100.061476,34.2347454 L100.061476,34.0816517 L100.061476,34.0459298 L100.061476,27.9974536 C100.061476,27.0910114 99.839043,26.3733848 99.3815023,25.8554178 C98.9353685,25.3374509 98.2433542,25.0784674 97.3048255,25.0784674 L90.9233377,25.0784674 L90.9233377,22.6780861 L102.80672,22.6780861 L102.841574,22.6780861 L102.877062,22.6780861 C104.050065,22.6780861 105,21.7365599 105,20.5596522 C105,19.3827445 104.050065,18.4412184 102.877062,18.4412184 L102.830167,18.4412184 M4.70405009,14.5109209 C4.70405009,11.4273589 7.20277965,8.92108779 10.2762867,8.92108779 C13.3491601,8.92108779 15.8478896,11.4273589 15.8478896,14.5109209 C15.8478896,17.5944828 13.3491601,20.1007539 10.2762867,20.1007539 C7.20277965,20.1007539 4.70405009,17.5944828 4.70405009,14.5109209 M0,14.5109209 C0,20.2066437 4.59822005,24.8319866 10.2762867,24.8319866 C15.9537197,24.8319866 20.5519397,20.2187636 20.5519397,14.5109209 C20.5519397,8.80307808 15.9537197,4.20197505 10.2762867,4.20197505 C4.59822005,4.20197505 0,8.815198 0,14.5109209 M84.2839921,8.61470906 C84.2839921,6.42546941 86.0438125,4.66042683 88.2256856,4.66042683 C90.4075588,4.66042683 92.1667455,6.42546941 92.1667455,8.61470906 C92.1667455,10.8033108 90.4075588,12.5689913 88.2256856,12.5689913 C86.0438125,12.5689913 84.2839921,10.8033108 84.2839921,8.61470906 M79.6388773,8.61470906 C79.6388773,13.3810257 83.4861476,17.2294181 88.2256856,17.2294181 C92.9645899,17.2294181 96.812494,13.3689058 96.812494,8.61470906 C96.812494,3.86051235 92.9645899,0 88.2256856,0 C83.4861476,0 79.6388773,3.86051235 79.6388773,8.61470906 M147,20.4903518 C147,10.4620075 138.554353,2.40969486 128.384359,3.03401003 C119.693474,3.57134631 112.607838,10.6282339 112.038605,19.3125932 C111.706286,24.3786305 113.541405,29.0091291 116.696197,32.3916416 C117.162981,32.8974078 117.875002,33.1106672 118.546684,32.9444408 L118.610074,32.9289779 C119.187631,32.7943217 119.669782,32.3916416 119.907336,31.8459296 C121.053485,29.2623343 123.220284,27.2231625 125.893565,26.2432003 C126.565887,25.9983708 126.652329,25.0892803 126.028029,24.7342776 C123.386764,23.2247105 121.820573,20.0477259 122.777832,16.6336433 C123.418139,14.3502862 125.260942,12.540481 127.553881,11.9238972 C132.251812,10.659804 136.498327,14.168597 136.498327,18.6567079 C136.498327,21.2409475 135.090292,23.5011101 133.002892,24.7104389 C132.361945,25.0815488 132.441343,25.9983708 133.129032,26.2509318 C135.79399,27.230894 137.945421,29.2623343 139.083886,31.8459296 C139.32144,32.3916416 139.803591,32.7865902 140.372824,32.9289779 L140.428531,32.9444408 C141.108537,33.1106672 141.819917,32.8890321 142.295025,32.3832659 C145.20458,29.2623343 146.992316,25.0892803 146.992316,20.4903518 M153,29.3751567 L153,7.62484332 C153,5.62942473 154.626155,4 156.644094,4 L158.471791,4 C159.611355,4 160.691273,4.53144314 161.380034,5.44016078 L173.712441,21.7356615 L173.712441,7.62484332 C173.712441,5.62942473 175.338595,4 177.356534,4 C179.373845,4 181,5.6175174 181,7.62484332 L181,29.3751567 C181,31.3705753 179.373845,33 177.356534,33 L175.528209,33 C174.388645,33 173.308727,32.4685569 172.620594,31.5598392 L160.288187,15.2643385 L160.288187,29.3751567 C160.288187,31.3705753 158.662032,33 156.644094,33 C154.638084,33 153,31.3824826 153,29.3751567" id="Combined-Shape" fill="#D3D3D3"></path>
    </g>
</svg>