<svg xmlns="http://www.w3.org/2000/svg" width="176.647" height="46.451" viewBox="0 0 176.647 46.451">
  <path id="Combined_Shape" data-name="Combined Shape" d="M157.6,46.45a1.476,1.476,0,0,1-1.116-.644L152.3,40.378h-3.013v4.163a1.42,1.42,0,0,1-.494,1.242,2.24,2.24,0,0,1-1.23.368,2.931,2.931,0,0,1-.633-.069,1.5,1.5,0,0,1-.563-.253,1.377,1.377,0,0,1-.414-.494,1.672,1.672,0,0,1-.161-.771V30.948a2.449,2.449,0,0,1,.541-1.714,2.628,2.628,0,0,1,1.966-.587h4.324a12.914,12.914,0,0,1,2.231.207,5.882,5.882,0,0,1,2.15.828,4.866,4.866,0,0,1,1.61,1.725,5.822,5.822,0,0,1,.633,2.9,8.957,8.957,0,0,1-.149,1.633,5.729,5.729,0,0,1-.518,1.53,5.027,5.027,0,0,1-.966,1.31,4.914,4.914,0,0,1-1.5.977l3.037,3.979a1.512,1.512,0,0,1,.356,1.162,1.782,1.782,0,0,1-.679,1.115,1.912,1.912,0,0,1-1.171.438Zm-8.2-14.49a1.152,1.152,0,0,0-.115.644V37.3h3.2A8.144,8.144,0,0,0,153.7,37.2a2.581,2.581,0,0,0,1.058-.4,2.192,2.192,0,0,0,.735-.874,3.462,3.462,0,0,0,.276-1.507,2.882,2.882,0,0,0-.287-1.391,1.976,1.976,0,0,0-.76-.782,2.98,2.98,0,0,0-1.058-.345,8.545,8.545,0,0,0-1.162-.08h-2.6A.666.666,0,0,0,149.4,31.96ZM106.806,46.094a1.3,1.3,0,0,1-.563-.2,1.223,1.223,0,0,1-.414-.448,1.569,1.569,0,0,1-.161-.77V37.02l-3.174,7.107a2.1,2.1,0,0,1-.621.828,1.614,1.614,0,0,1-.989.275,1.456,1.456,0,0,1-1.058-.321,2.6,2.6,0,0,1-.529-.782l-3.2-7.038v7.544a1.236,1.236,0,0,1-.472,1.115,2.293,2.293,0,0,1-1.208.334,5.846,5.846,0,0,1-.633-.034,1.3,1.3,0,0,1-.563-.2,1.231,1.231,0,0,1-.414-.448,1.579,1.579,0,0,1-.161-.77V30.028A1.37,1.37,0,0,1,93.1,28.9a1.662,1.662,0,0,1,1.092-.368,2.235,2.235,0,0,1,.967.207,1.75,1.75,0,0,1,.759.874l4.991,10.948,4.922-10.948a1.56,1.56,0,0,1,1.609-1.081,1.955,1.955,0,0,1,1.162.368,1.29,1.29,0,0,1,.518,1.127V44.679a1.236,1.236,0,0,1-.472,1.115,2.288,2.288,0,0,1-1.208.334A5.843,5.843,0,0,1,106.806,46.094Zm-36.247,0A1.3,1.3,0,0,1,70,45.9a1.238,1.238,0,0,1-.414-.448,1.579,1.579,0,0,1-.161-.77V37.02l-3.173,7.107a2.114,2.114,0,0,1-.621.828,1.614,1.614,0,0,1-.989.275,1.46,1.46,0,0,1-1.058-.321,2.618,2.618,0,0,1-.528-.782l-3.2-7.038v7.544a1.233,1.233,0,0,1-.472,1.115,2.287,2.287,0,0,1-1.207.334,5.846,5.846,0,0,1-.633-.034,1.3,1.3,0,0,1-.563-.2,1.223,1.223,0,0,1-.414-.448,1.579,1.579,0,0,1-.161-.77V30.028a1.373,1.373,0,0,1,.448-1.127,1.666,1.666,0,0,1,1.093-.368,2.235,2.235,0,0,1,.967.207,1.754,1.754,0,0,1,.759.874l4.99,10.948,4.922-10.948a1.893,1.893,0,0,1,.7-.874,1.872,1.872,0,0,1,.908-.207,1.957,1.957,0,0,1,1.162.368,1.29,1.29,0,0,1,.518,1.127V44.679a1.236,1.236,0,0,1-.472,1.115,2.291,2.291,0,0,1-1.208.334A5.859,5.859,0,0,1,70.559,46.094Zm96.238-.265a6.948,6.948,0,0,1-2.2-.874,5.294,5.294,0,0,1-1.587-1.53,5.679,5.679,0,0,1-.863-2.219,2.032,2.032,0,0,1,.127-1.437,1.545,1.545,0,0,1,1.184-.679,1.318,1.318,0,0,1,1.219.276,3.351,3.351,0,0,1,.713,1.288,2.787,2.787,0,0,0,1.483,1.76,7.272,7.272,0,0,0,2.84.494,9.324,9.324,0,0,0,1.254-.08,4.28,4.28,0,0,0,1.035-.265,1.723,1.723,0,0,0,.7-.495,1.11,1.11,0,0,0,.254-.725,1.6,1.6,0,0,0-.242-.9,2.1,2.1,0,0,0-.759-.656,7.167,7.167,0,0,0-1.323-.54q-.8-.254-1.931-.529-.921-.229-1.978-.6a8.858,8.858,0,0,1-1.967-.967,5.313,5.313,0,0,1-1.518-1.517,4,4,0,0,1-.609-2.254,4.569,4.569,0,0,1,.655-2.6,4.314,4.314,0,0,1,1.633-1.46,6.528,6.528,0,0,1,2.116-.644,16.2,16.2,0,0,1,2.1-.149,9.8,9.8,0,0,1,3.646.644,6.312,6.312,0,0,1,2.725,2.092,2.131,2.131,0,0,1,.4,1.276,1.419,1.419,0,0,1-.725,1.162,1.336,1.336,0,0,1-.632.241,1.657,1.657,0,0,1-.667-.068,2.966,2.966,0,0,1-.656-.3,3.019,3.019,0,0,1-.575-.448,4.122,4.122,0,0,0-1.794-1.127,6.5,6.5,0,0,0-1.725-.253q-.413,0-.932.046a4.036,4.036,0,0,0-.954.2,1.731,1.731,0,0,0-.724.46,1.187,1.187,0,0,0-.288.84,1.325,1.325,0,0,0,.392.955,3.646,3.646,0,0,0,.943.689,6.045,6.045,0,0,0,1.161.46q.61.173,1.023.265,1.7.437,2.979.9a8.029,8.029,0,0,1,2.116,1.093,4.067,4.067,0,0,1,1.264,1.541,5.262,5.262,0,0,1,.426,2.243,3.68,3.68,0,0,1-.586,2.081,4.667,4.667,0,0,1-1.576,1.461,7.748,7.748,0,0,1-2.254.851,13.061,13.061,0,0,1-5.336,0Zm-51.46.069a2.633,2.633,0,0,1-1.909-.563,2.409,2.409,0,0,1-.552-1.737V31.086a2.938,2.938,0,0,1,.483-1.805,2.245,2.245,0,0,1,1.863-.633h4.415a10.714,10.714,0,0,1,2.519.276,5.56,5.56,0,0,1,1.931.839A3.865,3.865,0,0,1,125.32,31.2a4.543,4.543,0,0,1,.437,2.047,4.283,4.283,0,0,1-.472,2.162,4.2,4.2,0,0,1-1.345,1.381,3.641,3.641,0,0,1,2.048,1.437,4.305,4.305,0,0,1,.782,2.564,5.609,5.609,0,0,1-.529,2.611,4.049,4.049,0,0,1-1.391,1.553,5.337,5.337,0,0,1-1.944.747,12.223,12.223,0,0,1-2.162.2Zm1.035-3.7a.632.632,0,0,0,.1.426.461.461,0,0,0,.334.1h3.542a8.145,8.145,0,0,0,1.069-.069,2.773,2.773,0,0,0,.932-.287,1.8,1.8,0,0,0,.667-.6,2.1,2.1,0,0,0-.518-2.622,4.46,4.46,0,0,0-2.357-.494h-3.773Zm.081-10.269a.59.59,0,0,0-.081.356v3.2h3.634a2.4,2.4,0,0,0,1.748-.518,2.109,2.109,0,0,0,.507-1.529,1.468,1.468,0,0,0-.2-.794,1.435,1.435,0,0,0-.528-.495,2.352,2.352,0,0,0-.794-.253,6.826,6.826,0,0,0-1.012-.068h-2.945A.406.406,0,0,0,116.453,31.926ZM132.23,45.875a7.221,7.221,0,0,1-1.058-.069,1.777,1.777,0,0,1-.77-.287,1.277,1.277,0,0,1-.46-.656,3.745,3.745,0,0,1-.149-1.173V30.971a4.794,4.794,0,0,1,.092-1,1.642,1.642,0,0,1,.346-.725,1.527,1.527,0,0,1,.7-.448,3.745,3.745,0,0,1,1.162-.149h8.74a1.89,1.89,0,0,1,.816.149,1.183,1.183,0,0,1,.472.38,1.359,1.359,0,0,1,.219.506,2.735,2.735,0,0,1,.058.552,2.51,2.51,0,0,1-.069.587,1.3,1.3,0,0,1-.241.506,1.26,1.26,0,0,1-.472.356,1.886,1.886,0,0,1-.782.138h-7.2c-.246,0-.368.139-.368.414v3.312h7.567a1.947,1.947,0,0,1,.8.139,1.253,1.253,0,0,1,.472.356,1.177,1.177,0,0,1,.23.494,2.744,2.744,0,0,1,.058.553,2.508,2.508,0,0,1-.069.586,1.4,1.4,0,0,1-.241.518,1.189,1.189,0,0,1-.483.368,1.9,1.9,0,0,1-.77.139h-7.567v3.472a.677.677,0,0,0,.092.437.491.491,0,0,0,.346.092h7.152a2.023,2.023,0,0,1,.817.139,1.1,1.1,0,0,1,.471.367,1.34,1.34,0,0,1,.219.507,2.671,2.671,0,0,1,.058.552,2.468,2.468,0,0,1-.069.587,1.394,1.394,0,0,1-.241.517,1.215,1.215,0,0,1-.472.368,1.883,1.883,0,0,1-.782.138Zm-53.161,0a7.221,7.221,0,0,1-1.058-.069,1.777,1.777,0,0,1-.77-.287,1.277,1.277,0,0,1-.46-.656,3.718,3.718,0,0,1-.149-1.173V30.971a4.794,4.794,0,0,1,.092-1,1.633,1.633,0,0,1,.346-.725,1.527,1.527,0,0,1,.7-.448,3.741,3.741,0,0,1,1.162-.149h8.74a1.893,1.893,0,0,1,.816.149,1.19,1.19,0,0,1,.472.38,1.359,1.359,0,0,1,.219.506,2.733,2.733,0,0,1,.057.552,2.509,2.509,0,0,1-.068.587,1.288,1.288,0,0,1-.242.506,1.25,1.25,0,0,1-.471.356,1.889,1.889,0,0,1-.782.138h-7.2c-.246,0-.368.139-.368.414v3.312h7.567a1.95,1.95,0,0,1,.8.139,1.253,1.253,0,0,1,.472.356,1.177,1.177,0,0,1,.23.494,2.742,2.742,0,0,1,.057.553,2.507,2.507,0,0,1-.068.586,1.389,1.389,0,0,1-.242.518,1.18,1.18,0,0,1-.482.368,1.9,1.9,0,0,1-.77.139H80.1v3.472a.677.677,0,0,0,.092.437.49.49,0,0,0,.345.092h7.153a2.019,2.019,0,0,1,.816.139,1.1,1.1,0,0,1,.472.367,1.354,1.354,0,0,1,.219.507,2.672,2.672,0,0,1,.058.552,2.515,2.515,0,0,1-.069.587,1.394,1.394,0,0,1-.241.517,1.215,1.215,0,0,1-.472.368,1.883,1.883,0,0,1-.782.138ZM1.875,45V18.75H43.125v5.43a5.218,5.218,0,0,0-2.588-.771c-.1-.005-.194-.008-.291-.008a5.384,5.384,0,0,0-4.5,2.61,10.718,10.718,0,0,0-1.651,5.57,10.872,10.872,0,0,1,3.708-.629,9.251,9.251,0,0,1,3.072.48A3.769,3.769,0,0,1,42.895,32.9a1.694,1.694,0,0,1-.2,1.921,1.907,1.907,0,0,1-1.507.723,2.155,2.155,0,0,1-.7-.12,1.833,1.833,0,0,0-.576-.118.712.712,0,0,0-.567.278.82.82,0,0,0-.174.652c.082.41.565.689.956.852a4.366,4.366,0,0,0,1.668.312,5.209,5.209,0,0,0,1.337-.176v.885a6.126,6.126,0,0,1-1.339.149,5.238,5.238,0,0,1-2-.373c-1.056-.44-1.382-1.045-1.469-1.476a1.673,1.673,0,0,1,.4-1.43,1.591,1.591,0,0,1,1.179-.535,2.67,2.67,0,0,1,.86.164,1.267,1.267,0,0,0,.417.073,1.084,1.084,0,0,0,.942-.55.788.788,0,0,0,.035-.784c-.553-.914-2.375-1.554-4.432-1.554a9.3,9.3,0,0,0-3.583.7l-.026.012-.027.012-.022.01a9.018,9.018,0,0,0-4.366,4.2,3.019,3.019,0,0,1,1.111-.215c1.417,0,2.723,1.019,3.876,1.917.179.139.369.288.557.429A10.561,10.561,0,0,0,41.863,41.4c.111,0,.224,0,.337-.005a7.994,7.994,0,0,0,.925-.085V45H1.875ZM22.137,27.877h0V38.542a1.935,1.935,0,0,0,.4,1.329,1.325,1.325,0,0,0,1.023.443,1.355,1.355,0,0,0,1.059-.443,1.95,1.95,0,0,0,.4-1.329V26.307a1.541,1.541,0,0,0-.527-1.365,2.541,2.541,0,0,0-1.424-.354H22.1a3.731,3.731,0,0,0-1.271.158,1.068,1.068,0,0,0-.586.57,8.906,8.906,0,0,0-.432,1.339l-2.246,8.469-2.246-8.469a8.945,8.945,0,0,0-.433-1.339,1.075,1.075,0,0,0-.585-.57,3.731,3.731,0,0,0-1.271-.158h-.97a2.536,2.536,0,0,0-1.424.354,1.541,1.541,0,0,0-.527,1.365V38.542a1.935,1.935,0,0,0,.4,1.335,1.452,1.452,0,0,0,2.083-.005,1.95,1.95,0,0,0,.4-1.329V27.868l2.479,9.851c.077.3.158.607.247.933a3.483,3.483,0,0,0,.332.817,1.692,1.692,0,0,0,.59.607,1.725,1.725,0,0,0,.929.238,1.647,1.647,0,0,0,1.139-.369,1.948,1.948,0,0,0,.564-.817c.1-.294.23-.755.4-1.409l2.477-9.842h0Zm82.6-6.839a2.264,2.264,0,0,0,.289.019A2.264,2.264,0,0,1,104.733,21.038Zm67.318-2.28V7.782l-5.175,5.174a1.968,1.968,0,0,1-.9.527,2.923,2.923,0,0,1-2.781-.543l-4.46-4.46V18.758a2.3,2.3,0,0,1-4.6,0V2.7a2.3,2.3,0,0,1,2.3-2.3c.946,0,1.3.594,2.111,1.391l6,6a.708.708,0,0,0,1,0L172.218,1.5a3.518,3.518,0,0,1,1.066-.836A2.3,2.3,0,0,1,176.648,2.7V18.758a2.3,2.3,0,0,1-4.6,0Zm-67.028,2.3h0Zm.011,0h-.012a2.283,2.283,0,0,1-.289-.018l-.041-.006.041.006-.041-.006c-.037,0-.074-.011-.11-.018a2.289,2.289,0,0,1-1.185-.631l-7.01-7.011c-.081-.081-.162-.17-.247-.265a2.412,2.412,0,0,0-.8-.674,2.3,2.3,0,0,0-.836-.123c-.117,0-.233,0-.346.007s-.207.006-.3.006a.723.723,0,0,0-.633.725v5.708a2.3,2.3,0,0,1-4.6,0V2.7c0-.024,0-.049,0-.073s0-.023,0-.034,0-.023,0-.034,0-.049,0-.073a2.3,2.3,0,0,1,2.3-2.3h10.287a6.112,6.112,0,0,1,.768,12.176l-.042.053,2.833,2.834-2.833-2.834h0l2.833,2.833,0,0v0l1.881,1.881a2.284,2.284,0,0,1,.347.445l0,0,.011.017a.09.09,0,0,0,.007.013l0,.009a2.277,2.277,0,0,1,.26.7v0c0,.007,0,.014,0,.021l0,.014s0,.005,0,.009a2.3,2.3,0,0,1-.005.816.008.008,0,0,1,0,0l0,.019a.1.1,0,0,0,0,.016.057.057,0,0,1,0,.006,2.252,2.252,0,0,1-.27.7l-.013.023,0,0-.01.016-.007.011-.006.011-.011.016,0,.005-.013.02v0a2.336,2.336,0,0,1-.288.349h0a2.3,2.3,0,0,1-1.4.662,2.293,2.293,0,0,0,1.406-.662,2.293,2.293,0,0,1-1.406.662,1.868,1.868,0,0,1-.209.01ZM93.22,7.819h8.366a1.517,1.517,0,1,0,0-3.034H93.22ZM112.494,17.96a10.522,10.522,0,1,1,7.439,3.082A10.45,10.45,0,0,1,112.494,17.96Zm1.642-7.439a5.8,5.8,0,1,0,5.8-5.8A5.8,5.8,0,0,0,114.136,10.521Zm-9.554,10.493c.036.007.073.014.11.018C104.655,21.028,104.618,21.021,104.582,21.014Zm34.706-.438a10.094,10.094,0,0,1-5.262-3.438,5,5,0,0,1-1-1.685,7.49,7.49,0,0,1-.366-1.786V2.7a2.3,2.3,0,0,1,4.6,0v9.528c.252,2.561,1.27,3.036,1.27,3.036a5.544,5.544,0,0,0,6.712,0,3.532,3.532,0,0,0,1.451-2.7V2.7a2.3,2.3,0,1,1,4.6,0v9.093a10.519,10.519,0,0,1-.45,3.728,6.667,6.667,0,0,1-1.495,2.085,10.083,10.083,0,0,1-10.055,2.971Zm-79.91.279a2.3,2.3,0,0,1-2.3-2.3V2.7c0-.036,0-.072.005-.107s-.005-.071-.005-.106a2.3,2.3,0,0,1,2.3-2.3H71.56a2.3,2.3,0,0,1,0,4.6H61.676V8.222H71.56a2.3,2.3,0,1,1,0,4.6H61.676v3.437H71.56a2.3,2.3,0,0,1,0,4.6ZM37.5,11.25V9.191L32.087,0h3.776L45,9.32v2.057A3.737,3.737,0,0,1,41.25,15,3.848,3.848,0,0,1,37.5,11.25Zm-9.375,0V9.191L26.365,0h3.643l5.613,9.379v2.058A3.441,3.441,0,0,1,34.5,13.97a3.779,3.779,0,0,1-6.372-2.72Zm-9.375,0V9.191L20.714,0h3.571L26.25,9.187v2.059a3.75,3.75,0,1,1-7.5,0Zm-9.374.128V9.32L14.992,0h3.643l-1.76,9.32V11.38a3.752,3.752,0,0,1-7.5,0ZM0,11.378V9.32L9.139,0h3.775L7.5,9.32V11.38a3.752,3.752,0,0,1-7.5,0Zm77.319-.857a3.223,3.223,0,1,1,3.223,3.224A3.223,3.223,0,0,1,77.319,10.521Z" fill="#b2b6b5"/>
</svg>
