<svg xmlns="http://www.w3.org/2000/svg" xmlns:xlink="http://www.w3.org/1999/xlink" width="107.937" height="73" viewBox="0 0 107.937 73">
  <defs>
    <linearGradient id="linear-gradient" x1="0.132" y1="0.201" x2="0.862" y2="0.925" gradientUnits="objectBoundingBox">
      <stop offset="0.001" stop-color="#121212" stop-opacity="0.804"/>
      <stop offset="0.268" stop-color="#0f0f0f" stop-opacity="0.953"/>
      <stop offset="0.544" stop-color="#080808" stop-opacity="0.659"/>
      <stop offset="0.789" stop-color="#171717" stop-opacity="0.855"/>
      <stop offset="1" stop-color="#060606" stop-opacity="0.831"/>
    </linearGradient>
  </defs>
  <path id="Path_4" data-name="Path 4" d="M6.729,50.015h0a5.4,5.4,0,0,0,2.952-3.334l.027-.086-.4-27.653,0-.007a1.831,1.831,0,0,1,1.061-1.211l20.4-2.942.12.016A4.591,4.591,0,0,1,34.4,17.3L37.22,42.028a7.081,7.081,0,0,1-4.11,5.131l-.125.055L6.73,50.015Zm9.725-15.143a.794.794,0,0,0-.674.895,6.762,6.762,0,0,0,6.663,5.8,6.973,6.973,0,0,0,.943-.066l6.668-.938a.792.792,0,0,0-.109-1.576.776.776,0,0,0-.112.008l-6.643.933a5.221,5.221,0,0,1-.731.051,5.17,5.17,0,0,1-5.111-4.431.794.794,0,0,0-.783-.682A.776.776,0,0,0,16.454,34.871Zm10.9-13.532-6.669.938a6.74,6.74,0,0,0-5.73,7.605,6.76,6.76,0,0,0,6.662,5.8,6.973,6.973,0,0,0,.943-.066l6.668-.937a.794.794,0,0,0,.674-.895.794.794,0,0,0-.783-.682.776.776,0,0,0-.112.008l-6.643.933a5.168,5.168,0,0,1-5.842-4.379,5.168,5.168,0,0,1,4.408-5.819l6.644-.934a.792.792,0,0,0-.111-1.577A.733.733,0,0,0,27.353,21.339Zm.826,5.884-.784.111-6.276.882a.792.792,0,1,0,.22,1.568l7.06-.992a.792.792,0,0,0-.109-1.577A.776.776,0,0,0,28.179,27.223ZM4.586,49.2,1.138,46.66A3.691,3.691,0,0,1,.049,44.253L2.767,17.268l.005-.009a2.119,2.119,0,0,1,1.693-1.1l4.811,1.471a1.793,1.793,0,0,0-1.06,1.215l-.034.135L6.852,48l-.014.025a2.229,2.229,0,0,1-1.98,1.2A2.294,2.294,0,0,1,4.586,49.2Zm9.089-35.542,0-3.684C13.686,5.028,17.76.64,22.35.64,26.108.64,29,3.676,29,7.844l0,3.828a1.092,1.092,0,1,1-2.184,0V7.844a5.262,5.262,0,0,0-1.429-3.78A4.183,4.183,0,0,0,22.35,2.829c-3.386,0-6.479,3.41-6.485,7.153v3.679a1.094,1.094,0,0,1-2.189,0ZM7.884,12.289V8.561C7.893,3.613,10.937,0,15.524,0a1.006,1.006,0,0,1,1.027,1.03,1.05,1.05,0,0,1-1.027,1.03c-3.386,0-5.45,2.763-5.454,6.506v3.721a1.093,1.093,0,1,1-2.186,0Z" transform="translate(35)" opacity="0.1" fill="url(#linear-gradient)"/>
  <g id="Path_3" data-name="Path 3" transform="translate(6058.5 -3037)">
    <path id="Path_3-2" data-name="Path 3" d="M31.355,9.077a3.291,3.291,0,0,1-1.042-2.526V.134h2.36V6.6q.039,1.6,1.483,1.6a1.437,1.437,0,0,0,1.1-.4,1.876,1.876,0,0,0,.374-1.3V.134H37.98V6.5a3.658,3.658,0,0,1-.462,1.875A2.986,2.986,0,0,1,36.2,9.586,4.665,4.665,0,0,1,34.156,10,4.03,4.03,0,0,1,31.355,9.077Zm-8.484.351a3.9,3.9,0,0,1-1.5-1.634,5.6,5.6,0,0,1-.565-2.44V4.806a5.79,5.79,0,0,1,.525-2.524,3.916,3.916,0,0,1,1.5-1.688A4.451,4.451,0,0,1,27.269.589a3.976,3.976,0,0,1,1.507,1.674,5.631,5.631,0,0,1,.545,2.49V5.2a5.768,5.768,0,0,1-.527,2.52,3.924,3.924,0,0,1-1.5,1.688A4.2,4.2,0,0,1,25.077,10,4.262,4.262,0,0,1,22.871,9.428ZM23.2,4.486l-.006.715a4.223,4.223,0,0,0,.474,2.2,1.65,1.65,0,0,0,2.781.013,4.118,4.118,0,0,0,.488-2.173V4.793a4.107,4.107,0,0,0-.485-2.2,1.561,1.561,0,0,0-1.387-.752C23.892,1.838,23.265,2.729,23.2,4.486ZM77.716,9.868H75.37V.134H79.2A4.291,4.291,0,0,1,81.908.9a2.618,2.618,0,0,1,.976,2.173,3.185,3.185,0,0,1-.411,1.685,2.929,2.929,0,0,1-1.286,1.083l2.032,3.924v.1l-2.514,0L78.987,6.431h-1.27V9.867h0Zm0-5.248H79.2a1.343,1.343,0,0,0,1.006-.351,1.361,1.361,0,0,0,.338-.979A1.38,1.38,0,0,0,80.2,2.3a1.326,1.326,0,0,0-1-.357H77.717ZM14.679,9.868H12.334V.134h3.83A4.291,4.291,0,0,1,18.871.9a2.616,2.616,0,0,1,.976,2.173,3.185,3.185,0,0,1-.411,1.685,2.929,2.929,0,0,1-1.286,1.083l2.032,3.924v.1l-2.514,0L15.95,6.431H14.68V9.867h0Zm0-5.248h1.484a1.343,1.343,0,0,0,1.006-.351,1.361,1.361,0,0,0,.337-.979,1.376,1.376,0,0,0-.341-.986,1.325,1.325,0,0,0-1-.357H14.68Zm87.989,5.247V1.945H99.8V.134h8.135V1.945h-2.921V9.867Zm-9.982,0V.134H99.4V1.945H95.034V4h3.69V5.742h-3.69V8.061h4.359V9.867Zm-3.19,0L87.425,6.243,86.462,7.3V9.867H84.116V.134h2.346V4.425l.815-1.237,2.1-3.055h2.9l-3.289,4.3,3.289,5.428ZM71.759,8.049H68.543l-.562,1.818H65.475L69.044.134H71.25l3.6,9.731-2.52,0ZM69.1,6.237H71.2L70.148,2.861Zm-6.653,3.63V7.593l.227-4.652L60.326,9.867H58.775l-2.36-6.932.227,4.658V9.867H54.3V.134h3.082L59.55,6.9,61.717.134H64.8V9.867Zm-15.038,0V7.593l.228-4.652L45.288,9.867H43.737l-2.36-6.932.228,4.658V9.867H39.259V.134H42.34L44.513,6.9,46.679.134h3.088V9.867ZM0,9.867V.134H6.718V1.945H2.346V4h3.69V5.742H2.346V8.061H6.7V9.867ZM8.193,5.991V3.852h2.146V5.991Z" transform="translate(-6058.5 3100)" fill="none"/>
    <path id="Path_3-3" data-name="Path 3" d="M31.355,9.077a3.291,3.291,0,0,1-1.042-2.526V.134h2.36V6.6q.039,1.6,1.483,1.6a1.437,1.437,0,0,0,1.1-.4,1.876,1.876,0,0,0,.374-1.3V.134H37.98V6.5a3.658,3.658,0,0,1-.462,1.875A2.986,2.986,0,0,1,36.2,9.586,4.665,4.665,0,0,1,34.156,10,4.03,4.03,0,0,1,31.355,9.077Zm-8.484.351a3.9,3.9,0,0,1-1.5-1.634,5.6,5.6,0,0,1-.565-2.44V4.806a5.79,5.79,0,0,1,.525-2.524,3.916,3.916,0,0,1,1.5-1.688A4.451,4.451,0,0,1,27.269.589a3.976,3.976,0,0,1,1.507,1.674,5.631,5.631,0,0,1,.545,2.49V5.2a5.768,5.768,0,0,1-.527,2.52,3.924,3.924,0,0,1-1.5,1.688A4.2,4.2,0,0,1,25.077,10,4.262,4.262,0,0,1,22.871,9.428ZM23.2,4.486l-.006.715a4.223,4.223,0,0,0,.474,2.2,1.65,1.65,0,0,0,2.781.013,4.118,4.118,0,0,0,.488-2.173V4.793a4.107,4.107,0,0,0-.485-2.2,1.561,1.561,0,0,0-1.387-.752C23.892,1.838,23.265,2.729,23.2,4.486ZM77.716,9.868H75.37V.134H79.2A4.291,4.291,0,0,1,81.908.9a2.618,2.618,0,0,1,.976,2.173,3.185,3.185,0,0,1-.411,1.685,2.929,2.929,0,0,1-1.286,1.083l2.032,3.924v.1l-2.514,0L78.987,6.431h-1.27V9.867h0Zm0-5.248H79.2a1.343,1.343,0,0,0,1.006-.351,1.361,1.361,0,0,0,.338-.979A1.38,1.38,0,0,0,80.2,2.3a1.326,1.326,0,0,0-1-.357H77.717ZM14.679,9.868H12.334V.134h3.83A4.291,4.291,0,0,1,18.871.9a2.616,2.616,0,0,1,.976,2.173,3.185,3.185,0,0,1-.411,1.685,2.929,2.929,0,0,1-1.286,1.083l2.032,3.924v.1l-2.514,0L15.95,6.431H14.68V9.867h0Zm0-5.248h1.484a1.343,1.343,0,0,0,1.006-.351,1.361,1.361,0,0,0,.337-.979,1.376,1.376,0,0,0-.341-.986,1.325,1.325,0,0,0-1-.357H14.68Zm87.989,5.247V1.945H99.8V.134h8.135V1.945h-2.921V9.867Zm-9.982,0V.134H99.4V1.945H95.034V4h3.69V5.742h-3.69V8.061h4.359V9.867Zm-3.19,0L87.425,6.243,86.462,7.3V9.867H84.116V.134h2.346V4.425l.815-1.237,2.1-3.055h2.9l-3.289,4.3,3.289,5.428ZM71.759,8.049H68.543l-.562,1.818H65.475L69.044.134H71.25l3.6,9.731-2.52,0ZM69.1,6.237H71.2L70.148,2.861Zm-6.653,3.63V7.593l.227-4.652L60.326,9.867H58.775l-2.36-6.932.227,4.658V9.867H54.3V.134h3.082L59.55,6.9,61.717.134H64.8V9.867Zm-15.038,0V7.593l.228-4.652L45.288,9.867H43.737l-2.36-6.932.228,4.658V9.867H39.259V.134H42.34L44.513,6.9,46.679.134h3.088V9.867ZM0,9.867V.134H6.718V1.945H2.346V4h3.69V5.742H2.346V8.061H6.7V9.867ZM8.193,5.991V3.852h2.146V5.991Z" transform="translate(-6058.5 3100)" fill="#eee"/>
  </g>
</svg>
