<svg width="200" height="132" viewBox="0 0 200 132" fill="none" xmlns="http://www.w3.org/2000/svg">
<g clip-path="url(#clip0_1188_6052)">
<g clip-path="url(#clip1_1188_6052)">
<path d="M198.33 94.0288C193.268 85.2425 187.064 77.1927 179.917 70.0766C169.492 59.7031 157.054 51.3317 143.257 45.616C129.948 40.0973 115.353 37.0268 100.052 37.0164V61.7259C112.002 61.7363 123.402 64.1326 133.807 68.4479C144.585 72.9189 154.305 79.4438 162.458 87.5351C168.091 93.1367 172.977 99.4749 176.96 106.415C180.052 111.788 186.597 114.091 192.334 111.726C199.274 108.852 202.085 100.533 198.34 94.0288H198.33Z" fill="url(#paint0_linear_1188_6052)"/>
<path d="M99.9485 37.0164C84.6787 37.0164 70.1144 40.0558 56.8053 45.5537C42.9879 51.2591 30.5294 59.6098 20.0833 69.9832C12.9568 77.0579 6.75344 85.0766 1.6912 93.8214C-2.11585 100.398 0.736842 108.821 7.75966 111.726C13.4028 114.06 19.8655 111.809 22.8945 106.508C26.909 99.506 31.8468 93.0952 37.5418 87.4521C45.7161 79.3504 55.4568 72.8359 66.2555 68.3857C76.6497 64.1015 88.019 61.7259 99.9381 61.7259C99.9692 61.7259 100 61.7259 100.031 61.7259V37.0164C100.031 37.0164 99.9692 37.0164 99.9381 37.0164H99.9485Z" fill="url(#paint1_linear_1188_6052)"/>
<path d="M18.7724 94.5167L28.5781 110.627C29.654 112.392 32.2093 112.46 33.3598 110.743L42.165 97.7229C43.3249 96.001 42.3183 93.6665 40.2777 93.3271L21.6762 90.233C19.2756 89.831 17.5164 92.4341 18.7818 94.5124L28.5876 110.622C29.6634 112.388 32.2187 112.456 33.3692 110.739L42.1744 97.7185C43.3343 95.9966 42.3278 93.6621 40.2871 93.3228L21.6857 90.2286C19.285 89.8267 17.5258 92.4298 18.7913 94.5081L18.7724 94.5167Z" fill="#333333"/>
<path d="M170.591 112.234C157.002 87.172 130.467 70.1492 99.9483 70.1492C69.4297 70.1492 42.8944 87.172 29.3052 112.234H170.581H170.591Z" fill="#EEEEEE"/>
<path d="M90.4515 86.1471V102.333H88.2993V94.2046H86.734V101.551H84.6529V86.4139H86.734V92.3903H88.2993V86.1471H90.4515ZM82.9454 88.0147V89.8468H79.1923V96.7482C80.7576 96.7393 82.145 96.6592 83.7102 96.3746L83.8703 98.2245C81.8959 98.598 80.1706 98.6514 78.0361 98.6692H76.9156V88.0147H82.9454ZM98.1 88.6906C98.1 90.6472 99.2384 92.5326 101.8 93.3331L100.59 95.094C98.8737 94.5248 97.6731 93.422 96.9794 91.999C96.2768 93.6354 95.0228 94.9161 93.173 95.5387L91.9457 93.7599C94.6493 92.8528 95.8055 90.7006 95.8232 88.4772V87.0008H98.1V88.6906ZM105.037 86.1471V89.9357H107.225V91.8212H105.037V95.7521H102.76V86.1471H105.037ZM99.7364 96.0723C103.08 96.0723 105.197 97.2284 105.197 99.2028C105.197 101.195 103.08 102.333 99.7364 102.333C96.3213 102.333 94.1868 101.195 94.1868 99.2028C94.1868 97.2284 96.3213 96.0723 99.7364 96.0723ZM99.7364 97.851C97.602 97.851 96.4458 98.3134 96.4636 99.2028C96.4458 100.128 97.602 100.555 99.7364 100.555C101.835 100.555 102.956 100.128 102.956 99.2028C102.956 98.3134 101.835 97.851 99.7364 97.851ZM113.913 90.5583C113.895 93.0307 115.211 95.8766 117.879 97.1039L116.616 98.8826C114.811 98.0555 113.521 96.4013 112.81 94.4536C112.081 96.597 110.756 98.4113 108.879 99.2917L107.563 97.4952C110.266 96.2324 111.618 93.2263 111.636 90.5583V89.5622H108.203V87.7123H117.168V89.5622H113.913V90.5583ZM120.707 86.1471V92.3192H123.091V94.2224H120.707V102.333H118.431V86.1471H120.707Z" fill="#333333"/>
</g>
<g clip-path="url(#clip2_1188_6052)">
<path d="M69.5024 29.2013L69.1704 30.3839C67.6559 30.332 66.38 29.6889 65.519 28.6723C65.353 30.1557 64.575 31.5146 63.2472 32.4378L62.2928 31.5872C64.0356 30.4254 64.741 28.5271 64.2845 26.8258L64.1912 26.4835L61.4941 27.2304L61.2036 26.1827L67.8322 24.3466L68.1227 25.3943L65.4878 26.1308L65.5812 26.4627C66.0169 28.0188 67.4899 29.1391 69.5127 29.2117L69.5024 29.2013ZM73.1538 32.6038C73.5584 34.0561 72.2617 35.3424 69.7306 36.0271C67.1787 36.7532 65.3841 36.3175 64.9795 34.8756C64.5854 33.4441 65.9028 32.1785 68.465 31.4627C70.9961 30.7573 72.7596 31.1723 73.1538 32.6038ZM66.2866 34.5125C66.5044 35.332 67.6766 35.498 69.4505 35.0001C71.214 34.5125 72.1165 33.776 71.8883 32.9565C71.6704 32.1681 70.519 32.0022 68.7555 32.4897C66.9816 32.9876 66.048 33.7242 66.2866 34.5125ZM71.1414 25.747L72.9152 25.249L73.2057 26.3175L71.4318 26.8154L72.3343 30.0727L71.0376 30.4358L68.9941 23.081L70.2907 22.7179L71.131 25.747H71.1414Z" fill="#616161"/>
<path d="M76.2142 31.9918L75.3429 31.027C78.4238 28.9005 79.6893 26.3797 79.4819 23.4129L74.8657 24.1495L74.6997 23.081L80.6644 22.1266C81.2557 25.7988 80.1976 29.2428 76.2246 31.9814L76.2142 31.9918ZM86.1935 32.7387L84.8449 32.9565L82.8325 20.4046L84.181 20.1868L86.1935 32.7283V32.7387Z" fill="#616161"/>
<path d="M99.2742 30.4357L87.6456 30.9336L87.5938 29.8133L90.3738 29.6992L90.2286 26.3797C89.1601 25.8506 88.4962 24.9585 88.4444 23.8278C88.3614 21.8257 90.2597 20.4253 92.9776 20.3112C95.7162 20.1971 97.7286 21.4315 97.8116 23.4336C97.8635 24.5539 97.2825 25.4772 96.2867 26.0996L96.4319 29.4502L99.212 29.3361L99.2639 30.4564L99.2742 30.4357ZM89.7618 23.7656C89.824 25.1245 91.2348 25.9647 93.2265 25.8817C95.2079 25.7988 96.5772 24.8444 96.5149 23.4855C96.4527 22.1058 95.0108 21.3071 93.0294 21.39C91.0274 21.473 89.6892 22.3963 89.7514 23.7759L89.7618 23.7656ZM95.0937 29.4917L94.9693 26.6598C94.461 26.8154 93.8904 26.9087 93.2784 26.9295C92.6871 26.9502 92.1166 26.9191 91.5979 26.8154L91.7224 29.6369L95.0937 29.4917Z" fill="#616161"/>
<path d="M107.438 23.6204C107.293 25.3838 105.778 26.5146 103.838 26.3797C101.899 26.2241 100.55 24.8859 100.695 23.1224C100.809 21.3382 102.345 20.2179 104.284 20.3631C106.224 20.5083 107.552 21.8361 107.438 23.6204ZM110.083 30.3424C109.969 31.8569 108.289 32.6349 105.706 32.4378C103.092 32.2614 101.515 31.2345 101.629 29.7199C101.743 28.1951 103.444 27.4274 106.058 27.6141C108.641 27.8009 110.187 28.8175 110.073 30.3424H110.083ZM102.013 23.2158C101.919 24.3465 102.739 25.1453 103.921 25.249C105.114 25.3216 106.038 24.6577 106.121 23.527C106.204 22.4067 105.384 21.5872 104.201 21.4938C103.009 21.4108 102.085 22.1058 102.013 23.2262V23.2158ZM102.977 29.8133C102.894 30.6743 103.953 31.2241 105.789 31.359C107.614 31.4938 108.704 31.0996 108.766 30.2386C108.828 29.388 107.801 28.8278 105.986 28.693C104.15 28.5581 103.029 28.9523 102.977 29.8029V29.8133ZM112.303 23.1328L110.509 22.998L110.394 24.6058L112.189 24.7407L112.106 25.861L110.311 25.7262L110.177 27.583L108.838 27.4793L109.388 20L110.726 20.1038L110.592 21.8984L112.386 22.0332L112.303 23.1328Z" fill="#616161"/>
<path d="M123.61 33.5892L112.189 31.4108L112.396 30.3112L117.428 31.2759L117.915 28.7137L114.201 28.0083L115.425 21.5871L116.753 21.8361L116.338 23.9834L122.469 25.1556L122.874 23.0083L124.181 23.2573L122.957 29.6784L119.222 28.9626L118.735 31.5249L123.818 32.5L123.61 33.5996V33.5892ZM121.857 28.3506L122.262 26.2241L116.131 25.0519L115.726 27.1784L121.857 28.3506Z" fill="#616161"/>
<path d="M134.015 38.2262L125.996 35.7676L127.231 31.722L135.249 34.1805L134.015 38.2262ZM132.469 30.0519C132.065 31.3693 130.623 31.8569 128.953 31.3589C127.293 30.8299 126.359 29.6162 126.764 28.2988C127.158 27.0228 128.621 26.4938 130.291 27.0021C131.961 27.5104 132.863 28.7656 132.469 30.0415V30.0519ZM134.004 27.5415L126.878 25.3631L127.189 24.3361L130.114 25.2386L130.519 23.9212L131.795 24.3154L131.39 25.6328L134.305 26.5249L133.994 27.5519L134.004 27.5415ZM127.594 35.1141L133.071 36.7946L133.672 34.8133L128.195 33.1328L127.594 35.1141ZM127.988 28.6722C127.76 29.4191 128.268 30.083 129.243 30.3735C130.208 30.6743 130.996 30.4046 131.224 29.6577C131.442 28.9419 130.944 28.2676 129.969 27.9876C128.994 27.6764 128.195 27.9461 127.977 28.6722H127.988ZM135.436 33.5789L134.15 33.1847L134.959 30.5394L133.06 29.9585L133.392 28.8901L135.291 29.471L136.411 25.8195L137.697 26.2137L135.436 33.5789Z" fill="#616161"/>
</g>
</g>
<defs>
<linearGradient id="paint0_linear_1188_6052" x1="100.052" y1="74.838" x2="200" y2="74.838" gradientUnits="userSpaceOnUse">
<stop stop-color="#FFCD03"/>
<stop offset="0.55" stop-color="#B7D508"/>
<stop offset="1" stop-color="#709F00"/>
</linearGradient>
<linearGradient id="paint1_linear_1188_6052" x1="0.000327636" y1="74.8276" x2="100.052" y2="74.8276" gradientUnits="userSpaceOnUse">
<stop stop-color="#DF0000"/>
<stop offset="0.49" stop-color="#ED4A04"/>
<stop offset="1" stop-color="#FF8D00"/>
</linearGradient>
<clipPath id="clip0_1188_6052">
<rect width="200" height="132" fill="white"/>
</clipPath>
<clipPath id="clip1_1188_6052">
<rect width="200" height="75.6432" fill="white" transform="translate(0 37.0164)"/>
</clipPath>
<clipPath id="clip2_1188_6052">
<rect width="76.4834" height="18.2261" fill="white" transform="translate(61.2036 20)"/>
</clipPath>
</defs>
</svg>
