<svg width="200" height="132" viewBox="0 0 200 132" fill="none" xmlns="http://www.w3.org/2000/svg">
<g clip-path="url(#clip0_1188_6247)">
<g clip-path="url(#clip1_1188_6247)">
<path d="M198.33 94.0288C193.268 85.2425 187.064 77.1927 179.917 70.0766C169.492 59.7031 157.054 51.3317 143.257 45.616C129.948 40.0973 115.353 37.0268 100.052 37.0164V61.7259C112.002 61.7363 123.403 64.1326 133.807 68.4479C144.585 72.9189 154.305 79.4438 162.459 87.5351C168.091 93.1367 172.977 99.4749 176.961 106.415C180.052 111.788 186.598 114.091 192.334 111.726C199.274 108.852 202.085 100.533 198.34 94.0288H198.33Z" fill="url(#paint0_linear_1188_6247)"/>
<path d="M99.9482 37.0164C84.6785 37.0164 70.1142 40.0558 56.8051 45.5537C42.9876 51.2591 30.5291 59.6098 20.0831 69.9832C12.9565 77.0579 6.7532 85.0766 1.69095 93.8214C-2.1161 100.398 0.736598 108.821 7.75942 111.726C13.4026 114.06 19.8652 111.809 22.8943 106.508C26.9088 99.506 31.8466 93.0952 37.5416 87.4521C45.7158 79.3504 55.4565 72.8359 66.2553 68.3857C76.6495 64.1015 88.0188 61.7259 99.9378 61.7259C99.969 61.7259 100 61.7259 100.031 61.7259V37.0164C100.031 37.0164 99.969 37.0164 99.9378 37.0164H99.9482Z" fill="url(#paint1_linear_1188_6247)"/>
<path d="M96.8391 51.7376L89.1589 68.9624C88.3176 70.8513 89.7141 72.9923 91.7812 72.9626L107.498 72.8059C109.574 72.7814 110.923 70.6263 110.042 68.7545L102.014 51.6917C100.98 49.488 97.8385 49.5204 96.848 51.7429L89.1678 68.9677C88.3265 70.8566 89.723 72.9976 91.7901 72.9679L107.507 72.8111C109.583 72.7867 110.932 70.6316 110.051 68.7597L102.023 51.6969C100.989 49.4933 97.8475 49.5257 96.8569 51.7482L96.8391 51.7376Z" fill="#333333"/>
<path d="M170.591 112.234C157.002 87.172 130.467 70.1492 99.9481 70.1492C69.4294 70.1492 42.8941 87.172 29.3049 112.234H170.581H170.591Z" fill="#EEEEEE"/>
<path d="M88.1923 96.6415C88.2101 94.4359 88.7971 93.7422 89.8643 93.084C90.6292 92.586 91.2161 92.0346 91.2161 91.2164C91.2161 90.327 90.5224 89.7401 89.6687 89.7401C88.8327 89.7401 88.0678 90.2915 88.0322 91.3409H85.5065C85.5598 88.8329 87.4097 87.6412 89.6864 87.6412C92.1589 87.6412 93.9198 88.9396 93.9198 91.1275C93.9198 92.586 93.1727 93.5287 91.9988 94.2224C91.0027 94.8272 90.558 95.3964 90.5402 96.6415V96.8371H88.1923V96.6415ZM89.4196 100.857C88.5836 100.857 87.9077 100.181 87.9255 99.3629C87.9077 98.5447 88.5836 97.8866 89.4196 97.8866C90.2023 97.8866 90.896 98.5447 90.896 99.3629C90.896 100.181 90.2023 100.857 89.4196 100.857ZM97.993 96.6415C98.0108 94.4359 98.5978 93.7422 99.665 93.084C100.43 92.586 101.017 92.0346 101.017 91.2164C101.017 90.327 100.323 89.7401 99.4693 89.7401C98.6334 89.7401 97.8685 90.2915 97.8329 91.3409H95.3072C95.3605 88.8329 97.2104 87.6412 99.4871 87.6412C101.96 87.6412 103.72 88.9396 103.72 91.1275C103.72 92.586 102.973 93.5287 101.799 94.2224C100.803 94.8272 100.359 95.3964 100.341 96.6415V96.8371H97.993V96.6415ZM99.2203 100.857C98.3843 100.857 97.7084 100.181 97.7262 99.3629C97.7084 98.5447 98.3843 97.8866 99.2203 97.8866C100.003 97.8866 100.697 98.5447 100.697 99.3629C100.697 100.181 100.003 100.857 99.2203 100.857ZM107.794 96.6415C107.812 94.4359 108.398 93.7422 109.466 93.084C110.231 92.586 110.818 92.0346 110.818 91.2164C110.818 90.327 110.124 89.7401 109.27 89.7401C108.434 89.7401 107.669 90.2915 107.634 91.3409H105.108C105.161 88.8329 107.011 87.6412 109.288 87.6412C111.76 87.6412 113.521 88.9396 113.521 91.1275C113.521 92.586 112.774 93.5287 111.6 94.2224C110.604 94.8272 110.159 95.3964 110.142 96.6415V96.8371H107.794V96.6415ZM109.021 100.857C108.185 100.857 107.509 100.181 107.527 99.3629C107.509 98.5447 108.185 97.8866 109.021 97.8866C109.804 97.8866 110.497 98.5447 110.497 99.3629C110.497 100.181 109.804 100.857 109.021 100.857Z" fill="#333333"/>
</g>
<g clip-path="url(#clip2_1188_6247)">
<path d="M69.5021 29.2013L69.1702 30.3839C67.6557 30.332 66.3797 29.6889 65.5187 28.6723C65.3527 30.1557 64.5747 31.5146 63.2469 32.4378L62.2926 31.5872C64.0353 30.4254 64.7407 28.5271 64.2843 26.8258L64.1909 26.4835L61.4938 27.2304L61.2034 26.1827L67.832 24.3466L68.1225 25.3943L65.4876 26.1308L65.581 26.4627C66.0166 28.0188 67.4897 29.1391 69.5125 29.2117L69.5021 29.2013ZM73.1536 32.6038C73.5581 34.0561 72.2615 35.3424 69.7303 36.0271C67.1785 36.7532 65.3839 36.3175 64.9793 34.8756C64.5851 33.4441 65.9025 32.1785 68.4648 31.4627C70.9959 30.7573 72.7594 31.1723 73.1536 32.6038ZM66.2864 34.5125C66.5042 35.332 67.6764 35.498 69.4503 35.0001C71.2137 34.5125 72.1162 33.776 71.888 32.9565C71.6702 32.1681 70.5187 32.0022 68.7552 32.4897C66.9814 32.9876 66.0478 33.7242 66.2864 34.5125ZM71.1411 25.747L72.915 25.249L73.2054 26.3175L71.4316 26.8154L72.3341 30.0727L71.0374 30.4358L68.9938 23.081L70.2905 22.7179L71.1308 25.747H71.1411Z" fill="#616161"/>
<path d="M76.2137 31.9918L75.3424 31.027C78.4233 28.9005 79.6888 26.3797 79.4814 23.4129L74.8652 24.1495L74.6992 23.081L80.6639 22.1266C81.2552 25.7988 80.1971 29.2428 76.2241 31.9814L76.2137 31.9918ZM86.193 32.7387L84.8444 32.9565L82.832 20.4046L84.1805 20.1868L86.193 32.7283V32.7387Z" fill="#616161"/>
<path d="M99.274 30.4357L87.6454 30.9336L87.5935 29.8133L90.3736 29.6992L90.2284 26.3797C89.1599 25.8506 88.496 24.9585 88.4441 23.8278C88.3611 21.8257 90.2595 20.4253 92.9773 20.3112C95.7159 20.1971 97.7284 21.4315 97.8113 23.4336C97.8632 24.5539 97.2823 25.4772 96.2865 26.0996L96.4317 29.4502L99.2118 29.3361L99.2636 30.4564L99.274 30.4357ZM89.7616 23.7656C89.8238 25.1245 91.2346 25.9647 93.2263 25.8817C95.2076 25.7988 96.5769 24.8444 96.5147 23.4855C96.4524 22.1058 95.0105 21.3071 93.0292 21.39C91.0271 21.473 89.6889 22.3963 89.7512 23.7759L89.7616 23.7656ZM95.0935 29.4917L94.969 26.6598C94.4607 26.8154 93.8902 26.9087 93.2782 26.9295C92.6869 26.9502 92.1163 26.9191 91.5977 26.8154L91.7221 29.6369L95.0935 29.4917Z" fill="#616161"/>
<path d="M107.438 23.6204C107.293 25.3838 105.778 26.5146 103.838 26.3797C101.898 26.2241 100.55 24.8859 100.695 23.1224C100.809 21.3382 102.344 20.2179 104.284 20.3631C106.224 20.5083 107.552 21.8361 107.438 23.6204ZM110.083 30.3424C109.969 31.8569 108.288 32.6349 105.705 32.4378C103.091 32.2614 101.515 31.2345 101.629 29.7199C101.743 28.1951 103.444 27.4274 106.058 27.6141C108.641 27.8009 110.187 28.8175 110.073 30.3424H110.083ZM102.012 23.2158C101.919 24.3465 102.739 25.1453 103.921 25.249C105.114 25.3216 106.037 24.6577 106.12 23.527C106.203 22.4067 105.384 21.5872 104.201 21.4938C103.008 21.4108 102.085 22.1058 102.012 23.2262V23.2158ZM102.977 29.8133C102.894 30.6743 103.952 31.2241 105.788 31.359C107.614 31.4938 108.703 31.0996 108.766 30.2386C108.828 29.388 107.801 28.8278 105.985 28.693C104.149 28.5581 103.029 28.9523 102.977 29.8029V29.8133ZM112.303 23.1328L110.508 22.998L110.394 24.6058L112.189 24.7407L112.106 25.861L110.311 25.7262L110.176 27.583L108.838 27.4793L109.388 20L110.726 20.1038L110.591 21.8984L112.386 22.0332L112.303 23.1328Z" fill="#616161"/>
<path d="M123.61 33.5892L112.189 31.4108L112.396 30.3112L117.427 31.2759L117.915 28.7137L114.201 28.0083L115.425 21.5871L116.753 21.8361L116.338 23.9834L122.469 25.1556L122.873 23.0083L124.18 23.2573L122.956 29.6784L119.222 28.9626L118.734 31.5249L123.817 32.5L123.61 33.5996V33.5892ZM121.857 28.3506L122.261 26.2241L116.131 25.0519L115.726 27.1784L121.857 28.3506Z" fill="#616161"/>
<path d="M134.015 38.2262L125.996 35.7676L127.23 31.722L135.249 34.1805L134.015 38.2262ZM132.469 30.0519C132.064 31.3693 130.622 31.8569 128.952 31.3589C127.293 30.8299 126.359 29.6162 126.763 28.2988C127.158 27.0228 128.62 26.4938 130.29 27.0021C131.961 27.5104 132.863 28.7656 132.469 30.0415V30.0519ZM134.004 27.5415L126.878 25.3631L127.189 24.3361L130.114 25.2386L130.519 23.9212L131.795 24.3154L131.39 25.6328L134.305 26.5249L133.994 27.5519L134.004 27.5415ZM127.593 35.1141L133.071 36.7946L133.672 34.8133L128.195 33.1328L127.593 35.1141ZM127.988 28.6722C127.759 29.4191 128.268 30.083 129.243 30.3735C130.207 30.6743 130.996 30.4046 131.224 29.6577C131.442 28.9419 130.944 28.2676 129.969 27.9876C128.994 27.6764 128.195 27.9461 127.977 28.6722H127.988ZM135.436 33.5789L134.149 33.1847L134.959 30.5394L133.06 29.9585L133.392 28.8901L135.29 29.471L136.411 25.8195L137.697 26.2137L135.436 33.5789Z" fill="#616161"/>
</g>
</g>
<defs>
<linearGradient id="paint0_linear_1188_6247" x1="100.052" y1="74.838" x2="200" y2="74.838" gradientUnits="userSpaceOnUse">
<stop stop-color="#FFCD03"/>
<stop offset="0.55" stop-color="#B7D508"/>
<stop offset="1" stop-color="#709F00"/>
</linearGradient>
<linearGradient id="paint1_linear_1188_6247" x1="8.34952e-05" y1="74.8276" x2="100.052" y2="74.8276" gradientUnits="userSpaceOnUse">
<stop stop-color="#DF0000"/>
<stop offset="0.49" stop-color="#ED4A04"/>
<stop offset="1" stop-color="#FF8D00"/>
</linearGradient>
<clipPath id="clip0_1188_6247">
<rect width="200" height="132" fill="white"/>
</clipPath>
<clipPath id="clip1_1188_6247">
<rect width="200" height="75.6432" fill="white" transform="translate(0 37.0164)"/>
</clipPath>
<clipPath id="clip2_1188_6247">
<rect width="76.4834" height="18.2261" fill="white" transform="translate(61.2034 20)"/>
</clipPath>
</defs>
</svg>
