<svg width="24" height="24" viewBox="0 0 24 24" fill="none" xmlns="http://www.w3.org/2000/svg">
<path fill-rule="evenodd" clip-rule="evenodd" d="M16.2855 3.67451C17.4221 4.81109 18.0606 6.35262 18.0606 7.95998C18.0606 15.0306 21.0909 17.0508 21.0909 17.0508H2.90918C2.90918 17.0508 5.93946 15.0306 5.93946 7.95998C5.93946 6.35262 6.57798 4.81109 7.71456 3.67451C8.85114 2.53794 10.3927 1.89941 12 1.89941C13.6074 1.89941 15.1489 2.53794 16.2855 3.67451ZM14.308 21.1964C15.01 20.6699 15.5935 19.9125 16 19H8C8.4065 19.9125 8.98996 20.6699 9.69196 21.1964C10.394 21.7229 11.1899 22 12 22C12.8101 22 13.606 21.7229 14.308 21.1964Z" fill="#333333"/>
</svg>
