<svg width="24" height="24" viewBox="0 0 24 24" fill="none" xmlns="http://www.w3.org/2000/svg">
<path fill-rule="evenodd" clip-rule="evenodd" d="M12 1.14941C10.1937 1.14941 8.46139 1.86695 7.18417 3.14418C5.90694 4.42141 5.1894 6.1537 5.1894 7.95998C5.1894 11.3848 4.45653 13.5315 3.76584 14.7978C3.41945 15.4328 3.07961 15.854 2.83813 16.1089C2.7172 16.2365 2.62043 16.323 2.55919 16.374C2.52855 16.3996 2.50678 16.4163 2.49529 16.4248L2.48637 16.4313C2.21611 16.6157 2.09631 16.9544 2.1913 17.2682C2.28707 17.5845 2.57862 17.8008 2.90912 17.8008H21.0908C21.4213 17.8008 21.7129 17.5845 21.8086 17.2682C21.9036 16.9544 21.7838 16.6157 21.5136 16.4313L21.5046 16.4248C21.4931 16.4163 21.4714 16.3996 21.4407 16.374C21.3795 16.323 21.2827 16.2365 21.1618 16.1089C20.9203 15.854 20.5805 15.4328 20.2341 14.7978C19.5434 13.5315 18.8105 11.3848 18.8105 7.95998C18.8105 6.1537 18.093 4.42141 16.8158 3.14418C15.5385 1.86695 13.8062 1.14941 12 1.14941ZM18.9172 15.516C19.0786 15.8118 19.2409 16.0724 19.3983 16.3008H4.60159C4.75903 16.0724 4.92136 15.8118 5.08268 15.516C5.90713 14.0045 6.6894 11.6058 6.6894 7.95998C6.6894 6.55153 7.2489 5.20077 8.24483 4.20484C9.24075 3.20892 10.5915 2.64941 12 2.64941C13.4084 2.64941 14.7592 3.20892 15.7551 4.20484C16.751 5.20077 17.3105 6.55153 17.3105 7.95998C17.3105 11.6058 18.0928 14.0045 18.9172 15.516ZM10.9013 20.7149C10.6934 20.3566 10.2345 20.2346 9.87617 20.4424C9.51788 20.6503 9.39591 21.1092 9.60375 21.4675C9.84726 21.8873 10.1968 22.2358 10.6173 22.478C11.0379 22.7202 11.5147 22.8477 12 22.8477C12.4853 22.8477 12.9621 22.7202 13.3826 22.478C13.8031 22.2358 14.1527 21.8873 14.3962 21.4675C14.604 21.1092 14.482 20.6503 14.1238 20.4424C13.7655 20.2346 13.3065 20.3566 13.0987 20.7149C12.987 20.9074 12.8268 21.0671 12.6339 21.1782C12.4411 21.2893 12.2225 21.3477 12 21.3477C11.7774 21.3477 11.5588 21.2893 11.366 21.1782C11.1732 21.0671 11.0129 20.9074 10.9013 20.7149Z" fill="#333333"/>
</svg>
