<svg width="24" height="24" viewBox="0 0 24 24" fill="none" xmlns="http://www.w3.org/2000/svg">
<path fill-rule="evenodd" clip-rule="evenodd" d="M8.24334 6.55556L9.66667 5H14.3333L15.7567 6.55556H18.2222C19.0778 6.55556 19.7778 7.25556 19.7778 8.11111V17.4444C19.7778 18.3 19.0778 19 18.2222 19H5.77778C4.92223 19 4.22223 18.3 4.22223 17.4444V8.11111C4.22223 7.25556 4.92223 6.55556 5.77778 6.55556H8.24334ZM8.11112 12.7778C8.11112 14.9244 9.85334 16.6667 12 16.6667C14.1467 16.6667 15.8889 14.9244 15.8889 12.7778C15.8889 10.6311 14.1467 8.88889 12 8.88889C9.85334 8.88889 8.11112 10.6311 8.11112 12.7778ZM14.4891 12.7779C14.4891 14.1525 13.3748 15.2668 12.0002 15.2668C10.6256 15.2668 9.51129 14.1525 9.51129 12.7779C9.51129 11.4033 10.6256 10.289 12.0002 10.289C13.3748 10.289 14.4891 11.4033 14.4891 12.7779Z" fill="#333333"/>
</svg>
