<svg width="24" height="24" viewBox="0 0 24 24" fill="none" xmlns="http://www.w3.org/2000/svg">
<path fill-rule="evenodd" clip-rule="evenodd" d="M22.0001 12C22.0001 17.5228 17.523 22 12.0001 22C6.47727 22 2.00012 17.5228 2.00012 12C2.00012 6.47715 6.47727 2 12.0001 2C17.523 2 22.0001 6.47715 22.0001 12ZM15.5303 8.46967C15.8232 8.76256 15.8232 9.23744 15.5303 9.53033L13.0606 12L15.5303 14.4697C15.8232 14.7626 15.8232 15.2374 15.5303 15.5303C15.2374 15.8232 14.7625 15.8232 14.4696 15.5303L12 13.0607L9.5303 15.5303C9.23741 15.8232 8.76254 15.8232 8.46965 15.5303C8.17675 15.2374 8.17675 14.7626 8.46965 14.4697L10.9393 12L8.46965 9.53033C8.17675 9.23744 8.17675 8.76256 8.46965 8.46967C8.76254 8.17678 9.23741 8.17678 9.5303 8.46967L12 10.9393L14.4696 8.46967C14.7625 8.17678 15.2374 8.17678 15.5303 8.46967Z" fill="#999999"/>
</svg>
