<svg width="24" height="24" viewBox="0 0 24 24" fill="none" xmlns="http://www.w3.org/2000/svg">
<path fill-rule="evenodd" clip-rule="evenodd" d="M12.8832 5.84653C12.8832 5.43232 12.5474 5.09653 12.1332 5.09653C11.719 5.09653 11.3832 5.43232 11.3832 5.84653V11.3832H5.84653C5.43232 11.3832 5.09653 11.719 5.09653 12.1332C5.09653 12.5474 5.43232 12.8832 5.84653 12.8832H11.3832V18.4199C11.3832 18.8341 11.719 19.1699 12.1332 19.1699C12.5474 19.1699 12.8832 18.8341 12.8832 18.4199V12.8832H18.4199C18.8341 12.8832 19.1699 12.5474 19.1699 12.1332C19.1699 11.719 18.8341 11.3832 18.4199 11.3832H12.8832V5.84653Z" fill="#333333"/>
</svg>
