<svg width="24" height="24" viewBox="0 0 24 24" fill="none" xmlns="http://www.w3.org/2000/svg">
<path fill-rule="evenodd" clip-rule="evenodd" d="M12 4.29166C7.74276 4.29166 4.29163 7.74279 4.29163 12C4.29163 16.2572 7.74276 19.7083 12 19.7083C16.2572 19.7083 19.7083 16.2572 19.7083 12C19.7083 7.74279 16.2572 4.29166 12 4.29166ZM3.04163 12C3.04163 7.05244 7.05241 3.04166 12 3.04166C16.9475 3.04166 20.9583 7.05244 20.9583 12C20.9583 16.9475 16.9475 20.9583 12 20.9583C7.05241 20.9583 3.04163 16.9475 3.04163 12Z" fill="#333333"/>
<path d="M9.22595 10.2094L12.0036 12.987L14.7812 10.2094C15.0604 9.9302 15.5114 9.9302 15.7906 10.2094C16.0698 10.4886 16.0698 10.9396 15.7906 11.2188L12.5047 14.5047C12.2255 14.7839 11.7745 14.7839 11.4953 14.5047L8.2094 11.2188C7.9302 10.9396 7.9302 10.4886 8.2094 10.2094C8.48859 9.93736 8.94676 9.9302 9.22595 10.2094Z" fill="#333333"/>
</svg>
