<svg width="16" height="16" viewBox="0 0 16 16" fill="none" xmlns="http://www.w3.org/2000/svg">
<path fill-rule="evenodd" clip-rule="evenodd" d="M14.813 1.5365C15.1059 1.24361 15.1059 0.768734 14.813 0.475841C14.5201 0.182948 14.0452 0.182948 13.7523 0.475841L7.64436 6.58381L1.5364 0.475841C1.2435 0.182948 0.76863 0.182948 0.475737 0.475841C0.182844 0.768734 0.182844 1.24361 0.475737 1.5365L6.5837 7.64447L0.475737 13.7524C0.182844 14.0453 0.182844 14.5202 0.475737 14.8131C0.76863 15.106 1.2435 15.106 1.5364 14.8131L7.64437 8.70513L13.7523 14.8131C14.0452 15.106 14.5201 15.106 14.813 14.8131C15.1059 14.5202 15.1059 14.0453 14.813 13.7524L8.70502 7.64447L14.813 1.5365Z" fill="#333333"/>
</svg>
