<svg width="24" height="24" viewBox="0 0 24 24" fill="none" xmlns="http://www.w3.org/2000/svg">
<path fill-rule="evenodd" clip-rule="evenodd" d="M18.813 5.5365C19.1059 5.24361 19.1059 4.76873 18.813 4.47584C18.5201 4.18295 18.0452 4.18295 17.7523 4.47584L11.6444 10.5838L5.5364 4.47584C5.2435 4.18295 4.76863 4.18295 4.47574 4.47584C4.18284 4.76873 4.18284 5.24361 4.47574 5.5365L10.5837 11.6445L4.47574 17.7524C4.18284 18.0453 4.18284 18.5202 4.47574 18.8131C4.76863 19.106 5.2435 19.106 5.5364 18.8131L11.6444 12.7051L17.7523 18.8131C18.0452 19.106 18.5201 19.106 18.813 18.8131C19.1059 18.5202 19.1059 18.0453 18.813 17.7524L12.705 11.6445L18.813 5.5365Z" fill="#333333"/>
</svg>
