<svg width="24" height="24" viewBox="0 0 24 24" fill="none" xmlns="http://www.w3.org/2000/svg">
<path fill-rule="evenodd" clip-rule="evenodd" d="M18.5556 2H16.3333H7.44444H5.22222C4.63285 2 4.06762 2.23413 3.65087 2.65087C3.23413 3.06762 3 3.63285 3 4.22222V19.7778C3 20.3671 3.23413 20.9324 3.65087 21.3491C4.06762 21.7659 4.63285 22 5.22222 22H18.5556C19.1449 22 19.7102 21.7659 20.1269 21.3491C20.5436 20.9324 20.7778 20.3671 20.7778 19.7778V4.22222C20.7778 3.63285 20.5436 3.06762 20.1269 2.65087C19.7102 2.23413 19.1449 2 18.5556 2ZM7.44462 17.1999C7.00279 17.1999 6.64462 17.5581 6.64462 17.9999C6.64462 18.4417 7.00279 18.7999 7.44462 18.7999H16.3335C16.7753 18.7999 17.1335 18.4417 17.1335 17.9999C17.1335 17.5581 16.7753 17.1999 16.3335 17.1999H7.44462ZM6.64462 13.5555C6.64462 13.1137 7.00279 12.7555 7.44462 12.7555H11.8913H16.338C16.7798 12.7555 17.138 13.1137 17.138 13.5555C17.138 13.9973 16.7798 14.3555 16.338 14.3555H11.8913H7.44462C7.00279 14.3555 6.64462 13.9973 6.64462 13.5555ZM8.64196 10.0106L6.99902 8.27917C6.40782 7.65611 6.40782 6.64594 6.99902 6.02288C7.59022 5.39982 8.54875 5.39982 9.13995 6.02288C9.18471 6.07005 9.25987 6.07005 9.30463 6.02288C9.89583 5.39982 10.8544 5.39982 11.4456 6.02288C12.0368 6.64594 12.0368 7.65611 11.4456 8.27917L9.80262 10.0106C9.48716 10.3431 8.95742 10.3431 8.64196 10.0106Z" fill="#1F2937"/>
</svg>
