<svg width="24" height="24" viewBox="0 0 24 24" fill="none" xmlns="http://www.w3.org/2000/svg">
<path fill-rule="evenodd" clip-rule="evenodd" d="M4.90042 3.88114C5.14446 3.6371 5.47545 3.5 5.82057 3.5H7.87185H16.077H18.1283C18.4734 3.5 18.8044 3.6371 19.0484 3.88114C19.2924 4.12517 19.4295 4.45616 19.4295 4.80128V19.1603C19.4295 19.5054 19.2924 19.8364 19.0484 20.0804C18.8044 20.3244 18.4734 20.4615 18.1283 20.4615H5.82057C5.47545 20.4615 5.14446 20.3244 4.90042 20.0804C4.65639 19.8364 4.51929 19.5054 4.51929 19.1603V4.80128C4.51929 4.45616 4.65639 4.12517 4.90042 3.88114ZM5.82057 2C5.07762 2 4.36511 2.29513 3.83976 2.82048C3.31442 3.34582 3.01929 4.05834 3.01929 4.80128V19.1603C3.01929 19.9032 3.31442 20.6157 3.83976 21.1411C4.3651 21.6664 5.07762 21.9615 5.82057 21.9615H18.1283C18.8712 21.9615 19.5837 21.6664 20.1091 21.1411C20.6344 20.6157 20.9295 19.9032 20.9295 19.1603V4.80128C20.9295 4.05834 20.6344 3.34582 20.1091 2.82048C19.5837 2.29513 18.8712 2 18.1283 2H16.077H7.87185H5.82057ZM7.87205 16.7692C7.45784 16.7692 7.12205 17.1049 7.12205 17.5192C7.12205 17.9334 7.45784 18.2692 7.87205 18.2692H16.0772C16.4914 18.2692 16.8272 17.9334 16.8272 17.5192C16.8272 17.1049 16.4914 16.7692 16.0772 16.7692H7.87205ZM7.12205 13.4166C7.12205 13.0024 7.45784 12.6666 7.87205 12.6666H11.9767H16.0813C16.4955 12.6666 16.8313 13.0024 16.8313 13.4166C16.8313 13.8308 16.4955 14.1666 16.0813 14.1666H11.9767H7.87205C7.45784 14.1666 7.12205 13.8308 7.12205 13.4166ZM8.97729 10.1444L7.46073 8.54616C6.91501 7.97103 6.91501 7.03856 7.46073 6.46342C8.00645 5.88829 8.89124 5.88829 9.43697 6.46343C9.47829 6.50697 9.54767 6.50697 9.58899 6.46343C10.1347 5.88829 11.0195 5.88829 11.5652 6.46342C12.1109 7.03856 12.1109 7.97103 11.5652 8.54616L10.0487 10.1444C9.75747 10.4513 9.26849 10.4513 8.97729 10.1444Z" fill="#1F2937"/>
</svg>
