<svg width="24" height="24" viewBox="0 0 24 24" fill="none" xmlns="http://www.w3.org/2000/svg">
<path fill-rule="evenodd" clip-rule="evenodd" d="M6.57143 4C5.88944 4 5.23539 4.27092 4.75315 4.75315C4.27092 5.23539 4 5.88944 4 6.57143V15.1429C4 15.3702 4.09031 15.5882 4.25105 15.7489C4.4118 15.9097 4.62981 16 4.85714 16C5.08447 16 5.30249 15.9097 5.46323 15.7489C5.62398 15.5882 5.71429 15.3702 5.71429 15.1429V6.57143C5.71429 6.3441 5.80459 6.12608 5.96534 5.96534C6.12608 5.80459 6.3441 5.71429 6.57143 5.71429H15.1429C15.3702 5.71429 15.5882 5.62398 15.7489 5.46323C15.9097 5.30249 16 5.08447 16 4.85714C16 4.62981 15.9097 4.4118 15.7489 4.25105C15.5882 4.09031 15.3702 4 15.1429 4H6.57143ZM9.14286 7.42857C8.6882 7.42857 8.25217 7.60918 7.93067 7.93067C7.60918 8.25217 7.42857 8.6882 7.42857 9.14286V18.2857C7.42857 18.7404 7.60918 19.1764 7.93067 19.4979C8.25217 19.8194 8.6882 20 9.14286 20H18.2857C18.7404 20 19.1764 19.8194 19.4979 19.4979C19.8194 19.1764 20 18.7404 20 18.2857V9.14286C20 8.6882 19.8194 8.25217 19.4979 7.93067C19.1764 7.60918 18.7404 7.42857 18.2857 7.42857H9.14286Z" fill="#333333"/>
</svg>
