<svg width="24" height="24" viewBox="0 0 24 24" fill="none" xmlns="http://www.w3.org/2000/svg">
<path fill-rule="evenodd" clip-rule="evenodd" d="M8.27907 4C5.91581 4 4 5.91581 4 8.27907V15.7209C4 18.0842 5.91581 20 8.27907 20H15.7209C18.0842 20 20 18.0842 20 15.7209V8.27907C20 5.91581 18.0842 4 15.7209 4H8.27907ZM5.12616 15.9727C5.25447 17.6018 6.61706 18.8837 8.27907 18.8837H15.7209C17.4677 18.8837 18.8837 17.4677 18.8837 15.7209V14.5117L15.9165 12.0389C15.3842 11.5954 14.6016 11.6309 14.1117 12.1208L10.3989 15.8337C10.0501 16.1824 9.48469 16.1824 9.13594 15.8337L8.33724 15.035C7.87422 14.5719 7.14431 14.5115 6.61146 14.8921L5.24183 15.8704C5.19941 15.9007 5.16073 15.9351 5.12616 15.9727ZM7.53485 9.02326C7.53485 9.84526 8.20122 10.5116 9.02322 10.5116C9.84523 10.5116 10.5116 9.84526 10.5116 9.02326C10.5116 8.20125 9.84523 7.53488 9.02322 7.53488C8.20122 7.53488 7.53485 8.20125 7.53485 9.02326Z" fill="#333333"/>
</svg>
