<svg width="24" height="24" viewBox="0 0 24 24" fill="none" xmlns="http://www.w3.org/2000/svg">
<path fill-rule="evenodd" clip-rule="evenodd" d="M12 4.29166C7.74276 4.29166 4.29163 7.74279 4.29163 12C4.29163 16.2572 7.74276 19.7083 12 19.7083C16.2572 19.7083 19.7083 16.2572 19.7083 12C19.7083 7.74279 16.2572 4.29166 12 4.29166ZM3.04163 12C3.04163 7.05244 7.05241 3.04166 12 3.04166C16.9475 3.04166 20.9583 7.05244 20.9583 12C20.9583 16.9475 16.9475 20.9583 12 20.9583C7.05241 20.9583 3.04163 16.9475 3.04163 12ZM12 11.375C12.3451 11.375 12.625 11.6548 12.625 12V15.3333C12.625 15.6785 12.3451 15.9583 12 15.9583C11.6548 15.9583 11.375 15.6785 11.375 15.3333V12C11.375 11.6548 11.6548 11.375 12 11.375ZM12 8.04166C11.6548 8.04166 11.375 8.32148 11.375 8.66666C11.375 9.01184 11.6548 9.29166 12 9.29166H12.0083C12.3535 9.29166 12.6333 9.01184 12.6333 8.66666C12.6333 8.32148 12.3535 8.04166 12.0083 8.04166H12Z" fill="#333333"/>
</svg>
