<svg width="24" height="24" viewBox="0 0 24 24" fill="none" xmlns="http://www.w3.org/2000/svg">
<g clip-path="url(#clip0_1378_6537)">
<path d="M12.047 4H11.9843H11.9559C8.5341 4.05365 5.75 6.86057 5.75 10.252C5.75 12.144 6.65241 14.2196 8.42877 16.4278C8.52841 16.5521 8.63089 16.6763 8.73622 16.8006C8.74192 16.8062 8.74476 16.8119 8.75046 16.8175C8.94973 17.0519 9.16039 17.2919 9.37958 17.5291C9.46499 17.6223 9.55039 17.7155 9.63864 17.8059C9.66426 17.8341 9.68988 17.8595 9.71834 17.8878C10.6321 18.8394 11.4862 19.5764 12.0014 19.9972C12.5195 19.5736 13.3821 18.8309 14.3044 17.8708C14.3244 17.851 14.3443 17.8285 14.3642 17.8087C14.4582 17.7098 14.5521 17.611 14.6432 17.5094C14.8538 17.2806 15.0588 17.0491 15.2524 16.8203C15.2609 16.8119 15.2666 16.8034 15.2752 16.7949C15.3805 16.6707 15.483 16.5464 15.5826 16.4193C17.3533 14.2139 18.2528 12.1412 18.2528 10.252C18.25 6.86057 15.4687 4.05365 12.047 4ZM12.0014 13.1408C10.1795 13.1408 8.69637 11.6696 8.69637 9.86234C8.69637 8.05507 10.1795 6.58383 12.0014 6.58383C13.8233 6.58383 15.3065 8.05507 15.3065 9.86234C15.3065 11.6696 13.8233 13.1408 12.0014 13.1408Z" fill="#333333"/>
</g>
<defs>
<clipPath id="clip0_1378_6537">
<rect width="12.5" height="16" fill="white" transform="translate(5.75 4)"/>
</clipPath>
</defs>
</svg>
