<svg width="24" height="24" viewBox="0 0 24 24" fill="none" xmlns="http://www.w3.org/2000/svg">
<path fill-rule="evenodd" clip-rule="evenodd" d="M5.25 9.75V5.25H6H9H9.75V9.75H5.25ZM5.25 3.75C4.87883 3.75 4.50764 3.88026 4.2214 4.13471C3.93227 4.3917 3.75 4.76053 3.75 5.16667V9.83333C3.75 10.2395 3.93227 10.6083 4.2214 10.8653C4.50764 11.1197 4.87883 11.25 5.25 11.25H9.75C10.1212 11.25 10.4924 11.1197 10.7786 10.8653C11.0677 10.6083 11.25 10.2395 11.25 9.83333V5.16667C11.25 4.76053 11.0677 4.3917 10.7786 4.13471C10.4924 3.88026 10.1212 3.75 9.75 3.75H9H6H5.25ZM14.25 9.75V5.25H15H18H18.75V9.75H14.25ZM14.25 3.75C13.8788 3.75 13.5076 3.88026 13.2214 4.13471C12.9323 4.3917 12.75 4.76053 12.75 5.16667V9.83333C12.75 10.2395 12.9323 10.6083 13.2214 10.8653C13.5076 11.1197 13.8788 11.25 14.25 11.25H18.75C19.1212 11.25 19.4924 11.1197 19.7786 10.8653C20.0677 10.6083 20.25 10.2395 20.25 9.83333V5.16667C20.25 4.76053 20.0677 4.3917 19.7786 4.13471C19.4924 3.88026 19.1212 3.75 18.75 3.75H18H15H14.25ZM5.25 14.25V18.75H9.75V14.25H9H6H5.25ZM4.2214 13.1347C4.50764 12.8803 4.87883 12.75 5.25 12.75H6H9H9.75C10.1212 12.75 10.4924 12.8803 10.7786 13.1347C11.0677 13.3917 11.25 13.7605 11.25 14.1667V18.8333C11.25 19.2395 11.0677 19.6083 10.7786 19.8653C10.4924 20.1197 10.1212 20.25 9.75 20.25H5.25C4.87883 20.25 4.50764 20.1197 4.2214 19.8653C3.93227 19.6083 3.75 19.2395 3.75 18.8333V14.1667C3.75 13.7605 3.93227 13.3917 4.2214 13.1347ZM14.25 18.75V14.25H15H18H18.75V18.75H14.25ZM14.25 12.75C13.8788 12.75 13.5076 12.8803 13.2214 13.1347C12.9323 13.3917 12.75 13.7605 12.75 14.1667V18.8333C12.75 19.2395 12.9323 19.6083 13.2214 19.8653C13.5076 20.1197 13.8788 20.25 14.25 20.25H18.75C19.1212 20.25 19.4924 20.1197 19.7786 19.8653C20.0677 19.6083 20.25 19.2395 20.25 18.8333V14.1667C20.25 13.7605 20.0677 13.3917 19.7786 13.1347C19.4924 12.8803 19.1212 12.75 18.75 12.75H18H15H14.25Z" fill="#1F2937"/>
</svg>
