<svg width="24" height="24" viewBox="0 0 24 24" fill="none" xmlns="http://www.w3.org/2000/svg">
<path fill-rule="evenodd" clip-rule="evenodd" d="M9.75 4.5H9H6H5.25C5.05109 4.5 4.86032 4.57024 4.71967 4.69526C4.57902 4.82029 4.5 4.98986 4.5 5.16667V9.83333C4.5 10.0101 4.57902 10.1797 4.71967 10.3047C4.86032 10.4298 5.05109 10.5 5.25 10.5H9.75C9.94891 10.5 10.1397 10.4298 10.2803 10.3047C10.421 10.1797 10.5 10.0101 10.5 9.83333V5.16667C10.5 4.98986 10.421 4.82029 10.2803 4.69526C10.1397 4.57024 9.94891 4.5 9.75 4.5ZM18.75 4.5H18H15H14.25C14.0511 4.5 13.8603 4.57024 13.7197 4.69526C13.579 4.82029 13.5 4.98986 13.5 5.16667V9.83333C13.5 10.0101 13.579 10.1797 13.7197 10.3047C13.8603 10.4298 14.0511 10.5 14.25 10.5H18.75C18.9489 10.5 19.1397 10.4298 19.2803 10.3047C19.421 10.1797 19.5 10.0101 19.5 9.83333V5.16667C19.5 4.98986 19.421 4.82029 19.2803 4.69526C19.1397 4.57024 18.9489 4.5 18.75 4.5ZM9 13.5H9.75C9.94891 13.5 10.1397 13.5702 10.2803 13.6953C10.421 13.8203 10.5 13.9899 10.5 14.1667V18.8333C10.5 19.0101 10.421 19.1797 10.2803 19.3047C10.1397 19.4298 9.94891 19.5 9.75 19.5H5.25C5.05109 19.5 4.86032 19.4298 4.71967 19.3047C4.57902 19.1797 4.5 19.0101 4.5 18.8333V14.1667C4.5 13.9899 4.57902 13.8203 4.71967 13.6953C4.86032 13.5702 5.05109 13.5 5.25 13.5H6H9ZM18.75 13.5H18H15H14.25C14.0511 13.5 13.8603 13.5702 13.7197 13.6953C13.579 13.8203 13.5 13.9899 13.5 14.1667V18.8333C13.5 19.0101 13.579 19.1797 13.7197 19.3047C13.8603 19.4298 14.0511 19.5 14.25 19.5H18.75C18.9489 19.5 19.1397 19.4298 19.2803 19.3047C19.421 19.1797 19.5 19.0101 19.5 18.8333V14.1667C19.5 13.9899 19.421 13.8203 19.2803 13.6953C19.1397 13.5702 18.9489 13.5 18.75 13.5Z" fill="#1F2937"/>
</svg>
