<svg width="24" height="24" viewBox="0 0 24 24" fill="none" xmlns="http://www.w3.org/2000/svg">
<path fill-rule="evenodd" clip-rule="evenodd" d="M12 1.93811C6.44296 1.93811 1.93811 6.44296 1.93811 12C1.93811 13.5643 2.29615 15.049 2.93587 16.3729L2.22851 18.3747C1.52064 20.378 3.45034 22.3077 5.4536 21.5998L7.3555 20.9278C8.74637 21.6526 10.3274 22.0619 12 22.0619C17.557 22.0619 22.0619 17.557 22.0619 12C22.0619 6.44296 17.557 1.93811 12 1.93811ZM12 3.43811C7.27139 3.43811 3.43811 7.27139 3.43811 12C3.43811 13.4085 3.77824 14.7376 4.38084 15.9096C4.49491 16.1315 4.52069 16.3901 4.43757 16.6253L3.64281 18.8745C3.35506 19.6889 4.1395 20.4733 4.95385 20.1855L7.11362 19.4224C7.35824 19.3359 7.62759 19.3673 7.85449 19.4931C9.08275 20.1741 10.4961 20.5619 12 20.5619C16.7286 20.5619 20.5619 16.7286 20.5619 12C20.5619 7.27139 16.7286 3.43811 12 3.43811ZM7.7619 13.1129C8.35297 13.1129 8.83213 12.6337 8.83213 12.0426C8.83213 11.4516 8.35297 10.9724 7.7619 10.9724C7.17082 10.9724 6.69166 11.4516 6.69166 12.0426C6.69166 12.6337 7.17082 13.1129 7.7619 13.1129ZM13.113 12.0426C13.113 12.6337 12.6339 13.1129 12.0428 13.1129C11.4517 13.1129 10.9725 12.6337 10.9725 12.0426C10.9725 11.4516 11.4517 10.9724 12.0428 10.9724C12.6339 10.9724 13.113 11.4516 13.113 12.0426ZM16.3237 13.1129C16.9148 13.1129 17.3939 12.6337 17.3939 12.0426C17.3939 11.4516 16.9148 10.9724 16.3237 10.9724C15.7326 10.9724 15.2535 11.4516 15.2535 12.0426C15.2535 12.6337 15.7326 13.1129 16.3237 13.1129Z" fill="#333333"/>
</svg>
