<svg width="24" height="24" viewBox="0 0 24 24" fill="none" xmlns="http://www.w3.org/2000/svg">
<path fill-rule="evenodd" clip-rule="evenodd" d="M15.8718 14.5614C16.0902 14.6521 16.2884 14.7849 16.4553 14.9523L18.1435 16.6466C18.3115 16.8111 18.4447 17.0077 18.5353 17.2247C18.6258 17.4417 18.6717 17.6747 18.6704 17.9098C18.671 18.1466 18.6247 18.3812 18.5343 18.6C18.4439 18.8189 18.3111 19.0177 18.1435 19.185L17.3353 19.9992C16.9828 20.3303 16.5676 20.5877 16.1143 20.7563C15.6609 20.9249 15.1784 21.0013 14.6952 20.981C14.5277 20.99 14.3598 20.99 14.1923 20.981C11.9472 20.7655 9.21727 19.2987 6.94829 17.0238C4.6793 14.7488 3.20655 12.0488 3.01498 9.80372C2.93341 9.23975 2.97927 8.66468 3.14918 8.12076C3.31909 7.57685 3.60873 7.07793 3.99681 6.66067L4.81101 5.85245C4.97834 5.68491 5.17715 5.55211 5.39599 5.4617C5.61484 5.37128 5.8494 5.32504 6.08619 5.32562C6.32131 5.32429 6.55429 5.37024 6.7713 5.46075C6.9883 5.55125 7.1849 5.68446 7.3494 5.85245L9.04366 7.54072C9.21109 7.70758 9.34395 7.90585 9.4346 8.12416C9.52525 8.34247 9.57191 8.57653 9.57191 8.81291C9.57191 9.04929 9.52525 9.28335 9.4346 9.50166C9.34395 9.71997 9.21109 9.91824 9.04366 10.0851L8.17557 10.9532C8.79589 11.9306 9.52274 12.8361 10.3428 13.6532C11.1599 14.4733 12.0654 15.2001 13.0428 15.8204L13.9109 14.9523C14.0778 14.7849 14.276 14.6521 14.4943 14.5614C14.7126 14.4708 14.9467 14.4241 15.1831 14.4241C15.4195 14.4241 15.6535 14.4708 15.8718 14.5614ZM15.4308 3.70044C16.52 4.15151 17.5091 4.81373 18.3411 5.6489C19.1863 6.4887 19.8548 7.48921 20.3072 8.59144C20.7596 9.69367 20.9868 10.8753 20.9753 12.0667C20.9753 12.2255 20.9122 12.3778 20.7999 12.4901C20.6877 12.6023 20.5354 12.6654 20.3766 12.6654C20.2178 12.6654 20.0656 12.6023 19.9533 12.4901C19.841 12.3778 19.7779 12.2255 19.7779 12.0667C19.7866 11.0391 19.5917 10.02 19.2045 9.06814C18.8173 8.11628 18.2454 7.25052 17.5218 6.52083C16.7983 5.79114 15.9373 5.21196 14.9888 4.81673C14.0402 4.4215 13.0228 4.21803 11.9951 4.21806C11.8364 4.21806 11.6841 4.15499 11.5718 4.04271C11.4595 3.93044 11.3965 3.77817 11.3965 3.61939C11.3965 3.46061 11.4595 3.30833 11.5718 3.19606C11.6841 3.08378 11.8364 3.02071 11.9951 3.02071C13.174 3.01834 14.3417 3.24936 15.4308 3.70044ZM15.7251 10.2564C15.5431 9.81326 15.2743 9.41101 14.9346 9.0733C14.6035 8.73711 14.2095 8.46944 13.775 8.28557C13.3405 8.10169 12.874 8.00522 12.4022 8.00167C12.2434 8.00167 12.0911 7.93859 11.9788 7.82632C11.8666 7.71405 11.8035 7.56177 11.8035 7.40299C11.8035 7.24421 11.8666 7.09194 11.9788 6.97966C12.0911 6.86739 12.2434 6.80431 12.4022 6.80431C13.0362 6.80426 13.6639 6.9301 14.2489 7.17453C14.834 7.41895 15.3646 7.7771 15.8101 8.2282C16.2557 8.6793 16.6072 9.21437 16.8443 9.80238C17.0815 10.3904 17.1995 11.0196 17.1916 11.6536C17.1916 11.8124 17.1285 11.9647 17.0162 12.0769C16.904 12.1892 16.7517 12.2523 16.5929 12.2523C16.4341 12.2523 16.2819 12.1892 16.1696 12.0769C16.0573 11.9647 15.9942 11.8124 15.9942 11.6536C15.9986 11.1746 15.9071 10.6995 15.7251 10.2564Z" fill="#333333"/>
</svg>
