<svg width="24" height="24" viewBox="0 0 24 24" fill="none" xmlns="http://www.w3.org/2000/svg">
<path fill-rule="evenodd" clip-rule="evenodd" d="M22 12C22 17.5228 17.5228 22 12 22C6.47715 22 2 17.5228 2 12C2 6.47715 6.47715 2 12 2C17.5228 2 22 6.47715 22 12ZM23 12C23 18.0751 18.0751 23 12 23C5.92487 23 1 18.0751 1 12C1 5.92487 5.92487 1 12 1C18.0751 1 23 5.92487 23 12ZM9.765 7.47812C9.43197 7.26998 9 7.50941 9 7.90212V16.0979C9 16.4906 9.43198 16.73 9.765 16.5219L16.3216 12.424C16.6349 12.2282 16.6349 11.7718 16.3216 11.576L9.765 7.47812Z" fill="#333333"/>
</svg>
