<svg width="24" height="24" viewBox="0 0 24 24" fill="none" xmlns="http://www.w3.org/2000/svg">
<path fill-rule="evenodd" clip-rule="evenodd" d="M17.5555 11.6708C16.8847 15.1549 13.5577 17.3972 10.1576 16.7288C6.75754 16.0603 4.50505 12.7211 5.17579 9.237C5.84654 5.7529 9.17357 3.51059 12.5737 4.17904C15.9737 4.84749 18.2262 8.18672 17.5555 11.6708ZM17.4302 16.2764C18.4928 15.1482 19.2597 13.7103 19.5758 12.068C20.458 7.48583 17.4973 3.04858 12.9629 2.15713C8.42853 1.26569 4.03758 4.25762 3.15543 8.8398C2.27329 13.422 5.234 17.8592 9.76837 18.7507C11.9543 19.1804 14.1069 18.7077 15.8492 17.5893L19.1762 21.6238C19.5386 22.0633 20.1872 22.1267 20.6247 21.7653C21.0623 21.4039 21.1231 20.7547 20.7607 20.3152L17.4302 16.2764Z" fill="#333333"/>
</svg>
