<svg width="24" height="24" viewBox="0 0 24 24" fill="none" xmlns="http://www.w3.org/2000/svg">
<path fill-rule="evenodd" clip-rule="evenodd" d="M22 12C22 17.5228 17.5228 22 12 22C6.47715 22 2 17.5228 2 12C2 6.47715 6.47715 2 12 2C17.5228 2 22 6.47715 22 12ZM15.6 12C16.2628 12 16.8 11.4628 16.8 10.8C16.8 10.1373 16.2628 9.60003 15.6 9.60003C14.9373 9.60003 14.4 10.1373 14.4 10.8C14.4 11.4628 14.9373 12 15.6 12ZM8.40006 12C9.0628 12 9.60006 11.4628 9.60006 10.8C9.60006 10.1373 9.0628 9.60004 8.40006 9.60004C7.73732 9.60004 7.20006 10.1373 7.20006 10.8C7.20006 11.4628 7.73732 12 8.40006 12ZM12.0001 13.0499C12.0909 13.0498 12.1794 13.0663 12.2618 13.097C12.3627 13.1345 12.452 13.1924 12.5256 13.2649C12.6344 13.3719 12.7092 13.5108 12.7376 13.6626C12.8184 14.0411 12.9903 14.2803 13.2077 14.4498C13.443 14.6333 13.7703 14.7637 14.1823 14.8405C15.018 14.9963 15.9843 14.8977 16.7095 14.8238H16.7096L16.724 14.8223C17.1361 14.7803 17.5042 15.0803 17.5462 15.4924C17.5882 15.9045 17.2882 16.2726 16.8761 16.3146L16.8004 16.3223C16.1088 16.3933 14.9596 16.5112 13.9074 16.3151C13.3531 16.2117 12.7731 16.0131 12.2853 15.6326C12.1845 15.554 12.0892 15.4689 12.0001 15.3771C11.9109 15.4689 11.8157 15.554 11.7149 15.6326C11.227 16.0131 10.647 16.2117 10.0927 16.3151C9.04058 16.5112 7.89139 16.3933 7.19976 16.3223L7.124 16.3146C6.71192 16.2726 6.41192 15.9045 6.45393 15.4924C6.49594 15.0803 6.86405 14.7803 7.27613 14.8223L7.29059 14.8238L7.29061 14.8238C8.01585 14.8977 8.98212 14.9963 9.81782 14.8405C10.2299 14.7637 10.5571 14.6333 10.7925 14.4498C11.0099 14.2803 11.1818 14.0411 11.2626 13.6626C11.27 13.6227 11.2807 13.5836 11.2943 13.5459C11.3333 13.4373 11.3957 13.3421 11.4745 13.2649C11.6124 13.1297 11.8003 13.0497 12.0001 13.0499Z" fill="#333333"/>
</svg>
