<svg width="24" height="24" viewBox="0 0 24 24" fill="none" xmlns="http://www.w3.org/2000/svg">
<path fill-rule="evenodd" clip-rule="evenodd" d="M12 22.35C17.7162 22.35 22.35 17.7161 22.35 12C22.35 6.28385 17.7162 1.64999 12 1.64999C6.28388 1.64999 1.65002 6.28385 1.65002 12C1.65002 17.7161 6.28388 22.35 12 22.35ZM12 21C16.9706 21 21 16.9706 21 12C21 7.02943 16.9706 2.99999 12 2.99999C7.02946 2.99999 3.00002 7.02943 3.00002 12C3.00002 16.9706 7.02946 21 12 21ZM8.98611 12C9.54097 12 9.99076 11.5502 9.99076 10.9954C9.99076 10.4405 9.54097 9.99073 8.98611 9.99073C8.43126 9.99073 7.98146 10.4405 7.98146 10.9954C7.98146 11.5502 8.43126 12 8.98611 12ZM15.014 12.0001C15.5689 12.0001 16.0187 11.5503 16.0187 10.9954C16.0187 10.4405 15.5689 9.99075 15.014 9.99075C14.4592 9.99075 14.0094 10.4405 14.0094 10.9954C14.0094 11.5503 14.4592 12.0001 15.014 12.0001ZM12.0001 12.879C12.0755 12.8789 12.1488 12.8925 12.2172 12.9177C12.3044 12.9497 12.3811 12.9999 12.444 13.0628C12.5331 13.152 12.5943 13.2669 12.6176 13.3924C12.6853 13.7091 12.8292 13.9091 13.0111 14.051C13.2082 14.2046 13.4821 14.3138 13.8271 14.3781C14.5268 14.5085 15.3357 14.426 15.9429 14.3641L15.955 14.3629C16.3 14.3277 16.6082 14.5789 16.6434 14.9239C16.6786 15.2689 16.4274 15.5771 16.0824 15.6122L16.019 15.6187C15.4399 15.6781 14.4778 15.7768 13.597 15.6126C13.1329 15.5261 12.6473 15.3598 12.2389 15.0413C12.1545 14.9755 12.0747 14.9042 12.0001 14.8273C11.9255 14.9042 11.8457 14.9755 11.7613 15.0413C11.3529 15.3598 10.8674 15.5261 10.4033 15.6126C9.52242 15.7768 8.56032 15.6781 7.98128 15.6187H7.98127L7.98125 15.6187L7.91783 15.6122C7.57283 15.5771 7.32167 15.2689 7.35684 14.9239C7.39201 14.5789 7.7002 14.3277 8.04519 14.3629L8.0573 14.3641C8.66448 14.426 9.47346 14.5085 10.1731 14.3781C10.5181 14.3138 10.7921 14.2046 10.9891 14.051C11.171 13.9091 11.3149 13.7091 11.3826 13.3924C11.3891 13.3575 11.3985 13.3235 11.4106 13.2906C11.4426 13.203 11.493 13.1259 11.5562 13.0628C11.672 12.9473 11.831 12.8788 12.0001 12.879Z" fill="#333333"/>
</svg>
