<svg width="24" height="24" viewBox="0 0 24 24" fill="none" xmlns="http://www.w3.org/2000/svg">
<path fill-rule="evenodd" clip-rule="evenodd" d="M8.76682 2.31876C8.8498 1.68868 9.39399 1.25 9.99998 1.25H14C14.606 1.25 15.1502 1.68868 15.2331 2.31876L15.5535 4.55284C15.9439 4.73909 16.3141 4.95557 16.6661 5.19915L18.782 4.3494L18.7937 4.34516C19.3177 4.15459 19.9929 4.32618 20.313 4.90102L22.3139 8.36271L22.3184 8.37086C22.6027 8.89217 22.4988 9.56859 22.0047 9.95866L22.002 9.96081L20.2203 11.3541C20.2383 11.5605 20.25 11.7752 20.25 12C20.25 12.2248 20.2383 12.4395 20.2203 12.6459L22.0047 14.0413C22.4988 14.4314 22.6027 15.1078 22.3184 15.6291L22.3139 15.6373L20.313 19.099C20.0053 19.6514 19.3464 19.8714 18.7767 19.6484L18.7705 19.646L16.6626 18.7994C16.3145 19.0381 15.9456 19.2575 15.5536 19.4461L15.2331 21.6813C15.1501 22.3113 14.606 22.75 14 22.75H9.99998C9.394 22.75 8.84981 22.3113 8.76682 21.6813L8.44646 19.4472C8.05605 19.2609 7.68588 19.0444 7.33383 18.8009L5.21796 19.6506L5.20628 19.6548C4.68224 19.8454 4.00714 19.6738 3.68702 19.0991L1.686 15.6373L1.68155 15.6291C1.3972 15.1078 1.50115 14.4314 1.99524 14.0413L1.99797 14.0392L3.7799 12.6457C3.76171 12.4364 3.74998 12.2198 3.74998 12C3.74998 11.7802 3.76171 11.5636 3.7799 11.3543L1.99797 9.96081L1.99524 9.95866C1.52314 9.58595 1.36674 8.90701 1.69207 8.35221L3.68701 4.90097C3.99465 4.34859 4.6536 4.12865 5.22327 4.35157L5.22949 4.354L7.33737 5.20057C7.68542 4.96187 8.05436 4.74254 8.44631 4.55387L8.76682 2.31876ZM10.2203 2.75L9.81147 5.60124L9.41439 5.76398C8.87597 5.98464 8.3712 6.28908 7.88998 6.65L7.55223 6.90331L4.88202 5.83093L3.09818 8.91698L5.36692 10.6911L5.31418 11.113C5.2761 11.4177 5.24998 11.7136 5.24998 12C5.24998 12.2864 5.2761 12.5823 5.31418 12.887L5.36692 13.3089L3.09818 15.083L4.88202 18.1691L7.55784 17.0944L7.89726 17.3555C8.36833 17.7179 8.8707 18.0132 9.41439 18.236L9.81147 18.3988L10.2203 21.25H13.7796L14.1885 18.3988L14.5856 18.236C15.124 18.0154 15.6287 17.7109 16.11 17.35L16.4477 17.0967L19.1179 18.1691L20.9018 15.083L18.633 13.3089L18.6858 12.887C18.7239 12.5816 18.75 12.296 18.75 12C18.75 11.704 18.7239 11.4184 18.6858 11.113L18.633 10.6911L20.9018 8.91698L19.1179 5.83093L16.4421 6.90556L16.1027 6.64447C15.6316 6.28211 15.1293 5.98681 14.5856 5.76398L14.1885 5.60124L13.7796 2.75H10.2203ZM12 9.25C10.4842 9.25 9.24998 10.4842 9.24998 12C9.24998 13.5158 10.4842 14.75 12 14.75C13.5158 14.75 14.75 13.5158 14.75 12C14.75 10.4842 13.5158 9.25 12 9.25ZM7.74998 12C7.74998 9.65579 9.65576 7.75 12 7.75C14.3442 7.75 16.25 9.65579 16.25 12C16.25 14.3442 14.3442 16.25 12 16.25C9.65576 16.25 7.74998 14.3442 7.74998 12Z" fill="#333333"/>
</svg>
