<svg width="24" height="24" viewBox="0 0 24 24" fill="none" xmlns="http://www.w3.org/2000/svg">
<path fill-rule="evenodd" clip-rule="evenodd" d="M2 12C2 6.47715 6.47715 2 12 2C17.5228 2 22 6.47715 22 12C22 17.5228 17.5228 22 12 22C10.2435 22 8.59276 21.5471 7.1582 20.7518C6.89319 20.6049 6.57858 20.5681 6.29288 20.6691L3.77033 21.5605C2.8192 21.8966 1.903 20.9804 2.23909 20.0292L3.16734 17.4023C3.26442 17.1275 3.23431 16.8254 3.10107 16.5663C2.39726 15.1975 2 13.6451 2 12ZM11.2295 15.2826L8.76508 12.6854C7.87828 11.7508 7.87828 10.2355 8.76508 9.30092C9.65188 8.36633 11.0897 8.36633 11.9765 9.30092C12.0436 9.37168 12.1563 9.37168 12.2235 9.30092C13.1103 8.36633 14.5481 8.36633 15.4349 9.30092C16.3217 10.2355 16.3217 11.7508 15.4349 12.6854L12.9705 15.2826C12.4973 15.7813 11.7027 15.7813 11.2295 15.2826Z" fill="#333333"/>
</svg>
