<svg width="24" height="24" viewBox="0 0 24 24" fill="none" xmlns="http://www.w3.org/2000/svg">
<path fill-rule="evenodd" clip-rule="evenodd" d="M11.9999 1.93811C6.4429 1.93811 1.93805 6.44296 1.93805 12C1.93805 13.5643 2.29609 15.049 2.93581 16.3729L2.22845 18.3747C1.52058 20.378 3.45028 22.3077 5.45354 21.5998L7.35544 20.9278C8.74631 21.6526 10.3273 22.0619 11.9999 22.0619C17.5569 22.0619 22.0618 17.557 22.0618 12C22.0618 6.44296 17.5569 1.93811 11.9999 1.93811ZM11.9999 3.43811C7.27133 3.43811 3.43805 7.27139 3.43805 12C3.43805 13.4085 3.77817 14.7376 4.38077 15.9096C4.49485 16.1315 4.52063 16.3901 4.43751 16.6253L3.64275 18.8745C3.355 19.6889 4.13944 20.4733 4.95379 20.1855L7.11356 19.4224C7.35817 19.3359 7.62753 19.3673 7.85443 19.4931C9.08269 20.1741 10.496 20.5619 11.9999 20.5619C16.7285 20.5619 20.5618 16.7286 20.5618 12C20.5618 7.27139 16.7285 3.43811 11.9999 3.43811ZM11.2294 15.2826L8.76501 12.6854C7.87821 11.7508 7.87821 10.2355 8.76501 9.30094C9.65181 8.36635 11.0896 8.36635 11.9764 9.30094C12.0435 9.3717 12.1563 9.3717 12.2234 9.30094C13.1102 8.36635 14.548 8.36635 15.4348 9.30094C16.3216 10.2355 16.3216 11.7508 15.4348 12.6854L12.9704 15.2826C12.4972 15.7813 11.7026 15.7813 11.2294 15.2826Z" fill="#333333"/>
</svg>
