<svg width="24" height="24" viewBox="0 0 24 24" fill="none" xmlns="http://www.w3.org/2000/svg">
<path fill-rule="evenodd" clip-rule="evenodd" d="M17.5814 3.39535C16.4254 3.39535 15.4883 4.33243 15.4883 5.48838C15.4883 5.85551 15.5829 6.20057 15.7489 6.50053C15.7579 6.51375 15.7665 6.52735 15.7746 6.54135C15.7827 6.55525 15.7903 6.56931 15.7974 6.58351C16.1657 7.18221 16.8269 7.58141 17.5814 7.58141C18.7373 7.58141 19.6744 6.64433 19.6744 5.48838C19.6744 4.33243 18.7373 3.39535 17.5814 3.39535ZM14.9802 7.81277C15.6189 8.52713 16.5477 8.97676 17.5814 8.97676C19.508 8.97676 21.0698 7.41496 21.0698 5.48838C21.0698 3.5618 19.508 2 17.5814 2C15.6548 2 14.093 3.5618 14.093 5.48838C14.093 5.87995 14.1575 6.25646 14.2765 6.60784L9.01972 9.67557C8.38095 8.96124 7.45226 8.51162 6.41856 8.51162C4.49198 8.51162 2.93018 10.0734 2.93018 12C2.93018 13.9266 4.49198 15.4884 6.41856 15.4884C7.4524 15.4884 8.3812 15.0386 9.01999 14.3241L14.2779 17.388C14.158 17.7406 14.093 18.1185 14.093 18.5116C14.093 20.4382 15.6548 22 17.5814 22C19.508 22 21.0698 20.4382 21.0698 18.5116C21.0698 16.585 19.508 15.0232 17.5814 15.0232C16.5492 15.0232 15.6218 15.4715 14.9831 16.184L9.72354 13.1191C9.84246 12.7678 9.90694 12.3915 9.90694 12C9.90694 11.6084 9.84241 11.2319 9.72342 10.8805L14.9802 7.81277ZM8.20261 10.9049C8.20964 10.9191 8.21719 10.9331 8.22528 10.947C8.23343 10.9609 8.242 10.9745 8.25095 10.9877C8.41703 11.2877 8.51158 11.6328 8.51158 12C8.51158 12.3672 8.41701 12.7124 8.25089 13.0124C8.24188 13.0257 8.23326 13.0393 8.22506 13.0534C8.21707 13.0671 8.20961 13.081 8.20266 13.095C7.83437 13.6938 7.17309 14.093 6.41856 14.093C5.26261 14.093 4.32553 13.1559 4.32553 12C4.32553 10.8441 5.26261 9.90697 6.41856 9.90697C7.17306 9.90697 7.83431 10.3062 8.20261 10.9049ZM15.4883 18.5116C15.4883 18.1631 15.5735 17.8345 15.7242 17.5454C15.746 17.5183 15.7661 17.4893 15.7842 17.4583C15.8016 17.4284 15.8165 17.3977 15.8291 17.3665C16.2029 16.7957 16.8481 16.4186 17.5814 16.4186C18.7373 16.4186 19.6744 17.3557 19.6744 18.5116C19.6744 19.6676 18.7373 20.6046 17.5814 20.6046C16.4254 20.6046 15.4883 19.6676 15.4883 18.5116Z" fill="#1F2937"/>
</svg>
