<svg width="24" height="24" viewBox="0 0 24 24" fill="none" xmlns="http://www.w3.org/2000/svg">
<path fill-rule="evenodd" clip-rule="evenodd" d="M10.3292 2.32174C11.0871 1.06239 12.9128 1.06239 13.6707 2.32174L16.0012 6.19414C16.064 6.29855 16.1665 6.37301 16.2852 6.4005L20.6882 7.42025C22.1201 7.75188 22.6843 9.4883 21.7208 10.5983L18.7581 14.0113C18.6782 14.1033 18.6391 14.2238 18.6496 14.3452L19.0404 18.8478C19.1675 20.3121 17.6904 21.3853 16.337 20.8119L12.1755 19.0489C12.0633 19.0014 11.9366 19.0014 11.8244 19.0489L7.6629 20.8119C6.30953 21.3853 4.83245 20.3121 4.95953 18.8478L5.3503 14.3452C5.36084 14.2238 5.32169 14.1033 5.24181 14.0113L2.27908 10.5983C1.31557 9.4883 1.87977 7.75188 3.31168 7.42025L7.7147 6.4005C7.83341 6.37301 7.9359 6.29855 7.99873 6.19414L10.3292 2.32174Z" fill="#333333"/>
</svg>
