<svg width="24" height="24" viewBox="0 0 24 24" fill="none" xmlns="http://www.w3.org/2000/svg">
<path fill-rule="evenodd" clip-rule="evenodd" d="M10.3292 2.32174C11.0871 1.06239 12.9128 1.06239 13.6707 2.32174L16.0012 6.19414C16.064 6.29855 16.1665 6.37301 16.2852 6.4005L20.6882 7.42025C22.1201 7.75188 22.6843 9.4883 21.7208 10.5983L18.7581 14.0113C18.6782 14.1033 18.6391 14.2238 18.6496 14.3452L19.0404 18.8478C19.1675 20.3121 17.6904 21.3853 16.337 20.8119L12.1755 19.0489C12.0633 19.0014 11.9366 19.0014 11.8244 19.0489L7.6629 20.8119C6.30953 21.3853 4.83245 20.3121 4.95953 18.8478L5.3503 14.3452C5.36084 14.2238 5.32169 14.1033 5.24181 14.0113L2.27908 10.5983C1.31557 9.4883 1.87977 7.75188 3.31168 7.42025L7.7147 6.4005C7.83341 6.37301 7.9359 6.29855 7.99873 6.19414L10.3292 2.32174ZM12.3855 3.09519C12.2106 2.80457 11.7893 2.80457 11.6144 3.09519L9.28395 6.96759C9.01167 7.42002 8.56756 7.74268 8.05315 7.86182L3.65013 8.88157C3.31968 8.9581 3.18949 9.35881 3.41183 9.61496L6.37456 13.028C6.7207 13.4267 6.89034 13.9488 6.84468 14.4749L6.45391 18.9775C6.42459 19.3154 6.76545 19.5631 7.07777 19.4308L11.2393 17.6677C11.7255 17.4618 12.2744 17.4618 12.7606 17.6677L16.9221 19.4308C17.2345 19.5631 17.5753 19.3154 17.546 18.9775L17.1552 14.4749C17.1096 13.9488 17.2792 13.4267 17.6254 13.028L20.5881 9.61496C20.8104 9.35881 20.6802 8.9581 20.3498 8.88157L15.9468 7.86182C15.4323 7.74268 14.9882 7.42002 14.716 6.96759L12.3855 3.09519Z" fill="#333333"/>
</svg>
