<svg width="24" height="24" viewBox="0 0 24 24" fill="none" xmlns="http://www.w3.org/2000/svg">
<path d="M12 2C6.48 2 2 6.48 2 12C2 17.52 6.48 22 12 22C17.52 22 22 17.52 22 12C22 6.48 17.52 2 12 2ZM10.6522 16.3478C10.292 16.708 9.70801 16.708 9.34783 16.3478L5.70549 12.7055C5.31586 12.3159 5.31586 11.6841 5.70549 11.2945C6.09474 10.9053 6.7257 10.9048 7.11549 11.2935L9.53174 13.703C9.79046 13.961 10.2093 13.9607 10.4676 13.7024L16.88 7.29C17.2717 6.89829 17.9072 6.89941 18.2975 7.29251C18.6859 7.68365 18.6848 8.31524 18.295 8.705L10.6522 16.3478Z" fill="#333333"/>
</svg>
