<svg width="25" height="24" viewBox="0 0 25 24" fill="none" xmlns="http://www.w3.org/2000/svg">
<path fill-rule="evenodd" clip-rule="evenodd" d="M3.625 1.875C3.21079 1.875 2.875 2.21079 2.875 2.625C2.875 3.03921 3.21079 3.375 3.625 3.375H4.625C5.86764 3.375 6.875 4.38236 6.875 5.625V8.125V11.6048C4.95925 12.4647 3.625 14.3891 3.625 16.625C3.625 19.6626 6.08743 22.125 9.125 22.125C12.1626 22.125 14.625 19.6626 14.625 16.625C14.625 16.3706 14.6077 16.1202 14.5743 15.875H17.625C18.4636 15.875 19.1644 16.4649 19.3352 17.2523C18.3416 17.5829 17.625 18.5203 17.625 19.625C17.625 21.0057 18.7443 22.125 20.125 22.125C21.5057 22.125 22.625 21.0057 22.625 19.625C22.625 18.497 21.8779 17.5434 20.8515 17.2322C20.6576 15.6225 19.287 14.375 17.625 14.375H14.1452C13.2853 12.4592 11.3609 11.125 9.125 11.125C8.8706 11.125 8.62023 11.1423 8.375 11.1757V8.875H16.125C16.5392 8.875 16.875 8.53921 16.875 8.125C16.875 7.71079 16.5392 7.375 16.125 7.375H8.375V5.625C8.375 3.55393 6.69607 1.875 4.625 1.875H3.625ZM9.125 19.625C10.7819 19.625 12.125 18.2819 12.125 16.625C12.125 14.9681 10.7819 13.625 9.125 13.625C7.46815 13.625 6.125 14.9681 6.125 16.625C6.125 18.2819 7.46815 19.625 9.125 19.625ZM9.125 18.125C9.95343 18.125 10.625 17.4534 10.625 16.625C10.625 15.7966 9.95343 15.125 9.125 15.125C8.29657 15.125 7.625 15.7966 7.625 16.625C7.625 17.4534 8.29657 18.125 9.125 18.125Z" fill="#333333"/>
</svg>
