<svg width="24" height="24" viewBox="0 0 24 24" fill="none" xmlns="http://www.w3.org/2000/svg">
<path fill-rule="evenodd" clip-rule="evenodd" d="M2.875 1.875C2.46079 1.875 2.125 2.21079 2.125 2.625C2.125 3.03921 2.46079 3.375 2.875 3.375H3.875C5.11764 3.375 6.125 4.38236 6.125 5.625V8.125V11.6048C4.20925 12.4647 2.875 14.3891 2.875 16.625C2.875 19.6626 5.33743 22.125 8.375 22.125C11.4126 22.125 13.875 19.6626 13.875 16.625C13.875 16.3706 13.8577 16.1202 13.8243 15.875H16.875C17.7136 15.875 18.4144 16.4649 18.5852 17.2523C17.5916 17.5829 16.875 18.5203 16.875 19.625C16.875 21.0057 17.9943 22.125 19.375 22.125C20.7557 22.125 21.875 21.0057 21.875 19.625C21.875 18.497 21.1279 17.5434 20.1015 17.2322C19.9076 15.6225 18.537 14.375 16.875 14.375H13.3952C12.5353 12.4592 10.6109 11.125 8.375 11.125C8.1206 11.125 7.87023 11.1423 7.625 11.1757V8.875H15.375C15.7892 8.875 16.125 8.53921 16.125 8.125C16.125 7.71079 15.7892 7.375 15.375 7.375H7.625V5.625C7.625 3.55393 5.94607 1.875 3.875 1.875H2.875ZM8.375 20.625C10.5841 20.625 12.375 18.8341 12.375 16.625C12.375 14.4159 10.5841 12.625 8.375 12.625C6.16586 12.625 4.375 14.4159 4.375 16.625C4.375 18.8341 6.16586 20.625 8.375 20.625ZM8.375 18.125C9.20343 18.125 9.875 17.4534 9.875 16.625C9.875 15.7966 9.20343 15.125 8.375 15.125C7.54657 15.125 6.875 15.7966 6.875 16.625C6.875 17.4534 7.54657 18.125 8.375 18.125ZM19.375 20.625C19.9273 20.625 20.375 20.1773 20.375 19.625C20.375 19.0727 19.9273 18.625 19.375 18.625C18.8227 18.625 18.375 19.0727 18.375 19.625C18.375 20.1773 18.8227 20.625 19.375 20.625Z" fill="#333333"/>
</svg>
