<?xml version="1.0" encoding="UTF-8"?>
<svg width="23.2437274px" height="30px" viewBox="0 0 23.2437274 30" version="1.1" xmlns="http://www.w3.org/2000/svg" xmlns:xlink="http://www.w3.org/1999/xlink">
    <title>quick-link-icon-3</title>
    <defs>
        <polygon id="path-1" points="0 1.06294289 23.2437274 1.06294289 23.2437274 4.25842328 0 4.25842328"></polygon>
        <polygon id="path-3" points="0 1.21140901 5.32136617 1.21140901 5.32136617 4.10995716 0 4.10995716"></polygon>
        <polygon id="path-5" points="0 1.21140901 5.32136617 1.21140901 5.32136617 4.10995716 0 4.10995716"></polygon>
    </defs>
    <g id="Page-1" stroke="none" stroke-width="1" fill="none" fill-rule="evenodd">
        <g id="assets" transform="translate(-522.6357, -913)">
            <g id="quick-link-icon-3" transform="translate(522.6357, 913)">
                <path d="M12.1550646,1.0695946 C10.8832581,1.0695946 9.85091306,2.10193964 9.85091306,3.37374615 C9.85091306,4.6402313 10.8832581,5.67257634 12.1550646,5.67257634 C13.4268711,5.67257634 14.4592162,4.6402313 14.4592162,3.37374615 C14.4592162,2.10193964 13.4268711,1.0695946 12.1550646,1.0695946 M12.1550646,6.74217094 C10.2925865,6.74217094 8.78131846,5.23090295 8.78131846,3.37374615 C8.78131846,1.51126799 10.2925865,0 12.1550646,0 C14.0175428,0 15.5288108,1.51126799 15.5288108,3.37374615 C15.5288108,5.23090295 14.0175428,6.74217094 12.1550646,6.74217094" id="Fill-1" fill="#FF8300"></path>
                <path d="M4.52635407,27.7179321 L8.38434454,27.7179321 L8.38434454,27.5050775 C8.38434454,26.9250486 7.91074295,26.451447 7.33071404,26.451447 L6.60168687,26.451447 C6.30901173,26.451447 6.06955026,26.2119855 6.06955026,25.913989 L6.06955026,17.8255124 C6.06422889,17.8095483 6.06422889,17.7935842 6.06422889,17.7776201 C6.02697933,15.8885351 6.35158266,14.0313783 7.03271753,12.254042 C7.10721666,12.0571515 7.28814311,11.9241173 7.50099776,11.9134746 C7.70853104,11.8975105 7.90542159,12.0092592 8.00652754,12.195507 L9.1452999,14.3666244 C9.21979903,14.5156226 9.35283318,14.6326927 9.5071528,14.6912277 L13.8759944,16.3621367 C14.0569209,16.4313145 14.2484901,16.4206717 14.4187738,16.3408512 C14.5943789,16.2557094 14.7220917,16.1120325 14.7806267,15.9257847 C14.8923754,15.5852172 14.6795207,15.1914361 14.3017037,15.0477593 L10.4330705,13.5684195 C10.3106791,13.5205272 10.2095731,13.4300639 10.1510381,13.3183153 L8.4215941,10.0190682 C8.33113088,9.84346315 8.33645225,9.63592986 8.44287957,9.47628888 C8.7994111,8.93350953 9.18254947,8.41733701 9.59229466,7.93841406 C9.68807925,7.82666537 9.67743652,7.66170301 9.56568783,7.55527569 C9.08144351,7.09231683 8.4215941,6.86881945 7.75110197,6.94331858 C7.09125256,7.02313907 6.50590228,7.37967061 6.14404938,7.93309269 C4.40396264,10.5884544 3.42483127,13.6748468 3.30776121,16.8517024 C3.30243985,16.9528084 3.33968941,17.0485929 3.40886717,17.1177707 C3.47804493,17.1922698 3.56850815,17.2295194 3.66961411,17.2295194 L3.98889608,17.2295194 C4.28689259,17.2295194 4.52635407,17.4689809 4.52635407,17.7669774 L4.52635407,27.7179321 Z M8.91648116,28.7875267 L3.98889608,28.7875267 C3.69622094,28.7875267 3.45675947,28.5480652 3.45675947,28.2553901 L3.45675947,18.2884713 C3.14812023,18.240579 2.86076645,18.0915807 2.63726907,17.862762 C2.3658794,17.5807296 2.22220251,17.2082339 2.23816661,16.8144528 C2.36055803,13.4407067 3.4035458,10.1680665 5.25005987,7.34774241 C5.78751785,6.52825202 6.65490053,5.9961154 7.62871054,5.88436671 C8.61316329,5.76729666 9.59229466,6.09722136 10.3053577,6.7836776 C10.8268516,7.27856465 10.8694225,8.09273367 10.4064637,8.63551302 C10.0925031,9.00268729 9.79450658,9.39114702 9.51247417,9.80089222 L11.0024567,12.6371804 L14.6848421,14.0473424 C15.6001171,14.3932312 16.0896828,15.3670412 15.7970076,16.2557094 C15.6480094,16.7239896 15.323406,17.0964852 14.8817326,17.3040185 C14.450702,17.5115518 13.9451722,17.5328373 13.4928561,17.3625535 L9.12401444,15.6916446 C8.72491198,15.5373249 8.39498727,15.2446498 8.19277536,14.8668328 L7.63935328,13.8078809 C7.28282174,15.0743661 7.11253803,16.3781008 7.13382349,17.6977996 C7.13382349,17.7190851 7.13914486,17.7403705 7.13914486,17.7669774 L7.13914486,25.3818524 L7.33071404,25.3818524 C8.5014146,25.3818524 9.45393914,26.3343769 9.45393914,27.5050775 L9.45393914,28.2553901 C9.45393914,28.5480652 9.21447766,28.7875267 8.91648116,28.7875267 L8.91648116,28.7875267 Z" id="Fill-3" fill="#FF8300"></path>
                <g id="Group-7" transform="translate(0, 24.5302)">
                    <mask id="mask-2" fill="white">
                        <use xlink:href="#path-1"></use>
                    </mask>
                    <g id="Clip-6"></g>
                    <path d="M22.7062695,4.25842328 L0.532136617,4.25842328 C0.239461478,4.25842328 0,4.0189618 0,3.7209653 C0,3.42829016 0.239461478,3.18882868 0.532136617,3.18882868 L22.7062695,3.18882868 C23.004266,3.18882868 23.2437274,3.42829016 23.2437274,3.7209653 C23.2437274,4.0189618 23.004266,4.25842328 22.7062695,4.25842328" id="Fill-5" fill="#FF8300" mask="url(#mask-2)"></path>
                </g>
                <path d="M12.1380362,26.9633624 C12.1167508,26.9633624 12.0954653,26.9633624 12.0795012,26.958041 C11.7868261,26.9261128 11.5739714,26.6600445 11.6058996,26.3673694 L12.3721764,19.4762002 C12.4041045,19.2048105 12.6329233,19.0025986 12.904313,19.0025986 L17.8638262,19.0025986 C18.1352159,19.0025986 18.369356,19.2101319 18.3959629,19.4815216 L19.0877405,26.3726907 C19.1196687,26.6653659 18.906814,26.9261128 18.6088175,26.958041 C18.3214637,26.9899692 18.0553954,26.7717932 18.0234672,26.4791181 L17.3795819,20.0721932 L13.3832359,20.0721932 L12.6701729,26.4897608 C12.6382447,26.7611505 12.4094259,26.9633624 12.1380362,26.9633624" id="Fill-8" fill="#FF8300"></path>
                <path d="M7.53079741,12.9820049 C7.33390686,12.9820049 7.14233768,12.8702562 7.05187445,12.6840084 L6.48780964,11.5558788 C6.35477548,11.2898105 6.46120281,10.9705285 6.72727111,10.8374943 C6.99333942,10.7044602 7.31262139,10.8108875 7.44565555,11.0769558 L8.00972036,12.2050855 C8.14275452,12.4711538 8.03100583,12.7957571 7.77025888,12.9234699 C7.69043839,12.9607194 7.6106179,12.9820049 7.53079741,12.9820049" id="Fill-10" fill="#FF8300"></path>
                <g id="Group-14" transform="translate(17.1103, 24.6786)">
                    <mask id="mask-4" fill="white">
                        <use xlink:href="#path-3"></use>
                    </mask>
                    <g id="Clip-13"></g>
                    <path d="M1.4474116,2.28100361 C1.23987832,2.28100361 1.0695946,2.45128733 1.0695946,2.65882061 C1.0695946,2.87167525 1.23987832,3.04195897 1.4474116,3.04195897 C1.65494488,3.04195897 1.8252286,2.87167525 1.8252286,2.65882061 C1.8252286,2.45128733 1.65494488,2.28100361 1.4474116,2.28100361 M1.4474116,4.11155357 C0.649206673,4.11155357 -1.11022302e-14,3.4623469 -1.11022302e-14,2.65882061 C-1.11022302e-14,1.86061568 0.649206673,1.21140901 1.4474116,1.21140901 C2.24561652,1.21140901 2.8948232,1.86061568 2.8948232,2.65882061 C2.8948232,3.4623469 2.24561652,4.11155357 1.4474116,4.11155357" id="Fill-12" fill="#FF8300" mask="url(#mask-4)"></path>
                </g>
                <g id="Group-17" transform="translate(10.6092, 24.6786)">
                    <mask id="mask-6" fill="white">
                        <use xlink:href="#path-5"></use>
                    </mask>
                    <g id="Clip-16"></g>
                    <path d="M1.4474116,2.28100361 C1.23987832,2.28100361 1.0695946,2.45128733 1.0695946,2.65882061 C1.0695946,2.87167525 1.23987832,3.04195897 1.4474116,3.04195897 C1.65494488,3.04195897 1.8252286,2.87167525 1.8252286,2.65882061 C1.8252286,2.45128733 1.65494488,2.28100361 1.4474116,2.28100361 M1.4474116,4.11155357 C0.649206673,4.11155357 -7.54951657e-15,3.4623469 -7.54951657e-15,2.65882061 C-7.54951657e-15,1.86061568 0.649206673,1.21140901 1.4474116,1.21140901 C2.24561652,1.21140901 2.8948232,1.86061568 2.8948232,2.65882061 C2.8948232,3.4623469 2.24561652,4.11155357 1.4474116,4.11155357" id="Fill-15" fill="#FF8300" mask="url(#mask-6)"></path>
                </g>
                <path d="M13.063954,17.5642333 C12.6701729,17.5642333 12.3455695,17.8888367 12.3455695,18.2826178 C12.3455695,18.6817202 12.6701729,19.0010022 13.063954,19.0010022 L17.6350075,19.0010022 C18.0287886,19.0010022 18.3533919,18.6817202 18.3533919,18.2826178 C18.3533919,17.8888367 18.0287886,17.5642333 17.6350075,17.5642333 L13.063954,17.5642333 Z M17.6350075,20.0705968 L13.063954,20.0705968 C12.0795012,20.0705968 11.2759749,19.2670705 11.2759749,18.2826178 C11.2759749,17.298165 12.0795012,16.4946387 13.063954,16.4946387 L17.6350075,16.4946387 C18.6194602,16.4946387 19.4229865,17.298165 19.4229865,18.2826178 C19.4229865,19.2670705 18.6194602,20.0705968 17.6350075,20.0705968 L17.6350075,20.0705968 Z" id="Fill-18" fill="#FF8300"></path>
                <path d="M17.9846213,22.127837 L12.6738978,22.127837 C12.3812227,22.127837 12.1417612,21.8883755 12.1417612,21.590379 C12.1417612,21.2977038 12.3812227,21.0582424 12.6738978,21.0582424 L17.9846213,21.0582424 C18.2772964,21.0582424 18.5220792,21.2977038 18.5220792,21.590379 C18.5220792,21.8883755 18.2772964,22.127837 17.9846213,22.127837" id="Fill-20" fill="#FF8300"></path>
            </g>
        </g>
    </g>
</svg>