<?xml version="1.0" encoding="UTF-8"?>
<svg width="26.1255926px" height="12px" viewBox="0 0 26.1255926 12" version="1.1" xmlns="http://www.w3.org/2000/svg" xmlns:xlink="http://www.w3.org/1999/xlink">
    <title>Group 19</title>
    <g id="visual" stroke="none" stroke-width="1" fill="none" fill-rule="evenodd">
        <g id="메인-롤링3가지" transform="translate(-947.9047, -684)" fill="#FFFFFF">
            <g id="Group-19" transform="translate(944, 684)">
                <g id="Group-4" transform="translate(16.9675, 2.5595) rotate(-135) translate(-16.9675, -2.5595)translate(7.7334, -6.6799)">
                    <path d="M4.0945064,1.92410575 L18.0945064,1.92410575 C18.3706488,1.92410575 18.5945064,2.14796338 18.5945064,2.42410575 C18.5945064,2.70024813 18.3706488,2.92410575 18.0945064,2.92410575 L4.0945064,2.92410575 C3.81836402,2.92410575 3.5945064,2.70024813 3.5945064,2.42410575 C3.5945064,2.14796338 3.81836402,1.92410575 4.0945064,1.92410575 Z" id="Rectangle" transform="translate(11.0945, 2.4241) rotate(-15) translate(-11.0945, -2.4241)"></path>
                    <path d="M2.42410575,3.60495451 C2.70024813,3.60495451 2.92410575,3.82881213 2.92410575,4.10495451 L2.92410575,18.1049545 C2.92410575,18.3810969 2.70024813,18.6049545 2.42410575,18.6049545 C2.14796338,18.6049545 1.92410575,18.3810969 1.92410575,18.1049545 L1.92410575,4.10495451 C1.92410575,3.82881213 2.14796338,3.60495451 2.42410575,3.60495451 Z" id="Rectangle" transform="translate(2.4241, 11.105) rotate(-345) translate(-2.4241, -11.105)"></path>
                </g>
            </g>
        </g>
    </g>
</svg>